<?xml version="1.0" encoding="utf-8"?>
<svg version="1.1" id="Layer_1"
xmlns="http://www.w3.org/2000/svg"
xmlns:xlink="http://www.w3.org/1999/xlink"
width="14px" height="14px"
xml:space="preserve">
<g id="PathID_711" transform="matrix(1, 0, 0, 1, 6.9, 6.85)">
<path style="fill:#A86E49;fill-opacity:1" d="M-2.5 -6.55L0.1 -6.85Q2.95 -6.7 4.9 -4.6L5.05 -4.4L6.3 -2.55Q6.9 -1.2 6.9 0.35Q6.9 3.2 4.9 5.1Q2.95 6.95 0.1 6.8Q-2.75 6.65 -4.75 4.5Q-6.75 2.4 -6.75 -0.45Q-6.75 -2 -6.15 -3.25Q-5.65 -4.3 -4.75 -5.15L-2.5 -6.55" />
<path style="fill:none;stroke-width:0.7;stroke-linecap:round;stroke-linejoin:miter;stroke-miterlimit:5;stroke:#000000;stroke-opacity:0.4" d="M5.05 -4.4L6.3 -2.55Q6.9 -1.2 6.9 0.35Q6.9 3.2 4.9 5.1Q2.95 6.95 0.1 6.8Q-2.75 6.65 -4.75 4.5Q-6.75 2.4 -6.75 -0.45Q-6.75 -2 -6.15 -3.25Q-5.65 -4.3 -4.75 -5.15L-2.5 -6.55" />
</g>
</svg>
