<?xml version="1.0" encoding="utf-8"?>
<svg version="1.1" id="Layer_1"
xmlns="http://www.w3.org/2000/svg"
xmlns:xlink="http://www.w3.org/1999/xlink"
width="10px" height="8px"
xml:space="preserve">
<g id="PathID_318" transform="matrix(1, 0, 0, 1, 3.8, 4.15)">
<path style="fill:#C6531C;fill-opacity:1" d="M-0.35 2L-1.65 1.1L-2.65 0.35L-3.7 -1.1Q-4.1 -2.7 -3.2 -3.55Q-2.4 -4.4 -0.8 -4Q0.75 -3.6 1.35 -2.6L2.25 -1.1Q1.85 -0.15 1.35 0Q0.75 0.1 0.1 1.2L-0.35 2" />
<path style="fill:#0B0B0B;fill-opacity:1" d="M0.05 2.25L-0.35 2L0.1 1.2Q0.75 0.1 1.35 0Q1.85 -0.15 2.25 -1.1L2.8 -0.25L1.9 0.1L1 0.75L0.35 1.75L0.05 2.25" />
<path style="fill:#ADA093;fill-opacity:1" d="M0.35 1.75L1 0.75L1.9 0.1L2.8 -0.25Q3.25 0.2 4 0.45Q7.1 0.4 5.8 1.75L5.05 2.45Q4.25 1 2.4 1.85L3.55 3.1L1 2.95L0.05 2.25L0.35 1.75M5.8 1.75L5.75 1.3Q5.65 0.9 4.85 0.75L4 0.45L4.85 0.75Q5.65 0.9 5.75 1.3L5.8 1.75M2.4 1.85Q4.25 1 5.05 2.45" />
<path style="fill:none;stroke-width:0.7;stroke-linecap:round;stroke-linejoin:round;stroke-miterlimit:3;stroke:#000000;stroke-opacity:0.301961" d="M4 0.45Q7.1 0.4 5.8 1.75L5.05 2.45L3.55 3.1L1 2.95L0.05 2.25L-0.35 2L-1.65 1.1L-2.65 0.35L-3.7 -1.1" />
<path style="fill:none;stroke-width:0.7;stroke-linecap:round;stroke-linejoin:round;stroke-miterlimit:3;stroke:#000000;stroke-opacity:0.301961" d="M4 0.45L4.85 0.75Q5.65 0.9 5.75 1.3L5.8 1.75" />
<path style="fill:none;stroke-width:0.7;stroke-linecap:round;stroke-linejoin:round;stroke-miterlimit:3;stroke:#000000;stroke-opacity:0.301961" d="M5.05 2.45Q4.25 1 2.4 1.85" />
</g>
</svg>
