<?xml version="1.0" encoding="utf-8"?>
<svg version="1.1" id="Layer_1"
xmlns="http://www.w3.org/2000/svg"
xmlns:xlink="http://www.w3.org/1999/xlink"
width="4px" height="17px"
xml:space="preserve">
<g id="PathID_115" transform="matrix(1, 0, 0, 1, 2.3, 8.85)">
<path style="fill:#DBD0BD;fill-opacity:1" d="M-1.8 -8.85L-0.1 -7.65Q1.1 -6.3 1.15 -4.4L1.3 0.05L1.05 4.85Q0.5 7.85 -0.05 7.9Q-0.6 7.95 -1.7 2.85L-1.9 0.9L-1.5 -1.9Q-1.55 -4.15 -2.3 -4.95Q-1.65 -5.15 -1.3 -4.7Q-0.95 -6.9 -1.8 -8.85" />
<path style="fill:none;stroke-width:0.7;stroke-linecap:round;stroke-linejoin:round;stroke-miterlimit:3;stroke:#000000;stroke-opacity:0.498039" d="M-1.8 -8.85L-0.1 -7.65Q1.1 -6.3 1.15 -4.4L1.3 0.05L1.05 4.85Q0.5 7.85 -0.05 7.9Q-0.6 7.95 -1.7 2.85L-1.9 0.9L-1.5 -1.9Q-1.55 -4.15 -2.3 -4.95Q-1.65 -5.15 -1.3 -4.7Q-0.95 -6.9 -1.8 -8.85z" />
</g>
</svg>
