<?xml version="1.0" encoding="utf-8"?>
<svg version="1.1" id="Layer_1"
xmlns="http://www.w3.org/2000/svg"
xmlns:xlink="http://www.w3.org/1999/xlink"
width="18px" height="14px"
xml:space="preserve">
<g id="PathID_712" transform="matrix(1, 0, 0, 1, 7.35, 6.75)">
<path style="fill:#C58D5C;fill-opacity:1" d="M-1 3.8L-1.1 3.8L-1.1 3.75Q-4.85 2.15 -5.55 1.5Q-6.65 0.45 -6.35 -3.15L-6 -3.8L-4.95 -5.05L-4.7 -5.25L-4.55 -5.35Q-3.7 -6.1 -2.7 -6.45L-0.1 -6.75L1.2 -6.55L1.3 -6.55L1.35 -6.5Q2.15 -6.3 2.9 -5.9L4.7 -4.5L5.45 -3.6L6.05 -2.5L6.8 -0.2Q7.3 1.55 6.95 3.3L6.9 3.65L6.85 3.6L3.65 4.05L1.75 4.2L-0.15 4.05L-0.95 3.85L-1 3.8" />
<linearGradient
id="LinearGradID_178" gradientUnits="userSpaceOnUse" gradientTransform="matrix(0.00187683, -0.00315857, 0.00622559, 0.00370789, 46.75, 28.25)" spreadMethod ="pad" x1="-819.2" y1="0" x2="819.2" y2="0" >
<stop  offset="0" style="stop-color:#57B5F0;stop-opacity:1" />
<stop  offset="1" style="stop-color:#63D8F0;stop-opacity:1" />
</linearGradient>
<path style="fill:url(#LinearGradID_178) " d="M-0.95 3.85L-1 3.85L-1 3.8L-0.95 3.85" />
<path style="fill:#A86E49;fill-opacity:1" d="M-5.55 1.5Q-4.85 2.15 -1.1 3.75L-1.1 3.8L-1 3.8L-1 3.85L-0.95 3.85L-0.15 4.05L1.75 4.2L3.65 4.05L6.85 3.6L6.9 3.65L8.3 4.95L10.05 6.3L10.55 6.7L10.45 6.7L5.35 6.85L4.95 6.85L1.05 6.65L-3.8 5.75Q-6.1 5.25 -6.75 3.8Q-7.15 2.9 -7.2 1.75L-7.2 1.6L-7.15 0.25Q-6.95 -1.9 -6.35 -3.15Q-6.65 0.45 -5.55 1.5" />
<path style="fill:none;stroke-width:0.7;stroke-linecap:round;stroke-linejoin:miter;stroke-miterlimit:5;stroke:#000000;stroke-opacity:0.4" d="M1.05 6.65L-3.8 5.75Q-6.1 5.25 -6.75 3.8Q-7.15 2.9 -7.2 1.75L-7.2 1.6L-7.15 0.25Q-6.95 -1.9 -6.35 -3.15L-6 -3.8L-4.95 -5.05L-4.7 -5.25" />
<path style="fill:none;stroke-width:0.7;stroke-linecap:round;stroke-linejoin:miter;stroke-miterlimit:5;stroke:#000000;stroke-opacity:0.4" d="M-4.55 -5.35Q-3.7 -6.1 -2.7 -6.45" />
</g>
</svg>
