<?xml version="1.0" encoding="utf-8"?>
<svg version="1.1" id="Layer_1"
xmlns="http://www.w3.org/2000/svg"
xmlns:xlink="http://www.w3.org/1999/xlink"
width="5px" height="5px"
xml:space="preserve">
<g id="PathID_49" transform="matrix(1, 0, 0, 1, 2.25, 2.2)">
<path style="fill:#1D130E;fill-opacity:1" d="M1.55 -1.55Q2.2 -0.9 2.2 0Q2.2 0.85 1.55 1.5Q0.9 2.15 0 2.15Q-0.9 2.15 -1.55 1.5Q-2.15 0.85 -2.15 0Q-2.15 -0.9 -1.55 -1.55Q-0.9 -2.2 0 -2.2Q0.9 -2.2 1.55 -1.55" />
</g>
<g id="PathID_50" transform="matrix(1, 0, 0, 1, 2.25, 2.2)">
<radialGradient
id="RadialGradID_17" gradientUnits="userSpaceOnUse" gradientTransform="matrix(0.00476074, 0, 0, 0.00476074, 0.45, -0.6)" spreadMethod ="pad" cx="0" cy="0" r="819.2" fx="0" fy="0" >
<stop  offset="0.203922"  style="stop-color:#4D1404;stop-opacity:1" />
<stop  offset="0.521569"  style="stop-color:#6D1F09;stop-opacity:1" />
<stop  offset="0.937255"  style="stop-color:#A84023;stop-opacity:1" />
</radialGradient>
<path style="fill:url(#RadialGradID_17) " d="M-0.35 1.7Q-2.1 1.1 -1.8 -1.1Q-1.25 -2.05 0 -2.1Q0.9 -2.1 1.55 -1.45L1.8 -1.15Q2.2 -0.6 2.2 0.1L2.2 0.4Q1.15 2.25 -0.35 1.7" />
<path style="fill:#F0F0F0;fill-opacity:1" d="M2.2 0.4L1.55 1.6Q0.9 2.25 0 2.25Q-0.9 2.25 -1.55 1.6Q-2.15 0.95 -2.15 0.1L-1.8 -1.1Q-2.1 1.1 -0.35 1.7Q1.15 2.25 2.2 0.4" />
<path style="fill:none;stroke-width:0.7;stroke-linecap:round;stroke-linejoin:round;stroke-miterlimit:3;stroke:#000000;stroke-opacity:0.4" d="M-1.8 -1.1Q-1.25 -2.05 0 -2.1Q0.9 -2.1 1.55 -1.45L1.8 -1.15Q2.2 -0.6 2.2 0.1L2.2 0.4L1.55 1.6Q0.9 2.25 0 2.25Q-0.9 2.25 -1.55 1.6Q-2.15 0.95 -2.15 0.1L-1.8 -1.1z" />
</g>
<g id="PathID_51" transform="matrix(1, 0, 0, 1, 2.25, 2.2)">
<path style="fill:#1D130E;fill-opacity:1" d="M1.4 -0.25L1.4 -0.05L1.2 0.85Q1 1.45 0.55 1.4Q-0.15 1.3 -0.25 0.35Q-0.35 -0.5 -0.05 -1.1Q0.2 -1.65 0.75 -1.55Q1.3 -1.45 1.4 -0.25" />
</g>
<g id="PathID_52" transform="matrix(1, 0, 0, 1, 2.25, 2.2)">
<path style="fill:#1D130E;fill-opacity:1" d="M0.05 -1Q-1.05 -1.2 -1.95 -0.4Q-1.7 -2.2 0.35 -2.1Q2.7 -1.65 2 0.9Q1.85 -0.35 1.05 -0.75L0.05 -1" />
</g>
<g id="PathID_53" transform="matrix(1, 0, 0, 1, 2.25, 2.2)">
<path style="fill:#FFFFFF;fill-opacity:1" d="M-0.95 0.9L-1.35 1.05L-1.75 0.9L-1.9 0.5L-1.75 0.1L-1.35 -0.05L-0.95 0.1L-0.8 0.5L-0.95 0.9" />
</g>
<g id="PathID_54" transform="matrix(1, 0, 0, 1, 2.25, 2.2)">
<path style="fill:#FFFFFF;fill-opacity:1" d="M0 -0.3Q-0.4 -0.3 -0.65 -0.55L-0.9 -1.2L-0.65 -1.85L0 -2.1L0.65 -1.85L0.9 -1.2L0.65 -0.55Q0.4 -0.3 0 -0.3" />
</g>
</svg>
