<?xml version="1.0" encoding="utf-8"?>
<svg version="1.1" id="Layer_1"
xmlns="http://www.w3.org/2000/svg"
xmlns:xlink="http://www.w3.org/1999/xlink"
width="21px" height="20px"
xml:space="preserve">
<g id="PathID_39" transform="matrix(1, 0, 0, 1, 10.65, 9.25)">
<linearGradient
id="LinearGradID_14" gradientUnits="userSpaceOnUse" gradientTransform="matrix(-0.00323486, -0.00106812, 0.0019989, -0.00605774, 8.6, -0.5)" spreadMethod ="pad" x1="-819.2" y1="0" x2="819.2" y2="0" >
<stop  offset="0" style="stop-color:#D98849;stop-opacity:1" />
<stop  offset="1" style="stop-color:#B65F33;stop-opacity:1" />
</linearGradient>
<path style="fill:url(#LinearGradID_14) " d="M9.35 2.95Q9.1 5.05 7.85 6.1L7.65 6.3L6.35 2.95Q5.9 1.7 6.25 -0.7Q6.6 -3.15 8.8 -4.2Q9.95 -2.45 9.35 2.95" />
<path style="fill:#FFF3DD;fill-opacity:1" d="M-4.4 7.85Q-7.05 6.9 -8.6 5.35L-8.7 5.15Q-6.1 3.85 -4 1.85Q-1.95 -0.15 -1.55 -2.55Q-1.15 -5 -3.65 -6.1L-2.75 -7L-2.25 -5.95Q-0.9 -3.9 2.9 -3.55Q5.85 -3.7 7.7 -4.6L8 -4.9L8.8 -4.2Q6.6 -3.15 6.25 -0.7Q5.9 1.7 6.35 2.95L7.65 6.3Q4.25 9.1 -4.4 7.85" />
<path style="fill:#B9887C;fill-opacity:1" d="M1.1 -8.6Q5.25 -10.1 6.45 -8.1Q7.45 -8.5 8.5 -6.15L9.25 -4.35L8.8 -4.2L8 -4.9L7.7 -4.6Q5.85 -3.7 2.9 -3.55Q-0.9 -3.9 -2.25 -5.95L-2.75 -7L1.1 -8.6M8.1 7.45Q7.7 8.15 5.45 8.9Q0.95 10.3 -2.75 9.55Q-6.45 8.75 -9.15 6.65L-10 5.65L-8.7 5.15L-8.6 5.35Q-7.05 6.9 -4.4 7.85Q4.25 9.1 7.65 6.3L8.15 7.4L8.1 7.45" />
<path style="fill:#B46439;fill-opacity:1" d="M9.25 -4.35L9.65 -2.1L9.8 3.55Q9.85 5.45 8.15 7.4L7.65 6.3L7.85 6.1Q9.1 5.05 9.35 2.95Q9.95 -2.45 8.8 -4.2L9.25 -4.35M-8.8 -0.1Q-10 3.1 -8.7 5.15L-10 5.65Q-10.7 4.55 -10.45 3.45Q-10 1.45 -8.8 -0.1" />
<linearGradient
id="LinearGradID_15" gradientUnits="userSpaceOnUse" gradientTransform="matrix(0.00401306, 0.00102234, -0.00169373, 0.00663757, -3.9, -3.25)" spreadMethod ="pad" x1="-819.2" y1="0" x2="819.2" y2="0" >
<stop  offset="0" style="stop-color:#D98849;stop-opacity:1" />
<stop  offset="1" style="stop-color:#B65F33;stop-opacity:1" />
</linearGradient>
<path style="fill:url(#LinearGradID_15) " d="M-8.8 -0.1L-5.95 -3.85L-3.65 -6.1Q-1.15 -5 -1.55 -2.55Q-1.95 -0.15 -4 1.85Q-6.1 3.85 -8.7 5.15Q-10 3.1 -8.8 -0.1" />
<path style="fill:none;stroke-width:0.7;stroke-linecap:round;stroke-linejoin:miter;stroke-miterlimit:5;stroke:#000000;stroke-opacity:0.4" d="M-2.75 -7L-3.65 -6.1" />
<path style="fill:none;stroke-width:0.7;stroke-linecap:round;stroke-linejoin:miter;stroke-miterlimit:5;stroke:#000000;stroke-opacity:0.4" d="M8.15 7.4Q9.85 5.45 9.8 3.55L9.65 -2.1L9.25 -4.35" />
<path style="fill:none;stroke-width:0.7;stroke-linecap:round;stroke-linejoin:miter;stroke-miterlimit:5;stroke:#000000;stroke-opacity:0.4" d="M9.25 -4.35L8.5 -6.15Q7.45 -8.5 6.45 -8.1" />
<path style="fill:none;stroke-width:0.7;stroke-linecap:round;stroke-linejoin:miter;stroke-miterlimit:5;stroke:#000000;stroke-opacity:0.4" d="M1.1 -8.6L-2.75 -7" />
<path style="fill:none;stroke-width:0.7;stroke-linecap:round;stroke-linejoin:miter;stroke-miterlimit:5;stroke:#000000;stroke-opacity:0.4" d="M-10 5.65L-9.15 6.65Q-6.45 8.75 -2.75 9.55Q0.95 10.3 5.45 8.9Q7.7 8.15 8.1 7.45L8.15 7.4" />
<path style="fill:none;stroke-width:0.7;stroke-linecap:round;stroke-linejoin:miter;stroke-miterlimit:5;stroke:#000000;stroke-opacity:0.4" d="M-3.65 -6.1L-5.95 -3.85L-8.8 -0.1" />
<path style="fill:none;stroke-width:0.7;stroke-linecap:round;stroke-linejoin:miter;stroke-miterlimit:5;stroke:#000000;stroke-opacity:0.4" d="M-10 5.65Q-10.7 4.55 -10.45 3.45Q-10 1.45 -8.8 -0.1" />
</g>
</svg>
