<?xml version="1.0" encoding="utf-8"?>
<svg version="1.1" id="Layer_1"
xmlns="http://www.w3.org/2000/svg"
xmlns:xlink="http://www.w3.org/1999/xlink"
width="8px" height="13px"
xml:space="preserve">
<g id="PathID_673" transform="matrix(1, 0, 0, 1, 3.4, 8.4)">
<path style="fill:#47362A;fill-opacity:1" d="M-0.55 -0.65L-1 -2.8Q-0.35 -3.4 0.5 -3.45L1.1 -1.45Q0.2 -1.35 -0.55 -0.65M1.5 0.15L2.4 4.05L1.2 4.05L0 1.2Q0.2 0.55 1.5 0.15M-1.3 -4.95L-1.4 -6.75L-0.3 -5.2L-1.3 -4.95" />
<path style="fill:#5B422F;fill-opacity:1" d="M-1.3 -4.95L-0.3 -5.2L0.5 -3.45Q-0.35 -3.4 -1 -2.8L-1.3 -4.95M-0.55 -0.65Q0.2 -1.35 1.1 -1.45L1.5 0.15Q0.2 0.55 0 1.2L-0.55 -0.65" />
<path style="fill:#99978D;fill-opacity:1" d="M0 1.2L1.2 4.05L-1.1 4Q-2.65 0.55 -3.25 -3.45L-3.25 -6.75Q-3.05 -9.75 -1.4 -6.75L-1.3 -4.95L-1 -2.8L-0.55 -0.65L0 1.2" />
<path style="fill:none;stroke-width:0.7;stroke-linecap:round;stroke-linejoin:miter;stroke-miterlimit:5;stroke:#000000;stroke-opacity:0.419608" d="M1.1 -1.45L0.5 -3.45" />
<path style="fill:none;stroke-width:0.7;stroke-linecap:round;stroke-linejoin:miter;stroke-miterlimit:5;stroke:#000000;stroke-opacity:0.419608" d="M-1 -2.8L-0.55 -0.65" />
<path style="fill:none;stroke-width:0.7;stroke-linecap:round;stroke-linejoin:miter;stroke-miterlimit:5;stroke:#000000;stroke-opacity:0.419608" d="M1.1 -1.45L1.5 0.15L2.4 4.05L1.2 4.05L-1.1 4Q-2.65 0.55 -3.25 -3.45L-3.25 -6.75Q-3.05 -9.75 -1.4 -6.75L-0.3 -5.2L0.5 -3.45" />
<path style="fill:none;stroke-width:0.7;stroke-linecap:round;stroke-linejoin:miter;stroke-miterlimit:5;stroke:#000000;stroke-opacity:0.419608" d="M0 1.2L1.2 4.05" />
<path style="fill:none;stroke-width:0.7;stroke-linecap:round;stroke-linejoin:miter;stroke-miterlimit:5;stroke:#000000;stroke-opacity:0.419608" d="M-1.4 -6.75L-1.3 -4.95" />
<path style="fill:none;stroke-width:0.7;stroke-linecap:round;stroke-linejoin:miter;stroke-miterlimit:5;stroke:#000000;stroke-opacity:0.419608" d="M-1.3 -4.95L-1 -2.8" />
<path style="fill:none;stroke-width:0.7;stroke-linecap:round;stroke-linejoin:miter;stroke-miterlimit:5;stroke:#000000;stroke-opacity:0.419608" d="M-0.55 -0.65L0 1.2" />
</g>
<g id="PathID_674" transform="matrix(1, 0, 0, 1, 3.4, 8.4)">
<path style="fill:#99978D;fill-opacity:1" d="M2.7 4.2Q1.35 4.7 0.55 2.75L-0.2 0.55Q0.75 0.15 0.75 1.15Q2.2 -1.1 2.3 1.15L2.3 2.5L3.25 1.5Q3.95 1.05 3.35 3.3L2.7 4.2" />
<path style="fill:none;stroke-width:0.7;stroke-linecap:round;stroke-linejoin:miter;stroke-miterlimit:5;stroke:#000000;stroke-opacity:0.419608" d="M2.7 4.2Q1.35 4.7 0.55 2.75L-0.2 0.55Q0.75 0.15 0.75 1.15Q2.2 -1.1 2.3 1.15L2.3 2.5L3.25 1.5Q3.95 1.05 3.35 3.3L2.7 4.2z" />
</g>
</svg>
