<?xml version="1.0" encoding="utf-8"?>
<svg version="1.1" id="Layer_1"
xmlns="http://www.w3.org/2000/svg"
xmlns:xlink="http://www.w3.org/1999/xlink"
width="9px" height="4px"
xml:space="preserve">
<g id="PathID_220" transform="matrix(1, 0, 0, 1, 4.55, 2)">
<path style="fill:#DA8C6C;fill-opacity:1" d="M2.8 -0.4L1.05 0.1L0.7 0.25L-0.2 0.6Q-0.65 0.9 -0.4 1.3L1.5 1.4L1.05 1.8L0.3 1.85Q-0.55 1.9 -1.65 1.35Q-2.85 0.75 -3.55 0.5L-4.25 0Q-4.75 -0.95 -4.05 -1.4Q-3.15 -2 -1.75 -1.85L0.9 -1.25L3.55 -0.5Q4 -0.5 4.25 0.15L2.8 -0.4M4.25 0.15Q4.5 0.75 3.85 1L2.9 1.35Q3.75 1 3.4 0.1Q3.75 -0.05 3.55 -0.5" />
<path style="fill:#ECA48E;fill-opacity:1" d="M2.8 -0.4L3.4 0.1Q3.75 1 2.9 1.35Q2.6 1.65 1.55 1.8L1.05 1.8L1.5 1.4L-0.4 1.3Q-0.65 0.9 -0.2 0.6L0.7 0.25L1.05 0.1L2.8 -0.4L3.55 -0.5Q3.75 -0.05 3.4 0.1L2.8 -0.4M0.7 0.25L1.4 0.65Q1.8 1 1.5 1.4Q1.8 1 1.4 0.65L0.7 0.25" />
<path style="fill:none;stroke-width:0.7;stroke-linecap:round;stroke-linejoin:round;stroke-miterlimit:3;stroke:#000000;stroke-opacity:0.4" d="M3.55 -0.5L0.9 -1.25L-1.75 -1.85Q-3.15 -2 -4.05 -1.4Q-4.75 -0.95 -4.25 0L-3.55 0.5Q-2.85 0.75 -1.65 1.35Q-0.55 1.9 0.3 1.85L1.05 1.8L1.5 1.4" />
<path style="fill:none;stroke-width:0.7;stroke-linecap:round;stroke-linejoin:round;stroke-miterlimit:3;stroke:#000000;stroke-opacity:0.4" d="M3.55 -0.5Q4 -0.5 4.25 0.15Q4.5 0.75 3.85 1L2.9 1.35Q2.6 1.65 1.55 1.8L1.05 1.8" />
<path style="fill:none;stroke-width:0.7;stroke-linecap:round;stroke-linejoin:round;stroke-miterlimit:3;stroke:#000000;stroke-opacity:0.4" d="M3.4 0.1Q3.75 1 2.9 1.35" />
<path style="fill:none;stroke-width:0.7;stroke-linecap:round;stroke-linejoin:round;stroke-miterlimit:3;stroke:#000000;stroke-opacity:0.4" d="M1.5 1.4Q1.8 1 1.4 0.65L0.7 0.25" />
<path style="fill:none;stroke-width:0.7;stroke-linecap:round;stroke-linejoin:round;stroke-miterlimit:3;stroke:#000000;stroke-opacity:0.4" d="M3.4 0.1L2.8 -0.4" />
</g>
</svg>
