<?xml version="1.0" encoding="utf-8"?>
<svg version="1.1" id="Layer_1"
xmlns="http://www.w3.org/2000/svg"
xmlns:xlink="http://www.w3.org/1999/xlink"
width="20px" height="21px"
xml:space="preserve">
<g id="PathID_453" transform="matrix(1, 0, 0, 1, 9.55, 9.85)">
<path style="fill:#808080;fill-opacity:1" d="M-3.85 6.8Q6.3 9.65 7.9 -2.3Q8.1 -5.4 6.7 -9.15Q7.5 -8.55 8.6 -6.35Q9.65 -4.2 9.25 -1.55L8.65 4.05Q8.5 7.05 5.45 8.75Q2.4 10.45 -1.15 10.15Q-4.75 9.8 -7.2 7.25Q-9.65 4.65 -9.4 1.9Q-9.25 0.05 -7.85 -2.15Q-10.75 3.8 -3.85 6.8" />
<path style="fill:#FFFFFF;fill-opacity:1" d="M-0.25 -8.8L0.2 -9.15Q4.85 -10.5 6.7 -9.15Q8.1 -5.4 7.9 -2.3Q6.3 9.65 -3.85 6.8Q-10.75 3.8 -7.85 -2.15Q-7.45 0.5 -4.7 1.85Q-1.95 3.15 0.85 1.85Q3.6 0.55 4.35 -1.95Q5.1 -4.5 -0.25 -8.8" />
<linearGradient
id="LinearGradID_148" gradientUnits="userSpaceOnUse" gradientTransform="matrix(0.0045929, 0.00178528, -0.00250244, 0.00639343, 13.45, 8.8)" spreadMethod ="pad" x1="-819.2" y1="0" x2="819.2" y2="0" >
<stop  offset="0" style="stop-color:#AFDC1B;stop-opacity:1" />
<stop  offset="1" style="stop-color:#67A916;stop-opacity:1" />
</linearGradient>
<path style="fill:url(#LinearGradID_148) " d="M4.35 -1.95Q3.6 0.55 0.85 1.85Q-1.95 3.15 -4.7 1.85Q-7.45 0.5 -7.85 -2.15L-5.3 -4.5L-2.1 -7.3L-0.25 -8.8Q5.1 -4.5 4.35 -1.95" />
<path style="fill:none;stroke-width:0.7;stroke-linecap:round;stroke-linejoin:miter;stroke-miterlimit:5;stroke:#000000;stroke-opacity:0.4" d="M6.7 -9.15Q7.5 -8.55 8.6 -6.35Q9.65 -4.2 9.25 -1.55L8.65 4.05Q8.5 7.05 5.45 8.75Q2.4 10.45 -1.15 10.15Q-4.75 9.8 -7.2 7.25Q-9.65 4.65 -9.4 1.9Q-9.25 0.05 -7.85 -2.15L-5.3 -4.5L-2.1 -7.3L-0.25 -8.8L0.2 -9.15" />
</g>
</svg>
