<?xml version="1.0" encoding="utf-8"?>
<svg version="1.1" id="Layer_1"
xmlns="http://www.w3.org/2000/svg"
xmlns:xlink="http://www.w3.org/1999/xlink"
width="8px" height="9px"
xml:space="preserve">
<g id="PathID_21" transform="matrix(1, 0, 0, 1, 3.85, 4.25)">
<path style="fill:#A14B2C;fill-opacity:1" d="M2.3 1.95L1.95 1.5Q0.7 1.6 0.9 3.3Q0.05 2.2 -1.45 1.25Q-3.1 0.2 -3.65 -1.05L-3.7 -1.1Q-4.1 -2.7 -3.2 -3.55Q-2.4 -4.4 -1.2 -4.25Q-0.05 -4.15 0.35 -3.75L1.4 -2.5L2.5 -0.85L3.45 1Q2.4 0.5 2.3 1.95" />
<path style="fill:#B9887C;fill-opacity:1" d="M0.9 3.3Q0.7 1.6 1.95 1.5L2.3 1.95Q3.1 3.2 2.2 4.2Q2.4 0.5 3.45 1L3.6 1.35Q4.15 2.7 3.05 3.75Q2.6 4.15 2.2 4.2Q3.1 3.2 2.3 1.95Q2 4.35 1.55 3.95L0.9 3.3" />
<path style="fill:none;stroke-width:0.7;stroke-linecap:round;stroke-linejoin:miter;stroke-miterlimit:5;stroke:#000000;stroke-opacity:0.4" d="M3.45 1L2.5 -0.85L1.4 -2.5L0.35 -3.75" />
<path style="fill:none;stroke-width:0.7;stroke-linecap:round;stroke-linejoin:miter;stroke-miterlimit:5;stroke:#000000;stroke-opacity:0.4" d="M-3.7 -1.1L-3.65 -1.05Q-3.1 0.2 -1.45 1.25Q0.05 2.2 0.9 3.3" />
<path style="fill:none;stroke-width:0.7;stroke-linecap:round;stroke-linejoin:miter;stroke-miterlimit:5;stroke:#000000;stroke-opacity:0.4" d="M1.95 1.5L2.3 1.95" />
<path style="fill:none;stroke-width:0.7;stroke-linecap:round;stroke-linejoin:miter;stroke-miterlimit:5;stroke:#000000;stroke-opacity:0.4" d="M3.45 1L3.6 1.35Q4.15 2.7 3.05 3.75Q2.6 4.15 2.2 4.2Q2 4.35 1.55 3.95L0.9 3.3" />
<path style="fill:none;stroke-width:0.7;stroke-linecap:round;stroke-linejoin:miter;stroke-miterlimit:5;stroke:#000000;stroke-opacity:0.4" d="M2.2 4.2Q3.1 3.2 2.3 1.95" />
</g>
</svg>
