<?xml version="1.0" encoding="utf-8"?>
<svg version="1.1" id="Layer_1"
xmlns="http://www.w3.org/2000/svg"
xmlns:xlink="http://www.w3.org/1999/xlink"
width="11px" height="8px"
xml:space="preserve">
<g id="PathID_221" transform="matrix(1, 0, 0, 1, 3.85, 4.1)">
<path style="fill:#82BDDA;fill-opacity:1" d="M-3.7 -1.05Q-4.1 -2.65 -3.2 -3.5Q-2.4 -4.35 -0.8 -3.95Q0.75 -3.55 1.35 -2.55L2.4 -0.7L3.4 0.2L4 0.5L4.85 0.8Q7.1 0.45 5.8 1.8L5.75 1.35L5.05 2.5Q4.25 1.05 2.4 1.9L3.55 3.15L1 3L-1.45 1.3L-3.1 -0.1L-3.7 -1.05M5.75 1.35Q5.65 0.95 4.85 0.8L4 0.5M4.85 0.8Q5.65 0.95 5.75 1.35L5.8 1.8M2.4 1.9Q4.25 1.05 5.05 2.5" />
<path style="fill:none;stroke-width:0.7;stroke-linecap:round;stroke-linejoin:round;stroke-miterlimit:3;stroke:#000000;stroke-opacity:0.4" d="M2.4 -0.7L3.4 0.2L4 0.5Q7.1 0.45 5.8 1.8L5.05 2.5L3.55 3.15L1 3L-1.45 1.3L-3.1 -0.1L-3.7 -1.05" />
<path style="fill:none;stroke-width:0.7;stroke-linecap:round;stroke-linejoin:round;stroke-miterlimit:3;stroke:#000000;stroke-opacity:0.4" d="M4 0.5L4.85 0.8Q5.65 0.95 5.75 1.35L5.8 1.8" />
<path style="fill:none;stroke-width:0.7;stroke-linecap:round;stroke-linejoin:round;stroke-miterlimit:3;stroke:#000000;stroke-opacity:0.4" d="M5.05 2.5Q4.25 1.05 2.4 1.9" />
</g>
</svg>
