<?xml version="1.0" encoding="utf-8"?>
<svg version="1.1" id="Layer_1"
xmlns="http://www.w3.org/2000/svg"
xmlns:xlink="http://www.w3.org/1999/xlink"
width="11px" height="8px"
xml:space="preserve">
<g id="PathID_669" transform="matrix(1, 0, 0, 1, 3.8, 4.1)">
<path style="fill:#99978D;fill-opacity:1" d="M1 2.05Q0.7 1.5 -0.95 0.75Q-3.35 -0.65 -3.45 -3.15L-3.15 -3.5Q-2.35 -4.35 -0.75 -3.95Q0.8 -3.55 1.4 -2.55L2.45 -0.7L3.45 0.2L4.05 0.5L4.9 0.8Q7.15 0.45 5.85 1.8L5.8 1.35L5.1 2.5Q4.3 1.05 2.45 1.9L3.6 3.15L2.55 3.35Q1.8 3.2 1 2.05M5.8 1.35Q5.7 0.95 4.9 0.8L4.05 0.5M4.9 0.8Q5.7 0.95 5.8 1.35L5.85 1.8M2.45 1.9Q4.3 1.05 5.1 2.5" />
<path style="fill:#2E2620;fill-opacity:1" d="M2.55 3.35L1.05 3L-1.4 1.3L-3.05 -0.1L-3.65 -1.05Q-3.95 -2.35 -3.45 -3.15Q-3.35 -0.65 -0.95 0.75Q0.7 1.5 1 2.05Q1.8 3.2 2.55 3.35" />
<path style="fill:none;stroke-width:0.7;stroke-linecap:round;stroke-linejoin:round;stroke-miterlimit:3;stroke:#000000;stroke-opacity:0.4" d="M2.45 -0.7L3.45 0.2L4.05 0.5Q7.15 0.45 5.85 1.8L5.1 2.5L3.6 3.15L2.55 3.35L1.05 3L-1.4 1.3L-3.05 -0.1L-3.65 -1.05" />
<path style="fill:none;stroke-width:0.7;stroke-linecap:round;stroke-linejoin:round;stroke-miterlimit:3;stroke:#000000;stroke-opacity:0.4" d="M4.05 0.5L4.9 0.8Q5.7 0.95 5.8 1.35L5.85 1.8" />
<path style="fill:none;stroke-width:0.7;stroke-linecap:round;stroke-linejoin:round;stroke-miterlimit:3;stroke:#000000;stroke-opacity:0.4" d="M5.1 2.5Q4.3 1.05 2.45 1.9" />
</g>
</svg>
