<?xml version="1.0" encoding="utf-8"?>
<svg version="1.1" id="Layer_1"
xmlns="http://www.w3.org/2000/svg"
xmlns:xlink="http://www.w3.org/1999/xlink"
width="6px" height="5px"
xml:space="preserve">
<g id="PathID_686" transform="matrix(1, 0, 0, 1, 2.95, 2.4)">
<path style="fill:#000000;fill-opacity:1" d="M2.2 -0.3Q2.3 0.75 2.8 1.25L0.95 1.95L-0.1 2.15Q-1 2.15 -1.7 1.5L-2.4 0.7L-2.95 -1.1L-1.7 -1.7Q-1 -2.4 -0.1 -2.4Q0.9 -2.4 1.5 -1.7Q2.1 -1.15 2.2 -0.3" />
</g>
<g id="PathID_687" transform="matrix(1, 0, 0, 1, 2.95, 2.4)">
<path style="fill:#409A3F;fill-opacity:1" d="M2.1 -0.3L0.1 -0.1Q-0.85 0.4 -0.75 1.25L-0.3 2.15L-1.45 1.55Q-2.05 0.9 -2.05 0Q-2.05 -0.8 -1.45 -1.45Q-0.8 -2.05 0.1 -2.05Q0.9 -2.05 1.55 -1.45L2.15 -0.3L2.1 -0.3" />
<path style="fill:#93D35C;fill-opacity:1" d="M2.15 -0.3L2.15 0Q2.15 0.9 1.55 1.55Q0.9 2.15 0.1 2.15L-0.3 2.15L-0.75 1.25Q-0.85 0.4 0.1 -0.1L2.1 -0.3L2.15 -0.3" />
</g>
<g id="PathID_688" transform="matrix(1, 0, 0, 1, 2.95, 2.4)">
<path style="fill:#000000;fill-opacity:1" d="M-0.6 1.3L-0.9 0.05L-0.6 -1.2Q-0.25 -1.7 0.25 -1.7Q0.7 -1.7 1 -1.2Q1.35 -0.7 1.35 0.05Q1.35 0.75 1 1.3L0.25 1.8Q-0.25 1.8 -0.6 1.3" />
</g>
<g id="PathID_689" transform="matrix(1, 0, 0, 1, 2.95, 2.4)">
<path style="fill:#FFFFFF;fill-opacity:1" d="M0.15 -0.45Q-0.2 -0.2 -0.7 -0.2Q-1.15 -0.2 -1.5 -0.45Q-1.85 -0.6 -1.85 -0.9L-1.5 -1.45L-0.7 -1.65L0.15 -1.45L0.5 -0.9Q0.5 -0.6 0.15 -0.45" />
</g>
<g id="PathID_690" transform="matrix(1, 0, 0, 1, 2.95, 2.4)">
<path style="fill:#FFFFFF;fill-opacity:1" d="M0.65 1.3L0.45 1.6L0 1.8L-0.6 1.9L-0.85 1.75L-0.7 1.45Q-0.55 1.25 -0.2 1.15L0.35 1.15Q0.6 1.15 0.65 1.3" />
</g>
</svg>
