<?xml version="1.0" encoding="utf-8"?>
<svg version="1.1" id="Layer_1"
xmlns="http://www.w3.org/2000/svg"
xmlns:xlink="http://www.w3.org/1999/xlink"
width="4px" height="16px"
xml:space="preserve">
<g id="PathID_706" transform="matrix(1, 0, 0, 1, 1.8, 7.8)">
<path style="fill:#A86E49;fill-opacity:1" d="M1.15 4.6L1.15 4.85L0.45 7.65L0.05 7.9Q-0.5 7.9 -0.95 5.9L-1.6 2.85L-1.8 0.9L-1.45 -2.15L-0.9 -5.5L-0.25 -7.6Q-0.1 -7.8 0.05 -7.8L0.35 -7.6L1 -5.5Q1.4 -3.2 1.4 0.05L1.15 4.6" />
<path style="fill:none;stroke-width:0.7;stroke-linecap:round;stroke-linejoin:round;stroke-miterlimit:3;stroke:#000000;stroke-opacity:0.301961" d="M1.15 4.6L1.15 4.85L0.45 7.65L0.05 7.9Q-0.5 7.9 -0.95 5.9L-1.6 2.85L-1.8 0.9L-1.45 -2.15L-0.9 -5.5L-0.25 -7.6Q-0.1 -7.8 0.05 -7.8L0.35 -7.6L1 -5.5Q1.4 -3.2 1.4 0.05" />
</g>
</svg>
