<?xml version="1.0" encoding="utf-8"?>
<svg version="1.1" id="Layer_1"
xmlns="http://www.w3.org/2000/svg"
xmlns:xlink="http://www.w3.org/1999/xlink"
width="8px" height="9px"
xml:space="preserve">
<g id="PathID_745" transform="matrix(1, 0, 0, 1, 3.8, 4.2)">
<path style="fill:#DEA297;fill-opacity:1" d="M0.4 -3.7L2.55 -0.8L3.65 1.4L3.8 2.6Q3.7 3.25 3.1 3.8L2.25 4.25Q3.3 3.1 2.15 1.6Q1.65 4.35 1.1 3.6Q0.25 2.35 -1.4 1.3Q-3.05 0.25 -3.6 -1L-3.65 -1.05Q-4.05 -2.65 -3.15 -3.5Q-2.35 -4.35 -1.15 -4.2Q0 -4.1 0.4 -3.7M2.15 1.6Q3.3 3.1 2.25 4.25" />
<path style="fill:none;stroke-width:0.7;stroke-linecap:round;stroke-linejoin:miter;stroke-miterlimit:5;stroke:#000000;stroke-opacity:0.4" d="M0.4 -3.7L2.55 -0.8L3.65 1.4L3.8 2.6Q3.7 3.25 3.1 3.8L2.25 4.25Q1.65 4.35 1.1 3.6Q0.25 2.35 -1.4 1.3Q-3.05 0.25 -3.6 -1L-3.65 -1.05" />
<path style="fill:none;stroke-width:0.7;stroke-linecap:round;stroke-linejoin:miter;stroke-miterlimit:5;stroke:#000000;stroke-opacity:0.4" d="M2.25 4.25Q3.3 3.1 2.15 1.6" />
</g>
</svg>
