<?xml version="1.0" encoding="utf-8"?>
<svg version="1.1" id="Layer_1"
xmlns="http://www.w3.org/2000/svg"
xmlns:xlink="http://www.w3.org/1999/xlink"
width="20px" height="21px"
xml:space="preserve">
<g id="PathID_333" transform="matrix(1, 0, 0, 1, 9.55, 9.8)">
<path style="fill:#ADA093;fill-opacity:1" d="M7.7 -1L7.9 -2.3Q8.1 -5.4 6.7 -9.15Q7.5 -8.55 8.6 -6.35Q9.65 -4.2 9.25 -1.55L9 0.4L7.7 -1M-8.35 -2.8Q-7.2 -3.65 -6.45 -4.4L-5.85 -4.1L-7.45 -2.45Q-10.95 3.7 -3.85 6.8L-1 7.35L-1.95 10.05Q-5.05 9.5 -7.2 7.25Q-9.65 4.65 -9.4 1.9Q-9.3 0.4 -8.35 -1.25L-8.05 -1.8L-8.15 -2.3L-8.35 -2.8M-7.45 -2.45L-8.05 -1.8L-7.45 -2.45" />
<path style="fill:#111111;fill-opacity:1" d="M-6.45 -4.4Q-7.2 -4.9 -7.55 -5.75L-7.6 -6.1Q-8.45 -5.5 -8.55 -4.45Q-8.65 -3.6 -8.35 -2.8L-8.85 -2.4Q-9.6 -4.65 -8.5 -5.95L-7.85 -6.6L-6.8 -7.15L-4.45 -7.95L-4.4 -7.95L-4.55 -7.25L-5.8 -6.9L-7.1 -6.4L-6.55 -5.4L-6 -4.85L-6.45 -4.4M-0.4 -8.65L0.2 -9.15L0.5 -9.2L1.35 -7.45Q2.5 -5.65 4.6 -4.65Q6.7 -3.65 7.7 -1L7.55 -0.3L6.95 -1.35Q6.4 -2.75 4.85 -3.95Q1.9 -5.4 1.3 -6.55Q0.7 -7.75 -0.4 -8.65M-1 7.35Q-0.35 4.7 0.05 1.5Q0.4 -1.75 -0.75 -1.9Q-1.95 -2.15 -2.1 -2.7L-2.05 -4.05Q-1.8 -4.9 -2.4 -5.2L-4.35 -4.7L-5.65 -4.25L-4.95 -4.95L-4.8 -5.05L-3.25 -5.6L-1.75 -5.65Q-1.15 -5.4 -1.15 -5L-1.45 -3.7Q-1.7 -2.85 -1.05 -2.55Q0.35 -2.45 0.7 -1.25L0.8 -0.05L0.6 3.35L-0.15 7.35L-1 7.35" />
<path style="fill:#FFFCED;fill-opacity:1" d="M4.6 -4.65Q2.5 -5.65 1.35 -7.45L0.5 -9.2Q4.9 -10.45 6.7 -9.15Q8.1 -5.4 7.9 -2.3L7.7 -1Q6.7 -3.65 4.6 -4.65M-4.35 -4.7L-2.4 -5.2Q-1.8 -4.9 -2.05 -4.05L-2.1 -2.7Q-1.95 -2.15 -0.75 -1.9Q0.4 -1.75 0.05 1.5Q-0.35 4.7 -1 7.35L-3.85 6.8Q-10.95 3.7 -7.45 -2.45L-5.85 -4.1L-5.65 -4.25L-4.35 -4.7M-8.35 -2.8Q-8.65 -3.6 -8.55 -4.45Q-8.45 -5.5 -7.6 -6.1L-7.55 -5.75Q-7.2 -4.9 -6.45 -4.4Q-7.2 -3.65 -8.35 -2.8" />
<linearGradient
id="LinearGradID_90" gradientUnits="userSpaceOnUse" gradientTransform="matrix(0.00335693, 0.00282288, -0.00627136, 0.00744629, 1.4, 0.35)" spreadMethod ="pad" x1="-819.2" y1="0" x2="819.2" y2="0" >
<stop  offset="0" style="stop-color:#FB5C09;stop-opacity:1" />
<stop  offset="1" style="stop-color:#FE9741;stop-opacity:1" />
</linearGradient>
<path style="fill:url(#LinearGradID_90) " d="M1.3 -6.55Q1.9 -5.4 4.85 -3.95Q6.4 -2.75 6.95 -1.35L7.55 -0.3Q5.85 7.3 -0.15 7.35L0.6 3.35L0.8 -0.05L0.7 -1.25Q0.35 -2.45 -1.05 -2.55Q-1.7 -2.85 -1.45 -3.7L-1.15 -5Q-1.15 -5.4 -1.75 -5.65L-3.25 -5.6L-4.8 -5.05L-1.9 -7.5L-0.85 -8.35L-0.4 -8.65Q0.7 -7.75 1.3 -6.55" />
<path style="fill:#0B0B0B;fill-opacity:1" d="M7.55 -0.3L7.7 -1L9 0.4L8.9 1.15Q8.2 0.7 7.55 -0.3M-1 7.35L-0.15 7.35L-1.1 10.15L-1.15 10.15L-1.95 10.05L-1 7.35M-8.15 -2.3L-8.05 -1.8L-8.35 -1.25L-8.85 -2.4L-8.35 -2.8L-8.15 -2.3M-1.9 -7.5L-4.55 -7.25L-4.4 -7.95L-0.85 -8.35L-1.9 -7.5M-5.65 -4.25L-5.85 -4.1L-6.45 -4.4L-6 -4.85L-6 -4.8L-4.95 -4.95L-5.65 -4.25" />
<linearGradient
id="LinearGradID_91" gradientUnits="userSpaceOnUse" gradientTransform="matrix(0.0022583, 0.000976563, -0.00300598, 0.00689697, -1.3, 3.45)" spreadMethod ="pad" x1="-819.2" y1="0" x2="819.2" y2="0" >
<stop  offset="0" style="stop-color:#B13408;stop-opacity:1" />
<stop  offset="1" style="stop-color:#CD5C22;stop-opacity:1" />
</linearGradient>
<path style="fill:url(#LinearGradID_91) " d="M-0.15 7.35Q5.85 7.3 7.55 -0.3Q8.2 0.7 8.9 1.15L8.65 4.05Q8.5 7.05 5.45 8.75Q2.4 10.45 -1.1 10.15L-0.15 7.35" />
<path style="fill:#B13408;fill-opacity:1" d="M-4.8 -5.05L-4.95 -4.95L-6 -4.8L-6 -4.85L-5.1 -6.1L-4.55 -7.25L-1.9 -7.5L-4.8 -5.05" />
<linearGradient
id="LinearGradID_92" gradientUnits="userSpaceOnUse" gradientTransform="matrix(-0.000793457, -0.0012207, 0.00126648, -0.000823975, -6.45, -5.9)" spreadMethod ="pad" x1="-819.2" y1="0" x2="819.2" y2="0" >
<stop  offset="0" style="stop-color:#FB5C09;stop-opacity:1" />
<stop  offset="1" style="stop-color:#FE9741;stop-opacity:1" />
</linearGradient>
<path style="fill:url(#LinearGradID_92) " d="M-6 -4.85L-6.55 -5.4L-7.1 -6.4L-5.8 -6.9L-4.55 -7.25L-5.1 -6.1L-6 -4.85" />
<path style="fill:none;stroke-width:0.7;stroke-linecap:round;stroke-linejoin:miter;stroke-miterlimit:5;stroke:#000000;stroke-opacity:0.4" d="M9 0.4L9.25 -1.55Q9.65 -4.2 8.6 -6.35Q7.5 -8.55 6.7 -9.15" />
<path style="fill:none;stroke-width:0.7;stroke-linecap:round;stroke-linejoin:miter;stroke-miterlimit:5;stroke:#000000;stroke-opacity:0.4" d="M9 0.4L8.9 1.15L8.65 4.05Q8.5 7.05 5.45 8.75Q2.4 10.45 -1.1 10.15L-1.15 10.15L-1.95 10.05Q-5.05 9.5 -7.2 7.25Q-9.65 4.65 -9.4 1.9Q-9.3 0.4 -8.35 -1.25L-8.85 -2.4Q-9.6 -4.65 -8.5 -5.95L-7.85 -6.6L-6.8 -7.15L-4.45 -7.95L-4.4 -7.95L-0.85 -8.35L-0.4 -8.65L0.2 -9.15" />
<path style="fill:none;stroke-width:0.7;stroke-linecap:round;stroke-linejoin:miter;stroke-miterlimit:5;stroke:#000000;stroke-opacity:0.4" d="M-1.9 -7.5L-0.85 -8.35" />
<path style="fill:none;stroke-width:0.7;stroke-linecap:round;stroke-linejoin:round;stroke-miterlimit:3;stroke:#0B0B0B;stroke-opacity:1" d="M-6 -4.85L-6.55 -5.4L-7.1 -6.4L-5.8 -6.9L-4.55 -7.25" />
<path style="fill:none;stroke-width:0.7;stroke-linecap:round;stroke-linejoin:round;stroke-miterlimit:3;stroke:#0B0B0B;stroke-opacity:1" d="M-6 -4.85L-6 -4.8L-4.95 -4.95" />
<path style="fill:none;stroke-width:0.7;stroke-linecap:round;stroke-linejoin:miter;stroke-miterlimit:5;stroke:#000000;stroke-opacity:0.4" d="M-4.95 -4.95L-4.8 -5.05L-1.9 -7.5" />
<path style="fill:none;stroke-width:0.7;stroke-linecap:round;stroke-linejoin:round;stroke-miterlimit:3;stroke:#0B0B0B;stroke-opacity:1" d="M-6.45 -4.4L-5.85 -4.1" />
<path style="fill:none;stroke-width:0.7;stroke-linecap:round;stroke-linejoin:miter;stroke-miterlimit:5;stroke:#000000;stroke-opacity:0.4" d="M-5.85 -4.1L-5.65 -4.25L-4.95 -4.95" />
<path style="fill:none;stroke-width:0.7;stroke-linecap:round;stroke-linejoin:round;stroke-miterlimit:3;stroke:#0B0B0B;stroke-opacity:1" d="M-8.35 -2.8Q-8.65 -3.6 -8.55 -4.45Q-8.45 -5.5 -7.6 -6.1L-7.55 -5.75Q-7.2 -4.9 -6.45 -4.4" />
<path style="fill:none;stroke-width:0.7;stroke-linecap:round;stroke-linejoin:miter;stroke-miterlimit:5;stroke:#000000;stroke-opacity:0.4" d="M-8.35 -1.25L-8.05 -1.8" />
<path style="fill:none;stroke-width:0.7;stroke-linecap:round;stroke-linejoin:miter;stroke-miterlimit:5;stroke:#000000;stroke-opacity:0.4" d="M-5.85 -4.1L-7.45 -2.45" />
<path style="fill:none;stroke-width:0.7;stroke-linecap:round;stroke-linejoin:miter;stroke-miterlimit:5;stroke:#000000;stroke-opacity:0.4" d="M-8.05 -1.8L-7.45 -2.45" />
</g>
<g id="PathID_334" transform="matrix(1, 0, 0, 1, 9.55, 9.8)">
<path style="fill:none;stroke-width:0.7;stroke-linecap:round;stroke-linejoin:miter;stroke-miterlimit:5;stroke:#0B0B0B;stroke-opacity:1" d="M-3.9 -6.85L-4.3 -7.4" />
<path style="fill:none;stroke-width:0.7;stroke-linecap:round;stroke-linejoin:miter;stroke-miterlimit:5;stroke:#0B0B0B;stroke-opacity:1" d="M-3.15 -7.05L-3.4 -7.65" />
<path style="fill:none;stroke-width:0.7;stroke-linecap:round;stroke-linejoin:miter;stroke-miterlimit:5;stroke:#0B0B0B;stroke-opacity:1" d="M-4.65 -6.5L-5.05 -7.1" />
<path style="fill:none;stroke-width:0.7;stroke-linecap:round;stroke-linejoin:miter;stroke-miterlimit:5;stroke:#111111;stroke-opacity:1" d="M-5.5 -6.3L-5.9 -6.85" />
<path style="fill:none;stroke-width:0.7;stroke-linecap:round;stroke-linejoin:miter;stroke-miterlimit:5;stroke:#111111;stroke-opacity:1" d="M-8.1 -3.35L-8.7 -3.5" />
<path style="fill:none;stroke-width:0.7;stroke-linecap:round;stroke-linejoin:miter;stroke-miterlimit:5;stroke:#0B0B0B;stroke-opacity:1" d="M-7.8 -2.6L-8.4 -2.6" />
<path style="fill:none;stroke-width:0.7;stroke-linecap:round;stroke-linejoin:miter;stroke-miterlimit:5;stroke:#111111;stroke-opacity:1" d="M-7.85 -4.7L-8.45 -5.25" />
<path style="fill:none;stroke-width:0.7;stroke-linecap:round;stroke-linejoin:miter;stroke-miterlimit:5;stroke:#111111;stroke-opacity:1" d="M-7.4 -5.4L-7.9 -6" />
<path style="fill:none;stroke-width:0.7;stroke-linecap:round;stroke-linejoin:miter;stroke-miterlimit:5;stroke:#111111;stroke-opacity:1" d="M-8 -4.05L-8.75 -4.4" />
<path style="fill:none;stroke-width:0.7;stroke-linecap:round;stroke-linejoin:miter;stroke-miterlimit:5;stroke:#111111;stroke-opacity:1" d="M-6.2 -6.1L-6.7 -6.6" />
<path style="fill:none;stroke-width:0.7;stroke-linecap:round;stroke-linejoin:miter;stroke-miterlimit:5;stroke:#111111;stroke-opacity:1" d="M-6.85 -5.8L-7.3 -6.35" />
</g>
</svg>
