<?xml version="1.0" encoding="utf-8"?>
<svg version="1.1" id="Layer_1"
xmlns="http://www.w3.org/2000/svg"
xmlns:xlink="http://www.w3.org/1999/xlink"
width="13px" height="8px"
xml:space="preserve">
<g id="PathID_704" transform="matrix(1, 0, 0, 1, 8.05, 3.8)">
<linearGradient
id="LinearGradID_175" gradientUnits="userSpaceOnUse" gradientTransform="matrix(0.00376892, 0.00202942, -0.00219727, 0.0040741, 1.4, 1.85)" spreadMethod ="pad" x1="-819.2" y1="0" x2="819.2" y2="0" >
<stop  offset="0" style="stop-color:#C58D5C;stop-opacity:1" />
<stop  offset="1" style="stop-color:#FBEFD9;stop-opacity:1" />
</linearGradient>
<path style="fill:url(#LinearGradID_175) " d="M2.85 -1.3L3.05 -1.55Q3.4 -2 4.1 -1.15L4.2 0Q3.25 -0.3 2.7 1.1Q3.25 -0.3 4.2 0L4.2 0.8Q3.9 2.8 3.35 3.35L2.7 3.75Q2.05 3.9 1.3 3.3Q0.1 2.4 -1.55 1.5L-1.6 1.45Q-3.25 0.45 -3.55 -0.15L-3.75 -0.75L-3.8 -0.85Q-4.15 -2.25 -3.5 -3.1L-4.05 -3.2Q-2.15 -4 -0.9 -3.7Q0.65 -3.35 1.5 -2.3L2.3 -1.3L2.5 -1.15Q2.6 -1.1 2.85 -1.3" />
<path style="fill:#78583A;fill-opacity:1" d="M4.15 -1.1L4.1 -1.15L4.05 -1.25L4.15 -1.1" />
<path style="fill:#FBEFD9;fill-opacity:1" d="M3.05 -1.55L2.85 -1.3Q3.05 -2.4 3.45 -2.1L4 -1.6L4 -1.3L4.05 -1.25L4.1 -1.15Q3.4 -2 3.05 -1.55" />
<path style="fill:#C58D5C;fill-opacity:1" d="M-3.3 1.75L-2.65 1.1Q-3.85 1.55 -5.05 0.2L-3.45 0.5L-5.05 0.2Q-6.15 -0.2 -6.85 -1.2L-7.8 -2.5L-5.8 -2.9L-4.05 -3.2L-3.5 -3.1Q-4.15 -2.25 -3.8 -0.85L-3.75 -0.75L-3.55 -0.15Q-3.25 0.45 -1.6 1.45L-1.55 1.5Q-2.4 2.15 -3.3 1.75" />
<path style="fill:none;stroke-width:0.7;stroke-linecap:round;stroke-linejoin:round;stroke-miterlimit:3;stroke:#000000;stroke-opacity:0.4" d="M-3.8 -0.85L-3.75 -0.75L-3.55 -0.15Q-3.25 0.45 -1.6 1.45L-1.55 1.5Q0.1 2.4 1.3 3.3Q2.05 3.9 2.7 3.75L3.35 3.35Q3.9 2.8 4.2 0.8L4.2 0Q3.25 -0.3 2.7 1.1" />
<path style="fill:none;stroke-width:0.7;stroke-linecap:round;stroke-linejoin:round;stroke-miterlimit:3;stroke:#000000;stroke-opacity:0.4" d="M4.05 -1.25L4.1 -1.15L4.15 -1.1L4.05 -1.25L4 -1.3L4 -1.6L3.45 -2.1Q3.05 -2.4 2.85 -1.3L3.05 -1.55Q3.4 -2 4.1 -1.15" />
<path style="fill:none;stroke-width:0.7;stroke-linecap:round;stroke-linejoin:round;stroke-miterlimit:3;stroke:#000000;stroke-opacity:0.4" d="M2.85 -1.3Q2.6 -1.1 2.5 -1.15" />
<path style="fill:none;stroke-width:0.7;stroke-linecap:round;stroke-linejoin:round;stroke-miterlimit:3;stroke:#000000;stroke-opacity:0.4" d="M4.1 -1.15L4.2 0" />
<path style="fill:none;stroke-width:0.7;stroke-linecap:round;stroke-linejoin:miter;stroke-miterlimit:3;stroke:#000000;stroke-opacity:0.4" d="M-4.05 -3.2L-5.8 -2.9L-7.8 -2.5L-6.85 -1.2Q-6.15 -0.2 -5.05 0.2" />
<path style="fill:none;stroke-width:0.7;stroke-linecap:round;stroke-linejoin:miter;stroke-miterlimit:3;stroke:#000000;stroke-opacity:0.4" d="M-5.05 0.2L-3.45 0.5" />
<path style="fill:none;stroke-width:0.7;stroke-linecap:round;stroke-linejoin:miter;stroke-miterlimit:3;stroke:#000000;stroke-opacity:0.4" d="M-5.05 0.2Q-3.85 1.55 -2.65 1.1L-3.3 1.75Q-2.4 2.15 -1.55 1.5" />
</g>
</svg>
