<?xml version="1.0" encoding="utf-8"?>
<svg version="1.1" id="Layer_1"
xmlns="http://www.w3.org/2000/svg"
xmlns:xlink="http://www.w3.org/1999/xlink"
width="34px" height="22px"
xml:space="preserve">
<g id="PathID_600" transform="matrix(1, 0, 0, 1, 8.9, 12.95)">
<radialGradient
id="RadialGradID_154" gradientUnits="userSpaceOnUse" gradientTransform="matrix(0.00170898, 0.00378418, -0.0118103, 0.00531006, 14.15, -0.75)" spreadMethod ="pad" cx="0" cy="0" r="819.2" fx="0" fy="0" >
<stop  offset="0.282353"  style="stop-color:#181818;stop-opacity:1" />
<stop  offset="1"  style="stop-color:#0D0D0D;stop-opacity:0.0117647" />
</radialGradient>
<path style="fill:url(#RadialGradID_154) " d="M3.15 2.25L24.55 -5.2Q23.1 -1.55 16 1.35Q6.45 5.85 3.15 2.25" />
</g>
<g id="PathID_601" transform="matrix(1, 0, 0, 1, 8.9, 12.95)">
<path style="fill:#9B9281;fill-opacity:1" d="M11.15 -3.9L6.85 -9.3Q4.6 -9.6 4.15 -10.6Q3.8 -11.65 7.45 -12.55L8.35 -12.75L8.45 -12.75L9.05 -12.75L10.4 -12.55Q14 -11.75 17 -7.9Q14.05 -5.4 11.15 -3.9M10.55 0.8L11.15 -0.4Q15.85 -1.7 17.6 -5.1L18.1 -6.35L17.75 -6.85Q30.5 -8.3 18.35 -1.05L10.55 0.8" />
<path style="fill:#837A68;fill-opacity:1" d="M8.35 -12.75L7.45 -12.55Q3.8 -11.65 4.15 -10.6Q4.6 -9.6 6.85 -9.3L11.15 -3.9Q6.2 -1.4 1.3 -1.75Q-0.85 -9.5 4 -11.9L6.2 -12.55L7.6 -12.75L8.45 -12.75L8.35 -12.75M9.65 -0.5Q12.25 -1.3 14.1 -2.2L14.6 -2.45Q16.75 -3.7 17.6 -5.1Q15.85 -1.7 11.15 -0.4L10.55 0.8L18.35 -1.05L17.3 -0.5Q11.35 2.45 7.6 3L6.5 3.1L4.65 3Q3.95 2.9 3.35 2.6L2.65 2.15L2.25 1.2L9.65 -0.5" />
<path style="fill:#AA9E90;fill-opacity:1" d="M12.35 -2.2L14.5 -2.45L14.1 -2.2Q12.25 -1.3 9.65 -0.5L2.25 1.2L1.65 -0.5L1.3 -1.75Q6.2 -1.4 11.15 -3.9L12.35 -2.2" />
<path style="fill:#C7BEB5;fill-opacity:1" d="M14.6 -2.45L14.5 -2.45L12.35 -2.2L11.15 -3.9Q14.05 -5.4 17 -7.9L17.75 -6.85L18.1 -6.35L17.6 -5.1Q16.75 -3.7 14.6 -2.45" />
<path style="fill:none;stroke-width:0.7;stroke-linecap:round;stroke-linejoin:miter;stroke-miterlimit:5;stroke:#000000;stroke-opacity:0.498039" d="M8.45 -12.75L7.6 -12.75L6.2 -12.55L4 -11.9Q-0.85 -9.5 1.3 -1.75" />
<path style="fill:none;stroke-width:0.7;stroke-linecap:round;stroke-linejoin:miter;stroke-miterlimit:5;stroke:#000000;stroke-opacity:0.498039" d="M8.45 -12.75L9.05 -12.75L10.4 -12.55Q14 -11.75 17 -7.9" />
<path style="fill:none;stroke-width:0.7;stroke-linecap:round;stroke-linejoin:miter;stroke-miterlimit:5;stroke:#000000;stroke-opacity:0.498039" d="M17.75 -6.85Q30.5 -8.3 18.35 -1.05L17.3 -0.5Q11.35 2.45 7.6 3L6.5 3.1L4.65 3Q3.95 2.9 3.35 2.6L2.65 2.15L2.25 1.2L1.65 -0.5L1.3 -1.75" />
</g>
<g id="PathID_602" transform="matrix(1, 0, 0, 1, 8.9, 12.95)">
<path style="fill:#9B9281;fill-opacity:1" d="M12.15 -5.2Q14.3 -2.5 11.95 -1.4L11 -1.85Q9.9 -4.15 12.15 -5.2M9.45 -2Q8.95 -0.5 7.15 -1.55L8 -2.25Q8.8 -2.65 9.45 -2" />
<path style="fill:none;stroke-width:0.7;stroke-linecap:round;stroke-linejoin:round;stroke-miterlimit:3;stroke:#000000;stroke-opacity:0.498039" d="M12.15 -5.2Q14.3 -2.5 11.95 -1.4L11 -1.85Q9.9 -4.15 12.15 -5.2z" />
<path style="fill:none;stroke-width:0.7;stroke-linecap:round;stroke-linejoin:round;stroke-miterlimit:3;stroke:#000000;stroke-opacity:0.498039" d="M8 -2.25L7.15 -1.55Q8.95 -0.5 9.45 -2Q8.8 -2.65 8 -2.25z" />
</g>
<g id="PathID_603" transform="matrix(1, 0, 0, 1, 8.9, 12.95)">
<path style="fill:#EFB39B;fill-opacity:1" d="M9.7 -3Q10.25 -3.35 10.8 -3.3Q10.3 -3 10.25 -2.7L10.8 -3.35L11.85 -2.9L12.15 -2.35L11.3 -1.35L12.2 -1.8Q12.15 -1.1 11.75 -0.8L11.15 -0.4Q10.6 -0.8 10.4 -1.15L10.6 -0.35Q10.05 -0.35 9.55 -0.8Q9.15 -1.25 9.2 -2L9.7 -3M10.25 -2.7Q9.95 -2.05 10.4 -1.15L11.3 -1.35L12.15 -2.35M10.4 -1.15Q9.95 -2.05 10.25 -2.7Q11.8 -2.45 11.3 -1.35L10.4 -1.15Q10.6 -0.8 11.15 -0.4M11.3 -1.35Q11.8 -2.45 10.25 -2.7Q10.3 -3 10.8 -3.3" />
<path style="fill:none;stroke-width:0.7;stroke-linecap:round;stroke-linejoin:miter;stroke-miterlimit:5;stroke:#CA7F7A;stroke-opacity:0.8" d="M9.7 -3Q10.25 -3.35 10.8 -3.3L10.8 -3.35L11.85 -2.9L12.15 -2.35L12.2 -1.8Q12.15 -1.1 11.75 -0.8L11.15 -0.4L10.6 -0.35Q10.05 -0.35 9.55 -0.8Q9.15 -1.25 9.2 -2L9.7 -3z" />
<path style="fill:none;stroke-width:0.7;stroke-linecap:round;stroke-linejoin:miter;stroke-miterlimit:5;stroke:#CA7F7A;stroke-opacity:0.8" d="M12.15 -2.35L11.3 -1.35L10.4 -1.15Q10.6 -0.8 11.15 -0.4" />
<path style="fill:none;stroke-width:0.7;stroke-linecap:round;stroke-linejoin:miter;stroke-miterlimit:5;stroke:#CA7F7A;stroke-opacity:0.8" d="M11.3 -1.35Q11.8 -2.45 10.25 -2.7Q9.95 -2.05 10.4 -1.15" />
<path style="fill:none;stroke-width:0.7;stroke-linecap:round;stroke-linejoin:miter;stroke-miterlimit:5;stroke:#CA7F7A;stroke-opacity:0.8" d="M10.8 -3.3Q10.3 -3 10.25 -2.7" />
</g>
<g id="PathID_604" transform="matrix(1, 0, 0, 1, 8.9, 12.95)">
<path style="fill:#F1D0BF;fill-opacity:1" d="M9.9 -2.05L9.85 -1.55L9.45 -1.25Q9.35 -1.3 9.4 -1.7Q9.45 -2.2 9.9 -2.05" />
</g>
<g id="PathID_605" transform="matrix(1, 0, 0, 1, 8.9, 12.95)">
<path style="fill:#B88858;fill-opacity:1" d="M-0.9 -2.25L-0.8 -2.35L-0.75 -2.4L0.8 -3.25L4.25 -3.9L0.8 -3.25L-0.75 -2.4Q1 -3.9 -0.2 -4.6Q-3.7 -6.95 -6.9 -3.75L-4.7 -5.55Q-2.1 -7.15 0.8 -6.05L1.4 -5.75L4.25 -3.9Q5.35 -2.5 5.55 -1.3Q5.7 -0.45 5.3 0.3Q4.45 1.9 4.6 2.85Q3.8 1.5 4.4 0.5Q5 -1 3 -2.3L1.35 -2.5Q-0.9 -2.05 -2.4 -0.35L-1.5 -1.7L-0.9 -2.25" />
<path style="fill:#D59B75;fill-opacity:1" d="M2.2 1.25Q1.3 -0.55 -0.05 -0.75Q-2.3 -1.25 -3.15 2.4Q-3 0.8 -2.4 -0.35Q-0.9 -2.05 1.35 -2.5L3 -2.3Q5 -1 4.4 0.5Q3.8 1.5 4.6 2.85Q4.7 3.65 5.5 4.15L6.25 4.7L6.25 4.75L3.6 4.35L3.75 4.55Q2.2 4.2 2.2 1.25M-1.5 -1.7Q-5.05 -3 -8.6 0.2L-8.55 0.1Q-8.25 -1.75 -7 -3.65L-6.9 -3.75Q-3.7 -6.95 -0.2 -4.6Q1 -3.9 -0.75 -2.4L-0.8 -2.35L-0.9 -2.25L-1.5 -1.7" />
<path style="fill:#E1BA9D;fill-opacity:1" d="M-8.6 0.2Q-5.05 -3 -1.5 -1.7L-2.4 -0.35Q-3 0.8 -3.15 2.4Q-2.3 -1.25 -0.05 -0.75Q1.3 -0.55 2.2 1.25Q2.2 4.2 3.75 4.55L5 5.95L3.65 5.45L4.4 6.45Q3.25 7.2 2 7.55L-0.25 7.85L-2.45 7.55L-1.25 4.25L-3.8 7.05Q-5 6.5 -6.05 5.5Q-8.5 3.35 -8.65 0.3L-8.6 0.2M-3.15 4.25L-3.15 2.4L-3.15 4.25" />
<path style="fill:#694D33;fill-opacity:1" d="M-8.6 0.2L-8.65 0.3L-8.65 0.2L-8.65 0.05L-8.55 0.1L-8.6 0.2" />
<path style="fill:none;stroke-width:0.7;stroke-linecap:round;stroke-linejoin:miter;stroke-miterlimit:5;stroke:#000000;stroke-opacity:0.301961" d="M2 7.55L-0.25 7.85L-2.45 7.55L-1.25 4.25L-3.8 7.05Q-5 6.5 -6.05 5.5Q-8.5 3.35 -8.65 0.3L-8.65 0.2L-8.65 0.05" />
<path style="fill:none;stroke-width:0.7;stroke-linecap:round;stroke-linejoin:miter;stroke-miterlimit:5;stroke:#000000;stroke-opacity:0.2" d="M-0.75 -2.4L0.8 -3.25L4.25 -3.9" />
<path style="fill:none;stroke-width:0.7;stroke-linecap:round;stroke-linejoin:miter;stroke-miterlimit:5;stroke:#000000;stroke-opacity:0.2" d="M-2.4 -0.35Q-3 0.8 -3.15 2.4" />
<path style="fill:none;stroke-width:0.7;stroke-linecap:round;stroke-linejoin:miter;stroke-miterlimit:5;stroke:#000000;stroke-opacity:0.2" d="M-2.4 -0.35L-1.5 -1.7" />
<path style="fill:none;stroke-width:0.7;stroke-linecap:round;stroke-linejoin:miter;stroke-miterlimit:5;stroke:#000000;stroke-opacity:0.2" d="M-0.8 -2.35L-0.75 -2.4" />
<path style="fill:none;stroke-width:0.7;stroke-linecap:round;stroke-linejoin:miter;stroke-miterlimit:5;stroke:#000000;stroke-opacity:0.2" d="M-1.5 -1.7L-0.9 -2.25" />
<path style="fill:none;stroke-width:0.7;stroke-linecap:round;stroke-linejoin:miter;stroke-miterlimit:5;stroke:#000000;stroke-opacity:0.2" d="M-3.15 2.4L-3.15 4.25" />
</g>
<g id="PathID_606" transform="matrix(1, 0, 0, 1, 8.9, 12.95)">
<path style="fill:#ECD6BE;fill-opacity:1" d="M-6.9 -3.75L-7 -3.65Q-8.25 -1.75 -8.55 0.1L-8.65 0.05Q-8.7 -1.5 -8.15 -2.85Q-7.65 -4.4 -6.4 -5.6Q-4 -7.85 -0.65 -7.85Q2.7 -7.85 5.1 -5.65L5.15 -5.6Q7.7 -3.35 7.8 -0.05Q7.85 1.6 7.5 3.25L7 4.95L6.45 4.85L6.25 4.6L6.25 4.7L5.5 4.15Q4.7 3.65 4.6 2.85Q4.45 1.9 5.3 0.3Q5.7 -0.45 5.55 -1.3Q5.35 -2.5 4.25 -3.9L1.4 -5.75L0.8 -6.05Q-2.1 -7.15 -4.7 -5.55L-6.9 -3.75" />
<path style="fill:none;stroke-width:0.7;stroke-linecap:round;stroke-linejoin:miter;stroke-miterlimit:5;stroke:#000000;stroke-opacity:0.301961" d="M-4.7 -5.55Q-2.1 -7.15 0.8 -6.05L1.4 -5.75L4.25 -3.9Q5.35 -2.5 5.55 -1.3Q5.7 -0.45 5.3 0.3Q4.45 1.9 4.6 2.85Q4.7 3.65 5.5 4.15" />
<path style="fill:none;stroke-width:0.7;stroke-linecap:round;stroke-linejoin:miter;stroke-miterlimit:5;stroke:#000000;stroke-opacity:0.301961" d="M7 4.95L7.5 3.25Q7.85 1.6 7.8 -0.05Q7.7 -3.35 5.15 -5.6L5.1 -5.65Q2.7 -7.85 -0.65 -7.85Q-4 -7.85 -6.4 -5.6Q-7.65 -4.4 -8.15 -2.85Q-8.7 -1.5 -8.65 0.05" />
</g>
<g id="PathID_607" transform="matrix(1, 0, 0, 1, 8.9, 12.95)">
<path style="fill:#9B9281;fill-opacity:1" d="M7.35 -0.9L6.25 0.4Q2 0.4 3.25 -5.1Q7.35 -5.15 7.35 -0.9" />
<path style="fill:none;stroke-width:0.7;stroke-linecap:round;stroke-linejoin:round;stroke-miterlimit:3;stroke:#000000;stroke-opacity:0.498039" d="M3.25 -5.1Q2 0.4 6.25 0.4L7.35 -0.9Q7.35 -5.15 3.25 -5.1z" />
</g>
<g id="PathID_608" transform="matrix(1, 0, 0, 1, 8.9, 12.95)">
<path style="fill:#EFB39B;fill-opacity:1" d="M8.85 -0.2L7.35 0.2Q8.9 -1.8 8.05 -2.5Q5.85 -1.1 7.35 0.2Q7.65 -3 6.8 -3.1L8.6 -3.4Q9.55 -3 10.05 -2.2Q10.6 -1.15 10.35 -0.3Q9.9 0.8 9.05 1.2L8.25 1.45L7.15 1.35L8.85 -0.2M7.15 1.35Q6.3 1.15 5.7 0.15L5.45 -0.8L5.45 -1.75Q5.85 -2.55 6.7 -3.15L6.8 -3.1Q7.65 -3 8.05 -2.5Q8.9 -1.8 8.85 -0.2L8.25 1.45M7.35 0.2Q6.45 -0.15 5.45 -0.8Q6.45 -0.15 7.35 0.2Q5.85 -1.1 8.05 -2.5M7.35 0.2L8.85 -0.2" />
<path style="fill:none;stroke-width:0.7;stroke-linecap:round;stroke-linejoin:miter;stroke-miterlimit:5;stroke:#CA7F7A;stroke-opacity:0.8" d="M8.25 1.45L9.05 1.2Q9.9 0.8 10.35 -0.3Q10.6 -1.15 10.05 -2.2Q9.55 -3 8.6 -3.4L6.8 -3.1Q7.65 -3 8.05 -2.5Q8.9 -1.8 8.85 -0.2L8.25 1.45L7.15 1.35Q6.3 1.15 5.7 0.15L5.45 -0.8L5.45 -1.75Q5.85 -2.55 6.7 -3.15L6.8 -3.1" />
<path style="fill:none;stroke-width:0.7;stroke-linecap:round;stroke-linejoin:miter;stroke-miterlimit:5;stroke:#CA7F7A;stroke-opacity:0.8" d="M5.45 -0.8Q6.45 -0.15 7.35 0.2Q5.85 -1.1 8.05 -2.5" />
<path style="fill:none;stroke-width:0.7;stroke-linecap:round;stroke-linejoin:miter;stroke-miterlimit:5;stroke:#CA7F7A;stroke-opacity:0.8" d="M8.85 -0.2L7.35 0.2" />
</g>
<g id="PathID_609" transform="matrix(1, 0, 0, 1, 8.9, 12.95)">
<path style="fill:#F1D0BF;fill-opacity:1" d="M9 -1.6L9.4 -0.8L10.25 -0.55L10 -1.35Q9.6 -2.1 9 -1.6" />
</g>
</svg>
