<?xml version="1.0" encoding="utf-8"?>
<svg version="1.1" id="Layer_1"
xmlns="http://www.w3.org/2000/svg"
xmlns:xlink="http://www.w3.org/1999/xlink"
width="5px" height="5px"
xml:space="preserve">
<g id="PathID_199" transform="matrix(1, 0, 0, 1, 2.35, 2.25)">
<radialGradient
id="RadialGradID_50" gradientUnits="userSpaceOnUse" gradientTransform="matrix(0.00311279, 0, 0, 0.00370789, 0.25, -0.1)" spreadMethod ="pad" cx="0" cy="0" r="819.2" fx="0" fy="0" >
<stop  offset="0.121569"  style="stop-color:#BD8100;stop-opacity:1" />
<stop  offset="0.419608"  style="stop-color:#F0A70B;stop-opacity:1" />
<stop  offset="0.627451"  style="stop-color:#FFE33A;stop-opacity:1" />
</radialGradient>
<path style="fill:url(#RadialGradID_50) " d="M-0.45 1.65Q-2.2 1.05 -1.9 -1.15Q-1.35 -2.1 -0.1 -2.15Q0.8 -2.15 1.45 -1.5L1.7 -1.2Q2.1 -0.65 2.1 0.05L2.1 0.35Q1.05 2.2 -0.45 1.65" />
<path style="fill:#F0F0F0;fill-opacity:1" d="M2.1 0.35L1.45 1.55Q0.8 2.2 -0.1 2.2Q-1 2.2 -1.65 1.55Q-2.25 0.9 -2.25 0.05L-1.9 -1.15Q-2.2 1.05 -0.45 1.65Q1.05 2.2 2.1 0.35" />
<path style="fill:none;stroke-width:0.7;stroke-linecap:round;stroke-linejoin:round;stroke-miterlimit:3;stroke:#000000;stroke-opacity:0.4" d="M-1.9 -1.15Q-1.35 -2.1 -0.1 -2.15Q0.8 -2.15 1.45 -1.5L1.7 -1.2Q2.1 -0.65 2.1 0.05L2.1 0.35L1.45 1.55Q0.8 2.2 -0.1 2.2Q-1 2.2 -1.65 1.55Q-2.25 0.9 -2.25 0.05L-1.9 -1.15z" />
</g>
<g id="PathID_200" transform="matrix(1, 0, 0, 1, 2.35, 2.25)">
<path style="fill:#1D130E;fill-opacity:1" d="M1.3 -0.3L1.3 -0.1L1.1 0.8L0.45 1.35Q-0.25 1.25 -0.35 0.3Q-0.45 -0.55 -0.15 -1.15Q0.1 -1.7 0.65 -1.6Q1.2 -1.5 1.3 -0.3" />
</g>
<g id="PathID_201" transform="matrix(1, 0, 0, 1, 2.35, 2.25)">
<path style="fill:#1D130E;fill-opacity:1" d="M-2.05 -0.45Q-1.8 -2.25 0.25 -2.15Q2.6 -1.7 1.9 0.85Q1.75 -0.4 0.95 -0.8L-0.05 -1.05Q-1.15 -1.25 -2.05 -0.45" />
</g>
<g id="PathID_202" transform="matrix(1, 0, 0, 1, 2.35, 2.25)">
<path style="fill:#FFFFFF;fill-opacity:1" d="M-1.9 0.85L-2.05 0.45L-1.9 0.05L-1.5 -0.1L-1.1 0.05L-0.95 0.45L-1.1 0.85L-1.5 1L-1.9 0.85" />
</g>
<g id="PathID_203" transform="matrix(1, 0, 0, 1, 2.35, 2.25)">
<path style="fill:#FFFFFF;fill-opacity:1" d="M0.75 -1.25L0.5 -0.6Q0.25 -0.35 -0.15 -0.35Q-0.55 -0.35 -0.8 -0.6L-1.05 -1.25L-0.8 -1.9L-0.15 -2.15L0.5 -1.9L0.75 -1.25" />
</g>
</svg>
