<?xml version="1.0" encoding="utf-8"?>
<svg version="1.1" id="Layer_1"
xmlns="http://www.w3.org/2000/svg"
xmlns:xlink="http://www.w3.org/1999/xlink"
width="25px" height="26px"
xml:space="preserve">
<g id="PathID_3" transform="matrix(1, 0, 0, 1, 12.35, 13.25)">
<path style="fill:none;stroke-width:0.7;stroke-linecap:round;stroke-linejoin:round;stroke-miterlimit:3;stroke:#000000;stroke-opacity:0.4" d="M-0.6 -9.65L4.9 -12.75" />
</g>
<g id="PathID_4" transform="matrix(1, 0, 0, 1, 12.35, 13.25)">
<path style="fill:#BA5D33;fill-opacity:1" d="M4.6 -12.6Q0.9 -11.5 0.15 -10.05Q-0.65 -8.6 -1.35 -9.8L-1.3 -9.85L-1.2 -10.2Q-0.55 -11.9 3.75 -12.65L4.7 -12.9L4.6 -12.6M-2.1 -11.45L-2.1 -11.4L-2.1 -11.3L-2.05 -11.2Q-2.25 -9.3 -3.4 -9.2Q-2.4 -10.7 -2.85 -12.1L-2.1 -11.45" />
<linearGradient
id="LinearGradID_1" gradientUnits="userSpaceOnUse" gradientTransform="matrix(0.00170898, -0.0017395, 0.0017395, 0.0017395, 1.45, -9.5)" spreadMethod ="pad" x1="-819.2" y1="0" x2="819.2" y2="0" >
<stop  offset="0" style="stop-color:#BE6336;stop-opacity:1" />
<stop  offset="1" style="stop-color:#B9887C;stop-opacity:1" />
</linearGradient>
<path style="fill:url(#LinearGradID_1) " d="M1.9 -9L0.9 -8.9Q3 -10.05 4.6 -12.6L4.7 -12.9L4.95 -13Q4.6 -10.55 3.4 -9.6Q2.75 -9.1 1.9 -9" />
<linearGradient
id="LinearGradID_2" gradientUnits="userSpaceOnUse" gradientTransform="matrix(0.000289917, -0.00238037, 0.00753784, 0.000961304, -7.55, -11.45)" spreadMethod ="pad" x1="-819.2" y1="0" x2="819.2" y2="0" >
<stop  offset="0" style="stop-color:#ECA256;stop-opacity:1" />
<stop  offset="1" style="stop-color:#FFF3DD;stop-opacity:1" />
</linearGradient>
<path style="fill:url(#LinearGradID_2) " d="M-2.05 -11.2Q-1.75 -10.55 -1.95 -9.75L-2.45 -8L-1.35 -9.8Q-0.65 -8.6 0.15 -10.05Q0.9 -11.5 4.6 -12.6Q3 -10.05 0.9 -8.9L1.9 -9Q2.75 -9.1 3.4 -9.6L4.15 -9.4L4.2 -9.35Q7.7 -6.35 7.9 -2L7.85 -1.75Q6.85 0.85 5.75 -0.7L5.7 -0.8Q4.4 -4.85 0.75 -5.45Q-1.4 -5.75 -3.35 -4.35Q-5.55 -2.65 -6.8 -2.65L-6.85 -2.7Q-7.5 -3 -6.65 -5.4L-6.15 -6.2L-5.25 -7.2L-4.55 -7.95L-3.4 -9.2Q-2.25 -9.3 -2.05 -11.2" />
<path style="fill:#FFF3DD;fill-opacity:1" d="M-6.85 -2.7L-6.8 -2.65Q-5.75 -1.8 -3.35 -3.2Q1.6 -7.15 5.7 -0.8L5.75 -0.7Q6.85 0.85 7.85 -1.75L7.9 -2L8.4 -4.2L9.4 -3.4L10.25 -2.05L10.8 -1.55L11.9 -0.7Q9.75 2.2 5.4 3.1L4.15 3.95Q0.75 4.55 -1.4 3.85L-2.8 3.15Q-4.2 2.65 -5.15 3.4Q-7.6 4.75 -10.35 4L-8.7 3.25L-7.85 2.65L-7.2 2.1L-11.45 2.3L-11.5 2.25Q-8.45 1.2 -8 -1.45Q-7.7 -3.6 -6.65 -5.4Q-7.5 -3 -6.85 -2.7" />
<linearGradient
id="LinearGradID_3" gradientUnits="userSpaceOnUse" gradientTransform="matrix(-0.000717163, -0.00230408, 0.00415039, -0.00131226, 9, -8.65)" spreadMethod ="pad" x1="-819.2" y1="0" x2="819.2" y2="0" >
<stop  offset="0" style="stop-color:#BE6336;stop-opacity:1" />
<stop  offset="1" style="stop-color:#F4AD5D;stop-opacity:1" />
</linearGradient>
<path style="fill:url(#LinearGradID_3) " d="M4.2 -9.35L6.5 -7.9Q8.35 -6 9.15 -4.05L9.4 -3.4L8.4 -4.2L7.9 -2Q7.7 -6.35 4.2 -9.35" />
<linearGradient
id="LinearGradID_4" gradientUnits="userSpaceOnUse" gradientTransform="matrix(0.00242615, 0, 0, 0.00286865, -1, -4)" spreadMethod ="pad" x1="-819.2" y1="0" x2="819.2" y2="0" >
<stop  offset="0" style="stop-color:#EBA055;stop-opacity:1" />
<stop  offset="1" style="stop-color:#D07C43;stop-opacity:1" />
</linearGradient>
<path style="fill:url(#LinearGradID_4) " d="M5.7 -0.8Q1.6 -7.15 -3.35 -3.2Q-5.75 -1.8 -6.8 -2.65Q-5.55 -2.65 -3.35 -4.35Q-1.4 -5.75 0.75 -5.45Q4.4 -4.85 5.7 -0.8" />
<linearGradient
id="LinearGradID_5" gradientUnits="userSpaceOnUse" gradientTransform="matrix(0.000915527, -0.00221252, 0.00250244, 0.0010376, -2, -9.9)" spreadMethod ="pad" x1="-819.2" y1="0" x2="819.2" y2="0" >
<stop  offset="0" style="stop-color:#BE6336;stop-opacity:1" />
<stop  offset="1" style="stop-color:#B9887C;stop-opacity:1" />
</linearGradient>
<path style="fill:url(#LinearGradID_5) " d="M-2.45 -8L-1.95 -9.75Q-1.75 -10.55 -2.05 -11.2L-2.1 -11.4L-2.1 -11.45L-2.15 -11.9Q-1.1 -11.05 -1.2 -10.2L-1.3 -9.85L-1.35 -9.8L-2.45 -8" />
<path style="fill:#953B24;fill-opacity:1" d="M-2.85 -12.1L-3 -12.5L-2.15 -11.9L-2.1 -11.45L-2.85 -12.1M-2.1 -11.3L-2.1 -11.4L-2.05 -11.2L-2.1 -11.3" />
<path style="fill:#B9887C;fill-opacity:1" d="M-5.15 3.4Q-4.2 2.65 -2.8 3.15L-1.4 3.85Q0.75 4.55 4.15 3.95L5.4 3.1Q9.75 2.2 11.9 -0.7L12.1 0.7Q11.95 3.2 9 5.1L4.55 7.55L2.5 8.25Q-0.95 6.4 -3 5.9Q-4.4 5.55 -5.45 4.9Q-8.25 6.1 -10.35 4Q-7.6 4.75 -5.15 3.4M-7.2 2.1L-7.85 2.65Q-9.75 3.75 -11.45 2.3L-7.2 2.1" />
<path style="fill:none;stroke-width:0.7;stroke-linecap:round;stroke-linejoin:miter;stroke-miterlimit:5;stroke:#000000;stroke-opacity:0.4" d="M-1.2 -10.2Q-0.55 -11.9 3.75 -12.65L4.7 -12.9L4.95 -13Q4.6 -10.55 3.4 -9.6L4.15 -9.4L4.2 -9.35L6.5 -7.9Q8.35 -6 9.15 -4.05L9.4 -3.4L10.25 -2.05L10.8 -1.55L11.9 -0.7L12.1 0.7Q11.95 3.2 9 5.1L4.55 7.55" />
<path style="fill:none;stroke-width:0.7;stroke-linecap:round;stroke-linejoin:miter;stroke-miterlimit:5;stroke:#000000;stroke-opacity:0.4" d="M-3 5.9Q-4.4 5.55 -5.45 4.9Q-8.25 6.1 -10.35 4L-8.7 3.25L-7.85 2.65Q-9.75 3.75 -11.45 2.3L-11.5 2.25Q-8.45 1.2 -8 -1.45Q-7.7 -3.6 -6.65 -5.4L-6.15 -6.2L-5.25 -7.2L-4.55 -7.95L-3.4 -9.2Q-2.4 -10.7 -2.85 -12.1L-3 -12.5L-2.15 -11.9Q-1.1 -11.05 -1.2 -10.2L-1.3 -9.85" />
<path style="fill:none;stroke-width:0.7;stroke-linecap:round;stroke-linejoin:miter;stroke-miterlimit:5;stroke:#000000;stroke-opacity:0.4" d="M1.9 -9Q2.75 -9.1 3.4 -9.6" />
</g>
<g id="PathID_5" transform="matrix(1, 0, 0, 1, 12.35, 13.25)">
<path style="fill:none;stroke-width:0.7;stroke-linecap:round;stroke-linejoin:miter;stroke-miterlimit:5;stroke:#000000;stroke-opacity:0.501961" d="M4.25 2.8Q-5.05 2.95 -12.1 7.9" />
</g>
<g id="PathID_6" transform="matrix(1, 0, 0, 1, 12.35, 13.25)">
<path style="fill:none;stroke-width:0.7;stroke-linecap:round;stroke-linejoin:miter;stroke-miterlimit:5;stroke:#000000;stroke-opacity:0.501961" d="M5.75 3.75Q-2 5.95 -6.8 11.65" />
</g>
<g id="PathID_7" transform="matrix(1, 0, 0, 1, 12.35, 13.25)">
<path style="fill:#EDC49A;fill-opacity:1" d="M11.55 -0.8L11.9 -0.15Q11 0.95 11.25 1.3L10.75 1.6Q10.95 1 10.15 0.6Q9.15 0.6 9 -0.05L9.5 -0.35Q10.9 0.35 11.25 -0.8L11.55 -0.8" />
<path style="fill:#F5E0CD;fill-opacity:1" d="M9.5 -0.35Q10.35 -0.85 11.25 -0.8Q10.9 0.35 9.5 -0.35" />
<path style="fill:#C7A079;fill-opacity:1" d="M10.4 1.75Q10.05 0.6 9.05 0.9L8.7 0.2L9 -0.05Q9.15 0.6 10.15 0.6Q10.95 1 10.75 1.6L10.4 1.75" />
<path style="fill:none;stroke-width:0.7;stroke-linecap:round;stroke-linejoin:round;stroke-miterlimit:3;stroke:#000000;stroke-opacity:0.301961" d="M9.5 -0.35L9 -0.05" />
<path style="fill:none;stroke-width:0.7;stroke-linecap:round;stroke-linejoin:round;stroke-miterlimit:3;stroke:#000000;stroke-opacity:0.301961" d="M10.75 1.6L11.25 1.3Q11 0.95 11.9 -0.15L11.55 -0.8L11.25 -0.8Q10.35 -0.85 9.5 -0.35" />
<path style="fill:none;stroke-width:0.7;stroke-linecap:round;stroke-linejoin:round;stroke-miterlimit:3;stroke:#000000;stroke-opacity:0.301961" d="M9 -0.05L8.7 0.2L9.05 0.9Q10.05 0.6 10.4 1.75L10.75 1.6" />
</g>
</svg>
