<?xml version="1.0" encoding="utf-8"?>
<svg version="1.1" id="Layer_1"
xmlns="http://www.w3.org/2000/svg"
xmlns:xlink="http://www.w3.org/1999/xlink"
width="25px" height="25px"
xml:space="preserve">
<g id="PathID_990" transform="matrix(1, 0, 0, 1, 12.35, 12.95)">
<path style="fill:#EEC692;fill-opacity:1" d="M7.5 -0.05Q6.45 -0.25 3.9 -1.7Q1.35 -3.15 -0.25 -3.35Q-1.85 -3.55 -2.85 -2.9L-5.7 -1.05L-6.75 -0.2Q-7.25 -1.25 -7 -2.4L-6.15 -6.2L-4.65 -7.9L-4.55 -7.95Q-2.4 -9.9 -2.75 -11.75L-2.85 -12.1L-2.45 -11.75Q-1.65 -10.9 -1.95 -9.75L-2.45 -8L-1.3 -9.85L-0.65 -10.55Q0.35 -11.25 2.35 -11.15L2.05 -10.9Q-0.05 -9.3 -0.15 -8.3L1.8 -9.65L2.45 -9.65L3.85 -9.45Q4.95 -9.2 5.85 -8.5L6.5 -7.9L8.5 -5.4L8.9 -4.6L9.15 -4.05L9.2 -3.95L9.45 -3.35L9.7 -2.85L9.75 -2.8L10.25 -2.05L10.8 -1.55L11.4 -1.2L11.9 -0.7L11.75 -0.45L11.55 -0.8L11.25 -0.8L9.7 -0.45L9.5 -0.35L9.45 -0.3L8.65 0.2L8.7 0.25L7.5 -0.05M0.85 -6.6Q0.4 -6.6 0 -5.85Q-0.35 -4.5 1.3 -4Q2.9 -3.6 2.8 -4.9Q2.7 -6.2 1.6 -6.6L0.85 -6.6" />
<path style="fill:#FEF5EE;fill-opacity:1" d="M1.6 -6.6Q2.7 -6.2 2.8 -4.9Q2.9 -3.6 1.3 -4Q-0.35 -4.5 0 -5.85Q0.4 -6.6 0.85 -6.6L1.6 -6.6M-6.8 -0.25L-6.75 -0.2L-5.7 -1.05L-2.85 -2.9Q-1.85 -3.55 -0.25 -3.35Q1.35 -3.15 3.9 -1.7Q6.45 -0.25 7.5 -0.05L8.7 0.25L9.05 0.9L9.45 0.85L9.7 0.9Q9.9 0.95 10.1 1.15L9.7 1.45L9.45 1.6L8.9 1.9L6.75 2.75L5.4 3.1L4.15 3.95L3.85 4L3.75 4.05L2.6 4.15L-1.4 3.85L-3.45 3.1Q-5.1 2.5 -5.75 1.5L-6.55 0.2L-6.8 -0.2L-6.8 -0.25" />
<path style="fill:#CD906C;fill-opacity:1" d="M-2.45 -8L-1.95 -9.75Q-1.65 -10.9 -2.45 -11.75L-2.85 -12.1L-3 -12.5L-1.95 -11.75Q-0.9 -10.8 -1.3 -9.85L-2.45 -8M2.05 -10.9Q1.6 -10.45 1.8 -9.65L-0.15 -8.3Q-0.05 -9.3 2.05 -10.9" />
<path style="fill:#1C1201;fill-opacity:1" d="M9.7 -0.25Q10.95 0.25 11.25 -0.8L11.55 -0.8L11.75 -0.45L11.9 -0.15L11.4 0.55Q11.1 1.1 11.25 1.3L10.75 1.6L10.4 1.75L10.1 1.15Q9.9 0.95 9.7 0.9L9.45 0.85L9.05 0.9L8.7 0.25L8.65 0.2L9.45 -0.3L9.5 -0.35L9.7 -0.25" />
<path style="fill:#3C2429;fill-opacity:1" d="M9.5 -0.35L9.7 -0.45L11.25 -0.8Q10.95 0.25 9.7 -0.25L9.5 -0.35" />
<path style="fill:#D8B5AE;fill-opacity:1" d="M-7.1 0.05L-6.8 -0.2L-6.55 0.2L-5.75 1.5Q-5.1 2.5 -3.45 3.1L-1.4 3.85L2.6 4.15L3.75 4.05L3.85 4L4.15 3.95L5.4 3.1L6.75 2.75L8.9 1.9L9.45 1.6L9.7 1.45L10.1 1.15L10.4 1.75L10.75 1.6L11.25 1.3Q11.1 1.1 11.4 0.55L11.9 -0.15L11.75 -0.45L11.9 -0.7L12.1 0.7Q12.05 1.8 11.4 2.85L9.7 4.6L9.65 4.65L9.45 4.8L9 5.1L8.9 5.15L5.3 7.2L5.05 7.35L5 7.35L4.55 7.55L2.5 8.25Q0.6 7.2 -0.9 6.6Q-2.1 6.1 -3 5.9Q-3.3 5.75 -4.8 6.3Q-6.45 6.85 -8.95 6.3L-7.45 4.65Q-9.15 4.3 -10.9 3.45Q-8.45 2.85 -7.75 0.95L-7.75 0.7L-7.75 0.65L-7.75 0.5L-7.1 0.05M-7.75 0.65L-7.75 0.95L-7.75 0.65" />
<path style="fill:#CE8F71;fill-opacity:1" d="M-7 -2.4Q-7.25 -1.25 -6.75 -0.2L-6.8 -0.25L-6.8 -0.2L-7.1 0.05L-7.75 0.5L-7.75 -0.65Q-7.7 -4 -6.15 -6.2L-7 -2.4" />
<path style="fill:none;stroke-width:0.7;stroke-linecap:round;stroke-linejoin:miter;stroke-miterlimit:5;stroke:#660000;stroke-opacity:0.4" d="M1.8 -9.65L2.45 -9.65L3.85 -9.45Q4.95 -9.2 5.85 -8.5L6.5 -7.9L8.5 -5.4L8.9 -4.6L9.15 -4.05L9.2 -3.95L9.45 -3.35L9.7 -2.85L9.75 -2.8L10.25 -2.05L10.8 -1.55L11.4 -1.2L11.9 -0.7L12.1 0.7Q12.05 1.8 11.4 2.85L9.7 4.6L9.65 4.65L9.45 4.8L9 5.1L8.9 5.15L5.3 7.2L5.05 7.35L5 7.35L4.55 7.55" />
<path style="fill:none;stroke-width:0.7;stroke-linecap:round;stroke-linejoin:miter;stroke-miterlimit:5;stroke:#660000;stroke-opacity:0.4" d="M-3 5.9Q-3.3 5.75 -4.8 6.3Q-6.45 6.85 -8.95 6.3L-7.45 4.65Q-9.15 4.3 -10.9 3.45Q-8.45 2.85 -7.75 0.95" />
<path style="fill:none;stroke-width:0.7;stroke-linecap:round;stroke-linejoin:miter;stroke-miterlimit:5;stroke:#660000;stroke-opacity:0.4" d="M-7.75 0.5L-7.75 -0.65Q-7.7 -4 -6.15 -6.2L-4.65 -7.9L-4.55 -7.95Q-2.4 -9.9 -2.75 -11.75L-2.85 -12.1L-3 -12.5L-1.95 -11.75Q-0.9 -10.8 -1.3 -9.85L-0.65 -10.55Q0.35 -11.25 2.35 -11.15L2.05 -10.9Q1.6 -10.45 1.8 -9.65" />
<path style="fill:none;stroke-width:0.7;stroke-linecap:round;stroke-linejoin:round;stroke-miterlimit:3;stroke:#000000;stroke-opacity:0.301961" d="M8.7 0.25L8.65 0.2L9.45 -0.3L9.5 -0.35L9.7 -0.45L11.25 -0.8L11.55 -0.8L11.75 -0.45" />
<path style="fill:none;stroke-width:0.7;stroke-linecap:round;stroke-linejoin:round;stroke-miterlimit:3;stroke:#000000;stroke-opacity:0.301961" d="M8.7 0.25L9.05 0.9L9.45 0.85L9.7 0.9Q9.9 0.95 10.1 1.15L10.4 1.75L10.75 1.6L11.25 1.3Q11.1 1.1 11.4 0.55L11.9 -0.15L11.75 -0.45" />
<path style="fill:none;stroke-width:0.7;stroke-linecap:round;stroke-linejoin:miter;stroke-miterlimit:5;stroke:#660000;stroke-opacity:0.4" d="M-7.75 0.95L-7.75 0.65" />
</g>
<g id="PathID_991" transform="matrix(1, 0, 0, 1, 12.35, 12.95)">
<path style="fill:none;stroke-width:0.7;stroke-linecap:round;stroke-linejoin:miter;stroke-miterlimit:5;stroke:#660000;stroke-opacity:0.501961" d="M5.75 3.75L5.4 3.85L4.85 4.05L3.3 4.55L2.4 4.95Q-3.1 7.25 -6.8 11.65" />
<path style="fill:none;stroke-width:0.7;stroke-linecap:round;stroke-linejoin:miter;stroke-miterlimit:5;stroke:#660000;stroke-opacity:0.501961" d="M4.25 2.8L2.4 2.9Q-5.75 3.45 -12.1 7.9" />
</g>
</svg>
