<?xml version="1.0" encoding="utf-8"?>
<svg version="1.1" id="Layer_1"
xmlns="http://www.w3.org/2000/svg"
xmlns:xlink="http://www.w3.org/1999/xlink"
width="25px" height="27px"
xml:space="preserve">
<g id="PathID_169" transform="matrix(1, 0, 0, 1, 12.35, 14.5)">
<linearGradient
id="LinearGradID_39" gradientUnits="userSpaceOnUse" gradientTransform="matrix(0.00144958, 0.00234985, -0.0043335, 0.00267029, 1.95, -7.7)" spreadMethod ="pad" x1="-819.2" y1="0" x2="819.2" y2="0" >
<stop  offset="0" style="stop-color:#9D0000;stop-opacity:1" />
<stop  offset="1" style="stop-color:#D70103;stop-opacity:1" />
</linearGradient>
<path style="fill:url(#LinearGradID_39) " d="M5.45 -8.8L5.7 -7.8Q5.35 -8.25 4.65 -8.5Q3.8 -8.8 4.4 -8.45Q5 -8.15 5.1 -7.15Q3.7 -8.1 3.4 -7.75Q4 -7.35 4.05 -6.5L3.9 -5.6L3.1 -6.45Q2.35 -7.05 2 -7.15Q2.55 -6.3 2.25 -5.75Q-0.95 -8.15 -3.2 -7.65Q-5.3 -7.25 -6 -6.35L-5.15 -7.4L-3.7 -9.05Q-4.65 -10.75 -4.55 -11.45Q-4.45 -12.15 -3.6 -11.9L-2.45 -11.6Q-1.4 -11.25 -1.15 -10.35Q-1.4 -11.25 -2.45 -11.6Q-3.05 -13.05 -2.8 -13.55Q-2.55 -14.15 -1.05 -13.1Q0.3 -12.2 0.7 -11.35Q0.35 -13.35 0.55 -13.8Q0.8 -14.4 2.15 -13.3Q3.5 -12.25 3.15 -11L2.65 -9.65Q4.2 -9.6 5.45 -8.8M2.2 -9.15L2.65 -9.65L2.2 -9.15" />
<path style="fill:#D70103;fill-opacity:1" d="M-6.15 -6.2L-6.1 -6.25L-6 -6.35Q-5.3 -7.25 -3.2 -7.65Q-0.95 -8.15 2.25 -5.75Q2.55 -6.3 2 -7.15Q2.35 -7.05 3.1 -6.45L3.9 -5.6L4.05 -6.5Q4 -7.35 3.4 -7.75Q3.7 -8.1 5.1 -7.15Q5 -8.15 4.4 -8.45Q3.8 -8.8 4.65 -8.5Q5.35 -8.25 5.7 -7.8L5.45 -8.8L6.5 -7.9Q8.35 -6 9.15 -4.05Q9.55 -2.9 10.1 -2.25Q9.05 -1.05 5.95 -0.7L3.65 -3.4Q1.4 -5.95 -1.7 -4.4Q-2.55 -4.05 -3.1 -2.65Q-3.75 -0.9 -2.4 0.7Q-3.55 1.65 -3.8 2.65Q-7.6 0.35 -7 -2.4L-6.15 -6.2" />
<path style="fill:#FED6BD;fill-opacity:1" d="M10.25 1.75L9.45 1.8Q7.55 1.4 5.95 -0.7Q9.05 -1.05 10.1 -2.25L10.8 -1.55L11.9 -0.7L12 -0.35Q11.6 1.55 10.25 1.75" />
<path style="fill:#FFF0E5;fill-opacity:1" d="M5.1 1.4Q4.95 2.4 5.1 3.35L4.15 3.95L-0.3 4.1L-0.25 4.1L0.3 3.7L0.5 3.15Q0.5 3 0.15 3.35L-0.95 3.45L-1.55 3.8L-3.8 2.65Q-3.55 1.65 -2.4 0.7Q-3.75 -0.9 -3.1 -2.65Q-2.55 -4.05 -1.7 -4.4Q1.4 -5.95 3.65 -3.4L5.95 -0.7Q5.2 0.25 5.1 1.4M1.25 2.2L1.55 1.65Q1.55 1.45 1.15 1.8Q0.65 2.1 -0.2 1.8Q-1.95 2.5 -2.55 1.8Q-2.35 3.25 -1.1 2.8L-0.25 2.45L0.5 2.55L1.25 2.2" />
<path style="fill:#270900;fill-opacity:1" d="M5.1 3.35L5.4 3.1Q7.65 2.65 9.45 1.8L10.25 1.75Q11.6 1.55 12 -0.35L12.1 0.7Q11.95 3.2 9 5.1L6.8 6.45Q5.35 4.85 5.1 3.35" />
<path style="fill:#352414;fill-opacity:1" d="M5.1 3.35Q4.95 2.4 5.1 1.4Q5.2 0.25 5.95 -0.7Q7.55 1.4 9.45 1.8Q7.65 2.65 5.4 3.1L5.1 3.35" />
<path style="fill:#D70003;fill-opacity:1" d="M-0.9 4.1L-1.6 4.5Q-2.55 5.05 -2.9 3.65L-1.55 3.8L-0.95 3.45L0.15 3.35Q0.5 3 0.5 3.15L0.3 3.7L-0.25 4.1L-0.3 4.1L-0.9 4.1M0.5 2.55L-0.25 2.45L-1.1 2.8Q-2.35 3.25 -2.55 1.8Q-1.95 2.5 -0.2 1.8Q0.65 2.1 1.15 1.8Q1.55 1.45 1.55 1.65L1.25 2.2L0.5 2.55M0.05 5.2L-0.45 5.5Q-1 5.85 -1.25 5Q-0.85 5.4 0 4.8L0.75 4.75Q0.9 4.55 0.9 4.65L0.8 5Q0.7 5.25 0.45 5.2L0.05 5.2" />
<path style="fill:#E1C6BB;fill-opacity:1" d="M-0.3 4.1L4.15 3.95L5.1 3.35Q5.35 4.85 6.8 6.45L4.55 7.55L4.45 7.6L2.5 8.25Q0.55 7.2 -2.6 6Q-4.15 5.4 -3.85 3L-3.8 2.65L-1.55 3.8L-2.9 3.65Q-2.55 5.05 -1.6 4.5L-0.9 4.1L-0.3 4.1M0.45 5.2Q0.7 5.25 0.8 5L0.9 4.65Q0.9 4.55 0.75 4.75L0 4.8Q-0.85 5.4 -1.25 5Q-1 5.85 -0.45 5.5L0.05 5.2L0.45 5.2" />
<path style="fill:#B90000;fill-opacity:1" d="M-7 -2.4Q-7.6 0.35 -3.8 2.65L-3.85 3Q-4.15 5.4 -2.6 6L-3 5.9L-4 5.6Q-5.45 5.55 -6.75 4.8L-9.4 3.3L-7.95 2.35Q-8.6 2.55 -10.45 1.35Q-9.05 0.45 -7.8 0L-7.75 -0.65Q-7.7 -4 -6.15 -6.2L-7 -2.4" />
<path style="fill:none;stroke-width:0.7;stroke-linecap:round;stroke-linejoin:miter;stroke-miterlimit:5;stroke:#000000;stroke-opacity:0.4" d="M2.65 -9.65L3.15 -11Q3.5 -12.25 2.15 -13.3Q0.8 -14.4 0.55 -13.8Q0.35 -13.35 0.7 -11.35Q0.3 -12.2 -1.05 -13.1Q-2.55 -14.15 -2.8 -13.55Q-3.05 -13.05 -2.45 -11.6Q-1.4 -11.25 -1.15 -10.35" />
<path style="fill:none;stroke-width:0.7;stroke-linecap:round;stroke-linejoin:miter;stroke-miterlimit:5;stroke:#000000;stroke-opacity:0.4" d="M5.45 -8.8Q4.2 -9.6 2.65 -9.65L2.2 -9.15" />
<path style="fill:none;stroke-width:0.7;stroke-linecap:round;stroke-linejoin:miter;stroke-miterlimit:5;stroke:#000000;stroke-opacity:0.4" d="M5.45 -8.8L6.5 -7.9Q8.35 -6 9.15 -4.05Q9.55 -2.9 10.1 -2.25L10.8 -1.55L11.9 -0.7L12 -0.35L12.1 0.7Q11.95 3.2 9 5.1L6.8 6.45L4.55 7.55" />
<path style="fill:none;stroke-width:0.7;stroke-linecap:round;stroke-linejoin:miter;stroke-miterlimit:5;stroke:#000000;stroke-opacity:0.4" d="M-3 5.9L-4 5.6Q-5.45 5.55 -6.75 4.8L-9.4 3.3L-7.95 2.35Q-8.6 2.55 -10.45 1.35Q-9.05 0.45 -7.8 0L-7.75 -0.65Q-7.7 -4 -6.15 -6.2L-6.1 -6.25L-6 -6.35L-5.15 -7.4L-3.7 -9.05Q-4.65 -10.75 -4.55 -11.45Q-4.45 -12.15 -3.6 -11.9L-2.45 -11.6" />
</g>
<g id="PathID_170" transform="matrix(1, 0, 0, 1, 12.35, 14.5)">
<path style="fill:none;stroke-width:0.7;stroke-linecap:round;stroke-linejoin:miter;stroke-miterlimit:5;stroke:#000000;stroke-opacity:0.501961" d="M4.25 2.8Q-5.05 2.95 -12.1 7.9" />
</g>
<g id="PathID_171" transform="matrix(1, 0, 0, 1, 12.35, 14.5)">
<path style="fill:none;stroke-width:0.7;stroke-linecap:round;stroke-linejoin:miter;stroke-miterlimit:5;stroke:#000000;stroke-opacity:0.501961" d="M5.75 3.75Q-2 5.95 -6.8 11.65" />
</g>
<g id="PathID_172" transform="matrix(1, 0, 0, 1, 12.35, 14.5)">
<path style="fill:#FFE7D8;fill-opacity:1" d="M9.5 -0.35Q10.35 -0.85 11.25 -0.8Q10.9 0.35 9.5 -0.35" />
<path style="fill:#FED6BD;fill-opacity:1" d="M11.55 -0.8L11.9 -0.15Q11 0.95 11.25 1.3L10.75 1.6Q10.95 1 10.15 0.6Q9.15 0.6 9 -0.05L9.5 -0.35Q10.9 0.35 11.25 -0.8L11.55 -0.8" />
<path style="fill:#E3B396;fill-opacity:1" d="M10.4 1.75Q10.05 0.6 9.05 0.9L8.7 0.2L9 -0.05Q9.15 0.6 10.15 0.6Q10.95 1 10.75 1.6L10.4 1.75" />
<path style="fill:none;stroke-width:0.7;stroke-linecap:round;stroke-linejoin:round;stroke-miterlimit:3;stroke:#000000;stroke-opacity:0.301961" d="M9.5 -0.35L9 -0.05" />
<path style="fill:none;stroke-width:0.7;stroke-linecap:round;stroke-linejoin:round;stroke-miterlimit:3;stroke:#000000;stroke-opacity:0.301961" d="M10.75 1.6L11.25 1.3Q11 0.95 11.9 -0.15L11.55 -0.8L11.25 -0.8Q10.35 -0.85 9.5 -0.35" />
<path style="fill:none;stroke-width:0.7;stroke-linecap:round;stroke-linejoin:round;stroke-miterlimit:3;stroke:#000000;stroke-opacity:0.301961" d="M9 -0.05L8.7 0.2L9.05 0.9Q10.05 0.6 10.4 1.75L10.75 1.6" />
</g>
</svg>
