<?xml version="1.0" encoding="utf-8"?>
<svg version="1.1" id="Layer_1"
xmlns="http://www.w3.org/2000/svg"
xmlns:xlink="http://www.w3.org/1999/xlink"
width="10px" height="4px"
xml:space="preserve">
<g id="PathID_70" transform="matrix(1, 0, 0, 1, 4.7, 1.9)">
<path style="fill:#AB4D15;fill-opacity:1" d="M3.65 -0.2Q3.9 -0.4 3.35 -0.95L2.8 -0.8Q2.05 -0.55 1.25 0.15L0.6 0.9L2.85 1.15L2.75 1.7L2.85 1.15L2.35 0.6Q2.05 0.4 1.8 0.35L2.8 0.45L3.4 0.9L3.2 1.65L2.75 1.7L1.95 1.9L-0.65 1.55Q-4 0.2 -4.5 0.1Q-4.75 -0.45 -4.45 -0.95Q-4.15 -1.55 -2.6 -1.8L-1.45 -1.8L0.25 -1.65L3.35 -0.95L3.85 -0.65Q4.9 0 4.5 0.7L4.1 1.05Q4.2 0.05 3.65 -0.2" />
<path style="fill:#DC870E;fill-opacity:1" d="M2.8 -0.5L3.65 -0.2Q4.2 0.05 4.1 1.05Q4.1 1.45 3.2 1.65L3.4 0.9L2.8 0.45L1.8 0.35Q2.05 0.4 2.35 0.6L2.85 1.15L0.6 0.9L1.25 0.15Q2.05 -0.55 2.8 -0.8L3.35 -0.95Q3.9 -0.4 3.65 -0.2L2.8 -0.5" />
<path style="fill:none;stroke-width:0.7;stroke-linecap:round;stroke-linejoin:round;stroke-miterlimit:3;stroke:#000000;stroke-opacity:0.4" d="M3.2 1.65L2.75 1.7L1.95 1.9L-0.65 1.55Q-4 0.2 -4.5 0.1Q-4.75 -0.45 -4.45 -0.95Q-4.15 -1.55 -2.6 -1.8L-1.45 -1.8L0.25 -1.65L3.35 -0.95L3.85 -0.65Q4.9 0 4.5 0.7L4.1 1.05Q4.1 1.45 3.2 1.65z" />
<path style="fill:none;stroke-width:0.7;stroke-linecap:round;stroke-linejoin:round;stroke-miterlimit:3;stroke:#000000;stroke-opacity:0.4" d="M1.8 0.35Q2.05 0.4 2.35 0.6L2.85 1.15L2.75 1.7" />
<path style="fill:none;stroke-width:0.7;stroke-linecap:round;stroke-linejoin:round;stroke-miterlimit:3;stroke:#000000;stroke-opacity:0.4" d="M3.65 -0.2L2.8 -0.5" />
<path style="fill:none;stroke-width:0.7;stroke-linecap:round;stroke-linejoin:round;stroke-miterlimit:3;stroke:#000000;stroke-opacity:0.4" d="M4.1 1.05Q4.2 0.05 3.65 -0.2" />
</g>
</svg>
