<?xml version="1.0" encoding="utf-8"?>
<svg version="1.1" id="Layer_1"
xmlns="http://www.w3.org/2000/svg"
xmlns:xlink="http://www.w3.org/1999/xlink"
width="19px" height="19px"
xml:space="preserve">
<g id="PathID_982" transform="matrix(1, 0, 0, 1, 10.95, 10.4)">
<path style="fill:#9D6263;fill-opacity:1" d="M0.8 -3.25Q-0.25 -2.9 -1.65 -1.45L-1.55 -1.7Q-1.65 -4.7 -4.1 -4.4L-6.9 -3.7L-6.9 -3.75L-4.7 -5.55Q-2.1 -7.15 0.8 -6.05L3.15 -4.75L3.5 -4.5L4.25 -3.9L5.5 -1.55Q2.6 -3.95 0.8 -3.25M5.5 -1.55L5.6 -0.7L5.3 0.3Q4.45 1.9 4.6 2.85Q3.8 1.5 4.4 0.5Q5 -1 3 -2.3L1.35 -2.5Q-0.9 -2.05 -2.4 -0.35L-1.7 -1.4L-1.65 -1.45Q-0.25 -2.9 0.8 -3.25Q2.6 -3.95 4.25 -3.9" />
<path style="fill:#C1713D;fill-opacity:1" d="M3.55 -4.5Q4.35 -5.25 5.5 -5.25Q6.5 -4.3 7.1 -3.1L7.6 -1.7L7.75 -0.85L5.6 -0.7L5.5 -1.55L4.25 -3.9L3.5 -4.5L3.55 -4.5" />
<path style="fill:#4E4A4A;fill-opacity:1" d="M-7.7 -2.35L-8.5 -0.15L-8.6 0.35L-8.65 -0.2L-8.3 -2.45Q-9.75 -3.35 -10.5 -5.6Q-8.35 -4.15 -7.45 -4.1Q-10.4 -6.65 -10.55 -9.95Q-7.5 -7.75 -5 -7.7L-0.65 -7.85Q2.7 -7.85 5.1 -5.65L5.5 -5.25Q4.35 -5.25 3.55 -4.5L3.5 -4.5L3.15 -4.75L0.8 -6.05Q-2.1 -7.15 -4.7 -5.55L-6.9 -3.75L-6.9 -3.7L-7.7 -2.35" />
<path style="fill:#B67273;fill-opacity:1" d="M-1.7 -1.4Q-1.95 -1.9 -2.55 -2Q-4.1 -2.45 -6.4 -0.85L-8.55 0.8L-8.6 0.35L-8.5 -0.15L-7.7 -2.35L-6.9 -3.7L-4.1 -4.4Q-1.65 -4.7 -1.55 -1.7L-1.65 -1.45L-1.7 -1.4M5.5 4.15L6.25 4.7L6.25 4.75L3.6 4.35L3.75 4.55Q2.2 4.2 2.2 1.25Q1.3 -0.55 -0.05 -0.75Q-2.3 -1.25 -3.15 2.4Q-3 0.8 -2.4 -0.35Q-0.9 -2.05 1.35 -2.5L3 -2.3Q5 -1 4.4 0.5Q3.8 1.5 4.6 2.85Q4.7 3.65 5.5 4.15" />
<path style="fill:#F5EAE3;fill-opacity:1" d="M6.25 4.7L5.5 4.15Q4.7 3.65 4.6 2.85Q4.45 1.9 5.3 0.3L5.6 -0.7L7.75 -0.85L7.8 -0.05Q7.85 1.6 7.5 3.25L7 4.95L6.25 4.7" />
<path style="fill:#FFA1A2;fill-opacity:1" d="M-0.25 7.85L-2.45 7.55L-1.25 4.25L-3.8 7.05Q-5 6.5 -6.05 5.5Q-8.1 3.7 -8.5 1.2L-8.55 0.8L-6.4 -0.85Q-4.1 -2.45 -2.55 -2Q-1.95 -1.9 -1.7 -1.4L-2.4 -0.35Q-3 0.8 -3.15 2.4L-3.15 4.25L-3.15 2.4Q-2.3 -1.25 -0.05 -0.75Q1.3 -0.55 2.2 1.25Q2.2 4.2 3.75 4.55L5 5.95L3.65 5.45L4.4 6.45Q3.25 7.2 2 7.55L-0.25 7.85" />
<path style="fill:none;stroke-width:0.7;stroke-linecap:round;stroke-linejoin:miter;stroke-miterlimit:5;stroke:#000000;stroke-opacity:0.301961" d="M4.25 -3.9L3.5 -4.5L3.15 -4.75L0.8 -6.05Q-2.1 -7.15 -4.7 -5.55" />
<path style="fill:none;stroke-width:0.7;stroke-linecap:round;stroke-linejoin:miter;stroke-miterlimit:5;stroke:#000000;stroke-opacity:0.2" d="M-1.65 -1.45Q-0.25 -2.9 0.8 -3.25Q2.6 -3.95 4.25 -3.9" />
<path style="fill:none;stroke-width:0.7;stroke-linecap:round;stroke-linejoin:miter;stroke-miterlimit:5;stroke:#000000;stroke-opacity:0.301961" d="M4.25 -3.9L5.5 -1.55L5.6 -0.7" />
<path style="fill:none;stroke-width:0.7;stroke-linecap:round;stroke-linejoin:miter;stroke-miterlimit:5;stroke:#000000;stroke-opacity:0.301961" d="M7.75 -0.85L7.6 -1.7L7.1 -3.1Q6.5 -4.3 5.5 -5.25" />
<path style="fill:none;stroke-width:0.7;stroke-linecap:round;stroke-linejoin:miter;stroke-miterlimit:5;stroke:#000000;stroke-opacity:0.301961" d="M4.6 2.85Q4.45 1.9 5.3 0.3L5.6 -0.7" />
<path style="fill:none;stroke-width:0.7;stroke-linecap:round;stroke-linejoin:miter;stroke-miterlimit:5;stroke:#000000;stroke-opacity:0.301961" d="M5.5 -5.25L5.1 -5.65Q2.7 -7.85 -0.65 -7.85L-5 -7.7Q-7.5 -7.75 -10.55 -9.95Q-10.4 -6.65 -7.45 -4.1Q-8.35 -4.15 -10.5 -5.6Q-9.75 -3.35 -8.3 -2.45L-8.65 -0.2L-8.6 0.35" />
<path style="fill:none;stroke-width:0.7;stroke-linecap:round;stroke-linejoin:miter;stroke-miterlimit:5;stroke:#000000;stroke-opacity:0.301961" d="M7 4.95L7.5 3.25Q7.85 1.6 7.8 -0.05L7.75 -0.85" />
<path style="fill:none;stroke-width:0.7;stroke-linecap:round;stroke-linejoin:miter;stroke-miterlimit:5;stroke:#000000;stroke-opacity:0.301961" d="M5.5 4.15Q4.7 3.65 4.6 2.85" />
<path style="fill:none;stroke-width:0.7;stroke-linecap:round;stroke-linejoin:miter;stroke-miterlimit:5;stroke:#000000;stroke-opacity:0.2" d="M-3.15 2.4L-3.15 4.25" />
<path style="fill:none;stroke-width:0.7;stroke-linecap:round;stroke-linejoin:miter;stroke-miterlimit:5;stroke:#000000;stroke-opacity:0.301961" d="M-8.55 0.8L-8.5 1.2Q-8.1 3.7 -6.05 5.5Q-5 6.5 -3.8 7.05L-1.25 4.25L-2.45 7.55L-0.25 7.85L2 7.55" />
<path style="fill:none;stroke-width:0.7;stroke-linecap:round;stroke-linejoin:miter;stroke-miterlimit:5;stroke:#000000;stroke-opacity:0.2" d="M-1.7 -1.4L-2.4 -0.35Q-3 0.8 -3.15 2.4" />
<path style="fill:none;stroke-width:0.7;stroke-linecap:round;stroke-linejoin:miter;stroke-miterlimit:5;stroke:#000000;stroke-opacity:0.301961" d="M-8.6 0.35L-8.55 0.8" />
</g>
</svg>
