<?xml version="1.0" encoding="utf-8"?>
<svg version="1.1" id="Layer_1"
xmlns="http://www.w3.org/2000/svg"
xmlns:xlink="http://www.w3.org/1999/xlink"
width="5px" height="5px"
xml:space="preserve">
<g id="PathID_750" transform="matrix(1, 0, 0, 1, 2.2, 1.95)">
<path style="fill:#1D130E;fill-opacity:1" d="M-1.9 -0.4L-1.75 -0.95L-1.45 -1.45L-1 -1.85L2.2 -0.35L2.15 0.6L2.05 0.9L2.05 0.75Q1.9 -0.1 1.45 -0.5L1.45 -0.25L1.45 -0.05L1.25 0.85Q1.05 1.45 0.6 1.4Q-0.1 1.3 -0.2 0.35Q-0.3 -0.45 0 -1Q-1 -1.15 -1.8 -0.45L-1.9 -0.4" />
<path style="fill:#77523D;fill-opacity:1" d="M-0.3 1.7Q-1.8 1.2 -1.8 -0.45Q-1 -1.15 0 -1Q-0.3 -0.45 -0.2 0.35Q-0.1 1.3 0.6 1.4Q1.05 1.45 1.25 0.85L1.45 -0.05L1.45 -0.25L1.45 -0.5Q1.9 -0.1 2.05 0.75Q1.05 2.2 -0.3 1.7M2.25 0.4L2.15 0.6L2.2 -0.35L2.25 0.1L2.25 0.4M-1.75 -1.1L-1.45 -1.45L-1.75 -0.95L-1.75 -1.1" />
<path style="fill:#F0F0F0;fill-opacity:1" d="M-1.75 -0.95L-1.9 -0.4L-1.8 -0.45Q-1.8 1.2 -0.3 1.7Q1.05 2.2 2.05 0.75L2.05 0.9L2.15 0.6L2.25 0.4L1.6 1.6Q0.95 2.25 0.05 2.25Q-0.85 2.25 -1.5 1.6Q-2.1 0.95 -2.1 0.1L-1.75 -1.1L-1.75 -0.95" />
<path style="fill:none;stroke-width:0.7;stroke-linecap:round;stroke-linejoin:round;stroke-miterlimit:3;stroke:#000000;stroke-opacity:0.4" d="M-1 -1.85L-1.45 -1.45" />
<path style="fill:none;stroke-width:0.7;stroke-linecap:round;stroke-linejoin:round;stroke-miterlimit:3;stroke:#000000;stroke-opacity:0.4" d="M2.25 0.4L1.6 1.6Q0.95 2.25 0.05 2.25Q-0.85 2.25 -1.5 1.6Q-2.1 0.95 -2.1 0.1L-1.75 -1.1L-1.45 -1.45" />
<path style="fill:none;stroke-width:0.7;stroke-linecap:round;stroke-linejoin:round;stroke-miterlimit:3;stroke:#000000;stroke-opacity:0.4" d="M2.2 -0.35L2.25 0.1L2.25 0.4" />
</g>
<g id="PathID_751" transform="matrix(1, 0, 0, 1, 2.2, 1.95)">
<path style="fill:#FFFFFF;fill-opacity:1" d="M-0.8 0.5L-0.95 0.9L-1.35 1.05L-1.75 0.9L-1.9 0.5L-1.75 0.1L-1.35 -0.05L-0.95 0.1L-0.8 0.5" />
</g>
<g id="PathID_752" transform="matrix(1, 0, 0, 1, 2.2, 1.95)">
<path style="fill:#FFFFFF;fill-opacity:1" d="M0.65 -0.55Q0.4 -0.3 0 -0.3Q-0.4 -0.3 -0.65 -0.55L-0.9 -1.2L-0.65 -1.8L0.9 -1L0.65 -0.55" />
</g>
</svg>
