<?xml version="1.0" encoding="utf-8"?>
<svg version="1.1" id="Layer_1"
xmlns="http://www.w3.org/2000/svg"
xmlns:xlink="http://www.w3.org/1999/xlink"
width="21px" height="20px"
xml:space="preserve">
<g id="PathID_422" transform="matrix(1, 0, 0, 1, 10.65, 9.25)">
<path style="fill:#F4DDD1;fill-opacity:1" d="M-4.75 -0.65Q-1.75 1.2 1.65 1.55Q4.7 1.85 7 0.95Q4.7 1.85 1.65 1.55Q-1.75 1.2 -4.75 -0.65L-2.8 -3.4Q-0.6 -1.65 2.3 -1.3Q4.95 -1 6.95 -1.95Q4.95 -1 2.3 -1.3Q-0.6 -1.65 -2.8 -3.4L-1.5 -5.1Q0 -3.85 2.9 -3.55L6.75 -4.25L6.95 -1.95L7 0.95L7 3.85L6.8 6.8L6.8 7Q3.4 9 -4.4 7.85Q-7.05 7.1 -8.3 5.7L-7.8 4.7L-6.45 2.15L-4.75 -0.65M-6.45 2.15Q-3.95 4.2 -0.05 4.8Q3.85 5.35 7 3.85Q3.85 5.35 -0.05 4.8Q-3.95 4.2 -6.45 2.15M6.8 6.8Q2.85 8.5 -1 7.95Q-4.9 7.35 -7.8 4.7Q-4.9 7.35 -1 7.95Q2.85 8.5 6.8 6.8" />
<path style="fill:#FFF1EB;fill-opacity:1" d="M6.8 6.8L7 3.85L7 0.95L6.95 -1.95L6.75 -4.25Q7.5 -4.5 8 -4.9Q10.1 -3.9 9.35 2.95Q9.05 5.7 6.8 7L6.8 6.8M-2.8 -3.4L-4.75 -0.65L-6.45 2.15L-7.8 4.7L-8.3 5.7Q-10.2 3.55 -8.8 -0.1L-7.8 -1.5L-5.95 -3.85L-2.75 -7Q-2.4 -5.9 -1.5 -5.1L-2.8 -3.4" />
<path style="fill:#F5D2E0;fill-opacity:1" d="M2.9 -3.55Q0 -3.85 -1.5 -5.1Q-2.4 -5.9 -2.75 -7L1.1 -8.6Q5.25 -10.1 6.45 -8.1Q7.45 -8.5 8.5 -6.15Q9.6 -3.85 9.65 -2.1L9.8 3.55Q9.95 6.9 6.6 8.45L6.8 7Q9.05 5.7 9.35 2.95Q10.1 -3.9 8 -4.9Q7.5 -4.5 6.75 -4.25L2.9 -3.55M-10.45 3.45Q-10 1.45 -8.8 -0.1Q-10.2 3.55 -8.3 5.7L-8.85 6.9Q-10.85 5.2 -10.45 3.45" />
<path style="fill:#EAC1C8;fill-opacity:1" d="M5.45 8.9Q0.95 10.3 -2.5 9.7Q-5.95 9.1 -8.4 7.25L-8.85 6.9L-8.3 5.7Q-7.05 7.1 -4.4 7.85Q3.4 9 6.8 7L6.6 8.45L5.45 8.9" />
<path style="fill:none;stroke-width:0.7;stroke-linecap:round;stroke-linejoin:miter;stroke-miterlimit:5;stroke:#000000;stroke-opacity:0.4" d="M6.6 8.45Q9.95 6.9 9.8 3.55L9.65 -2.1Q9.6 -3.85 8.5 -6.15Q7.45 -8.5 6.45 -8.1" />
<path style="fill:none;stroke-width:0.7;stroke-linecap:round;stroke-linejoin:miter;stroke-miterlimit:5;stroke:#000000;stroke-opacity:0.4" d="M1.1 -8.6L-2.75 -7" />
<path style="fill:none;stroke-width:0.7;stroke-linecap:round;stroke-linejoin:miter;stroke-miterlimit:5;stroke:#000000;stroke-opacity:0.4" d="M-8.85 6.9L-8.4 7.25Q-5.95 9.1 -2.5 9.7Q0.95 10.3 5.45 8.9L6.6 8.45" />
<path style="fill:none;stroke-width:0.7;stroke-linecap:round;stroke-linejoin:miter;stroke-miterlimit:5;stroke:#330C16;stroke-opacity:0.2" d="M6.95 -1.95Q4.95 -1 2.3 -1.3Q-0.6 -1.65 -2.8 -3.4" />
<path style="fill:none;stroke-width:0.7;stroke-linecap:round;stroke-linejoin:miter;stroke-miterlimit:5;stroke:#330C16;stroke-opacity:0.2" d="M-4.75 -0.65Q-1.75 1.2 1.65 1.55Q4.7 1.85 7 0.95" />
<path style="fill:none;stroke-width:0.7;stroke-linecap:round;stroke-linejoin:miter;stroke-miterlimit:5;stroke:#000000;stroke-opacity:0.4" d="M-2.75 -7L-5.95 -3.85L-7.8 -1.5L-8.8 -0.1" />
<path style="fill:none;stroke-width:0.7;stroke-linecap:round;stroke-linejoin:miter;stroke-miterlimit:5;stroke:#330C16;stroke-opacity:0.2" d="M7 3.85Q3.85 5.35 -0.05 4.8Q-3.95 4.2 -6.45 2.15" />
<path style="fill:none;stroke-width:0.7;stroke-linecap:round;stroke-linejoin:miter;stroke-miterlimit:5;stroke:#330C16;stroke-opacity:0.2" d="M-7.8 4.7Q-4.9 7.35 -1 7.95Q2.85 8.5 6.8 6.8" />
<path style="fill:none;stroke-width:0.7;stroke-linecap:round;stroke-linejoin:miter;stroke-miterlimit:5;stroke:#000000;stroke-opacity:0.4" d="M-8.8 -0.1Q-10 1.45 -10.45 3.45Q-10.85 5.2 -8.85 6.9" />
</g>
</svg>
