<?xml version="1.0" encoding="utf-8"?>
<svg version="1.1" id="Layer_1"
xmlns="http://www.w3.org/2000/svg"
xmlns:xlink="http://www.w3.org/1999/xlink"
width="9px" height="8px"
xml:space="preserve">
<g id="PathID_149" transform="matrix(1, 0, 0, 1, 3.9, 3.8)">
<path style="fill:#FFEA8F;fill-opacity:1" d="M0.7 2.85L-1.55 1.45Q-3.2 0.45 -3.5 -0.15L-3.75 -0.85Q-4.1 -2.25 -3.45 -3.1Q-2.15 -4 -0.85 -3.7Q0.7 -3.35 1.55 -2.3L1.85 -2Q0.75 -0.15 0.7 2.85" />
<path style="fill:#3D3730;fill-opacity:1" d="M0.7 2.85Q0.75 -0.15 1.85 -2L2.55 -1.15L2.9 -1.3L3.1 -1.55Q3.1 -2.4 3.5 -2.1L4.05 -1.6L4.1 -1.25L4.15 -1.15Q3.45 -2 3.1 -1.55L4.25 0Q3.3 -0.3 2.75 1.1L4.25 0.8Q3.95 2.8 3.4 3.35L2.75 3.75Q2.1 3.9 1.35 3.3L0.7 2.85M3.1 -1.55Q3.45 -2 4.15 -1.15M3.1 -1.55L2.9 -1.3M2.75 1.1Q3.3 -0.3 4.25 0" />
<path style="fill:none;stroke-width:0.7;stroke-linecap:round;stroke-linejoin:round;stroke-miterlimit:3;stroke:#000000;stroke-opacity:0.4" d="M-3.75 -0.85L-3.5 -0.15Q-3.2 0.45 -1.55 1.45L0.7 2.85" />
<path style="fill:none;stroke-width:0.7;stroke-linecap:round;stroke-linejoin:round;stroke-miterlimit:3;stroke:#000000;stroke-opacity:0.4" d="M2.55 -1.15L2.9 -1.3Q3.1 -2.4 3.5 -2.1L4.05 -1.6L4.1 -1.25" />
<path style="fill:none;stroke-width:0.7;stroke-linecap:round;stroke-linejoin:round;stroke-miterlimit:3;stroke:#000000;stroke-opacity:0.4" d="M4.15 -1.15L4.25 0L4.25 0.8Q3.95 2.8 3.4 3.35L2.75 3.75Q2.1 3.9 1.35 3.3L0.7 2.85" />
<path style="fill:none;stroke-width:0.7;stroke-linecap:round;stroke-linejoin:round;stroke-miterlimit:3;stroke:#000000;stroke-opacity:0.4" d="M4.15 -1.15Q3.45 -2 3.1 -1.55L2.9 -1.3" />
<path style="fill:none;stroke-width:0.7;stroke-linecap:round;stroke-linejoin:round;stroke-miterlimit:3;stroke:#000000;stroke-opacity:0.4" d="M2.75 1.1Q3.3 -0.3 4.25 0" />
</g>
</svg>
