<?xml version="1.0" encoding="utf-8"?>
<svg version="1.1" id="Layer_1"
xmlns="http://www.w3.org/2000/svg"
xmlns:xlink="http://www.w3.org/1999/xlink"
width="14px" height="14px"
xml:space="preserve">
<g id="PathID_156" transform="matrix(1, 0, 0, 1, 7, 6.8)">
<path style="fill:#F1C272;fill-opacity:1" d="M-6.6 1.25Q-7.2 -0.9 -6.2 -3.2Q-5.2 -5.55 -2.55 -6.5Q-0.35 -7.05 1.7 -6.5Q3.7 -5.95 5 -4.35Q5.85 -3.6 6.4 -1.95L6.85 0.4L6.85 0.45Q-1.45 3.55 -6.6 1.25" />
<path style="fill:#302B25;fill-opacity:1" d="M6.85 0.45Q6.85 1.95 5.95 3.6Q4.6 6.25 1.7 6.75L0.05 6.85Q-3.9 6.4 -5.6 3.95Q-6.2 3.1 -6.6 1.25Q-1.45 3.55 6.85 0.45" />
<path style="fill:none;stroke-width:0.7;stroke-linecap:round;stroke-linejoin:miter;stroke-miterlimit:5;stroke:#000000;stroke-opacity:0.4" d="M5 -4.35Q5.85 -3.6 6.4 -1.95L6.85 0.4L6.85 0.45Q6.85 1.95 5.95 3.6Q4.6 6.25 1.7 6.75L0.05 6.85Q-3.9 6.4 -5.6 3.95Q-6.2 3.1 -6.6 1.25Q-7.2 -0.9 -6.2 -3.2Q-5.2 -5.55 -2.55 -6.5" />
</g>
</svg>
