<?xml version="1.0" encoding="utf-8"?>
<svg version="1.1" id="Layer_1"
xmlns="http://www.w3.org/2000/svg"
xmlns:xlink="http://www.w3.org/1999/xlink"
width="18px" height="14px"
xml:space="preserve">
<g id="PathID_648" transform="matrix(1, 0, 0, 1, 7.4, 6.9)">
<path style="fill:#D5A8EA;fill-opacity:1" d="M-6.4 -3.3L-6.05 -3.95L-4.6 -5.5L-2.75 -6.6L-0.15 -6.9Q1.5 -6.8 2.85 -6.05L4.65 -4.65L5.4 -3.75L6 -2.65L6.75 -0.35Q7.25 1.4 6.9 3.15L6.85 3.5L3.4 3.8L-1.55 3.5Q-4.55 2.35 -5.6 1.35Q-6.05 0.9 -6.4 -1.4L-6.4 -3.3" />
<path style="fill:#B982D2;fill-opacity:1" d="M-6.4 -1.4Q-6.05 0.9 -5.6 1.35Q-4.55 2.35 -1.55 3.5L3.4 3.8L6.85 3.5L8.1 4.8L10.5 6.55Q3.55 6.8 1 6.5L-3.85 5.6Q-6.15 5.1 -6.8 3.65L-7.1 2.65L-7.25 0.9L-7.2 0.1Q-7 -2.05 -6.4 -3.3L-6.4 -1.4" />
<path style="fill:none;stroke-width:0.7;stroke-linecap:round;stroke-linejoin:miter;stroke-miterlimit:5;stroke:#000000;stroke-opacity:0.4" d="M1 6.5L-3.85 5.6Q-6.15 5.1 -6.8 3.65L-7.1 2.65L-7.25 0.9L-7.2 0.1Q-7 -2.05 -6.4 -3.3L-6.05 -3.95L-4.6 -5.5L-2.75 -6.6" />
</g>
<g id="PathID_649" transform="matrix(1, 0, 0, 1, 7.4, 6.9)">
<path style="fill:#7447A3;fill-opacity:1" d="M-6.15 -0.1Q-6.8 -0.25 -6.9 -0.75Q-7.05 -1.3 -6.4 -1.55L-6.15 -0.1M-7.25 0.75Q-6.7 0.6 -6.5 1.45Q-6.55 2.35 -7.1 2.5L-7.25 0.75" />
<path style="fill:#995DD7;fill-opacity:1" d="M-6.15 -0.1L-6.4 -1.55L-5.95 -1.65Q-5.05 -3.05 -3.7 -0.75Q-3.05 -0.65 -3.5 0.2L-4.15 0.3Q-4.25 0.8 -4.95 1.05Q-5.6 1.2 -6.15 -0.1M-5.55 -3.6Q-5.7 -4.05 -5.05 -4.5Q-4.55 -6.05 -3.2 -5.25L-2.5 -5.45Q-1.85 -5.4 -1.9 -4.8L-2.05 -4.45Q-1.65 -4.05 -1.75 -3.7L-2.15 -3.2Q-2.8 -2.55 -3.9 -3.4Q-4.65 -2.7 -5.3 -3.25L-5.55 -3.6M-2.4 -0.3Q-3.1 -0.85 -2.9 -1.55Q-2.75 -2.3 -2 -2.65L-1.05 -2.55L-0.7 -2Q-0.6 -1.75 -1.05 -0.8L-1.4 -0.25L-2.4 -0.3" />
</g>
</svg>
