<?xml version="1.0" encoding="utf-8"?>
<svg version="1.1" id="Layer_1"
xmlns="http://www.w3.org/2000/svg"
xmlns:xlink="http://www.w3.org/1999/xlink"
width="10px" height="4px"
xml:space="preserve">
<g id="PathID_18" transform="matrix(1, 0, 0, 1, 4.6, 1.9)">
<path style="fill:#83291A;fill-opacity:1" d="M2.85 1.35L2.75 1.7L1.95 1.9L-0.65 1.55L-1.75 1.2Q-1.8 -0.85 -0.1 -1.75L0.25 -1.65L3.35 -0.95L3.85 -0.65Q4.9 0 4.5 0.7L4.1 1.05Q4.55 0.2 3.65 -0.2Q3.9 -0.4 3.35 -0.95Q1.2 -0.45 0.55 0.8Q0.85 1.65 2.85 1.35Q2.85 0.65 1.5 0.35Q2.85 0.3 3.25 0.65Q3.55 1.1 3.2 1.65L2.75 1.7L2.85 1.35" />
<path style="fill:#973B21;fill-opacity:1" d="M4.1 1.05Q4.1 1.45 3.2 1.65Q3.55 1.1 3.25 0.65Q2.85 0.3 1.5 0.35Q2.85 0.65 2.85 1.35Q0.85 1.65 0.55 0.8Q1.2 -0.45 3.35 -0.95Q3.9 -0.4 3.65 -0.2L2.85 -0.5Q4.55 0.2 4.1 1.05M2.85 -0.5L3.65 -0.2M-1.75 1.2L-3 0.65Q-3.75 0.3 -4.5 0.1Q-4.75 -0.45 -4.45 -0.95Q-4.15 -1.55 -2.55 -1.8L-0.1 -1.75Q-1.8 -0.85 -1.75 1.2" />
<path style="fill:none;stroke-width:0.7;stroke-linecap:round;stroke-linejoin:round;stroke-miterlimit:3;stroke:#000000;stroke-opacity:0.301961" d="M2.85 1.35Q2.85 0.65 1.5 0.35" />
<path style="fill:none;stroke-width:0.7;stroke-linecap:round;stroke-linejoin:round;stroke-miterlimit:3;stroke:#000000;stroke-opacity:0.301961" d="M3.2 1.65Q4.1 1.45 4.1 1.05Q4.55 0.2 3.65 -0.2L2.85 -0.5" />
<path style="fill:none;stroke-width:0.7;stroke-linecap:round;stroke-linejoin:round;stroke-miterlimit:3;stroke:#000000;stroke-opacity:0.301961" d="M-0.1 -1.75L0.25 -1.65L3.35 -0.95L3.85 -0.65Q4.9 0 4.5 0.7L4.1 1.05" />
<path style="fill:none;stroke-width:0.7;stroke-linecap:round;stroke-linejoin:round;stroke-miterlimit:3;stroke:#000000;stroke-opacity:0.301961" d="M2.75 1.7L3.2 1.65" />
<path style="fill:none;stroke-width:0.7;stroke-linecap:round;stroke-linejoin:round;stroke-miterlimit:3;stroke:#000000;stroke-opacity:0.301961" d="M2.75 1.7L2.85 1.35" />
<path style="fill:none;stroke-width:0.7;stroke-linecap:round;stroke-linejoin:round;stroke-miterlimit:3;stroke:#000000;stroke-opacity:0.301961" d="M2.75 1.7L1.95 1.9L-0.65 1.55L-1.75 1.2L-3 0.65Q-3.75 0.3 -4.5 0.1Q-4.75 -0.45 -4.45 -0.95Q-4.15 -1.55 -2.55 -1.8L-0.1 -1.75" />
</g>
</svg>
