<?xml version="1.0" encoding="utf-8"?>
<svg version="1.1" id="Layer_1"
xmlns="http://www.w3.org/2000/svg"
xmlns:xlink="http://www.w3.org/1999/xlink"
width="6px" height="5px"
xml:space="preserve">
<g id="PathID_983" transform="matrix(1, 0, 0, 1, 2.8, 2.2)">
<path style="fill:#F5EAE3;fill-opacity:1" d="M1.55 -1.55Q2.2 -0.9 2.2 0Q2.2 0.85 1.55 1.5Q0.9 2.15 0 2.15Q-0.9 2.15 -1.55 1.5Q-2.15 0.85 -2.15 0Q-2.15 -0.9 -1.55 -1.55Q-0.9 -2.2 0 -2.2Q0.9 -2.2 1.55 -1.55" />
</g>
<g id="PathID_984" transform="matrix(1, 0, 0, 1, 2.8, 2.2)">
<path style="fill:#202020;fill-opacity:1" d="M-2.55 -0.4Q-1.15 -1.7 0.05 -1.65Q1.85 -1.65 2.85 1.05Q1.35 -1.1 -0.65 -1.1Q-1.6 -1.1 -2.55 -0.4" />
<path style="fill:none;stroke-width:0.7;stroke-linecap:round;stroke-linejoin:miter;stroke-miterlimit:3;stroke:#202020;stroke-opacity:1" d="M-2.55 -0.4Q-1.15 -1.7 0.05 -1.65Q1.85 -1.65 2.85 1.05Q1.35 -1.1 -0.65 -1.1Q-1.6 -1.1 -2.55 -0.4z" />
</g>
</svg>
