<?xml version="1.0" encoding="utf-8"?>
<svg version="1.1" id="Layer_1"
xmlns="http://www.w3.org/2000/svg"
xmlns:xlink="http://www.w3.org/1999/xlink"
width="19px" height="21px"
xml:space="preserve">
<g id="PathID_888" transform="matrix(1, 0, 0, 1, 9.5, 10.2)">
<path style="fill:#79FFD0;fill-opacity:1" d="M1 -4.4Q-0.7 -7.05 -3.45 -7.95Q-3.55 -8.85 -4.35 -10.05Q-1.95 -9.85 -0.45 -8.65L0.2 -9.2L2.25 -9.7L5.2 -9.8Q2.2 -6.1 3.1 -3.05Q-2.7 2.9 -2.85 6.95Q-6.2 6.15 -7.5 4.15Q-8.1 3.2 -8.1 0.55L-7.85 -2.2L-7.45 -2.6L-4.9 -3.1L-0.7 -2.85Q-1.85 -4.9 -4.45 -5.2L-3.8 -5.75Q-1.65 -5.85 1 -4.4" />
<path style="fill:#B8C6C7;fill-opacity:1" d="M-2.85 6.95Q2.2 7.2 4.35 5.75Q6.2 4.5 7.05 0.3Q8.05 -4.4 6.7 -9.2L7.95 -7.55Q9.05 -5.8 9.3 -4L9.1 0.35Q8.8 4.4 8.25 5.8Q7.7 7.3 5.45 8.7Q3.35 10 0.55 10.15L-2.05 10Q-2.95 8.65 -2.85 6.95" />
<path style="fill:#FFFFFF;fill-opacity:1" d="M7.05 0.3Q6.2 4.5 4.35 5.75Q2.2 7.2 -2.85 6.95Q-2.7 2.9 3.1 -3.05Q2.2 -6.1 5.2 -9.8L6.7 -9.2Q8.05 -4.4 7.05 0.3" />
<path style="fill:#DAFFD7;fill-opacity:1" d="M-7.45 -2.6L-4.45 -5.2Q-1.85 -4.9 -0.7 -2.85L-4.9 -3.1L-7.45 -2.6M-3.8 -5.75L-3.3 -6.15Q-4.4 -6.35 -5.4 -7.15L-3.45 -7.95Q-0.7 -7.05 1 -4.4Q-1.65 -5.85 -3.8 -5.75" />
<path style="fill:#48A58B;fill-opacity:1" d="M-2.05 10Q-8.15 7.7 -9.15 4.1Q-9.65 2.35 -8.85 0L-7.85 -2.2L-8.1 0.55Q-8.1 3.2 -7.5 4.15Q-6.2 6.15 -2.85 6.95Q-2.95 8.65 -2.05 10" />
<path style="fill:none;stroke-width:0.7;stroke-linecap:round;stroke-linejoin:miter;stroke-miterlimit:5;stroke:#000000;stroke-opacity:0.4" d="M6.7 -9.2L7.95 -7.55Q9.05 -5.8 9.3 -4L9.1 0.35Q8.8 4.4 8.25 5.8Q7.7 7.3 5.45 8.7Q3.35 10 0.55 10.15L-2.05 10Q-8.15 7.7 -9.15 4.1Q-9.65 2.35 -8.85 0L-7.85 -2.2L-7.45 -2.6L-4.45 -5.2L-3.8 -5.75L-3.3 -6.15Q-4.4 -6.35 -5.4 -7.15L-3.45 -7.95Q-3.55 -8.85 -4.35 -10.05Q-1.95 -9.85 -0.45 -8.65L0.2 -9.2" />
</g>
</svg>
