<?xml version="1.0" encoding="utf-8"?>
<svg version="1.1" id="Layer_1"
xmlns="http://www.w3.org/2000/svg"
xmlns:xlink="http://www.w3.org/1999/xlink"
width="4px" height="16px"
xml:space="preserve">
<g id="PathID_386" transform="matrix(1, 0, 0, 1, 2.2, 7.25)">
<path style="fill:#BE4723;fill-opacity:1" d="M-1.55 -3.15L-1.3 -4.95Q-0.9 -7.25 -0.35 -7.25Q0.2 -7.25 0.6 -4.95L0.85 -3.05L-1.55 -3.15M-2 3.45L-2 3.4L-2.2 1.45L-2.05 0.5L1 0.4L1 0.6L0.9 3.15Q-0.65 2 -2 3.45" />
<path style="fill:#D8892A;fill-opacity:1" d="M-2.05 0.5L-1.55 -3.15L0.85 -3.05L1 0.4L-2.05 0.5M0.9 3.15L0.75 5.4L0.05 8.2L-0.35 8.45L-0.95 7.55L-1.35 6.45L-2 3.45Q-0.65 2 0.9 3.15" />
<path style="fill:none;stroke-width:0.7;stroke-linecap:round;stroke-linejoin:round;stroke-miterlimit:3;stroke:#000000;stroke-opacity:0.301961" d="M-1.55 -3.15L-1.3 -4.95Q-0.9 -7.25 -0.35 -7.25Q0.2 -7.25 0.6 -4.95L0.85 -3.05L1 0.4L1 0.6L0.9 3.15L0.75 5.4L0.05 8.2L-0.35 8.45L-0.95 7.55L-1.35 6.45L-2 3.45L-2 3.4L-2.2 1.45L-2.05 0.5L-1.55 -3.15z" />
</g>
</svg>
