<?xml version="1.0" encoding="utf-8"?>
<svg version="1.1" id="Layer_1"
xmlns="http://www.w3.org/2000/svg"
xmlns:xlink="http://www.w3.org/1999/xlink"
width="9px" height="8px"
xml:space="preserve">
<g id="PathID_442" transform="matrix(1, 0, 0, 1, 3.95, 3.8)">
<linearGradient
id="LinearGradID_137" gradientUnits="userSpaceOnUse" gradientTransform="matrix(0.0043335, 0, 0, 0.00305176, 2.3, -0.95)" spreadMethod ="pad" x1="-819.2" y1="0" x2="819.2" y2="0" >
<stop  offset="0" style="stop-color:#AFDC1B;stop-opacity:1" />
<stop  offset="1" style="stop-color:#67A916;stop-opacity:1" />
</linearGradient>
<path style="fill:url(#LinearGradID_137) " d="M-0.1 0.75Q-2.85 0.4 -3.7 -0.6L-3.8 -0.85Q-4.15 -2.25 -3.5 -3.1Q-2.2 -4 -0.9 -3.7Q0.65 -3.35 2 -1.95L2.3 -1.65L2.8 -1.1L3.1 -0.75Q1.35 0.05 0.45 1.2L-0.1 0.75" />
<path style="fill:#E6F9AC;fill-opacity:1" d="M1 1.65Q1.95 0.55 3.55 -0.15L3.6 -0.1Q4.05 0.5 4.2 2.1Q4.55 2.6 3.5 3.25Q3.25 2.2 2.3 1.6L3.4 3.55Q3.25 3.75 2.7 3.75Q2.15 2.7 1 1.65M3.45 0.9L4.2 2.1L3.45 0.9M2.3 1.6Q3.25 2.2 3.5 3.25" />
<path style="fill:#67A916;fill-opacity:1" d="M1 1.65L0.45 1.2Q1.35 0.05 3.1 -0.75L3.55 -0.15Q1.95 0.55 1 1.65" />
<path style="fill:#31580B;fill-opacity:1" d="M0.35 2.65L-0.25 2.25L0.45 1.2L1 1.65Q0.6 2.1 0.35 2.65" />
<path style="fill:#758056;fill-opacity:1" d="M2.7 3.75Q2.05 3.9 1.3 3.3L0.35 2.65Q0.6 2.1 1 1.65Q2.15 2.7 2.7 3.75" />
<path style="fill:#536D00;fill-opacity:1" d="M-0.25 2.25L-1.6 1.45Q-3.25 0.45 -3.55 -0.15L-3.7 -0.6Q-2.85 0.4 -0.1 0.75L0.45 1.2L-0.25 2.25" />
<path style="fill:none;stroke-width:0.7;stroke-linecap:round;stroke-linejoin:miter;stroke-miterlimit:5;stroke:#000000;stroke-opacity:0.4" d="M3.55 -0.15L3.1 -0.75" />
<path style="fill:none;stroke-width:0.7;stroke-linecap:round;stroke-linejoin:miter;stroke-miterlimit:5;stroke:#000000;stroke-opacity:0.4" d="M3.55 -0.15L3.6 -0.1Q4.05 0.5 4.2 2.1Q4.55 2.6 3.5 3.25L3.4 3.55Q3.25 3.75 2.7 3.75Q2.05 3.9 1.3 3.3L0.35 2.65L-0.25 2.25L-1.6 1.45Q-3.25 0.45 -3.55 -0.15L-3.7 -0.6L-3.8 -0.85" />
<path style="fill:none;stroke-width:0.7;stroke-linecap:round;stroke-linejoin:miter;stroke-miterlimit:5;stroke:#000000;stroke-opacity:0.4" d="M2.3 -1.65L2.8 -1.1L3.1 -0.75" />
<path style="fill:none;stroke-width:0.7;stroke-linecap:round;stroke-linejoin:miter;stroke-miterlimit:5;stroke:#000000;stroke-opacity:0.4" d="M4.2 2.1L3.45 0.9" />
<path style="fill:none;stroke-width:0.7;stroke-linecap:round;stroke-linejoin:miter;stroke-miterlimit:5;stroke:#000000;stroke-opacity:0.4" d="M3.5 3.25Q3.25 2.2 2.3 1.6" />
</g>
</svg>
