<?xml version="1.0" encoding="utf-8"?>
<svg version="1.1" id="Layer_1"
xmlns="http://www.w3.org/2000/svg"
xmlns:xlink="http://www.w3.org/1999/xlink"
width="14px" height="14px"
xml:space="preserve">
<g id="PathID_915" transform="matrix(1, 0, 0, 1, 6.95, 6.7)">
<path style="fill:#1B6D38;fill-opacity:1" d="M-2.55 -6.4L0.05 -6.7L1.7 -6.4Q3.05 -6.05 4.15 -5.1L5 -4.25L6.25 -2.4Q6.85 -1.05 6.85 0.5Q6.85 1.8 6.45 2.9Q5.95 4.2 4.85 5.25L4.15 5.85Q3.05 6.6 1.7 6.85L0.05 6.95Q-2.8 6.8 -4.8 4.65L-5.7 3.45L-6.2 2.6Q-6.8 1.25 -6.8 -0.3Q-6.8 -1.85 -6.2 -3.1Q-5.7 -4.15 -4.8 -5Q-3.8 -5.95 -2.55 -6.4" />
<path style="fill:none;stroke-width:0.7;stroke-linecap:round;stroke-linejoin:miter;stroke-miterlimit:5;stroke:#000000;stroke-opacity:0.4" d="M5 -4.25L6.25 -2.4Q6.85 -1.05 6.85 0.5Q6.85 1.8 6.45 2.9Q5.95 4.2 4.85 5.25L4.15 5.85Q3.05 6.6 1.7 6.85L0.05 6.95Q-2.8 6.8 -4.8 4.65L-5.7 3.45L-6.2 2.6Q-6.8 1.25 -6.8 -0.3Q-6.8 -1.85 -6.2 -3.1Q-5.7 -4.15 -4.8 -5Q-3.8 -5.95 -2.55 -6.4" />
</g>
</svg>
