<?xml version="1.0" encoding="utf-8"?>
<svg version="1.1" id="Layer_1"
xmlns="http://www.w3.org/2000/svg"
xmlns:xlink="http://www.w3.org/1999/xlink"
width="11px" height="8px"
xml:space="preserve">
<g id="PathID_286" transform="matrix(1, 0, 0, 1, 3.85, 4.15)">
<path style="fill:#386F68;fill-opacity:1" d="M5.05 2.45Q4.25 1 2.4 1.85Q4.25 1 5.05 2.45L3.55 3.1L1 2.95L-0.15 2.1Q-0.55 1.25 0.65 -0.15Q1.8 -1.55 2.25 -1L2.35 -0.8L2.75 -0.4L3.4 0.15L4 0.45Q7.1 0.4 5.8 1.75L5.05 2.45M5.8 1.75L5.75 1.3Q5.65 0.9 4.85 0.75L4 0.45L4.85 0.75Q5.65 0.9 5.75 1.3L5.8 1.75" />
<path style="fill:#248A97;fill-opacity:1" d="M-1.45 1.25L-3.1 -0.15L-3.7 -1.1Q-4.1 -2.7 -3.2 -3.55Q-2.4 -4.4 -0.8 -4Q0.75 -3.6 1.35 -2.6L2.25 -1Q1.8 -1.55 0.65 -0.15Q-0.55 1.25 -0.15 2.1L-1.45 1.25" />
<path style="fill:none;stroke-width:0.7;stroke-linecap:round;stroke-linejoin:round;stroke-miterlimit:3;stroke:#000000;stroke-opacity:0.4" d="M-3.7 -1.1L-3.1 -0.15L-1.45 1.25L-0.15 2.1L1 2.95L3.55 3.1L5.05 2.45Q4.25 1 2.4 1.85" />
<path style="fill:none;stroke-width:0.7;stroke-linecap:round;stroke-linejoin:round;stroke-miterlimit:3;stroke:#000000;stroke-opacity:0.4" d="M2.35 -0.8L2.75 -0.4L3.4 0.15L4 0.45Q7.1 0.4 5.8 1.75L5.05 2.45" />
<path style="fill:none;stroke-width:0.7;stroke-linecap:round;stroke-linejoin:round;stroke-miterlimit:3;stroke:#000000;stroke-opacity:0.4" d="M4 0.45L4.85 0.75Q5.65 0.9 5.75 1.3L5.8 1.75" />
</g>
</svg>
