<?xml version="1.0" encoding="utf-8"?>
<svg version="1.1" id="Layer_1"
xmlns="http://www.w3.org/2000/svg"
xmlns:xlink="http://www.w3.org/1999/xlink"
width="17px" height="18px"
xml:space="preserve">
<g id="PathID_259" transform="matrix(1, 0, 0, 1, 8.9, 9.5)">
<path style="fill:#C877A4;fill-opacity:1" d="M-0.75 -2.4L0.8 -3.25L4.25 -3.9L0.8 -3.25L-0.75 -2.4Q1 -3.9 -0.2 -4.6Q-3.7 -6.95 -6.9 -3.75L-4.7 -5.55Q-2.1 -7.15 0.8 -6.05L1.4 -5.75L4.25 -3.9Q5.35 -2.5 5.55 -1.3Q5.7 -0.45 5.3 0.3Q4.45 1.9 4.6 2.85Q3.8 1.5 4.4 0.5Q5 -1 3 -2.3L1.35 -2.5Q-0.9 -2.05 -2.4 -0.35L-1.5 -1.7L-0.9 -2.25L-0.8 -2.35L-0.75 -2.4" />
<radialGradient
id="RadialGradID_60" gradientUnits="userSpaceOnUse" gradientTransform="matrix(0.00886536, 0, 0, 0.00886536, -5.4, 0)" spreadMethod ="pad" cx="0" cy="0" r="819.2" fx="0" fy="0" >
<stop  offset="0.372549"  style="stop-color:#FFC8EB;stop-opacity:1" />
<stop  offset="1"  style="stop-color:#FF97D9;stop-opacity:1" />
</radialGradient>
<path style="fill:url(#RadialGradID_60) " d="M-0.8 -2.35L-0.9 -2.25L-1.5 -1.7L-2.4 -0.35Q-3 0.8 -3.15 2.4L-3.15 4.25L-3.15 2.4Q-3 0.8 -2.4 -0.35Q-0.9 -2.05 1.35 -2.5L3 -2.3Q5 -1 4.4 0.5Q3.8 1.5 4.6 2.85Q4.7 3.65 5.5 4.15L6.25 4.7L6.25 4.75L3.6 4.35L3.75 4.55L5 5.95L3.65 5.45L4.4 6.45Q3.25 7.2 2 7.55L-0.25 7.85L-2.45 7.55L-1.25 4.25L-3.8 7.05Q-5 6.5 -6.05 5.5Q-8.5 3.35 -8.65 0.3L-8.6 0.2L-8.55 0.1Q-8.25 -1.75 -7 -3.65L-6.9 -3.75Q-3.7 -6.95 -0.2 -4.6Q1 -3.9 -0.75 -2.4L-0.8 -2.35" />
<path style="fill:#694D33;fill-opacity:1" d="M-8.65 0.3L-8.65 0.2L-8.65 0.05L-8.55 0.1L-8.6 0.2L-8.65 0.3" />
<path style="fill:none;stroke-width:0.7;stroke-linecap:round;stroke-linejoin:miter;stroke-miterlimit:5;stroke:#000000;stroke-opacity:0.301961" d="M2 7.55L-0.25 7.85L-2.45 7.55L-1.25 4.25L-3.8 7.05Q-5 6.5 -6.05 5.5Q-8.5 3.35 -8.65 0.3L-8.65 0.2L-8.65 0.05" />
<path style="fill:none;stroke-width:0.7;stroke-linecap:round;stroke-linejoin:miter;stroke-miterlimit:5;stroke:#000000;stroke-opacity:0.2" d="M-0.75 -2.4L0.8 -3.25L4.25 -3.9" />
<path style="fill:none;stroke-width:0.7;stroke-linecap:round;stroke-linejoin:miter;stroke-miterlimit:5;stroke:#000000;stroke-opacity:0.2" d="M-2.4 -0.35Q-3 0.8 -3.15 2.4L-3.15 4.25" />
<path style="fill:none;stroke-width:0.7;stroke-linecap:round;stroke-linejoin:miter;stroke-miterlimit:5;stroke:#000000;stroke-opacity:0.2" d="M-2.4 -0.35L-1.5 -1.7L-0.9 -2.25" />
<path style="fill:none;stroke-width:0.7;stroke-linecap:round;stroke-linejoin:miter;stroke-miterlimit:5;stroke:#000000;stroke-opacity:0.2" d="M-0.8 -2.35L-0.75 -2.4" />
</g>
<g id="PathID_260" transform="matrix(1, 0, 0, 1, 8.9, 9.5)">
<radialGradient
id="RadialGradID_61" gradientUnits="userSpaceOnUse" gradientTransform="matrix(0.00601196, -0.0117035, 0.00901794, 0.00460815, -1.75, -0.25)" spreadMethod ="pad" cx="0" cy="0" r="819.2" fx="0" fy="0" >
<stop  offset="0.458824"  style="stop-color:#DCBEFF;stop-opacity:1" />
<stop  offset="1"  style="stop-color:#F2D5FF;stop-opacity:1" />
</radialGradient>
<path style="fill:url(#RadialGradID_61) " d="M5.6 -7.05Q7.35 -4.45 7.55 -1.85L7.8 -0.05Q7.85 1.6 7.5 3.25L7 4.95L6.45 4.85L6.25 4.6L6.25 4.7L5.5 4.15Q4.7 3.65 4.6 2.85Q4.45 1.9 5.3 0.3Q5.7 -0.45 5.55 -1.3Q5.35 -2.5 4.25 -3.9L1.4 -5.75L0.8 -6.05Q-2.1 -7.15 -4.7 -5.55L-6.9 -3.75L-7 -3.65Q-8.25 -1.75 -8.55 0.1L-8.65 0.05Q-8.7 -1.5 -8.15 -2.85Q-7.65 -4.4 -6.4 -5.6L-6.25 -5.7L-5.75 -5.75L-6.25 -5.7Q-7.85 -5.75 -6.45 -7.15Q-4.75 -8.3 -1.45 -7.8L-1.35 -7.8L-1.4 -7.8Q-3.5 -8.9 -1.35 -9.25Q1.95 -8.95 3.45 -6.85L3.6 -6.75Q2.95 -9.85 5.6 -7.05" />
<path style="fill:#7E5C37;fill-opacity:1" d="M-1.4 -7.8L-1.35 -7.8L-1.45 -7.8L-1.4 -7.8" />
<path style="fill:none;stroke-width:0.7;stroke-linecap:round;stroke-linejoin:miter;stroke-miterlimit:5;stroke:#000000;stroke-opacity:0.301961" d="M3.45 -6.85Q1.95 -8.95 -1.35 -9.25Q-3.5 -8.9 -1.4 -7.8L-1.35 -7.8L-1.45 -7.8Q-4.75 -8.3 -6.45 -7.15Q-7.85 -5.75 -6.25 -5.7L-5.75 -5.75" />
<path style="fill:none;stroke-width:0.7;stroke-linecap:round;stroke-linejoin:miter;stroke-miterlimit:5;stroke:#000000;stroke-opacity:0.301961" d="M-4.7 -5.55Q-2.1 -7.15 0.8 -6.05L1.4 -5.75L4.25 -3.9Q5.35 -2.5 5.55 -1.3Q5.7 -0.45 5.3 0.3Q4.45 1.9 4.6 2.85Q4.7 3.65 5.5 4.15" />
<path style="fill:none;stroke-width:0.7;stroke-linecap:round;stroke-linejoin:miter;stroke-miterlimit:5;stroke:#000000;stroke-opacity:0.301961" d="M7 4.95L7.5 3.25Q7.85 1.6 7.8 -0.05L7.55 -1.85Q7.35 -4.45 5.6 -7.05Q2.95 -9.85 3.6 -6.75" />
<path style="fill:none;stroke-width:0.7;stroke-linecap:round;stroke-linejoin:miter;stroke-miterlimit:5;stroke:#000000;stroke-opacity:0.301961" d="M-1.4 -7.8L-1.45 -7.8" />
<path style="fill:none;stroke-width:0.7;stroke-linecap:round;stroke-linejoin:miter;stroke-miterlimit:5;stroke:#000000;stroke-opacity:0.301961" d="M-6.25 -5.7L-6.4 -5.6Q-7.65 -4.4 -8.15 -2.85Q-8.7 -1.5 -8.65 0.05" />
</g>
</svg>
