<?xml version="1.0" encoding="utf-8"?>
<svg version="1.1" id="Layer_1"
xmlns="http://www.w3.org/2000/svg"
xmlns:xlink="http://www.w3.org/1999/xlink"
width="20px" height="21px"
xml:space="preserve">
<g id="PathID_769" transform="matrix(1, 0, 0, 1, 9.6, 9.9)">
<path style="fill:#D4837B;fill-opacity:1" d="M7.4 -5.9L6.65 -9.2L7.85 -7.7Q8.8 -6.25 9 -5.2L9.1 -4.75Q8.25 -5.7 7.4 -5.9" />
<linearGradient
id="LinearGradID_182" gradientUnits="userSpaceOnUse" gradientTransform="matrix(-0.000289917, 0.00242615, -0.00392151, -0.000473022, 4.1, -5.1)" spreadMethod ="pad" x1="-819.2" y1="0" x2="819.2" y2="0" >
<stop  offset="0" style="stop-color:#FEBCA9;stop-opacity:1" />
<stop  offset="1" style="stop-color:#FEDEC2;stop-opacity:1" />
</linearGradient>
<path style="fill:url(#LinearGradID_182) " d="M-0.3 -8.75L0.15 -9.2L1.75 -9.6Q4.4 -10.15 5.9 -9.6L6.65 -9.2L7.4 -5.9Q5.7 -6.25 4 -3.4Q2.9 -6.85 -0.3 -8.75" />
<path style="fill:#ECCDCE;fill-opacity:1" d="M-0.85 7.3Q1.85 7.5 4.3 5.75Q6.1 4.5 7.05 1.3Q8 -2.1 7.4 -5.9Q8.25 -5.7 9.1 -4.75L9.25 -4L9.2 -1.6L8.6 4Q8.55 4.85 7.8 6.25Q6.8 8.1 5.4 8.7Q2.65 9.9 -0.45 10L-3.05 9.8L-0.85 7.3" />
<path style="fill:#FFFFFF;fill-opacity:1" d="M4 -3.4Q5.7 -6.25 7.4 -5.9Q8 -2.1 7.05 1.3Q6.1 4.5 4.3 5.75Q1.85 7.5 -0.85 7.3L0.85 4.65Q2.4 -0.75 4 -3.4" />
<path style="fill:#FEDEC2;fill-opacity:1" d="M4 -3.4Q2.4 -0.75 0.85 4.65L-0.85 7.3L-2.05 7.15Q-6.1 6.4 -7.55 4.15Q-8.15 3.2 -8.15 0.55L-7.9 -2.2L-0.3 -8.75Q2.9 -6.85 4 -3.4" />
<path style="fill:#DCB69A;fill-opacity:1" d="M-0.85 7.3L-3.05 9.8Q-4.75 9.45 -6.4 8.25Q-9.7 5.9 -9.45 1.85Q-9.35 0.4 -8.65 -0.95L-7.9 -2.2L-8.15 0.55Q-8.15 3.2 -7.55 4.15Q-6.1 6.4 -2.05 7.15L-0.85 7.3" />
<path style="fill:none;stroke-width:0.7;stroke-linecap:round;stroke-linejoin:miter;stroke-miterlimit:5;stroke:#000000;stroke-opacity:0.4" d="M9.1 -4.75L9 -5.2Q8.8 -6.25 7.85 -7.7L6.65 -9.2" />
<path style="fill:none;stroke-width:0.7;stroke-linecap:round;stroke-linejoin:miter;stroke-miterlimit:5;stroke:#000000;stroke-opacity:0.4" d="M9.1 -4.75L9.25 -4L9.2 -1.6L8.6 4Q8.55 4.85 7.8 6.25Q6.8 8.1 5.4 8.7Q2.65 9.9 -0.45 10L-3.05 9.8Q-4.75 9.45 -6.4 8.25Q-9.7 5.9 -9.45 1.85Q-9.35 0.4 -8.65 -0.95L-7.9 -2.2L-0.3 -8.75L0.15 -9.2" />
</g>
<g id="PathID_770" transform="matrix(1, 0, 0, 1, 9.6, 9.9)">
<path style="fill:#66CCC2;fill-opacity:1" d="M-1.35 -7.3Q-0.35 -7.05 -0.95 -6L-1.8 -5.95Q-2 -6.25 -1.85 -6.55L-1.9 -6.8Q-1.8 -7.25 -1.35 -7.3" />
</g>
<g id="PathID_771" transform="matrix(1, 0, 0, 1, 9.6, 9.9)">
<path style="fill:#F88083;fill-opacity:1" d="M0 -7.75Q1.25 -7.1 0.25 -6.35Q0.05 -6.15 -0.2 -6.35Q-1.35 -7.35 0 -7.75" />
</g>
<g id="PathID_772" transform="matrix(1, 0, 0, 1, 9.6, 9.9)">
<path style="fill:#817FB1;fill-opacity:1" d="M-0.2 -6Q0.6 -5.4 -0.55 -5.25L-0.75 -5.45L-0.2 -6" />
</g>
<g id="PathID_773" transform="matrix(1, 0, 0, 1, 9.6, 9.9)">
<path style="fill:#817FB1;fill-opacity:1" d="M1.35 -7Q2.2 -6.4 1.2 -6.15L1 -6.3Q0.85 -6.85 1.35 -7" />
</g>
</svg>
