<?xml version="1.0" encoding="utf-8"?>
<svg version="1.1" id="Layer_1"
xmlns="http://www.w3.org/2000/svg"
xmlns:xlink="http://www.w3.org/1999/xlink"
width="10px" height="19px"
xml:space="preserve">
<g id="PathID_839" transform="matrix(1, 0, 0, 1, 2.75, 9.1)">
<linearGradient
id="LinearGradID_207" gradientUnits="userSpaceOnUse" gradientTransform="matrix(-0.00212097, 0.00268555, -0.00227356, -0.00178528, 2, -6.45)" spreadMethod ="pad" x1="-819.2" y1="0" x2="819.2" y2="0" >
<stop  offset="0" style="stop-color:#CCAC79;stop-opacity:1" />
<stop  offset="1" style="stop-color:#8A634C;stop-opacity:1" />
</linearGradient>
<path style="fill:url(#LinearGradID_207) " d="M6.2 -4.4L5.95 -3.7Q4.8 -2.55 4.45 -0.25Q4.05 2 4.2 2.95Q4.05 4.5 3.25 6.15L3 6.6Q2.45 1.55 3.85 -4.3Q0.45 -5.1 -1 -6.45L0.5 -8.15L0.6 -8.2Q4.6 -8 6.3 -4.85L6.2 -4.4" />
<path style="fill:#593C2C;fill-opacity:1" d="M4.95 -8.4Q6.7 -7.3 6.3 -4.85Q4.6 -8 0.6 -8.2Q2.8 -9.75 4.95 -8.4" />
<path style="fill:#8A634C;fill-opacity:1" d="M-1 -6.45Q0.45 -5.1 3.85 -4.3Q2.45 1.55 3 6.6Q1.95 7.95 -0.8 9.3Q-2.05 8.6 -2.3 5.05Q-3.5 -2.7 -1 -6.45" />
<path style="fill:none;stroke-width:0.7;stroke-linecap:round;stroke-linejoin:miter;stroke-miterlimit:5;stroke:#000000;stroke-opacity:0.301961" d="M6.3 -4.85Q6.7 -7.3 4.95 -8.4Q2.8 -9.75 0.6 -8.2L0.5 -8.15L-1 -6.45" />
<path style="fill:none;stroke-width:0.7;stroke-linecap:round;stroke-linejoin:miter;stroke-miterlimit:5;stroke:#000000;stroke-opacity:0.301961" d="M3 6.6L3.25 6.15Q4.05 4.5 4.2 2.95Q4.05 2 4.45 -0.25Q4.8 -2.55 5.95 -3.7L6.2 -4.4L6.3 -4.85" />
<path style="fill:none;stroke-width:0.7;stroke-linecap:round;stroke-linejoin:miter;stroke-miterlimit:5;stroke:#000000;stroke-opacity:0.301961" d="M3 6.6Q1.95 7.95 -0.8 9.3Q-2.05 8.6 -2.3 5.05Q-3.5 -2.7 -1 -6.45" />
</g>
</svg>
