<?xml version="1.0" encoding="utf-8"?>
<svg version="1.1" id="Layer_1"
xmlns="http://www.w3.org/2000/svg"
xmlns:xlink="http://www.w3.org/1999/xlink"
width="9px" height="4px"
xml:space="preserve">
<g id="PathID_381" transform="matrix(1, 0, 0, 1, 4.5, 1.95)">
<path style="fill:#84AACE;fill-opacity:1" d="M2.85 -0.35L1.1 0.15L-0.15 0.65Q-0.6 0.95 -0.35 1.35L1.55 1.45Q1.85 1.05 1.45 0.7L1.1 1.85L0.35 1.9Q-0.5 1.95 -1.6 1.4L-3.5 0.55L-4.2 0.05Q-4.7 -0.9 -4 -1.35Q-3.1 -1.95 -1.7 -1.8L0.95 -1.2L3.6 -0.45Q4.05 -0.45 4.3 0.2L2.85 -0.35M1.45 0.7L0.8 0.45Q2.25 0.5 2.45 0.9L1.6 1.85L1.1 1.85L1.55 1.45M4.3 0.2Q4.55 0.8 3.9 1.05L2.95 1.4Q3.8 1.05 3.45 0.15Q3.8 0 3.6 -0.45" />
<path style="fill:#F4F7F7;fill-opacity:1" d="M2.85 -0.35L3.45 0.15Q3.8 1.05 2.95 1.4L1.6 1.85L2.45 0.9Q2.25 0.5 0.8 0.45L1.45 0.7Q1.85 1.05 1.55 1.45L-0.35 1.35Q-0.6 0.95 -0.15 0.65L1.1 0.15L2.85 -0.35L3.6 -0.45Q3.8 0 3.45 0.15L2.85 -0.35" />
<path style="fill:none;stroke-width:0.7;stroke-linecap:round;stroke-linejoin:round;stroke-miterlimit:3;stroke:#000000;stroke-opacity:0.4" d="M3.6 -0.45L0.95 -1.2L-1.7 -1.8Q-3.1 -1.95 -4 -1.35Q-4.7 -0.9 -4.2 0.05L-3.5 0.55L-1.6 1.4Q-0.5 1.95 0.35 1.9L1.1 1.85L1.55 1.45" />
<path style="fill:none;stroke-width:0.7;stroke-linecap:round;stroke-linejoin:round;stroke-miterlimit:3;stroke:#000000;stroke-opacity:0.4" d="M3.6 -0.45Q4.05 -0.45 4.3 0.2Q4.55 0.8 3.9 1.05L2.95 1.4L1.6 1.85L1.1 1.85" />
<path style="fill:none;stroke-width:0.7;stroke-linecap:round;stroke-linejoin:round;stroke-miterlimit:3;stroke:#000000;stroke-opacity:0.4" d="M3.45 0.15Q3.8 1.05 2.95 1.4" />
<path style="fill:none;stroke-width:0.7;stroke-linecap:round;stroke-linejoin:round;stroke-miterlimit:3;stroke:#000000;stroke-opacity:0.4" d="M1.55 1.45Q1.85 1.05 1.45 0.7L0.8 0.45" />
<path style="fill:none;stroke-width:0.7;stroke-linecap:round;stroke-linejoin:round;stroke-miterlimit:3;stroke:#000000;stroke-opacity:0.4" d="M3.45 0.15L2.85 -0.35" />
</g>
</svg>
