<?xml version="1.0" encoding="utf-8"?>
<svg version="1.1" id="Layer_1"
xmlns="http://www.w3.org/2000/svg"
xmlns:xlink="http://www.w3.org/1999/xlink"
width="6px" height="5px"
xml:space="preserve">
<g id="PathID_128" transform="matrix(1, 0, 0, 1, 2.7, 2.3)">
<path style="fill:#0B0402;fill-opacity:1" d="M2.4 -0.8Q3.1 0.35 2.95 0.95Q2.7 1.75 1.6 2.1L-0.3 2.25Q-1.1 2.1 -1.6 1.55Q-2.15 1 -2.3 0.05L-2.7 -1.15Q-2.4 -1.2 -1.5 -1.8Q-0.6 -2.45 0.45 -2.25Q1.5 -2.1 2.4 -0.8" />
</g>
<g id="PathID_129" transform="matrix(1, 0, 0, 1, 2.7, 2.3)">
<path style="fill:#FFFFFF;fill-opacity:1" d="M0.4 -0.7Q-0.4 -1.15 -0.1 -1.6Q0.2 -2.05 1 -1.6Q1.75 -1.15 1.5 -0.7Q1.2 -0.25 0.4 -0.7" />
</g>
</svg>
