<?xml version="1.0" encoding="utf-8"?>
<svg version="1.1" id="Layer_1"
xmlns="http://www.w3.org/2000/svg"
xmlns:xlink="http://www.w3.org/1999/xlink"
width="20px" height="21px"
xml:space="preserve">
<g id="PathID_813" transform="matrix(1, 0, 0, 1, 9.75, 10.05)">
<path style="fill:#344864;fill-opacity:1" d="M7.8 -2.95Q-3.05 -0.3 -3.9 6.85Q-6.35 5.95 -7.5 4.2Q-8.95 1.95 -8.75 0.45L-7.85 -2.15L0.2 -9.15Q0.45 -9.55 2.7 -9.85L5.5 -9.95Q6.6 -9.6 6.7 -9.15Q7.85 -5.1 7.8 -2.95" />
<path style="fill:#32395B;fill-opacity:1" d="M-2.5 9.95L-3.25 9.75Q-8.7 8 -9.4 4.1L-9.6 2.25Q-9.55 0.8 -9.05 -0.35Q-8.55 -1.55 -7.85 -2.15L-8.75 0.45Q-8.95 1.95 -7.5 4.2Q-6.35 5.95 -3.9 6.85Q-4.1 9.4 -2.5 9.95M7.8 -2.95Q7.85 -5.1 6.7 -9.15L7.75 -7.9L9.05 -5.15L9.25 -3.85L9.3 -2.2Q9.25 -3.15 7.8 -2.95" />
<linearGradient
id="LinearGradID_195" gradientUnits="userSpaceOnUse" gradientTransform="matrix(0.00138855, -0.00531006, 0.00775146, 0.00204468, 6.65, 2.35)" spreadMethod ="pad" x1="-819.2" y1="0" x2="819.2" y2="0" >
<stop  offset="0.0901961" style="stop-color:#211940;stop-opacity:1" />
<stop  offset="1" style="stop-color:#32395B;stop-opacity:1" />
</linearGradient>
<path style="fill:url(#LinearGradID_195) " d="M-3.9 6.85L-1.55 7.3L1.4 7.2Q2.3 7.05 4.35 5.8Q7.6 3 7.8 -2.95Q9.25 -3.15 9.3 -2.2L8.65 4.05L8.25 5.85Q7.5 7.6 5.45 8.75Q3.5 9.8 1.4 10.1L-0.8 10.1L-2.5 9.95Q-4.1 9.4 -3.9 6.85" />
<linearGradient
id="LinearGradID_196" gradientUnits="userSpaceOnUse" gradientTransform="matrix(0.00196838, -0.00737, 0.00714111, 0.00190735, 18.15, 6.2)" spreadMethod ="pad" x1="-819.2" y1="0" x2="819.2" y2="0" >
<stop  offset="0.294118" style="stop-color:#211940;stop-opacity:1" />
<stop  offset="1" style="stop-color:#344864;stop-opacity:1" />
</linearGradient>
<path style="fill:url(#LinearGradID_196) " d="M4.35 5.8Q2.3 7.05 1.4 7.2L-1.55 7.3L-3.9 6.85Q-3.05 -0.3 7.8 -2.95Q7.6 3 4.35 5.8" />
<path style="fill:none;stroke-width:0.7;stroke-linecap:round;stroke-linejoin:miter;stroke-miterlimit:5;stroke:#000000;stroke-opacity:0.4" d="M0.2 -9.15L-7.85 -2.15" />
<path style="fill:none;stroke-width:0.7;stroke-linecap:round;stroke-linejoin:miter;stroke-miterlimit:5;stroke:#000000;stroke-opacity:0.4" d="M6.7 -9.15L7.75 -7.9L9.05 -5.15L9.25 -3.85L9.3 -2.2L8.65 4.05L8.25 5.85Q7.5 7.6 5.45 8.75Q3.5 9.8 1.4 10.1L-0.8 10.1L-2.5 9.95L-3.25 9.75Q-8.7 8 -9.4 4.1L-9.6 2.25Q-9.55 0.8 -9.05 -0.35Q-8.55 -1.55 -7.85 -2.15" />
</g>
</svg>
