<?xml version="1.0" encoding="utf-8"?>
<svg version="1.1" id="Layer_1"
xmlns="http://www.w3.org/2000/svg"
xmlns:xlink="http://www.w3.org/1999/xlink"
width="21px" height="20px"
xml:space="preserve">
<g id="PathID_197" transform="matrix(1, 0, 0, 1, 10.7, 9.25)">
<path style="fill:#E1C6BB;fill-opacity:1" d="M2.9 -3.55Q-0.65 -3.9 -2.05 -5.7Q-0.2 -7.25 1.6 -7.1Q3.6 -7.55 5.4 -6L6.8 -4.2L2.9 -3.55M5.45 8.9Q0.95 10.3 -2.75 9.55Q-6.45 8.75 -9.15 6.65L-8.65 5.25L-8.6 5.35Q-7.05 6.9 -4.4 7.85Q4.55 9.15 7.85 6.1L8.2 5.8L8.1 7.45Q7.7 8.15 5.45 8.9" />
<path style="fill:#FFF0E5;fill-opacity:1" d="M-2.05 -5.7Q-0.65 -3.9 2.9 -3.55L6.8 -4.2Q8.6 -0.9 8.2 5.8L7.85 6.1Q4.55 9.15 -4.4 7.85Q-7.05 6.9 -8.6 5.35L-8.65 5.25L-6 -0.45Q-4 -4.05 -2.05 -5.7" />
<path style="fill:#B70000;fill-opacity:1" d="M-2.25 -5.95L-2.75 -7L1.1 -8.6Q5.25 -10.1 6.45 -8.1Q7.45 -8.5 8.5 -6.15Q9.6 -3.85 9.65 -2.1L9.8 3.55Q9.85 5.5 8.1 7.45L8.2 5.8Q9.15 4.75 9.35 2.95Q10.1 -3.9 8 -4.9L7.7 -4.6L6.8 -4.2L5.4 -6Q3.6 -7.55 1.6 -7.1Q-0.2 -7.25 -2.05 -5.7L-2.25 -5.95M-10.45 3.45Q-10 1.45 -8.8 -0.1Q-10.05 3.2 -8.65 5.25L-9.15 6.65Q-10.85 5.1 -10.45 3.45" />
<path style="fill:#D70103;fill-opacity:1" d="M6.8 -4.2L7.7 -4.6L8 -4.9Q10.1 -3.9 9.35 2.95Q9.15 4.75 8.2 5.8Q8.6 -0.9 6.8 -4.2M-6 -0.45L-8.65 5.25Q-10.05 3.2 -8.8 -0.1L-5.95 -3.85L-2.75 -7L-2.25 -5.95L-2.05 -5.7Q-4 -4.05 -6 -0.45" />
<path style="fill:none;stroke-width:0.7;stroke-linecap:round;stroke-linejoin:miter;stroke-miterlimit:5;stroke:#000000;stroke-opacity:0.4" d="M8.1 7.45Q9.85 5.5 9.8 3.55L9.65 -2.1Q9.6 -3.85 8.5 -6.15Q7.45 -8.5 6.45 -8.1" />
<path style="fill:none;stroke-width:0.7;stroke-linecap:round;stroke-linejoin:miter;stroke-miterlimit:5;stroke:#000000;stroke-opacity:0.4" d="M1.1 -8.6L-2.75 -7" />
<path style="fill:none;stroke-width:0.7;stroke-linecap:round;stroke-linejoin:miter;stroke-miterlimit:5;stroke:#000000;stroke-opacity:0.4" d="M-9.15 6.65Q-6.45 8.75 -2.75 9.55Q0.95 10.3 5.45 8.9Q7.7 8.15 8.1 7.45" />
<path style="fill:none;stroke-width:0.7;stroke-linecap:round;stroke-linejoin:miter;stroke-miterlimit:5;stroke:#000000;stroke-opacity:0.4" d="M-2.75 -7L-5.95 -3.85L-8.8 -0.1" />
<path style="fill:none;stroke-width:0.7;stroke-linecap:round;stroke-linejoin:miter;stroke-miterlimit:5;stroke:#000000;stroke-opacity:0.4" d="M-8.8 -0.1Q-10 1.45 -10.45 3.45Q-10.85 5.1 -9.15 6.65" />
</g>
</svg>
