<?xml version="1.0" encoding="utf-8"?>
<svg version="1.1" id="Layer_1"
xmlns="http://www.w3.org/2000/svg"
xmlns:xlink="http://www.w3.org/1999/xlink"
width="9px" height="8px"
xml:space="preserve">
<g id="PathID_412" transform="matrix(1, 0, 0, 1, 3.95, 3.8)">
<radialGradient
id="RadialGradID_122" gradientUnits="userSpaceOnUse" gradientTransform="matrix(0.00697327, 0, 0, 0.00697327, 3.85, 2.8)" spreadMethod ="pad" cx="0" cy="0" r="819.2" fx="0" fy="0" >
<stop  offset="0.164706"  style="stop-color:#FC1B35;stop-opacity:1" />
<stop  offset="1"  style="stop-color:#FFF1EB;stop-opacity:1" />
</radialGradient>
<path style="fill:url(#RadialGradID_122) " d="M3.5 3.25Q3.25 2.2 2.3 1.6Q3.25 2.2 3.5 3.25L3.4 3.55Q3.25 3.75 2.7 3.75Q1.95 2.25 0.3 1L-1.4 0.55Q0.6 0.4 2.9 1.1L2.95 -0.9L3.6 -0.1Q4.05 0.5 4.2 2.1Q4.55 2.6 3.5 3.25M3.45 0.9L4.2 2.1L3.45 0.9" />
<path style="fill:#FFF1EB;fill-opacity:1" d="M2.8 -1.1L2.95 -0.9L2.9 1.1Q0.6 0.4 -1.4 0.55Q-3.05 0.15 -3.7 -0.6L-3.8 -0.85Q-4.15 -2.25 -3.5 -3.1Q-2.2 -4 -0.9 -3.7Q0.65 -3.35 2 -1.95L2.3 -1.65L2.8 -1.1" />
<radialGradient
id="RadialGradID_123" gradientUnits="userSpaceOnUse" gradientTransform="matrix(0.00712585, 0, 0, 0.00712585, 3.6, 2.45)" spreadMethod ="pad" cx="0" cy="0" r="819.2" fx="0" fy="0" >
<stop  offset="0.164706"  style="stop-color:#D90822;stop-opacity:1" />
<stop  offset="1"  style="stop-color:#F5D2E0;stop-opacity:1" />
</radialGradient>
<path style="fill:url(#RadialGradID_123) " d="M1.3 3.3Q0.1 2.4 -1.6 1.45L-2.7 0.7L-1.4 0.55L0.3 1Q1.95 2.25 2.7 3.75Q2.05 3.9 1.3 3.3" />
<path style="fill:#F5D2E0;fill-opacity:1" d="M-3.55 -0.15L-3.7 -0.6Q-3.05 0.15 -1.4 0.55L-2.7 0.7L-3.55 -0.15" />
<path style="fill:none;stroke-width:0.7;stroke-linecap:round;stroke-linejoin:miter;stroke-miterlimit:5;stroke:#000000;stroke-opacity:0.4" d="M-3.8 -0.85L-3.7 -0.6" />
<path style="fill:none;stroke-width:0.7;stroke-linecap:round;stroke-linejoin:miter;stroke-miterlimit:5;stroke:#000000;stroke-opacity:0.4" d="M2.95 -0.9L2.8 -1.1L2.3 -1.65" />
<path style="fill:none;stroke-width:0.7;stroke-linecap:round;stroke-linejoin:miter;stroke-miterlimit:5;stroke:#000000;stroke-opacity:0.4" d="M4.2 2.1Q4.05 0.5 3.6 -0.1L2.95 -0.9" />
<path style="fill:none;stroke-width:0.7;stroke-linecap:round;stroke-linejoin:miter;stroke-miterlimit:5;stroke:#000000;stroke-opacity:0.4" d="M-2.7 0.7L-1.6 1.45Q0.1 2.4 1.3 3.3Q2.05 3.9 2.7 3.75Q3.25 3.75 3.4 3.55L3.5 3.25Q3.25 2.2 2.3 1.6" />
<path style="fill:none;stroke-width:0.7;stroke-linecap:round;stroke-linejoin:miter;stroke-miterlimit:5;stroke:#000000;stroke-opacity:0.4" d="M3.5 3.25Q4.55 2.6 4.2 2.1L3.45 0.9" />
<path style="fill:none;stroke-width:0.7;stroke-linecap:round;stroke-linejoin:miter;stroke-miterlimit:5;stroke:#000000;stroke-opacity:0.4" d="M-3.7 -0.6L-3.55 -0.15L-2.7 0.7" />
</g>
</svg>
