<?xml version="1.0" encoding="utf-8"?>
<svg version="1.1" id="Layer_1"
xmlns="http://www.w3.org/2000/svg"
xmlns:xlink="http://www.w3.org/1999/xlink"
width="25px" height="20px"
xml:space="preserve">
<g id="PathID_360" transform="matrix(1, 0, 0, 1, 10.6, 9.05)">
<path style="fill:#171619;fill-opacity:1" d="M7.7 -7.65L8.3 -7.7L10.4 -8.15Q9.95 -7.15 8.5 -6.55L10.6 -4.75Q11.45 -4.2 12.95 -4.15Q10.85 -3.05 9.6 -3.25L8.55 -3.7Q8.2 -2.4 7.65 -1.45L8.4 -5.05Q8 -6.1 6.8 -6.75L5.95 -7.6L7.7 -7.65M7.65 -1.45Q6.75 0.1 5.4 0.85L4.75 1.1L5.1 0.4L5.65 -1.4L5.65 -1.45Q7.45 -4.05 6.7 -6.8L6.8 -6.75Q8 -6.1 8.4 -5.05L8.55 -3.7M1.85 -4.7Q0.05 -3.1 -2.2 -2.4Q0.75 -3.95 2.1 -5.85L1.9 -4.6L5.65 -1.45L5.65 -1.4L5.1 0.4L1.9 -4.55L1.9 -4.6L1.85 -4.7M-6.05 -6.95Q-6.65 -7.75 -6.85 -8.5Q-5.2 -6.7 -3.2 -5.95L-4.6 -5.95Q-5.45 -6.1 -6.05 -6.95M-4.9 -2.75Q-5.4 -2.7 -6.25 -3.35L-7.35 -4.7L-8.3 -6.1Q-5.5 -2.95 -0.4 -5.2L-1.3 -4Q-2.9 -2.6 -4.9 -2.75" />
<path style="fill:#231E20;fill-opacity:1" d="M5.2 -4.25Q5.6 -3.3 5.65 -1.45L1.9 -4.6L1.9 -4.55L1.9 -4.6L2.1 -5.85Q0.75 -3.95 -2.2 -2.4L-2.4 -2.35L-1.3 -4L-0.4 -5.2Q-5.5 -2.95 -8.3 -6.1L-8.35 -6.15L-4.6 -5.95L-3.2 -5.95Q-5.2 -6.7 -6.85 -8.5L-6.9 -8.6L-3.4 -7.9L-1.1 -8.25L1.15 -8.65Q5.7 -9.75 7.7 -7.65L5.95 -7.6L6.8 -6.75L6.7 -6.8Q7.45 -4.05 5.65 -1.45Q5.6 -3.3 5.2 -4.25M9.7 -2.5L9.7 -1.55L9.4 2.9Q9.2 4.85 8 6.05L8 6.1L6.8 7Q7.9 3.45 7.65 -1.45Q8.2 -2.4 8.55 -3.7L9.6 -3.25L9.7 -2.5" />
<path style="fill:#64575E;fill-opacity:1" d="M-4.35 7.8Q-7.75 6.85 -8.8 4.8L-8.8 4.75Q-7 0.6 -4.9 -2.75Q-2.9 -2.6 -1.3 -4L-2.4 -2.35L-2.2 -2.4Q0.05 -3.1 1.85 -4.7L1.9 -4.6L1.9 -4.55L5.1 0.4L4.75 1.1L5.4 0.85Q6.75 0.1 7.65 -1.45Q7.9 3.45 6.8 7L6.8 7.05Q3.35 8.9 -4.35 7.8" />
<path style="fill:#1B191F;fill-opacity:1" d="M9.85 3.5Q9.95 6.65 7.1 8.2L6.3 8.55L6.8 7.05L6.8 7L8 6.1L8 6.05Q9.2 4.85 9.4 2.9L9.7 -1.55L9.85 3.5M-9.15 6.55L-9.75 5.85Q-10.7 4.65 -10.4 3.4Q-9.95 1.4 -8.75 -0.15Q-9.6 1.55 -9.1 3.7L-8.8 4.75L-8.8 4.8L-9.15 6.55" />
<path style="fill:#423A4E;fill-opacity:1" d="M-8.8 4.8Q-7.75 6.85 -4.35 7.8Q3.35 8.9 6.8 7.05L6.3 8.55L5.5 8.85Q1 10.25 -2.45 9.65Q-5.9 9.05 -8.35 7.2L-8.6 7L-9.15 6.55L-8.8 4.8" />
<path style="fill:#2A2427;fill-opacity:1" d="M-4.9 -2.75Q-7 0.6 -8.8 4.75L-9.1 3.7Q-9.6 1.55 -8.75 -0.15L-6.25 -3.35Q-5.4 -2.7 -4.9 -2.75" />
<path style="fill:none;stroke-width:0.7;stroke-linecap:round;stroke-linejoin:miter;stroke-miterlimit:5;stroke:#000000;stroke-opacity:0.4" d="M6.8 -6.75Q8 -6.1 8.4 -5.05L8.55 -3.7L9.6 -3.25Q10.85 -3.05 12.95 -4.15Q11.45 -4.2 10.6 -4.75L8.5 -6.55Q9.95 -7.15 10.4 -8.15L8.3 -7.7L7.7 -7.65L5.95 -7.6" />
<path style="fill:none;stroke-width:0.7;stroke-linecap:round;stroke-linejoin:miter;stroke-miterlimit:5;stroke:#000000;stroke-opacity:0.4" d="M5.65 -1.45L5.65 -1.4L5.1 0.4L4.75 1.1L5.4 0.85Q6.75 0.1 7.65 -1.45Q8.2 -2.4 8.55 -3.7" />
<path style="fill:none;stroke-width:0.7;stroke-linecap:round;stroke-linejoin:round;stroke-miterlimit:3;stroke:#000000;stroke-opacity:0.4" d="M1.9 -4.6L1.9 -4.55" />
<path style="fill:none;stroke-width:0.7;stroke-linecap:round;stroke-linejoin:miter;stroke-miterlimit:5;stroke:#000000;stroke-opacity:0.4" d="M1.9 -4.55L5.1 0.4" />
<path style="fill:none;stroke-width:0.7;stroke-linecap:round;stroke-linejoin:miter;stroke-miterlimit:5;stroke:#000000;stroke-opacity:0.4" d="M-2.2 -2.4Q0.05 -3.1 1.85 -4.7L1.9 -4.6L1.9 -4.55" />
<path style="fill:none;stroke-width:0.7;stroke-linecap:round;stroke-linejoin:miter;stroke-miterlimit:5;stroke:#000000;stroke-opacity:0.4" d="M5.2 -4.25Q5.6 -3.3 5.65 -1.45" />
<path style="fill:none;stroke-width:0.7;stroke-linecap:round;stroke-linejoin:miter;stroke-miterlimit:5;stroke:#000000;stroke-opacity:0.4" d="M9.7 -1.55L9.7 -2.5L9.6 -3.25" />
<path style="fill:none;stroke-width:0.7;stroke-linecap:round;stroke-linejoin:miter;stroke-miterlimit:5;stroke:#000000;stroke-opacity:0.4" d="M1.15 -8.65L-1.1 -8.25L-3.4 -7.9L-6.9 -8.6L-6.85 -8.5" />
<path style="fill:none;stroke-width:0.7;stroke-linecap:round;stroke-linejoin:miter;stroke-miterlimit:5;stroke:#000000;stroke-opacity:0.4" d="M-4.6 -5.95L-8.35 -6.15L-8.3 -6.1" />
<path style="fill:none;stroke-width:0.7;stroke-linecap:round;stroke-linejoin:miter;stroke-miterlimit:5;stroke:#000000;stroke-opacity:0.4" d="M-1.3 -4L-2.4 -2.35L-2.2 -2.4" />
<path style="fill:none;stroke-width:0.7;stroke-linecap:round;stroke-linejoin:miter;stroke-miterlimit:5;stroke:#000000;stroke-opacity:0.4" d="M6.3 8.55L7.1 8.2Q9.95 6.65 9.85 3.5L9.7 -1.55" />
<path style="fill:none;stroke-width:0.7;stroke-linecap:round;stroke-linejoin:miter;stroke-miterlimit:5;stroke:#000000;stroke-opacity:0.4" d="M-9.15 6.55L-8.6 7L-8.35 7.2Q-5.9 9.05 -2.45 9.65Q1 10.25 5.5 8.85L6.3 8.55" />
<path style="fill:none;stroke-width:0.7;stroke-linecap:round;stroke-linejoin:miter;stroke-miterlimit:5;stroke:#000000;stroke-opacity:0.4" d="M-6.85 -8.5Q-6.65 -7.75 -6.05 -6.95Q-5.45 -6.1 -4.6 -5.95" />
<path style="fill:none;stroke-width:0.7;stroke-linecap:round;stroke-linejoin:miter;stroke-miterlimit:5;stroke:#000000;stroke-opacity:0.4" d="M-6.25 -3.35L-8.75 -0.15" />
<path style="fill:none;stroke-width:0.7;stroke-linecap:round;stroke-linejoin:miter;stroke-miterlimit:5;stroke:#000000;stroke-opacity:0.4" d="M-4.9 -2.75Q-5.4 -2.7 -6.25 -3.35L-7.35 -4.7L-8.3 -6.1" />
<path style="fill:none;stroke-width:0.7;stroke-linecap:round;stroke-linejoin:miter;stroke-miterlimit:5;stroke:#000000;stroke-opacity:0.4" d="M-1.3 -4Q-2.9 -2.6 -4.9 -2.75" />
<path style="fill:none;stroke-width:0.7;stroke-linecap:round;stroke-linejoin:miter;stroke-miterlimit:5;stroke:#000000;stroke-opacity:0.4" d="M-8.75 -0.15Q-9.95 1.4 -10.4 3.4Q-10.7 4.65 -9.75 5.85L-9.15 6.55" />
</g>
</svg>
