<?xml version="1.0" encoding="utf-8"?>
<svg version="1.1" id="Layer_1"
xmlns="http://www.w3.org/2000/svg"
xmlns:xlink="http://www.w3.org/1999/xlink"
width="5px" height="5px"
xml:space="preserve">
<g id="PathID_889" transform="matrix(1, 0, 0, 1, 2.25, 2.3)">
<path style="fill:#FBFDA9;fill-opacity:1" d="M1.6 -1.5Q2.25 -0.85 2.25 0.05Q2.25 0.9 1.6 1.55Q0.95 2.2 0.05 2.2Q-0.85 2.2 -1.5 1.55Q-2.1 0.9 -2.1 0.05Q-2.1 -0.85 -1.5 -1.5Q-0.85 -2.15 0.05 -2.15Q0.95 -2.15 1.6 -1.5" />
<path style="fill:none;stroke-width:0.7;stroke-linecap:round;stroke-linejoin:round;stroke-miterlimit:3;stroke:#0E5659;stroke-opacity:1" d="M1.6 -1.5Q2.25 -0.85 2.25 0.05Q2.25 0.9 1.6 1.55Q0.95 2.2 0.05 2.2Q-0.85 2.2 -1.5 1.55Q-2.1 0.9 -2.1 0.05Q-2.1 -0.85 -1.5 -1.5Q-0.85 -2.15 0.05 -2.15Q0.95 -2.15 1.6 -1.5z" />
</g>
<g id="PathID_890" transform="matrix(1, 0, 0, 1, 2.25, 2.3)">
<path style="fill:#F14A6E;fill-opacity:1" d="M1.7 -1.35Q2.15 -0.8 2.15 0Q2.15 0.75 1.7 1.3Q1.25 1.85 0.6 1.85Q0 1.85 -0.45 1.3L-0.9 -0.05Q-0.9 -0.8 -0.45 -1.35Q0 -1.85 0.6 -1.85Q1.25 -1.85 1.7 -1.35" />
</g>
<g id="PathID_891" transform="matrix(1, 0, 0, 1, 2.25, 2.3)">
<path style="fill:#152B2F;fill-opacity:1" d="M0.95 -1.25L1.65 -0.9L1.95 -0.05L1.65 0.8Q1.35 1.15 0.95 1.15Q0.6 1.15 0.3 0.8Q0 0.45 0 -0.05Q0 -0.55 0.3 -0.9Q0.6 -1.25 0.95 -1.25" />
</g>
<g id="PathID_892" transform="matrix(1, 0, 0, 1, 2.25, 2.3)">
<path style="fill:#FFFFFF;fill-opacity:1" d="M0.35 -0.6L0.5 -0.35L0.35 -0.15L0.05 -0.05L-0.3 -0.15L-0.4 -0.4L-0.3 -0.6L0.05 -0.65L0.35 -0.6" />
</g>
</svg>
