<?xml version="1.0" encoding="utf-8"?>
<svg version="1.1" id="Layer_1"
xmlns="http://www.w3.org/2000/svg"
xmlns:xlink="http://www.w3.org/1999/xlink"
width="9px" height="8px"
xml:space="preserve">
<g id="PathID_321" transform="matrix(1, 0, 0, 1, 3.95, 3.8)">
<linearGradient
id="LinearGradID_81" gradientUnits="userSpaceOnUse" gradientTransform="matrix(0.00177002, 0.00169373, -0.00189209, 0.00196838, 0.15, -0.9)" spreadMethod ="pad" x1="-819.2" y1="0" x2="819.2" y2="0" >
<stop  offset="0" style="stop-color:#FB5C09;stop-opacity:1" />
<stop  offset="1" style="stop-color:#FE9741;stop-opacity:1" />
</linearGradient>
<path style="fill:url(#LinearGradID_81) " d="M-3.7 -0.6L-3.8 -0.85Q-4.15 -2.25 -3.5 -3.1Q-2.2 -4 -0.9 -3.7Q0.65 -3.35 2 -1.95L2.3 -1.65L2.8 -1.1L2.85 -1.05Q1.85 0.3 0.65 0.25Q-0.05 0.35 -0.45 0.7Q-2.9 0.35 -3.7 -0.6" />
<path style="fill:#FFFCED;fill-opacity:1" d="M0.1 0.9Q0.45 0.7 1.05 0.65Q2.45 0.5 3.2 -0.65L3.6 -0.1Q4.05 0.5 4.2 2.1L3.45 0.9Q4.55 2.6 3.5 3.25L3.4 3.55Q3.25 3.75 2.7 3.75Q2 2.3 0.1 0.9M2.3 1.6Q3.25 2.2 3.5 3.25Q3.25 2.2 2.3 1.6M3.45 0.9L4.2 2.1" />
<path style="fill:#111111;fill-opacity:1" d="M1.05 0.65Q0.45 0.7 0.1 0.9L-0.1 0.75L-0.45 0.7Q-0.05 0.35 0.65 0.25Q1.85 0.3 2.85 -1.05L3.2 -0.65Q2.45 0.5 1.05 0.65" />
<path style="fill:#ADA093;fill-opacity:1" d="M0.1 0.9Q2 2.3 2.7 3.75Q2.05 3.9 1.3 3.3L-0.5 2.1L-0.5 1.45Q-0.35 1.1 0.1 0.9" />
<linearGradient
id="LinearGradID_82" gradientUnits="userSpaceOnUse" gradientTransform="matrix(0.00180054, 0.000793457, -0.000595093, 0.00132751, -1.75, 0.7)" spreadMethod ="pad" x1="-819.2" y1="0" x2="819.2" y2="0" >
<stop  offset="0" style="stop-color:#B13408;stop-opacity:1" />
<stop  offset="1" style="stop-color:#CD5C22;stop-opacity:1" />
</linearGradient>
<path style="fill:url(#LinearGradID_82) " d="M-0.45 0.7L-0.85 1.15L-1 1.8L-1.6 1.45Q-3.25 0.45 -3.55 -0.15L-3.7 -0.6Q-2.9 0.35 -0.45 0.7" />
<path style="fill:#0B0B0B;fill-opacity:1" d="M-0.5 1.45L-0.5 2.1L-1 1.8L-0.85 1.15L-0.45 0.7L-0.1 0.75L0.1 0.9Q-0.35 1.1 -0.5 1.45" />
<path style="fill:none;stroke-width:0.7;stroke-linecap:round;stroke-linejoin:miter;stroke-miterlimit:5;stroke:#000000;stroke-opacity:0.4" d="M3.2 -0.65L2.85 -1.05" />
<path style="fill:none;stroke-width:0.7;stroke-linecap:round;stroke-linejoin:miter;stroke-miterlimit:5;stroke:#000000;stroke-opacity:0.4" d="M3.2 -0.65L3.6 -0.1Q4.05 0.5 4.2 2.1Q4.55 2.6 3.5 3.25L3.4 3.55Q3.25 3.75 2.7 3.75Q2.05 3.9 1.3 3.3L-0.5 2.1L-1 1.8L-1.6 1.45Q-3.25 0.45 -3.55 -0.15L-3.7 -0.6L-3.8 -0.85" />
<path style="fill:none;stroke-width:0.7;stroke-linecap:round;stroke-linejoin:miter;stroke-miterlimit:5;stroke:#000000;stroke-opacity:0.4" d="M2.3 -1.65L2.8 -1.1L2.85 -1.05" />
<path style="fill:none;stroke-width:0.7;stroke-linecap:round;stroke-linejoin:miter;stroke-miterlimit:5;stroke:#000000;stroke-opacity:0.4" d="M3.5 3.25Q3.25 2.2 2.3 1.6" />
<path style="fill:none;stroke-width:0.7;stroke-linecap:round;stroke-linejoin:miter;stroke-miterlimit:5;stroke:#000000;stroke-opacity:0.4" d="M4.2 2.1L3.45 0.9" />
</g>
</svg>
