<?xml version="1.0" encoding="utf-8"?>
<svg version="1.1" id="Layer_1"
xmlns="http://www.w3.org/2000/svg"
xmlns:xlink="http://www.w3.org/1999/xlink"
width="21px" height="20px"
xml:space="preserve">
<g id="PathID_768" transform="matrix(1, 0, 0, 1, 10.6, 9.25)">
<path style="fill:#ECCDCE;fill-opacity:1" d="M5 -3.75L2.95 -3.55Q0.9 -3.75 -0.4 -4.4Q2.65 -6.75 5 -3.75M-7.05 6.7Q-5.95 7.4 -4.35 7.85Q4.5 9.15 7.7 6.4L7.6 7.95L5.5 8.9Q1 10.3 -2.45 9.7Q-5.2 9.2 -7.3 7.95L-7.05 6.7" />
<path style="fill:#FFFFFF;fill-opacity:1" d="M7.1 0.35Q7.75 2.5 7.7 6.4Q4.5 9.15 -4.35 7.85Q-5.95 7.4 -7.05 6.7L-5.75 2.65Q-3.55 -1.35 -1.6 -3.35L-0.4 -4.4Q0.9 -3.75 2.95 -3.55L5 -3.75L5.55 -2.9L7.1 0.35" />
<path style="fill:#FEC2AE;fill-opacity:1" d="M-1.6 -3.35Q-2.4 -4.8 -6 -3.75L-5.9 -3.85L-2.7 -7Q-2.15 -5.3 -0.4 -4.4L-1.6 -3.35M5.55 -2.9L5 -3.75Q6.95 -4.1 8.05 -4.9Q8.95 -4.5 9.3 -3.05L9.5 -2.25Q7.85 -3.5 5.55 -2.9" />
<path style="fill:#D4837B;fill-opacity:1" d="M1.15 -8.6Q5.3 -10.1 6.5 -8.1Q7.5 -8.5 8.55 -6.15Q9.35 -4.45 9.6 -3.05L9.7 -2.2L9.5 -2.25L9.3 -3.05Q8.95 -4.5 8.05 -4.9Q6.95 -4.1 5 -3.75Q2.65 -6.75 -0.4 -4.4Q-2.15 -5.3 -2.7 -7Q-1.75 -7.55 1.15 -8.6" />
<path style="fill:#DEA297;fill-opacity:1" d="M9.7 -2.1L9.85 3.55Q9.95 6.4 7.6 7.95L7.7 6.4Q9.15 5.15 9.4 2.95Q9.75 -0.35 9.5 -2.25L9.7 -2.2L9.7 -2.1M-7.05 6.7L-7.3 7.95L-8.35 7.25Q-10.85 5.4 -10.4 3.45Q-9.95 1.45 -8.75 -0.1Q-10.5 4.5 -7.05 6.7" />
<path style="fill:#FFE3C8;fill-opacity:1" d="M-5.75 2.65L-7.05 6.7Q-10.5 4.5 -8.75 -0.1L-6 -3.75Q-2.4 -4.8 -1.6 -3.35Q-3.55 -1.35 -5.75 2.65M5.55 -2.9Q7.85 -3.5 9.5 -2.25Q9.75 -0.35 9.4 2.95Q9.15 5.15 7.7 6.4Q7.75 2.5 7.1 0.35L5.55 -2.9" />
<path style="fill:none;stroke-width:0.7;stroke-linecap:round;stroke-linejoin:miter;stroke-miterlimit:5;stroke:#000000;stroke-opacity:0.4" d="M-2.7 -7L-5.9 -3.85L-6 -3.75" />
<path style="fill:none;stroke-width:0.7;stroke-linecap:round;stroke-linejoin:miter;stroke-miterlimit:5;stroke:#000000;stroke-opacity:0.4" d="M9.7 -2.2L9.6 -3.05Q9.35 -4.45 8.55 -6.15Q7.5 -8.5 6.5 -8.1" />
<path style="fill:none;stroke-width:0.7;stroke-linecap:round;stroke-linejoin:miter;stroke-miterlimit:5;stroke:#000000;stroke-opacity:0.4" d="M1.15 -8.6Q-1.75 -7.55 -2.7 -7" />
<path style="fill:none;stroke-width:0.7;stroke-linecap:round;stroke-linejoin:miter;stroke-miterlimit:5;stroke:#000000;stroke-opacity:0.4" d="M7.6 7.95Q9.95 6.4 9.85 3.55L9.7 -2.1L9.7 -2.2" />
<path style="fill:none;stroke-width:0.7;stroke-linecap:round;stroke-linejoin:miter;stroke-miterlimit:5;stroke:#000000;stroke-opacity:0.4" d="M7.6 7.95L5.5 8.9Q1 10.3 -2.45 9.7Q-5.2 9.2 -7.3 7.95L-8.35 7.25Q-10.85 5.4 -10.4 3.45Q-9.95 1.45 -8.75 -0.1L-6 -3.75" />
</g>
</svg>
