<?xml version="1.0" encoding="utf-8"?>
<svg version="1.1" id="Layer_1"
xmlns="http://www.w3.org/2000/svg"
xmlns:xlink="http://www.w3.org/1999/xlink"
width="5px" height="17px"
xml:space="preserve">
<g id="PathID_880" transform="matrix(1, 0, 0, 1, 3, 8.2)">
<path style="fill:#97A8A8;fill-opacity:1" d="M-1.65 -0.45L-1.3 -2.85L1.25 -2.6L1.3 -0.3L-1.65 -0.45" />
<path style="fill:#E44767;fill-opacity:1" d="M-1.3 -2.85L-1.05 -4.4Q-2.6 -4.2 -3 -6.2Q-1.9 -5.8 -0.75 -6.2Q-1.4 -6.3 -2.3 -8.2L-0.05 -7.8Q0.5 -7.8 0.9 -5.5L1.25 -2.6L-1.3 -2.85" />
<path style="fill:#26C2AD;fill-opacity:1" d="M1.3 -0.3L1.3 0.05L1.05 4.85L0.35 7.65L-0.05 7.9L-0.65 7L-1.05 5.9L-1.7 2.85L-1.9 0.9L-1.65 -0.45L1.3 -0.3" />
<path style="fill:none;stroke-width:0.7;stroke-linecap:round;stroke-linejoin:round;stroke-miterlimit:3;stroke:#000000;stroke-opacity:0.301961" d="M-1.3 -2.85L-1.05 -4.4Q-2.6 -4.2 -3 -6.2Q-1.9 -5.8 -0.75 -6.2Q-1.4 -6.3 -2.3 -8.2L-0.05 -7.8Q0.5 -7.8 0.9 -5.5L1.25 -2.6L1.3 -0.3L1.3 0.05L1.05 4.85L0.35 7.65L-0.05 7.9L-0.65 7L-1.05 5.9L-1.7 2.85L-1.9 0.9L-1.65 -0.45L-1.3 -2.85z" />
</g>
</svg>
