<?xml version="1.0" encoding="utf-8"?>
<svg version="1.1" id="Layer_1"
xmlns="http://www.w3.org/2000/svg"
xmlns:xlink="http://www.w3.org/1999/xlink"
width="22px" height="40px"
xml:space="preserve">
<g id="PathID_215" transform="matrix(1, 0, 0, 1, 14.6, 18.95)">
<linearGradient
id="LinearGradID_52" gradientUnits="userSpaceOnUse" gradientTransform="matrix(-0.00469971, -0.0164185, 0.0171509, -0.00492859, -5.7, -2.85)" spreadMethod ="pad" x1="-819.2" y1="0" x2="819.2" y2="0" >
<stop  offset="0" style="stop-color:#F8E7C6;stop-opacity:1" />
<stop  offset="0.239216" style="stop-color:#81BFCF;stop-opacity:1" />
<stop  offset="0.635294" style="stop-color:#81BFCF;stop-opacity:1" />
<stop  offset="1" style="stop-color:#B5EFE9;stop-opacity:1" />
</linearGradient>
<path style="fill:url(#LinearGradID_52) " d="M-2.2 9.05L-1.95 9.6Q-2.9 9.15 -3.7 8.55L-4.75 7.05L-5.05 4.8L-4.65 4.85L-3.85 5.8Q-3 7.25 -1.8 8Q-3.7 6 -3.2 2.55Q-1.45 -2.7 -2.5 -5Q-2.85 -6.1 -3.8 -6.2Q-4.9 -6.1 -6.2 -5.3Q-7.2 -5.05 -7.6 -6.15Q-7.85 -7.6 -7.25 -8.6Q-4.65 -9.6 -3.8 -11.8Q-2.95 -14 -4.95 -15Q-6.35 -15.6 -7.2 -14.1Q-7.65 -12.7 -6.05 -12.15Q-4.65 -11.85 -5.2 -13.55Q-5.25 -12.55 -6 -12.75L-6.6 -13.35Q-6.75 -14.6 -5.55 -14.6Q-3.8 -14 -4.45 -12.4Q-5.75 -9.85 -9.1 -9.4Q-13.45 -9.85 -14.45 -14.85L-14.15 -17.75Q-12.05 -14.65 -9.15 -18.3Q-8.05 -19.15 -6.4 -18.6Q-5.2 -18.2 -2.75 -15.25Q0.15 -11.65 1 -8.2Q1.5 -6.4 1.2 -4.25L0.4 4.3Q0.6 8.25 2.2 10.45Q0.05 10.85 -2.2 9.05" />
<path style="fill:#FEF8E5;fill-opacity:1" d="M-3.15 -1.25Q-2.65 -3.8 -4.6 -4.5L-7.7 -4.35Q-9.35 -6.55 -7.75 -8.4L-7.4 -8.8Q-14.7 -7.5 -14.45 -14.85Q-13.45 -9.85 -9.1 -9.4Q-5.75 -9.85 -4.45 -12.4Q-3.8 -14 -5.55 -14.6Q-6.75 -14.6 -6.6 -13.35L-6 -12.75Q-5.25 -12.55 -5.2 -13.55Q-4.65 -11.85 -6.05 -12.15Q-7.65 -12.7 -7.2 -14.1Q-6.35 -15.6 -4.95 -15Q-2.95 -14 -3.8 -11.8Q-4.65 -9.6 -7.25 -8.6Q-7.85 -7.6 -7.6 -6.15Q-7.2 -5.05 -6.2 -5.3Q-4.9 -6.1 -3.8 -6.2Q-2.85 -6.1 -2.5 -5Q-1.45 -2.7 -3.2 2.55Q-3.7 6 -1.8 8Q-3 7.25 -3.85 5.8Q-4.65 3.85 -3.15 -1.25M-1.05 11.5Q-2.45 11.45 -4.15 9.1L-4.75 7.05L-3.7 8.55Q-2.55 10.4 -1.05 11.5M-1.95 9.6L-2.2 9.05Q0.05 10.85 2.2 10.45L3.1 11.45L1.2 11.65Q-0.95 11.45 -1.95 9.6" />
<path style="fill:#CFA683;fill-opacity:1" d="M-5.75 7.3L-4.2 9.05L-4.15 9.1Q-1.85 15.05 5.95 17.35L5.9 17.35L4.15 18.65Q2.7 19.85 -0.05 20.05Q-4.45 19.45 -4.9 15.85L-2.2 15.85Q-9 14.5 -6.65 6.4L-5.75 7.3" />
<path style="fill:#F8E7C6;fill-opacity:1" d="M-4.15 9.1Q-2.45 11.45 -1.05 11.5Q-2.55 10.4 -3.7 8.55Q-2.9 9.15 -1.95 9.6Q-0.95 11.45 1.2 11.65L3.1 11.45Q4.55 12.7 6.7 13.05Q7.3 14.85 7.05 15.85L5.95 17.35Q-1.85 15.05 -4.15 9.1" />
<path style="fill:#E1CDA6;fill-opacity:1" d="M-4.75 7.05L-4.15 9.1L-4.2 9.05L-5.75 7.3L-6.65 6.4L-6 5.45L-4.75 7.05" />
<path style="fill:#397D95;fill-opacity:1" d="M-6 5.45Q-5.55 4.9 -5.05 4.8L-4.75 7.05L-6 5.45" />
<path style="fill:none;stroke-width:0.7;stroke-linecap:round;stroke-linejoin:miter;stroke-miterlimit:5;stroke:#000000;stroke-opacity:0.4" d="M2.2 10.45Q0.6 8.25 0.4 4.3L1.2 -4.25Q1.5 -6.4 1 -8.2Q0.15 -11.65 -2.75 -15.25Q-5.2 -18.2 -6.4 -18.6Q-8.05 -19.15 -9.15 -18.3Q-12.05 -14.65 -14.15 -17.75L-14.45 -14.85" />
<path style="fill:none;stroke-width:0.7;stroke-linecap:round;stroke-linejoin:miter;stroke-miterlimit:5;stroke:#000000;stroke-opacity:0.4" d="M-3.85 5.8L-4.65 4.85L-5.05 4.8" />
<path style="fill:none;stroke-width:0.7;stroke-linecap:round;stroke-linejoin:miter;stroke-miterlimit:5;stroke:#000000;stroke-opacity:0.4" d="M2.2 10.45L3.1 11.45Q4.55 12.7 6.7 13.05Q7.3 14.85 7.05 15.85L5.95 17.35L5.9 17.35L4.15 18.65Q2.7 19.85 -0.05 20.05Q-4.45 19.45 -4.9 15.85L-2.2 15.85Q-9 14.5 -6.65 6.4L-6 5.45Q-5.55 4.9 -5.05 4.8" />
<path style="fill:none;stroke-width:0.7;stroke-linecap:round;stroke-linejoin:miter;stroke-miterlimit:5;stroke:#000000;stroke-opacity:0.4" d="M-14.45 -14.85Q-14.7 -7.5 -7.4 -8.8L-7.75 -8.4Q-9.35 -6.55 -7.7 -4.35L-4.6 -4.5Q-2.65 -3.8 -3.15 -1.25Q-4.65 3.85 -3.85 5.8" />
</g>
<g id="PathID_216" transform="matrix(1, 0, 0, 1, 14.6, 18.95)">
<path style="fill:#FEF8E5;fill-opacity:1" d="M1.8 14.25Q0.1 14 -1 12.4Q0.8 13.75 3.4 13Q3.3 13.7 1.8 14.25" />
<path style="fill:#E1CDA6;fill-opacity:1" d="M-5.55 9.15Q-3.3 11.75 -3.6 11.8L-4.5 11.35Q-5.1 10.85 -5.55 9.15" />
</g>
<g id="PathID_217" transform="matrix(1, 0, 0, 1, 14.6, 18.95)">
<path style="fill:#EAA988;fill-opacity:1" d="M-8.25 -17.25Q-7.15 -18.1 -6.85 -16.55Q-7.55 -14.6 -8.15 -15.15L-8.25 -17.25M-4.05 -12.55Q-5.1 -12.35 -5.75 -13.05Q-4.8 -14.15 -3.9 -13.75Q-3.3 -13.15 -4.05 -12.55" />
<path style="fill:#E17B48;fill-opacity:1" d="M-9.95 -15.75L-8.35 -14.4L-6.5 -14.95L-7.1 -13.35L-5.5 -12L-7.75 -12.25L-8.25 -10.3L-9.15 -12.05L-10.95 -12.35L-9.45 -13.55L-9.95 -15.75" />
</g>
<g id="PathID_218" transform="matrix(1, 0, 0, 1, 14.6, 18.95)">
<path style="fill:#84BFD2;fill-opacity:1" d="M-13.65 -14.4L-13.35 -14.65Q-13.05 -14.6 -13.05 -14.3L-13.35 -14.05Q-13.7 -14.1 -13.65 -14.4M-10.7 -13.6L-10.6 -13.5L-10.7 -13.4L-10.8 -13.5L-10.7 -13.6M-10.65 -14.45Q-10.35 -14.4 -10.35 -14.1L-10.65 -13.85Q-11 -13.9 -10.95 -14.2L-10.65 -14.45M-5.75 -11.65L-5.45 -11.9L-5.15 -11.55L-5.45 -11.3Q-5.8 -11.35 -5.75 -11.65M-3.95 -10.95L-3.65 -10.6L-3.95 -10.35Q-4.3 -10.4 -4.25 -10.7L-3.95 -10.95" />
</g>
</svg>
