<?xml version="1.0" encoding="utf-8"?>
<svg version="1.1" id="Layer_1"
xmlns="http://www.w3.org/2000/svg"
xmlns:xlink="http://www.w3.org/1999/xlink"
width="116px" height="164px"
xml:space="preserve">
<g id="PathID_1" transform="matrix(0.0352941, 0, 0, 0.0352941, 0, 37.8)">
<path style="fill:#000000;fill-opacity:1" d="M363 -727l-90 739.5l-239.5 -29.5l90 -739.5l239.5 29.5" />
</g>
<g id="PathID_2" transform="matrix(0.0352941, 0, 0, 0.0352941, 48, 37.8)">
<path style="fill:#000000;fill-opacity:1" d="M879.5 -42l-287.5 30.5l-208 -277.5l-50 68l24.5 233.5l-240.5 25.5l-78 -740.5l240.5 -25.5l24.5 239.5l186.5 -261.5l281.5 -29.5l-238.5 307.5l345 430" />
</g>
<g id="PathID_3" transform="matrix(0.0352941, 0, 0, 0.0352941, 0, 84)">
<path style="fill:#000000;fill-opacity:1" d="M700 -44l-568 80l-103.5 -737l239.5 -33l79 564l328.5 -46.5l24.5 172.5" />
</g>
<g id="PathID_4" transform="matrix(0.0352941, 0, 0, 0.0352941, 48, 84)">
<path style="fill:#000000;fill-opacity:1" d="M935.5 -706.5l-64.5 742.5l-217 -19.5l20.5 -226.5l13.5 -114.5l23.5 -134l-2 0l-175 464.5l-167 -15l-92.5 -487.5l-1 0l0 109.5l-6 116.5l-21.5 251l-216 -18.5l64.5 -742.5l291 26l89 474.5l170 -452l290.5 25.5" />
</g>
</svg>
