<?xml version="1.0" encoding="utf-8"?>
<svg version="1.1" id="Layer_1"
xmlns="http://www.w3.org/2000/svg"
xmlns:xlink="http://www.w3.org/1999/xlink"
width="25px" height="25px"
xml:space="preserve">
<g id="PathID_1023" transform="matrix(1, 0, 0, 1, 12.75, 12.75)">
<linearGradient
id="LinearGradID_284" gradientUnits="userSpaceOnUse" gradientTransform="matrix(-0.00282288, 0.0105591, -0.00914001, -0.00244141, 2, -4.35)" spreadMethod ="pad" x1="-819.2" y1="0" x2="819.2" y2="0" >
<stop  offset="0" style="stop-color:#D9720D;stop-opacity:1" />
<stop  offset="1" style="stop-color:#B44F0D;stop-opacity:1" />
</linearGradient>
<path style="fill:url(#LinearGradID_284) " d="M2.05 -10.9Q-0.05 -9.3 -0.15 -8.3L1.8 -9.65Q4.65 -9.85 6.5 -7.9Q8.35 -6 9 -4.35L9.65 -2.75Q10 -2.2 11.05 -1.4L9.1 -1.55Q8 -1.25 7.1 0.2Q6.2 1.65 4.7 2.75Q3.3 3.8 1.1 3.15Q-1.3 2.4 -3.65 2.15L-6.2 2.05Q-7.35 0.3 -7 -2.8Q-6.75 -5.35 -6.15 -6.2L-5.25 -7.2L-4.55 -7.95Q-2.2 -10.1 -3 -12.5Q-1.6 -11.15 -1.95 -9.75L-2.45 -8L-1.3 -9.85Q-0.45 -11.3 2.35 -11.15L2.05 -10.9" />
<path style="fill:#723800;fill-opacity:1" d="M-1.3 -9.85L-2.45 -8L-1.95 -9.75Q-1.6 -11.15 -3 -12.5Q-0.75 -11.15 -1.3 -9.85M1.8 -9.65L-0.15 -8.3Q-0.05 -9.3 2.05 -10.9Q1.6 -10.45 1.8 -9.65" />
<path style="fill:#EFE7DA;fill-opacity:1" d="M5 4.6Q-1.75 6.25 -6.2 2.05L-3.65 2.15Q-1.3 2.4 1.1 3.15Q3.3 3.8 4.7 2.75Q6.2 1.65 7.1 0.2Q8 -1.25 9.1 -1.55L11.05 -1.4L11.9 -0.7Q9.75 2.2 5 4.6" />
<path style="fill:#978778;fill-opacity:1" d="M-6.2 2.05Q-1.75 6.25 5 4.6Q9.75 2.2 11.9 -0.7L12.1 0.7Q11.95 3.2 9 5.1L4.7 7.55L1.25 7.4Q-0.45 6.95 -0.75 6.6L-4.7 6.1L-4.75 6.15Q-5.8 6.85 -5.75 8.35L-7 6.2Q-8.05 7 -8.7 8.2Q-9.7 5.5 -8.95 4.75Q-9.6 4.6 -11.3 5.8Q-9.8 2.75 -6.2 2.05" />
<path style="fill:#723810;fill-opacity:1" d="M-11.3 5.8Q-11.35 3.3 -8.85 2.15Q-9.9 2.6 -12.25 1.6Q-9.5 1.05 -9.05 0.2Q-8.65 -0.7 -8.2 -2.35Q-7.8 -4.05 -6.15 -6.2Q-6.75 -5.35 -7 -2.8Q-7.35 0.3 -6.2 2.05Q-9.8 2.75 -11.3 5.8" />
<path style="fill:none;stroke-width:0.7;stroke-linecap:round;stroke-linejoin:miter;stroke-miterlimit:5;stroke:#000000;stroke-opacity:0.4" d="M2.35 -11.15Q-0.45 -11.3 -1.3 -9.85" />
<path style="fill:none;stroke-width:0.7;stroke-linecap:round;stroke-linejoin:miter;stroke-miterlimit:5;stroke:#000000;stroke-opacity:0.4" d="M-3 -12.5Q-2.2 -10.1 -4.55 -7.95L-5.25 -7.2L-6.15 -6.2" />
<path style="fill:none;stroke-width:0.7;stroke-linecap:round;stroke-linejoin:miter;stroke-miterlimit:5;stroke:#000000;stroke-opacity:0.4" d="M11.05 -1.4Q10 -2.2 9.65 -2.75L9 -4.35Q8.35 -6 6.5 -7.9Q4.65 -9.85 1.8 -9.65" />
<path style="fill:none;stroke-width:0.7;stroke-linecap:round;stroke-linejoin:miter;stroke-miterlimit:5;stroke:#000000;stroke-opacity:0.4" d="M2.05 -10.9L2.35 -11.15" />
<path style="fill:none;stroke-width:0.7;stroke-linecap:round;stroke-linejoin:miter;stroke-miterlimit:5;stroke:#000000;stroke-opacity:0.4" d="M2.05 -10.9Q1.6 -10.45 1.8 -9.65" />
<path style="fill:none;stroke-width:0.7;stroke-linecap:round;stroke-linejoin:miter;stroke-miterlimit:5;stroke:#000000;stroke-opacity:0.4" d="M11.05 -1.4L11.9 -0.7L12.1 0.7Q11.95 3.2 9 5.1L4.7 7.55" />
<path style="fill:none;stroke-width:0.7;stroke-linecap:round;stroke-linejoin:miter;stroke-miterlimit:5;stroke:#000000;stroke-opacity:0.4" d="M-4.7 6.1L-4.75 6.15Q-5.8 6.85 -5.75 8.35L-7 6.2Q-8.05 7 -8.7 8.2Q-9.7 5.5 -8.95 4.75Q-9.6 4.6 -11.3 5.8Q-11.35 3.3 -8.85 2.15Q-9.9 2.6 -12.25 1.6Q-9.5 1.05 -9.05 0.2Q-8.65 -0.7 -8.2 -2.35Q-7.8 -4.05 -6.15 -6.2" />
<path style="fill:none;stroke-width:0.7;stroke-linecap:round;stroke-linejoin:miter;stroke-miterlimit:5;stroke:#000000;stroke-opacity:0.4" d="M-3 -12.5Q-0.75 -11.15 -1.3 -9.85" />
</g>
<g id="PathID_1024" transform="matrix(1, 0, 0, 1, 12.75, 12.75)">
<path style="fill:#351D0C;fill-opacity:0.988235" d="M5.6 -8.45L5.9 -8.55L7.25 -7.25L7.05 -6.85L6.7 -6.65Q6.25 -6.65 5.9 -7.3Q5.6 -7.8 5.6 -8.15L5.6 -8.45M1.05 -7.3L1.2 -7.7Q1.4 -8 1.75 -8Q2.7 -8 3.5 -7.1L4.15 -5.85Q4.15 -5.4 3.8 -5.4Q2.75 -5.4 1.85 -6.2Q1.05 -6.9 1.05 -7.3M1.95 1L-0.35 1.2Q-2.7 0.6 -3.55 -0.85Q-4.05 -1.8 -3.9 -2.3Q-2.55 -3.95 -0.45 -4.1Q0.4 -4.15 1.55 -3.05Q3 -1.7 3.05 0.3L1.95 1" />
</g>
<g id="PathID_1025" transform="matrix(1, 0, 0, 1, 12.75, 12.75)">
<path style="fill:none;stroke-width:0.7;stroke-linecap:round;stroke-linejoin:miter;stroke-miterlimit:5;stroke:#000000;stroke-opacity:0.501961" d="M4.25 2.8Q-5.05 2.95 -12.1 7.9" />
</g>
<g id="PathID_1026" transform="matrix(1, 0, 0, 1, 12.75, 12.75)">
<path style="fill:none;stroke-width:0.7;stroke-linecap:round;stroke-linejoin:miter;stroke-miterlimit:5;stroke:#000000;stroke-opacity:0.501961" d="M5.75 3.75Q-2 5.95 -6.8 11.65" />
</g>
<g id="PathID_1027" transform="matrix(1, 0, 0, 1, 12.75, 12.75)">
<path style="fill:#A69F99;fill-opacity:0.988235" d="M10.8 -1L11.15 -1Q10.7 0.45 8.65 -0.2Q9.65 -0.95 10.8 -1" />
<path style="fill:#3C3229;fill-opacity:0.988235" d="M9.6 0.95Q8.1 1.05 7.95 0.3L8.65 -0.2Q10.7 0.45 11.15 -1L11.6 -1.05L12.1 -0.3Q10.8 1.25 11.15 1.75L10.45 2.15Q10.75 1.4 9.6 0.95" />
<path style="fill:#251E18;fill-opacity:0.988235" d="M7.95 0.3Q8.1 1.05 9.6 0.95Q10.75 1.4 10.45 2.15L9.95 2.45Q9.45 0.9 8 1.45L7.5 0.6Q7.7 0.4 7.95 0.3" />
<path style="fill:none;stroke-width:0.7;stroke-linecap:round;stroke-linejoin:round;stroke-miterlimit:3;stroke:#000000;stroke-opacity:0.301961" d="M10.45 2.15L11.15 1.75Q10.8 1.25 12.1 -0.3L11.6 -1.05L11.15 -1" />
<path style="fill:none;stroke-width:0.7;stroke-linecap:round;stroke-linejoin:round;stroke-miterlimit:3;stroke:#000000;stroke-opacity:0.301961" d="M8.65 -0.2L7.95 0.3" />
<path style="fill:none;stroke-width:0.7;stroke-linecap:round;stroke-linejoin:round;stroke-miterlimit:3;stroke:#000000;stroke-opacity:0.301961" d="M10.45 2.15L9.95 2.45Q9.45 0.9 8 1.45L7.5 0.6Q7.7 0.4 7.95 0.3" />
<path style="fill:none;stroke-width:0.7;stroke-linecap:round;stroke-linejoin:round;stroke-miterlimit:3;stroke:#000000;stroke-opacity:0.301961" d="M11.15 -1L10.8 -1Q9.65 -0.95 8.65 -0.2" />
</g>
</svg>
