<?xml version="1.0" encoding="utf-8"?>
<svg version="1.1" id="Layer_1"
xmlns="http://www.w3.org/2000/svg"
xmlns:xlink="http://www.w3.org/1999/xlink"
width="11px" height="8px"
xml:space="preserve">
<g id="PathID_14" transform="matrix(1, 0, 0, 1, 3.85, 4)">
<path style="fill:#1E1311;fill-opacity:1" d="M-3.7 -1.1L-3.85 -2.05Q-3.85 -3 -3.15 -3.5Q-2.65 -4.1 -1.6 -4L-0.6 -3.8Q1.05 -3.3 1.7 -2.25L2.85 -0.35L3.55 0.4L4.55 0.95Q6.85 1.05 6.9 1.7L6.5 2.4Q5.8 3.3 4.1 3.6L2.65 3.7L1.35 3.3L-1.3 1.4Q-3.15 0.25 -3.7 -1.1" />
<path style="fill:none;stroke-width:0.7;stroke-linecap:round;stroke-linejoin:round;stroke-miterlimit:3;stroke:#000000;stroke-opacity:0.301961" d="M2.85 -0.35L3.55 0.4L4.55 0.95Q6.85 1.05 6.9 1.7L6.5 2.4Q5.8 3.3 4.1 3.6L2.65 3.7L1.35 3.3L-1.3 1.4Q-3.15 0.25 -3.7 -1.1" />
</g>
</svg>
