<?xml version="1.0" encoding="utf-8"?>
<svg version="1.1" id="Layer_1"
xmlns="http://www.w3.org/2000/svg"
xmlns:xlink="http://www.w3.org/1999/xlink"
width="21px" height="20px"
xml:space="preserve">
<g id="PathID_933" transform="matrix(1, 0, 0, 1, 10.6, 9.3)">
<path style="fill:#1E1D1D;fill-opacity:1" d="M9.5 -2.25Q9.05 -4.45 8.05 -4.95Q7.25 -4.4 6 -4.05Q4.95 -6.4 1.75 -6.55Q0.05 -6.3 -1.5 -5.2Q-2.35 -5.95 -2.7 -7.05Q-1.75 -7.6 1.15 -8.65Q5.3 -10.15 6.5 -8.15Q7.5 -8.55 8.55 -6.2Q9.45 -4.3 9.65 -2.75L9.7 -2.15L9.75 0.25L9.85 3.5L9.5 -2.25M9.85 3.5Q10 7.4 5.5 8.85L3.7 9.35L4.55 7.85Q9.15 5.25 9.4 2.9L9.6 1.55L9.75 0.25M-7.3 6.5L-6.5 8.35L-8.35 7.2Q-10.85 5.35 -10.4 3.4Q-9.95 1.4 -8.75 -0.15Q-9.75 4.55 -7.3 6.5" />
<path style="fill:#303030;fill-opacity:1" d="M-3.9 -3.2Q-3.1 -3.05 -2.75 -3.2Q-3.35 -2.75 -4.45 -2.55Q-4.65 -2.3 -3.6 -1.8Q-5.75 -0.7 -6.3 0.3Q-7.75 3.4 -7.3 6.5Q-9.75 4.55 -8.75 -0.15L-6.55 -2.7L-5.9 -1.65Q-5.7 -3.35 -4.85 -4.7L-2.7 -7.05Q-2.35 -5.95 -1.5 -5.2L-3.9 -3.2M7.6 3Q8.85 2.75 9.6 1.55L9.4 2.9Q9.15 5.25 4.55 7.85Q5.95 5.45 6.45 2.4Q6.55 1.4 5.9 -0.35Q6.85 0.2 6.9 -0.05Q6.05 -1 5.9 -1.5L7.55 -1L6 -4.05Q7.25 -4.4 8.05 -4.95Q9.05 -4.45 9.5 -2.25Q9.1 0.5 7.6 3" />
<linearGradient
id="LinearGradID_275" gradientUnits="userSpaceOnUse" gradientTransform="matrix(-0.00111389, 0.00663757, -0.00740051, -0.0012207, 4.25, 5.05)" spreadMethod ="pad" x1="-819.2" y1="0" x2="819.2" y2="0" >
<stop  offset="0" style="stop-color:#E5D8C7;stop-opacity:1" />
<stop  offset="0.929412" style="stop-color:#877869;stop-opacity:1" />
</linearGradient>
<path style="fill:url(#LinearGradID_275) " d="M-1.9 7.55Q-6.65 6.95 -7.3 6.5Q-7.75 3.4 -6.3 0.3Q-5.75 -0.7 -3.6 -1.8Q-4.65 -2.3 -4.45 -2.55Q-3.35 -2.75 -2.75 -3.2Q-3.1 -3.05 -3.9 -3.2L-1.5 -5.2Q-0.05 -3.9 2.95 -3.6L6 -4.05L7.55 -1L5.9 -1.5Q6.05 -1 6.9 -0.05Q6.85 0.2 5.9 -0.35Q6.55 1.4 6.45 2.4Q5.95 5.45 4.55 7.85L-1.9 7.55M-1.45 -1.1Q-1.3 -1.8 -0.3 -2.55L-1.7 -2.65Q-1.45 -3.45 0.15 -3.95Q-1.45 -3.45 -1.7 -2.65L-0.3 -2.55Q-1.3 -1.8 -1.45 -1.1" />
<path style="fill:#978778;fill-opacity:1" d="M2.95 -3.6Q-0.05 -3.9 -1.5 -5.2Q0.05 -6.3 1.75 -6.55Q4.95 -6.4 6 -4.05L2.95 -3.6" />
<path style="fill:#A38F74;fill-opacity:1" d="M9.6 1.55Q8.85 2.75 7.6 3Q9.1 0.5 9.5 -2.25L9.75 0.25L9.6 1.55M-6.55 -2.7L-4.85 -4.7Q-5.7 -3.35 -5.9 -1.65L-6.55 -2.7" />
<path style="fill:#857669;fill-opacity:1" d="M-7.3 6.5Q-6.65 6.95 -1.9 7.55L4.55 7.85L3.7 9.35L-2.45 9.65L-6.5 8.35L-7.3 6.5" />
<path style="fill:none;stroke-width:0.7;stroke-linecap:round;stroke-linejoin:miter;stroke-miterlimit:5;stroke:#000000;stroke-opacity:0.4" d="M9.75 0.25L9.7 -2.15L9.65 -2.75Q9.45 -4.3 8.55 -6.2Q7.5 -8.55 6.5 -8.15" />
<path style="fill:none;stroke-width:0.7;stroke-linecap:round;stroke-linejoin:miter;stroke-miterlimit:5;stroke:#000000;stroke-opacity:0.4" d="M1.15 -8.65Q-1.75 -7.6 -2.7 -7.05" />
<path style="fill:none;stroke-width:0.7;stroke-linecap:round;stroke-linejoin:miter;stroke-miterlimit:5;stroke:#000000;stroke-opacity:0.4" d="M9.75 0.25L9.85 3.5Q10 7.4 5.5 8.85L3.7 9.35L-2.45 9.65L-6.5 8.35L-8.35 7.2Q-10.85 5.35 -10.4 3.4Q-9.95 1.4 -8.75 -0.15L-6.55 -2.7L-4.85 -4.7L-2.7 -7.05" />
<path style="fill:none;stroke-width:0.7;stroke-linecap:round;stroke-linejoin:miter;stroke-miterlimit:5;stroke:#000000;stroke-opacity:0.4" d="M0.15 -3.95Q-1.45 -3.45 -1.7 -2.65L-0.3 -2.55Q-1.3 -1.8 -1.45 -1.1" />
</g>
</svg>
