<?xml version="1.0" encoding="utf-8"?>
<svg version="1.1" id="Layer_1"
xmlns="http://www.w3.org/2000/svg"
xmlns:xlink="http://www.w3.org/1999/xlink"
width="15px" height="14px"
xml:space="preserve">
<g id="PathID_802" transform="matrix(1, 0, 0, 1, 7.2, 6.9)">
<radialGradient
id="RadialGradID_241" gradientUnits="userSpaceOnUse" gradientTransform="matrix(0.0156555, 0.00257874, -0.00294495, 0.0178833, 5.7, 3.1)" spreadMethod ="pad" cx="0" cy="0" r="819.2" fx="35" fy="0" >
<stop  offset="0.301961"  style="stop-color:#402300;stop-opacity:1" />
<stop  offset="0.619608"  style="stop-color:#98400E;stop-opacity:1" />
<stop  offset="1"  style="stop-color:#98400E;stop-opacity:1" />
</radialGradient>
<path style="fill:url(#RadialGradID_241) " d="M5.15 2.55Q3.25 5.45 0.2 5.1Q-4.45 4.55 -5.8 0.65Q-6.5 -1.3 -6.25 -3.15L-5.3 -4.5Q-4.1 -5.95 -2.6 -6.5Q0.15 -7.45 2.8 -6L4.95 -4.35L6.2 -2.5Q6.85 -0.05 5.15 2.55" />
<radialGradient
id="RadialGradID_242" gradientUnits="userSpaceOnUse" gradientTransform="matrix(0.0177307, 0.0032959, -0.00401306, 0.0215149, 5.6, 3.25)" spreadMethod ="pad" cx="0" cy="0" r="819.2" fx="35" fy="0" >
<stop  offset="0.211765"  style="stop-color:#2A180C;stop-opacity:1" />
<stop  offset="0.564706"  style="stop-color:#652501;stop-opacity:1" />
</radialGradient>
<path style="fill:url(#RadialGradID_242) " d="M6.2 -2.5Q7.55 0.95 6.7 3.65L6.35 2.9L5.5 4.4L4.2 5.8Q2.5 7.05 0 6.85Q-3 6.55 -4.85 4.55L-4.3 6.05Q-5.7 4.7 -6.4 2.05L-6.8 3.35Q-7.55 -0.5 -6.25 -3.15Q-6.5 -1.3 -5.8 0.65Q-4.45 4.55 0.2 5.1Q3.25 5.45 5.15 2.55Q6.85 -0.05 6.2 -2.5" />
<path style="fill:none;stroke-width:0.7;stroke-linecap:round;stroke-linejoin:miter;stroke-miterlimit:5;stroke:#000000;stroke-opacity:0.4" d="M4.95 -4.35L6.2 -2.5Q7.55 0.95 6.7 3.65L6.35 2.9L5.5 4.4L4.2 5.8Q2.5 7.05 0 6.85Q-3 6.55 -4.85 4.55L-4.3 6.05Q-5.7 4.7 -6.4 2.05L-6.8 3.35Q-7.55 -0.5 -6.25 -3.15L-5.3 -4.5Q-4.1 -5.95 -2.6 -6.5" />
</g>
</svg>
