<?xml version="1.0" encoding="utf-8"?>
<svg version="1.1" id="Layer_1"
xmlns="http://www.w3.org/2000/svg"
xmlns:xlink="http://www.w3.org/1999/xlink"
width="20px" height="15px"
xml:space="preserve">
<g id="PathID_694" transform="matrix(1, 0, 0, 1, 8.9, 7.35)">
<path style="fill:#484848;fill-opacity:1" d="M-2 3.5Q-7.4 3 -6.35 0.9Q-9.05 1.25 -7.05 -1.35L-7.5 -1.15Q-9 -1 -8.7 -2.4Q-8.15 -3.4 -6.1 -4.05Q-8.25 -4.7 -7.25 -5.8Q-6.2 -6.95 -4.05 -6.3L-2.6 -7.2L0.8 -6.85Q3.9 -6.05 5.55 -4.15Q7 -2.5 7.15 0.7L7 3.6Q3.35 3.95 -2 3.5" />
<path style="fill:#333131;fill-opacity:1" d="M-7.5 -1.15L-7.05 -1.35Q-9.05 1.25 -6.35 0.9Q-7.4 3 -2 3.5Q3.35 3.95 7 3.6L7.55 4.85Q8.5 6.25 10.65 6.85L9 6.9Q3.4 7.05 1.15 6.8L-1 6.4Q-2.6 7.85 -3.6 5.65Q-6.9 6.9 -5.85 3.9Q-9.1 4.25 -7.8 1.4Q-9.25 0.5 -7.5 -1.15" />
<path style="fill:none;stroke-width:0.7;stroke-linecap:round;stroke-linejoin:miter;stroke-miterlimit:5;stroke:#000000;stroke-opacity:0.439216" d="M-2.6 -7.2L-4.05 -6.3Q-6.2 -6.95 -7.25 -5.8Q-8.25 -4.7 -6.1 -4.05Q-8.15 -3.4 -8.7 -2.4Q-9 -1 -7.5 -1.15L-7.05 -1.35" />
<path style="fill:none;stroke-width:0.7;stroke-linecap:round;stroke-linejoin:miter;stroke-miterlimit:5;stroke:#000000;stroke-opacity:0.439216" d="M1.15 6.8L-1 6.4Q-2.6 7.85 -3.6 5.65Q-6.9 6.9 -5.85 3.9Q-9.1 4.25 -7.8 1.4Q-9.25 0.5 -7.5 -1.15" />
</g>
<g id="PathID_695" transform="matrix(1, 0, 0, 1, 8.9, 7.35)">
<path style="fill:#D3D3D3;fill-opacity:1" d="M-4.85 -4.5Q-3.45 -4.8 -3.4 -6.15Q-3.3 -4.45 -2.05 -3.75Q-3.3 -3.75 -3.5 -2.4Q-3.7 -4.05 -4.85 -4.5M-0.75 1.3Q-0.7 2.75 0.7 3.2Q-0.45 3.6 -0.65 5.15Q-0.85 3.75 -2.1 3.6Q-0.85 3.05 -0.75 1.3" />
</g>
</svg>
