<?xml version="1.0" encoding="utf-8"?>
<svg version="1.1" id="Layer_1"
xmlns="http://www.w3.org/2000/svg"
xmlns:xlink="http://www.w3.org/1999/xlink"
width="23px" height="20px"
xml:space="preserve">
<g id="PathID_831" transform="matrix(1, 0, 0, 1, 10.6, 9.3)">
<path style="fill:#A6B7BB;fill-opacity:1" d="M-8.65 4.15Q-7.55 6.6 -4.35 7.8Q1.75 10.15 5.95 7.55Q9.1 5.6 9.4 2.9Q10.15 -3.95 8.05 -4.95L5.75 -4.15L2.95 -3.6Q1.55 -3.75 -0.55 -5.1Q-2.5 -6.4 -2.7 -7.05Q-1.75 -7.6 1.15 -8.65Q5.3 -10.15 6.5 -8.15Q7.5 -8.55 8.55 -6.2Q9.1 -5.1 10.05 -4.6Q11.75 -3.15 10.6 -2.2Q11.65 0.55 11.3 1.3Q10.95 2.05 10.6 2.15Q10.25 2.2 10.1 2.5Q9.8 3.1 9.85 3.5Q9.95 6.35 7.6 8.25Q4.35 10.85 -2.45 9.65Q-6.75 8.9 -9 6.6Q-10.7 4.8 -10.4 3.4Q-9.95 1.4 -8.75 -0.15Q-9.55 2.05 -8.65 4.15" />
<path style="fill:#DEE7EA;fill-opacity:1" d="M-2.7 -7.05Q-2.5 -6.4 -0.55 -5.1Q1.55 -3.75 2.95 -3.6L5.75 -4.15L8.05 -4.95Q10.15 -3.95 9.4 2.9Q9.1 5.6 5.95 7.55Q1.75 10.15 -4.35 7.8Q-7.55 6.6 -8.65 4.15Q-9.55 2.05 -8.75 -0.15L-7.3 -1.7Q-9.3 -2.9 -5.3 -4.85Q-6.2 -6.35 -2.7 -7.05" />
<path style="fill:none;stroke-width:0.7;stroke-linecap:round;stroke-linejoin:miter;stroke-miterlimit:5;stroke:#003846;stroke-opacity:0.329412" d="M-8.75 -0.15Q-9.95 1.4 -10.4 3.4Q-10.7 4.8 -9 6.6Q-6.75 8.9 -2.45 9.65Q4.35 10.85 7.6 8.25Q9.95 6.35 9.85 3.5Q9.8 3.1 10.1 2.5Q10.25 2.2 10.6 2.15Q10.95 2.05 11.3 1.3Q11.65 0.55 10.6 -2.2Q11.75 -3.15 10.05 -4.6Q9.1 -5.1 8.55 -6.2Q7.5 -8.55 6.5 -8.15" />
<path style="fill:none;stroke-width:0.7;stroke-linecap:round;stroke-linejoin:miter;stroke-miterlimit:5;stroke:#003846;stroke-opacity:0.329412" d="M1.15 -8.65Q-1.75 -7.6 -2.7 -7.05" />
<path style="fill:none;stroke-width:0.7;stroke-linecap:round;stroke-linejoin:miter;stroke-miterlimit:5;stroke:#003846;stroke-opacity:0.329412" d="M-8.75 -0.15L-7.3 -1.7Q-9.3 -2.9 -5.3 -4.85Q-6.2 -6.35 -2.7 -7.05" />
</g>
</svg>
