<?xml version="1.0" encoding="utf-8"?>
<svg version="1.1" id="Layer_1"
xmlns="http://www.w3.org/2000/svg"
xmlns:xlink="http://www.w3.org/1999/xlink"
width="20px" height="21px"
xml:space="preserve">
<g id="PathID_248" transform="matrix(1, 0, 0, 1, 9.55, 9.85)">
<path style="fill:#4A402B;fill-opacity:1" d="M6.7 -9.15Q8.1 -5.4 7.9 -2.3Q6.3 9.65 -3.85 6.8Q-10.95 3.7 -7.85 -2.15L-7.15 -2.85L-7.1 -2.9L-5.7 -4.2L-5 -4.9L-4.9 -5L-2.1 -7.3L0.2 -9.15Q4.85 -10.5 6.7 -9.15" />
<path style="fill:#382E1B;fill-opacity:1" d="M-3.85 6.8Q6.3 9.65 7.9 -2.3Q8.1 -5.4 6.7 -9.15Q7.5 -8.55 8.6 -6.35Q9.65 -4.2 9.25 -1.55L8.65 4.05Q8.5 7.05 5.45 8.75Q2.4 10.45 -1.15 10.15Q-4.75 9.8 -7.2 7.25Q-9.65 4.65 -9.4 1.9Q-9.25 0.05 -7.85 -2.15Q-10.95 3.7 -3.85 6.8" />
<path style="fill:none;stroke-width:0.7;stroke-linecap:round;stroke-linejoin:miter;stroke-miterlimit:5;stroke:#000000;stroke-opacity:0.4" d="M-7.85 -2.15Q-9.25 0.05 -9.4 1.9Q-9.65 4.65 -7.2 7.25Q-4.75 9.8 -1.15 10.15Q2.4 10.45 5.45 8.75Q8.5 7.05 8.65 4.05L9.25 -1.55Q9.65 -4.2 8.6 -6.35Q7.5 -8.55 6.7 -9.15" />
<path style="fill:none;stroke-width:0.7;stroke-linecap:round;stroke-linejoin:miter;stroke-miterlimit:5;stroke:#000000;stroke-opacity:0.4" d="M-7.85 -2.15L-7.15 -2.85" />
<path style="fill:none;stroke-width:0.7;stroke-linecap:round;stroke-linejoin:miter;stroke-miterlimit:5;stroke:#000000;stroke-opacity:0.4" d="M-7.1 -2.9L-5.7 -4.2L-5 -4.9L-4.9 -5L-2.1 -7.3L0.2 -9.15" />
</g>
</svg>
