<?xml version="1.0" encoding="utf-8"?>
<svg version="1.1" id="Layer_1"
xmlns="http://www.w3.org/2000/svg"
xmlns:xlink="http://www.w3.org/1999/xlink"
width="14px" height="14px"
xml:space="preserve">
<g id="PathID_1083" transform="matrix(1, 0, 0, 1, 7, 6.9)">
<radialGradient
id="RadialGradID_306" gradientUnits="userSpaceOnUse" gradientTransform="matrix(0.0116425, 0.00671387, -0.00880432, 0.0152588, 4.95, 2.45)" spreadMethod ="pad" cx="0" cy="0" r="819.2" fx="0" fy="0" >
<stop  offset="0"  style="stop-color:#EEE7DD;stop-opacity:1" />
<stop  offset="0.231373"  style="stop-color:#E7D9CA;stop-opacity:1" />
<stop  offset="0.678431"  style="stop-color:#D87F01;stop-opacity:1" />
<stop  offset="1"  style="stop-color:#B25807;stop-opacity:1" />
</radialGradient>
<path style="fill:url(#RadialGradID_306) " d="M6.45 1.85Q6.15 2.9 5.45 3.65Q3.9 5.2 1.25 5.15Q-4.35 4.4 -5.8 0.7Q-6.45 -0.95 -6.25 -3.2L-5.4 -4.45L-5.4 -4.5Q-4.05 -5.9 -2.6 -6.5L0 -6.8Q2.85 -6.65 4.8 -4.55L5.55 -3.65L5.75 -3.35L6.2 -2.5Q6.9 0.1 6.45 1.85" />
<radialGradient
id="RadialGradID_307" gradientUnits="userSpaceOnUse" gradientTransform="matrix(0.0106201, 0, 0, 0.0106201, 5.45, 3.65)" spreadMethod ="pad" cx="0" cy="0" r="819.2" fx="0" fy="0" >
<stop  offset="0"  style="stop-color:#CBBEAB;stop-opacity:1" />
<stop  offset="0.231373"  style="stop-color:#BDAB97;stop-opacity:1" />
<stop  offset="0.678431"  style="stop-color:#AA6400;stop-opacity:1" />
<stop  offset="1"  style="stop-color:#853F00;stop-opacity:1" />
</radialGradient>
<path style="fill:url(#RadialGradID_307) " d="M6.2 -2.5Q6.8 -1.15 6.8 0.4L6.7 1.7Q6.3 3.7 4.8 5.15Q2.85 7 0 6.85Q-1.8 6.75 -3.25 5.9L-4.85 4.55Q-6.55 2.8 -6.8 0.5L-6.85 -0.4Q-6.85 -1.95 -6.25 -3.2Q-6.45 -0.95 -5.8 0.7Q-4.35 4.4 1.25 5.15Q3.9 5.2 5.45 3.65Q6.15 2.9 6.45 1.85Q6.9 0.1 6.2 -2.5" />
<path style="fill:none;stroke-width:0.7;stroke-linecap:round;stroke-linejoin:miter;stroke-miterlimit:5;stroke:#000000;stroke-opacity:0.4" d="M5.55 -3.65L5.75 -3.35L6.2 -2.5Q6.8 -1.15 6.8 0.4L6.7 1.7Q6.3 3.7 4.8 5.15Q2.85 7 0 6.85Q-1.8 6.75 -3.25 5.9L-4.85 4.55Q-6.55 2.8 -6.8 0.5L-6.85 -0.4Q-6.85 -1.95 -6.25 -3.2L-5.4 -4.45L-5.4 -4.5Q-4.05 -5.9 -2.6 -6.5" />
</g>
<g id="PathID_1084" transform="matrix(1, 0, 0, 1, 7, 6.9)">
<path style="fill:#342F19;fill-opacity:1" d="M0 -5.1Q-1.4 -5.35 -2.05 -6.65L-0.8 -6.9Q-0.95 -6.3 -0.2 -5.9Q1.15 -5.4 1.1 -4.25L0 -5.1M-6 -0.75L-5.4 0.15L-4.25 0.35Q-3.05 0.35 -2.35 1.5Q-1.7 2.6 -0.5 3.2Q-3.9 2.35 -5.6 1.25L-6 -0.75M-3.5 -3.8Q-3.05 -3.1 -2.3 -3.2Q-1.3 -3.05 -0.9 -1.55Q-0.55 -0.1 1.45 0.75Q-1.6 0.2 -2.35 -1.7Q-2.3 -2.35 -3.5 -1.8Q-4.75 -1.25 -5.55 -4.4L-3.85 -5.95Q-4 -4.45 -3.5 -3.8M-3.3 3.9Q-1.4 3.2 -1.25 4.2L-2.1 4.35L-3.3 3.9" />
<path style="fill:#151208;fill-opacity:1" d="M-5.6 1.25L-6.9 0.05Q-6.9 -1.7 -6.5 -2.5L-6.1 -0.95L-6 -0.75L-5.6 1.25M-3.3 3.9L-2.1 4.35L-2.4 4.7Q-2.9 5.1 -4.05 5.3L-5.75 3.55Q-3.7 4.35 -3.3 3.9" />
</g>
</svg>
