<?xml version="1.0" encoding="utf-8"?>
<svg version="1.1" id="Layer_1"
xmlns="http://www.w3.org/2000/svg"
xmlns:xlink="http://www.w3.org/1999/xlink"
width="23px" height="21px"
xml:space="preserve">
<g id="PathID_700" transform="matrix(1, 0, 0, 1, 9.55, 9.85)">
<radialGradient
id="RadialGradID_229" gradientUnits="userSpaceOnUse" gradientTransform="matrix(0.012619, 0, 0, 0.021637, 7.8, -3.4)" spreadMethod ="pad" cx="0" cy="0" r="819.2" fx="28" fy="0" >
<stop  offset="0.0196078"  style="stop-color:#7B7877;stop-opacity:1" />
<stop  offset="1"  style="stop-color:#333131;stop-opacity:1" />
</radialGradient>
<path style="fill:url(#RadialGradID_229) " d="M-1.55 7.3Q5.9 8.15 7.65 -0.8Q8.5 0.15 8.9 -0.6Q9.3 -1.35 8.95 -2.75L10.15 -2.55Q11.2 -2.4 11.05 -3.5Q10.9 -4.6 7.8 -5.85L6.7 -9.15L7.5 -7.9L8.3 -6.8Q11.6 -6.95 12.5 -5.6Q13.35 -4.25 11.55 -4.1Q13.5 -1.4 9.85 -1.2L9.4 -2.35Q10 0.1 9.8 0.75Q9.1 1.05 8.8 0.75Q8.9 3.5 7.85 5.85Q5.9 9.95 0.9 10.15Q-1.2 8.9 -1.55 7.3M9.4 -2.35L9.85 -1.2" />
<radialGradient
id="RadialGradID_230" gradientUnits="userSpaceOnUse" gradientTransform="matrix(0.0118256, 0, 0, 0.0135651, 7.8, -1.6)" spreadMethod ="pad" cx="0" cy="0" r="819.2" fx="210505" fy="0" >
<stop  offset="0"  style="stop-color:#B2AAA7;stop-opacity:1" />
<stop  offset="1"  style="stop-color:#484848;stop-opacity:1" />
</radialGradient>
<path style="fill:url(#RadialGradID_230) " d="M1.55 -9.5Q5.15 -10.3 6.7 -9.15L7.8 -5.85Q10.9 -4.6 11.05 -3.5Q11.2 -2.4 10.15 -2.55L8.95 -2.75Q9.3 -1.35 8.9 -0.6Q8.5 0.15 7.65 -0.8Q5.9 8.15 -1.55 7.3Q-6.5 -2.6 1.55 -9.5" />
<path style="fill:#484848;fill-opacity:1" d="M-1.55 7.3Q-7.05 5.8 -8 1.7Q-8.45 -0.4 -7.85 -2.15L-7.15 -2.7Q-8.25 -3.25 -7.6 -4Q-6.9 -4.8 -5.3 -4.8Q-6.25 -5.55 -5.05 -6.55Q-3.9 -7.6 -2.15 -7.2L0.2 -9.15L1.55 -9.5Q-6.5 -2.6 -1.55 7.3" />
<path style="fill:#333131;fill-opacity:1" d="M-1.55 7.3Q-1.2 8.9 0.9 10.15L0.6 10.15L-1.15 10.15Q-4.75 9.8 -7.2 7.25Q-9.65 4.65 -9.4 1.9Q-9.3 0.7 -8.7 -0.6L-7.85 -2.15Q-8.45 -0.4 -8 1.7Q-7.05 5.8 -1.55 7.3" />
<path style="fill:none;stroke-width:0.7;stroke-linecap:round;stroke-linejoin:miter;stroke-miterlimit:5;stroke:#000000;stroke-opacity:0.501961" d="M6.7 -9.15L7.5 -7.9L8.3 -6.8Q11.6 -6.95 12.5 -5.6Q13.35 -4.25 11.55 -4.1Q13.5 -1.4 9.85 -1.2Q10 0.1 9.8 0.75Q9.1 1.05 8.8 0.75Q8.9 3.5 7.85 5.85Q5.9 9.95 0.9 10.15L0.6 10.15L-1.15 10.15Q-4.75 9.8 -7.2 7.25Q-9.65 4.65 -9.4 1.9Q-9.3 0.7 -8.7 -0.6L-7.85 -2.15L-7.15 -2.7Q-8.25 -3.25 -7.6 -4Q-6.9 -4.8 -5.3 -4.8Q-6.25 -5.55 -5.05 -6.55Q-3.9 -7.6 -2.15 -7.2L0.2 -9.15" />
<path style="fill:none;stroke-width:0.7;stroke-linecap:round;stroke-linejoin:miter;stroke-miterlimit:5;stroke:#000000;stroke-opacity:0.501961" d="M9.4 -2.35L9.85 -1.2" />
</g>
</svg>
