<?xml version="1.0" encoding="utf-8"?>
<svg version="1.1" id="Layer_1"
xmlns="http://www.w3.org/2000/svg"
xmlns:xlink="http://www.w3.org/1999/xlink"
width="15px" height="16px"
xml:space="preserve">
<g id="PathID_8" transform="matrix(1, 0, 0, 1, 4.1, 0.9)">
<path style="fill:#585452;fill-opacity:1" d="M-1.05 14.5L-3.05 13.1Q-3.8 12.35 -4.1 11.05L0.1 11.55L0.4 11.7L0.45 11.7L3.15 12.6Q1.65 13.75 -1.05 14.5" />
<path style="fill:#828282;fill-opacity:1" d="M4.7 10.55Q4.25 11.7 3.15 12.6L0.45 11.7L0.4 11.7L0.1 11.55Q2.35 11.45 4.7 10.55" />
<path style="fill:#8D8986;fill-opacity:1" d="M7.2 -0.6Q6.4 0.55 7.75 1.1Q9.2 1.9 9.9 1.1L10.9 2.2L10.45 3.1L9.5 3.15Q8.4 3.15 6.95 2.25Q5.3 1.25 5.3 0.1L5.6 -0.9L7.2 -0.6M2.25 3.1Q-1.45 2.55 -3.3 4.05L-2.75 2.85L-1.75 1.65L-1.6 1.5Q1.9 0 5.1 2.2Q7.95 5.25 6.45 8.2Q7.65 5.3 2.25 3.1" />
</g>
</svg>
