<?xml version="1.0" encoding="utf-8"?>
<svg version="1.1" id="Layer_1"
xmlns="http://www.w3.org/2000/svg"
xmlns:xlink="http://www.w3.org/1999/xlink"
width="20px" height="14px"
xml:space="preserve">
<g id="PathID_61" transform="matrix(1, 0, 0, 1, 8.9, 6.65)">
<radialGradient
id="RadialGradID_17" gradientUnits="userSpaceOnUse" gradientTransform="matrix(0.0189972, 0, 0, 0.0189972, 5, -6)" spreadMethod ="pad" cx="0" cy="0" r="819.2" fx="0" fy="0" >
<stop  offset="0.54902"  style="stop-color:#736354;stop-opacity:1" />
<stop  offset="0.862745"  style="stop-color:#43290F;stop-opacity:1" />
</radialGradient>
<path style="fill:url(#RadialGradID_17) " d="M-2 3.5Q-7.4 3.05 -6.35 1.1Q-9.05 1.4 -7.05 -1.05L-7.5 -0.85Q-9 -0.7 -8.7 -2Q-8.15 -2.95 -6.1 -3.55Q-8.25 -4.15 -7.25 -5.2Q-6.2 -6.3 -4.05 -5.65L-2.6 -6.5L0.8 -6.2Q3.9 -5.45 5.55 -3.65Q7 -2.1 7.15 0.9L7 3.6Q3.35 3.95 -2 3.5" />
<radialGradient
id="RadialGradID_18" gradientUnits="userSpaceOnUse" gradientTransform="matrix(0.0164795, 0, 0, 0.0164795, 2.15, -4.3)" spreadMethod ="pad" cx="0" cy="0" r="819.2" fx="6" fy="0" >
<stop  offset="0.486275"  style="stop-color:#433426;stop-opacity:1" />
<stop  offset="0.894118"  style="stop-color:#1C1106;stop-opacity:1" />
</radialGradient>
<path style="fill:url(#RadialGradID_18) " d="M-7.5 -0.85L-7.05 -1.05Q-9.05 1.4 -6.35 1.1Q-7.4 3.05 -2 3.5Q3.35 3.95 7 3.6L7.55 4.8Q8.5 6.1 10.65 6.65L9 6.7Q3.4 6.85 1.15 6.6L-1 6.25Q-2.6 7.6 -3.6 5.55Q-6.9 6.7 -5.85 3.9Q-9.1 4.2 -7.8 1.55Q-9.25 0.7 -7.5 -0.85" />
<path style="fill:none;stroke-width:0.7;stroke-linecap:round;stroke-linejoin:round;stroke-miterlimit:3;stroke:#000000;stroke-opacity:0.4" d="M-2.6 -6.5L-4.05 -5.65Q-6.2 -6.3 -7.25 -5.2Q-8.25 -4.15 -6.1 -3.55Q-8.15 -2.95 -8.7 -2Q-9 -0.7 -7.5 -0.85L-7.05 -1.05" />
<path style="fill:none;stroke-width:0.7;stroke-linecap:round;stroke-linejoin:round;stroke-miterlimit:3;stroke:#000000;stroke-opacity:0.4" d="M1.15 6.6L-1 6.25Q-2.6 7.6 -3.6 5.55Q-6.9 6.7 -5.85 3.9Q-9.1 4.2 -7.8 1.55Q-9.25 0.7 -7.5 -0.85" />
</g>
</svg>
