<?xml version="1.0" encoding="utf-8"?>
<svg version="1.1" id="Layer_1"
xmlns="http://www.w3.org/2000/svg"
xmlns:xlink="http://www.w3.org/1999/xlink"
width="51px" height="34px"
xml:space="preserve">
<g id="PathID_160" transform="matrix(1, 0, 0, 1, 25.2, 18.1)">
<path style="fill:#EFE7DA;fill-opacity:1" d="M-4.1 -5.5L0.2 -9.15Q4.85 -10.5 6.7 -9.15L7.45 -5.8L7.9 -2.3Q6.5 8.25 -1.55 7.3L-3.85 6.8Q-6.5 5.65 -7.45 1.8Q-8.25 -1.25 -7.85 -2.15L-4.1 -5.5" />
<path style="fill:#988777;fill-opacity:1" d="M8.6 -6.35L8.95 -5.5Q9.6 -3.7 9.25 -1.55L8.65 4.05Q8.5 7.05 5.45 8.75Q4.45 9.3 1.8 9.8L-1.15 10.15Q-4.75 9.8 -7.2 7.25Q-9.65 4.65 -9.4 1.9Q-9.3 0.7 -8.7 -0.6L-7.85 -2.15Q-8.25 -1.25 -7.45 1.8Q-6.5 5.65 -3.85 6.8L-1.55 7.3Q6.5 8.25 7.9 -2.3L7.45 -5.8L6.7 -9.15Q7.5 -8.55 8.6 -6.35" />
<path style="fill:none;stroke-width:0.7;stroke-linecap:round;stroke-linejoin:miter;stroke-miterlimit:5;stroke:#000000;stroke-opacity:0.4" d="M-7.85 -2.15L-8.7 -0.6Q-9.3 0.7 -9.4 1.9Q-9.65 4.65 -7.2 7.25Q-4.75 9.8 -1.15 10.15L1.8 9.8Q4.45 9.3 5.45 8.75Q8.5 7.05 8.65 4.05L9.25 -1.55Q9.6 -3.7 8.95 -5.5L8.6 -6.35Q7.5 -8.55 6.7 -9.15" />
<path style="fill:none;stroke-width:0.7;stroke-linecap:round;stroke-linejoin:miter;stroke-miterlimit:5;stroke:#000000;stroke-opacity:0.4" d="M0.2 -9.15L-4.1 -5.5L-7.85 -2.15" />
</g>
<g id="PathID_161" transform="matrix(1, 0, 0, 1, 25.2, 18.1)">
<linearGradient
id="LinearGradID_79" gradientUnits="userSpaceOnUse" gradientTransform="matrix(0, 0.00860596, -0.0162506, -1.52588e-005, -0.9, 8.75)" spreadMethod ="pad" x1="-819.2" y1="0" x2="819.2" y2="0" >
<stop  offset="0" style="stop-color:#3A5311;stop-opacity:1" />
<stop  offset="1" style="stop-color:#243507;stop-opacity:1" />
</linearGradient>
<path style="fill:url(#LinearGradID_79) " d="M13.6 -3.4Q13.45 -0.95 15.5 0.8Q13.05 0.7 12.45 -0.65Q11.9 -2.5 12.05 -3.75Q11.9 -2.5 12.45 -0.65Q13.05 0.7 15.5 0.8Q13.45 -0.95 13.6 -3.4M15 -15.7Q20.5 -12.4 24.2 -14Q20.6 -11 17.25 -11.15Q14.35 -13.15 12.55 -15.5Q14.35 -13.15 17.25 -11.15Q20.05 -9.25 23.9 -7.7Q18.05 -6.15 14.85 -7.7Q14.2 -8.85 13.95 -10.2Q14.2 -8.85 14.85 -7.7Q17.2 -3.65 24.9 -3.25Q20.55 -0.5 15.9 -1.9Q19.7 0.2 25.3 0Q23.15 2.9 18.55 2.95Q19.9 3.65 22.1 4.4L18.55 4.5Q21.65 6.4 25.3 7.45Q23.35 10.45 17.8 9.55Q19.8 11.6 23.45 13.25Q17.1 14.25 11.55 10.95Q12.6 12.65 14.55 14.45Q10.5 13.15 7.85 11.15Q8.1 13.05 9.05 15.35Q3.6 13.8 1.85 10.4L3 14.25Q-1.4 12.6 -2.35 10.55Q-4.25 14.15 -8.3 14.9L-6.9 9.95Q-11.8 13.9 -17.15 13.65L-13.4 8.85Q-18.2 12.9 -25.2 9.8Q-21.75 8.1 -18.3 5.55Q-22.85 5.2 -24.7 0.8Q-19.05 1.1 -14.15 -3.5Q-19.2 -3.85 -21.6 -6.25Q-14.9 -5.85 -8.85 -8.95Q-14.2 -9.4 -16.95 -12.4Q-14.6 -11.45 -11.65 -11.65L-2.55 -17.85Q8.05 -18.85 15 -15.7M18.55 4.5L16.8 3.3L18.55 4.5M4.35 3.25Q7.05 7.65 13.35 9.1Q10.5 6.05 10.15 2.8Q12.15 4.85 15.4 6.65Q13.15 2.3 12.45 -0.65Q13.15 2.3 15.4 6.65Q12.15 4.85 10.15 2.8Q10.5 6.05 13.35 9.1Q7.05 7.65 4.35 3.25M10.55 9.05L11.55 10.95L10.55 9.05M17.8 9.55L16.8 8.35L17.8 9.55M7.85 11.15Q7.65 9.95 7.75 8.95Q7.65 9.95 7.85 11.15M10.15 2.8Q8.55 1.25 7.65 -0.4Q8.55 1.25 10.15 2.8M-11.65 -11.65Q-8.8 -11.8 -5.45 -13.05Q-8.8 -11.8 -11.65 -11.65M-10.7 -3.6L-14.15 -3.5L-10.7 -3.6M-4.95 -11.3L-8.85 -8.95L-4.95 -11.3M-18.3 5.55L-14.55 2.5L-18.3 5.55" />
<path style="fill:none;stroke-width:0.7;stroke-linecap:round;stroke-linejoin:round;stroke-miterlimit:3;stroke:#000000;stroke-opacity:0.4" d="M12.05 -3.75Q11.9 -2.5 12.45 -0.65Q13.05 0.7 15.5 0.8Q13.45 -0.95 13.6 -3.4" />
<path style="fill:none;stroke-width:0.7;stroke-linecap:round;stroke-linejoin:round;stroke-miterlimit:3;stroke:#000000;stroke-opacity:0.4" d="M13.95 -10.2Q14.2 -8.85 14.85 -7.7Q18.05 -6.15 23.9 -7.7Q20.05 -9.25 17.25 -11.15Q14.35 -13.15 12.55 -15.5" />
<path style="fill:none;stroke-width:0.7;stroke-linecap:round;stroke-linejoin:round;stroke-miterlimit:3;stroke:#000000;stroke-opacity:0.4" d="M15 -15.7Q20.5 -12.4 24.2 -14Q20.6 -11 17.25 -11.15" />
<path style="fill:none;stroke-width:0.7;stroke-linecap:round;stroke-linejoin:round;stroke-miterlimit:3;stroke:#000000;stroke-opacity:0.4" d="M14.85 -7.7Q17.2 -3.65 24.9 -3.25Q20.55 -0.5 15.9 -1.9Q19.7 0.2 25.3 0Q23.15 2.9 18.55 2.95Q19.9 3.65 22.1 4.4L18.55 4.5Q21.65 6.4 25.3 7.45Q23.35 10.45 17.8 9.55Q19.8 11.6 23.45 13.25Q17.1 14.25 11.55 10.95Q12.6 12.65 14.55 14.45Q10.5 13.15 7.85 11.15Q8.1 13.05 9.05 15.35Q3.6 13.8 1.85 10.4L3 14.25Q-1.4 12.6 -2.35 10.55Q-4.25 14.15 -8.3 14.9L-6.9 9.95Q-11.8 13.9 -17.15 13.65L-13.4 8.85Q-18.2 12.9 -25.2 9.8Q-21.75 8.1 -18.3 5.55Q-22.85 5.2 -24.7 0.8Q-19.05 1.1 -14.15 -3.5Q-19.2 -3.85 -21.6 -6.25Q-14.9 -5.85 -8.85 -8.95Q-14.2 -9.4 -16.95 -12.4Q-14.6 -11.45 -11.65 -11.65L-2.55 -17.85" />
<path style="fill:none;stroke-width:0.7;stroke-linecap:round;stroke-linejoin:round;stroke-miterlimit:3;stroke:#000000;stroke-opacity:0.4" d="M16.8 3.3L18.55 4.5" />
<path style="fill:none;stroke-width:0.7;stroke-linecap:round;stroke-linejoin:round;stroke-miterlimit:3;stroke:#000000;stroke-opacity:0.4" d="M12.45 -0.65Q13.15 2.3 15.4 6.65Q12.15 4.85 10.15 2.8Q10.5 6.05 13.35 9.1Q7.05 7.65 4.35 3.25" />
<path style="fill:none;stroke-width:0.7;stroke-linecap:round;stroke-linejoin:round;stroke-miterlimit:3;stroke:#000000;stroke-opacity:0.4" d="M11.55 10.95L10.55 9.05" />
<path style="fill:none;stroke-width:0.7;stroke-linecap:round;stroke-linejoin:round;stroke-miterlimit:3;stroke:#000000;stroke-opacity:0.4" d="M16.8 8.35L17.8 9.55" />
<path style="fill:none;stroke-width:0.7;stroke-linecap:round;stroke-linejoin:round;stroke-miterlimit:3;stroke:#000000;stroke-opacity:0.4" d="M7.75 8.95Q7.65 9.95 7.85 11.15" />
<path style="fill:none;stroke-width:0.7;stroke-linecap:round;stroke-linejoin:round;stroke-miterlimit:3;stroke:#000000;stroke-opacity:0.4" d="M7.65 -0.4Q8.55 1.25 10.15 2.8" />
<path style="fill:none;stroke-width:0.7;stroke-linecap:round;stroke-linejoin:round;stroke-miterlimit:3;stroke:#000000;stroke-opacity:0.4" d="M-5.45 -13.05Q-8.8 -11.8 -11.65 -11.65" />
<path style="fill:none;stroke-width:0.7;stroke-linecap:round;stroke-linejoin:round;stroke-miterlimit:3;stroke:#000000;stroke-opacity:0.4" d="M-14.15 -3.5L-10.7 -3.6" />
<path style="fill:none;stroke-width:0.7;stroke-linecap:round;stroke-linejoin:round;stroke-miterlimit:3;stroke:#000000;stroke-opacity:0.4" d="M-8.85 -8.95L-4.95 -11.3" />
<path style="fill:none;stroke-width:0.7;stroke-linecap:round;stroke-linejoin:round;stroke-miterlimit:3;stroke:#000000;stroke-opacity:0.4" d="M-14.55 2.5L-18.3 5.55" />
</g>
<g id="PathID_162" transform="matrix(1, 0, 0, 1, 25.2, 18.1)">
<radialGradient
id="RadialGradID_80" gradientUnits="userSpaceOnUse" gradientTransform="matrix(0.00567627, 0.000823975, -0.000823975, 0.00567627, 20.3, -1.35)" spreadMethod ="pad" cx="0" cy="0" r="819.2" fx="0" fy="0" >
<stop  offset="0.0313725"  style="stop-color:#FB4E04;stop-opacity:1" />
<stop  offset="0.25098"  style="stop-color:#BA3E00;stop-opacity:1" />
<stop  offset="1"  style="stop-color:#632100;stop-opacity:1" />
</radialGradient>
<path style="fill:url(#RadialGradID_80) " d="M21 -2.65Q22.45 -2.45 23.35 -1.25Q24.15 -0.15 23.95 1.3Q23.75 2.7 22.65 3.65Q21.45 4.45 20 4.25Q18.6 4.05 17.7 2.95Q16.9 1.7 17.1 0.3Q17.3 -1.15 18.4 -1.95Q19.6 -2.85 21 -2.65M23.1 0.75Q22.95 1.95 22 2.65Q21.1 3.3 19.95 3.1Q18.85 2.95 18.15 2.2L18.5 2.8Q19.2 3.6 20.3 3.75Q21.45 3.95 22.25 3.35Q23.15 2.6 23.3 1.55L23.2 0.25L23.1 0.75" />
<linearGradient
id="LinearGradID_81" gradientUnits="userSpaceOnUse" gradientTransform="matrix(-0.000976563, -0.00247192, 0.00222778, -0.000900269, 21.85, 3.05)" spreadMethod ="pad" x1="-819.2" y1="0" x2="819.2" y2="0" >
<stop  offset="0" style="stop-color:#DB4602;stop-opacity:1" />
<stop  offset="1" style="stop-color:#7C2900;stop-opacity:1" />
</linearGradient>
<path style="fill:url(#LinearGradID_81) " d="M23.2 0.25L23.3 1.55Q23.15 2.6 22.25 3.35Q21.45 3.95 20.3 3.75Q19.2 3.6 18.5 2.8L18.15 2.2Q18.85 2.95 19.95 3.1Q21.1 3.3 22 2.65Q22.95 1.95 23.1 0.75L23.2 0.25" />
<path style="fill:none;stroke-width:0.7;stroke-linecap:round;stroke-linejoin:round;stroke-miterlimit:3;stroke:#000000;stroke-opacity:0.4" d="M21 -2.65Q22.45 -2.45 23.35 -1.25Q24.15 -0.15 23.95 1.3Q23.75 2.7 22.65 3.65Q21.45 4.45 20 4.25Q18.6 4.05 17.7 2.95Q16.9 1.7 17.1 0.3Q17.3 -1.15 18.4 -1.95Q19.6 -2.85 21 -2.65z" />
</g>
<g id="PathID_163" transform="matrix(1, 0, 0, 1, 25.2, 18.1)">
<linearGradient
id="LinearGradID_82" gradientUnits="userSpaceOnUse" gradientTransform="matrix(-0.00135803, 0.00170898, -0.00132751, -0.00105286, 19.1, -1.15)" spreadMethod ="pad" x1="-819.2" y1="0" x2="819.2" y2="0" >
<stop  offset="0" style="stop-color:#FFFFFF;stop-opacity:0.501961" />
<stop  offset="1" style="stop-color:#FFFFFF;stop-opacity:0" />
</linearGradient>
<path style="fill:url(#LinearGradID_82) " d="M19.8 -1.85L20.05 -1.1L19.6 -0.15L18.75 0.55L17.95 0.5Q17.6 0.2 17.65 -0.3Q17.7 -0.85 18.05 -1.3L18.95 -1.95L19.8 -1.85" />
<linearGradient
id="LinearGradID_83" gradientUnits="userSpaceOnUse" gradientTransform="matrix(-0.000671387, 0.000823975, -0.000610352, -0.000473022, 18, 1.35)" spreadMethod ="pad" x1="-819.2" y1="0" x2="819.2" y2="0" >
<stop  offset="0" style="stop-color:#FFFFFF;stop-opacity:0.501961" />
<stop  offset="1" style="stop-color:#FFFFFF;stop-opacity:0" />
</linearGradient>
<path style="fill:url(#LinearGradID_83) " d="M17.75 2.3L17.4 2.1L17.25 1.7L17.3 1.2Q17.45 1 17.65 1L17.95 1.15L18.1 1.6L18.05 2L17.75 2.3" />
</g>
<g id="PathID_164" transform="matrix(1, 0, 0, 1, 25.2, 18.1)">
<path style="fill:#BA6D27;fill-opacity:1" d="M20.15 -1.95L19.8 -2.1L19.45 -2.2L19.6 -3.35Q19.7 -3.05 19.9 -2.95L20.25 -2.85L20.15 -1.95" />
<path style="fill:#F2DD8E;fill-opacity:1" d="M20.4 -1.9L20.15 -1.95L20.25 -2.85L20.5 -2.8L20.4 -1.9" />
<path style="fill:#D48627;fill-opacity:1" d="M20.5 -2.8L20.95 -2.7L21.55 -2.7L21.45 -1.8L20.85 -1.8L20.45 -1.9L20.4 -1.9L20.5 -2.8" />
<path style="fill:none;stroke-width:0.7;stroke-linecap:round;stroke-linejoin:round;stroke-miterlimit:3;stroke:#000000;stroke-opacity:0.4" d="M21.45 -1.8L21.8 -1.85L22.3 -1.95L22.4 -2.8L22.4 -2.85L22 -3.15L21.05 -3.35L20.05 -3.4L19.55 -3.35L19.6 -3.35L19.45 -2.2L19.8 -2.1L20.15 -1.95" />
<path style="fill:none;stroke-width:0.7;stroke-linecap:round;stroke-linejoin:round;stroke-miterlimit:3;stroke:#000000;stroke-opacity:0.4" d="M21.45 -1.8L20.85 -1.8L20.45 -1.9" />
<path style="fill:none;stroke-width:0.7;stroke-linecap:round;stroke-linejoin:round;stroke-miterlimit:3;stroke:#000000;stroke-opacity:0.4" d="M20.4 -1.9L20.15 -1.95" />
</g>
<g id="PathID_165" transform="matrix(1, 0, 0, 1, 25.2, 18.1)">
<path style="fill:none;stroke-width:0.7;stroke-linecap:round;stroke-linejoin:round;stroke-miterlimit:3;stroke:#000000;stroke-opacity:0.45098" d="M20.65 -3Q20.35 -4.9 21.45 -4.75" />
<path style="fill:none;stroke-width:0.7;stroke-linecap:round;stroke-linejoin:round;stroke-miterlimit:3;stroke:#000000;stroke-opacity:0.45098" d="M21.55 -2.8L22.05 -3.65" />
</g>
<g id="PathID_166" transform="matrix(1, 0, 0, 1, 25.2, 18.1)">
<radialGradient
id="RadialGradID_84" gradientUnits="userSpaceOnUse" gradientTransform="matrix(0.00567627, 0.000823975, -0.000823975, 0.00567627, -20.25, -2.8)" spreadMethod ="pad" cx="0" cy="0" r="819.2" fx="0" fy="0" >
<stop  offset="0"  style="stop-color:#FFDA31;stop-opacity:1" />
<stop  offset="0.278431"  style="stop-color:#DEAB00;stop-opacity:1" />
<stop  offset="1"  style="stop-color:#633600;stop-opacity:1" />
</radialGradient>
<path style="fill:url(#RadialGradID_84) " d="M-22.15 -3.4Q-20.95 -4.3 -19.55 -4.1Q-18.1 -3.9 -17.2 -2.7Q-16.4 -1.6 -16.6 -0.15Q-16.8 1.25 -17.9 2.2Q-19.1 3 -20.55 2.8Q-21.95 2.6 -22.85 1.5Q-23.65 0.25 -23.45 -1.15Q-23.25 -2.6 -22.15 -3.4M-17.45 -0.7Q-17.6 0.5 -18.55 1.2Q-19.45 1.85 -20.6 1.65Q-21.7 1.5 -22.4 0.75L-22.05 1.35Q-21.35 2.15 -20.25 2.3Q-19.1 2.5 -18.3 1.9Q-17.4 1.15 -17.25 0.1Q-17.15 -0.65 -17.35 -1.2L-17.45 -0.7" />
<linearGradient
id="LinearGradID_85" gradientUnits="userSpaceOnUse" gradientTransform="matrix(-0.000976563, -0.00247192, 0.00222778, -0.000900269, -18.7, 1.6)" spreadMethod ="pad" x1="-819.2" y1="0" x2="819.2" y2="0" >
<stop  offset="0" style="stop-color:#DBB502;stop-opacity:1" />
<stop  offset="1" style="stop-color:#7C4400;stop-opacity:1" />
</linearGradient>
<path style="fill:url(#LinearGradID_85) " d="M-17.35 -1.2Q-17.15 -0.65 -17.25 0.1Q-17.4 1.15 -18.3 1.9Q-19.1 2.5 -20.25 2.3Q-21.35 2.15 -22.05 1.35L-22.4 0.75Q-21.7 1.5 -20.6 1.65Q-19.45 1.85 -18.55 1.2Q-17.6 0.5 -17.45 -0.7L-17.35 -1.2" />
<path style="fill:none;stroke-width:0.7;stroke-linecap:round;stroke-linejoin:round;stroke-miterlimit:3;stroke:#000000;stroke-opacity:0.4" d="M-22.15 -3.4Q-20.95 -4.3 -19.55 -4.1Q-18.1 -3.9 -17.2 -2.7Q-16.4 -1.6 -16.6 -0.15Q-16.8 1.25 -17.9 2.2Q-19.1 3 -20.55 2.8Q-21.95 2.6 -22.85 1.5Q-23.65 0.25 -23.45 -1.15Q-23.25 -2.6 -22.15 -3.4z" />
</g>
<g id="PathID_167" transform="matrix(1, 0, 0, 1, 25.2, 18.1)">
<linearGradient
id="LinearGradID_86" gradientUnits="userSpaceOnUse" gradientTransform="matrix(-0.00135803, 0.00170898, -0.00132751, -0.00105286, -21.45, -2.6)" spreadMethod ="pad" x1="-819.2" y1="0" x2="819.2" y2="0" >
<stop  offset="0" style="stop-color:#FFFFFF;stop-opacity:0.501961" />
<stop  offset="1" style="stop-color:#FFFFFF;stop-opacity:0" />
</linearGradient>
<path style="fill:url(#LinearGradID_86) " d="M-20.75 -3.3Q-20.5 -3.1 -20.5 -2.55Q-20.55 -2.05 -20.95 -1.6Q-21.35 -1.05 -21.8 -0.9L-22.6 -0.95Q-22.95 -1.25 -22.9 -1.75L-22.5 -2.75Q-22.1 -3.25 -21.6 -3.4L-20.75 -3.3" />
<linearGradient
id="LinearGradID_87" gradientUnits="userSpaceOnUse" gradientTransform="matrix(-0.000671387, 0.000823975, -0.000610352, -0.000473022, -22.55, -0.1)" spreadMethod ="pad" x1="-819.2" y1="0" x2="819.2" y2="0" >
<stop  offset="0" style="stop-color:#FFFFFF;stop-opacity:0.501961" />
<stop  offset="1" style="stop-color:#FFFFFF;stop-opacity:0" />
</linearGradient>
<path style="fill:url(#LinearGradID_87) " d="M-22.9 -0.45L-22.6 -0.3Q-22.45 -0.15 -22.45 0.15L-22.5 0.55L-22.8 0.85L-23.15 0.65L-23.3 0.25L-23.25 -0.25L-22.9 -0.45" />
</g>
<g id="PathID_168" transform="matrix(1, 0, 0, 1, 25.2, 18.1)">
<path style="fill:#BA6D27;fill-opacity:1" d="M-20.65 -4.4L-20.3 -4.3L-20.4 -3.4L-20.75 -3.55L-21.1 -3.65L-20.95 -4.8L-20.65 -4.4" />
<path style="fill:#F2DD8E;fill-opacity:1" d="M-20.05 -4.25L-20.15 -3.35L-20.4 -3.4L-20.3 -4.3L-20.05 -4.25" />
<path style="fill:#F2CF52;fill-opacity:1" d="M-19 -4.15L-19.6 -4.15L-20.05 -4.25L-20.3 -4.3L-20.65 -4.4L-20.95 -4.8L-21 -4.8L-20.5 -4.85L-19.5 -4.8L-18.55 -4.6L-18.15 -4.3L-18.15 -4.25L-18.25 -3.4L-18.75 -3.3L-19.1 -3.25L-19 -4.15" />
<path style="fill:#D48627;fill-opacity:1" d="M-20.05 -4.25L-19.6 -4.15L-19 -4.15L-19.1 -3.25L-19.7 -3.25L-20.1 -3.35L-20.15 -3.35L-20.05 -4.25" />
<path style="fill:none;stroke-width:0.7;stroke-linecap:round;stroke-linejoin:round;stroke-miterlimit:3;stroke:#000000;stroke-opacity:0.4" d="M-20.4 -3.4L-20.75 -3.55L-21.1 -3.65L-20.95 -4.8L-21 -4.8L-20.5 -4.85L-19.5 -4.8L-18.55 -4.6L-18.15 -4.3L-18.15 -4.25L-18.25 -3.4L-18.75 -3.3L-19.1 -3.25L-19.7 -3.25L-20.1 -3.35" />
<path style="fill:none;stroke-width:0.7;stroke-linecap:round;stroke-linejoin:round;stroke-miterlimit:3;stroke:#000000;stroke-opacity:0.4" d="M-20.15 -3.35L-20.4 -3.4" />
</g>
<g id="PathID_169" transform="matrix(1, 0, 0, 1, 25.2, 18.1)">
<path style="fill:none;stroke-width:0.7;stroke-linecap:round;stroke-linejoin:round;stroke-miterlimit:3;stroke:#000000;stroke-opacity:0.45098" d="M-19.9 -4.45Q-20.2 -6.35 -19.1 -6.2" />
<path style="fill:none;stroke-width:0.7;stroke-linecap:round;stroke-linejoin:round;stroke-miterlimit:3;stroke:#000000;stroke-opacity:0.45098" d="M-19 -4.25Q-18.6 -4.55 -18.5 -5.1" />
</g>
<g id="PathID_170" transform="matrix(1, 0, 0, 1, 25.2, 18.1)">
<radialGradient
id="RadialGradID_88" gradientUnits="userSpaceOnUse" gradientTransform="matrix(0.00567627, 0.000823975, -0.000823975, 0.00567627, 8.2, 6.1)" spreadMethod ="pad" cx="0" cy="0" r="819.2" fx="0" fy="0" >
<stop  offset="0.0313725"  style="stop-color:#27B1FF;stop-opacity:1" />
<stop  offset="1"  style="stop-color:#053354;stop-opacity:1" />
</radialGradient>
<path style="fill:url(#RadialGradID_88) " d="M10.55 11.1Q9.35 11.9 7.9 11.7Q6.5 11.5 5.6 10.4Q4.8 9.15 5 7.75Q5.2 6.3 6.3 5.5Q7.5 4.6 8.9 4.8Q10.35 5 11.25 6.2Q12.05 7.3 11.85 8.75Q11.65 10.15 10.55 11.1M11.1 7.7L11 8.2Q10.85 9.4 9.9 10.1Q9 10.75 7.85 10.55Q6.75 10.4 6.05 9.65L6.4 10.25Q7.1 11.05 8.2 11.2Q9.35 11.4 10.15 10.8Q11.05 10.05 11.2 9L11.1 7.7" />
<linearGradient
id="LinearGradID_89" gradientUnits="userSpaceOnUse" gradientTransform="matrix(-0.000976563, -0.00247192, 0.00222778, -0.000900269, 9.75, 10.5)" spreadMethod ="pad" x1="-819.2" y1="0" x2="819.2" y2="0" >
<stop  offset="0" style="stop-color:#0275DB;stop-opacity:1" />
<stop  offset="1" style="stop-color:#00526D;stop-opacity:1" />
</linearGradient>
<path style="fill:url(#LinearGradID_89) " d="M11.2 9Q11.05 10.05 10.15 10.8Q9.35 11.4 8.2 11.2Q7.1 11.05 6.4 10.25L6.05 9.65Q6.75 10.4 7.85 10.55Q9 10.75 9.9 10.1Q10.85 9.4 11 8.2L11.1 7.7L11.2 9" />
<path style="fill:none;stroke-width:0.7;stroke-linecap:round;stroke-linejoin:round;stroke-miterlimit:3;stroke:#000000;stroke-opacity:0.4" d="M10.55 11.1Q9.35 11.9 7.9 11.7Q6.5 11.5 5.6 10.4Q4.8 9.15 5 7.75Q5.2 6.3 6.3 5.5Q7.5 4.6 8.9 4.8Q10.35 5 11.25 6.2Q12.05 7.3 11.85 8.75Q11.65 10.15 10.55 11.1z" />
</g>
<g id="PathID_171" transform="matrix(1, 0, 0, 1, 25.2, 18.1)">
<linearGradient
id="LinearGradID_90" gradientUnits="userSpaceOnUse" gradientTransform="matrix(-0.00135803, 0.00170898, -0.00132751, -0.00105286, 7, 6.3)" spreadMethod ="pad" x1="-819.2" y1="0" x2="819.2" y2="0" >
<stop  offset="0" style="stop-color:#FFFFFF;stop-opacity:0.501961" />
<stop  offset="1" style="stop-color:#FFFFFF;stop-opacity:0" />
</linearGradient>
<path style="fill:url(#LinearGradID_90) " d="M7.7 5.6L7.95 6.35L7.5 7.3L6.65 8L5.85 7.95Q5.5 7.65 5.55 7.15Q5.6 6.6 5.95 6.15Q6.35 5.65 6.85 5.5L7.7 5.6" />
<linearGradient
id="LinearGradID_91" gradientUnits="userSpaceOnUse" gradientTransform="matrix(-0.000671387, 0.000823975, -0.000610352, -0.000473022, 5.9, 8.8)" spreadMethod ="pad" x1="-819.2" y1="0" x2="819.2" y2="0" >
<stop  offset="0" style="stop-color:#FFFFFF;stop-opacity:0.501961" />
<stop  offset="1" style="stop-color:#FFFFFF;stop-opacity:0" />
</linearGradient>
<path style="fill:url(#LinearGradID_91) " d="M6 9.05L5.95 9.45L5.65 9.75L5.3 9.55L5.15 9.15L5.2 8.65L5.55 8.45L5.85 8.6L6 9.05" />
</g>
<g id="PathID_172" transform="matrix(1, 0, 0, 1, 25.2, 18.1)">
<path style="fill:#F2CF52;fill-opacity:1" d="M9.45 4.75L8.85 4.75L8.4 4.65L8.15 4.6L7.5 4.1L7.95 4.05L8.95 4.1L9.9 4.3L10.3 4.6L10.3 4.65L10.2 5.5L9.7 5.6L9.35 5.65L9.45 4.75" />
<path style="fill:#BA6D27;fill-opacity:1" d="M8.05 5.5L7.35 5.25L7.5 4.1L8.15 4.6L8.05 5.5" />
<path style="fill:#D48627;fill-opacity:1" d="M8.4 4.65L8.85 4.75L9.45 4.75L9.35 5.65L8.3 5.55L8.4 4.65" />
<path style="fill:#F2DD8E;fill-opacity:1" d="M8.3 5.55L8.05 5.5L8.15 4.6L8.4 4.65L8.3 5.55" />
<path style="fill:none;stroke-width:0.7;stroke-linecap:round;stroke-linejoin:round;stroke-miterlimit:3;stroke:#000000;stroke-opacity:0.4" d="M9.35 5.65L9.7 5.6L10.2 5.5L10.3 4.65L10.3 4.6L9.9 4.3L8.95 4.1L7.95 4.05L7.5 4.1" />
<path style="fill:none;stroke-width:0.7;stroke-linecap:round;stroke-linejoin:round;stroke-miterlimit:3;stroke:#000000;stroke-opacity:0.4" d="M9.35 5.65L8.3 5.55L8.05 5.5L7.35 5.25L7.5 4.1" />
</g>
<g id="PathID_173" transform="matrix(1, 0, 0, 1, 25.2, 18.1)">
<path style="fill:none;stroke-width:0.7;stroke-linecap:round;stroke-linejoin:round;stroke-miterlimit:3;stroke:#000000;stroke-opacity:0.45098" d="M8.55 4.45Q8.25 2.55 9.35 2.7" />
<path style="fill:none;stroke-width:0.7;stroke-linecap:round;stroke-linejoin:round;stroke-miterlimit:3;stroke:#000000;stroke-opacity:0.45098" d="M9.45 4.65L9.95 3.8" />
</g>
<g id="PathID_174" transform="matrix(1, 0, 0, 1, 25.2, 18.1)">
<path style="fill:none;stroke-width:0.7;stroke-linecap:round;stroke-linejoin:round;stroke-miterlimit:3;stroke:#000000;stroke-opacity:0.4" d="M-14.55 -2.1Q6.45 12.65 17.6 -4.25" />
</g>
<g id="PathID_175" transform="matrix(1, 0, 0, 1, 25.2, 18.1)">
<radialGradient
id="RadialGradID_92" gradientUnits="userSpaceOnUse" gradientTransform="matrix(0.00164795, 0, 0, 0.00250244, 17.95, -4.65)" spreadMethod ="pad" cx="0" cy="0" r="819.2" fx="0" fy="0" >
<stop  offset="0.0352941"  style="stop-color:#FEFD89;stop-opacity:1" />
<stop  offset="0.988235"  style="stop-color:#CCC202;stop-opacity:1" />
</radialGradient>
<path style="fill:url(#RadialGradID_92) " d="M18.75 -4.95L19 -4.05L18.8 -3.2Q18.55 -2.65 18 -2.65Q17.5 -2.6 17.25 -3.2L17.05 -4.05L17.25 -4.9Q17.55 -5.45 18 -5.5Q18.45 -5.55 18.75 -4.95M18 -4.3L17.75 -4.2L17.65 -3.95Q17.65 -3.8 17.8 -3.75L17.95 -3.65L18 -3.9L18.25 -4.15L18.15 -4.25L18 -4.3M17.45 -3.65L17.35 -3.75Q17.35 -3.35 17.5 -3.3L17.55 -3.35L17.45 -3.65M17.7 -4.55L18 -4.9Q18 -5.15 17.7 -5.05Q17.4 -5 17.4 -4.75Q17.4 -4.5 17.7 -4.55" />
<path style="fill:#CCBC28;fill-opacity:1" d="M18.15 -4.25L18.25 -4.15L18 -3.9L17.95 -3.65L17.8 -3.75Q17.65 -3.8 17.65 -3.95L17.75 -4.2L18 -4.3L18.15 -4.25" />
<path style="fill:#FEFD89;fill-opacity:1" d="M17.55 -3.35L17.5 -3.3Q17.35 -3.35 17.35 -3.75L17.45 -3.65L17.55 -3.35M17.4 -4.75Q17.4 -5 17.7 -5.05Q18 -5.15 18 -4.9L17.7 -4.55Q17.4 -4.5 17.4 -4.75" />
</g>
<g id="PathID_176" transform="matrix(1, 0, 0, 1, 25.2, 18.1)">
<path style="fill:#CCBC28;fill-opacity:1" d="M18.6 -4.15L18.55 -4.95L18.8 -3.6Q18.6 -2.55 17.7 -3.1Q18.5 -3.3 18.6 -4.15" />
</g>
<g id="PathID_177" transform="matrix(1, 0, 0, 1, 25.2, 18.1)">
<path style="fill:#B8FCFF;fill-opacity:1" d="M13.45 -1Q13.1 -1 13.1 -1.25Q13.1 -1.5 13.45 -1.55Q13.75 -1.7 13.75 -1.4L13.45 -1M13.15 -0.05L13.3 0.25L13.2 0.3Q13.05 0.25 13.05 -0.2L13.15 -0.05" />
<radialGradient
id="RadialGradID_93" gradientUnits="userSpaceOnUse" gradientTransform="matrix(0.00177002, 0, 0, 0.00268555, 13.7, -1.15)" spreadMethod ="pad" cx="0" cy="0" r="819.2" fx="0" fy="0" >
<stop  offset="0.0352941"  style="stop-color:#89E1FE;stop-opacity:1" />
<stop  offset="0.988235"  style="stop-color:#02B0CC;stop-opacity:1" />
</radialGradient>
<path style="fill:url(#RadialGradID_93) " d="M13.75 -1.4Q13.75 -1.7 13.45 -1.55Q13.1 -1.5 13.1 -1.25Q13.1 -1 13.45 -1L13.75 -1.4M13.05 -0.2Q13.05 0.25 13.2 0.3L13.3 0.25L13.15 -0.05L13.05 -0.2M13.75 -0.75L13.5 -0.65L13.4 -0.4L13.55 -0.2L13.7 -0.05L13.75 -0.35L14.05 -0.6L13.9 -0.7L13.75 -0.75M12.95 -1.4Q13.3 -2 13.75 -2.05Q14.25 -2.1 14.55 -1.45L14.85 -0.5L14.6 0.45Q14.35 1 13.75 1Q13.2 1.05 12.95 0.45L12.75 -0.5L12.95 -1.4" />
<path style="fill:#2888CC;fill-opacity:1" d="M13.9 -0.7L14.05 -0.6L13.75 -0.35L13.7 -0.05L13.55 -0.2L13.4 -0.4L13.5 -0.65L13.75 -0.75L13.9 -0.7" />
</g>
<g id="PathID_178" transform="matrix(1, 0, 0, 1, 25.2, 18.1)">
<path style="fill:#28A3CC;fill-opacity:1" d="M14.35 -1.3L14.6 0.15Q14.4 1.25 13.45 0.65Q14.3 0.45 14.4 -0.45L14.35 -1.3" />
</g>
<g id="PathID_179" transform="matrix(1, 0, 0, 1, 25.2, 18.1)">
<radialGradient
id="RadialGradID_94" gradientUnits="userSpaceOnUse" gradientTransform="matrix(0.0019989, 0, 0, 0.0030365, 9.25, 1.4)" spreadMethod ="pad" cx="0" cy="0" r="819.2" fx="0" fy="0" >
<stop  offset="0.0352941"  style="stop-color:#FEA989;stop-opacity:1" />
<stop  offset="0.988235"  style="stop-color:#CC1802;stop-opacity:1" />
</radialGradient>
<path style="fill:url(#RadialGradID_94) " d="M10.5 2.15L10.3 3.2Q10 3.85 9.3 3.85Q8.7 3.9 8.4 3.2L8.15 2.15Q8.15 1.65 8.4 1.1Q8.8 0.45 9.3 0.4Q9.85 0.3 10.2 1.05L10.5 2.15M8.95 0.95Q8.55 1 8.55 1.3L8.95 1.55L9.3 1.1Q9.3 0.8 8.95 0.95M8.5 2.5L8.7 3.05L8.8 3L8.65 2.6Q8.55 2.3 8.5 2.5M8.9 2.25Q8.9 2.45 9.05 2.5L9.25 2.6L9.3 2.3L9.6 2.05L9.5 1.9L9.3 1.8Q9.15 1.8 9 1.95L8.9 2.25M10.05 1.95Q9.95 3 8.95 3.2Q10.05 3.9 10.3 2.6L10 1L10.05 1.95" />
<path style="fill:#FFDED2;fill-opacity:1" d="M9.3 1.1L8.95 1.55L8.55 1.3Q8.55 1 8.95 0.95Q9.3 0.8 9.3 1.1M8.65 2.6L8.8 3L8.7 3.05L8.5 2.5Q8.55 2.3 8.65 2.6" />
<path style="fill:#AA0101;fill-opacity:1" d="M9 1.95Q9.15 1.8 9.3 1.8L9.5 1.9L9.6 2.05L9.3 2.3L9.25 2.6L9.05 2.5Q8.9 2.45 8.9 2.25L9 1.95M10 1L10.3 2.6Q10.05 3.9 8.95 3.2Q9.95 3 10.05 1.95L10 1" />
</g>
<g id="PathID_180" transform="matrix(1, 0, 0, 1, 25.2, 18.1)">
<path style="fill:#FEFD89;fill-opacity:1" d="M2.5 4.9L2.6 5.2L2.55 5.25Q2.4 5.2 2.4 4.8L2.5 4.9M2.75 4L2.45 3.8Q2.45 3.55 2.75 3.5Q3.05 3.4 3.05 3.65L2.75 4" />
<radialGradient
id="RadialGradID_95" gradientUnits="userSpaceOnUse" gradientTransform="matrix(0.00164795, 0, 0, 0.00250244, 3, 3.9)" spreadMethod ="pad" cx="0" cy="0" r="819.2" fx="0" fy="0" >
<stop  offset="0.0352941"  style="stop-color:#FEFD89;stop-opacity:1" />
<stop  offset="0.988235"  style="stop-color:#CCC202;stop-opacity:1" />
</radialGradient>
<path style="fill:url(#RadialGradID_95) " d="M2.3 3.65Q2.6 3.1 3.05 3.05Q3.5 3 3.8 3.6L4.05 4.5L3.85 5.35Q3.6 5.9 3.05 5.9Q2.55 5.95 2.3 5.35L2.1 4.5L2.3 3.65M2.4 4.8Q2.4 5.2 2.55 5.25L2.6 5.2L2.5 4.9L2.4 4.8M2.7 4.6L2.85 4.8L3 4.9L3.05 4.65L3.3 4.4L3.2 4.3L3.05 4.25L2.8 4.35L2.7 4.6M3.05 3.65Q3.05 3.4 2.75 3.5Q2.45 3.55 2.45 3.8L2.75 4L3.05 3.65" />
<path style="fill:#CCBC28;fill-opacity:1" d="M2.8 4.35L3.05 4.25L3.2 4.3L3.3 4.4L3.05 4.65L3 4.9L2.85 4.8L2.7 4.6L2.8 4.35" />
</g>
<g id="PathID_181" transform="matrix(1, 0, 0, 1, 25.2, 18.1)">
<path style="fill:#CCBC28;fill-opacity:1" d="M3.85 4.95Q3.65 6 2.75 5.45Q3.55 5.25 3.65 4.4L3.6 3.6L3.85 4.95" />
</g>
<g id="PathID_182" transform="matrix(1, 0, 0, 1, 25.2, 18.1)">
<path style="fill:#B8FCFF;fill-opacity:1" d="M-3.2 3L-3.5 3.4L-3.85 3.15Q-3.85 2.9 -3.5 2.85Q-3.2 2.7 -3.2 3M-3.8 4.35L-3.65 4.65L-3.75 4.7L-3.9 4.2L-3.8 4.35" />
<radialGradient
id="RadialGradID_96" gradientUnits="userSpaceOnUse" gradientTransform="matrix(0.00177002, 0, 0, 0.00268555, -3.25, 3.25)" spreadMethod ="pad" cx="0" cy="0" r="819.2" fx="0" fy="0" >
<stop  offset="0.0352941"  style="stop-color:#89E1FE;stop-opacity:1" />
<stop  offset="0.988235"  style="stop-color:#02B0CC;stop-opacity:1" />
</radialGradient>
<path style="fill:url(#RadialGradID_96) " d="M-3.2 2.35Q-2.7 2.3 -2.4 2.95Q-2.1 3.4 -2.1 3.9L-2.35 4.85Q-2.6 5.4 -3.2 5.4Q-3.75 5.45 -4 4.85L-4.2 3.9L-4 3Q-3.65 2.4 -3.2 2.35M-3.5 2.85Q-3.85 2.9 -3.85 3.15L-3.5 3.4L-3.2 3Q-3.2 2.7 -3.5 2.85M-2.9 3.8L-3.05 3.7L-3.2 3.65L-3.45 3.75L-3.55 4L-3.4 4.2L-3.25 4.35L-3.2 4.05L-2.9 3.8M-3.9 4.2L-3.75 4.7L-3.65 4.65L-3.8 4.35L-3.9 4.2" />
<path style="fill:#2888CC;fill-opacity:1" d="M-3.2 4.05L-3.25 4.35L-3.4 4.2L-3.55 4L-3.45 3.75L-3.2 3.65L-3.05 3.7L-2.9 3.8L-3.2 4.05" />
</g>
<g id="PathID_183" transform="matrix(1, 0, 0, 1, 25.2, 18.1)">
<path style="fill:#28A3CC;fill-opacity:1" d="M-3.5 5.05Q-2.65 4.85 -2.55 3.95Q-2.5 3.5 -2.6 3.1Q-2.25 4.15 -2.35 4.55Q-2.55 5.65 -3.5 5.05" />
</g>
<g id="PathID_184" transform="matrix(1, 0, 0, 1, 25.2, 18.1)">
<radialGradient
id="RadialGradID_97" gradientUnits="userSpaceOnUse" gradientTransform="matrix(0.0019989, 0, 0, 0.0030365, -9.15, 1.4)" spreadMethod ="pad" cx="0" cy="0" r="819.2" fx="0" fy="0" >
<stop  offset="0.0352941"  style="stop-color:#FEA989;stop-opacity:1" />
<stop  offset="0.988235"  style="stop-color:#CC1802;stop-opacity:1" />
</radialGradient>
<path style="fill:url(#RadialGradID_97) " d="M-9.1 0.4Q-8.55 0.3 -8.2 1.05Q-7.9 1.6 -7.9 2.15L-8.1 3.2Q-8.4 3.85 -9.1 3.85Q-9.7 3.9 -10 3.2L-10.25 2.15L-10 1.1Q-9.6 0.45 -9.1 0.4M-9.45 0.95Q-9.85 1 -9.85 1.3Q-9.85 1.6 -9.45 1.55Q-9.1 1.4 -9.1 1.1Q-9.1 0.8 -9.45 0.95M-9.4 1.95L-9.5 2.25L-9.35 2.5L-9.15 2.6L-9.1 2.3L-8.8 2.05L-8.9 1.9Q-8.95 1.8 -9.1 1.8Q-9.25 1.8 -9.4 1.95M-9.75 2.6Q-9.85 2.3 -9.9 2.5L-9.7 3.05L-9.6 3L-9.75 2.6M-8.35 1.95Q-8.45 3 -9.45 3.2Q-8.35 3.9 -8.1 2.6Q-8 2.2 -8.4 1Q-8.3 1.45 -8.35 1.95" />
<path style="fill:#FFDED2;fill-opacity:1" d="M-9.1 1.1Q-9.1 1.4 -9.45 1.55Q-9.85 1.6 -9.85 1.3Q-9.85 1 -9.45 0.95Q-9.1 0.8 -9.1 1.1M-9.6 3L-9.7 3.05L-9.9 2.5Q-9.85 2.3 -9.75 2.6L-9.6 3" />
<path style="fill:#AA0101;fill-opacity:1" d="M-9.1 1.8Q-8.95 1.8 -8.9 1.9L-8.8 2.05L-9.1 2.3L-9.15 2.6L-9.35 2.5L-9.5 2.25L-9.4 1.95Q-9.25 1.8 -9.1 1.8M-8.4 1Q-8 2.2 -8.1 2.6Q-8.35 3.9 -9.45 3.2Q-8.45 3 -8.35 1.95Q-8.3 1.45 -8.4 1" />
</g>
<g id="PathID_185" transform="matrix(1, 0, 0, 1, 25.2, 18.1)">
<radialGradient
id="RadialGradID_98" gradientUnits="userSpaceOnUse" gradientTransform="matrix(0.00164795, 0, 0, 0.00250244, -13.9, -2.2)" spreadMethod ="pad" cx="0" cy="0" r="819.2" fx="0" fy="0" >
<stop  offset="0.0352941"  style="stop-color:#FEFD89;stop-opacity:1" />
<stop  offset="0.988235"  style="stop-color:#CCC202;stop-opacity:1" />
</radialGradient>
<path style="fill:url(#RadialGradID_98) " d="M-13.1 -2.5L-12.85 -1.6L-13.05 -0.75Q-13.3 -0.2 -13.85 -0.2Q-14.35 -0.15 -14.6 -0.75L-14.8 -1.6L-14.6 -2.45L-13.85 -3.05Q-13.4 -3.1 -13.1 -2.5M-13.7 -1.8L-13.85 -1.85L-14.1 -1.75L-14.2 -1.5L-14.05 -1.3L-13.9 -1.2L-13.85 -1.45L-13.6 -1.7L-13.7 -1.8M-14.45 -2.3L-14.15 -2.1Q-13.85 -2.2 -13.85 -2.45Q-13.85 -2.7 -14.15 -2.6L-14.45 -2.3M-14.35 -0.85L-14.3 -0.9L-14.4 -1.2L-14.5 -1.3L-14.35 -0.85" />
<path style="fill:#CCBC28;fill-opacity:1" d="M-13.6 -1.7L-13.85 -1.45L-13.9 -1.2L-14.05 -1.3L-14.2 -1.5L-14.1 -1.75L-13.85 -1.85L-13.7 -1.8L-13.6 -1.7" />
<path style="fill:#FEFD89;fill-opacity:1" d="M-14.15 -2.6Q-13.85 -2.7 -13.85 -2.45Q-13.85 -2.2 -14.15 -2.1L-14.45 -2.3L-14.15 -2.6M-14.5 -1.3L-14.4 -1.2L-14.3 -0.9L-14.35 -0.85L-14.5 -1.3" />
</g>
<g id="PathID_186" transform="matrix(1, 0, 0, 1, 25.2, 18.1)">
<path style="fill:#CCBC28;fill-opacity:1" d="M-13.3 -2.5Q-12.95 -1.5 -13.05 -1.15Q-13.25 -0.1 -14.15 -0.65Q-13.35 -0.85 -13.25 -1.7L-13.3 -2.5" />
</g>
</svg>
