<?xml version="1.0" encoding="utf-8"?>
<svg version="1.1" id="Layer_1"
xmlns="http://www.w3.org/2000/svg"
xmlns:xlink="http://www.w3.org/1999/xlink"
width="5px" height="19px"
xml:space="preserve">
<g id="PathID_824" transform="matrix(1, 0, 0, 1, 3.3, 10.3)">
<path style="fill:#B0BEC1;fill-opacity:1" d="M-2.45 -6.45Q-2.35 -7.75 -1.1 -6.65Q-1.35 -8.95 -0.85 -9.85Q-0.25 -10.75 0.4 -9Q1.35 -6.6 1.35 0L1.35 4.45Q1.15 7.7 0 7.85Q-0.55 7.95 -1 5.85L-1.65 2.9L-2.4 1.4Q-3.8 -1.45 -2.5 -1.4Q-3.9 -4.75 -2.35 -4.45Q-2.6 -5.15 -2.45 -6.45" />
<path style="fill:none;stroke-width:0.7;stroke-linecap:round;stroke-linejoin:round;stroke-miterlimit:3;stroke:#001F20;stroke-opacity:0.301961" d="M-2.35 -4.45Q-3.9 -4.75 -2.5 -1.4Q-3.8 -1.45 -2.4 1.4L-1.65 2.9L-1 5.85Q-0.55 7.95 0 7.85Q1.15 7.7 1.35 4.45L1.35 0Q1.35 -6.6 0.4 -9Q-0.25 -10.75 -0.85 -9.85Q-1.35 -8.95 -1.1 -6.65Q-2.35 -7.75 -2.45 -6.45Q-2.6 -5.15 -2.35 -4.45z" />
</g>
</svg>
