<?xml version="1.0" encoding="utf-8"?>
<svg version="1.1" id="Layer_1"
xmlns="http://www.w3.org/2000/svg"
xmlns:xlink="http://www.w3.org/1999/xlink"
width="4px" height="16px"
xml:space="preserve">
<g id="PathID_1229" transform="matrix(1, 0, 0, 1, 1.85, 7.85)">
<path style="fill:#A19386;fill-opacity:1" d="M0.25 -0.2Q0.45 -2.75 -1.25 -3.75L-0.95 -5.55Q-0.55 -7.85 0 -7.85Q0.55 -7.85 0.95 -5.55Q1.35 -3.25 1.35 0L1.1 4.55L1.1 4.65L1.1 4.8L0.4 7.6L0 7.85Q-0.55 7.85 -1 5.85L-1.65 2.9Q0 3.3 0.25 -0.2" />
<path style="fill:#432C0F;fill-opacity:1" d="M-1.65 2.9L-1.65 2.8L-1.85 0.85L-1.5 -2.2L-1.25 -3.75Q0.45 -2.75 0.25 -0.2Q0 3.3 -1.65 2.9" />
<path style="fill:none;stroke-width:0.7;stroke-linecap:round;stroke-linejoin:round;stroke-miterlimit:3;stroke:#000000;stroke-opacity:0.301961" d="M-1.25 -3.75L-0.95 -5.55Q-0.55 -7.85 0 -7.85Q0.55 -7.85 0.95 -5.55Q1.35 -3.25 1.35 0" />
<path style="fill:none;stroke-width:0.7;stroke-linecap:round;stroke-linejoin:round;stroke-miterlimit:3;stroke:#000000;stroke-opacity:0.301961" d="M1.1 4.55L1.1 4.65L1.1 4.8L0.4 7.6L0 7.85Q-0.55 7.85 -1 5.85L-1.65 2.9L-1.65 2.8L-1.85 0.85L-1.5 -2.2L-1.25 -3.75" />
</g>
</svg>
