<?xml version="1.0" encoding="utf-8"?>
<svg version="1.1" id="Layer_1"
xmlns="http://www.w3.org/2000/svg"
xmlns:xlink="http://www.w3.org/1999/xlink"
width="9px" height="9px"
xml:space="preserve">
<g id="PathID_682" transform="matrix(1, 0, 0, 1, 4.05, 4.25)">
<path style="fill:#232525;fill-opacity:1" d="M0.35 -3.75L1.95 -1.6Q3.25 0.25 3.95 1.65Q4.6 3 3.9 3.15Q4 2.2 3.55 2Q3.7 4.15 2.3 3.95Q3.25 3.05 2.35 2.15Q1.4 4.3 0.95 3.7L-0.35 2.3Q-1.9 2.65 -1.5 1.25Q-1.85 1.6 -2.2 1.5Q-2.6 1.35 -2.6 0.5Q-4.1 1.4 -3.9 -1.85Q-3.8 -3 -3.2 -3.55Q-2.4 -4.4 -1.2 -4.25Q-0.05 -4.15 0.35 -3.75M2.35 2.15Q3.25 3.05 2.3 3.95M3.55 2Q4 2.2 3.9 3.15" />
<path style="fill:none;stroke-width:0.7;stroke-linecap:round;stroke-linejoin:miter;stroke-miterlimit:5;stroke:#000000;stroke-opacity:0.45098" d="M0.35 -3.75L1.95 -1.6Q3.25 0.25 3.95 1.65Q4.6 3 3.9 3.15Q3.7 4.15 2.3 3.95Q1.4 4.3 0.95 3.7L-0.35 2.3Q-1.9 2.65 -1.5 1.25Q-1.85 1.6 -2.2 1.5Q-2.6 1.35 -2.6 0.5Q-4.1 1.4 -3.9 -1.85" />
<path style="fill:none;stroke-width:0.7;stroke-linecap:round;stroke-linejoin:miter;stroke-miterlimit:5;stroke:#000000;stroke-opacity:0.45098" d="M2.3 3.95Q3.25 3.05 2.35 2.15" />
<path style="fill:none;stroke-width:0.7;stroke-linecap:round;stroke-linejoin:miter;stroke-miterlimit:5;stroke:#000000;stroke-opacity:0.45098" d="M3.55 2Q4 2.2 3.9 3.15" />
</g>
</svg>
