<?xml version="1.0" encoding="utf-8"?>
<svg version="1.1" id="Layer_1"
xmlns="http://www.w3.org/2000/svg"
xmlns:xlink="http://www.w3.org/1999/xlink"
width="25px" height="25px"
xml:space="preserve">
<g id="PathID_1151" transform="matrix(1, 0, 0, 1, 12.35, 12.75)">
<path style="fill:#383025;fill-opacity:1" d="M-0.15 -8.3L1.8 -9.65L3.75 -9.4Q6.2 -6.45 7.1 -4.6Q1.3 -7.7 -3.4 -7.45Q-1.2 -6.35 0.25 -4.55L-4.55 -5.6L-6.25 -5.9L-4.75 -7.8Q-2.2 -10.1 -3 -12.5Q-1.6 -11.15 -1.95 -9.75L-2.45 -8L-1.3 -9.85Q-0.45 -11.3 2.35 -11.15Q-0.05 -9.3 -0.15 -8.3" />
<path style="fill:#251F18;fill-opacity:1" d="M-1.3 -9.85L-2.45 -8L-1.95 -9.75Q-1.6 -11.15 -3 -12.5Q-0.75 -11.15 -1.3 -9.85M1.8 -9.65L-0.15 -8.3Q-0.05 -9.3 2.35 -11.15L1.6 -10.15Q1.45 -9.6 1.8 -9.65" />
<path style="fill:#EDE7DD;fill-opacity:1" d="M4.15 3.95L1.35 4.05Q2.55 3 3.1 1.65Q4.3 -0.95 1.95 -2.65L-1.75 -4.6L-4.55 -5.6L0.25 -4.55Q-1.2 -6.35 -3.4 -7.45Q1.3 -7.7 7.1 -4.6Q6.2 -6.45 3.75 -9.4Q6.1 -8.7 7.9 -6.15L9.25 -3.75L9.95 -2.4L10.8 -1.55L11.9 -0.7Q10.7 0.95 4.15 3.95" />
<path style="fill:#988777;fill-opacity:1" d="M1.35 4.05L4.15 3.95Q10.7 0.95 11.9 -0.7L12.1 0.7Q11.95 2.95 9.6 4.7L9 5.1L7.8 5.85Q6.55 4.95 3.2 6.1L0.75 7.35L-2.95 6.15Q-3.4 5.8 -3.75 5.7Q-0.75 5.7 1.35 4.05" />
<path style="fill:#A47C4B;fill-opacity:1" d="M-1.75 -4.6L1.95 -2.65Q4.3 -0.95 3.1 1.65Q2.55 3 1.35 4.05L-2.45 3.6Q-6.8 1.35 -7 -2.3Q-7.1 -4.15 -6.25 -5.9L-4.55 -5.6L-1.75 -4.6" />
<path style="fill:#674A22;fill-opacity:1" d="M3.2 6.1Q6.55 4.95 7.8 5.85L4.55 7.55L4.15 7.75L2.5 8.25L0.75 7.35L3.2 6.1M-3.75 5.7Q-5.4 5.15 -6.45 4.05L-7.3 2.6Q-7.8 1.35 -7.75 -0.65Q-7.7 -3.8 -6.25 -5.9Q-7.1 -4.15 -7 -2.3Q-6.8 1.35 -2.45 3.6L1.35 4.05Q-0.75 5.7 -3.75 5.7" />
<path style="fill:none;stroke-width:0.7;stroke-linecap:round;stroke-linejoin:miter;stroke-miterlimit:5;stroke:#000000;stroke-opacity:0.4" d="M2.35 -11.15Q-0.45 -11.3 -1.3 -9.85" />
<path style="fill:none;stroke-width:0.7;stroke-linecap:round;stroke-linejoin:miter;stroke-miterlimit:5;stroke:#000000;stroke-opacity:0.4" d="M-3 -12.5Q-2.2 -10.1 -4.75 -7.8L-6.25 -5.9" />
<path style="fill:none;stroke-width:0.7;stroke-linecap:round;stroke-linejoin:miter;stroke-miterlimit:5;stroke:#000000;stroke-opacity:0.4" d="M3.75 -9.4L1.8 -9.65" />
<path style="fill:none;stroke-width:0.7;stroke-linecap:round;stroke-linejoin:miter;stroke-miterlimit:5;stroke:#000000;stroke-opacity:0.4" d="M2.35 -11.15L1.6 -10.15Q1.45 -9.6 1.8 -9.65" />
<path style="fill:none;stroke-width:0.7;stroke-linecap:round;stroke-linejoin:miter;stroke-miterlimit:5;stroke:#000000;stroke-opacity:0.4" d="M3.75 -9.4Q6.1 -8.7 7.9 -6.15L9.25 -3.75L9.95 -2.4L10.8 -1.55L11.9 -0.7L12.1 0.7Q11.95 2.95 9.6 4.7L9 5.1L7.8 5.85L4.55 7.55" />
<path style="fill:none;stroke-width:0.7;stroke-linecap:round;stroke-linejoin:miter;stroke-miterlimit:5;stroke:#000000;stroke-opacity:0.4" d="M-2.95 6.15Q-3.4 5.8 -3.75 5.7Q-5.4 5.15 -6.45 4.05L-7.3 2.6Q-7.8 1.35 -7.75 -0.65Q-7.7 -3.8 -6.25 -5.9" />
<path style="fill:none;stroke-width:0.7;stroke-linecap:round;stroke-linejoin:miter;stroke-miterlimit:5;stroke:#000000;stroke-opacity:0.4" d="M-3 -12.5Q-0.75 -11.15 -1.3 -9.85" />
</g>
<g id="PathID_1152" transform="matrix(1, 0, 0, 1, 12.35, 12.75)">
<path style="fill:none;stroke-width:0.7;stroke-linecap:round;stroke-linejoin:miter;stroke-miterlimit:5;stroke:#000000;stroke-opacity:0.501961" d="M4.25 2.8Q-5.05 2.95 -12.1 7.9" />
</g>
<g id="PathID_1153" transform="matrix(1, 0, 0, 1, 12.35, 12.75)">
<path style="fill:none;stroke-width:0.7;stroke-linecap:round;stroke-linejoin:miter;stroke-miterlimit:5;stroke:#000000;stroke-opacity:0.501961" d="M5.75 3.75Q-2 5.95 -6.8 11.65" />
</g>
<g id="PathID_1154" transform="matrix(1, 0, 0, 1, 12.35, 12.75)">
<path style="fill:#FFE4C9;fill-opacity:1" d="M9.5 -0.35Q10.35 -0.85 11.25 -0.8Q10.9 0.35 9.5 -0.35" />
<path style="fill:#ECC298;fill-opacity:1" d="M10.15 0.6Q9.15 0.6 9 -0.05L9.5 -0.35Q10.9 0.35 11.25 -0.8L11.55 -0.8L11.9 -0.15Q11 0.95 11.25 1.3L10.75 1.6Q10.95 1 10.15 0.6" />
<path style="fill:#9A7249;fill-opacity:1" d="M9 -0.05Q9.15 0.6 10.15 0.6Q10.95 1 10.75 1.6L10.4 1.75Q10.05 0.6 9.05 0.9L8.7 0.2L9 -0.05" />
<path style="fill:none;stroke-width:0.7;stroke-linecap:round;stroke-linejoin:round;stroke-miterlimit:3;stroke:#000000;stroke-opacity:0.301961" d="M10.75 1.6L11.25 1.3Q11 0.95 11.9 -0.15L11.55 -0.8L11.25 -0.8" />
<path style="fill:none;stroke-width:0.7;stroke-linecap:round;stroke-linejoin:round;stroke-miterlimit:3;stroke:#000000;stroke-opacity:0.301961" d="M9.5 -0.35L9 -0.05" />
<path style="fill:none;stroke-width:0.7;stroke-linecap:round;stroke-linejoin:round;stroke-miterlimit:3;stroke:#000000;stroke-opacity:0.301961" d="M10.75 1.6L10.4 1.75Q10.05 0.6 9.05 0.9L8.7 0.2L9 -0.05" />
<path style="fill:none;stroke-width:0.7;stroke-linecap:round;stroke-linejoin:round;stroke-miterlimit:3;stroke:#000000;stroke-opacity:0.301961" d="M11.25 -0.8Q10.35 -0.85 9.5 -0.35" />
</g>
</svg>
