<?xml version="1.0" encoding="utf-8"?>
<svg version="1.1" id="Layer_1"
xmlns="http://www.w3.org/2000/svg"
xmlns:xlink="http://www.w3.org/1999/xlink"
width="21px" height="40px"
xml:space="preserve">
<g id="PathID_788" transform="matrix(1, 0, 0, 1, 12.65, 20.1)">
<path style="fill:#803002;fill-opacity:1" d="M-0.85 -2.7Q-0.85 -0.3 -2.35 1.15Q-3.45 -0.6 -3.15 -2.4L-4.15 0.1L-3.9 -1.2Q-3 -4.55 -3.75 -7.4Q-4.5 -10.1 -6.05 -10.95L-4.5 -10.95L-2.45 -9.5Q-2.3 -11.5 -3.55 -13.55L-1.65 -11.35L-2.1 -14.05L-0.45 -12.75Q0.1 -10.85 0.25 -9.35Q0.55 -5.95 0.3 -3.85L-0.05 0.15L-0.85 -2.7M1.35 10.9Q1.65 13 3.25 14.35Q1.4 13.85 0.55 13L1.9 16Q-0.05 14 -2.35 13.2Q-2 15.25 -1 16.7Q-3.15 15.2 -4.3 12.95L-2.6 14.4Q-4.8 11 -4.7 5.2L-3.8 6.25L-3.05 8.95L-2.9 4.5Q-2.45 6.45 -1.1 7.65L-1.25 4.1L0.15 6.15Q0.45 7.9 1.1 8.85Q2.2 10.45 3.7 11.55L1.35 10.9M-11.2 -15.75L-12.05 -18.55L-10 -18.9L-11.9 -19.35L-8.35 -19.85L-6.3 -18.5Q-7.85 -18.7 -8.8 -18.1Q-9 -16.1 -7.75 -14.25Q-8.75 -15.7 -10.65 -16.6L-10 -13.65Q-10.95 -14.6 -11.2 -15.75" />
<path style="fill:#C65209;fill-opacity:1" d="M-4.45 -10.95L-8.9 -12.8L-10 -13.65L-10.65 -16.6Q-8.75 -15.7 -7.75 -14.25Q-9 -16.1 -8.8 -18.1Q-7.85 -18.7 -6.3 -18.5L-8.35 -19.85L-7.65 -19.95Q-4.6 -19.35 -2.75 -16.8L-2.75 -18Q-1.85 -16.65 -0.95 -14.2L-0.45 -12.75L-2.1 -14.05L-1.65 -11.35L-3.55 -13.55Q-2.3 -11.5 -2.45 -9.5L-4.5 -10.95L-4.45 -10.95M-3.8 6.25Q-4.7 3.25 -4.15 0.1L-3.15 -2.4Q-3.45 -0.6 -2.35 1.15Q-0.85 -0.3 -0.85 -2.7L-0.05 0.15L-0.1 1.7Q-0.15 4.35 0.15 6.15L-1.25 4.1L-1.1 7.65Q-2.45 6.45 -2.9 4.5L-3.05 8.95L-3.8 6.25M3.7 11.55Q5.1 12.55 6.8 13.1Q8.15 15.1 7.25 17.25Q6.5 19.2 5.75 19L5.7 19Q2.9 19.55 0.25 18.55L1.75 18.15L-1 16.7Q-2 15.25 -2.35 13.2Q-0.05 14 1.9 16L0.55 13Q1.4 13.85 3.25 14.35Q1.65 13 1.35 10.9L3.7 11.55" />
<path style="fill:none;stroke-width:0.7;stroke-linecap:round;stroke-linejoin:miter;stroke-miterlimit:5;stroke:#000000;stroke-opacity:0.4" d="M-0.05 0.15L0.3 -3.85Q0.55 -5.95 0.25 -9.35Q0.1 -10.85 -0.45 -12.75" />
<path style="fill:none;stroke-width:0.7;stroke-linecap:round;stroke-linejoin:miter;stroke-miterlimit:5;stroke:#000000;stroke-opacity:0.4" d="M-4.5 -10.95L-6.05 -10.95Q-4.5 -10.1 -3.75 -7.4Q-3 -4.55 -3.9 -1.2L-4.15 0.1" />
<path style="fill:none;stroke-width:0.7;stroke-linecap:round;stroke-linejoin:miter;stroke-miterlimit:5;stroke:#000000;stroke-opacity:0.4" d="M-0.05 0.15L-0.1 1.7Q-0.15 4.35 0.15 6.15Q0.45 7.9 1.1 8.85Q2.2 10.45 3.7 11.55Q5.1 12.55 6.8 13.1Q8.15 15.1 7.25 17.25Q6.5 19.2 5.75 19L5.7 19Q2.9 19.55 0.25 18.55L1.75 18.15L-1 16.7Q-3.15 15.2 -4.3 12.95L-2.6 14.4Q-4.8 11 -4.7 5.2L-3.8 6.25Q-4.7 3.25 -4.15 0.1" />
<path style="fill:none;stroke-width:0.7;stroke-linecap:round;stroke-linejoin:miter;stroke-miterlimit:5;stroke:#000000;stroke-opacity:0.4" d="M-0.45 -12.75L-0.95 -14.2Q-1.85 -16.65 -2.75 -18L-2.75 -16.8Q-4.6 -19.35 -7.65 -19.95L-8.35 -19.85" />
<path style="fill:none;stroke-width:0.7;stroke-linecap:round;stroke-linejoin:miter;stroke-miterlimit:5;stroke:#000000;stroke-opacity:0.4" d="M-10 -13.65L-8.9 -12.8L-4.45 -10.95L-4.5 -10.95" />
<path style="fill:none;stroke-width:0.7;stroke-linecap:round;stroke-linejoin:miter;stroke-miterlimit:5;stroke:#000000;stroke-opacity:0.4" d="M-8.35 -19.85L-11.9 -19.35L-10 -18.9L-12.05 -18.55L-11.2 -15.75Q-10.95 -14.6 -10 -13.65" />
</g>
<g id="PathID_789" transform="matrix(1, 0, 0, 1, 12.65, 20.1)">
<path style="fill:#000000;fill-opacity:0.4" d="M-10 -13.65Q-10.95 -14.6 -11.2 -15.75L-12.05 -18.55Q-10.05 -15.85 -6.55 -14.95Q-2.75 -12.9 -2.25 -9.5Q-1.7 -5.45 -2.6 -1.25Q-3.3 11.75 1.95 15Q5.65 16.55 7.55 14.7Q7.8 15.95 7.25 17.25Q6.5 19.2 5.75 19L5.7 19Q2.9 19.55 0.25 18.55L1.75 18.15L-1 16.7Q-3.15 15.2 -4.3 12.95L-2.6 14.4Q-4.8 11 -4.7 5.2L-3.8 6.25Q-4.7 3.25 -4.15 0.1L-3.9 -1.2Q-3 -4.55 -3.75 -7.4Q-4.5 -10.1 -6.05 -10.95L-4.45 -10.95L-8.9 -12.8L-10 -13.65" />
</g>
</svg>
