<?xml version="1.0" encoding="utf-8"?>
<svg version="1.1" id="Layer_1"
xmlns="http://www.w3.org/2000/svg"
xmlns:xlink="http://www.w3.org/1999/xlink"
width="8px" height="9px"
xml:space="preserve">
<g id="PathID_1074" transform="matrix(1, 0, 0, 1, 3.85, 4.25)">
<linearGradient
id="LinearGradID_296" gradientUnits="userSpaceOnUse" gradientTransform="matrix(0.00325012, 0.00325012, -0.00231934, 0.00230408, -0.85, 1.5)" spreadMethod ="pad" x1="-819.2" y1="0" x2="819.2" y2="0" >
<stop  offset="0" style="stop-color:#723800;stop-opacity:1" />
<stop  offset="0.52549" style="stop-color:#B86C00;stop-opacity:1" />
<stop  offset="0.807843" style="stop-color:#C4B4A4;stop-opacity:1" />
<stop  offset="1" style="stop-color:#C6BAA9;stop-opacity:1" />
</linearGradient>
<path style="fill:url(#LinearGradID_296) " d="M0.35 -3.75L1.4 -2.5L2.5 -0.85L3.6 1.35Q4.15 2.7 3.05 3.75Q2.6 4.15 2.2 4.2Q3.25 3.05 2.1 1.55Q1.6 4.3 1.05 3.55Q0.2 2.3 -1.45 1.25Q-3.1 0.2 -3.65 -1.05L-3.7 -1.1Q-4.1 -2.7 -3.2 -3.55Q-2.4 -4.4 -1.2 -4.25Q-0.05 -4.15 0.35 -3.75M2.1 1.55Q3.25 3.05 2.2 4.2" />
<path style="fill:none;stroke-width:0.7;stroke-linecap:round;stroke-linejoin:miter;stroke-miterlimit:5;stroke:#000000;stroke-opacity:0.4" d="M0.35 -3.75L1.4 -2.5L2.5 -0.85L3.6 1.35Q4.15 2.7 3.05 3.75Q2.6 4.15 2.2 4.2Q1.6 4.3 1.05 3.55Q0.2 2.3 -1.45 1.25Q-3.1 0.2 -3.65 -1.05L-3.7 -1.1" />
<path style="fill:none;stroke-width:0.7;stroke-linecap:round;stroke-linejoin:miter;stroke-miterlimit:5;stroke:#000000;stroke-opacity:0.4" d="M2.2 4.2Q3.25 3.05 2.1 1.55" />
</g>
<g id="PathID_1075" transform="matrix(1, 0, 0, 1, 3.85, 4.25)">
<path style="fill:#151208;fill-opacity:1" d="M2.75 -0.5Q1.9 -0.3 0.35 1.15Q0.8 -0.1 2.1 -1.35L2.75 -0.5" />
</g>
</svg>
