<?xml version="1.0" encoding="utf-8"?>
<svg version="1.1" id="Layer_1"
xmlns="http://www.w3.org/2000/svg"
xmlns:xlink="http://www.w3.org/1999/xlink"
width="10px" height="8px"
xml:space="preserve">
<g id="PathID_1113" transform="matrix(1, 0, 0, 1, 5, 3.8)">
<path style="fill:#262626;fill-opacity:1" d="M3.45 0.9L4.2 2.1Q4.55 2.6 3.5 3.25Q3.25 2.2 2.3 1.6Q3.25 2.2 3.5 3.25L3.4 3.55Q3.25 3.75 2.7 3.75Q1.95 2.25 -0.1 0.75L-3.35 0.9L-3.65 -0.35L-4.4 -0.35L-4.35 -1.55L-3.5 -3.1Q-2.2 -4 -0.9 -3.7Q0.65 -3.35 2 -1.95L2.3 -1.65L2.8 -1.1L3.6 -0.1Q4.05 0.5 4.2 2.1L3.45 0.9" />
<path style="fill:#191818;fill-opacity:1" d="M1.1 3.25L-1 2.05Q-2.15 1.5 -2.6 1.55L-3.8 1.55L-4 0.05L-4.65 0.55Q-5.2 -0.25 -4.35 -1.55L-4.4 -0.35L-3.65 -0.35L-3.35 0.9L-0.1 0.75Q1.95 2.25 2.7 3.75Q2.05 3.9 1.1 3.25" />
<path style="fill:none;stroke-width:0.7;stroke-linecap:round;stroke-linejoin:miter;stroke-miterlimit:5;stroke:#000000;stroke-opacity:0.4" d="M4.2 2.1Q4.05 0.5 3.6 -0.1L2.8 -1.1L2.3 -1.65" />
<path style="fill:none;stroke-width:0.7;stroke-linecap:round;stroke-linejoin:miter;stroke-miterlimit:5;stroke:#000000;stroke-opacity:0.4" d="M2.7 3.75Q3.25 3.75 3.4 3.55L3.5 3.25Q3.25 2.2 2.3 1.6" />
<path style="fill:none;stroke-width:0.7;stroke-linecap:round;stroke-linejoin:miter;stroke-miterlimit:5;stroke:#000000;stroke-opacity:0.4" d="M-4.35 -1.55Q-5.2 -0.25 -4.65 0.55L-4 0.05L-3.8 1.55L-2.6 1.55Q-2.15 1.5 -1 2.05L1.1 3.25Q2.05 3.9 2.7 3.75" />
<path style="fill:none;stroke-width:0.7;stroke-linecap:round;stroke-linejoin:miter;stroke-miterlimit:5;stroke:#000000;stroke-opacity:0.4" d="M4.2 2.1L3.45 0.9" />
<path style="fill:none;stroke-width:0.7;stroke-linecap:round;stroke-linejoin:miter;stroke-miterlimit:5;stroke:#000000;stroke-opacity:0.4" d="M3.5 3.25Q4.55 2.6 4.2 2.1" />
</g>
<g id="PathID_1114" transform="matrix(1, 0, 0, 1, 5, 3.8)">
<path style="fill:#474747;fill-opacity:0.65098" d="M0.6 -0.65L1 -0.8L1.4 -0.65L1.6 -0.25L1.4 0.15L1 0.35L0.6 0.15Q0.45 0 0.45 -0.25L0.6 -0.65M0.35 -0.75Q-0.1 -0.35 -0.75 -0.35Q-1.35 -0.35 -1.8 -0.75Q-2.25 -1.1 -2.25 -1.65L-1.8 -2.55L-0.75 -2.9L0.35 -2.55L0.8 -1.65Q0.8 -1.1 0.35 -0.75" />
</g>
</svg>
