<?xml version="1.0" encoding="utf-8"?>
<svg version="1.1" id="Layer_1"
xmlns="http://www.w3.org/2000/svg"
xmlns:xlink="http://www.w3.org/1999/xlink"
width="21px" height="20px"
xml:space="preserve">
<g id="PathID_426" transform="matrix(1, 0, 0, 1, 10.6, 9.3)">
<path style="fill:#978A81;fill-opacity:1" d="M8.75 -2.05L8.05 -4.95Q4.1 -3.4 2.95 -3.6Q0.15 -4.1 -1.45 -5.45Q-2.45 -6.3 -2.7 -7.05Q-1.6 -7.7 1.15 -8.65Q5.3 -10.15 6.5 -8.15Q7.15 -8.4 7.85 -7.45L8.55 -6.2L9.4 -3.55L8.75 -2.05" />
<path style="fill:#090806;fill-opacity:1" d="M-9.25 2.35L-9.05 3.7Q-8.7 4.8 -7.65 5.8L-5.25 7.5Q-4.35 7.95 -2.15 8.2Q1.5 8.65 5.4 7.6Q6.55 7.3 7.45 6.65L8.65 5.2L9.15 4.1L8.75 -2L8.75 -2.05L9.4 -3.55L9.7 -2.15L9.75 -1.55L9.8 1.5L9.8 4.55L9.7 5.1Q9.4 6.35 8.4 7.3Q7.3 8.25 5.5 8.85Q1.1 10.1 -2.45 9.65L-4.05 9.35Q-6.55 8.75 -8.35 7.2L-9.75 5.85Q-10.7 4.65 -10.4 3.4L-9.9 1.8L-8.75 -0.15Q-9.25 1.25 -9.25 2.35" />
<path style="fill:#EBEFEE;fill-opacity:1" d="M0.45 2.6Q-4.8 1.7 -5.45 -4.25L-2.7 -7.05Q-2.45 -6.3 -1.45 -5.45Q0.15 -4.1 2.95 -3.6Q4.1 -3.4 8.05 -4.95L8.75 -2.05L8.75 -2Q5.7 3.5 0.45 2.6" />
<path style="fill:#1E1A14;fill-opacity:1" d="M8.75 -2L9.15 4.1L8.65 5.2L7.45 6.65Q6.55 7.3 5.4 7.6Q1.5 8.65 -2.15 8.2Q-4.35 7.95 -5.25 7.5L-7.65 5.8Q-8.7 4.8 -9.05 3.7L-9.25 2.35Q-9.25 1.25 -8.75 -0.15L-5.45 -4.25Q-4.8 1.7 0.45 2.6Q5.7 3.5 8.75 -2" />
<path style="fill:none;stroke-width:0.7;stroke-linecap:round;stroke-linejoin:miter;stroke-miterlimit:5;stroke:#000000;stroke-opacity:0.4" d="M9.4 -3.55L8.55 -6.2L7.85 -7.45Q7.15 -8.4 6.5 -8.15" />
<path style="fill:none;stroke-width:0.7;stroke-linecap:round;stroke-linejoin:miter;stroke-miterlimit:5;stroke:#000000;stroke-opacity:0.4" d="M1.15 -8.65Q-1.6 -7.7 -2.7 -7.05" />
<path style="fill:none;stroke-width:0.7;stroke-linecap:round;stroke-linejoin:miter;stroke-miterlimit:5;stroke:#000000;stroke-opacity:0.4" d="M9.4 -3.55L9.7 -2.15L9.75 -1.55L9.8 1.5L9.8 4.55L9.7 5.1Q9.4 6.35 8.4 7.3Q7.3 8.25 5.5 8.85Q1.1 10.1 -2.45 9.65L-4.05 9.35Q-6.55 8.75 -8.35 7.2L-9.75 5.85Q-10.7 4.65 -10.4 3.4L-9.9 1.8L-8.75 -0.15L-5.45 -4.25L-2.7 -7.05" />
</g>
</svg>
