<?xml version="1.0" encoding="utf-8"?>
<svg version="1.1" id="Layer_1"
xmlns="http://www.w3.org/2000/svg"
xmlns:xlink="http://www.w3.org/1999/xlink"
width="17px" height="17px"
xml:space="preserve">
<g id="PathID_488" transform="matrix(1, 0, 0, 1, 8.85, 8.1)">
<path style="fill:#9F7651;fill-opacity:1" d="M4.25 -3.9L0.8 -3.25L-0.75 -2.4Q1 -3.9 -0.2 -4.6L-4.45 -4.75Q-5.8 -4.35 -6.9 -3.75L-4.7 -5.55Q-2.35 -7.05 1 -6Q3.45 -4.85 4.25 -3.9Q6.15 -1.7 5.3 0.3Q4.5 2.25 4.6 2.85Q3.8 1.5 4.4 0.5Q5 -1 3 -2.3Q1.45 -2.65 -0.15 -1.95L-2.4 -0.35L-1.5 -1.7L-0.75 -2.4L0.8 -3.25L4.25 -3.9" />
<path style="fill:#A58B96;fill-opacity:1" d="M3.6 -6.7L5.15 -5.6L6.4 -4Q7.7 -2 7.8 -0.05Q7.9 1.6 7.5 3.25L7 4.95L6.25 4.7L5.5 4.15Q4.7 3.65 4.6 2.85Q4.5 2.25 5.3 0.3Q6.15 -1.7 4.25 -3.9Q3.45 -4.85 1 -6Q1.1 -6.7 2.9 -7.05L3.6 -6.7" />
<path style="fill:#EFE7DC;fill-opacity:1" d="M-4.7 -5.55L-6.9 -3.75Q-8.1 -1.7 -8.55 0.5L-8.45 -1.5Q-8.1 -3.65 -6.4 -5.6Q-4.4 -7.85 -0.65 -7.85Q1.25 -7.8 2.9 -7.05Q1.1 -6.7 1 -6Q-2.35 -7.05 -4.7 -5.55" />
<path style="fill:#CD9C6D;fill-opacity:1" d="M3.75 4.55Q2.2 4.2 2.2 1.25Q1.3 -0.55 -0.05 -0.75Q-2.3 -1.25 -3.15 2.4Q-3 0.8 -2.4 -0.35L-0.15 -1.95Q1.45 -2.65 3 -2.3Q5 -1 4.4 0.5Q3.8 1.5 4.6 2.85Q4.7 3.65 5.5 4.15L6.25 4.7L3.75 4.55M-4.45 -4.75L-0.2 -4.6Q1 -3.9 -0.75 -2.4L-1.5 -1.7Q-2.95 -2.25 -5.9 -0.95L-8.55 0.5Q-8.1 -1.7 -6.9 -3.75Q-5.8 -4.35 -4.45 -4.75" />
<path style="fill:#EDC49A;fill-opacity:1" d="M5 5.95L3.65 5.45L4.4 6.45Q3.25 7.2 2 7.55L0.2 7.85L-2.45 7.55L-1.25 4.25L-3.8 7.05Q-5 6.5 -6.05 5.5Q-8.3 3.5 -8.55 0.5L-5.9 -0.95Q-2.95 -2.25 -1.5 -1.7L-2.4 -0.35Q-3 0.8 -3.15 2.4Q-2.3 -1.25 -0.05 -0.75Q1.3 -0.55 2.2 1.25Q2.2 4.2 3.75 4.55L5 5.95M-3.15 4.25L-3.15 2.4L-3.15 4.25" />
<path style="fill:none;stroke-width:0.7;stroke-linecap:round;stroke-linejoin:miter;stroke-miterlimit:5;stroke:#000000;stroke-opacity:0.301961" d="M1 -6Q3.45 -4.85 4.25 -3.9Q6.15 -1.7 5.3 0.3Q4.5 2.25 4.6 2.85Q4.7 3.65 5.5 4.15" />
<path style="fill:none;stroke-width:0.7;stroke-linecap:round;stroke-linejoin:miter;stroke-miterlimit:5;stroke:#000000;stroke-opacity:0.301961" d="M7 4.95L7.5 3.25Q7.9 1.6 7.8 -0.05Q7.7 -2 6.4 -4L5.15 -5.6L3.6 -6.7L2.9 -7.05Q1.25 -7.8 -0.65 -7.85Q-4.4 -7.85 -6.4 -5.6Q-8.1 -3.65 -8.45 -1.5L-8.55 0.5" />
<path style="fill:none;stroke-width:0.7;stroke-linecap:round;stroke-linejoin:miter;stroke-miterlimit:5;stroke:#000000;stroke-opacity:0.301961" d="M-4.7 -5.55Q-2.35 -7.05 1 -6" />
<path style="fill:none;stroke-width:0.7;stroke-linecap:round;stroke-linejoin:miter;stroke-miterlimit:5;stroke:#000000;stroke-opacity:0.2" d="M-0.75 -2.4L0.8 -3.25L4.25 -3.9" />
<path style="fill:none;stroke-width:0.7;stroke-linecap:round;stroke-linejoin:miter;stroke-miterlimit:5;stroke:#000000;stroke-opacity:0.2" d="M-2.4 -0.35Q-3 0.8 -3.15 2.4" />
<path style="fill:none;stroke-width:0.7;stroke-linecap:round;stroke-linejoin:miter;stroke-miterlimit:5;stroke:#000000;stroke-opacity:0.301961" d="M2 7.55L0.2 7.85L-2.45 7.55L-1.25 4.25L-3.8 7.05Q-5 6.5 -6.05 5.5Q-8.3 3.5 -8.55 0.5" />
<path style="fill:none;stroke-width:0.7;stroke-linecap:round;stroke-linejoin:miter;stroke-miterlimit:5;stroke:#000000;stroke-opacity:0.2" d="M-1.5 -1.7L-0.75 -2.4" />
<path style="fill:none;stroke-width:0.7;stroke-linecap:round;stroke-linejoin:miter;stroke-miterlimit:5;stroke:#000000;stroke-opacity:0.2" d="M-1.5 -1.7L-2.4 -0.35" />
<path style="fill:none;stroke-width:0.7;stroke-linecap:round;stroke-linejoin:miter;stroke-miterlimit:5;stroke:#000000;stroke-opacity:0.2" d="M-3.15 2.4L-3.15 4.25" />
</g>
</svg>
