<?xml version="1.0" encoding="utf-8"?>
<svg version="1.1" id="Layer_1"
xmlns="http://www.w3.org/2000/svg"
xmlns:xlink="http://www.w3.org/1999/xlink"
width="9px" height="8px"
xml:space="preserve">
<g id="PathID_557" transform="matrix(1, 0, 0, 1, 3.95, 3.8)">
<path style="fill:#372F2C;fill-opacity:1" d="M3.7 1.2L3.45 0.9L2.65 0.65Q1.9 -0.65 0.4 -1.35Q0.1 -2.5 -0.7 -2.75Q-1.6 -2.7 -1.45 -1.65Q-2.75 -1.55 -2.25 -0.6Q-1.85 0.35 -0.9 -0.45Q0.25 0 1.4 1.15Q1.7 2.45 2.9 2.1L3.7 1.2L3.5 3.25L3.4 3.55Q3.25 3.75 2.7 3.75Q2.15 2.7 1.05 1.65L1 1.65L-0.1 0.75Q-2.85 0.4 -3.7 -0.6L-3.8 -0.85Q-4.15 -2.25 -3.5 -3.1Q-2.2 -4 -0.9 -3.7Q0.65 -3.35 2 -1.95L2.3 -1.65L2.8 -1.1L2.95 -0.9L3.6 -0.1Q4.05 0.5 4.2 2.1Q4.55 2.6 3.5 3.25L3.7 1.2M3.5 3.25L2.9 2.1M3.7 1.2L4.2 2.1" />
<path style="fill:#C4BAB8;fill-opacity:1" d="M2.9 2.1L2.3 1.6Q1.7 2.45 1.4 1.15Q0.25 0 -0.9 -0.45Q-1.85 0.35 -2.25 -0.6Q-2.75 -1.55 -1.45 -1.65Q-1.6 -2.7 -0.7 -2.75Q0.1 -2.5 0.4 -1.35Q1.9 -0.65 2.65 0.65L3.45 0.9L3.7 1.2L2.9 2.1M2.3 1.6L2.9 2.1" />
<path style="fill:#261E1B;fill-opacity:1" d="M1.3 3.3L0.5 2.75L0.25 2.6Q-0.6 2 -1.6 1.45Q-3.25 0.45 -3.55 -0.15L-3.7 -0.6Q-2.85 0.4 -0.1 0.75L1 1.65L1.05 1.65Q2.15 2.7 2.7 3.75Q2.05 3.9 1.3 3.3" />
<path style="fill:none;stroke-width:0.7;stroke-linecap:round;stroke-linejoin:miter;stroke-miterlimit:5;stroke:#000000;stroke-opacity:0.4" d="M4.2 2.1Q4.05 0.5 3.6 -0.1L2.95 -0.9L2.8 -1.1L2.3 -1.65" />
<path style="fill:none;stroke-width:0.7;stroke-linecap:round;stroke-linejoin:miter;stroke-miterlimit:5;stroke:#000000;stroke-opacity:0.4" d="M-3.8 -0.85L-3.7 -0.6" />
<path style="fill:none;stroke-width:0.7;stroke-linecap:round;stroke-linejoin:miter;stroke-miterlimit:5;stroke:#000000;stroke-opacity:0.4" d="M2.7 3.75Q3.25 3.75 3.4 3.55L3.5 3.25L2.9 2.1" />
<path style="fill:none;stroke-width:0.7;stroke-linecap:round;stroke-linejoin:miter;stroke-miterlimit:5;stroke:#000000;stroke-opacity:0.4" d="M3.45 0.9L3.7 1.2L4.2 2.1Q4.55 2.6 3.5 3.25" />
<path style="fill:none;stroke-width:0.7;stroke-linecap:round;stroke-linejoin:miter;stroke-miterlimit:5;stroke:#000000;stroke-opacity:0.4" d="M2.9 2.1L2.3 1.6" />
<path style="fill:none;stroke-width:0.7;stroke-linecap:round;stroke-linejoin:miter;stroke-miterlimit:5;stroke:#000000;stroke-opacity:0.4" d="M-3.7 -0.6L-3.55 -0.15Q-3.25 0.45 -1.6 1.45Q-0.6 2 0.25 2.6L0.5 2.75L1.3 3.3Q2.05 3.9 2.7 3.75" />
</g>
</svg>
