<?xml version="1.0" encoding="utf-8"?>
<svg version="1.1" id="Layer_1"
xmlns="http://www.w3.org/2000/svg"
xmlns:xlink="http://www.w3.org/1999/xlink"
width="25px" height="25px"
xml:space="preserve">
<g id="PathID_1056" transform="matrix(1, 0, 0, 1, 12.75, 12.85)">
<radialGradient
id="RadialGradID_294" gradientUnits="userSpaceOnUse" gradientTransform="matrix(0.0176239, 0.0101624, -0.0105896, 0.0183716, 12.1, 3.25)" spreadMethod ="pad" cx="0" cy="0" r="819.2" fx="0" fy="0" >
<stop  offset="0.0666667"  style="stop-color:#EEE7DD;stop-opacity:1" />
<stop  offset="0.298039"  style="stop-color:#E7D9CA;stop-opacity:1" />
<stop  offset="0.6"  style="stop-color:#D87F01;stop-opacity:1" />
<stop  offset="1"  style="stop-color:#B25807;stop-opacity:1" />
</radialGradient>
<path style="fill:url(#RadialGradID_294) " d="M-0.6 4.05L-2.15 2.25L2.15 2.5Q4.25 2.05 4.65 0.25Q5.15 -1.7 2.45 -4.55Q0.9 -6.2 -1.55 -6.15Q-4.05 -6.15 -6.3 -4L-6.8 -3.45Q-6.9 -5.15 -6.15 -6.2L-5.25 -7.2L-4.55 -7.95Q-2.2 -10.1 -2.85 -12.1Q-1.6 -11.15 -1.95 -9.75L-2.45 -8L-1.3 -9.85Q-0.45 -11.3 2.35 -11.15L2.05 -10.9Q-0.05 -9.3 -0.15 -8.3L1.8 -9.65Q4.65 -9.85 6.5 -7.9Q8.35 -6 9 -4.35L9.65 -2.75Q10.15 -1.95 10.95 -1.45L9.15 -1.6Q8.1 -1.3 7.45 0.45Q6.8 2.2 4.55 3.75Q2.4 4.75 -0.6 4.05" />
<path style="fill:#723800;fill-opacity:1" d="M2.05 -10.9Q1.6 -10.45 1.8 -9.65L-0.15 -8.3Q-0.05 -9.3 2.05 -10.9M-2.45 -8L-1.95 -9.75Q-1.6 -11.15 -2.85 -12.1L-3 -12.5Q-0.75 -11.15 -1.3 -9.85L-2.45 -8" />
<path style="fill:#EFE7DA;fill-opacity:1" d="M6.65 3.15L4.55 3.75Q6.8 2.2 7.45 0.45Q8.1 -1.3 9.15 -1.6L10.95 -1.45L11.05 -1.4L11.15 -1.35L11.9 -0.7Q9.75 2.2 6.65 3.15M-6.8 -3.45L-6.3 -4Q-4.05 -6.15 -1.55 -6.15Q0.9 -6.2 2.45 -4.55Q5.15 -1.7 4.65 0.25Q4.25 2.05 2.15 2.5L-2.15 2.25L-0.6 4.05Q-2.2 3.95 -3.75 2.8Q-6.5 0.8 -6.8 -3.45" />
<path style="fill:#978778;fill-opacity:1" d="M-3.75 2.8Q-2.2 3.95 -0.6 4.05Q2.4 4.75 4.55 3.75L6.65 3.15Q9.75 2.2 11.9 -0.7L12.1 0.7Q11.95 3.2 9 5.1L4.7 7.55Q3.35 8.1 1.45 7.55Q-0.45 6.95 -0.75 6.6L-4.7 6.1L-4.75 6.15Q-5.8 6.85 -5.5 7.8Q-6.45 6.9 -6.4 6Q-7.65 6.3 -9.2 7.6Q-9.7 5.5 -8.95 4.75Q-9.6 4.6 -11.3 5.8Q-11.1 3.45 -8.8 2.15Q-9.9 2.6 -12.25 1.6Q-9.5 1.05 -9.05 0.2Q-8.65 -0.7 -8.2 -2.35Q-7.8 -4.05 -6.15 -6.2Q-6.9 -5.15 -6.8 -3.45Q-6.5 0.8 -3.75 2.8M-8.6 2L-8.8 2.15L-8.6 2" />
<path style="fill:none;stroke-width:0.7;stroke-linecap:round;stroke-linejoin:miter;stroke-miterlimit:5;stroke:#000000;stroke-opacity:0.4" d="M2.35 -11.15L2.05 -10.9Q1.6 -10.45 1.8 -9.65Q4.65 -9.85 6.5 -7.9Q8.35 -6 9 -4.35L9.65 -2.75Q10.15 -1.95 10.95 -1.45L11.05 -1.4L11.15 -1.35L11.9 -0.7L12.1 0.7Q11.95 3.2 9 5.1L4.7 7.55" />
<path style="fill:none;stroke-width:0.7;stroke-linecap:round;stroke-linejoin:miter;stroke-miterlimit:5;stroke:#000000;stroke-opacity:0.4" d="M-4.7 6.1L-4.75 6.15Q-5.8 6.85 -5.5 7.8Q-6.45 6.9 -6.4 6Q-7.65 6.3 -9.2 7.6Q-9.7 5.5 -8.95 4.75Q-9.6 4.6 -11.3 5.8Q-11.1 3.45 -8.8 2.15Q-9.9 2.6 -12.25 1.6Q-9.5 1.05 -9.05 0.2Q-8.65 -0.7 -8.2 -2.35Q-7.8 -4.05 -6.15 -6.2L-5.25 -7.2L-4.55 -7.95Q-2.2 -10.1 -2.85 -12.1L-3 -12.5Q-0.75 -11.15 -1.3 -9.85Q-0.45 -11.3 2.35 -11.15" />
<path style="fill:none;stroke-width:0.7;stroke-linecap:round;stroke-linejoin:miter;stroke-miterlimit:5;stroke:#000000;stroke-opacity:0.4" d="M-8.8 2.15L-8.6 2" />
</g>
<g id="PathID_1057" transform="matrix(1, 0, 0, 1, 12.75, 12.85)">
<path style="fill:#342C1F;fill-opacity:1" d="M5.45 -8.75L6.75 -7.85Q4.65 -7.95 2.5 -6.9Q3.1 -8.35 5.45 -8.75M4.8 -9.2Q2.45 -8.9 -1 -7.3Q0.45 -9.65 2.85 -9.65L4.8 -9.2M11.5 1.15L11.15 1.6L10.95 2.15L10.85 3.15Q10.7 3.8 10.15 4.1L8.25 5.6Q9.4 4.6 9.75 2.2L9.25 2.2Q8.65 2.2 8.5 1.8L8.5 1.4L8.6 0.9Q8.75 0.65 9.3 0.65L10.45 0.15L11.4 -0.4Q11.7 -0.4 11.65 0L11.5 1.15M0.25 1.2Q-1.95 1.15 -2.8 0.15Q-3.7 -0.85 -4 -2.4Q-1.6 -4.05 -0.5 -4.1Q0.6 -4.15 1.9 -2.9Q3.2 -1.7 3.4 0.85L0.25 1.2M-0.1 -6.1Q2.45 -6.4 3.1 -4.3Q0.2 -5.35 -2.35 -5.05Q-2.7 -5.8 -0.1 -6.1M-2.9 2.1Q-4.3 1.15 -4.15 -0.2Q-2.9 1.2 -0.1 1.85Q-0.45 2.6 -2.9 2.1" />
<path style="fill:#1C1710;fill-opacity:1" d="M-0.1 5.35L-1.6 5.5L-3.7 5.35Q-5.95 4 -6.45 2.55L-6.55 1.65Q-5.05 4.1 -0.1 5.35" />
</g>
<g id="PathID_1058" transform="matrix(1, 0, 0, 1, 12.75, 12.85)">
<path style="fill:none;stroke-width:0.7;stroke-linecap:round;stroke-linejoin:miter;stroke-miterlimit:5;stroke:#000000;stroke-opacity:0.501961" d="M4.25 2.8Q-5.05 2.95 -12.1 7.9" />
</g>
<g id="PathID_1059" transform="matrix(1, 0, 0, 1, 12.75, 12.85)">
<path style="fill:none;stroke-width:0.7;stroke-linecap:round;stroke-linejoin:miter;stroke-miterlimit:5;stroke:#000000;stroke-opacity:0.501961" d="M5.75 3.75Q-2 5.95 -6.8 11.65" />
</g>
<g id="PathID_1060" transform="matrix(1, 0, 0, 1, 12.75, 12.85)">
<path style="fill:#D4886B;fill-opacity:1" d="M10.8 -1.2L11.1 -1.2Q10.7 0.25 9 -0.4Q9.85 -1.15 10.8 -1.2" />
<path style="fill:#BF532A;fill-opacity:1" d="M11.45 -1.25L11.9 -0.5Q10.8 1.05 11.1 1.55L10.5 1.95Q10.75 1.2 9.8 0.75Q8.55 0.85 8.4 0.1L9 -0.4Q10.7 0.25 11.1 -1.2L11.45 -1.25" />
<path style="fill:#953B18;fill-opacity:1" d="M10.1 2.25Q9.65 0.7 8.45 1.25L8.05 0.4Q8.2 0.2 8.4 0.1Q8.55 0.85 9.8 0.75Q10.75 1.2 10.5 1.95L10.1 2.25" />
<path style="fill:none;stroke-width:0.7;stroke-linecap:round;stroke-linejoin:round;stroke-miterlimit:3;stroke:#000000;stroke-opacity:0.301961" d="M9 -0.4L8.4 0.1" />
<path style="fill:none;stroke-width:0.7;stroke-linecap:round;stroke-linejoin:round;stroke-miterlimit:3;stroke:#000000;stroke-opacity:0.301961" d="M10.5 1.95L11.1 1.55Q10.8 1.05 11.9 -0.5L11.45 -1.25L11.1 -1.2L10.8 -1.2Q9.85 -1.15 9 -0.4" />
<path style="fill:none;stroke-width:0.7;stroke-linecap:round;stroke-linejoin:round;stroke-miterlimit:3;stroke:#000000;stroke-opacity:0.301961" d="M8.4 0.1Q8.2 0.2 8.05 0.4L8.45 1.25Q9.65 0.7 10.1 2.25L10.5 1.95" />
</g>
</svg>
