<?xml version="1.0" encoding="utf-8"?>
<svg version="1.1" id="Layer_1"
xmlns="http://www.w3.org/2000/svg"
xmlns:xlink="http://www.w3.org/1999/xlink"
width="18px" height="14px"
xml:space="preserve">
<g id="PathID_495" transform="matrix(1, 0, 0, 1, 7.25, 6.8)">
<path style="fill:#A58B96;fill-opacity:1" d="M-6.25 -1.1L-3.7 -2.85Q-1.45 -5.4 -3.45 -6.1L-2.6 -6.5L0 -6.8Q1.65 -6.7 3 -5.95Q4 -5.45 4.8 -4.55Q7.4 -1.6 7 3.6Q0.55 4.5 -1.4 3.6Q-4.35 2.25 -5.6 0.35L-6.25 -1.1M-3.95 -4.3Q-4.7 -3.15 -6.35 -2.1L-6.25 -3.2Q-5.95 -4.4 -4.8 -5.3Q-3.55 -5.55 -3.95 -4.3" />
<path style="fill:#A3988D;fill-opacity:1" d="M-6.35 -2.1L-6.25 -1.1L-6.95 -0.55Q-6.75 -2.2 -6.25 -3.2L-6.35 -2.1" />
<path style="fill:#675251;fill-opacity:1" d="M-5.6 0.35Q-4.35 2.25 -1.4 3.6Q0.55 4.5 7 3.6L7.45 4.65Q8.25 5.65 10.65 6.65Q3.7 6.9 1.15 6.6L-3.7 5.7Q-6 5.2 -6.65 3.75Q-7.3 2.3 -7.05 0.2L-6.95 -0.55L-6.25 -1.1L-5.6 0.35" />
<path style="fill:#EEE7DD;fill-opacity:1" d="M-3.7 -2.85L-6.25 -1.1L-6.35 -2.1Q-4.7 -3.15 -3.95 -4.3Q-3.55 -5.55 -4.8 -5.3L-3.45 -6.1Q-1.45 -5.4 -3.7 -2.85" />
<path style="fill:none;stroke-width:0.7;stroke-linecap:round;stroke-linejoin:miter;stroke-miterlimit:5;stroke:#000000;stroke-opacity:0.4" d="M1.15 6.6L-3.7 5.7Q-6 5.2 -6.65 3.75Q-7.3 2.3 -7.05 0.2L-6.95 -0.55Q-6.75 -2.2 -6.25 -3.2Q-5.95 -4.4 -4.8 -5.3L-3.45 -6.1L-2.6 -6.5" />
</g>
<g id="PathID_496" transform="matrix(1, 0, 0, 1, 7.25, 6.8)">
<path style="fill:#EEE7DD;fill-opacity:1" d="M-5.3 2.75Q-5.85 1.3 -5.65 0.8Q-5.5 0.25 -5 0.05L-4.45 0.2L-4.15 0.6Q-3.6 0.55 -3.25 0.9Q-2.9 1.15 -3.1 1.65L-3.95 2.1Q-4.6 2.25 -5.3 2.75" />
</g>
</svg>
