<?xml version="1.0" encoding="utf-8"?>
<svg version="1.1" id="Layer_1"
xmlns="http://www.w3.org/2000/svg"
xmlns:xlink="http://www.w3.org/1999/xlink"
width="20px" height="41px"
xml:space="preserve">
<g id="PathID_817" transform="matrix(1, 0, 0, 1, 11.05, 20.95)">
<path style="fill:#AFC4C9;fill-opacity:1" d="M-10.85 -16.45Q-10 -15.4 -7.6 -16.05L-8.85 -15.35L-10.25 -15.45L-10.85 -16.45M-7.2 -13.7L-8.45 -13.75Q-10.05 -13.9 -10.5 -14.35Q-8.15 -13.95 -6.05 -14.4L-6.65 -13.7L-7.2 -13.7Q-6.35 -12.8 -4.95 -12.1Q-6.1 -11.9 -4.85 -10.55Q-7.05 -11.55 -6.75 -12.5L-4.95 -12.1L-6.75 -12.5Q-8.45 -13.05 -8.45 -13.75L-7.2 -13.7" />
<linearGradient
id="LinearGradID_248" gradientUnits="userSpaceOnUse" gradientTransform="matrix(0.0055542, -0.020462, 0.0219574, 0.00582886, -1.7, -1.05)" spreadMethod ="pad" x1="-819.2" y1="0" x2="819.2" y2="0" >
<stop  offset="0" style="stop-color:#D4E2E5;stop-opacity:1" />
<stop  offset="1" style="stop-color:#FFFFFF;stop-opacity:1" />
</linearGradient>
<path style="fill:url(#LinearGradID_248) " d="M-0.9 12.45Q-4.15 6.7 -2.95 1.1Q-2.45 -0.75 -2.3 -1.7Q-2.15 -2.65 -2.25 -5.45Q-2.4 -7.8 -4 -9.8L-4.65 -10.5L-4.85 -10.55Q-6.1 -11.9 -4.95 -12.1Q-6.35 -12.8 -7.2 -13.7L-6.65 -13.7L-6.05 -14.4Q-8.15 -13.95 -10.5 -14.35Q-10.95 -14.8 -10.25 -15.45L-8.85 -15.35L-7.6 -16.05Q-10 -15.4 -10.85 -16.45Q-11.05 -17.3 -9.9 -18Q-10.8 -19.35 -10.25 -20.1L-8.15 -20.25Q-7.9 -21.6 -5.6 -19.5Q-3.1 -17.8 -1.3 -12.85Q0.45 -7.9 -0.45 -1.1Q-1.4 5.7 0.7 9.1Q2.7 12.25 6.95 13.75Q8.15 15.4 8.1 16.55Q0.9 15.7 -0.9 12.45" />
<path style="fill:#9FB2B6;fill-opacity:1" d="M-2.95 1.1Q-4.15 6.7 -0.9 12.45Q0.9 15.7 8.1 16.55Q8.05 18.15 5.75 19Q-6.35 15.35 -3.25 2L-2.95 1.1" />
<path style="fill:none;stroke-width:0.7;stroke-linecap:round;stroke-linejoin:miter;stroke-miterlimit:5;stroke:#003846;stroke-opacity:0.329412" d="M8.1 16.55Q8.15 15.4 6.95 13.75Q2.7 12.25 0.7 9.1Q-1.4 5.7 -0.45 -1.1Q0.45 -7.9 -1.3 -12.85Q-3.1 -17.8 -5.6 -19.5Q-7.9 -21.6 -8.15 -20.25L-10.25 -20.1Q-10.8 -19.35 -9.9 -18Q-11.05 -17.3 -10.85 -16.45" />
<path style="fill:none;stroke-width:0.7;stroke-linecap:round;stroke-linejoin:miter;stroke-miterlimit:5;stroke:#003846;stroke-opacity:0.329412" d="M-8.85 -15.35L-10.25 -15.45Q-10.95 -14.8 -10.5 -14.35" />
<path style="fill:none;stroke-width:0.7;stroke-linecap:round;stroke-linejoin:miter;stroke-miterlimit:5;stroke:#003846;stroke-opacity:0.329412" d="M-6.65 -13.7L-7.2 -13.7" />
<path style="fill:none;stroke-width:0.7;stroke-linecap:round;stroke-linejoin:miter;stroke-miterlimit:5;stroke:#003846;stroke-opacity:0.329412" d="M-4.85 -10.55L-4.65 -10.5L-4 -9.8Q-2.4 -7.8 -2.25 -5.45Q-2.15 -2.65 -2.3 -1.7Q-2.45 -0.75 -2.95 1.1" />
<path style="fill:none;stroke-width:0.7;stroke-linecap:round;stroke-linejoin:miter;stroke-miterlimit:5;stroke:#003846;stroke-opacity:0.329412" d="M8.1 16.55Q8.05 18.15 5.75 19Q-6.35 15.35 -3.25 2L-2.95 1.1" />
<path style="fill:none;stroke-width:0.7;stroke-linecap:round;stroke-linejoin:miter;stroke-miterlimit:5;stroke:#003846;stroke-opacity:0.329412" d="M-8.45 -13.75Q-8.45 -13.05 -6.75 -12.5L-4.95 -12.1" />
<path style="fill:none;stroke-width:0.7;stroke-linecap:round;stroke-linejoin:miter;stroke-miterlimit:5;stroke:#003846;stroke-opacity:0.329412" d="M-8.45 -13.75L-7.2 -13.7" />
<path style="fill:none;stroke-width:0.7;stroke-linecap:round;stroke-linejoin:miter;stroke-miterlimit:5;stroke:#003846;stroke-opacity:0.329412" d="M-10.85 -16.45L-10.25 -15.45" />
<path style="fill:none;stroke-width:0.7;stroke-linecap:round;stroke-linejoin:miter;stroke-miterlimit:5;stroke:#003846;stroke-opacity:0.329412" d="M-10.5 -14.35Q-10.05 -13.9 -8.45 -13.75" />
<path style="fill:none;stroke-width:0.7;stroke-linecap:round;stroke-linejoin:miter;stroke-miterlimit:5;stroke:#003846;stroke-opacity:0.329412" d="M-6.75 -12.5Q-7.05 -11.55 -4.85 -10.55" />
</g>
</svg>
