<?xml version="1.0" encoding="utf-8"?>
<svg version="1.1" id="Layer_1"
xmlns="http://www.w3.org/2000/svg"
xmlns:xlink="http://www.w3.org/1999/xlink"
width="15px" height="14px"
xml:space="preserve">
<g id="PathID_722" transform="matrix(1, 0, 0, 1, 6.95, 6.65)">
<path style="fill:#221912;fill-opacity:1" d="M2 3.4Q6.45 2.3 5.8 -3.8L6.55 -2.85L6.95 -2.2Q7.6 -0.85 7.55 0.85L7.45 1.9L7.3 2.7Q7.05 3.85 6.25 4.7L4.6 5.9Q2.5 6.95 -0.3 6.85Q-3.45 6 -4.8 4.55L-5.95 3.35Q-6.85 1.95 -6.8 -0.4L-6.75 -0.95Q-3.85 4 2 3.4" />
<path style="fill:#978778;fill-opacity:1" d="M-6.75 -0.95Q-6.55 -3.05 -4.95 -4.7Q-3.7 -6.1 -2.55 -6.5L0.95 -6.15Q4 -5.5 4.85 -4.55L5.8 -3.8Q6.45 2.3 2 3.4Q-3.85 4 -6.75 -0.95" />
<path style="fill:none;stroke-width:0.7;stroke-linecap:round;stroke-linejoin:miter;stroke-miterlimit:5;stroke:#000000;stroke-opacity:0.4" d="M5.8 -3.8L6.55 -2.85L6.95 -2.2Q7.6 -0.85 7.55 0.85L7.45 1.9L7.3 2.7Q7.05 3.85 6.25 4.7L4.6 5.9Q2.5 6.95 -0.3 6.85Q-3.45 6 -4.8 4.55L-5.95 3.35Q-6.85 1.95 -6.8 -0.4L-6.75 -0.95Q-6.55 -3.05 -4.95 -4.7Q-3.7 -6.1 -2.55 -6.5" />
<path style="fill:none;stroke-width:0.7;stroke-linecap:round;stroke-linejoin:miter;stroke-miterlimit:5;stroke:#000000;stroke-opacity:0.4" d="M4.85 -4.55L5.8 -3.8" />
</g>
</svg>
