<?xml version="1.0" encoding="utf-8"?>
<svg version="1.1" id="Layer_1"
xmlns="http://www.w3.org/2000/svg"
xmlns:xlink="http://www.w3.org/1999/xlink"
width="12px" height="14px"
xml:space="preserve">
<g id="PathID_9" transform="matrix(1, 0, 0, 1, 0, 0.15)">
<path style="fill:#808080;fill-opacity:1" d="M0.25 11.55Q0.65 10.35 1.75 9.05L1.8 12.25L0.25 11.55M4.1 13.05L3.55 12.9L4.05 12.05L4.1 13.05" />
<path style="fill:#585452;fill-opacity:1" d="M1.8 12.25L1.8 13.55L0.1 12.85L0 12.8L0.25 11.6L0.25 11.55L1.8 12.25M4.1 13.05L4.1 13.7L3.05 13.7L3.55 12.9L4.1 13.05" />
</g>
<g id="PathID_10" transform="matrix(1, 0, 0, 1, 0, 0.15)">
<path style="fill:#8B8885;fill-opacity:1" d="M7 -0.05Q8.6 0.2 9.85 1.55Q10.8 2.6 11.1 3.85L11.2 4.4L11.25 4.8Q11.2 6.05 10.55 6.75Q9.95 7.2 9.35 7.25L8.5 7.15L5.4 5.65Q3.7 4.7 3.4 3.35L3.4 3.05Q3.3 1.45 4.35 0.55Q5 -0.15 6.1 -0.1L6.3 -0.1L7 -0.05M7.65 1.05Q6.8 0.9 6.25 1.4Q5.7 1.85 5.75 2.7Q5.8 3.5 6.8 3.85L8.7 4.35L9.75 4.35L9.85 3.4Q9.8 2.55 9.15 1.9Q8.5 1.2 7.65 1.05" />
</g>
</svg>
