<?xml version="1.0" encoding="utf-8"?>
<svg version="1.1" id="Layer_1"
xmlns="http://www.w3.org/2000/svg"
xmlns:xlink="http://www.w3.org/1999/xlink"
width="14px" height="14px"
xml:space="preserve">
<g id="PathID_345" transform="matrix(1, 0, 0, 1, 7, 6.8)">
<path style="fill:#F3CC57;fill-opacity:1" d="M5.45 3.65Q3.9 5.2 1.25 5.15Q-6.85 4.05 -6.25 -3.2L-5.4 -4.5Q-4.05 -5.9 -2.6 -6.5L0 -6.8Q2.85 -6.65 4.8 -4.55L5.55 -3.65L6.2 -2.5Q7.3 1.75 5.45 3.65" />
<path style="fill:#A67815;fill-opacity:1" d="M6.2 -2.5Q6.8 -1.15 6.8 0.4Q6.8 3.25 4.8 5.15Q2.85 7 0 6.85Q-1.8 6.75 -3.25 5.9L-4.85 4.55Q-6.85 2.45 -6.85 -0.4Q-6.85 -1.95 -6.25 -3.2Q-6.85 4.05 1.25 5.15Q3.9 5.2 5.45 3.65Q7.3 1.75 6.2 -2.5" />
<path style="fill:none;stroke-width:0.7;stroke-linecap:round;stroke-linejoin:miter;stroke-miterlimit:5;stroke:#000000;stroke-opacity:0.4" d="M5.55 -3.65L6.2 -2.5Q6.8 -1.15 6.8 0.4Q6.8 3.25 4.8 5.15Q2.85 7 0 6.85Q-1.8 6.75 -3.25 5.9L-4.85 4.55Q-6.85 2.45 -6.85 -0.4Q-6.85 -1.95 -6.25 -3.2L-5.4 -4.5Q-4.05 -5.9 -2.6 -6.5" />
</g>
<g id="PathID_346" transform="matrix(1, 0, 0, 1, 7, 6.8)">
<path style="fill:#64AB05;fill-opacity:1" d="M0.8 -0.25L-0.25 -0.95L-0.45 -2.1L0 -2.75L0 -2.8L0.7 -2.1L1.5 -0.65L0.8 -0.25M-0.65 2.9L-0.25 1.85L0.65 1.2L1.35 1.7Q1.1 2.55 0.25 3.2L-0.1 3.45L-0.65 2.9M-4.1 2.55L-2.95 2.65L-2.1 3.35L-2.05 4.05L-2.45 4.05Q-3.75 3.9 -4.7 3.05L-4.1 2.55M-4.9 -0.75L-4.5 0.25L-4.95 1.3L-5.45 1.45L-5.8 1.5L-5.95 0.95L-6 -0.1L-5.75 -1.2L-4.9 -0.75M-2.05 -2.6L-2.95 -1.8L-4.1 -1.9L-4.7 -2.65L-4.65 -2.7Q-3.5 -3.55 -2.1 -3.5L-2.05 -2.6M-1.1 -0.3L-1.2 1.15L-2.5 1.55L-3.45 0.4L-2.6 -0.7L-1.1 -0.3" />
<path style="fill:#EEE7DD;fill-opacity:1" d="M-2.6 -0.7L-2.95 -1.8L-2.6 -0.7L-3.45 0.4L-4.5 0.25L-4.9 -0.75L-4.1 -1.9L-4.9 -0.75L-5.75 -1.2L-4.7 -2.65L-4.1 -1.9L-2.95 -1.8L-2.05 -2.6L-2.1 -3.5L-1.85 -3.5Q-0.85 -3.4 0 -2.8L0 -2.75L-0.45 -2.1L-0.25 -0.95L0.8 -0.25L0.65 1.2L0.8 -0.25L1.5 -0.65L1.6 0.7L1.35 1.7L0.65 1.2L-0.25 1.85L-0.65 2.9L-0.1 3.45Q-1 4.05 -2.05 4.05L-2.1 3.35L-2.95 2.65L-4.1 2.55L-4.7 3.05L-5.1 2.6L-5.8 1.5L-5.45 1.45L-4.95 1.3L-4.5 0.25L-3.45 0.4L-2.5 1.55L-1.2 1.15L-1.1 -0.3L-2.6 -0.7M-0.25 -0.95L-1.1 -0.3L-0.25 -0.95M-2.05 -2.6L-0.45 -2.1L-2.05 -2.6M-1.2 1.15L-0.25 1.85L-1.2 1.15M-4.1 2.55L-4.45 2.15L-4.95 1.3L-4.45 2.15L-4.1 2.55M-2.5 1.55L-2.9 2.45L-2.95 2.65L-2.9 2.45L-2.5 1.55M-0.65 2.9L-2.1 3.35L-0.65 2.9" />
<path style="fill:none;stroke-width:0.7;stroke-linecap:round;stroke-linejoin:round;stroke-miterlimit:3;stroke:#64AB05;stroke-opacity:0.568627" d="M0 -2.8L0.7 -2.1L1.5 -0.65L1.6 0.7L1.35 1.7Q1.1 2.55 0.25 3.2L-0.1 3.45Q-1 4.05 -2.05 4.05L-2.45 4.05Q-3.75 3.9 -4.7 3.05L-5.1 2.6L-5.8 1.5L-5.95 0.95L-6 -0.1L-5.75 -1.2L-4.7 -2.65" />
<path style="fill:none;stroke-width:0.7;stroke-linecap:round;stroke-linejoin:round;stroke-miterlimit:3;stroke:#F3CC57;stroke-opacity:0.568627" d="M-4.7 -2.65L-4.65 -2.7" />
<path style="fill:none;stroke-width:0.7;stroke-linecap:round;stroke-linejoin:round;stroke-miterlimit:3;stroke:#64AB05;stroke-opacity:0.568627" d="M-4.65 -2.7Q-3.5 -3.55 -2.1 -3.5L-1.85 -3.5Q-0.85 -3.4 0 -2.8" />
<path style="fill:none;stroke-width:0.7;stroke-linecap:round;stroke-linejoin:round;stroke-miterlimit:3;stroke:#F3CC57;stroke-opacity:0.568627" d="M0 -2.8L0 -2.75L-0.45 -2.1L-0.25 -0.95L0.8 -0.25L1.5 -0.65" />
<path style="fill:none;stroke-width:0.7;stroke-linecap:round;stroke-linejoin:round;stroke-miterlimit:3;stroke:#F3CC57;stroke-opacity:0.568627" d="M1.35 1.7L0.65 1.2L-0.25 1.85L-0.65 2.9L-0.1 3.45" />
<path style="fill:none;stroke-width:0.7;stroke-linecap:round;stroke-linejoin:round;stroke-miterlimit:3;stroke:#F3CC57;stroke-opacity:0.568627" d="M0.8 -0.25L0.65 1.2" />
<path style="fill:none;stroke-width:0.7;stroke-linecap:round;stroke-linejoin:round;stroke-miterlimit:3;stroke:#F3CC57;stroke-opacity:0.568627" d="M-4.7 -2.65L-4.1 -1.9L-2.95 -1.8L-2.05 -2.6L-2.1 -3.5" />
<path style="fill:none;stroke-width:0.7;stroke-linecap:round;stroke-linejoin:round;stroke-miterlimit:3;stroke:#F3CC57;stroke-opacity:0.568627" d="M-4.1 -1.9L-4.9 -0.75L-4.5 0.25L-3.45 0.4L-2.6 -0.7L-2.95 -1.8" />
<path style="fill:none;stroke-width:0.7;stroke-linecap:round;stroke-linejoin:round;stroke-miterlimit:3;stroke:#F3CC57;stroke-opacity:0.568627" d="M-1.1 -0.3L-0.25 -0.95" />
<path style="fill:none;stroke-width:0.7;stroke-linecap:round;stroke-linejoin:round;stroke-miterlimit:3;stroke:#F3CC57;stroke-opacity:0.568627" d="M-0.45 -2.1L-2.05 -2.6" />
<path style="fill:none;stroke-width:0.7;stroke-linecap:round;stroke-linejoin:round;stroke-miterlimit:3;stroke:#F3CC57;stroke-opacity:0.568627" d="M-3.45 0.4L-2.5 1.55L-1.2 1.15L-1.1 -0.3L-2.6 -0.7" />
<path style="fill:none;stroke-width:0.7;stroke-linecap:round;stroke-linejoin:round;stroke-miterlimit:3;stroke:#F3CC57;stroke-opacity:0.568627" d="M-4.9 -0.75L-5.75 -1.2" />
<path style="fill:none;stroke-width:0.7;stroke-linecap:round;stroke-linejoin:round;stroke-miterlimit:3;stroke:#F3CC57;stroke-opacity:0.568627" d="M-0.25 1.85L-1.2 1.15" />
<path style="fill:none;stroke-width:0.7;stroke-linecap:round;stroke-linejoin:round;stroke-miterlimit:3;stroke:#F3CC57;stroke-opacity:0.568627" d="M-2.05 4.05L-2.1 3.35L-2.95 2.65L-4.1 2.55L-4.7 3.05" />
<path style="fill:none;stroke-width:0.7;stroke-linecap:round;stroke-linejoin:round;stroke-miterlimit:3;stroke:#F3CC57;stroke-opacity:0.568627" d="M-5.8 1.5L-5.45 1.45L-4.95 1.3L-4.5 0.25" />
<path style="fill:none;stroke-width:0.7;stroke-linecap:round;stroke-linejoin:round;stroke-miterlimit:3;stroke:#F3CC57;stroke-opacity:0.568627" d="M-4.95 1.3L-4.45 2.15L-4.1 2.55" />
<path style="fill:none;stroke-width:0.7;stroke-linecap:round;stroke-linejoin:round;stroke-miterlimit:3;stroke:#F3CC57;stroke-opacity:0.568627" d="M-2.95 2.65L-2.9 2.45L-2.5 1.55" />
<path style="fill:none;stroke-width:0.7;stroke-linecap:round;stroke-linejoin:round;stroke-miterlimit:3;stroke:#F3CC57;stroke-opacity:0.568627" d="M-2.1 3.35L-0.65 2.9" />
</g>
</svg>
