<?xml version="1.0" encoding="utf-8"?>
<svg version="1.1" id="Layer_1"
xmlns="http://www.w3.org/2000/svg"
xmlns:xlink="http://www.w3.org/1999/xlink"
width="14px" height="14px"
xml:space="preserve">
<g id="PathID_1169" transform="matrix(1, 0, 0, 1, 6.95, 6.8)">
<path style="fill:#EFEBE0;fill-opacity:1" d="M1.2 -4.85L0.15 -5.2L-0.8 -5L-1.35 -4.55Q-1.55 -4.3 -0.95 -3.7Q-0.4 -3.1 0.15 -3Q0.75 -3 1.3 -3.35Q1.8 -3.75 1.75 -4.2L1.2 -4.85M3.95 4.25L2.85 4.75L2.9 4.1Q-1.45 3.15 -2.2 2.2Q2.75 2.5 2.7 1.1L-0.85 -1Q-0.1 -1.4 -3.7 -6L-2.6 -6.5L-1.35 -6.75L0 -6.8Q2.15 -6.6 3.75 -5.45L4.95 -4.35L6.2 -2.5Q7.5 2.4 3.95 4.25" />
<path style="fill:#342E22;fill-opacity:1" d="M1.75 -4.2Q1.8 -3.75 1.3 -3.35Q0.75 -3 0.15 -3Q-0.4 -3.1 -0.95 -3.7Q-1.55 -4.3 -1.35 -4.55L-0.8 -5L0.15 -5.2L1.2 -4.85L1.75 -4.2M-6.25 -0.3Q-4.7 0 -4.5 -0.8L-6.4 -2.8L-6.35 -2.9L-5.5 -4.25Q-4.45 -3.1 -2.05 -1.7L-0.85 -1L2.7 1.1Q2.75 2.5 -2.2 2.2L-5.35 1.9L-5.35 1.85L-6.25 -0.3" />
<path style="fill:#988777;fill-opacity:1" d="M2.85 4.75L3.95 4.25Q7.5 2.4 6.2 -2.5Q6.8 -1.15 6.8 0.4Q6.8 2.7 5.5 4.4L4.1 5.8Q2.3 7.05 0 6.85L-0.1 6.85Q2.45 5.9 2.85 4.75" />
<path style="fill:#AB7B4D;fill-opacity:1" d="M-0.85 -1L-2.05 -1.7Q-4.45 -3.1 -5.5 -4.25L-5.3 -4.55L-3.7 -6Q-0.1 -1.4 -0.85 -1M-2.2 2.2Q-1.45 3.15 2.9 4.1L2.85 4.75L0.2 5.1Q-3.75 4.5 -5.35 1.9L-2.2 2.2M-4.5 -0.8Q-4.7 0 -6.25 -0.3L-6.4 -1Q-6.6 -2.15 -6.4 -2.8L-4.5 -0.8" />
<path style="fill:#674A22;fill-opacity:1" d="M-5.35 1.9Q-3.75 4.5 0.2 5.1L2.85 4.75Q2.45 5.9 -0.1 6.85Q-3.2 6.5 -4.9 4.75Q-6.15 3.5 -6.55 1.7L-5.35 1.9M-6.8 -0.45L-6.75 -1.25L-6.4 -2.8Q-6.6 -2.15 -6.4 -1L-6.25 -0.3L-6.8 -0.45" />
<path style="fill:#221B15;fill-opacity:1" d="M-5.35 1.85L-5.35 1.9L-6.55 1.7L-6.75 0.7L-6.8 -0.45L-6.25 -0.3L-5.35 1.85" />
<path style="fill:none;stroke-width:0.7;stroke-linecap:round;stroke-linejoin:miter;stroke-miterlimit:5;stroke:#000000;stroke-opacity:0.4" d="M4.95 -4.35L6.2 -2.5Q6.8 -1.15 6.8 0.4Q6.8 2.7 5.5 4.4L4.1 5.8Q2.3 7.05 0 6.85L-0.1 6.85Q-3.2 6.5 -4.9 4.75Q-6.15 3.5 -6.55 1.7L-6.75 0.7L-6.8 -0.45L-6.75 -1.25L-6.4 -2.8" />
<path style="fill:none;stroke-width:0.7;stroke-linecap:round;stroke-linejoin:miter;stroke-miterlimit:5;stroke:#000000;stroke-opacity:0.4" d="M-6.35 -2.9L-5.5 -4.25L-5.3 -4.55L-3.7 -6L-2.6 -6.5" />
</g>
</svg>
