<?xml version="1.0" encoding="utf-8"?>
<svg version="1.1" id="Layer_1"
xmlns="http://www.w3.org/2000/svg"
xmlns:xlink="http://www.w3.org/1999/xlink"
width="9px" height="4px"
xml:space="preserve">
<g id="PathID_50" transform="matrix(1, 0, 0, 1, 4.4, 1.6)">
<path style="fill:#201508;fill-opacity:1" d="M1.1 2.1L0.35 2.15Q-0.5 2.2 -1.6 1.65L-3.5 0.8L-4.2 0.3Q-4.7 -0.65 -4 -1.1Q-3.1 -1.7 -1.7 -1.55L1 -1L3.6 -0.2Q4.05 -0.2 4.3 0.45L2.85 -0.1Q0.95 0.15 -0.35 1Q-0.65 1.8 1.45 1.8Q2.05 1.15 0.95 0.65L1.1 2.1M0.95 0.65Q2.25 0.75 2.45 1.15L1.6 2.1L1.1 2.1L1.45 1.8M4.3 0.45Q4.55 1.05 3.9 1.3L2.95 1.65Q3.8 1.3 3.45 0.4Q3.8 0.25 3.6 -0.2" />
<path style="fill:#43301C;fill-opacity:1" d="M3.45 0.4L2.85 -0.1L3.45 0.4Q3.8 1.3 2.95 1.65L1.6 2.1L2.45 1.15Q2.25 0.75 0.95 0.65Q2.05 1.15 1.45 1.8Q-0.65 1.8 -0.35 1Q0.95 0.15 2.85 -0.1L3.6 -0.2Q3.8 0.25 3.45 0.4" />
<path style="fill:none;stroke-width:0.7;stroke-linecap:round;stroke-linejoin:round;stroke-miterlimit:3;stroke:#000000;stroke-opacity:0.301961" d="M3.6 -0.2L1 -1L-1.7 -1.55Q-3.1 -1.7 -4 -1.1Q-4.7 -0.65 -4.2 0.3L-3.5 0.8L-1.6 1.65Q-0.5 2.2 0.35 2.15L1.1 2.1L1.45 1.8Q2.05 1.15 0.95 0.65" />
<path style="fill:none;stroke-width:0.7;stroke-linecap:round;stroke-linejoin:round;stroke-miterlimit:3;stroke:#000000;stroke-opacity:0.301961" d="M1.6 2.1L2.95 1.65Q3.8 1.3 3.45 0.4L2.85 -0.1" />
<path style="fill:none;stroke-width:0.7;stroke-linecap:round;stroke-linejoin:round;stroke-miterlimit:3;stroke:#000000;stroke-opacity:0.301961" d="M2.95 1.65L3.9 1.3Q4.55 1.05 4.3 0.45Q4.05 -0.2 3.6 -0.2" />
<path style="fill:none;stroke-width:0.7;stroke-linecap:round;stroke-linejoin:round;stroke-miterlimit:3;stroke:#000000;stroke-opacity:0.301961" d="M1.6 2.1L1.1 2.1" />
</g>
</svg>
