<?xml version="1.0" encoding="utf-8"?>
<svg version="1.1" id="Layer_1"
xmlns="http://www.w3.org/2000/svg"
xmlns:xlink="http://www.w3.org/1999/xlink"
width="24px" height="22px"
xml:space="preserve">
<g id="PathID_750" transform="matrix(1, 0, 0, 1, 11.5, 12.85)">
<path style="fill:#E7E3D8;fill-opacity:1" d="M2.05 -10.9Q-0.05 -9.3 -0.15 -8.3L1.8 -9.65Q4.65 -9.85 6.5 -7.9Q8.35 -6 9.15 -4.05Q9.65 -2.75 10.25 -2.05L10.8 -1.55L11.9 -0.7Q11.75 2.4 10.05 1.2Q8.8 3.35 5.25 2.45Q4.25 3.45 1.95 4.4Q-0.5 5.35 -1.65 4.95Q-8.15 3.8 -7 -0.3Q-10.05 0.2 -11.3 -2.9Q-9.55 -1.4 -7.45 -3.15Q-7.1 -4.9 -6.15 -6.2L-4.35 -8.65Q-2.55 -11.25 -2.85 -12.1Q-1.6 -11.15 -1.95 -9.75L-2.45 -8L-1.3 -9.85Q-0.45 -11.3 2.35 -11.15L2.05 -10.9" />
<path style="fill:#AFA698;fill-opacity:1" d="M-1.3 -9.85L-2.45 -8L-1.95 -9.75Q-1.6 -11.15 -2.85 -12.1L-3 -12.5Q-0.75 -11.15 -1.3 -9.85M-11.3 -2.9Q-10.05 0.2 -7 -0.3Q-8.15 3.8 -1.65 4.95Q-0.5 5.35 1.95 4.4Q4.25 3.45 5.25 2.45Q8.8 3.35 10.05 1.2Q11.75 2.4 11.9 -0.7L12.1 0.7Q11.95 3.2 9 5.1L4.55 7.55L2.5 8.25Q-2.35 7 -2.65 6.4L-8 6.95Q-6.95 6.1 -6.7 5.05Q-9.05 4.95 -9.6 6.3Q-11.05 4.45 -8.85 2.6Q-10.9 2.6 -11.25 3.2Q-10.95 0.6 -9.35 0.2Q-11.6 -0.55 -11.3 -2.9M1.8 -9.65L-0.15 -8.3Q-0.05 -9.3 2.05 -10.9Q1.6 -10.45 1.8 -9.65" />
<path style="fill:none;stroke-width:0.7;stroke-linecap:round;stroke-linejoin:miter;stroke-miterlimit:5;stroke:#000000;stroke-opacity:0.4" d="M2.35 -11.15Q-0.45 -11.3 -1.3 -9.85" />
<path style="fill:none;stroke-width:0.7;stroke-linecap:round;stroke-linejoin:miter;stroke-miterlimit:5;stroke:#000000;stroke-opacity:0.4" d="M-2.85 -12.1Q-2.55 -11.25 -4.35 -8.65L-6.15 -6.2Q-7.1 -4.9 -7.45 -3.15" />
<path style="fill:none;stroke-width:0.7;stroke-linecap:round;stroke-linejoin:round;stroke-miterlimit:3;stroke:#000000;stroke-opacity:0.301961" d="M-7.45 -3.15Q-9.55 -1.4 -11.3 -2.9" />
<path style="fill:none;stroke-width:0.7;stroke-linecap:round;stroke-linejoin:miter;stroke-miterlimit:5;stroke:#000000;stroke-opacity:0.4" d="M11.9 -0.7L10.8 -1.55L10.25 -2.05Q9.65 -2.75 9.15 -4.05Q8.35 -6 6.5 -7.9Q4.65 -9.85 1.8 -9.65" />
<path style="fill:none;stroke-width:0.7;stroke-linecap:round;stroke-linejoin:miter;stroke-miterlimit:5;stroke:#000000;stroke-opacity:0.4" d="M2.05 -10.9L2.35 -11.15" />
<path style="fill:none;stroke-width:0.7;stroke-linecap:round;stroke-linejoin:miter;stroke-miterlimit:5;stroke:#000000;stroke-opacity:0.4" d="M2.05 -10.9Q1.6 -10.45 1.8 -9.65" />
<path style="fill:none;stroke-width:0.7;stroke-linecap:round;stroke-linejoin:miter;stroke-miterlimit:5;stroke:#000000;stroke-opacity:0.4" d="M11.9 -0.7L12.1 0.7Q11.95 3.2 9 5.1L4.55 7.55" />
<path style="fill:none;stroke-width:0.7;stroke-linecap:round;stroke-linejoin:round;stroke-miterlimit:3;stroke:#000000;stroke-opacity:0.301961" d="M-2.65 6.4L-8 6.95Q-6.95 6.1 -6.7 5.05Q-9.05 4.95 -9.6 6.3Q-11.05 4.45 -8.85 2.6Q-10.9 2.6 -11.25 3.2Q-10.95 0.6 -9.35 0.2Q-11.6 -0.55 -11.3 -2.9" />
<path style="fill:none;stroke-width:0.7;stroke-linecap:round;stroke-linejoin:miter;stroke-miterlimit:5;stroke:#000000;stroke-opacity:0.4" d="M-2.85 -12.1L-3 -12.5Q-0.75 -11.15 -1.3 -9.85" />
</g>
<g id="PathID_751" transform="matrix(1, 0, 0, 1, 11.5, 12.85)">
<path style="fill:none;stroke-width:0.7;stroke-linecap:round;stroke-linejoin:miter;stroke-miterlimit:5;stroke:#000000;stroke-opacity:0.501961" d="M6.35 0.8Q-0.1 0 -4.95 4.2" />
</g>
<g id="PathID_752" transform="matrix(1, 0, 0, 1, 11.5, 12.85)">
<path style="fill:none;stroke-width:0.7;stroke-linecap:round;stroke-linejoin:miter;stroke-miterlimit:5;stroke:#000000;stroke-opacity:0.501961" d="M7.4 1.9Q2 3.3 -1.3 8.5" />
</g>
<g id="PathID_753" transform="matrix(1, 0, 0, 1, 11.5, 12.85)">
<path style="fill:#E5C9BB;fill-opacity:1" d="M10.4 1Q9 1.15 8.15 0.1Q9.4 -1.3 11.25 -0.8Q12 0.35 10.4 1" />
<path style="fill:none;stroke-width:0.7;stroke-linecap:round;stroke-linejoin:round;stroke-miterlimit:3;stroke:#000000;stroke-opacity:0.501961" d="M10.4 1Q11 1.65 10.65 2.5L11.4 3" />
<path style="fill:none;stroke-width:0.7;stroke-linecap:round;stroke-linejoin:round;stroke-miterlimit:3;stroke:#000000;stroke-opacity:0.501961" d="M7.05 4.1Q8.45 4.9 9.7 3.85L10.65 2.5" />
<path style="fill:none;stroke-width:0.7;stroke-linecap:round;stroke-linejoin:round;stroke-miterlimit:3;stroke:#000000;stroke-opacity:0.501961" d="M10.4 1Q9 1.15 8.15 0.1" />
<path style="fill:none;stroke-width:0.7;stroke-linecap:round;stroke-linejoin:round;stroke-miterlimit:3;stroke:#000000;stroke-opacity:0.501961" d="M11.25 -0.8Q12 0.35 10.4 1" />
</g>
</svg>
