<?xml version="1.0" encoding="utf-8"?>
<svg version="1.1" id="Layer_1"
xmlns="http://www.w3.org/2000/svg"
xmlns:xlink="http://www.w3.org/1999/xlink"
width="8px" height="9px"
xml:space="preserve">
<g id="PathID_794" transform="matrix(1, 0, 0, 1, 3.85, 4.25)">
<radialGradient
id="RadialGradID_233" gradientUnits="userSpaceOnUse" gradientTransform="matrix(0.00892639, 0.00515747, -0.00637817, 0.0110474, 0.95, 0.7)" spreadMethod ="pad" cx="0" cy="0" r="819.2" fx="0" fy="0" >
<stop  offset="0.164706"  style="stop-color:#2A180C;stop-opacity:1" />
<stop  offset="0.443137"  style="stop-color:#652501;stop-opacity:1" />
</radialGradient>
<path style="fill:url(#RadialGradID_233) " d="M-1.45 1.25Q-3.1 0.2 -3.65 -1.05L-3.7 -1.1Q-4.1 -2.7 -3.2 -3.55Q-2.4 -4.4 -1.2 -4.25Q-0.05 -4.15 0.35 -3.75L2.05 -1.55Q1.95 0 1.1 0.6Q0.2 1.2 -1.45 1.25" />
<path style="fill:#2A180C;fill-opacity:1" d="M1.1 0.6Q1.95 0 2.05 -1.55L3.6 1.35Q4.15 2.7 3.05 3.75Q2.6 4.15 2.2 4.2Q1.6 4.3 1.05 3.55Q0.45 2.65 -1.45 1.25Q0.2 1.2 1.1 0.6M2.1 1.55Q3.25 3.05 2.2 4.2Q3.25 3.05 2.1 1.55" />
<path style="fill:none;stroke-width:0.7;stroke-linecap:round;stroke-linejoin:miter;stroke-miterlimit:5;stroke:#000000;stroke-opacity:0.4" d="M0.35 -3.75L2.05 -1.55L3.6 1.35Q4.15 2.7 3.05 3.75Q2.6 4.15 2.2 4.2Q1.6 4.3 1.05 3.55Q0.45 2.65 -1.45 1.25Q-3.1 0.2 -3.65 -1.05L-3.7 -1.1" />
<path style="fill:none;stroke-width:0.7;stroke-linecap:round;stroke-linejoin:miter;stroke-miterlimit:5;stroke:#000000;stroke-opacity:0.4" d="M2.2 4.2Q3.25 3.05 2.1 1.55" />
</g>
</svg>
