<?xml version="1.0" encoding="utf-8"?>
<svg version="1.1" id="Layer_1"
xmlns="http://www.w3.org/2000/svg"
xmlns:xlink="http://www.w3.org/1999/xlink"
width="7px" height="5px"
xml:space="preserve">
<g id="PathID_307" transform="matrix(1, 0, 0, 1, 2.25, 2.7)">
<radialGradient
id="RadialGradID_130" gradientUnits="userSpaceOnUse" gradientTransform="matrix(0.00396729, 0, 0, 0.00396729, 0.45, -0.7)" spreadMethod ="pad" cx="0" cy="0" r="819.2" fx="0" fy="0" >
<stop  offset="0.203922"  style="stop-color:#6B2300;stop-opacity:1" />
<stop  offset="0.427451"  style="stop-color:#A15205;stop-opacity:1" />
<stop  offset="0.760784"  style="stop-color:#FF9617;stop-opacity:1" />
</radialGradient>
<path style="fill:url(#RadialGradID_130) " d="M-1.7 -1.2L-0.45 -1.7L2.2 0L1.9 1.1L1.55 1.5L1.45 1.65Q0.8 2.15 0 2.15Q-0.9 2.15 -1.55 1.5Q-2.15 0.85 -2.15 0L-2 -0.75L-1.85 -1.05L-1.7 -1.2" />
<path style="fill:none;stroke-width:0.7;stroke-linecap:round;stroke-linejoin:round;stroke-miterlimit:3;stroke:#000000;stroke-opacity:0.411765" d="M-1.85 -1.05L-2 -0.75L-2.15 0Q-2.15 0.85 -1.55 1.5Q-0.9 2.15 0 2.15Q0.8 2.15 1.45 1.65L1.55 1.5L1.9 1.1L2.2 0L-0.45 -1.7L-1.7 -1.2L-1.85 -1.05z" />
</g>
<g id="PathID_308" transform="matrix(1, 0, 0, 1, 2.25, 2.7)">
<path style="fill:#000000;fill-opacity:1" d="M0.1 1.3Q-0.45 1.3 -0.8 0.95L-1.15 0.1L-0.7 -0.75L0.1 -0.95Q1.45 -0.8 1.4 0.25Q1.25 1.25 0.1 1.3" />
</g>
<g id="PathID_309" transform="matrix(1, 0, 0, 1, 2.25, 2.7)">
<path style="fill:#FFFFFF;fill-opacity:1" d="M1.2 -0.15Q0.85 0.2 0.4 0.2Q-0.05 0.2 -0.4 -0.15L-0.7 -0.95L-0.45 -1.7L1.45 -0.45L1.2 -0.15M-0.75 0.7L-0.9 1.1L-1.3 1.25L-1.7 1.1L-1.85 0.7L-1.7 0.3L-1.3 0.15Q-1.05 0.15 -0.9 0.3L-0.75 0.7" />
</g>
<g id="PathID_310" transform="matrix(1, 0, 0, 1, 2.25, 2.7)">
<path style="fill:#000000;fill-opacity:0.4" d="M3.05 0.6L1.55 1.5Q2.2 0.85 2.2 0L3.05 0.6M-0.45 -1.7L-1.7 -1.2L-1.85 -1.05L-1.95 -2.6L-0.45 -1.7" />
<path style="fill:none;stroke-width:0.7;stroke-linecap:round;stroke-linejoin:round;stroke-miterlimit:3;stroke:#000000;stroke-opacity:0.301961" d="M2.2 0L3.05 0.6Q4.25 0.5 3.9 -0.6" />
<path style="fill:none;stroke-width:0.7;stroke-linecap:round;stroke-linejoin:round;stroke-miterlimit:3;stroke:#000000;stroke-opacity:0.301961" d="M-1.95 -2.6L-0.45 -1.7" />
</g>
</svg>
