<?xml version="1.0" encoding="utf-8"?>
<svg version="1.1" id="Layer_1"
xmlns="http://www.w3.org/2000/svg"
xmlns:xlink="http://www.w3.org/1999/xlink"
width="21px" height="20px"
xml:space="preserve">
<g id="PathID_867" transform="matrix(1, 0, 0, 1, 10.6, 9.3)">
<path style="fill:#6B5D4D;fill-opacity:1" d="M-2.7 -7.05Q-1.75 -7.6 1.15 -8.65Q5.3 -10.15 6.5 -8.15Q7.5 -8.55 8.55 -6.2Q9.65 -3.9 9.7 -2.15L9.85 3.5Q10 7.4 5.5 8.85L4.85 9.05L5.4 7.6Q9 6.4 9.4 2.9Q10.15 -3.95 8.05 -4.95Q7.25 -4.4 6 -4.05Q4.95 -6.4 1.75 -6.55Q0.05 -6.3 -1.5 -5.2Q-2.35 -5.95 -2.7 -7.05M-8 5.9L-7.55 7.75L-8.35 7.2Q-10.85 5.35 -10.4 3.4Q-9.95 1.4 -8.75 -0.15Q-10.2 3.75 -8 5.9" />
<path style="fill:#988777;fill-opacity:1" d="M2.95 -3.6Q-0.05 -3.9 -1.5 -5.2Q0.05 -6.3 1.75 -6.55Q4.95 -6.4 6 -4.05L2.95 -3.6M-8 5.9Q-6.75 7.1 -4.35 7.8Q1.95 8.7 5.4 7.6L4.85 9.05Q0.75 10.2 -2.45 9.65Q-5.4 9.15 -7.55 7.75L-8 5.9" />
<path style="fill:#EFE7DA;fill-opacity:1" d="M-4.35 7.8Q-6.75 7.1 -8 5.9Q-8.15 3.6 -6.5 0.7Q-4.2 -3.45 -1.5 -5.2Q-0.05 -3.9 2.95 -3.6L6 -4.05Q6.6 -2.7 6.55 -0.7Q6.65 3.75 5.4 7.6Q1.95 8.7 -4.35 7.8" />
<path style="fill:#908373;fill-opacity:1" d="M8.05 -4.95Q10.15 -3.95 9.4 2.9Q9 6.4 5.4 7.6Q6.65 3.75 6.55 -0.7Q6.6 -2.7 6 -4.05Q7.25 -4.4 8.05 -4.95M-8.75 -0.15L-7.75 -1.55L-5.9 -3.9L-4.4 -5.45L-2.7 -7.05Q-2.35 -5.95 -1.5 -5.2Q-4.2 -3.45 -6.5 0.7Q-8.15 3.6 -8 5.9Q-10.2 3.75 -8.75 -0.15" />
<path style="fill:none;stroke-width:0.7;stroke-linecap:round;stroke-linejoin:miter;stroke-miterlimit:5;stroke:#000000;stroke-opacity:0.4" d="M4.85 9.05L5.5 8.85Q10 7.4 9.85 3.5L9.7 -2.15Q9.65 -3.9 8.55 -6.2Q7.5 -8.55 6.5 -8.15" />
<path style="fill:none;stroke-width:0.7;stroke-linecap:round;stroke-linejoin:miter;stroke-miterlimit:5;stroke:#000000;stroke-opacity:0.4" d="M1.15 -8.65Q-1.75 -7.6 -2.7 -7.05" />
<path style="fill:none;stroke-width:0.7;stroke-linecap:round;stroke-linejoin:miter;stroke-miterlimit:5;stroke:#000000;stroke-opacity:0.4" d="M4.85 9.05Q0.75 10.2 -2.45 9.65Q-5.4 9.15 -7.55 7.75L-8.35 7.2Q-10.85 5.35 -10.4 3.4Q-9.95 1.4 -8.75 -0.15L-7.75 -1.55L-5.9 -3.9L-4.4 -5.45L-2.7 -7.05" />
</g>
</svg>
