<?xml version="1.0" encoding="utf-8"?>
<svg version="1.1" id="Layer_1"
xmlns="http://www.w3.org/2000/svg"
xmlns:xlink="http://www.w3.org/1999/xlink"
width="25px" height="32px"
xml:space="preserve">
<g id="PathID_773" transform="matrix(1, 0, 0, 1, 15, 21.6)">
<path style="fill:#95618E;fill-opacity:1" d="M-4.25 -10.65L-4.1 -10.85L-4.4 -11.45L-4.6 -11.65Q-6.5 -13.75 -6.45 -20.65Q-4.95 -22.05 -4.55 -21.05Q-3.35 -17.85 -3.45 -11.25L-4.25 -10.65" />
<path style="fill:#B874AF;fill-opacity:1" d="M-3.45 -11.25Q-3.1 -11.4 -1.85 -10.75Q-0.6 -10.15 -1.1 -7.5Q-0.6 -10.15 -1.85 -10.75Q-3.1 -11.4 -3.45 -11.25Q-3.35 -17.85 -4.55 -21.05Q-1.25 -20.15 -1.4 -13.95Q0.3 -11.9 -1.1 -7.5Q-2.65 -5.4 -4.25 -6.5Q-5.6 -7.7 -4.25 -10.65L-5.5 -10.85Q-7 -11.4 -8.85 -12.55Q-10.9 -13.7 -12.2 -14.8Q-13.6 -16 -13.6 -16.45L-12.25 -16.4Q-10.8 -15.95 -8.85 -14.8Q-6.9 -13.65 -5.5 -12.4L-4.6 -11.65L-4.4 -11.45L-4.1 -10.85L-4.25 -10.65L-3.45 -11.25M-4.4 -11.45L-4.25 -10.65L-4.4 -11.45" />
<path style="fill:#E297D8;fill-opacity:1" d="M-12.2 -14.8Q-10.9 -13.7 -8.85 -12.55Q-7 -11.4 -5.5 -10.85L-4.25 -10.65Q-5.6 -7.7 -4.25 -6.5Q-8.05 -2.45 -13.5 -4.65Q-15.75 -7.1 -13.3 -10.5L-12.05 -9.35Q-16.2 -13.65 -13.6 -16.45Q-13.6 -16 -12.2 -14.8M-12.05 -9.35L-13.3 -10.5" />
<path style="fill:none;stroke-width:0.7;stroke-linecap:round;stroke-linejoin:round;stroke-miterlimit:3;stroke:#000000;stroke-opacity:0.301961" d="M-4.55 -21.05Q-1.25 -20.15 -1.4 -13.95Q0.3 -11.9 -1.1 -7.5Q-2.65 -5.4 -4.25 -6.5Q-8.05 -2.45 -13.5 -4.65Q-15.75 -7.1 -13.3 -10.5Q-16.2 -13.65 -13.6 -16.45L-12.25 -16.4Q-10.8 -15.95 -8.85 -14.8Q-6.9 -13.65 -5.5 -12.4L-4.6 -11.65Q-6.5 -13.75 -6.45 -20.65Q-4.95 -22.05 -4.55 -21.05Q-3.35 -17.85 -3.45 -11.25Q-3.1 -11.4 -1.85 -10.75Q-0.6 -10.15 -1.1 -7.5" />
<path style="fill:none;stroke-width:0.7;stroke-linecap:round;stroke-linejoin:round;stroke-miterlimit:3;stroke:#000000;stroke-opacity:0.301961" d="M-4.25 -6.5Q-5.6 -7.7 -4.25 -10.65L-5.5 -10.85Q-7 -11.4 -8.85 -12.55Q-10.9 -13.7 -12.2 -14.8Q-13.6 -16 -13.6 -16.45" />
<path style="fill:none;stroke-width:0.7;stroke-linecap:round;stroke-linejoin:round;stroke-miterlimit:3;stroke:#000000;stroke-opacity:0.301961" d="M-13.3 -10.5L-12.05 -9.35" />
<path style="fill:none;stroke-width:0.7;stroke-linecap:round;stroke-linejoin:round;stroke-miterlimit:3;stroke:#000000;stroke-opacity:0.301961" d="M-4.6 -11.65L-4.4 -11.45L-4.1 -10.85L-4.25 -10.65L-3.45 -11.25" />
<path style="fill:none;stroke-width:0.7;stroke-linecap:round;stroke-linejoin:round;stroke-miterlimit:3;stroke:#000000;stroke-opacity:0.301961" d="M-4.25 -10.65L-4.4 -11.45" />
</g>
<g id="PathID_774" transform="matrix(1, 0, 0, 1, 15, 21.6)">
<path style="fill:#AFA698;fill-opacity:1" d="M-3.85 6.8Q6.3 9.65 7.9 -2.3Q8.1 -5.4 6.7 -9.15Q7.5 -8.55 8.6 -6.35Q9.65 -4.2 9.25 -1.55L8.65 4.05Q8.5 7.05 5.45 8.75Q2.4 10.45 -1.15 10.15Q-4.75 9.8 -7.2 7.25Q-9.65 4.65 -9.4 1.9Q-9.25 0.05 -7.85 -2.15Q-10.95 3.7 -3.85 6.8" />
<path style="fill:#E7E3D8;fill-opacity:1" d="M-7.85 -2.15L-7.15 -2.85L-7.1 -2.9L-5.7 -4.2L-5 -4.9L-4.9 -5L-2.1 -7.3L0.2 -9.15Q4.85 -10.5 6.7 -9.15Q8.1 -5.4 7.9 -2.3Q6.3 9.65 -3.85 6.8Q-10.95 3.7 -7.85 -2.15" />
<path style="fill:none;stroke-width:0.7;stroke-linecap:round;stroke-linejoin:miter;stroke-miterlimit:5;stroke:#000000;stroke-opacity:0.4" d="M6.7 -9.15Q7.5 -8.55 8.6 -6.35Q9.65 -4.2 9.25 -1.55L8.65 4.05Q8.5 7.05 5.45 8.75Q2.4 10.45 -1.15 10.15Q-4.75 9.8 -7.2 7.25Q-9.65 4.65 -9.4 1.9Q-9.25 0.05 -7.85 -2.15L-7.15 -2.85" />
<path style="fill:none;stroke-width:0.7;stroke-linecap:round;stroke-linejoin:miter;stroke-miterlimit:5;stroke:#000000;stroke-opacity:0.4" d="M-7.1 -2.9L-5.7 -4.2L-5 -4.9L-4.9 -5L-2.1 -7.3L0.2 -9.15" />
</g>
<g id="PathID_775" transform="matrix(1, 0, 0, 1, 15, 21.6)">
<path style="fill:#E297D8;fill-opacity:1" d="M9.4 -3Q3.15 -2.15 -3.45 -6.35L-1.15 -8.3Q3.05 -4.85 9.4 -5.5L9.4 -3" />
<path style="fill:none;stroke-width:0.7;stroke-linecap:round;stroke-linejoin:round;stroke-miterlimit:3;stroke:#000000;stroke-opacity:0.301961" d="M9.4 -3Q3.15 -2.15 -3.45 -6.35L-1.15 -8.3Q3.05 -4.85 9.4 -5.5L9.4 -3z" />
</g>
</svg>
