<?xml version="1.0" encoding="utf-8"?>
<svg version="1.1" id="Layer_1"
xmlns="http://www.w3.org/2000/svg"
xmlns:xlink="http://www.w3.org/1999/xlink"
width="21px" height="27px"
xml:space="preserve">
<g id="PathID_231" transform="matrix(1, 0, 0, 1, 7.9, 12.85)">
<linearGradient
id="LinearGradID_114" gradientUnits="userSpaceOnUse" gradientTransform="matrix(0.00132751, 0.00827026, -0.00611877, 0.00088501, 3.95, -7.15)" spreadMethod ="pad" x1="-819.2" y1="0" x2="819.2" y2="0" >
<stop  offset="0.00392157" style="stop-color:#64573C;stop-opacity:1" />
<stop  offset="1" style="stop-color:#4A402B;stop-opacity:1" />
</linearGradient>
<path style="fill:url(#LinearGradID_114) " d="M8.15 -1Q6.35 0.05 6.2 0Q4.15 -0.1 1.5 -1.05Q-2.85 -2.25 -4.25 -4.4Q-5.2 -5.85 -4.5 -7.9L-3.5 -8.9Q-2.55 -10.25 -2.65 -12.1Q-1.3 -11.15 -1.7 -9.75L-2.2 -8L-1 -9.85Q-0.1 -11.3 2.8 -11.15L2.5 -10.9Q0.3 -9.3 0.2 -8.3L2.25 -9.65Q5.2 -9.85 7.15 -7.9Q9.05 -6 9.9 -4.05Q10.25 -3.2 11.3 -1.5Q10.2 -1.95 8.15 -1" />
<path style="fill:#382E1B;fill-opacity:1" d="M2.5 -10.9Q2 -10.45 2.25 -9.65L0.2 -8.3Q0.3 -9.3 2.5 -10.9M6.2 0Q6.35 0.05 8.15 -1Q10.2 -1.95 11.3 -1.5L12.7 -0.5Q12.9 0.1 12.25 2.7Q11.6 5.25 8.45 6.45L4.2 7.7Q2.9 7.9 2.95 8.25Q-0.65 6.4 -2.8 5.9Q-5.05 5.4 -6.4 4.05Q-7.8 2.7 -7.75 -0.65Q-7.7 -4 -6.05 -6.2L-6.95 -2.4Q-7.75 1.1 -1.1 3.85L2.6 4L5.4 3.7Q4.95 3 4.85 2.2Q5.35 0.85 6.2 0M-2.65 -12.1L-2.8 -12.5Q-0.45 -11.15 -1 -9.85L-2.2 -8L-1.7 -9.75Q-1.3 -11.15 -2.65 -12.1" />
<path style="fill:#4A402B;fill-opacity:1" d="M-4.25 -4.4Q-2.85 -2.25 1.5 -1.05Q4.15 -0.1 6.2 0Q5.35 0.85 4.85 2.2Q4.95 3 5.4 3.7L2.6 4L-1.1 3.85Q-7.75 1.1 -6.95 -2.4L-6.05 -6.2L-5.05 -7.4L-4.5 -7.9Q-5.2 -5.85 -4.25 -4.4" />
<path style="fill:none;stroke-width:0.7;stroke-linecap:round;stroke-linejoin:miter;stroke-miterlimit:5;stroke:#000000;stroke-opacity:0.4" d="M-1 -9.85Q-0.1 -11.3 2.8 -11.15L2.5 -10.9Q2 -10.45 2.25 -9.65Q5.2 -9.85 7.15 -7.9Q9.05 -6 9.9 -4.05Q10.25 -3.2 11.3 -1.5L12.7 -0.5Q12.9 0.1 12.25 2.7Q11.6 5.25 8.45 6.45L4.2 7.7" />
<path style="fill:none;stroke-width:0.7;stroke-linecap:round;stroke-linejoin:miter;stroke-miterlimit:5;stroke:#000000;stroke-opacity:0.4" d="M-2.8 5.9Q-5.05 5.4 -6.4 4.05Q-7.8 2.7 -7.75 -0.65Q-7.7 -4 -6.05 -6.2L-5.05 -7.4L-4.5 -7.9L-3.5 -8.9Q-2.55 -10.25 -2.65 -12.1L-2.8 -12.5Q-0.45 -11.15 -1 -9.85" />
</g>
<g id="PathID_232" transform="matrix(1, 0, 0, 1, 7.9, 12.85)">
<path style="fill:#564B35;fill-opacity:1" d="M11.9 1.6L12.2 0.9L12.55 0.05Q12.55 -0.5 12.1 -0.5Q11.75 -0.5 11.6 0.3L11.35 1.1L11 1.1L11.1 0.85L11.25 0.3Q11.25 -0.6 10.55 0.6L10.55 1.15L9.6 1.15L9.35 0.9L9 0.6L8.3 0.55L9.15 1.8L8.85 2.35L8.1 1.25Q6.7 -0.6 6.7 1.25L7.65 2.65L8 2.95Q7.25 3.6 5.85 2.1Q5.7 0.9 6.55 -0.3Q7.25 -0.85 10.4 -0.35L11.9 -1.35Q13.65 -1.6 12.55 2.05L11.9 1.6" />
<path style="fill:#17130B;fill-opacity:1" d="M8 2.95L7.65 2.65L6.7 1.25Q6.7 -0.6 8.1 1.25L8.85 2.35Q9.5 3.25 9.5 3.8Q9.5 4.1 8.95 4.1L8 2.95M9.15 1.8L8.3 0.55L9 0.6L9.35 0.9L9.6 1.15L9.6 1.25L9.75 1.7Q9.75 1.95 9.45 1.95L9.15 1.8M10.55 1.15L10.55 0.6Q11.25 -0.6 11.25 0.3L11.1 0.85L11 1.1L10.85 1.25L10.55 1.15M11.35 1.1L11.6 0.3Q11.75 -0.5 12.1 -0.5Q12.55 -0.5 12.55 0.05L12.2 0.9L11.9 1.6L11.8 1.9Q11.6 3.7 11.35 3.7L11.1 3.6L11.1 1.95L11.35 1.1" />
<path style="fill:#3A301B;fill-opacity:1" d="M11.1 1.95L11.1 3.6L11.35 3.7Q11.6 3.7 11.8 1.9L11.9 1.6L12.55 2.05L11.6 4.4Q9.8 5.6 8.3 5.05Q6 3.7 5.85 2.1Q7.25 3.6 8 2.95L8.95 4.1Q9.5 4.1 9.5 3.8Q9.5 3.25 8.85 2.35L9.15 1.8L9.45 1.95Q9.75 1.95 9.75 1.7L9.6 1.25L9.6 1.15L10.55 1.15L10.85 1.25L11 1.1L11.35 1.1L11.1 1.95" />
<path style="fill:none;stroke-width:0.7;stroke-linecap:round;stroke-linejoin:round;stroke-miterlimit:3;stroke:#000000;stroke-opacity:0.301961" d="M12.55 2.05Q13.65 -1.6 11.9 -1.35L10.4 -0.35Q7.25 -0.85 6.55 -0.3Q5.7 0.9 5.85 2.1" />
<path style="fill:none;stroke-width:0.7;stroke-linecap:round;stroke-linejoin:round;stroke-miterlimit:3;stroke:#000000;stroke-opacity:0.301961" d="M12.55 2.05L11.6 4.4Q9.8 5.6 8.3 5.05Q6 3.7 5.85 2.1" />
</g>
<g id="PathID_233" transform="matrix(1, 0, 0, 1, 7.9, 12.85)">
<path style="fill:#C4BEB2;fill-opacity:1" d="M6.85 10.7Q6.55 10.7 6.35 11.4L6.15 11.4Q5.9 11 6 10.65Q5.75 10.6 5.5 10.9L4.85 6.95L7.95 6.15L7.1 10.8L6.85 10.7" />
<path style="fill:#EC3434;fill-opacity:1" d="M5.5 10.9Q5.75 10.6 6 10.65Q5.9 11 6.15 11.4L6.35 11.4Q6.55 10.7 6.85 10.7L7.1 10.8L5.95 13.9L5.5 10.9" />
<path style="fill:none;stroke-width:0.7;stroke-linecap:round;stroke-linejoin:round;stroke-miterlimit:3;stroke:#000000;stroke-opacity:0.301961" d="M7.1 10.8L7.95 6.15L4.85 6.95L5.5 10.9" />
</g>
</svg>
