<?xml version="1.0" encoding="utf-8"?>
<svg version="1.1" id="Layer_1"
xmlns="http://www.w3.org/2000/svg"
xmlns:xlink="http://www.w3.org/1999/xlink"
width="5px" height="5px"
xml:space="preserve">
<g id="PathID_284" transform="matrix(1, 0, 0, 1, 2.25, 2.3)">
<radialGradient
id="RadialGradID_122" gradientUnits="userSpaceOnUse" gradientTransform="matrix(0.00396729, 0, 0, 0.00396729, 0.45, -0.7)" spreadMethod ="pad" cx="0" cy="0" r="819.2" fx="0" fy="0" >
<stop  offset="0.203922"  style="stop-color:#6B2300;stop-opacity:1" />
<stop  offset="0.427451"  style="stop-color:#A15205;stop-opacity:1" />
<stop  offset="0.760784"  style="stop-color:#FF9617;stop-opacity:1" />
</radialGradient>
<path style="fill:url(#RadialGradID_122) " d="M1.8 -1.25L1.9 -1.1L2.2 0L2.2 0.3L1.55 1.5Q0.9 2.15 0 2.15Q-0.9 2.15 -1.55 1.5Q-2.15 0.85 -2.15 0L-1.8 -1.2Q-1.25 -2.15 0 -2.2Q0.9 -2.2 1.55 -1.55L1.8 -1.25" />
<path style="fill:none;stroke-width:0.7;stroke-linecap:round;stroke-linejoin:round;stroke-miterlimit:3;stroke:#000000;stroke-opacity:0.470588" d="M1.8 -1.25L1.9 -1.1L2.2 0L2.2 0.3L1.55 1.5Q0.9 2.15 0 2.15Q-0.9 2.15 -1.55 1.5Q-2.15 0.85 -2.15 0L-1.8 -1.2Q-1.25 -2.15 0 -2.2Q0.9 -2.2 1.55 -1.55L1.8 -1.25z" />
</g>
<g id="PathID_285" transform="matrix(1, 0, 0, 1, 2.25, 2.3)">
<path style="fill:#1D130E;fill-opacity:1" d="M1.4 -0.2L1.4 0L1.05 0.85Q0.75 1.5 -0.05 1.45Q-1.1 1.35 -1.25 0.35Q-1.45 -0.45 -0.9 -1.05Q-0.55 -1.6 0.3 -1.5Q1.2 -1.4 1.4 -0.2" />
</g>
<g id="PathID_286" transform="matrix(1, 0, 0, 1, 2.25, 2.3)">
<path style="fill:#FFFFFF;fill-opacity:1" d="M0.1 -0.35Q-0.3 -0.35 -0.6 -0.6L-0.85 -1.2L-0.6 -1.8L0.1 -2.05L0.75 -1.8L1.05 -1.2L0.75 -0.6L0.1 -0.35" />
</g>
<g id="PathID_287" transform="matrix(1, 0, 0, 1, 2.25, 2.3)">
<path style="fill:#FFFFFF;fill-opacity:1" d="M-1.8 0.8L-1.95 0.4L-1.8 0L-1.4 -0.15L-1 0L-0.85 0.4L-1 0.8L-1.4 0.95L-1.8 0.8" />
</g>
</svg>
