<?xml version="1.0" encoding="utf-8"?>
<svg version="1.1" id="Layer_1"
xmlns="http://www.w3.org/2000/svg"
xmlns:xlink="http://www.w3.org/1999/xlink"
width="5px" height="5px"
xml:space="preserve">
<g id="PathID_461" transform="matrix(1, 0, 0, 1, 2.35, 2.4)">
<path style="fill:#5F3105;fill-opacity:1" d="M0.95 -0.65Q1 0.65 -0.05 0.55Q-1.15 0.4 -0.85 -0.7Q-1.5 -0.9 -2.15 0.15L-2.15 0Q-2.1 -1 -1.3 -1.65Q-0.6 -2.2 0 -2.2L1.35 -1.75Q2.2 -1.1 2.2 0Q2.2 0.7 1.85 1.2Q1.9 -0.25 0.95 -0.65" />
<radialGradient
id="RadialGradID_158" gradientUnits="userSpaceOnUse" gradientTransform="matrix(0.003479, 0, 0, 0.003479, 0, 0)" spreadMethod ="pad" cx="0" cy="0" r="819.2" fx="0" fy="0" >
<stop  offset="0.0980392"  style="stop-color:#481F00;stop-opacity:1" />
<stop  offset="0.470588"  style="stop-color:#C46100;stop-opacity:1" />
<stop  offset="1"  style="stop-color:#F08A0F;stop-opacity:1" />
</radialGradient>
<path style="fill:url(#RadialGradID_158) " d="M1.85 1.2L1.35 1.7L0 2.15Q-0.65 2.15 -1.3 1.65Q-2.15 1.05 -2.15 0.15Q-1.5 -0.9 -0.85 -0.7Q-1.15 0.4 -0.05 0.55Q1 0.65 0.95 -0.65Q1.9 -0.25 1.85 1.2" />
<path style="fill:none;stroke-width:0.7;stroke-linecap:round;stroke-linejoin:round;stroke-miterlimit:3;stroke:#000000;stroke-opacity:0.388235" d="M-2.15 0.15L-2.15 0Q-2.1 -1 -1.3 -1.65Q-0.6 -2.2 0 -2.2L1.35 -1.75Q2.2 -1.1 2.2 0Q2.2 0.7 1.85 1.2L1.35 1.7L0 2.15Q-0.65 2.15 -1.3 1.65Q-2.15 1.05 -2.15 0.15z" />
</g>
<g id="PathID_462" transform="matrix(1, 0, 0, 1, 2.35, 2.4)">
<path style="fill:#04120C;fill-opacity:1" d="M1.45 -0.1Q1.5 0.7 0.95 1.1L0.15 1.4Q-1.1 1.4 -1.1 -0.1Q-1.1 -1.5 0.15 -1.5Q1.4 -1.5 1.45 -0.1" />
</g>
<g id="PathID_463" transform="matrix(1, 0, 0, 1, 2.35, 2.4)">
<path style="fill:#FFFFFF;fill-opacity:1" d="M1.2 -0.15Q0.85 0.2 0.4 0.2Q-0.05 0.2 -0.4 -0.15L-0.7 -0.95L-0.4 -1.75L0.4 -2.05L1.2 -1.75L1.55 -0.95L1.2 -0.15" />
</g>
<g id="PathID_464" transform="matrix(1, 0, 0, 1, 2.35, 2.4)">
<path style="fill:#FFFFFF;fill-opacity:1" d="M-1.3 0.15Q-1.05 0.15 -0.9 0.3L-0.75 0.7L-0.9 1.1L-1.3 1.25L-1.7 1.1L-1.85 0.7L-1.7 0.3L-1.3 0.15" />
</g>
</svg>
