<?xml version="1.0" encoding="utf-8"?>
<svg version="1.1" id="Layer_1"
xmlns="http://www.w3.org/2000/svg"
xmlns:xlink="http://www.w3.org/1999/xlink"
width="20px" height="21px"
xml:space="preserve">
<g id="PathID_564" transform="matrix(1, 0, 0, 1, 9.55, 9.85)">
<path style="fill:#38302D;fill-opacity:1" d="M0.2 -9.15Q4.85 -10.5 6.7 -9.15L7.6 -6.25Q8 -4.15 7.9 -2.3Q7.4 1.6 5.95 3.95Q3.1 6.4 0.7 3Q-2.85 1.3 -3.35 5.35L-3.15 7Q-6.85 5.6 -7.75 1.75Q-8.35 -0.9 -7.85 -2.15L-7.15 -2.85L-7.1 -2.9L-6.1 -3.85Q-5.35 -1.95 -1 -0.8Q0.1 -1.35 -1.25 -2.25Q-3.8 -3.9 -4.35 -5.45L-2.65 -6.85Q-1.65 -4.8 0.15 -4.15Q1.9 -3.6 1.6 -5.05Q-0.35 -6.5 -1.15 -8.05L0.2 -9.15M-0.7 4.45L-0.35 4.75L-0.35 5.05Q-0.35 5.45 -0.7 6.15Q-1.05 6.9 -1.35 6.9Q-2 6.9 -2 5.95Q-2 4.75 -1.4 4.45L-0.7 4.45" />
<path style="fill:#221A17;fill-opacity:1" d="M0.7 7.95Q2.9 9.35 4.6 7.4Q6.25 9.45 7.95 4.6Q7.95 1.7 5.95 3.95Q7.4 1.6 7.9 -2.3Q8 -4.15 7.6 -6.25L6.7 -9.15Q7.5 -8.55 8.6 -6.35L8.95 -5.5Q9.6 -3.7 9.25 -1.55L8.65 4.05Q8.5 7.05 5.45 8.75Q3.2 10.05 0.6 10.15L-1.15 10.15Q-4.75 9.8 -7.2 7.25Q-9.65 4.65 -9.4 1.9Q-9.3 0.7 -8.7 -0.6L-7.85 -2.15Q-8.35 -0.9 -7.75 1.75Q-6.85 5.6 -3.15 7Q-2.35 9.9 0.7 7.95M6.4 4.65Q7 4.1 7 5.05Q6.6 6.5 6.1 6.5Q5.8 6.5 5.8 6Q5.8 5.15 6.4 4.65" />
<path style="fill:#C4BAB8;fill-opacity:1" d="M-1.15 -8.05Q-0.35 -6.5 1.6 -5.05Q1.9 -3.6 0.15 -4.15Q-1.65 -4.8 -2.65 -6.85L-1.15 -8.05M-4.35 -5.45Q-3.8 -3.9 -1.25 -2.25Q0.1 -1.35 -1 -0.8Q-5.35 -1.95 -6.1 -3.85L-4.35 -5.45M-1.55 7.3L-3.15 7L-3.35 5.35Q-2.85 1.3 0.7 3Q3.1 6.4 5.95 3.95Q3.5 7.85 -1.55 7.3M-1.4 4.45Q-2 4.75 -2 5.95Q-2 6.9 -1.35 6.9Q-1.05 6.9 -0.7 6.15Q-0.35 5.45 -0.35 5.05L-0.35 4.75L-0.7 4.45L-1.4 4.45" />
<path style="fill:#7D6C64;fill-opacity:1" d="M5.8 6Q5.8 6.5 6.1 6.5Q6.6 6.5 7 5.05Q7 4.1 6.4 4.65Q5.8 5.15 5.8 6M5.95 3.95Q7.95 1.7 7.95 4.6Q6.25 9.45 4.6 7.4Q2.9 9.35 0.7 7.95Q-2.35 9.9 -3.15 7L-1.55 7.3Q3.5 7.85 5.95 3.95" />
<path style="fill:none;stroke-width:0.7;stroke-linecap:round;stroke-linejoin:miter;stroke-miterlimit:5;stroke:#000000;stroke-opacity:0.4" d="M-1.15 -8.05L-2.65 -6.85L-4.35 -5.45" />
<path style="fill:none;stroke-width:0.7;stroke-linecap:round;stroke-linejoin:miter;stroke-miterlimit:5;stroke:#000000;stroke-opacity:0.4" d="M-6.1 -3.85L-7.1 -2.9" />
<path style="fill:none;stroke-width:0.7;stroke-linecap:round;stroke-linejoin:miter;stroke-miterlimit:5;stroke:#000000;stroke-opacity:0.4" d="M-7.15 -2.85L-7.85 -2.15" />
<path style="fill:none;stroke-width:0.7;stroke-linecap:round;stroke-linejoin:miter;stroke-miterlimit:5;stroke:#000000;stroke-opacity:0.4" d="M0.2 -9.15L-1.15 -8.05" />
<path style="fill:none;stroke-width:0.7;stroke-linecap:round;stroke-linejoin:miter;stroke-miterlimit:5;stroke:#000000;stroke-opacity:0.4" d="M-7.85 -2.15L-8.7 -0.6Q-9.3 0.7 -9.4 1.9Q-9.65 4.65 -7.2 7.25Q-4.75 9.8 -1.15 10.15L0.6 10.15Q3.2 10.05 5.45 8.75Q8.5 7.05 8.65 4.05L9.25 -1.55Q9.6 -3.7 8.95 -5.5L8.6 -6.35Q7.5 -8.55 6.7 -9.15" />
<path style="fill:none;stroke-width:0.7;stroke-linecap:round;stroke-linejoin:miter;stroke-miterlimit:5;stroke:#000000;stroke-opacity:0.4" d="M-6.1 -3.85L-4.35 -5.45" />
</g>
</svg>
