<?xml version="1.0" encoding="utf-8"?>
<svg version="1.1" id="Layer_1"
xmlns="http://www.w3.org/2000/svg"
xmlns:xlink="http://www.w3.org/1999/xlink"
width="21px" height="20px"
xml:space="preserve">
<g id="PathID_563" transform="matrix(1, 0, 0, 1, 10.6, 9.3)">
<path style="fill:#C4BAB8;fill-opacity:1" d="M9.6 0.05Q8.65 1.05 7 1.35Q5.05 1.3 5.65 -0.3Q7.25 -0.35 9.45 -2.45L9.6 0.05M-4.35 -5.2Q-3.8 -3.6 -2.45 -2.05Q-3.3 -0.75 -4.5 -1.4Q-6 -2.35 -6.05 -3.3L-4.35 -5.2M-8.75 -0.15L-7.6 -1.45Q-7.45 0.1 -5.75 1.7Q-5.7 2.9 -7.05 2.75Q-8.1 2.3 -8.95 0.7L-8.75 -0.15M8.5 5.45Q4.8 5.45 4.7 4.5Q4.9 4.2 7.15 3.8L9.35 3.4L8.5 5.45" />
<path style="fill:#38302D;fill-opacity:1" d="M9.35 3.4L7.15 3.8Q4.9 4.2 4.7 4.5Q4.8 5.45 8.5 5.45Q7.5 6.9 5.4 7.6L1 8.85Q-2.05 9.3 -4.35 7.8Q-6.55 6.35 -8 3.4L-8.95 0.7Q-8.1 2.3 -7.05 2.75Q-5.7 2.9 -5.75 1.7Q-7.45 0.1 -7.6 -1.45L-6.05 -3.3Q-6 -2.35 -4.5 -1.4Q-3.3 -0.75 -2.45 -2.05Q-3.8 -3.6 -4.35 -5.2L-2.7 -7.05Q-2.4 -6.15 -1.2 -5.2Q0.45 -3.9 2.95 -3.6Q5.4 -3.3 6.75 -3.95L8.05 -4.95Q9.1 -4.45 9.45 -2.45Q7.25 -0.35 5.65 -0.3Q5.05 1.3 7 1.35Q8.65 1.05 9.6 0.05L9.35 3.4" />
<path style="fill:#221A17;fill-opacity:1" d="M8.55 -6.2Q9.65 -3.9 9.7 -2.15L9.85 3.2L9.35 3.4L9.6 0.05L9.45 -2.45Q9.1 -4.45 8.05 -4.95L6.75 -3.95Q5.4 -3.3 2.95 -3.6Q0.45 -3.9 -1.2 -5.2Q-2.4 -6.15 -2.7 -7.05Q-1.75 -7.6 1.15 -8.65Q5.3 -10.15 6.5 -8.15Q7.5 -8.55 8.55 -6.2M-8.95 0.7L-8 3.4Q-6.55 6.35 -4.35 7.8Q-2.05 9.3 1 8.85L5.4 7.6Q7.5 6.9 8.5 5.45L9.65 5.2Q8.95 7.75 5.5 8.85Q-0.3 10 -2.45 9.65L-6.05 8.35L-8.35 7.2Q-10.85 5.35 -10.4 3.4Q-10.15 2.35 -8.75 -0.15L-8.95 0.7" />
<path style="fill:#7D6C64;fill-opacity:1" d="M8.5 5.45L9.35 3.4L9.85 3.2L9.65 5.2L8.5 5.45" />
<path style="fill:none;stroke-width:0.7;stroke-linecap:round;stroke-linejoin:miter;stroke-miterlimit:5;stroke:#000000;stroke-opacity:0.4" d="M-2.7 -7.05L-4.35 -5.2" />
<path style="fill:none;stroke-width:0.7;stroke-linecap:round;stroke-linejoin:miter;stroke-miterlimit:5;stroke:#000000;stroke-opacity:0.4" d="M-6.05 -3.3L-7.6 -1.45" />
<path style="fill:none;stroke-width:0.7;stroke-linecap:round;stroke-linejoin:miter;stroke-miterlimit:5;stroke:#000000;stroke-opacity:0.4" d="M1.15 -8.65Q-1.75 -7.6 -2.7 -7.05" />
<path style="fill:none;stroke-width:0.7;stroke-linecap:round;stroke-linejoin:miter;stroke-miterlimit:5;stroke:#000000;stroke-opacity:0.4" d="M9.85 3.2L9.7 -2.15Q9.65 -3.9 8.55 -6.2Q7.5 -8.55 6.5 -8.15" />
<path style="fill:none;stroke-width:0.7;stroke-linecap:round;stroke-linejoin:miter;stroke-miterlimit:5;stroke:#000000;stroke-opacity:0.4" d="M9.65 5.2L9.85 3.2" />
<path style="fill:none;stroke-width:0.7;stroke-linecap:round;stroke-linejoin:miter;stroke-miterlimit:5;stroke:#000000;stroke-opacity:0.4" d="M9.65 5.2Q8.95 7.75 5.5 8.85Q-0.3 10 -2.45 9.65L-6.05 8.35L-8.35 7.2Q-10.85 5.35 -10.4 3.4Q-10.15 2.35 -8.75 -0.15L-7.6 -1.45" />
<path style="fill:none;stroke-width:0.7;stroke-linecap:round;stroke-linejoin:miter;stroke-miterlimit:5;stroke:#000000;stroke-opacity:0.4" d="M-6.05 -3.3L-4.35 -5.2" />
</g>
</svg>
