<?xml version="1.0" encoding="utf-8"?>
<svg version="1.1" id="Layer_1"
xmlns="http://www.w3.org/2000/svg"
xmlns:xlink="http://www.w3.org/1999/xlink"
width="20px" height="21px"
xml:space="preserve">
<g id="PathID_1150" transform="matrix(1, 0, 0, 1, 9.55, 9.85)">
<path style="fill:#4F3218;fill-opacity:1" d="M7.95 -3.6L7.95 -3.65L7.6 -6.25L6.7 -9.15Q7.5 -8.55 8.6 -6.35L8.95 -5.5Q9.5 -3.9 9.3 -2Q8.9 -3.6 7.95 -3.6" />
<path style="fill:#6B4A2C;fill-opacity:1" d="M7.9 -3.65Q4.15 -3.95 2.6 0.45L2.5 0.75L2.45 0.9Q-1.25 -5.4 -6.75 -3.2L-6.6 -3.4L-6.75 -3.2L-6.8 -3.2L-6.6 -3.4L-5.7 -4.2L-6.3 -3.7L-2.1 -7.3L0.2 -9.15Q4.85 -10.5 6.7 -9.15L7.6 -6.25L7.95 -3.65L7.9 -3.65" />
<path style="fill:#A3988D;fill-opacity:1" d="M-8.3 -1.15L-8.3 -1.05L-8.45 -0.65Q-10.05 4.1 -3.85 6.8L-1.55 7.3Q6.5 8.25 7.9 -2.3L7.95 -3.6Q8.9 -3.6 9.3 -2L9.25 -1.55L8.65 4.05Q8.5 7.05 5.45 8.75Q3.2 10.05 0.6 10.15L-1.15 10.15Q-4.75 9.8 -7.2 7.25Q-9.65 4.65 -9.4 1.9Q-9.3 0.7 -8.7 -0.6L-7.85 -2.15L-8.3 -1.15" />
<path style="fill:#EEE7DD;fill-opacity:1" d="M-6.75 -3.2L-6.8 -3.15L-6.75 -3.2Q-1.25 -5.4 2.45 0.9L2.5 0.75L2.6 0.45Q4.15 -3.95 7.9 -3.65L7.95 -3.65L7.95 -3.6L7.9 -2.3Q6.5 8.25 -1.55 7.3L-3.85 6.8Q-10.05 4.1 -8.45 -0.65L-8.3 -1.05L-8.3 -1.15L-7.85 -2.15L-7.15 -2.85L-7.1 -2.9L-6.8 -3.15L-6.8 -3.2L-6.75 -3.2" />
<path style="fill:none;stroke-width:0.7;stroke-linecap:round;stroke-linejoin:miter;stroke-miterlimit:5;stroke:#000000;stroke-opacity:0.4" d="M9.3 -2Q9.5 -3.9 8.95 -5.5L8.6 -6.35Q7.5 -8.55 6.7 -9.15" />
<path style="fill:none;stroke-width:0.7;stroke-linecap:round;stroke-linejoin:miter;stroke-miterlimit:5;stroke:#000000;stroke-opacity:0.4" d="M9.3 -2L9.25 -1.55L8.65 4.05Q8.5 7.05 5.45 8.75Q3.2 10.05 0.6 10.15L-1.15 10.15Q-4.75 9.8 -7.2 7.25Q-9.65 4.65 -9.4 1.9Q-9.3 0.7 -8.7 -0.6L-7.85 -2.15L-7.15 -2.85" />
<path style="fill:none;stroke-width:0.7;stroke-linecap:round;stroke-linejoin:miter;stroke-miterlimit:5;stroke:#000000;stroke-opacity:0.4" d="M-7.1 -2.9L-6.8 -3.15L-6.8 -3.2L-6.6 -3.4L-6.3 -3.7L-2.1 -7.3L0.2 -9.15" />
<path style="fill:none;stroke-width:0.7;stroke-linecap:round;stroke-linejoin:miter;stroke-miterlimit:5;stroke:#000000;stroke-opacity:0.4" d="M-6.8 -3.15L-6.75 -3.2" />
<path style="fill:none;stroke-width:0.7;stroke-linecap:round;stroke-linejoin:miter;stroke-miterlimit:5;stroke:#000000;stroke-opacity:0.4" d="M-6.3 -3.7L-5.7 -4.2L-6.6 -3.4L-6.75 -3.2" />
</g>
</svg>
