<?xml version="1.0" encoding="utf-8"?>
<svg version="1.1" id="Layer_1"
xmlns="http://www.w3.org/2000/svg"
xmlns:xlink="http://www.w3.org/1999/xlink"
width="19px" height="39px"
xml:space="preserve">
<g id="PathID_515" transform="matrix(1, 0, 0, 1, 10, 19.75)">
<path style="fill:#B9B9B7;fill-opacity:1" d="M-0.35 12.65Q-2.25 9.95 -2.6 6.4Q-2.95 2.8 -3.25 1.8Q-2.4 -1.95 -2.35 -6.65Q-2.3 -11.4 -3.2 -12.35Q-2.7 -15.7 -1.15 -15.35Q1.75 -10.3 -0.2 -0.85Q-0.65 1.3 -0.35 4Q0.15 8.95 3.25 11.7Q4.55 12.9 6.95 13.7Q8.15 15.35 8.1 16.55Q1.5 15.3 -0.35 12.65" />
<path style="fill:#F6F6F6;fill-opacity:1" d="M-3.2 -12.35Q-3.8 -13.75 -7.4 -15.4Q-11.05 -17.05 -9.3 -18.65Q-7.8 -20.05 -5.65 -19.35Q-3.75 -18.7 -1.15 -15.35Q-2.7 -15.7 -3.2 -12.35" />
<path style="fill:#A69B90;fill-opacity:1" d="M7.35 18Q6.55 18.7 5.75 19L3 17.95Q0.6 16.8 -1 15.1Q-3.15 12.75 -3.7 9.35Q-2.65 12.7 0.15 15.1Q2.95 17.5 7.35 18" />
<path style="fill:#706D6C;fill-opacity:1" d="M0.15 15.1Q-2.65 12.7 -3.7 9.35Q-4.25 6.55 -3.25 1.8Q-2.95 2.8 -2.6 6.4Q-2.25 9.95 -0.35 12.65Q1.5 15.3 8.1 16.55Q8.05 17.6 7.35 18Q2.95 17.5 0.15 15.1" />
<path style="fill:none;stroke-width:0.7;stroke-linecap:round;stroke-linejoin:miter;stroke-miterlimit:5;stroke:#000000;stroke-opacity:0.4" d="M-1.15 -15.35Q-3.75 -18.7 -5.65 -19.35Q-7.8 -20.05 -9.3 -18.65Q-11.05 -17.05 -7.4 -15.4Q-3.8 -13.75 -3.2 -12.35" />
<path style="fill:none;stroke-width:0.7;stroke-linecap:round;stroke-linejoin:miter;stroke-miterlimit:5;stroke:#000000;stroke-opacity:0.4" d="M-1.15 -15.35Q1.75 -10.3 -0.2 -0.85Q-0.65 1.3 -0.35 4Q0.15 8.95 3.25 11.7Q4.55 12.9 6.95 13.7Q8.15 15.35 8.1 16.55Q8.05 17.6 7.35 18Q6.55 18.7 5.75 19L3 17.95Q0.6 16.8 -1 15.1Q-3.15 12.75 -3.7 9.35Q-4.25 6.55 -3.25 1.8Q-2.4 -1.95 -2.35 -6.65Q-2.3 -11.4 -3.2 -12.35" />
</g>
<g id="PathID_516" transform="matrix(1, 0, 0, 1, 10, 19.75)">
<path style="fill:#2A2724;fill-opacity:1" d="M0.5 -7.65Q-1.75 -6.85 -1.8 -8.45Q-1.85 -9.85 -0.85 -10L0.5 -9.8L0.5 -7.65M0.2 -4.1L-1.15 -4.7Q-2 -5.25 -1.95 -5.7Q-1.75 -7.2 -0.6 -7Q0 -6.9 0.55 -6.45L0.2 -4.1M0.25 8.25L-0.2 8.5Q-0.85 8.5 -0.7 7.95Q-0.6 7 0.25 7.2L0.45 7.9L0.25 8.25M0.6 11.3Q-0.3 11.3 -0.2 10.55L0.1 9.75Q1 8.7 1.6 10.2Q1.25 11.3 0.6 11.3M1.4 13.15Q1.4 14.1 0.8 14.1Q-0.05 14.1 -0.05 13.2Q-0.05 12.25 0.7 12.35Q1.4 12.5 1.4 13.15M-0.6 -14.25Q-1.1 -13.45 -2.2 -13.45Q-2.65 -13.45 -3.1 -13.95L-3.45 -14.65Q-3.45 -15.15 -1.85 -16Q-0.85 -15.2 -0.6 -14.25M-4.6 -16.8Q-5.3 -17.6 -5.3 -18.05Q-5.3 -18.5 -4.15 -18.55Q-2.7 -17.45 -1.95 -16.3L-3.15 -16.25Q-4.3 -16.4 -4.6 -16.8M-2.3 -11.95Q-2.3 -13.2 -1 -13.2Q0.3 -13.25 0.3 -11.3Q0.3 -10.9 -0.15 -10.6Q-0.55 -10.3 -0.85 -10.3Q-1.55 -10.3 -2 -11.15L-2.3 -11.95M-2.1 -2.35Q-1.9 -4.05 0.15 -2.85L-0.35 -0.4L-1.4 -0.55Q-2.3 -0.65 -2.1 -2.35M-0.9 4.25Q-0.3 4.55 -0.3 5.25Q-0.3 6.3 -0.85 6.3Q-1.6 6.3 -1.55 4.95Q-1.55 3.9 -0.9 4.25M-3 1.9Q-3 1.4 -1.75 1.15L-0.45 1.1L-0.45 3.1L-1.25 2.95Q-3 2.55 -3 1.9M-2.6 8.7Q-3.35 8.7 -3.4 7.9Q-3.4 7.2 -2.4 7Q-1.4 6.8 -1.4 7.55Q-1.65 8.7 -2.6 8.7" />
</g>
</svg>
