<?xml version="1.0" encoding="utf-8"?>
<svg version="1.1" id="Layer_1"
xmlns="http://www.w3.org/2000/svg"
xmlns:xlink="http://www.w3.org/1999/xlink"
width="18px" height="14px"
xml:space="preserve">
<g id="PathID_24" transform="matrix(1, 0, 0, 1, 7.25, 6.8)">
<radialGradient
id="RadialGradID_5" gradientUnits="userSpaceOnUse" gradientTransform="matrix(0.0121307, 0, 0, 0.0121307, 8.05, 0)" spreadMethod ="pad" cx="0" cy="0" r="819.2" fx="0" fy="0" >
<stop  offset="0.105882"  style="stop-color:#F5F4EF;stop-opacity:1" />
<stop  offset="1"  style="stop-color:#2F2121;stop-opacity:1" />
</radialGradient>
<path style="fill:url(#RadialGradID_5) " d="M-6.25 -3.2Q-5.75 -4.25 -4.85 -5.1L-4.6 -5.3L-4.45 -5.4L-2.6 -6.5L0 -6.8Q1.65 -6.7 3 -5.95Q4 -5.45 4.8 -4.55L4.95 -4.35L5.55 -3.65L6.15 -2.55L6.9 -0.25Q7.4 1.5 7.05 3.25L7 3.6L6.95 3.55L3.15 4.15Q0.45 4.3 -1.4 3.6Q-3.7 2.7 -4.85 1.95L-5.45 1.45Q-6.55 0.4 -6.25 -3.2" />
<radialGradient
id="RadialGradID_6" gradientUnits="userSpaceOnUse" gradientTransform="matrix(0.0123901, 0, 0, 0.0123901, 7.15, 0.75)" spreadMethod ="pad" cx="0" cy="0" r="819.2" fx="0" fy="0" >
<stop  offset="0.105882"  style="stop-color:#988777;stop-opacity:1" />
<stop  offset="1"  style="stop-color:#1E1311;stop-opacity:1" />
</radialGradient>
<path style="fill:url(#RadialGradID_6) " d="M-5.45 1.45L-4.85 1.95Q-3.7 2.7 -1.4 3.6Q0.45 4.3 3.15 4.15L6.95 3.55L7 3.6L7.45 4.65Q8.25 5.65 10.65 6.65L9 6.7Q3.4 6.85 1.15 6.6L-3.7 5.7Q-6 5.2 -6.65 3.75L-7.05 2.05L-7.05 0.2Q-6.85 -1.95 -6.25 -3.2Q-6.55 0.4 -5.45 1.45" />
<path style="fill:none;stroke-width:0.7;stroke-linecap:round;stroke-linejoin:miter;stroke-miterlimit:5;stroke:#000000;stroke-opacity:0.4" d="M1.15 6.6L-3.7 5.7Q-6 5.2 -6.65 3.75L-7.05 2.05L-7.05 0.2Q-6.85 -1.95 -6.25 -3.2Q-5.75 -4.25 -4.85 -5.1L-4.6 -5.3" />
<path style="fill:none;stroke-width:0.7;stroke-linecap:round;stroke-linejoin:miter;stroke-miterlimit:5;stroke:#000000;stroke-opacity:0.4" d="M-4.45 -5.4L-2.6 -6.5" />
</g>
</svg>
