<?xml version="1.0" encoding="utf-8"?>
<svg version="1.1" id="Layer_1"
xmlns="http://www.w3.org/2000/svg"
xmlns:xlink="http://www.w3.org/1999/xlink"
width="7px" height="24px"
xml:space="preserve">
<g id="PathID_66" transform="matrix(1, 0, 0, 1, 3.25, 1.3)">
<path style="fill:none;stroke-width:0.7;stroke-linecap:round;stroke-linejoin:round;stroke-miterlimit:3;stroke:#000000;stroke-opacity:0.301961" d="M0.6 0.25Q1.3 4.7 0.7 9.2" />
</g>
<g id="PathID_67" transform="matrix(1, 0, 0, 1, 3.25, 1.3)">
<path style="fill:#CF6A27;fill-opacity:1" d="M-1.4 18.5L-3.1 19.7Q-3.1 18.45 -2.5 17.3Q-1.95 16.1 0.15 16L0.25 16L0.25 16.05L1.4 18.35L1.9 19.35L0.3 17.6L0.05 18.35L-0.95 21.1Q-1.35 20.05 -1.4 18.5" />
<path style="fill:#9C4D1D;fill-opacity:1" d="M1.4 18.35Q1.9 17.1 0.3 16Q2.25 16.45 2.65 18.05Q2.7 19.9 2 20.5L1.1 19.6L0.05 18.35L1.1 19.6L-0.55 22L0.3 20L-0.55 22L-0.95 21.1L0.05 18.35L0.3 17.6L1.9 19.35L1.4 18.35L0.25 16.05L0.25 16L0.3 16Q1.9 17.1 1.4 18.35" />
<path style="fill:none;stroke-width:0.7;stroke-linecap:round;stroke-linejoin:miter;stroke-miterlimit:5;stroke:#000000;stroke-opacity:0.4" d="M0.25 16L0.15 16Q-1.95 16.1 -2.5 17.3Q-3.1 18.45 -3.1 19.7L-1.4 18.5Q-1.35 20.05 -0.95 21.1L-0.55 22L0.3 20" />
<path style="fill:none;stroke-width:0.7;stroke-linecap:round;stroke-linejoin:miter;stroke-miterlimit:5;stroke:#000000;stroke-opacity:0.4" d="M0.15 16L0.15 15.7" />
<path style="fill:none;stroke-width:0.7;stroke-linecap:round;stroke-linejoin:round;stroke-miterlimit:3;stroke:#000000;stroke-opacity:0.301961" d="M0.15 15.7L0.15 12.3" />
<path style="fill:none;stroke-width:0.7;stroke-linecap:round;stroke-linejoin:miter;stroke-miterlimit:5;stroke:#000000;stroke-opacity:0.4" d="M0.3 16L0.25 16" />
<path style="fill:none;stroke-width:0.7;stroke-linecap:round;stroke-linejoin:miter;stroke-miterlimit:5;stroke:#000000;stroke-opacity:0.4" d="M1.4 18.35Q1.9 17.1 0.3 16Q2.25 16.45 2.65 18.05Q2.7 19.9 2 20.5L1.1 19.6L-0.55 22" />
<path style="fill:none;stroke-width:0.7;stroke-linecap:round;stroke-linejoin:miter;stroke-miterlimit:5;stroke:#000000;stroke-opacity:0.4" d="M0.05 18.35L1.1 19.6" />
<path style="fill:none;stroke-width:0.7;stroke-linecap:round;stroke-linejoin:round;stroke-miterlimit:3;stroke:#000000;stroke-opacity:0.301961" d="M-0.3 -1.15Q-1.8 0.4 -0.3 9.35" />
</g>
</svg>
