<?xml version="1.0" encoding="utf-8"?>
<svg version="1.1" id="Layer_1"
xmlns="http://www.w3.org/2000/svg"
xmlns:xlink="http://www.w3.org/1999/xlink"
width="4px" height="15px"
xml:space="preserve">
<g id="PathID_487" transform="matrix(1, 0, 0, 1, 1.85, 7.85)">
<path style="fill:#A3988D;fill-opacity:1" d="M-1.5 -1.85L-0.95 -5.55Q-0.55 -7.85 0 -7.85Q0.55 -7.85 0.95 -5.55L1.35 -1.6Q0.05 -3.55 -1.5 -1.85" />
<path style="fill:#675251;fill-opacity:1" d="M1.35 -1.6L1.35 0L1.1 4.65Q-0.7 7.2 -1 5.85L-1.65 2.9L-1.85 0.85L-1.5 -1.85Q0.05 -3.55 1.35 -1.6" />
<path style="fill:none;stroke-width:0.7;stroke-linecap:round;stroke-linejoin:round;stroke-miterlimit:3;stroke:#000000;stroke-opacity:0.301961" d="M-1.5 -1.85L-0.95 -5.55Q-0.55 -7.85 0 -7.85Q0.55 -7.85 0.95 -5.55L1.35 -1.6L1.35 0L1.1 4.65Q-0.7 7.2 -1 5.85L-1.65 2.9L-1.85 0.85L-1.5 -1.85z" />
</g>
</svg>
