<?xml version="1.0" encoding="utf-8"?>
<svg version="1.1" id="Layer_1"
xmlns="http://www.w3.org/2000/svg"
xmlns:xlink="http://www.w3.org/1999/xlink"
width="8px" height="9px"
xml:space="preserve">
<g id="PathID_420" transform="matrix(1, 0, 0, 1, 3.85, 4.3)">
<path style="fill:#090806;fill-opacity:1" d="M1.05 3.6L0.65 3L-0.35 2.1L-0.55 1.95L-1.9 1.05Q-3.25 0.1 -3.7 -0.95L-3.7 -1L-3.85 -1.95Q-3.85 -2.95 -3.15 -3.5Q-2.5 -4.3 -1.45 -4.3L-1.15 -4.3Q0 -4.2 0.5 -3.8L0.55 -3.75L0.95 -3.3L1.55 -2.45L3.65 1.95Q3.65 2.7 3.15 3.45L2.2 4.2Q3.25 3.05 2.2 1.65Q1.55 4.25 1.05 3.6M2.2 1.65Q3.25 3.05 2.2 4.2" />
<path style="fill:none;stroke-width:0.7;stroke-linecap:round;stroke-linejoin:miter;stroke-miterlimit:5;stroke:#000000;stroke-opacity:0.4" d="M2.2 4.2L3.15 3.45Q3.65 2.7 3.65 1.95L1.55 -2.45L0.95 -3.3L0.55 -3.75" />
<path style="fill:none;stroke-width:0.7;stroke-linecap:round;stroke-linejoin:miter;stroke-miterlimit:5;stroke:#000000;stroke-opacity:0.4" d="M-3.7 -1L-3.7 -0.95Q-3.25 0.1 -1.9 1.05L-0.55 1.95L-0.35 2.1L0.65 3L1.05 3.6Q1.55 4.25 2.2 4.2Q3.25 3.05 2.2 1.65" />
</g>
</svg>
