<?xml version="1.0" encoding="utf-8"?>
<svg version="1.1" id="Layer_1"
xmlns="http://www.w3.org/2000/svg"
xmlns:xlink="http://www.w3.org/1999/xlink"
width="10px" height="8px"
xml:space="preserve">
<g id="PathID_823" transform="matrix(1, 0, 0, 1, 4.95, 3.8)">
<path style="fill:#DEE7EA;fill-opacity:1" d="M3.45 0.9L4.2 2.1Q4.65 3.15 3.5 3.25Q2.95 2 2.3 1.6Q2.95 2 3.5 3.25L2.7 3.75Q2.55 3.5 0.05 1.75Q-1.65 3.3 -2.25 0.95L-4.25 0.9Q-4.7 0.4 -4.05 -1.55Q-3.95 -2.55 -3.5 -3.1Q-2.2 -4 -0.9 -3.7Q0.15 -3.45 2.3 -1.65L3.2 -0.75Q4.1 0.45 4.2 2.1L3.45 0.9" />
<path style="fill:#A6B7BB;fill-opacity:1" d="M-4.05 -1.55Q-4.7 0.4 -4.25 0.9L-2.25 0.95Q-1.65 3.3 0.05 1.75Q2.55 3.5 2.7 3.75Q2.05 3.9 1.3 3.3L0 2.7Q-1.95 4.1 -2.65 1.95Q-3.9 2.2 -4.55 1.4Q-5.2 0.6 -4.05 -1.55" />
<path style="fill:none;stroke-width:0.7;stroke-linecap:round;stroke-linejoin:miter;stroke-miterlimit:5;stroke:#003846;stroke-opacity:0.329412" d="M4.2 2.1Q4.1 0.45 3.2 -0.75L2.3 -1.65" />
<path style="fill:none;stroke-width:0.7;stroke-linecap:round;stroke-linejoin:miter;stroke-miterlimit:5;stroke:#003846;stroke-opacity:0.329412" d="M2.7 3.75L3.5 3.25Q2.95 2 2.3 1.6" />
<path style="fill:none;stroke-width:0.7;stroke-linecap:round;stroke-linejoin:miter;stroke-miterlimit:5;stroke:#003846;stroke-opacity:0.329412" d="M4.2 2.1L3.45 0.9" />
<path style="fill:none;stroke-width:0.7;stroke-linecap:round;stroke-linejoin:miter;stroke-miterlimit:5;stroke:#003846;stroke-opacity:0.329412" d="M2.7 3.75Q2.05 3.9 1.3 3.3L0 2.7Q-1.95 4.1 -2.65 1.95Q-3.9 2.2 -4.55 1.4Q-5.2 0.6 -4.05 -1.55" />
<path style="fill:none;stroke-width:0.7;stroke-linecap:round;stroke-linejoin:miter;stroke-miterlimit:5;stroke:#003846;stroke-opacity:0.329412" d="M3.5 3.25Q4.65 3.15 4.2 2.1" />
</g>
</svg>
