<?xml version="1.0" encoding="utf-8"?>
<svg version="1.1" id="Layer_1"
xmlns="http://www.w3.org/2000/svg"
xmlns:xlink="http://www.w3.org/1999/xlink"
width="227px" height="18px"
xml:space="preserve">
<g id="PathID_3507" transform="matrix(1, 0, 0, 1, 0.2, 0.25)">
<path style="fill:#808080;fill-opacity:1" d="M197.25 0L204.7 0L204.7 5L192.3 5L197.25 0M186.45 0L192.85 0L188.1 5L181.9 5L186.45 0M119.45 0L183.05 0L178.5 5L115.15 5L119.45 0M60.15 0L111.2 0L106.4 5L53.7 5L60.15 0M45.1 5L9.85 5L9.85 1.3Q9.75 0.25 11.2 0L52.2 0L45.1 5" />
<path style="fill:#B6B6B6;fill-opacity:1" d="M192.85 0L197.25 0L192.3 5L188.1 5L192.85 0M183.05 0L186.45 0L181.9 5L178.5 5L183.05 0M111.2 0L119.45 0L115.15 5L106.4 5L111.2 0M52.2 0L60.15 0L53.7 5L45.1 5L52.2 0" />
<path style="fill:none;stroke-width:0.7;stroke-linecap:butt;stroke-linejoin:bevel;stroke-miterlimit:3;stroke:#000000;stroke-opacity:0.501961" d="M204.7 0L197.25 0" />
<path style="fill:none;stroke-width:0.7;stroke-linecap:butt;stroke-linejoin:bevel;stroke-miterlimit:3;stroke:#000000;stroke-opacity:0.501961" d="M9.85 5L9.85 1.3Q9.75 0.25 11.2 0L52.2 0L60.15 0L111.2 0L119.45 0L183.05 0L186.45 0L192.85 0L197.25 0" />
</g>
<g id="PathID_3508" transform="matrix(1, 0, 0, 1, 0.2, 0.25)">
<path style="fill:#959595;fill-opacity:1" d="M10.35 0L17.7 4.7L0 4.7L10.35 0" />
<path style="fill:#D9D9D9;fill-opacity:1" d="M10.4 10L0 4.7L17.7 4.7L10.4 10" />
<path style="fill:none;stroke-width:0.7;stroke-linecap:round;stroke-linejoin:round;stroke-miterlimit:3;stroke:#FFFFFF;stroke-opacity:0.298039" d="M17.7 4.7L0 4.7" />
<path style="fill:none;stroke-width:0.7;stroke-linecap:round;stroke-linejoin:round;stroke-miterlimit:3;stroke:#000000;stroke-opacity:0.4" d="M0 4.7L10.4 10" />
<path style="fill:none;stroke-width:0.7;stroke-linecap:round;stroke-linejoin:round;stroke-miterlimit:3;stroke:#FFFFFF;stroke-opacity:0.298039" d="M10.4 10L17.7 4.7L10.35 0" />
<path style="fill:none;stroke-width:0.7;stroke-linecap:round;stroke-linejoin:round;stroke-miterlimit:3;stroke:#000000;stroke-opacity:0.4" d="M10.35 0L0 4.7" />
</g>
<g id="PathID_3509" transform="matrix(1, 0, 0, 1, 0.2, 0.25)">
<path style="fill:#808080;fill-opacity:1" d="M204.85 17L204.8 16.95L204.8 4.8L212.7 4.75L212.7 4.85L204.85 17" />
<path style="fill:none;stroke-width:0.7;stroke-linecap:round;stroke-linejoin:round;stroke-miterlimit:3;stroke:#333333;stroke-opacity:0.298039" d="M204.8 4.8L204.8 16.95" />
<path style="fill:none;stroke-width:0.7;stroke-linecap:round;stroke-linejoin:round;stroke-miterlimit:3;stroke:#FFFFFF;stroke-opacity:0.298039" d="M204.8 16.95L204.85 17" />
<path style="fill:none;stroke-width:0.7;stroke-linecap:round;stroke-linejoin:round;stroke-miterlimit:3;stroke:#333333;stroke-opacity:0.298039" d="M204.85 17L212.7 4.85" />
</g>
<g id="PathID_3510" transform="matrix(1, 0, 0, 1, 0.2, 0.25)">
<path style="fill:#706D6D;fill-opacity:1" d="M220.55 7.4L214.45 4.35L220.5 2.4L225.75 4.95L220.55 7.4" />
<path style="fill:none;stroke-width:0.7;stroke-linecap:round;stroke-linejoin:round;stroke-miterlimit:3;stroke:#333333;stroke-opacity:0.298039" d="M220.55 7.4L214.45 4.35L220.5 2.4L225.75 4.95L220.55 7.4z" />
</g>
</svg>
