<?xml version="1.0" encoding="utf-8"?>
<svg version="1.1" id="Layer_1"
xmlns="http://www.w3.org/2000/svg"
xmlns:xlink="http://www.w3.org/1999/xlink"
width="20px" height="40px"
xml:space="preserve">
<g id="PathID_4102" transform="matrix(1, 0, 0, 1, 0.15, 0.15)">
<path style="fill:#808080;fill-opacity:1" d="M16.15 2.05Q16.15 1.05 15.15 1.55L13.55 3.05L12.75 4.3Q12.2 5.2 12.2 5.65L12.2 5.95Q12.35 6.25 12.8 6.25Q13.95 6.25 15.2 4.2L16.15 2.05M2.1 10.35L2.15 10.4L2.35 10.4L2.1 10.35L1.2 9.5L1 8.75Q1 7.95 1.35 7.65Q1.7 7.3 2.75 7.3Q3.95 7.3 5.95 8.25Q4.8 6.25 4.8 4.4Q4.8 1.85 5.95 1.85Q7.55 1.85 9.15 3.55Q10.7 5.25 10.35 6.75Q10.75 5.5 12.65 3.1Q15.1 0 16.9 0Q17.4 0 18.05 0.55L18.7 1.4Q15.85 9.55 11.85 10.15Q9.55 10.9 6.85 10.7Q6.25 11.65 3.95 12.4Q1.65 13.15 0.05 11.4Q0.15 9.85 2.1 10.35M6.65 3.4Q5.9 3.25 5.9 5.55L5.95 6.2Q6.1 6.8 6.65 6.8Q7.3 6.8 7.45 6.2L7.45 5.5Q7.45 3.55 6.65 3.4M3.4 8.1Q2.4 7.85 2.4 8.7L2.6 9.1Q2.95 9.5 3.65 9.5Q4.15 9.5 4.3 9.3L4.4 9Q4.4 8.35 3.4 8.1" />
<path style="fill:#B8B8B8;fill-opacity:1" d="M15.2 4.2Q13.95 6.25 12.8 6.25Q12.35 6.25 12.2 5.95L12.2 5.65Q12.2 5.2 12.75 4.3L13.55 3.05L15.15 1.55Q16.15 1.05 16.15 2.05L15.2 4.2M7.45 5.5L7.45 6.2Q7.3 6.8 6.65 6.8Q6.1 6.8 5.95 6.2L5.9 5.55Q5.9 3.25 6.65 3.4Q7.45 3.55 7.45 5.5M4.4 9L4.3 9.3Q4.15 9.5 3.65 9.5Q2.95 9.5 2.6 9.1L2.4 8.7Q2.4 7.85 3.4 8.1Q4.4 8.35 4.4 9" />
<path style="fill:#54504E;fill-opacity:1" d="M6.3 12.25Q4 12.85 2.15 13.9L0.2 13.45Q0 13.2 0 11.65L0.05 11.4Q1.65 13.15 3.95 12.4Q6.25 11.65 6.85 10.7Q9.55 10.9 11.85 10.15Q15.85 9.55 18.7 1.4L18.85 2.3Q18.85 5.4 17.5 8.75Q16.3 11.6 14.9 12.6Q10.45 11.2 6.3 12.25" />
<path style="fill:none;stroke-width:0.7;stroke-linecap:round;stroke-linejoin:round;stroke-miterlimit:3;stroke:#000000;stroke-opacity:0.301961" d="M14.9 12.6Q16.3 11.6 17.5 8.75Q18.85 5.4 18.85 2.3L18.7 1.4" />
<path style="fill:none;stroke-width:0.7;stroke-linecap:round;stroke-linejoin:round;stroke-miterlimit:3;stroke:#000000;stroke-opacity:0.301961" d="M0.05 11.4L0 11.65Q0 13.2 0.2 13.45L2.15 13.9" />
<path style="fill:none;stroke-width:0.7;stroke-linecap:round;stroke-linejoin:round;stroke-miterlimit:3;stroke:#000000;stroke-opacity:0.301961" d="M18.7 1.4L18.05 0.55Q17.4 0 16.9 0Q15.1 0 12.65 3.1Q10.75 5.5 10.35 6.75Q10.7 5.25 9.15 3.55Q7.55 1.85 5.95 1.85Q4.8 1.85 4.8 4.4Q4.8 6.25 5.95 8.25Q3.95 7.3 2.75 7.3Q1.7 7.3 1.35 7.65Q1 7.95 1 8.75L1.2 9.5L2.1 10.35L2.35 10.4L2.15 10.4L2.1 10.35Q0.15 9.85 0.05 11.4" />
</g>
<g id="PathID_4103" transform="matrix(1, 0, 0, 1, 0.15, 0.15)">
<path style="fill:#808080;fill-opacity:1" d="M10.7 32.65L11.15 32.95L11.85 32.8L12.3 34.65L12.75 36.4L12.4 38.1Q12 39.05 11.5 39.05L10.1 38.6Q9.1 38 9.1 37.35L10.7 32.65" />
<path style="fill:none;stroke-width:0.7;stroke-linecap:round;stroke-linejoin:round;stroke-miterlimit:3;stroke:#000000;stroke-opacity:0.301961" d="M11.85 32.8L12.3 34.65L12.75 36.4L12.4 38.1Q12 39.05 11.5 39.05L10.1 38.6Q9.1 38 9.1 37.35L10.7 32.65" />
</g>
</svg>
