<?xml version="1.0" encoding="utf-8"?>
<svg version="1.1" id="Layer_1"
xmlns="http://www.w3.org/2000/svg"
xmlns:xlink="http://www.w3.org/1999/xlink"
width="74px" height="73px"
xml:space="preserve">
<g id="PathID_4605" transform="matrix(1, 0, 0, 1, 36.1, 36.85)">
<path style="fill:#838383;fill-opacity:1" d="M-24.85 -32Q-24.75 -31.8 -24.45 -31.8Q-23.95 -31.8 -23.55 -33.05Q-23.55 -33.75 -24.2 -33.45Q-24.9 -33.15 -24.9 -32.25L-24.85 -32M-25.3 -29.95L-25.3 -32.2Q-24.7 -33.8 -23.3 -34.3L-23.3 -31.9Q-24.15 -28.8 -25.3 -29.95" />
<path style="fill:#BFBFBF;fill-opacity:1" d="M-24.9 -32.25Q-24.9 -33.15 -24.2 -33.45Q-23.55 -33.75 -23.55 -33.05Q-23.95 -31.8 -24.45 -31.8Q-24.75 -31.8 -24.85 -32L-24.9 -32.25" />
<path style="fill:#585858;fill-opacity:1" d="M-23.3 -31.9L-23.3 -25.5Q-24.95 -26.4 -25.3 -27.65L-25.3 -29.95Q-24.15 -28.8 -23.3 -31.9" />
<path style="fill:none;stroke-width:0.7;stroke-linecap:round;stroke-linejoin:round;stroke-miterlimit:3;stroke:#000000;stroke-opacity:0.4" d="M-25.3 -29.95L-25.3 -32.2Q-24.7 -33.8 -23.3 -34.3L-23.3 -31.9L-23.3 -25.5Q-24.95 -26.4 -25.3 -27.65L-25.3 -29.95z" />
</g>
<g id="PathID_4606" transform="matrix(1, 0, 0, 1, 36.1, 36.85)">
<radialGradient
id="RadialGradID_2032" gradientUnits="userSpaceOnUse" gradientTransform="matrix(0.0134888, 0, 0, 0.0105133, -11.25, -30.8)" spreadMethod ="pad" cx="0" cy="0" r="819.2" fx="0" fy="0" >
<stop  offset="0"  style="stop-color:#FFFFFF;stop-opacity:1" />
<stop  offset="0.32549"  style="stop-color:#FBE0FF;stop-opacity:1" />
<stop  offset="1"  style="stop-color:#AA3DD2;stop-opacity:1" />
</radialGradient>
<path style="fill:url(#RadialGradID_2032) " d="M-14.25 -31.9L-13.1 -31.6L-12.4 -31.35L-12.25 -31.4Q-12.65 -31.65 -13.55 -33.95L-14.55 -31.75L-14.25 -31.9M-14.85 -31.45L-14.65 -31.95L-14 -33.65Q-13.65 -34.55 -13.15 -33.55L-12.15 -31.55L-11.85 -32.2L-11.6 -32.7L-11.15 -31.9L-10.85 -31.15L-10.7 -31.45L-9.85 -32.2L-9.8 -32.25L-9.65 -32.55Q-9.4 -32.9 -9.15 -32.9L-8.7 -32.75L-8.55 -32.6Q-8.25 -32.6 -7.7 -33.4L-7.7 -33.45L-7.15 -34.4L-6.6 -33.9Q-6.2 -33.85 -5.85 -34.2L-5.45 -34.55L-5.15 -34.3L-4.85 -34.9L-4.45 -34.9L-3.8 -34.55L-3 -34.6L-2.05 -35.6L-1.4 -35.65L-0.95 -35.8L-0.75 -35.95L-0.55 -35.9L-0.8 -35.55L-1.95 -35.4L-2.95 -34.4L-3.8 -34.4L-4.5 -34.7L-4.75 -34.7Q-4.8 -34.1 -5.2 -34.1L-5.5 -34.25L-6.3 -33.7L-7.05 -34.15L-7.6 -33.2L-7.4 -32.3L-6.95 -31.2L-6.9 -32.25L-6.7 -32.3L-6.35 -30.65L-6.3 -30.6L-6.1 -32.1Q-6 -33.15 -5.45 -33.15L-4.95 -32.5L-4.05 -31.5L-3.75 -31.55Q-3.35 -31.8 -3.35 -32.25L-3.35 -33L-3.1 -33L-2.9 -32.65L-2.85 -32.25L-2.7 -32.15L-2.1 -33L-1.65 -33L-1.45 -32.85L-1.4 -32.55L-1.7 -32.8L-2.05 -32.8Q-2.45 -31.9 -2.6 -31.9Q-2.9 -31.9 -3.05 -32.25L-3.2 -32.75L-3.25 -32.05Q-3.3 -31.6 -3.75 -31.3L-4.2 -31.5L-3.9 -30.8L-3.45 -30.15L-2.4 -31Q-2.1 -31 -1.85 -30.35L-1.45 -29.15L-1.4 -29.65L-1 -29.95L-1 -29.75L-1.1 -29.75L-1.3 -28.9L-1.95 -29.85L-2.3 -30.8L-2.95 -30.25Q-3.3 -29.9 -3.4 -29.9Q-3.75 -29.9 -3.95 -30.4L-4.1 -31L-4.2 -31.1Q-4.6 -30.35 -5.4 -29.85L-5.75 -29.85L-6.25 -30.3L-6.5 -30.2L-6.55 -30.1L-6.45 -29.9L-6.55 -29.6L-6.35 -29.1Q-6.05 -28.5 -5.35 -28.15L-5 -28.15L-4.5 -28.7Q-4.15 -28.7 -3.75 -28.2L-3.15 -27.55L-2.6 -28.25L-2.15 -28L-1.9 -27.65L-0.85 -27.7L-1.05 -27.8L-0.9 -27.95L-0.8 -27.9L-0.8 -27.5L-1.95 -27.5L-2.5 -28.05L-2.9 -27.6L-3.1 -27.3L-3.85 -27.9L-4.3 -28.5L-4.75 -28.3L-4.95 -27.9Q-6.05 -28.25 -6.45 -28.85L-6.65 -29.4L-7.35 -28.3L-7.4 -27.4L-7.15 -27.6L-6.95 -27.4L-6.6 -27.25L-6.3 -27.35L-6.05 -27.5L-5.65 -27.1L-5.1 -26.7L-4.95 -26.85Q-4.8 -26.85 -4.6 -26.65L-4.25 -26.45L-3.05 -26.55L-1.95 -26.7L-1.65 -26.7L-1.2 -25.9L-0.55 -26.3L-0.5 -26.2L-0.9 -25.7L-1.25 -25.75L-1.8 -26.5L-2.3 -26.3L-4.05 -26.25L-4.15 -26.2L-4.65 -26.35L-4.9 -26.65L-5.15 -26.45L-5.55 -26.7L-5.85 -27.2L-5.95 -27.3L-6.45 -27L-6.75 -27.05L-7.1 -27.35Q-7.5 -26.65 -7.75 -26.65Q-8.7 -26.65 -9.1 -27.1L-9.2 -27.3L-9.6 -27.5L-9.9 -27.65L-10 -27.4Q-10.1 -27.2 -10.45 -27.2L-11.05 -27.8L-11.45 -28.35L-11.55 -28.4L-11.9 -28.3Q-12.7 -28.4 -12.85 -28.75L-12.9 -28.95L-13.1 -29L-13.45 -28.65L-13.95 -28.15L-14.05 -28.35Q-14.3 -27.55 -14.95 -27.55L-15.25 -27.55L-15.8 -26.85L-16.15 -27L-16.6 -26.95L-17 -26.6L-17.4 -26.3L-18.2 -26.95Q-18.65 -26.95 -19.05 -26.55L-19.6 -25.95L-20 -25.95L-20.85 -26.7L-21.15 -26.05L-21.4 -26.05L-21.4 -26.4L-21.2 -26.75L-20.85 -26.9L-20.4 -26.5L-19.9 -26.1L-19.15 -26.6L-18.15 -27.15L-17.75 -26.85L-17.4 -26.55L-17 -26.85L-16.4 -27.2L-15.9 -27.1L-15.45 -27.55L-16.45 -27.85L-16.65 -28.2L-18.1 -28.15Q-18.7 -28.45 -18.9 -28.9L-19.25 -29.65Q-19.25 -28.4 -19.5 -28.4Q-20.45 -28.4 -20.45 -30.55L-20.45 -30.6L-21.1 -29.55Q-21.55 -28.95 -21.75 -28.95L-21.95 -29L-22.05 -29.05L-22.05 -29.2L-21.9 -29.15Q-21.5 -29.15 -20.45 -30.85L-20.15 -29.95L-19.7 -28.65L-19.65 -28.6L-19.45 -29.85L-19.25 -29.95L-18.75 -29.2L-18.15 -28.4L-16.6 -28.4L-15.85 -27.75L-15.35 -27.75L-15.2 -28L-14.45 -28.9L-14.15 -28.85L-14.15 -29.45L-14.5 -29.25L-14.7 -29.1L-15.55 -29.6L-16 -30.25L-17.3 -30.4L-17.75 -31.2Q-18.4 -30.65 -18.65 -30.65L-19.35 -30.95L-19.8 -31.25L-20.75 -31L-21.2 -30.65L-21.45 -30.75Q-20.65 -31.55 -19.75 -31.45Q-19.15 -30.85 -18.8 -30.85Q-18.45 -30.85 -18.15 -31.1L-17.85 -31.45L-17.6 -31.45L-17.05 -30.45L-16.1 -30.5L-16.35 -31L-16.7 -32.4Q-16.95 -32.35 -17.2 -32.1L-17.45 -31.85Q-18 -31.85 -18.1 -32.4L-18.15 -33.1L-18.55 -32.7L-18.95 -32.4Q-19.45 -32.4 -19.6 -32.9L-19.65 -33.45L-21.4 -31.8L-21.55 -31.8L-21.6 -31.9L-20.6 -32.9L-19.45 -33.75L-19.35 -33.2L-19.1 -32.55L-18.65 -32.9Q-18.35 -33.3 -18.15 -33.3Q-17.95 -33.3 -17.85 -32.65L-17.6 -32.05L-16.95 -32.6L-16.65 -32.55L-16.15 -31.4L-15.5 -30.3L-14.95 -31.2L-15.3 -31.65L-15.75 -32.55L-16.45 -33.25L-16.5 -33.7Q-16.55 -33.9 -16.85 -33.9L-17.45 -33.7L-18.15 -34.1L-18.85 -34.05L-19.25 -34.1L-19.55 -34.55Q-19.75 -34.85 -20 -34.85L-20.7 -34.8L-21 -34.6L-21.1 -34.8L-20 -35.05Q-19.5 -35.05 -19.15 -34.25L-17.95 -34.05L-17.55 -33.9L-17.1 -34L-16.8 -34.15L-15.55 -32.65L-15.1 -31.85L-14.85 -31.45M-14.55 -31.35L-14.5 -31.25L-14.25 -31.6Q-13.8 -31.4 -13.55 -30.45L-12.7 -31L-12.3 -31L-11.75 -30.6L-11.35 -30.6L-11.4 -31.2L-12.1 -31.15L-13.15 -31.4L-13.85 -31.7L-14.55 -31.55L-14.55 -31.35M-14.8 -31.1Q-15.25 -30.05 -15.45 -30.05L-14.85 -29.35L-14.15 -29.55L-14.15 -29.6Q-14.15 -30.2 -14.45 -30.7L-14.65 -31.05L-14.8 -31.1M-14.45 -31.1L-14.25 -30.7Q-13.95 -30.15 -13.95 -29.65L-13.05 -29.25L-12.75 -29.35L-12.7 -29.15L-11.85 -29.3L-11.4 -29.45L-11.35 -30.35L-11.75 -30.35Q-12.2 -30.8 -12.5 -30.8L-13.1 -30.55L-13.5 -30.3L-14 -30.7L-14.1 -31.3L-14.45 -31.1M-10.8 -30.95L-10.65 -30.7L-10.15 -31.65L-10 -31.9L-10.6 -31.25L-10.8 -30.95M-11.3 -31.35L-11.55 -32.5Q-11.65 -31.7 -11.9 -31.45L-11.35 -31.45L-11.3 -31.35M-11.1 -30.2L-11.15 -29.5L-10.45 -28.95Q-10.2 -28.45 -9.6 -28.45Q-8.55 -28.45 -8.25 -28.95L-7.8 -29.75L-7.45 -29L-7.4 -29.55L-7.1 -30.05L-6.8 -30L-6.65 -29.8L-6.65 -29.85L-6.75 -30.05L-6.55 -30.35L-6.4 -30.45L-6.7 -31L-6.7 -31.25Q-6.75 -30.95 -6.95 -30.95Q-7.3 -30.95 -7.5 -31.85L-7.65 -33.05L-8.4 -31.7Q-8.85 -30.85 -9.2 -30.85Q-9.55 -30.85 -9.7 -31.9L-9.85 -31.6L-9.95 -31.6L-10.1 -31.15Q-10.3 -30.55 -10.6 -30.55L-10.95 -30.7L-11.1 -30.5L-11.1 -30.2M-11.05 -30.85L-11.25 -31.2L-11.1 -30.75L-11.05 -30.85M-11.55 -29.3L-11.95 -29L-12.55 -28.95L-12.65 -28.95L-12.35 -28.5L-11.85 -28.5L-11.5 -28.6L-11.4 -29.3L-11.55 -29.3M-10.85 -28.1L-10.5 -27.35L-10.2 -27.6L-10.1 -27.8L-11.2 -28.65L-11.2 -28.5L-10.85 -28.1M-11.15 -29.3L-11.2 -28.95L-10.05 -27.9L-10 -27.85L-9.95 -27.95L-9.55 -27.95L-9 -27.35L-8.9 -27.25L-7.9 -27Q-7.5 -27 -7.7 -27.85L-7.3 -28.8L-7.75 -29.1L-7.85 -29.4Q-8.4 -28.3 -9.4 -28.2Q-10.45 -28.35 -10.6 -28.65L-11.05 -29.3L-11.15 -29.3M-14.2 -28.55L-14.45 -28.65L-15.1 -27.8Q-14.5 -27.95 -14.25 -28.5L-14.2 -28.55M-13.3 -29.1L-13.45 -29.2L-13.95 -29.45L-14 -28.7L-13.8 -28.4L-13.5 -28.95L-13.3 -29.1M-4.9 -32.1L-5.4 -32.9L-5.45 -32.95L-5.9 -31.7L-6.2 -30.45L-5.7 -30.1L-5.3 -30.1Q-4.65 -30.55 -4.25 -31.55L-4.9 -32.1M-9.55 -32.2L-9.25 -31.15L-8.2 -32.55L-8.45 -32.45L-8.85 -32.55L-9.15 -32.7L-9.55 -32.25L-9.55 -32.2M-6.9 -29.8L-7.25 -29.4L-7.2 -28.95L-7.15 -29.05L-6.8 -29.6L-6.9 -29.8M-8.35 -26.9L-8.3 -26.9L-8.7 -27.05L-8.35 -26.9M-9.8 -27.75L-9.3 -27.4L-9.55 -27.75L-9.8 -27.75" />
</g>
<g id="PathID_4607" transform="matrix(1, 0, 0, 1, 36.1, 36.85)">
<path style="fill:#FCFCFC;fill-opacity:0.239216" d="M-0.15 -26.05Q-0.15 -25.3 -0.85 -25.3L-21.45 -25.3Q-22.15 -25.3 -22.15 -26.05L-22.15 -35.1Q-22.15 -35.9 -21.45 -35.9L-0.85 -35.9Q-0.15 -35.9 -0.15 -35.1L-0.15 -26.05" />
<path style="fill:none;stroke-width:0.7;stroke-linecap:round;stroke-linejoin:round;stroke-miterlimit:3;stroke:#000000;stroke-opacity:0.4" d="M-0.15 -35.1Q-0.15 -35.9 -0.85 -35.9L-21.45 -35.9Q-22.15 -35.9 -22.15 -35.1L-22.15 -26.05Q-22.15 -25.3 -21.45 -25.3L-0.85 -25.3Q-0.15 -25.3 -0.15 -26.05L-0.15 -35.1z" />
</g>
<g id="PathID_4608" transform="matrix(1, 0, 0, 1, 36.1, 36.85)">
<path style="fill:#6C8C8B;fill-opacity:0.301961" d="M-21.25 -27.05L-21.25 -28.8Q-21.25 -29.5 -20.55 -29.5L-1.45 -29.5Q-0.75 -29.5 -0.75 -28.8L-0.75 -27.05Q-0.75 -26.35 -1.45 -26.35L-20.55 -26.35Q-21.25 -26.35 -21.25 -27.05" />
</g>
<g id="PathID_4609" transform="matrix(1, 0, 0, 1, 36.1, 36.85)">
<path style="fill:#EEFFFE;fill-opacity:0.611765" d="M-17.3 -34.2L-17.65 -34.05L-18.85 -34.05Q-19.05 -34.05 -19.25 -34.2L-19.4 -34.6L-19.25 -35L-18.85 -35.15L-17.65 -35.15L-17.3 -35L-17.1 -34.6L-17.3 -34.2M-15.6 -35.05L-15.2 -35.2L-3.35 -35.2L-3 -35.05L-2.8 -34.6L-3 -34.2Q-3.15 -34.05 -3.35 -34.05L-15.2 -34.05Q-15.45 -34.05 -15.6 -34.2L-15.75 -34.6L-15.6 -35.05" />
</g>
<g id="PathID_4610" transform="matrix(1, 0, 0, 1, 36.1, 36.85)">
<path style="fill:#838383;fill-opacity:1" d="M-23.35 -30.6L-23.35 -36.05Q-23.35 -36.85 -22.7 -36.85L-21.65 -36.85Q-20.95 -36.85 -20.95 -36.05L-20.95 -34.05Q-21.75 -27.6 -23.35 -30.6M-22.75 -36.25L-22.9 -35.55L-23 -34.1L-22.95 -33.25L-22.7 -32.1Q-22.5 -35 -21.95 -35.5L-21.4 -36.15Q-21.4 -36.45 -22 -36.5L-22.75 -36.25" />
<path style="fill:#BFBFBF;fill-opacity:1" d="M-22 -36.5Q-21.4 -36.45 -21.4 -36.15L-21.95 -35.5Q-22.5 -35 -22.7 -32.1L-22.95 -33.25L-23 -34.1L-22.9 -35.55L-22.75 -36.25L-22 -36.5" />
<path style="fill:#585858;fill-opacity:1" d="M-23.35 -30.6Q-21.75 -27.6 -20.95 -34.05L-20.95 -25.1Q-20.95 -24.2 -21.65 -24.2L-22.7 -24.2Q-23.35 -24.2 -23.35 -25.1L-23.35 -30.6" />
<path style="fill:none;stroke-width:0.7;stroke-linecap:round;stroke-linejoin:round;stroke-miterlimit:3;stroke:#000000;stroke-opacity:0.4" d="M-20.95 -34.05L-20.95 -36.05Q-20.95 -36.85 -21.65 -36.85L-22.7 -36.85Q-23.35 -36.85 -23.35 -36.05L-23.35 -30.6" />
<path style="fill:none;stroke-width:0.7;stroke-linecap:round;stroke-linejoin:round;stroke-miterlimit:3;stroke:#000000;stroke-opacity:0.4" d="M-20.95 -34.05L-20.95 -25.1Q-20.95 -24.2 -21.65 -24.2L-22.7 -24.2Q-23.35 -24.2 -23.35 -25.1L-23.35 -30.6" />
</g>
<g id="PathID_4611" transform="matrix(1, 0, 0, 1, 36.1, 36.85)">
<path style="fill:#BFBFBF;fill-opacity:1" d="M1.4 -33.45Q2.1 -33.15 2.1 -32.25L2.05 -32Q1.95 -31.8 1.65 -31.8Q1.15 -31.8 0.75 -33.05Q0.75 -33.75 1.4 -33.45" />
<path style="fill:#838383;fill-opacity:1" d="M0.75 -33.05Q1.15 -31.8 1.65 -31.8Q1.95 -31.8 2.05 -32L2.1 -32.25Q2.1 -33.15 1.4 -33.45Q0.75 -33.75 0.75 -33.05M0.5 -31.9L0.5 -34.3Q1.9 -33.8 2.5 -32.2L2.5 -29.95Q1.35 -28.8 0.5 -31.9" />
<path style="fill:#585858;fill-opacity:1" d="M0.5 -31.9Q1.35 -28.8 2.5 -29.95L2.5 -27.65Q2.15 -26.4 0.5 -25.5L0.5 -31.9" />
<path style="fill:none;stroke-width:0.7;stroke-linecap:round;stroke-linejoin:round;stroke-miterlimit:3;stroke:#000000;stroke-opacity:0.4" d="M2.5 -29.95L2.5 -32.2Q1.9 -33.8 0.5 -34.3L0.5 -31.9" />
<path style="fill:none;stroke-width:0.7;stroke-linecap:round;stroke-linejoin:round;stroke-miterlimit:3;stroke:#000000;stroke-opacity:0.4" d="M2.5 -29.95L2.5 -27.65Q2.15 -26.4 0.5 -25.5L0.5 -31.9" />
</g>
<g id="PathID_4612" transform="matrix(1, 0, 0, 1, 36.1, 36.85)">
<path style="fill:#BFBFBF;fill-opacity:1" d="M0.15 -33.25L-0.1 -32.1Q-0.3 -35 -0.85 -35.5L-1.4 -36.15Q-1.4 -36.45 -0.8 -36.5L-0.05 -36.25L0.1 -35.55L0.2 -34.1L0.15 -33.25" />
<path style="fill:#838383;fill-opacity:1" d="M-1.85 -34.05L-1.85 -36.05Q-1.85 -36.85 -1.15 -36.85L-0.1 -36.85Q0.55 -36.85 0.55 -36.05L0.55 -30.6Q-1.05 -27.6 -1.85 -34.05M0.2 -34.1L0.1 -35.55L-0.05 -36.25L-0.8 -36.5Q-1.4 -36.45 -1.4 -36.15L-0.85 -35.5Q-0.3 -35 -0.1 -32.1L0.15 -33.25L0.2 -34.1" />
<path style="fill:#585858;fill-opacity:1" d="M0.55 -30.6L0.55 -25.1Q0.55 -24.2 -0.1 -24.2L-1.15 -24.2Q-1.85 -24.2 -1.85 -25.1L-1.85 -34.05Q-1.05 -27.6 0.55 -30.6" />
<path style="fill:none;stroke-width:0.7;stroke-linecap:round;stroke-linejoin:round;stroke-miterlimit:3;stroke:#000000;stroke-opacity:0.4" d="M-1.85 -34.05L-1.85 -36.05Q-1.85 -36.85 -1.15 -36.85L-0.1 -36.85Q0.55 -36.85 0.55 -36.05L0.55 -30.6L0.55 -25.1Q0.55 -24.2 -0.1 -24.2L-1.15 -24.2Q-1.85 -24.2 -1.85 -25.1L-1.85 -34.05z" />
</g>
<g id="PathID_4613" transform="matrix(1, 0, 0, 1, 36.1, 36.85)">
<radialGradient
id="RadialGradID_2033" gradientUnits="userSpaceOnUse" gradientTransform="matrix(0.0299683, 0, 0, 0.0105133, 0.65, -0.9)" spreadMethod ="pad" cx="0" cy="0" r="819.2" fx="0" fy="0" >
<stop  offset="0"  style="stop-color:#FFFFFF;stop-opacity:1" />
<stop  offset="0.32549"  style="stop-color:#FBE0FF;stop-opacity:1" />
<stop  offset="1"  style="stop-color:#AA3DD2;stop-opacity:1" />
</radialGradient>
<path style="fill:url(#RadialGradID_2033) " d="M1.05 -0.95L0.7 -1.25L0.95 -0.85L1.05 -0.95M0.3 -1.3L-1.25 -1.25L-3.6 -1.5L-5.15 -1.8L-6.7 -1.65L-6.7 -1.45L-6.6 -1.35L-6.05 -1.7Q-5.05 -1.5 -4.5 -0.55L-2.6 -1.1L-1.7 -1.1L-0.5 -0.7L0.4 -0.7L0.3 -1.3M0.4 -0.45L-0.5 -0.45L-2.2 -0.9L-3.45 -0.65L-4.4 -0.4Q-5.25 -0.4 -5.45 -0.8L-5.75 -1.4L-6.5 -1.2L-6.05 -0.8Q-5.35 -0.25 -5.35 0.25L-3.35 0.65L-2.7 0.55L-2.6 0.75L-0.7 0.6L0.3 0.45L0.4 -0.05L0.4 -0.45M0.95 -0.3L0.85 0.4Q1.8 0.45 2.4 0.95Q2.95 1.45 4.3 1.45L7.25 0.95L8.3 0.15L9.05 0.9L9.15 0.35Q9.15 0 9.85 -0.15L10.5 -0.1L10.85 0.1L10.85 0.05L10.6 -0.15Q10.6 -0.3 11.05 -0.45L11.4 -0.55Q10.85 -0.75 10.7 -1.1L10.7 -1.35Q10.6 -1.05 10.2 -1.05Q9.35 -1.05 8.95 -1.95Q8.6 -2.55 8.6 -3.15L6.95 -1.8Q5.95 -0.95 5.15 -0.95Q4.4 -0.95 4.1 -2L3.7 -1.7L3.5 -1.7L3.15 -1.25Q2.75 -0.65 2.1 -0.65L1.3 -0.8L0.95 -0.6L0.95 -0.3M1.9 -0.8Q2.5 -1 3.05 -1.75L3.4 -2L2.1 -1.35L1.6 -1.05L1.9 -0.8M1.5 -1.25L1.8 -1.55L3.7 -2.3L3.8 -2.35L4.2 -2.65Q4.75 -3 5.25 -3L6.3 -2.85L6.6 -2.7Q7.25 -2.7 8.5 -3.5L8.5 -3.55L9.75 -4.5L10.95 -4L12.6 -4.3L13.55 -4.65L14.15 -4.4L14.8 -5L15.75 -5L17.2 -4.65L19 -4.7L21.1 -5.7L22.5 -5.75L23.4 -5.85L23.4 -5.65L23.4 -5.55L21.3 -5.5L19.1 -4.5L17.2 -4.5L15.65 -4.8L15.05 -4.8Q14.95 -4.2 14.05 -4.2L13.4 -4.35L11.65 -3.8Q10.5 -3.9 9.95 -4.25L8.7 -3.3L9.15 -2.4Q9.55 -1.7 10.2 -1.3L10.3 -2.35L10.7 -2.4L11.55 -0.75L11.65 -0.7L12.05 -2.2Q12.3 -3.25 13.55 -3.25L14.6 -2.6L16.6 -1.6L17.3 -1.65Q18.15 -1.9 18.15 -2.35L18.15 -3.1L18.7 -3.1L19.2 -2.75L19.3 -2.35L19.6 -2.25Q20.05 -2.75 20.95 -3.1L21.95 -3.1L22.4 -2.95L22.5 -2.65L21.85 -2.9L21.1 -2.9Q20.15 -2 19.85 -2Q19.2 -2 18.8 -2.35L18.5 -2.85L18.4 -2.15Q18.25 -1.7 17.3 -1.4L16.3 -1.6L16.95 -0.9Q17.4 -0.25 17.95 -0.25L20.25 -1.1Q20.95 -1.1 21.5 -0.45L22.4 0.75L22.5 0.25Q22.6 0 23.15 -0.05L23.1 0.15L23.1 0.35L22.75 1Q21.75 0.65 21.3 0.05L20.5 -0.9Q19.95 -0.8 19.1 -0.35L18.05 0Q17.3 0 16.8 -0.5Q16.5 -0.85 16.5 -1.1L16.3 -1.2Q15.4 -0.45 13.65 0.05L12.8 0.05Q12.4 -0.4 11.75 -0.4L11.15 -0.3L11.05 -0.2L11.25 0L11.05 0.3L11.55 0.8Q12.2 1.4 13.75 1.75L14.5 1.75Q15.5 1.2 15.65 1.2Q16.4 1.2 17.3 1.7L18.6 2.35Q19.2 1.65 19.85 1.65L20.85 1.9L21.4 2.25L23.5 2.2L23.5 2.4L21.3 2.4L20.05 1.85Q19.4 1.95 19.2 2.3L18.7 2.6Q18.05 2.6 17.1 2L16.05 1.4L15.05 1.6L14.6 2Q12.2 1.65 11.25 1.05L10.85 0.5L9.25 1.6L9.15 2.5L9.75 2.3L10.2 2.5L10.95 2.65L11.65 2.55Q11.85 2.4 12.2 2.4L13.05 2.8Q13.4 3.2 14.3 3.2L14.6 3.05L15.4 3.25L16.15 3.45L18.8 3.35L21.3 3.2L21.95 3.2L22.95 4L23.5 3.85L23.55 4.2L22.85 4.15Q21.6 3.6 21.6 3.4L20.5 3.6L16.6 3.65L16.4 3.7L15.3 3.55L14.7 3.25L14.15 3.45L13.3 3.2L12.6 2.7L12.4 2.6L11.25 2.9L10.6 2.85L9.85 2.55Q8.95 3.25 8.4 3.25L5.4 2.8L5.15 2.6L4.3 2.4L3.6 2.25L3.4 2.5L2.4 2.7Q1.8 2.7 1.05 2.1Q0.5 1.65 0.2 1.55L-0.05 1.5L-0.85 1.6L-2.95 1.15L-3.05 0.95L-3.45 0.9Q-3.95 1 -4.3 1.25Q-4.8 1.65 -5.35 1.75L-5.65 1.55Q-6.15 2.35 -7.65 2.35L-8.3 2.35L-9.5 3.05L-10.25 2.9L-11.3 2.95L-12.15 3.3L-13 3.6L-14.8 2.95Q-15.85 2.95 -16.7 3.35L-17.95 3.95L-18.85 3.95L-20.75 3.2L-21.3 3.8L-21.45 3.15L-20.75 3Q-20.35 3 -19.7 3.4Q-19.05 3.8 -18.6 3.8L-16.95 3.3Q-15.6 2.75 -14.7 2.75Q-14.35 2.75 -13.85 3.05L-13 3.35L-12.15 3.05Q-11.4 2.7 -10.8 2.7L-9.75 2.8L-8.7 2.35L-10.9 2.05L-11.4 1.7L-14.6 1.75Q-15.95 1.45 -16.35 1Q-16.7 0.55 -17.2 0.25Q-17.2 1.5 -17.7 1.5Q-19.8 1.5 -19.8 -0.65L-19.8 -0.7L-21.3 0.35L-21.85 0.7L-21.9 0.6L-21.85 0.4L-19.8 -0.95L-19.2 -0.05L-18.15 1.25L-18.05 1.3Q-17.6 1 -17.6 0.05L-17.2 -0.05Q-16.6 0.15 -16.05 0.7Q-15.5 1.25 -14.7 1.5L-11.3 1.5L-9.6 2.15L-8.5 2.15L-8.15 1.9Q-6.95 1 -6.5 1L-5.85 1.05L-5.85 0.45L-6.6 0.65L-7.05 0.8Q-8.05 0.8 -8.9 0.3L-9.95 -0.35L-12.8 -0.5L-13.85 -1.3Q-15.3 -0.75 -15.85 -0.75L-17.4 -1.05L-18.35 -1.35L-20.45 -1.1L-21.5 -0.75L-21.7 -0.75L-21.7 -1Q-20.05 -1.65 -18.25 -1.55Q-16.95 -0.95 -16.15 -0.95L-14.7 -1.2L-14.05 -1.55L-13.5 -1.55L-12.25 -0.55L-10.15 -0.6L-10.7 -1.1L-11.5 -2.5L-12.6 -2.2Q-13 -1.95 -13.2 -1.95Q-14.35 -1.95 -14.6 -2.5L-14.7 -3.2L-15.6 -2.8Q-16.15 -2.5 -16.5 -2.5Q-17.6 -2.5 -17.95 -3L-18.05 -3.55L-21.6 -2.1L-21.55 -2.45L-20.15 -3L-17.6 -3.85L-17.4 -3.3Q-17.3 -2.9 -16.85 -2.65Q-16.5 -2.65 -15.85 -3Q-15.2 -3.4 -14.7 -3.4Q-14.25 -3.4 -14.05 -2.75Q-13.85 -2.15 -13.5 -2.15L-12.05 -2.7L-11.4 -2.65L-10.25 -1.5L-8.8 -0.4Q-8.15 -0.75 -7.65 -1.3L-8.4 -1.75L-9.4 -2.65Q-10.8 -3.1 -10.9 -3.35L-11.05 -3.8L-11.85 -4L-13.2 -3.8L-14.7 -4.2L-17.2 -4.2L-17.85 -4.65L-18.85 -4.95L-20.35 -4.9L-21.05 -4.7L-21.3 -4.9L-18.85 -5.15Q-17.7 -5.15 -16.95 -4.35L-14.25 -4.15L-13.4 -4L-12.4 -4.1L-11.75 -4.25L-8.9 -2.75L-7.95 -1.95L-7.35 -1.55L-6.95 -2.05L-5.45 -3.75L-3.6 -3.65L-1.35 -1.65Q-1.05 -1.75 -0.7 -2.3L-0.2 -2.8Q0.2 -2.8 0.85 -2L1.5 -1.25M0.5 -1.45Q-0.05 -2.1 -0.05 -2.6Q-0.3 -1.8 -0.85 -1.55L0.4 -1.55L0.5 -1.45M4.4 -2.3L5.05 -1.25Q6.1 -1.7 7.35 -2.65L6.85 -2.55L5.95 -2.65L5.25 -2.8Q4.75 -2.8 4.4 -2.35L4.4 -2.3M11.85 -0.55L12.95 -0.2L13.85 -0.2Q15.3 -0.65 16.15 -1.65Q15.2 -1.9 14.7 -2.2L13.65 -3L13.55 -3.05Q12.7 -2.65 12.5 -1.8L11.85 -0.55M23.5 2.15L23.3 2.1L23.5 1.95L23.5 2.15M10.3 0.1Q9.65 0.2 9.55 0.5L9.65 0.95L9.75 0.85L10.5 0.3L10.3 0.1M8.2 0.5Q6.95 1.6 4.75 1.7L2.1 1.25L1.05 0.6L0.85 0.6L0.75 0.95L3.25 2L3.4 2.05L3.5 1.95L4.4 1.95L5.6 2.55L5.85 2.65L8.1 2.9Q8.95 2.9 8.5 2.05Q8.5 1.7 9.35 1.1L8.4 0.8L8.2 0.5M6.3 2.85L7.05 3L7.15 3L6.3 2.85M3.15 2.1L0.75 1.25L0.75 1.4L1.5 1.8L2.3 2.55L2.95 2.3L3.15 2.1M3.8 2.15L4.95 2.5L4.4 2.15L3.8 2.15M0.3 0.6L-0.05 0.6L-0.95 0.9L-2.3 0.95L-2.5 0.95L-1.85 1.4L-0.7 1.4L0.05 1.3L0.3 0.6M-6.95 -1.15L-7.25 -1.2Q-8.3 -0.15 -8.7 -0.15Q-7.85 0.55 -7.35 0.55L-5.85 0.35L-5.85 0.3Q-5.85 -0.3 -6.5 -0.8L-6.95 -1.15M-6.05 -2L-3.45 -1.7L-1.95 -1.45L-1.6 -1.5Q-2.5 -1.75 -4.5 -4.05L-6.7 -1.85L-6.05 -2M-3.95 0.8L-4.3 0.7L-5.35 0.45L-5.45 1.2L-5.05 1.5L-4.4 0.95L-3.95 0.8M-5.95 1.35L-6.5 1.25Q-6.95 1.25 -7.95 2.1Q-6.6 1.95 -6.05 1.4L-5.95 1.35" />
</g>
<g id="PathID_4614" transform="matrix(1, 0, 0, 1, 36.1, 36.85)">
<path style="fill:#838383;fill-opacity:1" d="M-25.3 -0.05L-25.3 -2.3Q-24.7 -3.9 -23.3 -4.4L-23.3 -2Q-24.15 1.1 -25.3 -0.05M-24.2 -3.55Q-24.9 -3.25 -24.9 -2.35L-24.85 -2.1Q-24.75 -1.9 -24.45 -1.9Q-23.95 -1.9 -23.55 -3.15Q-23.55 -3.85 -24.2 -3.55" />
<path style="fill:#BFBFBF;fill-opacity:1" d="M-23.55 -3.15Q-23.95 -1.9 -24.45 -1.9Q-24.75 -1.9 -24.85 -2.1L-24.9 -2.35Q-24.9 -3.25 -24.2 -3.55Q-23.55 -3.85 -23.55 -3.15" />
<path style="fill:#585858;fill-opacity:1" d="M-23.3 -2L-23.3 4.4Q-24.95 3.5 -25.3 2.25L-25.3 -0.05Q-24.15 1.1 -23.3 -2" />
<path style="fill:none;stroke-width:0.7;stroke-linecap:round;stroke-linejoin:round;stroke-miterlimit:3;stroke:#000000;stroke-opacity:0.4" d="M-25.3 -0.05L-25.3 -2.3Q-24.7 -3.9 -23.3 -4.4L-23.3 -2L-23.3 4.4Q-24.95 3.5 -25.3 2.25L-25.3 -0.05z" />
</g>
<g id="PathID_4615" transform="matrix(1, 0, 0, 1, 36.1, 36.85)">
<path style="fill:#FCFCFC;fill-opacity:0.239216" d="M23.25 -5.2L23.25 3.85Q23.25 4.6 21.8 4.6L-20.65 4.6Q-22.1 4.6 -22.1 3.85L-22.1 -5.2Q-22.1 -6 -20.65 -6L21.8 -6Q23.25 -6 23.25 -5.2" />
<path style="fill:none;stroke-width:0.7;stroke-linecap:round;stroke-linejoin:round;stroke-miterlimit:3;stroke:#000000;stroke-opacity:0.4" d="M21.8 -6L-20.65 -6Q-22.1 -6 -22.1 -5.2L-22.1 3.85Q-22.1 4.6 -20.65 4.6L21.8 4.6Q23.25 4.6 23.25 3.85L23.25 -5.2Q23.25 -6 21.8 -6z" />
</g>
<g id="PathID_4616" transform="matrix(1, 0, 0, 1, 36.1, 36.85)">
<path style="fill:#6C8C8B;fill-opacity:0.301961" d="M20.55 3.55L-18.8 3.55Q-20.25 3.55 -20.25 2.85L-20.25 1.1Q-20.25 0.4 -18.8 0.4L20.55 0.4Q22 0.4 22 1.1L22 2.85Q22 3.55 20.55 3.55" />
</g>
<g id="PathID_4617" transform="matrix(1, 0, 0, 1, 36.1, 36.85)">
<path style="fill:#EEFFFE;fill-opacity:0.611765" d="M16.65 -4.15L-7.8 -4.15L-8.6 -4.3L-8.9 -4.7L-8.6 -5.15L-7.8 -5.3L16.65 -5.3L17.35 -5.15L17.8 -4.7L17.35 -4.3L16.65 -4.15M-16.45 -4.7L-16.15 -5.1L-15.3 -5.25L-12.85 -5.25L-12.1 -5.1L-11.7 -4.7Q-11.7 -4.45 -12.1 -4.3L-12.85 -4.15L-15.3 -4.15L-16.15 -4.3L-16.45 -4.7" />
</g>
<g id="PathID_4618" transform="matrix(1, 0, 0, 1, 36.1, 36.85)">
<path style="fill:#838383;fill-opacity:1" d="M-22 -6.6L-22.75 -6.35L-22.9 -5.65L-23 -4.2L-22.95 -3.35L-22.7 -2.2Q-22.5 -5.1 -21.95 -5.6L-21.4 -6.25Q-21.4 -6.55 -22 -6.6M-23.35 -0.7L-23.35 -6.15Q-23.35 -6.95 -22.7 -6.95L-21.65 -6.95Q-20.95 -6.95 -20.95 -6.15L-20.95 -4.15Q-21.75 2.3 -23.35 -0.7" />
<path style="fill:#BFBFBF;fill-opacity:1" d="M-21.4 -6.25L-21.95 -5.6Q-22.5 -5.1 -22.7 -2.2L-22.95 -3.35L-23 -4.2L-22.9 -5.65L-22.75 -6.35L-22 -6.6Q-21.4 -6.55 -21.4 -6.25" />
<path style="fill:#585858;fill-opacity:1" d="M-23.35 -0.7Q-21.75 2.3 -20.95 -4.15L-20.95 4.8Q-20.95 5.7 -21.65 5.7L-22.7 5.7Q-23.35 5.7 -23.35 4.8L-23.35 -0.7" />
<path style="fill:none;stroke-width:0.7;stroke-linecap:round;stroke-linejoin:round;stroke-miterlimit:3;stroke:#000000;stroke-opacity:0.4" d="M-20.95 -4.15L-20.95 -6.15Q-20.95 -6.95 -21.65 -6.95L-22.7 -6.95Q-23.35 -6.95 -23.35 -6.15L-23.35 -0.7" />
<path style="fill:none;stroke-width:0.7;stroke-linecap:round;stroke-linejoin:round;stroke-miterlimit:3;stroke:#000000;stroke-opacity:0.4" d="M-20.95 -4.15L-20.95 4.8Q-20.95 5.7 -21.65 5.7L-22.7 5.7Q-23.35 5.7 -23.35 4.8L-23.35 -0.7" />
</g>
<g id="PathID_4619" transform="matrix(1, 0, 0, 1, 36.1, 36.85)">
<path style="fill:#838383;fill-opacity:1" d="M24.3 -2.4L24.3 -4.8Q25.7 -4.3 26.3 -2.7L26.3 -0.45Q25.15 0.7 24.3 -2.4M24.55 -3.55Q24.95 -2.3 25.45 -2.3Q25.75 -2.3 25.85 -2.5L25.9 -2.75Q25.9 -3.65 25.2 -3.95Q24.55 -4.25 24.55 -3.55" />
<path style="fill:#BFBFBF;fill-opacity:1" d="M25.2 -3.95Q25.9 -3.65 25.9 -2.75L25.85 -2.5Q25.75 -2.3 25.45 -2.3Q24.95 -2.3 24.55 -3.55Q24.55 -4.25 25.2 -3.95" />
<path style="fill:#585858;fill-opacity:1" d="M24.3 -2.4Q25.15 0.7 26.3 -0.45L26.3 1.85Q25.95 3.1 24.3 4L24.3 -2.4" />
<path style="fill:none;stroke-width:0.7;stroke-linecap:round;stroke-linejoin:round;stroke-miterlimit:3;stroke:#000000;stroke-opacity:0.4" d="M26.3 -0.45L26.3 -2.7Q25.7 -4.3 24.3 -4.8L24.3 -2.4" />
<path style="fill:none;stroke-width:0.7;stroke-linecap:round;stroke-linejoin:round;stroke-miterlimit:3;stroke:#000000;stroke-opacity:0.4" d="M26.3 -0.45L26.3 1.85Q25.95 3.1 24.3 4L24.3 -2.4" />
</g>
<g id="PathID_4620" transform="matrix(1, 0, 0, 1, 36.1, 36.85)">
<path style="fill:#BFBFBF;fill-opacity:1" d="M23 -6.7L23.75 -6.45L23.9 -5.75L24 -4.3L23.95 -3.45L23.7 -2.3Q23.5 -5.2 22.95 -5.7L22.4 -6.35Q22.4 -6.65 23 -6.7" />
<path style="fill:#838383;fill-opacity:1" d="M22.4 -6.35L22.95 -5.7Q23.5 -5.2 23.7 -2.3L23.95 -3.45L24 -4.3L23.9 -5.75L23.75 -6.45L23 -6.7Q22.4 -6.65 22.4 -6.35M21.95 -4.25L21.95 -6.25Q21.95 -7.05 22.65 -7.05L23.7 -7.05Q24.35 -7.05 24.35 -6.25L24.35 -0.8Q22.75 2.2 21.95 -4.25" />
<path style="fill:#585858;fill-opacity:1" d="M24.35 -0.8L24.35 4.7Q24.35 5.6 23.7 5.6L22.65 5.6Q21.95 5.6 21.95 4.7L21.95 -4.25Q22.75 2.2 24.35 -0.8" />
<path style="fill:none;stroke-width:0.7;stroke-linecap:round;stroke-linejoin:round;stroke-miterlimit:3;stroke:#000000;stroke-opacity:0.4" d="M21.95 -4.25L21.95 -6.25Q21.95 -7.05 22.65 -7.05L23.7 -7.05Q24.35 -7.05 24.35 -6.25L24.35 -0.8L24.35 4.7Q24.35 5.6 23.7 5.6L22.65 5.6Q21.95 5.6 21.95 4.7L21.95 -4.25z" />
</g>
<g id="PathID_4621" transform="matrix(1, 0, 0, 1, 36.1, 36.85)">
<radialGradient
id="RadialGradID_2034" gradientUnits="userSpaceOnUse" gradientTransform="matrix(0, 0.0102997, -0.00830078, 0, -29.55, -14.95)" spreadMethod ="pad" cx="0" cy="0" r="819.2" fx="0" fy="0" >
<stop  offset="0"  style="stop-color:#FFFFFF;stop-opacity:1" />
<stop  offset="0.32549"  style="stop-color:#FBE0FF;stop-opacity:1" />
<stop  offset="1"  style="stop-color:#AA3DD2;stop-opacity:1" />
</radialGradient>
<path style="fill:url(#RadialGradID_2034) " d="M-26.4 -22.5Q-26.2 -22.35 -26.2 -21.65Q-26.2 -21.25 -26.8 -21Q-26.8 -20.25 -26.95 -20.1L-27.1 -19.75L-27 -19.45L-26.9 -19.2L-28.1 -18.25L-28.7 -17.9L-29.05 -17.7L-28.65 -17.55L-27.3 -17.05Q-26.6 -16.8 -27.35 -16.4L-28.95 -15.65L-28.45 -15.4L-28.05 -15.25Q-28.05 -15.1 -28.65 -14.9L-29.25 -14.65L-29.05 -14.55L-28.45 -13.9L-28.4 -13.85L-28.15 -13.75L-27.9 -13.35L-28 -13L-28.1 -12.9L-27.5 -12.25L-27.45 -12.25L-26.7 -11.85L-27.1 -11.4Q-27.15 -11.1 -26.85 -10.85L-26.6 -10.55L-26.8 -10.3L-26.3 -10.1L-26.3 -9.75L-26.6 -9.3L-26.55 -8.65L-25.75 -7.95L-25.7 -7.45L-25.6 -7.1L-25.45 -6.95L-25.5 -6.8L-25.8 -7L-25.9 -7.85L-26.7 -8.65L-26.7 -9.3L-26.45 -9.8L-26.45 -10Q-26.95 -10.05 -26.95 -10.35L-26.8 -10.55L-27.25 -11.2L-26.9 -11.75L-27.65 -12.2L-28.35 -12L-29.2 -11.7L-28.4 -11.65L-28.35 -11.5L-29.65 -11.2L-29.7 -11.2L-28.5 -11.05Q-27.7 -10.95 -27.7 -10.55L-28.2 -10.15L-29 -9.45L-28.95 -9.25Q-28.75 -8.95 -28.4 -8.95L-27.8 -8.95L-27.8 -8.75L-28.1 -8.6L-28.4 -8.55L-28.45 -8.45L-27.8 -8L-27.8 -7.65L-27.9 -7.5L-28.15 -7.45L-27.95 -7.65L-27.95 -7.95L-28.65 -8.35L-28.4 -8.7L-28 -8.8L-28.55 -8.85L-29.15 -9.25L-29 -9.6L-29.55 -9.35L-30.05 -9L-29.4 -8.2L-29.9 -7.8L-30.85 -7.5L-30.45 -7.45L-30.2 -7.15L-30.35 -7.15L-30.35 -7.2L-31.05 -7.35Q-30.75 -7.7 -30.3 -7.85L-29.55 -8.15L-29.95 -8.65L-30.25 -8.95L-29.85 -9.4L-29.4 -9.5L-29.3 -9.6Q-29.9 -9.9 -30.3 -10.5L-30.3 -10.75Q-29.95 -10.9 -29.95 -11.15L-30 -11.35L-30.1 -11.4L-30.25 -11.3L-30.5 -11.4L-30.9 -11.2L-31.65 -10.45L-31.65 -10.2L-31.2 -9.8L-31.6 -9.25L-32.1 -8.8L-31.55 -8.35L-31.75 -8L-32.05 -7.85L-32 -7L-31.9 -7.2L-31.8 -7.05L-31.85 -7L-32 -7L-32.15 -7L-32.15 -7.85L-31.7 -8.3L-32.05 -8.6L-32.3 -8.75L-31.85 -9.3L-31.35 -9.65Q-31.35 -9.9 -31.5 -10L-31.85 -10.15L-31.1 -11.3L-30.65 -11.45L-31.5 -12L-32.25 -12L-32.05 -11.85L-32.25 -11.7L-32.35 -11.4L-32.25 -11.2L-32.15 -11L-32.45 -10.7L-32.8 -10.25L-32.65 -10.15L-32.8 -9.9L-33 -9.6L-32.9 -8.7L-32.8 -7.85L-32.8 -7.65L-33.4 -7.3L-33.1 -6.8L-33.15 -6.75L-33.55 -7.05L-33.55 -7.35L-32.95 -7.75L-33.1 -8.15L-33.15 -9.55L-33.05 -9.9L-32.8 -10.1L-33 -10.3L-32.8 -10.6L-32.4 -10.85L-32.3 -10.9L-32.55 -11.3L-32.5 -11.55L-32.25 -11.8L-32.8 -12.3Q-32.8 -13 -32.45 -13.3L-32.3 -13.4L-32.15 -13.7L-32.05 -13.95L-32.25 -14L-32.4 -14.35L-31.9 -14.8L-31.5 -15.1L-31.45 -15.2L-31.5 -15.45L-31.15 -16.2L-31 -16.2L-30.95 -16.35L-31.25 -16.65L-31.65 -17L-31.5 -17.1Q-32.1 -17.3 -32.1 -17.8L-32.1 -18L-32.65 -18.45L-32.55 -18.7L-32.6 -19.05L-32.85 -19.35L-33.1 -19.65L-32.6 -20.25L-32.9 -20.9L-33.35 -21.35L-33.35 -21.65L-32.8 -22.3L-33.3 -22.5L-33.3 -22.7L-33 -22.7L-32.75 -22.55L-32.6 -22.3L-32.95 -21.95L-33.25 -21.55L-32.85 -21L-32.4 -20.25L-32.65 -19.9L-32.9 -19.65L-32.65 -19.35L-32.4 -18.9L-32.45 -18.5L-32.1 -18.15L-31.85 -18.95L-31.6 -19.1L-31.65 -20.2L-31.05 -20.8L-30.45 -21.05L-31.45 -21.25Q-31.45 -22 -29.75 -22L-29.7 -22L-30.55 -22.5L-31 -23L-30.95 -23.15L-30.9 -23.2L-30.8 -23.2L-30.85 -23.1Q-30.85 -22.8 -29.5 -22L-30.2 -21.75L-31.25 -21.4L-31.3 -21.35L-30.3 -21.2L-30.2 -21.05L-30.8 -20.7L-31.45 -20.25L-31.45 -19.05L-31.95 -18.45L-31.95 -18.1L-31.75 -18L-31.05 -17.4L-31.1 -17.2L-30.6 -17.2L-30.75 -17.45L-30.9 -17.6L-30.5 -18.25L-29.95 -18.6Q-30.1 -19.3 -29.85 -19.6L-29.2 -19.9L-29.65 -20.6L-29.4 -21.15L-29.2 -21.5Q-29.1 -21.9 -29.4 -22.2L-29.65 -22.55L-29.6 -22.75Q-28.95 -22.15 -29.05 -21.45L-29.5 -20.75L-29.3 -20.25L-29.05 -20L-29.05 -19.8L-29.8 -19.4L-29.8 -18.65L-29.4 -18.85L-28.3 -19.1L-28.5 -19.5L-28.7 -19.7L-28.3 -20.2L-27.7 -20.25L-28.05 -20.55L-28.3 -20.85Q-28.3 -21.2 -27.9 -21.35L-27.45 -21.35L-28.75 -22.7L-28.75 -22.8L-28.65 -22.85L-27.9 -22.1L-27.2 -21.2L-27.65 -21.15L-28.15 -20.95L-27.9 -20.6L-27.55 -20.25Q-27.55 -20.1 -28.1 -20L-28.55 -19.8L-28.1 -19.3L-28.15 -19.1L-29.05 -18.7L-29.95 -18.2L-29.2 -17.8L-28.85 -18.05L-28.15 -18.4L-27.6 -18.95L-27.25 -18.95Q-27.1 -19 -27.1 -19.25L-27.25 -19.7L-26.95 -20.25L-26.95 -21.05L-26.6 -21.3L-26.35 -21.65L-26.4 -22.2L-26.55 -22.4L-26.4 -22.5M-29.1 -17.5L-29.2 -17.45L-28.9 -17.25Q-29.05 -16.9 -29.8 -16.7L-29.4 -16.05L-29.4 -15.75L-29.7 -15.35L-29.7 -15.05L-29.2 -15.1L-29.25 -15.6L-29.05 -16.4L-28.85 -16.95L-28.95 -17.5L-29.1 -17.5M-28.65 -17.25L-28.9 -16.35L-29.1 -15.85L-29.05 -15.75L-27.05 -16.7Q-27.45 -17 -28.8 -17.5L-28.65 -17.25M-29.35 -17.55L-29.3 -17.65L-30.15 -18.15L-30.7 -17.7L-30.55 -17.2L-30.5 -17.2L-29.6 -17.4L-29.35 -17.55M-29.6 -17.25L-30.45 -17L-30.75 -16.35L-30.7 -16.1L-30.85 -16.05L-30.75 -15.4L-30.6 -15.1L-30.2 -15.05L-29.9 -15.05L-29.9 -15.35Q-29.55 -15.7 -29.55 -15.9L-29.75 -16.35L-29.95 -16.7L-29.6 -17.05L-29.15 -17.15L-29.3 -17.4L-29.6 -17.25M-28.65 -14L-29.2 -14.45L-29.4 -14.6L-29.6 -14.5L-28.85 -14.1L-28.65 -14M-29.05 -15.05L-29.1 -15L-28.2 -15.2L-29.05 -15.45L-29.05 -15.05M-29.6 -14.85L-29.5 -14.8L-29.2 -14.95L-29.6 -14.85M-30 -14.85L-30.55 -14.9Q-30.6 -14.55 -31 -14.35Q-31.4 -14.15 -31.4 -13.7Q-31.4 -12.9 -31 -12.65L-30.35 -12.35L-30.95 -12.05L-30.55 -12L-30.15 -11.8L-30.15 -11.55L-30.35 -11.45L-29.9 -11.4L-29.8 -11.25L-29.4 -11.5L-29.2 -11.5L-29.4 -11.7Q-29.4 -11.95 -28.7 -12.1L-27.75 -12.2L-28.85 -12.8L-29.5 -13.4Q-29.5 -13.65 -28.65 -13.8L-28.9 -13.9L-28.9 -13.95L-29.25 -14.1Q-29.75 -14.25 -29.75 -14.45L-29.6 -14.75L-29.8 -14.85L-30 -14.85M-28.05 -13.35L-28.4 -13.65L-28.45 -13.65L-29.25 -13.45L-28.15 -12.65L-28.25 -12.85L-28.15 -13.15L-28.05 -13.35M-31.3 -17.2L-31.25 -17.4Q-31.25 -17.55 -31.9 -17.9Q-31.8 -17.45 -31.35 -17.25L-31.3 -17.2M-30.6 -17L-31.2 -17.05L-31.45 -16.9L-31 -16.7L-30.9 -16.55L-30.8 -16.65L-30.6 -17M-31 -15.95L-31 -16.05L-31.35 -15.8L-31.35 -15.4L-31.3 -15.15L-30.75 -15.1L-30.75 -15.2L-30.95 -15.5L-31 -15.95M-31 -14.9L-31.85 -14.05L-31.85 -14L-31.8 -13.95L-31.8 -13.65L-32.25 -13.25L-32.35 -13.15L-32.55 -12.4Q-32.55 -12.1 -31.85 -12.25L-31.1 -11.95L-30.9 -12.3L-30.65 -12.35Q-31.5 -12.8 -31.6 -13.55L-31.25 -14.45L-30.75 -14.8L-30.75 -14.9L-31 -14.9M-31.35 -14.9L-31.65 -14.65L-32.25 -14.4L-32.05 -14.15L-31.9 -14.1L-31.25 -14.9L-31.35 -14.9M-31.95 -13.65L-31.95 -13.85L-32.25 -13.45L-31.95 -13.65M-30.9 -11.85L-30.5 -11.55L-30.35 -11.65L-30.65 -11.9L-31 -11.85L-30.9 -11.85M-30.35 -11.45L-30.3 -11.45L-30.15 -11.55M-30.1 -10.4L-28.95 -9.6L-28.5 -10.1L-27.9 -10.5L-27.85 -10.55L-28.85 -10.9L-29.8 -11.1L-30.1 -10.75L-30.1 -10.4" />
</g>
<g id="PathID_4622" transform="matrix(1, 0, 0, 1, 36.1, 36.85)">
<path style="fill:#FCFCFC;fill-opacity:0.239216" d="M-24.35 -6.85Q-24.35 -6.35 -25.1 -6.35L-34.15 -6.35Q-34.95 -6.35 -34.95 -6.85L-34.95 -22.6Q-34.95 -23.15 -34.15 -23.15L-25.1 -23.15Q-24.35 -23.15 -24.35 -22.6L-24.35 -6.85" />
<path style="fill:none;stroke-width:0.7;stroke-linecap:round;stroke-linejoin:round;stroke-miterlimit:3;stroke:#000000;stroke-opacity:0.4" d="M-24.35 -6.85Q-24.35 -6.35 -25.1 -6.35L-34.15 -6.35Q-34.95 -6.35 -34.95 -6.85L-34.95 -22.6Q-34.95 -23.15 -34.15 -23.15L-25.1 -23.15Q-24.35 -23.15 -24.35 -22.6L-24.35 -6.85z" />
</g>
<g id="PathID_4623" transform="matrix(1, 0, 0, 1, 36.1, 36.85)">
<path style="fill:#6C8C8B;fill-opacity:0.301961" d="M-27.85 -6.8Q-28.55 -6.8 -28.55 -7.35L-28.55 -21.9Q-28.55 -22.45 -27.85 -22.45L-26.1 -22.45Q-25.4 -22.45 -25.4 -21.9L-25.4 -7.35Q-25.4 -6.8 -26.1 -6.8L-27.85 -6.8" />
</g>
<g id="PathID_4624" transform="matrix(1, 0, 0, 1, 36.1, 36.85)">
<path style="fill:#EEFFFE;fill-opacity:0.611765" d="M-33.1 -20.6L-33.1 -19.7L-33.25 -19.45L-33.65 -19.3Q-33.85 -19.3 -34.05 -19.45L-34.2 -19.7L-34.2 -20.6L-34.05 -20.9L-33.65 -21.05L-33.25 -20.9L-33.1 -20.6M-34.1 -18.15L-33.65 -18.25L-33.25 -18.15L-33.1 -17.85L-33.1 -8.8L-33.25 -8.5L-33.65 -8.35L-34.1 -8.5L-34.25 -8.8L-34.25 -17.85L-34.1 -18.15" />
</g>
<g id="PathID_4625" transform="matrix(1, 0, 0, 1, 36.1, 36.85)">
<path style="fill:#BFBFBF;fill-opacity:1" d="M-32 -26.05L-31.8 -25.65Q-31.8 -25.15 -33.05 -24.75Q-33.75 -24.75 -33.45 -25.4Q-33.15 -26.1 -32.25 -26.1L-32 -26.05" />
<path style="fill:#838383;fill-opacity:1" d="M-32.25 -26.1Q-33.15 -26.1 -33.45 -25.4Q-33.75 -24.75 -33.05 -24.75Q-31.8 -25.15 -31.8 -25.65L-32 -26.05L-32.25 -26.1M-31.9 -24.5L-34.3 -24.5Q-33.8 -25.9 -32.2 -26.5L-29.95 -26.5Q-28.8 -25.35 -31.9 -24.5" />
<path style="fill:#585858;fill-opacity:1" d="M-31.9 -24.5Q-28.8 -25.35 -29.95 -26.5L-27.65 -26.5Q-26.4 -26.15 -25.5 -24.5L-31.9 -24.5" />
<path style="fill:none;stroke-width:0.7;stroke-linecap:round;stroke-linejoin:round;stroke-miterlimit:3;stroke:#000000;stroke-opacity:0.4" d="M-29.95 -26.5L-32.2 -26.5Q-33.8 -25.9 -34.3 -24.5L-31.9 -24.5" />
<path style="fill:none;stroke-width:0.7;stroke-linecap:round;stroke-linejoin:round;stroke-miterlimit:3;stroke:#000000;stroke-opacity:0.4" d="M-29.95 -26.5L-27.65 -26.5Q-26.4 -26.15 -25.5 -24.5L-31.9 -24.5" />
</g>
<g id="PathID_4626" transform="matrix(1, 0, 0, 1, 36.1, 36.85)">
<path style="fill:#585858;fill-opacity:1" d="M-29.85 -24.55L-24.35 -24.55Q-23.45 -24.55 -23.45 -23.9L-23.45 -22.85Q-23.45 -22.15 -24.35 -22.15L-33.3 -22.15Q-26.85 -22.95 -29.85 -24.55" />
<path style="fill:#BFBFBF;fill-opacity:1" d="M-32.5 -24.15L-31.35 -23.9Q-34.25 -23.7 -34.75 -23.15L-35.4 -22.6Q-35.7 -22.6 -35.75 -23.2L-35.5 -23.95L-34.8 -24.1L-33.35 -24.2L-32.5 -24.15" />
<path style="fill:#838383;fill-opacity:1" d="M-33.3 -22.15L-35.3 -22.15Q-36.1 -22.15 -36.1 -22.85L-36.1 -23.9Q-36.1 -24.55 -35.3 -24.55L-29.85 -24.55Q-26.85 -22.95 -33.3 -22.15M-33.35 -24.2L-34.8 -24.1L-35.5 -23.95L-35.75 -23.2Q-35.7 -22.6 -35.4 -22.6L-34.75 -23.15Q-34.25 -23.7 -31.35 -23.9L-32.5 -24.15L-33.35 -24.2" />
<path style="fill:none;stroke-width:0.7;stroke-linecap:round;stroke-linejoin:round;stroke-miterlimit:3;stroke:#000000;stroke-opacity:0.4" d="M-29.85 -24.55L-24.35 -24.55Q-23.45 -24.55 -23.45 -23.9L-23.45 -22.85Q-23.45 -22.15 -24.35 -22.15L-33.3 -22.15L-35.3 -22.15Q-36.1 -22.15 -36.1 -22.85L-36.1 -23.9Q-36.1 -24.55 -35.3 -24.55L-29.85 -24.55z" />
</g>
<g id="PathID_4627" transform="matrix(1, 0, 0, 1, 36.1, 36.85)">
<path style="fill:#838383;fill-opacity:1" d="M-29.7 -4.45L-31.95 -4.45Q-33.55 -5.05 -34.05 -6.45L-31.65 -6.45Q-28.55 -5.6 -29.7 -4.45M-32 -4.85L-31.75 -4.9L-31.55 -5.3Q-31.55 -5.8 -32.8 -6.2Q-33.5 -6.2 -33.2 -5.55Q-32.9 -4.85 -32 -4.85" />
<path style="fill:#BFBFBF;fill-opacity:1" d="M-33.2 -5.55Q-33.5 -6.2 -32.8 -6.2Q-31.55 -5.8 -31.55 -5.3L-31.75 -4.9L-32 -4.85Q-32.9 -4.85 -33.2 -5.55" />
<path style="fill:#585858;fill-opacity:1" d="M-31.65 -6.45L-25.25 -6.45Q-26.15 -4.8 -27.4 -4.45L-29.7 -4.45Q-28.55 -5.6 -31.65 -6.45" />
<path style="fill:none;stroke-width:0.7;stroke-linecap:round;stroke-linejoin:round;stroke-miterlimit:3;stroke:#000000;stroke-opacity:0.4" d="M-29.7 -4.45L-31.95 -4.45Q-33.55 -5.05 -34.05 -6.45L-31.65 -6.45L-25.25 -6.45Q-26.15 -4.8 -27.4 -4.45L-29.7 -4.45z" />
</g>
<g id="PathID_4628" transform="matrix(1, 0, 0, 1, 36.1, 36.85)">
<path style="fill:#838383;fill-opacity:1" d="M-33.1 -6.75L-32.25 -6.8L-31.1 -7.05Q-34 -7.25 -34.5 -7.8L-35.15 -8.35Q-35.45 -8.35 -35.5 -7.75L-35.25 -7L-34.55 -6.85L-33.1 -6.75M-29.6 -6.4L-35.05 -6.4Q-35.85 -6.4 -35.85 -7.05L-35.85 -8.1Q-35.85 -8.8 -35.05 -8.8L-33.05 -8.8Q-26.6 -8 -29.6 -6.4" />
<path style="fill:#BFBFBF;fill-opacity:1" d="M-34.55 -6.85L-35.25 -7L-35.5 -7.75Q-35.45 -8.35 -35.15 -8.35L-34.5 -7.8Q-34 -7.25 -31.1 -7.05L-32.25 -6.8L-33.1 -6.75L-34.55 -6.85" />
<path style="fill:#585858;fill-opacity:1" d="M-29.6 -6.4Q-26.6 -8 -33.05 -8.8L-24.1 -8.8Q-23.2 -8.8 -23.2 -8.1L-23.2 -7.05Q-23.2 -6.4 -24.1 -6.4L-29.6 -6.4" />
<path style="fill:none;stroke-width:0.7;stroke-linecap:round;stroke-linejoin:round;stroke-miterlimit:3;stroke:#000000;stroke-opacity:0.4" d="M-33.05 -8.8L-35.05 -8.8Q-35.85 -8.8 -35.85 -8.1L-35.85 -7.05Q-35.85 -6.4 -35.05 -6.4L-29.6 -6.4" />
<path style="fill:none;stroke-width:0.7;stroke-linecap:round;stroke-linejoin:round;stroke-miterlimit:3;stroke:#000000;stroke-opacity:0.4" d="M-33.05 -8.8L-24.1 -8.8Q-23.2 -8.8 -23.2 -8.1L-23.2 -7.05Q-23.2 -6.4 -24.1 -6.4L-29.6 -6.4" />
</g>
<g id="PathID_4629" transform="matrix(1, 0, 0, 1, 36.1, 36.85)">
<path style="fill:#838383;fill-opacity:1" d="M-33.35 -32.7L-32.3 -33.7L-30.85 -34.25Q-29.85 -34.5 -29.85 -34.65L-30.1 -34.9Q-31.2 -35.15 -32.45 -34.25Q-33.6 -33.5 -33.6 -32.95L-33.35 -32.7M-34.4 -31.1L-34.15 -30.85Q-33.9 -30.85 -33.75 -31.2L-33.65 -31.7Q-33.65 -32.2 -34 -31.85Q-34.4 -31.55 -34.4 -31.1M-34.35 -28.4Q-34.85 -29.35 -34.85 -30.5Q-34.85 -32.5 -33.45 -33.95Q-32 -35.35 -30 -35.35Q-28 -35.35 -26.6 -33.95L-26.5 -33.85Q-25.95 -32.15 -26.8 -31.85Q-27.05 -32.55 -27.6 -33.05Q-28.05 -33.5 -28.55 -33.75L-30 -34.05Q-31.45 -34.05 -32.45 -33.05Q-33.4 -32.1 -33.45 -30.65L-33.45 -30.6Q-33.45 -29.25 -32.55 -28.3L-32.45 -28.2L-31.85 -27.7Q-33.1 -27.25 -34.35 -28.4" />
<path style="fill:#BFBFBF;fill-opacity:1" d="M-33.6 -32.95Q-33.6 -33.5 -32.45 -34.25Q-31.2 -35.15 -30.1 -34.9L-29.85 -34.65Q-29.85 -34.5 -30.85 -34.25L-32.3 -33.7L-33.35 -32.7L-33.6 -32.95M-34 -31.85Q-33.65 -32.2 -33.65 -31.7L-33.75 -31.2Q-33.9 -30.85 -34.15 -30.85L-34.4 -31.1Q-34.4 -31.55 -34 -31.85" />
<radialGradient
id="RadialGradID_2035" gradientUnits="userSpaceOnUse" gradientTransform="matrix(0.00457764, 0, 0, 0.00457764, -30.7, -32.95)" spreadMethod ="pad" cx="0" cy="0" r="819.2" fx="0" fy="0" >
<stop  offset="0"  style="stop-color:#E0C2FF;stop-opacity:1" />
<stop  offset="1"  style="stop-color:#9358CD;stop-opacity:1" />
</radialGradient>
<path style="fill:url(#RadialGradID_2035) " d="M-31.9 -31.6Q-30.85 -31.6 -30.1 -33.3Q-30.1 -33.55 -30.6 -33.55Q-31.45 -33.55 -31.9 -32.95L-32.25 -32.05Q-32.25 -31.6 -31.9 -31.6M-32.75 -30.55L-32.5 -30.35L-32.15 -30.8L-32.45 -31.05L-32.8 -30.75L-32.75 -30.55M-29.4 -29.15Q-32.1 -28.4 -33.45 -30.65Q-33.4 -32.1 -32.45 -33.05Q-31.45 -34.05 -30 -34.05L-28.55 -33.75Q-28.05 -33.5 -27.6 -33.05Q-26.7 -29.95 -29.4 -29.15" />
<path style="fill:#E9D4FF;fill-opacity:1" d="M-32.25 -32.05L-31.9 -32.95Q-31.45 -33.55 -30.6 -33.55Q-30.1 -33.55 -30.1 -33.3Q-30.85 -31.6 -31.9 -31.6Q-32.25 -31.6 -32.25 -32.05M-32.8 -30.75L-32.45 -31.05L-32.15 -30.8L-32.5 -30.35L-32.75 -30.55L-32.8 -30.75" />
<path style="fill:#47206D;fill-opacity:1" d="M-27.6 -33.05Q-27.05 -32.55 -26.8 -31.85L-26.55 -30.6Q-26.55 -29.2 -27.6 -28.2Q-28.6 -27.15 -30 -27.15Q-31.05 -27.15 -31.85 -27.7L-32.45 -28.2L-32.55 -28.3Q-33.45 -29.25 -33.45 -30.6L-33.45 -30.65Q-32.1 -28.4 -29.4 -29.15Q-26.7 -29.95 -27.6 -33.05M-27 -30.1L-27.1 -30.1L-27.85 -29.2L-28.45 -28.5L-28.4 -28.4L-28.25 -28.35Q-27.85 -28.35 -27.4 -29L-27 -30.1M-29.25 -28.25L-30.2 -28.05L-30.3 -27.65L-29.9 -27.65L-29.25 -28L-29.25 -28.25" />
<path style="fill:#585858;fill-opacity:1" d="M-34.35 -28.4Q-33.1 -27.25 -31.85 -27.7Q-31.05 -27.15 -30 -27.15Q-28.6 -27.15 -27.6 -28.2Q-26.55 -29.2 -26.55 -30.6L-26.8 -31.85Q-25.95 -32.15 -26.5 -33.85L-26.4 -33.75Q-25.15 -32.4 -25.15 -30.5Q-25.15 -28.5 -26.6 -27.1Q-28 -25.65 -30 -25.65Q-31.1 -25.65 -32 -26.1Q-32.8 -26.45 -33.45 -27.1L-34.35 -28.4" />
<path style="fill:#7F619C;fill-opacity:1" d="M-27.4 -29Q-27.85 -28.35 -28.25 -28.35L-28.4 -28.4L-28.45 -28.5L-27.85 -29.2L-27.1 -30.1L-27 -30.1L-27.4 -29M-29.25 -28L-29.9 -27.65L-30.3 -27.65L-30.2 -28.05L-29.25 -28.25L-29.25 -28" />
<path style="fill:none;stroke-width:0.7;stroke-linecap:round;stroke-linejoin:round;stroke-miterlimit:3;stroke:#000000;stroke-opacity:0.4" d="M-31.85 -27.7L-32.45 -28.2L-32.55 -28.3Q-33.45 -29.25 -33.45 -30.6L-33.45 -30.65Q-33.4 -32.1 -32.45 -33.05Q-31.45 -34.05 -30 -34.05L-28.55 -33.75Q-28.05 -33.5 -27.6 -33.05Q-27.05 -32.55 -26.8 -31.85" />
<path style="fill:none;stroke-width:0.7;stroke-linecap:round;stroke-linejoin:round;stroke-miterlimit:3;stroke:#000000;stroke-opacity:0.4" d="M-26.5 -33.85L-26.6 -33.95Q-28 -35.35 -30 -35.35Q-32 -35.35 -33.45 -33.95Q-34.85 -32.5 -34.85 -30.5Q-34.85 -29.35 -34.35 -28.4" />
<path style="fill:none;stroke-width:0.7;stroke-linecap:round;stroke-linejoin:round;stroke-miterlimit:3;stroke:#000000;stroke-opacity:0.4" d="M-31.85 -27.7Q-31.05 -27.15 -30 -27.15Q-28.6 -27.15 -27.6 -28.2Q-26.55 -29.2 -26.55 -30.6L-26.8 -31.85" />
<path style="fill:none;stroke-width:0.7;stroke-linecap:round;stroke-linejoin:round;stroke-miterlimit:3;stroke:#000000;stroke-opacity:0.4" d="M-26.5 -33.85L-26.4 -33.75Q-25.15 -32.4 -25.15 -30.5Q-25.15 -28.5 -26.6 -27.1Q-28 -25.65 -30 -25.65Q-31.1 -25.65 -32 -26.1Q-32.8 -26.45 -33.45 -27.1L-34.35 -28.4" />
</g>
<g id="PathID_4630" transform="matrix(1, 0, 0, 1, 36.1, 36.85)">
<radialGradient
id="RadialGradID_2036" gradientUnits="userSpaceOnUse" gradientTransform="matrix(0, 0.0102997, -0.00830078, 0, 30.7, 15.6)" spreadMethod ="pad" cx="0" cy="0" r="819.2" fx="0" fy="0" >
<stop  offset="0"  style="stop-color:#FFFFFF;stop-opacity:1" />
<stop  offset="0.32549"  style="stop-color:#FBE0FF;stop-opacity:1" />
<stop  offset="1"  style="stop-color:#AA3DD2;stop-opacity:1" />
</radialGradient>
<path style="fill:url(#RadialGradID_2036) " d="M28.25 23.55L28.1 23.55L28.1 22.7L28.55 22.25L28.2 21.95L27.95 21.8L28.4 21.25L28.9 20.9L28.75 20.55L28.4 20.4Q28.7 19.55 29.15 19.25L29.6 19.1L28.75 18.55L28 18.55L28.2 18.7L28 18.85L27.9 19.15L28 19.35L28.1 19.55L27.8 19.85Q27.45 20 27.45 20.3L27.6 20.4L27.45 20.65L27.25 20.95L27.35 21.85L27.45 22.7L27.45 22.9L26.85 23.25L27.15 23.75L27.1 23.8L26.7 23.5L26.7 23.2L27.3 22.8L27.15 22.4L27.1 21L27.2 20.65L27.45 20.45L27.25 20.25L27.45 19.95L27.85 19.7L27.95 19.65L27.7 19.25L27.75 19L28 18.75L27.45 18.25Q27.45 17.55 27.8 17.25L27.95 17.15L28.1 16.85L28.2 16.6L28 16.55Q27.85 16.45 27.85 16.2L28.35 15.75L28.75 15.45L28.8 15.35L28.75 15.1Q28.8 14.5 29.1 14.35L29.25 14.35L29.3 14.2L29 13.9L28.6 13.55L28.75 13.45Q28.15 13.25 28.15 12.75L28.15 12.55L27.6 12.1L27.7 11.85L27.65 11.5L27.4 11.2L27.15 10.9L27.65 10.3L27.35 9.65L26.9 9.2L26.9 8.9L27.45 8.25L26.95 8.05L26.95 7.85L27.25 7.85L27.5 8L27.65 8.25L27.3 8.6L27 9L27.4 9.55L27.85 10.3L27.6 10.65L27.35 10.9L27.6 11.2L27.85 11.65L27.8 12.05L28.15 12.4Q28.2 11.8 28.4 11.6L28.65 11.45L28.6 10.35Q28.85 9.9 29.2 9.75L29.8 9.5L28.8 9.3Q28.8 8.55 30.5 8.55L30.55 8.55L29.7 8.05L29.25 7.55L29.3 7.4L29.35 7.35L29.45 7.35L29.4 7.45L30.75 8.55L30.05 8.8L29 9.15L28.95 9.2L29.95 9.35L30.05 9.5L29.45 9.85Q29 10.05 28.8 10.3L28.8 11.5L28.3 12.1L28.3 12.45L28.5 12.55L29.2 13.15L29.15 13.35L29.65 13.35L29.5 13.1L29.35 12.95Q29.35 12.6 29.75 12.3L30.3 11.95Q30.15 11.25 30.4 10.95Q30.55 10.8 31.05 10.65L30.6 9.95L30.85 9.4L31.05 9.05Q31.15 8.65 30.85 8.35L30.6 8L30.65 7.8Q31.3 8.4 31.2 9.1Q30.75 9.55 30.75 9.8L30.95 10.3L31.2 10.55L31.2 10.75Q30.6 10.95 30.45 11.15L30.45 11.9L30.85 11.7L31.95 11.45L31.75 11.05L31.55 10.85Q31.55 10.45 31.95 10.35L32.55 10.3L32.2 10L31.95 9.7Q31.95 9.35 32.35 9.2L32.8 9.2L31.5 7.85L31.5 7.75L31.6 7.7L32.35 8.45L33.05 9.35L32.6 9.4Q32.3 9.45 32.1 9.6L32.35 9.95L32.7 10.3L32.15 10.55L31.7 10.75L32.15 11.25L32.1 11.45L31.2 11.85Q30.6 12.05 30.3 12.35L31.05 12.75Q31.15 12.6 31.4 12.5L32.1 12.15L32.65 11.6L33 11.6L33.15 11.3L33 10.85L33.3 10.3L33.3 9.5L33.65 9.25L33.9 8.9L33.85 8.35L33.7 8.15L33.85 8.05Q34.05 8.2 34.05 8.9Q34.05 9.3 33.45 9.55L33.3 10.45L33.15 10.8L33.25 11.1L33.35 11.35L32.15 12.3L31.55 12.65L31.2 12.85L31.6 13L32.95 13.5Q33.65 13.75 32.9 14.15L31.3 14.9L31.8 15.15L32.2 15.3L31.6 15.65L31 15.9L31.2 16Q31.8 16.4 31.8 16.65L31.85 16.7L32.1 16.8L32.35 17.2L32.25 17.55L32.15 17.65L32.75 18.3L32.8 18.3L33.55 18.7L33.15 19.15Q33.1 19.45 33.4 19.7L33.65 20L33.45 20.25L33.95 20.45L33.95 20.8L33.65 21.25L33.7 21.9L34.5 22.6L34.55 23.1L34.65 23.45L34.8 23.6L34.75 23.75L34.45 23.55L34.35 22.7L33.55 21.9L33.55 21.25L33.8 20.75L33.8 20.55Q33.3 20.5 33.3 20.2L33.45 20L33 19.35Q33.1 19 33.35 18.8L32.6 18.35L31.9 18.55L31.05 18.85L31.85 18.9L31.9 19.05L30.6 19.35L30.55 19.35L31.75 19.5Q32.55 19.6 32.55 20L32.05 20.4L31.25 21.1L31.3 21.3Q31.5 21.6 31.85 21.6L32.45 21.6L32.45 21.8L32.15 21.95L31.85 22L31.8 22.1L32.45 22.55L32.45 22.9L32.35 23.05L32.1 23.1L32.3 22.9L32.3 22.6L31.6 22.2Q31.6 21.95 31.85 21.85L32.25 21.75L31.7 21.7L31.1 21.3L31.25 20.95L30.7 21.2L30.2 21.55L30.85 22.35L30.35 22.75L29.4 23.05L29.8 23.1L30.05 23.4L29.9 23.4L29.9 23.35L29.2 23.2Q29.5 22.85 29.95 22.7L30.7 22.4L30.3 21.9L30 21.6Q30 21.3 30.4 21.15L30.85 21.05L30.95 20.95L29.95 20.05L29.95 19.8L30.3 19.4L30.25 19.2L30.15 19.15L30 19.25L29.75 19.15L29.35 19.35Q28.9 19.55 28.6 20.1L28.6 20.35L29.05 20.75L28.65 21.3L28.15 21.75L28.7 22.2L28.5 22.55L28.2 22.7L28.25 23.55M29.65 13.55L29.05 13.5L28.8 13.65L29.25 13.85L29.35 14L29.45 13.9L29.65 13.55M29.75 13.35L30.65 13.15L30.9 13L30.95 12.9Q30.1 12.55 30.1 12.4L29.55 12.85L29.7 13.35L29.75 13.35M28.95 13.35L29 13.15L28.35 12.65Q28.45 13.1 28.9 13.3L28.95 13.35M28.95 15.4L29.5 15.45L29.5 15.35L29.3 15.05L29.25 14.6L29.25 14.5L28.9 14.75L28.9 15.15L28.95 15.4M29.4 14.5L29.5 15.15L29.65 15.45L30.05 15.5L30.35 15.5L30.35 15.2L30.7 14.65L30.5 14.2L30.3 13.85Q30.3 13.55 30.65 13.5L31.1 13.4L30.95 13.15L30.65 13.3L29.8 13.55L29.5 14.2L29.55 14.45L29.4 14.5M29.25 16.2Q28.85 16.4 28.85 16.85Q28.85 17.65 29.25 17.9L29.9 18.2L29.3 18.5L29.7 18.55Q30 18.55 30.1 18.75L30.1 19L29.9 19.1L30.35 19.15L30.45 19.3Q30.6 19.1 30.85 19.05L31.05 19.05L30.85 18.85Q30.85 18.6 31.55 18.45L32.5 18.35L31.4 17.75Q30.75 17.4 30.75 17.15Q30.75 16.9 31.6 16.75L31.35 16.65L31.35 16.6L31 16.45Q30.5 16.3 30.5 16.1L30.65 15.8L30.45 15.7L30.25 15.7L29.7 15.65L29.25 16.2M29.25 15.65Q29.05 15.65 28.4 16.5L28.4 16.55L28.45 16.6L28.45 16.9L28 17.3L27.9 17.4L27.7 18.15L28.4 18.3Q28.65 18.3 29.15 18.6L29.35 18.25L29.6 18.2Q28.75 17.75 28.65 17Q28.75 16.2 29 16.1L29.5 15.75L29.5 15.65L29.25 15.65M28.6 15.9L28 16.15L28.2 16.4L28.35 16.45L29 15.65L28.9 15.65L28.6 15.9M28.3 16.7L28 17.1L28.3 16.9L28.3 16.7M29.9 19.1L29.95 19.1L30.1 19M29.9 18.9L29.6 18.65L29.25 18.7L29.35 18.7L29.75 19L29.9 18.9M30.15 20.15L31.3 20.95L31.75 20.45L32.35 20.05L32.4 20L31.4 19.65L30.45 19.45L30.15 19.8L30.15 20.15M31.05 13.1L31.35 13.3L30.45 13.85L30.85 14.5L30.85 14.8L30.55 15.2L30.55 15.5L31.05 15.45L31 14.95L31.2 14.15L31.4 13.6L31.3 13.05L31.15 13.05L31.05 13.1M31.6 13.3L31.35 14.2L31.15 14.7L31.2 14.8Q31.4 14.5 33.2 13.85L31.45 13.05L31.6 13.3M31.2 15.1L31.2 15.5L31.15 15.55L32.05 15.35L31.2 15.1M31.8 16.9L31 17.1L32.1 17.9L32 17.7L32.1 17.4L32.2 17.2L31.85 16.9L31.8 16.9M30.65 16.05Q30.8 16.25 31.4 16.45L31.6 16.55L31.05 16.1L30.85 15.95L30.65 16.05M30.75 15.75L31.05 15.6L30.65 15.7L30.75 15.75" />
<radialGradient
id="RadialGradID_2037" gradientUnits="userSpaceOnUse" gradientTransform="matrix(0, 0.0102997, -0.00830078, 0, 30.7, 15.6)" spreadMethod ="pad" cx="0" cy="0" r="819.2" fx="0" fy="0" >
<stop  offset="0"  style="stop-color:#FFFFFF;stop-opacity:1" />
<stop  offset="0.32549"  style="stop-color:#E0FFFE;stop-opacity:1" />
<stop  offset="1"  style="stop-color:#3DCDD2;stop-opacity:1" />
</radialGradient>
<path style="fill:url(#RadialGradID_2037) " d="M28.25 23.55L28.35 23.35L28.45 23.5L28.4 23.55L28.25 23.55" />
</g>
<g id="PathID_4631" transform="matrix(1, 0, 0, 1, 36.1, 36.85)">
<path style="fill:#FCFCFC;fill-opacity:0.239216" d="M26.1 7.4L35.15 7.4Q35.9 7.4 35.9 7.95L35.9 23.7Q35.9 24.2 35.15 24.2L26.1 24.2Q25.3 24.2 25.3 23.7L25.3 7.95Q25.3 7.4 26.1 7.4" />
<path style="fill:none;stroke-width:0.7;stroke-linecap:round;stroke-linejoin:round;stroke-miterlimit:3;stroke:#000000;stroke-opacity:0.4" d="M26.1 7.4L35.15 7.4Q35.9 7.4 35.9 7.95L35.9 23.7Q35.9 24.2 35.15 24.2L26.1 24.2Q25.3 24.2 25.3 23.7L25.3 7.95Q25.3 7.4 26.1 7.4z" />
</g>
<g id="PathID_4632" transform="matrix(1, 0, 0, 1, 36.1, 36.85)">
<path style="fill:#6C8C8B;fill-opacity:0.301961" d="M32.4 8.1L34.15 8.1Q34.85 8.1 34.85 8.65L34.85 23.2Q34.85 23.75 34.15 23.75L32.4 23.75Q31.7 23.75 31.7 23.2L31.7 8.65Q31.7 8.1 32.4 8.1" />
</g>
<g id="PathID_4633" transform="matrix(1, 0, 0, 1, 36.1, 36.85)">
<path style="fill:#EEFFFE;fill-opacity:0.611765" d="M27 9.65L27.15 9.95L27.15 10.85L27 11.1L26.6 11.25L26.2 11.1L26.05 10.85L26.05 9.95L26.2 9.65L26.6 9.5L27 9.65M26 12.7L26.15 12.4L26.6 12.3L27 12.4L27.15 12.7L27.15 21.75L27 22.05L26.6 22.2L26.15 22.05L26 21.75L26 12.7" />
</g>
<g id="PathID_4634" transform="matrix(1, 0, 0, 1, 36.1, 36.85)">
<path style="fill:#585858;fill-opacity:1" d="M30.5 4.05L32.8 4.05Q34.05 4.4 34.95 6.05L28.55 6.05Q31.65 5.2 30.5 4.05" />
<path style="fill:#BFBFBF;fill-opacity:1" d="M28.65 4.9Q28.65 5.4 27.4 5.8Q26.7 5.8 27 5.15Q27.3 4.45 28.2 4.45L28.45 4.5L28.65 4.9" />
<path style="fill:#838383;fill-opacity:1" d="M30.5 4.05Q31.65 5.2 28.55 6.05L26.15 6.05Q26.65 4.65 28.25 4.05L30.5 4.05M28.45 4.5L28.2 4.45Q27.3 4.45 27 5.15Q26.7 5.8 27.4 5.8Q28.65 5.4 28.65 4.9L28.45 4.5" />
<path style="fill:none;stroke-width:0.7;stroke-linecap:round;stroke-linejoin:round;stroke-miterlimit:3;stroke:#000000;stroke-opacity:0.4" d="M28.55 6.05L34.95 6.05Q34.05 4.4 32.8 4.05L30.5 4.05" />
<path style="fill:none;stroke-width:0.7;stroke-linecap:round;stroke-linejoin:round;stroke-miterlimit:3;stroke:#000000;stroke-opacity:0.4" d="M28.55 6.05L26.15 6.05Q26.65 4.65 28.25 4.05L30.5 4.05" />
</g>
<g id="PathID_4635" transform="matrix(1, 0, 0, 1, 36.1, 36.85)">
<path style="fill:#585858;fill-opacity:1" d="M30.45 6.05L35.95 6.05Q36.85 6.05 36.85 6.7L36.85 7.75Q36.85 8.45 35.95 8.45L27 8.45Q33.45 7.65 30.45 6.05" />
<path style="fill:#BFBFBF;fill-opacity:1" d="M24.55 7.4Q24.55 6.85 24.8 6.65L25.5 6.5L26.95 6.4L27.8 6.45L28.95 6.7Q26.05 6.9 25.55 7.45L24.9 8Q24.6 8 24.55 7.4" />
<path style="fill:#838383;fill-opacity:1" d="M27 8.45L25 8.45Q24.2 8.45 24.2 7.75L24.2 6.7Q24.2 6.05 25 6.05L30.45 6.05Q33.45 7.65 27 8.45M24.9 8L25.55 7.45Q26.05 6.9 28.95 6.7L27.8 6.45L26.95 6.4L25.5 6.5L24.8 6.65Q24.55 6.85 24.55 7.4Q24.6 8 24.9 8" />
<path style="fill:none;stroke-width:0.7;stroke-linecap:round;stroke-linejoin:round;stroke-miterlimit:3;stroke:#000000;stroke-opacity:0.4" d="M30.45 6.05L35.95 6.05Q36.85 6.05 36.85 6.7L36.85 7.75Q36.85 8.45 35.95 8.45L27 8.45L25 8.45Q24.2 8.45 24.2 7.75L24.2 6.7Q24.2 6.05 25 6.05L30.45 6.05z" />
</g>
<g id="PathID_4636" transform="matrix(1, 0, 0, 1, 36.1, 36.85)">
<path style="fill:#585858;fill-opacity:1" d="M28.95 24.2L35.35 24.2Q34.45 25.85 33.2 26.2L30.9 26.2Q32.05 25.05 28.95 24.2" />
<path style="fill:#838383;fill-opacity:1" d="M30.9 26.2L28.65 26.2Q27.05 25.6 26.55 24.2L28.95 24.2Q32.05 25.05 30.9 26.2M29.05 25.35Q29.05 24.85 27.8 24.45Q27.1 24.45 27.4 25.1Q27.7 25.8 28.6 25.8L28.85 25.75L29.05 25.35" />
<path style="fill:#BFBFBF;fill-opacity:1" d="M28.85 25.75L28.6 25.8Q27.7 25.8 27.4 25.1Q27.1 24.45 27.8 24.45Q29.05 24.85 29.05 25.35L28.85 25.75" />
<path style="fill:none;stroke-width:0.7;stroke-linecap:round;stroke-linejoin:round;stroke-miterlimit:3;stroke:#000000;stroke-opacity:0.4" d="M28.95 24.2L35.35 24.2Q34.45 25.85 33.2 26.2L30.9 26.2L28.65 26.2Q27.05 25.6 26.55 24.2L28.95 24.2z" />
</g>
<g id="PathID_4637" transform="matrix(1, 0, 0, 1, 36.1, 36.85)">
<path style="fill:#838383;fill-opacity:1" d="M24.9 23.65L25.6 23.8L27.05 23.9L27.9 23.85L29.05 23.6Q26.15 23.4 25.65 22.85Q25.15 22.3 25 22.3Q24.7 22.3 24.65 22.9Q24.65 23.45 24.9 23.65M30.55 24.25L25.1 24.25Q24.3 24.25 24.3 23.6L24.3 22.55Q24.3 21.85 25.1 21.85L27.1 21.85Q33.55 22.65 30.55 24.25" />
<path style="fill:#BFBFBF;fill-opacity:1" d="M24.65 22.9Q24.7 22.3 25 22.3Q25.15 22.3 25.65 22.85Q26.15 23.4 29.05 23.6L27.9 23.85L27.05 23.9L25.6 23.8L24.9 23.65Q24.65 23.45 24.65 22.9" />
<path style="fill:#585858;fill-opacity:1" d="M30.55 24.25Q33.55 22.65 27.1 21.85L36.05 21.85Q36.95 21.85 36.95 22.55L36.95 23.6Q36.95 24.25 36.05 24.25L30.55 24.25" />
<path style="fill:none;stroke-width:0.7;stroke-linecap:round;stroke-linejoin:round;stroke-miterlimit:3;stroke:#000000;stroke-opacity:0.4" d="M27.1 21.85L25.1 21.85Q24.3 21.85 24.3 22.55L24.3 23.6Q24.3 24.25 25.1 24.25L30.55 24.25" />
<path style="fill:none;stroke-width:0.7;stroke-linecap:round;stroke-linejoin:round;stroke-miterlimit:3;stroke:#000000;stroke-opacity:0.4" d="M27.1 21.85L36.05 21.85Q36.95 21.85 36.95 22.55L36.95 23.6Q36.95 24.25 36.05 24.25L30.55 24.25" />
</g>
<g id="PathID_4638" transform="matrix(1, 0, 0, 1, 36.1, 36.85)">
<radialGradient
id="RadialGradID_2038" gradientUnits="userSpaceOnUse" gradientTransform="matrix(0.0134888, 0, 0, 0.0105133, 12.2, 29.2)" spreadMethod ="pad" cx="0" cy="0" r="819.2" fx="0" fy="0" >
<stop  offset="0"  style="stop-color:#FFFFFF;stop-opacity:1" />
<stop  offset="0.32549"  style="stop-color:#FBE0FF;stop-opacity:1" />
<stop  offset="1"  style="stop-color:#AA3DD2;stop-opacity:1" />
</radialGradient>
<path style="fill:url(#RadialGradID_2038) " d="M21.5 24.6L20.5 25.6L19.65 25.6L18.95 25.3L18.7 25.3Q18.65 25.9 18.25 25.9L17.95 25.75L17.15 26.3L16.4 25.85L15.85 26.8L16.05 27.7Q16.2 28.4 16.5 28.8L16.55 27.75L16.75 27.7L17.1 29.35L17.15 29.4L17.35 27.9Q17.45 26.85 18 26.85L18.5 27.5L19.4 28.5L19.7 28.45Q20.1 28.2 20.1 27.75L20.1 27L20.35 27L20.55 27.35L20.6 27.75L20.75 27.85L21.35 27L21.8 27L22 27.15L22.05 27.45L21.75 27.2L21.4 27.2L20.85 28.1Q20.55 28.1 20.4 27.75L20.25 27.25L20.2 27.95Q20.15 28.4 19.7 28.7L19.25 28.5L19.55 29.2L20 29.85L21.05 29L21.6 29.65L22 30.85L22.05 30.35Q22.1 30.05 22.45 30.05L22.45 30.25L22.35 30.25L22.15 31.1L21.5 30.15L21.15 29.2L20.5 29.75L20.05 30.1Q19.7 30.1 19.5 29.6L19.35 29L19.25 28.9L18.05 30.15L17.7 30.15L17.2 29.7Q17 29.7 16.95 29.8L16.9 29.9L17 30.1L16.9 30.4L17.1 30.9L18.1 31.85L18.45 31.85L18.95 31.3Q19.3 31.3 19.7 31.8L20.3 32.45Q20.55 31.75 20.85 31.75L21.3 32L21.55 32.35L22.6 32.3L22.4 32.2Q22.4 32.05 22.55 32.05L22.65 32.1L22.65 32.5L21.5 32.5L20.95 31.95L20.55 32.4L20.35 32.7L19.6 32.1L19.15 31.5L18.7 31.7L18.5 32.1Q17.4 31.75 17 31.15L16.8 30.6L16.1 31.7L16.05 32.6L16.3 32.4L16.5 32.6L16.85 32.75L17.15 32.65Q17.25 32.5 17.4 32.5L17.8 32.9Q17.95 33.3 18.35 33.3L18.5 33.15L18.85 33.35L19.2 33.55L20.4 33.45L21.5 33.3L21.8 33.3L22.25 34.1L22.9 33.7L22.95 33.8L22.55 34.3L22.2 34.25L21.65 33.5L21.15 33.7L19.4 33.75L19.3 33.8L18.8 33.65L18.55 33.35L18.3 33.55L17.9 33.3Q17.6 33.05 17.6 32.8L17.5 32.7L17 33L16.7 32.95L16.35 32.65L15.7 33.35Q14.75 33.35 14.35 32.9L14.25 32.7L13.85 32.5L13.55 32.35L13.45 32.6L13 32.8Q12.75 32.8 12.4 32.2L12 31.65L11.9 31.6L11.55 31.7Q10.75 31.6 10.6 31.25L10.55 31.05L10.35 31L10 31.35L9.5 31.85L9.4 31.65Q9.15 32.45 8.5 32.45L8.2 32.45L7.65 33.15L7.3 33L6.85 33.05L6.45 33.4L6.05 33.7L5.25 33.05Q4.8 33.05 4.4 33.45L3.85 34.05L3.45 34.05L2.6 33.3L2.3 33.95L2.05 33.95L2.05 33.6L2.25 33.25Q2.35 33.1 2.6 33.1L3.05 33.5L3.55 33.9L4.3 33.4Q4.9 32.85 5.3 32.85L5.7 33.15L6.05 33.45L6.45 33.15Q6.8 32.8 7.05 32.8L7.55 32.9L8 32.45Q7.25 32.4 7 32.15L6.8 31.8L5.35 31.85Q4.75 31.55 4.55 31.1L4.2 30.35Q4.2 31.6 3.95 31.6Q3 31.6 3 29.45L3 29.4L2.35 30.45L1.7 31.05L1.5 31L1.4 30.95L1.4 30.8L1.55 30.85Q1.95 30.85 3 29.15L3.3 30.05Q3.55 31.1 3.75 31.35L3.8 31.4L4 30.15L4.2 30.05L4.7 30.8L5.3 31.6L6.85 31.6L7.6 32.25L8.1 32.25L8.25 32Q8.8 31.1 9 31.1L9.3 31.15L9.3 30.55Q9.05 30.6 8.95 30.75L8.75 30.9Q8.3 30.9 7.9 30.4L7.45 29.75L6.15 29.6L5.7 28.8L4.8 29.35L4.1 29.05L3.65 28.75Q3.1 28.65 2.7 29L2.25 29.35L2 29.25Q2.8 28.45 3.7 28.55Q4.3 29.15 4.65 29.15L5.3 28.9L5.6 28.55L5.85 28.55Q6.1 29.35 6.4 29.55L7.35 29.5L7.1 29L6.75 27.6L6.25 27.9L6 28.15Q5.45 28.15 5.35 27.6L5.3 26.9L4.9 27.3L4.5 27.6Q4 27.6 3.85 27.1L3.8 26.55Q2.35 27.7 2.05 28.2L1.9 28.2L1.85 28.1L2.85 27.1L4 26.25L4.1 26.8L4.35 27.45L4.8 27.1Q5.1 26.7 5.3 26.7L5.6 27.35Q5.7 27.95 5.85 27.95L6.5 27.4L6.8 27.45L7.3 28.6Q7.55 29.35 7.95 29.7L8.5 28.8L8.15 28.35L7.7 27.45L7 26.75L6.95 26.3Q6.9 26.1 6.6 26.1L6 26.3L5.3 25.9L4.6 25.95L4.2 25.9L3.9 25.45Q3.7 25.15 3.45 25.15L2.75 25.2L2.45 25.4L2.35 25.2Q2.5 24.95 3.45 24.95Q3.95 24.95 4.3 25.75L5.5 25.95L5.9 26.1L6.35 26Q6.45 25.85 6.65 25.85L7.9 27.35L8.35 28.15L8.6 28.55L8.8 28.05L9.45 26.35Q9.8 25.45 10.3 26.45L11.3 28.45L11.6 27.8Q11.7 27.3 11.85 27.3L12.3 28.1L12.6 28.85L12.75 28.55L13.6 27.8L13.65 27.75L13.8 27.45Q14.05 27.1 14.3 27.1Q14.7 27.1 14.75 27.25L14.9 27.4Q15.2 27.4 15.75 26.6L15.75 26.55L16.3 25.6L16.85 26.1Q17.25 26.15 17.6 25.8L18 25.45L18.3 25.7L18.6 25.1L19 25.1L19.65 25.45L20.45 25.4L21.4 24.4L22.05 24.35L22.5 24.2L22.7 24.05L22.9 24.1L22.65 24.45L21.5 24.6M18 27.05Q17.65 27.45 17.55 28.3L17.25 29.55Q17.4 29.55 17.75 29.9L18.15 29.9Q18.8 29.45 19.2 28.45L18.55 27.9L18.05 27.1L18 27.05M16.75 28.75L16.5 29.05Q16.15 29.05 15.95 28.15Q15.8 27.55 15.8 26.95L15.05 28.3L14.25 29.15Q13.9 29.15 13.75 28.1L13.6 28.4L13.5 28.4L13.35 28.85Q13.15 29.45 12.85 29.45L12.5 29.3L12.35 29.5L12.35 29.8L12.3 30.5Q12.75 30.55 13 31.05Q13.25 31.55 13.85 31.55Q14.9 31.55 15.2 31.05L15.65 30.25L16 31L16.05 30.45Q16.05 30.1 16.35 29.95L16.65 30L16.8 30.2L16.8 30.15L16.7 29.95L16.9 29.65L17.05 29.55L16.75 29L16.75 28.75M15.6 30.6Q15.05 31.7 14.05 31.8Q13 31.65 12.85 31.35L12.4 30.7L12.3 30.7L12.25 31.05L13.4 32.1L13.45 32.15L13.5 32.05L13.9 32.05L14.45 32.65L14.55 32.75L15.55 33Q15.95 33 15.75 32.15L16.15 31.2L15.7 30.9L15.6 30.6M16.55 30.2L16.2 30.6L16.25 31.05L16.3 30.95L16.65 30.4L16.55 30.2M13.9 27.8L14.2 28.85L15.25 27.45L15 27.55L14.6 27.45Q14.45 27.3 14.3 27.3Q14.05 27.3 13.9 27.75L13.9 27.8M12.15 28.65L11.9 27.5L11.55 28.55L12.1 28.55L12.15 28.65M12.4 29.15L12.2 28.85L12.35 29.25L12.4 29.15M11.2 28.6Q10.8 28.35 9.9 26.05Q9.55 26.55 8.9 28.25L9.2 28.1L10.35 28.4L11.05 28.65L11.2 28.6M11.15 29L11.7 29.4L12.1 29.4L12.05 28.8L11.35 28.85L10.3 28.6L9.6 28.3L8.9 28.45L8.9 28.65L8.95 28.75L9.2 28.4Q9.65 28.6 9.9 29.55L10.75 29L11.15 29M10.75 30.85L11.6 30.7L12.05 30.55L12.1 29.65L11.7 29.65Q11.25 29.2 10.95 29.2L10.35 29.45L9.95 29.7Q9.55 29.7 9.45 29.3L9.35 28.7L9 28.9L9.2 29.3L9.5 30.35Q9.85 30.4 10.4 30.75L10.7 30.65L10.75 30.85M11.9 30.7L11.5 31L10.9 31.05L10.8 31.05L11.1 31.5L11.6 31.5L11.95 31.4L12.05 30.7L11.9 30.7M12.85 28.75L12.65 29.05L12.8 29.3L13.3 28.35L13.45 28.1L12.85 28.75M13.35 32.2L12.25 31.35L12.25 31.5L12.6 31.9L12.95 32.65L13.25 32.4L13.35 32.2M13.65 32.25L14.15 32.6L13.9 32.25L13.65 32.25M15.1 33.1L15.15 33.1L14.75 32.95L15.1 33.1M8.65 28.9L8 29.95L8.6 30.65L9.3 30.45L9.3 30.4L9 29.3L8.8 28.95L8.65 28.9M9.5 30.55L9.45 31.3L9.65 31.6L9.95 31.05L10.15 30.9L10 30.8L9.5 30.55M9 31.35Q8.8 31.35 8.35 32.2L9.2 31.5L9.25 31.45L9 31.35" />
</g>
<g id="PathID_4639" transform="matrix(1, 0, 0, 1, 36.1, 36.85)">
<path style="fill:#FCFCFC;fill-opacity:0.239216" d="M2 24.1L22.6 24.1Q23.3 24.1 23.3 24.9L23.3 33.95Q23.3 34.7 22.6 34.7L2 34.7Q1.3 34.7 1.3 33.95L1.3 24.9Q1.3 24.1 2 24.1" />
<path style="fill:none;stroke-width:0.7;stroke-linecap:round;stroke-linejoin:round;stroke-miterlimit:3;stroke:#000000;stroke-opacity:0.4" d="M1.3 24.9L1.3 33.95Q1.3 34.7 2 34.7L22.6 34.7Q23.3 34.7 23.3 33.95L23.3 24.9Q23.3 24.1 22.6 24.1L2 24.1Q1.3 24.1 1.3 24.9z" />
</g>
<g id="PathID_4640" transform="matrix(1, 0, 0, 1, 36.1, 36.85)">
<path style="fill:#6C8C8B;fill-opacity:0.301961" d="M2.9 30.5L22 30.5Q22.7 30.5 22.7 31.2L22.7 32.95Q22.7 33.65 22 33.65L2.9 33.65Q2.2 33.65 2.2 32.95L2.2 31.2Q2.2 30.5 2.9 30.5" />
</g>
<g id="PathID_4641" transform="matrix(1, 0, 0, 1, 36.1, 36.85)">
<path style="fill:#EEFFFE;fill-opacity:0.611765" d="M5.8 25.95L4.6 25.95L4.2 25.8L4.05 25.4L4.2 25L4.6 24.85L5.8 24.85L6.15 25L6.35 25.4L6.15 25.8L5.8 25.95M7.85 25.8Q7.7 25.65 7.7 25.4L7.85 24.95Q8 24.8 8.25 24.8L20.1 24.8Q20.3 24.8 20.45 24.95L20.65 25.4L20.45 25.8L20.1 25.95L8.25 25.95L7.85 25.8" />
</g>
<g id="PathID_4642" transform="matrix(1, 0, 0, 1, 36.1, 36.85)">
<path style="fill:#585858;fill-opacity:1" d="M0.2 28.05L0.2 34.45Q-1.45 33.55 -1.8 32.3L-1.8 30Q-0.65 31.15 0.2 28.05" />
<path style="fill:#838383;fill-opacity:1" d="M-1.8 30L-1.8 27.75Q-1.2 26.15 0.2 25.65L0.2 28.05Q-0.65 31.15 -1.8 30M-0.05 26.9Q-0.05 26.2 -0.7 26.5Q-1.4 26.8 -1.4 27.7L-1.35 27.95Q-1.25 28.15 -0.95 28.15Q-0.45 28.15 -0.05 26.9" />
<path style="fill:#BFBFBF;fill-opacity:1" d="M-0.95 28.15Q-1.25 28.15 -1.35 27.95L-1.4 27.7Q-1.4 26.8 -0.7 26.5Q-0.05 26.2 -0.05 26.9Q-0.45 28.15 -0.95 28.15" />
<path style="fill:none;stroke-width:0.7;stroke-linecap:round;stroke-linejoin:round;stroke-miterlimit:3;stroke:#000000;stroke-opacity:0.4" d="M-1.8 30L-1.8 27.75Q-1.2 26.15 0.2 25.65L0.2 28.05L0.2 34.45Q-1.45 33.55 -1.8 32.3L-1.8 30z" />
</g>
<g id="PathID_4643" transform="matrix(1, 0, 0, 1, 36.1, 36.85)">
<path style="fill:#838383;fill-opacity:1" d="M0.15 29.35L0.15 23.9Q0.15 23.1 0.8 23.1L1.85 23.1Q2.55 23.1 2.55 23.9L2.55 25.9Q1.75 32.35 0.15 29.35M0.6 24.4L0.5 25.85L0.55 26.7Q0.55 27.5 0.8 27.85Q1 24.95 1.55 24.45L2.1 23.8Q2.1 23.5 1.5 23.45Q0.95 23.45 0.75 23.7Q0.6 23.85 0.6 24.4" />
<path style="fill:#BFBFBF;fill-opacity:1" d="M0.75 23.7Q0.95 23.45 1.5 23.45Q2.1 23.5 2.1 23.8L1.55 24.45Q1 24.95 0.8 27.85Q0.55 27.5 0.55 26.7L0.5 25.85L0.6 24.4Q0.6 23.85 0.75 23.7" />
<path style="fill:#585858;fill-opacity:1" d="M0.15 29.35Q1.75 32.35 2.55 25.9L2.55 34.85Q2.55 35.75 1.85 35.75L0.8 35.75Q0.15 35.75 0.15 34.85L0.15 29.35" />
<path style="fill:none;stroke-width:0.7;stroke-linecap:round;stroke-linejoin:round;stroke-miterlimit:3;stroke:#000000;stroke-opacity:0.4" d="M2.55 25.9L2.55 23.9Q2.55 23.1 1.85 23.1L0.8 23.1Q0.15 23.1 0.15 23.9L0.15 29.35" />
<path style="fill:none;stroke-width:0.7;stroke-linecap:round;stroke-linejoin:round;stroke-miterlimit:3;stroke:#000000;stroke-opacity:0.4" d="M2.55 25.9L2.55 34.85Q2.55 35.75 1.85 35.75L0.8 35.75Q0.15 35.75 0.15 34.85L0.15 29.35" />
</g>
<g id="PathID_4644" transform="matrix(1, 0, 0, 1, 36.1, 36.85)">
<path style="fill:#BFBFBF;fill-opacity:1" d="M25.5 27.65Q25.4 27.85 25.1 27.85Q24.6 27.85 24.2 26.6Q24.2 25.9 24.85 26.2Q25.55 26.5 25.55 27.4L25.5 27.65" />
<path style="fill:#838383;fill-opacity:1" d="M25.55 27.4Q25.55 26.5 24.85 26.2Q24.2 25.9 24.2 26.6Q24.6 27.85 25.1 27.85Q25.4 27.85 25.5 27.65L25.55 27.4M23.95 27.75L23.95 25.35Q25.35 25.85 25.95 27.45L25.95 29.7Q24.8 30.85 23.95 27.75" />
<path style="fill:#585858;fill-opacity:1" d="M23.95 27.75Q24.8 30.85 25.95 29.7L25.95 32Q25.6 33.25 23.95 34.15L23.95 27.75" />
<path style="fill:none;stroke-width:0.7;stroke-linecap:round;stroke-linejoin:round;stroke-miterlimit:3;stroke:#000000;stroke-opacity:0.4" d="M25.95 29.7L25.95 27.45Q25.35 25.85 23.95 25.35L23.95 27.75" />
<path style="fill:none;stroke-width:0.7;stroke-linecap:round;stroke-linejoin:round;stroke-miterlimit:3;stroke:#000000;stroke-opacity:0.4" d="M25.95 29.7L25.95 32Q25.6 33.25 23.95 34.15L23.95 27.75" />
</g>
<g id="PathID_4645" transform="matrix(1, 0, 0, 1, 36.1, 36.85)">
<path style="fill:#BFBFBF;fill-opacity:1" d="M23.4 23.65L23.55 24.35L23.65 25.8L23.6 26.65L23.35 27.8Q23.15 24.9 22.6 24.4L22.05 23.75Q22.05 23.45 22.65 23.4Q23.2 23.4 23.4 23.65" />
<path style="fill:#838383;fill-opacity:1" d="M22.65 23.4Q22.05 23.45 22.05 23.75L22.6 24.4Q23.15 24.9 23.35 27.8L23.6 26.65L23.65 25.8L23.55 24.35L23.4 23.65Q23.2 23.4 22.65 23.4M21.6 25.85L21.6 23.85Q21.6 23.05 22.3 23.05L23.35 23.05Q24 23.05 24 23.85L24 29.3Q22.4 32.3 21.6 25.85" />
<path style="fill:#585858;fill-opacity:1" d="M24 29.3L24 34.8Q24 35.7 23.35 35.7L22.3 35.7Q21.6 35.7 21.6 34.8L21.6 25.85Q22.4 32.3 24 29.3" />
<path style="fill:none;stroke-width:0.7;stroke-linecap:round;stroke-linejoin:round;stroke-miterlimit:3;stroke:#000000;stroke-opacity:0.4" d="M21.6 25.85L21.6 23.85Q21.6 23.05 22.3 23.05L23.35 23.05Q24 23.05 24 23.85L24 29.3L24 34.8Q24 35.7 23.35 35.7L22.3 35.7Q21.6 35.7 21.6 34.8L21.6 25.85z" />
</g>
<g id="PathID_4646" transform="matrix(1, 0, 0, 1, 36.1, 36.85)">
<radialGradient
id="RadialGradID_2039" gradientUnits="userSpaceOnUse" gradientTransform="matrix(0.00457764, 0, 0, 0.00457764, -30.85, -3.2)" spreadMethod ="pad" cx="0" cy="0" r="819.2" fx="0" fy="0" >
<stop  offset="0"  style="stop-color:#E0C2FF;stop-opacity:1" />
<stop  offset="1"  style="stop-color:#9358CD;stop-opacity:1" />
</radialGradient>
<path style="fill:url(#RadialGradID_2039) " d="M-32.05 -3.2L-32.4 -2.3Q-32.4 -1.85 -32.05 -1.85Q-31 -1.85 -30.25 -3.55Q-30.25 -3.8 -30.75 -3.8Q-31.6 -3.8 -32.05 -3.2M-29.55 0.6Q-32.25 1.35 -33.6 -0.9Q-33.55 -2.35 -32.6 -3.3Q-31.6 -4.3 -30.15 -4.3L-28.7 -4L-27.75 -3.3Q-26.85 -0.2 -29.55 0.6M-32.65 -0.6L-32.3 -1.05Q-32.3 -1.3 -32.6 -1.3Q-32.95 -1.3 -32.95 -1L-32.9 -0.8L-32.65 -0.6" />
<path style="fill:#E9D4FF;fill-opacity:1" d="M-30.75 -3.8Q-30.25 -3.8 -30.25 -3.55Q-31 -1.85 -32.05 -1.85Q-32.4 -1.85 -32.4 -2.3L-32.05 -3.2Q-31.6 -3.8 -30.75 -3.8M-32.9 -0.8L-32.95 -1Q-32.95 -1.3 -32.6 -1.3Q-32.3 -1.3 -32.3 -1.05L-32.65 -0.6L-32.9 -0.8" />
<path style="fill:#838383;fill-opacity:1" d="M-31 -4.5Q-30 -4.75 -30 -4.9L-30.25 -5.15Q-31.35 -5.4 -32.6 -4.5Q-33.75 -3.75 -33.75 -3.2L-33.5 -2.95L-32.45 -3.95L-31 -4.5M-34.55 -1.35L-34.3 -1.1L-33.9 -1.45L-33.8 -1.95Q-33.8 -2.45 -34.15 -2.1Q-34.55 -1.8 -34.55 -1.35M-34.5 1.35Q-35 0.4 -35 -0.75Q-35 -2.75 -33.6 -4.2Q-32.15 -5.6 -30.15 -5.6Q-28.15 -5.6 -26.75 -4.2L-26.65 -4.1Q-26.1 -2.4 -26.95 -2.1L-27.75 -3.3L-28.7 -4L-30.15 -4.3Q-31.6 -4.3 -32.6 -3.3Q-33.55 -2.35 -33.6 -0.9L-33.6 -0.85Q-33.6 0.5 -32.7 1.45L-32.6 1.55L-32 2.05Q-33.25 2.5 -34.5 1.35" />
<path style="fill:#BFBFBF;fill-opacity:1" d="M-32.45 -3.95L-33.5 -2.95L-33.75 -3.2Q-33.75 -3.75 -32.6 -4.5Q-31.35 -5.4 -30.25 -5.15L-30 -4.9Q-30 -4.75 -31 -4.5L-32.45 -3.95M-34.15 -2.1Q-33.8 -2.45 -33.8 -1.95L-33.9 -1.45L-34.3 -1.1L-34.55 -1.35Q-34.55 -1.8 -34.15 -2.1" />
<path style="fill:#47206D;fill-opacity:1" d="M-27.75 -3.3L-26.95 -2.1Q-26.7 -1.55 -26.7 -0.85Q-26.7 0.55 -27.75 1.55Q-28.75 2.6 -30.15 2.6Q-31.2 2.6 -32 2.05L-32.6 1.55L-32.7 1.45Q-33.6 0.5 -33.6 -0.85L-33.6 -0.9Q-32.25 1.35 -29.55 0.6Q-26.85 -0.2 -27.75 -3.3M-27.25 -0.35L-28 0.55L-28.6 1.25L-28.55 1.35L-28.4 1.4L-27.55 0.75L-27.15 -0.35L-27.25 -0.35M-29.4 1.5L-30.35 1.7L-30.45 2.1L-30.05 2.1L-29.4 1.75L-29.4 1.5" />
<path style="fill:#585858;fill-opacity:1" d="M-34.5 1.35Q-33.25 2.5 -32 2.05Q-31.2 2.6 -30.15 2.6Q-28.75 2.6 -27.75 1.55Q-26.7 0.55 -26.7 -0.85Q-26.7 -1.55 -26.95 -2.1Q-26.1 -2.4 -26.65 -4.1L-26.55 -4Q-25.3 -2.65 -25.3 -0.75Q-25.3 1.25 -26.75 2.65Q-28.15 4.1 -30.15 4.1L-32.15 3.65L-33.6 2.65L-34.5 1.35" />
<path style="fill:#7F619C;fill-opacity:1" d="M-27.15 -0.35L-27.55 0.75L-28.4 1.4L-28.55 1.35L-28.6 1.25L-28 0.55L-27.25 -0.35L-27.15 -0.35M-29.4 1.75L-30.05 2.1L-30.45 2.1L-30.35 1.7L-29.4 1.5L-29.4 1.75" />
<path style="fill:none;stroke-width:0.7;stroke-linecap:round;stroke-linejoin:round;stroke-miterlimit:3;stroke:#000000;stroke-opacity:0.4" d="M-32 2.05L-32.6 1.55L-32.7 1.45Q-33.6 0.5 -33.6 -0.85L-33.6 -0.9Q-33.55 -2.35 -32.6 -3.3Q-31.6 -4.3 -30.15 -4.3L-28.7 -4L-27.75 -3.3L-26.95 -2.1" />
<path style="fill:none;stroke-width:0.7;stroke-linecap:round;stroke-linejoin:round;stroke-miterlimit:3;stroke:#000000;stroke-opacity:0.4" d="M-26.65 -4.1L-26.75 -4.2Q-28.15 -5.6 -30.15 -5.6Q-32.15 -5.6 -33.6 -4.2Q-35 -2.75 -35 -0.75Q-35 0.4 -34.5 1.35" />
<path style="fill:none;stroke-width:0.7;stroke-linecap:round;stroke-linejoin:round;stroke-miterlimit:3;stroke:#000000;stroke-opacity:0.4" d="M-32 2.05Q-31.2 2.6 -30.15 2.6Q-28.75 2.6 -27.75 1.55Q-26.7 0.55 -26.7 -0.85Q-26.7 -1.55 -26.95 -2.1" />
<path style="fill:none;stroke-width:0.7;stroke-linecap:round;stroke-linejoin:round;stroke-miterlimit:3;stroke:#000000;stroke-opacity:0.4" d="M-26.65 -4.1L-26.55 -4Q-25.3 -2.65 -25.3 -0.75Q-25.3 1.25 -26.75 2.65Q-28.15 4.1 -30.15 4.1L-32.15 3.65L-33.6 2.65L-34.5 1.35" />
</g>
<g id="PathID_4647" transform="matrix(1, 0, 0, 1, 36.1, 36.85)">
<radialGradient
id="RadialGradID_2040" gradientUnits="userSpaceOnUse" gradientTransform="matrix(0.00457764, 0, 0, 0.00457764, 29.75, -3.2)" spreadMethod ="pad" cx="0" cy="0" r="819.2" fx="0" fy="0" >
<stop  offset="0"  style="stop-color:#E0C2FF;stop-opacity:1" />
<stop  offset="1"  style="stop-color:#9358CD;stop-opacity:1" />
</radialGradient>
<path style="fill:url(#RadialGradID_2040) " d="M29.85 -3.8Q29 -3.8 28.55 -3.2Q28.2 -2.75 28.2 -2.3Q28.2 -1.85 28.55 -1.85Q29.6 -1.85 30.35 -3.55L29.85 -3.8M31.05 0.6Q28.35 1.35 27 -0.9Q27.05 -2.35 28 -3.3Q29 -4.3 30.45 -4.3L31.9 -4L32.85 -3.3Q33.75 -0.2 31.05 0.6M27.7 -0.8L27.95 -0.6L28.3 -1.05L28 -1.3Q27.65 -1.3 27.65 -1L27.7 -0.8" />
<path style="fill:#E9D4FF;fill-opacity:1" d="M30.35 -3.55Q29.6 -1.85 28.55 -1.85Q28.2 -1.85 28.2 -2.3Q28.2 -2.75 28.55 -3.2Q29 -3.8 29.85 -3.8L30.35 -3.55M27.65 -1Q27.65 -1.3 28 -1.3L28.3 -1.05L27.95 -0.6L27.7 -0.8L27.65 -1" />
<path style="fill:#838383;fill-opacity:1" d="M29.6 -4.5Q30.6 -4.75 30.6 -4.9L30.35 -5.15Q29.25 -5.4 28 -4.5Q26.85 -3.75 26.85 -3.2Q26.85 -2.95 27.1 -2.95L28.15 -3.95L29.6 -4.5M26.05 -1.35Q26.05 -1.1 26.3 -1.1L26.7 -1.45L26.8 -1.95Q26.8 -2.45 26.45 -2.1Q26.05 -1.8 26.05 -1.35M26.1 1.35Q25.6 0.4 25.6 -0.75Q25.6 -2.75 27 -4.2Q28.45 -5.6 30.45 -5.6Q32.45 -5.6 33.85 -4.2L33.95 -4.1Q34.5 -2.4 33.65 -2.1L32.85 -3.3L31.9 -4L30.45 -4.3Q29 -4.3 28 -3.3Q27.05 -2.35 27 -0.9L27 -0.85Q27 0.5 27.9 1.45L28 1.55L28.6 2.05Q27.35 2.5 26.1 1.35" />
<path style="fill:#BFBFBF;fill-opacity:1" d="M28.15 -3.95L27.1 -2.95Q26.85 -2.95 26.85 -3.2Q26.85 -3.75 28 -4.5Q29.25 -5.4 30.35 -5.15L30.6 -4.9Q30.6 -4.75 29.6 -4.5L28.15 -3.95M26.45 -2.1Q26.8 -2.45 26.8 -1.95L26.7 -1.45L26.3 -1.1Q26.05 -1.1 26.05 -1.35Q26.05 -1.8 26.45 -2.1" />
<path style="fill:#47206D;fill-opacity:1" d="M32.85 -3.3L33.65 -2.1L33.9 -0.85Q33.9 0.55 32.85 1.55Q31.85 2.6 30.45 2.6Q29.4 2.6 28.6 2.05L28 1.55L27.9 1.45Q27 0.5 27 -0.85L27 -0.9Q28.35 1.35 31.05 0.6Q33.75 -0.2 32.85 -3.3M33.35 -0.35L32.6 0.55L32 1.25L32.05 1.35L32.2 1.4Q32.6 1.4 33.05 0.75L33.45 -0.35L33.35 -0.35M31.2 1.75L31.2 1.5L30.25 1.7L30.15 2.1L30.55 2.1L31.2 1.75" />
<path style="fill:#585858;fill-opacity:1" d="M26.1 1.35Q27.35 2.5 28.6 2.05Q29.4 2.6 30.45 2.6Q31.85 2.6 32.85 1.55Q33.9 0.55 33.9 -0.85L33.65 -2.1Q34.5 -2.4 33.95 -4.1L34.05 -4Q35.3 -2.65 35.3 -0.75Q35.3 1.25 33.85 2.65Q32.45 4.1 30.45 4.1L28.45 3.65L27 2.65L26.1 1.35" />
<path style="fill:#7F619C;fill-opacity:1" d="M33.45 -0.35L33.05 0.75Q32.6 1.4 32.2 1.4L32.05 1.35L32 1.25L32.6 0.55L33.35 -0.35L33.45 -0.35M30.55 2.1L30.15 2.1L30.25 1.7L31.2 1.5L31.2 1.75L30.55 2.1" />
<path style="fill:none;stroke-width:0.7;stroke-linecap:round;stroke-linejoin:round;stroke-miterlimit:3;stroke:#000000;stroke-opacity:0.4" d="M28.6 2.05L28 1.55L27.9 1.45Q27 0.5 27 -0.85L27 -0.9Q27.05 -2.35 28 -3.3Q29 -4.3 30.45 -4.3L31.9 -4L32.85 -3.3L33.65 -2.1" />
<path style="fill:none;stroke-width:0.7;stroke-linecap:round;stroke-linejoin:round;stroke-miterlimit:3;stroke:#000000;stroke-opacity:0.4" d="M33.95 -4.1L33.85 -4.2Q32.45 -5.6 30.45 -5.6Q28.45 -5.6 27 -4.2Q25.6 -2.75 25.6 -0.75Q25.6 0.4 26.1 1.35" />
<path style="fill:none;stroke-width:0.7;stroke-linecap:round;stroke-linejoin:round;stroke-miterlimit:3;stroke:#000000;stroke-opacity:0.4" d="M28.6 2.05Q29.4 2.6 30.45 2.6Q31.85 2.6 32.85 1.55Q33.9 0.55 33.9 -0.85L33.65 -2.1" />
<path style="fill:none;stroke-width:0.7;stroke-linecap:round;stroke-linejoin:round;stroke-miterlimit:3;stroke:#000000;stroke-opacity:0.4" d="M33.95 -4.1L34.05 -4Q35.3 -2.65 35.3 -0.75Q35.3 1.25 33.85 2.65Q32.45 4.1 30.45 4.1L28.45 3.65L27 2.65L26.1 1.35" />
</g>
<g id="PathID_4648" transform="matrix(1, 0, 0, 1, 36.1, 36.85)">
<path style="fill:#585858;fill-opacity:1" d="M30.5 32.85Q31.9 32.85 32.9 31.8Q33.95 30.8 33.95 29.4L33.7 28.15Q34.55 27.85 34 26.15L34.1 26.25Q35.35 27.6 35.35 29.5Q35.35 31.5 33.9 32.9Q32.5 34.35 30.5 34.35L28.5 33.9Q27.7 33.55 27.05 32.9L26.15 31.6Q27.4 32.75 28.65 32.3Q29.45 32.85 30.5 32.85" />
<path style="fill:#838383;fill-opacity:1" d="M33.7 28.15L32.9 26.95L31.95 26.25L30.5 25.95Q29.05 25.95 28.05 26.95Q27.1 27.9 27.05 29.35L27.05 29.4Q27.05 30.75 27.95 31.7L28.05 31.8L28.65 32.3Q27.4 32.75 26.15 31.6Q25.65 30.65 25.65 29.5Q25.65 27.5 27.05 26.05Q28.5 24.65 30.5 24.65Q32.5 24.65 33.9 26.05L34 26.15Q34.55 27.85 33.7 28.15M30.4 25.1Q29.3 24.85 28.05 25.75Q26.9 26.5 26.9 27.05L27.15 27.3L28.2 26.3L29.65 25.75L30.65 25.35L30.4 25.1M26.1 28.9L26.35 29.15L26.75 28.8L26.85 28.3Q26.85 27.8 26.5 28.15Q26.1 28.45 26.1 28.9" />
<radialGradient
id="RadialGradID_2041" gradientUnits="userSpaceOnUse" gradientTransform="matrix(0.00457764, 0, 0, 0.00457764, 29.8, 27.05)" spreadMethod ="pad" cx="0" cy="0" r="819.2" fx="0" fy="0" >
<stop  offset="0"  style="stop-color:#E0C2FF;stop-opacity:1" />
<stop  offset="1"  style="stop-color:#9358CD;stop-opacity:1" />
</radialGradient>
<path style="fill:url(#RadialGradID_2041) " d="M31.1 30.85Q28.4 31.6 27.05 29.35Q27.1 27.9 28.05 26.95Q29.05 25.95 30.5 25.95L31.95 26.25L32.9 26.95Q33.8 30.05 31.1 30.85M28.6 27.05Q28.25 27.5 28.25 27.95Q28.25 28.4 28.6 28.4Q29.65 28.4 30.4 26.7Q30.4 26.45 29.9 26.45Q29.05 26.45 28.6 27.05M27.75 29.45L28 29.65L28.35 29.2L28.05 28.95Q27.7 28.95 27.7 29.25L27.75 29.45" />
<path style="fill:#BFBFBF;fill-opacity:1" d="M30.65 25.35L29.65 25.75L28.2 26.3L27.15 27.3L26.9 27.05Q26.9 26.5 28.05 25.75Q29.3 24.85 30.4 25.1L30.65 25.35M26.5 28.15Q26.85 27.8 26.85 28.3L26.75 28.8L26.35 29.15L26.1 28.9Q26.1 28.45 26.5 28.15" />
<path style="fill:#47206D;fill-opacity:1" d="M32.9 26.95L33.7 28.15L33.95 29.4Q33.95 30.8 32.9 31.8Q31.9 32.85 30.5 32.85Q29.45 32.85 28.65 32.3L28.05 31.8L27.95 31.7Q27.05 30.75 27.05 29.4L27.05 29.35Q28.4 31.6 31.1 30.85Q33.8 30.05 32.9 26.95M33.4 29.9L32.65 30.8L32.05 31.5L32.1 31.6L32.25 31.65L33.1 31Q33.5 30.35 33.5 29.9L33.4 29.9M31.25 31.75Q30.45 31.7 30.3 31.95L30.2 32.35L30.6 32.35L31.25 32L31.25 31.75" />
<path style="fill:#7F619C;fill-opacity:1" d="M33.5 29.9Q33.5 30.35 33.1 31L32.25 31.65L32.1 31.6L32.05 31.5L32.65 30.8L33.4 29.9L33.5 29.9M31.25 32L30.6 32.35L30.2 32.35L30.3 31.95Q30.45 31.7 31.25 31.75L31.25 32" />
<path style="fill:#E9D4FF;fill-opacity:1" d="M29.9 26.45Q30.4 26.45 30.4 26.7Q29.65 28.4 28.6 28.4Q28.25 28.4 28.25 27.95Q28.25 27.5 28.6 27.05Q29.05 26.45 29.9 26.45M27.7 29.25Q27.7 28.95 28.05 28.95L28.35 29.2L28 29.65L27.75 29.45L27.7 29.25" />
<path style="fill:none;stroke-width:0.7;stroke-linecap:round;stroke-linejoin:round;stroke-miterlimit:3;stroke:#000000;stroke-opacity:0.4" d="M34 26.15L33.9 26.05Q32.5 24.65 30.5 24.65Q28.5 24.65 27.05 26.05Q25.65 27.5 25.65 29.5Q25.65 30.65 26.15 31.6" />
<path style="fill:none;stroke-width:0.7;stroke-linecap:round;stroke-linejoin:round;stroke-miterlimit:3;stroke:#000000;stroke-opacity:0.4" d="M28.65 32.3L28.05 31.8L27.95 31.7Q27.05 30.75 27.05 29.4L27.05 29.35Q27.1 27.9 28.05 26.95Q29.05 25.95 30.5 25.95L31.95 26.25L32.9 26.95L33.7 28.15" />
<path style="fill:none;stroke-width:0.7;stroke-linecap:round;stroke-linejoin:round;stroke-miterlimit:3;stroke:#000000;stroke-opacity:0.4" d="M34 26.15L34.1 26.25Q35.35 27.6 35.35 29.5Q35.35 31.5 33.9 32.9Q32.5 34.35 30.5 34.35L28.5 33.9Q27.7 33.55 27.05 32.9L26.15 31.6" />
<path style="fill:none;stroke-width:0.7;stroke-linecap:round;stroke-linejoin:round;stroke-miterlimit:3;stroke:#000000;stroke-opacity:0.4" d="M33.7 28.15L33.95 29.4Q33.95 30.8 32.9 31.8Q31.9 32.85 30.5 32.85Q29.45 32.85 28.65 32.3" />
</g>
</svg>
