<?xml version="1.0" encoding="utf-8"?>
<svg version="1.1" id="Layer_1"
xmlns="http://www.w3.org/2000/svg"
xmlns:xlink="http://www.w3.org/1999/xlink"
width="20px" height="8px"
xml:space="preserve">
<g id="PathID_3401" transform="matrix(1, 0, 0, 1, 0.25, 0.25)">
<path style="fill:#54504E;fill-opacity:1" d="M13.6 4.9Q13.45 1.9 10.95 1.7Q10.95 0.9 11.65 0.35L11.85 0.2Q12.65 -0.4 13.95 0.8Q14.5 -0.25 15.65 0.4Q16.7 1.3 15.3 3.45Q13.95 3.95 13.6 4.9M1.9 3.85Q0.9 0.9 3.1 1.4Q3.8 1.65 4.45 1.05Q5.65 -0.05 7.2 0.2Q8.1 0.35 8.1 2.45L7.95 2.55Q6.7 3.05 6.1 2.1Q4.85 1.05 3.8 2.25Q3.2 3.4 4.1 4.8Q2.8 4 1.9 3.85" />
<linearGradient
id="LinearGradID_1615" gradientUnits="userSpaceOnUse" gradientTransform="matrix(1.52588e-005, -0.00402832, 0.00343323, 1.52588e-005, 9.45, 4.45)" spreadMethod ="pad" x1="-819.2" y1="0" x2="819.2" y2="0" >
<stop  offset="0.203922" style="stop-color:#808080;stop-opacity:0" />
<stop  offset="0.631373" style="stop-color:#808080;stop-opacity:1" />
</linearGradient>
<path style="fill:url(#LinearGradID_1615) " d="M4.1 4.8L5.9 7.25L4.1 4.8Q3.2 3.4 3.8 2.25Q4.85 1.05 6.1 2.1Q6.7 3.05 7.95 2.55L8.1 2.45Q8.8 1.85 9.7 1.7L10.95 1.7Q13.45 1.9 13.6 4.9Q13.95 3.95 15.3 3.45L18.2 3.6Q19.25 3.2 19.1 4.65Q17.95 5.8 17 7.25L12.5 7.25L5.9 7.25L1.9 7.25Q-0.9 4.9 0.45 3.95L1.9 3.85Q2.8 4 4.1 4.8M12.5 7.25L13.6 4.9L12.5 7.25" />
<path style="fill:none;stroke-width:0.7;stroke-linecap:round;stroke-linejoin:bevel;stroke-miterlimit:3;stroke:#000000;stroke-opacity:0.4" d="M15.3 3.45Q16.7 1.3 15.65 0.4" />
<path style="fill:none;stroke-width:0.7;stroke-linecap:butt;stroke-linejoin:bevel;stroke-miterlimit:3;stroke:#000000;stroke-opacity:0.4" d="M15.65 0.4Q14.5 -0.25 13.95 0.8Q12.65 -0.4 11.85 0.2L11.65 0.35Q10.95 0.9 10.95 1.7Q13.45 1.9 13.6 4.9" />
<path style="fill:none;stroke-width:0.7;stroke-linecap:round;stroke-linejoin:bevel;stroke-miterlimit:3;stroke:#000000;stroke-opacity:0.4" d="M13.6 4.9Q13.95 3.95 15.3 3.45" />
<path style="fill:none;stroke-width:0.7;stroke-linecap:butt;stroke-linejoin:bevel;stroke-miterlimit:3;stroke:#000000;stroke-opacity:0.4" d="M15.3 3.45L18.2 3.6" />
<path style="fill:none;stroke-width:0.7;stroke-linecap:butt;stroke-linejoin:bevel;stroke-miterlimit:3;stroke:#000000;stroke-opacity:0.4" d="M18.2 3.6Q19.25 3.2 19.1 4.65" />
<path style="fill:none;stroke-width:0.7;stroke-linecap:butt;stroke-linejoin:bevel;stroke-miterlimit:3;stroke:#000000;stroke-opacity:0.4" d="M1.9 7.25Q-0.9 4.9 0.45 3.95L1.9 3.85Q0.9 0.9 3.1 1.4Q3.8 1.65 4.45 1.05Q5.65 -0.05 7.2 0.2Q8.1 0.35 8.1 2.45Q8.8 1.85 9.7 1.7L10.95 1.7" />
<path style="fill:none;stroke-width:0.7;stroke-linecap:butt;stroke-linejoin:bevel;stroke-miterlimit:3;stroke:#000000;stroke-opacity:0.4" d="M13.6 4.9L12.5 7.25" />
<path style="fill:none;stroke-width:0.7;stroke-linecap:butt;stroke-linejoin:bevel;stroke-miterlimit:3;stroke:#000000;stroke-opacity:0.4" d="M8.1 2.45L7.95 2.55Q6.7 3.05 6.1 2.1Q4.85 1.05 3.8 2.25Q3.2 3.4 4.1 4.8L5.9 7.25" />
<path style="fill:none;stroke-width:0.7;stroke-linecap:butt;stroke-linejoin:bevel;stroke-miterlimit:3;stroke:#000000;stroke-opacity:0.4" d="M1.9 3.85Q2.8 4 4.1 4.8" />
</g>
</svg>
