<?xml version="1.0" encoding="utf-8"?>
<svg version="1.1" id="Layer_1"
xmlns="http://www.w3.org/2000/svg"
xmlns:xlink="http://www.w3.org/1999/xlink"
width="107px" height="8px"
xml:space="preserve">
<g id="PathID_2655" transform="matrix(1, 0, 0, 1, 0.25, 0.25)">
<path style="fill:#646464;fill-opacity:1" d="M104.2 7.35L1.85 7.35Q-0.95 4.3 0.5 1.65Q2.5 4.7 64.65 4.2L65.9 4.2L65.95 4.2L99.2 3.9L101.75 3.35Q104.2 2.3 104.2 0Q108.35 3.7 104.2 7.35" />
<path style="fill:#808080;fill-opacity:1" d="M1.85 0L104.2 0Q104.2 2.3 101.75 3.35L99.2 3.9L65.95 4.2L65.9 4.2L64.65 4.2Q2.5 4.7 0.5 1.65Q1 0.8 1.85 0" />
<path style="fill:none;stroke-width:0.7;stroke-linecap:butt;stroke-linejoin:bevel;stroke-miterlimit:3;stroke:#000000;stroke-opacity:0.501961" d="M0.5 1.65Q-0.95 4.3 1.85 7.35L104.2 7.35Q108.35 3.7 104.2 0L1.85 0Q1 0.8 0.5 1.65z" />
</g>
</svg>
