<?xml version="1.0" encoding="utf-8"?>
<svg version="1.1" id="Layer_1"
xmlns="http://www.w3.org/2000/svg"
xmlns:xlink="http://www.w3.org/1999/xlink"
width="28px" height="25px"
xml:space="preserve">
<g id="PathID_3786" transform="matrix(1, 0, 0, 1, 13, 14.05)">
<path style="fill:#FFFFFF;fill-opacity:0.0980392" d="M6.95 -5.05Q6.95 -1.3 4.3 1.3Q1.7 3.95 -2.05 3.95Q-5.8 3.95 -8.45 1.3Q-11.05 -1.3 -11.05 -5.05Q-11.05 -8.8 -8.45 -11.45Q-5.8 -14.05 -2.05 -14.05Q1.7 -14.05 4.3 -11.45Q6.95 -8.8 6.95 -5.05" />
</g>
<g id="PathID_3787" transform="matrix(1, 0, 0, 1, 13, 14.05)">
<path style="fill:#FFFFFF;fill-opacity:0.2" d="M-1.85 -9Q-2.65 -7.6 -3.75 -7Q-4.85 -6.35 -6 -6.6Q-7.15 -6.9 -7.75 -7.9Q-8.3 -8.9 -7.95 -10Q-7.6 -11.1 -6.5 -11.75Q-5.4 -12.35 -3.65 -12.5Q-1.9 -12.6 -1.5 -11.5Q-1.1 -10.4 -1.85 -9" />
</g>
<g id="PathID_3788" transform="matrix(1, 0, 0, 1, 13, 14.05)">
<radialGradient
id="RadialGradID_1697" gradientUnits="userSpaceOnUse" gradientTransform="matrix(-0.0112305, 0.011261, -0.0132904, -0.00990295, 0.65, -1.7)" spreadMethod ="pad" cx="0" cy="0" r="819.2" fx="0" fy="0" >
<stop  offset="0"  style="stop-color:#FCFEFF;stop-opacity:0.537255" />
<stop  offset="0.921569"  style="stop-color:#FFFFFF;stop-opacity:0" />
</radialGradient>
<path style="fill:url(#RadialGradID_1697) " d="M10.5 -11Q14.45 -7.9 14.75 -2.85Q14.8 2.15 10.95 6.05Q7.1 9.8 1.25 10.35Q-4.55 11.15 -8.75 8.05Q-12.9 4.85 -13 -0.15Q-13.15 -5.2 -9.35 -9Q-5.4 -12.9 0.35 -13.65Q6.2 -13.9 10.5 -11" />
</g>
</svg>
