<?xml version="1.0" encoding="utf-8"?>
<svg version="1.1" id="Layer_1"
xmlns="http://www.w3.org/2000/svg"
xmlns:xlink="http://www.w3.org/1999/xlink"
width="32px" height="36px"
xml:space="preserve">
<g id="PathID_3824" transform="matrix(1, 0, 0, 1, 0.2, 0.2)">
<path style="fill:#5B5B5B;fill-opacity:0.8" d="M28.6 26.25Q26.85 18.75 23.25 13.9Q20.9 11.35 17.7 9.4Q14.6 7.5 10.8 6.1L13.35 5.5L16.6 5.05Q21.65 5.05 25.5 8L27.15 9.45Q31.55 13.85 31.55 20.05Q31.55 25 28.8 28.8L28.6 26.25M9.05 1.25L8.45 0.1Q9.6 -0.25 9.9 0.45Q10.2 1.3 9.25 3.75Q9.4 2.4 9.05 1.25" />
<path style="fill:#808080;fill-opacity:0.8" d="M2.15 6.3Q4.35 5.55 6.1 4.25Q7.8 3 9.05 1.25Q9.4 2.4 9.25 3.75L10.75 6.05L10.8 6.1Q14.6 7.5 17.7 9.4Q20.9 11.35 23.25 13.9Q26.85 18.75 28.6 26.25L28.8 28.8L26.2 31.55Q22.1 35.05 16.6 35.05L16.4 35.05Q10.35 35 6 30.65L3.35 26.75Q0.95 21.7 2.15 15.9Q2.8 12.8 5.6 9.75L3.7 7.05L2.15 7.2Q-1.7 7.3 1.4 4.55L2.15 4.85L3.1 4.7L4.15 4.4L5.9 3.15L7.45 1.85Q7.95 1.15 7.5 0.5L7.6 0.45Q8.05 0.2 8.45 0.1L9.05 1.25Q7.8 3 6.1 4.25Q4.35 5.55 2.15 6.3M8.7 3.15Q7.6 4.5 6.1 5.5L4.35 6.4L5 6.8L5.75 7.15L6.1 7.25Q9.4 8.15 8.85 4.75L8.7 3.15" />
<path style="fill:#696969;fill-opacity:1" d="M8.85 4.75Q9.4 8.15 6.1 7.25L5.75 7.15L5 6.8L4.35 6.4L6.1 5.5Q7.6 4.5 8.7 3.15L8.85 4.75" />
<path style="fill:none;stroke-width:0.7;stroke-linecap:butt;stroke-linejoin:miter;stroke-miterlimit:3;stroke:#000000;stroke-opacity:0.4" d="M10.8 6.1L13.35 5.5L16.6 5.05Q21.65 5.05 25.5 8L27.15 9.45Q31.55 13.85 31.55 20.05Q31.55 25 28.8 28.8L26.2 31.55Q22.1 35.05 16.6 35.05L16.4 35.05Q10.35 35 6 30.65L3.35 26.75Q0.95 21.7 2.15 15.9Q2.8 12.8 5.6 9.75L3.7 7.05L2.15 7.2Q-1.7 7.3 1.4 4.55" />
<path style="fill:none;stroke-width:0.7;stroke-linecap:butt;stroke-linejoin:miter;stroke-miterlimit:3;stroke:#000000;stroke-opacity:0.4" d="M7.5 0.5L7.6 0.45Q8.05 0.2 8.45 0.1Q9.6 -0.25 9.9 0.45Q10.2 1.3 9.25 3.75L10.75 6.05L10.8 6.1" />
<path style="fill:none;stroke-width:0.7;stroke-linecap:butt;stroke-linejoin:miter;stroke-miterlimit:3;stroke:#333333;stroke-opacity:0.298039" d="M8.85 4.75Q9.4 8.15 6.1 7.25L5.75 7.15L5 6.8L4.35 6.4L6.1 5.5Q7.6 4.5 8.7 3.15L8.85 4.75z" />
<path style="fill:none;stroke-width:0.7;stroke-linecap:butt;stroke-linejoin:miter;stroke-miterlimit:3;stroke:#333333;stroke-opacity:0.298039" d="M9.05 1.25Q7.8 3 6.1 4.25Q4.35 5.55 2.15 6.3" />
</g>
</svg>
