<?xml version="1.0" encoding="utf-8"?>
<svg version="1.1" id="Layer_1"
xmlns="http://www.w3.org/2000/svg"
xmlns:xlink="http://www.w3.org/1999/xlink"
width="14px" height="14px"
xml:space="preserve">
<g id="PathID_3705" transform="matrix(1, 0, 0, 1, 0.15, 0.2)">
<path style="fill:#C5C5C5;fill-opacity:1" d="M7.55 2.25Q9.95 1.1 12.05 1.1L12 1.9L2.6 8.6Q1.4 8.15 0.15 7.35L7.55 2.25" />
<linearGradient
id="LinearGradID_1681" gradientUnits="userSpaceOnUse" gradientTransform="matrix(-0.00205994, -0.00352478, 0.861694, -0.504578, -67.45, 53.85)" spreadMethod ="pad" x1="-819.2" y1="0" x2="819.2" y2="0" >
<stop  offset="0" style="stop-color:#5F5B51;stop-opacity:1" />
<stop  offset="1" style="stop-color:#808080;stop-opacity:1" />
</linearGradient>
<path style="fill:url(#LinearGradID_1681) " d="M12 1.9Q11.8 3.75 11.1 5.7L11.15 5.75Q12.9 7.1 13.5 9.1L8.95 9.4Q8 12.05 5.9 13.3L5.85 13.25Q4.8 11.45 4.3 8.95L2.6 8.6L12 1.9" />
<path style="fill:#808080;fill-opacity:1" d="M0.15 7.35L0 7.2Q1.55 5.45 3.65 4.25Q3.55 2.2 4.05 0Q6.1 0.75 7.55 2.25L0.15 7.35" />
<path style="fill:none;stroke-width:0.7;stroke-linecap:round;stroke-linejoin:miter;stroke-miterlimit:3;stroke:#000000;stroke-opacity:0.298039" d="M2.6 8.6L4.3 8.95Q4.8 11.45 5.85 13.25L5.9 13.3Q8 12.05 8.95 9.4L13.5 9.1Q12.9 7.1 11.15 5.75L11.1 5.7Q11.8 3.75 12 1.9" />
<path style="fill:none;stroke-width:0.7;stroke-linecap:round;stroke-linejoin:miter;stroke-miterlimit:3;stroke:#000000;stroke-opacity:0.298039" d="M2.6 8.6Q1.4 8.15 0.15 7.35L0 7.2Q1.55 5.45 3.65 4.25Q3.55 2.2 4.05 0Q6.1 0.75 7.55 2.25Q9.95 1.1 12.05 1.1L12 1.9" />
</g>
</svg>
