<?xml version="1.0" encoding="utf-8"?>
<svg version="1.1" id="Layer_1"
xmlns="http://www.w3.org/2000/svg"
xmlns:xlink="http://www.w3.org/1999/xlink"
width="8px" height="22px"
xml:space="preserve">
<g id="PathID_3830" transform="matrix(1, 0, 0, 1, 12.3, 10)">
<path style="fill:#FFFFFF;fill-opacity:0.301961" d="M-10.1 -7.25Q-10.5 -6.55 -11.05 -6.15L-12.15 -6.9L-9.35 -9.6L-8.85 -10Q-8.85 -8.9 -10.1 -7.25M-7.05 2.4Q-6.15 3.6 -6.15 4.85Q-6.15 6.2 -7.05 6.85Q-8 7.55 -9.25 7.15Q-10.5 6.85 -11.4 5.65Q-12.3 4.45 -12.3 3.1Q-12.3 1.85 -11.35 1.15Q-10.45 0.5 -9.2 0.8Q-7.95 1.2 -7.05 2.4M-6.1 11.5Q-6.65 11.4 -7 10.85Q-7.4 10.35 -7.4 9.8Q-7.4 9.25 -7 9L-6.1 8.85L-5.2 9.5Q-4.8 10 -4.8 10.55Q-4.8 11.1 -5.2 11.4L-6.1 11.5" />
</g>
</svg>
