<?xml version="1.0" encoding="utf-8"?>
<svg version="1.1" id="Layer_1"
xmlns="http://www.w3.org/2000/svg"
xmlns:xlink="http://www.w3.org/1999/xlink"
width="16px" height="8px"
xml:space="preserve">
<g id="PathID_3409" transform="matrix(1, 0, 0, 1, 0.25, 0.25)">
<linearGradient
id="LinearGradID_1617" gradientUnits="userSpaceOnUse" gradientTransform="matrix(-0.00299072, -0.00436401, 0.824219, -0.562592, 11, 3.9)" spreadMethod ="pad" x1="-819.2" y1="0" x2="819.2" y2="0" >
<stop  offset="0.203922" style="stop-color:#808080;stop-opacity:0" />
<stop  offset="0.631373" style="stop-color:#808080;stop-opacity:1" />
</linearGradient>
<path style="fill:url(#LinearGradID_1617) " d="M13.6 5.2L15.15 7.05L7.5 7.05Q5.25 6.1 5.45 5Q5.55 4.15 6.95 4.55L7.85 4.4Q9.5 1.45 11.35 2.25Q12.35 2.95 13.15 4.25L13.6 5.2" />
<path style="fill:#54504E;fill-opacity:1" d="M6.55 3.4L6 2.6Q5.95 1.95 6.7 1.75Q7.35 2 8.6 1.15L10.3 0.1Q11.75 -0.4 12.65 2.3L13.15 4.25Q12.35 2.95 11.35 2.25Q9.5 1.45 7.85 4.4L6.95 4.55Q7.25 4.2 6.55 3.4M6.95 4.55Q5.55 4.15 5.45 5Q5.25 6.1 7.5 7.05L3.55 7.05L0.15 6.9Q-0.3 5.9 0.5 5.4Q1.25 4.9 1.85 5.1Q1.3 3.3 2.75 3.75Q3.9 3.95 4.2 2.7Q5.15 1.7 6 2.6L6.55 3.4Q7.25 4.2 7.85 4.4M3.55 7.05Q3.05 5.4 1.85 5.1Q3.05 5.4 3.55 7.05" />
<path style="fill:none;stroke-width:0.7;stroke-linecap:butt;stroke-linejoin:bevel;stroke-miterlimit:3;stroke:#000000;stroke-opacity:0.4" d="M7.85 4.4Q9.5 1.45 11.35 2.25Q12.35 2.95 13.15 4.25" />
<path style="fill:none;stroke-width:0.7;stroke-linecap:butt;stroke-linejoin:bevel;stroke-miterlimit:3;stroke:#000000;stroke-opacity:0.4" d="M12.65 2.3Q11.75 -0.4 10.3 0.1L8.6 1.15Q7.35 2 6.7 1.75Q5.95 1.95 6 2.6L6.55 3.4Q7.25 4.2 7.85 4.4L6.95 4.55Q5.55 4.15 5.45 5Q5.25 6.1 7.5 7.05" />
<path style="fill:none;stroke-width:0.7;stroke-linecap:butt;stroke-linejoin:bevel;stroke-miterlimit:3;stroke:#000000;stroke-opacity:0.4" d="M0.15 6.9Q-0.3 5.9 0.5 5.4Q1.25 4.9 1.85 5.1Q1.3 3.3 2.75 3.75Q3.9 3.95 4.2 2.7Q5.15 1.7 6 2.6" />
<path style="fill:none;stroke-width:0.7;stroke-linecap:butt;stroke-linejoin:bevel;stroke-miterlimit:3;stroke:#000000;stroke-opacity:0.4" d="M1.85 5.1Q3.05 5.4 3.55 7.05" />
</g>
</svg>
