<?xml version="1.0" encoding="utf-8"?>
<svg version="1.1" id="Layer_1"
xmlns="http://www.w3.org/2000/svg"
xmlns:xlink="http://www.w3.org/1999/xlink"
width="81px" height="12px"
xml:space="preserve">
<g id="PathID_2471" transform="matrix(1, 0, 0, 1, 0.15, 0.15)">
<path style="fill:#808080;fill-opacity:1" d="M59 4.3Q54.5 2.05 51.5 4.45Q48.45 6.8 42.85 5Q40.5 3.5 38.9 4.05L35.85 5.5L32.9 6.65Q31.4 6.7 28.8 4.8Q26.15 2.9 21.75 5.5Q17.1 8.35 14.1 6.25L14.5 6.4Q28.35 1.65 41.7 0.75Q29.05 0.75 20.15 2.95Q14.15 4.4 13.1 5.25L13.2 5.4L12.9 5.05L15.8 3.85Q20.15 2.35 24.55 1.5L33.95 0.3L43.65 0L53.35 1.2L62.85 3.6L66.65 4.95L66.55 5.05Q63.5 6.5 59 4.3" />
<path style="fill:#7B7167;fill-opacity:1" d="M42.85 5Q48.45 6.8 51.5 4.45Q54.5 2.05 59 4.3Q63.5 6.5 66.55 5.05Q63.85 8.25 59.7 5.5Q55.45 2.65 51.95 5.55Q48.05 8.5 43.25 5.25L42.85 5" />
<path style="fill:#AFAA9F;fill-opacity:1" d="M13.1 5.25Q14.15 4.4 20.15 2.95Q29.05 0.75 41.7 0.75Q28.35 1.65 14.5 6.4L14.1 6.25L13.2 5.4L13.1 5.25" />
<path style="fill:none;stroke-width:0.7;stroke-linecap:butt;stroke-linejoin:bevel;stroke-miterlimit:3;stroke:#333333;stroke-opacity:0.4" d="M12.9 5.05L15.8 3.85Q20.15 2.35 24.55 1.5L33.95 0.3L43.65 0L53.35 1.2L62.85 3.6L66.65 4.95L68.4 5.6L80.45 11" />
<path style="fill:none;stroke-width:0.7;stroke-linecap:butt;stroke-linejoin:bevel;stroke-miterlimit:3;stroke:#333333;stroke-opacity:0.4" d="M12.9 5.05L0 10.95" />
</g>
</svg>
