<?xml version="1.0" encoding="utf-8"?>
<svg version="1.1" id="Layer_1"
xmlns="http://www.w3.org/2000/svg"
xmlns:xlink="http://www.w3.org/1999/xlink"
width="34px" height="28px"
xml:space="preserve">
<g id="PathID_4370" transform="matrix(1, 0, 0, 1, 0.2, 0.2)">
<path style="fill:#585654;fill-opacity:1" d="M26.45 14L26.8 14.45L27.1 14L27.25 12.95L27.1 11.9L27 11.65L27.45 9.2Q27.75 10.1 28.7 10.15Q30.05 10.3 30.6 9.6L30.9 8.55Q30.85 10.65 31.9 13.35L33.05 16.3Q33.55 17.6 33.45 18.1Q33.3 19.15 32.6 19.75L31.65 20.2Q29.85 20.15 28.9 18.75Q28.55 18.25 28.1 16.8Q27 19.25 27.7 21.55L28.15 22.75L28.45 24.05L28.5 25.05L28.15 26.35Q27.7 27.05 26.6 27.05Q26.25 27.15 25.5 26.5Q24.6 25.75 25.05 24.25L25.4 21.4L25.05 18L26.45 14M27.75 7.35L28.6 8.65L29.1 9.2Q29.5 9.55 29.85 9.2Q30.5 8.5 29.6 7.4Q28.8 6.45 27.95 6.15L28.2 4.75Q28.75 5.05 29.95 6.3Q31.1 7.5 30.9 8.55L30.6 9.6Q30.05 10.3 28.7 10.15Q27.75 10.1 27.45 9.2L27.75 7.35M28.95 17.7Q29.65 18.7 30.95 18.85L32.35 18.65Q31.05 17.9 30.35 16.8Q29.65 15.85 29.1 14.45L28.8 15.9Q28.65 17.3 28.95 17.7M26.2 18.65L25.75 21.85L25.45 25.05Q25.45 25.95 26.35 26Q27.25 26.05 27.6 25.05Q28 23.85 27.2 21.9L26.55 20.3Q26.2 19.3 26.2 18.65M17.15 3.75Q14.15 3.45 13.75 2.5Q13.3 1.55 13.7 1.6L16.45 2.45L18.75 2.25Q19.05 2.75 17.15 3.75" />
<path style="fill:#808080;fill-opacity:1" d="M25.05 18L24.75 16.7Q24.45 15.8 23.85 15.9Q23.5 15.95 23.4 18Q23.3 20.05 22.25 20.2Q21.8 20.25 21.15 19.5L20.35 18.55Q19.4 18.85 19.5 20.05L19.45 21.85L19.25 23.7Q19.1 24.55 18.1 25.45Q17.1 25.45 16.7 24.15L16.35 22.25Q16 20.95 15.45 21Q14.85 21.05 14.65 21.7L14.6 22.5L14.9 24.05L14.95 25.25Q14.85 26.1 14.35 26.25Q13.2 26.55 12.7 25.05L12.15 22.8Q11.85 23.4 11.7 25.15L11.25 26.9Q10.25 27.45 9.9 26.9L9.75 25.55Q9.65 23.2 9.8 20.8Q9.95 17.75 8.45 18Q7.7 18.15 7.9 20.5Q8.2 23.15 7.9 23.65L6.6 25L5.4 25.35L4.3 24.95L3.25 23.8Q2.85 23.2 3.25 22.1L3.5 21.7Q4.35 20.6 4.4 19.25Q4.5 18 4.1 16.8L2.75 19.5Q2.25 20.25 1.45 20.3Q0.35 20.35 0.15 19.2L0 18.4Q0 17.6 0.55 16.7L1.05 15.2L1.35 13.6Q1.35 11.8 2.2 8.8Q4.35 7.3 5.7 5.25Q4.35 7.3 2.2 8.8L1.45 8.65Q1.2 6.95 2.5 5.6L3.8 4.35Q8.95 0.05 11.1 0Q13.25 -0.05 15.65 1.2L16.75 1.65L18.95 1.1L22.55 0.8Q24.75 1 28.2 4.75L27.95 6.15Q28.8 6.45 29.6 7.4Q30.5 8.5 29.85 9.2Q29.5 9.55 29.1 9.2L28.6 8.65L27.75 7.35L27.45 9.2L26.95 7.65L26 6.6L25.2 5.95L26 6.6L26.95 7.65L27.45 9.2L27 11.65Q26.55 11.25 26.45 11.9L26.4 12.95L26.45 14L25.05 18M21.35 6.15Q21.75 8.45 22.25 8.65Q23.05 9.05 23.95 7.55Q24.2 6.5 23.4 5.85L21 3.35L21.35 6.15M21.65 10.25Q21.35 8.45 20.55 7.2Q20.15 7.25 19.9 8.5L19 7.2L18.35 5.8Q17.6 7.1 17.5 8.45L17.6 10.35L18.15 11.5L18.95 12.65L19.6 14.05L20.45 14.2L21.1 13.25L23.95 13.15Q23.8 11.75 22.45 11.15Q21.8 10.9 21.65 10.25M28.8 15.9L29.1 14.45Q29.65 15.85 30.35 16.8Q31.05 17.9 32.35 18.65L30.95 18.85Q29.65 18.7 28.95 17.7Q28.65 17.3 28.8 15.9M26.55 20.3L27.2 21.9Q28 23.85 27.6 25.05Q27.25 26.05 26.35 26Q25.45 25.95 25.45 25.05L25.75 21.85L26.2 18.65Q26.2 19.3 26.55 20.3M18.75 2.25L16.45 2.45L13.7 1.6Q13.3 1.55 13.75 2.5Q14.15 3.45 17.15 3.75Q19.05 2.75 18.75 2.25M11.6 2.95Q10.75 2.9 9.8 3.3Q8.8 3.8 7.25 5.4L5.6 7.45L7.1 7.05L9.6 6.15Q11.6 5.3 12.6 3.15L11.6 2.95M12.2 7.05L12.1 6.15L11.25 6.45L10.35 7L7.75 8.5L5.85 9.6Q4.95 10.2 5.25 11.15L5.55 11.3Q6.3 11.75 7.2 11.7L7.25 12.25L7.7 13.8Q8.25 13.7 9.25 13Q10.6 12.05 11.2 10.65L11.9 8.9L12.2 7.05M14 10.35L13.5 10.9L12.5 15.55L12.4 16.55L12.5 16.9L13.65 16.1Q14.8 16.35 15.9 17.1L16.55 17.05Q17 16.95 16.95 16.85L15.7 13.15L14.85 11.1L14.7 10.75L14.4 10.45L14 10.35M2.95 6.05Q2.1 6.5 1.6 7.45Q1.35 7.9 1.95 7.9L2.95 7.25Q4.6 6.15 4.1 5.4L2.95 6.05M5.2 17.05Q5.55 19.3 5.3 20.1L4.45 22.1L4.15 23L3.95 23.9L6.05 23.7L5.75 22.5Q5.6 21.5 5.75 21.1Q6.1 20.3 5.95 19.15L5.6 17.95L5.2 17.05M2.9 12.45L2.35 10.5Q2.2 11.05 2 13.45L1.55 17.1L1.2 17.8L0.7 18.4L0.25 18.95L0.2 19.15L0.5 19.45L1.85 18.85L2.6 16.75L2.9 15.4L3.05 14L2.9 12.45M14.4 23.95L13.45 25.3L14.3 25.3L14.45 24.55L14.4 23.95M11.35 21.7Q12.1 21.3 12.15 20.75Q12.25 19.6 11.8 18.55Q11.1 18 10.95 19.35L10.95 20.95L11.35 21.7M17.25 23.7Q17.7 24.45 18.15 23.7L18.55 22.2L18.4 20.8L17.7 22Q17.05 23.3 17.25 23.7M10.8 25.75L10.65 24.95L9.95 22.5L9.9 25.2Q9.85 26.5 10.85 26.5L10.8 25.75" />
<path style="fill:#A6A6A6;fill-opacity:1" d="M21 3.35L23.4 5.85Q24.2 6.5 23.95 7.55Q23.05 9.05 22.25 8.65Q21.75 8.45 21.35 6.15L21 3.35M12.6 3.15Q11.6 5.3 9.6 6.15L7.1 7.05L5.6 7.45L7.25 5.4Q8.8 3.8 9.8 3.3Q10.75 2.9 11.6 2.95L12.6 3.15M4.1 5.4Q4.6 6.15 2.95 7.25L1.95 7.9Q1.35 7.9 1.6 7.45Q2.1 6.5 2.95 6.05L4.1 5.4M5.6 17.95L5.95 19.15Q6.1 20.3 5.75 21.1Q5.6 21.5 5.75 22.5L6.05 23.7L3.95 23.9L4.15 23L4.45 22.1L5.3 20.1Q5.55 19.3 5.2 17.05L5.6 17.95M3.05 14L2.9 15.4L2.6 16.75L1.85 18.85L0.5 19.45L0.2 19.15L0.25 18.95L0.7 18.4L1.2 17.8L1.55 17.1L2 13.45Q2.2 11.05 2.35 10.5L2.9 12.45L3.05 14M14.45 24.55L14.3 25.3L13.45 25.3L14.4 23.95L14.45 24.55M17.7 22L18.4 20.8L18.55 22.2L18.15 23.7Q17.7 24.45 17.25 23.7Q17.05 23.3 17.7 22M10.85 26.5Q9.85 26.5 9.9 25.2L9.95 22.5L10.65 24.95L10.8 25.75L10.85 26.5" />
<path style="fill:none;stroke-width:0.7;stroke-linecap:round;stroke-linejoin:round;stroke-miterlimit:3;stroke:#343434;stroke-opacity:0.301961" d="M27.45 9.2Q27.75 10.1 28.7 10.15Q30.05 10.3 30.6 9.6L30.9 8.55Q31.1 7.5 29.95 6.3Q28.75 5.05 28.2 4.75" />
<path style="fill:none;stroke-width:0.7;stroke-linecap:round;stroke-linejoin:round;stroke-miterlimit:3;stroke:#343434;stroke-opacity:0.301961" d="M27.45 9.2L26.95 7.65L26 6.6L25.2 5.95" />
<path style="fill:none;stroke-width:0.7;stroke-linecap:round;stroke-linejoin:round;stroke-miterlimit:3;stroke:#343434;stroke-opacity:0.301961" d="M21.65 10.25Q21.35 8.45 20.55 7.2Q20.15 7.25 19.9 8.5L19 7.2L18.35 5.8Q17.6 7.1 17.5 8.45L17.6 10.35L18.15 11.5L18.95 12.65L19.6 14.05L20.45 14.2L21.1 13.25L23.95 13.15Q23.8 11.75 22.45 11.15Q21.8 10.9 21.65 10.25z" />
<path style="fill:none;stroke-width:0.7;stroke-linecap:round;stroke-linejoin:round;stroke-miterlimit:3;stroke:#343434;stroke-opacity:0.301961" d="M27 11.65Q26.55 11.25 26.45 11.9L26.4 12.95L26.45 14L26.8 14.45L27.1 14L27.25 12.95L27.1 11.9L27 11.65z" />
<path style="fill:none;stroke-width:0.7;stroke-linecap:round;stroke-linejoin:round;stroke-miterlimit:3;stroke:#343434;stroke-opacity:0.301961" d="M28.2 4.75Q24.75 1 22.55 0.8L18.95 1.1L16.75 1.65L15.65 1.2Q13.25 -0.05 11.1 0Q8.95 0.05 3.8 4.35L2.5 5.6Q1.2 6.95 1.45 8.65L2.2 8.8Q4.35 7.3 5.7 5.25" />
<path style="fill:none;stroke-width:0.7;stroke-linecap:round;stroke-linejoin:round;stroke-miterlimit:3;stroke:#343434;stroke-opacity:0.301961" d="M25.05 18L24.75 16.7Q24.45 15.8 23.85 15.9Q23.5 15.95 23.4 18Q23.3 20.05 22.25 20.2Q21.8 20.25 21.15 19.5L20.35 18.55Q19.4 18.85 19.5 20.05L19.45 21.85L19.25 23.7Q19.1 24.55 18.1 25.45Q17.1 25.45 16.7 24.15L16.35 22.25Q16 20.95 15.45 21Q14.85 21.05 14.65 21.7L14.6 22.5L14.9 24.05L14.95 25.25Q14.85 26.1 14.35 26.25Q13.2 26.55 12.7 25.05L12.15 22.8Q11.85 23.4 11.7 25.15L11.25 26.9Q10.25 27.45 9.9 26.9L9.75 25.55Q9.65 23.2 9.8 20.8Q9.95 17.75 8.45 18Q7.7 18.15 7.9 20.5Q8.2 23.15 7.9 23.65L6.6 25L5.4 25.35L4.3 24.95L3.25 23.8Q2.85 23.2 3.25 22.1L3.5 21.7Q4.35 20.6 4.4 19.25Q4.5 18 4.1 16.8L2.75 19.5Q2.25 20.25 1.45 20.3Q0.35 20.35 0.15 19.2L0 18.4Q0 17.6 0.55 16.7L1.05 15.2L1.35 13.6Q1.35 11.8 2.2 8.8" />
<path style="fill:none;stroke-width:0.7;stroke-linecap:round;stroke-linejoin:round;stroke-miterlimit:3;stroke:#343434;stroke-opacity:0.301961" d="M30.9 8.55Q30.85 10.65 31.9 13.35L33.05 16.3Q33.55 17.6 33.45 18.1Q33.3 19.15 32.6 19.75L31.65 20.2Q29.85 20.15 28.9 18.75Q28.55 18.25 28.1 16.8Q27 19.25 27.7 21.55L28.15 22.75L28.45 24.05L28.5 25.05L28.15 26.35Q27.7 27.05 26.6 27.05Q26.25 27.15 25.5 26.5Q24.6 25.75 25.05 24.25L25.4 21.4L25.05 18" />
<path style="fill:none;stroke-width:0.7;stroke-linecap:round;stroke-linejoin:round;stroke-miterlimit:3;stroke:#343434;stroke-opacity:0.301961" d="M11.9 8.9L11.2 10.65Q10.6 12.05 9.25 13Q8.25 13.7 7.7 13.8L7.25 12.25L7.2 11.7Q6.3 11.75 5.55 11.3L5.25 11.15Q4.95 10.2 5.85 9.6L7.75 8.5L10.35 7L11.25 6.45L12.1 6.15L12.2 7.05L11.9 8.9z" />
<path style="fill:none;stroke-width:0.7;stroke-linecap:round;stroke-linejoin:round;stroke-miterlimit:3;stroke:#343434;stroke-opacity:0.301961" d="M14.4 10.45L14.7 10.75L14.85 11.1L15.7 13.15L16.95 16.85Q17 16.95 16.55 17.05L15.9 17.1Q14.8 16.35 13.65 16.1L12.5 16.9L12.4 16.55L12.5 15.55L13.5 10.9L14 10.35L14.4 10.45z" />
<path style="fill:none;stroke-width:0.7;stroke-linecap:round;stroke-linejoin:round;stroke-miterlimit:3;stroke:#343434;stroke-opacity:0.301961" d="M11.35 21.7Q12.1 21.3 12.15 20.75Q12.25 19.6 11.8 18.55Q11.1 18 10.95 19.35L10.95 20.95L11.35 21.7z" />
</g>
</svg>
