<?xml version="1.0" encoding="utf-8"?>
<svg version="1.1" id="Layer_1"
xmlns="http://www.w3.org/2000/svg"
xmlns:xlink="http://www.w3.org/1999/xlink"
width="21px" height="17px"
xml:space="preserve">
<g id="PathID_3910" transform="matrix(1, 0, 0, 1, 12.75, 8.1)">
<path style="fill:#FFFFFF;fill-opacity:0.301961" d="M-10.5 4.55Q-10.25 5.2 -10.45 5.7L-11.15 6.35L-12 6.15L-12.65 5.2L-12.65 4.1Q-12.45 3.6 -11.95 3.45L-11.1 3.6Q-10.65 4 -10.5 4.55" />
</g>
<g id="PathID_3911" transform="matrix(1, 0, 0, 1, 12.75, 8.1)">
<path style="fill:none;stroke-width:2;stroke-linecap:round;stroke-linejoin:miter;stroke-miterlimit:3;stroke:#000000;stroke-opacity:0.8" d="M-4.85 -0.8L0.95 -5.8L6.7 -0.8" />
<path style="fill:none;stroke-width:2;stroke-linecap:round;stroke-linejoin:miter;stroke-miterlimit:3;stroke:#000000;stroke-opacity:0.8" d="M0.65 7.45Q1.3 -0.85 0.95 -5.8" />
</g>
<g id="PathID_3912" transform="matrix(1, 0, 0, 1, 12.75, 8.1)">
</g>
<g id="PathID_3913" transform="matrix(1, 0, 0, 1, 12.75, 8.1)">
<path style="fill:none;stroke-width:2;stroke-linecap:round;stroke-linejoin:round;stroke-miterlimit:3;stroke:#F5FFCD;stroke-opacity:1" d="M5.65 -1.45L3.2 -3.45L-0.1 -6.45Q0.25 -5.4 0.1 -3.4L0 0.9L0.05 3.85L-0.1 6.3" />
<path style="fill:none;stroke-width:2;stroke-linecap:round;stroke-linejoin:round;stroke-miterlimit:3;stroke:#F5FFCD;stroke-opacity:1" d="M-5.9 -1.45L-3.45 -3.05L-0.1 -6.45" />
</g>
</svg>
