<?xml version="1.0" encoding="utf-8"?>
<svg version="1.1" id="Layer_1"
xmlns="http://www.w3.org/2000/svg"
xmlns:xlink="http://www.w3.org/1999/xlink"
width="29px" height="7px"
xml:space="preserve">
<g id="PathID_3379" transform="matrix(1, 0, 0, 1, 0.2, 0.2)">
<path style="fill:#5E5D5D;fill-opacity:1" d="M1 3.85Q0.8 3.35 0.9 2.95Q0.95 2.3 1.55 1.85Q0.95 2.3 0.9 2.95Q0.8 3.35 1 3.85Q0.2 4.1 0.05 2.95L0.05 2.35Q0.25 0.65 3.75 0L6.2 0Q6.85 1.15 7.4 1.15L7.4 3.85L2.65 3.85Q1.65 4.1 1 3.85M3.4 1.95Q2.75 2.25 2.65 2.95L2.65 3.85L2.65 2.95Q2.75 2.25 3.4 1.95" />
<path style="fill:none;stroke-width:0.7;stroke-linecap:round;stroke-linejoin:miter;stroke-miterlimit:5;stroke:#000000;stroke-opacity:0.501961" d="M6.2 0L3.75 0Q0.25 0.65 0.05 2.35L0.05 2.95Q0.2 4.1 1 3.85Q0.8 3.35 0.9 2.95Q0.95 2.3 1.55 1.85" />
<path style="fill:none;stroke-width:0.7;stroke-linecap:round;stroke-linejoin:miter;stroke-miterlimit:5;stroke:#000000;stroke-opacity:0.501961" d="M2.65 3.85L2.65 2.95Q2.75 2.25 3.4 1.95" />
<path style="fill:none;stroke-width:0.7;stroke-linecap:round;stroke-linejoin:miter;stroke-miterlimit:5;stroke:#000000;stroke-opacity:0.501961" d="M7.4 3.85L2.65 3.85Q1.65 4.1 1 3.85" />
</g>
<g id="PathID_3380" transform="matrix(1, 0, 0, 1, 0.2, 0.2)">
<path style="fill:#808080;fill-opacity:1" d="M23.9 0.3L26.85 1.05Q27.7 3 28.5 3.5Q28 3.95 26.45 2.95Q28.1 4.35 27.85 5.9Q27.2 4.85 25.65 4.7L7.4 4.7L7.4 3.7Q6.25 5 5.5 4.7Q5.3 4.15 5.4 3.7Q4.6 5 4.4 3.7L4.4 3.15L4.5 2.65Q5 1 8.65 0.3L23.9 0.3M5.4 3.7L5.75 2.9L6.15 2.4L5.75 2.9L5.4 3.7Q5.3 4.15 5.5 4.7M7.4 3.7Q7.5 2.95 8.05 2.65Q7.5 2.95 7.4 3.7L7.4 4.7" />
<path style="fill:none;stroke-width:0.7;stroke-linecap:round;stroke-linejoin:miter;stroke-miterlimit:5;stroke:#000000;stroke-opacity:0.501961" d="M26.85 1.05Q27.7 3 28.5 3.5Q28 3.95 26.45 2.95Q28.1 4.35 27.85 5.9Q27.2 4.85 25.65 4.7L7.4 4.7Q6.25 5 5.5 4.7Q4.6 5 4.4 3.7L4.4 3.15L4.5 2.65Q5 1 8.65 0.3L23.9 0.3" />
<path style="fill:none;stroke-width:0.7;stroke-linecap:round;stroke-linejoin:miter;stroke-miterlimit:5;stroke:#000000;stroke-opacity:0.501961" d="M5.5 4.7Q5.3 4.15 5.4 3.7L5.75 2.9L6.15 2.4" />
<path style="fill:none;stroke-width:0.7;stroke-linecap:round;stroke-linejoin:miter;stroke-miterlimit:5;stroke:#000000;stroke-opacity:0.501961" d="M7.4 4.7L7.4 3.7Q7.5 2.95 8.05 2.65" />
</g>
</svg>
