<?xml version="1.0" encoding="utf-8"?>
<svg version="1.1" id="Layer_1"
xmlns="http://www.w3.org/2000/svg"
xmlns:xlink="http://www.w3.org/1999/xlink"
width="23px" height="18px"
xml:space="preserve">
<g id="PathID_4291" transform="matrix(1, 0, 0, 1, 0.15, 0.15)">
<path style="fill:#808080;fill-opacity:1" d="M3.1 16.9Q0.75 17.4 0 16.05Q-0.2 13.65 2.05 10.9Q4.3 8.2 8.8 5.2Q10.5 3.95 12.35 2.95Q13.8 2.1 15.35 1.5Q17.3 0.7 19.45 0.15L19.9 1.9Q20.95 1.7 21 0.25Q23.6 1.6 21.3 4.85Q21.6 2.95 19.55 2.3Q16 0.55 8.5 6.6Q3.55 9.9 1.3 14.2Q0.45 16.3 3.1 16.9M4.6 2.1L6.3 1.05Q10.85 -0.95 14.2 0.8L10.9 2Q9.5 0.6 4.6 2.1" />
<path style="fill:#54504E;fill-opacity:1" d="M18.55 3.6Q10.15 5.65 10.95 12.95Q7.1 15.3 3.1 16.9Q0.45 16.3 1.3 14.2Q3.55 9.9 8.5 6.6Q16 0.55 19.55 2.3Q21.6 2.95 21.3 4.85L21.2 5L20.7 5.45Q20.35 4 18.55 3.6M10.9 2Q5.65 4.4 1.85 9.35Q1.55 4.4 4.6 2.1Q9.5 0.6 10.9 2" />
<path style="fill:#343130;fill-opacity:1" d="M20.7 5.45Q16 9.85 10.95 12.95Q10.15 5.65 18.55 3.6Q20.35 4 20.7 5.45" />
<path style="fill:none;stroke-width:0.7;stroke-linecap:round;stroke-linejoin:round;stroke-miterlimit:3;stroke:#000000;stroke-opacity:0.4" d="M15.35 1.5Q17.3 0.7 19.45 0.15L19.9 1.9Q20.95 1.7 21 0.25Q23.6 1.6 21.3 4.85L21.2 5L20.7 5.45Q16 9.85 10.95 12.95Q7.1 15.3 3.1 16.9Q0.75 17.4 0 16.05Q-0.2 13.65 2.05 10.9L1.85 9.35Q1.55 4.4 4.6 2.1L6.3 1.05Q10.85 -0.95 14.2 0.8L15.35 1.5Q13.8 2.1 12.35 2.95Q10.5 3.95 8.8 5.2Q4.3 8.2 2.05 10.9" />
<path style="fill:none;stroke-width:0.7;stroke-linecap:round;stroke-linejoin:round;stroke-miterlimit:3;stroke:#000000;stroke-opacity:0.4" d="M14.2 0.8L10.9 2Q5.65 4.4 1.85 9.35" />
<path style="fill:none;stroke-width:0.7;stroke-linecap:round;stroke-linejoin:round;stroke-miterlimit:3;stroke:#000000;stroke-opacity:0.4" d="M10.95 12.95Q10.15 5.65 18.55 3.6" />
</g>
</svg>
