<?xml version="1.0" encoding="utf-8"?>
<svg version="1.1" id="Layer_1"
xmlns="http://www.w3.org/2000/svg"
xmlns:xlink="http://www.w3.org/1999/xlink"
width="101px" height="11px"
xml:space="preserve">
<g id="PathID_2663" transform="matrix(1, 0, 0, 1, 0.25, 0.25)">
<path style="fill:#54504E;fill-opacity:1" d="M77.3 7.2L88.45 7.2L91.4 10L80.5 10L77.3 7.2M63.65 7.2L66.6 10L54.15 10L50.95 7.2L63.65 7.2M23.85 7.2L37.35 7.2L40.3 10L27 10L23.85 7.2M10.25 7.2L13.2 10L0.65 10Q0.05 9.9 0 9L0 7.2L10.25 7.2" />
<path style="fill:#808080;fill-opacity:1" d="M94 0L100 0L100 5.35L94 0M10.25 7.2L0 7.2L0 1.3Q-0.05 0.25 0.65 0L2.7 0L10.25 7.2M37.35 7.2L23.85 7.2L15.7 0L29.75 0L37.35 7.2M63.65 7.2L50.95 7.2L42.85 0L56.05 0L63.65 7.2M88.45 7.2L77.3 7.2L69.2 0L80.85 0L88.45 7.2" />
<path style="fill:none;stroke-width:0.7;stroke-linecap:butt;stroke-linejoin:bevel;stroke-miterlimit:3;stroke:#000000;stroke-opacity:0.501961" d="M100 5.35L100 0L94 0" />
<path style="fill:none;stroke-width:0.7;stroke-linecap:butt;stroke-linejoin:bevel;stroke-miterlimit:3;stroke:#000000;stroke-opacity:0.501961" d="M100 5.35L100 10L99.85 10L91.4 10L80.5 10L66.6 10L54.15 10L40.3 10L27 10L13.2 10L0.65 10Q0.05 9.9 0 9L0 7.2L0 1.3Q-0.05 0.25 0.65 0L2.7 0L15.7 0L29.75 0L42.85 0L56.05 0L69.2 0L80.85 0L94 0" />
</g>
</svg>
