<?xml version="1.0" encoding="utf-8"?>
<svg version="1.1" id="Layer_1"
xmlns="http://www.w3.org/2000/svg"
xmlns:xlink="http://www.w3.org/1999/xlink"
width="36px" height="34px"
xml:space="preserve">
<g id="PathID_4262" transform="matrix(1, 0, 0, 1, 0.15, 0.15)">
<path style="fill:#646464;fill-opacity:1" d="M33.05 7.65Q35.1 10.75 35.1 14.55Q35.1 20.6 29.95 24.85Q25.25 28.8 18.8 29.15Q23.65 30.85 22.85 31.55L17.55 29.15L16.45 29.15L14.8 31.15L19.15 31.15L14.75 29Q12.1 28.65 9.8 27.7Q19.2 28.2 25 22.45Q31.6 15.85 28 7.15Q31.15 5.75 33.5 1.5Q33.9 2.9 33.05 7.65M22.85 31.55Q20.9 31.2 20.35 32.55Q19.15 34.1 16.55 33.05Q15.75 32 14.2 32.85Q13.05 33.15 11.8 32.55Q11.1 31.1 14.75 29L16.45 29.15L17.55 29.15L18.8 29.15M1.35 1.05Q1 5.55 3.2 7.4Q1.9 8.2 0.85 10.05L0.95 9.7Q0.35 6.25 1.35 1.05M19.15 31.15L16.45 29.15M14.8 31.15L16.45 29.15" />
<radialGradient
id="RadialGradID_1853" gradientUnits="userSpaceOnUse" gradientTransform="matrix(0.0261841, 0, 0, 0.0261841, 14.6, 6.7)" spreadMethod ="pad" cx="0" cy="0" r="819.2" fx="3" fy="0" >
<stop  offset="0.0117647"  style="stop-color:#C2C2C2;stop-opacity:1" />
<stop  offset="1"  style="stop-color:#808080;stop-opacity:1" />
</radialGradient>
<path style="fill:url(#RadialGradID_1853) " d="M5.15 24.85Q0 20.6 0 14.55Q0 12.15 0.85 10.05Q1.9 8.2 3.2 7.4Q1 5.55 1.35 1.05Q3.25 0.25 7.85 2.4Q12.1 0 17.55 0Q22.75 0 26.9 2.2Q29.65 0.3 32.75 0.85Q33.25 0.8 33.5 1.5Q31.15 5.75 28 7.15Q31.6 15.85 25 22.45Q19.2 28.2 9.8 27.7Q7.3 26.65 5.15 24.85" />
<path style="fill:none;stroke-width:0.7;stroke-linecap:round;stroke-linejoin:round;stroke-miterlimit:3;stroke:#000000;stroke-opacity:0.301961" d="M9.8 27.7Q12.1 28.65 14.75 29L16.45 29.15L17.55 29.15L18.8 29.15Q25.25 28.8 29.95 24.85Q35.1 20.6 35.1 14.55Q35.1 10.75 33.05 7.65Q33.9 2.9 33.5 1.5Q33.25 0.8 32.75 0.85Q29.65 0.3 26.9 2.2Q22.75 0 17.55 0Q12.1 0 7.85 2.4Q3.25 0.25 1.35 1.05" />
<path style="fill:none;stroke-width:0.7;stroke-linecap:round;stroke-linejoin:round;stroke-miterlimit:3;stroke:#000000;stroke-opacity:0.301961" d="M0.85 10.05Q0 12.15 0 14.55Q0 20.6 5.15 24.85Q7.3 26.65 9.8 27.7" />
<path style="fill:none;stroke-width:0.7;stroke-linecap:round;stroke-linejoin:round;stroke-miterlimit:3;stroke:#000000;stroke-opacity:0.301961" d="M0.85 10.05L0.95 9.7Q0.35 6.25 1.35 1.05" />
<path style="fill:none;stroke-width:0.7;stroke-linecap:round;stroke-linejoin:round;stroke-miterlimit:3;stroke:#000000;stroke-opacity:0.301961" d="M18.8 29.15Q23.65 30.85 22.85 31.55Q20.9 31.2 20.35 32.55Q19.15 34.1 16.55 33.05Q15.75 32 14.2 32.85Q13.05 33.15 11.8 32.55Q11.1 31.1 14.75 29" />
<path style="fill:none;stroke-width:0.7;stroke-linecap:round;stroke-linejoin:round;stroke-miterlimit:3;stroke:#000000;stroke-opacity:0.301961" d="M19.15 31.15L16.45 29.15L14.8 31.15" />
</g>
</svg>
