<?xml version="1.0" encoding="utf-8"?>
<svg version="1.1" id="Layer_1"
xmlns="http://www.w3.org/2000/svg"
xmlns:xlink="http://www.w3.org/1999/xlink"
width="101px" height="11px"
xml:space="preserve">
<g id="PathID_2735" transform="matrix(1, 0, 0, 1, 50.3, 5.25)">
<path style="fill:#DEDEDE;fill-opacity:1" d="M-48.95 -3.65L-48.95 -3.55L-50.05 0.35L-50.05 -3.7Q-50.1 -4.75 -49.4 -5L49.05 -5Q50.05 -4.85 50.05 -3.55L50.05 2.1L48.75 -3.15L48.7 -3.3L13.9 -3.4L12.05 2.35L12.45 -3.4L12.45 -3.85L12.45 -3.4L4.1 -3.45L-36.3 -3.6L-48.95 -3.65M-36.45 -4.15L-36.3 -3.6L-36.45 -4.15" />
<linearGradient
id="LinearGradID_1398" gradientUnits="userSpaceOnUse" gradientTransform="matrix(0.0373535, 0, 0, 0.013855, -1, -18.85)" spreadMethod ="pad" x1="-819.2" y1="0" x2="819.2" y2="0" >
<stop  offset="0" style="stop-color:#808080;stop-opacity:1" />
<stop  offset="0.376471" style="stop-color:#C4C4C4;stop-opacity:1" />
<stop  offset="0.666667" style="stop-color:#9C9C9C;stop-opacity:1" />
<stop  offset="0.854902" style="stop-color:#ADADAD;stop-opacity:1" />
<stop  offset="1" style="stop-color:#808080;stop-opacity:1" />
</linearGradient>
<path style="fill:url(#LinearGradID_1398) " d="M-48.95 -3.55L-48.95 -3.65L-36.3 -3.6L4.1 -3.45L12.45 -3.4L12.05 2.35L13.9 -3.4L48.7 -3.3L48.75 -3.15L48.65 3.55L-48.95 3.55L-48.95 -3.55M-34.55 3.05L-36.3 -3.6L-34.55 3.05" />
<path style="fill:#626262;fill-opacity:1" d="M-50.05 0.35L-48.95 -3.55L-48.95 3.55L48.65 3.55L48.75 -3.15L50.05 2.1L50.05 3.65Q49.95 4.8 48.9 5L-49.4 5Q-50 4.9 -50.05 4L-50.05 0.35" />
<path style="fill:none;stroke-width:0.7;stroke-linecap:round;stroke-linejoin:miter;stroke-miterlimit:5;stroke:#000000;stroke-opacity:0.501961" d="M12.45 -3.4L12.45 -3.85" />
<path style="fill:none;stroke-width:0.7;stroke-linecap:round;stroke-linejoin:miter;stroke-miterlimit:5;stroke:#000000;stroke-opacity:0.501961" d="M50.05 2.1L50.05 -3.55Q50.05 -4.85 49.05 -5L-49.4 -5Q-50.1 -4.75 -50.05 -3.7L-50.05 0.35" />
<path style="fill:none;stroke-width:0.7;stroke-linecap:round;stroke-linejoin:miter;stroke-miterlimit:5;stroke:#000000;stroke-opacity:0.501961" d="M-36.3 -3.6L-36.45 -4.15" />
<path style="fill:none;stroke-width:0.7;stroke-linecap:round;stroke-linejoin:miter;stroke-miterlimit:5;stroke:#000000;stroke-opacity:0.501961" d="M50.05 2.1L50.05 3.65Q49.95 4.8 48.9 5L-49.4 5Q-50 4.9 -50.05 4L-50.05 0.35" />
<path style="fill:none;stroke-width:0.7;stroke-linecap:round;stroke-linejoin:miter;stroke-miterlimit:5;stroke:#000000;stroke-opacity:0.501961" d="M12.45 -3.4L12.05 2.35" />
<path style="fill:none;stroke-width:0.7;stroke-linecap:round;stroke-linejoin:miter;stroke-miterlimit:5;stroke:#000000;stroke-opacity:0.501961" d="M-36.3 -3.6L-34.55 3.05" />
</g>
</svg>
