<?xml version="1.0" encoding="utf-8"?>
<svg version="1.1" id="Layer_1"
xmlns="http://www.w3.org/2000/svg"
xmlns:xlink="http://www.w3.org/1999/xlink"
width="32px" height="31px"
xml:space="preserve">
<g id="PathID_4458" transform="matrix(1, 0, 0, 1, 15.65, 15.2)">
<path style="fill:#808080;fill-opacity:1" d="M13.5 -2.35Q13.2 -2.8 13.05 -3.35L12.25 -7.05Q12.05 -7.95 12.15 -8.65Q13.4 -6.85 14.05 -5.3L14.5 -4.2Q13.6 -3.3 13.5 -2.35M14.9 -2.8L15.2 0.25L15.05 3.5Q14.8 5.2 13.85 6.9L12.3 8.75L10.45 10.5Q6.25 14.75 0.1 14.75Q-3.85 14.75 -6.4 13.55L-8.65 12.55L-10.8 11.1L-12.3 9.2L-13.4 7.8L-14.35 6.4Q-15 4.9 -15.1 1.7Q-14.7 3.15 -13.55 4.3Q-12.8 5.1 -12.3 6Q-11.8 6.9 -10.8 7.2L-10.35 7.6L-10.2 8.1L-10 8.55L-9.5 8.9L-9 8.95L-8.55 9.55L-3.65 9.8Q-4.9 10.55 -6.35 10.45Q-6.7 10.5 -6.85 10.7L-6.75 11.1L-6.55 11.6L-1.25 11.4L2.5 10.7L3.3 11.1L3.85 11.3L7.1 9.45L7.2 9.4L5.85 11.3Q7.55 11.5 9.15 9.75Q10.4 8.3 12.15 7.3L12.2 7.35L12.65 6.4L12.6 5.55Q13.75 4.05 14 2.15L14.2 0.7L13.7 -0.45Q13.55 -0.9 13.75 -1.35L14.6 -2.35L14.9 -2.8M6.15 -7.6L7.4 -7.8L9.25 -7.05L9.85 -6.6Q10.95 -5.1 10.05 -3.5L8.95 -1.1Q7.8 -0.05 6.1 -0.2Q5.1 -0.25 4.5 -0.7L4.3 -1.3Q3.4 -3.05 3.9 -4.9L4 -5.3Q4.5 -5.35 4.75 -5.9L5 -6.6L5.75 -7.3L6.15 -7.6M0.6 -3.15Q2 -1.35 1.3 0.55L1.05 0.95Q0.85 1.85 0.15 2.55L-1.35 2.45Q-3.8 2.8 -4.55 0.75L-4.85 -0.35Q-5.25 -2.55 -3.9 -4.05Q-3.2 -4.85 -1.55 -4.45Q-0.1 -4.15 0.2 -3.7L0.25 -3.45L0.45 -3.1L0.6 -3.15" />
<radialGradient
id="RadialGradID_1916" gradientUnits="userSpaceOnUse" gradientTransform="matrix(0.019104, 0, 0, 0.019104, -0.15, -1.55)" spreadMethod ="pad" cx="0" cy="0" r="819.2" fx="0" fy="0" >
<stop  offset="0.196078"  style="stop-color:#808080;stop-opacity:0" />
<stop  offset="1"  style="stop-color:#808080;stop-opacity:0.498039" />
</radialGradient>
<path style="fill:url(#RadialGradID_1916) " d="M14.5 -4.2L14.9 -2.8L14.6 -2.35L13.75 -1.35Q13.55 -0.9 13.7 -0.45L14.2 0.7L14 2.15Q13.75 4.05 12.6 5.55L12.65 6.4L12.2 7.35L12.15 7.3Q10.4 8.3 9.15 9.75Q7.55 11.5 5.85 11.3L7.2 9.4L7.1 9.45L3.85 11.3L3.3 11.1L2.5 10.7L-1.25 11.4L-6.55 11.6L-6.75 11.1L-6.85 10.7Q-6.7 10.5 -6.35 10.45Q-4.9 10.55 -3.65 9.8L-8.55 9.55L-9 8.95L-9.5 8.9L-10 8.55L-10.2 8.1L-10.35 7.6L-10.8 7.2Q-11.8 6.9 -12.3 6Q-12.8 5.1 -13.55 4.3Q-14.7 3.15 -15.1 1.7L-15.1 1.65L-15.15 -0.1Q-15.15 -3.65 -13.75 -6.55Q-13.1 -7.95 -10.5 -10.45Q-9.3 -11.65 -7.65 -12.6Q-5.85 -13.7 -4.5 -13.9L-1.8 -14.45L0.1 -14.7Q2.85 -14.7 6.55 -12.75L9.35 -11.5Q10.4 -11.05 11.05 -10.2L12.15 -8.65Q12.05 -7.95 12.25 -7.05L13.05 -3.35Q13.2 -2.8 13.5 -2.35Q13.6 -3.3 14.5 -4.2M5.75 -7.3L5 -6.6L4.75 -5.9Q4.5 -5.35 4 -5.3L3.9 -4.9Q3.4 -3.05 4.3 -1.3L4.5 -0.7Q5.1 -0.25 6.1 -0.2Q7.8 -0.05 8.95 -1.1L10.05 -3.5Q10.95 -5.1 9.85 -6.6L9.25 -7.05L7.4 -7.8L6.15 -7.6L5.75 -7.3M0.45 -3.1L0.25 -3.45L0.2 -3.7Q-0.1 -4.15 -1.55 -4.45Q-3.2 -4.85 -3.9 -4.05Q-5.25 -2.55 -4.85 -0.35L-4.55 0.75Q-3.8 2.8 -1.35 2.45L0.15 2.55Q0.85 1.85 1.05 0.95L1.3 0.55Q2 -1.35 0.6 -3.15L0.45 -3.1" />
<path style="fill:none;stroke-width:1;stroke-linecap:round;stroke-linejoin:round;stroke-miterlimit:3;stroke:#000000;stroke-opacity:0.301961" d="M-15.1 1.7L-15.1 1.65L-15.15 -0.1Q-15.15 -3.65 -13.75 -6.55Q-13.1 -7.95 -10.5 -10.45Q-9.3 -11.65 -7.65 -12.6Q-5.85 -13.7 -4.5 -13.9L-1.8 -14.45L0.1 -14.7Q2.85 -14.7 6.55 -12.75L9.35 -11.5Q10.4 -11.05 11.05 -10.2L12.15 -8.65Q13.4 -6.85 14.05 -5.3L14.5 -4.2L14.9 -2.8L15.2 0.25L15.05 3.5Q14.8 5.2 13.85 6.9L12.3 8.75L10.45 10.5Q6.25 14.75 0.1 14.75Q-3.85 14.75 -6.4 13.55L-8.65 12.55L-10.8 11.1L-12.3 9.2L-13.4 7.8L-14.35 6.4Q-15 4.9 -15.1 1.7z" />
</g>
<g id="PathID_4459" transform="matrix(1, 0, 0, 1, 15.65, 15.2)">
<path style="fill:#808080;fill-opacity:1" d="M11.3 -2.5Q12.1 -2.35 12 -1.6Q11.95 -0.85 11.25 -0.6L10.55 -0.2L10.5 -0.05L10.45 0.15L10.25 0.4L10.15 0.45L10 0.35L10 0.3L9.9 0.15L9.85 0.05L9.8 0L9.85 -0.9Q9.95 -1.45 10.3 -1.85L11.3 -2.5M-8.2 1.2L-8.7 0.65Q-4.3 1.15 -3.6 4.25Q-3 7.25 -5.3 7.8L-5.3 6.6Q-5.35 5.4 -5.5 5.2Q-5.8 4.7 -6.6 4.35L-7.75 3.9L-7.85 2.35Q-7.7 1.8 -8.2 1.2" />
</g>
<g id="PathID_4460" transform="matrix(1, 0, 0, 1, 15.65, 15.2)">
<path style="fill:#808080;fill-opacity:0.34902" d="M1.15 -12.65L1.15 -12.3L0.7 -12.3L0.7 -12.65L1.15 -12.65M8.95 -9.55L9.3 -9.7L9.65 -9.55L9.8 -9.3L9.65 -9L9.3 -8.9L8.95 -9L8.8 -9.3L8.95 -9.55M7.7 -10.2Q7.6 -10 7.25 -10L6.45 -10.25L5.85 -10.8Q5.65 -11.15 5.75 -11.35Q5.9 -11.6 6.25 -11.5L7.05 -11.3L7.65 -10.7L7.7 -10.2M-11.45 -4.95L-12.3 -4.1Q-13.3 -4.1 -12.85 -4.35L-11.85 -6.8L-10.8 -6.85Q-10.6 -5.95 -11.45 -4.95M-1.2 -10.3L-1.55 -10.2L-1.9 -10.3L-2.05 -10.6L-1.9 -10.85L-1.55 -11L-1.2 -10.85L-1.05 -10.6L-1.2 -10.3M-4.65 -10.75Q-4.65 -10.5 -4.95 -10.3L-5.8 -10.15L-6.6 -10.3L-6.95 -10.75L-6.6 -11.15L-5.8 -11.35L-4.95 -11.15L-4.65 -10.75M-8.45 -7.2L-8.7 -7.75L-8.45 -8.25L-7.85 -8.5L-7.25 -8.25L-7 -7.75L-7.25 -7.2L-7.85 -7L-8.45 -7.2" />
</g>
</svg>
