<?xml version="1.0" encoding="utf-8"?>
<svg version="1.1" id="Layer_1"
xmlns="http://www.w3.org/2000/svg"
xmlns:xlink="http://www.w3.org/1999/xlink"
width="31px" height="14px"
xml:space="preserve">
<g id="PathID_4483" transform="matrix(1, 0, 0, 1, 0.2, 0.2)">
<path style="fill:#54504E;fill-opacity:1" d="M25.45 4.4Q27.65 6.75 28.8 9.55Q29.45 11.05 29.75 13.1L27.15 13.1L27.15 12.4Q27.15 6.7 23.4 2.55L25.45 4.4" />
<path style="fill:#808080;fill-opacity:1" d="M19.75 13.1Q19.3 11.85 18.65 11.2Q17.1 9.6 14.8 9.6Q12.6 9.6 11 11.2Q10.4 11.85 9.95 13.1L0 13.1Q1.8 6.1 6.4 2.7Q10.1 -0.05 14.85 0Q17.6 0.05 19.9 0.75Q22.15 1.45 23.4 2.55Q27.15 6.7 27.15 12.4L27.15 13.1L19.75 13.1M5.5 5.6Q5.3 6.35 6.9 6.35Q8.5 6.35 9.6 5.25Q10.5 4.4 10.5 3.65Q10.5 2 8 2.95Q5.5 3.85 5.5 5.6M4.8 8.3L5.2 7.35L5.15 7.05L4.5 7Q3.9 7 3.65 7.4L3.3 8.05L3.3 9L3.7 9.1Q4.3 9.1 4.8 8.3" />
<path style="fill:#B8B8B8;fill-opacity:1" d="M8 2.95Q10.5 2 10.5 3.65Q10.5 4.4 9.6 5.25Q8.5 6.35 6.9 6.35Q5.3 6.35 5.5 5.6Q5.5 3.85 8 2.95M3.7 9.1L3.3 9L3.3 8.05L3.65 7.4Q3.9 7 4.5 7L5.15 7.05L5.2 7.35L4.8 8.3Q4.3 9.1 3.7 9.1" />
<path style="fill:none;stroke-width:0.7;stroke-linecap:round;stroke-linejoin:round;stroke-miterlimit:3;stroke:#000000;stroke-opacity:0.4" d="M27.15 13.1L29.75 13.1Q29.45 11.05 28.8 9.55Q27.65 6.75 25.45 4.4L23.4 2.55Q22.15 1.45 19.9 0.75Q17.6 0.05 14.85 0Q10.1 -0.05 6.4 2.7Q1.8 6.1 0 13.1L9.95 13.1Q10.4 11.85 11 11.2Q12.6 9.6 14.8 9.6Q17.1 9.6 18.65 11.2Q19.3 11.85 19.75 13.1L27.15 13.1z" />
</g>
</svg>
