<?xml version="1.0" encoding="utf-8"?>
<svg version="1.1" id="Layer_1"
xmlns="http://www.w3.org/2000/svg"
xmlns:xlink="http://www.w3.org/1999/xlink"
width="25px" height="28px"
xml:space="preserve">
<g id="PathID_2935" transform="matrix(1, 0, 0, 1, 0, 0)">
<path style="fill:#808080;fill-opacity:0.901961" d="M23.6 8.45L20.9 9.9L22.65 9.9Q24.85 10.9 22.65 12.3L17.9 11.5L14.4 13.75L18.15 15.65L21.8 15.15Q25.15 15.9 22.65 17.45L21.5 17.45L23.85 18.8Q24.85 20.55 22.65 21.05L20.05 19.4L20.85 21.05Q21.1 23.45 18.85 21.9L17.05 17.8L13.2 15.8L13.45 19.85L15.5 22.95Q16.55 26.05 14.2 24.65L13.45 23.65L13.55 26.45Q12.4 28.2 10.85 26.45L11.15 23.2L10.2 24.75Q7.85 26.2 8.2 23.45L10.85 19.85L11.15 15.8L7.2 18.05L5.45 22.15Q3.15 23.65 3.3 21.05L4.35 19.4L1.5 21.05Q-0.8 20.55 0.4 18.8L2.8 17.55L1.6 17.45Q-0.8 16.25 2.2 15.4L5.9 15.65L9.95 13.75L6.15 11.8L1.6 12.3Q-0.65 11.1 1.5 9.9L3.3 9.9L0.5 8.45Q-0.2 6.2 1.85 6.35L4.1 7.65L3.85 6.65Q3.75 3.8 5.9 6.2L7.45 9.55L10.7 11.35L10.7 7.4L8.75 4.3Q7.8 1.2 10.1 2.7L10.7 3.7L10.7 1.05Q11.9 -0.95 13.45 0.8L13.2 4.05L14.05 2.7Q16.1 1.2 15.95 3.9L13.2 7.4L13.2 11.5L16.8 9.45L18.25 6.2Q20.75 3.7 20.5 6.45L20.05 7.65L22.2 6.2Q24.45 6.2 23.6 8.45" />
</g>
</svg>
