<?xml version="1.0" encoding="utf-8"?>
<svg version="1.1" id="Layer_1"
xmlns="http://www.w3.org/2000/svg"
xmlns:xlink="http://www.w3.org/1999/xlink"
width="25px" height="6px"
xml:space="preserve">
<g id="PathID_4361" transform="matrix(1, 0, 0, 1, 0.05, 0.2)">
<path style="fill:#54504E;fill-opacity:1" d="M1.45 0Q13.4 3.55 22.8 0.1L24 2.65L24.4 3.85L21.95 4.9Q18.7 4.5 18.1 2.95Q8.55 4.55 1.45 0" />
<path style="fill:#808080;fill-opacity:1" d="M18.1 2.95Q18.7 4.5 21.95 4.9L19.65 5.35L15.45 5.6L12.05 5.65Q3.1 5.55 0.65 4.2L0 3.75L0.45 2.55L1.45 0Q8.55 4.55 18.1 2.95" />
<path style="fill:none;stroke-width:0.7;stroke-linecap:round;stroke-linejoin:round;stroke-miterlimit:3;stroke:#000000;stroke-opacity:0.4" d="M22.8 0.1L24 2.65" />
<path style="fill:none;stroke-width:0.7;stroke-linecap:round;stroke-linejoin:miter;stroke-miterlimit:5;stroke:#000000;stroke-opacity:0.298039" d="M24 2.65L24.4 3.85L21.95 4.9L19.65 5.35L15.45 5.6L12.05 5.65Q3.1 5.55 0.65 4.2L0 3.75L0.45 2.55" />
<path style="fill:none;stroke-width:0.7;stroke-linecap:round;stroke-linejoin:round;stroke-miterlimit:3;stroke:#000000;stroke-opacity:0.4" d="M0.45 2.55L1.45 0" />
<path style="fill:none;stroke-width:0.7;stroke-linecap:round;stroke-linejoin:miter;stroke-miterlimit:5;stroke:#000000;stroke-opacity:0.298039" d="M1.45 0Q13.4 3.55 22.8 0.1" />
</g>
</svg>
