<?xml version="1.0" encoding="utf-8"?>
<svg version="1.1" id="Layer_1"
xmlns="http://www.w3.org/2000/svg"
xmlns:xlink="http://www.w3.org/1999/xlink"
width="30px" height="29px"
xml:space="preserve">
<g id="PathID_3949" transform="matrix(1, 0, 0, 1, 0.15, 0.15)">
<path style="fill:#585756;fill-opacity:1" d="M24.1 10.5Q23.9 9.5 23.5 8.95L23.75 8.5L24.45 10.1L24.1 10.5M21.65 4.95L21.25 5.45L19.7 4.5L19.9 4Q20.9 4.3 21.65 4.95M29.5 14.55L28.9 17.55L28.5 17.45Q29 16.25 29.05 14.55L29.5 14.55M24.75 17.1L25.1 15.15L28.45 14.6Q28.25 16.15 27.85 17.3L24.75 17.1M16.05 8.65L16.05 9.55L15.1 9.95L14.9 9.05Q15.5 8.7 16.05 8.65M11.35 5.7Q10.85 6.05 10.5 6.55L10 6.35L11.1 5.15L11.6 5.45L11.35 5.7M19.9 12.05L19.45 12.05L19.2 11.15L19.85 11.1L19.9 12.05M8.4 1.3L8.5 1.9L7.45 2.75L7.05 2.25L8.4 1.3M9.6 14.65L9.15 15.05L8.8 13.55L9.25 13.3L9.6 14.65M4.45 17.65L5.9 17.45L7.2 17.15Q8.7 16.65 9.45 15.65L10.25 16.95Q9.85 18.3 8.85 19.15Q7.85 20.1 6.2 20.45Q5.15 19.15 4.45 17.65M4.25 17.25Q2.8 17.35 1.75 18.25L0.95 19.15L0 16.45Q0.5 15.55 1.9 14.95L3.45 14.55L3.75 15.7L4.25 17.25M18.25 14.5L19.05 15L18.4 16L17.85 15.5L18.25 14.5M16.65 18.15L17.55 17.35Q18.95 21 21.75 21.55L20 22.7Q18.1 21.65 17.2 19.8L16.65 18.15M14.7 19.1L13.7 19.1L13.1 19L13.55 17.95L14.9 18L14.7 19.1M13.5 24.1L15.2 24.05Q15.25 26.1 16.35 27.75L13.45 27.8Q12.75 26 13.5 24.1" />
<radialGradient
id="RadialGradID_1730" gradientUnits="userSpaceOnUse" gradientTransform="matrix(0.0252838, 0, 0, 0.0252838, 9.4, -5.35)" spreadMethod ="pad" cx="0" cy="0" r="819.2" fx="0" fy="0" >
<stop  offset="0"  style="stop-color:#BFBFBF;stop-opacity:1" />
<stop  offset="0.956863"  style="stop-color:#808080;stop-opacity:1" />
</radialGradient>
<path style="fill:url(#RadialGradID_1730) " d="M19.9 12.05L19.85 11.1Q22.3 10.85 23.5 8.95Q23.9 9.5 24.1 10.5Q22.5 12.05 19.9 12.05M19.9 4Q20.95 1.65 22.65 0.4L23.6 0.85L25.35 2.35Q22.75 3.5 21.65 4.95Q20.9 4.3 19.9 4M14.9 9.05Q14.2 6.1 12.05 5.15L12.95 4.7Q13.8 4.3 14.15 4.25Q16.05 5.9 16.05 8.65Q15.5 8.7 14.9 9.05M6.8 3.3L7.45 2.75L8.5 1.9L9.05 1.55Q9.35 3.85 11.1 5.15L10 6.35Q7.6 5.25 6.8 3.3M7.05 2.25Q6.2 1.2 5.05 1.25Q5.9 0.55 6.8 0Q8 0.35 8.4 1.3L7.05 2.25M9.25 13.3Q10 12.85 11.35 12.7L13 12.7L13.3 12.75L13.35 13.4L10.85 13.95L9.6 14.65L9.25 13.3M17.85 15.5Q16.95 14.7 15.9 14.4L15.05 14.25L15.85 13.95L18.25 14.5L17.85 15.5M14.7 15.55Q15 16.75 14.9 18L13.55 17.95L13.95 15.3L13.9 14.2L14.3 14.3L14.7 15.55" />
<path style="fill:#808080;fill-opacity:1" d="M27.85 17.3Q28.25 16.15 28.45 14.6L29.05 14.55Q29 16.25 28.5 17.45L27.85 17.3" />
<path style="fill:none;stroke-width:0.7;stroke-linecap:round;stroke-linejoin:round;stroke-miterlimit:3;stroke:#000000;stroke-opacity:0.4" d="M24.45 10.1L23.75 8.5" />
<path style="fill:none;stroke-width:0.7;stroke-linecap:round;stroke-linejoin:round;stroke-miterlimit:3;stroke:#000000;stroke-opacity:0.4" d="M22.65 0.4L23.6 0.85L25.35 2.35" />
<path style="fill:none;stroke-width:0.7;stroke-linecap:round;stroke-linejoin:round;stroke-miterlimit:3;stroke:#000000;stroke-opacity:0.4" d="M21.25 5.45L19.7 4.5" />
<path style="fill:none;stroke-width:0.7;stroke-linecap:round;stroke-linejoin:round;stroke-miterlimit:3;stroke:#000000;stroke-opacity:0.4" d="M28.9 17.55L29.5 14.55" />
<path style="fill:none;stroke-width:0.7;stroke-linecap:round;stroke-linejoin:round;stroke-miterlimit:3;stroke:#000000;stroke-opacity:0.4" d="M24.75 17.1L25.1 15.15" />
<path style="fill:none;stroke-width:0.7;stroke-linecap:round;stroke-linejoin:round;stroke-miterlimit:3;stroke:#000000;stroke-opacity:0.4" d="M12.05 5.15L12.95 4.7Q13.8 4.3 14.15 4.25" />
<path style="fill:none;stroke-width:0.7;stroke-linecap:round;stroke-linejoin:round;stroke-miterlimit:3;stroke:#000000;stroke-opacity:0.4" d="M16.05 9.55L15.1 9.95" />
<path style="fill:none;stroke-width:0.7;stroke-linecap:round;stroke-linejoin:round;stroke-miterlimit:3;stroke:#000000;stroke-opacity:0.4" d="M10.5 6.55Q10.85 6.05 11.35 5.7L11.6 5.45" />
<path style="fill:none;stroke-width:0.7;stroke-linecap:round;stroke-linejoin:round;stroke-miterlimit:3;stroke:#000000;stroke-opacity:0.4" d="M19.45 12.05L19.2 11.15" />
<path style="fill:none;stroke-width:0.7;stroke-linecap:round;stroke-linejoin:round;stroke-miterlimit:3;stroke:#000000;stroke-opacity:0.4" d="M7.45 2.75L6.8 3.3" />
<path style="fill:none;stroke-width:0.7;stroke-linecap:round;stroke-linejoin:round;stroke-miterlimit:3;stroke:#000000;stroke-opacity:0.4" d="M8.5 1.9L7.45 2.75" />
<path style="fill:none;stroke-width:0.7;stroke-linecap:round;stroke-linejoin:round;stroke-miterlimit:3;stroke:#000000;stroke-opacity:0.4" d="M5.05 1.25Q5.9 0.55 6.8 0" />
<path style="fill:none;stroke-width:0.7;stroke-linecap:round;stroke-linejoin:round;stroke-miterlimit:3;stroke:#000000;stroke-opacity:0.4" d="M8.5 1.9L9.05 1.55" />
<path style="fill:none;stroke-width:0.7;stroke-linecap:round;stroke-linejoin:round;stroke-miterlimit:3;stroke:#000000;stroke-opacity:0.4" d="M9.15 15.05L8.8 13.55" />
<path style="fill:none;stroke-width:0.7;stroke-linecap:round;stroke-linejoin:round;stroke-miterlimit:3;stroke:#000000;stroke-opacity:0.4" d="M13.3 12.75L13.35 13.4" />
<path style="fill:none;stroke-width:0.7;stroke-linecap:round;stroke-linejoin:round;stroke-miterlimit:3;stroke:#000000;stroke-opacity:0.4" d="M9.45 15.65L10.25 16.95" />
<path style="fill:none;stroke-width:0.7;stroke-linecap:round;stroke-linejoin:round;stroke-miterlimit:3;stroke:#000000;stroke-opacity:0.4" d="M6.2 20.45Q5.15 19.15 4.45 17.65" />
<path style="fill:none;stroke-width:0.7;stroke-linecap:round;stroke-linejoin:round;stroke-miterlimit:3;stroke:#000000;stroke-opacity:0.4" d="M0.95 19.15L0 16.45" />
<path style="fill:none;stroke-width:0.7;stroke-linecap:round;stroke-linejoin:round;stroke-miterlimit:3;stroke:#000000;stroke-opacity:0.4" d="M3.45 14.55L3.75 15.7L4.25 17.25" />
<path style="fill:none;stroke-width:0.7;stroke-linecap:round;stroke-linejoin:round;stroke-miterlimit:3;stroke:#000000;stroke-opacity:0.4" d="M15.05 14.25L15.85 13.95" />
<path style="fill:none;stroke-width:0.7;stroke-linecap:round;stroke-linejoin:round;stroke-miterlimit:3;stroke:#000000;stroke-opacity:0.4" d="M19.05 15L18.4 16" />
<path style="fill:none;stroke-width:0.7;stroke-linecap:round;stroke-linejoin:round;stroke-miterlimit:3;stroke:#000000;stroke-opacity:0.4" d="M16.65 18.15L17.55 17.35" />
<path style="fill:none;stroke-width:0.7;stroke-linecap:round;stroke-linejoin:round;stroke-miterlimit:3;stroke:#000000;stroke-opacity:0.4" d="M21.75 21.55L20 22.7" />
<path style="fill:none;stroke-width:0.7;stroke-linecap:round;stroke-linejoin:round;stroke-miterlimit:3;stroke:#000000;stroke-opacity:0.4" d="M14.3 14.3L13.9 14.2" />
<path style="fill:none;stroke-width:0.7;stroke-linecap:round;stroke-linejoin:round;stroke-miterlimit:3;stroke:#000000;stroke-opacity:0.4" d="M14.7 19.1L13.7 19.1L13.1 19" />
<path style="fill:none;stroke-width:0.7;stroke-linecap:round;stroke-linejoin:round;stroke-miterlimit:3;stroke:#000000;stroke-opacity:0.4" d="M13.5 24.1L15.2 24.05" />
<path style="fill:none;stroke-width:0.7;stroke-linecap:round;stroke-linejoin:round;stroke-miterlimit:3;stroke:#000000;stroke-opacity:0.4" d="M16.35 27.75L13.45 27.8" />
</g>
</svg>
