<?xml version="1.0" encoding="utf-8"?>
<svg version="1.1" id="Layer_1"
xmlns="http://www.w3.org/2000/svg"
xmlns:xlink="http://www.w3.org/1999/xlink"
width="6px" height="5px"
xml:space="preserve">
<g id="PathID_3463" transform="matrix(1, 0, 0, 1, 0.2, 0.2)">
<path style="fill:#808080;fill-opacity:1" d="M4 0.05Q3.95 1.05 3.4 1.7Q1.4 2.85 0.25 2.9Q1.25 0.85 4 0.05" />
<path style="fill:#54504E;fill-opacity:1" d="M3.4 1.7Q3.95 1.05 4 0.05L5.3 0.15Q6.2 0.7 4 2.9Q1.7 5.15 0.1 4.25Q-0.15 4.1 0.25 2.9Q1.4 2.85 3.4 1.7" />
<path style="fill:none;stroke-width:0.7;stroke-linecap:round;stroke-linejoin:round;stroke-miterlimit:3;stroke:#000000;stroke-opacity:0.388235" d="M0.25 2.9Q-0.15 4.1 0.1 4.25Q1.7 5.15 4 2.9Q6.2 0.7 5.3 0.15L4 0.05" />
<path style="fill:none;stroke-width:0.7;stroke-linecap:round;stroke-linejoin:round;stroke-miterlimit:3;stroke:#000000;stroke-opacity:0.388235" d="M0.25 2.9Q1.25 0.85 4 0.05" />
</g>
</svg>
