<?xml version="1.0" encoding="utf-8"?>
<svg version="1.1" id="Layer_1"
xmlns="http://www.w3.org/2000/svg"
xmlns:xlink="http://www.w3.org/1999/xlink"
width="8px" height="8px"
xml:space="preserve">
<g id="PathID_3714" transform="matrix(1, 0, 0, 1, 0.2, 0.2)">
<path style="fill:#808080;fill-opacity:1" d="M4.1 6.8L2.3 6.7L1.55 6.7Q0.45 3.85 2.45 0.45L3.7 1.85L3.95 2.3Q5.1 4.35 4.65 6.85Q4.8 3.95 4.1 6.8M4.65 6.85L4.1 6.8Q4.8 3.95 3.95 2.3" />
<path style="fill:#4F4F4F;fill-opacity:1" d="M6.85 1.4Q8.35 2.9 6 6.9L4.65 6.85Q5.1 4.35 3.95 2.3L3.7 1.85L2.45 0.45Q4.65 -0.8 6.85 1.4" />
<path style="fill:#CCCCCC;fill-opacity:1" d="M0.8 6.7Q-0.95 3.9 1.25 1.4L2.45 0.45Q0.45 3.85 1.55 6.7L0.8 6.7" />
<path style="fill:none;stroke-width:0.7;stroke-linecap:butt;stroke-linejoin:miter;stroke-miterlimit:3;stroke:#000000;stroke-opacity:0.501961" d="M3.95 2.3L3.7 1.85" />
<path style="fill:none;stroke-width:0.7;stroke-linecap:butt;stroke-linejoin:miter;stroke-miterlimit:3;stroke:#000000;stroke-opacity:0.501961" d="M1.55 6.7L2.3 6.7L4.1 6.8" />
<path style="fill:none;stroke-width:0.7;stroke-linecap:butt;stroke-linejoin:miter;stroke-miterlimit:3;stroke:#000000;stroke-opacity:0.501961" d="M4.1 6.8Q4.8 3.95 3.95 2.3" />
<path style="fill:none;stroke-width:0.7;stroke-linecap:butt;stroke-linejoin:miter;stroke-miterlimit:3;stroke:#000000;stroke-opacity:0.501961" d="M4.65 6.85L6 6.9Q8.35 2.9 6.85 1.4Q4.65 -0.8 2.45 0.45L1.25 1.4Q-0.95 3.9 0.8 6.7L1.55 6.7" />
<path style="fill:none;stroke-width:0.7;stroke-linecap:butt;stroke-linejoin:miter;stroke-miterlimit:3;stroke:#000000;stroke-opacity:0.501961" d="M4.65 6.85L4.1 6.8" />
</g>
</svg>
