<?xml version="1.0" encoding="utf-8"?>
<svg version="1.1" id="Layer_1"
xmlns="http://www.w3.org/2000/svg"
xmlns:xlink="http://www.w3.org/1999/xlink"
width="12px" height="11px"
xml:space="preserve">
<g id="PathID_2591" transform="matrix(1, 0, 0, 1, 0.2, 0.2)">
<path style="fill:#808080;fill-opacity:1" d="M5.15 0.05Q6.95 0.55 7.5 1.7Q7.45 2.65 6.7 3.35L5.8 4.05L5.1 2.45Q5 2.75 5.05 3.75Q3.1 2.7 3.05 0.95Q3.8 -0.15 5.15 0.05" />
<path style="fill:#54504E;fill-opacity:1" d="M7.75 2.95Q6.65 4.45 5.75 4.75Q3.95 5.5 3.1 3.85Q2.1 2.25 3.05 0.95Q3.1 2.7 5.05 3.75Q5 2.75 5.1 2.45L5.8 4.05L6.7 3.35Q7.45 2.65 7.5 1.7L7.75 2.95" />
<path style="fill:none;stroke-width:0.7;stroke-linecap:round;stroke-linejoin:round;stroke-miterlimit:3;stroke:#000000;stroke-opacity:0.388235" d="M7.5 1.7Q6.95 0.55 5.15 0.05Q3.8 -0.15 3.05 0.95Q2.1 2.25 3.1 3.85Q3.95 5.5 5.75 4.75Q6.65 4.45 7.75 2.95L7.5 1.7z" />
</g>
<g id="PathID_2592" transform="matrix(1, 0, 0, 1, 0.2, 0.2)">
<path style="fill:#808080;fill-opacity:1" d="M3.75 4.55L2.4 4.65L4.05 5.35Q3.45 6.6 2.2 6.5Q1.2 6.1 0.05 4.75Q-0.2 3.45 0.9 2.65Q2.6 2.65 3.75 4.55" />
<path style="fill:#54504E;fill-opacity:1" d="M0.05 4.75Q1.2 6.1 2.2 6.5Q3.45 6.6 4.05 5.35L2.4 4.65L3.75 4.55Q2.6 2.65 0.9 2.65Q1.5 2.05 3 3.1Q4.4 4.15 4.75 5.3L3 7.3Q0.75 7.3 0.05 4.75" />
<path style="fill:none;stroke-width:0.7;stroke-linecap:round;stroke-linejoin:round;stroke-miterlimit:3;stroke:#000000;stroke-opacity:0.388235" d="M0.9 2.65Q-0.2 3.45 0.05 4.75" />
<path style="fill:none;stroke-width:0.7;stroke-linecap:round;stroke-linejoin:round;stroke-miterlimit:3;stroke:#000000;stroke-opacity:0.388235" d="M0.9 2.65Q1.5 2.05 3 3.1Q4.4 4.15 4.75 5.3L3 7.3Q0.75 7.3 0.05 4.75" />
</g>
<g id="PathID_2593" transform="matrix(1, 0, 0, 1, 0.2, 0.2)">
<path style="fill:#808080;fill-opacity:1" d="M9.35 1.8Q10.65 2.25 10.8 3.6Q10.05 5.2 9.15 5.9Q8.05 6.35 7.1 5.25L8.45 4.15L7.25 4.4Q7.75 2.3 9.35 1.8" />
<path style="fill:#54504E;fill-opacity:1" d="M7.25 4.4L8.45 4.15L7.1 5.25Q8.05 6.35 9.15 5.9Q10.05 5.2 10.8 3.6Q10.8 6.25 8.65 6.85Q7.7 6.55 6.4 5.45Q6.45 4.2 7.45 2.8Q8.65 1.4 9.35 1.8Q7.75 2.3 7.25 4.4" />
<path style="fill:none;stroke-width:0.7;stroke-linecap:round;stroke-linejoin:round;stroke-miterlimit:3;stroke:#000000;stroke-opacity:0.388235" d="M10.8 3.6Q10.8 6.25 8.65 6.85Q7.7 6.55 6.4 5.45Q6.45 4.2 7.45 2.8Q8.65 1.4 9.35 1.8Q10.65 2.25 10.8 3.6z" />
</g>
<g id="PathID_2594" transform="matrix(1, 0, 0, 1, 0.2, 0.2)">
<path style="fill:#808080;fill-opacity:1" d="M4.05 6.55L3.5 7.7L4.9 6.7Q5.7 7.9 4.95 8.85Q4.05 9.5 2.4 9.85Q1.1 9.4 0.95 8.05Q1.8 6.55 4.05 6.55" />
<path style="fill:#54504E;fill-opacity:1" d="M2.4 9.85Q4.05 9.5 4.95 8.85Q5.7 7.9 4.9 6.7L3.5 7.7L4.05 6.55Q1.8 6.55 0.95 8.05Q0.75 7.25 2.35 6.45Q4 5.75 5.15 6.05Q5.95 7.65 5.4 9.25Q4.95 10.55 2.4 9.85" />
<path style="fill:none;stroke-width:0.7;stroke-linecap:round;stroke-linejoin:round;stroke-miterlimit:3;stroke:#000000;stroke-opacity:0.388235" d="M0.95 8.05Q1.1 9.4 2.4 9.85" />
<path style="fill:none;stroke-width:0.7;stroke-linecap:round;stroke-linejoin:round;stroke-miterlimit:3;stroke:#000000;stroke-opacity:0.388235" d="M0.95 8.05Q0.75 7.25 2.35 6.45Q4 5.75 5.15 6.05Q5.95 7.65 5.4 9.25Q4.95 10.55 2.4 9.85" />
</g>
<g id="PathID_2595" transform="matrix(1, 0, 0, 1, 0.2, 0.2)">
<path style="fill:#54504E;fill-opacity:1" d="M6.8 6.3L7.25 7.45L5.9 6.5Q5.55 6.95 5.5 7.4L5.5 7.45L5.25 8.45Q4.95 7.1 5.65 5.75Q6.75 5.5 8.4 6.2Q10.05 6.95 9.85 7.7Q9.65 7.15 6.8 6.3" />
<path style="fill:#808080;fill-opacity:1" d="M9.85 7.7Q9.7 9.05 8.4 9.55Q5.85 10.25 5.4 9.05L5.25 8.45L5.5 7.45L5.5 7.4Q5.55 6.95 5.9 6.5L7.25 7.45L6.8 6.3Q9.65 7.15 9.85 7.7" />
<path style="fill:none;stroke-width:0.7;stroke-linecap:round;stroke-linejoin:round;stroke-miterlimit:3;stroke:#000000;stroke-opacity:0.388235" d="M5.25 8.45Q4.95 7.1 5.65 5.75Q6.75 5.5 8.4 6.2Q10.05 6.95 9.85 7.7Q9.7 9.05 8.4 9.55Q5.85 10.25 5.4 9.05L5.25 8.45z" />
</g>
</svg>
