<?xml version="1.0" encoding="utf-8"?>
<svg version="1.1" id="Layer_1"
xmlns="http://www.w3.org/2000/svg"
xmlns:xlink="http://www.w3.org/1999/xlink"
width="99px" height="7px"
xml:space="preserve">
<g id="PathID_2630" transform="matrix(1, 0, 0, 1, 48.45, 3.6)">
<path style="fill:#FFFFFF;fill-opacity:0.168627" d="M3.3 -2.85Q3.3 -2.65 0.75 -1.85Q-1.85 -1.1 -4.55 -1.3Q-7.25 -1.5 -8.9 -2.05Q-10.55 -2.65 -10.55 -2.85L-8.55 -3.15L-3.6 -3.3L1.25 -3.15L3.3 -2.85M23.55 -3.6Q31.6 -3.45 40.35 -3.55Q49 -3.65 49.5 -2.45Q49.9 -1.25 49.75 -0.2Q49.6 0.9 47.8 0.7Q46 0.5 41.6 -1Q37.2 -2.5 22.55 -2.7L10.05 -3.25Q12.1 -3.6 23.55 -3.6M-46.8 1.1L-45.6 1.25L-45.1 1.55L-45.75 2.55Q-46.35 3.3 -47 3.1L-48.05 2.35L-48.45 1.55Q-48.45 1.35 -47.95 1.25L-46.8 1.1" />
</g>
</svg>
