<?xml version="1.0" encoding="utf-8"?>
<svg version="1.1" id="Layer_1"
xmlns="http://www.w3.org/2000/svg"
xmlns:xlink="http://www.w3.org/1999/xlink"
width="17px" height="8px"
xml:space="preserve">
<g id="PathID_3722" transform="matrix(1, 0, 0, 1, 0.2, 0.2)">
<path style="fill:#808080;fill-opacity:1" d="M15.65 6.35Q15.25 7.1 14.65 7.2Q13.85 7.3 13.15 6.35Q12.4 5.4 12.2 3.95Q11.95 2.45 12.4 1.35Q12.75 0.2 13.55 0.05Q14.3 -0.05 15.1 0.9Q15.85 1.8 16.05 3.3L16.1 3.6L15.5 3.5Q14.9 3.5 14.45 3.95Q14.05 4.35 14.05 4.95Q14.05 5.5 14.45 5.95Q14.9 6.35 15.5 6.35L15.65 6.35M2.9 6.6Q2.25 7.3 1.6 7.2Q0.8 7.15 0.35 6Q-0.15 4.95 0.05 3.45Q0.2 1.9 0.9 0.9Q1.6 -0.05 2.4 0Q3.15 0.1 3.65 1.25Q4.1 2.25 3.95 3.7Q3.45 3.25 2.85 3.25Q2.15 3.25 1.65 3.75Q1.15 4.25 1.15 4.95Q1.15 5.6 1.65 6.1Q2.15 6.6 2.85 6.6L2.9 6.6" />
<path style="fill:none;stroke-width:0.7;stroke-linecap:butt;stroke-linejoin:miter;stroke-miterlimit:3;stroke:#000000;stroke-opacity:0.501961" d="M16.1 3.6Q16.25 4.95 15.85 5.9L15.65 6.35Q15.25 7.1 14.65 7.2Q13.85 7.3 13.15 6.35Q12.4 5.4 12.2 3.95Q11.95 2.45 12.4 1.35Q12.75 0.2 13.55 0.05Q14.3 -0.05 15.1 0.9Q15.85 1.8 16.05 3.3L16.1 3.6z" />
<path style="fill:none;stroke-width:0.7;stroke-linecap:butt;stroke-linejoin:miter;stroke-miterlimit:3;stroke:#000000;stroke-opacity:0.501961" d="M3.95 3.7L3.95 3.85Q3.8 5.35 3.1 6.3L2.9 6.6Q2.25 7.3 1.6 7.2Q0.8 7.15 0.35 6Q-0.15 4.95 0.05 3.45Q0.2 1.9 0.9 0.9Q1.6 -0.05 2.4 0Q3.15 0.1 3.65 1.25Q4.1 2.25 3.95 3.7z" />
<path style="fill:none;stroke-width:0.7;stroke-linecap:butt;stroke-linejoin:miter;stroke-miterlimit:3;stroke:#000000;stroke-opacity:0.501961" d="M2.85 6.6L2.9 6.6" />
</g>
</svg>
