<?xml version="1.0" encoding="utf-8"?>
<svg version="1.1" id="Layer_1"
xmlns="http://www.w3.org/2000/svg"
xmlns:xlink="http://www.w3.org/1999/xlink"
width="34px" height="30px"
xml:space="preserve">
<g id="PathID_3927" transform="matrix(1, 0, 0, 1, 0, 0)">
<path style="fill:#54504E;fill-opacity:1" d="M3.85 16.1Q1.35 16.05 0 14.6L0 13.9Q1.7 14.75 4.95 14.6L3.85 16.1" />
<path style="fill:none;stroke-width:0.7;stroke-linecap:round;stroke-linejoin:round;stroke-miterlimit:3;stroke:#000000;stroke-opacity:0.4" d="M3.85 16.1Q1.35 16.05 0 14.6L0 13.9Q1.7 14.75 4.95 14.6L3.85 16.1z" />
</g>
<g id="PathID_3928" transform="matrix(1, 0, 0, 1, 0, 0)">
<path style="fill:#54504E;fill-opacity:1" d="M26.05 26Q28.25 22.6 28.55 20.45Q29.05 16.95 28 13.6Q27.3 11.5 26 9.7L24.4 7.9Q22.1 5.6 18.5 4.3Q16.3 3.5 12.8 3.85L9.8 4.35Q6.9 5.55 6.4 5.9L7.7 4.4Q10.7 1.4 14.55 0.45L18.3 0Q23.05 0 26.75 2.6L28.8 4.3Q31.85 8.05 32.55 10.2L33.2 13.15L33.3 15L33.05 18L32.55 19.8Q31.4 22.8 29.6 24.9L25.95 27.95L23.9 29L26.05 26" />
<radialGradient
id="RadialGradID_1721" gradientUnits="userSpaceOnUse" gradientTransform="matrix(0, -0.026062, 0.026062, 0, 12.15, 19.85)" spreadMethod ="pad" cx="0" cy="0" r="819.2" fx="19" fy="0" >
<stop  offset="0"  style="stop-color:#CDCDCD;stop-opacity:1" />
<stop  offset="1"  style="stop-color:#808080;stop-opacity:1" />
</radialGradient>
<path style="fill:url(#RadialGradID_1721) " d="M6.4 5.9Q6.9 5.55 9.8 4.35L12.8 3.85Q16.3 3.5 18.5 4.3Q22.1 5.6 24.4 7.9L26 9.7Q27.3 11.5 28 13.6Q29.05 16.95 28.55 20.45Q28.25 22.6 26.05 26L23.9 29Q21.3 30 18.3 30Q15.1 30 12.4 28.85Q9.85 27.75 7.7 25.6Q5.95 23.85 4 19.65L3.35 16.4L3.35 16.1L3.3 14.45Q3.35 12.55 3.85 10.8Q4.3 9.25 5.1 7.85Q5.6 6.9 6.25 6.05L6.4 5.9" />
<path style="fill:none;stroke-width:0.7;stroke-linecap:round;stroke-linejoin:round;stroke-miterlimit:3;stroke:#000000;stroke-opacity:0.4" d="M23.9 29L25.95 27.95L29.6 24.9Q31.4 22.8 32.55 19.8L33.05 18L33.3 15L33.2 13.15L32.55 10.2Q31.85 8.05 28.8 4.3L26.75 2.6Q23.05 0 18.3 0L14.55 0.45Q10.7 1.4 7.7 4.4L6.4 5.9" />
<path style="fill:none;stroke-width:0.7;stroke-linecap:round;stroke-linejoin:round;stroke-miterlimit:3;stroke:#000000;stroke-opacity:0.4" d="M23.9 29Q21.3 30 18.3 30Q15.1 30 12.4 28.85Q9.85 27.75 7.7 25.6Q5.95 23.85 4 19.65L3.35 16.4L3.35 16.1L3.3 14.45Q3.35 12.55 3.85 10.8Q4.3 9.25 5.1 7.85Q5.6 6.9 6.25 6.05L6.4 5.9" />
</g>
</svg>
