<?xml version="1.0" encoding="utf-8"?>
<svg version="1.1" id="Layer_1"
xmlns="http://www.w3.org/2000/svg"
xmlns:xlink="http://www.w3.org/1999/xlink"
width="34px" height="23px"
xml:space="preserve">
<g id="PathID_3957" transform="matrix(1, 0, 0, 1, 0.2, 0.2)">
<path style="fill:#808080;fill-opacity:1" d="M11.6 11.1L11.2 12.35L10.9 13.2Q7.8 11.95 5.2 8.75Q3.65 6.8 2.25 4.35Q3.1 2.95 4.6 2.4Q5.4 1.95 8.1 1.6Q11.8 2.6 12.75 6.9Q13.3 9.8 13.2 12.3Q12.15 14.9 11.2 12.35L11.6 11.1M0.9 16.2Q-1 12.6 1.05 6.55Q2.25 8.7 3.6 10.4Q6.35 14.25 9.85 16.05Q1.35 12.95 0.9 16.2M9.85 16.05Q8.6 18.2 6.5 19.9Q4.6 21.75 3.55 22.1Q1.8 22.7 1.95 20.3L0.75 20.15Q0.6 18.05 0.9 16.2Q1.35 12.95 3.6 10.4M6 15.3Q3.95 19.7 1.95 20.3Q3.95 19.7 6 15.3" />
<path style="fill:#505051;fill-opacity:1" d="M10.9 13.2L11.2 12.35Q12.15 14.9 13.2 12.3Q13.3 9.8 12.75 6.9Q11.8 2.6 8.1 1.6Q13.85 2.2 15.15 5.7Q16.3 9.05 15.2 12.9L14.75 14.35Q12.7 14.1 10.9 13.2M13.3 17.05L11.8 18.6L8.05 21.3Q5.6 22.6 3.55 22.1Q4.6 21.75 6.5 19.9Q8.6 18.2 9.85 16.05L13.3 17.05" />
<path style="fill:none;stroke-width:0.7;stroke-linecap:round;stroke-linejoin:round;stroke-miterlimit:3;stroke:#000000;stroke-opacity:0.498039" d="M11.2 12.35L11.6 11.1" />
<path style="fill:none;stroke-width:0.7;stroke-linecap:round;stroke-linejoin:round;stroke-miterlimit:3;stroke:#000000;stroke-opacity:0.498039" d="M8.1 1.6Q5.4 1.95 4.6 2.4Q3.1 2.95 2.25 4.35" />
<path style="fill:none;stroke-width:0.7;stroke-linecap:round;stroke-linejoin:round;stroke-miterlimit:3;stroke:#000000;stroke-opacity:0.498039" d="M10.9 13.2L11.2 12.35" />
<path style="fill:none;stroke-width:0.7;stroke-linecap:round;stroke-linejoin:round;stroke-miterlimit:3;stroke:#000000;stroke-opacity:0.498039" d="M1.05 6.55L1.4 5.6Q1.85 4.65 2.25 4.35" />
<path style="fill:none;stroke-width:0.7;stroke-linecap:round;stroke-linejoin:round;stroke-miterlimit:3;stroke:#000000;stroke-opacity:0.498039" d="M1.05 6.55Q-1 12.6 0.9 16.2Q1.35 12.95 3.6 10.4L5.2 8.75" />
<path style="fill:none;stroke-width:0.7;stroke-linecap:round;stroke-linejoin:round;stroke-miterlimit:3;stroke:#000000;stroke-opacity:0.498039" d="M13.3 17.05L11.8 18.6L8.05 21.3Q5.6 22.6 3.55 22.1Q1.8 22.7 1.95 20.3L0.75 20.15Q0.6 18.05 0.9 16.2" />
<path style="fill:none;stroke-width:0.7;stroke-linecap:round;stroke-linejoin:round;stroke-miterlimit:3;stroke:#000000;stroke-opacity:0.498039" d="M1.95 20.3Q3.95 19.7 6 15.3" />
<path style="fill:none;stroke-width:0.7;stroke-linecap:round;stroke-linejoin:round;stroke-miterlimit:3;stroke:#000000;stroke-opacity:0.498039" d="M3.55 22.1Q4.6 21.75 6.5 19.9Q8.6 18.2 9.85 16.05" />
<path style="fill:none;stroke-width:0.7;stroke-linecap:round;stroke-linejoin:round;stroke-miterlimit:3;stroke:#000000;stroke-opacity:0.498039" d="M8.1 1.6Q13.85 2.2 15.15 5.7Q16.3 9.05 15.2 12.9L14.75 14.35Q14.2 15.9 13.3 17.05" />
<path style="fill:none;stroke-width:0.7;stroke-linecap:round;stroke-linejoin:round;stroke-miterlimit:3;stroke:#000000;stroke-opacity:0.498039" d="M9.85 16.05L10.9 13.2" />
</g>
<g id="PathID_3958" transform="matrix(1, 0, 0, 1, 0.2, 0.2)">
<path style="fill:#505051;fill-opacity:1" d="M32.6 3.95Q32.95 6.4 31.5 9.2Q31.15 7.25 30.45 5.65Q28.95 2.25 25.65 0.25Q27.8 -0.55 30.2 1.05Q32.4 2.45 32.6 3.95" />
<path style="fill:none;stroke-width:0.7;stroke-linecap:round;stroke-linejoin:round;stroke-miterlimit:3;stroke:#000000;stroke-opacity:0.498039" d="M32.6 3.95Q32.95 6.4 31.5 9.2Q31.15 7.25 30.45 5.65Q28.95 2.25 25.65 0.25Q27.8 -0.55 30.2 1.05Q32.4 2.45 32.6 3.95z" />
</g>
</svg>
