<?xml version="1.0" encoding="utf-8"?>
<svg version="1.1" id="Layer_1"
xmlns="http://www.w3.org/2000/svg"
xmlns:xlink="http://www.w3.org/1999/xlink"
width="14px" height="28px"
xml:space="preserve">
<g id="PathID_3734" transform="matrix(1, 0, 0, 1, 0, 0)">
<path style="fill:#808080;fill-opacity:1" d="M9.2 3.3L7.6 2.8L7.75 0.25L9.25 0.75L11.8 1.8L10.85 4.2L9.9 3.65L9.2 3.3M9 7.15L7.9 7.05L7.9 6.9L6.3 4.9L6.7 4.65L7.2 4.15L7.25 4L9.55 4.45L9.8 4.5L11.85 4.75L12 6.4Q11.2 6.95 10.2 7.15L9 7.15M9.35 14.9L8.5 14.75L8.1 12.9L7.1 12.6L8 11.9L8 9.4L8 8.95L8.85 9.2L10.1 9.25L10.4 9.25L11.75 9.1L12.4 8.85L12.75 11.4L12.75 12L10.75 12.2L10.5 12.2L13.1 13.1L12.2 13.2L11.65 13.1L11.8 13.75L11.8 15.35L11.3 15.35L11.2 15.3L9.35 14.9M8.1 20.65L8.05 20.25L7.45 19.7L7.05 19.2L8.05 18.8L8.65 16.2L8.65 16.15L9.1 16.1L10.9 16.4L11.15 16.45L12.05 16.6L12.05 17.25L11.7 19.5L10.1 19.7L9.9 19.7L10.05 20.35L8.1 20.65M6.4 24.9L7.85 24.3L8.15 21.2L10 21.25L11.8 21.5L11.4 23.7L8.85 24.7L11.45 24.4L7.95 26.35L6.35 26.95L6.4 24.9M9.9 19.7L8.2 19.65L9.9 19.7L10.1 19.7M10.5 12.2L8.65 11.95L10.5 12.2M9.75 12.9L11.65 13.1L9.75 12.9" />
<path style="fill:#54504E;fill-opacity:1" d="M10.1 9.25L8.85 9.2L8 8.95L8 9.4L8 11.9L7.1 12.6L8.1 12.9L8.5 14.75L9.35 14.9L11.2 15.3L11.15 16.45L10.9 16.4L9.1 16.1L8.65 16.15L8.65 16.2L8.05 18.8L7.05 19.2L7.45 19.7L8.05 20.25L8.1 20.65L10.05 20.35L10 21.25L8.15 21.2L7.85 24.3L6.4 24.9L6.35 26.95L5.2 27.15Q1.55 25.75 0.45 24.45Q-0.65 12.9 0.95 1.9Q2.85 0.25 5.95 0.05L7.75 0.25L7.6 2.8L9.2 3.3L9.9 3.65L9.8 4.5L9.55 4.45L7.25 4L7.2 4.15L6.7 4.65L6.3 4.9L7.9 6.9L7.9 7.05L9 7.15L10.2 7.15L10.2 7.45Q10.25 9.25 10.4 9.25L10.1 9.25M6.65 2.55L7.6 2.8L6.65 2.55M7.8 14.7L8.5 14.75L7.8 14.7M7.55 21.25L8.15 21.2L7.55 21.25" />
<path style="fill:none;stroke-width:0.7;stroke-linecap:round;stroke-linejoin:round;stroke-miterlimit:3;stroke:#000000;stroke-opacity:0.301961" d="M7.75 0.25L9.25 0.75L11.8 1.8L10.85 4.2L9.9 3.65L9.8 4.5L11.85 4.75L12 6.4Q11.2 6.95 10.2 7.15L10.2 7.45Q10.25 9.25 10.4 9.25L11.75 9.1L12.4 8.85L12.75 11.4L12.75 12L10.75 12.2L10.5 12.2L13.1 13.1L12.2 13.2L11.65 13.1L11.8 13.75L11.8 15.35L11.3 15.35L11.2 15.3L11.15 16.45L12.05 16.6L12.05 17.25L11.7 19.5L10.1 19.7L10.05 20.35L10 21.25L11.8 21.5L11.4 23.7L8.85 24.7L11.45 24.4L7.95 26.35L6.35 26.95L5.2 27.15Q1.55 25.75 0.45 24.45Q-0.65 12.9 0.95 1.9Q2.85 0.25 5.95 0.05L7.75 0.25z" />
<path style="fill:none;stroke-width:0.7;stroke-linecap:round;stroke-linejoin:round;stroke-miterlimit:3;stroke:#000000;stroke-opacity:0.301961" d="M7.6 2.8L9.2 3.3L9.9 3.65" />
<path style="fill:none;stroke-width:0.7;stroke-linecap:round;stroke-linejoin:round;stroke-miterlimit:3;stroke:#000000;stroke-opacity:0.301961" d="M7.25 4L9.55 4.45L9.8 4.5" />
<path style="fill:none;stroke-width:0.7;stroke-linecap:round;stroke-linejoin:round;stroke-miterlimit:3;stroke:#000000;stroke-opacity:0.301961" d="M7.6 2.8L6.65 2.55" />
<path style="fill:none;stroke-width:0.7;stroke-linecap:round;stroke-linejoin:round;stroke-miterlimit:3;stroke:#000000;stroke-opacity:0.301961" d="M8.5 14.75L9.35 14.9L11.2 15.3" />
<path style="fill:none;stroke-width:0.7;stroke-linecap:round;stroke-linejoin:round;stroke-miterlimit:3;stroke:#000000;stroke-opacity:0.301961" d="M7.9 7.05L9 7.15L10.2 7.15" />
<path style="fill:none;stroke-width:0.7;stroke-linecap:round;stroke-linejoin:round;stroke-miterlimit:3;stroke:#000000;stroke-opacity:0.301961" d="M8.85 9.2L10.1 9.25L10.4 9.25" />
<path style="fill:none;stroke-width:0.7;stroke-linecap:round;stroke-linejoin:round;stroke-miterlimit:3;stroke:#000000;stroke-opacity:0.301961" d="M8.5 14.75L7.8 14.7" />
<path style="fill:none;stroke-width:0.7;stroke-linecap:round;stroke-linejoin:round;stroke-miterlimit:3;stroke:#000000;stroke-opacity:0.301961" d="M11.15 16.45L10.9 16.4L9.1 16.1L8.65 16.15L8.65 16.2" />
<path style="fill:none;stroke-width:0.7;stroke-linecap:round;stroke-linejoin:round;stroke-miterlimit:3;stroke:#000000;stroke-opacity:0.301961" d="M10.1 19.7L9.9 19.7L8.2 19.65" />
<path style="fill:none;stroke-width:0.7;stroke-linecap:round;stroke-linejoin:round;stroke-miterlimit:3;stroke:#000000;stroke-opacity:0.301961" d="M10 21.25L8.15 21.2" />
<path style="fill:none;stroke-width:0.7;stroke-linecap:round;stroke-linejoin:round;stroke-miterlimit:3;stroke:#000000;stroke-opacity:0.301961" d="M8.15 21.2L7.55 21.25" />
<path style="fill:none;stroke-width:0.7;stroke-linecap:round;stroke-linejoin:round;stroke-miterlimit:3;stroke:#000000;stroke-opacity:0.301961" d="M8.65 11.95L10.5 12.2" />
<path style="fill:none;stroke-width:0.7;stroke-linecap:round;stroke-linejoin:round;stroke-miterlimit:3;stroke:#000000;stroke-opacity:0.301961" d="M11.65 13.1L9.75 12.9" />
</g>
</svg>
