<?xml version="1.0" encoding="utf-8"?>
<svg version="1.1" id="Layer_1"
xmlns="http://www.w3.org/2000/svg"
xmlns:xlink="http://www.w3.org/1999/xlink"
width="35px" height="24px"
xml:space="preserve">
<g id="PathID_4041" transform="matrix(1, 0, 0, 1, 0, 0)">
<path style="fill:#808080;fill-opacity:1" d="M16.65 4.4Q6.7 4.8 3.4 19.9Q1.8 19.4 0.85 18.3Q4.5 1.95 16.45 0Q28.45 0.35 33.15 15.6L32.3 16.8L31.35 18Q28.05 5.1 16.65 4.4" />
<path style="fill:#4A4846;fill-opacity:1" d="M34.8 22.75L32.25 23.25Q31.9 20.4 31.35 18L32.3 16.8L33.15 15.6Q34.15 18.8 34.8 22.75M0.85 18.3Q1.8 19.4 3.4 19.9L2.7 23.65L0 23.2L0.5 20.2L0.85 18.3" />
</g>
</svg>
