<?xml version="1.0" encoding="utf-8"?>
<svg version="1.1" id="Layer_1"
xmlns="http://www.w3.org/2000/svg"
xmlns:xlink="http://www.w3.org/1999/xlink"
width="32px" height="31px"
xml:space="preserve">
<g id="PathID_3035" transform="matrix(1, 0, 0, 1, 15.65, 15.25)">
<path style="fill:#666666;fill-opacity:1" d="M11.05 -8.35L5.2 -14.2Q8.6 -15.25 15.65 -15.25L15.25 -14.65L11.05 -8.35M-11.1 -8.45L-14.45 -5.15Q-15.5 -9.45 -15.45 -14.95L-15.1 -15L-11.1 -8.5L-11.1 -8.45" />
<path style="fill:#808080;fill-opacity:1" d="M15.25 -14.65L15.6 -14.55L14.8 -8Q14.35 -5.45 14 -5.4L12.6 -6.8L15.25 -14.65M5.2 14.15L8.1 11.25L15.35 15.05Q8.4 15.15 5.2 14.15" />
<path style="fill:#595959;fill-opacity:1" d="M15.25 -14.65L12.6 -6.8L11.05 -8.35L15.25 -14.65M12.6 6.75L15.4 14.95L15.35 15.05L8.1 11.25L12.6 6.75M-11.1 -8.5L-15.1 -15L-6.8 -12.8L-11.1 -8.45L-11.1 -8.5M-15.6 14.4L-12.3 7.25L-10.45 9.1L-15.6 14.4" />
<path style="fill:#B2B2B2;fill-opacity:1" d="M15.4 14.95L12.6 6.75L14 5.35Q14.95 8.35 15.4 14.95M-15.1 -15L-15.45 -15.1Q-8.55 -15.2 -5.35 -14.25L-6.8 -12.8L-15.1 -15M-15.6 14.4Q-15.5 10.15 -14.4 6.35L-14.15 5.4L-12.3 7.25L-15.6 14.4" />
<path style="fill:#727272;fill-opacity:1" d="M-10.45 9.1L-5.35 14.2Q-8.6 15.2 -15.65 15.2L-15.6 14.4L-10.45 9.1" />
</g>
</svg>
