<?xml version="1.0" encoding="utf-8"?>
<svg version="1.1" id="Layer_1"
xmlns="http://www.w3.org/2000/svg"
xmlns:xlink="http://www.w3.org/1999/xlink"
width="29px" height="31px"
xml:space="preserve">
<g id="PathID_3948" transform="matrix(1, 0, 0, 1, 0.15, 0.15)">
<path style="fill:#585756;fill-opacity:1" d="M19.25 1.05Q21.05 1.8 22.65 3.05L21.7 2.6Q18.25 1.2 14.85 1.45Q11.15 2.05 8.8 3.35L8.1 3.75L7.55 4.1L7.45 3.5Q10 1.7 13.4 1.1Q16.1 0.65 19.25 1.05M18 18.85L19.15 18.9Q21.95 18.6 23.6 15.8L23.15 12.7L23.5 12.3L22.8 10.7L21.85 9.25L20.3 7.65L20.7 7.15L22.3 8.95Q23.4 10.45 24.05 12.1L24.6 14.85Q27.35 13.2 27.95 10.3Q28.65 12 28.65 15L28.55 16.75L28.1 16.75Q28.2 15.65 27.8 14.2L27.5 16.8L24.15 17.35L23.8 19.3L23.25 20.75Q22.35 22.5 20.8 23.75Q18 23.2 16.6 19.55L15.7 20.35L13.75 21.3L13.95 20.2Q15.15 20.15 16.1 19.05L16.9 17.7L17.45 18.2L18.1 17.2L18.5 14.25L18.95 14.25Q19 15.75 18 18.85M23.5 12.3L24.1 14.75L24.15 15.8L24.15 17.35L24.15 15.8L24.1 14.75L23.5 12.3M22.85 19.25Q22.4 19.3 22.1 19.85L21.6 20.75L20.4 22.4Q20.4 22.7 20.7 22.7L22.05 21.2L23 19.45L22.85 19.25M12.65 12.3L13.95 11.25L14.15 12.15Q12.55 13.25 12.35 14.95L12.05 14.9Q11.8 13.45 12.65 12.3M9.05 8.55L9.55 8.75Q9.9 8.25 10.4 7.9Q9.3 9.55 8.65 12.5L8.25 15.15L8.3 15.5L7.85 15.75Q7.65 14.45 7.75 13.3Q7.85 10.45 9.05 8.55M3.25 17.6Q4.9 18.25 6.65 17.6L8.1 16.8L8.2 17.25L8.5 17.85Q7.75 18.85 6.25 19.35L4.95 19.65L3.5 19.85L3.3 19.45Q4.2 21.35 5.25 22.65L5.5 22.95Q7.75 25.4 10.85 26.05L12.55 26.3Q11.8 28.2 12.5 30Q7 29.6 3.05 25.65Q1.05 23.65 0 21.35L0.8 20.45Q1.85 19.55 3.3 19.45L3.5 19.85L2.8 17.9L2.5 16.75L2.3 15.45Q2.2 14.45 2.65 11.15Q2.95 9.2 4.85 6.65Q2.7 12.15 3.25 17.6M7.75 13.3Q7.85 11.85 8.4 10.55Q8.85 9.5 9.55 8.75Q8.85 9.5 8.4 10.55Q7.85 11.85 7.75 13.3M1.95 23.5Q2.95 25 5.9 26.85Q8.9 28.7 10.45 28.7L10.7 28.6L10.75 28.4L8.7 27.5L5.75 25.8L3.65 24.3Q2.5 23.55 1.95 23.5M17.45 18.2L16.6 19.55L17.45 18.2" />
<radialGradient
id="RadialGradID_1729" gradientUnits="userSpaceOnUse" gradientTransform="matrix(0.026947, 0, 0, 0.026947, 9.1, -3.8)" spreadMethod ="pad" cx="0" cy="0" r="819.2" fx="0" fy="0" >
<stop  offset="0"  style="stop-color:#BFBFBF;stop-opacity:1" />
<stop  offset="0.956863"  style="stop-color:#808080;stop-opacity:1" />
</radialGradient>
<path style="fill:url(#RadialGradID_1729) " d="M13.4 1.1Q10 1.7 7.45 3.5Q7.05 2.55 5.85 2.2Q9.3 0 13.65 0Q16.65 0 19.25 1.05Q16.1 0.65 13.4 1.1M24.6 14.85L24.05 12.1Q23.4 10.45 22.3 8.95L20.7 7.15Q21.8 5.7 24.4 4.55Q26.65 7.2 27.95 10.3Q27.35 13.2 24.6 14.85M13.95 20.2Q14.05 18.95 13.75 17.75L13.35 16.5L14.1 16.45L14.95 16.6L16.9 17.7L16.1 19.05Q15.15 20.15 13.95 20.2M18.95 14.25Q21.55 14.25 23.15 12.7L23.6 15.8Q21.95 18.6 19.15 18.9L18 18.85Q19 15.75 18.95 14.25M8.25 15.15L8.65 12.5Q9.3 9.55 10.4 7.9L10.65 7.65L11.1 7.35Q13.25 8.3 13.95 11.25L12.65 12.3Q11.8 13.45 12.05 14.9L10.4 14.9Q9.05 15.05 8.3 15.5L8.25 15.15M4.85 6.65L5.85 5.5Q6.65 7.45 9.05 8.55Q7.85 10.45 7.75 13.3Q7.65 14.45 7.85 15.75L8.1 16.8L6.65 17.6Q4.9 18.25 3.25 17.6Q2.7 12.15 4.85 6.65" />
<path style="fill:#808080;fill-opacity:1" d="M28.1 16.75L27.5 16.8L27.8 14.2Q28.2 15.65 28.1 16.75M23 19.45L22.05 21.2L20.7 22.7Q20.4 22.7 20.4 22.4L21.6 20.75L22.1 19.85Q22.4 19.3 22.85 19.25L23 19.45M3.65 24.3L5.75 25.8L8.7 27.5L10.75 28.4L10.7 28.6L10.45 28.7Q8.9 28.7 5.9 26.85Q2.95 25 1.95 23.5Q2.5 23.55 3.65 24.3" />
<path style="fill:none;stroke-width:0.7;stroke-linecap:round;stroke-linejoin:round;stroke-miterlimit:3;stroke:#000000;stroke-opacity:0.4" d="M21.7 2.6Q18.25 1.2 14.85 1.45Q11.15 2.05 8.8 3.35L8.1 3.75" />
<path style="fill:none;stroke-width:0.7;stroke-linecap:round;stroke-linejoin:round;stroke-miterlimit:3;stroke:#000000;stroke-opacity:0.4" d="M5.85 2.2Q9.3 0 13.65 0Q16.65 0 19.25 1.05Q21.05 1.8 22.65 3.05" />
<path style="fill:none;stroke-width:0.7;stroke-linecap:round;stroke-linejoin:round;stroke-miterlimit:3;stroke:#000000;stroke-opacity:0.4" d="M24.4 4.55Q26.65 7.2 27.95 10.3Q28.65 12 28.65 15L28.55 16.75" />
<path style="fill:none;stroke-width:0.7;stroke-linecap:round;stroke-linejoin:round;stroke-miterlimit:3;stroke:#000000;stroke-opacity:0.4" d="M23.8 19.3L23.25 20.75Q22.35 22.5 20.8 23.75" />
<path style="fill:none;stroke-width:0.7;stroke-linecap:round;stroke-linejoin:round;stroke-miterlimit:3;stroke:#000000;stroke-opacity:0.4" d="M15.7 20.35L13.75 21.3" />
<path style="fill:none;stroke-width:0.7;stroke-linecap:round;stroke-linejoin:round;stroke-miterlimit:3;stroke:#000000;stroke-opacity:0.4" d="M13.35 16.5L14.1 16.45" />
<path style="fill:none;stroke-width:0.7;stroke-linecap:round;stroke-linejoin:round;stroke-miterlimit:3;stroke:#000000;stroke-opacity:0.4" d="M18.1 17.2L18.5 14.25" />
<path style="fill:none;stroke-width:0.7;stroke-linecap:round;stroke-linejoin:round;stroke-miterlimit:3;stroke:#000000;stroke-opacity:0.4" d="M22.8 10.7L21.85 9.25L20.3 7.65" />
<path style="fill:none;stroke-width:0.7;stroke-linecap:round;stroke-linejoin:round;stroke-miterlimit:3;stroke:#000000;stroke-opacity:0.4" d="M24.15 17.35L24.15 15.8L24.1 14.75L23.5 12.3" />
<path style="fill:none;stroke-width:0.7;stroke-linecap:round;stroke-linejoin:round;stroke-miterlimit:3;stroke:#000000;stroke-opacity:0.4" d="M14.15 12.15Q12.55 13.25 12.35 14.95" />
<path style="fill:none;stroke-width:0.7;stroke-linecap:round;stroke-linejoin:round;stroke-miterlimit:3;stroke:#000000;stroke-opacity:0.4" d="M8.2 17.25L8.5 17.85" />
<path style="fill:none;stroke-width:0.7;stroke-linecap:round;stroke-linejoin:round;stroke-miterlimit:3;stroke:#000000;stroke-opacity:0.4" d="M5.25 22.65L5.5 22.95Q7.75 25.4 10.85 26.05L12.55 26.3" />
<path style="fill:none;stroke-width:0.7;stroke-linecap:round;stroke-linejoin:round;stroke-miterlimit:3;stroke:#000000;stroke-opacity:0.4" d="M12.5 30Q7 29.6 3.05 25.65Q1.05 23.65 0 21.35" />
<path style="fill:none;stroke-width:0.7;stroke-linecap:round;stroke-linejoin:round;stroke-miterlimit:3;stroke:#000000;stroke-opacity:0.4" d="M2.5 16.75L2.3 15.45Q2.2 14.45 2.65 11.15Q2.95 9.2 4.85 6.65L5.85 5.5" />
<path style="fill:none;stroke-width:0.7;stroke-linecap:round;stroke-linejoin:round;stroke-miterlimit:3;stroke:#000000;stroke-opacity:0.4" d="M10.65 7.65L11.1 7.35" />
<path style="fill:none;stroke-width:0.7;stroke-linecap:round;stroke-linejoin:round;stroke-miterlimit:3;stroke:#000000;stroke-opacity:0.4" d="M9.55 8.75Q8.85 9.5 8.4 10.55Q7.85 11.85 7.75 13.3Q7.65 14.45 7.85 15.75" />
<path style="fill:none;stroke-width:0.7;stroke-linecap:round;stroke-linejoin:round;stroke-miterlimit:3;stroke:#000000;stroke-opacity:0.4" d="M3.3 19.45L3.5 19.85" />
<path style="fill:none;stroke-width:0.7;stroke-linecap:round;stroke-linejoin:round;stroke-miterlimit:3;stroke:#000000;stroke-opacity:0.4" d="M16.6 19.55L17.45 18.2" />
</g>
</svg>
