<?xml version="1.0" encoding="utf-8"?>
<svg version="1.1" id="Layer_1"
xmlns="http://www.w3.org/2000/svg"
xmlns:xlink="http://www.w3.org/1999/xlink"
width="33px" height="34px"
xml:space="preserve">
<g id="PathID_3881" transform="matrix(1, 0, 0, 1, 16.25, 17.65)">
<linearGradient
id="LinearGradID_1711" gradientUnits="userSpaceOnUse" gradientTransform="matrix(0, 0.0144958, -0.0195313, 0, 0, -0.65)" spreadMethod ="pad" x1="-819.2" y1="0" x2="819.2" y2="0" >
<stop  offset="0" style="stop-color:#FFFFFF;stop-opacity:0.4" />
<stop  offset="0.709804" style="stop-color:#FFFFFF;stop-opacity:0" />
</linearGradient>
<path style="fill:url(#LinearGradID_1711) " d="M12.9 -5.55L12.95 -8.95Q13 -10.85 13.6 -9.75Q15.25 -6.9 15.9 -2L16 0L15.75 3.2L15.2 5.1Q14.25 8.05 12.05 10.55L11.3 11.3L8.8 13.4L8.15 13.8L6 14.9Q3.2 16 0 16Q-3.4 16 -6.3 14.75Q-9 13.6 -11.3 11.3Q-14.1 8.45 -15.25 4.95L-15.95 1.5L-15.95 1.15L-16 0.6L-16 0L-16 -0.6Q-15.95 -2.6 -15.4 -4.5L-14.05 -7.65L-12.85 -9.55L-12.7 -9.7L-10.5 -12Q-9.5 -12.85 -10.65 -9.65Q-11.15 -7.95 -10.8 -4.65Q-10.5 -1.1 -9.5 0.55Q-9.25 -5.05 -5 -9.4L-3.6 -10.7L-3.65 -10.65L-3.5 -10.8Q-0.95 -13.05 0.8 -12.95Q2.95 -12.85 6.45 -7.8Q10.35 -2.2 9.3 2.5L11.1 -0.1Q12.85 -3.15 12.9 -5.55" />
</g>
<g id="PathID_3882" transform="matrix(1, 0, 0, 1, 16.25, 17.65)">
<path style="fill:none;stroke-width:0.7;stroke-linecap:round;stroke-linejoin:round;stroke-miterlimit:3;stroke:#000000;stroke-opacity:0.301961" d="M12.9 -5.55L12.8 -5.65Q12.15 -10.1 6.75 -15.1Q5.55 -16.2 6.05 -13.65L6.5 -11Q3.25 -16.9 1.6 -16.9Q1 -16.9 -0.7 -14.6L-3.5 -10.8" />
<path style="fill:none;stroke-width:0.7;stroke-linecap:round;stroke-linejoin:round;stroke-miterlimit:3;stroke:#000000;stroke-opacity:0.2" d="M-3.5 -10.8Q-0.95 -13.05 0.8 -12.95Q2.95 -12.85 6.45 -7.8Q10.35 -2.2 9.3 2.5L11.1 -0.1Q12.85 -3.15 12.9 -5.55" />
<path style="fill:none;stroke-width:0.7;stroke-linecap:round;stroke-linejoin:round;stroke-miterlimit:3;stroke:#000000;stroke-opacity:0.301961" d="M12.9 -5.55L12.95 -8.95Q13 -10.85 13.6 -9.75Q15.25 -6.9 15.9 -2L16 0L15.75 3.2L15.2 5.1Q14.25 8.05 12.05 10.55L11.3 11.3L8.8 13.4L8.15 13.8L6 14.9Q3.2 16 0 16Q-3.4 16 -6.3 14.75Q-9 13.6 -11.3 11.3Q-14.1 8.45 -15.25 4.95L-15.95 1.5L-15.95 1.15L-16 0.6L-16 0L-16 -0.6Q-15.95 -2.6 -15.4 -4.5L-14.05 -7.65L-12.85 -9.55L-12.7 -9.7L-10.5 -12Q-9.5 -12.85 -10.65 -9.65L-8.35 -12.3Q-5.7 -15.3 -3.3 -16.8Q-0.3 -18.65 -1.65 -14.85L-3.6 -10.7" />
<path style="fill:none;stroke-width:0.7;stroke-linecap:round;stroke-linejoin:round;stroke-miterlimit:3;stroke:#000000;stroke-opacity:0.2" d="M-3.6 -10.7L-3.5 -10.8" />
<path style="fill:none;stroke-width:0.7;stroke-linecap:round;stroke-linejoin:round;stroke-miterlimit:3;stroke:#000000;stroke-opacity:0.301961" d="M-3.5 -10.8L-3.65 -10.65L-3.6 -10.7" />
<path style="fill:none;stroke-width:0.7;stroke-linecap:round;stroke-linejoin:round;stroke-miterlimit:3;stroke:#000000;stroke-opacity:0.2" d="M-3.6 -10.7L-5 -9.4Q-9.25 -5.05 -9.5 0.55L-9.5 0.6Q-9.65 3.9 -8.6 6.25Q-7.3 9.25 -3.95 11.05" />
<path style="fill:none;stroke-width:0.7;stroke-linecap:round;stroke-linejoin:round;stroke-miterlimit:3;stroke:#000000;stroke-opacity:0.2" d="M9.3 2.5L9.2 2.75Q8.1 7.1 5.8 9.9L3.75 11.85" />
<path style="fill:none;stroke-width:0.7;stroke-linecap:round;stroke-linejoin:round;stroke-miterlimit:3;stroke:#000000;stroke-opacity:0.2" d="M-10.65 -9.65Q-11.15 -7.95 -10.8 -4.65Q-10.5 -1.1 -9.5 0.55" />
</g>
<g id="PathID_3883" transform="matrix(1, 0, 0, 1, 16.25, 17.65)">
<path style="fill:#FFFFFF;fill-opacity:0.2" d="M14.05 -2.2Q14.55 -2.2 14.95 -1.4Q15.3 -0.6 15.3 0.5Q15.3 1.6 14.95 2.4Q14.55 3.2 14.05 3.2Q13.55 3.2 13.2 2.4Q12.85 1.6 12.85 0.5Q12.85 -0.6 13.2 -1.4Q13.55 -2.2 14.05 -2.2" />
<path style="fill:#FFFFFF;fill-opacity:0.301961" d="M3.05 -10.4L4.15 -8.8Q4.4 -7.95 4.05 -7.6L2.9 -7.55L1.3 -8.65Q0.5 -9.45 0.2 -10.25Q-0.1 -11.05 0.25 -11.4L1.45 -11.5L3.05 -10.4" />
</g>
<g id="PathID_3884" transform="matrix(1, 0, 0, 1, 16.25, 17.65)">
<path style="fill:none;stroke-width:2;stroke-linecap:round;stroke-linejoin:round;stroke-miterlimit:3;stroke:#000000;stroke-opacity:0.14902" d="M0.75 -7.35L0.45 -7.55L-0.1 -7.7L-0.4 -7.65L-0.7 -7.55L-2.8 -6.5L-2.95 -6.3L-6.8 -2.25L-6.85 -2.25L-7.15 -1.35L-7.15 -1.3Q-7.1 -0.85 -6.7 -0.5Q-6.35 -0.15 -5.75 -0.2Q-5.25 -0.25 -4.95 -0.65L-4.95 -0.6L-1.35 -4.45L-1.25 -4.55L-1.1 -4.65L-1.15 -3.45L-1.25 0.9L-1.2 4L-1.35 6.2Q-1.4 6.7 -1.05 7.15L-1.05 7.1L-0.2 7.55L0.7 7.3Q1.1 7 1.15 6.5L1.3 3.8L1.25 0.9L1.35 -3.25L1.35 -3.35L2.4 -2.45L2.5 -2.4L4.9 -0.45Q5.25 -0.15 5.8 -0.2Q6.25 -0.25 6.65 -0.6L6.65 -0.65L6.9 -1.55L6.45 -2.4L4.1 -4.3L4.1 -4.35L4 -4.45L0.85 -7.3L0.75 -7.35z" />
</g>
<g id="PathID_3885" transform="matrix(1, 0, 0, 1, 16.25, 17.65)">
<path style="fill:#F5FFCD;fill-opacity:1" d="M0.6 -7.15L0.65 -7.15L3.85 -4.25L3.85 -4.2L6.3 -2.2L6.65 -1.55L6.45 -0.8Q6.15 -0.5 5.75 -0.45Q5.35 -0.4 5.05 -0.65L2.6 -2.65L2.55 -2.65L1.15 -3.9L1.1 -3.35L1.1 -3.3L1 0.9L1.05 3.8L0.9 6.45L0.55 7.1L-0.2 7.3L-0.85 6.95L-1.1 6.2L-0.95 3.95L-1 0.9L-0.9 -3.45L-0.85 -5.05L-1.55 -4.65L-1.5 -4.65L-5.15 -0.8L-5.8 -0.45Q-6.25 -0.4 -6.55 -0.7L-6.9 -1.35L-6.65 -2.1L-2.75 -6.2L-2.7 -6.25Q-1.75 -6.95 -0.5 -7.35L-0.4 -7.4L-0.1 -7.45L0.35 -7.35L0.6 -7.15" />
</g>
</svg>
