<?xml version="1.0" encoding="utf-8"?>
<svg version="1.1" id="Layer_1"
xmlns="http://www.w3.org/2000/svg"
xmlns:xlink="http://www.w3.org/1999/xlink"
width="16px" height="22px"
xml:space="preserve">
<g id="PathID_3773" transform="matrix(1, 0, 0, 1, 0.4, 0.35)">
<path style="fill:#808080;fill-opacity:1" d="M14.25 7.3Q10.5 12.85 13.55 19.7L9.1 14.6L8.55 12.55L8.65 12.55L8.1 2.75Q8.25 -1.15 13.6 0.5Q9.7 1.9 9.35 4.3Q12.8 2.65 13.3 3.25Q15.35 5.1 14.25 7.3M6.3 2.75L6.85 12.6L5.95 14.65L1.75 19.9Q4.35 13.05 0.45 7.65Q-0.75 5.55 1.2 3.55Q1.7 2.85 5.2 4.35Q4.65 1.9 0.65 0.7Q6 -1.15 6.3 2.75" />
<path style="fill:none;stroke-width:0.7;stroke-linecap:round;stroke-linejoin:miter;stroke-miterlimit:3;stroke:#000000;stroke-opacity:0.4" d="M14.25 7.3Q10.5 12.85 13.55 19.7L9.1 14.6L8.55 12.55L8.65 12.55L8.1 2.75Q8.25 -1.15 13.6 0.5Q9.7 1.9 9.35 4.3Q12.8 2.65 13.3 3.25Q15.35 5.1 14.25 7.3z" />
<path style="fill:none;stroke-width:0.7;stroke-linecap:round;stroke-linejoin:miter;stroke-miterlimit:3;stroke:#000000;stroke-opacity:0.4" d="M0.65 0.7Q4.65 1.9 5.2 4.35Q1.7 2.85 1.2 3.55Q-0.75 5.55 0.45 7.65Q4.35 13.05 1.75 19.9L5.95 14.65L6.85 12.6L6.3 2.75Q6 -1.15 0.65 0.7z" />
</g>
</svg>
