<?xml version="1.0" encoding="utf-8"?>
<svg version="1.1" id="Layer_1"
xmlns="http://www.w3.org/2000/svg"
xmlns:xlink="http://www.w3.org/1999/xlink"
width="204px" height="8px"
xml:space="preserve">
<g id="PathID_3477" transform="matrix(1, 0, 0, 1, 0.25, 0.25)">
<path style="fill:#646464;fill-opacity:1" d="M201.15 7.35L1.9 7.35Q-0.95 4.3 0.5 1.65Q2.8 5.05 75.65 4.7L196.1 3.9L198.7 3.35Q201.15 2.3 201.15 0Q205.35 3.7 201.15 7.35" />
<path style="fill:#808080;fill-opacity:1" d="M1.9 0L201.15 0Q201.15 2.3 198.7 3.35L196.1 3.9L75.65 4.7Q2.8 5.05 0.5 1.65Q1 0.8 1.9 0" />
<path style="fill:none;stroke-width:0.7;stroke-linecap:butt;stroke-linejoin:bevel;stroke-miterlimit:3;stroke:#000000;stroke-opacity:0.501961" d="M0.5 1.65Q-0.95 4.3 1.9 7.35L201.15 7.35Q205.35 3.7 201.15 0L1.9 0Q1 0.8 0.5 1.65z" />
</g>
</svg>
