<?xml version="1.0" encoding="utf-8"?>
<svg version="1.1" id="Layer_1"
xmlns="http://www.w3.org/2000/svg"
xmlns:xlink="http://www.w3.org/1999/xlink"
width="35px" height="32px"
xml:space="preserve">
<g id="PathID_3011" transform="matrix(1, 0, 0, 1, 17.05, 17)">
<path style="fill:#FFFFFF;fill-opacity:0.301961" d="M12.95 -11.3L13.25 -9.65L11.45 -11.25L13.95 -5.4Q11.45 -8.6 8.25 -9.95Q10.9 -8.95 10.2 -11.95L7.35 -12.9L3.95 -13.65Q7 -10.75 5 -12.5L5.4 -11.9Q3.4 -12.65 0 -13.2L1.2 -11.4Q-1.2 -12.5 -3.5 -12.7L-5.5 -12.75L-3.2 -10.6Q-6.55 -12.75 -9.75 -13.3Q-8 -10.3 -8.35 -8.35Q-9.1 -9.85 -10.15 -11.25L-10.45 -11.65L-15 -13.95L-15.9 -15.65L-11.45 -14.55L-2.9 -14.85L-3.4 -13.95L0.7 -17L0.2 -14.85L2.45 -16.7Q2.4 -14.8 3.2 -14.8Q4.3 -14.8 5.2 -16.25Q8.05 -16.1 10.15 -14.85L10.85 -14.25Q12.45 -15.6 14.5 -15.9L12.7 -14.45Q15.6 -14.8 17.45 -12.4L14.95 -12.65L15.95 -11.25Q16.4 -10.5 16.45 -9.75L16.35 -7.7L16.4 -6.75L12.95 -11.3M15.5 -6.5Q17.1 -3.9 16.7 -0.3L16.7 0.45Q16.45 0.7 14.75 -4.6L13.7 -9.7L15.5 -6.5M-16.25 -12.2L-17 -14.25L-15.5 -13.95L-12.4 -10.05L-15.6 -11.5L-16.25 -12.2M-3.1 -12.5L4.85 -8.65L-0.7 -9.5L-3.1 -12.5" />
<linearGradient
id="LinearGradID_1464" gradientUnits="userSpaceOnUse" gradientTransform="matrix(-0.00248718, 0.0201569, -0.0187378, -0.00230408, 0, 1)" spreadMethod ="pad" x1="-819.2" y1="0" x2="819.2" y2="0" >
<stop  offset="0" style="stop-color:#FFFFFF;stop-opacity:0.2" />
<stop  offset="1" style="stop-color:#808080;stop-opacity:0" />
</linearGradient>
<path style="fill:url(#LinearGradID_1464) " d="M-15.6 -11.5L-12.4 -10.05L-15.5 -13.95L-14.95 -13.85L-15 -13.95L-10.45 -11.65L-10.15 -11.25Q-9.1 -9.85 -8.35 -8.35Q-8 -10.3 -9.75 -13.3Q-6.55 -12.75 -3.2 -10.6L-5.5 -12.75L-3.5 -12.7Q-1.2 -12.5 1.2 -11.4L0 -13.2Q3.4 -12.65 5.4 -11.9L5 -12.5Q7 -10.75 3.95 -13.65L7.35 -12.9L10.2 -11.95Q10.9 -8.95 8.25 -9.95Q11.45 -8.6 13.95 -5.4L11.45 -11.25L13.25 -9.65L12.95 -11.3L16.4 -6.75L16.7 -5.5L15.5 -6.5L13.7 -9.7L14.75 -4.6L14.7 -2.3L11.6 -5.25Q13.4 -1.55 12.7 1.5L11.2 0.25Q12.95 2.35 12.15 7.85L9.85 6.15Q11.3 12.85 8.1 13.75L8.75 8.95L6.65 12.45L5.35 10L1.9 13.75L-2.9 12.5L-2.9 14.75Q-6.95 13.35 -8.35 7.4L-7.5 13Q-10.4 11.3 -10.85 7.85L-11.9 6.55Q-12.55 5.4 -13.5 5.55Q-14.45 5.65 -14.15 4.1L-13.5 1.45L-13.1 0.25Q-15.1 -2.35 -15.2 -4.3L-15.7 -2.9L-15.2 -5.7L-14.4 -6.55L-15.45 -5.55L-15.6 -5.45Q-15.45 -7.9 -17.05 -9.95L-15.5 -10.15L-16.25 -12.2L-15.6 -11.5M5.25 -0.15Q4.6 1.55 3 1.1L5.95 2.45L5.5 -1.15L5.25 -0.15M2.35 1.25L0.05 4.75L2.45 3.05Q5.1 4.55 6.25 8.75Q6.8 4.6 8.35 3.95L10.05 4.5L10.05 1.35Q9.2 3.55 7.55 -0.65L6.15 4.85L2.35 1.25M-0.7 -9.5L4.85 -8.65L-3.1 -12.5L-0.7 -9.5M-11.15 4.35L-10.85 5.45L-10.3 2.5L-11.15 4.35M-11.7 5.6L-11 6.85L-11.1 6.6L-11.5 5.15L-11.7 5.6" />
<path style="fill:#B59364;fill-opacity:1" d="M-14.4 -6.55L-15.2 -5.7L-15.45 -5.55L-14.4 -6.55" />
</g>
</svg>
