<?xml version="1.0" encoding="utf-8"?>
<svg version="1.1" id="Layer_1"
xmlns="http://www.w3.org/2000/svg"
xmlns:xlink="http://www.w3.org/1999/xlink"
width="34px" height="54px"
xml:space="preserve">
<g id="PathID_4105" transform="matrix(1, 0, 0, 1, 0.15, 0.15)">
<path style="fill:#54504E;fill-opacity:1" d="M13.05 39.8Q17.1 39.9 19.65 36.8Q26.25 28.8 23.9 18.4Q23 14.35 20.9 11.1Q18.9 8.05 16.8 7.1L17.55 7.05L21.15 7.35Q20.65 4.35 18.3 4.5Q14.7 4.2 13.65 7.5L12.25 7.75Q12.95 4.3 14.45 3.6Q18.65 1.75 21.2 3.85Q21.5 4.7 21.95 5.35Q24.35 5.75 24.35 1.95Q26.95 3.9 25.85 9.05Q29.6 11.15 32.2 15.65Q35.2 24.4 31.5 33.8Q30 38.5 27.3 41.5Q33 42.6 32.35 44.4Q31.65 48 22.95 48Q22.9 53.85 18.2 53.5Q12.7 53.1 12.9 47.6Q5.55 47.1 3.2 45.85Q1.45 43.35 8.05 40.95L4.95 37.05Q9.3 39.7 13.05 39.8M25.85 9.05Q23.65 7.8 21.15 7.35Q23.65 7.8 25.85 9.05M27.6 23.65Q27.2 25.1 26.55 29.15Q26.25 31.75 23.7 35.15Q22.05 37.4 20.15 39.25L20.5 39.6L21.2 40Q24.3 40.4 27.35 37.7Q30.7 34.6 31.4 29.5Q31.8 26.75 31.65 24.45Q31.4 20.9 29.65 20.65Q28.45 20.45 27.6 23.65M22.95 48L19.25 47.9L12.9 47.6L19.25 47.9L22.95 48M27.3 41.5Q16.5 43.5 8.05 40.95Q16.5 43.5 27.3 41.5" />
<path style="fill:#808080;fill-opacity:1" d="M21.95 5.35Q21.5 4.7 21.2 3.85Q18.65 1.75 14.45 3.6Q12.95 4.3 12.25 7.75Q10.9 8 9.65 8.5Q8.1 3.9 12.85 0.65Q18.7 -0.95 23.45 1.4L24.35 1.95Q24.35 5.75 21.95 5.35M14.35 1.7Q14.35 1.15 13.4 1.15Q12.55 1.15 11.9 2.3Q11.4 3.15 11.4 3.6Q11.4 4.05 11.85 4.05Q12.7 4.05 13.6 3.05Q14.35 2.15 14.35 1.7" />
<path style="fill:#696969;fill-opacity:1" d="M29.65 20.65Q31.4 20.9 31.65 24.45Q31.8 26.75 31.4 29.5Q30.7 34.6 27.35 37.7Q24.3 40.4 21.2 40L20.5 39.6L20.15 39.25Q22.05 37.4 23.7 35.15Q26.25 31.75 26.55 29.15Q27.2 25.1 27.6 23.65Q28.45 20.45 29.65 20.65" />
<radialGradient
id="RadialGradID_1767" gradientUnits="userSpaceOnUse" gradientTransform="matrix(0.019165, 0.00276184, -0.00289917, 0.0200806, 11.2, 14.9)" spreadMethod ="pad" cx="0" cy="0" r="819.2" fx="0" fy="0" >
<stop  offset="0"  style="stop-color:#BBBBBB;stop-opacity:1" />
<stop  offset="1"  style="stop-color:#808080;stop-opacity:1" />
</radialGradient>
<path style="fill:url(#RadialGradID_1767) " d="M16.8 7.1Q18.9 8.05 20.9 11.1Q23 14.35 23.9 18.4Q26.25 28.8 19.65 36.8Q17.1 39.9 13.05 39.8Q9.3 39.7 4.95 37.05Q1.9 32.7 0.3 27.9Q-0.85 20.3 2.7 13.55Q3.75 11.6 5.75 10.3Q6.95 9.55 9.65 8.5Q10.9 8 12.25 7.75L13.65 7.5L16.8 7.1M5.6 20.85Q6.3 21.75 7.4 21.9Q8.85 22.05 9.85 20.35Q10.85 18.85 11.1 17.15Q11.65 13.25 8.5 12.8L7.6 12.8Q6.95 12.95 6.25 13.65L5.7 15.05Q5.2 16.25 5.05 17.35Q4.7 19.7 5.6 20.85M5.85 26.8Q5.5 26.05 5.05 26L4.75 26.05L4.15 26.1L3.9 26.75L3.6 27.65Q3.45 28.8 4.05 29.6L4.95 30.25Q5.55 30.35 5.85 29.55L6.2 28.3Q6.25 27.55 5.85 26.8" />
<path style="fill:#C9C9C9;fill-opacity:1" d="M13.6 3.05Q12.7 4.05 11.85 4.05Q11.4 4.05 11.4 3.6Q11.4 3.15 11.9 2.3Q12.55 1.15 13.4 1.15Q14.35 1.15 14.35 1.7Q14.35 2.15 13.6 3.05M5.05 17.35Q5.2 16.25 5.7 15.05L6.25 13.65Q6.95 12.95 7.6 12.8L8.5 12.8Q11.65 13.25 11.1 17.15Q10.85 18.85 9.85 20.35Q8.85 22.05 7.4 21.9Q6.3 21.75 5.6 20.85Q4.7 19.7 5.05 17.35M6.2 28.3L5.85 29.55Q5.55 30.35 4.95 30.25L4.05 29.6Q3.45 28.8 3.6 27.65L3.9 26.75L4.15 26.1L4.75 26.05L5.05 26Q5.5 26.05 5.85 26.8Q6.25 27.55 6.2 28.3" />
<path style="fill:none;stroke-width:0.7;stroke-linecap:round;stroke-linejoin:round;stroke-miterlimit:3;stroke:#000000;stroke-opacity:0.301961" d="M24.35 1.95L23.45 1.4Q18.7 -0.95 12.85 0.65Q8.1 3.9 9.65 8.5Q10.9 8 12.25 7.75" />
<path style="fill:none;stroke-width:0.7;stroke-linecap:round;stroke-linejoin:round;stroke-miterlimit:3;stroke:#000000;stroke-opacity:0.301961" d="M24.35 1.95Q26.95 3.9 25.85 9.05Q29.6 11.15 32.2 15.65Q35.2 24.4 31.5 33.8Q30 38.5 27.3 41.5Q33 42.6 32.35 44.4Q31.65 48 22.95 48Q22.9 53.85 18.2 53.5Q12.7 53.1 12.9 47.6Q5.55 47.1 3.2 45.85Q1.45 43.35 8.05 40.95L4.95 37.05Q1.9 32.7 0.3 27.9Q-0.85 20.3 2.7 13.55Q3.75 11.6 5.75 10.3Q6.95 9.55 9.65 8.5" />
<path style="fill:none;stroke-width:0.7;stroke-linecap:round;stroke-linejoin:round;stroke-miterlimit:3;stroke:#000000;stroke-opacity:0.301961" d="M21.15 7.35Q23.65 7.8 25.85 9.05" />
<path style="fill:none;stroke-width:0.7;stroke-linecap:round;stroke-linejoin:round;stroke-miterlimit:3;stroke:#000000;stroke-opacity:0.301961" d="M12.25 7.75L13.65 7.5Q14.7 4.2 18.3 4.5Q20.65 4.35 21.15 7.35L17.55 7.05L16.8 7.1L13.65 7.5" />
<path style="fill:none;stroke-width:0.7;stroke-linecap:round;stroke-linejoin:round;stroke-miterlimit:3;stroke:#000000;stroke-opacity:0.301961" d="M12.9 47.6L19.25 47.9L22.95 48" />
<path style="fill:none;stroke-width:0.7;stroke-linecap:round;stroke-linejoin:round;stroke-miterlimit:3;stroke:#000000;stroke-opacity:0.301961" d="M8.05 40.95Q16.5 43.5 27.3 41.5" />
</g>
</svg>
