<?xml version="1.0" encoding="utf-8"?>
<svg version="1.1" id="Layer_1"
xmlns="http://www.w3.org/2000/svg"
xmlns:xlink="http://www.w3.org/1999/xlink"
width="18px" height="18px"
xml:space="preserve">
<g id="PathID_2846" transform="matrix(1, 0, 0, 1, -0.2, 0.1)">
<path style="fill:#535353;fill-opacity:1" d="M16.85 3.85L17.05 4.1Q17.85 5.65 15.45 6.95Q12.45 8.3 10.85 7.6Q15.85 6.8 16.85 3.85M10.25 6.75L9.85 6.9Q8.05 7.45 8.75 2.6Q9.35 -0.5 11.45 0L11.85 0.2Q8.35 3.25 10.25 6.75M10.3 9.55Q10.55 14.7 14.25 15.6L13.65 16.1Q12.1 16.95 10.6 14.7Q9.05 11.7 9.8 10.05L10.3 9.55M12.25 10.85L11.4 10Q16.85 12.35 17.7 9.25Q18.2 9.85 18 10.7Q17.5 12.4 14.75 11.9Q13.15 11.45 12.25 10.85M5.6 5.95L4.45 4.4Q2.65 1.65 4.6 0.8Q7.2 6.9 8.45 6L8.2 6.95L8 7.05Q7.65 7.5 7.05 7.25L7.35 8.05Q7.55 8.75 6.85 9.05L4.85 9.1L2.85 8.75Q-0.15 7.95 0.3 6.25Q6.65 8.6 6.85 7.15L5.6 5.95M6.55 11.7L5.1 12.95Q2.2 14.7 1.15 12.95L0.95 12.4Q4.4 13.05 7.55 9.3Q8.05 9.7 7.55 10.55Q7 10.95 6.55 11.7M8.95 10.2Q9.85 10.75 9.4 14.5Q8.9 17.5 6.75 17Q5.6 16.75 5.45 15.6Q8.45 16.75 8.95 10.2M6.85 7.15L7.05 7.25L6.85 7.15" />
<path style="fill:#808080;fill-opacity:1" d="M11.9 4.85Q11.15 6.2 10.25 6.75Q8.35 3.25 11.85 0.2Q13.1 0.8 12.65 2.95L11.9 4.85L13.25 3.85Q15.9 2.45 16.85 3.85Q15.85 6.8 10.85 7.6L10.7 7.5Q10.1 7.25 10.25 6.75Q11.15 6.2 11.9 4.85M10.85 9.3Q10.1 7.5 15.2 8.15Q16.9 8.35 17.7 9.25Q16.85 12.35 11.4 10L11.15 9.8L10.85 9.3M12.25 10.85L13.6 12.4Q15.15 14.45 14.25 15.6Q10.55 14.7 10.3 9.55L11.15 9.8L11.4 10L12.25 10.85M4.6 0.8Q6.3 0 7.65 2.25Q8.7 4.55 8.45 6Q7.2 6.9 4.6 0.8M0.95 12.4Q0.7 11.1 2.6 10Q3.8 9.35 4.85 9.1L6.85 9.05L7.3 9.15L7.55 9.3Q4.4 13.05 0.95 12.4M5.45 15.6Q5.3 14.95 5.55 13.95Q5.95 12.6 6.55 11.7Q7 10.95 7.55 10.55L8.25 10.15L8.95 10.2Q8.45 16.75 5.45 15.6M6.85 7.15Q6.65 8.6 0.3 6.25L0.4 5.95Q1 4.3 3.7 5.05Q4.75 5.4 5.6 5.95L6.85 7.15" />
<path style="fill:none;stroke-width:0.7;stroke-linecap:butt;stroke-linejoin:miter;stroke-miterlimit:3;stroke:#000000;stroke-opacity:0.4" d="M16.85 3.85L17.05 4.1Q17.85 5.65 15.45 6.95Q12.45 8.3 10.85 7.6L10.7 7.5Q10.1 7.25 10.25 6.75L9.85 6.9Q8.05 7.45 8.75 2.6Q9.35 -0.5 11.45 0L11.85 0.2Q13.1 0.8 12.65 2.95L11.9 4.85L13.25 3.85Q15.9 2.45 16.85 3.85z" />
<path style="fill:none;stroke-width:0.7;stroke-linecap:round;stroke-linejoin:miter;stroke-miterlimit:3;stroke:#000000;stroke-opacity:0.4" d="M11.4 10L11.15 9.8" />
<path style="fill:none;stroke-width:0.7;stroke-linecap:butt;stroke-linejoin:miter;stroke-miterlimit:3;stroke:#000000;stroke-opacity:0.4" d="M11.15 9.8L10.3 9.55" />
<path style="fill:none;stroke-width:0.7;stroke-linecap:butt;stroke-linejoin:miter;stroke-miterlimit:3;stroke:#000000;stroke-opacity:0.4" d="M14.25 15.6Q15.15 14.45 13.6 12.4L12.25 10.85L11.4 10" />
<path style="fill:none;stroke-width:0.7;stroke-linecap:round;stroke-linejoin:miter;stroke-miterlimit:3;stroke:#000000;stroke-opacity:0.4" d="M17.7 9.25Q16.9 8.35 15.2 8.15Q10.1 7.5 10.85 9.3L11.15 9.8" />
<path style="fill:none;stroke-width:0.7;stroke-linecap:butt;stroke-linejoin:miter;stroke-miterlimit:3;stroke:#000000;stroke-opacity:0.4" d="M17.7 9.25Q18.2 9.85 18 10.7Q17.5 12.4 14.75 11.9Q13.15 11.45 12.25 10.85" />
<path style="fill:none;stroke-width:0.7;stroke-linecap:butt;stroke-linejoin:miter;stroke-miterlimit:3;stroke:#000000;stroke-opacity:0.4" d="M11.9 4.85Q11.15 6.2 10.25 6.75" />
<path style="fill:none;stroke-width:0.7;stroke-linecap:butt;stroke-linejoin:miter;stroke-miterlimit:3;stroke:#000000;stroke-opacity:0.4" d="M4.6 0.8Q6.3 0 7.65 2.25Q8.7 4.55 8.45 6L8.2 6.95L8 7.05Q7.65 7.5 7.05 7.25L7.35 8.05Q7.55 8.75 6.85 9.05L7.3 9.15L7.55 9.3Q8.05 9.7 7.55 10.55L8.25 10.15L8.95 10.2Q9.85 10.75 9.4 14.5Q8.9 17.5 6.75 17Q5.6 16.75 5.45 15.6Q5.3 14.95 5.55 13.95Q5.95 12.6 6.55 11.7L5.1 12.95Q2.2 14.7 1.15 12.95L0.95 12.4Q0.7 11.1 2.6 10Q3.8 9.35 4.85 9.1L2.85 8.75Q-0.15 7.95 0.3 6.25L0.4 5.95Q1 4.3 3.7 5.05Q4.75 5.4 5.6 5.95L4.45 4.4Q2.65 1.65 4.6 0.8z" />
<path style="fill:none;stroke-width:0.7;stroke-linecap:butt;stroke-linejoin:miter;stroke-miterlimit:3;stroke:#000000;stroke-opacity:0.4" d="M7.05 7.25L6.85 7.15" />
<path style="fill:none;stroke-width:0.7;stroke-linecap:butt;stroke-linejoin:miter;stroke-miterlimit:3;stroke:#000000;stroke-opacity:0.4" d="M6.55 11.7Q7 10.95 7.55 10.55" />
<path style="fill:none;stroke-width:0.7;stroke-linecap:butt;stroke-linejoin:miter;stroke-miterlimit:3;stroke:#000000;stroke-opacity:0.4" d="M6.85 7.15L5.6 5.95" />
<path style="fill:none;stroke-width:0.7;stroke-linecap:butt;stroke-linejoin:miter;stroke-miterlimit:3;stroke:#000000;stroke-opacity:0.4" d="M4.85 9.1L6.85 9.05" />
<path style="fill:none;stroke-width:0.7;stroke-linecap:butt;stroke-linejoin:miter;stroke-miterlimit:3;stroke:#000000;stroke-opacity:0.4" d="M14.25 15.6L13.65 16.1Q12.1 16.95 10.6 14.7Q9.05 11.7 9.8 10.05L10.3 9.55" />
</g>
</svg>
