<?xml version="1.0" encoding="utf-8"?>
<svg version="1.1" id="Layer_1"
xmlns="http://www.w3.org/2000/svg"
xmlns:xlink="http://www.w3.org/1999/xlink"
width="17px" height="10px"
xml:space="preserve">
<g id="PathID_3438" transform="matrix(1, 0, 0, 1, 0.2, 0.2)">
<path style="fill:#54504E;fill-opacity:1" d="M9.9 5.85L7.2 4Q5.05 2.5 6.25 0.95Q9.55 0.85 11.65 2.85Q12.7 3.9 13.1 4.9Q12.85 6.15 9.9 5.85" />
<path style="fill:none;stroke-width:0.7;stroke-linecap:round;stroke-linejoin:round;stroke-miterlimit:3;stroke:#000000;stroke-opacity:0.388235" d="M9.9 5.85L7.2 4Q5.05 2.5 6.25 0.95Q9.55 0.85 11.65 2.85Q12.7 3.9 13.1 4.9Q12.85 6.15 9.9 5.85z" />
</g>
<g id="PathID_3439" transform="matrix(1, 0, 0, 1, 0.2, 0.2)">
<path style="fill:#54504E;fill-opacity:1" d="M4.8 3.55Q5.25 3.05 4.7 1.8Q6.55 2.6 7.1 3.55L6.9 2Q7.55 2.9 7.8 3.75L4.85 4.35L0 1.85Q2.4 1.8 4.8 3.55" />
<path style="fill:#808080;fill-opacity:1" d="M6.9 2L7.1 3.55Q6.55 2.6 4.7 1.8Q5.25 3.05 4.8 3.55Q2.4 1.8 0 1.85Q2.5 -0.55 4.65 0.2Q6.15 1.1 6.9 2" />
<path style="fill:none;stroke-width:0.7;stroke-linecap:round;stroke-linejoin:round;stroke-miterlimit:3;stroke:#000000;stroke-opacity:0.388235" d="M0 1.85L4.85 4.35L7.8 3.75Q7.55 2.9 6.9 2" />
<path style="fill:none;stroke-width:0.7;stroke-linecap:round;stroke-linejoin:round;stroke-miterlimit:3;stroke:#000000;stroke-opacity:0.388235" d="M0 1.85Q2.5 -0.55 4.65 0.2Q6.15 1.1 6.9 2" />
</g>
<g id="PathID_3440" transform="matrix(1, 0, 0, 1, 0.2, 0.2)">
<path style="fill:#54504E;fill-opacity:1" d="M9.9 5.3L11.85 5L13.4 5.05Q17.25 8.45 15.15 9.6Q14.15 9.75 9.25 6.85L9.9 5.3" />
<path style="fill:none;stroke-width:0.7;stroke-linecap:round;stroke-linejoin:round;stroke-miterlimit:3;stroke:#000000;stroke-opacity:0.388235" d="M9.9 5.3L11.85 5L13.4 5.05Q17.25 8.45 15.15 9.6Q14.15 9.75 9.25 6.85L9.9 5.3z" />
</g>
</svg>
