<?xml version="1.0" encoding="utf-8"?>
<svg version="1.1" id="Layer_1"
xmlns="http://www.w3.org/2000/svg"
xmlns:xlink="http://www.w3.org/1999/xlink"
width="202px" height="11px"
xml:space="preserve">
<g id="PathID_3369" transform="matrix(1, 0, 0, 1, 25.45, 0.15)">
<path style="fill:#808080;fill-opacity:1" d="M147.5 1.35Q146.9 3.25 147.05 5.25L0 4.95Q-0.05 3.1 0.65 1.35L147.5 1.35" />
<path style="fill:#AAAAAA;fill-opacity:1" d="M0.65 1.35Q0.9 0.65 1.3 0.05L147.95 0.1L147.5 1.35L0.65 1.35" />
<path style="fill:#54504E;fill-opacity:1" d="M147.05 5.25Q147.3 7.55 148.45 9.95L147.4 10L2.8 10.1L1.45 10.1Q0.1 7.35 0 4.95L147.05 5.25M2.8 10.1L1.45 10.1L2.8 10.1" />
<path style="fill:none;stroke-width:0.7;stroke-linecap:round;stroke-linejoin:miter;stroke-miterlimit:5;stroke:#000000;stroke-opacity:0.4" d="M147.95 0.1L172.85 0.1Q174.4 0.05 175.1 1.35Q175.7 2.55 175.55 4.85Q175.4 9.75 173.4 9.95L147.4 10L2.8 10.1" />
<path style="fill:none;stroke-width:0.7;stroke-linecap:round;stroke-linejoin:miter;stroke-miterlimit:5;stroke:#000000;stroke-opacity:0.4" d="M1.45 10.1L-23.95 10.1Q-26.15 6.15 -24.8 1.35L-24.35 0L1.3 0.05L147.95 0.1" />
<path style="fill:none;stroke-width:0.7;stroke-linecap:round;stroke-linejoin:miter;stroke-miterlimit:5;stroke:#000000;stroke-opacity:0.4" d="M173.4 9.95Q171.65 8.45 171.5 5.3Q171.35 2.8 172 1.35Q172.3 0.55 172.85 0.1" />
<path style="fill:none;stroke-width:0.7;stroke-linecap:round;stroke-linejoin:miter;stroke-miterlimit:5;stroke:#000000;stroke-opacity:0.4" d="M1.45 10.1L2.8 10.1" />
</g>
</svg>
