<?xml version="1.0" encoding="utf-8"?>
<svg version="1.1" id="Layer_1"
xmlns="http://www.w3.org/2000/svg"
xmlns:xlink="http://www.w3.org/1999/xlink"
width="28px" height="33px"
xml:space="preserve">
<g id="PathID_4420" transform="matrix(1, 0, 0, 1, 13.9, 17.05)">
<path style="fill:none;stroke-width:0.7;stroke-linecap:round;stroke-linejoin:round;stroke-miterlimit:3;stroke:#000000;stroke-opacity:0.14902" d="M1.85 -12.7L1 -10.25L1.6 -6.25L0.6 -4.7" />
<path style="fill:none;stroke-width:0.7;stroke-linecap:round;stroke-linejoin:round;stroke-miterlimit:3;stroke:#000000;stroke-opacity:0.4" d="M0.6 -4.7L2.9 -5.05L4.3 -6.15L4.55 -5.05L8.95 -9.15L9.75 -8.65L10.55 -8.15L11.25 -9.05" />
<path style="fill:none;stroke-width:0.7;stroke-linecap:round;stroke-linejoin:round;stroke-miterlimit:3;stroke:#000000;stroke-opacity:0.14902" d="M-3.8 -11.75L-3.6 -10.15" />
<path style="fill:none;stroke-width:0.7;stroke-linecap:round;stroke-linejoin:round;stroke-miterlimit:3;stroke:#000000;stroke-opacity:0.4" d="M-3.6 -10.15L-2.9 -8.4" />
<path style="fill:none;stroke-width:0.7;stroke-linecap:round;stroke-linejoin:round;stroke-miterlimit:3;stroke:#000000;stroke-opacity:0.14902" d="M-2.9 -8.4L1 -10.25" />
<path style="fill:none;stroke-width:0.7;stroke-linecap:round;stroke-linejoin:round;stroke-miterlimit:3;stroke:#000000;stroke-opacity:0.4" d="M-2.9 -8.4L-2.2 -6.65L-2.35 -4.3L0.6 -4.7" />
<path style="fill:none;stroke-width:0.7;stroke-linecap:round;stroke-linejoin:round;stroke-miterlimit:3;stroke:#000000;stroke-opacity:0.4" d="M-6.3 -9.6L-7.85 -9.3L-8.8 -11.15" />
<path style="fill:none;stroke-width:0.7;stroke-linecap:round;stroke-linejoin:round;stroke-miterlimit:3;stroke:#000000;stroke-opacity:0.14902" d="M-2.35 -4.3L-4.05 -1.75L-3.8 1.3" />
<path style="fill:none;stroke-width:0.7;stroke-linecap:round;stroke-linejoin:round;stroke-miterlimit:3;stroke:#000000;stroke-opacity:0.4" d="M-3.6 -10.15L-6.3 -9.6" />
<path style="fill:none;stroke-width:0.7;stroke-linecap:round;stroke-linejoin:round;stroke-miterlimit:3;stroke:#000000;stroke-opacity:0.14902" d="M-6.3 -9.6L-7.4 -5.45L-4.05 -1.75" />
</g>
<g id="PathID_4421" transform="matrix(1, 0, 0, 1, 13.9, 17.05)">
<path style="fill:none;stroke-width:0.8;stroke-linecap:round;stroke-linejoin:round;stroke-miterlimit:3;stroke:#000000;stroke-opacity:0.6" d="M2.75 -16.5Q-4.45 -17.55 -9.1 -10.75Q-13.85 -3.7 -13.5 3.3Q-13.3 7.4 -10.4 10.4Q-7.2 13.75 -1.7 14.6Q7.5 16 12 8.75Q13.3 6.65 13.05 0.9Q12.85 -4.35 11.7 -7.8Q10.7 -10.95 8.65 -13.2Q6.2 -15.9 2.75 -16.5z" />
</g>
<g id="PathID_4422" transform="matrix(1, 0, 0, 1, 13.9, 17.05)">
<path style="fill:#000000;fill-opacity:0.2" d="M8.65 -13.2Q10.7 -10.95 11.7 -7.8Q12.85 -4.35 13.05 0.9Q13.3 6.65 12 8.75Q7.5 16 -1.7 14.6L-3.55 14.25L-2.95 13.95Q0.75 12.2 3.5 9.45Q5.8 7.15 7.15 4Q8.75 0.4 8.65 -3.4Q8.5 -7.35 7.8 -11.2L7.35 -14.4L8.65 -13.2" />
</g>
<g id="PathID_4423" transform="matrix(1, 0, 0, 1, 13.9, 17.05)">
<path style="fill:#430000;fill-opacity:0.2" d="M5.7 -15.5Q7.3 -14.7 8.65 -13.2Q10.7 -10.95 11.7 -7.8Q12.85 -4.35 13.05 0.9Q13.3 6.65 12 8.75Q7.5 16 -1.7 14.6Q-7.2 13.75 -10.4 10.4L-11.9 8.45L-9 8.5Q-5 7.9 -1.65 6.3L-0.15 5.2L1.95 2.95Q3.45 0.7 4.75 -2.6Q5.65 -4.85 6.2 -9.1Q6.5 -11.85 6 -14.15L5.7 -15.5" />
</g>
</svg>
