<?xml version="1.0" encoding="utf-8"?>
<svg version="1.1" id="Layer_1"
xmlns="http://www.w3.org/2000/svg"
xmlns:xlink="http://www.w3.org/1999/xlink"
width="23px" height="76px"
xml:space="preserve">
<g id="PathID_3818" transform="matrix(1, 0, 0, 1, 0.2, 0.3)">
<path style="fill:#54504E;fill-opacity:1" d="M13.8 55.65L9.35 58.2L0.3 57.05L2.2 59.7L9.35 58.2L1.3 56.35Q5.95 52.45 6.85 46.95L21.2 48Q19.9 50.4 20.15 52.2L13.8 55.65M2.2 59.7L0.1 60.2L0.3 57.05L13.8 55.65M9.35 58.2L0.3 57.05M9.35 58.2Q8.65 58.55 2.2 59.7L0.3 57.05" />
<path style="fill:#808080;fill-opacity:1" d="M2.2 59.7L3.05 60.65Q7.2 65.25 12.75 66.8Q7.2 65.25 3.05 60.65L2.2 59.7Q8.65 58.55 9.35 58.2L13.8 55.65L20.15 52.2Q20.35 53.7 21.7 54.75Q17.7 56.55 19.2 59.4Q12.2 59.95 12.75 66.8Q3.85 67.5 3.35 74.5Q-0.25 72.2 0 62.2L0.1 60.2L2.2 59.7M21.7 54.75L13.8 55.65L21.7 54.75M19.2 59.4L9.35 58.2L19.2 59.4" />
<path style="fill:none;stroke-width:0.7;stroke-linecap:butt;stroke-linejoin:miter;stroke-miterlimit:3;stroke:#000000;stroke-opacity:0.4" d="M20.15 52.2Q19.9 50.4 21.2 48L6.85 46.95Q5.95 52.45 1.3 56.35L0.3 57.05" />
<path style="fill:none;stroke-width:0.7;stroke-linecap:butt;stroke-linejoin:miter;stroke-miterlimit:3;stroke:#000000;stroke-opacity:0.4" d="M0.3 57.05L13.8 55.65" />
<path style="fill:none;stroke-width:0.7;stroke-linecap:butt;stroke-linejoin:miter;stroke-miterlimit:3;stroke:#000000;stroke-opacity:0.4" d="M20.15 52.2Q20.35 53.7 21.7 54.75Q17.7 56.55 19.2 59.4Q12.2 59.95 12.75 66.8Q3.85 67.5 3.35 74.5Q-0.25 72.2 0 62.2L0.1 60.2L0.3 57.05" />
<path style="fill:none;stroke-width:0.7;stroke-linecap:butt;stroke-linejoin:miter;stroke-miterlimit:3;stroke:#000000;stroke-opacity:0.4" d="M0.3 57.05L9.35 58.2" />
<path style="fill:none;stroke-width:0.7;stroke-linecap:butt;stroke-linejoin:miter;stroke-miterlimit:3;stroke:#000000;stroke-opacity:0.4" d="M13.8 55.65L21.7 54.75" />
<path style="fill:none;stroke-width:0.7;stroke-linecap:butt;stroke-linejoin:miter;stroke-miterlimit:3;stroke:#000000;stroke-opacity:0.4" d="M0.3 57.05L2.2 59.7" />
<path style="fill:none;stroke-width:0.7;stroke-linecap:butt;stroke-linejoin:miter;stroke-miterlimit:3;stroke:#000000;stroke-opacity:0.4" d="M9.35 58.2L19.2 59.4" />
<path style="fill:none;stroke-width:0.7;stroke-linecap:butt;stroke-linejoin:miter;stroke-miterlimit:3;stroke:#000000;stroke-opacity:0.4" d="M12.75 66.8Q7.2 65.25 3.05 60.65L2.2 59.7" />
</g>
<g id="PathID_3819" transform="matrix(1, 0, 0, 1, 0.2, 0.3)">
<path style="fill:#808080;fill-opacity:1" d="M9.95 16.35L19.8 15.1L9.95 16.35Q8.4 15.55 7.5 15.35L5.15 15.05L2.8 14.85L3.65 13.85Q7.8 9.3 13.35 7.7Q7.8 9.3 3.65 13.85L2.8 14.85L0.7 14.35L0.6 12.3Q0.35 2.3 3.95 0Q4.45 7.05 13.35 7.7Q12.75 14.6 19.8 15.1Q18.25 17.95 22.25 19.75Q20.95 20.8 20.75 22.35L19.35 21.3Q18 20.5 14.4 18.85L9.95 16.35M22.25 19.75L14.4 18.85L22.25 19.75" />
<path style="fill:#54504E;fill-opacity:1" d="M5.15 15.05L7.5 15.35Q8.4 15.55 9.95 16.35L0.9 17.45L14.4 18.85Q18 20.5 19.35 21.3L20.75 22.35Q20.45 24.15 21.8 26.5L7.4 27.6Q6.55 22.1 1.9 18.2L0.9 17.45L0.7 14.35L2.8 14.85L5.15 15.05M14.4 18.85L0.9 17.45L2.8 14.85L0.9 17.45L9.95 16.35L14.4 18.85" />
<path style="fill:none;stroke-width:0.7;stroke-linecap:butt;stroke-linejoin:miter;stroke-miterlimit:3;stroke:#000000;stroke-opacity:0.4" d="M0.7 14.35L0.6 12.3Q0.35 2.3 3.95 0Q4.45 7.05 13.35 7.7Q12.75 14.6 19.8 15.1Q18.25 17.95 22.25 19.75Q20.95 20.8 20.75 22.35Q20.45 24.15 21.8 26.5L7.4 27.6Q6.55 22.1 1.9 18.2L0.9 17.45L0.7 14.35z" />
<path style="fill:none;stroke-width:0.7;stroke-linecap:butt;stroke-linejoin:miter;stroke-miterlimit:3;stroke:#000000;stroke-opacity:0.4" d="M2.8 14.85L3.65 13.85Q7.8 9.3 13.35 7.7" />
<path style="fill:none;stroke-width:0.7;stroke-linecap:butt;stroke-linejoin:miter;stroke-miterlimit:3;stroke:#000000;stroke-opacity:0.4" d="M2.8 14.85L0.9 17.45L9.95 16.35L19.8 15.1" />
<path style="fill:none;stroke-width:0.7;stroke-linecap:butt;stroke-linejoin:miter;stroke-miterlimit:3;stroke:#000000;stroke-opacity:0.4" d="M14.4 18.85L0.9 17.45" />
<path style="fill:none;stroke-width:0.7;stroke-linecap:butt;stroke-linejoin:miter;stroke-miterlimit:3;stroke:#000000;stroke-opacity:0.4" d="M14.4 18.85L22.25 19.75" />
</g>
</svg>
