<?xml version="1.0" encoding="utf-8"?>
<svg version="1.1" id="Layer_1"
xmlns="http://www.w3.org/2000/svg"
xmlns:xlink="http://www.w3.org/1999/xlink"
width="10px" height="21px"
xml:space="preserve">
<g id="PathID_3765" transform="matrix(1, 0, 0, 1, 0, 0)">
<path style="fill:#808080;fill-opacity:1" d="M6.8 6.25Q7.25 7.35 7.2 8.25Q5.75 9 4.4 6.25L4.95 5.25Q5 5.1 5.6 4.7L5.7 4.7Q6.3 4.95 6.8 6.25M5.75 13.85Q5.2 13.85 4.6 13.1Q3.9 11.8 3.95 9.45Q5.6 9.55 6.95 11.9L5.75 13.85" />
<path style="fill:#B8B8B8;fill-opacity:1" d="M7.25 9.75L6.95 11.9Q5.6 9.55 3.95 9.45L4.1 7.9L4.4 6.25Q5.75 9 7.2 8.25L7.25 9.75" />
<path style="fill:#433D39;fill-opacity:1" d="M6.95 11.9L7.25 9.75L7.2 8.25Q7.25 7.35 6.8 6.25Q6.3 4.95 5.7 4.7Q8.55 4.75 9.05 6.7Q9.45 8.65 9.35 10.1Q9.2 11.6 8.35 12.9L7.35 13.9L5.75 13.85L6.95 11.9" />
<path style="fill:none;stroke-width:0.7;stroke-linecap:round;stroke-linejoin:round;stroke-miterlimit:3;stroke:#000000;stroke-opacity:0.4" d="M5.7 4.7L5.6 4.7Q5 5.1 4.95 5.25L4.4 6.25" />
<path style="fill:none;stroke-width:0.7;stroke-linecap:round;stroke-linejoin:round;stroke-miterlimit:3;stroke:#000000;stroke-opacity:0.4" d="M5.7 4.7Q8.55 4.75 9.05 6.7Q9.45 8.65 9.35 10.1Q9.2 11.6 8.35 12.9L7.35 13.9L5.75 13.85Q5.2 13.85 4.6 13.1Q3.9 11.8 3.95 9.45L4.1 7.9L4.4 6.25" />
</g>
<g id="PathID_3766" transform="matrix(1, 0, 0, 1, 0, 0)">
<path style="fill:#808080;fill-opacity:1" d="M7.1 13.55Q7.15 14.8 6.85 15.6Q5.2 15.85 4.8 12.85L5.6 12.05L6.4 11.75L6.5 11.8Q7 12.2 7.1 13.55M5.4 19L3.65 20.45Q3.15 20.25 2.85 19.4Q2.55 17.95 3.35 15.75Q4.9 16.35 5.4 19" />
<path style="fill:#433D39;fill-opacity:1" d="M5.4 19L6.4 17.05L6.85 15.6Q7.15 14.8 7.1 13.55Q7 12.2 6.5 11.8Q9.2 12.75 9.05 14.75Q8.85 16.75 8.25 18.05Q7.65 19.4 6.45 20.35L5.2 21L3.65 20.45L5.4 19" />
<path style="fill:#B8B8B8;fill-opacity:1" d="M3.35 15.75L4 14.3L4.8 12.85Q5.2 15.85 6.85 15.6L6.4 17.05L5.4 19Q4.9 16.35 3.35 15.75" />
<path style="fill:none;stroke-width:0.7;stroke-linecap:round;stroke-linejoin:round;stroke-miterlimit:3;stroke:#000000;stroke-opacity:0.4" d="M6.5 11.8L6.4 11.75L5.6 12.05L4.8 12.85" />
<path style="fill:none;stroke-width:0.7;stroke-linecap:round;stroke-linejoin:round;stroke-miterlimit:3;stroke:#000000;stroke-opacity:0.4" d="M6.5 11.8Q9.2 12.75 9.05 14.75Q8.85 16.75 8.25 18.05Q7.65 19.4 6.45 20.35L5.2 21L3.65 20.45Q3.15 20.25 2.85 19.4Q2.55 17.95 3.35 15.75L4 14.3L4.8 12.85" />
</g>
<g id="PathID_3767" transform="matrix(1, 0, 0, 1, 0, 0)">
<path style="fill:#433D39;fill-opacity:1" d="M3 7.3L3.75 5.25L4 3.8Q4.25 2.9 4.05 1.8Q3.8 0.35 3.3 0Q6.05 0.65 6.15 2.7Q6.15 4.7 5.7 6.05Q5.25 7.5 4.15 8.6L2.95 9.35L1.45 8.95L3 7.3" />
<path style="fill:#808080;fill-opacity:1" d="M1.7 1.25L2.45 0.4Q2.55 0.25 3.2 0L3.3 0Q3.8 0.35 4.05 1.8Q4.25 2.9 4 3.8Q2.45 4.2 1.7 1.25M3 7.3L1.45 8.95Q0.9 8.85 0.45 8Q0 6.55 0.55 4.3Q2.2 4.75 3 7.3" />
<path style="fill:#B8B8B8;fill-opacity:1" d="M0.55 4.3L1.05 2.8L1.7 1.25Q2.45 4.2 4 3.8L3.75 5.25L3 7.3Q2.2 4.75 0.55 4.3" />
<path style="fill:none;stroke-width:0.7;stroke-linecap:round;stroke-linejoin:round;stroke-miterlimit:3;stroke:#000000;stroke-opacity:0.4" d="M1.45 8.95L2.95 9.35L4.15 8.6Q5.25 7.5 5.7 6.05Q6.15 4.7 6.15 2.7Q6.05 0.65 3.3 0" />
<path style="fill:none;stroke-width:0.7;stroke-linecap:round;stroke-linejoin:round;stroke-miterlimit:3;stroke:#000000;stroke-opacity:0.4" d="M1.45 8.95Q0.9 8.85 0.45 8Q0 6.55 0.55 4.3L1.05 2.8L1.7 1.25L2.45 0.4Q2.55 0.25 3.2 0L3.3 0" />
</g>
<g id="PathID_3768" transform="matrix(1, 0, 0, 1, 0, 0)">
<path style="fill:#808080;fill-opacity:1" d="M2.15 8.65Q3.05 9.45 3.4 10.25Q2.45 11.55 0 9.75L0.05 8.6L0.4 7.85L0.45 7.8Q1.1 7.7 2.15 8.65M4.7 15.85L3.35 15.75Q2.1 14.9 1.05 12.8Q2.6 12.15 4.9 13.55L4.7 15.85" />
<path style="fill:#433D39;fill-opacity:1" d="M4.9 13.55L4.15 11.55L3.4 10.25Q3.05 9.45 2.15 8.65Q1.1 7.7 0.45 7.8Q3 6.5 4.35 8Q5.6 9.55 6.15 10.85Q6.7 12.3 6.55 13.8L6.15 15.2L4.7 15.85L4.9 13.55" />
<path style="fill:#B8B8B8;fill-opacity:1" d="M4.15 11.55L4.9 13.55Q2.6 12.15 1.05 12.8L0.5 11.35L0 9.75Q2.45 11.55 3.4 10.25L4.15 11.55" />
<path style="fill:none;stroke-width:0.7;stroke-linecap:round;stroke-linejoin:round;stroke-miterlimit:3;stroke:#000000;stroke-opacity:0.4" d="M0.45 7.8L0.4 7.85L0.05 8.6L0 9.75" />
<path style="fill:none;stroke-width:0.7;stroke-linecap:round;stroke-linejoin:round;stroke-miterlimit:3;stroke:#000000;stroke-opacity:0.4" d="M0.45 7.8Q3 6.5 4.35 8Q5.6 9.55 6.15 10.85Q6.7 12.3 6.55 13.8L6.15 15.2L4.7 15.85L3.35 15.75Q2.1 14.9 1.05 12.8L0.5 11.35L0 9.75" />
</g>
</svg>
