<?xml version="1.0" encoding="utf-8"?>
<svg version="1.1" id="Layer_1"
xmlns="http://www.w3.org/2000/svg"
xmlns:xlink="http://www.w3.org/1999/xlink"
width="74px" height="23px"
xml:space="preserve">
<g id="PathID_3646" transform="matrix(1, 0, 0, 1, 0.35, 0.35)">
<path style="fill:none;stroke-width:0.7;stroke-linecap:round;stroke-linejoin:round;stroke-miterlimit:3;stroke:#808080;stroke-opacity:1" d="M66.95 2.75Q67.2 1.6 65.85 0.7Q63.85 1.9 63.15 3.1Q61.1 6.7 56.95 6.3" />
<path style="fill:none;stroke-width:0.7;stroke-linecap:round;stroke-linejoin:round;stroke-miterlimit:3;stroke:#808080;stroke-opacity:1" d="M68.55 2.25Q68.45 1.25 67.15 0.15Q66.75 0.2 66.35 0.4L65.85 0.7" />
<path style="fill:none;stroke-width:0.7;stroke-linecap:round;stroke-linejoin:round;stroke-miterlimit:3;stroke:#808080;stroke-opacity:1" d="M73.05 18.25L67.25 15.5L71.15 19.65" />
<path style="fill:none;stroke-width:0.7;stroke-linecap:round;stroke-linejoin:round;stroke-miterlimit:3;stroke:#808080;stroke-opacity:1" d="M49.05 16.1Q51.2 17.15 56.8 13.9Q61.1 12 67.25 15.5L72.6 15.5" />
<path style="fill:none;stroke-width:0.7;stroke-linecap:round;stroke-linejoin:round;stroke-miterlimit:3;stroke:#808080;stroke-opacity:1" d="M15.9 5.95Q13.9 5 10.35 6.6L7.35 6.35Q4 6.9 0.65 8.15" />
<path style="fill:none;stroke-width:0.7;stroke-linecap:round;stroke-linejoin:round;stroke-miterlimit:3;stroke:#808080;stroke-opacity:1" d="M0 5.25Q3.65 4.4 6.1 5.35Q2.45 2.25 1.35 2.35" />
<path style="fill:none;stroke-width:0.7;stroke-linecap:round;stroke-linejoin:round;stroke-miterlimit:3;stroke:#808080;stroke-opacity:1" d="M7.35 6.35Q6.5 6.05 6.1 5.35" />
<path style="fill:none;stroke-width:0.7;stroke-linecap:round;stroke-linejoin:round;stroke-miterlimit:3;stroke:#808080;stroke-opacity:1" d="M1.35 19.35Q3.7 19.95 5.2 18.9Q6.85 17.85 9.05 18Q6.7 16.85 3.55 17.35" />
<path style="fill:none;stroke-width:0.7;stroke-linecap:round;stroke-linejoin:round;stroke-miterlimit:3;stroke:#808080;stroke-opacity:1" d="M25 9.75Q18.85 9.15 14.45 13.65L9.05 18Q7.35 20.4 4.3 22.1" />
<path style="fill:none;stroke-width:0.7;stroke-linecap:round;stroke-linejoin:round;stroke-miterlimit:3;stroke:#808080;stroke-opacity:1" d="M67.15 0.15Q70.05 -0.75 71.05 3.1" />
</g>
</svg>
