<?xml version="1.0" encoding="utf-8"?>
<svg version="1.1" id="Layer_1"
xmlns="http://www.w3.org/2000/svg"
xmlns:xlink="http://www.w3.org/1999/xlink"
width="32px" height="47px"
xml:space="preserve">
<g id="PathID_3963" transform="matrix(1, 0, 0, 1, 0.25, 0.25)">
<path style="fill:#808080;fill-opacity:1" d="M23.05 5.1Q22.55 5.15 23.95 6.45Q25.45 7.7 25.75 9.65Q26.1 11.75 26.8 12.35Q27.4 12.95 27.9 12.35Q28.3 11.8 27.95 10.4Q27.5 9.05 26.55 7.65Q25.6 6.4 24.55 5.7Q23.6 5.15 23.05 5.1M30.3 25.95Q29.1 30.1 26.35 33.3L22.1 37.9L18.1 40.85Q19.15 38.25 19.65 34Q20.15 29.55 19.55 27.6Q17.85 20.35 11.55 19.7Q5.2 19.05 3.15 23.3L2.55 23.9L2.9 23.3L4.15 21.35Q5.35 19.9 6.95 19.85L4.05 17.9Q1.5 13.4 1.95 10.65Q2.35 7.9 4.35 5.05Q6.3 2.15 10.9 0.7Q15.5 -0.8 19.5 0.9Q23.5 2.55 25.35 4.1Q27.15 5.65 28.25 7.55Q29.35 9.4 30.15 11.7Q30.9 13.95 31.2 17.9L31.2 20.9L30.95 19.95Q31.05 23.4 30.3 25.95M30.95 19.95Q30.4 16.35 28.05 16.5Q26.5 16.65 25.5 17.3Q24.45 17.9 23.65 18.8Q22.8 19.7 22.35 21.1Q22.8 19.7 23.65 18.8Q24.45 17.9 25.5 17.3Q26.5 16.65 28.05 16.5Q30.4 16.35 30.95 19.95L31.2 20.9" />
<path style="fill:#AFAFAF;fill-opacity:1" d="M24.55 5.7Q25.6 6.4 26.55 7.65Q27.5 9.05 27.95 10.4Q28.3 11.8 27.9 12.35Q27.4 12.95 26.8 12.35Q26.1 11.75 25.75 9.65Q25.45 7.7 23.95 6.45Q22.55 5.15 23.05 5.1Q23.6 5.15 24.55 5.7" />
<linearGradient
id="LinearGradID_1734" gradientUnits="userSpaceOnUse" gradientTransform="matrix(0, 0.00494385, -0.0135193, 0, 10.85, 28.75)" spreadMethod ="pad" x1="-819.2" y1="0" x2="819.2" y2="0" >
<stop  offset="0" style="stop-color:#808080;stop-opacity:1" />
<stop  offset="1" style="stop-color:#464646;stop-opacity:1" />
</linearGradient>
<path style="fill:url(#LinearGradID_1734) " d="M17.6 41.05L15.15 41.7L11.7 41.75Q7.3 39.65 5.35 37.05L3.45 34.4L1.65 31.1Q1.2 27.5 1.8 24.6L1.8 24.55L1.9 24.5L2.55 23.9L3.15 23.3Q5.2 19.05 11.55 19.7Q17.85 20.35 19.55 27.6Q20.15 29.55 19.65 34Q19.15 38.25 18.1 40.85L17.6 41.05" />
<path style="fill:#5D5D5D;fill-opacity:1" d="M2.25 24.1L2.1 24.3L1.8 24.55L1.8 24.6Q1.1 25.2 0.6 24.8Q0.2 24.5 0 23.65Q0 23.1 0.15 22.6Q0.85 19.1 4.05 17.9L6.95 19.85Q5.35 19.9 4.15 21.35L2.9 23.3L2.25 24.1M11.7 41.75L15.15 41.7L16.85 43.7L17.6 41.05L19.85 44.6L17.35 44.5L15.15 45.8L12.4 44.4L8.95 44.4L11.7 41.75M16.85 43.7L15.15 41.7" />
<path style="fill:none;stroke-width:0.7;stroke-linecap:butt;stroke-linejoin:miter;stroke-miterlimit:3;stroke:#000000;stroke-opacity:0.4" d="M31.2 20.9L31.2 17.9Q30.9 13.95 30.15 11.7Q29.35 9.4 28.25 7.55Q27.15 5.65 25.35 4.1Q23.5 2.55 19.5 0.9Q15.5 -0.8 10.9 0.7Q6.3 2.15 4.35 5.05Q2.35 7.9 1.95 10.65Q1.5 13.4 4.05 17.9L6.95 19.85Q5.35 19.9 4.15 21.35L2.9 23.3" />
<path style="fill:none;stroke-width:0.7;stroke-linecap:butt;stroke-linejoin:miter;stroke-miterlimit:3;stroke:#000000;stroke-opacity:0.4" d="M18.1 40.85L22.1 37.9L26.35 33.3Q29.1 30.1 30.3 25.95Q31.05 23.4 31.2 20.9L30.95 19.95Q30.4 16.35 28.05 16.5Q26.5 16.65 25.5 17.3Q24.45 17.9 23.65 18.8Q22.8 19.7 22.35 21.1" />
<path style="fill:none;stroke-width:0.7;stroke-linecap:butt;stroke-linejoin:miter;stroke-miterlimit:3;stroke:#000000;stroke-opacity:0.4" d="M1.65 31.1L3.45 34.4L5.35 37.05Q7.3 39.65 11.7 41.75L15.15 41.7L17.6 41.05L18.1 40.85" />
<path style="fill:none;stroke-width:0.7;stroke-linecap:butt;stroke-linejoin:miter;stroke-miterlimit:3;stroke:#000000;stroke-opacity:0.4" d="M4.05 17.9Q0.85 19.1 0.15 22.6Q0 23.1 0 23.65" />
<path style="fill:none;stroke-width:0.7;stroke-linecap:butt;stroke-linejoin:miter;stroke-miterlimit:3;stroke:#000000;stroke-opacity:0.4" d="M17.6 41.05L19.85 44.6L17.35 44.5L15.15 45.8L12.4 44.4L8.95 44.4L11.7 41.75" />
<path style="fill:none;stroke-width:0.7;stroke-linecap:butt;stroke-linejoin:miter;stroke-miterlimit:3;stroke:#000000;stroke-opacity:0.4" d="M15.15 41.7L16.85 43.7" />
</g>
</svg>
