<?xml version="1.0" encoding="utf-8"?>
<svg version="1.1" id="Layer_1"
xmlns="http://www.w3.org/2000/svg"
xmlns:xlink="http://www.w3.org/1999/xlink"
width="22px" height="29px"
xml:space="preserve">
<g id="PathID_2710" transform="matrix(1, 0, 0, 1, 0, 0)">
<path style="fill:#808080;fill-opacity:1" d="M10.7 13.75L19.75 28.45L16.6 28.7Q9.75 28.7 4.9 24.5Q0 20.3 0 14.35Q0 8.4 4.9 4.2Q9.75 0 16.6 0Q19.5 0 22 0.75L10.7 13.75" />
<path style="fill:none;stroke-width:0.7;stroke-linecap:round;stroke-linejoin:round;stroke-miterlimit:3;stroke:#000000;stroke-opacity:0.4" d="M10.7 13.75L19.75 28.45L16.6 28.7Q9.75 28.7 4.9 24.5Q0 20.3 0 14.35Q0 8.4 4.9 4.2Q9.75 0 16.6 0Q19.5 0 22 0.75L10.7 13.75z" />
</g>
</svg>
