<?xml version="1.0" encoding="utf-8"?>
<svg version="1.1" id="Layer_1"
xmlns="http://www.w3.org/2000/svg"
xmlns:xlink="http://www.w3.org/1999/xlink"
width="173px" height="11px"
xml:space="preserve">
<g id="PathID_3541" transform="matrix(1, 0, 0, 1, 0.25, 0.25)">
<path style="fill:#191815;fill-opacity:1" d="M166.45 5.45L166.45 3.3L171.95 4.75L166.45 6.45L166.45 5.45" />
<path style="fill:#808080;fill-opacity:1" d="M154.7 8.35Q154.3 7.5 154.4 6.85L166.45 5.45L166.45 6.45L154.7 10Q153.65 9.2 154.7 8.35M154.6 1.65Q154.1 3.7 154.85 5.35L0 5.35L0.05 4L0.25 1.65L154.6 1.65" />
<path style="fill:#6B6B6B;fill-opacity:1" d="M154.85 5.35Q154.3 6.1 154.4 6.85L0.05 6.85L0 5.35L154.85 5.35M0.25 1.65L0.45 0L153.9 0Q153.95 0.85 154.6 1.65L0.25 1.65" />
<path style="fill:#3A3737;fill-opacity:1" d="M154.4 6.85Q154.3 7.5 154.7 8.35L0.2 8.35L154.7 8.35Q153.65 9.2 154.7 10L0.45 10L0.2 8.35L0.05 6.85L154.4 6.85" />
<path style="fill:#A6A6A6;fill-opacity:1" d="M154.4 6.85Q154.3 6.1 154.85 5.35Q154.1 3.7 154.6 1.65Q153.95 0.85 153.9 0L166.45 3.3L166.45 5.45L154.4 6.85" />
<path style="fill:none;stroke-width:0.7;stroke-linecap:round;stroke-linejoin:round;stroke-miterlimit:3;stroke:#000000;stroke-opacity:0.501961" d="M166.45 3.3L171.95 4.75L166.45 6.45L154.7 10L0.45 10L0.2 8.35L0.05 6.85L0 5.35L0.05 4L0.25 1.65L0.45 0L153.9 0L166.45 3.3z" />
<path style="fill:none;stroke-width:0.7;stroke-linecap:round;stroke-linejoin:round;stroke-miterlimit:3;stroke:#000000;stroke-opacity:0.25098" d="M154.85 5.35Q154.3 6.1 154.4 6.85" />
<path style="fill:none;stroke-width:0.7;stroke-linecap:round;stroke-linejoin:round;stroke-miterlimit:3;stroke:#000000;stroke-opacity:0.25098" d="M154.6 1.65Q154.1 3.7 154.85 5.35L0 5.35" />
<path style="fill:none;stroke-width:0.7;stroke-linecap:round;stroke-linejoin:round;stroke-miterlimit:3;stroke:#000000;stroke-opacity:0.25098" d="M153.9 0Q153.95 0.85 154.6 1.65L0.25 1.65" />
<path style="fill:none;stroke-width:0.7;stroke-linecap:round;stroke-linejoin:round;stroke-miterlimit:3;stroke:#000000;stroke-opacity:0.25098" d="M154.7 8.35Q154.3 7.5 154.4 6.85" />
<path style="fill:none;stroke-width:0.7;stroke-linecap:round;stroke-linejoin:round;stroke-miterlimit:3;stroke:#000000;stroke-opacity:0.25098" d="M154.7 10Q153.65 9.2 154.7 8.35L0.2 8.35" />
</g>
</svg>
