<?xml version="1.0" encoding="utf-8"?>
<svg version="1.1" id="Layer_1"
xmlns="http://www.w3.org/2000/svg"
xmlns:xlink="http://www.w3.org/1999/xlink"
width="14px" height="14px"
xml:space="preserve">
<g id="PathID_2848" transform="matrix(1, 0, 0, 1, 0.25, 0.6)">
<path style="fill:#535353;fill-opacity:1" d="M7.6 4.7L7.3 4.8Q5.85 5.05 6.85 1.4Q7.6 -1 9.2 -0.4L9.5 -0.25Q6.45 1.85 7.6 4.7M13.05 3.1L13.15 3.3Q13.65 4.6 11.65 5.35L8.05 5.45Q11.95 5.3 13.05 3.1M13.2 7.35Q13.55 7.9 13.3 8.55Q12.75 9.85 10.65 9.2Q9.5 8.7 8.85 8.1L8.2 7.4Q12.25 9.75 13.2 7.35M9.9 12L9.45 12.35Q8.15 12.85 7.2 10.95Q6.2 8.5 6.95 7.3L7.4 6.95Q7.15 10.95 9.9 12M4.95 4.7L5.05 4.85L4.95 4.7L4.05 3.65L3.35 2.4Q2.2 0.05 3.75 -0.45Q5.2 4.55 6.3 3.95L6 4.7L5.85 4.75L5.05 4.85L5.25 5.45Q5.35 6.05 4.75 6.2L3.2 6.05L1.7 5.6Q-0.6 4.7 -0.1 3.4Q4.65 5.85 4.95 4.7M4.25 8.3L3 9.1Q0.65 10.2 -0.05 8.75L-0.15 8.3Q2.5 9.15 5.3 6.5Q5.65 6.8 5.15 7.5L4.25 8.3M6.3 7.3Q6.95 7.85 6.25 10.7Q5.6 13 3.95 12.4Q3.05 12.1 3.05 11.2Q5.3 12.35 6.3 7.3" />
<path style="fill:#808080;fill-opacity:1" d="M8.05 5.45L7.9 5.35Q7.45 5.1 7.6 4.7L9.1 3.4L7.6 4.7Q6.45 1.85 9.5 -0.25Q10.4 0.35 9.85 2L9.1 3.4L10.25 2.75Q12.4 1.9 13.05 3.1Q11.95 5.3 8.05 5.45M8.05 7.2L8.2 7.4L8.85 8.1L9.75 9.5Q10.7 11.15 9.9 12Q7.15 10.95 7.4 6.95Q7.65 6.9 8.05 7.2L7.9 6.8Q7.45 5.3 11.35 6.3Q12.65 6.6 13.2 7.35Q12.25 9.75 8.2 7.4L8.05 7.2M-0.15 8.3Q-0.25 7.25 1.35 6.55L3.2 6.05L4.75 6.2L5.1 6.35L5.3 6.5Q2.5 9.15 -0.15 8.3M3.05 11.2Q2.95 10.65 3.25 9.9L4.25 8.3L5.15 7.5L5.75 7.2L6.3 7.3Q5.3 12.35 3.05 11.2M-0.1 3.4L0 3.15Q0.65 1.95 2.7 2.75Q3.5 3.15 4.05 3.65L4.95 4.7Q4.65 5.85 -0.1 3.4M3.75 -0.45Q5.15 -0.9 6 1Q6.65 2.9 6.3 3.95Q5.2 4.55 3.75 -0.45" />
<path style="fill:none;stroke-width:0.7;stroke-linecap:round;stroke-linejoin:miter;stroke-miterlimit:3;stroke:#000000;stroke-opacity:0.4" d="M7.6 4.7L7.3 4.8Q5.85 5.05 6.85 1.4Q7.6 -1 9.2 -0.4L9.5 -0.25Q10.4 0.35 9.85 2L9.1 3.4L10.25 2.75Q12.4 1.9 13.05 3.1L13.15 3.3Q13.65 4.6 11.65 5.35L8.05 5.45L7.9 5.35Q7.45 5.1 7.6 4.7z" />
<path style="fill:none;stroke-width:0.7;stroke-linecap:round;stroke-linejoin:miter;stroke-miterlimit:3;stroke:#000000;stroke-opacity:0.4" d="M7.4 6.95Q7.65 6.9 8.05 7.2" />
<path style="fill:none;stroke-width:0.7;stroke-linecap:butt;stroke-linejoin:miter;stroke-miterlimit:3;stroke:#000000;stroke-opacity:0.4" d="M8.05 7.2L7.9 6.8Q7.45 5.3 11.35 6.3Q12.65 6.6 13.2 7.35Q13.55 7.9 13.3 8.55Q12.75 9.85 10.65 9.2Q9.5 8.7 8.85 8.1L9.75 9.5Q10.7 11.15 9.9 12L9.45 12.35Q8.15 12.85 7.2 10.95Q6.2 8.5 6.95 7.3L7.4 6.95" />
<path style="fill:none;stroke-width:0.7;stroke-linecap:round;stroke-linejoin:miter;stroke-miterlimit:3;stroke:#000000;stroke-opacity:0.4" d="M6.3 3.95L6 4.7L5.85 4.75L5.05 4.85L5.25 5.45Q5.35 6.05 4.75 6.2L5.1 6.35L5.3 6.5Q5.65 6.8 5.15 7.5L5.75 7.2L6.3 7.3Q6.95 7.85 6.25 10.7Q5.6 13 3.95 12.4Q3.05 12.1 3.05 11.2Q2.95 10.65 3.25 9.9L4.25 8.3L3 9.1Q0.65 10.2 -0.05 8.75L-0.15 8.3Q-0.25 7.25 1.35 6.55L3.2 6.05L1.7 5.6Q-0.6 4.7 -0.1 3.4L0 3.15Q0.65 1.95 2.7 2.75Q3.5 3.15 4.05 3.65" />
<path style="fill:none;stroke-width:0.7;stroke-linecap:butt;stroke-linejoin:miter;stroke-miterlimit:3;stroke:#000000;stroke-opacity:0.4" d="M4.05 3.65L3.35 2.4Q2.2 0.05 3.75 -0.45Q5.15 -0.9 6 1Q6.65 2.9 6.3 3.95" />
<path style="fill:none;stroke-width:0.7;stroke-linecap:round;stroke-linejoin:miter;stroke-miterlimit:3;stroke:#000000;stroke-opacity:0.4" d="M9.1 3.4L7.6 4.7" />
<path style="fill:none;stroke-width:0.7;stroke-linecap:round;stroke-linejoin:miter;stroke-miterlimit:3;stroke:#000000;stroke-opacity:0.4" d="M4.95 4.7L4.05 3.65" />
<path style="fill:none;stroke-width:0.7;stroke-linecap:butt;stroke-linejoin:miter;stroke-miterlimit:3;stroke:#000000;stroke-opacity:0.4" d="M5.05 4.85L4.95 4.7" />
<path style="fill:none;stroke-width:0.7;stroke-linecap:round;stroke-linejoin:miter;stroke-miterlimit:3;stroke:#000000;stroke-opacity:0.4" d="M8.2 7.4L8.05 7.2" />
<path style="fill:none;stroke-width:0.7;stroke-linecap:butt;stroke-linejoin:miter;stroke-miterlimit:3;stroke:#000000;stroke-opacity:0.4" d="M8.85 8.1L8.2 7.4" />
<path style="fill:none;stroke-width:0.7;stroke-linecap:butt;stroke-linejoin:miter;stroke-miterlimit:3;stroke:#000000;stroke-opacity:0.4" d="M3.2 6.05L4.75 6.2" />
<path style="fill:none;stroke-width:0.7;stroke-linecap:butt;stroke-linejoin:miter;stroke-miterlimit:3;stroke:#000000;stroke-opacity:0.4" d="M4.25 8.3L5.15 7.5" />
</g>
</svg>
