<?xml version="1.0" encoding="utf-8"?>
<svg version="1.1" id="Layer_1"
xmlns="http://www.w3.org/2000/svg"
xmlns:xlink="http://www.w3.org/1999/xlink"
width="81px" height="12px"
xml:space="preserve">
<g id="PathID_2475" transform="matrix(1, 0, 0, 1, 0.2, 0.65)">
<radialGradient
id="RadialGradID_1333" gradientUnits="userSpaceOnUse" gradientTransform="matrix(0.0446777, 0, 0, 0.0180359, 39.3, 4.1)" spreadMethod ="pad" cx="0" cy="0" r="819.2" fx="0" fy="0" >
<stop  offset="0.0941176"  style="stop-color:#808080;stop-opacity:0.121569" />
<stop  offset="0.101961"  style="stop-color:#E0F0FF;stop-opacity:0.121569" />
<stop  offset="0.945098"  style="stop-color:#808080;stop-opacity:0.427451" />
</radialGradient>
<path style="fill:url(#RadialGradID_1333) " d="M37.2 -0.4L39.15 -0.45Q50.4 -0.6 61.8 2.9L63.65 3.45Q67.95 4.85 73.15 7.15L80.55 10.65L0 10.65Q4.05 8.5 7.6 6.9L14.85 3.9L15.6 3.6Q21.25 1.65 27.05 0.7L37.2 -0.4M67.3 9.3L74.1 8.95Q74.4 8.4 63.35 5.15Q52.35 1.85 55.05 4.1Q57.75 6.3 46.15 8.1L34.9 10.1L57.1 9.55Q60.75 9.1 67.3 9.3M38.2 4.2Q39 3.75 39 3.1Q39 1.65 37 2.15Q34.95 2.7 34.95 3.9Q34.75 4.7 35.55 4.7Q37.25 4.7 38.2 4.2M30.85 3.45Q30.3 1.6 20.05 4.3Q9.8 7 7.65 9.15L19.1 6.7L28.65 5.45Q31.4 5.25 30.85 3.45" />
<path style="fill:#54504E;fill-opacity:1" d="M57.1 9.55L34.9 10.1L46.15 8.1Q57.75 6.3 55.05 4.1Q52.35 1.85 63.35 5.15Q74.4 8.4 74.1 8.95L67.3 9.3Q60.75 9.1 57.1 9.55" />
<path style="fill:#AAAAAA;fill-opacity:1" d="M35.55 4.7Q34.75 4.7 34.95 3.9Q34.95 2.7 37 2.15Q39 1.65 39 3.1Q39 3.75 38.2 4.2Q37.25 4.7 35.55 4.7M28.65 5.45L19.1 6.7L7.65 9.15Q9.8 7 20.05 4.3Q30.3 1.6 30.85 3.45Q31.4 5.25 28.65 5.45" />
<path style="fill:none;stroke-width:0.7;stroke-linecap:butt;stroke-linejoin:miter;stroke-miterlimit:3;stroke:#FFFFFF;stroke-opacity:0.34902" d="M37.2 -0.4L39.15 -0.45Q50.4 -0.6 61.8 2.9" />
<path style="fill:none;stroke-width:0.7;stroke-linecap:butt;stroke-linejoin:miter;stroke-miterlimit:3;stroke:#FFFFFF;stroke-opacity:0.34902" d="M73.15 7.15L80.55 10.65" />
<path style="fill:none;stroke-width:0.7;stroke-linecap:butt;stroke-linejoin:miter;stroke-miterlimit:3;stroke:#FFFFFF;stroke-opacity:0.34902" d="M0 10.65Q4.05 8.5 7.6 6.9" />
<path style="fill:none;stroke-width:0.7;stroke-linecap:butt;stroke-linejoin:miter;stroke-miterlimit:3;stroke:#FFFFFF;stroke-opacity:0.34902" d="M14.85 3.9L15.6 3.6Q21.25 1.65 27.05 0.7" />
</g>
</svg>
