<?xml version="1.0" encoding="utf-8"?>
<svg version="1.1" id="Layer_1"
xmlns="http://www.w3.org/2000/svg"
xmlns:xlink="http://www.w3.org/1999/xlink"
width="20px" height="30px"
xml:space="preserve">
<g id="PathID_3812" transform="matrix(1, 0, 0, 1, 0.05, 0.15)">
<path style="fill:#5F5F5F;fill-opacity:1" d="M8.4 0Q11.9 1.05 14.65 3.8L16.75 6.35Q19.05 9.9 19.05 14.4Q19.05 19.15 16.5 22.85Q15.35 6.95 4.7 3.35L8.4 0" />
<path style="fill:#808080;fill-opacity:1" d="M16.15 23.35L14.65 25L12.3 26.95Q10.25 28.35 7.9 28.9Q1.35 24.05 0 15.4Q0.05 7.75 4.7 3.35Q15.35 6.95 16.5 22.85L16.15 23.35" />
<path style="fill:none;stroke-width:0.7;stroke-linecap:round;stroke-linejoin:round;stroke-miterlimit:3;stroke:#000000;stroke-opacity:0.301961" d="M16.5 22.85Q19.05 19.15 19.05 14.4Q19.05 9.9 16.75 6.35L14.65 3.8Q11.9 1.05 8.4 0" />
<path style="fill:none;stroke-width:0.7;stroke-linecap:round;stroke-linejoin:round;stroke-miterlimit:3;stroke:#333333;stroke-opacity:0.4" d="M8.4 0L4.7 3.35Q0.05 7.75 0 15.4Q1.35 24.05 7.9 28.9" />
<path style="fill:none;stroke-width:0.7;stroke-linecap:round;stroke-linejoin:round;stroke-miterlimit:3;stroke:#000000;stroke-opacity:0.301961" d="M7.9 28.9Q10.25 28.35 12.3 26.95L14.65 25L16.15 23.35L16.5 22.85" />
</g>
</svg>
