<?xml version="1.0" encoding="utf-8"?>
<svg version="1.1" id="Layer_1"
xmlns="http://www.w3.org/2000/svg"
xmlns:xlink="http://www.w3.org/1999/xlink"
width="31px" height="40px"
xml:space="preserve">
<g id="PathID_4056" transform="matrix(1, 0, 0, 1, 0.2, 0.2)">
<path style="fill:#C4C4C4;fill-opacity:1" d="M13.6 22.95Q11.35 22.45 10.75 23.3Q1.25 26.9 2.3 16.3Q4.55 13.9 9.15 13.95L17.2 14.8Q19.55 14.65 18.1 12.5Q17.15 11.25 13.25 10.4L6.8 9.5Q4 2.05 12.2 0.4Q20.4 -1.3 23 4.05Q17.1 2.75 16.85 5.2Q16.55 7.65 21.55 7.4Q26.5 7.1 29.4 12.5Q31.4 16.7 28.85 20.65L27.75 21.75Q22.55 26.3 13.6 22.95" />
<path style="fill:#808080;fill-opacity:1" d="M10.65 24.75Q10.4 23.8 10.75 23.3Q11.35 22.45 13.6 22.95Q22.55 26.3 27.75 21.75Q29.05 22.7 29.75 23.75Q32.25 27.4 27.35 31.9Q21.85 39.75 11.6 39.1Q7.15 38.45 3.75 31.1Q-0.1 24.9 0 21.8Q0.05 18.65 2.3 16.3Q1.25 26.9 10.75 23.3Q10.4 23.8 10.65 24.75M9.15 13.95Q14.4 13.15 13.25 10.4Q17.15 11.25 18.1 12.5Q19.55 14.65 17.2 14.8L9.15 13.95" />
<path style="fill:none;stroke-width:0.7;stroke-linecap:round;stroke-linejoin:round;stroke-miterlimit:3;stroke:#4A3333;stroke-opacity:0.4" d="M13.25 10.4L6.8 9.5Q4 2.05 12.2 0.4Q20.4 -1.3 23 4.05Q17.1 2.75 16.85 5.2Q16.55 7.65 21.55 7.4Q26.5 7.1 29.4 12.5Q31.4 16.7 28.85 20.65L27.75 21.75Q29.05 22.7 29.75 23.75Q32.25 27.4 27.35 31.9Q21.85 39.75 11.6 39.1Q7.15 38.45 3.75 31.1Q-0.1 24.9 0 21.8Q0.05 18.65 2.3 16.3Q4.55 13.9 9.15 13.95Q14.4 13.15 13.25 10.4Q17.15 11.25 18.1 12.5Q19.55 14.65 17.2 14.8L9.15 13.95" />
<path style="fill:none;stroke-width:0.7;stroke-linecap:round;stroke-linejoin:round;stroke-miterlimit:3;stroke:#4A3333;stroke-opacity:0.4" d="M10.75 23.3Q11.35 22.45 13.6 22.95Q22.55 26.3 27.75 21.75" />
<path style="fill:none;stroke-width:0.7;stroke-linecap:round;stroke-linejoin:round;stroke-miterlimit:3;stroke:#4A3333;stroke-opacity:0.4" d="M10.75 23.3Q10.4 23.8 10.65 24.75" />
</g>
</svg>
