<?xml version="1.0" encoding="utf-8"?>
<svg version="1.1" id="Layer_1"
xmlns="http://www.w3.org/2000/svg"
xmlns:xlink="http://www.w3.org/1999/xlink"
width="31px" height="27px"
xml:space="preserve">
<g id="PathID_4369" transform="matrix(1, 0, 0, 1, 0.2, 0.2)">
<path style="fill:#585654;fill-opacity:1" d="M22.5 10.2L19.65 10.3L19 11.25L18.15 11.1L17.5 9.7L18.45 9.2Q19.15 8.4 18.75 6.75L18.45 5.55Q18.7 4.3 19.1 4.25Q19.9 5.5 20.2 7.3Q20.35 7.95 21 8.2Q22.35 8.8 22.5 10.2M8.45 23.95L12.35 23.55L16.65 22.5L19.9 20.25Q22.25 18.05 23.6 15.05L25 11.05L25.55 8.7L26 5.1L28.3 6.5L30.2 17.25L27 21.1L25.15 24.1Q23.85 25.2 21.75 26.1L17.4 26.2Q15.45 25.5 14.4 25.65L12.9 26.2L7.65 25.95L5.65 24.25L5.3 23.85L8.45 23.95M10.75 4.1L10.45 5.95L9.75 7.7Q9.15 9.1 7.8 10.05Q6.8 10.75 6.25 10.85L5.8 9.3Q7.6 8.95 8.95 7.35Q10.45 5.55 10.65 3.2L10.75 4.1M13.4 8.15L14.25 10.2L15.5 13.9L15.1 14.1L14.45 14.15Q13.35 13.4 12.2 13.15L11.05 13.95L10.95 13.6L11.05 12.6L13 12.1Q13.55 11.8 13.75 10.8L13.4 8.15" />
<path style="fill:#808080;fill-opacity:1" d="M21 8.2Q20.35 7.95 20.2 7.3Q19.9 5.5 19.1 4.25Q18.7 4.3 18.45 5.55L18.75 6.75Q19.15 8.4 18.45 9.2L17.5 9.7L18.15 11.1L19 11.25L19.65 10.3L22.5 10.2Q22.35 8.8 21 8.2M26 5.1L25.55 8.7L25 11.05L23.6 15.05Q22.25 18.05 19.9 20.25L16.65 22.5L12.35 23.55L8.45 23.95L5.3 23.85L3.95 22.4L1.8 19.15L1.5 18.6L1.05 18L0 17.35L3.4 4.65L18 0L26 5.1M10.65 3.2Q10.45 5.55 8.95 7.35Q7.6 8.95 5.8 9.3L6.25 10.85Q6.8 10.75 7.8 10.05Q9.15 9.1 9.75 7.7L10.45 5.95L10.75 4.1L10.65 3.2M13.75 10.8Q13.55 11.8 13 12.1L11.05 12.6L10.95 13.6L11.05 13.95L12.2 13.15Q13.35 13.4 14.45 14.15L15.1 14.1L15.5 13.9L14.25 10.2L13.4 8.15L13.75 10.8" />
<path style="fill:none;stroke-width:0.7;stroke-linecap:round;stroke-linejoin:round;stroke-miterlimit:3;stroke:#343434;stroke-opacity:0.301961" d="M5.3 23.85L5.65 24.25L7.65 25.95L12.9 26.2L14.4 25.65Q15.45 25.5 17.4 26.2L21.75 26.1Q23.85 25.2 25.15 24.1L27 21.1L30.2 17.25L28.3 6.5L26 5.1" />
<path style="fill:none;stroke-width:0.7;stroke-linecap:round;stroke-linejoin:round;stroke-miterlimit:3;stroke:#343434;stroke-opacity:0.301961" d="M5.3 23.85L3.95 22.4L1.8 19.15L1.5 18.6L1.05 18L0 17.35L3.4 4.65L18 0L26 5.1" />
</g>
</svg>
