<?xml version="1.0" encoding="utf-8"?>
<svg version="1.1" id="Layer_1"
xmlns="http://www.w3.org/2000/svg"
xmlns:xlink="http://www.w3.org/1999/xlink"
width="42px" height="17px"
xml:space="preserve">
<g id="PathID_4229" transform="matrix(1, 0, 0, 1, 0.15, 0.15)">
<path style="fill:#919191;fill-opacity:1" d="M3.4 11.15Q4.1 12.2 5.2 12.2Q5.75 12.2 6.2 11.85L6.95 10.8L8.15 11.1L9.6 11.45Q10.2 11.45 10.95 10.85Q11.7 10.2 12.65 10.2Q13.6 10.2 14.95 10.95Q16.3 11.7 16.6 11.7L17.7 11.45L18 10.5L19.15 11L20.25 11.25Q20.65 11.25 21.4 10.65Q22.15 10.05 22.7 10.05L28.6 10.95L33.85 10.05Q34.3 10.05 34.55 10.5Q34.9 10.95 35.55 10.95Q36.6 9.95 39.45 9.1Q40.2 9.1 40.85 10.5Q41.4 11.6 41.45 12.8L40.25 13.1L39.95 13.05L39.7 12.95Q39.4 12.95 38.95 13.35L38.35 13.75L37.35 13.55L36.8 13.3L36.55 13.1L35.25 13.65L34.1 13.9L33.55 14L31.7 13.5Q30.35 12.95 29.25 12.95Q28.85 12.95 28.7 13.1L26.8 13.55L22.55 14.3Q22.15 14.3 21.5 13.55L20.95 12.7L20.9 13.9L20.2 13.9L17.9 13.25Q14.85 15.25 13.75 15.25Q12.8 15.25 11.45 14.05L9.55 12.85Q3.7 14.55 2.2 14.55L0.85 14.4L0.05 14.1L0 13.3Q0 11.45 0.15 10.95Q0.5 10.05 1.75 10.05L2.6 10.3Q3.05 10.55 3.4 11.15M39.35 10.5L38.95 10.45Q37.65 10.5 37.65 11.9Q37.65 12.5 38.15 12.5Q38.8 12.5 39.3 11.8L39.7 10.95Q39.7 10.65 39.35 10.5M23.25 13.1L24 13.35Q25.35 13.35 25.35 12.55Q25.35 11.4 24.3 11.7Q23.2 12.05 23.2 12.85L23.25 13.1M34.25 13.25Q35.1 13.25 35.1 12.6Q35.15 11.8 34.2 11.8Q33.05 11.8 33.05 12.45L33.15 12.85Q33.45 13.25 34.25 13.25M5.8 12.8L5 12.95L4.8 13.3L4.85 13.5L5.4 13.7Q6.25 13.7 6.25 13.25Q6.25 12.8 5.8 12.8M1.6 14.25Q2.2 14.25 2.5 13.65L2.7 13Q2.7 11.8 1.8 12.15Q0.95 12.5 0.95 13.55L0.95 13.9Q1.05 14.25 1.6 14.25M14 13.5L13.75 14.2L13.75 14.5Q13.85 14.7 14.15 14.7Q15.55 14.3 15.55 13.65Q15.55 12.85 14.9 12.85Q14.35 12.85 14 13.5" />
<path style="fill:#5D5D5D;fill-opacity:1" d="M0.85 14.4L2.2 14.55Q3.7 14.55 9.55 12.85L11.45 14.05Q12.8 15.25 13.75 15.25Q14.85 15.25 17.9 13.25L20.2 13.9L20.9 13.9L20.95 12.7L21.5 13.55Q22.15 14.3 22.55 14.3L26.8 13.55L28.7 13.1Q28.85 12.95 29.25 12.95Q30.35 12.95 31.7 13.5L33.55 14L34.1 13.9L35.25 13.65L36.55 13.1L36.8 13.3L37.35 13.55L38.35 13.75L38.95 13.35Q39.4 12.95 39.7 12.95L39.95 13.05L40.25 13.1L41.45 12.8L41.45 13.2Q41.45 14.2 41 14.65L40.5 14.1L39.95 14.05L39.2 14.5L38.6 14.95L37.55 14.4L36.4 13.9L34.8 14.5L33.35 15.15L30.85 14.5L28.7 13.9L25.2 14.35L21.65 14.8L18.7 14.35Q17.35 14.35 15.85 15.05L14 15.75Q12.05 15.75 11.05 14.9Q10.05 14.05 9.2 14.05L4.75 14.65L1.55 15.25Q0.65 15.25 0.3 14.8L0.05 14.1L0.85 14.4" />
<linearGradient
id="LinearGradID_1832" gradientUnits="userSpaceOnUse" gradientTransform="matrix(0, 0.00915527, -0.00727844, 0, 20.7, 8.2)" spreadMethod ="pad" x1="-819.2" y1="0" x2="819.2" y2="0" >
<stop  offset="0" style="stop-color:#C6C6C6;stop-opacity:1" />
<stop  offset="0.376471" style="stop-color:#808080;stop-opacity:1" />
<stop  offset="0.74902" style="stop-color:#6B6B6B;stop-opacity:1" />
<stop  offset="1" style="stop-color:#3F3F3F;stop-opacity:1" />
</linearGradient>
<path style="fill:url(#LinearGradID_1832) " d="M2.6 10.3Q5.1 0.85 20.15 0.05Q36.5 -0.7 39.45 9.1Q36.6 9.95 35.55 10.95Q34.9 10.95 34.55 10.5Q34.3 10.05 33.85 10.05L28.6 10.95L22.7 10.05Q22.15 10.05 21.4 10.65Q20.65 11.25 20.25 11.25L19.15 11L18 10.5L17.7 11.45L16.6 11.7Q16.3 11.7 14.95 10.95Q13.6 10.2 12.65 10.2Q11.7 10.2 10.95 10.85Q10.2 11.45 9.6 11.45L8.15 11.1L6.95 10.8L6.2 11.85Q5.75 12.2 5.2 12.2Q4.1 12.2 3.4 11.15Q3.05 10.55 2.6 10.3M31.75 5.2Q30.1 5.2 29.15 6Q28.4 6.65 28.4 7.3L28.55 7.95Q28.8 8.5 29.7 8.5Q31.5 8.5 32.75 7.65Q33.85 6.85 33.85 6.15Q33.85 5.2 31.75 5.2M25.4 8.95Q25.5 9.25 26 9.25L26.75 8.75L26.95 8.1Q27.05 7.45 26.35 7.45Q25.4 7.45 25.4 8.6L25.4 8.95M16.15 1.35Q13.75 1.35 10.85 3Q8.05 4.55 8.05 5.7L8.15 5.9L8.5 6.1Q8.8 6.1 10.55 4.95L12.5 3.75L16.2 3.15Q17.4 2.85 17.4 2.05Q17.4 1.35 16.15 1.35M5.05 9.45L5.45 9.7L6.2 9L6.5 8.15Q6.5 7.15 5.75 7.75Q5 8.3 5 9.15L5.05 9.45" />
<path style="fill:#CDCDCD;fill-opacity:1" d="M33.85 6.15Q33.85 6.85 32.75 7.65Q31.5 8.5 29.7 8.5Q28.8 8.5 28.55 7.95L28.4 7.3Q28.4 6.65 29.15 6Q30.1 5.2 31.75 5.2Q33.85 5.2 33.85 6.15M25.4 8.6Q25.4 7.45 26.35 7.45Q27.05 7.45 26.95 8.1L26.75 8.75L26 9.25Q25.5 9.25 25.4 8.95L25.4 8.6M17.4 2.05Q17.4 2.85 16.2 3.15L12.5 3.75L10.55 4.95Q8.8 6.1 8.5 6.1L8.15 5.9L8.05 5.7Q8.05 4.55 10.85 3Q13.75 1.35 16.15 1.35Q17.4 1.35 17.4 2.05M5 9.15Q5 8.3 5.75 7.75Q6.5 7.15 6.5 8.15L6.2 9L5.45 9.7L5.05 9.45L5 9.15" />
<path style="fill:#727272;fill-opacity:1" d="M39.7 10.95L39.3 11.8Q38.8 12.5 38.15 12.5Q37.65 12.5 37.65 11.9Q37.65 10.5 38.95 10.45L39.35 10.5Q39.7 10.65 39.7 10.95M23.2 12.85Q23.2 12.05 24.3 11.7Q25.35 11.4 25.35 12.55Q25.35 13.35 24 13.35L23.25 13.1L23.2 12.85M33.15 12.85L33.05 12.45Q33.05 11.8 34.2 11.8Q35.15 11.8 35.1 12.6Q35.1 13.25 34.25 13.25Q33.45 13.25 33.15 12.85M6.25 13.25Q6.25 13.7 5.4 13.7L4.85 13.5L4.8 13.3L5 12.95L5.8 12.8Q6.25 12.8 6.25 13.25M0.95 13.9L0.95 13.55Q0.95 12.5 1.8 12.15Q2.7 11.8 2.7 13L2.5 13.65Q2.2 14.25 1.6 14.25Q1.05 14.25 0.95 13.9M14.9 12.85Q15.55 12.85 15.55 13.65Q15.55 14.3 14.15 14.7Q13.85 14.7 13.75 14.5L13.75 14.2L14 13.5Q14.35 12.85 14.9 12.85" />
<path style="fill:none;stroke-width:0.7;stroke-linecap:round;stroke-linejoin:round;stroke-miterlimit:3;stroke:#000000;stroke-opacity:0.4" d="M0.05 14.1L0.3 14.8Q0.65 15.25 1.55 15.25L4.75 14.65L9.2 14.05Q10.05 14.05 11.05 14.9Q12.05 15.75 14 15.75L15.85 15.05Q17.35 14.35 18.7 14.35L21.65 14.8L25.2 14.35L28.7 13.9L30.85 14.5L33.35 15.15L34.8 14.5L36.4 13.9L37.55 14.4L38.6 14.95L39.2 14.5L39.95 14.05L40.5 14.1L41 14.65Q41.45 14.2 41.45 13.2L41.45 12.8" />
<path style="fill:none;stroke-width:0.7;stroke-linecap:round;stroke-linejoin:round;stroke-miterlimit:3;stroke:#000000;stroke-opacity:0.4" d="M0.05 14.1L0 13.3Q0 11.45 0.15 10.95Q0.5 10.05 1.75 10.05L2.6 10.3Q5.1 0.85 20.15 0.05Q36.5 -0.7 39.45 9.1Q40.2 9.1 40.85 10.5Q41.4 11.6 41.45 12.8" />
<path style="fill:none;stroke-width:0.7;stroke-linecap:round;stroke-linejoin:round;stroke-miterlimit:3;stroke:#000000;stroke-opacity:0.4" d="M39.45 9.1Q36.6 9.95 35.55 10.95Q34.9 10.95 34.55 10.5Q34.3 10.05 33.85 10.05L28.6 10.95L22.7 10.05Q22.15 10.05 21.4 10.65Q20.65 11.25 20.25 11.25L19.15 11L18 10.5L17.7 11.45L16.6 11.7Q16.3 11.7 14.95 10.95Q13.6 10.2 12.65 10.2Q11.7 10.2 10.95 10.85Q10.2 11.45 9.6 11.45L8.15 11.1L6.95 10.8L6.2 11.85Q5.75 12.2 5.2 12.2Q4.1 12.2 3.4 11.15Q3.05 10.55 2.6 10.3" />
</g>
</svg>
