<?xml version="1.0" encoding="utf-8"?>
<svg version="1.1" id="Layer_1"
xmlns="http://www.w3.org/2000/svg"
xmlns:xlink="http://www.w3.org/1999/xlink"
width="74px" height="65px"
xml:space="preserve">
<g id="PathID_3062" transform="matrix(1, 0, 0, 1, 0, 0)">
<path style="fill:#808080;fill-opacity:1" d="M56.95 4.65Q56.95 6.6 55.6 7.95Q54.25 9.3 52.3 9.3Q51.05 9.3 50.05 8.75L49 7.95Q47.65 6.6 47.65 4.65Q47.65 2.7 49 1.35Q50.35 0 52.3 0Q54.25 0 55.6 1.35L56.4 2.4Q56.95 3.4 56.95 4.65M52.15 2.25Q51.15 2.25 50.45 2.95Q49.75 3.6 49.75 4.65Q49.75 5.25 50.05 5.8L50.45 6.35Q51.15 7.05 52.15 7.05Q53.15 7.05 53.85 6.35Q54.55 5.65 54.55 4.65Q54.55 3.6 53.85 2.95L53.35 2.55L52.15 2.25M24.25 4.7Q24.25 6.65 22.9 8Q21.55 9.35 19.6 9.35Q18.35 9.35 17.35 8.8L16.3 8Q14.95 6.65 14.95 4.7Q14.95 2.75 16.3 1.4Q17.65 0.05 19.6 0.05Q21.55 0.05 22.9 1.4L23.7 2.45Q24.25 3.45 24.25 4.7M20.65 2.6Q20.1 2.3 19.45 2.3Q18.45 2.3 17.75 3Q17.05 3.65 17.05 4.7Q17.05 5.3 17.35 5.85L17.75 6.4Q18.45 7.1 19.45 7.1Q20.45 7.1 21.15 6.4Q21.85 5.7 21.85 4.7Q21.85 3.65 21.15 3L20.65 2.6M33.95 60.65L34.35 61.2Q35.05 61.9 36.05 61.9Q37.05 61.9 37.75 61.2Q38.45 60.5 38.45 59.5Q38.45 58.45 37.75 57.8L37.25 57.4Q36.7 57.1 36.05 57.1Q35.05 57.1 34.35 57.8Q33.65 58.45 33.65 59.5Q33.65 60.1 33.95 60.65M32.9 56.2Q34.25 54.85 36.2 54.85Q38.15 54.85 39.5 56.2L40.3 57.25Q40.85 58.25 40.85 59.5Q40.85 61.45 39.5 62.8Q38.15 64.15 36.2 64.15Q34.95 64.15 33.95 63.6L32.9 62.8Q31.55 61.45 31.55 59.5Q31.55 57.55 32.9 56.2M1.35 56.2Q2.7 54.85 4.65 54.85Q6.6 54.85 7.95 56.2L8.75 57.25Q9.3 58.25 9.3 59.5Q9.3 61.45 7.95 62.8Q6.6 64.15 4.65 64.15Q3.4 64.15 2.4 63.6Q1.8 63.25 1.35 62.8Q0 61.45 0 59.5Q0 57.55 1.35 56.2M2.4 60.65L2.8 61.2Q3.5 61.9 4.5 61.9Q5.5 61.9 6.2 61.2Q6.9 60.5 6.9 59.5Q6.9 58.45 6.2 57.8L5.7 57.4L4.5 57.1Q3.5 57.1 2.8 57.8Q2.1 58.45 2.1 59.5Q2.1 60.1 2.4 60.65M73.2 59.5Q73.2 61.45 71.85 62.8Q70.5 64.15 68.55 64.15Q67.3 64.15 66.3 63.6L65.25 62.8Q63.9 61.45 63.9 59.5Q63.9 57.55 65.25 56.2Q66.6 54.85 68.55 54.85Q70.5 54.85 71.85 56.2L72.65 57.25Q73.2 58.25 73.2 59.5M68.4 57.1Q67.4 57.1 66.7 57.8Q66 58.45 66 59.5Q66 60.1 66.3 60.65L66.7 61.2Q67.4 61.9 68.4 61.9Q69.4 61.9 70.1 61.2Q70.8 60.5 70.8 59.5Q70.8 58.45 70.1 57.8L69.6 57.4L68.4 57.1" />
<path style="fill:none;stroke-width:0.7;stroke-linecap:round;stroke-linejoin:round;stroke-miterlimit:3;stroke:#000000;stroke-opacity:0.4" d="M56.95 4.65Q56.95 6.6 55.6 7.95Q54.25 9.3 52.3 9.3Q51.05 9.3 50.05 8.75L49 7.95Q47.65 6.6 47.65 4.65Q47.65 2.7 49 1.35Q50.35 0 52.3 0Q54.25 0 55.6 1.35L56.4 2.4Q56.95 3.4 56.95 4.65z" />
<path style="fill:none;stroke-width:0.7;stroke-linecap:round;stroke-linejoin:round;stroke-miterlimit:3;stroke:#000000;stroke-opacity:0.4" d="M53.35 2.55L53.85 2.95Q54.55 3.6 54.55 4.65Q54.55 5.65 53.85 6.35Q53.15 7.05 52.15 7.05Q51.15 7.05 50.45 6.35L50.05 5.8Q49.75 5.25 49.75 4.65Q49.75 3.6 50.45 2.95Q51.15 2.25 52.15 2.25L53.35 2.55z" />
<path style="fill:none;stroke-width:0.7;stroke-linecap:round;stroke-linejoin:round;stroke-miterlimit:3;stroke:#000000;stroke-opacity:0.4" d="M24.25 4.7Q24.25 6.65 22.9 8Q21.55 9.35 19.6 9.35Q18.35 9.35 17.35 8.8L16.3 8Q14.95 6.65 14.95 4.7Q14.95 2.75 16.3 1.4Q17.65 0.05 19.6 0.05Q21.55 0.05 22.9 1.4L23.7 2.45Q24.25 3.45 24.25 4.7z" />
<path style="fill:none;stroke-width:0.7;stroke-linecap:round;stroke-linejoin:round;stroke-miterlimit:3;stroke:#000000;stroke-opacity:0.4" d="M21.15 3Q21.85 3.65 21.85 4.7Q21.85 5.7 21.15 6.4Q20.45 7.1 19.45 7.1Q18.45 7.1 17.75 6.4L17.35 5.85Q17.05 5.3 17.05 4.7Q17.05 3.65 17.75 3Q18.45 2.3 19.45 2.3Q20.1 2.3 20.65 2.6L21.15 3z" />
<path style="fill:none;stroke-width:0.7;stroke-linecap:round;stroke-linejoin:round;stroke-miterlimit:3;stroke:#000000;stroke-opacity:0.4" d="M33.65 59.5Q33.65 58.45 34.35 57.8Q35.05 57.1 36.05 57.1Q36.7 57.1 37.25 57.4L37.75 57.8Q38.45 58.45 38.45 59.5Q38.45 60.5 37.75 61.2Q37.05 61.9 36.05 61.9Q35.05 61.9 34.35 61.2L33.95 60.65Q33.65 60.1 33.65 59.5z" />
<path style="fill:none;stroke-width:0.7;stroke-linecap:round;stroke-linejoin:round;stroke-miterlimit:3;stroke:#000000;stroke-opacity:0.4" d="M32.9 56.2Q34.25 54.85 36.2 54.85Q38.15 54.85 39.5 56.2L40.3 57.25Q40.85 58.25 40.85 59.5Q40.85 61.45 39.5 62.8Q38.15 64.15 36.2 64.15Q34.95 64.15 33.95 63.6L32.9 62.8Q31.55 61.45 31.55 59.5Q31.55 57.55 32.9 56.2z" />
<path style="fill:none;stroke-width:0.7;stroke-linecap:round;stroke-linejoin:round;stroke-miterlimit:3;stroke:#000000;stroke-opacity:0.4" d="M1.35 56.2Q2.7 54.85 4.65 54.85Q6.6 54.85 7.95 56.2L8.75 57.25Q9.3 58.25 9.3 59.5Q9.3 61.45 7.95 62.8Q6.6 64.15 4.65 64.15Q3.4 64.15 2.4 63.6Q1.8 63.25 1.35 62.8Q0 61.45 0 59.5Q0 57.55 1.35 56.2z" />
<path style="fill:none;stroke-width:0.7;stroke-linecap:round;stroke-linejoin:round;stroke-miterlimit:3;stroke:#000000;stroke-opacity:0.4" d="M2.1 59.5Q2.1 58.45 2.8 57.8Q3.5 57.1 4.5 57.1L5.7 57.4L6.2 57.8Q6.9 58.45 6.9 59.5Q6.9 60.5 6.2 61.2Q5.5 61.9 4.5 61.9Q3.5 61.9 2.8 61.2L2.4 60.65Q2.1 60.1 2.1 59.5z" />
<path style="fill:none;stroke-width:0.7;stroke-linecap:round;stroke-linejoin:round;stroke-miterlimit:3;stroke:#000000;stroke-opacity:0.4" d="M73.2 59.5Q73.2 61.45 71.85 62.8Q70.5 64.15 68.55 64.15Q67.3 64.15 66.3 63.6L65.25 62.8Q63.9 61.45 63.9 59.5Q63.9 57.55 65.25 56.2Q66.6 54.85 68.55 54.85Q70.5 54.85 71.85 56.2L72.65 57.25Q73.2 58.25 73.2 59.5z" />
<path style="fill:none;stroke-width:0.7;stroke-linecap:round;stroke-linejoin:round;stroke-miterlimit:3;stroke:#000000;stroke-opacity:0.4" d="M69.6 57.4L70.1 57.8Q70.8 58.45 70.8 59.5Q70.8 60.5 70.1 61.2Q69.4 61.9 68.4 61.9Q67.4 61.9 66.7 61.2L66.3 60.65Q66 60.1 66 59.5Q66 58.45 66.7 57.8Q67.4 57.1 68.4 57.1L69.6 57.4z" />
</g>
</svg>
