<?xml version="1.0" encoding="utf-8"?>
<svg version="1.1" id="Layer_1"
xmlns="http://www.w3.org/2000/svg"
xmlns:xlink="http://www.w3.org/1999/xlink"
width="31px" height="32px"
xml:space="preserve">
<g id="PathID_3034" transform="matrix(1, 0, 0, 1, 15.4, 15.55)">
<path style="fill:#BABABA;fill-opacity:1" d="M10 -13.55L-3.9 -13.55L-3.9 -15.2L11.4 -15.3L15.2 -11.5L13.6 -10L10 -13.55M-3.9 -5.45L-3.9 -5.85L11.5 -5.85L-3.9 -5.45M-7.25 -13.55L-10 -13.55L-13.5 -10.05L-15.2 -11.5L-11.35 -15.35L-7.25 -15.35L-7.25 -15.3L-7.25 -13.55" />
<path style="fill:#808080;fill-opacity:1" d="M-3.9 -5.85L-3.9 -13.55L10 -13.55L13.6 -10L13.6 -5.85L11.5 -5.85L-3.9 -5.85M10.05 13.55L7.25 13.55L-3.9 2.4L-3.9 -5.45L11.5 -5.85L13.6 -5.85L13.5 10.1L10.05 13.55M-7.25 13.55L-10.05 13.55L-13.5 10.1L-13.5 -10.05L-10 -13.55L-7.25 -13.55L-7.25 13.55M-3.9 13.55L-3.9 7.05L2.6 13.55L-3.9 13.55" />
<path style="fill:#565656;fill-opacity:1" d="M15.2 -5.05L15.1 11.7L13.6 -5.85L13.6 -10L15.2 -11.5L15.2 -5.05M15.1 11.7L13.5 10.1L13.6 -5.85L15.2 -5.05M-13.5 10.1L-15.1 11.65L-15.2 -11.5L-13.5 -10.05L-13.5 10.1" />
<path style="fill:#3A3A3A;fill-opacity:1" d="M11.4 15.35L8.9 15.3L7.25 13.55L10.05 13.55L13.5 10.1L15.1 11.7L11.4 15.35M2.6 13.55L4.2 15.15L-3.9 15.35L-3.9 15.3L-3.9 13.55L2.6 13.55M-10.05 13.55L-7.25 13.55L-7.25 15.35L-11.4 15.35L-15.1 11.65L-13.5 10.1L-10.05 13.55" />
<path style="fill:none;stroke-width:0.7;stroke-linecap:round;stroke-linejoin:round;stroke-miterlimit:3;stroke:#000000;stroke-opacity:0.501961" d="M13.6 -5.85L15.2 -5.05L15.2 -11.5L11.4 -15.3L-3.9 -15.2L-3.9 -13.55" />
<path style="fill:none;stroke-width:0.7;stroke-linecap:round;stroke-linejoin:round;stroke-miterlimit:3;stroke:#000000;stroke-opacity:0.501961" d="M11.5 -5.85L13.6 -5.85" />
<path style="fill:none;stroke-width:0.7;stroke-linecap:round;stroke-linejoin:round;stroke-miterlimit:3;stroke:#000000;stroke-opacity:0.501961" d="M15.1 11.7L15.2 -5.05" />
<path style="fill:none;stroke-width:0.7;stroke-linecap:round;stroke-linejoin:round;stroke-miterlimit:3;stroke:#000000;stroke-opacity:0.501961" d="M8.9 15.3L7.25 13.55L-3.9 2.4L-3.9 -5.45L-3.9 -5.85L-3.9 -13.55" />
<path style="fill:none;stroke-width:0.7;stroke-linecap:round;stroke-linejoin:round;stroke-miterlimit:3;stroke:#000000;stroke-opacity:0.501961" d="M4.2 15.15L3.75 14.35L3.75 14.25L7.15 14.25L8.9 15.3L11.4 15.35L15.1 11.7" />
<path style="fill:none;stroke-width:0.7;stroke-linecap:round;stroke-linejoin:round;stroke-miterlimit:3;stroke:#000000;stroke-opacity:0.501961" d="M-15.2 -11.5L-11.35 -15.35L-7.25 -15.35L-7.25 -15.3L-6.55 -13.75L-4.5 -13.75L-3.9 -15.2" />
<path style="fill:none;stroke-width:0.7;stroke-linecap:round;stroke-linejoin:round;stroke-miterlimit:3;stroke:#000000;stroke-opacity:0.501961" d="M-7.25 -13.55L-7.25 -15.3" />
<path style="fill:none;stroke-width:0.7;stroke-linecap:round;stroke-linejoin:round;stroke-miterlimit:3;stroke:#000000;stroke-opacity:0.501961" d="M-15.2 -11.5L-15.1 11.65" />
<path style="fill:none;stroke-width:0.7;stroke-linecap:round;stroke-linejoin:round;stroke-miterlimit:3;stroke:#000000;stroke-opacity:0.501961" d="M-15.1 11.65L-11.4 15.35L-7.25 15.35L-7.25 13.55" />
<path style="fill:none;stroke-width:0.7;stroke-linecap:round;stroke-linejoin:round;stroke-miterlimit:3;stroke:#000000;stroke-opacity:0.501961" d="M4.2 15.15L-3.9 15.35L-3.9 15.3L-4.5 14.25L-4.55 14.2L-6.55 14.2L-7.25 15.35" />
<path style="fill:none;stroke-width:0.7;stroke-linecap:round;stroke-linejoin:round;stroke-miterlimit:3;stroke:#000000;stroke-opacity:0.501961" d="M-3.9 15.3L-3.9 13.55L-3.9 7.05" />
<path style="fill:none;stroke-width:0.7;stroke-linecap:round;stroke-linejoin:round;stroke-miterlimit:3;stroke:#000000;stroke-opacity:0.501961" d="M-7.25 13.55L-7.25 -13.55" />
<path style="fill:none;stroke-width:0.7;stroke-linecap:round;stroke-linejoin:round;stroke-miterlimit:3;stroke:#000000;stroke-opacity:0.501961" d="M-3.9 -5.85L11.5 -5.85" />
</g>
</svg>
