<?xml version="1.0" encoding="utf-8"?>
<svg version="1.1" id="Layer_1"
xmlns="http://www.w3.org/2000/svg"
xmlns:xlink="http://www.w3.org/1999/xlink"
width="33px" height="33px"
xml:space="preserve">
<g id="PathID_3914" transform="matrix(1, 0, 0, 1, 16.2, 16.2)">
<radialGradient
id="RadialGradID_1718" gradientUnits="userSpaceOnUse" gradientTransform="matrix(0.0193481, 0, 0, 0.0193481, 0.05, 0.05)" spreadMethod ="pad" cx="0" cy="0" r="819.2" fx="0" fy="0" >
<stop  offset="0"  style="stop-color:#BDBDBD;stop-opacity:1" />
<stop  offset="0.796078"  style="stop-color:#808080;stop-opacity:1" />
</radialGradient>
<path style="fill:url(#RadialGradID_1718) " d="M10.1 -12.15L7.3 -7.2L12.3 -9.95L8.55 -5.65L14 -7.4L9.5 -3.85L15.15 -4.55L10.05 -1.95L15.75 -1.5L10.25 0.05L15.75 1.6L10.05 2.05L15.15 4.65L9.45 3.95L13.95 7.5L8.5 5.75L12.2 10.1L7.25 7.3L10.05 12.3L5.7 8.55L7.45 14L3.9 9.5L4.6 15.15L2 10.05L1.55 15.75L0 10.25L-1.55 15.75L-2 10.05L-4.6 15.15L-3.9 9.45L-7.45 13.95L-5.7 8.5L-10.05 12.2L-7.25 7.25L-12.2 10.05L-8.5 5.7L-13.95 7.45L-9.45 3.9L-15.1 4.6L-10 2L-15.7 1.55L-10.2 0L-15.7 -1.55L-10 -2L-15.1 -4.6L-9.4 -3.9L-13.9 -7.45L-8.45 -5.7L-12.15 -10.05L-7.2 -7.25L-9.95 -12.2L-5.65 -8.5L-7.4 -13.95L-3.85 -9.45L-4.55 -15.1L-1.95 -10L-1.5 -15.7L0.05 -10.2L1.6 -15.7L2.05 -10L4.65 -15.1L3.95 -9.4L7.5 -13.9L5.75 -8.45L10.1 -12.15" />
<path style="fill:none;stroke-width:1;stroke-linecap:round;stroke-linejoin:round;stroke-miterlimit:3;stroke:#000000;stroke-opacity:0.301961" d="M10.1 -12.15L7.3 -7.2L12.3 -9.95L8.55 -5.65L14 -7.4L9.5 -3.85L15.15 -4.55L10.05 -1.95L15.75 -1.5L10.25 0.05L15.75 1.6L10.05 2.05L15.15 4.65L9.45 3.95L13.95 7.5L8.5 5.75L12.2 10.1L7.25 7.3L10.05 12.3L5.7 8.55L7.45 14L3.9 9.5L4.6 15.15L2 10.05L1.55 15.75L0 10.25L-1.55 15.75L-2 10.05L-4.6 15.15L-3.9 9.45L-7.45 13.95L-5.7 8.5L-10.05 12.2L-7.25 7.25L-12.2 10.05L-8.5 5.7L-13.95 7.45L-9.45 3.9L-15.1 4.6L-10 2L-15.7 1.55L-10.2 0L-15.7 -1.55L-10 -2L-15.1 -4.6L-9.4 -3.9L-13.9 -7.45L-8.45 -5.7L-12.15 -10.05L-7.2 -7.25L-9.95 -12.2L-5.65 -8.5L-7.4 -13.95L-3.85 -9.45L-4.55 -15.1L-1.95 -10L-1.5 -15.7L0.05 -10.2L1.6 -15.7L2.05 -10L4.65 -15.1L3.95 -9.4L7.5 -13.9L5.75 -8.45L10.1 -12.15z" />
</g>
</svg>
