<?xml version="1.0" encoding="utf-8"?>
<svg version="1.1" id="Layer_1"
xmlns="http://www.w3.org/2000/svg"
xmlns:xlink="http://www.w3.org/1999/xlink"
width="35px" height="24px"
xml:space="preserve">
<g id="PathID_3155" transform="matrix(1, 0, 0, 1, 0, 0)">
<path style="fill:#808080;fill-opacity:1" d="M34.65 9.85Q32 9.95 31.7 13.65Q31.45 9.95 28.8 9.95Q31.6 9.9 31.55 5.95Q31.7 9.9 34.65 9.85M0 6.55Q5.35 6.35 5.3 0Q5.55 6.55 10.6 6.35Q5.45 6.75 5.25 13.05Q5.3 6.65 0 6.55M5.6 14.85Q13.8 14.6 14.05 6.65Q14.1 14.85 21.95 15.1Q13.95 15.1 13.95 23.25Q13.7 15 5.6 14.85" />
</g>
</svg>
