<?xml version="1.0" encoding="utf-8"?>
<svg version="1.1" id="Layer_1"
xmlns="http://www.w3.org/2000/svg"
xmlns:xlink="http://www.w3.org/1999/xlink"
width="9px" height="13px"
xml:space="preserve">
<g id="PathID_3671" transform="matrix(1, 0, 0, 1, 0.15, 0.15)">
<path style="fill:#54504E;fill-opacity:1" d="M5.85 5.85Q4 0.6 2.55 0.6L4.55 0.55Q5.8 1.75 6.3 3.15L6.5 3.9L6.3 3.15Q7.4 1.2 8.2 2.15Q8.95 4.95 7.8 6.25Q9.45 8.85 7.7 11.3Q6.95 9.3 6.15 8.8Q4.45 11.55 3.35 12.2Q2.8 11.75 2.85 10.5Q4.15 10.4 5.85 5.85" />
<path style="fill:#808080;fill-opacity:1" d="M2.85 10.5Q2.85 9.4 3.35 7.55L0.1 7.2Q-0.5 5.95 3.7 4.75Q3.95 3.3 2.55 0.6Q4 0.6 5.85 5.85Q4.15 10.4 2.85 10.5" />
<path style="fill:none;stroke-width:0.7;stroke-linecap:round;stroke-linejoin:round;stroke-miterlimit:3;stroke:#000000;stroke-opacity:0.4" d="M6.3 3.15L6.5 3.9" />
<path style="fill:none;stroke-width:0.7;stroke-linecap:round;stroke-linejoin:round;stroke-miterlimit:3;stroke:#000000;stroke-opacity:0.4" d="M2.55 0.6L4.55 0.55Q5.8 1.75 6.3 3.15Q7.4 1.2 8.2 2.15Q8.95 4.95 7.8 6.25Q9.45 8.85 7.7 11.3Q6.95 9.3 6.15 8.8Q4.45 11.55 3.35 12.2Q2.8 11.75 2.85 10.5Q2.85 9.4 3.35 7.55L0.1 7.2Q-0.5 5.95 3.7 4.75Q3.95 3.3 2.55 0.6z" />
</g>
</svg>
