<?xml version="1.0" encoding="utf-8"?>
<svg version="1.1" id="Layer_1"
xmlns="http://www.w3.org/2000/svg"
xmlns:xlink="http://www.w3.org/1999/xlink"
width="20px" height="6px"
xml:space="preserve">
<g id="PathID_3400" transform="matrix(1, 0, 0, 1, 0, 0)">
<path style="fill:#808080;fill-opacity:1" d="M13.6 3.3Q13.95 2.35 15.3 1.85L18.2 2Q19.25 1.6 19.1 3.05Q17.95 4.2 17 5.65L1.9 5.65Q-0.9 3.3 0.45 2.35L1.9 2.25Q2.8 2.4 4.1 3.2Q3.2 1.8 3.8 0.65Q4.85 -0.55 6.1 0.5Q6.7 1.45 7.95 0.95L8.1 0.85Q8.8 0.25 9.7 0.1L10.95 0.1Q13.45 0.3 13.6 3.3" />
</g>
</svg>
