<?xml version="1.0" encoding="utf-8"?>
<svg version="1.1" id="Layer_1"
xmlns="http://www.w3.org/2000/svg"
xmlns:xlink="http://www.w3.org/1999/xlink"
width="100px" height="10px"
xml:space="preserve">
<g id="PathID_2728" transform="matrix(1, 0, 0, 1, 0, 5)">
<path style="fill:#808080;fill-opacity:1" d="M26.65 -3.15L26.15 -5L34.1 -5L33.55 -3.75L29.1 -2.55L26.65 -3.15M39.15 2.45L34.65 -0.3L32.85 -2.2L37.1 -2.3L40.85 -5L98 -5Q99.75 -4.85 100 -3.85L100 -1.2L93.25 0.35L82.75 -4.25L76.55 -2.05L61.05 -1.55L62.25 -4.25L61.65 -4.85L57.55 -0.8L47.55 1.55L47.25 2.45L39.15 2.45M0 2.45L0 -3.7Q-0.1 -4.75 1.35 -5L23.1 -5L22.85 -3.3L15.2 0.8L9.45 2.2L9.35 2.45L0 2.45M100 1.65L100 2.45L96.95 2.45L100 1.65M76 2.45L83.15 -1.35L88.5 2.45L76 2.45M22.2 2.45L26.35 0.2L32 2.45L22.2 2.45" />
<path style="fill:#595959;fill-opacity:1" d="M39.15 2.45L47.25 2.45L46.3 5L43.3 5L39.15 2.45M9.35 2.45L8.25 5L1.35 5Q0.1 4.9 0 4L0 2.45L9.35 2.45M100 3.65Q99.8 4.8 97.7 5L91.35 5L92.7 3.55L96.95 2.45L100 2.45L100 3.65M88.5 2.45L89.65 3.25L89.75 4.05L89.5 5L53.25 5L53.2 4.8L64.85 3.05L74.85 3.05L76 2.45L88.5 2.45M32 2.45L35.1 3.7L35.6 5L19.45 5L19.7 3.8L22.2 2.45L32 2.45" />
</g>
</svg>
