<?xml version="1.0" encoding="utf-8"?>
<svg version="1.1" id="Layer_1"
xmlns="http://www.w3.org/2000/svg"
xmlns:xlink="http://www.w3.org/1999/xlink"
width="12px" height="5px"
xml:space="preserve">
<g id="PathID_4461" transform="matrix(1, 0, 0, 1, 5.85, 2.05)">
<path style="fill:#808080;fill-opacity:1" d="M4.25 -0.7L4.4 -1.4L5 -2L5.65 -1.95L5.85 -1.55L5.6 -0.7L5.15 -0.25L4.55 -0.15Q4.25 -0.3 4.25 -0.7M3 1.25L2.6 1.35L2.2 1Q2.15 0.8 2.25 0.55Q2.3 0.2 2.5 0L3 -0.1L3.3 0.2L3.35 0.75L3 1.25M1.25 1.65L0.95 2.05L0.3 1.9Q0.05 1.65 -0.05 1.25L-0.1 0.45L0.4 0L0.85 0.15L1.3 0.85L1.25 1.65M-2.15 -0.35L-1.85 0L-1.85 0.7L-2.2 1.25Q-2.45 1.5 -2.65 1.4L-3 1L-3 0.4L-2.7 -0.25L-2.15 -0.35M-4.65 -1.75L-4.25 -1.3Q-4.1 -0.85 -4.25 -0.35Q-4.35 0.1 -4.7 0.4L-5.3 0.65L-5.8 0.1L-5.8 -0.75L-5.35 -1.6L-4.65 -1.75" />
</g>
</svg>
