<?xml version="1.0" encoding="utf-8"?>
<svg version="1.1" id="Layer_1"
xmlns="http://www.w3.org/2000/svg"
xmlns:xlink="http://www.w3.org/1999/xlink"
width="97px" height="15px"
xml:space="preserve">
<g id="PathID_2678" transform="matrix(1, 0, 0, 1, 0.25, 0.25)">
<path style="fill:#54504E;fill-opacity:1" d="M0.3 3.75L1 4.5L4.9 7.55L7.8 9.3Q9.05 9.95 10.65 10L13.6 9.65L14.1 9.45L16.2 8.25Q17.35 7.4 18.6 7.15L22.55 6.55L28.5 6.85L96.25 6.85L96.25 10.2L28.5 10.2L27.7 10.15Q23.25 8.8 18.2 9.65Q14.9 11.25 11.5 13.8Q8 13.75 4.1 9.05Q1.1 5.35 0.3 3.75" />
<path style="fill:#808080;fill-opacity:1" d="M28.5 6.85L22.55 6.55L18.6 7.15Q17.35 7.4 16.2 8.25L14.1 9.45L13.6 9.65L10.65 10Q9.05 9.95 7.8 9.3L4.9 7.55L1 4.5L0.3 3.75Q-0.2 2.7 0.1 2.4Q11.4 -0.15 24.75 0L28.5 0.1Q32.8 0 37.35 0.2L96.25 0.2L96.25 6.85L28.5 6.85" />
<path style="fill:none;stroke-width:0.7;stroke-linecap:butt;stroke-linejoin:bevel;stroke-miterlimit:3;stroke:#000000;stroke-opacity:0.501961" d="M96.25 0.2L37.35 0.2Q32.8 0 28.5 0.1L24.75 0Q11.4 -0.15 0.1 2.4Q-0.2 2.7 0.3 3.75" />
<path style="fill:none;stroke-width:0.7;stroke-linecap:butt;stroke-linejoin:bevel;stroke-miterlimit:3;stroke:#000000;stroke-opacity:0.501961" d="M96.25 10.2L28.5 10.2L27.7 10.15Q23.25 8.8 18.2 9.65Q14.9 11.25 11.5 13.8Q8 13.75 4.1 9.05Q1.1 5.35 0.3 3.75" />
</g>
</svg>
