<?xml version="1.0" encoding="utf-8"?>
<svg version="1.1" id="Layer_1"
xmlns="http://www.w3.org/2000/svg"
xmlns:xlink="http://www.w3.org/1999/xlink"
width="31px" height="31px"
xml:space="preserve">
<g id="PathID_4415" transform="matrix(1, 0, 0, 1, 15.5, 15.5)">
<radialGradient
id="RadialGradID_1892" gradientUnits="userSpaceOnUse" gradientTransform="matrix(0.024231, 0, 0, 0.024231, 0.75, -4.75)" spreadMethod ="pad" cx="0" cy="0" r="819.2" fx="0" fy="0" >
<stop  offset="0"  style="stop-color:#FFFFFF;stop-opacity:0.211765" />
<stop  offset="0.647059"  style="stop-color:#FFFFFF;stop-opacity:0" />
</radialGradient>
<path style="fill:url(#RadialGradID_1892) " d="M10.6 -10.6Q15 -6.2 15 0L14.95 1.55L14.6 2.2L13.65 3.75L13.45 4.05L11.85 5.85Q7.45 10.25 1.25 10.25Q-4.95 10.25 -9.35 5.85Q-11.05 4.15 -12.05 2.25L-12.15 2.1Q-13.45 -0.4 -13.65 -3.25L-13.7 -3.5L-13.75 -4.75L-13.65 -6.2L-14.1 -5.2L-14.1 -5.1L-14.35 -4.45Q-13.3 -7.9 -10.6 -10.6Q-6.2 -15 0 -15Q6.2 -15 10.6 -10.6" />
</g>
<g id="PathID_4416" transform="matrix(1, 0, 0, 1, 15.5, 15.5)">
<path style="fill:none;stroke-width:1;stroke-linecap:round;stroke-linejoin:round;stroke-miterlimit:3;stroke:#000000;stroke-opacity:0.4" d="M10.6 -10.6Q15 -6.2 15 0Q15 6.2 10.6 10.6Q6.2 15 0 15Q-6.2 15 -10.6 10.6Q-15 6.2 -15 0Q-15 -6.2 -10.6 -10.6Q-6.2 -15 0 -15Q6.2 -15 10.6 -10.6z" />
</g>
<g id="PathID_4417" transform="matrix(1, 0, 0, 1, 15.5, 15.5)">
<path style="fill:none;stroke-width:1;stroke-linecap:round;stroke-linejoin:round;stroke-miterlimit:3;stroke:#000000;stroke-opacity:0.2" d="M-7.4 -13.1Q-4.85 -11.15 -1.3 -4.85Q1.6 -6.35 4.45 -7.05Q2.8 -11.1 3.7 -14.55" />
<path style="fill:none;stroke-width:1;stroke-linecap:round;stroke-linejoin:round;stroke-miterlimit:3;stroke:#000000;stroke-opacity:0.2" d="M13.2 -7.25Q9 -8.2 4.45 -7.05Q5.2 -5.1 6.5 -3.05Q10.2 2.9 14.5 4.55" />
<path style="fill:none;stroke-width:1;stroke-linecap:round;stroke-linejoin:round;stroke-miterlimit:3;stroke:#000000;stroke-opacity:0.2" d="M-14.35 -4.45Q-11.05 -4.3 -8.05 -0.1Q-5.6 -2.55 -1.95 -4.5L-1.3 -4.85L-0.1 -2.65Q4.3 5.7 6.6 13.5" />
<path style="fill:none;stroke-width:1;stroke-linecap:round;stroke-linejoin:round;stroke-miterlimit:3;stroke:#000000;stroke-opacity:0.2" d="M-4.7 14.3Q-3.95 5.6 -7.95 0.05L-8.05 -0.1L-10.45 2.8Q-12.5 5.85 -12.55 8.3" />
</g>
</svg>
