<?xml version="1.0" encoding="utf-8"?>
<svg version="1.1" id="Layer_1"
xmlns="http://www.w3.org/2000/svg"
xmlns:xlink="http://www.w3.org/1999/xlink"
width="7px" height="33px"
xml:space="preserve">
<g id="PathID_3731" transform="matrix(1, 0, 0, 1, 0.1, 0.1)">
<path style="fill:#54504E;fill-opacity:1" d="M0.5 8.3L0.4 4.85L0 0L1.45 1.7Q2.1 4.15 1.65 6.65Q1.05 11.3 1.55 16.15L1.9 17.55Q0.55 13.65 0.5 8.3" />
<path style="fill:#808080;fill-opacity:1" d="M1.9 17.55Q4.7 27.55 6.35 31.95L0.75 29.2Q-0.1 20.6 0.35 12L0.5 8.3Q0.55 13.65 1.9 17.55" />
<path style="fill:none;stroke-width:0.7;stroke-linecap:butt;stroke-linejoin:bevel;stroke-miterlimit:3;stroke:#000000;stroke-opacity:0.4" d="M0.5 8.3L0.4 4.85L0 0L1.45 1.7Q2.1 4.15 1.65 6.65Q1.05 11.3 1.55 16.15L1.9 17.55Q4.7 27.55 6.35 31.95L0.75 29.2Q-0.1 20.6 0.35 12L0.5 8.3z" />
</g>
</svg>
