<?xml version="1.0" encoding="utf-8"?>
<svg version="1.1" id="Layer_1"
xmlns="http://www.w3.org/2000/svg"
xmlns:xlink="http://www.w3.org/1999/xlink"
width="14px" height="10px"
xml:space="preserve">
<g id="PathID_4398" transform="matrix(1, 0, 0, 1, 7, 11.2)">
<path style="fill:#0F0A10;fill-opacity:1" d="M2.65 -6.6Q2.65 -8.5 3.3 -9.85Q3.9 -11.2 4.75 -11.2Q5.65 -11.2 6.25 -9.85Q6.9 -8.5 6.9 -6.6Q6.9 -4.75 6.25 -3.35Q5.65 -2.05 4.75 -2.05Q3.9 -2.05 3.3 -3.35Q2.65 -4.75 2.65 -6.6M-6.35 -3.35Q-7 -4.75 -7 -6.6Q-7 -8.5 -6.35 -9.85Q-5.75 -11.2 -4.9 -11.2Q-4 -11.2 -3.4 -9.85Q-2.75 -8.5 -2.75 -6.6Q-2.75 -4.75 -3.4 -3.35Q-4 -2.05 -4.9 -2.05Q-5.75 -2.05 -6.35 -3.35" />
</g>
</svg>
