<?xml version="1.0" encoding="utf-8"?>
<svg version="1.1" id="Layer_1"
xmlns="http://www.w3.org/2000/svg"
xmlns:xlink="http://www.w3.org/1999/xlink"
width="35px" height="31px"
xml:space="preserve">
<g id="PathID_4149" transform="matrix(1, 0, 0, 1, 14.7, 16.1)">
<linearGradient
id="LinearGradID_1791" gradientUnits="userSpaceOnUse" gradientTransform="matrix(-0.00416565, -0.00331116, -0.00848389, 0.0106812, -9.4, -9.9)" spreadMethod ="pad" x1="-819.2" y1="0" x2="819.2" y2="0" >
<stop  offset="0" style="stop-color:#FFFFFF;stop-opacity:0.4" />
<stop  offset="1" style="stop-color:#FFFFFF;stop-opacity:0.8" />
</linearGradient>
<path style="fill:url(#LinearGradID_1791) " d="M-5.1 -14.7L-8.2 -13.25L-7.5 -13Q-4.9 -11.5 -5.4 -8.15Q-5.65 -6.2 -7.7 -5.3Q-11 -4 -12.8 -5.8Q-13.7 -3.5 -13.6 -0.65L-13.55 -0.05Q-14.35 -1.7 -14.6 -3.75Q-15.15 -8.3 -12.25 -12Q-9.45 -15.5 -4.8 -16.05L-0.5 -15.7Q-2.95 -15.65 -5.1 -14.7" />
</g>
<g id="PathID_4150" transform="matrix(1, 0, 0, 1, 14.7, 16.1)">
<path style="fill:#FFFFFF;fill-opacity:0.501961" d="M18.4 -6.6Q20.25 -3.5 19.4 0.55Q18.5 4.95 14.6 8.6Q12.5 10.55 10.55 11.5Q8.75 12.35 7.1 12.2L6.55 13.6Q6.15 14.75 4.5 14.9Q3.65 14.95 3.55 14.45Q3.5 13.9 4.2 13Q4.6 12.45 5.55 12.15L6.05 11.95Q4.5 11.35 3.2 9.5Q1.9 7.75 1.1 5Q-0.4 -0.15 1 -4.35Q2.25 -8.3 5.4 -10.1Q8.8 -12.1 12.7 -11.05Q16.5 -10 18.4 -6.6" />
</g>
</svg>
