<?xml version="1.0" encoding="utf-8"?>
<svg version="1.1" id="Layer_1"
xmlns="http://www.w3.org/2000/svg"
xmlns:xlink="http://www.w3.org/1999/xlink"
width="9px" height="6px"
xml:space="preserve">
<g id="PathID_4350" transform="matrix(1, 0, 0, 1, 0.05, 0.05)">
<path style="fill:#808080;fill-opacity:1" d="M7.65 0.1Q8 0.1 8.2 0.9L8.45 2.85L8.2 4.8Q8 5.6 7.65 5.6Q7.3 5.6 7.05 4.8L6.85 2.85L7.05 0.9Q7.3 0.1 7.65 0.1M0 2.75L0.2 0.8Q0.45 0 0.8 0Q1.15 0 1.35 0.8L1.6 2.75L1.35 4.7Q1.15 5.5 0.8 5.5Q0.45 5.5 0.2 4.7L0 2.75" />
<path style="fill:none;stroke-width:0.7;stroke-linecap:butt;stroke-linejoin:bevel;stroke-miterlimit:3;stroke:#000000;stroke-opacity:0.501961" d="M7.65 0.1Q8 0.1 8.2 0.9L8.45 2.85L8.2 4.8Q8 5.6 7.65 5.6Q7.3 5.6 7.05 4.8L6.85 2.85L7.05 0.9Q7.3 0.1 7.65 0.1z" />
<path style="fill:none;stroke-width:0.7;stroke-linecap:butt;stroke-linejoin:bevel;stroke-miterlimit:3;stroke:#000000;stroke-opacity:0.501961" d="M0 2.75L0.2 0.8Q0.45 0 0.8 0Q1.15 0 1.35 0.8L1.6 2.75L1.35 4.7Q1.15 5.5 0.8 5.5Q0.45 5.5 0.2 4.7L0 2.75z" />
</g>
</svg>
