<?xml version="1.0" encoding="utf-8"?>
<svg version="1.1" id="Layer_1"
xmlns="http://www.w3.org/2000/svg"
xmlns:xlink="http://www.w3.org/1999/xlink"
width="46px" height="10px"
xml:space="preserve">
<g id="PathID_3216" transform="matrix(1, 0, 0, 1, 23, 22.85)">
<path style="fill:#FFFFFF;fill-opacity:0.4" d="M4.4 -15.7L4.4 -14.6Q4.45 -13.95 4.15 -13.55Q3.75 -13 3 -13.2Q3 -16.55 1.3 -19.5Q2.8 -19.1 4.05 -18.1Q5.35 -17 5.9 -15.45Q6.3 -14.35 6 -13.55L5.25 -13.6L4.65 -14.2Q4.4 -14.7 4.4 -15.7M-3.6 -14.4L-3.85 -13.75Q-4.3 -13.3 -4.75 -13.5L-5.6 -14Q-5.95 -14.75 -5.25 -15.75L-4 -17.25L-3.2 -18.4Q-3.1 -16.4 -3.6 -14.4" />
</g>
<g id="PathID_3217" transform="matrix(1, 0, 0, 1, 23, 22.85)">
<path style="fill:#FFFFFF;fill-opacity:0.4" d="M-22.55 -21.55Q-18.95 -20.85 -18.25 -16.65L-18.25 -16.55L-20.25 -16.15L-21 -16.65Q-24 -18.8 -22.55 -21.55M-15.9 -20.6Q-17.25 -23.75 -11.05 -22.45Q-4.9 -21.15 -9.35 -19.55L-12.4 -18.5Q-14.55 -17.4 -15.9 -20.6M-17.85 -21.55L-17.35 -21.55Q-16.7 -19.3 -15 -17.65L-17.3 -16.9Q-17.9 -19.65 -17.85 -21.55" />
</g>
<g id="PathID_3218" transform="matrix(1, 0, 0, 1, 23, 22.85)">
<path style="fill:#FFFFFF;fill-opacity:0.4" d="M13.05 -19.35Q12 -18.95 10.45 -19.85L10.75 -21.35Q12.05 -24.3 13.9 -21.35Q13.85 -19.4 13.05 -19.35M15.45 -21.3Q15.35 -19.65 14.1 -18.8L14.9 -21.85L15.45 -21.3M16.75 -21.4Q21.1 -21.5 21.45 -20.65Q22.55 -19.3 21.75 -18.05Q18.75 -17.05 16.05 -18.45Q17.5 -19.7 16.75 -21.4" />
</g>
</svg>
