<?xml version="1.0" encoding="utf-8"?>
<svg version="1.1" id="Layer_1"
xmlns="http://www.w3.org/2000/svg"
xmlns:xlink="http://www.w3.org/1999/xlink"
width="68px" height="23px"
xml:space="preserve">
<g id="PathID_3132" transform="matrix(1, 0, 0, 1, 0.25, 0.25)">
<linearGradient
id="LinearGradID_1537" gradientUnits="userSpaceOnUse" gradientTransform="matrix(0, 0.00286865, -0.0062561, 0, 32.35, 19.45)" spreadMethod ="pad" x1="-819.2" y1="0" x2="819.2" y2="0" >
<stop  offset="0" style="stop-color:#808080;stop-opacity:1" />
<stop  offset="1" style="stop-color:#575757;stop-opacity:1" />
</linearGradient>
<path style="fill:url(#LinearGradID_1537) " d="M66.65 12.1L66.65 12.6L66.65 17.35Q66.65 22.35 61.65 22.35L5 22.35Q0 22.35 0 17.35L0 12.1L66.65 12.1M31.2 18.75L34.2 18.9L34.65 18.9Q39.25 18.7 40.35 16.95L26.9 16.95L27.85 17.7Q28.8 18.55 31.2 18.75" />
<path style="fill:#54504E;fill-opacity:1" d="M0 12.1L0 10.15L66.65 10.15L66.65 12.1L0 12.1M27.85 17.7L26.9 16.95L40.35 16.95Q39.25 18.7 34.65 18.9L34.2 18.9L31.2 18.75Q28.8 18.55 27.85 17.7" />
<linearGradient
id="LinearGradID_1538" gradientUnits="userSpaceOnUse" gradientTransform="matrix(0, -0.00244141, 0.00619507, 0, 34.65, 5.35)" spreadMethod ="pad" x1="-819.2" y1="0" x2="819.2" y2="0" >
<stop  offset="0" style="stop-color:#625F5F;stop-opacity:1" />
<stop  offset="1" style="stop-color:#848484;stop-opacity:1" />
</linearGradient>
<path style="fill:url(#LinearGradID_1538) " d="M0 10.15L0 5Q0 0 5 0L61.65 0Q66.65 0 66.65 5L66.65 10.15L0 10.15" />
<path style="fill:none;stroke-width:0.7;stroke-linecap:round;stroke-linejoin:round;stroke-miterlimit:3;stroke:#000000;stroke-opacity:0.4" d="M0 10.15L0 5Q0 0 5 0L61.65 0Q66.65 0 66.65 5L66.65 10.15L66.65 12.1L66.65 12.6L66.65 17.35Q66.65 22.35 61.65 22.35L5 22.35Q0 22.35 0 17.35L0 12.1L0 10.15L66.65 10.15" />
</g>
<g id="PathID_3133" transform="matrix(1, 0, 0, 1, 0.25, 0.25)">
<path style="fill:#FFFFFF;fill-opacity:0.329412" d="M62.1 3.4L7.1 3.45Q4.9 5.7 1.75 7.65L1.75 3.75Q2.7 0.8 4.85 1.15L61.8 1.15Q66.15 2.65 64.85 3.95Q64.35 4.4 62.1 3.4" />
</g>
</svg>
