<?xml version="1.0" encoding="utf-8"?>
<svg version="1.1" id="Layer_1"
xmlns="http://www.w3.org/2000/svg"
xmlns:xlink="http://www.w3.org/1999/xlink"
width="19px" height="16px"
xml:space="preserve">
<g id="PathID_3417" transform="matrix(1, 0, 0, 1, 0, 0)">
<path style="fill:#808080;fill-opacity:1" d="M16.35 2.6Q16.7 3.5 15.75 4.9L14.5 6.35L16.8 6.55L17.9 7.3Q18.9 9.65 15.85 9.3L14.25 8.8Q15.8 9.35 16.55 12.05Q16.8 13.25 16.55 14.1Q16.4 14.75 15.85 15.1L15 15.5Q12.8 16.05 11 14.3L10.65 13.7L10.45 13L10.4 12.9L10.4 13.3L10.25 14.3L9.5 14.9L8.4 15.3Q6.25 15.4 5.6 13.9Q5.2 13.5 5.4 12.2L5.65 11.35L5.75 11.2L6.05 10.7L5.8 10.9Q4.7 11.5 3.6 11.45Q0.85 11.45 0.15 9.05Q-0.05 7.45 1.85 7.1L1.4 7.1Q0.55 7.05 0.2 6.55Q-0.05 6.1 0.05 5.3Q0.5 4.4 1.25 4.05L3.65 3.95L2.8 3Q2.2 2.2 2.5 1.45Q3.35 -0.1 4.55 0Q7.05 -0.15 8.8 2.05Q9.65 3.05 10.5 2.35Q12.85 0.25 15.3 1.6L16.35 2.6" />
</g>
</svg>
