<?xml version="1.0" encoding="utf-8"?>
<svg version="1.1" id="Layer_1"
xmlns="http://www.w3.org/2000/svg"
xmlns:xlink="http://www.w3.org/1999/xlink"
width="60px" height="24px"
xml:space="preserve">
<g id="PathID_2978" transform="matrix(1, 0, 0, 1, 0.3, 0.1)">
<path style="fill:#999999;fill-opacity:1" d="M46.05 14.65Q43.15 8.55 42.25 2.6L41.95 0.3Q45.15 1 47.8 4.1Q49.1 5.7 49.8 7L49.8 14.65L46.05 14.65M52.9 14.65L53 12.55Q53 10.55 52.4 8.25Q52.5 8.05 52.8 7.95Q54.9 6.9 56.1 6.9Q57.3 6.9 58.45 7.65L58.45 14.65L52.9 14.65M3.9 14.65L2.6 14.65L3.9 14.65L6.1 14.65L9.65 14.65L13.35 14.65L24.3 14.65L26.5 14.65L30.4 14.65L32.3 14.65Q35.05 16.25 40.25 17.35Q44.65 18.35 47.1 18.35L52.1 17.45L56.9 16.55L58.45 16.65L58.45 22.75L31.1 22.75L23.1 20.15Q14.85 17.35 13.05 17.25L2.1 15.85L2.6 14.65Q3.1 13.75 3.9 12.85L4 12.85L3.9 14.65M24.3 14.65L13.35 14.65L9.65 14.65L10.05 10.45Q11.35 10.85 11.85 12.15Q11.45 9.05 13.55 5.8Q15.25 3.5 17.85 2.7Q17.95 10.85 24.3 14.65M30.4 14.65L26.5 14.65L26.5 4.4Q28.5 4.3 29.9 5.4L29.8 7.5Q29.8 10.95 30.4 14.65M54 17.05Q53.2 17.05 52.7 17.55Q52.2 18.15 52.2 18.85Q52.2 19.55 52.7 20.05Q53.2 20.55 54 20.55Q54.7 20.55 55.2 20.05Q55.7 19.55 55.7 18.85Q55.7 18.15 55.2 17.55Q54.7 17.05 54 17.05M36.45 14.65L36.25 11.75Q36.25 10.35 37.15 7.1L38.15 4L38.15 14.65L36.45 14.65M13.35 14.65L13.55 5.8L13.35 14.65" />
<path style="fill:#8A8A8A;fill-opacity:1" d="M53 12.55L52.9 14.65L58.45 14.65L49.8 14.65L49.8 7Q50.5 8.25 50.5 9.25L50.7 9.25L52.4 8.25Q53 10.55 53 12.55M58.45 14.65L58.45 16.65L56.9 16.55L52.1 17.45L47.1 18.35Q44.65 18.35 40.25 17.35Q35.05 16.25 32.3 14.65L30.4 14.65Q29.8 10.95 29.8 7.5L29.9 5.4L31.1 6.2Q32.4 3.3 34.05 1.9Q35.65 0.5 38.15 0.1L39.85 0L41.95 0.3L42.25 2.6Q43.15 8.55 46.05 14.65L38.15 14.65L38.15 4L38.15 0.1L38.15 4L37.15 7.1Q36.25 10.35 36.25 11.75L36.45 14.65L32.3 14.65L36.45 14.65L38.15 14.65L46.05 14.65L49.8 14.65L52.9 14.65M31.1 22.75L0 22.75L0.5 22.25Q2.3 20.85 3 21.15L2.4 20.15L2.5 20.05Q1.7 18.85 1.7 17.65L1.8 17.15L2.5 17.55Q1.8 16.45 2.1 15.85L13.05 17.25Q14.85 17.35 23.1 20.15L31.1 22.75M9.65 14.65L6.1 14.65L3.9 14.65L4 12.85L6.1 10.85Q7.2 10.15 8.2 10.15L10.05 10.45L9.65 14.65M26.5 14.65L24.3 14.65Q17.95 10.85 17.85 2.7Q19.25 2.2 20.95 2.2Q24.2 2.2 26.5 4.4L26.5 14.65M55.2 17.55Q55.7 18.15 55.7 18.85Q55.7 19.55 55.2 20.05Q54.7 20.55 54 20.55Q53.2 20.55 52.7 20.05Q52.2 19.55 52.2 18.85Q52.2 18.15 52.7 17.55Q53.2 17.05 54 17.05Q54.7 17.05 55.2 17.55M2.5 20.05Q3 19.55 3 18.85Q3 18.15 2.5 17.55L1.8 17.15M2.5 17.55Q3 18.15 3 18.85Q3 19.55 2.5 20.05L2.4 20.15M6.1 14.65L6.1 10.85L6.1 14.65" />
<path style="fill:none;stroke-width:0.7;stroke-linecap:round;stroke-linejoin:round;stroke-miterlimit:3;stroke:#000000;stroke-opacity:0.290196" d="M49.8 7L49.8 14.65L52.9 14.65" />
<path style="fill:none;stroke-width:0.7;stroke-linecap:round;stroke-linejoin:miter;stroke-miterlimit:5;stroke:#000000;stroke-opacity:0.101961" d="M52.9 14.65L53 12.55Q53 10.55 52.4 8.25" />
<path style="fill:none;stroke-width:0.7;stroke-linecap:round;stroke-linejoin:miter;stroke-miterlimit:5;stroke:#000000;stroke-opacity:0.501961" d="M58.45 7.65L58.45 14.65L58.45 16.65L58.45 22.75L31.1 22.75L0 22.75" />
<path style="fill:none;stroke-width:0.7;stroke-linecap:round;stroke-linejoin:miter;stroke-miterlimit:5;stroke:#000000;stroke-opacity:0.101961" d="M2.4 20.15Q1.7 18.85 1.7 17.65L1.8 17.15" />
<path style="fill:none;stroke-width:0.7;stroke-linecap:round;stroke-linejoin:miter;stroke-miterlimit:5;stroke:#000000;stroke-opacity:0.101961" d="M46.05 14.65Q43.15 8.55 42.25 2.6L41.95 0.3" />
<path style="fill:none;stroke-width:0.7;stroke-linecap:round;stroke-linejoin:round;stroke-miterlimit:3;stroke:#000000;stroke-opacity:0.290196" d="M46.05 14.65L49.8 14.65" />
<path style="fill:none;stroke-width:0.7;stroke-linecap:round;stroke-linejoin:miter;stroke-miterlimit:5;stroke:#000000;stroke-opacity:0.101961" d="M58.45 16.65L56.9 16.55L52.1 17.45L47.1 18.35Q44.65 18.35 40.25 17.35Q35.05 16.25 32.3 14.65" />
<path style="fill:none;stroke-width:0.7;stroke-linecap:round;stroke-linejoin:round;stroke-miterlimit:3;stroke:#000000;stroke-opacity:0.290196" d="M32.3 14.65L30.4 14.65L26.5 14.65L24.3 14.65L13.35 14.65L9.65 14.65L6.1 14.65L3.9 14.65L2.6 14.65" />
<path style="fill:none;stroke-width:0.7;stroke-linecap:round;stroke-linejoin:miter;stroke-miterlimit:5;stroke:#000000;stroke-opacity:0.101961" d="M55.2 17.55Q55.7 18.15 55.7 18.85Q55.7 19.55 55.2 20.05Q54.7 20.55 54 20.55Q53.2 20.55 52.7 20.05Q52.2 19.55 52.2 18.85Q52.2 18.15 52.7 17.55Q53.2 17.05 54 17.05Q54.7 17.05 55.2 17.55z" />
<path style="fill:none;stroke-width:0.7;stroke-linecap:round;stroke-linejoin:round;stroke-miterlimit:3;stroke:#000000;stroke-opacity:0.290196" d="M52.9 14.65L58.45 14.65" />
<path style="fill:none;stroke-width:0.7;stroke-linecap:round;stroke-linejoin:round;stroke-miterlimit:3;stroke:#000000;stroke-opacity:0.290196" d="M38.15 0.1L38.15 4L38.15 14.65L46.05 14.65" />
<path style="fill:none;stroke-width:0.7;stroke-linecap:round;stroke-linejoin:miter;stroke-miterlimit:5;stroke:#000000;stroke-opacity:0.152941" d="M36.45 14.65L36.25 11.75Q36.25 10.35 37.15 7.1L38.15 4" />
<path style="fill:none;stroke-width:0.7;stroke-linecap:round;stroke-linejoin:miter;stroke-miterlimit:5;stroke:#000000;stroke-opacity:0.101961" d="M29.9 5.4L29.8 7.5Q29.8 10.95 30.4 14.65" />
<path style="fill:none;stroke-width:0.7;stroke-linecap:round;stroke-linejoin:round;stroke-miterlimit:3;stroke:#000000;stroke-opacity:0.290196" d="M32.3 14.65L36.45 14.65L38.15 14.65" />
<path style="fill:none;stroke-width:0.7;stroke-linecap:round;stroke-linejoin:miter;stroke-miterlimit:5;stroke:#000000;stroke-opacity:0.101961" d="M2.1 15.85L13.05 17.25Q14.85 17.35 23.1 20.15L31.1 22.75" />
<path style="fill:none;stroke-width:0.7;stroke-linecap:round;stroke-linejoin:round;stroke-miterlimit:3;stroke:#000000;stroke-opacity:0.290196" d="M26.5 4.4L26.5 14.65" />
<path style="fill:none;stroke-width:0.7;stroke-linecap:round;stroke-linejoin:miter;stroke-miterlimit:5;stroke:#000000;stroke-opacity:0.101961" d="M4 12.85L3.9 14.65" />
<path style="fill:none;stroke-width:0.7;stroke-linecap:round;stroke-linejoin:miter;stroke-miterlimit:5;stroke:#000000;stroke-opacity:0.101961" d="M1.8 17.15L2.5 17.55Q3 18.15 3 18.85Q3 19.55 2.5 20.05L2.4 20.15" />
<path style="fill:none;stroke-width:0.7;stroke-linecap:round;stroke-linejoin:round;stroke-miterlimit:3;stroke:#000000;stroke-opacity:0.290196" d="M13.55 5.8L13.35 14.65" />
<path style="fill:none;stroke-width:0.7;stroke-linecap:round;stroke-linejoin:miter;stroke-miterlimit:5;stroke:#000000;stroke-opacity:0.101961" d="M10.05 10.45L9.65 14.65" />
<path style="fill:none;stroke-width:0.7;stroke-linecap:round;stroke-linejoin:round;stroke-miterlimit:3;stroke:#000000;stroke-opacity:0.290196" d="M6.1 10.85L6.1 14.65" />
<path style="fill:none;stroke-width:0.7;stroke-linecap:round;stroke-linejoin:miter;stroke-miterlimit:5;stroke:#000000;stroke-opacity:0.101961" d="M17.85 2.7Q17.95 10.85 24.3 14.65" />
</g>
</svg>
