<?xml version="1.0" encoding="utf-8"?>
<svg version="1.1" id="Layer_1"
xmlns="http://www.w3.org/2000/svg"
xmlns:xlink="http://www.w3.org/1999/xlink"
width="71px" height="10px"
xml:space="preserve">
<g id="PathID_3382" transform="matrix(1, 0, 0, 1, 0, 0)">
<path style="fill:#808080;fill-opacity:1" d="M64.4 3.55L56.9 1.65Q55.1 1.5 53.9 0.95L49.65 0L68.45 0Q70.4 0.15 70.45 1.45L70.45 4.05Q68.95 4.85 67.3 5.45L64.4 3.55M22.75 6.6Q21.3 5.65 19.65 5.95Q15 6 10.15 2.95L6.75 2.8Q1.9 3.85 0 0L5.3 0Q8.45 1.5 10.95 1.2Q13.45 0.9 16.2 2.45Q18.9 4 24.25 3.5L28.55 2.9L35.5 2.5L40.7 2.5L44.1 1.95Q48.2 0.85 52.3 2.6Q53.85 3.4 56.6 3.65L59.95 4.5Q61.8 5.05 64.45 6.25L64 6.35L54.1 6.65Q49.95 5.75 49.2 4.6Q47.9 2.65 46.1 3.35Q44.15 4.65 42.45 3.95Q40.8 3.25 38.25 4.8Q35.65 6.3 33.6 5.5L33.4 5.4L29.9 5.5L26.45 6.6L22.75 6.6M31.9 0.6L25.1 1.35Q20.2 2.1 17 0L43.1 0Q42.05 0.55 40.45 0.65Q36.7 1.1 31.9 0.6" />
<path style="fill:#686562;fill-opacity:1" d="M70.45 8.35Q69.05 6.75 67.3 5.45Q68.95 4.85 70.45 4.05L70.45 8.35M64 6.35L64.45 6.25Q66.2 7.7 67.25 10L62 10L61.15 8.8Q59.75 7.95 56.8 7.2L54.1 6.65L64 6.35M26.45 6.6Q23.75 7.25 22.8 6.65L22.75 6.6L26.45 6.6" />
</g>
</svg>
