<?xml version="1.0" encoding="utf-8"?>
<svg version="1.1" id="Layer_1"
xmlns="http://www.w3.org/2000/svg"
xmlns:xlink="http://www.w3.org/1999/xlink"
width="40px" height="22px"
xml:space="preserve">
<g id="PathID_4536" transform="matrix(1, 0, 0, 1, 20.15, 0.55)">
<radialGradient
id="RadialGradID_1939" gradientUnits="userSpaceOnUse" gradientTransform="matrix(0.049408, 0.00209045, -0.00128174, 0.0192413, 1.35, 9.4)" spreadMethod ="pad" cx="0" cy="0" r="819.2" fx="0" fy="0" >
<stop  offset="0.329412"  style="stop-color:#FFFFFF;stop-opacity:1" />
<stop  offset="0.862745"  style="stop-color:#F985FF;stop-opacity:1" />
</radialGradient>
<path style="fill:url(#RadialGradID_1939) " d="M11.5 4.55L11.1 4.1L11 4L10.05 4.5Q9.65 4.5 9.6 4.3L9.6 3.9Q7.55 3.9 7.25 3.45L7.35 2.55Q5.6 4.25 4.95 4.25L4.25 4L4.15 3.45L3.4 3.9Q3 3.9 3 3.15L3.05 2.4L2.85 1.45Q2.65 0.7 2.25 0.75L2.35 3.4Q2.25 5.15 1.5 5.15L0.9 5L0.7 4.7L0.5 5.05Q0.5 5.25 0.1 5.25Q-2.4 3.75 -2.9 2.8L-3.1 3.15Q-3.25 3.35 -3.65 3.35Q-4.15 3.35 -4.85 2.75L-5.55 2L-5.95 2.55Q-6.25 2.9 -7.05 2.55L-7.45 3.85Q-7.75 4.65 -9.3 4.65L-9.95 4.35Q-10.15 4.05 -10.7 3.95L-11.1 4.4Q-11.5 4.8 -11.8 4.85L-11.35 5.2Q-10.35 6.1 -10.6 6.4L-11.55 6.5L-13 6.2L-12.35 7.15Q-12 7.65 -12.3 7.85L-12.9 8L-13.5 8L-13.7 8.4L-13.55 9.1L-13.6 9.15Q-13.4 9.95 -13.6 10.05L-14.75 10.3Q-14.15 10.75 -14.3 11.15L-14.4 11.35L-14.7 11.15L-15.35 10.6L-15.2 9.8L-14.8 9.75L-14.3 9.65L-14.2 8.8L-14.15 8.25L-14.6 7.35L-14.5 7.1L-14.35 7L-14 7.35L-13.9 7.6L-13.7 7.6L-13.1 7.45L-12.9 7.5L-13.5 6.45Q-13.7 6.1 -13.4 5.9Q-13.2 5.65 -12.7 5.75L-11.4 6.1L-11.3 6.1Q-12.75 5.05 -12.9 4.4L-12.9 4.3L-12.1 4.1L-12.15 4.35L-11.9 4.05L-11.95 4.05L-11.8 4L-11.6 3.8Q-10.9 3.25 -10.6 3.25L-10.55 3.2L-10.55 3.25L-8.35 3.75L-7.95 2.4Q-7.5 1.45 -7.1 1.45Q-6.75 1.45 -6.7 1.6L-6.55 1.85Q-6.3 1.2 -5.65 1.2Q-5.25 1.2 -4.55 1.85L-3.8 2.6L-3.6 2.05Q-3.4 1.65 -2.85 1.65Q-2.1 1.65 -1.8 3L-1 3.5L-0.05 4.2L1.2 4.05Q1.2 -0.05 2 -0.05Q3.65 -0.05 3.95 1.1L3.85 2.7L4.35 2.55Q4.85 2.55 4.95 2.85L5 3.3L5.05 3.4Q5.95 2.6 6.45 1.4L7.35 -0.55Q7.95 -0.05 8.05 1.1L8.25 3.2L8.7 3.25Q9.1 3.25 9.4 2.9Q9.6 2.5 10 2.5Q10.4 2.5 10.45 2.8L10.4 3.4L10.4 3.45Q10.8 3.3 11.4 3.45Q11.7 4.05 12.85 4.15Q13 4.45 12.65 4.7L12.05 5L12 5Q13.2 5.7 12.65 6.2L12.65 6.3L14.1 6.3Q14.3 6.55 14.1 6.7L13.1 7L13 7.05L13.8 7.5L13.55 7.9L13.3 8.5L13.25 8.35L13.25 8.55L13.2 8.8L13.25 8.95L13.25 9.85L13.65 11.55L13.6 11.7L13.2 12.1L12.85 11.65L12.45 9.25Q12.45 8.15 12.6 7.55L12.25 7.2Q12 7 12.25 6.7Q11.7 6.3 11.85 6.1L12.2 5.95L11.05 5.3L10.85 5.05L11 4.8L11.6 4.55L11.5 4.55M13.2 7.8L13.25 7.95L13.25 7.85L13.2 7.8M10.65 10.85L10.6 11.35Q10.25 11.7 9.85 11.5Q9.65 11.35 9.6 10.7L9.65 10.05L9.4 10.25L8.65 10.15Q7.45 9.35 6.95 6.2L6.45 7.05L5.25 7.95L5.95 8.35L6.45 9.95L7.2 10.3L7.95 10.25Q9.3 10.9 9.6 11.3L9.5 11.65Q9.05 12.05 7.65 11.1L7.6 11.2L6.25 11L5.8 10.4L5 10.5L4 11.1L3.35 11.6L2.8 11.65L2.25 11.6L-1.2 12.6Q-1.5 12.25 -1.8 12.45L-2.05 12.05Q-3.2 12.8 -6.15 12.95L-6.45 12.3L-6.5 12.3L-6.55 12.65L-6.85 12.95Q-7.1 13.25 -8.45 12.55Q-8.55 13.05 -9.3 13.05L-11.4 12.9L-11.35 13.45Q-11.15 13.8 -11.3 13.95L-12.75 13.9L-14.5 13.4Q-15 13.1 -14.7 12.75L-15.1 12.8L-15.2 12.45L-14.9 12.2L-14 12.15L-12.75 12.1L-12.55 11.65L-12.5 11.35L-13.2 11.45L-13.95 11.75L-14.15 11.65L-13.95 11.5Q-13.95 11.4 -13.6 11.25L-13.2 10.65Q-12.6 10.1 -11.9 10.35L-11.6 10.35L-11.2 10.15L-10.55 9.95L-10.1 9.2Q-8.85 8.35 -8.15 8.85L-7.55 8.6L-6.7 7.85L-6.5 7.7L-6.55 7.65L-6.1 7.5L-5.65 6.45Q-5.7 5.6 -5.35 5.3Q-4.85 4.85 -4.05 5.75L-3.85 4.85Q-3.5 4.6 -3.2 4.85L-2.4 6.15L-1.8 7.35L-1.5 7.2L-1.4 7.05L-1.3 7.05L-0.6 7.3L0 8L0.6 7.75Q1 7.45 1.4 7.75L1.9 8.25L2.15 8.8L2.65 8.6L2.65 8.5L2.8 8.5Q4 7.9 4.65 7.2L4.8 7L5.55 6.35Q6.55 5.65 6.65 5.1L7.35 4.8L7.6 5L7.85 5.2L8.15 5.7L8.15 5.8L8.05 6.05Q8 6.5 8.25 6.85L8.3 7.95L8.9 7.8Q9.25 8 9.2 8.4L9.1 8.85L9.2 8.9L9.65 8.45L9.9 8.5Q10 8.9 10.25 9.3L10.65 10.85M19.15 7.5L19.1 7.5L19.15 7.45L19.15 7.5M3.45 9Q2 9.7 1.5 9.3Q0.9 8.85 0.95 8.5L0.4 9Q0 9.2 -1 8.25L-1.5 8.55L-2 8.4L-2.1 8.4L-2.6 7.75L-2.65 7.7L-3.2 6.8L-3.9 6.95L-4.55 6.55L-4.65 6.7Q-4.45 7.5 -4.65 8.1L-5.35 8.55L-5.55 8.85L-5.75 8.75L-6.05 8.7L-6.55 9.45L-6.95 9.65L-7.35 9.65L-7.65 9.55L-7.75 9.75L-8.65 9.9L-8.9 9.7L-9.3 10L-8.75 10L-9.15 10.1Q-9.65 10.45 -9.5 10.85L-10.05 10.95L-11.95 11.3L-12.1 11.9L-12 12.2L-11.5 12.25L-9.65 12.35L-8.95 11.85L-7.35 12.1L-7.05 11.6L-6.7 11.35L-6.55 11.35L-6.25 11.25L-6.05 11.45Q-5.55 11.75 -5.55 11.95Q-4.55 12.15 -4 11.25L-3.2 11.85Q-2.1 10.9 -1.65 11.15L-1.2 11.7L-0.4 11.1L0.5 11L0.5 11.15L0.55 11.05L1.15 10.5Q1.6 10.65 1.7 10.95L2.25 10.6Q2.65 10.2 3.15 10.7Q4 10 4.55 9.8L5.55 9.75L5.4 8.75L4.95 8.4L4 8.85L3.45 9M8.45 14.95L7.55 15.1L7.45 15.15L7.35 15.1L7.25 15.05L5.45 14.75L5.75 14.5Q5.05 14.2 4.2 14.5L4.05 14.1L3.65 14.35L3.6 14.4L3.4 14.35L3.25 14.25L2.85 14.85Q2.8 15 2.6 14.95L2.4 15L2.4 15.4L2.15 16.05L0.55 15.05L0.6 15Q0.2 14.6 -0.2 14.75L-1.05 14.8L-1.3 14.1L-1.65 13.95L-1.7 14.1L-2.05 14.45L-2.25 14.4L-2.65 13.9Q-2.65 13.6 -2.9 13.4L-3.5 13.05L-3.6 13.1L-3.3 14.2L-3.2 14.5L-2.8 14.6L-2.7 14.6L-2.85 14.7L-4.45 15L-3.85 14.75L-3.6 14.6L-3.65 14.15Q-4.05 13.15 -3.9 12.95L-3.2 12.8L-2.6 13.25L-2.1 14.1L-2.05 13.95L-1.5 13.6L-1.05 13.95L-0.85 14.55L0 14.5Q0.5 14.35 0.8 14.85L2 15.6L1.9 15.25L1.8 15.35L1.8 15.3L1.9 15.25L2.15 14.8L2.55 14.75L2.75 14.6L2.85 14.45L2.95 14.2L3.65 13.95L3.85 13.75L4.25 13.85L4.35 13.9L4.4 14.1L5.05 13.8L6.35 14.75L6.75 14.85L6.8 14.8L6.75 14.75L9 14.15L10.4 13.7L9.2 14.65L8.45 14.95M18.25 16.4L18.3 16.35L18.3 16.4L18.25 16.4M-19.8 8.55L-19.8 8.6L-19.85 8.8L-20.15 8.65L-20 8.65L-19.8 8.55M-12.3 12.55L-12.35 12.6L-13.55 12.65L-12.2 13.3L-12.3 12.55" />
<radialGradient
id="RadialGradID_1940" gradientUnits="userSpaceOnUse" gradientTransform="matrix(0.0871429, 0.00209045, -0.0022583, 0.0192413, 5.95, 9.4)" spreadMethod ="pad" cx="0" cy="0" r="819.2" fx="0" fy="0" >
<stop  offset="0.329412"  style="stop-color:#FFFFFF;stop-opacity:1" />
<stop  offset="0.862745"  style="stop-color:#F985FF;stop-opacity:1" />
</radialGradient>
<path style="fill:url(#RadialGradID_1940) " d="M-10.75 14.8Q-10.3 14.6 -9.6 14.8L-8.7 15.45L-8.25 14.95L-7.85 14.85L-6.6 14.15L-5.55 14.7L-4.65 14.9Q-5.8 14.85 -6.6 14.35L-6.85 14.65L-8.65 15.55L-8.9 15.5L-9.05 15.6L-10.5 16L-10.85 15.95L-12.6 15.9L-12.5 16.3L-12.85 16.3L-13.1 16.05L-13.3 15.9L-13.5 15.95L-13.9 15.95L-14.35 15.95L-15.85 15.4L-15.85 15.35L-14.25 15.3L-11.55 15.15L-10.75 14.8M-10.75 15.7L-12.5 15.55L-12.6 15.8L-10.75 15.7" />
</g>
<g id="PathID_4537" transform="matrix(1, 0, 0, 1, 20.15, 0.55)">
<path style="fill:#2C2A2A;fill-opacity:1" d="M-16.05 11.45L-10.8 18.9Q-10.3 21.05 -11.9 20.45L-17.8 13.75Q-16.6 13.25 -16.05 11.45" />
<path style="fill:none;stroke-width:0.7;stroke-linecap:round;stroke-linejoin:round;stroke-miterlimit:3;stroke:#000000;stroke-opacity:0.4" d="M-16.05 11.45L-10.8 18.9Q-10.3 21.05 -11.9 20.45L-17.8 13.75" />
</g>
<g id="PathID_4538" transform="matrix(1, 0, 0, 1, 20.15, 0.55)">
<radialGradient
id="RadialGradID_1941" gradientUnits="userSpaceOnUse" gradientTransform="matrix(0.00230408, 0.00567627, 0.00567627, -0.00230408, -20.1, 12.35)" spreadMethod ="pad" cx="0" cy="0" r="819.2" fx="0" fy="0" >
<stop  offset="0"  style="stop-color:#E5E5E5;stop-opacity:1" />
<stop  offset="0.960784"  style="stop-color:#636363;stop-opacity:1" />
</radialGradient>
<path style="fill:url(#RadialGradID_1941) " d="M-16.6 10.3Q-14.05 11.55 -14.5 13.75Q-14.75 14.95 -15.55 15.55L-17.85 16.15Q-18.75 15.6 -19.05 14.65Q-19.6 13.4 -19.05 12.25Q-18.6 11 -17.35 10.5L-16.6 10.3" />
<path style="fill:#2C2A2A;fill-opacity:1" d="M-15.55 15.55Q-14.75 14.95 -14.5 13.75Q-14.05 11.55 -16.6 10.3L-14.95 10.55Q-13.7 11 -13.25 12.25Q-12.75 13.45 -13.25 14.65Q-13.85 15.95 -14.9 16.3L-14.95 16.3L-17.4 16.4L-17.85 16.15L-15.55 15.55" />
<path style="fill:none;stroke-width:0.7;stroke-linecap:round;stroke-linejoin:round;stroke-miterlimit:3;stroke:#000000;stroke-opacity:0.4" d="M-17.85 16.15L-17.4 16.4L-14.95 16.3L-14.9 16.3Q-13.85 15.95 -13.25 14.65Q-12.75 13.45 -13.25 12.25Q-13.7 11 -14.95 10.55L-16.6 10.3" />
<path style="fill:none;stroke-width:0.7;stroke-linecap:round;stroke-linejoin:round;stroke-miterlimit:3;stroke:#000000;stroke-opacity:0.4" d="M-17.85 16.15Q-18.75 15.6 -19.05 14.65Q-19.6 13.4 -19.05 12.25Q-18.6 11 -17.35 10.5L-16.6 10.3" />
</g>
<g id="PathID_4539" transform="matrix(1, 0, 0, 1, 20.15, 0.55)">
<path style="fill:#2C2A2A;fill-opacity:1" d="M13.85 13.75L7.95 20.45Q6.35 21.05 6.85 18.9L12.1 11.45Q12.65 13.25 13.85 13.75" />
<path style="fill:none;stroke-width:0.7;stroke-linecap:round;stroke-linejoin:round;stroke-miterlimit:3;stroke:#000000;stroke-opacity:0.4" d="M12.1 11.45L6.85 18.9Q6.35 21.05 7.95 20.45L13.85 13.75" />
</g>
<g id="PathID_4540" transform="matrix(1, 0, 0, 1, 20.15, 0.55)">
<radialGradient
id="RadialGradID_1942" gradientUnits="userSpaceOnUse" gradientTransform="matrix(-0.00230408, 0.00567627, -0.00567627, -0.00230408, 16.15, 12.35)" spreadMethod ="pad" cx="0" cy="0" r="819.2" fx="0" fy="0" >
<stop  offset="0"  style="stop-color:#E5E5E5;stop-opacity:1" />
<stop  offset="0.960784"  style="stop-color:#636363;stop-opacity:1" />
</radialGradient>
<path style="fill:url(#RadialGradID_1942) " d="M12.65 10.3L13.4 10.5Q14.65 11 15.1 12.25Q15.65 13.4 15.1 14.65Q14.8 15.6 13.9 16.15L11.6 15.55Q10.8 14.95 10.55 13.75Q10.1 11.55 12.65 10.3" />
<path style="fill:#2C2A2A;fill-opacity:1" d="M10.55 13.75Q10.8 14.95 11.6 15.55L13.9 16.15L13.45 16.4L11 16.3L10.95 16.3Q9.9 15.95 9.3 14.65Q8.8 13.45 9.3 12.25Q9.75 11 11 10.55Q11.85 10.15 12.65 10.3Q10.1 11.55 10.55 13.75" />
<path style="fill:none;stroke-width:0.7;stroke-linecap:round;stroke-linejoin:round;stroke-miterlimit:3;stroke:#000000;stroke-opacity:0.4" d="M13.9 16.15L13.45 16.4L11 16.3L10.95 16.3Q9.9 15.95 9.3 14.65Q8.8 13.45 9.3 12.25Q9.75 11 11 10.55Q11.85 10.15 12.65 10.3L13.4 10.5Q14.65 11 15.1 12.25Q15.65 13.4 15.1 14.65Q14.8 15.6 13.9 16.15z" />
</g>
</svg>
