<?xml version="1.0" encoding="utf-8"?>
<svg version="1.1" id="Layer_1"
xmlns="http://www.w3.org/2000/svg"
xmlns:xlink="http://www.w3.org/1999/xlink"
width="20px" height="9px"
xml:space="preserve">
<g id="PathID_4037" transform="matrix(1, 0, 0, 1, 0, 0)">
<path style="fill:#808080;fill-opacity:1" d="M19.8 0.6L14.6 3.85L14.85 4.05Q15.4 4.6 14.4 6.65Q13.35 8.6 12.15 8.5Q10.95 8.45 9.75 7Q8.55 8.45 7.4 8.45Q6.15 8.5 5.05 6.7L4.7 5.5Q4.4 4.25 4.65 4.05L4.9 3.85L0 0.55L0.35 0L9.8 6.1L19.45 0.05L19.8 0.6M12.05 7.8Q13 7.8 13.85 6.45L13.85 6.4Q14.55 4.8 14.2 4.45Q13.85 4.1 10.2 6.55Q11.2 7.75 12.05 7.8M5.1 4.4Q4.9 4.8 5.6 6.4L5.6 6.35Q6.45 7.8 7.4 7.8Q8.25 7.75 9.3 6.5L6.8 4.95Q5.25 4 5.1 4.4" />
</g>
</svg>
