<?xml version="1.0" encoding="utf-8"?>
<svg version="1.1" id="Layer_1"
xmlns="http://www.w3.org/2000/svg"
xmlns:xlink="http://www.w3.org/1999/xlink"
width="54px" height="7px"
xml:space="preserve">
<g id="PathID_2941" transform="matrix(1, 0, 0, 1, 0, 0)">
<path style="fill:#808080;fill-opacity:1" d="M42.05 3.25Q42.05 1.9 43.65 0.95Q45.25 0 47.55 0Q49.85 0 51.45 0.95Q53.05 1.9 53.05 3.25Q53.05 4.65 51.45 5.6Q49.85 6.55 47.55 6.55Q45.25 6.55 43.65 5.6Q42.05 4.65 42.05 3.25M9.4 5.6Q7.8 6.55 5.5 6.55Q3.2 6.55 1.6 5.6Q0 4.65 0 3.25Q0 1.9 1.6 0.95Q3.2 0 5.5 0Q7.8 0 9.4 0.95Q11 1.9 11 3.25Q11 4.65 9.4 5.6" />
</g>
</svg>
