<?xml version="1.0" encoding="utf-8"?>
<svg version="1.1" id="Layer_1"
xmlns="http://www.w3.org/2000/svg"
xmlns:xlink="http://www.w3.org/1999/xlink"
width="45px" height="30px"
xml:space="preserve">
<g id="PathID_3636" transform="matrix(1, 0, 0, 1, 0.2, 0.2)">
<path style="fill:#888888;fill-opacity:1" d="M41.85 20.7L36.1 17.9L42.1 16.45L42.3 17.1L43.8 21.65L41.85 20.7M37.75 10.8L40.2 9.65L40.75 11.8L37.75 10.8M23.3 21.55L20.6 17.9L23.7 13.85L26.95 19.05L34.15 14.75L34.15 20.1L26.95 19.05L23.3 21.55M12.85 20.2L17.75 22.65L17.85 15.7L20.6 17.9L20.6 19.6L12.85 20.2M11.45 16.9L5.55 19.75L5.55 14.3L11.45 16.9M17.75 22.65L14.75 26.6L12.85 23.1L12.85 20.2" />
<path style="fill:#949494;fill-opacity:1" d="M41.85 20.7L43.8 21.65L43.95 22.2L42.25 26.25L41.85 20.7" />
<path style="fill:#8D8D8D;fill-opacity:1" d="M40.75 11.8L42.3 11L42.3 16.4L42.1 16.45L36.1 17.9L40.75 11.8" />
<path style="fill:#969696;fill-opacity:1" d="M37.95 24.75L42.25 26.25L41.55 27.9L38 29.15L37.95 24.75M12.85 20.2L20.6 19.6L17.75 22.65L12.85 20.2M26.95 19.05L23.7 13.85L34.15 14.75L26.95 19.05M37.75 10.8L27.65 10L25.3 8.25L29.45 4.95L37.75 10.8" />
<path style="fill:#7B7B7B;fill-opacity:1" d="M41.85 20.7L42.25 26.25L37.95 24.75L41.85 20.7M23.3 21.55L26.95 19.05L29.05 22.85L23.3 21.55M36.1 17.9L34.15 14.75L37.75 10.8L36.1 17.9" />
<path style="fill:#797979;fill-opacity:1" d="M17.75 22.65L22.65 29.15L14.35 29.15L14.75 26.6L17.75 22.65M33.5 2.8L32.95 1L36.3 1.65L36.05 4.2L33.5 2.8M17.85 15.7L11.75 9.35L19.5 10.3L17.85 15.7" />
<path style="fill:#626262;fill-opacity:1" d="M29.45 4.95L33.5 2.8L36.05 4.2L35.95 4.95L29.45 4.95M17.75 5.8L11.75 9.35L9 6.2L17.75 5.8" />
<path style="fill:#B2B2B2;fill-opacity:1" d="M25.3 8.25L24.85 9.95L19.5 10.3L22.65 3.1L24.2 3.1L25.3 8.25M27.95 0L32.95 1L33.5 2.8L27.95 0M34.15 20.1L34.25 20.2L31.8 26.35L29.05 22.85L26.95 19.05L34.15 20.1M37.75 10.8L40.75 11.8L36.1 17.9L37.75 10.8M5.55 19.75L0.55 18.45L3.5 16.2L5.55 14.3L5.55 19.75" />
<path style="fill:#6C6C6C;fill-opacity:1" d="M29.45 4.95L35.95 4.95L35.75 6.75L39.6 7.5L40.2 9.65L37.75 10.8L29.45 4.95" />
<path style="fill:#777777;fill-opacity:1" d="M26.85 29.15L22.65 29.15L21.75 23.4L26.85 29.15M33.5 2.8L29.45 4.95L27.4 0.85L27.95 0L33.5 2.8" />
<path style="fill:#848484;fill-opacity:1" d="M31.85 26.4L38 29.15L27.95 29.15L31.85 26.4M25.8 3.1L27.4 0.85L29.45 4.95L25.8 3.1M27.65 10L34.15 14.75L23.7 13.85L24.85 9.95L25.3 8.25L27.65 10" />
<path style="fill:#6D6D6D;fill-opacity:1" d="M25.3 8.25L24.2 3.1L25.8 3.1L29.45 4.95L25.3 8.25" />
<path style="fill:#747474;fill-opacity:1" d="M19.5 10.3L17.75 5.8L21.15 3.1L22.65 3.1L19.5 10.3M12.85 20.2L12.85 23.1L5.55 19.75L11.45 16.9L12.85 20.2" />
<path style="fill:#8F8F8F;fill-opacity:1" d="M20.6 17.9L23.3 21.55L20.6 19.6L20.6 17.9" />
<path style="fill:#828282;fill-opacity:1" d="M21.75 23.4L22.65 29.15L17.75 22.65L20.6 19.6L23.3 21.55L27.95 29.15L26.85 29.15L21.75 23.4" />
<path style="fill:#838383;fill-opacity:1" d="M9 6.2L8.8 4.85L10.2 2.5L13.9 3.15L17 0.15L17.75 5.8L9 6.2M23.7 13.85L20.6 17.9L17.85 15.7L19.5 10.3L23.7 13.85M11.45 16.9L5.55 14.3L10.05 11.55L11.45 16.9" />
<path style="fill:#5D5D5D;fill-opacity:1" d="M9.85 26.75L14.75 26.6L14.35 29.15L8.15 29.15L9.85 26.75M29.05 22.85L31.8 26.35L31.85 26.4L27.95 29.15L23.3 21.55L29.05 22.85M17.85 15.7L11.45 16.9L10.05 11.55L11.75 9.35L17.85 15.7" />
<path style="fill:#808080;fill-opacity:1" d="M37.95 24.75L34.25 20.2L34.15 20.1L34.15 14.75L36.1 17.9L41.85 20.7L37.95 24.75M37.75 10.8L34.15 14.75L27.65 10L37.75 10.8" />
<path style="fill:#898989;fill-opacity:1" d="M19.5 10.3L24.85 9.95L23.7 13.85L19.5 10.3" />
<path style="fill:#727272;fill-opacity:1" d="M11.75 9.35L17.75 5.8L19.5 10.3L11.75 9.35" />
<path style="fill:#7C7C7C;fill-opacity:1" d="M2.75 23.65L9.85 26.75L5.55 19.75L8.15 29.15L6.35 28.65L2.75 23.65M5.55 19.75L2.75 23.65L0.55 18.45L0 15.9L1.2 14.6L3.5 16.2L3.9 12.8L5.55 14.3L3.5 16.2L0.55 18.45L5.55 19.75L12.85 23.1L14.75 26.6L9.85 26.75M17.75 5.8L17 0.15L21.15 3.1L17.75 5.8" />
<path style="fill:#9E9E9E;fill-opacity:1" d="M5.55 14.3L3.9 12.8L4.25 9.35L6.45 10.1L9.5 9.4L10.05 11.55L5.55 14.3" />
<path style="fill:#6A6A6A;fill-opacity:1" d="M11.75 9.35L10.05 11.55L9.5 9.4L9 6.2L11.75 9.35" />
<path style="fill:#818181;fill-opacity:1" d="M9.85 26.75L2.75 23.65L5.55 19.75L9.85 26.75" />
<path style="fill:#6F6F6F;fill-opacity:1" d="M11.45 16.9L17.85 15.7L12.85 20.2L11.45 16.9" />
<path style="fill:#666666;fill-opacity:1" d="M6.35 28.65L4.6 28.1L2.75 25.7L2.75 23.65L6.35 28.65" />
<path style="fill:#8C8C8C;fill-opacity:1" d="M31.8 26.35L34.25 20.2L37.95 24.75L38 29.15L31.85 26.4L31.8 26.35" />
<path style="fill:none;stroke-width:0.7;stroke-linecap:round;stroke-linejoin:round;stroke-miterlimit:3;stroke:#000000;stroke-opacity:0.501961" d="M43.8 21.65L42.3 17.1" />
<path style="fill:none;stroke-width:0.7;stroke-linecap:round;stroke-linejoin:round;stroke-miterlimit:3;stroke:#000000;stroke-opacity:0.501961" d="M43.8 21.65L43.95 22.2L42.25 26.25L41.55 27.9L38 29.15L27.95 29.15L26.85 29.15L22.65 29.15L14.35 29.15L8.15 29.15L6.35 28.65L4.6 28.1L2.75 25.7L2.75 23.65L0.55 18.45L0 15.9L1.2 14.6L3.5 16.2L3.9 12.8L4.25 9.35L6.45 10.1L9.5 9.4L9 6.2L8.8 4.85L10.2 2.5L13.9 3.15L17 0.15L21.15 3.1L22.65 3.1L24.2 3.1L25.8 3.1L27.4 0.85L27.95 0L32.95 1L36.3 1.65L36.05 4.2L35.95 4.95L35.75 6.75L39.6 7.5L40.2 9.65L40.75 11.8L42.3 11L42.3 16.4L42.3 17.1" />
</g>
</svg>
