<?xml version="1.0" encoding="utf-8"?>
<svg version="1.1" id="Layer_1"
xmlns="http://www.w3.org/2000/svg"
xmlns:xlink="http://www.w3.org/1999/xlink"
width="24px" height="33px"
xml:space="preserve">
<g id="PathID_4146" transform="matrix(1, 0, 0, 1, 15.95, 17.55)">
<linearGradient
id="LinearGradID_1788" gradientUnits="userSpaceOnUse" gradientTransform="matrix(-0.00263977, -0.0014801, -0.00379944, 0.00675964, -12.65, 4.3)" spreadMethod ="pad" x1="-819.2" y1="0" x2="819.2" y2="0" >
<stop  offset="0" style="stop-color:#FFFFFF;stop-opacity:0.4" />
<stop  offset="1" style="stop-color:#FFFFFF;stop-opacity:0.8" />
</linearGradient>
<path style="fill:url(#LinearGradID_1788) " d="M-10.25 4.9Q-10.2 6.05 -11.3 6.7Q-13.05 7.8 -14.2 6.9Q-14.5 8.25 -14.15 9.9L-14.1 10.2L-15.05 8.25Q-15.75 5.7 -14.45 3.4Q-13.2 1.15 -10.65 0.45L-8.2 0.25Q-9.55 0.5 -10.7 1.2L-12.3 2.3L-11.9 2.4Q-10.25 3 -10.25 4.9" />
</g>
<g id="PathID_4147" transform="matrix(1, 0, 0, 1, 15.95, 17.55)">
<path style="fill:#FFFFFF;fill-opacity:0.501961" d="M7.05 -7.35Q8 -2 5.2 3.85Q3.8 7 1.95 8.9Q0.1 10.85 -1.95 11.3L-1.35 11.6Q-0.3 12.15 0.15 12.9Q0.8 14.1 0.6 14.75Q0.45 15.35 -0.6 15.1Q-2.55 14.65 -2.9 13.2L-3.3 11.4Q-5.25 11.25 -7.3 10Q-9.5 8.5 -11.6 5.75Q-15.6 0.7 -15.95 -4.75Q-16.2 -9.75 -13.5 -13.2Q-10.55 -16.9 -5.85 -17.45Q-0.95 -18 2.8 -15.1Q6.2 -12.35 7.05 -7.35" />
</g>
</svg>
