<?xml version="1.0" encoding="utf-8"?>
<svg version="1.1" id="Layer_1"
xmlns="http://www.w3.org/2000/svg"
xmlns:xlink="http://www.w3.org/1999/xlink"
width="197px" height="11px"
xml:space="preserve">
<g id="PathID_3543" transform="matrix(1, 0, 0, 1, 0.15, 0.15)">
<path style="fill:#808080;fill-opacity:1" d="M183.85 7.3L182.2 7.3L180.3 7.3L180.3 0L183.85 0L183.85 7.3M189.15 7.3L187.6 7.3L187.6 0L191.15 0L191.15 7.3L189.15 7.3M176.75 0L176.75 7.3L175.2 7.3L173.15 7.3L173.15 0L176.75 0M162.8 7.3L161.35 7.3L159.2 7.3L159.2 0L162.8 0L162.8 7.3M155.85 0L155.85 7.3L153.95 7.3L152.3 7.3L152.3 0L155.85 0M141.95 7.3L139.95 7.3L138.4 7.3L138.4 0L141.95 0L141.95 7.3M133 7.3L131.1 7.3L131.1 0L134.65 0L134.65 7.3L133 7.3M127.55 0L127.55 7.3L126 7.3L123.95 7.3L123.95 0L127.55 0M113.6 7.3L112.15 7.3L110 7.3L110 0L113.6 0L113.6 7.3M106.65 0L106.65 7.3L104.75 7.3L103.1 7.3L103.1 0L106.65 0M92.95 7.3L90.95 7.3L89.4 7.3L89.4 0L92.95 0L92.95 7.3M85.65 0L85.65 7.3L84 7.3L82.1 7.3L82.1 0L85.65 0M78.55 0L78.55 7.3L77 7.3L74.95 7.3L74.95 0L78.55 0M64.6 0L64.6 7.3L63.15 7.3L61 7.3L61 0L64.6 0M57.65 0L57.65 7.3L55.75 7.3L54.1 7.3L54.1 0L57.65 0M41.95 7.3L40.4 7.3L40.4 0L43.95 0L43.95 7.3L41.95 7.3M36.65 0L36.65 7.3L35 7.3L33.1 7.3L33.1 0L36.65 0M29.55 0L29.55 7.3L28 7.3L25.95 7.3L25.95 0L29.55 0M15.6 0L15.6 7.3L14.15 7.3L12 7.3L12 0L15.6 0M8.65 0L8.65 7.3L6.75 7.3L5.1 7.3L5.1 0L8.65 0" />
<path style="fill:none;stroke-width:0.7;stroke-linecap:round;stroke-linejoin:round;stroke-miterlimit:3;stroke:#000000;stroke-opacity:0.501961" d="M183.85 0L180.3 0L180.3 7.3L182.2 7.3L183.85 7.3L183.85 0z" />
<path style="fill:none;stroke-width:0.7;stroke-linecap:round;stroke-linejoin:round;stroke-miterlimit:3;stroke:#000000;stroke-opacity:0.501961" d="M196.1 0L196.1 10.4" />
<path style="fill:none;stroke-width:0.7;stroke-linecap:round;stroke-linejoin:round;stroke-miterlimit:3;stroke:#000000;stroke-opacity:0.501961" d="M189.15 7.3L189.15 10.4" />
<path style="fill:none;stroke-width:0.7;stroke-linecap:round;stroke-linejoin:round;stroke-miterlimit:3;stroke:#000000;stroke-opacity:0.501961" d="M189.15 7.3L187.6 7.3L187.6 0L191.15 0L191.15 7.3L189.15 7.3z" />
<path style="fill:none;stroke-width:0.7;stroke-linecap:round;stroke-linejoin:round;stroke-miterlimit:3;stroke:#000000;stroke-opacity:0.501961" d="M173.15 0L173.15 7.3L175.2 7.3L176.75 7.3L176.75 0L173.15 0z" />
<path style="fill:none;stroke-width:0.7;stroke-linecap:round;stroke-linejoin:round;stroke-miterlimit:3;stroke:#000000;stroke-opacity:0.501961" d="M175.2 10.4L175.2 7.3" />
<path style="fill:none;stroke-width:0.7;stroke-linecap:round;stroke-linejoin:round;stroke-miterlimit:3;stroke:#000000;stroke-opacity:0.501961" d="M182.2 10.4L182.2 7.3" />
<path style="fill:none;stroke-width:0.7;stroke-linecap:round;stroke-linejoin:round;stroke-miterlimit:3;stroke:#000000;stroke-opacity:0.501961" d="M162.8 0L159.2 0L159.2 7.3L161.35 7.3L162.8 7.3L162.8 0z" />
<path style="fill:none;stroke-width:0.7;stroke-linecap:round;stroke-linejoin:round;stroke-miterlimit:3;stroke:#000000;stroke-opacity:0.501961" d="M168.15 10.4L168.15 0" />
<path style="fill:none;stroke-width:0.7;stroke-linecap:round;stroke-linejoin:round;stroke-miterlimit:3;stroke:#000000;stroke-opacity:0.501961" d="M152.3 0L152.3 7.3L153.95 7.3L155.85 7.3L155.85 0L152.3 0z" />
<path style="fill:none;stroke-width:0.7;stroke-linecap:round;stroke-linejoin:round;stroke-miterlimit:3;stroke:#000000;stroke-opacity:0.501961" d="M153.95 7.3L153.95 10.4" />
<path style="fill:none;stroke-width:0.7;stroke-linecap:round;stroke-linejoin:round;stroke-miterlimit:3;stroke:#000000;stroke-opacity:0.501961" d="M161.35 10.4L161.35 7.3" />
<path style="fill:none;stroke-width:0.7;stroke-linecap:round;stroke-linejoin:round;stroke-miterlimit:3;stroke:#000000;stroke-opacity:0.501961" d="M141.95 0L138.4 0L138.4 7.3L139.95 7.3L141.95 7.3L141.95 0z" />
<path style="fill:none;stroke-width:0.7;stroke-linecap:round;stroke-linejoin:round;stroke-miterlimit:3;stroke:#000000;stroke-opacity:0.501961" d="M147.2 10.4L147.2 0" />
<path style="fill:none;stroke-width:0.7;stroke-linecap:round;stroke-linejoin:round;stroke-miterlimit:3;stroke:#000000;stroke-opacity:0.501961" d="M146.9 0L146.9 10.4" />
<path style="fill:none;stroke-width:0.7;stroke-linecap:round;stroke-linejoin:round;stroke-miterlimit:3;stroke:#000000;stroke-opacity:0.501961" d="M139.95 10.4L139.95 7.3" />
<path style="fill:none;stroke-width:0.7;stroke-linecap:round;stroke-linejoin:round;stroke-miterlimit:3;stroke:#000000;stroke-opacity:0.501961" d="M133 10.4L133 7.3L131.1 7.3L131.1 0L134.65 0L134.65 7.3L133 7.3" />
<path style="fill:none;stroke-width:0.7;stroke-linecap:round;stroke-linejoin:round;stroke-miterlimit:3;stroke:#000000;stroke-opacity:0.501961" d="M123.95 0L123.95 7.3L126 7.3L127.55 7.3L127.55 0L123.95 0z" />
<path style="fill:none;stroke-width:0.7;stroke-linecap:round;stroke-linejoin:round;stroke-miterlimit:3;stroke:#000000;stroke-opacity:0.501961" d="M126 10.4L126 7.3" />
<path style="fill:none;stroke-width:0.7;stroke-linecap:round;stroke-linejoin:round;stroke-miterlimit:3;stroke:#000000;stroke-opacity:0.501961" d="M113.6 0L110 0L110 7.3L112.15 7.3L113.6 7.3L113.6 0z" />
<path style="fill:none;stroke-width:0.7;stroke-linecap:round;stroke-linejoin:round;stroke-miterlimit:3;stroke:#000000;stroke-opacity:0.501961" d="M118.95 10.4L118.95 0" />
<path style="fill:none;stroke-width:0.7;stroke-linecap:round;stroke-linejoin:round;stroke-miterlimit:3;stroke:#000000;stroke-opacity:0.501961" d="M112.15 10.4L112.15 7.3" />
<path style="fill:none;stroke-width:0.7;stroke-linecap:round;stroke-linejoin:round;stroke-miterlimit:3;stroke:#000000;stroke-opacity:0.501961" d="M103.1 0L103.1 7.3L104.75 7.3L106.65 7.3L106.65 0L103.1 0z" />
<path style="fill:none;stroke-width:0.7;stroke-linecap:round;stroke-linejoin:round;stroke-miterlimit:3;stroke:#000000;stroke-opacity:0.501961" d="M104.75 7.3L104.75 10.4" />
<path style="fill:none;stroke-width:0.7;stroke-linecap:round;stroke-linejoin:round;stroke-miterlimit:3;stroke:#000000;stroke-opacity:0.501961" d="M92.95 0L89.4 0L89.4 7.3L90.95 7.3L92.95 7.3L92.95 0z" />
<path style="fill:none;stroke-width:0.7;stroke-linecap:round;stroke-linejoin:round;stroke-miterlimit:3;stroke:#000000;stroke-opacity:0.501961" d="M98 0L98 10.4" />
<path style="fill:none;stroke-width:0.7;stroke-linecap:round;stroke-linejoin:round;stroke-miterlimit:3;stroke:#000000;stroke-opacity:0.501961" d="M82.1 0L82.1 7.3L84 7.3L85.65 7.3L85.65 0L82.1 0z" />
<path style="fill:none;stroke-width:0.7;stroke-linecap:round;stroke-linejoin:round;stroke-miterlimit:3;stroke:#000000;stroke-opacity:0.501961" d="M84 10.4L84 7.3" />
<path style="fill:none;stroke-width:0.7;stroke-linecap:round;stroke-linejoin:round;stroke-miterlimit:3;stroke:#000000;stroke-opacity:0.501961" d="M90.95 10.4L90.95 7.3" />
<path style="fill:none;stroke-width:0.7;stroke-linecap:round;stroke-linejoin:round;stroke-miterlimit:3;stroke:#000000;stroke-opacity:0.501961" d="M74.95 0L74.95 7.3L77 7.3L78.55 7.3L78.55 0L74.95 0z" />
<path style="fill:none;stroke-width:0.7;stroke-linecap:round;stroke-linejoin:round;stroke-miterlimit:3;stroke:#000000;stroke-opacity:0.501961" d="M77 10.4L77 7.3" />
<path style="fill:none;stroke-width:0.7;stroke-linecap:round;stroke-linejoin:round;stroke-miterlimit:3;stroke:#000000;stroke-opacity:0.501961" d="M61 0L61 7.3L63.15 7.3L64.6 7.3L64.6 0L61 0z" />
<path style="fill:none;stroke-width:0.7;stroke-linecap:round;stroke-linejoin:round;stroke-miterlimit:3;stroke:#000000;stroke-opacity:0.501961" d="M69.95 10.4L69.95 0" />
<path style="fill:none;stroke-width:0.7;stroke-linecap:round;stroke-linejoin:round;stroke-miterlimit:3;stroke:#000000;stroke-opacity:0.501961" d="M63.15 10.4L63.15 7.3" />
<path style="fill:none;stroke-width:0.7;stroke-linecap:round;stroke-linejoin:round;stroke-miterlimit:3;stroke:#000000;stroke-opacity:0.501961" d="M54.1 0L54.1 7.3L55.75 7.3L57.65 7.3L57.65 0L54.1 0z" />
<path style="fill:none;stroke-width:0.7;stroke-linecap:round;stroke-linejoin:round;stroke-miterlimit:3;stroke:#000000;stroke-opacity:0.501961" d="M55.75 7.3L55.75 10.4" />
<path style="fill:none;stroke-width:0.7;stroke-linecap:round;stroke-linejoin:round;stroke-miterlimit:3;stroke:#000000;stroke-opacity:0.501961" d="M41.95 7.3L40.4 7.3L40.4 0L43.95 0L43.95 7.3L41.95 7.3L41.95 10.4" />
<path style="fill:none;stroke-width:0.7;stroke-linecap:round;stroke-linejoin:round;stroke-miterlimit:3;stroke:#000000;stroke-opacity:0.501961" d="M49 0L49 10.4" />
<path style="fill:none;stroke-width:0.7;stroke-linecap:round;stroke-linejoin:round;stroke-miterlimit:3;stroke:#000000;stroke-opacity:0.501961" d="M33.1 0L33.1 7.3L35 7.3L36.65 7.3L36.65 0L33.1 0z" />
<path style="fill:none;stroke-width:0.7;stroke-linecap:round;stroke-linejoin:round;stroke-miterlimit:3;stroke:#000000;stroke-opacity:0.501961" d="M35 10.4L35 7.3" />
<path style="fill:none;stroke-width:0.7;stroke-linecap:round;stroke-linejoin:round;stroke-miterlimit:3;stroke:#000000;stroke-opacity:0.501961" d="M25.95 0L25.95 7.3L28 7.3L29.55 7.3L29.55 0L25.95 0z" />
<path style="fill:none;stroke-width:0.7;stroke-linecap:round;stroke-linejoin:round;stroke-miterlimit:3;stroke:#000000;stroke-opacity:0.501961" d="M28 10.4L28 7.3" />
<path style="fill:none;stroke-width:0.7;stroke-linecap:round;stroke-linejoin:round;stroke-miterlimit:3;stroke:#000000;stroke-opacity:0.501961" d="M20.95 10.4L20.95 0" />
<path style="fill:none;stroke-width:0.7;stroke-linecap:round;stroke-linejoin:round;stroke-miterlimit:3;stroke:#000000;stroke-opacity:0.501961" d="M12 0L12 7.3L14.15 7.3L15.6 7.3L15.6 0L12 0z" />
<path style="fill:none;stroke-width:0.7;stroke-linecap:round;stroke-linejoin:round;stroke-miterlimit:3;stroke:#000000;stroke-opacity:0.501961" d="M14.15 10.4L14.15 7.3" />
<path style="fill:none;stroke-width:0.7;stroke-linecap:round;stroke-linejoin:round;stroke-miterlimit:3;stroke:#000000;stroke-opacity:0.501961" d="M5.1 0L5.1 7.3L6.75 7.3L8.65 7.3L8.65 0L5.1 0z" />
<path style="fill:none;stroke-width:0.7;stroke-linecap:round;stroke-linejoin:round;stroke-miterlimit:3;stroke:#000000;stroke-opacity:0.501961" d="M6.75 7.3L6.75 10.4" />
<path style="fill:none;stroke-width:0.7;stroke-linecap:round;stroke-linejoin:round;stroke-miterlimit:3;stroke:#000000;stroke-opacity:0.501961" d="M0 10.4L0 0" />
</g>
</svg>
