<?xml version="1.0" encoding="utf-8"?>
<svg version="1.1" id="Layer_1"
xmlns="http://www.w3.org/2000/svg"
xmlns:xlink="http://www.w3.org/1999/xlink"
width="7px" height="8px"
xml:space="preserve">
<g id="PathID_2777" transform="matrix(1, 0, 0, 1, 0, 0)">
<path style="fill:#808080;fill-opacity:1" d="M1 2.9L1 2.8Q2.25 1.95 3.25 0.15L3.3 0L3.35 0.15Q4.05 1.7 5.65 2.7Q7 3.5 6.5 4.9Q5.45 6.45 3.55 5.05L4.25 6.85L2.45 6.95L3 5.15Q2.05 6.05 1 5.55L1 2.9" />
<path style="fill:#54504E;fill-opacity:1" d="M1 5.55L0.35 5.15Q-0.15 4.55 0.05 3.9Q0.2 3.25 1 2.8L1 2.9L1 5.55" />
</g>
</svg>
