<?xml version="1.0" encoding="utf-8"?>
<svg version="1.1" id="Layer_1"
xmlns="http://www.w3.org/2000/svg"
xmlns:xlink="http://www.w3.org/1999/xlink"
width="205px" height="15px"
xml:space="preserve">
<g id="PathID_3390" transform="matrix(1, 0, 0, 1, 0.3, 0.3)">
<path style="fill:#54504E;fill-opacity:1" d="M28.05 10.2L135.85 9.1Q202.75 13.5 204.1 4.85Q205.15 7 201.95 11.95Q199.6 13.15 190.9 13.8Q182.1 14.45 156.45 13.65Q130.85 12.9 98.4 13.4Q96.85 12.45 54.6 13.15L9.35 13.8Q1.5 13.85 0.35 10.7Q0 9.45 0 8.35Q8.3 13.2 28.05 10.2" />
<linearGradient
id="LinearGradID_1613" gradientUnits="userSpaceOnUse" gradientTransform="matrix(0.000228882, -0.0101318, 0.00630188, 0.000106812, 102.15, 1.6)" spreadMethod ="pad" x1="-819.2" y1="0" x2="819.2" y2="0" >
<stop  offset="0" style="stop-color:#808080;stop-opacity:1" />
<stop  offset="1" style="stop-color:#9F9F9F;stop-opacity:1" />
</linearGradient>
<path style="fill:url(#LinearGradID_1613) " d="M0 8.35Q0 3.5 6.8 2.15L17.95 1.95Q21.6 1.3 55.8 1Q89.95 0.7 98 1.3Q106 1.8 134.35 0.4Q162.7 -1.05 199.7 2.5Q203.6 3.15 204.1 4.85Q202.75 13.5 135.85 9.1L28.05 10.2Q8.3 13.2 0 8.35" />
<path style="fill:none;stroke-width:0.7;stroke-linecap:round;stroke-linejoin:round;stroke-miterlimit:3;stroke:#000000;stroke-opacity:0.501961" d="M204.1 4.85Q205.15 7 201.95 11.95Q199.6 13.15 190.9 13.8Q182.1 14.45 156.45 13.65Q130.85 12.9 98.4 13.4Q96.85 12.45 54.6 13.15L9.35 13.8Q1.5 13.85 0.35 10.7Q0 9.45 0 8.35Q0 3.5 6.8 2.15L17.95 1.95Q21.6 1.3 55.8 1Q89.95 0.7 98 1.3Q106 1.8 134.35 0.4Q162.7 -1.05 199.7 2.5Q203.6 3.15 204.1 4.85z" />
</g>
</svg>
