<?xml version="1.0" encoding="utf-8"?>
<svg version="1.1" id="Layer_1"
xmlns="http://www.w3.org/2000/svg"
xmlns:xlink="http://www.w3.org/1999/xlink"
width="20px" height="16px"
xml:space="preserve">
<g id="PathID_4500" transform="matrix(1, 0, 0, 1, 9.55, 7.95)">
<path style="fill:#C2BEB5;fill-opacity:1" d="M5 -6.35Q6.15 -4.2 7.95 -2.2L5.5 -3.7L3.9 -1.25L3.9 -4.1L0.15 -4.1L-2.8 -2.75L5 -6.35M-2.8 -2.75L-2.55 -1.45L-5.15 -4.55L-3.75 -5.25L-2.8 -2.75L-0.4 -7.85Q2.55 -6.5 5.5 -6.55L5 -6.35L0.15 -4.1M3.2 0.8L-2.25 0.55L-0.95 6.8L-7.45 3.45L-7.75 2.75L-9.2 -0.55L-6 0.15L-4.9 2.4L-4.8 -1L-3.85 -0.55Q-2.8 -0.05 -2.35 -0.1L-2.25 0.55L-0.85 -0.3L0.6 -1.15L3.2 0.8L3.95 0.65L2.55 5.15L7.9 0.3Q7.4 4.25 6.15 7L2.1 6.5L1.7 7.9L-0.95 6.8L1.4 4L-0.25 4.75L3.2 0.8M2.1 6.5L2.55 5.15L2.1 6.5" />
<path style="fill:#E7E7E7;fill-opacity:1" d="M9.55 -0.55L8.7 -0.4L3.95 0.65L3.2 0.8L0.15 -4.1L3.9 -4.1L3.9 -1.25L5.5 -3.7L7.95 -2.2L9.55 -0.55M-5.55 6.3Q-7.85 5.4 -9.55 3.9L-7.75 2.75L-7.45 3.45L-5.55 6.3M-2.55 -1.45L-2.35 -0.1Q-2.8 -0.05 -3.85 -0.55L-4.8 -1L-4.9 2.4L-6 0.15L-9.2 -0.55L-8.85 -1.05L-6.85 -3.8L-5.35 -4.45L-5.15 -4.55L-2.55 -1.45M-3.75 -5.25L-4.3 -6.7L-4.55 -7.25Q-2.55 -8.15 -0.4 -7.85L-2.8 -2.75L-3.75 -5.25" />
<path style="fill:#9A968D;fill-opacity:1" d="M-0.75 -2.1L-2.8 -2.75L0.15 -4.1L3.2 0.8L0.6 -1.15L-0.75 -2.1M7.9 0.3L2.55 5.15L3.95 0.65L8.7 -0.4L7.9 0.3M-7.45 3.45L-0.95 6.8L-5.1 7L-5.55 6.3L-7.45 3.45M-5.35 -4.45L-6.85 -3.8L-8.85 -1.05Q-8.55 -4.3 -8.95 -7.1Q-7.1 -6.95 -4.9 -5.5L-5.35 -4.45" />
<path style="fill:#7B7A76;fill-opacity:1" d="M-3.75 -5.25L-5.15 -4.55L-5.35 -4.45L-4.9 -5.5L-4.3 -6.7L-3.75 -5.25M-0.25 4.75L1.4 4L-0.95 6.8L-2.25 0.55L-2.35 -0.1L3.2 0.8L-0.25 4.75M-2.35 -0.1L-2.55 -1.45L-2.8 -2.75L-0.75 -2.1L0.6 -1.15L-0.85 -0.3L-2.25 0.55M-0.85 -0.3L-0.75 -2.1L-0.85 -0.3" />
<path style="fill:none;stroke-width:0.7;stroke-linecap:round;stroke-linejoin:round;stroke-miterlimit:3;stroke:#000000;stroke-opacity:0.4" d="M7.95 -2.2Q6.15 -4.2 5 -6.35L0.15 -4.1L3.2 0.8L3.95 0.65L8.7 -0.4L9.55 -0.55L7.95 -2.2z" />
<path style="fill:none;stroke-width:0.7;stroke-linecap:round;stroke-linejoin:round;stroke-miterlimit:3;stroke:#000000;stroke-opacity:0.4" d="M-0.4 -7.85Q2.55 -6.5 5.5 -6.55L5 -6.35" />
<path style="fill:none;stroke-width:0.7;stroke-linecap:round;stroke-linejoin:round;stroke-miterlimit:3;stroke:#000000;stroke-opacity:0.4" d="M7.9 0.3Q7.4 4.25 6.15 7L2.1 6.5L1.7 7.9L-0.95 6.8L-5.1 7L-5.55 6.3Q-7.85 5.4 -9.55 3.9L-7.75 2.75L-9.2 -0.55L-8.85 -1.05Q-8.55 -4.3 -8.95 -7.1Q-7.1 -6.95 -4.9 -5.5L-4.3 -6.7L-4.55 -7.25Q-2.55 -8.15 -0.4 -7.85" />
<path style="fill:none;stroke-width:0.7;stroke-linecap:round;stroke-linejoin:round;stroke-miterlimit:3;stroke:#000000;stroke-opacity:0.4" d="M-2.8 -2.75L0.15 -4.1" />
<path style="fill:none;stroke-width:0.7;stroke-linecap:round;stroke-linejoin:round;stroke-miterlimit:3;stroke:#000000;stroke-opacity:0.4" d="M3.95 0.65L2.55 5.15L7.9 0.3L8.7 -0.4" />
<path style="fill:none;stroke-width:0.7;stroke-linecap:round;stroke-linejoin:round;stroke-miterlimit:3;stroke:#000000;stroke-opacity:0.4" d="M2.55 5.15L2.1 6.5" />
<path style="fill:none;stroke-width:0.7;stroke-linecap:round;stroke-linejoin:round;stroke-miterlimit:3;stroke:#000000;stroke-opacity:0.4" d="M0.6 -1.15L3.2 0.8L-2.25 0.55L-0.95 6.8" />
<path style="fill:none;stroke-width:0.7;stroke-linecap:round;stroke-linejoin:round;stroke-miterlimit:3;stroke:#000000;stroke-opacity:0.4" d="M-5.35 -4.45L-5.15 -4.55L-3.75 -5.25L-4.3 -6.7" />
<path style="fill:none;stroke-width:0.7;stroke-linecap:round;stroke-linejoin:round;stroke-miterlimit:3;stroke:#000000;stroke-opacity:0.4" d="M-8.85 -1.05L-6.85 -3.8L-5.35 -4.45L-4.9 -5.5" />
<path style="fill:none;stroke-width:0.7;stroke-linecap:round;stroke-linejoin:round;stroke-miterlimit:3;stroke:#000000;stroke-opacity:0.4" d="M-2.8 -2.75L-0.75 -2.1L0.6 -1.15L-0.85 -0.3L-2.25 0.55L-2.35 -0.1" />
<path style="fill:none;stroke-width:0.7;stroke-linecap:round;stroke-linejoin:round;stroke-miterlimit:3;stroke:#000000;stroke-opacity:0.4" d="M-0.75 -2.1L-0.85 -0.3" />
<path style="fill:none;stroke-width:0.7;stroke-linecap:round;stroke-linejoin:round;stroke-miterlimit:3;stroke:#000000;stroke-opacity:0.4" d="M-3.75 -5.25L-2.8 -2.75L-2.55 -1.45L-2.35 -0.1" />
<path style="fill:none;stroke-width:0.7;stroke-linecap:round;stroke-linejoin:round;stroke-miterlimit:3;stroke:#000000;stroke-opacity:0.4" d="M-7.75 2.75L-7.45 3.45L-0.95 6.8" />
<path style="fill:none;stroke-width:0.7;stroke-linecap:round;stroke-linejoin:round;stroke-miterlimit:3;stroke:#000000;stroke-opacity:0.4" d="M-7.45 3.45L-5.55 6.3" />
</g>
</svg>
