<?xml version="1.0" encoding="utf-8"?>
<svg version="1.1" id="Layer_1"
xmlns="http://www.w3.org/2000/svg"
xmlns:xlink="http://www.w3.org/1999/xlink"
width="10px" height="16px"
xml:space="preserve">
<g id="PathID_4309" transform="matrix(1, 0, 0, 1, 13.35, 11.2)">
<path style="fill:#FFFFFF;fill-opacity:0.298039" d="M-9 -1.1Q-10.95 -0.5 -12.15 -1.55Q-13.35 -2.55 -13.15 -4.55Q-12.9 -6.55 -11.4 -8.45Q-9.8 -10.35 -7.85 -10.95Q-5.9 -11.6 -4.7 -10.6Q-3.45 -9.6 -3.7 -7.55Q-3.9 -5.5 -5.5 -3.65Q-7.05 -1.7 -9 -1.1" />
</g>
<g id="PathID_4310" transform="matrix(1, 0, 0, 1, 13.35, 11.2)">
<path style="fill:#FFFFFF;fill-opacity:0.298039" d="M-11.95 0.15L-11.65 0L-11.3 -0.05Q-10.65 0.05 -10.35 0.65Q-9.65 1.75 -10.2 2.65Q-10.4 3.2 -11.1 3.65Q-11.65 4.05 -12.2 4.05L-13 3.45L-13.35 2.55Q-13.35 1.7 -12.6 0.65L-11.95 0.15" />
</g>
</svg>
