<?xml version="1.0" encoding="utf-8"?>
<svg version="1.1" id="Layer_1"
xmlns="http://www.w3.org/2000/svg"
xmlns:xlink="http://www.w3.org/1999/xlink"
width="26px" height="26px"
xml:space="preserve">
<g id="PathID_4307" transform="matrix(1, 0, 0, 1, 0, 0)">
<path style="fill:#808080;fill-opacity:1" d="M21 4.85L20.3 4.95L19.55 4.6L19.35 4.1L19.55 3.5L20.15 3.3L20.65 3.5L21.1 4.2Q21.25 4.65 21 4.85M11.45 6.65Q11.8 6.65 12.05 6.9L12.25 7.35L12.25 8.15Q12.2 8.6 11.45 8.4Q10.65 8.15 10.65 7.95L10.65 7.45L10.85 6.85L11.45 6.65M16.85 9.45L16.25 9.2L16.05 8.7L16.25 8.1L16.85 7.9L17.35 8.1L17.65 8.7L17.35 9.2Q17.2 9.45 16.85 9.45M7.65 1.65L6.85 2.1Q6.35 2.2 6.2 1.65L6.05 0.8L6.25 0.2L6.85 0L7.35 0.2L7.8 0.9Q7.95 1.35 7.65 1.65M6 5.7L6.35 6.4L6.2 7.3Q6.05 7.75 5.4 7.55Q4.75 7.35 4.75 7L4.7 6.3L4.9 5.7L5.5 5.5L6 5.7M0.2 6.95L0.8 6.75Q1.15 6.75 1.3 6.95L1.75 7.65Q1.9 8.1 1.65 8.3L0.95 8.4L0.2 8.05L0 7.55L0.2 6.95M8.8 11.85L9.25 12.55Q9.4 13 9.05 13.05L8.25 13.05L7.65 12.85Q7.5 12.75 7.5 12.45L7.7 11.85L8.3 11.65Q8.65 11.65 8.8 11.85M1.2 14.8Q0.5 14.9 0.55 14.25L0.55 13.3L0.75 12.7L1.35 12.5L1.85 12.7L2.3 13.45L2.15 14.3L1.2 14.8M2.8 20.45L3.25 20.25L3.65 20.45L3.85 20.9L3.65 21.35Q3.5 21.55 3.25 21.55L2.8 21.35L2.65 20.9Q2.65 20.65 2.8 20.45M8.4 20.65L8.7 21.25L8.4 22.1Q8.1 22.6 7.75 22.4L7.25 21.85Q7.1 21.55 7.1 21.25L7.3 20.65L7.9 20.45Q8.25 20.45 8.4 20.65M16.2 18.05L16.05 17.6Q16.05 17.35 16.2 17.15L16.65 16.95L17.05 17.15L17.25 17.6L17.05 18.05Q16.9 18.25 16.65 18.25L16.2 18.05" />
<path style="fill:#54504E;fill-opacity:1" d="M24.8 10.25Q25.25 10.25 25.6 10.65Q25.95 11.05 25.95 11.6L25.65 12.8Q25.25 13.3 24.8 13.3L24.3 13.15L24 12.8L23.7 12L23.65 11.6L23.8 10.9L23.95 10.65Q24.3 10.3 24.7 10.25L24.8 10.25M9.05 24.4L9.45 24.6L9.65 25.05L9.45 25.5Q9.3 25.7 9.05 25.7L8.6 25.5L8.45 25.05L8.6 24.6L9.05 24.4M17.1 23.1L17.45 22.4L18.05 22.2L18.55 22.4L19.2 23.2Q19.55 23.75 19.1 24.1L18.2 24.7Q17.7 24.95 17.35 24.25Q16.95 23.5 17.1 23.1" />
</g>
</svg>
