<?xml version="1.0" encoding="utf-8"?>
<svg version="1.1" id="Layer_1"
xmlns="http://www.w3.org/2000/svg"
xmlns:xlink="http://www.w3.org/1999/xlink"
width="45px" height="46px"
xml:space="preserve">
<g id="PathID_4261" transform="matrix(1, 0, 0, 1, 0.2, 0.2)">
<radialGradient
id="RadialGradID_1851" gradientUnits="userSpaceOnUse" gradientTransform="matrix(0.0259399, 0, 0, 0.0259399, 19.15, 12.15)" spreadMethod ="pad" cx="0" cy="0" r="819.2" fx="0" fy="0" >
<stop  offset="0"  style="stop-color:#A8A8A8;stop-opacity:1" />
<stop  offset="1"  style="stop-color:#808080;stop-opacity:1" />
</radialGradient>
<path style="fill:url(#RadialGradID_1851) " d="M40.15 23.6Q38.4 23.6 37.1 24.4Q35.35 28 32.65 29.45Q30.8 30.75 29.7 30.45Q28.45 30.1 29.3 27.65L30.35 24.95L30.9 22.2Q31.1 18.75 28.9 16.25Q26.7 14.3 24.2 14Q22.05 13.7 19.35 14.65Q13.45 16.9 14.65 24.9Q15.9 29.65 14.25 29.85Q11.15 31.35 9.15 25.65L8.3 23.75Q9.6 14.75 17.15 11.35Q25.05 9.15 31.2 14.8Q37 21.4 36.4 19.2Q36.85 17.1 34.75 14.35Q37.5 11.55 35.95 9.55Q33.55 6.6 31.9 8.8Q31.2 9.85 29.3 9.5L25.15 7.75Q24 6.9 24 4.7Q23.95 2.45 21.85 2.9Q18.35 2.85 18.5 4.95Q19.75 6.45 18.05 7.35L16.05 8.55Q14.05 9.65 13.35 9.65Q12.75 9.65 12 8.55Q11.1 7.35 10.5 7.15Q9.55 6.8 8.5 8.15Q7.45 9.5 7.9 10.5Q8.2 11.2 9.55 11.9Q10.75 12.5 10.7 12.95Q10.65 13.65 9.05 16.1L6.9 18.9Q6.55 19.15 5.7 18.65L4.25 18.55Q3.5 19.05 3.55 20.3Q3.6 21.3 4.15 22.4Q1.2 23.35 2.7 16.75L3.7 16.9Q6.7 18.35 7.1 17.3Q7.35 16.35 7.75 15.5L7.95 15.05Q8.6 13.3 7.3 12.15Q4.3 11.05 5.05 8.3Q5.9 5.3 9.65 4.05Q12 3.25 12.2 5.7Q13.4 8.15 14.45 7.95L16.65 6.85Q17.45 6.45 17.45 4.25Q17.1 1.45 20.35 0.2L26.15 0.55Q27.5 1.45 27 3.9Q27 6.1 27.95 6.55L29.8 7.3Q31.45 7.55 32.45 6.35Q34.1 4.2 36.15 4.95Q39.8 6.85 39.85 10.55Q40.05 11.6 38.45 12.65Q37.3 13.35 37.55 15.05L38.15 16.55Q39.15 18.45 41.6 18.15L43 18.25Q43.9 22.55 40.15 23.6" />
<path style="fill:#B8B8B8;fill-opacity:1" d="M4.15 22.4Q3.6 21.3 3.55 20.3Q3.5 19.05 4.25 18.55L5.7 18.65Q6.55 19.15 6.9 18.9L9.05 16.1Q10.65 13.65 10.7 12.95Q10.75 12.5 9.55 11.9Q8.2 11.2 7.9 10.5Q7.45 9.5 8.5 8.15Q9.55 6.8 10.5 7.15Q11.1 7.35 12 8.55Q12.75 9.65 13.35 9.65Q14.05 9.65 16.05 8.55L18.05 7.35Q19.75 6.45 18.5 4.95Q18.35 2.85 21.85 2.9Q23.95 2.45 24 4.7Q24 6.9 25.15 7.75L29.3 9.5Q31.2 9.85 31.9 8.8Q33.55 6.6 35.95 9.55Q37.5 11.55 34.75 14.35Q36.85 17.1 36.4 19.2Q37 21.4 31.2 14.8Q25.05 9.15 17.15 11.35Q9.6 14.75 8.3 23.75Q6.9 21.85 4.15 22.4" />
<radialGradient
id="RadialGradID_1852" gradientUnits="userSpaceOnUse" gradientTransform="matrix(0.0563354, 0, 0, 0.0372772, 20.35, 0.2)" spreadMethod ="pad" cx="0" cy="0" r="819.2" fx="0" fy="0" >
<stop  offset="0"  style="stop-color:#312E2D;stop-opacity:1" />
<stop  offset="1"  style="stop-color:#5F5F5F;stop-opacity:1" />
</radialGradient>
<path style="fill:url(#RadialGradID_1852) " d="M43.6 23.65Q42.9 21.8 42.2 23.35L39.05 25.1Q39.05 25.6 39.8 25.95L42.1 26.35Q43.35 26.35 43.6 23.65M8.3 23.75L9.15 25.65Q11.15 31.35 14.25 29.85Q15.9 29.65 14.65 24.9Q13.45 16.9 19.35 14.65Q22.05 13.7 24.2 14Q26.7 14.3 28.9 16.25Q31.1 18.75 30.9 22.2L30.35 24.95L29.3 27.65Q28.45 30.1 29.7 30.45Q30.8 30.75 32.65 29.45Q35.35 28 37.1 24.4Q38.4 23.6 40.15 23.6Q43.9 22.55 43 18.25Q44.55 18.9 44.55 22.2Q44.6 26.75 42.7 27.35Q41.5 27.65 41.05 27.05Q39.35 26 38.25 27.25Q37.75 28.85 36.9 30.3Q37.05 31.25 38.75 32.2Q41.3 33.55 39.9 36Q38.05 39.45 34.4 40.45Q32.5 40.65 32.3 38.95Q31.35 36.9 30.25 36.6Q28.7 37.4 27 37.9Q26.7 39.25 27.6 40.65Q28.8 44.25 26.45 44.6L17.45 44Q16.6 42.95 17.9 40.45Q18.9 38.6 18.35 37.85L15.75 36.9Q14 37.3 13.55 39Q12.95 42.1 11.05 41.85Q4.3 39.4 4.35 35.75Q3.9 34.45 6.2 32.95Q8.45 31.55 8.55 30.25Q7.5 28.5 7 26.65Q5.9 24.95 4.45 25.55Q2.45 26.6 0.65 25Q-0.8 21.85 0.9 17.6Q1.6 16.75 2.7 16.75Q1.2 23.35 4.15 22.4Q6.9 21.85 8.3 23.75M26.9 21.8Q26.9 20.4 26 19.15Q24.8 17.4 22.55 17.45Q20.3 17.5 19.1 19.2Q18.2 20.45 18.2 21.8Q18.2 23.25 18.95 24.4Q20.1 26.1 22.55 26.15Q25 26.2 26.15 24.45Q26.9 23.3 26.9 21.8M0.5 22.35L0.9 23.75Q1.5 25.25 2.7 25.25Q4.1 25.25 4.1 24.15Q4.1 23.5 3.25 23.3Q2.25 23.05 2 22.4Q1.8 21.7 1.15 21.7Q0.5 21.7 0.5 22.35M12.2 33.3Q10.05 32.2 9.7 31.45Q6.1 33.4 6.4 35.2Q7.1 37.1 10.5 36.95Q13 35.7 12.2 33.3M16.7 34.4Q19.55 35.5 22.2 35.75L25.2 35.5Q28.8 34.9 31.5 33.1Q33.5 31.8 34.6 30.2Q33.5 31.05 31.45 31.85Q27.35 33.5 22.55 33.35Q17.75 33.2 13.05 31.25Q10.65 30.3 9.15 29.3Q9.6 30.85 12.45 32.35L16.7 34.4M8.55 39.95Q9.35 40.55 10.8 40.55Q11.7 40.55 12.35 39.6Q12.9 38.8 12.9 38.15L10.45 38Q7.95 38.65 7.95 39.15Q7.95 39.55 8.55 39.95M31.6 34Q33.3 36.8 35.45 36.5Q37.55 36.2 38.1 33.4Q36.6 31.85 34.95 31.3L31.6 34M37.15 36.1L34.9 37.9Q33 36.2 32.15 36.2Q31.75 36.2 32.25 37.65Q32.85 39.2 34.15 39.8Q35.05 40.2 36.85 38.65Q38.5 37.25 38.5 36.7Q38.5 35.1 37.15 36.1M25.4 42.25Q23.45 43.15 23.45 43.5Q23.35 44.15 24.3 44.15L26.45 43.7Q27.35 43.2 27.35 42.45Q27.35 41.35 25.4 42.25M20.5 37.75Q19.15 42.45 21.15 42.2Q24.5 42.65 25.85 41.25Q26.45 39.8 24.75 37.35Q22.95 38.25 20.5 37.75" />
<path style="fill:#747474;fill-opacity:1" d="M42.1 26.35L39.8 25.95Q39.05 25.6 39.05 25.1L42.2 23.35Q42.9 21.8 43.6 23.65Q43.35 26.35 42.1 26.35M1.15 21.7Q1.8 21.7 2 22.4Q2.25 23.05 3.25 23.3Q4.1 23.5 4.1 24.15Q4.1 25.25 2.7 25.25Q1.5 25.25 0.9 23.75L0.5 22.35Q0.5 21.7 1.15 21.7M12.45 32.35Q9.6 30.85 9.15 29.3Q10.65 30.3 13.05 31.25Q17.75 33.2 22.55 33.35Q27.35 33.5 31.45 31.85Q33.5 31.05 34.6 30.2Q33.5 31.8 31.5 33.1Q28.8 34.9 25.2 35.5L22.2 35.75Q19.55 35.5 16.7 34.4L12.45 32.35M7.95 39.15Q7.95 38.65 10.45 38L12.9 38.15Q12.9 38.8 12.35 39.6Q11.7 40.55 10.8 40.55Q9.35 40.55 8.55 39.95Q7.95 39.55 7.95 39.15M38.5 36.7Q38.5 37.25 36.85 38.65Q35.05 40.2 34.15 39.8Q32.85 39.2 32.25 37.65Q31.75 36.2 32.15 36.2Q33 36.2 34.9 37.9L37.15 36.1Q38.5 35.1 38.5 36.7M27.35 42.45Q27.35 43.2 26.45 43.7L24.3 44.15Q23.35 44.15 23.45 43.5Q23.45 43.15 25.4 42.25Q27.35 41.35 27.35 42.45" />
<path style="fill:#898989;fill-opacity:1" d="M10.5 36.95Q7.1 37.1 6.4 35.2Q6.1 33.4 9.7 31.45Q10.05 32.2 12.2 33.3Q13 35.7 10.5 36.95M34.95 31.3Q36.6 31.85 38.1 33.4Q37.55 36.2 35.45 36.5Q33.3 36.8 31.6 34L34.95 31.3M24.75 37.35Q26.45 39.8 25.85 41.25Q24.5 42.65 21.15 42.2Q19.15 42.45 20.5 37.75Q22.95 38.25 24.75 37.35" />
<path style="fill:none;stroke-width:0.7;stroke-linecap:round;stroke-linejoin:round;stroke-miterlimit:3;stroke:#000000;stroke-opacity:0.388235" d="M2.7 16.75L3.7 16.9Q6.7 18.35 7.1 17.3Q7.35 16.35 7.75 15.5L7.95 15.05Q8.6 13.3 7.3 12.15Q4.3 11.05 5.05 8.3Q5.9 5.3 9.65 4.05Q12 3.25 12.2 5.7Q13.4 8.15 14.45 7.95L16.65 6.85Q17.45 6.45 17.45 4.25Q17.1 1.45 20.35 0.2L26.15 0.55Q27.5 1.45 27 3.9Q27 6.1 27.95 6.55L29.8 7.3Q31.45 7.55 32.45 6.35Q34.1 4.2 36.15 4.95Q39.8 6.85 39.85 10.55Q40.05 11.6 38.45 12.65Q37.3 13.35 37.55 15.05L38.15 16.55Q39.15 18.45 41.6 18.15L43 18.25Q44.55 18.9 44.55 22.2Q44.6 26.75 42.7 27.35Q41.5 27.65 41.05 27.05Q39.35 26 38.25 27.25Q37.75 28.85 36.9 30.3Q37.05 31.25 38.75 32.2Q41.3 33.55 39.9 36Q38.05 39.45 34.4 40.45Q32.5 40.65 32.3 38.95Q31.35 36.9 30.25 36.6Q28.7 37.4 27 37.9Q26.7 39.25 27.6 40.65Q28.8 44.25 26.45 44.6L17.45 44Q16.6 42.95 17.9 40.45Q18.9 38.6 18.35 37.85L15.75 36.9Q14 37.3 13.55 39Q12.95 42.1 11.05 41.85Q4.3 39.4 4.35 35.75Q3.9 34.45 6.2 32.95Q8.45 31.55 8.55 30.25Q7.5 28.5 7 26.65Q5.9 24.95 4.45 25.55Q2.45 26.6 0.65 25Q-0.8 21.85 0.9 17.6Q1.6 16.75 2.7 16.75z" />
<path style="fill:none;stroke-width:0.7;stroke-linecap:round;stroke-linejoin:round;stroke-miterlimit:3;stroke:#000000;stroke-opacity:0.388235" d="M26.15 24.45Q25 26.2 22.55 26.15Q20.1 26.1 18.95 24.4Q18.2 23.25 18.2 21.8Q18.2 20.45 19.1 19.2Q20.3 17.5 22.55 17.45Q24.8 17.4 26 19.15Q26.9 20.4 26.9 21.8Q26.9 23.3 26.15 24.45z" />
</g>
</svg>
