<?xml version="1.0" encoding="utf-8"?>
<svg version="1.1" id="Layer_1"
xmlns="http://www.w3.org/2000/svg"
xmlns:xlink="http://www.w3.org/1999/xlink"
width="27px" height="17px"
xml:space="preserve">
<g id="PathID_3220" transform="matrix(1, 0, 0, 1, 0, 0)">
<path style="fill:#808080;fill-opacity:1" d="M23.2 5.55Q24.4 7.8 23.7 9.9Q23.2 11.2 23.55 12.45Q24.95 10.9 26.95 10.3L26.8 12.9Q25.65 13.5 25.3 14.7L24.8 13.3Q24.4 14.3 23.7 14.4L21.65 14.45Q20.2 14.85 19.9 15.25Q17.9 16.2 15.8 16.25Q17.2 14.6 13.6 14.65Q9.95 14.7 9.25 15.5L5.95 15.45Q2.7 15.65 3.05 16.8L0.85 16.55L0.6 14.95L0.55 14.7Q-0.25 12.1 0.3 9.95L0.9 9.3Q0.1 8.55 0 6.25Q0.95 6.85 2.5 6.65Q4.75 6.9 4.95 8.25Q3.65 10.85 5.45 11L6.15 10.5L7.25 11.65Q7.9 11.2 7.6 9.95Q6.35 8.85 6.55 7.05L7.55 4.3L8.25 6.2Q9.25 5.45 10.15 3.4L9.45 1.9L8.15 0.85Q7.95 -0.05 9.45 0.3Q11.1 0.8 12.25 0Q12.45 1.1 13.95 1.9Q13.75 2.95 14.45 3.2Q15.2 3.3 15.7 1.9L15.85 1.4L16.95 3.7Q17.05 5.3 16.2 6.85Q15.85 8.25 17.3 10.05Q18.55 9.45 18.75 6.95L19.7 7.6Q20.25 6.55 19.9 4.6Q19.4 3.9 21.85 1.9L22.6 1.3L22.55 1.9Q22.35 3.9 23.2 5.55M2.4 1.9L4.6 4.1Q2.75 5.1 1.25 4.5Q0.95 3.15 1.1 1.9L1.25 1.1L2.4 1.9" />
</g>
</svg>
