<?xml version="1.0" encoding="utf-8"?>
<svg version="1.1" id="Layer_1"
xmlns="http://www.w3.org/2000/svg"
xmlns:xlink="http://www.w3.org/1999/xlink"
width="30px" height="30px"
xml:space="preserve">
<g id="PathID_4414" transform="matrix(1, 0, 0, 1, 15, 15)">
<radialGradient
id="RadialGradID_1891" gradientUnits="userSpaceOnUse" gradientTransform="matrix(0.024231, 0, 0, 0.024231, 0.75, -4.75)" spreadMethod ="pad" cx="0" cy="0" r="819.2" fx="0" fy="0" >
<stop  offset="0"  style="stop-color:#8E8E8E;stop-opacity:1" />
<stop  offset="0.647059"  style="stop-color:#808080;stop-opacity:1" />
</radialGradient>
<path style="fill:url(#RadialGradID_1891) " d="M14.6 2.2L13.65 3.75L13.45 4.05L11.85 5.85Q7.45 10.25 1.25 10.25Q-4.95 10.25 -9.35 5.85Q-11.05 4.15 -12.05 2.25L-12.15 2.1Q-13.45 -0.4 -13.65 -3.25L-13.7 -3.5L-13.75 -4.75L-13.65 -6.2L-14.1 -5.2L-14.1 -5.1L-14.35 -4.45Q-13.3 -7.9 -10.6 -10.6Q-6.2 -15 0 -15Q6.2 -15 10.6 -10.6Q15 -6.2 15 0L14.95 1.55L14.6 2.2" />
<path style="fill:#6D6D6D;fill-opacity:1" d="M14.95 1.55L14.75 2.85L14.25 4.95L14.15 5.2L13.6 6.55L13.35 6.95L12.65 8.15L12.4 8.5L12.25 8.75L12.2 8.8L11.95 9.1L11.2 10L10.9 10.3L10.6 10.6Q6.2 15 0 15Q-6.2 15 -10.6 10.6Q-12.3 8.9 -13.3 7L-13.4 6.85L-13.55 6.55L-13.6 6.4L-13.7 6.2L-13.8 5.95L-14 5.45L-14.1 5.2L-14.9 1.75L-14.9 1.5L-14.95 1.25L-15 0L-15 -0.15L-15 -0.35L-15 -0.5L-14.35 -4.45L-14.1 -5.1L-14.1 -5.2L-13.65 -6.2L-13.75 -4.75L-13.7 -3.5L-13.65 -3.25Q-13.45 -0.4 -12.15 2.1L-12.05 2.25Q-11.05 4.15 -9.35 5.85Q-4.95 10.25 1.25 10.25Q7.45 10.25 11.85 5.85L13.45 4.05L13.65 3.75L14.6 2.2L14.95 1.55" />
</g>
</svg>
