<?xml version="1.0" encoding="utf-8"?>
<svg version="1.1" id="Layer_1"
xmlns="http://www.w3.org/2000/svg"
xmlns:xlink="http://www.w3.org/1999/xlink"
width="32px" height="25px"
xml:space="preserve">
<g id="PathID_4011" transform="matrix(1, 0, 0, 1, 0.15, 0.15)">
<path style="fill:#54504E;fill-opacity:1" d="M15.5 24.55L13 23.3L9.9 23.3L12.5 20.3L17.7 20.3L19.7 23.5L17.45 23.4L15.5 24.55" />
<path style="fill:none;stroke-width:0.7;stroke-linecap:round;stroke-linejoin:round;stroke-miterlimit:3;stroke:#000000;stroke-opacity:0.4" d="M17.45 23.4L19.7 23.5L17.7 20.3L12.5 20.3L9.9 23.3L13 23.3L15.5 24.55L17.45 23.4z" />
</g>
<g id="PathID_4012" transform="matrix(1, 0, 0, 1, 0.15, 0.15)">
<linearGradient
id="LinearGradID_1757" gradientUnits="userSpaceOnUse" gradientTransform="matrix(0.000808716, 0.00550842, -0.00767517, 0.00112915, 9.7, 6.35)" spreadMethod ="pad" x1="-819.2" y1="0" x2="819.2" y2="0" >
<stop  offset="0.00784314" style="stop-color:#B6B6B6;stop-opacity:1" />
<stop  offset="0.976471" style="stop-color:#808080;stop-opacity:1" />
</linearGradient>
<path style="fill:url(#LinearGradID_1757) " d="M19.9 12.55L19.1 12.1Q18.45 11.55 18.2 10.85Q17.7 11.85 15.15 12.6L14.35 2.45L13.15 11.75L14.35 1.6Q16.05 -0.15 19.45 0Q21.95 0.1 22.45 1.55L22.1 3.7L19.9 12.55M25.1 0.4Q26.65 0.45 27.3 1.35Q28.5 0.35 29.8 0.6Q25.75 7.45 23.9 12.65L23.8 12.65Q23 11.95 23.15 11.1Q22.9 11.85 22.15 12.3L20.95 12.7Q20.95 10 22.1 3.7L22.45 1.55Q23.3 0.3 25.1 0.4M13.15 11.75L12.55 11.1Q12.05 11.85 10.45 12.3L8.75 12.75L5.2 1.5Q7.2 0 9.6 0Q12.5 0 14.35 1.6L14.35 2.45M29.8 0.6Q30.9 0.5 31.4 1.55Q30.4 7.5 27.3 13.2L24.85 13.15Q25.1 11.5 27.3 1.35" />
<path style="fill:#54504E;fill-opacity:1" d="M5.2 1.5L8.75 12.75L10.45 12.3Q12.05 11.85 12.55 11.1L13.15 11.75L14.35 2.45L15.15 12.6Q17.7 11.85 18.2 10.85Q18.45 11.55 19.1 12.1L19.9 12.55Q18.65 16.85 17 20.8Q18.65 16.85 19.9 12.55L22.1 3.7Q20.95 10 20.95 12.7L22.15 12.3Q22.9 11.85 23.15 11.1Q23 11.95 23.8 12.65L23.9 12.65Q25.75 7.45 27.3 1.35Q25.1 11.5 24.85 13.15L27.3 13.2Q25.4 16.55 22.85 19.75L20.6 20.3L17 20.8L14.15 20.85L10.75 20.5L7.55 19.75Q5.25 16.85 3.55 13Q1.2 7.65 0 0.5L0.7 2.35Q2.8 7.85 4.8 12.35L5.95 11L5.95 10.9L7.65 12.4Q6.05 7.25 5.2 1.5M23.9 12.65Q22.35 16.75 20.6 20.3Q22.35 16.75 23.9 12.65M14.15 20.85L14.35 2.45L14.15 20.85M7.65 12.4Q8.95 16.65 10.75 20.5Q8.95 16.65 7.65 12.4" />
<linearGradient
id="LinearGradID_1758" gradientUnits="userSpaceOnUse" gradientTransform="matrix(0.000427246, 0.0045929, -0.00730896, 0.000686646, 3.75, 6.35)" spreadMethod ="pad" x1="-819.2" y1="0" x2="819.2" y2="0" >
<stop  offset="0.00784314" style="stop-color:#B6B6B6;stop-opacity:1" />
<stop  offset="0.976471" style="stop-color:#808080;stop-opacity:1" />
</linearGradient>
<path style="fill:url(#LinearGradID_1758) " d="M7.65 12.4L5.95 10.9L5.95 11L4.8 12.35Q2.8 7.85 0.7 2.35L0 0.5Q4.1 0 5.2 1.5Q6.05 7.25 7.65 12.4" />
<path style="fill:none;stroke-width:0.7;stroke-linecap:round;stroke-linejoin:round;stroke-miterlimit:3;stroke:#000000;stroke-opacity:0.4" d="M22.45 1.55L22.1 3.7" />
<path style="fill:none;stroke-width:0.7;stroke-linecap:round;stroke-linejoin:round;stroke-miterlimit:3;stroke:#000000;stroke-opacity:0.4" d="M23.9 12.65Q25.75 7.45 27.3 1.35Q26.65 0.45 25.1 0.4Q23.3 0.3 22.45 1.55Q21.95 0.1 19.45 0Q16.05 -0.15 14.35 1.6L14.35 2.45" />
<path style="fill:none;stroke-width:0.7;stroke-linecap:round;stroke-linejoin:round;stroke-miterlimit:3;stroke:#000000;stroke-opacity:0.4" d="M19.9 12.55L22.1 3.7" />
<path style="fill:none;stroke-width:0.7;stroke-linecap:round;stroke-linejoin:round;stroke-miterlimit:3;stroke:#000000;stroke-opacity:0.4" d="M27.3 13.2Q30.4 7.5 31.4 1.55Q30.9 0.5 29.8 0.6Q28.5 0.35 27.3 1.35" />
<path style="fill:none;stroke-width:0.7;stroke-linecap:round;stroke-linejoin:round;stroke-miterlimit:3;stroke:#000000;stroke-opacity:0.4" d="M27.3 13.2Q25.4 16.55 22.85 19.75L20.6 20.3L17 20.8L14.15 20.85L10.75 20.5L7.55 19.75Q5.25 16.85 3.55 13Q1.2 7.65 0 0.5Q4.1 0 5.2 1.5Q7.2 0 9.6 0Q12.5 0 14.35 1.6" />
<path style="fill:none;stroke-width:0.7;stroke-linecap:round;stroke-linejoin:round;stroke-miterlimit:3;stroke:#000000;stroke-opacity:0.4" d="M20.6 20.3Q22.35 16.75 23.9 12.65" />
<path style="fill:none;stroke-width:0.7;stroke-linecap:round;stroke-linejoin:round;stroke-miterlimit:3;stroke:#000000;stroke-opacity:0.4" d="M14.35 2.45L14.15 20.85" />
<path style="fill:none;stroke-width:0.7;stroke-linecap:round;stroke-linejoin:round;stroke-miterlimit:3;stroke:#000000;stroke-opacity:0.4" d="M7.65 12.4Q6.05 7.25 5.2 1.5" />
<path style="fill:none;stroke-width:0.7;stroke-linecap:round;stroke-linejoin:round;stroke-miterlimit:3;stroke:#000000;stroke-opacity:0.4" d="M17 20.8Q18.65 16.85 19.9 12.55" />
<path style="fill:none;stroke-width:0.7;stroke-linecap:round;stroke-linejoin:round;stroke-miterlimit:3;stroke:#000000;stroke-opacity:0.4" d="M10.75 20.5Q8.95 16.65 7.65 12.4" />
</g>
<g id="PathID_4013" transform="matrix(1, 0, 0, 1, 0.15, 0.15)">
<path style="fill:#FFFFFF;fill-opacity:0.329412" d="M5.65 10.35Q6.65 14.4 8.75 18.45Q4.55 15.65 0.5 1.7Q2.5 1 4.55 1.75Q4.7 6.3 5.65 10.35" />
</g>
</svg>
