<?xml version="1.0" encoding="utf-8"?>
<svg version="1.1" id="Layer_1"
xmlns="http://www.w3.org/2000/svg"
xmlns:xlink="http://www.w3.org/1999/xlink"
width="18px" height="7px"
xml:space="preserve">
<g id="PathID_2606" transform="matrix(1, 0, 0, 1, 0.2, 0.2)">
<path style="fill:#808080;fill-opacity:1" d="M16.3 3.85L11.75 4.3Q10.05 3.6 10.7 1.8L13.4 2.15L11.95 1.15L17.45 0.95Q18 2.55 16.3 3.85" />
<path style="fill:#54504E;fill-opacity:1" d="M9.9 4.7Q9.55 3.5 9.85 1.25Q11.5 0.15 14.4 0Q17.3 -0.15 17.45 0.95L11.95 1.15L13.4 2.15L10.7 1.8Q10.05 3.6 11.75 4.3L16.3 3.85Q12.65 6.2 9.9 4.7" />
<path style="fill:none;stroke-width:0.7;stroke-linecap:round;stroke-linejoin:round;stroke-miterlimit:3;stroke:#000000;stroke-opacity:0.388235" d="M16.3 3.85Q18 2.55 17.45 0.95Q17.3 -0.15 14.4 0Q11.5 0.15 9.85 1.25Q9.55 3.5 9.9 4.7Q12.65 6.2 16.3 3.85z" />
</g>
<g id="PathID_2607" transform="matrix(1, 0, 0, 1, 0.2, 0.2)">
<path style="fill:#54504E;fill-opacity:1" d="M2.15 0.65L6.2 0.35L10.4 1.2Q11.2 3.7 9.5 5.1Q10.6 2.75 7.95 1.9Q6.4 1.8 3.95 3.05Q5.45 1.65 7.2 1.3Q5.45 0.45 2.15 0.65" />
<path style="fill:#808080;fill-opacity:1" d="M7.2 1.3Q5.45 1.65 3.95 3.05Q6.4 1.8 7.95 1.9Q10.6 2.75 9.5 5.1L2.35 4.9Q0.05 3.7 0 1.6Q0.95 1 2.15 0.65Q5.45 0.45 7.2 1.3" />
<path style="fill:none;stroke-width:0.7;stroke-linecap:round;stroke-linejoin:round;stroke-miterlimit:3;stroke:#000000;stroke-opacity:0.388235" d="M9.5 5.1L2.35 4.9Q0.05 3.7 0 1.6Q0.95 1 2.15 0.65L6.2 0.35L10.4 1.2Q11.2 3.7 9.5 5.1z" />
</g>
</svg>
