<?xml version="1.0" encoding="utf-8"?>
<svg version="1.1" id="Layer_1"
xmlns="http://www.w3.org/2000/svg"
xmlns:xlink="http://www.w3.org/1999/xlink"
width="38px" height="38px"
xml:space="preserve">
<g id="PathID_4558" transform="matrix(1, 0, 0, 1, 19.05, 18.8)">
<radialGradient
id="RadialGradID_1977" gradientUnits="userSpaceOnUse" gradientTransform="matrix(0.0179443, 0, 0, 0.0179443, -0.25, 0)" spreadMethod ="pad" cx="0" cy="0" r="819.2" fx="0" fy="0" >
<stop  offset="0"  style="stop-color:#D9EFFF;stop-opacity:0.501961" />
<stop  offset="1"  style="stop-color:#A1D7FF;stop-opacity:0" />
</radialGradient>
<path style="fill:url(#RadialGradID_1977) " d="M-0.25 -18.8Q7.55 -18.8 13 -13.3Q18.55 -7.8 18.55 0Q18.55 7.75 13 13.25Q7.55 18.75 -0.25 18.75Q-8.05 18.75 -13.55 13.25Q-19.05 7.75 -19.05 0Q-19.05 -7.8 -13.55 -13.3Q-8.05 -18.8 -0.25 -18.8" />
</g>
<g id="PathID_4559" transform="matrix(1, 0, 0, 1, 19.05, 18.8)">
<radialGradient
id="RadialGradID_1978" gradientUnits="userSpaceOnUse" gradientTransform="matrix(0.00556946, 0.0032196, -0.00495911, 0.00860596, 7.85, -9.25)" spreadMethod ="pad" cx="0" cy="0" r="819.2" fx="0" fy="0" >
<stop  offset="0"  style="stop-color:#D9EFFF;stop-opacity:1" />
<stop  offset="1"  style="stop-color:#A1D7FF;stop-opacity:0.501961" />
<stop  offset="1"  style="stop-color:#000000;stop-opacity:1" />
<stop  offset="1"  style="stop-color:#000000;stop-opacity:1" />
</radialGradient>
<path style="fill:url(#RadialGradID_1978) " d="M6.85 -13.6L7.4 -10.25L8.6 -12.1L8.3 -14L11.45 -14.65L11.85 -11.5L9.55 -11.1L8.3 -9.55L11.45 -9.6L12.5 -7.9L10.7 -7.1L7.8 -8.9L3.2 -3.95L6.85 -9.5L5.05 -12.55L5.5 -14.4L6.85 -13.6" />
<radialGradient
id="RadialGradID_1979" gradientUnits="userSpaceOnUse" gradientTransform="matrix(0.0154419, 0, 0, 0.0154419, -0.3, 0.2)" spreadMethod ="pad" cx="0" cy="0" r="819.2" fx="0" fy="0" >
<stop  offset="0"  style="stop-color:#D9EFFF;stop-opacity:1" />
<stop  offset="1"  style="stop-color:#A1D7FF;stop-opacity:0.501961" />
<stop  offset="1"  style="stop-color:#000000;stop-opacity:1" />
<stop  offset="1"  style="stop-color:#000000;stop-opacity:1" />
</radialGradient>
<path style="fill:url(#RadialGradID_1979) " d="M0.25 -9.45L0.25 -2.65L2.4 -9.1L1.65 -10.9L0.25 -9.45M2.7 -1.9L7.9 -5.25L11.2 -3.9L9.4 -1.05L3.3 -0.65L2.7 1.4L7.55 4.15L8.65 7.85L5.1 7.85L1.75 2.8L0 3.3L-0.25 9.7L-2.55 12.15L-4.25 9.1L-1.55 3.1L-3.05 1.8L-7.9 6L-11.5 4.7L-9.7 1.5L-3.6 0.35L-3.1 -1.3L-9.25 -3.95L-10.1 -7.55L-6.9 -7.6L-2.1 -2.8L-0.2 -3.35L-0.75 -10.25L1.9 -12.7L3.4 -9.75L1.35 -3.1L2.7 -1.9M0.2 -1.75L-1.6 -1.3L-2.2 0.7L-0.7 2.05L1.3 1.3L1.7 -0.55L0.2 -1.75M9.55 -3.4L7.95 -4L2.5 -1L8.5 -1.8L9.55 -3.4M7.55 6.9L6.75 4.8L1.6 1.7L5.55 6.9L7.55 6.9M-8.7 -6.55L-8.2 -4.35L-2.2 -1.65L-6.9 -6.35L-8.7 -6.55M-8 4.8L-2.65 0.95L-9 2.5L-9.95 4.1L-8 4.8M-2.3 10.45L-0.95 9.35L-0.9 2.8L-3.35 9.05L-2.3 10.45" />
<radialGradient
id="RadialGradID_1980" gradientUnits="userSpaceOnUse" gradientTransform="matrix(0.0093689, 0.00250244, -0.0014801, 0.00552368, 11, 2.25)" spreadMethod ="pad" cx="0" cy="0" r="819.2" fx="0" fy="0" >
<stop  offset="0"  style="stop-color:#D9EFFF;stop-opacity:1" />
<stop  offset="1"  style="stop-color:#A1D7FF;stop-opacity:0.501961" />
<stop  offset="1"  style="stop-color:#000000;stop-opacity:1" />
<stop  offset="1"  style="stop-color:#000000;stop-opacity:1" />
</radialGradient>
<path style="fill:url(#RadialGradID_1980) " d="M14.25 -0.15L11.6 1.8L13.75 2.15L15.25 1L17.2 3.7L14.6 5.45L13.3 3.45L11.45 2.95L12.85 5.9L11.8 7.65L10.35 6.3L10.65 2.75L4.35 0.6L10.75 1.6L12.6 -1.4L14.4 -1.8L14.25 -0.15" />
<radialGradient
id="RadialGradID_1981" gradientUnits="userSpaceOnUse" gradientTransform="matrix(0.00497437, -0.00132751, 0.00279236, 0.0104218, 3.95, 11)" spreadMethod ="pad" cx="0" cy="0" r="819.2" fx="0" fy="0" >
<stop  offset="0"  style="stop-color:#D9EFFF;stop-opacity:1" />
<stop  offset="1"  style="stop-color:#A1D7FF;stop-opacity:0.501961" />
<stop  offset="1"  style="stop-color:#000000;stop-opacity:1" />
<stop  offset="1"  style="stop-color:#000000;stop-opacity:1" />
</radialGradient>
<path style="fill:url(#RadialGradID_1981) " d="M8.5 12.3L7.1 13L4.15 11.55L4.9 13.65L6.65 14.45L5.4 17.55L2.65 16.1L3.6 13.9L3.1 12L1.35 14.75L-0.6 14.7L-0.25 12.7L2.85 11.2L1.45 4.45L3.85 10.7L7.25 10.85L8.5 12.3" />
<radialGradient
id="RadialGradID_1982" gradientUnits="userSpaceOnUse" gradientTransform="matrix(0.00408936, -0.00183105, 0.00358582, 0.00794983, -4.85, -11.55)" spreadMethod ="pad" cx="0" cy="0" r="819.2" fx="0" fy="0" >
<stop  offset="0"  style="stop-color:#D9EFFF;stop-opacity:1" />
<stop  offset="1"  style="stop-color:#A1D7FF;stop-opacity:0.501961" />
<stop  offset="1"  style="stop-color:#000000;stop-opacity:1" />
<stop  offset="1"  style="stop-color:#000000;stop-opacity:1" />
</radialGradient>
<path style="fill:url(#RadialGradID_1982) " d="M-5.05 -13.95L-4.3 -12.1L-2.95 -15.05L-1 -15.25L-1.15 -13.2L-4 -11.35L-1.85 -4.8L-4.95 -10.75L-8.35 -10.45L-9.75 -11.7L-8.4 -12.6L-5.35 -11.55L-6.35 -13.55L-8.15 -14.1L-7.25 -17.35L-4.35 -16.25L-5.05 -13.95" />
<radialGradient
id="RadialGradID_1983" gradientUnits="userSpaceOnUse" gradientTransform="matrix(0.016922, 0.00314331, -0.00132751, 0.00709534, -11.75, -1.65)" spreadMethod ="pad" cx="0" cy="0" r="819.2" fx="210531" fy="0" >
<stop  offset="0"  style="stop-color:#D9EFFF;stop-opacity:1" />
<stop  offset="1"  style="stop-color:#A1D7FF;stop-opacity:0.501961" />
<stop  offset="1"  style="stop-color:#000000;stop-opacity:1" />
<stop  offset="1"  style="stop-color:#000000;stop-opacity:1" />
</radialGradient>
<path style="fill:url(#RadialGradID_1983) " d="M-11.15 -5.6L-11.15 -2.05L-4.7 -0.5L-11.15 -0.95L-12.75 2.25L-14.5 2.8L-14.5 1.2L-12.05 -1L-14.2 -1.15L-15.6 0.15L-17.75 -2.4L-15.35 -4.35L-13.85 -2.5L-11.95 -2.2L-13.6 -5L-12.75 -6.8L-11.15 -5.6" />
<radialGradient
id="RadialGradID_1984" gradientUnits="userSpaceOnUse" gradientTransform="matrix(0.00267029, 0.00267029, -0.00634766, 0.00634766, -7.95, 9.15)" spreadMethod ="pad" cx="0" cy="0" r="819.2" fx="0" fy="0" >
<stop  offset="0"  style="stop-color:#D9EFFF;stop-opacity:1" />
<stop  offset="1"  style="stop-color:#A1D7FF;stop-opacity:0.501961" />
<stop  offset="1"  style="stop-color:#000000;stop-opacity:1" />
<stop  offset="1"  style="stop-color:#000000;stop-opacity:1" />
</radialGradient>
<path style="fill:url(#RadialGradID_1984) " d="M-9.15 11.75L-8.9 13.65L-12.15 14.1L-12.3 10.9L-10 10.7L-8.7 9.25L-11.8 9.05L-12.75 7.25L-10.9 6.6L-8.15 8.65L-3.2 4L-7.2 9.3L-5.65 12.45L-6.2 14.25L-7.5 13.35L-7.8 9.95L-9.15 11.75" />
</g>
<g id="PathID_4560" transform="matrix(1, 0, 0, 1, 19.05, 18.8)">
<path style="fill:#D9EFFF;fill-opacity:1" d="M14.65 -18.1L14.75 -18.65L14.95 -17.5L15.85 -17.55L15.85 -17.5Q14.95 -17.4 14.85 -16.5L14.8 -16.5L14.45 -17.05L14.15 -17.2Q14.5 -17.3 14.65 -18.1M15 -4.4L15.1 -4.65L15.15 -4.6L15.15 -4.55Q15.15 -4.05 15.5 -3.95L15.25 -3.45L14.9 -4.05L15 -4.4M6.4 2.2L6.3 2.3Q6.05 1.7 6.4 2.2M10.55 14.85Q11.75 14.2 12.05 12.85L12.35 13.65Q12.7 14.6 13.45 14.55Q12 14.75 11.95 16.4L11.5 15L10.55 14.85M-14.85 -17.05L-15.05 -17.2L-14.85 -17.35L-14.85 -17.45L-14.65 -17.45L-14.65 -17.55L-14.45 -18.05L-14.25 -17.45L-13.95 -17.45L-13.75 -17.3L-13.95 -17.05L-14.25 -17.05L-14.25 -16.85Q-14.3 -16.45 -14.45 -16.35Q-14.65 -16.45 -14.65 -17.05L-14.85 -17.05M-12.45 -9.9L-12.05 -9.9L-12.05 -10.75Q-11.65 -10.8 -11.55 -9.95L-11.5 -9.95Q-11.2 -10 -11.15 -9.8L-11.35 -9.55L-11.5 -9.55Q-11.5 -8.9 -11.7 -8.9L-11.9 -8.95L-11.95 -9.5L-12.3 -9.5L-12.5 -9.7L-12.45 -9.9M-2.5 -4.55L-2.5 -4.65Q-1.9 -5.05 -2.5 -4.55M-3.15 3.15L-3.25 3.25Q-3.35 2.7 -3.15 3.15M-14.45 5.95L-14.4 5.9L-14.05 5.85L-13.8 5.5L-13.6 5.8L-13 5.95L-13.05 5.95Q-13.7 5.95 -13.7 6.55L-13.7 6.6L-13.8 6.65L-13.85 6.6L-13.85 6.55Q-13.85 6 -14.3 6L-14.4 6L-14.45 5.95M-17.9 16.25Q-17.9 16.05 -17.15 16L-16.95 15.3L-16.75 15.95L-16.25 15.95L-16.05 16.1L-16.25 16.35L-16.75 16.35L-16.95 17.4L-17.15 16.35L-17.65 16.5L-17.85 16.45L-17.9 16.25M-5.35 15.7L-5.35 15.8L-4.85 16.35Q-5.25 16.35 -5.3 16.8L-5.35 16.8L-5.4 16.8Q-5.4 16.35 -5.65 16.3L-5.65 16.25L-5.55 16.15L-5.45 15.85L-5.35 15.7" />
</g>
</svg>
