<?xml version="1.0" encoding="utf-8"?>
<svg version="1.1" id="Layer_1"
xmlns="http://www.w3.org/2000/svg"
xmlns:xlink="http://www.w3.org/1999/xlink"
width="42px" height="29px"
xml:space="preserve">
<g id="PathID_3985" transform="matrix(1, 0, 0, 1, 0, 0)">
<path style="fill:#54504E;fill-opacity:1" d="M26.85 17.7L26.3 17.4L24.4 17.35Q25.05 16.35 25.85 16.05L26.35 15.9L26.85 17.7M24.75 15.25Q23.7 15.95 26 12.7L26.15 14.5Q25.3 14.8 24.75 15.25M36.15 24.6L36.1 24.9Q35.8 26.75 34 27.65L30.85 28Q28.6 27.6 27.3 26.25L26.95 25.9L26.75 25.5Q26.15 24.4 25.8 22.45Q25.15 20.05 25.05 18.45Q26.3 20.65 28.85 22.05L29.9 22.5Q32.35 24.45 36.15 24.6M15.05 13.85L15.2 12.05Q17.45 15.3 16.45 14.6Q15.9 14.15 15.05 13.85M14.35 17.05L14.85 15.25L15.3 15.4Q16.15 15.7 16.75 16.7L14.9 16.75L14.35 17.05M11.3 21.85L12.35 21.4Q14.9 20 16.15 17.8L15.4 21.8L14.45 24.85L14.2 25.25L13.9 25.6Q12.6 26.95 10.35 27.35L7.2 27Q5.4 26.1 5.1 24.3L5.05 24Q8.85 23.8 11.3 21.85" />
<linearGradient
id="LinearGradID_1746" gradientUnits="userSpaceOnUse" gradientTransform="matrix(0.0100403, 0, 0, 0.00546265, 32.65, 17.75)" spreadMethod ="pad" x1="-819.2" y1="0" x2="819.2" y2="0" >
<stop  offset="0" style="stop-color:#C4C4C4;stop-opacity:1" />
<stop  offset="1" style="stop-color:#808080;stop-opacity:1" />
</linearGradient>
<path style="fill:url(#LinearGradID_1746) " d="M26.35 15.9L29.8 15.55Q32.8 15.35 35.25 14.35Q37.6 13.3 38.5 13.3L39.8 13.55Q40.45 13.9 40.7 14.55Q41.25 16 39.95 17.75Q38.5 20.25 36.5 21.35Q34.1 22.9 31.9 21.75Q31.05 21.35 29.85 20.35L28 18.6L26.85 17.7L26.35 15.9" />
<linearGradient
id="LinearGradID_1747" gradientUnits="userSpaceOnUse" gradientTransform="matrix(0.00640869, -0.00123596, 0.00135803, 0.0088501, 33.8, 12.05)" spreadMethod ="pad" x1="-819.2" y1="0" x2="819.2" y2="0" >
<stop  offset="0" style="stop-color:#C4C4C4;stop-opacity:1" />
<stop  offset="1" style="stop-color:#808080;stop-opacity:1" />
</linearGradient>
<path style="fill:url(#LinearGradID_1747) " d="M29.8 7.4Q36.4 -1.65 40.1 1.35Q42.85 4.75 38.65 10.2Q36.35 13.2 30.5 13.8L26.15 14.5L26 12.7L29.8 7.4" />
<linearGradient
id="LinearGradID_1748" gradientUnits="userSpaceOnUse" gradientTransform="matrix(0.00679016, 0, 0, 0.00585938, 30.55, 23.25)" spreadMethod ="pad" x1="-819.2" y1="0" x2="819.2" y2="0" >
<stop  offset="0" style="stop-color:#C4C4C4;stop-opacity:1" />
<stop  offset="1" style="stop-color:#808080;stop-opacity:1" />
</linearGradient>
<path style="fill:url(#LinearGradID_1748) " d="M36.15 24.6Q32.35 24.45 29.9 22.5L34 22.8Q35.2 22.65 35.65 23.2Q36.15 23.75 36.15 24.6" />
<linearGradient
id="LinearGradID_1749" gradientUnits="userSpaceOnUse" gradientTransform="matrix(-0.00640869, -0.00123596, -0.00135803, 0.0088501, 7.4, 11.4)" spreadMethod ="pad" x1="-819.2" y1="0" x2="819.2" y2="0" >
<stop  offset="0" style="stop-color:#C4C4C4;stop-opacity:1" />
<stop  offset="1" style="stop-color:#808080;stop-opacity:1" />
</linearGradient>
<path style="fill:url(#LinearGradID_1749) " d="M15.05 13.85Q13.45 13.3 10.7 13.15Q4.85 12.55 2.55 9.55Q-1.65 4.1 1.1 0.75Q4.8 -2.3 11.4 6.75L15.2 12.05L15.05 13.85" />
<linearGradient
id="LinearGradID_1750" gradientUnits="userSpaceOnUse" gradientTransform="matrix(-0.0100403, 0, 0, 0.00546265, 8.55, 17.1)" spreadMethod ="pad" x1="-819.2" y1="0" x2="819.2" y2="0" >
<stop  offset="0" style="stop-color:#C4C4C4;stop-opacity:1" />
<stop  offset="1" style="stop-color:#808080;stop-opacity:1" />
</linearGradient>
<path style="fill:url(#LinearGradID_1750) " d="M14.35 17.05Q13.75 17.4 13.2 17.95L11.3 19.7L9.3 21.1Q7.1 22.25 4.7 20.7Q2.7 19.6 1.25 17.1Q-0.05 15.35 0.5 13.9Q0.75 13.25 1.4 12.9L2.7 12.65Q3.6 12.65 5.95 13.7Q8.35 14.7 11.4 14.9L14.85 15.25L14.35 17.05" />
<linearGradient
id="LinearGradID_1751" gradientUnits="userSpaceOnUse" gradientTransform="matrix(-0.00679016, 0, 0, 0.00585938, 10.6, 22.6)" spreadMethod ="pad" x1="-819.2" y1="0" x2="819.2" y2="0" >
<stop  offset="0" style="stop-color:#C4C4C4;stop-opacity:1" />
<stop  offset="1" style="stop-color:#808080;stop-opacity:1" />
</linearGradient>
<path style="fill:url(#LinearGradID_1751) " d="M5.05 24Q5.05 23.1 5.5 22.55Q6 22 7.2 22.15L11.3 21.85Q8.85 23.8 5.05 24" />
</g>
</svg>
