<?xml version="1.0" encoding="utf-8"?>
<svg version="1.1" id="Layer_1"
xmlns="http://www.w3.org/2000/svg"
xmlns:xlink="http://www.w3.org/1999/xlink"
width="4px" height="8px"
xml:space="preserve">
<g id="PathID_4308" transform="matrix(1, 0, 0, 1, 0.2, 0.2)">
<path style="fill:#808080;fill-opacity:1" d="M1.9 0.5L2.15 0.9L2.7 3.05L2.7 5.05L2.45 6.65L1.75 7.15Q1.35 7.15 1.05 6.7Q0.75 6.25 0.7 5.55Q0.85 5.05 0.45 3.25L0 1.5L0 0.65Q0 0.4 0.15 0.25Q0.4 0 0.75 0L1.5 0.25L1.9 0.5" />
<path style="fill:none;stroke-width:0.7;stroke-linecap:round;stroke-linejoin:round;stroke-miterlimit:3;stroke:#000000;stroke-opacity:0.4" d="M1.5 0.25L0.75 0Q0.4 0 0.15 0.25Q0 0.4 0 0.65L0 1.5L0.45 3.25Q0.85 5.05 0.7 5.55Q0.75 6.25 1.05 6.7Q1.35 7.15 1.75 7.15L2.45 6.65L2.7 5.05L2.7 3.05L2.15 0.9L1.9 0.5L1.5 0.25z" />
</g>
</svg>
