<?xml version="1.0" encoding="utf-8"?>
<svg version="1.1" id="Layer_1"
xmlns="http://www.w3.org/2000/svg"
xmlns:xlink="http://www.w3.org/1999/xlink"
width="6px" height="13px"
xml:space="preserve">
<g id="PathID_4241" transform="matrix(1, 0, 0, 1, 0, 0)">
<path style="fill:#808080;fill-opacity:1" d="M5.15 2.55L4.75 3.2L4.1 3.6L3.85 2.25L4.05 1.1Q4 0.4 3.6 0Q4.85 0.3 5.4 1.45L5.15 2.55M5.35 5.4L4.4 6.05L3.4 6.35L3.85 4.85L4.75 4.55L5.75 3.9L5.35 5.4M1.75 2.3L1.3 2L0.7 1.8L0 1.8Q0.25 1.25 1.35 0.4L2.45 1L2.75 1.7L2.15 2L1.75 2.3M4.95 6.85L4.5 8.35L3.4 9.1L2.5 9.5L2.95 8L4 7.6L4.95 6.85M3.55 11.7L2.5 12.4L1.7 12.65L2.15 11.15L2.95 10.9L4 10.05L3.55 11.7" />
</g>
</svg>
