<?xml version="1.0" encoding="utf-8"?>
<svg version="1.1" id="Layer_1"
xmlns="http://www.w3.org/2000/svg"
xmlns:xlink="http://www.w3.org/1999/xlink"
width="63px" height="25px"
xml:space="preserve">
<g id="PathID_2981" transform="matrix(1, 0, 0, 1, 0.3, 0.2)">
<path style="fill:#8A8A8A;fill-opacity:1" d="M55.45 1.8L61.6 3.6L61.6 14.7L57.35 13.6Q55.65 8.4 55.45 1.8M52.05 1.1L52.95 1.3L52.95 12.7L50.15 12.3Q49.85 10.5 49.85 9Q49.85 5.4 51.25 2.5L52.05 1.1M41.3 3.2L41.3 11.7L41.3 3.2L41.3 0L45.9 0.2Q44.8 6.9 44.8 11.6L44.8 11.8L41.3 11.7L35.45 12L36.65 9.7L38.7 6.4Q40.5 3.9 41.3 3.2M24.3 8.4L26.35 1.7L29.65 1L34.45 0.3L34.45 2.1Q34.45 7.8 33.35 12.3L29.65 12.8Q26.05 13.4 22.5 14.5L24.3 8.4M5.05 10L9.25 7.8L9.25 19.4L9.25 7.8Q11.95 12.4 12.25 13.7L12.9 17.8L9.25 19.4L6.65 20.6Q6.15 15.1 5.05 10M16.5 7.8L16.5 4.7L19.3 3.7L16.5 7.8M29.65 1L29.65 12.8L29.65 1" />
<path style="fill:#999999;fill-opacity:1" d="M52.95 1.3L55.45 1.8Q55.65 8.4 57.35 13.6L52.95 12.7L52.95 1.3M45.9 0.2L52.05 1.1L51.25 2.5Q49.85 5.4 49.85 9Q49.85 10.5 50.15 12.3L44.8 11.8L44.8 11.6Q44.8 6.9 45.9 0.2M34.45 2.1L34.45 0.3L41.3 0L41.3 3.2Q40.5 3.9 38.7 6.4L36.65 9.7L35.45 12L33.35 12.3Q34.45 7.8 34.45 2.1M19.3 3.7Q22.8 2.5 26.35 1.7L24.3 8.4L22.5 14.5Q19.5 15.3 16.5 16.4L12.9 17.8L12.25 13.7Q11.95 12.4 9.25 7.8Q12.9 6 16.5 4.7L16.5 7.8L19.3 3.7M6.65 20.6Q3.35 22.2 0 24.1L0 12.9Q2.55 11.3 5.05 10Q6.15 15.1 6.65 20.6M16.5 7.8L16.5 16.4L16.5 7.8" />
<path style="fill:none;stroke-width:0.7;stroke-linecap:round;stroke-linejoin:miter;stroke-miterlimit:5;stroke:#000000;stroke-opacity:0.501961" d="M61.6 3.6L61.6 14.7" />
<path style="fill:none;stroke-width:0.7;stroke-linecap:round;stroke-linejoin:miter;stroke-miterlimit:5;stroke:#000000;stroke-opacity:0.501961" d="M0 24.1L0 12.9" />
<path style="fill:none;stroke-width:0.7;stroke-linecap:round;stroke-linejoin:miter;stroke-miterlimit:5;stroke:#000000;stroke-opacity:0.101961" d="M50.15 12.3Q49.85 10.5 49.85 9Q49.85 5.4 51.25 2.5L52.05 1.1" />
<path style="fill:none;stroke-width:0.7;stroke-linecap:round;stroke-linejoin:round;stroke-miterlimit:3;stroke:#000000;stroke-opacity:0.290196" d="M41.3 3.2L41.3 0" />
<path style="fill:none;stroke-width:0.7;stroke-linecap:round;stroke-linejoin:miter;stroke-miterlimit:5;stroke:#000000;stroke-opacity:0.101961" d="M44.8 11.8L44.8 11.6Q44.8 6.9 45.9 0.2" />
<path style="fill:none;stroke-width:0.7;stroke-linecap:round;stroke-linejoin:round;stroke-miterlimit:3;stroke:#000000;stroke-opacity:0.290196" d="M41.3 3.2L41.3 11.7" />
<path style="fill:none;stroke-width:0.7;stroke-linecap:round;stroke-linejoin:miter;stroke-miterlimit:5;stroke:#000000;stroke-opacity:0.101961" d="M57.35 13.6Q55.65 8.4 55.45 1.8" />
<path style="fill:none;stroke-width:0.7;stroke-linecap:round;stroke-linejoin:round;stroke-miterlimit:3;stroke:#000000;stroke-opacity:0.290196" d="M52.95 12.7L52.95 1.3" />
<path style="fill:none;stroke-width:0.7;stroke-linecap:round;stroke-linejoin:miter;stroke-miterlimit:5;stroke:#000000;stroke-opacity:0.101961" d="M35.45 12L36.65 9.7L38.7 6.4Q40.5 3.9 41.3 3.2" />
<path style="fill:none;stroke-width:0.7;stroke-linecap:round;stroke-linejoin:miter;stroke-miterlimit:5;stroke:#000000;stroke-opacity:0.101961" d="M34.45 0.3L34.45 2.1Q34.45 7.8 33.35 12.3" />
<path style="fill:none;stroke-width:0.7;stroke-linecap:round;stroke-linejoin:miter;stroke-miterlimit:5;stroke:#000000;stroke-opacity:0.101961" d="M26.35 1.7L24.3 8.4L22.5 14.5" />
<path style="fill:none;stroke-width:0.7;stroke-linecap:round;stroke-linejoin:round;stroke-miterlimit:3;stroke:#000000;stroke-opacity:0.290196" d="M29.65 12.8L29.65 1" />
<path style="fill:none;stroke-width:0.7;stroke-linecap:round;stroke-linejoin:round;stroke-miterlimit:3;stroke:#000000;stroke-opacity:0.290196" d="M16.5 4.7L16.5 7.8" />
<path style="fill:none;stroke-width:0.7;stroke-linecap:round;stroke-linejoin:miter;stroke-miterlimit:5;stroke:#000000;stroke-opacity:0.101961" d="M16.5 7.8L19.3 3.7" />
<path style="fill:none;stroke-width:0.7;stroke-linecap:round;stroke-linejoin:miter;stroke-miterlimit:5;stroke:#000000;stroke-opacity:0.101961" d="M12.9 17.8L12.25 13.7Q11.95 12.4 9.25 7.8" />
<path style="fill:none;stroke-width:0.7;stroke-linecap:round;stroke-linejoin:round;stroke-miterlimit:3;stroke:#000000;stroke-opacity:0.290196" d="M9.25 7.8L9.25 19.4" />
<path style="fill:none;stroke-width:0.7;stroke-linecap:round;stroke-linejoin:round;stroke-miterlimit:3;stroke:#000000;stroke-opacity:0.290196" d="M16.5 16.4L16.5 7.8" />
<path style="fill:none;stroke-width:0.7;stroke-linecap:round;stroke-linejoin:miter;stroke-miterlimit:5;stroke:#000000;stroke-opacity:0.101961" d="M6.65 20.6Q6.15 15.1 5.05 10" />
</g>
</svg>
