<?xml version="1.0" encoding="utf-8"?>
<svg version="1.1" id="Layer_1"
xmlns="http://www.w3.org/2000/svg"
xmlns:xlink="http://www.w3.org/1999/xlink"
width="24px" height="31px"
xml:space="preserve">
<g id="PathID_4359" transform="matrix(1, 0, 0, 1, 14.65, 17.65)">
<path style="fill:#FFFFFF;fill-opacity:0.690196" d="M-10 -12.2Q-9.05 -13.7 -10.05 -17.65Q-8 -13.35 -7.35 -12.9Q-5.3 -11.25 -0.7 -13Q-6.95 -10.25 -7.6 -9.2Q-7.95 -8.45 -7.4 -6.25Q-8.3 -9.6 -10.6 -9.9L-14.65 -9.2Q-11.05 -10.45 -10 -12.2" />
</g>
<g id="PathID_4360" transform="matrix(1, 0, 0, 1, 14.65, 17.65)">
<path style="fill:#FFFFFF;fill-opacity:0.4" d="M9.3 -9.3Q6.1 -10.7 3.5 -10.7Q0.9 -10.7 -2.45 -9.2Q-5.9 -7.6 -7.95 -3.9Q-9.95 -0.15 -9.25 3.75Q-8.4 7.7 -2.5 12.65Q-8.15 10.65 -9.95 9.35Q-11.75 8 -13.4 3Q-15.15 -2 -12.65 -6.6Q-10.15 -11.1 -5.55 -12.65Q-0.95 -14.15 2.95 -12.8L4.7 -12.15L9.3 -9.3" />
</g>
</svg>
