<?xml version="1.0" encoding="utf-8"?>
<svg version="1.1" id="Layer_1"
xmlns="http://www.w3.org/2000/svg"
xmlns:xlink="http://www.w3.org/1999/xlink"
width="12px" height="10px"
xml:space="preserve">
<g id="PathID_4257" transform="matrix(1, 0, 0, 1, 0.2, 0.2)">
<path style="fill:#54504E;fill-opacity:1" d="M6 5.5Q10.1 4.4 8.9 0.4L10.4 0.9Q11.75 5.2 10.4 9.5L0.55 9.5Q0.05 7.6 0 5.7L6 5.5" />
<path style="fill:#808080;fill-opacity:1" d="M0 5.7Q-0.05 3.3 0.55 0.9Q5 -0.65 8.9 0.4Q10.1 4.4 6 5.5L0 5.7M6.5 1.8Q6.5 0.95 3.85 1Q1.2 1 1.2 2.95L1.2 3.65Q1.3 4.3 1.65 4.3L6.5 1.8" />
<path style="fill:#B8B8B8;fill-opacity:1" d="M1.65 4.3Q1.3 4.3 1.2 3.65L1.2 2.95Q1.2 1 3.85 1Q6.5 0.95 6.5 1.8L1.65 4.3" />
<path style="fill:none;stroke-width:0.7;stroke-linecap:round;stroke-linejoin:round;stroke-miterlimit:3;stroke:#000000;stroke-opacity:0.388235" d="M8.9 0.4L10.4 0.9Q11.75 5.2 10.4 9.5L0.55 9.5Q0.05 7.6 0 5.7Q-0.05 3.3 0.55 0.9Q5 -0.65 8.9 0.4z" />
</g>
</svg>
