<?xml version="1.0" encoding="utf-8"?>
<svg version="1.1" id="Layer_1"
xmlns="http://www.w3.org/2000/svg"
xmlns:xlink="http://www.w3.org/1999/xlink"
width="59px" height="59px"
xml:space="preserve">
<g id="PathID_3366" transform="matrix(1, 0, 0, 1, 0, 0.15)">
<path style="fill:#6D6D6D;fill-opacity:1" d="M52.4 0.75Q52.15 0.5 51.7 0.4Q51.2 0.4 50.85 0.85L50.5 0.9Q50.1 0.4 49.55 0.4Q49 0.55 48.7 1L46.75 1.15L46.35 1.15L43 1.35L42.5 1.4L39.9 1.5L39.3 1.55L39.3 1.5L39.25 1.35L39 0.95L38.1 0.4Q37.45 0.4 37.05 1.15Q36.65 0.4 35.95 0.4Q35.2 0.6 34.95 1.35L34.9 1.4L34.85 1.65L33.75 1.65L23.8 0.85L23.35 0.55L22.95 0.4L22.6 0.5L22.3 0.7L21.5 0.65L20.8 0.4L20.45 0.55L13.8 0L58.25 0L58.25 0.35L52.4 0.75M18.3 4.45L19.75 4.25L20.9 4.1L21.3 4.45L21.85 4.8L22.75 4.25L23.15 3.95L24.2 3.9L25.3 3.85L32.2 4.15L33.9 4.3L36.5 4.5L36.9 4.5L37.2 4.55L37.45 4.55L37.95 4.6L44.55 5.3L14.25 5.3L18.3 4.45M50.55 0.35L42.85 0.35L50.55 0.35M36.55 52.7L58.1 52.7L58.1 53.3Q56.55 53.3 53.3 54.2L52.6 54.4L52.3 53.65Q52 53.25 51.4 53.1Q50.75 53.1 50.35 53.85Q49.95 53.1 49.25 53.1Q48.35 53.3 48.15 54.35L48.1 54.65L48.25 55.05L46.95 55L42.6 54.35L41.5 54.1L39.45 53.6L39.4 53.6L38.1 53.25L36.55 52.7M0 58L0 52.75L1.2 52.7L5 52.7L8.3 53.1Q7.75 53.15 7.35 53.8L7.3 53.85L7.3 53.8Q6.85 53.1 6.2 53.1Q5.75 53.2 5.5 53.55Q5.1 53.9 5.05 54.65Q5.35 55.9 6.4 56.85L7.25 57.5L8.2 56.85L8.8 56.3Q9.4 55.55 9.5 54.65L9.5 54.1L9.25 53.65Q8.95 53.25 8.4 53.15L11.35 53.55L13.15 53.8L13.2 53.8L14.55 54L15.35 54.1Q17.5 54.3 19.9 55.05L19.95 55.2L20.05 55.4Q20.6 56.65 22 57.5L23.25 56.6L23.45 56.45L23.55 56.3L23.9 56.45L24.3 56.6L24.4 56.65L28.45 58L0 58M1.7 54.3Q1.2 54.85 1.2 55.55Q1.2 56.25 1.7 56.75Q2.2 57.25 2.95 57.25Q3.65 57.25 4.15 56.75Q4.65 56.25 4.65 55.55Q4.65 54.85 4.15 54.3Q3.65 53.8 2.95 53.8Q2.2 53.8 1.7 54.3" />
<path style="fill:#8C8C8C;fill-opacity:1" d="M37.95 4.6L37.45 4.55L37.8 4.3L38.55 3.6Q39.15 2.85 39.25 1.95L39.3 1.65L39.3 1.55L39.9 1.5L42.5 1.4L43 1.35L46.35 1.15L46.75 1.15L48.7 1L48.55 1.35L48.5 1.4L48.4 1.95L48.55 2.45Q49.05 3.85 50.6 4.8L52.15 3.6L52.2 3.55L52.85 1.95L52.85 1.35L52.75 1.15L52.6 0.95L52.4 0.75L58.25 0.35L58.25 5.3L44.55 5.3L37.95 4.6M20.3 0.65Q19.9 0.9 19.75 1.35L19.65 1.95Q19.9 3.1 20.8 4L20.9 4.1L19.75 4.25L18.3 4.45L14.25 5.3L0.15 5.3L0.15 0L13.8 0L20.45 0.55L20.3 0.65M34.8 1.95Q35.1 3.2 36.1 4.15L36.5 4.5L33.9 4.3L32.2 4.15L25.3 3.85L24.2 3.9L23.15 3.95L23.15 3.9L23.4 3.6Q24 2.85 24.1 1.95L24.1 1.35L23.85 0.95L23.85 0.9L23.8 0.85L33.75 1.65L34.85 1.65L34.8 1.95M56.85 3.05Q56.85 2.3 56.35 1.8Q55.95 1.4 55.4 1.35L55.15 1.3L54.7 1.35Q54.25 1.45 53.9 1.8Q53.4 2.3 53.4 3.05Q53.4 3.75 53.9 4.25Q54.4 4.75 55.15 4.75Q55.85 4.75 56.35 4.25Q56.85 3.75 56.85 3.05M47.05 3.55L45.05 3.55L47.05 3.55M9.95 0.95L15.8 0.95L9.9 2.25L10.85 2.25L9.15 2.25L9.2 1.95L9.2 1.35L8.95 0.95Q8.65 0.55 8.05 0.4L9.95 0.95M8.05 0.4Q7.5 0.4 7.15 0.95L7 1.15L6.9 0.95Q6.5 0.4 5.9 0.4L5.05 0.95L4.9 1.35L4.75 1.95L4.85 2.25Q5.05 3 5.6 3.65Q6.1 4.3 6.95 4.8L8.45 3.65L8.5 3.6L9.15 2.25L9.9 2.25L9.95 0.95L8.95 0.95M2.95 1.3Q2.2 1.3 1.7 1.8Q1.2 2.3 1.2 3.05Q1.2 3.75 1.7 4.25Q2.2 4.75 2.95 4.75Q3.65 4.75 4.15 4.25Q4.65 3.75 4.65 3.05Q4.65 2.3 4.15 1.8L3.35 1.35L2.95 1.3M10.85 2.25L9.9 2.25M15.1 3.65L9.3 3.65L15.1 3.65M15.8 0.95L9.95 0.95M8.3 53.1L5 52.7L36.55 52.7L38.1 53.25Q37.75 53.4 37.5 53.85Q37.1 53.1 36.4 53.1Q35.35 53.35 35.25 54.65L35.35 54.95Q35.65 55.95 36.45 56.75L37.45 57.5L38.55 56.75L39 56.3Q39.5 55.7 39.65 54.95L39.7 54.65Q39.8 54.05 39.45 53.65L39.45 53.6L41.5 54.1L42.6 54.35L46.95 55L48.25 55.05Q48.55 56 49.35 56.75L50.3 57.5L51.4 56.75L51.85 56.3L52.5 55L52.55 54.65L52.6 54.4L53.3 54.2Q56.55 53.3 58.1 53.3L58.1 58L28.45 58L24.4 56.65L24.3 56.6L23.9 56.45L23.55 56.3L24.2 54.95L24.25 54.65Q24.35 54.05 24 53.65L23.1 53.1Q22.45 53.1 22.05 53.85Q21.65 53.1 20.95 53.1Q19.9 53.35 19.8 54.65L19.9 55.05Q17.5 54.3 15.35 54.1L14.55 54L13.2 53.8L13.15 53.8L11.35 53.55L8.4 53.15L8.3 53.1M36.05 56.75L36.45 56.75L36.05 56.75M24.65 54.95L35.35 54.95L24.65 54.95M56.35 54.3Q55.85 53.8 55.15 53.8Q54.4 53.8 53.9 54.3Q53.4 54.85 53.4 55.55Q53.4 56.25 53.9 56.75Q54.4 57.25 55.15 57.25Q55.85 57.25 56.35 56.75Q56.85 56.25 56.85 55.55Q56.85 54.85 56.35 54.3M42.15 54.95L39.65 54.95L42.15 54.95M48.35 56.75L38.55 56.75L48.35 56.75" />
<path style="fill:#808080;fill-opacity:1" d="M56.35 4.25Q55.85 4.75 55.15 4.75Q54.4 4.75 53.9 4.25Q53.4 3.75 53.4 3.05Q53.4 2.3 53.9 1.8Q54.25 1.45 54.7 1.35L55.15 1.3L55.4 1.35Q55.95 1.4 56.35 1.8Q56.85 2.3 56.85 3.05Q56.85 3.75 56.35 4.25M3.35 1.35L4.15 1.8Q4.65 2.3 4.65 3.05Q4.65 3.75 4.15 4.25Q3.65 4.75 2.95 4.75Q2.2 4.75 1.7 4.25Q1.2 3.75 1.2 3.05Q1.2 2.3 1.7 1.8Q2.2 1.3 2.95 1.3L3.35 1.35M2.95 53.8Q3.65 53.8 4.15 54.3Q4.65 54.85 4.65 55.55Q4.65 56.25 4.15 56.75Q3.65 57.25 2.95 57.25Q2.2 57.25 1.7 56.75Q1.2 56.25 1.2 55.55Q1.2 54.85 1.7 54.3Q2.2 53.8 2.95 53.8M56.85 55.55Q56.85 56.25 56.35 56.75Q55.85 57.25 55.15 57.25Q54.4 57.25 53.9 56.75Q53.4 56.25 53.4 55.55Q53.4 54.85 53.9 54.3Q54.4 53.8 55.15 53.8Q55.85 53.8 56.35 54.3Q56.85 54.85 56.85 55.55" />
<path style="fill:none;stroke-width:0.7;stroke-linecap:round;stroke-linejoin:miter;stroke-miterlimit:5;stroke:#000000;stroke-opacity:0.101961" d="M13.8 0L20.45 0.55" />
<path style="fill:none;stroke-width:0.7;stroke-linecap:round;stroke-linejoin:miter;stroke-miterlimit:5;stroke:#000000;stroke-opacity:0.101961" d="M21.5 0.65L22.3 0.7" />
<path style="fill:none;stroke-width:0.7;stroke-linecap:round;stroke-linejoin:miter;stroke-miterlimit:5;stroke:#000000;stroke-opacity:0.101961" d="M23.8 0.85L33.75 1.65L34.85 1.65" />
<path style="fill:none;stroke-width:0.7;stroke-linecap:round;stroke-linejoin:miter;stroke-miterlimit:5;stroke:#000000;stroke-opacity:0.101961" d="M39.3 1.55L39.9 1.5L42.5 1.4L43 1.35L46.35 1.15L46.75 1.15L48.7 1" />
<path style="fill:none;stroke-width:0.7;stroke-linecap:round;stroke-linejoin:miter;stroke-miterlimit:5;stroke:#000000;stroke-opacity:0.101961" d="M50.5 0.9L50.85 0.85" />
<path style="fill:none;stroke-width:0.7;stroke-linecap:round;stroke-linejoin:miter;stroke-miterlimit:5;stroke:#000000;stroke-opacity:0.101961" d="M52.4 0.75L58.25 0.35" />
<path style="fill:none;stroke-width:0.7;stroke-linecap:round;stroke-linejoin:miter;stroke-miterlimit:5;stroke:#000000;stroke-opacity:0.152941" d="M56.35 4.25Q55.85 4.75 55.15 4.75Q54.4 4.75 53.9 4.25Q53.4 3.75 53.4 3.05Q53.4 2.3 53.9 1.8Q54.25 1.45 54.7 1.35L55.15 1.3L55.4 1.35Q55.95 1.4 56.35 1.8Q56.85 2.3 56.85 3.05Q56.85 3.75 56.35 4.25z" />
<path style="fill:none;stroke-width:0.7;stroke-linecap:round;stroke-linejoin:miter;stroke-miterlimit:5;stroke:#000000;stroke-opacity:0.101961" d="M45.05 3.55L47.05 3.55" />
<path style="fill:none;stroke-width:0.7;stroke-linecap:round;stroke-linejoin:miter;stroke-miterlimit:5;stroke:#000000;stroke-opacity:0.101961" d="M42.85 0.35L50.55 0.35" />
<path style="fill:none;stroke-width:0.7;stroke-linecap:round;stroke-linejoin:miter;stroke-miterlimit:5;stroke:#000000;stroke-opacity:0.101961" d="M37.45 4.55L37.95 4.6L44.55 5.3" />
<path style="fill:none;stroke-width:0.7;stroke-linecap:round;stroke-linejoin:miter;stroke-miterlimit:5;stroke:#000000;stroke-opacity:0.101961" d="M37.45 4.55L37.2 4.55L36.9 4.5L36.5 4.5L33.9 4.3L32.2 4.15L25.3 3.85L24.2 3.9L23.15 3.95" />
<path style="fill:none;stroke-width:0.7;stroke-linecap:round;stroke-linejoin:miter;stroke-miterlimit:5;stroke:#000000;stroke-opacity:0.101961" d="M20.9 4.1L19.75 4.25L18.3 4.45L14.25 5.3" />
<path style="fill:none;stroke-width:0.7;stroke-linecap:round;stroke-linejoin:miter;stroke-miterlimit:5;stroke:#000000;stroke-opacity:0.101961" d="M9.15 2.25L9.9 2.25L9.95 0.95L8.95 0.95" />
<path style="fill:none;stroke-width:0.7;stroke-linecap:round;stroke-linejoin:miter;stroke-miterlimit:5;stroke:#000000;stroke-opacity:0.101961" d="M9.15 2.25L6.75 2.25" />
<path style="fill:none;stroke-width:0.7;stroke-linecap:round;stroke-linejoin:miter;stroke-miterlimit:5;stroke:#000000;stroke-opacity:0.152941" d="M3.35 1.35L4.15 1.8Q4.65 2.3 4.65 3.05Q4.65 3.75 4.15 4.25Q3.65 4.75 2.95 4.75Q2.2 4.75 1.7 4.25Q1.2 3.75 1.2 3.05Q1.2 2.3 1.7 1.8Q2.2 1.3 2.95 1.3L3.35 1.35z" />
<path style="fill:none;stroke-width:0.7;stroke-linecap:round;stroke-linejoin:miter;stroke-miterlimit:5;stroke:#000000;stroke-opacity:0.101961" d="M10.85 2.25L9.9 2.25" />
<path style="fill:none;stroke-width:0.7;stroke-linecap:round;stroke-linejoin:miter;stroke-miterlimit:5;stroke:#000000;stroke-opacity:0.101961" d="M9.3 3.65L15.1 3.65" />
<path style="fill:none;stroke-width:0.7;stroke-linecap:round;stroke-linejoin:miter;stroke-miterlimit:5;stroke:#000000;stroke-opacity:0.101961" d="M9.95 0.95L15.8 0.95" />
<path style="fill:none;stroke-width:0.7;stroke-linecap:round;stroke-linejoin:miter;stroke-miterlimit:5;stroke:#000000;stroke-opacity:0.101961" d="M38.1 53.25L39.4 53.6L39.45 53.6L41.5 54.1L42.6 54.35L46.95 55L48.25 55.05" />
<path style="fill:none;stroke-width:0.7;stroke-linecap:round;stroke-linejoin:miter;stroke-miterlimit:5;stroke:#000000;stroke-opacity:0.101961" d="M52.6 54.4L53.3 54.2Q56.55 53.3 58.1 53.3" />
<path style="fill:none;stroke-width:0.7;stroke-linecap:round;stroke-linejoin:miter;stroke-miterlimit:5;stroke:#000000;stroke-opacity:0.101961" d="M36.55 52.7L38.1 53.25" />
<path style="fill:none;stroke-width:0.7;stroke-linecap:round;stroke-linejoin:miter;stroke-miterlimit:5;stroke:#000000;stroke-opacity:0.101961" d="M36.45 56.75L36.05 56.75" />
<path style="fill:none;stroke-width:0.7;stroke-linecap:round;stroke-linejoin:miter;stroke-miterlimit:5;stroke:#000000;stroke-opacity:0.101961" d="M23.55 56.3L23.9 56.45L24.3 56.6L24.4 56.65L28.45 58" />
<path style="fill:none;stroke-width:0.7;stroke-linecap:round;stroke-linejoin:miter;stroke-miterlimit:5;stroke:#000000;stroke-opacity:0.101961" d="M19.9 55.05Q17.5 54.3 15.35 54.1L14.55 54L13.2 53.8L13.15 53.8L11.35 53.55L8.4 53.15" />
<path style="fill:none;stroke-width:0.7;stroke-linecap:round;stroke-linejoin:miter;stroke-miterlimit:5;stroke:#000000;stroke-opacity:0.101961" d="M8.3 53.1L5 52.7" />
<path style="fill:none;stroke-width:0.7;stroke-linecap:round;stroke-linejoin:miter;stroke-miterlimit:5;stroke:#000000;stroke-opacity:0.101961" d="M35.35 54.95L24.65 54.95" />
<path style="fill:none;stroke-width:0.7;stroke-linecap:round;stroke-linejoin:miter;stroke-miterlimit:5;stroke:#000000;stroke-opacity:0.101961" d="M8.3 53.1L8.4 53.15" />
<path style="fill:none;stroke-width:0.7;stroke-linecap:round;stroke-linejoin:miter;stroke-miterlimit:5;stroke:#000000;stroke-opacity:0.152941" d="M2.95 53.8Q3.65 53.8 4.15 54.3Q4.65 54.85 4.65 55.55Q4.65 56.25 4.15 56.75Q3.65 57.25 2.95 57.25Q2.2 57.25 1.7 56.75Q1.2 56.25 1.2 55.55Q1.2 54.85 1.7 54.3Q2.2 53.8 2.95 53.8z" />
<path style="fill:none;stroke-width:0.7;stroke-linecap:round;stroke-linejoin:miter;stroke-miterlimit:5;stroke:#000000;stroke-opacity:0.152941" d="M56.85 55.55Q56.85 56.25 56.35 56.75Q55.85 57.25 55.15 57.25Q54.4 57.25 53.9 56.75Q53.4 56.25 53.4 55.55Q53.4 54.85 53.9 54.3Q54.4 53.8 55.15 53.8Q55.85 53.8 56.35 54.3Q56.85 54.85 56.85 55.55z" />
<path style="fill:none;stroke-width:0.7;stroke-linecap:round;stroke-linejoin:miter;stroke-miterlimit:5;stroke:#000000;stroke-opacity:0.101961" d="M39.65 54.95L42.15 54.95" />
<path style="fill:none;stroke-width:0.7;stroke-linecap:round;stroke-linejoin:miter;stroke-miterlimit:5;stroke:#000000;stroke-opacity:0.101961" d="M38.55 56.75L48.35 56.75" />
</g>
</svg>
