<?xml version="1.0" encoding="utf-8"?>
<svg version="1.1" id="Layer_1"
xmlns="http://www.w3.org/2000/svg"
xmlns:xlink="http://www.w3.org/1999/xlink"
width="12px" height="13px"
xml:space="preserve">
<g id="PathID_3844" transform="matrix(1, 0, 0, 1, 5.4, 6.5)">
<path style="fill:#FFFFFF;fill-opacity:0.14902" d="M0.5 -6.5L1.05 -6.35L1.25 -6.15L4.75 -3.5L4.8 -3.5L6.35 -1.8L6.55 -1.15L6.3 -0.55L5.7 -0.3Q5.3 -0.3 5.05 -0.6L3.45 -2.35L1 -4.25Q1.65 -3.55 1.7 -1.25L1.55 2.35Q1.3 3.65 1.5 5.6L1.3 6.2L0.7 6.5L0.05 6.35L-0.25 5.75Q-0.45 3.55 -0.2 2.05Q0 0.75 -0.05 -1.2Q-0.1 -2.7 -0.3 -3L-0.3 -3.05Q-0.6 -3.2 -0.7 -3.4L-1.25 -3.3L-1.2 -3.3Q-2.4 -3 -3.75 -0.7L-4.3 -0.3L-4.95 -0.45L-5.35 -0.95L-5.25 -1.65Q-3.35 -4.8 -1.5 -5.05Q-0.75 -5.15 -0.35 -5.65L-0.15 -6.05Q0.05 -6.35 0.4 -6.45L0.5 -6.5" />
</g>
</svg>
