<?xml version="1.0" encoding="utf-8"?>
<svg version="1.1" id="Layer_1"
xmlns="http://www.w3.org/2000/svg"
xmlns:xlink="http://www.w3.org/1999/xlink"
width="104px" height="13px"
xml:space="preserve">
<g id="PathID_2654" transform="matrix(1, 0, 0, 1, 0.25, 0.25)">
<path style="fill:#808080;fill-opacity:1" d="M0.1 7.25Q-0.5 2.65 2.9 0L99.25 0Q103.15 2.2 103 5.8L101.1 3.4Q99.45 1.1 96.55 1.35L4.55 1.35Q0.4 2.8 2.9 11.8Q0.65 11.85 0.1 7.25" />
<path style="fill:#B1B1B1;fill-opacity:1" d="M100.4 11.8L2.9 11.8Q0.4 2.8 4.55 1.35L96.55 1.35Q99.45 1.1 101.1 3.4L103 5.8Q102.85 8.95 100.4 11.8" />
<path style="fill:none;stroke-width:0.7;stroke-linecap:butt;stroke-linejoin:bevel;stroke-miterlimit:3;stroke:#000000;stroke-opacity:0.501961" d="M2.9 11.8L100.4 11.8Q102.85 8.95 103 5.8Q103.15 2.2 99.25 0L2.9 0Q-0.5 2.65 0.1 7.25Q0.65 11.85 2.9 11.8z" />
</g>
</svg>
