<?xml version="1.0" encoding="utf-8"?>
<svg version="1.1" id="Layer_1"
xmlns="http://www.w3.org/2000/svg"
xmlns:xlink="http://www.w3.org/1999/xlink"
width="30px" height="32px"
xml:space="preserve">
<g id="PathID_2725" transform="matrix(1, 0, 0, 1, 0.15, 0.15)">
<path style="fill:#808080;fill-opacity:1" d="M26.25 11.55L26.05 11.65Q19.95 15.7 9.95 16.15Q22.55 17.15 15.3 19.25Q21.35 18.35 25.6 23.35Q19 27.2 13.5 24.25Q11.85 23.4 10.3 21.9Q17.5 27.1 17.5 30.8Q11.3 30.25 8.2 27.55L7.35 26.7L6.05 24.8Q1.2 22.85 0 19.65L0.85 15.1Q2.95 5.75 9.95 0.2Q10.35 3.15 8.3 7.4L7 9.7Q12.5 0.5 18.95 0Q17.85 4.05 11.95 8.05Q18.5 5.3 28.95 9.25L26.25 11.55M10.3 21.9Q11.85 23.4 13.5 24.25M7 9.7L8.3 7.4M6.05 24.8L7.35 26.7M9.95 16.15Q19.95 15.7 26.05 11.65" />
<path style="fill:none;stroke-width:0.7;stroke-linecap:round;stroke-linejoin:round;stroke-miterlimit:3;stroke:#000000;stroke-opacity:0.301961" d="M26.25 11.55L26.05 11.65Q22.55 17.15 15.3 19.25Q21.35 18.35 25.6 23.35Q19 27.2 13.5 24.25Q17.5 27.1 17.5 30.8Q11.3 30.25 8.2 27.55L7.35 26.7Q1.2 22.85 0 19.65L0.85 15.1Q2.95 5.75 9.95 0.2Q10.35 3.15 8.3 7.4Q12.5 0.5 18.95 0Q17.85 4.05 11.95 8.05Q18.5 5.3 28.95 9.25L26.25 11.55z" />
<path style="fill:none;stroke-width:0.7;stroke-linecap:round;stroke-linejoin:round;stroke-miterlimit:3;stroke:#000000;stroke-opacity:0.301961" d="M13.5 24.25Q11.85 23.4 10.3 21.9" />
<path style="fill:none;stroke-width:0.7;stroke-linecap:round;stroke-linejoin:round;stroke-miterlimit:3;stroke:#000000;stroke-opacity:0.301961" d="M8.3 7.4L7 9.7" />
<path style="fill:none;stroke-width:0.7;stroke-linecap:round;stroke-linejoin:round;stroke-miterlimit:3;stroke:#000000;stroke-opacity:0.301961" d="M6.05 24.8L7.35 26.7" />
<path style="fill:none;stroke-width:0.7;stroke-linecap:round;stroke-linejoin:round;stroke-miterlimit:3;stroke:#000000;stroke-opacity:0.301961" d="M26.05 11.65Q19.95 15.7 9.95 16.15" />
</g>
</svg>
