<?xml version="1.0" encoding="utf-8"?>
<svg version="1.1" id="Layer_1"
xmlns="http://www.w3.org/2000/svg"
xmlns:xlink="http://www.w3.org/1999/xlink"
width="62px" height="62px"
xml:space="preserve">
<g id="PathID_3079" transform="matrix(1, 0, 0, 1, 0.3, 0.3)">
<path style="fill:#AAAAAA;fill-opacity:1" d="M0 60.3L0 53.65L58.8 0L61.05 0L61.05 4.55L0 60.3M6.85 61.05L4 61.05L61.05 9L61.05 11.6L6.85 61.05M35.35 61.05L32.55 61.05L61.05 35L61.05 37.6L35.35 61.05M47.75 61.05L39.25 61.05L61.05 41.15L61.05 48.9L47.75 61.05M49.15 0L54.95 0L0 50.2L0 44.9L49.15 0" />
<path style="fill:#5D5A58;fill-opacity:1" d="M4 61.05L0 61.05L0 60.3L61.05 4.55L61.05 9L4 61.05M39.25 61.05L35.35 61.05L61.05 37.6L61.05 41.15L39.25 61.05M54.95 0L58.8 0L0 53.65L0 50.2L54.95 0" />
<path style="fill:#808080;fill-opacity:1" d="M32.55 61.05L6.85 61.05L61.05 11.6L61.05 35L32.55 61.05M61.05 48.9L61.05 61.05L47.75 61.05L61.05 48.9M0 44.9L0 0L49.15 0L0 44.9" />
<path style="fill:none;stroke-width:0.7;stroke-linecap:round;stroke-linejoin:round;stroke-miterlimit:3;stroke:#000000;stroke-opacity:0.478431" d="M58.8 0L61.05 0L61.05 4.55L61.05 9L61.05 11.6L61.05 35L61.05 37.6L61.05 41.15L61.05 48.9L61.05 61.05L47.75 61.05L39.25 61.05L35.35 61.05L32.55 61.05L6.85 61.05L4 61.05L0 61.05L0 60.3L0 53.65L0 50.2L0 44.9L0 0L49.15 0L54.95 0L58.8 0z" />
</g>
</svg>
