<?xml version="1.0" encoding="utf-8"?>
<svg version="1.1" id="Layer_1"
xmlns="http://www.w3.org/2000/svg"
xmlns:xlink="http://www.w3.org/1999/xlink"
width="12px" height="4px"
xml:space="preserve">
<g id="PathID_3175" transform="matrix(1, 0, 0, 1, 4.6, 8.4)">
<path style="fill:#FFFFFF;fill-opacity:1" d="M-3.4 -6.8L-3.55 -7.45L-3.4 -8.2L-2.95 -8.4L-2.45 -8.2L-2.4 -7.45L-2.45 -6.8Q-2.75 -6.5 -2.95 -6.5L-3.4 -6.8" />
</g>
<g id="PathID_3176" transform="matrix(1, 0, 0, 1, 4.6, 8.4)">
<path style="fill:#FFFFFF;fill-opacity:1" d="M-4.5 -5.4L-4.6 -5.85L-4.5 -6.35L-4.2 -6.5L-3.85 -6.35L-3.75 -5.85L-3.85 -5.4Q-4.05 -5.25 -4.2 -5.25Q-4.35 -5.25 -4.5 -5.4" />
</g>
<g id="PathID_3177" transform="matrix(1, 0, 0, 1, 4.6, 8.4)">
<path style="fill:#FFFFFF;fill-opacity:1" d="M5.3 -6.8L4.85 -6.5Q4.65 -6.5 4.35 -6.8L4.3 -7.45L4.35 -8.2L4.85 -8.4L5.3 -8.2L5.45 -7.45L5.3 -6.8" />
</g>
<g id="PathID_3178" transform="matrix(1, 0, 0, 1, 4.6, 8.4)">
<path style="fill:#FFFFFF;fill-opacity:1" d="M6.4 -5.4Q6.25 -5.25 6.1 -5.25L5.75 -5.4L5.65 -5.85L5.75 -6.35L6.1 -6.5L6.4 -6.35L6.5 -5.85L6.4 -5.4" />
</g>
</svg>
