<?xml version="1.0" encoding="utf-8"?>
<svg version="1.1" id="Layer_1"
xmlns="http://www.w3.org/2000/svg"
xmlns:xlink="http://www.w3.org/1999/xlink"
width="18px" height="16px"
xml:space="preserve">
<g id="PathID_3774" transform="matrix(1, 0, 0, 1, 0.35, 0.35)">
<path style="fill:#808080;fill-opacity:1" d="M8.7 11.8L8.15 10.95Q7.8 10.2 7.8 9.25L7.55 10.95L6.9 12.8Q5.35 15.55 1.95 14.3Q-3.7 9.85 6.85 0Q21.05 9.85 14 13.95Q10.5 14.4 8.7 11.8" />
<path style="fill:none;stroke-width:0.7;stroke-linecap:round;stroke-linejoin:round;stroke-miterlimit:3;stroke:#000000;stroke-opacity:0.4" d="M8.7 11.8L8.15 10.95Q7.8 10.2 7.8 9.25L7.55 10.95L6.9 12.8Q5.35 15.55 1.95 14.3Q-3.7 9.85 6.85 0Q21.05 9.85 14 13.95Q10.5 14.4 8.7 11.8z" />
</g>
</svg>
