<?xml version="1.0" encoding="utf-8"?>
<svg version="1.1" id="Layer_1"
xmlns="http://www.w3.org/2000/svg"
xmlns:xlink="http://www.w3.org/1999/xlink"
width="7px" height="6px"
xml:space="preserve">
<g id="PathID_4386" transform="matrix(1, 0, 0, 1, 0, 0)">
<path style="fill:#808080;fill-opacity:1" d="M6.5 3.75L5.7 2.6Q4.85 1.75 4.35 1.75L3.55 1.9L2.5 1.75Q1.85 1.45 1.85 1.05Q1.85 0.65 2.2 0.35Q2.65 0 3.35 0Q4.6 0 5.35 0.95L6.5 3.75M1.05 5.55Q0.35 5.55 0.15 5.25Q-0.1 4.8 0.05 4.5Q0.25 3.95 0.85 3.65L3.15 3.5Q3.9 3.8 5.55 5.4L4.25 4.75L2.65 4.65L2.05 5.1Q1.65 5.4 1.05 5.55" />
</g>
</svg>
