<?xml version="1.0" encoding="utf-8"?>
<svg version="1.1" id="Layer_1"
xmlns="http://www.w3.org/2000/svg"
xmlns:xlink="http://www.w3.org/1999/xlink"
width="11px" height="13px"
xml:space="preserve">
<g id="PathID_2872" transform="matrix(1, 0, 0, 1, 0.15, 0.15)">
<path style="fill:#808080;fill-opacity:1" d="M10.2 8.1L10.2 8.6Q10 10.3 8.95 11.45Q7.65 12.8 5.05 12.7Q2.45 12.6 1.15 11.35Q-0.05 10.25 0 8.6L0.05 8.2L0.1 7.95Q0.35 6.55 1.15 4.8L1.5 4.1L1.75 3.65Q3.15 0.9 4.7 0.15Q6.2 -0.65 8.2 2.7L9.1 4.3L9.35 4.8Q10.15 6.6 10.2 7.95L10.2 8.1" />
<path style="fill:none;stroke-width:0.7;stroke-linecap:round;stroke-linejoin:miter;stroke-miterlimit:5;stroke:#000000;stroke-opacity:0.501961" d="M10.2 8.1L10.2 8.6Q10 10.3 8.95 11.45Q7.65 12.8 5.05 12.7Q2.45 12.6 1.15 11.35Q-0.05 10.25 0 8.6L0.05 8.2L0.1 7.95Q0.35 6.55 1.15 4.8L1.5 4.1L1.75 3.65Q3.15 0.9 4.7 0.15Q6.2 -0.65 8.2 2.7L9.1 4.3L9.35 4.8Q10.15 6.6 10.2 7.95L10.2 8.1z" />
</g>
</svg>
