<?xml version="1.0" encoding="utf-8"?>
<svg version="1.1" id="Layer_1"
xmlns="http://www.w3.org/2000/svg"
xmlns:xlink="http://www.w3.org/1999/xlink"
width="59px" height="50px"
xml:space="preserve">
<g id="PathID_4530" transform="matrix(1, 0, 0, 1, 29.45, 24.75)">
<radialGradient
id="RadialGradID_1935" gradientUnits="userSpaceOnUse" gradientTransform="matrix(0.0342865, 0, 0, 0.0271149, 0.1, -2.3)" spreadMethod ="pad" cx="0" cy="0" r="819.2" fx="0" fy="0" >
<stop  offset="0"  style="stop-color:#FFFDF5;stop-opacity:0.878431" />
<stop  offset="0.14902"  style="stop-color:#FFD202;stop-opacity:0.701961" />
<stop  offset="0.392157"  style="stop-color:#F79331;stop-opacity:0.541176" />
<stop  offset="0.615686"  style="stop-color:#FCC86F;stop-opacity:0.141176" />
<stop  offset="1"  style="stop-color:#FFDD87;stop-opacity:0" />
</radialGradient>
<path style="fill:url(#RadialGradID_1935) " d="M20.9 -18.15Q29.45 -11.65 29.45 -2.3Q29.45 7.05 20.9 13.65Q12.35 20.15 0.1 20.15Q-12.3 20.15 -20.9 13.65Q-29.45 7.05 -29.45 -2.3Q-29.45 -11.65 -20.9 -18.15Q-12.3 -24.75 0.1 -24.75Q12.35 -24.75 20.9 -18.15" />
</g>
<g id="PathID_4531" transform="matrix(1, 0, 0, 1, 29.45, 24.75)">
<path style="fill:#77542D;fill-opacity:1" d="M-16 19.35L-16.05 19.3Q-16.8 18.95 -17.35 17.9Q-17.9 16.8 -17.8 15.4Q-17.7 14 -17.15 13.3Q-16.7 12.8 -16.25 12.8Q-14.95 12.9 -15.2 16.3Q-15.25 17 -15.4 17.15L-15.65 17.35Q-16.15 17.3 -16.5 16.2L-16.8 15L-16.65 14.45Q-15.8 14.55 -16.05 15.45Q-15.8 14.55 -16.65 14.45L-16.8 15L-16.5 16.2Q-16.15 17.3 -15.65 17.35L-15.4 17.15Q-15.25 17 -15.2 16.3Q-14.95 12.9 -16.25 12.8Q-16.7 12.8 -17.15 13.3Q-17.7 14 -17.8 15.4Q-17.9 16.8 -17.35 17.9Q-16.8 18.95 -16.05 19.3L-16 19.35Q-17.2 19.35 -18.1 18.05Q-19.05 16.75 -19.15 14.8Q-19.2 12.9 -18.3 11.55Q-17.5 10.2 -16.25 10.2L-16.15 10.15Q-14.95 10.2 -14.05 11.45Q-13.15 12.75 -13.05 14.7Q-13.05 16.5 -13.9 17.9Q-14.6 19.05 -15.5 19.25L-15.95 19.35L-16 19.35" />
<path style="fill:#3A2711;fill-opacity:1" d="M-1.25 9.85Q2.35 10.65 2.3 13.9Q2.25 17.2 -0.5 17.85L-15.5 19.25Q-14.6 19.05 -13.9 17.9Q-13.05 16.5 -13.05 14.7Q-13.15 12.75 -14.05 11.45Q-14.95 10.2 -16.15 10.15L-1.25 9.85M-0.15 15.5L-4.4 15.9L-0.15 15.5M-0.15 13.25L-11.15 13.6L-0.15 13.25M-5.1 11.1L-10.75 11.55L-5.1 11.1" />
<path style="fill:none;stroke-width:0.7;stroke-linecap:round;stroke-linejoin:round;stroke-miterlimit:3;stroke:#000000;stroke-opacity:0.301961" d="M-16.15 10.15Q-14.95 10.2 -14.05 11.45Q-13.15 12.75 -13.05 14.7Q-13.05 16.5 -13.9 17.9Q-14.6 19.05 -15.5 19.25L-0.5 17.85Q2.25 17.2 2.3 13.9Q2.35 10.65 -1.25 9.85L-16.15 10.15L-16.25 10.2Q-17.5 10.2 -18.3 11.55Q-19.2 12.9 -19.15 14.8Q-19.05 16.75 -18.1 18.05Q-17.2 19.35 -16 19.35L-16.05 19.3Q-16.8 18.95 -17.35 17.9Q-17.9 16.8 -17.8 15.4Q-17.7 14 -17.15 13.3Q-16.7 12.8 -16.25 12.8Q-14.95 12.9 -15.2 16.3Q-15.25 17 -15.4 17.15L-15.65 17.35Q-16.15 17.3 -16.5 16.2L-16.8 15L-16.65 14.45Q-15.8 14.55 -16.05 15.45" />
<path style="fill:none;stroke-width:0.7;stroke-linecap:round;stroke-linejoin:round;stroke-miterlimit:3;stroke:#000000;stroke-opacity:0.301961" d="M-15.5 19.25L-15.95 19.35L-16 19.35" />
<path style="fill:none;stroke-width:0.7;stroke-linecap:round;stroke-linejoin:round;stroke-miterlimit:3;stroke:#000000;stroke-opacity:0.301961" d="M-4.4 15.9L-0.15 15.5" />
<path style="fill:none;stroke-width:0.7;stroke-linecap:round;stroke-linejoin:round;stroke-miterlimit:3;stroke:#000000;stroke-opacity:0.301961" d="M-11.15 13.6L-0.15 13.25" />
<path style="fill:none;stroke-width:0.7;stroke-linecap:round;stroke-linejoin:round;stroke-miterlimit:3;stroke:#000000;stroke-opacity:0.301961" d="M-10.75 11.55L-5.1 11.1" />
</g>
<g id="PathID_4532" transform="matrix(1, 0, 0, 1, 29.45, 24.75)">
<path style="fill:#77542D;fill-opacity:1" d="M15.9 11.2Q16.95 11.1 17.7 12.2Q18.45 13.25 18.35 14.9Q18.35 16.45 17.55 17.65Q16.8 18.75 15.75 18.8L15.4 18.75Q14.65 18.65 14 17.7Q13.35 16.65 13.35 15.05Q13.45 13.45 14.15 12.3Q14.85 11.25 15.85 11.15L15.9 11.2" />
<path style="fill:#3A2711;fill-opacity:1" d="M3 18.3Q0.7 17.9 0.65 15.15Q0.65 12.45 3.6 11.55L15.85 11.15Q14.85 11.25 14.15 12.3Q13.45 13.45 13.35 15.05Q13.35 16.65 14 17.7Q14.65 18.65 15.4 18.75L3 18.3M2.7 16.4L6.25 16.55L2.7 16.4M2.7 14.45L11.8 14.25L2.7 14.45M6.8 12.45L11.45 12.6L6.8 12.45" />
<path style="fill:none;stroke-width:0.7;stroke-linecap:round;stroke-linejoin:round;stroke-miterlimit:3;stroke:#000000;stroke-opacity:0.301961" d="M15.4 18.75Q14.65 18.65 14 17.7Q13.35 16.65 13.35 15.05Q13.45 13.45 14.15 12.3Q14.85 11.25 15.85 11.15L3.6 11.55Q0.65 12.45 0.65 15.15Q0.7 17.9 3 18.3L15.4 18.75L15.75 18.8Q16.8 18.75 17.55 17.65Q18.35 16.45 18.35 14.9Q18.45 13.25 17.7 12.2Q16.95 11.1 15.9 11.2L15.85 11.15" />
<path style="fill:none;stroke-width:0.7;stroke-linecap:round;stroke-linejoin:round;stroke-miterlimit:3;stroke:#000000;stroke-opacity:0.301961" d="M6.25 16.55L2.7 16.4" />
<path style="fill:none;stroke-width:0.7;stroke-linecap:round;stroke-linejoin:round;stroke-miterlimit:3;stroke:#000000;stroke-opacity:0.301961" d="M15.75 18.8L15.85 18.75Q16.5 18.45 16.85 17.5Q17.35 16.6 17.25 15.4Q17.15 14.25 16.75 13.65Q16.4 13.3 16.05 13.35Q14.95 13.45 15.15 16.25L15.25 17Q15.3 17.15 15.55 17.1Q15.95 17.1 16.2 16.15L16.45 15.15L16.3 14.7Q15.6 14.85 15.85 15.5" />
<path style="fill:none;stroke-width:0.7;stroke-linecap:round;stroke-linejoin:round;stroke-miterlimit:3;stroke:#000000;stroke-opacity:0.301961" d="M11.8 14.25L2.7 14.45" />
<path style="fill:none;stroke-width:0.7;stroke-linecap:round;stroke-linejoin:round;stroke-miterlimit:3;stroke:#000000;stroke-opacity:0.301961" d="M11.45 12.6L6.8 12.45" />
</g>
<g id="PathID_4533" transform="matrix(1, 0, 0, 1, 29.45, 24.75)">
<path style="fill:#3A2711;fill-opacity:1" d="M-3 13.6Q0 11.5 3.3 13.6L4.85 18.85Q4.5 17.8 3.55 16.9Q2.1 15.6 0.05 15.6Q-2 15.6 -3.5 16.9Q-4.2 17.55 -4.55 18.35L-3 13.6" />
<path style="fill:#77542D;fill-opacity:1" d="M-3.5 23.4Q-4.15 22.3 -4.15 20.75Q-4.15 17.6 -0.15 17.6Q1.4 17.6 2.2 18.6Q2.85 19.45 2.85 20.75Q2.85 21.75 1.8 22.4L0.2 22.9Q-1.9 22.9 -1.9 21.3Q-1.9 20.15 -0.95 20.15Q0.2 20.15 0.2 20.85L0.15 21.2L0.2 20.85Q0.2 20.15 -0.95 20.15Q-1.9 20.15 -1.9 21.3Q-1.9 22.9 0.2 22.9L1.8 22.4Q2.85 21.75 2.85 20.75Q2.85 19.45 2.2 18.6Q1.4 17.6 -0.15 17.6Q-4.15 17.6 -4.15 20.75Q-4.15 22.3 -3.5 23.4Q-4.95 22.05 -4.95 20.15L-4.7 18.8L-4.55 18.35Q-4.2 17.55 -3.5 16.9Q-2 15.6 0.05 15.6Q2.1 15.6 3.55 16.9Q4.5 17.8 4.85 18.85L4.85 18.95L4.9 19L5.05 20.15Q5.05 22.05 3.55 23.4Q2.1 24.75 0.05 24.75Q-1.9 24.75 -3.35 23.55L-3.5 23.4" />
<path style="fill:none;stroke-width:0.7;stroke-linecap:round;stroke-linejoin:round;stroke-miterlimit:3;stroke:#000000;stroke-opacity:0.4" d="M-4.55 18.35Q-4.2 17.55 -3.5 16.9Q-2 15.6 0.05 15.6Q2.1 15.6 3.55 16.9Q4.5 17.8 4.85 18.85L3.3 13.6Q0 11.5 -3 13.6L-4.55 18.35L-4.7 18.8L-4.95 20.15Q-4.95 22.05 -3.5 23.4Q-4.15 22.3 -4.15 20.75Q-4.15 17.6 -0.15 17.6Q1.4 17.6 2.2 18.6Q2.85 19.45 2.85 20.75Q2.85 21.75 1.8 22.4L0.2 22.9Q-1.9 22.9 -1.9 21.3Q-1.9 20.15 -0.95 20.15Q0.2 20.15 0.2 20.85L0.15 21.2" />
<path style="fill:none;stroke-width:0.7;stroke-linecap:round;stroke-linejoin:round;stroke-miterlimit:3;stroke:#000000;stroke-opacity:0.4" d="M4.85 18.85L4.85 18.95L4.9 19L5.05 20.15Q5.05 22.05 3.55 23.4Q2.1 24.75 0.05 24.75Q-1.9 24.75 -3.35 23.55L-3.5 23.4" />
</g>
<g id="PathID_4534" transform="matrix(1, 0, 0, 1, 29.45, 24.75)">
<linearGradient
id="LinearGradID_1936" gradientUnits="userSpaceOnUse" gradientTransform="matrix(0.00123596, 0.0045929, -0.00759888, 0.00202942, 11.95, -12)" spreadMethod ="pad" x1="-819.2" y1="0" x2="819.2" y2="0" >
<stop  offset="0.0431373" style="stop-color:#F35225;stop-opacity:1" />
<stop  offset="1" style="stop-color:#FFE362;stop-opacity:0.760784" />
</linearGradient>
<path style="fill:url(#LinearGradID_1936) " d="M12.1 -15.4Q11.55 -14.2 11.6 -12.65L11.9 -10.6Q12.05 -9.8 11.5 -9.15L10.85 -11.85L10.05 -14.1L9.9 -12.45Q9.1 -13.55 9.45 -14.9Q9.75 -16.6 10.65 -18.05Q10.55 -16.65 10.7 -15.75L11.6 -18.6L13 -21.5L12.55 -19.6Q12.2 -17.45 12.5 -15.95L12.95 -14.55L12.1 -15.4" />
<linearGradient
id="LinearGradID_1937" gradientUnits="userSpaceOnUse" gradientTransform="matrix(-3.05176e-005, 0.00991821, -0.0245514, -9.15527e-005, 1.05, 1.2)" spreadMethod ="pad" x1="-819.2" y1="0" x2="819.2" y2="0" >
<stop  offset="0" style="stop-color:#F35225;stop-opacity:1" />
<stop  offset="1" style="stop-color:#FFE362;stop-opacity:0.760784" />
</linearGradient>
<path style="fill:url(#LinearGradID_1937) " d="M8.15 -20Q7.25 -19 7.1 -17.55Q6.75 -15.95 7.6 -13.35L7.95 -12.85L7.95 -12.3L7.8 -11.05L7.7 -9.8L7.7 -9.6L7.9 -9.4L8.4 -10.75L8.7 -11.6Q9.95 -9.35 9.95 -7.55L9.75 -4.9L9.45 -3.2L9.45 -2.4Q10.45 -2.3 11.65 -6.25Q12.85 -10.2 15.5 -11.85Q13.1 -8.75 13.45 -6.9L13.7 -4.75Q13.7 -2.6 12 0.45Q10.25 3.55 10.25 5.15Q10.25 6.8 10.5 7.75L10.75 8.85Q11.25 8.95 11.5 8Q11.85 6.4 12.95 4.95L15.65 1.7L15.75 1.65L15.35 3.8Q14.65 7.1 14.65 8.1L14.9 10.9L15.05 10.9L16.75 9.8Q18.4 8.75 18.8 2.75Q20.15 5.75 18.85 10.45Q15.5 15.2 11.65 13.7L10.1 13.7L6.15 13.5L1.3 12.95L-2.1 14.3Q-3.95 14.85 -4.95 13.85Q-7.1 12.9 -11.25 11.8Q-15.45 10.65 -16 8.05Q-16.6 5.45 -16.2 4.2L-15.35 3.25L-14.7 2.1Q-14.4 1.5 -14.6 0.5L-15.6 2.3L-15.25 0.35L-14.7 -2.45Q-14.4 -3.8 -18.75 -6.15L-17.5 -5.55Q-16.55 -5.9 -15 -4.95Q-13.2 -3.85 -13.2 -2.15Q-13.2 -1.5 -13.45 -0.9L-13.7 -0.05Q-13.7 0.5 -12.35 1.45L-10.6 2.5L-11.5 1.45Q-12.05 0.8 -12.05 -0.1L-10.65 -1.75L-10.5 -1.25L-10.3 -0.85L-9.55 -2.95Q-8.65 -4.25 -8.5 -5.7L-8.5 -5.8Q-7.95 -7.25 -7.95 -7.65Q-7.95 -8.5 -8.95 -10.7L-8.85 -7.7L-9.65 -9.4Q-10.8 -11.6 -10.8 -13.5Q-10.8 -14.65 -10.1 -16.35L-9.05 -18.5L-9.15 -16.2Q-9.15 -15 -8.35 -13.45L-7.65 -12.35L-7.35 -13.35L-5 -18.35Q-4.3 -19.75 -4.05 -21.9L-3.95 -23.65Q-1.85 -21.45 -3.5 -15.8Q-4.85 -11 -2.25 -10.6Q-1.25 -13.4 0 -15.45Q0.25 -17.45 -0.55 -19.45Q1.1 -16.55 0.9 -14.65Q0.7 -12.55 -0.15 -11.4Q-1.1 -10.2 0.75 -8.9Q1.35 -8.5 1.15 -7.4L-1.2 -9Q0.5 -7.8 0.8 -6.6Q-0.1 -4.7 -1.05 -3.7L3.3 -6.8Q4.4 -10.4 4.1 -12.95L5.6 -10.75Q5.7 -12.15 4.4 -13.55Q3.1 -14.95 2.75 -16.15Q0.15 -21.7 3.45 -24Q2.9 -23.45 2.5 -22.25Q2 -20.6 4.9 -16.8Q4.65 -18.9 6.9 -20Q8.95 -21.05 8.25 -22.55Q9.8 -21 8.15 -20M-17.5 -5.55L-17.5 -5.7L-18.75 -6.15" />
<linearGradient
id="LinearGradID_1938" gradientUnits="userSpaceOnUse" gradientTransform="matrix(-3.05176e-005, 0.00991821, -0.0245514, -9.15527e-005, 1.05, 1.2)" spreadMethod ="pad" x1="-819.2" y1="0" x2="819.2" y2="0" >
<stop  offset="0" style="stop-color:#F35225;stop-opacity:1" />
<stop  offset="0.988235" style="stop-color:#FFE362;stop-opacity:1" />
</linearGradient>
<path style="fill:url(#LinearGradID_1938) " d="M16.3 -8.7L17.4 -11.45L16.9 -8.4Q16.55 -6.35 15.7 -5.7L15.7 -5.5L15.6 -5.7L15.6 -6.55Q15.6 -7.1 16.3 -8.7M-11.1 -6.7L-11.35 -4.85L-12.05 -6.1L-12.55 -7.55L-13.1 -12.75Q-12.85 -10.65 -11.5 -9.25Q-11 -8.65 -11.1 -6.7" />
</g>
<g id="PathID_4535" transform="matrix(1, 0, 0, 1, 29.45, 24.75)">
<path style="fill:#FFF1B4;fill-opacity:0.858824" d="M7.25 -6.95L8.5 -4.55Q8.5 -3.25 7.1 -1.15Q5.7 1.05 5.8 2.65Q3.6 4.3 5.2 5.55L7.05 2.4L7.35 4.2Q7.35 3.6 9.25 2.15Q11.1 0.75 12.2 0.25L12.35 0.25L9.9 3.75Q8.35 6.15 8.35 7.8Q8.35 9.2 9.45 10.45Q10.3 11.55 12 11.7Q13.55 11.75 14.55 8.95L14.55 9.25Q14.55 11.85 13.6 13.15Q12.05 15.1 9.1 14.85L3.3 14.05Q0.5 13.5 -0.6 14.3Q-1.75 15.1 -6.25 14.4Q-10.75 13.7 -10.85 12.6Q-11 12.05 -10.75 11Q-10.7 10 -11.6 9.15L-13.75 7.55L-14.3 7.25L-9.9 8.45L-9.9 8L-10.45 6.3Q-11 4.8 -9.7 4.5Q-8.4 4.2 -9.9 2.2Q-8.2 1.85 -7.35 6.6L-7.35 4Q-7.55 1.3 -8.85 0.35L-8.4 -0.4L-7.5 -1.6Q-6.75 -2.75 -6.45 -4.15Q-7.55 -1.75 -8.4 -1.75Q-7.45 -2.3 -7.45 -5.5Q-7.35 -7.1 -6.05 -8.1Q-4.85 -9.15 -4.2 -9.95L-4.6 -9.2Q-6.1 -6.15 -4.85 -5.8L-3.55 -5.9Q-4.3 -3.95 -4.85 -3.15L-5.6 -1.95Q-5.7 -1.5 -5.25 -0.9L-4.15 0.5Q-4.6 -0.6 -0.95 -1.9L-2 -0.2Q-2 0 -1.4 -0.35L-0.25 -1.45L0.6 -2.4Q4.15 -3.7 4.8 -5.3Q4.5 -4.45 3.3 -3L1.15 -0.55L1.15 1Q2.3 1.5 2.9 -0.05L1.8 2.4Q0.7 3.8 0.7 5.2L0.75 6.25L1.1 7.45L1.25 6.05Q1.3 5.05 2.2 3.7L2.35 4.7Q2.55 5.55 3 5.55L2.95 4.2Q2.95 2.45 3.7 0.85Q4.35 -0.35 6.15 -1.8Q7.8 -3.15 7.7 -4.6Q7.55 -6.05 6.7 -7.6L6.25 -8.5L7.25 -6.95M5.65 -7.95L5.4 -6.85L4.7 -6L4.55 -5.65Q4.4 -6.55 4.75 -7.5L5.05 -8.8L5 -10L5.5 -9.05Q5.85 -8.5 5.65 -7.95M11 9.4Q10.65 8.85 10.65 7.5Q10.65 5.55 11.4 4.3Q10.6 6.35 11.6 7.8Q12.6 9.2 12.3 9.6L12.05 9.85L12 9.95Q11.25 9.8 11 9.4M-13.35 3.05Q-12.7 3.7 -12.55 4.45L-12.3 6L-12.1 6.6Q-13.3 6 -13.7 4.75L-14.3 2.1L-13.35 3.05" />
</g>
</svg>
