<?xml version="1.0" encoding="utf-8"?>
<svg version="1.1" id="Layer_1"
xmlns="http://www.w3.org/2000/svg"
xmlns:xlink="http://www.w3.org/1999/xlink"
width="28px" height="29px"
xml:space="preserve">
<g id="PathID_3954" transform="matrix(1, 0, 0, 1, 0.2, 0.2)">
<path style="fill:#808080;fill-opacity:1" d="M8.55 4.1L17 1.75Q19 1.35 19.95 0L21.7 0.85Q25 2.85 26.5 6.25Q25.55 5.5 22.65 4.4L22.5 4.3L20.9 4.2L20.75 4.2Q16.5 3.85 12.8 9.5Q10.2 13.4 11.95 18.65L12.35 19.7Q7.7 16.1 8.55 4.1M20.75 4.2Q19.6 4.1 19.35 3.5Q19.6 4.1 20.75 4.2" />
<path style="fill:#505051;fill-opacity:1" d="M12.35 19.7L13.2 21.5L14.2 23.3L14.65 24L15.25 23.9L15.6 23.85L17.55 23.5L19.35 26.3L17.1 26.2L14.65 27.7L11.65 26.15L8.2 26.45L10.9 23.85L8.55 23.5Q5.8 22.7 3.95 21.5L2.05 20Q0.7 18.6 0.25 16.85Q-1.3 7.35 6.85 4.15L8.1 4.2L8.55 4.1Q7.7 16.1 12.35 19.7M10.9 23.85L14.65 24L10.9 23.85M16.4 25.35L15.25 23.9L16.4 25.35" />
<path style="fill:none;stroke-width:0.7;stroke-linecap:round;stroke-linejoin:round;stroke-miterlimit:3;stroke:#000000;stroke-opacity:0.498039" d="M22.65 4.4L21.5 5Q20.5 5.5 20.4 5.4Q20.85 6.25 20.85 8.05L18.3 7.25" />
<path style="fill:none;stroke-width:0.7;stroke-linecap:round;stroke-linejoin:round;stroke-miterlimit:3;stroke:#000000;stroke-opacity:0.498039" d="M20.75 4.2L20.9 4.2L22.5 4.3L22.65 4.4" />
<path style="fill:none;stroke-width:0.7;stroke-linecap:round;stroke-linejoin:round;stroke-miterlimit:3;stroke:#000000;stroke-opacity:0.498039" d="M27.55 9.8Q27.6 14.1 26.15 17.1Q24.85 19.8 22.3 21.5L20.1 22.7L17.55 23.5L19.35 26.3L17.1 26.2L14.65 27.7L11.65 26.15L8.2 26.45L10.9 23.85L8.55 23.5Q5.8 22.7 3.95 21.5L2.05 20Q0.7 18.6 0.25 16.85Q-1.3 7.35 6.85 4.15" />
<path style="fill:none;stroke-width:0.7;stroke-linecap:round;stroke-linejoin:round;stroke-miterlimit:3;stroke:#000000;stroke-opacity:0.498039" d="M19.95 0L21.7 0.85" />
<path style="fill:none;stroke-width:0.7;stroke-linecap:round;stroke-linejoin:round;stroke-miterlimit:3;stroke:#000000;stroke-opacity:0.498039" d="M14.65 24L15.25 23.9L15.6 23.85L17.55 23.5" />
<path style="fill:none;stroke-width:0.7;stroke-linecap:round;stroke-linejoin:round;stroke-miterlimit:3;stroke:#000000;stroke-opacity:0.498039" d="M14.65 24L10.9 23.85" />
<path style="fill:none;stroke-width:0.7;stroke-linecap:round;stroke-linejoin:round;stroke-miterlimit:3;stroke:#000000;stroke-opacity:0.498039" d="M19.35 3.5Q19.6 4.1 20.75 4.2" />
<path style="fill:none;stroke-width:0.7;stroke-linecap:round;stroke-linejoin:round;stroke-miterlimit:3;stroke:#000000;stroke-opacity:0.498039" d="M15.25 23.9L16.4 25.35" />
</g>
</svg>
