<?xml version="1.0" encoding="utf-8"?>
<svg version="1.1" id="Layer_1"
xmlns="http://www.w3.org/2000/svg"
xmlns:xlink="http://www.w3.org/1999/xlink"
width="12px" height="9px"
xml:space="preserve">
<g id="PathID_2918" transform="matrix(1, 0, 0, 1, 0, 0)">
<path style="fill:#808080;fill-opacity:1" d="M10.95 3.05L0.75 4.5L0.7 7.75L2.5 7.85L5.95 7.3Q5.55 5.95 6.25 5.25Q6.95 4.55 7.8 4.55Q8.6 4.5 9.25 5.1Q9.95 5.65 9.8 6.75Q11.05 6.7 11.15 4.85L10.95 3.05M12 5.95Q11.95 7.4 8.95 7.65Q9.1 5.7 8.35 5.45Q7.55 5.25 7.05 5.7Q6.55 6.1 7.1 7.9L4.25 8.5L0 8.4L0 4.1L3.45 1.1L4.7 1L4.4 0.25L5.35 0.05L7.65 0.15Q9.4 0.35 11.8 2.4L11.95 3.15L11.95 3.4L12 4.75L12 5.95M7.9 2.45L7.25 2.7L6.55 2.45Q6.25 2.2 6.25 1.85Q6.25 1.5 6.55 1.25Q6.8 1 7.25 1L7.9 1.25L8.2 1.85L7.9 2.45M7.25 1.6L7 1.65L6.95 1.85L7 2.05L7.25 2.15L7.45 2.05L7.6 1.85L7.45 1.65L7.25 1.6M5.25 1.85L3.7 1.95L1.7 3.7L10.5 2.45Q8.9 0.95 7.05 0.75L5.6 0.7Q5.8 1.6 5.25 1.85M3.35 5.9L3.6 6.5L3.35 7.1L2.6 7.35L1.95 7.1Q1.7 6.85 1.7 6.5Q1.7 6.15 1.95 5.9Q2.2 5.65 2.6 5.65Q3.05 5.65 3.35 5.9M2.65 6.2L2.45 6.3L2.35 6.5L2.45 6.7L2.65 6.8L2.9 6.7L3 6.5L2.9 6.3L2.65 6.2" />
</g>
</svg>
