<?xml version="1.0" encoding="utf-8"?>
<svg version="1.1" id="Layer_1"
xmlns="http://www.w3.org/2000/svg"
xmlns:xlink="http://www.w3.org/1999/xlink"
width="22px" height="5px"
xml:space="preserve">
<g id="PathID_3245" transform="matrix(1, 0, 0, 1, 0.15, 0.15)">
<path style="fill:#808080;fill-opacity:1" d="M20.95 2Q20.95 2.8 20.35 3.4Q19.75 4 18.95 4L2 4Q1.2 4 0.6 3.4Q0 2.8 0 2Q0 1.2 0.6 0.6Q1.2 0 2 0L18.95 0Q19.75 0 20.35 0.6Q20.95 1.2 20.95 2" />
<path style="fill:none;stroke-width:0.7;stroke-linecap:round;stroke-linejoin:round;stroke-miterlimit:3;stroke:#000000;stroke-opacity:0.4" d="M20.35 0.6Q19.75 0 18.95 0L2 0Q1.2 0 0.6 0.6Q0 1.2 0 2Q0 2.8 0.6 3.4Q1.2 4 2 4L18.95 4Q19.75 4 20.35 3.4Q20.95 2.8 20.95 2Q20.95 1.2 20.35 0.6z" />
</g>
</svg>
