<?xml version="1.0" encoding="utf-8"?>
<svg version="1.1" id="Layer_1"
xmlns="http://www.w3.org/2000/svg"
xmlns:xlink="http://www.w3.org/1999/xlink"
width="32px" height="13px"
xml:space="preserve">
<g id="PathID_2882" transform="matrix(1, 0, 0, 1, 0.4, 0.4)">
<path style="fill:#54504E;fill-opacity:1" d="M22.35 7Q18.3 3.25 10.5 4.75Q8.75 4.95 8.4 6.85Q7.1 7.35 6.3 8.45Q5.5 9.55 5.3 10.85L4.25 10.6L0 9.25L0 0Q4.35 1.75 8.75 2.55L14.7 3.15Q21.3 3.25 27.8 1.2L31.05 0L31.1 9.45Q30.55 7.8 30.55 6.8L30.3 4.8L29.8 3.05L29.35 2.75L28.75 2.65Q28.45 2.75 28.1 3.6Q27.7 4.25 27.65 4.6Q27.65 5.5 26.8 6.2L25.25 7.3Q24.9 7.8 25.05 8.45Q25.05 9.8 25.85 10.8L21.1 11.65L20.15 11.8Q23.15 9.85 22.35 7" />
<path style="fill:#3C3937;fill-opacity:1" d="M31.1 9.45L25.85 10.8Q25.05 9.8 25.05 8.45Q24.9 7.8 25.25 7.3L26.8 6.2Q27.65 5.5 27.65 4.6Q27.7 4.25 28.1 3.6Q28.45 2.75 28.75 2.65L29.35 2.75L29.8 3.05L30.3 4.8L30.55 6.8Q30.55 7.8 31.1 9.45M20.15 11.8Q12.6 12.55 5.3 10.85Q5.5 9.55 6.3 8.45Q7.1 7.35 8.4 6.85Q8.75 4.95 10.5 4.75Q18.3 3.25 22.35 7Q23.15 9.85 20.15 11.8" />
<path style="fill:none;stroke-width:0.8;stroke-linecap:butt;stroke-linejoin:miter;stroke-miterlimit:3;stroke:#000000;stroke-opacity:0.301961" d="M31.05 0L31.1 9.45L25.85 10.8L21.1 11.65L20.15 11.8Q12.6 12.55 5.3 10.85L4.25 10.6L0 9.25L0 0" />
</g>
</svg>
