<?xml version="1.0" encoding="utf-8"?>
<svg version="1.1" id="Layer_1"
xmlns="http://www.w3.org/2000/svg"
xmlns:xlink="http://www.w3.org/1999/xlink"
width="65px" height="80px"
xml:space="preserve">
<g id="PathID_2985" transform="matrix(1, 0, 0, 1, 0, 0)">
<path style="fill:#808080;fill-opacity:1" d="M61 24.75Q61.95 27.55 62.65 31.45Q65.55 48.75 63.6 65.9Q62.1 79.55 48.95 79.55L14.9 79.55L9.55 78.85L9.55 78.8Q1.8 76.45 0.85 66.3Q-0.8 49.55 0.7 31.55Q1.8 17.85 14.9 17.85L48.95 17.85Q58.4 17.85 61 24.8L61 24.75" />
</g>
<g id="PathID_2986" transform="matrix(1, 0, 0, 1, 0, 0)">
<path style="fill:#808080;fill-opacity:1" d="M28.95 20.25L32.3 20.85Q32.05 23.55 30.4 25.35Q25.95 26.05 21.15 24.85Q16.3 23.65 14.7 20.75Q13.1 17.85 13.45 13.55Q15.8 15.5 20.75 17.55Q25.7 19.6 28.95 20.25M28.5 0Q28.45 11.05 36.25 19.4L32.8 19.95Q27.85 18.6 24.05 16.45Q20.2 14.3 19.65 9.55Q19.05 4.75 21.25 3.1Q23.5 1.4 28.5 0" />
</g>
</svg>
