<?xml version="1.0" encoding="utf-8"?>
<svg version="1.1" id="Layer_1"
xmlns="http://www.w3.org/2000/svg"
xmlns:xlink="http://www.w3.org/1999/xlink"
width="40px" height="39px"
xml:space="preserve">
<g id="PathID_4568" transform="matrix(1, 0, 0, 1, 19.9, 19.1)">
<radialGradient
id="RadialGradID_2001" gradientUnits="userSpaceOnUse" gradientTransform="matrix(0.0269623, 0, 0, 0.0179138, -0.1, -19.3)" spreadMethod ="pad" cx="0" cy="0" r="819.2" fx="0" fy="0" >
<stop  offset="0.0509804"  style="stop-color:#EEB883;stop-opacity:1" />
<stop  offset="0.976471"  style="stop-color:#AD7C4D;stop-opacity:1" />
</radialGradient>
<path style="fill:url(#RadialGradID_2001) " d="M-14.75 -14.65L14.5 -14.65L14.5 -13.7L10.55 -13.45L8.45 -13.15L5.9 -12.9L2.1 -13.05L-2.55 -13.45L-11.45 -14.15L-14.75 -14.05L-14.75 -14.65M7.85 -10.7L4.85 -10.7L0.5 -10.7L-0.65 -10.7L-1.9 -10.7L-4 -10.7L-6.95 -10.7L-9.3 -10.7Q-5.55 -12 -1.95 -12L5.95 -11.55L9.55 -10.7L7.85 -10.7M10.15 -13.7L6.45 -13.7L10.15 -13.7" />
<radialGradient
id="RadialGradID_2002" gradientUnits="userSpaceOnUse" gradientTransform="matrix(0.036087, 0, 0, 0.0179749, 0.15, -20.8)" spreadMethod ="pad" cx="0" cy="0" r="819.2" fx="0" fy="0" >
<stop  offset="0.0666667"  style="stop-color:#D2A983;stop-opacity:1" />
<stop  offset="1"  style="stop-color:#8A5A2E;stop-opacity:1" />
</radialGradient>
<path style="fill:url(#RadialGradID_2002) " d="M14.5 -10.7L13.3 -10.7L11.65 -10.7L10.35 -10.7L9.55 -10.7L5.95 -11.55L-1.95 -12Q-5.55 -12 -9.3 -10.7L-9.7 -10.7L-10.35 -10.7L-12.45 -10.7L-14.75 -10.7L-14.75 -14.05L-11.45 -14.15L-2.55 -13.45L2.1 -13.05L5.9 -12.9L8.45 -13.15L10.55 -13.45L14.5 -13.7L14.5 -10.7M12.35 -13.25L11.75 -13L11.5 -12.4Q11.5 -12.05 11.75 -11.8L12.35 -11.6L12.9 -11.8L13.15 -12.4L12.9 -13L12.35 -13.25M8.45 -12.15L7.5 -12.15L8.45 -12.15M10.55 -12.7L9.1 -12.7L10.55 -12.7M-6.5 -13.4L-9.3 -13.4L-9.75 -13.4L-9.3 -13.4L-6.5 -13.4M-10.8 -12.8L-9.3 -12.8L-8.8 -12.8L-9.3 -12.8L-10.8 -12.8M-9.3 -13.4L-9.3 -12.8L-9.3 -13.4M-12.05 -13L-12.65 -13.25L-13.25 -13L-13.5 -12.4L-13.25 -11.8L-12.65 -11.6L-12.05 -11.8L-11.85 -12.4L-12.05 -13M-6.8 -12.1L-9.6 -12.1L-6.8 -12.1" />
<path style="fill:#8A5829;fill-opacity:1" d="M12.9 -13L13.15 -12.4L12.9 -11.8L12.35 -11.6L11.75 -11.8Q11.5 -12.05 11.5 -12.4L11.75 -13L12.35 -13.25L12.9 -13M12.35 11.9Q12.7 11.9 12.9 12.15L13.15 12.75L12.9 13.3L12.35 13.55L11.75 13.3L11.5 12.75Q11.5 12.4 11.75 12.15Q12 11.9 12.35 11.9M-11.85 -12.4L-12.05 -11.8L-12.65 -11.6L-13.25 -11.8L-13.5 -12.4L-13.25 -13L-12.65 -13.25L-12.05 -13L-11.85 -12.4M-12.05 12.15L-11.85 12.75L-12.05 13.3L-12.65 13.55L-13.25 13.3L-13.5 12.75L-13.25 12.15Q-13 11.9 -12.65 11.9L-12.05 12.15" />
<radialGradient
id="RadialGradID_2003" gradientUnits="userSpaceOnUse" gradientTransform="matrix(0.0100861, 0.00526428, -0.0130615, 0.0250092, 6.65, -12.25)" spreadMethod ="pad" cx="0" cy="0" r="819.2" fx="210200" fy="0" >
<stop  offset="0.0745098"  style="stop-color:#BD8A5C;stop-opacity:1" />
<stop  offset="1"  style="stop-color:#70441B;stop-opacity:1" />
</radialGradient>
<path style="fill:url(#RadialGradID_2003) " d="M4.85 10.75L4.85 5.7L4.85 -4.25L4.85 -9.3L7.6 -9.3L7.55 -8.95L7.1 -6.1Q6.5 -2.65 6.5 -0.3Q6.5 3.15 6.8 5.05Q7.25 7.85 8.6 10.75L4.85 10.75M10.35 3.55Q9.7 2.8 9.25 1.2Q8.9 -0.3 8.9 -1.5Q8.9 -3.2 9.55 -4.6L10.35 -6.05L10.35 3.55" />
<radialGradient
id="RadialGradID_2004" gradientUnits="userSpaceOnUse" gradientTransform="matrix(0.0167999, 0, 0, 0.0167999, 11.65, -11.95)" spreadMethod ="pad" cx="0" cy="0" r="819.2" fx="19" fy="0" >
<stop  offset="0.0666667"  style="stop-color:#CD9762;stop-opacity:1" />
<stop  offset="0.960784"  style="stop-color:#9A6532;stop-opacity:1" />
</radialGradient>
<path style="fill:url(#RadialGradID_2004) " d="M10.35 -9.3L10.35 -6.05L9.55 -4.6Q8.9 -3.2 8.9 -1.5Q8.9 -0.3 9.25 1.2Q9.7 2.8 10.35 3.55L10.35 4.75L10.35 10.75L8.6 10.75Q7.25 7.85 6.8 5.05Q6.5 3.15 6.5 -0.3Q6.5 -2.65 7.1 -6.1L7.55 -8.95L7.6 -9.3L10.35 -9.3" />
<path style="fill:#855525;fill-opacity:1" d="M-9.35 -9.3L-10.35 -9.3L-10.35 -10.7L-9.7 -10.7L-9.35 -9.3M10.35 -9.3L7.6 -9.3L7.85 -10.7L9.55 -10.7L10.35 -10.7L10.35 -9.3M0.5 -10.7L4.85 -10.7L4.85 -9.3L1 -9.3L0.5 -10.7M-3.95 -9.3L-4 -10.7L-1.9 -10.7L-1.7 -9.3L-3.95 -9.3" />
<path style="fill:#643B15;fill-opacity:1" d="M-6.95 -10.7L-4 -10.7L-6.95 -9.3L-9.35 -9.3L-9.7 -10.7L-9.3 -10.7L-6.95 -10.7M4.85 -10.7L7.85 -10.7L7.6 -9.3L4.85 -9.3L4.85 -10.7M-0.65 -9.3L-1.7 -9.3L-0.65 -10.7L0.5 -10.7L1 -9.3L-0.65 -9.3M-1.7 -9.3L-1.9 -10.7L-0.65 -10.7L-0.65 -9.3M-4 -10.7L-3.95 -9.3L-6.95 -9.3L-6.95 -10.7" />
<radialGradient
id="RadialGradID_2005" gradientUnits="userSpaceOnUse" gradientTransform="matrix(0.0187531, 0, 0, 0.0187531, 5.4, -10.7)" spreadMethod ="pad" cx="0" cy="0" r="819.2" fx="19" fy="0" >
<stop  offset="0.0352941"  style="stop-color:#CD9762;stop-opacity:1" />
<stop  offset="0.960784"  style="stop-color:#9A6532;stop-opacity:1" />
</radialGradient>
<path style="fill:url(#RadialGradID_2005) " d="M3.6 -2.75L2.3 -0.7Q1.8 0.2 1.4 2.6Q0.9 5.15 0.9 7.4L1.15 10.75L-0.65 10.75L-0.65 5.85L0.95 0.45Q1.6 -1.8 1.6 -4.8Q1.6 -7.15 1.1 -8.95L1 -9.3L4.85 -9.3L4.85 -4.25L3.6 -2.75" />
<radialGradient
id="RadialGradID_2006" gradientUnits="userSpaceOnUse" gradientTransform="matrix(0.0167084, 0, 0, 0.0205078, 7.75, -13.05)" spreadMethod ="pad" cx="0" cy="0" r="819.2" fx="210200" fy="0" >
<stop  offset="0.0431373"  style="stop-color:#BD8A5C;stop-opacity:1" />
<stop  offset="0.929412"  style="stop-color:#804F21;stop-opacity:1" />
</radialGradient>
<path style="fill:url(#RadialGradID_2006) " d="M4.35 7.2Q3.9 8.7 3.9 9.35L4 10.75L2.05 10.75L1.8 10.75L1.15 10.75L0.9 7.4Q0.9 5.15 1.4 2.6Q1.8 0.2 2.3 -0.7L3.6 -2.75L4.85 -4.25L4.85 5.7L4.35 7.2M-0.65 -9.3L1 -9.3L1.1 -8.95Q1.6 -7.15 1.6 -4.8Q1.6 -1.8 0.95 0.45L-0.65 5.85L-0.65 -9.3" />
<radialGradient
id="RadialGradID_2007" gradientUnits="userSpaceOnUse" gradientTransform="matrix(0.00894165, 0, 0, 0.0184631, 16.6, -0.25)" spreadMethod ="pad" cx="0" cy="0" r="819.2" fx="0" fy="0" >
<stop  offset="0.0980392"  style="stop-color:#EEB883;stop-opacity:1" />
<stop  offset="0.976471"  style="stop-color:#AD7C4D;stop-opacity:1" />
</radialGradient>
<path style="fill:url(#RadialGradID_2007) " d="M14.5 10.75L11.85 10.75L11.9 9.7Q11.9 8.5 11.35 7.05L10.35 4.75L10.35 3.55L10.35 -6.05L10.35 -9.3L10.35 -10.7L11.65 -10.7L11.6 -8.95L11.5 -6.25Q11.5 0.8 14.5 4.7L14.5 10.75M14.5 -4.05Q13.8 -4.85 13.3 -6.2Q12.85 -7.5 12.85 -8.25L12.95 -8.95L13.3 -10.7L14.5 -10.7L14.5 -4.05M10.9 -7.4L10.9 -9.55L10.9 -7.4M11.45 1.6L11.45 0.95L11.45 1.6M13.65 7.15L13.65 9.3L13.65 7.15M12.95 5.4L12.95 7.25L12.95 5.4" />
<radialGradient
id="RadialGradID_2008" gradientUnits="userSpaceOnUse" gradientTransform="matrix(0.00976563, 0, 0, 0.0206604, 16.9, -0.05)" spreadMethod ="pad" cx="0" cy="0" r="819.2" fx="0" fy="0" >
<stop  offset="0.0392157"  style="stop-color:#D2A983;stop-opacity:1" />
<stop  offset="1"  style="stop-color:#8A5A2E;stop-opacity:1" />
</radialGradient>
<path style="fill:url(#RadialGradID_2008) " d="M12.95 -8.95L12.85 -8.25Q12.85 -7.5 13.3 -6.2Q13.8 -4.85 14.5 -4.05L14.5 4.7Q11.5 0.8 11.5 -6.25L11.6 -8.95L11.65 -10.7L13.3 -10.7L12.95 -8.95M11.35 7.05Q11.9 8.5 11.9 9.7L11.85 10.75L10.35 10.75L10.35 4.75L11.35 7.05" />
<radialGradient
id="RadialGradID_2009" gradientUnits="userSpaceOnUse" gradientTransform="matrix(0.0275574, 0, 0, 0.0180054, -0.65, 4.9)" spreadMethod ="pad" cx="0" cy="0" r="819.2" fx="0" fy="0" >
<stop  offset="0.027451"  style="stop-color:#EEB883;stop-opacity:1" />
<stop  offset="0.976471"  style="stop-color:#AD7C4D;stop-opacity:1" />
</radialGradient>
<path style="fill:url(#RadialGradID_2009) " d="M-11.4 10.75L-10.35 10.75L-8.7 10.75L-6.95 10.75L-1.75 10.75L-0.65 10.75L1.15 10.75L1.8 10.75L2.05 10.75Q3.35 11.5 5.8 12.05L9.05 12.5L11.45 12.1L13.75 11.65L14.5 11.7L14.5 14.6L1.5 14.6L0.4 14.2L-2.35 13.25Q-5 12.15 -7.1 12L-12.35 11.35L-14.75 11.4L-14.75 10.75L-13.35 10.75L-11.4 10.75M11.75 12.15Q11.5 12.4 11.5 12.75L11.75 13.3L12.35 13.55L12.9 13.3L13.15 12.75L12.9 12.15Q12.7 11.9 12.35 11.9Q12 11.9 11.75 12.15M8.95 13.9L7.8 13.9L8.95 13.9M9.1 13.3L3.2 13.3L9.1 13.3M6.15 12.45L-2.25 12.45L6.15 12.45" />
<radialGradient
id="RadialGradID_2010" gradientUnits="userSpaceOnUse" gradientTransform="matrix(0.0280914, 0, 0, 0.0140381, -3.4, 4.9)" spreadMethod ="pad" cx="0" cy="0" r="819.2" fx="0" fy="0" >
<stop  offset="0.0392157"  style="stop-color:#D2A983;stop-opacity:1" />
<stop  offset="1"  style="stop-color:#8A5A2E;stop-opacity:1" />
</radialGradient>
<path style="fill:url(#RadialGradID_2010) " d="M14.5 10.75L14.5 11.7L13.75 11.65L11.45 12.1L9.05 12.5L5.8 12.05Q3.35 11.5 2.05 10.75L4 10.75L4.85 10.75L8.6 10.75L10.35 10.75L11.85 10.75L14.5 10.75M1.5 14.6L-14.75 14.6L-14.75 11.4L-12.35 11.35L-7.1 12Q-5 12.15 -2.35 13.25L0.4 14.2L1.5 14.6M-12.65 11.9Q-13 11.9 -13.25 12.15L-13.5 12.75L-13.25 13.3L-12.65 13.55L-12.05 13.3L-11.85 12.75L-12.05 12.15L-12.65 11.9M-10.25 12.65L-11.2 12.65L-10.25 12.65M-7.6 13.35L-10.5 13.35L-7.6 13.35" />
<radialGradient
id="RadialGradID_2011" gradientUnits="userSpaceOnUse" gradientTransform="matrix(0.018631, 0, 0, 0.018631, 3.45, -10.7)" spreadMethod ="pad" cx="0" cy="0" r="819.2" fx="19" fy="0" >
<stop  offset="0.027451"  style="stop-color:#C6884A;stop-opacity:1" />
<stop  offset="0.984314"  style="stop-color:#9A622B;stop-opacity:1" />
</radialGradient>
<path style="fill:url(#RadialGradID_2011) " d="M4.85 5.7L4.85 10.75L4 10.75L3.9 9.35Q3.9 8.7 4.35 7.2L4.85 5.7" />
<radialGradient
id="RadialGradID_2012" gradientUnits="userSpaceOnUse" gradientTransform="matrix(0.0138245, 0, 0, 0.0269928, -19.75, 0.15)" spreadMethod ="pad" cx="0" cy="0" r="819.2" fx="0" fy="0" >
<stop  offset="0.027451"  style="stop-color:#D2A983;stop-opacity:1" />
<stop  offset="1"  style="stop-color:#8A5A2E;stop-opacity:1" />
</radialGradient>
<path style="fill:url(#RadialGradID_2012) " d="M-12.15 -8.95Q-11.8 -6.15 -11.35 -5.1L-10.35 -3.25L-10.35 -2.1L-10.35 10.75L-11.4 10.75Q-11.05 0.3 -14.75 -8.45L-14.75 -10.7L-12.45 -10.7L-12.15 -8.95M-13.85 9.15Q-13.45 9.95 -13.35 10.75L-14.75 10.75L-14.75 8.15L-13.85 9.15" />
<radialGradient
id="RadialGradID_2013" gradientUnits="userSpaceOnUse" gradientTransform="matrix(0.0105743, 0, 0, 0.0241699, -18.15, -0.1)" spreadMethod ="pad" cx="0" cy="0" r="819.2" fx="0" fy="0" >
<stop  offset="0.0666667"  style="stop-color:#EEB883;stop-opacity:1" />
<stop  offset="0.976471"  style="stop-color:#AD7C4D;stop-opacity:1" />
</radialGradient>
<path style="fill:url(#RadialGradID_2013) " d="M-10.35 -3.25L-11.35 -5.1Q-11.8 -6.15 -12.15 -8.95L-12.45 -10.7L-10.35 -10.7L-10.35 -9.3L-10.35 -3.25M-11.4 10.75L-13.35 10.75Q-13.45 9.95 -13.85 9.15L-14.75 8.15L-14.75 -8.45Q-11.05 0.3 -11.4 10.75M-13.15 0.05L-13.15 5.45L-14 5.5L-14 4.7L-14 5.5L-13.15 5.45L-13.15 0.05M-14 6.55L-14 5.5L-14 6.55M-13.15 7.25L-13.15 5.45L-13.15 7.25" />
<radialGradient
id="RadialGradID_2014" gradientUnits="userSpaceOnUse" gradientTransform="matrix(0.0169678, 0, 0, 0.0169678, -4.75, -11.8)" spreadMethod ="pad" cx="0" cy="0" r="819.2" fx="19" fy="0" >
<stop  offset="0.0352941"  style="stop-color:#CD9762;stop-opacity:1" />
<stop  offset="0.960784"  style="stop-color:#9A6532;stop-opacity:1" />
</radialGradient>
<path style="fill:url(#RadialGradID_2014) " d="M-8.7 10.75L-8.5 8.3Q-8.5 2.55 -8.95 0.75L-10.35 -2.1L-10.35 -3.25L-10.35 -9.3L-9.35 -9.3L-9.2 -8.95L-8.45 -7.45Q-7.7 -6.05 -6.95 -5.85L-6.95 -2.1L-6.95 10.75L-8.7 10.75" />
<radialGradient
id="RadialGradID_2015" gradientUnits="userSpaceOnUse" gradientTransform="matrix(0.0173035, 0, 0, 0.0173035, 1.25, -15.2)" spreadMethod ="pad" cx="0" cy="0" r="819.2" fx="210200" fy="0" >
<stop  offset="0.0431373"  style="stop-color:#BD8A5C;stop-opacity:1" />
<stop  offset="0.960784"  style="stop-color:#804F21;stop-opacity:1" />
</radialGradient>
<path style="fill:url(#RadialGradID_2015) " d="M-1.75 10.75Q-4.75 8.9 -4.75 4.95Q-4.75 2.95 -3.2 -1.8Q-1.7 -6.5 -1.7 -8.75L-1.7 -8.95L-1.7 -9.3L-0.65 -9.3L-0.65 5.85L-0.65 10.75L-1.75 10.75M-6.95 -5.85L-6.95 -9.3L-3.95 -9.3L-4 -8.95Q-4.25 -5.5 -6.95 -2.1L-6.95 -5.85M-2.45 5.4L-2.45 0.7L-2.45 5.4M-3.2 6.85L-3.2 6.2L-2.4 6.25L-2.4 8.4L-2.4 6.25L-3.2 6.2L-3.2 6.85M-3.2 6.2L-3.2 4.45L-3.2 6.2" />
<radialGradient
id="RadialGradID_2016" gradientUnits="userSpaceOnUse" gradientTransform="matrix(0.0185547, 0, 0, 0.0185547, -0.05, -10.7)" spreadMethod ="pad" cx="0" cy="0" r="819.2" fx="19" fy="0" >
<stop  offset="0.00784314"  style="stop-color:#CD9762;stop-opacity:1" />
<stop  offset="0.960784"  style="stop-color:#9A6532;stop-opacity:1" />
</radialGradient>
<path style="fill:url(#RadialGradID_2016) " d="M-6.95 10.75L-6.95 -2.1Q-4.25 -5.5 -4 -8.95L-3.95 -9.3L-1.7 -9.3L-1.7 -8.95L-1.7 -8.75Q-1.7 -6.5 -3.2 -1.8Q-4.75 2.95 -4.75 4.95Q-4.75 8.9 -1.75 10.75L-6.95 10.75" />
<radialGradient
id="RadialGradID_2017" gradientUnits="userSpaceOnUse" gradientTransform="matrix(0.0197296, -0.00901794, 0.00650024, 0.0142212, -10.65, -11.55)" spreadMethod ="pad" cx="0" cy="0" r="819.2" fx="210200" fy="0" >
<stop  offset="0.0588235"  style="stop-color:#BD8A5C;stop-opacity:1" />
<stop  offset="1"  style="stop-color:#70441B;stop-opacity:1" />
</radialGradient>
<path style="fill:url(#RadialGradID_2017) " d="M-8.45 -7.45L-9.2 -8.95L-9.35 -9.3L-6.95 -9.3L-6.95 -5.85Q-7.7 -6.05 -8.45 -7.45M-10.35 10.75L-10.35 -2.1L-8.95 0.75Q-8.5 2.55 -8.5 8.3L-8.7 10.75L-10.35 10.75" />
<path style="fill:none;stroke-width:0.7;stroke-linecap:round;stroke-linejoin:miter;stroke-miterlimit:5;stroke:#000000;stroke-opacity:0.101961" d="M14.5 -13.7L10.55 -13.45L8.45 -13.15L5.9 -12.9L2.1 -13.05L-2.55 -13.45L-11.45 -14.15L-14.75 -14.05" />
<path style="fill:none;stroke-width:0.8;stroke-linecap:round;stroke-linejoin:miter;stroke-miterlimit:5;stroke:#000000;stroke-opacity:0.501961" d="M-14.75 -14.05L-14.75 -10.7" />
<path style="fill:none;stroke-width:0.7;stroke-linecap:round;stroke-linejoin:round;stroke-miterlimit:3;stroke:#000000;stroke-opacity:0.290196" d="M-14.75 -10.7L-12.45 -10.7L-10.35 -10.7L-9.7 -10.7L-9.3 -10.7" />
<path style="fill:none;stroke-width:0.7;stroke-linecap:round;stroke-linejoin:miter;stroke-miterlimit:5;stroke:#000000;stroke-opacity:0.101961" d="M-9.3 -10.7Q-5.55 -12 -1.95 -12L5.95 -11.55L9.55 -10.7" />
<path style="fill:none;stroke-width:0.7;stroke-linecap:round;stroke-linejoin:round;stroke-miterlimit:3;stroke:#000000;stroke-opacity:0.290196" d="M9.55 -10.7L10.35 -10.7L11.65 -10.7L13.3 -10.7L14.5 -10.7" />
<path style="fill:none;stroke-width:0.8;stroke-linecap:round;stroke-linejoin:miter;stroke-miterlimit:5;stroke:#000000;stroke-opacity:0.501961" d="M14.5 -10.7L14.5 -13.7L14.5 -14.65L-14.75 -14.65L-14.75 -14.05" />
<path style="fill:none;stroke-width:0.7;stroke-linecap:round;stroke-linejoin:miter;stroke-miterlimit:5;stroke:#000000;stroke-opacity:0.152941" d="M12.9 -13L13.15 -12.4L12.9 -11.8L12.35 -11.6L11.75 -11.8Q11.5 -12.05 11.5 -12.4L11.75 -13L12.35 -13.25L12.9 -13z" />
<path style="fill:none;stroke-width:0.7;stroke-linecap:round;stroke-linejoin:miter;stroke-miterlimit:5;stroke:#000000;stroke-opacity:0.101961" d="M8.6 10.75Q7.25 7.85 6.8 5.05Q6.5 3.15 6.5 -0.3Q6.5 -2.65 7.1 -6.1L7.55 -8.95L7.6 -9.3" />
<path style="fill:none;stroke-width:0.7;stroke-linecap:round;stroke-linejoin:round;stroke-miterlimit:3;stroke:#000000;stroke-opacity:0.290196" d="M4.85 -9.3L4.85 -4.25L4.85 5.7L4.85 10.75L8.6 10.75L10.35 10.75L10.35 4.75L10.35 3.55" />
<path style="fill:none;stroke-width:0.7;stroke-linecap:round;stroke-linejoin:miter;stroke-miterlimit:5;stroke:#000000;stroke-opacity:0.101961" d="M10.35 3.55Q9.7 2.8 9.25 1.2Q8.9 -0.3 8.9 -1.5Q8.9 -3.2 9.55 -4.6L10.35 -6.05" />
<path style="fill:none;stroke-width:0.7;stroke-linecap:round;stroke-linejoin:round;stroke-miterlimit:3;stroke:#000000;stroke-opacity:0.290196" d="M10.35 -6.05L10.35 -9.3" />
<path style="fill:none;stroke-width:0.7;stroke-linecap:round;stroke-linejoin:miter;stroke-miterlimit:5;stroke:#000000;stroke-opacity:0.101961" d="M7.6 -9.3L7.85 -10.7" />
<path style="fill:none;stroke-width:0.7;stroke-linecap:round;stroke-linejoin:round;stroke-miterlimit:3;stroke:#000000;stroke-opacity:0.290196" d="M7.85 -10.7L4.85 -10.7L4.85 -9.3" />
<path style="fill:none;stroke-width:0.7;stroke-linecap:round;stroke-linejoin:miter;stroke-miterlimit:5;stroke:#000000;stroke-opacity:0.101961" d="M1 -9.3L1.1 -8.95Q1.6 -7.15 1.6 -4.8Q1.6 -1.8 0.95 0.45L-0.65 5.85" />
<path style="fill:none;stroke-width:0.7;stroke-linecap:round;stroke-linejoin:round;stroke-miterlimit:3;stroke:#000000;stroke-opacity:0.290196" d="M-0.65 5.85L-0.65 10.75L1.15 10.75" />
<path style="fill:none;stroke-width:0.7;stroke-linecap:round;stroke-linejoin:miter;stroke-miterlimit:5;stroke:#000000;stroke-opacity:0.101961" d="M1.15 10.75L0.9 7.4Q0.9 5.15 1.4 2.6Q1.8 0.2 2.3 -0.7L3.6 -2.75L4.85 -4.25" />
<path style="fill:none;stroke-width:0.7;stroke-linecap:round;stroke-linejoin:round;stroke-miterlimit:3;stroke:#000000;stroke-opacity:0.290196" d="M7.85 -10.7L9.55 -10.7" />
<path style="fill:none;stroke-width:0.7;stroke-linecap:round;stroke-linejoin:miter;stroke-miterlimit:5;stroke:#000000;stroke-opacity:0.101961" d="M7.5 -12.15L8.45 -12.15" />
<path style="fill:none;stroke-width:0.7;stroke-linecap:round;stroke-linejoin:round;stroke-miterlimit:3;stroke:#000000;stroke-opacity:0.290196" d="M0.5 -10.7L4.85 -10.7" />
<path style="fill:none;stroke-width:0.7;stroke-linecap:round;stroke-linejoin:miter;stroke-miterlimit:5;stroke:#000000;stroke-opacity:0.101961" d="M1 -9.3L0.5 -10.7" />
<path style="fill:none;stroke-width:0.7;stroke-linecap:round;stroke-linejoin:round;stroke-miterlimit:3;stroke:#000000;stroke-opacity:0.290196" d="M0.5 -10.7L-0.65 -10.7L-0.65 -9.3" />
<path style="fill:none;stroke-width:0.7;stroke-linecap:round;stroke-linejoin:round;stroke-miterlimit:3;stroke:#000000;stroke-opacity:0.290196" d="M10.35 -9.3L10.35 -10.7" />
<path style="fill:none;stroke-width:0.7;stroke-linecap:round;stroke-linejoin:miter;stroke-miterlimit:5;stroke:#000000;stroke-opacity:0.101961" d="M11.65 -10.7L11.6 -8.95L11.5 -6.25Q11.5 0.8 14.5 4.7" />
<path style="fill:none;stroke-width:0.8;stroke-linecap:round;stroke-linejoin:miter;stroke-miterlimit:5;stroke:#000000;stroke-opacity:0.501961" d="M14.5 4.7L14.5 -4.05" />
<path style="fill:none;stroke-width:0.7;stroke-linecap:round;stroke-linejoin:miter;stroke-miterlimit:5;stroke:#000000;stroke-opacity:0.101961" d="M14.5 -4.05Q13.8 -4.85 13.3 -6.2Q12.85 -7.5 12.85 -8.25L12.95 -8.95L13.3 -10.7" />
<path style="fill:none;stroke-width:0.7;stroke-linecap:round;stroke-linejoin:miter;stroke-miterlimit:5;stroke:#000000;stroke-opacity:0.101961" d="M10.9 -9.55L10.9 -7.4" />
<path style="fill:none;stroke-width:0.8;stroke-linecap:round;stroke-linejoin:miter;stroke-miterlimit:5;stroke:#000000;stroke-opacity:0.501961" d="M14.5 -4.05L14.5 -10.7" />
<path style="fill:none;stroke-width:0.7;stroke-linecap:round;stroke-linejoin:miter;stroke-miterlimit:5;stroke:#000000;stroke-opacity:0.101961" d="M9.1 -12.7L10.55 -12.7" />
<path style="fill:none;stroke-width:0.7;stroke-linecap:round;stroke-linejoin:miter;stroke-miterlimit:5;stroke:#000000;stroke-opacity:0.101961" d="M6.45 -13.7L10.15 -13.7" />
<path style="fill:none;stroke-width:0.7;stroke-linecap:round;stroke-linejoin:miter;stroke-miterlimit:5;stroke:#000000;stroke-opacity:0.101961" d="M11.45 0.95L11.45 1.6" />
<path style="fill:none;stroke-width:0.7;stroke-linecap:round;stroke-linejoin:round;stroke-miterlimit:3;stroke:#000000;stroke-opacity:0.290196" d="M10.35 10.75L11.85 10.75" />
<path style="fill:none;stroke-width:0.7;stroke-linecap:round;stroke-linejoin:miter;stroke-miterlimit:5;stroke:#000000;stroke-opacity:0.101961" d="M11.85 10.75L11.9 9.7Q11.9 8.5 11.35 7.05L10.35 4.75" />
<path style="fill:none;stroke-width:0.7;stroke-linecap:round;stroke-linejoin:miter;stroke-miterlimit:5;stroke:#000000;stroke-opacity:0.152941" d="M12.35 11.9Q12.7 11.9 12.9 12.15L13.15 12.75L12.9 13.3L12.35 13.55L11.75 13.3L11.5 12.75Q11.5 12.4 11.75 12.15Q12 11.9 12.35 11.9z" />
<path style="fill:none;stroke-width:0.8;stroke-linecap:round;stroke-linejoin:miter;stroke-miterlimit:5;stroke:#000000;stroke-opacity:0.501961" d="M14.5 10.75L14.5 11.7L14.5 14.6L1.5 14.6L-14.75 14.6L-14.75 11.4L-14.75 10.75L-14.75 8.15L-14.75 -8.45L-14.75 -10.7" />
<path style="fill:none;stroke-width:0.7;stroke-linecap:round;stroke-linejoin:miter;stroke-miterlimit:5;stroke:#000000;stroke-opacity:0.101961" d="M14.5 11.7L13.75 11.65L11.45 12.1L9.05 12.5L5.8 12.05Q3.35 11.5 2.05 10.75" />
<path style="fill:none;stroke-width:0.7;stroke-linecap:round;stroke-linejoin:miter;stroke-miterlimit:5;stroke:#000000;stroke-opacity:0.152941" d="M2.05 10.75L1.8 10.75" />
<path style="fill:none;stroke-width:0.7;stroke-linecap:round;stroke-linejoin:round;stroke-miterlimit:3;stroke:#000000;stroke-opacity:0.290196" d="M1.8 10.75L1.15 10.75" />
<path style="fill:none;stroke-width:0.7;stroke-linecap:round;stroke-linejoin:miter;stroke-miterlimit:5;stroke:#000000;stroke-opacity:0.101961" d="M13.65 9.3L13.65 7.15" />
<path style="fill:none;stroke-width:0.7;stroke-linecap:round;stroke-linejoin:round;stroke-miterlimit:3;stroke:#000000;stroke-opacity:0.290196" d="M11.85 10.75L14.5 10.75" />
<path style="fill:none;stroke-width:0.8;stroke-linecap:round;stroke-linejoin:miter;stroke-miterlimit:5;stroke:#000000;stroke-opacity:0.501961" d="M14.5 10.75L14.5 4.7" />
<path style="fill:none;stroke-width:0.7;stroke-linecap:round;stroke-linejoin:miter;stroke-miterlimit:5;stroke:#000000;stroke-opacity:0.101961" d="M12.95 7.25L12.95 5.4" />
<path style="fill:none;stroke-width:0.7;stroke-linecap:round;stroke-linejoin:round;stroke-miterlimit:3;stroke:#000000;stroke-opacity:0.290196" d="M4 10.75L4.85 10.75" />
<path style="fill:none;stroke-width:0.7;stroke-linecap:round;stroke-linejoin:miter;stroke-miterlimit:5;stroke:#000000;stroke-opacity:0.152941" d="M4 10.75L3.9 9.35Q3.9 8.7 4.35 7.2L4.85 5.7" />
<path style="fill:none;stroke-width:0.7;stroke-linecap:round;stroke-linejoin:round;stroke-miterlimit:3;stroke:#000000;stroke-opacity:0.290196" d="M2.05 10.75L4 10.75" />
<path style="fill:none;stroke-width:0.7;stroke-linecap:round;stroke-linejoin:miter;stroke-miterlimit:5;stroke:#000000;stroke-opacity:0.101961" d="M7.8 13.9L8.95 13.9" />
<path style="fill:none;stroke-width:0.7;stroke-linecap:round;stroke-linejoin:miter;stroke-miterlimit:5;stroke:#000000;stroke-opacity:0.101961" d="M3.2 13.3L9.1 13.3" />
<path style="fill:none;stroke-width:0.7;stroke-linecap:round;stroke-linejoin:miter;stroke-miterlimit:5;stroke:#000000;stroke-opacity:0.101961" d="M-14.75 11.4L-12.35 11.35L-7.1 12Q-5 12.15 -2.35 13.25L0.4 14.2L1.5 14.6" />
<path style="fill:none;stroke-width:0.7;stroke-linecap:round;stroke-linejoin:round;stroke-miterlimit:3;stroke:#000000;stroke-opacity:0.290196" d="M10.35 -6.05L10.35 3.55" />
<path style="fill:none;stroke-width:0.7;stroke-linecap:round;stroke-linejoin:miter;stroke-miterlimit:5;stroke:#000000;stroke-opacity:0.101961" d="M-9.75 -13.4L-9.3 -13.4L-6.5 -13.4" />
<path style="fill:none;stroke-width:0.7;stroke-linecap:round;stroke-linejoin:miter;stroke-miterlimit:5;stroke:#000000;stroke-opacity:0.101961" d="M-8.8 -12.8L-9.3 -12.8L-10.8 -12.8" />
<path style="fill:none;stroke-width:0.7;stroke-linecap:round;stroke-linejoin:miter;stroke-miterlimit:5;stroke:#000000;stroke-opacity:0.101961" d="M-9.3 -12.8L-9.3 -13.4" />
<path style="fill:none;stroke-width:0.7;stroke-linecap:round;stroke-linejoin:miter;stroke-miterlimit:5;stroke:#000000;stroke-opacity:0.152941" d="M-11.85 -12.4L-12.05 -11.8L-12.65 -11.6L-13.25 -11.8L-13.5 -12.4L-13.25 -13L-12.65 -13.25L-12.05 -13L-11.85 -12.4z" />
<path style="fill:none;stroke-width:0.7;stroke-linecap:round;stroke-linejoin:round;stroke-miterlimit:3;stroke:#000000;stroke-opacity:0.290196" d="M-10.35 -10.7L-10.35 -9.3" />
<path style="fill:none;stroke-width:0.7;stroke-linecap:round;stroke-linejoin:miter;stroke-miterlimit:5;stroke:#000000;stroke-opacity:0.101961" d="M-9.35 -9.3L-9.7 -10.7" />
<path style="fill:none;stroke-width:0.7;stroke-linecap:round;stroke-linejoin:miter;stroke-miterlimit:5;stroke:#000000;stroke-opacity:0.101961" d="M-10.35 -3.25L-11.35 -5.1Q-11.8 -6.15 -12.15 -8.95L-12.45 -10.7" />
<path style="fill:none;stroke-width:0.7;stroke-linecap:round;stroke-linejoin:round;stroke-miterlimit:3;stroke:#000000;stroke-opacity:0.290196" d="M-10.35 -2.1L-10.35 -3.25L-10.35 -9.3" />
<path style="fill:none;stroke-width:0.7;stroke-linecap:round;stroke-linejoin:miter;stroke-miterlimit:5;stroke:#000000;stroke-opacity:0.101961" d="M-1.7 -9.3L-1.7 -8.95L-1.7 -8.75Q-1.7 -6.5 -3.2 -1.8Q-4.75 2.95 -4.75 4.95Q-4.75 8.9 -1.75 10.75" />
<path style="fill:none;stroke-width:0.7;stroke-linecap:round;stroke-linejoin:round;stroke-miterlimit:3;stroke:#000000;stroke-opacity:0.290196" d="M-1.75 10.75L-0.65 10.75" />
<path style="fill:none;stroke-width:0.7;stroke-linecap:round;stroke-linejoin:round;stroke-miterlimit:3;stroke:#000000;stroke-opacity:0.290196" d="M-1.9 -10.7L-0.65 -10.7" />
<path style="fill:none;stroke-width:0.7;stroke-linecap:round;stroke-linejoin:miter;stroke-miterlimit:5;stroke:#000000;stroke-opacity:0.101961" d="M-1.7 -9.3L-1.9 -10.7" />
<path style="fill:none;stroke-width:0.7;stroke-linecap:round;stroke-linejoin:round;stroke-miterlimit:3;stroke:#000000;stroke-opacity:0.290196" d="M-1.9 -10.7L-4 -10.7" />
<path style="fill:none;stroke-width:0.7;stroke-linecap:round;stroke-linejoin:miter;stroke-miterlimit:5;stroke:#000000;stroke-opacity:0.101961" d="M-4 -10.7L-3.95 -9.3" />
<path style="fill:none;stroke-width:0.7;stroke-linecap:round;stroke-linejoin:miter;stroke-miterlimit:5;stroke:#000000;stroke-opacity:0.101961" d="M-6.95 -2.1Q-4.25 -5.5 -4 -8.95L-3.95 -9.3" />
<path style="fill:none;stroke-width:0.7;stroke-linecap:round;stroke-linejoin:round;stroke-miterlimit:3;stroke:#000000;stroke-opacity:0.290196" d="M-6.95 -9.3L-6.95 -5.85L-6.95 -2.1L-6.95 10.75L-1.75 10.75" />
<path style="fill:none;stroke-width:0.7;stroke-linecap:round;stroke-linejoin:miter;stroke-miterlimit:5;stroke:#000000;stroke-opacity:0.101961" d="M-9.35 -9.3L-9.2 -8.95L-8.45 -7.45Q-7.7 -6.05 -6.95 -5.85" />
<path style="fill:none;stroke-width:0.7;stroke-linecap:round;stroke-linejoin:round;stroke-miterlimit:3;stroke:#000000;stroke-opacity:0.290196" d="M-6.95 -9.3L-6.95 -10.7L-9.3 -10.7" />
<path style="fill:none;stroke-width:0.7;stroke-linecap:round;stroke-linejoin:miter;stroke-miterlimit:5;stroke:#000000;stroke-opacity:0.101961" d="M-9.6 -12.1L-6.8 -12.1" />
<path style="fill:none;stroke-width:0.7;stroke-linecap:round;stroke-linejoin:round;stroke-miterlimit:3;stroke:#000000;stroke-opacity:0.290196" d="M-6.95 -10.7L-4 -10.7" />
<path style="fill:none;stroke-width:0.7;stroke-linecap:round;stroke-linejoin:miter;stroke-miterlimit:5;stroke:#000000;stroke-opacity:0.101961" d="M-2.45 0.7L-2.45 5.4" />
<path style="fill:none;stroke-width:0.7;stroke-linecap:round;stroke-linejoin:miter;stroke-miterlimit:5;stroke:#000000;stroke-opacity:0.101961" d="M-8.7 10.75L-8.5 8.3Q-8.5 2.55 -8.95 0.75L-10.35 -2.1" />
<path style="fill:none;stroke-width:0.7;stroke-linecap:round;stroke-linejoin:round;stroke-miterlimit:3;stroke:#000000;stroke-opacity:0.290196" d="M-10.35 -2.1L-10.35 10.75L-8.7 10.75L-6.95 10.75" />
<path style="fill:none;stroke-width:0.7;stroke-linecap:round;stroke-linejoin:miter;stroke-miterlimit:5;stroke:#000000;stroke-opacity:0.101961" d="M-2.4 8.4L-2.4 6.25L-3.2 6.2L-3.2 6.85" />
<path style="fill:none;stroke-width:0.7;stroke-linecap:round;stroke-linejoin:miter;stroke-miterlimit:5;stroke:#000000;stroke-opacity:0.101961" d="M-3.2 4.45L-3.2 6.2" />
<path style="fill:none;stroke-width:0.7;stroke-linecap:round;stroke-linejoin:miter;stroke-miterlimit:5;stroke:#000000;stroke-opacity:0.101961" d="M-14 4.7L-14 5.5L-13.15 5.45L-13.15 0.05" />
<path style="fill:none;stroke-width:0.7;stroke-linecap:round;stroke-linejoin:miter;stroke-miterlimit:5;stroke:#000000;stroke-opacity:0.101961" d="M-13.35 10.75Q-13.45 9.95 -13.85 9.15L-14.75 8.15" />
<path style="fill:none;stroke-width:0.7;stroke-linecap:round;stroke-linejoin:round;stroke-miterlimit:3;stroke:#000000;stroke-opacity:0.290196" d="M-13.35 10.75L-14.75 10.75" />
<path style="fill:none;stroke-width:0.7;stroke-linecap:round;stroke-linejoin:round;stroke-miterlimit:3;stroke:#000000;stroke-opacity:0.290196" d="M-10.35 10.75L-11.4 10.75L-13.35 10.75" />
<path style="fill:none;stroke-width:0.7;stroke-linecap:round;stroke-linejoin:miter;stroke-miterlimit:5;stroke:#000000;stroke-opacity:0.152941" d="M-12.05 12.15L-11.85 12.75L-12.05 13.3L-12.65 13.55L-13.25 13.3L-13.5 12.75L-13.25 12.15Q-13 11.9 -12.65 11.9L-12.05 12.15z" />
<path style="fill:none;stroke-width:0.7;stroke-linecap:round;stroke-linejoin:miter;stroke-miterlimit:5;stroke:#000000;stroke-opacity:0.101961" d="M-14 5.5L-14 6.55" />
<path style="fill:none;stroke-width:0.7;stroke-linecap:round;stroke-linejoin:miter;stroke-miterlimit:5;stroke:#000000;stroke-opacity:0.101961" d="M-13.15 5.45L-13.15 7.25" />
<path style="fill:none;stroke-width:0.7;stroke-linecap:round;stroke-linejoin:miter;stroke-miterlimit:5;stroke:#000000;stroke-opacity:0.101961" d="M-11.2 12.65L-10.25 12.65" />
<path style="fill:none;stroke-width:0.7;stroke-linecap:round;stroke-linejoin:miter;stroke-miterlimit:5;stroke:#000000;stroke-opacity:0.101961" d="M-10.5 13.35L-7.6 13.35" />
<path style="fill:none;stroke-width:0.7;stroke-linecap:round;stroke-linejoin:miter;stroke-miterlimit:5;stroke:#000000;stroke-opacity:0.101961" d="M-14.75 -8.45Q-11.05 0.3 -11.4 10.75" />
<path style="fill:none;stroke-width:0.7;stroke-linecap:round;stroke-linejoin:round;stroke-miterlimit:3;stroke:#000000;stroke-opacity:0.290196" d="M-0.65 5.85L-0.65 -9.3" />
<path style="fill:none;stroke-width:0.7;stroke-linecap:round;stroke-linejoin:miter;stroke-miterlimit:5;stroke:#000000;stroke-opacity:0.101961" d="M-2.25 12.45L6.15 12.45" />
</g>
<g id="PathID_4569" transform="matrix(1, 0, 0, 1, 19.9, 19.1)">
<linearGradient
id="LinearGradID_2018" gradientUnits="userSpaceOnUse" gradientTransform="matrix(0, -0.015686, 0.0131073, 0, 0.35, -4.3)" spreadMethod ="pad" x1="-819.2" y1="0" x2="819.2" y2="0" >
<stop  offset="0" style="stop-color:#000000;stop-opacity:0" />
<stop  offset="1" style="stop-color:#000000;stop-opacity:0.501961" />
</linearGradient>
<path style="fill:url(#LinearGradID_2018) " d="M-10.35 -10.7L10.4 -10.7L10.4 10.75L-10.35 10.75L-10.35 -10.7" />
</g>
<g id="PathID_4570" transform="matrix(1, 0, 0, 1, 19.9, 19.1)">
<linearGradient
id="LinearGradID_2019" gradientUnits="userSpaceOnUse" gradientTransform="matrix(0, -0.00537109, 0.0110931, 0, -12.85, -7.2)" spreadMethod ="pad" x1="-819.2" y1="0" x2="819.2" y2="0" >
<stop  offset="0" style="stop-color:#000000;stop-opacity:0" />
<stop  offset="1" style="stop-color:#000000;stop-opacity:0.501961" />
</linearGradient>
<path style="fill:url(#LinearGradID_2019) " d="M14.55 -10.6L14.55 7.55L10.4 7.55L10.4 -10.6L14.55 -10.6M-10.4 -10.6L-10.4 7.55L-14.6 7.55L-14.6 -10.6L-10.4 -10.6" />
</g>
<g id="PathID_4571" transform="matrix(1, 0, 0, 1, 19.9, 19.1)">
<radialGradient
id="RadialGradID_2020" gradientUnits="userSpaceOnUse" gradientTransform="matrix(0.0347748, -0.00932312, 0.00720215, 0.0268707, -4, -11.85)" spreadMethod ="pad" cx="0" cy="0" r="819.2" fx="0" fy="0" >
<stop  offset="0.027451"  style="stop-color:#EEB883;stop-opacity:1" />
<stop  offset="0.976471"  style="stop-color:#AD7C4D;stop-opacity:1" />
</radialGradient>
<path style="fill:url(#RadialGradID_2020) " d="M19.05 -2.45L2.6 1.95L1.15 1.75L-2.8 1.3L-9.25 1L-16.15 1.8L-19.1 2.75L-19.4 1.7L1.55 -3.9L1.8 -4Q3.8 -3.25 7.1 -3.3L11.35 -3.7Q12.4 -4 14.25 -5.15Q16 -6.3 16.9 -6.55L17.9 -6.75L19.05 -2.45M11.8 -1.6L10.3 -1.2L11.8 -1.6M11.8 -2.55L4.3 -0.55L11.8 -2.55M7.65 -2.85L-2.9 0L7.65 -2.85" />
<radialGradient
id="RadialGradID_2021" gradientUnits="userSpaceOnUse" gradientTransform="matrix(0.0354614, -0.00950623, 0.00561523, 0.0209656, -7.4, -10.9)" spreadMethod ="pad" cx="0" cy="0" r="819.2" fx="0" fy="0" >
<stop  offset="0.0392157"  style="stop-color:#D2A983;stop-opacity:1" />
<stop  offset="1"  style="stop-color:#8A5A2E;stop-opacity:1" />
</radialGradient>
<path style="fill:url(#RadialGradID_2021) " d="M17.5 -8.2L17.9 -6.75L16.9 -6.55Q16 -6.3 14.25 -5.15Q12.4 -4 11.35 -3.7L7.1 -3.3Q3.8 -3.25 1.8 -4L17.5 -8.2M-19.1 2.75L-16.15 1.8L-9.25 1L-2.8 1.3L1.15 1.75L2.6 1.95L-17.85 7.45L-19.1 2.75M-9.3 3.2L-12.9 4.2L-9.3 3.2M-12.95 3L-14.15 3.35L-12.95 3" />
<path style="fill:none;stroke-width:0.7;stroke-linecap:round;stroke-linejoin:miter;stroke-miterlimit:5;stroke:#000000;stroke-opacity:0.101961" d="M17.9 -6.75L16.9 -6.55Q16 -6.3 14.25 -5.15Q12.4 -4 11.35 -3.7L7.1 -3.3Q3.8 -3.25 1.8 -4" />
<path style="fill:none;stroke-width:0.7;stroke-linecap:round;stroke-linejoin:miter;stroke-miterlimit:5;stroke:#000000;stroke-opacity:0.152941" d="M1.8 -4L1.55 -3.9" />
<path style="fill:none;stroke-width:0.8;stroke-linecap:round;stroke-linejoin:miter;stroke-miterlimit:5;stroke:#000000;stroke-opacity:0.501961" d="M1.55 -3.9L-19.4 1.7L-19.1 2.75" />
<path style="fill:none;stroke-width:0.7;stroke-linecap:round;stroke-linejoin:miter;stroke-miterlimit:5;stroke:#000000;stroke-opacity:0.101961" d="M-19.1 2.75L-16.15 1.8L-9.25 1L-2.8 1.3L1.15 1.75L2.6 1.95" />
<path style="fill:none;stroke-width:0.8;stroke-linecap:round;stroke-linejoin:miter;stroke-miterlimit:5;stroke:#000000;stroke-opacity:0.501961" d="M2.6 1.95L19.05 -2.45L17.9 -6.75L17.5 -8.2L1.8 -4" />
<path style="fill:none;stroke-width:0.7;stroke-linecap:round;stroke-linejoin:miter;stroke-miterlimit:5;stroke:#000000;stroke-opacity:0.101961" d="M10.3 -1.2L11.8 -1.6" />
<path style="fill:none;stroke-width:0.7;stroke-linecap:round;stroke-linejoin:miter;stroke-miterlimit:5;stroke:#000000;stroke-opacity:0.101961" d="M4.3 -0.55L11.8 -2.55" />
<path style="fill:none;stroke-width:0.8;stroke-linecap:round;stroke-linejoin:miter;stroke-miterlimit:5;stroke:#000000;stroke-opacity:0.501961" d="M2.6 1.95L-17.85 7.45L-19.1 2.75" />
<path style="fill:none;stroke-width:0.7;stroke-linecap:round;stroke-linejoin:miter;stroke-miterlimit:5;stroke:#000000;stroke-opacity:0.101961" d="M-12.9 4.2L-9.3 3.2" />
<path style="fill:none;stroke-width:0.7;stroke-linecap:round;stroke-linejoin:miter;stroke-miterlimit:5;stroke:#000000;stroke-opacity:0.101961" d="M-14.15 3.35L-12.95 3" />
<path style="fill:none;stroke-width:0.7;stroke-linecap:round;stroke-linejoin:miter;stroke-miterlimit:5;stroke:#000000;stroke-opacity:0.101961" d="M-2.9 0L7.65 -2.85" />
</g>
<g id="PathID_4572" transform="matrix(1, 0, 0, 1, 19.9, 19.1)">
<path style="fill:#FFF7E5;fill-opacity:1" d="M11.3 -9.85L-0.15 12.85L-12.35 -10L-8.15 -9.95L-6.25 -5.7L5.25 -5.7L7.55 -9.7L11.3 -9.85M-0.15 6.05L3.6 -2.1L-4.4 -2.1L-0.15 6.05" />
</g>
<g id="PathID_4573" transform="matrix(1, 0, 0, 1, 19.9, 19.1)">
<path style="fill:#D92000;fill-opacity:0.6" d="M18.6 -11.6L7.15 -0.2L19.1 11.8L11.65 19.25L-0.3 7.3L-12.05 19.05L-19.5 11.55L-7.75 -0.2L-18.95 -11.35L-11.5 -18.85L-0.3 -7.65L11.1 -19.1L18.6 -11.6" />
</g>
</svg>
