<?xml version="1.0" encoding="utf-8"?>
<svg version="1.1" id="Layer_1"
xmlns="http://www.w3.org/2000/svg"
xmlns:xlink="http://www.w3.org/1999/xlink"
width="40px" height="22px"
xml:space="preserve">
<g id="PathID_3620" transform="matrix(1, 0, 0, 1, 19.5, 11.75)">
<path style="fill:#FFFFFF;fill-opacity:0.278431" d="M7.85 -11.7L12.55 -11.55Q13.8 -11.35 13.8 -9.95Q13.75 -8.55 12.5 -8.45Q11.2 -8.35 8.05 -9.2L2 -10.3Q-0.9 -10.55 -0.5 -11Q-0.15 -11.5 2.15 -11.55L7.85 -11.7M18.15 -9L19.15 -8.85L19.55 -8.5Q19.55 -8.3 19.15 -8.15L18.15 -8L17.15 -8.15L16.75 -8.5L17.15 -8.85L18.15 -9M8.5 8.5L9.5 8.35L10.5 8.5L10.9 8.85L10.5 9.2L9.5 9.35L8.5 9.2Q8.1 9.05 8.1 8.85Q8.1 8.65 8.5 8.5M-17.3 -7.95L-18.2 -7.8L-19.15 -7.95L-19.5 -8.35L-19.15 -8.75L-18.2 -8.9L-17.3 -8.75L-16.9 -8.35Q-16.9 -8.1 -17.3 -7.95M-3.5 -11.1L-2.5 -11.25L-1.5 -11.1L-1.35 -11.05L-1.4 -10.85Q-1.45 -10.65 -2.25 -10.45L-3.5 -10.35Q-3.9 -10.45 -3.9 -10.7L-3.5 -11.1M-7.45 9.1L-7.85 9.5L-8.75 9.65L-9.7 9.5L-10.05 9.1L-9.7 8.7L-8.75 8.55L-7.85 8.7Q-7.45 8.85 -7.45 9.1" />
</g>
</svg>
