<?xml version="1.0" encoding="utf-8"?>
<svg version="1.1" id="Layer_1"
xmlns="http://www.w3.org/2000/svg"
xmlns:xlink="http://www.w3.org/1999/xlink"
width="32px" height="9px"
xml:space="preserve">
<g id="PathID_2827" transform="matrix(1, 0, 0, 1, 0.3, 0.3)">
<path style="fill:#54504E;fill-opacity:1" d="M22 2.75L0 3.5L31.3 3Q31.5 5.05 29.95 6.8L8.55 7.5Q18.75 5.6 22 2.75M0 3.5Q0.25 -0.5 7.7 0.05Q13.3 0.45 23.45 0.45Q23.25 1.65 22 2.75" />
<path style="fill:#3C3735;fill-opacity:1" d="M23.45 0.45L30.35 0.45Q31.15 1.9 31.3 3L22 2.75Q23.25 1.65 23.45 0.45" />
<linearGradient
id="LinearGradID_1423" gradientUnits="userSpaceOnUse" gradientTransform="matrix(0.0124359, 0, 0, 0.00396729, 15.55, 4.2)" spreadMethod ="pad" x1="-819.2" y1="0" x2="819.2" y2="0" >
<stop  offset="0" style="stop-color:#808080;stop-opacity:1" />
<stop  offset="0.517647" style="stop-color:#BFBCB7;stop-opacity:1" />
<stop  offset="1" style="stop-color:#808080;stop-opacity:1" />
</linearGradient>
<path style="fill:url(#LinearGradID_1423) " d="M22 2.75Q18.75 5.6 8.55 7.5L0.65 6.9Q-0.15 5 0 3.5L22 2.75" />
<path style="fill:none;stroke-width:0.7;stroke-linecap:round;stroke-linejoin:miter;stroke-miterlimit:5;stroke:#000000;stroke-opacity:0.501961" d="M8.55 7.5L29.95 6.8Q31.5 5.05 31.3 3" />
<path style="fill:none;stroke-width:0.7;stroke-linecap:round;stroke-linejoin:miter;stroke-miterlimit:5;stroke:#000000;stroke-opacity:0.501961" d="M8.55 7.5L0.65 6.9Q-0.15 5 0 3.5Q0.25 -0.5 7.7 0.05Q13.3 0.45 23.45 0.45L30.35 0.45Q31.15 1.9 31.3 3" />
</g>
</svg>
