<?xml version="1.0" encoding="utf-8"?>
<svg version="1.1" id="Layer_1"
xmlns="http://www.w3.org/2000/svg"
xmlns:xlink="http://www.w3.org/1999/xlink"
width="20px" height="20px"
xml:space="preserve">
<g id="PathID_3037" transform="matrix(1, 0, 0, 1, 9.9, 9.8)">
<path style="fill:#808080;fill-opacity:1" d="M-8.35 -0.35Q-8.1 -0.6 -8.35 -0.85L-8.6 -1L-8.9 -0.9Q-9.15 -0.65 -8.85 -0.35Q-8.6 -0.1 -8.35 -0.35M-7.6 0Q-8.7 0.3 -9.45 0.75L-9.7 -0.3L-9.15 -1.35L-7.2 -1.5Q-6.45 -0.95 -6.35 -0.15L-7.6 0" />
<path style="fill:#FFFFFF;fill-opacity:1" d="M-8.85 -0.35Q-9.15 -0.65 -8.9 -0.9L-8.6 -1L-8.35 -0.85Q-8.1 -0.6 -8.35 -0.35Q-8.6 -0.1 -8.85 -0.35" />
<path style="fill:#4C4C4C;fill-opacity:1" d="M-9.45 0.75Q-8.7 0.3 -7.6 0L-6.35 -0.15Q-6.4 0.9 -7.1 1.3Q-8.5 2.2 -9.45 0.75" />
<path style="fill:none;stroke-width:0.7;stroke-linecap:round;stroke-linejoin:round;stroke-miterlimit:3;stroke:#000000;stroke-opacity:0.290196" d="M-6.35 -0.15Q-6.45 -0.95 -7.2 -1.5L-9.15 -1.35L-9.7 -0.3L-9.45 0.75" />
<path style="fill:none;stroke-width:0.7;stroke-linecap:round;stroke-linejoin:round;stroke-miterlimit:3;stroke:#000000;stroke-opacity:0.290196" d="M-6.35 -0.15Q-6.4 0.9 -7.1 1.3Q-8.5 2.2 -9.45 0.75" />
</g>
<g id="PathID_3038" transform="matrix(1, 0, 0, 1, 9.9, 9.8)">
<path style="fill:#4C4C4C;fill-opacity:1" d="M0.95 -6.55Q-0.45 -5.65 -1.4 -7.1Q-0.65 -7.55 0.45 -7.85L1.7 -8Q1.65 -6.95 0.95 -6.55" />
<path style="fill:#808080;fill-opacity:1" d="M-1.65 -8.15L-1.1 -9.2L0.85 -9.35Q1.6 -8.8 1.7 -8L0.45 -7.85Q-0.65 -7.55 -1.4 -7.1L-1.65 -8.15M-0.8 -8.2Q-0.55 -7.95 -0.3 -8.2Q-0.05 -8.45 -0.3 -8.7L-0.55 -8.85L-0.85 -8.75Q-1.1 -8.5 -0.8 -8.2" />
<path style="fill:#FFFFFF;fill-opacity:1" d="M-0.85 -8.75L-0.55 -8.85L-0.3 -8.7Q-0.05 -8.45 -0.3 -8.2Q-0.55 -7.95 -0.8 -8.2Q-1.1 -8.5 -0.85 -8.75" />
<path style="fill:none;stroke-width:0.7;stroke-linecap:round;stroke-linejoin:round;stroke-miterlimit:3;stroke:#000000;stroke-opacity:0.290196" d="M1.7 -8Q1.6 -8.8 0.85 -9.35L-1.1 -9.2L-1.65 -8.15L-1.4 -7.1Q-0.45 -5.65 0.95 -6.55Q1.65 -6.95 1.7 -8z" />
</g>
<g id="PathID_3039" transform="matrix(1, 0, 0, 1, 9.9, 9.8)">
<path style="fill:#808080;fill-opacity:1" d="M8.45 0.2Q7.35 0.5 6.6 0.95L6.35 -0.1Q6.4 -0.75 6.9 -1.15Q7.95 -1.9 8.85 -1.3Q9.6 -0.75 9.7 0.05L8.45 0.2M7.15 -0.7Q6.9 -0.45 7.2 -0.15Q7.45 0.1 7.7 -0.15Q7.95 -0.4 7.7 -0.65L7.45 -0.8L7.15 -0.7" />
<path style="fill:#FFFFFF;fill-opacity:1" d="M7.45 -0.8L7.7 -0.65Q7.95 -0.4 7.7 -0.15Q7.45 0.1 7.2 -0.15Q6.9 -0.45 7.15 -0.7L7.45 -0.8" />
<path style="fill:#4C4C4C;fill-opacity:1" d="M6.6 0.95Q7.35 0.5 8.45 0.2L9.7 0.05Q9.65 1.1 8.95 1.5Q7.55 2.4 6.6 0.95" />
<path style="fill:none;stroke-width:0.7;stroke-linecap:round;stroke-linejoin:round;stroke-miterlimit:3;stroke:#000000;stroke-opacity:0.290196" d="M9.7 0.05Q9.6 -0.75 8.85 -1.3Q7.95 -1.9 6.9 -1.15Q6.4 -0.75 6.35 -0.1L6.6 0.95" />
<path style="fill:none;stroke-width:0.7;stroke-linecap:round;stroke-linejoin:round;stroke-miterlimit:3;stroke:#000000;stroke-opacity:0.290196" d="M9.7 0.05Q9.65 1.1 8.95 1.5Q7.55 2.4 6.6 0.95" />
</g>
<g id="PathID_3040" transform="matrix(1, 0, 0, 1, 9.9, 9.8)">
<path style="fill:#4C4C4C;fill-opacity:1" d="M-1.4 8.75Q-0.65 8.3 0.45 8L1.7 7.85Q1.65 8.9 0.95 9.3Q-0.45 10.2 -1.4 8.75" />
<path style="fill:#808080;fill-opacity:1" d="M0.45 8Q-0.65 8.3 -1.4 8.75L-1.65 7.7Q-1.6 7.05 -1.1 6.65Q-0.05 5.9 0.85 6.5Q1.6 7.05 1.7 7.85L0.45 8M-0.55 7L-0.85 7.1Q-1.1 7.35 -0.8 7.65Q-0.55 7.9 -0.3 7.65Q-0.05 7.4 -0.3 7.15L-0.55 7" />
<path style="fill:#FFFFFF;fill-opacity:1" d="M-0.3 7.15Q-0.05 7.4 -0.3 7.65Q-0.55 7.9 -0.8 7.65Q-1.1 7.35 -0.85 7.1L-0.55 7L-0.3 7.15" />
<path style="fill:none;stroke-width:0.7;stroke-linecap:round;stroke-linejoin:round;stroke-miterlimit:3;stroke:#000000;stroke-opacity:0.290196" d="M1.7 7.85Q1.6 7.05 0.85 6.5Q-0.05 5.9 -1.1 6.65Q-1.6 7.05 -1.65 7.7L-1.4 8.75" />
<path style="fill:none;stroke-width:0.7;stroke-linecap:round;stroke-linejoin:round;stroke-miterlimit:3;stroke:#000000;stroke-opacity:0.290196" d="M1.7 7.85Q1.65 8.9 0.95 9.3Q-0.45 10.2 -1.4 8.75" />
</g>
</svg>
