<?xml version="1.0" encoding="utf-8"?>
<svg version="1.1" id="Layer_1"
xmlns="http://www.w3.org/2000/svg"
xmlns:xlink="http://www.w3.org/1999/xlink"
width="21px" height="6px"
xml:space="preserve">
<g id="PathID_4336" transform="matrix(1, 0, 0, 1, 0.05, 0.05)">
<path style="fill:#808080;fill-opacity:1" d="M14.7 2.7Q14.7 1.6 15.5 0.8Q16.3 0 17.4 0Q18.5 0 19.3 0.8Q20.1 1.6 20.1 2.7Q20.1 3.8 19.3 4.6Q18.5 5.4 17.4 5.4Q16.3 5.4 15.5 4.6Q14.7 3.8 14.7 2.7M0.8 4.6Q0 3.8 0 2.7Q0 1.6 0.8 0.8Q1.6 0 2.7 0Q3.8 0 4.6 0.8Q5.4 1.6 5.4 2.7Q5.4 3.8 4.6 4.6Q3.8 5.4 2.7 5.4Q1.6 5.4 0.8 4.6" />
<path style="fill:none;stroke-width:0.7;stroke-linecap:round;stroke-linejoin:round;stroke-miterlimit:3;stroke:#000000;stroke-opacity:0.4" d="M14.7 2.7Q14.7 1.6 15.5 0.8Q16.3 0 17.4 0Q18.5 0 19.3 0.8Q20.1 1.6 20.1 2.7Q20.1 3.8 19.3 4.6Q18.5 5.4 17.4 5.4Q16.3 5.4 15.5 4.6Q14.7 3.8 14.7 2.7z" />
<path style="fill:none;stroke-width:0.7;stroke-linecap:round;stroke-linejoin:round;stroke-miterlimit:3;stroke:#000000;stroke-opacity:0.4" d="M0.8 4.6Q0 3.8 0 2.7Q0 1.6 0.8 0.8Q1.6 0 2.7 0Q3.8 0 4.6 0.8Q5.4 1.6 5.4 2.7Q5.4 3.8 4.6 4.6Q3.8 5.4 2.7 5.4Q1.6 5.4 0.8 4.6z" />
</g>
</svg>
