<?xml version="1.0" encoding="utf-8"?>
<svg version="1.1" id="Layer_1"
xmlns="http://www.w3.org/2000/svg"
xmlns:xlink="http://www.w3.org/1999/xlink"
width="26px" height="8px"
xml:space="preserve">
<g id="PathID_3974" transform="matrix(1, 0, 0, 1, 0, 0)">
<path style="fill:#808080;fill-opacity:1" d="M21.3 1.95L20.1 2.3L18.55 2.2L15.6 3.9L18.6 2.95L20.95 3.15L21.7 2.85L21.8 3.85L22.65 4.35L25.9 4.65L23.55 6L19.85 6.2L19.75 6.6L15.6 6.8L14 7.75L9.1 7.55L5.5 7.15Q2 6.2 0.05 4.65L0 3.65L0 3.45L0.2 0.35L0.25 0Q2.55 3 7.2 4.15L8.7 3.9L11.1 3Q10.55 3.7 11.1 3.9L14.65 3.95L15.65 3.05L16.8 2.8L18 0.95L20.55 1.15L21.3 1.95" />
</g>
</svg>
