<?xml version="1.0" encoding="utf-8"?>
<svg version="1.1" id="Layer_1"
xmlns="http://www.w3.org/2000/svg"
xmlns:xlink="http://www.w3.org/1999/xlink"
width="34px" height="20px"
xml:space="preserve">
<g id="PathID_4110" transform="matrix(1, 0, 0, 1, 16.75, 9.9)">
<linearGradient
id="LinearGradID_1772" gradientUnits="userSpaceOnUse" gradientTransform="matrix(0.0204773, 0, 0, 0.012085, 0, 0)" spreadMethod ="pad" x1="-819.2" y1="0" x2="819.2" y2="0" >
<stop  offset="0.0588235" style="stop-color:#665B5B;stop-opacity:1" />
<stop  offset="0.411765" style="stop-color:#808080;stop-opacity:1" />
<stop  offset="0.552941" style="stop-color:#808080;stop-opacity:1" />
<stop  offset="0.913725" style="stop-color:#665B5B;stop-opacity:1" />
</linearGradient>
<path style="fill:url(#LinearGradID_1772) " d="M16.8 -2Q14.8 -0.8 12.75 1.35Q10.5 3.65 9.85 5.45Q10.55 6.4 10.35 7.5Q10.1 8.85 8.45 9.6Q6.85 10.35 4.9 9.15Q2.15 7.45 -0.45 7.2Q-2.1 7 -5.6 8.6Q-8.65 10 -10.05 9.2Q-11.45 8.4 -11.45 6.8Q-11.5 5.2 -10.15 4.15Q-10.05 2.75 -12.1 0.75Q-14.3 -1.45 -16.75 -1.8Q-15.25 -4.25 -11.9 -6.65Q-6.65 -10.35 -0.95 -9.85Q5 -9.35 10.4 -6.6Q14.45 -4.5 16.8 -2" />
</g>
</svg>
