<?xml version="1.0" encoding="utf-8"?>
<svg version="1.1" id="Layer_1"
xmlns="http://www.w3.org/2000/svg"
xmlns:xlink="http://www.w3.org/1999/xlink"
width="34px" height="26px"
xml:space="preserve">
<g id="PathID_3221" transform="matrix(1, 0, 0, 1, 0.2, 0.2)">
<path style="fill:#808080;fill-opacity:1" d="M24.85 16.75Q26.15 17.15 26.4 18.2Q26.4 20.05 27.65 20.8Q28.35 20.7 28.75 19.7L29.25 21.1L29.1 21.55Q26.35 23.15 23.3 23.8L16.15 24.75Q14.3 23.45 10.8 23.6Q9.45 23.65 8.65 24.05Q7.05 23.15 6.7 22.1Q6.15 20.45 6.65 18.75Q8.5 20.95 10.55 21.7Q11.6 21.1 11.85 19.75L13.2 21.9Q14.2 20.7 14.45 18.05L15.75 20Q17.55 17.15 16.5 13.95L18.65 15.6Q22.9 18.95 19.75 22.65Q21.85 22.6 23.85 21.65Q24.35 20.95 23.75 19.75L23.75 19.25Q23.95 18.7 24.75 18.4Q25.3 17.85 24.85 16.75" />
</g>
<g id="PathID_3222" transform="matrix(1, 0, 0, 1, 0.2, 0.2)">
<path style="fill:#808080;fill-opacity:1" d="M31.75 6.6Q29.05 6 28.6 3.75L28.7 3.2Q25.8 3.7 23 2.15L23 1.15Q17.45 3.1 15.65 1.6L15.65 0.95Q11.95 3.55 8.25 1.6L8.2 0.4Q6.1 3.45 3.6 3.2L4.1 4.05Q3 5.6 1.55 5.65Q0.8 5.7 0 4.75Q1.8 4.85 3.6 3.2L3.25 2.5Q6.1 2.3 8.2 0.4L8.25 1.6L8.2 0.2Q11.75 2.25 15.65 0L15.65 0.95L15.65 1.6L23 1.15L23 2.15Q25.7 2.4 28.7 2.55L28.7 3.2L28.6 3.75Q30.85 5.65 32.45 5.55L31.75 6.6M16.15 23.7Q17.95 22.2 23.5 23.15Q26.3 21.6 29.1 21.55L23.5 24.15L22.25 24L18.7 24.85L16.15 24.5L16.15 25.3L16.15 23.7M29.1 21.55L29.25 21.1Q29.6 19.9 30.75 19.3Q31.35 18.9 32.25 18.7L32.95 19.75Q32.25 19.7 29.25 21.1L29.65 22.6L27.1 23Q24.65 23.6 23.5 24.15L23.5 23.15M16.15 25.3Q12.25 23.05 8.7 25.1L8.7 24.85Q7.1 23.4 5 23L3.75 22.8L4.1 22.1Q2.3 20.45 0.5 20.55Q1.3 19.6 2.05 19.65Q3.4 19.7 4.5 21.1L4.55 21.35L4.1 22.1L4.8 22.1L7 22.55L8.2 23.25L8.75 23.7L9.35 23.45Q12.75 21.9 16.15 23.7L16.15 24.5M8.75 23.7L8.7 24.85L8.75 23.7" />
<path style="fill:none;stroke-width:0.7;stroke-linecap:round;stroke-linejoin:round;stroke-miterlimit:3;stroke:#000000;stroke-opacity:0.301961" d="M31.75 6.6Q29.05 6 28.6 3.75Q25.8 3.7 23 2.15Q17.45 3.1 15.65 1.6Q11.95 3.55 8.25 1.6Q6.1 3.45 3.6 3.2L4.1 4.05Q3 5.6 1.55 5.65Q0.8 5.7 0 4.75Q1.8 4.85 3.6 3.2L3.25 2.5Q6.1 2.3 8.2 0.4L8.2 0.2Q11.75 2.25 15.65 0L15.65 0.95L23 1.15Q25.7 2.4 28.7 2.55L28.7 3.2Q30.85 5.65 32.45 5.55L31.75 6.6z" />
<path style="fill:none;stroke-width:0.7;stroke-linecap:round;stroke-linejoin:round;stroke-miterlimit:3;stroke:#000000;stroke-opacity:0.301961" d="M23 1.15L23 2.15" />
<path style="fill:none;stroke-width:0.7;stroke-linecap:round;stroke-linejoin:round;stroke-miterlimit:3;stroke:#000000;stroke-opacity:0.301961" d="M28.6 3.75L28.7 3.2" />
<path style="fill:none;stroke-width:0.7;stroke-linecap:round;stroke-linejoin:round;stroke-miterlimit:3;stroke:#000000;stroke-opacity:0.301961" d="M16.15 24.5L18.7 24.85L22.25 24L23.5 24.15L23.5 23.15Q17.95 22.2 16.15 23.7L16.15 24.5L16.15 25.3Q12.25 23.05 8.7 25.1L8.7 24.85Q7.1 23.4 5 23L3.75 22.8L4.1 22.1Q2.3 20.45 0.5 20.55Q1.3 19.6 2.05 19.65Q3.4 19.7 4.5 21.1L4.55 21.35L4.1 22.1L4.8 22.1L7 22.55L8.2 23.25L8.75 23.7L9.35 23.45Q12.75 21.9 16.15 23.7" />
<path style="fill:none;stroke-width:0.7;stroke-linecap:round;stroke-linejoin:round;stroke-miterlimit:3;stroke:#000000;stroke-opacity:0.301961" d="M23.5 23.15Q26.3 21.6 29.1 21.55L29.25 21.1Q29.6 19.9 30.75 19.3Q31.35 18.9 32.25 18.7L32.95 19.75Q32.25 19.7 29.25 21.1L29.65 22.6L27.1 23Q24.65 23.6 23.5 24.15" />
<path style="fill:none;stroke-width:0.7;stroke-linecap:round;stroke-linejoin:round;stroke-miterlimit:3;stroke:#000000;stroke-opacity:0.301961" d="M15.65 1.6L15.65 0.95" />
<path style="fill:none;stroke-width:0.7;stroke-linecap:round;stroke-linejoin:round;stroke-miterlimit:3;stroke:#000000;stroke-opacity:0.301961" d="M8.2 0.4L8.25 1.6" />
<path style="fill:none;stroke-width:0.7;stroke-linecap:round;stroke-linejoin:round;stroke-miterlimit:3;stroke:#000000;stroke-opacity:0.301961" d="M8.7 24.85L8.75 23.7" />
</g>
</svg>
