<?xml version="1.0" encoding="utf-8"?>
<svg version="1.1" id="Layer_1"
xmlns="http://www.w3.org/2000/svg"
xmlns:xlink="http://www.w3.org/1999/xlink"
width="7px" height="4px"
xml:space="preserve">
<g id="PathID_4406" transform="matrix(1, 0, 0, 1, 0.15, 0.15)">
<path style="fill:#5D5C5B;fill-opacity:1" d="M0.45 1.35L0.95 1.35Q1.6 1.35 2.65 0.7Q3.7 0 4.7 0Q6.1 0 6.1 1.5Q6.1 2.75 5.1 3.2L3.2 3.5Q1.85 3.5 1 2.95Q-0.1 2.35 0 1.15L0.45 1.35" />
<path style="fill:none;stroke-width:0.7;stroke-linecap:round;stroke-linejoin:round;stroke-miterlimit:3;stroke:#000000;stroke-opacity:0.4" d="M0.45 1.35L0.95 1.35Q1.6 1.35 2.65 0.7Q3.7 0 4.7 0Q6.1 0 6.1 1.5Q6.1 2.75 5.1 3.2L3.2 3.5Q1.85 3.5 1 2.95Q-0.1 2.35 0 1.15L0.45 1.35z" />
</g>
</svg>
