<?xml version="1.0" encoding="utf-8"?>
<svg version="1.1" id="Layer_1"
xmlns="http://www.w3.org/2000/svg"
xmlns:xlink="http://www.w3.org/1999/xlink"
width="29px" height="15px"
xml:space="preserve">
<g id="PathID_3623" transform="matrix(1, 0, 0, 1, 0.4, 0.4)">
<path style="fill:#808080;fill-opacity:1" d="M9.45 10.3L7.5 9.3Q5.65 8.1 5.45 6.75Q5.2 5 6.05 2.45Q8.75 0.4 12.25 0L12.6 0Q22.05 -0.05 25.8 6.45L26.7 8.45Q18.25 11.15 9.45 10.3" />
<path style="fill:#4F4F4F;fill-opacity:1" d="M26.7 8.45L27.45 10.9Q24.65 13.75 14.05 13.85Q3.4 13.9 0 11L1.35 8.2L2.3 6.45Q3.9 4 6.05 2.45Q5.2 5 5.45 6.75Q5.65 8.1 7.5 9.3L9.45 10.3Q18.25 11.15 26.7 8.45" />
<path style="fill:none;stroke-width:0.8;stroke-linecap:butt;stroke-linejoin:miter;stroke-miterlimit:3;stroke:#000000;stroke-opacity:0.301961" d="M6.05 2.45Q8.75 0.4 12.25 0L12.6 0Q22.05 -0.05 25.8 6.45L26.7 8.45L27.45 10.9" />
<path style="fill:none;stroke-width:0.8;stroke-linecap:butt;stroke-linejoin:miter;stroke-miterlimit:3;stroke:#000000;stroke-opacity:0.301961" d="M0 11L1.35 8.2L2.3 6.45Q3.9 4 6.05 2.45" />
</g>
</svg>
