<?xml version="1.0" encoding="utf-8"?>
<svg version="1.1" id="Layer_1"
xmlns="http://www.w3.org/2000/svg"
xmlns:xlink="http://www.w3.org/1999/xlink"
width="32px" height="37px"
xml:space="preserve">
<g id="PathID_3677" transform="matrix(1, 0, 0, 1, 0.4, 0.4)">
<radialGradient
id="RadialGradID_1675" gradientUnits="userSpaceOnUse" gradientTransform="matrix(0.0192261, 0, 0, 0.0192261, 11.85, 23.5)" spreadMethod ="pad" cx="0" cy="0" r="819.2" fx="0" fy="0" >
<stop  offset="0"  style="stop-color:#999999;stop-opacity:1" />
<stop  offset="1"  style="stop-color:#808080;stop-opacity:1" />
</radialGradient>
<path style="fill:url(#RadialGradID_1675) " d="M11.5 6.55Q12.9 9.45 20.05 8.1L20.05 6.7L20.2 6.75L22.25 7.7Q23.8 8.5 26.3 11L26.35 11.2L26.35 11.05Q27.75 12.45 29.1 15.75Q30.45 19 30.25 22.2Q30.05 25.4 27.8 28.9L25.65 31.5Q22.55 34.6 17.35 35.65L10.65 35.3Q7.6 34.4 4.7 31.75Q2.25 29.35 1.15 26.6Q-0.15 23.25 0.05 20.9Q0.55 15 3.25 11.65L4.45 10.3Q7.3 7.45 11.05 6.45L11.55 6.35L11.5 6.55M27 15.2Q25.8 13.4 21.15 9.75Q25 16.25 24.5 20.15Q23.95 24 20.85 26.8Q17.75 29.6 14.1 29.95Q10.45 30.25 8.05 29.4Q5.65 28.55 3.1 26.25L6.5 30.35L7.9 31.55Q11.05 34 15.8 34.15Q20.55 34.25 24.35 30.85Q28.1 27.4 28.15 22.2Q28.2 17 27 15.2M5.2 11.1Q4.35 12.3 4.35 13.5Q4.35 14.8 5.25 15.45L7.35 15.65Q8.55 15.3 9.4 14.1Q10.2 12.95 10.25 11.65Q10.2 10.35 9.3 9.75Q8.4 9.1 7.25 9.5Q6 9.95 5.2 11.1M2.4 17.3Q2.05 17.85 2.05 18.35Q2.05 18.9 2.4 19.2L3.35 19.3L4.2 18.6L4.6 17.55L4.2 16.75L3.3 16.6L2.4 17.3" />
<radialGradient
id="RadialGradID_1676" gradientUnits="userSpaceOnUse" gradientTransform="matrix(0.0231171, 0, 0, 0.0231171, 9.7, 8.1)" spreadMethod ="pad" cx="0" cy="0" r="819.2" fx="0" fy="0" >
<stop  offset="0"  style="stop-color:#404040;stop-opacity:1" />
<stop  offset="1"  style="stop-color:#262626;stop-opacity:1" />
</radialGradient>
<path style="fill:url(#RadialGradID_1676) " d="M26.35 11.2L26.3 11L26.35 11.05L26.35 11.2" />
<path style="fill:#464646;fill-opacity:1" d="M12.4 1.35Q13.15 -0.3 16.95 0.1Q20.75 0.45 20.05 1.95L20.05 2.05L18.45 2.65L15.45 2.85Q14.2 2.7 13.25 2.1L12.4 1.35M28.15 22.2Q28.1 27.4 24.35 30.85Q20.55 34.25 15.8 34.15Q11.05 34 7.9 31.55L6.5 30.35L3.1 26.25Q5.65 28.55 8.05 29.4Q10.45 30.25 14.1 29.95Q17.75 29.6 20.85 26.8Q23.95 24 24.5 20.15Q25 16.25 21.15 9.75Q25.8 13.4 27 15.2Q28.2 17 28.15 22.2" />
<path style="fill:#808080;fill-opacity:1" d="M13.25 2.1Q14.2 2.7 15.45 2.85L18.45 2.65L20.05 2.05L20.05 6L20.05 6.7L20.05 8.1Q12.9 9.45 11.5 6.55L11.55 6.35L11.7 5.5L12.4 1.35L13.25 2.1" />
<path style="fill:#AFAFAF;fill-opacity:1" d="M7.25 9.5Q8.4 9.1 9.3 9.75Q10.2 10.35 10.25 11.65Q10.2 12.95 9.4 14.1Q8.55 15.3 7.35 15.65L5.25 15.45Q4.35 14.8 4.35 13.5Q4.35 12.3 5.2 11.1Q6 9.95 7.25 9.5M3.3 16.6L4.2 16.75L4.6 17.55L4.2 18.6L3.35 19.3L2.4 19.2Q2.05 18.9 2.05 18.35Q2.05 17.85 2.4 17.3L3.3 16.6" />
<path style="fill:none;stroke-width:0.8;stroke-linecap:round;stroke-linejoin:round;stroke-miterlimit:3;stroke:#000000;stroke-opacity:0.4" d="M26.35 11.05L26.3 11L26.35 11.2L26.35 11.05Q27.75 12.45 29.1 15.75Q30.45 19 30.25 22.2Q30.05 25.4 27.8 28.9L25.65 31.5Q22.55 34.6 17.35 35.65L10.65 35.3Q7.6 34.4 4.7 31.75Q2.25 29.35 1.15 26.6Q-0.15 23.25 0.05 20.9Q0.55 15 3.25 11.65L4.45 10.3Q7.3 7.45 11.05 6.45L11.55 6.35L11.7 5.5L12.4 1.35Q13.15 -0.3 16.95 0.1Q20.75 0.45 20.05 1.95L20.05 2.05L20.05 6L20.05 6.7L20.2 6.75L22.25 7.7Q23.8 8.5 26.3 11" />
<path style="fill:none;stroke-width:0.8;stroke-linecap:round;stroke-linejoin:round;stroke-miterlimit:3;stroke:#000000;stroke-opacity:0.4" d="M20.05 2.05L18.45 2.65L15.45 2.85Q14.2 2.7 13.25 2.1L12.4 1.35" />
<path style="fill:none;stroke-width:0.8;stroke-linecap:round;stroke-linejoin:round;stroke-miterlimit:3;stroke:#000000;stroke-opacity:0.4" d="M20.05 6.7L20.05 8.1Q12.9 9.45 11.5 6.55L11.55 6.35" />
</g>
</svg>
