<?xml version="1.0" encoding="utf-8"?>
<svg version="1.1" id="Layer_1"
xmlns="http://www.w3.org/2000/svg"
xmlns:xlink="http://www.w3.org/1999/xlink"
width="42px" height="26px"
xml:space="preserve">
<g id="PathID_2647" transform="matrix(1, 0, 0, 1, 0.4, 0.25)">
<path style="fill:#484848;fill-opacity:1" d="M24.9 25.1L24.05 25.1L28.2 16.45L29.05 16.45L24.9 25.1M13.05 25.1L12.2 25.1L16.35 16.45L17.2 16.45L13.05 25.1" />
<path style="fill:#62605F;fill-opacity:1" d="M13.05 25.1L17.2 16.45L28.2 16.45L24.05 25.1L13.05 25.1M24.9 25.1L29.05 16.45L41.1 16.45L35.75 25.1L24.9 25.1M0.9 25.1L5.85 16.45L16.35 16.45L12.2 25.1L0.9 25.1" />
<path style="fill:none;stroke-width:0.7;stroke-linecap:round;stroke-linejoin:miter;stroke-miterlimit:5;stroke:#000000;stroke-opacity:0.501961" d="M29.05 16.45L28.2 16.45" />
<path style="fill:none;stroke-width:0.7;stroke-linecap:round;stroke-linejoin:miter;stroke-miterlimit:5;stroke:#000000;stroke-opacity:0.501961" d="M24.05 25.1L24.9 25.1" />
<path style="fill:none;stroke-width:0.7;stroke-linecap:round;stroke-linejoin:miter;stroke-miterlimit:5;stroke:#000000;stroke-opacity:0.501961" d="M29.05 16.45L41.1 16.45L35.75 25.1L24.9 25.1" />
<path style="fill:none;stroke-width:0.7;stroke-linecap:round;stroke-linejoin:miter;stroke-miterlimit:5;stroke:#000000;stroke-opacity:0.501961" d="M17.2 16.45L16.35 16.45" />
<path style="fill:none;stroke-width:0.7;stroke-linecap:round;stroke-linejoin:miter;stroke-miterlimit:5;stroke:#000000;stroke-opacity:0.501961" d="M12.2 25.1L13.05 25.1" />
<path style="fill:none;stroke-width:0.7;stroke-linecap:round;stroke-linejoin:miter;stroke-miterlimit:5;stroke:#000000;stroke-opacity:0.501961" d="M17.2 16.45L28.2 16.45" />
<path style="fill:none;stroke-width:0.7;stroke-linecap:round;stroke-linejoin:miter;stroke-miterlimit:5;stroke:#000000;stroke-opacity:0.501961" d="M16.35 16.45L5.85 16.45L0.9 25.1L12.2 25.1" />
<path style="fill:none;stroke-width:0.7;stroke-linecap:round;stroke-linejoin:miter;stroke-miterlimit:5;stroke:#000000;stroke-opacity:0.501961" d="M13.05 25.1L24.05 25.1" />
</g>
<g id="PathID_2648" transform="matrix(1, 0, 0, 1, 0.4, 0.25)">
<path style="fill:#808080;fill-opacity:1" d="M17.05 8.65L12.9 0L23.9 0L28.05 8.65L17.05 8.65M28.9 8.65L24.75 0L35.35 0.1L40.2 8.65L28.9 8.65M16.2 8.65L5.35 8.65L0 0L12.05 0L16.2 8.65" />
<path style="fill:#62605F;fill-opacity:1" d="M24.75 0L28.9 8.65L28.05 8.65L23.9 0L24.75 0M16.2 8.65L12.05 0L12.9 0L17.05 8.65L16.2 8.65" />
<path style="fill:none;stroke-width:0.7;stroke-linecap:round;stroke-linejoin:miter;stroke-miterlimit:5;stroke:#000000;stroke-opacity:0.501961" d="M23.9 0L12.9 0" />
<path style="fill:none;stroke-width:0.7;stroke-linecap:round;stroke-linejoin:miter;stroke-miterlimit:5;stroke:#000000;stroke-opacity:0.501961" d="M17.05 8.65L28.05 8.65L28.9 8.65" />
<path style="fill:none;stroke-width:0.7;stroke-linecap:round;stroke-linejoin:miter;stroke-miterlimit:5;stroke:#000000;stroke-opacity:0.501961" d="M24.75 0L23.9 0" />
<path style="fill:none;stroke-width:0.7;stroke-linecap:round;stroke-linejoin:miter;stroke-miterlimit:5;stroke:#000000;stroke-opacity:0.501961" d="M24.75 0L35.35 0.1L40.2 8.65L28.9 8.65" />
<path style="fill:none;stroke-width:0.7;stroke-linecap:round;stroke-linejoin:miter;stroke-miterlimit:5;stroke:#000000;stroke-opacity:0.501961" d="M12.05 0L12.9 0" />
<path style="fill:none;stroke-width:0.7;stroke-linecap:round;stroke-linejoin:miter;stroke-miterlimit:5;stroke:#000000;stroke-opacity:0.501961" d="M16.2 8.65L5.35 8.65L0 0L12.05 0" />
<path style="fill:none;stroke-width:0.7;stroke-linecap:round;stroke-linejoin:miter;stroke-miterlimit:5;stroke:#000000;stroke-opacity:0.501961" d="M16.2 8.65L17.05 8.65" />
</g>
</svg>
