<?xml version="1.0" encoding="utf-8"?>
<svg version="1.1" id="Layer_1"
xmlns="http://www.w3.org/2000/svg"
xmlns:xlink="http://www.w3.org/1999/xlink"
width="22px" height="8px"
xml:space="preserve">
<g id="PathID_4109" transform="matrix(1, 0, 0, 1, 10.6, 3.65)">
<path style="fill:#665B5B;fill-opacity:1" d="M8.4 -3.15Q9.8 -1.15 10.3 0.55Q10.65 1.75 10 2.7L9.05 3.5L9.5 1.9L8.65 3.55L7.8 3.25L8.3 1.7L7.4 2.85Q6.9 2.2 6.85 1.45L6.95 0.35L7.05 -0.7Q6.95 -1.6 5.9 -3.5L8.4 -3.15M8.3 1.7L7.8 3.25M9.5 1.9L9.05 3.5M-8.35 1.7L-7.85 3.25L-8.7 3.55L-9.1 3.5L-9.55 1.9L-9.1 3.5L-10.05 2.7Q-10.7 1.75 -10.35 0.55Q-9.85 -1.15 -8.45 -3.15L-5.95 -3.5Q-7 -1.6 -7.1 -0.7L-7 0.35L-6.9 1.45Q-6.95 2.2 -7.45 2.85L-7.85 3.25L-8.35 1.7" />
<path style="fill:none;stroke-width:0.7;stroke-linecap:round;stroke-linejoin:round;stroke-miterlimit:3;stroke:#000000;stroke-opacity:0.301961" d="M8.4 -3.15Q9.8 -1.15 10.3 0.55Q10.65 1.75 10 2.7L9.05 3.5L8.65 3.55L7.8 3.25L7.4 2.85Q6.9 2.2 6.85 1.45L6.95 0.35L7.05 -0.7Q6.95 -1.6 5.9 -3.5L8.4 -3.15z" />
<path style="fill:none;stroke-width:0.7;stroke-linecap:round;stroke-linejoin:round;stroke-miterlimit:3;stroke:#000000;stroke-opacity:0.14902" d="M7.8 3.25L8.3 1.7" />
<path style="fill:none;stroke-width:0.7;stroke-linecap:round;stroke-linejoin:round;stroke-miterlimit:3;stroke:#000000;stroke-opacity:0.14902" d="M9.05 3.5L9.5 1.9" />
<path style="fill:none;stroke-width:0.7;stroke-linecap:round;stroke-linejoin:round;stroke-miterlimit:3;stroke:#000000;stroke-opacity:0.301961" d="M-7.85 3.25L-7.45 2.85Q-6.95 2.2 -6.9 1.45L-7 0.35L-7.1 -0.7Q-7 -1.6 -5.95 -3.5L-8.45 -3.15Q-9.85 -1.15 -10.35 0.55Q-10.7 1.75 -10.05 2.7L-9.1 3.5" />
<path style="fill:none;stroke-width:0.7;stroke-linecap:round;stroke-linejoin:round;stroke-miterlimit:3;stroke:#000000;stroke-opacity:0.14902" d="M-9.1 3.5L-9.55 1.9" />
<path style="fill:none;stroke-width:0.7;stroke-linecap:round;stroke-linejoin:round;stroke-miterlimit:3;stroke:#000000;stroke-opacity:0.14902" d="M-7.85 3.25L-8.35 1.7" />
<path style="fill:none;stroke-width:0.7;stroke-linecap:round;stroke-linejoin:round;stroke-miterlimit:3;stroke:#000000;stroke-opacity:0.301961" d="M-9.1 3.5L-8.7 3.55L-7.85 3.25" />
</g>
</svg>
