<?xml version="1.0" encoding="utf-8"?>
<svg version="1.1" id="Layer_1"
xmlns="http://www.w3.org/2000/svg"
xmlns:xlink="http://www.w3.org/1999/xlink"
width="40px" height="47px"
xml:space="preserve">
<g id="PathID_3209" transform="matrix(1, 0, 0, 1, 0, 0)">
<path style="fill:#808080;fill-opacity:1" d="M39.65 20.95L34.25 26.3L26.95 26.3L25.6 27.65L25.6 35L13.8 35L13.8 24.35L19.1 18.3L26.85 18.3L28.1 16.95L28.1 9.7L26.6 8.35L12.95 8.35L11.8 9.5L11.8 17.75L0 17.75L0 5.45L4.95 0L33.9 0L39.65 6.3L39.65 20.95M13.7 38.45L25.7 38.45L25.7 46.65L13.7 46.65L13.7 38.45" />
</g>
</svg>
