<?xml version="1.0" encoding="utf-8"?>
<svg version="1.1" id="Layer_1"
xmlns="http://www.w3.org/2000/svg"
xmlns:xlink="http://www.w3.org/1999/xlink"
width="101px" height="11px"
xml:space="preserve">
<g id="PathID_2536" transform="matrix(1, 0, 0, 1, 0.25, 0.2)">
<path style="fill:#808080;fill-opacity:1" d="M5.8 7.1L5.55 7.05Q1.05 5.7 0.35 2.5Q1.05 0.4 3.25 0.05L31.55 0.05Q29.45 2.3 31.1 4.1Q32.7 5.9 31.75 7.2L5.8 7.1" />
<path style="fill:#676360;fill-opacity:1" d="M31.75 7.2L31.7 7.4Q31.3 8.6 29.35 9.8L3.1 9.8Q-0.2 7.95 0 4.5Q0.05 3.35 0.35 2.5Q1.05 5.7 5.55 7.05L5.8 7.1L31.75 7.2" />
<path style="fill:none;stroke-width:0.7;stroke-linecap:butt;stroke-linejoin:miter;stroke-miterlimit:3;stroke:#000000;stroke-opacity:0.298039" d="M29.35 9.8L96.9 9.8Q100.45 8.05 100.25 4.65L100.1 3.4Q99.55 0.65 97.05 0.05L31.55 0.05" />
<path style="fill:none;stroke-width:0.7;stroke-linecap:butt;stroke-linejoin:miter;stroke-miterlimit:3;stroke:#000000;stroke-opacity:0.298039" d="M29.35 9.8L3.1 9.8Q-0.2 7.95 0 4.5Q0.05 3.35 0.35 2.5Q1.05 0.4 3.25 0.05L31.55 0.05" />
</g>
</svg>
