<?xml version="1.0" encoding="utf-8"?>
<svg version="1.1" id="Layer_1"
xmlns="http://www.w3.org/2000/svg"
xmlns:xlink="http://www.w3.org/1999/xlink"
width="30px" height="19px"
xml:space="preserve">
<g id="PathID_3091" transform="matrix(1, 0, 0, 1, 0, 0)">
<path style="fill:#808080;fill-opacity:1" d="M29.55 2.6Q29.55 3.7 28.45 5.1Q27.35 6.55 27.35 7.6Q27.35 8.65 27.8 9L28.4 9.15L28.95 9.05L29.35 8.7Q29.35 7.9 28.95 7.9L28.85 7.95L28.55 8.1L28.5 8.05L28.45 7.95Q28.45 7.55 28.95 7.55Q29.7 7.55 29.65 8.55Q29.6 9.25 29.1 9.45Q29.6 9.65 29.65 10.35Q29.7 11.35 28.95 11.35Q28.45 11.35 28.45 10.95L28.5 10.85L28.55 10.8L28.85 10.95L28.95 11Q29.35 11 29.35 10.2Q29.35 10 28.95 9.85L28.4 9.75L27.8 9.9Q27.35 10.25 27.35 11.3Q27.35 12.35 28.45 13.8Q29.55 15.2 29.55 16.3Q29.55 17.75 28.8 18.45Q28.3 18.9 27.75 18.9L26.9 18.75L26.05 17.8L26.05 17.25L26.25 17.15L26.35 17.15Q26.3 18 26.9 18.4L27.7 18.65L28.55 18.2Q29.25 17.55 29.25 16.3Q29.25 15.3 28.15 13.8Q27.05 12.35 27.05 11.3Q27.05 9.8 27.95 9.45Q27.05 9.1 27.05 7.6Q27.05 6.55 28.15 5.1Q29.25 3.6 29.25 2.6Q29.25 1.35 28.55 0.7Q28.1 0.25 27.7 0.25L26.9 0.5Q26.3 0.9 26.35 1.75L26.25 1.75L26.05 1.65L26.05 1.1L26.9 0.15L27.75 0Q28.3 0 28.8 0.45Q29.55 1.15 29.55 2.6M2.75 0.5Q2.35 0.25 1.95 0.25Q1.55 0.25 1.1 0.7Q0.4 1.35 0.4 2.6Q0.4 3.6 1.5 5.1Q2.6 6.55 2.6 7.6Q2.6 9.1 1.75 9.45Q2.6 9.8 2.6 11.3Q2.6 12.35 1.5 13.8Q0.4 15.3 0.4 16.3Q0.4 17.55 1.1 18.2Q1.55 18.65 1.95 18.65L2.75 18.4Q3.35 18 3.3 17.15L3.4 17.15L3.6 17.25L3.6 17.8L2.75 18.75L1.9 18.9Q1.35 18.9 0.85 18.45Q0.1 17.75 0.1 16.3Q0.1 15.2 1.2 13.8Q2.3 12.35 2.3 11.3Q2.3 10.25 1.85 9.9L1.25 9.75L0.7 9.85L0.3 10.2Q0.3 11 0.7 11L0.8 10.95L1.1 10.8L1.15 10.85L1.2 10.95Q1.2 11.35 0.7 11.35Q-0.1 11.35 0 10.35Q0.05 9.65 0.6 9.45Q0.05 9.25 0 8.55Q-0.1 7.55 0.7 7.55Q1.2 7.55 1.2 7.95L1.15 8.05L1.1 8.1L0.8 7.95L0.7 7.9Q0.3 7.9 0.3 8.7L0.7 9.05L1.25 9.15L1.85 9Q2.3 8.65 2.3 7.6Q2.3 6.55 1.2 5.1Q0.1 3.7 0.1 2.6Q0.1 1.15 0.85 0.45Q1.35 0 1.9 0L2.75 0.15L3.6 1.1L3.6 1.65L3.4 1.75L3.3 1.75Q3.35 0.9 2.75 0.5" />
</g>
</svg>
