<?xml version="1.0" encoding="utf-8"?>
<svg version="1.1" id="Layer_1"
xmlns="http://www.w3.org/2000/svg"
xmlns:xlink="http://www.w3.org/1999/xlink"
width="31px" height="32px"
xml:space="preserve">
<g id="PathID_3873" transform="matrix(1, 0, 0, 1, 0.15, 0.15)">
<path style="fill:#808080;fill-opacity:1" d="M25.2 26.65L23.55 27.95L22.7 28.5Q21.75 25.9 18.9 23.45Q20.85 27.2 21.7 31L19.4 29.9L14.8 30.4L12.05 30.1L14.95 6.75L14.95 1.15Q23.2 0.95 29.35 9.45Q31.15 13.65 30.15 18.35Q29.4 21.8 27.65 24L22.05 21.3Q25.35 23.5 27.85 26.35L25.2 26.65M12.05 30.1L10.2 29.8L10.95 23.7Q8.55 25.75 7.3 28.2L4.75 26.2L7.45 21.55L4.75 26.2L2.4 26.1Q3.85 23.3 7.45 21.55Q5.4 22.05 2.5 23.5Q-0.95 18.2 0.4 12.05Q1 9.2 2.45 6.9Q9.25 0.35 14.4 1.05L14.95 6.75L14.8 30.4M21.7 31Q20.8 31.05 19.4 29.9L18.9 23.45M27.85 26.35Q27.1 27.95 25.2 26.7L25.2 26.65L22.05 21.3M10.95 23.7L10.2 29.8Q9 30.8 7.8 30.7Q8.6 26.95 10.95 23.7" />
<path style="fill:#5F5D5C;fill-opacity:1" d="M27.85 26.35Q25.35 23.5 22.05 21.3L27.65 24Q28.35 25.5 27.85 26.35M14.4 1.05Q9.25 0.35 2.45 6.9Q4.1 4.3 6.95 2.45Q10.75 0 14.95 0L18.35 0.35Q24.55 1.65 28 6.9L29.35 9.45Q23.2 0.95 14.95 1.15L14.95 6.75L14.4 1.05M18.9 23.45Q21.75 25.9 22.7 28.5Q22.95 29.15 22.5 30L21.7 31Q20.85 27.2 18.9 23.45M14.95 0L14.95 1.15L14.95 0M2.4 26.1Q2.1 25.6 2.5 23.5Q5.4 22.05 7.45 21.55Q3.85 23.3 2.4 26.1M7.8 30.7Q7.35 30.1 7.3 28.2Q8.55 25.75 10.95 23.7Q8.6 26.95 7.8 30.7" />
<path style="fill:none;stroke-width:0.7;stroke-linecap:round;stroke-linejoin:round;stroke-miterlimit:3;stroke:#000000;stroke-opacity:0.301961" d="M22.05 21.3L27.65 24Q29.4 21.8 30.15 18.35Q31.15 13.65 29.35 9.45" />
<path style="fill:none;stroke-width:0.7;stroke-linecap:round;stroke-linejoin:round;stroke-miterlimit:3;stroke:#000000;stroke-opacity:0.301961" d="M14.95 1.15L14.95 6.75L14.8 30.4L19.4 29.9L18.9 23.45Q21.75 25.9 22.7 28.5L23.55 27.95L25.2 26.65L22.05 21.3" />
<path style="fill:none;stroke-width:0.7;stroke-linecap:round;stroke-linejoin:round;stroke-miterlimit:3;stroke:#000000;stroke-opacity:0.301961" d="M27.85 26.35Q28.35 25.5 27.65 24" />
<path style="fill:none;stroke-width:0.7;stroke-linecap:round;stroke-linejoin:round;stroke-miterlimit:3;stroke:#000000;stroke-opacity:0.301961" d="M2.45 6.9Q4.1 4.3 6.95 2.45Q10.75 0 14.95 0L18.35 0.35Q24.55 1.65 28 6.9L29.35 9.45" />
<path style="fill:none;stroke-width:0.7;stroke-linecap:round;stroke-linejoin:round;stroke-miterlimit:3;stroke:#000000;stroke-opacity:0.301961" d="M14.95 1.15L14.95 0" />
<path style="fill:none;stroke-width:0.7;stroke-linecap:round;stroke-linejoin:round;stroke-miterlimit:3;stroke:#000000;stroke-opacity:0.301961" d="M2.5 23.5Q-0.95 18.2 0.4 12.05Q1 9.2 2.45 6.9" />
<path style="fill:none;stroke-width:0.7;stroke-linecap:round;stroke-linejoin:round;stroke-miterlimit:3;stroke:#000000;stroke-opacity:0.301961" d="M7.45 21.55Q5.4 22.05 2.5 23.5Q2.1 25.6 2.4 26.1" />
<path style="fill:none;stroke-width:0.7;stroke-linecap:round;stroke-linejoin:round;stroke-miterlimit:3;stroke:#000000;stroke-opacity:0.301961" d="M7.45 21.55L4.75 26.2L7.3 28.2Q8.55 25.75 10.95 23.7L10.2 29.8L12.05 30.1L14.8 30.4" />
<path style="fill:none;stroke-width:0.7;stroke-linecap:round;stroke-linejoin:round;stroke-miterlimit:3;stroke:#000000;stroke-opacity:0.301961" d="M10.2 29.8Q9 30.8 7.8 30.7Q7.35 30.1 7.3 28.2" />
<path style="fill:none;stroke-width:0.7;stroke-linecap:round;stroke-linejoin:round;stroke-miterlimit:3;stroke:#000000;stroke-opacity:0.301961" d="M4.75 26.2L2.4 26.1" />
<path style="fill:none;stroke-width:0.7;stroke-linecap:round;stroke-linejoin:round;stroke-miterlimit:3;stroke:#000000;stroke-opacity:0.301961" d="M27.85 26.35Q27.1 27.95 25.2 26.7L25.2 26.65" />
<path style="fill:none;stroke-width:0.7;stroke-linecap:round;stroke-linejoin:round;stroke-miterlimit:3;stroke:#000000;stroke-opacity:0.301961" d="M22.7 28.5Q22.95 29.15 22.5 30L21.7 31Q20.8 31.05 19.4 29.9" />
</g>
<g id="PathID_3874" transform="matrix(1, 0, 0, 1, 0.15, 0.15)">
<path style="fill:#4D4A48;fill-opacity:1" d="M2.8 19.35Q1.95 17.4 2 13.45Q6.7 8.55 14.95 6.1Q23.15 8.7 28.35 12.6L28.45 13.95Q23.1 10.1 15.1 7.8Q8.55 9.3 3.35 14L3.95 18.95L2.8 19.35" />
<path style="fill:none;stroke-width:0.7;stroke-linecap:round;stroke-linejoin:round;stroke-miterlimit:3;stroke:#000000;stroke-opacity:0.301961" d="M2.8 19.35Q1.95 17.4 2 13.45Q6.7 8.55 14.95 6.1Q23.15 8.7 28.35 12.6L28.45 13.95Q23.1 10.1 15.1 7.8Q8.55 9.3 3.35 14L3.95 18.95L2.8 19.35z" />
</g>
</svg>
