<?xml version="1.0" encoding="utf-8"?>
<svg version="1.1" id="Layer_1"
xmlns="http://www.w3.org/2000/svg"
xmlns:xlink="http://www.w3.org/1999/xlink"
width="75px" height="11px"
xml:space="preserve">
<g id="PathID_2551" transform="matrix(1, 0, 0, 1, 0.25, 0.25)">
<path style="fill:#AFAFAF;fill-opacity:1" d="M0 7.85L59.85 7.85Q68.3 7.8 69.85 5.1Q71.4 2.35 71.8 0L72.95 0Q73.95 0.15 73.95 1.45Q72.9 8.7 65.05 10L0 10L0 7.85" />
<linearGradient
id="LinearGradID_1373" gradientUnits="userSpaceOnUse" gradientTransform="matrix(0.0438232, 0, 0, 0.00479126, 35.9, 3.9)" spreadMethod ="pad" x1="-819.2" y1="0" x2="819.2" y2="0" >
<stop  offset="0" style="stop-color:#808080;stop-opacity:1" />
<stop  offset="1" style="stop-color:#AFAFAF;stop-opacity:1" />
</linearGradient>
<path style="fill:url(#LinearGradID_1373) " d="M69.85 5.1Q68.3 7.8 59.85 7.85L0 7.85L0 0L33.5 0Q32.95 2.4 26.9 7.45Q31.25 7.8 34.4 4.75Q37.55 1.75 38 0L39.9 0Q38.35 4.05 33.4 7.05Q38.85 8.05 42.5 0L71.8 0Q71.4 2.35 69.85 5.1" />
<path style="fill:#DADADA;fill-opacity:1" d="M42.5 0Q38.85 8.05 33.4 7.05Q38.35 4.05 39.9 0L42.5 0M38 0Q37.55 1.75 34.4 4.75Q31.25 7.8 26.9 7.45Q32.95 2.4 33.5 0L38 0" />
<path style="fill:none;stroke-width:0.7;stroke-linecap:butt;stroke-linejoin:bevel;stroke-miterlimit:3;stroke:#000000;stroke-opacity:0.501961" d="M71.8 0L42.5 0" />
<path style="fill:none;stroke-width:0.7;stroke-linecap:butt;stroke-linejoin:bevel;stroke-miterlimit:3;stroke:#000000;stroke-opacity:0.501961" d="M39.9 0L38 0" />
<path style="fill:none;stroke-width:0.7;stroke-linecap:butt;stroke-linejoin:bevel;stroke-miterlimit:3;stroke:#000000;stroke-opacity:0.501961" d="M33.5 0L0 0L0 7.85" />
<path style="fill:none;stroke-width:0.7;stroke-linecap:round;stroke-linejoin:bevel;stroke-miterlimit:3;stroke:#000000;stroke-opacity:0.298039" d="M0 7.85L59.85 7.85" />
<path style="fill:none;stroke-width:0.7;stroke-linecap:butt;stroke-linejoin:bevel;stroke-miterlimit:3;stroke:#000000;stroke-opacity:0.298039" d="M59.85 7.85Q68.3 7.8 69.85 5.1Q71.4 2.35 71.8 0" />
<path style="fill:none;stroke-width:0.7;stroke-linecap:butt;stroke-linejoin:bevel;stroke-miterlimit:3;stroke:#000000;stroke-opacity:0.501961" d="M71.8 0L72.95 0" />
<path style="fill:none;stroke-width:0.7;stroke-linecap:butt;stroke-linejoin:bevel;stroke-miterlimit:3;stroke:#000000;stroke-opacity:0.501961" d="M72.95 0Q73.95 0.15 73.95 1.45Q72.9 8.7 65.05 10L0 10L0 7.85" />
<path style="fill:none;stroke-width:0.7;stroke-linecap:butt;stroke-linejoin:bevel;stroke-miterlimit:3;stroke:#000000;stroke-opacity:0.501961" d="M38 0L33.5 0" />
<path style="fill:none;stroke-width:0.7;stroke-linecap:butt;stroke-linejoin:bevel;stroke-miterlimit:3;stroke:#000000;stroke-opacity:0.501961" d="M42.5 0L39.9 0" />
</g>
</svg>
