<?xml version="1.0" encoding="utf-8"?>
<svg version="1.1" id="Layer_1"
xmlns="http://www.w3.org/2000/svg"
xmlns:xlink="http://www.w3.org/1999/xlink"
width="33px" height="20px"
xml:space="preserve">
<g id="PathID_4353" transform="matrix(1, 0, 0, 1, 0.15, 0)">
<path style="fill:#808080;fill-opacity:1" d="M23.7 7.7Q23.7 11.6 20.65 13.75Q18.35 15.4 16 15.4Q13.7 15.4 11.55 13.8Q8.65 11.65 8.3 7.7Q7.95 3.55 11.15 1.45Q13.4 0 16 0Q19.2 0 21.45 2.25Q23.7 4.5 23.7 7.7M0.45 13.15Q1.15 10.1 3.3 6.45Q3.75 10.1 3.2 13.15Q2.5 16.65 0.5 19.3Q-0.45 16.6 0.45 13.15" />
<path style="fill:#5D5A59;fill-opacity:1" d="M30.6 9.4Q31.95 12 32.15 14.5Q32.4 17.5 31.9 19.1L30.2 16.25L29.35 14.45Q29.2 14 29 11.95Q28.75 9.5 28.9 8.45L29.15 6.95L30.6 9.4" />
<path style="fill:none;stroke-width:0.7;stroke-linecap:round;stroke-linejoin:round;stroke-miterlimit:3;stroke:#000000;stroke-opacity:0.301961" d="M31.9 19.1Q32.4 17.5 32.15 14.5Q31.95 12 30.6 9.4L29.15 6.95" />
<path style="fill:none;stroke-width:0.7;stroke-linecap:round;stroke-linejoin:round;stroke-miterlimit:3;stroke:#000000;stroke-opacity:0.301961" d="M3.3 6.45Q1.15 10.1 0.45 13.15Q-0.45 16.6 0.5 19.3" />
</g>
</svg>
