<?xml version="1.0" encoding="utf-8"?>
<svg version="1.1" id="Layer_1"
xmlns="http://www.w3.org/2000/svg"
xmlns:xlink="http://www.w3.org/1999/xlink"
width="33px" height="18px"
xml:space="preserve">
<g id="PathID_3546" transform="matrix(1, 0, 0, 1, 0.15, 0.15)">
<path style="fill:#54504E;fill-opacity:1" d="M21.7 11.8L21.2 13.95Q20.6 16.15 19.9 16.45Q18.7 17.05 18.35 16.25Q21.05 14.65 19.55 10L17.65 11.85L17.5 11.35L19 8.65L17.5 11.35L16.15 13.1L13.9 15.55Q11.95 17.5 10.75 17.35Q9.85 17.3 9.6 16.6Q12.9 15.5 15.45 12.15L17.3 9.05L17.8 7.7Q18.35 7.6 19.55 6.75L20.6 5.95L23.7 7.3L27.2 0L29.9 1.75Q32.15 3.8 32.05 5.7L31.85 6.15Q31.35 4.3 30.85 4L30.9 5.05Q29.95 6.5 28.2 6.1L28.8 7.25L28.35 7.2Q30.8 9.45 29.5 10.65Q30.1 8.85 27.95 7.85L26.65 9.1L27.75 10.6L25.6 9.05Q26.95 14.1 24.2 14.1L21.7 11.8L21.7 10.85M23.3 13Q24.9 12.9 24.5 10.05L23.8 9.25Q22.4 8.95 21.7 10.3L21.7 10.85L21.7 11.8L23.3 13M6.1 13.8L1.35 14.05Q3.8 13.65 10 9.55L16 5.45L15.05 6.5Q10.25 11.9 6.1 13.8M14.5 3.8L14.65 4.7L13.05 4.95L14.5 3.8" />
<path style="fill:#808080;fill-opacity:1" d="M28.8 7.25L28.2 6.1Q29.95 6.5 30.9 5.05L30.85 4Q31.35 4.3 31.85 6.15Q31 7.45 28.8 7.25M9.5 16.1L9.8 15.15Q12.45 12 15.05 6.5L16 5.45L10 9.55L17.55 4.55L18.65 3.8Q17.45 7.85 17.8 7.7L17.3 9.05L15.45 12.15Q12.9 15.5 9.6 16.6L9.5 16.1M21.7 10.85L21.7 10.3Q22.4 8.95 23.8 9.25L24.5 10.05Q24.9 12.9 23.3 13L21.7 10.85M28.75 11.1Q28.25 11 27.75 10.6L26.65 9.1L27.95 7.85Q30.1 8.85 29.5 10.65L28.75 11.1M10 9.55Q3.8 13.65 1.35 14.05Q-0.45 13.4 0.15 10.95Q5.45 10.8 10.65 5.05L12.35 3L13.05 4.95L14.65 4.7Q14.85 5.25 16 5.45M17.65 11.85L19.55 10Q21.05 14.65 18.35 16.25L17.65 11.85" />
<path style="fill:none;stroke-width:0.7;stroke-linecap:round;stroke-linejoin:round;stroke-miterlimit:3;stroke:#000000;stroke-opacity:0.301961" d="M31.85 6.15L32.05 5.7Q32.15 3.8 29.9 1.75L27.2 0" />
<path style="fill:none;stroke-width:0.7;stroke-linecap:round;stroke-linejoin:round;stroke-miterlimit:3;stroke:#000000;stroke-opacity:0.301961" d="M9.6 16.6Q9.85 17.3 10.75 17.35Q11.95 17.5 13.9 15.55L16.15 13.1L17.5 11.35L19 8.65" />
<path style="fill:none;stroke-width:0.7;stroke-linecap:round;stroke-linejoin:round;stroke-miterlimit:3;stroke:#000000;stroke-opacity:0.301961" d="M21.7 10.85L21.7 10.3" />
<path style="fill:none;stroke-width:0.7;stroke-linecap:round;stroke-linejoin:round;stroke-miterlimit:3;stroke:#000000;stroke-opacity:0.301961" d="M21.7 10.85L21.7 11.8L24.2 14.1Q26.95 14.1 25.6 9.05L27.75 10.6" />
<path style="fill:none;stroke-width:0.7;stroke-linecap:round;stroke-linejoin:round;stroke-miterlimit:3;stroke:#000000;stroke-opacity:0.301961" d="M29.5 10.65Q30.8 9.45 28.35 7.2L28.8 7.25Q31 7.45 31.85 6.15" />
<path style="fill:none;stroke-width:0.7;stroke-linecap:round;stroke-linejoin:round;stroke-miterlimit:3;stroke:#000000;stroke-opacity:0.301961" d="M27.75 10.6Q28.25 11 28.75 11.1L29.5 10.65" />
<path style="fill:none;stroke-width:0.7;stroke-linecap:round;stroke-linejoin:round;stroke-miterlimit:3;stroke:#000000;stroke-opacity:0.301961" d="M18.35 16.25Q18.7 17.05 19.9 16.45Q20.6 16.15 21.2 13.95L21.7 11.8" />
<path style="fill:none;stroke-width:0.7;stroke-linecap:round;stroke-linejoin:round;stroke-miterlimit:3;stroke:#000000;stroke-opacity:0.301961" d="M16 5.45L15.05 6.5Q12.45 12 9.8 15.15L9.5 16.1L9.6 16.6" />
<path style="fill:none;stroke-width:0.7;stroke-linecap:round;stroke-linejoin:round;stroke-miterlimit:3;stroke:#000000;stroke-opacity:0.301961" d="M12.35 3L10.65 5.05Q5.45 10.8 0.15 10.95Q-0.45 13.4 1.35 14.05" />
<path style="fill:none;stroke-width:0.7;stroke-linecap:round;stroke-linejoin:round;stroke-miterlimit:3;stroke:#000000;stroke-opacity:0.301961" d="M17.5 11.35L17.65 11.85" />
<path style="fill:none;stroke-width:0.7;stroke-linecap:round;stroke-linejoin:round;stroke-miterlimit:3;stroke:#000000;stroke-opacity:0.301961" d="M18.35 16.25L17.65 11.85" />
<path style="fill:none;stroke-width:0.7;stroke-linecap:round;stroke-linejoin:round;stroke-miterlimit:3;stroke:#000000;stroke-opacity:0.301961" d="M1.35 14.05L6.1 13.8Q10.25 11.9 15.05 6.5" />
</g>
</svg>
