<?xml version="1.0" encoding="utf-8"?>
<svg version="1.1" id="Layer_1"
xmlns="http://www.w3.org/2000/svg"
xmlns:xlink="http://www.w3.org/1999/xlink"
width="55px" height="55px"
xml:space="preserve">
<g id="PathID_2997" transform="matrix(1, 0, 0, 1, 0, 0)">
<path style="fill:#808080;fill-opacity:1" d="M48.7 2.85Q48.7 1.7 49.55 0.85Q50.4 0 51.55 0Q52.75 0 53.6 0.85Q54.45 1.7 54.45 2.85Q54.45 4 53.6 4.85Q52.75 5.7 51.55 5.7Q50.4 5.7 49.55 4.85Q48.7 4 48.7 2.85M0.9 4.85Q0 4 0 2.85Q0 1.7 0.9 0.85Q1.75 0 2.85 0Q4.05 0 4.9 0.85Q5.75 1.7 5.75 2.85Q5.75 4 4.9 4.85Q4.05 5.7 2.85 5.7Q1.75 5.7 0.9 4.85M0.9 49.7Q1.75 48.85 2.85 48.85Q4.05 48.85 4.9 49.7Q5.75 50.55 5.75 51.65Q5.75 52.8 4.9 53.65Q4.05 54.5 2.85 54.5Q1.75 54.5 0.9 53.65Q0 52.8 0 51.65Q0 50.55 0.9 49.7M49.5 49.7Q50.35 48.85 51.45 48.85Q52.7 48.85 53.55 49.7Q54.4 50.55 54.4 51.65Q54.4 52.8 53.55 53.65Q52.7 54.5 51.45 54.5Q50.35 54.5 49.5 53.65Q48.65 52.8 48.65 51.65Q48.65 50.55 49.5 49.7" />
</g>
</svg>
