<?xml version="1.0" encoding="utf-8"?>
<svg version="1.1" id="Layer_1"
xmlns="http://www.w3.org/2000/svg"
xmlns:xlink="http://www.w3.org/1999/xlink"
width="20px" height="16px"
xml:space="preserve">
<g id="PathID_2950" transform="matrix(1, 0, 0, 1, 0, 0)">
<path style="fill:#808080;fill-opacity:1" d="M18.35 4.9L0.5 8L0.5 14.95L2.9 15.25Q6 15.3 10.3 14.1Q9.45 11.35 10.5 10.1Q11.55 8.85 12.7 8.85Q13.95 8.85 14.9 9.85Q15.8 10.9 15.45 13.15Q18.4 12.75 18.6 10.75L18.65 8.7L18.5 6.1L18.35 4.9M18.85 4.4L19.05 6.1L19.25 8.7L19.25 11.1Q19.05 13.1 15.05 13.85Q15.1 10.85 14.4 10.25Q13.75 9.6 13 9.45Q12.25 9.3 11.15 10.25Q10 11.15 10.9 14.45Q7.15 15.75 3.2 15.75L0.05 15.5L0 7.8L5.65 2.25L7.25 2.4Q8.6 2.05 7.65 0.3Q11.6 -0.75 15.6 1.75Q17.6 3 18.85 4.4M11.75 2.3Q11.4 2.3 11.15 2.55L10.9 3.15L11.15 3.8L11.75 4.05L12.35 3.8L12.65 3.15L12.35 2.55Q12.1 2.3 11.75 2.3M12.6 2.25Q12.95 2.6 12.95 3.15L12.6 4.05L11.75 4.4Q11.2 4.4 10.85 4.05Q10.5 3.65 10.5 3.15Q10.5 2.6 10.85 2.25Q11.2 1.9 11.75 1.9Q12.25 1.9 12.6 2.25M11.55 0.55L9.35 0.45L8.5 0.6Q9.05 2.5 7.75 2.85Q6.5 3.1 5.7 2.85L1.25 7.3L18.15 4.5Q15.15 1.1 11.55 0.55M4.7 11.55Q4.45 11.3 4.1 11.3Q3.75 11.3 3.45 11.55Q3.2 11.8 3.2 12.15L3.45 12.8L4.1 13.05L4.7 12.8L5 12.15L4.7 11.55M4.05 10.9Q4.6 10.9 4.95 11.25Q5.3 11.6 5.3 12.15L4.95 13.05Q4.6 13.4 4.05 13.4L3.2 13.05Q2.85 12.65 2.85 12.15Q2.85 11.6 3.2 11.25Q3.55 10.9 4.05 10.9" />
</g>
</svg>
