<?xml version="1.0" encoding="utf-8"?>
<svg version="1.1" id="Layer_1"
xmlns="http://www.w3.org/2000/svg"
xmlns:xlink="http://www.w3.org/1999/xlink"
width="41px" height="27px"
xml:space="preserve">
<g id="PathID_3597" transform="matrix(1, 0, 0, 1, 0.15, 0.15)">
<path style="fill:#4F4846;fill-opacity:1" d="M12.7 6.9Q10.95 5.2 10.85 1.9Q13.35 0.6 16.15 0.2Q12.8 6.45 20.05 7.05Q27.9 7.8 28.25 1.35L29.15 1.75Q29.1 3.75 28.7 5.25Q28.15 7.2 26.95 8.1L29.55 11.2Q31.6 11.7 33.35 10Q34.95 8.4 34.25 5.75Q36.8 8.85 37.95 13.8L33.9 15L31.5 15.6L25.35 16.55L19.55 16.85L14.6 16.65L12.85 16.45L9.9 15.95L6.85 15.3L2.2 13.75Q2.8 11.7 3.6 10.05L4.55 8.15Q4.5 9.2 5.15 10.05Q5.9 10.9 7.55 11.6Q9.75 12.25 11.35 11.55L12.45 10.05Q13.25 9.05 14.35 8.15M22.05 11.65Q30.85 12.15 26.7 8.15Q21.3 9.95 14.35 8.15L12.7 6.9Q13.2 11.2 22.05 11.65" />
<path style="fill:#808080;fill-opacity:1" d="M33.35 10Q31.6 11.7 29.55 11.2L26.95 8.1Q28.15 7.2 28.7 5.25Q29.55 4.55 31 4.75Q31.6 4.95 31.85 5.2L32.45 6Q32.8 6.5 33.35 6.4L34.25 5.75Q34.95 8.4 33.35 10M38.3 21.2Q36.9 21.6 35.5 20.15Q34.15 22.25 31.35 23.4Q28.85 24.2 27.4 22.8Q27.95 18.95 30.75 17.75Q32.95 16.85 34.95 17.3Q35.95 17.85 36.4 18.8Q36.35 17.6 37.4 16.95Q39.1 16.7 38.45 14.35Q39.9 16.2 40.05 19.1Q39.7 20.8 38.3 21.2M1.35 15.6L2.6 15.65Q3.45 15.85 3.7 16.15L3.9 17.1Q3.8 17.6 4.75 17.45L5.8 17.15Q5.65 19.65 7.95 18.95Q10.9 17.75 12.8 20.2L12.85 20.25L14 20.55L17.65 20.3Q19.25 19.2 21.2 19.3Q26.05 19.75 26.55 21.65Q23.55 24.9 19.65 24.65Q15.7 24.4 14 21.55Q12.35 25.15 9.15 24.7Q6.45 24.4 5.35 21.65L4.85 20.2L3.6 21.65L2.2 22.1Q1.5 22.1 1.05 21.65Q0.25 20.95 0.05 18.95Q0.15 17.4 0.5 16.25Q0.95 15.75 1.35 15.6M12.7 6.9L14.35 8.15Q13.25 9.05 12.45 10.05L11.35 11.55Q9.75 12.25 7.55 11.6Q5.9 10.9 5.15 10.05Q4.5 9.2 4.55 8.15Q5.5 6.5 6.65 5.2Q9.55 5.3 12.7 6.9M22.35 1.65Q23.45 2 24.4 2.85Q25.3 4.7 26.05 4.6Q27.3 4.8 28.25 1.35Q27.9 7.8 20.05 7.05Q12.8 6.45 16.15 0.2L20.2 0Q19.3 0.8 22.35 1.65" />
<path style="fill:#A3A3A3;fill-opacity:1" d="M29.15 1.75Q30.6 2.4 31.85 3.4Q33.2 4.4 34.25 5.75L33.35 6.4Q32.8 6.5 32.45 6L31.85 5.2Q31.6 4.95 31 4.75Q29.55 4.55 28.7 5.25Q29.1 3.75 29.15 1.75M37.4 16.95Q36.35 17.6 36.4 18.8Q35.95 17.85 34.95 17.3Q32.95 16.85 30.75 17.75Q27.95 18.95 27.4 22.8L26.55 21.65Q26.05 19.75 21.2 19.3Q19.25 19.2 17.65 20.3L14 20.55L12.85 20.25L12.8 20.2Q10.9 17.75 7.95 18.95Q5.65 19.65 5.8 17.15L4.75 17.45Q3.8 17.6 3.9 17.1L3.7 16.15Q3.45 15.85 2.6 15.65L1.35 15.6Q0.95 15.75 0.5 16.25Q1.05 14.5 2.2 13.75L6.85 15.3L9.9 15.95L12.85 16.45L14.6 16.65L19.55 16.85L25.35 16.55L31.5 15.6L33.9 15L37.95 13.8L38 13.85L38.45 14.35Q39.1 16.7 37.4 16.95M12.7 6.9Q9.55 5.3 6.65 5.2Q7.6 4.05 8.75 3.2Q9.7 2.45 10.85 1.9Q10.95 5.2 12.7 6.9M20.2 0Q24.8 0 28.25 1.35Q27.3 4.8 26.05 4.6Q25.3 4.7 24.4 2.85Q23.45 2 22.35 1.65Q19.3 0.8 20.2 0M14.35 8.15Q21.3 9.95 26.7 8.15Q30.85 12.15 22.05 11.65Q13.2 11.2 14.35 8.15" />
<path style="fill:#3C3533;fill-opacity:1" d="M26.55 21.65L27.4 22.8Q28.85 24.2 31.35 23.4Q34.15 22.25 35.5 20.15Q36.9 21.6 38.3 21.2Q39.7 20.8 40.05 19.1Q40.5 24.7 36.45 26.4L27.6 26.35L12.9 26.25L2.65 26.25Q0.8 24.6 0.15 21.65L0 20.8L0.05 18.95Q0.25 20.95 1.05 21.65Q1.5 22.1 2.2 22.1L3.6 21.65L4.85 20.2L5.35 21.65Q6.45 24.4 9.15 24.7Q12.35 25.15 14 21.55Q15.7 24.4 19.65 24.65Q23.55 24.9 26.55 21.65" />
<path style="fill:none;stroke-width:0.7;stroke-linecap:round;stroke-linejoin:miter;stroke-miterlimit:5;stroke:#000000;stroke-opacity:0.501961" d="M34.25 5.75Q33.2 4.4 31.85 3.4Q30.6 2.4 29.15 1.75" />
<path style="fill:none;stroke-width:0.7;stroke-linecap:round;stroke-linejoin:miter;stroke-miterlimit:5;stroke:#000000;stroke-opacity:0.501961" d="M34.25 5.75Q36.8 8.85 37.95 13.8L38 13.85L38.45 14.35Q39.9 16.2 40.05 19.1Q40.5 24.7 36.45 26.4L27.6 26.35L12.9 26.25L2.65 26.25Q0.8 24.6 0.15 21.65L0 20.8L0.05 18.95Q0.15 17.4 0.5 16.25Q1.05 14.5 2.2 13.75Q2.8 11.7 3.6 10.05L4.55 8.15Q5.5 6.5 6.65 5.2Q7.6 4.05 8.75 3.2Q9.7 2.45 10.85 1.9Q13.35 0.6 16.15 0.2L20.2 0Q24.8 0 28.25 1.35L29.15 1.75" />
</g>
<g id="PathID_3598" transform="matrix(1, 0, 0, 1, 0.15, 0.15)">
<path style="fill:none;stroke-width:0.7;stroke-linecap:round;stroke-linejoin:miter;stroke-miterlimit:5;stroke:#272424;stroke-opacity:1" d="M10.85 1.9Q10.95 5.2 12.7 6.9L14.35 8.15Q21.3 9.95 26.7 8.15L26.95 8.1Q28.15 7.2 28.7 5.25Q29.1 3.75 29.15 1.75" />
<path style="fill:none;stroke-width:0.7;stroke-linecap:round;stroke-linejoin:miter;stroke-miterlimit:5;stroke:#272424;stroke-opacity:1" d="M26.95 8.1L29.55 11.2Q30.95 13.35 31.5 15.6L33.9 15L37.95 13.8" />
<path style="fill:none;stroke-width:0.7;stroke-linecap:round;stroke-linejoin:miter;stroke-miterlimit:5;stroke:#272424;stroke-opacity:1" d="M26 26Q26.65 23.55 26.55 21.65Q26.5 19.1 25.35 16.55L19.55 16.85L14.6 16.65Q14.05 18.5 14 20.55L14 21.55Q14 23.35 14.3 26.05" />
<path style="fill:none;stroke-width:0.7;stroke-linecap:round;stroke-linejoin:miter;stroke-miterlimit:5;stroke:#272424;stroke-opacity:1" d="M34.75 26.1Q35.65 22.6 35.5 20.15Q35.45 18.65 34.95 17.3L33.9 15" />
<path style="fill:none;stroke-width:0.7;stroke-linecap:round;stroke-linejoin:miter;stroke-miterlimit:5;stroke:#272424;stroke-opacity:1" d="M31.5 15.6L25.35 16.55" />
<path style="fill:none;stroke-width:0.7;stroke-linecap:round;stroke-linejoin:miter;stroke-miterlimit:5;stroke:#272424;stroke-opacity:1" d="M2.2 13.75L6.85 15.3L9.9 15.95Q10.15 13.6 11.35 11.55Q12.45 9.7 14.35 8.15" />
<path style="fill:none;stroke-width:0.7;stroke-linecap:round;stroke-linejoin:miter;stroke-miterlimit:5;stroke:#272424;stroke-opacity:1" d="M5.2 26Q4.5 22.65 4.85 20.2Q5.1 18.45 5.9 16.95Q6.3 16.1 6.85 15.3" />
<path style="fill:none;stroke-width:0.7;stroke-linecap:round;stroke-linejoin:miter;stroke-miterlimit:5;stroke:#272424;stroke-opacity:1" d="M9.9 15.95L14.6 16.65" />
</g>
</svg>
