<?xml version="1.0" encoding="utf-8"?>
<svg version="1.1" id="Layer_1"
xmlns="http://www.w3.org/2000/svg"
xmlns:xlink="http://www.w3.org/1999/xlink"
width="63px" height="63px"
xml:space="preserve">
<g id="PathID_3212" transform="matrix(1, 0, 0, 1, 0.3, 0.3)">
<path style="fill:#808080;fill-opacity:1" d="M61.6 8.3L61.6 53.25Q61.35 61.25 53.4 61.5L8.2 61.5Q0.25 61.25 0 53.25L0 9.4Q-0.3 -0.3 9.3 0L53.4 0Q61.35 0.25 61.6 8.3" />
<path style="fill:none;stroke-width:0.7;stroke-linecap:round;stroke-linejoin:miter;stroke-miterlimit:5;stroke:#000000;stroke-opacity:0.501961" d="M61.6 8.3L61.6 53.25Q61.35 61.25 53.4 61.5L8.2 61.5Q0.25 61.25 0 53.25L0 9.4Q-0.3 -0.3 9.3 0L53.4 0Q61.35 0.25 61.6 8.3z" />
</g>
</svg>
