<?xml version="1.0" encoding="utf-8"?>
<svg version="1.1" id="Layer_1"
xmlns="http://www.w3.org/2000/svg"
xmlns:xlink="http://www.w3.org/1999/xlink"
width="34px" height="21px"
xml:space="preserve">
<g id="PathID_4113" transform="matrix(1, 0, 0, 1, 16.45, 17.8)">
<linearGradient
id="LinearGradID_1775" gradientUnits="userSpaceOnUse" gradientTransform="matrix(0, 0.00747681, -0.0204773, 0, 0.5, -5.9)" spreadMethod ="pad" x1="-819.2" y1="0" x2="819.2" y2="0" >
<stop  offset="0" style="stop-color:#000000;stop-opacity:0.25098" />
<stop  offset="0.517647" style="stop-color:#000000;stop-opacity:0" />
</linearGradient>
<path style="fill:url(#LinearGradID_1775) " d="M10.3 -2.3Q11 -1.35 10.8 -0.25Q10.55 1.1 8.9 1.85Q7.3 2.6 5.35 1.4Q2.6 -0.3 0 -0.55Q-1.65 -0.75 -5.15 0.85Q-8.2 2.25 -9.6 1.45Q-11 0.65 -11 -0.95Q-11.05 -2.55 -9.7 -3.6Q-9.6 -5 -11.65 -7Q-13.85 -9.2 -16.3 -9.55Q-14.8 -12 -11.45 -14.4Q-6.2 -18.1 -0.5 -17.6Q5.45 -17.1 10.85 -14.35Q14.9 -12.25 17.25 -9.75Q15.25 -8.55 13.2 -6.4Q10.95 -4.1 10.3 -2.3" />
</g>
<g id="PathID_4114" transform="matrix(1, 0, 0, 1, 16.45, 17.8)">
<path style="fill:none;stroke-width:0.7;stroke-linecap:round;stroke-linejoin:round;stroke-miterlimit:3;stroke:#000000;stroke-opacity:0.101961" d="M10.1 -4.6Q10 -4.2 9.5 -4.05L9.05 -3.95" />
<path style="fill:none;stroke-width:0.7;stroke-linecap:round;stroke-linejoin:round;stroke-miterlimit:3;stroke:#000000;stroke-opacity:0.101961" d="M10.5 -9.35L9.95 -8.65L9.55 -8.5" />
<path style="fill:none;stroke-width:0.7;stroke-linecap:round;stroke-linejoin:round;stroke-miterlimit:3;stroke:#000000;stroke-opacity:0.2" d="M-4.1 -2.65Q-3.65 -2.55 -2.3 -1.5Q-1.35 -0.7 -0.2 -0.55L0 -0.55L0.3 -0.55Q1.8 -0.6 2.9 -1.6L4.05 -2.9" />
<path style="fill:none;stroke-width:0.7;stroke-linecap:round;stroke-linejoin:round;stroke-miterlimit:3;stroke:#000000;stroke-opacity:0.301961" d="M0 -0.55Q2.6 -0.3 5.35 1.4Q7.3 2.6 8.9 1.85Q10.55 1.1 10.8 -0.25Q11 -1.35 10.3 -2.3Q10.95 -4.1 13.2 -6.4Q15.25 -8.55 17.25 -9.75Q14.9 -12.25 10.85 -14.35Q5.45 -17.1 -0.5 -17.6Q-6.2 -18.1 -11.45 -14.4Q-14.8 -12 -16.3 -9.55Q-13.85 -9.2 -11.65 -7Q-9.6 -5 -9.7 -3.6Q-11.05 -2.55 -11 -0.95Q-11 0.65 -9.6 1.45Q-8.2 2.25 -5.15 0.85Q-1.9 -0.65 -0.2 -0.55" />
<path style="fill:none;stroke-width:0.7;stroke-linecap:round;stroke-linejoin:round;stroke-miterlimit:3;stroke:#000000;stroke-opacity:0.101961" d="M13.7 -8.2L13.05 -7.55L12.55 -7.4" />
<path style="fill:none;stroke-width:0.7;stroke-linecap:round;stroke-linejoin:round;stroke-miterlimit:3;stroke:#000000;stroke-opacity:0.101961" d="M12.65 -9.35Q12.55 -8.55 11.65 -8.1L10.75 -7.75" />
<path style="fill:none;stroke-width:0.7;stroke-linecap:round;stroke-linejoin:round;stroke-miterlimit:3;stroke:#000000;stroke-opacity:0.101961" d="M5.05 -6.6Q5.65 -11.45 9.05 -13.15" />
<path style="fill:none;stroke-width:0.7;stroke-linecap:round;stroke-linejoin:round;stroke-miterlimit:3;stroke:#000000;stroke-opacity:0.101961" d="M-12.55 -9.6Q-12.5 -9 -11.85 -8.6L-11.25 -8.35" />
<path style="fill:none;stroke-width:0.7;stroke-linecap:round;stroke-linejoin:round;stroke-miterlimit:3;stroke:#000000;stroke-opacity:0.101961" d="M-10.8 -9.1Q-10.65 -8.35 -10.05 -7.9L-9.45 -7.6" />
<path style="fill:none;stroke-width:0.7;stroke-linecap:round;stroke-linejoin:round;stroke-miterlimit:3;stroke:#000000;stroke-opacity:0.101961" d="M-9.3 -9.6L-8.75 -8.3L-8.35 -7.9" />
<path style="fill:none;stroke-width:0.7;stroke-linecap:round;stroke-linejoin:round;stroke-miterlimit:3;stroke:#000000;stroke-opacity:0.101961" d="M-8.6 -5.45Q-8.8 -4.65 -8.3 -4.45" />
<path style="fill:none;stroke-width:0.7;stroke-linecap:round;stroke-linejoin:round;stroke-miterlimit:3;stroke:#000000;stroke-opacity:0.2" d="M-1.95 -7.8Q-2.15 -6.3 -1.75 -5.25Q-1.5 -4.6 -1.1 -5.6L-0.75 -6.7Q-1 -4.45 -0.2 -3.45" />
<path style="fill:none;stroke-width:0.7;stroke-linecap:round;stroke-linejoin:round;stroke-miterlimit:3;stroke:#000000;stroke-opacity:0.101961" d="M-9.15 -12.85Q-7.25 -11.9 -6 -10.1Q-4.7 -8.3 -4.65 -6.45" />
</g>
</svg>
