<?xml version="1.0" encoding="utf-8"?>
<svg version="1.1" id="Layer_1"
xmlns="http://www.w3.org/2000/svg"
xmlns:xlink="http://www.w3.org/1999/xlink"
width="15px" height="14px"
xml:space="preserve">
<g id="PathID_3605" transform="matrix(1, 0, 0, 1, 0.35, 0.25)">
<path style="fill:#808080;fill-opacity:1" d="M11.6 3L12 4.2Q13.35 4.8 14.4 6.75Q13.35 8.5 11.5 10.3L12 9.1L11.1 10.85Q9.85 12.5 7.05 13.2Q6.85 11.1 8.5 9.3L9.9 7.8Q6.25 11.2 1.95 9.6L3.65 8.35L6.1 7.95L2.9 8.25L2.6 8.2Q1.25 7.85 0 6.65Q1.35 5.7 2.65 5.35Q4.6 4.85 6.3 5.8Q6.25 1.9 8.5 3.9L9.9 5.5Q6.95 2.1 7.15 0Q9.95 0.8 11.2 2.45L11.6 3M12 4.2L11.6 3M12 9.1L11.5 10.3M9.9 5.5L8.5 3.9M9.9 7.8L8.5 9.3M6.3 5.8Q4.6 4.85 2.65 5.35M6.1 7.95L3.65 8.35" />
<path style="fill:none;stroke-width:0.7;stroke-linecap:round;stroke-linejoin:miter;stroke-miterlimit:3;stroke:#000000;stroke-opacity:0.4" d="M11.6 3Q13.35 4.8 14.4 6.75Q13.35 8.5 11.5 10.3" />
<path style="fill:none;stroke-width:0.7;stroke-linecap:round;stroke-linejoin:miter;stroke-miterlimit:3;stroke:#000000;stroke-opacity:0.4" d="M11.5 10.3L11.1 10.85Q9.85 12.5 7.05 13.2Q6.85 11.1 8.5 9.3" />
<path style="fill:none;stroke-width:0.7;stroke-linecap:round;stroke-linejoin:miter;stroke-miterlimit:3;stroke:#000000;stroke-opacity:0.4" d="M8.5 9.3Q6.25 11.2 1.95 9.6L3.65 8.35" />
<path style="fill:none;stroke-width:0.7;stroke-linecap:round;stroke-linejoin:miter;stroke-miterlimit:3;stroke:#000000;stroke-opacity:0.4" d="M3.65 8.35L2.9 8.25L2.6 8.2Q1.25 7.85 0 6.65Q1.35 5.7 2.65 5.35" />
<path style="fill:none;stroke-width:0.7;stroke-linecap:round;stroke-linejoin:miter;stroke-miterlimit:3;stroke:#000000;stroke-opacity:0.4" d="M2.65 5.35Q6.25 1.9 8.5 3.9" />
<path style="fill:none;stroke-width:0.7;stroke-linecap:round;stroke-linejoin:miter;stroke-miterlimit:3;stroke:#000000;stroke-opacity:0.4" d="M8.5 3.9Q6.95 2.1 7.15 0Q9.95 0.8 11.2 2.45L11.6 3" />
<path style="fill:none;stroke-width:0.7;stroke-linecap:butt;stroke-linejoin:miter;stroke-miterlimit:3;stroke:#000000;stroke-opacity:0.4" d="M11.6 3L12 4.2" />
<path style="fill:none;stroke-width:0.7;stroke-linecap:round;stroke-linejoin:miter;stroke-miterlimit:3;stroke:#000000;stroke-opacity:0.4" d="M12 9.1L11.5 10.3" />
<path style="fill:none;stroke-width:0.7;stroke-linecap:butt;stroke-linejoin:miter;stroke-miterlimit:3;stroke:#000000;stroke-opacity:0.4" d="M8.5 3.9L9.9 5.5" />
<path style="fill:none;stroke-width:0.7;stroke-linecap:butt;stroke-linejoin:miter;stroke-miterlimit:3;stroke:#000000;stroke-opacity:0.4" d="M8.5 9.3L9.9 7.8" />
<path style="fill:none;stroke-width:0.7;stroke-linecap:round;stroke-linejoin:miter;stroke-miterlimit:3;stroke:#000000;stroke-opacity:0.4" d="M6.3 5.8Q4.6 4.85 2.65 5.35" />
<path style="fill:none;stroke-width:0.7;stroke-linecap:butt;stroke-linejoin:miter;stroke-miterlimit:3;stroke:#000000;stroke-opacity:0.4" d="M3.65 8.35L6.1 7.95" />
</g>
</svg>
