<?xml version="1.0" encoding="utf-8"?>
<svg version="1.1" id="Layer_1"
xmlns="http://www.w3.org/2000/svg"
xmlns:xlink="http://www.w3.org/1999/xlink"
width="31px" height="31px"
xml:space="preserve">
<g id="PathID_4354" transform="matrix(1, 0, 0, 1, 0.2, 0.2)">
<path style="fill:#808080;fill-opacity:0.4" d="M2.85 24.2L2.8 24.1L1.6 22.15Q0.55 20.15 0.2 17.9L0 15.3Q0 9.9 3.25 5.85L4.5 4.5Q7.45 1.55 11.2 0.55L12.7 0.2L15.3 0L16.7 0.05L17.95 0.2Q20.45 0.6 22.65 1.85L23.5 2.35L25.7 4.1L26.1 4.5L27.25 5.7L28.05 6.85L29.15 8.7L29.5 9.5Q30.6 12.15 30.6 15.3Q30.6 19.85 28.3 23.45L27.15 25.05L26.1 26.1L25.6 26.6Q22.15 29.8 17.65 30.45L15.9 30.6L15.05 30.6L10.8 30Q9.25 29.5 7.75 28.65L7.05 28.2L6.8 28.05L4.5 26.1L4.4 26L2.8 24.25L2.85 24.2M9.4 3L9.4 2.95L9.3 3L9.4 3" />
<path style="fill:#CF6A27;fill-opacity:1" d="M9.3 3L9.4 2.95L9.4 3L9.3 3" />
<path style="fill:#F5C91B;fill-opacity:1" d="M2.8 24.2L2.8 24.1L2.85 24.2L2.8 24.2" />
<path style="fill:#BA9614;fill-opacity:1" d="M2.85 24.2L2.8 24.25L2.8 24.2L2.85 24.2" />
<path style="fill:none;stroke-width:0.7;stroke-linecap:round;stroke-linejoin:round;stroke-miterlimit:3;stroke:#000000;stroke-opacity:0.4" d="M2.8 24.25L4.4 26L4.5 26.1L6.8 28.05L7.05 28.2L7.75 28.65Q9.25 29.5 10.8 30L15.05 30.6L15.9 30.6L17.65 30.45Q22.15 29.8 25.6 26.6L26.1 26.1L27.15 25.05L28.3 23.45Q30.6 19.85 30.6 15.3Q30.6 12.15 29.5 9.5L29.15 8.7L28.05 6.85L27.25 5.7L26.1 4.5L25.7 4.1L23.5 2.35L22.65 1.85Q20.45 0.6 17.95 0.2L16.7 0.05L15.3 0L12.7 0.2L11.2 0.55Q7.45 1.55 4.5 4.5L3.25 5.85Q0 9.9 0 15.3L0.2 17.9Q0.55 20.15 1.6 22.15L2.8 24.1" />
<path style="fill:none;stroke-width:0.7;stroke-linecap:round;stroke-linejoin:round;stroke-miterlimit:3;stroke:#000000;stroke-opacity:0.4" d="M2.8 24.25L2.8 24.2L2.8 24.1" />
</g>
</svg>
