<?xml version="1.0" encoding="utf-8"?>
<svg version="1.1" id="Layer_1"
xmlns="http://www.w3.org/2000/svg"
xmlns:xlink="http://www.w3.org/1999/xlink"
width="13px" height="28px"
xml:space="preserve">
<g id="PathID_3817" transform="matrix(1, 0, 0, 1, 0.2, 0.15)">
<path style="fill:#808080;fill-opacity:1" d="M10.5 13.9Q11.25 19 8.8 22.5Q3.7 27 0.3 25.2L1.15 22.85Q2.25 23.8 3.65 23.55Q5.15 23.25 6.55 21.55Q9.45 18 7.8 12.4Q6.95 9.6 5.55 7.5L4.25 10L0.5 1.1L8.4 4.45L7.15 5.2Q9.85 9.7 10.5 13.9" />
<path style="fill:#54504E;fill-opacity:1" d="M0.5 1.1L0 0L9.5 3.85L8.4 4.45L0.5 1.1M7.15 5.2Q8.9 6.95 10.2 9.8Q13.9 18.2 9.45 23.15Q4.05 29.15 0 25.95L0.3 25.2Q3.7 27 8.8 22.5Q11.25 19 10.5 13.9Q9.85 9.7 7.15 5.2" />
<path style="fill:none;stroke-width:0.7;stroke-linecap:butt;stroke-linejoin:miter;stroke-miterlimit:3;stroke:#000000;stroke-opacity:0.4" d="M0.5 1.1L0 0L9.5 3.85L8.4 4.45L7.15 5.2Q8.9 6.95 10.2 9.8Q13.9 18.2 9.45 23.15Q4.05 29.15 0 25.95L0.3 25.2L1.15 22.85Q2.25 23.8 3.65 23.55Q5.15 23.25 6.55 21.55Q9.45 18 7.8 12.4Q6.95 9.6 5.55 7.5L4.25 10L0.5 1.1z" />
</g>
</svg>
