<?xml version="1.0" encoding="utf-8"?>
<svg version="1.1" id="Layer_1"
xmlns="http://www.w3.org/2000/svg"
xmlns:xlink="http://www.w3.org/1999/xlink"
width="43px" height="12px"
xml:space="preserve">
<g id="PathID_2849" transform="matrix(1, 0, 0, 1, 0, 0)">
<radialGradient
id="RadialGradID_1428" gradientUnits="userSpaceOnUse" gradientTransform="matrix(0.00376892, 0.000839233, -0.000930786, 0.00341797, 40.1, 8.85)" spreadMethod ="pad" cx="0" cy="0" r="819.2" fx="0" fy="0" >
<stop  offset="0"  style="stop-color:#B4B4B4;stop-opacity:1" />
<stop  offset="1"  style="stop-color:#858585;stop-opacity:1" />
</radialGradient>
<path style="fill:url(#RadialGradID_1428) " d="M42.55 9.65L39.9 9.7Q38.65 8.95 39.05 7.45L40.05 7.1Q41.25 6.95 42.3 7.8Q42.55 8.1 42.6 8.9L42.55 9.65" />
<path style="fill:#505050;fill-opacity:1" d="M39.9 9.7L42.55 9.65Q42 11.1 40.6 11.25Q39.35 11.75 38.15 9.55Q38 8.5 39.05 7.45Q38.65 8.95 39.9 9.7M22.35 0.45Q21.9 2.25 23.4 3.15Q25.05 4.15 26.6 3.1Q25.9 4.8 24.2 5Q22.7 5.6 21.3 3Q21.1 1.7 22.35 0.45M13.1 9L15.65 8.95Q15.1 10.3 13.75 10.45Q12.55 10.95 11.45 8.85Q11.3 7.85 12.25 6.85Q11.9 8.3 13.1 9M0.95 0.75Q0.55 2.4 1.9 3.2L4.8 3.15Q4.2 4.7 2.65 4.9Q1.3 5.45 0 3.05Q-0.15 1.9 0.95 0.75" />
<radialGradient
id="RadialGradID_1429" gradientUnits="userSpaceOnUse" gradientTransform="matrix(0.0045166, 0.00100708, -0.00112915, 0.00410461, 23.6, 2.1)" spreadMethod ="pad" cx="0" cy="0" r="819.2" fx="0" fy="0" >
<stop  offset="0"  style="stop-color:#B4B4B4;stop-opacity:1" />
<stop  offset="1"  style="stop-color:#858585;stop-opacity:1" />
</radialGradient>
<path style="fill:url(#RadialGradID_1429) " d="M23.4 3.15Q21.9 2.25 22.35 0.45Q22.85 0.1 23.55 0Q25.05 -0.15 26.25 0.9Q26.6 1.2 26.65 2.15L26.6 3.1Q25.05 4.15 23.4 3.15" />
<radialGradient
id="RadialGradID_1430" gradientUnits="userSpaceOnUse" gradientTransform="matrix(0.00360107, 0.000808716, -0.000900269, 0.00326538, 13.3, 8.15)" spreadMethod ="pad" cx="0" cy="0" r="819.2" fx="0" fy="0" >
<stop  offset="0"  style="stop-color:#B4B4B4;stop-opacity:1" />
<stop  offset="1"  style="stop-color:#858585;stop-opacity:1" />
</radialGradient>
<path style="fill:url(#RadialGradID_1430) " d="M15.65 8.95L13.1 9Q11.9 8.3 12.25 6.85Q12.65 6.55 13.25 6.5Q14.4 6.35 15.4 7.2Q15.65 7.45 15.7 8.2L15.65 8.95" />
<radialGradient
id="RadialGradID_1431" gradientUnits="userSpaceOnUse" gradientTransform="matrix(0.00410461, 0.000915527, -0.00102234, 0.00372314, 2.1, 2.25)" spreadMethod ="pad" cx="0" cy="0" r="819.2" fx="0" fy="0" >
<stop  offset="0"  style="stop-color:#B4B4B4;stop-opacity:1" />
<stop  offset="1"  style="stop-color:#858585;stop-opacity:1" />
</radialGradient>
<path style="fill:url(#RadialGradID_1431) " d="M1.9 3.2Q0.55 2.4 0.95 0.75Q1.4 0.45 2.05 0.35Q3.4 0.2 4.5 1.15L4.85 2.3L4.8 3.15L1.9 3.2" />
<path style="fill:none;stroke-width:0.7;stroke-linecap:butt;stroke-linejoin:miter;stroke-miterlimit:1;stroke:#000000;stroke-opacity:0.278431" d="M39.05 7.45Q38 8.5 38.15 9.55Q39.35 11.75 40.6 11.25Q42 11.1 42.55 9.65" />
<path style="fill:none;stroke-width:0.7;stroke-linecap:butt;stroke-linejoin:miter;stroke-miterlimit:1;stroke:#000000;stroke-opacity:0.278431" d="M39.05 7.45L40.05 7.1Q41.25 6.95 42.3 7.8Q42.55 8.1 42.6 8.9L42.55 9.65" />
<path style="fill:none;stroke-width:0.7;stroke-linecap:butt;stroke-linejoin:miter;stroke-miterlimit:1;stroke:#000000;stroke-opacity:0.278431" d="M26.6 3.1L26.65 2.15Q26.6 1.2 26.25 0.9Q25.05 -0.15 23.55 0Q22.85 0.1 22.35 0.45" />
<path style="fill:none;stroke-width:0.7;stroke-linecap:butt;stroke-linejoin:miter;stroke-miterlimit:1;stroke:#000000;stroke-opacity:0.278431" d="M26.6 3.1Q25.9 4.8 24.2 5Q22.7 5.6 21.3 3Q21.1 1.7 22.35 0.45" />
<path style="fill:none;stroke-width:0.7;stroke-linecap:butt;stroke-linejoin:miter;stroke-miterlimit:1;stroke:#000000;stroke-opacity:0.278431" d="M12.25 6.85Q11.3 7.85 11.45 8.85Q12.55 10.95 13.75 10.45Q15.1 10.3 15.65 8.95" />
<path style="fill:none;stroke-width:0.7;stroke-linecap:butt;stroke-linejoin:miter;stroke-miterlimit:1;stroke:#000000;stroke-opacity:0.278431" d="M12.25 6.85Q12.65 6.55 13.25 6.5Q14.4 6.35 15.4 7.2Q15.65 7.45 15.7 8.2L15.65 8.95" />
<path style="fill:none;stroke-width:0.7;stroke-linecap:butt;stroke-linejoin:miter;stroke-miterlimit:1;stroke:#000000;stroke-opacity:0.278431" d="M4.8 3.15L4.85 2.3L4.5 1.15Q3.4 0.2 2.05 0.35Q1.4 0.45 0.95 0.75" />
<path style="fill:none;stroke-width:0.7;stroke-linecap:butt;stroke-linejoin:miter;stroke-miterlimit:1;stroke:#000000;stroke-opacity:0.278431" d="M4.8 3.15Q4.2 4.7 2.65 4.9Q1.3 5.45 0 3.05Q-0.15 1.9 0.95 0.75" />
</g>
<g id="PathID_2850" transform="matrix(1, 0, 0, 1, 0, 0)">
<path style="fill:#D7D7D7;fill-opacity:1" d="M40.65 9.1L40.75 9.2L40.8 9.35L40.7 9.45L40.55 9.45L40.4 9.35L40.4 9.25L40.5 9.1L40.65 9.1M41.55 8.85L41.65 8.7L41.8 8.7L41.9 8.8L41.95 8.9L41.85 9L41.7 9.05L41.6 8.9L41.55 8.85M41.25 9.85L41.35 9.7L41.5 9.7L41.65 9.8L41.7 9.95L41.55 10L41.4 10.05L41.25 9.95L41.25 9.85M39.2 8.35L39.35 8.35L39.5 8.35L39.55 8.55L39.4 8.6L39.25 8.7L39.1 8.55L39.1 8.45L39.2 8.35M40.35 8.45L40.2 8.5L40.1 8.35L40.05 8.3L40.15 8.1L40.35 8.1L40.4 8.2L40.45 8.35L40.35 8.45M40 9.95L40.1 9.8L40.3 9.8L40.4 9.9L40.4 10L40.35 10.15L40.15 10.15L40.05 10.05L40 9.95M39.45 9.35L39.5 9.5L39.35 9.6L39.2 9.65L39.05 9.55L39.05 9.45L39.15 9.3L39.3 9.3L39.45 9.35M25.85 2.2L25.75 2.3L25.55 2.35L25.4 2.2L25.35 2.1L25.45 1.95L25.65 1.95L25.8 2.05L25.85 2.2M25.35 3.55L25.2 3.6L25.05 3.4L25.05 3.3L25.15 3.15L25.3 3.15L25.45 3.25L25.55 3.4L25.35 3.55M23.65 1.2L23.95 1.2L24 1.3L24.05 1.55L23.95 1.65L23.75 1.7L23.6 1.55L23.55 1.45L23.65 1.2M24 2.6L24.1 2.4L24.25 2.4L24.45 2.55L24.5 2.7L24.3 2.8L24.15 2.85L24 2.7L24 2.6M22.95 1.75L22.75 1.8L22.6 1.95L22.45 1.75L22.45 1.65L22.55 1.5L22.7 1.5L22.9 1.55L22.95 1.75M22.9 2.9L22.7 3.05L22.55 3.1L22.4 3L22.35 2.8L22.5 2.65L22.65 2.65L22.85 2.7L22.9 2.9M23.7 3.7L23.55 3.6L23.5 3.4L23.6 3.25L23.9 3.25L24 3.35L24 3.55L23.95 3.7L23.7 3.7M13.6 7.55L13.65 7.7L13.55 7.8L13.4 7.85L13.3 7.7L13.25 7.6L13.3 7.45L13.55 7.45L13.6 7.55M13.8 8.4L13.95 8.5L14 8.65L13.85 8.7L13.7 8.75L13.6 8.65L13.6 8.55L13.65 8.4L13.8 8.4M13.6 9.15L13.6 9.3L13.55 9.4L13.35 9.4L13.25 9.35L13.2 9.2L13.3 9.05L13.5 9.05L13.6 9.15M14.7 8.15L14.75 8L14.9 8L15.05 8.1L15.05 8.25L15 8.3L14.8 8.35L14.7 8.25L14.7 8.15M14.4 9.1L14.5 9L14.65 9L14.75 9.05L14.8 9.2L14.7 9.3L14.55 9.35L14.4 9.2L14.4 9.1M12.75 7.9L12.6 7.95L12.5 8L12.35 7.9L12.35 7.8L12.45 7.65L12.55 7.65L12.7 7.7L12.75 7.9M12.3 8.85L12.25 8.7L12.4 8.6L12.55 8.6L12.65 8.65L12.7 8.8L12.55 8.9L12.45 8.95L12.3 8.85M2.9 2.8L2.75 2.9L2.6 2.95L2.45 2.8L2.45 2.7L2.55 2.55L2.7 2.55L2.85 2.65L2.9 2.8M3.7 2.25L3.8 2.1L3.95 2.1L4.1 2.2L4.15 2.35L4.05 2.45L3.85 2.5L3.75 2.35L3.7 2.25M2.4 1.45L2.45 1.55L2.5 1.75L2.4 1.85L2.25 1.9L2.1 1.75L2.05 1.65L2.15 1.45L2.4 1.45M1.05 1.95L1.05 1.85L1.15 1.7L1.3 1.7L1.45 1.75L1.5 1.95L1.35 2L1.2 2.1L1.05 1.95M1.1 2.75L1.25 2.75L1.4 2.8L1.45 3L1.3 3.1L1.15 3.15L1 3.05L0.95 2.9L1.1 2.75M2.35 3.3L2.45 3.4L2.45 3.55L2.4 3.7L2.2 3.7L2.05 3.6L2 3.45L2.1 3.3L2.35 3.3M3.55 3.6L3.4 3.45L3.4 3.35L3.5 3.2L3.65 3.2L3.8 3.3L3.85 3.45L3.7 3.55L3.55 3.6" />
</g>
</svg>
