<?xml version="1.0" encoding="utf-8"?>
<svg version="1.1" id="Layer_1"
xmlns="http://www.w3.org/2000/svg"
xmlns:xlink="http://www.w3.org/1999/xlink"
width="13px" height="4px"
xml:space="preserve">
<g id="PathID_4401" transform="matrix(1, 0, 0, 1, 6.1, 10.55)">
<path style="fill:#FFFEFC;fill-opacity:1" d="M-4.9 -10.55Q-4.4 -10.55 -4.05 -10Q-3.7 -9.45 -3.7 -8.75Q-3.7 -7.95 -4.05 -7.4Q-4.4 -6.85 -4.9 -6.85Q-5.45 -6.85 -5.75 -7.4Q-6.1 -7.95 -6.1 -8.75L-5.75 -10Q-5.45 -10.55 -4.9 -10.55" />
</g>
<g id="PathID_4402" transform="matrix(1, 0, 0, 1, 6.1, 10.55)">
<path style="fill:#FFFEFC;fill-opacity:1" d="M5.6 -10L5.95 -8.75Q5.95 -7.95 5.6 -7.4Q5.25 -6.85 4.75 -6.85Q4.2 -6.85 3.9 -7.4Q3.55 -7.95 3.55 -8.75Q3.55 -9.45 3.9 -10Q4.2 -10.55 4.75 -10.55Q5.25 -10.55 5.6 -10" />
</g>
</svg>
