<?xml version="1.0" encoding="utf-8"?>
<svg version="1.1" id="Layer_1"
xmlns="http://www.w3.org/2000/svg"
xmlns:xlink="http://www.w3.org/1999/xlink"
width="100px" height="16px"
xml:space="preserve">
<g id="PathID_2912" transform="matrix(1, 0, 0, 1, 0, 0)">
<linearGradient
id="LinearGradID_1453" gradientUnits="userSpaceOnUse" gradientTransform="matrix(0.0162201, -0.00700378, 0.00352478, 0.00820923, 86.35, 6.55)" spreadMethod ="pad" x1="-819.2" y1="0" x2="819.2" y2="0" >
<stop  offset="0" style="stop-color:#808080;stop-opacity:0" />
<stop  offset="1" style="stop-color:#808080;stop-opacity:1" />
</linearGradient>
<path style="fill:url(#LinearGradID_1453) " d="M72.2 14.1Q74.75 10.9 78.8 10.45L80.05 10.3L81.15 9.95L82.3 8.75L83.35 7.25Q84.5 5.55 86.95 4.4L93.35 2.4Q93.25 3.1 91.4 5.1L89.1 7.65L91.4 5.1Q93.25 3.1 93.35 2.4L86.95 4.4Q84.5 5.55 83.35 7.25L82.3 8.75L81.15 9.95L80.05 10.3L78.8 10.45Q74.75 10.9 72.2 14.1M93.95 4.8Q88 11.65 84.45 13.45Q79.9 15.05 78.6 15.25L74.05 15.4Q71.35 14.45 70.7 13.75Q73.1 8.25 77.5 5.1L81 3.05L84.45 1.85Q90.75 0.05 99.5 1.3L97.2 2.4Q94.7 3.75 93.95 4.8" />
<linearGradient
id="LinearGradID_1454" gradientUnits="userSpaceOnUse" gradientTransform="matrix(-0.0135956, -0.0108643, 0.00556946, -0.00698853, 11.95, 5.25)" spreadMethod ="pad" x1="-819.2" y1="0" x2="819.2" y2="0" >
<stop  offset="0" style="stop-color:#808080;stop-opacity:0" />
<stop  offset="1" style="stop-color:#808080;stop-opacity:1" />
</linearGradient>
<path style="fill:url(#LinearGradID_1454) " d="M26.2 14.55L21.6 14.45L19.35 14.05L17.25 13.5L15.25 12.7Q12.95 11.5 9.1 7.65L5.65 3.95Q3.85 1.3 0 0.5Q8.8 -0.7 15.25 1.05L18.25 2.15Q24.05 4.6 27.45 10.05L28.55 12Q28.35 12.95 27.75 13.65Q25 10.3 20.95 9.9Q27.2 14.25 26.2 14.55M20.95 9.9L19.8 9.75L18.65 9.4Q18.05 9.1 17.45 8.2L16.45 6.7Q15.35 5 12.85 3.85L9.55 2.7L6.45 1.8Q6.55 2.45 8.4 4.5L10.7 7.05L8.4 4.5Q6.55 2.45 6.45 1.8L9.55 2.7L12.85 3.85Q15.35 5 16.45 6.7L17.45 8.2Q18.05 9.1 18.65 9.4L19.8 9.75L20.95 9.9Q25 10.3 27.75 13.65" />
<path style="fill:none;stroke-width:0.7;stroke-linecap:butt;stroke-linejoin:bevel;stroke-miterlimit:3;stroke:#000000;stroke-opacity:0.501961" d="M89.1 7.65L91.4 5.1Q93.25 3.1 93.35 2.4L86.95 4.4Q84.5 5.55 83.35 7.25L82.3 8.75L81.15 9.95L80.05 10.3L78.8 10.45Q74.75 10.9 72.2 14.1" />
<path style="fill:none;stroke-width:0.7;stroke-linecap:butt;stroke-linejoin:bevel;stroke-miterlimit:3;stroke:#000000;stroke-opacity:0.501961" d="M27.75 13.65Q25 10.3 20.95 9.9L19.8 9.75L18.65 9.4Q18.05 9.1 17.45 8.2L16.45 6.7Q15.35 5 12.85 3.85L9.55 2.7L6.45 1.8Q6.55 2.45 8.4 4.5L10.7 7.05" />
</g>
</svg>
