<?xml version="1.0" encoding="utf-8"?>
<svg version="1.1" id="Layer_1"
xmlns="http://www.w3.org/2000/svg"
xmlns:xlink="http://www.w3.org/1999/xlink"
width="69px" height="54px"
xml:space="preserve">
<g id="PathID_3063" transform="matrix(1, 0, 0, 1, 0, 0)">
<path style="fill:#000000;fill-opacity:0.321569" d="M50.95 1.25L36.3 53.1L33.2 53.1L18.3 1.25L3.65 53L1.65 53L16.5 1.25L18.3 1.25L20.65 1.25L34.1 49.75L49.2 1.25L50.95 1.25M52.9 1.25L68.35 53.2L66.25 53.4L51.05 1.25L52.9 1.25" />
</g>
<g id="PathID_3064" transform="matrix(1, 0, 0, 1, 0, 0)">
<path style="fill:#808080;fill-opacity:1" d="M51.8 0.65L66.9 52Q66.15 53.45 64.85 52.8L49.6 0.85Q50.5 -0.15 51.8 0.65M49.6 0.9L35.35 52.5Q34.3 53.15 33.2 52.5L33.4 50.65Q32.5 52.95 31.8 52.5L16.85 0.65L2.25 52.65Q0.6 53.1 0 52.1L14.85 0.3Q15.95 -0.05 16.85 0.65Q18.05 -0.25 19.15 0.1L33.4 50.65L33.2 52.5L47.75 0.65Q48.65 0.2 49.6 0.9" />
<path style="fill:none;stroke-width:0.7;stroke-linecap:round;stroke-linejoin:round;stroke-miterlimit:3;stroke:#000000;stroke-opacity:0.4" d="M49.6 0.85L64.85 52.8Q66.15 53.45 66.9 52L51.8 0.65Q50.5 -0.15 49.6 0.85z" />
<path style="fill:none;stroke-width:0.7;stroke-linecap:round;stroke-linejoin:round;stroke-miterlimit:3;stroke:#000000;stroke-opacity:0.4" d="M49.6 0.9L35.35 52.5Q34.3 53.15 33.2 52.5Q32.5 52.95 31.8 52.5L16.85 0.65L2.25 52.65Q0.6 53.1 0 52.1L14.85 0.3Q15.95 -0.05 16.85 0.65Q18.05 -0.25 19.15 0.1L33.4 50.65L47.75 0.65Q48.65 0.2 49.6 0.9z" />
<path style="fill:none;stroke-width:0.7;stroke-linecap:round;stroke-linejoin:round;stroke-miterlimit:3;stroke:#000000;stroke-opacity:0.4" d="M33.4 50.65L33.2 52.5" />
</g>
</svg>
