<?xml version="1.0" encoding="utf-8"?>
<svg version="1.1" id="Layer_1"
xmlns="http://www.w3.org/2000/svg"
xmlns:xlink="http://www.w3.org/1999/xlink"
width="20px" height="49px"
xml:space="preserve">
<g id="PathID_4128" transform="matrix(1, 0, 0, 1, 13.3, 21.15)">
<path style="fill:none;stroke-width:0.7;stroke-linecap:round;stroke-linejoin:round;stroke-miterlimit:3;stroke:#FFFFFF;stroke-opacity:0.501961" d="M0.75 10.2L0.75 27.5" />
</g>
<g id="PathID_4129" transform="matrix(1, 0, 0, 1, 13.3, 21.15)">
<path style="fill:none;stroke-width:0.7;stroke-linecap:round;stroke-linejoin:round;stroke-miterlimit:3;stroke:#FFFFFF;stroke-opacity:0.501961" d="M-6.65 15.55L0.75 27.5" />
</g>
<g id="PathID_4130" transform="matrix(1, 0, 0, 1, 13.3, 21.15)">
<path style="fill:none;stroke-width:0.7;stroke-linecap:round;stroke-linejoin:round;stroke-miterlimit:3;stroke:#FFFFFF;stroke-opacity:0.501961" d="M-1.7 14.35L0.75 27.5" />
</g>
<g id="PathID_4131" transform="matrix(1, 0, 0, 1, 13.3, 21.15)">
<path style="fill:none;stroke-width:0.7;stroke-linecap:round;stroke-linejoin:round;stroke-miterlimit:3;stroke:#FFFFFF;stroke-opacity:0.501961" d="M-0.85 14.1L0.75 27.5" />
</g>
<g id="PathID_4132" transform="matrix(1, 0, 0, 1, 13.3, 21.15)">
<path style="fill:none;stroke-width:0.7;stroke-linecap:round;stroke-linejoin:round;stroke-miterlimit:3;stroke:#FFFFFF;stroke-opacity:0.501961" d="M6.4 11.15L0.75 27.5" />
</g>
<g id="PathID_4133" transform="matrix(1, 0, 0, 1, 13.3, 21.15)">
<path style="fill:none;stroke-width:0.7;stroke-linecap:round;stroke-linejoin:round;stroke-miterlimit:3;stroke:#FFFFFF;stroke-opacity:0.501961" d="M5.55 18.5L0.75 27.5" />
</g>
<g id="PathID_4134" transform="matrix(1, 0, 0, 1, 13.3, 21.15)">
<path style="fill:none;stroke-width:0.7;stroke-linecap:round;stroke-linejoin:round;stroke-miterlimit:3;stroke:#FFFFFF;stroke-opacity:0.501961" d="M3.3 23.95Q2.4 24.85 0.75 27.5Q3 26.7 4.25 25.8Q5.4 24.95 4.85 24L3.3 23.95z" />
<path style="fill:none;stroke-width:0.7;stroke-linecap:round;stroke-linejoin:round;stroke-miterlimit:3;stroke:#FFFFFF;stroke-opacity:0.501961" d="M-3.4 26.1Q-2.8 27 0.75 27.5Q-1.25 24.4 -2.3 24.35Q-3.1 24.3 -3.45 24.85Q-3.85 25.45 -3.4 26.1z" />
</g>
<g id="PathID_4135" transform="matrix(1, 0, 0, 1, 13.3, 21.15)">
<path style="fill:#FFFFFF;fill-opacity:0.501961" d="M0.25 -2.1Q-0.95 -0.7 -2.3 -0.3L-2.2 1.05Q-2.15 2.2 -3.45 2.85Q-4.15 3.2 -4.35 2.85Q-4.65 2.45 -4.4 1.45L-3.6 0.25L-3.25 -0.1Q-4.75 0 -6.45 -1Q-8.1 -2 -9.75 -3.95Q-12.8 -7.5 -13.25 -11.45Q-13.6 -15.1 -11.7 -17.7Q-9.7 -20.5 -6.15 -21.05Q-2.7 -21.6 0.1 -19.6Q2.7 -17.7 3.45 -14.05Q4.3 -10.2 2.45 -5.85Q1.5 -3.5 0.25 -2.1" />
</g>
</svg>
