<?xml version="1.0" encoding="utf-8"?>
<svg version="1.1" id="Layer_1"
xmlns="http://www.w3.org/2000/svg"
xmlns:xlink="http://www.w3.org/1999/xlink"
width="17px" height="31px"
xml:space="preserve">
<g id="PathID_3033" transform="matrix(1, 0, 0, 1, 8.05, 15.35)">
<path style="fill:#808080;fill-opacity:1" d="M-7.35 -13.8L-5.3 -13.8L-5.3 2.55L6.35 14.2L2.95 14.2L-5.3 5.95L-5.3 14.15L-5.35 14.15L-7.35 14.15L-7.35 -13.8" />
<path style="fill:#474747;fill-opacity:1" d="M2.95 14.2L2.95 14.3L3.4 15.1L-4.7 7L-4.7 15.25L-5.3 14.2L-5.3 14.15L-5.3 5.95L2.95 14.2M-7.35 14.15L-8.05 15.3L-8.05 -15.35L-7.35 -13.8L-7.35 14.15" />
<path style="fill:#666666;fill-opacity:1" d="M-5.3 2.55L-5.3 -13.8L-4.7 -15.25L-4.7 2.35L8.1 15.25L6.35 14.2L-5.3 2.55" />
</g>
</svg>
