<?xml version="1.0" encoding="utf-8"?>
<svg version="1.1" id="Layer_1"
xmlns="http://www.w3.org/2000/svg"
xmlns:xlink="http://www.w3.org/1999/xlink"
width="36px" height="46px"
xml:space="preserve">
<g id="PathID_4077" transform="matrix(1, 0, 0, 1, 0.4, 0.4)">
<path style="fill:#808080;fill-opacity:1" d="M9.1 36.7Q8.35 36.25 6.55 34.4L4.3 31.95Q1.05 25.6 0.9 25L0.05 19.45Q-0.15 15.6 0.75 12.7Q2.15 8.15 4.6 5.35Q7.25 2.3 11.5 0.9Q21.05 -2.3 30.15 6.1L31.5 7.75L33.3 10.45L29.45 20.7L26.75 26.3L23.65 31.25L21.95 33.4Q19.05 36.7 15.75 38.55L13.15 39.8L9.1 36.7" />
<path style="fill:#54504E;fill-opacity:1" d="M34.75 20.35L33.25 25.85L28.55 32.75L27.1 34.3L24.8 36.6L23.2 38.1Q21.45 39.45 20.3 39.85L22.65 43.4L17.75 40.5L19.55 42.5L14.15 40.55L13.15 39.8L15.75 38.55Q19.05 36.7 21.95 33.4L23.65 31.25L26.75 26.3L29.45 20.7L33.3 10.45Q35.55 16.2 34.75 20.35M22.65 43.4L20.05 43.3L17.75 44.6L14.9 43.2L11.3 43.2L14.15 40.55L17.75 40.5L20.3 39.85M19.55 42.5L17.75 40.5" />
<path style="fill:none;stroke-width:0.8;stroke-linecap:butt;stroke-linejoin:miter;stroke-miterlimit:3;stroke:#000000;stroke-opacity:0.4" d="M33.3 10.45L31.5 7.75L30.15 6.1Q21.05 -2.3 11.5 0.9Q7.25 2.3 4.6 5.35Q2.15 8.15 0.75 12.7Q-0.15 15.6 0.05 19.45L0.9 25Q1.05 25.6 4.3 31.95L6.55 34.4Q8.35 36.25 9.1 36.7L13.15 39.8L14.15 40.55L17.75 40.5L20.3 39.85Q21.45 39.45 23.2 38.1L24.8 36.6L27.1 34.3L28.55 32.75L33.25 25.85L34.75 20.35Q35.55 16.2 33.3 10.45z" />
<path style="fill:none;stroke-width:0.7;stroke-linecap:butt;stroke-linejoin:miter;stroke-miterlimit:3;stroke:#000000;stroke-opacity:0.4" d="M20.3 39.85L22.65 43.4L20.05 43.3L17.75 44.6L14.9 43.2L11.3 43.2L14.15 40.55" />
<path style="fill:none;stroke-width:0.7;stroke-linecap:butt;stroke-linejoin:miter;stroke-miterlimit:3;stroke:#000000;stroke-opacity:0.4" d="M17.75 40.5L19.55 42.5" />
</g>
</svg>
