<?xml version="1.0" encoding="utf-8"?>
<svg version="1.1" id="Layer_1"
xmlns="http://www.w3.org/2000/svg"
xmlns:xlink="http://www.w3.org/1999/xlink"
width="13px" height="8px"
xml:space="preserve">
<g id="PathID_4464" transform="matrix(1, 0, 0, 1, 6.1, 3.55)">
<path style="fill:#808080;fill-opacity:1" d="M5.85 -0.05L5 0.75L3.95 1.05Q3.15 1.05 2.55 0.25Q2.25 -0.1 2.35 -1.25Q2.45 -2.4 2.8 -2.8Q3.4 -3.45 4.25 -3.55Q5.1 -3.5 5.7 -2.8L6.1 -1.4Q6.15 -0.4 5.85 -0.05M-3.4 -0.65Q-2.65 -0.1 -2.45 0.8Q-2.1 1.95 -2.35 2.6Q-2.6 3.3 -3.6 3.5Q-4.25 3.7 -4.95 3.15Q-5.8 2.55 -6.05 1.7Q-6.25 0.95 -5.8 0Q-5.4 -0.75 -4.75 -0.95Q-4.05 -1.1 -3.4 -0.65" />
</g>
</svg>
