<?xml version="1.0" encoding="utf-8"?>
<svg version="1.1" id="Layer_1"
xmlns="http://www.w3.org/2000/svg"
xmlns:xlink="http://www.w3.org/1999/xlink"
width="183px" height="10px"
xml:space="preserve">
<g id="PathID_2750" transform="matrix(1, 0, 0, 1, 0, 0)">
<path style="fill:#808080;fill-opacity:1" d="M175 3.05Q176.6 3.6 177.85 4.45Q180.65 6.35 182.15 9.9L181.8 10L175.9 10Q174.95 7.65 173.4 6.15L172.55 5.4Q171.2 4.35 169.5 3.85L175 3.05M157.7 4.9Q156.25 5.6 156.25 6.4L156.55 6.95L157.75 7.3Q158.8 7.3 159.3 6.85L159.9 5.75L160.8 6.15L161.05 6.8Q161.05 7.75 159.9 8.3Q158.95 8.8 157.8 8.8L154.75 8.1Q152.85 7.35 152.85 6.35Q152.85 5.6 153.35 5L157.7 4.9M132.35 2.65L133.3 2.8L139.45 3.85L138.45 4.85Q137.15 5.8 135.15 5.8Q134.15 5.8 132.4 5L129.9 4.05Q130.45 3.2 132.35 2.65M104.85 6.85Q105.75 6.15 106.7 5.6Q111.85 2.55 117.7 2.55Q124.55 2.55 131.05 6.95L134 9.3L128.45 8.7Q123.3 4.4 117.25 4.4Q111.95 4.4 108.25 7.05L104.85 6.85M78.05 5.45Q76.9 4.05 76.9 2.3Q76.9 1.75 77.25 0.35L77.35 0L80.65 0Q80.3 0.9 80.3 1.95Q80.3 4.25 81.7 5.6L78.05 5.45M60.05 5.2Q55.85 2.85 51.1 3.2Q45.65 3.6 40.6 1.55Q38.8 0.8 37.6 0L46.65 0Q47.9 1 49.6 1.45L58 1.7Q62.85 1.25 66.9 5.2L60.05 5.2M18.35 8.45L18.2 8.3Q15.75 6.45 12.5 5.15L18 3.9L21.45 6.5L23.05 7.85L18.35 8.45" />
<path style="fill:#626262;fill-opacity:1" d="M153.35 5Q154.7 3.25 160 2.4L166.95 1.85L167 1.85L167.1 1.9L167.1 1.85Q171.75 1.85 175 3.05L169.5 3.85L165 3.2Q163.15 3.2 160.1 4.05Q158.6 4.45 157.7 4.9L153.35 5M133.3 2.8L132.35 2.65Q134.5 1.95 138.5 1.7L139.7 1.7L139.8 2.5Q139.8 3.25 139.45 3.85L133.3 2.8M108.25 7.05L107.45 7.65Q106.25 8.65 105.15 10L101.25 10Q102.85 8.25 104.85 6.85L108.25 7.05M81.7 5.6L81.95 5.8Q83.5 7.1 86.2 7.1Q88.25 7.1 89.6 6.5L90.45 6L93.05 6.1Q92.4 7.05 90.85 7.8Q88.55 8.95 86.2 8.95Q83.3 8.95 80.4 7.3Q78.9 6.45 78.05 5.45L81.7 5.6M66.9 5.2Q68.45 6.75 69.95 9L70.6 10L65.75 10L64.65 8.85Q62.45 6.55 60.05 5.2L66.9 5.2M46.6 5.75Q48.4 6.75 48.8 8L46.45 8.5Q44.3 8.5 42.55 7.7Q41.15 7.1 40.4 6.1L46.6 5.75M23.05 7.85L25.45 10L20.25 10L18.35 8.45L23.05 7.85M12.5 5.15Q10.05 4.15 7.25 3.45Q2.55 2.3 0 2.4L0 1.3Q-0.1 0.25 1.35 0L10.9 0Q14.25 1.25 18 3.9L12.5 5.15" />
<path style="fill:#858585;fill-opacity:1" d="M90.45 6Q91.15 5.35 91.15 4.5Q91.15 2.85 89.8 2.85Q88.15 3.2 88 4.05L87.85 3.8L87.85 2.85L88.55 1.9Q88.95 1.5 89.55 1.5Q91 1.5 92.2 2.35Q93.5 3.25 93.5 4.65Q93.5 5.45 93.05 6.1L90.45 6M46.6 5.75L40.4 6.1L39.95 5.3L39.95 4.25L43.15 4.25L46.55 5.7L46.6 5.75" />
</g>
</svg>
