<?xml version="1.0" encoding="utf-8"?>
<svg version="1.1" id="Layer_1"
xmlns="http://www.w3.org/2000/svg"
xmlns:xlink="http://www.w3.org/1999/xlink"
width="45px" height="43px"
xml:space="preserve">
<g id="PathID_3270" transform="matrix(1, 0, 0, 1, 22.25, 21.15)">
<linearGradient
id="LinearGradID_1569" gradientUnits="userSpaceOnUse" gradientTransform="matrix(0, 0.0161133, -0.0141602, 0, -10.4, -6.9)" spreadMethod ="pad" x1="-819.2" y1="0" x2="819.2" y2="0" >
<stop  offset="0" style="stop-color:#606060;stop-opacity:1" />
<stop  offset="0.172549" style="stop-color:#808080;stop-opacity:1" />
<stop  offset="0.796078" style="stop-color:#808080;stop-opacity:1" />
<stop  offset="1" style="stop-color:#707070;stop-opacity:1" />
</linearGradient>
<path style="fill:url(#LinearGradID_1569) " d="M-12.9 -3.1Q-11.6 -7.05 -6.9 -14.35L-2.4 -20.85L1.2 -20.9Q-1.5 -18.95 -4.15 -12.75Q-9.5 -0.35 -9.25 20.9Q-11.6 17.5 -15 6.35L-22 14.85Q-22.05 -0.1 -15.1 -11.95Q-11.6 -17.9 -8.1 -20.85L-2.4 -20.85L-6.9 -14.35Q-11.6 -7.05 -12.9 -3.1" />
<path style="fill:none;stroke-width:0.7;stroke-linecap:round;stroke-linejoin:round;stroke-miterlimit:3;stroke:#000000;stroke-opacity:0.301961" d="M-2.4 -20.85L-6.9 -14.35Q-11.6 -7.05 -12.9 -3.1" />
<path style="fill:none;stroke-width:0.7;stroke-linecap:round;stroke-linejoin:round;stroke-miterlimit:3;stroke:#000000;stroke-opacity:0.301961" d="M-8.1 -20.85L-2.4 -20.85L1.2 -20.9Q-1.5 -18.95 -4.15 -12.75Q-9.5 -0.35 -9.25 20.9Q-11.6 17.5 -15 6.35L-22 14.85Q-22.05 -0.1 -15.1 -11.95Q-11.6 -17.9 -8.1 -20.85z" />
</g>
<g id="PathID_3271" transform="matrix(1, 0, 0, 1, 22.25, 21.15)">
<linearGradient
id="LinearGradID_1570" gradientUnits="userSpaceOnUse" gradientTransform="matrix(0.000732422, 0.0119171, -0.0110931, 0.000686646, 12.2, -10.55)" spreadMethod ="pad" x1="-819.2" y1="0" x2="819.2" y2="0" >
<stop  offset="0" style="stop-color:#606060;stop-opacity:1" />
<stop  offset="0.172549" style="stop-color:#808080;stop-opacity:1" />
<stop  offset="0.796078" style="stop-color:#808080;stop-opacity:1" />
<stop  offset="1" style="stop-color:#707070;stop-opacity:1" />
</linearGradient>
<path style="fill:url(#LinearGradID_1570) " d="M9 -20.8L9.2 -20.8Q12.5 -17.7 12.85 -16.05Q12.5 -17.7 9.2 -20.8L13.8 -20.9Q15.75 -18.8 17.7 -15Q21.7 -7.4 22 1.1L17.55 -2.35L13.65 -5.65Q9.6 -2.35 8.05 -1.5Q8.4 -6.65 5.45 -14.25L2.4 -20.8L8.05 -20.8L9 -20.8M12.55 -12.75Q11.9 -15.6 8.05 -20.8Q11.9 -15.6 12.55 -12.75" />
<path style="fill:none;stroke-width:0.7;stroke-linecap:round;stroke-linejoin:round;stroke-miterlimit:3;stroke:#000000;stroke-opacity:0.301961" d="M8.05 -20.8L2.4 -20.8L5.45 -14.25Q8.4 -6.65 8.05 -1.5Q9.6 -2.35 13.65 -5.65L17.55 -2.35L22 1.1Q21.7 -7.4 17.7 -15Q15.75 -18.8 13.8 -20.9L9.2 -20.8Q12.5 -17.7 12.85 -16.05" />
<path style="fill:none;stroke-width:0.7;stroke-linecap:round;stroke-linejoin:round;stroke-miterlimit:3;stroke:#000000;stroke-opacity:0.301961" d="M9.2 -20.8L9 -20.8L8.05 -20.8Q11.9 -15.6 12.55 -12.75" />
</g>
</svg>
