<?xml version="1.0" encoding="utf-8"?>
<svg version="1.1" id="Layer_1"
xmlns="http://www.w3.org/2000/svg"
xmlns:xlink="http://www.w3.org/1999/xlink"
width="10px" height="8px"
xml:space="preserve">
<g id="PathID_2204" transform="matrix(1, 0, 0, 1, 3.8, 4.15)">
<path style="fill:#15130F;fill-opacity:1" d="M-3.7 -1.1Q-4.1 -2.7 -3.2 -3.55Q-2.4 -4.4 -0.8 -4Q0.75 -3.6 1.35 -2.6L2.4 -0.75L3.05 -0.05L4 0.45L4.85 0.75Q7.1 0.4 5.8 1.75L5.75 1.3L5.05 2.45Q4.25 1 2.4 1.85L3.55 3.1L1 2.95L-1.45 1.25Q-3.15 0.2 -3.7 -1.1M5.75 1.3Q5.65 0.9 4.85 0.75L4 0.45M4.85 0.75Q5.65 0.9 5.75 1.3L5.8 1.75M2.4 1.85Q4.25 1 5.05 2.45" />
<path style="fill:none;stroke-width:0.7;stroke-linecap:round;stroke-linejoin:round;stroke-miterlimit:3;stroke:#000000;stroke-opacity:0.301961" d="M2.4 -0.75L3.05 -0.05L4 0.45Q7.1 0.4 5.8 1.75L5.05 2.45L3.55 3.1L1 2.95L-1.45 1.25Q-3.15 0.2 -3.7 -1.1" />
<path style="fill:none;stroke-width:0.7;stroke-linecap:round;stroke-linejoin:round;stroke-miterlimit:3;stroke:#000000;stroke-opacity:0.301961" d="M4 0.45L4.85 0.75Q5.65 0.9 5.75 1.3L5.8 1.75" />
<path style="fill:none;stroke-width:0.7;stroke-linecap:round;stroke-linejoin:round;stroke-miterlimit:3;stroke:#000000;stroke-opacity:0.301961" d="M5.05 2.45Q4.25 1 2.4 1.85" />
</g>
<g id="PathID_2205" transform="matrix(1, 0, 0, 1, 3.8, 4.15)">
<path style="fill:#62553F;fill-opacity:1" d="M1.45 -0.6L1 -2L1.9 -2.35Q3.1 -1.15 3.45 0.2Q1.1 1 0.15 3.15L-1.95 0.85Q-1 -0.75 0.3 -1.6L1.45 -0.6" />
<path style="fill:none;stroke-width:0.7;stroke-linecap:round;stroke-linejoin:round;stroke-miterlimit:3;stroke:#000000;stroke-opacity:0.4" d="M1.45 -0.6L1 -2L1.9 -2.35Q3.1 -1.15 3.45 0.2Q1.1 1 0.15 3.15L-1.95 0.85Q-1 -0.75 0.3 -1.6L1.45 -0.6z" />
</g>
</svg>
