<?xml version="1.0" encoding="utf-8"?>
<svg version="1.1" id="Layer_1"
xmlns="http://www.w3.org/2000/svg"
xmlns:xlink="http://www.w3.org/1999/xlink"
width="5px" height="5px"
xml:space="preserve">
<g id="PathID_2344" transform="matrix(1, 0, 0, 1, 2.25, 2.3)">
<radialGradient
id="RadialGradID_536" gradientUnits="userSpaceOnUse" gradientTransform="matrix(0.00396729, 0, 0, 0.00396729, 0.45, -0.7)" spreadMethod ="pad" cx="0" cy="0" r="819.2" fx="0" fy="0" >
<stop  offset="0.203922"  style="stop-color:#003E6B;stop-opacity:1" />
<stop  offset="0.427451"  style="stop-color:#3AABDB;stop-opacity:1" />
<stop  offset="0.792157"  style="stop-color:#9CE6FF;stop-opacity:1" />
</radialGradient>
<path style="fill:url(#RadialGradID_536) " d="M-0.45 1.45Q-2.05 0.9 -1.8 -1.2Q-1.25 -2.15 0 -2.2Q0.9 -2.2 1.55 -1.55L1.8 -1.25Q2.2 -0.7 2.2 0L2.2 0.3Q1.1 1.95 -0.45 1.45" />
<path style="fill:#F0F0F0;fill-opacity:1" d="M2.2 0.3L1.55 1.5Q0.9 2.15 0 2.15Q-0.9 2.15 -1.55 1.5Q-2.15 0.85 -2.15 0L-1.8 -1.2Q-2.05 0.9 -0.45 1.45Q1.1 1.95 2.2 0.3" />
<path style="fill:none;stroke-width:0.7;stroke-linecap:round;stroke-linejoin:round;stroke-miterlimit:3;stroke:#000000;stroke-opacity:0.4" d="M-1.8 -1.2Q-1.25 -2.15 0 -2.2Q0.9 -2.2 1.55 -1.55L1.8 -1.25Q2.2 -0.7 2.2 0L2.2 0.3L1.55 1.5Q0.9 2.15 0 2.15Q-0.9 2.15 -1.55 1.5Q-2.15 0.85 -2.15 0L-1.8 -1.2z" />
</g>
<g id="PathID_2345" transform="matrix(1, 0, 0, 1, 2.25, 2.3)">
<path style="fill:#1D130E;fill-opacity:1" d="M1.35 -0.4L1.35 -0.2L1.15 0.7Q0.9 1.25 0.45 1.2Q-0.35 1.1 -0.45 0.2Q-0.55 -0.65 -0.2 -1.2Q0.05 -1.75 0.65 -1.65Q1.25 -1.55 1.35 -0.4" />
</g>
<g id="PathID_2346" transform="matrix(1, 0, 0, 1, 2.25, 2.3)">
<path style="fill:#1D130E;fill-opacity:1" d="M0.15 -1.4Q-0.95 -1.65 -1.95 -0.5Q-1.7 -2.3 0.35 -2.2Q2.7 -1.75 2 0.8Q1.85 -0.7 1.05 -1.1L0.15 -1.4" />
</g>
<g id="PathID_2347" transform="matrix(1, 0, 0, 1, 2.25, 2.3)">
<path style="fill:#FFFFFF;fill-opacity:1" d="M0.1 -0.35Q-0.3 -0.35 -0.6 -0.6L-0.85 -1.2L-0.6 -1.8L0.1 -2.05L0.75 -1.8L1.05 -1.2L0.75 -0.6L0.1 -0.35" />
</g>
<g id="PathID_2348" transform="matrix(1, 0, 0, 1, 2.25, 2.3)">
<path style="fill:#FFFFFF;fill-opacity:1" d="M-1 0.8L-1.4 0.95L-1.8 0.8L-1.95 0.4L-1.8 0L-1.4 -0.15L-1 0L-0.85 0.4L-1 0.8" />
</g>
</svg>
