<?xml version="1.0" encoding="utf-8"?>
<svg version="1.1" id="Layer_1"
xmlns="http://www.w3.org/2000/svg"
xmlns:xlink="http://www.w3.org/1999/xlink"
width="23px" height="16px"
xml:space="preserve">
<g id="PathID_2373" transform="matrix(1, 0, 0, 1, 11.75, 6.8)">
<path style="fill:#BBB6B4;fill-opacity:1" d="M-6.25 -3.2L-4.9 -4.9L-3.75 -5.9L-2.6 -6.5L0 -6.8L0.9 -6.7Q2 -6.5 3 -5.95L4.8 -4.55Q6.45 -3.05 6.9 0.4L7 3.6Q0.7 4.1 -1.4 3.6L-1.85 3.5Q-4.35 2.55 -5.25 1.25Q-6.5 -0.45 -6.25 -3.2" />
<path style="fill:#79736E;fill-opacity:1" d="M-5.25 1.25Q-4.35 2.55 -1.85 3.5L-1.4 3.6Q0.7 4.1 7 3.6L7.2 4.05L7.45 4.65Q8.25 5.65 10.65 6.65Q3.7 6.9 1.15 6.6L-3.7 5.7Q-6 5.2 -6.65 3.75L-6.9 2.95Q-7.25 1.75 -7.05 0.2Q-6.85 -1.95 -6.25 -3.2Q-6.5 -0.45 -5.25 1.25" />
<path style="fill:none;stroke-width:0.7;stroke-linecap:round;stroke-linejoin:miter;stroke-miterlimit:5;stroke:#000000;stroke-opacity:0.4" d="M1.15 6.6L-3.7 5.7Q-6 5.2 -6.65 3.75L-6.9 2.95Q-7.25 1.75 -7.05 0.2Q-6.85 -1.95 -6.25 -3.2L-4.9 -4.9L-3.75 -5.9L-2.6 -6.5" />
</g>
<g id="PathID_2374" transform="matrix(1, 0, 0, 1, 11.75, 6.8)">
<path style="fill:#FFF6EE;fill-opacity:1" d="M1.3 -6.5Q7.95 -4.75 8.9 3.15Q6.25 2.15 5.35 2.1L3.4 1.9L1 1.35L-1.25 0.45L-2.8 -0.4L-4.4 -1.6L-5.3 -2.45L-6.8 -3.8L-3.2 -6.7L1.3 -6.5" />
<path style="fill:none;stroke-width:0.7;stroke-linecap:round;stroke-linejoin:round;stroke-miterlimit:3;stroke:#000000;stroke-opacity:0.4" d="M-3.2 -6.7L-6.8 -3.8L-5.3 -2.45L-4.4 -1.6L-2.8 -0.4L-1.25 0.45L1 1.35L3.4 1.9L5.35 2.1Q6.25 2.15 8.9 3.15" />
</g>
<g id="PathID_2375" transform="matrix(1, 0, 0, 1, 11.75, 6.8)">
<path style="fill:#354A9D;fill-opacity:1" d="M-9.05 3.2L-8.45 1L-5.15 -3.9L-4.1 -2.9L-9.05 3.2M-4.75 6.75L-5.1 3.35L-2.25 -1.35L-0.4 -0.3L-4.75 6.75M4.1 8.15L3.6 8.35L0.4 5.8L2.3 0.9L5.15 1.6L4.1 8.15M7.5 1.85L9.65 2L8.6 8.2L7.1 6.2L7.5 1.85" />
<path style="fill:#223374;fill-opacity:1" d="M-8.45 1Q-10.65 0.8 -11.75 -0.15Q-10.7 0 -8.6 -2.15L-5.9 -5.05Q-5.9 -4.7 -5.15 -3.9L-8.45 1M-5.1 3.35L-9.05 3.2L-4.1 -2.9L-2.25 -1.35L-5.1 3.35M0.4 5.8L-4.75 6.75L-0.4 -0.3L2.3 0.9L0.4 5.8M7.1 6.2L4.1 8.15L5.15 1.6L7.5 1.85L7.1 6.2" />
<path style="fill:none;stroke-width:0.7;stroke-linecap:round;stroke-linejoin:round;stroke-miterlimit:3;stroke:#000000;stroke-opacity:0.4" d="M-5.15 -3.9Q-5.9 -4.7 -5.9 -5.05L-8.6 -2.15Q-10.7 0 -11.75 -0.15Q-10.65 0.8 -8.45 1L-5.15 -3.9L-4.1 -2.9L-2.25 -1.35L-0.4 -0.3L2.3 0.9L5.15 1.6L7.5 1.85L9.65 2L8.6 8.2L7.1 6.2L4.1 8.15L3.6 8.35L0.4 5.8L-4.75 6.75L-5.1 3.35L-9.05 3.2L-8.45 1" />
<path style="fill:none;stroke-width:0.7;stroke-linecap:round;stroke-linejoin:round;stroke-miterlimit:3;stroke:#000000;stroke-opacity:0.4" d="M0.4 5.8L2.3 0.9" />
<path style="fill:none;stroke-width:0.7;stroke-linecap:round;stroke-linejoin:round;stroke-miterlimit:3;stroke:#000000;stroke-opacity:0.4" d="M7.1 6.2L7.5 1.85" />
<path style="fill:none;stroke-width:0.7;stroke-linecap:round;stroke-linejoin:round;stroke-miterlimit:3;stroke:#000000;stroke-opacity:0.4" d="M4.1 8.15L5.15 1.6" />
<path style="fill:none;stroke-width:0.7;stroke-linecap:round;stroke-linejoin:round;stroke-miterlimit:3;stroke:#000000;stroke-opacity:0.4" d="M-5.1 3.35L-2.25 -1.35" />
<path style="fill:none;stroke-width:0.7;stroke-linecap:round;stroke-linejoin:round;stroke-miterlimit:3;stroke:#000000;stroke-opacity:0.4" d="M-9.05 3.2L-4.1 -2.9" />
<path style="fill:none;stroke-width:0.7;stroke-linecap:round;stroke-linejoin:round;stroke-miterlimit:3;stroke:#000000;stroke-opacity:0.4" d="M-4.75 6.75L-0.4 -0.3" />
</g>
</svg>
