<?xml version="1.0" encoding="utf-8"?>
<svg version="1.1" id="Layer_1"
xmlns="http://www.w3.org/2000/svg"
xmlns:xlink="http://www.w3.org/1999/xlink"
width="14px" height="14px"
xml:space="preserve">
<g id="PathID_2589" transform="matrix(1, 0, 0, 1, 7, 6.85)">
<path style="fill:#FFF6EE;fill-opacity:1" d="M4.8 -4.55L5.55 -3.65L6.2 -2.5Q6.95 0.45 6.35 2.25L6.3 2.4L4.85 3.6Q3.25 4.75 0.9 3.9Q-1.45 3.05 -1.65 2.5Q-1.85 2 -1.25 0.15Q-0.45 -2.3 0.45 -3.55Q1.25 -4.7 3 -6Q3.85 -5.55 4.8 -4.55" />
<path style="fill:#100E0D;fill-opacity:1" d="M5.45 3.65Q3.9 5.2 1.25 5.15Q-3.65 4.5 -5.35 1.6L-3.7 1.75Q-3.1 1.35 -2.8 -1.1Q-2.55 -3.65 -0.15 -6.8L0 -6.8L-0.15 -6.85Q1.65 -6.6 3 -6Q1.25 -4.7 0.45 -3.55Q-0.45 -2.3 -1.25 0.15Q-1.85 2 -1.65 2.5Q-1.45 3.05 0.9 3.9Q3.25 4.75 4.85 3.6L6.3 2.4L5.45 3.65" />
<path style="fill:#000000;fill-opacity:1" d="M6.7 1.8Q6.3 3.75 4.8 5.15Q2.85 7 0 6.85Q-1.8 6.75 -3.25 5.9L-4.85 4.55Q-6.55 2.75 -6.8 0.45L-5.6 1.45L-5.35 1.6Q-3.65 4.5 1.25 5.15Q3.9 5.2 5.45 3.65L6.3 2.4L6.35 2.25L6.7 1.8" />
<path style="fill:#B1A59A;fill-opacity:1" d="M6.35 2.25Q6.95 0.45 6.2 -2.5Q6.8 -1.15 6.8 0.4L6.7 1.8L6.35 2.25" />
<path style="fill:#B86A2C;fill-opacity:1" d="M-6.25 -3.2L-5.4 -4.5Q-4.05 -5.9 -2.6 -6.5L-0.15 -6.8Q-2.55 -3.65 -2.8 -1.1Q-3.1 1.35 -3.7 1.75L-5.35 1.6Q-6.5 -0.3 -6.25 -3.2" />
<path style="fill:#83410D;fill-opacity:1" d="M-5.35 1.6L-5.6 1.45L-6.8 0.45L-6.85 -0.4Q-6.85 -1.95 -6.25 -3.2Q-6.5 -0.3 -5.35 1.6" />
<path style="fill:none;stroke-width:0.7;stroke-linecap:round;stroke-linejoin:miter;stroke-miterlimit:5;stroke:#000000;stroke-opacity:0.4" d="M6.2 -2.5L5.55 -3.65" />
<path style="fill:none;stroke-width:0.7;stroke-linecap:round;stroke-linejoin:miter;stroke-miterlimit:5;stroke:#000000;stroke-opacity:0.4" d="M6.2 -2.5Q6.8 -1.15 6.8 0.4L6.7 1.8Q6.3 3.75 4.8 5.15Q2.85 7 0 6.85Q-1.8 6.75 -3.25 5.9L-4.85 4.55Q-6.55 2.75 -6.8 0.45L-6.85 -0.4Q-6.85 -1.95 -6.25 -3.2L-5.4 -4.5Q-4.05 -5.9 -2.6 -6.5" />
</g>
</svg>
