<?xml version="1.0" encoding="utf-8"?>
<svg version="1.1" id="Layer_1"
xmlns="http://www.w3.org/2000/svg"
xmlns:xlink="http://www.w3.org/1999/xlink"
width="9px" height="8px"
xml:space="preserve">
<g id="PathID_2365" transform="matrix(1, 0, 0, 1, 4.3, 3.9)">
<path style="fill:#BBB6B4;fill-opacity:1" d="M3.45 -2.1L4 -1.6L4 -1.3L4.05 -1.25L4.1 -1.15Q3.4 -2 3.05 -1.55L2.85 -1.3L3.05 -1.55Q3.4 -2 4.1 -1.15L4.2 0Q3.25 -0.3 2.7 1.1Q3.25 -0.3 4.2 0L4.2 0.8Q2.85 3.05 1.95 2.6L-0.1 0.75Q-2.85 0.4 -3.7 -0.6L-3.8 -0.85Q-4.15 -2.25 -3.5 -3.1Q-2.2 -4 -0.9 -3.7Q0.65 -3.35 1.5 -2.3L1.6 -2.15L2.5 -1.15Q2.6 -1.1 2.85 -1.3Q3.05 -2.4 3.45 -2.1" />
<path style="fill:#78583A;fill-opacity:1" d="M4.05 -1.25L4.15 -1.1L4.1 -1.15L4.05 -1.25" />
<path style="fill:#79736E;fill-opacity:1" d="M-3.7 -0.6Q-2.85 0.4 -0.1 0.75L1.95 2.6Q2.85 3.05 4.2 0.8Q3.9 2.8 3.35 3.35L2.7 3.75Q2.05 3.9 1.3 3.3L0.15 2.5L-1.6 1.45Q-3.25 0.45 -3.55 -0.15L-3.7 -0.6" />
<path style="fill:none;stroke-width:0.7;stroke-linecap:round;stroke-linejoin:round;stroke-miterlimit:3;stroke:#000000;stroke-opacity:0.301961" d="M-3.8 -0.85L-3.7 -0.6" />
<path style="fill:none;stroke-width:0.7;stroke-linecap:round;stroke-linejoin:round;stroke-miterlimit:3;stroke:#000000;stroke-opacity:0.301961" d="M4.2 0.8L4.2 0Q3.25 -0.3 2.7 1.1" />
<path style="fill:none;stroke-width:0.7;stroke-linecap:round;stroke-linejoin:round;stroke-miterlimit:3;stroke:#000000;stroke-opacity:0.301961" d="M4.05 -1.25L4.15 -1.1L4.1 -1.15L4.2 0" />
<path style="fill:none;stroke-width:0.7;stroke-linecap:round;stroke-linejoin:round;stroke-miterlimit:3;stroke:#000000;stroke-opacity:0.301961" d="M4.1 -1.15Q3.4 -2 3.05 -1.55L2.85 -1.3Q2.6 -1.1 2.5 -1.15" />
<path style="fill:none;stroke-width:0.7;stroke-linecap:round;stroke-linejoin:round;stroke-miterlimit:3;stroke:#000000;stroke-opacity:0.301961" d="M4.1 -1.15L4.05 -1.25L4 -1.3L4 -1.6L3.45 -2.1Q3.05 -2.4 2.85 -1.3" />
<path style="fill:none;stroke-width:0.7;stroke-linecap:round;stroke-linejoin:round;stroke-miterlimit:3;stroke:#000000;stroke-opacity:0.301961" d="M4.2 0.8Q3.9 2.8 3.35 3.35L2.7 3.75Q2.05 3.9 1.3 3.3L0.15 2.5L-1.6 1.45Q-3.25 0.45 -3.55 -0.15L-3.7 -0.6" />
</g>
<g id="PathID_2366" transform="matrix(1, 0, 0, 1, 4.3, 3.9)">
<path style="fill:#FFF6EE;fill-opacity:1" d="M-3.6 0.35Q-4.7 -1.15 -4.05 -2.75Q-3.1 -4.45 0.6 -3.65L2.5 -1.5Q1.7 0.15 1.4 1.95L-3.6 0.35" />
<path style="fill:#BDB1A6;fill-opacity:1" d="M-3.6 0.35L1.4 1.95L1.2 3.65L-2.95 1.1L-3.6 0.35" />
<path style="fill:none;stroke-width:0.7;stroke-linecap:round;stroke-linejoin:round;stroke-miterlimit:3;stroke:#000000;stroke-opacity:0.4" d="M1.4 1.95Q1.7 0.15 2.5 -1.5L0.6 -3.65Q-3.1 -4.45 -4.05 -2.75Q-4.7 -1.15 -3.6 0.35" />
<path style="fill:none;stroke-width:0.7;stroke-linecap:round;stroke-linejoin:round;stroke-miterlimit:3;stroke:#000000;stroke-opacity:0.4" d="M1.4 1.95L1.2 3.65L-2.95 1.1L-3.6 0.35" />
</g>
<g id="PathID_2367" transform="matrix(1, 0, 0, 1, 4.3, 3.9)">
<path style="fill:none;stroke-width:0.7;stroke-linecap:round;stroke-linejoin:round;stroke-miterlimit:3;stroke:#354A9D;stroke-opacity:0.709804" d="M1.75 -2Q0.05 0.15 0.2 2.9" />
<path style="fill:none;stroke-width:0.7;stroke-linecap:round;stroke-linejoin:round;stroke-miterlimit:3;stroke:#354A9D;stroke-opacity:0.709804" d="M-0.95 2.25Q-1.15 -1.2 1.05 -2.75" />
</g>
</svg>
