<?xml version="1.0" encoding="utf-8"?>
<svg version="1.1" id="Layer_1"
xmlns="http://www.w3.org/2000/svg"
xmlns:xlink="http://www.w3.org/1999/xlink"
width="25px" height="25px"
xml:space="preserve">
<g id="PathID_2414" transform="matrix(1, 0, 0, 1, 12.35, 12.75)">
<path style="fill:#15130F;fill-opacity:1" d="M-0.15 -8.3Q-0.05 -9.3 2.35 -11.15L1.6 -10.15Q1.45 -9.6 1.8 -9.65L-0.15 -8.3M-2.45 -8L-1.95 -9.75Q-1.6 -11.15 -3 -12.5Q-0.75 -11.15 -1.3 -9.85L-2.45 -8" />
<path style="fill:#322E23;fill-opacity:1" d="M-1.3 -9.85Q-0.45 -11.3 2.35 -11.15Q-0.05 -9.3 -0.15 -8.3L1.8 -9.65Q3.2 -8.5 4.2 -6.4L-5.45 -7L-4.75 -7.8Q-2.2 -10.1 -3 -12.5Q-1.6 -11.15 -1.95 -9.75L-2.45 -8L-1.3 -9.85" />
<radialGradient
id="RadialGradID_539" gradientUnits="userSpaceOnUse" gradientTransform="matrix(0.0170898, 0, 0, 0.0170898, 10.15, 0.6)" spreadMethod ="pad" cx="0" cy="0" r="819.2" fx="9" fy="0" >
<stop  offset="0.117647"  style="stop-color:#F3CAA5;stop-opacity:1" />
<stop  offset="0.537255"  style="stop-color:#EEE8DA;stop-opacity:1" />
</radialGradient>
<path style="fill:url(#RadialGradID_539) " d="M6.5 2.95L5.4 3.1L4.15 3.95L-2.45 3.6Q-7.65 0.6 -7 -2.4L-6.15 -6.2L-5.45 -7L4.2 -6.4Q3.2 -8.5 1.8 -9.65Q4.95 -9.85 7.15 -7.2L9.25 -3.75L9.95 -2.4L10.8 -1.55L11.9 -0.7Q10.1 1.75 6.5 2.95" />
<radialGradient
id="RadialGradID_540" gradientUnits="userSpaceOnUse" gradientTransform="matrix(0.0135498, 0, 0, 0.0135498, 10.4, 0.25)" spreadMethod ="pad" cx="0" cy="0" r="819.2" fx="9" fy="0" >
<stop  offset="0.117647"  style="stop-color:#BF9977;stop-opacity:1" />
<stop  offset="0.537255"  style="stop-color:#998675;stop-opacity:1" />
</radialGradient>
<path style="fill:url(#RadialGradID_540) " d="M11.9 -0.7L12.1 0.7Q11.95 2.95 9.6 4.7Q6.05 7.15 4.55 7.55L2.5 8.25Q-0.95 6.4 -3 5.9Q-5.15 5.4 -6.45 4.05L-7.3 2.6Q-7.8 1.35 -7.75 -0.65Q-7.7 -4 -6.15 -6.2L-7 -2.4Q-7.65 0.6 -2.45 3.6L4.15 3.95L5.4 3.1L6.5 2.95Q10.1 1.75 11.9 -0.7" />
<path style="fill:none;stroke-width:0.7;stroke-linecap:round;stroke-linejoin:miter;stroke-miterlimit:5;stroke:#000000;stroke-opacity:0.4" d="M2.35 -11.15L1.6 -10.15Q1.45 -9.6 1.8 -9.65Q4.95 -9.85 7.15 -7.2L9.25 -3.75L9.95 -2.4L10.8 -1.55L11.9 -0.7L12.1 0.7Q11.95 2.95 9.6 4.7Q6.05 7.15 4.55 7.55" />
<path style="fill:none;stroke-width:0.7;stroke-linecap:round;stroke-linejoin:miter;stroke-miterlimit:5;stroke:#000000;stroke-opacity:0.4" d="M-3 5.9Q-5.15 5.4 -6.45 4.05L-7.3 2.6Q-7.8 1.35 -7.75 -0.65Q-7.7 -4 -6.15 -6.2L-5.45 -7L-4.75 -7.8Q-2.2 -10.1 -3 -12.5Q-0.75 -11.15 -1.3 -9.85Q-0.45 -11.3 2.35 -11.15" />
</g>
<g id="PathID_2415" transform="matrix(1, 0, 0, 1, 12.35, 12.75)">
<path style="fill:none;stroke-width:0.7;stroke-linecap:round;stroke-linejoin:miter;stroke-miterlimit:5;stroke:#000000;stroke-opacity:0.501961" d="M4.25 2.8Q-5.05 2.95 -12.1 7.9" />
</g>
<g id="PathID_2416" transform="matrix(1, 0, 0, 1, 12.35, 12.75)">
<path style="fill:none;stroke-width:0.7;stroke-linecap:round;stroke-linejoin:miter;stroke-miterlimit:5;stroke:#000000;stroke-opacity:0.501961" d="M5.75 3.75Q-2 5.95 -6.8 11.65" />
</g>
<g id="PathID_2417" transform="matrix(1, 0, 0, 1, 12.35, 12.75)">
<path style="fill:#FFE4C9;fill-opacity:1" d="M9.5 -0.35Q10.35 -0.85 11.25 -0.8Q10.9 0.35 9.5 -0.35" />
<path style="fill:#ECC298;fill-opacity:1" d="M10.15 0.6Q9.15 0.6 9 -0.05L9.5 -0.35Q10.9 0.35 11.25 -0.8L11.55 -0.8L11.9 -0.15Q11 0.95 11.25 1.3L10.75 1.6Q10.95 1 10.15 0.6" />
<path style="fill:#9A7249;fill-opacity:1" d="M9 -0.05Q9.15 0.6 10.15 0.6Q10.95 1 10.75 1.6L10.4 1.75Q10.05 0.6 9.05 0.9L8.7 0.2L9 -0.05" />
<path style="fill:none;stroke-width:0.7;stroke-linecap:round;stroke-linejoin:round;stroke-miterlimit:3;stroke:#000000;stroke-opacity:0.301961" d="M10.75 1.6L11.25 1.3Q11 0.95 11.9 -0.15L11.55 -0.8L11.25 -0.8" />
<path style="fill:none;stroke-width:0.7;stroke-linecap:round;stroke-linejoin:round;stroke-miterlimit:3;stroke:#000000;stroke-opacity:0.301961" d="M9.5 -0.35L9 -0.05" />
<path style="fill:none;stroke-width:0.7;stroke-linecap:round;stroke-linejoin:round;stroke-miterlimit:3;stroke:#000000;stroke-opacity:0.301961" d="M10.75 1.6L10.4 1.75Q10.05 0.6 9.05 0.9L8.7 0.2L9 -0.05" />
<path style="fill:none;stroke-width:0.7;stroke-linecap:round;stroke-linejoin:round;stroke-miterlimit:3;stroke:#000000;stroke-opacity:0.301961" d="M11.25 -0.8Q10.35 -0.85 9.5 -0.35" />
</g>
</svg>
