<?xml version="1.0" encoding="utf-8"?>
<svg version="1.1" id="Layer_1"
xmlns="http://www.w3.org/2000/svg"
xmlns:xlink="http://www.w3.org/1999/xlink"
width="19px" height="16px"
xml:space="preserve">
<g id="PathID_1857" transform="matrix(1, 0, 0, 1, 8.1, 7.5)">
<path style="fill:#C29A77;fill-opacity:1" d="M3.15 4.15L2.25 4L-0.15 3.45Q-3 2.55 -4.6 0.95L-5 0.55L-5.8 -0.75Q-6.35 -1.9 -6.25 -3.2L-5.05 -4.85L-2.6 -6.5L-0.15 -6.8Q1.9 -6.75 3 -5.95L4.55 -4.75Q5.7 -3.65 6.15 -2.55Q7 -0.4 7 3.6L3.15 4.15" />
<path style="fill:#916B4A;fill-opacity:1" d="M-6.25 -3.2Q-6.35 -1.9 -5.8 -0.75L-5 0.55L-4.6 0.95Q-3 2.55 -0.15 3.45L2.25 4L3.15 4.15L7 3.6L7.65 4.7Q8.7 5.95 10.65 6.65L6.25 6.7L2.8 6.7L1.15 6.6L0.9 6.6L-3.05 5.9Q-6.05 5.1 -6.65 3.75Q-7.25 2.35 -7.15 0.75L-7.05 -0.5L-7.05 -0.55Q-6.85 -2 -6.25 -3.2" />
<path style="fill:none;stroke-width:0.7;stroke-linecap:round;stroke-linejoin:miter;stroke-miterlimit:5;stroke:#000000;stroke-opacity:0.4" d="M-2.6 -6.5L-5.05 -4.85L-6.25 -3.2" />
<path style="fill:none;stroke-width:0.7;stroke-linecap:round;stroke-linejoin:miter;stroke-miterlimit:5;stroke:#000000;stroke-opacity:0.4" d="M1.15 6.6L0.9 6.6L-3.05 5.9Q-6.05 5.1 -6.65 3.75Q-7.25 2.35 -7.15 0.75L-7.05 -0.5L-7.05 -0.55Q-6.85 -2 -6.25 -3.2" />
</g>
<g id="PathID_1858" transform="matrix(1, 0, 0, 1, 8.1, 7.5)">
<path style="fill:#E0E0E0;fill-opacity:1" d="M2.8 -7.5Q8.45 -3.7 8.5 3.5L10.25 6.25Q1.9 2.55 -1.95 -0.7Q-0.95 -3.55 0.95 -5.95L2.35 -7.5L2.8 -7.5" />
<path style="fill:#B3B8BB;fill-opacity:1" d="M-5.2 -5.3L-5.15 -5.35Q-2.4 -7.75 2.35 -7.5L0.95 -5.95Q-0.95 -3.55 -1.95 -0.7Q-4.75 -3.15 -5.2 -5.3" />
<path style="fill:#399598;fill-opacity:1" d="M-2.75 2.15Q-6.05 -0.1 -7.45 -2.2Q-6.65 -4.35 -5.2 -5.3Q-4.75 -3.15 -1.95 -0.7L-2.75 2.15" />
<path style="fill:#CD9D31;fill-opacity:1" d="M-2.75 2.15L-3.05 4.1Q-6 2.3 -8.1 0.35L-7.45 -2.2Q-6.05 -0.1 -2.75 2.15" />
<path style="fill:#FFC84D;fill-opacity:1" d="M-2.75 2.15L1.5 4.7L2.1 4.15L0.05 3.25L0.95 2.3L4.35 4.3L3.3 5.6Q5.1 6.55 7.25 7.5L5.15 8.1Q0.45 6.25 -3.05 4.1L-2.75 2.15" />
<path style="fill:#4EB7BA;fill-opacity:1" d="M7.25 7.5Q5.1 6.55 3.3 5.6L4.35 4.3L0.95 2.3L0.05 3.25L2.1 4.15L1.5 4.7L-2.75 2.15L-1.95 -0.7Q1.9 2.55 10.25 6.25L7.25 7.5" />
<path style="fill:none;stroke-width:0.7;stroke-linecap:round;stroke-linejoin:round;stroke-miterlimit:3;stroke:#000000;stroke-opacity:0.4" d="M-5.15 -5.35L-5.2 -5.3" />
<path style="fill:none;stroke-width:0.7;stroke-linecap:round;stroke-linejoin:round;stroke-miterlimit:3;stroke:#000000;stroke-opacity:0.4" d="M5.15 8.1Q0.45 6.25 -3.05 4.1Q-6 2.3 -8.1 0.35" />
<path style="fill:none;stroke-width:0.7;stroke-linecap:round;stroke-linejoin:round;stroke-miterlimit:3;stroke:#000000;stroke-opacity:0.4" d="M-5.2 -5.3L-5.2 -5.35L-5.15 -5.35" />
</g>
</svg>
