<?xml version="1.0" encoding="utf-8"?>
<svg version="1.1" id="Layer_1"
xmlns="http://www.w3.org/2000/svg"
xmlns:xlink="http://www.w3.org/1999/xlink"
width="11px" height="8px"
xml:space="preserve">
<g id="PathID_2156" transform="matrix(1, 0, 0, 1, 4.4, 4.2)">
<linearGradient
id="LinearGradID_527" gradientUnits="userSpaceOnUse" gradientTransform="matrix(0.00109863, 0.000854492, -0.00315857, 0.0040741, 0.9, 1.05)" spreadMethod ="pad" x1="-819.2" y1="0" x2="819.2" y2="0" >
<stop  offset="0" style="stop-color:#48453C;stop-opacity:1" />
<stop  offset="1" style="stop-color:#716861;stop-opacity:1" />
</linearGradient>
<path style="fill:url(#LinearGradID_527) " d="M2.4 -0.75L3.05 -0.05L4 0.45L4.85 0.75Q7.1 0.4 5.8 1.75L5.75 1.3L5.05 2.45Q4.25 1 2.4 1.85L3.55 3.1L1 2.95L-1.45 1.25Q-3.15 0.2 -3.7 -1.1Q-4.1 -2.7 -3.2 -3.55Q-2.4 -4.4 -0.8 -4Q0.75 -3.6 1.35 -2.6L2.4 -0.75M2.4 1.85Q4.25 1 5.05 2.45M5.75 1.3Q5.65 0.9 4.85 0.75L4 0.45M4.85 0.75Q5.65 0.9 5.75 1.3L5.8 1.75" />
<path style="fill:none;stroke-width:0.7;stroke-linecap:round;stroke-linejoin:round;stroke-miterlimit:3;stroke:#000000;stroke-opacity:0.301961" d="M2.4 -0.75L3.05 -0.05L4 0.45Q7.1 0.4 5.8 1.75L5.05 2.45L3.55 3.1L1 2.95L-1.45 1.25Q-3.15 0.2 -3.7 -1.1" />
<path style="fill:none;stroke-width:0.7;stroke-linecap:round;stroke-linejoin:round;stroke-miterlimit:3;stroke:#000000;stroke-opacity:0.301961" d="M5.05 2.45Q4.25 1 2.4 1.85" />
<path style="fill:none;stroke-width:0.7;stroke-linecap:round;stroke-linejoin:round;stroke-miterlimit:3;stroke:#000000;stroke-opacity:0.301961" d="M4 0.45L4.85 0.75Q5.65 0.9 5.75 1.3L5.8 1.75" />
</g>
<g id="PathID_2157" transform="matrix(1, 0, 0, 1, 4.4, 4.2)">
<path style="fill:#543E19;fill-opacity:1" d="M-1.3 2.3Q-6 -0.7 -3.6 -3.55Q-0.5 -5.65 2.5 -1.2Q1.1 -0.95 -1.3 2.3" />
<path style="fill:none;stroke-width:0.7;stroke-linecap:round;stroke-linejoin:round;stroke-miterlimit:3;stroke:#000000;stroke-opacity:0.4" d="M-1.3 2.3Q1.1 -0.95 2.5 -1.2" />
</g>
<g id="PathID_2158" transform="matrix(1, 0, 0, 1, 4.4, 4.2)">
<path style="fill:#E3C990;fill-opacity:1" d="M3.1 -3.1L2.4 -0.95L1.55 -1.15L1.8 0L0.8 -0.5L0.7 0.8L-0.9 1.25Q-0.9 2.2 -1.35 3.2L-1.75 1.7L-2.95 2.25L-2.75 1.5L-2.7 0.85L-2.75 0.7L-2.95 0.65L-3 0.55L-2.9 0.55L-2.65 0.45L-1.7 0.1L-2.1 -0.65L-1.45 -0.75L-1.45 -1.8L0.9 -1.85L0.8 -3L2.3 -2.45L3.1 -3.1" />
<path style="fill:#AF965E;fill-opacity:1" d="M-0.9 1.25L0.7 0.8L0.8 -0.5L1.8 0L1.55 -1.15L2.4 -0.95L3.1 -3.1L2.95 -1L3.85 -0.55L2.2 -0.45L2.75 0.85L1.45 0.65L1.25 1.6L0.4 1.55L0.4 3.05L-0.4 2.25L-1.35 3.2Q-0.9 2.2 -0.9 1.25" />
<path style="fill:none;stroke-width:0.7;stroke-linecap:round;stroke-linejoin:round;stroke-miterlimit:3;stroke:#000000;stroke-opacity:0.4" d="M-1.35 3.2L-0.4 2.25L0.4 3.05L0.4 1.55L1.25 1.6L1.45 0.65L2.75 0.85L2.2 -0.45L3.85 -0.55L2.95 -1L3.1 -3.1" />
<path style="fill:none;stroke-width:0.7;stroke-linecap:round;stroke-linejoin:round;stroke-miterlimit:3;stroke:#000000;stroke-opacity:0.4" d="M-1.35 3.2L-1.75 1.7L-2.95 2.25L-2.75 1.5L-2.7 0.85L-2.75 0.7L-2.95 0.65L-3 0.55L-2.9 0.55L-2.65 0.45L-1.7 0.1L-2.1 -0.65L-1.45 -0.75L-1.45 -1.8L0.9 -1.85L0.8 -3L2.3 -2.45L3.1 -3.1" />
<path style="fill:none;stroke-width:0.7;stroke-linecap:round;stroke-linejoin:round;stroke-miterlimit:3;stroke:#000000;stroke-opacity:0.4" d="M0.4 3.05L0.45 3.05L0.45 3.1L0.4 3.05z" />
</g>
</svg>
