<?xml version="1.0" encoding="utf-8"?>
<svg version="1.1" id="Layer_1"
xmlns="http://www.w3.org/2000/svg"
xmlns:xlink="http://www.w3.org/1999/xlink"
width="14px" height="14px"
xml:space="preserve">
<g id="PathID_1315" transform="matrix(1, 0, 0, 1, 7, 6.8)">
<path style="fill:#120F0D;fill-opacity:1" d="M-5.85 0.7Q-4.4 4.4 0.2 5.1Q2.5 5.45 4.65 2.7Q5.7 1.35 6.35 -1.2L6.2 -2.5Q6.8 -1.15 6.8 0.4Q6.8 2.7 5.5 4.4L4.1 5.8Q2.3 7.05 0 6.85L-0.1 6.85Q-5.25 6.25 -6.55 1.7Q-7 0 -6.75 -1.55L-6.4 -2.8Q-6.6 -1.1 -5.85 0.7" />
<path style="fill:#2A221D;fill-opacity:1" d="M-6.4 -2.8L-6.35 -2.9L-5.6 -4.4Q-4.45 -6.05 -2.6 -6.5L0 -6.8Q2.15 -6.6 3.75 -5.45L4.95 -4.35L5.85 -3.2L6.2 -2.5L6.35 -1.2Q5.7 1.35 4.65 2.7Q2.5 5.45 0.2 5.1Q-4.4 4.4 -5.85 0.7Q-6.6 -1.1 -6.4 -2.8" />
<path style="fill:none;stroke-width:0.7;stroke-linecap:round;stroke-linejoin:miter;stroke-miterlimit:5;stroke:#000000;stroke-opacity:0.4" d="M4.95 -4.35L5.85 -3.2L6.2 -2.5Q6.8 -1.15 6.8 0.4Q6.8 2.7 5.5 4.4L4.1 5.8Q2.3 7.05 0 6.85L-0.1 6.85Q-5.25 6.25 -6.55 1.7Q-7 0 -6.75 -1.55L-6.4 -2.8" />
<path style="fill:none;stroke-width:0.7;stroke-linecap:round;stroke-linejoin:miter;stroke-miterlimit:5;stroke:#000000;stroke-opacity:0.4" d="M-6.35 -2.9L-5.6 -4.4Q-4.45 -6.05 -2.6 -6.5" />
</g>
<g id="PathID_1316" transform="matrix(1, 0, 0, 1, 7, 6.8)">
<path style="fill:#FFF0E9;fill-opacity:1" d="M3.25 -1.45Q2.95 -0.35 2.45 0.15L0.65 0.2Q-0.65 -0.3 -0.55 -1.4Q-0.5 -2.55 0.25 -3.35Q0.95 -4.2 2.3 -4.3L4.4 -4.15L5.75 -3.2L6.45 -1.75Q5.85 -2.75 4.7 -2.65Q3.5 -2.55 3.25 -1.45" />
</g>
</svg>
