<?xml version="1.0" encoding="utf-8"?>
<svg version="1.1" id="Layer_1"
xmlns="http://www.w3.org/2000/svg"
xmlns:xlink="http://www.w3.org/1999/xlink"
width="7px" height="5px"
xml:space="preserve">
<g id="PathID_1269" transform="matrix(1, 0, 0, 1, 2.15, 2.6)">
<path style="fill:#FFFFFF;fill-opacity:1" d="M1.45 -0.45L0.95 -0.05L-0.4 -0.15Q-0.8 -0.35 -0.7 -0.95L-0.45 -1.7L1.45 -0.45M-1.2 1.1Q-1.2 0.75 -0.5 0.65Q0.15 0.55 0.15 1.05Q0.15 1.5 -0.55 1.5Q-1.25 1.5 -1.2 1.1" />
<path style="fill:#000000;fill-opacity:0.4" d="M-1.7 -1.2L-1.85 -1.05L-1.95 -2.6L-0.45 -1.7L-1.7 -1.2M2.2 0L3.05 0.6L1.55 1.5Q2.2 0.85 2.2 0" />
<path style="fill:#1E252E;fill-opacity:1" d="M2.2 0Q2.2 0.85 1.55 1.5L1.45 1.65L0.9 2L0 2.15Q-0.9 2.15 -1.55 1.5Q-2.15 0.85 -2.15 0L-1.85 -1.05L-1.7 -1.2L-0.45 -1.7L-0.7 -0.95Q-0.8 -0.35 -0.4 -0.15L0.95 -0.05L1.45 -0.45L2.2 0M-0.55 1.5Q0.15 1.5 0.15 1.05Q0.15 0.55 -0.5 0.65Q-1.2 0.75 -1.2 1.1Q-1.25 1.5 -0.55 1.5" />
<path style="fill:none;stroke-width:0.7;stroke-linecap:round;stroke-linejoin:round;stroke-miterlimit:3;stroke:#000000;stroke-opacity:0.301961" d="M1.45 -0.45L-0.45 -1.7L-1.95 -2.6" />
<path style="fill:none;stroke-width:0.7;stroke-linecap:round;stroke-linejoin:round;stroke-miterlimit:3;stroke:#000000;stroke-opacity:0.301961" d="M-1.85 -1.05L-1.7 -1.2L-0.45 -1.7" />
<path style="fill:none;stroke-width:0.7;stroke-linecap:round;stroke-linejoin:round;stroke-miterlimit:3;stroke:#000000;stroke-opacity:0.301961" d="M1.55 1.5L1.45 1.65L0.9 2L0 2.15Q-0.9 2.15 -1.55 1.5Q-2.15 0.85 -2.15 0L-1.85 -1.05" />
<path style="fill:none;stroke-width:0.7;stroke-linecap:round;stroke-linejoin:round;stroke-miterlimit:3;stroke:#000000;stroke-opacity:0.301961" d="M3.05 0.6L2.2 0Q2.2 0.85 1.55 1.5" />
<path style="fill:none;stroke-width:0.7;stroke-linecap:round;stroke-linejoin:round;stroke-miterlimit:3;stroke:#000000;stroke-opacity:0.301961" d="M3.05 0.6Q4.25 0.5 3.9 -0.6" />
<path style="fill:none;stroke-width:0.7;stroke-linecap:round;stroke-linejoin:round;stroke-miterlimit:3;stroke:#000000;stroke-opacity:0.301961" d="M1.45 -0.45L2.2 0" />
</g>
</svg>
