<?xml version="1.0" encoding="utf-8"?>
<svg version="1.1" id="Layer_1"
xmlns="http://www.w3.org/2000/svg"
xmlns:xlink="http://www.w3.org/1999/xlink"
width="23px" height="50px"
xml:space="preserve">
<g id="PathID_1372" transform="matrix(1, 0, 0, 1, 14.25, 30.05)">
<path style="fill:#69A20E;fill-opacity:1" d="M-2.95 0.9Q0.35 -11.65 -8.1 -19.05Q2.3 -14.35 -0.45 0.75Q-1.2 10.85 6.95 13.7Q8.15 15.35 8.1 16.55Q0.9 15.7 -0.9 12.4Q-4.15 6.55 -2.95 0.9" />
<path style="fill:#42600A;fill-opacity:1" d="M-0.9 12.4Q0.9 15.7 8.1 16.55Q8.05 18.15 5.75 19Q-6.35 15.3 -3.25 1.8L-2.95 0.9Q-4.15 6.55 -0.9 12.4" />
<path style="fill:none;stroke-width:0.7;stroke-linecap:round;stroke-linejoin:miter;stroke-miterlimit:5;stroke:#000000;stroke-opacity:0.4" d="M8.1 16.55Q8.05 18.15 5.75 19Q-6.35 15.3 -3.25 1.8L-2.95 0.9Q0.35 -11.65 -8.1 -19.05Q2.3 -14.35 -0.45 0.75Q-1.2 10.85 6.95 13.7Q8.15 15.35 8.1 16.55z" />
</g>
<g id="PathID_1373" transform="matrix(1, 0, 0, 1, 14.25, 30.05)">
<path style="fill:#57850D;fill-opacity:1" d="M-0.25 -14.9L0.55 -13.4Q2.2 -8.9 0.35 -4.95L0.05 -7.35Q0.8 -9.7 -0.25 -14.9M-6.3 -16.9L-5.15 -16.2L-2.35 -12.65L-1.75 -11.65Q-0.8 -10.15 -0.25 -8.45Q-1.9 -10.6 -4.45 -11.8Q-2.2 -11.7 -6.3 -16.9" />
<path style="fill:#69A20E;fill-opacity:1" d="M-4.45 -11.8Q-5.95 -12.55 -7.8 -12.95Q-5.95 -12.55 -4.45 -11.8Q-1.9 -10.6 -0.25 -8.45L0.05 -7.35L0.35 -4.95Q0.45 -3.55 -0.3 -0.95Q-1 -3 -2.1 -3.6Q-4.35 -6.25 -8.15 -8.3Q-13.65 -11.3 -14.15 -19.15Q-14.7 -27 -11.45 -30.05Q-12.65 -25.3 -8.05 -20.95Q-2.25 -17.85 -0.25 -14.9Q0.8 -9.7 0.05 -7.35L-0.25 -8.45Q-0.8 -10.15 -1.75 -11.65L-2.35 -12.65L-5.15 -16.2L-6.3 -16.9Q-2.2 -11.7 -4.45 -11.8M-3.1 -15.5Q-3.1 -14.3 -2.35 -12.65Q-3.1 -14.3 -3.1 -15.5M-11.65 -23.45Q-11.3 -21.55 -7.75 -18.65L-5.15 -16.2L-7.75 -18.65Q-11.3 -21.55 -11.65 -23.45M-10.45 -18.3Q-8.55 -18.1 -6.3 -16.9Q-8.55 -18.1 -10.45 -18.3" />
<path style="fill:none;stroke-width:0.7;stroke-linecap:round;stroke-linejoin:round;stroke-miterlimit:3;stroke:#000000;stroke-opacity:0.4" d="M0.35 -4.95L0.05 -7.35L-0.25 -8.45Q-1.9 -10.6 -4.45 -11.8Q-5.95 -12.55 -7.8 -12.95" />
<path style="fill:none;stroke-width:0.7;stroke-linecap:round;stroke-linejoin:round;stroke-miterlimit:3;stroke:#000000;stroke-opacity:0.4" d="M-0.25 -14.9L0.55 -13.4Q2.2 -8.9 0.35 -4.95Q0.45 -3.55 -0.3 -0.95" />
<path style="fill:none;stroke-width:0.7;stroke-linecap:round;stroke-linejoin:round;stroke-miterlimit:3;stroke:#000000;stroke-opacity:0.4" d="M-2.1 -3.6Q-4.35 -6.25 -8.15 -8.3Q-13.65 -11.3 -14.15 -19.15Q-14.7 -27 -11.45 -30.05Q-12.65 -25.3 -8.05 -20.95Q-2.25 -17.85 -0.25 -14.9" />
<path style="fill:none;stroke-width:0.7;stroke-linecap:round;stroke-linejoin:round;stroke-miterlimit:3;stroke:#000000;stroke-opacity:0.4" d="M-0.25 -8.45Q-0.8 -10.15 -1.75 -11.65L-2.35 -12.65L-5.15 -16.2L-6.3 -16.9" />
<path style="fill:none;stroke-width:0.7;stroke-linecap:round;stroke-linejoin:round;stroke-miterlimit:3;stroke:#000000;stroke-opacity:0.4" d="M-2.35 -12.65Q-3.1 -14.3 -3.1 -15.5" />
<path style="fill:none;stroke-width:0.7;stroke-linecap:round;stroke-linejoin:round;stroke-miterlimit:3;stroke:#000000;stroke-opacity:0.4" d="M-5.15 -16.2L-7.75 -18.65Q-11.3 -21.55 -11.65 -23.45" />
<path style="fill:none;stroke-width:0.7;stroke-linecap:round;stroke-linejoin:round;stroke-miterlimit:3;stroke:#000000;stroke-opacity:0.4" d="M-6.3 -16.9Q-8.55 -18.1 -10.45 -18.3" />
</g>
</svg>
