<?xml version="1.0" encoding="utf-8"?>
<svg version="1.1" id="Layer_1"
xmlns="http://www.w3.org/2000/svg"
xmlns:xlink="http://www.w3.org/1999/xlink"
width="14px" height="14px"
xml:space="preserve">
<g id="PathID_2434" transform="matrix(1, 0, 0, 1, 7, 6.8)">
<path style="fill:#EFE7DA;fill-opacity:1" d="M5.5 2.3Q3.85 4.95 0.25 5.1L0.2 5.1Q-3.85 4.5 -5.35 1.85Q-6.7 -0.55 -6.45 -2.35Q-3.6 -5.5 4.8 -4.55L6.2 -2.5Q6.85 0 5.5 2.3" />
<path style="fill:#322E23;fill-opacity:1" d="M-6.45 -2.35L-6.25 -3.2Q-5.8 -4.45 -4.4 -5.45Q-3.5 -6.15 -2.6 -6.5L0.55 -6.8Q2.5 -6.8 4.8 -4.55Q-3.6 -5.5 -6.45 -2.35" />
<path style="fill:#988777;fill-opacity:1" d="M-6.45 -2.35Q-6.7 -0.55 -5.35 1.85Q-3.85 4.5 0.2 5.1L0.25 5.1Q3.85 4.95 5.5 2.3Q6.85 0 6.2 -2.5Q6.8 -1.15 6.8 0.4Q6.8 2.7 5.5 4.4L3.95 5.8Q2.05 7.1 0 6.85Q-6 6.05 -6.75 0.7L-6.85 -0.4Q-6.85 -1.95 -6.25 -3.2L-6.45 -2.35" />
<path style="fill:none;stroke-width:0.7;stroke-linecap:round;stroke-linejoin:miter;stroke-miterlimit:5;stroke:#000000;stroke-opacity:0.4" d="M4.8 -4.55L6.2 -2.5Q6.8 -1.15 6.8 0.4Q6.8 2.7 5.5 4.4L3.95 5.8Q2.05 7.1 0 6.85Q-6 6.05 -6.75 0.7L-6.85 -0.4Q-6.85 -1.95 -6.25 -3.2Q-5.8 -4.45 -4.4 -5.45Q-3.5 -6.15 -2.6 -6.5" />
</g>
<g id="PathID_2435" transform="matrix(1, 0, 0, 1, 7, 6.8)">
<path style="fill:#322E23;fill-opacity:1" d="M-2.1 -2.8L-2.1 -2.15L-0.6 -1.95L-0.6 -1.45L-2.1 -1.65Q-2.35 0.05 -2.15 1.7L-2.2 1.9Q-2.15 2.4 -2.55 2.6Q-3.05 2.95 -3.65 2.9Q-4.25 2.8 -4.7 2.4L-5.15 1.55Q-5.1 1.05 -4.7 0.8L-3.6 0.5L-2.85 0.8L-2.65 -3.7Q-1.4 -4.4 -0.15 -3.35Q0.25 -2.9 0.6 -3L-0.7 -2.9L-2.1 -2.8" />
</g>
</svg>
