<?xml version="1.0" encoding="utf-8"?>
<svg version="1.1" id="Layer_1"
xmlns="http://www.w3.org/2000/svg"
xmlns:xlink="http://www.w3.org/1999/xlink"
width="22px" height="21px"
xml:space="preserve">
<g id="PathID_1898" transform="matrix(1, 0, 0, 1, 9.55, 9.95)">
<path style="fill:#FFFFFF;fill-opacity:1" d="M8.6 -5.05Q9.4 -4.75 9.4 -3.7Q9.4 -3.3 8.3 -3Q9.2 -2.45 9.05 -1.6Q9 -1.2 8.7 -1.15L7.7 -1.05Q6.05 8.05 -1.4 7.3Q-0.85 7.3 1.1 4.8Q3 2.3 2.7 -1.2Q2.45 -3.5 2.8 -5L3.2 -6.15L3.35 -6.4L4.25 -7.4L5.55 -8.55L6.7 -9.15Q7.85 -8.8 8.6 -6.95L9.1 -5.15L8.6 -5.05" />
<path style="fill:#4B8998;fill-opacity:1" d="M-1.95 -7.6L0.2 -9.15Q2.05 -10.15 3.95 -9.9L6.7 -9.15L5.55 -8.55L4.25 -7.4L3.35 -6.4L3.2 -6.15Q0.8 -4.75 -0.9 -5.4Q-2.65 -6.05 -1.95 -7.6" />
<linearGradient
id="LinearGradID_494" gradientUnits="userSpaceOnUse" gradientTransform="matrix(-0.000289917, -0.00468445, 0.0104523, -0.000656128, -0.7, -7.6)" spreadMethod ="pad" x1="-819.2" y1="0" x2="819.2" y2="0" >
<stop  offset="0" style="stop-color:#78C9E4;stop-opacity:1" />
<stop  offset="1" style="stop-color:#9FE7FF;stop-opacity:1" />
</linearGradient>
<path style="fill:url(#LinearGradID_494) " d="M-7.85 -2.15L-3.5 -6.25L-1.95 -7.6Q-2.65 -6.05 -0.9 -5.4Q0.8 -4.75 3.2 -6.15L2.8 -5Q2.45 -3.5 2.7 -1.2Q3 2.3 1.1 4.8Q-0.85 7.3 -1.4 7.3Q-5.35 7.25 -7.45 4Q-9.45 0.85 -7.85 -2.15" />
<path style="fill:#91A0A3;fill-opacity:1" d="M-1.4 7.3Q6.05 8.05 7.7 -1.05L8.7 -1.15Q9 -1.2 9.05 -1.6Q9.2 -2.45 8.3 -3Q9.4 -3.3 9.4 -3.7Q9.4 -4.75 8.6 -5.05L9.1 -5.15L10.2 -5.15Q11.35 -4.95 11.4 -3.85Q11.45 -2.85 9.55 -2.55Q10.95 -2.2 10.8 -0.95Q10.65 0.35 9.05 -0.05L8.65 4.05Q8.5 7.05 5.45 8.75Q2.4 10.45 -1.15 10.15Q-2.95 10 -4.45 9.25Q-2.65 8.45 -1.4 7.3M8.3 -0.5L9.05 -0.05L8.3 -0.5" />
<path style="fill:#2A5762;fill-opacity:1" d="M-7.45 4Q-5.35 7.25 -1.4 7.3Q-2.65 8.45 -4.45 9.25L-7.2 7.25Q-9.65 4.65 -9.4 1.9Q-9.25 0.05 -7.85 -2.15Q-9.45 0.85 -7.45 4" />
<path style="fill:none;stroke-width:0.7;stroke-linecap:round;stroke-linejoin:miter;stroke-miterlimit:5;stroke:#000000;stroke-opacity:0.4" d="M9.1 -5.15L8.6 -6.95Q7.85 -8.8 6.7 -9.15" />
<path style="fill:none;stroke-width:0.7;stroke-linecap:round;stroke-linejoin:miter;stroke-miterlimit:5;stroke:#000000;stroke-opacity:0.4" d="M8.6 -5.05L9.1 -5.15L10.2 -5.15Q11.35 -4.95 11.4 -3.85Q11.45 -2.85 9.55 -2.55Q10.95 -2.2 10.8 -0.95Q10.65 0.35 9.05 -0.05L8.65 4.05Q8.5 7.05 5.45 8.75Q2.4 10.45 -1.15 10.15Q-2.95 10 -4.45 9.25L-7.2 7.25Q-9.65 4.65 -9.4 1.9Q-9.25 0.05 -7.85 -2.15L-3.5 -6.25L-1.95 -7.6L0.2 -9.15" />
<path style="fill:none;stroke-width:0.7;stroke-linecap:round;stroke-linejoin:miter;stroke-miterlimit:5;stroke:#000000;stroke-opacity:0.4" d="M9.05 -0.05L8.3 -0.5" />
</g>
<g id="PathID_1899" transform="matrix(1, 0, 0, 1, 9.55, 9.95)">
<path style="fill:#FFFFFF;fill-opacity:1" d="M-5.2 -0.05Q-5.2 1 -5.9 1.7L-6.25 1.7L-6.55 1.1L-6.35 0.2L-5.85 -0.55L-5.35 -0.55Q-5.2 -0.45 -5.2 -0.05M-2.05 -1.8Q-1.4 -2.35 -1.4 -1.4L-1.6 -0.65Q-1.85 0 -2.2 0Q-2.45 0 -2.7 -0.65Q-2.7 -1.3 -2.05 -1.8M-2.4 -5.4L-2.8 -4.45Q-3.25 -3.65 -3.75 -3.65L-4.1 -4.05Q-3.45 -5.9 -2.7 -5.9Q-2.25 -5.9 -2.4 -5.4" />
</g>
</svg>
