<?xml version="1.0" encoding="utf-8"?>
<svg version="1.1" id="Layer_1"
xmlns="http://www.w3.org/2000/svg"
xmlns:xlink="http://www.w3.org/1999/xlink"
width="17px" height="17px"
xml:space="preserve">
<g id="PathID_1538" transform="matrix(1, 0, 0, 1, 8.85, 8.05)">
<path style="fill:#312823;fill-opacity:1" d="M7.45 3.5Q7.1 4 5.7 4.55Q4.7 3.65 4.6 2.85Q4.5 2.25 5.3 0.3Q6.15 -1.7 4.25 -3.9Q1.05 -7.7 -3.85 -6L-6.9 -3.75Q-8.1 -1.7 -8.55 0.5L-8.45 -1.5Q-8.1 -3.65 -6.4 -5.6Q-5.55 -6.55 -4.15 -7.15Q-2.05 -8 0.75 -7.7Q3.85 -7.4 5.85 -4.9Q7.65 -2.7 7.8 -0.05L7.85 0.4Q8.2 2.55 7.45 3.5" />
<path style="fill:#201915;fill-opacity:1" d="M5.3 0.3Q4.5 2.25 4.6 2.85Q3.8 1.5 4.4 0.5Q5 -1 3 -2.3Q1.45 -2.65 -0.15 -1.95L-2.4 -0.35L-1.5 -1.7L-1.05 -2L-0.75 -2.4L0.8 -3.25L4.25 -3.9Q6.15 -1.7 5.3 0.3M-0.2 -4.6L-4.45 -4.75Q-5.8 -4.35 -6.9 -3.75L-3.85 -6Q1.05 -7.7 4.25 -3.9L0.8 -3.25L-0.75 -2.4Q0.6 -4.15 -0.2 -4.6" />
<path style="fill:#3F332C;fill-opacity:1" d="M-6.65 -1.3Q-7.9 -0.5 -8.55 0.5Q-8.1 -1.7 -6.9 -3.75Q-5.8 -4.35 -4.45 -4.75L-0.2 -4.6Q0.6 -4.15 -0.75 -2.4L-1.05 -2L-1.5 -1.7Q-4.25 -2.9 -6.65 -1.3M5.1 6.45Q2.2 4.2 2.2 1.25Q1.3 -0.55 -0.05 -0.75Q-2.3 -1.25 -3.15 2.4Q-3 0.8 -2.4 -0.35L-0.15 -1.95Q1.45 -2.65 3 -2.3Q5 -1 4.4 0.5Q3.8 1.5 4.6 2.85Q4.7 3.65 5.7 4.55L5.1 6.45" />
<path style="fill:#67564C;fill-opacity:1" d="M-3.15 2.4L-3.15 4.25L-3.15 2.4Q-2.3 -1.25 -0.05 -0.75Q1.3 -0.55 2.2 1.25Q2.2 4.2 5.1 6.45L4.4 6.45Q4.05 6.7 4 7.2L2 7.55L0.2 7.85L-2.45 7.55L-1.25 4.25L-3.8 7.05Q-8.2 4.8 -8.55 0.5Q-7.9 -0.5 -6.65 -1.3Q-4.25 -2.9 -1.5 -1.7L-2.4 -0.35Q-3 0.8 -3.15 2.4" />
<path style="fill:none;stroke-width:0.7;stroke-linecap:round;stroke-linejoin:miter;stroke-miterlimit:5;stroke:#000000;stroke-opacity:0.2" d="M-0.75 -2.4L0.8 -3.25L4.25 -3.9" />
<path style="fill:none;stroke-width:0.7;stroke-linecap:round;stroke-linejoin:miter;stroke-miterlimit:5;stroke:#000000;stroke-opacity:0.301961" d="M4.25 -3.9Q1.05 -7.7 -3.85 -6" />
<path style="fill:none;stroke-width:0.7;stroke-linecap:round;stroke-linejoin:miter;stroke-miterlimit:5;stroke:#000000;stroke-opacity:0.2" d="M-0.75 -2.4L-1.05 -2L-1.5 -1.7L-2.4 -0.35" />
<path style="fill:none;stroke-width:0.7;stroke-linecap:round;stroke-linejoin:miter;stroke-miterlimit:5;stroke:#000000;stroke-opacity:0.301961" d="M4.6 2.85Q4.5 2.25 5.3 0.3Q6.15 -1.7 4.25 -3.9" />
<path style="fill:none;stroke-width:0.7;stroke-linecap:round;stroke-linejoin:miter;stroke-miterlimit:5;stroke:#000000;stroke-opacity:0.301961" d="M7.85 0.4L7.8 -0.05Q7.65 -2.7 5.85 -4.9Q3.85 -7.4 0.75 -7.7Q-2.05 -8 -4.15 -7.15Q-5.55 -6.55 -6.4 -5.6Q-8.1 -3.65 -8.45 -1.5L-8.55 0.5" />
<path style="fill:none;stroke-width:0.7;stroke-linecap:round;stroke-linejoin:miter;stroke-miterlimit:5;stroke:#000000;stroke-opacity:0.301961" d="M2 7.55L0.2 7.85L-2.45 7.55L-1.25 4.25L-3.8 7.05Q-8.2 4.8 -8.55 0.5" />
<path style="fill:none;stroke-width:0.7;stroke-linecap:round;stroke-linejoin:miter;stroke-miterlimit:5;stroke:#000000;stroke-opacity:0.2" d="M-3.15 2.4L-3.15 4.25" />
<path style="fill:none;stroke-width:0.7;stroke-linecap:round;stroke-linejoin:miter;stroke-miterlimit:5;stroke:#000000;stroke-opacity:0.301961" d="M5.7 4.55Q4.7 3.65 4.6 2.85" />
<path style="fill:none;stroke-width:0.7;stroke-linecap:round;stroke-linejoin:miter;stroke-miterlimit:5;stroke:#000000;stroke-opacity:0.2" d="M-2.4 -0.35Q-3 0.8 -3.15 2.4" />
</g>
</svg>
