<?xml version="1.0" encoding="utf-8"?>
<svg version="1.1" id="Layer_1"
xmlns="http://www.w3.org/2000/svg"
xmlns:xlink="http://www.w3.org/1999/xlink"
width="14px" height="9px"
xml:space="preserve">
<g id="PathID_1281" transform="matrix(1, 0, 0, 1, 0.65, 9.75)">
<path style="fill:none;stroke-width:0.7;stroke-linecap:round;stroke-linejoin:round;stroke-miterlimit:3;stroke:#000000;stroke-opacity:0.501961" d="M1.7 -9.5Q-1.05 -9.5 -0.2 -7.7Q0.85 -5.8 7.35 -4L7.85 -4.05Q11 -4.3 12.85 -6.5Q11.95 -8.5 7.15 -8.95" />
</g>
<g id="PathID_1282" transform="matrix(1, 0, 0, 1, 0.65, 9.75)">
<path style="fill:#CFC3AC;fill-opacity:1" d="M2.2 -3.45Q1.9 -5.1 2.4 -6.85Q3.9 -6.45 5.05 -5.6L4.6 -5.15L3.95 -5.4L3.05 -4.9L2.9 -5.6L2.3 -3.5L2.2 -3.45M8.95 -4L8.3 -2.85L7.65 -3.45L8.35 -0.85L8.25 -0.75Q6.95 -2.2 6.4 -4.35Q8.2 -5.05 10 -4.95L9.8 -4.15L8.95 -4M10.85 -5.35Q11.8 -6.15 13 -6.5Q13.45 -4.95 13.2 -3.45L13.1 -3.5L12.6 -5.35L12.5 -4.75L11.75 -5.2L11.2 -4.95L10.85 -5.35" />
<path style="fill:#E3DCCE;fill-opacity:1" d="M2.3 -3.5L2.9 -5.6L3.05 -4.9L3.95 -5.4L4.6 -5.15Q3.45 -4 2.3 -3.5M8.35 -0.85L7.65 -3.45L8.3 -2.85L8.95 -4L9.8 -4.15Q9.3 -2.25 8.35 -0.85M11.2 -4.95L11.75 -5.2L12.5 -4.75L12.6 -5.35L13.1 -3.5Q12.15 -3.95 11.2 -4.95" />
<path style="fill:none;stroke-width:0.7;stroke-linecap:round;stroke-linejoin:round;stroke-miterlimit:3;stroke:#000000;stroke-opacity:0.301961" d="M4.6 -5.15L5.05 -5.6Q3.9 -6.45 2.4 -6.85Q1.9 -5.1 2.2 -3.45L2.3 -3.5Q3.45 -4 4.6 -5.15z" />
<path style="fill:none;stroke-width:0.7;stroke-linecap:round;stroke-linejoin:round;stroke-miterlimit:3;stroke:#000000;stroke-opacity:0.301961" d="M9.8 -4.15L10 -4.95Q8.2 -5.05 6.4 -4.35Q6.95 -2.2 8.25 -0.75L8.35 -0.85" />
<path style="fill:none;stroke-width:0.7;stroke-linecap:round;stroke-linejoin:round;stroke-miterlimit:3;stroke:#000000;stroke-opacity:0.301961" d="M9.8 -4.15Q9.3 -2.25 8.35 -0.85" />
<path style="fill:none;stroke-width:0.7;stroke-linecap:round;stroke-linejoin:round;stroke-miterlimit:3;stroke:#000000;stroke-opacity:0.301961" d="M11.2 -4.95Q12.15 -3.95 13.1 -3.5L13.2 -3.45Q13.45 -4.95 13 -6.5Q11.8 -6.15 10.85 -5.35L11.2 -4.95z" />
</g>
</svg>
