<?xml version="1.0" encoding="utf-8"?>
<svg version="1.1" id="Layer_1"
xmlns="http://www.w3.org/2000/svg"
xmlns:xlink="http://www.w3.org/1999/xlink"
width="21px" height="20px"
xml:space="preserve">
<g id="PathID_1458" transform="matrix(1, 0, 0, 1, 10.6, 9.3)">
<path style="fill:#434769;fill-opacity:1" d="M-8.15 -0.85Q-7.75 -0.65 -7.9 0.3Q-8.1 1.25 -6.95 0.4Q-5.8 -0.5 -5.4 -1.7Q-4.85 -1.05 -5.4 -0.5L-6.7 0.8L-7.6 2L-7.55 3.05Q-7.45 3.4 -6 3.95L-6.1 3.75Q-6.9 3 -5.35 2.35Q-3.8 1.7 -3.15 0.9L-3.25 2.3L-2.65 1.1Q-2.15 0 -2.15 -0.65L-2.4 -1.95Q-1.9 -2.55 -1.9 -3.1Q-1.9 -4.15 -2.8 -5Q-3.4 -5.6 -4.05 -5.8L-3.65 -6.25L-1.05 -4.85Q0.4 -3.85 2.95 -3.6Q4.15 -3.65 8.9 -5.5L9.35 -4.15L9.75 0.65L9.6 1.4Q7.7 1.4 7.1 2.7Q6.45 4.15 6.05 4.2L4.3 4.55L3.45 4.85Q1.05 2.7 1.05 1.45Q1.05 0.5 1.75 -0.2L1.75 -0.25Q-1.7 0.25 -1.7 3.4L-1.4 4.4L-2.35 4Q-3.2 3.65 -3.45 3.65Q-4.2 3.65 -4.35 4.9L-4.45 6.15L-6.3 5.55Q-7.4 5.15 -7.85 5.8L-7.9 5.95L-8.7 3.9Q-9.35 1.5 -8.75 -0.15L-8.25 -0.9L-8.15 -0.85" />
<radialGradient
id="RadialGradID_409" gradientUnits="userSpaceOnUse" gradientTransform="matrix(0.00933838, 0, 0, 0.00933838, 0.15, 1.1)" spreadMethod ="pad" cx="0" cy="0" r="819.2" fx="22" fy="0" >
<stop  offset="0"  style="stop-color:#DFA7EE;stop-opacity:1" />
<stop  offset="0.937255"  style="stop-color:#434769;stop-opacity:1" />
</radialGradient>
<path style="fill:url(#RadialGradID_409) " d="M4.5 6.05L5.55 7.55L4.3 7.9L-1 8.15Q-3.6 7.95 -5.65 7.15L-7.9 5.95L-7.85 5.8Q-7.4 5.15 -6.3 5.55L-4.45 6.15L-4.35 4.9Q-4.2 3.65 -3.45 3.65Q-3.2 3.65 -2.35 4L-1.4 4.4L-1.7 3.4Q-1.7 0.25 1.75 -0.25L1.75 -0.2Q1.05 0.5 1.05 1.45Q1.05 2.7 3.45 4.85L4.5 6.05" />
<path style="fill:#232748;fill-opacity:1" d="M2.95 -3.6Q0.4 -3.85 -1.05 -4.85L-3.65 -6.25L-2.7 -7.05L0.15 -8.25L1.15 -8.65Q5.3 -10.15 6.5 -8.15Q6.95 -8.35 7.45 -7.9Q8 -7.45 8.55 -6.2L8.9 -5.5Q4.15 -3.65 2.95 -3.6M-7.9 5.95L-5.65 7.15Q-3.6 7.95 -1 8.15L4.3 7.9L5.55 7.55L7.95 6.15Q9.2 4.85 9.4 2.9L9.6 1.4L9.75 0.65L9.8 1.4L9.85 3.5Q9.95 6.35 7.6 7.9L5.35 8.75L3.05 9.5L-4.45 9.2L-8.5 7.1Q-10.85 5.3 -10.4 3.4Q-9.95 1.4 -8.75 -0.15Q-9.35 1.5 -8.7 3.9L-7.9 5.95" />
<radialGradient
id="RadialGradID_410" gradientUnits="userSpaceOnUse" gradientTransform="matrix(0.00794983, 0, 0, 0.00794983, 6.55, -0.1)" spreadMethod ="pad" cx="0" cy="0" r="819.2" fx="22" fy="0" >
<stop  offset="0"  style="stop-color:#DFA7EE;stop-opacity:1" />
<stop  offset="0.937255"  style="stop-color:#434769;stop-opacity:1" />
</radialGradient>
<path style="fill:url(#RadialGradID_410) " d="M9.4 2.9Q9.2 4.85 7.95 6.15L5.55 7.55L4.5 6.05L3.45 4.85L4.3 4.55L6.05 4.2Q6.45 4.15 7.1 2.7Q7.7 1.4 9.6 1.4L9.4 2.9" />
<radialGradient
id="RadialGradID_411" gradientUnits="userSpaceOnUse" gradientTransform="matrix(0.00737, 0, 0, 0.00737, -4.85, 1.55)" spreadMethod ="pad" cx="0" cy="0" r="819.2" fx="0" fy="0" >
<stop  offset="0.0235294"  style="stop-color:#79CCDA;stop-opacity:1" />
<stop  offset="0.937255"  style="stop-color:#434769;stop-opacity:1" />
</radialGradient>
<path style="fill:url(#RadialGradID_411) " d="M-3.4 -3.4L-2.4 -1.95L-2.15 -0.65Q-2.15 0 -2.65 1.1L-3.25 2.3L-3.15 0.9Q-3.8 1.7 -5.35 2.35Q-6.9 3 -6.1 3.75L-6 3.95Q-7.45 3.4 -7.55 3.05L-7.6 2L-6.7 0.8L-5.4 -0.5Q-4.85 -1.05 -5.4 -1.7Q-5.8 -0.5 -6.95 0.4Q-8.1 1.25 -7.9 0.3Q-7.75 -0.65 -8.15 -0.85L-8.25 -0.9L-8.05 -1.2L-5.9 -3.7L-4.55 -5.25Q-4.3 -4.35 -3.4 -3.4" />
<radialGradient
id="RadialGradID_412" gradientUnits="userSpaceOnUse" gradientTransform="matrix(0.00431824, 0, 0, 0.00431824, -1.35, -2.75)" spreadMethod ="pad" cx="0" cy="0" r="819.2" fx="0" fy="0" >
<stop  offset="0.0235294"  style="stop-color:#79CCDA;stop-opacity:1" />
<stop  offset="0.937255"  style="stop-color:#434769;stop-opacity:1" />
</radialGradient>
<path style="fill:url(#RadialGradID_412) " d="M-4.55 -5.25L-4.05 -5.8Q-3.4 -5.6 -2.8 -5Q-1.9 -4.15 -1.9 -3.1Q-1.9 -2.55 -2.4 -1.95L-3.4 -3.4Q-4.3 -4.35 -4.55 -5.25" />
<path style="fill:none;stroke-width:0.7;stroke-linecap:round;stroke-linejoin:miter;stroke-miterlimit:5;stroke:#000000;stroke-opacity:0.4" d="M8.9 -5.5L8.55 -6.2Q8 -7.45 7.45 -7.9Q6.95 -8.35 6.5 -8.15" />
<path style="fill:none;stroke-width:0.7;stroke-linecap:round;stroke-linejoin:miter;stroke-miterlimit:5;stroke:#000000;stroke-opacity:0.4" d="M1.15 -8.65L0.15 -8.25L-2.7 -7.05L-3.65 -6.25" />
<path style="fill:none;stroke-width:0.7;stroke-linecap:round;stroke-linejoin:miter;stroke-miterlimit:5;stroke:#000000;stroke-opacity:0.4" d="M8.9 -5.5L9.35 -4.15L9.75 0.65L9.8 1.4L9.85 3.5Q9.95 6.35 7.6 7.9L5.35 8.75L3.05 9.5L-4.45 9.2L-8.5 7.1Q-10.85 5.3 -10.4 3.4Q-9.95 1.4 -8.75 -0.15L-8.25 -0.9L-8.05 -1.2L-5.9 -3.7L-4.55 -5.25L-4.05 -5.8L-3.65 -6.25" />
</g>
<g id="PathID_1459" transform="matrix(1, 0, 0, 1, 10.6, 9.3)">
<path style="fill:#FFFFFF;fill-opacity:1" d="M-3.4 4.7L-1.95 5.15Q-3.35 5.3 -3.6 6.7Q-3.9 5.35 -5.4 5.15Q-3.9 5.1 -3.7 3.7L-3.4 4.7" />
</g>
<g id="PathID_1460" transform="matrix(1, 0, 0, 1, 10.6, 9.3)">
<path style="fill:#FFFFFF;fill-opacity:1" d="M5.15 -3.85Q5.25 -3.05 5.45 -2.85Q5.8 -2.5 6.9 -2.4Q5.5 -2.25 5.25 -0.85Q4.95 -2.2 3.45 -2.4Q4.95 -2.45 5.15 -3.85M2.55 8.9L2.55 8.45L2.65 8L2.9 8Q3.3 8 3.3 8.45L3.1 8.9L2.55 8.9M-0.85 -4.6Q-0.85 -5.3 -0.35 -5.3Q-0.1 -5.3 -0.1 -4.95Q-0.1 -4.2 -0.5 -4.2Q-0.85 -4.2 -0.85 -4.6" />
</g>
</svg>
