<?xml version="1.0" encoding="utf-8"?>
<svg version="1.1" id="Layer_1"
xmlns="http://www.w3.org/2000/svg"
xmlns:xlink="http://www.w3.org/1999/xlink"
width="12px" height="7px"
xml:space="preserve">
<g id="PathID_1330" transform="matrix(1, 0, 0, 1, 4.9, 9.95)">
<path style="fill:#64C039;fill-opacity:1" d="M2.4 -6.4Q3.35 -5.6 3.2 -4.45L2.25 -4.6Q0.8 -5.4 1.45 -6.3L2.4 -6.4M3.35 -8.95Q2.95 -7.35 1.8 -7.05Q-0.1 -7.35 0.75 -8.2Q1.7 -8.95 3.35 -8.95M6.85 -7.15Q5.2 -5.1 3.55 -5.7Q2.35 -6.8 3.75 -7.4L6.85 -7.15M-4.8 -4.65Q-5.05 -5.7 -3.9 -6.1Q-2.3 -5.65 -2.2 -3.7Q-4.45 -3.5 -4.8 -4.65M-2.45 -9.6Q-1.7 -8.1 -2.8 -7.3Q-4.25 -6.65 -4.9 -7.05Q-4.3 -8.8 -2.45 -9.6M-0.35 -6.65Q0.55 -5.8 0.5 -4.75Q-2.3 -5.05 -2.25 -6.4Q-1.4 -7.65 -0.35 -6.65M-1.5 -7.7Q-1.75 -9.4 0.4 -9.95Q0.65 -8.5 -0.4 -7.65L-1.5 -7.7" />
</g>
</svg>
