<?xml version="1.0" encoding="utf-8"?>
<svg version="1.1" id="Layer_1"
xmlns="http://www.w3.org/2000/svg"
xmlns:xlink="http://www.w3.org/1999/xlink"
width="10px" height="4px"
xml:space="preserve">
<g id="PathID_1651" transform="matrix(1, 0, 0, 1, 4.4, 1.85)">
<path style="fill:#7B2411;fill-opacity:1" d="M3.45 0.15Q3.8 0 3.6 -0.45L2.85 -0.35Q0.95 -0.1 -0.35 0.75Q-0.65 1.55 1.45 1.55L1.1 1.85L1.45 1.55Q2.05 0.9 0.95 0.4Q2.25 0.5 2.45 0.9L1.6 1.85L1.1 1.85L0.35 1.9Q-0.5 1.95 -1.6 1.4L-3.5 0.55L-4.2 0.05Q-4.7 -0.9 -4 -1.35Q-3.1 -1.95 -1.7 -1.8L1 -1.25L3.6 -0.45Q4.05 -0.45 4.3 0.2Q4.55 0.8 3.9 1.05L2.95 1.4Q3.8 1.05 3.45 0.15" />
<path style="fill:#A9452B;fill-opacity:1" d="M2.95 1.4L1.6 1.85L2.45 0.9Q2.25 0.5 0.95 0.4Q2.05 0.9 1.45 1.55Q-0.65 1.55 -0.35 0.75Q0.95 -0.1 2.85 -0.35L3.45 0.15L3.6 -0.45Q3.8 0 3.45 0.15L2.85 -0.35Q3.8 1.05 2.95 1.4" />
<path style="fill:none;stroke-width:0.7;stroke-linecap:round;stroke-linejoin:round;stroke-miterlimit:3;stroke:#000000;stroke-opacity:0.301961" d="M1.6 1.85L1.1 1.85L0.35 1.9Q-0.5 1.95 -1.6 1.4L-3.5 0.55L-4.2 0.05Q-4.7 -0.9 -4 -1.35Q-3.1 -1.95 -1.7 -1.8L1 -1.25L3.6 -0.45Q4.05 -0.45 4.3 0.2Q4.55 0.8 3.9 1.05L2.95 1.4L1.6 1.85z" />
<path style="fill:none;stroke-width:0.7;stroke-linecap:round;stroke-linejoin:round;stroke-miterlimit:3;stroke:#000000;stroke-opacity:0.301961" d="M0.95 0.4Q2.05 0.9 1.45 1.55L1.1 1.85" />
<path style="fill:none;stroke-width:0.7;stroke-linecap:round;stroke-linejoin:round;stroke-miterlimit:3;stroke:#000000;stroke-opacity:0.301961" d="M3.45 0.15Q3.8 1.05 2.95 1.4" />
<path style="fill:none;stroke-width:0.7;stroke-linecap:round;stroke-linejoin:round;stroke-miterlimit:3;stroke:#000000;stroke-opacity:0.301961" d="M3.45 0.15L2.85 -0.35" />
</g>
<g id="PathID_1652" transform="matrix(1, 0, 0, 1, 4.4, 1.85)">
<path style="fill:#DFEFF3;fill-opacity:1" d="M3.5 0.5L3.9 1Q3.6 -0.35 4.65 -0.2L5.3 1.1L3.9 1L3.5 0.5L4.15 1.65L1.85 1.45L1.85 1.4L2.05 2.15L0.35 1.9Q0.05 0.85 1.2 0.85Q1.6 1.05 1.85 1.4L1.85 1.45Q1.6 0.2 2.8 0L3.5 0.5" />
<path style="fill:none;stroke-width:0.7;stroke-linecap:round;stroke-linejoin:round;stroke-miterlimit:3;stroke:#000000;stroke-opacity:0.4" d="M3.5 0.5Q3.6 -0.35 4.65 -0.2L5.3 1.1L3.9 1L4.15 1.65L1.85 1.45L2.05 2.15L0.35 1.9Q0.05 0.85 1.2 0.85Q1.6 1.05 1.85 1.4Q1.6 0.2 2.8 0L3.5 0.5L3.9 1" />
<path style="fill:none;stroke-width:0.7;stroke-linecap:round;stroke-linejoin:round;stroke-miterlimit:3;stroke:#000000;stroke-opacity:0.4" d="M1.85 1.4L1.85 1.45" />
</g>
</svg>
