<?xml version="1.0" encoding="utf-8"?>
<svg version="1.1" id="Layer_1"
xmlns="http://www.w3.org/2000/svg"
xmlns:xlink="http://www.w3.org/1999/xlink"
width="17px" height="17px"
xml:space="preserve">
<g id="PathID_1755" transform="matrix(1, 0, 0, 1, 8.9, 8.05)">
<path style="fill:#AA7D61;fill-opacity:1" d="M4.4 0.5Q4.7 -0.3 4.4 -1.05Q4 -1.85 3 -2.3L0 -2.1Q-1.45 -1.45 -2.4 -0.35L-1.5 -1.7Q-0.1 -2.95 0.8 -3.25L4.25 -3.9L0.8 -3.25Q-0.1 -2.95 -1.5 -1.7Q-1.45 -5 -4.15 -4.7Q-5.5 -4.55 -6.9 -3.75Q-5.25 -6.4 -1.4 -6.45Q1 -6.5 2.8 -5.3L4.25 -3.9Q5.4 -2.8 5.55 -1.3Q5.65 -0.35 5.3 0.3Q4.45 1.9 4.6 2.85Q3.8 1.5 4.4 0.5" />
<path style="fill:#DEAC8C;fill-opacity:1" d="M3.75 4.55Q2.2 4.2 2.2 1.25Q0.9 -1 -0.95 -0.3Q-2.65 0.3 -3.15 2.4Q-3 0.8 -2.4 -0.35Q-1.45 -1.45 0 -2.1L3 -2.3Q4 -1.85 4.4 -1.05Q4.7 -0.3 4.4 0.5Q3.8 1.5 4.6 2.85Q4.7 3.65 5.5 4.15L6.45 4.85L3.75 4.55M-8.65 0.5Q-8.4 -1 -6.9 -3.75Q-5.5 -4.55 -4.15 -4.7Q-1.45 -5 -1.5 -1.7Q-5.05 -3 -8.65 0.5" />
<path style="fill:#5F5F5F;fill-opacity:1" d="M-8.65 0.5L-8.65 0.05Q-8.7 -1.25 -8.15 -2.85Q-7.5 -4.65 -6.1 -5.9Q-4.35 -7.45 -1.9 -7.75Q0.4 -8.05 2.8 -7L5.1 -5.65L6.85 -3.2Q8.45 -0.1 7.5 3.25L7 4.95L6.45 4.85L5.5 4.15Q4.7 3.65 4.6 2.85Q4.45 1.9 5.3 0.3Q5.65 -0.35 5.55 -1.3Q5.4 -2.8 4.25 -3.9L2.8 -5.3Q1 -6.5 -1.4 -6.45Q-5.25 -6.4 -6.9 -3.75Q-8.4 -1 -8.65 0.5" />
<path style="fill:#FFDCC6;fill-opacity:1" d="M-1.5 -1.7L-2.4 -0.35Q-3 0.8 -3.15 2.4L-3.15 4.25L-3.15 2.4Q-2.65 0.3 -0.95 -0.3Q0.9 -1 2.2 1.25Q2.2 4.2 3.75 4.55L5 5.95L3.65 5.45L4.4 6.45Q3.25 7.2 2 7.55Q-0.6 8.35 -2.45 7.55L-1.25 4.25L-3.8 7.05Q-6 6.15 -7.4 4Q-8.55 2.2 -8.65 0.5Q-5.05 -3 -1.5 -1.7" />
<path style="fill:none;stroke-width:0.7;stroke-linecap:round;stroke-linejoin:miter;stroke-miterlimit:5;stroke:#000000;stroke-opacity:0.301961" d="M-6.9 -3.75Q-5.25 -6.4 -1.4 -6.45Q1 -6.5 2.8 -5.3L4.25 -3.9Q5.4 -2.8 5.55 -1.3Q5.65 -0.35 5.3 0.3Q4.45 1.9 4.6 2.85Q4.7 3.65 5.5 4.15" />
<path style="fill:none;stroke-width:0.7;stroke-linecap:round;stroke-linejoin:miter;stroke-miterlimit:5;stroke:#000000;stroke-opacity:0.301961" d="M7 4.95L7.5 3.25Q8.45 -0.1 6.85 -3.2L5.1 -5.65L2.8 -7Q0.4 -8.05 -1.9 -7.75Q-4.35 -7.45 -6.1 -5.9Q-7.5 -4.65 -8.15 -2.85Q-8.7 -1.25 -8.65 0.05L-8.65 0.5" />
<path style="fill:none;stroke-width:0.7;stroke-linecap:round;stroke-linejoin:miter;stroke-miterlimit:5;stroke:#000000;stroke-opacity:0.2" d="M-1.5 -1.7Q-0.1 -2.95 0.8 -3.25L4.25 -3.9" />
<path style="fill:none;stroke-width:0.7;stroke-linecap:round;stroke-linejoin:miter;stroke-miterlimit:5;stroke:#000000;stroke-opacity:0.2" d="M-3.15 2.4L-3.15 4.25" />
<path style="fill:none;stroke-width:0.7;stroke-linecap:round;stroke-linejoin:miter;stroke-miterlimit:5;stroke:#000000;stroke-opacity:0.2" d="M-1.5 -1.7L-2.4 -0.35Q-3 0.8 -3.15 2.4" />
<path style="fill:none;stroke-width:0.7;stroke-linecap:round;stroke-linejoin:miter;stroke-miterlimit:5;stroke:#000000;stroke-opacity:0.301961" d="M2 7.55Q-0.6 8.35 -2.45 7.55L-1.25 4.25L-3.8 7.05Q-6 6.15 -7.4 4Q-8.55 2.2 -8.65 0.5" />
</g>
</svg>
