<?xml version="1.0" encoding="utf-8"?>
<svg version="1.1" id="Layer_1"
xmlns="http://www.w3.org/2000/svg"
xmlns:xlink="http://www.w3.org/1999/xlink"
width="19px" height="17px"
xml:space="preserve">
<g id="PathID_2408" transform="matrix(1, 0, 0, 1, 10.85, 8.4)">
<path style="fill:#ED9C00;fill-opacity:1" d="M6.25 4.7L5.5 4.15Q4.7 3.65 4.6 2.85Q4.5 2.25 5.3 0.35L5.3 0.3Q6 -1.3 4.9 -3.05L4.75 -3.25L4.25 -3.9L3.75 -4.4L1 -6L-1.1 -6.3L-4.25 -6.35L-8.7 -5.4Q-8.9 -0.95 -8.55 0.5Q-10.6 -3.45 -10.6 -6.95Q-6.05 -8.2 -3.75 -8.15L0.1 -7.95Q1.65 -7.8 3.6 -6.7L4.4 -6.2L5.05 -5.7L5.15 -5.6L6.4 -4Q7.7 -2 7.8 -0.05Q7.9 1.6 7.5 3.25L7 4.95L6.25 4.7" />
<path style="fill:#AD9E8B;fill-opacity:1" d="M-5.15 -5.5L-3.75 -5.35L-1.65 -5.1L-0.2 -4.6Q1 -3.9 -0.75 -2.4L-1.5 -1.7Q-1.65 -4.75 -7.75 -4.05Q-8.65 -0.6 -8.55 0.5Q-8.9 -0.95 -8.7 -5.4L-5.15 -5.5M4.2 4.5Q2.2 4.2 2.2 1.25Q1.3 -0.55 -0.05 -0.75Q-2.3 -1.25 -3.15 2.4Q-3 0.8 -2.4 -0.35L-0.15 -1.95Q1.45 -2.65 3 -2.3L3.1 -2.25Q4.85 -1.05 4.5 0.3L4.4 0.5Q3.8 1.5 4.6 2.85Q4.7 3.65 5.5 4.15L6.25 4.7L4.2 4.5" />
<path style="fill:#9A8872;fill-opacity:1" d="M4.25 -3.9L0.8 -3.25L-0.75 -2.4Q1 -3.9 -0.2 -4.6L-1.65 -5.1L-3.75 -5.35L-5.15 -5.5L-8.7 -5.4L-4.25 -6.35L-1.1 -6.3L1 -6L3.75 -4.4L4.25 -3.9L4.75 -3.25L4.9 -3.05Q6 -1.3 5.3 0.3L5.3 0.35Q4.5 2.25 4.6 2.85Q3.8 1.5 4.4 0.5L4.5 0.3Q4.85 -1.05 3.1 -2.25L3 -2.3Q1.45 -2.65 -0.15 -1.95L-2.4 -0.35L-1.5 -1.7L-0.75 -2.4L0.8 -3.25L4.25 -3.9" />
<path style="fill:#F3EBD4;fill-opacity:1" d="M5 5.95Q3.65 6.25 2.45 5.95Q3 6.55 3.75 6.85Q3.25 7.2 2 7.55L0.2 7.85L-2.45 7.55L-1.25 4.25L-3.8 7.05Q-4.7 6.55 -6.25 4.7Q-8 2.45 -8.55 0.5Q-8.65 -0.6 -7.75 -4.05Q-1.65 -4.75 -1.5 -1.7L-2.4 -0.35Q-3 0.8 -3.15 2.4Q-2.3 -1.25 -0.05 -0.75Q1.3 -0.55 2.2 1.25Q2.2 4.2 4.2 4.5Q5.05 4.95 5 5.95M-3.15 4.25L-3.15 2.4L-3.15 4.25" />
<path style="fill:none;stroke-width:0.7;stroke-linecap:round;stroke-linejoin:miter;stroke-miterlimit:5;stroke:#000000;stroke-opacity:0.301961" d="M7 4.95L7.5 3.25Q7.9 1.6 7.8 -0.05Q7.7 -2 6.4 -4L5.15 -5.6L5.05 -5.7L4.4 -6.2L3.6 -6.7Q1.65 -7.8 0.1 -7.95L-3.75 -8.15Q-6.05 -8.2 -10.6 -6.95Q-10.6 -3.45 -8.55 0.5" />
<path style="fill:none;stroke-width:0.7;stroke-linecap:round;stroke-linejoin:miter;stroke-miterlimit:5;stroke:#000000;stroke-opacity:0.301961" d="M-4.25 -6.35L-1.1 -6.3L1 -6L3.75 -4.4L4.25 -3.9L4.75 -3.25L4.9 -3.05Q6 -1.3 5.3 0.3L5.3 0.35Q4.5 2.25 4.6 2.85Q4.7 3.65 5.5 4.15" />
<path style="fill:none;stroke-width:0.7;stroke-linecap:round;stroke-linejoin:miter;stroke-miterlimit:5;stroke:#000000;stroke-opacity:0.2" d="M-2.4 -0.35Q-3 0.8 -3.15 2.4" />
<path style="fill:none;stroke-width:0.7;stroke-linecap:round;stroke-linejoin:miter;stroke-miterlimit:5;stroke:#000000;stroke-opacity:0.4" d="M4.2 4.5L6.25 4.7" />
<path style="fill:none;stroke-width:0.7;stroke-linecap:round;stroke-linejoin:miter;stroke-miterlimit:5;stroke:#000000;stroke-opacity:0.2" d="M-0.75 -2.4L0.8 -3.25L4.25 -3.9" />
<path style="fill:none;stroke-width:0.7;stroke-linecap:round;stroke-linejoin:miter;stroke-miterlimit:5;stroke:#000000;stroke-opacity:0.4" d="M2 7.55Q3.25 7.2 3.75 6.85Q3 6.55 2.45 5.95Q3.65 6.25 5 5.95Q5.05 4.95 4.2 4.5" />
<path style="fill:none;stroke-width:0.7;stroke-linecap:round;stroke-linejoin:miter;stroke-miterlimit:5;stroke:#000000;stroke-opacity:0.301961" d="M2 7.55L0.2 7.85L-2.45 7.55L-1.25 4.25L-3.8 7.05Q-4.7 6.55 -6.25 4.7Q-8 2.45 -8.55 0.5" />
<path style="fill:none;stroke-width:0.7;stroke-linecap:round;stroke-linejoin:miter;stroke-miterlimit:5;stroke:#000000;stroke-opacity:0.2" d="M-1.5 -1.7L-0.75 -2.4" />
<path style="fill:none;stroke-width:0.7;stroke-linecap:round;stroke-linejoin:miter;stroke-miterlimit:5;stroke:#000000;stroke-opacity:0.2" d="M-1.5 -1.7L-2.4 -0.35" />
<path style="fill:none;stroke-width:0.7;stroke-linecap:round;stroke-linejoin:miter;stroke-miterlimit:5;stroke:#000000;stroke-opacity:0.2" d="M-3.15 2.4L-3.15 4.25" />
</g>
</svg>
