<?xml version="1.0" encoding="utf-8"?>
<svg version="1.1" id="Layer_1"
xmlns="http://www.w3.org/2000/svg"
xmlns:xlink="http://www.w3.org/1999/xlink"
width="4px" height="16px"
xml:space="preserve">
<g id="PathID_1892" transform="matrix(1, 0, 0, 1, 1.85, 7.85)">
<path style="fill:#4993A3;fill-opacity:1" d="M-1 -5.3L-0.95 -5.55Q-0.55 -7.85 0 -7.85Q0.55 -7.85 0.95 -5.55L1.05 -5.1L-0.05 -5.35L-1 -5.3" />
<path style="fill:#2A5762;fill-opacity:1" d="M1.3 -2.6L1.35 -1.75L1.35 0L1.1 4.55L1.1 4.65L0 7.85Q-0.55 7.85 -1 5.85L-1.85 0.85L-1.5 -1.8L-1.35 -2.85L-0.65 -2.9L1.3 -2.6" />
<path style="fill:#91A0A3;fill-opacity:1" d="M-0.65 -2.9L-1.35 -2.85L-1.1 -4.45L-1 -5.3L-0.05 -5.35L1.05 -5.1L1.1 -4.45L1.3 -2.6L-0.65 -2.9" />
<path style="fill:none;stroke-width:0.7;stroke-linecap:round;stroke-linejoin:round;stroke-miterlimit:3;stroke:#000000;stroke-opacity:0.301961" d="M1.05 -5.1L1.1 -4.45L1.3 -2.6L1.35 -1.75L1.35 0" />
<path style="fill:none;stroke-width:0.7;stroke-linecap:round;stroke-linejoin:round;stroke-miterlimit:3;stroke:#000000;stroke-opacity:0.301961" d="M1.1 4.55L1.1 4.65L0 7.85Q-0.55 7.85 -1 5.85L-1.85 0.85L-1.5 -1.8L-1.35 -2.85L-1.1 -4.45L-1 -5.3L-0.95 -5.55Q-0.55 -7.85 0 -7.85Q0.55 -7.85 0.95 -5.55L1.05 -5.1" />
</g>
</svg>
