<?xml version="1.0" encoding="utf-8"?>
<svg version="1.1" id="Layer_1"
xmlns="http://www.w3.org/2000/svg"
xmlns:xlink="http://www.w3.org/1999/xlink"
width="9px" height="8px"
xml:space="preserve">
<g id="PathID_1971" transform="matrix(1, 0, 0, 1, 3.95, 3.8)">
<path style="fill:#F5B1B2;fill-opacity:1" d="M3.45 0.9L4.2 2.1Q4.55 2.6 3.5 3.25Q3.25 2.2 2.3 1.6Q3.25 2.2 3.5 3.25L3.4 3.55Q3.25 3.75 2.7 3.75Q1.95 2.3 0 0.85Q0.15 0 0.6 -0.5Q1.5 -1.4 2.35 -1.6L2.8 -1.1L3.6 -0.1Q4.05 0.5 4.2 2.1L3.45 0.9" />
<path style="fill:#650F1C;fill-opacity:1" d="M-0.1 0.75Q-2.85 0.4 -3.7 -0.6L-3.8 -0.85Q-4.15 -2.25 -3.5 -3.1Q-2.2 -4 -0.9 -3.7Q0.65 -3.35 2 -1.95L2.3 -1.65L2.35 -1.6Q1.5 -1.4 0.6 -0.5Q0.15 0 0 0.85L-0.1 0.75" />
<path style="fill:#D07F7F;fill-opacity:1" d="M1.3 3.3L-0.1 2.35L-0.1 1.85L0 0.85Q1.95 2.3 2.7 3.75Q2.05 3.9 1.3 3.3" />
<path style="fill:#3F060D;fill-opacity:1" d="M-3.7 -0.6Q-2.85 0.4 -0.1 0.75L0 0.85L-0.1 1.85L-0.1 2.35L-1.6 1.45Q-3.25 0.45 -3.55 -0.15L-3.7 -0.6" />
<path style="fill:none;stroke-width:0.7;stroke-linecap:round;stroke-linejoin:miter;stroke-miterlimit:5;stroke:#000000;stroke-opacity:0.4" d="M2.7 3.75Q3.25 3.75 3.4 3.55L3.5 3.25Q3.25 2.2 2.3 1.6" />
<path style="fill:none;stroke-width:0.7;stroke-linecap:round;stroke-linejoin:miter;stroke-miterlimit:5;stroke:#000000;stroke-opacity:0.4" d="M2.35 -1.6L2.3 -1.65" />
<path style="fill:none;stroke-width:0.7;stroke-linecap:round;stroke-linejoin:miter;stroke-miterlimit:5;stroke:#000000;stroke-opacity:0.4" d="M-3.8 -0.85L-3.7 -0.6" />
<path style="fill:none;stroke-width:0.7;stroke-linecap:round;stroke-linejoin:miter;stroke-miterlimit:5;stroke:#000000;stroke-opacity:0.4" d="M-0.1 2.35L1.3 3.3Q2.05 3.9 2.7 3.75" />
<path style="fill:none;stroke-width:0.7;stroke-linecap:round;stroke-linejoin:miter;stroke-miterlimit:5;stroke:#000000;stroke-opacity:0.4" d="M4.2 2.1Q4.05 0.5 3.6 -0.1L2.8 -1.1L2.35 -1.6" />
<path style="fill:none;stroke-width:0.7;stroke-linecap:round;stroke-linejoin:miter;stroke-miterlimit:5;stroke:#000000;stroke-opacity:0.4" d="M4.2 2.1L3.45 0.9" />
<path style="fill:none;stroke-width:0.7;stroke-linecap:round;stroke-linejoin:miter;stroke-miterlimit:5;stroke:#000000;stroke-opacity:0.4" d="M3.5 3.25Q4.55 2.6 4.2 2.1" />
<path style="fill:none;stroke-width:0.7;stroke-linecap:round;stroke-linejoin:miter;stroke-miterlimit:5;stroke:#000000;stroke-opacity:0.4" d="M-0.1 2.35L-1.6 1.45Q-3.25 0.45 -3.55 -0.15L-3.7 -0.6" />
</g>
</svg>
