<?xml version="1.0" encoding="utf-8"?>
<svg version="1.1" id="Layer_1"
xmlns="http://www.w3.org/2000/svg"
xmlns:xlink="http://www.w3.org/1999/xlink"
width="4px" height="17px"
xml:space="preserve">
<g id="PathID_1754" transform="matrix(1, 0, 0, 1, 1.85, 8.25)">
<path style="fill:#252424;fill-opacity:1" d="M1.1 4.5L1.1 4.6L0 7.85Q-0.55 7.85 -1 5.8Q-1.9 1.55 -1.85 0.65L-1.5 -2.05L-1.35 -3.15L-1.1 -4.8L-1 -5.65L-0.95 -5.9Q-0.55 -8.25 0 -8.25Q0.55 -8.25 0.95 -5.9L1.05 -5.45L1.1 -4.8L1.3 -2.85L1.35 -2L1.35 -0.2L1.1 4.5" />
<path style="fill:none;stroke-width:0.7;stroke-linecap:round;stroke-linejoin:round;stroke-miterlimit:3;stroke:#000000;stroke-opacity:0.301961" d="M1.1 4.5L1.1 4.6L0 7.85Q-0.55 7.85 -1 5.8Q-1.9 1.55 -1.85 0.65L-1.5 -2.05L-1.35 -3.15L-1.1 -4.8L-1 -5.65L-0.95 -5.9Q-0.55 -8.25 0 -8.25Q0.55 -8.25 0.95 -5.9L1.05 -5.45L1.1 -4.8L1.3 -2.85L1.35 -2L1.35 -0.2" />
</g>
</svg>
