<?xml version="1.0" encoding="utf-8"?>
<svg version="1.1" id="Layer_1"
xmlns="http://www.w3.org/2000/svg"
xmlns:xlink="http://www.w3.org/1999/xlink"
width="11px" height="8px"
xml:space="preserve">
<g id="PathID_1653" transform="matrix(1, 0, 0, 1, 3.8, 4.15)">
<path style="fill:#7B2411;fill-opacity:1" d="M2.4 -0.75L3.05 -0.05L4 0.45L4.85 0.75Q7.1 0.4 5.8 1.75L5.75 1.3L5.05 2.45Q4.25 1 2.4 1.85L3.55 3.1L1 2.95L-1.45 1.25Q-3.15 0.2 -3.7 -1.1Q-4.1 -2.7 -3.2 -3.55Q-2.4 -4.4 -0.8 -4Q0.75 -3.6 1.35 -2.6L2.4 -0.75M2.4 1.85Q4.25 1 5.05 2.45M5.75 1.3Q5.65 0.9 4.85 0.75L4 0.45M4.85 0.75Q5.65 0.9 5.75 1.3L5.8 1.75" />
<path style="fill:none;stroke-width:0.7;stroke-linecap:round;stroke-linejoin:round;stroke-miterlimit:3;stroke:#000000;stroke-opacity:0.301961" d="M2.4 -0.75L3.05 -0.05L4 0.45Q7.1 0.4 5.8 1.75L5.05 2.45L3.55 3.1L1 2.95L-1.45 1.25Q-3.15 0.2 -3.7 -1.1" />
<path style="fill:none;stroke-width:0.7;stroke-linecap:round;stroke-linejoin:round;stroke-miterlimit:3;stroke:#000000;stroke-opacity:0.301961" d="M5.05 2.45Q4.25 1 2.4 1.85" />
<path style="fill:none;stroke-width:0.7;stroke-linecap:round;stroke-linejoin:round;stroke-miterlimit:3;stroke:#000000;stroke-opacity:0.301961" d="M4 0.45L4.85 0.75Q5.65 0.9 5.75 1.3L5.8 1.75" />
</g>
<g id="PathID_1654" transform="matrix(1, 0, 0, 1, 3.8, 4.15)">
<path style="fill:#97A4AA;fill-opacity:1" d="M6.5 2.6L5.2 2.4L5.45 2.95L4.95 2.1Q4.75 0.75 5.55 1.25Q6.05 1.4 6.3 1.85L6.5 2.6M6.6 0.75L7.05 2.05L6.3 1.85Q6.05 1.4 5.55 1.25Q5.65 0.55 6.6 0.75M5.45 2.95L3.7 2.95Q3.3 2.15 4.05 1.9Q4.55 1.75 4.95 2.1L5.2 2.4" />
<path style="fill:none;stroke-width:0.7;stroke-linecap:round;stroke-linejoin:round;stroke-miterlimit:3;stroke:#000000;stroke-opacity:0.4" d="M5.55 1.25Q6.05 1.4 6.3 1.85L7.05 2.05L6.6 0.75Q5.65 0.55 5.55 1.25Q4.75 0.75 4.95 2.1L5.2 2.4L6.5 2.6L6.3 1.85" />
<path style="fill:none;stroke-width:0.7;stroke-linecap:round;stroke-linejoin:round;stroke-miterlimit:3;stroke:#000000;stroke-opacity:0.4" d="M5.2 2.4L5.45 2.95L3.7 2.95Q3.3 2.15 4.05 1.9Q4.55 1.75 4.95 2.1" />
</g>
</svg>
