<?xml version="1.0" encoding="utf-8"?>
<svg version="1.1" id="Layer_1"
xmlns="http://www.w3.org/2000/svg"
xmlns:xlink="http://www.w3.org/1999/xlink"
width="19px" height="14px"
xml:space="preserve">
<g id="PathID_2330" transform="matrix(1, 0, 0, 1, 7.4, 6.8)">
<path style="fill:#E7ECF0;fill-opacity:1" d="M-1.4 3.6Q-2.55 3 -3.9 1.45L-3.9 1.4L-1.45 -0.1Q-1.2 -0.5 -1.2 -2.4Q-1.2 -3.85 -1.65 -4.25Q-1.9 -4.5 -3.25 -4.75Q-3.75 -4.85 -3.9 -5.85L-2.6 -6.5L0 -6.8Q1.65 -6.7 3 -5.95Q3.65 -5.6 5.55 -3.65Q6.1 -2.9 6.9 -0.25Q7.25 0.9 6.95 3.55Q0.95 4.85 -1.4 3.6" />
<path style="fill:#1C1B17;fill-opacity:1" d="M-4.45 0.8L-3.9 1.45L-5.9 2.3Q-6.55 2.7 -6.75 3.6Q-7.5 2.05 -7.1 -0.3Q-6.85 -1.95 -6.25 -3.2Q-6.4 -1.6 -4.45 0.8" />
<path style="fill:#2E2F31;fill-opacity:1" d="M-6.25 -3.2L-4.95 -4.9L-3.9 -5.85Q-3.75 -4.85 -3.25 -4.75Q-1.9 -4.5 -1.65 -4.25Q-1.2 -3.85 -1.2 -2.4Q-1.2 -0.5 -1.45 -0.1L-3.9 1.4L-3.9 1.45L-4.45 0.8Q-6.4 -1.6 -6.25 -3.2" />
<path style="fill:#8F8B88;fill-opacity:1" d="M-3.9 1.45Q-2.55 3 -1.4 3.6Q0.95 4.85 6.95 3.55L7.7 4.6Q8.8 5.8 10.65 6.65L9 6.7Q3.4 6.85 1.15 6.6L-3.7 5.7Q-5.85 5.2 -6.65 3.75L-6.75 3.6Q-6.55 2.7 -5.9 2.3L-3.9 1.45" />
<path style="fill:none;stroke-width:0.7;stroke-linecap:round;stroke-linejoin:miter;stroke-miterlimit:5;stroke:#000000;stroke-opacity:0.4" d="M-2.6 -6.5L-3.9 -5.85" />
<path style="fill:none;stroke-width:0.7;stroke-linecap:round;stroke-linejoin:miter;stroke-miterlimit:5;stroke:#000000;stroke-opacity:0.4" d="M1.15 6.6L-3.7 5.7Q-5.85 5.2 -6.65 3.75L-6.75 3.6Q-7.5 2.05 -7.1 -0.3Q-6.85 -1.95 -6.25 -3.2L-4.95 -4.9L-3.9 -5.85" />
</g>
</svg>
