<?xml version="1.0" encoding="utf-8"?>
<svg version="1.1" id="Layer_1"
xmlns="http://www.w3.org/2000/svg"
xmlns:xlink="http://www.w3.org/1999/xlink"
width="25px" height="25px"
xml:space="preserve">
<g id="PathID_2112" transform="matrix(1, 0, 0, 1, 12.35, 12.85)">
<linearGradient
id="LinearGradID_526" gradientUnits="userSpaceOnUse" gradientTransform="matrix(0.00126648, 0.00827026, -0.00585938, 0.00088501, 3.45, -7.15)" spreadMethod ="pad" x1="-819.2" y1="0" x2="819.2" y2="0" >
<stop  offset="0" style="stop-color:#FF9956;stop-opacity:1" />
<stop  offset="1" style="stop-color:#FF6600;stop-opacity:1" />
</linearGradient>
<path style="fill:url(#LinearGradID_526) " d="M5.4 -4.2Q5.2 -1.65 4.55 -0.1Q3 -0.3 1.1 -1.05Q-3.05 -2.25 -4.4 -4.4Q-5.75 -6.55 -4.55 -7.95Q-2.2 -10.1 -2.85 -12.1Q-1.6 -11.15 -1.95 -9.75L-2.45 -8L-1.3 -9.85Q-0.45 -11.3 2.35 -11.15L2.05 -10.9Q-0.05 -9.3 -0.15 -8.3L1.8 -9.65Q3.65 -9.8 5.05 -9Q5.55 -6.8 5.4 -4.2" />
<path style="fill:#F36B11;fill-opacity:1" d="M2.05 -10.9Q1.6 -10.45 1.8 -9.65L-0.15 -8.3Q-0.05 -9.3 2.05 -10.9M3.4 1.55Q1.2 3.4 -1.35 3.85L-1.4 3.85Q-7.75 1.1 -7 -2.4L-6.15 -6.2L-5.15 -7.4L-4.65 -7.9L-4.55 -7.95Q-5.75 -6.55 -4.4 -4.4Q-3.05 -2.25 1.1 -1.05Q3 -0.3 4.55 -0.1L3.4 1.55M-2.45 -8L-1.95 -9.75Q-1.6 -11.15 -2.85 -12.1L-3 -12.5Q-0.75 -11.15 -1.3 -9.85L-2.45 -8" />
<path style="fill:#FAEED4;fill-opacity:1" d="M4.55 -0.1Q5.2 -1.65 5.4 -4.2Q5.55 -6.8 5.05 -9L6.5 -7.9Q8.35 -6 9.15 -4.05Q9.65 -2.75 10.25 -2.05L10.8 -1.55L11.9 -0.7Q9.75 2.2 5.4 3.1L4.15 3.95Q0.8 4.55 -1.35 3.85Q1.2 3.4 3.4 1.55L4.55 -0.1" />
<path style="fill:#9D8B75;fill-opacity:1" d="M-3.45 3.95L-1.35 3.85Q0.8 4.55 4.15 3.95L5.4 3.1Q9.75 2.2 11.9 -0.7L12.1 0.7Q11.95 3.2 9 5.1L4.55 7.55L2.5 8.25Q-0.95 6.4 -3 5.9Q-5.15 5.4 -6.45 4.05Q-7.1 3.4 -7.4 2.3Q-5.35 3.85 -3.45 3.95" />
<path style="fill:#A43C05;fill-opacity:1" d="M-7 -2.4Q-7.75 1.1 -1.4 3.85L-1.35 3.85L-3.45 3.95Q-5.35 3.85 -7.4 2.3Q-7.8 1.1 -7.75 -0.65Q-7.7 -4 -6.15 -6.2L-7 -2.4" />
<path style="fill:none;stroke-width:0.7;stroke-linecap:round;stroke-linejoin:miter;stroke-miterlimit:5;stroke:#000000;stroke-opacity:0.4" d="M2.35 -11.15L2.05 -10.9Q1.6 -10.45 1.8 -9.65Q3.65 -9.8 5.05 -9L6.5 -7.9Q8.35 -6 9.15 -4.05Q9.65 -2.75 10.25 -2.05L10.8 -1.55L11.9 -0.7L12.1 0.7Q11.95 3.2 9 5.1L4.55 7.55" />
<path style="fill:none;stroke-width:0.7;stroke-linecap:round;stroke-linejoin:miter;stroke-miterlimit:5;stroke:#000000;stroke-opacity:0.4" d="M-3 5.9Q-5.15 5.4 -6.45 4.05Q-7.1 3.4 -7.4 2.3Q-7.8 1.1 -7.75 -0.65Q-7.7 -4 -6.15 -6.2L-5.15 -7.4L-4.65 -7.9L-4.55 -7.95Q-2.2 -10.1 -2.85 -12.1L-3 -12.5Q-0.75 -11.15 -1.3 -9.85Q-0.45 -11.3 2.35 -11.15" />
</g>
<g id="PathID_2113" transform="matrix(1, 0, 0, 1, 12.35, 12.85)">
<path style="fill:none;stroke-width:0.7;stroke-linecap:round;stroke-linejoin:miter;stroke-miterlimit:5;stroke:#000000;stroke-opacity:0.501961" d="M4.25 2.8Q-5.05 2.95 -12.1 7.9" />
</g>
<g id="PathID_2114" transform="matrix(1, 0, 0, 1, 12.35, 12.85)">
<path style="fill:none;stroke-width:0.7;stroke-linecap:round;stroke-linejoin:miter;stroke-miterlimit:5;stroke:#000000;stroke-opacity:0.501961" d="M5.75 3.75Q-2 5.95 -6.8 11.65" />
</g>
<g id="PathID_2115" transform="matrix(1, 0, 0, 1, 12.35, 12.85)">
<path style="fill:#F5E0CD;fill-opacity:1" d="M9.5 -0.35Q10.35 -0.85 11.25 -0.8Q10.9 0.35 9.5 -0.35" />
<path style="fill:#FFB0A1;fill-opacity:1" d="M11.55 -0.8L11.9 -0.15Q11 0.95 11.25 1.3L10.75 1.6Q10.95 1 10.15 0.6Q9.15 0.6 9 -0.05L9.5 -0.35Q10.9 0.35 11.25 -0.8L11.55 -0.8" />
<path style="fill:#D26753;fill-opacity:1" d="M10.4 1.75Q10.05 0.6 9.05 0.9L8.7 0.2L9 -0.05Q9.15 0.6 10.15 0.6Q10.95 1 10.75 1.6L10.4 1.75" />
<path style="fill:none;stroke-width:0.7;stroke-linecap:round;stroke-linejoin:round;stroke-miterlimit:3;stroke:#000000;stroke-opacity:0.301961" d="M9.5 -0.35L9 -0.05" />
<path style="fill:none;stroke-width:0.7;stroke-linecap:round;stroke-linejoin:round;stroke-miterlimit:3;stroke:#000000;stroke-opacity:0.301961" d="M10.75 1.6L11.25 1.3Q11 0.95 11.9 -0.15L11.55 -0.8L11.25 -0.8Q10.35 -0.85 9.5 -0.35" />
<path style="fill:none;stroke-width:0.7;stroke-linecap:round;stroke-linejoin:round;stroke-miterlimit:3;stroke:#000000;stroke-opacity:0.301961" d="M9 -0.05L8.7 0.2L9.05 0.9Q10.05 0.6 10.4 1.75L10.75 1.6" />
</g>
<g id="PathID_2116" transform="matrix(1, 0, 0, 1, 12.35, 12.85)">
<path style="fill:#6B3126;fill-opacity:1" d="M9 5.55Q9.2 3.8 8.85 3.55L9.9 2.8L10.2 3.25L9 5.55" />
<path style="fill:#A14F3F;fill-opacity:1" d="M8.85 3.55Q9.2 3.8 9 5.55Q8.45 6.6 8 6.55Q7.3 6.3 7.55 3.75L8.85 3.55" />
<path style="fill:none;stroke-width:0.7;stroke-linecap:round;stroke-linejoin:round;stroke-miterlimit:3;stroke:#000000;stroke-opacity:0.4" d="M10.2 3.25Q10.95 4.1 11.85 1.75" />
<path style="fill:none;stroke-width:0.7;stroke-linecap:round;stroke-linejoin:round;stroke-miterlimit:3;stroke:#000000;stroke-opacity:0.4" d="M7.55 3.75Q7.3 6.3 8 6.55Q8.45 6.6 9 5.55" />
<path style="fill:none;stroke-width:0.7;stroke-linecap:round;stroke-linejoin:round;stroke-miterlimit:3;stroke:#000000;stroke-opacity:0.4" d="M8.85 3.55L7.55 3.75Q6.35 3.3 6.1 1.95" />
<path style="fill:none;stroke-width:0.7;stroke-linecap:round;stroke-linejoin:round;stroke-miterlimit:3;stroke:#000000;stroke-opacity:0.4" d="M8.85 3.55L9.9 2.8L10.2 3.25" />
<path style="fill:none;stroke-width:0.7;stroke-linecap:round;stroke-linejoin:round;stroke-miterlimit:3;stroke:#000000;stroke-opacity:0.4" d="M10.2 3.25L9 5.55" />
</g>
</svg>
