<?xml version="1.0" encoding="utf-8"?>
<svg version="1.1" id="Layer_1"
xmlns="http://www.w3.org/2000/svg"
xmlns:xlink="http://www.w3.org/1999/xlink"
width="9px" height="8px"
xml:space="preserve">
<g id="PathID_1593" transform="matrix(1, 0, 0, 1, 3.9, 3.75)">
<path style="fill:#59683F;fill-opacity:1" d="M3.45 -2.1L4 -1.6L4 -1.3L4.05 -1.25L4.1 -1.15Q3.4 -2 3.05 -1.55L2.85 -1.3L3.05 -1.55Q3.4 -2 4.1 -1.15L4.2 0Q3.25 -0.3 2.7 1.1Q3.25 -0.3 4.2 0L4.2 0.8Q2.85 3.05 1.95 2.6L-0.1 0.75L-1.45 0.5Q-0.15 -0.9 1 -0.9L-0.65 -3.65Q0.7 -3.3 1.5 -2.3L1.6 -2.15L2.5 -1.15Q2.6 -1.1 2.85 -1.3Q3.05 -2.4 3.45 -2.1" />
<path style="fill:#78583A;fill-opacity:1" d="M4.05 -1.25L4.15 -1.1L4.1 -1.15L4.05 -1.25" />
<path style="fill:#3C462B;fill-opacity:1" d="M-1.65 0.7L-1.45 0.5L-0.1 0.75L1.95 2.6Q2.85 3.05 4.2 0.8Q3.9 2.8 3.35 3.35L2.7 3.75Q2.05 3.9 1.3 3.3L0.15 2.5L-1.6 1.45L-2.05 1.2L-1.65 0.7" />
<path style="fill:#B6D969;fill-opacity:1" d="M-1.55 -3.3L-0.3 -1.05Q-1.25 -0.75 -2 -0.05L-2.3 0.25Q-3.25 -0.1 -3.7 -0.6L-3.8 -0.85Q-4.15 -2.25 -3.5 -3.1Q-2.7 -3.65 -1.9 -3.75L-1.55 -3.3" />
<path style="fill:#E5EFD4;fill-opacity:1" d="M-2.3 0.25L-2 -0.05Q-1.25 -0.75 -0.3 -1.05L-1.55 -3.3L-1.9 -3.75L-0.9 -3.7L-0.65 -3.65L1 -0.9Q-0.15 -0.9 -1.45 0.5L-2.3 0.25" />
<path style="fill:#667E2F;fill-opacity:1" d="M-2.3 0.25L-2.75 0.7L-3.55 -0.15L-3.7 -0.6Q-3.25 -0.1 -2.3 0.25" />
<path style="fill:#A8B191;fill-opacity:1" d="M-2.3 0.25L-1.45 0.5L-1.65 0.7L-2.05 1.2L-2.75 0.7L-2.3 0.25" />
<path style="fill:none;stroke-width:0.7;stroke-linecap:round;stroke-linejoin:round;stroke-miterlimit:3;stroke:#000000;stroke-opacity:0.301961" d="M4.2 0.8L4.2 0Q3.25 -0.3 2.7 1.1" />
<path style="fill:none;stroke-width:0.7;stroke-linecap:round;stroke-linejoin:round;stroke-miterlimit:3;stroke:#000000;stroke-opacity:0.301961" d="M4.05 -1.25L4.15 -1.1L4.1 -1.15L4.2 0" />
<path style="fill:none;stroke-width:0.7;stroke-linecap:round;stroke-linejoin:round;stroke-miterlimit:3;stroke:#000000;stroke-opacity:0.301961" d="M4.1 -1.15Q3.4 -2 3.05 -1.55L2.85 -1.3Q2.6 -1.1 2.5 -1.15" />
<path style="fill:none;stroke-width:0.7;stroke-linecap:round;stroke-linejoin:round;stroke-miterlimit:3;stroke:#000000;stroke-opacity:0.301961" d="M4.1 -1.15L4.05 -1.25L4 -1.3L4 -1.6L3.45 -2.1Q3.05 -2.4 2.85 -1.3" />
<path style="fill:none;stroke-width:0.7;stroke-linecap:round;stroke-linejoin:round;stroke-miterlimit:3;stroke:#000000;stroke-opacity:0.301961" d="M4.2 0.8Q3.9 2.8 3.35 3.35L2.7 3.75Q2.05 3.9 1.3 3.3L0.15 2.5L-1.6 1.45L-2.05 1.2L-2.75 0.7L-3.55 -0.15L-3.7 -0.6L-3.8 -0.85" />
</g>
</svg>
