<?xml version="1.0" encoding="utf-8"?>
<svg version="1.1" id="Layer_1"
xmlns="http://www.w3.org/2000/svg"
xmlns:xlink="http://www.w3.org/1999/xlink"
width="14px" height="14px"
xml:space="preserve">
<g id="PathID_2678" transform="matrix(1, 0, 0, 1, 7.05, 6.8)">
<radialGradient
id="RadialGradID_615" gradientUnits="userSpaceOnUse" gradientTransform="matrix(0.0153809, 0, 0, 0.0153809, 3.35, -5.3)" spreadMethod ="pad" cx="0" cy="0" r="819.2" fx="0" fy="0" >
<stop  offset="0.388235"  style="stop-color:#9E8277;stop-opacity:1" />
<stop  offset="0.792157"  style="stop-color:#3C303C;stop-opacity:1" />
</radialGradient>
<path style="fill:url(#RadialGradID_615) " d="M5.45 2Q3.8 5.25 0.05 5.1Q-4.55 4.9 -5.95 1.05Q-6.65 -0.85 -6.4 -2.75L-5.5 -4.4Q-4.25 -6.1 -2.6 -6.5L0 -6.8Q2.15 -6.6 3.75 -5.45L4.95 -4.35L6.2 -2.5Q6.75 -0.55 5.45 2" />
<radialGradient
id="RadialGradID_616" gradientUnits="userSpaceOnUse" gradientTransform="matrix(0.0102539, 0, 0, 0.0102539, 2.05, -2.55)" spreadMethod ="pad" cx="0" cy="0" r="819.2" fx="0" fy="0" >
<stop  offset="0.0392157"  style="stop-color:#846E66;stop-opacity:1" />
<stop  offset="0.854902"  style="stop-color:#1C161C;stop-opacity:1" />
</radialGradient>
<path style="fill:url(#RadialGradID_616) " d="M6.2 -2.5Q6.8 -1.15 6.8 0.4Q6.8 2.3 5.4 4.2Q4.45 5.55 3.4 6.15Q1.95 7 -0.1 6.85Q-4.3 6.6 -6 3.5Q-7.35 1.05 -6.7 -1.75L-6.4 -2.75Q-6.65 -0.85 -5.95 1.05Q-4.55 4.9 0.05 5.1Q3.8 5.25 5.45 2Q6.75 -0.55 6.2 -2.5" />
<path style="fill:none;stroke-width:0.7;stroke-linecap:round;stroke-linejoin:miter;stroke-miterlimit:5;stroke:#000000;stroke-opacity:0.4" d="M4.95 -4.35L6.2 -2.5Q6.8 -1.15 6.8 0.4Q6.8 2.3 5.4 4.2Q4.45 5.55 3.4 6.15Q1.95 7 -0.1 6.85Q-4.3 6.6 -6 3.5Q-7.35 1.05 -6.7 -1.75L-6.4 -2.75L-5.5 -4.4Q-4.25 -6.1 -2.6 -6.5" />
</g>
</svg>
