<?xml version="1.0" encoding="utf-8"?>
<svg version="1.1" id="Layer_1"
xmlns="http://www.w3.org/2000/svg"
xmlns:xlink="http://www.w3.org/1999/xlink"
width="14px" height="14px"
xml:space="preserve">
<g id="PathID_2411" transform="matrix(1, 0, 0, 1, 7, 6.8)">
<path style="fill:#ED9C00;fill-opacity:1" d="M6.45 1.85Q6.15 2.9 5.45 3.65Q3.9 5.2 1.25 5.15Q-4.35 4.4 -5.8 0.7Q-6.45 -0.95 -6.25 -3.2L-5.4 -4.45L-5.4 -4.5Q-4.05 -5.9 -2.6 -6.5L0 -6.8Q2.85 -6.65 4.8 -4.55L5.55 -3.65L5.75 -3.35L6.2 -2.5Q6.9 0.1 6.45 1.85" />
<path style="fill:#935F0B;fill-opacity:1" d="M6.2 -2.5Q6.8 -1.15 6.8 0.4L6.7 1.7Q6.3 3.7 4.8 5.15Q2.85 7 0 6.85Q-1.8 6.75 -3.25 5.9L-4.85 4.55Q-6.55 2.8 -6.8 0.5L-6.85 -0.4Q-6.85 -1.95 -6.25 -3.2Q-6.45 -0.95 -5.8 0.7Q-4.35 4.4 1.25 5.15Q3.9 5.2 5.45 3.65Q6.15 2.9 6.45 1.85Q6.9 0.1 6.2 -2.5" />
<path style="fill:none;stroke-width:0.7;stroke-linecap:round;stroke-linejoin:miter;stroke-miterlimit:5;stroke:#000000;stroke-opacity:0.4" d="M5.55 -3.65L5.75 -3.35L6.2 -2.5Q6.8 -1.15 6.8 0.4L6.7 1.7Q6.3 3.7 4.8 5.15Q2.85 7 0 6.85Q-1.8 6.75 -3.25 5.9L-4.85 4.55Q-6.55 2.8 -6.8 0.5L-6.85 -0.4Q-6.85 -1.95 -6.25 -3.2L-5.4 -4.45L-5.4 -4.5Q-4.05 -5.9 -2.6 -6.5" />
</g>
</svg>
