<?xml version="1.0" encoding="utf-8"?>
<svg version="1.1" id="Layer_1"
xmlns="http://www.w3.org/2000/svg"
xmlns:xlink="http://www.w3.org/1999/xlink"
width="13px" height="9px"
xml:space="preserve">
<g id="PathID_1277" transform="matrix(1, 0, 0, 1, 2.75, 8.9)">
<path style="fill:none;stroke-width:0.7;stroke-linecap:round;stroke-linejoin:round;stroke-miterlimit:3;stroke:#000000;stroke-opacity:0.501961" d="M0.2 -8.65Q-2.2 -8.2 -1.85 -6.7Q-1.5 -5.2 1.3 -4.5L5.65 -3.95Q7.25 -4.15 8.9 -5Q9.5 -7.95 4.7 -8.4" />
</g>
<g id="PathID_1278" transform="matrix(1, 0, 0, 1, 2.75, 8.9)">
<path style="fill:#CFC3AC;fill-opacity:1" d="M3.7 -3.1L2.75 -2.2L2.3 -2.95L2.25 -0.3L2.15 -0.2Q1.25 -1.95 1.25 -4.15L4.95 -3.8L4.5 -3.05L3.7 -3.1M7.4 -3.9Q8.35 -4.7 9.55 -5.05Q10 -3.5 9.75 -2L9.65 -2.05L9.15 -3.9L9.05 -3.3L8.3 -3.75L7.75 -3.5L7.4 -3.9M-0.9 -5.05L-1.8 -4.55L-1.95 -5.25L-2.55 -3.15L-2.65 -3.1Q-2.95 -4.75 -2.45 -6.5Q-0.95 -6.1 0.2 -5.25L-0.25 -4.8L-0.9 -5.05" />
<path style="fill:#E3DCCE;fill-opacity:1" d="M2.25 -0.3L2.3 -2.95L2.75 -2.2L3.7 -3.1L4.5 -3.05Q3.55 -1.4 2.25 -0.3M7.75 -3.5L8.3 -3.75L9.05 -3.3L9.15 -3.9L9.65 -2.05Q8.7 -2.5 7.75 -3.5M-2.55 -3.15L-1.95 -5.25L-1.8 -4.55L-0.9 -5.05L-0.25 -4.8Q-1.4 -3.65 -2.55 -3.15" />
<path style="fill:none;stroke-width:0.7;stroke-linecap:round;stroke-linejoin:round;stroke-miterlimit:3;stroke:#000000;stroke-opacity:0.301961" d="M4.5 -3.05L4.95 -3.8L1.25 -4.15Q1.25 -1.95 2.15 -0.2L2.25 -0.3" />
<path style="fill:none;stroke-width:0.7;stroke-linecap:round;stroke-linejoin:round;stroke-miterlimit:3;stroke:#000000;stroke-opacity:0.301961" d="M4.5 -3.05Q3.55 -1.4 2.25 -0.3" />
<path style="fill:none;stroke-width:0.7;stroke-linecap:round;stroke-linejoin:round;stroke-miterlimit:3;stroke:#000000;stroke-opacity:0.301961" d="M7.75 -3.5Q8.7 -2.5 9.65 -2.05L9.75 -2Q10 -3.5 9.55 -5.05Q8.35 -4.7 7.4 -3.9L7.75 -3.5z" />
<path style="fill:none;stroke-width:0.7;stroke-linecap:round;stroke-linejoin:round;stroke-miterlimit:3;stroke:#000000;stroke-opacity:0.301961" d="M-0.25 -4.8L0.2 -5.25Q-0.95 -6.1 -2.45 -6.5Q-2.95 -4.75 -2.65 -3.1L-2.55 -3.15" />
<path style="fill:none;stroke-width:0.7;stroke-linecap:round;stroke-linejoin:round;stroke-miterlimit:3;stroke:#000000;stroke-opacity:0.301961" d="M-0.25 -4.8Q-1.4 -3.65 -2.55 -3.15" />
</g>
</svg>
