<?xml version="1.0" encoding="utf-8"?>
<svg version="1.1" id="Layer_1"
xmlns="http://www.w3.org/2000/svg"
xmlns:xlink="http://www.w3.org/1999/xlink"
width="10px" height="9px"
xml:space="preserve">
<g id="PathID_2010" transform="matrix(1, 0, 0, 1, 3.95, 3.8)">
<path style="fill:#156679;fill-opacity:1" d="M4.75 1.15Q4.3 1 4.1 1.85L3.45 0.9L4.1 1.85Q3.4 1.35 3.25 2.6Q2.95 2 2.3 1.6Q2.95 2 3.25 2.6Q2.5 2.5 2.15 3.65L-0.1 0.75Q-2.85 0.4 -3.7 -0.6L-3.8 -0.85Q-4.15 -2.25 -3.5 -3.1Q-2.2 -4 -0.9 -3.7Q0.65 -3.35 1.55 -2.65L3.55 -0.75Q4.6 0.5 4.75 1.15" />
<path style="fill:#DFEFF3;fill-opacity:1" d="M5.35 2.8L4.3 2.2L4.2 2.1L4.3 2.2Q4.85 2.9 4.35 3.95L3.5 3.25L3.25 2.6L3.5 3.25L3.5 4.5L2.35 3.95L2.15 3.65Q2.5 2.5 3.25 2.6Q3.4 1.35 4.1 1.85L4.2 2.1L4.1 1.85Q4.3 1 4.75 1.15Q5.25 1.95 5.35 2.8" />
<path style="fill:#0F3F4A;fill-opacity:1" d="M-3.7 -0.6Q-2.85 0.4 -0.1 0.75L2.15 3.65L2.35 3.95L1.3 3.3L0.25 2.6Q-0.6 2 -1.6 1.45Q-3.25 0.45 -3.55 -0.15L-3.7 -0.6" />
<path style="fill:none;stroke-width:0.7;stroke-linecap:round;stroke-linejoin:miter;stroke-miterlimit:5;stroke:#000000;stroke-opacity:0.4" d="M-3.8 -0.85L-3.7 -0.6" />
<path style="fill:none;stroke-width:0.7;stroke-linecap:round;stroke-linejoin:miter;stroke-miterlimit:5;stroke:#000000;stroke-opacity:0.4" d="M3.25 2.6Q2.95 2 2.3 1.6" />
<path style="fill:none;stroke-width:0.7;stroke-linecap:round;stroke-linejoin:miter;stroke-miterlimit:5;stroke:#000000;stroke-opacity:0.4" d="M4.75 1.15Q4.6 0.5 3.55 -0.75" />
<path style="fill:none;stroke-width:0.7;stroke-linecap:round;stroke-linejoin:miter;stroke-miterlimit:5;stroke:#000000;stroke-opacity:0.4" d="M3.25 2.6L3.5 3.25L4.35 3.95Q4.85 2.9 4.3 2.2L4.2 2.1L4.1 1.85L3.45 0.9" />
<path style="fill:none;stroke-width:0.7;stroke-linecap:round;stroke-linejoin:miter;stroke-miterlimit:5;stroke:#000000;stroke-opacity:0.4" d="M2.35 3.95L1.3 3.3L0.25 2.6Q-0.6 2 -1.6 1.45Q-3.25 0.45 -3.55 -0.15L-3.7 -0.6" />
<path style="fill:none;stroke-width:0.7;stroke-linecap:round;stroke-linejoin:miter;stroke-miterlimit:5;stroke:#000000;stroke-opacity:0.4" d="M3.5 3.25L3.5 4.5L2.35 3.95" />
<path style="fill:none;stroke-width:0.7;stroke-linecap:round;stroke-linejoin:miter;stroke-miterlimit:5;stroke:#000000;stroke-opacity:0.4" d="M4.3 2.2L5.35 2.8Q5.25 1.95 4.75 1.15" />
</g>
</svg>
