<?xml version="1.0" encoding="utf-8"?>
<svg version="1.1" id="Layer_1"
xmlns="http://www.w3.org/2000/svg"
xmlns:xlink="http://www.w3.org/1999/xlink"
width="18px" height="14px"
xml:space="preserve">
<g id="PathID_1313" transform="matrix(1, 0, 0, 1, 7.2, 6.8)">
<path style="fill:#2A221D;fill-opacity:1" d="M-4.85 1.95Q-5.75 1.1 -6.1 -1.15L-6.25 -3.2L-5.35 -4.65Q-4.15 -6.15 -2.6 -6.5L0 -6.8Q1.65 -6.7 3 -5.95L5.55 -3.65Q6.85 -2.1 7.05 0.9L7 3.6Q-1.5 5 -4.85 1.95" />
<path style="fill:#161210;fill-opacity:1" d="M-6.25 -3.2L-6.1 -1.15Q-5.75 1.1 -4.85 1.95Q-1.5 5 7 3.6L7.45 4.65Q8.25 5.65 10.65 6.65L6.25 6.7L1.15 6.6Q-2.75 6.3 -4.5 5.45Q-6.05 4.7 -6.7 2.65Q-7.15 1.3 -7.05 0.2L-6.25 -3.2" />
<path style="fill:none;stroke-width:0.7;stroke-linecap:round;stroke-linejoin:miter;stroke-miterlimit:5;stroke:#000000;stroke-opacity:0.4" d="M-2.6 -6.5Q-4.15 -6.15 -5.35 -4.65L-6.25 -3.2" />
<path style="fill:none;stroke-width:0.7;stroke-linecap:round;stroke-linejoin:miter;stroke-miterlimit:5;stroke:#000000;stroke-opacity:0.4" d="M1.15 6.6Q-2.75 6.3 -4.5 5.45Q-6.05 4.7 -6.7 2.65Q-7.15 1.3 -7.05 0.2L-6.25 -3.2" />
</g>
<g id="PathID_1314" transform="matrix(1, 0, 0, 1, 7.2, 6.8)">
<path style="fill:#EAE6E3;fill-opacity:1" d="M1.1 -2.1Q0.4 -0.6 -1.15 -0.15L-4.05 -0.4Q-6.25 -2.35 -4.7 -5.45L-2.9 -6.5Q-4.3 -4.15 -3.55 -3.85Q-2.85 -3.6 -0.8 -4.95Q0.4 -5.7 1.1 -4.65Q1.8 -3.65 1.1 -2.1" />
</g>
</svg>
