<?xml version="1.0" encoding="utf-8"?>
<svg version="1.1" id="Layer_1"
xmlns="http://www.w3.org/2000/svg"
xmlns:xlink="http://www.w3.org/1999/xlink"
width="18px" height="14px"
xml:space="preserve">
<g id="PathID_1947" transform="matrix(1, 0, 0, 1, 7.25, 6.8)">
<path style="fill:#EEE7DD;fill-opacity:1" d="M-6.25 -3.2Q-5.75 -4.25 -4.85 -5.1L-4.6 -5.3L-4.45 -5.4L-2.6 -6.5L0 -6.8Q1.65 -6.7 3 -5.95Q4 -5.45 4.8 -4.55L4.95 -4.35L5.55 -3.65L6.15 -2.55L6.9 -0.25Q7.4 1.5 7.05 3.25L7 3.6L6.95 3.55Q1.6 4.75 -1.4 3.6Q-4.4 2.45 -5.45 1.45Q-6.55 0.4 -6.25 -3.2" />
<path style="fill:#A3988D;fill-opacity:1" d="M-5.45 1.45Q-4.4 2.45 -1.4 3.6Q1.6 4.75 6.95 3.55L7 3.6L7.45 4.65Q8.25 5.65 10.65 6.65Q3.7 6.9 1.15 6.6L-3.7 5.7Q-6 5.2 -6.65 3.75Q-7.3 2.3 -7.05 0.2Q-6.85 -1.95 -6.25 -3.2Q-6.55 0.4 -5.45 1.45" />
<path style="fill:none;stroke-width:0.7;stroke-linecap:round;stroke-linejoin:miter;stroke-miterlimit:5;stroke:#000000;stroke-opacity:0.4" d="M1.15 6.6L-3.7 5.7Q-6 5.2 -6.65 3.75Q-7.3 2.3 -7.05 0.2Q-6.85 -1.95 -6.25 -3.2Q-5.75 -4.25 -4.85 -5.1L-4.6 -5.3" />
<path style="fill:none;stroke-width:0.7;stroke-linecap:round;stroke-linejoin:miter;stroke-miterlimit:5;stroke:#000000;stroke-opacity:0.4" d="M-4.45 -5.4L-2.6 -6.5" />
</g>
<g id="PathID_1948" transform="matrix(1, 0, 0, 1, 7.25, 6.8)">
<path style="fill:#FFCE2E;fill-opacity:1" d="M-6.65 -1.9Q-6.3 -2.25 -5.85 -2.25Q-5.35 -2.25 -5 -1.9Q-4.7 -1.6 -4.55 -1.05Q-4.45 -0.6 -4.75 -0.25Q-5.05 0.1 -5.85 0.1Q-6.65 0.1 -6.9 -0.3Q-7.2 -0.65 -7.1 -1.1L-6.65 -1.9M-4.95 -3.65Q-5.25 -4 -5.15 -4.45L-4.7 -5.25L-3.9 -5.6Q-3.4 -5.6 -3.05 -5.25L-2.6 -4.4Q-2.5 -3.95 -2.8 -3.6Q-3.1 -3.25 -3.9 -3.25Q-4.7 -3.25 -4.95 -3.65" />
<path style="fill:none;stroke-width:0.7;stroke-linecap:round;stroke-linejoin:round;stroke-miterlimit:3;stroke:#A319C6;stroke-opacity:0.501961" d="M-6.65 -1.9Q-6.3 -2.25 -5.85 -2.25Q-5.35 -2.25 -5 -1.9Q-4.7 -1.6 -4.55 -1.05Q-4.45 -0.6 -4.75 -0.25Q-5.05 0.1 -5.85 0.1Q-6.65 0.1 -6.9 -0.3Q-7.2 -0.65 -7.1 -1.1L-6.65 -1.9z" />
<path style="fill:none;stroke-width:0.7;stroke-linecap:round;stroke-linejoin:round;stroke-miterlimit:3;stroke:#A319C6;stroke-opacity:0.501961" d="M-4.95 -3.65Q-5.25 -4 -5.15 -4.45L-4.7 -5.25L-3.9 -5.6Q-3.4 -5.6 -3.05 -5.25L-2.6 -4.4Q-2.5 -3.95 -2.8 -3.6Q-3.1 -3.25 -3.9 -3.25Q-4.7 -3.25 -4.95 -3.65z" />
</g>
</svg>
