<?xml version="1.0" encoding="utf-8"?>
<svg version="1.1" id="Layer_1"
xmlns="http://www.w3.org/2000/svg"
xmlns:xlink="http://www.w3.org/1999/xlink"
width="14px" height="14px"
xml:space="preserve">
<g id="PathID_1977" transform="matrix(1, 0, 0, 1, 7, 6.8)">
<path style="fill:#650F1C;fill-opacity:1" d="M-6.25 -3.2Q-5 -5.7 -2.6 -6.5Q0.1 -7.35 2.75 -5.95Q4.1 -5.25 4.95 -4.35L6.2 -2.5Q6.85 0 5.4 2.35Q3.7 5.1 0.2 5.1Q-6.95 5.1 -6.25 -3.2" />
<path style="fill:#3F060D;fill-opacity:1" d="M0.2 5.1Q3.7 5.1 5.4 2.35Q6.85 0 6.2 -2.5Q6.8 -1.15 6.8 0.4Q6.8 3.25 4.8 5.15Q2.85 7 0 6.85Q-2.85 6.7 -4.85 4.55Q-6.85 2.45 -6.85 -0.4Q-6.85 -1.95 -6.25 -3.2Q-6.95 5.1 0.2 5.1" />
<path style="fill:none;stroke-width:0.7;stroke-linecap:round;stroke-linejoin:miter;stroke-miterlimit:5;stroke:#000000;stroke-opacity:0.4" d="M4.95 -4.35L6.2 -2.5Q6.8 -1.15 6.8 0.4Q6.8 3.25 4.8 5.15Q2.85 7 0 6.85Q-2.85 6.7 -4.85 4.55Q-6.85 2.45 -6.85 -0.4Q-6.85 -1.95 -6.25 -3.2Q-5 -5.7 -2.6 -6.5" />
</g>
<g id="PathID_1978" transform="matrix(1, 0, 0, 1, 7, 6.8)">
<radialGradient
id="RadialGradID_501" gradientUnits="userSpaceOnUse" gradientTransform="matrix(0.0078125, 0, 0.00100708, 0.0078125, -2.2, -3.95)" spreadMethod ="pad" cx="0" cy="0" r="819.2" fx="0" fy="0" >
<stop  offset="0"  style="stop-color:#FFDBC2;stop-opacity:1" />
<stop  offset="1"  style="stop-color:#F5B1B2;stop-opacity:1" />
</radialGradient>
<path style="fill:url(#RadialGradID_501) " d="M0.55 2.3Q3.2 0.85 2.5 -0.95Q1.75 -2.8 -0.3 -2.45Q0 -1.1 -0.5 -0.05Q-1.75 1.9 -3.1 0.7Q-3.9 -1.15 -1.65 -2.7Q-2.65 -4.2 -4 -2.95Q-5.9 -0.35 -3.55 4.1Q-5.5 1.95 -6.25 -0.55Q-2.1 3.75 0.55 2.3M-6.25 -0.55Q-6.35 -3.45 -4.3 -4.7Q-2.35 -5.75 -0.35 -3.3L3.1 -3.2Q5.2 -1.35 3.85 1.3Q1.75 3.9 -1.7 5Q-3.1 4.55 -3.55 4.1M-1.25 -1.9L-2.5 -0.45Q-2.75 0.15 -2.35 0.35Q-2.05 0.5 -1.6 -0.4Q-1.25 -1.25 -1.25 -1.9" />
<path style="fill:#D07F7F;fill-opacity:1" d="M-6.25 -0.55Q-5.5 1.95 -3.55 4.1Q-3.1 4.55 -1.7 5L-3.7 5.45Q-5.7 3.3 -6.15 0.4L-6.25 -0.55" />
</g>
</svg>
