<?xml version="1.0" encoding="utf-8"?>
<svg version="1.1" id="Layer_1"
xmlns="http://www.w3.org/2000/svg"
xmlns:xlink="http://www.w3.org/1999/xlink"
width="9px" height="8px"
xml:space="preserve">
<g id="PathID_1724" transform="matrix(1, 0, 0, 1, 3.95, 3.8)">
<linearGradient
id="LinearGradID_479" gradientUnits="userSpaceOnUse" gradientTransform="matrix(-0.00161743, -0.00161743, 0.00326538, -0.00326538, 0.65, 1.05)" spreadMethod ="pad" x1="-819.2" y1="0" x2="819.2" y2="0" >
<stop  offset="0.298039" style="stop-color:#402B1A;stop-opacity:1" />
<stop  offset="0.815686" style="stop-color:#7D553B;stop-opacity:1" />
</linearGradient>
<path style="fill:url(#LinearGradID_479) " d="M3.45 0.9L4.2 2.1Q4.55 2.6 3.5 3.25Q3.25 2.2 2.3 1.6Q3.25 2.2 3.5 3.25L3.4 3.55Q3.25 3.75 2.7 3.75Q1.95 2.25 -0.1 0.75Q-2.85 0.4 -3.7 -0.6L-3.8 -0.85Q-3.95 -2.55 -3.5 -3.1Q-2.2 -4 -0.9 -3.7Q0.65 -3.35 2 -1.95L2.8 -1.1L3.6 -0.1Q4.05 0.5 4.2 2.1L3.45 0.9" />
<linearGradient
id="LinearGradID_480" gradientUnits="userSpaceOnUse" gradientTransform="matrix(-0.00109863, -0.00109863, 0.00189209, -0.00189209, -0.5, 2.2)" spreadMethod ="pad" x1="-819.2" y1="0" x2="819.2" y2="0" >
<stop  offset="0.298039" style="stop-color:#1E140C;stop-opacity:1" />
<stop  offset="0.815686" style="stop-color:#5B3F2D;stop-opacity:1" />
</linearGradient>
<path style="fill:url(#LinearGradID_480) " d="M1.3 3.3L-0.2 2.3L-3.55 -0.15L-3.7 -0.6Q-2.85 0.4 -0.1 0.75Q1.95 2.25 2.7 3.75Q2.05 3.9 1.3 3.3" />
<path style="fill:none;stroke-width:0.7;stroke-linecap:round;stroke-linejoin:miter;stroke-miterlimit:5;stroke:#000000;stroke-opacity:0.4" d="M4.2 2.1Q4.05 0.5 3.6 -0.1L2.8 -1.1L2 -1.95" />
<path style="fill:none;stroke-width:0.7;stroke-linecap:round;stroke-linejoin:miter;stroke-miterlimit:5;stroke:#000000;stroke-opacity:0.4" d="M-3.8 -0.85L-3.7 -0.6" />
<path style="fill:none;stroke-width:0.7;stroke-linecap:round;stroke-linejoin:miter;stroke-miterlimit:5;stroke:#000000;stroke-opacity:0.4" d="M2.7 3.75Q3.25 3.75 3.4 3.55L3.5 3.25Q3.25 2.2 2.3 1.6" />
<path style="fill:none;stroke-width:0.7;stroke-linecap:round;stroke-linejoin:miter;stroke-miterlimit:5;stroke:#000000;stroke-opacity:0.4" d="M4.2 2.1L3.45 0.9" />
<path style="fill:none;stroke-width:0.7;stroke-linecap:round;stroke-linejoin:miter;stroke-miterlimit:5;stroke:#000000;stroke-opacity:0.4" d="M3.5 3.25Q4.55 2.6 4.2 2.1" />
<path style="fill:none;stroke-width:0.7;stroke-linecap:round;stroke-linejoin:miter;stroke-miterlimit:5;stroke:#000000;stroke-opacity:0.4" d="M-3.7 -0.6L-3.55 -0.15L-0.2 2.3L1.3 3.3Q2.05 3.9 2.7 3.75" />
</g>
</svg>
