<?xml version="1.0" encoding="utf-8"?>
<svg version="1.1" id="Layer_1"
xmlns="http://www.w3.org/2000/svg"
xmlns:xlink="http://www.w3.org/1999/xlink"
width="20px" height="21px"
xml:space="preserve">
<g id="PathID_2267" transform="matrix(1, 0, 0, 1, 9.55, 9.85)">
<path style="fill:#322E23;fill-opacity:1" d="M-7.15 -2.85L-7.1 -2.9L-5.7 -4.2L-5 -4.9L-4.9 -5L-2.1 -7.3L0.2 -9.15Q4.85 -10.5 6.7 -9.15L7.45 -6.9L7.6 -6.25Q8 -4.15 7.9 -2.3Q6.5 8.25 -1.55 7.3L-2.5 7.15L-3.85 6.8Q-10.05 4.1 -8.45 -0.65L-8.3 -1.05L-8.3 -1.15L-7.85 -2.15L-7.15 -2.85" />
<path style="fill:#15130F;fill-opacity:1" d="M8.6 -6.35L8.7 -6.1L8.95 -5.5Q9.6 -3.7 9.25 -1.55L8.65 4.05Q8.5 7.05 5.45 8.75Q3.45 9.85 1.25 10.1L0.6 10.15L-1.15 10.15Q-4.75 9.8 -7.2 7.25Q-9.65 4.65 -9.4 1.9Q-9.3 0.7 -8.7 -0.6L-7.85 -2.15L-8.3 -1.15L-8.3 -1.05L-8.45 -0.65Q-10.05 4.1 -3.85 6.8L-2.5 7.15L-1.55 7.3Q6.5 8.25 7.9 -2.3Q8 -4.15 7.6 -6.25L7.45 -6.9L6.7 -9.15Q7.5 -8.55 8.6 -6.35" />
<path style="fill:none;stroke-width:0.7;stroke-linecap:round;stroke-linejoin:miter;stroke-miterlimit:5;stroke:#000000;stroke-opacity:0.4" d="M-7.85 -2.15L-8.7 -0.6Q-9.3 0.7 -9.4 1.9Q-9.65 4.65 -7.2 7.25Q-4.75 9.8 -1.15 10.15L0.6 10.15L1.25 10.1Q3.45 9.85 5.45 8.75Q8.5 7.05 8.65 4.05L9.25 -1.55Q9.6 -3.7 8.95 -5.5L8.7 -6.1L8.6 -6.35Q7.5 -8.55 6.7 -9.15" />
<path style="fill:none;stroke-width:0.7;stroke-linecap:round;stroke-linejoin:miter;stroke-miterlimit:5;stroke:#000000;stroke-opacity:0.4" d="M0.2 -9.15L-2.1 -7.3L-4.9 -5L-5 -4.9L-5.7 -4.2L-7.1 -2.9" />
<path style="fill:none;stroke-width:0.7;stroke-linecap:round;stroke-linejoin:miter;stroke-miterlimit:5;stroke:#000000;stroke-opacity:0.4" d="M-7.15 -2.85L-7.85 -2.15" />
</g>
</svg>
