<?xml version="1.0" encoding="utf-8"?>
<svg version="1.1" id="Layer_1"
xmlns="http://www.w3.org/2000/svg"
xmlns:xlink="http://www.w3.org/1999/xlink"
width="17px" height="17px"
xml:space="preserve">
<g id="PathID_1449" transform="matrix(1, 0, 0, 1, 8.85, 8.05)">
<radialGradient
id="RadialGradID_395" gradientUnits="userSpaceOnUse" gradientTransform="matrix(0.00836182, 0, 0, 0.00836182, -3.65, -3.65)" spreadMethod ="pad" cx="0" cy="0" r="819.2" fx="0" fy="0" >
<stop  offset="0.0509804"  style="stop-color:#79CCDE;stop-opacity:1" />
<stop  offset="1"  style="stop-color:#434769;stop-opacity:1" />
</radialGradient>
<path style="fill:url(#RadialGradID_395) " d="M1.15 -6.15L-3.85 -6L-6.9 -3.75Q-8.1 -1.7 -8.55 0.5L-8.45 -1.5Q-8.1 -3.65 -6.4 -5.6Q-5.55 -6.55 -4.15 -7.15Q-2.05 -8 0.75 -7.7L1.35 -7.65L1.15 -6.15" />
<path style="fill:#15182E;fill-opacity:1" d="M5.5 -1.65Q5.7 -0.65 5.3 0.3Q4.5 2.25 4.6 2.85Q3.8 1.5 4.4 0.5Q5 -1 3 -2.3Q1.45 -2.65 -0.15 -1.95L-2.4 -0.35L-1.5 -1.7L-1.05 -2L-0.75 -2.4Q0.6 -4.15 -0.2 -4.6L-4.45 -4.75Q-5.8 -4.35 -6.9 -3.75L-3.85 -6L1.15 -6.15Q2.75 -5.6 4.1 -4.05L4.25 -3.9L0.8 -3.25L-0.75 -2.4L0.8 -3.25L4.25 -3.9Q5.25 -2.75 5.5 -1.65" />
<path style="fill:#434769;fill-opacity:1" d="M4.25 -3.9L4.1 -4.05Q2.75 -5.6 1.15 -6.15L1.35 -7.65Q3.2 -7.3 4.6 -6.15L5.85 -4.9L6.05 -4.65L5.5 -1.65Q5.25 -2.75 4.25 -3.9" />
<radialGradient
id="RadialGradID_396" gradientUnits="userSpaceOnUse" gradientTransform="matrix(0.00762939, 0, 0, 0.00762939, 10.4, 3)" spreadMethod ="pad" cx="0" cy="0" r="819.2" fx="0" fy="0" >
<stop  offset="0"  style="stop-color:#DFA7EE;stop-opacity:1" />
<stop  offset="0.937255"  style="stop-color:#434769;stop-opacity:1" />
</radialGradient>
<path style="fill:url(#RadialGradID_396) " d="M4.6 2.85Q4.5 2.25 5.3 0.3Q5.7 -0.65 5.5 -1.65L6.05 -4.65Q7.65 -2.55 7.8 -0.05L7.85 0.4Q8.2 2.55 7.45 3.5Q7.1 4 5.7 4.55Q4.7 3.65 4.6 2.85" />
<path style="fill:#2B2C3F;fill-opacity:1" d="M-4.45 -4.75L-0.2 -4.6Q0.6 -4.15 -0.75 -2.4L-1.05 -2L-1.5 -1.7Q-4.25 -2.9 -6.65 -1.3Q-7.9 -0.5 -8.55 0.5Q-8.1 -1.7 -6.9 -3.75Q-5.8 -4.35 -4.45 -4.75M2.2 1.25Q1.3 -0.55 -0.05 -0.75Q-2.3 -1.25 -3.15 2.4Q-3 0.8 -2.4 -0.35L-0.15 -1.95Q1.45 -2.65 3 -2.3Q5 -1 4.4 0.5Q3.8 1.5 4.6 2.85Q4.7 3.65 5.7 4.55L5.1 6.45Q2.2 4.2 2.2 1.25" />
<radialGradient
id="RadialGradID_397" gradientUnits="userSpaceOnUse" gradientTransform="matrix(0.013382, 0, 0, 0.013382, -4.65, 7.55)" spreadMethod ="pad" cx="0" cy="0" r="819.2" fx="0" fy="0" >
<stop  offset="0"  style="stop-color:#8288AF;stop-opacity:1" />
<stop  offset="1"  style="stop-color:#353954;stop-opacity:1" />
</radialGradient>
<path style="fill:url(#RadialGradID_397) " d="M-2.4 -0.35Q-3 0.8 -3.15 2.4Q-2.3 -1.25 -0.05 -0.75Q1.3 -0.55 2.2 1.25Q2.2 4.2 5.1 6.45L4.4 6.45Q4.05 6.7 4 7.2L2 7.55L0.2 7.85L-2.45 7.55L-1.25 4.25L-3.8 7.05Q-8.2 4.8 -8.55 0.5Q-7.9 -0.5 -6.65 -1.3Q-4.25 -2.9 -1.5 -1.7L-2.4 -0.35M-3.15 4.25L-3.15 2.4L-3.15 4.25" />
<path style="fill:none;stroke-width:0.7;stroke-linecap:round;stroke-linejoin:miter;stroke-miterlimit:5;stroke:#000000;stroke-opacity:0.301961" d="M1.35 -7.65L0.75 -7.7Q-2.05 -8 -4.15 -7.15Q-5.55 -6.55 -6.4 -5.6Q-8.1 -3.65 -8.45 -1.5L-8.55 0.5" />
<path style="fill:none;stroke-width:0.7;stroke-linecap:round;stroke-linejoin:miter;stroke-miterlimit:5;stroke:#000000;stroke-opacity:0.301961" d="M-3.85 -6L1.15 -6.15" />
<path style="fill:none;stroke-width:0.7;stroke-linecap:round;stroke-linejoin:miter;stroke-miterlimit:5;stroke:#000000;stroke-opacity:0.301961" d="M1.35 -7.65Q3.2 -7.3 4.6 -6.15L5.85 -4.9L6.05 -4.65Q7.65 -2.55 7.8 -0.05L7.85 0.4" />
<path style="fill:none;stroke-width:0.7;stroke-linecap:round;stroke-linejoin:miter;stroke-miterlimit:5;stroke:#000000;stroke-opacity:0.301961" d="M2 7.55L0.2 7.85L-2.45 7.55L-1.25 4.25L-3.8 7.05Q-8.2 4.8 -8.55 0.5" />
<path style="fill:none;stroke-width:0.7;stroke-linecap:round;stroke-linejoin:miter;stroke-miterlimit:5;stroke:#000000;stroke-opacity:0.2" d="M-1.5 -1.7L-1.05 -2L-0.75 -2.4" />
<path style="fill:none;stroke-width:0.7;stroke-linecap:round;stroke-linejoin:miter;stroke-miterlimit:5;stroke:#000000;stroke-opacity:0.2" d="M-0.75 -2.4L0.8 -3.25L4.25 -3.9" />
<path style="fill:none;stroke-width:0.7;stroke-linecap:round;stroke-linejoin:miter;stroke-miterlimit:5;stroke:#000000;stroke-opacity:0.301961" d="M4.25 -3.9L4.1 -4.05Q2.75 -5.6 1.15 -6.15" />
<path style="fill:none;stroke-width:0.7;stroke-linecap:round;stroke-linejoin:miter;stroke-miterlimit:5;stroke:#000000;stroke-opacity:0.301961" d="M5.5 -1.65Q5.7 -0.65 5.3 0.3Q4.5 2.25 4.6 2.85Q4.7 3.65 5.7 4.55" />
<path style="fill:none;stroke-width:0.7;stroke-linecap:round;stroke-linejoin:miter;stroke-miterlimit:5;stroke:#000000;stroke-opacity:0.301961" d="M4.25 -3.9Q5.25 -2.75 5.5 -1.65" />
<path style="fill:none;stroke-width:0.7;stroke-linecap:round;stroke-linejoin:miter;stroke-miterlimit:5;stroke:#000000;stroke-opacity:0.2" d="M-2.4 -0.35Q-3 0.8 -3.15 2.4" />
<path style="fill:none;stroke-width:0.7;stroke-linecap:round;stroke-linejoin:miter;stroke-miterlimit:5;stroke:#000000;stroke-opacity:0.2" d="M-1.5 -1.7L-2.4 -0.35" />
<path style="fill:none;stroke-width:0.7;stroke-linecap:round;stroke-linejoin:miter;stroke-miterlimit:5;stroke:#000000;stroke-opacity:0.2" d="M-3.15 2.4L-3.15 4.25" />
</g>
<g id="PathID_1450" transform="matrix(1, 0, 0, 1, 8.85, 8.05)">
<path style="fill:#FFFFFF;fill-opacity:1" d="M2.75 -6.05Q2.75 -6.6 3.3 -6.5Q3.85 -6.4 3.85 -5.85L3.7 -5.55L3.45 -5.35L2.95 -5.65L2.75 -6.05M5.5 -3.8L5.35 -3.75Q5.1 -3.75 5.1 -4.05Q5.1 -4.4 5.5 -4.2L5.5 -3.8M6.4 1.85L6.55 2.05L6.5 2.3L6.4 2.35L6.2 2.1L6.4 1.85M5.95 0.75L5.9 0.55Q5.9 -0.3 6.35 -0.55Q6.8 -0.8 6.8 0Q6.8 0.95 6.25 0.95L5.95 0.75" />
</g>
</svg>
