<?xml version="1.0" encoding="utf-8"?>
<svg version="1.1" id="Layer_1"
xmlns="http://www.w3.org/2000/svg"
xmlns:xlink="http://www.w3.org/1999/xlink"
width="18px" height="14px"
xml:space="preserve">
<g id="PathID_2262" transform="matrix(1, 0, 0, 1, 7.25, 6.8)">
<path style="fill:#322E23;fill-opacity:1" d="M-6.25 -3.2Q-5.75 -4.25 -4.85 -5.1L-4.6 -5.3L-4.45 -5.4L-2.6 -6.5L0 -6.8L2.05 -6.35L3 -5.95Q4 -5.45 4.8 -4.55L4.95 -4.35L5.55 -3.65L6.15 -2.55L6.9 -0.25Q7.4 1.5 7.05 3.25L7 3.6L6.95 3.55L3.15 4.15Q0.45 4.3 -1.4 3.6Q-3.7 2.7 -4.85 1.95L-5.45 1.45Q-6.55 0.4 -6.25 -3.2" />
<path style="fill:#15130F;fill-opacity:1" d="M-5.45 1.45L-4.85 1.95Q-3.7 2.7 -1.4 3.6Q0.45 4.3 3.15 4.15L6.95 3.55L7 3.6L7.45 4.65Q8.25 5.65 10.65 6.65L9 6.7Q3.4 6.85 1.15 6.6L-3.7 5.7Q-6 5.2 -6.65 3.75L-7.05 2.05L-7.05 0.2Q-6.85 -1.95 -6.25 -3.2Q-6.55 0.4 -5.45 1.45" />
<path style="fill:none;stroke-width:0.7;stroke-linecap:round;stroke-linejoin:miter;stroke-miterlimit:5;stroke:#000000;stroke-opacity:0.4" d="M1.15 6.6L-3.7 5.7Q-6 5.2 -6.65 3.75L-7.05 2.05L-7.05 0.2Q-6.85 -1.95 -6.25 -3.2Q-5.75 -4.25 -4.85 -5.1L-4.6 -5.3" />
<path style="fill:none;stroke-width:0.7;stroke-linecap:round;stroke-linejoin:miter;stroke-miterlimit:5;stroke:#000000;stroke-opacity:0.4" d="M-4.45 -5.4L-2.6 -6.5" />
</g>
</svg>
