<?xml version="1.0" encoding="utf-8"?>
<svg version="1.1" id="Layer_1"
xmlns="http://www.w3.org/2000/svg"
xmlns:xlink="http://www.w3.org/1999/xlink"
width="5px" height="5px"
xml:space="preserve">
<g id="PathID_1900" transform="matrix(1, 0, 0, 1, 2.15, 2.2)">
<path style="fill:#FFFFFF;fill-opacity:1" d="M0.75 -1.8L1.05 -1.2L0.75 -0.6L0.1 -0.35Q-0.3 -0.35 -0.6 -0.6L-0.85 -1.2L-0.6 -1.8L0.1 -2.05L0.75 -1.8" />
</g>
<g id="PathID_1901" transform="matrix(1, 0, 0, 1, 2.15, 2.2)">
<path style="fill:#FFFFFF;fill-opacity:1" d="M-1.4 0.95L-1.8 0.8L-1.95 0.4L-1.8 0L-1.4 -0.15L-1 0L-0.85 0.4L-1 0.8L-1.4 0.95" />
</g>
<g id="PathID_1902" transform="matrix(1, 0, 0, 1, 2.15, 2.2)">
<path style="fill:#1D130E;fill-opacity:1" d="M1.55 -1.55Q2.2 -0.9 2.2 0Q2.2 0.85 1.55 1.5Q0.9 2.15 0 2.15Q-0.9 2.15 -1.55 1.5Q-2.15 0.85 -2.15 0Q-2.15 -0.9 -1.55 -1.55Q-0.9 -2.2 0 -2.2Q0.9 -2.2 1.55 -1.55" />
<path style="fill:none;stroke-width:0.7;stroke-linecap:round;stroke-linejoin:round;stroke-miterlimit:3;stroke:#000000;stroke-opacity:0.301961" d="M1.55 -1.55Q2.2 -0.9 2.2 0Q2.2 0.85 1.55 1.5Q0.9 2.15 0 2.15Q-0.9 2.15 -1.55 1.5Q-2.15 0.85 -2.15 0Q-2.15 -0.9 -1.55 -1.55Q-0.9 -2.2 0 -2.2Q0.9 -2.2 1.55 -1.55z" />
</g>
<g id="PathID_1903" transform="matrix(1, 0, 0, 1, 2.15, 2.2)">
<path style="fill:#FFFFFF;fill-opacity:1" d="M1.2 -0.15Q0.85 0.2 0.4 0.2Q-0.05 0.2 -0.4 -0.15L-0.7 -0.95L-0.4 -1.75L0.4 -2.05L1.2 -1.75L1.55 -0.95L1.2 -0.15" />
</g>
<g id="PathID_1904" transform="matrix(1, 0, 0, 1, 2.15, 2.2)">
<path style="fill:#FFFFFF;fill-opacity:1" d="M-1.7 0.3L-1.3 0.15Q-1.05 0.15 -0.9 0.3L-0.75 0.7L-0.9 1.1L-1.3 1.25L-1.7 1.1L-1.85 0.7L-1.7 0.3" />
</g>
</svg>
