<?xml version="1.0" encoding="utf-8"?>
<svg version="1.1" id="Layer_1"
xmlns="http://www.w3.org/2000/svg"
xmlns:xlink="http://www.w3.org/1999/xlink"
width="9px" height="8px"
xml:space="preserve">
<g id="PathID_1656" transform="matrix(1, 0, 0, 1, 3.9, 3.8)">
<path style="fill:#7B2411;fill-opacity:1" d="M3.05 -1.55L2.85 -1.3Q3.05 -2.4 3.45 -2.1L4 -1.6L4 -1.3Q3.3 -1.85 3.05 -1.55M4.2 0.8Q3.9 2.8 3.35 3.35L2.7 3.75Q2.05 3.9 1.3 3.3L-0.6 2.05L-2.15 1.05L-3.55 -0.15L-3.7 -0.6Q-2.85 0.4 -0.6 0.6Q1.35 1.85 1.95 2.6Q2.85 3.05 4.2 0.8" />
<path style="fill:#A9452B;fill-opacity:1" d="M1.95 2.6Q1.35 1.85 -0.6 0.6Q-2.85 0.4 -3.7 -0.6L-3.8 -0.85Q-4.15 -2.25 -3.5 -3.1Q-2.2 -4 -0.9 -3.7Q0.65 -3.35 1.5 -2.3L1.9 -1.8L2.5 -1.15Q2.6 -1.1 2.85 -1.3L3.05 -1.55Q3.3 -1.85 4 -1.3Q4.4 -0.95 4.2 0L4.2 0.8Q2.85 3.05 1.95 2.6M2.7 1.1Q3.25 -0.3 4.2 0Q3.25 -0.3 2.7 1.1" />
<path style="fill:none;stroke-width:0.7;stroke-linecap:round;stroke-linejoin:round;stroke-miterlimit:3;stroke:#000000;stroke-opacity:0.301961" d="M2.5 -1.15Q2.6 -1.1 2.85 -1.3Q3.05 -2.4 3.45 -2.1L4 -1.6L4 -1.3Q4.4 -0.95 4.2 0L4.2 0.8Q3.9 2.8 3.35 3.35L2.7 3.75Q2.05 3.9 1.3 3.3L-0.6 2.05L-2.15 1.05L-3.55 -0.15L-3.7 -0.6L-3.8 -0.85" />
<path style="fill:none;stroke-width:0.7;stroke-linecap:round;stroke-linejoin:round;stroke-miterlimit:3;stroke:#000000;stroke-opacity:0.301961" d="M2.85 -1.3L3.05 -1.55Q3.3 -1.85 4 -1.3" />
<path style="fill:none;stroke-width:0.7;stroke-linecap:round;stroke-linejoin:round;stroke-miterlimit:3;stroke:#000000;stroke-opacity:0.301961" d="M4.2 0Q3.25 -0.3 2.7 1.1" />
</g>
<g id="PathID_1657" transform="matrix(1, 0, 0, 1, 3.9, 3.8)">
<path style="fill:#D6EBF0;fill-opacity:1" d="M4.5 -2.35L4.2 -0.85Q3.35 -0.75 3.2 -1.2L3.3 -1.7L3.3 -1.75Q3.45 -2.25 3.85 -2.35Q2.95 -2.75 4.05 -3L3.85 -2.35Q3.45 -2.25 3.3 -1.75L4.5 -2.35M3.2 0.4Q3.55 -0.95 4.85 -0.35L4.2 0.95Q3.3 1.15 3.2 0.4" />
<path style="fill:none;stroke-width:0.7;stroke-linecap:round;stroke-linejoin:round;stroke-miterlimit:3;stroke:#000000;stroke-opacity:0.4" d="M4.5 -2.35L4.2 -0.85Q3.35 -0.75 3.2 -1.2L3.3 -1.7L3.3 -1.75Q2.95 -2.75 4.05 -3L3.85 -2.35L4.5 -2.35z" />
<path style="fill:none;stroke-width:0.7;stroke-linecap:round;stroke-linejoin:round;stroke-miterlimit:3;stroke:#000000;stroke-opacity:0.4" d="M3.3 -1.75Q3.45 -2.25 3.85 -2.35" />
<path style="fill:none;stroke-width:0.7;stroke-linecap:round;stroke-linejoin:round;stroke-miterlimit:3;stroke:#000000;stroke-opacity:0.4" d="M4.2 0.95L4.85 -0.35Q3.55 -0.95 3.2 0.4Q3.3 1.15 4.2 0.95z" />
</g>
<g id="PathID_1658" transform="matrix(1, 0, 0, 1, 3.9, 3.8)">
<path style="fill:#C56638;fill-opacity:1" d="M1.45 -0.35L1.45 0.15L1.1 0.2Q0 0.2 0.15 -0.95L0.45 -1.2Q1.05 -1.2 1.45 -0.35" />
<path style="fill:none;stroke-width:0.7;stroke-linecap:round;stroke-linejoin:round;stroke-miterlimit:3;stroke:#000000;stroke-opacity:0.4" d="M-1.7 -3.1L-1.2 -3.2Q-0.45 -3.2 -0.45 -2.45Q-0.45 -2.1 -0.7 -1.95L-1.15 -1.75" />
</g>
</svg>
