<?xml version="1.0" encoding="utf-8"?>
<svg version="1.1" id="Layer_1"
xmlns="http://www.w3.org/2000/svg"
xmlns:xlink="http://www.w3.org/1999/xlink"
width="14px" height="14px"
xml:space="preserve">
<g id="PathID_1351" transform="matrix(1, 0, 0, 1, 7, 6.8)">
<path style="fill:#EEECED;fill-opacity:1" d="M-6.4 -2.8L-6.35 -2.9L-5.6 -4.4Q-4.45 -6.05 -2.6 -6.5L0 -6.8Q2.15 -6.6 3.75 -5.45L4.95 -4.35L6.2 -2.5Q6.85 -0.05 4.65 2.7Q2.5 5.45 0.2 5.1Q-4.4 4.4 -5.85 0.7Q-6.6 -1.1 -6.4 -2.8" />
<path style="fill:#988B82;fill-opacity:1" d="M-5.85 0.7Q-4.4 4.4 0.2 5.1Q2.5 5.45 4.65 2.7Q6.85 -0.05 6.2 -2.5Q6.8 -1.15 6.8 0.4Q6.8 2.7 5.5 4.4L4.1 5.8Q2.3 7.05 0 6.85L-0.1 6.85Q-5.25 6.25 -6.55 1.7Q-7 0 -6.75 -1.55L-6.4 -2.8Q-6.6 -1.1 -5.85 0.7" />
<path style="fill:none;stroke-width:0.7;stroke-linecap:round;stroke-linejoin:miter;stroke-miterlimit:5;stroke:#000000;stroke-opacity:0.4" d="M4.95 -4.35L6.2 -2.5Q6.8 -1.15 6.8 0.4Q6.8 2.7 5.5 4.4L4.1 5.8Q2.3 7.05 0 6.85L-0.1 6.85Q-5.25 6.25 -6.55 1.7Q-7 0 -6.75 -1.55L-6.4 -2.8" />
<path style="fill:none;stroke-width:0.7;stroke-linecap:round;stroke-linejoin:miter;stroke-miterlimit:5;stroke:#000000;stroke-opacity:0.4" d="M-6.35 -2.9L-5.6 -4.4Q-4.45 -6.05 -2.6 -6.5" />
</g>
<g id="PathID_1352" transform="matrix(1, 0, 0, 1, 7, 6.8)">
<path style="fill:none;stroke-width:0.7;stroke-linecap:round;stroke-linejoin:round;stroke-miterlimit:3;stroke:#FF1C1C;stroke-opacity:0.8" d="M2.15 3.8L0.85 4.05Q0.2 3.95 -0.25 3.3Q-0.6 2.7 -0.5 1.7Q-0.4 0.65 0.25 0.2Q0.85 -0.25 1.55 -0.2Q2.25 -0.1 2.65 0.75Q2.95 1.6 2.85 2.6Q2.7 3.5 2.15 3.8z" />
</g>
<g id="PathID_1353" transform="matrix(1, 0, 0, 1, 7, 6.8)">
<path style="fill:none;stroke-width:0.7;stroke-linecap:round;stroke-linejoin:round;stroke-miterlimit:3;stroke:#7CE04E;stroke-opacity:1" d="M-2.85 3.6L-2.85 3.15Q-2.75 2.2 -2.1 1.7Q-1.5 1.2 -0.8 1.35Q-0.1 1.4 0.3 2.3Q0.65 3.15 0.5 4.05L0.35 4.65" />
<path style="fill:none;stroke-width:0.7;stroke-linecap:round;stroke-linejoin:round;stroke-miterlimit:3;stroke:#38A307;stroke-opacity:1" d="M0.35 4.65L-0.2 5.35Q-0.75 5.65 -1.25 5.55Q-1.8 5.4 -2.35 4.8Q-2.8 4.35 -2.85 3.6" />
</g>
<g id="PathID_1354" transform="matrix(1, 0, 0, 1, 7, 6.8)">
<path style="fill:none;stroke-width:0.7;stroke-linecap:round;stroke-linejoin:round;stroke-miterlimit:3;stroke:#000000;stroke-opacity:0.6" d="M-2.1 -1.75Q-1.4 -1.7 -1.05 -0.85Q-0.75 -0.05 -0.95 0.95Q-1.1 1.85 -1.65 2.15Q-2.2 2.45 -2.75 2.4Q-3.3 2.3 -3.75 1.65Q-4.25 1 -4.05 -0.05Q-3.85 -1.05 -3.35 -1.45Q-2.8 -1.9 -2.1 -1.75z" />
</g>
<g id="PathID_1355" transform="matrix(1, 0, 0, 1, 7, 6.8)">
<path style="fill:none;stroke-width:0.7;stroke-linecap:round;stroke-linejoin:round;stroke-miterlimit:3;stroke:#D7A400;stroke-opacity:0.8" d="M-3.4 3.1L-4 3.6Q-4.75 3.95 -5.25 3.25L-6 1.75Q-6.3 0.95 -5.75 0.25L-5.7 0.2" />
<path style="fill:none;stroke-width:0.7;stroke-linecap:round;stroke-linejoin:round;stroke-miterlimit:3;stroke:#FFC60E;stroke-opacity:0.8" d="M-5.7 0.2Q-5.3 -0.3 -4.55 -0.1Q-3.95 0 -3.55 0.85Q-3.2 1.75 -3.25 2.65L-3.4 3.1" />
</g>
<g id="PathID_1356" transform="matrix(1, 0, 0, 1, 7, 6.8)">
<path style="fill:none;stroke-width:0.7;stroke-linecap:round;stroke-linejoin:round;stroke-miterlimit:3;stroke:#1B9DFC;stroke-opacity:1" d="M-6.4 -2.35L-6.25 -2.55Q-5.75 -3 -5.25 -2.9Q-4.85 -2.85 -4.6 -1.95Q-4.5 -1.1 -4.65 -0.15L-5.25 1.1L-6.15 1.3" />
</g>
</svg>
