<?xml version="1.0" encoding="utf-8"?>
<svg version="1.1" id="Layer_1"
xmlns="http://www.w3.org/2000/svg"
xmlns:xlink="http://www.w3.org/1999/xlink"
width="11px" height="8px"
xml:space="preserve">
<g id="PathID_2361" transform="matrix(1, 0, 0, 1, 4.15, 4.45)">
<path style="fill:#79736E;fill-opacity:1" d="M-3.7 -1.1Q-4.1 -2.7 -3.2 -3.55Q-2.4 -4.4 -0.8 -4Q0.75 -3.6 1.35 -2.6L2.4 -0.75L2.55 -0.55Q3.05 0.1 4 0.45L4.85 0.75Q7.1 0.4 5.8 1.75L5.75 1.3L5.05 2.45Q4.25 1 2.4 1.85L3.55 3.1L1 2.95L-0.3 2L-1.45 1.25Q-3.15 0.2 -3.7 -1.1M2.4 1.85Q4.25 1 5.05 2.45M5.75 1.3Q5.65 0.9 4.85 0.75L4 0.45M4.85 0.75Q5.65 0.9 5.75 1.3L5.8 1.75" />
<path style="fill:none;stroke-width:0.7;stroke-linecap:round;stroke-linejoin:round;stroke-miterlimit:3;stroke:#000000;stroke-opacity:0.301961" d="M2.4 -0.75L2.55 -0.55Q3.05 0.1 4 0.45Q7.1 0.4 5.8 1.75L5.05 2.45L3.55 3.1L1 2.95L-0.3 2L-1.45 1.25Q-3.15 0.2 -3.7 -1.1" />
<path style="fill:none;stroke-width:0.7;stroke-linecap:round;stroke-linejoin:round;stroke-miterlimit:3;stroke:#000000;stroke-opacity:0.301961" d="M5.05 2.45Q4.25 1 2.4 1.85" />
<path style="fill:none;stroke-width:0.7;stroke-linecap:round;stroke-linejoin:round;stroke-miterlimit:3;stroke:#000000;stroke-opacity:0.301961" d="M4 0.45L4.85 0.75Q5.65 0.9 5.75 1.3L5.8 1.75" />
</g>
<g id="PathID_2362" transform="matrix(1, 0, 0, 1, 4.15, 4.45)">
<path style="fill:#BDB1A6;fill-opacity:1" d="M2.9 -0.25Q0.9 0.95 0.15 2.8L-3.25 0.05Q-5 -1.95 -3.3 -4.1Q-1.05 -5.1 1.3 -3.05L2.9 -0.25" />
<path style="fill:none;stroke-width:0.7;stroke-linecap:round;stroke-linejoin:round;stroke-miterlimit:3;stroke:#000000;stroke-opacity:0.4" d="M1.3 -3.05Q-1.05 -5.1 -3.3 -4.1Q-5 -1.95 -3.25 0.05L0.15 2.8Q0.9 0.95 2.9 -0.25L1.3 -3.05z" />
</g>
</svg>
