<?xml version="1.0" encoding="utf-8"?>
<svg version="1.1" id="Layer_1"
xmlns="http://www.w3.org/2000/svg"
xmlns:xlink="http://www.w3.org/1999/xlink"
width="14px" height="14px"
xml:space="preserve">
<g id="PathID_1540" transform="matrix(1, 0, 0, 1, 6.95, 6.8)">
<radialGradient
id="RadialGradID_440" gradientUnits="userSpaceOnUse" gradientTransform="matrix(0.0205994, 0.00372314, -0.00372314, 0.0205994, 7.45, 4.2)" spreadMethod ="pad" cx="0" cy="0" r="819.2" fx="19" fy="0" >
<stop  offset="0.309804"  style="stop-color:#120F0D;stop-opacity:1" />
<stop  offset="0.603922"  style="stop-color:#625549;stop-opacity:1" />
</radialGradient>
<path style="fill:url(#RadialGradID_440) " d="M0.05 -6.8Q1.95 -6.7 5 -4.35L6.25 -2.5Q6.85 -1.15 6.85 0.4L6.6 2.35Q6.1 3.95 4.85 5.15Q2.9 7 0.05 6.85Q-2.8 6.7 -4.8 4.55Q-6.65 2.65 -6.8 -0.4L-6.8 -1.1Q-6.7 -3.45 -5.05 -4.95Q-4 -6 -2.55 -6.5L0.05 -6.8" />
<path style="fill:none;stroke-width:0.7;stroke-linecap:round;stroke-linejoin:miter;stroke-miterlimit:5;stroke:#000000;stroke-opacity:0.4" d="M-2.55 -6.5Q-4 -6 -5.05 -4.95Q-6.7 -3.45 -6.8 -1.1L-6.8 -0.4Q-6.65 2.65 -4.8 4.55Q-2.8 6.7 0.05 6.85Q2.9 7 4.85 5.15Q6.1 3.95 6.6 2.35L6.85 0.4Q6.85 -1.15 6.25 -2.5L5 -4.35" />
</g>
</svg>
