<?xml version="1.0" encoding="utf-8"?>
<svg version="1.1" id="Layer_1"
xmlns="http://www.w3.org/2000/svg"
xmlns:xlink="http://www.w3.org/1999/xlink"
width="25px" height="19px"
xml:space="preserve">
<g id="PathID_1808" transform="matrix(1, 0, 0, 1, 9.4, 11.05)">
<path style="fill:#EC9D3A;fill-opacity:1" d="M-6.25 -3.2Q-5.9 -4.05 -4.8 -5.05L-2.6 -6.5L0 -6.8Q2.85 -6.65 4.8 -4.55L5.55 -3.65L6.2 -2.5Q7.3 1.75 5.45 3.65Q3.9 5.2 1.25 5.15Q-6.85 4.05 -6.25 -3.2" />
<path style="fill:#B86E10;fill-opacity:1" d="M1.25 5.15Q3.9 5.2 5.45 3.65Q7.3 1.75 6.2 -2.5Q6.8 -1.15 6.8 0.4Q6.8 3.25 4.8 5.15Q2.85 7 0 6.85Q-1.8 6.75 -3.25 5.9L-4.85 4.55Q-6.85 2.45 -6.85 -0.4Q-6.85 -1.95 -6.25 -3.2Q-6.85 4.05 1.25 5.15" />
<path style="fill:none;stroke-width:0.7;stroke-linecap:round;stroke-linejoin:miter;stroke-miterlimit:5;stroke:#000000;stroke-opacity:0.4" d="M5.55 -3.65L6.2 -2.5Q6.8 -1.15 6.8 0.4Q6.8 3.25 4.8 5.15Q2.85 7 0 6.85Q-1.8 6.75 -3.25 5.9L-4.85 4.55Q-6.85 2.45 -6.85 -0.4Q-6.85 -1.95 -6.25 -3.2Q-5.9 -4.05 -4.8 -5.05L-2.6 -6.5" />
</g>
<g id="PathID_1809" transform="matrix(1, 0, 0, 1, 9.4, 11.05)">
<path style="fill:#6C9841;fill-opacity:1" d="M9.25 -1.35Q9.15 2.95 7.6 7.4L5.6 7.9Q3.9 7.95 2.35 6.6L4.1 0L2.65 2.65Q1.25 2.25 2 -3.05L0.1 0.15L-1.85 6.15Q-5.25 5.2 -6.6 3.4Q-5.4 -4.15 -0.85 -8Q1.15 -4.2 7.65 -2.1L13.4 -2.9Q15.5 -0.35 15.55 4Q15.6 6.25 12.35 6L12.05 5.45Q10.45 2.5 9.25 -1.35" />
<path style="fill:#49662C;fill-opacity:1" d="M-7.6 0.25L-7.2 -1.8L-5 -4.95L-7.2 -1.8Q-7.35 -2.85 -8.2 -2.8Q-9.45 -3.75 -9.4 -4.65Q-9.45 -5.2 -9.15 -5.55Q-6.75 -7.9 -2.85 -9.45L-0.85 -8Q-5.4 -4.15 -6.6 3.4Q-7.75 1.95 -7.6 0.25M-1.85 6.15L0.1 0.15L2 -3.05Q1.25 2.25 2.65 2.65L4.1 0L2.35 6.6Q1.45 4.2 -1.85 6.15M7.6 7.4Q9.15 2.95 9.25 -1.35Q10.45 2.5 12.05 5.45L11.85 5.35Q10.7 4.5 9.8 4.95L9.45 1.9L9.75 6.45Q8.1 7.05 7.6 7.4M9.45 1.9L9.8 4.95" />
<path style="fill:none;stroke-width:0.7;stroke-linecap:round;stroke-linejoin:round;stroke-miterlimit:3;stroke:#000000;stroke-opacity:0.4" d="M12.05 5.45L12.35 6Q15.6 6.25 15.55 4Q15.5 -0.35 13.4 -2.9L7.65 -2.1Q1.15 -4.2 -0.85 -8" />
<path style="fill:none;stroke-width:0.7;stroke-linecap:round;stroke-linejoin:round;stroke-miterlimit:3;stroke:#000000;stroke-opacity:0.4" d="M-6.6 3.4Q-5.25 5.2 -1.85 6.15L0.1 0.15" />
<path style="fill:none;stroke-width:0.7;stroke-linecap:round;stroke-linejoin:round;stroke-miterlimit:3;stroke:#000000;stroke-opacity:0.4" d="M4.1 0L2.35 6.6Q3.9 7.95 5.6 7.9L7.6 7.4" />
<path style="fill:none;stroke-width:0.7;stroke-linecap:round;stroke-linejoin:round;stroke-miterlimit:3;stroke:#000000;stroke-opacity:0.4" d="M12.05 5.45L11.85 5.35Q10.7 4.5 9.8 4.95L9.75 6.45Q8.1 7.05 7.6 7.4" />
<path style="fill:none;stroke-width:0.7;stroke-linecap:round;stroke-linejoin:round;stroke-miterlimit:3;stroke:#000000;stroke-opacity:0.4" d="M9.8 4.95L9.45 1.9" />
<path style="fill:none;stroke-width:0.7;stroke-linecap:round;stroke-linejoin:round;stroke-miterlimit:3;stroke:#000000;stroke-opacity:0.4" d="M-0.85 -8L-2.85 -9.45Q-6.75 -7.9 -9.15 -5.55Q-9.45 -5.2 -9.4 -4.65Q-9.45 -3.75 -8.2 -2.8Q-7.35 -2.85 -7.2 -1.8L-5 -4.95" />
<path style="fill:none;stroke-width:0.7;stroke-linecap:round;stroke-linejoin:round;stroke-miterlimit:3;stroke:#000000;stroke-opacity:0.4" d="M-7.2 -1.8L-7.6 0.25Q-7.75 1.95 -6.6 3.4" />
<path style="fill:none;stroke-width:0.7;stroke-linecap:round;stroke-linejoin:round;stroke-miterlimit:3;stroke:#000000;stroke-opacity:0.4" d="M-1.85 6.15Q1.45 4.2 2.35 6.6" />
</g>
<g id="PathID_1810" transform="matrix(1, 0, 0, 1, 9.4, 11.05)">
<path style="fill:none;stroke-width:0.7;stroke-linecap:round;stroke-linejoin:round;stroke-miterlimit:3;stroke:#D9FFA8;stroke-opacity:0.501961" d="M-2.05 -8.85Q-5.7 -6.75 -8.35 -3.25" />
<path style="fill:none;stroke-width:0.7;stroke-linecap:round;stroke-linejoin:round;stroke-miterlimit:3;stroke:#D9FFA8;stroke-opacity:0.501961" d="M4.15 -4.75Q1.7 -0.15 0.55 5.2" />
<path style="fill:none;stroke-width:0.7;stroke-linecap:round;stroke-linejoin:round;stroke-miterlimit:3;stroke:#D9FFA8;stroke-opacity:0.501961" d="M12.3 -2.7Q13.1 1.4 15.05 4.45" />
<path style="fill:none;stroke-width:0.7;stroke-linecap:round;stroke-linejoin:round;stroke-miterlimit:3;stroke:#D9FFA8;stroke-opacity:0.501961" d="M8.95 -2.15L8.9 6.45" />
<path style="fill:none;stroke-width:0.7;stroke-linecap:round;stroke-linejoin:round;stroke-miterlimit:3;stroke:#D9FFA8;stroke-opacity:0.501961" d="M6.7 -2.85Q4.95 2.25 4.8 7.5" />
<path style="fill:none;stroke-width:0.7;stroke-linecap:round;stroke-linejoin:round;stroke-miterlimit:3;stroke:#D9FFA8;stroke-opacity:0.501961" d="M2 -6.05Q-1.95 -0.8 -3.85 5.2" />
<path style="fill:none;stroke-width:0.7;stroke-linecap:round;stroke-linejoin:round;stroke-miterlimit:3;stroke:#D9FFA8;stroke-opacity:0.501961" d="M-0.25 -7.45Q-5.05 -3.1 -7.3 2.85" />
</g>
<g id="PathID_1811" transform="matrix(1, 0, 0, 1, 9.4, 11.05)">
<path style="fill:none;stroke-width:0.7;stroke-linecap:round;stroke-linejoin:round;stroke-miterlimit:3;stroke:#D9FFA8;stroke-opacity:0.501961" d="M-4.75 -8.35Q-0.8 -3.35 7.25 -1.15Q11.2 0 14.2 -1.55" />
<path style="fill:none;stroke-width:0.7;stroke-linecap:round;stroke-linejoin:round;stroke-miterlimit:3;stroke:#D9FFA8;stroke-opacity:0.501961" d="M-7.85 -6.6Q-5.85 -2.25 -3.75 -1.1Q-1.65 0.1 -0.8 0.1Q-0.05 0.1 2.2 1.15Q4.45 2.15 8.05 2.85Q11.6 3.5 15 0.95" />
<path style="fill:none;stroke-width:0.7;stroke-linecap:round;stroke-linejoin:round;stroke-miterlimit:3;stroke:#D9FFA8;stroke-opacity:0.501961" d="M-8.15 -1.15Q-5.15 2.15 -1.6 3.35Q1.55 2.1 2.4 5.35Q3.7 6.35 6.2 6.3Q8.65 6.2 10.15 5.05" />
</g>
<g id="PathID_1812" transform="matrix(1, 0, 0, 1, 9.4, 11.05)">
<path style="fill:none;stroke-width:0.7;stroke-linecap:round;stroke-linejoin:round;stroke-miterlimit:3;stroke:#2E4F02;stroke-opacity:0.501961" d="M-1.9 -8.6Q-5.2 -6.15 -7.65 -2.8" />
<path style="fill:none;stroke-width:0.7;stroke-linecap:round;stroke-linejoin:round;stroke-miterlimit:3;stroke:#2E4F02;stroke-opacity:0.501961" d="M0.2 -7.2Q-3.9 -2.15 -6 3.9" />
<path style="fill:none;stroke-width:0.7;stroke-linecap:round;stroke-linejoin:round;stroke-miterlimit:3;stroke:#2E4F02;stroke-opacity:0.501961" d="M10.75 -2.5Q10.5 1.7 13.7 5.35" />
<path style="fill:none;stroke-width:0.7;stroke-linecap:round;stroke-linejoin:round;stroke-miterlimit:3;stroke:#2E4F02;stroke-opacity:0.501961" d="M7.95 -2.25Q6.35 2.5 7.1 7.2" />
<path style="fill:none;stroke-width:0.7;stroke-linecap:round;stroke-linejoin:round;stroke-miterlimit:3;stroke:#2E4F02;stroke-opacity:0.501961" d="M5.65 -3.95Q3.25 0.85 2.75 6.35" />
<path style="fill:none;stroke-width:0.7;stroke-linecap:round;stroke-linejoin:round;stroke-miterlimit:3;stroke:#2E4F02;stroke-opacity:0.501961" d="M3.1 -5.1Q-0.1 -0.45 -0.95 4.95" />
</g>
<g id="PathID_1813" transform="matrix(1, 0, 0, 1, 9.4, 11.05)">
<path style="fill:none;stroke-width:0.7;stroke-linecap:round;stroke-linejoin:round;stroke-miterlimit:3;stroke:#2E4F02;stroke-opacity:0.501961" d="M-7.1 -1.95Q-0.7 4.25 6.55 4.35Q13.75 4.4 15.4 1.95" />
<path style="fill:none;stroke-width:0.7;stroke-linecap:round;stroke-linejoin:round;stroke-miterlimit:3;stroke:#2E4F02;stroke-opacity:0.501961" d="M-6.7 -7.55Q-1.95 0.6 9.1 1.55Q12.05 1.55 13.8 -0.25" />
</g>
<g id="PathID_1814" transform="matrix(1, 0, 0, 1, 9.4, 11.05)">
<path style="fill:#85604F;fill-opacity:1" d="M-2.4 -10.3L-1.9 -11.05Q-0.25 -7.65 2.2 -5.9Q5.3 -3.7 10.2 -3.8Q11.8 -3.85 12.7 -4.5Q13.35 -4.9 14.05 -5.9L13.95 -4.4Q12.95 -3.2 10.95 -3Q5.8 -2.55 1 -5.7Q-1.25 -7.15 -2.4 -10.3" />
<path style="fill:#472420;fill-opacity:1" d="M1 -5.7Q5.8 -2.55 10.95 -3Q12.95 -3.2 13.95 -4.4L13.85 -2.9Q13.45 -1.1 9.65 -0.75Q0.55 -1.05 -3.75 -8.25L-2.4 -10.3Q-1.25 -7.15 1 -5.7" />
<path style="fill:none;stroke-width:0.7;stroke-linecap:round;stroke-linejoin:round;stroke-miterlimit:3;stroke:#000000;stroke-opacity:0.4" d="M13.95 -4.4L13.85 -2.9Q13.45 -1.1 9.65 -0.75Q0.55 -1.05 -3.75 -8.25L-2.4 -10.3L-1.9 -11.05Q-0.25 -7.65 2.2 -5.9Q5.3 -3.7 10.2 -3.8Q11.8 -3.85 12.7 -4.5Q13.35 -4.9 14.05 -5.9L13.95 -4.4z" />
</g>
<g id="PathID_1815" transform="matrix(1, 0, 0, 1, 9.4, 11.05)">
<path style="fill:#242834;fill-opacity:1" d="M-3.4 -7.45Q-0.05 -6.8 1.1 -4.35L-4.1 -3.4Q-4.75 -5.1 -3.9 -7.15L-3.4 -7.45M-1.05 0.45Q-5.8 -0.1 -6.8 -3.45Q-6.55 -5.5 -3.9 -7.15Q-4.75 -5.1 -4.1 -3.4L1.1 -4.35Q0.95 -1.25 -1.05 0.45" />
<path style="fill:none;stroke-width:0.7;stroke-linecap:round;stroke-linejoin:round;stroke-miterlimit:3;stroke:#000000;stroke-opacity:0.4" d="M1.1 -4.35L-4.1 -3.4Q-4.75 -5.1 -3.9 -7.15Q-6.55 -5.5 -6.8 -3.45Q-5.8 -0.1 -1.05 0.45Q0.95 -1.25 1.1 -4.35Q-0.05 -6.8 -3.4 -7.45L-3.9 -7.15" />
</g>
<g id="PathID_1816" transform="matrix(1, 0, 0, 1, 9.4, 11.05)">
<path style="fill:#FCE853;fill-opacity:1" d="M-4.2 -2.6L-4.85 -2.8L-4.9 -3.15Q-4.9 -4.35 -3.95 -4.35Q-3.25 -4.35 -3.25 -3.5Q-3.25 -2.6 -4.2 -2.6" />
</g>
</svg>
