<?xml version="1.0" encoding="utf-8"?>
<svg version="1.1" id="Layer_1"
xmlns="http://www.w3.org/2000/svg"
xmlns:xlink="http://www.w3.org/1999/xlink"
width="16px" height="15px"
xml:space="preserve">
<g id="PathID_2227" transform="matrix(1, 0, 0, 1, 7.55, 7.2)">
<path style="fill:#322E23;fill-opacity:1" d="M5.5 2.3Q3.85 4.95 0.25 5.1L0.2 5.1Q-3.85 4.5 -5.35 1.85Q-6.7 -0.55 -6.45 -2.35L-6.25 -3.2Q-5.8 -4.45 -4.4 -5.45Q-3.5 -6.15 -2.6 -6.5L0.55 -6.8Q2.5 -6.8 4.8 -4.55L6.2 -2.5Q6.85 0 5.5 2.3" />
<path style="fill:#15130F;fill-opacity:1" d="M6.2 -2.5Q6.8 -1.15 6.8 0.4Q6.8 2.7 5.5 4.4L3.95 5.8Q2.05 7.1 0 6.85Q-6 6.05 -6.75 0.7L-6.85 -0.4Q-6.85 -1.95 -6.25 -3.2L-6.45 -2.35Q-6.7 -0.55 -5.35 1.85Q-3.85 4.5 0.2 5.1L0.25 5.1Q3.85 4.95 5.5 2.3Q6.85 0 6.2 -2.5" />
<path style="fill:none;stroke-width:0.7;stroke-linecap:round;stroke-linejoin:miter;stroke-miterlimit:5;stroke:#000000;stroke-opacity:0.4" d="M4.8 -4.55L6.2 -2.5Q6.8 -1.15 6.8 0.4Q6.8 2.7 5.5 4.4L3.95 5.8Q2.05 7.1 0 6.85Q-6 6.05 -6.75 0.7L-6.85 -0.4Q-6.85 -1.95 -6.25 -3.2Q-5.8 -4.45 -4.4 -5.45Q-3.5 -6.15 -2.6 -6.5" />
</g>
<g id="PathID_2228" transform="matrix(1, 0, 0, 1, 7.55, 7.2)">
<path style="fill:#CEBC8C;fill-opacity:1" d="M0.9 -1.95L2.2 -1.65Q2.9 -1.65 2.9 -2.2Q2.9 -2.65 2.1 -3L0.9 -3.5Q0 -3.4 0 -3Q0 -2.3 0.9 -1.95M4 4.15L3.8 3.95L4.05 3.2Q4.05 2.55 3 2.55L2.5 2.6L2.1 2.15L0.45 0.35L-0.3 -0.5L-1.05 -1.4L-2.4 -2.2Q-2.5 -3.1 -3.45 -4Q-4.5 -5.05 -4.5 -5.7L-5.05 -5.7L-3.7 -7.05L-1.65 -5.65L-1.35 -3.7L0.25 -4.7Q3.2 -3.3 6.85 -2.05Q6.5 0.4 5.95 1.4L5.05 1.15L5.85 2.05Q5.2 3.6 4 4.15M-2.3 1.3L-5.55 0.25Q-6.9 -1.25 -6.8 -2.9L-6.55 -3.4Q-6.15 -2.75 -5.15 -2.2L-5.15 -1L-4.3 -1.85L-3.4 -1.5Q-1.7 0 -0.85 0.15L0.45 0.35L2.1 2.15L-2.3 1.3M5.05 1.15L3.05 0.45L2.9 -0.7L2.25 0.15Q0.5 -0.55 -1.05 -1.4Q0.5 -0.55 2.25 0.15L2.9 -0.7L3.05 0.45L5.05 1.15M-0.85 4.55Q-3.2 3.7 -5.55 0.25L-2.3 1.3L0.5 3.05L0.4 4.15L1.65 3.65L3.15 4.35L-0.85 4.55" />
<path style="fill:#B8A378;fill-opacity:1" d="M0 -3Q0 -3.4 0.9 -3.5L2.1 -3Q2.9 -2.65 2.9 -2.2Q2.9 -1.65 2.2 -1.65L0.9 -1.95Q0 -2.3 0 -3M0.45 0.35L-0.85 0.15Q-1.7 0 -3.4 -1.5L-0.3 -0.5L0.45 0.35M-2.4 -2.2L-5.7 -4.65L-5.05 -5.7L-4.5 -5.7Q-4.5 -5.05 -3.45 -4Q-2.5 -3.1 -2.4 -2.2M2.5 2.6L3 2.55Q4.05 2.55 4.05 3.2L3.8 3.95L2.5 2.6" />
<path style="fill:#7E6D4F;fill-opacity:1" d="M6.85 -2.05Q7.5 -1.1 7.3 1.55L5.95 1.4Q6.5 0.4 6.85 -2.05M-6.75 -0.3L-5.55 0.25Q-3.2 3.7 -0.85 4.55L3.15 4.35L1.65 3.65L0.4 4.15L0.5 3.05L-2.3 1.3L2.1 2.15L2.5 2.6L3.8 3.95L4 4.15L5.25 5.35L4 4.15Q5.2 3.6 5.85 2.05L6.7 3Q5.8 5 5.25 5.35Q4.45 6.4 3.05 6.85L-0.8 5.4L-3.6 5.7Q-6.2 4 -6.15 2.2L-7 1.4Q-7.25 0.1 -6.75 -0.3L-7.25 -0.55Q-7.65 -1.4 -6.8 -2.9Q-6.9 -1.25 -5.55 0.25L-6.75 -0.3M5.25 5.35L3.15 4.35L5.25 5.35M-0.8 5.4Q-3.85 4.2 -6.15 2.2Q-3.85 4.2 -0.8 5.4" />
<path style="fill:none;stroke-width:0.7;stroke-linecap:round;stroke-linejoin:round;stroke-miterlimit:3;stroke:#000000;stroke-opacity:0.4" d="M-5.05 -5.7L-3.7 -7.05L-1.65 -5.65L-1.35 -3.7L0.25 -4.7Q3.2 -3.3 6.85 -2.05Q7.5 -1.1 7.3 1.55L5.95 1.4L5.05 1.15L5.85 2.05L6.7 3Q5.8 5 5.25 5.35Q4.45 6.4 3.05 6.85L-0.8 5.4L-3.6 5.7Q-6.2 4 -6.15 2.2L-7 1.4Q-7.25 0.1 -6.75 -0.3L-7.25 -0.55Q-7.65 -1.4 -6.8 -2.9L-6.55 -3.4Q-6.15 -2.75 -5.15 -2.2L-5.15 -1L-4.3 -1.85L-3.4 -1.5L-0.3 -0.5L-1.05 -1.4L-2.4 -2.2L-5.7 -4.65L-5.05 -5.7z" />
<path style="fill:none;stroke-width:0.7;stroke-linecap:round;stroke-linejoin:round;stroke-miterlimit:3;stroke:#000000;stroke-opacity:0.4" d="M-1.05 -1.4Q0.5 -0.55 2.25 0.15L2.9 -0.7L3.05 0.45L5.05 1.15" />
<path style="fill:none;stroke-width:0.7;stroke-linecap:round;stroke-linejoin:round;stroke-miterlimit:3;stroke:#000000;stroke-opacity:0.4" d="M2.1 2.15L0.45 0.35" />
<path style="fill:none;stroke-width:0.7;stroke-linecap:round;stroke-linejoin:round;stroke-miterlimit:3;stroke:#000000;stroke-opacity:0.4" d="M2.1 2.15L2.5 2.6" />
<path style="fill:none;stroke-width:0.7;stroke-linecap:round;stroke-linejoin:round;stroke-miterlimit:3;stroke:#000000;stroke-opacity:0.4" d="M3.8 3.95L4 4.15" />
<path style="fill:none;stroke-width:0.7;stroke-linecap:round;stroke-linejoin:round;stroke-miterlimit:3;stroke:#000000;stroke-opacity:0.4" d="M3.15 4.35L1.65 3.65L0.4 4.15L0.5 3.05L-2.3 1.3L-5.55 0.25" />
<path style="fill:none;stroke-width:0.7;stroke-linecap:round;stroke-linejoin:round;stroke-miterlimit:3;stroke:#000000;stroke-opacity:0.4" d="M3.15 4.35L5.25 5.35L4 4.15" />
<path style="fill:none;stroke-width:0.7;stroke-linecap:round;stroke-linejoin:round;stroke-miterlimit:3;stroke:#000000;stroke-opacity:0.4" d="M2.5 2.6L3.8 3.95" />
<path style="fill:none;stroke-width:0.7;stroke-linecap:round;stroke-linejoin:round;stroke-miterlimit:3;stroke:#000000;stroke-opacity:0.4" d="M-6.15 2.2Q-3.85 4.2 -0.8 5.4" />
<path style="fill:none;stroke-width:0.7;stroke-linecap:round;stroke-linejoin:round;stroke-miterlimit:3;stroke:#000000;stroke-opacity:0.4" d="M-6.75 -0.3L-5.55 0.25" />
<path style="fill:none;stroke-width:0.7;stroke-linecap:round;stroke-linejoin:round;stroke-miterlimit:3;stroke:#000000;stroke-opacity:0.4" d="M-2.3 1.3L2.1 2.15" />
<path style="fill:none;stroke-width:0.7;stroke-linecap:round;stroke-linejoin:round;stroke-miterlimit:3;stroke:#000000;stroke-opacity:0.4" d="M-0.3 -0.5L0.45 0.35" />
</g>
</svg>
