<?xml version="1.0" encoding="utf-8"?>
<svg version="1.1" id="Layer_1"
xmlns="http://www.w3.org/2000/svg"
xmlns:xlink="http://www.w3.org/1999/xlink"
width="20px" height="20px"
xml:space="preserve">
<g id="PathID_1669" transform="matrix(1, 0, 0, 1, 9.55, 9.45)">
<path style="fill:#A9452B;fill-opacity:1" d="M-7.85 -2.15L-2.1 -7.3L0.6 -9.25Q5.65 -9.65 6.7 -9.15L7.7 -7.2Q7.35 -8 6.55 -7.35L3.5 -4.65Q0.75 -2.05 0.3 -0.85L-0.8 2.9Q-1.6 6 -1.5 7.3Q-7.95 6.1 -7.85 -2.15" />
<path style="fill:#DD9364;fill-opacity:1" d="M7.75 -7.05L7.6 -3.5Q7.25 -0.15 6.7 1.2Q4.6 6.5 -0.1 7.2L-1.5 7.3Q-1.6 6 -0.8 2.9L0.3 -0.85Q0.75 -2.05 3.5 -4.65L6.55 -7.35Q7.35 -8 7.7 -7.2L7.75 -7.05" />
<path style="fill:#A86B45;fill-opacity:1" d="M8.95 -5.5Q9.5 -3.9 9.3 -2L8.65 4.05Q8.5 6.95 6.1 8.35Q3 10.15 -0.8 10.15L-1.5 7.3L-0.1 7.2Q4.6 6.5 6.7 1.2Q7.25 -0.15 7.6 -3.5L7.75 -7.05L7.7 -7.2L6.7 -9.15Q7.6 -8.75 8.95 -5.5" />
<path style="fill:#7B2411;fill-opacity:1" d="M-0.8 10.15Q-4.1 9.5 -5.35 8.75L-7.2 7.25Q-8.3 6.05 -8.8 4.6L-9.4 1.9Q-9.5 1.1 -7.85 -2.15Q-7.95 6.1 -1.5 7.3L-0.8 10.15" />
<path style="fill:none;stroke-width:0.7;stroke-linecap:round;stroke-linejoin:miter;stroke-miterlimit:5;stroke:#000000;stroke-opacity:0.4" d="M0.6 -9.25L-2.1 -7.3L-7.85 -2.15" />
<path style="fill:none;stroke-width:0.7;stroke-linecap:round;stroke-linejoin:miter;stroke-miterlimit:5;stroke:#000000;stroke-opacity:0.4" d="M-0.8 10.15Q3 10.15 6.1 8.35Q8.5 6.95 8.65 4.05L9.3 -2Q9.5 -3.9 8.95 -5.5Q7.6 -8.75 6.7 -9.15" />
<path style="fill:none;stroke-width:0.7;stroke-linecap:round;stroke-linejoin:miter;stroke-miterlimit:5;stroke:#000000;stroke-opacity:0.4" d="M-7.85 -2.15Q-9.5 1.1 -9.4 1.9L-8.8 4.6Q-8.3 6.05 -7.2 7.25L-5.35 8.75Q-4.1 9.5 -0.8 10.15" />
</g>
</svg>
