<?xml version="1.0" encoding="utf-8"?>
<svg version="1.1" id="Layer_1"
xmlns="http://www.w3.org/2000/svg"
xmlns:xlink="http://www.w3.org/1999/xlink"
width="34px" height="43px"
xml:space="preserve">
<g id="PathID_1905" transform="matrix(1, 0, 0, 1, 21.35, 28.2)">
<path style="fill:#4D6612;fill-opacity:1" d="M-4.95 -14.45Q-2.6 -13.2 -2.6 -11.25Q-3.85 -8.7 -7.7 -8.2Q-10.5 -7.7 -13.5 -8.85L-10.35 -10.2Q-12.45 -10.1 -14.4 -9.15L-21.35 -13.45Q-17.05 -14.85 -13.75 -15.35Q-11.85 -14.3 -11.6 -15.5L-6.75 -15.1L-4.95 -14.45M-14.4 -12.85Q-9.9 -12.95 -5.4 -11.75L-9.25 -10.95L-5.4 -11.75Q-9.9 -12.95 -14.4 -12.85M-5.4 -11.75L-3.7 -11.25L-5.4 -11.75" />
<path style="fill:none;stroke-width:0.7;stroke-linecap:round;stroke-linejoin:round;stroke-miterlimit:3;stroke:#000000;stroke-opacity:0.4" d="M-6.75 -15.1L-11.6 -15.5Q-11.85 -14.3 -13.75 -15.35Q-17.05 -14.85 -21.35 -13.45L-14.4 -9.15Q-12.45 -10.1 -10.35 -10.2L-13.5 -8.85Q-10.5 -7.7 -7.7 -8.2Q-3.85 -8.7 -2.6 -11.25Q-2.6 -13.2 -4.95 -14.45L-6.75 -15.1z" />
<path style="fill:none;stroke-width:0.7;stroke-linecap:round;stroke-linejoin:round;stroke-miterlimit:3;stroke:#000000;stroke-opacity:0.4" d="M-9.25 -10.95L-5.4 -11.75Q-9.9 -12.95 -14.4 -12.85" />
<path style="fill:none;stroke-width:0.7;stroke-linecap:round;stroke-linejoin:round;stroke-miterlimit:3;stroke:#000000;stroke-opacity:0.4" d="M-3.7 -11.25L-5.4 -11.75" />
</g>
<g id="PathID_1906" transform="matrix(1, 0, 0, 1, 21.35, 28.2)">
<linearGradient
id="LinearGradID_495" gradientUnits="userSpaceOnUse" gradientTransform="matrix(0.00883484, 0.00595093, -0.00389099, 0.00605774, -12.35, -17.15)" spreadMethod ="pad" x1="-819.2" y1="0" x2="819.2" y2="0" >
<stop  offset="0" style="stop-color:#A7E948;stop-opacity:1" />
<stop  offset="1" style="stop-color:#78B126;stop-opacity:1" />
</linearGradient>
<path style="fill:url(#LinearGradID_495) " d="M-12.15 -18L-10.2 -17Q-5.45 -13.5 -7.1 -13.15L-5.95 -13.1Q-3 -11.45 -3.5 -10.35Q-7.25 -9.25 -12.3 -12.85L-8.55 -12.85Q-10.95 -13.85 -13.15 -13.65L-15 -16.25L-11.65 -15.6Q-14.15 -17.65 -16.7 -18.4L-19.7 -22.2Q-14.5 -21.9 -10.55 -20.75Q-8.85 -18.8 -8.25 -19.9Q-5.05 -18.75 -3 -16.9Q-1.5 -14 -2.8 -13.65Q-3.7 -13.65 -6.55 -16.6L-4.95 -13.65L-10.2 -17L-12.15 -18M-6.9 -18L-6.55 -16.6L-6.9 -18" />
<path style="fill:#4D6612;fill-opacity:1" d="M-3.5 -10.35Q-3 -11.45 -5.95 -13.1Q-4.05 -12.9 -2.55 -12.25Q-4.05 -12.9 -5.95 -13.1L-7.1 -13.15Q-5.45 -13.5 -10.2 -17L-4.95 -13.65L-2.55 -12.25L-0.95 -10.85L-2.55 -12.25L-4.95 -13.65L-6.55 -16.6Q-3.7 -13.65 -2.8 -13.65Q-1.5 -14 -3 -16.9L-1.3 -15.25Q0.85 -12.6 0.25 -10.1Q-1.85 -7.6 -6.25 -8.95Q-9.45 -10 -12.3 -12.85Q-7.25 -9.25 -3.5 -10.35" />
<path style="fill:none;stroke-width:0.7;stroke-linecap:round;stroke-linejoin:round;stroke-miterlimit:3;stroke:#000000;stroke-opacity:0.4" d="M-6.55 -16.6L-4.95 -13.65L-2.55 -12.25L-0.95 -10.85" />
<path style="fill:none;stroke-width:0.7;stroke-linecap:round;stroke-linejoin:round;stroke-miterlimit:3;stroke:#000000;stroke-opacity:0.4" d="M-3 -16.9L-1.3 -15.25Q0.85 -12.6 0.25 -10.1Q-1.85 -7.6 -6.25 -8.95Q-9.45 -10 -12.3 -12.85L-8.55 -12.85Q-10.95 -13.85 -13.15 -13.65L-15 -16.25L-11.65 -15.6Q-14.15 -17.65 -16.7 -18.4L-19.7 -22.2Q-14.5 -21.9 -10.55 -20.75Q-8.85 -18.8 -8.25 -19.9Q-5.05 -18.75 -3 -16.9z" />
<path style="fill:none;stroke-width:0.7;stroke-linecap:round;stroke-linejoin:round;stroke-miterlimit:3;stroke:#000000;stroke-opacity:0.4" d="M-7.1 -13.15L-5.95 -13.1Q-4.05 -12.9 -2.55 -12.25" />
<path style="fill:none;stroke-width:0.7;stroke-linecap:round;stroke-linejoin:round;stroke-miterlimit:3;stroke:#000000;stroke-opacity:0.4" d="M-6.55 -16.6L-6.9 -18" />
<path style="fill:none;stroke-width:0.7;stroke-linecap:round;stroke-linejoin:round;stroke-miterlimit:3;stroke:#000000;stroke-opacity:0.4" d="M-10.2 -17L-12.15 -18" />
<path style="fill:none;stroke-width:0.7;stroke-linecap:round;stroke-linejoin:round;stroke-miterlimit:3;stroke:#000000;stroke-opacity:0.4" d="M-4.95 -13.65L-10.2 -17" />
</g>
<g id="PathID_1907" transform="matrix(1, 0, 0, 1, 21.35, 28.2)">
<path style="fill:#5809A6;fill-opacity:1" d="M-0.9 -12.15Q0.15 -12.95 -2.25 -15.75L1.15 -13.45L-2.25 -15.75Q-3.15 -16.15 -3.65 -16.5Q-1.95 -16.35 -5 -21.55L-1.15 -16.05L1.15 -13.45Q1.5 -12.5 2.5 -11.1Q1.5 -12.5 1.15 -13.45L-1.15 -16.05L-2.05 -19.55Q0.7 -15.55 2.2 -15.1Q4.4 -14.65 3 -18.9L4.4 -16.25Q6.45 -9.2 3.45 -9.1Q0.35 -8.95 -2.4 -11.25Q-6.15 -14.15 -9.25 -18.05Q-4 -12.65 -0.9 -12.15" />
<linearGradient
id="LinearGradID_496" gradientUnits="userSpaceOnUse" gradientTransform="matrix(0.00834656, 0.0119324, -0.0090332, 0.00593567, -9.25, -23.75)" spreadMethod ="pad" x1="-819.2" y1="0" x2="819.2" y2="0" >
<stop  offset="0" style="stop-color:#B972FF;stop-opacity:1" />
<stop  offset="1" style="stop-color:#922EF3;stop-opacity:1" />
</linearGradient>
<path style="fill:url(#LinearGradID_496) " d="M-9.05 -25.5Q-5.7 -22.6 -5 -21.55Q-1.95 -16.35 -3.65 -16.5Q-3.15 -16.15 -2.25 -15.75Q0.15 -12.95 -0.9 -12.15Q-4 -12.65 -9.25 -18.05L-5.45 -16.7Q-7.3 -18.5 -9.05 -19.1Q-9.8 -21.15 -11.05 -22.8Q-7.95 -21.95 -6.55 -21.15Q-8.55 -22.55 -11.5 -23.85L-15.2 -27.25L-12.95 -27.95L-9.05 -28.1Q-7.9 -27.9 -4.25 -25.55Q-3.8 -22.5 -2.25 -24Q1.5 -21.65 3 -18.9Q4.4 -14.65 2.2 -15.1Q0.7 -15.55 -2.05 -19.55L-1.15 -16.05L-5 -21.55Q-5.7 -22.6 -9.05 -25.5M-2.5 -21.25L-2.05 -19.55L-2.5 -21.25" />
<path style="fill:none;stroke-width:0.7;stroke-linecap:round;stroke-linejoin:round;stroke-miterlimit:3;stroke:#000000;stroke-opacity:0.301961" d="M3 -18.9L4.4 -16.25Q6.45 -9.2 3.45 -9.1Q0.35 -8.95 -2.4 -11.25Q-6.15 -14.15 -9.25 -18.05L-5.45 -16.7Q-7.3 -18.5 -9.05 -19.1Q-9.8 -21.15 -11.05 -22.8Q-7.95 -21.95 -6.55 -21.15Q-8.55 -22.55 -11.5 -23.85L-15.2 -27.25L-12.95 -27.95L-9.05 -28.1Q-7.9 -27.9 -4.25 -25.55Q-3.8 -22.5 -2.25 -24Q1.5 -21.65 3 -18.9z" />
<path style="fill:none;stroke-width:0.7;stroke-linecap:round;stroke-linejoin:round;stroke-miterlimit:3;stroke:#000000;stroke-opacity:0.2" d="M-2.05 -19.55L-1.15 -16.05L1.15 -13.45Q1.5 -12.5 2.5 -11.1" />
<path style="fill:none;stroke-width:0.7;stroke-linecap:round;stroke-linejoin:round;stroke-miterlimit:3;stroke:#000000;stroke-opacity:0.301961" d="M-3.65 -16.5Q-3.15 -16.15 -2.25 -15.75" />
<path style="fill:none;stroke-width:0.7;stroke-linecap:round;stroke-linejoin:round;stroke-miterlimit:3;stroke:#000000;stroke-opacity:0.2" d="M-2.25 -15.75L1.15 -13.45" />
<path style="fill:none;stroke-width:0.7;stroke-linecap:round;stroke-linejoin:round;stroke-miterlimit:3;stroke:#000000;stroke-opacity:0.2" d="M-2.05 -19.55L-2.5 -21.25" />
<path style="fill:none;stroke-width:0.7;stroke-linecap:round;stroke-linejoin:round;stroke-miterlimit:3;stroke:#000000;stroke-opacity:0.2" d="M-1.15 -16.05L-5 -21.55Q-5.7 -22.6 -9.05 -25.5" />
</g>
<g id="PathID_1908" transform="matrix(1, 0, 0, 1, 21.35, 28.2)">
<path style="fill:#4D6612;fill-opacity:1" d="M-4.5 6.4L-8 9.15Q-12.45 8.25 -14.4 6.1L-12.9 6.05Q-15.25 4.15 -14.75 0.6Q-10.9 3.8 -6.35 5.15L-4.5 6.4" />
<path style="fill:none;stroke-width:0.7;stroke-linecap:round;stroke-linejoin:round;stroke-miterlimit:3;stroke:#000000;stroke-opacity:0.4" d="M-4.5 6.4L-8 9.15Q-12.45 8.25 -14.4 6.1L-12.9 6.05Q-15.25 4.15 -14.75 0.6Q-10.9 3.8 -6.35 5.15L-4.5 6.4z" />
</g>
<g id="PathID_1909" transform="matrix(1, 0, 0, 1, 21.35, 28.2)">
<path style="fill:#7CB629;fill-opacity:1" d="M-11.2 8.85L-9 8.4L-7.95 8.55L-9 8.4Q-12.85 7.7 -13.15 4.7Q-10.25 6.1 -6.3 6.3Q-4.35 8.3 -7.25 10.15Q-9.1 9.95 -11.2 8.85" />
<path style="fill:#4D6612;fill-opacity:1" d="M-4.25 6.3L-3 7.05L-3 9.35Q-4.9 10.45 -7.25 10.15Q-4.35 8.3 -6.3 6.3L-4.25 6.3" />
<path style="fill:none;stroke-width:0.7;stroke-linecap:round;stroke-linejoin:round;stroke-miterlimit:3;stroke:#000000;stroke-opacity:0.4" d="M-7.25 10.15Q-4.9 10.45 -3 9.35L-3 7.05L-4.25 6.3L-6.3 6.3Q-10.25 6.1 -13.15 4.7Q-12.85 7.7 -9 8.4L-7.95 8.55" />
<path style="fill:none;stroke-width:0.7;stroke-linecap:round;stroke-linejoin:round;stroke-miterlimit:3;stroke:#000000;stroke-opacity:0.4" d="M-9 8.4L-11.2 8.85Q-9.1 9.95 -7.25 10.15" />
</g>
<g id="PathID_1910" transform="matrix(1, 0, 0, 1, 21.35, 28.2)">
<path style="fill:#EEE7DD;fill-opacity:1" d="M3.85 4.5Q-0.6 5.15 -3.65 3.9Q-6.75 2.6 -6.8 -0.8Q-6.85 -4.25 -6.15 -6.2L-5.15 -7.4L-4.65 -7.9L-4.55 -7.95Q-2.2 -10.1 -2.85 -12.1Q-1.6 -11.15 -1.95 -9.75L-2.45 -8L-1.3 -9.85Q-0.45 -11.3 2.35 -11.15L2.05 -10.9Q-0.05 -9.3 -0.15 -8.3L1.8 -9.65Q4.65 -9.85 6.5 -7.9Q8.35 -6 9.15 -4.05Q9.65 -2.75 10.25 -2.05L10.8 -1.55L11.9 -0.7Q9.85 3.35 3.85 4.5" />
<path style="fill:#A3988D;fill-opacity:1" d="M2.05 -10.9Q1.6 -10.45 1.8 -9.65L-0.15 -8.3Q-0.05 -9.3 2.05 -10.9M11.9 -0.7L12.1 0.7Q11.95 3.2 9 5.1L4.55 7.55L2.5 8.25Q-0.95 6.4 -3 5.9Q-5.15 5.4 -6.45 4.05Q-7.8 2.7 -7.75 -0.65Q-7.7 -4 -6.15 -6.2Q-6.85 -4.25 -6.8 -0.8Q-6.75 2.6 -3.65 3.9Q-0.6 5.15 3.85 4.5Q9.85 3.35 11.9 -0.7M-2.45 -8L-1.95 -9.75Q-1.6 -11.15 -2.85 -12.1L-3 -12.5Q-0.75 -11.15 -1.3 -9.85L-2.45 -8" />
<path style="fill:none;stroke-width:0.7;stroke-linecap:round;stroke-linejoin:miter;stroke-miterlimit:5;stroke:#000000;stroke-opacity:0.4" d="M2.35 -11.15L2.05 -10.9Q1.6 -10.45 1.8 -9.65Q4.65 -9.85 6.5 -7.9Q8.35 -6 9.15 -4.05Q9.65 -2.75 10.25 -2.05L10.8 -1.55L11.9 -0.7L12.1 0.7Q11.95 3.2 9 5.1L4.55 7.55" />
<path style="fill:none;stroke-width:0.7;stroke-linecap:round;stroke-linejoin:miter;stroke-miterlimit:5;stroke:#000000;stroke-opacity:0.4" d="M-3 5.9Q-5.15 5.4 -6.45 4.05Q-7.8 2.7 -7.75 -0.65Q-7.7 -4 -6.15 -6.2L-5.15 -7.4L-4.65 -7.9L-4.55 -7.95Q-2.2 -10.1 -2.85 -12.1L-3 -12.5Q-0.75 -11.15 -1.3 -9.85Q-0.45 -11.3 2.35 -11.15" />
</g>
<g id="PathID_1911" transform="matrix(1, 0, 0, 1, 21.35, 28.2)">
<path style="fill:#FFCE2E;fill-opacity:1" d="M4.25 -1.3Q4.65 0.35 3.6 1.6Q2.45 2.85 -0.4 2.8Q-3.2 2.75 -4.1 1.4Q-5 0.1 -4.65 -1.45Q-4.35 -3.05 -3.15 -4.3Q-1.95 -5.5 -0.25 -5.5Q1.5 -5.5 2.65 -4.3Q3.85 -3.05 4.25 -1.3" />
<path style="fill:none;stroke-width:0.7;stroke-linecap:round;stroke-linejoin:round;stroke-miterlimit:3;stroke:#A319C6;stroke-opacity:0.701961" d="M4.25 -1.3Q4.65 0.35 3.6 1.6Q2.45 2.85 -0.4 2.8Q-3.2 2.75 -4.1 1.4Q-5 0.1 -4.65 -1.45Q-4.35 -3.05 -3.15 -4.3Q-1.95 -5.5 -0.25 -5.5Q1.5 -5.5 2.65 -4.3Q3.85 -3.05 4.25 -1.3z" />
</g>
<g id="PathID_1912" transform="matrix(1, 0, 0, 1, 21.35, 28.2)">
<path style="fill:#9C5500;fill-opacity:1" d="M-0.15 -11.05L-0.5 -12.2Q1.35 -13.05 3.25 -13.3L6.2 -13.4L6.8 -8.95Q4.8 -7.95 2.85 -7.65L-0.15 -11.05M-5.15 -11.45L-4.5 -11.95Q-4.95 -10.8 -3.7 -10.25Q-5.65 -10.2 -5.15 -11.45" />
<path style="fill:#F8D368;fill-opacity:1" d="M-0.15 -11.05L2.85 -7.65Q-0.3 -6.15 -3.15 -3.85Q-5.7 -3 -6.25 -5.15Q-4.2 -8.35 -1 -10.7L-0.15 -11.05M-3.7 -10.25Q-4.95 -10.8 -4.5 -11.95Q0.35 -15.8 6 -14.55L6.2 -13.4L3.25 -13.3Q1.35 -13.05 -0.5 -12.2Q-2.15 -11.45 -3.7 -10.25" />
<linearGradient
id="LinearGradID_497" gradientUnits="userSpaceOnUse" gradientTransform="matrix(-0.00242615, 0.00343323, -0.0090332, -0.00457764, -6.95, -2.25)" spreadMethod ="pad" x1="-819.2" y1="0" x2="819.2" y2="0" >
<stop  offset="0" style="stop-color:#C49307;stop-opacity:1" />
<stop  offset="1" style="stop-color:#936100;stop-opacity:1" />
</linearGradient>
<path style="fill:url(#LinearGradID_497) " d="M-6.25 -7.65Q-5.05 -9.15 -3.7 -10.25Q-2.15 -11.45 -0.5 -12.2L-0.15 -11.05L-1 -10.7Q-4.2 -8.35 -6.25 -5.15Q-5.7 -3 -3.15 -3.85Q-6.65 -0.65 -7.65 2.8L-10.95 0.55Q-8.9 -4.45 -6.25 -7.65" />
<linearGradient
id="LinearGradID_498" gradientUnits="userSpaceOnUse" gradientTransform="matrix(-0.000961304, 0.00276184, -0.00814819, -0.00189209, -8.65, -3.9)" spreadMethod ="pad" x1="-819.2" y1="0" x2="819.2" y2="0" >
<stop  offset="0" style="stop-color:#C49307;stop-opacity:1" />
<stop  offset="1" style="stop-color:#936100;stop-opacity:1" />
</linearGradient>
<path style="fill:url(#LinearGradID_498) " d="M-10.95 0.55L-11.65 0Q-11.45 -5.15 -5.85 -10.8L-5.15 -11.45Q-5.65 -10.2 -3.7 -10.25Q-5.05 -9.15 -6.25 -7.65Q-8.9 -4.45 -10.95 0.55" />
<path style="fill:none;stroke-width:0.7;stroke-linecap:round;stroke-linejoin:round;stroke-miterlimit:3;stroke:#000000;stroke-opacity:0.4" d="M6.2 -13.4L6.8 -8.95Q4.8 -7.95 2.85 -7.65Q-0.3 -6.15 -3.15 -3.85Q-6.65 -0.65 -7.65 2.8L-10.95 0.55L-11.65 0Q-11.45 -5.15 -5.85 -10.8L-5.15 -11.45L-4.5 -11.95Q0.35 -15.8 6 -14.55L6.2 -13.4L3.25 -13.3Q1.35 -13.05 -0.5 -12.2" />
<path style="fill:none;stroke-width:0.7;stroke-linecap:round;stroke-linejoin:round;stroke-miterlimit:3;stroke:#000000;stroke-opacity:0.4" d="M-3.7 -10.25Q-2.15 -11.45 -0.5 -12.2" />
<path style="fill:none;stroke-width:0.7;stroke-linecap:round;stroke-linejoin:round;stroke-miterlimit:3;stroke:#000000;stroke-opacity:0.4" d="M-3.7 -10.25Q-5.05 -9.15 -6.25 -7.65Q-8.9 -4.45 -10.95 0.55" />
</g>
<g id="PathID_1913" transform="matrix(1, 0, 0, 1, 21.35, 28.2)">
<linearGradient
id="LinearGradID_499" gradientUnits="userSpaceOnUse" gradientTransform="matrix(-0.00291443, 0.00222778, -0.00543213, -0.00527954, -3.95, -0.95)" spreadMethod ="pad" x1="-819.2" y1="0" x2="819.2" y2="0" >
<stop  offset="0" style="stop-color:#C49307;stop-opacity:1" />
<stop  offset="1" style="stop-color:#936100;stop-opacity:1" />
</linearGradient>
<path style="fill:url(#LinearGradID_499) " d="M5.2 -7.85Q-5.2 -2.3 -7.4 3.15Q-9.1 4 -8.1 0.25Q-7 -1.8 -5.1 -3.65L-2.8 -3.55L2.95 -7.45L3.55 -7.85L5.2 -7.85" />
<path style="fill:#F8D368;fill-opacity:1" d="M0.55 -6.55L0.3 -6.85Q-0.15 -6.85 -1.15 -6.2L-2.25 -5.35L-1.9 -5.05L-0.7 -5.75L0.1 -6.15L0.55 -6.55M-1.05 -5.1Q-3 -3.95 -3.85 -4.05L-4.45 -4.25Q-2.1 -6.2 1.2 -7.85L3.55 -7.85L2.95 -7.45L-1.05 -5.1" />
<path style="fill:#FFF8E5;fill-opacity:1" d="M0.1 -6.15L-0.7 -5.75L-1.9 -5.05L-2.25 -5.35L-1.15 -6.2Q-0.15 -6.85 0.3 -6.85L0.55 -6.55L0.1 -6.15" />
<path style="fill:#9C5500;fill-opacity:1" d="M-4.45 -4.25L-3.85 -4.05Q-3 -3.95 -1.05 -5.1L2.95 -7.45L-2.8 -3.55L-5.1 -3.65L-4.45 -4.25" />
<path style="fill:none;stroke-width:0.7;stroke-linecap:round;stroke-linejoin:round;stroke-miterlimit:3;stroke:#000000;stroke-opacity:0.4" d="M3.55 -7.85L1.2 -7.85Q-2.1 -6.2 -4.45 -4.25" />
<path style="fill:none;stroke-width:0.7;stroke-linecap:round;stroke-linejoin:round;stroke-miterlimit:3;stroke:#000000;stroke-opacity:0.4" d="M-5.1 -3.65Q-7 -1.8 -8.1 0.25Q-9.1 4 -7.4 3.15Q-5.2 -2.3 5.2 -7.85L3.55 -7.85" />
<path style="fill:none;stroke-width:0.7;stroke-linecap:round;stroke-linejoin:round;stroke-miterlimit:3;stroke:#000000;stroke-opacity:0.4" d="M-4.45 -4.25L-5.1 -3.65" />
</g>
<g id="PathID_1914" transform="matrix(1, 0, 0, 1, 21.35, 28.2)">
<path style="fill:#F8D368;fill-opacity:1" d="M-1.15 -11.45Q-1.35 -10.6 -0.1 -10.05L2 -9.35L3.1 -9.1L3.25 -9.05L6.2 -8.7L6.9 -8Q2.25 -7.7 -2.1 -9.25L-3.2 -10.45Q-5.2 -14.45 -0.85 -15.55Q0.7 -15.6 1.95 -14.9L3.15 -13.8L3.45 -13.15L2.9 -12.15Q2.3 -11.45 1.4 -11.45Q0.45 -11.45 0.25 -12.05Q0.05 -12.35 0.1 -12.65L1.3 -12.7L0.85 -12.2Q0.85 -11.85 1.4 -11.85Q2.45 -11.85 2.45 -12.6L2.4 -12.9L1.95 -13.1L1.3 -12.75L1.3 -12.7L0.1 -12.65Q-1.05 -12.35 -1.15 -11.45M1 -14.55Q1 -15 -0.4 -15Q-1.6 -15 -2.3 -14.15Q-2.85 -13.45 -2.9 -12.5L-2.9 -12.05Q-2.8 -11.8 -2.5 -11.8Q-1.8 -11.8 -1.6 -12.35L-1.3 -13.35Q-1 -13.85 0.05 -13.95Q0.95 -14.05 1 -14.55" />
<path style="fill:#FFF8E5;fill-opacity:1" d="M1.3 -12.7L1.3 -12.75L1.95 -13.1L2.4 -12.9L2.45 -12.6Q2.45 -11.85 1.4 -11.85Q0.85 -11.85 0.85 -12.2L1.3 -12.7M0.05 -13.95Q-1 -13.85 -1.3 -13.35L-1.6 -12.35Q-1.8 -11.8 -2.5 -11.8Q-2.8 -11.8 -2.9 -12.05L-2.9 -12.5Q-2.85 -13.45 -2.3 -14.15Q-1.6 -15 -0.4 -15Q1 -15 1 -14.55Q0.95 -14.05 0.05 -13.95" />
<path style="fill:#C49307;fill-opacity:1" d="M7.6 -7.35Q5.25 -6.6 3.45 -6.95Q-0.4 -8.05 -2.1 -9.25Q2.25 -7.7 6.9 -8L7.6 -7.35M3.1 -9.1L2 -9.35L-0.1 -10.05Q-1.35 -10.6 -1.15 -11.45Q-1.05 -12.35 0.1 -12.65Q-0.55 -11.95 -0.45 -11.5Q0.05 -12.35 0.25 -12.05Q0.45 -11.45 1.4 -11.45Q2.3 -11.45 2.9 -12.15L3.45 -13.15L3.55 -12.35Q3.3 -10.8 1.95 -10.4L0.6 -10.25L0.2 -10.5Q1.5 -9.75 3.1 -9.1M0.2 -10.5L-0.45 -11.5Q-0.55 -11.95 0.1 -12.65M-0.45 -11.5L0.2 -10.5L0.6 -10.25" />
<path style="fill:none;stroke-width:0.7;stroke-linecap:round;stroke-linejoin:round;stroke-miterlimit:3;stroke:#000000;stroke-opacity:0.4" d="M0.1 -12.65L1.3 -12.7" />
<path style="fill:none;stroke-width:0.7;stroke-linecap:round;stroke-linejoin:round;stroke-miterlimit:3;stroke:#000000;stroke-opacity:0.4" d="M3.45 -13.15L3.15 -13.8L1.95 -14.9Q0.7 -15.6 -0.85 -15.55Q-5.2 -14.45 -3.2 -10.45L-2.1 -9.25" />
<path style="fill:none;stroke-width:0.7;stroke-linecap:round;stroke-linejoin:round;stroke-miterlimit:3;stroke:#000000;stroke-opacity:0.4" d="M6.9 -8L6.2 -8.7L3.25 -9.05L3.1 -9.1" />
<path style="fill:none;stroke-width:0.7;stroke-linecap:round;stroke-linejoin:round;stroke-miterlimit:3;stroke:#000000;stroke-opacity:0.4" d="M3.45 -13.15L3.55 -12.35Q3.3 -10.8 1.95 -10.4L0.6 -10.25Q1.5 -9.75 3.1 -9.1" />
<path style="fill:none;stroke-width:0.7;stroke-linecap:round;stroke-linejoin:round;stroke-miterlimit:3;stroke:#000000;stroke-opacity:0.4" d="M-2.1 -9.25Q-0.4 -8.05 3.45 -6.95Q5.25 -6.6 7.6 -7.35L6.9 -8" />
<path style="fill:none;stroke-width:0.7;stroke-linecap:round;stroke-linejoin:round;stroke-miterlimit:3;stroke:#000000;stroke-opacity:0.4" d="M0.1 -12.65Q-0.55 -11.95 -0.45 -11.5L0.2 -10.5L0.6 -10.25" />
</g>
<g id="PathID_1915" transform="matrix(1, 0, 0, 1, 21.35, 28.2)">
<path style="fill:#F8D368;fill-opacity:1" d="M4.35 -12.85Q4.3 -11.75 5 -11.75L5.55 -12.8L6.1 -14.6L6 -14.95L5.7 -15.2Q5.25 -15.2 4.75 -14.25L4.35 -12.85M3.9 -11.1Q3.4 -13.2 4.2 -14.45Q4.7 -15.35 5.55 -15.55Q6.7 -15.8 7.75 -14.75L7.9 -14.6L7.3 -14.6Q6.4 -14.3 6.25 -12.95L6.4 -11.65Q5.25 -10.3 3.9 -11.1" />
<path style="fill:#FFF8E5;fill-opacity:1" d="M4.75 -14.25Q5.25 -15.2 5.7 -15.2L6 -14.95L6.1 -14.6L5.55 -12.8L5 -11.75Q4.3 -11.75 4.35 -12.85L4.75 -14.25" />
<path style="fill:#A216BF;fill-opacity:1" d="M8.7 -14.15Q9.3 -13.7 9.35 -13.2L9.2 -11.6L8.6 -10.7Q8.2 -10.35 7.25 -10.95L6.4 -11.65L6.25 -12.95Q6.4 -14.3 7.3 -14.6L7.9 -14.6L8.7 -14.15M7.6 -14.3Q6.85 -14.3 6.8 -12.9Q6.75 -12.1 7.3 -12.1Q8.1 -12.1 8.15 -13.15Q8.2 -14.3 7.6 -14.3" />
<path style="fill:#F0ADFF;fill-opacity:1" d="M8.15 -13.15Q8.1 -12.1 7.3 -12.1Q6.75 -12.1 6.8 -12.9Q6.85 -14.3 7.6 -14.3Q8.2 -14.3 8.15 -13.15" />
<path style="fill:#4D005D;fill-opacity:1" d="M9.55 -11.05L9.45 -10Q9 -9.3 8.6 -9.3Q7.7 -9.25 7.05 -10.05L6.6 -10.85L6.4 -11.65L7.25 -10.95Q8.2 -10.35 8.6 -10.7L9.2 -11.6L9.35 -13.2L9.55 -11.05" />
<path style="fill:#C49307;fill-opacity:1" d="M9.2 -8.55Q8.65 -7.15 7.65 -7.1Q6.4 -7.1 5.55 -7.9Q4.9 -8.55 4.2 -10.4L4.8 -9.9Q5.55 -9.45 6.25 -9.9Q6.7 -10.15 6.6 -10.85L7.05 -10.05Q7.7 -9.25 8.6 -9.3Q9 -9.3 9.45 -10L9.2 -8.55" />
<path style="fill:#9C5500;fill-opacity:1" d="M3.9 -11.1Q5.25 -10.3 6.4 -11.65L6.6 -10.85Q6.7 -10.15 6.25 -9.9Q5.55 -9.45 4.8 -9.9L4.2 -10.4L3.9 -11.1" />
<path style="fill:none;stroke-width:0.7;stroke-linecap:round;stroke-linejoin:round;stroke-miterlimit:3;stroke:#000000;stroke-opacity:0.4" d="M7.9 -14.6L7.3 -14.6Q6.4 -14.3 6.25 -12.95L6.4 -11.65" />
<path style="fill:none;stroke-width:0.7;stroke-linecap:round;stroke-linejoin:round;stroke-miterlimit:3;stroke:#000000;stroke-opacity:0.4" d="M9.35 -13.2Q9.3 -13.7 8.7 -14.15L7.9 -14.6L7.75 -14.75Q6.7 -15.8 5.55 -15.55Q4.7 -15.35 4.2 -14.45Q3.4 -13.2 3.9 -11.1" />
<path style="fill:none;stroke-width:0.7;stroke-linecap:round;stroke-linejoin:round;stroke-miterlimit:3;stroke:#000000;stroke-opacity:0.4" d="M6.4 -11.65L6.6 -10.85L7.05 -10.05Q7.7 -9.25 8.6 -9.3Q9 -9.3 9.45 -10L9.55 -11.05L9.35 -13.2" />
<path style="fill:none;stroke-width:0.7;stroke-linecap:round;stroke-linejoin:round;stroke-miterlimit:3;stroke:#000000;stroke-opacity:0.4" d="M4.2 -10.4Q4.9 -8.55 5.55 -7.9Q6.4 -7.1 7.65 -7.1Q8.65 -7.15 9.2 -8.55L9.45 -10" />
<path style="fill:none;stroke-width:0.7;stroke-linecap:round;stroke-linejoin:round;stroke-miterlimit:3;stroke:#000000;stroke-opacity:0.4" d="M3.9 -11.1L4.2 -10.4" />
</g>
<g id="PathID_1916" transform="matrix(1, 0, 0, 1, 21.35, 28.2)">
<path style="fill:#F5E0CD;fill-opacity:1" d="M9.5 -0.35Q10.35 -0.85 11.25 -0.8Q10.9 0.35 9.5 -0.35" />
<path style="fill:#E5A4DC;fill-opacity:1" d="M11.55 -0.8L11.9 -0.15Q11 0.95 11.25 1.3L10.75 1.6Q10.95 1 10.15 0.6Q9.15 0.6 9 -0.05L9.5 -0.35Q10.9 0.35 11.25 -0.8L11.55 -0.8" />
<path style="fill:#C972BD;fill-opacity:1" d="M10.4 1.75Q10.05 0.6 9.05 0.9L8.7 0.2L9 -0.05Q9.15 0.6 10.15 0.6Q10.95 1 10.75 1.6L10.4 1.75" />
<path style="fill:none;stroke-width:0.7;stroke-linecap:round;stroke-linejoin:round;stroke-miterlimit:3;stroke:#000000;stroke-opacity:0.301961" d="M9.5 -0.35L9 -0.05" />
<path style="fill:none;stroke-width:0.7;stroke-linecap:round;stroke-linejoin:round;stroke-miterlimit:3;stroke:#000000;stroke-opacity:0.301961" d="M10.75 1.6L11.25 1.3Q11 0.95 11.9 -0.15L11.55 -0.8L11.25 -0.8Q10.35 -0.85 9.5 -0.35" />
<path style="fill:none;stroke-width:0.7;stroke-linecap:round;stroke-linejoin:round;stroke-miterlimit:3;stroke:#000000;stroke-opacity:0.301961" d="M9 -0.05L8.7 0.2L9.05 0.9Q10.05 0.6 10.4 1.75L10.75 1.6" />
</g>
<g id="PathID_1917" transform="matrix(1, 0, 0, 1, 21.35, 28.2)">
<path style="fill:#FFDA2E;fill-opacity:1" d="M1.5 -19.65Q1.85 -19.65 1.85 -19.2L1.55 -18.9Q1.1 -18.9 1.1 -19.3Q1.1 -19.65 1.5 -19.65M-5.45 -25.05L-5.65 -24.75L-6.1 -24.75L-6.55 -25.25Q-6.55 -25.85 -6 -25.85Q-5.45 -25.85 -5.45 -25.05M-11.45 -26.55L-11.35 -27.05L-10.1 -27.4Q-7.85 -27.4 -7.85 -25.8Q-7.85 -25.3 -8 -25.1Q-8.25 -24.7 -9.15 -24.7Q-10.05 -24.7 -10.8 -25.35Q-11.45 -25.95 -11.45 -26.55M-8.4 -23.8L-8.35 -23.6L-8.6 -23.2L-9 -23.2L-9.4 -23.6Q-9.4 -24 -8.8 -24Q-8.5 -24 -8.4 -23.8M-5.3 -19.7Q-4.75 -19.7 -4.75 -19.25Q-4.75 -18.6 -5.3 -18.6Q-6 -18.6 -5.85 -19.2Q-5.85 -19.7 -5.3 -19.7M-9.3 -14.55L-9.35 -14.3L-9.65 -14.25L-10 -14.45L-10.15 -14.75L-9.75 -15.1Q-9.45 -15.1 -9.35 -14.85L-9.3 -14.55M-13.05 -20.05L-12.55 -19.2Q-12.55 -18.3 -13.8 -18.3Q-14.5 -18.3 -15.05 -18.75Q-15.55 -19.15 -15.55 -19.7Q-15.75 -20.75 -14.45 -20.75Q-13.65 -20.75 -13.05 -20.05M-17.45 -13.55Q-16.75 -13.7 -16.55 -13.3L-16.5 -12.8Q-16.5 -12.2 -17 -12.2L-17.65 -12.25L-17.85 -12.8Q-17.85 -13.35 -17.45 -13.55M-11.2 -11.05Q-10.75 -10.95 -10.75 -10.6Q-10.75 -10.35 -11.1 -10.35Q-11.75 -10.35 -11.7 -10.8Q-11.7 -11.15 -11.2 -11.05M-5.6 -12.1L-5.35 -11.7L-5.55 -11.45L-5.75 -11.3Q-6.15 -11.3 -6.15 -11.75L-5.95 -12.1L-5.6 -12.1M-6.7 9.15L-6.9 9.45L-7.25 9.45L-7.45 9.1L-7.05 8.85Q-6.7 8.85 -6.7 9.15M-6.8 7.5Q-6.8 8 -7.5 8Q-8.35 8 -8.35 7.25Q-8.35 6.9 -8.15 6.9L-6.95 7.15Q-6.8 7.25 -6.8 7.5M-2.75 10.75L-3.3 10.65L-3.3 10.2L-3 10.2Q-2.3 10.2 -2.3 10.5Q-2.3 10.75 -2.75 10.75M-12 3.85Q-12.05 4 -12.35 4Q-13.15 4 -13.45 2.75L-13.2 2.45Q-12 2.45 -12 3.5L-12 3.85" />
</g>
<g id="PathID_1918" transform="matrix(1, 0, 0, 1, 21.35, 28.2)">
<path style="fill:#7CB629;fill-opacity:1" d="M-2.7 12.6L-1.75 11.45L-7.35 11.3Q-5.55 10.8 -4.25 9.95Q-1.45 10.2 -0.35 12.05L-2.7 12.6" />
<path style="fill:#4D6612;fill-opacity:1" d="M-2.65 8.45L1.55 10.8Q0.75 11.55 -0.35 12.05Q-1.45 10.2 -4.25 9.95Q-3.3 9.3 -2.65 8.45" />
<path style="fill:none;stroke-width:0.7;stroke-linecap:round;stroke-linejoin:round;stroke-miterlimit:3;stroke:#000000;stroke-opacity:0.4" d="M-0.35 12.05Q0.75 11.55 1.55 10.8L-2.65 8.45Q-3.3 9.3 -4.25 9.95Q-5.55 10.8 -7.35 11.3L-1.75 11.45L-2.7 12.6L-0.35 12.05z" />
</g>
<g id="PathID_1919" transform="matrix(1, 0, 0, 1, 21.35, 28.2)">
<path style="fill:#5809A6;fill-opacity:1" d="M1.1 11.05L3.65 10.1Q3.65 10.65 4.35 11.6Q2.55 12.45 0.7 11.15L1.1 11.05" />
<path style="fill:#9E37E8;fill-opacity:1" d="M5.3 12.55Q4.85 13.55 4 13.4L2.95 12.65Q2.8 13.6 1.9 14.1L2.35 12.55Q1.45 13.45 0.8 13.45Q-0.1 13.45 -0.75 13Q-1.45 12.5 -1.45 11.75L0.7 11.15Q2.55 12.45 4.35 11.6Q5 12.55 5.3 12.55" />
<path style="fill:none;stroke-width:0.7;stroke-linecap:round;stroke-linejoin:round;stroke-miterlimit:3;stroke:#000000;stroke-opacity:0.4" d="M4.35 11.6Q3.65 10.65 3.65 10.1L1.1 11.05L0.7 11.15L-1.45 11.75Q-1.45 12.5 -0.75 13Q-0.1 13.45 0.8 13.45Q1.45 13.45 2.35 12.55L1.9 14.1Q2.8 13.6 2.95 12.65L4 13.4Q4.85 13.55 5.3 12.55Q5 12.55 4.35 11.6z" />
</g>
<g id="PathID_1920" transform="matrix(1, 0, 0, 1, 21.35, 28.2)">
<path style="fill:#C49307;fill-opacity:1" d="M-7.5 5.55L-6.8 4.1Q1.2 7.55 5.85 7.7L5.3 8.45Q0.8 8.15 -1.1 9.35Q-4.95 7.75 -7.5 5.55" />
<path style="fill:#F8D368;fill-opacity:1" d="M-1.1 9.35Q0.8 8.15 5.3 8.45L4.4 10.2Q0.75 10.6 -1.1 9.35" />
<path style="fill:none;stroke-width:0.7;stroke-linecap:round;stroke-linejoin:round;stroke-miterlimit:3;stroke:#000000;stroke-opacity:0.4" d="M4.4 10.2L5.3 8.45" />
<path style="fill:none;stroke-width:0.7;stroke-linecap:round;stroke-linejoin:round;stroke-miterlimit:3;stroke:#000000;stroke-opacity:0.4" d="M5.3 8.45L5.85 7.7Q1.2 7.55 -6.8 4.1L-7.5 5.55Q-4.95 7.75 -1.1 9.35" />
</g>
<g id="PathID_1921" transform="matrix(1, 0, 0, 1, 21.35, 28.2)">
<path style="fill:#C49307;fill-opacity:1" d="M3.9 11.65Q-3 11.15 -8 5.8Q-5.4 8.25 0 10.2Q3 11.15 4.9 10.65Q4.9 11.05 3.9 11.65" />
<path style="fill:#F8D368;fill-opacity:1" d="M-7.3 4.9L-6.2 5.85L-5.85 6.2Q-3.45 8.15 -0.4 9.2L4.35 10.25Q4.9 10.4 4.9 10.65Q3 11.15 0 10.2Q-5.4 8.25 -8 5.8Q-8.2 4.9 -7.3 4.9" />
<path style="fill:none;stroke-width:0.7;stroke-linecap:round;stroke-linejoin:round;stroke-miterlimit:3;stroke:#432900;stroke-opacity:0.4" d="M4.9 10.65Q4.9 10.4 4.35 10.25L-0.4 9.2Q-3.45 8.15 -5.85 6.2L-6.2 5.85L-7.3 4.9Q-8.2 4.9 -8 5.8Q-3 11.15 3.9 11.65Q4.9 11.05 4.9 10.65z" />
</g>
<g id="PathID_1922" transform="matrix(1, 0, 0, 1, 21.35, 28.2)">
<path style="fill:#F8D368;fill-opacity:1" d="M7.7 7Q-1.35 6.65 -7.2 4.2L-7.2 3.25Q-0.1 6.25 8.05 6.2L7.7 7" />
<path style="fill:#C49307;fill-opacity:1" d="M7.7 7Q7.1 7.7 4.85 7.8Q2.6 7.9 -2.35 6.55Q-7.3 5.2 -7.2 4.2Q-1.35 6.65 7.7 7" />
<path style="fill:none;stroke-width:0.7;stroke-linecap:round;stroke-linejoin:round;stroke-miterlimit:3;stroke:#351700;stroke-opacity:0.4" d="M-7.2 4.2Q-7.3 5.2 -2.35 6.55Q2.6 7.9 4.85 7.8Q7.1 7.7 7.7 7" />
<path style="fill:none;stroke-width:0.7;stroke-linecap:round;stroke-linejoin:round;stroke-miterlimit:3;stroke:#351700;stroke-opacity:0.4" d="M-7.2 4.2L-7.2 3.25Q-0.1 6.25 8.05 6.2L7.7 7" />
</g>
<g id="PathID_1923" transform="matrix(1, 0, 0, 1, 21.35, 28.2)">
<path style="fill:#C49307;fill-opacity:1" d="M5.75 9.4L5.15 10.8Q4.6 11.55 3.85 11.55Q3.15 11.55 2.7 10.8Q2.3 10.2 2.3 9.35Q3.95 11.05 5.75 9.4" />
<path style="fill:#F8D368;fill-opacity:1" d="M2.3 9.35L2.3 9.05Q2.35 8.05 2.9 7.3Q3.45 6.6 4.15 6.6Q4.9 6.6 5.35 7.3Q5.8 8.05 5.75 9.1L5.75 9.4Q3.95 11.05 2.3 9.35" />
<path style="fill:none;stroke-width:0.7;stroke-linecap:round;stroke-linejoin:round;stroke-miterlimit:3;stroke:#351700;stroke-opacity:0.4" d="M5.75 9.4L5.15 10.8Q4.6 11.55 3.85 11.55Q3.15 11.55 2.7 10.8Q2.3 10.2 2.3 9.35L2.3 9.05Q2.35 8.05 2.9 7.3Q3.45 6.6 4.15 6.6Q4.9 6.6 5.35 7.3Q5.8 8.05 5.75 9.1L5.75 9.4z" />
</g>
<g id="PathID_1924" transform="matrix(1, 0, 0, 1, 21.35, 28.2)">
<path style="fill:#A216BF;fill-opacity:1" d="M4.85 7.2Q5.75 7.2 6.05 8.2Q5.6 9.35 4.95 9.9Q4.35 10.25 3.5 9.2Q3.7 7.2 4.85 7.2M4.3 8.9Q4.85 8.9 5.1 8.2Q5.45 7.45 5 7.45Q4.45 7.45 4.1 8.35Q3.9 8.9 4.3 8.9" />
<path style="fill:#4D005D;fill-opacity:1" d="M6.05 8.75Q5.95 9.7 5.4 10.3L4.65 10.8Q3.5 10.95 3.5 9.2Q4.35 10.25 4.95 9.9Q5.6 9.35 6.05 8.2L6.05 8.75" />
<path style="fill:#F0ADFF;fill-opacity:1" d="M4.1 8.35Q4.45 7.45 5 7.45Q5.45 7.45 5.1 8.2Q4.85 8.9 4.3 8.9Q3.9 8.9 4.1 8.35" />
<path style="fill:none;stroke-width:0.7;stroke-linecap:round;stroke-linejoin:round;stroke-miterlimit:3;stroke:#000000;stroke-opacity:0.4" d="M6.05 8.2Q5.75 7.2 4.85 7.2Q3.7 7.2 3.5 9.2Q3.5 10.95 4.65 10.8L5.4 10.3Q5.95 9.7 6.05 8.75L6.05 8.2z" />
</g>
<g id="PathID_1925" transform="matrix(1, 0, 0, 1, 21.35, 28.2)">
<path style="fill:none;stroke-width:0.7;stroke-linecap:round;stroke-linejoin:miter;stroke-miterlimit:5;stroke:#000000;stroke-opacity:0.4" d="M5.75 3.75Q-2 5.95 -6.8 11.65" />
<path style="fill:none;stroke-width:0.7;stroke-linecap:round;stroke-linejoin:miter;stroke-miterlimit:5;stroke:#000000;stroke-opacity:0.4" d="M4.25 2.8Q-5.05 2.95 -12.1 7.9" />
</g>
</svg>
