<?xml version="1.0" encoding="utf-8"?>
<svg version="1.1" id="Layer_1"
xmlns="http://www.w3.org/2000/svg"
xmlns:xlink="http://www.w3.org/1999/xlink"
width="15px" height="15px"
xml:space="preserve">
<g id="PathID_1759" transform="matrix(1, 0, 0, 1, 7.75, 7.2)">
<path style="fill:#555555;fill-opacity:1" d="M-5.45 -2.1L-4.15 -4.05L-2.2 -5.65L0.1 -6.1Q2.65 -6.15 4.35 -4.15L5.05 -3.3L5.6 -2.2Q6.6 2 4.95 4Q3.55 5.65 1.2 5.75Q-6 5.2 -5.45 -2.1" />
<path style="fill:#3A3939;fill-opacity:1" d="M1.2 5.75Q3.55 5.65 4.95 4Q6.6 2 5.6 -2.2Q6.15 -0.9 6.15 0.65Q6.15 3.5 4.35 5.55Q2.65 7.5 0.1 7.55Q-1.5 7.55 -2.8 6.8L-4.2 5.55Q-6 3.6 -6 0.75Q-6 -0.8 -5.45 -2.1Q-6 5.2 1.2 5.75" />
<path style="fill:none;stroke-width:0.7;stroke-linecap:round;stroke-linejoin:miter;stroke-miterlimit:5;stroke:#000000;stroke-opacity:0.4" d="M5.05 -3.3L5.6 -2.2Q6.15 -0.9 6.15 0.65Q6.15 3.5 4.35 5.55Q2.65 7.5 0.1 7.55Q-1.5 7.55 -2.8 6.8L-4.2 5.55Q-6 3.6 -6 0.75Q-6 -0.8 -5.45 -2.1L-4.15 -4.05L-2.2 -5.65" />
</g>
<g id="PathID_1760" transform="matrix(1, 0, 0, 1, 7.75, 7.2)">
<path style="fill:#F2F2F2;fill-opacity:1" d="M3.2 5.5Q-2.5 5.2 -5.05 1.25L-5.1 3.9Q-7 0.3 -5.55 -3.4Q-3.55 -6.45 -2.6 -7.1Q-0.85 -7.45 0.75 -6.6Q4.05 -5.4 5.9 -2.75L6.45 -0.1Q5.35 3.75 3.2 5.5" />
<path style="fill:#BDBDBD;fill-opacity:1" d="M-5.55 -3.4Q-7 0.3 -5.1 3.9L-5.05 1.25Q-2.5 5.2 3.2 5.5Q5.35 3.75 6.45 -0.1Q6.95 3.85 5.25 6.95Q-3.55 7.4 -7.75 4.45L-7.45 0.45Q-7.3 -0.8 -5.55 -3.4" />
<path style="fill:none;stroke-width:0.7;stroke-linecap:round;stroke-linejoin:round;stroke-miterlimit:3;stroke:#000000;stroke-opacity:0.4" d="M6.45 -0.1L5.9 -2.75" />
<path style="fill:none;stroke-width:0.7;stroke-linecap:round;stroke-linejoin:round;stroke-miterlimit:3;stroke:#000000;stroke-opacity:0.4" d="M-2.6 -7.1Q-3.55 -6.45 -5.55 -3.4" />
<path style="fill:none;stroke-width:0.7;stroke-linecap:round;stroke-linejoin:round;stroke-miterlimit:3;stroke:#000000;stroke-opacity:0.4" d="M6.45 -0.1Q6.95 3.85 5.25 6.95Q-3.55 7.4 -7.75 4.45L-7.45 0.45Q-7.3 -0.8 -5.55 -3.4" />
</g>
</svg>
