<?xml version="1.0" encoding="utf-8"?>
<svg version="1.1" id="Layer_1"
xmlns="http://www.w3.org/2000/svg"
xmlns:xlink="http://www.w3.org/1999/xlink"
width="9px" height="8px"
xml:space="preserve">
<g id="PathID_4542" transform="matrix(1, 0, 0, 1, 3.9, 3.8)">
<path style="fill:#8E542E;fill-opacity:1" d="M3.05 -1.55L2.85 -1.3Q3.05 -2.4 3.45 -2.1L4 -1.6L4 -1.3Q4.4 -0.95 4.2 0Q3.3 -1.85 3.05 -1.55M4.2 0Q3.25 -0.3 2.7 1.1Q3.25 -0.3 4.2 0L4.2 0.8Q2.85 3.05 1.95 2.6Q1.35 1.85 -0.6 0.6Q-2.85 0.4 -3.7 -0.6L-3.8 -0.85Q-4.15 -2.25 -3.5 -3.1Q-2.2 -4 -0.9 -3.7Q0.65 -3.35 1.5 -2.3L1.9 -1.8L2.5 -1.15Q2.6 -1.1 2.85 -1.3L3.05 -1.55Q3.3 -1.85 4 -1.3" />
<path style="fill:#593118;fill-opacity:1" d="M4.2 0.8Q3.9 2.8 3.35 3.35L2.7 3.75Q2.05 3.9 1.3 3.3L-0.6 2.05L-2.15 1.05L-3.55 -0.15L-3.7 -0.6Q-2.85 0.4 -0.6 0.6Q1.35 1.85 1.95 2.6Q2.85 3.05 4.2 0.8" />
<path style="fill:none;stroke-width:0.7;stroke-linecap:round;stroke-linejoin:round;stroke-miterlimit:3;stroke:#000000;stroke-opacity:0.301961" d="M4 -1.3L4 -1.6L3.45 -2.1Q3.05 -2.4 2.85 -1.3L3.05 -1.55Q3.3 -1.85 4 -1.3Q4.4 -0.95 4.2 0L4.2 0.8Q3.9 2.8 3.35 3.35L2.7 3.75Q2.05 3.9 1.3 3.3L-0.6 2.05L-2.15 1.05L-3.55 -0.15L-3.7 -0.6L-3.8 -0.85" />
<path style="fill:none;stroke-width:0.7;stroke-linecap:round;stroke-linejoin:round;stroke-miterlimit:3;stroke:#000000;stroke-opacity:0.301961" d="M2.5 -1.15Q2.6 -1.1 2.85 -1.3" />
<path style="fill:none;stroke-width:0.7;stroke-linecap:round;stroke-linejoin:round;stroke-miterlimit:3;stroke:#000000;stroke-opacity:0.301961" d="M4.2 0Q3.25 -0.3 2.7 1.1" />
</g>
<g id="PathID_4543" transform="matrix(1, 0, 0, 1, 3.9, 3.8)">
<path style="fill:#E9DBCB;fill-opacity:1" d="M1 -0.15L0.35 0.1Q-0.15 0.05 -0.15 0.35L0.35 1.1Q0.8 1.65 0.35 2.1Q-0.2 2.55 -0.7 1.5L-1.1 0.05Q-1.1 -0.45 -0.7 -0.7L0 -0.6Q0.4 -0.5 0.5 -0.85L0.05 -1.95Q-0.3 -2.55 0.55 -2.8Q1.45 -3 1.75 -2.6Q2.05 -2.15 1.6 -2.2L0.9 -2L1.3 -1.45Q1.6 -0.95 1 -0.15" />
</g>
</svg>
