<?xml version="1.0" encoding="utf-8"?>
<svg version="1.1" id="Layer_1"
xmlns="http://www.w3.org/2000/svg"
xmlns:xlink="http://www.w3.org/1999/xlink"
width="20px" height="42px"
xml:space="preserve">
<g id="PathID_4486" transform="matrix(1, 0, 0, 1, 11, 21.55)">
<path style="fill:#66644F;fill-opacity:1" d="M0.9 15.95Q-2.1 15.1 -0.55 14.5Q-1.75 14.1 -2.75 13.4Q-3.75 12.65 -2.05 12.05L-3 11.35Q-4.65 10 -2.6 9.55Q-3.8 5.2 -2.95 1.1Q-2.45 -0.75 -2.3 -1.7Q-2.15 -2.65 -2.5 -5.9Q-2.9 -9.2 -4 -10.7Q-5.15 -12.25 -6.4 -13.05Q-8.45 -13.35 -8.85 -13.7Q-9.55 -14.25 -8.9 -14.6L-8.1 -14.85L-9.3 -15.5Q-10.55 -16.15 -10.85 -16.45Q-11.05 -17.3 -8.95 -17.55Q-10.8 -19.35 -10.25 -20.1L-8.15 -20.25Q-7.15 -23.25 -5.3 -18.35Q-5.45 -20.9 -3.9 -20.25Q-3.8 -19.75 -3.85 -18.85L-3.65 -17.5Q-2.4 -15.75 -1.3 -12.85Q0.45 -7.9 -0.3 -1.05Q-1.05 5.85 1.2 9.2L1.6 9.75Q1.4 7.85 2.35 8.1L3.2 11.5Q4.85 13 6.95 13.75Q8.15 15.4 8.1 16.55Q3.85 16.95 0.9 15.95" />
<path style="fill:#3E3E36;fill-opacity:1" d="M-2.95 1.1Q-3.8 5.2 -2.6 9.55Q-4.65 10 -3 11.35L-2.05 12.05Q-3.75 12.65 -2.75 13.4Q-1.75 14.1 -0.55 14.5Q-2.1 15.1 0.9 15.95Q3.85 16.95 8.1 16.55Q8.05 18.15 5.75 19L1.8 19.45Q-2.25 18.6 -0.1 17.6Q-3.7 15.65 -2.8 14.7Q-5.6 12.7 -4.05 12Q-5.65 7.6 -4.9 6.75L-3.8 8.3Q-4.05 5.5 -3.25 2L-2.95 1.1" />
<path style="fill:none;stroke-width:0.7;stroke-linecap:round;stroke-linejoin:miter;stroke-miterlimit:5;stroke:#000000;stroke-opacity:0.301961" d="M8.1 16.55Q8.15 15.4 6.95 13.75Q4.85 13 3.2 11.5L2.35 8.1Q1.4 7.85 1.6 9.75L1.2 9.2Q-1.05 5.85 -0.3 -1.05Q0.45 -7.9 -1.3 -12.85Q-2.4 -15.75 -3.65 -17.5L-3.85 -18.85Q-3.8 -19.75 -3.9 -20.25Q-5.45 -20.9 -5.3 -18.35Q-7.15 -23.25 -8.15 -20.25L-10.25 -20.1Q-10.8 -19.35 -8.95 -17.55Q-11.05 -17.3 -10.85 -16.45Q-10.55 -16.15 -9.3 -15.5L-8.1 -14.85L-8.9 -14.6Q-9.55 -14.25 -8.85 -13.7Q-8.45 -13.35 -6.4 -13.05Q-5.15 -12.25 -4 -10.7Q-2.9 -9.2 -2.5 -5.9Q-2.15 -2.65 -2.3 -1.7Q-2.45 -0.75 -2.95 1.1" />
<path style="fill:none;stroke-width:0.7;stroke-linecap:round;stroke-linejoin:miter;stroke-miterlimit:5;stroke:#000000;stroke-opacity:0.301961" d="M8.1 16.55Q8.05 18.15 5.75 19L1.8 19.45Q-2.25 18.6 -0.1 17.6Q-3.7 15.65 -2.8 14.7Q-5.6 12.7 -4.05 12Q-5.65 7.6 -4.9 6.75L-3.8 8.3Q-4.05 5.5 -3.25 2L-2.95 1.1" />
</g>
</svg>
