<?xml version="1.0" encoding="utf-8"?>
<svg version="1.1" id="Layer_1"
xmlns="http://www.w3.org/2000/svg"
xmlns:xlink="http://www.w3.org/1999/xlink"
width="10px" height="8px"
xml:space="preserve">
<g id="PathID_3032" transform="matrix(1, 0, 0, 1, 4.85, 3.8)">
<radialGradient
id="RadialGradID_702" gradientUnits="userSpaceOnUse" gradientTransform="matrix(0.00743103, 0, 0, 0.00743103, 2.55, 1.65)" spreadMethod ="pad" cx="0" cy="0" r="819.2" fx="0" fy="0" >
<stop  offset="0.388235"  style="stop-color:#FFA980;stop-opacity:1" />
<stop  offset="0.576471"  style="stop-color:#FEDB89;stop-opacity:1" />
</radialGradient>
<path style="fill:url(#RadialGradID_702) " d="M0.5 0.85L0.5 1.2L-0.1 0.75Q-2.3 0.45 -3.25 -0.2L-3.3 -0.25L-3.4 -0.3L-3.7 -0.6L-3.8 -0.85Q-4.15 -2.25 -3.5 -3.1Q-2.2 -4 -0.9 -3.7Q0.65 -3.35 1.5 -2.3L2.2 -1.4Q0.45 -1.1 0.5 0.85" />
<path style="fill:#FFF4D7;fill-opacity:1" d="M0.5 1.2L0.5 0.85Q0.45 -1.1 2.2 -1.4L2.5 -1.15L2.75 -1.2L2.85 -1.3Q3.05 -2.4 3.45 -2.1L4 -1.6L4 -1.3L4.05 -1.25L4.1 -1.15L4.2 0L4.2 0.8L3.4 2Q2.6 2.95 1.95 2.6L0.5 1.2M2.85 -1.3L3.05 -1.55Q3.4 -1.95 4.05 -1.25Q3.4 -1.95 3.05 -1.55L2.85 -1.3M3.35 0.15L4.2 0L3.35 0.15" />
<path style="fill:#78583A;fill-opacity:1" d="M4.05 -1.25L4.15 -1.1L4.1 -1.15L4.05 -1.25" />
<path style="fill:#412D1F;fill-opacity:1" d="M4.05 -1.25L4.1 -1.15L4.05 -1.25" />
<path style="fill:#DBCEBE;fill-opacity:1" d="M1.65 3.4Q0.55 2.75 0.5 1.2L1.95 2.6Q2.6 2.95 3.4 2L4.2 0.8L3.9 2.3L3.35 3.35L2.7 3.75L2.15 3.75L1.65 3.4" />
<radialGradient
id="RadialGradID_703" gradientUnits="userSpaceOnUse" gradientTransform="matrix(0.00747681, 0, 0, 0.00747681, 2.65, 2.85)" spreadMethod ="pad" cx="0" cy="0" r="819.2" fx="0" fy="0" >
<stop  offset="0.388235"  style="stop-color:#D57F56;stop-opacity:1" />
<stop  offset="0.576471"  style="stop-color:#D3B368;stop-opacity:1" />
</radialGradient>
<path style="fill:url(#RadialGradID_703) " d="M-3.3 -0.25L-3.25 -0.2Q-2.3 0.45 -0.1 0.75L0.5 1.2Q0.55 2.75 1.65 3.4L2.15 3.75L1.65 3.55L1.3 3.3Q0.1 2.4 -1.6 1.45L-1.65 1.45L-1.65 1.4L-1.7 1.4L-2.5 1.15L-2.25 0.75L-3.85 0.25L-3.3 -0.25M-3.8 -0.85L-3.7 -0.6L-3.4 -0.3L-3.95 -0.7L-3.8 -0.85" />
<radialGradient
id="RadialGradID_704" gradientUnits="userSpaceOnUse" gradientTransform="matrix(0.00193787, -0.00193787, 0.00396729, 0.00396729, -2.1, -0.1)" spreadMethod ="pad" cx="0" cy="0" r="819.2" fx="0" fy="0" >
<stop  offset="0.396078"  style="stop-color:#D3B368;stop-opacity:1" />
<stop  offset="0.6"  style="stop-color:#3F6918;stop-opacity:1" />
</radialGradient>
<path style="fill:url(#RadialGradID_704) " d="M-3.95 -0.7L-3.4 -0.3L-3.3 -0.25L-3.85 0.25L-2.25 0.75L-2.5 1.15L-1.7 1.4L-2.75 1.55L-3.4 1.45L-2.95 0.95Q-3.75 0.95 -4.7 0.45L-4 -0.05L-4.85 -0.75L-4.3 -0.85L-3.8 -0.85L-3.95 -0.7" />
<path style="fill:none;stroke-width:0.7;stroke-linecap:round;stroke-linejoin:round;stroke-miterlimit:3;stroke:#000000;stroke-opacity:0.301961" d="M2.5 -1.15L2.75 -1.2L2.85 -1.3Q3.05 -2.4 3.45 -2.1L4 -1.6L4 -1.3L4.05 -1.25L4.15 -1.1L4.1 -1.15L4.2 0L4.2 0.8L3.9 2.3L3.35 3.35L2.7 3.75L2.15 3.75L1.65 3.55L1.3 3.3Q0.1 2.4 -1.6 1.45L-1.65 1.45L-1.7 1.4L-2.75 1.55L-3.4 1.45L-2.95 0.95Q-3.75 0.95 -4.7 0.45L-4 -0.05L-4.85 -0.75L-4.3 -0.85L-3.8 -0.85" />
<path style="fill:none;stroke-width:0.7;stroke-linecap:round;stroke-linejoin:round;stroke-miterlimit:3;stroke:#000000;stroke-opacity:0.301961" d="M4.05 -1.25L4.1 -1.15L4.05 -1.25Q3.4 -1.95 3.05 -1.55L2.85 -1.3" />
<path style="fill:none;stroke-width:0.7;stroke-linecap:round;stroke-linejoin:round;stroke-miterlimit:3;stroke:#000000;stroke-opacity:0.301961" d="M4.2 0L3.35 0.15" />
<path style="fill:none;stroke-width:0.7;stroke-linecap:round;stroke-linejoin:round;stroke-miterlimit:3;stroke:#000000;stroke-opacity:0.301961" d="M-1.65 1.45L-1.65 1.4L-1.7 1.4" />
</g>
</svg>
