<?xml version="1.0" encoding="utf-8"?>
<svg version="1.1" id="Layer_1"
xmlns="http://www.w3.org/2000/svg"
xmlns:xlink="http://www.w3.org/1999/xlink"
width="9px" height="8px"
xml:space="preserve">
<g id="PathID_3374" transform="matrix(1, 0, 0, 1, 4.5, 3.8)">
<radialGradient
id="RadialGradID_795" gradientUnits="userSpaceOnUse" gradientTransform="matrix(0.0105286, 0, 0, 0.0105286, 3.35, 2.25)" spreadMethod ="pad" cx="0" cy="0" r="819.2" fx="0" fy="0" >
<stop  offset="0.172549"  style="stop-color:#F5A682;stop-opacity:1" />
<stop  offset="0.552941"  style="stop-color:#F3E6D3;stop-opacity:1" />
</radialGradient>
<path style="fill:url(#RadialGradID_795) " d="M3.45 0.9L4.2 2.1Q4.55 2.6 3.5 3.25Q3.25 2.2 2.3 1.6Q3.25 2.2 3.5 3.25L3.4 3.55Q3.25 3.75 2.7 3.75Q1.95 2.25 -0.1 0.75Q-1.25 0.6 -4.35 -1.55L-3.5 -3.1Q-2.2 -4 -0.9 -3.7Q0.65 -3.35 2 -1.95L3.6 -0.1Q4.05 0.5 4.2 2.1L3.45 0.9" />
<radialGradient
id="RadialGradID_796" gradientUnits="userSpaceOnUse" gradientTransform="matrix(0.00784302, 0, 0, 0.00784302, 2.4, 2.95)" spreadMethod ="pad" cx="0" cy="0" r="819.2" fx="0" fy="0" >
<stop  offset="0.172549"  style="stop-color:#BD6E4A;stop-opacity:1" />
<stop  offset="0.552941"  style="stop-color:#AA9878;stop-opacity:1" />
</radialGradient>
<path style="fill:url(#RadialGradID_796) " d="M1.1 3.25L-1 2.05Q-3.1 1.05 -3.8 0.1Q-4.3 -0.5 -4.35 -1.55Q-1.25 0.6 -0.1 0.75Q1.95 2.25 2.7 3.75Q2.05 3.9 1.1 3.25" />
<path style="fill:none;stroke-width:0.7;stroke-linecap:round;stroke-linejoin:miter;stroke-miterlimit:5;stroke:#000000;stroke-opacity:0.4" d="M4.2 2.1Q4.05 0.5 3.6 -0.1L2 -1.95" />
<path style="fill:none;stroke-width:0.7;stroke-linecap:round;stroke-linejoin:miter;stroke-miterlimit:5;stroke:#000000;stroke-opacity:0.4" d="M2.7 3.75Q3.25 3.75 3.4 3.55L3.5 3.25Q3.25 2.2 2.3 1.6" />
<path style="fill:none;stroke-width:0.7;stroke-linecap:round;stroke-linejoin:miter;stroke-miterlimit:5;stroke:#000000;stroke-opacity:0.4" d="M-4.35 -1.55Q-4.3 -0.5 -3.8 0.1Q-3.1 1.05 -1 2.05L1.1 3.25Q2.05 3.9 2.7 3.75" />
<path style="fill:none;stroke-width:0.7;stroke-linecap:round;stroke-linejoin:miter;stroke-miterlimit:5;stroke:#000000;stroke-opacity:0.4" d="M4.2 2.1L3.45 0.9" />
<path style="fill:none;stroke-width:0.7;stroke-linecap:round;stroke-linejoin:miter;stroke-miterlimit:5;stroke:#000000;stroke-opacity:0.4" d="M3.5 3.25Q4.55 2.6 4.2 2.1" />
</g>
</svg>
