<?xml version="1.0" encoding="utf-8"?>
<svg version="1.1" id="Layer_1"
xmlns="http://www.w3.org/2000/svg"
xmlns:xlink="http://www.w3.org/1999/xlink"
width="25px" height="25px"
xml:space="preserve">
<g id="PathID_4220" transform="matrix(1, 0, 0, 1, 12.35, 12.75)">
<path style="fill:#313131;fill-opacity:1" d="M-0.15 -8.3L1.8 -9.65L3.75 -9.4Q6.1 -8.7 7.9 -6.15L8.85 -4.6L9.25 -3.8L9.25 -3.75L9.75 -2.8L8.4 -3Q7.5 -3 5.7 -0.75Q3.85 1.5 3.85 2.65L4.25 3.85L2.55 4.05L1.9 4.1L-2.3 3.65L-4.45 2.55Q-6.6 1.5 -6.85 -1.45Q-7.1 -4.45 -6.25 -5.9L-4.75 -7.8Q-2.2 -10.1 -3 -12.5Q-1.6 -11.15 -1.95 -9.75L-2.45 -8L-1.3 -9.85Q-0.45 -11.3 2.35 -11.15Q-0.05 -9.3 -0.15 -8.3" />
<path style="fill:#171612;fill-opacity:1" d="M-1.3 -9.85L-2.45 -8L-1.95 -9.75Q-1.6 -11.15 -3 -12.5Q-0.75 -11.15 -1.3 -9.85M-2.25 6.45L-2.9 6.1Q-5.9 4.65 -6.45 4.05Q-7.7 2.8 -7.75 -0.65Q-7.8 -3.6 -6.25 -5.9Q-7.1 -4.45 -6.85 -1.45Q-6.6 1.5 -4.45 2.55L-2.3 3.65L1.9 4.1L2.55 4.05L4.25 3.85L5.45 5.2L7.1 6.35L5.3 7.3L4.55 7.55L2.5 8.25L0.75 7.35L-2 6.55L-2.25 6.45M1.8 -9.65L-0.15 -8.3Q-0.05 -9.3 2.35 -11.15L1.6 -10.15Q1.45 -9.6 1.8 -9.65" />
<path style="fill:#EEEEEC;fill-opacity:1" d="M4.25 3.85L3.85 2.65Q3.85 1.5 5.7 -0.75Q7.5 -3 8.4 -3L9.75 -2.8L10.15 -2.2L10.8 -1.55L11.9 -0.7Q8.75 2.95 4.25 3.85" />
<path style="fill:#968980;fill-opacity:1" d="M5.45 5.2L4.25 3.85Q8.75 2.95 11.9 -0.7L12.1 0.6Q12.15 1.75 11.45 2.8L8.8 5.15L7.1 6.35L5.45 5.2" />
<path style="fill:none;stroke-width:0.7;stroke-linecap:round;stroke-linejoin:miter;stroke-miterlimit:5;stroke:#000000;stroke-opacity:0.4" d="M2.35 -11.15Q-0.45 -11.3 -1.3 -9.85" />
<path style="fill:none;stroke-width:0.7;stroke-linecap:round;stroke-linejoin:miter;stroke-miterlimit:5;stroke:#000000;stroke-opacity:0.4" d="M-3 -12.5Q-2.2 -10.1 -4.75 -7.8L-6.25 -5.9" />
<path style="fill:none;stroke-width:0.7;stroke-linecap:round;stroke-linejoin:miter;stroke-miterlimit:5;stroke:#000000;stroke-opacity:0.4" d="M9.75 -2.8L9.25 -3.75L9.25 -3.8L8.85 -4.6L7.9 -6.15Q6.1 -8.7 3.75 -9.4L1.8 -9.65" />
<path style="fill:none;stroke-width:0.7;stroke-linecap:round;stroke-linejoin:miter;stroke-miterlimit:5;stroke:#000000;stroke-opacity:0.4" d="M2.35 -11.15L1.6 -10.15Q1.45 -9.6 1.8 -9.65" />
<path style="fill:none;stroke-width:0.7;stroke-linecap:round;stroke-linejoin:miter;stroke-miterlimit:5;stroke:#000000;stroke-opacity:0.4" d="M9.75 -2.8L10.15 -2.2L10.8 -1.55L11.9 -0.7L12.1 0.6Q12.15 1.75 11.45 2.8L8.8 5.15L7.1 6.35L5.3 7.3L4.55 7.55" />
<path style="fill:none;stroke-width:0.7;stroke-linecap:round;stroke-linejoin:miter;stroke-miterlimit:5;stroke:#000000;stroke-opacity:0.4" d="M-2 6.55L-2.4 6.4L-2.9 6.1Q-5.9 4.65 -6.45 4.05Q-7.7 2.8 -7.75 -0.65Q-7.8 -3.6 -6.25 -5.9" />
<path style="fill:none;stroke-width:0.7;stroke-linecap:round;stroke-linejoin:miter;stroke-miterlimit:5;stroke:#000000;stroke-opacity:0.4" d="M-3 -12.5Q-0.75 -11.15 -1.3 -9.85" />
<path style="fill:none;stroke-width:0.7;stroke-linecap:round;stroke-linejoin:miter;stroke-miterlimit:5;stroke:#000000;stroke-opacity:0.4" d="M-2.9 6.1L-2.25 6.45L-2 6.55" />
</g>
<g id="PathID_4221" transform="matrix(1, 0, 0, 1, 12.35, 12.75)">
<path style="fill:none;stroke-width:0.7;stroke-linecap:round;stroke-linejoin:miter;stroke-miterlimit:5;stroke:#000000;stroke-opacity:0.501961" d="M4.25 2.8Q-5.05 2.95 -12.1 7.9" />
</g>
<g id="PathID_4222" transform="matrix(1, 0, 0, 1, 12.35, 12.75)">
<path style="fill:none;stroke-width:0.7;stroke-linecap:round;stroke-linejoin:miter;stroke-miterlimit:5;stroke:#000000;stroke-opacity:0.501961" d="M5.75 3.75Q-2 5.95 -6.8 11.65" />
</g>
<g id="PathID_4223" transform="matrix(1, 0, 0, 1, 12.35, 12.75)">
<path style="fill:#FFFFFF;fill-opacity:1" d="M9.4 -0.3Q10.35 -0.85 11.4 -0.8Q11 0.5 9.4 -0.3" />
<path style="fill:#4B3C39;fill-opacity:1" d="M10.15 0.8Q9 0.8 8.8 0.05L9.4 -0.3Q11 0.5 11.4 -0.8L11.7 -0.8L12.1 -0.05Q11.1 1.2 11.4 1.6L10.8 1.95Q11.05 1.25 10.15 0.8" />
<path style="fill:#2E231D;fill-opacity:1" d="M8.8 0.05Q9 0.8 10.15 0.8Q11.05 1.25 10.8 1.95L10.4 2.1Q10 0.8 8.85 1.15L8.45 0.35L8.8 0.05" />
<path style="fill:none;stroke-width:0.7;stroke-linecap:round;stroke-linejoin:round;stroke-miterlimit:3;stroke:#000000;stroke-opacity:0.301961" d="M10.8 1.95L11.4 1.6Q11.1 1.2 12.1 -0.05L11.7 -0.8L11.4 -0.8" />
<path style="fill:none;stroke-width:0.7;stroke-linecap:round;stroke-linejoin:round;stroke-miterlimit:3;stroke:#000000;stroke-opacity:0.301961" d="M9.4 -0.3L8.8 0.05" />
<path style="fill:none;stroke-width:0.7;stroke-linecap:round;stroke-linejoin:round;stroke-miterlimit:3;stroke:#000000;stroke-opacity:0.301961" d="M10.8 1.95L10.4 2.1Q10 0.8 8.85 1.15L8.45 0.35L8.8 0.05" />
<path style="fill:none;stroke-width:0.7;stroke-linecap:round;stroke-linejoin:round;stroke-miterlimit:3;stroke:#000000;stroke-opacity:0.301961" d="M11.4 -0.8Q10.35 -0.85 9.4 -0.3" />
</g>
<g id="PathID_4224" transform="matrix(1, 0, 0, 1, 12.35, 12.75)">
<path style="fill:#8C4230;fill-opacity:1" d="M-4.3 -2.95Q-3.4 -5.7 1.75 -6.65Q-3.75 -3.05 -2.2 2.2Q-4.95 0.2 -4.3 -2.95" />
</g>
</svg>
