<?xml version="1.0" encoding="utf-8"?>
<svg version="1.1" id="Layer_1"
xmlns="http://www.w3.org/2000/svg"
xmlns:xlink="http://www.w3.org/1999/xlink"
width="21px" height="20px"
xml:space="preserve">
<g id="PathID_3204" transform="matrix(1, 0, 0, 1, 10.6, 9.3)">
<path style="fill:#AD520C;fill-opacity:1" d="M-2.7 -7.05Q-1.75 -7.6 1.15 -8.65Q5.3 -10.15 6.5 -8.15Q7.5 -8.55 8.55 -6.2Q9.65 -3.9 9.7 -2.15L9.5 -2.15Q9.1 -4.45 8.05 -4.95Q7.25 -4.4 6 -4.05Q4.95 -6.4 1.75 -6.55Q0.05 -6.3 -1.5 -5.2Q-2.35 -5.95 -2.7 -7.05M4.05 7.95L5.4 7.6Q9 6.4 9.4 2.9Q9.6 1.15 9.75 0.65L9.85 2.9L9.85 3.5Q10 7.4 5.5 8.85L4.85 9.05L2.6 9.6L4.05 7.95M-7.45 6.4L-7.2 7.95L-7.55 7.75L-8.35 7.2Q-10.85 5.35 -10.4 3.4Q-9.95 1.4 -8.75 -0.15Q-10.2 3.75 -8 5.9L-7.45 6.4" />
<path style="fill:#CF9A81;fill-opacity:1" d="M9.7 -2.15L9.5 -2.15L9.7 -2.15" />
<radialGradient
id="RadialGradID_776" gradientUnits="userSpaceOnUse" gradientTransform="matrix(0.0116425, 0, 0, 0.0116425, 1.7, -1.15)" spreadMethod ="pad" cx="0" cy="0" r="819.2" fx="0" fy="0" >
<stop  offset="0.113725"  style="stop-color:#BDB9B4;stop-opacity:1" />
<stop  offset="0.890196"  style="stop-color:#9E6A76;stop-opacity:1" />
</radialGradient>
<path style="fill:url(#RadialGradID_776) " d="M9.5 -2.15L9.7 -2.15L9.75 0.25L9.5 -2.15" />
<path style="fill:#D58141;fill-opacity:1" d="M9.4 2.9Q9 6.4 5.4 7.6L4.05 7.95Q6.3 5.45 6.45 2.4L6.55 -0.7Q6.6 -2.7 6 -4.05Q7.25 -4.4 8.05 -4.95Q9.1 -4.45 9.5 -2.15L9.75 0.25L9.75 0.65Q9.6 1.15 9.4 2.9M-6.3 0.3Q-7.65 3.25 -7.45 6.4L-8 5.9Q-10.2 3.75 -8.75 -0.15L-7.75 -1.55L-7.25 -2.25L-5.9 -3.9L-4.4 -5.45L-2.7 -7.05Q-2.35 -5.95 -1.5 -5.2Q-4.05 -3.5 -6.3 0.3" />
<path style="fill:#FAFAFA;fill-opacity:1" d="M-1.5 -5.2Q-0.05 -3.9 2.95 -3.6L6 -4.05Q6.6 -2.7 6.55 -0.7L6.45 2.4Q6.3 5.45 4.05 7.95Q0.8 8.55 -4.35 7.8Q-6.25 7.25 -7.45 6.4Q-7.65 3.25 -6.3 0.3Q-4.05 -3.5 -1.5 -5.2" />
<path style="fill:#BCB0C8;fill-opacity:1" d="M-7.45 6.4Q-6.25 7.25 -4.35 7.8Q0.8 8.55 4.05 7.95L2.6 9.6Q-0.15 10.05 -2.45 9.65Q-5.15 9.2 -7.2 7.95L-7.45 6.4M1.75 -6.55Q4.95 -6.4 6 -4.05L2.95 -3.6Q-0.05 -3.9 -1.5 -5.2Q0.05 -6.3 1.75 -6.55" />
<path style="fill:none;stroke-width:0.7;stroke-linecap:round;stroke-linejoin:miter;stroke-miterlimit:5;stroke:#000000;stroke-opacity:0.4" d="M6.5 -8.15Q7.5 -8.55 8.55 -6.2Q9.65 -3.9 9.7 -2.15L9.75 0.25L9.75 0.65L9.85 2.9L9.85 3.5Q10 7.4 5.5 8.85L4.85 9.05L2.6 9.6Q-0.15 10.05 -2.45 9.65Q-5.15 9.2 -7.2 7.95L-7.55 7.75L-8.35 7.2Q-10.85 5.35 -10.4 3.4Q-9.95 1.4 -8.75 -0.15L-7.75 -1.55L-7.25 -2.25L-5.9 -3.9L-4.4 -5.45L-2.7 -7.05Q-1.75 -7.6 1.15 -8.65" />
</g>
</svg>
