<?xml version="1.0" encoding="utf-8"?>
<svg version="1.1" id="Layer_1"
xmlns="http://www.w3.org/2000/svg"
xmlns:xlink="http://www.w3.org/1999/xlink"
width="20px" height="21px"
xml:space="preserve">
<g id="PathID_3619" transform="matrix(1, 0, 0, 1, 9.55, 9.85)">
<path style="fill:#444D5C;fill-opacity:1" d="M6.7 -9.15L7.55 -6.55Q8 -4.1 7.9 -2.3Q6.4 8.75 -3.1 7.25Q-3.05 7 -3.85 6.8Q-10.95 3.7 -7.85 -2.15L-7.15 -2.85L-7.1 -2.9L-5.7 -4.2L-5 -4.9L-4.9 -5L-2.1 -7.3L0.2 -9.15Q4.85 -10.5 6.7 -9.15" />
<path style="fill:#2B3039;fill-opacity:1" d="M-3.85 6.8Q-3.05 7 -3.1 7.25Q6.4 8.75 7.9 -2.3Q8 -4.1 7.55 -6.55L6.7 -9.15Q7.5 -8.55 8.6 -6.35L8.75 -6.05L8.8 -5.85Q9.6 -3.9 9.25 -1.55L8.65 4.05Q8.5 7.05 5.45 8.75Q2.4 10.45 -1.15 10.15L-3.25 9.65Q-5.65 8.85 -7.2 7.25Q-9.65 4.65 -9.4 1.9Q-9.25 0.05 -7.85 -2.15Q-10.95 3.7 -3.85 6.8" />
<path style="fill:none;stroke-width:0.7;stroke-linecap:round;stroke-linejoin:miter;stroke-miterlimit:5;stroke:#000000;stroke-opacity:0.4" d="M-7.85 -2.15Q-9.25 0.05 -9.4 1.9Q-9.65 4.65 -7.2 7.25Q-5.65 8.85 -3.25 9.65L-1.15 10.15Q2.4 10.45 5.45 8.75Q8.5 7.05 8.65 4.05L9.25 -1.55Q9.6 -3.9 8.8 -5.85L8.75 -6.05L8.6 -6.35Q7.5 -8.55 6.7 -9.15" />
<path style="fill:none;stroke-width:0.7;stroke-linecap:round;stroke-linejoin:miter;stroke-miterlimit:5;stroke:#000000;stroke-opacity:0.4" d="M-7.85 -2.15L-7.15 -2.85" />
<path style="fill:none;stroke-width:0.7;stroke-linecap:round;stroke-linejoin:miter;stroke-miterlimit:5;stroke:#000000;stroke-opacity:0.4" d="M-7.1 -2.9L-5.7 -4.2L-5 -4.9L-4.9 -5L-2.1 -7.3L0.2 -9.15" />
</g>
</svg>
