<?xml version="1.0" encoding="utf-8"?>
<svg version="1.1" id="Layer_1"
xmlns="http://www.w3.org/2000/svg"
xmlns:xlink="http://www.w3.org/1999/xlink"
width="4px" height="4px"
xml:space="preserve">
<g id="PathID_3786" transform="matrix(1, 0, 0, 1, 0, 0)">
<path style="fill:#808080;fill-opacity:1" d="M2.65 2.8L1.95 3.15L1.7 3.15L0.95 2.95L1.1 3.1L1.8 3.45L2 3.45L2.95 3.1L3.3 2.15Q3.3 1.6 2.95 1.25L2.8 1.1L3 1.85Q3 2.4 2.65 2.8M3.8 1.9Q3.8 2.7 3.25 3.25Q2.7 3.8 1.9 3.8Q1.1 3.8 0.55 3.25Q0 2.7 0 1.9Q0 1.1 0.55 0.55Q1.1 0 1.9 0Q2.7 0 3.25 0.55Q3.8 1.1 3.8 1.9M1.75 0.6L1.65 0.55L1.25 0.45L0.75 0.65Q0.55 0.85 0.6 1.2L0.8 1.65L0.85 1.7L1.4 1.95L1.95 1.7L2.1 1.2L2 0.85L1.8 0.65L1.75 0.6" />
<path style="fill:#585151;fill-opacity:1" d="M3 1.85L2.8 1.1L2.95 1.25Q3.3 1.6 3.3 2.15L2.95 3.1L2 3.45L1.8 3.45L1.1 3.1L0.95 2.95L1.7 3.15L1.95 3.15L2.65 2.8Q3 2.4 3 1.85" />
<path style="fill:#A5AEB4;fill-opacity:1" d="M1.8 0.65L2 0.85L2.1 1.2L1.95 1.7L1.4 1.95L0.85 1.7L0.8 1.65L0.6 1.2Q0.55 0.85 0.75 0.65L1.25 0.45L1.65 0.55L1.75 0.6L1.8 0.65" />
<path style="fill:none;stroke-width:0.7;stroke-linecap:round;stroke-linejoin:round;stroke-miterlimit:3;stroke:#000000;stroke-opacity:0.301961" d="M3.8 1.9Q3.8 2.7 3.25 3.25Q2.7 3.8 1.9 3.8Q1.1 3.8 0.55 3.25Q0 2.7 0 1.9Q0 1.1 0.55 0.55Q1.1 0 1.9 0Q2.7 0 3.25 0.55Q3.8 1.1 3.8 1.9z" />
</g>
</svg>
