<?xml version="1.0" encoding="utf-8"?>
<svg version="1.1" id="Layer_1"
xmlns="http://www.w3.org/2000/svg"
xmlns:xlink="http://www.w3.org/1999/xlink"
width="9px" height="8px"
xml:space="preserve">
<g id="PathID_4032" transform="matrix(1, 0, 0, 1, 3.9, 3.4)">
<path style="fill:#BC9061;fill-opacity:1" d="M1.05 1.65L0.55 1.15Q1.25 -0.3 2.85 -1.15L3.1 -0.85Q4.2 0.55 4.2 2.1Q4.55 2.6 3.5 3.25Q3.25 2.2 2.3 1.6L3.4 3.55Q3.25 3.75 2.7 3.75Q2.15 2.7 1.05 1.65M3.45 0.9L4.2 2.1L3.45 0.9M2.3 1.6Q3.25 2.2 3.5 3.25" />
<path style="fill:#D7B27E;fill-opacity:1" d="M0.55 1.15L0.35 1Q-1.85 0.55 -3.7 -0.6Q-4.15 -2.8 -3.5 -3.1Q-2.35 -3.65 -0.5 -3.1Q0.9 -2.7 2 -1.95L2.85 -1.15Q1.25 -0.3 0.55 1.15" />
<path style="fill:#977451;fill-opacity:1" d="M2.7 3.75Q2.05 3.9 1.3 3.3L0.05 2.5Q0.2 1.75 0.55 1.15L1.05 1.65Q2.15 2.7 2.7 3.75" />
<path style="fill:#BF966C;fill-opacity:1" d="M0.05 2.5L-0.85 1.9L-1.6 1.45Q-3.25 0.45 -3.55 -0.15L-3.7 -0.6Q-1.85 0.55 0.35 1L0.55 1.15Q0.2 1.75 0.05 2.5" />
<path style="fill:none;stroke-width:0.7;stroke-linecap:round;stroke-linejoin:miter;stroke-miterlimit:5;stroke:#000000;stroke-opacity:0.4" d="M2.85 -1.15L2 -1.95" />
<path style="fill:none;stroke-width:0.7;stroke-linecap:round;stroke-linejoin:miter;stroke-miterlimit:5;stroke:#000000;stroke-opacity:0.4" d="M2.85 -1.15L3.1 -0.85Q4.2 0.55 4.2 2.1Q4.55 2.6 3.5 3.25L3.4 3.55Q3.25 3.75 2.7 3.75Q2.05 3.9 1.3 3.3L0.05 2.5L-0.85 1.9L-1.6 1.45Q-3.25 0.45 -3.55 -0.15L-3.7 -0.6" />
<path style="fill:none;stroke-width:0.7;stroke-linecap:round;stroke-linejoin:miter;stroke-miterlimit:5;stroke:#000000;stroke-opacity:0.4" d="M4.2 2.1L3.45 0.9" />
<path style="fill:none;stroke-width:0.7;stroke-linecap:round;stroke-linejoin:miter;stroke-miterlimit:5;stroke:#000000;stroke-opacity:0.4" d="M3.5 3.25Q3.25 2.2 2.3 1.6" />
</g>
</svg>
