<?xml version="1.0" encoding="utf-8"?>
<svg version="1.1" id="Layer_1"
xmlns="http://www.w3.org/2000/svg"
xmlns:xlink="http://www.w3.org/1999/xlink"
width="14px" height="14px"
xml:space="preserve">
<g id="PathID_3907" transform="matrix(1, 0, 0, 1, 7, 6.8)">
<path style="fill:#E9CEBB;fill-opacity:1" d="M1.4 5.1L-0.2 4.6L-1.4 4.55Q-6.75 2.75 -6.25 -3.2Q-5.9 -4.05 -4.8 -5.05L-2.6 -6.5L0 -6.8Q2.85 -6.65 4.8 -4.55L5.55 -3.65L6.2 -2.5Q7.25 1.45 5.75 3.35Q4.5 3.3 3.15 4.25Q2.1 4.95 1.45 5.1L1.4 5.1" />
<radialGradient
id="RadialGradID_892" gradientUnits="userSpaceOnUse" gradientTransform="matrix(0.0116425, 0, 0, 0.0116425, 5.65, 3.6)" spreadMethod ="pad" cx="0" cy="0" r="819.2" fx="0" fy="0" >
<stop  offset="0.113725"  style="stop-color:#BDB9B4;stop-opacity:1" />
<stop  offset="0.890196"  style="stop-color:#9E6A76;stop-opacity:1" />
</radialGradient>
<path style="fill:url(#RadialGradID_892) " d="M6.2 -2.5Q6.8 -1.15 6.8 0.4Q6.8 2.05 6.15 3.4L5.75 3.35Q7.25 1.45 6.2 -2.5" />
<path style="fill:#222027;fill-opacity:1" d="M-1.4 4.55L0.15 4.95L1.4 5.1L1.45 5.1Q4.8 4.75 5.75 3.35L6.15 3.4L4.8 5.15Q2.85 7 0 6.85Q-1.8 6.75 -3.25 5.9L-4.05 5.3Q-2.6 4.45 -1.4 4.55" />
<path style="fill:#3A3845;fill-opacity:1" d="M1.45 5.1Q2.1 4.95 3.15 4.25Q4.5 3.3 5.75 3.35Q4.8 4.75 1.45 5.1M-0.2 4.6L1.4 5.1L0.15 4.95L-1.4 4.55L-0.2 4.6" />
<path style="fill:#CF9A81;fill-opacity:1" d="M-1.4 4.55Q-2.6 4.45 -4.05 5.3L-4.85 4.55Q-6.85 2.45 -6.85 -0.4Q-6.85 -1.95 -6.25 -3.2Q-6.75 2.75 -1.4 4.55" />
<path style="fill:none;stroke-width:0.7;stroke-linecap:round;stroke-linejoin:miter;stroke-miterlimit:5;stroke:#000000;stroke-opacity:0.4" d="M5.55 -3.65L6.2 -2.5Q6.8 -1.15 6.8 0.4Q6.8 2.05 6.15 3.4L4.8 5.15Q2.85 7 0 6.85Q-1.8 6.75 -3.25 5.9L-4.05 5.3L-4.85 4.55Q-6.85 2.45 -6.85 -0.4Q-6.85 -1.95 -6.25 -3.2Q-5.9 -4.05 -4.8 -5.05L-2.6 -6.5" />
<path style="fill:none;stroke-width:0.7;stroke-linecap:round;stroke-linejoin:miter;stroke-miterlimit:5;stroke:#000000;stroke-opacity:0.4" d="M5.75 3.35L6.15 3.4" />
<path style="fill:none;stroke-width:0.7;stroke-linecap:round;stroke-linejoin:miter;stroke-miterlimit:5;stroke:#000000;stroke-opacity:0.4" d="M1.45 5.1Q2.1 4.95 3.15 4.25Q4.5 3.3 5.75 3.35" />
<path style="fill:none;stroke-width:0.7;stroke-linecap:round;stroke-linejoin:miter;stroke-miterlimit:5;stroke:#000000;stroke-opacity:0.4" d="M1.4 5.1L-0.2 4.6L-1.4 4.55Q-2.6 4.45 -4.05 5.3" />
<path style="fill:none;stroke-width:0.7;stroke-linecap:round;stroke-linejoin:miter;stroke-miterlimit:5;stroke:#000000;stroke-opacity:0.4" d="M1.45 5.1L1.4 5.1" />
</g>
</svg>
