<?xml version="1.0" encoding="utf-8"?>
<svg version="1.1" id="Layer_1"
xmlns="http://www.w3.org/2000/svg"
xmlns:xlink="http://www.w3.org/1999/xlink"
width="17px" height="39px"
xml:space="preserve">
<g id="PathID_3798" transform="matrix(1, 0, 0, 1, 8.75, 19.45)">
<path style="fill:#583316;fill-opacity:1" d="M-0.9 -11.6Q0.9 -6.7 -0.45 0.75Q-1.2 10.85 6.95 13.7Q8.15 15.35 8.1 16.55Q1.55 15.75 -1.8 11.8L-1.85 11.7L-1.8 11.75Q-2.85 10.2 -3.2 7.7L-3.55 3.2L-3.35 2.2L-3.25 1.8Q-3.15 7.1 -1.6 10.8Q-2.7 7.55 -2 1.65Q-1.2 -2.15 -1.1 -4.7Q-1 -7.8 -1.85 -10.5L-2.65 -12.05L-4 -13.95L-4.65 -15.05Q-4.55 -15.8 -3.45 -15.75Q-1.8 -14 -0.9 -11.6M-8.1 -19.05Q-6.35 -18.25 -4.95 -17.15Q-5.65 -17.2 -5.8 -16.65L-8.1 -19.05" />
<linearGradient
id="LinearGradID_871" gradientUnits="userSpaceOnUse" gradientTransform="matrix(-0.00108337, 0.0068512, -0.015274, -0.00244141, -3.55, -1.85)" spreadMethod ="pad" x1="-819.2" y1="0" x2="819.2" y2="0" >
<stop  offset="0.470588" style="stop-color:#FCDC85;stop-opacity:1" />
<stop  offset="1" style="stop-color:#CC7F2F;stop-opacity:1" />
</linearGradient>
<path style="fill:url(#LinearGradID_871) " d="M-4.05 -6.7Q-3 -6.55 -2.25 -5.35Q-2.25 -10.85 -6 -14.55Q-4.9 -14.65 -4 -13.95L-2.65 -12.05L-1.85 -10.5Q-1 -7.8 -1.1 -4.7Q-1.2 -2.15 -2 1.65Q-2.7 7.55 -1.6 10.8Q-3.15 7.1 -3.25 1.8L-3.35 2.2Q-2.6 -4.75 -4.05 -6.7" />
<path style="fill:#CA8333;fill-opacity:1" d="M-5.8 -16.65Q-5.65 -17.2 -4.95 -17.15L-3.45 -15.75Q-4.55 -15.8 -4.65 -15.05L-5.8 -16.65" />
<path style="fill:#875010;fill-opacity:1" d="M5.75 19Q-5.15 15.65 -3.55 3.2L-3.2 7.7Q-2.85 10.2 -1.8 11.75L-1.85 11.7L-1.8 11.8Q1.55 15.75 8.1 16.55Q8.05 18.15 5.75 19" />
<path style="fill:none;stroke-width:0.7;stroke-linecap:round;stroke-linejoin:miter;stroke-miterlimit:5;stroke:#000000;stroke-opacity:0.4" d="M-3.45 -15.75L-4.95 -17.15" />
<path style="fill:none;stroke-width:0.7;stroke-linecap:round;stroke-linejoin:miter;stroke-miterlimit:5;stroke:#000000;stroke-opacity:0.4" d="M-5.8 -16.65L-4.65 -15.05L-4 -13.95" />
<path style="fill:none;stroke-width:0.7;stroke-linecap:round;stroke-linejoin:miter;stroke-miterlimit:5;stroke:#000000;stroke-opacity:0.301961" d="M-3.35 2.2L-3.55 3.2" />
<path style="fill:none;stroke-width:0.7;stroke-linecap:round;stroke-linejoin:miter;stroke-miterlimit:5;stroke:#000000;stroke-opacity:0.4" d="M8.1 16.55Q8.15 15.35 6.95 13.7Q-1.2 10.85 -0.45 0.75Q0.9 -6.7 -0.9 -11.6Q-1.8 -14 -3.45 -15.75" />
<path style="fill:none;stroke-width:0.7;stroke-linecap:round;stroke-linejoin:miter;stroke-miterlimit:5;stroke:#000000;stroke-opacity:0.301961" d="M-4 -13.95Q-4.9 -14.65 -6 -14.55Q-2.25 -10.85 -2.25 -5.35Q-3 -6.55 -4.05 -6.7Q-2.6 -4.75 -3.35 2.2" />
<path style="fill:none;stroke-width:0.7;stroke-linecap:round;stroke-linejoin:miter;stroke-miterlimit:5;stroke:#000000;stroke-opacity:0.4" d="M-4.95 -17.15Q-6.35 -18.25 -8.1 -19.05L-5.8 -16.65" />
<path style="fill:none;stroke-width:0.7;stroke-linecap:round;stroke-linejoin:miter;stroke-miterlimit:5;stroke:#000000;stroke-opacity:0.4" d="M-3.55 3.2Q-5.15 15.65 5.75 19Q8.05 18.15 8.1 16.55" />
</g>
</svg>
