<?xml version="1.0" encoding="utf-8"?>
<svg version="1.1" id="Layer_1"
xmlns="http://www.w3.org/2000/svg"
xmlns:xlink="http://www.w3.org/1999/xlink"
width="20px" height="41px"
xml:space="preserve">
<g id="PathID_3824" transform="matrix(1, 0, 0, 1, 11.75, 21.75)">
<path style="fill:#010204;fill-opacity:1" d="M-8.1 -19.05Q-2.8 -16.65 -0.9 -11.6L-2.35 -9.4Q-3.5 -15 -8.1 -19.05M5.75 19Q-6.35 15.3 -3.25 1.8L-3.1 1.85Q-3.9 7.05 -0.9 12.4Q0.9 15.7 8.1 16.55Q8.05 18.15 5.75 19" />
<path style="fill:#4D4335;fill-opacity:1" d="M-0.45 0.75Q-1.2 10.85 6.95 13.7Q8.15 15.35 8.1 16.55Q0.9 15.7 -0.9 12.4Q-3.9 7.05 -3.1 1.85L-2.95 0.9Q-1.45 -4.8 -2.35 -9.4L-0.9 -11.6Q0.9 -6.7 -0.45 0.75" />
<path style="fill:#CD9C6D;fill-opacity:1" d="M-3.25 1.8L-2.95 0.9L-3.1 1.85L-3.25 1.8" />
<path style="fill:none;stroke-width:0.7;stroke-linecap:round;stroke-linejoin:miter;stroke-miterlimit:5;stroke:#000000;stroke-opacity:0.4" d="M-2.35 -9.4Q-1.45 -4.8 -2.95 0.9" />
<path style="fill:none;stroke-width:0.7;stroke-linecap:round;stroke-linejoin:miter;stroke-miterlimit:5;stroke:#000000;stroke-opacity:0.4" d="M8.1 16.55Q8.15 15.35 6.95 13.7Q-1.2 10.85 -0.45 0.75Q0.9 -6.7 -0.9 -11.6Q-2.8 -16.65 -8.1 -19.05Q-3.5 -15 -2.35 -9.4" />
<path style="fill:none;stroke-width:0.7;stroke-linecap:round;stroke-linejoin:miter;stroke-miterlimit:5;stroke:#000000;stroke-opacity:0.4" d="M-3.25 1.8L-2.95 0.9" />
<path style="fill:none;stroke-width:0.7;stroke-linecap:round;stroke-linejoin:miter;stroke-miterlimit:5;stroke:#000000;stroke-opacity:0.4" d="M-3.25 1.8Q-6.35 15.3 5.75 19Q8.05 18.15 8.1 16.55" />
</g>
<g id="PathID_3825" transform="matrix(1, 0, 0, 1, 11.75, 21.75)">
<path style="fill:#BAE2E5;fill-opacity:1" d="M-5.9 -19.35Q-6.1 -18.75 -6.6 -18.25L-7.75 -17.4L-8.85 -17.15L-9 -17.2L-9.1 -17.2L-9.55 -17.45Q-9.85 -17.7 -9.85 -18.25Q-9.85 -19.2 -8.85 -20.15Q-7.9 -21 -6.9 -21Q-6.3 -21 -6 -20.6L-5.9 -20.4Q-5.7 -19.95 -5.9 -19.35M-9.05 -16.1L-8.9 -15.8L-9.05 -15.45Q-9.2 -15.3 -9.4 -15.3L-9.75 -15.45L-9.8 -15.55L-9.85 -15.8L-9.75 -16.1L-9.4 -16.25L-9.05 -16.1" />
<path style="fill:#3A94BB;fill-opacity:1" d="M-8.9 -17.05L-8.85 -17.15L-7.75 -17.4L-6.6 -18.25Q-6.1 -18.75 -5.9 -19.35Q-5.7 -19.95 -5.9 -20.4L-5.85 -20.55L-6 -20.6Q-6.3 -21 -6.9 -21Q-7.9 -21 -8.85 -20.15Q-9.85 -19.2 -9.85 -18.25Q-9.85 -17.7 -9.55 -17.45L-9.1 -17.2L-9 -17.2L-8.9 -17.05M-1.3 -17.4Q-1.3 -15.05 -3 -13.35Q-4.65 -11.7 -7 -11.7Q-9.4 -11.7 -11.05 -13.35Q-11.65 -14.5 -11.65 -15.95Q-11.65 -18.3 -10 -19.95Q-8.3 -21.65 -5.95 -21.65Q-3.55 -21.65 -1.9 -19.95Q-1.3 -18.8 -1.3 -17.4M-9.4 -16.25L-9.75 -16.1L-9.85 -15.8L-9.8 -15.55L-9.75 -15.45L-9.4 -15.3Q-9.2 -15.3 -9.05 -15.45L-8.9 -15.8L-9.05 -16.1L-9.4 -16.25" />
<path style="fill:#084A88;fill-opacity:1" d="M-1.9 -19.95Q-0.25 -18.3 -0.25 -15.95Q-0.25 -13.95 -1.35 -12.55L-2.15 -12.15L-2.75 -11.2Q-4.2 -10.2 -5.95 -10.2Q-8.3 -10.2 -10 -11.9L-11.05 -13.35Q-9.4 -11.7 -7 -11.7Q-4.65 -11.7 -3 -13.35Q-1.3 -15.05 -1.3 -17.4Q-1.3 -18.8 -1.9 -19.95" />
<path style="fill:none;stroke-width:0.7;stroke-linecap:round;stroke-linejoin:miter;stroke-miterlimit:5;stroke:#000000;stroke-opacity:0.4" d="M-11.05 -13.35Q-11.65 -14.5 -11.65 -15.95Q-11.65 -18.3 -10 -19.95Q-8.3 -21.65 -5.95 -21.65Q-3.55 -21.65 -1.9 -19.95Q-0.25 -18.3 -0.25 -15.95Q-0.25 -13.95 -1.35 -12.55L-2.15 -12.15L-2.75 -11.2Q-4.2 -10.2 -5.95 -10.2Q-8.3 -10.2 -10 -11.9L-11.05 -13.35z" />
</g>
</svg>
