<?xml version="1.0" encoding="utf-8"?>
<svg version="1.1" id="Layer_1"
xmlns="http://www.w3.org/2000/svg"
xmlns:xlink="http://www.w3.org/1999/xlink"
width="9px" height="8px"
xml:space="preserve">
<g id="PathID_3997" transform="matrix(1, 0, 0, 1, 3.9, 3.4)">
<path style="fill:#0E2830;fill-opacity:1" d="M-1.7 0.4L-2.25 0.2L-2.8 -0.1L0.9 -2.55L1.55 -2.2L2 -1.95L2.15 -1.85L-1.7 0.4M1.5 1.55L1.1 1.7L1.05 1.65L0.7 1.3L0.35 1L0.1 0.95L3.25 -0.65L3.3 -0.55L3.4 -0.4L3.7 0.1L3.2 0.55L2.85 0.75L2.1 1.25L1.5 1.55" />
<path style="fill:#ECEFF4;fill-opacity:1" d="M-0.6 0.8L-1.1 0.65L-1.3 0.55L-1.7 0.4L2.15 -1.85L2.2 -1.8L3.25 -0.65L0.1 0.95L-0.6 0.8" />
<path style="fill:#6F94E4;fill-opacity:1" d="M-3.7 -0.6Q-4.15 -2.8 -3.5 -3.1Q-2.35 -3.65 -0.5 -3.1L0.9 -2.55L-2.8 -0.1L-3.7 -0.6M1.1 1.7L1.5 1.55L2.1 1.25Q3.25 2.2 3.5 3.25Q3.25 2.2 2.1 1.25L2.85 0.75L3.2 0.55Q3.9 1.35 4.2 2.1Q3.9 1.35 3.2 0.55L3.7 0.1Q4.2 1.05 4.2 2.1Q4.55 2.6 3.5 3.25L3.4 3.55Q3.25 3.75 2.7 3.75Q2.2 2.75 1.1 1.7" />
<path style="fill:#000201;fill-opacity:1" d="M-2.45 0.9L-2.5 0.85L-2.85 0.6L-2.95 0.5L-3.2 0.25L-2.8 -0.1L-2.25 0.2L-1.7 0.4L-2.45 0.9M0.7 1.3L1.05 1.65L1.1 1.7L-0.4 2L-0.65 2L-0.85 1.9L-1.2 1.7L-0.95 1.65L0.7 1.3M-1.75 1.05L-1.85 1.1L-1.75 1.05M-2.25 0.2L-2.85 0.6L-2.25 0.2" />
<path style="fill:#000100;fill-opacity:1" d="M-0.95 1.65L-1.2 1.7L-1.25 1.6L0.1 0.95L0.35 1L0.7 1.3L-0.95 1.65" />
<path style="fill:#3D618D;fill-opacity:1" d="M-0.4 2L1.1 1.7Q2.2 2.75 2.7 3.75Q2.05 3.9 1.3 3.3L-0.65 2L-0.4 2M-3.2 0.25L-3.55 -0.15L-3.7 -0.6L-2.8 -0.1L-3.2 0.25" />
<path style="fill:#9AADB6;fill-opacity:1" d="M-1.7 0.4L-1.3 0.55L-1.1 0.65L-0.6 0.8L0.1 0.95L-1.25 1.6L-1.2 1.7L-1.3 1.65L-1.6 1.45L-2 1.2L-2.1 1.15L-2.45 0.9L-1.7 0.4M-1.85 1.1L-1.75 1.05L-1.85 1.1" />
<path style="fill:none;stroke-width:0.7;stroke-linecap:round;stroke-linejoin:miter;stroke-miterlimit:5;stroke:#000000;stroke-opacity:0.4" d="M2.15 -1.85L2 -1.95" />
<path style="fill:none;stroke-width:0.7;stroke-linecap:round;stroke-linejoin:miter;stroke-miterlimit:5;stroke:#000000;stroke-opacity:0.4" d="M2.15 -1.85L2.2 -1.8L3.25 -0.65L3.3 -0.55L3.4 -0.4L3.7 0.1Q4.2 1.05 4.2 2.1Q4.55 2.6 3.5 3.25L3.4 3.55Q3.25 3.75 2.7 3.75Q2.05 3.9 1.3 3.3L-0.65 2L-0.85 1.9L-1.2 1.7L-1.3 1.65L-1.6 1.45L-2 1.2L-2.1 1.15L-2.45 0.9L-2.5 0.85L-2.85 0.6" />
<path style="fill:none;stroke-width:0.7;stroke-linecap:round;stroke-linejoin:round;stroke-miterlimit:3;stroke:#000000;stroke-opacity:0.301961" d="M-2.85 0.6L-2.95 0.5" />
<path style="fill:none;stroke-width:0.7;stroke-linecap:round;stroke-linejoin:miter;stroke-miterlimit:5;stroke:#000000;stroke-opacity:0.4" d="M-2.95 0.5L-3.2 0.25L-3.55 -0.15L-3.7 -0.6" />
<path style="fill:none;stroke-width:0.7;stroke-linecap:round;stroke-linejoin:miter;stroke-miterlimit:5;stroke:#000000;stroke-opacity:0.4" d="M4.2 2.1Q3.9 1.35 3.2 0.55" />
<path style="fill:none;stroke-width:0.7;stroke-linecap:round;stroke-linejoin:miter;stroke-miterlimit:5;stroke:#000000;stroke-opacity:0.4" d="M2.1 1.25Q3.25 2.2 3.5 3.25" />
<path style="fill:none;stroke-width:0.7;stroke-linecap:round;stroke-linejoin:round;stroke-miterlimit:3;stroke:#000000;stroke-opacity:0.301961" d="M-2.85 0.6L-2.25 0.2" />
</g>
</svg>
