<?xml version="1.0" encoding="utf-8"?>
<svg version="1.1" id="Layer_1"
xmlns="http://www.w3.org/2000/svg"
xmlns:xlink="http://www.w3.org/1999/xlink"
width="17px" height="39px"
xml:space="preserve">
<g id="PathID_2986" transform="matrix(1, 0, 0, 1, 8.75, 19.4)">
<radialGradient
id="RadialGradID_679" gradientUnits="userSpaceOnUse" gradientTransform="matrix(0.00839233, 0.0439606, -0.017395, 0.00332642, -1.25, -2.6)" spreadMethod ="pad" cx="0" cy="0" r="819.2" fx="0" fy="0" >
<stop  offset="0"  style="stop-color:#F5ECD3;stop-opacity:1" />
<stop  offset="0.666667"  style="stop-color:#B7B09D;stop-opacity:1" />
</radialGradient>
<path style="fill:url(#RadialGradID_679) " d="M-8.1 -19.05L-7.8 -18.9L-7.4 -18.7Q1 -11.8 -1.9 1.1Q-3.5 9.7 1.5 14.7Q-0.15 13.75 -0.9 12.4Q-3.9 7.05 -3.1 1.85L-2.95 0.9L-2.8 0.4L-2.5 0.2L-2.7 -0.05Q-2.1 -2.65 -2 -5.05L-1.8 -5.3L-2 -5.55Q-2 -7.6 -2.35 -9.4L-2.7 -10.75L-2.6 -10.9L-2.75 -10.9Q-3.4 -13.05 -4.55 -14.95L-4.65 -15.1Q-6.05 -17.25 -8.1 -19.05" />
<path style="fill:#FFAA36;fill-opacity:1" d="M-0.9 -11.6Q0.9 -6.7 -0.45 0.75Q-1.2 10.85 6.95 13.7Q8.15 15.35 8.1 16.55Q8.05 17.8 6.7 18.6Q4.6 17.4 2.55 15.65L1.5 14.7Q-3.5 9.7 -1.9 1.1Q1 -11.8 -7.4 -18.7Q-2.7 -16.3 -0.9 -11.6" />
<path style="fill:#C5B297;fill-opacity:1" d="M2.55 15.65Q4.6 17.4 6.7 18.6L5.75 19Q-0.45 17.1 -2.65 12.65L-2.3 11.75L-3.1 11.55Q-3.9 9.35 -3.85 6.6L-3.4 6.35L-3.85 5.95L-3.85 5.8Q-3.75 3.9 -3.25 1.8L-2.95 0.9L-3.1 1.85Q-3.9 7.05 -0.9 12.4Q-0.15 13.75 1.5 14.7L2.55 15.65" />
<path style="fill:none;stroke-width:0.7;stroke-linecap:round;stroke-linejoin:miter;stroke-miterlimit:5;stroke:#495366;stroke-opacity:0.4" d="M-4.55 -14.95Q-3.4 -13.05 -2.75 -10.9" />
<path style="fill:none;stroke-width:0.7;stroke-linecap:round;stroke-linejoin:miter;stroke-miterlimit:5;stroke:#495366;stroke-opacity:0.4" d="M-2.6 -10.9L-2.7 -10.75L-2.35 -9.4Q-2 -7.6 -2 -5.55L-1.8 -5.3L-2 -5.05Q-2.1 -2.65 -2.7 -0.05L-2.5 0.2L-2.8 0.4L-2.95 0.9" />
<path style="fill:none;stroke-width:0.7;stroke-linecap:round;stroke-linejoin:miter;stroke-miterlimit:5;stroke:#495366;stroke-opacity:0.4" d="M1.5 14.7Q-3.5 9.7 -1.9 1.1Q1 -11.8 -7.4 -18.7L-7.8 -18.9L-8.1 -19.05Q-6.05 -17.25 -4.65 -15.1" />
<path style="fill:none;stroke-width:0.7;stroke-linecap:round;stroke-linejoin:miter;stroke-miterlimit:5;stroke:#495366;stroke-opacity:0.4" d="M6.7 18.6Q8.05 17.8 8.1 16.55Q8.15 15.35 6.95 13.7Q-1.2 10.85 -0.45 0.75Q0.9 -6.7 -0.9 -11.6Q-2.7 -16.3 -7.4 -18.7" />
<path style="fill:none;stroke-width:0.7;stroke-linecap:round;stroke-linejoin:miter;stroke-miterlimit:5;stroke:#495366;stroke-opacity:0.4" d="M6.7 18.6L5.75 19Q-0.45 17.1 -2.65 12.65L-2.3 11.75L-3.1 11.55Q-3.9 9.35 -3.85 6.6L-3.4 6.35L-3.85 5.95L-3.85 5.8Q-3.75 3.9 -3.25 1.8L-2.95 0.9" />
<path style="fill:none;stroke-width:0.7;stroke-linecap:round;stroke-linejoin:miter;stroke-miterlimit:5;stroke:#495366;stroke-opacity:0.4" d="M6.7 18.6Q4.6 17.4 2.55 15.65L1.5 14.7" />
</g>
</svg>
