<?xml version="1.0" encoding="utf-8"?>
<svg version="1.1" id="Layer_1"
xmlns="http://www.w3.org/2000/svg"
xmlns:xlink="http://www.w3.org/1999/xlink"
width="14px" height="14px"
xml:space="preserve">
<g id="PathID_3444" transform="matrix(1, 0, 0, 1, 7, 6.85)">
<path style="fill:#323232;fill-opacity:1" d="M-6.4 -2.8L-6.35 -2.9L-5.6 -4.4Q-4.45 -6.05 -2.6 -6.5L0 -6.8Q2.15 -6.6 3.75 -5.45L4.95 -4.35L6.2 -2.5Q6.85 -0.05 4.65 2.7Q2.5 5.45 0.2 5.1Q-4.4 4.4 -5.85 0.7Q-6.6 -1.1 -6.4 -2.8" />
<path style="fill:#191917;fill-opacity:1" d="M-5.85 0.7Q-4.4 4.4 0.2 5.1Q2.5 5.45 4.65 2.7Q6.85 -0.05 6.2 -2.5Q6.8 -1.15 6.8 0.4Q6.8 2.7 5.5 4.4L4.1 5.8Q2.3 7.05 0 6.85L-0.1 6.85Q-5.25 6.25 -6.55 1.7Q-7 0 -6.75 -1.55L-6.4 -2.8Q-6.6 -1.1 -5.85 0.7" />
<path style="fill:none;stroke-width:0.7;stroke-linecap:round;stroke-linejoin:miter;stroke-miterlimit:5;stroke:#000000;stroke-opacity:0.4" d="M4.95 -4.35L6.2 -2.5Q6.8 -1.15 6.8 0.4Q6.8 2.7 5.5 4.4L4.1 5.8Q2.3 7.05 0 6.85L-0.1 6.85Q-5.25 6.25 -6.55 1.7Q-7 0 -6.75 -1.55L-6.4 -2.8" />
<path style="fill:none;stroke-width:0.7;stroke-linecap:round;stroke-linejoin:miter;stroke-miterlimit:5;stroke:#000000;stroke-opacity:0.4" d="M-6.35 -2.9L-5.6 -4.4Q-4.45 -6.05 -2.6 -6.5" />
</g>
<g id="PathID_3445" transform="matrix(1, 0, 0, 1, 7, 6.85)">
<path style="fill:#F6F0E2;fill-opacity:1" d="M-5.55 1.65Q-4.15 0.65 -3.4 -0.3Q-2 -2.2 0 -6.85Q1.3 -6.85 2.35 -6.25Q0.7 0.4 -2.6 3.85L-2.95 4.2Q-4.75 2.95 -5.55 1.65" />
<path style="fill:#A8A39D;fill-opacity:1" d="M-5.55 1.65Q-4.75 2.95 -2.95 4.2L-4.05 5.15Q-5.8 3.7 -6.55 2.05L-5.55 1.65" />
</g>
</svg>
