<?xml version="1.0" encoding="utf-8"?>
<svg version="1.1" id="Layer_1"
xmlns="http://www.w3.org/2000/svg"
xmlns:xlink="http://www.w3.org/1999/xlink"
width="10px" height="10px"
xml:space="preserve">
<g id="PathID_4591" transform="matrix(1, 0, 0, 1, 4.9, 4)">
<path style="fill:#DADADA;fill-opacity:1" d="M3.45 -2.1L4 -1.6L4 -1.3L4.05 -1.25L4.1 -1.15Q3.4 -2 3.05 -1.55L2.85 -1.3L3.05 -1.55Q3.4 -2 4.1 -1.15L4.2 0Q3.25 -0.3 2.7 1.1Q3.25 -0.3 4.2 0L4.2 0.8Q2.85 3.05 1.95 2.6L-0.1 0.75Q-2.85 0.4 -3.7 -0.6L-3.8 -0.85Q-4.15 -2.25 -3.5 -3.1Q-2.2 -4 -0.9 -3.7Q0.65 -3.35 1.5 -2.3L1.6 -2.15L2.5 -1.15Q2.6 -1.1 2.85 -1.3Q3.05 -2.4 3.45 -2.1" />
<path style="fill:#78583A;fill-opacity:1" d="M4.05 -1.25L4.15 -1.1L4.1 -1.15L4.05 -1.25" />
<path style="fill:#9C9C9C;fill-opacity:1" d="M-3.7 -0.6Q-2.85 0.4 -0.1 0.75L1.95 2.6Q2.85 3.05 4.2 0.8Q3.9 2.8 3.35 3.35L2.7 3.75Q2.05 3.9 1.3 3.3L0.15 2.5L-1.6 1.45Q-3.25 0.45 -3.55 -0.15L-3.7 -0.6" />
<path style="fill:none;stroke-width:0.7;stroke-linecap:round;stroke-linejoin:round;stroke-miterlimit:3;stroke:#000000;stroke-opacity:0.301961" d="M-3.8 -0.85L-3.7 -0.6" />
<path style="fill:none;stroke-width:0.7;stroke-linecap:round;stroke-linejoin:round;stroke-miterlimit:3;stroke:#000000;stroke-opacity:0.301961" d="M4.2 0.8L4.2 0Q3.25 -0.3 2.7 1.1" />
<path style="fill:none;stroke-width:0.7;stroke-linecap:round;stroke-linejoin:round;stroke-miterlimit:3;stroke:#000000;stroke-opacity:0.301961" d="M4.05 -1.25L4.15 -1.1L4.1 -1.15L4.2 0" />
<path style="fill:none;stroke-width:0.7;stroke-linecap:round;stroke-linejoin:round;stroke-miterlimit:3;stroke:#000000;stroke-opacity:0.301961" d="M4.1 -1.15Q3.4 -2 3.05 -1.55L2.85 -1.3Q2.6 -1.1 2.5 -1.15" />
<path style="fill:none;stroke-width:0.7;stroke-linecap:round;stroke-linejoin:round;stroke-miterlimit:3;stroke:#000000;stroke-opacity:0.301961" d="M4.1 -1.15L4.05 -1.25L4 -1.3L4 -1.6L3.45 -2.1Q3.05 -2.4 2.85 -1.3" />
<path style="fill:none;stroke-width:0.7;stroke-linecap:round;stroke-linejoin:round;stroke-miterlimit:3;stroke:#000000;stroke-opacity:0.301961" d="M4.2 0.8Q3.9 2.8 3.35 3.35L2.7 3.75Q2.05 3.9 1.3 3.3L0.15 2.5L-1.6 1.45Q-3.25 0.45 -3.55 -0.15L-3.7 -0.6" />
</g>
<g id="PathID_4592" transform="matrix(1, 0, 0, 1, 4.9, 4)">
<path style="fill:#2F2D2E;fill-opacity:1" d="M-2 -4Q-0.85 -4 0.25 -3.3Q-2.05 -1.1 -1.15 3.5L2 -1.85Q1.2 1.45 2 5.1Q0.3 4.4 -1.15 3.5Q-2.05 -1.1 0.25 -3.3Q-3.35 2.05 -4.9 0Q-4.7 -3.3 -2 -4" />
<path style="fill:none;stroke-width:0.7;stroke-linecap:round;stroke-linejoin:round;stroke-miterlimit:3;stroke:#000000;stroke-opacity:0.4" d="M-2 -4Q-0.85 -4 0.25 -3.3L2 -1.85Q1.2 1.45 2 5.1Q0.3 4.4 -1.15 3.5Q-3.35 2.05 -4.9 0" />
<path style="fill:none;stroke-width:0.7;stroke-linecap:round;stroke-linejoin:round;stroke-miterlimit:3;stroke:#000000;stroke-opacity:0.4" d="M-1.15 3.5Q-2.05 -1.1 0.25 -3.3" />
</g>
<g id="PathID_4593" transform="matrix(1, 0, 0, 1, 4.9, 4)">
<path style="fill:#F7CF48;fill-opacity:1" d="M-1.65 4.15L-2.35 3.5L-2.5 2.95Q-2.3 2.65 -1.85 2.6Q-1.4 2.65 -0.9 2.95L-0.2 3.6Q0.05 4.05 -0.1 4.25L-0.7 4.5L-1.65 4.15" />
<path style="fill:none;stroke-width:0.7;stroke-linecap:round;stroke-linejoin:round;stroke-miterlimit:3;stroke:#000000;stroke-opacity:0.4" d="M-1.65 4.15L-2.35 3.5L-2.5 2.95Q-2.3 2.65 -1.85 2.6Q-1.4 2.65 -0.9 2.95L-0.2 3.6Q0.05 4.05 -0.1 4.25L-0.7 4.5L-1.65 4.15z" />
</g>
</svg>
