<?xml version="1.0" encoding="utf-8"?>
<svg version="1.1" id="Layer_1"
xmlns="http://www.w3.org/2000/svg"
xmlns:xlink="http://www.w3.org/1999/xlink"
width="4px" height="16px"
xml:space="preserve">
<g id="PathID_4547" transform="matrix(1, 0, 0, 1, 2, 8)">
<path style="fill:#593118;fill-opacity:1" d="M0.95 -5.55Q1.35 -3.25 1.35 0L1.35 0.3L1.1 4.55L1.1 4.65L1.1 4.8L0.4 7.6L0 7.85Q-0.55 7.85 -1 5.85L-1.5 3.6L-1.65 2.9L-1.65 2.8L-1.85 0.85L-1.5 -2.2L-1.4 -2.7L-1.25 -3.75L-0.95 -5.55Q-0.55 -7.85 0 -7.85Q0.55 -7.85 0.95 -5.55" />
<path style="fill:none;stroke-width:0.7;stroke-linecap:round;stroke-linejoin:miter;stroke-miterlimit:5;stroke:#000000;stroke-opacity:0.4" d="M0.95 -5.55Q1.35 -3.25 1.35 0L1.35 0.3L1.1 4.55L1.1 4.65L1.1 4.8L0.4 7.6L0 7.85Q-0.55 7.85 -1 5.85L-1.5 3.6L-1.65 2.9L-1.65 2.8L-1.85 0.85L-1.5 -2.2L-1.4 -2.7L-1.25 -3.75L-0.95 -5.55Q-0.55 -7.85 0 -7.85Q0.55 -7.85 0.95 -5.55z" />
</g>
</svg>
