<?xml version="1.0" encoding="utf-8"?>
<svg version="1.1" id="Layer_1"
xmlns="http://www.w3.org/2000/svg"
xmlns:xlink="http://www.w3.org/1999/xlink"
width="18px" height="14px"
xml:space="preserve">
<g id="PathID_3871" transform="matrix(1, 0, 0, 1, 7.25, 6.8)">
<path style="fill:#D70B3C;fill-opacity:1" d="M6.7 -0.95L6.9 -0.25Q7.4 1.5 7.05 3.25L7 3.6L6.95 3.55L2.75 4.15L2.3 4.15L1.45 4.15L6.7 -0.95" />
<radialGradient
id="RadialGradID_884" gradientUnits="userSpaceOnUse" gradientTransform="matrix(0.0150604, 0, 0, 0.0150604, 2.3, 0)" spreadMethod ="pad" cx="0" cy="0" r="819.2" fx="0" fy="0" >
<stop  offset="0.509804"  style="stop-color:#D70B3C;stop-opacity:1" />
<stop  offset="0.733333"  style="stop-color:#F9E0C2;stop-opacity:1" />
</radialGradient>
<path style="fill:url(#RadialGradID_884) " d="M1.45 4.15L-1.4 3.6Q-4.4 2.45 -5.45 1.45Q-6.55 0.4 -6.25 -3.2Q-5.75 -4.25 -4.85 -5.1L-4.6 -5.3L-4.45 -5.4L-2.6 -6.5L0 -6.8Q1.65 -6.7 3 -5.95Q4 -5.45 4.8 -4.55L4.95 -4.35L5.55 -3.65L6.15 -2.55L6.65 -1.05L6.7 -0.95L1.45 4.15" />
<radialGradient
id="RadialGradID_885" gradientUnits="userSpaceOnUse" gradientTransform="matrix(0.0150604, 0, 0, 0.0150604, 2.3, 0)" spreadMethod ="pad" cx="0" cy="0" r="819.2" fx="0" fy="0" >
<stop  offset="0.443137"  style="stop-color:#8F0728;stop-opacity:1" />
<stop  offset="0.733333"  style="stop-color:#D78B7C;stop-opacity:1" />
</radialGradient>
<path style="fill:url(#RadialGradID_885) " d="M-5.45 1.45Q-4.4 2.45 -1.4 3.6L1.45 4.15L2.3 4.15L2.75 4.15L1.05 6.6L0.5 6.5L0.4 6.5L-3.7 5.7Q-6 5.2 -6.65 3.75Q-7.3 2.3 -7.05 0.2Q-6.85 -1.95 -6.25 -3.2Q-6.55 0.4 -5.45 1.45" />
<path style="fill:#8F0728;fill-opacity:1" d="M2.75 4.15L6.95 3.55L7 3.6L7.45 4.65Q8.25 5.65 10.65 6.65Q3.7 6.9 1.15 6.6L1.05 6.6L2.75 4.15" />
<path style="fill:none;stroke-width:0.7;stroke-linecap:round;stroke-linejoin:miter;stroke-miterlimit:5;stroke:#000000;stroke-opacity:0.4" d="M1.15 6.6L1.05 6.6L0.5 6.5" />
<path style="fill:none;stroke-width:0.7;stroke-linecap:round;stroke-linejoin:round;stroke-miterlimit:3;stroke:#000000;stroke-opacity:0.301961" d="M0.5 6.5L0.4 6.5" />
<path style="fill:none;stroke-width:0.7;stroke-linecap:round;stroke-linejoin:miter;stroke-miterlimit:5;stroke:#000000;stroke-opacity:0.4" d="M0.4 6.5L-3.7 5.7Q-6 5.2 -6.65 3.75Q-7.3 2.3 -7.05 0.2Q-6.85 -1.95 -6.25 -3.2Q-5.75 -4.25 -4.85 -5.1L-4.6 -5.3" />
<path style="fill:none;stroke-width:0.7;stroke-linecap:round;stroke-linejoin:miter;stroke-miterlimit:5;stroke:#000000;stroke-opacity:0.4" d="M-4.45 -5.4L-2.6 -6.5" />
<path style="fill:none;stroke-width:0.7;stroke-linecap:round;stroke-linejoin:round;stroke-miterlimit:3;stroke:#000000;stroke-opacity:0.301961" d="M7 3.6L6.95 3.55" />
</g>
</svg>
