<?xml version="1.0" encoding="utf-8"?>
<svg version="1.1" id="Layer_1"
xmlns="http://www.w3.org/2000/svg"
xmlns:xlink="http://www.w3.org/1999/xlink"
width="22px" height="21px"
xml:space="preserve">
<g id="PathID_4208" transform="matrix(1, 0, 0, 1, 9.55, 9.8)">
<path style="fill:#918881;fill-opacity:1" d="M-7.85 -2.15Q-8.75 -0.65 -8.7 1.2Q-8.6 4.9 -3.85 6.8L-1.7 7.1L-1.05 7.2Q3.9 6.8 6.55 2.65Q9.35 -2.5 8 -7.5L8.25 -7.05L9.4 -4.9Q9.8 -3.6 11.3 -3.9Q10.8 -2.35 9.85 -2.65Q10.5 -2.1 9.8 -0.7L9.25 -1.4L8.3 4.5L8.15 5.2Q7.55 7.3 6.25 8.15Q4.1 9.55 1 9.95L-1.9 10.05Q-5 9.5 -7.2 7.25Q-9.65 4.65 -9.4 1.9Q-9.3 0.7 -8.7 -0.6L-7.85 -2.15" />
<path style="fill:#E9E9E9;fill-opacity:1" d="M6.55 2.65Q3.9 6.8 -1.05 7.2L-1.7 7.1L-3.85 6.8Q-8.6 4.9 -8.7 1.2Q-8.75 -0.65 -7.85 -2.15L0.2 -9.15L2.2 -9.6Q5.25 -10.2 6.7 -9.15L8 -7.5Q9.35 -2.5 6.55 2.65" />
<path style="fill:none;stroke-width:0.7;stroke-linecap:round;stroke-linejoin:miter;stroke-miterlimit:5;stroke:#000000;stroke-opacity:0.4" d="M8 -7.5L6.7 -9.15" />
<path style="fill:none;stroke-width:0.7;stroke-linecap:round;stroke-linejoin:miter;stroke-miterlimit:5;stroke:#000000;stroke-opacity:0.4" d="M0.2 -9.15L-7.85 -2.15" />
<path style="fill:none;stroke-width:0.7;stroke-linecap:round;stroke-linejoin:miter;stroke-miterlimit:5;stroke:#000000;stroke-opacity:0.4" d="M8 -7.5L8.25 -7.05L9.4 -4.9Q9.8 -3.6 11.3 -3.9Q10.8 -2.35 9.85 -2.65Q10.5 -2.1 9.8 -0.7L9.25 -1.4L8.3 4.5L8.15 5.2Q7.55 7.3 6.25 8.15Q4.1 9.55 1 9.95L-1.9 10.05Q-5 9.5 -7.2 7.25Q-9.65 4.65 -9.4 1.9Q-9.3 0.7 -8.7 -0.6L-7.85 -2.15" />
</g>
<g id="PathID_4209" transform="matrix(1, 0, 0, 1, 9.55, 9.8)">
<path style="fill:#E9E9E9;fill-opacity:1" d="M-1.25 -6.15Q-2.6 -4.65 -4.65 -3.55L-7.6 -3.6Q-6.35 -5.25 -6.35 -6.15Q-8.15 -4.65 -4.65 -3.55L-1.25 -7.6L-1.25 -6.15M-7.6 -3.6Q-10.7 -4.8 -8.2 -5.6L-6.35 -6.15" />
<path style="fill:#3E3433;fill-opacity:1" d="M-4.65 -3.55Q-8.15 -4.65 -6.35 -6.15Q-6.35 -5.25 -4.65 -3.55" />
<path style="fill:none;stroke-width:0.7;stroke-linecap:round;stroke-linejoin:round;stroke-miterlimit:3;stroke:#000000;stroke-opacity:0.4" d="M-1.25 -7.6L-6.35 -6.15" />
<path style="fill:none;stroke-width:0.7;stroke-linecap:round;stroke-linejoin:round;stroke-miterlimit:3;stroke:#000000;stroke-opacity:0.4" d="M-4.65 -3.55Q-2.6 -4.65 -1.25 -6.15" />
<path style="fill:none;stroke-width:0.7;stroke-linecap:round;stroke-linejoin:round;stroke-miterlimit:3;stroke:#000000;stroke-opacity:0.4" d="M-6.35 -6.15L-8.2 -5.6Q-10.7 -4.8 -7.6 -3.6L-4.65 -3.55" />
</g>
<g id="PathID_4210" transform="matrix(1, 0, 0, 1, 9.55, 9.8)">
<path style="fill:#403634;fill-opacity:1" d="M4.2 -3.8Q3.15 -4.3 3 -6.3Q4.9 -3.9 6.8 -5.65Q6.05 -3.4 4.2 -3.8" />
</g>
<g id="PathID_4211" transform="matrix(1, 0, 0, 1, 9.55, 9.8)">
<path style="fill:#403634;fill-opacity:1" d="M10 -5.4Q9.65 -3.15 8.05 -3.3Q7.1 -3.7 6.75 -5.6Q8.6 -3.5 10 -5.4" />
</g>
<g id="PathID_4212" transform="matrix(1, 0, 0, 1, 9.55, 9.8)">
<path style="fill:#403634;fill-opacity:1" d="M5.05 -2.75Q6.9 -0.65 8.3 -2.55Q7.95 -0.3 6.35 -0.45Q5.4 -0.85 5.05 -2.75" />
</g>
<g id="PathID_4213" transform="matrix(1, 0, 0, 1, 9.55, 9.8)">
<path style="fill:#403634;fill-opacity:1" d="M8.6 2.65Q8.1 3.25 7.25 3.15Q6.3 2.75 5.95 0.85Q7.45 2.55 8.65 1.65L8.6 2.65" />
</g>
<g id="PathID_4214" transform="matrix(1, 0, 0, 1, 9.55, 9.8)">
<path style="fill:#403634;fill-opacity:1" d="M6.65 2.1Q6.2 4.35 4.25 4.2Q3.1 3.8 2.7 1.9Q4.95 4 6.65 2.1" />
</g>
<g id="PathID_4215" transform="matrix(1, 0, 0, 1, 9.55, 9.8)">
<path style="fill:#403634;fill-opacity:1" d="M7.55 6.5L6.6 6.6Q5.45 6.2 5.05 4.3Q6.65 5.8 8 5.25L7.95 5.45L7.55 6.5" />
</g>
<g id="PathID_4216" transform="matrix(1, 0, 0, 1, 9.55, 9.8)">
<path style="fill:#403634;fill-opacity:1" d="M3.35 7.85Q2.2 7.45 1.8 5.55Q4.05 7.65 5.75 5.75Q5.3 8 3.35 7.85" />
</g>
</svg>
