<?xml version="1.0" encoding="utf-8"?>
<svg version="1.1" id="Layer_1"
xmlns="http://www.w3.org/2000/svg"
xmlns:xlink="http://www.w3.org/1999/xlink"
width="18px" height="15px"
xml:space="preserve">
<g id="PathID_4081" transform="matrix(1, 0, 0, 1, 9.65, 6.8)">
<radialGradient
id="RadialGradID_916" gradientUnits="userSpaceOnUse" gradientTransform="matrix(0.0149536, 0, 0, 0.0149536, 0.4, -5.25)" spreadMethod ="pad" cx="0" cy="0" r="819.2" fx="0" fy="0" >
<stop  offset="0.282353"  style="stop-color:#F6EFE7;stop-opacity:1" />
<stop  offset="0.764706"  style="stop-color:#D9DEE1;stop-opacity:1" />
<stop  offset="0.92549"  style="stop-color:#A0C5E2;stop-opacity:1" />
</radialGradient>
<path style="fill:url(#RadialGradID_916) " d="M-4.7 -5.4L-3.5 -6.15L-2.6 -6.5L-1.25 -6.75L0 -6.8L0.35 -6.75Q2.3 -6.5 3.75 -5.45L4.95 -4.35L6.2 -2.5L6.45 -1.9Q7.75 -0.6 7.35 2.7L6.7 1.6L6.2 0.7Q7.1 3.6 6.45 5.55L5.5 4.4L5.35 4.65Q4.75 6.4 3.45 7.25L3.9 5.95Q2.3 6.95 0.35 6.9L0 6.85L-0.1 6.85Q-3.25 6.5 -4.95 4.65L-4.75 4.1L-5.4 6.75Q-7.75 4.95 -7.45 1.75L-6.75 0.7L-8.25 2.95Q-8.85 1.05 -7.7 -0.7L-9 0.2Q-8.7 -1.65 -6.85 -2.35Q-8.9 -2.55 -9.45 -4.25Q-6.6 -4.5 -4.7 -5.4M6.2 0.7L6.7 1.6M-4.75 4.1L-4.95 4.65M-6.75 0.7L-7.45 1.75" />
<path style="fill:none;stroke-width:0.7;stroke-linecap:round;stroke-linejoin:miter;stroke-miterlimit:5;stroke:#367FAA;stroke-opacity:0.458824" d="M6.45 -1.9Q7.75 -0.6 7.35 2.7L6.7 1.6Q7.1 3.6 6.45 5.55L5.5 4.4L5.35 4.65Q4.75 6.4 3.45 7.25" />
<path style="fill:none;stroke-width:0.7;stroke-linecap:round;stroke-linejoin:miter;stroke-miterlimit:5;stroke:#000000;stroke-opacity:0.4" d="M3.45 7.25L3.9 5.95Q2.3 6.95 0.35 6.9L0 6.85L-0.1 6.85Q-3.25 6.5 -4.95 4.65L-5.4 6.75" />
<path style="fill:none;stroke-width:0.7;stroke-linecap:round;stroke-linejoin:miter;stroke-miterlimit:5;stroke:#367FAA;stroke-opacity:0.458824" d="M-5.4 6.75Q-7.75 4.95 -7.45 1.75L-8.25 2.95Q-8.85 1.05 -7.7 -0.7L-9 0.2Q-8.7 -1.65 -6.85 -2.35Q-8.9 -2.55 -9.45 -4.25Q-6.6 -4.5 -4.7 -5.4" />
<path style="fill:none;stroke-width:0.7;stroke-linecap:round;stroke-linejoin:miter;stroke-miterlimit:5;stroke:#367FAA;stroke-opacity:0.458824" d="M6.7 1.6L6.2 0.7" />
<path style="fill:none;stroke-width:0.7;stroke-linecap:round;stroke-linejoin:miter;stroke-miterlimit:5;stroke:#000000;stroke-opacity:0.4" d="M-4.95 4.65L-4.75 4.1" />
<path style="fill:none;stroke-width:0.7;stroke-linecap:round;stroke-linejoin:miter;stroke-miterlimit:5;stroke:#367FAA;stroke-opacity:0.458824" d="M-7.45 1.75L-6.75 0.7" />
</g>
</svg>
