<?xml version="1.0" encoding="utf-8"?>
<svg version="1.1" id="Layer_1"
xmlns="http://www.w3.org/2000/svg"
xmlns:xlink="http://www.w3.org/1999/xlink"
width="9px" height="8px"
xml:space="preserve">
<g id="PathID_4466" transform="matrix(1, 0, 0, 1, 3.95, 3.8)">
<path style="fill:#4B3C39;fill-opacity:1" d="M1.05 1.65L1 1.65L-0.1 0.75L-0.6 0.7L-0.15 -0.2Q0.75 -1.55 2.25 -1.7L2.3 -1.65L2.8 -1.1L2.95 -0.9L3.6 -0.1Q4.05 0.5 4.2 2.1Q4.55 2.6 3.5 3.25Q3.25 2.2 2.3 1.6L3.4 3.55Q3.25 3.75 2.7 3.75Q2.15 2.7 1.05 1.65M3.45 0.9L4.2 2.1L3.45 0.9M2.3 1.6Q3.25 2.2 3.5 3.25" />
<path style="fill:#FAB244;fill-opacity:1" d="M-0.15 -0.2L-0.6 0.7Q-2.95 0.3 -3.7 -0.6L-3.8 -0.85Q-4.15 -2.25 -3.5 -3.1Q-2.2 -4 -0.9 -3.7Q0.65 -3.35 2 -1.95L2.25 -1.7Q0.75 -1.55 -0.15 -0.2" />
<path style="fill:#2E231D;fill-opacity:1" d="M-0.6 0.7L-0.1 0.75L1 1.65L1.05 1.65Q2.15 2.7 2.7 3.75Q2.05 3.9 1.3 3.3L0.5 2.75L0.25 2.6L-0.85 1.9L-0.6 0.7" />
<path style="fill:#C98012;fill-opacity:1" d="M-0.85 1.9L-1.6 1.45Q-3.25 0.45 -3.55 -0.15L-3.7 -0.6Q-2.95 0.3 -0.6 0.7L-0.85 1.9" />
<path style="fill:none;stroke-width:0.7;stroke-linecap:round;stroke-linejoin:miter;stroke-miterlimit:5;stroke:#000000;stroke-opacity:0.4" d="M-3.8 -0.85L-3.7 -0.6" />
<path style="fill:none;stroke-width:0.7;stroke-linecap:round;stroke-linejoin:miter;stroke-miterlimit:5;stroke:#000000;stroke-opacity:0.4" d="M2.3 -1.65L2.8 -1.1L2.95 -0.9L3.6 -0.1Q4.05 0.5 4.2 2.1Q4.55 2.6 3.5 3.25L3.4 3.55Q3.25 3.75 2.7 3.75Q2.05 3.9 1.3 3.3L0.5 2.75L0.25 2.6L-0.85 1.9L-1.6 1.45Q-3.25 0.45 -3.55 -0.15L-3.7 -0.6" />
<path style="fill:none;stroke-width:0.7;stroke-linecap:round;stroke-linejoin:miter;stroke-miterlimit:5;stroke:#000000;stroke-opacity:0.4" d="M4.2 2.1L3.45 0.9" />
<path style="fill:none;stroke-width:0.7;stroke-linecap:round;stroke-linejoin:miter;stroke-miterlimit:5;stroke:#000000;stroke-opacity:0.4" d="M3.5 3.25Q3.25 2.2 2.3 1.6" />
</g>
</svg>
