<?xml version="1.0" encoding="utf-8"?>
<svg version="1.1" id="Layer_1"
xmlns="http://www.w3.org/2000/svg"
xmlns:xlink="http://www.w3.org/1999/xlink"
width="14px" height="14px"
xml:space="preserve">
<g id="PathID_3617" transform="matrix(1, 0, 0, 1, 7, 6.8)">
<path style="fill:#585452;fill-opacity:1" d="M6.8 0.4L6.8 0.45L6.75 1.2L6.6 0.65L6.4 -1.55L6.2 -2.5Q6.8 -1.15 6.8 0.4M6.75 1.2L6.55 1.2L6.6 0.65L6.8 0.45" />
<path style="fill:#444D5C;fill-opacity:1" d="M-5.35 1.85Q-6.5 -0.1 -6.25 -3.2Q-5.75 -4.25 -4.85 -5.1L-4.6 -5.3L-4.45 -5.4L-2.6 -6.5L0 -6.8Q2.85 -6.65 4.8 -4.55L4.95 -4.35L5.55 -3.65L6.2 -2.5L6.4 -1.55Q1 2.45 -5.35 1.85M5.95 3Q4.05 4.45 1.8 5.05L0.25 5.1L0.2 5.1Q-1.65 4.8 -3 4.1Q2.6 4.5 6.6 0.65L6.55 1.2L5.95 3" />
<path style="fill:#2B3039;fill-opacity:1" d="M-6.55 1.7L-6.85 -0.4Q-6.85 -1.95 -6.25 -3.2Q-6.5 -0.1 -5.35 1.85L-6.55 1.7M5.95 3L6.55 1.2L6.75 1.2L6.55 2.35L6.45 2.6L5.95 3M-3.6 4.05L-3 4.1Q-1.65 4.8 0.2 5.1L0.25 5.1L1.8 5.05L-2.35 5.45L-3.95 5.35L-4.85 4.55L-5.55 3.7L-3.6 4.05" />
<path style="fill:#C4402D;fill-opacity:1" d="M-2.35 5.45L1.8 5.05Q4.25 4.85 5.45 3.65L5.95 3L6.45 2.6Q5.95 4 4.8 5.15Q2.85 7 0 6.85Q-2.25 6.75 -3.95 5.35L-2.35 5.45M-5.55 3.7L-6.55 1.7L-5.35 1.85Q-4.55 3.25 -3 4.1L-3.6 4.05L-5.55 3.7" />
<path style="fill:#E15A46;fill-opacity:1" d="M-5.35 1.85Q1 2.45 6.4 -1.55L6.6 0.65Q2.6 4.5 -3 4.1Q-4.55 3.25 -5.35 1.85M1.8 5.05Q4.05 4.45 5.95 3L5.45 3.65Q4.25 4.85 1.8 5.05" />
<path style="fill:none;stroke-width:0.7;stroke-linecap:round;stroke-linejoin:miter;stroke-miterlimit:5;stroke:#000000;stroke-opacity:0.4" d="M6.2 -2.5L5.55 -3.65L4.95 -4.35" />
<path style="fill:none;stroke-width:0.7;stroke-linecap:round;stroke-linejoin:miter;stroke-miterlimit:5;stroke:#000000;stroke-opacity:0.4" d="M-2.6 -6.5L-4.45 -5.4" />
<path style="fill:none;stroke-width:0.7;stroke-linecap:round;stroke-linejoin:miter;stroke-miterlimit:5;stroke:#000000;stroke-opacity:0.4" d="M-4.6 -5.3L-4.85 -5.1Q-5.75 -4.25 -6.25 -3.2" />
<path style="fill:none;stroke-width:0.7;stroke-linecap:round;stroke-linejoin:miter;stroke-miterlimit:5;stroke:#000000;stroke-opacity:0.4" d="M6.6 0.65L6.8 0.45L6.8 0.4Q6.8 -1.15 6.2 -2.5" />
<path style="fill:none;stroke-width:0.7;stroke-linecap:round;stroke-linejoin:miter;stroke-miterlimit:5;stroke:#000000;stroke-opacity:0.4" d="M6.8 0.45L6.75 1.2L6.55 2.35L6.45 2.6Q5.95 4 4.8 5.15Q2.85 7 0 6.85Q-2.25 6.75 -3.95 5.35L-4.85 4.55L-5.55 3.7L-6.55 1.7L-6.85 -0.4Q-6.85 -1.95 -6.25 -3.2" />
</g>
</svg>
