<?xml version="1.0" encoding="utf-8"?>
<svg version="1.1" id="Layer_1"
xmlns="http://www.w3.org/2000/svg"
xmlns:xlink="http://www.w3.org/1999/xlink"
width="4px" height="16px"
xml:space="preserve">
<g id="PathID_4344" transform="matrix(1, 0, 0, 1, 1.85, 7.85)">
<radialGradient
id="RadialGradID_934" gradientUnits="userSpaceOnUse" gradientTransform="matrix(0.0142517, 0, 0, 0.0142517, 2.85, 4.35)" spreadMethod ="pad" cx="0" cy="0" r="819.2" fx="0" fy="0" >
<stop  offset="0.615686"  style="stop-color:#BFA73D;stop-opacity:1" />
<stop  offset="0.862745"  style="stop-color:#5B5A5A;stop-opacity:1" />
</radialGradient>
<path style="fill:url(#RadialGradID_934) " d="M0.95 -5.55L1.3 -2.7L1.35 0.3L0.95 4.25L0.4 7.6Q0.25 7.75 -0.25 7.3Q-0.8 6.75 -1 5.85L-1.85 0.85L-0.95 -5.55Q-0.55 -7.85 0 -7.85Q0.55 -7.85 0.95 -5.55" />
<path style="fill:none;stroke-width:0.7;stroke-linecap:round;stroke-linejoin:round;stroke-miterlimit:3;stroke:#000000;stroke-opacity:0.301961" d="M0.95 -5.55L1.3 -2.7L1.35 0.3L0.95 4.25L0.4 7.6Q0.25 7.75 -0.25 7.3Q-0.8 6.75 -1 5.85L-1.85 0.85L-0.95 -5.55Q-0.55 -7.85 0 -7.85Q0.55 -7.85 0.95 -5.55z" />
</g>
</svg>
