<?xml version="1.0" encoding="utf-8"?>
<svg version="1.1" id="Layer_1"
xmlns="http://www.w3.org/2000/svg"
xmlns:xlink="http://www.w3.org/1999/xlink"
width="21px" height="20px"
xml:space="preserve">
<g id="PathID_2900" transform="matrix(1, 0, 0, 1, 10.65, 9.3)">
<path style="fill:#4B6212;fill-opacity:1" d="M8 6.1L8 6.05Q9.2 4.85 9.4 2.9Q10.15 -3.95 8.05 -4.95L7.25 -4.45L7.05 -4.65Q4.2 -8.25 -1.5 -5.2Q-2.35 -6 -2.7 -7.05Q-1.75 -7.6 1.15 -8.65Q5.3 -10.15 6.5 -8.15Q7.5 -8.55 8.55 -6.2Q9.65 -3.9 9.7 -2.15L9.85 3.5Q9.95 6.65 7.1 8.2L8 6.1M-8.85 4.7L-8.8 4.8Q-9.3 6.05 -8.6 7Q-10.85 5.25 -10.4 3.4Q-9.95 1.4 -8.75 -0.15Q-9.85 2.75 -8.85 4.7" />
<path style="fill:#FFF8A0;fill-opacity:1" d="M-4.35 7.8Q-7.75 6.85 -8.8 4.8L-8.85 4.7L-8.5 4Q-4.35 6.45 0.55 6.4Q5.3 6.35 8.4 4L8 6.05L8 6.1Q4.95 9.15 -4.35 7.8M8.4 4Q5.3 6.35 0.55 6.4Q-4.35 6.45 -8.5 4Q-7.2 1.15 -5.55 -1L-2.9 -3.9Q0.45 2.15 8.4 -0.6L8.4 -0.95Q8.8 1.35 8.4 4M-2.9 -3.9Q2.15 -1.7 7.5 -4Q8.1 -2.6 8.4 -0.6Q0.45 2.15 -5.55 -1M-1.4 -5.1Q0.1 -3.9 2.95 -3.6Q5.65 -3.75 7.2 -4.45L7.25 -4.45L7.5 -4Q2.15 -1.7 -2.9 -3.9L-1.4 -5.1" />
<path style="fill:#5F7E21;fill-opacity:1" d="M-1.4 -5.1L-2.9 -3.9L-5.55 -1Q-7.2 1.15 -8.5 4L-8.85 4.7Q-9.85 2.75 -8.75 -0.15L-7.75 -1.55L-5.9 -3.9L-4.4 -5.45L-2.7 -7.05Q-2.35 -6 -1.5 -5.2L-1.4 -5.1M8.4 4Q8.8 1.35 8.4 -0.95L8.4 -0.6Q8.1 -2.6 7.5 -4L7.25 -4.45L8.05 -4.95Q10.15 -3.95 9.4 2.9Q9.2 4.85 8 6.05L8.4 4" />
<path style="fill:#585452;fill-opacity:1" d="M7.05 -4.65L7.25 -4.45L7.2 -4.45L7.05 -4.65" />
<path style="fill:#BDB670;fill-opacity:1" d="M7.2 -4.45Q5.65 -3.75 2.95 -3.6Q0.1 -3.9 -1.4 -5.1L-1.5 -5.2Q4.2 -8.25 7.05 -4.65L7.2 -4.45M-8.8 4.8Q-7.75 6.85 -4.35 7.8Q4.95 9.15 8 6.1L7.1 8.2L5.5 8.85Q1 10.25 -2.45 9.65Q-5.9 9.05 -8.35 7.2L-8.6 7Q-9.3 6.05 -8.8 4.8" />
<path style="fill:none;stroke-width:0.7;stroke-linecap:round;stroke-linejoin:miter;stroke-miterlimit:5;stroke:#4F3218;stroke-opacity:0.4" d="M7.1 8.2Q9.95 6.65 9.85 3.5L9.7 -2.15Q9.65 -3.9 8.55 -6.2Q7.5 -8.55 6.5 -8.15" />
<path style="fill:none;stroke-width:0.7;stroke-linecap:round;stroke-linejoin:miter;stroke-miterlimit:5;stroke:#4F3218;stroke-opacity:0.4" d="M1.15 -8.65Q-1.75 -7.6 -2.7 -7.05" />
<path style="fill:none;stroke-width:0.7;stroke-linecap:round;stroke-linejoin:miter;stroke-miterlimit:5;stroke:#000000;stroke-opacity:0.4" d="M-1.5 -5.2Q4.2 -8.25 7.05 -4.65L7.25 -4.45" />
<path style="fill:none;stroke-width:0.7;stroke-linecap:round;stroke-linejoin:miter;stroke-miterlimit:5;stroke:#000000;stroke-opacity:0.4" d="M8 6.1L7.1 8.2" />
<path style="fill:none;stroke-width:0.7;stroke-linecap:round;stroke-linejoin:miter;stroke-miterlimit:5;stroke:#4F3218;stroke-opacity:0.4" d="M7.1 8.2L5.5 8.85Q1 10.25 -2.45 9.65Q-5.9 9.05 -8.35 7.2L-8.6 7Q-10.85 5.25 -10.4 3.4Q-9.95 1.4 -8.75 -0.15L-7.75 -1.55L-5.9 -3.9L-4.4 -5.45L-2.7 -7.05" />
<path style="fill:none;stroke-width:0.7;stroke-linecap:round;stroke-linejoin:miter;stroke-miterlimit:5;stroke:#061005;stroke-opacity:0.4" d="M8.4 -0.95L8.4 -0.6" />
<path style="fill:none;stroke-width:0.7;stroke-linecap:round;stroke-linejoin:miter;stroke-miterlimit:5;stroke:#4F3218;stroke-opacity:0.4" d="M8.4 -0.6Q0.45 2.15 -5.55 -1" />
<path style="fill:none;stroke-width:0.7;stroke-linecap:round;stroke-linejoin:miter;stroke-miterlimit:5;stroke:#000000;stroke-opacity:0.4" d="M-5.55 -1Q-7.2 1.15 -8.5 4" />
<path style="fill:none;stroke-width:0.7;stroke-linecap:round;stroke-linejoin:miter;stroke-miterlimit:5;stroke:#4F3218;stroke-opacity:0.4" d="M-8.5 4Q-4.35 6.45 0.55 6.4Q5.3 6.35 8.4 4" />
<path style="fill:none;stroke-width:0.7;stroke-linecap:round;stroke-linejoin:miter;stroke-miterlimit:5;stroke:#000000;stroke-opacity:0.4" d="M8.4 4Q8.8 1.35 8.4 -0.95" />
<path style="fill:none;stroke-width:0.7;stroke-linecap:round;stroke-linejoin:miter;stroke-miterlimit:5;stroke:#4F3218;stroke-opacity:0.4" d="M8.4 -0.6Q8.1 -2.6 7.5 -4Q2.15 -1.7 -2.9 -3.9" />
<path style="fill:none;stroke-width:0.7;stroke-linecap:round;stroke-linejoin:miter;stroke-miterlimit:5;stroke:#000000;stroke-opacity:0.4" d="M-2.9 -3.9L-5.55 -1" />
<path style="fill:none;stroke-width:0.7;stroke-linecap:round;stroke-linejoin:miter;stroke-miterlimit:5;stroke:#000000;stroke-opacity:0.4" d="M7.5 -4L7.25 -4.45" />
<path style="fill:none;stroke-width:0.7;stroke-linecap:round;stroke-linejoin:miter;stroke-miterlimit:5;stroke:#000000;stroke-opacity:0.4" d="M-1.4 -5.1L-2.9 -3.9" />
<path style="fill:none;stroke-width:0.7;stroke-linecap:round;stroke-linejoin:miter;stroke-miterlimit:5;stroke:#000000;stroke-opacity:0.4" d="M7.05 -4.65L7.2 -4.45" />
<path style="fill:none;stroke-width:0.7;stroke-linecap:round;stroke-linejoin:miter;stroke-miterlimit:5;stroke:#000000;stroke-opacity:0.4" d="M8 6.05L8.4 4" />
<path style="fill:none;stroke-width:0.7;stroke-linecap:round;stroke-linejoin:miter;stroke-miterlimit:5;stroke:#000000;stroke-opacity:0.4" d="M-8.6 7Q-9.3 6.05 -8.8 4.8" />
<path style="fill:none;stroke-width:0.7;stroke-linecap:round;stroke-linejoin:miter;stroke-miterlimit:5;stroke:#000000;stroke-opacity:0.4" d="M-8.85 4.7L-8.5 4" />
</g>
</svg>
