<?xml version="1.0" encoding="utf-8"?>
<svg version="1.1" id="Layer_1"
xmlns="http://www.w3.org/2000/svg"
xmlns:xlink="http://www.w3.org/1999/xlink"
width="18px" height="38px"
xml:space="preserve">
<g id="PathID_2745" transform="matrix(1, 0, 0, 1, 9.1, 18.4)">
<radialGradient
id="RadialGradID_627" gradientUnits="userSpaceOnUse" gradientTransform="matrix(0.0290222, 0.00434875, -0.00378418, 0.0252991, 1.5, 11.75)" spreadMethod ="pad" cx="0" cy="0" r="819.2" fx="0" fy="0" >
<stop  offset="0.294118"  style="stop-color:#FD9B42;stop-opacity:1" />
<stop  offset="0.635294"  style="stop-color:#836C82;stop-opacity:1" />
<stop  offset="1"  style="stop-color:#5FADDB;stop-opacity:1" />
</radialGradient>
<path style="fill:url(#RadialGradID_627) " d="M4.35 15.25L0.45 14.7L-0.1 14.55L-4.05 13.1Q-5.45 12.3 -6.85 8.75L-8.1 5.55L-8.95 0.8L-8.95 0.7Q-7.9 1.6 -7.8 1.95Q-7.6 0.8 -7.6 -5.2Q-7.6 -7.25 -6.95 -8.65L-6.6 -6.8L-6.15 -5.25L-5.5 -7.75Q-4.9 -10.2 -5.25 -12.8Q-5.65 -15.45 -6.55 -16.4Q-4.55 -14.45 -3.35 -12.3Q-3.95 -15.4 -6.45 -18.1Q-4.45 -17.4 -2.3 -15.45Q-0.9 -14.2 0.3 -12.15L0.7 -11.5L1.5 -9.4L1.75 -10.75L1.9 -12.15Q2.55 -11.1 2.55 -9.55Q2.55 -7.4 2.05 -4.55L0.85 1.85L1.55 1.3L2.95 0.65Q1.85 1.45 0.5 6.15L0.55 8.9Q0.7 10.35 1.6 11.45Q2.5 12.45 4.65 12.4Q6.8 12.35 8.05 15.25L4.35 15.25M-1.35 -3.55Q-1.85 -6.55 -2.65 -7.3L-3.8 -8.25Q-3.3 -6.85 -3.3 -5.6Q-3.3 -3.55 -3.85 -2.1Q-3.3 -3.55 -3.3 -5.6Q-3.3 -6.85 -3.8 -8.25L-2.65 -7.3Q-1.85 -6.55 -1.35 -3.55M-3.3 6.4Q-3.2 4.05 -1.55 1.8L-1.9 4.05Q-1.9 5.85 -1.4 6.5Q-1.9 5.85 -1.9 4.05L-1.55 1.8Q-3.2 4.05 -3.3 6.4" />
<path style="fill:#9C6232;fill-opacity:1" d="M8.05 15.25Q8.75 17.85 7 18.7L0 18.45Q-1.35 18.1 -2.55 17.4Q-4.45 16.3 -5.75 14.55L-6.7 12.9L-7.7 9.8Q-8.1 7.85 -8.1 5.55L-6.85 8.75Q-5.45 12.3 -4.05 13.1L-0.1 14.55L0.45 14.7L4.35 15.25L8.05 15.25" />
<path style="fill:none;stroke-width:0.7;stroke-linecap:round;stroke-linejoin:miter;stroke-miterlimit:5;stroke:#000000;stroke-opacity:0.4" d="M-8.1 5.55L-8.95 0.8L-8.95 0.7Q-7.9 1.6 -7.8 1.95Q-7.6 0.8 -7.6 -5.2Q-7.6 -7.25 -6.95 -8.65L-6.6 -6.8L-6.15 -5.25L-5.5 -7.75Q-4.9 -10.2 -5.25 -12.8Q-5.65 -15.45 -6.55 -16.4Q-4.55 -14.45 -3.35 -12.3Q-3.95 -15.4 -6.45 -18.1Q-4.45 -17.4 -2.3 -15.45Q-0.9 -14.2 0.3 -12.15L0.7 -11.5L1.5 -9.4L1.75 -10.75L1.9 -12.15Q2.55 -11.1 2.55 -9.55Q2.55 -7.4 2.05 -4.55L0.85 1.85L1.55 1.3L2.95 0.65Q1.85 1.45 0.5 6.15L0.55 8.9Q0.7 10.35 1.6 11.45Q2.5 12.45 4.65 12.4Q6.8 12.35 8.05 15.25Q8.75 17.85 7 18.7L0 18.45Q-1.35 18.1 -2.55 17.4Q-4.45 16.3 -5.75 14.55L-6.7 12.9L-7.7 9.8Q-8.1 7.85 -8.1 5.55z" />
<path style="fill:none;stroke-width:0.7;stroke-linecap:round;stroke-linejoin:miter;stroke-miterlimit:5;stroke:#000000;stroke-opacity:0.4" d="M-3.85 -2.1Q-3.3 -3.55 -3.3 -5.6Q-3.3 -6.85 -3.8 -8.25L-2.65 -7.3Q-1.85 -6.55 -1.35 -3.55" />
<path style="fill:none;stroke-width:0.7;stroke-linecap:round;stroke-linejoin:miter;stroke-miterlimit:5;stroke:#000000;stroke-opacity:0.4" d="M-1.4 6.5Q-1.9 5.85 -1.9 4.05L-1.55 1.8Q-3.2 4.05 -3.3 6.4" />
</g>
</svg>
