<?xml version="1.0" encoding="utf-8"?>
<svg version="1.1" id="Layer_1"
xmlns="http://www.w3.org/2000/svg"
xmlns:xlink="http://www.w3.org/1999/xlink"
width="17px" height="21px"
xml:space="preserve">
<g id="PathID_3468" transform="matrix(1, 0, 0, 1, 8.9, 12.25)">
<path style="fill:#120E0B;fill-opacity:1" d="M3.75 4.55Q2.2 4.2 2.2 1.25Q0.9 -1 -0.95 -0.3Q-2.65 0.3 -3.15 2.4Q-3.1 1.7 -2.45 0.1L-1.5 -1.7Q-0.1 -2.95 0.8 -3.25L4.25 -3.9L0.8 -3.25Q-0.1 -2.95 -1.5 -1.7Q-5.05 -3 -8.65 0.5Q-8.4 -1 -6.9 -3.75L-5.2 -5.05L-2.95 -6.2L-1.4 -6.45Q0.45 -6.6 2.1 -5.75L3.1 -5.1L4.25 -3.9Q5.4 -2.8 5.55 -1.3Q5.65 -0.35 5.3 0.3Q4.45 1.9 4.6 2.85Q4.7 3.65 5.5 4.15L6.45 4.85L3.75 4.55" />
<path style="fill:#EAEAEA;fill-opacity:1" d="M-8.65 0.5L-8.65 0.05Q-8.7 -1.25 -8.15 -2.85Q-7.2 -5.55 -4.7 -6.85Q-7.3 -7.5 -6.8 -11.6Q-4.9 -8.85 -0.65 -7.85Q1.45 -7.85 3.2 -7Q4.2 -6.5 5.1 -5.65L6.85 -3.2Q8.45 -0.1 7.5 3.25L7 4.95L6.45 4.85L5.5 4.15Q4.7 3.65 4.6 2.85Q4.45 1.9 5.3 0.3Q5.65 -0.35 5.55 -1.3Q5.4 -2.8 4.25 -3.9L3.1 -5.1L2.1 -5.75Q0.45 -6.6 -1.4 -6.45L-2.95 -6.2L-5.2 -5.05L-6.9 -3.75Q-8.4 -1 -8.65 0.5" />
<path style="fill:#231C16;fill-opacity:1" d="M5 5.95L3.65 5.45L4.4 6.45Q3.25 7.2 2 7.55Q-0.6 8.35 -2.45 7.55L-1.25 4.25L-3.8 7.05Q-6 6.15 -7.4 4Q-8.55 2.2 -8.65 0.5Q-5.05 -3 -1.5 -1.7L-2.45 0.1Q-3.1 1.7 -3.15 2.4Q-2.65 0.3 -0.95 -0.3Q0.9 -1 2.2 1.25Q2.2 4.2 3.75 4.55L5 5.95M-3.15 4.25L-3.15 2.4L-3.15 4.25" />
<path style="fill:none;stroke-width:0.7;stroke-linecap:round;stroke-linejoin:miter;stroke-miterlimit:5;stroke:#000000;stroke-opacity:0.301961" d="M-6.9 -3.75L-5.2 -5.05L-2.95 -6.2L-1.4 -6.45Q0.45 -6.6 2.1 -5.75L3.1 -5.1L4.25 -3.9Q5.4 -2.8 5.55 -1.3Q5.65 -0.35 5.3 0.3Q4.45 1.9 4.6 2.85Q4.7 3.65 5.5 4.15" />
<path style="fill:none;stroke-width:0.7;stroke-linecap:round;stroke-linejoin:miter;stroke-miterlimit:5;stroke:#000000;stroke-opacity:0.301961" d="M7 4.95L7.5 3.25Q8.45 -0.1 6.85 -3.2L5.1 -5.65Q4.2 -6.5 3.2 -7Q1.45 -7.85 -0.65 -7.85Q-4.9 -8.85 -6.8 -11.6Q-7.3 -7.5 -4.7 -6.85Q-7.2 -5.55 -8.15 -2.85Q-8.7 -1.25 -8.65 0.05L-8.65 0.5" />
<path style="fill:none;stroke-width:0.7;stroke-linecap:round;stroke-linejoin:miter;stroke-miterlimit:5;stroke:#000000;stroke-opacity:0.2" d="M4.25 -3.9L0.8 -3.25Q-0.1 -2.95 -1.5 -1.7L-2.45 0.1Q-3.1 1.7 -3.15 2.4" />
<path style="fill:none;stroke-width:0.7;stroke-linecap:round;stroke-linejoin:miter;stroke-miterlimit:5;stroke:#000000;stroke-opacity:0.2" d="M-3.15 2.4L-3.15 4.25" />
<path style="fill:none;stroke-width:0.7;stroke-linecap:round;stroke-linejoin:miter;stroke-miterlimit:5;stroke:#000000;stroke-opacity:0.301961" d="M2 7.55Q-0.6 8.35 -2.45 7.55L-1.25 4.25L-3.8 7.05Q-6 6.15 -7.4 4Q-8.55 2.2 -8.65 0.5" />
</g>
</svg>
