<?xml version="1.0" encoding="utf-8"?>
<svg version="1.1" id="Layer_1"
xmlns="http://www.w3.org/2000/svg"
xmlns:xlink="http://www.w3.org/1999/xlink"
width="20px" height="41px"
xml:space="preserve">
<g id="PathID_4264" transform="matrix(1, 0, 0, 1, 11.1, 21.55)">
<path style="fill:#16233F;fill-opacity:1" d="M5.25 18.15Q1.95 16.7 0.4 13.95L-0.2 12.75Q-1.55 9.35 -1.55 5.35Q-1.55 1.35 -0.95 -2.45Q-0.35 -6.2 -1.45 -9.15L-2.4 -9.55L-2.45 -9.6L-3.35 -10.25L-5.15 -13.7L-4 -14.2Q-2.65 -14.5 -1.8 -13.5L-1.3 -12.45L-0.6 -10.55L-0.45 -10.05L-0.4 -9.95L-0.25 -9.3Q0.6 -5.05 -0.45 0.75Q-0.65 3.5 -0.2 5.75L-0.05 6.4L0.15 7.05L0.35 7.6L0.75 8.55Q2.55 12.15 6.95 13.7Q8.15 15.35 8.1 16.55L8.05 17L8.05 17.1L8 17.15L7.85 17.5L7.65 17.8L6.65 18.65L5.25 18.15" />
<path style="fill:#2979C6;fill-opacity:1" d="M-0.9 12.4Q-4.15 6.55 -2.95 0.9Q-1.45 -4.9 -2.4 -9.55L-1.45 -9.15Q-0.35 -6.2 -0.95 -2.45Q-1.55 1.35 -1.55 5.35Q-1.55 9.35 -0.2 12.75L0.4 13.95Q-0.45 13.25 -0.9 12.4" />
<path style="fill:#0E4F8E;fill-opacity:1" d="M0.4 13.95Q1.95 16.7 5.25 18.15L6.65 18.65L5.75 19Q-6.35 15.3 -3.25 1.8L-2.95 0.9Q-4.15 6.55 -0.9 12.4Q-0.45 13.25 0.4 13.95" />
</g>
<g id="PathID_4265" transform="matrix(1, 0, 0, 1, 11.1, 21.55)">
<path style="fill:none;stroke-width:0.7;stroke-linecap:round;stroke-linejoin:miter;stroke-miterlimit:5;stroke:#000000;stroke-opacity:0.301961" d="M-2.4 -9.55Q-1.45 -4.9 -2.95 0.9L-3.25 1.8Q-6.35 15.3 5.75 19Q7.05 18.5 7.65 17.8L7.85 17.5L8 17.15L8.05 17.1L8.05 17L8.1 16.55Q8.15 15.35 6.95 13.7Q2.55 12.15 0.75 8.55L0.35 7.6L0.15 7.05L-0.05 6.4L-0.2 5.75Q-0.65 3.5 -0.45 0.75Q1.05 -7.35 -1.3 -12.45L-1.45 -12.8Q-2.25 -14.45 -3.75 -14.25Q-4.55 -14.15 -5.15 -13.7L-3.35 -10.25L-2.45 -9.6L-2.4 -9.55z" />
</g>
<g id="PathID_4266" transform="matrix(1, 0, 0, 1, 11.1, 21.55)">
<path style="fill:#FFD933;fill-opacity:1" d="M-1.4 -12.8L-2.15 -12.45L-3.85 -12.4Q-3.05 -11.45 -3 -10.95Q-2.95 -10.6 -3.35 -10.25Q-4.3 -10 -7.1 -11.15Q-10.05 -12.35 -9.85 -13.35Q-8.4 -15.45 -10.8 -20.8L-10.95 -21.15L-10.8 -21.25Q-9.4 -21.95 -6.25 -19.45Q-2.65 -16.65 -1.4 -12.8" />
<path style="fill:none;stroke-width:0.7;stroke-linecap:round;stroke-linejoin:miter;stroke-miterlimit:5;stroke:#000000;stroke-opacity:0.301961" d="M-6.25 -19.45Q-9.4 -21.95 -10.8 -21.25L-10.95 -21.15L-10.8 -20.8Q-8.4 -15.45 -9.85 -13.35Q-10.05 -12.35 -7.1 -11.15Q-4.3 -10 -3.35 -10.25Q-2.95 -10.6 -3 -10.95Q-3.05 -11.45 -3.85 -12.4L-2.15 -12.45L-1.4 -12.8Q-2.65 -16.65 -6.25 -19.45z" />
</g>
<g id="PathID_4267" transform="matrix(1, 0, 0, 1, 11.1, 21.55)">
<path style="fill:none;stroke-width:0.7;stroke-linecap:round;stroke-linejoin:miter;stroke-miterlimit:5;stroke:#000000;stroke-opacity:0.2" d="M-10.8 -21L-1.8 -12.55" />
<path style="fill:none;stroke-width:0.7;stroke-linecap:round;stroke-linejoin:miter;stroke-miterlimit:5;stroke:#000000;stroke-opacity:0.2" d="M-9.85 -13.25L-3.1 -10.55" />
<path style="fill:none;stroke-width:0.7;stroke-linecap:round;stroke-linejoin:miter;stroke-miterlimit:5;stroke:#000000;stroke-opacity:0.2" d="M-9.25 -15.3L-3.35 -11.7" />
<path style="fill:none;stroke-width:0.7;stroke-linecap:round;stroke-linejoin:miter;stroke-miterlimit:5;stroke:#000000;stroke-opacity:0.2" d="M-9.55 -17.3L-2.65 -12.35" />
</g>
</svg>
