<?xml version="1.0" encoding="utf-8"?>
<svg version="1.1" id="Layer_1"
xmlns="http://www.w3.org/2000/svg"
xmlns:xlink="http://www.w3.org/1999/xlink"
width="25px" height="25px"
xml:space="preserve">
<g id="PathID_3663" transform="matrix(1, 0, 0, 1, 12.35, 12.85)">
<radialGradient
id="RadialGradID_857" gradientUnits="userSpaceOnUse" gradientTransform="matrix(0.0153961, -0.00547791, 0.00532532, 0.0149231, 5.65, 2.55)" spreadMethod ="pad" cx="0" cy="0" r="819.2" fx="138" fy="0" >
<stop  offset="0.333333"  style="stop-color:#FFA22F;stop-opacity:1" />
<stop  offset="0.607843"  style="stop-color:#EC6A18;stop-opacity:1" />
<stop  offset="0.784314"  style="stop-color:#8E6D48;stop-opacity:1" />
</radialGradient>
<path style="fill:url(#RadialGradID_857) " d="M-4.6 -7.85L-4.55 -7.95Q-2.2 -10.1 -2.85 -12.1Q-1.6 -11.15 -1.95 -9.75L-2.45 -8L-1.3 -9.85Q-0.45 -11.3 2.35 -11.15L2.05 -10.9Q-0.05 -9.3 -0.15 -8.3L1.8 -9.65Q4.65 -9.85 6.5 -7.9Q8.35 -6 9.15 -4.05Q9.65 -2.75 10.25 -2.05L10.8 -1.55L11.9 -0.7Q9.85 2.85 4.55 3.55L-1.45 3.3Q-4.75 1.85 -6 0.65Q-7.35 -0.7 -7 -2.4L-6.15 -6.2L-5.15 -7.4L-4.65 -7.9L-4.6 -7.85" />
<path style="fill:#452F1C;fill-opacity:1" d="M2.05 -10.9Q1.6 -10.45 1.8 -9.65L-0.15 -8.3Q-0.05 -9.3 2.05 -10.9M-2.85 -12.1L-3 -12.5Q-0.75 -11.15 -1.3 -9.85L-2.45 -8L-1.95 -9.75Q-1.6 -11.15 -2.85 -12.1" />
<path style="fill:#808080;fill-opacity:1" d="M-4.65 -7.9L-4.55 -7.95L-4.6 -7.85L-4.65 -7.9" />
<linearGradient
id="LinearGradID_858" gradientUnits="userSpaceOnUse" gradientTransform="matrix(0.00892639, 0.00190735, -0.00184631, 0.00862122, -4.5, 2.3)" spreadMethod ="pad" x1="-819.2" y1="0" x2="819.2" y2="0" >
<stop  offset="0.443137" style="stop-color:#452F1C;stop-opacity:1" />
<stop  offset="0.784314" style="stop-color:#BB4D0C;stop-opacity:1" />
</linearGradient>
<path style="fill:url(#LinearGradID_858) " d="M-7 -2.4Q-7.35 -0.7 -6 0.65Q-4.75 1.85 -1.45 3.3L4.55 3.55Q9.85 2.85 11.9 -0.7L12.1 0.7Q12 2.15 11 3.4L10.75 3.7L9 5.1L4.55 7.55L2.5 8.25L-0.85 6.65L-3 5.9Q-5.15 5.4 -6.45 4.05Q-7.8 2.7 -7.75 -0.65Q-7.7 -4 -6.15 -6.2L-7 -2.4" />
<path style="fill:none;stroke-width:0.7;stroke-linecap:round;stroke-linejoin:miter;stroke-miterlimit:5;stroke:#4F3218;stroke-opacity:0.4" d="M-1.3 -9.85Q-0.45 -11.3 2.35 -11.15L2.05 -10.9Q1.6 -10.45 1.8 -9.65Q4.65 -9.85 6.5 -7.9Q8.35 -6 9.15 -4.05Q9.65 -2.75 10.25 -2.05L10.8 -1.55L11.9 -0.7L12.1 0.7Q12 2.15 11 3.4L10.75 3.7L9 5.1L4.55 7.55" />
<path style="fill:none;stroke-width:0.7;stroke-linecap:round;stroke-linejoin:miter;stroke-miterlimit:5;stroke:#4F3218;stroke-opacity:0.4" d="M-3 5.9Q-5.15 5.4 -6.45 4.05Q-7.8 2.7 -7.75 -0.65Q-7.7 -4 -6.15 -6.2L-5.15 -7.4L-4.65 -7.9L-4.55 -7.95Q-2.2 -10.1 -2.85 -12.1L-3 -12.5Q-0.75 -11.15 -1.3 -9.85" />
</g>
<g id="PathID_3664" transform="matrix(1, 0, 0, 1, 12.35, 12.85)">
<path style="fill:none;stroke-width:0.7;stroke-linecap:round;stroke-linejoin:miter;stroke-miterlimit:5;stroke:#000000;stroke-opacity:0.501961" d="M4.25 2.8Q-5.05 2.95 -12.1 7.9" />
</g>
<g id="PathID_3665" transform="matrix(1, 0, 0, 1, 12.35, 12.85)">
<path style="fill:none;stroke-width:0.7;stroke-linecap:round;stroke-linejoin:miter;stroke-miterlimit:5;stroke:#000000;stroke-opacity:0.501961" d="M5.75 3.75Q-2 5.95 -6.8 11.65" />
</g>
<g id="PathID_3666" transform="matrix(1, 0, 0, 1, 12.35, 12.85)">
<path style="fill:#F5E0CD;fill-opacity:1" d="M9.5 -0.35Q10.35 -0.85 11.25 -0.8Q10.9 0.35 9.5 -0.35" />
<path style="fill:#60381C;fill-opacity:1" d="M11.55 -0.8L11.9 -0.15Q11 0.95 11.25 1.3L10.75 1.6Q10.95 1 10.15 0.6Q9.15 0.6 9 -0.05L9.5 -0.35Q10.9 0.35 11.25 -0.8L11.55 -0.8" />
<path style="fill:#070606;fill-opacity:1" d="M10.4 1.75Q10.05 0.6 9.05 0.9L8.7 0.2L9 -0.05Q9.15 0.6 10.15 0.6Q10.95 1 10.75 1.6L10.4 1.75" />
<path style="fill:none;stroke-width:0.7;stroke-linecap:round;stroke-linejoin:round;stroke-miterlimit:3;stroke:#000000;stroke-opacity:0.301961" d="M9.5 -0.35L9 -0.05" />
<path style="fill:none;stroke-width:0.7;stroke-linecap:round;stroke-linejoin:round;stroke-miterlimit:3;stroke:#000000;stroke-opacity:0.301961" d="M10.75 1.6L11.25 1.3Q11 0.95 11.9 -0.15L11.55 -0.8L11.25 -0.8Q10.35 -0.85 9.5 -0.35" />
<path style="fill:none;stroke-width:0.7;stroke-linecap:round;stroke-linejoin:round;stroke-miterlimit:3;stroke:#000000;stroke-opacity:0.301961" d="M9 -0.05L8.7 0.2L9.05 0.9Q10.05 0.6 10.4 1.75L10.75 1.6" />
</g>
</svg>
