<?xml version="1.0" encoding="utf-8"?>
<svg version="1.1" id="Layer_1"
xmlns="http://www.w3.org/2000/svg"
xmlns:xlink="http://www.w3.org/1999/xlink"
width="16px" height="14px"
xml:space="preserve">
<g id="PathID_3137" transform="matrix(1, 0, 0, 1, 7.3, 6.8)">
<path style="fill:#FFBDB6;fill-opacity:1" d="M-6.25 -3.2Q-5.75 -4.25 -4.85 -5.1L-4.6 -5.3L-4.45 -5.4L-2.6 -6.5L0 -6.8Q2.85 -6.65 4.8 -4.55L4.95 -4.35L5.55 -3.65Q7.4 -1.55 7.6 0.6L7.1 0.65Q7.3 1.4 7.1 2.8L6.55 2.4L6.55 2.25L5.45 3.75Q4 5.2 0.25 5.1L0.2 5.1Q-6.85 4.05 -6.25 -3.2" />
<path style="fill:#E48989;fill-opacity:1" d="M0.2 5.1L0.25 5.1Q4 5.2 5.45 3.75L6.55 2.25L6.55 2.4Q6.05 3.95 4.8 5.15Q2.85 7 0 6.85Q-2.8 6.7 -4.75 4.65L-5.85 5.25Q-6.25 4.75 -5.95 3.35L-6.95 4.15Q-7.45 3.15 -6.7 1.1L-6.85 -0.4Q-6.85 -1.95 -6.25 -3.2Q-6.85 4.05 0.2 5.1" />
<path style="fill:none;stroke-width:0.7;stroke-linecap:round;stroke-linejoin:miter;stroke-miterlimit:5;stroke:#000000;stroke-opacity:0.4" d="M4.95 -4.35L5.55 -3.65Q7.4 -1.55 7.6 0.6L7.1 0.65Q7.3 1.4 7.1 2.8L6.55 2.4Q6.05 3.95 4.8 5.15Q2.85 7 0 6.85Q-2.8 6.7 -4.75 4.65L-5.85 5.25Q-6.25 4.75 -5.95 3.35L-6.95 4.15Q-7.45 3.15 -6.7 1.1L-6.85 -0.4Q-6.85 -1.95 -6.25 -3.2Q-5.75 -4.25 -4.85 -5.1L-4.6 -5.3" />
<path style="fill:none;stroke-width:0.7;stroke-linecap:round;stroke-linejoin:miter;stroke-miterlimit:5;stroke:#000000;stroke-opacity:0.4" d="M-4.45 -5.4L-2.6 -6.5" />
</g>
<g id="PathID_3138" transform="matrix(1, 0, 0, 1, 7.3, 6.8)">
<path style="fill:#D33D3D;fill-opacity:1" d="M-2.85 1Q-2.75 0.15 -2.15 0Q-1.7 -0.05 -1.3 0.35Q-0.3 1.55 -2.75 2.85Q-5.3 1.9 -4.5 0.6Q-4.2 0.1 -3.75 0.15Q-3.2 0.2 -2.85 1" />
</g>
</svg>
