<?xml version="1.0" encoding="utf-8"?>
<svg version="1.1" id="Layer_1"
xmlns="http://www.w3.org/2000/svg"
xmlns:xlink="http://www.w3.org/1999/xlink"
width="9px" height="8px"
xml:space="preserve">
<g id="PathID_2924" transform="matrix(1, 0, 0, 1, 3.95, 3.8)">
<path style="fill:#78583A;fill-opacity:1" d="M4.1 -1.15L4.05 -1.25L4.1 -1.15" />
<path style="fill:#D8D3D7;fill-opacity:1" d="M-0.1 0.75L1.95 2.6L2.1 2.75Q2.65 2.9 3.4 2L4.2 0.8L3.9 2.3L3.35 3.35L2.7 3.75L1.55 3.5L1.3 3.3Q0.1 2.4 -1.6 1.45Q-3.25 0.45 -3.55 -0.15L-3.7 -0.6Q-2.85 0.4 -0.1 0.75" />
<path style="fill:#FFFFFF;fill-opacity:1" d="M4.1 -1.15Q3.4 -2 3.05 -1.55L2.85 -1.3L3.05 -1.55Q3.4 -2 4.1 -1.15L4.2 0L4.2 0.8L3.4 2Q2.65 2.9 2.1 2.75L1.95 2.6L-0.1 0.75Q-2.85 0.4 -3.7 -0.6L-3.8 -0.85Q-4.15 -2.25 -3.5 -3.1Q-2.2 -4 -0.9 -3.7Q0.65 -3.35 1.5 -2.3L2.35 -1.25L2.5 -1.15L2.75 -1.2L2.85 -1.3Q3.2 -2.3 3.45 -2.1L4 -1.6L4.05 -1.25L4.1 -1.15M4.2 0L3.35 0.15L3 0.6L2.7 1.1L3 0.6L3.35 0.15L4.2 0" />
<path style="fill:none;stroke-width:0.7;stroke-linecap:round;stroke-linejoin:miter;stroke-miterlimit:5;stroke:#4F3218;stroke-opacity:0.4" d="M2.5 -1.15L2.75 -1.2L2.85 -1.3Q3.2 -2.3 3.45 -2.1L4 -1.6L4.05 -1.25L4.1 -1.15L4.2 0L4.2 0.8L3.9 2.3L3.35 3.35L2.7 3.75L1.55 3.5L1.3 3.3Q0.1 2.4 -1.6 1.45Q-3.25 0.45 -3.55 -0.15L-3.7 -0.6L-3.8 -0.85" />
<path style="fill:none;stroke-width:0.7;stroke-linecap:round;stroke-linejoin:miter;stroke-miterlimit:5;stroke:#4F3218;stroke-opacity:0.4" d="M4.1 -1.15Q3.4 -2 3.05 -1.55L2.85 -1.3" />
<path style="fill:none;stroke-width:0.7;stroke-linecap:round;stroke-linejoin:miter;stroke-miterlimit:5;stroke:#4F3218;stroke-opacity:0.4" d="M4.1 -1.15L4.05 -1.25" />
<path style="fill:none;stroke-width:0.7;stroke-linecap:round;stroke-linejoin:miter;stroke-miterlimit:5;stroke:#4F3218;stroke-opacity:0.4" d="M2.7 1.1L3 0.6L3.35 0.15L4.2 0" />
</g>
</svg>
