<?xml version="1.0" encoding="utf-8"?>
<svg version="1.1" id="Layer_1"
xmlns="http://www.w3.org/2000/svg"
xmlns:xlink="http://www.w3.org/1999/xlink"
width="13px" height="8px"
xml:space="preserve">
<g id="PathID_3406" transform="matrix(1, 0, 0, 1, 8.25, 3.85)">
<radialGradient
id="RadialGradID_801" gradientUnits="userSpaceOnUse" gradientTransform="matrix(0.00758362, 0, 0, 0.00758362, 4.2, 2.25)" spreadMethod ="pad" cx="0" cy="0" r="819.2" fx="0" fy="0" >
<stop  offset="0"  style="stop-color:#5B5B5B;stop-opacity:1" />
<stop  offset="1"  style="stop-color:#313131;stop-opacity:1" />
</radialGradient>
<path style="fill:url(#RadialGradID_801) " d="M3.45 0.9L4.2 2.1Q4.55 2.6 3.5 3.25Q3.25 2.2 2.3 1.6Q3.25 2.2 3.5 3.25L3.4 3.55Q3.25 3.75 2.7 3.75Q2.15 2.7 1.05 1.65L1 1.65L-0.1 0.75Q-2.85 0.4 -3.7 -0.6L-3.8 -0.85Q-3.8 -2.9 -2.95 -3.45Q-2.15 -4.05 -0.75 -3.7Q0.65 -3.35 2 -1.95L2.3 -1.65L2.8 -1.1L2.95 -0.9L3.6 -0.1Q4.05 0.5 4.2 2.1L3.45 0.9" />
<path style="fill:#191917;fill-opacity:1" d="M1.3 3.3L0.5 2.75L0.25 2.6Q-0.6 2 -1.6 1.45Q-3.25 0.45 -3.55 -0.15L-3.7 -0.6Q-2.85 0.4 -0.1 0.75L1 1.65L1.05 1.65Q2.15 2.7 2.7 3.75Q2.05 3.9 1.3 3.3" />
<path style="fill:none;stroke-width:0.7;stroke-linecap:round;stroke-linejoin:miter;stroke-miterlimit:5;stroke:#000000;stroke-opacity:0.4" d="M-3.8 -0.85L-3.7 -0.6" />
<path style="fill:none;stroke-width:0.7;stroke-linecap:round;stroke-linejoin:miter;stroke-miterlimit:5;stroke:#000000;stroke-opacity:0.4" d="M2.7 3.75Q3.25 3.75 3.4 3.55L3.5 3.25Q3.25 2.2 2.3 1.6" />
<path style="fill:none;stroke-width:0.7;stroke-linecap:round;stroke-linejoin:miter;stroke-miterlimit:5;stroke:#000000;stroke-opacity:0.4" d="M4.2 2.1Q4.05 0.5 3.6 -0.1L2.95 -0.9L2.8 -1.1L2.3 -1.65" />
<path style="fill:none;stroke-width:0.7;stroke-linecap:round;stroke-linejoin:miter;stroke-miterlimit:5;stroke:#000000;stroke-opacity:0.4" d="M4.2 2.1L3.45 0.9" />
<path style="fill:none;stroke-width:0.7;stroke-linecap:round;stroke-linejoin:miter;stroke-miterlimit:5;stroke:#000000;stroke-opacity:0.4" d="M-3.7 -0.6L-3.55 -0.15Q-3.25 0.45 -1.6 1.45Q-0.6 2 0.25 2.6L0.5 2.75L1.3 3.3Q2.05 3.9 2.7 3.75" />
<path style="fill:none;stroke-width:0.7;stroke-linecap:round;stroke-linejoin:miter;stroke-miterlimit:5;stroke:#000000;stroke-opacity:0.4" d="M3.5 3.25Q4.55 2.6 4.2 2.1" />
</g>
<g id="PathID_3407" transform="matrix(1, 0, 0, 1, 8.25, 3.85)">
<path style="fill:#191917;fill-opacity:1" d="M-4.55 -0.65Q-7.35 0.6 -8.25 -1.25Q-7.15 -0.55 -5.3 -1L-3.25 -1.55L-4.55 -0.65M-5.5 2Q-4.4 2.35 -3.3 1.15L-2.1 0.6Q-4.05 3.5 -5.5 2" />
<path style="fill:#313131;fill-opacity:1" d="M-3.3 -2.4L-3.25 -1.55L-5.3 -1Q-7.15 -0.55 -8.25 -1.25Q-6.5 -3.35 -3.3 -2.4M-2.85 -0.45L-2.1 0.6L-3.3 1.15Q-4.4 2.35 -5.5 2Q-5.1 0 -2.85 -0.45" />
<path style="fill:none;stroke-width:0.7;stroke-linecap:round;stroke-linejoin:round;stroke-miterlimit:3;stroke:#000000;stroke-opacity:0.4" d="M-3.3 -2.4Q-6.5 -3.35 -8.25 -1.25Q-7.35 0.6 -4.55 -0.65L-3.25 -1.55" />
<path style="fill:none;stroke-width:0.7;stroke-linecap:round;stroke-linejoin:round;stroke-miterlimit:3;stroke:#000000;stroke-opacity:0.4" d="M-2.85 -0.45Q-5.1 0 -5.5 2Q-4.05 3.5 -2.1 0.6" />
</g>
</svg>
