<?xml version="1.0" encoding="utf-8"?>
<svg version="1.1" id="Layer_1"
xmlns="http://www.w3.org/2000/svg"
xmlns:xlink="http://www.w3.org/1999/xlink"
width="24px" height="44px"
xml:space="preserve">
<g id="PathID_4458" transform="matrix(1, 0, 0, 1, 15.2, 24.8)">
<path style="fill:#4B3C39;fill-opacity:1" d="M0.1 -4L-0.65 -4.05L-2.1 -3.85Q-1.95 -5.95 -2.1 -7.85Q-1.55 -8.2 -0.8 -8.2L-0.05 -8.15Q0.2 -6.2 0.1 -4M0.55 8.05Q-1.25 8.05 -2.45 8.85Q-3.65 5.3 -3.1 1.85L-1.6 1.55L-0.5 1.65Q-0.65 5.4 0.55 8.05" />
<linearGradient
id="LinearGradID_997" gradientUnits="userSpaceOnUse" gradientTransform="matrix(0.00283813, -0.00489807, 0.00631714, 0.00364685, 1.15, -1.85)" spreadMethod ="pad" x1="-819.2" y1="0" x2="819.2" y2="0" >
<stop  offset="0" style="stop-color:#A1633C;stop-opacity:1" />
<stop  offset="1" style="stop-color:#FAB244;stop-opacity:1" />
</linearGradient>
<path style="fill:url(#LinearGradID_997) " d="M-8.1 -19.05Q-1.15 -15.9 -0.05 -8.15L-0.8 -8.2Q-1.55 -8.2 -2.1 -7.85Q-2.85 -14.45 -8.1 -19.05M-0.45 0.75L-0.5 1.65L-1.6 1.55L-3.1 1.85L-2.95 0.9Q-2.3 -1.6 -2.1 -3.85L-0.65 -4.05L0.1 -4Q0 -1.75 -0.45 0.75M6.95 13.7Q8.15 15.35 8.1 16.55Q0.9 15.7 -0.9 12.4L-2.45 8.85Q-1.25 8.05 0.55 8.05Q2.3 12.05 6.95 13.7" />
<path style="fill:#663C23;fill-opacity:1" d="M-3.25 1.9L-3.25 1.8L-2.95 0.9L-3.1 1.85L-3.25 1.9M-3.6 9.85L-2.45 8.85L-0.9 12.4Q0.9 15.7 8.1 16.55Q8.05 18.15 5.75 19Q-2.25 16.55 -3.6 9.85" />
<path style="fill:#201913;fill-opacity:1" d="M-3.25 1.9L-3.1 1.85Q-3.65 5.3 -2.45 8.85L-3.6 9.85Q-4.3 6.4 -3.25 1.9" />
<path style="fill:none;stroke-width:0.7;stroke-linecap:round;stroke-linejoin:miter;stroke-miterlimit:5;stroke:#000000;stroke-opacity:0.4" d="M-0.05 -8.15Q-1.15 -15.9 -8.1 -19.05Q-2.85 -14.45 -2.1 -7.85Q-1.95 -5.95 -2.1 -3.85" />
<path style="fill:none;stroke-width:0.7;stroke-linecap:round;stroke-linejoin:miter;stroke-miterlimit:5;stroke:#000000;stroke-opacity:0.4" d="M0.1 -4Q0.2 -6.2 -0.05 -8.15" />
<path style="fill:none;stroke-width:0.7;stroke-linecap:round;stroke-linejoin:miter;stroke-miterlimit:5;stroke:#000000;stroke-opacity:0.4" d="M-3.25 1.9L-3.25 1.8L-2.95 0.9Q-2.3 -1.6 -2.1 -3.85" />
<path style="fill:none;stroke-width:0.7;stroke-linecap:round;stroke-linejoin:miter;stroke-miterlimit:5;stroke:#000000;stroke-opacity:0.4" d="M-0.5 1.65L-0.45 0.75Q0 -1.75 0.1 -4" />
<path style="fill:none;stroke-width:0.7;stroke-linecap:round;stroke-linejoin:miter;stroke-miterlimit:5;stroke:#000000;stroke-opacity:0.4" d="M0.55 8.05Q-0.65 5.4 -0.5 1.65" />
<path style="fill:none;stroke-width:0.7;stroke-linecap:round;stroke-linejoin:miter;stroke-miterlimit:5;stroke:#000000;stroke-opacity:0.4" d="M8.1 16.55Q8.15 15.35 6.95 13.7Q2.3 12.05 0.55 8.05" />
<path style="fill:none;stroke-width:0.7;stroke-linecap:round;stroke-linejoin:miter;stroke-miterlimit:5;stroke:#000000;stroke-opacity:0.4" d="M-3.6 9.85Q-4.3 6.4 -3.25 1.9" />
<path style="fill:none;stroke-width:0.7;stroke-linecap:round;stroke-linejoin:miter;stroke-miterlimit:5;stroke:#000000;stroke-opacity:0.4" d="M8.1 16.55Q8.05 18.15 5.75 19Q-2.25 16.55 -3.6 9.85" />
</g>
<g id="PathID_4459" transform="matrix(1, 0, 0, 1, 15.2, 24.8)">
<path style="fill:#FFE3BC;fill-opacity:1" d="M-3.4 -14Q-7.5 -17.2 -11.3 -14.8Q-11.05 -18.15 -9.15 -18.45Q-12.95 -19.7 -15.15 -16.05Q-15.6 -21.35 -13.2 -23.1Q-9.35 -25.45 -7.15 -22Q-6.35 -25.05 -4.25 -24.75Q-5.7 -21.85 -4.95 -18.75L-4.85 -18.2Q-4.1 -20.55 -2.1 -19.65Q-4.15 -18.55 -3.4 -15.7L-3.4 -14M-4.85 -18.2L-4.95 -18.75" />
<path style="fill:none;stroke-width:0.7;stroke-linecap:round;stroke-linejoin:round;stroke-miterlimit:3;stroke:#000000;stroke-opacity:0.301961" d="M-3.4 -14Q-7.5 -17.2 -11.3 -14.8Q-11.05 -18.15 -9.15 -18.45Q-12.95 -19.7 -15.15 -16.05Q-15.6 -21.35 -13.2 -23.1Q-9.35 -25.45 -7.15 -22Q-6.35 -25.05 -4.25 -24.75Q-5.7 -21.85 -4.95 -18.75Q-4.1 -20.55 -2.1 -19.65Q-4.15 -18.55 -3.4 -15.7" />
<path style="fill:none;stroke-width:0.7;stroke-linecap:round;stroke-linejoin:round;stroke-miterlimit:3;stroke:#000000;stroke-opacity:0.301961" d="M-4.85 -18.2L-4.95 -18.75" />
</g>
</svg>
