<?xml version="1.0" encoding="utf-8"?>
<svg version="1.1" id="Layer_1"
xmlns="http://www.w3.org/2000/svg"
xmlns:xlink="http://www.w3.org/1999/xlink"
width="16px" height="7px"
xml:space="preserve">
<g id="PathID_2776" transform="matrix(1, 0, 0, 1, 15.7, -0.3)">
<path style="fill:#1CC2F6;fill-opacity:1" d="M-4.2 0.85Q-1.4 2 0.1 3.7Q-0.35 3.8 -0.5 4.55L-4.15 5.2Q-4.75 5.6 -5.4 4.65Q-7.55 6.35 -8.55 3.85Q-9.65 5.55 -11.9 4.8L-12.6 3.7Q-13.3 1.8 -15.55 2.1Q-14.4 1.3 -13.6 1.4Q-12.85 1.45 -11.95 2.15L-11 2.8Q-10.7 2.85 -10.35 2.1L-10.05 1.6Q-9.85 2.9 -8.9 2.85L-7.7 2.45Q-7.3 2.15 -6.3 3.2Q-4.5 3.95 -1.65 3.8Q-3.35 2.25 -4.95 1.45Q-6.2 1 -6.5 2.25Q-7.55 -0.45 -4.2 0.85" />
<path style="fill:#B9ECED;fill-opacity:1" d="M-9.7 1.05Q-9.45 0.75 -8.95 0.8Q-7.75 0.75 -6.5 2.25Q-6.2 1 -4.95 1.45Q-3.35 2.25 -1.65 3.8Q-4.5 3.95 -6.3 3.2Q-7.3 2.15 -7.7 2.45L-8.9 2.85Q-9.85 2.9 -10.05 1.6L-9.7 1.05" />
<path style="fill:#1395B9;fill-opacity:1" d="M-3.5 5.6Q-4.8 6 -5.25 5.6L-6.25 6.35Q-8.2 6.7 -8.65 4.7Q-8.7 5.25 -10 5.5Q-11.2 5.55 -11.9 4.8Q-9.65 5.55 -8.55 3.85Q-7.55 6.35 -5.4 4.65Q-4.75 5.6 -4.15 5.2L-0.5 4.55L-3.5 5.6" />
<path style="fill:none;stroke-width:0.7;stroke-linecap:round;stroke-linejoin:round;stroke-miterlimit:3;stroke:#005479;stroke-opacity:0.4" d="M-10.05 1.6L-10.35 2.1Q-10.7 2.85 -11 2.8L-11.95 2.15Q-12.85 1.45 -13.6 1.4Q-14.4 1.3 -15.55 2.1Q-13.3 1.8 -12.6 3.7L-11.9 4.8" />
<path style="fill:none;stroke-width:0.7;stroke-linecap:round;stroke-linejoin:round;stroke-miterlimit:3;stroke:#005479;stroke-opacity:0.4" d="M0.1 3.7Q-1.4 2 -4.2 0.85Q-7.55 -0.45 -6.5 2.25Q-7.75 0.75 -8.95 0.8Q-9.45 0.75 -9.7 1.05L-10.05 1.6" />
<path style="fill:none;stroke-width:0.7;stroke-linecap:round;stroke-linejoin:round;stroke-miterlimit:3;stroke:#005479;stroke-opacity:0.4" d="M-11.9 4.8Q-11.2 5.55 -10 5.5Q-8.7 5.25 -8.65 4.7Q-8.2 6.7 -6.25 6.35L-5.25 5.6Q-4.8 6 -3.5 5.6L-0.5 4.55" />
</g>
</svg>
