<?xml version="1.0" encoding="utf-8"?>
<svg version="1.1" id="Layer_1"
xmlns="http://www.w3.org/2000/svg"
xmlns:xlink="http://www.w3.org/1999/xlink"
width="10px" height="8px"
xml:space="preserve">
<g id="PathID_4270" transform="matrix(1, 0, 0, 1, 3.8, 4.15)">
<path style="fill:#121D33;fill-opacity:1" d="M1.9 -1.6L2.05 -1.35L2.35 -0.85L1.5 -0.05Q1.4 0.1 1.6 0.55L1.8 1.05L0.45 1Q-0.85 1.05 -0.95 1.6L-1.45 1.25L-1.7 1.1L-2.05 0.85Q-1.2 -0.9 0.9 -1.5L1.9 -1.65L1.9 -1.6" />
<path style="fill:#C2A010;fill-opacity:1" d="M-0.95 1.6Q-0.85 1.05 0.45 1L1.8 1.05L1.6 0.55Q1.4 0.1 1.5 -0.05L2.35 -0.85L2.4 -0.75L2.5 -0.6L3.2 0.05L3.25 0.1L3.45 0.2L4 0.45L4.85 0.75Q7.1 0.4 5.8 1.75L5.75 1.3L5.05 2.45Q4.4 1.3 3.15 1.6L4.5 2.7L3.55 3.1L1 2.95L-0.15 2.1L-0.7 1.75L-0.8 1.65L-0.95 1.6M5.75 1.3Q5.65 0.9 4.85 0.75L4 0.45M4.85 0.75Q5.65 0.9 5.75 1.3L5.8 1.75M3.15 1.6Q2.8 1.65 2.4 1.85Q2.8 1.65 3.15 1.6Q4.4 1.3 5.05 2.45" />
<path style="fill:#0E4F8E;fill-opacity:1" d="M-2.6 0.4Q-3.35 -0.3 -3.7 -1.1Q-4.1 -2.7 -3.2 -3.55Q-2.4 -4.4 -0.8 -4Q0.75 -3.6 1.35 -2.6L1.9 -1.65L0.9 -1.5Q-1.2 -0.9 -2.05 0.85L-2.6 0.4" />
<path style="fill:none;stroke-width:0.7;stroke-linecap:round;stroke-linejoin:round;stroke-miterlimit:3;stroke:#000000;stroke-opacity:0.301961" d="M-3.7 -1.1Q-3.35 -0.3 -2.6 0.4L-2.05 0.85L-1.7 1.1L-1.45 1.25L-0.95 1.6" />
<path style="fill:none;stroke-width:0.7;stroke-linecap:round;stroke-linejoin:round;stroke-miterlimit:3;stroke:#000000;stroke-opacity:0.301961" d="M2.4 -0.75L2.5 -0.6L3.2 0.05L3.25 0.1L3.45 0.2L4 0.45Q7.1 0.4 5.8 1.75L5.05 2.45L4.5 2.7L3.55 3.1L1 2.95L-0.15 2.1L-0.7 1.75L-0.8 1.65L-0.95 1.6" />
<path style="fill:none;stroke-width:0.7;stroke-linecap:round;stroke-linejoin:round;stroke-miterlimit:3;stroke:#000000;stroke-opacity:0.301961" d="M4 0.45L4.85 0.75Q5.65 0.9 5.75 1.3L5.8 1.75" />
<path style="fill:none;stroke-width:0.7;stroke-linecap:round;stroke-linejoin:round;stroke-miterlimit:3;stroke:#000000;stroke-opacity:0.301961" d="M5.05 2.45Q4.4 1.3 3.15 1.6Q2.8 1.65 2.4 1.85" />
</g>
</svg>
