<?xml version="1.0" encoding="utf-8"?>
<svg version="1.1" id="Layer_1"
xmlns="http://www.w3.org/2000/svg"
xmlns:xlink="http://www.w3.org/1999/xlink"
width="14px" height="16px"
xml:space="preserve">
<g id="PathID_3348" transform="matrix(1, 0, 0, 1, 6.95, 8.75)">
<radialGradient
id="RadialGradID_787" gradientUnits="userSpaceOnUse" gradientTransform="matrix(0.0122986, 0, 0, 0.0122986, 4.3, 0.35)" spreadMethod ="pad" cx="0" cy="0" r="819.2" fx="0" fy="0" >
<stop  offset="0.447059"  style="stop-color:#76242A;stop-opacity:1" />
<stop  offset="0.815686"  style="stop-color:#291516;stop-opacity:1" />
</radialGradient>
<path style="fill:url(#RadialGradID_787) " d="M5.9 2.05Q4.75 5.3 0.75 4.7Q-3.3 4.1 -4.85 1.55Q-6.35 -1.05 -6.25 -3.2L-5.4 -4.5Q-4.2 -5.95 -2.6 -6.5L0 -6.8Q2.85 -6.65 4.8 -4.55L5.55 -3.65L6.2 -2.5Q6.75 -0.3 5.9 2.05" />
<radialGradient
id="RadialGradID_788" gradientUnits="userSpaceOnUse" gradientTransform="matrix(0.0127716, 0, 0, 0.0127716, 5.15, 1.8)" spreadMethod ="pad" cx="0" cy="0" r="819.2" fx="0" fy="0" >
<stop  offset="0.447059"  style="stop-color:#2F1015;stop-opacity:1" />
<stop  offset="0.815686"  style="stop-color:#0E0807;stop-opacity:1" />
</radialGradient>
<path style="fill:url(#RadialGradID_788) " d="M6.2 -2.5Q6.8 -1.15 6.8 0.4L6.7 1.7Q6.3 3.7 4.8 5.15Q2.85 7 0 6.85Q-1.8 6.75 -3.25 5.9L-4.85 4.55Q-6.75 2.8 -6.8 0Q-6.85 -1.95 -6.25 -3.2Q-6.35 -1.05 -4.85 1.55Q-3.3 4.1 0.75 4.7Q4.75 5.3 5.9 2.05Q6.75 -0.3 6.2 -2.5" />
<path style="fill:none;stroke-width:0.7;stroke-linecap:round;stroke-linejoin:miter;stroke-miterlimit:5;stroke:#000000;stroke-opacity:0.4" d="M5.55 -3.65L6.2 -2.5Q6.8 -1.15 6.8 0.4L6.7 1.7Q6.3 3.7 4.8 5.15Q2.85 7 0 6.85Q-1.8 6.75 -3.25 5.9L-4.85 4.55Q-6.75 2.8 -6.8 0Q-6.85 -1.95 -6.25 -3.2L-5.4 -4.5Q-4.2 -5.95 -2.6 -6.5" />
</g>
<g id="PathID_3349" transform="matrix(1, 0, 0, 1, 6.95, 8.75)">
<path style="fill:#B02A33;fill-opacity:1" d="M-6.8 -0.05Q-6.95 -3.6 -4.4 -5.6L-4.3 -5.55L-3.9 -5.3L-3.5 -3.95Q-4.35 -0.6 -6.8 -0.05" />
</g>
<g id="PathID_3350" transform="matrix(1, 0, 0, 1, 6.95, 8.75)">
<path style="fill:#B02A33;fill-opacity:1" d="M-2.25 -6Q-1.45 -6.1 -1.05 -6.75Q-0.7 -7.2 -0.7 -7.65Q-0.7 -8 -1.05 -8.75L0.3 -8.35Q1.25 -7.45 0.3 -6.1Q-0.55 -4.85 -1.65 -4.65Q-3.6 -4.3 -4.25 -5.35Q-4.45 -5.6 -3.7 -6.4Q-3.1 -5.9 -2.25 -6" />
<path style="fill:#1C2A2B;fill-opacity:1" d="M-3.7 -6.4L-1.05 -8.75Q-0.7 -8 -0.7 -7.65Q-0.7 -7.2 -1.05 -6.75Q-1.45 -6.1 -2.25 -6Q-3.1 -5.9 -3.7 -6.4" />
</g>
</svg>
