<?xml version="1.0" encoding="utf-8"?>
<svg version="1.1" id="Layer_1"
xmlns="http://www.w3.org/2000/svg"
xmlns:xlink="http://www.w3.org/1999/xlink"
width="21px" height="20px"
xml:space="preserve">
<g id="PathID_3309" transform="matrix(1, 0, 0, 1, 10.6, 9.3)">
<path style="fill:#508198;fill-opacity:1" d="M8.05 -4.95Q7.25 -4.4 6 -4.05L2.95 -3.6Q-0.05 -3.9 -1.5 -5.2Q-2.35 -5.95 -2.7 -7.05L1.15 -8.65Q5.3 -10.15 6.5 -8.15Q7.5 -8.55 8.55 -6.2Q9.65 -3.9 9.7 -2.15L9.75 0.25Q9.55 -4.25 8.05 -4.95M9.75 0.65L9.85 3.5Q10 7.4 5.5 8.85L3.7 9.35L-2.45 9.65L-6.5 8.35L-8.35 7.2Q-10.85 5.35 -10.4 3.4Q-9.95 1.4 -8.75 -0.15Q-10.2 3.75 -8 5.9L-7.3 6.5Q-6.15 7.3 -4.35 7.8Q1.25 8.6 4.55 7.85L5.4 7.6Q9 6.4 9.4 2.9Q9.6 1.15 9.75 0.65" />
<path style="fill:#7AD0DF;fill-opacity:1" d="M9.4 2.9Q9 6.4 5.4 7.6L4.55 7.85Q1.25 8.6 -4.35 7.8Q-6.15 7.3 -7.3 6.5L-8 5.9Q-10.2 3.75 -8.75 -0.15Q-5.1 -5.45 -2.7 -7.05Q-2.35 -5.95 -1.5 -5.2Q-0.05 -3.9 2.95 -3.6L6 -4.05Q7.25 -4.4 8.05 -4.95Q9.55 -4.25 9.75 0.25L9.75 0.65Q9.6 1.15 9.4 2.9" />
<path style="fill:none;stroke-width:0.7;stroke-linecap:round;stroke-linejoin:miter;stroke-miterlimit:5;stroke:#000000;stroke-opacity:0.4" d="M9.75 0.25L9.7 -2.15Q9.65 -3.9 8.55 -6.2Q7.5 -8.55 6.5 -8.15" />
<path style="fill:none;stroke-width:0.7;stroke-linecap:round;stroke-linejoin:miter;stroke-miterlimit:5;stroke:#000000;stroke-opacity:0.4" d="M1.15 -8.65L-2.7 -7.05" />
<path style="fill:none;stroke-width:0.7;stroke-linecap:round;stroke-linejoin:miter;stroke-miterlimit:5;stroke:#000000;stroke-opacity:0.4" d="M9.75 0.25L9.75 0.65L9.85 3.5Q10 7.4 5.5 8.85L3.7 9.35L-2.45 9.65L-6.5 8.35L-8.35 7.2Q-10.85 5.35 -10.4 3.4Q-9.95 1.4 -8.75 -0.15Q-5.1 -5.45 -2.7 -7.05" />
</g>
</svg>
