<?xml version="1.0" encoding="utf-8"?>
<svg version="1.1" id="Layer_1"
xmlns="http://www.w3.org/2000/svg"
xmlns:xlink="http://www.w3.org/1999/xlink"
width="10px" height="9px"
xml:space="preserve">
<g id="PathID_4070" transform="matrix(1, 0, 0, 1, 5.4, 4.75)">
<path style="fill:#9AC0D7;fill-opacity:1" d="M1.95 2.6L0 1.15L-0.2 1Q-2.95 0.3 -3.7 -0.6L-3.8 -0.85Q-4.15 -2.25 -3.5 -3.1Q-2.2 -4 -0.9 -3.7L-0.05 -3.45L0 -3.4L1.5 -2.3L1.9 -1.8L2.5 -1.15Q2.6 -1.1 2.85 -1.3Q3.05 -2.4 3.45 -2.1L4 -1.6L4 -1.3Q4.4 -0.95 4.2 0Q3.25 -0.3 2.7 1.1L4.2 0.8Q2.85 3.05 1.95 2.6M4 -1.3Q3.3 -1.85 3.05 -1.55L2.85 -1.3L3.05 -1.55Q3.3 -1.85 4 -1.3M2.7 1.1Q3.25 -0.3 4.2 0" />
<path style="fill:#798EA1;fill-opacity:1" d="M4.2 0.8Q3.9 2.8 3.35 3.35L2.7 3.75Q2.05 3.9 1.3 3.3L0 2.45L-0.6 2.05L-2.15 1.05L-3.55 -0.15L-3.7 -0.6Q-2.95 0.3 -0.2 1L0 1.15L1.95 2.6Q2.85 3.05 4.2 0.8" />
<path style="fill:none;stroke-width:0.7;stroke-linecap:round;stroke-linejoin:round;stroke-miterlimit:3;stroke:#000000;stroke-opacity:0.301961" d="M2.5 -1.15Q2.6 -1.1 2.85 -1.3Q3.05 -2.4 3.45 -2.1L4 -1.6L4 -1.3Q4.4 -0.95 4.2 0L4.2 0.8Q3.9 2.8 3.35 3.35L2.7 3.75Q2.05 3.9 1.3 3.3L0 2.45L-0.6 2.05L-2.15 1.05L-3.55 -0.15L-3.7 -0.6L-3.8 -0.85" />
<path style="fill:none;stroke-width:0.7;stroke-linecap:round;stroke-linejoin:round;stroke-miterlimit:3;stroke:#000000;stroke-opacity:0.301961" d="M2.85 -1.3L3.05 -1.55Q3.3 -1.85 4 -1.3" />
<path style="fill:none;stroke-width:0.7;stroke-linecap:round;stroke-linejoin:round;stroke-miterlimit:3;stroke:#000000;stroke-opacity:0.301961" d="M4.2 0Q3.25 -0.3 2.7 1.1" />
</g>
<g id="PathID_4071" transform="matrix(1, 0, 0, 1, 5.4, 4.75)">
<path style="fill:#F6EFE7;fill-opacity:1" d="M-1.9 1.4Q-4.3 0.65 -5.25 -1.2Q-5.2 -2.9 -4.65 -3.6Q-2.95 -5.65 0.35 -4.05Q1.65 -3.8 2.85 -2.3Q0.6 -1.45 0 -2.1L0.45 -0.4L-1.25 -0.25Q-0.8 1.8 -1.15 2.15L-1.9 1.4" />
<path style="fill:none;stroke-width:0.7;stroke-linecap:round;stroke-linejoin:round;stroke-miterlimit:3;stroke:#367FAA;stroke-opacity:0.458824" d="M-1.15 2.15Q-0.8 1.8 -1.25 -0.25L0.45 -0.4L0 -2.1Q0.6 -1.45 2.85 -2.3" />
<path style="fill:none;stroke-width:0.7;stroke-linecap:round;stroke-linejoin:round;stroke-miterlimit:3;stroke:#000000;stroke-opacity:0.4" d="M2.85 -2.3Q1.65 -3.8 0.35 -4.05" />
<path style="fill:none;stroke-width:0.7;stroke-linecap:round;stroke-linejoin:round;stroke-miterlimit:3;stroke:#000000;stroke-opacity:0.4" d="M-5.25 -1.2Q-4.3 0.65 -1.9 1.4L-1.15 2.15" />
</g>
</svg>
