<?xml version="1.0" encoding="utf-8"?>
<svg version="1.1" id="Layer_1"
xmlns="http://www.w3.org/2000/svg"
xmlns:xlink="http://www.w3.org/1999/xlink"
width="10px" height="5px"
xml:space="preserve">
<g id="PathID_2988" transform="matrix(1, 0, 0, 1, 4.6, 2)">
<path style="fill:#0F0F0F;fill-opacity:1" d="M3.45 0.15L2.85 -0.35L0.85 0.15L-0.35 0.75Q-0.55 1.25 0.3 1.45L1.45 1.55Q2.05 0.9 0.95 0.4L1.1 1.85L0.35 1.9L0.2 1.9L-1.6 1.4L-3.5 0.55L-4.2 0.05Q-4.7 -0.9 -4 -1.35Q-3.1 -1.95 -1.7 -1.8L1 -1.25L2.95 -0.6L3.6 -0.45Q4.05 -0.45 4.3 0.2Q4.55 0.8 3.9 1.05L2.95 1.4Q3.8 1.05 3.45 0.15M0.95 0.4Q2.25 0.5 2.45 0.9L1.6 1.85L1.1 1.85L1.45 1.55" />
<path style="fill:#313131;fill-opacity:1" d="M1.45 1.55L0.3 1.45Q-0.55 1.25 -0.35 0.75L0.85 0.15L2.85 -0.35L3.45 0.15Q3.8 1.05 2.95 1.4L1.6 1.85L2.45 0.9Q2.25 0.5 0.95 0.4Q2.05 0.9 1.45 1.55" />
<path style="fill:none;stroke-width:0.7;stroke-linecap:round;stroke-linejoin:miter;stroke-miterlimit:5;stroke:#495366;stroke-opacity:0.4" d="M2.95 1.4L3.9 1.05Q4.55 0.8 4.3 0.2Q4.05 -0.45 3.6 -0.45L2.95 -0.6L1 -1.25L-1.7 -1.8Q-3.1 -1.95 -4 -1.35Q-4.7 -0.9 -4.2 0.05L-3.5 0.55L-1.6 1.4L0.2 1.9L0.35 1.9L1.1 1.85L1.45 1.55" />
<path style="fill:none;stroke-width:0.7;stroke-linecap:round;stroke-linejoin:miter;stroke-miterlimit:5;stroke:#495366;stroke-opacity:0.4" d="M2.85 -0.35L3.45 0.15Q3.8 1.05 2.95 1.4L1.6 1.85L1.1 1.85" />
<path style="fill:none;stroke-width:0.7;stroke-linecap:round;stroke-linejoin:miter;stroke-miterlimit:5;stroke:#495366;stroke-opacity:0.4" d="M0.95 0.4Q2.05 0.9 1.45 1.55" />
</g>
</svg>
