<?xml version="1.0" encoding="utf-8"?>
<svg version="1.1" id="Layer_1"
xmlns="http://www.w3.org/2000/svg"
xmlns:xlink="http://www.w3.org/1999/xlink"
width="9px" height="8px"
xml:space="preserve">
<g id="PathID_2992" transform="matrix(1, 0, 0, 1, 3.9, 3.8)">
<path style="fill:#323232;fill-opacity:1" d="M-0.1 0.75Q0.25 -0.95 1.2 -2.45L1.5 -2.3L2.15 -1.5L2.1 -1.2Q1.6 0.9 1.8 2.4L-0.1 0.75M-3.7 -0.6L-3.8 -0.85Q-4.15 -2.25 -3.5 -3.1Q-2.2 -4 -0.9 -3.7L-0.35 -3.55Q-2.05 -1.55 -2.1 0.35Q-3.2 -0.05 -3.7 -0.6" />
<path style="fill:#8D6A43;fill-opacity:1" d="M1.5 -2.3L1.2 -2.45L1.25 -2.55L1.5 -2.3" />
<path style="fill:#F9ECDC;fill-opacity:1" d="M-0.1 0.75L-2.1 0.35Q-2.05 -1.55 -0.35 -3.55Q0.6 -3.25 1.25 -2.55L1.2 -2.45Q0.25 -0.95 -0.1 0.75M4.1 -1.15Q3.4 -2 3.05 -1.55L2.85 -1.3L3.05 -1.55Q3.4 -2 4.1 -1.15L4.2 0L4.2 0.8L3.4 2Q2.6 2.95 1.95 2.6L1.8 2.4Q1.6 0.9 2.1 -1.2L2.15 -1.5L2.5 -1.15L2.75 -1.2L2.85 -1.3Q3.05 -2.4 3.45 -2.1L4 -1.6L4 -1.3L4.05 -1.25L4.1 -1.15M2.9 0.75L3.35 0.15L4.2 0L3.35 0.15L2.9 0.75" />
<path style="fill:#78583A;fill-opacity:1" d="M4.05 -1.25L4.15 -1.1L4.1 -1.15L4.05 -1.25" />
<path style="fill:#97948F;fill-opacity:1" d="M-0.25 2.25L-1.6 1.45L-2.05 1.2L-2.1 0.35L-0.1 0.75L-0.25 2.25M1.8 2.4L1.95 2.6Q2.6 2.95 3.4 2L4.2 0.8L3.9 2.3L3.35 3.35L2.7 3.75L2.15 3.75Q1.85 3.15 1.8 2.4" />
<path style="fill:#1D1D1D;fill-opacity:1" d="M1.8 2.4Q1.85 3.15 2.15 3.75L1.3 3.3L-0.25 2.25L-0.1 0.75L1.8 2.4M-2.1 0.35L-2.05 1.2L-3.55 -0.15L-3.7 -0.6Q-3.2 -0.05 -2.1 0.35" />
<path style="fill:none;stroke-width:0.7;stroke-linecap:round;stroke-linejoin:round;stroke-miterlimit:3;stroke:#000000;stroke-opacity:0.301961" d="M1.25 -2.55L1.2 -2.45" />
<path style="fill:none;stroke-width:0.7;stroke-linecap:round;stroke-linejoin:round;stroke-miterlimit:3;stroke:#000000;stroke-opacity:0.301961" d="M-0.35 -3.55Q-2.05 -1.55 -2.1 0.35" />
<path style="fill:none;stroke-width:0.7;stroke-linecap:round;stroke-linejoin:round;stroke-miterlimit:3;stroke:#000000;stroke-opacity:0.301961" d="M-0.1 0.75Q0.25 -0.95 1.2 -2.45" />
<path style="fill:none;stroke-width:0.7;stroke-linecap:round;stroke-linejoin:round;stroke-miterlimit:3;stroke:#000000;stroke-opacity:0.301961" d="M2.5 -1.15L2.75 -1.2L2.85 -1.3Q3.05 -2.4 3.45 -2.1L4 -1.6L4 -1.3L4.05 -1.25L4.15 -1.1L4.1 -1.15L4.2 0L4.2 0.8L3.9 2.3L3.35 3.35L2.7 3.75L2.15 3.75L1.3 3.3L-0.25 2.25L-1.6 1.45L-2.05 1.2L-3.55 -0.15L-3.7 -0.6L-3.8 -0.85" />
<path style="fill:none;stroke-width:0.7;stroke-linecap:round;stroke-linejoin:round;stroke-miterlimit:3;stroke:#000000;stroke-opacity:0.301961" d="M2.15 -1.5L2.1 -1.2Q1.6 0.9 1.8 2.4" />
<path style="fill:none;stroke-width:0.7;stroke-linecap:round;stroke-linejoin:round;stroke-miterlimit:3;stroke:#000000;stroke-opacity:0.301961" d="M4.1 -1.15Q3.4 -2 3.05 -1.55L2.85 -1.3" />
<path style="fill:none;stroke-width:0.7;stroke-linecap:round;stroke-linejoin:round;stroke-miterlimit:3;stroke:#000000;stroke-opacity:0.301961" d="M4.1 -1.15L4.05 -1.25" />
<path style="fill:none;stroke-width:0.7;stroke-linecap:round;stroke-linejoin:round;stroke-miterlimit:3;stroke:#000000;stroke-opacity:0.301961" d="M4.2 0L3.35 0.15L2.9 0.75" />
<path style="fill:none;stroke-width:0.7;stroke-linecap:round;stroke-linejoin:round;stroke-miterlimit:3;stroke:#000000;stroke-opacity:0.301961" d="M1.8 2.4Q1.85 3.15 2.15 3.75" />
<path style="fill:none;stroke-width:0.7;stroke-linecap:round;stroke-linejoin:round;stroke-miterlimit:3;stroke:#000000;stroke-opacity:0.301961" d="M-2.1 0.35L-2.05 1.2" />
<path style="fill:none;stroke-width:0.7;stroke-linecap:round;stroke-linejoin:round;stroke-miterlimit:3;stroke:#000000;stroke-opacity:0.301961" d="M-0.25 2.25L-0.1 0.75" />
</g>
</svg>
