<?xml version="1.0" encoding="utf-8"?>
<svg version="1.1" id="Layer_1"
xmlns="http://www.w3.org/2000/svg"
xmlns:xlink="http://www.w3.org/1999/xlink"
width="7px" height="5px"
xml:space="preserve">
<g id="PathID_4002" transform="matrix(1, 0, 0, 1, 2.15, 2.6)">
<path style="fill:#FFFFFF;fill-opacity:1" d="M-0.7 -0.95L-0.45 -1.7L1.45 -0.45L1.35 -0.25L1.2 -0.15L1.1 -0.05L0.55 0.2L0.4 0.2Q-0.05 0.2 -0.4 -0.15L-0.65 -0.6L-0.7 -0.8L-0.7 -0.95" />
<path style="fill:#000000;fill-opacity:0.4" d="M3.05 0.6L2.35 1L1.55 1.5L1.75 1.35L2.15 0.6L2.2 0L3.05 0.6M-1.85 -1.05L-1.95 -2.6L-0.45 -1.7L-1.55 -1.3L-1.75 -1.15L-1.7 -1.2L-1.75 -1.15L-1.55 -1.3L-1.85 -1.05" />
<radialGradient
id="RadialGradID_910" gradientUnits="userSpaceOnUse" gradientTransform="matrix(0.00396729, 0, 0, 0.00396729, 0.45, -0.5)" spreadMethod ="pad" cx="0" cy="0" r="819.2" fx="0" fy="0" >
<stop  offset="0.180392"  style="stop-color:#5C769B;stop-opacity:1" />
<stop  offset="0.427451"  style="stop-color:#6388DE;stop-opacity:1" />
<stop  offset="0.792157"  style="stop-color:#9CBBFF;stop-opacity:1" />
</radialGradient>
<path style="fill:url(#RadialGradID_910) " d="M2.15 0.6L1.75 1.35L1.55 1.5L1.5 1.45L1.15 1.65L0.25 1.8Q-0.65 1.8 -1.3 1.15Q-1.9 0.5 -1.9 -0.35L-1.9 -0.5L-0.7 -0.8L-0.65 -0.6L-0.4 -0.15Q-0.05 0.2 0.4 0.2L0.55 0.2L1.1 -0.05L1.2 -0.15L1.35 -0.25L2.15 0.6M-1.75 -1.15L-1.8 -1.05L-1.85 -1.05L-1.75 -1.15" />
<path style="fill:#E2E9FB;fill-opacity:1" d="M-1.8 -1.05L-1.9 -0.55L-1.9 -0.5L-1.9 -0.35Q-1.9 0.5 -1.3 1.15Q-0.65 1.8 0.25 1.8L1.15 1.65L1.5 1.45L1.55 1.5L1.45 1.65L0.9 2L0 2.15Q-0.9 2.15 -1.55 1.5Q-2.15 0.85 -2.15 0L-2.15 -0.2L-2.1 -0.4L-2.05 -0.7L-1.85 -1.05L-1.8 -1.05" />
<path style="fill:#1D130E;fill-opacity:1" d="M2.2 0L2.15 0.6L1.35 -0.25L1.45 -0.45L2.2 0M-1.9 -0.55L-1.8 -1.05L-1.75 -1.15L-1.7 -1.2L-1.55 -1.3L-0.45 -1.7L-0.7 -0.95L-0.7 -0.8L-1.9 -0.5L-1.9 -0.55" />
<path style="fill:none;stroke-width:0.7;stroke-linecap:round;stroke-linejoin:round;stroke-miterlimit:3;stroke:#000000;stroke-opacity:0.301961" d="M1.45 -0.45L-0.45 -1.7" />
<path style="fill:none;stroke-width:0.7;stroke-linecap:round;stroke-linejoin:round;stroke-miterlimit:3;stroke:#000000;stroke-opacity:0.301961" d="M1.55 1.5L1.75 1.35L2.15 0.6" />
<path style="fill:none;stroke-width:0.7;stroke-linecap:round;stroke-linejoin:round;stroke-miterlimit:3;stroke:#000000;stroke-opacity:0.301961" d="M2.15 0.6L2.2 0L1.45 -0.45" />
<path style="fill:none;stroke-width:0.7;stroke-linecap:round;stroke-linejoin:round;stroke-miterlimit:3;stroke:#000000;stroke-opacity:0.301961" d="M1.55 1.5L1.45 1.65L0.9 2L0 2.15Q-0.9 2.15 -1.55 1.5Q-2.15 0.85 -2.15 0L-2.15 -0.2L-2.1 -0.4L-2.05 -0.7L-1.85 -1.05" />
<path style="fill:none;stroke-width:0.7;stroke-linecap:round;stroke-linejoin:round;stroke-miterlimit:3;stroke:#000000;stroke-opacity:0.301961" d="M-1.95 -2.6L-0.45 -1.7L-1.55 -1.3L-1.7 -1.2L-1.75 -1.15L-1.8 -1.05" />
<path style="fill:none;stroke-width:0.7;stroke-linecap:round;stroke-linejoin:round;stroke-miterlimit:3;stroke:#000000;stroke-opacity:0.301961" d="M3.05 0.6Q4.25 0.5 3.9 -0.6" />
<path style="fill:none;stroke-width:0.7;stroke-linecap:round;stroke-linejoin:round;stroke-miterlimit:3;stroke:#000000;stroke-opacity:0.301961" d="M2.2 0L3.05 0.6" />
<path style="fill:none;stroke-width:0.7;stroke-linecap:round;stroke-linejoin:round;stroke-miterlimit:3;stroke:#000000;stroke-opacity:0.301961" d="M-1.85 -1.05L-1.75 -1.15L-1.55 -1.3" />
</g>
<g id="PathID_4003" transform="matrix(1, 0, 0, 1, 2.15, 2.6)">
<path style="fill:#000000;fill-opacity:1" d="M0.2 1.65L-0.55 1.25L-0.8 0.45L-0.55 -0.45Q-0.15 0 0.65 0L1.15 -0.05L1.15 0.6L0.9 1.25Q0.65 1.65 0.2 1.65" />
</g>
<g id="PathID_4004" transform="matrix(1, 0, 0, 1, 2.15, 2.6)">
<path style="fill:#FFFFFF;fill-opacity:1" d="M-1.15 0.8L-1.55 0.95L-1.95 0.8L-2.1 0.4L-1.95 0L-1.55 -0.15L-1.15 0L-1 0.4L-1.15 0.8" />
</g>
</svg>
