<?xml version="1.0" encoding="utf-8"?>
<svg version="1.1" id="Layer_1"
xmlns="http://www.w3.org/2000/svg"
xmlns:xlink="http://www.w3.org/1999/xlink"
width="18px" height="14px"
xml:space="preserve">
<g id="PathID_4278" transform="matrix(1, 0, 0, 1, 7.2, 7.15)">
<path style="fill:#2979C6;fill-opacity:1" d="M-4.75 2L-5 2L-6.5 1.8L-6.95 1.6L-7.05 0.2L-6.55 -2.25L-6.2 -2.1L-6.25 -3.2L-5.35 -4.65L-4.3 -5.65Q-3.5 -6.3 -0.95 -6.75L0 -6.8Q1.65 -6.7 3 -5.95L5.55 -3.65Q6.85 -2.1 7.05 0.9L7 3.6Q-1.4 5 -4.75 2" />
<path style="fill:#0E4F8E;fill-opacity:1" d="M-6.25 -3.2L-6.2 -2.1L-6.55 -2.25L-6.25 -3.2M-6.95 1.6L-6.5 1.8L-5 2L-4.75 2Q-1.4 5 7 3.6L7.45 4.65Q8.25 5.65 10.65 6.65L6.25 6.7L1.15 6.6Q-2.75 6.3 -4.5 5.45Q-6.05 4.7 -6.7 2.65L-6.95 1.6" />
<path style="fill:none;stroke-width:0.7;stroke-linecap:round;stroke-linejoin:miter;stroke-miterlimit:5;stroke:#000000;stroke-opacity:0.4" d="M-0.95 -6.75Q-3.5 -6.3 -4.3 -5.65L-5.35 -4.65L-6.25 -3.2" />
<path style="fill:none;stroke-width:0.7;stroke-linecap:round;stroke-linejoin:miter;stroke-miterlimit:5;stroke:#000000;stroke-opacity:0.4" d="M-6.55 -2.25L-7.05 0.2L-6.95 1.6" />
<path style="fill:none;stroke-width:0.7;stroke-linecap:round;stroke-linejoin:miter;stroke-miterlimit:5;stroke:#000000;stroke-opacity:0.4" d="M1.15 6.6Q-2.75 6.3 -4.5 5.45Q-6.05 4.7 -6.7 2.65L-6.95 1.6" />
<path style="fill:none;stroke-width:0.7;stroke-linecap:round;stroke-linejoin:miter;stroke-miterlimit:5;stroke:#000000;stroke-opacity:0.4" d="M-6.55 -2.25L-6.25 -3.2" />
</g>
<g id="PathID_4279" transform="matrix(1, 0, 0, 1, 7.2, 7.15)">
<radialGradient
id="RadialGradID_923" gradientUnits="userSpaceOnUse" gradientTransform="matrix(0.00682068, 0, 0, 0.00682068, -1.65, -1.85)" spreadMethod ="pad" cx="0" cy="0" r="819.2" fx="0" fy="0" >
<stop  offset="0.0509804"  style="stop-color:#79B6F0;stop-opacity:1" />
<stop  offset="0.984314"  style="stop-color:#79B6F0;stop-opacity:0" />
</radialGradient>
<path style="fill:url(#RadialGradID_923) " d="M3.6 -1.85Q3.6 0.3 2.05 1.85Q0.55 3.4 -1.65 3.4Q-3.85 3.4 -5.4 1.85Q-6.95 0.3 -6.95 -1.9Q-6.95 -4.1 -5.4 -5.65Q-3.85 -7.15 -1.65 -7.15Q0.55 -7.15 2.05 -5.65Q3.6 -4.1 3.6 -1.85" />
</g>
<g id="PathID_4280" transform="matrix(1, 0, 0, 1, 7.2, 7.15)">
<path style="fill:#16233F;fill-opacity:1" d="M-4.75 1.9Q-5.65 1.05 -6 -1.2L-6.1 -2.15L-5.55 -2.1Q-4.6 -2.1 -4.05 -2.7Q-3.5 -3.25 -3.5 -4Q-3.5 -5 -4.2 -5.7Q-3.4 -6.35 -2.5 -6.55L-0.85 -6.8L-0.8 -6.75Q0.3 -5.15 0.3 -3.8Q0.3 -1.15 -1.1 0.4Q-2.4 1.9 -4.65 1.95L-4.75 1.9" />
<path style="fill:#0E1627;fill-opacity:1" d="M-6.1 -2.15L-6 -1.2Q-5.65 1.05 -4.75 1.9L-4.65 1.95L-4.9 1.95L-6.4 1.75L-6.85 1.55L-6.9 1.35L-6.95 0.15L-6.45 -2.3L-6.1 -2.15" />
</g>
</svg>
