<?xml version="1.0" encoding="utf-8"?>
<svg version="1.1" id="Layer_1"
xmlns="http://www.w3.org/2000/svg"
xmlns:xlink="http://www.w3.org/1999/xlink"
width="25px" height="25px"
xml:space="preserve">
<g id="PathID_3244" transform="matrix(1, 0, 0, 1, 12.35, 12.85)">
<path style="fill:#2A2311;fill-opacity:1" d="M4.9 -0.3Q3.95 1.7 2.65 2.65Q1.3 3.55 -1.25 3.05Q-3.85 2.5 -4.1 -0.4Q-4.35 -3.3 -1.2 -6.05Q1.95 -8.75 5.75 -8.55L6.5 -7.9Q8.35 -6 9 -4.35Q6.35 -5.1 4.9 -0.3" />
<path style="fill:#884B38;fill-opacity:1" d="M-0.15 -8.3L2.05 -9.75Q4.1 -9.8 5.75 -8.55Q1.95 -8.75 -1.2 -6.05Q-4.35 -3.3 -4.1 -0.4Q-3.85 2.5 -1.25 3.05Q1.3 3.55 2.65 2.65Q3.95 1.7 4.9 -0.3Q6.35 -5.1 9 -4.35L9.7 -2.85Q10.15 -1.9 10.85 -1.5L11.65 -1L11.9 -0.7L10.75 0.65Q9.1 2.2 6.4 3.55Q3.65 4.85 1.8 4.9L-2.3 4.7Q-4.45 4.45 -7.95 3.2L-6.35 1.75L-8.1 1.2Q-7.15 0.8 -6.85 0.2Q-7.15 -0.25 -7 -2.7Q-6.9 -5.15 -6.15 -6.2L-4.55 -7.95Q-2.85 -9.7 -3.25 -12.7Q-1.6 -11.15 -1.95 -9.75L-2.45 -8L-1.3 -9.85Q-0.45 -11.3 2.8 -11.35L2.75 -11.3Q-0.05 -9.3 -0.15 -8.3" />
<path style="fill:#56271B;fill-opacity:1" d="M0.4 7.2L-0.75 6.6L-4.15 6.15L-4.9 6.15Q-6.15 5.45 -8.4 7.05Q-8.75 5.5 -8.15 4.9Q-10 5.4 -11.45 3.2Q-10.35 3.05 -9.1 2.5Q-10.5 2.6 -10.8 0.95Q-9.75 1.25 -8.75 0.55Q-8.95 -3.2 -6.15 -6.2Q-6.9 -5.15 -7 -2.7Q-7.15 -0.25 -6.85 0.2Q-7.15 0.8 -8.1 1.2L-6.35 1.75L-7.95 3.2Q-4.45 4.45 -2.3 4.7L1.8 4.9Q3.65 4.85 6.4 3.55Q9.1 2.2 10.75 0.65L11.9 -0.7L12.1 0.7Q11.95 3.2 9 5.1L6.25 6.75L4.7 6.55L3.05 6.5L0.4 7.2M-2.45 -8L-1.95 -9.75Q-1.6 -11.15 -3.25 -12.7Q-0.75 -11.15 -1.3 -9.85L-2.45 -8M2.75 -11.3Q2 -10.4 2.05 -9.75L-0.15 -8.3Q-0.05 -9.3 2.75 -11.3" />
<path style="fill:#8E695B;fill-opacity:1" d="M3.05 6.5L4.7 6.55L6.25 6.75L4.7 7.55Q3.35 8.1 1.45 7.55L0.4 7.2L3.05 6.5" />
<path style="fill:none;stroke-width:0.7;stroke-linecap:round;stroke-linejoin:miter;stroke-miterlimit:5;stroke:#000000;stroke-opacity:0.4" d="M5.75 -8.55L6.5 -7.9Q8.35 -6 9 -4.35L9.7 -2.85Q10.15 -1.9 10.85 -1.5L11.65 -1L11.9 -0.7L12.1 0.7Q11.95 3.2 9 5.1L6.25 6.75L4.7 7.55" />
<path style="fill:none;stroke-width:0.7;stroke-linecap:round;stroke-linejoin:miter;stroke-miterlimit:5;stroke:#000000;stroke-opacity:0.4" d="M-4.9 6.15Q-6.15 5.45 -8.4 7.05Q-8.75 5.5 -8.15 4.9Q-10 5.4 -11.45 3.2Q-10.35 3.05 -9.1 2.5Q-10.5 2.6 -10.8 0.95Q-9.75 1.25 -8.75 0.55Q-8.95 -3.2 -6.15 -6.2L-4.55 -7.95Q-2.85 -9.7 -3.25 -12.7Q-0.75 -11.15 -1.3 -9.85Q-0.45 -11.3 2.8 -11.35L2.75 -11.3Q2 -10.4 2.05 -9.75Q4.1 -9.8 5.75 -8.55" />
</g>
<g id="PathID_3245" transform="matrix(1, 0, 0, 1, 12.35, 12.85)">
<path style="fill:none;stroke-width:0.7;stroke-linecap:round;stroke-linejoin:miter;stroke-miterlimit:5;stroke:#000000;stroke-opacity:0.501961" d="M4.25 2.8Q-5.05 2.95 -12.1 7.9" />
</g>
<g id="PathID_3246" transform="matrix(1, 0, 0, 1, 12.35, 12.85)">
<path style="fill:none;stroke-width:0.7;stroke-linecap:round;stroke-linejoin:miter;stroke-miterlimit:5;stroke:#000000;stroke-opacity:0.501961" d="M5.75 3.75Q-2 5.95 -6.8 11.65" />
</g>
<g id="PathID_3247" transform="matrix(1, 0, 0, 1, 12.35, 12.85)">
<path style="fill:#7B766C;fill-opacity:1" d="M10.8 -1.2L11.1 -1.2Q10.7 0.25 9 -0.4Q9.85 -1.15 10.8 -1.2" />
<path style="fill:#3E331F;fill-opacity:1" d="M11.45 -1.25L11.9 -0.5Q10.8 1.05 11.1 1.55L10.5 1.95Q10.75 1.2 9.8 0.75Q8.55 0.85 8.4 0.1L9 -0.4Q10.7 0.25 11.1 -1.2L11.45 -1.25" />
<path style="fill:#1F1808;fill-opacity:1" d="M10.1 2.25Q9.65 0.7 8.45 1.25L8.05 0.4Q8.2 0.2 8.4 0.1Q8.55 0.85 9.8 0.75Q10.75 1.2 10.5 1.95L10.1 2.25" />
<path style="fill:none;stroke-width:0.7;stroke-linecap:round;stroke-linejoin:round;stroke-miterlimit:3;stroke:#000000;stroke-opacity:0.301961" d="M9 -0.4L8.4 0.1" />
<path style="fill:none;stroke-width:0.7;stroke-linecap:round;stroke-linejoin:round;stroke-miterlimit:3;stroke:#000000;stroke-opacity:0.301961" d="M10.5 1.95L11.1 1.55Q10.8 1.05 11.9 -0.5L11.45 -1.25L11.1 -1.2L10.8 -1.2Q9.85 -1.15 9 -0.4" />
<path style="fill:none;stroke-width:0.7;stroke-linecap:round;stroke-linejoin:round;stroke-miterlimit:3;stroke:#000000;stroke-opacity:0.301961" d="M8.4 0.1Q8.2 0.2 8.05 0.4L8.45 1.25Q9.65 0.7 10.1 2.25L10.5 1.95" />
</g>
</svg>
