<?xml version="1.0" encoding="utf-8"?>
<svg version="1.1" id="Layer_1"
xmlns="http://www.w3.org/2000/svg"
xmlns:xlink="http://www.w3.org/1999/xlink"
width="17px" height="39px"
xml:space="preserve">
<g id="PathID_3158" transform="matrix(1, 0, 0, 1, 10.8, 18.15)">
<path style="fill:#3F2A19;fill-opacity:1" d="M-0.2 -1.1Q-1.1 -0.95 -1.7 0.4Q-0.6 -2.5 -1.65 -2.9L-2.35 -2.6Q-0.9 -3.9 0.1 -3.75Q-0.3 -4.95 -1 -5.2L0.55 -3.35Q1.55 -2.35 1.25 -1.05L0.1 -0.85L0.85 -0.15L-0.2 -1.1M0.85 -0.15Q1.35 0.5 1.4 1.35L1.35 2.05L-0.4 1.1Q-0.95 0.25 -1.7 0.4L-2.35 0.6L-2.7 0.9Q-3.65 0.8 -3.8 -0.5Q-3.7 -1.35 -3.25 -1.9L-2.35 -2.6Q-3.2 -2.75 -3.25 -3.75L-2.9 -4.35L-2.15 -4.9L-1.05 -5.2L-1 -5.2L0.05 -6.15Q1.5 -4.75 0.55 -3.35L0.1 -3.75Q-0.9 -3.9 -1.65 -2.9Q-0.6 -2.5 -0.2 -1.1L0.1 -0.85M-1 -5.2L-1.05 -5.2L-2.15 -4.9Q-2.9 -5 -2.9 -5.85L-2.5 -6.7Q-1.2 -6.75 -0.1 -7.5L-0.05 -7.55L-0.1 -7.5L-0.05 -7.55Q0.55 -7.35 0.05 -6.15L-1 -5.2Q-0.3 -4.95 0.1 -3.75M-1.35 4.25L-1.4 4.85Q-1.3 3.25 -1.05 2.75Q-0.7 2.15 0.05 2.1L0.1 2.1L0.95 2.85Q1.7 3.85 1.55 5.2Q0 5.45 -1.35 4.25M-1.4 4.85L-2.65 5.85Q-3.85 4.95 -4.3 3.15Q-4.15 2.4 -3.65 1.8L-2.7 0.9L-2.35 0.6L-1.7 0.4Q-0.95 0.25 -0.4 1.1L0.05 2.1Q-0.7 2.15 -1.05 2.75Q-1.3 3.25 -1.35 4.25M1.2 14.8L1.25 12Q2.8 12.05 4.35 13.1L4 17.75Q2.2 17.25 1.2 14.8L1.1 15.7L1.1 15.8Q-0.95 16.1 -2.2 13.3L-2.25 13.05L-2 11.3Q-3.75 9.6 -3.3 6.5L-2.65 5.85L-1.4 4.85Q-0.25 4.9 0.5 5.95L1.35 6.3Q2.75 7.2 3.1 9.45Q4.65 9.9 5.6 11.95Q3.5 12.35 1.25 11.25L1.05 10.1L0.8 9.5L2.05 9.3L3.1 9.45L2.05 9.3Q0.25 9 -1.15 8.15Q-0.6 6.6 0.4 5.9L0.5 5.95L0.4 5.9Q-0.6 6.6 -1.15 8.15L-1.4 8.95L-1.95 11.15L-2 11.3L-1.95 11.15L-1.4 8.95Q-0.3 8.75 0.8 9.5L1.05 10.1L1.25 11.25L1.25 12L1.2 14.8M-2.35 -2.6L-1.65 -2.9M-1.7 0.4Q-1.1 -0.95 -0.2 -1.1" />
<path style="fill:#270803;fill-opacity:1" d="M0.85 -0.15L0.1 -0.85L1.25 -1.05L0.85 -0.15M-0.4 1.1L1.35 2.05L0.95 2.85L0.1 2.1L0.05 2.1L-0.4 1.1M-1.35 4.25Q0 5.45 1.55 5.2L1.35 6.3L0.5 5.95Q-0.25 4.9 -1.4 4.85L-1.35 4.25M1.25 12L1.25 11.25Q3.5 12.35 5.6 11.95L5.8 12.4L4.35 13.1Q2.8 12.05 1.25 12M1.1 15.8Q1.25 17.2 1.75 18.15Q1.25 17.2 1.1 15.8L1.1 15.7L1.2 14.8Q2.2 17.25 4 17.75L3.85 19.65Q2.4 19.6 1.75 18.15Q0.05 18 -1.05 16.65Q-2.1 15.35 -2.2 13.3Q-0.95 16.1 1.1 15.8M-2.65 5.85L-3.3 6.5L-3.9 7.35L-3.3 6.5Q-3.75 9.6 -2 11.3L-2.25 13.05Q-3.55 12.5 -4.1 11.55Q-4.6 10.7 -4.5 9.25L-3.9 7.35Q-4.75 4.85 -4.35 3.25L-4.3 3.15Q-3.85 4.95 -2.65 5.85M-2.7 0.9L-3.65 1.8L-3.8 -0.5Q-3.65 0.8 -2.7 0.9M-3.25 -1.9Q-3.5 -3 -3.25 -3.75Q-3.2 -2.75 -2.35 -2.6L-3.25 -1.9M-2.9 -4.35L-2.9 -5.85Q-2.9 -5 -2.15 -4.9L-2.9 -4.35M-1.1 -9.15L-3.4 -8.85L-3.8 -8.9Q-4.6 -9.1 -4.9 -10.2Q-5.3 -11.75 -5.6 -11.85L-6.4 -11.5L-4.65 -12.65Q-5 -11.1 -4.15 -9.85Q-2.45 -9.1 -1.1 -9.15M-7.25 -12.95L-8.6 -12.6L-6.9 -13.7L-7.25 -12.95M-8 -15.05L-9 -15.15L-7.1 -15.4L-8 -15.05M0.8 9.5Q-0.3 8.75 -1.4 8.95L-1.15 8.15Q0.25 9 2.05 9.3L0.8 9.5" />
<linearGradient
id="LinearGradID_760" gradientUnits="userSpaceOnUse" gradientTransform="matrix(0.00196838, 0.00585938, -0.00511169, 0.00167847, -1.45, -10.7)" spreadMethod ="pad" x1="-819.2" y1="0" x2="819.2" y2="0" >
<stop  offset="0" style="stop-color:#5B402F;stop-opacity:1" />
<stop  offset="0.32549" style="stop-color:#3F2A19;stop-opacity:1" />
</linearGradient>
<path style="fill:url(#LinearGradID_760) " d="M-0.5 -9.55L-1.1 -9.15Q-2.45 -9.1 -4.15 -9.85Q-5 -11.1 -4.65 -12.65L-6.4 -11.5Q-7.25 -11.05 -7.95 -10Q-8.05 -11.85 -7.25 -12.95L-6.9 -13.7L-8.6 -12.6Q-9.55 -12.3 -10.35 -11.6Q-9.65 -14.15 -7.95 -15.05L-8 -15.05L-7.1 -15.4L-9 -15.15L-10.5 -15.35Q-8.8 -16.9 -6.65 -16.5L-7.95 -18Q-5.3 -17.65 -3.15 -15.2L-3.4 -16.5Q0.15 -14.75 -0.4 -10.25L-0.5 -9.55" />
<path style="fill:#876947;fill-opacity:1" d="M-3.4 -8.85L-1.1 -9.15L-0.5 -9.55L-0.4 -10.25L0.1 -9.65Q0.45 -8.25 -0.05 -7.55L-0.1 -7.5Q-1.2 -6.75 -2.5 -6.7L-2.8 -6.7Q-3.6 -7.1 -3.75 -7.9L-3.8 -8.45L-3.8 -8.9L-3.4 -8.85M-1.8 -8.05L-3.75 -7.9L-1.8 -8.05" />
<path style="fill:none;stroke-width:0.7;stroke-linecap:round;stroke-linejoin:miter;stroke-miterlimit:5;stroke:#000000;stroke-opacity:0.4" d="M1.25 -1.05Q1.55 -2.35 0.55 -3.35L0.1 -3.75Q-0.9 -3.9 -1.65 -2.9Q-0.6 -2.5 -0.2 -1.1L0.1 -0.85L0.85 -0.15L1.25 -1.05z" />
<path style="fill:none;stroke-width:0.7;stroke-linecap:round;stroke-linejoin:miter;stroke-miterlimit:5;stroke:#000000;stroke-opacity:0.4" d="M0.55 -3.35Q1.5 -4.75 0.05 -6.15L-1 -5.2Q-0.3 -4.95 0.1 -3.75" />
<path style="fill:none;stroke-width:0.7;stroke-linecap:round;stroke-linejoin:miter;stroke-miterlimit:5;stroke:#000000;stroke-opacity:0.4" d="M1.55 5.2Q1.7 3.85 0.95 2.85L0.1 2.1L0.05 2.1Q-0.7 2.15 -1.05 2.75Q-1.3 3.25 -1.35 4.25" />
<path style="fill:none;stroke-width:0.7;stroke-linecap:round;stroke-linejoin:miter;stroke-miterlimit:5;stroke:#000000;stroke-opacity:0.4" d="M1.55 5.2L1.35 6.3Q2.75 7.2 3.1 9.45Q4.65 9.9 5.6 11.95L5.8 12.4L4.35 13.1L4 17.75L3.85 19.65Q2.4 19.6 1.75 18.15Q0.05 18 -1.05 16.65Q-2.1 15.35 -2.2 13.3L-2.25 13.05Q-3.55 12.5 -4.1 11.55Q-4.6 10.7 -4.5 9.25L-3.9 7.35Q-4.75 4.85 -4.35 3.25L-4.3 3.15Q-4.15 2.4 -3.65 1.8L-3.8 -0.5Q-3.7 -1.35 -3.25 -1.9Q-3.5 -3 -3.25 -3.75L-2.9 -4.35L-2.9 -5.85L-2.5 -6.7L-2.8 -6.7Q-3.6 -7.1 -3.75 -7.9L-3.8 -8.45L-3.8 -8.9Q-4.6 -9.1 -4.9 -10.2Q-5.3 -11.75 -5.6 -11.85L-6.4 -11.5Q-7.25 -11.05 -7.95 -10Q-8.05 -11.85 -7.25 -12.95L-8.6 -12.6Q-9.55 -12.3 -10.35 -11.6Q-9.65 -14.15 -7.95 -15.05L-8 -15.05L-9 -15.15L-10.5 -15.35Q-8.8 -16.9 -6.65 -16.5L-7.95 -18Q-5.3 -17.65 -3.15 -15.2L-3.4 -16.5Q0.15 -14.75 -0.4 -10.25L0.1 -9.65Q0.45 -8.25 -0.05 -7.55Q0.55 -7.35 0.05 -6.15" />
<path style="fill:none;stroke-width:0.7;stroke-linecap:round;stroke-linejoin:miter;stroke-miterlimit:5;stroke:#000000;stroke-opacity:0.4" d="M1.35 2.05L1.4 1.35Q1.35 0.5 0.85 -0.15" />
<path style="fill:none;stroke-width:0.7;stroke-linecap:round;stroke-linejoin:miter;stroke-miterlimit:5;stroke:#000000;stroke-opacity:0.4" d="M0.95 2.85L1.35 2.05" />
<path style="fill:none;stroke-width:0.7;stroke-linecap:round;stroke-linejoin:miter;stroke-miterlimit:5;stroke:#000000;stroke-opacity:0.4" d="M-0.4 1.1L0.05 2.1" />
<path style="fill:none;stroke-width:0.7;stroke-linecap:round;stroke-linejoin:miter;stroke-miterlimit:5;stroke:#000000;stroke-opacity:0.4" d="M0.5 5.95L0.4 5.9Q-0.6 6.6 -1.15 8.15" />
<path style="fill:none;stroke-width:0.7;stroke-linecap:round;stroke-linejoin:miter;stroke-miterlimit:5;stroke:#000000;stroke-opacity:0.4" d="M2.05 9.3L3.1 9.45" />
<path style="fill:none;stroke-width:0.7;stroke-linecap:round;stroke-linejoin:miter;stroke-miterlimit:5;stroke:#000000;stroke-opacity:0.4" d="M1.25 11.25L1.05 10.1L0.8 9.5Q-0.3 8.75 -1.4 8.95L-1.95 11.15L-2 11.3L-2.25 13.05" />
<path style="fill:none;stroke-width:0.7;stroke-linecap:round;stroke-linejoin:miter;stroke-miterlimit:5;stroke:#000000;stroke-opacity:0.4" d="M2.05 9.3L0.8 9.5" />
<path style="fill:none;stroke-width:0.7;stroke-linecap:round;stroke-linejoin:miter;stroke-miterlimit:5;stroke:#000000;stroke-opacity:0.4" d="M1.25 12L1.25 11.25" />
<path style="fill:none;stroke-width:0.7;stroke-linecap:round;stroke-linejoin:miter;stroke-miterlimit:5;stroke:#000000;stroke-opacity:0.4" d="M1.35 6.3L0.5 5.95Q-0.25 4.9 -1.4 4.85L-2.65 5.85L-3.3 6.5" />
<path style="fill:none;stroke-width:0.7;stroke-linecap:round;stroke-linejoin:miter;stroke-miterlimit:5;stroke:#000000;stroke-opacity:0.4" d="M1.1 15.8L1.1 15.7L1.2 14.8L1.25 12Q2.8 12.05 4.35 13.1" />
<path style="fill:none;stroke-width:0.7;stroke-linecap:round;stroke-linejoin:miter;stroke-miterlimit:5;stroke:#000000;stroke-opacity:0.4" d="M1.75 18.15Q1.25 17.2 1.1 15.8" />
<path style="fill:none;stroke-width:0.7;stroke-linecap:round;stroke-linejoin:miter;stroke-miterlimit:5;stroke:#000000;stroke-opacity:0.4" d="M-1.1 -9.15L-0.5 -9.55L-0.4 -10.25" />
<path style="fill:none;stroke-width:0.7;stroke-linecap:round;stroke-linejoin:miter;stroke-miterlimit:5;stroke:#000000;stroke-opacity:0.4" d="M-1.1 -9.15L-3.4 -8.85L-3.8 -8.9" />
<path style="fill:none;stroke-width:0.7;stroke-linecap:round;stroke-linejoin:miter;stroke-miterlimit:5;stroke:#000000;stroke-opacity:0.4" d="M-2.5 -6.7Q-1.2 -6.75 -0.1 -7.5" />
<path style="fill:none;stroke-width:0.7;stroke-linecap:round;stroke-linejoin:miter;stroke-miterlimit:5;stroke:#000000;stroke-opacity:0.4" d="M-0.05 -7.55L-0.1 -7.5" />
<path style="fill:none;stroke-width:0.7;stroke-linecap:round;stroke-linejoin:miter;stroke-miterlimit:5;stroke:#000000;stroke-opacity:0.4" d="M-3.75 -7.9L-1.8 -8.05" />
<path style="fill:none;stroke-width:0.7;stroke-linecap:round;stroke-linejoin:miter;stroke-miterlimit:5;stroke:#000000;stroke-opacity:0.4" d="M-2.15 -4.9L-1.05 -5.2L-1 -5.2" />
<path style="fill:none;stroke-width:0.7;stroke-linecap:round;stroke-linejoin:miter;stroke-miterlimit:5;stroke:#000000;stroke-opacity:0.4" d="M-2.35 -2.6L-1.65 -2.9" />
<path style="fill:none;stroke-width:0.7;stroke-linecap:round;stroke-linejoin:miter;stroke-miterlimit:5;stroke:#000000;stroke-opacity:0.4" d="M-2.15 -4.9L-2.9 -4.35" />
<path style="fill:none;stroke-width:0.7;stroke-linecap:round;stroke-linejoin:miter;stroke-miterlimit:5;stroke:#000000;stroke-opacity:0.4" d="M-2.35 -2.6L-3.25 -1.9" />
<path style="fill:none;stroke-width:0.7;stroke-linecap:round;stroke-linejoin:miter;stroke-miterlimit:5;stroke:#000000;stroke-opacity:0.4" d="M-0.4 1.1Q-0.95 0.25 -1.7 0.4L-2.35 0.6L-2.7 0.9L-3.65 1.8" />
<path style="fill:none;stroke-width:0.7;stroke-linecap:round;stroke-linejoin:miter;stroke-miterlimit:5;stroke:#000000;stroke-opacity:0.4" d="M-1.4 4.85L-1.35 4.25" />
<path style="fill:none;stroke-width:0.7;stroke-linecap:round;stroke-linejoin:miter;stroke-miterlimit:5;stroke:#000000;stroke-opacity:0.4" d="M-1.4 8.95L-1.15 8.15" />
<path style="fill:none;stroke-width:0.7;stroke-linecap:round;stroke-linejoin:miter;stroke-miterlimit:5;stroke:#000000;stroke-opacity:0.4" d="M-3.9 7.35L-3.3 6.5" />
<path style="fill:none;stroke-width:0.7;stroke-linecap:round;stroke-linejoin:miter;stroke-miterlimit:5;stroke:#000000;stroke-opacity:0.4" d="M-1.7 0.4Q-1.1 -0.95 -0.2 -1.1" />
</g>
</svg>
