<?xml version="1.0" encoding="utf-8"?>
<svg version="1.1" id="Layer_1"
xmlns="http://www.w3.org/2000/svg"
xmlns:xlink="http://www.w3.org/1999/xlink"
width="28px" height="21px"
xml:space="preserve">
<g id="PathID_3381" transform="matrix(1, 0, 0, 1, 12.55, 9.3)">
<path style="fill:#41301C;fill-opacity:1" d="M-1.25 -6.45L-2.45 -5.8L-1.1 -7.25L-2.25 -7.7L-2.45 -6.75L-2.45 -6.7L-4.1 -6.15L-3.1 -7.9L-1.75 -8.6L-3.7 -8.5L-5.05 -8.15Q-6.1 -8.1 -7 -8.65L-3.4 -9Q-0.15 -9.75 3.3 -8L0.95 -6.65L-1.25 -6.45M-7.05 -4.6L-5.9 -5.8L-5.7 -5.8L-5.75 -5.45L-5.8 -4.8Q-5.75 -4.7 -6.05 -4.55L-6.3 -4.4L-7.05 -4.6M-8.25 -3.35L-8.6 -3.05L-9.75 -2.45Q-9.65 -3.4 -9.35 -3.65L-9 -3.9L-7.7 -4.15L-8.25 -3.35M-4.7 -3.2Q-6 -2.45 -6.5 -1.4L-6.65 -3Q-5.15 -3.75 -4.7 -5.05L-4.25 -4.1L-4.7 -3.2" />
<path style="fill:#775937;fill-opacity:1" d="M-3.1 -7.9L-4.1 -6.15L-2.45 -6.7L-2.45 -6.75L-2.25 -7.7L-1.1 -7.25L-2.45 -5.8L-1.25 -6.45L0.95 -6.65Q-2.4 -4.45 -3.6 -1.1L-3.2 4L-4 3.25L-6.2 7.8L-7.1 5.75L-8.85 8.15L-9.7 6.8L-10.55 5L-11.65 5.25Q-11.95 3.35 -11.35 2.05L-12.55 1.55Q-11.6 -0.55 -10.65 -0.8L-11.8 -1.65Q-10.8 -2.55 -9.95 -2.6L-10.9 -3.5L-9.4 -4.3L-7.9 -5.7L-5.05 -8.15L-3.7 -8.5L-4.5 -7.15L-3.1 -7.9M-5.9 -5.8L-7.05 -4.6L-7.35 -4.75L-7.7 -4.15L-9 -3.9L-9.35 -3.65Q-9.65 -3.4 -9.75 -2.45L-8.6 -3.05L-8.25 -3.35L-7 -3.75L-6.05 -4.3L-6.05 -4.35L-6.3 -4.4L-6.05 -4.55Q-5.75 -4.7 -5.8 -4.8L-5.75 -5.45L-5.7 -5.8L-4.9 -5.75L-5.05 -7.1L-6.8 -6.05L-5.9 -5.8M-9.6 -1.7L-10.2 0.2L-7.1 -2.3L-8.45 -2.5L-9.6 -1.7M-2.45 -4.8L-2.45 -5.8L-2.45 -6.7L-3.9 -4.95L-4.25 -4.1L-4.7 -5.05Q-5.15 -3.75 -6.65 -3L-6.5 -1.4Q-6 -2.45 -4.7 -3.2L-2.45 -4.8M-4.3 2.95L-4 3.25L-4.3 2.95" />
<path style="fill:#A78049;fill-opacity:1" d="M-7.9 -5.7L-9.4 -4.3L-11.15 -4.75L-7.9 -5.7Q-9.2 -5.5 -10.1 -6.05Q-7.8 -6.65 -5.05 -8.15L-7.9 -5.7M-4.5 -7.15L-3.7 -8.5L-1.75 -8.6L-3.1 -7.9L-4.5 -7.15M-6.8 -6.05L-5.05 -7.1L-4.9 -5.75L-5.7 -5.8L-5.9 -5.8L-6.8 -6.05M-7.7 -4.15L-7.35 -4.75L-7.05 -4.6L-6.3 -4.4L-6.05 -4.35L-6.05 -4.3L-7 -3.75L-8.25 -3.35L-7.7 -4.15M-8.45 -2.5L-7.1 -2.3L-10.2 0.2L-9.6 -1.7L-8.45 -2.5M-4.7 -3.2L-4.25 -4.1L-3.9 -4.95L-2.45 -6.7L-2.45 -5.8L-2.45 -4.8L-4.7 -3.2" />
<path style="fill:none;stroke-width:0.7;stroke-linecap:round;stroke-linejoin:round;stroke-miterlimit:3;stroke:#000000;stroke-opacity:0.4" d="M-5.05 -8.15Q-6.1 -8.1 -7 -8.65L-3.4 -9Q-0.15 -9.75 3.3 -8L0.95 -6.65Q-2.4 -4.45 -3.6 -1.1L-3.2 4L-4 3.25L-6.2 7.8L-7.1 5.75L-8.85 8.15L-9.7 6.8L-10.55 5L-11.65 5.25Q-11.95 3.35 -11.35 2.05L-12.55 1.55Q-11.6 -0.55 -10.65 -0.8L-11.8 -1.65Q-10.8 -2.55 -9.95 -2.6L-10.9 -3.5L-9.4 -4.3L-11.15 -4.75L-7.9 -5.7Q-9.2 -5.5 -10.1 -6.05Q-7.8 -6.65 -5.05 -8.15z" />
<path style="fill:none;stroke-width:0.7;stroke-linecap:round;stroke-linejoin:round;stroke-miterlimit:3;stroke:#000000;stroke-opacity:0.4" d="M-4 3.25L-4.3 2.95" />
</g>
<g id="PathID_3382" transform="matrix(1, 0, 0, 1, 12.55, 9.3)">
<path style="fill:#41301C;fill-opacity:1" d="M10 -5.85L8.35 -6.95L9.2 -5.65L9.15 -3.65L8 -4.95L8 -5L8.35 -5.9L7.1 -6.1L7.55 -4.15L6.85 -5.35L5.05 -6.55L3.7 -8.95Q7.55 -8.75 10 -6.45L12.9 -4.35Q11.9 -4.3 10.95 -4.9L10 -5.85M8.3 -1.8L9.1 -2.35Q8.85 -1.05 9.8 0.35L8.9 1.7Q8.95 0.55 8.2 -0.75L8.3 -1.8M10.55 -2.4L10.95 -0.85L10.2 -1L10.05 -1.3L9.95 -1.6L10.25 -2.2L10.4 -2.5L10.55 -2.4M11.25 -0.1L12.3 0.75L12.45 1.15Q12.6 1.5 12.2 2.4L11.5 1.3L11.35 0.85L11.25 -0.1" />
<path style="fill:#775937;fill-opacity:1" d="M12.85 0.65L13.75 2.05L12.45 2.35Q13.15 2.85 13.55 4.1L12.15 4.25Q12.85 4.95 12.65 7.25L11.4 7.1Q11.25 8.5 10.05 10L9.2 9.25L7.55 10.4L6.15 11.1L5.85 8.2L4 9.5L4.4 4.45L3.3 4.7L6.2 0.5Q6.85 -3 5.05 -6.55L6.85 -5.35L7.55 -4.15L7.1 -6.1L8.35 -5.9L8 -5L8 -4.95L9.15 -3.65L9.2 -5.65L10 -4.3L10 -5.85L10.95 -4.9L12.25 -1.35L12.85 0.65M8.9 1.7L9.8 0.35Q8.85 -1.05 9.1 -2.35L8.3 -1.8L8.4 -2.7L8 -4.95L7.55 -4.15L7.05 -3.3L8.2 -0.75Q8.95 0.55 8.9 1.7M9.95 -1.1L9.95 -1.05L10.45 -0.1L11.35 0.85L11.5 1.3L12.2 2.4Q12.6 1.5 12.45 1.15L12.3 0.75L11.25 -0.1L11.25 -0.8L10.95 -0.85L10.55 -2.4L11.45 -2.2L10.45 -4L9.65 -2.9L10.4 -2.5L10.25 -2.2L9.95 -1.6L10.05 -1.3L10.2 -1L9.95 -1.1M11.1 1.7L9.85 1.2L11.3 4.9L11.7 3L11.1 1.7M4.8 4.35L4.4 4.45L4.8 4.35" />
<path style="fill:#A78049;fill-opacity:1" d="M9.2 -5.65L8.35 -6.95L10 -5.85L10 -4.3L9.2 -5.65M12.25 -1.35L10.95 -4.9Q12.6 -2.2 14.3 -0.55Q13.25 -0.5 12.25 -1.35L14.55 1.1L12.85 0.65L12.25 -1.35M8.2 -0.75L7.05 -3.3L7.55 -4.15L8 -4.95L8.4 -2.7L8.3 -1.8L8.2 -0.75M10.4 -2.5L9.65 -2.9L10.45 -4L11.45 -2.2L10.55 -2.4L10.4 -2.5M11.35 0.85L10.45 -0.1L9.95 -1.05L9.95 -1.1L10.2 -1L10.95 -0.85L11.25 -0.8L11.25 -0.1L11.35 0.85M11.7 3L11.3 4.9L9.85 1.2L11.1 1.7L11.7 3" />
<path style="fill:none;stroke-width:0.7;stroke-linecap:round;stroke-linejoin:round;stroke-miterlimit:3;stroke:#000000;stroke-opacity:0.4" d="M10.95 -4.9Q11.9 -4.3 12.9 -4.35L10 -6.45Q7.55 -8.75 3.7 -8.95L5.05 -6.55" />
<path style="fill:none;stroke-width:0.7;stroke-linecap:round;stroke-linejoin:round;stroke-miterlimit:3;stroke:#000000;stroke-opacity:0.4" d="M10.95 -4.9Q12.6 -2.2 14.3 -0.55Q13.25 -0.5 12.25 -1.35L14.55 1.1L12.85 0.65L13.75 2.05L12.45 2.35Q13.15 2.85 13.55 4.1L12.15 4.25Q12.85 4.95 12.65 7.25L11.4 7.1Q11.25 8.5 10.05 10L9.2 9.25L7.55 10.4L6.15 11.1L5.85 8.2L4 9.5L4.4 4.45L3.3 4.7L6.2 0.5Q6.85 -3 5.05 -6.55" />
<path style="fill:none;stroke-width:0.7;stroke-linecap:round;stroke-linejoin:round;stroke-miterlimit:3;stroke:#000000;stroke-opacity:0.4" d="M4.4 4.45L4.8 4.35" />
</g>
<g id="PathID_3383" transform="matrix(1, 0, 0, 1, 12.55, 9.3)">
<path style="fill:#CBB38D;fill-opacity:1" d="M8.05 -4.95Q7.25 -4.4 6 -4.05L2.95 -3.6Q-0.05 -3.9 -1.5 -5.2Q-2.35 -5.95 -2.7 -7.05L1.15 -8.65Q5.3 -10.15 6.5 -8.15Q7.5 -8.55 8.55 -6.2Q9.65 -3.9 9.7 -2.15L9.75 0.25Q9.55 -4.25 8.05 -4.95M9.75 0.65L9.85 3.5Q10 7.4 5.5 8.85L3.7 9.35L-2.45 9.65L-6.5 8.35L-8.35 7.2Q-10.85 5.35 -10.4 3.4Q-9.95 1.4 -8.75 -0.15Q-10.2 3.75 -8 5.9L-7.3 6.5Q-6.15 7.3 -4.35 7.8Q1.25 8.6 4.55 7.85L5.4 7.6Q9 6.4 9.4 2.9Q9.6 1.15 9.75 0.65" />
<path style="fill:#F3E6D3;fill-opacity:1" d="M9.4 2.9Q9 6.4 5.4 7.6L4.55 7.85Q1.25 8.6 -4.35 7.8Q-6.15 7.3 -7.3 6.5L-8 5.9Q-10.2 3.75 -8.75 -0.15Q-5.1 -5.45 -2.7 -7.05Q-2.35 -5.95 -1.5 -5.2Q-0.05 -3.9 2.95 -3.6L6 -4.05Q7.25 -4.4 8.05 -4.95Q9.55 -4.25 9.75 0.25L9.75 0.65Q9.6 1.15 9.4 2.9" />
<path style="fill:none;stroke-width:0.7;stroke-linecap:round;stroke-linejoin:miter;stroke-miterlimit:5;stroke:#000000;stroke-opacity:0.4" d="M9.75 0.25L9.7 -2.15Q9.65 -3.9 8.55 -6.2Q7.5 -8.55 6.5 -8.15" />
<path style="fill:none;stroke-width:0.7;stroke-linecap:round;stroke-linejoin:miter;stroke-miterlimit:5;stroke:#000000;stroke-opacity:0.4" d="M1.15 -8.65L-2.7 -7.05" />
<path style="fill:none;stroke-width:0.7;stroke-linecap:round;stroke-linejoin:miter;stroke-miterlimit:5;stroke:#000000;stroke-opacity:0.4" d="M9.75 0.25L9.75 0.65L9.85 3.5Q10 7.4 5.5 8.85L3.7 9.35L-2.45 9.65L-6.5 8.35L-8.35 7.2Q-10.85 5.35 -10.4 3.4Q-9.95 1.4 -8.75 -0.15Q-5.1 -5.45 -2.7 -7.05" />
</g>
</svg>
