<?xml version="1.0" encoding="utf-8"?>
<svg version="1.1" id="Layer_1"
xmlns="http://www.w3.org/2000/svg"
xmlns:xlink="http://www.w3.org/1999/xlink"
width="14px" height="14px"
xml:space="preserve">
<g id="PathID_4145" transform="matrix(1, 0, 0, 1, 6.95, 6.8)">
<path style="fill:#464544;fill-opacity:1" d="M5 -4.35L6.25 -2.5Q6.85 -1.15 6.85 0.4L6.85 0.6Q6.8 2.6 5.75 4.1L4.85 5.15L3.25 6.3Q1.8 6.95 0.05 6.85Q-2.8 6.7 -4.8 4.55L-5.6 3.55Q-6.8 1.8 -6.8 -0.4Q-6.8 -1.95 -6.2 -3.2Q-5.7 -4.25 -4.8 -5.1Q-3.8 -6.05 -2.55 -6.5L0.05 -6.8Q2.9 -6.65 4.85 -4.55L5 -4.35" />
<path style="fill:none;stroke-width:0.7;stroke-linecap:round;stroke-linejoin:miter;stroke-miterlimit:5;stroke:#000000;stroke-opacity:0.4" d="M5 -4.35L6.25 -2.5Q6.85 -1.15 6.85 0.4L6.85 0.6Q6.8 2.6 5.75 4.1L4.85 5.15L3.25 6.3Q1.8 6.95 0.05 6.85Q-2.8 6.7 -4.8 4.55L-5.6 3.55Q-6.8 1.8 -6.8 -0.4Q-6.8 -1.95 -6.2 -3.2Q-5.7 -4.25 -4.8 -5.1Q-3.8 -6.05 -2.55 -6.5" />
</g>
</svg>
