<?xml version="1.0" encoding="utf-8"?>
<svg version="1.1" id="Layer_1"
xmlns="http://www.w3.org/2000/svg"
xmlns:xlink="http://www.w3.org/1999/xlink"
width="18px" height="14px"
xml:space="preserve">
<g id="PathID_3104" transform="matrix(1, 0, 0, 1, 7.25, 6.8)">
<linearGradient
id="LinearGradID_748" gradientUnits="userSpaceOnUse" gradientTransform="matrix(0.00939941, -0.00177002, 0.00144958, 0.00765991, -6.15, -18.35)" spreadMethod ="pad" x1="-819.2" y1="0" x2="819.2" y2="0" >
<stop  offset="0" style="stop-color:#FDB8B1;stop-opacity:1" />
<stop  offset="1" style="stop-color:#FDDFD7;stop-opacity:1" />
</linearGradient>
<path style="fill:url(#LinearGradID_748) " d="M6.95 3.55Q1.6 4.75 -1.4 3.6Q-4.4 2.45 -5.45 1.45L-6.1 0.1L-6.25 -0.6L-6.3 -1.75Q-6.1 -1.85 -5.95 -2.05Q-5.7 -2.35 -5.4 -3.15Q-5.1 -3.85 -5.4 -4.5L-4.85 -5.1L-4.8 -5.1L-4.6 -5.3L-4.55 -5.35L-4.5 -5.35L-4.8 -5.1L-4.5 -5.35L-3.65 -5.25Q-3.05 -5.35 -2.7 -5.6Q-2.15 -5.9 -2.55 -6.5L0 -6.8Q1.65 -6.7 3 -5.95Q4 -5.45 4.8 -4.55L4.95 -4.35L5.55 -3.65L6.15 -2.55L6.9 -0.25Q7.4 1.5 7.05 3.25L7 3.6L6.95 3.55" />
<path style="fill:#DE9287;fill-opacity:1" d="M-6.75 -1.7L-6.25 -3.2L-5.4 -4.5Q-5.1 -3.85 -5.4 -3.15Q-5.7 -2.35 -5.95 -2.05Q-6.1 -1.85 -6.3 -1.75L-6.75 -1.7M-4.5 -5.35L-4.45 -5.4Q-3.6 -6.15 -2.55 -6.5Q-2.15 -5.9 -2.7 -5.6Q-3.05 -5.35 -3.65 -5.25L-4.5 -5.35" />
<path style="fill:#D9A59A;fill-opacity:1" d="M-6.55 1.25Q-6.1 0.85 -6.1 0.1L-5.45 1.45Q-4.4 2.45 -1.4 3.6Q1.6 4.75 6.95 3.55L7 3.6L7.45 4.65Q8.25 5.65 10.65 6.65Q3.7 6.9 1.15 6.6L-3.7 5.7Q-6 5.2 -6.65 3.75Q-7.05 2.8 -7.1 1.65L-6.55 1.25M-6.3 -1.75L-6.25 -0.6L-6.9 -0.8L-6.75 -1.7L-6.3 -1.75" />
<path style="fill:#D98175;fill-opacity:1" d="M-6.25 -0.6L-6.1 0.1Q-6.1 0.85 -6.55 1.25L-7.1 1.65L-7.05 0.2L-6.9 -0.8L-6.25 -0.6" />
<path style="fill:none;stroke-width:0.7;stroke-linecap:round;stroke-linejoin:miter;stroke-miterlimit:5;stroke:#4F3218;stroke-opacity:0.4" d="M1.15 6.6L-3.7 5.7Q-6 5.2 -6.65 3.75Q-7.05 2.8 -7.1 1.65L-7.05 0.2L-6.9 -0.8L-6.75 -1.7L-6.25 -3.2L-5.4 -4.5L-4.85 -5.1L-4.8 -5.1" />
<path style="fill:none;stroke-width:0.7;stroke-linecap:round;stroke-linejoin:miter;stroke-miterlimit:5;stroke:#4F3218;stroke-opacity:0.4" d="M-4.5 -5.35L-4.45 -5.4Q-3.6 -6.15 -2.55 -6.5" />
<path style="fill:none;stroke-width:0.7;stroke-linecap:round;stroke-linejoin:miter;stroke-miterlimit:5;stroke:#4F3218;stroke-opacity:0.4" d="M-4.5 -5.35L-4.8 -5.1" />
</g>
<g id="PathID_3105" transform="matrix(1, 0, 0, 1, 7.25, 6.8)">
<radialGradient
id="RadialGradID_749" gradientUnits="userSpaceOnUse" gradientTransform="matrix(0.00312805, 0.00811768, -0.00698853, 0.00270081, -4.45, 1.4)" spreadMethod ="pad" cx="0" cy="0" r="819.2" fx="0" fy="0" >
<stop  offset="0.294118"  style="stop-color:#FFACA1;stop-opacity:0.501961" />
<stop  offset="1"  style="stop-color:#FDDED6;stop-opacity:0" />
</radialGradient>
<path style="fill:url(#RadialGradID_749) " d="M-4.45 -5.4L-4.4 -5.4Q-3.35 -5.3 -2.25 -4.7Q0.15 -3.35 1.15 -0.75Q2.2 2 1.3 4.5L0.2 6.4L0.1 6.45L-3.7 5.7Q-6 5.2 -6.65 3.75Q-7.3 2.3 -7.05 0.2Q-6.85 -1.95 -6.25 -3.2Q-5.75 -4.25 -4.85 -5.1L-4.45 -5.4" />
</g>
</svg>
