<?xml version="1.0" encoding="utf-8"?>
<svg version="1.1" id="Layer_1"
xmlns="http://www.w3.org/2000/svg"
xmlns:xlink="http://www.w3.org/1999/xlink"
width="22px" height="40px"
xml:space="preserve">
<g id="PathID_3253" transform="matrix(1, 0, 0, 1, 13.85, 20.3)">
<path style="fill:#2A2311;fill-opacity:1" d="M-13.7 -17.7L-13.45 -18.75Q-12.95 -19.75 -11.3 -20.15Q-6.95 -20.25 -3.15 -16.1Q-1.6 -14.4 -0.7 -12.65L-1.4 -12.75L-3.4 -12.25Q-4.25 -11.85 -5.05 -11.05L-5.65 -10.3L-9.85 -13.05Q-12.65 -14.8 -13.7 -17.7M-1 -3.15L-2.1 -3L-2.55 -2.8Q-2.55 -4.6 -2.9 -6.3L-3.35 -7.45L-2.5 -8.1L-1 -8.55L0.4 -8.4L0.3 -3.45L0.25 -2.9L-1 -3.15M-0.6 6L-2 6.45L-2.25 6.55L-3.55 7.1Q-3.7 4.85 -3.3 2.1L-3.25 2.05L-1.9 1.8L-1.5 1.75L-0.55 1.85L-0.25 1.95L-0.3 2.2Q-0.4 4.25 0.1 6.05L-0.6 6M1.25 15.35Q-1.5 13.7 -1.65 13.15L-1 11.85L-0.85 11.7Q-0.05 10.6 1.55 9.65Q3.35 12.5 7.2 13.8Q8.1 16.15 7.7 16.5Q3.95 16.95 1.25 15.35" />
<path style="fill:#884B38;fill-opacity:1" d="M-1 -8.55L-2.5 -8.1L-3.35 -7.45Q-4.05 -8.95 -4.75 -9.6L-5.65 -10.3L-5.05 -11.05Q-4.25 -11.85 -3.4 -12.25L-1.4 -12.75L-0.7 -12.65Q0 -11.25 0.25 -9.8L0.4 -8.4L-1 -8.55M-2.55 -2.8L-2.1 -3L-1 -3.15L0.25 -2.9L-0.25 1.95L-0.55 1.85L-1.5 1.75L-1.9 1.8L-3.25 2.05L-2.55 -2.8M-3.55 7.1L-2.25 6.55L-2 6.45L-0.6 6L0.1 6.05L0.3 6.8Q0.7 8.4 1.55 9.65Q-0.05 10.6 -0.85 11.7L-1 11.85L-1.65 13.15Q-3.35 10.8 -3.55 7.1" />
<path style="fill:#120F07;fill-opacity:1" d="M-2.15 15.95Q-2.15 14.35 -1.65 13.15Q-1.5 13.7 1.25 15.35Q3.95 16.95 7.7 16.5Q7 18.55 5.95 19.1Q0.75 19.65 -2.15 16.1L-2.15 15.95M-5.05 8.55Q-5.35 5.85 -4.6 3.25L-4.4 2.6Q-3.9 2.25 -3.25 2.05L-3.3 2.1Q-3.7 4.85 -3.55 7.1L-3.9 7.25Q-4.65 7.8 -5.05 8.55M-2.9 -6.3Q-2.55 -4.6 -2.55 -2.8L-3.05 -2.55L-3.8 -1.9L-3.8 -1.95Q-3.7 -5 -4.25 -6.45L-3.6 -7.25L-3.35 -7.45L-2.9 -6.3M-9.85 -13.05L-5.65 -10.3L-6.1 -9.55Q-7.35 -10.9 -9.1 -11.7Q-12.5 -13.25 -13.4 -16.1L-13.7 -17.7Q-12.65 -14.8 -9.85 -13.05" />
<path style="fill:#56271B;fill-opacity:1" d="M-4.25 -6.45Q-4.95 -8.25 -6.1 -9.55L-5.65 -10.3L-4.75 -9.6Q-4.05 -8.95 -3.35 -7.45L-3.6 -7.25L-4.25 -6.45M-3.9 7.25L-3.55 7.1Q-3.35 10.8 -1.65 13.15Q-2.15 14.35 -2.15 15.95L-2.15 16.1Q-3.35 14.6 -4.15 12.45Q-4.85 10.45 -5.05 8.55Q-4.65 7.8 -3.9 7.25M-3.25 2.05Q-3.9 2.25 -4.4 2.6Q-3.95 0.55 -3.8 -1.9L-3.05 -2.55L-2.55 -2.8L-3.25 2.05" />
<path style="fill:none;stroke-width:0.7;stroke-linecap:round;stroke-linejoin:round;stroke-miterlimit:3;stroke:#000000;stroke-opacity:0.4" d="M0.4 -8.4L0.25 -9.8Q0 -11.25 -0.7 -12.65" />
<path style="fill:none;stroke-width:0.7;stroke-linecap:round;stroke-linejoin:round;stroke-miterlimit:3;stroke:#000000;stroke-opacity:0.4" d="M0.4 -8.4L0.3 -3.45L0.25 -2.9L-0.25 1.95L-0.3 2.2Q-0.4 4.25 0.1 6.05L0.3 6.8Q0.7 8.4 1.55 9.65Q3.35 12.5 7.2 13.8Q8.1 16.15 7.7 16.5Q7 18.55 5.95 19.1Q0.75 19.65 -2.15 16.1Q-3.35 14.6 -4.15 12.45Q-4.85 10.45 -5.05 8.55Q-5.35 5.85 -4.6 3.25L-4.4 2.6Q-3.95 0.55 -3.8 -1.9L-3.8 -1.95Q-3.7 -5 -4.25 -6.45Q-4.95 -8.25 -6.1 -9.55Q-7.35 -10.9 -9.1 -11.7Q-12.5 -13.25 -13.4 -16.1L-13.7 -17.7L-13.45 -18.75Q-12.95 -19.75 -11.3 -20.15Q-6.95 -20.25 -3.15 -16.1Q-1.6 -14.4 -0.7 -12.65" />
</g>
</svg>
