<?xml version="1.0" encoding="utf-8"?>
<svg version="1.1" id="Layer_1"
xmlns="http://www.w3.org/2000/svg"
xmlns:xlink="http://www.w3.org/1999/xlink"
width="9px" height="8px"
xml:space="preserve">
<g id="PathID_3165" transform="matrix(1, 0, 0, 1, 3.9, 3.8)">
<path style="fill:#875729;fill-opacity:1" d="M-3.7 -0.6L-3.8 -0.85Q-4.15 -2.25 -3.5 -3.1Q-2.2 -4 -0.9 -3.7Q0.65 -3.35 1.5 -2.3L1.7 -2.05Q1.95 0.15 1.35 2.05L-0.1 0.75Q-2.85 0.4 -3.7 -0.6" />
<linearGradient
id="LinearGradID_763" gradientUnits="userSpaceOnUse" gradientTransform="matrix(0.00192261, 7.62939e-005, -0.000106812, 0.00337219, 2.95, 1.1)" spreadMethod ="pad" x1="-819.2" y1="0" x2="819.2" y2="0" >
<stop  offset="0" style="stop-color:#875729;stop-opacity:1" />
<stop  offset="0.32549" style="stop-color:#5A4832;stop-opacity:1" />
</linearGradient>
<path style="fill:url(#LinearGradID_763) " d="M2.85 -1.3L3.05 -1.55Q3.4 -2 4.1 -1.15L4.2 0Q3.25 -0.3 2.7 1.1Q3.25 -0.3 4.2 0L4.2 0.8Q2.85 3.05 1.95 2.6L1.35 2.05Q1.95 0.15 1.7 -2.05L2.5 -1.15Q2.6 -1.1 2.85 -1.3Q3.05 -2.4 3.45 -2.1L4 -1.6L4 -1.3L4.05 -1.25L4.1 -1.15Q3.4 -2 3.05 -1.55L2.85 -1.3" />
<path style="fill:#78583A;fill-opacity:1" d="M4.05 -1.25L4.15 -1.1L4.1 -1.15L4.05 -1.25" />
<path style="fill:#582E16;fill-opacity:1" d="M-0.1 0.75L1.35 2.05L1 3.1Q-0.1 2.3 -1.6 1.45Q-3.25 0.45 -3.55 -0.15L-3.7 -0.6Q-2.85 0.4 -0.1 0.75" />
<linearGradient
id="LinearGradID_764" gradientUnits="userSpaceOnUse" gradientTransform="matrix(0.00117493, 0.000595093, -0.000793457, 0.00154114, 2.1, 3)" spreadMethod ="pad" x1="-819.2" y1="0" x2="819.2" y2="0" >
<stop  offset="0" style="stop-color:#582E16;stop-opacity:1" />
<stop  offset="0.32549" style="stop-color:#301E10;stop-opacity:1" />
</linearGradient>
<path style="fill:url(#LinearGradID_764) " d="M3.35 3.35L2.7 3.75Q2.05 3.9 1.3 3.3L1 3.1L1.35 2.05L1.95 2.6Q2.85 3.05 4.2 0.8Q3.9 2.8 3.35 3.35" />
<path style="fill:none;stroke-width:0.7;stroke-linecap:round;stroke-linejoin:round;stroke-miterlimit:3;stroke:#000000;stroke-opacity:0.301961" d="M4.2 0.8L4.2 0Q3.25 -0.3 2.7 1.1" />
<path style="fill:none;stroke-width:0.7;stroke-linecap:round;stroke-linejoin:round;stroke-miterlimit:3;stroke:#000000;stroke-opacity:0.301961" d="M2.5 -1.15Q2.6 -1.1 2.85 -1.3Q3.05 -2.4 3.45 -2.1L4 -1.6L4 -1.3L4.05 -1.25L4.15 -1.1L4.1 -1.15L4.2 0" />
<path style="fill:none;stroke-width:0.7;stroke-linecap:round;stroke-linejoin:round;stroke-miterlimit:3;stroke:#000000;stroke-opacity:0.301961" d="M4.05 -1.25L4.1 -1.15Q3.4 -2 3.05 -1.55L2.85 -1.3" />
<path style="fill:none;stroke-width:0.7;stroke-linecap:round;stroke-linejoin:round;stroke-miterlimit:3;stroke:#000000;stroke-opacity:0.301961" d="M-3.7 -0.6L-3.8 -0.85" />
<path style="fill:none;stroke-width:0.7;stroke-linecap:round;stroke-linejoin:round;stroke-miterlimit:3;stroke:#000000;stroke-opacity:0.301961" d="M-3.7 -0.6L-3.55 -0.15Q-3.25 0.45 -1.6 1.45Q-0.1 2.3 1 3.1" />
<path style="fill:none;stroke-width:0.7;stroke-linecap:round;stroke-linejoin:round;stroke-miterlimit:3;stroke:#000000;stroke-opacity:0.301961" d="M1 3.1L1.3 3.3Q2.05 3.9 2.7 3.75L3.35 3.35Q3.9 2.8 4.2 0.8" />
</g>
</svg>
