<?xml version="1.0" encoding="utf-8"?>
<svg version="1.1" id="Layer_1"
xmlns="http://www.w3.org/2000/svg"
xmlns:xlink="http://www.w3.org/1999/xlink"
width="28px" height="32px"
xml:space="preserve">
<g id="PathID_3555" transform="matrix(1, 0, 0, 1, 15.25, 18.25)">
<path style="fill:#084A88;fill-opacity:1" d="M-2.45 -8L-1.95 -9.75Q-1.6 -11.15 -2.85 -12.1L-3 -12.5Q-0.75 -11.15 -1.3 -9.85L-2.45 -8M2.05 -10.9Q1.6 -10.45 1.8 -9.65L-0.15 -8.3Q-0.05 -9.3 2.05 -10.9" />
<radialGradient
id="RadialGradID_817" gradientUnits="userSpaceOnUse" gradientTransform="matrix(0.00401306, 0.0111237, -0.020874, 0.00749207, 6.1, -9.4)" spreadMethod ="pad" cx="0" cy="0" r="819.2" fx="0" fy="0" >
<stop  offset="0.505882"  style="stop-color:#955F33;stop-opacity:1" />
<stop  offset="1"  style="stop-color:#DD8A3C;stop-opacity:1" />
</radialGradient>
<path style="fill:url(#RadialGradID_817) " d="M-1.3 -9.85Q-0.45 -11.3 2.35 -11.15L2.05 -10.9Q-0.05 -9.3 -0.15 -8.3L1.8 -9.65Q4.65 -9.85 6.5 -7.9Q8.35 -6 9.15 -4.05Q9.65 -2.75 10.25 -2.05L10.8 -1.55L11.9 -0.7Q9.85 2.85 4.55 3.55L-1.45 3.3Q-4.75 1.85 -6 0.65Q-7.35 -0.7 -7 -2.4L-6.15 -6.2L-5.15 -7.4L-4.65 -7.9L-4.6 -7.85L-4.55 -7.95Q-2.2 -10.1 -2.85 -12.1Q-1.6 -11.15 -1.95 -9.75L-2.45 -8L-1.3 -9.85" />
<path style="fill:#7D5334;fill-opacity:1" d="M-7 -2.4Q-7.35 -0.7 -6 0.65Q-4.75 1.85 -1.45 3.3L4.55 3.55Q9.85 2.85 11.9 -0.7L12.1 0.7Q12 2.15 11 3.4L10.75 3.7L9 5.1Q6.3 6.8 4.6 7.5L2.5 8.25Q0.55 7.05 -0.75 6.55L-3.6 5.75Q-5.15 5.4 -6.45 4.05Q-7.8 2.7 -7.75 -0.65Q-7.7 -4 -6.15 -6.2L-7 -2.4" />
<path style="fill:#808080;fill-opacity:1" d="M-4.65 -7.9L-4.55 -7.95L-4.6 -7.85L-4.65 -7.9" />
</g>
<g id="PathID_3556" transform="matrix(1, 0, 0, 1, 15.25, 18.25)">
<radialGradient
id="RadialGradID_818" gradientUnits="userSpaceOnUse" gradientTransform="matrix(0.0141144, 0, 0, 0.0141144, 2.25, 3.7)" spreadMethod ="pad" cx="0" cy="0" r="819.2" fx="0" fy="0" >
<stop  offset="0.505882"  style="stop-color:#9E8988;stop-opacity:1" />
<stop  offset="1"  style="stop-color:#9E8988;stop-opacity:0" />
</radialGradient>
<path style="fill:url(#RadialGradID_818) " d="M-2.05 2.8Q0.4 3.65 2.8 3.65L3.6 3.65L4.05 3.6L4.1 3.6L4.85 3.5Q6.9 3.2 8.65 2.3Q10.95 1.1 12.35 -1L12.45 -0.95Q14.1 4.2 2.4 8.35L2.3 8.2Q-0.35 6.5 -3 5.95Q-8.1 4.55 -8.2 -0.85Q-6.2 0.8 -4.25 1.8L-2.05 2.8" />
<radialGradient
id="RadialGradID_819" gradientUnits="userSpaceOnUse" gradientTransform="matrix(0.000747681, -0.00335693, 0.00898743, 0.0019989, -0.05, 3.55)" spreadMethod ="pad" cx="0" cy="0" r="819.2" fx="0" fy="0" >
<stop  offset="0.505882"  style="stop-color:#FAE4B3;stop-opacity:1" />
<stop  offset="1"  style="stop-color:#FAE4B3;stop-opacity:0" />
</radialGradient>
<path style="fill:url(#RadialGradID_819) " d="M4.85 3.5L4.1 3.6L4.05 3.6L3.6 3.65L2.8 3.65Q0.4 3.65 -2.05 2.8L-4.25 1.8L-4.2 1.75Q-0.65 0.5 4 2.9L4.8 3.35L4.85 3.5" />
</g>
<g id="PathID_3557" transform="matrix(1, 0, 0, 1, 15.25, 18.25)">
<path style="fill:none;stroke-width:0.7;stroke-linecap:round;stroke-linejoin:miter;stroke-miterlimit:5;stroke:#000000;stroke-opacity:0.4" d="M-3 5.9Q-5.15 5.4 -6.45 4.05Q-7.8 2.7 -7.75 -0.65Q-7.7 -4 -6.15 -6.2L-5.15 -7.4L-4.65 -7.9L-4.55 -7.95Q-2.2 -10.1 -2.85 -12.1L-3 -12.5Q-0.75 -11.15 -1.3 -9.85Q-0.45 -11.3 2.35 -11.15L2.05 -10.9Q1.6 -10.45 1.8 -9.65Q4.65 -9.85 6.5 -7.9Q8.35 -6 9.15 -4.05Q9.65 -2.75 10.25 -2.05L10.8 -1.55L11.9 -0.7L12.1 0.7Q12 2.15 11 3.4L10.75 3.7L9 5.1L4.55 7.55" />
</g>
<g id="PathID_3558" transform="matrix(1, 0, 0, 1, 15.25, 18.25)">
<path style="fill:#FFD3A9;fill-opacity:1" d="M9.5 -0.35Q10.35 -0.85 11.25 -0.8Q10.9 0.35 9.5 -0.35" />
<path style="fill:#DEA075;fill-opacity:1" d="M11.25 -0.8L11.55 -0.8L11.9 -0.15Q11 0.95 11.25 1.3L10.75 1.6Q10.95 1 10.15 0.6Q9.15 0.6 9 -0.05L9.5 -0.35Q10.9 0.35 11.25 -0.8" />
<path style="fill:#33211B;fill-opacity:1" d="M10.4 1.75Q10.05 0.6 9.05 0.9L8.7 0.2L9 -0.05Q9.15 0.6 10.15 0.6Q10.95 1 10.75 1.6L10.4 1.75" />
<path style="fill:none;stroke-width:0.7;stroke-linecap:round;stroke-linejoin:round;stroke-miterlimit:3;stroke:#000000;stroke-opacity:0.301961" d="M9.5 -0.35L9 -0.05" />
<path style="fill:none;stroke-width:0.7;stroke-linecap:round;stroke-linejoin:round;stroke-miterlimit:3;stroke:#000000;stroke-opacity:0.301961" d="M10.75 1.6L11.25 1.3Q11 0.95 11.9 -0.15L11.55 -0.8L11.25 -0.8" />
<path style="fill:none;stroke-width:0.7;stroke-linecap:round;stroke-linejoin:round;stroke-miterlimit:3;stroke:#000000;stroke-opacity:0.301961" d="M9.5 -0.35Q10.35 -0.85 11.25 -0.8" />
<path style="fill:none;stroke-width:0.7;stroke-linecap:round;stroke-linejoin:round;stroke-miterlimit:3;stroke:#000000;stroke-opacity:0.301961" d="M9 -0.05L8.7 0.2L9.05 0.9Q10.05 0.6 10.4 1.75L10.75 1.6" />
</g>
<g id="PathID_3559" transform="matrix(1, 0, 0, 1, 15.25, 18.25)">
<path style="fill:#351900;fill-opacity:1" d="M2.3 -1.2Q1.7 -2.95 0.65 -3.3Q-2.9 -3.25 -3.15 -1.95Q-3.5 -0.35 -2.35 0.6Q-1.2 1.5 0.95 1.5Q-1.65 2.55 -3.3 0.75Q-4.75 -0.8 -4.45 -2.25Q-3.7 -3.15 -2 -3.8Q-0.2 -4.5 1 -4.2Q1.9 -3.9 2.5 -2.3L3.25 -0.65Q3.75 0.5 4.4 0.65L4.35 0.8L3.1 0.75L2.3 -1.2" />
<path style="fill:#FFF3E4;fill-opacity:1" d="M3.1 0.75Q2.2 1.35 0.95 1.5Q-1.2 1.5 -2.35 0.6Q-3.5 -0.35 -3.15 -1.95Q-2.9 -3.25 0.65 -3.3Q1.7 -2.95 2.3 -1.2L3.1 0.75" />
</g>
<g id="PathID_3560" transform="matrix(1, 0, 0, 1, 15.25, 18.25)">
<path style="fill:#442517;fill-opacity:1" d="M3.15 -5.2Q-0.25 -4.7 -1.95 -5.75L-2.4 -6.25L-1.95 -5.75Q-1.45 -3.6 -2.15 -2.3Q-2.35 -4.6 -3.75 -6.65L-4.1 -6.8Q-7.5 -8.35 -8.4 -12.9Q-11.1 -13.3 -12.1 -16.1Q-10.5 -15.25 -8.8 -15.55Q-9.65 -16.8 -9.65 -18.2Q-5.05 -17.55 -0.35 -15.8Q-0.1 -16.3 -0.75 -16.95Q1.45 -16.15 4.05 -13.9Q3.9 -14.35 3.9 -14.75Q4.9 -12.25 6.25 -11.15Q5.2 -11.35 3.95 -12.85Q4.05 -11.7 5 -10.45Q1.95 -12.8 -0.5 -13.8Q0.65 -12.6 0.9 -11.75Q-2.15 -14.15 -5.2 -14.8L-4.45 -13.7Q-5.7 -13.4 -6.95 -14.8Q-3.35 -6.05 1.75 -5.85Q2.4 -5.45 3.15 -5.2M1.15 -6.35Q0.5 -6.95 0.1 -7.7Q4.6 -6.35 6 -4.2Q3.45 -6.35 1.15 -6.35M6.45 -5.65L5.65 -7Q7.75 -6.3 9.15 -4.9Q9.9 -6.2 8.7 -9.45L9.8 -8.45Q10.45 -6.95 10.35 -5.1L9.95 -5.65Q9.95 -4.3 9.15 -3.9L6.45 -5.65M-3.9 0.25Q-4.65 -1.25 -4.5 -2.6L-3.1 -3.65Q-4.1 -1.95 -3.9 0.25M-6.9 2.9Q-5.85 1.35 -5.5 -2.1L-4.65 -0.65Q-5.15 2.25 -6.9 2.9" />
<linearGradient
id="LinearGradID_820" gradientUnits="userSpaceOnUse" gradientTransform="matrix(-0.000946045, 0.00395203, -0.00724792, -0.00170898, 1.45, -9.9)" spreadMethod ="pad" x1="-819.2" y1="0" x2="819.2" y2="0" >
<stop  offset="0.505882" style="stop-color:#834E1F;stop-opacity:1" />
<stop  offset="1" style="stop-color:#60381B;stop-opacity:1" />
</linearGradient>
<path style="fill:url(#LinearGradID_820) " d="M8.7 -9.45Q9.9 -6.2 9.15 -4.9Q7.75 -6.3 5.65 -7L6.45 -5.65Q7.05 -4.5 6.8 -3.5L6 -4.2Q4.6 -6.35 0.1 -7.7Q0.5 -6.95 1.15 -6.35L1.75 -5.85Q-3.35 -6.05 -6.95 -14.8Q-5.7 -13.4 -4.45 -13.7L-5.2 -14.8Q-2.15 -14.15 0.9 -11.75Q0.65 -12.6 -0.5 -13.8Q1.95 -12.8 5 -10.45Q4.05 -11.7 3.95 -12.85Q5.2 -11.35 6.25 -11.15Q4.9 -12.25 3.9 -14.75Q3.9 -15.3 4.2 -15.75Q4.75 -14.15 8 -11Q9.2 -9.85 9.8 -8.45L8.7 -9.45" />
<path style="fill:#261813;fill-opacity:1" d="M-2.25 -2.2Q-2.75 -2.45 -3.1 -3.65L-4.5 -2.6Q-4.65 -1.25 -3.9 0.25L-3.85 0.9L-3.85 0.95Q-4.45 0.6 -4.65 -0.65L-5.5 -2.1Q-5.85 1.35 -6.9 2.9L-6.95 2.9Q-7.15 1.3 -8.25 -1.2L-8.65 -0.25Q-12.6 -6.3 -10.7 -13.1Q-12.1 -13.55 -12.15 -16.15L-12.1 -16.1Q-11.1 -13.3 -8.4 -12.9Q-7.5 -8.35 -4.1 -6.8L-3.75 -6.65Q-2.35 -4.6 -2.15 -2.3L-2.25 -2.2" />
<path style="fill:none;stroke-width:0.7;stroke-linecap:round;stroke-linejoin:miter;stroke-miterlimit:5;stroke:#000000;stroke-opacity:0.4" d="M9.8 -8.45Q9.2 -9.85 8 -11Q4.75 -14.15 4.2 -15.75Q3.9 -15.3 3.9 -14.75" />
<path style="fill:none;stroke-width:0.7;stroke-linecap:round;stroke-linejoin:miter;stroke-miterlimit:5;stroke:#000000;stroke-opacity:0.4" d="M1.75 -5.85L1.15 -6.35" />
<path style="fill:none;stroke-width:0.7;stroke-linecap:round;stroke-linejoin:miter;stroke-miterlimit:5;stroke:#000000;stroke-opacity:0.4" d="M6 -4.2L6.8 -3.5Q7.05 -4.5 6.45 -5.65L5.65 -7" />
<path style="fill:none;stroke-width:0.7;stroke-linecap:round;stroke-linejoin:miter;stroke-miterlimit:5;stroke:#000000;stroke-opacity:0.4" d="M9.8 -8.45Q10.45 -6.95 10.35 -5.1L9.95 -5.65Q9.95 -4.3 9.15 -3.9L6.45 -5.65" />
<path style="fill:none;stroke-width:0.7;stroke-linecap:round;stroke-linejoin:miter;stroke-miterlimit:5;stroke:#000000;stroke-opacity:0.4" d="M3.9 -14.75Q3.9 -14.35 4.05 -13.9Q1.45 -16.15 -0.75 -16.95Q-0.1 -16.3 -0.35 -15.8Q-5.05 -17.55 -9.65 -18.2Q-9.65 -16.8 -8.8 -15.55Q-10.5 -15.25 -12.1 -16.1" />
<path style="fill:none;stroke-width:0.7;stroke-linecap:round;stroke-linejoin:miter;stroke-miterlimit:5;stroke:#000000;stroke-opacity:0.4" d="M-2.15 -2.3Q-1.45 -3.6 -1.95 -5.75L-2.4 -6.25" />
<path style="fill:none;stroke-width:0.7;stroke-linecap:round;stroke-linejoin:miter;stroke-miterlimit:5;stroke:#000000;stroke-opacity:0.4" d="M-1.95 -5.75Q-0.25 -4.7 3.15 -5.2Q2.4 -5.45 1.75 -5.85" />
<path style="fill:none;stroke-width:0.7;stroke-linecap:round;stroke-linejoin:miter;stroke-miterlimit:5;stroke:#000000;stroke-opacity:0.4" d="M1.15 -6.35Q3.45 -6.35 6 -4.2" />
<path style="fill:none;stroke-width:0.7;stroke-linecap:round;stroke-linejoin:miter;stroke-miterlimit:5;stroke:#000000;stroke-opacity:0.4" d="M-6.9 2.9L-6.95 2.9Q-7.15 1.3 -8.25 -1.2L-8.65 -0.25Q-12.6 -6.3 -10.7 -13.1Q-12.1 -13.55 -12.15 -16.15L-12.1 -16.1" />
<path style="fill:none;stroke-width:0.7;stroke-linecap:round;stroke-linejoin:miter;stroke-miterlimit:5;stroke:#000000;stroke-opacity:0.4" d="M-3.1 -3.65Q-2.75 -2.45 -2.25 -2.2L-2.15 -2.3" />
<path style="fill:none;stroke-width:0.7;stroke-linecap:round;stroke-linejoin:miter;stroke-miterlimit:5;stroke:#000000;stroke-opacity:0.4" d="M-4.65 -0.65Q-4.45 0.6 -3.85 0.95L-3.85 0.9L-3.9 0.25Q-4.1 -1.95 -3.1 -3.65" />
<path style="fill:none;stroke-width:0.7;stroke-linecap:round;stroke-linejoin:miter;stroke-miterlimit:5;stroke:#000000;stroke-opacity:0.4" d="M-4.65 -0.65Q-5.15 2.25 -6.9 2.9" />
</g>
<g id="PathID_3561" transform="matrix(1, 0, 0, 1, 15.25, 18.25)">
<path style="fill:#261813;fill-opacity:1" d="M-5.1 5.15L-6.15 2.45Q-10.45 0.4 -12.6 0.25Q-13.3 2.95 -12.95 4.9Q-13.7 4.65 -13.7 1.55L-13.85 3.05Q-14.1 7.1 -11.5 9.2L-11.1 9.5L-11.2 10.6Q-15.55 8.5 -14.15 3L-15.2 3.85L-14.95 2.85Q-14.55 0.25 -14.25 -5.8Q-14 -10.95 -10.9 -13.8Q-6.95 -9.65 -6.2 -1.1Q-6.25 0.85 -5.6 2.2L-5.2 2.9Q-4.35 4.05 -2.9 4.6L-5.1 5.15" />
<linearGradient
id="LinearGradID_821" gradientUnits="userSpaceOnUse" gradientTransform="matrix(-0.00379944, 0.00526428, -0.00538635, -0.00389099, -2.55, -3.45)" spreadMethod ="pad" x1="-819.2" y1="0" x2="819.2" y2="0" >
<stop  offset="0.505882" style="stop-color:#8E5828;stop-opacity:1" />
<stop  offset="1" style="stop-color:#60381B;stop-opacity:1" />
</linearGradient>
<path style="fill:url(#LinearGradID_821) " d="M3.75 11Q4.65 8.3 9.45 4.6L10 4.35Q10.35 7 9.6 8.15L9 6.15Q9.4 8.5 6.55 10.1L6.2 10.3L3.75 11" />
<path style="fill:#442517;fill-opacity:1" d="M4 11.6Q2.55 12.4 2.45 12.6Q1.8 10.2 0.3 8.9Q-6.8 10 -8.35 7.65L-7.65 9.5Q-9.65 8.85 -10.1 7.55Q-10.5 8.5 -9.85 9.3Q-10.4 9.35 -10.7 8.8L-11.1 9.5L-11.5 9.2Q-11.55 7.55 -10.7 6.25Q-9.65 8.1 -8.45 8.75L-8.75 6.65Q-8.05 7.45 -7.4 7.4Q-5.2 10 0.45 8.35Q-4.45 8.1 0.4 7.8Q2.6 10.1 2.6 11.85L3.35 10.7L3.35 10.65Q4.75 8.55 4.45 7L4.3 7L9.45 4.6Q4.65 8.3 3.75 11L6.2 10.3L4.05 11.55L4 11.6" />
<linearGradient
id="LinearGradID_822" gradientUnits="userSpaceOnUse" gradientTransform="matrix(-0.00643921, -0.000823975, 0.000839233, -0.0065918, -5.7, 7.7)" spreadMethod ="pad" x1="-819.2" y1="0" x2="819.2" y2="0" >
<stop  offset="0.505882" style="stop-color:#834E1F;stop-opacity:1" />
<stop  offset="1" style="stop-color:#60381B;stop-opacity:1" />
</linearGradient>
<path style="fill:url(#LinearGradID_822) " d="M4.45 7Q4.75 8.55 3.35 10.65L3.35 10.7L2.6 11.85Q2.6 10.1 0.4 7.8Q-4.45 8.1 0.45 8.35Q-5.2 10 -7.4 7.4Q-8.05 7.45 -8.75 6.65L-8.45 8.75Q-9.65 8.1 -10.7 6.25Q-11.55 7.55 -11.5 9.2Q-14.1 7.1 -13.85 3.05L-13.7 1.55Q-13.7 4.65 -12.95 4.9Q-13.3 2.95 -12.6 0.25Q-10.45 0.4 -6.15 2.45L-5.1 5.15L-2.9 4.6L-2.5 4.7Q3.35 4.75 4.3 7L4.45 7" />
<path style="fill:none;stroke-width:0.7;stroke-linecap:round;stroke-linejoin:miter;stroke-miterlimit:5;stroke:#000000;stroke-opacity:0.4" d="M-2.9 4.6Q-4.35 4.05 -5.2 2.9L-5.6 2.2Q-6.25 0.85 -6.2 -1.1Q-6.95 -9.65 -10.9 -13.8Q-14 -10.95 -14.25 -5.8Q-14.55 0.25 -14.95 2.85L-15.2 3.85L-14.15 3Q-15.55 8.5 -11.2 10.6L-11.1 9.5" />
<path style="fill:none;stroke-width:0.7;stroke-linecap:round;stroke-linejoin:miter;stroke-miterlimit:5;stroke:#000000;stroke-opacity:0.4" d="M-2.9 4.6L-2.5 4.7Q3.35 4.75 4.3 7L9.45 4.6L10 4.35Q10.35 7 9.6 8.15L9 6.15Q9.4 8.5 6.55 10.1L6.2 10.3L4.05 11.55L4.05 11.6L4 11.6Q2.55 12.4 2.45 12.6Q1.8 10.2 0.3 8.9Q-6.8 10 -8.35 7.65L-7.65 9.5Q-9.65 8.85 -10.1 7.55Q-10.5 8.5 -9.85 9.3Q-10.4 9.35 -10.7 8.8L-11.1 9.5" />
</g>
</svg>
