<?xml version="1.0" encoding="utf-8"?>
<svg version="1.1" id="Layer_1"
xmlns="http://www.w3.org/2000/svg"
xmlns:xlink="http://www.w3.org/1999/xlink"
width="23px" height="41px"
xml:space="preserve">
<g id="PathID_4532" transform="matrix(1, 0, 0, 1, 13.8, 20.15)">
<path style="fill:#8E542E;fill-opacity:1" d="M-2.95 12.4Q-4.95 6.4 -3.75 0.9L-3.05 -1.3Q-2.45 -4.05 -3.55 -6.7Q-4.4 -8.8 -7 -10.15L-6.65 -12.75L-7.2 -12L-8.45 -10.8L-9.15 -11.05Q-13.6 -12.55 -13.65 -15.2Q-13.7 -16.65 -13.4 -17.65Q-11.6 -19.6 -9.5 -19.1Q-5.8 -18.1 -2.2 -13.45Q-0.4 -11.3 0.7 -6.6Q0.9 -3.65 0.3 -0.15Q-0.05 1.85 -0.05 3Q-0.05 4.25 0.35 5.45Q1.55 10.65 6.95 13.4Q10 17.1 7.05 19Q-0.95 18.4 -2.95 12.4" />
<path style="fill:#B67144;fill-opacity:1" d="M-12.65 -19Q-11.55 -20.15 -10.15 -19.95Q-6.75 -19.45 -3.3 -15.85Q-0.8 -13.55 0.15 -9.7L0.7 -6.6Q-0.4 -11.3 -2.2 -13.45Q-5.8 -18.1 -9.5 -19.1Q-11.6 -19.6 -13.4 -17.65L-12.65 -19M-7.4 -10.35L-7.2 -12L-6.65 -12.75L-7 -10.15L-7.4 -10.35" />
<path style="fill:#593118;fill-opacity:1" d="M-3.75 0.9Q-4.95 6.4 -2.95 12.4Q-0.95 18.4 7.05 19L5.45 19.75Q-2.35 18.7 -4.2 10.05Q-5.15 6.05 -3.75 0.9" />
<path style="fill:none;stroke-width:0.7;stroke-linecap:round;stroke-linejoin:miter;stroke-miterlimit:5;stroke:#000000;stroke-opacity:0.4" d="M7.05 19Q10 17.1 6.95 13.4Q1.55 10.65 0.35 5.45Q-0.05 4.25 -0.05 3Q-0.05 1.85 0.3 -0.15Q0.9 -3.65 0.7 -6.6" />
<path style="fill:none;stroke-width:0.7;stroke-linecap:round;stroke-linejoin:miter;stroke-miterlimit:5;stroke:#000000;stroke-opacity:0.4" d="M-13.4 -17.65Q-13.7 -16.65 -13.65 -15.2Q-13.6 -12.55 -9.15 -11.05L-8.45 -10.8L-7.2 -12" />
<path style="fill:none;stroke-width:0.7;stroke-linecap:round;stroke-linejoin:miter;stroke-miterlimit:5;stroke:#000000;stroke-opacity:0.4" d="M-7 -10.15Q-4.4 -8.8 -3.55 -6.7Q-2.45 -4.05 -3.05 -1.3L-3.75 0.9" />
<path style="fill:none;stroke-width:0.7;stroke-linecap:round;stroke-linejoin:miter;stroke-miterlimit:5;stroke:#000000;stroke-opacity:0.4" d="M7.05 19L5.45 19.75Q-2.35 18.7 -4.2 10.05Q-5.15 6.05 -3.75 0.9" />
<path style="fill:none;stroke-width:0.7;stroke-linecap:round;stroke-linejoin:miter;stroke-miterlimit:5;stroke:#000000;stroke-opacity:0.4" d="M0.7 -6.6L0.15 -9.7Q-0.8 -13.55 -3.3 -15.85Q-6.75 -19.45 -10.15 -19.95Q-11.55 -20.15 -12.65 -19L-13.4 -17.65" />
<path style="fill:none;stroke-width:0.7;stroke-linecap:round;stroke-linejoin:miter;stroke-miterlimit:5;stroke:#000000;stroke-opacity:0.4" d="M-7.2 -12L-7.4 -10.35L-7 -10.15" />
</g>
<g id="PathID_4533" transform="matrix(1, 0, 0, 1, 13.8, 20.15)">
<path style="fill:#000000;fill-opacity:0.301961" d="M-1.95 -6.95Q-5.15 -12.45 -8.95 -13.55Q-13.45 -14.95 -11.1 -16.5Q-8.25 -16.2 -5.75 -13.85Q-3.05 -11.3 -1.95 -6.95M-0.75 11.2Q0.8 16 5.1 18.1Q1.2 18 -1.15 14.7Q-4.2 9.6 -2.65 4.15Q-1.45 -1 -1.4 -5.3Q-0.25 -2.45 -1.05 1.25Q-2.9 6.7 -0.75 11.2" />
</g>
<g id="PathID_4534" transform="matrix(1, 0, 0, 1, 13.8, 20.15)">
<path style="fill:#E9DBCB;fill-opacity:1" d="M-7.5 -15.25Q-7.5 -15.85 -9.3 -16.5Q-11.1 -17.2 -11.1 -16.5Q-11.1 -16.35 -7.85 -15L-7.65 -15.05Q-7.5 -15.1 -7.5 -15.25M-10.55 -17.15Q-6.5 -16.6 -3 -11.4Q0.5 -6.25 -0.9 2.55Q-2.3 11.35 2.85 13.85Q8 16.35 7.65 17Q7.25 17.65 5.25 18.35Q0.85 16.8 -1.15 13.25Q-3.2 9.7 -2.5 5.05L-1.65 0.35Q-1.2 -2.45 -1.6 -4.45Q-2.4 -8.35 -4.9 -11.65L-7.25 -14.2L-10.25 -15.3Q-12.25 -15.9 -11.8 -16.5Q-11.25 -17.25 -10.55 -17.15" />
<path style="fill:#FFFFFF;fill-opacity:1" d="M-7.65 -15.05L-7.85 -15Q-11.1 -16.35 -11.1 -16.5Q-11.1 -17.2 -9.3 -16.5Q-7.5 -15.85 -7.5 -15.25Q-7.5 -15.1 -7.65 -15.05" />
</g>
</svg>
