<?xml version="1.0" encoding="utf-8"?>
<svg version="1.1" id="Layer_1"
xmlns="http://www.w3.org/2000/svg"
xmlns:xlink="http://www.w3.org/1999/xlink"
width="9px" height="8px"
xml:space="preserve">
<g id="PathID_3575" transform="matrix(1, 0, 0, 1, 3.9, 3.8)">
<radialGradient
id="RadialGradID_829" gradientUnits="userSpaceOnUse" gradientTransform="matrix(0.00891113, 0, 0, 0.0103149, 3.5, 0.55)" spreadMethod ="pad" cx="0" cy="0" r="819.2" fx="210534" fy="0" >
<stop  offset="0.294118"  style="stop-color:#5A3F2E;stop-opacity:1" />
<stop  offset="0.54902"  style="stop-color:#FAC47E;stop-opacity:1" />
<stop  offset="0.74902"  style="stop-color:#FAC47E;stop-opacity:1" />
<stop  offset="1"  style="stop-color:#935E37;stop-opacity:1" />
</radialGradient>
<path style="fill:url(#RadialGradID_829) " d="M2.85 -1.3L3.05 -1.55Q3.4 -1.95 4.05 -1.25Q3.4 -1.95 3.05 -1.55L2.85 -1.3Q3.05 -2.4 3.45 -2.1L4 -1.6L4 -1.3L4.05 -1.25L4.1 -1.15L4.2 0Q3.25 -0.3 2.7 1.1Q3.25 -0.3 4.2 0L4.2 0.8Q2.85 3.05 1.95 2.6L-0.1 0.75Q-2.85 0.4 -3.7 -0.6L-3.8 -0.85Q-4.15 -2.25 -3.5 -3.1Q-2.2 -4 -0.9 -3.7Q0.65 -3.35 1.5 -2.3L2.5 -1.15Q2.6 -1.1 2.85 -1.3" />
<path style="fill:#3A94BB;fill-opacity:1" d="M4.05 -1.25L4.1 -1.15L4.05 -1.25" />
<path style="fill:#78583A;fill-opacity:1" d="M4.15 -1.1L4.1 -1.15L4.05 -1.25L4.15 -1.1" />
<radialGradient
id="RadialGradID_830" gradientUnits="userSpaceOnUse" gradientTransform="matrix(0.00427246, 4.57764e-005, -6.10352e-005, 0.00587463, 2.5, 1.95)" spreadMethod ="pad" cx="0" cy="0" r="819.2" fx="0" fy="0" >
<stop  offset="0.34902"  style="stop-color:#302921;stop-opacity:1" />
<stop  offset="1"  style="stop-color:#76594B;stop-opacity:1" />
</radialGradient>
<path style="fill:url(#RadialGradID_830) " d="M3.35 3.35L2.7 3.75Q2.05 3.9 1.3 3.3Q0.1 2.4 -1.6 1.45Q-3.25 0.45 -3.55 -0.15L-3.7 -0.6Q-2.85 0.4 -0.1 0.75L1.95 2.6Q2.85 3.05 4.2 0.8Q3.9 2.8 3.35 3.35" />
<path style="fill:none;stroke-width:0.7;stroke-linecap:round;stroke-linejoin:round;stroke-miterlimit:3;stroke:#000000;stroke-opacity:0.301961" d="M-3.8 -0.85L-3.7 -0.6" />
<path style="fill:none;stroke-width:0.7;stroke-linecap:round;stroke-linejoin:round;stroke-miterlimit:3;stroke:#000000;stroke-opacity:0.301961" d="M4.2 0.8L4.2 0Q3.25 -0.3 2.7 1.1" />
<path style="fill:none;stroke-width:0.7;stroke-linecap:round;stroke-linejoin:round;stroke-miterlimit:3;stroke:#000000;stroke-opacity:0.301961" d="M4.05 -1.25L4.1 -1.15L4.05 -1.25L4 -1.3L4 -1.6L3.45 -2.1Q3.05 -2.4 2.85 -1.3L3.05 -1.55Q3.4 -1.95 4.05 -1.25z" />
<path style="fill:none;stroke-width:0.7;stroke-linecap:round;stroke-linejoin:round;stroke-miterlimit:3;stroke:#000000;stroke-opacity:0.301961" d="M4.1 -1.15L4.15 -1.1L4.05 -1.25" />
<path style="fill:none;stroke-width:0.7;stroke-linecap:round;stroke-linejoin:round;stroke-miterlimit:3;stroke:#000000;stroke-opacity:0.301961" d="M4.1 -1.15L4.2 0" />
<path style="fill:none;stroke-width:0.7;stroke-linecap:round;stroke-linejoin:round;stroke-miterlimit:3;stroke:#000000;stroke-opacity:0.301961" d="M2.85 -1.3Q2.6 -1.1 2.5 -1.15" />
<path style="fill:none;stroke-width:0.7;stroke-linecap:round;stroke-linejoin:round;stroke-miterlimit:3;stroke:#000000;stroke-opacity:0.301961" d="M-3.7 -0.6L-3.55 -0.15Q-3.25 0.45 -1.6 1.45Q0.1 2.4 1.3 3.3Q2.05 3.9 2.7 3.75L3.35 3.35Q3.9 2.8 4.2 0.8" />
</g>
</svg>
