<?xml version="1.0" encoding="utf-8"?>
<svg version="1.1" id="Layer_1"
xmlns="http://www.w3.org/2000/svg"
xmlns:xlink="http://www.w3.org/1999/xlink"
width="10px" height="5px"
xml:space="preserve">
<g id="PathID_3092" transform="matrix(1, 0, 0, 1, 4.6, 2)">
<linearGradient
id="LinearGradID_739" gradientUnits="userSpaceOnUse" gradientTransform="matrix(0.00120544, 0.00183105, -0.00196838, 0.00128174, 1.75, 0.25)" spreadMethod ="pad" x1="-819.2" y1="0" x2="819.2" y2="0" >
<stop  offset="0" style="stop-color:#ED8876;stop-opacity:1" />
<stop  offset="1" style="stop-color:#FFA09C;stop-opacity:1" />
</linearGradient>
<path style="fill:url(#LinearGradID_739) " d="M3.45 0.15Q3.25 -0.05 2.95 -0.6Q3.25 -0.05 3.45 0.15Q3.8 1.05 2.95 1.4L1.6 1.85L1.45 1.85L1.35 1.85L1.1 1.85L1.35 1.7L1.45 1.55Q2.05 0.9 0.95 0.4Q2.05 0.9 1.45 1.55L1.35 1.7L1.1 1.85L0.35 1.9L0.3 1.9Q-0.55 1.95 -1.6 1.4L-3.5 0.55L-4.2 0.05Q-4.7 -0.9 -4 -1.35Q-3.1 -1.95 -1.7 -1.8L1 -1.25L2.95 -0.6L3.6 -0.45Q4.05 -0.45 4.3 0.2Q4.55 0.8 3.9 1.05L2.95 1.4Q3.8 1.05 3.45 0.15" />
<path style="fill:none;stroke-width:0.7;stroke-linecap:round;stroke-linejoin:miter;stroke-miterlimit:5;stroke:#4D1000;stroke-opacity:0.4" d="M2.95 -0.6L1 -1.25L-1.7 -1.8Q-3.1 -1.95 -4 -1.35Q-4.7 -0.9 -4.2 0.05L-3.5 0.55L-1.6 1.4Q-0.55 1.95 0.3 1.9L0.35 1.9L1.1 1.85L1.35 1.7L1.45 1.55Q2.05 0.9 0.95 0.4" />
<path style="fill:none;stroke-width:0.7;stroke-linecap:round;stroke-linejoin:miter;stroke-miterlimit:5;stroke:#4D1000;stroke-opacity:0.4" d="M2.95 1.4L3.9 1.05Q4.55 0.8 4.3 0.2Q4.05 -0.45 3.6 -0.45L2.95 -0.6Q3.25 -0.05 3.45 0.15Q3.8 1.05 2.95 1.4L1.6 1.85L1.45 1.85L1.35 1.85L1.1 1.85" />
</g>
</svg>
