<?xml version="1.0" encoding="utf-8"?>
<svg version="1.1" id="Layer_1"
xmlns="http://www.w3.org/2000/svg"
xmlns:xlink="http://www.w3.org/1999/xlink"
width="10px" height="4px"
xml:space="preserve">
<g id="PathID_3893" transform="matrix(1, 0, 0, 1, 4.6, 1.9)">
<path style="fill:#222027;fill-opacity:1" d="M0 0.85Q-0.3 1.45 0.15 1.8L-0.65 1.55L-3 0.65Q-3.75 0.3 -4.5 0.1Q-4.75 -0.45 -4.45 -0.95Q-4.15 -1.55 -2.55 -1.8L0.25 -1.65L3.25 -0.9Q1.65 -0.55 0.9 0.3Q0.35 0.3 0 0.85" />
<path style="fill:#3E3643;fill-opacity:1" d="M1.5 0.35L0.9 0.3Q1.65 -0.55 3.25 -0.9L3.85 -0.65L2.9 -0.5L2.85 -0.5L2.1 -0.3L1.75 0.35L1.5 0.35" />
<path style="fill:#D59798;fill-opacity:1" d="M4.1 1.05L3.2 1.65Q3.55 1.1 3.25 0.65Q2.9 0.35 1.75 0.35L2.1 -0.3L2.85 -0.5L2.9 -0.5L3.85 -0.65Q4.5 -0.25 4.1 1.05M3.85 -0.65Q4.9 0 4.5 0.7L4.1 1.05Q4.5 -0.25 2.9 -0.5M1.7 0.4Q2.85 0.7 2.85 1.35Q0.85 1.65 0.55 0.8L0.9 0.3L1.5 0.35L1.7 0.4" />
<path style="fill:#BF7071;fill-opacity:1" d="M2.75 1.7L1.95 1.9L2.85 1.35Q2.85 0.7 1.7 0.4L1.75 0.35Q2.9 0.35 3.25 0.65Q3.55 1.1 3.2 1.65L2.75 1.7M1.95 1.9L0.15 1.8Q-0.3 1.45 0 0.85Q0.35 0.3 0.9 0.3L0.55 0.8Q0.85 1.65 2.85 1.35L2.75 1.7" />
<path style="fill:#C4959A;fill-opacity:1" d="M1.5 0.35L1.75 0.35L1.7 0.4L1.5 0.35" />
<path style="fill:none;stroke-width:0.7;stroke-linecap:round;stroke-linejoin:round;stroke-miterlimit:3;stroke:#000000;stroke-opacity:0.301961" d="M2.9 -0.5L2.85 -0.5L2.1 -0.3L1.75 0.35" />
<path style="fill:none;stroke-width:0.7;stroke-linecap:round;stroke-linejoin:round;stroke-miterlimit:3;stroke:#000000;stroke-opacity:0.301961" d="M3.2 1.65L4.1 1.05Q4.5 -0.25 2.9 -0.5L3.85 -0.65L3.25 -0.9" />
<path style="fill:none;stroke-width:0.7;stroke-linecap:round;stroke-linejoin:round;stroke-miterlimit:3;stroke:#000000;stroke-opacity:0.301961" d="M0.9 0.3L1.5 0.35" />
<path style="fill:none;stroke-width:0.7;stroke-linecap:round;stroke-linejoin:round;stroke-miterlimit:3;stroke:#000000;stroke-opacity:0.301961" d="M1.75 0.35L1.7 0.4Q2.85 0.7 2.85 1.35L2.75 1.7L3.2 1.65" />
<path style="fill:none;stroke-width:0.7;stroke-linecap:round;stroke-linejoin:round;stroke-miterlimit:3;stroke:#000000;stroke-opacity:0.301961" d="M0.15 1.8L-0.65 1.55L-3 0.65Q-3.75 0.3 -4.5 0.1Q-4.75 -0.45 -4.45 -0.95Q-4.15 -1.55 -2.55 -1.8L0.25 -1.65L3.25 -0.9" />
<path style="fill:none;stroke-width:0.7;stroke-linecap:round;stroke-linejoin:round;stroke-miterlimit:3;stroke:#000000;stroke-opacity:0.301961" d="M3.85 -0.65Q4.9 0 4.5 0.7L4.1 1.05" />
<path style="fill:none;stroke-width:0.7;stroke-linecap:round;stroke-linejoin:round;stroke-miterlimit:3;stroke:#000000;stroke-opacity:0.301961" d="M2.75 1.7L1.95 1.9L0.15 1.8Q-0.3 1.45 0 0.85Q0.35 0.3 0.9 0.3" />
<path style="fill:none;stroke-width:0.7;stroke-linecap:round;stroke-linejoin:round;stroke-miterlimit:3;stroke:#000000;stroke-opacity:0.301961" d="M1.7 0.4L1.5 0.35" />
</g>
</svg>
