<?xml version="1.0" encoding="utf-8"?>
<svg version="1.1" id="Layer_1"
xmlns="http://www.w3.org/2000/svg"
xmlns:xlink="http://www.w3.org/1999/xlink"
width="17px" height="17px"
xml:space="preserve">
<g id="PathID_3757" transform="matrix(1, 0, 0, 1, 8.9, 8.1)">
<path style="fill:#E0B48D;fill-opacity:1" d="M5.5 4.15L6.25 4.7L6.25 4.75L3.6 4.35L3.75 4.55L5 5.95L3.65 5.45L4.4 6.45Q3.25 7.2 2 7.55L-0.25 7.85L-2.45 7.55L-1.25 4.25L-3.8 7.05Q-5 6.5 -6.05 5.5Q-8.5 3.35 -8.65 0.3L-8.6 0.2L-8.5 0.15L-8.55 0.1L-8 -1.75L-7 -3.65L-6.9 -3.75Q-3.7 -6.95 -0.2 -4.6Q1 -3.9 -0.75 -2.4L-0.8 -2.35L-0.9 -2.25L-1.5 -1.7L-2.4 -0.35Q-0.9 -2.05 1.35 -2.5L3 -2.3Q5 -1 4.4 0.5Q3.8 1.5 4.6 2.85Q4.7 3.65 5.5 4.15M-3.15 4.25L-3.15 2.4Q-3 0.8 -2.4 -0.35Q-3 0.8 -3.15 2.4L-3.15 4.25" />
<path style="fill:#C99A78;fill-opacity:1" d="M5.05 -2.75L5.55 -1.3Q5.7 -0.45 5.3 0.3Q4.45 1.9 4.6 2.85Q3.8 1.5 4.4 0.5Q5 -1 3 -2.3L1.35 -2.5Q-0.9 -2.05 -2.4 -0.35L-1.5 -1.7L-0.9 -2.25L-0.8 -2.35L-0.75 -2.4L0.8 -3.25L4.25 -3.9L5.05 -2.75M-0.2 -4.6Q-3.7 -6.95 -6.9 -3.75L-4.7 -5.55L-3.05 -6.25L-0.65 -6.4L-0.45 -6.4L0.8 -6.05L1.4 -5.75L2.45 -5.2L4.25 -3.9L0.8 -3.25L-0.75 -2.4Q1 -3.9 -0.2 -4.6" />
<path style="fill:#EDDFC5;fill-opacity:1" d="M-7 -3.65L-8 -1.75L-8.55 0.1L-8.65 0.05Q-8.7 -1.5 -8.15 -2.85Q-7.65 -4.4 -6.4 -5.6Q-4 -7.85 -0.65 -7.85L1.8 -7.5Q3.6 -7 5.1 -5.65L5.15 -5.6L5.7 -5.05Q5.55 -3.05 5.05 -2.75L4.25 -3.9L2.45 -5.2L1.4 -5.75L0.8 -6.05L-0.45 -6.4L-0.65 -6.4L-1.35 -6.5L-3.05 -6.25L-4.7 -5.55L-6.9 -3.75L-7 -3.65" />
<path style="fill:#A87C57;fill-opacity:1" d="M6.45 4.85L6.25 4.6L6.25 4.7L5.5 4.15Q4.7 3.65 4.6 2.85Q4.45 1.9 5.3 0.3Q5.7 -0.45 5.55 -1.3L5.05 -2.75Q5.55 -3.05 5.7 -5.05Q7.7 -3 7.8 -0.05Q7.85 1.6 7.5 3.25L7 4.95L6.45 4.85" />
<path style="fill:#694D33;fill-opacity:1" d="M-8.6 0.2L-8.65 0.3L-8.65 0.2L-8.65 0.05L-8.55 0.1L-8.6 0.2" />
<path style="fill:#CD9C6D;fill-opacity:1" d="M-8.55 0.1L-8.5 0.15L-8.6 0.2L-8.55 0.1" />
<path style="fill:none;stroke-width:0.7;stroke-linecap:round;stroke-linejoin:miter;stroke-miterlimit:5;stroke:#000000;stroke-opacity:0.2" d="M-0.75 -2.4L0.8 -3.25L4.25 -3.9" />
<path style="fill:none;stroke-width:0.7;stroke-linecap:round;stroke-linejoin:miter;stroke-miterlimit:5;stroke:#000000;stroke-opacity:0.301961" d="M4.25 -3.9L2.45 -5.2L1.4 -5.75L0.8 -6.05L-0.45 -6.4L-0.65 -6.4" />
<path style="fill:none;stroke-width:0.7;stroke-linecap:round;stroke-linejoin:miter;stroke-miterlimit:5;stroke:#000000;stroke-opacity:0.301961" d="M-3.05 -6.25L-4.7 -5.55" />
<path style="fill:none;stroke-width:0.7;stroke-linecap:round;stroke-linejoin:miter;stroke-miterlimit:5;stroke:#000000;stroke-opacity:0.2" d="M-0.75 -2.4L-0.8 -2.35" />
<path style="fill:none;stroke-width:0.7;stroke-linecap:round;stroke-linejoin:miter;stroke-miterlimit:5;stroke:#000000;stroke-opacity:0.2" d="M-0.9 -2.25L-1.5 -1.7L-2.4 -0.35" />
<path style="fill:none;stroke-width:0.7;stroke-linecap:round;stroke-linejoin:miter;stroke-miterlimit:5;stroke:#000000;stroke-opacity:0.301961" d="M4.6 2.85Q4.45 1.9 5.3 0.3Q5.7 -0.45 5.55 -1.3L5.05 -2.75L4.25 -3.9" />
<path style="fill:none;stroke-width:0.7;stroke-linecap:round;stroke-linejoin:miter;stroke-miterlimit:5;stroke:#000000;stroke-opacity:0.301961" d="M5.7 -5.05L5.15 -5.6L5.1 -5.65Q3.6 -7 1.8 -7.5L-0.65 -7.85Q-4 -7.85 -6.4 -5.6Q-7.65 -4.4 -8.15 -2.85Q-8.7 -1.5 -8.65 0.05" />
<path style="fill:none;stroke-width:0.7;stroke-linecap:round;stroke-linejoin:miter;stroke-miterlimit:5;stroke:#000000;stroke-opacity:0.301961" d="M7 4.95L7.5 3.25Q7.85 1.6 7.8 -0.05Q7.7 -3 5.7 -5.05" />
<path style="fill:none;stroke-width:0.7;stroke-linecap:round;stroke-linejoin:miter;stroke-miterlimit:5;stroke:#000000;stroke-opacity:0.301961" d="M-3.05 -6.25L-1.35 -6.5L-0.65 -6.4" />
<path style="fill:none;stroke-width:0.7;stroke-linecap:round;stroke-linejoin:miter;stroke-miterlimit:5;stroke:#000000;stroke-opacity:0.2" d="M-2.4 -0.35Q-3 0.8 -3.15 2.4L-3.15 4.25" />
<path style="fill:none;stroke-width:0.7;stroke-linecap:round;stroke-linejoin:miter;stroke-miterlimit:5;stroke:#000000;stroke-opacity:0.301961" d="M-8.65 0.3Q-8.5 3.35 -6.05 5.5Q-5 6.5 -3.8 7.05L-1.25 4.25L-2.45 7.55L-0.25 7.85L2 7.55" />
<path style="fill:none;stroke-width:0.7;stroke-linecap:round;stroke-linejoin:miter;stroke-miterlimit:5;stroke:#000000;stroke-opacity:0.301961" d="M5.5 4.15Q4.7 3.65 4.6 2.85" />
<path style="fill:none;stroke-width:0.7;stroke-linecap:round;stroke-linejoin:miter;stroke-miterlimit:5;stroke:#000000;stroke-opacity:0.301961" d="M-8.65 0.05L-8.65 0.2L-8.65 0.3" />
</g>
</svg>
