<?xml version="1.0" encoding="utf-8"?>
<svg version="1.1" id="Layer_1"
xmlns="http://www.w3.org/2000/svg"
xmlns:xlink="http://www.w3.org/1999/xlink"
width="9px" height="8px"
xml:space="preserve">
<g id="PathID_4395" transform="matrix(1, 0, 0, 1, 3.95, 3.8)">
<path style="fill:#F5F0E1;fill-opacity:1" d="M3.45 0.9L4.2 2.1Q4.55 2.6 3.5 3.25Q3.25 2.2 2.3 1.6Q3.25 2.2 3.5 3.25L3.4 3.55Q3.25 3.75 2.7 3.75Q2.15 2.7 1.05 1.65L0.35 1Q1.4 -1.35 0.85 -2.9L2 -1.95L3.6 -0.1Q4.05 0.5 4.2 2.1L3.45 0.9" />
<path style="fill:#DBBDAB;fill-opacity:1" d="M1.3 3.3L-0.85 1.9Q-0.25 1.9 0.35 1L1.05 1.65Q2.15 2.7 2.7 3.75Q2.05 3.9 1.3 3.3" />
<path style="fill:#FE883A;fill-opacity:1" d="M-3.7 -0.6L-3.8 -0.85Q-4.15 -2.25 -3.5 -3.1Q-2.2 -4 -0.9 -3.7Q0 -3.5 0.85 -2.9Q1.4 -1.35 0.35 1Q-2.95 0.3 -3.7 -0.6" />
<path style="fill:#B85716;fill-opacity:1" d="M-3.7 -0.6Q-2.95 0.3 0.35 1Q-0.25 1.9 -0.85 1.9L-1.6 1.45Q-3.25 0.45 -3.55 -0.15L-3.7 -0.6" />
<path style="fill:none;stroke-width:0.7;stroke-linecap:round;stroke-linejoin:miter;stroke-miterlimit:5;stroke:#000000;stroke-opacity:0.4" d="M2.7 3.75Q3.25 3.75 3.4 3.55L3.5 3.25Q3.25 2.2 2.3 1.6" />
<path style="fill:none;stroke-width:0.7;stroke-linecap:round;stroke-linejoin:miter;stroke-miterlimit:5;stroke:#000000;stroke-opacity:0.4" d="M4.2 2.1Q4.05 0.5 3.6 -0.1L2 -1.95" />
<path style="fill:none;stroke-width:0.7;stroke-linecap:round;stroke-linejoin:miter;stroke-miterlimit:5;stroke:#000000;stroke-opacity:0.4" d="M4.2 2.1L3.45 0.9" />
<path style="fill:none;stroke-width:0.7;stroke-linecap:round;stroke-linejoin:miter;stroke-miterlimit:5;stroke:#000000;stroke-opacity:0.4" d="M3.5 3.25Q4.55 2.6 4.2 2.1" />
<path style="fill:none;stroke-width:0.7;stroke-linecap:round;stroke-linejoin:miter;stroke-miterlimit:5;stroke:#000000;stroke-opacity:0.4" d="M-0.85 1.9L1.3 3.3Q2.05 3.9 2.7 3.75" />
<path style="fill:none;stroke-width:0.7;stroke-linecap:round;stroke-linejoin:miter;stroke-miterlimit:5;stroke:#000000;stroke-opacity:0.4" d="M-3.8 -0.85L-3.7 -0.6" />
<path style="fill:none;stroke-width:0.7;stroke-linecap:round;stroke-linejoin:miter;stroke-miterlimit:5;stroke:#000000;stroke-opacity:0.4" d="M-0.85 1.9L-1.6 1.45Q-3.25 0.45 -3.55 -0.15L-3.7 -0.6" />
</g>
</svg>
