<?xml version="1.0" encoding="utf-8"?>
<svg version="1.1" id="Layer_1"
xmlns="http://www.w3.org/2000/svg"
xmlns:xlink="http://www.w3.org/1999/xlink"
width="8px" height="9px"
xml:space="preserve">
<g id="PathID_4341" transform="matrix(1, 0, 0, 1, 3.85, 4.25)">
<path style="fill:#5B5A5A;fill-opacity:1" d="M2.1 1.55Q3.25 3.05 2.2 4.2Q1.35 2.15 -0.5 0.9Q-2.5 -0.35 -3.8 -1.6Q-3.95 -2.85 -3.2 -3.55Q-2.4 -4.4 -1.2 -4.25Q-0.1 -4.15 0.35 -3.75L1.4 -2.45L2.9 -0.15L3.6 1.35L3.7 1.55Q4.1 2.75 3.05 3.75Q2.6 4.15 2.2 4.2Q3.25 3.05 2.1 1.55" />
<path style="fill:#959494;fill-opacity:1" d="M2.2 4.2Q1.6 4.3 1.05 3.55Q0.45 2.65 -0.55 1.9L-1.95 0.95Q-3.25 0 -3.65 -1.05L-3.7 -1.1L-3.8 -1.6Q-2.5 -0.35 -0.5 0.9Q1.35 2.15 2.2 4.2" />
<path style="fill:none;stroke-width:0.7;stroke-linecap:round;stroke-linejoin:miter;stroke-miterlimit:5;stroke:#000000;stroke-opacity:0.4" d="M0.35 -3.75L1.4 -2.45L2.9 -0.15L3.6 1.35L3.7 1.55Q4.1 2.75 3.05 3.75Q2.6 4.15 2.2 4.2Q1.6 4.3 1.05 3.55Q0.45 2.65 -0.55 1.9L-1.95 0.95Q-3.25 0 -3.65 -1.05L-3.7 -1.1" />
<path style="fill:none;stroke-width:0.7;stroke-linecap:round;stroke-linejoin:miter;stroke-miterlimit:5;stroke:#000000;stroke-opacity:0.4" d="M2.2 4.2Q3.25 3.05 2.1 1.55" />
</g>
</svg>
