<?xml version="1.0" encoding="utf-8"?>
<svg version="1.1" id="Layer_1"
xmlns="http://www.w3.org/2000/svg"
xmlns:xlink="http://www.w3.org/1999/xlink"
width="4px" height="16px"
xml:space="preserve">
<g id="PathID_3998" transform="matrix(1, 0, 0, 1, 1.85, 7.85)">
<path style="fill:#3D618D;fill-opacity:1" d="M-1.5 -1.95L-0.95 -5.55Q-0.55 -7.85 0 -7.85Q0.55 -7.85 0.95 -5.55L1.3 -2.7L1.35 0.3L1.35 0.7L0.95 4.25L0.4 7.6Q0.25 7.75 -0.25 7.3Q-0.8 6.75 -1 5.85L-1.85 0.85L-1.8 0.25L-1.5 -1.95" />
<path style="fill:none;stroke-width:0.7;stroke-linecap:round;stroke-linejoin:round;stroke-miterlimit:3;stroke:#000000;stroke-opacity:0.301961" d="M-1.5 -1.95L-0.95 -5.55Q-0.55 -7.85 0 -7.85Q0.55 -7.85 0.95 -5.55L1.3 -2.7L1.35 0.3L1.35 0.7L0.95 4.25L0.4 7.6Q0.25 7.75 -0.25 7.3Q-0.8 6.75 -1 5.85L-1.85 0.85L-1.8 0.25" />
<path style="fill:none;stroke-width:0.7;stroke-linecap:round;stroke-linejoin:miter;stroke-miterlimit:5;stroke:#000000;stroke-opacity:0.4" d="M-1.8 0.25L-1.5 -1.95" />
</g>
</svg>
