<?xml version="1.0" encoding="utf-8"?>
<svg version="1.1" id="Layer_1"
xmlns="http://www.w3.org/2000/svg"
xmlns:xlink="http://www.w3.org/1999/xlink"
width="7px" height="9px"
xml:space="preserve">
<g id="PathID_2718" transform="matrix(1, 0, 0, 1, 0, 0)">
<path style="fill:#585452;fill-opacity:1" d="M6.65 5.9L6 6.95Q4.95 8.15 3.5 8.15Q2.3 8.15 1.45 7.35Q5.1 7.45 6.65 5.9" />
<path style="fill:#848484;fill-opacity:1" d="M5.35 2.7Q4.8 2.1 4.1 2.1Q3.4 2.1 2.9 2.7Q2.4 3.3 2.4 4.15Q2.4 4.95 2.9 5.55Q3.4 6.1 4.1 6.1Q4.8 6.1 5.35 5.55Q5.85 4.95 5.85 4.15Q5.85 3.3 5.35 2.7M1.45 7.35L1.05 6.95Q0 5.75 0 4.1Q0 2.4 1.05 1.2Q2.05 0 3.5 0Q4.95 0 6 1.2Q7 2.4 7 4.1L6.65 5.9Q5.1 7.45 1.45 7.35" />
</g>
</svg>
