<?xml version="1.0" encoding="utf-8"?>
<svg version="1.1" id="Layer_1"
xmlns="http://www.w3.org/2000/svg"
xmlns:xlink="http://www.w3.org/1999/xlink"
width="18px" height="19px"
xml:space="preserve">
<g id="PathID_4500" transform="matrix(1, 0, 0, 1, 9.65, 10.75)">
<path style="fill:#BF9162;fill-opacity:1" d="M-0.2 -4.65L-3.75 -5L-7.05 -4.9Q-5.1 -8.4 -2.45 -7.7L1.8 -6.4Q4.1 -5.4 4.9 -4.1L1.55 -3.35L-0.75 -2.45Q1.05 -4 -0.2 -4.65M5.65 0.65Q5.25 1.8 5.15 2.95Q3.8 1.45 4.4 0.45Q4.75 -0.4 4.4 -1.2Q4.05 -2.15 3 -2.35Q-0.15 -2.95 -2.4 -0.4L-1.5 -1.75L-0.75 -2.45L1.55 -3.35L4.9 -4.1Q6.45 -1.55 5.65 0.65" />
<path style="fill:#D2AE89;fill-opacity:1" d="M-8.6 0.55Q-8.75 -1.8 -7.05 -4.9L-3.75 -5L-0.2 -4.65Q1.05 -4 -0.75 -2.45L-1.5 -1.75Q-5.05 -3.05 -8.6 0.55M2.2 1.2Q1.3 -0.6 -0.05 -0.8Q-2.3 -1.3 -3.15 2.35Q-3 0.75 -2.4 -0.4Q-0.15 -2.95 3 -2.35Q4.05 -2.15 4.4 -1.2Q4.75 -0.4 4.4 0.45Q3.8 1.45 5.15 2.95Q5.35 3.7 5.85 4.2L6.25 4.7L4.4 6.4Q2.2 4.15 2.2 1.2" />
<path style="fill:#F3D8BD;fill-opacity:1" d="M-3.15 2.35L-3.15 4.2L-3.15 2.35Q-2.3 -1.3 -0.05 -0.8Q1.3 -0.6 2.2 1.2Q2.2 4.15 4.4 6.4Q3.25 7.15 2 7.5L-0.1 7.65L-2.45 7.5L-1.25 4.2L-3.8 7Q-5.95 6 -7.3 3.95Q-8.45 2.2 -8.6 0.55Q-5.05 -3.05 -1.5 -1.75L-2.4 -0.4Q-3 0.75 -3.15 2.35" />
<path style="fill:none;stroke-width:0.7;stroke-linecap:round;stroke-linejoin:miter;stroke-miterlimit:5;stroke:#000000;stroke-opacity:0.2" d="M4.9 -4.1L1.55 -3.35L-0.75 -2.45L-1.5 -1.75L-2.4 -0.4" />
<path style="fill:none;stroke-width:0.7;stroke-linecap:round;stroke-linejoin:miter;stroke-miterlimit:5;stroke:#000000;stroke-opacity:0.301961" d="M2 7.5L-0.1 7.65L-2.45 7.5L-1.25 4.2L-3.8 7Q-5.95 6 -7.3 3.95Q-8.45 2.2 -8.6 0.55" />
<path style="fill:none;stroke-width:0.7;stroke-linecap:round;stroke-linejoin:miter;stroke-miterlimit:5;stroke:#000000;stroke-opacity:0.2" d="M-3.15 2.35L-3.15 4.2" />
<path style="fill:none;stroke-width:0.7;stroke-linecap:round;stroke-linejoin:miter;stroke-miterlimit:5;stroke:#000000;stroke-opacity:0.2" d="M-2.4 -0.4Q-3 0.75 -3.15 2.35" />
</g>
<g id="PathID_4501" transform="matrix(1, 0, 0, 1, 9.65, 10.75)">
<path style="fill:#666350;fill-opacity:1" d="M4.55 3.65Q4.45 2.7 5.05 1.1Q5.45 0.2 5.25 -1.35Q5.1 -3.1 3.25 -4.65Q1.4 -6.25 -1.65 -6.8Q-4.75 -7.4 -6.3 -5.3Q-7.35 -3.95 -8.65 0.8Q-9.85 -2.25 -9.35 -5.05Q-8.6 -5.25 -8.05 -4.8Q-8.8 -7.35 -8.25 -9.2Q-7.65 -9.3 -6.7 -8Q-6.6 -9.7 -6.2 -10.6L-2.9 -9.95Q-1.95 -9.4 -1.2 -8.7Q-0.9 -10.35 0.15 -10.45L1.8 -7.5Q4.4 -6.2 5.65 -4.9Q7.75 -2.7 7.8 -0.1Q7.85 1.55 7.5 3.2L7 4.9Q4.65 4.6 4.55 3.65" />
<path style="fill:none;stroke-width:0.7;stroke-linecap:round;stroke-linejoin:round;stroke-miterlimit:3;stroke:#000000;stroke-opacity:0.4" d="M4.55 3.65Q4.45 2.7 5.05 1.1Q5.45 0.2 5.25 -1.35Q5.1 -3.1 3.25 -4.65Q1.4 -6.25 -1.65 -6.8Q-4.75 -7.4 -6.3 -5.3" />
<path style="fill:none;stroke-width:0.7;stroke-linecap:round;stroke-linejoin:round;stroke-miterlimit:3;stroke:#000000;stroke-opacity:0.4" d="M-8.65 0.8Q-9.85 -2.25 -9.35 -5.05Q-8.6 -5.25 -8.05 -4.8Q-8.8 -7.35 -8.25 -9.2Q-7.65 -9.3 -6.7 -8Q-6.6 -9.7 -6.2 -10.6L-2.9 -9.95Q-1.95 -9.4 -1.2 -8.7Q-0.9 -10.35 0.15 -10.45L1.8 -7.5Q4.4 -6.2 5.65 -4.9Q7.75 -2.7 7.8 -0.1Q7.85 1.55 7.5 3.2L7 4.9" />
</g>
<g id="PathID_4502" transform="matrix(1, 0, 0, 1, 9.65, 10.75)">
<path style="fill:#666350;fill-opacity:1" d="M3.25 3.35Q4.05 2.65 5.2 3.95Q8.3 5.05 1.85 8Q1 6.9 2.75 6.7Q1.45 5.4 3.7 5.3L4.2 5.75L3.7 5.3Q2.4 4.05 3.25 3.35" />
<path style="fill:none;stroke-width:0.7;stroke-linecap:round;stroke-linejoin:miter;stroke-miterlimit:5;stroke:#000000;stroke-opacity:0.301961" d="M3.7 5.3L4.2 5.75" />
<path style="fill:none;stroke-width:0.7;stroke-linecap:round;stroke-linejoin:miter;stroke-miterlimit:5;stroke:#000000;stroke-opacity:0.301961" d="M5.2 3.95Q4.05 2.65 3.25 3.35Q2.4 4.05 3.7 5.3Q1.45 5.4 2.75 6.7Q1 6.9 1.85 8" />
</g>
</svg>
