<?xml version="1.0" encoding="utf-8"?>
<svg version="1.1" id="Layer_1"
xmlns="http://www.w3.org/2000/svg"
xmlns:xlink="http://www.w3.org/1999/xlink"
width="19px" height="20px"
xml:space="preserve">
<g id="PathID_3240" transform="matrix(1, 0, 0, 1, 9.55, 9.6)">
<path style="fill:#9A6741;fill-opacity:1" d="M-1.85 -7.5L0.2 -9.15L4.05 -9.4L6.7 -9.15L8.6 -6.55L8.8 -5.9Q8.35 -6.35 7.1 -6.6Q5.85 -6.85 4.65 -4.75Q0.65 -6.85 -1.85 -7.5M-8 2.15Q-7.05 6.6 -1.55 7.3L1 7.5L-0.4 10.05Q-2.9 10.05 -4.95 9L-7.2 7.25Q-9.65 4.65 -9.4 1.9Q-9.3 0.7 -8.7 -0.6L-7.85 -2.15Q-8.45 -0.05 -8 2.15" />
<path style="fill:#FDEDDD;fill-opacity:1" d="M5.7 5.6Q3.7 7.35 1 7.5Q2.5 5.25 3.05 1.9Q3.1 -0.8 3.6 -2.6Q3.95 -3.95 4.65 -4.75L8.45 -4.9L8.95 -4.9L8.95 0.5Q7.15 4.25 5.7 5.6" />
<path style="fill:#C8946C;fill-opacity:1" d="M4.65 -4.75Q3.95 -3.95 3.6 -2.6Q3.1 -0.8 3.05 1.9Q2.5 5.25 1 7.5L-1.55 7.3Q-7.05 6.6 -8 2.15Q-8.45 -0.05 -7.85 -2.15L-2.1 -7.3L-1.85 -7.5Q0.65 -6.85 4.65 -4.75" />
<path style="fill:#C6B099;fill-opacity:1" d="M8.45 -4.9L4.65 -4.75Q5.85 -6.85 7.1 -6.6Q8.35 -6.35 8.8 -5.9L8.8 -5.85L8.95 -4.9L8.45 -4.9M1 7.5Q3.7 7.35 5.7 5.6Q7.15 4.25 8.95 0.5L8.65 4.05Q8.5 7.5 5.45 8.75Q2.3 10.05 -0.4 10.05L1 7.5" />
<path style="fill:none;stroke-width:0.7;stroke-linecap:round;stroke-linejoin:miter;stroke-miterlimit:5;stroke:#000000;stroke-opacity:0.4" d="M6.7 -9.15L8.6 -6.55L8.8 -5.9L8.8 -5.85L8.95 -4.9L8.95 0.5L8.65 4.05Q8.5 7.5 5.45 8.75Q2.3 10.05 -0.4 10.05Q-2.9 10.05 -4.95 9L-7.2 7.25Q-9.65 4.65 -9.4 1.9Q-9.3 0.7 -8.7 -0.6L-7.85 -2.15L-2.1 -7.3L-1.85 -7.5L0.2 -9.15" />
</g>
</svg>
