<?xml version="1.0" encoding="utf-8"?>
<svg version="1.1" id="Layer_1"
xmlns="http://www.w3.org/2000/svg"
xmlns:xlink="http://www.w3.org/1999/xlink"
width="25px" height="25px"
xml:space="preserve">
<g id="PathID_3181" transform="matrix(1, 0, 0, 1, 12.35, 12.85)">
<path style="fill:#A3390F;fill-opacity:1" d="M-1.3 -9.85Q-0.45 -11.3 2.35 -11.15L2.05 -10.9Q-0.05 -9.3 -0.15 -8.3L1.8 -9.65Q4.65 -9.85 6.5 -7.95L6.5 -7.9L6.65 -7.75L7.3 -4.4Q3.2 -8.15 -2.4 -8.05M-1.95 -9.75L-2.4 -8.05L-1.3 -9.85L-4.55 -7.9L-4.6 -7.9L-4.55 -7.95Q-2.2 -10.1 -2.85 -12.1Q-1.6 -11.15 -1.95 -9.75" />
<path style="fill:#D58141;fill-opacity:1" d="M3.85 0.6L2.45 1.7Q1.7 2.3 1.65 3.05Q1.2 3.55 0.9 4.25L-1.4 3.85Q-6.15 1.75 -6.95 -0.7Q-7.2 -1.55 -7 -2.4L-6.15 -6.2L-5.15 -7.4L-4.65 -7.9L-4.6 -7.9L-4.55 -7.9L-2.4 -8.05Q3.2 -8.15 7.3 -4.4L6.65 -7.75L7.5 -6.8Q8.6 -5.4 9.15 -4.05Q9.55 -3 10 -2.3L10.25 -2.05L10.3 -1.95Q6.9 -4.7 6.7 -0.85L1.95 -1.3Q3.2 -0.95 3.75 -0.45Q4.25 0.05 3.85 0.6" />
<path style="fill:#5D1A00;fill-opacity:1" d="M-2.4 -8.05L-1.95 -9.75Q-1.6 -11.15 -2.85 -12.1L-2.6 -12.25Q-0.8 -11.05 -1.3 -9.85L-2.4 -8.05M2.05 -10.9Q1.6 -10.45 1.8 -9.65L-0.15 -8.3Q-0.05 -9.3 2.05 -10.9" />
<linearGradient
id="LinearGradID_772" gradientUnits="userSpaceOnUse" gradientTransform="matrix(-0.000152588, -0.00141907, 0.00495911, -0.000442505, 6.35, -1.55)" spreadMethod ="pad" x1="-819.2" y1="0" x2="819.2" y2="0" >
<stop  offset="0" style="stop-color:#151112;stop-opacity:1" />
<stop  offset="1" style="stop-color:#D58141;stop-opacity:1" />
</linearGradient>
<path style="fill:url(#LinearGradID_772) " d="M8.85 2.2Q8.35 1.4 7.3 0.85L7.3 0.8L7.2 0.85Q6.6 0.5 5.8 0.3L3.75 -0.45Q3.2 -0.95 1.95 -1.3L6.7 -0.85Q6.9 -4.7 10.3 -1.95L10.8 -1.55L11.9 -0.7L12 -0.4L12.05 -0.35L12.1 0.7Q11.95 3.2 9.05 5.1Q9.4 3.05 8.85 2.2M11.7 -0.35L11.6 -0.3L11.65 -0.3L11.7 -0.35" />
<path style="fill:#FAFAFA;fill-opacity:1" d="M4.7 3.8Q3.85 2.5 4.4 1.5Q4.7 0.8 5.7 0.25L5.8 0.3Q6.6 0.5 7.2 0.85L7.3 0.8L7.3 0.85Q8.35 1.4 8.85 2.2Q7.3 3.15 4.7 3.8M11.65 -0.3L11.6 -0.3L11.7 -0.35L11.65 -0.3M1.8 4.25L0.9 4.25Q1.2 3.55 1.65 3.05L1.8 4.25" />
<radialGradient
id="RadialGradID_773" gradientUnits="userSpaceOnUse" gradientTransform="matrix(0.00730896, 0.00119019, -0.00119019, 0.00730896, 2.55, 0.75)" spreadMethod ="pad" cx="0" cy="0" r="819.2" fx="0" fy="0" >
<stop  offset="0.380392"  style="stop-color:#151112;stop-opacity:1" />
<stop  offset="1"  style="stop-color:#BCB0C8;stop-opacity:1" />
</radialGradient>
<path style="fill:url(#RadialGradID_773) " d="M1.65 3.05Q1.7 2.3 2.45 1.7L3.85 0.6Q4.25 0.05 3.75 -0.45L5.8 0.3L5.7 0.25Q4.7 0.8 4.4 1.5Q3.85 2.5 4.7 3.8Q5.15 4.55 6.3 4.25Q5.55 4.75 5.5 5.35Q5.5 6 6.3 6.2Q2.65 6.75 1.8 4.25L1.65 3.05" />
<linearGradient
id="LinearGradID_774" gradientUnits="userSpaceOnUse" gradientTransform="matrix(-0.00247192, 0.0015564, -0.00282288, -0.00444031, 0.55, 4.25)" spreadMethod ="pad" x1="-819.2" y1="0" x2="819.2" y2="0" >
<stop  offset="0" style="stop-color:#BCB0C8;stop-opacity:1" />
<stop  offset="1" style="stop-color:#AD520C;stop-opacity:1" />
</linearGradient>
<path style="fill:url(#LinearGradID_774) " d="M0.35 6Q0.5 5.05 0.9 4.25L1.8 4.25Q2.65 6.75 6.3 6.2Q5.5 6 5.5 5.35Q5.55 4.75 6.3 4.25Q5.15 4.55 4.7 3.8Q7.3 3.15 8.85 2.2Q9.4 3.05 9.05 5.1L9 5.1L4.55 7.55L1.95 7.9L0.3 7.1L0.35 6" />
<path style="fill:#AD520C;fill-opacity:1" d="M-7 -2.4Q-7.2 -1.55 -6.95 -0.7Q-6.15 1.75 -1.4 3.85L0.9 4.25Q0.5 5.05 0.35 6L0.3 7.1Q-1.55 6.25 -3 5.9Q-5.15 5.4 -6.45 4.05Q-7.8 2.7 -7.75 -0.65L-7.6 -2.45L-7.55 -2.55Q-7.25 -4.65 -6.15 -6.2L-7 -2.4" />
<path style="fill:#B4688D;fill-opacity:1" d="M-2.85 -12.1L-3 -12.5L-2.6 -12.25L-2.85 -12.1" />
<path style="fill:none;stroke-width:0.7;stroke-linecap:round;stroke-linejoin:miter;stroke-miterlimit:5;stroke:#000000;stroke-opacity:0.4" d="M1.8 -9.65Q4.65 -9.85 6.5 -7.95L6.5 -7.9L6.65 -7.75L7.5 -6.8Q8.6 -5.4 9.15 -4.05Q9.55 -3 10 -2.3L10.25 -2.05L10.3 -1.95L10.8 -1.55L11.9 -0.7L12 -0.4L12.05 -0.35L12.1 0.7Q11.95 3.2 9.05 5.1L9 5.1L4.55 7.55" />
<path style="fill:none;stroke-width:0.7;stroke-linecap:round;stroke-linejoin:miter;stroke-miterlimit:5;stroke:#000000;stroke-opacity:0.4" d="M-3 5.9Q-5.15 5.4 -6.45 4.05Q-7.8 2.7 -7.75 -0.65L-7.6 -2.45L-7.55 -2.55Q-7.25 -4.65 -6.15 -6.2L-5.15 -7.4L-4.65 -7.9L-4.6 -7.9L-4.55 -7.95Q-2.2 -10.1 -2.85 -12.1L-3 -12.5L-2.6 -12.25Q-0.8 -11.05 -1.3 -9.85Q-0.45 -11.3 2.35 -11.15L2.05 -10.9Q1.6 -10.45 1.8 -9.65" />
<path style="fill:none;stroke-width:0.7;stroke-linecap:round;stroke-linejoin:miter;stroke-miterlimit:5;stroke:#000000;stroke-opacity:0.4" d="M-4.6 -7.9L-4.55 -7.9" />
</g>
<g id="PathID_3182" transform="matrix(1, 0, 0, 1, 12.35, 12.85)">
<path style="fill:#FAFAFA;fill-opacity:1" d="M-0.3 -6.2Q2.1 -6.25 2.25 -2.85Q2.5 0.5 -0.45 0.55Q-3.3 0.6 -2.95 -2.75Q-2.6 -6.15 -0.3 -6.2" />
</g>
<g id="PathID_3183" transform="matrix(1, 0, 0, 1, 12.35, 12.85)">
<path style="fill:#1C1B19;fill-opacity:1" d="M2.2 -5.25L1.55 -4.9L0.25 -5.05Q-0.45 -5.3 -0.85 -5.7Q-1.25 -6.05 -1.15 -6.35L-0.5 -6.75L0.75 -6.6L1.9 -5.95L2.2 -5.25" />
</g>
<g id="PathID_3184" transform="matrix(1, 0, 0, 1, 12.35, 12.85)">
<path style="fill:none;stroke-width:0.7;stroke-linecap:round;stroke-linejoin:miter;stroke-miterlimit:5;stroke:#000000;stroke-opacity:0.2" d="M-5.3 4.45Q-7.2 5.05 -8.9 6" />
<path style="fill:none;stroke-width:0.7;stroke-linecap:round;stroke-linejoin:miter;stroke-miterlimit:5;stroke:#000000;stroke-opacity:0.101961" d="M-8.9 6L-12.1 7.9" />
<path style="fill:none;stroke-width:0.7;stroke-linecap:round;stroke-linejoin:miter;stroke-miterlimit:5;stroke:#000000;stroke-opacity:0.301961" d="M4.25 2.8Q-0.9 2.9 -5.3 4.45" />
</g>
<g id="PathID_3185" transform="matrix(1, 0, 0, 1, 12.35, 12.85)">
<path style="fill:none;stroke-width:0.7;stroke-linecap:round;stroke-linejoin:miter;stroke-miterlimit:5;stroke:#1E000B;stroke-opacity:0.101961" d="M-5.65 10.4L-6.8 11.65" />
<path style="fill:none;stroke-width:0.7;stroke-linecap:round;stroke-linejoin:miter;stroke-miterlimit:5;stroke:#1E000B;stroke-opacity:0.2" d="M-2.2 7.45L-4.95 9.7L-5.65 10.4" />
<path style="fill:none;stroke-width:0.7;stroke-linecap:round;stroke-linejoin:miter;stroke-miterlimit:5;stroke:#1E000B;stroke-opacity:0.301961" d="M5.75 3.75Q2.15 4.75 -0.75 6.55L-2.2 7.45" />
</g>
<g id="PathID_3186" transform="matrix(1, 0, 0, 1, 12.35, 12.85)">
<path style="fill:#B44C47;fill-opacity:1" d="M10.15 0.6L9.95 0.6Q9.15 0.5 9 -0.05L9.5 -0.35Q10.9 0.35 11.25 -0.8L11.55 -0.8L11.9 -0.15Q11 0.95 11.25 1.3L10.75 1.6Q10.95 1 10.15 0.6" />
<path style="fill:#D78682;fill-opacity:1" d="M11.25 -0.8Q10.9 0.35 9.5 -0.35Q10.35 -0.85 11.25 -0.8" />
<path style="fill:#734047;fill-opacity:1" d="M10.75 1.6L10.4 1.75Q10.25 1.2 9.9 1L9.05 0.9L8.7 0.2L9 -0.05Q9.15 0.5 9.95 0.6L10.15 0.6Q10.95 1 10.75 1.6" />
<path style="fill:none;stroke-width:0.7;stroke-linecap:round;stroke-linejoin:round;stroke-miterlimit:3;stroke:#000000;stroke-opacity:0.301961" d="M11.25 -0.8Q10.35 -0.85 9.5 -0.35" />
<path style="fill:none;stroke-width:0.7;stroke-linecap:round;stroke-linejoin:round;stroke-miterlimit:3;stroke:#000000;stroke-opacity:0.301961" d="M11.25 -0.8L11.55 -0.8L11.9 -0.15Q11 0.95 11.25 1.3L10.75 1.6L10.4 1.75Q10.25 1.2 9.9 1L9.05 0.9L8.7 0.2L9 -0.05L9.5 -0.35" />
</g>
</svg>
