<?xml version="1.0" encoding="utf-8"?>
<svg version="1.1" id="Layer_1"
xmlns="http://www.w3.org/2000/svg"
xmlns:xlink="http://www.w3.org/1999/xlink"
width="17px" height="39px"
xml:space="preserve">
<g id="PathID_3924" transform="matrix(1, 0, 0, 1, 7.85, 19.2)">
<path style="fill:#FDF4EB;fill-opacity:1" d="M-0.9 12.4Q-3.9 7.05 -3.1 1.85L-2.95 0.9Q-1.55 -4.35 -2.25 -8.65Q-4.35 -9.3 -3.15 -9.95L-2.45 -9.9Q-5.3 -10.2 -6.25 -12.05L-5.7 -12.15Q-3.75 -11.2 -2.8 -12.15L-6.9 -13.4Q-7.25 -13.95 -7.4 -15.65L-7.6 -17.4Q-7 -17.65 -5.65 -16.5L-5.5 -17.9L-5.15 -19.05Q-3.8 -18.95 -2.65 -15.5L-2.15 -16.9Q0.05 -14.35 -0.7 -10.95Q0.8 -6.25 -0.45 0.75Q-1.2 10.85 6.95 13.7Q8.15 15.35 8.1 16.55Q0.9 15.7 -0.9 12.4M-2.8 -12.15Q-2 -12.95 -2.55 -13.9Q-3.2 -14.8 -3.85 -14.65Q-4.4 -14.55 -4.55 -13.95Q-4.7 -13.25 -3.35 -13.35Q-4.7 -13.25 -4.55 -13.95Q-4.4 -14.55 -3.85 -14.65Q-3.2 -14.8 -2.55 -13.9Q-2 -12.95 -2.8 -12.15Q-3.75 -11.2 -5.7 -12.15M-2.45 -9.9L-3.15 -9.95" />
<path style="fill:#FAD0C5;fill-opacity:1" d="M-3.1 1.85Q-3.9 7.05 -0.9 12.4Q0.9 15.7 8.1 16.55Q8.05 18.15 5.75 19Q-6.35 15.3 -3.25 1.8L-3.1 1.85" />
<path style="fill:#C9A6A9;fill-opacity:1" d="M-3.25 1.8L-2.95 0.9L-3.1 1.85L-3.25 1.8" />
<path style="fill:none;stroke-width:0.7;stroke-linecap:round;stroke-linejoin:miter;stroke-miterlimit:5;stroke:#621400;stroke-opacity:0.4" d="M-2.95 0.9Q-1.55 -4.35 -2.25 -8.65Q-4.35 -9.3 -3.15 -9.95Q-5.3 -10.2 -6.25 -12.05L-5.7 -12.15L-6.9 -13.4Q-7.25 -13.95 -7.4 -15.65L-7.6 -17.4Q-7 -17.65 -5.65 -16.5L-5.5 -17.9L-5.15 -19.05Q-3.8 -18.95 -2.65 -15.5L-2.15 -16.9Q0.05 -14.35 -0.7 -10.95Q0.8 -6.25 -0.45 0.75Q-1.2 10.85 6.95 13.7Q8.15 15.35 8.1 16.55Q8.05 18.15 5.75 19Q-6.35 15.3 -3.25 1.8L-2.95 0.9z" />
<path style="fill:none;stroke-width:0.7;stroke-linecap:round;stroke-linejoin:miter;stroke-miterlimit:5;stroke:#621400;stroke-opacity:0.4" d="M-5.7 -12.15Q-3.75 -11.2 -2.8 -12.15Q-2 -12.95 -2.55 -13.9Q-3.2 -14.8 -3.85 -14.65Q-4.4 -14.55 -4.55 -13.95Q-4.7 -13.25 -3.35 -13.35" />
<path style="fill:none;stroke-width:0.7;stroke-linecap:round;stroke-linejoin:miter;stroke-miterlimit:5;stroke:#621400;stroke-opacity:0.4" d="M-3.15 -9.95L-2.45 -9.9" />
</g>
</svg>
