<?xml version="1.0" encoding="utf-8"?>
<svg version="1.1" id="Layer_1"
xmlns="http://www.w3.org/2000/svg"
xmlns:xlink="http://www.w3.org/1999/xlink"
width="21px" height="20px"
xml:space="preserve">
<g id="PathID_3071" transform="matrix(1, 0, 0, 1, 10.65, 9.3)">
<path style="fill:#4D7A97;fill-opacity:1" d="M9.6 -0.2Q9.6 -4.2 8.05 -4.95L7.25 -4.45L7.05 -4.65Q4.2 -8.25 -1.5 -5.2Q-2.35 -6 -2.7 -7.05Q-1.75 -7.6 1.15 -8.65Q5.3 -10.15 6.5 -8.15Q7.5 -8.55 8.55 -6.2L9 -5.25Q9.65 -3.55 9.7 -2.15L9.75 -0.2L9.85 3.5L9.6 -0.2M9.85 3.5Q9.95 6.65 7.1 8.2L8 6.1L8 6.05Q9.2 4.85 9.4 2.9L9.6 -0.15L9.75 -0.2M-8.85 4.7L-8.8 4.8Q-9.3 6.05 -8.6 7Q-10.85 5.25 -10.4 3.4Q-9.95 1.4 -8.75 -0.15Q-9.85 2.75 -8.85 4.7" />
<path style="fill:#585452;fill-opacity:1" d="M7.05 -4.65L7.25 -4.45L7.2 -4.45L7.05 -4.65" />
<linearGradient
id="LinearGradID_722" gradientUnits="userSpaceOnUse" gradientTransform="matrix(-0.00143433, 0.00761414, -0.0100403, -0.00190735, 2.95, 1.85)" spreadMethod ="pad" x1="-819.2" y1="0" x2="819.2" y2="0" >
<stop  offset="0" style="stop-color:#B9A874;stop-opacity:1" />
<stop  offset="1" style="stop-color:#96ABA4;stop-opacity:1" />
</linearGradient>
<path style="fill:url(#LinearGradID_722) " d="M7.2 -4.45Q5.65 -3.75 2.95 -3.6Q0.1 -3.9 -1.4 -5.1L-1.5 -5.2Q4.2 -8.25 7.05 -4.65L7.2 -4.45M-8.8 4.8Q-8.25 5.85 -7.15 6.6Q-6.05 7.35 -4.35 7.8Q2.6 8.8 6.1 7.35L8 6.1L7.1 8.2L6.55 8.45L5.5 8.85Q1 10.25 -2.45 9.65L-4.75 9.1Q-6.4 8.55 -7.75 7.65L-8.35 7.2L-8.6 7Q-9.3 6.05 -8.8 4.8" />
<linearGradient
id="LinearGradID_723" gradientUnits="userSpaceOnUse" gradientTransform="matrix(-0.00143433, 0.00793457, -0.00849915, -0.00154114, 2.4, 0.35)" spreadMethod ="pad" x1="-819.2" y1="0" x2="819.2" y2="0" >
<stop  offset="0" style="stop-color:#F6DF7F;stop-opacity:1" />
<stop  offset="1" style="stop-color:#D1EBE0;stop-opacity:1" />
</linearGradient>
<path style="fill:url(#LinearGradID_723) " d="M8.55 2.9L8 6.05L8 6.1L6.1 7.35Q2.6 8.8 -4.35 7.8Q-6.05 7.35 -7.15 6.6Q-8.25 5.85 -8.8 4.8L-8.85 4.7Q-5.85 -2.05 -1.4 -5.1Q0.1 -3.9 2.95 -3.6Q5.65 -3.75 7.2 -4.45L7.25 -4.45Q8.9 -1.25 8.55 2.9" />
<path style="fill:#084A88;fill-opacity:1" d="M9.6 -0.2L9.75 -0.2L9.6 -0.15L9.6 -0.2" />
<path style="fill:#5E9FDF;fill-opacity:1" d="M-1.4 -5.1Q-5.85 -2.05 -8.85 4.7Q-9.85 2.75 -8.75 -0.15L-7.75 -1.55L-5.9 -3.9L-4.4 -5.45L-2.7 -7.05Q-2.35 -6 -1.5 -5.2L-1.4 -5.1M9.6 -0.15L9.4 2.9Q9.2 4.85 8 6.05L8.55 2.9Q8.9 -1.25 7.25 -4.45L8.05 -4.95Q9.6 -4.2 9.6 -0.2L9.6 -0.15" />
<path style="fill:none;stroke-width:0.7;stroke-linecap:round;stroke-linejoin:miter;stroke-miterlimit:5;stroke:#000000;stroke-opacity:0.4" d="M9.75 -0.2L9.7 -2.15Q9.65 -3.55 9 -5.25L8.55 -6.2Q7.5 -8.55 6.5 -8.15" />
<path style="fill:none;stroke-width:0.7;stroke-linecap:round;stroke-linejoin:miter;stroke-miterlimit:5;stroke:#000000;stroke-opacity:0.4" d="M1.15 -8.65Q-1.75 -7.6 -2.7 -7.05" />
<path style="fill:none;stroke-width:0.7;stroke-linecap:round;stroke-linejoin:miter;stroke-miterlimit:5;stroke:#000000;stroke-opacity:0.4" d="M9.75 -0.2L9.85 3.5Q9.95 6.65 7.1 8.2L6.55 8.45L5.5 8.85Q1 10.25 -2.45 9.65L-4.75 9.1Q-6.4 8.55 -7.75 7.65L-8.35 7.2L-8.6 7Q-10.85 5.25 -10.4 3.4Q-9.95 1.4 -8.75 -0.15L-7.75 -1.55L-5.9 -3.9L-4.4 -5.45L-2.7 -7.05" />
</g>
<g id="PathID_3072" transform="matrix(1, 0, 0, 1, 10.65, 9.3)">
<path style="fill:#172C57;fill-opacity:1" d="M2.55 -1.15L3 -0.45L2.75 -0.45Q3.75 0.85 2.7 2.15Q1.5 -0.6 0 -0.95Q0 -1.65 0.25 -2.15L0.9 -1.4Q1 -2.95 2.2 -3.25L2.55 -3.25Q4.4 -3.35 4.55 -1L2.55 -1.15" />
<path style="fill:#111B31;fill-opacity:1" d="M4.55 -1L4.8 -0.8L3 -0.45L2.55 -1.15L4.55 -1M2.7 2.15Q2.55 2.15 2.55 2.25Q1.8 1.25 0.25 1.2L0 -0.95Q1.5 -0.6 2.7 2.15" />
<path style="fill:none;stroke-width:0.7;stroke-linecap:round;stroke-linejoin:miter;stroke-miterlimit:5;stroke:#000000;stroke-opacity:0.4" d="M0 -0.95Q0 -1.65 0.25 -2.15L0.9 -1.4Q1 -2.95 2.2 -3.25L2.55 -3.25Q4.4 -3.35 4.55 -1L4.8 -0.8L3 -0.45L2.75 -0.45Q3.75 0.85 2.7 2.15Q2.55 2.15 2.55 2.25Q1.8 1.25 0.25 1.2L0 -0.95z" />
<path style="fill:none;stroke-width:0.7;stroke-linecap:round;stroke-linejoin:miter;stroke-miterlimit:5;stroke:#000000;stroke-opacity:0.4" d="M2.55 -1.15L3 -0.45" />
</g>
</svg>
