<?xml version="1.0" encoding="utf-8"?>
<svg version="1.1" id="Layer_1"
xmlns="http://www.w3.org/2000/svg"
xmlns:xlink="http://www.w3.org/1999/xlink"
width="25px" height="15px"
xml:space="preserve">
<g id="PathID_3546" transform="matrix(1, 0, 0, 1, 14, 7.35)">
<path style="fill:#EDEFF3;fill-opacity:1" d="M-6.25 -3.2Q-5.75 -4.25 -4.85 -5.1L-4.6 -5.3L-4.45 -5.4L-2.6 -6.5L0 -6.8Q1.65 -6.7 3 -5.95Q4 -5.45 4.8 -4.55L4.95 -4.35L5.55 -3.65L6.15 -2.55L6.9 -0.25Q7.4 1.5 7.05 3.25L7 3.6L6.95 3.55Q1.6 4.75 -1.4 3.6Q-4.4 2.45 -5.45 1.45Q-6.55 0.4 -6.25 -3.2" />
<path style="fill:#CBC7DA;fill-opacity:1" d="M-5.45 1.45Q-4.4 2.45 -1.4 3.6Q1.6 4.75 6.95 3.55L7 3.6L7.45 4.65Q8.25 5.65 10.65 6.65Q3.7 6.9 1.15 6.6L-3.7 5.7Q-6 5.2 -6.65 3.75Q-7.3 2.3 -7.05 0.2Q-6.85 -1.95 -6.25 -3.2Q-6.55 0.4 -5.45 1.45" />
<path style="fill:none;stroke-width:0.7;stroke-linecap:round;stroke-linejoin:miter;stroke-miterlimit:5;stroke:#000000;stroke-opacity:0.4" d="M1.15 6.6L-3.7 5.7Q-6 5.2 -6.65 3.75Q-7.3 2.3 -7.05 0.2Q-6.85 -1.95 -6.25 -3.2Q-5.75 -4.25 -4.85 -5.1L-4.6 -5.3" />
<path style="fill:none;stroke-width:0.7;stroke-linecap:round;stroke-linejoin:miter;stroke-miterlimit:5;stroke:#000000;stroke-opacity:0.4" d="M-4.45 -5.4L-2.6 -6.5" />
</g>
<g id="PathID_3547" transform="matrix(1, 0, 0, 1, 14, 7.35)">
<path style="fill:#713E40;fill-opacity:1" d="M-9.05 -4.35Q-4.65 -6.8 -2.4 -7.15L-2.35 -7.15L-1.8 -7.2L-1.05 -7.3L3.75 -7.1Q2.5 -6 1.2 -5.25L1.5 -6.35Q-1.3 -4.35 -2.2 -4.15L-2.05 -4.75L-2.4 -4.5L-2.45 -4.45Q-4.5 -3.2 -5.25 -3.3L-4.95 -4.1Q-7.15 -3 -8 -3.1L-6.6 -4.45L-9.05 -4.35" />
<linearGradient
id="LinearGradID_815" gradientUnits="userSpaceOnUse" gradientTransform="matrix(0.0039978, 0.00447083, -0.00421143, 0.00338745, -3.9, -2.5)" spreadMethod ="pad" x1="-819.2" y1="0" x2="819.2" y2="0" >
<stop  offset="0.764706" style="stop-color:#7D89AA;stop-opacity:1" />
<stop  offset="1" style="stop-color:#EDEFF3;stop-opacity:1" />
</linearGradient>
<path style="fill:url(#LinearGradID_815) " d="M-7.4 0.1L-6.3 -1.25L-7.95 -0.45L-8.15 -1.3L-7.65 -1.6L-7.75 -1.7L-11.05 -1.3L-9.55 -2.65L-12.05 -1.6L-12.75 -2.2L-9.05 -4.35L-6.6 -4.45L-8 -3.1Q-7.15 -3 -4.95 -4.1L-5.25 -3.3Q-4.5 -3.2 -2.45 -4.45L-2.4 -4.5L-2.05 -4.75L-2.2 -4.15Q-1.3 -4.35 1.5 -6.35L1.2 -5.25Q2.5 -6 3.75 -7.1Q3.65 -3 0.9 -1.65L0.8 -1.6L0.85 -1.65L0.85 -1.7L1 -2.15L0.6 -1.8Q-1.1 -0.3 -2.6 0.25L-2.2 -0.55L-4.45 0.25L-7.4 0.1" />
<path style="fill:#16233A;fill-opacity:1" d="M-4.45 0.25L-6.4 0.9L-7.6 1.05L-8.95 0.9Q-10.55 0.6 -10.35 0.1Q-10.15 -0.35 -8.3 -1.25L-8.15 -1.3L-7.95 -0.45L-6.3 -1.25L-7.4 0.1L-4.45 0.25M-8.35 -1.4Q-11.55 -0.5 -13.05 -0.8Q-14.45 -1.15 -13.4 -1.75L-12.75 -2.2L-12.05 -1.6L-9.55 -2.65L-11.05 -1.3L-7.75 -1.7L-7.65 -1.6L-8.35 -1.4" />
<path style="fill:none;stroke-width:0.7;stroke-linecap:round;stroke-linejoin:miter;stroke-miterlimit:5;stroke:#000000;stroke-opacity:0.4" d="M-2.6 0.25L-2.2 -0.55L-4.45 0.25L-6.4 0.9L-7.6 1.05L-8.95 0.9Q-10.55 0.6 -10.35 0.1Q-10.15 -0.35 -8.3 -1.25L-8.15 -1.3L-8.35 -1.4Q-11.55 -0.5 -13.05 -0.8Q-14.45 -1.15 -13.4 -1.75L-12.75 -2.2L-9.05 -4.35Q-4.65 -6.8 -2.4 -7.15" />
<path style="fill:none;stroke-width:0.7;stroke-linecap:round;stroke-linejoin:miter;stroke-miterlimit:5;stroke:#000000;stroke-opacity:0.4" d="M-7.65 -1.6L-8.15 -1.3" />
<path style="fill:none;stroke-width:0.7;stroke-linecap:round;stroke-linejoin:miter;stroke-miterlimit:5;stroke:#000000;stroke-opacity:0.4" d="M-8.35 -1.4L-7.65 -1.6" />
</g>
</svg>
