<?xml version="1.0" encoding="utf-8"?>
<svg version="1.1" id="Layer_1"
xmlns="http://www.w3.org/2000/svg"
xmlns:xlink="http://www.w3.org/1999/xlink"
width="8px" height="9px"
xml:space="preserve">
<g id="PathID_2991" transform="matrix(1, 0, 0, 1, 3.85, 4.25)">
<path style="fill:#97948F;fill-opacity:1" d="M3 0.05L3.6 1.35L3.7 1.6Q4.05 2.8 3.05 3.75Q2.6 4.15 2.2 4.2Q1.6 4.3 1.05 3.55L0.25 2.6L0.05 2.4L-0.05 2.3Q0.85 0.7 3 0.05M-3.5 -0.95Q-2.4 -3.25 0.4 -3.3L0.75 -3.3L1.4 -2.5L2 -1.65Q-0.5 -1.2 -1.35 0.95L-1.55 1.2Q-3 0.25 -3.55 -0.85L-3.5 -0.95M2.35 1.95L2.3 2.05L2.55 2.35Q2.95 3.35 2.2 4.2L2.35 1.95M2.2 4.2Q2.95 3.35 2.55 2.35" />
<path style="fill:#1D1D1D;fill-opacity:1" d="M-0.05 2.3L-1.45 1.25L-1.35 0.95Q-0.5 -1.2 2 -1.65L2.05 -1.5L2.5 -0.85L3 0.05Q0.85 0.7 -0.05 2.3M-3.7 -1.1Q-4.1 -2.7 -3.2 -3.55Q-2.4 -4.4 -1.2 -4.25Q-0.05 -4.15 0.35 -3.75L0.75 -3.3L0.4 -3.3Q-2.4 -3.25 -3.5 -0.95L-3.7 -1.1" />
<path style="fill:#573C23;fill-opacity:1" d="M-1.35 0.95L-1.45 1.25L-1.5 1.2L-1.55 1.2L-1.35 0.95M-3.5 -0.95L-3.55 -0.85L-3.65 -1.05L-3.7 -1.1L-3.5 -0.95" />
<path style="fill:#2C1E14;fill-opacity:1" d="M2.55 2.35L2.3 2.05L2.35 1.95L2.55 2.35" />
<path style="fill:none;stroke-width:0.7;stroke-linecap:round;stroke-linejoin:miter;stroke-miterlimit:5;stroke:#495366;stroke-opacity:0.4" d="M2 -1.65L2.05 -1.5L2.5 -0.85L3 0.05L3.6 1.35L3.7 1.6Q4.05 2.8 3.05 3.75Q2.6 4.15 2.2 4.2Q1.6 4.3 1.05 3.55L0.25 2.6L0.05 2.4L-0.05 2.3L-1.45 1.25L-1.5 1.2L-1.55 1.2Q-3 0.25 -3.55 -0.85L-3.65 -1.05L-3.7 -1.1" />
<path style="fill:none;stroke-width:0.7;stroke-linecap:round;stroke-linejoin:miter;stroke-miterlimit:5;stroke:#495366;stroke-opacity:0.4" d="M0.35 -3.75L0.75 -3.3L1.4 -2.5L2 -1.65" />
<path style="fill:none;stroke-width:0.7;stroke-linecap:round;stroke-linejoin:miter;stroke-miterlimit:5;stroke:#495366;stroke-opacity:0.4" d="M-3.5 -0.95L-3.55 -0.85" />
<path style="fill:none;stroke-width:0.7;stroke-linecap:round;stroke-linejoin:miter;stroke-miterlimit:5;stroke:#495366;stroke-opacity:0.4" d="M2.55 2.35L2.35 1.95" />
<path style="fill:none;stroke-width:0.7;stroke-linecap:round;stroke-linejoin:miter;stroke-miterlimit:5;stroke:#495366;stroke-opacity:0.4" d="M2.2 4.2Q2.95 3.35 2.55 2.35" />
</g>
</svg>
