<?xml version="1.0" encoding="utf-8"?>
<svg version="1.1" id="Layer_1"
xmlns="http://www.w3.org/2000/svg"
xmlns:xlink="http://www.w3.org/1999/xlink"
width="21px" height="20px"
xml:space="preserve">
<g id="PathID_2935" transform="matrix(1, 0, 0, 1, 10.6, 9.3)">
<path style="fill:#FFFFFF;fill-opacity:1" d="M9.65 -1.2L9.6 -1.15L9.4 2.9Q9.2 4.85 8 6.05L8 6.1Q4.95 9.15 -4.35 7.8Q-7.75 6.85 -8.8 4.8L-8.85 4.7Q-9.85 2.75 -8.75 -0.15L-3.15 -6.55L-0.85 -5.55Q3.7 -8.05 6.55 -5.25L8.75 -5.8L9.7 -2L9.7 -1.35L9.65 -1.2" />
<path style="fill:#D8D3D7;fill-opacity:1" d="M6.55 -5.25Q3.7 -8.05 -0.85 -5.55L-3.15 -6.55L-2.7 -7.05Q-1.75 -7.6 1.15 -8.65Q5.3 -10.15 6.5 -8.15Q7.5 -8.55 8.55 -6.2L8.75 -5.8L6.55 -5.25M9.7 -1.35L9.85 3.5Q9.95 6.65 7.1 8.2L5.5 8.85Q1 10.25 -2.45 9.65Q-5.9 9.05 -8.35 7.2L-8.6 7Q-10.85 5.25 -10.4 3.4Q-9.95 1.4 -8.75 -0.15Q-9.85 2.75 -8.85 4.7L-8.8 4.8Q-7.75 6.85 -4.35 7.8Q4.95 9.15 8 6.1L8 6.05Q9.2 4.85 9.4 2.9L9.6 -1.15L9.65 -1.2L9.7 -1.35" />
<path style="fill:none;stroke-width:0.7;stroke-linecap:round;stroke-linejoin:miter;stroke-miterlimit:5;stroke:#4F3218;stroke-opacity:0.4" d="M8.75 -5.8L8.55 -6.2Q7.5 -8.55 6.5 -8.15" />
<path style="fill:none;stroke-width:0.7;stroke-linecap:round;stroke-linejoin:miter;stroke-miterlimit:5;stroke:#4F3218;stroke-opacity:0.4" d="M1.15 -8.65Q-1.75 -7.6 -2.7 -7.05L-3.15 -6.55" />
<path style="fill:none;stroke-width:0.7;stroke-linecap:round;stroke-linejoin:miter;stroke-miterlimit:5;stroke:#4F3218;stroke-opacity:0.4" d="M8.75 -5.8L9.7 -2L9.7 -1.35L9.85 3.5Q9.95 6.65 7.1 8.2L5.5 8.85Q1 10.25 -2.45 9.65Q-5.9 9.05 -8.35 7.2L-8.6 7Q-10.85 5.25 -10.4 3.4Q-9.95 1.4 -8.75 -0.15L-3.15 -6.55" />
</g>
<g id="PathID_2936" transform="matrix(1, 0, 0, 1, 10.6, 9.3)">
<path style="fill:#FFFFFF;fill-opacity:1" d="M1.9 -3.4L6.1 -3.7Q6.25 -1.95 3.8 -1.95Q6.65 -1.3 5.75 0.7L3.8 -0.35Q4.35 3.6 1.75 3.85Q-1.35 -3.3 1.9 -3.4" />
<path style="fill:none;stroke-width:0.7;stroke-linecap:round;stroke-linejoin:miter;stroke-miterlimit:5;stroke:#4F3218;stroke-opacity:0.4" d="M1.9 -3.4L6.1 -3.7Q6.25 -1.95 3.8 -1.95Q6.65 -1.3 5.75 0.7L3.8 -0.35Q4.35 3.6 1.75 3.85" />
</g>
</svg>
