<?xml version="1.0" encoding="utf-8"?>
<svg version="1.1" id="Layer_1"
xmlns="http://www.w3.org/2000/svg"
xmlns:xlink="http://www.w3.org/1999/xlink"
width="9px" height="8px"
xml:space="preserve">
<g id="PathID_3166" transform="matrix(1, 0, 0, 1, 3.95, 3.8)">
<path style="fill:#875729;fill-opacity:1" d="M-0.1 0.75Q-2.85 0.4 -3.7 -0.6L-3.8 -0.85Q-4.15 -2.25 -3.5 -3.1Q-2.2 -4 -0.9 -3.7Q0.65 -3.35 2 -1.95L2.2 -1.8Q0.8 -0.8 0.2 0.95L-0.1 0.75" />
<linearGradient
id="LinearGradID_765" gradientUnits="userSpaceOnUse" gradientTransform="matrix(0.00213623, 0.001297, -0.00175476, 0.00289917, 2.25, 0.95)" spreadMethod ="pad" x1="-819.2" y1="0" x2="819.2" y2="0" >
<stop  offset="0" style="stop-color:#875729;stop-opacity:1" />
<stop  offset="0.32549" style="stop-color:#5A4832;stop-opacity:1" />
</linearGradient>
<path style="fill:url(#LinearGradID_765) " d="M3.5 3.25Q3.25 2.2 2.3 1.6Q3.25 2.2 3.5 3.25L3.4 3.55Q3.25 3.75 2.7 3.75Q2 2.35 0.2 0.95Q0.8 -0.8 2.2 -1.8L2.3 -1.65L2.8 -1.1L3.6 -0.1Q4.05 0.5 4.2 2.1Q4.55 2.6 3.5 3.25M3.45 0.9L4.2 2.1L3.45 0.9" />
<linearGradient
id="LinearGradID_766" gradientUnits="userSpaceOnUse" gradientTransform="matrix(0.00172424, 0.00102234, -0.00088501, 0.00149536, 1.05, 2.35)" spreadMethod ="pad" x1="-819.2" y1="0" x2="819.2" y2="0" >
<stop  offset="0" style="stop-color:#582E16;stop-opacity:1" />
<stop  offset="0.32549" style="stop-color:#301E10;stop-opacity:1" />
</linearGradient>
<path style="fill:url(#LinearGradID_766) " d="M1.3 3.3L-0.6 2.05Q-0.3 2 0.2 0.95Q2 2.35 2.7 3.75Q2.05 3.9 1.3 3.3" />
<path style="fill:#582E16;fill-opacity:1" d="M-0.6 2.05L-1.6 1.45Q-3.25 0.45 -3.55 -0.15L-3.7 -0.6Q-2.85 0.4 -0.1 0.75L0.2 0.95Q-0.3 2 -0.6 2.05" />
<path style="fill:none;stroke-width:0.7;stroke-linecap:round;stroke-linejoin:miter;stroke-miterlimit:5;stroke:#000000;stroke-opacity:0.4" d="M4.2 2.1Q4.05 0.5 3.6 -0.1L2.8 -1.1L2.3 -1.65" />
<path style="fill:none;stroke-width:0.7;stroke-linecap:round;stroke-linejoin:miter;stroke-miterlimit:5;stroke:#000000;stroke-opacity:0.4" d="M2.7 3.75Q3.25 3.75 3.4 3.55L3.5 3.25Q3.25 2.2 2.3 1.6" />
<path style="fill:none;stroke-width:0.7;stroke-linecap:round;stroke-linejoin:miter;stroke-miterlimit:5;stroke:#000000;stroke-opacity:0.4" d="M-3.7 -0.6L-3.8 -0.85" />
<path style="fill:none;stroke-width:0.7;stroke-linecap:round;stroke-linejoin:miter;stroke-miterlimit:5;stroke:#000000;stroke-opacity:0.4" d="M-0.6 2.05L-1.6 1.45Q-3.25 0.45 -3.55 -0.15L-3.7 -0.6" />
<path style="fill:none;stroke-width:0.7;stroke-linecap:round;stroke-linejoin:miter;stroke-miterlimit:5;stroke:#000000;stroke-opacity:0.4" d="M-0.6 2.05L1.3 3.3Q2.05 3.9 2.7 3.75" />
<path style="fill:none;stroke-width:0.7;stroke-linecap:round;stroke-linejoin:miter;stroke-miterlimit:5;stroke:#000000;stroke-opacity:0.4" d="M3.5 3.25Q4.55 2.6 4.2 2.1L3.45 0.9" />
</g>
</svg>
