<?xml version="1.0" encoding="utf-8"?>
<svg version="1.1" id="Layer_1"
xmlns="http://www.w3.org/2000/svg"
xmlns:xlink="http://www.w3.org/1999/xlink"
width="11px" height="5px"
xml:space="preserve">
<g id="PathID_2783" transform="matrix(1, 0, 0, 1, 4.6, 1.9)">
<path style="fill:#67686D;fill-opacity:1" d="M3.35 -0.95Q3.9 -0.4 3.65 -0.2L2.75 -0.8L3.35 -0.95M4.1 1.05Q4.1 1.45 3.2 1.65Q3.55 1.1 3.25 0.65Q2.85 0.3 1.5 0.35Q2.85 0.65 2.85 1.35Q0.85 1.65 0.55 0.8Q1.1 -0.25 2.75 -0.8L3.65 -0.2Q4.55 0.2 4.1 1.05" />
<path style="fill:#45454F;fill-opacity:1" d="M3.35 -0.95L3.85 -0.65L2.75 -0.8Q1.1 -0.25 0.55 0.8Q0.85 1.65 2.85 1.35L2.75 1.7Q2.85 0.65 1.5 0.35Q2.85 0.3 3.25 0.65Q3.55 1.1 3.2 1.65L2.75 1.7L2.85 1.35L1.95 1.9L-0.65 1.55L-3 0.65Q-3.75 0.3 -4.5 0.1Q-4.75 -0.45 -4.45 -0.95Q-4.15 -1.55 -2.55 -1.8L0.25 -1.65L3.35 -0.95M3.85 -0.65Q4.9 0 4.5 0.7L4.1 1.05Q4.55 0.2 3.65 -0.2Q3.9 -0.4 3.35 -0.95" />
<path style="fill:none;stroke-width:0.7;stroke-linecap:round;stroke-linejoin:round;stroke-miterlimit:3;stroke:#000000;stroke-opacity:0.301961" d="M3.65 -0.2L2.75 -0.8" />
<path style="fill:none;stroke-width:0.7;stroke-linecap:round;stroke-linejoin:round;stroke-miterlimit:3;stroke:#000000;stroke-opacity:0.301961" d="M2.85 1.35Q2.85 0.65 1.5 0.35" />
<path style="fill:none;stroke-width:0.7;stroke-linecap:round;stroke-linejoin:round;stroke-miterlimit:3;stroke:#000000;stroke-opacity:0.301961" d="M3.2 1.65Q4.1 1.45 4.1 1.05Q4.55 0.2 3.65 -0.2" />
<path style="fill:none;stroke-width:0.7;stroke-linecap:round;stroke-linejoin:round;stroke-miterlimit:3;stroke:#000000;stroke-opacity:0.301961" d="M3.2 1.65L2.75 1.7L1.95 1.9L-0.65 1.55L-3 0.65Q-3.75 0.3 -4.5 0.1Q-4.75 -0.45 -4.45 -0.95Q-4.15 -1.55 -2.55 -1.8L0.25 -1.65L3.35 -0.95L3.85 -0.65Q4.9 0 4.5 0.7L4.1 1.05" />
<path style="fill:none;stroke-width:0.7;stroke-linecap:round;stroke-linejoin:round;stroke-miterlimit:3;stroke:#000000;stroke-opacity:0.301961" d="M2.85 1.35L2.75 1.7" />
</g>
<g id="PathID_2784" transform="matrix(1, 0, 0, 1, 4.6, 1.9)">
<path style="fill:#DFEFF3;fill-opacity:1" d="M4.2 0.85Q3.8 0.3 4.25 -0.3Q5.3 -0.25 5.5 1.25L4.2 0.85" />
<path style="fill:none;stroke-width:0.7;stroke-linecap:round;stroke-linejoin:round;stroke-miterlimit:3;stroke:#000000;stroke-opacity:0.4" d="M4.2 0.85Q3.8 0.3 4.25 -0.3Q5.3 -0.25 5.5 1.25L4.2 0.85z" />
</g>
<g id="PathID_2785" transform="matrix(1, 0, 0, 1, 4.6, 1.9)">
<path style="fill:#DFEFF3;fill-opacity:1" d="M3.95 0.1Q4.65 0.6 4.7 1.95L2.95 1.45Q2.6 0.1 3.95 0.1" />
<path style="fill:none;stroke-width:0.7;stroke-linecap:round;stroke-linejoin:round;stroke-miterlimit:3;stroke:#000000;stroke-opacity:0.4" d="M3.95 0.1Q4.65 0.6 4.7 1.95L2.95 1.45Q2.6 0.1 3.95 0.1z" />
</g>
<g id="PathID_2786" transform="matrix(1, 0, 0, 1, 4.6, 1.9)">
<path style="fill:#DFEFF3;fill-opacity:1" d="M1.4 1.85Q1.3 1.05 2.35 0.95Q3.15 1 3.35 2.4L1.4 1.85" />
<path style="fill:none;stroke-width:0.7;stroke-linecap:round;stroke-linejoin:round;stroke-miterlimit:3;stroke:#000000;stroke-opacity:0.4" d="M3.35 2.4Q3.15 1 2.35 0.95Q1.3 1.05 1.4 1.85L3.35 2.4z" />
</g>
</svg>
