<?xml version="1.0" encoding="utf-8"?>
<svg version="1.1" id="Layer_1"
xmlns="http://www.w3.org/2000/svg"
xmlns:xlink="http://www.w3.org/1999/xlink"
width="20px" height="21px"
xml:space="preserve">
<g id="PathID_3551" transform="matrix(1, 0, 0, 1, 10.05, 9.8)">
<path style="fill:#713E40;fill-opacity:1" d="M2.3 -9.65L2.3 -9.6L2.6 -7.6Q2.85 -6.3 3.55 -4.9Q5.35 -1.45 3 0.75Q0.25 3.3 0.55 5.45L0.8 7.3Q0.9 10 -0.95 10.2L-1.65 10.15Q-6.45 9.45 -8.85 5.4Q-9.45 4.4 -9.75 2.55Q-10.15 0.15 -9.35 -1.15Q-8.1 -3.45 -6.45 -4.65L-7.45 -4.7Q-8.05 -4.8 -8 -5L-5.55 -5.7Q-6.2 -5.6 -6.85 -6.05L-7.35 -6.75L-3.75 -7.8Q-0.1 -8.9 0.2 -9.15L2.3 -9.65" />
<path style="fill:#CBC7E1;fill-opacity:1" d="M3.55 -4.9Q2.85 -6.3 2.6 -7.6L2.3 -9.6L2.3 -9.65Q5.3 -10.15 6.7 -9.15Q7.5 -8.55 8.6 -6.35L8.75 -6.05L8.8 -5.85Q9.6 -3.9 9.25 -1.55L8.65 4.05Q8.5 7.05 5.45 8.75Q2.5 10.4 -0.95 10.2Q0.9 10 0.8 7.3Q6.75 6.25 7.9 -2.3L7.9 -4.15Q7.3 -5.8 5.6 -5.75Q4.05 -5.7 3.55 -4.9" />
<path style="fill:#EDEFF3;fill-opacity:1" d="M5.6 -5.75Q7.3 -5.8 7.9 -4.15L7.9 -2.3Q6.75 6.25 0.8 7.3L0.55 5.45Q0.25 3.3 3 0.75Q5.35 -1.45 3.55 -4.9Q4.05 -5.7 5.6 -5.75" />
<path style="fill:none;stroke-width:0.7;stroke-linecap:round;stroke-linejoin:miter;stroke-miterlimit:5;stroke:#000000;stroke-opacity:0.4" d="M0.2 -9.15Q-0.1 -8.9 -3.75 -7.8L-7.35 -6.75L-6.85 -6.05Q-6.2 -5.6 -5.55 -5.7L-8 -5Q-8.05 -4.8 -7.45 -4.7L-6.45 -4.65Q-8.1 -3.45 -9.35 -1.15Q-10.15 0.15 -9.75 2.55Q-9.45 4.4 -8.85 5.4Q-6.45 9.45 -1.65 10.15" />
<path style="fill:none;stroke-width:0.7;stroke-linecap:round;stroke-linejoin:miter;stroke-miterlimit:5;stroke:#000000;stroke-opacity:0.4" d="M-0.95 10.2Q2.5 10.4 5.45 8.75Q8.5 7.05 8.65 4.05L9.25 -1.55Q9.6 -3.9 8.8 -5.85L8.75 -6.05L8.6 -6.35Q7.5 -8.55 6.7 -9.15" />
</g>
</svg>
