<?xml version="1.0" encoding="utf-8"?>
<svg version="1.1" id="Layer_1"
xmlns="http://www.w3.org/2000/svg"
xmlns:xlink="http://www.w3.org/1999/xlink"
width="6px" height="16px"
xml:space="preserve">
<g id="PathID_3646" transform="matrix(1, 0, 0, 1, 3.7, 7.85)">
<path style="fill:#956F53;fill-opacity:1" d="M-3.25 -3.15Q-4 -4.25 -3.55 -5.5Q-2.15 -6.35 -0.9 -5.85Q-0.5 -7.85 0 -7.85Q0.55 -7.85 0.95 -5.55L1.3 -2.4Q-0.75 -1.6 -3.25 -3.15" />
<path style="fill:#4A465C;fill-opacity:1" d="M-2.6 -0.35L-1.8 -0.35Q-3.5 -0.9 -3.3 -1.75L-2.1 -2.05Q-2.85 -2.6 -3.25 -3.15Q-0.75 -1.6 1.3 -2.4L1.35 0L1.35 0.7Q-0.7 1.25 -2.6 -0.35" />
<path style="fill:#23202F;fill-opacity:1" d="M1.35 0.7L1.1 4.55L1.1 4.65L1.1 4.8L0.4 7.6L0 7.85Q-0.55 7.85 -1 5.85L-1.25 4.6Q-3.35 2.95 -3.25 -0.15L-2.6 -0.35Q-0.7 1.25 1.35 0.7" />
<path style="fill:none;stroke-width:0.7;stroke-linecap:round;stroke-linejoin:round;stroke-miterlimit:3;stroke:#000000;stroke-opacity:0.301961" d="M-3.25 -3.15Q-4 -4.25 -3.55 -5.5Q-2.15 -6.35 -0.9 -5.85Q-0.5 -7.85 0 -7.85Q0.55 -7.85 0.95 -5.55L1.3 -2.4L1.35 0" />
<path style="fill:none;stroke-width:0.7;stroke-linecap:round;stroke-linejoin:round;stroke-miterlimit:3;stroke:#000000;stroke-opacity:0.301961" d="M1.1 4.55L1.1 4.65L1.1 4.8L0.4 7.6L0 7.85Q-0.55 7.85 -1 5.85L-1.25 4.6Q-3.35 2.95 -3.25 -0.15L-2.6 -0.35L-1.8 -0.35Q-3.5 -0.9 -3.3 -1.75L-2.1 -2.05Q-2.85 -2.6 -3.25 -3.15" />
</g>
</svg>
