<?xml version="1.0" encoding="utf-8"?>
<svg version="1.1" id="Layer_1"
xmlns="http://www.w3.org/2000/svg"
xmlns:xlink="http://www.w3.org/1999/xlink"
width="7px" height="5px"
xml:space="preserve">
<g id="PathID_2928" transform="matrix(1, 0, 0, 1, 2.75, 2.85)">
<path style="fill:#1D130E;fill-opacity:1" d="M2.45 0.4L2.9 0.95L3.05 1.05L2.9 1L2.2 0.35L1.55 1.5L2.5 1.6L2.85 1.6L1.25 1.8L0.75 2.05L0.25 2.15L0 2.15Q-0.9 2.15 -1.55 1.5L-2.75 -0.3L-1.55 -1.55L-1.05 -1.95L2.45 0.4" />
<linearGradient
id="LinearGradID_660" gradientUnits="userSpaceOnUse" gradientTransform="matrix(-0.000686646, -0.000549316, 0.000991821, -0.00123596, -0.4, 4.65)" spreadMethod ="pad" x1="-819.2" y1="0" x2="819.2" y2="0" >
<stop  offset="0.364706" style="stop-color:#ECC8BA;stop-opacity:0" />
<stop  offset="0.815686" style="stop-color:#ECC8BA;stop-opacity:1" />
</linearGradient>
<path style="fill:url(#LinearGradID_660) " d="M2.5 1.6L1.55 1.5L2.2 0.35L2.9 1L2.5 1.6" />
<path style="fill:none;stroke-width:0.7;stroke-linecap:round;stroke-linejoin:round;stroke-miterlimit:3;stroke:#000000;stroke-opacity:0.301961" d="M-1.05 -1.95L-1.55 -1.55L-2.75 -0.3L-1.55 1.5Q-0.9 2.15 0 2.15L0.25 2.15L0.75 2.05L1.25 1.8L2.85 1.6L2.5 1.6L1.55 1.5L2.2 0.35L2.9 1L3.05 1.05L2.9 0.95L2.45 0.4" />
</g>
<g id="PathID_2929" transform="matrix(1, 0, 0, 1, 2.75, 2.85)">
<path style="fill:#FFFFFF;fill-opacity:1" d="M1.2 -0.15Q0.85 0.2 0.4 0.2Q-0.05 0.2 -0.4 -0.15L-0.7 -0.95L-0.55 -1.5L1.4 -0.35L1.2 -0.15" />
</g>
<g id="PathID_2930" transform="matrix(1, 0, 0, 1, 2.75, 2.85)">
<path style="fill:#FFFFFF;fill-opacity:1" d="M-1.3 1.25L-1.7 1.1L-1.85 0.7L-1.7 0.3L-1.3 0.15Q-1.05 0.15 -0.9 0.3L-0.75 0.7L-0.9 1.1L-1.3 1.25" />
</g>
<g id="PathID_2931" transform="matrix(1, 0, 0, 1, 2.75, 2.85)">
<path style="fill:none;stroke-width:0.7;stroke-linecap:round;stroke-linejoin:round;stroke-miterlimit:3;stroke:#000000;stroke-opacity:0.4" d="M-2.4 -2.7L3.1 0.9Q4.15 0.6 3.85 -0.5" />
</g>
</svg>
