<?xml version="1.0" encoding="utf-8"?>
<svg version="1.1" id="Layer_1"
xmlns="http://www.w3.org/2000/svg"
xmlns:xlink="http://www.w3.org/1999/xlink"
width="20px" height="21px"
xml:space="preserve">
<g id="PathID_3004" transform="matrix(1, 0, 0, 1, 12.8, 13.75)">
<radialGradient
id="RadialGradID_687" gradientUnits="userSpaceOnUse" gradientTransform="matrix(0.0120239, 0, 0, 0.0113983, 1.6, -1.9)" spreadMethod ="pad" cx="0" cy="0" r="819.2" fx="0" fy="0" >
<stop  offset="0"  style="stop-color:#E4DECD;stop-opacity:1" />
<stop  offset="0.666667"  style="stop-color:#B7B09D;stop-opacity:1" />
<stop  offset="0.686275"  style="stop-color:#303030;stop-opacity:1" />
</radialGradient>
<path style="fill:url(#RadialGradID_687) " d="M-6.25 -3.2Q-5.75 -4.25 -4.85 -5.1L-4.6 -5.3L-4.45 -5.4L-2.6 -6.5L0 -6.8Q2.85 -6.65 4.8 -4.55L4.95 -4.35L5.55 -3.65L6.2 -2.5Q6.8 -1.15 6.8 0.4L6.75 1.2Q6.05 3 5.45 3.65Q3.9 5.2 0.25 5.1L0.2 5.1Q-6.85 4.05 -6.25 -3.2" />
<path style="fill:#1D1D1D;fill-opacity:1" d="M0.2 5.1L0.25 5.1Q3.9 5.2 5.45 3.65Q6.05 3 6.75 1.2Q6.5 3.5 4.8 5.15Q2.85 7 0 6.85Q-2.85 6.7 -4.85 4.55Q-6.85 2.45 -6.85 -0.4Q-6.85 -1.95 -6.25 -3.2Q-6.85 4.05 0.2 5.1" />
<path style="fill:none;stroke-width:0.7;stroke-linecap:round;stroke-linejoin:miter;stroke-miterlimit:5;stroke:#495366;stroke-opacity:0.4" d="M4.95 -4.35L5.55 -3.65L6.2 -2.5Q6.8 -1.15 6.8 0.4L6.75 1.2Q6.5 3.5 4.8 5.15Q2.85 7 0 6.85Q-2.85 6.7 -4.85 4.55Q-6.85 2.45 -6.85 -0.4Q-6.85 -1.95 -6.25 -3.2Q-5.75 -4.25 -4.85 -5.1L-4.6 -5.3" />
<path style="fill:none;stroke-width:0.7;stroke-linecap:round;stroke-linejoin:miter;stroke-miterlimit:5;stroke:#495366;stroke-opacity:0.4" d="M-4.45 -5.4L-2.6 -6.5" />
</g>
<g id="PathID_3005" transform="matrix(1, 0, 0, 1, 12.8, 13.75)">
<path style="fill:#323232;fill-opacity:1" d="M-2.3 -6.45Q-3.5 -6.85 -3.05 -8.5L-2.05 -9.5Q-0.85 -9.45 -1.1 -7.35L-2.75 -3.45Q-3.45 -4.6 -2.3 -6.45M-2.9 -3.1L-2.8 -3.4Q-2.95 -2.1 -2 -1.7L-0.9 -1.05Q-0.5 0.55 -1.65 1.25Q-2.85 2 -3.3 0.7L-4.15 0.75L-2.9 -3.1M-9 0.15Q-9.7 1.45 -10.2 1.65Q-11.7 1.95 -12 1.25Q-10.8 -0.65 -7.25 -4.35L-6.85 -4.75Q-5.7 -0.7 -9 0.15M0.9 -6.45L0.65 -6.8L0.75 -7.2L1.1 -7.35L1.45 -7.1L1.7 -6.75L1.65 -6.35L1.25 -6.2L0.9 -6.45M0.65 -5.7L0.8 -5.05L0.8 -5Q3.3 -5.3 1.25 -1Q1.55 -2.75 -0.35 -3.6L-0.85 -4.15Q-1.05 -4.45 -0.9 -5.05L-0.6 -5.9L0.15 -6.1L0.65 -5.7M-5.25 -0.05L-5.15 0.65L-5.45 1.3Q-5.7 1.6 -5.95 1.55L-6.25 1.4L-6.25 1.85L-6.65 2.7Q-6.95 3.1 -7.3 3.05L-7.9 2.5Q-8.1 2.2 -7.95 1.6Q-7.9 1.05 -7.65 0.75L-6.9 0.55L-6.5 0.85L-6.45 0.45L-6.2 -0.2L-5.65 -0.35L-5.25 -0.05M-5.45 -2.75L-5.3 -3.45L-4.9 -3.95L-4.35 -4L-4 -3.6L-4.1 -2.9L-4.55 -2.4L-5.1 -2.3L-5.45 -2.75" />
<linearGradient
id="LinearGradID_688" gradientUnits="userSpaceOnUse" gradientTransform="matrix(-0.00382996, 0.00804138, -0.00918579, -0.00439453, -2.25, -3.25)" spreadMethod ="pad" x1="-819.2" y1="0" x2="819.2" y2="0" >
<stop  offset="0" style="stop-color:#FFFFFF;stop-opacity:1" />
<stop  offset="0.686275" style="stop-color:#DCE5EB;stop-opacity:1" />
</linearGradient>
<path style="fill:url(#LinearGradID_688) " d="M-4.15 0.75L-3.3 0.7Q-2.85 2 -1.65 1.25Q-0.5 0.55 -0.9 -1.05L-2 -1.7Q-2.95 -2.1 -2.8 -3.4L-2.9 -3.1L-2.75 -3.45L-1.1 -7.35L1.45 -12.95L1.95 -13.45L3.1 -6Q3.45 -2.25 2.85 -0.8Q2.1 0.95 0.15 2.2Q-1.85 3.4 -3.7 3.2Q-4.6 3.05 -4.2 1L-6.35 3.55L-4.15 0.75M-6.35 3.55Q-6.8 4.35 -9.45 4.35Q-12.35 4.35 -12.65 2.9Q-12.75 2.4 -12 1.25Q-11.7 1.95 -10.2 1.65Q-9.7 1.45 -9 0.15Q-5.7 -0.7 -6.85 -4.75L-3.05 -8.5Q-3.5 -6.85 -2.3 -6.45Q-3.45 -4.6 -2.75 -3.45L-2.8 -3.4M-2.9 -3.1L-4.15 0.75L-4.2 1M1.25 -6.2L1.65 -6.35L1.7 -6.75L1.45 -7.1L1.1 -7.35L0.75 -7.2L0.65 -6.8L0.9 -6.45L1.25 -6.2M0.15 -6.1L-0.6 -5.9L-0.9 -5.05Q-1.05 -4.45 -0.85 -4.15L-0.35 -3.6Q1.55 -2.75 1.25 -1Q3.3 -5.3 0.8 -5L0.8 -5.05L0.65 -5.7L0.15 -6.1M-5.65 -0.35L-6.2 -0.2L-6.45 0.45L-6.5 0.85L-6.9 0.55L-7.65 0.75Q-7.9 1.05 -7.95 1.6Q-8.1 2.2 -7.9 2.5L-7.3 3.05Q-6.95 3.1 -6.65 2.7L-6.25 1.85L-6.25 1.4L-5.95 1.55Q-5.7 1.6 -5.45 1.3L-5.15 0.65L-5.25 -0.05L-5.65 -0.35M-5.1 -2.3L-4.55 -2.4L-4.1 -2.9L-4 -3.6L-4.35 -4L-4.9 -3.95L-5.3 -3.45L-5.45 -2.75L-5.1 -2.3" />
<path style="fill:#FFFFFF;fill-opacity:1" d="M-2.05 -9.5L1.45 -12.95L-1.1 -7.35Q-0.85 -9.45 -2.05 -9.5" />
<path style="fill:none;stroke-width:0.7;stroke-linecap:round;stroke-linejoin:miter;stroke-miterlimit:5;stroke:#495366;stroke-opacity:0.4" d="M-4.2 1Q-4.6 3.05 -3.7 3.2Q-1.85 3.4 0.15 2.2Q2.1 0.95 2.85 -0.8Q3.45 -2.25 3.1 -6L1.95 -13.45L1.45 -12.95L-1.1 -7.35L-2.75 -3.45L-2.8 -3.4" />
<path style="fill:none;stroke-width:0.7;stroke-linecap:round;stroke-linejoin:miter;stroke-miterlimit:5;stroke:#495366;stroke-opacity:0.4" d="M-4.15 0.75L-4.2 1L-6.35 3.55Q-6.8 4.35 -9.45 4.35Q-12.35 4.35 -12.65 2.9Q-12.75 2.4 -12 1.25Q-10.8 -0.65 -7.25 -4.35L-6.85 -4.75L-3.05 -8.5L-2.05 -9.5L1.45 -12.95" />
<path style="fill:none;stroke-width:0.7;stroke-linecap:round;stroke-linejoin:miter;stroke-miterlimit:5;stroke:#495366;stroke-opacity:0.4" d="M-2.8 -3.4L-2.9 -3.1L-4.15 0.75" />
</g>
<g id="PathID_3006" transform="matrix(1, 0, 0, 1, 12.8, 13.75)">
<path style="fill:none;stroke-width:0.7;stroke-linecap:round;stroke-linejoin:miter;stroke-miterlimit:5;stroke:#495366;stroke-opacity:0.4" d="M1.95 -13.45L1.45 -12.95L-0.1 -9.6L0.45 -7.55L2.7 -8.9L1.95 -13.45z" />
<path style="fill:none;stroke-width:0.7;stroke-linecap:round;stroke-linejoin:miter;stroke-miterlimit:5;stroke:#495366;stroke-opacity:0.4" d="M2.2 -2.8Q0.35 0.1 -1.9 0.45Q-2.3 2.05 -2.95 3.25Q-1.45 3.15 0.15 2.2Q2.1 0.95 2.85 -0.8Q3.15 -1.6 3.25 -3L2.2 -2.8L-0.45 -4.85L-1.2 -3.15L-1.9 0.45" />
<path style="fill:none;stroke-width:0.7;stroke-linecap:round;stroke-linejoin:miter;stroke-miterlimit:5;stroke:#495366;stroke-opacity:0.4" d="M3.25 -3L3.1 -6L2.7 -8.9" />
<path style="fill:none;stroke-width:0.7;stroke-linecap:round;stroke-linejoin:miter;stroke-miterlimit:5;stroke:#495366;stroke-opacity:0.4" d="M1.45 -12.95L-4 -7.55L-2.5 -7.7L-0.9 -7.85L-0.1 -9.6" />
<path style="fill:none;stroke-width:0.7;stroke-linecap:round;stroke-linejoin:miter;stroke-miterlimit:5;stroke:#495366;stroke-opacity:0.4" d="M-0.9 -7.85L-1.1 -7.35L-2.3 -4.6L-1.2 -3.15" />
<path style="fill:none;stroke-width:0.7;stroke-linecap:round;stroke-linejoin:miter;stroke-miterlimit:5;stroke:#495366;stroke-opacity:0.4" d="M-4 -7.55L-7.25 -4.35L-7.9 -3.6L-5.5 -3.3L-5.45 -3.35Q-4.65 -5.05 -2.5 -7.7" />
<path style="fill:none;stroke-width:0.7;stroke-linecap:round;stroke-linejoin:miter;stroke-miterlimit:5;stroke:#495366;stroke-opacity:0.4" d="M-2.3 -4.6L-2.75 -3.45L-2.8 -3.4L-2.9 -3.1L-3.95 0.15L-4.15 0.75L-4.2 1Q-4.6 3.05 -3.7 3.2L-2.95 3.25" />
<path style="fill:none;stroke-width:0.7;stroke-linecap:round;stroke-linejoin:miter;stroke-miterlimit:5;stroke:#495366;stroke-opacity:0.4" d="M-7.9 -3.6L-10.55 -0.65L-8.75 0.85Q-6.75 0 -4.75 -1.75L-5.45 -3.35" />
<path style="fill:none;stroke-width:0.7;stroke-linecap:round;stroke-linejoin:miter;stroke-miterlimit:5;stroke:#495366;stroke-opacity:0.4" d="M-10.55 -0.65L-12 1.25Q-12.75 2.4 -12.65 2.9Q-12.35 4.35 -9.45 4.35Q-6.8 4.35 -6.35 3.55L-5.55 2.6Q-7.25 1.95 -8.75 0.85" />
<path style="fill:none;stroke-width:0.7;stroke-linecap:round;stroke-linejoin:miter;stroke-miterlimit:5;stroke:#495366;stroke-opacity:0.4" d="M-5.55 2.6L-4.2 1" />
<path style="fill:none;stroke-width:0.7;stroke-linecap:round;stroke-linejoin:miter;stroke-miterlimit:5;stroke:#495366;stroke-opacity:0.4" d="M-4.75 -1.75L-3.95 0.15" />
<path style="fill:none;stroke-width:0.7;stroke-linecap:round;stroke-linejoin:miter;stroke-miterlimit:5;stroke:#495366;stroke-opacity:0.4" d="M-0.45 -4.85L0.45 -7.55" />
</g>
</svg>
