<?xml version="1.0" encoding="utf-8"?>
<svg version="1.1" id="Layer_1"
xmlns="http://www.w3.org/2000/svg"
xmlns:xlink="http://www.w3.org/1999/xlink"
width="24px" height="21px"
xml:space="preserve">
<g id="PathID_3878" transform="matrix(1, 0, 0, 1, 9.55, 9.85)">
<path style="fill:#8F0728;fill-opacity:1" d="M-7.85 -2.15Q-10.95 3.7 -3.85 6.8Q6.3 9.65 7.9 -2.3Q8.1 -5.4 6.7 -9.15Q7.5 -8.55 8.6 -6.35Q9.65 -4.2 9.25 -1.55L8.65 4.05Q8.5 7.05 5.45 8.75Q2.4 10.45 -1.15 10.15Q-4.75 9.8 -7.2 7.25Q-9.65 4.65 -9.4 1.9Q-9.25 0.05 -7.85 -2.15" />
<linearGradient
id="LinearGradID_888" gradientUnits="userSpaceOnUse" gradientTransform="matrix(-0.006073, -0.00613403, 0.00746155, -0.00737, 1.6, 0.9)" spreadMethod ="pad" x1="-819.2" y1="0" x2="819.2" y2="0" >
<stop  offset="0.47451" style="stop-color:#D70B3C;stop-opacity:1" />
<stop  offset="0.760784" style="stop-color:#C75169;stop-opacity:1" />
</linearGradient>
<path style="fill:url(#LinearGradID_888) " d="M7.9 -2.3Q6.3 9.65 -3.85 6.8Q-10.95 3.7 -7.85 -2.15L-7.15 -2.85L-7.1 -2.9L-5.7 -4.2L-5 -4.9L-4.9 -5L-2.1 -7.3L0.2 -9.15Q4.85 -10.5 6.7 -9.15Q8.1 -5.4 7.9 -2.3" />
<path style="fill:none;stroke-width:0.7;stroke-linecap:round;stroke-linejoin:miter;stroke-miterlimit:5;stroke:#000000;stroke-opacity:0.4" d="M0.2 -9.15L-2.1 -7.3L-4.9 -5L-5 -4.9L-5.7 -4.2L-7.1 -2.9" />
<path style="fill:none;stroke-width:0.7;stroke-linecap:round;stroke-linejoin:miter;stroke-miterlimit:5;stroke:#000000;stroke-opacity:0.4" d="M-7.15 -2.85L-7.85 -2.15" />
<path style="fill:none;stroke-width:0.7;stroke-linecap:round;stroke-linejoin:miter;stroke-miterlimit:5;stroke:#000000;stroke-opacity:0.4" d="M6.7 -9.15Q7.5 -8.55 8.6 -6.35Q9.65 -4.2 9.25 -1.55L8.65 4.05Q8.5 7.05 5.45 8.75Q2.4 10.45 -1.15 10.15Q-4.75 9.8 -7.2 7.25Q-9.65 4.65 -9.4 1.9Q-9.25 0.05 -7.85 -2.15" />
</g>
<g id="PathID_3879" transform="matrix(1, 0, 0, 1, 9.55, 9.85)">
<path style="fill:#F9E0C2;fill-opacity:1" d="M11.15 -4.25L10.85 -4L12.3 -4.25L12.55 -4.2Q13.25 -4.1 13.2 -3.5Q13.1 -2.2 10.6 -2.55Q11.65 -1.2 10.6 -0.15Q9.6 0.8 8.1 0.35L7.3 -0.1Q6.95 -0.75 7.05 -1.45Q4 -3.75 2.7 -7.6L-0.35 -8.8Q7.5 -12.1 9.35 -5.15L10.9 -5.85L11.4 -5.7Q11.75 -5.35 11.2 -4.7L10.3 -3.8L11.15 -4.25M9.05 -1.3Q10.05 -0.95 10.15 -1.6Q10.2 -2.25 8.85 -2.65L7.75 -2.6L7.15 -1.85L7.05 -1.45L7.15 -1.85L7.75 -2.6L8.85 -2.65Q10.2 -2.25 10.15 -1.6Q10.05 -0.95 9.05 -1.3M9.35 -5.15L8.7 -4.85L9.35 -5.15" />
<path style="fill:#C48376;fill-opacity:1" d="M10.3 -3.8L11.2 -4.7Q11.75 -5.35 11.4 -5.7L10.9 -5.85L11.85 -5.75Q12.25 -5.4 11.65 -4.75L11.15 -4.25L10.3 -3.8M8.1 0.35Q9.6 0.8 10.6 -0.15Q11.65 -1.2 10.6 -2.55Q13.1 -2.2 13.2 -3.5Q13.25 -4.1 12.55 -4.2Q13.8 -4.3 13.8 -3.4Q13.65 -2.05 11 -2.45Q12.15 -1 11.05 0.05Q9.95 1.2 8.3 0.65Q7.65 0.4 7.3 -0.1L8.1 0.35" />
<path style="fill:none;stroke-width:0.7;stroke-linecap:round;stroke-linejoin:miter;stroke-miterlimit:5;stroke:#000000;stroke-opacity:0.4" d="M9.35 -5.15L10.9 -5.85L11.85 -5.75Q12.25 -5.4 11.65 -4.75L11.15 -4.25L10.85 -4L12.3 -4.25L12.55 -4.2Q13.8 -4.3 13.8 -3.4Q13.65 -2.05 11 -2.45Q12.15 -1 11.05 0.05Q9.95 1.2 8.3 0.65Q7.65 0.4 7.3 -0.1Q6.95 -0.75 7.05 -1.45L7.15 -1.85L7.75 -2.6L8.85 -2.65Q10.2 -2.25 10.15 -1.6Q10.05 -0.95 9.05 -1.3" />
<path style="fill:none;stroke-width:0.7;stroke-linecap:round;stroke-linejoin:miter;stroke-miterlimit:5;stroke:#000000;stroke-opacity:0.4" d="M8.7 -4.85L9.35 -5.15" />
</g>
</svg>
