<?xml version="1.0" encoding="utf-8"?>
<svg version="1.1" id="Layer_1"
xmlns="http://www.w3.org/2000/svg"
xmlns:xlink="http://www.w3.org/1999/xlink"
width="18px" height="14px"
xml:space="preserve">
<g id="PathID_4552" transform="matrix(1, 0, 0, 1, 7.2, 6.8)">
<path style="fill:#8E542E;fill-opacity:1" d="M-4.85 1.95Q-5.75 1.1 -6.1 -1.15L-6.25 -3.2L-5.35 -4.65Q-4.15 -6.15 -2.6 -6.5L0 -6.8Q1.65 -6.7 3 -5.95L5.55 -3.65Q6.85 -2.1 7.05 0.9L7 3.6Q-1.5 5 -4.85 1.95" />
<path style="fill:#593118;fill-opacity:1" d="M-6.25 -3.2L-6.1 -1.15Q-5.75 1.1 -4.85 1.95Q-1.5 5 7 3.6L7.45 4.65Q8.25 5.65 10.65 6.65L6.25 6.7L1.15 6.6Q-2.75 6.3 -4.5 5.45Q-6.05 4.7 -6.7 2.65Q-7.15 1.3 -7.05 0.2L-6.25 -3.2" />
<path style="fill:none;stroke-width:0.7;stroke-linecap:round;stroke-linejoin:miter;stroke-miterlimit:5;stroke:#000000;stroke-opacity:0.4" d="M-2.6 -6.5Q-4.15 -6.15 -5.35 -4.65L-6.25 -3.2" />
<path style="fill:none;stroke-width:0.7;stroke-linecap:round;stroke-linejoin:miter;stroke-miterlimit:5;stroke:#000000;stroke-opacity:0.4" d="M1.15 6.6Q-2.75 6.3 -4.5 5.45Q-6.05 4.7 -6.7 2.65Q-7.15 1.3 -7.05 0.2L-6.25 -3.2" />
</g>
<g id="PathID_4553" transform="matrix(1, 0, 0, 1, 7.2, 6.8)">
<path style="fill:#000000;fill-opacity:0.301961" d="M-6.85 -2.4L-3.75 -4.05L-1.45 0.6L3.85 -1.6L6.1 3.2Q3.75 4.3 3.55 1.85Q3.3 -0.65 2 0.9Q0.7 2.35 -0.75 2.25Q-3.55 1.9 -3.75 -0.8L-4.05 -2.05L-4.7 -1.55Q-5.75 -0.45 -6.5 -0.25L-6.85 -0.2L-6.85 -2.4" />
</g>
<g id="PathID_4554" transform="matrix(1, 0, 0, 1, 7.2, 6.8)">
<path style="fill:#E9DBCB;fill-opacity:1" d="M1.2 -0.5L1.85 -0.9Q2.3 -1.4 2.9 -1.4L4.05 -0.95L4.7 -0.6L5 -0.9Q5 -1.4 4.45 -1.8L3 -2.25Q2.55 -2.25 1.75 -1.6L1 -0.65L1.2 -0.5M3.45 -2.45Q5.55 -2.25 5.7 0Q5.65 1.25 6.05 1.6Q6.6 1.5 6.7 2.3Q6.8 3.2 5.55 3.1Q4.5 3.05 4.35 1.3Q4.1 -0.5 3.3 -0.8Q2.65 -0.95 1.55 0.15Q0.35 1.35 -0.5 1.25Q-2.75 0.95 -3 -1Q-3.3 -3.15 -3.6 -3.3Q-4.25 -3.65 -5.25 -2.55L-6.15 -1.75Q-7.45 -2.3 -6.15 -3.8L-5.75 -4.1Q-4.85 -4.9 -3.85 -4.85Q-2.2 -4.65 -1.75 -2.7Q-1.25 -0.6 -0.75 -0.5Q0.2 -0.25 1.1 -1.4Q2.05 -2.55 3.45 -2.45M-5.8 -3.65L-5.5 -3.4L-5 -3.65L-4.2 -3.9Q-3.6 -3.9 -3.25 -3.55L-2.7 -3.1L-2.6 -3.45Q-2.6 -3.95 -3.75 -4.7Q-4.5 -4.85 -5.15 -4.35L-5.8 -3.65" />
<path style="fill:#FFFFFF;fill-opacity:1" d="M1 -0.65L1.75 -1.6Q2.55 -2.25 3 -2.25L4.45 -1.8Q5 -1.4 5 -0.9L4.7 -0.6L4.05 -0.95L2.9 -1.4Q2.3 -1.4 1.85 -0.9L1.2 -0.5L1 -0.65M-5.15 -4.35Q-4.5 -4.85 -3.75 -4.7Q-2.6 -3.95 -2.6 -3.45L-2.7 -3.1L-3.25 -3.55Q-3.6 -3.9 -4.2 -3.9L-5 -3.65L-5.5 -3.4L-5.8 -3.65L-5.15 -4.35" />
</g>
</svg>
