<?xml version="1.0" encoding="utf-8"?>
<svg version="1.1" id="Layer_1"
xmlns="http://www.w3.org/2000/svg"
xmlns:xlink="http://www.w3.org/1999/xlink"
width="21px" height="20px"
xml:space="preserve">
<g id="PathID_3685" transform="matrix(1, 0, 0, 1, 10.65, 9.5)">
<path style="fill:#EDF8E0;fill-opacity:1" d="M-4.35 7.8Q-7.75 6.85 -8.8 4.8L-8.85 4.7Q-5.85 -2.05 -1.4 -5.1Q0.1 -3.9 2.95 -3.6Q5.65 -3.75 7.2 -4.45L7.25 -4.45Q9.5 -0.05 8 6.05L8 6.1Q4.95 9.15 -4.35 7.8" />
<path style="fill:#A68C67;fill-opacity:1" d="M-8.8 4.8Q-7.75 6.85 -4.35 7.8Q4.95 9.15 8 6.1L7.1 8.2L5.5 8.85Q1 10.25 -2.45 9.65Q-5.9 9.05 -8.35 7.2L-8.6 7Q-9.3 6.05 -8.8 4.8M2.95 -3.6Q0.1 -3.9 -1.4 -5.1L-1.5 -5.2Q4.2 -8.25 7.05 -4.65L7.2 -4.45Q5.65 -3.75 2.95 -3.6" />
<path style="fill:#362416;fill-opacity:1" d="M8 6.1L8 6.05Q9.2 4.85 9.4 2.9Q10.15 -3.95 8.05 -4.95L7.25 -4.45L7.05 -4.65Q4.2 -8.25 -1.5 -5.2Q-2.35 -6 -2.7 -7.05Q-1.75 -7.6 1.15 -8.65Q5.3 -10.15 6.5 -8.15Q7.5 -8.55 8.55 -6.2Q9.65 -3.9 9.7 -2.15L9.85 3.5Q9.95 6.65 7.1 8.2L8 6.1M-8.85 4.7L-8.8 4.8Q-9.3 6.05 -8.6 7Q-10.85 5.25 -10.4 3.4Q-9.95 1.4 -8.75 -0.15Q-9.85 2.75 -8.85 4.7" />
<path style="fill:#585452;fill-opacity:1" d="M7.2 -4.45L7.05 -4.65L7.25 -4.45L7.2 -4.45" />
<path style="fill:#8D6A43;fill-opacity:1" d="M-1.5 -5.2L-1.4 -5.1Q-5.85 -2.05 -8.85 4.7Q-9.85 2.75 -8.75 -0.15L-7.75 -1.55L-5.9 -3.9L-4.4 -5.45L-2.7 -7.05Q-2.35 -6 -1.5 -5.2M7.25 -4.45L8.05 -4.95Q10.15 -3.95 9.4 2.9Q9.2 4.85 8 6.05Q9.5 -0.05 7.25 -4.45" />
<path style="fill:none;stroke-width:0.7;stroke-linecap:round;stroke-linejoin:miter;stroke-miterlimit:5;stroke:#4F3218;stroke-opacity:0.4" d="M6.5 -8.15Q7.5 -8.55 8.55 -6.2Q9.65 -3.9 9.7 -2.15L9.85 3.5Q9.95 6.65 7.1 8.2L5.5 8.85Q1 10.25 -2.45 9.65Q-5.9 9.05 -8.35 7.2L-8.6 7Q-10.85 5.25 -10.4 3.4Q-9.95 1.4 -8.75 -0.15L-7.75 -1.55L-5.9 -3.9L-4.4 -5.45L-2.7 -7.05Q-1.75 -7.6 1.15 -8.65" />
<path style="fill:none;stroke-width:0.7;stroke-linecap:round;stroke-linejoin:miter;stroke-miterlimit:5;stroke:#000000;stroke-opacity:0.4" d="M8 6.1L7.1 8.2" />
<path style="fill:none;stroke-width:0.7;stroke-linecap:round;stroke-linejoin:miter;stroke-miterlimit:5;stroke:#000000;stroke-opacity:0.4" d="M7.05 -4.65L7.25 -4.45Q9.5 -0.05 8 6.05" />
<path style="fill:none;stroke-width:0.7;stroke-linecap:round;stroke-linejoin:miter;stroke-miterlimit:5;stroke:#000000;stroke-opacity:0.4" d="M7.2 -4.45L7.05 -4.65Q4.2 -8.25 -1.5 -5.2" />
<path style="fill:none;stroke-width:0.7;stroke-linecap:round;stroke-linejoin:miter;stroke-miterlimit:5;stroke:#000000;stroke-opacity:0.4" d="M-8.8 4.8Q-9.3 6.05 -8.6 7" />
<path style="fill:none;stroke-width:0.7;stroke-linecap:round;stroke-linejoin:miter;stroke-miterlimit:5;stroke:#000000;stroke-opacity:0.4" d="M-1.4 -5.1Q-5.85 -2.05 -8.85 4.7" />
</g>
<g id="PathID_3686" transform="matrix(1, 0, 0, 1, 10.65, 9.5)">
<radialGradient
id="RadialGradID_862" gradientUnits="userSpaceOnUse" gradientTransform="matrix(0.00724792, 0.00149536, -0.00311279, 0.0115662, 3.15, -6.65)" spreadMethod ="pad" cx="0" cy="0" r="819.2" fx="138" fy="0" >
<stop  offset="0.823529"  style="stop-color:#BB4D0C;stop-opacity:1" />
<stop  offset="1"  style="stop-color:#BB4D0C;stop-opacity:0" />
</radialGradient>
<path style="fill:url(#RadialGradID_862) " d="M-2.9 -5.5L-2.45 -7.45Q6.55 -12.35 9.15 -5.5L8.95 -4.95Q0.75 -2.4 -2.9 -5.5" />
<radialGradient
id="RadialGradID_863" gradientUnits="userSpaceOnUse" gradientTransform="matrix(0.00724792, 0.00149536, -0.00311279, 0.0115662, 3.15, -6.65)" spreadMethod ="pad" cx="0" cy="0" r="819.2" fx="138" fy="0" >
<stop  offset="0.823529"  style="stop-color:#EC6A18;stop-opacity:1" />
<stop  offset="1"  style="stop-color:#EC6A18;stop-opacity:0" />
</radialGradient>
<path style="fill:url(#RadialGradID_863) " d="M-2.9 -5.5Q0.75 -2.4 8.95 -4.95Q7.35 -0.95 4.4 1.3Q1.75 3.25 0.15 2.8Q-1.4 2.2 -2.4 -0.35Q-3.3 -2.7 -2.9 -5.5" />
</g>
</svg>
