<?xml version="1.0" encoding="utf-8"?>
<svg version="1.1" id="Layer_1"
xmlns="http://www.w3.org/2000/svg"
xmlns:xlink="http://www.w3.org/1999/xlink"
width="4px" height="16px"
xml:space="preserve">
<g id="PathID_3706" transform="matrix(1, 0, 0, 1, 1.85, 7.85)">
<path style="fill:#E1D1C7;fill-opacity:1" d="M-0.8 -6.25Q-0.45 -7.85 0 -7.85Q0.5 -7.85 0.9 -5.85L0.95 -5.55L1.05 -5.05Q0.1 -6.25 -0.8 -6.25M-1.85 1.15L-1.85 0.85L-1.85 0.55Q-0.25 -0.5 1.35 0.5L1.35 1.1Q-0.25 0.1 -1.85 1.15M-1.55 3.25L-1.65 2.8L-1.75 2.2Q-0.25 1.45 1.25 2.4L1.2 3.6Q-0.25 2.9 -1.55 3.25" />
<path style="fill:#9A6646;fill-opacity:1" d="M-1.85 0.55L-1.5 -2.2L-1.1 -4.5L-0.95 -5.55L-0.8 -6.25Q0.1 -6.25 1.05 -5.05L1.35 0L1.35 0.5Q-0.25 -0.5 -1.85 0.55M-1.75 2.2L-1.85 1.15Q-0.25 0.1 1.35 1.1L1.25 2.4Q-0.25 1.45 -1.75 2.2M1.2 3.6L1.1 4.55L1.1 4.65L1.1 4.8L0.4 7.6L0 7.85Q-0.55 7.85 -1 5.85L-1.55 3.25Q-0.25 2.9 1.2 3.6" />
<path style="fill:none;stroke-width:0.7;stroke-linecap:round;stroke-linejoin:round;stroke-miterlimit:3;stroke:#000000;stroke-opacity:0.301961" d="M1.05 -5.05L0.95 -5.55L0.9 -5.85Q0.5 -7.85 0 -7.85Q-0.45 -7.85 -0.8 -6.25" />
<path style="fill:none;stroke-width:0.7;stroke-linecap:round;stroke-linejoin:round;stroke-miterlimit:3;stroke:#000000;stroke-opacity:0.301961" d="M1.05 -5.05L1.35 0" />
<path style="fill:none;stroke-width:0.7;stroke-linecap:round;stroke-linejoin:round;stroke-miterlimit:3;stroke:#000000;stroke-opacity:0.301961" d="M1.1 4.55L1.1 4.65L1.1 4.8L0.4 7.6L0 7.85Q-0.55 7.85 -1 5.85L-1.55 3.25L-1.65 2.8L-1.75 2.2L-1.85 1.15L-1.85 0.85L-1.85 0.55L-1.5 -2.2L-1.1 -4.5L-0.95 -5.55L-0.8 -6.25" />
</g>
</svg>
