<?xml version="1.0" encoding="utf-8"?>
<svg version="1.1" id="Layer_1"
xmlns="http://www.w3.org/2000/svg"
xmlns:xlink="http://www.w3.org/1999/xlink"
width="17px" height="20px"
xml:space="preserve">
<g id="PathID_4075" transform="matrix(1, 0, 0, 1, 8.9, 8.05)">
<path style="fill:#A5C0D5;fill-opacity:1" d="M6.45 4.85L5.5 4.15Q4.7 3.65 4.6 2.85Q4.45 1.9 5.3 0.3Q5.65 -0.35 5.55 -1.3Q5.4 -2.85 3.6 -4.6Q1.4 -6.7 -1.4 -6.45Q-3.65 -6.2 -5.4 -5.1L-6.9 -3.75Q-8.4 -1 -8.65 0.5L-8.65 0.05Q-8.7 -1.25 -8.15 -2.85Q-6.95 -6.1 -3.95 -7.2Q-0.7 -8.35 2.25 -7.3L5.1 -5.65L6.85 -3.2Q8.45 -0.1 7.5 3.25L7 4.95L6.45 4.85" />
<path style="fill:#81A1A8;fill-opacity:1" d="M3.75 4.55Q2.2 4.2 2.2 1.25Q2 -3.95 -1.3 -3.95Q-4.75 -4.8 -8.65 0.5Q-8.4 -1 -6.9 -3.75L-5.4 -5.1Q-3.65 -6.2 -1.4 -6.45Q1.4 -6.7 3.6 -4.6Q5.4 -2.85 5.55 -1.3Q5.65 -0.35 5.3 0.3Q4.45 1.9 4.6 2.85Q4.7 3.65 5.5 4.15L6.45 4.85L3.75 4.55" />
<path style="fill:#BBE1EA;fill-opacity:1" d="M2 7.55Q-0.6 8.35 -2.45 7.55L-1.25 4.25L-3.8 7.05Q-6 6.15 -7.4 4Q-8.55 2.2 -8.65 0.5Q-4.75 -4.8 -1.3 -3.95Q2 -3.95 2.2 1.25Q2.2 4.2 3.75 4.55Q2.85 7.3 2 7.55" />
<path style="fill:none;stroke-width:0.7;stroke-linecap:round;stroke-linejoin:miter;stroke-miterlimit:5;stroke:#000000;stroke-opacity:0.301961" d="M7 4.95L7.5 3.25Q8.45 -0.1 6.85 -3.2L5.1 -5.65L2.25 -7.3Q-0.7 -8.35 -3.95 -7.2Q-6.95 -6.1 -8.15 -2.85Q-8.7 -1.25 -8.65 0.05L-8.65 0.5" />
<path style="fill:none;stroke-width:0.7;stroke-linecap:round;stroke-linejoin:miter;stroke-miterlimit:5;stroke:#000000;stroke-opacity:0.301961" d="M-6.9 -3.75L-5.4 -5.1Q-3.65 -6.2 -1.4 -6.45Q1.4 -6.7 3.6 -4.6Q5.4 -2.85 5.55 -1.3Q5.65 -0.35 5.3 0.3Q4.45 1.9 4.6 2.85Q4.7 3.65 5.5 4.15" />
<path style="fill:none;stroke-width:0.7;stroke-linecap:round;stroke-linejoin:miter;stroke-miterlimit:5;stroke:#000000;stroke-opacity:0.301961" d="M-8.65 0.5Q-8.55 2.2 -7.4 4Q-6 6.15 -3.8 7.05L-1.25 4.25L-2.45 7.55Q-0.6 8.35 2 7.55" />
</g>
<g id="PathID_4076" transform="matrix(1, 0, 0, 1, 8.9, 8.05)">
<path style="fill:none;stroke-width:0.7;stroke-linecap:round;stroke-linejoin:miter;stroke-miterlimit:5;stroke:#002D41;stroke-opacity:0.301961" d="M2.5 -5.55Q-2.6 -3.45 -2.8 2.55" />
</g>
<g id="PathID_4077" transform="matrix(1, 0, 0, 1, 8.9, 8.05)">
<path style="fill:#F6EFE7;fill-opacity:1" d="M3.15 9.45L0.3 11.15Q0.2 9.25 2.3 7.7L0.05 8.1Q0.95 5.75 4.25 6.2Q1.85 4.05 2.55 1.35Q3.1 2.45 3.85 3.15L5.75 4.5Q6.25 8.1 3.15 9.45" />
<path style="fill:none;stroke-width:0.7;stroke-linecap:round;stroke-linejoin:round;stroke-miterlimit:3;stroke:#000000;stroke-opacity:0.4" d="M3.15 9.45L0.3 11.15Q0.2 9.25 2.3 7.7L0.05 8.1Q0.95 5.75 4.25 6.2Q1.85 4.05 2.55 1.35Q3.1 2.45 3.85 3.15" />
<path style="fill:none;stroke-width:0.7;stroke-linecap:round;stroke-linejoin:round;stroke-miterlimit:3;stroke:#59AFE2;stroke-opacity:0.458824" d="M3.85 3.15L5.75 4.5" />
</g>
</svg>
