<?xml version="1.0" encoding="utf-8"?>
<svg version="1.1" id="Layer_1"
xmlns="http://www.w3.org/2000/svg"
xmlns:xlink="http://www.w3.org/1999/xlink"
width="21px" height="20px"
xml:space="preserve">
<g id="PathID_4474" transform="matrix(1, 0, 0, 1, 10.6, 9.3)">
<path style="fill:#663C23;fill-opacity:1" d="M6.15 7.85L6.3 7.3Q8.35 6.45 9.15 4.1L9.4 2.9L9.6 -0.2L9.5 -2L9.4 -2.6Q9.05 -4.45 8.05 -4.95L6.6 -4.15L6.35 -4.85Q5.6 -6.85 4.25 -6.85Q2.35 -6.85 -0.35 -5.25L-0.7 -5L-0.85 -5.1L-1.4 -5.5Q-2.5 -6.4 -2.7 -7.05L-1.05 -7.8L1.15 -8.65Q5.3 -10.15 6.5 -8.15Q7.5 -8.55 8.55 -6.2Q9.2 -4.85 9.7 -2.55L9.7 -2.15L9.85 3.5L9.8 4.55Q9.4 7.45 5.9 8.75L6.15 7.85M-5.35 7.5L-5.35 7.7L-5.25 9Q-7 8.35 -8.35 7.2Q-10.85 5.35 -10.4 3.4Q-9.95 1.4 -8.75 -0.15Q-10.2 3.75 -8 5.9Q-7.05 6.85 -5.35 7.5" />
<linearGradient
id="LinearGradID_1000" gradientUnits="userSpaceOnUse" gradientTransform="matrix(0.001297, -0.00483704, 0.00720215, 0.00193787, 8.75, 3.05)" spreadMethod ="pad" x1="-819.2" y1="0" x2="819.2" y2="0" >
<stop  offset="0" style="stop-color:#A1633C;stop-opacity:1" />
<stop  offset="1" style="stop-color:#FAB244;stop-opacity:1" />
</linearGradient>
<path style="fill:url(#LinearGradID_1000) " d="M-2.15 -3.55L-3.15 -1.85Q-3.95 -0.45 -4.65 2.45Q-5.3 5.3 -5.35 7.5Q-7.05 6.85 -8 5.9Q-10.2 3.75 -8.75 -0.15L-6.55 -2.85L-4.85 -4.95L-4.4 -5.45L-2.7 -7.05Q-2.5 -6.4 -1.4 -5.5L-0.85 -5.1L-0.7 -5L-2.15 -3.55M7.05 -0.1L7.05 -0.2Q7.05 -2.5 6.6 -4.15L8.05 -4.95Q9.05 -4.45 9.4 -2.6L9.5 -2L9.6 -0.2L9.4 2.9L9.15 4.1Q8.35 6.45 6.3 7.3Q7.05 4.3 7.05 -0.1" />
<path style="fill:#4B3C39;fill-opacity:1" d="M-0.7 -5Q1.15 -3.7 2.95 -3.6Q4.85 -3.5 6.6 -4.15Q7.05 -2.5 7.05 -0.2L7.05 -0.1Q7.05 4.3 6.3 7.3L5.4 7.6Q1.5 8.65 -2.15 8.2L-5.25 7.5L-5.35 7.5Q-5.3 5.3 -4.65 2.45Q-3.95 -0.45 -3.15 -1.85L-2.15 -3.55L-0.7 -5" />
<path style="fill:#2E231D;fill-opacity:1" d="M2.95 -3.6Q1.15 -3.7 -0.7 -5L-0.35 -5.25Q2.35 -6.85 4.25 -6.85Q5.6 -6.85 6.35 -4.85L6.6 -4.15Q4.85 -3.5 2.95 -3.6M-5.35 7.7L-5.35 7.5L-5.25 7.5L-2.15 8.2Q1.5 8.65 5.4 7.6L6.3 7.3L6.15 7.85L5.9 8.75L5.5 8.85Q1.1 10.1 -2.45 9.65L-4.05 9.35L-5.25 9L-5.35 7.7" />
<path style="fill:none;stroke-width:0.7;stroke-linecap:round;stroke-linejoin:miter;stroke-miterlimit:5;stroke:#000000;stroke-opacity:0.4" d="M5.9 8.75Q9.4 7.45 9.8 4.55L9.85 3.5L9.7 -2.15L9.7 -2.55Q9.2 -4.85 8.55 -6.2Q7.5 -8.55 6.5 -8.15" />
<path style="fill:none;stroke-width:0.7;stroke-linecap:round;stroke-linejoin:miter;stroke-miterlimit:5;stroke:#000000;stroke-opacity:0.4" d="M1.15 -8.65L-1.05 -7.8L-2.7 -7.05" />
<path style="fill:none;stroke-width:0.7;stroke-linecap:round;stroke-linejoin:miter;stroke-miterlimit:5;stroke:#000000;stroke-opacity:0.4" d="M5.9 8.75L5.5 8.85Q1.1 10.1 -2.45 9.65L-4.05 9.35L-5.25 9Q-7 8.35 -8.35 7.2Q-10.85 5.35 -10.4 3.4Q-9.95 1.4 -8.75 -0.15L-6.55 -2.85L-4.85 -4.95L-4.4 -5.45L-2.7 -7.05" />
</g>
</svg>
