<?xml version="1.0" encoding="utf-8"?>
<svg version="1.1" id="Layer_1"
xmlns="http://www.w3.org/2000/svg"
xmlns:xlink="http://www.w3.org/1999/xlink"
width="8px" height="9px"
xml:space="preserve">
<g id="PathID_2956" transform="matrix(1, 0, 0, 1, 3.85, 4.25)">
<linearGradient
id="LinearGradID_668" gradientUnits="userSpaceOnUse" gradientTransform="matrix(0.00166321, -0.00132751, 0.00242615, 0.00300598, -0.45, -0.75)" spreadMethod ="pad" x1="-819.2" y1="0" x2="819.2" y2="0" >
<stop  offset="0" style="stop-color:#907564;stop-opacity:1" />
<stop  offset="1" style="stop-color:#3F2E26;stop-opacity:1" />
</linearGradient>
<path style="fill:url(#LinearGradID_668) " d="M1 1.2Q-1.4 -1.3 -3.8 -1.95Q-3.85 -2.95 -3.2 -3.55Q-2.4 -4.4 -1.2 -4.25Q-0.05 -4.15 0.35 -3.75L1.4 -2.5L2.5 -0.85L3.4 0.85L1.85 0.55L2.4 1.3L1 1.2" />
<path style="fill:#BE90A1;fill-opacity:1" d="M2.4 1.3L1.85 0.55L3.4 0.85L3.6 1.35L3.7 1.6Q4.05 2.8 3.05 3.75Q2.6 4.15 2.2 4.2Q1.6 4.3 1.05 3.55L0.25 2.6L-0.1 2.25L1.05 2.2L0.8 1.2L1 1.2L2.4 1.3M2.1 1.55L2.35 1.95L2.55 2.35Q2.95 3.35 2.2 4.2Q2.95 3.35 2.55 2.35L2.35 1.95L2.1 1.55" />
<path style="fill:#C8BCC3;fill-opacity:1" d="M1 1.2L0.8 1.2L1.05 2.2L-0.1 2.25L-1.45 1.25Q-3.1 0.2 -3.65 -1.05L-3.7 -1.1L-3.8 -1.95Q-1.4 -1.3 1 1.2" />
<path style="fill:none;stroke-width:0.7;stroke-linecap:round;stroke-linejoin:miter;stroke-miterlimit:5;stroke:#000000;stroke-opacity:0.4" d="M0.35 -3.75L1.4 -2.5L2.5 -0.85L3.4 0.85L3.6 1.35L3.7 1.6Q4.05 2.8 3.05 3.75Q2.6 4.15 2.2 4.2Q1.6 4.3 1.05 3.55L0.25 2.6L-0.1 2.25L-1.45 1.25Q-3.1 0.2 -3.65 -1.05L-3.7 -1.1" />
<path style="fill:none;stroke-width:0.7;stroke-linecap:round;stroke-linejoin:miter;stroke-miterlimit:5;stroke:#4F3218;stroke-opacity:0.4" d="M-0.1 2.25L1.05 2.2L0.8 1.2L1 1.2" />
<path style="fill:none;stroke-width:0.7;stroke-linecap:round;stroke-linejoin:miter;stroke-miterlimit:5;stroke:#000000;stroke-opacity:0.4" d="M2.2 4.2Q2.95 3.35 2.55 2.35L2.35 1.95L2.1 1.55" />
<path style="fill:none;stroke-width:0.7;stroke-linecap:round;stroke-linejoin:miter;stroke-miterlimit:5;stroke:#4F3218;stroke-opacity:0.4" d="M3.4 0.85L1.85 0.55L2.4 1.3L1 1.2" />
</g>
</svg>
