<?xml version="1.0" encoding="utf-8"?>
<svg version="1.1" id="Layer_1"
xmlns="http://www.w3.org/2000/svg"
xmlns:xlink="http://www.w3.org/1999/xlink"
width="9px" height="9px"
xml:space="preserve">
<g id="PathID_4142" transform="matrix(1, 0, 0, 1, 3.95, 3.8)">
<path style="fill:#464544;fill-opacity:1" d="M1.5 3.55L-1.6 1.45Q-3.25 0.45 -3.55 -0.15L-3.7 -0.6Q-2.85 0.4 -0.1 0.75L1 1.65L1.05 1.65Q2.15 2.7 2.6 4.1Q2.25 4.1 1.5 3.55" />
<path style="fill:#8A8988;fill-opacity:1" d="M3.45 0.9L4.2 2.1Q4.55 2.95 3.5 3.25Q2.95 2 2.3 1.6Q2.95 2 3.5 3.25Q3.55 4.05 2.6 4.1Q2.15 2.7 1.05 1.65L1 1.65L-0.1 0.75Q-2.85 0.4 -3.7 -0.6L-3.8 -0.85Q-4.15 -2.25 -3.5 -3.1Q-2.2 -4 -0.9 -3.7Q0.65 -3.35 2.6 -1.6Q4.55 0.1 4.7 1Q4.8 1.85 4.2 2.1L3.45 0.9" />
<path style="fill:none;stroke-width:0.7;stroke-linecap:round;stroke-linejoin:miter;stroke-miterlimit:5;stroke:#000000;stroke-opacity:0.4" d="M4.2 2.1Q4.8 1.85 4.7 1Q4.55 0.1 2.6 -1.6" />
<path style="fill:none;stroke-width:0.7;stroke-linecap:round;stroke-linejoin:miter;stroke-miterlimit:5;stroke:#000000;stroke-opacity:0.4" d="M-3.8 -0.85L-3.7 -0.6" />
<path style="fill:none;stroke-width:0.7;stroke-linecap:round;stroke-linejoin:miter;stroke-miterlimit:5;stroke:#000000;stroke-opacity:0.4" d="M2.6 4.1Q3.55 4.05 3.5 3.25Q2.95 2 2.3 1.6" />
<path style="fill:none;stroke-width:0.7;stroke-linecap:round;stroke-linejoin:miter;stroke-miterlimit:5;stroke:#000000;stroke-opacity:0.4" d="M4.2 2.1L3.45 0.9" />
<path style="fill:none;stroke-width:0.7;stroke-linecap:round;stroke-linejoin:miter;stroke-miterlimit:5;stroke:#000000;stroke-opacity:0.4" d="M3.5 3.25Q4.55 2.95 4.2 2.1" />
<path style="fill:none;stroke-width:0.7;stroke-linecap:round;stroke-linejoin:miter;stroke-miterlimit:5;stroke:#000000;stroke-opacity:0.4" d="M-3.7 -0.6L-3.55 -0.15Q-3.25 0.45 -1.6 1.45L1.5 3.55Q2.25 4.1 2.6 4.1" />
</g>
</svg>
