<?xml version="1.0" encoding="utf-8"?>
<svg version="1.1" id="Layer_1"
xmlns="http://www.w3.org/2000/svg"
xmlns:xlink="http://www.w3.org/1999/xlink"
width="21px" height="43px"
xml:space="preserve">
<g id="PathID_3602" transform="matrix(1, 0, 0, 1, 12.05, 23.65)">
<path style="fill:#444D5C;fill-opacity:1" d="M-0.9 12.4Q-3.9 7.05 -3.1 1.85L-2.95 0.9Q-1.5 -4.6 -2.3 -9.1L-2.7 -14.15L-3.4 -13.7L-4.8 -16.9L-5.25 -13.8L-7.75 -14.7L-6.3 -13L-8.75 -14.1Q-11.75 -15.65 -11.9 -16.2Q-12.05 -16.9 -8.3 -16.7Q-10.95 -23.1 -10.1 -23.45Q-9.35 -23.85 -4.45 -18.65Q-2.9 -21.95 -2.5 -21.8Q-2.25 -21.65 -2.15 -19.6L-2.05 -17.65Q-0.65 -20.35 -0.3 -19.65Q-0.1 -19.15 -0.55 -15.9L-1.15 -12.2L-0.9 -11.6Q0.9 -6.7 -0.45 0.75Q-1.2 10.85 6.95 13.7Q8.15 15.35 8.1 16.55Q0.9 15.7 -0.9 12.4" />
<path style="fill:#2B3039;fill-opacity:1" d="M-3.1 1.85Q-3.9 7.05 -0.9 12.4Q0.9 15.7 8.1 16.55Q8.05 18.15 5.75 19Q-6.35 15.3 -3.25 1.8L-3.1 1.85M-2.3 -9.1L-2.35 -9.4L-3.05 -11.9L-6.3 -13L-7.75 -14.7L-5.25 -13.8L-4.8 -16.9L-3.4 -13.7L-2.7 -14.15L-2.3 -9.1" />
<path style="fill:#CD9C6D;fill-opacity:1" d="M-3.25 1.8L-2.95 0.9L-3.1 1.85L-3.25 1.8" />
<path style="fill:none;stroke-width:0.7;stroke-linecap:round;stroke-linejoin:miter;stroke-miterlimit:5;stroke:#000000;stroke-opacity:0.4" d="M-6.3 -13L-8.75 -14.1Q-11.75 -15.65 -11.9 -16.2Q-12.05 -16.9 -8.3 -16.7Q-10.95 -23.1 -10.1 -23.45Q-9.35 -23.85 -4.45 -18.65Q-2.9 -21.95 -2.5 -21.8Q-2.25 -21.65 -2.15 -19.6L-2.05 -17.65Q-0.65 -20.35 -0.3 -19.65Q-0.1 -19.15 -0.55 -15.9L-1.15 -12.2L-0.9 -11.6Q0.9 -6.7 -0.45 0.75Q-1.2 10.85 6.95 13.7Q8.15 15.35 8.1 16.55Q8.05 18.15 5.75 19Q-6.35 15.3 -3.25 1.8L-2.95 0.9Q-1.5 -4.6 -2.3 -9.1L-2.35 -9.4L-3.05 -11.9L-6.3 -13z" />
</g>
</svg>
