<?xml version="1.0" encoding="utf-8"?>
<svg version="1.1" id="Layer_1"
xmlns="http://www.w3.org/2000/svg"
xmlns:xlink="http://www.w3.org/1999/xlink"
width="10px" height="8px"
xml:space="preserve">
<g id="PathID_4029" transform="matrix(1, 0, 0, 1, 3.8, 4.15)">
<path style="fill:#BF966C;fill-opacity:1" d="M-0.35 2.05L-1.45 1.25Q-3.15 0.2 -3.7 -1.1Q-4.1 -2.7 -3.2 -3.55Q-2.4 -4.4 -0.8 -4Q0.75 -3.6 1.35 -2.6L2.1 -1.25L2.4 -0.75L3.05 -0.05Q0.6 1 -0.35 2.05" />
<path style="fill:#977451;fill-opacity:1" d="M3.05 -0.05L4 0.45L4.9 0.5Q6.9 0.6 5.8 1.75L5.05 2.45L3.55 3.1L1 2.95L-0.35 2.05Q0.6 1 3.05 -0.05M5.8 1.75L5.75 1.3Q5.65 0.9 4.85 0.75L4 0.45L4.85 0.75Q5.65 0.9 5.75 1.3L5.8 1.75M2.4 1.85Q4.25 1 5.05 2.45Q4.25 1 2.4 1.85" />
<path style="fill:none;stroke-width:0.7;stroke-linecap:round;stroke-linejoin:round;stroke-miterlimit:3;stroke:#000000;stroke-opacity:0.301961" d="M2.4 -0.75L3.05 -0.05L4 0.45L4.9 0.5Q6.9 0.6 5.8 1.75L5.05 2.45L3.55 3.1L1 2.95L-0.35 2.05L-1.45 1.25Q-3.15 0.2 -3.7 -1.1" />
<path style="fill:none;stroke-width:0.7;stroke-linecap:round;stroke-linejoin:round;stroke-miterlimit:3;stroke:#000000;stroke-opacity:0.301961" d="M4 0.45L4.85 0.75Q5.65 0.9 5.75 1.3L5.8 1.75" />
<path style="fill:none;stroke-width:0.7;stroke-linecap:round;stroke-linejoin:round;stroke-miterlimit:3;stroke:#000000;stroke-opacity:0.301961" d="M5.05 2.45Q4.25 1 2.4 1.85" />
</g>
</svg>
