<?xml version="1.0" encoding="utf-8"?>
<svg version="1.1" id="Layer_1"
xmlns="http://www.w3.org/2000/svg"
xmlns:xlink="http://www.w3.org/1999/xlink"
width="7px" height="5px"
xml:space="preserve">
<g id="PathID_3543" transform="matrix(1, 0, 0, 1, 2.2, 2.7)">
<path style="fill:#1D130E;fill-opacity:1" d="M2.15 0L2.15 0.1L2.15 0.4L1.5 1.5Q0.85 2.15 -0.05 2.15Q-0.95 2.15 -1.6 1.5Q-2.2 0.85 -2.2 0Q-2.2 -0.9 -1.6 -1.55L-0.95 -2L-0.2 -1.5L-0.2 -1.25L-0.15 -0.9L0.25 -0.35Q0.6 -0.15 0.9 -0.15L1.35 -0.25L1.4 -0.35L-0.1 -1.45L2.15 0" />
<path style="fill:#FFFFFF;fill-opacity:1" d="M-0.15 -1.4L-0.1 -1.4L-0.1 -1.45L1.4 -0.35L1.35 -0.25L0.9 -0.15Q0.6 -0.15 0.25 -0.35L-0.15 -0.9L-0.2 -1.25L-0.15 -1.4" />
<path style="fill:none;stroke-width:0.7;stroke-linecap:round;stroke-linejoin:miter;stroke-miterlimit:5;stroke:#000000;stroke-opacity:0.4" d="M-0.2 -1.5L-0.95 -2" />
<path style="fill:none;stroke-width:0.7;stroke-linecap:round;stroke-linejoin:round;stroke-miterlimit:3;stroke:#000000;stroke-opacity:0.301961" d="M-0.95 -2L-1.6 -1.55Q-2.2 -0.9 -2.2 0Q-2.2 0.85 -1.6 1.5Q-0.95 2.15 -0.05 2.15Q0.85 2.15 1.5 1.5L2.15 0.4L2.15 0.1L2.15 0" />
<path style="fill:none;stroke-width:0.7;stroke-linecap:round;stroke-linejoin:miter;stroke-miterlimit:5;stroke:#000000;stroke-opacity:0.4" d="M2.15 0L-0.1 -1.45" />
<path style="fill:none;stroke-width:0.7;stroke-linecap:round;stroke-linejoin:miter;stroke-miterlimit:5;stroke:#000000;stroke-opacity:0.4" d="M-0.1 -1.4L-0.2 -1.5" />
<path style="fill:none;stroke-width:0.7;stroke-linecap:round;stroke-linejoin:miter;stroke-miterlimit:5;stroke:#000000;stroke-opacity:0.4" d="M-0.95 -2L-1.8 -2.55" />
<path style="fill:none;stroke-width:0.7;stroke-linecap:round;stroke-linejoin:miter;stroke-miterlimit:5;stroke:#000000;stroke-opacity:0.4" d="M4.05 -0.55Q4.4 0.55 3.2 0.65L2.15 0" />
</g>
<g id="PathID_3544" transform="matrix(1, 0, 0, 1, 2.2, 2.7)">
<path style="fill:#FFFFFF;fill-opacity:1" d="M0.15 1.55L-0.4 1.7L-1.05 1.55L-1.45 1.15Q-1.55 0.8 -1.2 0.8L-1 0.95L-0.6 1.25L0 1.45Q0.15 1.45 0.15 1.55" />
</g>
</svg>
