<?xml version="1.0" encoding="utf-8"?>
<svg version="1.1" id="Layer_1"
xmlns="http://www.w3.org/2000/svg"
xmlns:xlink="http://www.w3.org/1999/xlink"
width="18px" height="39px"
xml:space="preserve">
<g id="PathID_3959" transform="matrix(1, 0, 0, 1, 8.75, 19.45)">
<path style="fill:#C6AB7D;fill-opacity:1" d="M-3.3 10.95Q-3.1 12.4 -2.7 13.15Q-3.1 12.8 -3.6 12.55Q-4.55 11.85 -4.7 10.95L-4.75 12.1L-4.65 12.8L-4.7 12.75L-5.7 10L-6.1 8.7L-5.65 9.1L-4.9 10.05L-5.1 8.85L-5.05 7.75L-5.05 7.65L-4.6 5.75L-4.3 4.3L-4.2 2.9L-4.05 1.3L-3.75 2.25L-2.8 0.35L-2.45 -1.2L-2.05 -4.55Q-1.85 -3 -1.95 -1.35Q-2.05 0.65 -2.3 2.55Q-2.45 3.95 -2.9 5.1L-3.35 3.35L-3.8 5L-3.95 6.7Q-4.05 8.05 -3.75 9.3L-3.6 9.85L-3.55 9.95L-3.55 10.05L-3.35 10.6L-3.3 10.95" />
<path style="fill:#EFDAB8;fill-opacity:1" d="M-8.1 -19.05Q2.35 -14.3 -0.45 0.75L-0.15 2.4L0.25 1.75Q0.1 3.9 1.2 5L2.4 5.85L2.35 5.4L1.9 4.25Q2.9 4.8 3.5 5.45Q4.05 6.75 3.85 8.2L3.4 7.75L3.45 9.15L2.9 7.95L2.2 6.8L2.45 8.7L1.55 7.75L0.5 6.8L0.8 7.45L1.05 8.15L-0.35 6.7L-1.65 4.85L-1.55 7.2L-1.2 9.85Q-3.15 8.35 -3.45 7.55L-3.45 9.9L-3.4 10.1L-3.4 10.2L-3.35 10.6L-3.55 10.05L-3.55 9.95L-3.6 9.85L-3.75 9.3Q-4.05 8.05 -3.95 6.7L-3.8 5L-3.35 3.35L-2.9 5.1Q-2.45 3.95 -2.3 2.55Q-2.05 0.65 -1.95 -1.35Q-1.85 -3 -2.05 -4.55Q-1.6 -13.35 -8.1 -19.05" />
<linearGradient
id="LinearGradID_906" gradientUnits="userSpaceOnUse" gradientTransform="matrix(-0.00187683, 0.00267029, -0.00737, -0.00518799, 2.45, 11.9)" spreadMethod ="pad" x1="-819.2" y1="0" x2="819.2" y2="0" >
<stop  offset="0" style="stop-color:#CE9E6F;stop-opacity:1" />
<stop  offset="1" style="stop-color:#BB8754;stop-opacity:1" />
</linearGradient>
<path style="fill:url(#LinearGradID_906) " d="M4.15 6.55L4.3 7.75Q4.7 7.5 4.9 6.6Q5.2 7.3 5.05 8.75L5 10.9Q5.15 11.65 5.6 12.25L7.1 13.7Q8.45 14.9 8.55 16.05Q7 16.6 5.5 15.65L5.4 15.55L5.5 15.85Q5.6 16.1 5.4 16L2.1 14.4L2.65 15L2.3 15.15L1.85 15.1Q-0.1 14.15 -1.3 12Q-1.4 12.75 -1.1 13.9Q-2.35 13.15 -3.3 10.95L-3.35 10.6L-3.4 10.2L-3.4 10.1L-3.45 9.9L-3.45 7.55Q-3.15 8.35 -1.2 9.85L-1.55 7.2L-1.65 4.85L-0.35 6.7L1.05 8.15L0.8 7.45L0.5 6.8L1.55 7.75L2.45 8.7L2.2 6.8L2.9 7.95L3.45 9.15L3.4 7.75L3.85 8.2Q4.05 6.75 3.5 5.45L4.15 6.55" />
<path style="fill:#8E6033;fill-opacity:1" d="M-1.1 13.9Q-1.4 12.75 -1.3 12Q-0.1 14.15 1.85 15.1L2.3 15.15L2.65 15L2.1 14.4L5.4 16Q5.6 16.1 5.5 15.85L5.4 15.55L5.5 15.65Q7 16.6 8.55 16.05Q8.6 16.85 8 17.65L7.95 17.7Q6.55 19.45 5.5 19.1L3.7 19.05Q3.65 18.5 3.2 18.2L2.85 18.05L1.05 18.3L1.65 17.75L1.8 17.5Q-1.75 18 -2.55 16.8Q-1.7 16.8 -0.95 16.25L-2.05 15.85L-3.25 15L-3.3 14.95Q-4.35 13.95 -4.65 12.8L-4.75 12.1L-4.7 10.95Q-4.55 11.85 -3.6 12.55Q-3.1 12.8 -2.7 13.15Q-3.1 12.4 -3.3 10.95Q-2.35 13.15 -1.1 13.9" />
<path style="fill:none;stroke-width:0.7;stroke-linecap:round;stroke-linejoin:round;stroke-miterlimit:3;stroke:#000000;stroke-opacity:0.4" d="M3.5 5.45Q2.9 4.8 1.9 4.25L2.35 5.4L2.4 5.85L1.2 5Q0.1 3.9 0.25 1.75L-0.15 2.4L-0.45 0.75" />
<path style="fill:none;stroke-width:0.7;stroke-linecap:round;stroke-linejoin:miter;stroke-miterlimit:5;stroke:#000000;stroke-opacity:0.4" d="M-0.45 0.75Q2.35 -14.3 -8.1 -19.05Q-1.6 -13.35 -2.05 -4.55L-2.45 -1.2L-2.8 0.35" />
<path style="fill:none;stroke-width:0.7;stroke-linecap:round;stroke-linejoin:round;stroke-miterlimit:3;stroke:#000000;stroke-opacity:0.4" d="M-2.8 0.35L-3.75 2.25L-4.05 1.3L-4.2 2.9L-4.3 4.3L-4.6 5.75L-5.05 7.65L-5.05 7.75L-5.1 8.85L-4.9 10.05L-5.65 9.1L-6.1 8.7L-5.7 10L-4.7 12.75L-4.65 12.8" />
<path style="fill:none;stroke-width:0.7;stroke-linecap:round;stroke-linejoin:round;stroke-miterlimit:3;stroke:#000000;stroke-opacity:0.4" d="M-4.65 12.8Q-4.35 13.95 -3.3 14.95L-3.25 15L-2.05 15.85L-0.95 16.25Q-1.7 16.8 -2.55 16.8Q-1.75 18 1.8 17.5L1.65 17.75L1.05 18.3L2.85 18.05L3.2 18.2Q3.65 18.5 3.7 19.05L5.5 19.1Q6.55 19.45 7.95 17.7L8 17.65Q8.6 16.85 8.55 16.05" />
<path style="fill:none;stroke-width:0.7;stroke-linecap:round;stroke-linejoin:round;stroke-miterlimit:3;stroke:#000000;stroke-opacity:0.4" d="M8.55 16.05Q8.45 14.9 7.1 13.7L5.6 12.25Q5.15 11.65 5 10.9L5.05 8.75Q5.2 7.3 4.9 6.6Q4.7 7.5 4.3 7.75L4.15 6.55L3.5 5.45" />
</g>
</svg>
