<?xml version="1.0" encoding="utf-8"?>
<svg version="1.1" id="Layer_1"
xmlns="http://www.w3.org/2000/svg"
xmlns:xlink="http://www.w3.org/1999/xlink"
width="24px" height="44px"
xml:space="preserve">
<g id="PathID_3396" transform="matrix(1, 0, 0, 1, 14.85, 24.2)">
<path style="fill:#313131;fill-opacity:1" d="M-2.05 -7.5Q-3.75 -9.65 -5.3 -7.25Q-6.8 -12 -10.35 -10.95Q-10.55 -15 -14.8 -14.7Q-12.4 -17.75 -14.85 -20.8Q-12.85 -18.95 -9.6 -17.1Q-6.9 -15.35 -5.1 -16.05Q-2.35 -12.95 -2.05 -7.5" />
<path style="fill:none;stroke-width:0.7;stroke-linecap:round;stroke-linejoin:round;stroke-miterlimit:3;stroke:#000000;stroke-opacity:0.4" d="M-5.1 -16.05Q-6.9 -15.35 -9.6 -17.1Q-12.85 -18.95 -14.85 -20.8Q-12.4 -17.75 -14.8 -14.7Q-10.55 -15 -10.35 -10.95Q-6.8 -12 -5.3 -7.25Q-3.75 -9.65 -2.05 -7.5Q-2.35 -12.95 -5.1 -16.05z" />
</g>
<g id="PathID_3397" transform="matrix(1, 0, 0, 1, 14.85, 24.2)">
<path style="fill:#313131;fill-opacity:1" d="M1.25 -17.35Q-0.5 -13.9 0.45 -11.15Q-0.75 -11.75 -0.2 -8.5Q-1.05 -12.9 -3.7 -16Q-1.95 -18.45 -3.3 -24.2Q-1.85 -21.9 0.45 -22.65Q-0.75 -18.4 1.25 -17.35" />
<path style="fill:none;stroke-width:0.7;stroke-linecap:round;stroke-linejoin:round;stroke-miterlimit:3;stroke:#000000;stroke-opacity:0.4" d="M1.25 -17.35Q-0.5 -13.9 0.45 -11.15Q-0.75 -11.75 -0.2 -8.5Q-1.05 -12.9 -3.7 -16Q-1.95 -18.45 -3.3 -24.2Q-1.85 -21.9 0.45 -22.65Q-0.75 -18.4 1.25 -17.35z" />
</g>
<g id="PathID_3398" transform="matrix(1, 0, 0, 1, 14.85, 24.2)">
<path style="fill:#323232;fill-opacity:1" d="M4.65 9.5Q3.55 13.2 7.25 13.95L4.3 17.8Q0.6 16.75 -2.8 19.3Q-2.95 16.35 -7.15 15.2Q-4.75 13.1 -7.05 10.95Q-3.8 11.75 -2.95 8.1Q1.15 10.55 3.25 7.45Q2.65 10.15 4.65 9.5" />
<path style="fill:none;stroke-width:0.7;stroke-linecap:round;stroke-linejoin:round;stroke-miterlimit:3;stroke:#000000;stroke-opacity:0.4" d="M4.65 9.5Q3.55 13.2 7.25 13.95L4.3 17.8Q0.6 16.75 -2.8 19.3Q-2.95 16.35 -7.15 15.2Q-4.75 13.1 -7.05 10.95Q-3.8 11.75 -2.95 8.1Q1.15 10.55 3.25 7.45Q2.65 10.15 4.65 9.5z" />
</g>
<g id="PathID_3399" transform="matrix(1, 0, 0, 1, 14.85, 24.2)">
<path style="fill:#191917;fill-opacity:1" d="M-2.95 0.9Q-4.15 6.55 -0.9 12.4Q0.9 15.7 8.1 16.55Q8.05 18.15 5.75 19Q-6.35 15.3 -3.25 1.8L-2.95 0.9" />
<path style="fill:#323232;fill-opacity:1" d="M-0.9 12.4Q-4.15 6.55 -2.95 0.9Q0.35 -11.65 -8.1 -19.05Q2.3 -14.35 -0.45 0.75Q-1.2 10.85 6.95 13.7Q8.15 15.35 8.1 16.55Q0.9 15.7 -0.9 12.4" />
<path style="fill:none;stroke-width:0.7;stroke-linecap:round;stroke-linejoin:miter;stroke-miterlimit:5;stroke:#000000;stroke-opacity:0.4" d="M8.1 16.55Q8.15 15.35 6.95 13.7Q-1.2 10.85 -0.45 0.75Q2.3 -14.35 -8.1 -19.05Q0.35 -11.65 -2.95 0.9" />
<path style="fill:none;stroke-width:0.7;stroke-linecap:round;stroke-linejoin:miter;stroke-miterlimit:5;stroke:#000000;stroke-opacity:0.4" d="M8.1 16.55Q8.05 18.15 5.75 19Q-6.35 15.3 -3.25 1.8L-2.95 0.9" />
</g>
</svg>
