<?xml version="1.0" encoding="utf-8"?>
<svg version="1.1" id="Layer_1"
xmlns="http://www.w3.org/2000/svg"
xmlns:xlink="http://www.w3.org/1999/xlink"
width="12px" height="14px"
xml:space="preserve">
<g id="PathID_331" transform="matrix(1, 0, 0, 1, -18, 11)">
<path style="fill:#851A00;fill-opacity:1" d="M22.8 -8.35L26.35 -10.85L29.5 -8.55L27.45 -7.15L22.8 -8.35M21.95 -0.45Q21.4 0.65 21.25 2.6L18.15 2.6L18.65 0.2L21.95 -0.45" />
<path style="fill:#D42A00;fill-opacity:1" d="M22.4 -4.5Q21.45 -4.9 20.9 -5.75L22.8 -8.35L27.45 -7.15Q25.8 -5.95 24.35 -4.25L22.4 -4.5M18.65 0.2Q18.95 -1.65 19.75 -3.55L21.9 -3.7L23.4 -2.85L21.95 -0.45L18.65 0.2" />
<path style="fill:#FF4D20;fill-opacity:1" d="M19.75 -3.55L20.9 -5.75Q21.45 -4.9 22.4 -4.5L24.35 -4.25L23.4 -2.85L21.9 -3.7L19.75 -3.55" />
<path style="fill:none;stroke-width:0.7;stroke-linecap:round;stroke-linejoin:round;stroke-miterlimit:3;stroke:#000000;stroke-opacity:0.301961" d="M22.8 -8.35L26.35 -10.85L29.5 -8.55L27.45 -7.15Q25.8 -5.95 24.35 -4.25L23.4 -2.85L21.95 -0.45Q21.4 0.65 21.25 2.6L18.15 2.6L18.65 0.2Q18.95 -1.65 19.75 -3.55L20.9 -5.75L22.8 -8.35z" />
</g>
</svg>
