<?xml version="1.0" encoding="utf-8"?>
<svg version="1.1" id="Layer_1"
xmlns="http://www.w3.org/2000/svg"
xmlns:xlink="http://www.w3.org/1999/xlink"
width="11px" height="7px"
xml:space="preserve">
<g id="PathID_251" transform="matrix(1, 0, 0, 1, 0.15, 0.15)">
<path style="fill:#AE7315;fill-opacity:1" d="M10.5 2.3L10.5 4.25Q10.5 5.1 9.15 5.7L9.1 3.65L8.95 5.75L6.5 6.35L6.5 4.3L5.25 6.4L3.8 6.35L3.8 4.3L1.55 5.75L1.45 5.7L1.5 3.7Q0 5.1 0 4.25L0 4.15L0.05 2.4Q0.1 2.85 0.65 3.25L1.5 3.7L1.45 5.7L1.55 3.7L3.8 4.3L3.8 6.35L5.25 4.35L6.5 4.3L6.5 6.35L8.95 3.7L9.1 3.65L9.15 5.7L9.9 3.25L10.5 2.3" />
<path style="fill:#FFDC35;fill-opacity:1" d="M9.9 3.25L9.1 3.65L8.95 3.7L6.5 4.3L5.25 4.35L3.8 4.3L1.55 3.7L1.5 3.7L0.65 3.25Q0.1 2.85 0.05 2.4L0 2.2Q0 1.3 1.55 0.65Q3.1 0 5.25 0Q7.45 0 8.95 0.65Q10.5 1.3 10.5 2.2L10.5 2.3L9.9 3.25" />
<path style="fill:none;stroke-width:0.7;stroke-linecap:round;stroke-linejoin:round;stroke-miterlimit:3;stroke:#000000;stroke-opacity:0.4" d="M0.05 2.4L0 2.2Q0 1.3 1.55 0.65Q3.1 0 5.25 0Q7.45 0 8.95 0.65Q10.5 1.3 10.5 2.2L10.5 2.3L10.5 4.25Q10.5 5.1 9.15 5.7L8.95 5.75L6.5 6.35L5.25 6.4L3.8 6.35L1.55 5.75L1.45 5.7Q0 5.1 0 4.25L0 4.15L0.05 2.4z" />
<path style="fill:none;stroke-width:0.7;stroke-linecap:round;stroke-linejoin:round;stroke-miterlimit:3;stroke:#000000;stroke-opacity:0.2" d="M0.05 2.4Q0.1 2.85 0.65 3.25L1.5 3.7L1.55 3.7L3.8 4.3L5.25 4.35L6.5 4.3L8.95 3.7L9.1 3.65L9.9 3.25L10.5 2.3" />
<path style="fill:none;stroke-width:0.7;stroke-linecap:round;stroke-linejoin:round;stroke-miterlimit:3;stroke:#000000;stroke-opacity:0.2" d="M9.1 3.65L9.15 5.7" />
<path style="fill:none;stroke-width:0.7;stroke-linecap:round;stroke-linejoin:round;stroke-miterlimit:3;stroke:#000000;stroke-opacity:0.2" d="M1.5 3.7L1.45 5.7" />
<path style="fill:none;stroke-width:0.7;stroke-linecap:round;stroke-linejoin:round;stroke-miterlimit:3;stroke:#000000;stroke-opacity:0.2" d="M3.8 4.3L3.8 6.35" />
<path style="fill:none;stroke-width:0.7;stroke-linecap:round;stroke-linejoin:round;stroke-miterlimit:3;stroke:#000000;stroke-opacity:0.2" d="M6.5 4.3L6.5 6.35" />
</g>
<g id="PathID_252" transform="matrix(1, 0, 0, 1, 0.15, 0.15)">
<path style="fill:#E5B000;fill-opacity:1" d="M7.65 2.9L5.2 3.2L2.8 2.9Q1.8 2.55 1.8 2Q1.8 1.6 2.8 1.3L5.2 0.95L7.65 1.3Q8.65 1.6 8.65 2.1Q8.65 2.55 7.65 2.9" />
</g>
</svg>
