<?xml version="1.0" encoding="utf-8"?>
<svg version="1.1" id="Layer_1"
xmlns="http://www.w3.org/2000/svg"
xmlns:xlink="http://www.w3.org/1999/xlink"
width="44px" height="40px"
xml:space="preserve">
<g id="PathID_827" transform="matrix(1, 0, 0, 1, 14, 9.8)">
<path style="fill:#004551;fill-opacity:1" d="M15 0Q21.2 0 25.6 4.4Q30 8.8 30 15Q30 21.2 25.6 25.6Q21.2 30 15 30Q8.8 30 4.4 25.6Q0 21.2 0 15Q0 8.8 4.4 4.4Q8.8 0 15 0" />
</g>
<g id="PathID_828" transform="matrix(1, 0, 0, 1, 14, 9.8)">
<radialGradient
id="RadialGradID_431" gradientUnits="userSpaceOnUse" gradientTransform="matrix(0.0258484, 0, 0, 0.0258484, 11.65, 8.9)" spreadMethod ="pad" cx="0" cy="0" r="819.2" fx="0" fy="0" >
<stop  offset="0"  style="stop-color:#D7EDFA;stop-opacity:1" />
<stop  offset="0.960784"  style="stop-color:#176BB6;stop-opacity:1" />
</radialGradient>
<path style="fill:url(#RadialGradID_431) " d="M15.05 1.6Q20.6 1.6 24.5 5.5Q28.4 9.45 28.4 14.95Q28.4 20.45 24.5 24.35Q20.6 28.3 15.05 28.3Q9.55 28.3 5.6 24.35Q1.75 20.45 1.75 14.95Q1.75 9.45 5.6 5.5Q9.55 1.6 15.05 1.6" />
<path style="fill:none;stroke-width:2;stroke-linecap:round;stroke-linejoin:round;stroke-miterlimit:3;stroke:#FFFFFF;stroke-opacity:1" d="M15.05 1.6Q20.6 1.6 24.5 5.5Q28.4 9.45 28.4 14.95Q28.4 20.45 24.5 24.35Q20.6 28.3 15.05 28.3Q9.55 28.3 5.6 24.35Q1.75 20.45 1.75 14.95Q1.75 9.45 5.6 5.5Q9.55 1.6 15.05 1.6z" />
</g>
<g id="PathID_829" transform="matrix(1, 0, 0, 1, 14, 9.8)">
<path style="fill:#ECE1D4;fill-opacity:1" d="M-11.85 8.95Q-10.85 9.1 -9.85 9.85Q-10.85 9.1 -11.85 8.95Q-10.3 8.05 -9.2 8.25L-7.25 8.7Q-6.1 7.9 -4.6 8.05L-6.1 8.95Q-5.05 9.25 -4.4 9.85L-6.5 9.7Q-5.4 10.75 -5.45 12.65L-7.1 10.8Q-6.85 13.4 -8.15 15.2Q-10.4 13.6 -10.8 11.1L-11.8 13.6L-11.9 10.5Q-13.1 9.2 -13.8 9.25Q-12.8 8.85 -11.85 8.95" />
<path style="fill:#BDAF9E;fill-opacity:1" d="M-11.9 10.5L-11.8 13.6L-10.8 11.1Q-10.4 13.6 -8.15 15.2Q-6.85 13.4 -7.1 10.8L-5.45 12.65Q-5.4 10.75 -6.5 9.7L-4.4 9.85Q-3.3 10.9 -3.2 12.85L-4.65 11.55Q-4.25 13.85 -5.8 15.4Q-5.75 14.4 -6.35 13.3Q-5.95 16.65 -7.25 17.6L-8.05 17.4Q-9.2 16.9 -9.95 15.65Q-10.85 16.75 -11.3 14.35L-11.1 16Q-13.15 14.8 -12.65 12.35L-14 13.1Q-14 11.6 -11.9 10.5M-6.35 13.3Q-5.75 14.4 -5.8 15.4M-9.95 15.65Q-9.2 16.9 -8.05 17.4" />
<path style="fill:none;stroke-width:0.7;stroke-linecap:round;stroke-linejoin:round;stroke-miterlimit:3;stroke:#000000;stroke-opacity:0.4" d="M-4.4 9.85Q-5.05 9.25 -6.1 8.95L-4.6 8.05Q-6.1 7.9 -7.25 8.7L-9.2 8.25Q-10.3 8.05 -11.85 8.95Q-10.85 9.1 -9.85 9.85" />
<path style="fill:none;stroke-width:0.7;stroke-linecap:round;stroke-linejoin:round;stroke-miterlimit:3;stroke:#000000;stroke-opacity:0.4" d="M-11.9 10.5Q-13.1 9.2 -13.8 9.25Q-12.8 8.85 -11.85 8.95" />
<path style="fill:none;stroke-width:0.7;stroke-linecap:round;stroke-linejoin:round;stroke-miterlimit:3;stroke:#000000;stroke-opacity:0.4" d="M-4.4 9.85Q-3.3 10.9 -3.2 12.85L-4.65 11.55Q-4.25 13.85 -5.8 15.4Q-5.95 16.65 -7.25 17.6L-8.05 17.4Q-10.85 16.75 -11.3 14.35L-11.1 16Q-13.15 14.8 -12.65 12.35L-14 13.1Q-14 11.6 -11.9 10.5" />
<path style="fill:none;stroke-width:0.7;stroke-linecap:round;stroke-linejoin:round;stroke-miterlimit:3;stroke:#000000;stroke-opacity:0.4" d="M-5.8 15.4Q-5.75 14.4 -6.35 13.3" />
<path style="fill:none;stroke-width:0.7;stroke-linecap:round;stroke-linejoin:round;stroke-miterlimit:3;stroke:#000000;stroke-opacity:0.4" d="M-8.05 17.4Q-9.2 16.9 -9.95 15.65" />
</g>
<g id="PathID_830" transform="matrix(1, 0, 0, 1, 14, 9.8)">
<linearGradient
id="LinearGradID_432" gradientUnits="userSpaceOnUse" gradientTransform="matrix(0.00444031, 0.00773621, -0.00985718, 0.00564575, -2.2, -8.1)" spreadMethod ="pad" x1="-819.2" y1="0" x2="819.2" y2="0" >
<stop  offset="0" style="stop-color:#FF9B5D;stop-opacity:1" />
<stop  offset="1" style="stop-color:#D25000;stop-opacity:1" />
</linearGradient>
<path style="fill:url(#LinearGradID_432) " d="M-6.2 -2.8L-6.35 -1.3L-6.45 0.25Q-8.1 4.05 -8.15 6.8Q-8.65 9.8 -9.45 8.45Q-10.05 3.65 -8.95 -1.55Q-6.45 -10.85 -1.95 -9.65Q1.95 -8.5 4.4 -6.15Q6.05 -1.05 -0.25 2.55Q-3.45 3.65 -4 -2.45L-4.3 -1.7Q-6.1 1.5 -6.35 -1.3L-6.2 -2.8M-2.25 -4.8Q-3.3 -3.85 -4 -2.45Q-3.3 -3.85 -2.25 -4.8" />
<path style="fill:#933800;fill-opacity:1" d="M-4.3 -1.7L-4 -2.45Q-3.45 3.65 -0.25 2.55Q6.05 -1.05 4.4 -6.15Q6.05 -4.6 7.05 -2.5Q2.75 3.85 -2.15 6.6Q-3.45 2.85 -5.05 2.25Q-5.65 2.75 -6 2.55Q-4.95 0 -4.3 -1.7M-6 2.55Q-6.35 2.35 -6.45 0.25Q-6.35 2.35 -6 2.55Q-7.9 7.6 -7.35 11.35L-8.95 11.35L-9.45 8.45Q-8.65 9.8 -8.15 6.8Q-8.1 4.05 -6.45 0.25L-6.35 -1.3Q-6.1 1.5 -4.3 -1.7Q-4.95 0 -5.05 2.25" />
<path style="fill:none;stroke-width:0.7;stroke-linecap:round;stroke-linejoin:round;stroke-miterlimit:3;stroke:#000000;stroke-opacity:0.4" d="M-5.05 2.25Q-3.45 2.85 -2.15 6.6Q2.75 3.85 7.05 -2.5Q6.05 -4.6 4.4 -6.15" />
<path style="fill:none;stroke-width:0.7;stroke-linecap:round;stroke-linejoin:round;stroke-miterlimit:3;stroke:#000000;stroke-opacity:0.4" d="M-4 -2.45L-4.3 -1.7Q-4.95 0 -5.05 2.25Q-5.65 2.75 -6 2.55Q-7.9 7.6 -7.35 11.35L-8.95 11.35L-9.45 8.45Q-10.05 3.65 -8.95 -1.55Q-6.45 -10.85 -1.95 -9.65Q1.95 -8.5 4.4 -6.15" />
<path style="fill:none;stroke-width:0.7;stroke-linecap:round;stroke-linejoin:round;stroke-miterlimit:3;stroke:#000000;stroke-opacity:0.4" d="M-4 -2.45Q-3.3 -3.85 -2.25 -4.8" />
<path style="fill:none;stroke-width:0.7;stroke-linecap:round;stroke-linejoin:round;stroke-miterlimit:3;stroke:#000000;stroke-opacity:0.4" d="M-6.35 -1.3L-6.2 -2.8" />
<path style="fill:none;stroke-width:0.7;stroke-linecap:round;stroke-linejoin:round;stroke-miterlimit:3;stroke:#000000;stroke-opacity:0.4" d="M-6.45 0.25L-6.35 -1.3" />
<path style="fill:none;stroke-width:0.7;stroke-linecap:round;stroke-linejoin:round;stroke-miterlimit:3;stroke:#000000;stroke-opacity:0.4" d="M-6 2.55Q-6.35 2.35 -6.45 0.25" />
</g>
<g id="PathID_831" transform="matrix(1, 0, 0, 1, 14, 9.8)">
<path style="fill:#BDAF9E;fill-opacity:1" d="M12.1 -0.15Q12.85 0.5 11.25 1.65Q7.5 2.8 3.55 7.7Q2.05 9.4 0.9 13.6Q-0.85 14 -1.3 11.35Q-1.1 9.15 -2.3 8.75Q-3.85 7.9 -2.3 6.4Q-3.25 8.6 -0.55 8.65Q-0.7 12.7 0.65 11.7Q0.8 9.65 3.5 6.1Q5.75 3.25 9.55 1.6Q11.5 1.05 12.1 -0.15M8.95 -3Q9.15 -1.55 10.6 -0.8Q8.45 -0.95 6.15 0.6L8.95 -3" />
<path style="fill:#EEE2D4;fill-opacity:1" d="M9.55 1.6Q5.75 3.25 3.5 6.1Q0.8 9.65 0.65 11.7Q-0.7 12.7 -0.55 8.65Q-3.25 8.6 -2.3 6.4Q0.2 4.65 3.75 0.05Q6.7 -4.5 8.95 -3L6.15 0.6Q8.45 -0.95 10.6 -0.8L11.25 -0.55L12.1 -0.15Q11.5 1.05 9.55 1.6" />
<path style="fill:none;stroke-width:0.7;stroke-linecap:round;stroke-linejoin:round;stroke-miterlimit:3;stroke:#000000;stroke-opacity:0.4" d="M10.6 -0.8L11.25 -0.55L12.1 -0.15Q12.85 0.5 11.25 1.65Q7.5 2.8 3.55 7.7Q2.05 9.4 0.9 13.6Q-0.85 14 -1.3 11.35Q-1.1 9.15 -2.3 8.75Q-3.85 7.9 -2.3 6.4Q0.2 4.65 3.75 0.05Q6.7 -4.5 8.95 -3Q9.15 -1.55 10.6 -0.8z" />
</g>
<g id="PathID_832" transform="matrix(1, 0, 0, 1, 14, 9.8)">
<path style="fill:#FFFFFF;fill-opacity:1" d="M22.9 10.25Q20.65 9.3 20.2 11.25Q20.2 9.55 18.55 8.9Q20.6 9.1 21.25 6.65Q20.8 9.2 22.9 10.25M24.1 16.65Q25.45 16.15 25.4 14.85Q25.5 16.15 26.55 15.9Q25.8 16.35 25.9 17.3Q25.45 16.3 24.1 16.65M10.65 21.85Q8.9 21.1 8.45 22.65Q8.45 21.3 7.2 20.75Q8.8 20.9 9.35 18.95Q8.95 21.05 10.65 21.85M17.8 26.3Q17.75 25.3 16.8 24.9Q18 25.05 18.4 23.6Q18.05 25.1 19.2 25.7Q18 25.15 17.8 26.3" />
</g>
</svg>
