<?xml version="1.0" encoding="utf-8"?>
<svg version="1.1" id="Layer_1"
xmlns="http://www.w3.org/2000/svg"
xmlns:xlink="http://www.w3.org/1999/xlink"
width="31px" height="31px"
xml:space="preserve">
<g id="PathID_136" transform="matrix(1, 0, 0, 1, 15.1, 15.15)">
<path style="fill:#A76400;fill-opacity:0" d="M14.9 15L-15 15L-15 -15L14.9 -15L14.9 15" />
</g>
<g id="PathID_137" transform="matrix(1, 0, 0, 1, 15.1, 15.15)">
<path style="fill:#131C08;fill-opacity:1" d="M8.9 -7.2L7.1 7.55L2.25 7L3.1 -1L0.2 -1.35L0.65 -4.95L3.05 -5.3Q4.5 -5.7 5.2 -7.6L8.9 -7.2M5.5 -7.1Q4.7 -4.5 1.85 -4.5L1.1 -4.5L0.75 -1.8L1.25 -1.7L3.85 -1.4L2.85 6.4L6.8 6.9L8.45 -6.75L5.5 -7.1M0.3 3.75L-3.45 3.7L-3.5 7.4L-7.2 7.45L-7.35 3.55L-11.05 3.5L-11.1 -0.35L-7.45 -0.4L-7.3 -4.1L-3.25 -4.1L-3.3 -0.55L0.35 -0.45L0.3 3.75M-6.75 -3.55L-6.75 0.1L-10.45 0.1L-10.45 3.1L-6.75 3.1L-6.75 6.9L-3.8 6.9L-3.8 3.1L-0.1 3.1L-0.1 0.1L-3.8 0.1L-3.8 -3.55L-6.75 -3.55" />
<linearGradient
id="LinearGradID_109" gradientUnits="userSpaceOnUse" gradientTransform="matrix(-0.000671387, 0.00465393, -0.00845337, -0.0012207, 4.6, -0.1)" spreadMethod ="pad" x1="-819.2" y1="0" x2="819.2" y2="0" >
<stop  offset="0.0431373" style="stop-color:#96E935;stop-opacity:1" />
<stop  offset="0.972549" style="stop-color:#5B9F0D;stop-opacity:1" />
</linearGradient>
<path style="fill:url(#LinearGradID_109) " d="M8.45 -6.75L6.8 6.9L2.85 6.4L3.85 -1.4L1.25 -1.7L0.75 -1.8L1.1 -4.5L1.85 -4.5Q4.7 -4.5 5.5 -7.1L8.45 -6.75" />
<linearGradient
id="LinearGradID_110" gradientUnits="userSpaceOnUse" gradientTransform="matrix(3.05176e-005, 0.00631714, -0.00637817, 3.05176e-005, -5.3, 1.65)" spreadMethod ="pad" x1="-819.2" y1="0" x2="819.2" y2="0" >
<stop  offset="0" style="stop-color:#8EE52A;stop-opacity:1" />
<stop  offset="0.972549" style="stop-color:#5B9F0D;stop-opacity:1" />
</linearGradient>
<path style="fill:url(#LinearGradID_110) " d="M-3.8 -3.55L-3.8 0.1L-0.1 0.1L-0.1 3.1L-3.8 3.1L-3.8 6.9L-6.75 6.9L-6.75 3.1L-10.45 3.1L-10.45 0.1L-6.75 0.1L-6.75 -3.55L-3.8 -3.55" />
</g>
<g id="PathID_138" transform="matrix(1, 0, 0, 1, 15.1, 15.15)">
<path style="fill:#FFEEB8;fill-opacity:1" d="M10.95 -5.7L10.15 -5.1Q9.3 -6.8 7.85 -8.3L6.85 -9.2L6.35 -9.55L7.35 -12.1Q-0.15 -15.85 -7.1 -12.05Q-13.05 -8.85 -14.65 -0.05L-14.65 -0.15Q-14.65 -6.3 -10.3 -10.65Q-6.05 -15 0.1 -15Q4.3 -15 7.7 -12.95Q9.2 -12.05 10.6 -10.65Q12.1 -9.15 13.05 -7.4L10.95 -5.7M-7.35 9.1L-6.75 9.55Q-4.95 10.8 -2.8 11.3L-3.3 12.3L-4.15 14.1Q-7.3 13.2 -9.8 10.85L-7.35 9.1" />
<linearGradient
id="LinearGradID_111" gradientUnits="userSpaceOnUse" gradientTransform="matrix(0.00593567, 0.00596619, -0.0111084, 0.0111694, -8.3, -5.4)" spreadMethod ="pad" x1="-819.2" y1="0" x2="819.2" y2="0" >
<stop  offset="0.027451" style="stop-color:#AD6800;stop-opacity:1" />
<stop  offset="1" style="stop-color:#FFD13A;stop-opacity:1" />
</linearGradient>
<path style="fill:url(#LinearGradID_111) " d="M-0.3 -11.65Q-5.05 -11.65 -8.45 -8.3Q-11.8 -4.9 -11.8 -0.05Q-11.8 4.75 -8.45 8.15L-7.35 9.1L-9.8 10.85L-10.3 10.35Q-14.65 6 -14.65 -0.05Q-13.05 -8.85 -7.1 -12.05Q-0.15 -15.85 7.35 -12.1L6.35 -9.55Q3.5 -11.65 -0.3 -11.65" />
<path style="fill:#A76400;fill-opacity:1" d="M11.95 -2.95Q12.65 2.3 10.65 6.5Q9.55 9.95 3.9 12.3Q0.3 13.2 -3.3 12.3L-2.8 11.3L-1.9 11.4L-0.3 11.5Q4.5 11.5 7.85 8.15Q11.25 4.75 11.25 -0.05Q11.25 -2.25 10.5 -4.2L10.15 -5.1L10.95 -5.7L11.95 -2.95" />
<linearGradient
id="LinearGradID_112" gradientUnits="userSpaceOnUse" gradientTransform="matrix(0.00471497, 0.00476074, -0.00947571, 0.00952148, 5.75, 2.7)" spreadMethod ="pad" x1="-819.2" y1="0" x2="819.2" y2="0" >
<stop  offset="0" style="stop-color:#AD5F00;stop-opacity:1" />
<stop  offset="1" style="stop-color:#F3BB00;stop-opacity:1" />
</linearGradient>
<path style="fill:url(#LinearGradID_112) " d="M-3.3 12.3Q0.3 13.2 3.9 12.3Q9.55 9.95 10.65 6.5Q12.65 2.3 11.95 -2.95L10.95 -5.7L13.05 -7.4Q14.9 -4.1 14.9 -0.15Q14.9 6 10.6 10.35Q6.25 14.7 0.1 14.7L-4.15 14.1L-3.3 12.3" />
<path style="fill:none;stroke-width:0.7;stroke-linecap:round;stroke-linejoin:round;stroke-miterlimit:3;stroke:#000000;stroke-opacity:0.501961" d="M-14.65 -0.05L-14.65 -0.15Q-14.65 -6.3 -10.3 -10.65Q-6.05 -15 0.1 -15Q4.3 -15 7.7 -12.95Q9.2 -12.05 10.6 -10.65Q12.1 -9.15 13.05 -7.4Q14.9 -4.1 14.9 -0.15Q14.9 6 10.6 10.35Q6.25 14.7 0.1 14.7L-4.15 14.1Q-7.3 13.2 -9.8 10.85L-10.3 10.35Q-14.65 6 -14.65 -0.05z" />
<path style="fill:none;stroke-width:0.7;stroke-linecap:round;stroke-linejoin:round;stroke-miterlimit:3;stroke:#000000;stroke-opacity:0.501961" d="M6.35 -9.55L6.85 -9.2L7.85 -8.3Q9.3 -6.8 10.15 -5.1" />
<path style="fill:none;stroke-width:0.7;stroke-linecap:round;stroke-linejoin:round;stroke-miterlimit:3;stroke:#000000;stroke-opacity:0.501961" d="M10.15 -5.1L10.5 -4.2Q11.25 -2.25 11.25 -0.05Q11.25 4.75 7.85 8.15Q4.5 11.5 -0.3 11.5L-1.9 11.4L-2.8 11.3" />
<path style="fill:none;stroke-width:0.7;stroke-linecap:round;stroke-linejoin:round;stroke-miterlimit:3;stroke:#000000;stroke-opacity:0.501961" d="M-7.35 9.1L-8.45 8.15Q-11.8 4.75 -11.8 -0.05Q-11.8 -4.9 -8.45 -8.3Q-5.05 -11.65 -0.3 -11.65Q3.5 -11.65 6.35 -9.55" />
<path style="fill:none;stroke-width:0.7;stroke-linecap:round;stroke-linejoin:round;stroke-miterlimit:3;stroke:#000000;stroke-opacity:0.501961" d="M-2.8 11.3Q-4.95 10.8 -6.75 9.55L-7.35 9.1" />
</g>
<g id="PathID_139" transform="matrix(1, 0, 0, 1, 15.1, 15.15)">
<path style="fill:#F2F2F2;fill-opacity:0.592157" d="M-7.5 -10.45Q-7.95 -10.3 -7.95 -9.75Q-8.05 -9.15 -7.45 -8.8Q-6.85 -8.6 -6.25 -9.3Q-6.1 -10.4 -6.6 -10.5L-7.5 -10.45M-5.4 -10.45Q-5.1 -9.8 -5.25 -9L-3.6 -7.85L-5.75 -8.15Q-6.7 -7.5 -7.45 -7.7Q-8.05 -7.85 -8.45 -8.45L-8.75 -8.95Q-11.45 -10.4 -15.1 -11.35L-8.8 -10.45L-8.25 -11.35Q-7.5 -11.9 -6.7 -11.7L-6.3 -11.35L-3.65 -15L-5.75 -10.9L-5.4 -10.45" />
<path style="fill:#F2F2F2;fill-opacity:0.941176" d="M-6.6 -10.5Q-6.1 -10.4 -6.25 -9.3Q-6.85 -8.6 -7.45 -8.8Q-8.05 -9.15 -7.95 -9.75Q-7.95 -10.3 -7.5 -10.45L-6.6 -10.5" />
</g>
</svg>
