<?xml version="1.0" encoding="utf-8"?>
<svg version="1.1" id="Layer_1"
xmlns="http://www.w3.org/2000/svg"
xmlns:xlink="http://www.w3.org/1999/xlink"
width="60px" height="62px"
xml:space="preserve">
<g id="PathID_455" transform="matrix(1, 0, 0, 1, 15.4, 27.9)">
<path style="fill:none;stroke-width:1;stroke-linecap:round;stroke-linejoin:round;stroke-miterlimit:3;stroke:#000000;stroke-opacity:1" d="M11 -2L11.6 -9.3L4.85 -10.35L5.05 -1.9" />
<path style="fill:none;stroke-width:1;stroke-linecap:round;stroke-linejoin:round;stroke-miterlimit:3;stroke:#000000;stroke-opacity:1" d="M19.6 2.05L23.75 -6.55L18.05 -9.2L15.5 -0.1" />
<path style="fill:none;stroke-width:1;stroke-linecap:round;stroke-linejoin:round;stroke-miterlimit:3;stroke:#000000;stroke-opacity:1" d="M18.05 -9.2L18.35 -10.25L11.8 -11.7L11.6 -9.3" />
<path style="fill:none;stroke-width:1;stroke-linecap:round;stroke-linejoin:round;stroke-miterlimit:3;stroke:#000000;stroke-opacity:1" d="M4.65 -16.65L4.85 -10.35" />
<path style="fill:none;stroke-width:1;stroke-linecap:round;stroke-linejoin:round;stroke-miterlimit:3;stroke:#000000;stroke-opacity:1" d="M12.65 -22.25L11.8 -11.7" />
<path style="fill:none;stroke-width:1;stroke-linecap:round;stroke-linejoin:round;stroke-miterlimit:3;stroke:#000000;stroke-opacity:1" d="M23.75 -6.55L24.15 -7.3L26.55 -12.35" />
<path style="fill:none;stroke-width:1;stroke-linecap:round;stroke-linejoin:round;stroke-miterlimit:3;stroke:#000000;stroke-opacity:1" d="M24.15 -7.3L28.9 -2.05L34.65 -9.5" />
<path style="fill:none;stroke-width:1;stroke-linecap:round;stroke-linejoin:round;stroke-miterlimit:3;stroke:#000000;stroke-opacity:1" d="M20.45 -17.65L18.35 -10.25" />
<path style="fill:none;stroke-width:1;stroke-linecap:round;stroke-linejoin:round;stroke-miterlimit:3;stroke:#000000;stroke-opacity:1" d="M28.9 -2.05L23.15 5.4" />
</g>
<g id="PathID_456" transform="matrix(1, 0, 0, 1, 15.4, 27.9)">
<path style="fill:#03080C;fill-opacity:1" d="M7 -13.45L4.55 -15.3L2.25 -15.05Q3.85 -18 4.5 -22.1Q5.15 -17.6 7 -13.45M10.45 -19.9Q12.5 -23.05 13.7 -27.9Q14.05 -22.65 15.25 -17.45Q13.95 -19.3 12.7 -20.1L10.45 -19.9M20.5 -17.35Q19.65 -17.95 17.9 -17.8Q21 -20.3 22.95 -24.2Q22.25 -19.85 22.3 -14.5Q21.65 -16.2 20.5 -17.35M22.95 -10.4Q26.3 -13.75 28.85 -17.9Q27.9 -13.15 27.55 -7.25L26.3 -10.65L22.95 -10.4M30.6 -9.3Q34.95 -11.5 38.85 -14.5Q36.9 -10.9 35.75 -6L34.25 -8.55L30.6 -9.3" />
</g>
<g id="PathID_457" transform="matrix(1, 0, 0, 1, 15.4, 27.9)">
<linearGradient
id="LinearGradID_284" gradientUnits="userSpaceOnUse" gradientTransform="matrix(-0.0111389, 0.0162201, -0.00923157, -0.00152588, 21.15, -6.75)" spreadMethod ="pad" x1="-819.2" y1="0" x2="819.2" y2="0" >
<stop  offset="0" style="stop-color:#4D4D4D;stop-opacity:1" />
<stop  offset="1" style="stop-color:#1E1E1E;stop-opacity:1" />
</linearGradient>
<path style="fill:url(#LinearGradID_284) " d="M24.65 0.4L21.85 0.25Q21.25 -0.6 21.1 -1.3L21.25 -2.65L21.5 -4.35L21.3 -7.1L20.7 -9.8Q20.45 -11.1 19.25 -12.85L20.05 -9.65Q20.1 -8.85 19.5 -8.35Q19.15 -8.1 17.6 -7.5Q16.8 -7.3 16.15 -6.95L19.7 -7.4Q20.75 -6.75 19.9 -4.85Q17.7 -2.65 15.35 -1.45L18.95 -2.45Q19.85 -2.45 20.3 -1.9L20.6 -0.9Q20.7 0.05 18.75 4.4Q21.5 1.4 22.2 1.5Q23.05 1.65 20.85 6.45Q21.15 5.7 20.7 5.3Q19.9 4.5 17.4 6.45Q19.45 -1.2 12.75 0.05Q16.4 -4.75 14.65 -6.7Q18.65 -9.35 18.55 -15.05Q22.95 -11.25 22.5 -4.35Q21.95 -1.95 22.55 -1.05Q23.25 -0.1 25.15 -0.4L24.65 0.4" />
<path style="fill:#101010;fill-opacity:1" d="M25.15 -0.4L25.8 -1Q24.75 0.35 24.95 1.3Q24.05 1.7 23.2 2.8L20.8 6.55L20.85 6.45Q23.05 1.65 22.2 1.5Q21.5 1.4 18.75 4.4Q20.7 0.05 20.6 -0.9L20.3 -1.9Q19.85 -2.45 18.95 -2.45L15.35 -1.45Q17.7 -2.65 19.9 -4.85Q20.75 -6.75 19.7 -7.4L16.15 -6.95Q16.8 -7.3 17.6 -7.5Q19.15 -8.1 19.5 -8.35Q20.1 -8.85 20.05 -9.65L19.25 -12.85Q20.45 -11.1 20.7 -9.8L21.3 -7.1L21.5 -4.35L21.25 -2.65L21.1 -1.3Q21.25 -0.6 21.85 0.25L24.65 0.4L25.15 -0.4" />
<path style="fill:none;stroke-width:0.7;stroke-linecap:round;stroke-linejoin:round;stroke-miterlimit:3;stroke:#000000;stroke-opacity:0.4" d="M20.85 6.45Q21.15 5.7 20.7 5.3Q19.9 4.5 17.4 6.45Q19.45 -1.2 12.75 0.05Q16.4 -4.75 14.65 -6.7Q18.65 -9.35 18.55 -15.05Q22.95 -11.25 22.5 -4.35Q21.95 -1.95 22.55 -1.05Q23.25 -0.1 25.15 -0.4L25.8 -1" />
<path style="fill:none;stroke-width:0.7;stroke-linecap:round;stroke-linejoin:round;stroke-miterlimit:3;stroke:#000000;stroke-opacity:0.4" d="M20.8 6.55L20.85 6.45" />
</g>
<g id="PathID_458" transform="matrix(1, 0, 0, 1, 15.4, 27.9)">
<linearGradient
id="LinearGradID_285" gradientUnits="userSpaceOnUse" gradientTransform="matrix(-0.0112305, 0.0161743, 0.00468445, 0.00808716, 35.45, 2.4)" spreadMethod ="pad" x1="-819.2" y1="0" x2="819.2" y2="0" >
<stop  offset="0" style="stop-color:#4D4D4D;stop-opacity:1" />
<stop  offset="1" style="stop-color:#1E1E1E;stop-opacity:1" />
</linearGradient>
<path style="fill:url(#LinearGradID_285) " d="M29.5 3.05Q30.55 3.45 32.55 2.05Q38.85 -0.85 44 1.9Q38.65 3.75 37.55 8.4Q35.1 7.6 31.85 12.6Q30.7 5.9 24.25 10.5Q25.2 7.5 24.2 7.15Q23.75 6.8 22.85 7.5Q26.75 3.55 27.25 4.4Q27.6 4.9 25.75 8.55Q29.1 5.2 30 5L31.1 4.95Q31.8 5.1 32.05 6Q32.4 7.1 32.55 9.65Q32.7 7.15 34.05 4.25Q35.45 2.75 36.4 3.5Q37.05 4.8 37.35 7L37.35 5.5Q37.3 3.85 37.5 3.3Q37.6 2.6 38.5 2.4L41.7 2.05L38.35 1.75L35.65 2.25Q34.2 2.45 33 3L31.45 3.7Q30.6 4.25 30.15 4.3L28.55 4.2Q27.45 4 27.4 1.75L27.95 0.95Q28.35 2.8 29.5 3.05" />
<path style="fill:#101010;fill-opacity:1" d="M25.6 3.85Q26.45 2.65 26.55 1.8Q27.4 1.45 28.35 0L27.95 0.95L27.4 1.75Q27.45 4 28.55 4.2L30.15 4.3Q30.6 4.25 31.45 3.7L33 3Q34.2 2.45 35.65 2.25L38.35 1.75L41.7 2.05L38.5 2.4Q37.6 2.6 37.5 3.3Q37.3 3.85 37.35 5.5L37.35 7Q37.05 4.8 36.4 3.5Q35.45 2.75 34.05 4.25Q32.7 7.15 32.55 9.65Q32.4 7.1 32.05 6Q31.8 5.1 31.1 4.95L30 5Q29.1 5.2 25.75 8.55Q27.6 4.9 27.25 4.4Q26.75 3.55 22.85 7.5L25.6 3.85" />
<path style="fill:none;stroke-width:0.7;stroke-linecap:round;stroke-linejoin:round;stroke-miterlimit:3;stroke:#000000;stroke-opacity:0.4" d="M22.85 7.5Q23.75 6.8 24.2 7.15Q25.2 7.5 24.25 10.5Q30.7 5.9 31.85 12.6Q35.1 7.6 37.55 8.4Q38.65 3.75 44 1.9Q38.85 -0.85 32.55 2.05Q30.55 3.45 29.5 3.05Q28.35 2.8 27.95 0.95L28.35 0" />
</g>
<g id="PathID_459" transform="matrix(1, 0, 0, 1, 15.4, 27.9)">
<linearGradient
id="LinearGradID_286" gradientUnits="userSpaceOnUse" gradientTransform="matrix(-0.0111542, 0.0162506, -0.011673, -0.00801086, 18.6, -12.8)" spreadMethod ="pad" x1="-819.2" y1="0" x2="819.2" y2="0" >
<stop  offset="0" style="stop-color:#4D4D4D;stop-opacity:1" />
<stop  offset="1" style="stop-color:#1E1E1E;stop-opacity:1" />
</linearGradient>
<path style="fill:url(#LinearGradID_286) " d="M23.25 5.35Q22.2 4.3 20.55 6.35Q21.75 3.15 22.9 1.4Q23.5 0.6 24.45 0.85Q24.3 -0.25 25.35 -1.6L26.45 -1.8L26.5 -3.05L25.8 -2.6Q25.85 -3.15 26.4 -3.7L27.1 -4.05Q27.2 -2.6 26.95 -1.7L27.6 -1.35L28.4 -0.75L30.5 -1.7L30.45 -0.85L29.2 0.15L29.7 -0.65L28.3 -0.5L28.65 0.7Q27.75 2.4 26.35 2.3Q27 2.6 26.5 4.25Q25.35 5.9 22.95 8.05Q24.05 5.9 23.25 5.35M25.4 -0.1Q25.4 0.5 26.15 0.25Q25.8 -0.1 25.7 -1Q25.3 -0.7 25.4 -0.1M28 0.55L26.6 0.5Q26.75 1.35 27.35 1.2L28 0.55" />
<path style="fill:#101010;fill-opacity:1" d="M25.8 -2.6L26.5 -3.05L26.45 -1.8L25.35 -1.6Q25.05 -2.35 25.8 -3.25L26.4 -3.7Q25.85 -3.15 25.8 -2.6M28.3 -0.5L29.7 -0.65L29.2 0.15L30.45 -0.85L30.15 -0.25Q29.7 0.8 28.65 0.7L28.3 -0.5M22.95 8.05Q23 5.25 20.55 6.35Q22.2 4.3 23.25 5.35Q24.05 5.9 22.95 8.05" />
<path style="fill:#C2C2C2;fill-opacity:1" d="M25.7 -1Q25.8 -0.1 26.15 0.25Q25.4 0.5 25.4 -0.1Q25.3 -0.7 25.7 -1M27.35 1.2Q26.75 1.35 26.6 0.5L28 0.55L27.35 1.2" />
<path style="fill:none;stroke-width:0.7;stroke-linecap:round;stroke-linejoin:round;stroke-miterlimit:3;stroke:#000000;stroke-opacity:0.4" d="M25.35 -1.6Q25.05 -2.35 25.8 -3.25L26.4 -3.7L27.1 -4.05Q27.2 -2.6 26.95 -1.7L27.6 -1.35L28.4 -0.75L30.5 -1.7L30.45 -0.85L30.15 -0.25Q29.7 0.8 28.65 0.7Q27.75 2.4 26.35 2.3Q27 2.6 26.5 4.25Q25.35 5.9 22.95 8.05Q23 5.25 20.55 6.35Q21.75 3.15 22.9 1.4Q23.5 0.6 24.45 0.85Q24.3 -0.25 25.35 -1.6z" />
</g>
<g id="PathID_460" transform="matrix(1, 0, 0, 1, 15.4, 27.9)">
<radialGradient
id="RadialGradID_287" gradientUnits="userSpaceOnUse" gradientTransform="matrix(0.0109558, 0, 0, 0.0109558, -2.8, -2.5)" spreadMethod ="pad" cx="0" cy="0" r="819.2" fx="0" fy="0" >
<stop  offset="0"  style="stop-color:#9A981A;stop-opacity:1" />
<stop  offset="1"  style="stop-color:#496617;stop-opacity:1" />
</radialGradient>
<path style="fill:url(#RadialGradID_287) " d="M-1.15 -4.1Q-3.7 -1.65 -5.45 -2.85Q-4.95 -4.4 -6.15 -8.65Q-6.05 -4.85 -7.5 -3.6Q-13.6 -1.85 -12.9 -5.4Q-12 -8.05 -9.9 -11.25Q-7.65 -14.6 -8.3 -14.65Q-11.4 -13.7 -12.95 -11.15L-11.5 -11.25Q-12.85 -7.75 -14.75 -9.6Q-17.3 -11.15 -9.85 -15.85L-9.35 -16.15L-9.05 -16.35Q-7.35 -16.9 -6.5 -16.35Q-5.95 -14.2 -8.25 -8.65L-6.15 -8.65Q-4.2 -9.8 -1.75 -9Q0.05 -7.8 -1.15 -4.1M-13.8 -9.9Q-13.65 -10.85 -12.95 -11.15Q-13.65 -10.85 -13.8 -9.9" />
<path style="fill:#32480B;fill-opacity:1" d="M-6.5 -16.35Q-7.35 -16.9 -9.05 -16.35Q-5.5 -18.55 -5 -15.85Q-5.8 -12.15 -8.25 -8.65Q-5.95 -14.2 -6.5 -16.35M-7.5 -3.6Q-6.05 -4.85 -6.15 -8.65Q-4.95 -4.4 -5.45 -2.85Q-5.65 -2.2 -6.15 -2Q-5.65 -2.2 -5.45 -2.85Q-3.7 -1.65 -1.15 -4.1Q0.05 -7.8 -1.75 -9Q1.35 -8.4 2.65 -5.5L-5.15 0.75L-6.15 -2Q-7.55 -3.1 -9.75 -2.25Q-14.2 -0.85 -13.2 -4.5L-12.9 -5.4Q-13.6 -1.85 -7.5 -3.6" />
<path style="fill:none;stroke-width:0.7;stroke-linecap:round;stroke-linejoin:round;stroke-miterlimit:3;stroke:#000000;stroke-opacity:0.4" d="M-8.25 -8.65Q-5.8 -12.15 -5 -15.85Q-5.5 -18.55 -9.05 -16.35" />
<path style="fill:none;stroke-width:0.7;stroke-linecap:round;stroke-linejoin:round;stroke-miterlimit:3;stroke:#000000;stroke-opacity:0.4" d="M-8.25 -8.65L-6.15 -8.65Q-4.2 -9.8 -1.75 -9Q1.35 -8.4 2.65 -5.5L-5.15 0.75L-6.15 -2Q-7.55 -3.1 -9.75 -2.25Q-14.2 -0.85 -13.2 -4.5L-12.9 -5.4Q-12 -8.05 -9.9 -11.25Q-7.65 -14.6 -8.3 -14.65Q-11.4 -13.7 -12.95 -11.15L-11.5 -11.25Q-12.85 -7.75 -14.75 -9.6Q-17.3 -11.15 -9.85 -15.85L-9.35 -16.15L-9.05 -16.35" />
<path style="fill:none;stroke-width:0.7;stroke-linecap:round;stroke-linejoin:round;stroke-miterlimit:3;stroke:#000000;stroke-opacity:0.4" d="M-12.95 -11.15Q-13.65 -10.85 -13.8 -9.9" />
<path style="fill:none;stroke-width:0.7;stroke-linecap:round;stroke-linejoin:round;stroke-miterlimit:3;stroke:#000000;stroke-opacity:0.4" d="M-6.15 -2Q-5.65 -2.2 -5.45 -2.85Q-4.95 -4.4 -6.15 -8.65" />
</g>
<g id="PathID_461" transform="matrix(1, 0, 0, 1, 15.4, 27.9)">
<path style="fill:#A34700;fill-opacity:1" d="M7.95 -7.7L5.85 -8.1Q6.7 -9.25 7.9 -9.75L10.9 -9.9L11.2 -9.85Q8.1 -9.4 7.95 -7.7M-2.55 10.9Q-0.1 12.85 2.6 12.55Q-0.1 12.85 -2.55 10.9L-3.25 10.3Q-0.65 11 3.3 10.15L4 10.5L5.1 6.55L9.65 6.55L9.65 1.8L13.4 0.65Q13.65 -2.6 12.6 -5.35L13.55 -4.15Q16.95 -2.75 16.1 -6.8Q17.6 -4.85 17.75 -2.25Q18.35 1.7 16.75 2.65Q15.9 3.8 14.7 3.8L14 5Q10.35 10.75 2.6 12.55Q1.5 13.85 -0.4 13.8Q-4.85 14.45 -6.6 11.55Q-4.05 12.95 -2.5 12.8L-2.55 10.9M-7.65 7.05Q-7.65 3.3 -5.65 1.2Q-6 2.95 -5.75 4.75Q-6.7 3.95 -7.65 7.05M14.5 -2.95Q16.6 -0.1 14.7 3.8Q16.6 -0.1 14.5 -2.95" />
<radialGradient
id="RadialGradID_288" gradientUnits="userSpaceOnUse" gradientTransform="matrix(0.0182648, 0, 0, 0.0182648, -0.65, -6.25)" spreadMethod ="pad" cx="0" cy="0" r="819.2" fx="0" fy="0" >
<stop  offset="0"  style="stop-color:#FFAB09;stop-opacity:1" />
<stop  offset="0.921569"  style="stop-color:#D27400;stop-opacity:1" />
</radialGradient>
<path style="fill:url(#RadialGradID_288) " d="M-5.75 4.75Q-5.45 6.85 -4.35 8.9Q-5.45 6.85 -5.75 4.75Q-6 2.95 -5.65 1.2Q-5.35 -0.55 -4.4 -2.25Q-1.85 -6.4 3.5 -7.85L5.85 -8.1L7.95 -7.7L9.1 -7.25L7.95 -7.7Q8.1 -9.4 11.2 -9.85Q14.05 -9.2 15.8 -7.15L16.1 -6.8Q16.95 -2.75 13.55 -4.15L12.6 -5.35Q13.65 -2.6 13.4 0.65L11 -5.1L11 -0.2L7.25 -0.2L6.4 3.8L3.25 3.8L1.75 7.75L-1.2 7.3L-4.15 6.9L3.3 10.15Q-0.65 11 -3.25 10.3L-2.55 10.9L-2.5 12.8Q-4.05 12.95 -6.6 11.55Q-7.2 10.55 -7.5 9.15L-7.65 7.05Q-6.7 3.95 -5.75 4.75M5.25 -5.2L5.25 -0.45Q7.2 -1.95 9 -4.1L5.25 -6.4L5.25 -5.2M-2.6 1.2L-3.6 0.8L-3.6 5.65L1.6 2.75L0.2 2.25L-2.6 1.2" />
<path style="fill:#F3CA16;fill-opacity:1" d="M5.25 -5.2L7.25 -3.75L5.25 -0.45L5.25 -5.2M12 0.05L8.6 1.15L8.6 5.9L4.4 5.9L3.1 9.05L-1.2 7.3L1.75 7.75L3.25 3.8L6.4 3.8L7.25 -0.2L11 -0.2L11 -5.1L12 0.05M-2.6 1.2L0.2 2.25L-2.6 3.55L-2.6 1.2" />
<path style="fill:#C95700;fill-opacity:1" d="M5.25 -6.4L9 -4.1Q7.2 -1.95 5.25 -0.45L7.25 -3.75L5.25 -5.2L5.25 -6.4M-1.2 7.3L3.1 9.05L4.4 5.9L8.6 5.9L8.6 1.15L12 0.05L11 -5.1L13.4 0.65L9.65 1.8L9.65 6.55L5.1 6.55L4 10.5L3.3 10.15L-4.15 6.9L-1.2 7.3M-2.6 3.55L0.2 2.25L1.6 2.75L-3.6 5.65L-3.6 0.8L-2.6 1.2L-2.6 3.55" />
<path style="fill:none;stroke-width:0.7;stroke-linecap:round;stroke-linejoin:round;stroke-miterlimit:3;stroke:#000000;stroke-opacity:0.4" d="M5.85 -8.1Q6.7 -9.25 7.9 -9.75L10.9 -9.9L11.2 -9.85Q14.05 -9.2 15.8 -7.15L16.1 -6.8Q17.6 -4.85 17.75 -2.25Q18.35 1.7 16.75 2.65Q15.9 3.8 14.7 3.8L14 5Q10.35 10.75 2.6 12.55Q1.5 13.85 -0.4 13.8Q-4.85 14.45 -6.6 11.55Q-7.2 10.55 -7.5 9.15L-7.65 7.05Q-7.65 3.3 -5.65 1.2Q-5.35 -0.55 -4.4 -2.25Q-1.85 -6.4 3.5 -7.85L5.85 -8.1L7.95 -7.7" />
<path style="fill:none;stroke-width:0.7;stroke-linecap:round;stroke-linejoin:round;stroke-miterlimit:3;stroke:#000000;stroke-opacity:0.4" d="M9.1 -7.25L7.95 -7.7" />
<path style="fill:none;stroke-width:0.7;stroke-linecap:round;stroke-linejoin:round;stroke-miterlimit:3;stroke:#000000;stroke-opacity:0.4" d="M5.25 -5.2L5.25 -0.45Q7.2 -1.95 9 -4.1L5.25 -6.4L5.25 -5.2z" />
<path style="fill:none;stroke-width:0.7;stroke-linecap:round;stroke-linejoin:round;stroke-miterlimit:3;stroke:#000000;stroke-opacity:0.4" d="M11 -5.1L11 -0.2L7.25 -0.2L6.4 3.8L3.25 3.8L1.75 7.75L-1.2 7.3" />
<path style="fill:none;stroke-width:0.7;stroke-linecap:round;stroke-linejoin:round;stroke-miterlimit:3;stroke:#000000;stroke-opacity:0.4" d="M11 -5.1L13.4 0.65L9.65 1.8L9.65 6.55L5.1 6.55L4 10.5L3.3 10.15" />
<path style="fill:none;stroke-width:0.7;stroke-linecap:round;stroke-linejoin:round;stroke-miterlimit:3;stroke:#000000;stroke-opacity:0.4" d="M-3.25 10.3L-2.55 10.9Q-0.1 12.85 2.6 12.55" />
<path style="fill:none;stroke-width:0.7;stroke-linecap:round;stroke-linejoin:round;stroke-miterlimit:3;stroke:#000000;stroke-opacity:0.4" d="M0.2 2.25L1.6 2.75L-3.6 5.65L-3.6 0.8L-2.6 1.2L0.2 2.25z" />
<path style="fill:none;stroke-width:0.7;stroke-linecap:round;stroke-linejoin:round;stroke-miterlimit:3;stroke:#000000;stroke-opacity:0.4" d="M14.7 3.8Q16.6 -0.1 14.5 -2.95" />
<path style="fill:none;stroke-width:0.7;stroke-linecap:round;stroke-linejoin:round;stroke-miterlimit:3;stroke:#000000;stroke-opacity:0.4" d="M-5.65 1.2Q-6 2.95 -5.75 4.75Q-5.45 6.85 -4.35 8.9" />
<path style="fill:none;stroke-width:0.7;stroke-linecap:round;stroke-linejoin:round;stroke-miterlimit:3;stroke:#000000;stroke-opacity:0.4" d="M3.3 10.15L-4.15 6.9L-1.2 7.3" />
</g>
<g id="PathID_462" transform="matrix(1, 0, 0, 1, 15.4, 27.9)">
<radialGradient
id="RadialGradID_289" gradientUnits="userSpaceOnUse" gradientTransform="matrix(0.00520325, 0, 0, 0.00520325, -1.8, 2.4)" spreadMethod ="pad" cx="0" cy="0" r="819.2" fx="0" fy="0" >
<stop  offset="0"  style="stop-color:#FFD200;stop-opacity:0.427451" />
<stop  offset="0.976471"  style="stop-color:#E07C00;stop-opacity:0" />
</radialGradient>
<path style="fill:url(#RadialGradID_289) " d="M-1.8 -1.85Q-0.05 -1.85 1.15 -0.6Q2.4 0.65 2.4 2.4Q2.4 4.15 1.15 5.4Q-0.05 6.65 -1.8 6.65Q-3.6 6.65 -4.85 5.4Q-6.05 4.15 -6.05 2.4Q-6.05 0.65 -4.85 -0.6Q-3.6 -1.85 -1.8 -1.85" />
</g>
<g id="PathID_463" transform="matrix(1, 0, 0, 1, 15.4, 27.9)">
<radialGradient
id="RadialGradID_290" gradientUnits="userSpaceOnUse" gradientTransform="matrix(0.00520325, 0, 0, 0.00520325, 5.85, -3.75)" spreadMethod ="pad" cx="0" cy="0" r="819.2" fx="0" fy="0" >
<stop  offset="0"  style="stop-color:#FFD200;stop-opacity:0.427451" />
<stop  offset="0.976471"  style="stop-color:#E07C00;stop-opacity:0" />
</radialGradient>
<path style="fill:url(#RadialGradID_290) " d="M8.85 -6.75Q10.1 -5.5 10.1 -3.75Q10.1 -2 8.85 -0.75Q7.6 0.5 5.85 0.5Q4.1 0.5 2.85 -0.75Q1.6 -2 1.6 -3.75Q1.6 -5.5 2.85 -6.75Q4.1 -8 5.85 -8Q7.6 -8 8.85 -6.75" />
</g>
<g id="PathID_464" transform="matrix(1, 0, 0, 1, 15.4, 27.9)">
<radialGradient
id="RadialGradID_291" gradientUnits="userSpaceOnUse" gradientTransform="matrix(0.00918579, -0.00672913, 0.00308228, 0.00419617, 6.3, 3.75)" spreadMethod ="pad" cx="0" cy="0" r="819.2" fx="0" fy="0" >
<stop  offset="0"  style="stop-color:#FFD200;stop-opacity:0.427451" />
<stop  offset="0.976471"  style="stop-color:#E07C00;stop-opacity:0" />
</radialGradient>
<path style="fill:url(#RadialGradID_291) " d="M13.8 -1.7Q14.85 -0.3 13.35 2.3Q11.9 4.9 8.8 7.2Q5.7 9.45 2.8 10.05Q-0.15 10.65 -1.2 9.25Q-2.2 7.85 -0.75 5.25Q0.7 2.6 3.8 0.35Q6.9 -1.95 9.8 -2.55Q12.75 -3.15 13.8 -1.7" />
</g>
<g id="PathID_465" transform="matrix(1, 0, 0, 1, 15.4, 27.9)">
<radialGradient
id="RadialGradID_292" gradientUnits="userSpaceOnUse" gradientTransform="matrix(0.0184326, 0, 0, 0.0184326, 20.05, 20.45)" spreadMethod ="pad" cx="0" cy="0" r="819.2" fx="0" fy="0" >
<stop  offset="0"  style="stop-color:#FFAA09;stop-opacity:1" />
<stop  offset="0.478431"  style="stop-color:#D05413;stop-opacity:1" />
<stop  offset="1"  style="stop-color:#2B1009;stop-opacity:1" />
</radialGradient>
<path style="fill:url(#RadialGradID_292) " d="M15 0Q21.2 0 25.6 4.4Q30 8.8 30 15Q30 21.2 25.6 25.6Q21.2 30 15 30Q8.8 30 4.4 25.6Q0 21.2 0 15Q0 8.8 4.4 4.4Q8.8 0 15 0" />
</g>
<g id="PathID_466" transform="matrix(1, 0, 0, 1, 15.4, 27.9)">
<radialGradient
id="RadialGradID_293" gradientUnits="userSpaceOnUse" gradientTransform="matrix(0.0266876, 0, 0, 0.0266876, 22.8, 26.25)" spreadMethod ="pad" cx="0" cy="0" r="819.2" fx="0" fy="0" >
<stop  offset="0"  style="stop-color:#FFAA09;stop-opacity:1" />
<stop  offset="0.478431"  style="stop-color:#D05413;stop-opacity:1" />
<stop  offset="1"  style="stop-color:#2B1009;stop-opacity:1" />
</radialGradient>
<path style="fill:url(#RadialGradID_293) " d="M15.05 1.6Q20.6 1.6 24.5 5.5Q28.4 9.4 28.4 14.95Q28.4 20.45 24.5 24.35Q20.6 28.3 15.05 28.3Q9.55 28.3 5.65 24.35Q1.75 20.45 1.75 14.95Q1.75 9.4 5.65 5.5Q9.55 1.6 15.05 1.6" />
<path style="fill:none;stroke-width:2;stroke-linecap:round;stroke-linejoin:round;stroke-miterlimit:3;stroke:#FFFFFF;stroke-opacity:1" d="M15.05 1.6Q20.6 1.6 24.5 5.5Q28.4 9.4 28.4 14.95Q28.4 20.45 24.5 24.35Q20.6 28.3 15.05 28.3Q9.55 28.3 5.65 24.35Q1.75 20.45 1.75 14.95Q1.75 9.4 5.65 5.5Q9.55 1.6 15.05 1.6z" />
</g>
<g id="PathID_467" transform="matrix(1, 0, 0, 1, 15.4, 27.9)">
<radialGradient
id="RadialGradID_294" gradientUnits="userSpaceOnUse" gradientTransform="matrix(0.0201416, 0, 0, 0.0201416, 9.45, 15.6)" spreadMethod ="pad" cx="0" cy="0" r="819.2" fx="0" fy="0" >
<stop  offset="0"  style="stop-color:#575B19;stop-opacity:1" />
<stop  offset="1"  style="stop-color:#36421C;stop-opacity:1" />
</radialGradient>
<path style="fill:url(#RadialGradID_294) " d="M0.15 12.9Q-0.35 15.7 1 18.15L1.35 20.9L4.4 18.15L1.35 20.9L1 18.15Q3 24.15 8.5 23.25L8.85 23.25L13 22.1L10.3 18.95L13 22.1L8.85 23.25L15 21.3L18.95 21.05Q20.6 21.3 22 22.05L21.55 19.15L22 22.05Q20.6 21.3 18.95 21.05Q22.95 22.55 23.75 23.2L25.95 25.4L27.15 27.7L29.2 25.4L27.15 27.7L25.95 25.4L27.4 28.75Q26.95 30.6 25.45 29.75Q24.75 27.3 23.8 26.35Q20.7 23.05 16.5 23.6Q15.25 23.75 13.95 24.2L15.2 28.25L12.8 24.75L13.95 24.2Q9.6 26 6.75 26.45L4.1 26.7L5.3 30.3L3.65 26.65L4.1 26.7Q1.3 26.35 -0.05 25.3Q-1.05 24.45 -1.45 23.2L-3.6 26.2L-1.6 22.65L-1.45 23.2L-2.05 19.2L-1.8 16.6L-4.95 16.6L-1.8 16.6L-2.05 19.2Q-1.35 14.15 0.15 12.9M13.95 24.2L12.8 24.75M13.95 24.2Q15.25 23.75 16.5 23.6M4.1 26.7L3.65 26.65M4.1 26.7L6.75 26.45M-1.45 23.2L-1.6 22.65M-1.45 23.2Q-1.05 24.45 -0.05 25.3" />
<path style="fill:none;stroke-width:0.7;stroke-linecap:round;stroke-linejoin:round;stroke-miterlimit:3;stroke:#000000;stroke-opacity:0.4" d="M0.15 12.9Q-0.35 15.7 1 18.15L4.4 18.15L1.35 20.9Q3 24.15 8.5 23.25L8.85 23.25L10.3 18.95L13 22.1L15 21.3L18.95 21.05L21.55 19.15L22 22.05Q22.95 22.55 23.75 23.2L25.95 25.4L29.2 25.4L27.15 27.7L27.4 28.75Q26.95 30.6 25.45 29.75Q24.75 27.3 23.8 26.35Q20.7 23.05 16.5 23.6L15.2 28.25L12.8 24.75Q9.6 26 6.75 26.45L5.3 30.3L3.65 26.65Q1.3 26.35 -0.05 25.3L-3.6 26.2L-1.6 22.65L-2.05 19.2L-4.95 16.6L-1.8 16.6Q-1.35 14.15 0.15 12.9L0.4 12.6" />
<path style="fill:none;stroke-width:0.7;stroke-linecap:round;stroke-linejoin:round;stroke-miterlimit:3;stroke:#000000;stroke-opacity:0.4" d="M1 18.15L1.35 20.9" />
<path style="fill:none;stroke-width:0.7;stroke-linecap:round;stroke-linejoin:round;stroke-miterlimit:3;stroke:#000000;stroke-opacity:0.4" d="M12.8 24.75L13.95 24.2Q15.25 23.75 16.5 23.6" />
<path style="fill:none;stroke-width:0.7;stroke-linecap:round;stroke-linejoin:round;stroke-miterlimit:3;stroke:#000000;stroke-opacity:0.4" d="M8.85 23.25L13 22.1" />
<path style="fill:none;stroke-width:0.7;stroke-linecap:round;stroke-linejoin:round;stroke-miterlimit:3;stroke:#000000;stroke-opacity:0.4" d="M3.65 26.65L4.1 26.7L6.75 26.45" />
<path style="fill:none;stroke-width:0.7;stroke-linecap:round;stroke-linejoin:round;stroke-miterlimit:3;stroke:#000000;stroke-opacity:0.4" d="M25.95 25.4L27.15 27.7" />
<path style="fill:none;stroke-width:0.7;stroke-linecap:round;stroke-linejoin:round;stroke-miterlimit:3;stroke:#000000;stroke-opacity:0.4" d="M18.95 21.05Q20.6 21.3 22 22.05" />
<path style="fill:none;stroke-width:0.7;stroke-linecap:round;stroke-linejoin:round;stroke-miterlimit:3;stroke:#000000;stroke-opacity:0.4" d="M-1.8 16.6L-2.05 19.2" />
<path style="fill:none;stroke-width:0.7;stroke-linecap:round;stroke-linejoin:round;stroke-miterlimit:3;stroke:#000000;stroke-opacity:0.4" d="M-1.6 22.65L-1.45 23.2Q-1.05 24.45 -0.05 25.3" />
</g>
<g id="PathID_468" transform="matrix(1, 0, 0, 1, 15.4, 27.9)">
<radialGradient
id="RadialGradID_295" gradientUnits="userSpaceOnUse" gradientTransform="matrix(0.0181885, 0, 0, 0.0181885, 34.95, 26.8)" spreadMethod ="pad" cx="0" cy="0" r="819.2" fx="0" fy="0" >
<stop  offset="0"  style="stop-color:#575B19;stop-opacity:1" />
<stop  offset="1"  style="stop-color:#36421C;stop-opacity:1" />
</radialGradient>
<path style="fill:url(#RadialGradID_295) " d="M36.5 9.7L34.25 12.1Q33.7 11 32.9 10.2L34.5 12.5Q35.1 15.65 34.05 18.65L33.3 20.5L37.2 21.25L32.6 21.45L33.3 20.5L31.3 22.45Q30.3 23 28.95 23.25L31.5 25.05L28.95 23.25Q30.3 23 31.3 22.45L26.8 23.4Q24.65 23.8 24 24.15Q23.1 24.7 22.7 26.45L22.9 28.7Q22.9 29.45 22.5 30.1L21.95 30.6Q20.75 31.4 18.75 31.05L20.45 33.25L18.75 31.05Q20.75 31.4 21.95 30.6L17.8 30.8L16.25 29.95Q17.15 30.05 18.3 29.55L20.1 29.6L20.75 28.8L21 27.15L18.3 25.8L20.95 26.25L21 27.15L20.95 25.85L21.15 24.35Q22.45 22.1 26.25 21.3L27.85 21.05L26.65 18.4L29 20.95L27.85 21.05Q30.15 20.65 31.05 19.9L31.35 19.55Q32.4 18.35 32.65 16.4L32.65 14.05L29.25 15.2L32.65 14.05L32.65 16.4Q32.25 11.15 29.3 10.15Q28.75 8.3 27.85 7.3Q31.15 8.45 32.9 10.2Q33.7 11 34.25 12.1L36.5 9.7M27.85 21.05L29 20.95M27.85 21.05L26.25 21.3M33.3 20.5L32.6 21.45M33.3 20.5L34.05 18.65M21 27.15L20.95 26.25M21 27.15L20.75 28.8" />
<path style="fill:none;stroke-width:0.7;stroke-linecap:round;stroke-linejoin:round;stroke-miterlimit:3;stroke:#000000;stroke-opacity:0.4" d="M36.5 9.7L34.25 12.1L34.5 12.5Q35.1 15.65 34.05 18.65L37.2 21.25L32.6 21.45L31.3 22.45L31.5 25.05L28.95 23.25L26.8 23.4Q24.65 23.8 24 24.15Q23.1 24.7 22.7 26.45L22.9 28.7Q22.9 29.45 22.5 30.1L21.95 30.6L20.45 33.25L18.75 31.05L17.8 30.8L16.25 29.95Q17.15 30.05 18.3 29.55L20.1 29.6L20.75 28.8L18.3 25.8L20.95 26.25L20.95 25.85L21.15 24.35Q22.45 22.1 26.25 21.3L26.65 18.4L29 20.95Q30.15 20.65 31.05 19.9L31.35 19.55Q32.4 18.35 32.65 16.4L29.25 15.2L32.65 14.05Q32.25 11.15 29.3 10.15Q28.75 8.3 27.85 7.3Q31.15 8.45 32.9 10.2L36.5 9.7z" />
<path style="fill:none;stroke-width:0.7;stroke-linecap:round;stroke-linejoin:round;stroke-miterlimit:3;stroke:#000000;stroke-opacity:0.4" d="M34.25 12.1Q33.7 11 32.9 10.2" />
<path style="fill:none;stroke-width:0.7;stroke-linecap:round;stroke-linejoin:round;stroke-miterlimit:3;stroke:#000000;stroke-opacity:0.4" d="M29 20.95L27.85 21.05L26.25 21.3" />
<path style="fill:none;stroke-width:0.7;stroke-linecap:round;stroke-linejoin:round;stroke-miterlimit:3;stroke:#000000;stroke-opacity:0.4" d="M32.65 14.05L32.65 16.4" />
<path style="fill:none;stroke-width:0.7;stroke-linecap:round;stroke-linejoin:round;stroke-miterlimit:3;stroke:#000000;stroke-opacity:0.4" d="M32.6 21.45L33.3 20.5L34.05 18.65" />
<path style="fill:none;stroke-width:0.7;stroke-linecap:round;stroke-linejoin:round;stroke-miterlimit:3;stroke:#000000;stroke-opacity:0.4" d="M28.95 23.25Q30.3 23 31.3 22.45" />
<path style="fill:none;stroke-width:0.7;stroke-linecap:round;stroke-linejoin:round;stroke-miterlimit:3;stroke:#000000;stroke-opacity:0.4" d="M20.95 26.25L21 27.15L20.75 28.8" />
<path style="fill:none;stroke-width:0.7;stroke-linecap:round;stroke-linejoin:round;stroke-miterlimit:3;stroke:#000000;stroke-opacity:0.4" d="M18.75 31.05Q20.75 31.4 21.95 30.6" />
</g>
</svg>
