<?xml version="1.0" encoding="utf-8"?>
<svg version="1.1" id="Layer_1"
xmlns="http://www.w3.org/2000/svg"
xmlns:xlink="http://www.w3.org/1999/xlink"
width="33px" height="38px"
xml:space="preserve">
<g id="PathID_140" transform="matrix(1, 0, 0, 1, 13.5, 24.75)">
<path style="fill:#D8920C;fill-opacity:1" d="M12.3 -14.6Q12.05 -18.35 10.95 -18.15Q10.05 -21.35 8.2 -19.9L5.5 -17.7Q6.75 -22.15 10.2 -21.75Q13.35 -20.7 13.75 -17.45Q13.3 -16.1 12.3 -14.6M10.8 -6.75Q11.1 -5.4 12.2 -4.9L11.15 -4.5L9.95 -4.55Q8.8 -8.05 9.95 -8.85Q10.25 -7.4 10.8 -6.75" />
<path style="fill:#9F5F32;fill-opacity:1" d="M9.95 -8.85Q8.8 -8.05 9.95 -4.55Q8.55 -4.75 7.55 -5.5L7.9 -12.3Q10.7 -13.95 11.15 -17.25L10.95 -18.15Q12.05 -18.35 12.3 -14.6Q10.3 -12 9.95 -8.85" />
<path style="fill:#FAE26E;fill-opacity:1" d="M5.4 -21.4Q8.6 -26.8 12.75 -22.75Q14.65 -20.45 13.75 -17.45Q13.35 -20.7 10.2 -21.75Q6.75 -22.15 5.5 -17.7L5.4 -21.4M12.2 -4.9Q11.1 -5.4 10.8 -6.75Q11.85 -5.4 13.8 -7.75Q13.95 -5.85 12.2 -4.9" />
<path style="fill:none;stroke-width:0.7;stroke-linecap:round;stroke-linejoin:round;stroke-miterlimit:3;stroke:#000000;stroke-opacity:0.501961" d="M13.75 -17.45Q14.65 -20.45 12.75 -22.75Q8.6 -26.8 5.4 -21.4L5.5 -17.7L8.2 -19.9Q10.05 -21.35 10.95 -18.15" />
<path style="fill:none;stroke-width:0.7;stroke-linecap:round;stroke-linejoin:round;stroke-miterlimit:3;stroke:#000000;stroke-opacity:0.501961" d="M12.3 -14.6Q13.3 -16.1 13.75 -17.45" />
<path style="fill:none;stroke-width:0.7;stroke-linecap:round;stroke-linejoin:round;stroke-miterlimit:3;stroke:#000000;stroke-opacity:0.501961" d="M9.95 -4.55Q8.55 -4.75 7.55 -5.5L7.9 -12.3Q10.7 -13.95 11.15 -17.25L10.95 -18.15" />
<path style="fill:none;stroke-width:0.7;stroke-linecap:round;stroke-linejoin:round;stroke-miterlimit:3;stroke:#000000;stroke-opacity:0.501961" d="M9.95 -4.55L11.15 -4.5L12.2 -4.9" />
<path style="fill:none;stroke-width:0.7;stroke-linecap:round;stroke-linejoin:round;stroke-miterlimit:3;stroke:#000000;stroke-opacity:0.501961" d="M10.8 -6.75Q10.25 -7.4 9.95 -8.85Q10.3 -12 12.3 -14.6" />
<path style="fill:none;stroke-width:0.7;stroke-linecap:round;stroke-linejoin:round;stroke-miterlimit:3;stroke:#000000;stroke-opacity:0.501961" d="M10.8 -6.75Q11.85 -5.4 13.8 -7.75Q13.95 -5.85 12.2 -4.9" />
</g>
<g id="PathID_141" transform="matrix(1, 0, 0, 1, 13.5, 24.75)">
<path style="fill:#9F5F32;fill-opacity:1" d="M3 -1.65L2.05 -2.95L6.15 -5.15L7.35 -2.25Q6.7 0.85 5.1 2.3L3 -1.65M6.05 7.7L5.95 8.3L6.05 7.7L6.1 7.7L6.85 7.2L7.85 6.75Q9.55 6.1 10.1 6.05Q11.9 5.9 12.6 7.45L14.55 5.25L15.95 5.75L16.65 6.05L15.35 7.45Q14 8.65 11.5 10.25Q9 11.8 5.55 12.1Q2.4 12.45 1.5 11.1Q0.6 9.75 2.15 7.8L5.6 3.75L5.9 5.65L6.05 7.7M9.25 8.55L5.85 8.8Q4.95 8.8 4.75 8.25Q3.05 10.05 5.7 10.05L7.5 9.95Q8.7 9.6 9.25 8.55" />
<path style="fill:#D8920C;fill-opacity:1" d="M8.15 1.9Q7.5 4.45 5.9 5.65L5.6 3.75L5.1 2.3Q6.7 0.85 7.35 -2.25L8.5 -0.3L8.15 1.9M15.95 5.75L14.55 5.25L12.6 7.45Q11.9 5.9 10.1 6.05Q9.55 6.1 7.85 6.75L6.85 7.2Q11.05 4.45 13.45 3.6L13.8 3.5L14.55 3.35L15.55 3.2L15.6 3.15Q16.65 3.1 17 4.9L17.55 4.9L16.65 6.05L15.95 5.75M7.5 9.95L5.7 10.05Q3.05 10.05 4.75 8.25Q4.95 8.8 5.85 8.8L9.25 8.55Q8.7 9.6 7.5 9.95" />
<path style="fill:#FAE26E;fill-opacity:1" d="M5.9 5.65Q7.5 4.45 8.15 1.9L8.5 -0.3L9.95 1.15L13.05 0.7L17.75 0.8Q18.7 1.15 18.7 1.9Q18.7 2.75 17.55 4.9L17 4.9Q16.65 3.1 15.6 3.15L15.55 3.2L14.55 3.35L13.8 3.5L13.45 3.6Q11.05 4.45 6.85 7.2L6.1 7.7L6.05 7.7L5.9 5.65M13.45 3.6L11.4 2.25L9.95 1.15L11.4 2.25L13.45 3.6" />
<path style="fill:none;stroke-width:0.7;stroke-linecap:round;stroke-linejoin:round;stroke-miterlimit:3;stroke:#000000;stroke-opacity:0.501961" d="M8.5 -0.3L7.35 -2.25" />
<path style="fill:none;stroke-width:0.7;stroke-linecap:round;stroke-linejoin:round;stroke-miterlimit:3;stroke:#000000;stroke-opacity:0.501961" d="M5.1 2.3L5.6 3.75L5.9 5.65" />
<path style="fill:none;stroke-width:0.7;stroke-linecap:round;stroke-linejoin:round;stroke-miterlimit:3;stroke:#000000;stroke-opacity:0.501961" d="M8.5 -0.3L9.95 1.15L13.05 0.7L17.75 0.8Q18.7 1.15 18.7 1.9Q18.7 2.75 17.55 4.9L16.65 6.05L15.35 7.45Q14 8.65 11.5 10.25Q9 11.8 5.55 12.1Q2.4 12.45 1.5 11.1Q0.6 9.75 2.15 7.8L5.6 3.75" />
<path style="fill:none;stroke-width:0.7;stroke-linecap:round;stroke-linejoin:round;stroke-miterlimit:3;stroke:#000000;stroke-opacity:0.501961" d="M7.35 -2.25L6.15 -5.15L2.05 -2.95L3 -1.65L5.1 2.3" />
<path style="fill:none;stroke-width:0.7;stroke-linecap:round;stroke-linejoin:round;stroke-miterlimit:3;stroke:#000000;stroke-opacity:0.501961" d="M6.05 7.7L5.95 8.3" />
<path style="fill:none;stroke-width:0.7;stroke-linecap:round;stroke-linejoin:round;stroke-miterlimit:3;stroke:#000000;stroke-opacity:0.501961" d="M9.95 1.15L11.4 2.25L13.45 3.6" />
<path style="fill:none;stroke-width:0.7;stroke-linecap:round;stroke-linejoin:round;stroke-miterlimit:3;stroke:#000000;stroke-opacity:0.501961" d="M6.05 7.7L5.9 5.65" />
</g>
<g id="PathID_142" transform="matrix(1, 0, 0, 1, 13.5, 24.75)">
<linearGradient
id="LinearGradID_113" gradientUnits="userSpaceOnUse" gradientTransform="matrix(-0.00227356, -0.00228882, 0.00819397, -0.00817871, 1.9, -12.15)" spreadMethod ="pad" x1="-819.2" y1="0" x2="819.2" y2="0" >
<stop  offset="0" style="stop-color:#E8C86D;stop-opacity:1" />
<stop  offset="0.960784" style="stop-color:#DEB244;stop-opacity:1" />
</linearGradient>
<path style="fill:url(#LinearGradID_113) " d="M5 -14.8L4.35 -2.75Q-2.8 -5.2 -5.4 -11.25Q2.15 -13.7 5 -21.75Q9.85 -14.45 8.85 -8.35L5 -14.8" />
<linearGradient
id="LinearGradID_114" gradientUnits="userSpaceOnUse" gradientTransform="matrix(-0.00198364, -0.00344849, 0.00708008, -0.00408936, -2.2, -8.1)" spreadMethod ="pad" x1="-819.2" y1="0" x2="819.2" y2="0" >
<stop  offset="0" style="stop-color:#CF890C;stop-opacity:1" />
<stop  offset="0.960784" style="stop-color:#BF800C;stop-opacity:1" />
</linearGradient>
<path style="fill:url(#LinearGradID_114) " d="M-13.25 -10.15Q-8.85 -10.15 -5.4 -11.25Q-2.8 -5.2 4.35 -2.75L5 -14.8L8.85 -8.35Q8.25 -4.65 5.5 -1.4Q-5.35 -2.5 -13.25 -10.15" />
<path style="fill:#A06032;fill-opacity:1" d="M-13.25 -10.15Q-5.35 -2.5 5.5 -1.4Q-8.55 0 -13.25 -10.15" />
<path style="fill:none;stroke-width:0.7;stroke-linecap:round;stroke-linejoin:round;stroke-miterlimit:3;stroke:#000000;stroke-opacity:0.501961" d="M-5.4 -11.25Q2.15 -13.7 5 -21.75Q9.85 -14.45 8.85 -8.35Q8.25 -4.65 5.5 -1.4Q-8.55 0 -13.25 -10.15Q-8.85 -10.15 -5.4 -11.25z" />
</g>
</svg>
