<?xml version="1.0" encoding="utf-8"?>
<svg version="1.1" id="Layer_1"
xmlns="http://www.w3.org/2000/svg"
xmlns:xlink="http://www.w3.org/1999/xlink"
width="30px" height="30px"
xml:space="preserve">
<g id="PathID_322" transform="matrix(1, 0, 0, 1, 0, 0)">
<path style="fill:#561200;fill-opacity:1" d="M25.6 4.4Q30 8.8 30 15Q30 21.2 25.6 25.6Q21.2 30 15 30Q8.8 30 4.4 25.6Q0 21.2 0 15Q0 8.8 4.4 4.4Q8.8 0 15 0Q21.2 0 25.6 4.4" />
</g>
<g id="PathID_323" transform="matrix(1, 0, 0, 1, 0, 0)">
<radialGradient
id="RadialGradID_181" gradientUnits="userSpaceOnUse" gradientTransform="matrix(0.0258484, 0, 0, 0.0258484, 11.65, 8.9)" spreadMethod ="pad" cx="0" cy="0" r="819.2" fx="0" fy="0" >
<stop  offset="0"  style="stop-color:#F39585;stop-opacity:1" />
<stop  offset="0.811765"  style="stop-color:#870E00;stop-opacity:1" />
</radialGradient>
<path style="fill:url(#RadialGradID_181) " d="M24.5 5.5Q28.4 9.45 28.4 14.95Q28.4 20.45 24.5 24.35Q20.6 28.3 15.05 28.3Q9.55 28.3 5.6 24.35Q1.75 20.45 1.75 14.95Q1.75 9.45 5.6 5.5Q9.55 1.6 15.05 1.6Q20.6 1.6 24.5 5.5" />
<path style="fill:none;stroke-width:2;stroke-linecap:round;stroke-linejoin:round;stroke-miterlimit:3;stroke:#FFFFFF;stroke-opacity:1" d="M24.5 5.5Q28.4 9.45 28.4 14.95Q28.4 20.45 24.5 24.35Q20.6 28.3 15.05 28.3Q9.55 28.3 5.6 24.35Q1.75 20.45 1.75 14.95Q1.75 9.45 5.6 5.5Q9.55 1.6 15.05 1.6Q20.6 1.6 24.5 5.5z" />
</g>
</svg>
