<?xml version="1.0" encoding="utf-8"?>
<svg version="1.1" id="Layer_1"
xmlns="http://www.w3.org/2000/svg"
xmlns:xlink="http://www.w3.org/1999/xlink"
width="49px" height="55px"
xml:space="preserve">
<g id="PathID_595" transform="matrix(1, 0, 0, 1, 15.15, 24.2)">
<path style="fill:#E0917F;fill-opacity:1" d="M22.85 -1.55L21.35 -0.35L22.55 -2L26.2 -2.4L22.85 -1.55M27.6 -1.65L25.05 -0.15L26.9 -2.4L26.95 -2.4L32.4 -2.1L27.6 -1.65M20.85 0.15L22.55 0.25L23.8 0.35L21.05 0.9L19.55 2L19.5 2L20.85 0.15M25.4 1.15L23.1 2.5L24.55 0.4L27.3 0.75L29.85 1.15L25.4 1.15M23.15 4.15L21.2 5.45L22 4.1L22.75 2.95L26.3 3.85L27.15 4.15L23.15 4.15" />
<path style="fill:#834D41;fill-opacity:1" d="M21.35 -0.35L22.85 -1.55L26.2 -2.4L24.25 -0.2L21.35 -0.35M24.85 7.45L21.2 5.45L23.15 4.15L27.15 4.15L24.85 7.45M25.05 -0.15L27.6 -1.65L32.4 -2.1L30.35 0.45L25.05 -0.15M23.1 2.5L25.4 1.15L29.85 1.15L28.05 3.55L23.1 2.5M18.1 3.75L19 2.65L21 2.75L22.1 2.9L20.6 5.15L18.1 3.75M21.05 0.9L23.8 0.35L22.45 2.4L19.55 2L21.05 0.9" />
<path style="fill:#5D362E;fill-opacity:1" d="M25.05 -0.15L30.35 0.45L24.55 0.4L23.1 2.5L23.8 0.35L22.55 0.25L20.85 0.15L21.35 -0.35L24.25 -0.2L26.2 -2.4L26.9 -2.4L25.05 -0.15M30.35 0.45L32.4 -2.1L33.35 -1.95L30.7 1.3L28.05 4.55L25.4 7.7L24.85 7.45L27.15 4.15L28.05 4.55L27.15 4.15L26.3 3.85L22.75 2.95L22.1 2.9L21 2.75L19 2.65L19.5 2L19.55 2L22.45 2.4L23.8 0.35L24.55 0.4L25.05 -0.15M23.1 2.5L22.75 2.95L22 4.1L21.2 5.45L20.6 5.15L22.1 2.9L22.75 2.95L23.1 2.5L28.05 3.55L29.85 1.15L30.7 1.3L29.85 1.15L27.3 0.75L24.55 0.4" />
<path style="fill:#4F2C24;fill-opacity:1" d="M28.05 4.55L29.4 6.8L30.7 1.3L33.35 -1.95L33.6 1.45L31.5 4.15L29.4 6.8L28.05 4.55L26.8 10.1L25.4 7.7L28.05 4.55M31.5 4.15L30.7 1.3L31.5 4.15" />
<path style="fill:none;stroke-width:0.7;stroke-linecap:round;stroke-linejoin:round;stroke-miterlimit:3;stroke:#000000;stroke-opacity:0.4" d="M26.2 -2.4L22.55 -2L21.35 -0.35" />
<path style="fill:none;stroke-width:0.7;stroke-linecap:round;stroke-linejoin:round;stroke-miterlimit:3;stroke:#000000;stroke-opacity:0.4" d="M26.2 -2.4L26.9 -2.4L26.95 -2.4L32.4 -2.1L33.35 -1.95L33.6 1.45L31.5 4.15L29.4 6.8L26.8 10.1L25.4 7.7L24.85 7.45L21.2 5.45L19.8 7.85" />
<path style="fill:none;stroke-width:0.7;stroke-linecap:round;stroke-linejoin:round;stroke-miterlimit:3;stroke:#000000;stroke-opacity:0.4" d="M21.35 -0.35L20.85 0.15L22.55 0.25L23.8 0.35L24.55 0.4L25.05 -0.15L26.9 -2.4" />
<path style="fill:none;stroke-width:0.7;stroke-linecap:round;stroke-linejoin:round;stroke-miterlimit:3;stroke:#000000;stroke-opacity:0.4" d="M30.7 1.3L31.5 4.15" />
<path style="fill:none;stroke-width:0.7;stroke-linecap:round;stroke-linejoin:round;stroke-miterlimit:3;stroke:#000000;stroke-opacity:0.4" d="M29.85 1.15L27.3 0.75L24.55 0.4L23.1 2.5" />
<path style="fill:none;stroke-width:0.7;stroke-linecap:round;stroke-linejoin:round;stroke-miterlimit:3;stroke:#000000;stroke-opacity:0.4" d="M29.85 1.15L30.7 1.3L33.35 -1.95" />
<path style="fill:none;stroke-width:0.7;stroke-linecap:round;stroke-linejoin:round;stroke-miterlimit:3;stroke:#000000;stroke-opacity:0.4" d="M22.75 2.95L26.3 3.85L27.15 4.15L28.05 4.55L30.7 1.3" />
<path style="fill:none;stroke-width:0.7;stroke-linecap:round;stroke-linejoin:round;stroke-miterlimit:3;stroke:#000000;stroke-opacity:0.4" d="M23.1 2.5L22.75 2.95L22.1 2.9" />
<path style="fill:none;stroke-width:0.7;stroke-linecap:round;stroke-linejoin:round;stroke-miterlimit:3;stroke:#000000;stroke-opacity:0.4" d="M20.6 5.15L21.2 5.45L22 4.1L22.75 2.95" />
<path style="fill:none;stroke-width:0.7;stroke-linecap:round;stroke-linejoin:round;stroke-miterlimit:3;stroke:#000000;stroke-opacity:0.4" d="M19 2.65L21 2.75L22.1 2.9" />
<path style="fill:none;stroke-width:0.7;stroke-linecap:round;stroke-linejoin:round;stroke-miterlimit:3;stroke:#000000;stroke-opacity:0.4" d="M19.5 2L19 2.65L18.1 3.75L20.6 5.15" />
<path style="fill:none;stroke-width:0.7;stroke-linecap:round;stroke-linejoin:round;stroke-miterlimit:3;stroke:#000000;stroke-opacity:0.4" d="M28.05 4.55L25.4 7.7" />
<path style="fill:none;stroke-width:0.7;stroke-linecap:round;stroke-linejoin:round;stroke-miterlimit:3;stroke:#000000;stroke-opacity:0.4" d="M28.05 4.55L29.4 6.8" />
<path style="fill:none;stroke-width:0.7;stroke-linecap:round;stroke-linejoin:round;stroke-miterlimit:3;stroke:#000000;stroke-opacity:0.4" d="M19.5 2L20.85 0.15" />
</g>
<g id="PathID_596" transform="matrix(1, 0, 0, 1, 15.15, 24.2)">
<path style="fill:#F1ECE9;fill-opacity:1" d="M13.2 -15.45Q12.4 -12.9 10.7 -11.7L11 -11.2Q11.9 -8.2 11.25 -6.05Q9.55 -5.15 7.25 -8.75L7.15 -8.9L6.65 -9.7Q8.8 -2.5 5.55 -2.65Q2.65 -3.2 0.2 -6.25Q0.35 -5.35 0.65 -4.5L0.3 -1.1Q-0.7 -2.7 -0.85 -4.9Q-2.3 -4.35 -3.75 -4.15L-8 -4.4Q-11.8 -5.35 -9.15 -11.5L-9.15 -11.55L-8.4 -11.85Q-5.3 -13.15 -2.1 -12.9L-3.9 -14.15Q-0.1 -13.55 1.85 -16.05L2 -16.3Q2 -18.55 3.2 -20.2Q4.3 -21.1 5.4 -21.6Q2.05 -17.95 4.3 -14.6Q8.45 -12.2 11.8 -15.15Q12.85 -16.35 12.75 -19.25Q13.8 -17.6 13.2 -15.45M5.55 2.6Q3 2.75 2.65 0.5L4.2 -0.65Q6.35 -2.05 9 -2.8L11.55 -3.3Q13.1 -2.4 13.35 -0.7Q9.5 -0.65 5.55 2.6" />
<path style="fill:#FFFFFF;fill-opacity:1" d="M9.1 -21.9Q11.75 -20.85 12.75 -19.25Q12.85 -16.35 11.8 -15.15Q8.45 -12.2 4.3 -14.6Q2.05 -17.95 5.4 -21.6L9.1 -21.9M-4.85 -14.4Q-8.05 -16.65 -3.1 -20.3Q0 -21.45 3.2 -20.2Q2 -18.55 2 -16.3L1.85 -16.05Q-0.1 -13.55 -3.9 -14.15L-4.85 -14.4M-13.2 -3.95Q-13.95 -6.45 -12.3 -8.85Q-11.35 -10.55 -9.15 -11.55L-9.15 -11.5Q-12.8 -7.6 -13.2 -3.95" />
<path style="fill:#D2C4C3;fill-opacity:1" d="M2.65 0.5L1.35 1.75Q-1.7 0.8 -2.95 -1.65Q-1.7 0.8 1.35 1.75L-0.2 3.65L1.35 1.75L2.65 0.5Q3 2.75 5.55 2.6Q9.5 -0.65 13.35 -0.7L13.35 0.25Q7.85 1.9 2.8 6.25Q-0.5 5.05 -0.2 3.65Q-2.85 2.2 -4.25 -0.3Q-8.85 0.8 -11.85 -1.5Q-12.8 -2.75 -13.2 -3.95Q-12.05 -2.1 -9.3 -1.25Q-10.4 -2.3 -10.65 -4.1Q-7.25 -2.9 -3.75 -4.15Q-2.3 -4.35 -0.85 -4.9Q-0.7 -2.7 0.3 -1.1L0.65 -4.5Q0.35 -5.35 0.2 -6.25Q2.65 -3.2 5.55 -2.65Q8.8 -2.5 6.65 -9.7L7.15 -8.9L7.25 -8.75Q9.55 -5.15 11.25 -6.05Q11.9 -8.2 11 -11.2Q13.45 -6.45 11.55 -3.3L9 -2.8Q8.9 -5.95 7.25 -8.75Q8.9 -5.95 9 -2.8Q6.35 -2.05 4.2 -0.65Q1.55 -2 0.65 -4.5Q1.55 -2 4.2 -0.65L2.65 0.5" />
<path style="fill:#CAC1BC;fill-opacity:1" d="M-3.9 -14.15L-2.1 -12.9Q-5.3 -13.15 -8.4 -11.85Q-9.7 -14.9 -6.9 -17.9Q-5 -19.55 -3.1 -20.3Q-8.05 -16.65 -4.85 -14.4L-3.9 -14.15M-10.65 -4.1Q-10.4 -2.3 -9.3 -1.25Q-12.05 -2.1 -13.2 -3.95Q-12.8 -7.6 -9.15 -11.5Q-11.8 -5.35 -8 -4.4L-3.75 -4.15Q-7.25 -2.9 -10.65 -4.1" />
<path style="fill:none;stroke-width:0.7;stroke-linecap:round;stroke-linejoin:round;stroke-miterlimit:3;stroke:#000000;stroke-opacity:0.4" d="M12.75 -19.25Q11.75 -20.85 9.1 -21.9L5.4 -21.6Q4.3 -21.1 3.2 -20.2Q2 -18.55 2 -16.3L1.85 -16.05" />
<path style="fill:none;stroke-width:0.7;stroke-linecap:round;stroke-linejoin:round;stroke-miterlimit:3;stroke:#000000;stroke-opacity:0.4" d="M-8.4 -11.85L-9.15 -11.55" />
<path style="fill:none;stroke-width:0.7;stroke-linecap:round;stroke-linejoin:round;stroke-miterlimit:3;stroke:#000000;stroke-opacity:0.4" d="M0.65 -4.5Q0.35 -5.35 0.2 -6.25" />
<path style="fill:none;stroke-width:0.7;stroke-linecap:round;stroke-linejoin:round;stroke-miterlimit:3;stroke:#000000;stroke-opacity:0.4" d="M6.65 -9.7L7.15 -8.9L7.25 -8.75" />
<path style="fill:none;stroke-width:0.7;stroke-linecap:round;stroke-linejoin:round;stroke-miterlimit:3;stroke:#000000;stroke-opacity:0.4" d="M11 -11.2L10.7 -11.7Q12.4 -12.9 13.2 -15.45Q13.8 -17.6 12.75 -19.25" />
<path style="fill:none;stroke-width:0.7;stroke-linecap:round;stroke-linejoin:round;stroke-miterlimit:3;stroke:#000000;stroke-opacity:0.4" d="M0.65 -4.5Q1.55 -2 4.2 -0.65Q6.35 -2.05 9 -2.8Q8.9 -5.95 7.25 -8.75" />
<path style="fill:none;stroke-width:0.7;stroke-linecap:round;stroke-linejoin:round;stroke-miterlimit:3;stroke:#000000;stroke-opacity:0.4" d="M11 -11.2Q13.45 -6.45 11.55 -3.3Q13.1 -2.4 13.35 -0.7L13.35 0.25Q7.85 1.9 2.8 6.25Q-0.5 5.05 -0.2 3.65Q-2.85 2.2 -4.25 -0.3Q-8.85 0.8 -11.85 -1.5Q-12.8 -2.75 -13.2 -3.95Q-13.95 -6.45 -12.3 -8.85Q-11.35 -10.55 -9.15 -11.55" />
<path style="fill:none;stroke-width:0.7;stroke-linecap:round;stroke-linejoin:round;stroke-miterlimit:3;stroke:#000000;stroke-opacity:0.4" d="M9 -2.8L11.55 -3.3" />
<path style="fill:none;stroke-width:0.7;stroke-linecap:round;stroke-linejoin:round;stroke-miterlimit:3;stroke:#000000;stroke-opacity:0.4" d="M-2.95 -1.65Q-1.7 0.8 1.35 1.75L2.65 0.5L4.2 -0.65" />
<path style="fill:none;stroke-width:0.7;stroke-linecap:round;stroke-linejoin:round;stroke-miterlimit:3;stroke:#000000;stroke-opacity:0.4" d="M-8.4 -11.85Q-9.7 -14.9 -6.9 -17.9Q-5 -19.55 -3.1 -20.3Q0 -21.45 3.2 -20.2" />
<path style="fill:none;stroke-width:0.7;stroke-linecap:round;stroke-linejoin:round;stroke-miterlimit:3;stroke:#000000;stroke-opacity:0.4" d="M-0.2 3.65L1.35 1.75" />
</g>
<g id="PathID_597" transform="matrix(1, 0, 0, 1, 15.15, 24.2)">
<path style="fill:#432800;fill-opacity:1" d="M15 0Q21.2 0 25.6 4.4Q30 8.8 30 15Q30 21.2 25.6 25.6Q21.2 30 15 30Q8.8 30 4.4 25.6Q0 21.2 0 15Q0 8.8 4.4 4.4Q8.8 0 15 0" />
</g>
<g id="PathID_598" transform="matrix(1, 0, 0, 1, 15.15, 24.2)">
<radialGradient
id="RadialGradID_381" gradientUnits="userSpaceOnUse" gradientTransform="matrix(0.0258484, 0, 0, 0.0258484, 11.65, 8.9)" spreadMethod ="pad" cx="0" cy="0" r="819.2" fx="0" fy="0" >
<stop  offset="0"  style="stop-color:#FAE2D7;stop-opacity:1" />
<stop  offset="0.945098"  style="stop-color:#8C4500;stop-opacity:1" />
</radialGradient>
<path style="fill:url(#RadialGradID_381) " d="M15.05 1.6Q20.6 1.6 24.5 5.5Q28.4 9.4 28.4 14.95Q28.4 20.45 24.5 24.35Q20.6 28.3 15.05 28.3Q9.55 28.3 5.65 24.35Q1.75 20.45 1.75 14.95Q1.75 9.4 5.65 5.5Q9.55 1.6 15.05 1.6" />
<path style="fill:none;stroke-width:2;stroke-linecap:round;stroke-linejoin:round;stroke-miterlimit:3;stroke:#FFFFFF;stroke-opacity:1" d="M15.05 1.6Q20.6 1.6 24.5 5.5Q28.4 9.4 28.4 14.95Q28.4 20.45 24.5 24.35Q20.6 28.3 15.05 28.3Q9.55 28.3 5.65 24.35Q1.75 20.45 1.75 14.95Q1.75 9.4 5.65 5.5Q9.55 1.6 15.05 1.6z" />
</g>
<g id="PathID_599" transform="matrix(1, 0, 0, 1, 15.15, 24.2)">
<path style="fill:#D7998A;fill-opacity:1" d="M-7.55 9.35L-6.6 8.8L-5.3 8.6Q-4.85 8.6 -4 9.55Q-3.15 10.45 -1.85 10.45Q-0.75 10.45 0.35 9.75Q1.5 9.05 2.75 9.05Q3.55 9.05 4.55 9.9Q5.6 10.75 6.6 10.75L7.9 10.55L7.75 11.9L6.6 12.05Q5.6 12.05 4.55 11.2Q3.55 10.3 2.75 10.3Q1.5 10.3 0.35 11.05Q-0.75 11.75 -1.85 11.75Q-3.15 11.75 -4 10.8Q-4.85 9.9 -5.3 9.9L-6.6 10.1L-7.6 10.65L-7.55 9.35" />
<path style="fill:#682F26;fill-opacity:1" d="M7.5 12.7Q-0.65 13.15 -7.55 11.5L-7.6 10.65L-6.6 10.1L-5.3 9.9Q-4.85 9.9 -4 10.8Q-3.15 11.75 -1.85 11.75Q-0.75 11.75 0.35 11.05Q1.5 10.3 2.75 10.3Q3.55 10.3 4.55 11.2Q5.6 12.05 6.6 12.05L7.75 11.9L7.5 12.7M-7.3 7.1Q-1.3 8.7 7.5 8.4Q7.9 9.4 7.9 10.55L6.6 10.75Q5.6 10.75 4.55 9.9Q3.55 9.05 2.75 9.05Q1.5 9.05 0.35 9.75Q-0.75 10.45 -1.85 10.45Q-3.15 10.45 -4 9.55Q-4.85 8.6 -5.3 8.6L-6.6 8.8L-7.55 9.35L-7.3 7.1" />
<path style="fill:#4D1C15;fill-opacity:1" d="M-6.8 5.2Q-4.85 6 2.7 6.45Q10.1 6.9 10.25 6.4Q10.55 10.4 9.2 13.8Q0.45 14.75 -7.4 12.85L-7.55 11.5Q-0.65 13.15 7.5 12.7L7.75 11.9L7.9 10.55Q7.9 9.4 7.5 8.4Q-1.3 8.7 -7.3 7.1L-6.8 5.2" />
<path style="fill:#944934;fill-opacity:1" d="M10.25 6.4Q10.1 6.9 2.7 6.45Q-4.85 6 -6.8 5.2Q-1.75 4 3.05 3.45Q8.95 4.6 10.25 6.4" />
<path style="fill:none;stroke-width:0.7;stroke-linecap:round;stroke-linejoin:round;stroke-miterlimit:3;stroke:#000000;stroke-opacity:0.4" d="M7.75 11.9L7.9 10.55" />
<path style="fill:none;stroke-width:0.7;stroke-linecap:round;stroke-linejoin:round;stroke-miterlimit:3;stroke:#000000;stroke-opacity:0.4" d="M-7.55 9.35L-7.6 10.65L-7.55 11.5Q-0.65 13.15 7.5 12.7L7.75 11.9" />
<path style="fill:none;stroke-width:0.7;stroke-linecap:round;stroke-linejoin:round;stroke-miterlimit:3;stroke:#000000;stroke-opacity:0.4" d="M-7.3 7.1Q-1.3 8.7 7.5 8.4Q7.9 9.4 7.9 10.55" />
<path style="fill:none;stroke-width:0.7;stroke-linecap:round;stroke-linejoin:round;stroke-miterlimit:3;stroke:#000000;stroke-opacity:0.4" d="M10.25 6.4Q10.1 6.9 2.7 6.45Q-4.85 6 -6.8 5.2L-7.3 7.1L-7.55 9.35" />
<path style="fill:none;stroke-width:0.7;stroke-linecap:round;stroke-linejoin:round;stroke-miterlimit:3;stroke:#000000;stroke-opacity:0.4" d="M-6.8 5.2Q-1.75 4 3.05 3.45Q8.95 4.6 10.25 6.4Q10.55 10.4 9.2 13.8Q0.45 14.75 -7.4 12.85L-7.55 11.5" />
</g>
<g id="PathID_600" transform="matrix(1, 0, 0, 1, 15.15, 24.2)">
<path style="fill:#87E350;fill-opacity:1" d="M-0.8 0.55Q-1.25 0.7 -1.5 1.05Q-2.1 -0.05 -0.7 -0.7L-0.05 -0.7Q-0.15 -0.2 -0.8 0.55" />
<path style="fill:#7E1420;fill-opacity:1" d="M3.25 5.05Q2.5 5.6 0.35 5.65Q-1.45 4.8 -1.25 3.45Q-0.8 5.1 1.25 4.65Q3.2 4.1 3.75 2L4.4 2.8Q4.2 4.45 3.25 5.05" />
<path style="fill:#C1182B;fill-opacity:1" d="M-1.25 3.45L-1.1 3Q-0.5 1.35 1.1 1.75L1.1 2.9Q1.25 2.35 1.8 1.9L3.75 2Q3.2 4.1 1.25 4.65Q-0.8 5.1 -1.25 3.45M-0.3 3.5Q0.25 3.5 0.5 3.15L0.65 2.65Q0.65 2 0.05 2.15Q-0.6 2.35 -0.6 3.15L-0.6 3.35L-0.3 3.5M2.15 2.6L2.2 2.75L2.5 2.9L2.85 2.6Q2.85 2.25 2.5 2.25Q2.15 2.25 2.15 2.6" />
<path style="fill:#FFD7DB;fill-opacity:1" d="M-0.6 3.35L-0.6 3.15Q-0.6 2.35 0.05 2.15Q0.65 2 0.65 2.65L0.5 3.15Q0.25 3.5 -0.3 3.5L-0.6 3.35M2.5 2.25Q2.85 2.25 2.85 2.6L2.5 2.9L2.2 2.75L2.15 2.6Q2.15 2.25 2.5 2.25" />
<path style="fill:#399737;fill-opacity:1" d="M1.1 2.9L1.1 1.75Q1.15 0.55 0.15 0.35L-0.8 0.55Q-0.15 -0.2 -0.05 -0.7Q1.9 -0.7 1.8 1.9Q1.25 2.35 1.1 2.9" />
<path style="fill:#B4666F;fill-opacity:1" d="M4.4 2.8Q4.9 4.7 3.25 5.65Q1.65 6 0.35 5.65Q2.5 5.6 3.25 5.05Q4.2 4.45 4.4 2.8" />
<path style="fill:none;stroke-width:0.7;stroke-linecap:round;stroke-linejoin:round;stroke-miterlimit:3;stroke:#000000;stroke-opacity:0.4" d="M-0.8 0.55Q-1.25 0.7 -1.5 1.05Q-2.1 -0.05 -0.7 -0.7L-0.05 -0.7Q1.9 -0.7 1.8 1.9L3.75 2L4.4 2.8Q4.9 4.7 3.25 5.65Q1.65 6 0.35 5.65Q-1.45 4.8 -1.25 3.45L-1.1 3Q-0.5 1.35 1.1 1.75Q1.15 0.55 0.15 0.35L-0.8 0.55z" />
<path style="fill:none;stroke-width:0.7;stroke-linecap:round;stroke-linejoin:round;stroke-miterlimit:3;stroke:#000000;stroke-opacity:0.4" d="M1.1 1.75L1.1 2.9Q1.25 2.35 1.8 1.9" />
</g>
<g id="PathID_601" transform="matrix(1, 0, 0, 1, 15.15, 24.2)">
<path style="fill:none;stroke-width:0.7;stroke-linecap:round;stroke-linejoin:round;stroke-miterlimit:3;stroke:#C9C9C9;stroke-opacity:0.6" d="M16.55 -3.95Q17.65 -6.15 18 -8.9Q18.95 -13.5 22.4 -15.5Q20.15 -15.95 18.2 -14.7Q15.25 -12.85 15.85 -7.75L16.05 -5.9L16 -4.25" />
<path style="fill:none;stroke-width:0.7;stroke-linecap:round;stroke-linejoin:round;stroke-miterlimit:3;stroke:#C9C9C9;stroke-opacity:0.6" d="M17.15 -3.7Q17.5 -4.45 18.4 -5.2L20.2 -6.8Q22.2 -8.55 23.15 -10.7Q23.95 -12.4 23.8 -14.7" />
<path style="fill:none;stroke-width:0.7;stroke-linecap:round;stroke-linejoin:round;stroke-miterlimit:3;stroke:#C9C9C9;stroke-opacity:0.6" d="M18.25 -2.7Q19.4 -3.95 21.3 -4.45Q24.55 -5.35 25.85 -7.85Q27.55 -10.9 24.75 -14.3Q25.95 -11.7 24.2 -8.75Q22.65 -6.55 20.35 -5.2Q18.85 -4.6 17.8 -3.25" />
</g>
<g id="PathID_602" transform="matrix(1, 0, 0, 1, 15.15, 24.2)">
<path style="fill:#37AF33;fill-opacity:1" d="M14.4 -0.85Q14.5 0.2 14.75 1.15L14.8 1.25L14.85 1.9Q14.4 4.05 13.6 4.7Q13.3 3 12.8 2.2Q12.95 3.8 12.75 4.95L12.25 -0.1L13.6 -1.45L14.25 -2.05Q14.85 -2.2 15.5 -1.45L14.4 -0.85M12.75 4.95Q11.3 7 10.4 7.2Q8.7 6.6 8.35 5.65Q8.35 3.95 10.95 1.35L12.25 -0.1L12.8 2.2M15.5 -1.45Q15.6 -0.3 15.3 0.45L14.4 -0.85L14.25 -2.05M11.85 4.35Q12.35 2.45 10.9 3.05Q9.55 4.1 9.9 5.55Q9.95 5.9 10.25 6L11 5.85L11.65 5.15L11.85 4.35" />
<path style="fill:#E0B779;fill-opacity:1" d="M14.3 -3.2Q14.1 -4.7 16 -4.25Q15.6 -3.1 16.3 -2.55L16.85 -1.95Q16.55 -0.8 15.5 -1.45Q14.85 -2.2 14.25 -2.05L13.6 -1.45Q12.95 -2.6 14.3 -3.2M16 -4.25L16.55 -3.95L17.15 -3.7L17.8 -3.25L18.15 -2.85Q17.75 -1.95 16.3 -2.55Q15.6 -3.1 14.3 -3.2" />
<path style="fill:#9F7C48;fill-opacity:1" d="M18.15 -2.85L18.25 -2.7L18.55 -1.75Q18.65 -0.6 17.3 -1.05Q17.65 0.7 15.95 0.05L16.1 -0.65L15.5 -1.45Q16.55 -0.8 16.85 -1.95L16.3 -2.55Q17.75 -1.95 18.15 -2.85M17.3 -1.05L16.85 -1.95L17.3 -1.05" />
<path style="fill:#1C8018;fill-opacity:1" d="M10.4 7.2Q11.3 7 12.75 4.95L12.55 5.65Q12.25 7 11.4 8Q12.25 7 12.55 5.65L12.75 4.95Q12.95 3.8 12.8 2.2Q13.3 3 13.6 4.7Q14.4 4.05 14.85 1.9L14.8 1.25L14.75 1.15Q14.5 0.2 14.4 -0.85L15.3 0.45Q15.6 -0.3 15.5 -1.45L16.1 -0.65L15.95 0.05Q15.45 2.45 14.25 4.7L14.1 5L13.5 6.1Q12.5 7.7 11.4 8Q10.3 8.25 9.15 7.25Q8.3 6.6 8.35 5.65Q8.7 6.6 10.4 7.2M10.9 3.05Q12.35 2.45 11.85 4.35L11.5 3.85L10.8 4.05Q10.3 4.3 10.1 4.75L9.9 5.55Q9.55 4.1 10.9 3.05M14.25 4.7Q14.95 3.2 14.85 1.9Q14.95 3.2 14.25 4.7" />
<path style="fill:none;stroke-width:0.7;stroke-linecap:round;stroke-linejoin:round;stroke-miterlimit:3;stroke:#000000;stroke-opacity:0.4" d="M14.25 -2.05L13.6 -1.45L12.25 -0.1" />
<path style="fill:none;stroke-width:0.7;stroke-linecap:round;stroke-linejoin:round;stroke-miterlimit:3;stroke:#000000;stroke-opacity:0.2" d="M12.25 -0.1L12.8 2.2" />
<path style="fill:none;stroke-width:0.7;stroke-linecap:round;stroke-linejoin:round;stroke-miterlimit:3;stroke:#000000;stroke-opacity:0.2" d="M14.85 1.9L14.8 1.25L14.75 1.15Q14.5 0.2 14.4 -0.85L14.25 -2.05" />
<path style="fill:none;stroke-width:0.7;stroke-linecap:round;stroke-linejoin:round;stroke-miterlimit:3;stroke:#000000;stroke-opacity:0.4" d="M14.25 -2.05Q14.85 -2.2 15.5 -1.45" />
<path style="fill:none;stroke-width:0.7;stroke-linecap:round;stroke-linejoin:round;stroke-miterlimit:3;stroke:#000000;stroke-opacity:0.4" d="M16.85 -1.95L16.3 -2.55Q15.6 -3.1 14.3 -3.2Q12.95 -2.6 13.6 -1.45" />
<path style="fill:none;stroke-width:0.7;stroke-linecap:round;stroke-linejoin:round;stroke-miterlimit:3;stroke:#000000;stroke-opacity:0.4" d="M14.3 -3.2Q14.1 -4.7 16 -4.25L16.55 -3.95L17.15 -3.7L17.8 -3.25L18.15 -2.85L18.25 -2.7L18.55 -1.75Q18.65 -0.6 17.3 -1.05Q17.65 0.7 15.95 0.05Q15.45 2.45 14.25 4.7L14.1 5L13.5 6.1Q12.5 7.7 11.4 8Q10.3 8.25 9.15 7.25Q8.3 6.6 8.35 5.65Q8.35 3.95 10.95 1.35L12.25 -0.1" />
<path style="fill:none;stroke-width:0.7;stroke-linecap:round;stroke-linejoin:round;stroke-miterlimit:3;stroke:#000000;stroke-opacity:0.4" d="M16.85 -1.95L17.3 -1.05" />
<path style="fill:none;stroke-width:0.7;stroke-linecap:round;stroke-linejoin:round;stroke-miterlimit:3;stroke:#000000;stroke-opacity:0.4" d="M15.5 -1.45L16.1 -0.65L15.95 0.05" />
<path style="fill:none;stroke-width:0.7;stroke-linecap:round;stroke-linejoin:round;stroke-miterlimit:3;stroke:#000000;stroke-opacity:0.4" d="M9.9 5.55L10.1 4.75Q10.3 4.3 10.8 4.05L11.5 3.85L11.85 4.35" />
<path style="fill:none;stroke-width:0.7;stroke-linecap:round;stroke-linejoin:round;stroke-miterlimit:3;stroke:#000000;stroke-opacity:0.4" d="M9.9 5.55Q9.95 5.9 10.25 6L11 5.85L11.65 5.15L11.85 4.35" />
<path style="fill:none;stroke-width:0.7;stroke-linecap:round;stroke-linejoin:round;stroke-miterlimit:3;stroke:#000000;stroke-opacity:0.2" d="M14.85 1.9Q14.95 3.2 14.25 4.7" />
<path style="fill:none;stroke-width:0.7;stroke-linecap:round;stroke-linejoin:round;stroke-miterlimit:3;stroke:#000000;stroke-opacity:0.2" d="M12.8 2.2Q12.95 3.8 12.75 4.95L12.55 5.65Q12.25 7 11.4 8" />
</g>
<g id="PathID_603" transform="matrix(1, 0, 0, 1, 15.15, 24.2)">
<path style="fill:#8A8A8A;fill-opacity:1" d="M23.55 -13.8Q20.35 -15.05 21.7 -15.7Q21.9 -15.9 23.95 -15.1Q26.2 -13.65 23.55 -13.8" />
</g>
<g id="PathID_604" transform="matrix(1, 0, 0, 1, 15.15, 24.2)">
<path style="fill:#4F2C24;fill-opacity:1" d="M-5.75 20.2L-3.45 15.55L-2.35 17.3L-4.45 21.95L-5.75 20.2" />
<path style="fill:#834D41;fill-opacity:1" d="M-10.35 22.2Q-10.2 19.7 -8.95 17.4Q-6.3 15.9 -3.45 15.55L-5.75 20.2L-10.35 22.2M-6.3 17.25L-4.9 16.35L-6.45 16.8L-7.9 17.25Q-8.4 17.4 -8.65 17.75L-9 18.3L-9.4 19.7L-9.7 20.7L-8.65 19.25L-7.5 17.95L-6.3 17.25" />
<path style="fill:#E0917F;fill-opacity:1" d="M-7.5 17.95L-8.65 19.25L-9.7 20.7L-9.4 19.7L-9 18.3L-8.65 17.75Q-8.4 17.4 -7.9 17.25L-6.45 16.8L-4.9 16.35L-6.3 17.25L-7.5 17.95" />
<path style="fill:#351D18;fill-opacity:1" d="M-5.75 20.2L-4.45 21.95L-8.95 23.8L-10.35 22.2L-5.75 20.2" />
<path style="fill:none;stroke-width:0.7;stroke-linecap:round;stroke-linejoin:round;stroke-miterlimit:3;stroke:#000000;stroke-opacity:0.4" d="M-4.45 21.95L-2.35 17.3L-3.45 15.55" />
<path style="fill:none;stroke-width:0.7;stroke-linecap:round;stroke-linejoin:round;stroke-miterlimit:3;stroke:#000000;stroke-opacity:0.4" d="M-4.45 21.95L-8.95 23.8L-10.35 22.2Q-10.2 19.7 -8.95 17.4Q-6.3 15.9 -3.45 15.55" />
</g>
<g id="PathID_605" transform="matrix(1, 0, 0, 1, 15.15, 24.2)">
<path style="fill:#834D41;fill-opacity:1" d="M2.6 27.15Q0.5 26.15 -0.6 24.9Q0.4 22.9 2.2 20.8Q4.35 21.65 5.9 22.9Q4.3 24.7 2.6 27.15M2.7 21.45Q2.35 21.45 1.45 22.55Q0.6 23.55 0.2 24.65L2.85 22.9Q5.35 23.1 4.65 22.65Q3.25 21.45 2.7 21.45" />
<path style="fill:#4F2C24;fill-opacity:1" d="M2.6 27.15Q4.3 24.7 5.9 22.9L5.85 24.65L3.15 28.55L2.6 27.15" />
<path style="fill:#E0917F;fill-opacity:1" d="M4.65 22.65Q5.35 23.1 2.85 22.9L0.2 24.65Q0.6 23.55 1.45 22.55Q2.35 21.45 2.7 21.45Q3.25 21.45 4.65 22.65" />
<path style="fill:#351D18;fill-opacity:1" d="M3.15 28.55Q0.35 26.8 -0.6 24.9Q0.5 26.15 2.6 27.15L3.15 28.55" />
<path style="fill:none;stroke-width:0.7;stroke-linecap:round;stroke-linejoin:round;stroke-miterlimit:3;stroke:#000000;stroke-opacity:0.4" d="M5.9 22.9Q4.35 21.65 2.2 20.8Q0.4 22.9 -0.6 24.9" />
<path style="fill:none;stroke-width:0.7;stroke-linecap:round;stroke-linejoin:round;stroke-miterlimit:3;stroke:#000000;stroke-opacity:0.4" d="M5.9 22.9L5.85 24.65L3.15 28.55Q0.35 26.8 -0.6 24.9" />
</g>
<g id="PathID_606" transform="matrix(1, 0, 0, 1, 15.15, 24.2)">
<path style="fill:#4F2C24;fill-opacity:1" d="M-10.3 5.2L-9.15 4L-9.2 5.45L-9.85 7.1L-10.3 5.2" />
<path style="fill:#834D41;fill-opacity:1" d="M-15.15 6.9L-12.9 5.2L-9.15 4L-10.3 5.2L-15.15 6.9" />
<path style="fill:#351D18;fill-opacity:1" d="M-10.3 5.2L-9.85 7.1L-14.85 8.25L-15.15 6.9L-10.3 5.2" />
<path style="fill:none;stroke-width:0.7;stroke-linecap:round;stroke-linejoin:round;stroke-miterlimit:3;stroke:#000000;stroke-opacity:0.4" d="M-9.15 4L-9.2 5.45L-9.85 7.1L-14.85 8.25L-15.15 6.9L-12.9 5.2L-9.15 4z" />
</g>
<g id="PathID_607" transform="matrix(1, 0, 0, 1, 15.15, 24.2)">
<path style="fill:#F2F2F2;fill-opacity:0.4" d="M19.1 -15.35Q14.9 -17.65 9.45 -19.25Q15.1 -17.85 19.2 -17.5Q19.7 -18.55 20.6 -19.1L22.9 -19.15Q23.45 -19 23.5 -18.75L28.35 -24.2Q25.85 -21.1 24.35 -18L24.55 -17.55Q25.25 -16.3 24.7 -15.4L27.15 -13.6L23.95 -14L23 -13.65L21 -13.6Q19.85 -13.85 19.25 -15.25L19.1 -15.35M23.55 -16.6L22.75 -17.5L21.75 -17.3Q21.25 -17.2 21.05 -16.8Q21.05 -16.1 21.2 -15.6Q21.35 -15.1 21.9 -15.05Q22.35 -14.9 22.85 -15.05Q23.25 -15.3 23.35 -15.95Q23.7 -16.05 23.55 -16.6" />
<path style="fill:#F2F2F2;fill-opacity:0.8" d="M23.35 -15.95Q23.25 -15.3 22.85 -15.05Q22.35 -14.9 21.9 -15.05Q21.35 -15.1 21.2 -15.6Q21.05 -16.1 21.05 -16.8Q21.25 -17.2 21.75 -17.3L22.75 -17.5L23.55 -16.6Q23.7 -16.05 23.35 -15.95" />
</g>
</svg>
