<?xml version="1.0" encoding="utf-8"?>
<svg version="1.1" id="Layer_1"
xmlns="http://www.w3.org/2000/svg"
xmlns:xlink="http://www.w3.org/1999/xlink"
width="55px" height="56px"
xml:space="preserve">
<g id="PathID_629" transform="matrix(1, 0, 0, 1, 14.65, 25.45)">
<path style="fill:#916B4A;fill-opacity:1" d="M7.45 -14.1L6.95 -15.15L6.75 -15.7L6.35 -16.9L6.25 -17.3L6.2 -17.6Q5.85 -19.15 6.3 -19.9Q6.75 -20.65 8.65 -20.15Q10.5 -19.65 12.45 -18.1Q14.35 -16.6 14.05 -15.9L12.45 -12.55Q11.1 -10 10.7 -9.8L9 -11.35L8.95 -11.4L7.45 -14.1" />
<path style="fill:none;stroke-width:0.7;stroke-linecap:round;stroke-linejoin:round;stroke-miterlimit:3;stroke:#000000;stroke-opacity:0.301961" d="M8.95 -11.4L9 -11.35L10.7 -9.8Q11.1 -10 12.45 -12.55L14.05 -15.9Q14.35 -16.6 12.45 -18.1Q10.5 -19.65 8.65 -20.15Q6.75 -20.65 6.3 -19.9Q5.85 -19.15 6.2 -17.6L6.25 -17.3L6.35 -16.9L6.75 -15.7L6.95 -15.15L7.45 -14.1" />
</g>
<g id="PathID_630" transform="matrix(1, 0, 0, 1, 14.65, 25.45)">
<path style="fill:#B6811C;fill-opacity:1" d="M7.8 -18.5Q9.4 -16.35 9.25 -16.1L8.4 -15.5L6.9 -14.85Q6.2 -14.6 5.6 -17.4Q6.45 -18.4 7.8 -18.5" />
<path style="fill:none;stroke-width:0.7;stroke-linecap:round;stroke-linejoin:round;stroke-miterlimit:3;stroke:#000000;stroke-opacity:0.4" d="M5.6 -17.4Q6.2 -14.6 6.9 -14.85L8.4 -15.5L9.25 -16.1Q9.4 -16.35 7.8 -18.5Q6.45 -18.4 5.6 -17.4z" />
</g>
<g id="PathID_631" transform="matrix(1, 0, 0, 1, 14.65, 25.45)">
<path style="fill:#834000;fill-opacity:1" d="M27.7 -7.1Q30.1 -6.7 31.65 -5.65Q33.95 -4 34.15 -0.7Q31.75 3.2 27.35 3.95Q26 -2.2 22.15 -6.1L26.75 -7.35L27.7 -7.1M34.15 -0.7Q33.5 1.35 30.35 3.7Q29.1 4.6 27.65 5.2L27.35 3.95Q31.75 3.2 31.65 -5.65" />
<path style="fill:#C26A00;fill-opacity:1" d="M34.15 -0.7Q35 -2.65 34.9 -4.6Q33.75 -9.65 27.85 -10.45Q33.75 -9.65 34.9 -4.6Q35 -2.65 34.15 -0.7Q33.95 -4 31.65 -5.65Q30.1 -6.7 27.7 -7.1L26.75 -7.35L27.9 -12.65L32.65 -10.3Q37.4 -8.7 36.45 -1.8Q34.55 1.95 30.35 3.7Q33.5 1.35 34.15 -0.7" />
<path style="fill:none;stroke-width:0.7;stroke-linecap:round;stroke-linejoin:round;stroke-miterlimit:3;stroke:#000000;stroke-opacity:0.4" d="M26.75 -7.35L22.15 -6.1Q26 -2.2 27.35 3.95" />
<path style="fill:none;stroke-width:0.7;stroke-linecap:round;stroke-linejoin:round;stroke-miterlimit:3;stroke:#000000;stroke-opacity:0.2" d="M27.35 3.95Q31.75 3.2 31.65 -5.65" />
<path style="fill:none;stroke-width:0.7;stroke-linecap:round;stroke-linejoin:round;stroke-miterlimit:3;stroke:#000000;stroke-opacity:0.4" d="M31.65 -5.65Q30.1 -6.7 27.7 -7.1L26.75 -7.35L27.9 -12.65L32.65 -10.3Q37.4 -8.7 36.45 -1.8Q34.55 1.95 30.35 3.7Q29.1 4.6 27.65 5.2L27.35 3.95" />
<path style="fill:none;stroke-width:0.7;stroke-linecap:round;stroke-linejoin:round;stroke-miterlimit:3;stroke:#000000;stroke-opacity:0.4" d="M31.65 -5.65Q33.95 -4 34.15 -0.7" />
<path style="fill:none;stroke-width:0.7;stroke-linecap:round;stroke-linejoin:round;stroke-miterlimit:3;stroke:#000000;stroke-opacity:0.2" d="M34.15 -0.7Q35 -2.65 34.9 -4.6Q33.75 -9.65 27.85 -10.45" />
<path style="fill:none;stroke-width:0.7;stroke-linecap:round;stroke-linejoin:round;stroke-miterlimit:3;stroke:#000000;stroke-opacity:0.4" d="M30.35 3.7Q33.5 1.35 34.15 -0.7" />
</g>
<g id="PathID_632" transform="matrix(1, 0, 0, 1, 14.65, 25.45)">
<path style="fill:#6B4B30;fill-opacity:1" d="M24 -2.15L20.4 2.1L16.4 0.9L14.4 -2Q17 -2.4 18.9 -3.55L20.4 -4.7L21.9 -6.5Q23.45 -4.35 24 -2.15" />
<path style="fill:none;stroke-width:0.7;stroke-linecap:round;stroke-linejoin:round;stroke-miterlimit:3;stroke:#000000;stroke-opacity:0.4" d="M24 -2.15L20.4 2.1L16.4 0.9L14.4 -2Q17 -2.4 18.9 -3.55L20.4 -4.7L21.9 -6.5Q23.45 -4.35 24 -2.15z" />
</g>
<g id="PathID_633" transform="matrix(1, 0, 0, 1, 14.65, 25.45)">
<path style="fill:#4EB7BA;fill-opacity:1" d="M20.75 3.2L19.85 1.75Q22.35 -0.2 23.55 -3.6L25 -3.1Q23.35 1.55 20.75 3.2" />
<path style="fill:#FFE15B;fill-opacity:1" d="M22.3 4.15L21.7 4.65L20.75 3.2Q23.35 1.55 25 -3.1L25.8 -1.6Q24.7 2 22.3 4.15" />
<path style="fill:#EAF0F0;fill-opacity:1" d="M22.3 4.15Q24.7 2 25.8 -1.6Q27.25 -1.3 27.65 0.5L27.55 1.75Q27.2 4.05 25.85 5.55Q28.6 5.35 27.7 8.05L22.9 5.45L22.3 4.15M25.85 5.55Q27.2 4.05 27.55 1.75" />
<path style="fill:none;stroke-width:0.7;stroke-linecap:round;stroke-linejoin:round;stroke-miterlimit:3;stroke:#000000;stroke-opacity:0.4" d="M25 -3.1L25.8 -1.6Q27.25 -1.3 27.65 0.5L27.55 1.75Q28.6 5.35 27.7 8.05L27.55 8.4" />
<path style="fill:none;stroke-width:0.7;stroke-linecap:round;stroke-linejoin:round;stroke-miterlimit:3;stroke:#000000;stroke-opacity:0.4" d="M20.75 3.2L19.85 1.75Q22.35 -0.2 23.55 -3.6L25 -3.1" />
<path style="fill:none;stroke-width:0.7;stroke-linecap:round;stroke-linejoin:round;stroke-miterlimit:3;stroke:#000000;stroke-opacity:0.4" d="M20.75 3.2L21.7 4.65L22.3 4.15Q24.7 2 25.8 -1.6" />
<path style="fill:none;stroke-width:0.7;stroke-linecap:round;stroke-linejoin:round;stroke-miterlimit:3;stroke:#000000;stroke-opacity:0.4" d="M27.7 8.05L22.9 5.45L22.3 4.15" />
<path style="fill:none;stroke-width:0.7;stroke-linecap:round;stroke-linejoin:round;stroke-miterlimit:3;stroke:#000000;stroke-opacity:0.4" d="M27.55 1.75Q27.2 4.05 25.85 5.55" />
</g>
<g id="PathID_634" transform="matrix(1, 0, 0, 1, 14.65, 25.45)">
<path style="fill:#1AA9A5;fill-opacity:1" d="M10.4 1.2L10.25 1.25L9.65 1.4L9.5 1.35L9.1 1.25L8.85 0.65L8.9 0.6L9 0.6L9.35 0.2L9.4 -0.05L9.6 0.05L10.05 -0.2L10.15 -0.3L10.3 -0.3L10.75 -0.05L10.75 0.4L10.75 0.5L10.4 1.2M10.25 0.35L9.9 0.45L9.6 0.8Q9.55 1.15 9.85 1.2L10.5 0.8Q10.6 0.35 10.25 0.35" />
<path style="fill:#FA9C29;fill-opacity:1" d="M10.25 1.25L10.4 1.2L10.75 0.5L11.3 0.45L11.7 0.35L11.2 0.75L11.15 0.8L11.95 1L12.75 0.85L13.3 0.6L13.3 0.9Q12.6 2.4 11.55 2.7Q10.9 2.45 10.25 1.25" />
<path style="fill:#76FAE2;fill-opacity:1" d="M10.5 0.8L9.85 1.2Q9.55 1.15 9.6 0.8L9.9 0.45L10.25 0.35Q10.6 0.35 10.5 0.8" />
<path style="fill:#C26A00;fill-opacity:1" d="M11.55 2.7L10.8 2.8Q10.45 2.75 10.25 2.2L10.2 2.2L10.15 2.5L10.15 2.9L10.15 3L9.6 2.3L9.45 1.55L9.5 1.35L9.65 1.4L10.25 1.25Q10.9 2.45 11.55 2.7" />
<path style="fill:none;stroke-width:0.7;stroke-linecap:round;stroke-linejoin:round;stroke-miterlimit:3;stroke:#2E0C00;stroke-opacity:0.4" d="M10.75 0.5L10.75 0.4L10.75 -0.05L10.3 -0.3L10.15 -0.3L10.05 -0.2L9.6 0.05L9.4 -0.05L9.35 0.2L9 0.6L8.9 0.6L8.85 0.65L9.1 1.25L9.5 1.35L9.65 1.4L10.25 1.25L10.4 1.2L10.75 0.5L11.3 0.45L11.7 0.35L11.2 0.75L11.15 0.8L11.95 1L12.75 0.85L13.3 0.6L13.3 0.9Q12.6 2.4 11.55 2.7L10.8 2.8Q10.45 2.75 10.25 2.2L10.2 2.2L10.15 2.5L10.15 2.9L10.15 3L9.6 2.3L9.45 1.55L9.5 1.35" />
</g>
<g id="PathID_635" transform="matrix(1, 0, 0, 1, 14.65, 25.45)">
<path style="fill:#C26A00;fill-opacity:1" d="M10.95 -9L11.2 -8.8L11.15 -8.55L11.2 -8.2L10.3 -7.7L9.75 -7.15L9.55 -7.5Q9.5 -8.3 10 -8.8L10.8 -9.2L10.75 -9.4L10.95 -9M10.75 -9.4L10.9 -10.1Q11.05 -10.65 11.5 -10.85Q12.3 -11.2 12.7 -10.85L12.8 -10.95L13.3 -11.45Q14.05 -11.75 14.4 -11.1L14.45 -11.25L14.8 -11.75L15.55 -11.95Q16 -12 16.1 -11.4L16.2 -10.85L15.85 -10.3L16.35 -9.45Q16.5 -8.65 15.75 -8.3L14.8 -8.4Q14.55 -8.65 14.45 -9.05L14.05 -8.5Q13.7 -8.4 13.15 -8.9L12.95 -9.15L12.65 -9.8L12.65 -9.95L12.85 -10.35L12.65 -9.95L12.3 -9.9L11.6 -9.45L11.2 -8.85L11.2 -8.8L10.95 -9L10.8 -9.2M8.5 -1.6Q8.2 -1.5 8.3 -1.2L8.4 -0.95L8.55 -0.95L8.7 -1.1L8.75 -1L8.8 -0.65L9 -0.2Q9.15 0 9.35 0L9.4 0.35L9.15 1.05L9.1 1.1L9.05 1.15L9 1.15L8.95 1.2L8.45 0.85L8.2 0.1Q8.15 -0.15 8.25 -0.2L8.45 -0.6L8.25 -0.65L8 -1.35L8.15 -1.8L8.35 -2.2Q8.05 -2.25 7.95 -2.8Q7.8 -4 8.55 -4.3L8.35 -4.9Q8.25 -5.55 8.7 -6.15L9.35 -6.7L9.6 -6.7L9.6 -6.35L9.7 -6.1Q9.05 -5.1 9.1 -4.65L9.15 -4.3L9.35 -4.05L8.8 -3.4Q8.5 -3 8.55 -2.5L8.65 -2.2Q8.45 -2.05 8.35 -2.2Q8.45 -2.05 8.65 -2.2L8.95 -1.8L8.8 -1.5L8.75 -1.35L8.5 -1.6M8.9 -5.8L8.7 -5.55L8.6 -5.05Q8.6 -4.7 8.85 -4.8L9.1 -5.45Q9.15 -5.95 8.9 -5.8M8.5 -3.15L8.75 -3.55Q8.7 -3.9 8.45 -3.75Q8.15 -3.7 8.2 -3.35Q8.2 -3.05 8.5 -3.15M8.55 -4.3L9.15 -4.3L8.55 -4.3M8.8 -0.65L8.45 -0.6L8.8 -0.65M15.6 -9.9L15.15 -9.85Q14.8 -9.65 14.85 -9.35L15.25 -9.05Q15.6 -8.85 15.75 -8.9Q16.05 -9.1 16 -9.55L15.6 -9.9M14.45 -9.05L14.45 -9.25L14.35 -10L14.55 -10.4L14.75 -10.5L15.75 -10.4L15.85 -10.3L15.75 -10.4L14.75 -10.5L14.55 -10.4L14.35 -10L14.45 -9.25L14.45 -9.05M15.35 -11.6Q15.05 -11.45 15.1 -11.1Q15.1 -10.85 15.5 -10.85Q15.75 -11 15.65 -11.3L15.35 -11.6M13.4 -10.85Q13.45 -10.5 13.85 -10.65Q14.15 -10.8 14.1 -11.15Q14.05 -11.45 13.6 -11.25Q13.35 -11.15 13.4 -10.85M14.35 -10L13.9 -10.45L13.2 -10.55L12.85 -10.35L12.65 -10.65L12.7 -10.85L12.65 -10.65L12.85 -10.35L13.2 -10.55L13.9 -10.45L14.35 -10M13.2 -9.3Q13.25 -9 13.85 -8.8Q14.25 -9 14 -9.55Q13.8 -10 13.5 -9.8L13.3 -9.55L13.2 -9.3M14.55 -10.4Q14.3 -10.4 14.25 -10.7L14.4 -11.1L14.25 -10.7Q14.3 -10.4 14.55 -10.4M11.85 -10.8Q11.25 -10.5 11.35 -10.1L11.45 -9.85L11.6 -9.85Q11.9 -10 12 -10.45Q12.15 -10.9 11.85 -10.8M10.6 -8Q11 -8.15 10.95 -8.55Q10.9 -8.85 10.55 -8.7L10.2 -8.2Q10.2 -7.9 10.6 -8M8.5 0.5L8.8 0.7L8.95 0.3L8.7 0.05Q8.45 0.15 8.5 0.5" />
<path style="fill:#FA9C29;fill-opacity:1" d="M12.65 -9.95L12.65 -9.8L12.95 -9.15Q12.6 -8.1 12 -7.85Q11.7 -7.7 11.45 -7.85L11.55 -7.5L11.05 -6.6L10.4 -6.15L10.65 -5.7Q10.7 -5.05 10.35 -4.6L9.9 -4.2L10.2 -4.1L10.35 -3.6Q10.4 -3.2 10.1 -2.7L9.7 -2.1Q10.15 -2.2 10.25 -1.45L10.05 -0.7L10 -0.55L9.6 0L9.35 0Q9.15 0 9 -0.2L8.8 -0.65L8.75 -1L8.7 -1.1L8.75 -1.35L8.8 -1.5L8.95 -1.8L8.65 -2.2L8.55 -2.5Q8.5 -3 8.8 -3.4L9.35 -4.05L9.65 -4.1L9.9 -4.2L9.65 -4.1L9.35 -4.05L9.15 -4.3L9.1 -4.65Q9.05 -5.1 9.7 -6.1Q9.9 -5.9 10.35 -6.1L10.4 -6.15L10.35 -6.1Q9.9 -5.9 9.7 -6.1L9.6 -6.35L9.6 -6.7L9.75 -7.15L10.3 -7.7L11.2 -8.2L11.15 -8.55L11.2 -8.8L11.2 -8.85L11.6 -9.45L12.3 -9.9L12.65 -9.95M9.1 -5.45L8.85 -4.8Q8.6 -4.7 8.6 -5.05L8.7 -5.55L8.9 -5.8Q9.15 -5.95 9.1 -5.45M9.6 -5.1L9.45 -4.6L9.55 -4.35L9.75 -4.35L10 -4.7L10.15 -5.3Q10.15 -5.55 9.9 -5.45L9.6 -5.1M8.2 -3.35Q8.15 -3.7 8.45 -3.75Q8.7 -3.9 8.75 -3.55L8.5 -3.15Q8.2 -3.05 8.2 -3.35M9.4 -3.1L9.2 -2.5Q9.25 -1.9 9.55 -2.1L9.9 -2.55L10.1 -3.35L9.85 -3.55L9.4 -3.1M9.7 -2.1L9.4 -1.9L8.95 -1.8L9.4 -1.9L9.7 -2.1M8.75 -1.35L8.7 -1.1L8.55 -0.95L8.4 -0.95L8.3 -1.2Q8.2 -1.5 8.5 -1.6L8.75 -1.35M9.65 -1.5Q9.3 -1.35 9.35 -0.95Q9.4 -0.5 9.75 -0.65Q10.15 -0.8 10.05 -1.3Q9.9 -1.6 9.65 -1.5M16 -9.55Q16.05 -9.1 15.75 -8.9Q15.6 -8.85 15.25 -9.05L14.85 -9.35Q14.8 -9.65 15.15 -9.85L15.6 -9.9L16 -9.55M15.65 -11.3Q15.75 -11 15.5 -10.85Q15.1 -10.85 15.1 -11.1Q15.05 -11.45 15.35 -11.6L15.65 -11.3M13.6 -11.25Q14.05 -11.45 14.1 -11.15Q14.15 -10.8 13.85 -10.65Q13.45 -10.5 13.4 -10.85Q13.35 -11.15 13.6 -11.25M13.3 -9.55L13.5 -9.8Q13.8 -10 14 -9.55Q14.25 -9 13.85 -8.8Q13.25 -9 13.2 -9.3L13.3 -9.55M12 -10.45Q11.9 -10 11.6 -9.85L11.45 -9.85L11.35 -10.1Q11.25 -10.5 11.85 -10.8Q12.15 -10.9 12 -10.45M11.8 -8.65Q11.85 -8.3 12.1 -8.4Q12.5 -8.6 12.6 -9.1Q12.7 -9.45 12.3 -9.3L12 -9L11.8 -8.65M10.2 -8.2L10.55 -8.7Q10.9 -8.85 10.95 -8.55Q11 -8.15 10.6 -8Q10.2 -7.9 10.2 -8.2M10.45 -6.6L10.8 -6.95L10.95 -7.5L10.7 -7.7L10.4 -7.3L10.15 -6.85Q10.2 -6.55 10.45 -6.6M11.2 -8.2L11.45 -7.85L11.2 -8.2M8.7 0.05L8.95 0.3L8.8 0.7L8.5 0.5Q8.45 0.15 8.7 0.05" />
<path style="fill:#FFBF43;fill-opacity:1" d="M9.9 -5.45Q10.15 -5.55 10.15 -5.3L10 -4.7L9.75 -4.35L9.55 -4.35L9.45 -4.6L9.6 -5.1L9.9 -5.45M9.85 -3.55L10.1 -3.35L9.9 -2.55L9.55 -2.1Q9.25 -1.9 9.2 -2.5L9.4 -3.1L9.85 -3.55M10.05 -1.3Q10.15 -0.8 9.75 -0.65Q9.4 -0.5 9.35 -0.95Q9.3 -1.35 9.65 -1.5Q9.9 -1.6 10.05 -1.3M12 -9L12.3 -9.3Q12.7 -9.45 12.6 -9.1Q12.5 -8.6 12.1 -8.4Q11.85 -8.3 11.8 -8.65L12 -9M10.15 -6.85L10.4 -7.3L10.7 -7.7L10.95 -7.5L10.8 -6.95L10.45 -6.6Q10.2 -6.55 10.15 -6.85" />
<path style="fill:none;stroke-width:0.7;stroke-linecap:round;stroke-linejoin:round;stroke-miterlimit:3;stroke:#2E0C00;stroke-opacity:0.4" d="M10.8 -9.2L10 -8.8Q9.5 -8.3 9.55 -7.5L9.75 -7.15L10.3 -7.7L11.2 -8.2L11.15 -8.55L11.2 -8.8L10.95 -9L10.8 -9.2L10.75 -9.4L10.9 -10.1Q11.05 -10.65 11.5 -10.85Q12.3 -11.2 12.7 -10.85L12.8 -10.95L13.3 -11.45Q14.05 -11.75 14.4 -11.1L14.45 -11.25L14.8 -11.75L15.55 -11.95Q16 -12 16.1 -11.4L16.2 -10.85L15.85 -10.3L16.35 -9.45Q16.5 -8.65 15.75 -8.3L14.8 -8.4Q14.55 -8.65 14.45 -9.05L14.05 -8.5Q13.7 -8.4 13.15 -8.9L12.95 -9.15Q12.6 -8.1 12 -7.85Q11.7 -7.7 11.45 -7.85L11.55 -7.5L11.05 -6.6L10.4 -6.15L10.65 -5.7Q10.7 -5.05 10.35 -4.6L9.9 -4.2L10.2 -4.1L10.35 -3.6Q10.4 -3.2 10.1 -2.7L9.7 -2.1Q10.15 -2.2 10.25 -1.45L10.05 -0.7" />
<path style="fill:none;stroke-width:0.7;stroke-linecap:round;stroke-linejoin:round;stroke-miterlimit:3;stroke:#2E0C00;stroke-opacity:0.4" d="M9 1.15L8.95 1.2L8.45 0.85L8.2 0.1Q8.15 -0.15 8.25 -0.2L8.45 -0.6L8.25 -0.65L8 -1.35L8.15 -1.8L8.35 -2.2Q8.05 -2.25 7.95 -2.8Q7.8 -4 8.55 -4.3L8.35 -4.9Q8.25 -5.55 8.7 -6.15L9.35 -6.7L9.6 -6.7L9.75 -7.15" />
<path style="fill:none;stroke-width:0.7;stroke-linecap:round;stroke-linejoin:round;stroke-miterlimit:3;stroke:#2E0C00;stroke-opacity:0.4" d="M9.6 -6.7L9.6 -6.35L9.7 -6.1Q9.9 -5.9 10.35 -6.1L10.4 -6.15" />
<path style="fill:none;stroke-width:0.7;stroke-linecap:round;stroke-linejoin:round;stroke-miterlimit:3;stroke:#2E0C00;stroke-opacity:0.4" d="M9.15 -4.3L9.1 -4.65Q9.05 -5.1 9.7 -6.1" />
<path style="fill:none;stroke-width:0.7;stroke-linecap:round;stroke-linejoin:round;stroke-miterlimit:3;stroke:#2E0C00;stroke-opacity:0.4" d="M8.65 -2.2L8.55 -2.5Q8.5 -3 8.8 -3.4L9.35 -4.05L9.15 -4.3L8.55 -4.3" />
<path style="fill:none;stroke-width:0.7;stroke-linecap:round;stroke-linejoin:round;stroke-miterlimit:3;stroke:#2E0C00;stroke-opacity:0.4" d="M9.35 -4.05L9.65 -4.1L9.9 -4.2" />
<path style="fill:none;stroke-width:0.7;stroke-linecap:round;stroke-linejoin:round;stroke-miterlimit:3;stroke:#2E0C00;stroke-opacity:0.4" d="M8.95 -1.8L9.4 -1.9L9.7 -2.1" />
<path style="fill:none;stroke-width:0.7;stroke-linecap:round;stroke-linejoin:round;stroke-miterlimit:3;stroke:#2E0C00;stroke-opacity:0.4" d="M8.35 -2.2Q8.45 -2.05 8.65 -2.2L8.95 -1.8L8.8 -1.5L8.75 -1.35L8.7 -1.1L8.75 -1L8.8 -0.65L9 -0.2Q9.15 0 9.35 0" />
<path style="fill:none;stroke-width:0.7;stroke-linecap:round;stroke-linejoin:round;stroke-miterlimit:3;stroke:#2E0C00;stroke-opacity:0.4" d="M8.45 -0.6L8.8 -0.65" />
<path style="fill:none;stroke-width:0.7;stroke-linecap:round;stroke-linejoin:round;stroke-miterlimit:3;stroke:#2E0C00;stroke-opacity:0.4" d="M15.85 -10.3L15.75 -10.4L14.75 -10.5L14.55 -10.4L14.35 -10L14.45 -9.25L14.45 -9.05" />
<path style="fill:none;stroke-width:0.7;stroke-linecap:round;stroke-linejoin:round;stroke-miterlimit:3;stroke:#2E0C00;stroke-opacity:0.4" d="M12.7 -10.85L12.65 -10.65L12.85 -10.35L13.2 -10.55L13.9 -10.45L14.35 -10" />
<path style="fill:none;stroke-width:0.7;stroke-linecap:round;stroke-linejoin:round;stroke-miterlimit:3;stroke:#2E0C00;stroke-opacity:0.4" d="M14.4 -11.1L14.25 -10.7Q14.3 -10.4 14.55 -10.4" />
<path style="fill:none;stroke-width:0.7;stroke-linecap:round;stroke-linejoin:round;stroke-miterlimit:3;stroke:#2E0C00;stroke-opacity:0.4" d="M12.65 -9.95L12.65 -9.8L12.95 -9.15" />
<path style="fill:none;stroke-width:0.7;stroke-linecap:round;stroke-linejoin:round;stroke-miterlimit:3;stroke:#2E0C00;stroke-opacity:0.4" d="M11.2 -8.8L11.2 -8.85L11.6 -9.45L12.3 -9.9L12.65 -9.95L12.85 -10.35" />
<path style="fill:none;stroke-width:0.7;stroke-linecap:round;stroke-linejoin:round;stroke-miterlimit:3;stroke:#2E0C00;stroke-opacity:0.4" d="M11.45 -7.85L11.2 -8.2" />
</g>
<g id="PathID_636" transform="matrix(1, 0, 0, 1, 14.65, 25.45)">
<path style="fill:#C29A77;fill-opacity:1" d="M22.05 -7.55Q18.4 -3.9 15.95 -3.55L11.7 -3L11.95 -4.75L11.75 -5.65L11.35 -7L11.25 -8.65Q11.3 -10.15 11.85 -11.05Q12.45 -12.1 13.95 -13.05Q15.45 -13.95 16.4 -13.9L19.5 -13.45Q20.6 -13.1 22.35 -11.6L23.55 -9.8L22.05 -7.55" />
<path style="fill:#916B4A;fill-opacity:1" d="M23.55 -9.8L23.7 -8.15Q23.5 -5.55 22.4 -4.3Q21.3 -3 20.2 -2.35L19.25 -2L17.7 -1.55L15.1 -1.35Q13.2 -1.25 12.15 -2.3L11.7 -3L15.95 -3.55Q18.4 -3.9 22.05 -7.55L23.55 -9.8" />
<path style="fill:none;stroke-width:0.7;stroke-linecap:round;stroke-linejoin:miter;stroke-miterlimit:5;stroke:#270013;stroke-opacity:0.329412" d="M11.7 -3L11.95 -4.75L11.75 -5.65L11.35 -7L11.25 -8.65Q11.3 -10.15 11.85 -11.05Q12.45 -12.1 13.95 -13.05Q15.45 -13.95 16.4 -13.9L19.5 -13.45Q20.6 -13.1 22.35 -11.6L23.55 -9.8L23.7 -8.15Q23.5 -5.55 22.4 -4.3" />
<path style="fill:none;stroke-width:0.7;stroke-linecap:round;stroke-linejoin:miter;stroke-miterlimit:5;stroke:#270013;stroke-opacity:0.329412" d="M17.7 -1.55L15.1 -1.35Q13.2 -1.25 12.15 -2.3L11.7 -3" />
</g>
<g id="PathID_637" transform="matrix(1, 0, 0, 1, 14.65, 25.45)">
<path style="fill:#B48F93;fill-opacity:1" d="M13.8 -4.05L13.95 -3.55Q13.25 -3.15 13.7 -2.35L13.4 -2.25Q13 -2.45 13.2 -3.1Q13.75 -3.6 13.5 -4.05L13.8 -4.05" />
<path style="fill:#FFCBD0;fill-opacity:1" d="M13 -2.15Q12.95 -2.45 11.9 -2.55L11.75 -3.1L11.9 -3.25Q12.7 -2.85 13.05 -3.95L13.5 -4.05Q13.75 -3.6 13.2 -3.1Q13 -2.45 13.4 -2.25L13 -2.15" />
<path style="fill:#FFFFFF;fill-opacity:1" d="M11.9 -3.25Q12.35 -3.75 13.05 -3.95Q12.7 -2.85 11.9 -3.25" />
<path style="fill:none;stroke-width:0.7;stroke-linecap:round;stroke-linejoin:round;stroke-miterlimit:3;stroke:#000000;stroke-opacity:0.301961" d="M13.5 -4.05L13.05 -3.95" />
<path style="fill:none;stroke-width:0.7;stroke-linecap:round;stroke-linejoin:round;stroke-miterlimit:3;stroke:#000000;stroke-opacity:0.301961" d="M11.9 -3.25L11.75 -3.1L11.9 -2.55Q12.95 -2.45 13 -2.15L13.4 -2.25L13.7 -2.35Q13.25 -3.15 13.95 -3.55L13.8 -4.05L13.5 -4.05" />
<path style="fill:none;stroke-width:0.7;stroke-linecap:round;stroke-linejoin:round;stroke-miterlimit:3;stroke:#000000;stroke-opacity:0.301961" d="M11.9 -3.25Q12.35 -3.75 13.05 -3.95" />
</g>
<g id="PathID_638" transform="matrix(1, 0, 0, 1, 14.65, 25.45)">
<path style="fill:#43E6EC;fill-opacity:1" d="M21.55 -5L19.9 -4.5L18.35 -6.55Q20.25 -6.1 21.55 -5" />
<path style="fill:#209498;fill-opacity:1" d="M21.55 -5L22.55 -4.05L20.55 -2.5L19.9 -4.5L21.55 -5" />
</g>
<g id="PathID_639" transform="matrix(1, 0, 0, 1, 14.65, 25.45)">
<linearGradient
id="LinearGradID_383" gradientUnits="userSpaceOnUse" gradientTransform="matrix(-0.00549316, 0.00138855, 0.000411987, 0.0043335, 28.8, -11.1)" spreadMethod ="pad" x1="-819.2" y1="0" x2="819.2" y2="0" >
<stop  offset="0" style="stop-color:#C26A00;stop-opacity:1" />
<stop  offset="1" style="stop-color:#743F00;stop-opacity:1" />
</linearGradient>
<path style="fill:url(#LinearGradID_383) " d="M22.85 -9.6L24.55 -10.9Q26.05 -11.9 28.2 -12.75Q30.3 -12.05 31.7 -13.3Q33.5 -14.85 33.95 -15.95Q34.2 -16.8 34.65 -17.25L35.25 -16.2Q34.95 -14.65 35.35 -12.9Q34.85 -10.1 32.35 -9Q25.2 -5.8 22.85 -9.6" />
<path style="fill:#FA9C29;fill-opacity:1" d="M39.05 -16.5Q38.9 -15.35 37.2 -14.95L38.2 -16.6L38.35 -17.55L39.05 -16.5" />
<linearGradient
id="LinearGradID_384" gradientUnits="userSpaceOnUse" gradientTransform="matrix(-0.00706482, 0.00219727, 0.000152588, 0.00532532, 27.5, -9.85)" spreadMethod ="pad" x1="-819.2" y1="0" x2="819.2" y2="0" >
<stop  offset="0" style="stop-color:#C26A00;stop-opacity:1" />
<stop  offset="1" style="stop-color:#743F00;stop-opacity:1" />
</linearGradient>
<path style="fill:url(#LinearGradID_384) " d="M36 -17.3L35.65 -17.75Q36.25 -18.7 37.4 -18.65Q38.25 -18.35 38.35 -17.55L38.2 -16.6Q37.25 -17.3 36 -17.3" />
<path style="fill:none;stroke-width:0.7;stroke-linecap:round;stroke-linejoin:round;stroke-miterlimit:3;stroke:#351700;stroke-opacity:0.4" d="M35.25 -16.2Q34.95 -14.65 35.35 -12.9Q34.85 -10.1 32.35 -9Q25.2 -5.8 22.85 -9.6" />
<path style="fill:none;stroke-width:0.7;stroke-linecap:round;stroke-linejoin:round;stroke-miterlimit:3;stroke:#351700;stroke-opacity:0.4" d="M38.2 -16.6L38.35 -17.55Q38.25 -18.35 37.4 -18.65Q36.25 -18.7 35.65 -17.75" />
<path style="fill:none;stroke-width:0.7;stroke-linecap:round;stroke-linejoin:round;stroke-miterlimit:3;stroke:#351700;stroke-opacity:0.4" d="M36 -17.3Q37.25 -17.3 38.2 -16.6L37.2 -14.95Q38.9 -15.35 39.05 -16.5L38.35 -17.55" />
</g>
<g id="PathID_640" transform="matrix(1, 0, 0, 1, 14.65, 25.45)">
<path style="fill:#0C6D61;fill-opacity:1" d="M35.25 -16.2Q36.7 -16.8 35.95 -18L36.35 -17.65L36.6 -16.75Q36.6 -16.2 36.2 -15.9Q35.8 -15.55 35.25 -15.6Q34.75 -15.65 34.4 -16.05Q34.05 -16.45 34.1 -16.95L34.15 -17.2Q34.4 -16.1 35.25 -16.2" />
<path style="fill:#76FAE2;fill-opacity:1" d="M34.85 -17.2Q34.6 -17.5 35 -17.7L35.6 -17.6Q35.85 -17.35 35.55 -17.1L35.15 -17.05L34.85 -17.2" />
<path style="fill:#1FA896;fill-opacity:1" d="M35.95 -18Q36.7 -16.8 35.25 -16.2Q34.4 -16.1 34.15 -17.2L34.55 -17.85Q34.95 -18.2 35.45 -18.15L35.95 -18M35.15 -17.05L35.55 -17.1Q35.85 -17.35 35.6 -17.6L35 -17.7Q34.6 -17.5 34.85 -17.2L35.15 -17.05" />
<path style="fill:none;stroke-width:0.7;stroke-linecap:round;stroke-linejoin:round;stroke-miterlimit:3;stroke:#000000;stroke-opacity:0.4" d="M34.15 -17.2L34.1 -16.95Q34.05 -16.45 34.4 -16.05Q34.75 -15.65 35.25 -15.6Q35.8 -15.55 36.2 -15.9Q36.6 -16.2 36.6 -16.75L36.35 -17.65L35.95 -18" />
<path style="fill:none;stroke-width:0.7;stroke-linecap:round;stroke-linejoin:round;stroke-miterlimit:3;stroke:#000000;stroke-opacity:0.4" d="M34.15 -17.2L34.55 -17.85Q34.95 -18.2 35.45 -18.15L35.95 -18" />
</g>
<g id="PathID_641" transform="matrix(1, 0, 0, 1, 14.65, 25.45)">
<path style="fill:#844800;fill-opacity:1" d="M16.1 0.8L15.7 0.9Q14.5 1.15 13.75 0.25Q13.25 -0.35 12.6 -1.85Q13.85 -1.2 15.1 -1.3L16.1 -0.6L16.1 0.8M11.15 -6.95Q12.25 -5.7 11.85 -3.45L10.95 -5.65L9.95 -6.6L11.15 -6.95" />
<path style="fill:none;stroke-width:0.7;stroke-linecap:round;stroke-linejoin:round;stroke-miterlimit:3;stroke:#331F00;stroke-opacity:0.4" d="M16.1 -0.6L15.1 -1.3Q13.85 -1.2 12.6 -1.85Q13.25 -0.35 13.75 0.25Q14.5 1.15 15.7 0.9L16.1 0.8" />
<path style="fill:none;stroke-width:0.7;stroke-linecap:round;stroke-linejoin:round;stroke-miterlimit:3;stroke:#331F00;stroke-opacity:0.4" d="M9.95 -6.6L10.95 -5.65L11.85 -3.45Q12.25 -5.7 11.15 -6.95L9.95 -6.6z" />
</g>
<g id="PathID_642" transform="matrix(1, 0, 0, 1, 14.65, 25.45)">
<path style="fill:#FFBF43;fill-opacity:1" d="M12.45 -16.5Q14.15 -18.9 16.7 -18.65Q16.9 -15.9 12.05 -14.25Q13.35 -13.55 13.35 -13.3Q12.65 -11.5 10.6 -12.2Q10.15 -10.2 9.1 -11.45Q8.75 -10.05 8.05 -10.6Q8.15 -15.25 12.45 -16.5" />
<path style="fill:#E9EB80;fill-opacity:1" d="M8.75 -9.5L9.2 -9Q8.75 -7.65 9.9 -6.4Q8.7 -7.3 8.05 -9.65L8.05 -10.6Q8.75 -10.05 9.1 -11.45Q10.15 -10.2 10.6 -12.2Q12.65 -11.5 13.35 -13.3Q13.35 -13.55 12.05 -14.25Q16.9 -15.9 16.7 -18.65L19.05 -17.85Q15.85 -16.05 14.95 -13.3Q13.3 -12.85 13.5 -11.3Q11.15 -11.25 10.5 -8.95L8.75 -9.5" />
<linearGradient
id="LinearGradID_385" gradientUnits="userSpaceOnUse" gradientTransform="matrix(-0.00325012, -0.00212097, -0.00457764, 0.00737, 19.65, -9.05)" spreadMethod ="pad" x1="-819.2" y1="0" x2="819.2" y2="0" >
<stop  offset="0" style="stop-color:#C26A00;stop-opacity:1" />
<stop  offset="1" style="stop-color:#FA9C29;stop-opacity:1" />
</linearGradient>
<path style="fill:url(#LinearGradID_385) " d="M20.7 -16.85Q23.15 -14.55 24.9 -13.65Q24.8 -9.8 22.55 -6.55L19.9 -10Q16.85 -10.65 14 -9.45Q12.95 -8.95 11.9 -8.85L11 -8.9L10.5 -8.95Q11.15 -11.25 13.5 -11.3Q13.3 -12.85 14.95 -13.3Q15.85 -16.05 19.05 -17.85L20.7 -16.85" />
<path style="fill:#DB8A2C;fill-opacity:1" d="M9.9 -6.4Q8.75 -7.65 9.2 -9L8.75 -9.5L10.5 -8.95L11 -8.9Q10.8 -7.75 11.65 -6Q10.7 -5.95 9.9 -6.4" />
<path style="fill:none;stroke-width:0.7;stroke-linecap:round;stroke-linejoin:round;stroke-miterlimit:3;stroke:#311D00;stroke-opacity:0.4" d="M19.05 -17.85L16.7 -18.65" />
<path style="fill:none;stroke-width:0.7;stroke-linecap:round;stroke-linejoin:round;stroke-miterlimit:3;stroke:#311D00;stroke-opacity:0.4" d="M8.05 -10.6L8.05 -9.65Q8.7 -7.3 9.9 -6.4" />
<path style="fill:none;stroke-width:0.7;stroke-linecap:round;stroke-linejoin:round;stroke-miterlimit:3;stroke:#311D00;stroke-opacity:0.4" d="M10.5 -8.95L11 -8.9L11.9 -8.85Q12.95 -8.95 14 -9.45Q16.85 -10.65 19.9 -10L22.55 -6.55" />
<path style="fill:none;stroke-width:0.7;stroke-linecap:round;stroke-linejoin:round;stroke-miterlimit:3;stroke:#311D00;stroke-opacity:0.4" d="M24.9 -13.65Q23.15 -14.55 20.7 -16.85L19.05 -17.85" />
<path style="fill:none;stroke-width:0.7;stroke-linecap:round;stroke-linejoin:round;stroke-miterlimit:3;stroke:#311D00;stroke-opacity:0.4" d="M16.7 -18.65Q14.15 -18.9 12.45 -16.5Q8.15 -15.25 8.05 -10.6" />
<path style="fill:none;stroke-width:0.7;stroke-linecap:round;stroke-linejoin:round;stroke-miterlimit:3;stroke:#311D00;stroke-opacity:0.4" d="M11 -8.9Q10.8 -7.75 11.65 -6Q10.7 -5.95 9.9 -6.4" />
</g>
<g id="PathID_643" transform="matrix(1, 0, 0, 1, 14.65, 25.45)">
<linearGradient
id="LinearGradID_386" gradientUnits="userSpaceOnUse" gradientTransform="matrix(-0.00686646, 0.000854492, 6.10352e-005, 0.00497437, 35.55, -12.6)" spreadMethod ="pad" x1="-819.2" y1="0" x2="819.2" y2="0" >
<stop  offset="0" style="stop-color:#FFD823;stop-opacity:1" />
<stop  offset="1" style="stop-color:#FA9C29;stop-opacity:1" />
</linearGradient>
<path style="fill:url(#LinearGradID_386) " d="M35.1 -12L33.6 -11.6Q32.7 -12.6 33.65 -13.25Q36.45 -13.15 38.25 -12.1L35.1 -12M31.8 -10.75L30.85 -10.15Q27.3 -7.8 22.85 -9.15Q21.9 -11.95 27.35 -13.15Q29.3 -12.6 31 -13.2L32.3 -13.25Q33.05 -12.4 31.8 -10.75" />
<path style="fill:#FFBF43;fill-opacity:1" d="M33.6 -11.6L31.8 -10.75Q33.05 -12.4 32.3 -13.25L33.65 -13.25Q32.7 -12.6 33.6 -11.6M32.15 -7.55Q32.35 -8.2 33.25 -8.8Q34.1 -9.45 35.6 -8.2L33.5 -8.1Q32.85 -8.05 32.15 -7.55" />
<path style="fill:#C26A00;fill-opacity:1" d="M33.5 -8.1Q32.8 -6.9 34.4 -6.7L37.35 -8.95Q38.8 -10.8 35.1 -12L38.25 -12.1Q39.4 -11.55 39.5 -10.75Q39.7 -10 38.8 -9.05Q37.75 -7.95 36.4 -7.4L34.4 -6.7Q33.3 -6.4 32.7 -6.7Q32.05 -7.2 32.15 -7.55Q32.85 -8.05 33.5 -8.1" />
<path style="fill:none;stroke-width:0.7;stroke-linecap:round;stroke-linejoin:round;stroke-miterlimit:3;stroke:#2A0A00;stroke-opacity:0.4" d="M32.3 -13.25L33.65 -13.25Q36.45 -13.15 38.25 -12.1Q39.4 -11.55 39.5 -10.75Q39.7 -10 38.8 -9.05Q37.75 -7.95 36.4 -7.4L34.4 -6.7Q33.3 -6.4 32.7 -6.7Q32.05 -7.2 32.15 -7.55Q32.35 -8.2 33.25 -8.8Q34.1 -9.45 35.6 -8.2L33.5 -8.1Q32.8 -6.9 34.4 -6.7L37.35 -8.95Q38.8 -10.8 35.1 -12L33.6 -11.6L31.8 -10.75L30.85 -10.15Q27.3 -7.8 22.85 -9.15" />
<path style="fill:none;stroke-width:0.7;stroke-linecap:round;stroke-linejoin:round;stroke-miterlimit:3;stroke:#2A0A00;stroke-opacity:0.4" d="M27.35 -13.15Q29.3 -12.6 31 -13.2L32.3 -13.25" />
</g>
<g id="PathID_644" transform="matrix(1, 0, 0, 1, 14.65, 25.45)">
<path style="fill:#FA9C29;fill-opacity:1" d="M25.25 -7.45Q24.75 -8 24.8 -8.25L25 -8.55L24.8 -8.25L24.6 -8.15L24.4 -8.1L24.4 -8.15L24.35 -8.1L23.9 -8.4L23.5 -9L23.4 -9.3L23.55 -9.35L23.9 -9.75L24.95 -9.1L25 -8.55L25.25 -8.7Q25.5 -8.8 25.95 -8.4L26.3 -7.85L26.6 -8.2L27.35 -8.1L27.7 -7.7L27.75 -8.05L28.05 -8.3L28.7 -8.2L29.15 -7.95Q29.05 -8.35 29.55 -8.55L30.05 -8.55L30.2 -8.5L30.6 -8.25L30.65 -8L30.55 -7.65L30.25 -7.35L30.05 -7.2L29.95 -7.15L30.1 -7.05L30.1 -6.85L29.95 -6.7Q29.8 -6.6 29.65 -6.85L29.8 -7.15L29.7 -7.15L29.45 -7.3L29.35 -7.7L29.15 -7.95L29.35 -7.7L29.45 -7.3L29.2 -6.9L29.05 -6.75L28.4 -6.8L27.9 -7.25L27.8 -7.5L27.7 -7.7L27.8 -7.5L27.9 -7.25L27.7 -6.95L27.5 -6.85Q27.2 -6.7 26.45 -7.15L26.35 -7.8L26.3 -7.85L26.35 -7.8L26.45 -7.15L26.3 -7.05L26.05 -7L25.75 -7.05L25.25 -7.45M31.3 -9.4L31.2 -9.5L30.45 -9.45L30.1 -9.9L29.8 -10.2L30.4 -10L30.45 -9.95L30.3 -10.75L29.75 -11.35L29.25 -11.7L29.25 -11.75L29.5 -11.85Q31.15 -12 31.95 -11.3Q32.05 -10.55 31.3 -9.4M23.7 -12.55L23.7 -12.05Q23.7 -11.65 23.5 -11.6L23.15 -11.8L23.05 -12.25L23.25 -12.7L23.7 -12.55M25.7 -8.1L25.35 -8.1L25.2 -7.85L25.55 -7.6L25.9 -7.45L26 -7.8L25.7 -8.1M27.65 -7.35L27.6 -7.55L27.35 -7.7L26.9 -7.75Q26.75 -7.7 26.85 -7.5L27.15 -7.3L27.5 -7.2L27.65 -7.35M26.75 -6.45Q26.6 -6.7 26.95 -6.75L27.45 -6.6L27.3 -6.25L26.95 -6.3L26.75 -6.45M29.55 -8Q29.75 -7.65 30 -7.8Q30.3 -7.95 30.15 -8.25Q29.95 -8.6 29.65 -8.4Q29.45 -8.25 29.55 -8M28.15 -7.8L28.5 -7.45Q28.8 -7.25 28.95 -7.35Q29.35 -7.5 29.2 -7.8L28.85 -8.05L28.25 -8.1Q28.05 -8 28.15 -7.8M28.3 -6.75L28.6 -6.55L28.5 -6.2L28.2 -6.4Q28.1 -6.6 28.3 -6.75M29.95 -7.15L29.8 -7.15L29.95 -7.15M24.35 -8.1L24.4 -8.15L24.4 -8.1L24.35 -8.1M23.4 -10.2Q23.25 -10.45 23.55 -10.7Q23.85 -11.1 24.05 -10.7L23.8 -10L23.6 -10.05L23.4 -10.2M22.1 -12L22.4 -11.95L22.3 -11.5Q22.1 -11.4 21.95 -11.65Q21.85 -11.85 22.1 -12M22.4 -10Q22.25 -10.4 22.4 -10.5Q22.65 -10.65 22.8 -10.35Q22.95 -10 22.7 -9.85Q22.5 -9.8 22.4 -10M24.45 -8.75Q24.65 -8.85 24.55 -9.1Q24.35 -9.45 24.05 -9.4Q23.75 -9.45 23.9 -9.1L24.15 -8.85L24.45 -8.75M23.65 -8.35L23.65 -8.15L23.5 -8Q23.2 -7.85 22.95 -8.35Q22.85 -8.65 23.15 -8.6L23.65 -8.35M24.55 -7.5Q24.4 -7.85 24.6 -7.9Q24.85 -8.05 25 -7.7Q25.15 -7.3 24.95 -7.25Q24.75 -7.15 24.55 -7.5M30.9 -7.65L31.2 -7.6L31.1 -7.25Q30.85 -7.15 30.75 -7.4L30.9 -7.65" />
<path style="fill:#C26A00;fill-opacity:1" d="M23.65 -11.25L23.15 -11L22.95 -10.45L22.85 -11.1L22.7 -10.75L22.75 -11.3Q22.6 -11.7 22.7 -12.25L22.75 -12.4Q22.95 -12.95 23.3 -13.05Q23.8 -13.35 24.1 -12.65Q24.35 -12.2 24.2 -11.75L23.8 -11.3L24.25 -10.95L23.65 -11.25M22.95 -10.45L22.95 -9.75L23.1 -9.45Q23.25 -9.3 23.4 -9.3L23.5 -9L23.9 -8.4L24.35 -8.1L24.4 -8.1L24.3 -7.85L24.15 -7.65L24.3 -7.85L24.4 -8.1L24.6 -8.15L24.8 -8.25Q24.75 -8 25.25 -7.45L25.75 -7.05L25.5 -6.75Q24.95 -6.55 24.55 -6.95L24.15 -7.65L24.05 -7.55L23.55 -7.6Q23.15 -7.6 23 -8.05Q22.6 -8.75 22.8 -9.2L22.75 -9.3L22.3 -9.7Q22 -10.35 22.4 -10.8L22.3 -10.85L21.9 -11.1L21.65 -11.75Q21.6 -12.25 21.95 -12.45L22.35 -12.6L22.75 -12.4L22.7 -12.25Q22.6 -11.7 22.75 -11.3L22.85 -11.1L23.15 -11L23.65 -11.25L23.8 -11.3M24.25 -10.95Q24.35 -10.7 24.05 -10.05L23.9 -9.75L23.55 -9.35L23.4 -9.3Q23.25 -9.3 23.1 -9.45L22.95 -9.15L23.1 -9.45L22.95 -9.75L22.95 -10.45L23.15 -11M31.3 -9.4Q32.05 -10.55 31.95 -11.3L32.4 -10.65Q32.55 -10.35 32.15 -9.85L32.2 -9.85L32.5 -9.95L32.8 -10.15L32.9 -10.2L32.55 -9.4L32 -8.85L31.8 -8.8L31.75 -9L31.3 -9.4M29.7 -7.15L29.8 -7.15L29.65 -6.85Q29.8 -6.6 29.95 -6.7L30.1 -6.85L30.1 -7.05L29.95 -7.15L30.05 -7.2L30.25 -7.35L30.35 -7L30.25 -7.35L30.55 -7.65L30.65 -8L30.85 -8.1L31.4 -8L31.4 -7.95L31.45 -7.9L31.5 -7.9L31.5 -7.85L31.35 -7.25L30.85 -6.85L30.65 -6.85L30.35 -7L30.35 -6.8L29.9 -6.4L29.6 -6.45L29.3 -6.55Q29.3 -6.25 28.9 -6.1Q28.1 -5.7 27.8 -6.4L27.45 -6.05L26.55 -6.15L26.05 -6.75L26.05 -7L26.3 -7.05L26.45 -7.15Q27.2 -6.7 27.5 -6.85L27.7 -6.95L27.9 -7.25L28.4 -6.8L29.05 -6.75L29.2 -6.9L29.45 -7.3L29.7 -7.15M23.25 -12.7L23.05 -12.25L23.15 -11.8L23.5 -11.6Q23.7 -11.65 23.7 -12.05L23.7 -12.55L23.25 -12.7M26.95 -6.3L27.3 -6.25L27.45 -6.6L26.95 -6.75Q26.6 -6.7 26.75 -6.45L26.95 -6.3M27.7 -6.95L27.8 -6.4L27.7 -6.95M28.2 -6.4L28.5 -6.2L28.6 -6.55L28.3 -6.75Q28.1 -6.6 28.2 -6.4M29.2 -6.9L29.3 -6.55L29.2 -6.9M23.6 -10.05L23.8 -10L24.05 -10.7Q23.85 -11.1 23.55 -10.7Q23.25 -10.45 23.4 -10.2L23.6 -10.05M21.95 -11.65Q22.1 -11.4 22.3 -11.5L22.4 -11.95L22.1 -12Q21.85 -11.85 21.95 -11.65M22.7 -10.75L22.4 -10.8L22.7 -10.75L22.85 -11.1M22.7 -9.85Q22.95 -10 22.8 -10.35Q22.65 -10.65 22.4 -10.5Q22.25 -10.4 22.4 -10Q22.5 -9.8 22.7 -9.85M22.95 -9.15L22.8 -9.2L22.95 -9.15M23.15 -8.6Q22.85 -8.65 22.95 -8.35Q23.2 -7.85 23.5 -8L23.65 -8.15L23.65 -8.35L23.15 -8.6M24.95 -7.25Q25.15 -7.3 25 -7.7Q24.85 -8.05 24.6 -7.9Q24.4 -7.85 24.55 -7.5Q24.75 -7.15 24.95 -7.25M30.75 -7.4Q30.85 -7.15 31.1 -7.25L31.2 -7.6L30.9 -7.65L30.75 -7.4" />
<path style="fill:#FFBF43;fill-opacity:1" d="M26 -7.8L25.9 -7.45L25.55 -7.6L25.2 -7.85L25.35 -8.1L25.7 -8.1L26 -7.8M27.5 -7.2L27.15 -7.3L26.85 -7.5Q26.75 -7.7 26.9 -7.75L27.35 -7.7L27.6 -7.55L27.65 -7.35L27.5 -7.2M29.65 -8.4Q29.95 -8.6 30.15 -8.25Q30.3 -7.95 30 -7.8Q29.75 -7.65 29.55 -8Q29.45 -8.25 29.65 -8.4M28.25 -8.1L28.85 -8.05L29.2 -7.8Q29.35 -7.5 28.95 -7.35Q28.8 -7.25 28.5 -7.45L28.15 -7.8Q28.05 -8 28.25 -8.1M24.15 -8.85L23.9 -9.1Q23.75 -9.45 24.05 -9.4Q24.35 -9.45 24.55 -9.1Q24.65 -8.85 24.45 -8.75L24.15 -8.85" />
<path style="fill:#1AA9A5;fill-opacity:1" d="M31.75 -9L31.8 -8.8L31.9 -8.4L31.5 -7.9L31.45 -7.9L31.4 -7.95L31.4 -8L30.85 -8.1L30.65 -8L30.6 -8.25L30.2 -8.5L30.05 -8.55L30 -8.7Q29.85 -9 29.95 -9.2L30.35 -9.45L30.45 -9.45L31.2 -9.5L31.3 -9.4L31.75 -9M31.5 -9.05Q31.25 -9.45 30.8 -9.4Q30.4 -9.3 30.55 -8.95L30.85 -8.7L31.3 -8.6Q31.6 -8.75 31.5 -9.05" />
<path style="fill:#76FAE2;fill-opacity:1" d="M31.3 -8.6L30.85 -8.7L30.55 -8.95Q30.4 -9.3 30.8 -9.4Q31.25 -9.45 31.5 -9.05Q31.6 -8.75 31.3 -8.6" />
<path style="fill:none;stroke-width:0.7;stroke-linecap:round;stroke-linejoin:round;stroke-miterlimit:3;stroke:#2E0C00;stroke-opacity:0.4" d="M23.8 -11.3L24.2 -11.75Q24.35 -12.2 24.1 -12.65Q23.8 -13.35 23.3 -13.05Q22.95 -12.95 22.75 -12.4L22.7 -12.25Q22.6 -11.7 22.75 -11.3L22.85 -11.1L23.15 -11L23.65 -11.25L23.8 -11.3L24.25 -10.95Q24.35 -10.7 24.05 -10.05L23.9 -9.75L24.95 -9.1L25 -8.55L25.25 -8.7Q25.5 -8.8 25.95 -8.4L26.3 -7.85L26.6 -8.2L27.35 -8.1L27.7 -7.7L27.75 -8.05L28.05 -8.3L28.7 -8.2L29.15 -7.95Q29.05 -8.35 29.55 -8.55L30.05 -8.55L30 -8.7Q29.85 -9 29.95 -9.2L30.35 -9.45L30.45 -9.45L30.1 -9.9L29.8 -10.2L30.4 -10L30.45 -9.95L30.3 -10.75L29.75 -11.35L29.25 -11.7L29.25 -11.75L29.5 -11.85Q31.15 -12 31.95 -11.3L32.4 -10.65Q32.55 -10.35 32.15 -9.85L32.2 -9.85L32.5 -9.95L32.8 -10.15L32.9 -10.2L32.55 -9.4L32 -8.85L31.8 -8.8L31.9 -8.4L31.5 -7.9L31.5 -7.85L31.35 -7.25L30.85 -6.85L30.65 -6.85L30.35 -7L30.35 -6.8L29.9 -6.4L29.6 -6.45L29.3 -6.55Q29.3 -6.25 28.9 -6.1Q28.1 -5.7 27.8 -6.4L27.45 -6.05L26.55 -6.15L26.05 -6.75L26.05 -7L25.75 -7.05L25.5 -6.75Q24.95 -6.55 24.55 -6.95L24.15 -7.65L24.05 -7.55L23.55 -7.6Q23.15 -7.6 23 -8.05Q22.6 -8.75 22.8 -9.2L22.75 -9.3L22.3 -9.7Q22 -10.35 22.4 -10.8L22.3 -10.85L21.9 -11.1L21.65 -11.75Q21.6 -12.25 21.95 -12.45L22.35 -12.6L22.75 -12.4" />
<path style="fill:none;stroke-width:0.7;stroke-linecap:round;stroke-linejoin:round;stroke-miterlimit:3;stroke:#2E0C00;stroke-opacity:0.4" d="M26.3 -7.85L26.35 -7.8L26.45 -7.15Q27.2 -6.7 27.5 -6.85L27.7 -6.95L27.9 -7.25L27.8 -7.5L27.7 -7.7" />
<path style="fill:none;stroke-width:0.7;stroke-linecap:round;stroke-linejoin:round;stroke-miterlimit:3;stroke:#2E0C00;stroke-opacity:0.4" d="M26.05 -7L26.3 -7.05L26.45 -7.15" />
<path style="fill:none;stroke-width:0.7;stroke-linecap:round;stroke-linejoin:round;stroke-miterlimit:3;stroke:#2E0C00;stroke-opacity:0.4" d="M27.8 -6.4L27.7 -6.95" />
<path style="fill:none;stroke-width:0.7;stroke-linecap:round;stroke-linejoin:round;stroke-miterlimit:3;stroke:#2E0C00;stroke-opacity:0.4" d="M30.05 -8.55L30.2 -8.5L30.6 -8.25L30.65 -8L30.85 -8.1L31.4 -8L31.4 -7.95L31.45 -7.9L31.5 -7.9" />
<path style="fill:none;stroke-width:0.7;stroke-linecap:round;stroke-linejoin:round;stroke-miterlimit:3;stroke:#2E0C00;stroke-opacity:0.4" d="M27.9 -7.25L28.4 -6.8L29.05 -6.75L29.2 -6.9L29.45 -7.3L29.35 -7.7L29.15 -7.95" />
<path style="fill:none;stroke-width:0.7;stroke-linecap:round;stroke-linejoin:round;stroke-miterlimit:3;stroke:#2E0C00;stroke-opacity:0.4" d="M30.35 -7L30.25 -7.35L30.05 -7.2L29.95 -7.15" />
<path style="fill:none;stroke-width:0.7;stroke-linecap:round;stroke-linejoin:round;stroke-miterlimit:3;stroke:#2E0C00;stroke-opacity:0.4" d="M29.8 -7.15L29.7 -7.15L29.45 -7.3" />
<path style="fill:none;stroke-width:0.7;stroke-linecap:round;stroke-linejoin:round;stroke-miterlimit:3;stroke:#2E0C00;stroke-opacity:0.4" d="M29.8 -7.15L29.95 -7.15" />
<path style="fill:none;stroke-width:0.7;stroke-linecap:round;stroke-linejoin:round;stroke-miterlimit:3;stroke:#2E0C00;stroke-opacity:0.4" d="M29.3 -6.55L29.2 -6.9" />
<path style="fill:none;stroke-width:0.7;stroke-linecap:round;stroke-linejoin:round;stroke-miterlimit:3;stroke:#2E0C00;stroke-opacity:0.4" d="M23.4 -9.3L23.55 -9.35L23.9 -9.75" />
<path style="fill:none;stroke-width:0.7;stroke-linecap:round;stroke-linejoin:round;stroke-miterlimit:3;stroke:#2E0C00;stroke-opacity:0.4" d="M23.15 -11L22.95 -10.45L22.95 -9.75L23.1 -9.45Q23.25 -9.3 23.4 -9.3L23.5 -9L23.9 -8.4L24.35 -8.1L24.4 -8.15L24.4 -8.1L24.6 -8.15L24.8 -8.25L25 -8.55" />
<path style="fill:none;stroke-width:0.7;stroke-linecap:round;stroke-linejoin:round;stroke-miterlimit:3;stroke:#2E0C00;stroke-opacity:0.4" d="M22.4 -10.8L22.7 -10.75L22.85 -11.1" />
<path style="fill:none;stroke-width:0.7;stroke-linecap:round;stroke-linejoin:round;stroke-miterlimit:3;stroke:#2E0C00;stroke-opacity:0.4" d="M24.35 -8.1L24.4 -8.1L24.3 -7.85L24.15 -7.65" />
<path style="fill:none;stroke-width:0.7;stroke-linecap:round;stroke-linejoin:round;stroke-miterlimit:3;stroke:#2E0C00;stroke-opacity:0.4" d="M22.8 -9.2L22.95 -9.15L23.1 -9.45" />
<path style="fill:none;stroke-width:0.7;stroke-linecap:round;stroke-linejoin:round;stroke-miterlimit:3;stroke:#2E0C00;stroke-opacity:0.4" d="M24.8 -8.25Q24.75 -8 25.25 -7.45L25.75 -7.05" />
<path style="fill:none;stroke-width:0.7;stroke-linecap:round;stroke-linejoin:round;stroke-miterlimit:3;stroke:#2E0C00;stroke-opacity:0.4" d="M30.45 -9.45L31.2 -9.5L31.3 -9.4" />
<path style="fill:none;stroke-width:0.7;stroke-linecap:round;stroke-linejoin:round;stroke-miterlimit:3;stroke:#2E0C00;stroke-opacity:0.4" d="M31.8 -8.8L31.75 -9L31.3 -9.4" />
<path style="fill:none;stroke-width:0.7;stroke-linecap:round;stroke-linejoin:round;stroke-miterlimit:3;stroke:#2E0C00;stroke-opacity:0.4" d="M30.25 -7.35L30.55 -7.65L30.65 -8" />
</g>
<g id="PathID_645" transform="matrix(1, 0, 0, 1, 14.65, 25.45)">
<path style="fill:#E29543;fill-opacity:1" d="M32.25 -22.95Q32.75 -22.55 32.85 -21.8Q32.55 -21.2 31.85 -21.1Q30.65 -20.95 30.65 -22.05Q31 -21.4 31.8 -21.95Q32.3 -22.35 32.25 -22.95" />
<path style="fill:#C26A00;fill-opacity:1" d="M28.35 -21.5L28.05 -21.9Q28.6 -23.3 29.9 -23.6L30.6 -23.6Q31.45 -23.55 32.25 -22.95Q32.3 -22.35 31.8 -21.95Q31.1 -22.65 30 -22.15Q29.25 -21.85 29.75 -21Q28.8 -21.15 28.35 -21.5M30.9 -17.95Q31.05 -17.05 30.8 -16.3Q30.4 -16.85 29.2 -15.95Q30.6 -17.1 30.7 -18.8L30.9 -17.95" />
<path style="fill:#FA9C29;fill-opacity:1" d="M30.8 -16.3Q31.05 -17.05 30.9 -17.95L30.7 -18.8L29.4 -19.75Q28.15 -20.45 27.95 -21.15L28.05 -21.9L28.35 -21.5Q28.8 -21.15 29.75 -21Q31.85 -20.6 33.3 -19.25Q34.5 -17.8 33.2 -15.75L31.55 -13.9Q30.65 -14.05 29.8 -15L29.2 -15.95Q30.4 -16.85 30.8 -16.3M28 -11.5L24.2 -10.85Q22 -14.35 23.35 -15.7Q26.1 -14.3 28.2 -15.35Q30.55 -14.2 28 -11.5" />
<path style="fill:#FFBF43;fill-opacity:1" d="M28.2 -15.35Q28.45 -15.4 29.2 -15.95L29.8 -15Q30.65 -14.05 31.55 -13.9Q30.2 -12.35 28 -11.5Q30.55 -14.2 28.2 -15.35" />
<path style="fill:none;stroke-width:0.7;stroke-linecap:round;stroke-linejoin:round;stroke-miterlimit:3;stroke:#200F00;stroke-opacity:0.301961" d="M32.25 -22.95Q32.75 -22.55 32.85 -21.8Q32.55 -21.2 31.85 -21.1Q30.65 -20.95 30.65 -22.05Q31 -21.4 31.8 -21.95Q31.1 -22.65 30 -22.15Q29.25 -21.85 29.75 -21Q31.85 -20.6 33.3 -19.25Q34.5 -17.8 33.2 -15.75L31.55 -13.9Q30.2 -12.35 28 -11.5" />
<path style="fill:none;stroke-width:0.7;stroke-linecap:round;stroke-linejoin:round;stroke-miterlimit:3;stroke:#200F00;stroke-opacity:0.301961" d="M23.35 -15.7Q26.1 -14.3 28.2 -15.35Q28.45 -15.4 29.2 -15.95Q30.6 -17.1 30.7 -18.8L29.4 -19.75Q28.15 -20.45 27.95 -21.15L28.05 -21.9Q28.6 -23.3 29.9 -23.6L30.6 -23.6Q31.45 -23.55 32.25 -22.95" />
<path style="fill:none;stroke-width:0.7;stroke-linecap:round;stroke-linejoin:round;stroke-miterlimit:3;stroke:#200F00;stroke-opacity:0.301961" d="M30.8 -16.3Q31.05 -17.05 30.9 -17.95L30.7 -18.8" />
</g>
<g id="PathID_646" transform="matrix(1, 0, 0, 1, 14.65, 25.45)">
<path style="fill:none;stroke-width:0.7;stroke-linecap:round;stroke-linejoin:round;stroke-miterlimit:3;stroke:#844800;stroke-opacity:0.490196" d="M9.85 -6.75L10.6 -4.25Q10.85 -2.8 11.45 -2.1Q12.05 -1.35 13.3 -0.9L16.75 -0.65" />
<path style="fill:none;stroke-width:0.7;stroke-linecap:round;stroke-linejoin:round;stroke-miterlimit:3;stroke:#D27503;stroke-opacity:0.588235" d="M9.05 -13.25L6.6 -7.7Q5.65 -5.5 5.65 -3.1Q5.65 -0.6 7 0.9Q8.35 2.5 10.8 2.5L12.7 2.1" />
<path style="fill:none;stroke-width:0.7;stroke-linecap:round;stroke-linejoin:round;stroke-miterlimit:3;stroke:#D27503;stroke-opacity:0.588235" d="M29 -12.75L30.1 -13L30.75 -13.35L31.55 -14.05Q32.75 -15.25 32.75 -16.3Q32.75 -17.1 31.85 -17Q30.95 -16.95 30.95 -17.75Q30.95 -18.3 31.9 -19.25Q32.85 -20.25 33.6 -20.25Q34.5 -20.25 34.6 -19.2Q34.6 -18.95 34.2 -18.65Q33.85 -18.35 33.2 -18.3L33.2 -18.8" />
<path style="fill:none;stroke-width:0.7;stroke-linecap:round;stroke-linejoin:round;stroke-miterlimit:3;stroke:#D27503;stroke-opacity:0.588235" d="M20.3 -17.25Q24.05 -15.6 25.5 -16.15Q26.95 -16.65 27.15 -16.9L27.95 -17.7Q28.1 -18.05 27.75 -18.45L27.05 -19L26.4 -19.5Q25.5 -20.55 27.25 -21.95Q28.05 -22.65 29.25 -22.5Q30.4 -22.4 31 -21.65Q31.45 -21.1 30.65 -20.45Q30.2 -20.05 29.85 -20.05L28.6 -20.45" />
<path style="fill:none;stroke-width:0.7;stroke-linecap:round;stroke-linejoin:round;stroke-miterlimit:3;stroke:#D27503;stroke-opacity:0.588235" d="M30.75 -13.35Q32.2 -13.7 34.15 -13.35Q36.35 -12.95 37 -12.15Q37.45 -11.55 37.25 -11L36.5 -9.75" />
<path style="fill:none;stroke-width:0.7;stroke-linecap:round;stroke-linejoin:round;stroke-miterlimit:3;stroke:#F38A08;stroke-opacity:0.690196" d="M21.2 -13.85Q23.8 -11.2 23.7 -9.2Q23.6 -7.3 24.4 -6.4Q25.15 -5.05 28.95 -5.1Q30 -4.8 30 -3.4Q30 -2.05 28.55 -2.65" />
<path style="fill:none;stroke-width:0.7;stroke-linecap:round;stroke-linejoin:round;stroke-miterlimit:3;stroke:#D27503;stroke-opacity:0.588235" d="M32.8 -10.95Q35.65 -9.45 36.6 -8.15Q37.45 -6.8 37.45 -4.15Q37.45 -1.15 36.55 0.7Q35.75 2.3 33.8 3.8Q29.45 7 29.45 10.4L29.65 11.4" />
</g>
<g id="PathID_647" transform="matrix(1, 0, 0, 1, 14.65, 25.45)">
<path style="fill:#FA9C29;fill-opacity:1" d="M25.85 -3.3L25.15 -3.2L24.15 -3L24 -3Q22.05 -4.25 23.6 -4.4L24.4 -4.5L26.75 -4.2L25.85 -3.3M27.6 -4.55Q28.7 -4.3 29 -3.55Q29.2 -2.25 28.75 -1.55L28.15 -0.9L27.8 -0.7L27.25 -0.65Q27.05 -0.7 26.9 -0.9Q26.85 -1.15 26.95 -1.4L27.4 -2Q28.05 -2.6 27.95 -2.15L27.7 -1.65L27.75 -2.05Q27.7 -2.25 27.4 -1.7L27.25 -1.25L27.5 -1.05L27.75 -1.05L28.1 -1.4L28.4 -1.9L28.45 -2.5L27.8 -3.1L27.1 -3.4Q26.7 -4.25 27.6 -4.55" />
<path style="fill:#C26A00;fill-opacity:1" d="M24 -3L22.35 -2.85Q21.45 -3.15 21.15 -3.95L21 -4.2L20.95 -4.45L21.7 -5.15L21.75 -5.25L22.6 -5.6Q22.85 -4.6 23.6 -4.4Q22.05 -4.25 24 -3" />
<path style="fill:#FFBF43;fill-opacity:1" d="M27.1 -3.4L25.85 -3.3L26.75 -4.2L24.4 -4.5L26.45 -4.65L27.4 -4.55L27.6 -4.55Q26.7 -4.25 27.1 -3.4" />
<path style="fill:none;stroke-width:0.7;stroke-linecap:round;stroke-linejoin:round;stroke-miterlimit:3;stroke:#3C1700;stroke-opacity:0.4" d="M23.6 -4.4L24.4 -4.5L26.45 -4.65L27.4 -4.55L27.6 -4.55Q28.7 -4.3 29 -3.55Q29.2 -2.25 28.75 -1.55L28.15 -0.9L27.8 -0.7L27.25 -0.65Q27.05 -0.7 26.9 -0.9Q26.85 -1.15 26.95 -1.4L27.4 -2Q28.05 -2.6 27.95 -2.15L27.7 -1.65L27.75 -2.05Q27.7 -2.25 27.4 -1.7L27.25 -1.25L27.5 -1.05L27.75 -1.05L28.1 -1.4L28.4 -1.9L28.45 -2.5L27.8 -3.1L27.1 -3.4L25.85 -3.3L25.15 -3.2L24.15 -3L24 -3L22.35 -2.85Q21.45 -3.15 21.15 -3.95L21 -4.2L20.95 -4.45" />
<path style="fill:none;stroke-width:0.7;stroke-linecap:round;stroke-linejoin:round;stroke-miterlimit:3;stroke:#3C1700;stroke-opacity:0.4" d="M22.6 -5.6Q22.85 -4.6 23.6 -4.4" />
</g>
<g id="PathID_648" transform="matrix(1, 0, 0, 1, 14.65, 25.45)">
<path style="fill:#FFF9E0;fill-opacity:1" d="M19.9 -6.05L21.15 -6.1Q21.45 -5.8 21.15 -5.55L20.5 -5.4L19.95 -5.6L19.8 -5.75L19.9 -6.05" />
<path style="fill:#EED046;fill-opacity:1" d="M19.8 -5.75L19.95 -5.6L20.5 -5.4L21.15 -5.55Q21.45 -5.8 21.15 -6.1L19.9 -6.05L19.8 -5.75M19.3 -6.5Q19.75 -7.05 20.35 -7.3L21.8 -7.5Q23.45 -6.05 21.25 -5.45Q19.05 -4.9 19.3 -6.5" />
<path style="fill:#B6811C;fill-opacity:1" d="M21.25 -5.45Q23.45 -6.05 21.8 -7.5Q23.05 -7.1 23.05 -5.8Q23.05 -4.85 22.15 -4.4L21 -4.15Q19.75 -4.2 19.2 -5.45Q18.95 -6 19.3 -6.5Q19.05 -4.9 21.25 -5.45" />
<path style="fill:none;stroke-width:0.7;stroke-linecap:round;stroke-linejoin:round;stroke-miterlimit:3;stroke:#000000;stroke-opacity:0.4" d="M21.8 -7.5Q23.05 -7.1 23.05 -5.8Q23.05 -4.85 22.15 -4.4L21 -4.15Q19.75 -4.2 19.2 -5.45Q18.95 -6 19.3 -6.5Q19.75 -7.05 20.35 -7.3L21.8 -7.5z" />
</g>
<g id="PathID_649" transform="matrix(1, 0, 0, 1, 14.65, 25.45)">
<linearGradient
id="LinearGradID_387" gradientUnits="userSpaceOnUse" gradientTransform="matrix(0.00218201, 0.00260925, 0.00360107, -0.00302124, 19, -11.9)" spreadMethod ="pad" x1="-819.2" y1="0" x2="819.2" y2="0" >
<stop  offset="0" style="stop-color:#FFBF43;stop-opacity:1" />
<stop  offset="1" style="stop-color:#FA9C29;stop-opacity:1" />
</linearGradient>
<path style="fill:url(#LinearGradID_387) " d="M21.6 -10.45Q20.65 -9.55 19.35 -10.2L18.1 -11.5L17.7 -12Q16.65 -13.2 14.85 -14.2L19.25 -14.55Q20.8 -12.95 21.45 -11.15L21.6 -10.45M19.5 -9.05L21.9 -8.95L21.9 -8.05Q21.85 -7.15 20.4 -6.25Q19.7 -6.35 19.1 -7.05L19 -7.35L19.5 -9.05" />
<path style="fill:#FFBF43;fill-opacity:1" d="M21.9 -8.95L19.5 -9.05L19 -7.35L18.85 -8.55L19 -9.95L18.85 -10.4L18.1 -11.5L19.35 -10.2Q20.65 -9.55 21.6 -10.45L21.9 -9.1L21.9 -8.95" />
<path style="fill:#C26A00;fill-opacity:1" d="M21.9 -8.05L21.9 -8.95L21.9 -9.1L21.6 -10.45L21.45 -11.15Q20.8 -12.95 19.25 -14.55Q22.25 -12.4 22.9 -9.1Q23.3 -7.65 21.95 -6.8Q21.1 -6.2 20.4 -6.25Q21.85 -7.15 21.9 -8.05" />
<path style="fill:none;stroke-width:0.7;stroke-linecap:round;stroke-linejoin:round;stroke-miterlimit:3;stroke:#000000;stroke-opacity:0.25098" d="M19.25 -14.55Q22.25 -12.4 22.9 -9.1Q23.3 -7.65 21.95 -6.8Q21.1 -6.2 20.4 -6.25Q19.7 -6.35 19.1 -7.05L19 -7.35L18.85 -8.55L19 -9.95L18.85 -10.4L18.1 -11.5L17.7 -12Q16.65 -13.2 14.85 -14.2" />
</g>
<g id="PathID_650" transform="matrix(1, 0, 0, 1, 14.65, 25.45)">
<path style="fill:#B6811C;fill-opacity:1" d="M8.85 -12.45L9.1 -11.85L9.15 -11.25L10 -8.55L10.3 -8.5L10.4 -8.45Q10.75 -7.95 10.65 -7.35Q10.55 -6.75 10 -6.3L9.45 -6.2L8.95 -6.6Q8.55 -7.2 8.65 -7.9Q8.85 -8.6 8.5 -9.15L7.55 -10.45Q6.8 -11.8 7.55 -12.4L8.85 -12.45" />
<path style="fill:none;stroke-width:0.7;stroke-linecap:round;stroke-linejoin:round;stroke-miterlimit:3;stroke:#000000;stroke-opacity:0.4" d="M7.55 -12.4Q6.8 -11.8 7.55 -10.45L8.5 -9.15Q8.85 -8.6 8.65 -7.9Q8.55 -7.2 8.95 -6.6L9.45 -6.2L10 -6.3Q10.55 -6.75 10.65 -7.35Q10.75 -7.95 10.4 -8.45L10.3 -8.5L10 -8.55L9.15 -11.25L9.1 -11.85L8.85 -12.45L7.55 -12.4z" />
</g>
<g id="PathID_651" transform="matrix(1, 0, 0, 1, 14.65, 25.45)">
<path style="fill:#000000;fill-opacity:0.301961" d="M18.75 -18Q19.45 -17.3 18.5 -16Q16.5 -12.4 13.25 -10.35L11.15 -10.2Q15.7 -13.4 18.75 -18" />
</g>
<g id="PathID_652" transform="matrix(1, 0, 0, 1, 14.65, 25.45)">
<path style="fill:#B6811C;fill-opacity:1" d="M14.45 -13.75Q14.95 -13 17.7 -15.4Q15.7 -12.35 11.8 -10.3L11.35 -11.5L14.45 -13.75" />
<path style="fill:#EED046;fill-opacity:1" d="M14.45 -13.75Q17.1 -16.1 17.7 -18.55Q18.85 -18.7 18.95 -17.75L17.7 -15.4Q14.95 -13 14.45 -13.75" />
<path style="fill:none;stroke-width:0.7;stroke-linecap:round;stroke-linejoin:round;stroke-miterlimit:3;stroke:#000000;stroke-opacity:0.4" d="M17.7 -15.4L18.95 -17.75Q18.85 -18.7 17.7 -18.55Q17.1 -16.1 14.45 -13.75" />
<path style="fill:none;stroke-width:0.7;stroke-linecap:round;stroke-linejoin:round;stroke-miterlimit:3;stroke:#000000;stroke-opacity:0.4" d="M17.7 -15.4Q15.7 -12.35 11.8 -10.3L11.35 -11.5L14.45 -13.75" />
</g>
<g id="PathID_653" transform="matrix(1, 0, 0, 1, 14.65, 25.45)">
<path style="fill:#76FAE2;fill-opacity:1" d="M9.2 -11.55Q9.45 -12.1 9.95 -11.45Q10.65 -10.6 10.05 -10.1Q9.8 -9.9 9.35 -10.45Q8.85 -11.15 9.2 -11.55" />
<path style="fill:#1FA896;fill-opacity:1" d="M11 -10.7L11.2 -10.2L11.3 -8.85Q11.2 -7.9 10.65 -7.55L9.8 -7.35Q9.55 -7.4 9.3 -7.6Q8.6 -8.05 8.2 -9Q7.7 -9.95 7.85 -10.85Q8 -11.85 8.6 -12.15L9.9 -12.1L10.9 -11L11 -10.7M9.35 -10.45Q9.8 -9.9 10.05 -10.1Q10.65 -10.6 9.95 -11.45Q9.45 -12.1 9.2 -11.55Q8.85 -11.15 9.35 -10.45M10.05 -7.85Q10.95 -8.05 10.6 -9.45L8.5 -9.5Q8.85 -8.45 10.05 -7.85" />
<path style="fill:#FFE15B;fill-opacity:1" d="M9.55 -13.55Q10.75 -13.35 11.55 -11.95Q11.6 -11.05 10.9 -11L9.9 -12.1L8.6 -12.15Q8.4 -13.3 9.55 -13.55" />
<path style="fill:#0C6D61;fill-opacity:1" d="M8.5 -9.5L10.6 -9.45Q10.95 -8.05 10.05 -7.85Q8.85 -8.45 8.5 -9.5" />
<path style="fill:#B6811C;fill-opacity:1" d="M12 -11.2L12.45 -10.05Q13.2 -8 11.15 -6.8Q9.85 -6.75 9.8 -7.35L10.65 -7.55Q11.2 -7.9 11.3 -8.85L11.2 -10.2Q11.95 -9.9 12 -11.2" />
<path style="fill:#FFEFAA;fill-opacity:1" d="M11.2 -10.2L11 -10.7L10.9 -11Q11.6 -11.05 11.55 -11.95L12 -11.2Q11.95 -9.9 11.2 -10.2" />
<path style="fill:none;stroke-width:0.7;stroke-linecap:round;stroke-linejoin:round;stroke-miterlimit:3;stroke:#000000;stroke-opacity:0.301961" d="M10.9 -11L9.9 -12.1L8.6 -12.15" />
<path style="fill:none;stroke-width:0.7;stroke-linecap:round;stroke-linejoin:round;stroke-miterlimit:3;stroke:#000000;stroke-opacity:0.4" d="M8.6 -12.15Q8 -11.85 7.85 -10.85Q7.7 -9.95 8.2 -9Q8.6 -8.05 9.3 -7.6Q9.55 -7.4 9.8 -7.35" />
<path style="fill:none;stroke-width:0.7;stroke-linecap:round;stroke-linejoin:round;stroke-miterlimit:3;stroke:#000000;stroke-opacity:0.301961" d="M9.8 -7.35L10.65 -7.55Q11.2 -7.9 11.3 -8.85L11.2 -10.2L11 -10.7L10.9 -11" />
<path style="fill:none;stroke-width:0.7;stroke-linecap:round;stroke-linejoin:round;stroke-miterlimit:3;stroke:#000000;stroke-opacity:0.4" d="M11.55 -11.95Q10.75 -13.35 9.55 -13.55Q8.4 -13.3 8.6 -12.15" />
<path style="fill:none;stroke-width:0.7;stroke-linecap:round;stroke-linejoin:round;stroke-miterlimit:3;stroke:#000000;stroke-opacity:0.301961" d="M12 -11.2L11.55 -11.95" />
<path style="fill:none;stroke-width:0.7;stroke-linecap:round;stroke-linejoin:round;stroke-miterlimit:3;stroke:#000000;stroke-opacity:0.4" d="M9.8 -7.35Q9.85 -6.75 11.15 -6.8Q13.2 -8 12.45 -10.05L12 -11.2" />
</g>
<g id="PathID_654" transform="matrix(1, 0, 0, 1, 14.65, 25.45)">
<path style="fill:#FFE15B;fill-opacity:1" d="M12.6 -14.5L13.5 -13.5L13.6 -12.05L13.45 -10.7L13.45 -10.55L13.6 -10.9Q14.15 -11.25 14.4 -10.55Q14.7 -10.1 14.5 -9.5L14.05 -8.8Q13.35 -8.35 12.8 -9.3Q12.3 -10.2 12.45 -11.2L12.45 -12.9L12.25 -13.3Q12.2 -12.5 11.75 -12.3Q11.3 -12.1 10.85 -12.85Q10.25 -13.9 11.15 -14.5Q11.8 -14.9 12.6 -14.5M12.25 -13.3L11.4 -13.4L12.25 -13.3L12.45 -12.9M13.45 -10.55L13.35 -10.05L13.75 -9.95L13.35 -10.05L13.45 -10.55L13.45 -10.7" />
<path style="fill:none;stroke-width:0.7;stroke-linecap:round;stroke-linejoin:round;stroke-miterlimit:3;stroke:#000000;stroke-opacity:0.4" d="M12.6 -14.5L13.5 -13.5L13.6 -12.05L13.45 -10.7L13.6 -10.9Q14.15 -11.25 14.4 -10.55Q14.7 -10.1 14.5 -9.5L14.05 -8.8Q13.35 -8.35 12.8 -9.3Q12.3 -10.2 12.45 -11.2L12.45 -12.9Q12.2 -12.5 11.75 -12.3Q11.3 -12.1 10.85 -12.85Q10.25 -13.9 11.15 -14.5Q11.8 -14.9 12.6 -14.5z" />
<path style="fill:none;stroke-width:0.7;stroke-linecap:round;stroke-linejoin:round;stroke-miterlimit:3;stroke:#000000;stroke-opacity:0.301961" d="M12.45 -12.9L12.25 -13.3L11.4 -13.4" />
<path style="fill:none;stroke-width:0.7;stroke-linecap:round;stroke-linejoin:round;stroke-miterlimit:3;stroke:#000000;stroke-opacity:0.301961" d="M13.45 -10.7L13.45 -10.55L13.35 -10.05L13.75 -9.95" />
</g>
<g id="PathID_655" transform="matrix(1, 0, 0, 1, 14.65, 25.45)">
<path style="fill:#C29A77;fill-opacity:1" d="M27.4 0.25Q27.1 -0.65 26.15 -1.5L24.5 -1.95Q23.7 -2.7 24.9 -3.5L26.15 -3.75Q25.55 -5.55 26.15 -6.65Q27.3 -7.4 27.6 -6.05L27.95 -4.9L27.95 -4.3L27.95 -4.9Q27.95 -5.95 28.65 -6.7Q29.6 -7.6 30.15 -6.6L29.8 -4.1Q31.4 -5 31.5 -4.1Q31.95 -3.1 30.9 -2.35L30.1 -1.95Q30.15 -0.85 28.9 -0.75Q28.75 0.05 27.4 0.25" />
<path style="fill:#916C4D;fill-opacity:1" d="M29.6 0.4L27.55 0.8L27.4 0.25Q28.75 0.05 28.9 -0.75Q30.15 -0.85 30.1 -1.95L30.9 -2.35Q30.95 -0.1 29.6 0.4" />
<path style="fill:none;stroke-width:0.7;stroke-linecap:round;stroke-linejoin:round;stroke-miterlimit:3;stroke:#000000;stroke-opacity:0.4" d="M30.9 -2.35Q31.95 -3.1 31.5 -4.1Q31.4 -5 29.8 -4.1L30.15 -6.6Q29.6 -7.6 28.65 -6.7Q27.95 -5.95 27.95 -4.9L27.95 -4.3" />
<path style="fill:none;stroke-width:0.7;stroke-linecap:round;stroke-linejoin:round;stroke-miterlimit:3;stroke:#000000;stroke-opacity:0.4" d="M27.4 0.25Q27.1 -0.65 26.15 -1.5L24.5 -1.95Q23.7 -2.7 24.9 -3.5L26.15 -3.75Q25.55 -5.55 26.15 -6.65Q27.3 -7.4 27.6 -6.05L27.95 -4.9" />
<path style="fill:none;stroke-width:0.7;stroke-linecap:round;stroke-linejoin:round;stroke-miterlimit:3;stroke:#000000;stroke-opacity:0.4" d="M30.9 -2.35L30.1 -1.95Q30.15 -0.85 28.9 -0.75" />
<path style="fill:none;stroke-width:0.7;stroke-linecap:round;stroke-linejoin:round;stroke-miterlimit:3;stroke:#000000;stroke-opacity:0.4" d="M27.4 0.25L27.55 0.8L29.6 0.4Q30.95 -0.1 30.9 -2.35" />
</g>
<g id="PathID_656" transform="matrix(1, 0, 0, 1, 14.65, 25.45)">
<path style="fill:none;stroke-width:0.7;stroke-linecap:round;stroke-linejoin:miter;stroke-miterlimit:5;stroke:#000000;stroke-opacity:0.431373" d="M17 -4.55Q21.75 -8.4 27.35 -8.85" />
</g>
<g id="PathID_657" transform="matrix(1, 0, 0, 1, 14.65, 25.45)">
<path style="fill:none;stroke-width:0.7;stroke-linecap:round;stroke-linejoin:miter;stroke-miterlimit:5;stroke:#000000;stroke-opacity:0.431373" d="M16.65 -3.45Q21.45 -5.6 26.25 -4.75" />
</g>
<g id="PathID_658" transform="matrix(1, 0, 0, 1, 14.65, 25.45)">
<path style="fill:#C29A77;fill-opacity:1" d="M24.4 -23.75Q22 -25.05 19.5 -23.3Q17.9 -22.15 17.45 -20.3L17.35 -18.5Q17.25 -17.05 18.1 -15.9Q18.6 -15.2 19.25 -14.9L21.1 -13.55Q21.5 -13 21.3 -12.3L21.1 -11.35L20.8 -11L19.55 -11.85Q16.95 -13.55 16.05 -16.6L15.6 -18.6L15.6 -19.4Q15.7 -20.35 16.35 -21.65Q17.3 -23.75 19.05 -24.6Q20.8 -25.5 22.8 -25.05Q24.3 -24.7 25.6 -23.6L27.25 -21.7L27.45 -21.4L24.4 -23.75" />
<path style="fill:#A16F54;fill-opacity:1" d="M22.25 -23.2Q20.4 -22.15 22.3 -19.7Q20.75 -19.95 20 -19.7Q18.75 -19.45 17.35 -18.5Q18.75 -19.45 20 -19.7Q20.75 -19.95 22.3 -19.7L23.55 -19.15L21.15 -19.25Q19.6 -19 19.15 -17.9Q18.8 -17.1 19 -16.3Q19.25 -15.65 19.9 -15.25Q20.85 -14.85 21.1 -13.55L19.25 -14.9Q18.6 -15.2 18.1 -15.9Q17.25 -17.05 17.35 -18.5L17.45 -20.3Q17.9 -22.15 19.5 -23.3Q22 -25.05 24.4 -23.75Q23.15 -23.7 22.25 -23.2" />
<path style="fill:#C49073;fill-opacity:1" d="M22.7 -18.45Q21.2 -18.05 21.65 -15.85Q23.25 -13.9 22.5 -12.9L21.1 -11.35L21.3 -12.3Q21.5 -13 21.1 -13.55Q20.85 -14.85 19.9 -15.25Q19.25 -15.65 19 -16.3Q18.8 -17.1 19.15 -17.9Q19.6 -19 21.15 -19.25L23.55 -19.15L25.35 -17.6Q24.05 -18.8 22.7 -18.45M24.4 -23.75L27.45 -21.4Q23.7 -22.3 22.3 -19.7Q20.4 -22.15 22.25 -23.2Q23.15 -23.7 24.4 -23.75" />
<path style="fill:#E2AB8D;fill-opacity:1" d="M22.5 -12.9Q23.25 -13.9 21.65 -15.85Q21.2 -18.05 22.7 -18.45Q24.05 -18.8 25.35 -17.6L26.25 -16.4L25.35 -17.6L23.55 -19.15L22.3 -19.7Q23.7 -22.3 27.45 -21.4Q28.15 -20.2 28.35 -18.5L28.4 -17.6Q28.4 -16.15 27.85 -14.95L25.2 -15.5L27.35 -14.05Q26.75 -12.7 25 -11.95L23.1 -11.4L23.05 -12.4L22.55 -11.45L22.5 -12.9" />
<path style="fill:none;stroke-width:0.7;stroke-linecap:round;stroke-linejoin:miter;stroke-miterlimit:5;stroke:#000000;stroke-opacity:0.301961" d="M27.45 -21.4L27.25 -21.7L25.6 -23.6Q24.3 -24.7 22.8 -25.05Q20.8 -25.5 19.05 -24.6Q17.3 -23.75 16.35 -21.65Q15.7 -20.35 15.6 -19.4L15.6 -18.6L16.05 -16.6Q16.95 -13.55 19.55 -11.85L20.8 -11" />
<path style="fill:none;stroke-width:0.7;stroke-linecap:round;stroke-linejoin:miter;stroke-miterlimit:5;stroke:#000000;stroke-opacity:0.301961" d="M21.3 -12.3Q21.5 -13 21.1 -13.55L19.25 -14.9Q18.6 -15.2 18.1 -15.9Q17.25 -17.05 17.35 -18.5L17.45 -20.3Q17.9 -22.15 19.5 -23.3Q22 -25.05 24.4 -23.75" />
<path style="fill:none;stroke-width:0.7;stroke-linecap:round;stroke-linejoin:miter;stroke-miterlimit:5;stroke:#000000;stroke-opacity:0.2" d="M22.3 -19.7L23.55 -19.15L25.35 -17.6L26.25 -16.4" />
<path style="fill:none;stroke-width:0.7;stroke-linecap:round;stroke-linejoin:miter;stroke-miterlimit:5;stroke:#000000;stroke-opacity:0.2" d="M17.35 -18.5Q18.75 -19.45 20 -19.7Q20.75 -19.95 22.3 -19.7" />
<path style="fill:none;stroke-width:0.7;stroke-linecap:round;stroke-linejoin:miter;stroke-miterlimit:5;stroke:#000000;stroke-opacity:0.301961" d="M27.45 -21.4Q28.15 -20.2 28.35 -18.5L28.4 -17.6Q28.4 -16.15 27.85 -14.95L25.2 -15.5L27.35 -14.05Q26.75 -12.7 25 -11.95" />
</g>
<g id="PathID_659" transform="matrix(1, 0, 0, 1, 14.65, 25.45)">
<path style="fill:#B6811C;fill-opacity:1" d="M16.4 -19.8L17.25 -20.45Q16.75 -21.4 15.5 -21.4Q16.75 -21.85 17.55 -20.75L18.25 -21.95L18.5 -22.6L18.8 -22.25Q17.6 -20.65 17.55 -18.2Q16.5 -19.55 15.2 -19.2L15.3 -20.7Q15.55 -19.75 16.4 -19.8" />
<path style="fill:#EED046;fill-opacity:1" d="M16 -22.3L16.65 -23.15Q17.75 -23.4 18.5 -22.6L18.25 -21.95Q16.65 -21.6 16 -22.3M15.5 -21.4Q16.75 -21.4 17.25 -20.45L16.4 -19.8Q15.55 -19.75 15.3 -20.7L15.5 -21.4" />
<path style="fill:#FFEFAA;fill-opacity:1" d="M18.25 -21.95L17.55 -20.75Q16.75 -21.85 15.5 -21.4L16 -22.3Q16.65 -21.6 18.25 -21.95" />
<path style="fill:none;stroke-width:0.7;stroke-linecap:round;stroke-linejoin:round;stroke-miterlimit:3;stroke:#000000;stroke-opacity:0.4" d="M15.3 -20.7L15.2 -19.2Q16.5 -19.55 17.55 -18.2Q17.6 -20.65 18.8 -22.25L18.5 -22.6" />
<path style="fill:none;stroke-width:0.7;stroke-linecap:round;stroke-linejoin:round;stroke-miterlimit:3;stroke:#000000;stroke-opacity:0.4" d="M15.3 -20.7L15.5 -21.4L16 -22.3L16.65 -23.15Q17.75 -23.4 18.5 -22.6" />
</g>
<g id="PathID_660" transform="matrix(1, 0, 0, 1, 14.65, 25.45)">
<radialGradient
id="RadialGradID_388" gradientUnits="userSpaceOnUse" gradientTransform="matrix(-0.00230408, 0.000610352, 0.000610352, 0.00230408, 16.85, -8.1)" spreadMethod ="pad" cx="0" cy="0" r="819.2" fx="0" fy="0" >
<stop  offset="0.203922"  style="stop-color:#005C6B;stop-opacity:1" />
<stop  offset="0.501961"  style="stop-color:#3ADBBB;stop-opacity:1" />
<stop  offset="0.968627"  style="stop-color:#9CFFE6;stop-opacity:1" />
</radialGradient>
<path style="fill:url(#RadialGradID_388) " d="M18.3 -8.45L18.6 -8.05L18.35 -7L17.2 -6.2L16.7 -6.4L16.9 -6.9L17.2 -6.8L17.8 -7Q18.05 -7.2 17.9 -7.45L17.6 -8.05L17.4 -8.6L18.3 -8.45" />
<path style="fill:#FFFFFF;fill-opacity:1" d="M17.15 -7.3Q16.85 -7.15 16.7 -7.3L16.5 -7.55L17.4 -8.6L17.6 -8.05Q17.6 -7.55 17.15 -7.3M17.2 -6.2L18.35 -7L18.6 -8.05Q18.8 -7.45 18.5 -6.9Q18.3 -6.55 17.75 -6.35L17.2 -6.2" />
<path style="fill:#000000;fill-opacity:0.4" d="M18.3 -8.45L17.4 -8.6L18.15 -9.3L18.3 -8.45M16.7 -6.4L15.7 -6.7L16.15 -7.2Q16.25 -6.7 16.7 -6.4" />
<path style="fill:#1E252E;fill-opacity:1" d="M17.6 -8.05L17.9 -7.45Q18.05 -7.2 17.8 -7L17.2 -6.8L16.9 -6.9L16.7 -6.4Q16.25 -6.7 16.15 -7.2L16.5 -7.55L16.7 -7.3Q16.85 -7.15 17.15 -7.3Q17.6 -7.55 17.6 -8.05" />
<path style="fill:none;stroke-width:0.7;stroke-linecap:round;stroke-linejoin:round;stroke-miterlimit:3;stroke:#000000;stroke-opacity:0.301961" d="M16.7 -6.4L17.2 -6.2" />
<path style="fill:none;stroke-width:0.7;stroke-linecap:round;stroke-linejoin:round;stroke-miterlimit:3;stroke:#000000;stroke-opacity:0.301961" d="M18.6 -8.05L18.3 -8.45L17.4 -8.6L18.15 -9.3" />
<path style="fill:none;stroke-width:0.7;stroke-linecap:round;stroke-linejoin:round;stroke-miterlimit:3;stroke:#000000;stroke-opacity:0.301961" d="M16.15 -7.2L15.7 -6.7" />
<path style="fill:none;stroke-width:0.7;stroke-linecap:round;stroke-linejoin:round;stroke-miterlimit:3;stroke:#000000;stroke-opacity:0.301961" d="M16.7 -6.4Q16.25 -6.7 16.15 -7.2L16.5 -7.55L17.4 -8.6" />
<path style="fill:none;stroke-width:0.7;stroke-linecap:round;stroke-linejoin:round;stroke-miterlimit:3;stroke:#000000;stroke-opacity:0.301961" d="M18.6 -8.05Q18.8 -7.45 18.5 -6.9Q18.3 -6.55 17.75 -6.35L17.2 -6.2" />
<path style="fill:none;stroke-width:0.7;stroke-linecap:round;stroke-linejoin:round;stroke-miterlimit:3;stroke:#000000;stroke-opacity:0.301961" d="M15.7 -6.7Q15.05 -6.55 15.05 -7.3" />
</g>
<g id="PathID_661" transform="matrix(1, 0, 0, 1, 14.65, 25.45)">
<path style="fill:#101417;fill-opacity:1" d="M7.3 23.65L8.1 23.45Q9.05 23.4 9.1 24.25L9.25 25.4Q8.95 24.1 7.55 24.3L3 24.95Q2.3 25.25 1.95 27.3Q1.85 26.2 2 25.35Q2.25 24.6 2.85 24.5L3.4 24.45L7.3 23.65" />
<path style="fill:#262F36;fill-opacity:1" d="M3.4 24.45Q2.35 24.5 2.35 23.1L3.85 22.8L3.95 23.6L5.75 23.3L6 22.05L7.75 22.1Q8.45 23 7.3 23.65L3.4 24.45M9.4 26.95L9.35 26.4Q9.25 27.5 7.9 28.15L2.25 29.2Q2 28.95 2 28.45L1.85 27.4L-0.3 27.15L-0.4 27.05Q-0.4 26.55 0.5 25.95Q1.35 25.4 2 25.35Q1.85 26.2 1.95 27.3Q2.3 25.25 3 24.95L7.55 24.3Q8.95 24.1 9.25 25.4L9.3 25.95L9.25 25.4L9.1 24.25L11.1 24.55L11.9 25.35Q10.95 26.6 9.4 26.95M9.3 25.95L9.35 26.4L9.3 25.95M1.85 27.4L1.95 27.3L1.85 27.4" />
<path style="fill:#5B5F62;fill-opacity:1" d="M9.45 27.5L9.4 26.95Q10.95 26.6 11.9 25.35L11.9 25.45Q12 25.95 11.05 26.6L9.45 27.5L9.3 28.05Q9.2 28.45 6.6 28.85L2.25 29.2L7.9 28.15Q9.25 27.5 9.35 26.4L9.4 26.95L9.45 27.5M1.85 27.4L2 28.45L0.35 27.8L-0.3 27.15L1.85 27.4" />
<path style="fill:none;stroke-width:0.7;stroke-linecap:round;stroke-linejoin:round;stroke-miterlimit:3;stroke:#000000;stroke-opacity:0.4" d="M2 25.35Q2.25 24.6 2.85 24.5L3.4 24.45Q2.35 24.5 2.35 23.1L3.85 22.8L3.95 23.6L5.75 23.3L6 22.05L7.75 22.1Q8.45 23 7.3 23.65L8.1 23.45Q9.05 23.4 9.1 24.25L11.1 24.55L11.9 25.35L11.9 25.45Q12 25.95 11.05 26.6L9.45 27.5L9.3 28.05Q9.2 28.45 6.6 28.85L2.25 29.2Q2 28.95 2 28.45L0.35 27.8L-0.3 27.15L-0.4 27.05Q-0.4 26.55 0.5 25.95Q1.35 25.4 2 25.35Q1.85 26.2 1.95 27.3" />
<path style="fill:none;stroke-width:0.7;stroke-linecap:round;stroke-linejoin:round;stroke-miterlimit:3;stroke:#000000;stroke-opacity:0.4" d="M9.25 25.4L9.1 24.25" />
<path style="fill:none;stroke-width:0.7;stroke-linecap:round;stroke-linejoin:round;stroke-miterlimit:3;stroke:#000000;stroke-opacity:0.4" d="M3.4 24.45L7.3 23.65" />
<path style="fill:none;stroke-width:0.7;stroke-linecap:round;stroke-linejoin:round;stroke-miterlimit:3;stroke:#000000;stroke-opacity:0.4" d="M9.4 26.95L9.35 26.4" />
<path style="fill:none;stroke-width:0.7;stroke-linecap:round;stroke-linejoin:round;stroke-miterlimit:3;stroke:#000000;stroke-opacity:0.4" d="M9.4 26.95L9.45 27.5" />
<path style="fill:none;stroke-width:0.7;stroke-linecap:round;stroke-linejoin:round;stroke-miterlimit:3;stroke:#000000;stroke-opacity:0.4" d="M9.35 26.4L9.3 25.95L9.25 25.4" />
<path style="fill:none;stroke-width:0.7;stroke-linecap:round;stroke-linejoin:round;stroke-miterlimit:3;stroke:#000000;stroke-opacity:0.4" d="M1.95 27.3L1.85 27.4L2 28.45" />
</g>
<g id="PathID_662" transform="matrix(1, 0, 0, 1, 14.65, 25.45)">
<path style="fill:#FFA835;fill-opacity:1" d="M10.45 25.2Q10.55 25.2 10.7 25.35L10.85 25.6L10.75 25.9L10.45 26L10.15 25.9L10.05 25.6L10.2 25.35L10.45 25.2M1.05 26.7L1.15 27L1.05 27.3L0.7 27.45L0.4 27.35L0.25 27Q0.25 26.8 0.4 26.65Q0.5 26.55 0.7 26.55L1.05 26.7" />
<path style="fill:none;stroke-width:0.7;stroke-linecap:round;stroke-linejoin:round;stroke-miterlimit:3;stroke:#000000;stroke-opacity:0.4" d="M10.45 25.2Q10.55 25.2 10.7 25.35L10.85 25.6L10.75 25.9L10.45 26L10.15 25.9L10.05 25.6L10.2 25.35L10.45 25.2z" />
<path style="fill:none;stroke-width:0.7;stroke-linecap:round;stroke-linejoin:round;stroke-miterlimit:3;stroke:#000000;stroke-opacity:0.4" d="M1.05 26.7L1.15 27L1.05 27.3L0.7 27.45L0.4 27.35L0.25 27Q0.25 26.8 0.4 26.65Q0.5 26.55 0.7 26.55L1.05 26.7z" />
</g>
<g id="PathID_663" transform="matrix(1, 0, 0, 1, 14.65, 25.45)">
<path style="fill:#004E56;fill-opacity:1" d="M11.35 0.45L15 0Q21.2 0 25.6 4.4Q30 8.8 30 15Q30 21.2 25.6 25.6Q23.8 27.4 21.75 28.45L11.35 0.45" />
<path style="fill:#56000E;fill-opacity:1" d="M21.75 28.45Q18.7 30 15 30Q8.8 30 4.4 25.6Q0 21.2 0 15Q0 8.8 4.4 4.4Q7.45 1.35 11.35 0.45L21.75 28.45" />
</g>
<g id="PathID_664" transform="matrix(1, 0, 0, 1, 14.65, 25.45)">
<radialGradient
id="RadialGradID_389" gradientUnits="userSpaceOnUse" gradientTransform="matrix(0.0258484, 0, 0, 0.0258484, 11.65, 8.9)" spreadMethod ="pad" cx="0" cy="0" r="819.2" fx="0" fy="0" >
<stop  offset="0"  style="stop-color:#D7EDFA;stop-opacity:1" />
<stop  offset="0.960784"  style="stop-color:#17B6A8;stop-opacity:1" />
</radialGradient>
<path style="fill:url(#RadialGradID_389) " d="M14.8 18.95Q15.85 22.35 18.9 24.4Q14.25 22.45 12.05 18.95Q8.75 15.9 10.75 15.3Q13.9 15 13.5 11.75Q12.7 9 9.2 5.95Q14 7.5 16.45 9.9Q14.75 6.15 10.85 2.25Q12.8 1.6 15.05 1.6Q20.6 1.6 24.5 5.5Q28.4 9.45 28.4 14.95Q28.4 20.2 24.9 24Q18.55 22.4 14.8 18.95" />
<radialGradient
id="RadialGradID_390" gradientUnits="userSpaceOnUse" gradientTransform="matrix(0.0258484, 0, 0, 0.0258484, 11.65, 8.9)" spreadMethod ="pad" cx="0" cy="0" r="819.2" fx="0" fy="0" >
<stop  offset="0"  style="stop-color:#FAD7EA;stop-opacity:1" />
<stop  offset="0.960784"  style="stop-color:#B61728;stop-opacity:1" />
</radialGradient>
<path style="fill:url(#RadialGradID_390) " d="M24.9 24L24.5 24.35Q20.6 28.3 15.05 28.3Q9.55 28.3 5.6 24.35Q1.75 20.45 1.75 14.95Q1.75 9.45 5.6 5.5Q7.95 3.2 10.85 2.25Q14.75 6.15 16.45 9.9Q14 7.5 9.2 5.95Q12.7 9 13.5 11.75Q13.9 15 10.75 15.3Q8.75 15.9 12.05 18.95Q14.25 22.45 18.9 24.4Q15.85 22.35 14.8 18.95Q18.55 22.4 24.9 24" />
<path style="fill:none;stroke-width:2;stroke-linecap:round;stroke-linejoin:round;stroke-miterlimit:3;stroke:#FFFFFF;stroke-opacity:1" d="M10.85 2.25Q12.8 1.6 15.05 1.6Q20.6 1.6 24.5 5.5Q28.4 9.45 28.4 14.95Q28.4 20.2 24.9 24L24.5 24.35Q20.6 28.3 15.05 28.3Q9.55 28.3 5.6 24.35Q1.75 20.45 1.75 14.95Q1.75 9.45 5.6 5.5Q7.95 3.2 10.85 2.25z" />
</g>
<g id="PathID_665" transform="matrix(1, 0, 0, 1, 14.65, 25.45)">
<path style="fill:#C29A77;fill-opacity:1" d="M11.2 1.9Q11.2 1.5 11.45 1.05L11.8 0.8Q12.55 0.45 12.7 1.05Q12.55 0.45 11.8 0.8Q12.35 -0.1 13.3 -0.6Q16.3 -1.1 15.45 2.25Q14.4 3 12.95 3.15L12.75 4.35L10.45 4.3Q10.6 5.25 9.9 5.5Q8.65 5.15 7.7 4.05Q5.95 3.3 6.65 2.65L7.7 2.35L6.8 1.6Q6.15 0.25 7.3 -0.1L8.95 0.85Q8.75 0.3 8.95 -0.35Q9.6 -1.65 10.6 -0.75Q10.6 1.15 11.2 1.9M12.7 1.05L12.95 2.05L12.95 3.15L12.95 2.05L12.7 1.05" />
<path style="fill:#916C4D;fill-opacity:1" d="M17.8 0.35L16.45 2.6Q14.35 4.95 11.7 5.55L9.9 5.5Q10.6 5.25 10.45 4.3L12.75 4.35L12.95 3.15Q14.4 3 15.45 2.25Q16.3 -1.1 13.3 -0.6Q14.15 -1.05 15.3 -1.15Q16.8 -1.5 17.8 0.35M10.6 -0.75Q10.7 0.3 11.45 1.05Q11.2 1.5 11.2 1.9Q10.6 1.15 10.6 -0.75" />
<path style="fill:none;stroke-width:0.7;stroke-linecap:round;stroke-linejoin:round;stroke-miterlimit:3;stroke:#000000;stroke-opacity:0.4" d="M15.3 -1.15Q14.15 -1.05 13.3 -0.6" />
<path style="fill:none;stroke-width:0.7;stroke-linecap:round;stroke-linejoin:round;stroke-miterlimit:3;stroke:#000000;stroke-opacity:0.4" d="M9.9 5.5L11.7 5.55Q14.35 4.95 16.45 2.6L17.8 0.35" />
<path style="fill:none;stroke-width:0.7;stroke-linecap:round;stroke-linejoin:round;stroke-miterlimit:3;stroke:#000000;stroke-opacity:0.4" d="M9.9 5.5Q8.65 5.15 7.7 4.05Q5.95 3.3 6.65 2.65L7.7 2.35L6.8 1.6Q6.15 0.25 7.3 -0.1L8.95 0.85Q8.75 0.3 8.95 -0.35Q9.6 -1.65 10.6 -0.75Q10.7 0.3 11.45 1.05L11.8 0.8Q12.35 -0.1 13.3 -0.6" />
<path style="fill:none;stroke-width:0.7;stroke-linecap:round;stroke-linejoin:round;stroke-miterlimit:3;stroke:#000000;stroke-opacity:0.4" d="M12.95 3.15L12.95 2.05L12.7 1.05Q12.55 0.45 11.8 0.8" />
<path style="fill:none;stroke-width:0.7;stroke-linecap:round;stroke-linejoin:round;stroke-miterlimit:3;stroke:#000000;stroke-opacity:0.4" d="M11.45 1.05Q11.2 1.5 11.2 1.9" />
</g>
<g id="PathID_666" transform="matrix(1, 0, 0, 1, 14.65, 25.45)">
<path style="fill:#5284AF;fill-opacity:1" d="M-9.5 23.85Q-8.85 25.05 -6.55 24.8L-5.45 26.3Q-9.95 26.15 -10.7 24.85Q-10.5 22.9 -8.65 20L-8.15 21Q-9.35 22.6 -9.5 23.85M-3.05 22.9Q-1.1 18.8 -2 14.35L-1 14.8Q0.2 19.7 -2 23.85L-3.05 22.9" />
<path style="fill:none;stroke-width:0.7;stroke-linecap:round;stroke-linejoin:round;stroke-miterlimit:3;stroke:#000000;stroke-opacity:0.4" d="M-8.15 21L-8.65 20Q-10.5 22.9 -10.7 24.85Q-9.95 26.15 -5.45 26.3L-6.55 24.8Q-8.85 25.05 -9.5 23.85Q-9.35 22.6 -8.15 21z" />
<path style="fill:none;stroke-width:0.7;stroke-linecap:round;stroke-linejoin:round;stroke-miterlimit:3;stroke:#000000;stroke-opacity:0.4" d="M-2 23.85Q0.2 19.7 -1 14.8L-2 14.35Q-1.1 18.8 -3.05 22.9L-2 23.85z" />
</g>
<g id="PathID_667" transform="matrix(1, 0, 0, 1, 14.65, 25.45)">
<path style="fill:#262F36;fill-opacity:1" d="M-9.2 11.4Q-7 11.8 -6.75 12.5Q-9.6 10.25 -8.95 9.15L-8.85 9.15Q-8.35 9.15 -7.75 10Q-7.2 10.9 -7.1 11.55L-9.2 11.4M-6.75 12.5L-6.05 17Q-5.85 18.45 -7.2 18.7L-7.7 18.8L-7.2 18.7L-5.95 18.6Q-5.95 19.75 -6.3 20.5Q-6.65 21.25 -7.1 21.3Q-8.35 20.4 -8.75 18.85L-8.2 18.8L-7.7 18.8L-8.2 18.8Q-9.3 18.7 -9.9 17.35L-11 11.8L-10.2 11.5L-9.2 11.4" />
<path style="fill:#101417;fill-opacity:1" d="M-7.2 18.7Q-5.85 18.45 -6.05 17L-6.75 12.5Q-7 11.8 -9.2 11.4L-7.1 11.55Q-6.35 11.75 -6.3 12.4L-6.2 12.9L-5.45 16.75L-5.25 17.5Q-5.1 18.5 -5.95 18.6L-7.2 18.7" />
<path style="fill:#5B5F62;fill-opacity:1" d="M-9.25 18.85L-8.75 18.85Q-8.35 20.4 -7.1 21.3L-7.2 21.35Q-7.7 21.45 -8.3 20.5L-9.25 18.85L-9.8 18.85Q-10.2 18.65 -10.6 16.15Q-11.05 13.65 -11 11.8L-9.9 17.35Q-9.3 18.7 -8.2 18.8L-8.75 18.85L-9.25 18.85M-10.2 11.5L-9.6 9.85Q-9.35 9.25 -8.95 9.15Q-9.6 10.25 -9.2 11.4L-10.2 11.5" />
<path style="fill:none;stroke-width:0.7;stroke-linecap:round;stroke-linejoin:round;stroke-miterlimit:3;stroke:#000000;stroke-opacity:0.4" d="M-8.95 9.15L-8.85 9.15Q-8.35 9.15 -7.75 10Q-7.2 10.9 -7.1 11.55Q-6.35 11.75 -6.3 12.4L-6.2 12.9" />
<path style="fill:none;stroke-width:0.7;stroke-linecap:round;stroke-linejoin:round;stroke-miterlimit:3;stroke:#000000;stroke-opacity:0.4" d="M-5.45 16.75L-5.25 17.5Q-5.1 18.5 -5.95 18.6Q-5.95 19.75 -6.3 20.5Q-6.65 21.25 -7.1 21.3L-7.2 21.35Q-7.7 21.45 -8.3 20.5L-9.25 18.85L-9.8 18.85Q-10.2 18.65 -10.6 16.15Q-11.05 13.65 -11 11.8L-10.2 11.5L-9.6 9.85Q-9.35 9.25 -8.95 9.15" />
<path style="fill:none;stroke-width:0.7;stroke-linecap:round;stroke-linejoin:round;stroke-miterlimit:3;stroke:#000000;stroke-opacity:0.4" d="M-9.2 11.4L-7.1 11.55" />
<path style="fill:none;stroke-width:0.7;stroke-linecap:round;stroke-linejoin:round;stroke-miterlimit:3;stroke:#000000;stroke-opacity:0.4" d="M-9.2 11.4L-10.2 11.5" />
<path style="fill:none;stroke-width:0.7;stroke-linecap:round;stroke-linejoin:round;stroke-miterlimit:3;stroke:#000000;stroke-opacity:0.4" d="M-7.2 18.7L-5.95 18.6" />
<path style="fill:none;stroke-width:0.7;stroke-linecap:round;stroke-linejoin:round;stroke-miterlimit:3;stroke:#000000;stroke-opacity:0.4" d="M-8.2 18.8L-7.7 18.8L-7.2 18.7" />
<path style="fill:none;stroke-width:0.7;stroke-linecap:round;stroke-linejoin:round;stroke-miterlimit:3;stroke:#000000;stroke-opacity:0.4" d="M-8.75 18.85L-9.25 18.85" />
<path style="fill:none;stroke-width:0.7;stroke-linecap:round;stroke-linejoin:round;stroke-miterlimit:3;stroke:#000000;stroke-opacity:0.4" d="M-8.75 18.85L-8.2 18.8" />
</g>
<g id="PathID_668" transform="matrix(1, 0, 0, 1, 14.65, 25.45)">
<path style="fill:#FFA835;fill-opacity:1" d="M-9.25 10.35L-9.15 10L-8.8 9.85L-8.45 9.95L-8.3 10.35L-8.45 10.6L-8.8 10.75L-9.15 10.65L-9.25 10.35M-7.1 20.3L-7.35 20.45L-7.65 20.35L-7.75 20.05L-7.6 19.75L-7.35 19.65L-7.05 19.75L-6.95 20.05L-7.1 20.3" />
<path style="fill:none;stroke-width:0.7;stroke-linecap:round;stroke-linejoin:round;stroke-miterlimit:3;stroke:#000000;stroke-opacity:0.4" d="M-9.25 10.35L-9.15 10L-8.8 9.85L-8.45 9.95L-8.3 10.35L-8.45 10.6L-8.8 10.75L-9.15 10.65L-9.25 10.35z" />
<path style="fill:none;stroke-width:0.7;stroke-linecap:round;stroke-linejoin:round;stroke-miterlimit:3;stroke:#000000;stroke-opacity:0.4" d="M-7.1 20.3L-7.35 20.45L-7.65 20.35L-7.75 20.05L-7.6 19.75L-7.35 19.65L-7.05 19.75L-6.95 20.05L-7.1 20.3z" />
</g>
<g id="PathID_669" transform="matrix(1, 0, 0, 1, 14.65, 25.45)">
<path style="fill:#262F36;fill-opacity:1" d="M-10.2 13.3Q-11.8 12.9 -13.75 11.3Q-12.4 10.55 -9.05 10.45L-7.5 11.4Q-7.4 12.85 -10.2 13.3" />
<path style="fill:#101417;fill-opacity:1" d="M-13.75 11.3Q-11.8 12.9 -10.2 13.3Q-7.4 12.85 -7.5 11.4L-5.4 12.75L-7.05 14Q-11 15.15 -13.6 12.25Q-15 11.15 -14.5 10.75L-13.75 11.3" />
<path style="fill:#5B5F62;fill-opacity:1" d="M-14.5 10.75Q-14.3 10.5 -13.7 10.35Q-12.05 10.45 -10.6 9.5L-9.05 10.45Q-12.4 10.55 -13.75 11.3L-14.5 10.75" />
<path style="fill:none;stroke-width:0.7;stroke-linecap:round;stroke-linejoin:round;stroke-miterlimit:3;stroke:#000000;stroke-opacity:0.4" d="M-9.05 10.45L-7.5 11.4L-5.4 12.75L-7.05 14Q-11 15.15 -13.6 12.25Q-15 11.15 -14.5 10.75Q-14.3 10.5 -13.7 10.35Q-12.05 10.45 -10.6 9.5L-9.05 10.45z" />
</g>
<g id="PathID_670" transform="matrix(1, 0, 0, 1, 14.65, 25.45)">
<path style="fill:#13181C;fill-opacity:1" d="M2.45 5.8Q4.15 4.5 4.65 2.65Q6.45 4.05 4.2 6.2L2 7.35Q2.75 6.4 2.45 5.8" />
<path style="fill:#EE638C;fill-opacity:1" d="M2 7.35L-0.3 7.25Q1.35 6.7 2.45 5.8Q2.75 6.4 2 7.35" />
<path style="fill:#262F36;fill-opacity:1" d="M2 7.35L4.2 6.2Q6.45 4.05 4.65 2.65Q5.3 2.05 6.4 3.6Q7.9 6.5 4.55 8.75Q2.65 10.05 0.05 8.5L-0.3 7.25L2 7.35" />
<path style="fill:none;stroke-width:0.7;stroke-linecap:round;stroke-linejoin:round;stroke-miterlimit:3;stroke:#000000;stroke-opacity:0.4" d="M4.65 2.65Q5.3 2.05 6.4 3.6Q7.9 6.5 4.55 8.75Q2.65 10.05 0.05 8.5L-0.3 7.25Q1.35 6.7 2.45 5.8Q4.15 4.5 4.65 2.65Q6.45 4.05 4.2 6.2L2 7.35L-0.3 7.25" />
</g>
<g id="PathID_671" transform="matrix(1, 0, 0, 1, 14.65, 25.45)">
<path style="fill:#262F36;fill-opacity:1" d="M-2.8 1.35Q-2.85 3.85 -1.85 5.75L-3.25 3.8L-3.9 2.95Q-4.1 0.8 -3.5 -0.35Q-1.85 -1.95 0.4 -3.25L1.8 -3.35L0.1 -1.9Q-1.45 -0.55 -2.8 1.35" />
<path style="fill:#EE638C;fill-opacity:1" d="M-1.7 2.15Q-2.15 3.95 -1.85 5.75Q-2.85 3.85 -2.8 1.35Q-2.1 1.2 -1.7 2.15" />
<path style="fill:#13181C;fill-opacity:1" d="M0.1 -1.9Q-1.3 0.1 -1.7 2.15Q-2.1 1.2 -2.8 1.35Q-1.45 -0.55 0.1 -1.9" />
<path style="fill:#5B5F62;fill-opacity:1" d="M-3.9 2.95Q-4.65 1.35 -4.1 -0.7Q-1.85 -2.75 0.4 -3.25Q-1.85 -1.95 -3.5 -0.35Q-4.1 0.8 -3.9 2.95" />
<path style="fill:none;stroke-width:0.7;stroke-linecap:round;stroke-linejoin:round;stroke-miterlimit:3;stroke:#000000;stroke-opacity:0.4" d="M0.4 -3.25L1.8 -3.35L0.1 -1.9Q-1.3 0.1 -1.7 2.15Q-2.15 3.95 -1.85 5.75L-3.25 3.8L-3.9 2.95Q-4.65 1.35 -4.1 -0.7Q-1.85 -2.75 0.4 -3.25z" />
<path style="fill:none;stroke-width:0.7;stroke-linecap:round;stroke-linejoin:round;stroke-miterlimit:3;stroke:#000000;stroke-opacity:0.4" d="M-2.8 1.35Q-2.85 3.85 -1.85 5.75" />
<path style="fill:none;stroke-width:0.7;stroke-linecap:round;stroke-linejoin:round;stroke-miterlimit:3;stroke:#000000;stroke-opacity:0.4" d="M-2.8 1.35Q-1.45 -0.55 0.1 -1.9" />
</g>
<g id="PathID_672" transform="matrix(1, 0, 0, 1, 14.65, 25.45)">
<path style="fill:#101417;fill-opacity:1" d="M1.9 14.3Q1.05 12.4 -1.45 13.45L-2 13.25L0.8 12.35Q2.15 12.3 3 13.6L1.9 14.3" />
<path style="fill:#5B5F62;fill-opacity:1" d="M4.1 12.9Q3.45 11.15 1.4 10.7Q3.85 10.85 4.95 12.3L4.1 12.9M-2.3 16.5Q-1.7 14.45 -2.55 13L-2 13.25L-1.45 13.45Q-0.95 14.85 -1.5 16.1L-2.3 16.5" />
<path style="fill:#262F36;fill-opacity:1" d="M-2.55 13Q-1.7 14.45 -2.3 16.5Q-3.7 17.05 -5.15 17.1Q-4.25 14.75 -4.85 12.9Q-2.1 12.65 1.4 10.7Q3.45 11.15 4.1 12.9L3 13.6Q2.15 12.3 0.8 12.35L-2 13.25L-2.55 13" />
<path style="fill:none;stroke-width:0.7;stroke-linecap:round;stroke-linejoin:round;stroke-miterlimit:3;stroke:#000000;stroke-opacity:0.4" d="M3 13.6L4.1 12.9" />
<path style="fill:none;stroke-width:0.7;stroke-linecap:round;stroke-linejoin:round;stroke-miterlimit:3;stroke:#000000;stroke-opacity:0.4" d="M1.4 10.7Q-2.1 12.65 -4.85 12.9Q-4.25 14.75 -5.15 17.1Q-3.7 17.05 -2.3 16.5" />
<path style="fill:none;stroke-width:0.7;stroke-linecap:round;stroke-linejoin:round;stroke-miterlimit:3;stroke:#000000;stroke-opacity:0.4" d="M-1.45 13.45Q1.05 12.4 1.9 14.3L3 13.6" />
<path style="fill:none;stroke-width:0.7;stroke-linecap:round;stroke-linejoin:round;stroke-miterlimit:3;stroke:#000000;stroke-opacity:0.4" d="M1.4 10.7Q3.85 10.85 4.95 12.3L4.1 12.9" />
<path style="fill:none;stroke-width:0.7;stroke-linecap:round;stroke-linejoin:round;stroke-miterlimit:3;stroke:#000000;stroke-opacity:0.4" d="M-1.45 13.45Q-0.95 14.85 -1.5 16.1L-2.3 16.5" />
</g>
<g id="PathID_673" transform="matrix(1, 0, 0, 1, 14.65, 25.45)">
<path style="fill:#FF3F77;fill-opacity:1" d="M-1.1 4.75L-0.2 5.65L0.25 6.75L-0.1 7.55Q-0.45 7.75 -0.95 7.35L-1.9 6.5Q-2.35 5.9 -2.3 5.3Q-2.45 4.85 -2.05 4.6L-1.1 4.75M-1.3 5.8Q-0.9 6.9 -0.45 6.75Q-0.05 6.5 -0.5 5.75Q-0.85 4.95 -1.25 5.1Q-1.65 5.15 -1.3 5.8" />
<path style="fill:#FFFFFF;fill-opacity:1" d="M-1.25 5.1Q-0.85 4.95 -0.5 5.75Q-0.05 6.5 -0.45 6.75Q-0.9 6.9 -1.3 5.8Q-1.65 5.15 -1.25 5.1" />
</g>
<g id="PathID_674" transform="matrix(1, 0, 0, 1, 14.65, 25.45)">
<path style="fill:#262F36;fill-opacity:1" d="M0.25 10.2L0.2 9.6L-0.4 9.45L-0.9 9.6L-1.25 10L-1.1 10.7L0.05 10.6L0.25 10.2M-5.2 12.75Q-7.35 11.9 -10.15 9.85Q-10.55 8.1 -8.3 7.85Q-7.5 8.95 -6.05 9.45Q-4.6 10 -2.95 8.6Q-2.55 8.5 -2.45 8.1L-2.3 7.5Q-1 8.55 -3.9 10.4Q-1 8.55 -2.3 7.5L-3 6.4Q-2.55 6.1 -3.1 5.45L-0.8 7.05L1.3 9.25Q2.05 9.8 1.4 10.65L0.25 11.6L-5.2 12.75" />
<path style="fill:#939393;fill-opacity:1" d="M0.05 10.6L-1.1 10.7L-1.25 10L-0.9 9.6L-0.4 9.45L0.2 9.6L0.25 10.2L0.05 10.6" />
<path style="fill:#5B5F62;fill-opacity:1" d="M-4.45 7.05L-8.3 7.85Q-10.55 8.1 -10.15 9.85L-10.05 10.25L-10.6 9.6Q-12.6 8 -9.7 6.95Q-6.35 5.85 -4.5 3.6Q-3.7 2.85 -2.75 4.15L-0.8 7.05L-3.1 5.45Q-2.55 6.1 -3 6.4L-4.45 7.05M-3.6 5L-3.1 5.45L-3.6 5" />
<path style="fill:#FFFFFF;fill-opacity:1" d="M-4.45 7.05Q-5.1 7.6 -4.4 8.3Q-3.8 8.9 -2.95 8.6Q-4.6 10 -6.05 9.45Q-7.5 8.95 -8.3 7.85L-4.45 7.05" />
<path style="fill:#FF0213;fill-opacity:1" d="M-3 6.4L-2.3 7.5L-2.45 8.1Q-2.55 8.5 -2.95 8.6Q-3.8 8.9 -4.4 8.3Q-5.1 7.6 -4.45 7.05L-3 6.4" />
<path style="fill:#101417;fill-opacity:1" d="M-10.15 9.85Q-7.35 11.9 -5.2 12.75L0.25 11.6Q-2.2 13.3 -5.45 13.65Q-7.85 12.6 -10.05 10.25L-10.15 9.85" />
<path style="fill:none;stroke-width:0.7;stroke-linecap:round;stroke-linejoin:round;stroke-miterlimit:3;stroke:#000000;stroke-opacity:0.4" d="M-0.8 7.05L1.3 9.25Q2.05 9.8 1.4 10.65L0.25 11.6Q-2.2 13.3 -5.45 13.65Q-7.85 12.6 -10.05 10.25L-10.6 9.6Q-12.6 8 -9.7 6.95Q-6.35 5.85 -4.5 3.6Q-3.7 2.85 -2.75 4.15L-0.8 7.05z" />
<path style="fill:none;stroke-width:0.7;stroke-linecap:round;stroke-linejoin:round;stroke-miterlimit:3;stroke:#000000;stroke-opacity:0.4" d="M-3.1 5.45Q-2.55 6.1 -3 6.4L-2.3 7.5Q-1 8.55 -3.9 10.4" />
<path style="fill:none;stroke-width:0.7;stroke-linecap:round;stroke-linejoin:round;stroke-miterlimit:3;stroke:#000000;stroke-opacity:0.4" d="M-3.1 5.45L-3.6 5" />
<path style="fill:none;stroke-width:0.7;stroke-linecap:round;stroke-linejoin:round;stroke-miterlimit:3;stroke:#000000;stroke-opacity:0.4" d="M-2.95 8.6Q-4.6 10 -6.05 9.45Q-7.5 8.95 -8.3 7.85" />
<path style="fill:none;stroke-width:0.7;stroke-linecap:round;stroke-linejoin:round;stroke-miterlimit:3;stroke:#000000;stroke-opacity:0.4" d="M-2.3 7.5L-2.45 8.1Q-2.55 8.5 -2.95 8.6Q-3.8 8.9 -4.4 8.3Q-5.1 7.6 -4.45 7.05L-8.3 7.85" />
<path style="fill:none;stroke-width:0.7;stroke-linecap:round;stroke-linejoin:round;stroke-miterlimit:3;stroke:#000000;stroke-opacity:0.4" d="M-4.45 7.05L-3 6.4" />
</g>
<g id="PathID_675" transform="matrix(1, 0, 0, 1, 14.65, 25.45)">
<path style="fill:#EE638C;fill-opacity:1" d="M5.55 -10.7L5.65 -9.8L5.8 -8.8L5.95 -8.1L5.45 -8.8Q5.15 -9.6 5.2 -10L5.55 -10.7M5.5 -6.8Q4.45 -6.25 4 -5.2L3.95 -4.85L3.1 -4.65Q1.95 -4.15 2.25 -3.35Q1.7 -2.7 1.9 -2.15Q2.15 -0.8 0.65 0.1Q1.55 1.65 -0.35 2.5L-0.5 2.5L-0.45 2.35Q0.85 1.45 0.45 0.55L-0.35 0.1L1.3 -0.65L1.25 -2.65Q1.25 -3.85 3.3 -4.9L4 -5.8L5.5 -6.95L6.1 -7.45L6.3 -6.9L5.5 -6.8M3.05 -6.55Q3.15 -6.2 3.75 -5.95L3.05 -6.35L3.05 -6.55M4.9 -2.05Q4.9 -1.75 5.4 -0.2L5.4 -0.3L6.1 -1.7L6.35 -1.7L6.5 -1.4Q6.8 -1.55 7.1 -2.25Q7.25 -2.95 8.2 -3.3L8.95 -3.25L10.2 -3.4L10.1 -3.4L9.1 -4.7Q9 -4.75 9.05 -5.05L9.85 -5.7Q9.6 -5.2 9.7 -5L10.8 -3.35Q10.95 -3.05 10.7 -2.85L8.15 -2.9Q7.4 -2.55 7.2 -1.85L6.45 -1.1L6.05 -1.15L4.65 1.65L4.6 1.65Q4.65 1.05 5.35 -0.05L5.1 -0.15L4.8 -2L4.9 -2.05M11.1 -7.4L10.85 -7.1L10.95 -7.55L11.1 -7.4M12.9 9.1L11.6 9.6Q8.7 10.6 8.3 9.65L8.3 9.2L6.2 11.45L6 11.4L5.9 11.25Q6.05 10.95 5.85 10.6Q5.65 10.1 4.75 10.05L4.55 10.15L4.05 9.7L3.5 9.5L3.7 9.25L3.8 9.25Q3.9 9.7 4.9 9.9Q6.05 9.9 6.25 10.4L6.3 11L6.45 10.95Q6.7 10.4 8.65 8.2L8.95 8.2Q9.2 8.65 8.85 9.35Q9 9.9 12.5 8.8L15.25 8.15L14.8 8.25L14.35 8.6L13.5 8.85L12.9 9.1M16.6 8.2L15.75 8Q16.65 8 17.1 8.35L16.8 8.3Q16.8 8.2 16.6 8.2M0 19.8Q-1.3 19.15 -1.4 18.7L-1.3 18.7Q-1.25 19.05 0 19.6Q1.1 20.05 1.75 20.1Q2.4 20.1 2.45 20.7L2.35 21.5L3.05 21.55L3.35 21.9L3.25 22.15L3.1 22.2L2.15 21.95Q1.95 21.9 1.95 21.65L2.2 20.75L1.9 20.35L1.45 20.35Q1.05 20.35 0 19.8M1.6 28.65L3.25 28.5L3.3 28.6Q2.9 29.25 0.9 29.25Q0.05 29.2 -0.55 27.45L-2.05 28.9Q-2.5 29.35 -3.1 29.3Q-3.95 29.25 -4.05 28.8L-3.95 28.15L-3.95 28.05L-4.4 28.25L-4.7 28.05L-4.95 27.25L-5.45 26.75L-5.65 25.95L-5.6 25.95L-5.2 26.55L-4.95 27.25L-4.4 27.8L-4.1 27.6L-3.75 27.35L-3.55 28.05L-3.4 28.95L-2.7 28.95Q-1.75 28.75 -1.7 28.1Q-1.65 27.6 -1.1 27.65L-0.65 27.1Q-0.45 27.25 0 28.1Q0.45 28.95 0.85 28.95L1.15 28.85L1.6 28.65M-8.15 -2.5Q-7.9 -3.3 -8 -3.95Q-8 -4.8 -6 -6.7L-7.05 -4.45Q-7.85 -2.35 -7.55 -1.55L-6.8 -0.75Q-6.65 -0.4 -7.1 0.35L-5.8 0.4Q-5.35 0.25 -5.1 0.6Q-4.95 1 -5.4 1.3L-5.6 1.3L-5.35 0.7L-7.65 0.45Q-6.9 -0.1 -7.1 -0.65L-8 -1.35Q-8.25 -1.9 -8.15 -2.5M-11.3 15L-11.95 16.35L-12 16.4L-11.75 16.3Q-11.4 16.35 -11.45 16.65L-11.65 17Q-11.05 17.15 -11.1 17.8L-11.4 18.75L-10.9 19.7L-10.8 19.85L-11.5 20Q-12.4 19.95 -12.25 18.6L-12 17.9L-11.95 17.8Q-12.45 17.75 -12.4 17.2Q-12.35 16 -11.4 14.85L-11.35 14.85L-11.3 15M-10.55 20.5L-10.55 20.15L-10.3 20.65L-9.35 21.55L-8.1 22.3L-8.15 22.35L-9.65 21.8L-10.45 21.25L-10.55 20.5" />
</g>
<g id="PathID_676" transform="matrix(1, 0, 0, 1, 14.65, 25.45)">
<path style="fill:#5B5F62;fill-opacity:1" d="M-1.8 27.45L-1.45 27.15Q-0.15 28.05 1.4 27.9L1.35 28L0 28.05L-1.8 27.45L-2.3 27.8Q-2.7 27.9 -4.65 26.3L-7.8 23.35L-3.3 26.8L-1.1 26.7L-1.45 27.15L-1.8 27.45M-6.8 21.85L-7.5 22.55L-8.1 20.95Q-8.3 20.3 -8.1 20Q-7.8 21.25 -6.8 21.85" />
<path style="fill:#262F36;fill-opacity:1" d="M-1.45 27.15L-1.1 26.7L-0.7 26.35L-0.4 26L0.45 25.1Q1.2 25.9 1.5 26.75Q1.7 27.5 1.4 27.9Q-0.15 28.05 -1.45 27.15M-0.7 26.35L-1.1 26.7L-3.3 26.8L-7.8 23.35Q-7.85 23 -7.5 22.55L-6.8 21.85Q-7.8 21.25 -8.1 20L-8 19.95L-6.65 19.85Q-5.6 20.1 -5.1 20.6Q-5.95 21.05 -6.8 21.8L-6.8 21.85Q-4.95 20.65 -4.2 21.05L-0.7 23.95Q0.4 24.85 -0.4 26L-0.7 26.35M-3.55 20.9Q-4.25 20.2 -3.3 19.25L-2.05 20.2L-2.6 20.8L-1.15 21.95L-0.05 21.35L1.1 22.65Q0.9 23.7 -0.4 23.35L-3.55 20.9" />
<path style="fill:#101417;fill-opacity:1" d="M-0.4 26Q0.4 24.85 -0.7 23.95L-4.2 21.05Q-4.95 20.65 -6.8 21.85L-6.8 21.8Q-5.95 21.05 -5.1 20.6L-3.9 20.65L-3.55 20.9L-0.4 23.35L0.3 23.8Q1.05 24.45 0.45 25.1L-0.4 26" />
<path style="fill:none;stroke-width:0.7;stroke-linecap:round;stroke-linejoin:round;stroke-miterlimit:3;stroke:#000000;stroke-opacity:0.4" d="M-0.4 23.35L0.3 23.8Q1.05 24.45 0.45 25.1Q1.2 25.9 1.5 26.75Q1.7 27.5 1.4 27.9L1.35 28L0 28.05L-1.8 27.45L-2.3 27.8Q-2.7 27.9 -4.65 26.3L-7.8 23.35Q-7.85 23 -7.5 22.55L-8.1 20.95Q-8.3 20.3 -8.1 20L-8 19.95L-6.65 19.85Q-5.6 20.1 -5.1 20.6L-3.9 20.65L-3.55 20.9Q-4.25 20.2 -3.3 19.25L-2.05 20.2L-2.6 20.8L-1.15 21.95L-0.05 21.35L1.1 22.65Q0.9 23.7 -0.4 23.35L-3.55 20.9" />
<path style="fill:none;stroke-width:0.7;stroke-linecap:round;stroke-linejoin:round;stroke-miterlimit:3;stroke:#000000;stroke-opacity:0.4" d="M-7.5 22.55L-6.8 21.85" />
<path style="fill:none;stroke-width:0.7;stroke-linecap:round;stroke-linejoin:round;stroke-miterlimit:3;stroke:#000000;stroke-opacity:0.4" d="M-6.8 21.85L-6.8 21.8Q-5.95 21.05 -5.1 20.6" />
<path style="fill:none;stroke-width:0.7;stroke-linecap:round;stroke-linejoin:round;stroke-miterlimit:3;stroke:#000000;stroke-opacity:0.4" d="M-1.1 26.7L-0.7 26.35L-0.4 26L0.45 25.1" />
<path style="fill:none;stroke-width:0.7;stroke-linecap:round;stroke-linejoin:round;stroke-miterlimit:3;stroke:#000000;stroke-opacity:0.4" d="M-1.45 27.15L-1.1 26.7" />
<path style="fill:none;stroke-width:0.7;stroke-linecap:round;stroke-linejoin:round;stroke-miterlimit:3;stroke:#000000;stroke-opacity:0.4" d="M-1.45 27.15L-1.8 27.45" />
</g>
<g id="PathID_677" transform="matrix(1, 0, 0, 1, 14.65, 25.45)">
<path style="fill:#FFA835;fill-opacity:1" d="M0.6 26.7L0.7 27L0.55 27.3L0.3 27.35L0 27.25L-0.1 26.95L0.05 26.65L0.35 26.55L0.6 26.7M-7.3 21.15L-7.65 21L-7.75 20.65L-7.6 20.35Q-7.45 20.2 -7.25 20.2Q-7.05 20.25 -6.9 20.4L-6.8 20.7L-6.95 21.05L-7.3 21.15" />
<path style="fill:none;stroke-width:0.7;stroke-linecap:round;stroke-linejoin:round;stroke-miterlimit:3;stroke:#000000;stroke-opacity:0.4" d="M0.6 26.7L0.7 27L0.55 27.3L0.3 27.35L0 27.25L-0.1 26.95L0.05 26.65L0.35 26.55L0.6 26.7z" />
<path style="fill:none;stroke-width:0.7;stroke-linecap:round;stroke-linejoin:round;stroke-miterlimit:3;stroke:#000000;stroke-opacity:0.4" d="M-7.3 21.15L-7.65 21L-7.75 20.65L-7.6 20.35Q-7.45 20.2 -7.25 20.2Q-7.05 20.25 -6.9 20.4L-6.8 20.7L-6.95 21.05L-7.3 21.15z" />
</g>
<g id="PathID_678" transform="matrix(1, 0, 0, 1, 14.65, 25.45)">
<path style="fill:#FFE15B;fill-opacity:1" d="M14 -23.4Q13.3 -23.95 13.65 -24.4L14.5 -24.35Q15 -23.85 14.7 -23.45L14 -23.4M8 -6.55Q7.7 -6.15 7.3 -6.45Q6.85 -6.8 7.2 -7.45Q7.55 -7.9 7.95 -7.45Q8.35 -7 8 -6.55M1.85 -4.25Q2.35 -4.9 2.8 -4.6Q3.25 -4.25 2.9 -3.8L2.55 -3.55Q2.2 -3.35 1.95 -3.55Q1.6 -3.85 1.85 -4.25M27.5 -15.75Q27.25 -15.95 27.3 -16.25L27.35 -16.5L28.1 -16.55Q28.45 -16.25 28.15 -15.85Q27.85 -15.45 27.5 -15.75M26.7 -3.5Q26.35 -3.75 26.4 -4.1L26.6 -4.5L27.75 -4.6Q28.35 -4.15 27.9 -3.55L26.7 -3.5" />
<path style="fill:#41F2F7;fill-opacity:1" d="M8.65 -20Q8.35 -19.6 7.8 -20Q7 -20.65 7.3 -21.25Q7.6 -21.65 8.05 -21.25Q9.05 -20.5 8.65 -20M3.1 -8.95Q2.65 -9.3 2.95 -9.65L3.7 -9.7Q4.15 -9.35 3.85 -8.95Q3.55 -8.6 3.1 -8.95M27.95 -22.25L27.5 -22.3Q27.25 -22.45 27.3 -22.75L27.45 -23Q27.8 -23.45 28.2 -23.15Q28.6 -22.85 28.25 -22.45L27.95 -22.25M29.8 -11.6L29.9 -11.95L30.5 -12.2L31.45 -12.05Q32 -11.6 31.55 -11.05Q31.4 -10.85 30.9 -10.75L30.05 -10.95Q29.7 -11.25 29.8 -11.6" />
</g>
</svg>
