<?xml version="1.0" encoding="utf-8"?>
<svg version="1.1" id="Layer_1"
xmlns="http://www.w3.org/2000/svg"
xmlns:xlink="http://www.w3.org/1999/xlink"
width="160px" height="205px"
xml:space="preserve">
<g id="PathID_670" transform="matrix(1, 0, 0, 1, 80.15, 208)">
<path style="fill:#CBE0F1;fill-opacity:1" d="M2.35 -200.3Q-0.35 -199.15 -2 -199.15L-3.45 -199.2L-5.4 -199.7Q-7.1 -200.5 -7.1 -202.6Q-7.1 -204.9 -4.35 -204.95Q-1.2 -205 -0.3 -208L2.95 -205.3Q5.2 -203.2 5.2 -202.6Q5.2 -201.55 2.45 -200.3L2.35 -200.3M9.35 -191.65L7.45 -191.05L5.9 -191.35L4.3 -191.65Q3.25 -191.65 1.4 -190.45Q-0.5 -189.2 -2.5 -188.85Q-3.05 -187.9 -3.85 -187.9Q-5.55 -187.9 -7.25 -192.4L-7.55 -193.45L-8.9 -197.35L-6.9 -197.35Q-5.55 -196.8 -3.75 -195.2Q-1.75 -193.45 -1.45 -192.05Q0.35 -194.4 1.9 -195.5Q2.95 -196.25 4.1 -196.55L6.05 -196.85Q7.7 -196.85 8.8 -195.6L10.9 -192.85Q10.75 -192.4 9.55 -191.75L9.35 -191.65M1.45 -177.95L4.3 -178.35Q7.6 -178.5 8.35 -179.65Q9.25 -180.95 11.45 -181.9L12.2 -182.2L16.05 -183.35L16.05 -181.9Q13.45 -179.25 12 -176.55Q10.9 -174.65 10.45 -172.75Q10.2 -171.6 9.4 -171.35L5.05 -171.05Q3.6 -171.05 1.95 -169.25L-0.3 -167L-3.15 -167L-3.15 -168.3L-3.15 -169.6Q-0.25 -175.55 1.45 -177.95M16.95 -155.8Q15.2 -155.95 12.7 -154.35Q10.2 -152.7 9.25 -152.65L9.2 -152.65L7.2 -152.95Q6.1 -153.45 6.1 -155.1Q6.1 -156.45 7.85 -157.8L11.3 -160.6L12.45 -161.05L16.35 -162.4L15.4 -163.45Q14.7 -163 13.8 -162.7L11.3 -160.6L10.2 -160.2Q5.4 -158.35 4 -158.35Q3.4 -158.35 2.85 -158.65Q2.05 -159.1 2.05 -160.15L2.1 -160.9Q2.7 -164.25 8.55 -165.5L9.35 -166.65Q10 -167.8 11.65 -167.8L13.5 -167.6L13.5 -167.3L13.35 -166.4L13.2 -165.25L15.2 -163.6L15.4 -163.45L16.25 -164.15Q16.8 -164.65 18.5 -164.65L20.7 -164.4Q22.45 -164.05 22.45 -163.15Q22.45 -162.6 21.85 -161.55Q21.15 -160.35 20.95 -159.55Q21.85 -159.5 22.55 -159Q23.25 -158.5 23.25 -158.05L20.25 -156.6Q19 -156 18 -155.85L16.95 -155.8M28.3 -142.9Q26.9 -141.2 25.55 -141.2Q24.7 -141.2 23 -141.9L20.35 -142.6Q19 -142.6 16.9 -140Q15.1 -137.75 12.4 -138.85Q13.1 -137.35 12.95 -136.35Q12.75 -135.1 11.2 -135.1Q10.9 -135.1 10 -135.75L9.6 -136.05L7.75 -137.15L5.4 -137.3L3.15 -137.45L3.15 -139.75L3.6 -140.8L3.95 -141.45Q6.7 -142.55 11.65 -144.75L15.8 -146.65L18.85 -146.25L19.1 -146.2L22.25 -145.75Q23.9 -145.75 26.15 -146.75Q28.4 -147.8 30 -147.8L33.85 -147.2Q37 -146.3 37 -144.75Q37 -143.45 36.45 -142.9Q35.35 -142.55 34.05 -143.5Q32.55 -144.65 31.15 -144.65Q30 -144.65 28.85 -143.5L28.3 -142.9M-8.95 -120Q-9.7 -120.75 -10.05 -123.1L-16.05 -123.4L-16.05 -125.05L-14.85 -126.2L-13.7 -127.4Q-14.35 -127.75 -14.75 -128.65L-15.1 -129.45Q-15.6 -131.1 -16.35 -131.65L-19.45 -132.35Q-22.1 -132.95 -22.1 -134.05Q-22.1 -134.4 -20.3 -135.7Q-18.4 -137.15 -17.35 -137.15Q-15.9 -137.15 -10.7 -131.55Q-5.5 -125.95 -2.3 -125.95Q4.85 -125.95 9.65 -127.1L12.3 -127.95Q17.6 -129.95 22.35 -130L22.55 -130L27.25 -129.7Q30.4 -129.05 30.4 -127.15Q30.4 -125.05 29.05 -124.55L25.55 -124.25L21.25 -124.85Q19.3 -124.85 18.5 -122.8Q17.7 -120.8 16.75 -120.8Q16.3 -120.8 14.8 -121.5L12.8 -122.2L12.15 -122.1L10.65 -121.35Q9.5 -120.55 8.6 -120.55Q7.75 -120.55 6.6 -121.1Q5.5 -121.7 5.05 -121.7Q3.35 -121.7 2.4 -120.95Q1.45 -120.15 0.6 -117.95Q-0.65 -118.45 -1.6 -119.3Q-2.3 -119.95 -3 -119.95L-4.55 -119.65L-6.15 -119.35L-7.75 -119.45Q-8.55 -119.65 -8.95 -120M-33.1 -109.9L-29.55 -110.2Q-28.95 -109.55 -22.05 -109.55Q-19.35 -109.2 -17.75 -108.3Q-15.5 -106.95 -15.5 -104.35Q-15.5 -102.9 -16.05 -102.4Q-16.6 -101.9 -18.2 -101.9Q-20 -101.9 -20.65 -102.5L-22.95 -105.05Q-23.9 -103.25 -24.95 -102.7Q-26.6 -104.25 -30.2 -105.05L-34 -105.55L-36.5 -105Q-37.85 -104.45 -40 -104.45L-40.4 -104.45Q-43.15 -104.5 -43.95 -105.2Q-44.9 -106.1 -44.45 -109L-47.85 -109.45Q-51.05 -110.05 -51.05 -111.2Q-51.05 -111.9 -50.45 -112.75Q-49.65 -113.95 -48.2 -113.95Q-45.9 -113.95 -42.5 -111.75Q-39.15 -109.6 -35.75 -109.6L-33.15 -109.9L-33.1 -109.9M-26.1 -149.2Q-17.45 -147.15 -17.45 -144.2Q-17.45 -143.6 -17.6 -143L-17.65 -142.8L-17.9 -141.75Q-18.1 -141.1 -20.1 -139.65Q-22.15 -138.25 -23.35 -138.25L-24.35 -138.25Q-24.95 -138.5 -24.95 -139.9L-24.8 -140.9L-24.65 -141.7L-28.75 -141.4Q-32.15 -141.45 -32.15 -143.35Q-32.15 -144.15 -30.85 -145Q-29.8 -145.7 -28.7 -146.05L-28.95 -146.05Q-32.25 -146.55 -33.85 -147Q-36.65 -147.7 -36.65 -149.05Q-36.65 -150.65 -35.3 -150.65L-28.95 -149.8L-26.1 -149.2M-14.3 -163.85L-12.35 -163.1Q-8.6 -161.8 -7.45 -161.8L-4.45 -162.4L-1.3 -163L0.3 -162.7Q1.75 -162.15 1.75 -161.1L1.75 -160.9Q1.7 -159.15 0.45 -158.7Q-0.5 -158.35 -2.85 -158.65Q-4.1 -158.8 -5.2 -157.35Q-6.35 -155.8 -7 -155.8Q-8.6 -155.8 -8.8 -157.35Q-9 -158.95 -10.55 -158.95L-16.65 -159.55L-25.35 -160.8L-27.15 -161.2Q-31.55 -162.35 -31.55 -164.15Q-31.55 -164.75 -30.95 -165.5Q-30.25 -166.45 -29.25 -166.45L-26.65 -165.95L-23.75 -165.55Q-21.6 -165.65 -19.7 -164.75Q-17.75 -163.85 -17.45 -163.85Q-17.05 -163.85 -16.7 -164.15L-15.95 -164.45L-15.2 -164.2L-14.3 -163.85M-14.8 -177.8Q-10.3 -175.1 -9.35 -173.65L-7.7 -171.25Q-6.6 -170.15 -6.6 -169.45L-6.6 -169.25L-6.7 -168.9Q-6.95 -168.4 -7.75 -168.4L-16.1 -173.3L-18.85 -174.9Q-24.35 -178.25 -24.35 -178.35L-23.45 -179.9Q-22.45 -181 -21.65 -181Q-20.2 -181 -15.35 -178.15L-15.05 -177.95L-14.8 -177.8M17.2 -145L16.95 -144.85L17.2 -145M-15.55 -144.85Q-16.65 -145.3 -16.65 -146.35Q-16.65 -147.3 -15.45 -147.8L-14 -148Q-13.1 -148.9 -11.4 -151.75L-10.85 -152.35L-10.7 -152.5Q-9.1 -154.1 -7 -154.1Q-5.4 -154.1 -4.7 -152.4L-4.3 -151.7Q-3.45 -150.3 -1.7 -149.8L2.4 -148.75Q5.8 -147.6 5.8 -145.9Q5.8 -145.35 4.9 -144.75L4.65 -144.65Q3.6 -144.05 3 -144.05Q1.45 -144.05 -1.3 -145.75Q-4.05 -147.5 -7.75 -147.5Q-9.25 -147.5 -10.85 -146.05Q-12.5 -144.65 -14.35 -144.65L-15.45 -144.8L-15.55 -144.85M-2.2 -189.45Q-1.4 -190.5 -1.4 -191.55L-1.4 -191.65L-2.2 -189.45M-30.95 -109.3L-30.95 -109L-30.95 -109.3" />
<path style="fill:#496B90;fill-opacity:1" d="M-6.9 -197.35L-3.45 -199.2L-2 -199.15Q-0.35 -199.15 2.35 -200.3L2.45 -200.3L4.1 -196.55Q2.95 -196.25 1.9 -195.5Q0.35 -194.4 -1.45 -192.05Q-1.75 -193.45 -3.75 -195.2Q-5.55 -196.8 -6.9 -197.35M-3.15 -169.6L-3.15 -168.3Q-3.7 -167.7 -4.8 -167.7Q-6.45 -167.7 -6.7 -168.9L-6.6 -169.25L-6.6 -169.45Q-6.6 -170.15 -7.7 -171.25L-9.35 -173.65Q-10.3 -175.1 -14.8 -177.8L-15.05 -177.95L-15.7 -179.35L-15.8 -180.5Q-15.8 -182.4 -14.45 -183.3L-11.75 -185.2L-8.6 -185.35Q-10.05 -183.4 -10.05 -182.2L-8.6 -182.2L-1.7 -185.95Q-1.7 -185.55 -0.5 -184.5Q0.9 -183.35 2.15 -183.35Q3.15 -183.35 3.75 -183.65L3.75 -184.75Q7.7 -184.25 11.5 -184.75L11.45 -181.9Q9.25 -180.95 8.35 -179.65Q7.6 -178.5 4.3 -178.35L1.45 -177.95Q-0.25 -175.55 -3.15 -169.6M9.45 -152L9.65 -151.4Q9.65 -150.2 8.4 -150.2Q1.9 -152.2 1.15 -154.5L1.15 -154.3Q1.65 -153.6 0.95 -152.25Q0.1 -150.7 -1.95 -150.7Q-3.05 -150.7 -3.55 -151L-4.3 -151.7L-4.7 -152.4Q-5.4 -154.1 -7 -154.1Q-9.1 -154.1 -10.7 -152.5L-10.85 -152.35L-12.7 -152.55Q-14.4 -152.85 -15.2 -153.25Q-14.9 -153.8 -14.9 -154.6Q-17.1 -154.4 -19.25 -154.6Q-23.45 -154.9 -23.45 -156.55L-22.65 -157.85L-27.4 -158.15L-28.45 -158.3Q-32.9 -158.85 -33.5 -160.4Q-33.3 -160.4 -33.3 -160.7L-30.05 -161.2L-27.15 -161.2L-25.35 -160.8L-16.65 -159.55L-10.55 -158.95Q-9 -158.95 -8.8 -157.35Q-8.6 -155.8 -7 -155.8Q-6.35 -155.8 -5.2 -157.35Q-4.1 -158.8 -2.85 -158.65Q-0.5 -158.35 0.45 -158.7Q1.7 -159.15 1.75 -160.9L2.1 -160.9L2.05 -160.15Q2.05 -159.1 2.85 -158.65Q3.4 -158.35 4 -158.35Q5.4 -158.35 10.2 -160.2L11.3 -160.6L7.85 -157.8Q6.1 -156.45 6.1 -155.1Q6.1 -153.45 7.2 -152.95L9.2 -152.65L9.25 -152.65L9.45 -152M-0.5 -177.05Q0.15 -177.65 1.45 -177.95Q0.15 -177.65 -0.5 -177.05" />
<path style="fill:#597FA8;fill-opacity:1" d="M-11.75 -185.2L-15.35 -185.05Q-18.05 -185.05 -18.05 -187.1L-11.6 -191.05L-7.55 -193.45L-7.25 -192.4Q-5.55 -187.9 -3.85 -187.9Q-3.05 -187.9 -2.5 -188.85Q-0.5 -189.2 1.4 -190.45Q3.25 -191.65 4.3 -191.65L5.9 -191.35L7.45 -191.05L9.35 -191.65L9.55 -191.75L13.5 -189.4Q12.8 -188.3 11.55 -187.85L9.75 -187.4L10.8 -186.4Q11.65 -185.55 11.5 -184.75Q7.7 -184.25 3.75 -184.75L3.75 -183.65Q3.15 -183.35 2.15 -183.35Q0.9 -183.35 -0.5 -184.5Q-1.7 -185.55 -1.7 -185.95L-8.6 -182.2L-10.05 -182.2Q-10.05 -183.4 -8.6 -185.35L-11.75 -185.2" />
<path style="fill:#2C4970;fill-opacity:1" d="M1.75 -160.9L1.75 -161.1Q1.75 -162.15 0.3 -162.7L-1.3 -163L-4.45 -162.4L-7.45 -161.8Q-8.6 -161.8 -12.35 -163.1L-14.3 -163.85L-15.2 -164.2Q-16.3 -164.65 -17.65 -165.45Q-20.1 -166.95 -20.1 -167.85L-19.5 -168.85Q-18.95 -169.7 -18.95 -170.15L-21.35 -170.25Q-23.3 -170.55 -23.75 -171.05L-21.6 -173.3Q-20.05 -174.55 -18.85 -174.9L-16.1 -173.3L-7.75 -168.4Q-6.95 -168.4 -6.7 -168.9Q-6.45 -167.7 -4.8 -167.7Q-3.7 -167.7 -3.15 -168.3L-3.15 -167L-0.3 -167L1.95 -169.25Q3.6 -171.05 5.05 -171.05L9.4 -171.35Q10.2 -171.6 10.45 -172.75Q10.9 -174.65 12 -176.55L16.05 -174.7Q19.4 -172.85 19 -171.55L16.5 -170.75L14.35 -170.15L14.05 -169.9L15.1 -169.3L16.05 -168.4L13.5 -167.3L13.5 -167.6L11.65 -167.8Q10 -167.8 9.35 -166.65L8.55 -165.5Q2.7 -164.25 2.1 -160.9L1.75 -160.9M4.9 -144.75Q5.8 -145.35 5.8 -145.9Q5.8 -147.6 2.4 -148.75L-1.7 -149.8Q-3.45 -150.3 -4.3 -151.7L-3.55 -151Q-3.05 -150.7 -1.95 -150.7Q0.1 -150.7 0.95 -152.25Q1.65 -153.6 1.15 -154.3L1.15 -154.5Q1.9 -152.2 8.4 -150.2Q9.65 -150.2 9.65 -151.4L9.45 -152L9.25 -152.65Q10.2 -152.7 12.7 -154.35Q15.2 -155.95 16.95 -155.8L18 -155.85L20.6 -154.05Q22.55 -152.4 22.95 -150.95L21.25 -150.5L19.3 -150.35L20.15 -149.8Q20.65 -149.25 20.65 -148.6Q20.65 -147.8 19 -146.4L18.85 -146.25L15.8 -146.65L11.65 -144.75Q6.7 -142.55 3.95 -141.45Q4.2 -141.8 4 -142.35L4.05 -142.4Q5.7 -143.2 4.9 -144.75M-10.85 -152.35L-11.4 -151.75Q-13.1 -148.9 -14 -148L-15.45 -147.8Q-16.65 -147.3 -16.65 -146.35Q-16.65 -145.3 -15.55 -144.85L-15.45 -144.8L-15.75 -144.55L-17.65 -142.8L-17.6 -143Q-17.45 -143.6 -17.45 -144.2Q-17.45 -147.15 -26.1 -149.2L-28.95 -149.8Q-30.3 -150.55 -31.25 -151.25Q-33.8 -153 -33.8 -154.65Q-33.8 -155.9 -32.65 -156.55L-29.55 -157.85L-27.4 -158.15L-22.65 -157.85L-23.45 -156.55Q-23.45 -154.9 -19.25 -154.6Q-17.1 -154.4 -14.9 -154.6Q-14.9 -153.8 -15.2 -153.25Q-14.4 -152.85 -12.7 -152.55L-10.85 -152.35" />
<path style="fill:#223C5F;fill-opacity:1" d="M12.3 -127.95L9.65 -127.1Q4.85 -125.95 -2.3 -125.95Q-5.5 -125.95 -10.7 -131.55Q-15.9 -137.15 -17.35 -137.15Q-18.4 -137.15 -20.3 -135.7Q-22.1 -134.4 -22.1 -134.05Q-22.1 -132.95 -19.45 -132.35L-16.35 -131.65Q-15.6 -131.1 -15.1 -129.45L-14.75 -128.65L-17.5 -127.3Q-19.15 -126.55 -21.2 -126.55Q-22.15 -126.55 -23.2 -127.15Q-24.35 -127.75 -24.35 -128.4L-24.15 -129.25L-23.75 -130L-26.25 -129.2L-28.35 -128.7L-30.1 -128.5L-32.7 -128.8L-31.9 -130.1L-30.35 -131.95Q-31.55 -131.3 -32.45 -131.2L-34.25 -131.15Q-35.85 -131.15 -36.65 -131.95Q-36.35 -132.4 -31.3 -135.55Q-26.75 -138.4 -24.65 -141.7L-24.8 -140.9L-24.95 -139.9Q-24.95 -138.5 -24.35 -138.25L-23.35 -138.25Q-22.15 -138.25 -20.1 -139.65Q-18.1 -141.1 -17.9 -141.75L-17.65 -142.8L-15.75 -144.55L-15.95 -144.1L-16.1 -143.15Q-16.1 -142.35 -15.55 -141.75Q-15.05 -141.15 -13.6 -141.15Q-12.15 -141.15 -10.1 -141.9Q-8.1 -142.7 -7.8 -143.5L-7.65 -143.5Q-8.95 -139.7 -6.95 -140Q-5 -140.35 -4.5 -141.1L-2.85 -143.95Q-2.4 -142.6 -1.35 -142.15L0.65 -141.85Q2.7 -141.85 4 -142.35Q4.2 -141.8 3.95 -141.45L3.6 -140.8L3.15 -139.75L3.15 -137.45L5.4 -137.3L7.75 -137.15L9.6 -136.05L10 -135.75Q10.9 -135.1 11.2 -135.1Q12.75 -135.1 12.95 -136.35Q13.1 -137.35 12.4 -138.85Q15.1 -137.75 16.9 -140Q19 -142.6 20.35 -142.6L23 -141.9Q24.7 -141.2 25.55 -141.2Q26.9 -141.2 28.3 -142.9L28.85 -143.5L31.1 -142.3Q32.2 -141.5 32.2 -140.05Q32.2 -138.85 29.45 -138.05L25.6 -137.15Q25.8 -136.65 26.45 -136L27.65 -134.85Q28.3 -134.25 26.5 -132.55Q24.7 -130.85 22.35 -130Q17.6 -129.95 12.3 -127.95" />
<path style="fill:#344D76;fill-opacity:1" d="M-16.9 -108.75L-17.75 -108.3Q-19.35 -109.2 -22.05 -109.55Q-28.95 -109.55 -29.55 -110.2L-33.1 -109.9L-33.15 -109.9Q-34.1 -110.6 -34.1 -111.3L-33.8 -112.15L-33.3 -113.05Q-35.65 -112.95 -36.65 -113.1Q-38.45 -113.3 -38.45 -114.8Q-38.45 -116.3 -34.7 -117.6L-28.35 -120Q-28 -118.45 -24.95 -118.45Q-23.45 -118.45 -21.7 -119.05Q-20 -119.65 -19.4 -119.65L-16.75 -118.65Q-13.95 -117.65 -12.95 -117.65Q-10.6 -117.65 -9.85 -118.15L-7.75 -119.45L-6.15 -119.35L-4.55 -119.65L-3 -119.95Q-2.3 -119.95 -1.6 -119.3Q-0.65 -118.45 0.6 -117.95Q1.45 -120.15 2.4 -120.95Q3.35 -121.7 5.05 -121.7Q5.5 -121.7 6.6 -121.1Q7.75 -120.55 8.6 -120.55Q9.5 -120.55 10.65 -121.35L12.15 -122.1L12.8 -122.2L14.8 -121.5Q16.3 -120.8 16.75 -120.8Q17.7 -120.8 18.5 -122.8Q19.3 -124.85 21.25 -124.85L25.55 -124.25L28.3 -122.6L26.7 -122.8Q26.3 -122.35 26 -121.55Q25.25 -119.7 24.1 -119.65L20.7 -119.05Q19 -118.25 19 -116.35Q19 -114.5 21.7 -114.5Q23.55 -114.5 30.9 -118.6Q31.15 -118.45 31.3 -118.45Q32.8 -118.45 34.95 -116.75Q37.5 -114.8 36.75 -113.35Q32.95 -112.2 29.55 -113.95Q30.2 -113.2 30.85 -110.75L26.7 -111.35L27.5 -109.7Q28.05 -108.75 27.9 -108.05Q27.75 -107.4 24.3 -104.65L23.55 -104.7L20.1 -105L19.95 -105.05L18.75 -105.4L17.55 -105.75Q11 -108 11.2 -112.9Q11.05 -110.4 10.6 -109.75Q10.05 -109 7.9 -109Q6 -109 3.8 -110.15L-0.5 -112.75L-1.9 -110.85L-3.15 -109.05L-3.3 -109.15Q-6.65 -111.85 -11.45 -112.75Q-11.5 -113.4 -14 -113.35Q-16.55 -113.25 -16.55 -111.85Q-16.55 -110.7 -15.15 -109.95L-16.9 -108.75" />
<path style="fill:#58769A;fill-opacity:1" d="M-15.45 -144.8L-14.35 -144.65Q-12.5 -144.65 -10.85 -146.05Q-9.25 -147.5 -7.75 -147.5Q-4.05 -147.5 -1.3 -145.75Q1.45 -144.05 3 -144.05Q3.6 -144.05 4.65 -144.65L4.9 -144.75Q5.7 -143.2 4.05 -142.4L4 -142.35Q2.7 -141.85 0.65 -141.85L-1.35 -142.15Q-2.4 -142.6 -2.85 -143.95L-4.5 -141.1Q-5 -140.35 -6.95 -140Q-8.95 -139.7 -7.65 -143.5L-7.8 -143.5Q-8.1 -142.7 -10.1 -141.9Q-12.15 -141.15 -13.6 -141.15Q-15.05 -141.15 -15.55 -141.75Q-16.1 -142.35 -16.1 -143.15L-15.95 -144.1L-15.75 -144.55L-15.45 -144.8" />
<path style="fill:#2B4566;fill-opacity:1" d="M-1.55 -100.15L0.4 -98.5L2.95 -98.5L2.95 -101.35Q0.05 -106.45 -3.15 -109.05L-1.9 -110.85L-0.5 -112.75L3.8 -110.15Q6 -109 7.9 -109Q10.05 -109 10.6 -109.75Q11.05 -110.4 11.2 -112.9Q11 -108 17.55 -105.75L18.75 -105.4L19.95 -105.05L19.9 -105.05L17.6 -105.3L14.4 -105.65Q12.7 -105.65 10.8 -104.85Q9.15 -104.15 8.35 -103.3L8.35 -101.9L13 -101.65L12.55 -100.35L12.1 -99.35Q12.1 -98 12.7 -97.55L13.95 -97.3Q15.3 -97.3 17.05 -99Q17.8 -99.8 18.4 -100.2Q19.05 -100.75 19.4 -100.75L20.7 -100.45L22 -100.15L24.45 -100.75L26.6 -101.35L29.4 -100.25Q32.1 -99.05 33.3 -98.75L37.35 -98.75L37.35 -100.45L36.5 -101.2L35.65 -101.65L35.65 -101.9Q36.5 -101.55 38.25 -101.15L39.6 -99.55Q40.15 -98.6 40.15 -97.85Q40.15 -97 37.85 -96.2L34.75 -95.3Q35.55 -93.7 37.1 -92.8Q38.2 -92.1 38.2 -90.85Q38.2 -89.05 36.75 -88.2L36.65 -88.15L24.95 -87.75L24.15 -87.55L10.35 -83.5L7.45 -85.2Q6.6 -85.85 5.2 -85.85Q3.25 -85.85 1.2 -83.85Q-0.8 -81.9 -0.8 -80.4Q-0.8 -79.05 0.2 -78.7L0.2 -78.5L-1.35 -76.25L-1.55 -75.9L-1.55 -100.15" />
<path style="fill:#C9DFEC;fill-opacity:1" d="M21.7 -114.5Q19 -114.5 19 -116.35Q19 -118.25 20.7 -119.05L24.1 -119.65Q25.25 -119.7 26 -121.55Q26.3 -122.35 26.7 -122.8L28.3 -122.6L30.4 -122.1Q33 -121.4 33 -119.8L30.9 -118.6Q23.55 -114.5 21.7 -114.5M35.65 -101.9L35.65 -101.65L36.5 -101.2L37.35 -100.45L37.35 -98.75L33.3 -98.75Q32.1 -99.05 29.4 -100.25L26.6 -101.35L24.45 -100.75L22 -100.15L20.7 -100.45L19.4 -100.75Q19.05 -100.75 18.4 -100.2Q17.8 -99.8 17.05 -99Q15.3 -97.3 13.95 -97.3L12.7 -97.55Q12.1 -98 12.1 -99.35L12.55 -100.35L13 -101.65L8.35 -101.9L8.35 -103.3Q9.15 -104.15 10.8 -104.85Q12.7 -105.65 14.4 -105.65L17.6 -105.3L19.9 -105.05L19.95 -105.05L20.1 -105L23.55 -104.7L24.3 -104.65L24.85 -104.6L27 -104.5L31.2 -104.9L36.1 -105.35Q44.8 -105.35 44.8 -102.35Q44.8 -101.15 43.95 -100.7L42.25 -100.45L38.9 -101L38.25 -101.15Q36.5 -101.55 35.65 -101.9M-22.35 -97.3L-22.6 -97.2L-25.05 -96.5Q-26.8 -96.1 -27.2 -95.5L-28.95 -92.75Q-29.75 -91.85 -31.55 -91.85Q-32.55 -91.85 -34.7 -92.85L-37.25 -93.85L-41.55 -93.45L-41.8 -93.45Q-43.85 -93.5 -43.85 -94.85Q-43.85 -96.5 -42.15 -97.35L-40.5 -97.8Q-39.2 -97.3 -37.55 -97.8L-34.95 -98.4Q-33.8 -98.8 -32.15 -99.55L-30.35 -99.85L-25.2 -99.55Q-22.5 -98.8 -22.35 -97.4L-22.35 -97.3M-3.15 -100.9L-5.05 -101.4L-5.25 -101.45L-5.4 -101.45L-8.55 -101.35L-8.55 -103.3L-7.25 -104.75Q-6.8 -105.45 -6.8 -106.65Q-6.8 -108.1 -11.65 -108.9Q-13.95 -109.3 -15.15 -109.95Q-16.55 -110.7 -16.55 -111.85Q-16.55 -113.25 -14 -113.35Q-11.5 -113.4 -11.45 -112.75Q-6.65 -111.85 -3.3 -109.15L-3.15 -109.05Q0.05 -106.45 2.95 -101.35L2.95 -98.5L0.4 -98.5L-1.55 -100.15L-3.15 -100.9" />
<path style="fill:#C2DCEB;fill-opacity:1" d="M0.2 -78.7Q-0.8 -79.05 -0.8 -80.4Q-0.8 -81.9 1.2 -83.85Q3.25 -85.85 5.2 -85.85Q6.6 -85.85 7.45 -85.2L10.35 -83.5L24.15 -87.55L24.95 -87.75L36.65 -88.15L44.2 -88.15Q50.8 -87.55 50.8 -84.7L50.55 -83.5L48.7 -83.5L45.65 -83.95L42.8 -84.4L42.3 -84.35L42.25 -84.4L41.95 -84.3L41.7 -84.3L40.8 -84.2L36.9 -83.3L29.65 -81.35Q28.55 -81.1 27.55 -80.55Q25.35 -79.35 23.4 -76.8Q20.5 -73.15 18.4 -75.25L18.5 -78.05Q18.55 -79.85 17.4 -79.85Q16.75 -79.85 14.45 -77.1Q12.15 -74.35 10.8 -74.35Q9 -74.35 8.55 -75.6Q8.25 -76.4 8.35 -79.25L4.9 -79.25Q3.35 -78.7 1.95 -78.7Q1 -78.55 0.35 -78.7L0.55 -79.05L0.4 -78.95L0.2 -78.7M-50.35 -70.2L-57.2 -67.75Q-58.65 -67.75 -59.05 -69.25Q-59.35 -70.4 -59 -71.2Q-60.35 -71.2 -62.15 -72.65Q-62.1 -74 -57.75 -74.15Q-52.7 -74.35 -51.3 -75.55L-49.15 -77.2Q-44.5 -80.55 -41.3 -80.35Q-37.1 -80.1 -28.8 -81.9L-22.55 -83.15L-17.6 -83.8L-15.8 -83.7L-15.65 -83.6Q-15.4 -83.45 -15.25 -82.95L-15.15 -82.4L-15.2 -82.2L-15.2 -82.1Q-15.65 -78.65 -19.65 -78.45L-21.7 -78.7L-25.5 -78.95Q-27.5 -78.7 -30.5 -77.4Q-33.8 -75.9 -35.55 -75.55Q-38.2 -74.95 -47.75 -71.25L-50.35 -70.2" />
<path style="fill:#3D5D84;fill-opacity:1" d="M40.6 -71.45L38.4 -71.9L36.15 -72.35Q36.75 -70.85 37.8 -69.55L39.3 -67.45L39.3 -65.95L36.45 -65.45Q34.4 -65.45 31.4 -67.05Q27.95 -68.9 26.95 -69.1Q26.25 -68 25.6 -64.9Q25.3 -63.4 22.8 -63.4Q21.9 -63.4 18.4 -67.3Q14.9 -71.2 13.75 -71.2Q13.55 -71.2 10.9 -68Q8.25 -64.85 6.2 -64.85Q5.1 -64.85 5.15 -66.1Q5.25 -67.95 4.9 -68.6L0.45 -68.3Q-0.75 -68.3 -1.45 -68.85Q-2.6 -69.8 -2.6 -72.15Q-2.6 -74.3 -1.55 -75.9L-1.35 -76.25L0.2 -78.5L0.35 -78.7Q1 -78.55 1.95 -78.7Q3.35 -78.7 4.9 -79.25L8.35 -79.25Q8.25 -76.4 8.55 -75.6Q9 -74.35 10.8 -74.35Q12.15 -74.35 14.45 -77.1Q16.75 -79.85 17.4 -79.85Q18.55 -79.85 18.5 -78.05L18.4 -75.25Q20.5 -73.15 23.4 -76.8Q25.35 -79.35 27.55 -80.55Q28.55 -81.1 29.65 -81.35L36.9 -83.3L40.8 -84.2L41.7 -84.3L41.95 -84.3L42.3 -84.35L47.05 -81.2Q49.95 -79.15 49.95 -77.95Q49.95 -75.35 43.05 -75.7Q43.45 -75.05 44.8 -73.3Q44.8 -72.25 43.1 -71.75L41.5 -71.45L40.6 -71.45" />
<path style="fill:#1D3A5C;fill-opacity:1" d="M-4.3 -59.65L-6.3 -59.8Q-8.3 -60.2 -8.3 -61.45Q-8.3 -63.1 -5.5 -65.75L-5.35 -65.85Q-3.15 -68.05 -1.45 -68.85Q-0.75 -68.3 0.45 -68.3L4.9 -68.6Q5.25 -67.95 5.15 -66.1Q5.1 -64.85 6.2 -64.85Q8.25 -64.85 10.9 -68Q13.55 -71.2 13.75 -71.2Q14.9 -71.2 18.4 -67.3Q21.9 -63.4 22.8 -63.4Q25.3 -63.4 25.6 -64.9Q26.25 -68 26.95 -69.1Q27.95 -68.9 31.4 -67.05Q34.4 -65.45 36.45 -65.45L39.3 -65.95L39.3 -67.45L37.8 -69.55Q36.75 -70.85 36.15 -72.35L38.4 -71.9L40.6 -71.45L41.5 -71.45Q48.9 -65.6 45 -63.95L43.75 -64Q39.4 -64 35.3 -62.75Q33.15 -62.1 30.4 -60.85L28.85 -60.1L28.5 -59.95L28 -59.45Q26.55 -58.3 24.05 -57.4L21.95 -56.15Q21.45 -56.2 20.95 -56.6L19.95 -57.1L18.75 -56.4Q17.55 -55.7 16.9 -55.7Q15.15 -55.7 14.05 -57.4Q12.95 -59.15 12.2 -59.15Q11.75 -59.15 9.15 -57.8Q7.25 -56.85 6.1 -56.6L5.3 -56.5Q3.2 -56.5 2.65 -57.25L1.75 -60.25L-0.3 -60.25L-4.3 -59.65" />
<path style="fill:#86ADCA;fill-opacity:1" d="M41.35 -51.35Q39.4 -50.5 37.65 -50.5Q35.2 -50.5 34.9 -51.3L34.75 -55.4L34.45 -55.4L32.9 -53.95Q31.6 -52.85 30.75 -52.55L29.35 -52.55Q29.85 -54.4 29.85 -55.7Q29.7 -55.55 28.8 -55.3L27.5 -54.9L24.85 -54.25L21 -54.55Q21.2 -55.5 21.95 -56.15L24.05 -57.4Q26.55 -58.3 28 -59.45L28.5 -59.95L28.85 -60.1L30.4 -60.85Q33.15 -62.1 35.3 -62.75Q39.4 -64 43.75 -64L45 -63.95L49.15 -63.4Q53.4 -62.4 53.4 -60.1Q53.4 -59.1 53.1 -58.85Q52.8 -58.55 51.7 -58.55Q49.95 -58.55 47.7 -59.4Q45.4 -60.25 43.65 -60.25L40.65 -60.15Q38.8 -59.9 38.5 -58.85L41.25 -56.6Q43.65 -54.5 43.65 -53.65Q43.65 -52.7 42.5 -51.95L41.35 -51.35M24.4 -52.55L27.25 -50.95L31.4 -48.65Q36.45 -45.5 36.45 -43.35Q36.45 -42.2 36.25 -41.95L34.2 -41.95L32.5 -42.5Q32.5 -41.9 32.9 -41.15L33.3 -40.45Q33.3 -38.2 31.3 -38.2Q28.4 -38.2 25.85 -41.65L24.6 -43.65L23.45 -45.1L20.95 -43.65Q18.95 -42.2 17.15 -42.2Q15.55 -42.2 15.25 -42.5L18.25 -46.3Q19.95 -48.3 21.55 -48.8Q21.05 -50.65 21.55 -52.55L24.4 -52.55M-5.1 -38.45Q-5.7 -39.25 -5.7 -39.75Q-5.7 -40.6 -4.35 -42.1Q-3.05 -43.6 -3.05 -43.8Q-3.05 -44.4 -4.1 -45.1Q-5 -45.65 -5.3 -45.65Q-5.75 -45.65 -8.25 -43.9Q-10.75 -42.2 -13.75 -42.2Q-14.75 -42.2 -14.85 -42.5L-14.9 -43.9L-14.8 -45.2L-14 -46.75L-14 -48.55L-16.25 -48.55L-18.25 -47.45L-19.8 -46.25L-20.3 -45.65L-21.2 -43.5Q-21.6 -42.8 -23.2 -42.8Q-24.55 -42.8 -24.75 -44.6Q-24.95 -46.45 -26.95 -46.45Q-31.2 -46.45 -33.3 -41.55Q-34.5 -38.9 -35 -38.2Q-36.15 -36.7 -38 -36.7Q-39.15 -36.7 -39.4 -37.85Q-39.6 -39.05 -40.4 -39.05Q-40.75 -39.05 -42.7 -36.3Q-44.7 -33.55 -47.15 -33.55Q-48.45 -33.55 -48.75 -33.85Q-49.05 -34.15 -49.05 -35.5Q-49.05 -36.65 -45.8 -39.45L-41.3 -42.8Q-40.55 -43.2 -37.55 -45.4Q-35 -47.3 -33.8 -47.65L-33.5 -47.7Q-30.7 -48.5 -23.9 -51.35L-18.7 -53Q-15.05 -53.95 -12.15 -53.95Q-8.7 -53.95 -6.35 -52L-6.3 -51.95L-4.4 -50.6Q-3.15 -49.8 -2.25 -49.7L3.2 -49.4L5.35 -49.25L8.65 -48.8Q8.65 -48.55 8.05 -48.25Q8.75 -48.55 9.5 -47.95Q10.15 -47.45 10.15 -46.9Q10.15 -46.35 9 -45.5Q7.8 -44.7 7.8 -43.8Q7.8 -42.45 8.25 -41.55L9.25 -39.65L9.25 -38.5L9.25 -38.2L7.5 -38.2L6.1 -39.85Q5.8 -39.85 5.8 -40.15Q5.7 -38.95 3.6 -37.55Q1.7 -36.25 0.6 -36.2Q0.3 -37.3 0.3 -39.85L0.3 -40.15Q-0.35 -39.55 -1.65 -38.7Q-3.3 -37.6 -3.95 -37.6L-4.15 -37.6Q-4.6 -37.75 -5.1 -38.45" />
<path style="fill:#141F3F;fill-opacity:1" d="M47.65 -35.45L41.35 -37.9Q38.95 -37.9 38.3 -36.2Q37.25 -33.65 36.25 -32.2Q35.6 -33.1 33.2 -34.4Q30.9 -35.65 30.05 -35.65L28 -34.35Q25.75 -33.1 23.45 -32.15L22.9 -31.95L21.9 -32.25Q20.85 -32.25 20.25 -31.55L18.45 -34.7Q17.55 -36.45 15.55 -36.2L11.95 -36.35Q9.45 -36.95 9.25 -38.5L9.25 -39.65L8.25 -41.55Q7.8 -42.45 7.8 -43.8Q7.8 -44.7 9 -45.5Q10.15 -46.35 10.15 -46.9Q10.15 -47.45 9.5 -47.95Q8.75 -48.55 8.05 -48.25Q8.65 -48.55 8.65 -48.8L5.35 -49.25L5.35 -49.35Q5.2 -50.35 5.2 -51.85Q5.2 -53 5.95 -56L6.1 -56.6Q7.25 -56.85 9.15 -57.8Q11.75 -59.15 12.2 -59.15Q12.95 -59.15 14.05 -57.4Q15.15 -55.7 16.9 -55.7Q17.55 -55.7 18.75 -56.4L19.95 -57.1L20.95 -56.6Q21.45 -56.2 21.95 -56.15Q21.2 -55.5 21 -54.55L24.85 -54.25L27.5 -54.9L28.8 -55.3Q29.7 -55.55 29.85 -55.7Q29.85 -54.4 29.35 -52.55L30.75 -52.55Q31.6 -52.85 32.9 -53.95L34.45 -55.4L34.75 -55.4L34.9 -51.3Q35.2 -50.5 37.65 -50.5Q39.4 -50.5 41.35 -51.35L42.5 -51.95L47.3 -49Q50.95 -46.55 50.2 -44.8L47.05 -44.2L46.75 -43.9L49.7 -41.7Q52 -39.65 52 -38.5Q52 -37.15 50.2 -36.1L48.3 -35.2L47.65 -35.45M-40.4 -51.95L-37.55 -51.95Q-38.05 -49.95 -36.5 -48.95L-33.5 -47.95L-33.5 -47.7L-33.8 -47.65Q-35 -47.3 -37.55 -45.4Q-40.55 -43.2 -41.3 -42.8L-45.8 -39.45Q-49.05 -36.65 -49.05 -35.5Q-49.05 -34.15 -48.75 -33.85Q-48.45 -33.55 -47.15 -33.55Q-44.7 -33.55 -42.7 -36.3Q-40.75 -39.05 -40.4 -39.05Q-39.6 -39.05 -39.4 -37.85Q-39.15 -36.7 -38 -36.7Q-36.15 -36.7 -35 -38.2Q-34.5 -38.9 -33.3 -41.55Q-31.2 -46.45 -26.95 -46.45Q-24.95 -46.45 -24.75 -44.6Q-24.55 -42.8 -23.2 -42.8Q-21.6 -42.8 -21.2 -43.5L-20.3 -45.65L-19.8 -46.25L-18.25 -47.45L-16.25 -48.55L-14 -48.55L-14 -46.75L-14.8 -45.2L-14.9 -43.9L-14.85 -42.5Q-14.75 -42.2 -13.75 -42.2Q-10.75 -42.2 -8.25 -43.9Q-5.75 -45.65 -5.3 -45.65Q-5 -45.65 -4.1 -45.1Q-3.05 -44.4 -3.05 -43.8Q-3.05 -43.6 -4.35 -42.1Q-5.7 -40.6 -5.7 -39.75Q-5.7 -39.25 -5.1 -38.45Q-4.6 -37.75 -4.15 -37.6Q-11.25 -38.35 -15.5 -34.8Q-18.05 -32.75 -18.95 -32.25Q-21.1 -31 -23.9 -31L-27.6 -31.6L-31.5 -32.2L-41.95 -31L-48.65 -31.6L-54.2 -32.2Q-57.1 -32.2 -61.65 -29.75Q-64 -29.7 -65.7 -30.7Q-64.8 -34.1 -61 -36.15L-58.35 -37.15L-60.5 -36.7L-61.5 -36.85L-62.55 -37L-62.55 -38.45Q-60.85 -41.45 -52 -44.6Q-43.65 -47.55 -42.45 -51.2Q-41.6 -51.4 -40.4 -51.95M21.55 -52.55Q21.05 -50.65 21.55 -48.8Q19.95 -48.3 18.25 -46.3L15.25 -42.5Q15.55 -42.2 17.15 -42.2Q18.95 -42.2 20.95 -43.65L23.45 -45.1L24.6 -43.65L25.85 -41.65Q28.4 -38.2 31.3 -38.2Q33.3 -38.2 33.3 -40.45L32.9 -41.15Q32.5 -41.9 32.5 -42.5L34.2 -41.95L36.25 -41.95Q36.45 -42.2 36.45 -43.35Q36.45 -45.5 31.4 -48.65L27.25 -50.95L24.4 -52.55L21.55 -52.55M-58.35 -37.15L-57.35 -37.45Q-57.35 -37 -57.15 -37.3L-57.1 -37.5L-56.75 -37.6L-57.35 -37.6L-58.35 -37.15M-23 -20.2L-20.25 -20.2Q-20.45 -18.95 -19.4 -18.45Q-18.15 -17.8 -17.95 -16.3L-18.7 -16.3Q-19.6 -17.25 -21 -17.9L-23.35 -19.05Q-23.35 -19.8 -23 -20.2" />
<path style="fill:#1E3159;fill-opacity:1" d="M-6.3 -51.95L-6.35 -52Q-8.7 -53.95 -12.15 -53.95Q-15.05 -53.95 -18.7 -53L-23.9 -51.35Q-30.7 -48.5 -33.5 -47.7L-33.5 -47.95L-36.5 -48.95Q-38.05 -49.95 -37.55 -51.95L-40.4 -51.95Q-41.6 -51.4 -42.45 -51.2L-42.75 -51.15L-44.2 -51.1Q-45.05 -51.1 -46.2 -51.65L-47.6 -52.25L-52.05 -51.9Q-54.75 -52.15 -53.6 -55.1Q-54.5 -54.1 -57.7 -52.9Q-61 -51.65 -63.1 -51.65L-64.8 -51.95Q-66 -52.35 -66 -52.95Q-66 -53.9 -61.5 -56.2Q-57.05 -58.45 -57.05 -60.25Q-57.05 -60.85 -57.75 -61.4Q-58.5 -61.9 -58.5 -62.85Q-58.5 -63.8 -55.65 -66L-50.35 -70.2L-47.75 -71.25Q-38.2 -74.95 -35.55 -75.55Q-33.8 -75.9 -30.5 -77.4Q-27.5 -78.7 -25.5 -78.95L-21.7 -78.7L-19.65 -78.45Q-15.65 -78.65 -15.2 -82.1L-15.2 -82.2Q-14.7 -81.55 -13.75 -81.85Q-12.45 -82.3 -11.1 -83.95L-9.75 -85.75Q-9.9 -82.3 -8.6 -82.3Q-7.45 -82.3 -7 -83.3L-5.4 -86.3L-5.35 -65.85L-5.5 -65.75Q-8.3 -63.1 -8.3 -61.45Q-8.3 -60.2 -6.3 -59.8L-6.3 -51.95M3.2 -49.4L-2.25 -49.7Q-3.15 -49.8 -4.4 -50.6L-1.1 -58L-0.3 -60.25L1.75 -60.25L2.65 -57.25Q3.2 -56.5 5.3 -56.5L6.1 -56.6L5.95 -56Q5.2 -53 5.2 -51.85Q5.2 -50.35 5.35 -49.35L5.35 -49.25L3.2 -49.4M-24.6 -70.25Q-28.35 -68.8 -28.35 -65.95Q-28.35 -64.55 -24.9 -63.65Q-20.85 -62.6 -20.6 -62.35L-18.75 -60.8L-16.9 -59.85L-13.4 -60.55Q-13.2 -60.55 -11.75 -59.75Q-10.75 -59.75 -10.55 -61.15L-10.55 -62.9Q-10.55 -65.55 -13.7 -70Q-17 -74.65 -19.45 -74.65Q-20.2 -74.65 -20.85 -74.15L-20.95 -74.05L-20.9 -74.45L-21.5 -73.45Q-21.3 -71.55 -24.6 -70.25M-21.5 -73.45L-20.95 -74.05M-31.55 -55.4Q-30.95 -56.05 -30.95 -57Q-30.95 -59.6 -32.4 -59.95L-35.8 -59.95Q-39.35 -59.95 -42.95 -58.85Q-47.6 -57.45 -47.6 -55.15Q-47.6 -53.9 -46.45 -53.65L-44.6 -53.65Q-43.1 -53.65 -40.45 -54.5L-36.65 -55.7Q-35.55 -54.55 -33.8 -54.55Q-32.3 -54.55 -31.55 -55.4M-20.9 -74.45L-20.95 -74.05" />
<path style="fill:#6D91B1;fill-opacity:1" d="M19.15 -20.6Q16.75 -19.45 15.65 -19.45L14.95 -19.6L14.7 -19.8L14.7 -21.75L15.9 -23.5Q16.6 -24.5 16.25 -25.65L12.4 -25.65Q11.45 -25.05 10.05 -24.5Q10.05 -23.35 10.85 -22.55L10.85 -18.65Q8.1 -19.25 3.85 -16.7L0.75 -16.7Q0.75 -17.35 1.55 -19.25Q2.3 -21.15 2.3 -21.75L1.95 -21.95L1.9 -22.15L-0.85 -22.15Q-2.25 -21.4 -3.75 -21.4Q-5.5 -21.4 -5.9 -21.75Q-5.8 -26 -1.6 -26.5L1.95 -26.6L5 -26.8L5.15 -27.1L6.8 -29.7Q7.95 -31.1 8.65 -31.1L10.45 -30.3Q12.05 -29.55 12.2 -29.55L13.35 -30.1Q14.5 -30.7 15.3 -30.7L17.2 -30.1L19.4 -29.55Q19.6 -30.9 20.25 -31.55Q20.85 -32.25 21.9 -32.25L22.9 -31.95L23.55 -31.6L28.45 -28.7Q34.15 -25.1 36.1 -24.9L45.15 -24.35Q51.85 -23.5 53.25 -21.55Q53.6 -21.05 53.6 -20.45Q53.6 -19.05 53.2 -18.65Q52.85 -18.25 51.65 -18.25Q50.9 -18.25 48.5 -19L45.8 -19.8Q46.3 -18.85 47.65 -17.05Q48.15 -16.35 48.15 -14.8Q48.15 -13.45 47.75 -12.85Q47.25 -12.05 46 -12.05Q43.6 -12.05 40.5 -14.4Q38.15 -16.15 36.1 -18.65L35.7 -18.65Q35.65 -17.5 34.45 -16.1Q33.35 -14.75 32.8 -14.75Q31.2 -14.75 30.5 -16.1Q29.3 -18.45 28.7 -19.05L27.6 -16.95Q26.9 -15.55 25.75 -15.55Q23.25 -15.55 23.25 -17.7Q23.25 -19 24.05 -20.6L24.05 -22.95L22.1 -22.95Q21.75 -22 19.7 -20.9L19.15 -20.6M-62.65 -17.9L-60.05 -18.4Q-58.1 -18.8 -57.6 -19.45L-55.8 -21.85Q-54.85 -22.95 -54.1 -22.95Q-51 -22.95 -49.9 -24.3Q-48.85 -25.65 -47.1 -25.65Q-45.1 -25.65 -43.6 -24.45Q-42.25 -23.35 -38.9 -23.7Q-36.5 -23.95 -34.2 -25.6Q-32.05 -27.2 -30.2 -27.2L-25.2 -26.75L-22.65 -26.4Q-15.25 -25.35 -13.65 -24.1L-11.3 -21.15Q-9.6 -18.95 -8.2 -18.65Q-5.65 -18.1 -4.5 -17.35Q-2.75 -16.2 -2.75 -14L-2.8 -12Q-2.9 -10.95 -3.15 -10.5Q-3.9 -8.95 -6.7 -8.95Q-8.5 -8.95 -9.8 -9.75L-12.1 -11.25L-12.1 -10.9L-10.45 -8.2Q-9 -5.8 -9 -5.25Q-9 -4.65 -10.55 -3.9Q-11.5 -4.4 -11.9 -5.45Q-12.15 -6.2 -13.3 -6.2L-16.55 -5.6L-20.3 -5.05Q-23.6 -5.05 -24.55 -7.45L-25.3 -12.85L-26.1 -12.85Q-28.1 -11.25 -28.45 -11.25Q-30.55 -11.25 -30.5 -13.65L-30 -17.1L-31.8 -15.4Q-33.35 -14 -34.85 -14Q-35.2 -14 -35.95 -14.55Q-36.85 -15.2 -37 -15.95L-40.95 -12.4Q-44.25 -9.35 -45.35 -9.35Q-46.15 -9.35 -46.75 -10.1Q-47.5 -11.05 -47.1 -12.45L-49.25 -10.9Q-50.25 -10.1 -51 -10.1Q-51.9 -10.1 -52.55 -10.5Q-53.3 -10.95 -53.3 -11.85Q-53.3 -12.75 -52.55 -13.6L-52.9 -13.6Q-53.75 -13.2 -58.3 -10Q-62.9 -7 -64.8 -7Q-68.1 -7.4 -68.1 -8.95Q-68.1 -13.7 -65.55 -16.1Q-64.4 -17.25 -62.65 -17.9M-23.35 -19.05L-21 -17.9Q-19.6 -17.25 -18.7 -16.3L-17.95 -16.3Q-18.15 -17.8 -19.4 -18.45Q-20.45 -18.95 -20.25 -20.2L-23 -20.2Q-23.35 -19.8 -23.35 -19.05" />
<path style="fill:#2B4776;fill-opacity:1" d="M23.45 -32.15Q25.75 -33.1 28 -34.35L30.05 -35.65Q30.9 -35.65 33.2 -34.4Q35.6 -33.1 36.25 -32.2Q37.25 -33.65 38.3 -36.2Q38.95 -37.9 41.35 -37.9L47.65 -35.45L47.65 -35.05L48.3 -35.2L59.2 -31Q63.7 -29.3 71.1 -27.45Q76.75 -25.6 79 -21.85L79 -19.85L76.25 -19.6Q73.5 -19.6 65.85 -22.65Q56.85 -26.25 54.85 -26.75Q55.2 -25.3 54.3 -23.5L53.25 -21.55Q51.85 -23.5 45.15 -24.35L36.1 -24.9Q34.15 -25.1 28.45 -28.7L23.55 -31.6L22.9 -31.95L23.45 -32.15" />
<path style="fill:#2C4365;fill-opacity:1" d="M-54.2 -32.2L-48.65 -31.6L-41.95 -31L-31.5 -32.2L-27.6 -31.6L-23.9 -31Q-21.1 -31 -18.95 -32.25Q-18.05 -32.75 -15.5 -34.8Q-11.25 -38.35 -4.15 -37.6L-3.95 -37.6Q-3.3 -37.6 -1.65 -38.7Q-0.35 -39.55 0.3 -40.15L0.3 -39.85Q0.3 -37.3 0.6 -36.2Q1.7 -36.25 3.6 -37.55Q5.7 -38.95 5.8 -40.15Q5.8 -39.85 6.1 -39.85L7.5 -38.2L9.25 -38.2L9.25 -38.5Q9.45 -36.95 11.95 -36.35L15.55 -36.2Q17.55 -36.45 18.45 -34.7L20.25 -31.55Q19.6 -30.9 19.4 -29.55L17.2 -30.1L15.3 -30.7Q14.5 -30.7 13.35 -30.1L12.2 -29.55Q12.05 -29.55 10.45 -30.3L8.65 -31.1Q7.95 -31.1 6.8 -29.7L5.15 -27.1L5 -26.8L1.95 -26.6L-1.6 -26.5Q-5.8 -26 -5.9 -21.75Q-5.5 -21.4 -3.75 -21.4Q-2.25 -21.4 -0.85 -22.15L1.9 -22.15L1.95 -21.95L2.3 -21.75Q2.3 -21.15 1.55 -19.25Q0.75 -17.35 0.75 -16.7L3.85 -16.7Q8.1 -19.25 10.85 -18.65L10.85 -22.55Q10.05 -23.35 10.05 -24.5Q11.45 -25.05 12.4 -25.65L16.25 -25.65Q16.6 -24.5 15.9 -23.5L14.7 -21.75L14.7 -19.8L14.95 -19.6L15.65 -19.45Q16.75 -19.45 19.15 -20.6L19.7 -20.9Q16.85 -14.15 15.25 -14.15Q13.9 -14.15 13.45 -15.25Q13.15 -16.05 13.3 -17.8L13 -17.8L12.25 -14.9Q11.4 -12.4 10.35 -11.8L9.05 -13.15Q8.15 -13.85 7.5 -13.85Q6.4 -13.85 4.1 -10.8Q1.8 -7.75 0.5 -7.75Q-1.15 -7.75 -1.85 -9.6L-2.8 -12L-2.75 -14Q-2.75 -16.2 -4.5 -17.35Q-5.65 -18.1 -8.2 -18.65Q-9.6 -18.95 -11.3 -21.15L-13.65 -24.1Q-15.25 -25.35 -22.65 -26.4L-25.2 -26.75L-30.2 -27.2Q-32.05 -27.2 -34.2 -25.6Q-36.5 -23.95 -38.9 -23.7Q-42.25 -23.35 -43.6 -24.45Q-45.1 -25.65 -47.1 -25.65Q-48.85 -25.65 -49.9 -24.3Q-51 -22.95 -54.1 -22.95Q-54.85 -22.95 -55.8 -21.85L-57.6 -19.45Q-58.1 -18.8 -60.05 -18.4L-62.65 -17.9Q-64.4 -17.25 -65.55 -16.1L-68.15 -15.85L-70.55 -15.55Q-78.3 -15.55 -80 -19.6Q-74.15 -22.1 -64.5 -28.1L-61.65 -29.75Q-57.1 -32.2 -54.2 -32.2M-60.8 -29.8L-61.65 -29.75L-60.8 -29.8" />
<path style="fill:#3A668B;fill-opacity:1" d="M-17.9 -96.95Q-21.15 -95.35 -22.35 -95.35L-22.7 -95.45L-22.8 -96.1L-22.6 -97.2L-22.35 -97.3L-22.35 -97.4Q-22.5 -98.8 -25.2 -99.55L-30.35 -99.85L-32.15 -99.55Q-33.8 -98.8 -34.95 -98.4L-37.55 -97.8L-38.75 -97.85L-40.5 -97.8L-40.7 -97.9Q-42.6 -98.65 -41.9 -100.75Q-43.3 -99.8 -45.9 -99.25Q-48.55 -98.7 -48.5 -99.85Q-48.2 -101.6 -45.2 -103Q-43.1 -103.95 -41.3 -104.15L-40.4 -104.45L-40 -104.45Q-37.85 -104.45 -36.5 -105L-34 -105.55L-30.2 -105.05Q-26.6 -104.25 -24.95 -102.7Q-23.9 -103.25 -22.95 -105.05L-20.65 -102.5Q-20 -101.9 -18.2 -101.9Q-16.6 -101.9 -16.05 -102.4Q-15.5 -102.9 -15.5 -104.35Q-15.5 -106.95 -17.75 -108.3L-16.9 -108.75L-15.15 -109.95Q-13.95 -109.3 -11.65 -108.9Q-6.8 -108.1 -6.8 -106.65Q-6.8 -105.45 -7.25 -104.75L-8.55 -103.3L-8.55 -101.35L-5.4 -101.45L-5.4 -97.1L-6.05 -96.55Q-6.7 -96.2 -7.3 -96.2Q-9.05 -96.2 -9 -98.1L-9.05 -98.1L-11.2 -96.9Q-13.3 -95.85 -14.45 -95.85Q-15.5 -95.85 -15.5 -96.6Q-15.5 -97.35 -14.8 -98.4L-14.3 -99.05L-13.9 -99.4L-14.3 -99.05Q-15.35 -98.25 -17.9 -96.95" />
<path style="fill:#9AB8DE;fill-opacity:1" d="M-14.75 -128.65Q-14.35 -127.75 -13.7 -127.4L-14.85 -126.2L-16.05 -125.05L-16.05 -123.4L-10.05 -123.1Q-9.7 -120.75 -8.95 -120Q-8.55 -119.65 -7.75 -119.45L-9.85 -118.15Q-10.6 -117.65 -12.95 -117.65Q-13.95 -117.65 -16.75 -118.65L-19.4 -119.65Q-20 -119.65 -21.7 -119.05Q-23.45 -118.45 -24.95 -118.45Q-28 -118.45 -28.35 -120L-28.4 -120.4L-28.1 -121.4L-27.8 -122.2L-35.3 -122.5L-35.3 -124.25Q-34.15 -125.8 -31.15 -126.85Q-27.45 -128.2 -28.35 -128.7L-26.25 -129.2L-23.75 -130L-24.15 -129.25L-24.35 -128.4Q-24.35 -127.75 -23.2 -127.15Q-22.15 -126.55 -21.2 -126.55Q-19.15 -126.55 -17.5 -127.3L-14.75 -128.65" />
<path style="fill:#294060;fill-opacity:1" d="M-5.4 -86.3L-5.4 -97.1L-5.4 -101.45L-5.25 -101.45L-5.05 -101.4L-3.15 -100.9L-1.55 -100.15L-1.55 -75.9Q-2.6 -74.3 -2.6 -72.15Q-2.6 -69.8 -1.45 -68.85Q-3.15 -68.05 -5.35 -65.85L-5.4 -86.3M-6.3 -59.8L-4.3 -59.65L-0.3 -60.25L-1.1 -58L-4.4 -50.6L-6.3 -51.95L-6.3 -59.8" />
<path style="fill:#183658;fill-opacity:1" d="M-5.4 -86.3L-7 -83.3Q-7.45 -82.3 -8.6 -82.3Q-9.9 -82.3 -9.75 -85.75L-11.1 -83.95Q-12.45 -82.3 -13.75 -81.85Q-14.7 -81.55 -15.2 -82.2L-15.15 -82.4L-15.25 -82.95Q-15.4 -83.45 -15.65 -83.6L-15.8 -83.7L-17.6 -83.8L-22.55 -83.15L-28.8 -81.9Q-37.1 -80.1 -41.3 -80.35Q-44.5 -80.55 -49.15 -77.2L-55.95 -77.95Q-62.25 -79 -62.25 -81.25Q-62.25 -84 -54.8 -85.55L-54.8 -85.75L-57.95 -86.35Q-57.05 -88.35 -50.25 -90.25Q-43.75 -92.1 -41.8 -93.45L-41.55 -93.45L-37.25 -93.85L-34.7 -92.85Q-32.55 -91.85 -31.55 -91.85Q-29.75 -91.85 -28.95 -92.75L-27.2 -95.5Q-26.8 -96.1 -25.05 -96.5L-22.6 -97.2L-22.8 -96.1L-22.7 -95.45L-22.35 -95.35Q-21.15 -95.35 -17.9 -96.95Q-15.35 -98.25 -14.3 -99.05L-14.8 -98.4Q-15.5 -97.35 -15.5 -96.6Q-15.5 -95.85 -14.45 -95.85Q-13.3 -95.85 -11.2 -96.9L-9.05 -98.1L-9 -98.1Q-9.05 -96.2 -7.3 -96.2Q-6.7 -96.2 -6.05 -96.55L-5.4 -97.1L-5.4 -86.3M-14.3 -91L-14.9 -88.7L-15.7 -85.25L-15.65 -83.6L-15.7 -85.25L-14.9 -88.7L-14.3 -91" />
<path style="fill:#ACC8E0;fill-opacity:1" d="M-20.95 -74.05L-20.85 -74.15Q-20.2 -74.65 -19.45 -74.65Q-17 -74.65 -13.7 -70Q-10.55 -65.55 -10.55 -62.9L-10.55 -61.15Q-10.75 -59.75 -11.75 -59.75Q-13.2 -60.55 -13.4 -60.55L-16.9 -59.85L-18.75 -60.8L-20.6 -62.35Q-20.85 -62.6 -24.9 -63.65Q-28.35 -64.55 -28.35 -65.95Q-28.35 -68.8 -24.6 -70.25Q-21.3 -71.55 -20.95 -74.05" />
<path style="fill:#9DB5DB;fill-opacity:1" d="M-33.8 -54.55Q-35.55 -54.55 -36.65 -55.7L-40.45 -54.5Q-43.1 -53.65 -44.6 -53.65L-46.45 -53.65Q-47.6 -53.9 -47.6 -55.15Q-47.6 -57.45 -42.95 -58.85Q-39.35 -59.95 -35.8 -59.95L-32.4 -59.95Q-30.95 -59.6 -30.95 -57Q-30.95 -56.05 -31.55 -55.4Q-32.3 -54.55 -33.8 -54.55" />
<path style="fill:none;stroke-width:0.7;stroke-linecap:round;stroke-linejoin:round;stroke-miterlimit:3;stroke:#06182C;stroke-opacity:0.4" d="M2.45 -200.3L4.1 -196.55" />
<path style="fill:none;stroke-width:0.7;stroke-linecap:round;stroke-linejoin:round;stroke-miterlimit:3;stroke:#06182C;stroke-opacity:0.4" d="M9.55 -191.75L13.5 -189.4Q12.8 -188.3 11.55 -187.85L9.75 -187.4L10.8 -186.4Q11.65 -185.55 11.5 -184.75L11.45 -181.9" />
<path style="fill:none;stroke-width:0.7;stroke-linecap:round;stroke-linejoin:round;stroke-miterlimit:3;stroke:#06182C;stroke-opacity:0.4" d="M12 -176.55L16.05 -174.7Q19.4 -172.85 19 -171.55L16.5 -170.75L14.35 -170.15L14.05 -169.9L15.1 -169.3L16.05 -168.4L13.5 -167.3" />
<path style="fill:none;stroke-width:0.7;stroke-linecap:round;stroke-linejoin:round;stroke-miterlimit:3;stroke:#06182C;stroke-opacity:0.4" d="M18 -155.85L20.6 -154.05Q22.55 -152.4 22.95 -150.95L21.25 -150.5L19.3 -150.35L20.15 -149.8Q20.65 -149.25 20.65 -148.6Q20.65 -147.8 19 -146.4L18.85 -146.25" />
<path style="fill:none;stroke-width:0.7;stroke-linecap:round;stroke-linejoin:round;stroke-miterlimit:3;stroke:#06182C;stroke-opacity:0.4" d="M28.85 -143.5L31.1 -142.3Q32.2 -141.5 32.2 -140.05Q32.2 -138.85 29.45 -138.05L25.6 -137.15Q25.8 -136.65 26.45 -136L27.65 -134.85Q28.3 -134.25 26.5 -132.55Q24.7 -130.85 22.35 -130" />
<path style="fill:none;stroke-width:0.7;stroke-linecap:round;stroke-linejoin:round;stroke-miterlimit:3;stroke:#06182C;stroke-opacity:0.4" d="M25.55 -124.25L28.3 -122.6" />
<path style="fill:none;stroke-width:0.7;stroke-linecap:round;stroke-linejoin:round;stroke-miterlimit:3;stroke:#06182C;stroke-opacity:0.4" d="M30.9 -118.6Q31.15 -118.45 31.3 -118.45Q32.8 -118.45 34.95 -116.75Q37.5 -114.8 36.75 -113.35Q32.95 -112.2 29.55 -113.95Q30.2 -113.2 30.85 -110.75L26.7 -111.35L27.5 -109.7Q28.05 -108.75 27.9 -108.05Q27.75 -107.4 24.3 -104.65" />
<path style="fill:none;stroke-width:0.7;stroke-linecap:round;stroke-linejoin:round;stroke-miterlimit:3;stroke:#06182C;stroke-opacity:0.4" d="M38.25 -101.15L39.6 -99.55Q40.15 -98.6 40.15 -97.85Q40.15 -97 37.85 -96.2L34.75 -95.3Q35.55 -93.7 37.1 -92.8Q38.2 -92.1 38.2 -90.85Q38.2 -89.05 36.75 -88.2L36.65 -88.15" />
<path style="fill:none;stroke-width:0.7;stroke-linecap:round;stroke-linejoin:round;stroke-miterlimit:3;stroke:#06182C;stroke-opacity:0.4" d="M42.3 -84.35L47.05 -81.2Q49.95 -79.15 49.95 -77.95Q49.95 -75.35 43.05 -75.7Q43.45 -75.05 44.8 -73.3Q44.8 -72.25 43.1 -71.75L41.5 -71.45Q48.9 -65.6 45 -63.95" />
<path style="fill:none;stroke-width:0.7;stroke-linecap:round;stroke-linejoin:round;stroke-miterlimit:3;stroke:#06182C;stroke-opacity:0.4" d="M42.5 -51.95L47.3 -49Q50.95 -46.55 50.2 -44.8L47.05 -44.2L46.75 -43.9L49.7 -41.7Q52 -39.65 52 -38.5Q52 -37.15 50.2 -36.1L48.3 -35.2L59.2 -31Q63.7 -29.3 71.1 -27.45Q76.75 -25.6 79 -21.85L79 -19.85L76.25 -19.6Q73.5 -19.6 65.85 -22.65Q56.85 -26.25 54.85 -26.75Q55.2 -25.3 54.3 -23.5L53.25 -21.55" />
<path style="fill:none;stroke-width:0.7;stroke-linecap:round;stroke-linejoin:round;stroke-miterlimit:3;stroke:#06182C;stroke-opacity:0.4" d="M19.7 -20.9Q16.85 -14.15 15.25 -14.15Q13.9 -14.15 13.45 -15.25Q13.15 -16.05 13.3 -17.8L13 -17.8L12.25 -14.9Q11.4 -12.4 10.35 -11.8L9.05 -13.15Q8.15 -13.85 7.5 -13.85Q6.4 -13.85 4.1 -10.8Q1.8 -7.75 0.5 -7.75Q-1.15 -7.75 -1.85 -9.6L-2.8 -12" />
<path style="fill:none;stroke-width:0.7;stroke-linecap:round;stroke-linejoin:round;stroke-miterlimit:3;stroke:#06182C;stroke-opacity:0.4" d="M-65.55 -16.1L-68.15 -15.85L-70.55 -15.55Q-78.3 -15.55 -80 -19.6Q-74.15 -22.1 -64.5 -28.1L-61.65 -29.75Q-64 -29.7 -65.7 -30.7Q-64.8 -34.1 -61 -36.15L-58.35 -37.15L-60.5 -36.7L-61.5 -36.85L-62.55 -37L-62.55 -38.45Q-60.85 -41.45 -52 -44.6Q-43.65 -47.55 -42.45 -51.2L-42.75 -51.15L-44.2 -51.1Q-45.05 -51.1 -46.2 -51.65L-47.6 -52.25L-52.05 -51.9Q-54.75 -52.15 -53.6 -55.1Q-54.5 -54.1 -57.7 -52.9Q-61 -51.65 -63.1 -51.65L-64.8 -51.95Q-66 -52.35 -66 -52.95Q-66 -53.9 -61.5 -56.2Q-57.05 -58.45 -57.05 -60.25Q-57.05 -60.85 -57.75 -61.4Q-58.5 -61.9 -58.5 -62.85Q-58.5 -63.8 -55.65 -66L-50.35 -70.2" />
<path style="fill:none;stroke-width:0.7;stroke-linecap:round;stroke-linejoin:round;stroke-miterlimit:3;stroke:#06182C;stroke-opacity:0.4" d="M-49.15 -77.2L-55.95 -77.95Q-62.25 -79 -62.25 -81.25Q-62.25 -84 -54.8 -85.55L-54.8 -85.75L-57.95 -86.35Q-57.05 -88.35 -50.25 -90.25Q-43.75 -92.1 -41.8 -93.45" />
<path style="fill:none;stroke-width:0.7;stroke-linecap:round;stroke-linejoin:round;stroke-miterlimit:3;stroke:#06182C;stroke-opacity:0.4" d="M-40.5 -97.8L-40.7 -97.9Q-42.6 -98.65 -41.9 -100.75Q-43.3 -99.8 -45.9 -99.25Q-48.55 -98.7 -48.5 -99.85Q-48.2 -101.6 -45.2 -103Q-43.1 -103.95 -41.3 -104.15L-40.4 -104.45" />
<path style="fill:none;stroke-width:0.7;stroke-linecap:round;stroke-linejoin:round;stroke-miterlimit:3;stroke:#06182C;stroke-opacity:0.4" d="M-33.15 -109.9Q-34.1 -110.6 -34.1 -111.3L-33.8 -112.15L-33.3 -113.05Q-35.65 -112.95 -36.65 -113.1Q-38.45 -113.3 -38.45 -114.8Q-38.45 -116.3 -34.7 -117.6L-28.35 -120L-28.4 -120.4L-28.1 -121.4L-27.8 -122.2L-35.3 -122.5L-35.3 -124.25Q-34.15 -125.8 -31.15 -126.85Q-27.45 -128.2 -28.35 -128.7L-30.1 -128.5L-32.7 -128.8L-31.9 -130.1L-30.35 -131.95Q-31.55 -131.3 -32.45 -131.2L-34.25 -131.15Q-35.85 -131.15 -36.65 -131.95Q-36.35 -132.4 -31.3 -135.55Q-26.75 -138.4 -24.65 -141.7" />
<path style="fill:none;stroke-width:0.7;stroke-linecap:round;stroke-linejoin:round;stroke-miterlimit:3;stroke:#06182C;stroke-opacity:0.4" d="M-28.95 -149.8Q-30.3 -150.55 -31.25 -151.25Q-33.8 -153 -33.8 -154.65Q-33.8 -155.9 -32.65 -156.55L-29.55 -157.85L-27.4 -158.15L-28.45 -158.3Q-32.9 -158.85 -33.5 -160.4Q-33.3 -160.4 -33.3 -160.7L-30.05 -161.2L-27.15 -161.2" />
<path style="fill:none;stroke-width:0.7;stroke-linecap:round;stroke-linejoin:round;stroke-miterlimit:3;stroke:#06182C;stroke-opacity:0.4" d="M-15.2 -164.2Q-16.3 -164.65 -17.65 -165.45Q-20.1 -166.95 -20.1 -167.85L-19.5 -168.85Q-18.95 -169.7 -18.95 -170.15L-21.35 -170.25Q-23.3 -170.55 -23.75 -171.05L-21.6 -173.3Q-20.05 -174.55 -18.85 -174.9" />
<path style="fill:none;stroke-width:0.7;stroke-linecap:round;stroke-linejoin:round;stroke-miterlimit:3;stroke:#06182C;stroke-opacity:0.4" d="M-15.05 -177.95L-15.7 -179.35L-15.8 -180.5Q-15.8 -182.4 -14.45 -183.3L-11.75 -185.2L-15.35 -185.05Q-18.05 -185.05 -18.05 -187.1L-11.6 -191.05L-7.55 -193.45" />
<path style="fill:none;stroke-width:0.7;stroke-linecap:round;stroke-linejoin:round;stroke-miterlimit:3;stroke:#06182C;stroke-opacity:0.4" d="M-6.9 -197.35L-3.45 -199.2" />
<path style="fill:none;stroke-width:0.7;stroke-linecap:round;stroke-linejoin:round;stroke-miterlimit:3;stroke:#06182C;stroke-opacity:0.4" d="M11.5 -184.75Q7.7 -184.25 3.75 -184.75L3.75 -183.65Q3.15 -183.35 2.15 -183.35Q0.9 -183.35 -0.5 -184.5Q-1.7 -185.55 -1.7 -185.95L-8.6 -182.2L-10.05 -182.2Q-10.05 -183.4 -8.6 -185.35L-11.75 -185.2" />
<path style="fill:none;stroke-width:0.7;stroke-linecap:round;stroke-linejoin:round;stroke-miterlimit:3;stroke:#06182C;stroke-opacity:0.4" d="M12.45 -161.05L13.8 -162.7" />
<path style="fill:none;stroke-width:0.7;stroke-linecap:round;stroke-linejoin:round;stroke-miterlimit:3;stroke:#06182C;stroke-opacity:0.4" d="M-3.15 -168.3Q-3.7 -167.7 -4.8 -167.7Q-6.45 -167.7 -6.7 -168.9" />
<path style="fill:none;stroke-width:0.7;stroke-linecap:round;stroke-linejoin:round;stroke-miterlimit:3;stroke:#06182C;stroke-opacity:0.4" d="M2.1 -160.9L1.75 -160.9" />
<path style="fill:none;stroke-width:0.7;stroke-linecap:round;stroke-linejoin:round;stroke-miterlimit:3;stroke:#06182C;stroke-opacity:0.4" d="M-4.3 -151.7L-3.55 -151Q-3.05 -150.7 -1.95 -150.7Q0.1 -150.7 0.95 -152.25Q1.65 -153.6 1.15 -154.3L1.15 -154.5Q1.9 -152.2 8.4 -150.2Q9.65 -150.2 9.65 -151.4L9.45 -152L9.25 -152.65" />
<path style="fill:none;stroke-width:0.7;stroke-linecap:round;stroke-linejoin:round;stroke-miterlimit:3;stroke:#06182C;stroke-opacity:0.4" d="M16.95 -144.85L17.2 -145" />
<path style="fill:none;stroke-width:0.7;stroke-linecap:round;stroke-linejoin:round;stroke-miterlimit:3;stroke:#06182C;stroke-opacity:0.4" d="M3.95 -141.45Q4.2 -141.8 4 -142.35Q2.7 -141.85 0.65 -141.85L-1.35 -142.15Q-2.4 -142.6 -2.85 -143.95L-4.5 -141.1Q-5 -140.35 -6.95 -140Q-8.95 -139.7 -7.65 -143.5L-7.8 -143.5Q-8.1 -142.7 -10.1 -141.9Q-12.15 -141.15 -13.6 -141.15Q-15.05 -141.15 -15.55 -141.75Q-16.1 -142.35 -16.1 -143.15L-15.95 -144.1L-15.75 -144.55L-17.65 -142.8" />
<path style="fill:none;stroke-width:0.7;stroke-linecap:round;stroke-linejoin:round;stroke-miterlimit:3;stroke:#06182C;stroke-opacity:0.4" d="M-15.45 -144.8L-15.75 -144.55" />
<path style="fill:none;stroke-width:0.7;stroke-linecap:round;stroke-linejoin:round;stroke-miterlimit:3;stroke:#06182C;stroke-opacity:0.4" d="M4 -142.35L4.05 -142.4Q5.7 -143.2 4.9 -144.75" />
<path style="fill:none;stroke-width:0.7;stroke-linecap:round;stroke-linejoin:round;stroke-miterlimit:3;stroke:#06182C;stroke-opacity:0.4" d="M-3.15 -109.05L-1.9 -110.85L-0.5 -112.75L3.8 -110.15Q6 -109 7.9 -109Q10.05 -109 10.6 -109.75Q11.05 -110.4 11.2 -112.9Q11 -108 17.55 -105.75L18.75 -105.4L19.95 -105.05L20.1 -105" />
<path style="fill:none;stroke-width:0.7;stroke-linecap:round;stroke-linejoin:round;stroke-miterlimit:3;stroke:#06182C;stroke-opacity:0.4" d="M23.55 -104.7L24.3 -104.65" />
<path style="fill:none;stroke-width:0.7;stroke-linecap:round;stroke-linejoin:round;stroke-miterlimit:3;stroke:#06182C;stroke-opacity:0.4" d="M41.95 -84.3L42.3 -84.35" />
<path style="fill:none;stroke-width:0.7;stroke-linecap:round;stroke-linejoin:round;stroke-miterlimit:3;stroke:#06182C;stroke-opacity:0.4" d="M41.95 -84.3L41.7 -84.3" />
<path style="fill:none;stroke-width:0.7;stroke-linecap:round;stroke-linejoin:round;stroke-miterlimit:3;stroke:#06182C;stroke-opacity:0.4" d="M0.35 -78.7L0.2 -78.5L-1.35 -76.25L-1.55 -75.9Q-2.6 -74.3 -2.6 -72.15Q-2.6 -69.8 -1.45 -68.85Q-0.75 -68.3 0.45 -68.3L4.9 -68.6Q5.25 -67.95 5.15 -66.1Q5.1 -64.85 6.2 -64.85Q8.25 -64.85 10.9 -68Q13.55 -71.2 13.75 -71.2Q14.9 -71.2 18.4 -67.3Q21.9 -63.4 22.8 -63.4Q25.3 -63.4 25.6 -64.9Q26.25 -68 26.95 -69.1Q27.95 -68.9 31.4 -67.05Q34.4 -65.45 36.45 -65.45L39.3 -65.95L39.3 -67.45L37.8 -69.55Q36.75 -70.85 36.15 -72.35L38.4 -71.9L40.6 -71.45L41.5 -71.45" />
<path style="fill:none;stroke-width:0.7;stroke-linecap:round;stroke-linejoin:round;stroke-miterlimit:3;stroke:#06182C;stroke-opacity:0.4" d="M-1.55 -100.15L-1.55 -75.9" />
<path style="fill:none;stroke-width:0.7;stroke-linecap:round;stroke-linejoin:round;stroke-miterlimit:3;stroke:#06182C;stroke-opacity:0.4" d="M0.2 -78.7L0.35 -78.7" />
<path style="fill:none;stroke-width:0.7;stroke-linecap:round;stroke-linejoin:round;stroke-miterlimit:3;stroke:#06182C;stroke-opacity:0.4" d="M0.2 -78.7L0.2 -78.5" />
<path style="fill:none;stroke-width:0.7;stroke-linecap:round;stroke-linejoin:round;stroke-miterlimit:3;stroke:#06182C;stroke-opacity:0.4" d="M-0.3 -60.25L1.75 -60.25L2.65 -57.25Q3.2 -56.5 5.3 -56.5L6.1 -56.6Q7.25 -56.85 9.15 -57.8Q11.75 -59.15 12.2 -59.15Q12.95 -59.15 14.05 -57.4Q15.15 -55.7 16.9 -55.7Q17.55 -55.7 18.75 -56.4L19.95 -57.1L20.95 -56.6Q21.45 -56.2 21.95 -56.15" />
<path style="fill:none;stroke-width:0.7;stroke-linecap:round;stroke-linejoin:round;stroke-miterlimit:3;stroke:#06182C;stroke-opacity:0.4" d="M5.35 -49.25L5.35 -49.35Q5.2 -50.35 5.2 -51.85Q5.2 -53 5.95 -56L6.1 -56.6" />
<path style="fill:none;stroke-width:0.7;stroke-linecap:round;stroke-linejoin:round;stroke-miterlimit:3;stroke:#06182C;stroke-opacity:0.4" d="M47.65 -35.45L41.35 -37.9Q38.95 -37.9 38.3 -36.2Q37.25 -33.65 36.25 -32.2Q35.6 -33.1 33.2 -34.4Q30.9 -35.65 30.05 -35.65L28 -34.35Q25.75 -33.1 23.45 -32.15L22.9 -31.95" />
<path style="fill:none;stroke-width:0.7;stroke-linecap:round;stroke-linejoin:round;stroke-miterlimit:3;stroke:#06182C;stroke-opacity:0.4" d="M9.25 -38.5Q9.45 -36.95 11.95 -36.35L15.55 -36.2Q17.55 -36.45 18.45 -34.7L20.25 -31.55" />
<path style="fill:none;stroke-width:0.7;stroke-linecap:round;stroke-linejoin:round;stroke-miterlimit:3;stroke:#06182C;stroke-opacity:0.4" d="M-4.15 -37.6Q-11.25 -38.35 -15.5 -34.8Q-18.05 -32.75 -18.95 -32.25Q-21.1 -31 -23.9 -31L-27.6 -31.6L-31.5 -32.2L-41.95 -31L-48.65 -31.6L-54.2 -32.2Q-57.1 -32.2 -61.65 -29.75L-60.8 -29.8" />
<path style="fill:none;stroke-width:0.7;stroke-linecap:round;stroke-linejoin:round;stroke-miterlimit:3;stroke:#06182C;stroke-opacity:0.4" d="M47.65 -35.45L48.3 -35.2L47.65 -35.05L47.65 -35.45z" />
<path style="fill:none;stroke-width:0.7;stroke-linecap:round;stroke-linejoin:round;stroke-miterlimit:3;stroke:#06182C;stroke-opacity:0.4" d="M-27.4 -158.15L-22.65 -157.85L-23.45 -156.55Q-23.45 -154.9 -19.25 -154.6Q-17.1 -154.4 -14.9 -154.6Q-14.9 -153.8 -15.2 -153.25Q-14.4 -152.85 -12.7 -152.55L-10.85 -152.35" />
<path style="fill:none;stroke-width:0.7;stroke-linecap:round;stroke-linejoin:round;stroke-miterlimit:3;stroke:#06182C;stroke-opacity:0.4" d="M1.45 -177.95Q0.15 -177.65 -0.5 -177.05" />
<path style="fill:none;stroke-width:0.7;stroke-linecap:round;stroke-linejoin:round;stroke-miterlimit:3;stroke:#06182C;stroke-opacity:0.4" d="M-7.75 -119.45L-9.85 -118.15Q-10.6 -117.65 -12.95 -117.65Q-13.95 -117.65 -16.75 -118.65L-19.4 -119.65Q-20 -119.65 -21.7 -119.05Q-23.45 -118.45 -24.95 -118.45Q-28 -118.45 -28.35 -120" />
<path style="fill:none;stroke-width:0.7;stroke-linecap:round;stroke-linejoin:round;stroke-miterlimit:3;stroke:#06182C;stroke-opacity:0.4" d="M-28.35 -128.7L-26.25 -129.2L-23.75 -130L-24.15 -129.25L-24.35 -128.4Q-24.35 -127.75 -23.2 -127.15Q-22.15 -126.55 -21.2 -126.55Q-19.15 -126.55 -17.5 -127.3L-14.75 -128.65" />
<path style="fill:none;stroke-width:0.7;stroke-linecap:round;stroke-linejoin:round;stroke-miterlimit:3;stroke:#06182C;stroke-opacity:0.4" d="M-30.95 -109L-30.95 -109.3" />
<path style="fill:none;stroke-width:0.7;stroke-linecap:round;stroke-linejoin:round;stroke-miterlimit:3;stroke:#06182C;stroke-opacity:0.4" d="M-40.5 -97.8L-38.75 -97.85L-37.55 -97.8" />
<path style="fill:none;stroke-width:0.7;stroke-linecap:round;stroke-linejoin:round;stroke-miterlimit:3;stroke:#06182C;stroke-opacity:0.4" d="M-13.9 -99.4L-14.3 -99.05L-14.8 -98.4Q-15.5 -97.35 -15.5 -96.6Q-15.5 -95.85 -14.45 -95.85Q-13.3 -95.85 -11.2 -96.9L-9.05 -98.1L-9 -98.1Q-9.05 -96.2 -7.3 -96.2Q-6.7 -96.2 -6.05 -96.55L-5.4 -97.1L-5.4 -101.45" />
<path style="fill:none;stroke-width:0.7;stroke-linecap:round;stroke-linejoin:round;stroke-miterlimit:3;stroke:#06182C;stroke-opacity:0.4" d="M-17.75 -108.3L-16.9 -108.75L-15.15 -109.95" />
<path style="fill:none;stroke-width:0.7;stroke-linecap:round;stroke-linejoin:round;stroke-miterlimit:3;stroke:#06182C;stroke-opacity:0.4" d="M-15.65 -83.6L-15.7 -85.25L-14.9 -88.7L-14.3 -91" />
<path style="fill:none;stroke-width:0.7;stroke-linecap:round;stroke-linejoin:round;stroke-miterlimit:3;stroke:#06182C;stroke-opacity:0.4" d="M-15.2 -82.2Q-14.7 -81.55 -13.75 -81.85Q-12.45 -82.3 -11.1 -83.95L-9.75 -85.75Q-9.9 -82.3 -8.6 -82.3Q-7.45 -82.3 -7 -83.3L-5.4 -86.3L-5.4 -97.1" />
<path style="fill:none;stroke-width:0.7;stroke-linecap:round;stroke-linejoin:round;stroke-miterlimit:3;stroke:#06182C;stroke-opacity:0.4" d="M-15.65 -83.6Q-15.4 -83.45 -15.25 -82.95L-15.15 -82.4L-15.2 -82.2" />
<path style="fill:none;stroke-width:0.7;stroke-linecap:round;stroke-linejoin:round;stroke-miterlimit:3;stroke:#06182C;stroke-opacity:0.4" d="M-22.6 -97.2L-22.35 -97.3L-22.35 -97.4" />
<path style="fill:none;stroke-width:0.7;stroke-linecap:round;stroke-linejoin:round;stroke-miterlimit:3;stroke:#06182C;stroke-opacity:0.4" d="M-22.6 -97.2L-22.8 -96.1L-22.7 -95.45L-22.35 -95.35Q-21.15 -95.35 -17.9 -96.95Q-15.35 -98.25 -14.3 -99.05" />
<path style="fill:none;stroke-width:0.7;stroke-linecap:round;stroke-linejoin:round;stroke-miterlimit:3;stroke:#06182C;stroke-opacity:0.4" d="M-20.95 -74.05L-21.5 -73.45" />
<path style="fill:none;stroke-width:0.7;stroke-linecap:round;stroke-linejoin:round;stroke-miterlimit:3;stroke:#06182C;stroke-opacity:0.4" d="M-33.5 -47.7L-33.5 -47.95L-36.5 -48.95Q-38.05 -49.95 -37.55 -51.95L-40.4 -51.95Q-41.6 -51.4 -42.45 -51.2" />
<path style="fill:none;stroke-width:0.7;stroke-linecap:round;stroke-linejoin:round;stroke-miterlimit:3;stroke:#06182C;stroke-opacity:0.4" d="M-5.35 -65.85L-5.5 -65.75Q-8.3 -63.1 -8.3 -61.45Q-8.3 -60.2 -6.3 -59.8L-4.3 -59.65L-0.3 -60.25L-1.1 -58L-4.4 -50.6" />
<path style="fill:none;stroke-width:0.7;stroke-linecap:round;stroke-linejoin:round;stroke-miterlimit:3;stroke:#06182C;stroke-opacity:0.4" d="M-1.45 -68.85Q-3.15 -68.05 -5.35 -65.85L-5.4 -86.3" />
<path style="fill:none;stroke-width:0.7;stroke-linecap:round;stroke-linejoin:round;stroke-miterlimit:3;stroke:#06182C;stroke-opacity:0.4" d="M-6.3 -51.95L-6.3 -59.8" />
<path style="fill:none;stroke-width:0.7;stroke-linecap:round;stroke-linejoin:round;stroke-miterlimit:3;stroke:#06182C;stroke-opacity:0.4" d="M-20.9 -74.45L-20.95 -74.05" />
<path style="fill:none;stroke-width:0.7;stroke-linecap:round;stroke-linejoin:round;stroke-miterlimit:3;stroke:#06182C;stroke-opacity:0.4" d="M-57.35 -37.6L-57.35 -37.45L-57.1 -37.5L-57.35 -37.6L-56.75 -37.6L-57.1 -37.5L-57.15 -37.3Q-57.35 -37 -57.35 -37.45L-58.35 -37.15L-57.35 -37.6z" />
</g>
</svg>
