<?xml version="1.0" encoding="utf-8"?>
<svg version="1.1" id="Layer_1"
xmlns="http://www.w3.org/2000/svg"
xmlns:xlink="http://www.w3.org/1999/xlink"
width="12px" height="15px"
xml:space="preserve">
<g id="PathID_1494" transform="matrix(1, 0, 0, 1, 25.25, 100.8)">
<radialGradient
id="RadialGradID_755" gradientUnits="userSpaceOnUse" gradientTransform="matrix(0.00901794, 0, 0, 0.00901794, -20.35, -94.9)" spreadMethod ="pad" cx="0" cy="0" r="819.2" fx="0" fy="0" >
<stop  offset="0.0313725"  style="stop-color:#FB4E04;stop-opacity:1" />
<stop  offset="0.25098"  style="stop-color:#BA3E00;stop-opacity:1" />
<stop  offset="1"  style="stop-color:#632100;stop-opacity:1" />
</radialGradient>
<path style="fill:url(#RadialGradID_755) " d="M-15.65 -95.5Q-14.05 -93.95 -14.05 -91.65Q-14.05 -89.4 -15.65 -87.75Q-17.25 -86.2 -19.55 -86.2Q-21.8 -86.2 -23.4 -87.75Q-25 -89.4 -25 -91.65Q-25 -93.95 -23.4 -95.5Q-21.8 -97.15 -19.55 -97.15Q-17.25 -97.15 -15.65 -95.5M-19.9 -87.9Q-21.6 -87.9 -22.85 -88.95L-22.25 -88.15Q-21 -87 -19.25 -87Q-17.45 -87 -16.3 -88.15Q-15.05 -89.4 -15.05 -91.15Q-15.05 -92.25 -15.55 -93.1L-15.5 -92.25Q-15.5 -90.4 -16.8 -89.15Q-18.05 -87.9 -19.9 -87.9" />
<linearGradient
id="LinearGradID_756" gradientUnits="userSpaceOnUse" gradientTransform="matrix(-0.00209045, -0.00361633, 0.00328064, -0.00187683, -17, -88.55)" spreadMethod ="pad" x1="-819.2" y1="0" x2="819.2" y2="0" >
<stop  offset="0" style="stop-color:#DB4602;stop-opacity:1" />
<stop  offset="1" style="stop-color:#7C2900;stop-opacity:1" />
</linearGradient>
<path style="fill:url(#LinearGradID_756) " d="M-16.8 -89.15Q-15.5 -90.4 -15.5 -92.25L-15.55 -93.1Q-15.05 -92.25 -15.05 -91.15Q-15.05 -89.4 -16.3 -88.15Q-17.45 -87 -19.25 -87Q-21 -87 -22.25 -88.15L-22.85 -88.95Q-21.6 -87.9 -19.9 -87.9Q-18.05 -87.9 -16.8 -89.15" />
<path style="fill:none;stroke-width:0.7;stroke-linecap:round;stroke-linejoin:round;stroke-miterlimit:3;stroke:#000000;stroke-opacity:0.45098" d="M-15.65 -95.5Q-14.05 -93.95 -14.05 -91.65Q-14.05 -89.4 -15.65 -87.75Q-17.25 -86.2 -19.55 -86.2Q-21.8 -86.2 -23.4 -87.75Q-25 -89.4 -25 -91.65Q-25 -93.95 -23.4 -95.5Q-21.8 -97.15 -19.55 -97.15Q-17.25 -97.15 -15.65 -95.5z" />
</g>
<g id="PathID_1495" transform="matrix(1, 0, 0, 1, 25.25, 100.8)">
<linearGradient
id="LinearGradID_757" gradientUnits="userSpaceOnUse" gradientTransform="matrix(-0.00172424, 0.00296021, -0.00230408, -0.00132751, -21.8, -94.55)" spreadMethod ="pad" x1="-819.2" y1="0" x2="819.2" y2="0" >
<stop  offset="0" style="stop-color:#FFFFFF;stop-opacity:0.501961" />
<stop  offset="1" style="stop-color:#FFFFFF;stop-opacity:0" />
</linearGradient>
<path style="fill:url(#LinearGradID_757) " d="M-22.3 -95.8L-21 -95.85Q-20.45 -95.6 -20.4 -94.75Q-20.35 -93.95 -20.85 -93.1Q-21.35 -92.2 -22.05 -91.9L-23.3 -91.8Q-23.9 -92.15 -23.95 -92.95Q-24 -93.75 -23.55 -94.6L-22.3 -95.8" />
<linearGradient
id="LinearGradID_758" gradientUnits="userSpaceOnUse" gradientTransform="matrix(-0.000839233, 0.00143433, -0.00106812, -0.000610352, -23.05, -90.45)" spreadMethod ="pad" x1="-819.2" y1="0" x2="819.2" y2="0" >
<stop  offset="0" style="stop-color:#FFFFFF;stop-opacity:0.501961" />
<stop  offset="1" style="stop-color:#FFFFFF;stop-opacity:0" />
</linearGradient>
<path style="fill:url(#LinearGradID_758) " d="M-23.7 -90.9L-23.2 -90.75L-22.8 -90.1L-22.8 -89.45L-23.2 -88.95L-23.8 -89.15L-24.1 -89.75L-24.1 -90.5L-23.7 -90.9" />
</g>
<g id="PathID_1496" transform="matrix(1, 0, 0, 1, 25.25, 100.8)">
<path style="fill:#BA6D27;fill-opacity:1" d="M-18.65 -97.3L-18.1 -97.4L-17.4 -97.7L-17.4 -96.35Q-17.4 -96.1 -18.1 -96L-18.65 -95.85L-18.65 -97.3M-20.8 -95.85L-21.35 -96L-21.85 -96.15L-21.85 -97.9L-21.35 -97.4L-20.8 -97.3L-20.8 -95.85" />
<path style="fill:#F2CF52;fill-opacity:1" d="M-18.1 -97.4L-18.65 -97.3L-19.65 -97.25L-20.35 -97.25L-20.4 -97.25L-20.8 -97.3L-21.35 -97.4L-21.85 -97.9Q-21.9 -97.75 -21.9 -97.9Q-21.85 -98.1 -21.25 -98.15L-19.65 -98.25L-18.1 -98.15Q-17.4 -98 -17.4 -97.75L-17.4 -97.7L-18.1 -97.4" />
<path style="fill:#D48627;fill-opacity:1" d="M-20.35 -97.25L-19.65 -97.25L-18.65 -97.3L-18.65 -95.85L-19.65 -95.8L-20.3 -95.8L-20.35 -95.8L-20.35 -97.25" />
<path style="fill:#F2DD8E;fill-opacity:1" d="M-20.8 -97.3L-20.4 -97.25L-20.35 -97.25L-20.35 -95.8L-20.8 -95.85L-20.8 -97.3" />
<path style="fill:none;stroke-width:0.7;stroke-linecap:round;stroke-linejoin:round;stroke-miterlimit:3;stroke:#000000;stroke-opacity:0.301961" d="M-21.85 -97.9Q-21.9 -97.75 -21.9 -97.9Q-21.85 -98.1 -21.25 -98.15L-19.65 -98.25L-18.1 -98.15Q-17.4 -98 -17.4 -97.75L-17.4 -97.7L-17.4 -96.35Q-17.4 -96.1 -18.1 -96L-18.65 -95.85L-19.65 -95.8L-20.3 -95.8" />
<path style="fill:none;stroke-width:0.7;stroke-linecap:round;stroke-linejoin:round;stroke-miterlimit:3;stroke:#000000;stroke-opacity:0.301961" d="M-20.35 -95.8L-20.8 -95.85L-21.35 -96L-21.85 -96.15L-21.85 -97.9" />
</g>
<g id="PathID_1497" transform="matrix(1, 0, 0, 1, 25.25, 100.8)">
<path style="fill:none;stroke-width:0.7;stroke-linecap:round;stroke-linejoin:round;stroke-miterlimit:3;stroke:#000000;stroke-opacity:0.45098" d="M-19.85 -97.8Q-20.8 -100.65 -19.05 -100.65" />
<path style="fill:none;stroke-width:0.7;stroke-linecap:round;stroke-linejoin:round;stroke-miterlimit:3;stroke:#000000;stroke-opacity:0.45098" d="M-18.4 -97.75Q-17.85 -98.3 -17.85 -99.2" />
</g>
</svg>
