<?xml version="1.0" encoding="utf-8"?>
<svg version="1.1" id="Layer_1"
xmlns="http://www.w3.org/2000/svg"
xmlns:xlink="http://www.w3.org/1999/xlink"
width="25px" height="32px"
xml:space="preserve">
<g id="PathID_826" transform="matrix(1, 0, 0, 1, 12.1, 31.15)">
<path style="fill:#5D1D0C;fill-opacity:1" d="M6.85 -25.9Q9.6 -26.6 8.9 -28.8L9.7 -28.2Q10.75 -27 10.25 -24.9Q9.8 -22.85 8.35 -21.55Q6.75 -20.15 4.95 -20.8Q3.65 -20.3 2.45 -21.5Q1.3 -22.6 0.95 -24.3Q0.6 -26.15 1.45 -27.4L1.75 -27.7Q1.45 -25.35 6.85 -25.9" />
<path style="fill:#7E2911;fill-opacity:1" d="M5.75 -28.9L8.9 -28.8Q9.6 -26.6 6.85 -25.9Q1.45 -25.35 1.75 -27.7Q2.8 -28.8 5 -28.75L5.3 -27.9L5.6 -27.95L5.75 -28.9M6.6 -28.4Q6.1 -28.1 5.6 -27.95Q6.1 -28.1 6.6 -28.4M5.3 -27.9L4.15 -28.05L5.3 -27.9" />
<path style="fill:#9C6A51;fill-opacity:1" d="M5.6 -27.95L5.3 -27.9L5 -28.75Q4.85 -29.4 5 -30.05L6.05 -29.95L5.75 -28.9L5.6 -27.95" />
<path style="fill:none;stroke-width:0.7;stroke-linecap:round;stroke-linejoin:round;stroke-miterlimit:3;stroke:#000000;stroke-opacity:0.290196" d="M8.9 -28.8L9.7 -28.2Q10.75 -27 10.25 -24.9Q9.8 -22.85 8.35 -21.55Q6.75 -20.15 4.95 -20.8Q3.65 -20.3 2.45 -21.5Q1.3 -22.6 0.95 -24.3Q0.6 -26.15 1.45 -27.4L1.75 -27.7Q2.8 -28.8 5 -28.75Q4.85 -29.4 5 -30.05L6.05 -29.95L5.75 -28.9L8.9 -28.8z" />
<path style="fill:none;stroke-width:0.7;stroke-linecap:round;stroke-linejoin:round;stroke-miterlimit:3;stroke:#000000;stroke-opacity:0.290196" d="M5 -28.75L5.3 -27.9L5.6 -27.95L5.75 -28.9" />
<path style="fill:none;stroke-width:0.7;stroke-linecap:round;stroke-linejoin:round;stroke-miterlimit:3;stroke:#000000;stroke-opacity:0.290196" d="M5.6 -27.95Q6.1 -28.1 6.6 -28.4" />
<path style="fill:none;stroke-width:0.7;stroke-linecap:round;stroke-linejoin:round;stroke-miterlimit:3;stroke:#000000;stroke-opacity:0.290196" d="M4.15 -28.05L5.3 -27.9" />
</g>
<g id="PathID_827" transform="matrix(1, 0, 0, 1, 12.1, 31.15)">
<path style="fill:#646025;fill-opacity:1" d="M-2.7 -28.15Q-0.2 -24 3.15 -24.5Q4.8 -23 6.45 -24.55L6.95 -23.55Q7.3 -22.5 6.7 -21.7Q6 -20.75 4.3 -20.45Q3.1 -19.2 1.8 -19.1Q0.65 -19 -0.35 -19.75Q-1.35 -20.45 -1.75 -21.65Q-2.25 -22.85 -1.9 -23.95L-2.95 -27.45L-2.7 -28.15" />
<path style="fill:#8C8746;fill-opacity:1" d="M3.15 -24.5Q-0.2 -24 -2.7 -28.15L-2.1 -28.9L-1.75 -29.1L0.2 -28.95Q2 -27.75 3.15 -26.05Q4.5 -26.05 5.6 -25.3L6.45 -24.55Q4.8 -23 3.15 -24.5" />
<path style="fill:#9C6A51;fill-opacity:1" d="M-1.75 -29.1L-2.1 -28.9Q-2.4 -29.85 -3.25 -30.7L-2.5 -31Q-1.8 -30.15 -1.75 -29.1" />
<path style="fill:none;stroke-width:0.7;stroke-linecap:round;stroke-linejoin:round;stroke-miterlimit:3;stroke:#000000;stroke-opacity:0.34902" d="M6.45 -24.55L5.6 -25.3Q4.5 -26.05 3.15 -26.05Q2 -27.75 0.2 -28.95L-1.75 -29.1L-2.1 -28.9L-2.7 -28.15" />
<path style="fill:none;stroke-width:0.7;stroke-linecap:round;stroke-linejoin:round;stroke-miterlimit:3;stroke:#000000;stroke-opacity:0.34902" d="M6.45 -24.55L6.95 -23.55Q7.3 -22.5 6.7 -21.7Q6 -20.75 4.3 -20.45Q3.1 -19.2 1.8 -19.1Q0.65 -19 -0.35 -19.75Q-1.35 -20.45 -1.75 -21.65Q-2.25 -22.85 -1.9 -23.95L-2.95 -27.45L-2.7 -28.15" />
<path style="fill:none;stroke-width:0.7;stroke-linecap:round;stroke-linejoin:round;stroke-miterlimit:3;stroke:#000000;stroke-opacity:0.34902" d="M-2.1 -28.9Q-2.4 -29.85 -3.25 -30.7L-2.5 -31Q-1.8 -30.15 -1.75 -29.1" />
</g>
<g id="PathID_828" transform="matrix(1, 0, 0, 1, 12.1, 31.15)">
<path style="fill:#B16A32;fill-opacity:1" d="M-5.1 -23.7Q-3.1 -26.35 -4.85 -28.85Q-3.05 -28.6 -1.8 -27.35Q-0.55 -26.05 -0.75 -24.5Q-0.9 -22.7 -2.95 -21.15Q-4.5 -19.95 -6.45 -20.3Q-7.7 -20.5 -8.65 -21.3Q-6.65 -21.7 -5.1 -23.7" />
<path style="fill:#E08A47;fill-opacity:1" d="M-4.85 -28.85Q-3.1 -26.35 -5.1 -23.7Q-6.65 -21.7 -8.65 -21.3L-9.4 -22Q-10.65 -23.4 -10.45 -25Q-10.3 -26.85 -8.35 -28.1Q-6.8 -29.15 -4.85 -28.85M-8.75 -23.95Q-9.6 -25.7 -7.6 -27.1Q-7.05 -27.35 -7.25 -27.75Q-7.8 -27.6 -7.6 -27.1Q-9.6 -25.7 -8.75 -23.95" />
<path style="fill:#A86735;fill-opacity:1" d="M-7.25 -27.75Q-7.05 -27.35 -7.6 -27.1Q-7.8 -27.6 -7.25 -27.75" />
<path style="fill:none;stroke-width:0.7;stroke-linecap:round;stroke-linejoin:round;stroke-miterlimit:3;stroke:#000000;stroke-opacity:0.368627" d="M-8.65 -21.3Q-7.7 -20.5 -6.45 -20.3Q-4.5 -19.95 -2.95 -21.15Q-0.9 -22.7 -0.75 -24.5Q-0.55 -26.05 -1.8 -27.35Q-3.05 -28.6 -4.85 -28.85" />
<path style="fill:none;stroke-width:0.7;stroke-linecap:round;stroke-linejoin:round;stroke-miterlimit:3;stroke:#000000;stroke-opacity:0.368627" d="M-8.65 -21.3L-9.4 -22Q-10.65 -23.4 -10.45 -25Q-10.3 -26.85 -8.35 -28.1Q-6.8 -29.15 -4.85 -28.85" />
<path style="fill:none;stroke-width:0.7;stroke-linecap:round;stroke-linejoin:round;stroke-miterlimit:3;stroke:#000000;stroke-opacity:0.368627" d="M-7.6 -27.1Q-7.8 -27.6 -7.25 -27.75Q-7.05 -27.35 -7.6 -27.1Q-9.6 -25.7 -8.75 -23.95" />
</g>
<g id="PathID_829" transform="matrix(1, 0, 0, 1, 12.1, 31.15)">
<path style="fill:#BFB5A8;fill-opacity:1" d="M-4.35 -22.45Q-5.95 -23.45 -7.75 -23.65Q-11.3 -24.1 -11.15 -20.15Q-12.9 -21.9 -10.7 -23.8Q-7.3 -25.65 -4.35 -22.45Q-2.65 -24.5 0.2 -24.55Q1.9 -24.5 3.8 -23.25Q-1.1 -24.85 -3.4 -22.3L-3.1 -19.95L-3.4 -20.55L-4.35 -22.45M4.85 -22.45Q7.75 -25.65 11.1 -23.8L12.25 -22.5Q9.35 -25.25 5.65 -22.45L3.4 -19.45L4.85 -22.45" />
<path style="fill:#64594C;fill-opacity:1" d="M2.6 -11.7Q5.55 -17.3 11.6 -20.15Q5.55 -17.3 2.6 -11.7L1.45 -11.7L1.6 -13.2Q2.2 -16.55 3.4 -19.45Q3.4 -16.05 5.35 -16.95Q10.85 -22.25 12.4 -21.55L12.35 -21.35Q12.25 -20.75 11.6 -20.15Q12.05 -19.65 11.6 -19.15Q6.2 -16.75 2.6 -11.7Q3.35 -10.9 2.6 -10.25Q1 -8.6 1.25 -4.95Q1.3 -3.5 1.7 -1.65Q2.75 -1.05 4.3 -0.9L7.5 0.2L-0.95 0.2Q1.9 0.05 1.6 -0.9L-1.1 -0.9Q0.25 -1.4 0.25 -2.45L0.5 -9.35Q-0.55 -9.85 -1.2 -8.85L-2.1 -10.25L-2.4 -10.6Q1 -10.6 1.45 -11.7M-7.85 -18.25Q-4.2 -15.65 -2.1 -11.7Q-5.75 -16.75 -11.15 -19.15Q-11.6 -19.65 -11.15 -20.15L-7.85 -18.25M3.4 -19.45Q2.2 -16.55 1.6 -13.2L1.45 -11.7L2.6 -11.7L-0.95 -11.7L-2.1 -11.7L-1.05 -12.6Q-1.45 -15.45 -2.4 -18.25Q-0.4 -15.35 0.8 -15.65L4.85 -22.45L3.4 -19.45M-2.1 -11.7Q-4.2 -15.65 -7.85 -18.25Q-5.2 -16.45 -3.55 -16.4Q-2.3 -16.2 -3.4 -20.55L-3.1 -19.95L-2.4 -18.25Q-1.45 -15.45 -1.05 -12.6L-0.95 -11.7M4.3 -0.9L1.6 -0.9L4.3 -0.9M-2.1 -10.25L2.6 -10.25L-2.1 -10.25" />
<linearGradient
id="LinearGradID_381" gradientUnits="userSpaceOnUse" gradientTransform="matrix(0.0065918, -0.00109863, 0.00144958, 0.00765991, 7.4, -18.15)" spreadMethod ="pad" x1="-819.2" y1="0" x2="819.2" y2="0" >
<stop  offset="0" style="stop-color:#C4B4A1;stop-opacity:1" />
<stop  offset="1" style="stop-color:#8C8073;stop-opacity:1" />
</linearGradient>
<path style="fill:url(#LinearGradID_381) " d="M5.35 -16.95Q3.4 -16.05 3.4 -19.45L5.65 -22.45Q9.35 -25.25 12.25 -22.5L12.4 -21.55Q10.85 -22.25 5.35 -16.95" />
<linearGradient
id="LinearGradID_382" gradientUnits="userSpaceOnUse" gradientTransform="matrix(-0.00144958, -0.00506592, 0.00802612, -0.00202942, 2.25, -20.1)" spreadMethod ="pad" x1="-819.2" y1="0" x2="819.2" y2="0" >
<stop  offset="0" style="stop-color:#C4B4A1;stop-opacity:1" />
<stop  offset="1" style="stop-color:#8C8073;stop-opacity:1" />
</linearGradient>
<path style="fill:url(#LinearGradID_382) " d="M3.8 -23.25L4.85 -22.45L0.8 -15.65Q-0.4 -15.35 -2.4 -18.25L-3.1 -19.95L-3.4 -22.3Q-1.1 -24.85 3.8 -23.25" />
<linearGradient
id="LinearGradID_383" gradientUnits="userSpaceOnUse" gradientTransform="matrix(0.00497437, 0, 0, 0.00570679, 0.2, -5.55)" spreadMethod ="pad" x1="-819.2" y1="0" x2="819.2" y2="0" >
<stop  offset="0" style="stop-color:#C4B4A1;stop-opacity:1" />
<stop  offset="1" style="stop-color:#8C8073;stop-opacity:1" />
</linearGradient>
<path style="fill:url(#LinearGradID_383) " d="M-3.8 -0.9Q-2.3 -1.05 -1.25 -1.65Q-0.85 -3.5 -0.75 -4.95Q-0.6 -7.3 -1.2 -8.85Q-0.55 -9.85 0.5 -9.35L0.25 -2.45Q0.25 -1.4 -1.1 -0.9L-3.8 -0.9" />
<linearGradient
id="LinearGradID_384" gradientUnits="userSpaceOnUse" gradientTransform="matrix(0, -0.00630188, 0.00827026, 0, -3.95, -20.45)" spreadMethod ="pad" x1="-819.2" y1="0" x2="819.2" y2="0" >
<stop  offset="0" style="stop-color:#C4B4A1;stop-opacity:1" />
<stop  offset="1" style="stop-color:#8C8073;stop-opacity:1" />
</linearGradient>
<path style="fill:url(#LinearGradID_384) " d="M-11.15 -20.15Q-11.3 -24.1 -7.75 -23.65Q-5.95 -23.45 -4.35 -22.45L-3.4 -20.55Q-2.3 -16.2 -3.55 -16.4Q-5.2 -16.45 -7.85 -18.25L-11.15 -20.15" />
<linearGradient
id="LinearGradID_385" gradientUnits="userSpaceOnUse" gradientTransform="matrix(0.00889587, 0, 0, 0.000656128, 0.2, -0.35)" spreadMethod ="pad" x1="-819.2" y1="0" x2="819.2" y2="0" >
<stop  offset="0" style="stop-color:#C4B4A1;stop-opacity:1" />
<stop  offset="1" style="stop-color:#8C8073;stop-opacity:1" />
</linearGradient>
<path style="fill:url(#LinearGradID_385) " d="M-1.1 -0.9L1.6 -0.9Q1.9 0.05 -0.95 0.2L-7.05 0.2L-3.8 -0.9L-1.1 -0.9" />
<linearGradient
id="LinearGradID_386" gradientUnits="userSpaceOnUse" gradientTransform="matrix(0.00335693, 0, 0, 0.000900269, 0.2, -10.95)" spreadMethod ="pad" x1="-819.2" y1="0" x2="819.2" y2="0" >
<stop  offset="0" style="stop-color:#C4B4A1;stop-opacity:1" />
<stop  offset="1" style="stop-color:#8C8073;stop-opacity:1" />
</linearGradient>
<path style="fill:url(#LinearGradID_386) " d="M-0.95 -11.7L1.45 -11.7Q1 -10.6 -2.4 -10.6Q-2.65 -11.15 -2.1 -11.7L-0.95 -11.7" />
<path style="fill:none;stroke-width:0.7;stroke-linecap:round;stroke-linejoin:round;stroke-miterlimit:3;stroke:#000000;stroke-opacity:0.298039" d="M12.25 -22.5L12.4 -21.55L12.35 -21.35Q12.25 -20.75 11.6 -20.15Q12.05 -19.65 11.6 -19.15Q6.2 -16.75 2.6 -11.7Q3.35 -10.9 2.6 -10.25Q1 -8.6 1.25 -4.95Q1.3 -3.5 1.7 -1.65Q2.75 -1.05 4.3 -0.9L7.5 0.2L-0.95 0.2L-7.05 0.2L-3.8 -0.9Q-2.3 -1.05 -1.25 -1.65Q-0.85 -3.5 -0.75 -4.95Q-0.6 -7.3 -1.2 -8.85L-2.1 -10.25L-2.4 -10.6Q-2.65 -11.15 -2.1 -11.7Q-5.75 -16.75 -11.15 -19.15Q-11.6 -19.65 -11.15 -20.15Q-12.9 -21.9 -10.7 -23.8Q-7.3 -25.65 -4.35 -22.45Q-2.65 -24.5 0.2 -24.55Q1.9 -24.5 3.8 -23.25L4.85 -22.45Q7.75 -25.65 11.1 -23.8L12.25 -22.5z" />
<path style="fill:none;stroke-width:0.7;stroke-linecap:round;stroke-linejoin:round;stroke-miterlimit:3;stroke:#000000;stroke-opacity:0.298039" d="M-2.4 -18.25Q-1.45 -15.45 -1.05 -12.6L-0.95 -11.7L1.45 -11.7L1.6 -13.2Q2.2 -16.55 3.4 -19.45L4.85 -22.45" />
<path style="fill:none;stroke-width:0.7;stroke-linecap:round;stroke-linejoin:round;stroke-miterlimit:3;stroke:#000000;stroke-opacity:0.298039" d="M1.6 -0.9L4.3 -0.9" />
<path style="fill:none;stroke-width:0.7;stroke-linecap:round;stroke-linejoin:round;stroke-miterlimit:3;stroke:#000000;stroke-opacity:0.298039" d="M-1.1 -0.9L1.6 -0.9" />
<path style="fill:none;stroke-width:0.7;stroke-linecap:round;stroke-linejoin:round;stroke-miterlimit:3;stroke:#000000;stroke-opacity:0.298039" d="M1.45 -11.7L2.6 -11.7Q5.55 -17.3 11.6 -20.15" />
<path style="fill:none;stroke-width:0.7;stroke-linecap:round;stroke-linejoin:round;stroke-miterlimit:3;stroke:#000000;stroke-opacity:0.298039" d="M-2.4 -18.25L-3.1 -19.95L-3.4 -20.55" />
<path style="fill:none;stroke-width:0.7;stroke-linecap:round;stroke-linejoin:round;stroke-miterlimit:3;stroke:#000000;stroke-opacity:0.298039" d="M-7.85 -18.25Q-4.2 -15.65 -2.1 -11.7L-0.95 -11.7" />
<path style="fill:none;stroke-width:0.7;stroke-linecap:round;stroke-linejoin:round;stroke-miterlimit:3;stroke:#000000;stroke-opacity:0.298039" d="M-11.15 -20.15L-7.85 -18.25" />
<path style="fill:none;stroke-width:0.7;stroke-linecap:round;stroke-linejoin:round;stroke-miterlimit:3;stroke:#000000;stroke-opacity:0.298039" d="M-3.4 -20.55L-4.35 -22.45" />
<path style="fill:none;stroke-width:0.7;stroke-linecap:round;stroke-linejoin:round;stroke-miterlimit:3;stroke:#000000;stroke-opacity:0.298039" d="M-3.8 -0.9L-1.1 -0.9" />
<path style="fill:none;stroke-width:0.7;stroke-linecap:round;stroke-linejoin:round;stroke-miterlimit:3;stroke:#000000;stroke-opacity:0.298039" d="M2.6 -10.25L-2.1 -10.25" />
</g>
</svg>
