<?xml version="1.0" encoding="utf-8"?>
<svg version="1.1" id="Layer_1"
xmlns="http://www.w3.org/2000/svg"
xmlns:xlink="http://www.w3.org/1999/xlink"
width="19px" height="31px"
xml:space="preserve">
<g id="PathID_1475" transform="matrix(1, 0, 0, 1, 0.15, -0.45)">
<path style="fill:#3B5100;fill-opacity:1" d="M2.85 4.35L5.15 1.1Q5.05 4.4 2.75 7.75L5.4 0.6L6.15 5.15Q6.15 7.3 5.85 8.15Q5.25 9.9 3.3 9.9Q0.6 9.9 0.6 7.5L2.85 4.35M2.75 7.75Q5.05 4.4 5.15 1.1" />
<path style="fill:#37580E;fill-opacity:1" d="M10.95 25.25Q10.3 27 9.3 28.3Q7.4 30.85 5 30.9Q3.15 30.95 1.6 30.25Q-0.05 29.5 0 28.5Q0.15 26.45 2.45 24.25L5 22.2Q7.15 21.55 5.15 26.6Q6.85 24.5 7.75 22.15Q11.55 19.5 10.95 25.25" />
<path style="fill:#274304;fill-opacity:1" d="M7.75 22.15Q6.85 24.5 5.15 26.6Q7.15 21.55 5 22.2Q7.6 19.95 9.2 16.35Q11.55 18.55 11.55 21.6Q8.55 20 7.75 22.15M11.55 21.6Q11.55 23.4 10.95 25.25Q11.55 19.5 7.75 22.15Q8.55 20 9.2 16.35" />
<path style="fill:#3F690C;fill-opacity:1" d="M18.15 16.95Q18.15 17.9 16.3 17.9Q13.15 17.9 11.2 14.4Q10.1 12.45 9.2 8.7Q10.85 12.5 14.95 15.9Q11 10.7 15.1 13.8Q18.15 16.1 18.15 16.95M14.95 15.9Q10.85 12.5 9.2 8.7" />
<path style="fill:none;stroke-width:0.7;stroke-linecap:round;stroke-linejoin:round;stroke-miterlimit:3;stroke:#000000;stroke-opacity:0.301961" d="M2.85 4.35L5.15 1.1L5.4 0.6L6.15 5.15Q6.15 7.3 5.85 8.15Q5.25 9.9 3.3 9.9Q0.6 9.9 0.6 7.5L2.85 4.35z" />
<path style="fill:none;stroke-width:0.7;stroke-linecap:round;stroke-linejoin:round;stroke-miterlimit:3;stroke:#000000;stroke-opacity:0.301961" d="M5.15 1.1Q5.05 4.4 2.75 7.75" />
<path style="fill:none;stroke-width:0.7;stroke-linecap:round;stroke-linejoin:round;stroke-miterlimit:3;stroke:#000000;stroke-opacity:0.301961" d="M9.2 16.35Q7.6 19.95 5 22.2" />
<path style="fill:none;stroke-width:0.7;stroke-linecap:round;stroke-linejoin:round;stroke-miterlimit:3;stroke:#000000;stroke-opacity:0.301961" d="M5.15 26.6Q6.85 24.5 7.75 22.15Q8.55 20 9.2 16.35Q11.55 18.55 11.55 21.6Q11.55 23.4 10.95 25.25Q10.3 27 9.3 28.3Q7.4 30.85 5 30.9Q3.15 30.95 1.6 30.25Q-0.05 29.5 0 28.5Q0.15 26.45 2.45 24.25L5 22.2" />
<path style="fill:none;stroke-width:0.7;stroke-linecap:round;stroke-linejoin:round;stroke-miterlimit:3;stroke:#000000;stroke-opacity:0.301961" d="M18.15 16.95Q18.15 17.9 16.3 17.9Q13.15 17.9 11.2 14.4Q10.1 12.45 9.2 8.7Q11 10.7 15.1 13.8Q18.15 16.1 18.15 16.95z" />
<path style="fill:none;stroke-width:0.7;stroke-linecap:round;stroke-linejoin:round;stroke-miterlimit:3;stroke:#000000;stroke-opacity:0.301961" d="M9.2 8.7Q10.85 12.5 14.95 15.9" />
</g>
</svg>
