<?xml version="1.0" encoding="utf-8"?>
<svg version="1.1" id="Layer_1"
xmlns="http://www.w3.org/2000/svg"
xmlns:xlink="http://www.w3.org/1999/xlink"
width="11px" height="14px"
xml:space="preserve">
<g id="PathID_1110" transform="matrix(1, 0, 0, 1, 13.35, 65.7)">
<path style="fill:none;stroke-width:1;stroke-linecap:round;stroke-linejoin:round;stroke-miterlimit:3;stroke:#000000;stroke-opacity:0.298039" d="M-8 -55.3L-8 -56.15" />
</g>
<g id="PathID_1111" transform="matrix(1, 0, 0, 1, 13.35, 65.7)">
<radialGradient
id="RadialGradID_545" gradientUnits="userSpaceOnUse" gradientTransform="matrix(0.00616455, 0, 0, 0.00793457, -8, -59.1)" spreadMethod ="pad" cx="0" cy="0" r="819.2" fx="0" fy="0" >
<stop  offset="0"  style="stop-color:#FFFDF5;stop-opacity:0.878431" />
<stop  offset="0.14902"  style="stop-color:#FFD202;stop-opacity:0.701961" />
<stop  offset="0.392157"  style="stop-color:#F79331;stop-opacity:0.541176" />
<stop  offset="0.615686"  style="stop-color:#FCC86F;stop-opacity:0.141176" />
<stop  offset="1"  style="stop-color:#FFDD87;stop-opacity:0" />
</radialGradient>
<path style="fill:url(#RadialGradID_545) " d="M-4.3 -63.75Q-2.75 -61.85 -2.75 -59.1Q-2.75 -56.4 -4.3 -54.45Q-5.8 -52.55 -8 -52.55Q-10.25 -52.55 -11.8 -54.45Q-13.35 -56.4 -13.35 -59.1Q-13.35 -61.85 -11.8 -63.75Q-10.25 -65.7 -8 -65.7Q-5.8 -65.7 -4.3 -63.75" />
</g>
<g id="PathID_1112" transform="matrix(1, 0, 0, 1, 13.35, 65.7)">
<linearGradient
id="LinearGradID_546" gradientUnits="userSpaceOnUse" gradientTransform="matrix(-1.52588e-005, 0.00296021, -0.00408936, -1.52588e-005, -8.1, -59.15)" spreadMethod ="pad" x1="-819.2" y1="0" x2="819.2" y2="0" >
<stop  offset="0" style="stop-color:#F35225;stop-opacity:1" />
<stop  offset="0.988235" style="stop-color:#FFE362;stop-opacity:1" />
</linearGradient>
<path style="fill:url(#LinearGradID_546) " d="M-7.25 -58.6Q-8 -59.35 -8.1 -60.25L-8.15 -58.05Q-8.8 -58.2 -8.55 -59.35Q-9.45 -58 -7.75 -57.2L-7.8 -57.2Q-9.8 -57.5 -9.45 -59L-9.05 -60.25L-8.2 -61.35Q-7.1 -62.85 -7.7 -64.6Q-6.4 -62.4 -7.4 -60.7L-7.35 -60.25L-7.2 -59.9L-6.6 -59Q-6.05 -58.15 -6.35 -57.75Q-6.7 -57.4 -7.3 -57.35Q-6.75 -58.05 -7.25 -58.6" />
<path style="fill:#FFF1B4;fill-opacity:1" d="M-7.3 -57.35L-7.75 -57.2Q-9.45 -58 -8.55 -59.35Q-8.8 -58.2 -8.15 -58.05L-8.1 -60.25Q-8 -59.35 -7.25 -58.6Q-6.75 -58.05 -7.3 -57.35" />
</g>
</svg>
