<?xml version="1.0" encoding="utf-8"?>
<svg version="1.1" id="Layer_1"
xmlns="http://www.w3.org/2000/svg"
xmlns:xlink="http://www.w3.org/1999/xlink"
width="26px" height="37px"
xml:space="preserve">
<g id="PathID_1046" transform="matrix(1, 0, 0, 1, 12.1, 36.05)">
<path style="fill:#DEFFFE;fill-opacity:0.701961" d="M7.6 -22.45L1 -23Q-2.6 -22.6 -7.4 -19.1Q-9.55 -17.5 -11.6 -12.3Q-11.45 -16.7 -8 -20.95Q-4.6 -25.05 1.35 -24.45Q5.3 -24 7.6 -22.45" />
<path style="fill:#C7E3E2;fill-opacity:0.301961" d="M10.6 -17.2Q10.95 -14.2 10.35 -11.55Q8.55 -3.8 -0.3 -3.3Q-4.75 -3.05 -8.4 -6.95Q-11.15 -9.95 -11.6 -12.3Q-9.55 -17.5 -7.4 -19.1Q-2.6 -22.6 1 -23L7.6 -22.45L9.8 -20.5Q10.35 -19.6 10.6 -17.2" />
<path style="fill:#7EAAA8;fill-opacity:0.658824" d="M-11.6 -12.3Q-11.15 -9.95 -8.4 -6.95Q-4.75 -3.05 -0.3 -3.3Q8.55 -3.8 10.35 -11.55Q10.95 -14.2 10.6 -17.2Q10.35 -19.6 9.8 -20.5Q12.95 -17.05 12.95 -12.3Q12.95 -9.6 12 -6.8Q10.95 -3.85 9.25 -2.15Q7.45 -0.35 0.55 -0.35Q-6.35 -0.35 -8.1 -2.15Q-9.8 -3.8 -10.75 -6.8Q-11.6 -9.45 -11.6 -12.3" />
<path style="fill:none;stroke-width:1;stroke-linecap:round;stroke-linejoin:round;stroke-miterlimit:3;stroke:#3B5424;stroke-opacity:0.301961" d="M9.8 -20.5L7.6 -22.45" />
<path style="fill:none;stroke-width:1;stroke-linecap:round;stroke-linejoin:round;stroke-miterlimit:3;stroke:#3B5424;stroke-opacity:0.301961" d="M9.8 -20.5Q12.95 -17.05 12.95 -12.3Q12.95 -9.6 12 -6.8Q10.95 -3.85 9.25 -2.15Q7.45 -0.35 0.55 -0.35Q-6.35 -0.35 -8.1 -2.15Q-9.8 -3.8 -10.75 -6.8Q-11.6 -9.45 -11.6 -12.3Q-11.45 -16.7 -8 -20.95Q-4.6 -25.05 1.35 -24.45Q5.3 -24 7.6 -22.45" />
</g>
<g id="PathID_1047" transform="matrix(1, 0, 0, 1, 12.1, 36.05)">
<path style="fill:#FFFFFF;fill-opacity:0.321569" d="M-2.7 -22.45Q-1.55 -22.45 -1 -21.5Q-0.35 -20.7 -0.7 -19.3Q-1.1 -18.1 -2.1 -17.25Q-3.1 -16.4 -4.2 -16.35Q-5.4 -16.5 -6 -17.3Q-6.55 -18.2 -6.2 -19.4Q-5.9 -20.75 -4.95 -21.55Q-3.9 -22.45 -2.7 -22.45M-8.4 -12.9Q-8.95 -13.05 -9.25 -13.55Q-9.6 -14 -9.45 -14.65L-8.8 -15.55L-7.65 -15.7Q-7 -15.55 -6.8 -15Q-6.45 -14.5 -6.7 -13.85Q-6.85 -13.3 -7.35 -12.95L-8.4 -12.9" />
</g>
<g id="PathID_1048" transform="matrix(1, 0, 0, 1, 12.1, 36.05)">
<path style="fill:#F0C384;fill-opacity:1" d="M-2.35 -35.6L-3.25 -35.85L0 -36.05L4 -35.75L2 -35.5L-2.35 -35.6" />
<path style="fill:#4D381B;fill-opacity:1" d="M2 -35.5L4 -35.75L3.05 -30.85Q2.55 -29.55 1.45 -29.5Q2.55 -34.3 2 -35.5" />
<path style="fill:#966F36;fill-opacity:1" d="M2 -35.5Q2.55 -34.3 1.45 -29.5L-0.5 -29.65L-2.35 -35.6L2 -35.5" />
<path style="fill:#CC9449;fill-opacity:1" d="M-2.35 -35.6L-0.5 -29.65L-1.4 -30.45L-3.25 -35.85L-2.35 -35.6" />
<path style="fill:none;stroke-width:0.7;stroke-linecap:round;stroke-linejoin:round;stroke-miterlimit:3;stroke:#000000;stroke-opacity:0.301961" d="M4 -35.75L3.05 -30.85Q2.55 -29.55 1.45 -29.5L-0.5 -29.65L-1.4 -30.45L-3.25 -35.85L0 -36.05L4 -35.75z" />
</g>
<g id="PathID_1049" transform="matrix(1, 0, 0, 1, 12.1, 36.05)">
<path style="fill:#7EAAA8;fill-opacity:0.658824" d="M1.85 -31.8L3.55 -31.95L1.85 -31.8Q3.7 -33 3.4 -34.55L5.3 -34.4Q6.3 -33.6 5.05 -32.85L3.55 -31.95L3.55 -22.75Q2.75 -22.15 1.85 -21.85L1.85 -31.8" />
<path style="fill:#C7E3E2;fill-opacity:0.301961" d="M1.85 -31.8L-1.05 -31.8L1.85 -21.85L-1.05 -21.95L-1.05 -31.8L1.85 -31.8M-1.05 -31.8Q-3.1 -33.15 -2.6 -34.55Q0.4 -34.75 3.4 -34.55Q3.7 -33 1.85 -31.8" />
<path style="fill:#DEFFFE;fill-opacity:0.701961" d="M-1.05 -21.95L-2.65 -22.75L-2.65 -31.95L-1.05 -31.8L-4.1 -32.85Q-5.25 -33.6 -4.35 -34.4L-2.6 -34.55Q-3.1 -33.15 -1.05 -31.8L-2.65 -31.95L-1.05 -21.95" />
<path style="fill:none;stroke-width:0.8;stroke-linecap:round;stroke-linejoin:round;stroke-miterlimit:3;stroke:#3B5424;stroke-opacity:0.301961" d="M3.4 -34.55L5.3 -34.4Q6.3 -33.6 5.05 -32.85L3.55 -31.95L3.55 -22.75" />
<path style="fill:none;stroke-width:0.7;stroke-linecap:round;stroke-linejoin:round;stroke-miterlimit:3;stroke:#3B5424;stroke-opacity:0.2" d="M3.55 -22.75Q2.75 -22.15 1.85 -21.85L-1.05 -21.95L-2.65 -22.75" />
<path style="fill:none;stroke-width:0.8;stroke-linecap:round;stroke-linejoin:round;stroke-miterlimit:3;stroke:#3B5424;stroke-opacity:0.301961" d="M-2.65 -22.75L-2.65 -31.95L-4.1 -32.85Q-5.25 -33.6 -4.35 -34.4L-2.6 -34.55Q0.4 -34.75 3.4 -34.55" />
<path style="fill:none;stroke-width:0.7;stroke-linecap:round;stroke-linejoin:round;stroke-miterlimit:3;stroke:#3B5424;stroke-opacity:0.2" d="M1.85 -31.8L3.55 -31.95" />
<path style="fill:none;stroke-width:0.7;stroke-linecap:round;stroke-linejoin:round;stroke-miterlimit:3;stroke:#3B5424;stroke-opacity:0.2" d="M-2.65 -31.95L-1.05 -31.8L1.85 -31.8" />
</g>
</svg>
