<?xml version="1.0" encoding="utf-8"?>
<svg version="1.1" id="Layer_1"
xmlns="http://www.w3.org/2000/svg"
xmlns:xlink="http://www.w3.org/1999/xlink"
width="95px" height="87px"
xml:space="preserve">
<g id="PathID_1129" transform="matrix(1, 0, 0, 1, 34.5, 84.95)">
<path style="fill:#000000;fill-opacity:0.0196078" d="M44.65 -78.1Q45.55 -77.35 45.25 -76.8Q45 -76.25 44.15 -76.7Q42.55 -76.8 42.7 -77.6Q42.9 -78.45 44.65 -78.1M36.4 -71.55Q33.55 -70.8 29.1 -75.3Q28.95 -76.45 29.55 -76.7Q31.4 -77.65 33.4 -78.2L37.25 -77.35L39.85 -74Q39.4 -72.75 37.7 -72L36.4 -71.55M41.25 -55.65L43.2 -51.35L41.75 -50.55L41.1 -48.75L40.65 -49.6L40.1 -49.55L38.15 -46.4L37.6 -47.75Q37.3 -52.65 36.4 -54.45L38.1 -55.55L33.55 -59.85L37.35 -60L40.75 -60L40.55 -58.35Q40.45 -57.5 41.25 -55.65M11.75 -69.75L15.1 -69.7Q16.3 -68.7 17.45 -67.95Q16.7 -67.45 14.6 -66.6L14.55 -66.55Q13.6 -66.15 13.45 -65.4L11.15 -67.1L11 -67.6L10.85 -68.4Q10.85 -68.75 11.2 -69.15L11.75 -69.75" />
<path style="fill:#000000;fill-opacity:0.0509804" d="M52.6 -40.95Q52.4 -42.3 53.7 -42.75L54.1 -41.95L52.6 -40.95M50.35 -18.65L52.05 -18.85Q52.2 -18.2 50.35 -17.8L50.35 -18.65M48.8 -20.75Q50.65 -21.2 51.45 -19.65L49.9 -19.85L48.8 -20.75" />
<path style="fill:none;stroke-width:0.7;stroke-linecap:round;stroke-linejoin:round;stroke-miterlimit:3;stroke:#000000;stroke-opacity:0.101961" d="M44.65 -78.1Q44.85 -79.1 45.5 -79.95L46.1 -80.65L49.2 -81.25Q49.75 -81.35 52.75 -83.4L53.8 -83.95L55.1 -84.5" />
<path style="fill:none;stroke-width:0.7;stroke-linecap:round;stroke-linejoin:round;stroke-miterlimit:3;stroke:#000000;stroke-opacity:0.101961" d="M46.2 -84.65Q44.95 -83.85 43.5 -83.7Q42.2 -83.45 41.15 -82.7L44.65 -81.15" />
<path style="fill:none;stroke-width:0.7;stroke-linecap:round;stroke-linejoin:round;stroke-miterlimit:3;stroke:#000000;stroke-opacity:0.101961" d="M44.65 -78.1Q45.55 -77.35 45.25 -76.8Q45 -76.25 44.15 -76.7L45.4 -74.5L45.7 -74.3" />
<path style="fill:none;stroke-width:0.7;stroke-linecap:round;stroke-linejoin:round;stroke-miterlimit:3;stroke:#000000;stroke-opacity:0.101961" d="M39.85 -74Q41.75 -73.35 43.55 -74.7L45.4 -74.5" />
<path style="fill:none;stroke-width:0.7;stroke-linecap:round;stroke-linejoin:round;stroke-miterlimit:3;stroke:#000000;stroke-opacity:0.101961" d="M44.15 -76.7Q42.55 -76.8 42.7 -77.6L37.25 -77.35L39.85 -74Q39.4 -72.75 37.7 -72Q38.5 -69.9 41.5 -67.95L44.85 -65.7L46.6 -64.05" />
<path style="fill:none;stroke-width:0.7;stroke-linecap:round;stroke-linejoin:round;stroke-miterlimit:3;stroke:#000000;stroke-opacity:0.101961" d="M42.7 -77.6Q42.9 -78.45 44.65 -78.1L46.05 -77.95L47.55 -77.15" />
<path style="fill:none;stroke-width:0.7;stroke-linecap:round;stroke-linejoin:round;stroke-miterlimit:3;stroke:#000000;stroke-opacity:0.101961" d="M52.75 -83.4L60.5 -82.3" />
<path style="fill:none;stroke-width:0.7;stroke-linecap:round;stroke-linejoin:round;stroke-miterlimit:3;stroke:#000000;stroke-opacity:0.101961" d="M55.85 -80.85Q54.6 -80.3 54.15 -79.05L53.3 -78.35L52.05 -77.6Q52.3 -77.4 54.5 -76.5L57.05 -75.35" />
<path style="fill:none;stroke-width:0.7;stroke-linecap:round;stroke-linejoin:round;stroke-miterlimit:3;stroke:#000000;stroke-opacity:0.101961" d="M52.05 -77.6Q51 -77.05 49.95 -76.75" />
<path style="fill:none;stroke-width:0.7;stroke-linecap:round;stroke-linejoin:round;stroke-miterlimit:3;stroke:#000000;stroke-opacity:0.101961" d="M43.2 -51.35L43.8 -49.65L46.25 -51.3L48.75 -53.05L54.65 -49L56.05 -51.3L54.35 -52.85Q53.05 -54.2 52.9 -55.35Q52.8 -56.15 53.85 -56.65Q54.75 -57.05 53.9 -59.35L52.5 -59.4Q53.1 -61.15 51.65 -61.95" />
<path style="fill:none;stroke-width:0.7;stroke-linecap:round;stroke-linejoin:round;stroke-miterlimit:3;stroke:#000000;stroke-opacity:0.101961" d="M40.55 -58.35L40.75 -60L37.35 -60L33.55 -59.85L38.1 -55.55L36.4 -54.45Q37.3 -52.65 37.6 -47.75L38.15 -46.4L40.1 -49.55L40.65 -49.6L41.1 -48.75L41.75 -50.55L43.2 -51.35L41.25 -55.65Q40.45 -57.5 40.55 -58.35z" />
<path style="fill:none;stroke-width:0.7;stroke-linecap:round;stroke-linejoin:round;stroke-miterlimit:3;stroke:#000000;stroke-opacity:0.101961" d="M46.25 -51.3Q47.1 -51.2 47.9 -49.95" />
<path style="fill:none;stroke-width:0.7;stroke-linecap:round;stroke-linejoin:round;stroke-miterlimit:3;stroke:#000000;stroke-opacity:0.101961" d="M56.85 -54.3L56.05 -51.3" />
<path style="fill:none;stroke-width:0.7;stroke-linecap:round;stroke-linejoin:round;stroke-miterlimit:3;stroke:#000000;stroke-opacity:0.101961" d="M41.15 -82.7Q40.6 -83.15 38.75 -83.5L36.4 -83.65Q33.75 -83.05 31.35 -84.25Q30.6 -82.85 29.1 -82.75L26.55 -82.9L25.4 -81.85Q24.25 -80.9 21.95 -81.35L21.95 -79.7L22.7 -79.25L21.65 -76.8L23.2 -76.9Q27.05 -75.45 29.1 -75.3Q28.95 -76.45 29.55 -76.7Q31.4 -77.65 33.4 -78.2L32.9 -78.35Q31.5 -79.05 30.9 -80.4" />
<path style="fill:none;stroke-width:0.7;stroke-linecap:round;stroke-linejoin:round;stroke-miterlimit:3;stroke:#000000;stroke-opacity:0.101961" d="M26.65 -84.95Q26.25 -84.6 26.2 -84.25Q26.1 -83.45 26.55 -82.9" />
<path style="fill:none;stroke-width:0.7;stroke-linecap:round;stroke-linejoin:round;stroke-miterlimit:3;stroke:#000000;stroke-opacity:0.101961" d="M31.35 -84.25L31.9 -84.6L32.65 -84.8" />
<path style="fill:none;stroke-width:0.7;stroke-linecap:round;stroke-linejoin:round;stroke-miterlimit:3;stroke:#000000;stroke-opacity:0.101961" d="M33.4 -78.2L37.25 -77.35" />
<path style="fill:none;stroke-width:0.7;stroke-linecap:round;stroke-linejoin:round;stroke-miterlimit:3;stroke:#000000;stroke-opacity:0.101961" d="M15.1 -84.8L13.95 -82.8Q14.3 -82.1 15.1 -81.85L16.5 -81.45L16.85 -81.3" />
<path style="fill:none;stroke-width:0.7;stroke-linecap:round;stroke-linejoin:round;stroke-miterlimit:3;stroke:#000000;stroke-opacity:0.101961" d="M11.2 -69.15Q10.85 -68.75 10.85 -68.4L11 -67.6L11.15 -67.1L13.45 -65.4Q13.6 -66.15 14.55 -66.55L14.6 -66.6Q16.7 -67.45 17.45 -67.95Q16.3 -68.7 15.1 -69.7L11.75 -69.75L11.2 -69.15z" />
<path style="fill:none;stroke-width:0.7;stroke-linecap:round;stroke-linejoin:round;stroke-miterlimit:3;stroke:#000000;stroke-opacity:0.101961" d="M10.5 -63.65L13.45 -65.4" />
<path style="fill:none;stroke-width:0.7;stroke-linecap:round;stroke-linejoin:round;stroke-miterlimit:3;stroke:#000000;stroke-opacity:0.101961" d="M14.55 -66.55L16.8 -65.8Q17 -65.6 16.8 -64.95L16.35 -64.25Q15.8 -63.9 15.2 -63.95Q14.5 -63.95 13.65 -63.1" />
<path style="fill:none;stroke-width:0.7;stroke-linecap:round;stroke-linejoin:round;stroke-miterlimit:3;stroke:#000000;stroke-opacity:0.101961" d="M15.65 -63L20.5 -64.25L21.8 -63.2L23.95 -63.75L23.95 -63.85L24.4 -64.5L24.7 -65.3L22.5 -66.55L20.25 -67.65L18.8 -67.35Q18.35 -67.35 17.45 -67.95" />
<path style="fill:none;stroke-width:0.7;stroke-linecap:round;stroke-linejoin:round;stroke-miterlimit:3;stroke:#000000;stroke-opacity:0.101961" d="M5.95 -63.8L6.5 -63.85L6.65 -64.25L6.15 -64.8L5.75 -65.5L6.2 -66.4L6.65 -66.9L5.55 -67.65Q4.65 -68.6 5.25 -69.95" />
<path style="fill:none;stroke-width:0.7;stroke-linecap:round;stroke-linejoin:round;stroke-miterlimit:3;stroke:#000000;stroke-opacity:0.101961" d="M11.15 -67.1L7.45 -67.2L6.65 -66.9" />
<path style="fill:none;stroke-width:0.7;stroke-linecap:round;stroke-linejoin:round;stroke-miterlimit:3;stroke:#000000;stroke-opacity:0.101961" d="M37.35 -60Q38.55 -61.25 34.35 -63.2Q31.55 -66.7 30.9 -63.8L31.75 -61.65L33.55 -59.85" />
<path style="fill:none;stroke-width:0.7;stroke-linecap:round;stroke-linejoin:round;stroke-miterlimit:3;stroke:#000000;stroke-opacity:0.101961" d="M29.1 -75.3Q33.55 -70.8 36.4 -71.55L37.7 -72" />
<path style="fill:none;stroke-width:0.7;stroke-linecap:round;stroke-linejoin:round;stroke-miterlimit:3;stroke:#000000;stroke-opacity:0.101961" d="M30.9 -63.8Q27.5 -67.2 23.45 -68.15L20.25 -67.65" />
<path style="fill:none;stroke-width:0.7;stroke-linecap:round;stroke-linejoin:round;stroke-miterlimit:3;stroke:#000000;stroke-opacity:0.101961" d="M31.75 -61.65L23.95 -63.75" />
<path style="fill:none;stroke-width:0.7;stroke-linecap:round;stroke-linejoin:round;stroke-miterlimit:3;stroke:#000000;stroke-opacity:0.101961" d="M21.65 -76.8Q21 -74.4 16.7 -73.95" />
<path style="fill:none;stroke-width:0.7;stroke-linecap:round;stroke-linejoin:round;stroke-miterlimit:3;stroke:#000000;stroke-opacity:0.101961" d="M39.9 -11.8Q39.9 -13.25 39.15 -14.25Q38.4 -15.3 37.35 -15.3L37 -14.6" />
<path style="fill:none;stroke-width:0.7;stroke-linecap:round;stroke-linejoin:round;stroke-miterlimit:3;stroke:#000000;stroke-opacity:0.101961" d="M36.3 -9.8L37.1 -9.35L37.7 -8.95L37.55 -10.95" />
<path style="fill:none;stroke-width:0.7;stroke-linecap:round;stroke-linejoin:round;stroke-miterlimit:3;stroke:#000000;stroke-opacity:0.101961" d="M38.3 -1.3L37.9 -5.25L37.7 -8.95" />
<path style="fill:none;stroke-width:0.7;stroke-linecap:round;stroke-linejoin:round;stroke-miterlimit:3;stroke:#000000;stroke-opacity:0.101961" d="M48.3 1.3L47.2 -1Q47.35 -2.6 47.65 -3.4L45.1 -6.05L43.7 -7.35L39.6 -3.6L37.9 -5.25" />
<path style="fill:none;stroke-width:0.7;stroke-linecap:round;stroke-linejoin:round;stroke-miterlimit:3;stroke:#000000;stroke-opacity:0.101961" d="M54.65 -49Q53.4 -48.3 53.9 -47Q54.25 -45.4 54.1 -44.5Q54.95 -44.75 55.2 -43.4L56.8 -45.6" />
<path style="fill:none;stroke-width:0.7;stroke-linecap:round;stroke-linejoin:round;stroke-miterlimit:3;stroke:#000000;stroke-opacity:0.101961" d="M55.5 -38.8Q56.65 -39.6 55.3 -41.9L54.1 -41.95Q53.5 -40.6 55.5 -38.75L55.5 -38.8z" />
<path style="fill:none;stroke-width:0.7;stroke-linecap:round;stroke-linejoin:round;stroke-miterlimit:3;stroke:#000000;stroke-opacity:0.101961" d="M54.1 -41.95L53.7 -42.75Q52.4 -42.3 52.6 -40.95L54.1 -41.95z" />
<path style="fill:none;stroke-width:0.7;stroke-linecap:round;stroke-linejoin:round;stroke-miterlimit:3;stroke:#000000;stroke-opacity:0.101961" d="M49.2 -37.4L49.95 -37.6Q53.1 -37.2 54.35 -37.6Q55.45 -37.95 55.5 -38.75Q52.5 -37.55 52.6 -40.95Q51.45 -40.45 50.45 -42.8" />
<path style="fill:none;stroke-width:0.7;stroke-linecap:round;stroke-linejoin:round;stroke-miterlimit:3;stroke:#000000;stroke-opacity:0.101961" d="M54.1 -44.5L53.7 -42.75" />
<path style="fill:none;stroke-width:0.7;stroke-linecap:round;stroke-linejoin:round;stroke-miterlimit:3;stroke:#000000;stroke-opacity:0.101961" d="M55.2 -43.4L55.3 -41.9" />
<path style="fill:none;stroke-width:0.7;stroke-linecap:round;stroke-linejoin:round;stroke-miterlimit:3;stroke:#000000;stroke-opacity:0.101961" d="M41 -31.15L43.55 -30.75Q42.85 -32.75 44.3 -34.7Q45.4 -36.2 46.35 -36.55Q44.3 -36.1 43.35 -39.45Q42.35 -42.85 40.8 -43.3L37.3 -39.55" />
<path style="fill:none;stroke-width:0.7;stroke-linecap:round;stroke-linejoin:round;stroke-miterlimit:3;stroke:#000000;stroke-opacity:0.101961" d="M37.15 -28.3L40.95 -35L40.65 -36.2L37.45 -35.15" />
<path style="fill:none;stroke-width:0.7;stroke-linecap:round;stroke-linejoin:round;stroke-miterlimit:3;stroke:#000000;stroke-opacity:0.101961" d="M43.55 -30.75Q44.1 -30.85 45.35 -30.15L46.7 -29.2L46.5 -27.05Q46.1 -25.05 46.35 -24.25L46.65 -23.75Q49.3 -24.5 50.45 -27Q51.25 -28.75 51.6 -31.05L51.85 -33.75Q51.95 -34.1 51.25 -35.55L49.95 -37.6" />
<path style="fill:none;stroke-width:0.7;stroke-linecap:round;stroke-linejoin:round;stroke-miterlimit:3;stroke:#000000;stroke-opacity:0.101961" d="M47.5 -36.95L46.35 -36.55" />
<path style="fill:none;stroke-width:0.7;stroke-linecap:round;stroke-linejoin:round;stroke-miterlimit:3;stroke:#000000;stroke-opacity:0.101961" d="M57.05 -30.85L53.75 -31.1L52.6 -30.95L51.6 -31.05" />
<path style="fill:none;stroke-width:0.7;stroke-linecap:round;stroke-linejoin:round;stroke-miterlimit:3;stroke:#000000;stroke-opacity:0.101961" d="M55.5 -38.75L56.9 -36.9" />
<path style="fill:none;stroke-width:0.7;stroke-linecap:round;stroke-linejoin:round;stroke-miterlimit:3;stroke:#000000;stroke-opacity:0.101961" d="M56.85 -25.1Q55.75 -21.5 54.85 -20.2Q53.8 -18.75 52.05 -18.9L52.05 -18.85Q52.2 -18.2 50.35 -17.8L50.35 -16.85L54.15 -12.95L57.2 -14.85" />
<path style="fill:none;stroke-width:0.7;stroke-linecap:round;stroke-linejoin:round;stroke-miterlimit:3;stroke:#000000;stroke-opacity:0.101961" d="M51.45 -19.65Q52.5 -19.4 52.05 -18.9" />
<path style="fill:none;stroke-width:0.7;stroke-linecap:round;stroke-linejoin:round;stroke-miterlimit:3;stroke:#000000;stroke-opacity:0.101961" d="M46.65 -23.75Q47.65 -23.2 47.55 -22.05L47.45 -21.35L48.8 -20.75Q50.65 -21.2 51.45 -19.65L49.9 -19.85L48.8 -20.75" />
<path style="fill:none;stroke-width:0.7;stroke-linecap:round;stroke-linejoin:round;stroke-miterlimit:3;stroke:#000000;stroke-opacity:0.101961" d="M50.35 -16.85L44.3 -18.85L44.3 -18.5L43.95 -18.5L43 -14.45Q42.4 -11.95 42.7 -9.4Q42.8 -8.75 43.7 -7.35" />
<path style="fill:none;stroke-width:0.7;stroke-linecap:round;stroke-linejoin:round;stroke-miterlimit:3;stroke:#000000;stroke-opacity:0.101961" d="M43.95 -18.5L43.15 -18.5L41.25 -21.3" />
<path style="fill:none;stroke-width:0.7;stroke-linecap:round;stroke-linejoin:round;stroke-miterlimit:3;stroke:#000000;stroke-opacity:0.101961" d="M44.3 -18.85L43.95 -18.5" />
<path style="fill:none;stroke-width:0.7;stroke-linecap:round;stroke-linejoin:round;stroke-miterlimit:3;stroke:#000000;stroke-opacity:0.101961" d="M52.05 -18.85L50.35 -18.65L50.35 -17.8" />
<path style="fill:none;stroke-width:0.7;stroke-linecap:round;stroke-linejoin:round;stroke-miterlimit:3;stroke:#000000;stroke-opacity:0.101961" d="M58.95 -4.7L57.7 -4.95L55.6 -4.35L51.9 -3.5L48.95 -5.65Q48.05 -4.65 47.65 -3.4" />
<path style="fill:none;stroke-width:0.7;stroke-linecap:round;stroke-linejoin:round;stroke-miterlimit:3;stroke:#000000;stroke-opacity:0.101961" d="M48.95 -5.65L50.25 -9.15" />
<path style="fill:none;stroke-width:0.7;stroke-linecap:round;stroke-linejoin:round;stroke-miterlimit:3;stroke:#000000;stroke-opacity:0.101961" d="M54.15 -12.95L55.6 -4.35" />
<path style="fill:none;stroke-width:0.7;stroke-linecap:round;stroke-linejoin:round;stroke-miterlimit:3;stroke:#000000;stroke-opacity:0.101961" d="M37.35 -15.3L40.9 -21.75L37 -27.85" />
</g>
<g id="PathID_1130" transform="matrix(1, 0, 0, 1, 34.5, 84.95)">
<radialGradient
id="RadialGradID_560" gradientUnits="userSpaceOnUse" gradientTransform="matrix(-0.0301666, 0.0114746, 0.0248871, 0.0609131, 32.95, -30.65)" spreadMethod ="pad" cx="0" cy="0" r="819.2" fx="0" fy="0" >
<stop  offset="0"  style="stop-color:#F35225;stop-opacity:1" />
<stop  offset="0.215686"  style="stop-color:#FFE362;stop-opacity:1" />
<stop  offset="0.54902"  style="stop-color:#FEDB5E;stop-opacity:0" />
</radialGradient>
<path style="fill:url(#RadialGradID_560) " d="M3.25 -65.5Q27.7 -65.4 33.95 -62.45Q39.65 -59.8 40.75 -52.55L40.75 -10.65L39.9 -9.2L39.9 1.15L36 -2.3L36 -12.1L37.15 -13.45L37.15 -50.85Q36.65 -61.6 11.7 -63.4L3.25 -63.8L3.25 -65.5" />
</g>
<g id="PathID_1131" transform="matrix(1, 0, 0, 1, 34.5, 84.95)">
<radialGradient
id="RadialGradID_561" gradientUnits="userSpaceOnUse" gradientTransform="matrix(0.0423431, 0, 0, 0.033493, 2, -26.9)" spreadMethod ="pad" cx="0" cy="0" r="819.2" fx="0" fy="0" >
<stop  offset="0"  style="stop-color:#FFFDF5;stop-opacity:0.878431" />
<stop  offset="0.14902"  style="stop-color:#FFD202;stop-opacity:0.701961" />
<stop  offset="0.392157"  style="stop-color:#F79331;stop-opacity:0.541176" />
<stop  offset="0.615686"  style="stop-color:#FCC86F;stop-opacity:0.141176" />
<stop  offset="1"  style="stop-color:#FFDD87;stop-opacity:0" />
</radialGradient>
<path style="fill:url(#RadialGradID_561) " d="M38.25 -26.9Q38.25 -15.4 27.65 -7.2Q17.1 0.8 2 0.8Q-13.35 0.8 -23.95 -7.2Q-34.5 -15.4 -34.5 -26.9Q-34.5 -38.45 -23.95 -46.5Q-13.35 -54.65 2 -54.65Q17.1 -54.65 27.65 -46.5Q38.25 -38.45 38.25 -26.9" />
</g>
<g id="PathID_1132" transform="matrix(1, 0, 0, 1, 34.5, 84.95)">
<path style="fill:#3A2711;fill-opacity:1" d="M-11.05 -2.25Q-10.35 -3.7 -10.45 -5.5Q-10.7 -7.45 -11.7 -8.65Q-12.7 -9.85 -13.85 -9.8L0.95 -11.2Q4.6 -10.65 4.8 -7.4Q5 -4.15 2.3 -3.3L-12.55 -0.8Q-11.7 -1.05 -11.05 -2.25M-2.8 -9.65L-8.4 -8.8L-2.8 -9.65M2.5 -5.65L-1.75 -4.95L2.5 -5.65M2.3 -7.9L-8.65 -6.75L2.3 -7.9" />
<path style="fill:#77542D;fill-opacity:1" d="M-12.55 -0.8L-13 -0.65L-13.05 -0.65L-13.1 -0.7Q-14.25 -0.6 -15.25 -1.8Q-16.3 -3.05 -16.5 -4.95Q-16.7 -6.85 -15.9 -8.25Q-15.2 -9.65 -13.95 -9.75L-13.85 -9.8Q-12.7 -9.85 -11.7 -8.65Q-10.7 -7.45 -10.45 -5.5Q-10.35 -3.7 -11.05 -2.25Q-11.7 -1.05 -12.55 -0.8M-13.1 -0.7Q-13.9 -1 -14.5 -2Q-15.15 -3.05 -15.15 -4.45Q-15.15 -5.85 -14.65 -6.6Q-14.25 -7.15 -13.8 -7.15Q-12.5 -7.15 -12.5 -3.75L-12.6 -2.9L-12.85 -2.7Q-13.35 -2.7 -13.8 -3.75L-14.15 -4.95L-14.05 -5.5Q-13.2 -5.45 -13.4 -4.55Q-13.2 -5.45 -14.05 -5.5L-14.15 -4.95L-13.8 -3.75Q-13.35 -2.7 -12.85 -2.7L-12.6 -2.9L-12.5 -3.75Q-12.5 -7.15 -13.8 -7.15Q-14.25 -7.15 -14.65 -6.6Q-15.15 -5.85 -15.15 -4.45Q-15.15 -3.05 -14.5 -2Q-13.9 -1 -13.1 -0.7L-13.05 -0.65" />
<path style="fill:none;stroke-width:0.7;stroke-linecap:round;stroke-linejoin:round;stroke-miterlimit:3;stroke:#000000;stroke-opacity:0.301961" d="M-13.85 -9.8L0.95 -11.2Q4.6 -10.65 4.8 -7.4Q5 -4.15 2.3 -3.3L-12.55 -0.8L-13 -0.65L-13.05 -0.65Q-14.25 -0.6 -15.25 -1.8Q-16.3 -3.05 -16.5 -4.95Q-16.7 -6.85 -15.9 -8.25Q-15.2 -9.65 -13.95 -9.75L-13.85 -9.8Q-12.7 -9.85 -11.7 -8.65Q-10.7 -7.45 -10.45 -5.5Q-10.35 -3.7 -11.05 -2.25Q-11.7 -1.05 -12.55 -0.8" />
<path style="fill:none;stroke-width:0.7;stroke-linecap:round;stroke-linejoin:round;stroke-miterlimit:3;stroke:#000000;stroke-opacity:0.301961" d="M-13.05 -0.65L-13.1 -0.7Q-13.9 -1 -14.5 -2Q-15.15 -3.05 -15.15 -4.45Q-15.15 -5.85 -14.65 -6.6Q-14.25 -7.15 -13.8 -7.15Q-12.5 -7.15 -12.5 -3.75L-12.6 -2.9L-12.85 -2.7Q-13.35 -2.7 -13.8 -3.75L-14.15 -4.95L-14.05 -5.5Q-13.2 -5.45 -13.4 -4.55" />
<path style="fill:none;stroke-width:0.7;stroke-linecap:round;stroke-linejoin:round;stroke-miterlimit:3;stroke:#000000;stroke-opacity:0.301961" d="M-8.4 -8.8L-2.8 -9.65" />
<path style="fill:none;stroke-width:0.7;stroke-linecap:round;stroke-linejoin:round;stroke-miterlimit:3;stroke:#000000;stroke-opacity:0.301961" d="M-1.75 -4.95L2.5 -5.65" />
<path style="fill:none;stroke-width:0.7;stroke-linecap:round;stroke-linejoin:round;stroke-miterlimit:3;stroke:#000000;stroke-opacity:0.301961" d="M-8.65 -6.75L2.3 -7.9" />
</g>
<g id="PathID_1133" transform="matrix(1, 0, 0, 1, 34.5, 84.95)">
<path style="fill:#3A2711;fill-opacity:1" d="M2.85 -4.85L6.35 -4.45L2.85 -4.85M14.6 -8.05Q13.8 -6.95 13.6 -5.35Q13.45 -3.8 14.05 -2.7Q14.6 -1.7 15.35 -1.55L3 -2.95Q0.75 -3.5 0.9 -6.25Q1.1 -8.95 4.1 -9.6L16.4 -9.05Q15.4 -9.05 14.6 -8.05M3 -6.8L12.1 -6.3L3 -6.8M7.25 -8.45L11.9 -7.95L7.25 -8.45" />
<path style="fill:#77542D;fill-opacity:1" d="M15.35 -1.55Q14.6 -1.7 14.05 -2.7Q13.45 -3.8 13.6 -5.35Q13.8 -6.95 14.6 -8.05Q15.4 -9.05 16.4 -9.05L16.45 -9Q17.5 -9 18.15 -7.85Q18.8 -6.75 18.6 -5.15Q18.45 -3.6 17.55 -2.45Q16.75 -1.4 15.7 -1.45L15.8 -1.5L15.35 -1.55M15.8 -1.5Q16.45 -1.75 16.9 -2.65Q17.45 -3.5 17.45 -4.7Q17.45 -5.85 17.1 -6.5Q16.75 -6.85 16.4 -6.85Q15.3 -6.85 15.3 -4.05L15.35 -3.3Q15.35 -3.15 15.6 -3.15Q16 -3.15 16.35 -4.05L16.65 -5.05L16.55 -5.5Q15.85 -5.4 16.05 -4.75Q15.85 -5.4 16.55 -5.5L16.65 -5.05L16.35 -4.05Q16 -3.15 15.6 -3.15Q15.35 -3.15 15.35 -3.3L15.3 -4.05Q15.3 -6.85 16.4 -6.85Q16.75 -6.85 17.1 -6.5Q17.45 -5.85 17.45 -4.7Q17.45 -3.5 16.9 -2.65Q16.45 -1.75 15.8 -1.5L15.7 -1.45" />
<path style="fill:none;stroke-width:0.7;stroke-linecap:round;stroke-linejoin:round;stroke-miterlimit:3;stroke:#000000;stroke-opacity:0.301961" d="M6.35 -4.45L2.85 -4.85" />
<path style="fill:none;stroke-width:0.7;stroke-linecap:round;stroke-linejoin:round;stroke-miterlimit:3;stroke:#000000;stroke-opacity:0.301961" d="M16.4 -9.05L4.1 -9.6Q1.1 -8.95 0.9 -6.25Q0.75 -3.5 3 -2.95L15.35 -1.55Q14.6 -1.7 14.05 -2.7Q13.45 -3.8 13.6 -5.35Q13.8 -6.95 14.6 -8.05Q15.4 -9.05 16.4 -9.05L16.45 -9Q17.5 -9 18.15 -7.85Q18.8 -6.75 18.6 -5.15Q18.45 -3.6 17.55 -2.45Q16.75 -1.4 15.7 -1.45L15.35 -1.55" />
<path style="fill:none;stroke-width:0.7;stroke-linecap:round;stroke-linejoin:round;stroke-miterlimit:3;stroke:#000000;stroke-opacity:0.301961" d="M15.7 -1.45L15.8 -1.5Q16.45 -1.75 16.9 -2.65Q17.45 -3.5 17.45 -4.7Q17.45 -5.85 17.1 -6.5Q16.75 -6.85 16.4 -6.85Q15.3 -6.85 15.3 -4.05L15.35 -3.3Q15.35 -3.15 15.6 -3.15Q16 -3.15 16.35 -4.05L16.65 -5.05L16.55 -5.5Q15.85 -5.4 16.05 -4.75" />
<path style="fill:none;stroke-width:0.7;stroke-linecap:round;stroke-linejoin:round;stroke-miterlimit:3;stroke:#000000;stroke-opacity:0.301961" d="M12.1 -6.3L3 -6.8" />
<path style="fill:none;stroke-width:0.7;stroke-linecap:round;stroke-linejoin:round;stroke-miterlimit:3;stroke:#000000;stroke-opacity:0.301961" d="M11.9 -7.95L7.25 -8.45" />
</g>
<g id="PathID_1134" transform="matrix(1, 0, 0, 1, 34.5, 84.95)">
<linearGradient
id="LinearGradID_562" gradientUnits="userSpaceOnUse" gradientTransform="matrix(-4.57764e-005, 0.0122528, -0.0303192, -0.000106812, 3.2, -20.6)" spreadMethod ="pad" x1="-819.2" y1="0" x2="819.2" y2="0" >
<stop  offset="0" style="stop-color:#F35225;stop-opacity:1" />
<stop  offset="1" style="stop-color:#FFE362;stop-opacity:0.760784" />
</linearGradient>
<path style="fill:url(#LinearGradID_562) " d="M5 -49.55Q4.4 -47.5 7.95 -42.85Q7.65 -45.4 10.4 -46.8Q12.95 -48.1 12.1 -49.9Q14 -48 11.95 -46.8Q10.85 -45.55 10.7 -43.75Q10.25 -41.75 11.3 -38.55L11.7 -37.95L11.75 -37.3L11.55 -35.7L11.4 -34.2L11.4 -33.95L11.65 -33.7L12.3 -35.35L12.65 -36.4Q14.2 -33.6 14.2 -31.4L13.95 -28.15L13.6 -26.05L13.6 -25.05Q14.8 -24.95 16.3 -29.8Q17.8 -34.7 21.05 -36.7Q18.1 -32.9 18.5 -30.6L18.85 -27.95Q18.85 -25.3 16.75 -21.5Q14.55 -17.7 14.55 -15.7Q14.55 -13.7 14.85 -12.5L15.2 -11.15Q15.8 -11.05 16.1 -12.2Q16.55 -14.2 17.9 -15.95L21.25 -19.95L21.35 -20.05L20.85 -17.4Q20 -13.3 20 -12.05Q20 -10.5 20.3 -8.6L20.5 -8.6L22.6 -9.95Q24.65 -11.25 25.15 -18.7Q26.8 -14.95 25.2 -9.2Q24.95 -6 21.2 -5.15L16.1 -3.8L11.95 -3.1L4.05 -4.45L-0.8 -4Q-3 -3.75 -4.2 -4.95Q-10.05 -5.5 -13.4 -7Q-18.6 -9.3 -18.6 -14.2Q-18.6 -15.35 -18.1 -16.9L-17.05 -18.05L-16.25 -19.5Q-15.9 -20.25 -16.15 -21.45L-17.35 -19.25L-16.9 -21.65L-16.25 -25.1Q-15.9 -26.75 -21.25 -29.7L-19.7 -28.95Q-18.55 -29.35 -16.6 -28.2Q-14.4 -26.85 -14.4 -24.75Q-14.4 -23.95 -14.7 -23.2L-15 -22.15Q-15 -21.45 -13.35 -20.3L-11.2 -19L-12.3 -20.3Q-12.95 -21.1 -12.95 -22.2L-11.25 -24.25L-11.05 -23.65L-10.8 -23.15L-9.9 -25.75Q-8.8 -27.35 -8.6 -29.15L-8.6 -29.25Q-7.9 -31.05 -7.9 -31.55Q-7.9 -32.6 -9.15 -35.3L-9 -31.6L-10 -33.7Q-11.45 -36.4 -11.45 -38.75Q-11.45 -40.15 -10.55 -42.25L-9.25 -44.9L-9.4 -42.1Q-9.4 -40.6 -8.4 -38.7L-7.55 -37.35L-7.15 -38.55L-4.25 -44.75Q-3.4 -46.45 -3.1 -49.1L-2.95 -51.3Q-0.4 -48.55 -2.4 -41.6Q-4.1 -35.65 -0.9 -35.2Q0.35 -38.65 1.9 -41.15Q2.2 -43.65 1.25 -46.1Q3.25 -42.5 3 -40.15Q2.75 -37.6 1.7 -36.15Q0.55 -34.65 2.85 -33.05Q3.6 -32.55 3.3 -31.2L0.45 -33.2Q2.5 -31.7 2.9 -30.2Q1.75 -27.9 0.6 -26.65L5.95 -30.5Q7.35 -34.95 6.95 -38.1L8.8 -35.35Q8.95 -37.1 7.35 -38.8Q5.75 -40.55 5.3 -42.05Q2.1 -48.9 6.15 -51.7Q5.5 -51.05 5 -49.55M-19.7 -28.95L-19.7 -29.1L-21.25 -29.7" />
<linearGradient
id="LinearGradID_563" gradientUnits="userSpaceOnUse" gradientTransform="matrix(-4.57764e-005, 0.0122528, -0.0303192, -0.000106812, 3.2, -20.6)" spreadMethod ="pad" x1="-819.2" y1="0" x2="819.2" y2="0" >
<stop  offset="0" style="stop-color:#F35225;stop-opacity:1" />
<stop  offset="0.988235" style="stop-color:#FFE362;stop-opacity:1" />
</linearGradient>
<path style="fill:url(#LinearGradID_563) " d="M23.4 -36.25L22.8 -32.45Q22.35 -29.95 21.3 -29.1L21.3 -28.9L21.2 -29.1L21.15 -30.15Q21.15 -30.85 22.05 -32.8Q23.15 -35 23.4 -36.25M-12.95 -29.6L-13.6 -31.4L-14.3 -37.8Q-13.95 -35.25 -12.3 -33.5Q-11.65 -32.75 -11.8 -30.35L-12.1 -28.1L-12.95 -29.6" />
<linearGradient
id="LinearGradID_564" gradientUnits="userSpaceOnUse" gradientTransform="matrix(0.00152588, 0.00567627, -0.00938416, 0.00250244, 16.65, -36.9)" spreadMethod ="pad" x1="-819.2" y1="0" x2="819.2" y2="0" >
<stop  offset="0.0431373" style="stop-color:#F35225;stop-opacity:1" />
<stop  offset="1" style="stop-color:#FFE362;stop-opacity:0.760784" />
</linearGradient>
<path style="fill:url(#LinearGradID_564) " d="M17.4 -46.3Q16.95 -43.6 17.35 -41.8Q17.45 -41.2 17.9 -40.05L16.85 -41.1Q16.15 -39.6 16.25 -37.7Q16.3 -36.4 16.6 -35.15Q16.8 -34.2 16.1 -33.4L15.3 -36.7L14.3 -39.5L14.1 -37.45Q13.15 -38.8 13.55 -40.5Q13.95 -42.55 15.05 -44.35Q14.95 -42.65 15.1 -41.55L16.25 -45.05L17.95 -48.65L17.4 -46.3" />
</g>
<g id="PathID_1135" transform="matrix(1, 0, 0, 1, 34.5, 84.95)">
<path style="fill:#FFF1B4;fill-opacity:0.858824" d="M8.9 -31.9L8.55 -30.55L7.7 -29.5L7.5 -29.05Q7.35 -30.15 7.75 -31.35L8.15 -32.95L8.05 -34.4L8.7 -33.25Q9.1 -32.6 8.9 -31.9M6 -25.8L3.35 -22.75L3.35 -20.85Q4.75 -20.25 5.5 -22.15L4.15 -19.1Q2.75 -17.4 2.75 -15.65L2.85 -14.35L3.25 -12.9L3.45 -14.6Q3.5 -15.85 4.65 -17.5Q4.65 -16.9 4.8 -16.3Q5.05 -15.2 5.6 -15.2L5.55 -16.9Q5.55 -19.05 6.5 -21Q7.25 -22.5 9.5 -24.3Q11.55 -26 11.4 -27.75Q11.2 -29.55 10.2 -31.45L9.6 -32.55L10.85 -30.65Q12.4 -28.25 12.4 -27.7Q12.4 -26.1 10.65 -23.5Q8.95 -20.8 9.05 -18.8Q6.35 -16.75 8.35 -15.2L10.6 -19.1L11 -16.9Q11 -17.65 13.35 -19.4Q15.6 -21.15 17 -21.75L17.15 -21.75L14.1 -17.45Q12.2 -14.5 12.2 -12.45Q12.2 -10.7 13.55 -9.15Q14.65 -7.8 16.7 -7.65Q18.65 -7.55 19.85 -11.05L19.85 -10.65Q19.85 -7.45 18.7 -5.85Q16.8 -3.45 11.6 -3.7L4.3 -3.15L-2 -2.45Q-3.05 -2.45 -6.85 -3.7Q-11.4 -5.15 -11.5 -6.5Q-11.7 -7.2 -11.4 -8.5Q-11.3 -9.7 -12.45 -10.75L-15.1 -12.75L-15.75 -13.15Q-13.75 -12.35 -10.35 -11.65L-10.35 -12.2L-11 -14.3Q-11.7 -16.15 -10.05 -16.5Q-8.45 -16.9 -10.35 -19.35Q-8.25 -19.8 -7.2 -13.95L-7.15 -17.15Q-7.45 -20.5 -9.05 -21.65L-8.45 -22.55L-7.35 -24.05Q-6.45 -25.5 -6.05 -27.2Q-7.45 -24.25 -8.5 -24.25Q-7.3 -24.9 -7.3 -28.85Q-7.15 -30.85 -5.55 -32.1L-3.3 -34.35L-3.75 -33.45Q-5.6 -29.7 -4.1 -29.25L-2.45 -29.35Q-3.4 -26.95 -4.1 -26L-5 -24.5Q-5.15 -23.95 -4.55 -23.2L-3.25 -21.45Q-3.75 -22.85 0.75 -24.4L-0.55 -22.3Q-0.55 -22.1 0.15 -22.5L1.6 -23.85L2.65 -25.05Q7 -26.65 7.85 -28.6Q7.45 -27.55 6 -25.8M16.2 -12.45Q17.45 -10.7 17.1 -10.2L16.8 -9.9L16.75 -9.8Q15.8 -10 15.5 -10.5Q15.05 -11.15 15.05 -12.8Q15.05 -15.2 16 -16.75Q15 -14.25 16.2 -12.45M-13.05 -13.95Q-14.5 -14.7 -15 -16.2L-15.75 -19.5L-14.6 -18.3Q-13.8 -17.5 -13.6 -16.6L-13.3 -14.7L-13.05 -13.95" />
</g>
</svg>
