<?xml version="1.0" encoding="utf-8"?>
<svg version="1.1" id="Layer_1"
xmlns="http://www.w3.org/2000/svg"
xmlns:xlink="http://www.w3.org/1999/xlink"
width="13px" height="16px"
xml:space="preserve">
<g id="PathID_749" transform="matrix(1, 0, 0, 1, 5.3, 26.5)">
<path style="fill:#000000;fill-opacity:0.301961" d="M7.25 -25.8L7.05 -25.35L6.6 -25.15L-4.65 -25.15Q-4.9 -25.15 -5.1 -25.35L-5.3 -25.8L-5.3 -25.85L-5.1 -26.3Q-4.9 -26.5 -4.65 -26.5L6.6 -26.5L7.05 -26.3L7.25 -25.85L7.25 -25.8" />
</g>
<g id="PathID_750" transform="matrix(1, 0, 0, 1, 5.3, 26.5)">
<path style="fill:#000000;fill-opacity:0.301961" d="M7.25 -11.65L7.25 -11.6L7.05 -11.15L6.6 -10.95L-4.65 -10.95Q-4.9 -10.95 -5.1 -11.15L-5.3 -11.6L-5.3 -11.65L-5.1 -12.1Q-4.9 -12.3 -4.65 -12.3L6.6 -12.3L7.05 -12.1L7.25 -11.65" />
</g>
</svg>
