<?xml version="1.0" encoding="utf-8"?>
<svg version="1.1" id="Layer_1"
xmlns="http://www.w3.org/2000/svg"
xmlns:xlink="http://www.w3.org/1999/xlink"
width="60px" height="84px"
xml:space="preserve">
<g id="PathID_851" transform="matrix(1, 0, 0, 1, 0, 82.8)">
<path style="fill:#E2E1DE;fill-opacity:0.65098" d="M55 -63.35Q53.45 -61.3 53.45 -60L53.55 -59.45Q53.8 -58.95 54.65 -58.95Q56.55 -58.95 56.5 -62.15Q56.5 -65.4 55 -63.35M54.7 -52.55L54.3 -50.6Q54.05 -48.35 54.6 -46.5L55.4 -44.75Q53.2 -34.25 54.9 -23.1L52.1 -37.6L51 -39.8Q50.1 -41.4 48.7 -40.95Q47.25 -40.5 47.45 -33.4Q45.95 -36.9 44.65 -34.1L42.55 -29.5Q41.95 -30.15 41.3 -29.95Q40.1 -29.5 39.65 -25.05L39.85 -23.75L40.2 -22.35Q39.3 -18.3 39.95 -13.1Q37 -20.1 34.75 -19.25Q32.45 -18.4 32.35 -15.75L30.25 -18.05Q29.4 -19.05 29 -16.95Q28.55 -14.9 29.8 -9.8L28.75 -2.65Q28 -5.9 26.95 -6.8L26.95 -6.85Q26.95 -9.95 25 -11.45Q23 -12.95 23 -10L23.2 -8.95Q19.95 -9.7 16.9 -6.65Q16.45 -7.9 15.45 -8.65Q14.4 -9.45 13.65 -5.95Q12.85 -2.45 13.35 -1.65Q11.3 -3.25 11.6 0.55Q11 -0.55 5.45 -0.2L0 0.65Q11.35 -7.7 21.7 -17.5Q41.85 -36.6 49.5 -54.7Q51.9 -60.35 55.55 -71.35L59.25 -82.8L58 -57.6L57.55 -57.55Q54.7 -56.85 54.7 -52.55M40.4 -34.95Q40.75 -34.35 41.55 -34.35Q44.2 -34.35 50.15 -49.7Q50.15 -49.95 45.2 -43Q40.2 -36.05 40.2 -35.65L40.4 -34.95M37.15 -26.95L37.7 -26.85Q38.75 -27 38.75 -27.65Q38.75 -28.45 37.95 -28.5Q37.1 -28.55 37.1 -27.75L37.15 -26.95M18.45 -10.3L18.55 -10.1L18.9 -10.05Q21.4 -10.05 21.85 -10.45L21.95 -11.4Q21.95 -13.15 20.45 -12.75Q19 -12.35 18.4 -10.6L18.45 -10.3M38.75 -21.3Q37.45 -25.1 36.85 -25.6Q36.35 -25.4 35.55 -23.9Q34.8 -22.55 34.8 -22.1L36.05 -20.8Q37.35 -19.6 37.8 -19.6Q38.9 -19.6 38.75 -21.3M53.25 -40.5L53.3 -41.6Q53.3 -44 51.55 -44.1Q49.75 -44.15 49.75 -42.55L50.65 -41.45Q51.75 -40.35 52.75 -40.35L53.25 -40.5" />
</g>
</svg>
