<?xml version="1.0" encoding="utf-8"?>
<svg version="1.1" id="Layer_1"
xmlns="http://www.w3.org/2000/svg"
xmlns:xlink="http://www.w3.org/1999/xlink"
width="48px" height="51px"
xml:space="preserve">
<g id="PathID_1801" transform="matrix(1, 0, 0, 1, 21.8, 51.25)">
<path style="fill:#A87437;fill-opacity:1" d="M4.05 -50.8L4.4 -51.05L14.75 -51.1L14.4 -50.8L12.05 -50.8L7.85 -50.8L4.05 -50.8M19.5 -49.2L17.05 -49.25L14.4 -49.25L14.75 -49.75L25.55 -49.6L24.8 -49.15L22.15 -49.2L19.5 -49.2M-14.45 -49.3L-17.35 -49.3L-17.5 -49.75L-21.65 -49.3L-21.15 -49.75L-17.5 -49.75L-17.35 -49.3L-13.85 -49.75L-14.45 -49.3M-5.5 -47.8L-10 -47.8L-12.25 -47.8L-14.45 -47.8L-13.85 -48.25L-5.5 -48.25L-5.5 -47.8M4.05 -49.1L-0.45 -49.2L-5.5 -49.3L-5.1 -49.6L-0.5 -49.5L4.05 -49.45L4.05 -49.1" />
<path style="fill:#462E13;fill-opacity:1" d="M24.8 -49.15L25.55 -49.6L25.4 -0.95L24.95 -1.05L24.95 -2.7L24.9 -16.6L24.8 -49.15" />
<path style="fill:#583D1D;fill-opacity:1" d="M14.4 -49.25L14.4 -50.8L14.75 -51.1L14.75 -49.75L14.4 -49.25M-13.85 -49.75L-13.85 -48.25L-14.45 -47.8L-14.45 -49.3L-13.85 -49.75" />
<linearGradient
id="LinearGradID_1004" gradientUnits="userSpaceOnUse" gradientTransform="matrix(-0.00271606, 0.0280151, -0.0302429, -0.00292969, 9.15, -26.55)" spreadMethod ="pad" x1="-819.2" y1="0" x2="819.2" y2="0" >
<stop  offset="0.0235294" style="stop-color:#704F29;stop-opacity:1" />
<stop  offset="1" style="stop-color:#5D4120;stop-opacity:1" />
</linearGradient>
<path style="fill:url(#LinearGradID_1004) " d="M14.4 -26.25L14.4 -13.6L14.4 -8.55L13.65 -0.95L13.05 -0.95L12.3 -2.7Q4.9 -20.5 12.05 -50.8L14.4 -50.8L14.4 -49.25L14.4 -42.6L14.4 -38.85Q10.95 -30.05 14.4 -26.25M4.05 -6.05L4.05 -8.6L4.05 -15.55Q9 -9 7.7 -2.7L7.2 -0.95L5.6 -0.95L4.05 -6.05M4.05 -49.45L4.05 -50.8L7.85 -50.8Q7.4 -42.4 4.05 -37.15L4.05 -49.1L4.05 -49.45" />
<linearGradient
id="LinearGradID_1005" gradientUnits="userSpaceOnUse" gradientTransform="matrix(0.000991821, 0.0270386, -0.0303497, 0.00114441, 9.05, -22.55)" spreadMethod ="pad" x1="-819.2" y1="0" x2="819.2" y2="0" >
<stop  offset="0.0352941" style="stop-color:#694720;stop-opacity:1" />
<stop  offset="0.972549" style="stop-color:#543818;stop-opacity:1" />
</linearGradient>
<path style="fill:url(#LinearGradID_1005) " d="M7.7 -2.7Q9 -9 4.05 -15.55L4.05 -20.7L4.05 -23.8L4.05 -37.15Q7.4 -42.4 7.85 -50.8L12.05 -50.8Q4.9 -20.5 12.3 -2.7L13.05 -0.95L10.4 -0.95L9.65 -4.25L9.1 -0.95L7.2 -0.95L7.7 -2.7M14.4 -26.25Q10.95 -30.05 14.4 -38.85L14.4 -26.25" />
<linearGradient
id="LinearGradID_1006" gradientUnits="userSpaceOnUse" gradientTransform="matrix(0, 0.0229187, -0.0217438, 0, 25.2, -34.15)" spreadMethod ="pad" x1="-819.2" y1="0" x2="819.2" y2="0" >
<stop  offset="0" style="stop-color:#7E5C36;stop-opacity:1" />
<stop  offset="1" style="stop-color:#5F421F;stop-opacity:1" />
</linearGradient>
<path style="fill:url(#LinearGradID_1006) " d="M24.9 -16.6Q22.5 -11.65 23.35 -2.7L23.45 -2.05L21.95 -3.2L20.35 -1.75L19.7 -2.3L19.8 -2.7Q23.6 -24.5 22.15 -49.2L24.8 -49.15L24.9 -16.6" />
<linearGradient
id="LinearGradID_1007" gradientUnits="userSpaceOnUse" gradientTransform="matrix(0, 0.0229187, -0.0217438, 0, 25.2, -34.15)" spreadMethod ="pad" x1="-819.2" y1="0" x2="819.2" y2="0" >
<stop  offset="0" style="stop-color:#7E5C36;stop-opacity:1" />
<stop  offset="0.968627" style="stop-color:#644827;stop-opacity:1" />
</linearGradient>
<path style="fill:url(#LinearGradID_1007) " d="M17.05 -49.25L19.5 -49.2Q15.05 -33.35 14.4 -13.6L14.4 -26.25L14.4 -38.85L14.4 -42.6Q16.05 -44.95 17.05 -49.25" />
<linearGradient
id="LinearGradID_1008" gradientUnits="userSpaceOnUse" gradientTransform="matrix(0.00354004, 0.0248871, -0.0291901, 0.00413513, 20.05, -29.25)" spreadMethod ="pad" x1="-819.2" y1="0" x2="819.2" y2="0" >
<stop  offset="0" style="stop-color:#77552D;stop-opacity:1" />
<stop  offset="0.968627" style="stop-color:#5B4021;stop-opacity:1" />
</linearGradient>
<path style="fill:url(#LinearGradID_1008) " d="M23.35 -2.7Q22.5 -11.65 24.9 -16.6L24.95 -2.7L24.95 -1.05L24.7 -1.05L23.45 -2.05L23.35 -2.7M14.4 -13.6Q15.05 -33.35 19.5 -49.2L22.15 -49.2Q23.6 -24.5 19.8 -2.7L19.7 -2.3L18.55 -3.3L17.65 -0.95L14.4 -0.95L14.4 -2.7L14.4 -8.55L14.4 -13.6M17.05 -49.25Q16.05 -44.95 14.4 -42.6L14.4 -49.25L17.05 -49.25" />
<linearGradient
id="LinearGradID_1009" gradientUnits="userSpaceOnUse" gradientTransform="matrix(0, 0.0229187, -0.0294495, 0, -0.9, -37.25)" spreadMethod ="pad" x1="-819.2" y1="0" x2="819.2" y2="0" >
<stop  offset="0" style="stop-color:#936A3B;stop-opacity:1" />
<stop  offset="1" style="stop-color:#72522E;stop-opacity:1" />
</linearGradient>
<path style="fill:url(#LinearGradID_1009) " d="M4.05 -8.6Q2.25 -6.7 2.75 -2.7L3.05 -0.95L2.85 -0.95L1.65 -3L0.9 -1.75L-0.1 -6.75L-0.1 -0.95L-0.75 -0.95L-0.9 -2.7Q-1.7 -14.3 4.05 -20.7L4.05 -15.55L4.05 -8.6M-0.45 -49.2L4.05 -49.1L4.05 -37.15L4.05 -23.8Q-1.8 -31.05 -0.45 -49.2M-5.5 -38.55L-5.5 -43.1Q-2.15 -36.35 -1.5 -29.8Q-1.5 -17.2 -5.5 -16.65L-5.5 -38.55" />
<linearGradient
id="LinearGradID_1010" gradientUnits="userSpaceOnUse" gradientTransform="matrix(0, 0.0310364, -0.0295105, 0, -0.65, -37.45)" spreadMethod ="pad" x1="-819.2" y1="0" x2="819.2" y2="0" >
<stop  offset="0.027451" style="stop-color:#8E6739;stop-opacity:1" />
<stop  offset="1" style="stop-color:#6B4C28;stop-opacity:1" />
</linearGradient>
<path style="fill:url(#LinearGradID_1010) " d="M2.75 -2.7Q2.25 -6.7 4.05 -8.6L4.05 -6.05L4.05 -2.7L4.05 -0.95L3.05 -0.95L2.75 -2.7M-5.5 -6.25L-5.5 -9.1L-5.5 -16.65Q-1.5 -17.2 -1.5 -29.8Q-2.15 -36.35 -5.5 -43.1L-5.5 -47.8L-5.5 -48.25L-5.5 -49.3L-0.45 -49.2Q-1.8 -31.05 4.05 -23.8L4.05 -20.7Q-1.7 -14.3 -0.9 -2.7L-0.75 -0.95L-3.8 -0.95L-5.5 -6.25" />
<linearGradient
id="LinearGradID_1011" gradientUnits="userSpaceOnUse" gradientTransform="matrix(0, 0.0271454, -0.028595, 0, -9.3, -29.1)" spreadMethod ="pad" x1="-819.2" y1="0" x2="819.2" y2="0" >
<stop  offset="0" style="stop-color:#724F26;stop-opacity:1" />
<stop  offset="1" style="stop-color:#5D3F1E;stop-opacity:1" />
</linearGradient>
<path style="fill:url(#LinearGradID_1011) " d="M-10 -2.7Q-10.6 -14.45 -14.4 -18.85L-14.4 -24.4Q-9.15 -29.85 -10 -47.8L-5.5 -47.8L-5.5 -43.1L-5.5 -38.55Q-8.7 -30.55 -9.1 -24.8Q-9.6 -16.6 -6 -5L-6.5 -0.95L-9.95 -0.95L-10 -2.7M-14.4 -39.4L-14.45 -47.8L-12.25 -47.8Q-12 -41.75 -14.4 -39.4" />
<linearGradient
id="LinearGradID_1012" gradientUnits="userSpaceOnUse" gradientTransform="matrix(0, 0.02211, -0.0142822, 0, 0.2, -32.35)" spreadMethod ="pad" x1="-819.2" y1="0" x2="819.2" y2="0" >
<stop  offset="0" style="stop-color:#79562D;stop-opacity:1" />
<stop  offset="1" style="stop-color:#664723;stop-opacity:1" />
</linearGradient>
<path style="fill:url(#LinearGradID_1012) " d="M-14.35 -9.1L-14.35 -14.05L-14.4 -18.85Q-10.6 -14.45 -10 -2.7L-9.95 -0.95L-13.25 -0.95L-14.35 -9.1M-14.4 -29.45L-14.4 -37.75L-14.4 -39.4Q-12 -41.75 -12.25 -47.8L-10 -47.8Q-9.15 -29.85 -14.4 -24.4L-14.4 -29.45M-6 -5Q-9.6 -16.6 -9.1 -24.8Q-8.7 -30.55 -5.5 -38.55L-5.5 -16.65L-5.5 -9.1L-6 -5" />
<linearGradient
id="LinearGradID_1013" gradientUnits="userSpaceOnUse" gradientTransform="matrix(0, 0.0279541, -0.0155334, 0, -22.85, -25.15)" spreadMethod ="pad" x1="-819.2" y1="0" x2="819.2" y2="0" >
<stop  offset="0.0352941" style="stop-color:#805E36;stop-opacity:1" />
<stop  offset="0.972549" style="stop-color:#70502B;stop-opacity:1" />
</linearGradient>
<path style="fill:url(#LinearGradID_1013) " d="M-14.35 -4.25L-14.35 -2.7L-14.35 -0.95L-19.95 -0.95Q-17.8 -6.3 -14.35 -4.25M-14.35 -14.05L-14.35 -9.1L-14.35 -7.55Q-17.8 -15.85 -21.65 -15.65L-21.65 -33Q-20.15 -22.1 -14.35 -14.05M-17.35 -49.3Q-18 -41.45 -14.4 -37.75L-14.4 -29.45Q-16.15 -38.05 -21.65 -44.9L-21.65 -49.3L-17.35 -49.3" />
<linearGradient
id="LinearGradID_1014" gradientUnits="userSpaceOnUse" gradientTransform="matrix(-0.00285339, 0.0250549, -0.018692, -0.00215149, -12.2, -34.5)" spreadMethod ="pad" x1="-819.2" y1="0" x2="819.2" y2="0" >
<stop  offset="0.0352941" style="stop-color:#8A6438;stop-opacity:1" />
<stop  offset="0.972549" style="stop-color:#745531;stop-opacity:1" />
</linearGradient>
<path style="fill:url(#LinearGradID_1014) " d="M-14.35 -7.55L-14.35 -4.25Q-17.8 -6.3 -19.95 -0.95L-21.65 -0.95L-21.65 -15.65Q-17.8 -15.85 -14.35 -7.55M-14.4 -29.45L-14.4 -24.4L-14.4 -18.85L-14.35 -14.05Q-20.15 -22.1 -21.65 -33L-21.65 -44.9Q-16.15 -38.05 -14.4 -29.45M-14.45 -49.3L-14.45 -47.8L-14.4 -39.4L-14.4 -37.75Q-18 -41.45 -17.35 -49.3L-14.45 -49.3" />
<path style="fill:#5D521E;fill-opacity:1" d="M-5.5 -3.4L-5.5 -2.7L-5.5 -0.95L-6.5 -0.95L-6 -5L-5.5 -3.4M-14.35 -2.7L-14.35 -4.25L-14.35 -7.55L-14.35 -9.1L-13.25 -0.95L-14.35 -0.95L-14.35 -2.7" />
<path style="fill:#64581C;fill-opacity:1" d="M20.35 -1.75L21.95 -3.2L23.45 -2.05L23.55 -1L19.45 -1L19.7 -2.3L20.35 -1.75M-5.5 -2.7L-5.5 -3.4L-5.5 -6.25L-3.8 -0.95L-5.5 -0.95L-5.5 -2.7M-5.5 -3.4L-6 -5L-5.5 -9.1L-5.5 -6.25L-5.5 -3.4" />
<path style="fill:#584B0E;fill-opacity:1" d="M23.45 -2.05L24.7 -1.05L23.55 -1L23.45 -2.05M19.7 -2.3L19.45 -1L17.65 -0.95L18.55 -3.3L19.7 -2.3M9.65 -4.25L10.4 -0.95L9.1 -0.95L9.65 -4.25M5.6 -0.95L4.05 -0.95L4.05 -2.7L4.05 -6.05L5.6 -0.95M-0.1 -6.75L0.9 -1.75L1.65 -3L2.85 -0.95L-0.1 -0.95L-0.1 -6.75" />
<path style="fill:#514509;fill-opacity:1" d="M14.4 -8.55L14.4 -2.7L14.4 -0.95L13.65 -0.95L14.4 -8.55" />
<path style="fill:none;stroke-width:0.7;stroke-linecap:round;stroke-linejoin:round;stroke-miterlimit:3;stroke:#000000;stroke-opacity:0.258824" d="M14.75 -49.75L14.75 -51.1L14.4 -50.8" />
<path style="fill:none;stroke-width:0.7;stroke-linecap:round;stroke-linejoin:round;stroke-miterlimit:3;stroke:#000000;stroke-opacity:0.258824" d="M14.4 -49.25L14.75 -49.75L25.55 -49.6L25.4 -0.95L24.95 -1.05L24.7 -1.05L23.55 -1L19.45 -1L17.65 -0.95L14.4 -0.95L13.65 -0.95L13.05 -0.95L10.4 -0.95L9.1 -0.95L7.2 -0.95L5.6 -0.95L4.05 -0.95L3.05 -0.95L2.85 -0.95L-0.1 -0.95L-0.75 -0.95L-3.8 -0.95L-5.5 -0.95L-6.5 -0.95L-9.95 -0.95L-13.25 -0.95L-14.35 -0.95L-19.95 -0.95L-21.65 -0.95L-21.65 -15.65L-21.65 -33L-21.65 -44.9L-21.65 -49.3L-21.15 -49.75L-17.5 -49.75L-13.85 -49.75L-13.85 -48.25L-5.5 -48.25L-5.5 -49.3L-5.1 -49.6L-0.5 -49.5L4.05 -49.45L4.05 -50.8L4.4 -51.05L14.75 -51.1" />
<path style="fill:none;stroke-width:0.7;stroke-linecap:round;stroke-linejoin:round;stroke-miterlimit:3;stroke:#000000;stroke-opacity:0.141176" d="M12.05 -50.8Q4.9 -20.5 12.3 -2.7L13.05 -0.95" />
<path style="fill:none;stroke-width:0.7;stroke-linecap:round;stroke-linejoin:round;stroke-miterlimit:3;stroke:#000000;stroke-opacity:0.141176" d="M7.85 -50.8Q7.4 -42.4 4.05 -37.15" />
<path style="fill:none;stroke-width:0.7;stroke-linecap:round;stroke-linejoin:round;stroke-miterlimit:3;stroke:#000000;stroke-opacity:0.258824" d="M4.05 -37.15L4.05 -23.8L4.05 -20.7L4.05 -15.55" />
<path style="fill:none;stroke-width:0.7;stroke-linecap:round;stroke-linejoin:round;stroke-miterlimit:3;stroke:#000000;stroke-opacity:0.141176" d="M4.05 -15.55Q9 -9 7.7 -2.7L7.2 -0.95" />
<path style="fill:none;stroke-width:0.7;stroke-linecap:round;stroke-linejoin:round;stroke-miterlimit:3;stroke:#000000;stroke-opacity:0.258824" d="M24.8 -49.15L25.55 -49.6" />
<path style="fill:none;stroke-width:0.7;stroke-linecap:round;stroke-linejoin:round;stroke-miterlimit:3;stroke:#000000;stroke-opacity:0.258824" d="M14.4 -42.6L14.4 -38.85L14.4 -26.25L14.4 -13.6" />
<path style="fill:none;stroke-width:0.7;stroke-linecap:round;stroke-linejoin:round;stroke-miterlimit:3;stroke:#000000;stroke-opacity:0.141176" d="M14.4 -13.6Q15.05 -33.35 19.5 -49.2" />
<path style="fill:none;stroke-width:0.7;stroke-linecap:round;stroke-linejoin:round;stroke-miterlimit:3;stroke:#000000;stroke-opacity:0.141176" d="M17.05 -49.25Q16.05 -44.95 14.4 -42.6" />
<path style="fill:none;stroke-width:0.7;stroke-linecap:round;stroke-linejoin:round;stroke-miterlimit:3;stroke:#000000;stroke-opacity:0.258824" d="M14.4 -42.6L14.4 -49.25" />
<path style="fill:none;stroke-width:0.7;stroke-linecap:round;stroke-linejoin:round;stroke-miterlimit:3;stroke:#000000;stroke-opacity:0.258824" d="M4.05 -37.15L4.05 -49.1" />
<path style="fill:none;stroke-width:0.7;stroke-linecap:round;stroke-linejoin:round;stroke-miterlimit:3;stroke:#000000;stroke-opacity:0.141176" d="M-0.45 -49.2Q-1.8 -31.05 4.05 -23.8" />
<path style="fill:none;stroke-width:0.7;stroke-linecap:round;stroke-linejoin:round;stroke-miterlimit:3;stroke:#000000;stroke-opacity:0.258824" d="M4.05 -49.45L4.05 -49.1" />
<path style="fill:none;stroke-width:0.7;stroke-linecap:round;stroke-linejoin:round;stroke-miterlimit:3;stroke:#000000;stroke-opacity:0.141176" d="M14.4 -26.25Q10.95 -30.05 14.4 -38.85" />
<path style="fill:none;stroke-width:0.7;stroke-linecap:round;stroke-linejoin:round;stroke-miterlimit:3;stroke:#000000;stroke-opacity:0.258824" d="M4.05 -0.95L4.05 -2.7L4.05 -6.05L4.05 -8.6" />
<path style="fill:none;stroke-width:0.7;stroke-linecap:round;stroke-linejoin:round;stroke-miterlimit:3;stroke:#000000;stroke-opacity:0.141176" d="M4.05 -8.6Q2.25 -6.7 2.75 -2.7L3.05 -0.95" />
<path style="fill:none;stroke-width:0.7;stroke-linecap:round;stroke-linejoin:round;stroke-miterlimit:3;stroke:#000000;stroke-opacity:0.258824" d="M14.4 -0.95L14.4 -2.7L14.4 -8.55" />
<path style="fill:none;stroke-width:0.7;stroke-linecap:round;stroke-linejoin:round;stroke-miterlimit:3;stroke:#000000;stroke-opacity:0.141176" d="M19.7 -2.3L19.45 -1" />
<path style="fill:none;stroke-width:0.7;stroke-linecap:round;stroke-linejoin:round;stroke-miterlimit:3;stroke:#000000;stroke-opacity:0.141176" d="M19.7 -2.3L19.8 -2.7Q23.6 -24.5 22.15 -49.2" />
<path style="fill:none;stroke-width:0.7;stroke-linecap:round;stroke-linejoin:round;stroke-miterlimit:3;stroke:#000000;stroke-opacity:0.258824" d="M14.4 -8.55L14.4 -13.6" />
<path style="fill:none;stroke-width:0.7;stroke-linecap:round;stroke-linejoin:round;stroke-miterlimit:3;stroke:#000000;stroke-opacity:0.258824" d="M4.05 -15.55L4.05 -8.6" />
<path style="fill:none;stroke-width:0.7;stroke-linecap:round;stroke-linejoin:round;stroke-miterlimit:3;stroke:#000000;stroke-opacity:0.141176" d="M23.45 -2.05L23.55 -1" />
<path style="fill:none;stroke-width:0.7;stroke-linecap:round;stroke-linejoin:round;stroke-miterlimit:3;stroke:#000000;stroke-opacity:0.141176" d="M24.9 -16.6Q22.5 -11.65 23.35 -2.7L23.45 -2.05" />
<path style="fill:none;stroke-width:0.7;stroke-linecap:round;stroke-linejoin:round;stroke-miterlimit:3;stroke:#000000;stroke-opacity:0.141176" d="M-10 -47.8Q-9.15 -29.85 -14.4 -24.4" />
<path style="fill:none;stroke-width:0.7;stroke-linecap:round;stroke-linejoin:round;stroke-miterlimit:3;stroke:#000000;stroke-opacity:0.258824" d="M-14.4 -24.4L-14.4 -18.85" />
<path style="fill:none;stroke-width:0.7;stroke-linecap:round;stroke-linejoin:round;stroke-miterlimit:3;stroke:#000000;stroke-opacity:0.141176" d="M-14.4 -18.85Q-10.6 -14.45 -10 -2.7L-9.95 -0.95" />
<path style="fill:none;stroke-width:0.7;stroke-linecap:round;stroke-linejoin:round;stroke-miterlimit:3;stroke:#000000;stroke-opacity:0.258824" d="M-5.5 -47.8L-5.5 -43.1" />
<path style="fill:none;stroke-width:0.7;stroke-linecap:round;stroke-linejoin:round;stroke-miterlimit:3;stroke:#000000;stroke-opacity:0.141176" d="M-5.5 -43.1Q-2.15 -36.35 -1.5 -29.8Q-1.5 -17.2 -5.5 -16.65" />
<path style="fill:none;stroke-width:0.7;stroke-linecap:round;stroke-linejoin:round;stroke-miterlimit:3;stroke:#000000;stroke-opacity:0.258824" d="M-5.5 -16.65L-5.5 -9.1L-5.5 -6.25" />
<path style="fill:none;stroke-width:0.7;stroke-linecap:round;stroke-linejoin:round;stroke-miterlimit:3;stroke:#000000;stroke-opacity:0.258824" d="M-5.5 -48.25L-5.5 -47.8" />
<path style="fill:none;stroke-width:0.7;stroke-linecap:round;stroke-linejoin:round;stroke-miterlimit:3;stroke:#000000;stroke-opacity:0.258824" d="M-5.5 -43.1L-5.5 -38.55L-5.5 -16.65" />
<path style="fill:none;stroke-width:0.7;stroke-linecap:round;stroke-linejoin:round;stroke-miterlimit:3;stroke:#000000;stroke-opacity:0.141176" d="M-14.4 -37.75Q-18 -41.45 -17.35 -49.3" />
<path style="fill:none;stroke-width:0.7;stroke-linecap:round;stroke-linejoin:round;stroke-miterlimit:3;stroke:#000000;stroke-opacity:0.258824" d="M-14.45 -47.8L-13.85 -48.25" />
<path style="fill:none;stroke-width:0.7;stroke-linecap:round;stroke-linejoin:round;stroke-miterlimit:3;stroke:#000000;stroke-opacity:0.258824" d="M-14.4 -39.4L-14.4 -37.75L-14.4 -29.45L-14.4 -24.4" />
<path style="fill:none;stroke-width:0.7;stroke-linecap:round;stroke-linejoin:round;stroke-miterlimit:3;stroke:#000000;stroke-opacity:0.258824" d="M-14.45 -47.8L-14.4 -39.4" />
<path style="fill:none;stroke-width:0.7;stroke-linecap:round;stroke-linejoin:round;stroke-miterlimit:3;stroke:#000000;stroke-opacity:0.141176" d="M-14.4 -39.4Q-12 -41.75 -12.25 -47.8" />
<path style="fill:none;stroke-width:0.7;stroke-linecap:round;stroke-linejoin:round;stroke-miterlimit:3;stroke:#000000;stroke-opacity:0.141176" d="M-5.5 -38.55Q-8.7 -30.55 -9.1 -24.8Q-9.6 -16.6 -6 -5" />
<path style="fill:none;stroke-width:0.7;stroke-linecap:round;stroke-linejoin:round;stroke-miterlimit:3;stroke:#000000;stroke-opacity:0.258824" d="M-14.4 -18.85L-14.35 -14.05L-14.35 -9.1" />
<path style="fill:none;stroke-width:0.7;stroke-linecap:round;stroke-linejoin:round;stroke-miterlimit:3;stroke:#000000;stroke-opacity:0.258824" d="M-14.35 -7.55L-14.35 -4.25L-14.35 -2.7L-14.35 -0.95" />
<path style="fill:none;stroke-width:0.7;stroke-linecap:round;stroke-linejoin:round;stroke-miterlimit:3;stroke:#000000;stroke-opacity:0.258824" d="M-14.35 -9.1L-14.35 -7.55" />
<path style="fill:none;stroke-width:0.7;stroke-linecap:round;stroke-linejoin:round;stroke-miterlimit:3;stroke:#000000;stroke-opacity:0.141176" d="M-14.35 -7.55Q-17.8 -15.85 -21.65 -15.65" />
<path style="fill:none;stroke-width:0.7;stroke-linecap:round;stroke-linejoin:round;stroke-miterlimit:3;stroke:#000000;stroke-opacity:0.141176" d="M-14.35 -4.25Q-17.8 -6.3 -19.95 -0.95" />
<path style="fill:none;stroke-width:0.7;stroke-linecap:round;stroke-linejoin:round;stroke-miterlimit:3;stroke:#000000;stroke-opacity:0.258824" d="M-5.5 -3.4L-5.5 -2.7L-5.5 -0.95" />
<path style="fill:none;stroke-width:0.7;stroke-linecap:round;stroke-linejoin:round;stroke-miterlimit:3;stroke:#000000;stroke-opacity:0.141176" d="M-6 -5L-5.5 -3.4" />
<path style="fill:none;stroke-width:0.7;stroke-linecap:round;stroke-linejoin:round;stroke-miterlimit:3;stroke:#000000;stroke-opacity:0.258824" d="M-5.5 -3.4L-5.5 -6.25" />
<path style="fill:none;stroke-width:0.7;stroke-linecap:round;stroke-linejoin:round;stroke-miterlimit:3;stroke:#000000;stroke-opacity:0.141176" d="M4.05 -20.7Q-1.7 -14.3 -0.9 -2.7L-0.75 -0.95" />
<path style="fill:none;stroke-width:0.7;stroke-linecap:round;stroke-linejoin:round;stroke-miterlimit:3;stroke:#000000;stroke-opacity:0.141176" d="M-21.65 -33Q-20.15 -22.1 -14.35 -14.05" />
<path style="fill:none;stroke-width:0.7;stroke-linecap:round;stroke-linejoin:round;stroke-miterlimit:3;stroke:#000000;stroke-opacity:0.141176" d="M-14.4 -29.45Q-16.15 -38.05 -21.65 -44.9" />
<path style="fill:none;stroke-width:0.7;stroke-linecap:round;stroke-linejoin:round;stroke-miterlimit:3;stroke:#000000;stroke-opacity:0.141176" d="M-17.5 -49.75L-17.35 -49.3" />
</g>
<g id="PathID_1802" transform="matrix(1, 0, 0, 1, 21.8, 51.25)">
<path style="fill:none;stroke-width:0.7;stroke-linecap:round;stroke-linejoin:round;stroke-miterlimit:3;stroke:#000000;stroke-opacity:0.121569" d="M22.1 -47.25L22.1 -38.75" />
<path style="fill:none;stroke-width:0.7;stroke-linecap:round;stroke-linejoin:round;stroke-miterlimit:3;stroke:#000000;stroke-opacity:0.121569" d="M16.45 -34.7L16.45 -27.15" />
<path style="fill:none;stroke-width:0.7;stroke-linecap:round;stroke-linejoin:round;stroke-miterlimit:3;stroke:#000000;stroke-opacity:0.121569" d="M17.5 -47.4L17.5 -44.95" />
<path style="fill:none;stroke-width:0.7;stroke-linecap:round;stroke-linejoin:round;stroke-miterlimit:3;stroke:#000000;stroke-opacity:0.121569" d="M19.45 -45.7L19.45 -40.25" />
<path style="fill:none;stroke-width:0.7;stroke-linecap:round;stroke-linejoin:round;stroke-miterlimit:3;stroke:#000000;stroke-opacity:0.121569" d="M10.95 -48.95L10.95 -43.25" />
<path style="fill:none;stroke-width:0.7;stroke-linecap:round;stroke-linejoin:round;stroke-miterlimit:3;stroke:#000000;stroke-opacity:0.121569" d="M6.15 -39.85L6.15 -29.8" />
<path style="fill:none;stroke-width:0.7;stroke-linecap:round;stroke-linejoin:round;stroke-miterlimit:3;stroke:#000000;stroke-opacity:0.121569" d="M11.3 -32.55L11.3 -30.3" />
<path style="fill:none;stroke-width:0.7;stroke-linecap:round;stroke-linejoin:round;stroke-miterlimit:3;stroke:#000000;stroke-opacity:0.121569" d="M0.75 -39.5L0.75 -30.6" />
<path style="fill:none;stroke-width:0.7;stroke-linecap:round;stroke-linejoin:round;stroke-miterlimit:3;stroke:#000000;stroke-opacity:0.121569" d="M9.15 -29.1L9.15 -27.4" />
<path style="fill:none;stroke-width:0.7;stroke-linecap:round;stroke-linejoin:round;stroke-miterlimit:3;stroke:#000000;stroke-opacity:0.121569" d="M17.75 -8.6L17.75 -3.5" />
<path style="fill:none;stroke-width:0.7;stroke-linecap:round;stroke-linejoin:round;stroke-miterlimit:3;stroke:#000000;stroke-opacity:0.121569" d="M12.05 -14.4L12.05 -10.9" />
<path style="fill:none;stroke-width:0.7;stroke-linecap:round;stroke-linejoin:round;stroke-miterlimit:3;stroke:#000000;stroke-opacity:0.121569" d="M7.7 -12.9L7.7 -9.45" />
<path style="fill:none;stroke-width:0.7;stroke-linecap:round;stroke-linejoin:round;stroke-miterlimit:3;stroke:#000000;stroke-opacity:0.121569" d="M17.95 -17.7L17.95 -10.9" />
<path style="fill:none;stroke-width:0.7;stroke-linecap:round;stroke-linejoin:round;stroke-miterlimit:3;stroke:#000000;stroke-opacity:0.121569" d="M11.2 -24.05L11.2 -22" />
<path style="fill:none;stroke-width:0.7;stroke-linecap:round;stroke-linejoin:round;stroke-miterlimit:3;stroke:#000000;stroke-opacity:0.121569" d="M7.45 -23.6L7.45 -16.75" />
<path style="fill:none;stroke-width:0.7;stroke-linecap:round;stroke-linejoin:round;stroke-miterlimit:3;stroke:#000000;stroke-opacity:0.121569" d="M2.55 -17.6L2.55 -15.45" />
<path style="fill:none;stroke-width:0.7;stroke-linecap:round;stroke-linejoin:round;stroke-miterlimit:3;stroke:#000000;stroke-opacity:0.121569" d="M23.4 -7.65L23.4 -3.8" />
<path style="fill:none;stroke-width:0.7;stroke-linecap:round;stroke-linejoin:round;stroke-miterlimit:3;stroke:#000000;stroke-opacity:0.121569" d="M20.25 -20.9L20.25 -17.45" />
<path style="fill:none;stroke-width:0.7;stroke-linecap:round;stroke-linejoin:round;stroke-miterlimit:3;stroke:#000000;stroke-opacity:0.121569" d="M22.65 -18.55L22.65 -14.15" />
<path style="fill:none;stroke-width:0.7;stroke-linecap:round;stroke-linejoin:round;stroke-miterlimit:3;stroke:#000000;stroke-opacity:0.121569" d="M21.6 -29.95L21.6 -24.05" />
<path style="fill:none;stroke-width:0.7;stroke-linecap:round;stroke-linejoin:round;stroke-miterlimit:3;stroke:#000000;stroke-opacity:0.121569" d="M-1.95 -46.75L-1.95 -41.4" />
<path style="fill:none;stroke-width:0.7;stroke-linecap:round;stroke-linejoin:round;stroke-miterlimit:3;stroke:#000000;stroke-opacity:0.121569" d="M-16.6 -44.8L-16.6 -38.4" />
<path style="fill:none;stroke-width:0.7;stroke-linecap:round;stroke-linejoin:round;stroke-miterlimit:3;stroke:#000000;stroke-opacity:0.121569" d="M-9.65 -39.5L-9.65 -29.1" />
<path style="fill:none;stroke-width:0.7;stroke-linecap:round;stroke-linejoin:round;stroke-miterlimit:3;stroke:#000000;stroke-opacity:0.121569" d="M-0.55 -30.1L-0.55 -27.9" />
<path style="fill:none;stroke-width:0.7;stroke-linecap:round;stroke-linejoin:round;stroke-miterlimit:3;stroke:#000000;stroke-opacity:0.121569" d="M-18.6 -10.4L-18.6 -6.45" />
<path style="fill:none;stroke-width:0.7;stroke-linecap:round;stroke-linejoin:round;stroke-miterlimit:3;stroke:#000000;stroke-opacity:0.121569" d="M-3.55 -14.85L-3.55 -10.05" />
<path style="fill:none;stroke-width:0.7;stroke-linecap:round;stroke-linejoin:round;stroke-miterlimit:3;stroke:#000000;stroke-opacity:0.121569" d="M-0.75 -12.45L-0.75 -7.65" />
<path style="fill:none;stroke-width:0.7;stroke-linecap:round;stroke-linejoin:round;stroke-miterlimit:3;stroke:#000000;stroke-opacity:0.121569" d="M-2.55 -4.75L-2.55 -2.6" />
<path style="fill:none;stroke-width:0.7;stroke-linecap:round;stroke-linejoin:round;stroke-miterlimit:3;stroke:#000000;stroke-opacity:0.121569" d="M-12.25 -22.6L-12.25 -20.1" />
<path style="fill:none;stroke-width:0.7;stroke-linecap:round;stroke-linejoin:round;stroke-miterlimit:3;stroke:#000000;stroke-opacity:0.121569" d="M-16.9 -14.85L-16.9 -13.2" />
<path style="fill:none;stroke-width:0.7;stroke-linecap:round;stroke-linejoin:round;stroke-miterlimit:3;stroke:#000000;stroke-opacity:0.121569" d="M-6.9 -29.1L-6.9 -23.25" />
<path style="fill:none;stroke-width:0.7;stroke-linecap:round;stroke-linejoin:round;stroke-miterlimit:3;stroke:#000000;stroke-opacity:0.121569" d="M-19.6 -27.4L-19.6 -20.9" />
</g>
</svg>
