<?xml version="1.0" encoding="utf-8"?>
<svg version="1.1" id="Layer_1"
xmlns="http://www.w3.org/2000/svg"
xmlns:xlink="http://www.w3.org/1999/xlink"
width="40px" height="35px"
xml:space="preserve">
<g id="PathID_634" transform="matrix(1, 0, 0, 1, 21.5, 32.2)">
<path style="fill:#CED7DB;fill-opacity:1" d="M-19.95 -7.5Q-19.95 -6.55 -19.55 -5.75Q-19.15 -4.8 -18.65 -5L-18.9 -4.55L-18.9 -3.95Q-18.9 -2.9 -17.95 -2.15Q-17.1 -1.45 -16.15 -1.45Q-15.55 -1.45 -14.8 -1.9Q-13.9 -2.4 -14.05 -3.15Q-13.1 -2.55 -12.6 -2.55Q-11.35 -2.55 -11.35 -3.65L-11.45 -4.1L-11.6 -4.75Q-9.95 -5.75 -9.95 -6.45L-10.15 -7.45Q-9 -6.8 -8.8 -5.4L-8.75 -4.8L-8.75 -4.55L-8.85 -3.7Q-9.15 -2.8 -10 -1.95Q-9.95 -1.15 -10.45 -0.45L-10.65 -0.3Q-11.35 0.3 -12 0.5L-12.85 0.45L-13.85 0Q-14.5 1.5 -15.05 1.5Q-16.5 1.5 -17.7 0.95L-19.15 0L-19.5 -0.3Q-19.7 -0.5 -19.3 -1Q-20.25 -1.7 -20.6 -2.55Q-20.9 -3.15 -20.75 -3.9Q-21.2 -4.35 -21.25 -4.65L-21.35 -4.8Q-21.35 -7 -19.8 -8L-19.95 -7.5M-18.25 -9.75Q-18.25 -9.2 -17.6 -8.75L-16.75 -8.25L-18.9 -8.8L-19.7 -8.7L-19.5 -9.2L-19.4 -9.25L-18.25 -10.2L-18.2 -10.2L-18.25 -9.75M-14.2 -6.75Q-13.6 -7.1 -13.6 -7.6L-13.4 -7.25L-12.95 -6.85L-12.7 -7L-12.7 -6.85Q-12.45 -6.25 -13.6 -6.1Q-13.85 -5.9 -12.7 -4.3Q-14.3 -6.35 -14.9 -6.5L-14.2 -6.75" />
<path style="fill:#FFFFFF;fill-opacity:1" d="M-18.2 -10.2Q-16.8 -11.1 -15.05 -11.1Q-14.35 -11.1 -13.7 -10.6L-12.9 -10.5Q-11.65 -10.25 -10.65 -9.2L-10.4 -8.8Q-10.25 -8.4 -10.4 -7.55L-10.15 -7.45L-9.95 -6.45Q-9.95 -5.75 -11.6 -4.75L-11.45 -4.1L-11.35 -3.65Q-11.35 -2.55 -12.6 -2.55Q-13.1 -2.55 -14.05 -3.15Q-13.9 -2.4 -14.8 -1.9Q-15.55 -1.45 -16.15 -1.45Q-17.1 -1.45 -17.95 -2.15Q-18.9 -2.9 -18.9 -3.95L-18.9 -4.55L-18.65 -5Q-19.15 -4.8 -19.55 -5.75Q-19.95 -6.55 -19.95 -7.5L-19.8 -8L-19.75 -8.55L-19.7 -8.7L-18.9 -8.8L-16.75 -8.25L-17.6 -8.75Q-18.25 -9.2 -18.25 -9.75L-18.2 -10.2M-14.9 -6.5Q-14.3 -6.35 -12.7 -4.3Q-13.85 -5.9 -13.6 -6.1Q-12.45 -6.25 -12.7 -6.85L-12.7 -7L-12.95 -6.85L-13.4 -7.25L-13.6 -7.6Q-13.6 -7.1 -14.2 -6.75L-14.9 -6.5" />
<path style="fill:none;stroke-width:0.7;stroke-linecap:round;stroke-linejoin:miter;stroke-miterlimit:5;stroke:#4F7691;stroke-opacity:0.4" d="M-21.25 -4.65L-21.35 -4.8Q-21.35 -7 -19.8 -8L-19.75 -8.55" />
<path style="fill:none;stroke-width:0.7;stroke-linecap:round;stroke-linejoin:miter;stroke-miterlimit:5;stroke:#4F7691;stroke-opacity:0.4" d="M-18.25 -10.2L-18.2 -10.2Q-16.8 -11.1 -15.05 -11.1Q-14.35 -11.1 -13.7 -10.6L-12.9 -10.5" />
<path style="fill:none;stroke-width:0.7;stroke-linecap:round;stroke-linejoin:miter;stroke-miterlimit:5;stroke:#4F7691;stroke-opacity:0.4" d="M-10.4 -8.8Q-10.25 -8.4 -10.4 -7.55L-10.15 -7.45Q-9 -6.8 -8.8 -5.4" />
<path style="fill:none;stroke-width:0.7;stroke-linecap:round;stroke-linejoin:miter;stroke-miterlimit:5;stroke:#4F7691;stroke-opacity:0.4" d="M-8.85 -3.7Q-9.15 -2.8 -10 -1.95" />
<path style="fill:none;stroke-width:0.7;stroke-linecap:round;stroke-linejoin:miter;stroke-miterlimit:5;stroke:#4F7691;stroke-opacity:0.4" d="M-10.45 -0.45L-10.65 -0.3Q-11.35 0.3 -12 0.5" />
<path style="fill:none;stroke-width:0.7;stroke-linecap:round;stroke-linejoin:miter;stroke-miterlimit:5;stroke:#4F7691;stroke-opacity:0.4" d="M-12.85 0.45L-13.85 0Q-14.5 1.5 -15.05 1.5Q-16.5 1.5 -17.7 0.95" />
<path style="fill:none;stroke-width:0.7;stroke-linecap:round;stroke-linejoin:miter;stroke-miterlimit:5;stroke:#4F7691;stroke-opacity:0.4" d="M-19.15 0L-19.5 -0.3Q-19.7 -0.5 -19.3 -1Q-20.25 -1.7 -20.6 -2.55" />
</g>
<g id="PathID_635" transform="matrix(1, 0, 0, 1, 21.5, 32.2)">
<path style="fill:#CED7DB;fill-opacity:1" d="M-0.9 -11L-0.75 -11L0.7 -10.8L0.75 -10.8L0.4 -10.5Q0 -10.1 0.15 -9.35L0.4 -8.4L-0.75 -10.25L-1.4 -10.8L-0.9 -11M3.95 -0.75L3.6 -0.3L3.4 -0.1L2.75 0.45L0.7 0.85Q0.15 1.45 -0.7 1.6L-0.95 1.55L-2.45 1.15L-3 0.55L-3.4 -0.5L-5.3 -0.3Q-6.3 -1.35 -6.75 -2.55L-7.15 -4.25L-7.2 -4.7Q-7.2 -5 -6.55 -5.05Q-6.7 -6.25 -6.35 -7.1L-5.55 -8.15L-5.35 -9.05L-5.3 -9.2Q-3.75 -10.75 -1.95 -10.35L-2.4 -10.1L-3.4 -8.6Q-3.75 -7.65 -3.25 -7.45L-3.75 -7.25L-4.15 -6.85Q-4.9 -6.1 -4.8 -4.9Q-4.7 -3.8 -4 -3.15Q-3.6 -2.7 -2.7 -2.55Q-1.75 -2.25 -1.3 -2.85Q-1.05 -1.75 -0.7 -1.4L0.95 -1.3L1.2 -1.7L1.55 -2.25L3.9 -2.3L4.45 -3.15Q4.85 -1.85 3.95 -0.75M2.1 -4.7L2.35 -4.65L2.25 -4.55Q2 -3.9 1.1 -4.65Q0.75 -4.65 0.45 -2.75Q0.8 -5.3 0.45 -5.85Q0.7 -5.65 1.1 -5.5L2.15 -5.6L2.05 -5.3Q1.9 -4.9 2.1 -4.7" />
<path style="fill:#FFFFFF;fill-opacity:1" d="M3.6 -9.2Q4.1 -8.7 4.2 -7.9L4.65 -7.25Q5.4 -6.2 5.35 -4.75L5.25 -4.25L4.4 -3.4L4.45 -3.15L3.9 -2.3L1.55 -2.25L1.2 -1.7L0.95 -1.3L-0.7 -1.4Q-1.05 -1.75 -1.3 -2.85Q-1.75 -2.25 -2.7 -2.55Q-3.6 -2.7 -4 -3.15Q-4.7 -3.8 -4.8 -4.9Q-4.9 -6.1 -4.15 -6.85L-3.75 -7.25L-3.25 -7.45Q-3.75 -7.65 -3.4 -8.6L-2.4 -10.1L-1.95 -10.35L-1.5 -10.75L-1.4 -10.8L-0.75 -10.25L0.4 -8.4L0.15 -9.35Q0 -10.1 0.4 -10.5L0.75 -10.8Q2.35 -10.45 3.6 -9.2M2.05 -5.3L2.15 -5.6L1.1 -5.5Q0.7 -5.65 0.45 -5.85Q0.8 -5.3 0.45 -2.75Q0.75 -4.65 1.1 -4.65Q2 -3.9 2.25 -4.55L2.35 -4.65L2.1 -4.7Q1.9 -4.9 2.05 -5.3" />
<path style="fill:none;stroke-width:0.7;stroke-linecap:round;stroke-linejoin:miter;stroke-miterlimit:5;stroke:#4F7691;stroke-opacity:0.4" d="M0.75 -10.8L0.7 -10.8" />
<path style="fill:none;stroke-width:0.7;stroke-linecap:round;stroke-linejoin:miter;stroke-miterlimit:5;stroke:#4F7691;stroke-opacity:0.4" d="M-1.5 -10.75L-1.95 -10.35" />
<path style="fill:none;stroke-width:0.7;stroke-linecap:round;stroke-linejoin:miter;stroke-miterlimit:5;stroke:#4F7691;stroke-opacity:0.4" d="M4.45 -3.15L4.4 -3.4L5.25 -4.25" />
<path style="fill:none;stroke-width:0.7;stroke-linecap:round;stroke-linejoin:miter;stroke-miterlimit:5;stroke:#4F7691;stroke-opacity:0.4" d="M4.65 -7.25L4.2 -7.9Q4.1 -8.7 3.6 -9.2Q2.35 -10.45 0.75 -10.8" />
<path style="fill:none;stroke-width:0.7;stroke-linecap:round;stroke-linejoin:miter;stroke-miterlimit:5;stroke:#4F7691;stroke-opacity:0.4" d="M2.75 0.45L0.7 0.85" />
<path style="fill:none;stroke-width:0.7;stroke-linecap:round;stroke-linejoin:miter;stroke-miterlimit:5;stroke:#4F7691;stroke-opacity:0.4" d="M-0.7 1.6L-0.95 1.55L-2.45 1.15" />
<path style="fill:none;stroke-width:0.7;stroke-linecap:round;stroke-linejoin:miter;stroke-miterlimit:5;stroke:#4F7691;stroke-opacity:0.4" d="M-3 0.55L-3.4 -0.5L-5.3 -0.3Q-6.3 -1.35 -6.75 -2.55" />
<path style="fill:none;stroke-width:0.7;stroke-linecap:round;stroke-linejoin:miter;stroke-miterlimit:5;stroke:#4F7691;stroke-opacity:0.4" d="M-7.15 -4.25L-7.2 -4.7Q-7.2 -5 -6.55 -5.05Q-6.7 -6.25 -6.35 -7.1" />
<path style="fill:none;stroke-width:0.7;stroke-linecap:round;stroke-linejoin:miter;stroke-miterlimit:5;stroke:#4F7691;stroke-opacity:0.4" d="M-5.35 -9.05L-5.3 -9.2Q-3.75 -10.75 -1.95 -10.35" />
<path style="fill:none;stroke-width:0.7;stroke-linecap:round;stroke-linejoin:miter;stroke-miterlimit:5;stroke:#4F7691;stroke-opacity:0.4" d="M4.45 -3.15Q4.85 -1.85 3.95 -0.75" />
</g>
<g id="PathID_636" transform="matrix(1, 0, 0, 1, 21.5, 32.2)">
<path style="fill:#CED7DB;fill-opacity:1" d="M5.6 -5.8L5.6 -5.9L6.15 -7.25L6.2 -7.3L6.35 -6.9Q6.65 -6.4 7.4 -6.35L8.4 -6.35L6.3 -5.75L5.65 -5.25L5.6 -5.8M16.75 -7.85L17.1 -7.35L17.2 -7.15L17.55 -6.35Q17.75 -5.4 17.4 -4.3Q17.85 -3.6 17.75 -2.75L17.7 -2.5Q17.4 -1.65 16.9 -1.15L16.15 -0.75L15.05 -0.65Q15.25 0.95 14.8 1.25Q13.5 1.95 12.2 2.1L10.5 2L10.05 1.9Q9.75 1.85 9.85 1.2Q8.7 1.1 7.9 0.5Q7.35 0.15 7.15 -0.55Q6.5 -0.75 6.3 -0.95L6.15 -1.05Q5.05 -2.95 5.9 -4.6L6.05 -4.1Q6.5 -3.25 7.25 -2.75Q8.1 -2.15 8.4 -2.55L8.4 -2.1L8.7 -1.55Q9.25 -0.65 10.4 -0.45L12.35 -0.75L13.3 -1.85Q13.85 -2.7 13.3 -3.25L14.85 -3.5Q15.95 -4.1 15.4 -5.05L15.1 -5.4L14.6 -5.9Q15.55 -7.55 15.2 -8.15L14.5 -8.95Q15.85 -9 16.75 -7.85M12.6 -7.15Q13.15 -6.75 12.25 -6.05Q12.1 -5.75 13.9 -4.95Q11.5 -5.95 10.9 -5.75L11.35 -6.35Q11.75 -6.95 11.5 -7.3L11.8 -7.15Q12.2 -6.9 12.4 -7L12.55 -7.3L12.6 -7.15" />
<path style="fill:#FFFFFF;fill-opacity:1" d="M8.5 -9.65L9.9 -9.9L10.65 -10.25L13.25 -10.2L13.65 -10L14.25 -8.95L14.5 -8.95L15.2 -8.15Q15.55 -7.55 14.6 -5.9L15.1 -5.4L15.4 -5.05Q15.95 -4.1 14.85 -3.5L13.3 -3.25Q13.85 -2.7 13.3 -1.85L12.35 -0.75L10.4 -0.45Q9.25 -0.65 8.7 -1.55L8.4 -2.1L8.4 -2.55Q8.1 -2.15 7.25 -2.75Q6.5 -3.25 6.05 -4.1L5.9 -4.6L5.65 -5.1L5.65 -5.25L6.3 -5.75L8.4 -6.35L7.4 -6.35Q6.65 -6.4 6.35 -6.9L6.2 -7.3Q6.95 -8.8 8.5 -9.65M12.55 -7.3L12.4 -7Q12.2 -6.9 11.8 -7.15L11.5 -7.3Q11.75 -6.95 11.35 -6.35L10.9 -5.75Q11.5 -5.95 13.9 -4.95Q12.1 -5.75 12.25 -6.05Q13.15 -6.75 12.6 -7.15L12.55 -7.3" />
<path style="fill:none;stroke-width:0.7;stroke-linecap:round;stroke-linejoin:miter;stroke-miterlimit:5;stroke:#4F7691;stroke-opacity:0.4" d="M6.2 -7.3L6.15 -7.25" />
<path style="fill:none;stroke-width:0.7;stroke-linecap:round;stroke-linejoin:miter;stroke-miterlimit:5;stroke:#4F7691;stroke-opacity:0.4" d="M5.65 -5.1L5.9 -4.6" />
<path style="fill:none;stroke-width:0.7;stroke-linecap:round;stroke-linejoin:miter;stroke-miterlimit:5;stroke:#4F7691;stroke-opacity:0.4" d="M14.5 -8.95L14.25 -8.95L13.65 -10" />
<path style="fill:none;stroke-width:0.7;stroke-linecap:round;stroke-linejoin:miter;stroke-miterlimit:5;stroke:#4F7691;stroke-opacity:0.4" d="M10.65 -10.25L9.9 -9.9L8.5 -9.65Q6.95 -8.8 6.2 -7.3" />
<path style="fill:none;stroke-width:0.7;stroke-linecap:round;stroke-linejoin:miter;stroke-miterlimit:5;stroke:#4F7691;stroke-opacity:0.4" d="M6.3 -0.95L6.15 -1.05Q5.05 -2.95 5.9 -4.6" />
<path style="fill:none;stroke-width:0.7;stroke-linecap:round;stroke-linejoin:miter;stroke-miterlimit:5;stroke:#4F7691;stroke-opacity:0.4" d="M17.55 -6.35Q17.75 -5.4 17.4 -4.3" />
<path style="fill:none;stroke-width:0.7;stroke-linecap:round;stroke-linejoin:miter;stroke-miterlimit:5;stroke:#4F7691;stroke-opacity:0.4" d="M17.75 -2.75L17.7 -2.5Q17.4 -1.65 16.9 -1.15" />
<path style="fill:none;stroke-width:0.7;stroke-linecap:round;stroke-linejoin:miter;stroke-miterlimit:5;stroke:#4F7691;stroke-opacity:0.4" d="M16.15 -0.75L15.05 -0.65Q15.25 0.95 14.8 1.25Q13.5 1.95 12.2 2.1" />
<path style="fill:none;stroke-width:0.7;stroke-linecap:round;stroke-linejoin:miter;stroke-miterlimit:5;stroke:#4F7691;stroke-opacity:0.4" d="M10.5 2L10.05 1.9Q9.75 1.85 9.85 1.2Q8.7 1.1 7.9 0.5" />
<path style="fill:none;stroke-width:0.7;stroke-linecap:round;stroke-linejoin:miter;stroke-miterlimit:5;stroke:#4F7691;stroke-opacity:0.4" d="M14.5 -8.95Q15.85 -9 16.75 -7.85" />
</g>
<g id="PathID_637" transform="matrix(1, 0, 0, 1, 21.5, 32.2)">
<path style="fill:#FFFFFF;fill-opacity:1" d="M-12.8 -18.3Q-12.05 -19.8 -10.5 -20.65L-9.1 -20.9L-8.35 -21.25L-5.75 -21.2L-5.35 -21L-4.75 -19.95L-4.5 -19.95L-3.8 -19.15Q-3.45 -18.55 -4.4 -16.9L-3.9 -16.4L-3.6 -16.05Q-3.05 -15.1 -4.15 -14.5L-5.7 -14.25Q-5.15 -13.7 -5.7 -12.85Q-6.15 -12.05 -6.65 -11.75L-8.6 -11.45Q-9.75 -11.65 -10.3 -12.55L-10.6 -13.1L-10.6 -13.55Q-10.9 -13.15 -11.75 -13.75Q-12.5 -14.25 -12.95 -15.1L-13.1 -15.6L-13.35 -16.1L-13.35 -16.25L-12.7 -16.75L-10.6 -17.35L-11.6 -17.35Q-12.35 -17.4 -12.65 -17.9L-12.8 -18.3M-6.45 -18.3Q-6.45 -18.1 -6.6 -18Q-6.8 -17.9 -7.2 -18.15L-7.5 -18.3Q-7.25 -17.95 -7.65 -17.35L-8.1 -16.75Q-7.5 -16.95 -5.1 -15.95Q-6.9 -16.75 -6.75 -17.05Q-5.85 -17.75 -6.4 -18.15L-6.45 -18.3" />
<path style="fill:#CED7DB;fill-opacity:1" d="M-12.95 -15.1Q-12.5 -14.25 -11.75 -13.75Q-10.9 -13.15 -10.6 -13.55L-10.6 -13.1L-10.3 -12.55Q-9.75 -11.65 -8.6 -11.45L-6.65 -11.75Q-6.15 -12.05 -5.7 -12.85Q-5.15 -13.7 -5.7 -14.25L-4.15 -14.5Q-3.05 -15.1 -3.6 -16.05L-3.9 -16.4L-4.4 -16.9Q-3.45 -18.55 -3.8 -19.15L-4.5 -19.95Q-3.15 -20 -2.25 -18.85L-1.9 -18.35L-1.8 -18.15L-1.45 -17.35Q-1.25 -16.4 -1.6 -15.3Q-1.15 -14.6 -1.25 -13.75L-1.3 -13.5Q-1.6 -12.65 -2.1 -12.15L-2.85 -11.75L-3.95 -11.65Q-3.75 -10.05 -4.2 -9.75Q-5.5 -9.05 -6.8 -8.9L-8.5 -9L-8.95 -9.1Q-9.25 -9.15 -9.15 -9.8Q-10.3 -9.9 -11.1 -10.5Q-11.65 -10.85 -11.85 -11.55L-12.7 -11.95L-12.85 -12.05Q-13.95 -13.95 -13.1 -15.6L-12.95 -15.1M-12.65 -17.9Q-12.35 -17.4 -11.6 -17.35L-10.6 -17.35L-12.7 -16.75L-13.35 -16.25L-13.4 -16.8L-13.4 -16.9L-12.85 -18.25L-12.8 -18.3L-12.65 -17.9M-6.4 -18.15Q-5.85 -17.75 -6.75 -17.05Q-6.9 -16.75 -5.1 -15.95Q-7.5 -16.95 -8.1 -16.75L-7.65 -17.35Q-7.25 -17.95 -7.5 -18.3L-7.2 -18.15Q-6.8 -17.9 -6.6 -18Q-6.45 -18.1 -6.45 -18.3L-6.4 -18.15" />
<path style="fill:none;stroke-width:0.7;stroke-linecap:round;stroke-linejoin:miter;stroke-miterlimit:5;stroke:#4F7691;stroke-opacity:0.4" d="M-5.35 -21L-4.75 -19.95L-4.5 -19.95Q-3.15 -20 -2.25 -18.85" />
<path style="fill:none;stroke-width:0.7;stroke-linecap:round;stroke-linejoin:miter;stroke-miterlimit:5;stroke:#4F7691;stroke-opacity:0.4" d="M-1.45 -17.35Q-1.25 -16.4 -1.6 -15.3" />
<path style="fill:none;stroke-width:0.7;stroke-linecap:round;stroke-linejoin:miter;stroke-miterlimit:5;stroke:#4F7691;stroke-opacity:0.4" d="M-1.25 -13.75L-1.3 -13.5Q-1.6 -12.65 -2.1 -12.15" />
<path style="fill:none;stroke-width:0.7;stroke-linecap:round;stroke-linejoin:miter;stroke-miterlimit:5;stroke:#4F7691;stroke-opacity:0.4" d="M-2.85 -11.75L-3.95 -11.65Q-3.75 -10.05 -4.2 -9.75Q-5.5 -9.05 -6.8 -8.9" />
<path style="fill:none;stroke-width:0.7;stroke-linecap:round;stroke-linejoin:miter;stroke-miterlimit:5;stroke:#4F7691;stroke-opacity:0.4" d="M-8.5 -9L-8.95 -9.1Q-9.25 -9.15 -9.15 -9.8Q-10.3 -9.9 -11.1 -10.5" />
<path style="fill:none;stroke-width:0.7;stroke-linecap:round;stroke-linejoin:miter;stroke-miterlimit:5;stroke:#4F7691;stroke-opacity:0.4" d="M-12.7 -11.95L-12.85 -12.05Q-13.95 -13.95 -13.1 -15.6L-13.35 -16.1" />
<path style="fill:none;stroke-width:0.7;stroke-linecap:round;stroke-linejoin:miter;stroke-miterlimit:5;stroke:#4F7691;stroke-opacity:0.4" d="M-12.85 -18.25L-12.8 -18.3Q-12.05 -19.8 -10.5 -20.65L-9.1 -20.9L-8.35 -21.25" />
</g>
<g id="PathID_638" transform="matrix(1, 0, 0, 1, 21.5, 32.2)">
<path style="fill:#FFFFFF;fill-opacity:1" d="M2.7 -20.05L2.8 -20.15L3.6 -20.05L5.5 -18.95L4.8 -19.65Q4.3 -20.25 4.45 -20.8L4.65 -21.2Q6.2 -21.75 7.9 -21.25L9.1 -20.4L9.85 -20.1Q10.9 -19.55 11.7 -18.3L11.8 -17.85Q11.85 -17.4 11.5 -16.65L11.65 -16.5L11.6 -15.45Q11.4 -14.75 9.6 -14.25Q9.45 -13.8 9.6 -13.55L9.55 -13.1Q9.3 -12 8.05 -12.4Q7.55 -12.5 6.75 -13.3Q6.8 -12.55 5.8 -12.35L4.35 -12.2Q3.45 -12.5 2.75 -13.4Q2.1 -14.35 2.3 -15.35L2.5 -15.95L2.85 -16.25Q2.35 -16.2 2.15 -17.2Q1.95 -18.1 2.3 -19Q2.25 -19.1 2.55 -19.45L2.7 -20.05M7.6 -16.85L6.85 -16.8Q7.4 -16.5 8.35 -14.25Q7.7 -15.95 8 -16.05Q9.15 -15.9 9.05 -16.6L8.85 -16.6Q8.6 -16.65 8.5 -17.15L8.4 -17.45Q8.3 -17.05 7.6 -16.85" />
<path style="fill:#CED7DB;fill-opacity:1" d="M12.5 -14.1L12.35 -13.5L12.3 -13.35L11.95 -12.5Q11.45 -11.7 10.4 -11.15Q10.25 -10.3 9.55 -9.8L9.4 -9.7L7.85 -9.3L7.05 -9.55L6.2 -10.25Q5.2 -8.95 4.7 -9.1Q3.25 -9.5 2.25 -10.3L1.1 -11.55L0.85 -12Q0.65 -12.2 1.2 -12.6Q0.45 -13.5 0.3 -14.45Q0.15 -15.1 0.5 -15.75Q0.2 -16.35 0.2 -16.65L0.15 -16.8Q0.75 -18.9 2.55 -19.45Q2.25 -19.1 2.3 -19Q1.95 -18.1 2.15 -17.2Q2.35 -16.2 2.85 -16.25L2.5 -15.95L2.3 -15.35Q2.1 -14.35 2.75 -13.4Q3.45 -12.5 4.35 -12.2L5.8 -12.35Q6.8 -12.55 6.75 -13.3Q7.55 -12.5 8.05 -12.4Q9.3 -12 9.55 -13.1L9.6 -13.55Q9.45 -13.8 9.6 -14.25Q11.4 -14.75 11.6 -15.45L11.65 -16.5Q12.65 -15.6 12.5 -14.1M3.15 -20.55L3.2 -20.65L4.55 -21.2L4.65 -21.2L4.45 -20.8Q4.3 -20.25 4.8 -19.65L5.5 -18.95L3.6 -20.05L2.8 -20.15L3.15 -20.55M8.4 -17.45L8.5 -17.15Q8.6 -16.65 8.85 -16.6L9.05 -16.6Q9.15 -15.9 8 -16.05Q7.7 -15.95 8.35 -14.25Q7.4 -16.5 6.85 -16.8L7.6 -16.85Q8.3 -17.05 8.4 -17.45" />
<path style="fill:none;stroke-width:0.7;stroke-linecap:round;stroke-linejoin:miter;stroke-miterlimit:5;stroke:#4F7691;stroke-opacity:0.4" d="M2.55 -19.45Q0.75 -18.9 0.15 -16.8L0.2 -16.65" />
<path style="fill:none;stroke-width:0.7;stroke-linecap:round;stroke-linejoin:miter;stroke-miterlimit:5;stroke:#4F7691;stroke-opacity:0.4" d="M0.3 -14.45Q0.45 -13.5 1.2 -12.6Q0.65 -12.2 0.85 -12L1.1 -11.55" />
<path style="fill:none;stroke-width:0.7;stroke-linecap:round;stroke-linejoin:miter;stroke-miterlimit:5;stroke:#4F7691;stroke-opacity:0.4" d="M2.25 -10.3Q3.25 -9.5 4.7 -9.1Q5.2 -8.95 6.2 -10.25L7.05 -9.55" />
<path style="fill:none;stroke-width:0.7;stroke-linecap:round;stroke-linejoin:miter;stroke-miterlimit:5;stroke:#4F7691;stroke-opacity:0.4" d="M7.85 -9.3L9.4 -9.7L9.55 -9.8" />
<path style="fill:none;stroke-width:0.7;stroke-linecap:round;stroke-linejoin:miter;stroke-miterlimit:5;stroke:#4F7691;stroke-opacity:0.4" d="M10.4 -11.15Q11.45 -11.7 11.95 -12.5" />
<path style="fill:none;stroke-width:0.7;stroke-linecap:round;stroke-linejoin:miter;stroke-miterlimit:5;stroke:#4F7691;stroke-opacity:0.4" d="M12.5 -14.1Q12.65 -15.6 11.65 -16.5L11.5 -16.65Q11.85 -17.4 11.8 -17.85" />
<path style="fill:none;stroke-width:0.7;stroke-linecap:round;stroke-linejoin:miter;stroke-miterlimit:5;stroke:#4F7691;stroke-opacity:0.4" d="M9.85 -20.1L9.1 -20.4L7.9 -21.25Q6.2 -21.75 4.65 -21.2" />
<path style="fill:none;stroke-width:0.7;stroke-linecap:round;stroke-linejoin:miter;stroke-miterlimit:5;stroke:#4F7691;stroke-opacity:0.4" d="M2.7 -20.05L2.55 -19.45" />
<path style="fill:none;stroke-width:0.7;stroke-linecap:round;stroke-linejoin:miter;stroke-miterlimit:5;stroke:#4F7691;stroke-opacity:0.4" d="M4.65 -21.2L4.55 -21.2" />
</g>
<g id="PathID_639" transform="matrix(1, 0, 0, 1, 21.5, 32.2)">
<path style="fill:#FFFFFF;fill-opacity:1" d="M-4.4 -30L-4.25 -30.6L-4.15 -30.7L-3.35 -30.6L-1.45 -29.5L-2.15 -30.2Q-2.65 -30.8 -2.5 -31.35L-2.3 -31.75Q-0.75 -32.3 0.95 -31.8L2.15 -30.95L2.9 -30.65Q3.95 -30.1 4.75 -28.85L4.85 -28.4Q4.9 -27.95 4.55 -27.2L4.7 -27.05L4.65 -26Q4.45 -25.3 2.65 -24.8Q2.5 -24.35 2.65 -24.1L2.6 -23.65Q2.35 -22.55 1.1 -22.95Q0.6 -23.05 -0.2 -23.85Q-0.15 -23.1 -1.15 -22.9L-2.6 -22.75Q-3.5 -23.05 -4.2 -23.95Q-4.85 -24.9 -4.65 -25.9L-4.45 -26.5L-4.1 -26.8Q-4.6 -26.75 -4.8 -27.75Q-5 -28.65 -4.65 -29.55L-4.4 -30M1.9 -27.15Q1.65 -27.2 1.55 -27.7L1.45 -28L0.65 -27.4L-0.1 -27.35Q0.45 -27.05 1.4 -24.8Q0.75 -26.5 1.05 -26.6Q2.2 -26.45 2.1 -27.15L1.9 -27.15" />
<path style="fill:#CED7DB;fill-opacity:1" d="M-4.65 -29.55Q-5 -28.65 -4.8 -27.75Q-4.6 -26.75 -4.1 -26.8L-4.45 -26.5L-4.65 -25.9Q-4.85 -24.9 -4.2 -23.95Q-3.5 -23.05 -2.6 -22.75L-1.15 -22.9Q-0.15 -23.1 -0.2 -23.85Q0.6 -23.05 1.1 -22.95Q2.35 -22.55 2.6 -23.65L2.65 -24.1Q2.5 -24.35 2.65 -24.8Q4.45 -25.3 4.65 -26L4.7 -27.05Q5.7 -26.15 5.55 -24.65L5.4 -24.05L5.35 -23.9L5 -23.05Q4.5 -22.25 3.45 -21.7Q3.3 -20.85 2.6 -20.35L2.45 -20.25L0.9 -19.85L0.1 -20.1L-0.75 -20.8Q-1.75 -19.5 -2.25 -19.65Q-3.7 -20.05 -4.7 -20.85L-5.85 -22.1L-6.1 -22.55Q-6.3 -22.75 -5.75 -23.15Q-6.5 -24.05 -6.65 -25Q-6.8 -25.65 -6.45 -26.3L-6.75 -27.2L-6.8 -27.35Q-6.2 -29.45 -4.4 -30L-4.65 -29.55M-4.15 -30.7L-3.8 -31.1L-3.75 -31.2L-2.4 -31.75L-2.3 -31.75L-2.5 -31.35Q-2.65 -30.8 -2.15 -30.2L-1.45 -29.5L-3.35 -30.6L-4.15 -30.7M2.1 -27.15Q2.2 -26.45 1.05 -26.6Q0.75 -26.5 1.4 -24.8Q0.45 -27.05 -0.1 -27.35L0.65 -27.4L1.45 -28L1.55 -27.7Q1.65 -27.2 1.9 -27.15L2.1 -27.15" />
<path style="fill:none;stroke-width:0.7;stroke-linecap:round;stroke-linejoin:miter;stroke-miterlimit:5;stroke:#4F7691;stroke-opacity:0.4" d="M-2.3 -31.75Q-0.75 -32.3 0.95 -31.8L2.15 -30.95L2.9 -30.65" />
<path style="fill:none;stroke-width:0.7;stroke-linecap:round;stroke-linejoin:miter;stroke-miterlimit:5;stroke:#4F7691;stroke-opacity:0.4" d="M4.85 -28.4Q4.9 -27.95 4.55 -27.2L4.7 -27.05Q5.7 -26.15 5.55 -24.65" />
<path style="fill:none;stroke-width:0.7;stroke-linecap:round;stroke-linejoin:miter;stroke-miterlimit:5;stroke:#4F7691;stroke-opacity:0.4" d="M5 -23.05Q4.5 -22.25 3.45 -21.7" />
<path style="fill:none;stroke-width:0.7;stroke-linecap:round;stroke-linejoin:miter;stroke-miterlimit:5;stroke:#4F7691;stroke-opacity:0.4" d="M2.6 -20.35L2.45 -20.25L0.9 -19.85" />
<path style="fill:none;stroke-width:0.7;stroke-linecap:round;stroke-linejoin:miter;stroke-miterlimit:5;stroke:#4F7691;stroke-opacity:0.4" d="M0.1 -20.1L-0.75 -20.8Q-1.75 -19.5 -2.25 -19.65Q-3.7 -20.05 -4.7 -20.85" />
<path style="fill:none;stroke-width:0.7;stroke-linecap:round;stroke-linejoin:miter;stroke-miterlimit:5;stroke:#4F7691;stroke-opacity:0.4" d="M-5.85 -22.1L-6.1 -22.55Q-6.3 -22.75 -5.75 -23.15Q-6.5 -24.05 -6.65 -25" />
<path style="fill:none;stroke-width:0.7;stroke-linecap:round;stroke-linejoin:miter;stroke-miterlimit:5;stroke:#4F7691;stroke-opacity:0.4" d="M-6.75 -27.2L-6.8 -27.35Q-6.2 -29.45 -4.4 -30L-4.25 -30.6" />
<path style="fill:none;stroke-width:0.7;stroke-linecap:round;stroke-linejoin:miter;stroke-miterlimit:5;stroke:#4F7691;stroke-opacity:0.4" d="M-2.4 -31.75L-2.3 -31.75" />
</g>
</svg>
