<?xml version="1.0" encoding="utf-8"?>
<svg version="1.1" id="Layer_1"
xmlns="http://www.w3.org/2000/svg"
xmlns:xlink="http://www.w3.org/1999/xlink"
width="77px" height="51px"
xml:space="preserve">
<g id="PathID_2212" transform="matrix(1, 0, 0, 1, 37.9, 47.75)">
<path style="fill:#090909;fill-opacity:0.4" d="M36.65 -1.9Q36.65 0.15 25.7 1.5L-0.7 2.6L-27.05 1Q-37.9 -0.55 -37.9 -2.6Q-37.85 -4.55 -27 -5.8L-0.65 -7Q14.75 -6.85 25.75 -5.3Q36.65 -3.9 36.65 -1.9" />
</g>
<g id="PathID_2213" transform="matrix(1, 0, 0, 1, 37.9, 47.75)">
<path style="fill:#FFDC35;fill-opacity:1" d="M10.35 -3.2L8.95 -3.7L8.05 -4.15L7.05 -4.95Q6.3 -5.65 6.3 -6.45Q6.45 -7.55 8.9 -8.1L11.9 -8.25Q14.55 -4.4 10.35 -3.2M16.55 -7.35L19.1 -6.3Q20.85 -5.05 20.65 -3.8L20.75 -3.65Q20.6 -3.15 19.9 -2.6L18.5 -2.45L16.75 -2.1Q13.85 -5.6 16.55 -7.35" />
<linearGradient
id="LinearGradID_1163" gradientUnits="userSpaceOnUse" gradientTransform="matrix(0.00598145, 0.00234985, -0.001297, 0.00344849, 10.55, -1.95)" spreadMethod ="pad" x1="-819.2" y1="0" x2="819.2" y2="0" >
<stop  offset="0" style="stop-color:#AE7315;stop-opacity:1" />
<stop  offset="0.172549" style="stop-color:#D2983B;stop-opacity:1" />
<stop  offset="0.290196" style="stop-color:#FFD085;stop-opacity:1" />
<stop  offset="0.427451" style="stop-color:#D2983B;stop-opacity:1" />
<stop  offset="0.564706" style="stop-color:#AE7315;stop-opacity:1" />
</linearGradient>
<path style="fill:url(#LinearGradID_1163) " d="M11.15 -2.8L11.55 -2.7L13 -2.3L14.75 -2.25L16.75 -2.1L18.5 -2.45L19.9 -2.6Q20.6 -3.15 20.75 -3.65L20.25 -0.9Q20.1 0.3 18.05 0.8L14.3 1L12.45 0.7L10.9 0.5Q10.8 0.35 10.5 0.35L8.7 -0.4L8.25 -0.7L7.2 -1.4Q6.55 -1.55 6.15 -2.35L5.75 -3.7L6.3 -6.45Q6.3 -5.65 7.05 -4.95L8.05 -4.15L8.95 -3.7L10.35 -3.2L11.15 -2.8" />
<path style="fill:#FFF9EC;fill-opacity:1" d="M16.75 -2.1L14.75 -2.25L13 -2.3L11.55 -2.7L11.15 -2.8L10.35 -3.2Q14.55 -4.4 11.9 -8.25L14.15 -8.1L16.55 -7.35Q13.85 -5.6 16.75 -2.1" />
<path style="fill:none;stroke-width:0.7;stroke-linecap:round;stroke-linejoin:round;stroke-miterlimit:3;stroke:#000000;stroke-opacity:0.4" d="M6.3 -6.45Q6.45 -7.55 8.9 -8.1L11.9 -8.25L14.15 -8.1L16.55 -7.35L19.1 -6.3Q20.85 -5.05 20.65 -3.8L20.75 -3.65L20.25 -0.9Q20.1 0.3 18.05 0.8L14.3 1L12.45 0.7L10.9 0.5Q10.8 0.35 10.5 0.35L8.7 -0.4L8.25 -0.7L7.2 -1.4Q6.55 -1.55 6.15 -2.35L5.75 -3.7L6.3 -6.45Q6.3 -5.65 7.05 -4.95L8.05 -4.15L8.95 -3.7L10.35 -3.2" />
<path style="fill:none;stroke-width:0.7;stroke-linecap:round;stroke-linejoin:round;stroke-miterlimit:3;stroke:#000000;stroke-opacity:0.4" d="M16.75 -2.1L14.75 -2.25L13 -2.3L11.55 -2.7L11.15 -2.8L10.35 -3.2" />
<path style="fill:none;stroke-width:0.7;stroke-linecap:round;stroke-linejoin:round;stroke-miterlimit:3;stroke:#000000;stroke-opacity:0.4" d="M20.75 -3.65Q20.6 -3.15 19.9 -2.6L18.5 -2.45L16.75 -2.1" />
</g>
<g id="PathID_2214" transform="matrix(1, 0, 0, 1, 37.9, 47.75)">
<path style="fill:#FFF9EC;fill-opacity:1" d="M5.45 -3L3.55 -2.6L1.9 -2.3L0.35 -2.3L-0.1 -2.3L-0.9 -2.5Q2.85 -4.7 -0.65 -7.85L1.6 -8.25L4.05 -8.05Q1.9 -5.75 5.45 -3" />
<linearGradient
id="LinearGradID_1164" gradientUnits="userSpaceOnUse" gradientTransform="matrix(0.00637817, 0.000854492, -0.000442505, 0.00366211, -0.45, -1.4)" spreadMethod ="pad" x1="-819.2" y1="0" x2="819.2" y2="0" >
<stop  offset="0" style="stop-color:#AE7315;stop-opacity:1" />
<stop  offset="0.172549" style="stop-color:#D2983B;stop-opacity:1" />
<stop  offset="0.290196" style="stop-color:#FFD085;stop-opacity:1" />
<stop  offset="0.427451" style="stop-color:#D2983B;stop-opacity:1" />
<stop  offset="0.564706" style="stop-color:#AE7315;stop-opacity:1" />
</linearGradient>
<path style="fill:url(#LinearGradID_1164) " d="M-4.55 -3.5L-3.4 -2.85L-2.4 -2.65L-0.9 -2.5L-0.1 -2.3L0.35 -2.3L1.9 -2.3L3.55 -2.6L5.45 -3L7.15 -3.7L8.4 -4.2Q9.05 -4.9 9.05 -5.45L9.25 -2.65Q9.4 -1.45 7.5 -0.55Q5.25 0.45 3.85 0.65L2 0.8L0.5 0.9L0.05 0.9L-1.95 0.55L-2.4 0.45L-3.6 0Q-4.2 0 -4.85 -0.75L-5.55 -1.9L-5.6 -4.7Q-5.5 -4 -4.55 -3.5" />
<path style="fill:#FFDC35;fill-opacity:1" d="M5.45 -3Q1.9 -5.75 4.05 -8.05L6.85 -7.55Q8.9 -6.8 8.95 -5.6L9.05 -5.45Q9.05 -4.9 8.4 -4.2L7.15 -3.7L5.45 -3M-5.6 -4.7Q-5.75 -5.9 -3.6 -6.95Q-2.25 -7.65 -0.65 -7.85Q2.85 -4.7 -0.9 -2.5L-2.4 -2.65L-3.4 -2.85L-4.55 -3.5Q-5.5 -4 -5.6 -4.7" />
<path style="fill:none;stroke-width:0.7;stroke-linecap:round;stroke-linejoin:round;stroke-miterlimit:3;stroke:#000000;stroke-opacity:0.4" d="M-0.65 -7.85L1.6 -8.25L4.05 -8.05L6.85 -7.55Q8.9 -6.8 8.95 -5.6L9.05 -5.45L9.25 -2.65Q9.4 -1.45 7.5 -0.55Q5.25 0.45 3.85 0.65L2 0.8L0.5 0.9L0.05 0.9L-1.95 0.55L-2.4 0.45L-3.6 0Q-4.2 0 -4.85 -0.75L-5.55 -1.9L-5.6 -4.7Q-5.75 -5.9 -3.6 -6.95Q-2.25 -7.65 -0.65 -7.85z" />
<path style="fill:none;stroke-width:0.7;stroke-linecap:round;stroke-linejoin:round;stroke-miterlimit:3;stroke:#000000;stroke-opacity:0.4" d="M-0.9 -2.5L-0.1 -2.3L0.35 -2.3L1.9 -2.3L3.55 -2.6L5.45 -3" />
<path style="fill:none;stroke-width:0.7;stroke-linecap:round;stroke-linejoin:round;stroke-miterlimit:3;stroke:#000000;stroke-opacity:0.4" d="M9.05 -5.45Q9.05 -4.9 8.4 -4.2L7.15 -3.7L5.45 -3" />
<path style="fill:none;stroke-width:0.7;stroke-linecap:round;stroke-linejoin:round;stroke-miterlimit:3;stroke:#000000;stroke-opacity:0.4" d="M-0.9 -2.5L-2.4 -2.65L-3.4 -2.85L-4.55 -3.5Q-5.5 -4 -5.6 -4.7" />
</g>
<g id="PathID_2215" transform="matrix(1, 0, 0, 1, 37.9, 47.75)">
<linearGradient
id="LinearGradID_1165" gradientUnits="userSpaceOnUse" gradientTransform="matrix(0.00531006, 0.00363159, -0.00205994, 0.00305176, -12.55, -4.4)" spreadMethod ="pad" x1="-819.2" y1="0" x2="819.2" y2="0" >
<stop  offset="0" style="stop-color:#AE7315;stop-opacity:1" />
<stop  offset="0.172549" style="stop-color:#D2983B;stop-opacity:1" />
<stop  offset="0.290196" style="stop-color:#FFD085;stop-opacity:1" />
<stop  offset="0.427451" style="stop-color:#D2983B;stop-opacity:1" />
<stop  offset="0.564706" style="stop-color:#AE7315;stop-opacity:1" />
</linearGradient>
<path style="fill:url(#LinearGradID_1165) " d="M-11.85 -5.05L-11.5 -4.85L-10.1 -4.15L-8.5 -3.55L-6.6 -3.15L-4.8 -2.95L-3.45 -2.85Q-2.55 -3.2 -2.25 -3.7L-3.4 -1.1Q-3.8 0 -5.9 -0.05L-9.7 -0.6Q-10.45 -1.05 -11.35 -1.3L-12.75 -1.9L-13.2 -2.1L-14.85 -3.35L-15.15 -3.55L-16.05 -4.55Q-16.55 -4.85 -16.85 -5.8L-16.9 -7.15L-15.7 -9.65Q-15.85 -8.95 -15.35 -8.1L-14.5 -7L-13.75 -6.35L-12.5 -5.6L-11.85 -5.05" />
<path style="fill:#FFDC35;fill-opacity:1" d="M-12.9 -10.7L-9.8 -10.2Q-8.15 -5.8 -12.5 -5.6L-13.75 -6.35L-14.5 -7L-15.35 -8.1Q-15.85 -8.95 -15.7 -9.65Q-15.3 -10.8 -12.9 -10.7M-5.55 -8.25Q-4.2 -7.55 -3.3 -6.6Q-1.75 -4.95 -2.25 -3.85L-2.25 -3.7Q-2.55 -3.2 -3.45 -2.85L-4.8 -2.95L-6.6 -3.15Q-8.55 -7.2 -5.55 -8.25" />
<path style="fill:#FFF9EC;fill-opacity:1" d="M-6.6 -3.15L-8.5 -3.55L-10.1 -4.15L-11.5 -4.85L-11.85 -5.05L-12.5 -5.6Q-8.15 -5.8 -9.8 -10.2L-7.65 -9.6L-5.55 -8.25Q-8.55 -7.2 -6.6 -3.15" />
<path style="fill:none;stroke-width:0.7;stroke-linecap:round;stroke-linejoin:round;stroke-miterlimit:3;stroke:#000000;stroke-opacity:0.4" d="M-12.5 -5.6L-13.75 -6.35L-14.5 -7L-15.35 -8.1Q-15.85 -8.95 -15.7 -9.65L-16.9 -7.15L-16.85 -5.8Q-16.55 -4.85 -16.05 -4.55L-15.15 -3.55L-14.85 -3.35L-13.2 -2.1L-12.75 -1.9L-11.35 -1.3Q-10.45 -1.05 -9.7 -0.6L-5.9 -0.05Q-3.8 0 -3.4 -1.1L-2.25 -3.7Q-2.55 -3.2 -3.45 -2.85L-4.8 -2.95L-6.6 -3.15L-8.5 -3.55L-10.1 -4.15L-11.5 -4.85L-11.85 -5.05L-12.5 -5.6z" />
<path style="fill:none;stroke-width:0.7;stroke-linecap:round;stroke-linejoin:round;stroke-miterlimit:3;stroke:#000000;stroke-opacity:0.4" d="M-9.8 -10.2L-12.9 -10.7Q-15.3 -10.8 -15.7 -9.65" />
<path style="fill:none;stroke-width:0.7;stroke-linecap:round;stroke-linejoin:round;stroke-miterlimit:3;stroke:#000000;stroke-opacity:0.4" d="M-9.8 -10.2L-7.65 -9.6L-5.55 -8.25Q-4.2 -7.55 -3.3 -6.6Q-1.75 -4.95 -2.25 -3.85L-2.25 -3.7" />
</g>
<g id="PathID_2216" transform="matrix(1, 0, 0, 1, 37.9, 47.75)">
<path style="fill:#FFDC35;fill-opacity:1" d="M-22.25 -3.35L-23.65 -3.55L-24.6 -3.8L-25.85 -4.4Q-26.7 -4.9 -26.9 -5.6Q-27 -6.85 -24.8 -7.85L-21.95 -8.75Q-18.5 -5.55 -22.25 -3.35M-17.2 -8.9L-14.45 -8.4Q-12.35 -7.65 -12.25 -6.45L-12.2 -6.3Q-12.25 -5.75 -12.9 -4.95L-14.15 -4.5L-15.9 -3.8Q-19.4 -6.65 -17.2 -8.9" />
<linearGradient
id="LinearGradID_1166" gradientUnits="userSpaceOnUse" gradientTransform="matrix(0.00639343, 0.000900269, -0.000473022, 0.00363159, -21.8, -2.25)" spreadMethod ="pad" x1="-819.2" y1="0" x2="819.2" y2="0" >
<stop  offset="0" style="stop-color:#AE7315;stop-opacity:1" />
<stop  offset="0.172549" style="stop-color:#D2983B;stop-opacity:1" />
<stop  offset="0.290196" style="stop-color:#FFD085;stop-opacity:1" />
<stop  offset="0.427451" style="stop-color:#D2983B;stop-opacity:1" />
<stop  offset="0.564706" style="stop-color:#AE7315;stop-opacity:1" />
</linearGradient>
<path style="fill:url(#LinearGradID_1166) " d="M-21.45 -3.15L-20.95 -3.15L-19.4 -3.15L-17.75 -3.35L-15.9 -3.8L-14.15 -4.5L-12.9 -4.95Q-12.25 -5.75 -12.2 -6.3L-12.05 -3.45Q-11.9 -2.25 -13.9 -1.3Q-16.15 -0.35 -17.55 -0.25L-19.3 -0.05L-20.9 -0.05L-21.3 -0.05L-23.3 -0.4L-23.65 -0.5L-24.95 -0.9Q-25.5 -0.95 -26.15 -1.65L-26.8 -2.8L-26.9 -5.6Q-26.7 -4.9 -25.85 -4.4L-24.6 -3.8L-23.65 -3.55L-22.25 -3.35L-21.45 -3.15" />
<path style="fill:#FFF9EC;fill-opacity:1" d="M-15.9 -3.8L-17.75 -3.35L-19.4 -3.15L-20.95 -3.15L-21.45 -3.15L-22.25 -3.35Q-18.5 -5.55 -21.95 -8.75L-19.7 -9.1L-17.2 -8.9Q-19.4 -6.65 -15.9 -3.8" />
<path style="fill:none;stroke-width:0.7;stroke-linecap:round;stroke-linejoin:round;stroke-miterlimit:3;stroke:#000000;stroke-opacity:0.4" d="M-26.9 -5.6Q-27 -6.85 -24.8 -7.85L-21.95 -8.75L-19.7 -9.1L-17.2 -8.9L-14.45 -8.4Q-12.35 -7.65 -12.25 -6.45L-12.2 -6.3L-12.05 -3.45Q-11.9 -2.25 -13.9 -1.3Q-16.15 -0.35 -17.55 -0.25L-19.3 -0.05L-20.9 -0.05L-21.3 -0.05L-23.3 -0.4L-23.65 -0.5L-24.95 -0.9Q-25.5 -0.95 -26.15 -1.65L-26.8 -2.8L-26.9 -5.6Q-26.7 -4.9 -25.85 -4.4L-24.6 -3.8L-23.65 -3.55L-22.25 -3.35" />
<path style="fill:none;stroke-width:0.7;stroke-linecap:round;stroke-linejoin:round;stroke-miterlimit:3;stroke:#000000;stroke-opacity:0.4" d="M-15.9 -3.8L-17.75 -3.35L-19.4 -3.15L-20.95 -3.15L-21.45 -3.15L-22.25 -3.35" />
<path style="fill:none;stroke-width:0.7;stroke-linecap:round;stroke-linejoin:round;stroke-miterlimit:3;stroke:#000000;stroke-opacity:0.4" d="M-12.2 -6.3Q-12.25 -5.75 -12.9 -4.95L-14.15 -4.5L-15.9 -3.8" />
</g>
<g id="PathID_2217" transform="matrix(1, 0, 0, 1, 37.9, 47.75)">
<path style="fill:#FFF9EC;fill-opacity:1" d="M-26.15 -7.75L-27.35 -6.35L-28.65 -5.25L-29.95 -4.35L-30.3 -4.05L-31.05 -3.8Q-29.25 -7.7 -33.85 -8.4L-32.25 -9.95L-30.05 -11.2Q-30.65 -8 -26.15 -7.75" />
<path style="fill:#FFDC35;fill-opacity:1" d="M-26.15 -7.75Q-30.65 -8 -30.05 -11.2Q-28.9 -12.05 -27.55 -12.3Q-25.4 -12.9 -24.6 -11.95L-24.45 -11.9Q-24.2 -11.4 -24.35 -10.45L-25.1 -9.25L-26.15 -7.75M-36.25 -2.95Q-36.95 -3.9 -35.8 -5.95L-33.85 -8.4Q-29.25 -7.7 -31.05 -3.8L-32.4 -3.15L-33.3 -2.7L-34.7 -2.6Q-35.6 -2.5 -36.25 -2.95" />
<linearGradient
id="LinearGradID_1167" gradientUnits="userSpaceOnUse" gradientTransform="matrix(0.00575256, -0.00291443, 0.00169373, 0.00326538, -30.05, -3.15)" spreadMethod ="pad" x1="-819.2" y1="0" x2="819.2" y2="0" >
<stop  offset="0" style="stop-color:#AE7315;stop-opacity:1" />
<stop  offset="0.172549" style="stop-color:#D2983B;stop-opacity:1" />
<stop  offset="0.290196" style="stop-color:#FFD085;stop-opacity:1" />
<stop  offset="0.427451" style="stop-color:#D2983B;stop-opacity:1" />
<stop  offset="0.564706" style="stop-color:#AE7315;stop-opacity:1" />
</linearGradient>
<path style="fill:url(#LinearGradID_1167) " d="M-34.7 -2.6L-33.3 -2.7L-32.4 -3.15L-31.05 -3.8L-30.3 -4.05L-29.95 -4.35L-28.65 -5.25L-27.35 -6.35L-26.15 -7.75L-25.1 -9.25L-24.35 -10.45Q-24.2 -11.4 -24.45 -11.9L-22.8 -9.65Q-21.95 -8.7 -23.05 -6.85Q-24.4 -4.75 -25.45 -3.9L-26.8 -2.7L-28.05 -1.8L-28.4 -1.6L-30.3 -0.6L-30.65 -0.5L-31.9 -0.2Q-32.4 0.1 -33.35 -0.2Q-34.4 -0.5 -34.5 -0.75L-36.25 -2.95Q-35.6 -2.5 -34.7 -2.6" />
<path style="fill:none;stroke-width:0.7;stroke-linecap:round;stroke-linejoin:round;stroke-miterlimit:3;stroke:#000000;stroke-opacity:0.4" d="M-33.85 -8.4L-32.25 -9.95L-30.05 -11.2Q-28.9 -12.05 -27.55 -12.3Q-25.4 -12.9 -24.6 -11.95L-24.45 -11.9L-22.8 -9.65Q-21.95 -8.7 -23.05 -6.85Q-24.4 -4.75 -25.45 -3.9L-26.8 -2.7L-28.05 -1.8L-28.4 -1.6L-30.3 -0.6L-30.65 -0.5L-31.9 -0.2Q-32.4 0.1 -33.35 -0.2Q-34.4 -0.5 -34.5 -0.75L-36.25 -2.95Q-36.95 -3.9 -35.8 -5.95L-33.85 -8.4z" />
<path style="fill:none;stroke-width:0.7;stroke-linecap:round;stroke-linejoin:round;stroke-miterlimit:3;stroke:#000000;stroke-opacity:0.4" d="M-31.05 -3.8L-30.3 -4.05L-29.95 -4.35L-28.65 -5.25L-27.35 -6.35L-26.15 -7.75" />
<path style="fill:none;stroke-width:0.7;stroke-linecap:round;stroke-linejoin:round;stroke-miterlimit:3;stroke:#000000;stroke-opacity:0.4" d="M-31.05 -3.8L-32.4 -3.15L-33.3 -2.7L-34.7 -2.6Q-35.6 -2.5 -36.25 -2.95" />
<path style="fill:none;stroke-width:0.7;stroke-linecap:round;stroke-linejoin:round;stroke-miterlimit:3;stroke:#000000;stroke-opacity:0.4" d="M-24.45 -11.9Q-24.2 -11.4 -24.35 -10.45L-25.1 -9.25L-26.15 -7.75" />
</g>
<g id="PathID_2218" transform="matrix(1, 0, 0, 1, 37.9, 47.75)">
<path style="fill:#FFDC35;fill-opacity:1" d="M-23.9 -10.65Q-24.7 -10.9 -25.3 -11.25L-26.15 -11.75L-27.25 -12.75Q-27.85 -13.4 -27.85 -14.15Q-27.55 -15.35 -25.25 -15.7L-22.15 -15.75Q-19.75 -11.7 -23.9 -10.65M-17.6 -14.5Q-16.15 -14.1 -15.15 -13.4Q-13.35 -11.95 -13.55 -10.8L-13.55 -10.7Q-13.75 -10.15 -14.6 -9.65L-15.85 -9.45L-17.8 -9.3Q-20.4 -13.05 -17.6 -14.5" />
<linearGradient
id="LinearGradID_1168" gradientUnits="userSpaceOnUse" gradientTransform="matrix(0.00587463, 0.00262451, -0.00149536, 0.00337219, -23.85, -9.45)" spreadMethod ="pad" x1="-819.2" y1="0" x2="819.2" y2="0" >
<stop  offset="0" style="stop-color:#AE7315;stop-opacity:1" />
<stop  offset="0.172549" style="stop-color:#D2983B;stop-opacity:1" />
<stop  offset="0.290196" style="stop-color:#FFD085;stop-opacity:1" />
<stop  offset="0.427451" style="stop-color:#D2983B;stop-opacity:1" />
<stop  offset="0.564706" style="stop-color:#AE7315;stop-opacity:1" />
</linearGradient>
<path style="fill:url(#LinearGradID_1168) " d="M-23.3 -10.3L-22.85 -10.1L-21.3 -9.65L-19.65 -9.4L-17.8 -9.3L-15.85 -9.45L-14.6 -9.65Q-13.75 -10.15 -13.55 -10.7L-14.25 -7.85Q-14.45 -6.7 -16.55 -6.45L-20.25 -6.35L-22.1 -6.65L-23.55 -7.05L-24 -7.2Q-24.75 -7.65 -25.95 -8.1L-26.2 -8.25L-27.35 -9.05Q-27.85 -9.25 -28.25 -10.15L-28.55 -11.4L-27.85 -14.15Q-27.85 -13.4 -27.25 -12.75L-26.15 -11.75L-25.3 -11.25Q-24.7 -10.9 -23.9 -10.65L-23.3 -10.3" />
<path style="fill:#FFF9EC;fill-opacity:1" d="M-17.8 -9.3L-19.65 -9.4L-21.3 -9.65L-22.85 -10.1L-23.3 -10.3L-23.9 -10.65Q-19.75 -11.7 -22.15 -15.75L-19.9 -15.4Q-18.7 -15.05 -17.6 -14.5Q-20.4 -13.05 -17.8 -9.3" />
<path style="fill:none;stroke-width:0.7;stroke-linecap:round;stroke-linejoin:round;stroke-miterlimit:3;stroke:#000000;stroke-opacity:0.4" d="M-27.85 -14.15Q-27.55 -15.35 -25.25 -15.7L-22.15 -15.75L-19.9 -15.4Q-18.7 -15.05 -17.6 -14.5Q-16.15 -14.1 -15.15 -13.4Q-13.35 -11.95 -13.55 -10.8L-13.55 -10.7L-14.25 -7.85Q-14.45 -6.7 -16.55 -6.45L-20.25 -6.35L-22.1 -6.65L-23.55 -7.05L-24 -7.2Q-24.75 -7.65 -25.95 -8.1L-26.2 -8.25L-27.35 -9.05Q-27.85 -9.25 -28.25 -10.15L-28.55 -11.4L-27.85 -14.15Q-27.85 -13.4 -27.25 -12.75L-26.15 -11.75L-25.3 -11.25Q-24.7 -10.9 -23.9 -10.65" />
<path style="fill:none;stroke-width:0.7;stroke-linecap:round;stroke-linejoin:round;stroke-miterlimit:3;stroke:#000000;stroke-opacity:0.4" d="M-17.8 -9.3L-19.65 -9.4L-21.3 -9.65L-22.85 -10.1L-23.3 -10.3L-23.9 -10.65" />
<path style="fill:none;stroke-width:0.7;stroke-linecap:round;stroke-linejoin:round;stroke-miterlimit:3;stroke:#000000;stroke-opacity:0.4" d="M-13.55 -10.7Q-13.75 -10.15 -14.6 -9.65L-15.85 -9.45L-17.8 -9.3" />
</g>
<g id="PathID_2219" transform="matrix(1, 0, 0, 1, 37.9, 47.75)">
<path style="fill:#FFDC35;fill-opacity:1" d="M-6.2 -13.5L-7.15 -12.6L-8.7 -11.4Q-12.9 -13.1 -11.35 -15.9L-8.65 -16.25Q-6.45 -16.1 -5.95 -15L-5.9 -14.85Q-5.75 -14.35 -6.2 -13.5M-14.6 -9.15L-16 -8.95L-16.95 -8.9L-18.45 -9.05Q-19.3 -9.3 -19.7 -9.85Q-20.1 -11.05 -18.45 -12.6L-15.85 -14.45Q-11.65 -12.3 -14.6 -9.15" />
<linearGradient
id="LinearGradID_1169" gradientUnits="userSpaceOnUse" gradientTransform="matrix(0.00637817, -0.00102234, 0.00062561, 0.00361633, -13.8, -8.25)" spreadMethod ="pad" x1="-819.2" y1="0" x2="819.2" y2="0" >
<stop  offset="0" style="stop-color:#AE7315;stop-opacity:1" />
<stop  offset="0.172549" style="stop-color:#D2983B;stop-opacity:1" />
<stop  offset="0.290196" style="stop-color:#FFD085;stop-opacity:1" />
<stop  offset="0.427451" style="stop-color:#D2983B;stop-opacity:1" />
<stop  offset="0.564706" style="stop-color:#AE7315;stop-opacity:1" />
</linearGradient>
<path style="fill:url(#LinearGradID_1169) " d="M-18.45 -9.05L-16.95 -8.9L-16 -8.95L-14.6 -9.15L-13.75 -9.15L-13.35 -9.4L-11.85 -9.8L-10.25 -10.45L-8.7 -11.4L-7.15 -12.6L-6.2 -13.5Q-5.75 -14.35 -5.9 -14.85L-4.9 -12.2Q-4.45 -11.15 -5.95 -9.75Q-7.95 -8.05 -9.1 -7.55L-10.8 -6.95L-12.2 -6.35L-12.65 -6.3L-14.8 -6L-15.1 -5.95L-16.5 -5.95Q-17.05 -5.8 -17.9 -6.35L-18.8 -7.3L-19.7 -9.85Q-19.3 -9.3 -18.45 -9.05" />
<path style="fill:#FFF9EC;fill-opacity:1" d="M-15.85 -14.45L-13.8 -15.4L-11.35 -15.9Q-12.9 -13.1 -8.7 -11.4L-10.25 -10.45L-11.85 -9.8L-13.35 -9.4L-13.75 -9.15L-14.6 -9.15Q-11.65 -12.3 -15.85 -14.45" />
<path style="fill:none;stroke-width:0.7;stroke-linecap:round;stroke-linejoin:round;stroke-miterlimit:3;stroke:#000000;stroke-opacity:0.4" d="M-11.35 -15.9L-8.65 -16.25Q-6.45 -16.1 -5.95 -15L-5.9 -14.85L-4.9 -12.2Q-4.45 -11.15 -5.95 -9.75Q-7.95 -8.05 -9.1 -7.55L-10.8 -6.95L-12.2 -6.35L-12.65 -6.3L-14.8 -6L-15.1 -5.95L-16.5 -5.95Q-17.05 -5.8 -17.9 -6.35L-18.8 -7.3L-19.7 -9.85Q-20.1 -11.05 -18.45 -12.6L-15.85 -14.45L-13.8 -15.4L-11.35 -15.9z" />
<path style="fill:none;stroke-width:0.7;stroke-linecap:round;stroke-linejoin:round;stroke-miterlimit:3;stroke:#000000;stroke-opacity:0.4" d="M-8.7 -11.4L-7.15 -12.6L-6.2 -13.5Q-5.75 -14.35 -5.9 -14.85" />
<path style="fill:none;stroke-width:0.7;stroke-linecap:round;stroke-linejoin:round;stroke-miterlimit:3;stroke:#000000;stroke-opacity:0.4" d="M-8.7 -11.4L-10.25 -10.45L-11.85 -9.8L-13.35 -9.4L-13.75 -9.15L-14.6 -9.15L-16 -8.95L-16.95 -8.9L-18.45 -9.05Q-19.3 -9.3 -19.7 -9.85" />
</g>
<g id="PathID_2220" transform="matrix(1, 0, 0, 1, 37.9, 47.75)">
<path style="fill:#FFDC35;fill-opacity:1" d="M-20.25 -16.2L-21.75 -16.05L-22.7 -16.05L-24.05 -16.4Q-24.95 -16.65 -25.3 -17.25Q-25.65 -18.5 -23.85 -19.9L-21.15 -21.45Q-17.05 -19.1 -20.25 -16.2M-16.55 -22.65L-13.8 -22.75Q-11.55 -22.5 -11.2 -21.3L-11.15 -21.2Q-11.1 -20.75 -11.5 -19.8L-12.65 -19.05L-14.25 -18Q-18.25 -19.95 -16.55 -22.65" />
<linearGradient
id="LinearGradID_1170" gradientUnits="userSpaceOnUse" gradientTransform="matrix(0.00640869, -0.000549316, 0.000335693, 0.00367737, -19.55, -15.2)" spreadMethod ="pad" x1="-819.2" y1="0" x2="819.2" y2="0" >
<stop  offset="0" style="stop-color:#AE7315;stop-opacity:1" />
<stop  offset="0.172549" style="stop-color:#D2983B;stop-opacity:1" />
<stop  offset="0.290196" style="stop-color:#FFD085;stop-opacity:1" />
<stop  offset="0.427451" style="stop-color:#D2983B;stop-opacity:1" />
<stop  offset="0.564706" style="stop-color:#AE7315;stop-opacity:1" />
</linearGradient>
<path style="fill:url(#LinearGradID_1170) " d="M-19.4 -16.1L-19 -16.25L-17.45 -16.6L-15.8 -17.15L-14.25 -18L-12.65 -19.05L-11.5 -19.8Q-11.1 -20.75 -11.15 -21.2L-10.4 -18.5Q-9.95 -17.35 -11.65 -16.05Q-13.7 -14.55 -14.95 -14.15L-16.6 -13.6L-18.15 -13.15L-18.6 -13.1L-20.7 -12.95L-21.05 -12.9L-22.35 -13.1Q-22.95 -13.05 -23.7 -13.65L-24.6 -14.55L-25.3 -17.25Q-24.95 -16.65 -24.05 -16.4L-22.7 -16.05L-21.75 -16.05L-20.25 -16.2L-19.4 -16.1" />
<path style="fill:#FFF9EC;fill-opacity:1" d="M-14.25 -18L-15.8 -17.15L-17.45 -16.6L-19 -16.25L-19.4 -16.1L-20.25 -16.2Q-17.05 -19.1 -21.15 -21.45L-19.05 -22.25L-16.55 -22.65Q-18.25 -19.95 -14.25 -18" />
<path style="fill:none;stroke-width:0.7;stroke-linecap:round;stroke-linejoin:round;stroke-miterlimit:3;stroke:#000000;stroke-opacity:0.4" d="M-25.3 -17.25Q-25.65 -18.5 -23.85 -19.9L-21.15 -21.45L-19.05 -22.25L-16.55 -22.65L-13.8 -22.75Q-11.55 -22.5 -11.2 -21.3L-11.15 -21.2L-10.4 -18.5Q-9.95 -17.35 -11.65 -16.05Q-13.7 -14.55 -14.95 -14.15L-16.6 -13.6L-18.15 -13.15L-18.6 -13.1L-20.7 -12.95L-21.05 -12.9L-22.35 -13.1Q-22.95 -13.05 -23.7 -13.65L-24.6 -14.55L-25.3 -17.25Q-24.95 -16.65 -24.05 -16.4L-22.7 -16.05L-21.75 -16.05L-20.25 -16.2" />
<path style="fill:none;stroke-width:0.7;stroke-linecap:round;stroke-linejoin:round;stroke-miterlimit:3;stroke:#000000;stroke-opacity:0.4" d="M-11.15 -21.2Q-11.1 -20.75 -11.5 -19.8L-12.65 -19.05L-14.25 -18L-15.8 -17.15L-17.45 -16.6L-19 -16.25L-19.4 -16.1L-20.25 -16.2" />
</g>
<g id="PathID_2221" transform="matrix(1, 0, 0, 1, 37.9, 47.75)">
<path style="fill:#FFDC35;fill-opacity:1" d="M-16 -22.15L-17.45 -22.35L-18.45 -22.55L-19.7 -23.2Q-20.45 -23.75 -20.6 -24.45Q-20.7 -25.7 -18.5 -26.6L-15.5 -27.45Q-12.15 -24.1 -16 -22.15M-10.75 -27.4Q-9.25 -27.3 -8.05 -26.75Q-5.95 -25.9 -5.95 -24.75L-5.9 -24.6Q-5.95 -24.05 -6.65 -23.35Q-7.25 -23.25 -7.85 -22.85L-9.7 -22.35Q-13.05 -25.15 -10.75 -27.4" />
<path style="fill:#FFF9EC;fill-opacity:1" d="M-9.7 -22.35L-11.5 -21.9L-13.2 -21.7L-14.8 -21.8L-15.2 -21.85L-16 -22.15Q-12.15 -24.1 -15.5 -27.45L-13.25 -27.65L-10.75 -27.4Q-13.05 -25.15 -9.7 -22.35" />
<linearGradient
id="LinearGradID_1171" gradientUnits="userSpaceOnUse" gradientTransform="matrix(0.0063324, 0.00112915, -0.00062561, 0.00361633, -15.55, -21)" spreadMethod ="pad" x1="-819.2" y1="0" x2="819.2" y2="0" >
<stop  offset="0" style="stop-color:#AE7315;stop-opacity:1" />
<stop  offset="0.172549" style="stop-color:#D2983B;stop-opacity:1" />
<stop  offset="0.290196" style="stop-color:#FFD085;stop-opacity:1" />
<stop  offset="0.427451" style="stop-color:#D2983B;stop-opacity:1" />
<stop  offset="0.564706" style="stop-color:#AE7315;stop-opacity:1" />
</linearGradient>
<path style="fill:url(#LinearGradID_1171) " d="M-15.2 -21.85L-14.8 -21.8L-13.2 -21.7L-11.5 -21.9L-9.7 -22.35L-7.85 -22.85Q-7.25 -23.25 -6.65 -23.35Q-5.95 -24.05 -5.9 -24.6L-5.9 -21.7Q-5.75 -20.6 -7.7 -19.75Q-10.05 -18.85 -11.45 -18.75L-13.25 -18.7L-14.75 -18.65L-15.2 -18.65L-17.25 -19.05L-17.6 -19.2L-18.85 -19.7Q-19.35 -19.7 -20.05 -20.5L-20.7 -21.7L-20.6 -24.45Q-20.45 -23.75 -19.7 -23.2L-18.45 -22.55L-17.45 -22.35L-16 -22.15L-15.2 -21.85" />
<path style="fill:none;stroke-width:0.7;stroke-linecap:round;stroke-linejoin:round;stroke-miterlimit:3;stroke:#000000;stroke-opacity:0.4" d="M-20.6 -24.45Q-20.7 -25.7 -18.5 -26.6L-15.5 -27.45L-13.25 -27.65L-10.75 -27.4Q-9.25 -27.3 -8.05 -26.75Q-5.95 -25.9 -5.95 -24.75L-5.9 -24.6L-5.9 -21.7Q-5.75 -20.6 -7.7 -19.75Q-10.05 -18.85 -11.45 -18.75L-13.25 -18.7L-14.75 -18.65L-15.2 -18.65L-17.25 -19.05L-17.6 -19.2L-18.85 -19.7Q-19.35 -19.7 -20.05 -20.5L-20.7 -21.7L-20.6 -24.45Q-20.45 -23.75 -19.7 -23.2L-18.45 -22.55L-17.45 -22.35L-16 -22.15" />
<path style="fill:none;stroke-width:0.7;stroke-linecap:round;stroke-linejoin:round;stroke-miterlimit:3;stroke:#000000;stroke-opacity:0.4" d="M-5.9 -24.6Q-5.95 -24.05 -6.65 -23.35Q-7.25 -23.25 -7.85 -22.85L-9.7 -22.35L-11.5 -21.9L-13.2 -21.7L-14.8 -21.8L-15.2 -21.85L-16 -22.15" />
</g>
<g id="PathID_2222" transform="matrix(1, 0, 0, 1, 37.9, 47.75)">
<path style="fill:#FFDC35;fill-opacity:1" d="M-0.2 -14.15L2 -12.45Q3.55 -10.85 3.05 -9.75L3.05 -9.6Q2.8 -9.1 1.9 -8.75L0.55 -8.8L-1.25 -9.05Q-3.25 -13.1 -0.2 -14.15M-7.15 -11.5L-8.4 -12.25L-9.2 -12.9L-10.05 -14Q-10.5 -14.85 -10.4 -15.55Q-9.95 -16.65 -7.6 -16.6L-4.5 -16.1Q-2.8 -11.7 -7.15 -11.5" />
<linearGradient
id="LinearGradID_1172" gradientUnits="userSpaceOnUse" gradientTransform="matrix(0.00531006, 0.00363159, -0.00205994, 0.00305176, -7.25, -10.3)" spreadMethod ="pad" x1="-819.2" y1="0" x2="819.2" y2="0" >
<stop  offset="0" style="stop-color:#AE7315;stop-opacity:1" />
<stop  offset="0.172549" style="stop-color:#D2983B;stop-opacity:1" />
<stop  offset="0.290196" style="stop-color:#FFD085;stop-opacity:1" />
<stop  offset="0.427451" style="stop-color:#D2983B;stop-opacity:1" />
<stop  offset="0.564706" style="stop-color:#AE7315;stop-opacity:1" />
</linearGradient>
<path style="fill:url(#LinearGradID_1172) " d="M1.95 -7Q1.55 -5.9 -0.55 -5.95L-4.35 -6.5Q-5.15 -6.95 -6.05 -7.2Q-6.75 -7.65 -7.45 -7.75L-7.85 -8L-9.55 -9.25Q-9.7 -9.45 -9.8 -9.45L-10.75 -10.45Q-11.2 -10.7 -11.5 -11.7L-11.55 -13.05L-10.4 -15.55Q-10.5 -14.85 -10.05 -14L-9.2 -12.9L-8.4 -12.25L-7.15 -11.5L-6.55 -10.9L-6.2 -10.7L-4.8 -10L-3.15 -9.45L-1.25 -9.05L0.55 -8.8L1.9 -8.75Q2.8 -9.1 3.05 -9.6L1.95 -7" />
<path style="fill:#FFF9EC;fill-opacity:1" d="M-4.5 -16.1L-2.3 -15.5L-0.2 -14.15Q-3.25 -13.1 -1.25 -9.05L-3.15 -9.45L-4.8 -10L-6.2 -10.7L-6.55 -10.9L-7.15 -11.5Q-2.8 -11.7 -4.5 -16.1" />
<path style="fill:none;stroke-width:0.7;stroke-linecap:round;stroke-linejoin:round;stroke-miterlimit:3;stroke:#000000;stroke-opacity:0.4" d="M3.05 -9.6Q2.8 -9.1 1.9 -8.75L0.55 -8.8L-1.25 -9.05L-3.15 -9.45L-4.8 -10L-6.2 -10.7L-6.55 -10.9L-7.15 -11.5L-8.4 -12.25L-9.2 -12.9L-10.05 -14Q-10.5 -14.85 -10.4 -15.55L-11.55 -13.05L-11.5 -11.7Q-11.2 -10.7 -10.75 -10.45L-9.8 -9.45Q-9.7 -9.45 -9.55 -9.25L-7.85 -8L-7.45 -7.75Q-6.75 -7.65 -6.05 -7.2Q-5.15 -6.95 -4.35 -6.5L-0.55 -5.95Q1.55 -5.9 1.95 -7L3.05 -9.6L3.05 -9.75Q3.55 -10.85 2 -12.45L-0.2 -14.15" />
<path style="fill:none;stroke-width:0.7;stroke-linecap:round;stroke-linejoin:round;stroke-miterlimit:3;stroke:#000000;stroke-opacity:0.4" d="M-4.5 -16.1L-2.3 -15.5L-0.2 -14.15" />
<path style="fill:none;stroke-width:0.7;stroke-linecap:round;stroke-linejoin:round;stroke-miterlimit:3;stroke:#000000;stroke-opacity:0.4" d="M-10.4 -15.55Q-9.95 -16.65 -7.6 -16.6L-4.5 -16.1" />
</g>
<g id="PathID_2223" transform="matrix(1, 0, 0, 1, 37.9, 47.75)">
<path style="fill:#FFDC35;fill-opacity:1" d="M5.75 -26.95L4.6 -26.2L3.15 -25.15Q-1 -27.05 0.75 -29.75L3.4 -29.9Q5.65 -29.65 6 -28.45L6.15 -28.3Q6.2 -27.75 5.75 -26.95M-2.95 -23.25L-4.35 -23.1L-5.35 -23.2L-6.75 -23.45Q-7.65 -23.8 -8 -24.4Q-8.4 -25.55 -6.55 -27.05L-3.85 -28.6Q0.2 -26.25 -2.95 -23.25" />
<linearGradient
id="LinearGradID_1173" gradientUnits="userSpaceOnUse" gradientTransform="matrix(0.00640869, -0.000549316, 0.000335693, 0.00367737, -2.25, -22.25)" spreadMethod ="pad" x1="-819.2" y1="0" x2="819.2" y2="0" >
<stop  offset="0" style="stop-color:#AE7315;stop-opacity:1" />
<stop  offset="0.172549" style="stop-color:#D2983B;stop-opacity:1" />
<stop  offset="0.290196" style="stop-color:#FFD085;stop-opacity:1" />
<stop  offset="0.427451" style="stop-color:#D2983B;stop-opacity:1" />
<stop  offset="0.564706" style="stop-color:#AE7315;stop-opacity:1" />
</linearGradient>
<path style="fill:url(#LinearGradID_1173) " d="M-6.75 -23.45L-5.35 -23.2L-4.35 -23.1L-2.95 -23.25L-2.2 -23.25L-1.7 -23.4L-0.15 -23.7L1.45 -24.3L3.15 -25.15L4.6 -26.2L5.75 -26.95Q6.2 -27.75 6.15 -28.3L6.95 -25.65Q7.3 -24.45 5.6 -23.2L2.35 -21.2L0.6 -20.65L-0.85 -20.25L-1.25 -20.25L-3.4 -20.1L-3.65 -20.05L-5.05 -20.25Q-5.6 -20.15 -6.4 -20.75L-7.3 -21.7L-8 -24.4Q-7.65 -23.8 -6.75 -23.45" />
<path style="fill:#FFF9EC;fill-opacity:1" d="M-3.85 -28.6L-1.75 -29.4L0.75 -29.75Q-1 -27.05 3.15 -25.15L1.45 -24.3L-0.15 -23.7L-1.7 -23.4L-2.2 -23.25L-2.95 -23.25Q0.2 -26.25 -3.85 -28.6" />
<path style="fill:none;stroke-width:0.7;stroke-linecap:round;stroke-linejoin:round;stroke-miterlimit:3;stroke:#000000;stroke-opacity:0.4" d="M0.75 -29.75L3.4 -29.9Q5.65 -29.65 6 -28.45L6.15 -28.3L6.95 -25.65Q7.3 -24.45 5.6 -23.2L2.35 -21.2L0.6 -20.65L-0.85 -20.25L-1.25 -20.25L-3.4 -20.1L-3.65 -20.05L-5.05 -20.25Q-5.6 -20.15 -6.4 -20.75L-7.3 -21.7L-8 -24.4Q-8.4 -25.55 -6.55 -27.05L-3.85 -28.6L-1.75 -29.4L0.75 -29.75z" />
<path style="fill:none;stroke-width:0.7;stroke-linecap:round;stroke-linejoin:round;stroke-miterlimit:3;stroke:#000000;stroke-opacity:0.4" d="M3.15 -25.15L4.6 -26.2L5.75 -26.95Q6.2 -27.75 6.15 -28.3" />
<path style="fill:none;stroke-width:0.7;stroke-linecap:round;stroke-linejoin:round;stroke-miterlimit:3;stroke:#000000;stroke-opacity:0.4" d="M3.15 -25.15L1.45 -24.3L-0.15 -23.7L-1.7 -23.4L-2.2 -23.25L-2.95 -23.25L-4.35 -23.1L-5.35 -23.2L-6.75 -23.45Q-7.65 -23.8 -8 -24.4" />
</g>
<g id="PathID_2224" transform="matrix(1, 0, 0, 1, 37.9, 47.75)">
<path style="fill:#FFF9EC;fill-opacity:1" d="M10.1 -10.1L8.1 -9.8L6.5 -9.8L4.9 -10L4.45 -10.1Q4.05 -10.2 3.7 -10.45Q7.75 -12.05 4.7 -15.6L7 -15.85L9.4 -15.25Q6.85 -13.25 10.1 -10.1" />
<path style="fill:#FFDC35;fill-opacity:1" d="M10.1 -10.1Q6.85 -13.25 9.4 -15.25Q10.85 -15 12.05 -14.35Q14.05 -13.3 13.95 -12.1L13.95 -11.95L13.95 -11.9Q13.85 -11.4 13.1 -10.8L11.85 -10.45L10.1 -10.1M-0.7 -13.25Q-0.65 -14.45 1.65 -15.15L4.7 -15.6Q7.75 -12.05 3.7 -10.45L2.25 -10.7L1.3 -11.05L0.2 -11.85Q-0.55 -12.45 -0.7 -13.25" />
<linearGradient
id="LinearGradID_1174" gradientUnits="userSpaceOnUse" gradientTransform="matrix(0.00619507, 0.00169373, -0.000946045, 0.00357056, 4.05, -9.3)" spreadMethod ="pad" x1="-819.2" y1="0" x2="819.2" y2="0" >
<stop  offset="0" style="stop-color:#AE7315;stop-opacity:1" />
<stop  offset="0.172549" style="stop-color:#D2983B;stop-opacity:1" />
<stop  offset="0.290196" style="stop-color:#FFD085;stop-opacity:1" />
<stop  offset="0.427451" style="stop-color:#D2983B;stop-opacity:1" />
<stop  offset="0.564706" style="stop-color:#AE7315;stop-opacity:1" />
</linearGradient>
<path style="fill:url(#LinearGradID_1174) " d="M0.2 -11.85L1.3 -11.05L2.25 -10.7L3.7 -10.45Q4.05 -10.2 4.45 -10.1L4.9 -10L6.5 -9.8L8.1 -9.8L10.1 -10.1L11.85 -10.45L13.1 -10.8Q13.85 -11.4 13.95 -11.9L13.8 -9.15Q13.8 -8 11.75 -7.35L8 -6.65L6.2 -6.7L4.7 -6.85L4.2 -6.95L2.15 -7.55L1.9 -7.55L0.7 -8.25Q0.15 -8.35 -0.45 -9.25L-1 -10.45L-0.7 -13.25Q-0.55 -12.45 0.2 -11.85" />
<path style="fill:none;stroke-width:0.7;stroke-linecap:round;stroke-linejoin:round;stroke-miterlimit:3;stroke:#000000;stroke-opacity:0.4" d="M4.7 -15.6L7 -15.85L9.4 -15.25Q10.85 -15 12.05 -14.35Q14.05 -13.3 13.95 -12.1L13.95 -11.95L13.95 -11.9L13.8 -9.15Q13.8 -8 11.75 -7.35L8 -6.65L6.2 -6.7L4.7 -6.85L4.2 -6.95L2.15 -7.55L1.9 -7.55L0.7 -8.25Q0.15 -8.35 -0.45 -9.25L-1 -10.45L-0.7 -13.25Q-0.65 -14.45 1.65 -15.15L4.7 -15.6z" />
<path style="fill:none;stroke-width:0.7;stroke-linecap:round;stroke-linejoin:round;stroke-miterlimit:3;stroke:#000000;stroke-opacity:0.4" d="M3.7 -10.45Q4.05 -10.2 4.45 -10.1L4.9 -10L6.5 -9.8L8.1 -9.8L10.1 -10.1" />
<path style="fill:none;stroke-width:0.7;stroke-linecap:round;stroke-linejoin:round;stroke-miterlimit:3;stroke:#000000;stroke-opacity:0.4" d="M3.7 -10.45L2.25 -10.7L1.3 -11.05L0.2 -11.85Q-0.55 -12.45 -0.7 -13.25" />
<path style="fill:none;stroke-width:0.7;stroke-linecap:round;stroke-linejoin:round;stroke-miterlimit:3;stroke:#000000;stroke-opacity:0.4" d="M13.95 -11.9Q13.85 -11.4 13.1 -10.8L11.85 -10.45L10.1 -10.1" />
</g>
<g id="PathID_2225" transform="matrix(1, 0, 0, 1, 37.9, 47.75)">
<linearGradient
id="LinearGradID_1175" gradientUnits="userSpaceOnUse" gradientTransform="matrix(0.00628662, 0.00140381, -0.000762939, 0.00358582, 23.8, -1.25)" spreadMethod ="pad" x1="-819.2" y1="0" x2="819.2" y2="0" >
<stop  offset="0" style="stop-color:#AE7315;stop-opacity:1" />
<stop  offset="0.172549" style="stop-color:#D2983B;stop-opacity:1" />
<stop  offset="0.290196" style="stop-color:#FFD085;stop-opacity:1" />
<stop  offset="0.427451" style="stop-color:#D2983B;stop-opacity:1" />
<stop  offset="0.564706" style="stop-color:#AE7315;stop-opacity:1" />
</linearGradient>
<path style="fill:url(#LinearGradID_1175) " d="M24.25 -2.1L24.65 -2.1L26.2 -1.95L27.95 -2.1L29.85 -2.3L31.6 -2.85L32.9 -3.3Q33.55 -3.9 33.6 -4.5L33.6 -1.65Q33.6 -0.5 31.65 0.3L27.95 1.2L26.05 1.15L24.5 1.15L24.1 1.15L22.15 0.55L21.7 0.45L20.5 -0.15Q19.9 -0.15 19.35 -0.95L18.75 -2.15L18.9 -4.95Q19 -4.25 19.9 -3.7L21 -2.95L22 -2.65L23.4 -2.35L24.25 -2.1" />
<path style="fill:#FFDC35;fill-opacity:1" d="M21.15 -7.05Q22.55 -7.65 24.15 -7.7Q27.4 -4.25 23.4 -2.35L22 -2.65L21 -2.95L19.9 -3.7Q19 -4.25 18.9 -4.95Q18.9 -6.15 21.15 -7.05M28.85 -7.5L31.65 -6.8Q33.6 -5.8 33.55 -4.6L33.6 -4.5Q33.55 -3.9 32.9 -3.3L31.6 -2.85L29.85 -2.3Q26.5 -5.4 28.85 -7.5" />
<path style="fill:#FFF9EC;fill-opacity:1" d="M29.85 -2.3L27.95 -2.1L26.2 -1.95L24.65 -2.1L24.25 -2.1L23.4 -2.35Q27.4 -4.25 24.15 -7.7L26.5 -7.9L28.85 -7.5Q26.5 -5.4 29.85 -2.3" />
<path style="fill:none;stroke-width:0.7;stroke-linecap:round;stroke-linejoin:round;stroke-miterlimit:3;stroke:#000000;stroke-opacity:0.4" d="M23.4 -2.35L22 -2.65L21 -2.95L19.9 -3.7Q19 -4.25 18.9 -4.95L18.75 -2.15L19.35 -0.95Q19.9 -0.15 20.5 -0.15L21.7 0.45L22.15 0.55L24.1 1.15L24.5 1.15L26.05 1.15L27.95 1.2L31.65 0.3Q33.6 -0.5 33.6 -1.65L33.6 -4.5Q33.55 -3.9 32.9 -3.3L31.6 -2.85L29.85 -2.3L27.95 -2.1L26.2 -1.95L24.65 -2.1L24.25 -2.1L23.4 -2.35z" />
<path style="fill:none;stroke-width:0.7;stroke-linecap:round;stroke-linejoin:round;stroke-miterlimit:3;stroke:#000000;stroke-opacity:0.4" d="M24.15 -7.7Q22.55 -7.65 21.15 -7.05Q18.9 -6.15 18.9 -4.95" />
<path style="fill:none;stroke-width:0.7;stroke-linecap:round;stroke-linejoin:round;stroke-miterlimit:3;stroke:#000000;stroke-opacity:0.4" d="M24.15 -7.7L26.5 -7.9L28.85 -7.5L31.65 -6.8Q33.6 -5.8 33.55 -4.6L33.6 -4.5" />
</g>
<g id="PathID_2226" transform="matrix(1, 0, 0, 1, 37.9, 47.75)">
<linearGradient
id="LinearGradID_1176" gradientUnits="userSpaceOnUse" gradientTransform="matrix(0.00549316, 0.00335693, -0.00187683, 0.00318909, 22.2, -8.75)" spreadMethod ="pad" x1="-819.2" y1="0" x2="819.2" y2="0" >
<stop  offset="0" style="stop-color:#AE7315;stop-opacity:1" />
<stop  offset="0.172549" style="stop-color:#D2983B;stop-opacity:1" />
<stop  offset="0.290196" style="stop-color:#FFD085;stop-opacity:1" />
<stop  offset="0.427451" style="stop-color:#D2983B;stop-opacity:1" />
<stop  offset="0.564706" style="stop-color:#AE7315;stop-opacity:1" />
</linearGradient>
<path style="fill:url(#LinearGradID_1176) " d="M22.95 -9.45L23.4 -9.25L24.8 -8.6L26.4 -8.25L28.3 -7.85L30.1 -7.75L31.45 -7.75Q32.3 -8.1 32.55 -8.6L31.65 -6Q31.3 -4.85 29.15 -4.75L25.35 -5.2L23.65 -5.8L22.15 -6.25L21.8 -6.45L20.05 -7.55L19.75 -7.85L18.75 -8.75Q18.2 -8.95 18 -9.95L17.8 -11.25L18.85 -13.8Q18.7 -13.15 19.25 -12.3L20.15 -11.25L21 -10.7L22.25 -9.95L22.95 -9.45" />
<path style="fill:#FFDC35;fill-opacity:1" d="M21.55 -15.15L24.65 -14.7Q26.6 -10.45 22.25 -9.95L21 -10.7L20.15 -11.25L19.25 -12.3Q18.7 -13.15 18.85 -13.8Q19.2 -15 21.55 -15.15M29.05 -13.05L31.45 -11.5Q32.9 -9.95 32.5 -8.8L32.55 -8.6Q32.3 -8.1 31.45 -7.75L30.1 -7.75L28.3 -7.85Q26.15 -11.75 29.05 -13.05" />
<path style="fill:#FFF9EC;fill-opacity:1" d="M28.3 -7.85L26.4 -8.25L24.8 -8.6L23.4 -9.25L22.95 -9.45L22.25 -9.95Q26.6 -10.45 24.65 -14.7L26.9 -14.2L29.05 -13.05Q26.15 -11.75 28.3 -7.85" />
<path style="fill:none;stroke-width:0.7;stroke-linecap:round;stroke-linejoin:round;stroke-miterlimit:3;stroke:#000000;stroke-opacity:0.4" d="M22.25 -9.95L21 -10.7L20.15 -11.25L19.25 -12.3Q18.7 -13.15 18.85 -13.8L17.8 -11.25L18 -9.95Q18.2 -8.95 18.75 -8.75L19.75 -7.85L20.05 -7.55L21.8 -6.45L22.15 -6.25L23.65 -5.8L25.35 -5.2L29.15 -4.75Q31.3 -4.85 31.65 -6L32.55 -8.6Q32.3 -8.1 31.45 -7.75L30.1 -7.75L28.3 -7.85L26.4 -8.25L24.8 -8.6L23.4 -9.25L22.95 -9.45L22.25 -9.95z" />
<path style="fill:none;stroke-width:0.7;stroke-linecap:round;stroke-linejoin:round;stroke-miterlimit:3;stroke:#000000;stroke-opacity:0.4" d="M24.65 -14.7L21.55 -15.15Q19.2 -15 18.85 -13.8" />
<path style="fill:none;stroke-width:0.7;stroke-linecap:round;stroke-linejoin:round;stroke-miterlimit:3;stroke:#000000;stroke-opacity:0.4" d="M24.65 -14.7L26.9 -14.2L29.05 -13.05L31.45 -11.5Q32.9 -9.95 32.5 -8.8L32.55 -8.6" />
</g>
<g id="PathID_2227" transform="matrix(1, 0, 0, 1, 37.9, 47.75)">
<path style="fill:#FFDC35;fill-opacity:1" d="M13 -10.9L12.05 -11.9L11.4 -12.75L10.85 -14Q10.5 -15 10.8 -15.6Q11.5 -16.6 13.85 -15.95Q15.25 -15.7 16.65 -14.8Q17.3 -10.15 13 -10.9M21.3 -6.15L19.95 -6.65L18.3 -7.15Q17.25 -11.55 20.4 -11.9L22.25 -9.8Q23.3 -7.9 22.6 -6.95L22.55 -6.8Q22.2 -6.35 21.3 -6.15" />
<linearGradient
id="LinearGradID_1177" gradientUnits="userSpaceOnUse" gradientTransform="matrix(0.00431824, 0.00474548, -0.00270081, 0.0025177, 12.65, -9.75)" spreadMethod ="pad" x1="-819.2" y1="0" x2="819.2" y2="0" >
<stop  offset="0" style="stop-color:#AE7315;stop-opacity:1" />
<stop  offset="0.172549" style="stop-color:#D2983B;stop-opacity:1" />
<stop  offset="0.290196" style="stop-color:#FFD085;stop-opacity:1" />
<stop  offset="0.427451" style="stop-color:#D2983B;stop-opacity:1" />
<stop  offset="0.564706" style="stop-color:#AE7315;stop-opacity:1" />
</linearGradient>
<path style="fill:url(#LinearGradID_1177) " d="M13.6 -10.15L13.95 -9.85L15.05 -8.9L16.55 -8.1L18.3 -7.15L19.95 -6.65L21.3 -6.15Q22.2 -6.35 22.55 -6.8L20.95 -4.5Q20.25 -3.45 18.2 -4Q15.8 -4.7 14.7 -5.4L13.15 -6.5L11.9 -7.35L11.6 -7.65L10.2 -9.15L10 -9.6L9.4 -10.65Q8.9 -11.05 8.9 -12.1L9.1 -13.4L10.8 -15.6Q10.5 -15 10.85 -14L11.4 -12.75L12.05 -11.9L13 -10.9L13.6 -10.15" />
<path style="fill:#FFF9EC;fill-opacity:1" d="M18.3 -7.15L16.55 -8.1L15.05 -8.9L13.95 -9.85L13.6 -10.15L13 -10.9Q17.3 -10.15 16.65 -14.8L18.65 -13.75L20.4 -11.9Q17.25 -11.55 18.3 -7.15" />
<path style="fill:none;stroke-width:0.7;stroke-linecap:round;stroke-linejoin:round;stroke-miterlimit:3;stroke:#000000;stroke-opacity:0.4" d="M10.8 -15.6Q11.5 -16.6 13.85 -15.95Q15.25 -15.7 16.65 -14.8L18.65 -13.75L20.4 -11.9L22.25 -9.8Q23.3 -7.9 22.6 -6.95L22.55 -6.8L20.95 -4.5Q20.25 -3.45 18.2 -4Q15.8 -4.7 14.7 -5.4L13.15 -6.5L11.9 -7.35L11.6 -7.65L10.2 -9.15L10 -9.6L9.4 -10.65Q8.9 -11.05 8.9 -12.1L9.1 -13.4L10.8 -15.6Q10.5 -15 10.85 -14L11.4 -12.75L12.05 -11.9L13 -10.9" />
<path style="fill:none;stroke-width:0.7;stroke-linecap:round;stroke-linejoin:round;stroke-miterlimit:3;stroke:#000000;stroke-opacity:0.4" d="M18.3 -7.15L16.55 -8.1L15.05 -8.9L13.95 -9.85L13.6 -10.15L13 -10.9" />
<path style="fill:none;stroke-width:0.7;stroke-linecap:round;stroke-linejoin:round;stroke-miterlimit:3;stroke:#000000;stroke-opacity:0.4" d="M18.3 -7.15L19.95 -6.65L21.3 -6.15Q22.2 -6.35 22.55 -6.8" />
</g>
<g id="PathID_2228" transform="matrix(1, 0, 0, 1, 37.9, 47.75)">
<path style="fill:#FFF9EC;fill-opacity:1" d="M13.65 -18.9L11.7 -19.05L10 -19.25L8.6 -19.75L8.2 -19.9L7.35 -20.4Q11.7 -21.2 9.3 -25.3L11.6 -25.1L13.85 -24.1Q11.05 -22.55 13.65 -18.9" />
<path style="fill:#FFDC35;fill-opacity:1" d="M16.8 -19.1L15.45 -19L13.65 -18.9Q11.05 -22.55 13.85 -24.1Q15.25 -23.55 16.4 -22.7Q18.05 -21.35 17.7 -20.25L17.7 -20.1L17.7 -20.05Q17.55 -19.55 16.8 -19.1M3.65 -23.8Q3.85 -25.1 6.2 -25.35L9.3 -25.3Q11.7 -21.2 7.35 -20.4L6 -20.95L5.15 -21.5L4.25 -22.4Q3.55 -23.2 3.65 -23.8" />
<linearGradient
id="LinearGradID_1178" gradientUnits="userSpaceOnUse" gradientTransform="matrix(0.00579834, 0.0027771, -0.0015564, 0.00335693, 7.55, -19.2)" spreadMethod ="pad" x1="-819.2" y1="0" x2="819.2" y2="0" >
<stop  offset="0" style="stop-color:#AE7315;stop-opacity:1" />
<stop  offset="0.172549" style="stop-color:#D2983B;stop-opacity:1" />
<stop  offset="0.290196" style="stop-color:#FFD085;stop-opacity:1" />
<stop  offset="0.427451" style="stop-color:#D2983B;stop-opacity:1" />
<stop  offset="0.564706" style="stop-color:#AE7315;stop-opacity:1" />
</linearGradient>
<path style="fill:url(#LinearGradID_1178) " d="M4.25 -22.4L5.15 -21.5L6 -20.95L7.35 -20.4L8.2 -19.9L8.6 -19.75L10 -19.25L11.7 -19.05L13.65 -18.9L15.45 -19L16.8 -19.1Q17.55 -19.55 17.7 -20.05L17.1 -17.35Q16.9 -16.2 14.85 -15.9Q12.4 -15.7 11 -15.9L9.15 -16.3L7.65 -16.65L7.3 -16.75L5.45 -17.7L5.1 -18L4.05 -18.75Q3.5 -19 3.15 -19.9L2.85 -21.15L3.65 -23.8Q3.55 -23.2 4.25 -22.4" />
<path style="fill:none;stroke-width:0.7;stroke-linecap:round;stroke-linejoin:round;stroke-miterlimit:3;stroke:#000000;stroke-opacity:0.4" d="M9.3 -25.3L11.6 -25.1L13.85 -24.1Q15.25 -23.55 16.4 -22.7Q18.05 -21.35 17.7 -20.25L17.7 -20.1L17.7 -20.05L17.1 -17.35Q16.9 -16.2 14.85 -15.9Q12.4 -15.7 11 -15.9L9.15 -16.3L7.65 -16.65L7.3 -16.75L5.45 -17.7L5.1 -18L4.05 -18.75Q3.5 -19 3.15 -19.9L2.85 -21.15L3.65 -23.8Q3.85 -25.1 6.2 -25.35L9.3 -25.3z" />
<path style="fill:none;stroke-width:0.7;stroke-linecap:round;stroke-linejoin:round;stroke-miterlimit:3;stroke:#000000;stroke-opacity:0.4" d="M7.35 -20.4L8.2 -19.9L8.6 -19.75L10 -19.25L11.7 -19.05L13.65 -18.9" />
<path style="fill:none;stroke-width:0.7;stroke-linecap:round;stroke-linejoin:round;stroke-miterlimit:3;stroke:#000000;stroke-opacity:0.4" d="M13.65 -18.9L15.45 -19L16.8 -19.1Q17.55 -19.55 17.7 -20.05" />
<path style="fill:none;stroke-width:0.7;stroke-linecap:round;stroke-linejoin:round;stroke-miterlimit:3;stroke:#000000;stroke-opacity:0.4" d="M7.35 -20.4L6 -20.95L5.15 -21.5L4.25 -22.4Q3.55 -23.2 3.65 -23.8" />
</g>
<g id="PathID_2229" transform="matrix(1, 0, 0, 1, 37.9, 47.75)">
<linearGradient
id="LinearGradID_1179" gradientUnits="userSpaceOnUse" gradientTransform="matrix(0.00584412, -0.00271606, 0.00158691, 0.00331116, -6.9, -28.3)" spreadMethod ="pad" x1="-819.2" y1="0" x2="819.2" y2="0" >
<stop  offset="0" style="stop-color:#AE7315;stop-opacity:1" />
<stop  offset="0.172549" style="stop-color:#D2983B;stop-opacity:1" />
<stop  offset="0.290196" style="stop-color:#FFD085;stop-opacity:1" />
<stop  offset="0.427451" style="stop-color:#D2983B;stop-opacity:1" />
<stop  offset="0.564706" style="stop-color:#AE7315;stop-opacity:1" />
</linearGradient>
<path style="fill:url(#LinearGradID_1179) " d="M-11.5 -27.8L-10.15 -27.95L-9.2 -28.3L-7.95 -29L-7 -29.3L-6.65 -29.5L-5.4 -30.35L-4.2 -31.45L-2.8 -32.8Q-2.2 -33.55 -1.75 -34.35L-1 -35.45Q-0.8 -36.35 -1.15 -36.85L0.55 -34.55Q1.3 -33.7 0.2 -31.85Q-1.05 -29.85 -2.2 -28.95L-3.65 -27.8L-4.9 -26.85L-5.25 -26.6L-7.1 -25.85L-7.5 -25.7L-8.75 -25.45Q-9.35 -25.1 -10.25 -25.45L-11.45 -25.9L-13.05 -28.3Q-12.5 -27.75 -11.5 -27.8" />
<path style="fill:#FFDC35;fill-opacity:1" d="M-6.75 -36.3Q-5.4 -37.05 -4.1 -37.4Q-1.95 -37.9 -1.25 -36.9Q-1.2 -36.8 -1.15 -36.85Q-0.8 -36.35 -1 -35.45L-1.75 -34.35Q-2.2 -33.55 -2.8 -32.8Q-7.3 -33.2 -6.75 -36.3M-7.95 -29L-9.2 -28.3L-10.15 -27.95L-11.5 -27.8Q-12.5 -27.75 -13.05 -28.3Q-13.8 -29.2 -12.5 -31.3Q-11.7 -32.6 -10.5 -33.65Q-5.9 -32.85 -7.95 -29" />
<path style="fill:#FFF9EC;fill-opacity:1" d="M-10.5 -33.65L-8.85 -35.25L-6.75 -36.3Q-7.3 -33.2 -2.8 -32.8L-4.2 -31.45L-5.4 -30.35L-6.65 -29.5L-7 -29.3L-7.95 -29Q-5.9 -32.85 -10.5 -33.65" />
<path style="fill:none;stroke-width:0.7;stroke-linecap:round;stroke-linejoin:round;stroke-miterlimit:3;stroke:#000000;stroke-opacity:0.4" d="M-13.05 -28.3L-11.45 -25.9L-10.25 -25.45Q-9.35 -25.1 -8.75 -25.45L-7.5 -25.7L-7.1 -25.85L-5.25 -26.6L-4.9 -26.85L-3.65 -27.8L-2.2 -28.95Q-1.05 -29.85 0.2 -31.85Q1.3 -33.7 0.55 -34.55L-1.15 -36.85Q-0.8 -36.35 -1 -35.45L-1.75 -34.35Q-2.2 -33.55 -2.8 -32.8L-4.2 -31.45L-5.4 -30.35L-6.65 -29.5L-7 -29.3L-7.95 -29L-9.2 -28.3L-10.15 -27.95L-11.5 -27.8Q-12.5 -27.75 -13.05 -28.3Q-13.8 -29.2 -12.5 -31.3Q-11.7 -32.6 -10.5 -33.65L-8.85 -35.25L-6.75 -36.3Q-5.4 -37.05 -4.1 -37.4Q-1.95 -37.9 -1.25 -36.9Q-1.2 -36.8 -1.15 -36.85" />
</g>
<g id="PathID_2230" transform="matrix(1, 0, 0, 1, 37.9, 47.75)">
<linearGradient
id="LinearGradID_1180" gradientUnits="userSpaceOnUse" gradientTransform="matrix(0.00637817, 0.000854492, -0.000442505, 0.00366211, 2.1, -15.95)" spreadMethod ="pad" x1="-819.2" y1="0" x2="819.2" y2="0" >
<stop  offset="0" style="stop-color:#AE7315;stop-opacity:1" />
<stop  offset="0.172549" style="stop-color:#D2983B;stop-opacity:1" />
<stop  offset="0.290196" style="stop-color:#FFD085;stop-opacity:1" />
<stop  offset="0.427451" style="stop-color:#D2983B;stop-opacity:1" />
<stop  offset="0.564706" style="stop-color:#AE7315;stop-opacity:1" />
</linearGradient>
<path style="fill:url(#LinearGradID_1180) " d="M-2.05 -18.05L-0.85 -17.45L0.15 -17.25L1.6 -17.1L2.45 -16.9L2.85 -16.9L4.4 -16.9L6.1 -17.15L8 -17.6L9.65 -18.3L10.9 -18.75Q11.55 -19.45 11.55 -20.05L11.75 -17.25Q11.9 -16.05 10 -15.15Q7.75 -14.15 6.35 -13.95L4.55 -13.8L3 -13.65L2.6 -13.65L0.55 -14L0.15 -14.15L-1.05 -14.55Q-1.7 -14.55 -2.3 -15.35L-3.05 -16.45L-3.1 -19.25Q-2.95 -18.55 -2.05 -18.05" />
<path style="fill:#FFDC35;fill-opacity:1" d="M1.6 -17.1L0.15 -17.25L-0.85 -17.45L-2.05 -18.05Q-2.95 -18.55 -3.1 -19.25Q-3.25 -20.45 -1.05 -21.5Q0.25 -22.2 1.9 -22.4Q5.4 -19.25 1.6 -17.1M6.55 -22.65L9.4 -22.15Q11.4 -21.35 11.5 -20.15L11.55 -20.05Q11.55 -19.45 10.9 -18.75L9.65 -18.3L8 -17.6Q4.4 -20.3 6.55 -22.65" />
<path style="fill:#FFF9EC;fill-opacity:1" d="M8 -17.6L6.1 -17.15L4.4 -16.9L2.85 -16.9L2.45 -16.9L1.6 -17.1Q5.4 -19.25 1.9 -22.4L4.1 -22.85L6.55 -22.65Q4.4 -20.3 8 -17.6" />
<path style="fill:none;stroke-width:0.7;stroke-linecap:round;stroke-linejoin:round;stroke-miterlimit:3;stroke:#000000;stroke-opacity:0.4" d="M11.55 -20.05L11.75 -17.25Q11.9 -16.05 10 -15.15Q7.75 -14.15 6.35 -13.95L4.55 -13.8L3 -13.65L2.6 -13.65L0.55 -14L0.15 -14.15L-1.05 -14.55Q-1.7 -14.55 -2.3 -15.35L-3.05 -16.45L-3.1 -19.25Q-3.25 -20.45 -1.05 -21.5Q0.25 -22.2 1.9 -22.4L4.1 -22.85L6.55 -22.65L9.4 -22.15Q11.4 -21.35 11.5 -20.15L11.55 -20.05Q11.55 -19.45 10.9 -18.75L9.65 -18.3L8 -17.6L6.1 -17.15L4.4 -16.9L2.85 -16.9L2.45 -16.9L1.6 -17.1L0.15 -17.25L-0.85 -17.45L-2.05 -18.05Q-2.95 -18.55 -3.1 -19.25" />
</g>
<g id="PathID_2231" transform="matrix(1, 0, 0, 1, 37.9, 47.75)">
<path style="fill:#FFDC35;fill-opacity:1" d="M-0.65 -14.3L-1.95 -14.55L-3.8 -15Q-5.2 -19.25 -2.05 -19.9Q-0.85 -19.1 -0.1 -18Q1.25 -16.2 0.6 -15.15L0.6 -15Q0.25 -14.55 -0.65 -14.3M-9.35 -18.05L-10.4 -19.1L-11.1 -19.8L-11.85 -21.1Q-12.2 -21.85 -12 -22.55Q-11.45 -23.7 -9.05 -23.35Q-7.5 -23.05 -6.05 -22.4Q-5 -17.85 -9.35 -18.05" />
<path style="fill:#FFF9EC;fill-opacity:1" d="M-6.05 -22.4L-4 -21.5L-2.05 -19.9Q-5.2 -19.25 -3.8 -15L-5.55 -15.6L-7.1 -16.4L-8.35 -17.25L-8.75 -17.5L-9.35 -18.05Q-5 -17.85 -6.05 -22.4" />
<linearGradient
id="LinearGradID_1181" gradientUnits="userSpaceOnUse" gradientTransform="matrix(0.00480652, 0.00427246, -0.00244141, 0.00276184, -9.55, -16.9)" spreadMethod ="pad" x1="-819.2" y1="0" x2="819.2" y2="0" >
<stop  offset="0" style="stop-color:#AE7315;stop-opacity:1" />
<stop  offset="0.172549" style="stop-color:#D2983B;stop-opacity:1" />
<stop  offset="0.290196" style="stop-color:#FFD085;stop-opacity:1" />
<stop  offset="0.427451" style="stop-color:#D2983B;stop-opacity:1" />
<stop  offset="0.564706" style="stop-color:#AE7315;stop-opacity:1" />
</linearGradient>
<path style="fill:url(#LinearGradID_1181) " d="M-11.85 -21.1L-11.1 -19.8L-10.4 -19.1L-9.35 -18.05L-8.75 -17.5L-8.35 -17.25L-7.1 -16.4L-5.55 -15.6L-3.8 -15L-1.95 -14.55L-0.65 -14.3Q0.25 -14.55 0.6 -15L-0.8 -12.55Q-1.4 -11.55 -3.5 -11.85Q-5.9 -12.3 -7.15 -12.95L-8.7 -13.75L-10.05 -14.5L-10.4 -14.8L-11.9 -16.25L-12.2 -16.45L-13 -17.6Q-13.4 -17.95 -13.55 -19L-13.45 -20.15L-12 -22.55Q-12.2 -21.85 -11.85 -21.1" />
<path style="fill:none;stroke-width:0.7;stroke-linecap:round;stroke-linejoin:round;stroke-miterlimit:3;stroke:#000000;stroke-opacity:0.4" d="M-2.05 -19.9Q-0.85 -19.1 -0.1 -18Q1.25 -16.2 0.6 -15.15L0.6 -15L-0.8 -12.55Q-1.4 -11.55 -3.5 -11.85Q-5.9 -12.3 -7.15 -12.95L-8.7 -13.75L-10.05 -14.5L-10.4 -14.8L-11.9 -16.25L-12.2 -16.45L-13 -17.6Q-13.4 -17.95 -13.55 -19L-13.45 -20.15L-12 -22.55Q-11.45 -23.7 -9.05 -23.35Q-7.5 -23.05 -6.05 -22.4L-4 -21.5L-2.05 -19.9z" />
<path style="fill:none;stroke-width:0.7;stroke-linecap:round;stroke-linejoin:round;stroke-miterlimit:3;stroke:#000000;stroke-opacity:0.4" d="M-3.8 -15L-1.95 -14.55L-0.65 -14.3Q0.25 -14.55 0.6 -15" />
<path style="fill:none;stroke-width:0.7;stroke-linecap:round;stroke-linejoin:round;stroke-miterlimit:3;stroke:#000000;stroke-opacity:0.4" d="M-3.8 -15L-5.55 -15.6L-7.1 -16.4L-8.35 -17.25L-8.75 -17.5L-9.35 -18.05L-10.4 -19.1L-11.1 -19.8L-11.85 -21.1Q-12.2 -21.85 -12 -22.55" />
</g>
<g id="PathID_2232" transform="matrix(1, 0, 0, 1, 37.9, 47.75)">
<path style="fill:#F2F2F2;fill-opacity:0.592157" d="M-17.35 -11.4Q-17.05 -10.75 -16.55 -10.6Q-16.1 -10.45 -15.45 -10.6Q-14.85 -10.75 -14.85 -11.25Q-14.65 -11.85 -14.85 -12.65Q-15 -12.95 -15.6 -13.1L-16.85 -13.3L-17.65 -12Q-17.65 -11.55 -17.35 -11.4M-18.75 -13.6Q-21.1 -16.75 -24.55 -19.4L-17.95 -14.55L-17.5 -15.15L-14.65 -15.3Q-13.4 -15 -12.65 -13.9Q-7.9 -14.7 -1.45 -17.35Q-7.6 -14.7 -12.15 -11.55L-12.15 -11.1Q-12.65 -10 -14.05 -9.2Q-15 -8.7 -16.4 -8.9L-17.5 -9.2L-21.25 -8.25L-18.75 -10.6Q-19.55 -11.55 -19.25 -12.95L-18.75 -13.6" />
<path style="fill:#F2F2F2;fill-opacity:0.941176" d="M-17.65 -12L-16.85 -13.3L-15.6 -13.1Q-15 -12.95 -14.85 -12.65Q-14.65 -11.85 -14.85 -11.25Q-14.85 -10.75 -15.45 -10.6Q-16.1 -10.45 -16.55 -10.6Q-17.05 -10.75 -17.35 -11.4Q-17.65 -11.55 -17.65 -12" />
</g>
<g id="PathID_2233" transform="matrix(1, 0, 0, 1, 37.9, 47.75)">
<linearGradient
id="LinearGradID_1182" gradientUnits="userSpaceOnUse" gradientTransform="matrix(0.00749207, 0.00335693, -0.00898743, 0.019928, 14.3, -31.75)" spreadMethod ="pad" x1="-819.2" y1="0" x2="819.2" y2="0" >
<stop  offset="0" style="stop-color:#75A840;stop-opacity:1" />
<stop  offset="1" style="stop-color:#4A731F;stop-opacity:1" />
</linearGradient>
<path style="fill:url(#LinearGradID_1182) " d="M24.7 -17.85Q18.15 -19.6 8.7 -23.45Q-0.8 -27.4 -4.7 -34.25L-5 -34.9Q-5.6 -36.65 -5.6 -37.7Q-1.35 -37.4 6.8 -32.1Q8.45 -40.7 12.95 -47.7L13 -47.7Q33.4 -41.1 22.25 -20.1L32 -17.35L32.45 -17.15Q31.4 -16.2 24.7 -17.85" />
<path style="fill:#192E0F;fill-opacity:1" d="M13 -47.7Q29.35 -46.25 34.75 -32.85L22.25 -20.1Q33.4 -41.1 13 -47.7M32.45 -17.15L32.9 -16.95Q34.55 -16.05 34.65 -14.45L34.65 -13.75Q34.45 -11.35 30 -11.9Q28.1 -12.1 21.7 -16.25L15.7 -20.3Q-0.55 -25.85 -4.7 -34.25Q-0.8 -27.4 8.7 -23.45Q18.15 -19.6 24.7 -17.85Q31.4 -16.2 32.45 -17.15M-5.6 -37.7Q-5.7 -39.5 -4.3 -39.95Q-1.95 -40.4 0.7 -37.95L6.8 -32.1Q-1.35 -37.4 -5.6 -37.7" />
<path style="fill:none;stroke-width:0.7;stroke-linecap:round;stroke-linejoin:round;stroke-miterlimit:3;stroke:#000000;stroke-opacity:0.4" d="M6.8 -32.1Q8.45 -40.7 12.95 -47.7L13 -47.7Q29.35 -46.25 34.75 -32.85L22.25 -20.1L32 -17.35L32.45 -17.15" />
<path style="fill:none;stroke-width:0.7;stroke-linecap:round;stroke-linejoin:round;stroke-miterlimit:3;stroke:#000000;stroke-opacity:0.301961" d="M32.45 -17.15L32.9 -16.95" />
<path style="fill:none;stroke-width:0.7;stroke-linecap:round;stroke-linejoin:round;stroke-miterlimit:3;stroke:#000000;stroke-opacity:0.4" d="M32.9 -16.95Q34.55 -16.05 34.65 -14.45L34.65 -13.75Q34.45 -11.35 30 -11.9Q28.1 -12.1 21.7 -16.25L15.7 -20.3Q-0.55 -25.85 -4.7 -34.25L-5 -34.9Q-5.6 -36.65 -5.6 -37.7Q-5.7 -39.5 -4.3 -39.95Q-1.95 -40.4 0.7 -37.95L6.8 -32.1" />
</g>
<g id="PathID_2234" transform="matrix(1, 0, 0, 1, 37.9, 47.75)">
<path style="fill:#577722;fill-opacity:1" d="M21.1 -23.55L20.3 -24.3Q24.6 -28.95 31.1 -31.1Q25.3 -27.9 21.1 -23.55" />
<path style="fill:none;stroke-width:0.7;stroke-linecap:round;stroke-linejoin:round;stroke-miterlimit:3;stroke:#000000;stroke-opacity:0.4" d="M21.1 -23.55L20.3 -24.3Q24.6 -28.95 31.1 -31.1Q25.3 -27.9 21.1 -23.55z" />
</g>
<g id="PathID_2235" transform="matrix(1, 0, 0, 1, 37.9, 47.75)">
<path style="fill:#94D95A;fill-opacity:1" d="M32.55 -27.9Q31.75 -26.2 30.25 -26.4L30.75 -28.35L33.35 -29.65L34.1 -29.3L35 -28L32.55 -27.9" />
<path style="fill:#577722;fill-opacity:1" d="M33.35 -29.65L30.75 -28.35Q31.1 -29.4 31.75 -30.05L33.35 -29.65" />
<path style="fill:#5D9127;fill-opacity:1" d="M30.25 -26.4Q31.75 -26.2 32.55 -27.9L35 -28Q35.35 -27.45 34.8 -26.75Q34.45 -26.15 33.05 -26.75L32.8 -26.05L32.1 -25.35Q30.7 -24.95 30.25 -26.4" />
<path style="fill:none;stroke-width:0.7;stroke-linecap:round;stroke-linejoin:round;stroke-miterlimit:3;stroke:#000000;stroke-opacity:0.4" d="M35 -28L34.1 -29.3L33.35 -29.65" />
<path style="fill:none;stroke-width:0.7;stroke-linecap:round;stroke-linejoin:round;stroke-miterlimit:3;stroke:#000000;stroke-opacity:0.4" d="M30.75 -28.35L30.25 -26.4" />
<path style="fill:none;stroke-width:0.7;stroke-linecap:round;stroke-linejoin:round;stroke-miterlimit:3;stroke:#000000;stroke-opacity:0.4" d="M35 -28Q35.35 -27.45 34.8 -26.75Q34.45 -26.15 33.05 -26.75L32.8 -26.05L32.1 -25.35Q30.7 -24.95 30.25 -26.4" />
<path style="fill:none;stroke-width:0.7;stroke-linecap:round;stroke-linejoin:round;stroke-miterlimit:3;stroke:#000000;stroke-opacity:0.4" d="M30.75 -28.35Q31.1 -29.4 31.75 -30.05L33.35 -29.65" />
</g>
<g id="PathID_2236" transform="matrix(1, 0, 0, 1, 37.9, 47.75)">
<path style="fill:#5D9127;fill-opacity:1" d="M37.15 -31.15Q36.7 -32.3 35.5 -32.65Q36.65 -34.95 34.95 -35.85L37.55 -35.75Q38.4 -35.15 37 -33L38.1 -32.3Q38.8 -31.95 38.9 -31.15Q38.9 -30.35 38.2 -29.55Q37.55 -28.85 37 -28.7Q37.7 -30 37.15 -31.15" />
<path style="fill:#94D95A;fill-opacity:1" d="M35.6 -31.05Q35.25 -31.95 34.25 -32.1Q34.6 -32.95 34.25 -33.85L33.55 -34.7L34.95 -35.85Q36.65 -34.95 35.5 -32.65Q36.7 -32.3 37.15 -31.15Q37.7 -30 37 -28.7L34.95 -28.85Q35.95 -30.45 35.6 -31.05" />
<path style="fill:#577722;fill-opacity:1" d="M34.95 -28.85L33 -30.45L31.65 -31.65L33.55 -34.7L34.25 -33.85Q34.6 -32.95 34.25 -32.1Q35.25 -31.95 35.6 -31.05Q35.95 -30.45 34.95 -28.85" />
<path style="fill:none;stroke-width:0.7;stroke-linecap:round;stroke-linejoin:round;stroke-miterlimit:3;stroke:#000000;stroke-opacity:0.4" d="M37 -28.7Q37.55 -28.85 38.2 -29.55Q38.9 -30.35 38.9 -31.15Q38.8 -31.95 38.1 -32.3L37 -33Q38.4 -35.15 37.55 -35.75L34.95 -35.85" />
<path style="fill:none;stroke-width:0.7;stroke-linecap:round;stroke-linejoin:round;stroke-miterlimit:3;stroke:#000000;stroke-opacity:0.4" d="M37 -28.7L34.95 -28.85L33 -30.45L31.65 -31.65L33.55 -34.7L34.95 -35.85" />
</g>
<g id="PathID_2237" transform="matrix(1, 0, 0, 1, 37.9, 47.75)">
<path style="fill:#94D95A;fill-opacity:1" d="M30.4 -27.1L29.7 -25.85Q28.8 -25.8 28.25 -26.4Q27.45 -27.3 27.75 -28.95Q26.6 -29.5 25.4 -31.5L27.05 -31.85Q27.2 -30.8 29.05 -29.75Q28.7 -28.45 29.5 -27.65L30.4 -27.1" />
<path style="fill:#577722;fill-opacity:1" d="M29.5 -27.65Q28.7 -28.45 29.05 -29.75Q27.2 -30.8 27.05 -31.85L29.2 -31.5L30.6 -31.05Q31.45 -29.55 30.4 -27.1L29.5 -27.65" />
<path style="fill:#5D9127;fill-opacity:1" d="M29.7 -25.85Q29.35 -25 28.3 -24.8Q27.2 -24.4 26.25 -25.3Q25.75 -25.7 25.85 -26.75L26 -28.15Q24 -28.5 23.95 -29.55Q23.95 -31.15 25.4 -31.5Q26.6 -29.5 27.75 -28.95Q27.45 -27.3 28.25 -26.4Q28.8 -25.8 29.7 -25.85" />
<path style="fill:none;stroke-width:0.7;stroke-linecap:round;stroke-linejoin:round;stroke-miterlimit:3;stroke:#000000;stroke-opacity:0.4" d="M25.4 -31.5L27.05 -31.85L29.2 -31.5L30.6 -31.05Q31.45 -29.55 30.4 -27.1L29.7 -25.85Q29.35 -25 28.3 -24.8Q27.2 -24.4 26.25 -25.3Q25.75 -25.7 25.85 -26.75L26 -28.15Q24 -28.5 23.95 -29.55Q23.95 -31.15 25.4 -31.5z" />
</g>
<g id="PathID_2238" transform="matrix(1, 0, 0, 1, 37.9, 47.75)">
<path style="fill:#5D9127;fill-opacity:1" d="M23.25 -35.1Q23.4 -36 24.3 -36.65L25.9 -37.2L27.55 -36.8L27.55 -36.85Q28.1 -39.3 29.35 -39Q32.1 -39.1 32.15 -36.2Q29.5 -37.2 28.15 -35.4Q25.3 -35.95 24.6 -33.15Q23.3 -33.85 23.25 -35.1" />
<path style="fill:#577722;fill-opacity:1" d="M31.45 -31.8L31.25 -31.75L26.05 -32.3L26 -32.35Q26.75 -33.75 29.15 -33.7Q29.35 -34.35 30.25 -34.6L32.15 -34.7L31.45 -31.8" />
<path style="fill:#94D95A;fill-opacity:1" d="M24.6 -33.15Q25.3 -35.95 28.15 -35.4Q29.5 -37.2 32.15 -36.2L32.15 -36L32.15 -34.7L30.25 -34.6Q29.35 -34.35 29.15 -33.7Q26.75 -33.75 26 -32.35Q25.05 -32.7 24.6 -33.15" />
<path style="fill:none;stroke-width:0.7;stroke-linecap:round;stroke-linejoin:round;stroke-miterlimit:3;stroke:#000000;stroke-opacity:0.4" d="M32.15 -34.7L32.15 -36L32.15 -36.2" />
<path style="fill:none;stroke-width:0.7;stroke-linecap:round;stroke-linejoin:round;stroke-miterlimit:3;stroke:#000000;stroke-opacity:0.4" d="M24.6 -33.15Q25.05 -32.7 26 -32.35L26.05 -32.3L31.25 -31.75L31.45 -31.8L32.15 -34.7" />
<path style="fill:none;stroke-width:0.7;stroke-linecap:round;stroke-linejoin:round;stroke-miterlimit:3;stroke:#000000;stroke-opacity:0.4" d="M32.15 -36.2Q32.1 -39.1 29.35 -39Q28.1 -39.3 27.55 -36.85L27.55 -36.8L25.9 -37.2L24.3 -36.65Q23.4 -36 23.25 -35.1Q23.3 -33.85 24.6 -33.15" />
</g>
<g id="PathID_2239" transform="matrix(1, 0, 0, 1, 37.9, 47.75)">
<path style="fill:#101C0A;fill-opacity:1" d="M25.4 -23.05Q26.15 -22.4 25.15 -21.65L23.4 -19.9Q23.1 -19.25 22.25 -19.7Q13.7 -26.5 4.55 -30.1Q3.35 -30.45 3.9 -31.4L5.85 -34.55Q6.55 -35.65 7.85 -34.95Q18.5 -31.1 25.4 -23.05" />
<path style="fill:none;stroke-width:0.7;stroke-linecap:round;stroke-linejoin:round;stroke-miterlimit:3;stroke:#000000;stroke-opacity:0.4" d="M25.4 -23.05Q26.15 -22.4 25.15 -21.65L23.4 -19.9Q23.1 -19.25 22.25 -19.7Q13.7 -26.5 4.55 -30.1Q3.35 -30.45 3.9 -31.4L5.85 -34.55Q6.55 -35.65 7.85 -34.95Q18.5 -31.1 25.4 -23.05z" />
</g>
<g id="PathID_2240" transform="matrix(1, 0, 0, 1, 37.9, 47.75)">
<path style="fill:#855F00;fill-opacity:1" d="M17.15 -23.6Q19.7 -26.35 20.95 -29.9Q20.75 -26.2 18 -23.45L17.65 -23Q11.4 -23.9 7.5 -28.3L7.55 -28.85Q11.5 -25.1 17.15 -23.6M12.9 -31.8Q11.75 -30.8 10.8 -28.85L10.2 -29.5L12.4 -33Q15.9 -31.65 18.55 -29.55L18.05 -29.05L12.9 -31.8" />
<path style="fill:#FFD121;fill-opacity:1" d="M9.4 -28.8L9.15 -28.15Q11.25 -26.5 11.7 -26.95Q11.85 -27.1 11 -28.15L10.1 -28.7L9.4 -28.8M20.95 -29.9Q19.7 -26.35 17.15 -23.6Q11.5 -25.1 7.55 -28.85Q8.45 -32.3 11.2 -35.05Q17.25 -33.4 20.95 -29.9M15.9 -32.25Q15.45 -32.3 16.45 -31.5L18.4 -30.25Q19.45 -29.75 19.75 -30.05Q20.1 -30.25 19.55 -30.75Q19.05 -31.25 17.8 -31.75L15.9 -32.25M13.5 -25.85Q13.25 -26.2 13 -26.05Q12.9 -25.9 13.15 -25.55Q13.45 -25.3 13.5 -25.45Q13.8 -25.65 13.5 -25.85M16.6 -25.55Q18.4 -27.25 18.05 -29.05L18.55 -29.55Q15.9 -31.65 12.4 -33L10.2 -29.5L10.8 -28.85Q13.5 -26.55 16.6 -25.55" />
<path style="fill:#FFF5D2;fill-opacity:1" d="M10.1 -28.7L11 -28.15Q11.85 -27.1 11.7 -26.95Q11.25 -26.5 9.15 -28.15L9.4 -28.8L10.1 -28.7M17.8 -31.75Q19.05 -31.25 19.55 -30.75Q20.1 -30.25 19.75 -30.05Q19.45 -29.75 18.4 -30.25L16.45 -31.5Q15.45 -32.3 15.9 -32.25L17.8 -31.75M13.5 -25.45Q13.45 -25.3 13.15 -25.55Q12.9 -25.9 13 -26.05Q13.25 -26.2 13.5 -25.85Q13.8 -25.65 13.5 -25.45" />
<path style="fill:none;stroke-width:0.7;stroke-linecap:round;stroke-linejoin:round;stroke-miterlimit:3;stroke:#000000;stroke-opacity:0.4" d="M7.55 -28.85L7.5 -28.3Q11.4 -23.9 17.65 -23L18 -23.45Q20.75 -26.2 20.95 -29.9" />
<path style="fill:none;stroke-width:0.7;stroke-linecap:round;stroke-linejoin:round;stroke-miterlimit:3;stroke:#000000;stroke-opacity:0.4" d="M7.55 -28.85Q8.45 -32.3 11.2 -35.05Q17.25 -33.4 20.95 -29.9" />
<path style="fill:none;stroke-width:0.7;stroke-linecap:round;stroke-linejoin:round;stroke-miterlimit:3;stroke:#000000;stroke-opacity:0.4" d="M10.8 -28.85Q11.75 -30.8 12.9 -31.8L18.05 -29.05Q18.4 -27.25 16.6 -25.55Q13.5 -26.55 10.8 -28.85z" />
</g>
<g id="PathID_2241" transform="matrix(1, 0, 0, 1, 37.9, 47.75)">
<path style="fill:#FFF9EC;fill-opacity:1" d="M7.2 -25L5.4 -25.7L3.9 -26.5L2.65 -27.4L2.3 -27.6L1.75 -28.3Q6.1 -27.8 5.1 -32.45L7.15 -31.5L9.05 -29.9Q5.85 -29.3 7.2 -25" />
<linearGradient
id="LinearGradID_1183" gradientUnits="userSpaceOnUse" gradientTransform="matrix(0.00468445, 0.00440979, -0.00250244, 0.00270081, 1.55, -27.1)" spreadMethod ="pad" x1="-819.2" y1="0" x2="819.2" y2="0" >
<stop  offset="0" style="stop-color:#AE7315;stop-opacity:1" />
<stop  offset="0.172549" style="stop-color:#D2983B;stop-opacity:1" />
<stop  offset="0.290196" style="stop-color:#FFD085;stop-opacity:1" />
<stop  offset="0.427451" style="stop-color:#D2983B;stop-opacity:1" />
<stop  offset="0.564706" style="stop-color:#AE7315;stop-opacity:1" />
</linearGradient>
<path style="fill:url(#LinearGradID_1183) " d="M-0.65 -31.25L-0.1 -30L0.6 -29.3L1.75 -28.3L2.3 -27.6L2.65 -27.4L3.9 -26.5L5.4 -25.7L7.2 -25L8.95 -24.5L10.2 -24.25Q11.2 -24.45 11.55 -24.95L10 -22.5Q9.5 -21.45 7.4 -21.85Q4.95 -22.35 3.75 -23L2.25 -23.9L0.9 -24.65L0.55 -24.95L-1 -26.5L-1.2 -26.75L-1.9 -27.8Q-2.3 -28.15 -2.45 -29.15L-2.3 -30.45L-0.8 -32.85Q-1 -32.15 -0.65 -31.25" />
<path style="fill:#FFDC35;fill-opacity:1" d="M7.2 -25Q5.85 -29.3 9.05 -29.9L10.9 -27.9Q12.25 -26.05 11.55 -25.1L11.55 -24.95Q11.2 -24.45 10.2 -24.25L8.95 -24.5L7.2 -25M-0.8 -32.85Q-0.2 -33.85 2.1 -33.4Q3.65 -33.15 5.1 -32.45Q6.1 -27.8 1.75 -28.3L0.6 -29.3L-0.1 -30L-0.65 -31.25Q-1 -32.15 -0.8 -32.85" />
<path style="fill:none;stroke-width:0.7;stroke-linecap:round;stroke-linejoin:round;stroke-miterlimit:3;stroke:#000000;stroke-opacity:0.4" d="M5.1 -32.45L7.15 -31.5L9.05 -29.9L10.9 -27.9Q12.25 -26.05 11.55 -25.1L11.55 -24.95L10 -22.5Q9.5 -21.45 7.4 -21.85Q4.95 -22.35 3.75 -23L2.25 -23.9L0.9 -24.65L0.55 -24.95L-1 -26.5L-1.2 -26.75L-1.9 -27.8Q-2.3 -28.15 -2.45 -29.15L-2.3 -30.45L-0.8 -32.85Q-0.2 -33.85 2.1 -33.4Q3.65 -33.15 5.1 -32.45z" />
<path style="fill:none;stroke-width:0.7;stroke-linecap:round;stroke-linejoin:round;stroke-miterlimit:3;stroke:#000000;stroke-opacity:0.4" d="M1.75 -28.3L2.3 -27.6L2.65 -27.4L3.9 -26.5L5.4 -25.7L7.2 -25" />
<path style="fill:none;stroke-width:0.7;stroke-linecap:round;stroke-linejoin:round;stroke-miterlimit:3;stroke:#000000;stroke-opacity:0.4" d="M1.75 -28.3L0.6 -29.3L-0.1 -30L-0.65 -31.25Q-1 -32.15 -0.8 -32.85" />
<path style="fill:none;stroke-width:0.7;stroke-linecap:round;stroke-linejoin:round;stroke-miterlimit:3;stroke:#000000;stroke-opacity:0.4" d="M11.55 -24.95Q11.2 -24.45 10.2 -24.25L8.95 -24.5L7.2 -25" />
</g>
<g id="PathID_2242" transform="matrix(1, 0, 0, 1, 37.9, 47.75)">
<path style="fill:#FFF9EC;fill-opacity:1" d="M22.75 -15.7L20.85 -15.25L19.2 -15L17.65 -15L17.25 -15L16.4 -15.2Q20.15 -17.35 16.65 -20.5L18.9 -20.95L21.35 -20.75Q19.2 -18.4 22.75 -15.7" />
<linearGradient
id="LinearGradID_1184" gradientUnits="userSpaceOnUse" gradientTransform="matrix(0.00637817, 0.000854492, -0.000442505, 0.00366211, 16.9, -14.1)" spreadMethod ="pad" x1="-819.2" y1="0" x2="819.2" y2="0" >
<stop  offset="0" style="stop-color:#AE7315;stop-opacity:1" />
<stop  offset="0.172549" style="stop-color:#D2983B;stop-opacity:1" />
<stop  offset="0.290196" style="stop-color:#FFD085;stop-opacity:1" />
<stop  offset="0.427451" style="stop-color:#D2983B;stop-opacity:1" />
<stop  offset="0.564706" style="stop-color:#AE7315;stop-opacity:1" />
</linearGradient>
<path style="fill:url(#LinearGradID_1184) " d="M12.75 -16.2L13.95 -15.55L14.9 -15.35L16.4 -15.2L17.25 -15L17.65 -15L19.2 -15L20.85 -15.25L22.75 -15.7Q23.65 -15.95 24.45 -16.4L25.7 -16.9Q26.35 -17.6 26.35 -18.15L26.55 -15.35Q26.7 -14.15 24.8 -13.25Q22.55 -12.25 21.15 -12.05L19.35 -11.9L17.8 -11.75L17.35 -11.75L15.35 -12.1L14.9 -12.25L13.7 -12.65Q13.1 -12.65 12.45 -13.45L11.75 -14.55L11.7 -17.35Q11.85 -16.65 12.75 -16.2" />
<path style="fill:#FFDC35;fill-opacity:1" d="M22.75 -15.7Q19.2 -18.4 21.35 -20.75L24.15 -20.25Q26.2 -19.45 26.25 -18.3Q26.25 -18.15 26.35 -18.15Q26.35 -17.6 25.7 -16.9L24.45 -16.4Q23.65 -15.95 22.75 -15.7M11.7 -17.35Q11.55 -18.55 13.7 -19.6Q15.05 -20.3 16.65 -20.5Q20.15 -17.35 16.4 -15.2L14.9 -15.35L13.95 -15.55L12.75 -16.2Q11.85 -16.65 11.7 -17.35" />
<path style="fill:none;stroke-width:0.7;stroke-linecap:round;stroke-linejoin:round;stroke-miterlimit:3;stroke:#000000;stroke-opacity:0.4" d="M16.65 -20.5L18.9 -20.95L21.35 -20.75L24.15 -20.25Q26.2 -19.45 26.25 -18.3Q26.25 -18.15 26.35 -18.15L26.55 -15.35Q26.7 -14.15 24.8 -13.25Q22.55 -12.25 21.15 -12.05L19.35 -11.9L17.8 -11.75L17.35 -11.75L15.35 -12.1L14.9 -12.25L13.7 -12.65Q13.1 -12.65 12.45 -13.45L11.75 -14.55L11.7 -17.35Q11.55 -18.55 13.7 -19.6Q15.05 -20.3 16.65 -20.5z" />
<path style="fill:none;stroke-width:0.7;stroke-linecap:round;stroke-linejoin:round;stroke-miterlimit:3;stroke:#000000;stroke-opacity:0.4" d="M16.4 -15.2L17.25 -15L17.65 -15L19.2 -15L20.85 -15.25L22.75 -15.7" />
<path style="fill:none;stroke-width:0.7;stroke-linecap:round;stroke-linejoin:round;stroke-miterlimit:3;stroke:#000000;stroke-opacity:0.4" d="M16.4 -15.2L14.9 -15.35L13.95 -15.55L12.75 -16.2Q11.85 -16.65 11.7 -17.35" />
<path style="fill:none;stroke-width:0.7;stroke-linecap:round;stroke-linejoin:round;stroke-miterlimit:3;stroke:#000000;stroke-opacity:0.4" d="M26.35 -18.15Q26.35 -17.6 25.7 -16.9L24.45 -16.4Q23.65 -15.95 22.75 -15.7" />
</g>
<g id="PathID_2243" transform="matrix(1, 0, 0, 1, 37.9, 47.75)">
<path style="fill:#F2F2F2;fill-opacity:0.592157" d="M-5.65 -34.95Q-5.35 -34.3 -4.85 -34.15Q-4.4 -34 -3.75 -34.15Q-3.15 -34.3 -3.15 -34.8Q-2.95 -35.4 -3.15 -36.2Q-3.3 -36.5 -3.9 -36.65L-5.15 -36.85L-5.95 -35.55Q-5.95 -35.1 -5.65 -34.95M-7.05 -37.15Q-9.4 -40.3 -12.85 -42.95L-6.25 -38.1L-5.8 -38.7L-2.95 -38.85Q-1.7 -38.55 -0.95 -37.45Q3.8 -38.25 10.25 -40.9Q4.1 -38.25 -0.45 -35.1L-0.45 -34.65Q-0.95 -33.55 -2.35 -32.75Q-3.3 -32.25 -4.7 -32.45L-5.8 -32.75L-9.55 -31.8L-7.05 -34.15Q-7.85 -35.1 -7.55 -36.5L-7.05 -37.15" />
<path style="fill:#F2F2F2;fill-opacity:0.941176" d="M-5.95 -35.55L-5.15 -36.85L-3.9 -36.65Q-3.3 -36.5 -3.15 -36.2Q-2.95 -35.4 -3.15 -34.8Q-3.15 -34.3 -3.75 -34.15Q-4.4 -34 -4.85 -34.15Q-5.35 -34.3 -5.65 -34.95Q-5.95 -35.1 -5.95 -35.55" />
</g>
<g id="PathID_2244" transform="matrix(1, 0, 0, 1, 37.9, 47.75)">
<path style="fill:#F2F2F2;fill-opacity:0.592157" d="M22.25 -7.85Q22.55 -7.2 23.05 -7.05Q23.5 -6.9 24.15 -7.05Q24.75 -7.2 24.75 -7.7Q24.95 -8.3 24.75 -9.1Q24.6 -9.4 24 -9.55L22.75 -9.75L21.95 -8.45Q21.95 -8 22.25 -7.85M20.85 -10.05Q18.5 -13.2 15.05 -15.85L21.65 -11L22.1 -11.6L24.95 -11.75Q26.2 -11.45 26.95 -10.35Q31.7 -11.15 38.15 -13.8Q32 -11.15 27.45 -8L27.45 -7.55Q26.95 -6.45 25.55 -5.65Q24.6 -5.15 23.2 -5.35L22.1 -5.65L18.35 -4.7L20.85 -7.05Q20.05 -8 20.35 -9.4L20.85 -10.05" />
<path style="fill:#F2F2F2;fill-opacity:0.941176" d="M21.95 -8.45L22.75 -9.75L24 -9.55Q24.6 -9.4 24.75 -9.1Q24.95 -8.3 24.75 -7.7Q24.75 -7.2 24.15 -7.05Q23.5 -6.9 23.05 -7.05Q22.55 -7.2 22.25 -7.85Q21.95 -8 21.95 -8.45" />
</g>
</svg>
