<?xml version="1.0" encoding="utf-8"?>
<svg version="1.1" id="Layer_1"
xmlns="http://www.w3.org/2000/svg"
xmlns:xlink="http://www.w3.org/1999/xlink"
width="5px" height="19px"
xml:space="preserve">
<g id="PathID_1222" transform="matrix(1, 0, 0, 1, 0.15, 0.15)">
<path style="fill:#2A2119;fill-opacity:1" d="M3.3 2.8L3.3 0.05L4.55 0.2L4.55 2.8L3.3 2.8M3.3 5.4L4.55 5.4L4.55 17.85L0 17.85L0 13.95Q0.8 16.95 2.6 16Q3.35 15.05 3.3 13.8L3.3 5.4" />
<path style="fill:#8A6010;fill-opacity:1" d="M3.3 2.8L4.55 2.8L4.55 5.4L3.3 5.4L3.3 2.8" />
<path style="fill:#413529;fill-opacity:1" d="M3.3 13.8Q3.35 15.05 2.6 16Q0.8 16.95 0 13.95L0 5.4L3.3 5.4L3.3 13.8M0 2.8L0 0.2L3.3 0.05L3.3 2.8L0 2.8" />
<path style="fill:#A37B2E;fill-opacity:1" d="M3.3 5.4L0 5.4L0 2.8L3.3 2.8L3.3 5.4" />
<path style="fill:none;stroke-width:0.7;stroke-linecap:round;stroke-linejoin:round;stroke-miterlimit:3;stroke:#000000;stroke-opacity:0.301961" d="M3.3 0.05L4.55 0.2L4.55 2.8L4.55 5.4L4.55 17.85L0 17.85L0 13.95L0 5.4L0 2.8L0 0.2L3.3 0.05z" />
<path style="fill:none;stroke-width:0.7;stroke-linecap:round;stroke-linejoin:round;stroke-miterlimit:3;stroke:#000000;stroke-opacity:0.301961" d="M3.3 2.8L4.55 2.8" />
<path style="fill:none;stroke-width:0.7;stroke-linecap:round;stroke-linejoin:round;stroke-miterlimit:3;stroke:#000000;stroke-opacity:0.301961" d="M3.3 5.4L4.55 5.4" />
<path style="fill:none;stroke-width:0.7;stroke-linecap:round;stroke-linejoin:round;stroke-miterlimit:3;stroke:#000000;stroke-opacity:0.301961" d="M3.3 2.8L0 2.8" />
<path style="fill:none;stroke-width:0.7;stroke-linecap:round;stroke-linejoin:round;stroke-miterlimit:3;stroke:#000000;stroke-opacity:0.301961" d="M0 5.4L3.3 5.4" />
</g>
</svg>
