<?xml version="1.0" encoding="utf-8"?>
<svg version="1.1" id="Layer_1"
xmlns="http://www.w3.org/2000/svg"
xmlns:xlink="http://www.w3.org/1999/xlink"
width="56px" height="50px"
xml:space="preserve">
<g id="PathID_554" transform="matrix(1, 0, 0, 1, 27.6, 48.85)">
<path style="fill:#22201F;fill-opacity:1" d="M18.35 -9.15Q17.9 -10.8 16.7 -11.3L16.8 -11.4Q18.9 -13.15 19.95 -14.9Q21.05 -16.65 21.2 -17.8L22.2 -21.6Q24.7 -31.7 11.8 -39.65L13.6 -40L17.2 -40.8L18.25 -41.15L18.95 -41.45L21.7 -39L23 -37.55L23.35 -37.15L23.55 -36.95Q25.4 -34.45 26.45 -31.7Q27.4 -29.2 27.5 -26.45Q28.05 -17.6 20 -10.25L18.45 -8.9L18.35 -9.15M-14.4 -9.15Q-7.55 -4.9 1.15 -5.45Q9.85 -5.9 14.05 -9.6L14 -9.45Q13.8 -8.2 14.35 -6.25Q9.05 -3.5 2.4 -3L1.9 -0.8Q1.55 0.4 0.85 0.55Q0.15 0.6 -0.3 -0.6L-1.05 -3Q-8.9 -3.15 -14.9 -6.05Q-14.3 -7.9 -14.4 -9.15M16.65 -11.3L16.8 -11.4L16.7 -11.3L16.65 -11.3M-1.05 -3L-0.3 -3L2.4 -3L-0.3 -3L-1.05 -3" />
<path style="fill:#2A2725;fill-opacity:1" d="M17.55 -5.25Q17.85 -2.3 17.6 0.45L17.55 0.5L17.5 0.5L17.15 0.6Q16.45 0.6 15.95 -1.1L14.5 -5.85L14.4 -6.05L14.35 -6.25Q13.8 -8.2 14 -9.45L14.05 -9.6L14.3 -10.4L14.65 -10.9M-15 -10.85L-14.8 -10.4Q-14.45 -9.9 -14.4 -9.15Q-14.3 -7.9 -14.9 -6.05L-14.95 -5.85L-16.45 -1.1Q-16.95 0.6 -17.65 0.6Q-18.1 -2.95 -17.7 -6.05Q-17.2 -10.5 -15 -10.85M16.65 -11.3L16.6 -11.3L16.5 -11.4L16.2 -11.45Q15.3 -11.6 14.65 -10.9Q16.95 -10.2 17.55 -5.25L14.3 -10.4L14.05 -9.6Q9.85 -5.9 1.15 -5.45Q-7.55 -4.9 -14.4 -9.15Q-14.45 -9.9 -14.8 -10.4L-15 -10.85Q-15.8 -11.75 -17 -11.4L-18.15 -10.6Q-21.1 -11.8 -24.1 -13.45Q-25.8 -15.7 -26.55 -18.25Q-11.85 -7.95 1.5 -13.3Q14.8 -18.6 15 -26.4Q15.25 -34.2 8.65 -39.15L11.05 -39.5L11.2 -39.55L11.8 -39.65Q24.7 -31.7 22.2 -21.6L21.2 -17.8Q21.05 -16.65 19.95 -14.9Q18.9 -13.15 16.8 -11.4L16.65 -11.3" />
<radialGradient
id="RadialGradID_226" gradientUnits="userSpaceOnUse" gradientTransform="matrix(0.0622864, 0, 0, 0.0622864, -22.8, -63.55)" spreadMethod ="pad" cx="0" cy="0" r="819.2" fx="0" fy="0" >
<stop  offset="0.129412"  style="stop-color:#4D4846;stop-opacity:1" />
<stop  offset="1"  style="stop-color:#332E2B;stop-opacity:1" />
</radialGradient>
<path style="fill:url(#RadialGradID_226) " d="M-24.95 -34.05Q-22.95 -38.1 -19.25 -41.3L-19.15 -41.35L-18.5 -41.15L-17.3 -40.65L-14.05 -39.85L-6.6 -38.8Q-0.25 -38.15 5.85 -38.8L7.3 -39L7.8 -39.05L8.1 -39.1L8.65 -39.15Q15.25 -34.2 15 -26.4Q14.8 -18.6 1.5 -13.3Q-11.85 -7.95 -26.55 -18.25Q-27.65 -21.55 -27.4 -25.4Q-27.05 -29.15 -25.75 -32.4L-25.05 -33.85L-24.95 -34.05M-19 -37.65L-20.8 -35.3Q-21 -34.4 -20.05 -33.85Q-19.05 -33.35 -18.4 -33.55Q-17.8 -33.8 -17.95 -34.4L-17.65 -35.5Q-16.75 -39.2 -17.1 -39.2L-19 -37.65M-23.7 -29.8Q-25 -26.3 -24.2 -22.85Q-23.5 -19.35 -21.65 -17.15Q-19.85 -15.05 -21 -19.7Q-22.25 -24.4 -20.5 -27.75L-19.4 -30.25Q-19.05 -31.1 -20.75 -32.2Q-22.4 -33.25 -23.7 -29.8" />
<path style="fill:#332E2B;fill-opacity:1" d="M17.55 -5.25Q16.95 -10.2 14.65 -10.9Q15.3 -11.6 16.2 -11.45L16.5 -11.4L16.6 -11.3L16.65 -11.3L16.7 -11.3Q17.9 -10.8 18.35 -9.15L18.45 -8.9L18.55 -8.55L18.85 -5.15Q18.85 -2.8 18.35 -1.1Q18.05 0.05 17.6 0.45Q17.85 -2.3 17.55 -5.25M-18.15 -10.6L-17 -11.4Q-15.8 -11.75 -15 -10.85Q-17.2 -10.5 -17.7 -6.05Q-18.1 -2.95 -17.65 0.6Q-18.4 0.6 -18.9 -1.1Q-19.4 -2.8 -19.4 -5.15L-19.1 -8.55L-18.9 -9.15L-18.15 -10.6" />
<path style="fill:#484644;fill-opacity:1" d="M-17.1 -39.2Q-16.75 -39.2 -17.65 -35.5L-17.95 -34.4Q-17.8 -33.8 -18.4 -33.55Q-19.05 -33.35 -20.05 -33.85Q-21 -34.4 -20.8 -35.3L-19 -37.65L-17.1 -39.2M-20.75 -32.2Q-19.05 -31.1 -19.4 -30.25L-20.5 -27.75Q-22.25 -24.4 -21 -19.7Q-19.85 -15.05 -21.65 -17.15Q-23.5 -19.35 -24.2 -22.85Q-25 -26.3 -23.7 -29.8Q-22.4 -33.25 -20.75 -32.2" />
<path style="fill:#1C1815;fill-opacity:1" d="M-18.9 -9.15L-19.1 -8.55L-20.35 -9.55Q-22.6 -11.35 -24.1 -13.45Q-21.1 -11.8 -18.15 -10.6L-18.9 -9.15" />
<path style="fill:none;stroke-width:0.7;stroke-linecap:round;stroke-linejoin:round;stroke-miterlimit:3;stroke:#000000;stroke-opacity:0.4" d="M18.95 -41.45L21.7 -39L23 -37.55L23.35 -37.15L23.55 -36.95Q25.4 -34.45 26.45 -31.7Q27.4 -29.2 27.5 -26.45Q28.05 -17.6 20 -10.25L18.45 -8.9L18.55 -8.55L18.85 -5.15Q18.85 -2.8 18.35 -1.1Q18.05 0.05 17.6 0.45L17.55 0.5L17.5 0.5L17.15 0.6Q16.45 0.6 15.95 -1.1L14.5 -5.85L14.4 -6.05L14.35 -6.25Q9.05 -3.5 2.4 -3L1.9 -0.8Q1.55 0.4 0.85 0.55Q0.15 0.6 -0.3 -0.6L-1.05 -3Q-8.9 -3.15 -14.9 -6.05L-14.95 -5.85L-16.45 -1.1Q-16.95 0.6 -17.65 0.6Q-18.4 0.6 -18.9 -1.1Q-19.4 -2.8 -19.4 -5.15L-19.1 -8.55L-20.35 -9.55Q-22.6 -11.35 -24.1 -13.45L-24.95 -13.55" />
<path style="fill:none;stroke-width:0.7;stroke-linecap:round;stroke-linejoin:round;stroke-miterlimit:3;stroke:#000000;stroke-opacity:0.4" d="M16.8 -11.4L16.7 -11.3Q17.9 -10.8 18.35 -9.15L18.45 -8.9" />
<path style="fill:none;stroke-width:0.7;stroke-linecap:round;stroke-linejoin:round;stroke-miterlimit:3;stroke:#000000;stroke-opacity:0.4" d="M-26.55 -18.25Q-25.8 -15.7 -24.1 -13.45" />
<path style="fill:none;stroke-width:0.7;stroke-linecap:round;stroke-linejoin:round;stroke-miterlimit:3;stroke:#000000;stroke-opacity:0.4" d="M-18.15 -10.6L-17 -11.4Q-15.8 -11.75 -15 -10.85L-14.8 -10.4Q-14.45 -9.9 -14.4 -9.15" />
<path style="fill:none;stroke-width:0.7;stroke-linecap:round;stroke-linejoin:round;stroke-miterlimit:3;stroke:#000000;stroke-opacity:0.4" d="M14.05 -9.6L14.3 -10.4L14.65 -10.9Q15.3 -11.6 16.2 -11.45L16.5 -11.4L16.6 -11.3L16.65 -11.3" />
<path style="fill:none;stroke-width:0.7;stroke-linecap:round;stroke-linejoin:round;stroke-miterlimit:3;stroke:#000000;stroke-opacity:0.4" d="M16.7 -11.3L16.65 -11.3" />
<path style="fill:none;stroke-width:0.7;stroke-linecap:round;stroke-linejoin:round;stroke-miterlimit:3;stroke:#000000;stroke-opacity:0.4" d="M14.05 -9.6L14 -9.45Q13.8 -8.2 14.35 -6.25" />
<path style="fill:none;stroke-width:0.7;stroke-linecap:round;stroke-linejoin:round;stroke-miterlimit:3;stroke:#000000;stroke-opacity:0.4" d="M-24.95 -34.05Q-22.95 -38.1 -19.25 -41.3L-19.15 -41.35" />
<path style="fill:none;stroke-width:0.7;stroke-linecap:round;stroke-linejoin:round;stroke-miterlimit:3;stroke:#000000;stroke-opacity:0.4" d="M-26.55 -18.25Q-27.65 -21.55 -27.4 -25.4Q-27.05 -29.15 -25.75 -32.4L-25.05 -33.85L-25 -34L-24.95 -34.05L-25.05 -33.85" />
<path style="fill:none;stroke-width:0.7;stroke-linecap:round;stroke-linejoin:round;stroke-miterlimit:3;stroke:#000000;stroke-opacity:0.4" d="M-19.1 -8.55L-18.9 -9.15L-18.15 -10.6" />
<path style="fill:none;stroke-width:0.7;stroke-linecap:round;stroke-linejoin:round;stroke-miterlimit:3;stroke:#000000;stroke-opacity:0.4" d="M-14.4 -9.15Q-14.3 -7.9 -14.9 -6.05" />
<path style="fill:none;stroke-width:0.7;stroke-linecap:round;stroke-linejoin:round;stroke-miterlimit:3;stroke:#000000;stroke-opacity:0.4" d="M2.4 -3L-0.3 -3L-1.05 -3" />
</g>
<g id="PathID_555" transform="matrix(1, 0, 0, 1, 27.6, 48.85)">
<path style="fill:#000000;fill-opacity:0.301961" d="M26.1 -29.25Q25.8 -27.2 23.9 -24.05Q21.95 -20.95 19.6 -19.7Q17.2 -18.5 12.3 -18.5Q1.25 -18.5 -8.55 -24.4Q-18.4 -30.3 -21.9 -38.25Q-18.95 -37.25 -18.25 -37.35Q-17.9 -35 -15.9 -33.1Q-2.5 -20.25 15.45 -22.15Q22.65 -23.05 23.8 -29.35Q24.9 -35.7 25.65 -33.5Q26.4 -31.3 26.1 -29.25" />
</g>
<g id="PathID_556" transform="matrix(1, 0, 0, 1, 27.6, 48.85)">
<path style="fill:#22201F;fill-opacity:1" d="M23.9 -32.25Q24.05 -34.95 22.5 -38.3Q23.85 -38.65 24.65 -37.6Q28 -30.7 23.2 -24.4Q23.7 -25.25 23.7 -25.95Q23.7 -27.25 22.85 -27.6Q23.75 -29.9 23.9 -32.25" />
<path style="fill:#2A2725;fill-opacity:1" d="M19.15 -21.65L14.4 -20.8Q15.4 -21.7 15.4 -22.8L15.3 -23.35L16.75 -23.55Q21.5 -24.45 22.6 -27L22.85 -27.6Q23.7 -27.25 23.7 -25.95Q23.7 -25.25 23.2 -24.4Q21.65 -22.4 19.15 -21.65" />
<path style="fill:#332E2B;fill-opacity:1" d="M15.3 -23.35L15.4 -22.8Q15.4 -21.7 14.4 -20.8L7.15 -21Q2.8 -21.6 -1.5 -22.85Q-7.4 -24.5 -12.3 -28.1Q-16.95 -31.45 -20.15 -36L-20.6 -37.1Q-19.2 -38.4 -17.75 -36.35Q-15.35 -32.85 -12 -30.4Q-7.95 -27.45 -3.05 -25.95Q1.8 -24.45 6.75 -23.6L15.3 -23.35" />
<path style="fill:none;stroke-width:0.7;stroke-linecap:round;stroke-linejoin:round;stroke-miterlimit:3;stroke:#000000;stroke-opacity:0.4" d="M23.2 -24.4Q28 -30.7 24.65 -37.6Q23.85 -38.65 22.5 -38.3Q24.05 -34.95 23.9 -32.25Q23.75 -29.9 22.85 -27.6L22.6 -27Q21.5 -24.45 16.75 -23.55L15.3 -23.35" />
<path style="fill:none;stroke-width:0.7;stroke-linecap:round;stroke-linejoin:round;stroke-miterlimit:3;stroke:#000000;stroke-opacity:0.4" d="M14.4 -20.8L19.15 -21.65Q21.65 -22.4 23.2 -24.4" />
<path style="fill:none;stroke-width:0.7;stroke-linecap:round;stroke-linejoin:round;stroke-miterlimit:3;stroke:#000000;stroke-opacity:0.4" d="M14.4 -20.8L7.15 -21Q2.8 -21.6 -1.5 -22.85Q-7.4 -24.5 -12.3 -28.1Q-16.95 -31.45 -20.15 -36L-20.6 -37.1Q-19.2 -38.4 -17.75 -36.35Q-15.35 -32.85 -12 -30.4Q-7.95 -27.45 -3.05 -25.95Q1.8 -24.45 6.75 -23.6L15.3 -23.35" />
</g>
<g id="PathID_557" transform="matrix(1, 0, 0, 1, 27.6, 48.85)">
<path style="fill:#332E2B;fill-opacity:1" d="M-16.5 -38.9Q-18.4 -36.75 -20.05 -36.75L-20.25 -36.75Q-21.4 -37.05 -22.05 -37.9Q-22.65 -38.7 -22.65 -39.35Q-22.65 -40.75 -21.65 -41.55Q-21.15 -41.95 -20.7 -41.8L-21.05 -41.3L-21.5 -39.7L-21.25 -38.95L-20.8 -38.55L-20.7 -38.55L-20.45 -38.4L-19.8 -38.3Q-18.25 -38.3 -17.6 -39.15L-16.6 -40L-15.8 -39.75L-16.5 -38.9" />
<path style="fill:#171514;fill-opacity:1" d="M-15.8 -39.75L-15.05 -39.35Q-15.6 -38.4 -16.7 -37.55Q-17.95 -36.6 -18.95 -36.6L-20.25 -36.75L-20.05 -36.75Q-18.4 -36.75 -16.5 -38.9L-15.8 -39.75M-20.7 -41.8L-19.95 -40.95L-20.9 -39.45L-20.85 -38.75L-20.7 -38.55L-20.8 -38.55L-21.25 -38.95L-21.5 -39.7L-21.05 -41.3L-20.7 -41.8" />
<path style="fill:none;stroke-width:0.7;stroke-linecap:round;stroke-linejoin:round;stroke-miterlimit:3;stroke:#000000;stroke-opacity:0.4" d="M-20.45 -38.4L-19.8 -38.3Q-18.25 -38.3 -17.6 -39.15L-16.6 -40L-15.8 -39.75L-15.05 -39.35Q-15.6 -38.4 -16.7 -37.55Q-17.95 -36.6 -18.95 -36.6L-20.25 -36.75Q-21.4 -37.05 -22.05 -37.9Q-22.65 -38.7 -22.65 -39.35Q-22.65 -40.75 -21.65 -41.55Q-21.15 -41.95 -20.7 -41.8L-19.95 -40.95L-20.9 -39.45L-20.85 -38.75L-20.7 -38.55" />
</g>
<g id="PathID_558" transform="matrix(1, 0, 0, 1, 27.6, 48.85)">
<path style="fill:#332E2B;fill-opacity:1" d="M-20.7 -43.85L-20.65 -43.85L-17.05 -43.2L-11.4 -42.5Q-8.9 -42.3 0.55 -42.25L15.8 -42.7L16.45 -42.75L20.8 -43.55Q23.7 -44.25 24.7 -45Q24.4 -44.05 22.6 -42.4Q20.8 -40.75 16.6 -39.55Q12.4 -38.35 5.75 -38.3Q-1 -38.25 -5.6 -38.45L-13.3 -38.95Q-16.4 -39.25 -19.1 -40.55Q-21.85 -41.9 -22.4 -42.8Q-23 -43.75 -23.3 -45.45Q-23.05 -44.8 -20.7 -43.85" />
<path style="fill:#231F1D;fill-opacity:1" d="M-4.55 -45.95Q-17.05 -45.4 -20.65 -43.85L-20.7 -43.85Q-23.05 -44.8 -23.3 -45.45L-23.3 -45.6L-22.75 -46.15Q-22.2 -46.7 -15.45 -47.75L1.4 -48.7L17.95 -47.45Q24.3 -46.25 24.7 -45Q23.7 -44.25 20.8 -43.55Q7.9 -46.55 -4.55 -45.95" />
<path style="fill:#171514;fill-opacity:1" d="M20.8 -43.55L16.45 -42.75L15.8 -42.7L0.55 -42.25Q-8.9 -42.3 -11.4 -42.5L-17.05 -43.2L-20.65 -43.85Q-17.05 -45.4 -4.55 -45.95Q7.9 -46.55 20.8 -43.55" />
<path style="fill:none;stroke-width:0.7;stroke-linecap:round;stroke-linejoin:round;stroke-miterlimit:3;stroke:#000000;stroke-opacity:0.4" d="M24.7 -45Q24.4 -44.05 22.6 -42.4Q20.8 -40.75 16.6 -39.55Q12.4 -38.35 5.75 -38.3Q-1 -38.25 -5.6 -38.45L-13.3 -38.95Q-16.4 -39.25 -19.1 -40.55Q-21.85 -41.9 -22.4 -42.8Q-23 -43.75 -23.3 -45.45L-23.3 -45.6L-22.75 -46.15Q-22.2 -46.7 -15.45 -47.75L1.4 -48.7L17.95 -47.45Q24.3 -46.25 24.7 -45Q23.7 -44.25 20.8 -43.55L16.45 -42.75L15.8 -42.7L0.55 -42.25Q-8.9 -42.3 -11.4 -42.5L-17.05 -43.2L-20.65 -43.85L-20.7 -43.85Q-23.05 -44.8 -23.3 -45.45" />
<path style="fill:none;stroke-width:0.7;stroke-linecap:round;stroke-linejoin:round;stroke-miterlimit:3;stroke:#000000;stroke-opacity:0.4" d="M-20.65 -43.85Q-17.05 -45.4 -4.55 -45.95Q7.9 -46.55 20.8 -43.55" />
</g>
</svg>
