<?xml version="1.0" encoding="utf-8"?>
<svg version="1.1" id="Layer_1"
xmlns="http://www.w3.org/2000/svg"
xmlns:xlink="http://www.w3.org/1999/xlink"
width="185px" height="131px"
xml:space="preserve">
<g id="PathID_1576" transform="matrix(1, 0, 0, 1, 89.3, 130.3)">
<path style="fill:#7A732B;fill-opacity:1" d="M-13.75 -91.35Q-18.55 -91.6 -22.4 -90.35L-22.85 -90.75L-19.5 -92.9L-12.75 -97.2L-9.75 -102.6Q-5.05 -100.25 0.95 -108.9L10.2 -123.5L8.6 -126.45L12.45 -129.8Q14.2 -129.75 16 -128.75L-2.4 -99.9L-13.75 -91.35" />
<path style="fill:#3B3616;fill-opacity:1" d="M0.95 -89.85Q-4 -89.45 -6.05 -88.25L-9.45 -86L-11.15 -84.6Q-8.1 -88.6 -11.15 -91.1L-13.75 -91.35L-2.4 -99.9L16 -128.75L17.75 -127.55Q16.25 -125.2 11.6 -116.45Q6 -105.9 4.35 -101.45L13.35 -93.15L10.85 -92.7Q10.35 -88.55 13.5 -83.8Q11.4 -86.75 8.75 -88.5L6.15 -89.9Q5.25 -90.25 0.95 -89.85" />
<path style="fill:#4C4D2E;fill-opacity:1" d="M25.7 -92.7Q22.35 -93.5 19 -93.55L13.35 -93.15L4.35 -101.45Q6 -105.9 11.6 -116.45Q16.25 -125.2 17.75 -127.55L19.2 -126.2Q17.95 -124.35 14 -116.2Q9.25 -106.35 7.95 -101.45L11.75 -98.75L25.7 -92.7" />
<path style="fill:#BAAD13;fill-opacity:1" d="M-9.75 -102.6Q-6.8 -107.65 0.55 -116.95Q6.95 -125 8.6 -126.45L10.2 -123.5L0.95 -108.9Q-5.05 -100.25 -9.75 -102.6" />
<radialGradient
id="RadialGradID_817" gradientUnits="userSpaceOnUse" gradientTransform="matrix(0.0650482, 0, 0, 0.0650482, 46.5, -91.4)" spreadMethod ="pad" cx="0" cy="0" r="819.2" fx="0" fy="0" >
<stop  offset="0.0352941"  style="stop-color:#CB852D;stop-opacity:1" />
<stop  offset="1"  style="stop-color:#692C0B;stop-opacity:1" />
</radialGradient>
<path style="fill:url(#RadialGradID_817) " d="M88.35 -61.85Q89.25 -52.2 89.1 -44.55Q88.55 -20.25 77.7 -25.65Q75.8 -26.55 74.8 -29.7Q74.15 -31.75 73.35 -37.3Q71.15 -51.75 67.55 -60.95Q59.85 -80.55 40.55 -91.05L28.55 -97Q23.55 -99.6 23.65 -102L32.25 -102.35Q60.9 -101.7 82.65 -77.4L87.45 -70L88.35 -61.85M63.65 -77.25Q73.05 -64.85 76.4 -44.3Q82.35 -33.25 84.8 -45.4Q87.4 -58.35 81.15 -68.95Q74.9 -79.6 66.65 -87.3Q47.3 -101.9 38.3 -97.85Q37.85 -97.2 39.35 -96.75Q42.5 -95.85 48.4 -92.7Q54.25 -89.65 63.65 -77.25" />
<linearGradient
id="LinearGradID_818" gradientUnits="userSpaceOnUse" gradientTransform="matrix(0.000839233, 0.0233459, -0.05159, 0.00184631, 68.95, 5.95)" spreadMethod ="pad" x1="-819.2" y1="0" x2="819.2" y2="0" >
<stop  offset="0.0196078" style="stop-color:#4C1C12;stop-opacity:1" />
<stop  offset="0.984314" style="stop-color:#543B1D;stop-opacity:1" />
</linearGradient>
<path style="fill:url(#LinearGradID_818) " d="M-15.35 -69.85L-14.3 -73.7L-13.9 -75.15L-11.15 -84.6L-9.45 -86Q-11.65 -77.7 -12.5 -70.85Q-15 -51.25 -13.55 -38Q1.7 -11.9 19.15 -38.35Q22.35 -55.1 17.1 -70.85Q14.35 -79.15 8.75 -88.5Q11.4 -86.75 13.5 -83.8Q16.35 -77.45 18.55 -70.85Q29.2 -38.75 22.55 -0.65Q29.2 -38.75 18.55 -70.85Q16.35 -77.45 13.5 -83.8Q10.35 -88.55 10.85 -92.7Q12.85 -87.2 23.1 -70.85Q32.95 -54.2 32 -35.1Q36.15 -21.5 48.65 -25.2Q54.3 -27.7 56.1 -33Q57.5 -37.25 57 -46.1Q56.45 -55.65 49.55 -68.35Q45.1 -76.45 40.35 -82.35L37.2 -85.25Q41.95 -82.7 50.45 -72.9Q58.15 -63.95 59.5 -60.65Q66.65 -42.35 70.3 -26.1Q73.9 -9.95 86.25 -19.8Q95.85 -27.75 92.25 -59.25Q101.05 -32.8 78.65 -0.65L53.25 -0.65L22.55 -0.65L-19.95 -0.65Q-24.75 -32.3 -15.35 -69.85M-60.9 -12.05Q-58.35 -15.6 -58.1 -20.75L-58.4 -31.05Q-59.25 -59.55 -41.75 -78.6Q-35.6 -85.3 -28.35 -89.5Q-22.4 -92.9 -19.5 -92.9L-22.85 -90.75L-26 -88.75L-26.25 -88.65Q-37.25 -80.8 -43.7 -70.85Q-50.7 -60.15 -52.4 -47Q-53.5 -38.35 -52.3 -26.7L-51.65 -21.6Q-49.9 -10.9 -46.05 -5.75Q-44.55 -3.15 -42.65 -0.65L-62.7 -0.65Q-72.3 -4.9 -77.65 -12Q-68.25 -8.55 -60.9 -12.05M53.25 -0.65Q67.75 -18.45 59.7 -50.6Q55.2 -62.15 49.55 -70.85Q45.3 -77.45 40.35 -82.35Q45.3 -77.45 49.55 -70.85Q55.2 -62.15 59.7 -50.6Q67.75 -18.45 53.25 -0.65" />
<linearGradient
id="LinearGradID_819" gradientUnits="userSpaceOnUse" gradientTransform="matrix(0.0482635, 0.0482635, -0.0370789, 0.0370789, 56.9, -51.35)" spreadMethod ="pad" x1="-819.2" y1="0" x2="819.2" y2="0" >
<stop  offset="0.0352941" style="stop-color:#8C4219;stop-opacity:1" />
<stop  offset="1" style="stop-color:#431613;stop-opacity:1" />
</linearGradient>
<path style="fill:url(#LinearGradID_819) " d="M86.25 -19.8Q73.9 -9.95 70.3 -26.1Q66.65 -42.35 59.5 -60.65Q58.15 -63.95 50.45 -72.9Q41.95 -82.7 37.2 -85.25Q31.8 -89.9 25.7 -92.7L11.75 -98.75Q16.9 -101.2 23.65 -102Q23.55 -99.6 28.55 -97L40.55 -91.05Q59.85 -80.55 67.55 -60.95Q71.15 -51.75 73.35 -37.3Q74.15 -31.75 74.8 -29.7Q75.8 -26.55 77.7 -25.65Q88.55 -20.25 89.1 -44.55Q89.25 -52.2 88.35 -61.85L87.45 -70L89.4 -66L92.25 -59.25Q95.85 -27.75 86.25 -19.8" />
<radialGradient
id="RadialGradID_820" gradientUnits="userSpaceOnUse" gradientTransform="matrix(0.0563354, 0, 0, 0.08461, 52.75, -98.55)" spreadMethod ="pad" cx="0" cy="0" r="819.2" fx="298" fy="0" >
<stop  offset="0.0392157"  style="stop-color:#FFD346;stop-opacity:1" />
<stop  offset="1"  style="stop-color:#7F3B16;stop-opacity:1" />
</radialGradient>
<path style="fill:url(#RadialGradID_820) " d="M48.4 -92.7Q42.5 -95.85 39.35 -96.75Q37.85 -97.2 38.3 -97.85Q47.3 -101.9 66.65 -87.3Q74.9 -79.6 81.15 -68.95Q87.4 -58.35 84.8 -45.4Q82.35 -33.25 76.4 -44.3Q73.05 -64.85 63.65 -77.25Q54.25 -89.65 48.4 -92.7" />
<radialGradient
id="RadialGradID_821" gradientUnits="userSpaceOnUse" gradientTransform="matrix(0.0193176, -0.00517273, 0.00942993, 0.0352173, 35.35, -81.35)" spreadMethod ="pad" cx="0" cy="0" r="819.2" fx="0" fy="0" >
<stop  offset="0.0745098"  style="stop-color:#FFD346;stop-opacity:1" />
<stop  offset="1"  style="stop-color:#985400;stop-opacity:1" />
</radialGradient>
<path style="fill:url(#RadialGradID_821) " d="M27.5 -85.5Q30.25 -84.3 36.4 -76.7Q44.7 -66.4 47.75 -54.95Q49.65 -47.7 49.55 -43.65Q49.35 -38.8 46.2 -35.75Q37.95 -36.15 39.45 -48.15Q38.7 -58.2 33.35 -67.35Q26.25 -79.45 25.75 -83.7Q25.4 -86.4 27.5 -85.5" />
<radialGradient
id="RadialGradID_822" gradientUnits="userSpaceOnUse" gradientTransform="matrix(0.0486755, 0, 0, 0.0795441, 30.9, -89.9)" spreadMethod ="pad" cx="0" cy="0" r="819.2" fx="0" fy="0" >
<stop  offset="0"  style="stop-color:#CB852D;stop-opacity:1" />
<stop  offset="1"  style="stop-color:#7F3B16;stop-opacity:1" />
</radialGradient>
<path style="fill:url(#RadialGradID_822) " d="M25.75 -83.7Q26.25 -79.45 33.35 -67.35Q38.7 -58.2 39.45 -48.15Q37.95 -36.15 46.2 -35.75Q49.35 -38.8 49.55 -43.65Q49.65 -47.7 47.75 -54.95Q44.7 -66.4 36.4 -76.7Q30.25 -84.3 27.5 -85.5Q25.4 -86.4 25.75 -83.7M19 -93.55Q25.7 -90.5 35.6 -81Q43.4 -73.55 45.2 -70.85Q57.7 -51.15 51.35 -32.15Q38.7 -26.75 36.75 -38.9Q36.65 -54.4 30.2 -69.3Q21.6 -83.55 15.8 -89.1L13.35 -93.15L19 -93.55" />
<radialGradient
id="RadialGradID_823" gradientUnits="userSpaceOnUse" gradientTransform="matrix(0.0479889, 0, 0, 0.0747375, 36.5, -63.2)" spreadMethod ="pad" cx="0" cy="0" r="819.2" fx="0" fy="0" >
<stop  offset="0"  style="stop-color:#7F3B16;stop-opacity:1" />
<stop  offset="1"  style="stop-color:#4C1C12;stop-opacity:1" />
</radialGradient>
<path style="fill:url(#RadialGradID_823) " d="M49.55 -68.35Q56.45 -55.65 57 -46.1Q57.5 -37.25 56.1 -33Q54.3 -27.7 48.65 -25.2Q36.15 -21.5 32 -35.1Q32.95 -54.2 23.1 -70.85Q12.85 -87.2 10.85 -92.7L13.35 -93.15L15.8 -89.1Q21.6 -83.55 30.2 -69.3Q36.65 -54.4 36.75 -38.9Q38.7 -26.75 51.35 -32.15Q57.7 -51.15 45.2 -70.85Q43.4 -73.55 35.6 -81Q25.7 -90.5 19 -93.55Q22.35 -93.5 25.7 -92.7Q31.8 -89.9 37.2 -85.25L40.35 -82.35Q45.1 -76.45 49.55 -68.35" />
<radialGradient
id="RadialGradID_824" gradientUnits="userSpaceOnUse" gradientTransform="matrix(0.0453644, 0, 0, 0.0453644, 3.35, -65.05)" spreadMethod ="pad" cx="0" cy="0" r="819.2" fx="0" fy="0" >
<stop  offset="0"  style="stop-color:#7F3B16;stop-opacity:1" />
<stop  offset="1"  style="stop-color:#4C1C12;stop-opacity:1" />
</radialGradient>
<path style="fill:url(#RadialGradID_824) " d="M-6.05 -88.25Q-8.45 -78.4 -8.9 -70.85Q-10.1 -51 -7.6 -43.2Q4.15 -27.15 10.7 -37.7Q17.2 -48.25 17.4 -53.75Q17.7 -61.5 13.2 -73.8Q10.4 -81.5 6.15 -89.9L8.75 -88.5Q14.35 -79.15 17.1 -70.85Q22.35 -55.1 19.15 -38.35Q1.7 -11.9 -13.55 -38Q-15 -51.25 -12.5 -70.85Q-11.65 -77.7 -9.45 -86L-6.05 -88.25" />
<linearGradient
id="LinearGradID_825" gradientUnits="userSpaceOnUse" gradientTransform="matrix(0.00637817, 0.0519257, -0.026886, 0.00331116, 2.8, -75.2)" spreadMethod ="pad" x1="-819.2" y1="0" x2="819.2" y2="0" >
<stop  offset="0.054902" style="stop-color:#7F3B16;stop-opacity:1" />
<stop  offset="0.427451" style="stop-color:#CB852D;stop-opacity:1" />
<stop  offset="1" style="stop-color:#582615;stop-opacity:1" />
</linearGradient>
<path style="fill:url(#LinearGradID_825) " d="M-6.05 -88.25Q-4 -89.45 0.95 -89.85Q5.25 -90.25 6.15 -89.9Q10.4 -81.5 13.2 -73.8Q17.7 -61.5 17.4 -53.75Q17.2 -48.25 10.7 -37.7Q4.15 -27.15 -7.6 -43.2Q-10.1 -51 -8.9 -70.85Q-8.45 -78.4 -6.05 -88.25M9.55 -74.7Q4.9 -88.5 -1.7 -84.6Q-4.85 -83.6 -5.95 -72.4Q-7.05 -61.2 -2.15 -48.1Q8.55 -39.7 11.35 -50.3Q14.2 -60.9 9.55 -74.7" />
<radialGradient
id="RadialGradID_826" gradientUnits="userSpaceOnUse" gradientTransform="matrix(0.0219727, 0, 0, 0.0294495, 0.25, -82.15)" spreadMethod ="pad" cx="0" cy="0" r="819.2" fx="0" fy="0" >
<stop  offset="0.027451"  style="stop-color:#FFD346;stop-opacity:1" />
<stop  offset="1"  style="stop-color:#AD6A16;stop-opacity:1" />
</radialGradient>
<path style="fill:url(#RadialGradID_826) " d="M11.35 -50.3Q8.55 -39.7 -2.15 -48.1Q-7.05 -61.2 -5.95 -72.4Q-4.85 -83.6 -1.7 -84.6Q4.9 -88.5 9.55 -74.7Q14.2 -60.9 11.35 -50.3" />
<linearGradient
id="LinearGradID_827" gradientUnits="userSpaceOnUse" gradientTransform="matrix(-0.0297241, 0.0514984, -0.0287781, -0.0166321, -42.25, -82.95)" spreadMethod ="pad" x1="-819.2" y1="0" x2="819.2" y2="0" >
<stop  offset="0" style="stop-color:#985C10;stop-opacity:1" />
<stop  offset="0.376471" style="stop-color:#FFD346;stop-opacity:1" />
<stop  offset="1" style="stop-color:#8C4B13;stop-opacity:1" />
</linearGradient>
<path style="fill:url(#LinearGradID_827) " d="M-40.2 -94.05Q-47 -90.95 -54.55 -83.85Q-65.15 -73.9 -69.9 -61.65Q-71.5 -57.4 -71.95 -50.65Q-72.35 -45.75 -73.95 -44.75Q-85.35 -40.95 -88.8 -51.15Q-88.3 -62 -84.05 -70.85Q-77.4 -84.5 -61.8 -93.35Q-54.35 -96.75 -46.1 -98.25Q-39.75 -97.85 -40.2 -94.05" />
<linearGradient
id="LinearGradID_828" gradientUnits="userSpaceOnUse" gradientTransform="matrix(-0.0167389, 0.0631561, -0.0434875, -0.0115356, -72.15, -72.8)" spreadMethod ="pad" x1="-819.2" y1="0" x2="819.2" y2="0" >
<stop  offset="0.00784314" style="stop-color:#D48D34;stop-opacity:1" />
<stop  offset="1" style="stop-color:#602715;stop-opacity:1" />
</linearGradient>
<path style="fill:url(#LinearGradID_828) " d="M-46.1 -98.25L-36.6 -99.3Q-30.95 -99.3 -32.1 -94.25Q-37.6 -90.05 -47.8 -77.4Q-56.5 -66.6 -58.2 -63.45Q-67.35 -45.1 -65.6 -28.5Q-79.55 -20.35 -87.05 -32.9Q-87.45 -34.55 -88.1 -41.05Q-88.95 -48.35 -88.8 -51.15Q-85.35 -40.95 -73.95 -44.75Q-72.35 -45.75 -71.95 -50.65Q-71.5 -57.4 -69.9 -61.65Q-65.15 -73.9 -54.55 -83.85Q-47 -90.95 -40.2 -94.05Q-39.75 -97.85 -46.1 -98.25" />
<linearGradient
id="LinearGradID_829" gradientUnits="userSpaceOnUse" gradientTransform="matrix(-0.0259857, 0.0732117, -0.0511475, -0.018158, -44.75, -53.9)" spreadMethod ="pad" x1="-819.2" y1="0" x2="819.2" y2="0" >
<stop  offset="0.0117647" style="stop-color:#8C4219;stop-opacity:1" />
<stop  offset="1" style="stop-color:#431613;stop-opacity:1" />
</linearGradient>
<path style="fill:url(#LinearGradID_829) " d="M-65.6 -28.5Q-67.35 -45.1 -58.2 -63.45Q-56.5 -66.6 -47.8 -77.4Q-37.6 -90.05 -32.1 -94.25Q-30.95 -99.3 -36.6 -99.3Q-25.35 -99.9 -12.75 -97.2L-19.5 -92.9Q-22.4 -92.9 -28.35 -89.5Q-35.6 -85.3 -41.75 -78.6Q-59.25 -59.55 -58.4 -31.05L-58.1 -20.75Q-58.35 -15.6 -60.9 -12.05Q-68.25 -8.55 -77.65 -12Q-84.05 -20.45 -87.05 -32.9Q-79.55 -20.35 -65.6 -28.5" />
<radialGradient
id="RadialGradID_830" gradientUnits="userSpaceOnUse" gradientTransform="matrix(0.0571899, 0.0153198, -0.0247345, 0.0923004, -27.35, -73.45)" spreadMethod ="pad" cx="0" cy="0" r="819.2" fx="210441" fy="0" >
<stop  offset="0.0117647"  style="stop-color:#9E591F;stop-opacity:1" />
<stop  offset="0.956863"  style="stop-color:#431613;stop-opacity:1" />
</radialGradient>
<path style="fill:url(#RadialGradID_830) " d="M-25.95 -37.2Q-27.95 -29.2 -27.9 -19.25Q-44.05 -6.5 -51.65 -21.6L-52.3 -26.7Q-53.5 -38.35 -52.4 -47Q-52.8 -43 -52.6 -39.7Q-51.95 -24.1 -38.85 -25.2Q-34.85 -25.5 -31.85 -33.35Q-29.9 -38.65 -27.3 -51.25Q-24.25 -65.9 -22.8 -70.95Q-19.85 -81.05 -16.1 -84.6Q-14.1 -86.45 -16.55 -88.45Q-18.95 -90.4 -22.4 -90.35Q-18.55 -91.6 -13.75 -91.35L-11.15 -91.1Q-8.1 -88.6 -11.15 -84.6L-13.9 -75.15L-14.3 -73.7L-15.35 -69.85Q-21.35 -55.15 -25.95 -37.2" />
<linearGradient
id="LinearGradID_831" gradientUnits="userSpaceOnUse" gradientTransform="matrix(-0.0272522, 0.0664825, -0.0368347, -0.0151062, -20, -70.65)" spreadMethod ="pad" x1="-819.2" y1="0" x2="819.2" y2="0" >
<stop  offset="0" style="stop-color:#85380E;stop-opacity:1" />
<stop  offset="0.403922" style="stop-color:#CB852D;stop-opacity:1" />
<stop  offset="1" style="stop-color:#582615;stop-opacity:1" />
</linearGradient>
<path style="fill:url(#LinearGradID_831) " d="M-39.3 -31.5Q-34.75 -34.65 -33.3 -41.4L-31.4 -56.25Q-29.5 -69.75 -25.7 -77.2L-22.65 -82.05L-20.15 -85.25Q-20.85 -89.7 -26 -88.75Q-24.35 -89.75 -22.4 -90.35Q-18.95 -90.4 -16.55 -88.45Q-14.1 -86.45 -16.1 -84.6Q-19.85 -81.05 -22.8 -70.95Q-24.25 -65.9 -27.3 -51.25Q-29.9 -38.65 -31.85 -33.35Q-34.85 -25.5 -38.85 -25.2Q-51.95 -24.1 -52.6 -39.7Q-49.65 -27.9 -39.3 -31.5" />
<radialGradient
id="RadialGradID_832" gradientUnits="userSpaceOnUse" gradientTransform="matrix(0.0335541, 0.00898743, -0.0122528, 0.0457458, -36.2, -74.75)" spreadMethod ="pad" cx="0" cy="0" r="819.2" fx="0" fy="0" >
<stop  offset="0"  style="stop-color:#FFD346;stop-opacity:1" />
<stop  offset="1"  style="stop-color:#97531D;stop-opacity:1" />
</radialGradient>
<path style="fill:url(#RadialGradID_832) " d="M-26 -88.75Q-20.85 -89.7 -20.15 -85.25L-22.65 -82.05L-25.7 -77.2Q-29.5 -69.75 -31.4 -56.25L-33.3 -41.4Q-34.75 -34.65 -39.3 -31.5Q-49.65 -27.9 -52.6 -39.7Q-52.8 -43 -52.4 -47Q-50.7 -60.15 -43.7 -70.85Q-37.25 -80.8 -26.25 -88.65L-26 -88.75" />
<linearGradient
id="LinearGradID_833" gradientUnits="userSpaceOnUse" gradientTransform="matrix(0.000839233, 0.0233459, -0.05159, 0.00184631, 68.95, 5.95)" spreadMethod ="pad" x1="-819.2" y1="0" x2="819.2" y2="0" >
<stop  offset="0.0196078" style="stop-color:#4C1C12;stop-opacity:1" />
<stop  offset="1" style="stop-color:#543B1D;stop-opacity:1" />
</linearGradient>
<path style="fill:url(#LinearGradID_833) " d="M-46.05 -5.75Q-49.9 -10.9 -51.65 -21.6Q-44.05 -6.5 -27.9 -19.25Q-27.95 -29.2 -25.95 -37.2Q-21.35 -55.15 -15.35 -69.85Q-24.75 -32.3 -19.95 -0.65L-42.65 -0.65Q-44.55 -3.15 -46.05 -5.75" />
<path style="fill:none;stroke-width:1;stroke-linecap:round;stroke-linejoin:round;stroke-miterlimit:3;stroke:#000000;stroke-opacity:0.4" d="M8.6 -126.45L12.45 -129.8Q14.2 -129.75 16 -128.75L17.75 -127.55L19.2 -126.2Q17.95 -124.35 14 -116.2Q9.25 -106.35 7.95 -101.45L11.75 -98.75Q16.9 -101.2 23.65 -102L32.25 -102.35Q60.9 -101.7 82.65 -77.4L87.45 -70L89.4 -66L92.25 -59.25Q101.05 -32.8 78.65 -0.65L53.25 -0.65L22.55 -0.65L-19.95 -0.65L-42.65 -0.65L-62.7 -0.65Q-72.3 -4.9 -77.65 -12Q-84.05 -20.45 -87.05 -32.9Q-87.45 -34.55 -88.1 -41.05Q-88.95 -48.35 -88.8 -51.15Q-88.3 -62 -84.05 -70.85Q-77.4 -84.5 -61.8 -93.35Q-54.35 -96.75 -46.1 -98.25L-36.6 -99.3Q-25.35 -99.9 -12.75 -97.2L-9.75 -102.6Q-6.8 -107.65 0.55 -116.95Q6.95 -125 8.6 -126.45z" />
<path style="fill:none;stroke-width:0.7;stroke-linecap:round;stroke-linejoin:round;stroke-miterlimit:3;stroke:#000000;stroke-opacity:0.301961" d="M40.35 -82.35Q45.3 -77.45 49.55 -70.85Q55.2 -62.15 59.7 -50.6Q67.75 -18.45 53.25 -0.65" />
<path style="fill:none;stroke-width:0.7;stroke-linecap:round;stroke-linejoin:round;stroke-miterlimit:3;stroke:#000000;stroke-opacity:0.301961" d="M40.35 -82.35L37.2 -85.25Q31.8 -89.9 25.7 -92.7" />
<path style="fill:none;stroke-width:1;stroke-linecap:round;stroke-linejoin:round;stroke-miterlimit:3;stroke:#000000;stroke-opacity:0.4" d="M25.7 -92.7Q22.35 -93.5 19 -93.55" />
<path style="fill:none;stroke-width:1;stroke-linecap:round;stroke-linejoin:round;stroke-miterlimit:3;stroke:#000000;stroke-opacity:0.4" d="M13.35 -93.15L10.85 -92.7" />
<path style="fill:none;stroke-width:1;stroke-linecap:round;stroke-linejoin:round;stroke-miterlimit:3;stroke:#000000;stroke-opacity:0.4" d="M8.75 -88.5Q11.4 -86.75 13.5 -83.8Q10.35 -88.55 10.85 -92.7" />
<path style="fill:none;stroke-width:1;stroke-linecap:round;stroke-linejoin:round;stroke-miterlimit:3;stroke:#000000;stroke-opacity:0.4" d="M13.35 -93.15L19 -93.55" />
<path style="fill:none;stroke-width:1;stroke-linecap:round;stroke-linejoin:round;stroke-miterlimit:3;stroke:#000000;stroke-opacity:0.4" d="M6.15 -89.9L8.75 -88.5" />
<path style="fill:none;stroke-width:0.7;stroke-linecap:round;stroke-linejoin:round;stroke-miterlimit:3;stroke:#000000;stroke-opacity:0.301961" d="M-9.45 -86L-11.15 -84.6L-13.9 -75.15L-14.3 -73.7L-15.35 -69.85Q-24.75 -32.3 -19.95 -0.65" />
<path style="fill:none;stroke-width:1;stroke-linecap:round;stroke-linejoin:round;stroke-miterlimit:3;stroke:#000000;stroke-opacity:0.4" d="M-6.05 -88.25Q-4 -89.45 0.95 -89.85Q5.25 -90.25 6.15 -89.9" />
<path style="fill:none;stroke-width:1;stroke-linecap:round;stroke-linejoin:round;stroke-miterlimit:3;stroke:#000000;stroke-opacity:0.4" d="M-6.05 -88.25L-9.45 -86" />
<path style="fill:none;stroke-width:0.7;stroke-linecap:round;stroke-linejoin:round;stroke-miterlimit:3;stroke:#000000;stroke-opacity:0.301961" d="M13.5 -83.8Q16.35 -77.45 18.55 -70.85Q29.2 -38.75 22.55 -0.65" />
<path style="fill:none;stroke-width:1;stroke-linecap:round;stroke-linejoin:round;stroke-miterlimit:3;stroke:#000000;stroke-opacity:0.4" d="M25.7 -92.7L11.75 -98.75" />
<path style="fill:none;stroke-width:1;stroke-linecap:round;stroke-linejoin:round;stroke-miterlimit:3;stroke:#000000;stroke-opacity:0.4" d="M-19.5 -92.9L-12.75 -97.2" />
<path style="fill:none;stroke-width:1;stroke-linecap:round;stroke-linejoin:round;stroke-miterlimit:3;stroke:#000000;stroke-opacity:0.4" d="M-11.15 -84.6Q-8.1 -88.6 -11.15 -91.1L-13.75 -91.35Q-18.55 -91.6 -22.4 -90.35" />
<path style="fill:none;stroke-width:0.7;stroke-linecap:round;stroke-linejoin:round;stroke-miterlimit:3;stroke:#000000;stroke-opacity:0.301961" d="M-52.4 -47Q-53.5 -38.35 -52.3 -26.7L-51.65 -21.6" />
<path style="fill:none;stroke-width:0.7;stroke-linecap:round;stroke-linejoin:round;stroke-miterlimit:3;stroke:#000000;stroke-opacity:0.301961" d="M-22.85 -90.75L-26 -88.75Q-24.35 -89.75 -22.4 -90.35" />
<path style="fill:none;stroke-width:1;stroke-linecap:round;stroke-linejoin:round;stroke-miterlimit:3;stroke:#000000;stroke-opacity:0.4" d="M-22.85 -90.75L-19.5 -92.9" />
<path style="fill:none;stroke-width:0.7;stroke-linecap:round;stroke-linejoin:round;stroke-miterlimit:3;stroke:#000000;stroke-opacity:0.301961" d="M-52.4 -47Q-50.7 -60.15 -43.7 -70.85Q-37.25 -80.8 -26.25 -88.65L-26 -88.75" />
<path style="fill:none;stroke-width:0.7;stroke-linecap:round;stroke-linejoin:round;stroke-miterlimit:3;stroke:#000000;stroke-opacity:0.301961" d="M-51.65 -21.6Q-49.9 -10.9 -46.05 -5.75Q-44.55 -3.15 -42.65 -0.65" />
</g>
</svg>
