<?xml version="1.0" encoding="utf-8"?>
<svg version="1.1" id="Layer_1"
xmlns="http://www.w3.org/2000/svg"
xmlns:xlink="http://www.w3.org/1999/xlink"
width="84px" height="22px"
xml:space="preserve">
<g id="PathID_2114" transform="matrix(1, 0, 0, 1, 41.8, 10.55)">
<path style="fill:none;stroke-width:0.7;stroke-linecap:round;stroke-linejoin:round;stroke-miterlimit:3;stroke:#000000;stroke-opacity:0.301961" d="M-40.35 -10.5Q-34.2 -6.9 -26.6 -4.9Q-12.6 -1.25 1.15 -0.45L6.5 -0.25Q25.25 0.05 41.7 -8.75" />
</g>
<g id="PathID_2115" transform="matrix(1, 0, 0, 1, 41.8, 10.55)">
<path style="fill:#AD6E59;fill-opacity:1" d="M-37 -8.9L-33.2 -7.65L-33.8 -5.85L-37.6 -7.1L-37 -8.9" />
<path style="fill:none;stroke-width:0.7;stroke-linecap:round;stroke-linejoin:round;stroke-miterlimit:3;stroke:#000000;stroke-opacity:0.301961" d="M-37 -8.9L-33.2 -7.65L-33.8 -5.85L-37.6 -7.1L-37 -8.9z" />
</g>
<g id="PathID_2116" transform="matrix(1, 0, 0, 1, 41.8, 10.55)">
<path style="fill:#FFF8CA;fill-opacity:1" d="M-39.4 -2.45Q-40.05 -3.7 -39.6 -5.05Q-39.15 -6.4 -37.9 -7.1L-35.2 -7.25Q-33.85 -6.8 -33.25 -5.55L-32.95 -4.85Q-32.65 -3.9 -33 -2.9Q-33.45 -1.55 -34.75 -0.9Q-36.05 -0.2 -37.4 -0.65Q-38.75 -1.1 -39.4 -2.45" />
<path style="fill:none;stroke-width:0.7;stroke-linecap:round;stroke-linejoin:round;stroke-miterlimit:3;stroke:#000000;stroke-opacity:0.301961" d="M-39.4 -2.45Q-40.05 -3.7 -39.6 -5.05Q-39.15 -6.4 -37.9 -7.1L-35.2 -7.25Q-33.85 -6.8 -33.25 -5.55L-32.95 -4.85Q-32.65 -3.9 -33 -2.9Q-33.45 -1.55 -34.75 -0.9Q-36.05 -0.2 -37.4 -0.65Q-38.75 -1.1 -39.4 -2.45z" />
</g>
<g id="PathID_2117" transform="matrix(1, 0, 0, 1, 41.8, 10.55)">
<radialGradient
id="RadialGradID_1129" gradientUnits="userSpaceOnUse" gradientTransform="matrix(0.00634766, 0.00209045, -0.00209045, 0.00634766, -37.05, -2.6)" spreadMethod ="pad" cx="0" cy="0" r="819.2" fx="0" fy="0" >
<stop  offset="0"  style="stop-color:#FFFFFF;stop-opacity:1" />
<stop  offset="0.937255"  style="stop-color:#FFFFFF;stop-opacity:0.00784314" />
</radialGradient>
<path style="fill:url(#RadialGradID_1129) " d="M-35.1 -7Q-29.9 -4.3 -32.55 0.8Q-34.05 3.6 -37.05 3.05Q-42.1 2.5 -41.8 -2.25Q-41.55 -6.75 -36.9 -7.3L-35.1 -7" />
</g>
<g id="PathID_2118" transform="matrix(1, 0, 0, 1, 41.8, 10.55)">
<path style="fill:#AD6E59;fill-opacity:1" d="M-22.35 -2.55L-21.75 -4.35L-17.95 -3.1L-18.55 -1.3L-22.35 -2.55" />
<path style="fill:none;stroke-width:0.7;stroke-linecap:round;stroke-linejoin:round;stroke-miterlimit:3;stroke:#000000;stroke-opacity:0.301961" d="M-22.35 -2.55L-21.75 -4.35L-17.95 -3.1L-18.55 -1.3L-22.35 -2.55z" />
</g>
<g id="PathID_2119" transform="matrix(1, 0, 0, 1, 41.8, 10.55)">
<path style="fill:#FFF8CA;fill-opacity:1" d="M-18 -1L-17.7 -0.3Q-17.4 0.65 -17.75 1.65Q-18.2 3 -19.5 3.65Q-20.8 4.35 -22.15 3.9Q-23.5 3.45 -24.15 2.1Q-24.8 0.85 -24.35 -0.5Q-23.9 -1.85 -22.65 -2.55L-19.95 -2.7Q-18.6 -2.25 -18 -1" />
<path style="fill:none;stroke-width:0.7;stroke-linecap:round;stroke-linejoin:round;stroke-miterlimit:3;stroke:#000000;stroke-opacity:0.301961" d="M-18 -1L-17.7 -0.3Q-17.4 0.65 -17.75 1.65Q-18.2 3 -19.5 3.65Q-20.8 4.35 -22.15 3.9Q-23.5 3.45 -24.15 2.1Q-24.8 0.85 -24.35 -0.5Q-23.9 -1.85 -22.65 -2.55L-19.95 -2.7Q-18.6 -2.25 -18 -1z" />
</g>
<g id="PathID_2120" transform="matrix(1, 0, 0, 1, 41.8, 10.55)">
<radialGradient
id="RadialGradID_1130" gradientUnits="userSpaceOnUse" gradientTransform="matrix(0.0063324, 0.0020752, -0.0020752, 0.0063324, -21.8, 1.9)" spreadMethod ="pad" cx="0" cy="0" r="819.2" fx="0" fy="0" >
<stop  offset="0"  style="stop-color:#FFFFFF;stop-opacity:1" />
<stop  offset="0.937255"  style="stop-color:#FFFFFF;stop-opacity:0.00784314" />
</radialGradient>
<path style="fill:url(#RadialGradID_1130) " d="M-19.85 -2.45Q-14.65 0.25 -17.3 5.35Q-18.8 8.15 -21.85 7.6Q-26.85 7.05 -26.55 2.3Q-26.3 -2.2 -21.65 -2.75L-19.85 -2.45" />
</g>
<g id="PathID_2121" transform="matrix(1, 0, 0, 1, 41.8, 10.55)">
<path style="fill:#AD6E59;fill-opacity:1" d="M-4.15 -1.65L-4.25 0.25L-8.25 0L-8.15 -1.9L-4.15 -1.65" />
<path style="fill:none;stroke-width:0.7;stroke-linecap:round;stroke-linejoin:round;stroke-miterlimit:3;stroke:#000000;stroke-opacity:0.301961" d="M-4.15 -1.65L-4.25 0.25L-8.25 0L-8.15 -1.9L-4.15 -1.65z" />
</g>
<g id="PathID_2122" transform="matrix(1, 0, 0, 1, 41.8, 10.55)">
<path style="fill:#FFF8CA;fill-opacity:1" d="M-6.4 6.15Q-7.85 6.05 -8.75 5Q-9.75 3.9 -9.7 2.5Q-9.6 1.05 -8.5 0.1Q-7.45 -0.9 -6 -0.8Q-4.6 -0.75 -3.6 0.4L-3.2 0.95Q-2.65 1.85 -2.75 2.9Q-2.8 4.3 -3.85 5.3Q-5 6.2 -6.4 6.15" />
<path style="fill:none;stroke-width:0.7;stroke-linecap:round;stroke-linejoin:round;stroke-miterlimit:3;stroke:#000000;stroke-opacity:0.301961" d="M-6.4 6.15Q-7.85 6.05 -8.75 5Q-9.75 3.9 -9.7 2.5Q-9.6 1.05 -8.5 0.1Q-7.45 -0.9 -6 -0.8Q-4.6 -0.75 -3.6 0.4L-3.2 0.95Q-2.65 1.85 -2.75 2.9Q-2.8 4.3 -3.85 5.3Q-5 6.2 -6.4 6.15z" />
</g>
<g id="PathID_2123" transform="matrix(1, 0, 0, 1, 41.8, 10.55)">
<radialGradient
id="RadialGradID_1131" gradientUnits="userSpaceOnUse" gradientTransform="matrix(0.00668335, 0.000366211, -0.000366211, 0.00668335, -6.5, 4.25)" spreadMethod ="pad" cx="0" cy="0" r="819.2" fx="0" fy="0" >
<stop  offset="0"  style="stop-color:#FFFFFF;stop-opacity:1" />
<stop  offset="0.937255"  style="stop-color:#FFFFFF;stop-opacity:0.00784314" />
</radialGradient>
<path style="fill:url(#RadialGradID_1131) " d="M-5.8 -0.55Q-0.05 0.75 -1.3 6.4Q-2.05 9.4 -5.1 9.7Q-10.15 10.45 -11.05 5.85Q-11.95 1.35 -7.6 -0.4L-5.8 -0.55" />
</g>
<g id="PathID_2124" transform="matrix(1, 0, 0, 1, 41.8, 10.55)">
<path style="fill:#AD6E59;fill-opacity:1" d="M10.85 -0.85L10.75 1.05L6.75 0.8L6.85 -1.1L10.85 -0.85" />
<path style="fill:none;stroke-width:0.7;stroke-linecap:round;stroke-linejoin:round;stroke-miterlimit:3;stroke:#000000;stroke-opacity:0.301961" d="M10.85 -0.85L10.75 1.05L6.75 0.8L6.85 -1.1L10.85 -0.85z" />
</g>
<g id="PathID_2125" transform="matrix(1, 0, 0, 1, 41.8, 10.55)">
<path style="fill:#FFF8CA;fill-opacity:1" d="M11.15 6.1Q10 7 8.6 6.95Q7.15 6.85 6.25 5.8Q5.25 4.7 5.3 3.3Q5.4 1.85 6.5 0.9Q7.55 -0.1 9 0Q10.4 0.05 11.4 1.2L11.8 1.75Q12.35 2.65 12.25 3.7Q12.2 5.1 11.15 6.1" />
<path style="fill:none;stroke-width:0.7;stroke-linecap:round;stroke-linejoin:round;stroke-miterlimit:3;stroke:#000000;stroke-opacity:0.301961" d="M11.15 6.1Q10 7 8.6 6.95Q7.15 6.85 6.25 5.8Q5.25 4.7 5.3 3.3Q5.4 1.85 6.5 0.9Q7.55 -0.1 9 0Q10.4 0.05 11.4 1.2L11.8 1.75Q12.35 2.65 12.25 3.7Q12.2 5.1 11.15 6.1z" />
</g>
<g id="PathID_2126" transform="matrix(1, 0, 0, 1, 41.8, 10.55)">
<radialGradient
id="RadialGradID_1132" gradientUnits="userSpaceOnUse" gradientTransform="matrix(0.00668335, 0.000366211, -0.000366211, 0.00668335, 8.5, 5.05)" spreadMethod ="pad" cx="0" cy="0" r="819.2" fx="0" fy="0" >
<stop  offset="0"  style="stop-color:#FFFFFF;stop-opacity:1" />
<stop  offset="0.937255"  style="stop-color:#FFFFFF;stop-opacity:0.00784314" />
</radialGradient>
<path style="fill:url(#RadialGradID_1132) " d="M13.7 7.2Q12.95 10.2 9.9 10.5Q4.85 11.25 3.95 6.65Q3.05 2.15 7.4 0.4L9.2 0.25Q14.95 1.55 13.7 7.2" />
</g>
<g id="PathID_2127" transform="matrix(1, 0, 0, 1, 41.8, 10.55)">
<path style="fill:#AD6E59;fill-opacity:1" d="M22.8 -2.5L23.05 -0.65L19.1 -0.2L18.85 -2.05L22.8 -2.5" />
<path style="fill:none;stroke-width:0.7;stroke-linecap:round;stroke-linejoin:round;stroke-miterlimit:3;stroke:#000000;stroke-opacity:0.301961" d="M22.8 -2.5L23.05 -0.65L19.1 -0.2L18.85 -2.05L22.8 -2.5z" />
</g>
<g id="PathID_2128" transform="matrix(1, 0, 0, 1, 41.8, 10.55)">
<path style="fill:#FFF8CA;fill-opacity:1" d="M23.7 -0.6L24.2 -0.1Q24.85 0.65 25 1.7L25 1.75Q25.15 3.15 24.25 4.25Q23.35 5.4 21.9 5.55Q20.5 5.7 19.35 4.85Q18.25 3.95 18.1 2.5Q17.9 1.1 18.8 0Q19.75 -1.2 21.15 -1.35Q22.6 -1.5 23.7 -0.6" />
<path style="fill:none;stroke-width:0.7;stroke-linecap:round;stroke-linejoin:round;stroke-miterlimit:3;stroke:#000000;stroke-opacity:0.301961" d="M23.7 -0.6L24.2 -0.1Q24.85 0.65 25 1.7L25 1.75Q25.15 3.15 24.25 4.25Q23.35 5.4 21.9 5.55Q20.5 5.7 19.35 4.85Q18.25 3.95 18.1 2.5Q17.9 1.1 18.8 0Q19.75 -1.2 21.15 -1.35Q22.6 -1.5 23.7 -0.6z" />
</g>
<g id="PathID_2129" transform="matrix(1, 0, 0, 1, 41.8, 10.55)">
<radialGradient
id="RadialGradID_1133" gradientUnits="userSpaceOnUse" gradientTransform="matrix(0.00662231, -0.000762939, 0.000762939, 0.00662231, 21.4, 3.65)" spreadMethod ="pad" cx="0" cy="0" r="819.2" fx="0" fy="0" >
<stop  offset="0"  style="stop-color:#FFFFFF;stop-opacity:1" />
<stop  offset="0.937255"  style="stop-color:#FFFFFF;stop-opacity:0.00784314" />
</radialGradient>
<path style="fill:url(#RadialGradID_1133) " d="M21.4 -1.1Q27.2 -0.85 26.95 4.95Q26.75 8.05 23.75 8.85Q19 10.45 17.25 6.05Q15.65 1.8 19.6 -0.65L21.4 -1.1" />
</g>
<g id="PathID_2130" transform="matrix(1, 0, 0, 1, 41.8, 10.55)">
<path style="fill:#AD6E59;fill-opacity:1" d="M32.75 -5.45L36.65 -6.3L37.05 -4.45L33.15 -3.6L32.75 -5.45" />
<path style="fill:none;stroke-width:0.7;stroke-linecap:round;stroke-linejoin:round;stroke-miterlimit:3;stroke:#000000;stroke-opacity:0.301961" d="M32.75 -5.45L36.65 -6.3L37.05 -4.45L33.15 -3.6L32.75 -5.45z" />
</g>
<g id="PathID_2131" transform="matrix(1, 0, 0, 1, 41.8, 10.55)">
<path style="fill:#FFF8CA;fill-opacity:1" d="M37.75 -4.4L38.3 -3.95Q39 -3.3 39.25 -2.25Q39.5 -0.9 38.75 0.4Q37.95 1.6 36.55 1.9Q35.15 2.15 33.95 1.4Q32.7 0.55 32.45 -0.8Q32.15 -2.2 32.95 -3.4Q33.7 -4.7 35.1 -4.95Q36.5 -5.25 37.75 -4.4" />
<path style="fill:none;stroke-width:0.7;stroke-linecap:round;stroke-linejoin:round;stroke-miterlimit:3;stroke:#000000;stroke-opacity:0.301961" d="M37.75 -4.4L38.3 -3.95Q39 -3.3 39.25 -2.25Q39.5 -0.9 38.75 0.4Q37.95 1.6 36.55 1.9Q35.15 2.15 33.95 1.4Q32.7 0.55 32.45 -0.8Q32.15 -2.2 32.95 -3.4Q33.7 -4.7 35.1 -4.95Q36.5 -5.25 37.75 -4.4z" />
</g>
<g id="PathID_2132" transform="matrix(1, 0, 0, 1, 41.8, 10.55)">
<radialGradient
id="RadialGradID_1134" gradientUnits="userSpaceOnUse" gradientTransform="matrix(0.00653076, -0.00135803, 0.00135803, 0.00653076, 35.85, 0)" spreadMethod ="pad" cx="0" cy="0" r="819.2" fx="0" fy="0" >
<stop  offset="0"  style="stop-color:#FFFFFF;stop-opacity:1" />
<stop  offset="0.937255"  style="stop-color:#FFFFFF;stop-opacity:0.00784314" />
</radialGradient>
<path style="fill:url(#RadialGradID_1134) " d="M35.35 -4.75Q41.2 -5.05 41.5 0.75Q41.55 3.85 38.7 4.95Q34.05 7 31.95 2.75Q29.95 -1.35 33.6 -4.15L35.35 -4.75" />
</g>
</svg>
