<?xml version="1.0" encoding="utf-8"?>
<svg version="1.1" id="Layer_1"
xmlns="http://www.w3.org/2000/svg"
xmlns:xlink="http://www.w3.org/1999/xlink"
width="146px" height="60px"
xml:space="preserve">
<g id="PathID_1592" transform="matrix(1, 0, 0, 1, 75.15, 35.15)">
<path style="fill:#353327;fill-opacity:1" d="M14.2 -11.2Q14.45 -25 10.5 -29.95L7.25 -24.85L4.2 -19.45L5 -16.7L3.4 -20.95Q6.3 -26.9 9.7 -30.7L10.55 -31.65L11.3 -30.4Q15.65 -22.55 14.2 -11.2M12.15 -34.35Q10.85 -33 11.3 -30.4L10.55 -31.65L9.7 -30.7Q9.4 -32.7 12.15 -34.35M5 -16.7L5.6 -14.65Q6.1 -14 7.15 -13.8Q7.35 -10.85 4.55 -9.5Q3.25 -9 0.55 -8.85Q-0.1 -4.45 -2.35 -0.55L-3.35 0.85Q-3.4 6.35 -4.45 8.5Q-5.7 8.6 -6.65 7.3L-7.9 3.7Q-10.35 3.95 -12.85 5.8Q-14.5 6.9 -15.85 7.5Q-18.65 8.75 -20.15 7.95Q-20.25 7.2 -19.75 6.05Q-19.05 4.25 -16.95 1.55Q-16.85 -3.45 -12.9 -8.45Q-15.85 -9.6 -17.65 -11.35L-26.85 -16.65L-33.35 -30.7Q-56.65 -30.25 -67.25 -10.9L-68.2 -9.1Q-57.8 -32.4 -33.6 -31.65Q-34.2 -34.3 -36.25 -35Q-32.8 -34.7 -32.25 -31.35L-25 -17.7Q-20.6 -14.85 -13.75 -13.05L-9.25 -12.4Q-9.55 -14.85 -8.7 -17Q-9.4 -19.8 -8.4 -22.45Q-5.8 -22.15 -4.55 -20.6L0.85 -20.95L0.3 -23.4Q1.9 -23.4 3.4 -20.95L4.2 -19.45M29.85 2.15Q28.95 3.75 28.4 5.35Q27.75 7.1 27.6 8.8L27.55 10.5Q23.4 14.9 21.95 19.7Q0.95 19.5 -14.55 16.65Q-0.55 13.3 8.85 8.05L13.05 7.55Q18.95 6.4 18.7 3Q17.75 5.15 17 3.8Q15.95 0.85 19.25 -2.1Q23.35 -5.4 29.5 -4.05L29.5 -6.15Q31 -6.1 32.2 -4.05L33.5 -4.35L33.65 -6.4L35.9 -3.95L36.8 -3.35Q38.1 -2.1 37.65 -0.8Q39.15 -0.35 39.25 1.15Q37.8 3.45 34.85 2.8Q31.6 5.4 28.4 5.35Q28.95 3.75 29.85 2.15M33.5 -4.35L35.9 -3.95L33.5 -4.35M-9.15 -11.65L-9.25 -12.4L-9.15 -11.65" />
<path style="fill:#23221C;fill-opacity:1" d="M3.3 -4.25Q2.1 -7.05 -2.35 -0.55Q-0.1 -4.45 0.55 -8.85Q3.25 -9 4.55 -9.5Q7.35 -10.85 7.15 -13.8Q6.1 -14 5.6 -14.65L5 -16.7L4.2 -19.45L7.25 -24.85L10.5 -29.95Q14.45 -25 14.2 -11.2Q9.85 -14.65 3.3 -4.25M-19.75 6.05Q-25.2 -1.75 -36.8 0.95Q-40.45 -11.6 -49.15 -10.65L-49.3 -10.65Q-55.6 -18.8 -67.25 -10.9Q-56.65 -30.25 -33.35 -30.7L-26.85 -16.65L-17.65 -11.35Q-15.85 -9.6 -12.9 -8.45Q-16.85 -3.45 -16.95 1.55Q-19.05 4.25 -19.75 6.05M-15.85 7.5Q-14.5 6.9 -12.85 5.8Q-10.35 3.95 -7.9 3.7L-6.65 7.3Q-10.5 5.65 -15.85 7.5" />
<path style="fill:#25231A;fill-opacity:1" d="M33.8 -18.3Q39.05 -26.65 46.95 -25.55Q47.3 -22.85 51 -20.3Q52 -22.95 55.25 -22.05L56.2 -20.25Q58 -22.9 56.95 -26.55Q64.05 -28.05 70.3 -21.85Q65.8 -24.6 62.7 -20.85Q60 -22.25 56.4 -18.6Q55.35 -16.35 52.15 -16.75L50.3 -18.55Q44.55 -21.85 40 -17.65Q38.1 -22.05 33.8 -18.3M28.4 5.35Q31.6 5.4 34.85 2.8Q37.8 3.45 39.25 1.15Q43 6.9 49.75 9.55Q38 5.2 34.85 10.85Q30.7 6.05 27.6 8.8Q27.75 7.1 28.4 5.35M13.05 7.55Q16.35 6.25 17 3.8Q17.75 5.15 18.7 3Q18.95 6.4 13.05 7.55M-38.2 17.1Q-41.85 15.65 -46 20.85Q-47.05 23.9 -51.2 23.85L-53.8 21.75Q-61.7 18.35 -66.95 24.35Q-69.95 19 -75 24.35Q-69.35 13 -59.15 13.2Q-58.25 16.65 -53.15 19.45Q-50.25 14.75 -46.4 18.8Q-44.6 15.15 -46.4 10.6Q-37.5 7.7 -28.6 14.75Q-34.75 11.8 -38.2 17.1" />
<path style="fill:none;stroke-width:0.7;stroke-linecap:round;stroke-linejoin:round;stroke-miterlimit:3;stroke:#000000;stroke-opacity:0.4" d="M9.7 -30.7L10.55 -31.65L11.3 -30.4Q10.85 -33 12.15 -34.35Q9.4 -32.7 9.7 -30.7Q6.3 -26.9 3.4 -20.95L4.2 -19.45L7.25 -24.85L10.5 -29.95Q14.45 -25 14.2 -11.2Q15.65 -22.55 11.3 -30.4" />
<path style="fill:none;stroke-width:0.7;stroke-linecap:round;stroke-linejoin:round;stroke-miterlimit:3;stroke:#000000;stroke-opacity:0.4" d="M-67.25 -10.9L-68.2 -9.1Q-57.8 -32.4 -33.6 -31.65Q-34.2 -34.3 -36.25 -35Q-32.8 -34.7 -32.25 -31.35L-25 -17.7Q-20.6 -14.85 -13.75 -13.05L-9.25 -12.4Q-9.55 -14.85 -8.7 -17Q-9.4 -19.8 -8.4 -22.45Q-5.8 -22.15 -4.55 -20.6L0.85 -20.95L0.3 -23.4Q1.9 -23.4 3.4 -20.95" />
<path style="fill:none;stroke-width:0.7;stroke-linecap:round;stroke-linejoin:round;stroke-miterlimit:3;stroke:#000000;stroke-opacity:0.4" d="M4.2 -19.45L5 -16.7L5.6 -14.65Q6.1 -14 7.15 -13.8Q7.35 -10.85 4.55 -9.5Q3.25 -9 0.55 -8.85Q-0.1 -4.45 -2.35 -0.55Q2.1 -7.05 3.3 -4.25Q9.85 -14.65 14.2 -11.2" />
<path style="fill:none;stroke-width:0.7;stroke-linecap:round;stroke-linejoin:round;stroke-miterlimit:3;stroke:#000000;stroke-opacity:0.4" d="M33.8 -18.3Q39.05 -26.65 46.95 -25.55Q47.3 -22.85 51 -20.3Q52 -22.95 55.25 -22.05L56.2 -20.25Q58 -22.9 56.95 -26.55Q64.05 -28.05 70.3 -21.85Q65.8 -24.6 62.7 -20.85Q60 -22.25 56.4 -18.6Q55.35 -16.35 52.15 -16.75L50.3 -18.55Q44.55 -21.85 40 -17.65Q38.1 -22.05 33.8 -18.3z" />
<path style="fill:none;stroke-width:0.7;stroke-linecap:round;stroke-linejoin:round;stroke-miterlimit:3;stroke:#000000;stroke-opacity:0.4" d="M17 3.8Q15.95 0.85 19.25 -2.1Q23.35 -5.4 29.5 -4.05L29.5 -6.15Q31 -6.1 32.2 -4.05L33.5 -4.35L33.65 -6.4L35.9 -3.95L36.8 -3.35Q38.1 -2.1 37.65 -0.8Q39.15 -0.35 39.25 1.15Q43 6.9 49.75 9.55Q38 5.2 34.85 10.85Q30.7 6.05 27.6 8.8L27.55 10.5Q23.4 14.9 21.95 19.7Q0.95 19.5 -14.55 16.65Q-0.55 13.3 8.85 8.05L13.05 7.55Q16.35 6.25 17 3.8Q17.75 5.15 18.7 3Q18.95 6.4 13.05 7.55" />
<path style="fill:none;stroke-width:0.7;stroke-linecap:round;stroke-linejoin:round;stroke-miterlimit:3;stroke:#000000;stroke-opacity:0.4" d="M35.9 -3.95L33.5 -4.35" />
<path style="fill:none;stroke-width:0.7;stroke-linecap:round;stroke-linejoin:round;stroke-miterlimit:3;stroke:#000000;stroke-opacity:0.4" d="M28.4 5.35Q31.6 5.4 34.85 2.8Q37.8 3.45 39.25 1.15" />
<path style="fill:none;stroke-width:0.7;stroke-linecap:round;stroke-linejoin:round;stroke-miterlimit:3;stroke:#000000;stroke-opacity:0.4" d="M28.4 5.35Q28.95 3.75 29.85 2.15" />
<path style="fill:none;stroke-width:0.7;stroke-linecap:round;stroke-linejoin:round;stroke-miterlimit:3;stroke:#000000;stroke-opacity:0.4" d="M27.6 8.8Q27.75 7.1 28.4 5.35" />
<path style="fill:none;stroke-width:0.7;stroke-linecap:round;stroke-linejoin:round;stroke-miterlimit:3;stroke:#000000;stroke-opacity:0.4" d="M-19.75 6.05Q-25.2 -1.75 -36.8 0.95Q-40.45 -11.6 -49.15 -10.65L-49.3 -10.65Q-55.6 -18.8 -67.25 -10.9Q-56.65 -30.25 -33.35 -30.7L-26.85 -16.65L-17.65 -11.35Q-15.85 -9.6 -12.9 -8.45Q-16.85 -3.45 -16.95 1.55Q-19.05 4.25 -19.75 6.05Q-20.25 7.2 -20.15 7.95Q-18.65 8.75 -15.85 7.5Q-14.5 6.9 -12.85 5.8Q-10.35 3.95 -7.9 3.7L-6.65 7.3Q-5.7 8.6 -4.45 8.5Q-3.4 6.35 -3.35 0.85L-2.35 -0.55" />
<path style="fill:none;stroke-width:0.7;stroke-linecap:round;stroke-linejoin:round;stroke-miterlimit:3;stroke:#000000;stroke-opacity:0.4" d="M-9.25 -12.4L-9.15 -11.65" />
<path style="fill:none;stroke-width:0.7;stroke-linecap:round;stroke-linejoin:round;stroke-miterlimit:3;stroke:#000000;stroke-opacity:0.4" d="M-6.65 7.3Q-10.5 5.65 -15.85 7.5" />
<path style="fill:none;stroke-width:0.7;stroke-linecap:round;stroke-linejoin:round;stroke-miterlimit:3;stroke:#000000;stroke-opacity:0.4" d="M-38.2 17.1Q-41.85 15.65 -46 20.85Q-47.05 23.9 -51.2 23.85L-53.8 21.75Q-61.7 18.35 -66.95 24.35Q-69.95 19 -75 24.35Q-69.35 13 -59.15 13.2Q-58.25 16.65 -53.15 19.45Q-50.25 14.75 -46.4 18.8Q-44.6 15.15 -46.4 10.6Q-37.5 7.7 -28.6 14.75Q-34.75 11.8 -38.2 17.1z" />
</g>
</svg>
