<?xml version="1.0" encoding="utf-8"?>
<svg version="1.1" id="Layer_1"
xmlns="http://www.w3.org/2000/svg"
xmlns:xlink="http://www.w3.org/1999/xlink"
width="81px" height="107px"
xml:space="preserve">
<g id="PathID_531" transform="matrix(1, 0, 0, 1, 49, 104.9)">
<path style="fill:#3B461B;fill-opacity:1" d="M2.85 -83.7L4.25 -85.6Q5 -86.65 8.5 -87.5Q11.95 -88.4 16.15 -85Q20.35 -81.65 20.65 -78.25Q20.95 -74.85 19.8 -73Q23.1 -70.15 22.7 -65.6Q22.4 -61.15 18.9 -59.15Q15.45 -57.15 15.55 -55.5Q15.8 -53.75 17.75 -52.75Q19.8 -51.75 21.3 -51.3Q25.6 -49.95 24.8 -49.55L22.05 -49.25Q20.15 -49.35 16.15 -51.75Q12.25 -54.15 13.75 -56.6Q15.25 -59 17.85 -60.95Q19.75 -62.35 20.25 -63.75Q20.85 -65.15 20.55 -67Q20.3 -68.85 19.55 -69.35L19.05 -68.65Q17.4 -66.15 14 -65.05Q10.65 -63.9 8 -63.75Q5.4 -63.6 5.65 -64.3Q6.15 -64.9 9.35 -65.55Q12.55 -66.25 15.5 -68Q18.45 -69.8 18.35 -71.7Q18.25 -73.6 16.6 -74.65Q15 -75.65 12 -76.65Q9 -77.7 6.15 -77.2Q3.4 -76.85 6.35 -78.15Q9.3 -79.6 12.35 -78.7Q15.55 -77.8 18.05 -75.65Q18 -80.65 13.5 -83.7Q9 -86.7 5.65 -84.7Q2.4 -82.75 2.85 -83.7" />
<path style="fill:none;stroke-width:0.7;stroke-linecap:round;stroke-linejoin:round;stroke-miterlimit:3;stroke:#000000;stroke-opacity:0.4" d="M5.65 -84.7Q9 -86.7 13.5 -83.7Q18 -80.65 18.05 -75.65Q15.55 -77.8 12.35 -78.7Q9.3 -79.6 6.35 -78.15Q3.4 -76.85 6.15 -77.2Q9 -77.7 12 -76.65Q15 -75.65 16.6 -74.65Q18.25 -73.6 18.35 -71.7Q18.45 -69.8 15.5 -68Q12.55 -66.25 9.35 -65.55Q6.15 -64.9 5.65 -64.3Q5.4 -63.6 8 -63.75Q10.65 -63.9 14 -65.05Q17.4 -66.15 19.05 -68.65L19.55 -69.35Q20.3 -68.85 20.55 -67Q20.85 -65.15 20.25 -63.75Q19.75 -62.35 17.85 -60.95Q15.25 -59 13.75 -56.6Q12.25 -54.15 16.15 -51.75Q20.15 -49.35 22.05 -49.25L24.8 -49.55Q25.6 -49.95 21.3 -51.3Q19.8 -51.75 17.75 -52.75Q15.8 -53.75 15.55 -55.5Q15.45 -57.15 18.9 -59.15Q22.4 -61.15 22.7 -65.6Q23.1 -70.15 19.8 -73Q20.95 -74.85 20.65 -78.25Q20.35 -81.65 16.15 -85Q11.95 -88.4 8.5 -87.5Q5 -86.65 4.25 -85.6L2.85 -83.7Q2.4 -82.75 5.65 -84.7z" />
</g>
<g id="PathID_532" transform="matrix(1, 0, 0, 1, 49, 104.9)">
<path style="fill:#3B461B;fill-opacity:1" d="M-48.95 -26.85Q-49.4 -27.65 -45.05 -26.25Q-43.6 -25.75 -41.35 -25.35Q-39.15 -25.05 -38 -26.3Q-36.9 -27.6 -38.55 -31.25Q-40.2 -34.9 -37.85 -38.7Q-35.5 -42.6 -31.2 -43Q-31 -45.2 -28.8 -47.75Q-26.6 -50.35 -21.2 -50.6Q-15.8 -50.9 -13.5 -48.15Q-11.2 -45.45 -11.15 -44.15Q-11.05 -42.9 -11.2 -41.8Q-11.35 -40.75 -12.85 -44.25Q-14.4 -47.85 -19.8 -48Q-25.25 -48.2 -28.2 -44.15Q-24.9 -44.4 -21.8 -43.3Q-18.75 -42.25 -17.2 -39.35Q-15.6 -36.55 -17.65 -38.45Q-19.65 -40.5 -22.7 -41.4Q-25.7 -42.35 -27.6 -42.45Q-29.55 -42.6 -30.75 -41.1Q-31.95 -39.65 -30.6 -36.45Q-29.25 -33.3 -27 -30.85Q-24.8 -28.45 -24.8 -27.65Q-24.95 -26.95 -27 -28.6Q-29.05 -30.3 -31.15 -33.15Q-33.25 -36.05 -33.1 -39L-33.1 -39.9Q-34 -39.95 -35.3 -38.6Q-36.6 -37.25 -36.95 -35.75Q-37.35 -34.35 -36.65 -32.1Q-35.65 -29 -35.8 -26.15Q-36.05 -23.3 -40.65 -23.6Q-45.25 -24 -46.85 -25.05Q-48.5 -26.05 -48.95 -26.85" />
<path style="fill:none;stroke-width:0.7;stroke-linecap:round;stroke-linejoin:round;stroke-miterlimit:3;stroke:#000000;stroke-opacity:0.4" d="M-48.95 -26.85Q-49.4 -27.65 -45.05 -26.25Q-43.6 -25.75 -41.35 -25.35Q-39.15 -25.05 -38 -26.3Q-36.9 -27.6 -38.55 -31.25Q-40.2 -34.9 -37.85 -38.7Q-35.5 -42.6 -31.2 -43Q-31 -45.2 -28.8 -47.75Q-26.6 -50.35 -21.2 -50.6Q-15.8 -50.9 -13.5 -48.15Q-11.2 -45.45 -11.15 -44.15Q-11.05 -42.9 -11.2 -41.8Q-11.35 -40.75 -12.85 -44.25Q-14.4 -47.85 -19.8 -48Q-25.25 -48.2 -28.2 -44.15Q-24.9 -44.4 -21.8 -43.3Q-18.75 -42.25 -17.2 -39.35Q-15.6 -36.55 -17.65 -38.45Q-19.65 -40.5 -22.7 -41.4Q-25.7 -42.35 -27.6 -42.45Q-29.55 -42.6 -30.75 -41.1Q-31.95 -39.65 -30.6 -36.45Q-29.25 -33.3 -27 -30.85Q-24.8 -28.45 -24.8 -27.65Q-24.95 -26.95 -27 -28.6Q-29.05 -30.3 -31.15 -33.15Q-33.25 -36.05 -33.1 -39L-33.1 -39.9Q-34 -39.95 -35.3 -38.6Q-36.6 -37.25 -36.95 -35.75Q-37.35 -34.35 -36.65 -32.1Q-35.65 -29 -35.8 -26.15Q-36.05 -23.3 -40.65 -23.6Q-45.25 -24 -46.85 -25.05Q-48.5 -26.05 -48.95 -26.85z" />
</g>
<g id="PathID_533" transform="matrix(1, 0, 0, 1, 49, 104.9)">
<path style="fill:#9A4C00;fill-opacity:1" d="M14.9 -37.45L12.3 -39.6L12.15 -39.7Q9.45 -41.6 6.4 -42.45Q3.7 -43.25 -0.05 -41.95Q-5.9 -42.9 -9.3 -41Q-3.15 -41.5 -7.05 -36.1L0.05 -30.15Q2.65 -40.65 5.3 -37.7Q6.2 -44.6 9.95 -44Q13.65 -43.4 18.5 -41.15Q23.3 -38.95 26.7 -35.4Q30.15 -31.85 31.4 -24.9Q32.65 -17.95 30.4 -13Q28.15 -7.85 25.55 -5.65Q22.95 -3.45 21.15 -2.5Q19.3 -1.55 17.7 -1.45Q16.4 -1.45 15.2 -0.65Q14.85 -0.35 14.5 -0.2L17.2 -2.85Q21.7 -9.25 23.8 -17.3L24 -15.65Q24.2 -13.2 25 -10.75Q25.75 -8.4 28.75 -13.7Q31.75 -19 30.2 -24Q28.55 -29.05 27.4 -31.15Q26.2 -33.35 23.3 -36.2L22.1 -37.3L20.7 -37.6L19.2 -37.15L17.75 -36.2L16.8 -35.6L16.75 -35.6L14.9 -35.75L14.9 -37.45M14.5 -0.2Q12.85 0.75 12.2 0.8L4.95 1.1L6.8 -2.6Q8.5 -5.2 9.55 -7.7L10.05 -8.95Q11.65 -7.05 13.35 -7Q15 -7 17.65 -8.65Q20.25 -10.25 21.9 -14.05Q23.35 -17.4 23.8 -17.3Q21.7 -9.25 17.2 -2.85L15.2 -0.65M14.9 -35.75Q13.75 -35.9 12.45 -35.15L10.6 -33.8Q10.1 -33.25 9.95 -32.25L5.3 -37.7Q2.65 -40.65 -0.05 -41.95Q3.7 -43.25 6.4 -42.45Q9.45 -41.6 12.15 -39.7L12.3 -39.6L14.9 -37.45L16.75 -35.6M-4.15 0.9L-4.25 0.85L-9.15 -7.95L-4.25 0.85L-4.15 0.9L-6.3 1.15L-10.6 0.85L-11.8 0.35L-12.9 -0.4L-15.5 -3.05Q-20.3 -7.5 -21.7 -11.05L-22.15 -12.6L-22.5 -13.4Q-21.3 -10.75 -18.25 -7.4Q-14.6 -3.3 -12.3 -4.7Q-10 -6.1 -9.15 -7.95L-7.35 -6.45Q-6.8 -5.95 -4.75 -5.45L-1.75 -5.55L0.55 -8.35L0.55 -8.25L2 -6.95Q2.85 -6.3 5 -6.25Q7.05 -6.25 8.2 -7.25L10.05 -8.95L9.55 -7.7Q8.5 -5.2 6.8 -2.6L4.95 1.1L0.55 0.75L0.55 -8.25L0.55 0.75L-4.15 0.9M5.3 -37.7L9.95 -32.25L9.95 -32.15L9.9 -32.15L8.65 -32.7L6.95 -32.95L4 -32.35Q1.65 -31.7 0.05 -30.15L-0.05 -41.95M0.05 -30.15L-0.1 -30Q-1.05 -31.3 -2.95 -32.35Q-4.9 -33.4 -6.7 -33.4Q-8.3 -33.4 -9.9 -32.05L-7.35 -35.75L-7.05 -36.1Q-3.15 -41.5 -0.05 -41.95M-7.05 -36.1L-7.35 -35.75L-9.9 -32.05Q-9.8 -33.4 -11.1 -34.5Q-12.45 -35.55 -14.05 -35.55L-16.25 -35.15L-18 -34.05L-15.8 -36.45L-13.9 -38.25Q-12.8 -39.1 -9.3 -41Q-5.9 -42.9 -0.05 -41.95M-9.3 -41Q-12.8 -39.1 -13.9 -38.25L-15.8 -36.45L-18 -34.05L-18.25 -33.9L-18.25 -34.1L-18.05 -35.15Q-18.45 -36.9 -19.8 -37.15L-21.8 -37.05L-23.5 -35.75L-26.7 -32.25Q-28.75 -29.7 -29.25 -24.1Q-29.85 -18.5 -29 -15.35Q-28.2 -12.2 -26.25 -10.55Q-24.35 -8.9 -23.25 -9.85Q-22.15 -10.8 -22.15 -12.6L-21.7 -11.05Q-20.3 -7.5 -15.5 -3.05L-12.9 -0.4L-16.05 -0.4Q-20.15 -1.7 -21.8 -3.35Q-27.65 -9.25 -28.75 -11.5Q-31.7 -18.2 -31 -23.05Q-30.3 -28 -29.15 -30.85Q-28.05 -33.7 -23.6 -37.6Q-19.1 -41.5 -16.6 -42.15L-10.4 -43.15L-5.7 -43.45Q-3.55 -43.45 -0.05 -41.95" />
<radialGradient
id="RadialGradID_202" gradientUnits="userSpaceOnUse" gradientTransform="matrix(0.0316315, 0, 0, 0.0169983, -0.55, -21.15)" spreadMethod ="pad" cx="0" cy="0" r="819.2" fx="28" fy="0" >
<stop  offset="0.180392"  style="stop-color:#FFB11D;stop-opacity:1" />
<stop  offset="0.960784"  style="stop-color:#D86E13;stop-opacity:1" />
</radialGradient>
<path style="fill:url(#RadialGradID_202) " d="M21.1 -28.95Q18.75 -33.25 16.75 -35.6L16.8 -35.6L17.75 -36.2L19.2 -37.15L20.7 -37.6L22.1 -37.3L23.3 -36.2Q26.2 -33.35 27.4 -31.15Q28.55 -29.05 30.2 -24Q31.75 -19 28.75 -13.7Q25.75 -8.4 25 -10.75Q24.2 -13.2 24 -15.65L23.8 -17.3Q23.35 -17.4 21.9 -14.05Q24.65 -22.55 21.1 -28.95M21.9 -14.05Q20.25 -10.25 17.65 -8.65Q15 -7 13.35 -7Q11.65 -7.05 10.05 -8.95L8.2 -7.25Q7.05 -6.25 5 -6.25Q2.85 -6.3 2 -6.95L0.55 -8.25L0.55 -8.35L0.05 -30.15Q1.65 -31.7 4 -32.35L6.95 -32.95L8.65 -32.7L9.9 -32.15L9.95 -32.15L9.95 -32.25Q13.95 -27.05 13.15 -21.4Q12.15 -14.3 10.1 -9.05L10.1 -9L10.05 -8.95L10.1 -9L10.1 -9.05Q12.15 -14.3 13.15 -21.4Q13.95 -27.05 9.95 -32.25Q10.1 -33.25 10.6 -33.8L12.45 -35.15Q13.75 -35.9 14.9 -35.75L16.75 -35.6Q18.75 -33.25 21.1 -28.95Q24.65 -22.55 23.8 -17.3M-1.75 -5.55L-4.75 -5.45Q-6.8 -5.95 -7.35 -6.45L-9.15 -7.95Q-11.95 -15.3 -12.25 -21.85Q-12.5 -26.9 -9.9 -32.05Q-12.5 -26.9 -12.25 -21.85Q-11.95 -15.3 -9.15 -7.95Q-10 -6.1 -12.3 -4.7Q-14.6 -3.3 -18.25 -7.4Q-21.3 -10.75 -22.5 -13.4L-22.55 -13.55Q-26.25 -25.3 -18 -34.05Q-26.25 -25.3 -22.55 -13.55L-22.5 -13.4L-22.15 -12.6Q-22.15 -10.8 -23.25 -9.85Q-24.35 -8.9 -26.25 -10.55Q-28.2 -12.2 -29 -15.35Q-29.85 -18.5 -29.25 -24.1Q-28.75 -29.7 -26.7 -32.25L-23.5 -35.75L-21.8 -37.05L-19.8 -37.15Q-18.45 -36.9 -18.05 -35.15L-18.25 -34.1L-18.25 -33.9L-18 -34.05L-16.25 -35.15L-14.05 -35.55Q-12.45 -35.55 -11.1 -34.5Q-9.8 -33.4 -9.9 -32.05Q-8.3 -33.4 -6.7 -33.4Q-4.9 -33.4 -2.95 -32.35Q-1.05 -31.3 -0.1 -30L0.05 -30.15L0.55 -8.35L-1.75 -5.55" />
<path style="fill:none;stroke-width:0.7;stroke-linecap:round;stroke-linejoin:round;stroke-miterlimit:3;stroke:#000000;stroke-opacity:0.301961" d="M23.8 -17.3Q21.7 -9.25 17.2 -2.85L15.2 -0.65Q16.4 -1.45 17.7 -1.45Q19.3 -1.55 21.15 -2.5Q22.95 -3.45 25.55 -5.65Q28.15 -7.85 30.4 -13Q32.65 -17.95 31.4 -24.9Q30.15 -31.85 26.7 -35.4Q23.3 -38.95 18.5 -41.15Q13.65 -43.4 9.95 -44Q6.2 -44.6 -0.05 -41.95Q3.7 -43.25 6.4 -42.45Q9.45 -41.6 12.15 -39.7L12.3 -39.6L14.9 -37.45L16.75 -35.6Q18.75 -33.25 21.1 -28.95Q24.65 -22.55 23.8 -17.3z" />
<path style="fill:none;stroke-width:0.7;stroke-linecap:round;stroke-linejoin:round;stroke-miterlimit:3;stroke:#000000;stroke-opacity:0.301961" d="M10.05 -8.95L9.55 -7.7Q8.5 -5.2 6.8 -2.6L4.95 1.1L12.2 0.8Q12.85 0.75 14.5 -0.2Q14.85 -0.35 15.2 -0.65" />
<path style="fill:none;stroke-width:0.7;stroke-linecap:round;stroke-linejoin:round;stroke-miterlimit:3;stroke:#000000;stroke-opacity:0.4" d="M9.9 -32.15L9.95 -32.15L9.95 -32.25" />
<path style="fill:none;stroke-width:0.7;stroke-linecap:round;stroke-linejoin:round;stroke-miterlimit:3;stroke:#000000;stroke-opacity:0.301961" d="M9.95 -32.25L5.3 -37.7Q2.65 -40.65 -0.05 -41.95L0.05 -30.15L0.55 -8.35L0.55 -8.25" />
<path style="fill:none;stroke-width:0.7;stroke-linecap:round;stroke-linejoin:round;stroke-miterlimit:3;stroke:#000000;stroke-opacity:0.301961" d="M10.05 -8.95L10.1 -9L10.1 -9.05Q12.15 -14.3 13.15 -21.4Q13.95 -27.05 9.95 -32.25" />
<path style="fill:none;stroke-width:0.7;stroke-linecap:round;stroke-linejoin:round;stroke-miterlimit:3;stroke:#000000;stroke-opacity:0.301961" d="M0.55 0.75L4.95 1.1" />
<path style="fill:none;stroke-width:0.7;stroke-linecap:round;stroke-linejoin:round;stroke-miterlimit:3;stroke:#000000;stroke-opacity:0.301961" d="M0.55 0.75L0.55 -8.25" />
<path style="fill:none;stroke-width:0.7;stroke-linecap:round;stroke-linejoin:round;stroke-miterlimit:3;stroke:#000000;stroke-opacity:0.301961" d="M-9.9 -32.05L-7.35 -35.75L-7.05 -36.1Q-3.15 -41.5 -0.05 -41.95Q-5.9 -42.9 -9.3 -41Q-12.8 -39.1 -13.9 -38.25L-15.8 -36.45L-18 -34.05" />
<path style="fill:none;stroke-width:0.7;stroke-linecap:round;stroke-linejoin:round;stroke-miterlimit:3;stroke:#000000;stroke-opacity:0.4" d="M-0.1 -30L0.05 -30.15" />
<path style="fill:none;stroke-width:0.7;stroke-linecap:round;stroke-linejoin:round;stroke-miterlimit:3;stroke:#000000;stroke-opacity:0.301961" d="M-0.05 -41.95Q-3.55 -43.45 -5.7 -43.45L-10.4 -43.15L-16.6 -42.15Q-19.1 -41.5 -23.6 -37.6Q-28.05 -33.7 -29.15 -30.85Q-30.3 -28 -31 -23.05Q-31.7 -18.2 -28.75 -11.5Q-27.65 -9.25 -21.8 -3.35Q-20.15 -1.7 -16.05 -0.4L-12.9 -0.4L-15.5 -3.05Q-20.3 -7.5 -21.7 -11.05L-22.15 -12.6" />
<path style="fill:none;stroke-width:0.7;stroke-linecap:round;stroke-linejoin:round;stroke-miterlimit:3;stroke:#000000;stroke-opacity:0.4" d="M-18.25 -33.9L-18 -34.05" />
<path style="fill:none;stroke-width:0.7;stroke-linecap:round;stroke-linejoin:round;stroke-miterlimit:3;stroke:#000000;stroke-opacity:0.301961" d="M-18 -34.05Q-26.25 -25.3 -22.55 -13.55L-22.5 -13.4" />
<path style="fill:none;stroke-width:0.7;stroke-linecap:round;stroke-linejoin:round;stroke-miterlimit:3;stroke:#000000;stroke-opacity:0.301961" d="M-9.15 -7.95Q-11.95 -15.3 -12.25 -21.85Q-12.5 -26.9 -9.9 -32.05" />
<path style="fill:none;stroke-width:0.7;stroke-linecap:round;stroke-linejoin:round;stroke-miterlimit:3;stroke:#000000;stroke-opacity:0.301961" d="M-22.5 -13.4L-22.15 -12.6" />
<path style="fill:none;stroke-width:0.7;stroke-linecap:round;stroke-linejoin:round;stroke-miterlimit:3;stroke:#000000;stroke-opacity:0.301961" d="M-12.9 -0.4L-11.8 0.35L-10.6 0.85L-6.3 1.15L-4.15 0.9L-4.25 0.85L-9.15 -7.95" />
<path style="fill:none;stroke-width:0.7;stroke-linecap:round;stroke-linejoin:round;stroke-miterlimit:3;stroke:#000000;stroke-opacity:0.301961" d="M-4.15 0.9L0.55 0.75" />
</g>
<g id="PathID_534" transform="matrix(1, 0, 0, 1, 49, 104.9)">
<path style="fill:#993300;fill-opacity:1" d="M10.55 -67.95Q8.45 -69.35 6.05 -70L0.95 -69.65Q-3.65 -70.35 -8.55 -67.35Q4.3 -67.85 6.95 -64.35Q-1.5 -69.3 -4.55 -65.3L0.95 -63.85Q5.85 -71.6 8.8 -71.15Q11.75 -70.7 15.55 -69.05Q19.35 -67.4 22.05 -64.75Q24.75 -62.1 25.75 -56.9Q26.75 -51.7 25 -48Q23.2 -44.2 21.15 -42.55Q19.1 -40.9 17.7 -40.2Q16.25 -39.5 14.95 -39.4Q13.95 -39.4 13 -38.8L12.45 -38.45L14.55 -40.45Q18.1 -45.2 19.75 -51.25L19.9 -50Q20.1 -48.15 20.7 -46.35Q21.3 -44.6 23.65 -48.55Q26.05 -52.5 24.8 -56.25Q23.55 -60 22.6 -61.6Q21.65 -63.2 19.35 -65.35Q17.05 -67.5 15.6 -67.8L12.6 -68.2Q10.95 -68.3 12.7 -66.3L11.35 -66.8L10.55 -67.95M-8.55 -67.35L-10.65 -65.95Q-11.05 -68.1 -12.8 -67.65Q-14.6 -67.25 -16.55 -65.75Q-18.5 -64.3 -20.1 -62.4Q-21.7 -60.5 -22.1 -56.3Q-22.55 -52.15 -21.9 -49.8Q-21.25 -47.45 -19.3 -45.25Q-17.3 -43.1 -16.8 -44.55Q-16.3 -46 -16.5 -47.75L-16.15 -46.55Q-15 -43.9 -11.25 -40.6L-9.15 -38.65L-11.25 -40.6Q-15 -43.9 -16.15 -46.55L-16.5 -47.75L-16.8 -48.45Q-15.85 -46.4 -13.4 -43.85Q-10.5 -40.8 -8.7 -41.85Q-6.9 -42.9 -6.2 -44.25L-4.85 -43.15Q-4.4 -42.75 -2.75 -42.4L-0.4 -42.45L1.4 -44.55L1.4 -44.45L2.85 -42.85Q3.75 -41.75 5 -42Q6.25 -42.3 7.25 -43.35L8.95 -45.1L8.95 -45Q9.55 -43 10.4 -42.45Q11.2 -41.9 14.05 -43.95Q16.95 -46 18.25 -48.8Q19.4 -51.3 19.75 -51.25Q18.1 -45.2 14.55 -40.45L13 -38.8M0.95 -63.85L0.95 -69.65L6.05 -70Q8.45 -69.35 10.55 -67.95L12.7 -66.3M11.35 -66.8L9.4 -66.95L7.4 -66.5Q7 -66.35 6.95 -65.45L7.05 -64.25L6.95 -64.35Q4.3 -67.85 0.95 -69.65M6.95 -64.35L5.4 -65.05L4.1 -65.3Q2.9 -65.4 2.2 -64.95L0.95 -63.85L0.95 -63.75Q0 -65.45 -0.9 -65.75Q-1.85 -66.1 -4.55 -65.3Q-1.5 -69.3 0.95 -69.65M12.45 -38.45Q11.1 -37.75 10.6 -37.75L4.9 -37.5L1.4 -37.75L-2.25 -37.65L-4 -37.45L-7.4 -37.7L-8.35 -38.1L-9.15 -38.65L-11.7 -38.65Q-14.9 -39.6 -16.2 -40.85Q-20.8 -45.2 -21.7 -46.9Q-24 -51.9 -23.45 -55.55Q-22.95 -59.2 -22 -61.35Q-21.15 -63.5 -17.65 -66.4Q-14.1 -69.3 -12.15 -69.75L-7.2 -70.55L-3.5 -70.75Q-1.8 -70.75 0.95 -69.65M-4.55 -65.3L-4.85 -65Q-3.85 -68.1 -8.3 -66.65L-10.65 -65.95L-8.55 -67.35Q-3.65 -70.35 0.95 -69.65M4.9 -37.5L6.35 -40.25Q7.7 -42.2 8.55 -44.1L8.95 -45L8.55 -44.1Q7.7 -42.2 6.35 -40.25L4.9 -37.5M1.4 -37.75L1.4 -44.45L1.4 -37.75M-2.25 -37.65L-2.4 -37.7L-6.2 -44.25L-2.4 -37.7L-2.25 -37.65" />
<radialGradient
id="RadialGradID_203" gradientUnits="userSpaceOnUse" gradientTransform="matrix(0.0249481, 0, 0, 0.0126801, 0.6, -54.1)" spreadMethod ="pad" cx="0" cy="0" r="819.2" fx="28" fy="0" >
<stop  offset="0.180392"  style="stop-color:#FF992A;stop-opacity:1" />
<stop  offset="0.960784"  style="stop-color:#F96420;stop-opacity:1" />
</radialGradient>
<path style="fill:url(#RadialGradID_203) " d="M17.65 -59.95Q14.9 -64.7 12.7 -66.3Q10.95 -68.3 12.6 -68.2L15.6 -67.8Q17.05 -67.5 19.35 -65.35Q21.65 -63.2 22.6 -61.6Q23.55 -60 24.8 -56.25Q26.05 -52.5 23.65 -48.55Q21.3 -44.6 20.7 -46.35Q20.1 -48.15 19.9 -50L19.75 -51.25Q19.4 -51.3 18.25 -48.8Q20.4 -55.15 17.65 -59.95M18.25 -48.8Q16.95 -46 14.05 -43.95Q11.2 -41.9 10.4 -42.45Q9.55 -43 8.95 -45L8.95 -45.1Q10.55 -49 11.35 -54.3Q11.7 -56.5 10.2 -59.6Q8.85 -62.4 7.05 -64.25L6.95 -65.45Q7 -66.35 7.4 -66.5L9.4 -66.95L11.35 -66.8L12.7 -66.3Q14.9 -64.7 17.65 -59.95Q20.4 -55.15 19.75 -51.25M2.2 -64.95Q2.9 -65.4 4.1 -65.3L5.4 -65.05L6.95 -64.35L7.05 -64.25Q8.85 -62.4 10.2 -59.6Q11.7 -56.5 11.35 -54.3Q10.55 -49 8.95 -45.1L7.25 -43.35Q6.25 -42.3 5 -42Q3.75 -41.75 2.85 -42.85L1.4 -44.45L1.4 -44.55L0.95 -63.75L0.95 -63.85L2.2 -64.95M-0.4 -42.45L-2.75 -42.4Q-4.4 -42.75 -4.85 -43.15L-6.2 -44.25Q-8.45 -49.75 -8.65 -54.6Q-8.45 -49.75 -6.2 -44.25Q-6.9 -42.9 -8.7 -41.85Q-10.5 -40.8 -13.4 -43.85Q-15.85 -46.4 -16.8 -48.45Q-20.25 -58.75 -10.65 -65.95Q-20.25 -58.75 -16.8 -48.45L-16.5 -47.75Q-16.3 -46 -16.8 -44.55Q-17.3 -43.1 -19.3 -45.25Q-21.25 -47.45 -21.9 -49.8Q-22.55 -52.15 -22.1 -56.3Q-21.7 -60.5 -20.1 -62.4Q-18.5 -64.3 -16.55 -65.75Q-14.6 -67.25 -12.8 -67.65Q-11.05 -68.1 -10.65 -65.95L-8.3 -66.65Q-3.85 -68.1 -4.85 -65Q-8.95 -59.5 -8.65 -54.6Q-8.95 -59.5 -4.85 -65L-4.55 -65.3Q-1.85 -66.1 -0.9 -65.75Q0 -65.45 0.95 -63.75L1.4 -44.55L-0.4 -42.45" />
<path style="fill:none;stroke-width:0.7;stroke-linecap:round;stroke-linejoin:round;stroke-miterlimit:3;stroke:#000000;stroke-opacity:0.301961" d="M12.7 -66.3Q14.9 -64.7 17.65 -59.95Q20.4 -55.15 19.75 -51.25Q18.1 -45.2 14.55 -40.45L13 -38.8Q13.95 -39.4 14.95 -39.4Q16.25 -39.5 17.7 -40.2Q19.1 -40.9 21.15 -42.55Q23.2 -44.2 25 -48Q26.75 -51.7 25.75 -56.9Q24.75 -62.1 22.05 -64.75Q19.35 -67.4 15.55 -69.05Q11.75 -70.7 8.8 -71.15Q5.85 -71.6 0.95 -69.65L6.05 -70Q8.45 -69.35 10.55 -67.95L12.7 -66.3z" />
<path style="fill:none;stroke-width:0.7;stroke-linecap:round;stroke-linejoin:round;stroke-miterlimit:3;stroke:#000000;stroke-opacity:0.301961" d="M7.05 -64.25Q8.85 -62.4 10.2 -59.6Q11.7 -56.5 11.35 -54.3Q10.55 -49 8.95 -45.1L8.95 -45" />
<path style="fill:none;stroke-width:0.7;stroke-linecap:round;stroke-linejoin:round;stroke-miterlimit:3;stroke:#000000;stroke-opacity:0.301961" d="M0.95 -63.85L0.95 -63.75L1.4 -44.55L1.4 -44.45" />
<path style="fill:none;stroke-width:0.7;stroke-linecap:round;stroke-linejoin:round;stroke-miterlimit:3;stroke:#000000;stroke-opacity:0.301961" d="M0.95 -63.85L0.95 -69.65Q-1.5 -69.3 -4.55 -65.3" />
<path style="fill:none;stroke-width:0.7;stroke-linecap:round;stroke-linejoin:round;stroke-miterlimit:3;stroke:#000000;stroke-opacity:0.301961" d="M6.95 -64.35L7.05 -64.25" />
<path style="fill:none;stroke-width:0.7;stroke-linecap:round;stroke-linejoin:round;stroke-miterlimit:3;stroke:#000000;stroke-opacity:0.301961" d="M0.95 -69.65Q4.3 -67.85 6.95 -64.35" />
<path style="fill:none;stroke-width:0.7;stroke-linecap:round;stroke-linejoin:round;stroke-miterlimit:3;stroke:#000000;stroke-opacity:0.301961" d="M13 -38.8L12.45 -38.45Q11.1 -37.75 10.6 -37.75L4.9 -37.5L1.4 -37.75L-2.25 -37.65L-4 -37.45L-7.4 -37.7L-8.35 -38.1L-9.15 -38.65L-11.7 -38.65Q-14.9 -39.6 -16.2 -40.85Q-20.8 -45.2 -21.7 -46.9Q-24 -51.9 -23.45 -55.55Q-22.95 -59.2 -22 -61.35Q-21.15 -63.5 -17.65 -66.4Q-14.1 -69.3 -12.15 -69.75L-7.2 -70.55L-3.5 -70.75Q-1.8 -70.75 0.95 -69.65Q-3.65 -70.35 -8.55 -67.35L-10.65 -65.95" />
<path style="fill:none;stroke-width:0.7;stroke-linecap:round;stroke-linejoin:round;stroke-miterlimit:3;stroke:#000000;stroke-opacity:0.301961" d="M-4.85 -65L-4.55 -65.3" />
<path style="fill:none;stroke-width:0.7;stroke-linecap:round;stroke-linejoin:round;stroke-miterlimit:3;stroke:#000000;stroke-opacity:0.301961" d="M8.95 -45L8.55 -44.1Q7.7 -42.2 6.35 -40.25L4.9 -37.5" />
<path style="fill:none;stroke-width:0.7;stroke-linecap:round;stroke-linejoin:round;stroke-miterlimit:3;stroke:#000000;stroke-opacity:0.301961" d="M1.4 -44.45L1.4 -37.75" />
<path style="fill:none;stroke-width:0.7;stroke-linecap:round;stroke-linejoin:round;stroke-miterlimit:3;stroke:#000000;stroke-opacity:0.301961" d="M-10.65 -65.95Q-20.25 -58.75 -16.8 -48.45" />
<path style="fill:none;stroke-width:0.7;stroke-linecap:round;stroke-linejoin:round;stroke-miterlimit:3;stroke:#000000;stroke-opacity:0.301961" d="M-6.2 -44.25Q-8.45 -49.75 -8.65 -54.6Q-8.95 -59.5 -4.85 -65" />
<path style="fill:none;stroke-width:0.7;stroke-linecap:round;stroke-linejoin:round;stroke-miterlimit:3;stroke:#000000;stroke-opacity:0.301961" d="M-6.2 -44.25L-2.4 -37.7L-2.25 -37.65" />
<path style="fill:none;stroke-width:0.7;stroke-linecap:round;stroke-linejoin:round;stroke-miterlimit:3;stroke:#000000;stroke-opacity:0.301961" d="M-16.5 -47.75L-16.15 -46.55Q-15 -43.9 -11.25 -40.6L-9.15 -38.65" />
<path style="fill:none;stroke-width:0.7;stroke-linecap:round;stroke-linejoin:round;stroke-miterlimit:3;stroke:#000000;stroke-opacity:0.301961" d="M-16.8 -48.45L-16.5 -47.75" />
</g>
<g id="PathID_535" transform="matrix(1, 0, 0, 1, 49, 104.9)">
<path style="fill:#3B461B;fill-opacity:1" d="M0.95 -103.25Q1.25 -103.65 1.4 -101.1L1.7 -99.1Q1.95 -97.95 2.8 -97.6Q3.6 -97.25 5.05 -98.8Q6.45 -100.25 8.75 -99.8Q11.1 -99.3 12.1 -97.15L14.85 -96.85Q16.5 -96.2 17.7 -93.45Q18.9 -90.8 18 -89.1Q17.15 -87.45 16.55 -87.2L15.4 -86.8Q14.85 -86.7 16.25 -88.1Q17.65 -89.5 16.75 -92.35Q15.8 -95.1 13.25 -95.9Q14 -94.25 14.05 -92.4Q14.15 -90.75 13.05 -89.4Q12 -88.1 12.55 -89.45Q13.15 -90.85 12.95 -92.6L12.55 -95.2Q12.25 -96.25 11.25 -96.6Q10.35 -96.95 9.1 -95.7Q7.8 -94.4 7.05 -92.8Q6.35 -91.25 5.95 -91.15Q5.6 -91.1 6 -92.4Q6.4 -93.75 7.4 -95.3Q8.4 -96.95 9.8 -97.4L10.25 -97.55L9.2 -98.45Q8.3 -98.9 7.55 -98.75Q6.75 -98.7 5.85 -97.95Q4.55 -96.85 3.1 -96.45Q1.7 -96.05 0.95 -98.45Q0.3 -100.85 0.5 -101.85Q0.65 -102.9 0.95 -103.25" />
<path style="fill:none;stroke-width:0.7;stroke-linecap:round;stroke-linejoin:round;stroke-miterlimit:3;stroke:#000000;stroke-opacity:0.4" d="M0.95 -103.25Q1.25 -103.65 1.4 -101.1L1.7 -99.1Q1.95 -97.95 2.8 -97.6Q3.6 -97.25 5.05 -98.8Q6.45 -100.25 8.75 -99.8Q11.1 -99.3 12.1 -97.15L14.85 -96.85Q16.5 -96.2 17.7 -93.45Q18.9 -90.8 18 -89.1Q17.15 -87.45 16.55 -87.2L15.4 -86.8Q14.85 -86.7 16.25 -88.1Q17.65 -89.5 16.75 -92.35Q15.8 -95.1 13.25 -95.9Q14 -94.25 14.05 -92.4Q14.15 -90.75 13.05 -89.4Q12 -88.1 12.55 -89.45Q13.15 -90.85 12.95 -92.6L12.55 -95.2Q12.25 -96.25 11.25 -96.6Q10.35 -96.95 9.1 -95.7Q7.8 -94.4 7.05 -92.8Q6.35 -91.25 5.95 -91.15Q5.6 -91.1 6 -92.4Q6.4 -93.75 7.4 -95.3Q8.4 -96.95 9.8 -97.4L10.25 -97.55L9.2 -98.45Q8.3 -98.9 7.55 -98.75Q6.75 -98.7 5.85 -97.95Q4.55 -96.85 3.1 -96.45Q1.7 -96.05 0.95 -98.45Q0.3 -100.85 0.5 -101.85Q0.65 -102.9 0.95 -103.25z" />
</g>
<g id="PathID_536" transform="matrix(1, 0, 0, 1, 49, 104.9)">
<path style="fill:#D36719;fill-opacity:1" d="M7.8 -92.85Q6.25 -94 4.45 -94.5L0.65 -94.2Q-2.75 -94.8 -6.35 -92.4Q-1.15 -93.95 -3.4 -90.8L0 -89.6L3.8 -90.95Q4.3 -95.75 6.5 -95.4Q8.65 -95.05 11.5 -93.75Q14.3 -92.45 16.3 -90.35Q18.3 -88.3 19.05 -84.15Q19.75 -80.1 18.45 -77.2Q17.15 -74.15 15.65 -72.85L13.05 -71Q12 -70.45 11.05 -70.4Q10.3 -70.4 9.6 -69.95L9.2 -69.65L10.75 -71.25Q13.35 -75 14.6 -79.7L14.25 -77.7Q13.8 -76.1 14.85 -74.8Q15.9 -73.5 17.8 -76.95Q19.65 -80.4 19.1 -83.55Q18.5 -86.75 17.25 -88.75Q15.95 -90.75 14.25 -91.7Q12.55 -92.65 11.1 -93.15L8.3 -93.55Q7.05 -93.5 7.9 -92.8L9.4 -91.55L7.8 -92.85M9.2 -69.65Q8.2 -69.1 7.85 -69.1L3.6 -68.9L4.65 -71.05L6.3 -74.1L6.6 -74.8Q7.05 -73.2 7.65 -72.8Q8.25 -72.35 10.6 -73.75Q12.9 -75.15 13.7 -77.35L14.6 -79.7Q13.35 -75 10.75 -71.25L9.6 -69.95M3.8 -90.95L0.65 -94.2L4.45 -94.5Q6.25 -94 7.8 -92.85L7.9 -92.8M-6.35 -92.4L-7.95 -91.3L-7.9 -91.35Q-4.95 -93.7 -7.65 -93.1Q-10.4 -92.55 -11.95 -91.85Q-13.55 -91.2 -15 -89.25Q-16.5 -87.3 -16.95 -83.85Q-17.4 -80.4 -16.35 -77.95Q-15.35 -75.5 -13.85 -74Q-12.4 -72.5 -12.1 -73.8Q-11.85 -74.9 -12.1 -76.45L-12.15 -76.65L-12.2 -76.75L-12.25 -76.95Q-11.55 -75.3 -9.85 -73.45Q-7.9 -71.25 -6.5 -72.2Q-5.15 -73.15 -4.65 -74.2L-1.8 -69.05L-1.7 -69.05L-1.8 -69.05L-4.65 -74.2L-3.6 -73.65L-1.85 -73.25L0.05 -73.4L0.05 -73.9L1.95 -72.6Q2.7 -72 3.65 -72.3L5.35 -73.5L6.6 -74.9L6.6 -74.8L6.3 -74.1L4.65 -71.05L3.6 -68.9Q2.65 -68.75 0.4 -68.95L-1.7 -69.05L-3 -68.85L-5.5 -69.05L-6.2 -69.35L-6.8 -69.8L-8.7 -69.8Q-11.05 -70.55 -12.05 -71.55Q-15.45 -75 -16.1 -76.3Q-17.8 -80.25 -17.4 -83.1Q-17 -86 -16.35 -87.7Q-15.7 -89.35 -13.1 -91.65Q-10.45 -93.95 -9 -94.3L-5.35 -94.9L-2.65 -95.1Q-1.35 -95.1 0.65 -94.2M9.4 -91.55L8.5 -91.85L6.1 -92.65Q4.1 -93.3 4.45 -92.4L4.9 -90.95L4.8 -89.95L4.1 -90.75L3.8 -90.95L2.2 -92Q1.05 -92.75 0.8 -91.6L0.45 -90.1L0 -89.6L0.65 -94.2M0 -89.6Q-0.25 -92.05 -0.65 -92.5Q-1.35 -93.15 -3.4 -90.8Q-1.15 -93.95 0.65 -94.2M-3.4 -90.8L-3.6 -90.55Q-1.6 -94.05 -4.3 -92.95L-7.95 -91.3L-6.35 -92.4Q-2.75 -94.8 0.65 -94.2M0.4 -68.95L0.05 -73.4L0.4 -68.95M-6.8 -69.8L-8.35 -71.35Q-11.15 -73.95 -12 -76.05L-12.1 -76.45L-12 -76.05Q-11.15 -73.95 -8.35 -71.35L-6.8 -69.8" />
<radialGradient
id="RadialGradID_204" gradientUnits="userSpaceOnUse" gradientTransform="matrix(0.0204468, 0.00547791, -0.00296021, 0.0110474, 0.4, -82)" spreadMethod ="pad" cx="0" cy="0" r="819.2" fx="28" fy="0" >
<stop  offset="0.180392"  style="stop-color:#FFA545;stop-opacity:1" />
<stop  offset="0.972549"  style="stop-color:#FF9D24;stop-opacity:1" />
</radialGradient>
<path style="fill:url(#RadialGradID_204) " d="M13.05 -86.55Q11 -90.3 9.4 -91.55L7.9 -92.8Q7.05 -93.5 8.3 -93.55L11.1 -93.15Q12.55 -92.65 14.25 -91.7Q15.95 -90.75 17.25 -88.75Q18.5 -86.75 19.1 -83.55Q19.65 -80.4 17.8 -76.95Q15.9 -73.5 14.85 -74.8Q13.8 -76.1 14.25 -77.7L14.6 -79.7L13.7 -77.35Q15.1 -82.8 13.05 -86.55M13.7 -77.35Q12.9 -75.15 10.6 -73.75Q8.25 -72.35 7.65 -72.8Q7.05 -73.2 6.6 -74.8L6.6 -74.9Q7.8 -77.95 7.85 -81.35Q7.9 -84.75 4.8 -89.95L3.8 -90.95L4.1 -90.75L4.8 -89.95L4.9 -90.95L4.45 -92.4Q4.1 -93.3 6.1 -92.65L8.5 -91.85L9.4 -91.55Q11 -90.3 13.05 -86.55Q15.1 -82.8 14.6 -79.7M5.35 -73.5L3.65 -72.3Q2.7 -72 1.95 -72.6L0.05 -73.9L0.05 -73.4Q-0.15 -81.75 0 -89.6L0.45 -90.1L0.8 -91.6Q1.05 -92.75 2.2 -92L3.8 -90.95L4.8 -89.95Q7.9 -84.75 7.85 -81.35Q7.8 -77.95 6.6 -74.9L5.35 -73.5M0.05 -73.4L-1.85 -73.25L-3.6 -73.65L-4.65 -74.2Q-6.3 -78.55 -6.45 -82.4Q-6.3 -78.55 -4.65 -74.2Q-5.15 -73.15 -6.5 -72.2Q-7.9 -71.25 -9.85 -73.45Q-11.55 -75.3 -12.25 -76.95L-12.45 -77.5Q-15 -85.65 -7.95 -91.3Q-15 -85.65 -12.45 -77.5L-12.25 -76.95L-12.2 -76.75L-12.15 -76.65L-12.1 -76.45Q-11.85 -74.9 -12.1 -73.8Q-12.4 -72.5 -13.85 -74Q-15.35 -75.5 -16.35 -77.95Q-17.4 -80.4 -16.95 -83.85Q-16.5 -87.3 -15 -89.25Q-13.55 -91.2 -11.95 -91.85Q-10.4 -92.55 -7.65 -93.1Q-4.95 -93.7 -7.9 -91.35L-7.95 -91.3L-4.3 -92.95Q-1.6 -94.05 -3.6 -90.55Q-6.65 -86.25 -6.45 -82.4Q-6.65 -86.25 -3.6 -90.55L-3.4 -90.8Q-1.35 -93.15 -0.65 -92.5Q-0.25 -92.05 0 -89.6Q-0.15 -81.75 0.05 -73.9" />
<path style="fill:none;stroke-width:0.7;stroke-linecap:round;stroke-linejoin:round;stroke-miterlimit:3;stroke:#000000;stroke-opacity:0.301961" d="M14.6 -79.7Q13.35 -75 10.75 -71.25L9.6 -69.95Q10.3 -70.4 11.05 -70.4Q12 -70.45 13.05 -71L15.65 -72.85Q17.15 -74.15 18.45 -77.2Q19.75 -80.1 19.05 -84.15Q18.3 -88.3 16.3 -90.35Q14.3 -92.45 11.5 -93.75Q8.65 -95.05 6.5 -95.4Q4.3 -95.75 0.65 -94.2L4.45 -94.5Q6.25 -94 7.8 -92.85L7.9 -92.8L9.4 -91.55Q11 -90.3 13.05 -86.55Q15.1 -82.8 14.6 -79.7z" />
<path style="fill:none;stroke-width:0.7;stroke-linecap:round;stroke-linejoin:round;stroke-miterlimit:3;stroke:#000000;stroke-opacity:0.301961" d="M6.6 -74.8L6.3 -74.1L4.65 -71.05L3.6 -68.9L7.85 -69.1Q8.2 -69.1 9.2 -69.65L9.6 -69.95" />
<path style="fill:none;stroke-width:0.7;stroke-linecap:round;stroke-linejoin:round;stroke-miterlimit:3;stroke:#000000;stroke-opacity:0.301961" d="M6.6 -74.9Q7.8 -77.95 7.85 -81.35Q7.9 -84.75 4.8 -89.95L3.8 -90.95" />
<path style="fill:none;stroke-width:0.7;stroke-linecap:round;stroke-linejoin:round;stroke-miterlimit:3;stroke:#000000;stroke-opacity:0.301961" d="M0 -89.6Q-0.15 -81.75 0.05 -73.9" />
<path style="fill:none;stroke-width:0.7;stroke-linecap:round;stroke-linejoin:round;stroke-miterlimit:3;stroke:#000000;stroke-opacity:0.301961" d="M6.6 -74.9L6.6 -74.8" />
<path style="fill:none;stroke-width:0.7;stroke-linecap:round;stroke-linejoin:round;stroke-miterlimit:3;stroke:#000000;stroke-opacity:0.301961" d="M0.65 -94.2L3.8 -90.95" />
<path style="fill:none;stroke-width:0.7;stroke-linecap:round;stroke-linejoin:round;stroke-miterlimit:3;stroke:#000000;stroke-opacity:0.301961" d="M0 -89.6L0.65 -94.2Q-1.15 -93.95 -3.4 -90.8" />
<path style="fill:none;stroke-width:0.7;stroke-linecap:round;stroke-linejoin:round;stroke-miterlimit:3;stroke:#000000;stroke-opacity:0.301961" d="M3.6 -68.9Q2.65 -68.75 0.4 -68.95L-1.7 -69.05L-3 -68.85L-5.5 -69.05L-6.2 -69.35L-6.8 -69.8L-8.7 -69.8Q-11.05 -70.55 -12.05 -71.55Q-15.45 -75 -16.1 -76.3Q-17.8 -80.25 -17.4 -83.1Q-17 -86 -16.35 -87.7Q-15.7 -89.35 -13.1 -91.65Q-10.45 -93.95 -9 -94.3L-5.35 -94.9L-2.65 -95.1Q-1.35 -95.1 0.65 -94.2Q-2.75 -94.8 -6.35 -92.4L-7.95 -91.3" />
<path style="fill:none;stroke-width:0.7;stroke-linecap:round;stroke-linejoin:round;stroke-miterlimit:3;stroke:#000000;stroke-opacity:0.301961" d="M-3.6 -90.55L-3.4 -90.8" />
<path style="fill:none;stroke-width:0.7;stroke-linecap:round;stroke-linejoin:round;stroke-miterlimit:3;stroke:#000000;stroke-opacity:0.301961" d="M0.05 -73.4L0.4 -68.95" />
<path style="fill:none;stroke-width:0.7;stroke-linecap:round;stroke-linejoin:round;stroke-miterlimit:3;stroke:#000000;stroke-opacity:0.301961" d="M0.05 -73.4L0.05 -73.9" />
<path style="fill:none;stroke-width:0.7;stroke-linecap:round;stroke-linejoin:round;stroke-miterlimit:3;stroke:#000000;stroke-opacity:0.301961" d="M-7.95 -91.3L-7.9 -91.35" />
<path style="fill:none;stroke-width:0.7;stroke-linecap:round;stroke-linejoin:round;stroke-miterlimit:3;stroke:#000000;stroke-opacity:0.301961" d="M-12.1 -76.45L-12.15 -76.65L-12.2 -76.75L-12.25 -76.95L-12.45 -77.5Q-15 -85.65 -7.95 -91.3" />
<path style="fill:none;stroke-width:0.7;stroke-linecap:round;stroke-linejoin:round;stroke-miterlimit:3;stroke:#000000;stroke-opacity:0.301961" d="M-12.1 -76.45L-12 -76.05Q-11.15 -73.95 -8.35 -71.35L-6.8 -69.8" />
<path style="fill:none;stroke-width:0.7;stroke-linecap:round;stroke-linejoin:round;stroke-miterlimit:3;stroke:#000000;stroke-opacity:0.301961" d="M-4.65 -74.2Q-6.3 -78.55 -6.45 -82.4Q-6.65 -86.25 -3.6 -90.55" />
<path style="fill:none;stroke-width:0.7;stroke-linecap:round;stroke-linejoin:round;stroke-miterlimit:3;stroke:#000000;stroke-opacity:0.301961" d="M-4.65 -74.2L-1.8 -69.05L-1.7 -69.05" />
</g>
<g id="PathID_537" transform="matrix(1, 0, 0, 1, 49, 104.9)">
<path style="fill:#3B461B;fill-opacity:1" d="M3.9 -101.95L3.05 -102.85Q2.3 -103.5 1.65 -102.65Q1 -101.8 0.8 -100.6Q0.55 -99.45 0.4 -96.75L0.2 -94.55Q0 -94.3 -3 -93.6L-1.35 -93.55Q-0.45 -93.65 -0.55 -93.05L-0.95 -92L0.8 -93.45L2.9 -92.7L2.35 -93.8L4.25 -94.55L1.4 -94.3L1.9 -95.15L6.1 -95.95Q7.4 -94.3 9.75 -94.35L3.1 -93.6Q3.05 -92.55 6.85 -90.8Q3.2 -92.3 0.6 -92.75Q-0.15 -92.35 -1.05 -91L-2.5 -88.75L-1.85 -90.4Q-1.55 -91.3 -1.5 -92.8L-7.1 -91.6Q-2.5 -93.35 -4 -93.8Q-5.15 -94.25 -10.2 -93.9Q-5.9 -94.3 -5.55 -95.4L-1.1 -95.15L-1.1 -94.65Q-0.25 -99.25 -0.55 -102.05Q-2.95 -103.3 0.15 -104.25Q3.2 -105.2 3.75 -104.25Q4.1 -103.75 3.9 -101.95M-1.1 -94.65L-1.1 -95.15" />
<path style="fill:#808C20;fill-opacity:1" d="M1.4 -94.3L4.25 -94.55L2.35 -93.8L2.9 -92.7L0.8 -93.45L-0.95 -92L-0.55 -93.05Q-0.45 -93.65 -1.35 -93.55L-3 -93.6Q0 -94.3 0.2 -94.55L0.4 -96.75Q0.55 -99.45 0.8 -100.6Q1 -101.8 1.65 -102.65Q2.3 -103.5 3.05 -102.85L3.9 -101.95L3.35 -99.15L1.9 -95.15L1.4 -94.3" />
<path style="fill:none;stroke-width:0.7;stroke-linecap:round;stroke-linejoin:round;stroke-miterlimit:3;stroke:#000000;stroke-opacity:0.301961" d="M1.9 -95.15L3.35 -99.15L3.9 -101.95" />
<path style="fill:none;stroke-width:0.7;stroke-linecap:round;stroke-linejoin:round;stroke-miterlimit:3;stroke:#000000;stroke-opacity:0.301961" d="M1.4 -94.3L1.9 -95.15L6.1 -95.95Q7.4 -94.3 9.75 -94.35L3.1 -93.6Q3.05 -92.55 6.85 -90.8Q3.2 -92.3 0.6 -92.75Q-0.15 -92.35 -1.05 -91L-2.5 -88.75L-1.85 -90.4Q-1.55 -91.3 -1.5 -92.8L-7.1 -91.6Q-2.5 -93.35 -4 -93.8Q-5.15 -94.25 -10.2 -93.9Q-5.9 -94.3 -5.55 -95.4L-1.1 -95.15Q-0.25 -99.25 -0.55 -102.05Q-2.95 -103.3 0.15 -104.25Q3.2 -105.2 3.75 -104.25Q4.1 -103.75 3.9 -101.95" />
<path style="fill:none;stroke-width:0.7;stroke-linecap:round;stroke-linejoin:round;stroke-miterlimit:3;stroke:#000000;stroke-opacity:0.301961" d="M-1.1 -95.15L-1.1 -94.65" />
</g>
<g id="PathID_538" transform="matrix(1, 0, 0, 1, 49, 104.9)">
<radialGradient
id="RadialGradID_205" gradientUnits="userSpaceOnUse" gradientTransform="matrix(0.0322723, 0, 0, 0.0253296, -0.45, -51.55)" spreadMethod ="pad" cx="0" cy="0" r="819.2" fx="6" fy="0" >
<stop  offset="0.211765"  style="stop-color:#FFEAA6;stop-opacity:1" />
<stop  offset="0.380392"  style="stop-color:#FFF45B;stop-opacity:1" />
<stop  offset="0.831373"  style="stop-color:#E09506;stop-opacity:1" />
</radialGradient>
<path style="fill:url(#RadialGradID_205) " d="M1.95 -55.35L-0.1 -55.3L-12.6 -55.65L-16.45 -56.05L-12.25 -58L-9.6 -59.25L-8.2 -57.75Q-7.2 -57.05 -6.65 -57.05Q-5.65 -57.05 -4.9 -58.5L-4.5 -59.75L-4.5 -61.5L3.95 -64.7L4.1 -64.6L5.5 -63.5L6 -63.1L5.75 -62.9Q4.95 -62.05 4.95 -60.9Q4.95 -59.75 5.75 -59Q6.6 -58.15 7.75 -58.15Q8.9 -58.15 9.7 -59Q10.55 -59.75 10.55 -60.9Q10.55 -62.05 9.7 -62.9Q9 -63.55 8 -63.65L6.75 -65.05L6.4 -65.55L10.95 -66.9L11.7 -65.95Q15.6 -60.65 16.1 -56.85L13.95 -56.55L14.25 -56.55L2.6 -55.45L1.95 -55.35" />
<path style="fill:#EAB427;fill-opacity:1" d="M1.95 -55.35L2.6 -55.45L2.6 -55.35L1.95 -55.35" />
<radialGradient
id="RadialGradID_206" gradientUnits="userSpaceOnUse" gradientTransform="matrix(0.032486, 0, 0, 0.0273132, 0.05, -49.55)" spreadMethod ="pad" cx="0" cy="0" r="819.2" fx="6" fy="0" >
<stop  offset="0.211765"  style="stop-color:#FFEAA6;stop-opacity:1" />
<stop  offset="0.380392"  style="stop-color:#FFF45B;stop-opacity:1" />
<stop  offset="0.831373"  style="stop-color:#E09506;stop-opacity:1" />
</radialGradient>
<path style="fill:url(#RadialGradID_206) " d="M5.8 -48.95L5.55 -48.1Q5.55 -47.1 6.3 -46.85L6.25 -45.9Q6.2 -45.35 6.6 -44.85L7.05 -44.4L-7.15 -43.8Q-6.25 -46 -6.25 -47.75L-6.25 -47.85L-6.25 -48.3Q-6.4 -49.35 -7.2 -50.15Q-8.15 -51.05 -9.55 -51.05Q-10.9 -51.05 -11.85 -50.15Q-12.8 -49.2 -12.8 -47.85Q-12.8 -46.5 -12.2 -45.95Q-11.7 -45.5 -11.3 -45.4Q-11.1 -45.35 -11.05 -44.35Q-15.3 -45.25 -16.45 -46.7Q-16.9 -50.15 -16.35 -54L-1.6 -52.85Q6.05 -52.7 14.45 -54.7Q14.95 -50.15 14.45 -44.8L13.7 -44.7L12.6 -44.6L11.05 -44.5L11.2 -44.85L11.75 -45.35L12.45 -46.35L12.55 -47.1Q12.55 -48.15 11.75 -48.95Q11 -49.65 9.95 -49.65L8.8 -49.4L8.25 -49.9L7.45 -50.35L6.7 -50.15L6.6 -50.1Q6.15 -49.75 6.05 -49.25L5.8 -48.95" />
<path style="fill:#FABF29;fill-opacity:1" d="M11.05 -44.5L12.6 -44.6L13.7 -44.7L14.45 -44.8L16.55 -43.6Q14.95 -50.15 14.45 -54.7L16.6 -54.9Q17.2 -46.5 16.55 -43.6L14.45 -44.8L10.3 -42.6L10.4 -42.85L11.05 -44.5M-11.1 -43.4L-10.75 -42.65Q-14.05 -43.05 -16.2 -44.6L-16.45 -46.7Q-15.3 -45.25 -11.05 -44.35L-11.1 -43.4M-6.25 -47.75Q-6.25 -46 -7.15 -43.8L7.05 -44.4L6.6 -44.85Q6.2 -45.35 6.25 -45.9L6.3 -46.85Q5.55 -47.1 5.55 -48.1L5.8 -48.95L6.05 -49.25L6 -48.95Q5.95 -48.15 6.6 -47.8Q6.95 -47.5 7.45 -47.5Q7.05 -45.95 8.3 -45.2L8.85 -44.8L7.65 -42.6L-4.05 -41.95L-5.75 -42.05L-8.3 -43.85L-8.85 -44.65Q-7.95 -44.8 -7.2 -45.55Q-6.3 -46.45 -6.25 -47.75" />
<path style="fill:none;stroke-width:0.7;stroke-linecap:round;stroke-linejoin:round;stroke-miterlimit:3;stroke:#000000;stroke-opacity:0.25098" d="M2.6 -55.45L14.25 -56.55L13.95 -56.55L16.1 -56.85Q15.6 -60.65 11.7 -65.95L10.95 -66.9L6.4 -65.55L6.75 -65.05L8 -63.65Q9 -63.55 9.7 -62.9Q10.55 -62.05 10.55 -60.9Q10.55 -59.75 9.7 -59Q8.9 -58.15 7.75 -58.15Q6.6 -58.15 5.75 -59Q4.95 -59.75 4.95 -60.9Q4.95 -62.05 5.75 -62.9L6 -63.1L5.5 -63.5L4.1 -64.6L3.95 -64.7L-4.5 -61.5L-4.5 -59.75L-4.9 -58.5Q-5.65 -57.05 -6.65 -57.05Q-7.2 -57.05 -8.2 -57.75L-9.6 -59.25L-12.25 -58L-16.45 -56.05L-12.6 -55.65L-0.1 -55.3L1.95 -55.35L2.6 -55.45z" />
<path style="fill:none;stroke-width:0.7;stroke-linecap:round;stroke-linejoin:round;stroke-miterlimit:3;stroke:#000000;stroke-opacity:0.25098" d="M6.05 -49.25Q6.15 -49.75 6.6 -50.1L6.7 -50.15L7.45 -50.35L8.25 -49.9L8.8 -49.4L9.95 -49.65Q11 -49.65 11.75 -48.95Q12.55 -48.15 12.55 -47.1L12.45 -46.35L11.75 -45.35L11.2 -44.85L11.05 -44.5L12.6 -44.6L13.7 -44.7L14.45 -44.8Q14.95 -50.15 14.45 -54.7Q6.05 -52.7 -1.6 -52.85L-16.35 -54Q-16.9 -50.15 -16.45 -46.7Q-15.3 -45.25 -11.05 -44.35Q-11.1 -45.35 -11.3 -45.4Q-11.7 -45.5 -12.2 -45.95Q-12.8 -46.5 -12.8 -47.85Q-12.8 -49.2 -11.85 -50.15Q-10.9 -51.05 -9.55 -51.05Q-8.15 -51.05 -7.2 -50.15Q-6.4 -49.35 -6.25 -48.3L-6.25 -47.85L-6.25 -47.75Q-6.25 -46 -7.15 -43.8L7.05 -44.4L6.6 -44.85Q6.2 -45.35 6.25 -45.9L6.3 -46.85Q5.55 -47.1 5.55 -48.1L5.8 -48.95L6.05 -49.25L6 -48.95Q5.95 -48.15 6.6 -47.8Q6.95 -47.5 7.45 -47.5Q7.05 -45.95 8.3 -45.2L8.85 -44.8L7.65 -42.6L-4.05 -41.95L-5.75 -42.05L-8.3 -43.85L-8.85 -44.65Q-7.95 -44.8 -7.2 -45.55Q-6.3 -46.45 -6.25 -47.75" />
<path style="fill:none;stroke-width:0.7;stroke-linecap:round;stroke-linejoin:round;stroke-miterlimit:3;stroke:#000000;stroke-opacity:0.25098" d="M14.45 -54.7L16.6 -54.9Q17.2 -46.5 16.55 -43.6L10.3 -42.6L10.4 -42.85L11.05 -44.5" />
<path style="fill:none;stroke-width:0.7;stroke-linecap:round;stroke-linejoin:round;stroke-miterlimit:3;stroke:#000000;stroke-opacity:0.25098" d="M14.45 -44.8L16.55 -43.6" />
<path style="fill:none;stroke-width:0.7;stroke-linecap:round;stroke-linejoin:round;stroke-miterlimit:3;stroke:#000000;stroke-opacity:0.25098" d="M-16.45 -46.7L-16.2 -44.6Q-14.05 -43.05 -10.75 -42.65L-11.1 -43.4L-11.05 -44.35" />
</g>
<g id="PathID_539" transform="matrix(1, 0, 0, 1, 49, 104.9)">
<path style="fill:#FABF29;fill-opacity:1" d="M-0.75 -81.25L1.9 -81.35L2.3 -80.55L-1.15 -80.55L-0.75 -81.25" />
<radialGradient
id="RadialGradID_207" gradientUnits="userSpaceOnUse" gradientTransform="matrix(0.00286865, 0, 0, 0.00286865, 0.6, -82.1)" spreadMethod ="pad" cx="0" cy="0" r="819.2" fx="6" fy="0" >
<stop  offset="0.211765"  style="stop-color:#FFEAA6;stop-opacity:1" />
<stop  offset="0.380392"  style="stop-color:#FFF45B;stop-opacity:1" />
<stop  offset="0.831373"  style="stop-color:#E09506;stop-opacity:1" />
</radialGradient>
<path style="fill:url(#RadialGradID_207) " d="M-0.75 -81.25L0.6 -83.65L1.9 -81.35L-0.75 -81.25" />
<path style="fill:none;stroke-width:0.7;stroke-linecap:round;stroke-linejoin:round;stroke-miterlimit:3;stroke:#000000;stroke-opacity:0.301961" d="M1.9 -81.35L0.6 -83.65L-0.75 -81.25L1.9 -81.35L2.3 -80.55L-1.15 -80.55L-0.75 -81.25" />
<path style="fill:none;stroke-width:0.7;stroke-linecap:round;stroke-linejoin:round;stroke-miterlimit:3;stroke:#000000;stroke-opacity:0.301961" d="M-2.3 -75.55L-2.55 -75.45" />
</g>
<g id="PathID_540" transform="matrix(1, 0, 0, 1, 49, 104.9)">
<path style="fill:#FABF29;fill-opacity:1" d="M-2.55 -88.15L-1.55 -88.15L-6.55 -80.55L-8.75 -83.9Q-7.7 -83.3 -6.6 -82.25Q-3.45 -86.45 -2.55 -88.15" />
<radialGradient
id="RadialGradID_208" gradientUnits="userSpaceOnUse" gradientTransform="matrix(0.00860596, -0.00576782, 0.00672913, 0.00735474, -6.55, -84.35)" spreadMethod ="pad" cx="0" cy="0" r="819.2" fx="6" fy="0" >
<stop  offset="0.211765"  style="stop-color:#FFEAA6;stop-opacity:1" />
<stop  offset="0.380392"  style="stop-color:#FFF45B;stop-opacity:1" />
<stop  offset="0.831373"  style="stop-color:#E09506;stop-opacity:1" />
</radialGradient>
<path style="fill:url(#RadialGradID_208) " d="M-6.6 -82.25Q-7.7 -83.3 -8.75 -83.9L-11.55 -88.15L-9.9 -88.15L-9.95 -87.9Q-9.95 -87.15 -9.35 -86.65Q-8.7 -86.05 -7.8 -86.05Q-6.95 -86.05 -6.4 -86.65Q-5.7 -87.15 -5.7 -87.9L-5.7 -88.15L-2.55 -88.15Q-3.45 -86.45 -6.6 -82.25" />
<path style="fill:none;stroke-width:0.7;stroke-linecap:round;stroke-linejoin:round;stroke-miterlimit:3;stroke:#000000;stroke-opacity:0.301961" d="M-8.75 -83.9L-11.55 -88.15L-9.9 -88.15L-9.95 -87.9Q-9.95 -87.15 -9.35 -86.65Q-8.7 -86.05 -7.8 -86.05Q-6.95 -86.05 -6.4 -86.65Q-5.7 -87.15 -5.7 -87.9L-5.7 -88.15L-2.55 -88.15L-1.55 -88.15L-6.55 -80.55L-8.75 -83.9Q-7.7 -83.3 -6.6 -82.25Q-3.45 -86.45 -2.55 -88.15" />
</g>
<g id="PathID_541" transform="matrix(1, 0, 0, 1, 49, 104.9)">
<path style="fill:#FABF29;fill-opacity:1" d="M8.1 -82.15Q11.25 -86.35 12.15 -88.05L13.15 -88.05L8.15 -80.45L5.95 -83.8L8.1 -82.15" />
<radialGradient
id="RadialGradID_209" gradientUnits="userSpaceOnUse" gradientTransform="matrix(0.00860596, -0.00576782, 0.00672913, 0.00735474, 8.15, -84.25)" spreadMethod ="pad" cx="0" cy="0" r="819.2" fx="6" fy="0" >
<stop  offset="0.211765"  style="stop-color:#FFEAA6;stop-opacity:1" />
<stop  offset="0.380392"  style="stop-color:#FFF45B;stop-opacity:1" />
<stop  offset="0.831373"  style="stop-color:#E09506;stop-opacity:1" />
</radialGradient>
<path style="fill:url(#RadialGradID_209) " d="M5.95 -83.8L3.15 -88.05L4.8 -88.05L4.75 -87.8Q4.75 -87.05 5.35 -86.55Q6 -85.95 6.9 -85.95Q7.75 -85.95 8.3 -86.55Q9 -87.05 9 -87.8L9 -88.05L12.15 -88.05Q11.25 -86.35 8.1 -82.15L5.95 -83.8" />
<path style="fill:none;stroke-width:0.7;stroke-linecap:round;stroke-linejoin:round;stroke-miterlimit:3;stroke:#000000;stroke-opacity:0.301961" d="M12.15 -88.05L13.15 -88.05L8.15 -80.45L5.95 -83.8L3.15 -88.05L4.8 -88.05L4.75 -87.8Q4.75 -87.05 5.35 -86.55Q6 -85.95 6.9 -85.95Q7.75 -85.95 8.3 -86.55Q9 -87.05 9 -87.8L9 -88.05L12.15 -88.05Q11.25 -86.35 8.1 -82.15L5.95 -83.8" />
</g>
<g id="PathID_542" transform="matrix(1, 0, 0, 1, 49, 104.9)">
<radialGradient
id="RadialGradID_210" gradientUnits="userSpaceOnUse" gradientTransform="matrix(0.0159302, 0, 0, 0.013855, 0.45, -78.65)" spreadMethod ="pad" cx="0" cy="0" r="819.2" fx="6" fy="0" >
<stop  offset="0.211765"  style="stop-color:#FFEAA6;stop-opacity:1" />
<stop  offset="0.380392"  style="stop-color:#FFF45B;stop-opacity:1" />
<stop  offset="0.831373"  style="stop-color:#E09506;stop-opacity:1" />
</radialGradient>
<path style="fill:url(#RadialGradID_210) " d="M7.6 -74.3L5.15 -76.05L3.5 -77.15L2.1 -75.85L0.25 -73.85L-1.15 -74.7L-2.55 -75.55L-2.65 -75.6L-2.85 -75.45L-7.8 -73.95L-11.5 -81.45L-7.25 -76.35L-2.65 -79.15L0.45 -76.05L3.6 -79.15L8.15 -76.35L12.45 -81.45L10.35 -77.25L7.6 -74.3" />
<path style="fill:#FABF29;fill-opacity:1" d="M-7.8 -73.95L-2.85 -75.45L-7.25 -72.8L-7.8 -73.95M-2.55 -75.55L-1.15 -74.7L0.25 -73.85L2.1 -75.85L3.5 -77.15L5.15 -76.05L7.6 -74.3L10.35 -77.25L8.15 -72.8L3.6 -75.6L0.45 -72.5L-2.55 -75.55" />
<path style="fill:none;stroke-width:0.7;stroke-linecap:round;stroke-linejoin:round;stroke-miterlimit:3;stroke:#000000;stroke-opacity:0.301961" d="M10.35 -77.25L12.45 -81.45L8.15 -76.35L3.6 -79.15L0.45 -76.05L-2.65 -79.15L-7.25 -76.35L-11.5 -81.45L-7.8 -73.95L-2.85 -75.45L-2.65 -75.6L-2.55 -75.55L-1.15 -74.7L0.25 -73.85L2.1 -75.85L3.5 -77.15L5.15 -76.05L7.6 -74.3L10.35 -77.25L8.15 -72.8L3.6 -75.6L0.45 -72.5L-2.55 -75.55" />
<path style="fill:none;stroke-width:0.7;stroke-linecap:round;stroke-linejoin:round;stroke-miterlimit:3;stroke:#000000;stroke-opacity:0.301961" d="M-2.85 -75.45L-7.25 -72.8L-7.8 -73.95" />
</g>
<g id="PathID_543" transform="matrix(1, 0, 0, 1, 49, 104.9)">
<radialGradient
id="RadialGradID_211" gradientUnits="userSpaceOnUse" gradientTransform="matrix(1.43723, 0, 0, 1.38251, -53.55, -178)" spreadMethod ="pad" cx="0" cy="0" r="819.2" fx="6" fy="0" >
<stop  offset="0"  style="stop-color:#FFF269;stop-opacity:1" />
<stop  offset="0.223529"  style="stop-color:#E09506;stop-opacity:1" />
</radialGradient>
<path style="fill:url(#RadialGradID_211) " d="M18.2 -33.85L20.05 -34.8Q22.9 -32.1 22.9 -28.3L22.9 -28.1L20.1 -28.4Q19.85 -30.45 18.2 -33.85M17.6 -22.3Q19.15 -23.8 19.75 -25.5L20.85 -22.85L20.05 -22Q17.35 -19.35 13.45 -19.35L13 -19.35Q15.3 -19.9 17.6 -22.3" />
<radialGradient
id="RadialGradID_212" gradientUnits="userSpaceOnUse" gradientTransform="matrix(1.43723, 0, 0, 1.38251, -49.95, -180.4)" spreadMethod ="pad" cx="0" cy="0" r="819.2" fx="6" fy="0" >
<stop  offset="0"  style="stop-color:#FFF269;stop-opacity:1" />
<stop  offset="0.223529"  style="stop-color:#E09506;stop-opacity:1" />
</radialGradient>
<path style="fill:url(#RadialGradID_212) " d="M2 -19.4L1.25 -23.25L0.2 -26.65L0.45 -27.2L4.2 -17.55L-0.75 -19.65L2 -19.4" />
<radialGradient
id="RadialGradID_213" gradientUnits="userSpaceOnUse" gradientTransform="matrix(0.0179138, 0, 0, 0.0172272, 12.3, -26.45)" spreadMethod ="pad" cx="0" cy="0" r="819.2" fx="6" fy="0" >
<stop  offset="0.211765"  style="stop-color:#FFEAA6;stop-opacity:1" />
<stop  offset="0.380392"  style="stop-color:#FFF45B;stop-opacity:1" />
<stop  offset="0.831373"  style="stop-color:#E09506;stop-opacity:1" />
</radialGradient>
<path style="fill:url(#RadialGradID_213) " d="M13 -19.35Q9.35 -19.55 6.75 -22Q5 -23.7 4.35 -26.05L4.2 -26.65L18.2 -33.85Q19.85 -30.45 20.1 -28.4L18.35 -28.45L19.75 -25.5Q19.15 -23.8 17.6 -22.3Q15.3 -19.9 13 -19.35" />
<radialGradient
id="RadialGradID_214" gradientUnits="userSpaceOnUse" gradientTransform="matrix(0.0118713, 0, 0, 0.0114288, 0.6, -24.55)" spreadMethod ="pad" cx="0" cy="0" r="819.2" fx="6" fy="0" >
<stop  offset="0.211765"  style="stop-color:#FFEAA6;stop-opacity:1" />
<stop  offset="0.380392"  style="stop-color:#FFF45B;stop-opacity:1" />
<stop  offset="0.831373"  style="stop-color:#E09506;stop-opacity:1" />
</radialGradient>
<path style="fill:url(#RadialGradID_214) " d="M0.2 -26.65L1.25 -23.25L2 -19.4L-0.75 -19.65L-0.85 -19.7L-3.85 -17.5L0.2 -26.65" />
<radialGradient
id="RadialGradID_215" gradientUnits="userSpaceOnUse" gradientTransform="matrix(1.43723, 0, 0, 1.38251, -50.45, -183.65)" spreadMethod ="pad" cx="0" cy="0" r="819.2" fx="6" fy="0" >
<stop  offset="0"  style="stop-color:#FFF269;stop-opacity:1" />
<stop  offset="0.223529"  style="stop-color:#E09506;stop-opacity:1" />
</radialGradient>
<path style="fill:url(#RadialGradID_215) " d="M6.2 -7.65L11.7 -6.4Q16.85 -10.15 20.4 -16.9L24.1 -18.5Q22.9 -14.85 18.25 -9.65Q15.7 -6.85 12.45 -4.3L12.35 -4.25L7.45 -5.75L7.25 -3.25Q7.1 -1.15 7.25 -0.7L7.15 -0.65L5.75 -1.9L5.5 -2.1L6.2 -7.65M-2.15 -1.4L-3.05 -0.2L-3.2 -0.2L-3.85 -2.95L-2.15 -1.4M-5.05 -5L-8.3 -2.7L-10.1 -3.9Q-20.4 -11.35 -22.6 -17.5L-20.4 -16.6Q-15.05 -9.6 -8.8 -4.65L-5.05 -5" />
<radialGradient
id="RadialGradID_216" gradientUnits="userSpaceOnUse" gradientTransform="matrix(0.0319519, 0, 0, 0.0307312, 0.8, -17.5)" spreadMethod ="pad" cx="0" cy="0" r="819.2" fx="6" fy="0" >
<stop  offset="0.211765"  style="stop-color:#FFEAA6;stop-opacity:1" />
<stop  offset="0.380392"  style="stop-color:#FFF45B;stop-opacity:1" />
<stop  offset="0.831373"  style="stop-color:#E09506;stop-opacity:1" />
</radialGradient>
<path style="fill:url(#RadialGradID_216) " d="M-8.8 -4.65Q-15.05 -9.6 -20.4 -16.6Q-17 -15.4 -13.65 -14.6L-8.4 -8.35L-5.05 -14.95Q0.6 -12.65 5.95 -15.05L9.85 -8.9L13.65 -14.65Q17.05 -15.6 20.4 -16.9Q16.85 -10.15 11.7 -6.4L6.2 -7.65L5.5 -2.1L1.15 -6.55L-2.15 -1.4L-3.85 -2.95L-4.5 -5.25L-5.05 -5L-8.8 -4.65" />
<radialGradient
id="RadialGradID_217" gradientUnits="userSpaceOnUse" gradientTransform="matrix(0.0201569, 0, 0, 0.0193787, -11, -26.15)" spreadMethod ="pad" cx="0" cy="0" r="819.2" fx="6" fy="0" >
<stop  offset="0.211765"  style="stop-color:#FFEAA6;stop-opacity:1" />
<stop  offset="0.380392"  style="stop-color:#FFF45B;stop-opacity:1" />
<stop  offset="0.831373"  style="stop-color:#E09506;stop-opacity:1" />
</radialGradient>
<path style="fill:url(#RadialGradID_217) " d="M-11.05 -22.85Q-13.2 -21.8 -17.2 -21.8L-19.5 -21.85L-19.75 -22.15L-20.9 -23.45L-17.8 -27.65L-22.45 -27.5L-22.5 -28.45Q-22.5 -31.35 -20.75 -33.6L-19.8 -34.8L-6.4 -27.6Q-8.3 -24.1 -11.05 -22.85" />
<radialGradient
id="RadialGradID_218" gradientUnits="userSpaceOnUse" gradientTransform="matrix(1.43723, 0, 0, 1.38251, -46.7, -178.1)" spreadMethod ="pad" cx="0" cy="0" r="819.2" fx="6" fy="0" >
<stop  offset="0"  style="stop-color:#FFF269;stop-opacity:1" />
<stop  offset="0.223529"  style="stop-color:#E09506;stop-opacity:1" />
</radialGradient>
<path style="fill:url(#RadialGradID_218) " d="M-6.4 -27.6L-3.85 -26.3Q-4.35 -24.55 -5.55 -23.05L-6.5 -22.15Q-9.2 -19.4 -13.1 -19.4Q-16.85 -19.4 -19.5 -21.85L-17.2 -21.8Q-13.2 -21.8 -11.05 -22.85Q-8.3 -24.1 -6.4 -27.6" />
<path style="fill:none;stroke-width:0.7;stroke-linecap:round;stroke-linejoin:round;stroke-miterlimit:3;stroke:#000000;stroke-opacity:0.4" d="M20.1 -28.4L22.9 -28.1L22.9 -28.3Q22.9 -32.1 20.05 -34.8L18.2 -33.85" />
<path style="fill:none;stroke-width:0.7;stroke-linecap:round;stroke-linejoin:round;stroke-miterlimit:3;stroke:#000000;stroke-opacity:0.4" d="M20.1 -28.4L18.35 -28.45L19.75 -25.5L20.85 -22.85L20.05 -22Q17.35 -19.35 13.45 -19.35L13 -19.35Q9.35 -19.55 6.75 -22Q5 -23.7 4.35 -26.05L4.2 -26.65L18.2 -33.85" />
<path style="fill:none;stroke-width:0.7;stroke-linecap:round;stroke-linejoin:round;stroke-miterlimit:3;stroke:#000000;stroke-opacity:0.4" d="M-0.75 -19.65L4.2 -17.55L0.45 -27.2L0.2 -26.65" />
<path style="fill:none;stroke-width:0.7;stroke-linecap:round;stroke-linejoin:round;stroke-miterlimit:3;stroke:#000000;stroke-opacity:0.4" d="M-0.75 -19.65L-0.85 -19.7L-3.85 -17.5L0.2 -26.65" />
<path style="fill:none;stroke-width:0.7;stroke-linecap:round;stroke-linejoin:round;stroke-miterlimit:3;stroke:#000000;stroke-opacity:0.4" d="M20.4 -16.9L24.1 -18.5Q22.9 -14.85 18.25 -9.65Q15.7 -6.85 12.45 -4.3L12.35 -4.25L7.45 -5.75L7.25 -3.25Q7.1 -1.15 7.25 -0.7L7.15 -0.65L5.75 -1.9L5.5 -2.1L1.15 -6.55L-2.15 -1.4L-3.05 -0.2" />
<path style="fill:none;stroke-width:0.7;stroke-linecap:round;stroke-linejoin:round;stroke-miterlimit:3;stroke:#000000;stroke-opacity:0.4" d="M-3.2 -0.2L-3.85 -2.95L-4.5 -5.25L-5.05 -5L-8.3 -2.7L-10.1 -3.9Q-20.4 -11.35 -22.6 -17.5L-20.4 -16.6Q-17 -15.4 -13.65 -14.6L-8.4 -8.35L-5.05 -14.95Q0.6 -12.65 5.95 -15.05L9.85 -8.9L13.65 -14.65Q17.05 -15.6 20.4 -16.9" />
<path style="fill:none;stroke-width:0.7;stroke-linecap:round;stroke-linejoin:round;stroke-miterlimit:3;stroke:#000000;stroke-opacity:0.4" d="M-19.5 -21.85L-19.75 -22.15L-20.9 -23.45L-17.8 -27.65L-22.45 -27.5L-22.5 -28.45Q-22.5 -31.35 -20.75 -33.6L-19.8 -34.8L-6.4 -27.6L-3.85 -26.3Q-4.35 -24.55 -5.55 -23.05L-6.5 -22.15Q-9.2 -19.4 -13.1 -19.4Q-16.85 -19.4 -19.5 -21.85z" />
</g>
<g id="PathID_544" transform="matrix(1, 0, 0, 1, 49, 104.9)">
<path style="fill:#3B461B;fill-opacity:1" d="M19.35 -69Q19.25 -70.05 20.25 -70.9Q21.2 -71.8 21.85 -71.95Q20.25 -70.25 20.45 -68.4Q24.7 -72.25 27.9 -70.75L22.1 -72.8Q23.6 -76.8 24.8 -74.7L24.8 -73.65Q26.35 -74.8 26.6 -74.55Q27.6 -74.7 27.9 -74.1Q28.2 -73.6 27.4 -72.7L28.25 -72.3L29.5 -71.3L29.6 -71.15L29.65 -71.05Q30.05 -70.35 29.35 -69.95L29.2 -69.85L28.8 -69.65Q28.1 -69.2 26.85 -68.9L25.7 -68.7L25.35 -67.9L24.95 -67.15L24.85 -67.1L24.75 -67.05L23.8 -67.1L23.65 -67.3L23.5 -67.45L22.85 -68.4Q20.85 -67 19.9 -67.25Q19.5 -68 19.35 -69M27.9 -70.75Q24.7 -72.25 21.85 -71.95M20.45 -68.4Q20.25 -70.25 21.85 -71.95" />
<path style="fill:none;stroke-width:0.7;stroke-linecap:round;stroke-linejoin:round;stroke-miterlimit:3;stroke:#000000;stroke-opacity:0.301961" d="M19.35 -69Q19.25 -70.05 20.25 -70.9Q21.2 -71.8 21.85 -71.95L22.1 -72.8Q23.6 -76.8 24.8 -74.7L24.8 -73.65Q26.35 -74.8 26.6 -74.55Q27.6 -74.7 27.9 -74.1Q28.2 -73.6 27.4 -72.7L28.25 -72.3L29.5 -71.3L29.6 -71.15L29.65 -71.05Q30.05 -70.35 29.35 -69.95L29.2 -69.85L28.8 -69.65Q28.1 -69.2 26.85 -68.9L25.7 -68.7L25.35 -67.9L24.95 -67.15L24.85 -67.1L24.75 -67.05L23.8 -67.1L23.65 -67.3L23.5 -67.45L22.85 -68.4Q20.85 -67 19.9 -67.25Q19.5 -68 19.35 -69z" />
<path style="fill:none;stroke-width:0.7;stroke-linecap:round;stroke-linejoin:round;stroke-miterlimit:3;stroke:#000000;stroke-opacity:0.301961" d="M27.9 -70.75Q24.7 -72.25 21.85 -71.95Q20.25 -70.25 20.45 -68.4" />
</g>
<g id="PathID_545" transform="matrix(1, 0, 0, 1, 49, 104.9)">
<path style="fill:#3B461B;fill-opacity:1" d="M-24.3 -49.75Q-23.3 -48.9 -23.4 -47.85Q-23.55 -46.85 -23.95 -46.1Q-24.9 -45.85 -26.9 -47.25L-27.55 -46.3L-27.7 -46.15L-27.85 -45.95L-28.8 -45.9L-28.9 -45.95L-29 -46Q-29.2 -46.1 -29.4 -46.75L-29.75 -47.55L-30.9 -47.75Q-32.15 -48.05 -32.85 -48.5L-33.25 -48.7L-33.4 -48.8Q-34.1 -49.2 -33.7 -49.9L-33.65 -50L-33.55 -50.15L-32.3 -51.15L-31.45 -51.55Q-32.25 -52.45 -31.95 -52.95Q-31.65 -53.55 -30.65 -53.4Q-30.4 -53.65 -28.85 -52.5L-28.85 -53.55Q-27.65 -55.65 -26.15 -51.65L-25.9 -50.8Q-28.75 -51.1 -31.95 -49.6Q-24.3 -49.1 -24.5 -47.25Q-25.25 -50.65 -24.3 -49.75M-24.5 -47.25Q-24.3 -49.1 -25.9 -50.8M-31.95 -49.6Q-28.75 -51.1 -25.9 -50.8" />
<path style="fill:none;stroke-width:0.7;stroke-linecap:round;stroke-linejoin:round;stroke-miterlimit:3;stroke:#000000;stroke-opacity:0.301961" d="M-25.9 -50.8L-26.15 -51.65Q-27.65 -55.65 -28.85 -53.55L-28.85 -52.5Q-30.4 -53.65 -30.65 -53.4Q-31.65 -53.55 -31.95 -52.95Q-32.25 -52.45 -31.45 -51.55L-32.3 -51.15L-33.55 -50.15L-33.65 -50L-33.7 -49.9Q-34.1 -49.2 -33.4 -48.8L-33.25 -48.7L-32.85 -48.5Q-32.15 -48.05 -30.9 -47.75L-29.75 -47.55L-29.4 -46.75Q-29.2 -46.1 -29 -46L-28.9 -45.95L-28.8 -45.9L-27.85 -45.95L-27.7 -46.15L-27.55 -46.3L-26.9 -47.25Q-24.9 -45.85 -23.95 -46.1Q-23.55 -46.85 -23.4 -47.85Q-23.3 -48.9 -24.3 -49.75Q-25.25 -50.65 -25.9 -50.8Q-24.3 -49.1 -24.5 -47.25" />
<path style="fill:none;stroke-width:0.7;stroke-linecap:round;stroke-linejoin:round;stroke-miterlimit:3;stroke:#000000;stroke-opacity:0.301961" d="M-31.95 -49.6Q-28.75 -51.1 -25.9 -50.8" />
</g>
</svg>
