<?xml version="1.0" encoding="utf-8"?>
<svg version="1.1" id="Layer_1"
xmlns="http://www.w3.org/2000/svg"
xmlns:xlink="http://www.w3.org/1999/xlink"
width="40px" height="100px"
xml:space="preserve">
<g id="PathID_479" transform="matrix(1, 0, 0, 1, 0.5, 0.5)">
<linearGradient
id="LinearGradID_149" gradientUnits="userSpaceOnUse" gradientTransform="matrix(0.0233154, 0, 0, 0.0140381, 19.1, 18.4)" spreadMethod ="pad" x1="-819.2" y1="0" x2="819.2" y2="0" >
<stop  offset="0" style="stop-color:#7D5732;stop-opacity:1" />
<stop  offset="1" style="stop-color:#9A6533;stop-opacity:1" />
</linearGradient>
<path style="fill:url(#LinearGradID_149) " d="M1.9 29.9L0 15L2 12.5Q4.5 9.85 8.65 6.9Q17.15 6.8 25.45 12.5Q31.85 16.95 38.2 24.85L37.9 28.3Q4.15 8.4 1.9 29.9" />
<linearGradient
id="LinearGradID_150" gradientUnits="userSpaceOnUse" gradientTransform="matrix(0.00531006, -0.00141907, 0.00332642, 0.0124054, 8.15, 48.2)" spreadMethod ="pad" x1="-819.2" y1="0" x2="819.2" y2="0" >
<stop  offset="0" style="stop-color:#7D5732;stop-opacity:1" />
<stop  offset="1" style="stop-color:#9A6533;stop-opacity:1" />
</linearGradient>
<path style="fill:url(#LinearGradID_150) " d="M3.2 40.45L2.6 35.45Q29.9 42.35 5.25 56.5L4.45 50.1Q19.85 47.65 3.2 40.45" />
<radialGradient
id="RadialGradID_151" gradientUnits="userSpaceOnUse" gradientTransform="matrix(0.0122223, 0, 0, 0.0122223, 34.25, 82.75)" spreadMethod ="pad" cx="0" cy="0" r="819.2" fx="0" fy="0" >
<stop  offset="0"  style="stop-color:#7D5732;stop-opacity:1" />
<stop  offset="1"  style="stop-color:#9A6533;stop-opacity:1" />
</radialGradient>
<path style="fill:url(#RadialGradID_151) " d="M32.8 88.85Q9.45 78.7 33.8 77L32.8 88.85" />
<path style="fill:#6A401A;fill-opacity:1" d="M3.2 40.45Q19.85 47.65 4.45 50.1L3.2 40.45" />
<linearGradient
id="LinearGradID_152" gradientUnits="userSpaceOnUse" gradientTransform="matrix(0.00534058, -0.0198975, 0.0340118, 0.0091095, 23.25, 75.75)" spreadMethod ="pad" x1="-819.2" y1="0" x2="819.2" y2="0" >
<stop  offset="0" style="stop-color:#6A401A;stop-opacity:1" />
<stop  offset="1" style="stop-color:#7E4E20;stop-opacity:1" />
</linearGradient>
<path style="fill:url(#LinearGradID_152) " d="M32.8 88.85L32 98.5L21.25 98.25L18.3 92Q6.5 65.45 20 58.5Q33.15 52.4 36.85 40.8L33.8 77Q9.45 78.7 32.8 88.85" />
<radialGradient
id="RadialGradID_153" gradientUnits="userSpaceOnUse" gradientTransform="matrix(0.0245209, 0, 0, 0.0245209, 33.75, 32)" spreadMethod ="pad" cx="0" cy="0" r="819.2" fx="0" fy="0" >
<stop  offset="0"  style="stop-color:#7E4E20;stop-opacity:1" />
<stop  offset="1"  style="stop-color:#6A401A;stop-opacity:1" />
</radialGradient>
<path style="fill:url(#RadialGradID_153) " d="M2.6 35.45L1.9 29.9Q4.15 8.4 37.9 28.3L37.9 28.35Q17.4 57.9 5.95 62.1L5.25 56.5Q29.9 42.35 2.6 35.45" />
<linearGradient
id="LinearGradID_154" gradientUnits="userSpaceOnUse" gradientTransform="matrix(-0.013092, -0.013092, 0.0107269, -0.0107269, 23.75, 12.5)" spreadMethod ="pad" x1="-819.2" y1="0" x2="819.2" y2="0" >
<stop  offset="0" style="stop-color:#7E4E20;stop-opacity:1" />
<stop  offset="1" style="stop-color:#6A401A;stop-opacity:1" />
</linearGradient>
<path style="fill:url(#LinearGradID_154) " d="M25.45 12.5Q17.15 6.8 8.65 6.9Q13.3 3.65 20 0Q31.95 6.25 37.2 12.5L39 15L38.2 24.85Q31.85 16.95 25.45 12.5" />
<linearGradient
id="LinearGradID_155" gradientUnits="userSpaceOnUse" gradientTransform="matrix(0.0287933, -0.00772095, 0.0110474, 0.041214, 21.9, 63.3)" spreadMethod ="pad" x1="-819.2" y1="0" x2="819.2" y2="0" >
<stop  offset="0" style="stop-color:#7D5732;stop-opacity:1" />
<stop  offset="1" style="stop-color:#9A6533;stop-opacity:1" />
</linearGradient>
<path style="fill:url(#LinearGradID_155) " d="M21.25 98.25L10.5 98L5.95 62.1Q17.4 57.9 37.9 28.35L36.85 40.8Q33.15 52.4 20 58.5Q6.5 65.45 18.3 92L21.25 98.25" />
<path style="fill:none;stroke-width:1;stroke-linecap:round;stroke-linejoin:round;stroke-miterlimit:3;stroke:#000000;stroke-opacity:0.4" d="M8.65 6.9Q13.3 3.65 20 0Q31.95 6.25 37.2 12.5L39 15L38.2 24.85L37.9 28.3L37.9 28.35L36.85 40.8L33.8 77L32.8 88.85L32 98.5L21.25 98.25L10.5 98L5.95 62.1L5.25 56.5L4.45 50.1L3.2 40.45L2.6 35.45L1.9 29.9L0 15L2 12.5Q4.5 9.85 8.65 6.9z" />
</g>
<g id="PathID_480" transform="matrix(1, 0, 0, 1, 0.5, 0.5)">
<path style="fill:none;stroke-width:1;stroke-linecap:round;stroke-linejoin:round;stroke-miterlimit:3;stroke:#000000;stroke-opacity:0.2" d="M8.25 25L8 37.05" />
</g>
<g id="PathID_481" transform="matrix(1, 0, 0, 1, 0.5, 0.5)">
<path style="fill:none;stroke-width:1;stroke-linecap:round;stroke-linejoin:round;stroke-miterlimit:3;stroke:#000000;stroke-opacity:0.2" d="M11.25 26.75L11.25 41.75" />
</g>
<g id="PathID_482" transform="matrix(1, 0, 0, 1, 0.5, 0.5)">
<path style="fill:none;stroke-width:1;stroke-linecap:round;stroke-linejoin:round;stroke-miterlimit:3;stroke:#000000;stroke-opacity:0.2" d="M26 66L26 78" />
</g>
<g id="PathID_483" transform="matrix(1, 0, 0, 1, 0.5, 0.5)">
<path style="fill:none;stroke-width:1;stroke-linecap:round;stroke-linejoin:round;stroke-miterlimit:3;stroke:#000000;stroke-opacity:0.2" d="M29.75 60.5L29.75 72.75" />
</g>
</svg>
