<?xml version="1.0" encoding="utf-8"?>
<svg version="1.1" id="Layer_1"
xmlns="http://www.w3.org/2000/svg"
xmlns:xlink="http://www.w3.org/1999/xlink"
width="20px" height="26px"
xml:space="preserve">
<g id="PathID_1525" transform="matrix(1, 0, 0, 1, 22.7, 36.45)">
<path style="fill:#851A00;fill-opacity:1" d="M-8.8 -16.2L-13.3 -17Q-13 -19.65 -13.6 -21.25L-8.85 -19.6L-8.8 -16.2M-22.55 -33.9L-17.35 -36.3L-12.85 -32.1L-19.8 -31.55L-22.55 -33.9" />
<path style="fill:#D42A00;fill-opacity:1" d="M-8.85 -19.6L-13.6 -21.25L-15 -24.85Q-13.85 -25.45 -12.75 -25.55Q-11.2 -25.6 -9.6 -24.85Q-8.9 -22.1 -8.85 -19.6M-19.8 -31.55L-12.85 -32.1L-10.7 -28.1Q-11.7 -27.1 -13.15 -26.75L-16.1 -26.9Q-17.7 -29.5 -19.8 -31.55" />
<path style="fill:#FF4D20;fill-opacity:1" d="M-16.1 -26.9L-13.15 -26.75Q-11.7 -27.1 -10.7 -28.1L-9.6 -24.85Q-11.2 -25.6 -12.75 -25.55Q-13.85 -25.45 -15 -24.85L-16.1 -26.9" />
<path style="fill:none;stroke-width:0.7;stroke-linecap:round;stroke-linejoin:round;stroke-miterlimit:3;stroke:#000000;stroke-opacity:0.301961" d="M-9.6 -24.85L-10.7 -28.1" />
<path style="fill:none;stroke-width:0.7;stroke-linecap:round;stroke-linejoin:round;stroke-miterlimit:3;stroke:#000000;stroke-opacity:0.301961" d="M-16.1 -26.9L-15 -24.85L-13.6 -21.25" />
<path style="fill:none;stroke-width:0.7;stroke-linecap:round;stroke-linejoin:round;stroke-miterlimit:3;stroke:#000000;stroke-opacity:0.301961" d="M-8.85 -19.6Q-8.9 -22.1 -9.6 -24.85" />
<path style="fill:none;stroke-width:0.7;stroke-linecap:round;stroke-linejoin:round;stroke-miterlimit:3;stroke:#000000;stroke-opacity:0.301961" d="M-10.7 -28.1L-12.85 -32.1" />
<path style="fill:none;stroke-width:0.7;stroke-linecap:round;stroke-linejoin:round;stroke-miterlimit:3;stroke:#000000;stroke-opacity:0.301961" d="M-19.8 -31.55Q-17.7 -29.5 -16.1 -26.9" />
<path style="fill:none;stroke-width:0.7;stroke-linecap:round;stroke-linejoin:round;stroke-miterlimit:3;stroke:#000000;stroke-opacity:0.301961" d="M-12.85 -32.1L-17.35 -36.3L-22.55 -33.9L-19.8 -31.55" />
<path style="fill:none;stroke-width:0.7;stroke-linecap:round;stroke-linejoin:round;stroke-miterlimit:3;stroke:#000000;stroke-opacity:0.301961" d="M-13.6 -21.25Q-13 -19.65 -13.3 -17L-8.8 -16.2L-8.85 -19.6" />
</g>
<g id="PathID_1526" transform="matrix(1, 0, 0, 1, 22.7, 36.45)">
<linearGradient
id="LinearGradID_783" gradientUnits="userSpaceOnUse" gradientTransform="matrix(-0.000946045, 0.00280762, -0.00265503, -0.000991821, -11.15, -31.35)" spreadMethod ="pad" x1="-819.2" y1="0" x2="819.2" y2="0" >
<stop  offset="0" style="stop-color:#F3BA2E;stop-opacity:1" />
<stop  offset="1" style="stop-color:#D2840D;stop-opacity:1" />
</linearGradient>
<path style="fill:url(#LinearGradID_783) " d="M-13.7 -33.1L-11.65 -30.55L-12.65 -28.8L-13.7 -33.1" />
<linearGradient
id="LinearGradID_784" gradientUnits="userSpaceOnUse" gradientTransform="matrix(-0.000946045, 0.00280762, -0.00265503, -0.000991821, -11.75, -29.85)" spreadMethod ="pad" x1="-819.2" y1="0" x2="819.2" y2="0" >
<stop  offset="0" style="stop-color:#F3BA2E;stop-opacity:1" />
<stop  offset="0.988235" style="stop-color:#E7961B;stop-opacity:1" />
</linearGradient>
<path style="fill:url(#LinearGradID_784) " d="M-8.2 -30.2L-12.65 -28.8L-11.65 -30.55L-8.2 -30.2" />
<linearGradient
id="LinearGradID_785" gradientUnits="userSpaceOnUse" gradientTransform="matrix(-0.00186157, -0.001297, 0.0017395, -0.00279236, -11.2, -27.2)" spreadMethod ="pad" x1="-819.2" y1="0" x2="819.2" y2="0" >
<stop  offset="0" style="stop-color:#E7961B;stop-opacity:1" />
<stop  offset="1" style="stop-color:#BD6700;stop-opacity:1" />
</linearGradient>
<path style="fill:url(#LinearGradID_785) " d="M-9.65 -27.9L-12.65 -28.8L-8.7 -24.95L-11.9 -25.95L-12.65 -28.8L-8.2 -30.2L-9.65 -27.9" />
<linearGradient
id="LinearGradID_786" gradientUnits="userSpaceOnUse" gradientTransform="matrix(0.00198364, -0.00210571, 0.00224304, 0.00236511, -12.8, -27.1)" spreadMethod ="pad" x1="-819.2" y1="0" x2="819.2" y2="0" >
<stop  offset="0" style="stop-color:#F3BA2E;stop-opacity:1" />
<stop  offset="0.988235" style="stop-color:#E7961B;stop-opacity:1" />
</linearGradient>
<path style="fill:url(#LinearGradID_786) " d="M-14.25 -23.35L-12.65 -28.8L-11.9 -25.95L-14.25 -23.35" />
<linearGradient
id="LinearGradID_787" gradientUnits="userSpaceOnUse" gradientTransform="matrix(-0.00198364, 0.00210571, -0.00198364, -0.00210571, -15.6, -27.55)" spreadMethod ="pad" x1="-819.2" y1="0" x2="819.2" y2="0" >
<stop  offset="0" style="stop-color:#EEB21E;stop-opacity:1" />
<stop  offset="0.988235" style="stop-color:#FFD448;stop-opacity:1" />
</linearGradient>
<path style="fill:url(#LinearGradID_787) " d="M-17.1 -27.65L-14.5 -29.65L-12.65 -28.8L-17.1 -27.65" />
<linearGradient
id="LinearGradID_788" gradientUnits="userSpaceOnUse" gradientTransform="matrix(0.00109863, -0.00273132, 0.00257874, 0.00117493, -15.35, -30.15)" spreadMethod ="pad" x1="-819.2" y1="0" x2="819.2" y2="0" >
<stop  offset="0" style="stop-color:#F3BA2E;stop-opacity:1" />
<stop  offset="0.988235" style="stop-color:#FFD448;stop-opacity:1" />
</linearGradient>
<path style="fill:url(#LinearGradID_788) " d="M-13.7 -33.1L-12.65 -28.8L-14.5 -29.65L-13.7 -33.1" />
<path style="fill:#CF7B0B;fill-opacity:1" d="M-14.25 -23.35L-14.35 -26.75L-12.65 -28.8L-14.25 -23.35" />
<path style="fill:#E7A517;fill-opacity:1" d="M-17.1 -27.65L-12.65 -28.8L-14.35 -26.75L-17.1 -27.65" />
<path style="fill:#EDA824;fill-opacity:1" d="M-8.7 -24.95L-12.65 -28.8L-9.65 -27.9L-8.7 -24.95" />
<path style="fill:none;stroke-width:0.7;stroke-linecap:round;stroke-linejoin:round;stroke-miterlimit:3;stroke:#3C2501;stroke-opacity:0.231373" d="M-12.65 -28.8L-11.65 -30.55" />
<path style="fill:none;stroke-width:0.7;stroke-linecap:round;stroke-linejoin:round;stroke-miterlimit:3;stroke:#000000;stroke-opacity:0.4" d="M-11.65 -30.55L-13.7 -33.1" />
<path style="fill:none;stroke-width:0.7;stroke-linecap:round;stroke-linejoin:round;stroke-miterlimit:3;stroke:#3C2501;stroke-opacity:0.231373" d="M-12.65 -28.8L-14.5 -29.65" />
<path style="fill:none;stroke-width:0.7;stroke-linecap:round;stroke-linejoin:round;stroke-miterlimit:3;stroke:#000000;stroke-opacity:0.4" d="M-14.5 -29.65L-17.1 -27.65" />
<path style="fill:none;stroke-width:0.7;stroke-linecap:round;stroke-linejoin:round;stroke-miterlimit:3;stroke:#000000;stroke-opacity:0.4" d="M-8.2 -30.2L-11.65 -30.55" />
<path style="fill:none;stroke-width:0.7;stroke-linecap:round;stroke-linejoin:round;stroke-miterlimit:3;stroke:#3C2501;stroke-opacity:0.231373" d="M-12.65 -28.8L-11.9 -25.95" />
<path style="fill:none;stroke-width:0.7;stroke-linecap:round;stroke-linejoin:round;stroke-miterlimit:3;stroke:#000000;stroke-opacity:0.4" d="M-11.9 -25.95L-8.7 -24.95" />
<path style="fill:none;stroke-width:0.7;stroke-linecap:round;stroke-linejoin:round;stroke-miterlimit:3;stroke:#3C2501;stroke-opacity:0.231373" d="M-12.65 -28.8L-9.65 -27.9" />
<path style="fill:none;stroke-width:0.7;stroke-linecap:round;stroke-linejoin:round;stroke-miterlimit:3;stroke:#000000;stroke-opacity:0.4" d="M-9.65 -27.9L-8.2 -30.2" />
<path style="fill:none;stroke-width:0.7;stroke-linecap:round;stroke-linejoin:round;stroke-miterlimit:3;stroke:#3C2501;stroke-opacity:0.231373" d="M-12.65 -28.8L-14.35 -26.75" />
<path style="fill:none;stroke-width:0.7;stroke-linecap:round;stroke-linejoin:round;stroke-miterlimit:3;stroke:#000000;stroke-opacity:0.4" d="M-14.35 -26.75L-14.25 -23.35" />
<path style="fill:none;stroke-width:0.7;stroke-linecap:round;stroke-linejoin:round;stroke-miterlimit:3;stroke:#000000;stroke-opacity:0.4" d="M-14.35 -26.75L-17.1 -27.65" />
<path style="fill:none;stroke-width:0.7;stroke-linecap:round;stroke-linejoin:round;stroke-miterlimit:3;stroke:#000000;stroke-opacity:0.4" d="M-14.5 -29.65L-13.7 -33.1" />
<path style="fill:none;stroke-width:0.7;stroke-linecap:round;stroke-linejoin:round;stroke-miterlimit:3;stroke:#000000;stroke-opacity:0.4" d="M-9.65 -27.9L-8.7 -24.95" />
<path style="fill:none;stroke-width:0.7;stroke-linecap:round;stroke-linejoin:round;stroke-miterlimit:3;stroke:#000000;stroke-opacity:0.4" d="M-11.9 -25.95L-14.25 -23.35" />
</g>
<g id="PathID_1527" transform="matrix(1, 0, 0, 1, 22.7, 36.45)">
<radialGradient
id="RadialGradID_789" gradientUnits="userSpaceOnUse" gradientTransform="matrix(0.00854492, 0, 0, 0.00904846, -9.8, -19.6)" spreadMethod ="pad" cx="0" cy="0" r="819.2" fx="0" fy="0" >
<stop  offset="0.0313725"  style="stop-color:#FB4E04;stop-opacity:1" />
<stop  offset="0.25098"  style="stop-color:#BA3E00;stop-opacity:1" />
<stop  offset="1"  style="stop-color:#632100;stop-opacity:1" />
</radialGradient>
<path style="fill:url(#RadialGradID_789) " d="M-5.35 -20.2Q-3.8 -18.65 -3.8 -16.35Q-3.8 -14.1 -5.35 -12.45Q-6.85 -10.9 -9 -10.9Q-11.15 -10.9 -12.65 -12.45Q-14.2 -14.1 -14.2 -16.35Q-14.2 -18.65 -12.65 -20.2Q-11.15 -21.85 -9 -21.85Q-6.85 -21.85 -5.35 -20.2M-9.35 -12.6Q-10.95 -12.6 -12.15 -13.65L-11.6 -12.85Q-10.4 -11.7 -8.75 -11.7Q-7.05 -11.7 -5.95 -12.85Q-4.75 -14.1 -4.75 -15.85Q-4.75 -16.95 -5.25 -17.8L-5.2 -16.95Q-5.2 -15.1 -6.4 -13.85Q-7.6 -12.6 -9.35 -12.6" />
<linearGradient
id="LinearGradID_790" gradientUnits="userSpaceOnUse" gradientTransform="matrix(-0.00198364, -0.00363159, 0.00311279, -0.00187683, -6.6, -13.25)" spreadMethod ="pad" x1="-819.2" y1="0" x2="819.2" y2="0" >
<stop  offset="0" style="stop-color:#DB4602;stop-opacity:1" />
<stop  offset="1" style="stop-color:#7C2900;stop-opacity:1" />
</linearGradient>
<path style="fill:url(#LinearGradID_790) " d="M-6.4 -13.85Q-5.2 -15.1 -5.2 -16.95L-5.25 -17.8Q-4.75 -16.95 -4.75 -15.85Q-4.75 -14.1 -5.95 -12.85Q-7.05 -11.7 -8.75 -11.7Q-10.4 -11.7 -11.6 -12.85L-12.15 -13.65Q-10.95 -12.6 -9.35 -12.6Q-7.6 -12.6 -6.4 -13.85" />
<path style="fill:none;stroke-width:0.7;stroke-linecap:round;stroke-linejoin:round;stroke-miterlimit:3;stroke:#000000;stroke-opacity:0.45098" d="M-5.35 -20.2Q-3.8 -18.65 -3.8 -16.35Q-3.8 -14.1 -5.35 -12.45Q-6.85 -10.9 -9 -10.9Q-11.15 -10.9 -12.65 -12.45Q-14.2 -14.1 -14.2 -16.35Q-14.2 -18.65 -12.65 -20.2Q-11.15 -21.85 -9 -21.85Q-6.85 -21.85 -5.35 -20.2z" />
</g>
<g id="PathID_1528" transform="matrix(1, 0, 0, 1, 22.7, 36.45)">
<linearGradient
id="LinearGradID_791" gradientUnits="userSpaceOnUse" gradientTransform="matrix(-0.00163269, 0.00297546, -0.00218201, -0.00132751, -11.15, -19.25)" spreadMethod ="pad" x1="-819.2" y1="0" x2="819.2" y2="0" >
<stop  offset="0" style="stop-color:#FFFFFF;stop-opacity:0.501961" />
<stop  offset="1" style="stop-color:#FFFFFF;stop-opacity:0" />
</linearGradient>
<path style="fill:url(#LinearGradID_791) " d="M-10.4 -20.55Q-9.85 -20.3 -9.85 -19.45Q-9.8 -18.65 -10.25 -17.8Q-10.75 -16.9 -11.4 -16.6L-12.55 -16.5Q-13.15 -16.85 -13.2 -17.65Q-13.25 -18.45 -12.8 -19.3L-11.65 -20.5L-10.4 -20.55" />
<linearGradient
id="LinearGradID_792" gradientUnits="userSpaceOnUse" gradientTransform="matrix(-0.000793457, 0.00143433, -0.00100708, -0.000610352, -12.35, -15.15)" spreadMethod ="pad" x1="-819.2" y1="0" x2="819.2" y2="0" >
<stop  offset="0" style="stop-color:#FFFFFF;stop-opacity:0.501961" />
<stop  offset="1" style="stop-color:#FFFFFF;stop-opacity:0" />
</linearGradient>
<path style="fill:url(#LinearGradID_792) " d="M-13.35 -14.45L-13.35 -15.2L-12.95 -15.6L-12.5 -15.45L-12.1 -14.8L-12.1 -14.15L-12.5 -13.65Q-12.75 -13.6 -13.05 -13.85L-13.35 -14.45" />
</g>
<g id="PathID_1529" transform="matrix(1, 0, 0, 1, 22.7, 36.45)">
<path style="fill:#F2CF52;fill-opacity:1" d="M-7.65 -22.1L-8.15 -22L-9.1 -21.95L-9.8 -21.95L-9.85 -21.95L-10.2 -22L-10.75 -22.1L-11.2 -22.6Q-11.25 -22.45 -11.25 -22.6Q-11.2 -22.8 -10.65 -22.85L-9.1 -22.95L-7.65 -22.85Q-7 -22.7 -7 -22.45L-7 -22.4Q-7.05 -22.25 -7.65 -22.1" />
<path style="fill:#BA6D27;fill-opacity:1" d="M-10.2 -20.55L-10.75 -20.7L-11.2 -20.85L-11.2 -22.6L-10.75 -22.1L-10.2 -22L-10.2 -20.55M-8.15 -22L-7.65 -22.1Q-7.05 -22.25 -7 -22.4L-7 -21.05L-7.65 -20.7L-8.15 -20.55L-8.15 -22" />
<path style="fill:#D48627;fill-opacity:1" d="M-8.15 -20.55L-9.1 -20.5L-9.75 -20.5L-9.8 -20.5L-9.8 -21.95L-9.1 -21.95L-8.15 -22L-8.15 -20.55" />
<path style="fill:#F2DD8E;fill-opacity:1" d="M-9.8 -20.5L-10.2 -20.55L-10.2 -22L-9.85 -21.95L-9.8 -21.95L-9.8 -20.5" />
<path style="fill:none;stroke-width:0.7;stroke-linecap:round;stroke-linejoin:round;stroke-miterlimit:3;stroke:#000000;stroke-opacity:0.301961" d="M-7 -22.4L-7 -22.45Q-7 -22.7 -7.65 -22.85L-9.1 -22.95L-10.65 -22.85Q-11.2 -22.8 -11.25 -22.6Q-11.25 -22.45 -11.2 -22.6" />
<path style="fill:none;stroke-width:0.7;stroke-linecap:round;stroke-linejoin:round;stroke-miterlimit:3;stroke:#000000;stroke-opacity:0.301961" d="M-7 -22.4L-7 -21.05L-7.65 -20.7L-8.15 -20.55L-9.1 -20.5L-9.75 -20.5" />
<path style="fill:none;stroke-width:0.7;stroke-linecap:round;stroke-linejoin:round;stroke-miterlimit:3;stroke:#000000;stroke-opacity:0.301961" d="M-9.8 -20.5L-10.2 -20.55L-10.75 -20.7L-11.2 -20.85L-11.2 -22.6" />
</g>
<g id="PathID_1530" transform="matrix(1, 0, 0, 1, 22.7, 36.45)">
<path style="fill:none;stroke-width:0.7;stroke-linecap:round;stroke-linejoin:round;stroke-miterlimit:3;stroke:#000000;stroke-opacity:0.45098" d="M-9.3 -22.5Q-10.2 -25.4 -8.55 -25.4" />
<path style="fill:none;stroke-width:0.7;stroke-linecap:round;stroke-linejoin:round;stroke-miterlimit:3;stroke:#000000;stroke-opacity:0.45098" d="M-7.95 -22.45Q-7.4 -23 -7.4 -23.95" />
</g>
</svg>
