<?xml version="1.0" encoding="utf-8"?>
<svg version="1.1" id="Layer_1"
xmlns="http://www.w3.org/2000/svg"
xmlns:xlink="http://www.w3.org/1999/xlink"
width="47px" height="54px"
xml:space="preserve">
<g id="PathID_1855" transform="matrix(1, 0, 0, 1, 23.15, 53.4)">
<path style="fill:#4B4F04;fill-opacity:1" d="M2.75 0L-0.6 0L-2.75 0L-1.05 -1.7Q-0.85 -2.05 0.4 -5.95L1.15 -1.75L1.8 -2.35L2.35 -1.4L1.8 -8.65L2.75 -6.4L2.75 0M-2.75 0L-2.75 -2.3L-1.55 -0.65L-1.05 -1.7L-0.6 0" />
<path style="fill:#4F2D04;fill-opacity:1" d="M-1.55 -0.65L-2.75 -2.3L-2.75 -3.15Q-1.75 -4.5 -1.1 -6.2Q0.15 -9.4 -0.05 -13.7L-0.2 -17.85L-0.4 -20.85Q-1 -25 -2.75 -25.85L-2.75 -30L2.75 -30L2.75 -6.4L1.8 -8.65L2.35 -1.4L1.8 -2.35L1.15 -1.75L1.4 -5.25L0.4 -5.95Q-0.85 -2.05 -1.05 -1.7L-1.55 -0.65M1.4 -5.25L1.15 -1.75M1.7 -9.3L1.5 -17.25L1.7 -9.3M0.85 -22.85L0.85 -26.25L0.85 -22.85" />
<path style="fill:#AD6A1B;fill-opacity:1" d="M-2.25 -9.65L-2.75 -9.45L-2.75 -24.5Q-2.25 -24.25 -1.6 -21.95Q-0.65 -18.65 -0.7 -13.55Q-0.7 -13 -1.05 -11.7L-1.5 -10.25L-1.9 -17.65Q-1.7 -9.9 -2.25 -9.65M-1.9 -17.65L-1.5 -10.25" />
<path style="fill:#85551C;fill-opacity:1" d="M-2.75 -9.45L-2.25 -9.65Q-1.7 -9.9 -1.5 -10.25L-1.05 -11.7Q-0.7 -13 -0.7 -13.55Q-0.65 -18.65 -1.6 -21.95Q-2.25 -24.25 -2.75 -24.5L-2.75 -25.85Q-1 -25 -0.4 -20.85L-0.2 -17.85L-0.05 -13.7Q0.15 -9.4 -1.1 -6.2Q-1.75 -4.5 -2.75 -3.15L-2.75 -9.45" />
<path style="fill:none;stroke-width:0.7;stroke-linecap:round;stroke-linejoin:round;stroke-miterlimit:3;stroke:#000000;stroke-opacity:0.168627" d="M-1.05 -1.7L-0.6 0" />
<path style="fill:none;stroke-width:0.7;stroke-linecap:round;stroke-linejoin:round;stroke-miterlimit:3;stroke:#000000;stroke-opacity:0.388235" d="M-0.6 0L2.75 0L2.75 -6.4L2.75 -30L-2.75 -30L-2.75 -25.85" />
<path style="fill:none;stroke-width:0.7;stroke-linecap:round;stroke-linejoin:round;stroke-miterlimit:3;stroke:#000000;stroke-opacity:0.388235" d="M-2.75 -3.15L-2.75 -2.3" />
<path style="fill:none;stroke-width:0.7;stroke-linecap:round;stroke-linejoin:round;stroke-miterlimit:3;stroke:#000000;stroke-opacity:0.168627" d="M1.4 -5.25L1.15 -1.75" />
<path style="fill:none;stroke-width:0.7;stroke-linecap:round;stroke-linejoin:round;stroke-miterlimit:3;stroke:#000000;stroke-opacity:0.168627" d="M1.5 -17.25L1.7 -9.3" />
<path style="fill:none;stroke-width:0.7;stroke-linecap:round;stroke-linejoin:round;stroke-miterlimit:3;stroke:#000000;stroke-opacity:0.168627" d="M0.85 -26.25L0.85 -22.85" />
<path style="fill:none;stroke-width:0.7;stroke-linecap:round;stroke-linejoin:round;stroke-miterlimit:3;stroke:#000000;stroke-opacity:0.388235" d="M-2.75 -24.5L-2.75 -9.45" />
<path style="fill:none;stroke-width:0.7;stroke-linecap:round;stroke-linejoin:round;stroke-miterlimit:3;stroke:#000000;stroke-opacity:0.168627" d="M-1.5 -10.25L-1.9 -17.65" />
<path style="fill:none;stroke-width:0.7;stroke-linecap:round;stroke-linejoin:round;stroke-miterlimit:3;stroke:#000000;stroke-opacity:0.388235" d="M-2.75 -3.15L-2.75 -9.45" />
<path style="fill:none;stroke-width:0.7;stroke-linecap:round;stroke-linejoin:round;stroke-miterlimit:3;stroke:#000000;stroke-opacity:0.388235" d="M-2.75 -24.5L-2.75 -25.85" />
<path style="fill:none;stroke-width:0.7;stroke-linecap:round;stroke-linejoin:round;stroke-miterlimit:3;stroke:#000000;stroke-opacity:0.388235" d="M-0.6 0L-2.75 0L-2.75 -2.3" />
</g>
<g id="PathID_1856" transform="matrix(1, 0, 0, 1, 23.15, 53.4)">
<path style="fill:#563106;fill-opacity:1" d="M14.75 -33.4Q10.3 -33.4 5.4 -34.75Q1.75 -35.75 -0.15 -37.2L0.95 -38.25L13.9 -38.25L0.95 -38.25Q4.7 -41.9 4.7 -45Q4.7 -47.95 1.95 -51.2L3 -52.35L15.1 -52.35L14.8 -51.9Q14.25 -51 14.25 -49.25L14.25 -48.95Q14.4 -46.65 16.65 -45.05Q18.9 -43.45 22.2 -43.45L22.5 -43.45L22.5 -34.55Q18.55 -33.4 14.75 -33.4M-8.55 -32.9L-7.35 -32.45Q-5.2 -31.65 0.4 -28.75L0.75 -28.55Q0.55 -26.7 -0.85 -25.7Q-2.3 -24.65 -4.05 -25.25L-6.55 -25.6L-10.3 -26.2Q-12.45 -26.75 -11.9 -28.05Q-13.15 -26 -17.45 -26L-19.95 -25.65L-22.95 -27.4L-22.95 -31.2Q-19.6 -31.05 -10.9 -32.35L-8.55 -32.9M10.75 -48.95L14.25 -48.95L10.75 -48.95M5.25 -25.2L2.75 -25.3Q1.85 -25.6 1.35 -26.3L0.8 -28.55Q4.25 -26.8 7.65 -25.65L5.25 -25.2M12.3 -36.8L10.1 -36.8L12.3 -36.8M9 -47.55L11.25 -47.55L9 -47.55M-3.7 -29.15L-5.65 -29.15L-3.7 -29.15M-4.1 -30.2L-17 -30.2L-4.1 -30.2M-17.1 -27.05L-21.75 -27.05L-17.1 -27.05" />
<path style="fill:#643A09;fill-opacity:1" d="M3 -52.35L1.95 -51.2L0.9 -52.35L3 -52.35M22.2 -43.45Q18.9 -43.45 16.65 -45.05Q14.4 -46.65 14.25 -48.95L19.4 -48.95L14.25 -48.95L14.25 -49.25Q14.25 -51 14.8 -51.9L15.1 -52.35L20 -52.35L22.5 -50.4L22.5 -50.3L22.5 -43.45L22.2 -43.45M-0.15 -37.2Q1.75 -35.75 5.4 -34.75Q10.3 -33.4 14.75 -33.4Q18.55 -33.4 22.5 -34.55L22.5 -30.45L22.2 -30.1L19.7 -31.05L18.3 -28.25Q17.4 -26.9 15.8 -27.3L15.6 -28.1L15.6 -30.8L15.6 -28.1L15.45 -27.45L13.75 -29.6L13.15 -27.1Q12.5 -24.85 10.55 -25.9L9.2 -25.95L7.65 -25.65Q4.25 -26.8 0.8 -28.55L0.75 -28.75L0.75 -28.55L0.4 -28.75Q-5.2 -31.65 -7.35 -32.45L-8.55 -32.9L-6.45 -33.55Q-3.65 -34.55 -2.35 -35.5L-0.15 -37.2M17.65 -33L14.35 -33L17.65 -33M13.3 -28.75L3 -28.75L13.3 -28.75" />
<path style="fill:#85551C;fill-opacity:1" d="M-0.15 -48.3L-0.15 -48.25Q-2.25 -44.7 -2.4 -41.9L-11.6 -48.25Q-10.25 -50.55 -10.2 -51.8L0.9 -52.35L1.95 -51.2Q0.85 -49.95 -0.15 -48.3M-2.4 -41.9L-16.35 -42.55Q-14.4 -44.05 -12.5 -46.9L-11.6 -48.25L-0.15 -48.25M-2.35 -35.5Q-3.65 -34.55 -6.45 -33.55L-8.55 -32.9Q-12.45 -34.1 -16.45 -34.1L-21.1 -33.9L-22.95 -33.4L-22.95 -39.25L-22.9 -39.4Q-20.75 -40 -17.6 -41.75L-16.8 -42.25L-12.55 -41.75L-2.45 -41.75L-2.45 -41.4Q-2.45 -39.65 -1.25 -38.25L-0.15 -37.2L-2.35 -35.5M-7.95 -38.25L-1.25 -38.25L-7.95 -38.25" />
<path style="fill:#B47222;fill-opacity:1" d="M0.9 -52.35L-10.2 -52.35L-21.2 -52.35L-20 -53.2L21.2 -53.2L20 -52.35L15.1 -52.35L3 -52.35L0.9 -52.35" />
<path style="fill:#774307;fill-opacity:1" d="M22.5 -50.4L20 -52.35L21.2 -53.2L23.5 -51.3L22.5 -50.3L22.5 -50.4" />
<path style="fill:#381E00;fill-opacity:1" d="M22.5 -30.45L22.5 -34.55L22.5 -43.45L22.5 -50.3L23.5 -51.3L23.5 -28.95L22.5 -27.9L22.5 -30.45" />
<path style="fill:#4B4F04;fill-opacity:1" d="M15.8 -27.3Q17.4 -26.9 18.3 -28.25L19.7 -31.05L22.2 -30.1L22.5 -30.45L22.5 -27.9L20 -24.85L16.3 -24.85L16 -26.1L15.8 -27.3M1.35 -26.3Q1.85 -25.6 2.75 -25.3L5.25 -25.2L7.65 -25.65L9.2 -25.95L10.55 -25.9Q12.5 -24.85 13.15 -27.1L13.75 -29.6L15.45 -27.45L14.75 -24.85L10.35 -24.85L-21.3 -24.85L-22.95 -27.4L-19.95 -25.65L-17.45 -26Q-13.15 -26 -11.9 -28.05Q-12.45 -26.75 -10.3 -26.2L-6.55 -25.6L-4.05 -25.25Q-2.3 -24.65 -0.85 -25.7Q0.55 -26.7 0.75 -28.55L0.8 -28.55M0.75 -28.55L0.75 -28.75L0.8 -28.55L1.35 -26.3L0.75 -28.55M10.35 -24.85L7.65 -25.65L10.35 -24.85" />
<path style="fill:#744610;fill-opacity:1" d="M-1.25 -38.25L0.95 -38.25L-0.15 -37.2L-1.25 -38.25Q-2.45 -39.65 -2.45 -41.4L-2.45 -41.75L2.65 -41.75L-2.4 -41.9Q-2.25 -44.7 -0.15 -48.25L-0.15 -48.3Q0.85 -49.95 1.95 -51.2Q4.7 -47.95 4.7 -45Q4.7 -41.9 0.95 -38.25L-1.25 -38.25M-12.5 -46.9Q-14.4 -44.05 -16.35 -42.55L-21.1 -42.75L-16.8 -42.25L-17.6 -41.75Q-20.75 -40 -22.9 -39.4L-20.9 -49.75L-10.2 -51.8Q-10.25 -50.55 -11.6 -48.25L-13.4 -48.25L-12.5 -46.9M-21.1 -33.9L-16.45 -34.1Q-12.45 -34.1 -8.55 -32.9L-10.9 -32.35Q-19.6 -31.05 -22.95 -31.2L-22.95 -33.4L-21.1 -33.9M-13.4 -48.25L-11.6 -48.25M-18.15 -44L-19.1 -44L-18.15 -44M-18.3 -46.6L-15.45 -46.6L-18.3 -46.6M1.25 -48.25L-0.15 -48.25L1.25 -48.25" />
<path style="fill:#272A00;fill-opacity:1" d="M15.45 -27.45L15.6 -28.1L15.8 -27.3L16 -26.1L14.75 -24.85L15.45 -27.45" />
<path style="fill:#AA6614;fill-opacity:1" d="M-10.2 -51.9L-10.2 -52.35L0.9 -52.35L-10.2 -51.8L-10.2 -51.9M-22.95 -39.25L-22.95 -39.4L-22.9 -39.4L-22.95 -39.25M-12.55 -41.75L-16.8 -42.25L-21.1 -42.75L-16.35 -42.55L-16.8 -42.25L-16.35 -42.55L-2.4 -41.9L-2.45 -41.75M-2.4 -41.9L2.65 -41.75L-2.45 -41.75L-12.55 -41.75L-2.4 -41.9" />
<path style="fill:#9C5E12;fill-opacity:1" d="M-10.2 -51.8L-20.9 -49.75L-22.9 -39.4L-22.95 -39.4L-22.95 -50.4L-21.2 -52.35L-10.2 -52.35L-10.2 -51.9L-10.2 -51.8" />
<path style="fill:none;stroke-width:0.7;stroke-linecap:round;stroke-linejoin:round;stroke-miterlimit:3;stroke:#000000;stroke-opacity:0.101961" d="M3 -52.35L1.95 -51.2" />
<path style="fill:none;stroke-width:0.7;stroke-linecap:round;stroke-linejoin:round;stroke-miterlimit:3;stroke:#000000;stroke-opacity:0.2" d="M0.95 -38.25L13.9 -38.25" />
<path style="fill:none;stroke-width:0.7;stroke-linecap:round;stroke-linejoin:round;stroke-miterlimit:3;stroke:#000000;stroke-opacity:0.101961" d="M-10.2 -51.8Q-10.25 -50.55 -11.6 -48.25" />
<path style="fill:none;stroke-width:0.7;stroke-linecap:round;stroke-linejoin:round;stroke-miterlimit:3;stroke:#000000;stroke-opacity:0.2" d="M-11.6 -48.25L-0.15 -48.25" />
<path style="fill:none;stroke-width:0.7;stroke-linecap:round;stroke-linejoin:round;stroke-miterlimit:3;stroke:#000000;stroke-opacity:0.101961" d="M-0.15 -48.25L-0.15 -48.3Q0.85 -49.95 1.95 -51.2" />
<path style="fill:none;stroke-width:0.7;stroke-linecap:round;stroke-linejoin:round;stroke-miterlimit:3;stroke:#000000;stroke-opacity:0.301961" d="M15.1 -52.35L20 -52.35L21.2 -53.2" />
<path style="fill:none;stroke-width:0.7;stroke-linecap:round;stroke-linejoin:round;stroke-miterlimit:3;stroke:#000000;stroke-opacity:0.388235" d="M21.2 -53.2L-20 -53.2L-21.2 -52.35" />
<path style="fill:none;stroke-width:0.7;stroke-linecap:round;stroke-linejoin:round;stroke-miterlimit:3;stroke:#000000;stroke-opacity:0.301961" d="M-10.2 -52.35L0.9 -52.35" />
<path style="fill:none;stroke-width:0.7;stroke-linecap:round;stroke-linejoin:round;stroke-miterlimit:3;stroke:#000000;stroke-opacity:0.388235" d="M0.9 -52.35L3 -52.35" />
<path style="fill:none;stroke-width:0.7;stroke-linecap:round;stroke-linejoin:round;stroke-miterlimit:3;stroke:#000000;stroke-opacity:0.101961" d="M15.1 -52.35L14.8 -51.9Q14.25 -51 14.25 -49.25L14.25 -48.95" />
<path style="fill:none;stroke-width:0.7;stroke-linecap:round;stroke-linejoin:round;stroke-miterlimit:3;stroke:#000000;stroke-opacity:0.2" d="M14.25 -48.95L19.4 -48.95" />
<path style="fill:none;stroke-width:0.7;stroke-linecap:round;stroke-linejoin:round;stroke-miterlimit:3;stroke:#000000;stroke-opacity:0.388235" d="M23.5 -51.3L21.2 -53.2" />
<path style="fill:none;stroke-width:0.7;stroke-linecap:round;stroke-linejoin:round;stroke-miterlimit:3;stroke:#000000;stroke-opacity:0.301961" d="M22.5 -50.3L23.5 -51.3" />
<path style="fill:none;stroke-width:0.7;stroke-linecap:round;stroke-linejoin:round;stroke-miterlimit:3;stroke:#000000;stroke-opacity:0.388235" d="M23.5 -51.3L23.5 -28.95L22.5 -27.9L20 -24.85L16.3 -24.85L16 -26.1L14.75 -24.85L10.35 -24.85L-21.3 -24.85L-22.95 -27.4L-22.95 -31.2L-22.95 -33.4L-22.95 -39.25L-22.95 -39.4L-22.95 -50.4L-21.2 -52.35" />
<path style="fill:none;stroke-width:0.7;stroke-linecap:round;stroke-linejoin:round;stroke-miterlimit:3;stroke:#000000;stroke-opacity:0.301961" d="M20 -52.35L22.5 -50.4L22.5 -50.3L22.5 -43.45L22.5 -34.55L22.5 -30.45" />
<path style="fill:none;stroke-width:0.7;stroke-linecap:round;stroke-linejoin:round;stroke-miterlimit:3;stroke:#000000;stroke-opacity:0.388235" d="M22.5 -30.45L22.5 -27.9" />
<path style="fill:none;stroke-width:0.7;stroke-linecap:round;stroke-linejoin:round;stroke-miterlimit:3;stroke:#000000;stroke-opacity:0.388235" d="M15.8 -27.3L16 -26.1" />
<path style="fill:none;stroke-width:0.7;stroke-linecap:round;stroke-linejoin:round;stroke-miterlimit:3;stroke:#000000;stroke-opacity:0.101961" d="M14.25 -48.95Q14.4 -46.65 16.65 -45.05Q18.9 -43.45 22.2 -43.45L22.5 -43.45" />
<path style="fill:none;stroke-width:0.7;stroke-linecap:round;stroke-linejoin:round;stroke-miterlimit:3;stroke:#000000;stroke-opacity:0.2" d="M14.25 -48.95L10.75 -48.95" />
<path style="fill:none;stroke-width:0.7;stroke-linecap:round;stroke-linejoin:round;stroke-miterlimit:3;stroke:#000000;stroke-opacity:0.101961" d="M0.8 -28.55Q4.25 -26.8 7.65 -25.65" />
<path style="fill:none;stroke-width:0.7;stroke-linecap:round;stroke-linejoin:round;stroke-miterlimit:3;stroke:#000000;stroke-opacity:0.388235" d="M15.45 -27.45L15.6 -28.1L15.6 -30.8" />
<path style="fill:none;stroke-width:0.7;stroke-linecap:round;stroke-linejoin:round;stroke-miterlimit:3;stroke:#000000;stroke-opacity:0.101961" d="M-8.55 -32.9L-7.35 -32.45Q-5.2 -31.65 0.4 -28.75L0.75 -28.55L0.8 -28.55" />
<path style="fill:none;stroke-width:0.7;stroke-linecap:round;stroke-linejoin:round;stroke-miterlimit:3;stroke:#000000;stroke-opacity:0.101961" d="M7.65 -25.65L10.35 -24.85" />
<path style="fill:none;stroke-width:0.7;stroke-linecap:round;stroke-linejoin:round;stroke-miterlimit:3;stroke:#000000;stroke-opacity:0.388235" d="M15.6 -28.1L15.8 -27.3" />
<path style="fill:none;stroke-width:0.7;stroke-linecap:round;stroke-linejoin:round;stroke-miterlimit:3;stroke:#000000;stroke-opacity:0.2" d="M14.35 -33L17.65 -33" />
<path style="fill:none;stroke-width:0.7;stroke-linecap:round;stroke-linejoin:round;stroke-miterlimit:3;stroke:#000000;stroke-opacity:0.388235" d="M14.75 -24.85L15.45 -27.45" />
<path style="fill:none;stroke-width:0.7;stroke-linecap:round;stroke-linejoin:round;stroke-miterlimit:3;stroke:#000000;stroke-opacity:0.2" d="M3 -28.75L13.3 -28.75" />
<path style="fill:none;stroke-width:0.7;stroke-linecap:round;stroke-linejoin:round;stroke-miterlimit:3;stroke:#000000;stroke-opacity:0.101961" d="M-0.15 -37.2Q1.75 -35.75 5.4 -34.75Q10.3 -33.4 14.75 -33.4Q18.55 -33.4 22.5 -34.55" />
<path style="fill:none;stroke-width:0.7;stroke-linecap:round;stroke-linejoin:round;stroke-miterlimit:3;stroke:#000000;stroke-opacity:0.2" d="M10.1 -36.8L12.3 -36.8" />
<path style="fill:none;stroke-width:0.7;stroke-linecap:round;stroke-linejoin:round;stroke-miterlimit:3;stroke:#000000;stroke-opacity:0.2" d="M11.25 -47.55L9 -47.55" />
<path style="fill:none;stroke-width:0.7;stroke-linecap:round;stroke-linejoin:round;stroke-miterlimit:3;stroke:#000000;stroke-opacity:0.101961" d="M-22.9 -39.4Q-20.75 -40 -17.6 -41.75L-16.8 -42.25" />
<path style="fill:none;stroke-width:0.7;stroke-linecap:round;stroke-linejoin:round;stroke-miterlimit:3;stroke:#000000;stroke-opacity:0.101961" d="M-16.35 -42.55Q-14.4 -44.05 -12.5 -46.9L-11.6 -48.25" />
<path style="fill:none;stroke-width:0.7;stroke-linecap:round;stroke-linejoin:round;stroke-miterlimit:3;stroke:#000000;stroke-opacity:0.2" d="M-11.6 -48.25L-13.4 -48.25" />
<path style="fill:none;stroke-width:0.7;stroke-linecap:round;stroke-linejoin:round;stroke-miterlimit:3;stroke:#000000;stroke-opacity:0.101961" d="M-10.2 -52.35L-10.2 -51.9L-10.2 -51.8" />
<path style="fill:none;stroke-width:0.7;stroke-linecap:round;stroke-linejoin:round;stroke-miterlimit:3;stroke:#000000;stroke-opacity:0.101961" d="M-0.15 -48.25Q-2.25 -44.7 -2.4 -41.9" />
<path style="fill:none;stroke-width:0.7;stroke-linecap:round;stroke-linejoin:round;stroke-miterlimit:3;stroke:#000000;stroke-opacity:0.101961" d="M-2.45 -41.75L-2.45 -41.4Q-2.45 -39.65 -1.25 -38.25" />
<path style="fill:none;stroke-width:0.7;stroke-linecap:round;stroke-linejoin:round;stroke-miterlimit:3;stroke:#000000;stroke-opacity:0.2" d="M-1.25 -38.25L0.95 -38.25" />
<path style="fill:none;stroke-width:0.7;stroke-linecap:round;stroke-linejoin:round;stroke-miterlimit:3;stroke:#000000;stroke-opacity:0.101961" d="M-0.15 -37.2L-1.25 -38.25" />
<path style="fill:none;stroke-width:0.7;stroke-linecap:round;stroke-linejoin:round;stroke-miterlimit:3;stroke:#000000;stroke-opacity:0.2" d="M-1.25 -38.25L-7.95 -38.25" />
<path style="fill:none;stroke-width:0.7;stroke-linecap:round;stroke-linejoin:round;stroke-miterlimit:3;stroke:#000000;stroke-opacity:0.101961" d="M-2.4 -41.9L-2.45 -41.75" />
<path style="fill:none;stroke-width:0.7;stroke-linecap:round;stroke-linejoin:round;stroke-miterlimit:3;stroke:#000000;stroke-opacity:0.101961" d="M-16.8 -42.25L-16.35 -42.55" />
<path style="fill:none;stroke-width:0.7;stroke-linecap:round;stroke-linejoin:round;stroke-miterlimit:3;stroke:#000000;stroke-opacity:0.2" d="M-19.1 -44L-18.15 -44" />
<path style="fill:none;stroke-width:0.7;stroke-linecap:round;stroke-linejoin:round;stroke-miterlimit:3;stroke:#000000;stroke-opacity:0.2" d="M-15.45 -46.6L-18.3 -46.6" />
<path style="fill:none;stroke-width:0.7;stroke-linecap:round;stroke-linejoin:round;stroke-miterlimit:3;stroke:#000000;stroke-opacity:0.2" d="M-5.65 -29.15L-3.7 -29.15" />
<path style="fill:none;stroke-width:0.7;stroke-linecap:round;stroke-linejoin:round;stroke-miterlimit:3;stroke:#000000;stroke-opacity:0.2" d="M-17 -30.2L-4.1 -30.2" />
<path style="fill:none;stroke-width:0.7;stroke-linecap:round;stroke-linejoin:round;stroke-miterlimit:3;stroke:#000000;stroke-opacity:0.101961" d="M-8.55 -32.9Q-12.45 -34.1 -16.45 -34.1L-21.1 -33.9L-22.95 -33.4" />
<path style="fill:none;stroke-width:0.7;stroke-linecap:round;stroke-linejoin:round;stroke-miterlimit:3;stroke:#000000;stroke-opacity:0.101961" d="M-22.9 -39.4L-22.95 -39.4" />
<path style="fill:none;stroke-width:0.7;stroke-linecap:round;stroke-linejoin:round;stroke-miterlimit:3;stroke:#000000;stroke-opacity:0.2" d="M-21.75 -27.05L-17.1 -27.05" />
<path style="fill:none;stroke-width:0.7;stroke-linecap:round;stroke-linejoin:round;stroke-miterlimit:3;stroke:#000000;stroke-opacity:0.2" d="M-0.15 -48.25L1.25 -48.25" />
</g>
<g id="PathID_1857" transform="matrix(1, 0, 0, 1, 23.15, 53.4)">
<path style="fill:#F3F3F3;fill-opacity:0.2" d="M22.8 -28.65L20.1 -24.95L-22 -24.95Q-21.6 -25.95 -21.2 -28.5Q-20.7 -31.45 -20.65 -33.6L-20.35 -30.4Q-20.25 -30.05 -19.8 -30.05L-19.5 -30.05L-19.35 -30.65Q-18.8 -27.75 -17.9 -27.75L-16.6 -29.4L-15.5 -31.2Q-14.65 -31.2 -14.65 -32.1Q-14.65 -32.65 -14.95 -32.85Q-13.35 -38 -13.8 -42.05L-13.8 -42.3L-12.1 -33L-11.95 -32.4L-11.05 -29.3Q-8.85 -27.85 -8.5 -27.85Q-8.2 -27.85 -7.65 -28.4Q-7.1 -28.85 -6.95 -29.25Q-6.4 -30.55 -6.3 -32.2L-5.95 -28.5Q-5.6 -27.1 -4.5 -27.1Q-3.4 -27.1 -2.65 -28.35Q-2 -28.45 -2 -29.2L-2.05 -29.65L-1.7 -31Q-1.3 -31.2 -1.3 -31.85L-1.5 -32.45Q-1 -36.35 -0.75 -45.2Q-0.6 -40 -0.1 -35.8Q0.15 -34.05 1.1 -31.15Q2.1 -27.95 2.7 -27.95Q3.2 -27.95 3.65 -28.75L4.05 -29.6L5.65 -28Q5.85 -27.5 6.45 -27.5Q6.8 -27.5 7.15 -27.85L7.4 -27.8Q7.4 -26.9 8.25 -26.9Q8.55 -26.9 9.4 -27.45L10.3 -28.3L11.15 -32.8L11.25 -32.8Q12.15 -32.8 12.15 -33.7Q12.05 -34.55 11.3 -34.55L11.55 -40.5Q11.75 -36.7 12.05 -34.75L13.15 -29.2Q13.15 -28.3 14.05 -28.3Q15 -28.3 15 -29.15L20.1 -27.75Q20.6 -27.75 21.75 -29.45L21.9 -30.05L21.9 -30.55Q22.05 -31.2 22.8 -28.65M0.4 -39.55L0.6 -39.55L0.8 -39L0.6 -38.9L0.4 -39L0.4 -39.55M9.9 -35.1Q10.35 -35.15 10.35 -34.8L10.15 -34.65L9.95 -34.7L9.9 -35.1M12.95 -36.45Q12.55 -36.45 12.5 -36.65L12.5 -36.9L12.95 -37.5Q13.4 -37.7 13.4 -37.05Q13.4 -36.45 12.95 -36.45M-12.3 -38.9L-11.85 -38.8L-11.85 -38.5Q-11.85 -38.2 -12 -38.2Q-12.25 -38.2 -12.3 -38.9M-17.05 -31.3Q-16.6 -31.25 -16.6 -30.75L-16.6 -30.65L-17.3 -30.55L-17.5 -30.95L-17.05 -31.3M-7.4 -32.2L-7.15 -32.05L-7.45 -31.95L-7.7 -32.1L-7.4 -32.2M-5.4 -30.45Q-5.4 -30.95 -4.95 -31Q-4.5 -31.05 -4.5 -30.4L-5.4 -30.45" />
</g>
<g id="PathID_1858" transform="matrix(1, 0, 0, 1, 23.15, 53.4)">
<path style="fill:none;stroke-width:1;stroke-linecap:round;stroke-linejoin:round;stroke-miterlimit:3;stroke:#000000;stroke-opacity:0.541176" d="M6.85 -33.15L6.3 -33.2L5.65 -32.25Q5.65 -31.8 6.25 -31.55L7.15 -31.35L8.2 -31.45Q8.7 -31.75 8.65 -32.95L9.35 -32.35Q9.5 -31.95 9.95 -31.95Q10.3 -31.95 10.7 -33.45Q11.15 -35.05 12.05 -35.35L10.05 -36.35L11.1 -36.9L12.25 -37.15Q12.25 -35 13.65 -34.75L12.8 -33.45L11.65 -32.35L11.65 -30.75L14.65 -30.75L16.65 -34.15L16.65 -34.25L16.85 -36.15Q17.45 -35.55 17.45 -33.65Q17.45 -32.15 17.25 -31.75L17.15 -31.9L17.05 -31.95Q17.05 -32.95 16.65 -34.15L16.7 -32.2Q16.8 -31.55 17.25 -30.75Q18.55 -30.35 19.3 -31.65L20.25 -33.15L20.25 -34.15L20.45 -34.15L20.25 -33.15" />
<path style="fill:none;stroke-width:1;stroke-linecap:round;stroke-linejoin:round;stroke-miterlimit:3;stroke:#000000;stroke-opacity:0.541176" d="M18.25 -45.55L17.55 -46.05Q17.3 -45.1 16 -44.3Q14.9 -43.65 14.05 -43.55L14.05 -44.75L15.45 -44.95L15.45 -44.35" />
<path style="fill:none;stroke-width:1;stroke-linecap:round;stroke-linejoin:round;stroke-miterlimit:3;stroke:#000000;stroke-opacity:0.541176" d="M3.05 -46.15L4.15 -45.35Q4.6 -44.95 5.55 -44.95L6.9 -45.55L8.45 -46.05Q8.65 -46.35 9.25 -46.35L9.25 -46.15L8.45 -46.05L8.25 -45.45Q8.25 -44.85 9.05 -44.55L10.15 -44.35Q11.05 -44.35 12.65 -45.75Q14.25 -47.15 15.05 -47.15L16.4 -46.7L17.55 -46.05" />
<path style="fill:none;stroke-width:1;stroke-linecap:round;stroke-linejoin:round;stroke-miterlimit:3;stroke:#000000;stroke-opacity:0.541176" d="M6.3 -33.2Q5.45 -33.45 5.45 -34.15L5.55 -34.85L7.05 -35.15L7.25 -35L7.25 -34.65L6.3 -33.2z" />
<path style="fill:none;stroke-width:1;stroke-linecap:round;stroke-linejoin:round;stroke-miterlimit:3;stroke:#000000;stroke-opacity:0.541176" d="M-3.7 -35.25L-3.75 -35.35L-3.75 -35.45L-3.7 -35.25L-3.7 -35.2Q-3.6 -34.35 -2.75 -32.55L-2.55 -32.55L-2.55 -34.35L-1.95 -33.15L-1.25 -34.55L-0.75 -35.75L-0.8 -32.7Q-0.8 -30.95 -0.15 -30.35Q0.35 -30.4 0.85 -31.5Q1.25 -32.3 1.25 -32.95L1.25 -31.75" />
<path style="fill:none;stroke-width:1;stroke-linecap:round;stroke-linejoin:round;stroke-miterlimit:3;stroke:#000000;stroke-opacity:0.541176" d="M-17.9 -44.75Q-17.2 -45 -16.7 -45.9Q-16.35 -46.6 -16.35 -47L-16.35 -46.15L-15.15 -46.55L-14.35 -43.65Q-13.8 -41.75 -12.55 -41.75Q-10.85 -41.75 -9.3 -43.5Q-7.75 -45.25 -6.75 -48.35L-6.75 -45.55L-6.55 -45.35L-6.15 -47.55Q-5.65 -47.35 -5.05 -45.8Q-4.5 -44.45 -3.75 -44.35L-2.35 -45.55L-2.05 -45.1L-1.55 -44.55" />
<path style="fill:none;stroke-width:1;stroke-linecap:round;stroke-linejoin:round;stroke-miterlimit:3;stroke:#000000;stroke-opacity:0.541176" d="M-20.55 -33.15L-20.55 -34.15Q-19.75 -33.75 -19.15 -33.75Q-17.75 -33.75 -17.55 -34.35L-17.55 -35.55Q-17.55 -36.75 -17.95 -37.55Q-17.55 -36.9 -17 -34.85Q-16.75 -33.95 -15.45 -33.95L-14.3 -34.05Q-14.15 -34.15 -13.75 -35.35L-13.55 -35.35L-13.3 -34Q-12.95 -32.8 -12.95 -32.4Q-12.5 -33.1 -11.15 -33.75Q-9.45 -34.55 -8.55 -34.55Q-7 -34.55 -6.45 -34.05Q-5.85 -33.55 -6.15 -32.15L-4.95 -32.15Q-4.25 -32.7 -3.9 -33.75Q-3.65 -34.65 -3.7 -35.2" />
<path style="fill:none;stroke-width:1;stroke-linecap:round;stroke-linejoin:round;stroke-miterlimit:3;stroke:#000000;stroke-opacity:0.541176" d="M-12.95 -32.4L-12.95 -32.35L-11.25 -32.2L-11.15 -31.45Q-11.15 -30.7 -11.55 -30.55L-12.05 -30.55L-12.95 -30.75Q-13.15 -30.95 -13.15 -31.75L-12.95 -32.4z" />
</g>
</svg>
