<?xml version="1.0" encoding="utf-8"?>
<svg version="1.1" id="Layer_1"
xmlns="http://www.w3.org/2000/svg"
xmlns:xlink="http://www.w3.org/1999/xlink"
width="52px" height="66px"
xml:space="preserve">
<g id="PathID_1598" transform="matrix(1, 0, 0, 1, 0.1, 0.1)">
<path style="fill:#541200;fill-opacity:1" d="M26.05 58.9Q24.15 58.9 21.6 58.05Q18.75 57 14.95 54.2Q9.55 50.2 6.5 45.3Q10.4 48.75 13.55 50.55Q17.95 53.05 21.95 53.05Q30.8 53.05 37.4 39.75Q42.75 29 42.75 21.25Q42.75 15.5 41.05 10.8Q39.35 6.15 35.8 2Q45.5 6.85 49.15 15.2Q51.35 20.3 51.35 27.35Q51.35 37.4 44.75 46.6Q38.55 55.2 30.5 58.1L35.1 63.7Q27.65 58.9 26.05 58.9M35.1 63.7L33.35 64.45L32.2 64.8Q31.5 64.8 30.05 63.9Q28.6 63 26.6 63Q24.5 63 22.8 63.8Q21.15 64.6 20.8 64.6L19.25 64.25L17.5 63.5L21.6 58.05Q24.15 58.9 26.05 58.9Q27.65 58.9 30.5 58.1" />
<path style="fill:#911F00;fill-opacity:1" d="M2.85 37.85Q0.05 30.6 0.05 24.1Q0.05 14.75 6.8 7.65Q14.1 0.05 25.25 0.05L31.3 0.75L35.8 2Q39.35 6.15 41.05 10.8Q42.75 15.5 42.75 21.25Q42.75 29 37.4 39.75Q30.8 53.05 21.95 53.05Q17.95 53.05 13.55 50.55Q10.4 48.75 6.5 45.3Q4.55 42.25 2.85 37.85" />
<path style="fill:none;stroke-width:0.7;stroke-linecap:round;stroke-linejoin:round;stroke-miterlimit:3;stroke:#000000;stroke-opacity:0.301961" d="M30.5 58.1Q38.55 55.2 44.75 46.6Q51.35 37.4 51.35 27.35Q51.35 20.3 49.15 15.2Q45.5 6.85 35.8 2" />
<path style="fill:none;stroke-width:0.7;stroke-linecap:round;stroke-linejoin:round;stroke-miterlimit:3;stroke:#000000;stroke-opacity:0.301961" d="M6.5 45.3Q9.55 50.2 14.95 54.2Q18.75 57 21.6 58.05Q24.15 58.9 26.05 58.9Q27.65 58.9 30.5 58.1L35.1 63.7L33.35 64.45L32.2 64.8Q31.5 64.8 30.05 63.9Q28.6 63 26.6 63Q24.5 63 22.8 63.8Q21.15 64.6 20.8 64.6L19.25 64.25L17.5 63.5L21.6 58.05" />
<path style="fill:none;stroke-width:0.7;stroke-linecap:round;stroke-linejoin:round;stroke-miterlimit:3;stroke:#000000;stroke-opacity:0.301961" d="M35.8 2L31.3 0.75L25.25 0.05Q14.1 0.05 6.8 7.65Q0.05 14.75 0.05 24.1Q0.05 30.6 2.85 37.85Q4.55 42.25 6.5 45.3" />
</g>
<g id="PathID_1599" transform="matrix(1, 0, 0, 1, 0.1, 0.1)">
<path style="fill:#EE5E36;fill-opacity:1" d="M5.7 20.45Q4.6 15.05 7.5 10.4Q10.4 5.7 15.5 3.9Q19.75 2.4 21.75 3.6Q24.15 4.95 25.15 8.65Q26.45 13.6 23 19.25Q19.5 24.9 14.65 26.4L8.7 26.15Q6.6 24.85 5.7 20.45" />
</g>
</svg>
