<?xml version="1.0" encoding="utf-8"?>
<svg version="1.1" id="Layer_1"
xmlns="http://www.w3.org/2000/svg"
xmlns:xlink="http://www.w3.org/1999/xlink"
width="91px" height="20px"
xml:space="preserve">
<g id="PathID_499" transform="matrix(1, 0, 0, 1, 45.65, 44.25)">
<path style="fill:#F2F7F8;fill-opacity:1" d="M39 -35.4Q37.85 -35.4 35.75 -36.1L32.2 -36.8Q31.2 -36.8 29.55 -35.6Q27.9 -34.4 27.45 -34.4Q25.85 -34.4 25.8 -35.55Q26.65 -37.45 29.85 -39.5Q33.55 -41.85 35 -41.85Q37.05 -41.85 39.3 -38.1L40.55 -35.7L39 -35.4M19.6 -27.25Q19.85 -29.05 22.6 -28.75Q25.45 -28.4 25.65 -27.3L25.4 -27.25L22.1 -26.55L20.35 -26.9Q19.85 -27.05 19.6 -27.25M17.6 -36L15.45 -35.75Q13.95 -35.75 12.6 -36.3Q11.25 -36.9 10.2 -36.9Q7.9 -36.2 7.05 -36.2Q4.7 -36.2 4.7 -37.9L4.8 -38.5L6.75 -40.1L10 -42.3L13.2 -41.25Q16.1 -40 17.1 -38.7L18.05 -36.85L18.25 -36.35L17.6 -36M-4.6 -26.65L-3.2 -28.05Q-1.6 -29.1 0.1 -29.1Q1.7 -29.1 2.75 -27.7L1.6 -27.15Q-0.3 -26.45 -2.3 -26.45L-4.35 -26.55L-4.6 -26.65M44.05 -27.25L42 -27.5L41.95 -27.5L42.35 -28.35Q43.05 -29.4 44.1 -29.4Q44.55 -29.4 44.85 -29.05L44.85 -27.25L44.05 -27.25M-43.65 -35.55L-43.85 -37.05Q-43.85 -39.05 -41.95 -40.9Q-39.65 -43.1 -35.85 -43.5Q-30.65 -41.35 -28.75 -40.3Q-26.9 -39.35 -26.1 -38.3Q-26.3 -37.65 -26.9 -37.15Q-27.7 -36.45 -28.8 -36.45Q-29.8 -36.45 -31.15 -37.25Q-32.45 -38.05 -33.7 -38.05Q-35.35 -38.05 -38.55 -36.5Q-41.7 -34.95 -42.2 -34.95L-43.45 -35.15L-43.65 -35.55M-43.4 -27.95Q-44.15 -27.4 -45.2 -27.2L-45.2 -29.15L-43.7 -28.85L-42.8 -28.4L-43.4 -27.95M-5.3 -37.15Q-6.25 -36 -7.15 -36Q-8.2 -36 -8.8 -36.45Q-9.3 -36.85 -10.35 -36.8L-12.3 -37Q-13.15 -37.35 -13 -37.95L-14.05 -37.95Q-15.7 -37.05 -17 -37.05Q-18.3 -37.05 -18.6 -37.55L-18.85 -39.25L-17.35 -41.2Q-14.45 -44.25 -10.5 -43.2Q-8.5 -42.65 -6.3 -39.9L-4.85 -37.75L-5.3 -37.15M-26.05 -28.2Q-24.5 -29.1 -22.65 -29.1Q-21.15 -29.1 -20 -27.85L-19.2 -26.6L-19.2 -26.5Q-19.55 -26.3 -20 -26.2L-23.85 -26.1L-26.2 -26.35Q-27.15 -26.55 -27.45 -26.85Q-27.25 -27.5 -26.05 -28.2" />
<path style="fill:#BBD1D7;fill-opacity:1" d="M40.55 -35.7L41.1 -34.25Q41.1 -33 39.55 -33Q38.75 -33 37.1 -33.55L34.35 -34.35L28.05 -34.35L27.65 -33.6Q27.25 -33 26.6 -33Q25.9 -33 25.65 -33.6Q25.5 -33.85 25.5 -34.2Q25.5 -34.85 25.8 -35.55Q25.85 -34.4 27.45 -34.4Q27.9 -34.4 29.55 -35.6Q31.2 -36.8 32.2 -36.8L35.75 -36.1Q37.85 -35.4 39 -35.4L40.55 -35.7M20.35 -26.9L22.1 -26.55L25.4 -27.25L25.65 -27.3L25.65 -27.2Q25.65 -26.3 24.4 -25.75Q23.25 -25.2 21.6 -25.2Q20.15 -25.2 19.7 -25.95Q19.55 -26.25 19.55 -26.85L19.6 -27.25Q19.85 -27.05 20.35 -26.9M18.25 -36.35L18.8 -34.8Q18.8 -33.5 17.25 -33.5Q16.65 -33.5 15.25 -34.05Q13.9 -34.65 12.8 -34.65L10.75 -34.35L8.95 -34.1L7.75 -34.35L7.25 -34.65Q6.95 -34.65 6.05 -33.75Q5.15 -32.85 4.65 -32.85Q3.4 -32.85 3.5 -34.2Q3.5 -35.1 4.2 -35.45Q3.5 -36.15 3.5 -36.6Q3.5 -37.35 4.8 -38.5L4.7 -37.9Q4.7 -36.2 7.05 -36.2Q7.9 -36.2 10.2 -36.9Q11.25 -36.9 12.6 -36.3Q13.95 -35.75 15.45 -35.75L17.6 -36L18.25 -36.35M-4.35 -26.55L-2.3 -26.45Q-0.3 -26.45 1.6 -27.15L2.75 -27.7L3.3 -26.75Q3.3 -25.2 -3.5 -25.2Q-4.65 -25.2 -4.65 -26.35L-4.6 -26.65L-4.35 -26.55M44.85 -27.25L44.85 -25.7L44.1 -25.5Q42.55 -25.5 42.1 -26.1Q41.85 -26.35 41.85 -27.05L41.95 -27.5L42 -27.5L44.05 -27.25L44.85 -27.25M-25.55 -36.8Q-25.55 -36.05 -26.1 -34.95Q-26.85 -33.5 -27.9 -33.5Q-28.65 -33.5 -30.6 -35.2Q-32.55 -36.9 -34.55 -36.9L-37.85 -35.5Q-40.85 -34.1 -41.5 -34.1Q-42.9 -34.1 -43.45 -35.15L-42.2 -34.95Q-41.7 -34.95 -38.55 -36.5Q-35.35 -38.05 -33.7 -38.05Q-32.45 -38.05 -31.15 -37.25Q-29.8 -36.45 -28.8 -36.45Q-27.7 -36.45 -26.9 -37.15Q-26.3 -37.65 -26.1 -38.3Q-25.55 -37.6 -25.55 -36.8M-42.8 -28.4Q-42.15 -27.95 -42 -27.1Q-41.8 -25.8 -43.15 -25.75L-45.2 -25.55L-45.2 -27.2Q-44.15 -27.4 -43.4 -27.95L-42.8 -28.4M-18.85 -39.25L-18.6 -37.55Q-18.3 -37.05 -17 -37.05Q-15.7 -37.05 -14.05 -37.95L-13 -37.95Q-13.15 -37.35 -12.3 -37L-10.35 -36.8Q-9.3 -36.85 -8.8 -36.45Q-8.2 -36 -7.15 -36Q-6.25 -36 -5.3 -37.15L-4.85 -37.75Q-4.25 -36.7 -4.25 -35.9L-4.45 -35.1L-4.45 -35.05Q-3.8 -33.85 -3.8 -33.35Q-3.8 -32.1 -4.95 -32.1Q-5.1 -32.1 -7.45 -33.35Q-9.9 -34.65 -10.8 -34.8L-14 -34.8L-19.25 -31.95Q-20.4 -31.95 -20.4 -33.1Q-20.4 -33.6 -19.75 -34.15Q-19.05 -34.75 -18.9 -35.55L-18.8 -35.95L-19.4 -36.5L-19.55 -37.05Q-19.55 -38.05 -18.85 -39.25M-19.85 -25.6Q-20.5 -25.2 -21.45 -25.2L-26.85 -25.6Q-27.5 -25.8 -27.5 -26.6L-27.45 -26.85Q-27.15 -26.55 -26.2 -26.35L-23.85 -26.1L-20 -26.2Q-19.55 -26.3 -19.2 -26.5Q-19.25 -26 -19.85 -25.6" />
</g>
<g id="PathID_500" transform="matrix(1, 0, 0, 1, 45.65, 44.25)">
<path style="fill:#FFFFFF;fill-opacity:0.819608" d="M35.15 -41.6Q34.9 -41.45 34.65 -41.8Q34.45 -42.15 34.8 -42.3Q35.1 -42.4 35.25 -42.1Q35.4 -41.75 35.15 -41.6M31.15 -40.3Q31.5 -39.8 31 -39.55Q30.45 -39.3 30.3 -39.65Q30.1 -40 30.5 -40.4Q30.85 -40.8 31.15 -40.3M32.65 -40.6L32.3 -40.65Q32.15 -40.9 32.35 -41L32.7 -40.95L32.65 -40.6M36.5 -40.85Q36.3 -41.15 36.6 -41.4Q36.95 -41.65 37.15 -41.4Q37.4 -41.15 37.05 -40.8L36.5 -40.85M38.3 -39.35Q38.15 -39.6 38.45 -39.9Q38.7 -40.2 38.95 -39.8Q39.2 -39.45 38.8 -39.3L38.3 -39.35M38.95 -37.4Q38.65 -37.8 39.05 -38.05L39.7 -37.95Q39.95 -37.6 39.6 -37.3Q39.2 -37 38.95 -37.4M27.4 -37.5Q27.55 -37.15 27.25 -37Q27 -36.8 26.75 -37.2Q26.5 -37.55 26.85 -37.7Q27.2 -37.85 27.4 -37.5M28.3 -38.7Q28.1 -39 28.4 -39.2Q28.65 -39.45 28.9 -39.2Q29.1 -39 28.8 -38.7Q28.5 -38.4 28.3 -38.7M23.85 -29Q24.2 -28.35 23.65 -28.05Q23.15 -27.75 22.75 -28.3Q22.35 -28.8 22.95 -29.2Q23.55 -29.6 23.85 -29M21.05 -28.55Q20.85 -28.95 21.2 -29.1Q21.55 -29.25 21.7 -28.95Q21.85 -28.6 21.55 -28.4Q21.3 -28.15 21.05 -28.55M25.25 -28.05Q25.65 -28.5 26 -27.95Q26.3 -27.45 25.9 -27.2L25.15 -27.25Q24.85 -27.6 25.25 -28.05M10.9 -41.4Q10.55 -41.9 11.1 -42.25Q11.6 -42.55 11.9 -42.05Q12.2 -41.55 11.7 -41.25Q11.25 -40.9 10.9 -41.4M13.6 -40.8Q13.4 -41.15 13.7 -41.35L14.35 -41.3Q14.7 -40.95 14.25 -40.7Q13.8 -40.45 13.6 -40.8M17.45 -38.25Q17.1 -38.15 16.9 -38.4Q16.75 -38.65 17.1 -38.85Q17.45 -39 17.6 -38.65Q17.8 -38.35 17.45 -38.25M15.65 -39.7Q15.2 -39.45 15.05 -39.85Q14.85 -40.25 15.25 -40.45L15.85 -40.35Q16.1 -40 15.65 -39.7M7.95 -40.6Q7.5 -40.35 7.35 -40.75Q7.15 -41.15 7.55 -41.35Q7.95 -41.6 8.15 -41.25Q8.4 -40.9 7.95 -40.6M8.85 -41.85Q8.65 -42.1 9 -42.25L9.45 -42.1Q9.65 -41.8 9.35 -41.7Q9.05 -41.6 8.85 -41.85M5.65 -39.05Q5.5 -39.4 5.8 -39.6L6.4 -39.5Q6.7 -39.2 6.25 -38.95Q5.85 -38.75 5.65 -39.05M1.05 -28.9Q0.8 -29.35 1.25 -29.55Q1.7 -29.75 1.85 -29.4Q2.05 -29.05 1.65 -28.8Q1.3 -28.5 1.05 -28.9M0.05 -28.65L-0.75 -28.75Q-1.1 -29.2 -0.6 -29.5L0.2 -29.4Q0.5 -29.05 0.05 -28.65M20.05 -27.1Q19.85 -26.9 19.55 -27.25Q19.3 -27.55 19.7 -27.75Q20.1 -27.9 20.2 -27.6L20.05 -27.1M18.65 -36.2Q18.15 -35.85 17.75 -36.4Q17.4 -36.95 17.95 -37.25Q18.5 -37.6 18.8 -37.1Q19.15 -36.55 18.65 -36.2M41.1 -34.75Q40.8 -34.55 40.5 -35Q40.2 -35.45 40.6 -35.65Q41.05 -35.8 41.25 -35.4Q41.45 -34.95 41.1 -34.75M44.4 -30Q44.8 -30.25 45 -29.9Q45.15 -29.6 44.8 -29.25Q44.45 -28.9 44.25 -29.35Q44 -29.75 44.4 -30M42.1 -28.35Q41.75 -28.65 42.3 -28.9L43 -28.85Q43.2 -28.5 42.8 -28.25L42.1 -28.35M44.35 -27.4Q44.1 -27.8 44.5 -27.95Q44.95 -28.1 45.2 -27.7Q45.5 -27.35 45.05 -27.15Q44.6 -27 44.35 -27.4M-42 -40.75Q-42.2 -41.15 -41.8 -41.4L-41.25 -41.3Q-41.1 -40.95 -41.45 -40.65L-42 -40.75M-43.3 -40.2Q-42.9 -40.5 -42.7 -40.05Q-42.5 -39.6 -42.85 -39.45Q-43.2 -39.35 -43.45 -39.6Q-43.7 -39.9 -43.3 -40.2M-42.95 -37.4Q-42.6 -37.15 -43.1 -36.8Q-43.55 -36.5 -43.8 -36.9Q-44 -37.3 -43.65 -37.5L-42.95 -37.4M-43.6 -34.95L-44.15 -35Q-44.35 -35.25 -44 -35.5L-43.45 -35.4Q-43.25 -35.1 -43.6 -34.95M-45.55 -28.95Q-45.75 -29.3 -45.45 -29.5Q-45.15 -29.7 -44.95 -29.3Q-44.75 -28.95 -45.05 -28.8Q-45.4 -28.6 -45.55 -28.95M-42.6 -27.95Q-42.9 -27.75 -43 -28.05Q-43.15 -28.35 -42.9 -28.45L-42.5 -28.35Q-42.35 -28.15 -42.6 -27.95M-9.15 -43.35Q-8.9 -42.9 -9.35 -42.7Q-9.8 -42.5 -10 -42.9Q-10.25 -43.3 -9.85 -43.55Q-9.4 -43.75 -9.15 -43.35M-8.4 -41.3Q-8.75 -41.65 -8.25 -41.9Q-7.75 -42.15 -7.55 -41.8Q-7.3 -41.4 -7.7 -41.15Q-8.05 -40.9 -8.4 -41.3M-5.3 -38.45Q-4.9 -38.75 -4.6 -38.3Q-4.25 -37.85 -4.75 -37.6Q-5.25 -37.3 -5.45 -37.75Q-5.65 -38.2 -5.3 -38.45M-6.3 -39.1Q-6.65 -38.9 -6.85 -39.3Q-7.05 -39.7 -6.75 -39.8L-6.2 -39.65Q-6 -39.35 -6.3 -39.1M-11.55 -43.85Q-11.1 -43.25 -11.8 -42.85Q-12.5 -42.5 -12.75 -43.1Q-13.05 -43.7 -12.55 -44.1Q-12 -44.45 -11.55 -43.85M-16.6 -42.35Q-16.95 -42.7 -16.45 -42.95L-15.75 -42.85Q-15.5 -42.45 -15.9 -42.2Q-16.25 -41.95 -16.6 -42.35M-17.05 -41.25Q-16.8 -40.9 -17.2 -40.7Q-17.6 -40.55 -17.75 -40.9Q-17.95 -41.2 -17.6 -41.4Q-17.25 -41.6 -17.05 -41.25M-19.05 -38.9Q-19.25 -39.35 -18.9 -39.6Q-18.5 -39.9 -18.2 -39.45Q-17.85 -39 -18.35 -38.75Q-18.85 -38.45 -19.05 -38.9M-14.35 -42.7Q-14.6 -43.2 -14.25 -43.35Q-13.85 -43.55 -13.55 -43.15Q-13.3 -42.75 -13.7 -42.45Q-14.1 -42.2 -14.35 -42.7M-19.55 -27.5Q-19.2 -27.05 -19.65 -26.7Q-20.15 -26.4 -20.35 -26.85Q-20.55 -27.35 -20.2 -27.65Q-19.85 -27.95 -19.55 -27.5M-5.1 -27.45Q-4.6 -27.75 -4.35 -27.3Q-4.1 -26.85 -4.5 -26.6Q-4.9 -26.3 -5.25 -26.75Q-5.55 -27.15 -5.1 -27.45M-2.3 -27.5Q-2.55 -27.3 -2.75 -27.65Q-2.95 -27.95 -2.7 -28.1L-2.2 -27.95Q-2.05 -27.65 -2.3 -27.5M-27.4 -39.35Q-27.6 -39.5 -27.3 -39.75L-26.9 -39.65Q-26.75 -39.35 -27 -39.25L-27.4 -39.35M-29.55 -40.3Q-29.8 -40.7 -29.4 -40.85L-28.75 -40.8Q-28.5 -40.55 -28.9 -40.25L-29.55 -40.3M-37.45 -43.55Q-37.2 -43.3 -37.6 -43L-38.25 -43.05Q-38.5 -43.45 -38.1 -43.6L-37.45 -43.55M-39.85 -42.15Q-40.05 -42.4 -39.7 -42.65L-39.15 -42.55Q-38.95 -42.25 -39.3 -42.1L-39.85 -42.15M-31.45 -41.4Q-31.7 -41.65 -31.3 -41.95L-30.65 -41.85Q-30.4 -41.45 -30.8 -41.3Q-31.2 -41.1 -31.45 -41.4M-34.5 -42.6L-35.2 -42.75Q-35.5 -43.1 -35 -43.45Q-34.55 -43.8 -34.35 -43.3Q-34.1 -42.8 -34.5 -42.6M-33.3 -41.9Q-33.8 -41.55 -34.05 -42.05Q-34.35 -42.6 -33.85 -42.95Q-33.35 -43.3 -33.1 -42.8Q-32.85 -42.3 -33.3 -41.9M-27 -26.6Q-27.45 -26.3 -27.6 -26.75Q-27.8 -27.2 -27.5 -27.45Q-27.15 -27.75 -26.85 -27.3Q-26.55 -26.9 -27 -26.6M-25.65 -28.1Q-26 -27.85 -26.3 -28.25Q-26.6 -28.65 -26.2 -28.85L-25.55 -28.7Q-25.3 -28.35 -25.65 -28.1M-21.7 -28.65Q-21.95 -29.1 -21.6 -29.3Q-21.25 -29.55 -21 -29.1Q-20.7 -28.65 -21.1 -28.45Q-21.45 -28.25 -21.7 -28.65M-23.8 -28.75Q-24 -29.05 -23.8 -29.3Q-23.6 -29.55 -23.35 -29.2Q-23.1 -28.9 -23.35 -28.7L-23.8 -28.75" />
</g>
</svg>
