<?xml version="1.0" encoding="utf-8"?>
<svg version="1.1" id="Layer_1"
xmlns="http://www.w3.org/2000/svg"
xmlns:xlink="http://www.w3.org/1999/xlink"
width="188px" height="65px"
xml:space="preserve">
<g id="PathID_1310" transform="matrix(1, 0, 0, 1, 110.3, 61.15)">
<linearGradient
id="LinearGradID_654" gradientUnits="userSpaceOnUse" gradientTransform="matrix(-0.00331116, 0.0144043, 0.014267, 0.00175476, -8, -36.55)" spreadMethod ="pad" x1="-819.2" y1="0" x2="819.2" y2="0" >
<stop  offset="0" style="stop-color:#CCC845;stop-opacity:1" />
<stop  offset="0.329412" style="stop-color:#C7C737;stop-opacity:1" />
<stop  offset="0.788235" style="stop-color:#3C5C0A;stop-opacity:0.862745" />
<stop  offset="1" style="stop-color:#6F7D0C;stop-opacity:0.45098" />
</linearGradient>
<path style="fill:url(#LinearGradID_654) " d="M-8.4 -21.7Q-7.85 -23.4 -9 -26.05Q-11.25 -30.55 -10.9 -35.5Q-9.65 -40.75 -6.45 -42.1Q-10.75 -39.15 -10.15 -32.75Q-9.75 -28.65 -8 -25.8Q-7.05 -23.4 -7.45 -21.7L-8.4 -21.7" />
<linearGradient
id="LinearGradID_655" gradientUnits="userSpaceOnUse" gradientTransform="matrix(-0.00186157, 0.0108948, 0.0144501, 0.00117493, -7.5, -33)" spreadMethod ="pad" x1="-819.2" y1="0" x2="819.2" y2="0" >
<stop  offset="0.372549" style="stop-color:#7E7E05;stop-opacity:0.847059" />
<stop  offset="1" style="stop-color:#6B6B1D;stop-opacity:0" />
</linearGradient>
<path style="fill:none;stroke-width:0.7;stroke-linecap:round;stroke-linejoin:round;stroke-miterlimit:3;stroke:url(#LinearGradID_655) " d="M-8.4 -21.7Q-7.85 -23.4 -9 -26.05Q-11.25 -30.55 -10.9 -35.5Q-9.65 -40.75 -6.45 -42.1Q-10.75 -39.15 -10.15 -32.75Q-9.75 -28.65 -8 -25.8Q-7.05 -23.4 -7.45 -21.7L-8.4 -21.7z" />
</g>
<g id="PathID_1311" transform="matrix(1, 0, 0, 1, 110.3, 61.15)">
<linearGradient
id="LinearGradID_656" gradientUnits="userSpaceOnUse" gradientTransform="matrix(0.0100403, 0.0280304, -0.0222931, 0.00933838, -14.05, -52)" spreadMethod ="pad" x1="-819.2" y1="0" x2="819.2" y2="0" >
<stop  offset="0" style="stop-color:#CCC845;stop-opacity:1" />
<stop  offset="0.329412" style="stop-color:#C7C737;stop-opacity:1" />
<stop  offset="0.788235" style="stop-color:#3C5C0A;stop-opacity:0.862745" />
<stop  offset="1" style="stop-color:#6F7D0C;stop-opacity:0.45098" />
</linearGradient>
<path style="fill:url(#LinearGradID_656) " d="M-13.5 -34Q-14.65 -35.95 -15.35 -39.45Q-15.7 -41.2 -15.85 -44.65Q-16.25 -53.35 -13.5 -60.1Q-15.2 -51.4 -14.7 -45.7Q-14.25 -40.05 -13.4 -37.55Q-12.5 -35.05 -11.25 -33.25L-7.55 -28.05Q-5.05 -24.75 -9.05 -21.35L-11.55 -21Q-7.25 -24.7 -9.8 -28.4L-13.5 -34" />
<linearGradient
id="LinearGradID_657" gradientUnits="userSpaceOnUse" gradientTransform="matrix(0.00480652, -0.000671387, 0.00189209, 0.0238647, -11.7, -40.75)" spreadMethod ="pad" x1="-819.2" y1="0" x2="819.2" y2="0" >
<stop  offset="0.372549" style="stop-color:#7E7E05;stop-opacity:0.847059" />
<stop  offset="1" style="stop-color:#6B6B1D;stop-opacity:0" />
</linearGradient>
<path style="fill:none;stroke-width:0.7;stroke-linecap:round;stroke-linejoin:round;stroke-miterlimit:3;stroke:url(#LinearGradID_657) " d="M-13.5 -34Q-14.65 -35.95 -15.35 -39.45Q-15.7 -41.2 -15.85 -44.65Q-16.25 -53.35 -13.5 -60.1Q-15.2 -51.4 -14.7 -45.7Q-14.25 -40.05 -13.4 -37.55Q-12.5 -35.05 -11.25 -33.25L-7.55 -28.05Q-5.05 -24.75 -9.05 -21.35L-11.55 -21Q-7.25 -24.7 -9.8 -28.4L-13.5 -34z" />
</g>
<g id="PathID_1312" transform="matrix(1, 0, 0, 1, 110.3, 61.15)">
<linearGradient
id="LinearGradID_658" gradientUnits="userSpaceOnUse" gradientTransform="matrix(0.000900269, 0.0241089, -0.0154724, 0.000183105, -9.25, -45.2)" spreadMethod ="pad" x1="-819.2" y1="0" x2="819.2" y2="0" >
<stop  offset="0" style="stop-color:#CCC845;stop-opacity:1" />
<stop  offset="0.329412" style="stop-color:#C7C737;stop-opacity:1" />
<stop  offset="0.788235" style="stop-color:#3C5C0A;stop-opacity:0.862745" />
<stop  offset="1" style="stop-color:#6F7D0C;stop-opacity:0.45098" />
</linearGradient>
<path style="fill:url(#LinearGradID_658) " d="M-15.15 -43.45Q-16.5 -40.15 -16.2 -37.15Q-15.8 -33.65 -13.05 -30.4L-10.8 -27.9Q-9.95 -26.95 -9.6 -25.65Q-9.2 -22.35 -10.85 -21L-13.45 -20.65Q-11.45 -22 -11.15 -23.9Q-10.7 -26.3 -13.2 -29.05Q-14.65 -30.65 -15.5 -32.35Q-16.55 -34.4 -17 -37Q-17.65 -49.1 -5.1 -50.5Q-9.65 -49.2 -11.75 -47.75Q-14 -46.2 -15.15 -43.45" />
<linearGradient
id="LinearGradID_659" gradientUnits="userSpaceOnUse" gradientTransform="matrix(-0.0080719, 0.0184784, -0.0140533, -0.00802612, -8.5, -37.4)" spreadMethod ="pad" x1="-819.2" y1="0" x2="819.2" y2="0" >
<stop  offset="0.372549" style="stop-color:#7E7E05;stop-opacity:0.847059" />
<stop  offset="1" style="stop-color:#6B6B1D;stop-opacity:0" />
</linearGradient>
<path style="fill:none;stroke-width:0.7;stroke-linecap:round;stroke-linejoin:round;stroke-miterlimit:3;stroke:url(#LinearGradID_659) " d="M-11.75 -47.75Q-9.65 -49.2 -5.1 -50.5Q-17.65 -49.1 -17 -37Q-16.55 -34.4 -15.5 -32.35Q-14.65 -30.65 -13.2 -29.05Q-10.7 -26.3 -11.15 -23.9Q-11.45 -22 -13.45 -20.65L-10.85 -21Q-9.2 -22.35 -9.6 -25.65Q-9.95 -26.95 -10.8 -27.9L-13.05 -30.4Q-15.8 -33.65 -16.2 -37.15Q-16.5 -40.15 -15.15 -43.45Q-14 -46.2 -11.75 -47.75z" />
</g>
<g id="PathID_1313" transform="matrix(1, 0, 0, 1, 110.3, 61.15)">
<linearGradient
id="LinearGradID_660" gradientUnits="userSpaceOnUse" gradientTransform="matrix(-0.00526428, 0.0102844, 0.0123901, 0.0015564, -7.5, -31.65)" spreadMethod ="pad" x1="-819.2" y1="0" x2="819.2" y2="0" >
<stop  offset="0" style="stop-color:#CCC845;stop-opacity:1" />
<stop  offset="0.329412" style="stop-color:#C7C737;stop-opacity:1" />
<stop  offset="0.788235" style="stop-color:#3C5C0A;stop-opacity:0.862745" />
<stop  offset="1" style="stop-color:#6F7D0C;stop-opacity:0.45098" />
</linearGradient>
<path style="fill:url(#LinearGradID_660) " d="M-7.45 -33.5Q-8.5 -32.2 -7.15 -30.65Q-5.6 -28.95 -5.7 -26.95Q-5.75 -23.5 -10.95 -20.9L-11.15 -22.25Q-7.7 -23.7 -7 -25.95Q-6.35 -28 -8.2 -31.05Q-9.1 -32.45 -7.75 -33.8Q-6.55 -35 -4.35 -35.4Q-6.6 -34.6 -7.45 -33.5" />
<linearGradient
id="LinearGradID_661" gradientUnits="userSpaceOnUse" gradientTransform="matrix(-0.00152588, 0.00561523, 0.0129852, 0.000320435, -8.15, -26.45)" spreadMethod ="pad" x1="-819.2" y1="0" x2="819.2" y2="0" >
<stop  offset="0.372549" style="stop-color:#7E7E05;stop-opacity:0.847059" />
<stop  offset="1" style="stop-color:#6B6B1D;stop-opacity:0" />
</linearGradient>
<path style="fill:none;stroke-width:0.7;stroke-linecap:round;stroke-linejoin:round;stroke-miterlimit:3;stroke:url(#LinearGradID_661) " d="M-4.35 -35.4Q-6.55 -35 -7.75 -33.8Q-9.1 -32.45 -8.2 -31.05Q-6.35 -28 -7 -25.95Q-7.7 -23.7 -11.15 -22.25L-10.95 -20.9Q-5.75 -23.5 -5.7 -26.95Q-5.6 -28.95 -7.15 -30.65Q-8.5 -32.2 -7.45 -33.5Q-6.6 -34.6 -4.35 -35.4z" />
</g>
<g id="PathID_1314" transform="matrix(1, 0, 0, 1, 110.3, 61.15)">
<linearGradient
id="LinearGradID_662" gradientUnits="userSpaceOnUse" gradientTransform="matrix(0.00305176, 0.0133667, -0.0137024, 0.00312805, -12.85, -37.55)" spreadMethod ="pad" x1="-819.2" y1="0" x2="819.2" y2="0" >
<stop  offset="0" style="stop-color:#CCC845;stop-opacity:1" />
<stop  offset="0.329412" style="stop-color:#C7C737;stop-opacity:1" />
<stop  offset="0.788235" style="stop-color:#3C5C0A;stop-opacity:0.862745" />
<stop  offset="1" style="stop-color:#6F7D0C;stop-opacity:0.45098" />
</linearGradient>
<path style="fill:url(#LinearGradID_662) " d="M-11.55 -44.15Q-13.35 -35.7 -11.7 -29.05Q-10.45 -24.65 -11.8 -20.9L-13.95 -20.5Q-12.2 -25.5 -13.05 -29.4Q-13.95 -36.8 -11.55 -44.15" />
<linearGradient
id="LinearGradID_663" gradientUnits="userSpaceOnUse" gradientTransform="matrix(0.00132751, 0.00950623, -0.0143433, 0.00201416, -10.95, -37.9)" spreadMethod ="pad" x1="-819.2" y1="0" x2="819.2" y2="0" >
<stop  offset="0.372549" style="stop-color:#7E7E05;stop-opacity:0.847059" />
<stop  offset="1" style="stop-color:#6B6B1D;stop-opacity:0" />
</linearGradient>
<path style="fill:none;stroke-width:0.7;stroke-linecap:round;stroke-linejoin:round;stroke-miterlimit:3;stroke:url(#LinearGradID_663) " d="M-11.55 -44.15Q-13.35 -35.7 -11.7 -29.05Q-10.45 -24.65 -11.8 -20.9L-13.95 -20.5Q-12.2 -25.5 -13.05 -29.4Q-13.95 -36.8 -11.55 -44.15L-11.35 -44.7" />
</g>
<g id="PathID_1315" transform="matrix(1, 0, 0, 1, 110.3, 61.15)">
<linearGradient
id="LinearGradID_664" gradientUnits="userSpaceOnUse" gradientTransform="matrix(0.00209045, 0.00660706, -0.0137939, 0.00253296, -11.7, -29.95)" spreadMethod ="pad" x1="-819.2" y1="0" x2="819.2" y2="0" >
<stop  offset="0" style="stop-color:#CCC845;stop-opacity:1" />
<stop  offset="0.329412" style="stop-color:#C7C737;stop-opacity:1" />
<stop  offset="0.788235" style="stop-color:#3C5C0A;stop-opacity:0.862745" />
<stop  offset="1" style="stop-color:#6F7D0C;stop-opacity:0.45098" />
</linearGradient>
<path style="fill:url(#LinearGradID_664) " d="M-10 -33.4Q-12.35 -29 -11.15 -25.7Q-10.25 -23.55 -11.85 -21.55L-14 -21.25Q-11.95 -23.85 -12.5 -25.85Q-12.85 -29.5 -10 -33.4" />
<linearGradient
id="LinearGradID_665" gradientUnits="userSpaceOnUse" gradientTransform="matrix(0.000671387, 0.00476074, -0.0143433, 0.00201416, -9.8, -30.25)" spreadMethod ="pad" x1="-819.2" y1="0" x2="819.2" y2="0" >
<stop  offset="0.372549" style="stop-color:#7E7E05;stop-opacity:0.847059" />
<stop  offset="1" style="stop-color:#6B6B1D;stop-opacity:0" />
</linearGradient>
<path style="fill:none;stroke-width:0.7;stroke-linecap:round;stroke-linejoin:round;stroke-miterlimit:3;stroke:url(#LinearGradID_665) " d="M-10 -33.4Q-12.35 -29 -11.15 -25.7Q-10.25 -23.55 -11.85 -21.55L-14 -21.25Q-11.95 -23.85 -12.5 -25.85Q-12.85 -29.5 -10 -33.4L-9.75 -33.7" />
</g>
<g id="PathID_1316" transform="matrix(1, 0, 0, 1, 110.3, 61.15)">
<path style="fill:#625543;fill-opacity:1" d="M-98.9 -4.95L-102.85 -5.05L-104.6 -5.05Q-104.6 -5.65 -105.45 -7.65L-106.05 -8.75L-103.45 -9.15Q-99.9 -8.15 -98.65 -8.15L-95.65 -8.5Q-94.7 -8.4 -93.7 -7.65L-92.85 -6.65L-92.45 -6.4L-88.25 -3.55L-95.2 -3.3L-98.9 -4.95" />
<path style="fill:#514533;fill-opacity:1" d="M-95.2 -3.3L-101.5 -3.05L-110.15 -4.05L-110.15 -5.55L-106.55 -8.5L-106.05 -8.75L-105.45 -7.65Q-104.6 -5.65 -104.6 -5.05L-102.85 -5.05L-98.9 -4.95L-95.2 -3.3M-76.35 -10L-83.75 -10.85L-83.15 -11.25Q-79.95 -13.45 -76.85 -14.45Q-73.75 -15.55 -71.15 -13.45L-69.9 -12.5L-76.35 -10" />
<path style="fill:#413727;fill-opacity:1" d="M-76.35 -10L-75.65 -7.35L-77.95 -8Q-81.55 -8 -85.5 -5.8L-87.5 -5.65Q-89.1 -5.65 -90.85 -6.3L-90.85 -7.15Q-88.4 -7.95 -83.75 -10.85L-76.35 -10" />
<path style="fill:#796A54;fill-opacity:1" d="M-73.75 -6.55L-73.25 -6.3Q-70.65 -5.05 -70.4 -4.2L-70.3 -3.95Q-70.3 -2.8 -71.3 -2.55L-76.1 -2.55L-81.45 -2.8L-78.35 -4.8L-81.45 -2.8L-81.95 -2.95L-86.65 -3.55Q-87.75 -3.8 -87.75 -4.7L-85.5 -5.8Q-81.55 -8 -77.95 -8L-75.65 -7.35L-73.75 -6.55" />
<path style="fill:#463B2B;fill-opacity:1" d="M-73.25 -6.3L-73.75 -6.55L-75.65 -7.35L-76.35 -10L-69.9 -12.5Q-68.05 -11.2 -66.8 -10.75L-69.2 -9.5Q-72.5 -7.55 -73.25 -6.3" />
<path style="fill:#332A1D;fill-opacity:1" d="M-57.3 -5.55L-57.3 -5.5Q-57.3 -5.05 -58.3 -4.3L-60.65 -4.3L-65.2 -4.55L-69.55 -3.95L-70.4 -4.2Q-70.65 -5.05 -73.25 -6.3Q-72.5 -7.55 -69.2 -9.5L-66.8 -10.75L-66.8 -8.4L-63.6 -6.4L-58.75 -8.05L-57.5 -6.2L-57.3 -5.55" />
<path style="fill:#433827;fill-opacity:1" d="M-66.8 -10.75Q-64.95 -11.75 -64 -12Q-62 -12.1 -59.5 -9L-58.75 -8.05L-63.6 -6.4L-66.8 -8.4L-66.8 -10.75" />
<path style="fill:none;stroke-width:0.7;stroke-linecap:round;stroke-linejoin:round;stroke-miterlimit:3;stroke:#000000;stroke-opacity:0.301961" d="M-106.05 -8.75L-103.45 -9.15Q-99.9 -8.15 -98.65 -8.15L-95.65 -8.5Q-94.7 -8.4 -93.7 -7.65L-92.85 -6.65L-92.45 -6.4L-88.25 -3.55L-95.2 -3.3L-101.5 -3.05L-110.15 -4.05L-110.15 -5.55L-106.55 -8.5L-106.05 -8.75z" />
<path style="fill:none;stroke-width:0.7;stroke-linecap:round;stroke-linejoin:round;stroke-miterlimit:3;stroke:#000000;stroke-opacity:0.301961" d="M-83.75 -10.85L-83.15 -11.25Q-79.95 -13.45 -76.85 -14.45Q-73.75 -15.55 -71.15 -13.45L-69.9 -12.5Q-68.05 -11.2 -66.8 -10.75Q-64.95 -11.75 -64 -12Q-62 -12.1 -59.5 -9L-58.75 -8.05L-57.5 -6.2L-57.3 -7.05" />
<path style="fill:none;stroke-width:0.7;stroke-linecap:round;stroke-linejoin:round;stroke-miterlimit:3;stroke:#000000;stroke-opacity:0.301961" d="M-83.75 -10.85Q-88.4 -7.95 -90.85 -7.15L-90.85 -6.3Q-89.1 -5.65 -87.5 -5.65L-85.5 -5.8Q-81.55 -8 -77.95 -8L-75.65 -7.35" />
<path style="fill:none;stroke-width:0.7;stroke-linecap:round;stroke-linejoin:round;stroke-miterlimit:3;stroke:#000000;stroke-opacity:0.301961" d="M-85.5 -5.8L-87.75 -4.7Q-87.75 -3.8 -86.65 -3.55L-81.95 -2.95" />
<path style="fill:none;stroke-width:0.7;stroke-linecap:round;stroke-linejoin:round;stroke-miterlimit:3;stroke:#000000;stroke-opacity:0.180392" d="M-81.95 -2.95L-81.45 -2.8L-78.35 -4.8" />
<path style="fill:none;stroke-width:0.7;stroke-linecap:round;stroke-linejoin:round;stroke-miterlimit:3;stroke:#000000;stroke-opacity:0.301961" d="M-81.45 -2.8L-76.1 -2.55L-71.3 -2.55Q-70.3 -2.8 -70.3 -3.95L-70.4 -4.2Q-70.65 -5.05 -73.25 -6.3L-73.75 -6.55L-75.65 -7.35" />
<path style="fill:none;stroke-width:0.7;stroke-linecap:round;stroke-linejoin:round;stroke-miterlimit:3;stroke:#000000;stroke-opacity:0.301961" d="M-66.8 -10.75L-69.2 -9.5Q-72.5 -7.55 -73.25 -6.3" />
<path style="fill:none;stroke-width:0.7;stroke-linecap:round;stroke-linejoin:round;stroke-miterlimit:3;stroke:#000000;stroke-opacity:0.301961" d="M-70.4 -4.2L-69.55 -3.95L-65.2 -4.55L-60.65 -4.3L-58.3 -4.3Q-57.3 -5.05 -57.3 -5.5" />
<path style="fill:none;stroke-width:0.7;stroke-linecap:round;stroke-linejoin:round;stroke-miterlimit:3;stroke:#000000;stroke-opacity:0.301961" d="M-57.3 -5.55L-57.5 -6.2" />
</g>
<g id="PathID_1317" transform="matrix(1, 0, 0, 1, 110.3, 61.15)">
<path style="fill:#796A54;fill-opacity:1" d="M44.5 -23.3L33.1 -23.3L32.55 -23.5L29.65 -29.05L12.9 -34.9Q13.85 -37.15 16.8 -36.6L21.65 -37.4L31.05 -39.1L32 -38.95Q34.4 -37.55 36.4 -35.5Q37.8 -34 39.4 -32.95L41.65 -31.55L44.5 -23.3M-46.7 -10.5L-42.35 -4.4L-47.7 -1.35L-49.15 -0.5L-67.6 -0.85Q-63.4 -3.25 -59.45 -4.5L-57.95 -9.2Q-50.65 -12.25 -44.2 -17.75L-46.7 -10.5M-54.4 -7.25L-52.95 -7.85L-51.7 -8.5L-52.1 -7.8Q-53.5 -5.25 -54.15 -3.3Q-53.5 -5.25 -52.1 -7.8L-51.7 -8.5L-52.95 -7.85L-54.4 -7.25M-51.7 -8.5Q-50.3 -11.15 -49.45 -13.2Q-50.3 -11.15 -51.7 -8.5" />
<path style="fill:#463B2B;fill-opacity:1" d="M12.8 -17.3L12.8 -33.9L15.75 -29.5L21.25 -21.4L21.25 -12.6L17.45 -9.9L12.8 -17.3" />
<path style="fill:#625543;fill-opacity:1" d="M66.05 -7.2L60.8 -4.65L59.9 -5.35L58.45 -3.5L56.95 -2.8L48.15 -6.4L52.45 -12.7L54.55 -12.7L54.15 -15.8L60 -15.8Q62.2 -13.55 64.7 -11.7L66.05 -7.2M-67.6 -0.85L-79.25 -2.3Q-72.9 -4.9 -70.2 -9.2Q-62.2 -11.05 -57.95 -9.2L-59.45 -4.5Q-63.4 -3.25 -67.6 -0.85M-0.4 -16L-7.15 -7.45L-8.1 -6.95L-12.25 -11.7Q-12.25 -16.4 -13.9 -19.7Q-15.6 -23.05 -17.95 -23.05L-10.75 -24.45L-0.4 -16M15.75 -29.5L12.8 -33.9L12.9 -34.9L29.65 -29.05L32.55 -23.5L15.75 -29.5M-37.65 -2.15L-47.7 -1.35L-42.35 -4.4L-37.65 -2.15M-12.3 -23.35L-12.15 -23.3L-12.35 -23.55L-12.65 -23.55L-12.35 -23.55L-12.3 -23.35M-12.35 -23.55L-12.65 -23.55L-12.3 -23.35M-12.15 -23.3L-10.7 -22.65L-10.5 -22.55Q-9.75 -22.2 -9.25 -21.5Q-9.75 -22.2 -10.5 -22.55L-10.7 -22.65L-12.15 -23.3L-12.3 -23.35M-10.7 -22.65L-12 -21.1Q-12.7 -19.95 -12.65 -19.45Q-12.7 -19.95 -12 -21.1L-10.7 -22.65" />
<path style="fill:#514533;fill-opacity:1" d="M-13.9 -19.7Q-12.25 -16.4 -12.25 -11.7L-19.55 -3.6L-29.6 -2.8L-29.7 -2.85L-29.95 -3.05L-29.7 -2.85L-29.6 -2.8L-37.65 -2.15L-42.35 -4.4L-46.7 -10.5L-44.2 -17.75L-35.9 -23.25L-31.75 -25.6Q-28 -27.25 -24.35 -25.65L-17.95 -23.05Q-15.6 -23.05 -13.9 -19.7M3.1 -18.25L0.85 -19.7L-1.75 -20.65Q-4.3 -21.3 -6.1 -22.9Q-8.1 -24.8 -10.75 -24.45L-4 -31.3L12.05 -35.2L12.8 -33.9L12.8 -17.3L3.1 -18.25M58.45 -3.5L59.9 -5.35L60.8 -4.65L58.45 -3.5M-37.75 -10.55Q-35.65 -9.75 -33.75 -7.6L-29.95 -3.05Q-32.05 -4.55 -34.7 -4.4Q-32.05 -4.55 -29.95 -3.05L-33.75 -7.6Q-35.65 -9.75 -37.75 -10.55" />
<path style="fill:#4F4333;fill-opacity:1" d="M2.8 -1.7L5.65 -8.7L0.85 -19.7L3.1 -18.25L3.4 -18Q8.75 -12.9 13.65 -7.2Q17.95 -5.75 20 -3.75L12.2 -1.85L8.65 -5.7Q10.65 -0.5 8.9 -0.55L5.7 -0.6L2.8 -1.7M-19.55 -3.6L-13.35 -4.1L-8.1 -6.95L-6.5 -5.15L-9.05 0L-22.9 0.15L-19.55 -3.6M8.65 -5.7L12.2 -1.85" />
<path style="fill:#352D21;fill-opacity:1" d="M12.8 -17.3L17.45 -9.9L13.65 -7.2Q8.75 -12.9 3.4 -18L3.1 -18.25L12.8 -17.3" />
<path style="fill:#3F3526;fill-opacity:1" d="M58.45 -3.5L60.8 -4.65L67 0.55L54.95 0.95L58.45 -3.5M2.8 -1.7L5.7 -0.6L5.8 -0.55L-9.05 0L-6.5 -5.15L2.8 -1.7" />
<path style="fill:#514535;fill-opacity:1" d="M-6.5 -5.15L-8.1 -6.95L-7.15 -7.45L-0.4 -16L-10.75 -24.45Q-8.1 -24.8 -6.1 -22.9Q-4.3 -21.3 -1.75 -20.65L0.85 -19.7L5.65 -8.7L2.8 -1.7L-6.5 -5.15" />
<path style="fill:#433A2C;fill-opacity:1" d="M15.75 -29.5L32.55 -23.5L34.4 -19.95L47.75 -12.7L42.85 -13.45L21.25 -21.4L15.75 -29.5" />
<path style="fill:#5F523F;fill-opacity:1" d="M34.4 -19.95L32.55 -23.5L33.1 -23.3L44.5 -23.3L41.65 -31.55Q46.95 -28.35 52.9 -25.8L51.85 -25.9L46.3 -19.95L34.4 -19.95M47.3 0.55L36.4 -1.3L42.85 -13.45L47.75 -12.7L42.9 -5.9L47.3 0.55" />
<path style="fill:#43392A;fill-opacity:1" d="M54.55 -12.7L52.45 -12.7L47.75 -12.7L34.4 -19.95L46.3 -19.95L51.85 -25.9L52.9 -25.8L54.15 -15.8L54.55 -12.7" />
<path style="fill:#463B2D;fill-opacity:1" d="M60.8 -4.65L66.05 -7.2L64.7 -11.7L66.4 -10.45Q70.1 -7.95 74.3 -6.2Q75.55 -5.65 76.55 -4.35Q78.45 -1.85 75.35 -0.7Q71.35 0.8 67 0.55L60.8 -4.65M42.9 -5.9L47.75 -12.7L52.45 -12.7L48.15 -6.4L56.95 -2.8L58.45 -3.5L54.95 0.95L54.8 0.95L47.3 0.55L42.9 -5.9" />
<path style="fill:#4A4032;fill-opacity:1" d="M-47.7 -1.35L-37.65 -2.15L-33.25 0L-49.15 -0.5L-47.7 -1.35" />
<path style="fill:#3C3324;fill-opacity:1" d="M-37.65 -2.15L-29.6 -2.8L-19.55 -3.6L-22.9 0.15L-26.1 0.1L-26.3 0.1L-33.25 0L-37.65 -2.15M-26.3 0.1L-29.6 -2.8L-26.3 0.1" />
<path style="fill:#5B4E3C;fill-opacity:1" d="M-8.1 -6.95L-13.35 -4.1L-19.55 -3.6L-12.25 -11.7L-8.1 -6.95" />
<path style="fill:none;stroke-width:0.7;stroke-linecap:round;stroke-linejoin:round;stroke-miterlimit:3;stroke:#000000;stroke-opacity:0.301961" d="M12.9 -34.9Q13.85 -37.15 16.8 -36.6L21.65 -37.4L31.05 -39.1L32 -38.95Q34.4 -37.55 36.4 -35.5Q37.8 -34 39.4 -32.95L41.65 -31.55Q46.95 -28.35 52.9 -25.8L54.15 -15.8L60 -15.8Q62.2 -13.55 64.7 -11.7L66.4 -10.45Q70.1 -7.95 74.3 -6.2Q75.55 -5.65 76.55 -4.35Q78.45 -1.85 75.35 -0.7Q71.35 0.8 67 0.55L54.95 0.95L54.8 1L54.8 0.95L47.3 0.55L36.4 -1.3L42.85 -13.45L21.25 -21.4L21.25 -12.6L17.45 -9.9L13.65 -7.2Q17.95 -5.75 20 -3.75L12.2 -1.85Q10.65 -0.5 8.9 -0.55L5.7 -0.6L5.8 -0.55L-9.05 0L-22.9 0.15L-26.1 0.1" />
<path style="fill:none;stroke-width:0.7;stroke-linecap:round;stroke-linejoin:round;stroke-miterlimit:3;stroke:#000000;stroke-opacity:0.141176" d="M-26.1 0.1L-26.3 0.1" />
<path style="fill:none;stroke-width:0.7;stroke-linecap:round;stroke-linejoin:round;stroke-miterlimit:3;stroke:#000000;stroke-opacity:0.301961" d="M-26.3 0.1L-33.25 0L-49.15 -0.5L-67.6 -0.85L-79.25 -2.3Q-72.9 -4.9 -70.2 -9.2Q-62.2 -11.05 -57.95 -9.2Q-50.65 -12.25 -44.2 -17.75L-35.9 -23.25L-31.75 -25.6Q-28 -27.25 -24.35 -25.65L-17.95 -23.05L-10.75 -24.45L-4 -31.3L12.05 -35.2L12.8 -33.9L12.9 -34.9" />
<path style="fill:none;stroke-width:0.7;stroke-linecap:round;stroke-linejoin:round;stroke-miterlimit:3;stroke:#000000;stroke-opacity:0.301961" d="M15.75 -29.5L12.8 -33.9" />
<path style="fill:none;stroke-width:0.7;stroke-linecap:round;stroke-linejoin:round;stroke-miterlimit:3;stroke:#000000;stroke-opacity:0.301961" d="M13.65 -7.2Q8.75 -12.9 3.4 -18L3.1 -18.25L0.85 -19.7L5.65 -8.7" />
<path style="fill:none;stroke-width:0.7;stroke-linecap:round;stroke-linejoin:round;stroke-miterlimit:3;stroke:#000000;stroke-opacity:0.301961" d="M2.8 -1.7L5.7 -0.6" />
<path style="fill:none;stroke-width:0.7;stroke-linecap:round;stroke-linejoin:round;stroke-miterlimit:3;stroke:#000000;stroke-opacity:0.141176" d="M12.2 -1.85L8.65 -5.7" />
<path style="fill:none;stroke-width:0.7;stroke-linecap:round;stroke-linejoin:round;stroke-miterlimit:3;stroke:#000000;stroke-opacity:0.301961" d="M15.75 -29.5L21.25 -21.4" />
<path style="fill:none;stroke-width:0.7;stroke-linecap:round;stroke-linejoin:round;stroke-miterlimit:3;stroke:#000000;stroke-opacity:0.301961" d="M52.9 -25.8L51.85 -25.9" />
<path style="fill:none;stroke-width:0.7;stroke-linecap:round;stroke-linejoin:round;stroke-miterlimit:3;stroke:#000000;stroke-opacity:0.301961" d="M46.3 -19.95L34.4 -19.95L47.75 -12.7L52.45 -12.7L54.55 -12.7L54.15 -15.8" />
<path style="fill:none;stroke-width:0.7;stroke-linecap:round;stroke-linejoin:round;stroke-miterlimit:3;stroke:#000000;stroke-opacity:0.301961" d="M47.75 -12.7L42.85 -13.45" />
<path style="fill:none;stroke-width:0.7;stroke-linecap:round;stroke-linejoin:round;stroke-miterlimit:3;stroke:#000000;stroke-opacity:0.301961" d="M58.45 -3.5L59.9 -5.35L60.8 -4.65" />
<path style="fill:none;stroke-width:0.7;stroke-linecap:round;stroke-linejoin:round;stroke-miterlimit:3;stroke:#000000;stroke-opacity:0.301961" d="M60.8 -4.65L67 0.55" />
<path style="fill:none;stroke-width:0.7;stroke-linecap:round;stroke-linejoin:round;stroke-miterlimit:3;stroke:#000000;stroke-opacity:0.301961" d="M54.95 0.95L54.8 0.95" />
<path style="fill:none;stroke-width:0.7;stroke-linecap:round;stroke-linejoin:round;stroke-miterlimit:3;stroke:#000000;stroke-opacity:0.301961" d="M54.95 0.95L58.45 -3.5" />
<path style="fill:none;stroke-width:0.7;stroke-linecap:round;stroke-linejoin:round;stroke-miterlimit:3;stroke:#000000;stroke-opacity:0.301961" d="M47.3 0.55L42.9 -5.9" />
<path style="fill:none;stroke-width:0.7;stroke-linecap:round;stroke-linejoin:round;stroke-miterlimit:3;stroke:#000000;stroke-opacity:0.141176" d="M-54.15 -3.3Q-53.5 -5.25 -52.1 -7.8L-51.7 -8.5L-52.95 -7.85L-54.4 -7.25" />
<path style="fill:none;stroke-width:0.7;stroke-linecap:round;stroke-linejoin:round;stroke-miterlimit:3;stroke:#000000;stroke-opacity:0.301961" d="M-42.35 -4.4L-47.7 -1.35" />
<path style="fill:none;stroke-width:0.7;stroke-linecap:round;stroke-linejoin:round;stroke-miterlimit:3;stroke:#000000;stroke-opacity:0.301961" d="M-37.65 -2.15L-42.35 -4.4" />
<path style="fill:none;stroke-width:0.7;stroke-linecap:round;stroke-linejoin:round;stroke-miterlimit:3;stroke:#000000;stroke-opacity:0.301961" d="M-47.7 -1.35L-49.15 -0.5" />
<path style="fill:none;stroke-width:0.7;stroke-linecap:round;stroke-linejoin:round;stroke-miterlimit:3;stroke:#000000;stroke-opacity:0.141176" d="M-49.45 -13.2Q-50.3 -11.15 -51.7 -8.5" />
<path style="fill:none;stroke-width:0.7;stroke-linecap:round;stroke-linejoin:round;stroke-miterlimit:3;stroke:#000000;stroke-opacity:0.301961" d="M-67.6 -0.85Q-63.4 -3.25 -59.45 -4.5" />
<path style="fill:none;stroke-width:0.7;stroke-linecap:round;stroke-linejoin:round;stroke-miterlimit:3;stroke:#000000;stroke-opacity:0.301961" d="M-37.65 -2.15L-33.25 0" />
<path style="fill:none;stroke-width:0.7;stroke-linecap:round;stroke-linejoin:round;stroke-miterlimit:3;stroke:#000000;stroke-opacity:0.141176" d="M-34.7 -4.4Q-32.05 -4.55 -29.95 -3.05L-33.75 -7.6Q-35.65 -9.75 -37.75 -10.55" />
<path style="fill:none;stroke-width:0.7;stroke-linecap:round;stroke-linejoin:round;stroke-miterlimit:3;stroke:#000000;stroke-opacity:0.141176" d="M-29.6 -2.8L-29.7 -2.85L-29.95 -3.05" />
<path style="fill:none;stroke-width:0.7;stroke-linecap:round;stroke-linejoin:round;stroke-miterlimit:3;stroke:#000000;stroke-opacity:0.301961" d="M-10.75 -24.45Q-8.1 -24.8 -6.1 -22.9Q-4.3 -21.3 -1.75 -20.65L0.85 -19.7" />
<path style="fill:none;stroke-width:0.7;stroke-linecap:round;stroke-linejoin:round;stroke-miterlimit:3;stroke:#000000;stroke-opacity:0.141176" d="M-12.3 -23.35L-12.65 -23.55L-12.35 -23.55L-12.3 -23.35L-12.15 -23.3L-10.7 -22.65L-10.5 -22.55Q-9.75 -22.2 -9.25 -21.5" />
<path style="fill:none;stroke-width:0.7;stroke-linecap:round;stroke-linejoin:round;stroke-miterlimit:3;stroke:#000000;stroke-opacity:0.141176" d="M-12.65 -19.45Q-12.7 -19.95 -12 -21.1L-10.7 -22.65" />
<path style="fill:none;stroke-width:0.7;stroke-linecap:round;stroke-linejoin:round;stroke-miterlimit:3;stroke:#000000;stroke-opacity:0.301961" d="M-12.25 -11.7L-19.55 -3.6" />
<path style="fill:none;stroke-width:0.7;stroke-linecap:round;stroke-linejoin:round;stroke-miterlimit:3;stroke:#000000;stroke-opacity:0.141176" d="M-29.6 -2.8L-26.3 0.1" />
<path style="fill:none;stroke-width:0.7;stroke-linecap:round;stroke-linejoin:round;stroke-miterlimit:3;stroke:#000000;stroke-opacity:0.301961" d="M-6.5 -5.15L-9.05 0" />
<path style="fill:none;stroke-width:0.7;stroke-linecap:round;stroke-linejoin:round;stroke-miterlimit:3;stroke:#000000;stroke-opacity:0.301961" d="M-22.9 0.15L-19.55 -3.6" />
<path style="fill:none;stroke-width:0.7;stroke-linecap:round;stroke-linejoin:round;stroke-miterlimit:3;stroke:#000000;stroke-opacity:0.301961" d="M2.8 -1.7L-6.5 -5.15" />
</g>
<g id="PathID_1318" transform="matrix(1, 0, 0, 1, 110.3, 61.15)">
<linearGradient
id="LinearGradID_666" gradientUnits="userSpaceOnUse" gradientTransform="matrix(-0.0150452, 0.0420074, 0.0334167, 0.0139923, 16.3, -48.75)" spreadMethod ="pad" x1="-819.2" y1="0" x2="819.2" y2="0" >
<stop  offset="0" style="stop-color:#CCC845;stop-opacity:1" />
<stop  offset="0.329412" style="stop-color:#C7C737;stop-opacity:1" />
<stop  offset="0.788235" style="stop-color:#3C5C0A;stop-opacity:0.862745" />
<stop  offset="1" style="stop-color:#6F7D0C;stop-opacity:0.45098" />
</linearGradient>
<path style="fill:url(#LinearGradID_666) " d="M8.7 -12.4L7.1 -13.6L12.1 -20.65Q14 -23.35 15.35 -27.1Q16.6 -30.85 17.3 -39.3Q18.05 -47.85 15.5 -60.9Q19.6 -50.75 19 -37.75Q18.8 -32.55 18.25 -29.95Q17.2 -24.7 15.5 -21.75L9.95 -13.4L9.15 -11.95L8.7 -12.4" />
<linearGradient
id="LinearGradID_667" gradientUnits="userSpaceOnUse" gradientTransform="matrix(-0.00720215, -0.00100708, -0.00283813, 0.0357666, 12.8, -31.9)" spreadMethod ="pad" x1="-819.2" y1="0" x2="819.2" y2="0" >
<stop  offset="0.372549" style="stop-color:#7E7E05;stop-opacity:0.847059" />
<stop  offset="1" style="stop-color:#6B6B1D;stop-opacity:0" />
</linearGradient>
<path style="fill:none;stroke-width:0.7;stroke-linecap:round;stroke-linejoin:round;stroke-miterlimit:3;stroke:url(#LinearGradID_667) " d="M9.15 -11.95L9.95 -13.4L15.5 -21.75Q17.2 -24.7 18.25 -29.95Q18.8 -32.55 19 -37.75Q19.6 -50.75 15.5 -60.9Q18.05 -47.85 17.3 -39.3Q16.6 -30.85 15.35 -27.1Q14 -23.35 12.1 -20.65L7.1 -13.6" />
</g>
<g id="PathID_1319" transform="matrix(1, 0, 0, 1, 110.3, 61.15)">
<path style="fill:#413727;fill-opacity:1" d="M14.2 -5.5Q18.85 -2.6 21.3 -1.8L21.3 -0.95Q19.55 -0.3 17.95 -0.3L15.95 -0.45Q12 -2.65 8.4 -2.65L6.1 -2L6.8 -4.65L14.2 -5.5" />
<path style="fill:#796A54;fill-opacity:1" d="M3.7 -0.95L4.2 -1.2L6.1 -2L8.4 -2.65Q12 -2.65 15.95 -0.45L18.2 0.65Q18.2 1.55 17.1 1.8L12.4 2.4L11.9 2.55L6.55 2.8L1.75 2.8Q0.75 2.55 0.75 1.4L0.85 1.15Q1.1 0.3 3.7 -0.95M11.9 2.55L8.8 0.55L11.9 2.55" />
<path style="fill:#514533;fill-opacity:1" d="M14.2 -5.5L6.8 -4.65L0.35 -7.15L1.6 -8.1Q4.2 -10.2 7.3 -9.1Q10.4 -8.1 13.6 -5.9L14.2 -5.5M40.65 -3.6L40.9 -3.35L42.8 -0.4L42.8 1.1Q39.75 2.1 38.25 2.1L35 1.85L36.9 0.2L39 0.1L39.9 0.1L40.35 -2.5L40.65 -3.6" />
<path style="fill:#463B2B;fill-opacity:1" d="M4.2 -1.2L3.7 -0.95Q2.95 -2.2 -0.35 -4.15L-2.75 -5.4Q-1.5 -5.85 0.35 -7.15L6.8 -4.65L6.1 -2L4.2 -1.2" />
<path style="fill:#625543;fill-opacity:1" d="M40.35 -2.5L39.9 0.1L39 0.1L36.9 0.2L35 1.85L31.4 1.6L33.55 -1.25L33.75 -1.5L34.2 -2.5Q34.75 -3.25 35.25 -3.35L36.8 -3Q37.45 -3 39.3 -4Q40.15 -4 40.65 -3.6L40.35 -2.5" />
<path style="fill:#332A1D;fill-opacity:1" d="M0.85 1.15L0 1.4L-4.35 0.8L-8.9 1.05L-11.25 1.05Q-12.25 0.3 -12.25 -0.15L-12.25 -0.2L-12.05 -0.85L-10.8 -2.7L-5.95 -1.05L-2.75 -3.05L-2.75 -5.4L-0.35 -4.15Q2.95 -2.2 3.7 -0.95Q1.1 0.3 0.85 1.15" />
<path style="fill:#433827;fill-opacity:1" d="M-10.8 -2.7L-10.05 -3.65Q-7.55 -6.75 -5.55 -6.65Q-4.6 -6.4 -2.75 -5.4L-2.75 -3.05L-5.95 -1.05L-10.8 -2.7" />
<path style="fill:none;stroke-width:0.7;stroke-linecap:round;stroke-linejoin:round;stroke-miterlimit:3;stroke:#000000;stroke-opacity:0.301961" d="M0.35 -7.15Q-1.5 -5.85 -2.75 -5.4L-0.35 -4.15Q2.95 -2.2 3.7 -0.95L4.2 -1.2L6.1 -2L8.4 -2.65Q12 -2.65 15.95 -0.45L17.95 -0.3Q19.55 -0.3 21.3 -0.95L21.3 -1.8Q18.85 -2.6 14.2 -5.5" />
<path style="fill:none;stroke-width:0.7;stroke-linecap:round;stroke-linejoin:round;stroke-miterlimit:3;stroke:#000000;stroke-opacity:0.301961" d="M0.35 -7.15L1.6 -8.1Q4.2 -10.2 7.3 -9.1Q10.4 -8.1 13.6 -5.9L14.2 -5.5" />
<path style="fill:none;stroke-width:0.7;stroke-linecap:round;stroke-linejoin:round;stroke-miterlimit:3;stroke:#000000;stroke-opacity:0.301961" d="M35 1.85L31.4 1.6L33.55 -1.25L33.75 -1.5L34.2 -2.5Q34.75 -3.25 35.25 -3.35L36.8 -3Q37.45 -3 39.3 -4Q40.15 -4 40.65 -3.6L40.9 -3.35L42.8 -0.4L42.8 1.1Q39.75 2.1 38.25 2.1L35 1.85z" />
<path style="fill:none;stroke-width:0.7;stroke-linecap:round;stroke-linejoin:round;stroke-miterlimit:3;stroke:#000000;stroke-opacity:0.301961" d="M15.95 -0.45L18.2 0.65Q18.2 1.55 17.1 1.8L12.4 2.4" />
<path style="fill:none;stroke-width:0.7;stroke-linecap:round;stroke-linejoin:round;stroke-miterlimit:3;stroke:#000000;stroke-opacity:0.180392" d="M12.4 2.4L11.9 2.55" />
<path style="fill:none;stroke-width:0.7;stroke-linecap:round;stroke-linejoin:round;stroke-miterlimit:3;stroke:#000000;stroke-opacity:0.301961" d="M11.9 2.55L6.55 2.8L1.75 2.8Q0.75 2.55 0.75 1.4L0.85 1.15L0 1.4L-4.35 0.8L-8.9 1.05L-11.25 1.05Q-12.25 0.3 -12.25 -0.15" />
<path style="fill:none;stroke-width:0.7;stroke-linecap:round;stroke-linejoin:round;stroke-miterlimit:3;stroke:#000000;stroke-opacity:0.301961" d="M-12.25 -0.2L-12.05 -0.85L-12.25 -1.7" />
<path style="fill:none;stroke-width:0.7;stroke-linecap:round;stroke-linejoin:round;stroke-miterlimit:3;stroke:#000000;stroke-opacity:0.180392" d="M8.8 0.55L11.9 2.55" />
<path style="fill:none;stroke-width:0.7;stroke-linecap:round;stroke-linejoin:round;stroke-miterlimit:3;stroke:#000000;stroke-opacity:0.301961" d="M0.85 1.15Q1.1 0.3 3.7 -0.95" />
<path style="fill:none;stroke-width:0.7;stroke-linecap:round;stroke-linejoin:round;stroke-miterlimit:3;stroke:#000000;stroke-opacity:0.301961" d="M-12.05 -0.85L-10.8 -2.7L-10.05 -3.65Q-7.55 -6.75 -5.55 -6.65Q-4.6 -6.4 -2.75 -5.4" />
</g>
</svg>
