<?xml version="1.0" encoding="utf-8"?>
<svg version="1.1" id="Layer_1"
xmlns="http://www.w3.org/2000/svg"
xmlns:xlink="http://www.w3.org/1999/xlink"
width="45px" height="85px"
xml:space="preserve">
<g id="PathID_1366" transform="matrix(1, 0, 0, 1, 24.6, 83.75)">
<path style="fill:none;stroke-width:1;stroke-linecap:round;stroke-linejoin:round;stroke-miterlimit:3;stroke:#000000;stroke-opacity:0.301961" d="M0.2 -46.25L0.2 0.55" />
</g>
<g id="PathID_1367" transform="matrix(1, 0, 0, 1, 24.6, 83.75)">
<path style="fill:#870111;fill-opacity:1" d="M-1.55 -78.45Q3.8 -82.5 9 -82.75L9.35 -82.75Q16.05 -79.5 15.75 -72.1Q15.95 -62.3 4.95 -54.7Q-0.35 -51.35 -5.45 -51.05Q-11.75 -52.6 -16.95 -56.75Q-21.95 -60.75 -23.55 -65.45Q-17.25 -54.1 -1.65 -53.15Q8.05 -62 10.95 -69.1Q13.3 -74.9 10.75 -78.05Q8.4 -80.9 4 -80Q-0.55 -79.1 -3.05 -74.7Q-4.85 -80.4 -10.7 -83.6Q-4.35 -83.35 -1.55 -78.45M-1.7 -44.6L-0.3 -50.3L1.05 -50.75L2.55 -47.75L1.05 -50.75L2.1 -51.2L5.3 -44.85Q3.5 -45.95 2.2 -45.3L1 -44.05Q-1.65 -42.25 -3.9 -43.8L-1.7 -50.4L-0.3 -50.3L-1.7 -44.6" />
<radialGradient
id="RadialGradID_714" gradientUnits="userSpaceOnUse" gradientTransform="matrix(0.0269928, -0.00167847, 0.000549316, 0.0274963, -12.25, -76.4)" spreadMethod ="pad" cx="0" cy="0" r="819.2" fx="210534" fy="0" >
<stop  offset="0"  style="stop-color:#FF4238;stop-opacity:1" />
<stop  offset="1"  style="stop-color:#BD1327;stop-opacity:1" />
</radialGradient>
<path style="fill:url(#RadialGradID_714) " d="M-24.45 -70.55Q-24.25 -77.25 -21.6 -80.45Q-19.1 -83.5 -10.7 -83.6Q-4.85 -80.4 -3.05 -74.7Q-0.55 -79.1 4 -80Q8.4 -80.9 10.75 -78.05Q13.3 -74.9 10.95 -69.1Q8.05 -62 -1.65 -53.15Q-17.25 -54.1 -23.55 -65.45Q-24.45 -67.9 -24.45 -70.55M-12 -80.15Q-12.65 -81.15 -14.05 -81.25Q-15.45 -81.25 -16.8 -80.35Q-18.25 -79.45 -18.75 -78.1Q-19.35 -76.75 -18.75 -75.7Q-18.15 -74.7 -16.7 -74.7Q-15.3 -74.65 -13.85 -75.55Q-12.55 -76.45 -11.95 -77.85Q-11.4 -79.1 -12 -80.15M-21 -67.4Q-20.55 -66.8 -19.95 -66.8Q-19.3 -66.9 -18.9 -67.5Q-18.4 -68.2 -18.45 -69.1Q-18.45 -70 -18.9 -70.55Q-19.4 -71.15 -20.05 -71.1Q-20.7 -71.05 -21.05 -70.45Q-21.5 -69.8 -21.5 -68.9Q-21.45 -68.05 -21 -67.4" />
<linearGradient
id="LinearGradID_715" gradientUnits="userSpaceOnUse" gradientTransform="matrix(0.00604248, 0.00314331, -0.00921631, 0.0174255, 18.65, -68.55)" spreadMethod ="pad" x1="-819.2" y1="0" x2="819.2" y2="0" >
<stop  offset="0" style="stop-color:#870111;stop-opacity:1" />
<stop  offset="1" style="stop-color:#B4829B;stop-opacity:1" />
</linearGradient>
<path style="fill:url(#LinearGradID_715) " d="M-0.3 -50.3L-1.7 -50.4L-5.45 -51.05Q-0.35 -51.35 4.95 -54.7Q15.95 -62.3 15.75 -72.1Q16.05 -79.5 9.35 -82.75L13.7 -82.25Q22.4 -76.7 19.2 -65.8Q14.95 -56.05 2.1 -51.2L1.05 -50.75L-0.3 -50.3" />
<path style="fill:#FF615B;fill-opacity:1" d="M-11.95 -77.85Q-12.55 -76.45 -13.85 -75.55Q-15.3 -74.65 -16.7 -74.7Q-18.15 -74.7 -18.75 -75.7Q-19.35 -76.75 -18.75 -78.1Q-18.25 -79.45 -16.8 -80.35Q-15.45 -81.25 -14.05 -81.25Q-12.65 -81.15 -12 -80.15Q-11.4 -79.1 -11.95 -77.85M-21.5 -68.9Q-21.5 -69.8 -21.05 -70.45Q-20.7 -71.05 -20.05 -71.1Q-19.4 -71.15 -18.9 -70.55Q-18.45 -70 -18.45 -69.1Q-18.4 -68.2 -18.9 -67.5Q-19.3 -66.9 -19.95 -66.8Q-20.55 -66.8 -21 -67.4Q-21.45 -68.05 -21.5 -68.9" />
<path style="fill:none;stroke-width:0.7;stroke-linecap:round;stroke-linejoin:round;stroke-miterlimit:3;stroke:#000000;stroke-opacity:0.301961" d="M-23.55 -65.45Q-21.95 -60.75 -16.95 -56.75Q-11.75 -52.6 -5.45 -51.05" />
<path style="fill:none;stroke-width:0.7;stroke-linecap:round;stroke-linejoin:round;stroke-miterlimit:3;stroke:#000000;stroke-opacity:0.301961" d="M9.35 -82.75L9 -82.75Q3.8 -82.5 -1.55 -78.45Q-4.35 -83.35 -10.7 -83.6Q-19.1 -83.5 -21.6 -80.45Q-24.25 -77.25 -24.45 -70.55Q-24.45 -67.9 -23.55 -65.45" />
<path style="fill:none;stroke-width:0.7;stroke-linecap:round;stroke-linejoin:round;stroke-miterlimit:3;stroke:#000000;stroke-opacity:0.301961" d="M9.35 -82.75L13.7 -82.25Q22.4 -76.7 19.2 -65.8Q14.95 -56.05 2.1 -51.2L5.3 -44.85Q3.5 -45.95 2.2 -45.3L1 -44.05Q-1.65 -42.25 -3.9 -43.8L-1.7 -50.4L-5.45 -51.05" />
<path style="fill:none;stroke-width:0.7;stroke-linecap:round;stroke-linejoin:round;stroke-miterlimit:3;stroke:#000000;stroke-opacity:0.301961" d="M2.1 -51.2L1.05 -50.75L2.55 -47.75" />
<path style="fill:none;stroke-width:0.7;stroke-linecap:round;stroke-linejoin:round;stroke-miterlimit:3;stroke:#000000;stroke-opacity:0.301961" d="M-0.3 -50.3L-1.7 -50.4" />
<path style="fill:none;stroke-width:0.7;stroke-linecap:round;stroke-linejoin:round;stroke-miterlimit:3;stroke:#000000;stroke-opacity:0.301961" d="M-0.3 -50.3L-1.7 -44.6" />
<path style="fill:none;stroke-width:0.7;stroke-linecap:round;stroke-linejoin:round;stroke-miterlimit:3;stroke:#000000;stroke-opacity:0.301961" d="M1.05 -50.75L-0.3 -50.3" />
</g>
</svg>
