<?xml version="1.0" encoding="utf-8"?>
<svg version="1.1" id="Layer_1"
xmlns="http://www.w3.org/2000/svg"
xmlns:xlink="http://www.w3.org/1999/xlink"
width="14px" height="24px"
xml:space="preserve">
<g id="PathID_1819" transform="matrix(1, 0, 0, 1, 7.25, 23.2)">
<linearGradient
id="LinearGradID_1015" gradientUnits="userSpaceOnUse" gradientTransform="matrix(-0.00160217, 0.00405884, -0.00480652, -0.00297546, 1.35, -8)" spreadMethod ="pad" x1="-819.2" y1="0" x2="819.2" y2="0" >
<stop  offset="0.0431373" style="stop-color:#96B426;stop-opacity:1" />
<stop  offset="0.929412" style="stop-color:#668003;stop-opacity:1" />
</linearGradient>
<path style="fill:url(#LinearGradID_1015) " d="M0.65 -1.75L-0.8 -3.95L-0.9 -4.05L-0.45 -5.3L-0.95 -4.15L-1.05 -4.4Q-1.25 -6.65 -0.1 -8.1Q1.75 -10.35 1.95 -11.5L2.35 -10.4L2.65 -9.05Q2.9 -7.1 1.7 -4.75Q0.8 -3.15 0.65 -1.75M-0.45 -5.3Q1.2 -7.6 1.4 -8.55Q1.2 -7.6 -0.45 -5.3L-0.9 -4.05" />
<path style="fill:none;stroke-width:0.7;stroke-linecap:round;stroke-linejoin:round;stroke-miterlimit:3;stroke:#000000;stroke-opacity:0.388235" d="M0.65 -1.75L-0.8 -3.95L-0.9 -4.05L-0.95 -4.15L-1.05 -4.4Q-1.25 -6.65 -0.1 -8.1Q1.75 -10.35 1.95 -11.5L2.35 -10.4L2.65 -9.05Q2.9 -7.1 1.7 -4.75Q0.8 -3.15 0.65 -1.75z" />
<path style="fill:none;stroke-width:0.7;stroke-linecap:round;stroke-linejoin:round;stroke-miterlimit:3;stroke:#00FF00;stroke-opacity:1" d="M0.65 -1.75L1.05 -1.2" />
<path style="fill:none;stroke-width:0.7;stroke-linecap:round;stroke-linejoin:round;stroke-miterlimit:3;stroke:#000000;stroke-opacity:0.0784314" d="M1.4 -8.55Q1.2 -7.6 -0.45 -5.3L-0.9 -4.05" />
</g>
<g id="PathID_1820" transform="matrix(1, 0, 0, 1, 7.25, 23.2)">
<path style="fill:#657E06;fill-opacity:1" d="M-0.6 -13.4Q-0.85 -6.2 0.65 -0.15L-0.05 -0.1Q-1.2 -6.45 -0.6 -13.4" />
<path style="fill:none;stroke-width:0.7;stroke-linecap:round;stroke-linejoin:round;stroke-miterlimit:3;stroke:#000000;stroke-opacity:0.388235" d="M-0.05 -0.1L0.65 -0.15Q-0.85 -6.2 -0.6 -13.4Q-1.2 -6.45 -0.05 -0.1z" />
</g>
<g id="PathID_1821" transform="matrix(1, 0, 0, 1, 7.25, 23.2)">
<linearGradient
id="LinearGradID_1016" gradientUnits="userSpaceOnUse" gradientTransform="matrix(0.0019989, 0.0030365, -0.00228882, 0.00462341, -2.3, -4.3)" spreadMethod ="pad" x1="-819.2" y1="0" x2="819.2" y2="0" >
<stop  offset="0.0431373" style="stop-color:#96B426;stop-opacity:1" />
<stop  offset="0.968627" style="stop-color:#829F14;stop-opacity:1" />
</linearGradient>
<path style="fill:url(#LinearGradID_1016) " d="M-0.6 0.05L-4.05 -5.55Q-6.4 -9.2 -7.05 -9.8Q-4.55 -9.6 -2.85 -8.5Q0.3 -6.3 0.35 0.05L-0.15 0.05Q-1.25 -4.6 -4 -7.75L-0.6 0.05M-4 -7.75Q-1.25 -4.6 -0.15 0.05" />
<path style="fill:none;stroke-width:0.7;stroke-linecap:round;stroke-linejoin:round;stroke-miterlimit:3;stroke:#000000;stroke-opacity:0.388235" d="M-0.15 0.05L0.35 0.05Q0.3 -6.3 -2.85 -8.5Q-4.55 -9.6 -7.05 -9.8Q-6.4 -9.2 -4.05 -5.55L-0.6 0.05L-0.15 0.05z" />
<path style="fill:none;stroke-width:0.7;stroke-linecap:round;stroke-linejoin:round;stroke-miterlimit:3;stroke:#000000;stroke-opacity:0.231373" d="M-0.15 0.05Q-1.25 -4.6 -4 -7.75" />
</g>
<g id="PathID_1822" transform="matrix(1, 0, 0, 1, 7.25, 23.2)">
<linearGradient
id="LinearGradID_1017" gradientUnits="userSpaceOnUse" gradientTransform="matrix(-0.00108337, 0.00187683, 0.00265503, 0.00286865, 3.2, -3.5)" spreadMethod ="pad" x1="-819.2" y1="0" x2="819.2" y2="0" >
<stop  offset="0.0431373" style="stop-color:#96B426;stop-opacity:1" />
<stop  offset="0.929412" style="stop-color:#668003;stop-opacity:1" />
</linearGradient>
<path style="fill:url(#LinearGradID_1017) " d="M5.6 -6.6L3.15 -3.65L0.25 0Q1.2 -3 2.85 -4.85Q-0.05 -4.65 2.25 -5.8Q3.25 -6.3 5.6 -6.6M2.85 -4.85Q1.2 -3 0.25 0" />
<path style="fill:none;stroke-width:0.7;stroke-linecap:round;stroke-linejoin:round;stroke-miterlimit:3;stroke:#000000;stroke-opacity:0.388235" d="M5.6 -6.6L3.15 -3.65L0.25 0Q-0.05 -4.65 2.25 -5.8Q3.25 -6.3 5.6 -6.6z" />
<path style="fill:none;stroke-width:0.7;stroke-linecap:round;stroke-linejoin:round;stroke-miterlimit:3;stroke:#000000;stroke-opacity:0.231373" d="M0.25 0Q1.2 -3 2.85 -4.85" />
</g>
<g id="PathID_1823" transform="matrix(1, 0, 0, 1, 7.25, 23.2)">
<path style="fill:#B43A09;fill-opacity:1" d="M-2.45 -15.4L-3.5 -16.3L-3.4 -17.3Q-3.05 -18.85 -1.9 -20.55Q-0.65 -21.65 0.3 -22.05Q1.4 -22.55 2.25 -22.05L2.75 -21.5Q3.7 -20.3 3.7 -19.1L3.5 -17.7L2.95 -16.4L1.8 -15.5Q0.75 -14.8 0.1 -14.8L-2.05 -15.2L-2.25 -15.55L-2.45 -15.4M-2.25 -15.55L-2.55 -16.6L-2.25 -15.55L-2.05 -15.2M2.95 -17.95L2.95 -20.15L2.95 -17.95M-1.6 -17.85L-1.55 -18.35L-1.6 -17.85" />
<path style="fill:#8C2800;fill-opacity:1" d="M3.7 -14.75L3.2 -13.85Q-0.95 -11.9 -3.4 -15L-3.5 -16.3L-2.45 -15.4L-2.05 -15.2L0.1 -14.8Q0.75 -14.8 1.8 -15.5L2.95 -16.4L3.5 -17.7L3.7 -19.1Q3.7 -20.3 2.75 -21.5L2.25 -22.05Q3.05 -21.7 3.65 -20.5Q4.7 -18.25 4.25 -16.2L3.7 -14.75M1.8 -14.55L2.25 -14.9L2.5 -15.45L2.25 -14.9L1.8 -14.55M-2.05 -15.2L-1.75 -14.65L-2.05 -15.2" />
<path style="fill:#691D00;fill-opacity:1" d="M3.25 -22.75Q4.3 -21.85 4.65 -20.5Q5.1 -18.7 4.25 -16.2Q4.7 -18.25 3.65 -20.5Q3.05 -21.7 2.25 -22.05Q1.4 -22.55 0.3 -22.05L0 -22.5Q1.5 -23.6 3.25 -22.75" />
<path style="fill:#641C00;fill-opacity:1" d="M-2.65 -21.35L-2.2 -21.3L-1.9 -21.3L-1.2 -21.7Q-0.75 -22.05 -0.75 -22.6L-0.75 -22.8L0 -22.5L0.3 -22.05Q-0.65 -21.65 -1.9 -20.55Q-3.05 -18.85 -3.4 -17.3Q-3.6 -19.3 -2.65 -21.35" />
<path style="fill:#8E2800;fill-opacity:1" d="M3.7 -14.75L4.25 -16.2Q5.1 -18.7 4.65 -20.5Q6.2 -19.9 5.45 -17.75Q4.75 -15.55 3.7 -14.75M-0.75 -22.8L-0.75 -22.6Q-0.75 -22.05 -1.2 -21.7L-1.9 -21.3L-2.2 -21.3L-2.65 -21.35L-1.9 -22.75L-0.75 -22.8M-1.8 -21.8L-1.9 -21.3L-1.8 -21.8" />
<path style="fill:none;stroke-width:0.7;stroke-linecap:round;stroke-linejoin:round;stroke-miterlimit:3;stroke:#000000;stroke-opacity:0.368627" d="M2.25 -22.05Q1.4 -22.55 0.3 -22.05Q-0.65 -21.65 -1.9 -20.55Q-3.05 -18.85 -3.4 -17.3L-3.5 -16.3" />
<path style="fill:none;stroke-width:0.7;stroke-linecap:round;stroke-linejoin:round;stroke-miterlimit:3;stroke:#000000;stroke-opacity:0.0901961" d="M-2.05 -15.2L-2.25 -15.55L-2.55 -16.6" />
<path style="fill:none;stroke-width:0.7;stroke-linecap:round;stroke-linejoin:round;stroke-miterlimit:3;stroke:#000000;stroke-opacity:0.368627" d="M0 -22.5L0.3 -22.05" />
<path style="fill:none;stroke-width:0.7;stroke-linecap:round;stroke-linejoin:round;stroke-miterlimit:3;stroke:#000000;stroke-opacity:0.368627" d="M2.25 -22.05Q3.05 -21.7 3.65 -20.5Q4.7 -18.25 4.25 -16.2Q5.1 -18.7 4.65 -20.5Q4.3 -21.85 3.25 -22.75Q1.5 -23.6 0 -22.5L-0.75 -22.8" />
<path style="fill:none;stroke-width:0.7;stroke-linecap:round;stroke-linejoin:round;stroke-miterlimit:3;stroke:#000000;stroke-opacity:0.368627" d="M-2.65 -21.35Q-3.6 -19.3 -3.4 -17.3" />
<path style="fill:none;stroke-width:0.7;stroke-linecap:round;stroke-linejoin:round;stroke-miterlimit:3;stroke:#000000;stroke-opacity:0.368627" d="M3.7 -14.75L3.2 -13.85Q-0.95 -11.9 -3.4 -15L-3.5 -16.3" />
<path style="fill:none;stroke-width:0.7;stroke-linecap:round;stroke-linejoin:round;stroke-miterlimit:3;stroke:#000000;stroke-opacity:0.368627" d="M3.7 -14.75L4.25 -16.2" />
<path style="fill:none;stroke-width:0.7;stroke-linecap:round;stroke-linejoin:round;stroke-miterlimit:3;stroke:#000000;stroke-opacity:0.0901961" d="M2.5 -15.45L2.25 -14.9L1.8 -14.55" />
<path style="fill:none;stroke-width:0.7;stroke-linecap:round;stroke-linejoin:round;stroke-miterlimit:3;stroke:#000000;stroke-opacity:0.368627" d="M4.65 -20.5Q6.2 -19.9 5.45 -17.75Q4.75 -15.55 3.7 -14.75" />
<path style="fill:none;stroke-width:0.7;stroke-linecap:round;stroke-linejoin:round;stroke-miterlimit:3;stroke:#000000;stroke-opacity:0.0901961" d="M2.95 -20.15L2.95 -17.95" />
<path style="fill:none;stroke-width:0.7;stroke-linecap:round;stroke-linejoin:round;stroke-miterlimit:3;stroke:#000000;stroke-opacity:0.0901961" d="M-1.9 -21.3L-1.8 -21.8" />
<path style="fill:none;stroke-width:0.7;stroke-linecap:round;stroke-linejoin:round;stroke-miterlimit:3;stroke:#000000;stroke-opacity:0.368627" d="M-2.65 -21.35L-1.9 -22.75L-0.75 -22.8" />
<path style="fill:none;stroke-width:0.7;stroke-linecap:round;stroke-linejoin:round;stroke-miterlimit:3;stroke:#000000;stroke-opacity:0.0901961" d="M-1.75 -14.65L-2.05 -15.2" />
<path style="fill:none;stroke-width:0.7;stroke-linecap:round;stroke-linejoin:round;stroke-miterlimit:3;stroke:#000000;stroke-opacity:0.0901961" d="M-1.55 -18.35L-1.6 -17.85" />
</g>
</svg>
