<?xml version="1.0" encoding="utf-8"?>
<svg version="1.1" id="Layer_1"
xmlns="http://www.w3.org/2000/svg"
xmlns:xlink="http://www.w3.org/1999/xlink"
width="12px" height="23px"
xml:space="preserve">
<g id="PathID_1776" transform="matrix(1, 0, 0, 1, 4.55, 36.1)">
<path style="fill:none;stroke-width:0.7;stroke-linecap:round;stroke-linejoin:round;stroke-miterlimit:3;stroke:#263303;stroke-opacity:0.478431" d="M-4.35 -32.45Q-0.1 -24 0.3 -14.15" />
</g>
<g id="PathID_1777" transform="matrix(1, 0, 0, 1, 4.55, 36.1)">
<path style="fill:#94A636;fill-opacity:1" d="M0.2 -17.85Q0.15 -27.45 6.85 -35.9Q3.55 -25.6 3.2 -15.55L1.35 -15.55Q1.2 -21.05 2.9 -26.2L0.2 -17.85M2.9 -26.2Q1.2 -21.05 1.35 -15.55" />
<path style="fill:none;stroke-width:0.7;stroke-linecap:round;stroke-linejoin:round;stroke-miterlimit:3;stroke:#000000;stroke-opacity:0.341176" d="M1.35 -15.55L3.2 -15.55Q3.55 -25.6 6.85 -35.9Q0.15 -27.45 0.2 -17.85L1.35 -15.55Q1.2 -21.05 2.9 -26.2" />
<path style="fill:none;stroke-width:0.7;stroke-linecap:round;stroke-linejoin:round;stroke-miterlimit:3;stroke:#000000;stroke-opacity:0.341176" d="M0.25 -15.8L0.2 -17.85" />
</g>
</svg>
