<?xml version="1.0" encoding="utf-8"?>
<svg version="1.1" id="Layer_1"
xmlns="http://www.w3.org/2000/svg"
xmlns:xlink="http://www.w3.org/1999/xlink"
width="24px" height="14px"
xml:space="preserve">
<g id="PathID_425" transform="matrix(1, 0, 0, 1, 11.15, 13.5)">
<path style="fill:#BA9369;fill-opacity:1" d="M-2.7 -3.95L4.6 -3.95L4.6 -3.35L4.55 -3.2L-0.5 -3.25L-3 -3.25L-2.7 -3.95" />
<path style="fill:#E0C19C;fill-opacity:1" d="M-2.7 -3.95Q-3.15 -3.8 -5.25 -5.75Q-7.35 -7.65 -7.45 -8.55Q-7.65 -9.45 -5.8 -11.3Q-4.3 -12.95 -3.5 -13.2L-3.25 -13.25L4 -13.35L4.6 -3.95L-2.7 -3.95" />
<linearGradient
id="LinearGradID_115" gradientUnits="userSpaceOnUse" gradientTransform="matrix(-0.0038147, -0.00488281, 0.00495911, -0.00386047, 2.7, -0.3)" spreadMethod ="pad" x1="-819.2" y1="0" x2="819.2" y2="0" >
<stop  offset="0" style="stop-color:#9B714F;stop-opacity:1" />
<stop  offset="0.509804" style="stop-color:#BA9369;stop-opacity:1" />
<stop  offset="0.988235" style="stop-color:#E0C19C;stop-opacity:1" />
</linearGradient>
<path style="fill:url(#LinearGradID_115) " d="M-5.4 -2.25L-3 -3.25L-0.5 -3.25L4.55 -3.2L3 0.05L-3.5 0.15L-6.35 -0.95L-6.4 -1Q-6.95 -1.55 -5.4 -2.25" />
<linearGradient
id="LinearGradID_116" gradientUnits="userSpaceOnUse" gradientTransform="matrix(0.00379944, -0.00553894, 0.00749207, 0.00514221, -0.65, -3.6)" spreadMethod ="pad" x1="-819.2" y1="0" x2="819.2" y2="0" >
<stop  offset="0" style="stop-color:#9B714F;stop-opacity:1" />
<stop  offset="0.509804" style="stop-color:#BA9369;stop-opacity:1" />
<stop  offset="0.988235" style="stop-color:#E0C19C;stop-opacity:1" />
</linearGradient>
<path style="fill:url(#LinearGradID_116) " d="M-3 -3.25L-5.4 -2.25Q-6.95 -1.55 -6.4 -1L-8.85 -3.1Q-10.35 -4.6 -10.9 -5.85Q-11.45 -7.05 -9.25 -9.75Q-7.05 -12.45 -3.5 -13.2Q-4.3 -12.95 -5.8 -11.3Q-7.65 -9.45 -7.45 -8.55Q-7.35 -7.65 -5.25 -5.75Q-3.15 -3.8 -2.7 -3.95L-3 -3.25" />
<path style="fill:none;stroke-width:0.7;stroke-linecap:round;stroke-linejoin:round;stroke-miterlimit:3;stroke:#000000;stroke-opacity:0.4" d="M4.6 -3.95L4 -13.35L-3.25 -13.25L-3.5 -13.2" />
<path style="fill:none;stroke-width:0.7;stroke-linecap:round;stroke-linejoin:round;stroke-miterlimit:3;stroke:#000000;stroke-opacity:0.4" d="M4.6 -3.95L4.6 -3.35L4.55 -3.2L3 0.05L-3.5 0.15L-6.35 -0.95L-6.4 -1L-8.85 -3.1Q-10.35 -4.6 -10.9 -5.85Q-11.45 -7.05 -9.25 -9.75Q-7.05 -12.45 -3.5 -13.2" />
</g>
<g id="PathID_426" transform="matrix(1, 0, 0, 1, 11.15, 13.5)">
<path style="fill:#385377;fill-opacity:1" d="M0.95 -9.95L1.8 -10.1Q1.25 -9.9 1.3 -9.3L1.35 -9L1.6 -7.65L1.45 -7L-1.55 -6.7L-2.8 -6.65Q-3.55 -6.8 -3.55 -7.45L-1.95 -7.55L-0.1 -7.65Q0.1 -7.65 0.15 -7.75L0.15 -8.15L0.1 -8.9L0.1 -9.6Q0.25 -9.85 0.95 -9.95M-1.8 -9.3L-2.55 -9.3L-2.95 -9.35Q-3.55 -9.5 -3.7 -10L-2.25 -9.85Q-1.3 -10 -1.05 -9.45L-1.8 -9.3" />
</g>
<g id="PathID_427" transform="matrix(1, 0, 0, 1, 11.15, 13.5)">
<path style="fill:#385377;fill-opacity:1" d="M1.25 -1L-3.2 -0.8L-2.75 -1.25L-3.05 -1.4L-3.3 -1.55L-2.9 -1.85Q-2.2 -1.9 -1.9 -1.4L-0.75 -1.25L0.4 -1.2L0.5 -1.45L1.55 -1.6L1.25 -1" />
</g>
<g id="PathID_428" transform="matrix(1, 0, 0, 1, 11.15, 13.5)">
<path style="fill:#BA9369;fill-opacity:1" d="M6 -5.65L4.55 -5.55L4.4 -7.95Q4.9 -6.3 6 -5.65" />
<linearGradient
id="LinearGradID_117" gradientUnits="userSpaceOnUse" gradientTransform="matrix(4.57764e-005, 0.00349426, -0.00909424, 0.000106812, -7.35, -6.65)" spreadMethod ="pad" x1="-819.2" y1="0" x2="819.2" y2="0" >
<stop  offset="0" style="stop-color:#9B714F;stop-opacity:1" />
<stop  offset="0.282353" style="stop-color:#BA9369;stop-opacity:1" />
<stop  offset="0.513725" style="stop-color:#E0C19C;stop-opacity:1" />
<stop  offset="0.717647" style="stop-color:#C19C73;stop-opacity:1" />
<stop  offset="0.960784" style="stop-color:#A17854;stop-opacity:1" />
</linearGradient>
<path style="fill:url(#LinearGradID_117) " d="M4.4 -7.95L11.7 -8.05Q12.15 -6.85 11.7 -5.8L6 -5.65Q4.9 -6.3 4.4 -7.95" />
<path style="fill:none;stroke-width:0.7;stroke-linecap:round;stroke-linejoin:round;stroke-miterlimit:3;stroke:#000000;stroke-opacity:0.4" d="M4.4 -7.95L11.7 -8.05Q12.15 -6.85 11.7 -5.8L6 -5.65L4.55 -5.55" />
</g>
</svg>
