<?xml version="1.0" encoding="utf-8"?>
<svg version="1.1" id="Layer_1"
xmlns="http://www.w3.org/2000/svg"
xmlns:xlink="http://www.w3.org/1999/xlink"
width="25px" height="34px"
xml:space="preserve">
<g id="PathID_1470" transform="matrix(1, 0, 0, 1, 13.35, 0.15)">
<path style="fill:#FFD574;fill-opacity:0.509804" d="M8.15 22.15L9.2 22L9.65 21.85Q9.65 21.7 10.55 21.6Q11.45 21.45 11.35 22Q11.15 23.3 10.95 23.25L10.35 23.4Q9.9 23.55 9.9 23.7L10.15 24.1Q10.4 24.3 10.55 24.3L11.15 23.85L11.15 24.6L10.3 25.35Q5.35 29.35 2.7 28.05L2.7 22.95L3.55 22.7L6.65 21.9L7.25 22.05L8.15 22.15M5.6 26.45L5.85 25.8L5.7 25.3Q5.4 24.9 4.9 24.85Q4.4 24.8 4.1 25.25L3.9 25.8L4.15 26.35Q4.45 26.75 4.9 26.8Q5.35 26.85 5.6 26.45M-11.85 23.15L-11.65 23.8Q-11.4 24.25 -10.95 24.3L-10.2 24.1L-9.95 23.7L-10.15 23Q-10.45 22.45 -10.95 22.4Q-11.85 22.3 -11.85 23.15M-13.35 21.2Q-13.4 20.5 -12.55 20.5L-7.25 19.85Q-6.45 19.85 -5.9 20.25L-5.35 20.85L-6.45 20.4L-7.6 20.25Q-8.35 20.2 -8.3 20.5Q-8.15 21.1 -6.45 21.6L-5.35 21.7L-4.6 21.55L-4.6 21.5L-1.85 23.15Q-1.15 23.65 -1.35 24.55L-1.35 27.15Q-1.5 27.65 -2.3 27.7Q-11.1 26.5 -13.35 24.1L-13.35 21.2M-8.9 22.65L-8.6 23.3Q-8.25 23.75 -8.05 23.55Q-7.9 23.4 -8.35 22.9Q-8.8 22.4 -8.9 22.65M-4.55 25.9Q-3.6 26 -3.5 25.4Q-3.4 24.5 -4.5 24.15Q-5.6 23.8 -5.55 24.85Q-5.5 25.8 -4.55 25.9" />
</g>
<g id="PathID_1471" transform="matrix(1, 0, 0, 1, 13.35, 0.15)">
<path style="fill:#FFFBF3;fill-opacity:0.509804" d="M7.7 31.5Q3.85 33.7 -1.25 33.7Q-6.25 33.7 -10 31.45L-11.45 29.2Q-1.1 35.65 8.9 29.2L10.3 28.1L7.7 31.5M9.1 14.7L10.25 16.4L9.7 16.6L9.45 16.8Q5.4 18.6 -0.1 18.6Q-5.9 18.6 -9.95 16.6L-11 16.1L-11.75 15.55L-10.55 14.15L-10.35 14.25L-9.95 14.4L-8.85 14.95Q-5.15 16.45 -0.1 16.45Q4 16.45 7.3 15.4L8.85 14.8L9.1 14.7" />
</g>
<g id="PathID_1472" transform="matrix(1, 0, 0, 1, 13.35, 0.15)">
<linearGradient
id="LinearGradID_749" gradientUnits="userSpaceOnUse" gradientTransform="matrix(-0.00395203, 0.00679016, -0.00527954, -0.0030365, -6.6, 15.85)" spreadMethod ="pad" x1="-819.2" y1="0" x2="819.2" y2="0" >
<stop  offset="0" style="stop-color:#FFFFFF;stop-opacity:0.501961" />
<stop  offset="1" style="stop-color:#FFFFFF;stop-opacity:0" />
</linearGradient>
<path style="fill:url(#LinearGradID_749) " d="M-11.55 18.95Q-11.45 17.25 -10.6 15.75Q-9.8 14.35 -8.25 13.35Q-6.3 12.1 -4.75 12.85Q-3.25 13.55 -3.45 15.95Q-3.65 17.7 -4.45 19.15Q-5.15 20.6 -6.5 21.65Q-8.35 22.95 -10.05 22.15Q-11.75 21.35 -11.55 18.95" />
<linearGradient
id="LinearGradID_750" gradientUnits="userSpaceOnUse" gradientTransform="matrix(-0.00192261, 0.00328064, -0.00244141, -0.00140381, -9.45, 25.25)" spreadMethod ="pad" x1="-819.2" y1="0" x2="819.2" y2="0" >
<stop  offset="0" style="stop-color:#FFFFFF;stop-opacity:0.501961" />
<stop  offset="1" style="stop-color:#FFFFFF;stop-opacity:0" />
</linearGradient>
<path style="fill:url(#LinearGradID_750) " d="M-8.9 26.05Q-8.5 28.3 -9.8 28.65Q-10.7 28.9 -11.3 28.1L-11.85 26.85L-12 25.35Q-11.85 24.35 -10.95 24.2Q-10.05 24.05 -9.45 24.8Q-9 25.35 -8.9 26.05" />
</g>
<g id="PathID_1473" transform="matrix(1, 0, 0, 1, 13.35, 0.15)">
<path style="fill:#BA6D27;fill-opacity:1" d="M0.6 8.5L3.2 7.65L3.2 10.45Q3.2 10.8 0.6 11.5L0.6 8.5M-3.8 11.5L-6 10.85L-6 7.05L-5.65 7.75L-3.8 8.5L-3.8 11.5" />
<path style="fill:#F2CF52;fill-opacity:1" d="M0.6 8.5L-2.9 8.6L-3 8.6L-3.8 8.5L-5.65 7.75L-6 7.05L-5.05 6.75L-1.45 6.55L1.8 6.7Q3.2 7.05 3.2 7.55L3.2 7.65L0.6 8.5" />
<path style="fill:#D48627;fill-opacity:1" d="M-2.9 8.6L0.6 8.5L0.6 11.5L-2.9 11.6L-2.9 8.6" />
<path style="fill:#F2DD8E;fill-opacity:1" d="M-3.8 8.5L-3 8.6L-2.9 8.6L-2.9 11.6L-3.8 11.5L-3.8 8.5" />
<path style="fill:none;stroke-width:0.7;stroke-linecap:round;stroke-linejoin:round;stroke-miterlimit:3;stroke:#000000;stroke-opacity:0.301961" d="M-6 7.05L-5.05 6.75L-1.45 6.55L1.8 6.7Q3.2 7.05 3.2 7.55L3.2 7.65L3.2 10.45Q3.2 10.8 0.6 11.5" />
<path style="fill:none;stroke-width:0.7;stroke-linecap:round;stroke-linejoin:round;stroke-miterlimit:3;stroke:#000000;stroke-opacity:0.301961" d="M-2.9 11.6L-3.8 11.5L-6 10.85L-6 7.05" />
</g>
<g id="PathID_1474" transform="matrix(1, 0, 0, 1, 13.35, 0.15)">
<path style="fill:none;stroke-width:0.7;stroke-linecap:round;stroke-linejoin:round;stroke-miterlimit:3;stroke:#000000;stroke-opacity:0.45098" d="M-1.85 7.45Q-2.15 1.8 0 0.3Q2.05 -1.2 2.3 4.5Q2.35 6.35 1.15 7.55" />
</g>
</svg>
