<?xml version="1.0" encoding="utf-8"?>
<svg version="1.1" id="Layer_1"
xmlns="http://www.w3.org/2000/svg"
xmlns:xlink="http://www.w3.org/1999/xlink"
width="98px" height="61px"
xml:space="preserve">
<g id="PathID_1266" transform="matrix(1, 0, 0, 1, 51.7, 83.65)">
<path style="fill:#C7E3E2;fill-opacity:0.301961" d="M44.3 -72.05Q45.75 -71.8 45.6 -70.35L45.55 -55.25L45.55 -38.25L43.75 -38.25L43.8 -53.3Q43.85 -68.45 43.5 -69.35Q43.1 -70.2 39.8 -69.7L35.1 -69.15L35.15 -71.4L41.45 -71.95L44.3 -72.05" />
<path style="fill:none;stroke-width:0.8;stroke-linecap:round;stroke-linejoin:round;stroke-miterlimit:3;stroke:#3B5424;stroke-opacity:0.301961" d="M41.45 -71.95L35.15 -71.4L35.1 -69.15L39.8 -69.7Q43.1 -70.2 43.5 -69.35Q43.85 -68.45 43.8 -53.3L43.75 -38.25L45.55 -38.25L45.55 -55.25L45.6 -70.35Q45.75 -71.8 44.3 -72.05L41.45 -71.95z" />
</g>
<g id="PathID_1267" transform="matrix(1, 0, 0, 1, 51.7, 83.65)">
<path style="fill:#432D0B;fill-opacity:1" d="M-8.25 -34.95L-9.3 -36.3Q-9.15 -37.95 -8.4 -37.75Q-8 -36.55 -6.45 -35.6L-4.7 -35.05L-1.9 -34.15Q1.25 -32.95 1.85 -31.55Q2.4 -30.45 1.15 -27.7L-1.25 -22.8L-3.15 -22.8L-1.15 -26.15Q0 -28 0.15 -29.8Q0.25 -31.65 -1.95 -32.75Q-4.15 -33.9 -6.35 -34.1L-8.25 -34.95M-24.85 -68.4L-24.75 -68.2Q-23.7 -65.25 -23.8 -61.2Q-24 -56.05 -25.25 -51.15L-25.75 -48.85Q-26.95 -45.55 -28.1 -45.4L-27.85 -47.2L-26.15 -53.4Q-25.15 -56.95 -25.05 -61.05Q-24.95 -64 -25.5 -66.5Q-25.6 -68.65 -24.85 -68.4M-41.65 -74.75Q-42.7 -76.15 -40.95 -77.35Q-39.15 -78.55 -36.45 -75.9Q-33.95 -73.5 -31.45 -73.3Q-31.1 -72.7 -32.45 -72.4Q-35 -72.85 -36.25 -74.35Q-37.9 -76.25 -39.05 -76.5Q-40.2 -76.65 -40.25 -75.6Q-41.2 -75.7 -41.65 -74.75M-2.2 -39.8L-3.15 -39.2Q-2.9 -40.05 -3.1 -40.85Q-3.5 -42.4 -5.6 -42.25Q-6.25 -42.25 -6.65 -42.8Q-7.05 -43.35 -6.85 -43.7L-6.25 -43.95Q-3.55 -44.8 -1.5 -42.65Q-0.9 -42.05 -0.75 -41.35Q-1.2 -40.5 -2.2 -39.8" />
<path style="fill:#704C15;fill-opacity:1" d="M-31.45 -73.3L-30.95 -73.3Q-28.2 -73.2 -27 -72.15Q-25.9 -71.15 -24.85 -68.4Q-25.6 -68.65 -25.5 -66.5L-26.1 -68.5Q-27.3 -71.9 -30.95 -72.15L-32.45 -72.4Q-31.1 -72.7 -31.45 -73.3M-6.65 -42.8Q-6.25 -42.25 -5.6 -42.25L-5.45 -42.25Q-6.9 -42.1 -7.7 -41.3Q-8.6 -40.4 -8.6 -38.65L-8.4 -37.75Q-9.15 -37.95 -9.3 -36.3L-9.8 -37.65Q-10.5 -41.15 -7.55 -43.25L-6.85 -43.7Q-7.05 -43.35 -6.65 -42.8" />
<path style="fill:#2E1E05;fill-opacity:1" d="M-40.25 -75.6L-39.35 -73.9Q-40.3 -74.4 -40.85 -73.2L-41.65 -74.75Q-41.2 -75.7 -40.25 -75.6" />
<path style="fill:#1E1303;fill-opacity:1" d="M-25.75 -48.85L-26.45 -45.75Q-26.65 -44.35 -26.5 -42.85Q-25.75 -37.4 -21.3 -34.2Q-19.7 -33.2 -17.95 -32.85Q-12.8 -32.1 -8.25 -34.95L-6.35 -34.1Q-10.25 -31.85 -13.95 -31.45Q-18.95 -31 -23.05 -33.7Q-26.5 -35.9 -27.55 -40.2Q-28.25 -43.25 -28.1 -45.4Q-26.95 -45.55 -25.75 -48.85M-3.15 -39.2L-2.2 -39.8Q-1.2 -40.5 -0.75 -41.35Q-0.55 -40.5 -1.05 -39.5Q-2.55 -36.4 -4.7 -35.05L-6.45 -35.6L-4.4 -37.45L-3.6 -38.55L-3.15 -39.2" />
<path style="fill:none;stroke-width:0.7;stroke-linecap:round;stroke-linejoin:round;stroke-miterlimit:3;stroke:#000000;stroke-opacity:0.301961" d="M-4.7 -35.05L-1.9 -34.15Q1.25 -32.95 1.85 -31.55Q2.4 -30.45 1.15 -27.7L-1.25 -22.8L-3.15 -22.8L-1.15 -26.15Q0 -28 0.15 -29.8Q0.25 -31.65 -1.95 -32.75Q-4.15 -33.9 -6.35 -34.1Q-10.25 -31.85 -13.95 -31.45Q-18.95 -31 -23.05 -33.7Q-26.5 -35.9 -27.55 -40.2Q-28.25 -43.25 -28.1 -45.4L-27.85 -47.2L-26.15 -53.4Q-25.15 -56.95 -25.05 -61.05Q-24.95 -64 -25.5 -66.5L-26.1 -68.5Q-27.3 -71.9 -30.95 -72.15L-32.45 -72.4Q-35 -72.85 -36.25 -74.35Q-37.9 -76.25 -39.05 -76.5Q-40.2 -76.65 -40.25 -75.6L-39.35 -73.9Q-40.3 -74.4 -40.85 -73.2L-41.65 -74.75Q-42.7 -76.15 -40.95 -77.35Q-39.15 -78.55 -36.45 -75.9Q-33.95 -73.5 -31.45 -73.3L-30.95 -73.3Q-28.2 -73.2 -27 -72.15Q-25.9 -71.15 -24.85 -68.4L-24.75 -68.2Q-23.7 -65.25 -23.8 -61.2Q-24 -56.05 -25.25 -51.15L-25.75 -48.85L-26.45 -45.75Q-26.65 -44.35 -26.5 -42.85Q-25.75 -37.4 -21.3 -34.2Q-19.7 -33.2 -17.95 -32.85Q-12.8 -32.1 -8.25 -34.95L-9.3 -36.3L-9.8 -37.65Q-10.5 -41.15 -7.55 -43.25L-6.85 -43.7L-6.25 -43.95Q-3.55 -44.8 -1.5 -42.65Q-0.9 -42.05 -0.75 -41.35Q-0.55 -40.5 -1.05 -39.5Q-2.55 -36.4 -4.7 -35.05L-6.45 -35.6Q-8 -36.55 -8.4 -37.75" />
<path style="fill:none;stroke-width:0.7;stroke-linecap:round;stroke-linejoin:round;stroke-miterlimit:3;stroke:#000000;stroke-opacity:0.301961" d="M-8.4 -37.75L-8.6 -38.65Q-8.6 -40.4 -7.7 -41.3Q-6.9 -42.1 -5.45 -42.25L-5.6 -42.25Q-3.5 -42.4 -3.1 -40.85Q-2.9 -40.05 -3.15 -39.2" />
<path style="fill:none;stroke-width:0.7;stroke-linecap:round;stroke-linejoin:round;stroke-miterlimit:3;stroke:#000000;stroke-opacity:0.301961" d="M-6.45 -35.6L-4.4 -37.45L-3.6 -38.55L-3.15 -39.2" />
<path style="fill:none;stroke-width:0.7;stroke-linecap:round;stroke-linejoin:round;stroke-miterlimit:3;stroke:#000000;stroke-opacity:0.301961" d="M-6.35 -34.1L-8.25 -34.95" />
<path style="fill:none;stroke-width:0.7;stroke-linecap:round;stroke-linejoin:round;stroke-miterlimit:3;stroke:#000000;stroke-opacity:0.301961" d="M-41.65 -74.75Q-41.2 -75.7 -40.25 -75.6" />
</g>
<g id="PathID_1268" transform="matrix(1, 0, 0, 1, 51.7, 83.65)">
<path style="fill:#DEFFFE;fill-opacity:0.694118" d="M-40 -74.3L-25.35 -47.45L-25.35 -47.2Q-25.4 -47 -25.55 -46.9L-25.95 -46.85Q-26.15 -46.85 -26.25 -47L-32.65 -58.7Q-33.3 -58.3 -35.55 -57.45L-37.6 -56.55L-39.35 -56.3Q-40.6 -56.65 -42.6 -61.1Q-44.5 -65.4 -44.3 -66.2Q-44.15 -66.7 -43.25 -67.1L-42.25 -67.4Q-43.5 -67.95 -43.2 -68.65L-42.85 -69.3L-39.2 -70.7L-40.05 -72.1Q-42.5 -70.8 -43.35 -71.1Q-43.95 -71.3 -44.45 -72.85L-45 -74.45L-44.95 -74.7L-44.35 -75Q-43.9 -75 -43.45 -73.6L-42.8 -72.25L-40.5 -73.15L-40.7 -73.55L-40.9 -74.1L-40.65 -74.4L-40.25 -74.45L-40 -74.3M-37.4 -64.45L-36.55 -62.1L-36.65 -60.75Q-36.85 -60.2 -38.2 -59.6Q-39.6 -59.05 -40.4 -60.55L-43.2 -65.85L-41.9 -66.35L-43.2 -65.1L-42.45 -63.25L-40.95 -60.1Q-39.95 -57.55 -38.7 -57.95L-33.15 -59.75L-38.85 -70.05L-39.55 -69.7L-41.15 -69.1Q-42.65 -68.7 -42.6 -68.05L-42.25 -67.4L-43.25 -67.1L-41.05 -68.05L-39.65 -68.3Q-39.05 -68.2 -38.55 -66.95L-37.4 -64.45M-39.85 -67L-40.9 -66.85L-41.9 -66.35L-43.2 -65.85L-39.5 -61.15Q-38.6 -60.4 -37.5 -61.6L-38.7 -64.85Q-39.5 -66.95 -39.85 -67" />
<path style="fill:none;stroke-width:0.8;stroke-linecap:round;stroke-linejoin:round;stroke-miterlimit:3;stroke:#3B5424;stroke-opacity:0.301961" d="M-40 -74.3L-25.35 -47.45L-25.35 -47.2Q-25.4 -47 -25.55 -46.9L-25.95 -46.85Q-26.15 -46.85 -26.25 -47L-32.65 -58.7Q-33.3 -58.3 -35.55 -57.45L-37.6 -56.55L-39.35 -56.3Q-40.6 -56.65 -42.6 -61.1Q-44.5 -65.4 -44.3 -66.2Q-44.15 -66.7 -43.25 -67.1Q-43.5 -67.95 -43.2 -68.65L-42.85 -69.3L-39.2 -70.7L-40.05 -72.1Q-42.5 -70.8 -43.35 -71.1Q-43.95 -71.3 -44.45 -72.85L-45 -74.45L-44.95 -74.7L-44.35 -75Q-43.9 -75 -43.45 -73.6L-42.8 -72.25L-40.5 -73.15L-40.7 -73.55L-40.9 -74.1L-40.65 -74.4L-40.25 -74.45L-40 -74.3z" />
<path style="fill:none;stroke-width:0.8;stroke-linecap:round;stroke-linejoin:round;stroke-miterlimit:3;stroke:#3B5424;stroke-opacity:0.301961" d="M-37.4 -64.45L-36.55 -62.1L-36.65 -60.75Q-36.85 -60.2 -38.2 -59.6Q-39.6 -59.05 -40.4 -60.55L-43.2 -65.85L-43.2 -65.1L-42.45 -63.25L-40.95 -60.1Q-39.95 -57.55 -38.7 -57.95L-33.15 -59.75L-38.85 -70.05L-39.55 -69.7L-41.15 -69.1Q-42.65 -68.7 -42.6 -68.05L-42.25 -67.4L-41.05 -68.05L-39.65 -68.3Q-39.05 -68.2 -38.55 -66.95L-37.4 -64.45z" />
<path style="fill:none;stroke-width:0.8;stroke-linecap:round;stroke-linejoin:round;stroke-miterlimit:3;stroke:#3B5424;stroke-opacity:0.301961" d="M-39.85 -67L-40.9 -66.85L-41.9 -66.35L-39.5 -61.15Q-38.6 -60.4 -37.5 -61.6L-38.7 -64.85Q-39.5 -66.95 -39.85 -67z" />
<path style="fill:none;stroke-width:0.8;stroke-linecap:round;stroke-linejoin:round;stroke-miterlimit:3;stroke:#3B5424;stroke-opacity:0.301961" d="M-42.25 -67.4L-43.25 -67.1" />
<path style="fill:none;stroke-width:0.8;stroke-linecap:round;stroke-linejoin:round;stroke-miterlimit:3;stroke:#3B5424;stroke-opacity:0.301961" d="M-41.9 -66.35L-43.2 -65.85" />
</g>
<g id="PathID_1269" transform="matrix(1, 0, 0, 1, 51.7, 83.65)">
<path style="fill:#4D381B;fill-opacity:1" d="M-32.55 -57.4L-30.8 -58.65L-29.45 -58.55L-30.8 -58.65Q-30.7 -59 -31.75 -60.9L-33.3 -63.5Q-31.55 -63.85 -30.9 -63.25L-29.45 -58.55Q-29.8 -57.95 -30.6 -57.4Q-31.15 -58.05 -31.6 -57.55Q-31.85 -57.15 -31.6 -56.8Q-32.35 -56.25 -32.95 -56.4Q-33.05 -56.8 -32.55 -57.4" />
<path style="fill:#966F36;fill-opacity:1" d="M-36.5 -61.1Q-35.8 -62.9 -33.3 -63.5L-31.75 -60.9Q-30.7 -59 -30.8 -58.65L-32.55 -57.4Q-35 -58.85 -36.5 -61.1" />
<path style="fill:#CC9449;fill-opacity:1" d="M-32.55 -57.4Q-33.05 -56.8 -32.95 -56.4L-36.85 -59.45Q-36.95 -60.15 -36.5 -61.1Q-35 -58.85 -32.55 -57.4" />
<path style="fill:none;stroke-width:0.7;stroke-linecap:round;stroke-linejoin:round;stroke-miterlimit:3;stroke:#000000;stroke-opacity:0.301961" d="M-33.3 -63.5Q-31.55 -63.85 -30.9 -63.25L-29.45 -58.55Q-29.8 -57.95 -30.6 -57.4" />
<path style="fill:none;stroke-width:0.7;stroke-linecap:round;stroke-linejoin:round;stroke-miterlimit:3;stroke:#000000;stroke-opacity:0.301961" d="M-31.6 -56.8Q-32.35 -56.25 -32.95 -56.4L-36.85 -59.45Q-36.95 -60.15 -36.5 -61.1Q-35.8 -62.9 -33.3 -63.5" />
<path style="fill:none;stroke-width:0.7;stroke-linecap:round;stroke-linejoin:round;stroke-miterlimit:3;stroke:#000000;stroke-opacity:0.301961" d="M-30.8 -58.65L-29.45 -58.55" />
<path style="fill:none;stroke-width:0.7;stroke-linecap:round;stroke-linejoin:round;stroke-miterlimit:3;stroke:#000000;stroke-opacity:0.301961" d="M-30.8 -58.65L-32.55 -57.4Q-33.05 -56.8 -32.95 -56.4" />
</g>
<g id="PathID_1270" transform="matrix(1, 0, 0, 1, 51.7, 83.65)">
<path style="fill:#4D381B;fill-opacity:1" d="M35.2 -70.6Q33.55 -70.1 33.3 -69.85L33.2 -68.5L32.75 -70.45L36.55 -72.2L36.8 -71.65L36.9 -71.15L35.2 -70.6M33.2 -68.5L32.8 -67.8Q31.85 -68.85 32.75 -70.45L33.3 -69.85" />
<path style="fill:#966F36;fill-opacity:1" d="M33.2 -68.5L33.3 -69.85Q33.55 -70.1 35.2 -70.6L36.9 -71.15Q37.35 -70 37 -68.7L33.2 -68.5" />
<path style="fill:#CC9449;fill-opacity:1" d="M33.2 -68.5L37 -68.7L36.65 -67.95L32.8 -67.8L33.2 -68.5" />
<path style="fill:none;stroke-width:0.7;stroke-linecap:round;stroke-linejoin:round;stroke-miterlimit:3;stroke:#000000;stroke-opacity:0.301961" d="M36.9 -71.15L36.8 -71.65L36.55 -72.2L32.75 -70.45L33.3 -69.85" />
<path style="fill:none;stroke-width:0.7;stroke-linecap:round;stroke-linejoin:round;stroke-miterlimit:3;stroke:#000000;stroke-opacity:0.301961" d="M36.9 -71.15Q37.35 -70 37 -68.7L36.65 -67.95L32.8 -67.8Q31.85 -68.85 32.75 -70.45" />
<path style="fill:none;stroke-width:0.7;stroke-linecap:round;stroke-linejoin:round;stroke-miterlimit:3;stroke:#000000;stroke-opacity:0.301961" d="M33.2 -68.5L33.3 -69.85" />
<path style="fill:none;stroke-width:0.7;stroke-linecap:round;stroke-linejoin:round;stroke-miterlimit:3;stroke:#000000;stroke-opacity:0.301961" d="M33.2 -68.5L32.8 -67.8" />
</g>
<g id="PathID_1271" transform="matrix(1, 0, 0, 1, 51.7, 83.65)">
<path style="fill:#DEFFFE;fill-opacity:0.701961" d="M34.15 -70.45Q3.15 -65.7 -24.55 -58.95L34.15 -71.35Q34.75 -73.1 35.45 -72.1L35.6 -71.05Q35.1 -71.65 34.15 -70.45M-24.55 -58.95L-27.4 -58.95Q-11.55 -64.25 34.15 -71.35L34.15 -70.45M-34.7 -58.15L-33.85 -58.95Q-32.5 -57.65 -33.05 -56Q-36.6 -52.35 -36.8 -44.1Q-36.35 -41.05 -34.45 -38.3Q-32.8 -35.95 -29.9 -33.75Q-32.55 -34.7 -34.7 -36.8Q-38.45 -40.55 -38.45 -45.9Q-38.45 -51.25 -34.7 -55L-34.1 -56Q-33.75 -57.2 -34.7 -58.15Q-35.6 -57.75 -35.9 -58.45Q-36.15 -59.1 -35.25 -60.25L-34.9 -60.7Q-35.2 -58.9 -33.15 -59.55L-33.85 -58.95L-34.7 -58.15" />
<path style="fill:#C7E3E2;fill-opacity:0.301961" d="M34.25 -69.45L-16.1 -57.8L34.15 -70.45Q35.1 -71.65 35.6 -71.05L35.75 -70Q35.15 -69.1 34.25 -69.45M-16.1 -57.8Q-19.95 -55.35 -17.75 -53.15Q-15.2 -49.8 -15.1 -45.2Q-15.6 -37.6 -22.2 -35.65Q-28.55 -34.8 -34.45 -38.3Q-36.35 -41.05 -36.8 -44.1Q-36.6 -52.35 -33.05 -56Q-32.5 -57.65 -33.85 -58.95L-33.15 -59.55Q-31.75 -60.45 -29.9 -60.7Q-31.75 -60.45 -33.15 -59.55Q-35.2 -58.9 -34.9 -60.7Q-33.85 -61.6 -31.25 -62.4Q-29.15 -62.9 -29.9 -60.7Q-29.6 -59.45 -27.4 -58.95L-24.55 -58.95Q3.15 -65.7 34.15 -70.45L34.25 -69.45" />
<path style="fill:#7EAAA8;fill-opacity:0.658824" d="M-34.45 -38.3Q-28.55 -34.8 -22.2 -35.65Q-15.6 -37.6 -15.1 -45.2Q-15.2 -49.8 -17.75 -53.15Q-19.95 -55.35 -16.1 -57.8L34.25 -69.45L34.55 -68.65L34.25 -69.45Q35.15 -69.1 35.75 -70L36.05 -67.85Q35.2 -66.95 34.55 -68.65L-14.65 -56.55Q-15.85 -55.6 -15.45 -53.9Q-12.7 -50.5 -12.7 -45.9Q-12.7 -40.55 -16.45 -36.8Q-20.25 -33 -25.55 -33Q-27.85 -33 -29.9 -33.75Q-32.8 -35.95 -34.45 -38.3" />
<path style="fill:none;stroke-width:0.8;stroke-linecap:round;stroke-linejoin:round;stroke-miterlimit:3;stroke:#3B5424;stroke-opacity:0.301961" d="M35.6 -71.05L35.45 -72.1Q34.75 -73.1 34.15 -71.35L34.15 -70.45" />
<path style="fill:none;stroke-width:0.8;stroke-linecap:round;stroke-linejoin:round;stroke-miterlimit:3;stroke:#3B5424;stroke-opacity:0.301961" d="M35.6 -71.05L35.75 -70L36.05 -67.85Q35.2 -66.95 34.55 -68.65L-14.65 -56.55Q-15.85 -55.6 -15.45 -53.9Q-12.7 -50.5 -12.7 -45.9Q-12.7 -40.55 -16.45 -36.8Q-20.25 -33 -25.55 -33Q-27.85 -33 -29.9 -33.75Q-32.55 -34.7 -34.7 -36.8Q-38.45 -40.55 -38.45 -45.9Q-38.45 -51.25 -34.7 -55L-34.1 -56Q-33.75 -57.2 -34.7 -58.15Q-35.6 -57.75 -35.9 -58.45Q-36.15 -59.1 -35.25 -60.25L-34.9 -60.7Q-33.85 -61.6 -31.25 -62.4Q-29.15 -62.9 -29.9 -60.7Q-29.6 -59.45 -27.4 -58.95Q-11.55 -64.25 34.15 -71.35" />
<path style="fill:none;stroke-width:0.8;stroke-linecap:round;stroke-linejoin:round;stroke-miterlimit:3;stroke:#3B5424;stroke-opacity:0.301961" d="M34.15 -70.45L34.25 -69.45" />
<path style="fill:none;stroke-width:0.8;stroke-linecap:round;stroke-linejoin:round;stroke-miterlimit:3;stroke:#3B5424;stroke-opacity:0.301961" d="M34.25 -69.45L34.55 -68.65" />
<path style="fill:none;stroke-width:0.8;stroke-linecap:round;stroke-linejoin:round;stroke-miterlimit:3;stroke:#3B5424;stroke-opacity:0.301961" d="M-33.85 -58.95L-33.15 -59.55" />
<path style="fill:none;stroke-width:0.8;stroke-linecap:round;stroke-linejoin:round;stroke-miterlimit:3;stroke:#3B5424;stroke-opacity:0.301961" d="M-34.7 -58.15L-33.85 -58.95" />
<path style="fill:none;stroke-width:0.8;stroke-linecap:round;stroke-linejoin:round;stroke-miterlimit:3;stroke:#3B5424;stroke-opacity:0.301961" d="M-33.15 -59.55Q-31.75 -60.45 -29.9 -60.7" />
</g>
<g id="PathID_1272" transform="matrix(1, 0, 0, 1, 51.7, 83.65)">
<path style="fill:#7EAAA8;fill-opacity:0.658824" d="M-45.55 -82.6L-44.8 -82.9Q-44 -83.1 -43.7 -83.35Q-44.45 -82.1 -44.25 -80.8Q-42.85 -80.1 -42.5 -78.7Q-42.2 -77.7 -42.95 -76.35Q-43.85 -74.6 -45.6 -74.15L-48.1 -74.2Q-48.85 -74.4 -49.2 -74.7Q-47.35 -74.25 -45.75 -75.05Q-44.4 -75.65 -44.15 -76.55Q-43.35 -78.5 -44.05 -79.6Q-44.6 -80.45 -46.3 -81.3Q-45 -81.8 -45.55 -82.6" />
<path style="fill:#DEFFFE;fill-opacity:0.701961" d="M-49.2 -74.7Q-50.25 -75.35 -50.55 -76.55Q-50.95 -77.95 -50.05 -79.35L-49.75 -79.7Q-50.3 -80.85 -51.3 -81.2L-50.3 -81.45L-50 -81.4Q-49.55 -80.8 -48.3 -80.8L-47.45 -81.1L-46.35 -81.25Q-50.95 -79.55 -49.2 -74.7" />
<path style="fill:#C7E3E2;fill-opacity:0.301961" d="M-46.3 -81.3Q-44.6 -80.45 -44.05 -79.6Q-43.35 -78.5 -44.15 -76.55Q-44.4 -75.65 -45.75 -75.05Q-47.35 -74.25 -49.2 -74.7Q-50.95 -79.55 -46.35 -81.25L-47.45 -81.1L-48.3 -80.8Q-49.55 -80.8 -50 -81.4L-47.5 -82.05L-45.55 -82.6Q-45 -81.8 -46.3 -81.3" />
<path style="fill:none;stroke-width:0.7;stroke-linecap:round;stroke-linejoin:round;stroke-miterlimit:3;stroke:#3B5424;stroke-opacity:0.301961" d="M-51.3 -81.2L-51.45 -81.3Q-51.5 -81.45 -50.4 -81.8L-47.65 -82.65L-44.9 -83.3L-43.7 -83.35Q-44.45 -82.1 -44.25 -80.8Q-42.85 -80.1 -42.5 -78.7Q-42.2 -77.7 -42.95 -76.35Q-43.85 -74.6 -45.6 -74.15L-48.1 -74.2Q-48.85 -74.4 -49.2 -74.7Q-50.25 -75.35 -50.55 -76.55Q-50.95 -77.95 -50.05 -79.35L-49.75 -79.7Q-50.3 -80.85 -51.3 -81.2L-50.3 -81.45L-50 -81.4L-47.5 -82.05L-45.55 -82.6L-44.8 -82.9Q-44 -83.1 -43.7 -83.35" />
</g>
</svg>
