<?xml version="1.0" encoding="utf-8"?>
<svg version="1.1" id="Layer_1"
xmlns="http://www.w3.org/2000/svg"
xmlns:xlink="http://www.w3.org/1999/xlink"
width="30px" height="64px"
xml:space="preserve">
<g id="PathID_2111" transform="matrix(1, 0, 0, 1, 16.9, 57.85)">
<path style="fill:#D4C271;fill-opacity:1" d="M1.7 -52.6L1.7 -52.3Q1.85 -52 2.3 -51.95Q2.65 -51.9 3 -52.2L3.35 -52.75Q3.45 -53.3 2.65 -53.4Q1.85 -53.55 1.7 -52.6M-1.35 -50.75Q-1.65 -51.8 -0.75 -52.75L0.2 -53.35Q4.45 -56 9.45 -57.6Q12.1 -57.95 12.7 -56.6L12.65 -56.35L12.05 -53.25L11.25 -49.85Q10.75 -46.5 11 -41.9Q11.4 -37.35 11.15 -35.8Q10.65 -32.5 9 -31.35Q7.75 -30.55 5.15 -30.9L4.4 -31.05Q4.25 -31.45 4.25 -32.1L4.2 -34.85L4.25 -36.2Q4.35 -40.05 5.1 -44.45L5.2 -44.6L6.25 -48L6.4 -49.9Q6.25 -51 5.45 -51.15Q4.25 -51.3 2.6 -50.25L1.05 -49.45L-0.05 -49.3L-0.7 -49.35L-1.35 -50.75M6.15 -53.55Q7.55 -53.35 9.25 -54.35Q10.75 -55.3 10.85 -55.8Q11.05 -57.35 8.2 -56.25L6.1 -55.2L5.1 -54.35Q5 -53.7 6.15 -53.55" />
<path style="fill:#F4E397;fill-opacity:1" d="M2.65 -53.4Q3.45 -53.3 3.35 -52.75L3 -52.2Q2.65 -51.9 2.3 -51.95Q1.85 -52 1.7 -52.3L1.7 -52.6Q1.85 -53.55 2.65 -53.4M5.1 -54.35L6.1 -55.2L8.2 -56.25Q11.05 -57.35 10.85 -55.8Q10.75 -55.3 9.25 -54.35Q7.55 -53.35 6.15 -53.55Q5 -53.7 5.1 -54.35" />
<path style="fill:#AD9E58;fill-opacity:1" d="M5.65 -47L5.9 -48.6Q5.85 -49.2 5.15 -49.45Q4.35 -49.7 3.6 -48.95Q3.05 -48.1 2.1 -47.8L1.4 -47.7L0.75 -47.8L-0.05 -48.55L-0.7 -49.35L-0.05 -49.3L1.05 -49.45L2.6 -50.25Q4.25 -51.3 5.45 -51.15Q6.25 -51 6.4 -49.9L6.25 -48L5.2 -44.6L5.1 -44.45L5.65 -47M12.9 -55.3L11.45 -33.35Q11.9 -30.15 10.55 -30.1L9.2 -30.05L9.15 -29.7L9.85 -29.35Q10.4 -29 10.35 -28.7L9.75 -28.2L8.8 -27.9L8.15 -28.2L7.55 -28L7.15 -27.75L6.85 -27.8Q6.75 -27.8 6.8 -28.05L7.1 -28.8L7.45 -29.45L7.55 -30.05L7.1 -30.1L6.65 -29.95Q4.8 -29.55 4.4 -31.05L5.15 -30.9Q7.75 -30.55 9 -31.35Q10.65 -32.5 11.15 -35.8Q11.4 -37.35 11 -41.9Q10.75 -46.5 11.25 -49.85L12.05 -53.25L12.65 -56.35L12.7 -56.6L12.9 -55.3M9.2 -30.05Q8.35 -28.75 7.55 -30.05Q8.55 -30.85 9.2 -30.05Q8.55 -30.85 7.55 -30.05Q8.35 -28.75 9.2 -30.05" />
<path style="fill:none;stroke-width:0.7;stroke-linecap:round;stroke-linejoin:round;stroke-miterlimit:3;stroke:#000000;stroke-opacity:0.301961" d="M5.1 -44.45Q4.35 -40.05 4.25 -36.2L4.2 -34.85L4.25 -32.1Q4.25 -31.45 4.4 -31.05" />
<path style="fill:none;stroke-width:0.7;stroke-linecap:round;stroke-linejoin:round;stroke-miterlimit:3;stroke:#000000;stroke-opacity:0.301961" d="M12.7 -56.6Q12.1 -57.95 9.45 -57.6Q4.45 -56 0.2 -53.35L-0.75 -52.75Q-1.65 -51.8 -1.35 -50.75L-0.7 -49.35L-0.05 -48.55L0.75 -47.8L1.4 -47.7L2.1 -47.8Q3.05 -48.1 3.6 -48.95Q4.35 -49.7 5.15 -49.45Q5.85 -49.2 5.9 -48.6L5.65 -47L5.1 -44.45" />
<path style="fill:none;stroke-width:0.7;stroke-linecap:round;stroke-linejoin:round;stroke-miterlimit:3;stroke:#000000;stroke-opacity:0.301961" d="M9.2 -30.05L10.55 -30.1Q11.9 -30.15 11.45 -33.35L12.9 -55.3L12.7 -56.6" />
<path style="fill:none;stroke-width:0.7;stroke-linecap:round;stroke-linejoin:round;stroke-miterlimit:3;stroke:#000000;stroke-opacity:0.301961" d="M9.2 -30.05L9.15 -29.7L9.85 -29.35Q10.4 -29 10.35 -28.7L9.75 -28.2L8.8 -27.9L8.15 -28.2L7.55 -28L7.15 -27.75L6.85 -27.8Q6.75 -27.8 6.8 -28.05L7.1 -28.8L7.45 -29.45L7.55 -30.05L7.1 -30.1L6.65 -29.95Q4.8 -29.55 4.4 -31.05" />
<path style="fill:none;stroke-width:0.7;stroke-linecap:round;stroke-linejoin:round;stroke-miterlimit:3;stroke:#000000;stroke-opacity:0.301961" d="M9.2 -30.05Q8.55 -30.85 7.55 -30.05Q8.35 -28.75 9.2 -30.05z" />
</g>
<g id="PathID_2112" transform="matrix(1, 0, 0, 1, 16.9, 57.85)">
<path style="fill:#D4C271;fill-opacity:1" d="M-12.15 -50.75Q-12.15 -51.35 -13 -51.35Q-13.8 -51.35 -13.8 -50.35L-13.75 -50.05Q-13.55 -49.8 -13.1 -49.8L-12.45 -50.15Q-12.15 -50.5 -12.15 -50.75M-8.2 -30.5Q-9.3 -35.9 -9.2 -42.85L-9.15 -43Q-8.6 -45.2 -8.6 -46.5Q-8.6 -47.8 -8.75 -48.45Q-9.05 -49.5 -9.85 -49.5Q-11.05 -49.5 -12.55 -48.2Q-14.1 -46.9 -15 -46.9L-15.65 -46.85L-16.5 -48.1Q-17 -49.1 -16.2 -50.15Q-12.05 -53.9 -6.85 -56.5Q-4.35 -57.25 -3.5 -56L-3.25 -55.3Q-3.1 -54.85 -3.5 -52.3L-3.95 -49.1Q-3.95 -45.7 -2.95 -41.2Q-1.9 -36.75 -1.9 -35.2Q-1.9 -31.85 -3.35 -30.5Q-4.5 -29.45 -7.1 -29.45L-7.85 -29.5L-8.2 -30.5M-5.25 -54.9L-7.95 -54.95L-9.85 -53.6L-10.7 -52.65Q-10.7 -52 -9.55 -52Q-8.15 -52 -6.6 -53.25Q-5.25 -54.4 -5.25 -54.9" />
<path style="fill:#F4E397;fill-opacity:1" d="M-12.45 -50.15L-13.1 -49.8Q-13.55 -49.8 -13.75 -50.05L-13.8 -50.35Q-13.8 -51.35 -13 -51.35Q-12.15 -51.35 -12.15 -50.75Q-12.15 -50.5 -12.45 -50.15M-6.6 -53.25Q-8.15 -52 -9.55 -52Q-10.7 -52 -10.7 -52.65L-9.85 -53.6L-7.95 -54.95L-5.25 -54.9Q-5.25 -54.4 -6.6 -53.25" />
<path style="fill:#AD9E58;fill-opacity:1" d="M-3.1 -54.75L-1.25 -32.8Q-0.3 -29.75 -1.65 -29.45L-2.95 -29.2Q-3.65 -27.8 -4.6 -28.95L-2.95 -28.85Q-3.75 -29.95 -4.6 -28.95Q-3.65 -27.8 -2.95 -29.2L-5.05 -28.95L-5.45 -28.75Q-7.2 -28.05 -7.85 -29.5L-7.1 -29.45Q-4.5 -29.45 -3.35 -30.5Q-1.9 -31.85 -1.9 -35.2Q-1.9 -36.75 -2.95 -41.2Q-3.95 -45.7 -3.95 -49.1L-3.5 -52.3Q-3.1 -54.85 -3.25 -55.3L-3.5 -56L-3.1 -54.75M-2.95 -28.85L-2.2 -28.6L-1.6 -28.05Q-1.6 -27.9 -2.15 -27.5Q-2.7 -27.05 -3 -27.05L-3.75 -27.25L-4.3 -26.95L-4.65 -26.65L-4.95 -26.65L-5.05 -26.9L-4.85 -27.65L-4.6 -28.35L-4.6 -28.95Q-3.75 -29.95 -2.95 -29.2M-9.05 -45.45L-9.05 -47.1Q-9.2 -47.65 -9.9 -47.8Q-10.7 -47.95 -11.35 -47.1Q-11.75 -46.15 -12.7 -45.7L-14 -45.5L-14.9 -46.1L-15.65 -46.85L-15 -46.9Q-14.1 -46.9 -12.55 -48.2Q-11.05 -49.5 -9.85 -49.5Q-9.05 -49.5 -8.75 -48.45Q-8.6 -47.8 -8.6 -46.5Q-8.6 -45.2 -9.15 -43L-9.2 -42.85L-9.05 -45.45" />
<path style="fill:none;stroke-width:0.7;stroke-linecap:round;stroke-linejoin:round;stroke-miterlimit:3;stroke:#000000;stroke-opacity:0.301961" d="M-7.85 -29.5Q-7.2 -28.05 -5.45 -28.75L-5.05 -28.95L-4.6 -28.95Q-3.75 -29.95 -2.95 -29.2L-1.65 -29.45Q-0.3 -29.75 -1.25 -32.8L-3.1 -54.75L-3.5 -56Q-4.35 -57.25 -6.85 -56.5Q-12.05 -53.9 -16.2 -50.15Q-17 -49.1 -16.5 -48.1L-15.65 -46.85" />
<path style="fill:none;stroke-width:0.7;stroke-linecap:round;stroke-linejoin:round;stroke-miterlimit:3;stroke:#000000;stroke-opacity:0.301961" d="M-9.2 -42.85Q-9.3 -35.9 -8.2 -30.5L-7.85 -29.5" />
<path style="fill:none;stroke-width:0.7;stroke-linecap:round;stroke-linejoin:round;stroke-miterlimit:3;stroke:#000000;stroke-opacity:0.301961" d="M-15.65 -46.85L-14.9 -46.1L-14 -45.5L-12.7 -45.7Q-11.75 -46.15 -11.35 -47.1Q-10.7 -47.95 -9.9 -47.8Q-9.2 -47.65 -9.05 -47.1L-9.05 -45.45L-9.2 -42.85" />
<path style="fill:none;stroke-width:0.7;stroke-linecap:round;stroke-linejoin:round;stroke-miterlimit:3;stroke:#000000;stroke-opacity:0.301961" d="M-2.95 -29.2L-2.95 -28.85L-2.2 -28.6L-1.6 -28.05Q-1.6 -27.9 -2.15 -27.5Q-2.7 -27.05 -3 -27.05L-3.75 -27.25L-4.3 -26.95L-4.65 -26.65L-4.95 -26.65L-5.05 -26.9L-4.85 -27.65L-4.6 -28.35L-4.6 -28.95Q-3.65 -27.8 -2.95 -29.2z" />
</g>
<g id="PathID_2113" transform="matrix(1, 0, 0, 1, 16.9, 57.85)">
<path style="fill:none;stroke-width:0.7;stroke-linecap:round;stroke-linejoin:round;stroke-miterlimit:3;stroke:#000000;stroke-opacity:0.301961" d="M1.65 -0.95L2.4 0.4L2.85 0.5Q3.85 0.5 3.85 -0.3L3.6 -1.2L2.7 -2L1.65 -2L1.6 -1.7L1.55 -1.2L1.4 -1.75L1.4 -1.7L1.4 -0.45L1.75 -0.05L2.4 0.4L3.35 2.05" />
<path style="fill:none;stroke-width:0.7;stroke-linecap:round;stroke-linejoin:round;stroke-miterlimit:3;stroke:#000000;stroke-opacity:0.301961" d="M-3.9 -28.65L1.4 -1.95L1.4 -2L1.65 -2L7.95 -31.15" />
<path style="fill:none;stroke-width:0.7;stroke-linecap:round;stroke-linejoin:round;stroke-miterlimit:3;stroke:#000000;stroke-opacity:0.301961" d="M1.6 -1.7L1.4 -1.95L1.4 -1.75" />
<path style="fill:none;stroke-width:0.7;stroke-linecap:round;stroke-linejoin:round;stroke-miterlimit:3;stroke:#000000;stroke-opacity:0.301961" d="M1.4 -1.95L1.1 -2.2L0.5 -2.25Q-0.6 -2.25 -1.3 -1.35Q-1.85 -0.65 -1.85 -0.05Q-1.85 0.45 -1.55 0.6L-0.85 0.75Q-0.15 0.75 0.4 0.15L0.75 -1.35L1.1 -0.85L1.4 -1.7" />
<path style="fill:none;stroke-width:0.7;stroke-linecap:round;stroke-linejoin:round;stroke-miterlimit:3;stroke:#000000;stroke-opacity:0.301961" d="M1.4 5.15L1.4 -0.45L1.1 -0.85L0.9 -0.5L0.4 0.15L0.35 0.5L-0.25 2.1" />
</g>
</svg>
