<?xml version="1.0" encoding="utf-8"?>
<svg version="1.1" id="Layer_1"
xmlns="http://www.w3.org/2000/svg"
xmlns:xlink="http://www.w3.org/1999/xlink"
width="13px" height="28px"
xml:space="preserve">
<g id="PathID_1467" transform="matrix(1, 0, 0, 1, 0, 0.05)">
<path style="fill:#CCBC28;fill-opacity:1" d="M6.9 11.85L7.55 12.9L7.55 13.15Q6.95 13.1 6.2 15.35L5.6 17.6L4.7 17Q3.75 16.15 3.75 14.95Q3.75 13.6 4.45 12.55Q5.15 11.5 6.1 11.5Q6.6 11.5 6.9 11.85" />
<path style="fill:#FEFD89;fill-opacity:1" d="M2.25 7.25Q2.15 4.8 4.15 4.1Q6.1 3.4 6.15 5.8Q6.2 8.2 4.3 8.95Q2.35 9.7 2.25 7.25M2.7 17.75L3.15 20.55L3 21.25L2.85 21.25Q1.9 20.45 2.1 16.85Q2.2 15.35 2.7 17.75" />
<radialGradient
id="RadialGradID_746" gradientUnits="userSpaceOnUse" gradientTransform="matrix(0.0103149, 0, 0, 0.0241699, 5.75, 8.35)" spreadMethod ="pad" cx="0" cy="0" r="819.2" fx="0" fy="0" >
<stop  offset="0.0352941"  style="stop-color:#FEFD89;stop-opacity:1" />
<stop  offset="0.988235"  style="stop-color:#CCC202;stop-opacity:1" />
</radialGradient>
<path style="fill:url(#RadialGradID_746) " d="M6.15 0Q8.9 -0.55 10.8 5.15Q12.3 9.7 12.3 13.75Q12.3 18.25 11.2 21.9Q9.6 27.2 6.15 27.5Q3 27.75 1.25 22.2Q0 18.15 0 13.75Q0 10.05 1.5 5.75Q3.35 0.55 6.15 0M6.1 11.5Q5.15 11.5 4.45 12.55Q3.75 13.6 3.75 14.95Q3.75 16.15 4.7 17L5.6 17.6L6.2 15.35Q6.95 13.1 7.55 13.15L7.55 12.9L6.9 11.85Q6.6 11.5 6.1 11.5M4.3 8.95Q6.2 8.2 6.15 5.8Q6.1 3.4 4.15 4.1Q2.15 4.8 2.25 7.25Q2.35 9.7 4.3 8.95M2.1 16.85Q1.9 20.45 2.85 21.25L3 21.25L3.15 20.55L2.7 17.75Q2.2 15.35 2.1 16.85" />
</g>
<g id="PathID_1468" transform="matrix(1, 0, 0, 1, 0, 0.05)">
<path style="fill:#CCBC28;fill-opacity:1" d="M3.75 22.9Q8.9 20.9 9.55 12.75Q9.85 8.65 9.15 4.95Q11.2 14.3 10.75 17.65Q9.45 28.05 3.75 22.9" />
</g>
</svg>
