<?xml version="1.0" encoding="utf-8"?>
<svg version="1.1" id="Layer_1"
xmlns="http://www.w3.org/2000/svg"
xmlns:xlink="http://www.w3.org/1999/xlink"
width="29px" height="32px"
xml:space="preserve">
<g id="PathID_1875" transform="matrix(1, 0, 0, 1, 26.7, 29.75)">
<path style="fill:#3B8137;fill-opacity:1" d="M1.6 -4.2L1 0.7L-0.55 0.75L-0.25 -1.1Q0.75 -2.15 1.6 -4.2M-0.3 -20.95L-0.4 -21.15L-1.1 -22.05Q-0.8 -23.15 0.8 -23.1L0.85 -22.95Q1.25 -18.3 -0.3 -20.95" />
<path style="fill:#669933;fill-opacity:1" d="M-0.25 -1.1Q2.2 -16.35 -0.3 -20.95Q1.25 -18.3 0.85 -22.95Q2.55 -14.4 1.6 -4.2Q0.75 -2.15 -0.25 -1.1" />
<path style="fill:none;stroke-width:0.7;stroke-linecap:round;stroke-linejoin:round;stroke-miterlimit:3;stroke:#000000;stroke-opacity:0.4" d="M0.85 -22.95Q2.55 -14.4 1.6 -4.2L1 0.7L-0.55 0.75L-0.25 -1.1Q2.2 -16.35 -0.3 -20.95L-0.4 -21.15L-1.1 -22.05Q-0.8 -23.15 0.8 -23.1L0.85 -22.95z" />
</g>
<g id="PathID_1876" transform="matrix(1, 0, 0, 1, 26.7, 29.75)">
<path style="fill:#3B8137;fill-opacity:1" d="M-6.05 -22.1L1.25 -22.85L1.1 -21.6Q-2.1 -22.25 -7.85 -19.95Q-19.1 -16.6 -24.05 -18.65Q-17.1 -17.35 -6.05 -22.1" />
<radialGradient
id="RadialGradID_1058" gradientUnits="userSpaceOnUse" gradientTransform="matrix(0.024704, 0, 0, 0.024704, -30.05, -21.85)" spreadMethod ="pad" cx="0" cy="0" r="819.2" fx="0" fy="0" >
<stop  offset="0"  style="stop-color:#88C44C;stop-opacity:1" />
<stop  offset="1"  style="stop-color:#669933;stop-opacity:1" />
</radialGradient>
<path style="fill:url(#RadialGradID_1058) " d="M1.25 -22.85L-6.05 -22.1Q-17.1 -17.35 -24.05 -18.65Q-25.6 -19.3 -26.55 -20.45Q-18.95 -22.6 -13.3 -29.25Q-9.85 -30.35 -5.95 -27.85Q-7.35 -27.6 -8.9 -26.8L-1 -27.75Q1.3 -25.75 1.25 -22.85M-8.9 -26.8Q-5.65 -27.5 -4.15 -25Q-5.65 -27.5 -8.9 -26.8L-9.2 -26.65L-9.5 -26.5L-14.05 -26.75L-9.5 -26.5L-9.2 -26.65L-8.9 -26.8Q-7.35 -27.6 -5.95 -27.85M-13.1 -23.85L-11.75 -25.05L-9.5 -26.5L-11.75 -25.05L-13.1 -23.85M-13.6 -24.55Q-12.5 -25.2 -11.75 -25.05Q-12.5 -25.2 -13.6 -24.55" />
<path style="fill:none;stroke-width:0.7;stroke-linecap:round;stroke-linejoin:round;stroke-miterlimit:3;stroke:#000000;stroke-opacity:0.4" d="M-24.05 -18.65Q-19.1 -16.6 -7.85 -19.95Q-2.1 -22.25 1.1 -21.6L1.25 -22.85" />
<path style="fill:none;stroke-width:0.7;stroke-linecap:round;stroke-linejoin:round;stroke-miterlimit:3;stroke:#000000;stroke-opacity:0.4" d="M-24.05 -18.65Q-25.6 -19.3 -26.55 -20.45Q-18.95 -22.6 -13.3 -29.25Q-9.85 -30.35 -5.95 -27.85L-1 -27.75Q1.3 -25.75 1.25 -22.85" />
<path style="fill:none;stroke-width:0.7;stroke-linecap:round;stroke-linejoin:round;stroke-miterlimit:3;stroke:#000000;stroke-opacity:0.4" d="M-14.05 -26.75L-9.5 -26.5L-9.2 -26.65L-8.9 -26.8Q-7.35 -27.6 -5.95 -27.85" />
<path style="fill:none;stroke-width:0.7;stroke-linecap:round;stroke-linejoin:round;stroke-miterlimit:3;stroke:#000000;stroke-opacity:0.4" d="M-4.15 -25Q-5.65 -27.5 -8.9 -26.8" />
<path style="fill:none;stroke-width:0.7;stroke-linecap:round;stroke-linejoin:round;stroke-miterlimit:3;stroke:#000000;stroke-opacity:0.4" d="M-9.5 -26.5L-11.75 -25.05L-13.1 -23.85" />
<path style="fill:none;stroke-width:0.7;stroke-linecap:round;stroke-linejoin:round;stroke-miterlimit:3;stroke:#000000;stroke-opacity:0.4" d="M-11.75 -25.05Q-12.5 -25.2 -13.6 -24.55" />
</g>
</svg>
