<?xml version="1.0" encoding="utf-8"?>
<svg version="1.1" id="Layer_1"
xmlns="http://www.w3.org/2000/svg"
xmlns:xlink="http://www.w3.org/1999/xlink"
width="8px" height="22px"
xml:space="preserve">
<g id="PathID_1377" transform="matrix(1, 0, 0, 1, 4.15, 20.9)">
<path style="fill:#AFCFBF;fill-opacity:0.4" d="M-0.55 -12.6L-0.4 -14.55L-2 -19.7L-0.5 -19.55L2.1 -19.75L3.65 -20.1L1.3 -13.9Q0.55 -14.25 -0.55 -12.6" />
<path style="fill:#7BA38F;fill-opacity:0.4" d="M-4 -20.05Q-3.95 -20.45 -2.95 -20.6L-0.2 -20.75L1.2 -20.7L1.5 -20.6L1.85 -20.65L2.5 -20.6Q3.65 -20.45 3.65 -20.2L3.65 -20.1L2.1 -19.75L-0.5 -19.55L-2 -19.7L-2.95 -19.8L-4 -20.05" />
<linearGradient
id="LinearGradID_718" gradientUnits="userSpaceOnUse" gradientTransform="matrix(-0.0298462, 0.0279541, -0.00743103, -0.00767517, -272.2, -481.8)" spreadMethod ="pad" x1="-819.2" y1="0" x2="819.2" y2="0" >
<stop  offset="0.321569" style="stop-color:#DAE9E2;stop-opacity:0.411765" />
<stop  offset="0.627451" style="stop-color:#AFCFBF;stop-opacity:0.160784" />
</linearGradient>
<path style="fill:url(#LinearGradID_718) " d="M-0.55 -12.6Q0.55 -14.25 1.3 -13.9L3.7 -0.45L2.5 -0.15L-0.2 0L-1.7 -0.05L-0.55 -12.6" />
<path style="fill:#E4EFEB;fill-opacity:0.721569" d="M-2.95 -19.8L-2 -19.7L-0.4 -14.55L-0.55 -12.6L-1.7 -0.05L-2.95 -0.15L-3.8 -0.3L-1.95 -14.35L-4 -20.05L-2.95 -19.8" />
<path style="fill:none;stroke-width:0.7;stroke-linecap:round;stroke-linejoin:round;stroke-miterlimit:3;stroke:#000000;stroke-opacity:0.301961" d="M3.65 -20.1L1.3 -13.9L3.7 -0.45L2.5 -0.15L-0.2 0L-1.7 -0.05L-2.95 -0.15L-3.8 -0.3L-1.95 -14.35L-4 -20.05" />
<path style="fill:none;stroke-width:0.7;stroke-linecap:round;stroke-linejoin:round;stroke-miterlimit:3;stroke:#FFFFFF;stroke-opacity:0.301961" d="M-4 -20.05Q-3.95 -20.45 -2.95 -20.6L-0.2 -20.75L1.2 -20.7" />
<path style="fill:none;stroke-width:0.7;stroke-linecap:round;stroke-linejoin:round;stroke-miterlimit:3;stroke:#FFFFFF;stroke-opacity:0.301961" d="M1.85 -20.65L2.5 -20.6Q3.65 -20.45 3.65 -20.2L3.65 -20.1L2.1 -19.75L-0.5 -19.55L-2 -19.7" />
<path style="fill:none;stroke-width:0.7;stroke-linecap:round;stroke-linejoin:round;stroke-miterlimit:3;stroke:#FFFFFF;stroke-opacity:0.301961" d="M-2 -19.7L-2.95 -19.8L-4 -20.05" />
</g>
</svg>
