<?xml version="1.0" encoding="utf-8"?>
<svg version="1.1" id="Layer_1"
xmlns="http://www.w3.org/2000/svg"
xmlns:xlink="http://www.w3.org/1999/xlink"
width="75px" height="42px"
xml:space="preserve">
<g id="PathID_774" transform="matrix(1, 0, 0, 1, 35.15, 0.15)">
<path style="fill:#959595;fill-opacity:1" d="M33.9 0.8Q34.75 0 35.95 0Q36.8 0 37.45 0.4Q38.55 3.25 36.1 3.75Q33.2 4.1 33.6 1.2L33.9 0.8M-32.5 4.55Q-34.5 4.75 -34.9 2.6L-34.2 1.45Q-33.4 0.65 -32.3 0.65Q-31.5 0.65 -30.85 1.1Q-29.95 4.3 -32.5 4.55" />
<path style="fill:#646464;fill-opacity:1" d="M37.95 0.8Q38.8 1.65 38.8 2.85Q38.8 4.05 37.95 4.85Q37.15 5.7 35.95 5.7Q34.75 5.7 33.9 4.85L33.3 3.85L33.1 2.85L33.2 2.15L33.6 1.2Q33.2 4.1 36.1 3.75Q38.55 3.25 37.45 0.4L37.95 0.8M-30.85 1.1L-30.4 1.45L-29.85 2.15Q-29.6 2.7 -29.6 3.35L-29.65 3.85Q-29.8 4.65 -30.4 5.25Q-31.2 6.05 -32.3 6.05Q-33.4 6.05 -34.2 5.25Q-35 4.45 -35 3.35L-34.9 2.6Q-34.5 4.75 -32.5 4.55Q-29.95 4.3 -30.85 1.1" />
<linearGradient
id="LinearGradID_351" gradientUnits="userSpaceOnUse" gradientTransform="matrix(0.0385437, 0, 0, 0.0010376, 1.7, 3)" spreadMethod ="pad" x1="-819.2" y1="0" x2="819.2" y2="0" >
<stop  offset="0" style="stop-color:#5E6366;stop-opacity:1" />
<stop  offset="0.458824" style="stop-color:#A5AAAE;stop-opacity:1" />
<stop  offset="1" style="stop-color:#5C6164;stop-opacity:1" />
</linearGradient>
<path style="fill:url(#LinearGradID_351) " d="M-29.65 3.85L-29.6 3.35Q-29.6 2.7 -29.85 2.15L33.2 2.15L33.1 2.85L33.3 3.85L-29.65 3.85" />
<path style="fill:none;stroke-width:0.7;stroke-linecap:round;stroke-linejoin:round;stroke-miterlimit:3;stroke:#000000;stroke-opacity:0.4" d="M37.45 0.4Q36.8 0 35.95 0Q34.75 0 33.9 0.8L33.6 1.2L33.2 2.15L33.1 2.85L33.3 3.85L33.9 4.85Q34.75 5.7 35.95 5.7Q37.15 5.7 37.95 4.85Q38.8 4.05 38.8 2.85Q38.8 1.65 37.95 0.8L37.45 0.4z" />
<path style="fill:none;stroke-width:0.7;stroke-linecap:round;stroke-linejoin:round;stroke-miterlimit:3;stroke:#000000;stroke-opacity:0.4" d="M-29.85 2.15Q-29.6 2.7 -29.6 3.35L-29.65 3.85L33.3 3.85" />
<path style="fill:none;stroke-width:0.7;stroke-linecap:round;stroke-linejoin:round;stroke-miterlimit:3;stroke:#000000;stroke-opacity:0.4" d="M-34.9 2.6L-34.2 1.45Q-33.4 0.65 -32.3 0.65Q-31.5 0.65 -30.85 1.1L-30.4 1.45L-29.85 2.15L33.2 2.15" />
<path style="fill:none;stroke-width:0.7;stroke-linecap:round;stroke-linejoin:round;stroke-miterlimit:3;stroke:#000000;stroke-opacity:0.4" d="M-29.65 3.85Q-29.8 4.65 -30.4 5.25Q-31.2 6.05 -32.3 6.05Q-33.4 6.05 -34.2 5.25Q-35 4.45 -35 3.35L-34.9 2.6" />
</g>
<g id="PathID_775" transform="matrix(1, 0, 0, 1, 35.15, 0.15)">
<linearGradient
id="LinearGradID_352" gradientUnits="userSpaceOnUse" gradientTransform="matrix(0.00778198, 0.00778198, -0.00984192, 0.00984192, -22.7, 27.4)" spreadMethod ="pad" x1="-819.2" y1="0" x2="819.2" y2="0" >
<stop  offset="0" style="stop-color:#4F5054;stop-opacity:1" />
<stop  offset="1" style="stop-color:#9A9A9A;stop-opacity:1" />
</linearGradient>
<path style="fill:url(#LinearGradID_352) " d="M-19.75 17.25L-20.35 17.45L-20.55 18.05L-20.35 18.6L-19.75 18.85Q-19.4 18.85 -19.2 18.6Q-18.95 18.4 -18.95 18.05Q-18.95 17.7 -19.2 17.45Q-19.4 17.25 -19.75 17.25M-32.45 35.95Q-34.7 32.7 -34.7 28.55Q-34.7 26.8 -34.3 25.2Q-32.5 20.75 -29.3 18.3Q-26.4 16 -21.95 16L-21.95 16.85L-20.8 16.85L-20.8 16.05Q-17.35 16.25 -14.6 17.85Q-14.8 19.9 -18.3 20.4Q-19.9 19.75 -21.8 19.75Q-25.8 19.75 -28.6 22.55Q-31.35 25.3 -31.35 29.25Q-31.35 31.15 -30.7 32.8Q-30.7 35.75 -32.45 35.95M-23.05 17.45Q-23.25 17.25 -23.6 17.25L-24.2 17.45L-24.4 18.05L-24.2 18.6L-23.6 18.85Q-23.25 18.85 -23.05 18.6L-22.8 18.05L-23.05 17.45" />
<path style="fill:#959595;fill-opacity:1" d="M-19.2 17.45Q-18.95 17.7 -18.95 18.05Q-18.95 18.4 -19.2 18.6Q-19.4 18.85 -19.75 18.85L-20.35 18.6L-20.55 18.05L-20.35 17.45L-19.75 17.25Q-19.4 17.25 -19.2 17.45M-20.8 16.85L-21.95 16.85L-21.95 16L-21.95 15.2L-20.8 15.25L-20.8 16.05L-20.8 16.85M-22.8 18.05L-23.05 18.6Q-23.25 18.85 -23.6 18.85L-24.2 18.6L-24.4 18.05L-24.2 17.45L-23.6 17.25Q-23.25 17.25 -23.05 17.45L-22.8 18.05" />
<path style="fill:#A3A3A3;fill-opacity:1" d="M-14.6 17.85L-13.3 18.7Q-11.75 19.85 -10.7 21.35L-17.35 20.85L-18.3 20.4Q-14.8 19.9 -14.6 17.85M-29.8 38.8L-30.85 37.85L-32.45 35.95Q-30.7 35.75 -30.7 32.8L-29.8 34.55Q-30.85 36.65 -29.8 38.8" />
<linearGradient
id="LinearGradID_353" gradientUnits="userSpaceOnUse" gradientTransform="matrix(0.00637817, 0.00787354, -0.00898743, 0.0072937, -20.35, 30.65)" spreadMethod ="pad" x1="-819.2" y1="0" x2="819.2" y2="0" >
<stop  offset="0" style="stop-color:#959595;stop-opacity:1" />
<stop  offset="0.960784" style="stop-color:#6B6969;stop-opacity:1" />
</linearGradient>
<path style="fill:url(#LinearGradID_353) " d="M-15.1 22.55Q-12.25 25.3 -12.25 29.25Q-12.25 33.2 -15.1 36Q-17.85 38.75 -21.8 38.75Q-25.8 38.75 -28.6 36L-29.8 34.55L-30.7 32.8Q-31.35 31.15 -31.35 29.25Q-31.35 25.3 -28.6 22.55Q-25.8 19.75 -21.8 19.75Q-19.9 19.75 -18.3 20.4L-17.35 20.85Q-16.15 21.5 -15.1 22.55" />
<path style="fill:#36373A;fill-opacity:1" d="M-8.85 25.15Q-8.45 26.55 -8.45 28.5Q-8.45 33.95 -12.35 37.8Q-16.15 41.7 -21.55 41.7Q-26.3 41.75 -29.8 38.8Q-30.85 36.65 -29.8 34.55L-28.6 36Q-25.8 38.75 -21.8 38.75Q-17.85 38.75 -15.1 36Q-12.25 33.2 -12.25 29.25Q-12.25 25.3 -15.1 22.55Q-16.15 21.5 -17.35 20.85L-10.7 21.35Q-9.5 23.05 -8.85 25.15" />
<path style="fill:#27282A;fill-opacity:1" d="M-21.95 15.2L-22.35 15L-22.65 13.15Q-20.4 13 -19.25 1.7Q-18.65 6 -20.05 15L-20.8 15.25L-21.95 15.2" />
<path style="fill:#3E3F41;fill-opacity:1" d="M-23 1.85Q-22.5 0.55 -21.3 0.5Q-20.1 0.45 -19.25 1.7Q-20.4 13 -22.65 13.15Q-23.4 7.55 -23 1.85" />
<path style="fill:none;stroke-width:0.7;stroke-linecap:round;stroke-linejoin:round;stroke-miterlimit:3;stroke:#000000;stroke-opacity:0.301961" d="M-10.7 21.35Q-11.75 19.85 -13.3 18.7L-14.6 17.85" />
<path style="fill:none;stroke-width:0.7;stroke-linecap:round;stroke-linejoin:round;stroke-miterlimit:3;stroke:#000000;stroke-opacity:0.301961" d="M-20.8 15.25L-20.05 15Q-18.65 6 -19.25 1.7" />
<path style="fill:none;stroke-width:0.7;stroke-linecap:round;stroke-linejoin:round;stroke-miterlimit:3;stroke:#000000;stroke-opacity:0.301961" d="M-22.65 13.15L-22.35 15L-21.95 15.2L-20.8 15.25L-20.8 16.05Q-17.35 16.25 -14.6 17.85" />
<path style="fill:none;stroke-width:0.7;stroke-linecap:round;stroke-linejoin:round;stroke-miterlimit:3;stroke:#000000;stroke-opacity:0.301961" d="M-19.25 1.7Q-20.1 0.45 -21.3 0.5Q-22.5 0.55 -23 1.85Q-23.4 7.55 -22.65 13.15" />
<path style="fill:none;stroke-width:0.7;stroke-linecap:round;stroke-linejoin:round;stroke-miterlimit:3;stroke:#000000;stroke-opacity:0.301961" d="M-21.95 16L-21.95 16.85L-20.8 16.85L-20.8 16.05" />
<path style="fill:none;stroke-width:0.7;stroke-linecap:round;stroke-linejoin:round;stroke-miterlimit:3;stroke:#000000;stroke-opacity:0.301961" d="M-21.95 15.2L-21.95 16Q-26.4 16 -29.3 18.3Q-32.5 20.75 -34.3 25.2Q-34.7 26.8 -34.7 28.55Q-34.7 32.7 -32.45 35.95" />
<path style="fill:none;stroke-width:0.7;stroke-linecap:round;stroke-linejoin:round;stroke-miterlimit:3;stroke:#000000;stroke-opacity:0.301961" d="M-29.8 38.8Q-26.3 41.75 -21.55 41.7Q-16.15 41.7 -12.35 37.8Q-8.45 33.95 -8.45 28.5Q-8.45 26.55 -8.85 25.15Q-9.5 23.05 -10.7 21.35" />
<path style="fill:none;stroke-width:0.7;stroke-linecap:round;stroke-linejoin:round;stroke-miterlimit:3;stroke:#000000;stroke-opacity:0.301961" d="M-32.45 35.95L-30.85 37.85L-29.8 38.8" />
</g>
<g id="PathID_776" transform="matrix(1, 0, 0, 1, 35.15, 0.15)">
<linearGradient
id="LinearGradID_354" gradientUnits="userSpaceOnUse" gradientTransform="matrix(0.00787354, 0.00343323, -0.00306702, 0.0070343, -4.8, 20.7)" spreadMethod ="pad" x1="-819.2" y1="0" x2="819.2" y2="0" >
<stop  offset="0" style="stop-color:#B74E5D;stop-opacity:1" />
<stop  offset="0.345098" style="stop-color:#CD8D93;stop-opacity:1" />
<stop  offset="0.780392" style="stop-color:#B74E5D;stop-opacity:1" />
<stop  offset="1" style="stop-color:#772C3B;stop-opacity:1" />
</linearGradient>
<path style="fill:url(#LinearGradID_354) " d="M-0.25 22.2Q-2.85 19.8 -3.85 19.8L-2.05 21.9Q-4.45 20.1 -7.25 20.1L-8.2 20.15Q-6.5 19.5 -7.4 19.2Q-10.8 19.5 -12.35 21.2Q-11.55 19.3 -9.9 17.15Q-8.05 16.05 -5.3 16.3L-5.4 16.7Q-5.45 17.2 -4.8 17.35Q-4 17.55 -2.8 16.75Q0 17.25 1.7 19.7Q3.35 22.15 3.15 26.25L1.4 28.85Q2.3 24.6 -0.25 22.2" />
<path style="fill:#605E5F;fill-opacity:1" d="M-4.55 5.35Q-2.95 9.7 -3.6 15.8Q-4.65 16.6 -5.15 15.2Q-4.35 9.55 -5.75 5.5Q-7.95 4.35 -6.35 1.7Q-5.5 1.25 -4.8 1.45Q-5.9 3 -4.55 5.35" />
<path style="fill:#333232;fill-opacity:1" d="M-4.8 1.45Q-4.3 1.6 -3.9 2.15Q-4.65 4.1 -3.65 4.65Q-1.6 9.85 -2.8 16.75Q-4 17.55 -4.8 17.35Q-5.45 17.2 -5.4 16.7L-5.3 16.3L-5.15 15.2Q-4.65 16.6 -3.6 15.8Q-2.95 9.7 -4.55 5.35Q-5.9 3 -4.8 1.45" />
<path style="fill:#DBA7AC;fill-opacity:1" d="M0.95 26.4Q0.45 23.85 -1.95 21.95L-2.05 21.9L-3.85 19.8Q-2.85 19.8 -0.25 22.2Q2.3 24.6 1.4 28.85L-0.1 30.65Q1.35 28.8 0.95 26.4M-7.4 19.2Q-6.5 19.5 -8.2 20.15Q-10.45 20.4 -11.9 21.95Q-13 23.2 -13.15 24.7Q-13.2 23.1 -12.35 21.2Q-10.8 19.5 -7.4 19.2" />
<path style="fill:#772C3B;fill-opacity:1" d="M-0.1 30.65L-0.95 31.5Q-2.55 32.7 -4.85 32.7Q-7.75 32.7 -10.25 30.85Q-12.65 28.95 -13.1 26.4L-13.15 24.7Q-13 23.2 -11.9 21.95Q-10.45 20.4 -8.2 20.15L-7.25 20.1Q-4.45 20.1 -2.05 21.9L-1.95 21.95Q0.45 23.85 0.95 26.4Q1.35 28.8 -0.1 30.65" />
<path style="fill:none;stroke-width:0.7;stroke-linecap:round;stroke-linejoin:round;stroke-miterlimit:3;stroke:#000000;stroke-opacity:0.301961" d="M-2.8 16.75Q0 17.25 1.7 19.7Q3.35 22.15 3.15 26.25L1.4 28.85L-0.1 30.65L-0.95 31.5Q-2.55 32.7 -4.85 32.7Q-7.75 32.7 -10.25 30.85Q-12.65 28.95 -13.1 26.4L-13.15 24.7Q-13.2 23.1 -12.35 21.2Q-11.55 19.3 -9.9 17.15Q-8.05 16.05 -5.3 16.3L-5.15 15.2Q-4.35 9.55 -5.75 5.5Q-7.95 4.35 -6.35 1.7Q-5.5 1.25 -4.8 1.45Q-4.3 1.6 -3.9 2.15Q-4.65 4.1 -3.65 4.65Q-1.6 9.85 -2.8 16.75Q-4 17.55 -4.8 17.35Q-5.45 17.2 -5.4 16.7L-5.3 16.3" />
<path style="fill:none;stroke-width:0.7;stroke-linecap:round;stroke-linejoin:round;stroke-miterlimit:3;stroke:#000000;stroke-opacity:0.301961" d="M-8.2 20.15L-7.25 20.1Q-4.45 20.1 -2.05 21.9" />
</g>
<g id="PathID_777" transform="matrix(1, 0, 0, 1, 35.15, 0.15)">
<path style="fill:#605E5F;fill-opacity:1" d="M8.85 16.05Q11 11.5 9.65 4.2Q8.45 3.25 9.1 1.65Q9.75 1.2 10.4 1.65Q9.3 2.75 10.45 4L10.95 6.9Q11.5 11.1 10.25 15Q9.4 16.25 8.85 16.05" />
<path style="fill:#333232;fill-opacity:1" d="M7.9 17.65L8.85 16.05Q9.4 16.25 10.25 15Q11.5 11.1 10.95 6.9L10.45 4L11.1 4.1Q12 8.4 11.8 12.35Q11.45 15.1 9.55 17.65L7.9 17.65" />
<linearGradient
id="LinearGradID_355" gradientUnits="userSpaceOnUse" gradientTransform="matrix(0.000335693, 0.00517273, -0.00842285, 0.000549316, 6.15, 21.5)" spreadMethod ="pad" x1="-819.2" y1="0" x2="819.2" y2="0" >
<stop  offset="0" style="stop-color:#B74E5D;stop-opacity:1" />
<stop  offset="0.345098" style="stop-color:#CD8D93;stop-opacity:1" />
<stop  offset="0.780392" style="stop-color:#B74E5D;stop-opacity:1" />
<stop  offset="1" style="stop-color:#772C3B;stop-opacity:1" />
</linearGradient>
<path style="fill:url(#LinearGradID_355) " d="M9.35 18.3Q7.5 19.2 6.85 22.65Q6.2 26.1 8.55 29.5L8.6 29.6L8.65 29.65L8.8 30Q9.3 31.05 10 31.4L4 31.4Q3.2 30.95 2.6 29.5Q1.8 27.45 1.8 24.55Q1.8 21.7 2.6 19.65Q3.35 17.9 4.4 17.55L7.9 17.65L9.55 17.65L10.3 17.65Q9.75 17.75 9.35 18.3" />
<linearGradient
id="LinearGradID_356" gradientUnits="userSpaceOnUse" gradientTransform="matrix(0.0015564, 0.00900269, -0.00836182, 0.00146484, 11.1, 24.6)" spreadMethod ="pad" x1="-819.2" y1="0" x2="819.2" y2="0" >
<stop  offset="0" style="stop-color:#3A3637;stop-opacity:1" />
<stop  offset="0.47451" style="stop-color:#807D7D;stop-opacity:1" />
<stop  offset="1" style="stop-color:#434041;stop-opacity:1" />
</linearGradient>
<path style="fill:url(#LinearGradID_356) " d="M8.8 30L9.75 28.6Q10.65 26.85 10.65 24.4Q10.65 22 9.75 20.25L8.9 19L9.35 18.3Q9.75 17.75 10.3 17.65L11 17.65Q11.9 17.95 12.55 19.65Q13.45 21.7 13.45 24.55Q13.45 27.45 12.55 29.5Q11.75 31.55 10.6 31.55L10.3 31.5L10 31.4Q9.3 31.05 8.8 30" />
<path style="fill:#2E2B2E;fill-opacity:1" d="M8.65 29.65L8.6 29.6L8.55 29.5Q7.75 27.45 7.75 24.55Q7.75 21.7 8.55 19.65L8.9 19L9.75 20.25Q10.65 22 10.65 24.4Q10.65 26.85 9.75 28.6L8.8 30L8.65 29.65" />
<path style="fill:#D598A0;fill-opacity:1" d="M6.85 22.65Q7.5 19.2 9.35 18.3L8.9 19L8.55 19.65Q7.75 21.7 7.75 24.55Q7.75 27.45 8.55 29.5Q6.2 26.1 6.85 22.65" />
<path style="fill:none;stroke-width:0.7;stroke-linecap:round;stroke-linejoin:round;stroke-miterlimit:3;stroke:#000000;stroke-opacity:0.301961" d="M10.45 4L11.1 4.1Q12 8.4 11.8 12.35Q11.45 15.1 9.55 17.65L10.3 17.65L10.6 17.6L11 17.65Q11.9 17.95 12.55 19.65Q13.45 21.7 13.45 24.55Q13.45 27.45 12.55 29.5Q11.75 31.55 10.6 31.55L10.3 31.5L10 31.4L4 31.4Q3.2 30.95 2.6 29.5Q1.8 27.45 1.8 24.55Q1.8 21.7 2.6 19.65Q3.35 17.9 4.4 17.55L7.9 17.65L8.85 16.05Q11 11.5 9.65 4.2Q8.45 3.25 9.1 1.65Q9.75 1.2 10.4 1.65Q9.3 2.75 10.45 4z" />
<path style="fill:none;stroke-width:0.7;stroke-linecap:round;stroke-linejoin:round;stroke-miterlimit:3;stroke:#000000;stroke-opacity:0.301961" d="M7.9 17.65L9.55 17.65" />
<path style="fill:none;stroke-width:0.7;stroke-linecap:round;stroke-linejoin:round;stroke-miterlimit:3;stroke:#000000;stroke-opacity:0.301961" d="M8.8 30Q9.3 31.05 10 31.4" />
<path style="fill:none;stroke-width:0.7;stroke-linecap:round;stroke-linejoin:round;stroke-miterlimit:3;stroke:#000000;stroke-opacity:0.301961" d="M8.55 29.5Q7.75 27.45 7.75 24.55Q7.75 21.7 8.55 19.65L8.9 19L9.35 18.3" />
<path style="fill:none;stroke-width:0.7;stroke-linecap:round;stroke-linejoin:round;stroke-miterlimit:3;stroke:#000000;stroke-opacity:0.301961" d="M8.65 29.65L8.8 30" />
<path style="fill:none;stroke-width:0.7;stroke-linecap:round;stroke-linejoin:round;stroke-miterlimit:3;stroke:#000000;stroke-opacity:0.301961" d="M10.3 17.65L11 17.65" />
<path style="fill:none;stroke-width:0.7;stroke-linecap:round;stroke-linejoin:round;stroke-miterlimit:3;stroke:#000000;stroke-opacity:0.301961" d="M9.35 18.3Q9.75 17.75 10.3 17.65" />
</g>
<g id="PathID_778" transform="matrix(1, 0, 0, 1, 35.15, 0.15)">
<radialGradient
id="RadialGradID_357" gradientUnits="userSpaceOnUse" gradientTransform="matrix(0.0118408, 0, 0, 0.00726318, 18.45, 28.25)" spreadMethod ="pad" cx="0" cy="0" r="819.2" fx="0" fy="0" >
<stop  offset="0"  style="stop-color:#2E2C2D;stop-opacity:1" />
<stop  offset="0.662745"  style="stop-color:#5C6164;stop-opacity:1" />
</radialGradient>
<path style="fill:url(#RadialGradID_357) " d="M15.1 25.15L15.2 24.4Q15.35 23.85 15.8 23.45L16.95 22.85Q19.3 22.5 20.55 22.8Q22.4 23.35 23.45 24.5Q24.4 25.7 24.1 26.8L23.55 27.75Q22.4 29.15 18.75 28.4Q15.15 27.1 15.1 25.15" />
<path style="fill:#A6ABAF;fill-opacity:1" d="M18.75 28.4Q22.4 29.15 23.55 27.75Q22.85 29.3 21.2 30.15Q19.6 31 18.35 30.5Q16.4 29.7 15.7 28.75Q14.85 27.5 15.1 25.15Q15.15 27.1 18.75 28.4M16.8 17.6Q17.5 11 16.65 4.35Q15.35 3.3 15.9 2.3Q16.4 1.3 17.25 1.9Q16.9 2.95 17.7 3.9Q18.25 8.25 17.6 16.4L16.8 17.6" />
<path style="fill:#605E5F;fill-opacity:1" d="M17.6 16.4L16.95 22.85L15.8 23.45L16.8 17.6L17.6 16.4" />
<path style="fill:none;stroke-width:0.7;stroke-linecap:round;stroke-linejoin:round;stroke-miterlimit:3;stroke:#000000;stroke-opacity:0.4" d="M16.95 22.85Q19.3 22.5 20.55 22.8Q22.4 23.35 23.45 24.5Q24.4 25.7 24.1 26.8L23.55 27.75Q22.85 29.3 21.2 30.15Q19.6 31 18.35 30.5Q16.4 29.7 15.7 28.75Q14.85 27.5 15.1 25.15L15.2 24.4Q15.35 23.85 15.8 23.45L16.8 17.6Q17.5 11 16.65 4.35Q15.35 3.3 15.9 2.3Q16.4 1.3 17.25 1.9Q16.9 2.95 17.7 3.9Q18.25 8.25 17.6 16.4L16.95 22.85z" />
</g>
<g id="PathID_779" transform="matrix(1, 0, 0, 1, 35.15, 0.15)">
<path style="fill:#A6ABAF;fill-opacity:1" d="M29.7 18.55L29.7 14.8L31.05 14.75L29.7 5.35Q28.8 2.8 29.7 1.45L31.7 1.4Q30.6 2.6 31.05 5.35L31.05 14.75L29.7 14.8L31.05 18.55L30.3 18.55L29.7 18.55" />
<path style="fill:none;stroke-width:0.7;stroke-linecap:round;stroke-linejoin:round;stroke-miterlimit:3;stroke:#000000;stroke-opacity:0.4" d="M29.7 18.55L29.7 14.8L29.7 5.35Q28.8 2.8 29.7 1.45L31.7 1.4Q30.6 2.6 31.05 5.35L31.05 14.75L31.05 18.55L30.3 18.55" />
<path style="fill:none;stroke-width:0.7;stroke-linecap:round;stroke-linejoin:round;stroke-miterlimit:3;stroke:#383838;stroke-opacity:0.701961" d="M30.3 18.55L30.45 25.7L31.05 22.6L31.3 20.95L31.3 20.65L31.15 18.55Q35.1 22.2 34.4 25.9L34.5 26.6Q34.6 30.1 32.95 29.25Q32.45 32.15 31.25 31Q30.9 32.35 30.3 31.4Q29.85 30.9 29.65 30Q27.8 30.75 27.5 29.2Q27.15 27.65 27.75 24.65Q28.35 21.6 29.7 18.55" />
<path style="fill:none;stroke-width:0.7;stroke-linecap:round;stroke-linejoin:round;stroke-miterlimit:3;stroke:#000000;stroke-opacity:0.4" d="M29.7 18.55L30.3 18.55" />
<path style="fill:none;stroke-width:0.7;stroke-linecap:round;stroke-linejoin:round;stroke-miterlimit:3;stroke:#383838;stroke-opacity:0.701961" d="M30.3 18.55Q29.25 23.95 29.3 27.2L29.4 27.95L30.4 26.4L30.45 25.7" />
<path style="fill:none;stroke-width:0.7;stroke-linecap:round;stroke-linejoin:round;stroke-miterlimit:3;stroke:#383838;stroke-opacity:0.701961" d="M31.05 22.6L31.4 23.3L31.35 21.9L31.3 20.95" />
<path style="fill:none;stroke-width:0.7;stroke-linecap:round;stroke-linejoin:round;stroke-miterlimit:3;stroke:#383838;stroke-opacity:0.701961" d="M29.7 14.8L31.05 14.75" />
<path style="fill:none;stroke-width:0.7;stroke-linecap:round;stroke-linejoin:round;stroke-miterlimit:3;stroke:#383838;stroke-opacity:0.701961" d="M34.4 25.9Q33.6 27.6 32.75 25.7L32.95 29.25" />
<path style="fill:none;stroke-width:0.7;stroke-linecap:round;stroke-linejoin:round;stroke-miterlimit:3;stroke:#383838;stroke-opacity:0.701961" d="M32.75 25.7L32.75 25.65L31.4 23.3L31.5 27.2L31.25 31L30.15 28.3L29.6 29.65L29.65 30" />
<path style="fill:none;stroke-width:0.7;stroke-linecap:round;stroke-linejoin:round;stroke-miterlimit:3;stroke:#383838;stroke-opacity:0.701961" d="M29.4 27.95L29.6 29.65" />
<path style="fill:none;stroke-width:0.7;stroke-linecap:round;stroke-linejoin:round;stroke-miterlimit:3;stroke:#383838;stroke-opacity:0.701961" d="M30.15 28.3L30.4 26.4" />
<path style="fill:none;stroke-width:0.7;stroke-linecap:round;stroke-linejoin:round;stroke-miterlimit:3;stroke:#383838;stroke-opacity:0.701961" d="M29.7 18.55Q27.1 29.3 29.4 27.95" />
<path style="fill:none;stroke-width:0.7;stroke-linecap:round;stroke-linejoin:round;stroke-miterlimit:3;stroke:#383838;stroke-opacity:0.701961" d="M31.15 18.55Q33.95 21.9 34.4 25.9" />
<path style="fill:none;stroke-width:0.7;stroke-linecap:round;stroke-linejoin:round;stroke-miterlimit:3;stroke:#383838;stroke-opacity:0.701961" d="M31.35 21.9Q32.3 23.55 32.75 25.65" />
</g>
</svg>
