<?xml version="1.0" encoding="utf-8"?>
<svg version="1.1" id="Layer_1"
xmlns="http://www.w3.org/2000/svg"
xmlns:xlink="http://www.w3.org/1999/xlink"
width="819px" height="407px"
xml:space="preserve">
<g id="PathID_657" transform="matrix(1, 0, 0, 1, 2, 7)">
<radialGradient
id="RadialGradID_267" gradientUnits="userSpaceOnUse" gradientTransform="matrix(0.56073, 0, 0, 0.341202, 371, 280.95)" spreadMethod ="pad" cx="0" cy="0" r="819.2" fx="0" fy="0" >
<stop  offset="0.309804"  style="stop-color:#16254E;stop-opacity:1" />
<stop  offset="1"  style="stop-color:#090D19;stop-opacity:1" />
</radialGradient>
<path style="fill:url(#RadialGradID_267) " d="M800 400L0 400L0 0L800 0L800 400" />
</g>
<g id="PathID_658" transform="matrix(1, 0, 0, 1, 2, 7)">
<path style="fill:#9DA6AF;fill-opacity:1" d="M189.7 86.65Q184.95 86.65 180.5 88.75L179.85 89.1Q178.6 87.25 176 85.6Q175.6 78.9 172.45 72.6Q168.65 65.05 164.25 65.05L162.45 65.15L161.85 65.45Q163.9 62.7 164.85 60.6Q166.25 57.4 166.25 53.6Q166.25 51.4 165.9 49.5Q170.5 52.85 174.7 57.05Q187.8 70.2 192.2 86.95L189.7 86.65" />
<radialGradient
id="RadialGradID_268" gradientUnits="userSpaceOnUse" gradientTransform="matrix(0.0923157, 0, 0, 0.0923157, 118.75, 92.9)" spreadMethod ="pad" cx="0" cy="0" r="819.2" fx="0" fy="0" >
<stop  offset="0"  style="stop-color:#DAE3EC;stop-opacity:1" />
<stop  offset="1"  style="stop-color:#8A9095;stop-opacity:1" />
</radialGradient>
<path style="fill:url(#RadialGradID_268) " d="M116.25 141Q105.3 132.95 89.3 130.6L88.35 130.8Q84.55 125.1 83.75 117.7L83.45 118.05Q80 123.65 77.9 125.75Q74.35 129.2 70 129.2L64.2 128.7Q60 117.5 60 104.6Q60 76.75 79.65 57.05Q99.35 37.4 127.15 37.4Q149 37.4 165.9 49.5Q166.25 51.4 166.25 53.6Q166.25 57.4 164.85 60.6Q163.9 62.7 161.85 65.45L162.45 65.15L164.25 65.05Q168.65 65.05 172.45 72.6Q175.6 78.9 176 85.6Q175.15 85.05 174.1 84.55L171.4 83.45L169.9 82.9Q162.35 85.25 162.35 98.2Q164.65 107.2 170.8 107.25Q176.9 107.3 179.2 102.2Q181.1 98.15 181.1 93Q181.1 90.9 179.85 89.1L180.5 88.75Q184.95 86.65 189.7 86.65L192.2 86.95Q194.35 95.3 194.35 104.6Q194.35 132.4 174.7 152.05Q165.7 161.05 155.1 165.9Q151.45 163.75 149.6 160Q148.6 161 147.65 161.2L145.3 161.25Q142.6 161.25 137.8 158.35Q132.25 154.9 132.25 151.25Q132.25 146.35 134.6 141.35L137.75 135.7L137.45 135.7Q136.05 137.5 129.9 140.1Q124.2 142.4 118.8 143L116.25 141M167.15 80L169.9 82.9L167.15 80M174.75 123.65Q172.3 122.65 169.35 122.65Q169 122.65 162.2 128L153.15 135.45Q148.75 139.25 146.85 142.4Q145.3 145 145.3 147.65Q145.3 152.65 147.25 154.45Q149.35 156.35 155.45 156.35Q165.9 156.35 172.85 144.9Q178.35 135.9 178.35 128.4Q178.35 125.15 174.75 123.65M173.95 111.4Q173.75 110.45 174.2 108.95L174.7 107.25L175 107.25L174.7 107.25L174.2 108.95Q173.75 110.45 173.95 111.4M147.8 49.2Q147.65 49.6 147.65 50.65L148.7 53.5Q150.6 56.2 154.8 56.2Q156.95 56.2 157.5 55.4L157.75 53.5Q157.6 52.1 156.55 50.7Q154.5 48.05 150.4 48.05Q148.4 48.05 147.8 49.2M116.9 57.75L116.05 57.2L121.65 56.9Q113.7 55.9 110 55.9Q107.75 55.9 104.45 56.8Q100.05 58 97.3 60.25Q92.15 64.05 90.35 68.35Q88.6 72.55 88.6 75.4L88.6 75.9L87.6 77.55Q88.7 82.15 93.05 83.85L92.9 85.2L96.9 84.5Q104.2 84.5 109.8 80.45L110.1 80.9Q111.8 78.95 113.6 76.9Q119.4 70.35 119.4 62.9Q119.4 59.55 116.9 57.75M88.2 64.65Q89.55 62.25 93.9 56.75L97.8 51.6Q97.8 49.75 94.35 51.6Q91.05 53.25 86.75 57.1Q75.6 66.95 75.6 73.65Q75.6 76 76 76.55Q76.5 77.2 78.85 77.2Q82.85 77.2 85.35 71.95Q86.75 69.15 88.2 64.65M87.6 77.55L88.6 75.9M97 92Q97.6 90.7 97.6 87.35Q97.6 90.7 97 92M92.9 85.2L93.05 83.85M118.85 96.75L119.75 96.95Q117.8 93.65 112.15 93.65Q110.35 93.65 108.95 95.8Q107.85 97.4 107.85 98.05L107.85 98.4L105.85 100.15Q108 101.1 111.15 102.2Q113.1 102.95 115.95 102.95Q117.55 102.95 118.4 101.6Q119.05 100.3 119.05 98.3L118.85 96.75M119.75 96.95L118.85 96.75M110.1 80.9L109.8 80.45M159.6 98.75L161.2 98.45L162.35 98.2L161.2 98.45L159.6 98.75M124.85 67.5L123.15 67.5L124.85 67.5M122.7 77.05L118.2 75.2L122.7 77.05M121.65 56.9L116.05 57.2M68.55 92.15Q66.75 95.45 66.75 99.95L67.45 104.8Q69.2 109.9 74 109.9Q78.5 109.9 78.5 103.35Q78.5 95.65 76.7 91.85Q75.1 88.5 72.6 88.8Q70.35 89.05 68.55 92.15M144.55 120.05Q141.15 119.6 141.15 123.5L141.2 124.9Q141.85 126.3 144.35 126.3Q147.9 126.3 147.9 123.35Q147.9 120.5 144.55 120.05M160.7 103.2Q161.05 102.75 161.75 102.6Q161.05 102.75 160.7 103.2M111.65 104.8L111.9 103.05L111.65 104.8M108.75 133.8L108.1 134.7L107.6 135.45L108.1 134.7L108.75 133.8M112.05 131.55Q111.75 131.55 111.2 132.3Q111.75 131.55 112.05 131.55M105.85 100.15L107.85 98.4" />
<linearGradient
id="LinearGradID_269" gradientUnits="userSpaceOnUse" gradientTransform="matrix(-0.0154266, 0.00889587, -0.00752258, -0.0130463, 181.8, 93.45)" spreadMethod ="pad" x1="-819.2" y1="0" x2="819.2" y2="0" >
<stop  offset="0" style="stop-color:#D8E0E7;stop-opacity:1" />
<stop  offset="1" style="stop-color:#A3ABB4;stop-opacity:1" />
</linearGradient>
<path style="fill:url(#LinearGradID_269) " d="M181.1 93Q181.1 98.15 179.2 102.2Q176.9 107.3 170.8 107.25Q164.65 107.2 162.35 98.2Q162.35 85.25 169.9 82.9L171.4 83.45L174.1 84.55Q175.15 85.05 176 85.6Q178.6 87.25 179.85 89.1Q181.1 90.9 181.1 93" />
<path style="fill:#8C9298;fill-opacity:1" d="M178.35 128.4Q178.35 135.9 172.85 144.9Q165.9 156.35 155.45 156.35Q149.35 156.35 147.25 154.45Q145.3 152.65 145.3 147.65Q145.3 145 146.85 142.4Q148.75 139.25 153.15 135.45L162.2 128Q169 122.65 169.35 122.65Q172.3 122.65 174.75 123.65Q178.35 125.15 178.35 128.4" />
<path style="fill:#D0D8E0;fill-opacity:1" d="M150.4 48.05Q154.5 48.05 156.55 50.7Q157.6 52.1 157.75 53.5L157.5 55.4Q156.95 56.2 154.8 56.2Q150.6 56.2 148.7 53.5L147.65 50.65Q147.65 49.6 147.8 49.2Q148.4 48.05 150.4 48.05" />
<linearGradient
id="LinearGradID_270" gradientUnits="userSpaceOnUse" gradientTransform="matrix(0.0118103, 0.00682068, -0.00871277, 0.0151062, 110, 72.7)" spreadMethod ="pad" x1="-819.2" y1="0" x2="819.2" y2="0" >
<stop  offset="0" style="stop-color:#B0BAC4;stop-opacity:1" />
<stop  offset="1" style="stop-color:#727F8C;stop-opacity:1" />
</linearGradient>
<path style="fill:url(#LinearGradID_270) " d="M119.4 62.9Q119.4 70.35 113.6 76.9Q111.8 78.95 109.8 80.45Q104.2 84.5 96.9 84.5L93.05 83.85Q88.7 82.15 88.6 75.9L88.6 75.4Q88.6 72.55 90.35 68.35Q92.15 64.05 97.3 60.25Q100.05 58 104.45 56.8Q107.75 55.9 110 55.9Q113.7 55.9 116.05 57.2L116.9 57.75Q119.4 59.55 119.4 62.9M99.9 80.3L98.05 80.95L96.5 81.45L98.05 80.95L99.9 80.3M102.4 67.5Q99.55 67.15 97.15 64.15Q99.55 67.15 102.4 67.5" />
<path style="fill:#CBD3DB;fill-opacity:1" d="M85.35 71.95Q82.85 77.2 78.85 77.2Q76.5 77.2 76 76.55Q75.6 76 75.6 73.65Q75.6 66.95 86.75 57.1Q91.05 53.25 94.35 51.6Q97.8 49.75 97.8 51.6L93.9 56.75Q89.55 62.25 88.2 64.65Q86.75 69.15 85.35 71.95" />
<path style="fill:#8D969F;fill-opacity:1" d="M119.05 98.3Q119.05 100.3 118.4 101.6Q117.55 102.95 115.95 102.95Q113.1 102.95 111.15 102.2Q108 101.1 107.85 98.4L107.85 98.05Q107.85 97.4 108.95 95.8Q110.35 93.65 112.15 93.65Q117.8 93.65 118.85 96.75L119.05 98.3" />
<path style="fill:#959BA1;fill-opacity:1" d="M72.6 88.8Q75.1 88.5 76.7 91.85Q78.5 95.65 78.5 103.35Q78.5 109.9 74 109.9Q69.2 109.9 67.45 104.8L66.75 99.95Q66.75 95.45 68.55 92.15Q70.35 89.05 72.6 88.8" />
<path style="fill:#A2ADB8;fill-opacity:1" d="M70 129.2Q74.35 129.2 77.9 125.75Q80 123.65 83.45 118.05L83.75 117.7Q84.55 125.1 88.35 130.8Q87.55 131 86.3 131.65L85.25 132.15L85.05 135.3Q85.4 139.05 88.45 142Q96.5 149.8 102.4 151.55Q113.75 155.1 120.65 154.2Q124.1 153.8 125.25 152.6L123.65 149.3Q121.5 145.45 118.8 143Q124.2 142.4 129.9 140.1Q136.05 137.5 137.45 135.7L137.75 135.7L134.6 141.35Q132.25 146.35 132.25 151.25Q132.25 154.9 137.8 158.35Q142.6 161.25 145.3 161.25L147.65 161.2Q148.6 161 149.6 160Q151.45 163.75 155.1 165.9Q142.35 171.8 127.15 171.8Q99.35 171.8 79.65 152.05Q69.15 141.6 64.2 128.7L70 129.2" />
<path style="fill:#97A1AA;fill-opacity:1" d="M147.9 123.35Q147.9 126.3 144.35 126.3Q141.85 126.3 141.2 124.9L141.15 123.5Q141.15 119.6 144.55 120.05Q147.9 120.5 147.9 123.35" />
<linearGradient
id="LinearGradID_271" gradientUnits="userSpaceOnUse" gradientTransform="matrix(0.00335693, -0.0125122, 0.0144806, 0.00387573, 106.55, 138.35)" spreadMethod ="pad" x1="-819.2" y1="0" x2="819.2" y2="0" >
<stop  offset="0" style="stop-color:#8F9AA6;stop-opacity:1" />
<stop  offset="1" style="stop-color:#6E7883;stop-opacity:1" />
</linearGradient>
<path style="fill:url(#LinearGradID_271) " d="M118.8 143Q121.5 145.45 123.65 149.3L125.25 152.6Q124.1 153.8 120.65 154.2Q113.75 155.1 102.4 151.55Q96.5 149.8 88.45 142Q85.4 139.05 85.05 135.3L85.25 132.15L86.3 131.65Q87.55 131 88.35 130.8L89.3 130.6Q105.3 132.95 116.25 141L118.8 143" />
<path style="fill:none;stroke-width:0.7;stroke-linecap:round;stroke-linejoin:round;stroke-miterlimit:3;stroke:#000000;stroke-opacity:0.14902" d="M192.2 86.95Q187.8 70.2 174.7 57.05Q170.5 52.85 165.9 49.5" />
<path style="fill:none;stroke-width:0.7;stroke-linecap:round;stroke-linejoin:round;stroke-miterlimit:3;stroke:#000000;stroke-opacity:0.14902" d="M176 85.6Q178.6 87.25 179.85 89.1" />
<path style="fill:none;stroke-width:0.7;stroke-linecap:round;stroke-linejoin:round;stroke-miterlimit:3;stroke:#000000;stroke-opacity:0.14902" d="M192.2 86.95Q194.35 95.3 194.35 104.6Q194.35 132.4 174.7 152.05Q165.7 161.05 155.1 165.9Q142.35 171.8 127.15 171.8Q99.35 171.8 79.65 152.05Q69.15 141.6 64.2 128.7Q60 117.5 60 104.6Q60 76.75 79.65 57.05Q99.35 37.4 127.15 37.4Q149 37.4 165.9 49.5" />
<path style="fill:none;stroke-width:0.7;stroke-linecap:round;stroke-linejoin:round;stroke-miterlimit:3;stroke:#000000;stroke-opacity:0.14902" d="M176 85.6Q175.15 85.05 174.1 84.55L171.4 83.45L169.9 82.9Q162.35 85.25 162.35 98.2Q164.65 107.2 170.8 107.25Q176.9 107.3 179.2 102.2Q181.1 98.15 181.1 93Q181.1 90.9 179.85 89.1" />
<path style="fill:none;stroke-width:0.7;stroke-linecap:round;stroke-linejoin:round;stroke-miterlimit:3;stroke:#000000;stroke-opacity:0.14902" d="M169.9 82.9L167.15 80" />
<path style="fill:none;stroke-width:0.7;stroke-linecap:round;stroke-linejoin:round;stroke-miterlimit:3;stroke:#000000;stroke-opacity:0.14902" d="M175 107.25L174.7 107.25L174.2 108.95Q173.75 110.45 173.95 111.4" />
<path style="fill:none;stroke-width:0.7;stroke-linecap:round;stroke-linejoin:round;stroke-miterlimit:3;stroke:#000000;stroke-opacity:0.14902" d="M116.9 57.75L116.05 57.2Q113.7 55.9 110 55.9Q107.75 55.9 104.45 56.8Q100.05 58 97.3 60.25Q92.15 64.05 90.35 68.35Q88.6 72.55 88.6 75.4L88.6 75.9Q88.7 82.15 93.05 83.85L96.9 84.5Q104.2 84.5 109.8 80.45Q111.8 78.95 113.6 76.9Q119.4 70.35 119.4 62.9Q119.4 59.55 116.9 57.75z" />
<path style="fill:none;stroke-width:0.7;stroke-linecap:round;stroke-linejoin:round;stroke-miterlimit:3;stroke:#000000;stroke-opacity:0.14902" d="M88.6 75.9L87.6 77.55" />
<path style="fill:none;stroke-width:0.7;stroke-linecap:round;stroke-linejoin:round;stroke-miterlimit:3;stroke:#000000;stroke-opacity:0.14902" d="M97.6 87.35Q97.6 90.7 97 92" />
<path style="fill:none;stroke-width:0.7;stroke-linecap:round;stroke-linejoin:round;stroke-miterlimit:3;stroke:#000000;stroke-opacity:0.14902" d="M93.05 83.85L92.9 85.2" />
<path style="fill:none;stroke-width:0.7;stroke-linecap:round;stroke-linejoin:round;stroke-miterlimit:3;stroke:#000000;stroke-opacity:0.14902" d="M96.5 81.45L98.05 80.95L99.9 80.3" />
<path style="fill:none;stroke-width:0.7;stroke-linecap:round;stroke-linejoin:round;stroke-miterlimit:3;stroke:#000000;stroke-opacity:0.14902" d="M118.85 96.75Q117.8 93.65 112.15 93.65Q110.35 93.65 108.95 95.8Q107.85 97.4 107.85 98.05L107.85 98.4Q108 101.1 111.15 102.2Q113.1 102.95 115.95 102.95Q117.55 102.95 118.4 101.6Q119.05 100.3 119.05 98.3L118.85 96.75L119.75 96.95" />
<path style="fill:none;stroke-width:0.7;stroke-linecap:round;stroke-linejoin:round;stroke-miterlimit:3;stroke:#000000;stroke-opacity:0.14902" d="M109.8 80.45L110.1 80.9" />
<path style="fill:none;stroke-width:0.7;stroke-linecap:round;stroke-linejoin:round;stroke-miterlimit:3;stroke:#000000;stroke-opacity:0.14902" d="M97.15 64.15Q99.55 67.15 102.4 67.5" />
<path style="fill:none;stroke-width:0.7;stroke-linecap:round;stroke-linejoin:round;stroke-miterlimit:3;stroke:#000000;stroke-opacity:0.14902" d="M162.35 98.2L161.2 98.45L159.6 98.75" />
<path style="fill:none;stroke-width:0.7;stroke-linecap:round;stroke-linejoin:round;stroke-miterlimit:3;stroke:#000000;stroke-opacity:0.14902" d="M123.15 67.5L124.85 67.5" />
<path style="fill:none;stroke-width:0.7;stroke-linecap:round;stroke-linejoin:round;stroke-miterlimit:3;stroke:#000000;stroke-opacity:0.14902" d="M118.2 75.2L122.7 77.05" />
<path style="fill:none;stroke-width:0.7;stroke-linecap:round;stroke-linejoin:round;stroke-miterlimit:3;stroke:#000000;stroke-opacity:0.14902" d="M116.05 57.2L121.65 56.9" />
<path style="fill:none;stroke-width:0.7;stroke-linecap:round;stroke-linejoin:round;stroke-miterlimit:3;stroke:#000000;stroke-opacity:0.14902" d="M161.75 102.6Q161.05 102.75 160.7 103.2" />
<path style="fill:none;stroke-width:0.7;stroke-linecap:round;stroke-linejoin:round;stroke-miterlimit:3;stroke:#000000;stroke-opacity:0.14902" d="M118.8 143Q121.5 145.45 123.65 149.3L125.25 152.6Q124.1 153.8 120.65 154.2Q113.75 155.1 102.4 151.55Q96.5 149.8 88.45 142Q85.4 139.05 85.05 135.3L85.25 132.15L86.3 131.65Q87.55 131 88.35 130.8L89.3 130.6Q105.3 132.95 116.25 141L118.8 143z" />
<path style="fill:none;stroke-width:0.7;stroke-linecap:round;stroke-linejoin:round;stroke-miterlimit:3;stroke:#000000;stroke-opacity:0.14902" d="M111.9 103.05L111.65 104.8" />
<path style="fill:none;stroke-width:0.7;stroke-linecap:round;stroke-linejoin:round;stroke-miterlimit:3;stroke:#000000;stroke-opacity:0.14902" d="M107.6 135.45L108.1 134.7L108.75 133.8" />
<path style="fill:none;stroke-width:0.7;stroke-linecap:round;stroke-linejoin:round;stroke-miterlimit:3;stroke:#000000;stroke-opacity:0.14902" d="M111.2 132.3Q111.75 131.55 112.05 131.55" />
<path style="fill:none;stroke-width:0.7;stroke-linecap:round;stroke-linejoin:round;stroke-miterlimit:3;stroke:#000000;stroke-opacity:0.14902" d="M107.85 98.4L105.85 100.15" />
</g>
<g id="PathID_659" transform="matrix(1, 0, 0, 1, 2, 7)">
<radialGradient
id="RadialGradID_272" gradientUnits="userSpaceOnUse" gradientTransform="matrix(0.155655, 0, 0, 0.151276, 131.2, 102.9)" spreadMethod ="pad" cx="0" cy="0" r="819.2" fx="0" fy="0" >
<stop  offset="0"  style="stop-color:#CFD7E0;stop-opacity:0.470588" />
<stop  offset="0.0901961"  style="stop-color:#CFD7E0;stop-opacity:0.439216" />
<stop  offset="0.780392"  style="stop-color:#CDD5DE;stop-opacity:0" />
</radialGradient>
<path style="fill:url(#RadialGradID_272) " d="M209.55 179Q177.1 210.55 131.2 210.55Q85.3 210.55 52.85 179Q20.4 147.5 20.4 102.9Q20.4 58.3 52.85 26.75Q85.3 -4.8 131.2 -4.8Q177.1 -4.8 209.55 26.75Q242 58.3 242 102.9Q242 147.5 209.55 179" />
</g>
<g id="PathID_660" transform="matrix(1, 0, 0, 1, 2, 7)">
</g>
<g id="PathID_661" transform="matrix(1, 0, 0, 1, 2, 7)">
<path style="fill:#FFFFFF;fill-opacity:1" d="M82.5 -6.2Q82.15 -6.55 82.7 -6.9Q83.25 -7.2 83.45 -6.7Q83.65 -6.2 83.25 -6Q82.85 -5.8 82.5 -6.2M147.9 -0.05Q148.05 0.3 147.65 0.6Q147.3 0.9 147.05 0.45Q146.85 0 147.25 -0.2L147.9 -0.05M237.65 -3.65Q237.35 -3.95 237.8 -4.2Q238.25 -4.45 238.4 -4.05Q238.55 -3.65 238.25 -3.45Q237.9 -3.3 237.65 -3.65M211.2 -2.9Q211 -3.3 211.4 -3.45Q211.75 -3.65 211.9 -3.3Q212.1 -3 211.75 -2.75Q211.4 -2.5 211.2 -2.9M296.15 -2.95Q295.95 -3.35 296.35 -3.55Q296.75 -3.75 297 -3.35Q297.2 -3 296.8 -2.75Q296.4 -2.55 296.15 -2.95M401.25 -6Q401 -6.45 401.5 -6.7Q402 -6.95 402.25 -6.5Q402.55 -6 402.05 -5.75Q401.55 -5.5 401.25 -6M409.6 -6.25Q409.4 -6.65 409.8 -6.85Q410.2 -7.05 410.45 -6.65Q410.65 -6.3 410.25 -6.05Q409.85 -5.85 409.6 -6.25M483.95 -4.45Q483.65 -5.05 484.25 -5.4Q484.85 -5.75 485.15 -5.15Q485.5 -4.55 484.85 -4.2Q484.2 -3.85 483.95 -4.45M540.1 -0.35Q539.9 -0.85 540.35 -1.1Q540.8 -1.35 541.05 -0.9Q541.25 -0.45 540.8 -0.2Q540.3 0.1 540.1 -0.35M593.15 -0.25Q593 -0.55 593.3 -0.75L593.8 -0.6Q593.95 -0.3 593.6 -0.1Q593.25 0.1 593.15 -0.25M578.4 -4.4Q578.1 -4.85 578.6 -5.05L579.4 -4.9Q579.7 -4.5 579.2 -4.25Q578.65 -3.95 578.4 -4.4M650.35 -3.5Q650.15 -4 650.65 -4.3Q651.15 -4.6 651.4 -4.1Q651.7 -3.55 651.15 -3.25Q650.6 -2.95 650.35 -3.5M721.65 -3.9Q721.35 -4.3 721.75 -4.4L722.4 -4.2Q722.6 -3.85 722.3 -3.7Q721.95 -3.55 721.65 -3.9M756.45 -5.65Q756.15 -6.05 756.6 -6.2Q757 -6.3 757.25 -5.95Q757.5 -5.6 757.15 -5.4Q756.8 -5.25 756.45 -5.65M814.45 35.2Q814.25 34.85 814.6 34.6Q814.95 34.4 815.15 34.7Q815.35 35 815 35.25L814.45 35.2M816.35 30.8Q816.15 30.55 816.5 30.4L816.95 30.5Q817.1 30.75 816.85 30.9L816.35 30.8M769.5 18.9Q769.3 18.4 769.75 18.15Q770.2 17.9 770.45 18.35Q770.65 18.8 770.2 19.05Q769.7 19.35 769.5 18.9M788.45 32.1Q788.2 31.65 788.6 31.5Q788.95 31.4 789.15 31.8Q789.4 32.2 789.05 32.35Q788.7 32.55 788.45 32.1M770.2 28.1Q770.4 28.5 769.95 28.75Q769.55 29 769.35 28.55Q769.15 28.15 769.55 27.9Q770 27.65 770.2 28.1M772.6 35.35Q772.45 35.1 772.75 35L773.1 35.1L773 35.4L772.6 35.35M782.4 39.7Q782.15 39.85 782 39.6Q781.9 39.4 782.2 39.25L782.6 39.35L782.4 39.7M780.75 48Q780.55 47.6 780.9 47.35L781.55 47.45Q781.8 47.8 781.4 48.1Q780.95 48.45 780.75 48M804.05 41.95Q803.85 41.6 804.35 41.35L805.05 41.45Q805.25 41.85 804.75 42.1Q804.3 42.3 804.05 41.95M797.25 40.3L796.7 40.2Q796.55 39.95 796.95 39.75L797.5 39.8Q797.65 40.1 797.25 40.3M764.25 1.7Q764.05 1.4 764.45 1.25L765 1.35Q765.2 1.65 764.85 1.85Q764.45 2.05 764.25 1.7M739.85 8.55Q739.45 8 740 7.85Q740.6 7.7 740.9 8.15Q741.25 8.6 740.75 8.85Q740.3 9.05 739.85 8.55M746.85 11.8Q747.05 12.2 746.7 12.4Q746.3 12.6 746.15 12.25Q746 11.85 746.35 11.65Q746.7 11.45 746.85 11.8M736.75 9.75Q736.25 10 736 9.55Q735.75 9.1 736.2 8.85Q736.7 8.6 736.95 9.05Q737.2 9.5 736.75 9.75M729.6 18.1Q729.8 18.45 729.45 18.65Q729.05 18.85 728.85 18.5Q728.65 18.15 729 17.95Q729.4 17.75 729.6 18.1M731.25 23.9Q730.95 24.05 730.65 23.7Q730.4 23.4 730.75 23.3Q731.15 23.15 731.35 23.45Q731.55 23.75 731.25 23.9M743.4 30.25Q743.25 30 743.5 29.85Q743.8 29.7 743.95 30Q744.1 30.25 743.85 30.4Q743.55 30.55 743.4 30.25M731.15 28.15Q730.85 27.75 731.3 27.6Q731.7 27.5 731.95 27.85Q732.2 28.2 731.85 28.4Q731.5 28.55 731.15 28.15M747.15 42.4Q746.75 42.6 746.55 42.25Q746.35 41.9 746.7 41.7Q747.1 41.5 747.3 41.85Q747.5 42.2 747.15 42.4M767.8 32.55Q767.5 32.15 767.9 32.05Q768.3 31.95 768.55 32.25Q768.75 32.6 768.45 32.75Q768.1 32.9 767.8 32.55M760.95 26.55Q760.55 26.75 760.35 26.4Q760.15 26.05 760.5 25.85Q760.9 25.65 761.1 26Q761.3 26.35 760.95 26.55M757.25 41.75Q756.95 41.25 757.5 41.05Q758.05 40.85 758.35 41.25Q758.65 41.65 758.1 41.95Q757.55 42.25 757.25 41.75M756.4 54.25Q756.1 53.75 756.65 53.55Q757.2 53.35 757.5 53.75Q757.8 54.15 757.25 54.45Q756.7 54.75 756.4 54.25M769.45 54.9L769.95 54.95L769.8 55.3L769.35 55.25Q769.15 55 769.45 54.9M732.15 60.55Q731.7 60.1 732.2 59.7Q732.7 59.25 733.1 59.8Q733.55 60.35 733.1 60.7Q732.65 61 732.15 60.55M744.15 88.45Q743.75 87.9 744.45 87.65Q745.15 87.4 745.55 87.8Q745.9 88.25 745.25 88.6Q744.55 88.95 744.15 88.45M762.2 76.75Q761.8 76.35 762.25 76L763 76.1Q763.35 76.55 762.95 76.85Q762.6 77.1 762.2 76.75M751.55 79.2Q751.3 78.75 751.7 78.45Q752.15 78.2 752.35 78.6Q752.6 79.05 752.2 79.35Q751.75 79.7 751.55 79.2M757.25 79.05Q757.1 78.8 757.3 78.65L757.7 78.75Q757.85 79 757.65 79.15L757.25 79.05M781.75 52.45Q781.55 52.15 781.85 51.95L782.35 52Q782.55 52.3 782.25 52.55Q781.9 52.8 781.75 52.45M771.4 57.85Q771.05 57.5 771.4 57.2Q771.8 56.85 772.1 57.3Q772.45 57.7 772.1 57.95L771.4 57.85M785.1 72.9Q784.75 72.35 785.25 72.15Q785.7 72 786 72.5Q786.3 73.05 785.85 73.25Q785.4 73.5 785.1 72.9M724.25 21.75Q723.9 21.95 723.8 21.6Q723.65 21.3 723.95 21.1Q724.25 20.95 724.45 21.25Q724.6 21.55 724.25 21.75M701.8 31.6L701.45 31.5Q701.3 31.25 701.55 31.15L701.95 31.25L701.8 31.6M688.65 30.1Q688.4 29.7 688.85 29.5Q689.25 29.25 689.5 29.7Q689.75 30.1 689.3 30.3Q688.9 30.55 688.65 30.1M689.1 27.75L688.95 28.15Q688.65 28.3 688.45 28Q688.3 27.75 688.6 27.65L689.1 27.75M698.35 43.5Q698.8 43.2 699.05 43.7Q699.3 44.15 698.8 44.45Q698.3 44.75 698.1 44.25Q697.9 43.75 698.35 43.5M712.25 43.05Q711.95 42.55 712.45 42.25Q713 42 713.3 42.5Q713.6 43 713.05 43.25Q712.55 43.55 712.25 43.05M712.6 39.7Q711.95 40.05 711.65 39.5Q711.35 38.95 711.95 38.7Q712.55 38.45 712.9 38.9Q713.2 39.35 712.6 39.7M720.85 38.9Q720.6 38.5 721 38.35Q721.4 38.2 721.65 38.5Q721.9 38.8 721.45 39Q721.05 39.25 720.85 38.9M684.9 11.7Q684.8 11.4 685.05 11.25L685.5 11.35L685.35 11.8Q685.05 12 684.9 11.7M672.55 1.5Q672.3 1.2 672.65 1.1Q673.05 0.95 673.25 1.25Q673.45 1.55 673.15 1.7Q672.85 1.85 672.55 1.5M668.4 18.05Q667.9 18.3 667.65 17.85Q667.4 17.45 667.9 17.25Q668.35 17.05 668.65 17.4Q668.9 17.75 668.4 18.05M676.45 13.75Q676.2 13.35 676.65 13.2Q677.1 13 677.35 13.35Q677.6 13.65 677.15 13.9L676.45 13.75M683.15 20.5Q682.85 20.65 682.55 20.3Q682.3 20 682.65 19.9Q683.05 19.75 683.25 20.05Q683.45 20.35 683.15 20.5M663.25 13.6Q663.1 13.2 663.5 13Q663.85 12.75 664.05 13.15Q664.25 13.55 663.85 13.75Q663.45 14 663.25 13.6M667.35 21.9Q667.1 21.6 667.45 21.5Q667.75 21.4 667.95 21.7Q668.15 21.95 667.85 22.1Q667.6 22.2 667.35 21.9M653.45 33.25Q653.35 33.05 653.55 32.9L653.9 33L653.8 33.35L653.45 33.25M653.1 28.35Q652.65 28.6 652.4 28.2Q652.15 27.8 652.6 27.65Q653.05 27.45 653.3 27.8Q653.55 28.1 653.1 28.35M654.55 46.55Q654.35 46.15 654.75 45.95Q655.15 45.75 655.4 46.15Q655.6 46.5 655.2 46.75Q654.8 46.95 654.55 46.55M657.6 38.4Q657.2 38.65 656.95 38.2Q656.7 37.8 657.15 37.6Q657.55 37.35 657.8 37.8Q658.05 38.2 657.6 38.4M668.35 30.6Q668.2 30.2 668.55 30Q668.9 29.8 669.05 30.15Q669.25 30.55 668.9 30.75Q668.5 30.95 668.35 30.6M683.35 34.3Q683 34.45 682.65 34.05Q682.35 33.65 682.8 33.5Q683.2 33.4 683.45 33.75Q683.7 34.1 683.35 34.3M684.25 54.3Q683.9 53.95 684.25 53.65Q684.65 53.3 684.95 53.75Q685.3 54.15 684.95 54.4L684.25 54.3M683.6 54.7Q683.2 55 682.9 54.5Q682.55 54.05 683 53.8Q683.4 53.5 683.75 53.95Q684.05 54.4 683.6 54.7M687 60.75Q686.7 60.35 687.15 60.2Q687.55 60.1 687.8 60.45Q688.05 60.8 687.7 61Q687.35 61.15 687 60.75M655.05 62.5Q654.75 62.1 655.25 61.9Q655.75 61.7 656.05 62.05Q656.3 62.35 655.85 62.6L655.05 62.5M655.95 73.05Q655.65 72.6 656 72.4Q656.4 72.15 656.65 72.55Q656.95 72.95 656.55 73.2Q656.2 73.45 655.95 73.05M659.95 82.45Q659.55 81.9 660.2 81.65Q660.9 81.45 661.25 81.85Q661.6 82.25 660.95 82.6Q660.35 82.95 659.95 82.45M663.2 84.8Q662.9 84.2 663.45 83.8Q664.05 83.45 664.35 84Q664.65 84.6 664.1 85.05Q663.55 85.45 663.2 84.8M653.7 80.25L652.9 80.15Q652.45 79.75 652.9 79.4Q653.35 79 653.7 79.5Q654.1 80 653.7 80.25M649.05 77.5Q648.65 77.1 649.1 76.75L649.85 76.85Q650.2 77.3 649.8 77.6L649.05 77.5M650.55 82.25Q650.1 82.6 649.8 82.05Q649.55 81.5 650 81.2Q650.5 80.9 650.75 81.4Q651 81.85 650.55 82.25M654.45 84.65Q654.1 84.2 654.65 84Q655.25 83.75 655.55 84.15Q655.9 84.5 655.3 84.8Q654.75 85.1 654.45 84.65M652.4 93.3Q651.95 93.65 651.6 93.1Q651.2 92.55 651.7 92.25Q652.2 91.95 652.55 92.5Q652.9 93 652.4 93.3M681.2 83.5Q680.85 83.05 681.4 82.85Q682 82.6 682.3 83Q682.65 83.35 682.05 83.65Q681.5 83.95 681.2 83.5M681.25 80.65Q680.85 80.95 680.55 80.45Q680.2 80 680.65 79.75Q681.05 79.45 681.4 79.9Q681.7 80.35 681.25 80.65M721.3 73.75Q721 73.3 721.35 73.1Q721.75 72.85 722 73.25Q722.3 73.65 721.9 73.9Q721.55 74.15 721.3 73.75M722.6 69.35L721.8 69.25Q721.5 68.85 722 68.65Q722.5 68.45 722.8 68.8Q723.05 69.1 722.6 69.35M707.05 61.15Q707.4 60.9 707.65 61.3Q707.85 61.7 707.45 62Q707.1 62.3 706.85 61.85Q706.65 61.4 707.05 61.15M697.55 51.65Q697.15 51.85 697 51.5Q696.85 51.1 697.2 50.9Q697.55 50.7 697.7 51.05Q697.9 51.45 697.55 51.65M693.35 59.55Q693.75 59.4 694 59.7Q694.25 60 693.8 60.2Q693.4 60.45 693.2 60.1Q692.95 59.7 693.35 59.55M694.45 57.7Q693.95 58 693.75 57.5Q693.55 57 694 56.75Q694.45 56.45 694.7 56.95Q694.95 57.4 694.45 57.7M696.45 59.7Q695.95 60.05 695.4 59.55Q694.9 59.05 695.45 58.6Q696 58.1 696.45 58.75Q696.95 59.35 696.45 59.7M692.75 81L692.2 80.9Q692 80.65 692.35 80.5L692.9 80.6Q693.1 80.8 692.75 81M693.4 80.4Q692.9 80.8 692.6 80.25Q692.35 79.65 692.85 79.35Q693.35 79 693.65 79.5Q693.9 80 693.4 80.4M693.8 95.55Q693.65 95.3 693.85 95.15Q694.1 95 694.25 95.25L694.2 95.65Q693.95 95.8 693.8 95.55M713.6 84.2L714.2 84.3Q714.45 84.7 714.1 84.9Q713.75 85.15 713.5 84.75Q713.25 84.4 713.6 84.2M715.5 84.65Q716 84.25 716.4 84.8Q716.8 85.3 716.35 85.6L715.5 85.5Q715.05 85.05 715.5 84.65M718.1 85.85L717.4 85.7Q717.1 85.35 717.6 85.2L718.3 85.3Q718.55 85.6 718.1 85.85M720.95 98.9Q721.15 99.3 720.75 99.6Q720.4 99.9 720.15 99.45Q719.95 99 720.35 98.75Q720.7 98.5 720.95 98.9M708.9 114.65Q708.2 115 707.8 114.5Q707.4 113.95 708.1 113.7L709.2 113.85Q709.55 114.3 708.9 114.65M702.6 104.1Q702.25 104.35 702 103.95Q701.75 103.55 702.2 103.25Q702.65 102.9 702.8 103.4Q702.95 103.85 702.6 104.1M694.4 101Q694.2 100.55 694.6 100.3Q694.95 100.05 695.2 100.45Q695.4 100.85 695 101.15Q694.65 101.45 694.4 101M698.2 117.1L697.3 117Q696.95 116.5 697.5 116.05Q698.05 115.6 698.4 116.15Q698.8 116.75 698.2 117.1M699.35 114.65Q699 114.35 699.35 114.05L700 114.15Q700.3 114.55 699.95 114.75L699.35 114.65M690.2 133.85Q689.95 133.45 690.3 133.2Q690.7 132.9 690.95 133.35Q691.25 133.75 690.85 134Q690.5 134.25 690.2 133.85M693.05 132.4Q692.7 131.9 693.15 131.6Q693.6 131.25 694 131.75Q694.4 132.2 693.9 132.55Q693.4 132.95 693.05 132.4M699.05 146.65Q698.8 146.25 699.15 146Q699.45 145.75 699.8 146.15Q700.1 146.5 699.7 146.75Q699.35 147.05 699.05 146.65M711.55 144.1Q711.25 143.7 711.6 143.45Q712 143.15 712.3 143.55Q712.65 143.95 712.25 144.25Q711.85 144.55 711.55 144.1M648.35 111.1Q648.1 110.55 648.55 110.25Q649.05 109.95 649.3 110.45Q649.55 110.9 649.1 111.3Q648.65 111.65 648.35 111.1M648.8 123.15Q648.5 122.7 648.9 122.4Q649.3 122.1 649.6 122.55Q649.9 123 649.5 123.3Q649.1 123.55 648.8 123.15M661.75 144.2Q661.5 143.65 661.95 143.45L662.65 143.55Q662.95 143.9 662.45 144.35Q662 144.8 661.75 144.2M658.1 135.05Q657.75 135.35 657.45 134.95Q657.2 134.55 657.55 134.3Q657.85 134.05 658.2 134.45Q658.5 134.8 658.1 135.05M676.25 133.1Q675.95 132.65 676.35 132.3Q676.8 132 677.1 132.5Q677.45 133 677 133.3Q676.6 133.55 676.25 133.1M676.75 141.35Q676.5 140.95 676.9 140.6Q677.35 140.25 677.65 140.7Q677.95 141.15 677.5 141.45Q677.05 141.7 676.75 141.35M684.4 145.25Q684.15 144.85 684.55 144.5Q685 144.15 685.3 144.6Q685.6 145.05 685.15 145.35L684.4 145.25M682.8 144.8Q682.4 145.1 682.1 144.65Q681.8 144.2 682.35 143.85Q682.85 143.45 683 144Q683.2 144.55 682.8 144.8M658.05 167.6Q657.85 167.3 658.15 167.05L658.75 167.1Q659 167.45 658.65 167.7Q658.25 167.95 658.05 167.6M660.5 166.6Q660.15 166.1 660.8 165.65Q661.4 165.2 661.6 165.85Q661.8 166.5 661.35 166.8Q660.85 167.15 660.5 166.6M689.25 160.15Q689.4 160.6 689.05 160.85Q688.7 161.1 688.45 160.7Q688.2 160.3 688.65 160Q689.1 159.65 689.25 160.15M696.65 158.95Q696.2 158.3 696.8 157.85Q697.4 157.45 697.8 158.1Q698.25 158.75 697.65 159.15Q697.1 159.55 696.65 158.95M698.2 164.55L697.6 164.45Q697.35 164.05 697.7 163.8Q698.05 163.55 698.3 163.95Q698.5 164.35 698.2 164.55M695.65 173.7L695.2 173.65Q695 173.45 695.3 173.2L695.7 173.25Q695.9 173.55 695.65 173.7M733.45 100.95Q733.25 100.75 733.5 100.65L733.8 100.7L733.75 101.05Q733.6 101.2 733.45 100.95M740.1 105.25Q739.85 104.8 740.25 104.5Q740.7 104.25 740.9 104.65Q741.15 105.1 740.75 105.4Q740.3 105.75 740.1 105.25M628.25 21.3Q627.75 21.55 627.5 21.1Q627.25 20.65 627.7 20.4Q628.2 20.15 628.45 20.6Q628.7 21.05 628.25 21.3M640.6 16.85Q640.05 17.15 639.7 16.6Q639.4 16.05 639.95 15.8Q640.5 15.5 640.8 16.05Q641.15 16.55 640.6 16.85M619.05 3.2Q618.7 3.35 618.4 3Q618.1 2.6 618.5 2.5Q618.9 2.4 619.15 2.7Q619.35 3.05 619.05 3.2M617.2 12.1Q617.35 12.3 617.1 12.4L616.75 12.35Q616.6 12.1 616.85 12.05L617.2 12.1M618.8 23.4Q618.4 23.6 618 23.1Q617.65 22.65 618.15 22.5Q618.65 22.35 618.95 22.75Q619.25 23.2 618.8 23.4M618.65 25.25Q618.35 24.8 618.85 24.6Q619.4 24.4 619.65 24.75Q619.95 25.15 619.45 25.4Q618.9 25.7 618.65 25.25M624.7 28.2Q624.5 27.8 624.9 27.55Q625.35 27.3 625.55 27.75Q625.75 28.15 625.3 28.4Q624.9 28.65 624.7 28.2M616.5 28.3Q616.35 28.05 616.65 27.95Q616.9 27.85 617.05 28.05L616.9 28.4Q616.65 28.55 616.5 28.3M607.55 29.45Q607.35 29.15 607.7 28.95Q608.05 28.8 608.2 29.1Q608.4 29.45 608.05 29.6Q607.75 29.8 607.55 29.45M608.8 28.25Q608.55 27.85 609 27.7Q609.45 27.5 609.7 27.85Q609.95 28.15 609.5 28.4L608.8 28.25M627.35 47.85Q627.75 47.6 628 48Q628.3 48.4 627.9 48.65Q627.55 48.9 627.3 48.5Q627 48.05 627.35 47.85M637.2 46.75Q637 46.25 637.45 46Q637.9 45.75 638.15 46.2Q638.35 46.65 637.9 46.9Q637.4 47.2 637.2 46.75M592.2 9Q591.85 8.55 592.35 8.4Q592.85 8.25 593.15 8.65Q593.45 9.1 593 9.3Q592.6 9.5 592.2 9M585.95 27.55Q585.6 27.15 586.05 27Q586.55 26.85 586.8 27.25Q587.1 27.6 586.7 27.8Q586.3 28 585.95 27.55M577.9 26.7Q577.65 26.4 578 26.3Q578.4 26.15 578.6 26.45Q578.8 26.75 578.5 26.9Q578.2 27.05 577.9 26.7M581.8 26.05Q581.4 26.3 581.2 25.85Q581 25.45 581.4 25.2Q581.85 24.95 582.05 25.4Q582.25 25.8 581.8 26.05M585.85 40.8Q585.6 40.2 586.15 39.9Q586.75 39.55 587.05 40.15Q587.35 40.7 586.75 41.05Q586.1 41.4 585.85 40.8M601.4 28.9Q601.2 28.4 601.65 28.15Q602.1 27.9 602.35 28.35Q602.55 28.8 602.1 29.05Q601.6 29.35 601.4 28.9M607.05 31.85Q606.5 32.15 606.2 31.65Q605.9 31.15 606.45 30.95Q607 30.75 607.3 31.15Q607.6 31.55 607.05 31.85M596.2 50.6Q596.05 50.2 596.45 50Q596.8 49.75 597 50.15Q597.2 50.55 596.8 50.75Q596.4 51 596.2 50.6M600.8 49.8Q600.65 49.55 600.9 49.4Q601.2 49.25 601.35 49.55Q601.5 49.8 601.25 49.95Q600.95 50.1 600.8 49.8M568.85 53.15Q568.55 52.6 569.1 52.35Q569.65 52.05 569.95 52.6Q570.3 53.1 569.75 53.4Q569.2 53.7 568.85 53.15M567.3 61.5Q567.1 61.05 567.5 60.8Q567.85 60.55 568.1 60.95Q568.3 61.35 567.9 61.65Q567.55 61.95 567.3 61.5M567.15 59.7Q566.9 59.9 566.75 59.6Q566.55 59.35 566.8 59.15Q567.05 59 567.25 59.3Q567.4 59.55 567.15 59.7M568.35 93.7Q568.05 93.3 568.55 93.1Q569.05 92.9 569.35 93.25Q569.6 93.55 569.15 93.8L568.35 93.7M577.1 81.25Q576.75 81.5 576.5 81.1Q576.2 80.65 576.55 80.45Q576.95 80.2 577.2 80.6Q577.5 81 577.1 81.25M602.5 81.35Q602.2 80.9 602.6 80.65Q603 80.4 603.3 80.85Q603.6 81.25 603.2 81.5Q602.8 81.8 602.5 81.35M594.75 80.8Q594.35 80.25 595 80Q595.7 79.8 596.05 80.2Q596.4 80.6 595.75 80.95Q595.15 81.3 594.75 80.8M588.05 77.55L587.45 77.45Q587.15 77.15 587.45 76.9L588.05 76.95Q588.35 77.3 588.05 77.55M632.95 63.2Q632.55 62.65 633.1 62.5Q633.7 62.35 634 62.8Q634.35 63.25 633.85 63.5Q633.4 63.7 632.95 63.2M637.2 62.55Q636.9 62.15 637.4 61.95Q637.9 61.75 638.2 62.1Q638.45 62.4 638 62.65L637.2 62.55M610.85 57.45Q610.65 57.1 611 56.9Q611.4 56.7 611.6 57.05Q611.8 57.4 611.45 57.6Q611.05 57.8 610.85 57.45M613.4 55.3Q613.05 54.95 613.4 54.65L614.1 54.75Q614.45 55.15 614.1 55.4L613.4 55.3M620.6 81.25Q620.15 81.6 619.85 81.05Q619.6 80.5 620.05 80.2Q620.55 79.9 620.8 80.4Q621.05 80.85 620.6 81.25M615.7 80.2Q615.5 79.75 615.9 79.5Q616.25 79.25 616.5 79.65Q616.7 80.05 616.3 80.35Q615.95 80.65 615.7 80.2M621.9 87.65Q621.65 87.8 621.5 87.55Q621.35 87.3 621.55 87.15L621.95 87.25L621.9 87.65M645.2 80.4L644.4 80.3Q643.95 79.9 644.4 79.55Q644.85 79.15 645.2 79.65Q645.6 80.15 645.2 80.4M640.55 81.45Q640.25 81 640.6 80.8Q641 80.55 641.25 80.95Q641.55 81.35 641.15 81.6Q640.8 81.85 640.55 81.45M645.7 81.3Q645.5 81.45 645.35 81.2Q645.25 80.95 645.45 80.85L645.8 80.9L645.7 81.3M634.45 78.6Q634.25 78.15 634.65 77.9Q635 77.65 635.25 78.05Q635.45 78.45 635.05 78.75Q634.7 79.05 634.45 78.6M628.2 79.65Q628 79.4 628.35 79.25L628.9 79.35Q629.1 79.55 628.75 79.75L628.2 79.65M632.55 78.5Q632.2 78.75 631.95 78.35Q631.7 78 632.05 77.8L632.65 77.9Q632.9 78.3 632.55 78.5M629.3 84.2L628.95 84.15Q628.75 83.95 628.95 83.8L629.3 83.85Q629.5 84.05 629.3 84.2M633.05 86.25Q632.85 86 633.15 85.9L633.65 85.95L633.5 86.3L633.05 86.25M547.1 13.6Q546.5 13.9 546.15 13.3Q545.85 12.75 546.45 12.45Q547.05 12.15 547.35 12.7Q547.65 13.3 547.1 13.6M550.35 24.5Q549.9 24.75 549.65 24.35Q549.4 23.95 549.85 23.8Q550.3 23.6 550.55 23.95Q550.8 24.25 550.35 24.5M553.75 24.05Q553.25 24.3 553 23.85Q552.75 23.45 553.25 23.25Q553.7 23.05 554 23.4Q554.25 23.75 553.75 24.05M562.95 21.25Q562.7 20.8 563.2 20.55Q563.7 20.3 563.95 20.75Q564.25 21.25 563.75 21.5Q563.25 21.75 562.95 21.25M529.95 24.45Q529.8 24.15 530.05 24Q530.3 23.9 530.45 24.15L530.3 24.55Q530.05 24.7 529.95 24.45M543.6 24.35Q543.9 24.7 543.5 24.9Q543.1 25.1 542.75 24.65Q542.4 24.25 542.85 24.1Q543.35 23.95 543.6 24.35M531.7 42.8Q531.45 42.4 531.9 42.25Q532.35 42.05 532.6 42.4Q532.85 42.7 532.4 42.95Q531.95 43.2 531.7 42.8M534.95 36.4Q534.65 36 535.1 35.85Q535.5 35.75 535.75 36.1Q536 36.45 535.65 36.65Q535.3 36.8 534.95 36.4M557.3 27.65Q556.9 27.85 556.65 27.45Q556.45 27.05 556.85 26.85Q557.25 26.65 557.5 27.05Q557.7 27.4 557.3 27.65M548.05 28.15Q547.75 27.75 548.2 27.6Q548.6 27.5 548.85 27.85Q549.1 28.2 548.75 28.4Q548.4 28.55 548.05 28.15M556.55 38.85Q556.15 39.1 555.95 38.65Q555.75 38.25 556.15 38Q556.6 37.75 556.8 38.2Q557 38.6 556.55 38.85M557.7 41.2Q557.45 40.8 557.9 40.65Q558.35 40.45 558.6 40.8Q558.85 41.1 558.4 41.35Q557.95 41.6 557.7 41.2M510.85 19.9Q510.7 19.5 511.1 19.3Q511.45 19.05 511.65 19.45Q511.85 19.85 511.45 20.05Q511.05 20.3 510.85 19.9M497.85 16.3Q497.65 15.9 498.05 15.7Q498.45 15.5 498.7 15.9Q498.9 16.25 498.5 16.5Q498.1 16.7 497.85 16.3M494.7 1.25Q494.45 0.95 494.8 0.85Q495.2 0.7 495.4 1Q495.6 1.3 495.3 1.45Q495 1.6 494.7 1.25M492.1 30.75Q492.35 31.1 491.85 31.4Q491.35 31.65 491.1 31.2Q490.85 30.8 491.35 30.6Q491.8 30.4 492.1 30.75M489.05 28.2Q488.95 27.9 489.2 27.75L489.65 27.85Q489.8 28.15 489.5 28.3Q489.2 28.5 489.05 28.2M486.8 33.8Q487 34.05 486.7 34.2Q486.45 34.3 486.2 34Q485.95 33.7 486.3 33.6Q486.6 33.5 486.8 33.8M487.05 47.55Q487.45 48 486.75 48.4Q486.1 48.75 485.75 48.15Q485.45 47.6 486.05 47.35Q486.7 47.1 487.05 47.55M492.35 48.8Q492.75 48.55 493 49Q493.25 49.4 492.8 49.6Q492.4 49.85 492.15 49.4Q491.9 49 492.35 48.8M517 34.8Q516.6 35 516.25 34.55Q515.9 34.15 516.35 34Q516.85 33.85 517.1 34.25Q517.4 34.6 517 34.8M514.4 29.15Q514 29.4 513.75 28.95Q513.5 28.55 513.95 28.35Q514.35 28.1 514.6 28.55Q514.85 28.95 514.4 29.15M512 27.65Q511.45 27.95 511.2 27.5Q510.9 27.05 511.4 26.85Q511.95 26.65 512.2 27Q512.5 27.4 512 27.65M507.7 44.45Q507.5 44.15 507.85 44L508.4 44.1L508.35 44.45L508.65 44.7Q508.95 45.05 508.55 45.25Q508.15 45.45 507.8 45Q507.5 44.7 507.75 44.55L507.7 44.45M522.2 55.65Q522 55.25 522.4 55.05Q522.8 54.85 523.05 55.25Q523.25 55.6 522.85 55.85Q522.45 56.05 522.2 55.65M508.6 59.05Q508.25 59.35 508 58.9Q507.8 58.45 508.2 58.2Q508.55 57.95 508.8 58.35Q509 58.75 508.6 59.05M514 69.55Q513.7 69.15 514.2 68.95Q514.7 68.75 515 69.1Q515.25 69.4 514.8 69.65L514 69.55M488.15 73.75Q488.4 74.05 488.15 74.2L487.65 74.15Q487.4 73.9 487.7 73.7L488.15 73.75M498.9 80Q498.65 80.2 498.5 79.9Q498.3 79.65 498.55 79.45Q498.8 79.3 499 79.6Q499.15 79.85 498.9 80M493.2 76.75L492.45 76.65Q492.05 76.25 492.5 75.9L493.25 76Q493.6 76.45 493.2 76.75M491.4 78.7Q491.05 78.95 490.85 78.55Q490.65 78.15 491 77.95L491.55 78.05Q491.75 78.4 491.4 78.7M488.5 86.2Q488.75 86.5 488.3 86.75L487.5 86.65Q487.2 86.25 487.7 86.05Q488.2 85.85 488.5 86.2M498.05 92.65Q497.75 92.4 498.05 92.15Q498.35 91.9 498.6 92.25Q498.85 92.55 498.6 92.75L498.05 92.65M549.45 57.4Q549.25 57.15 549.6 57L550.15 57.1Q550.35 57.3 550 57.5L549.45 57.4M551.9 73.85Q551.5 73.45 551.95 73.1L552.7 73.2Q553.05 73.65 552.65 73.95Q552.3 74.2 551.9 73.85M559 71.45L558.25 71.35Q557.85 70.95 558.3 70.6L559.05 70.7Q559.4 71.15 559 71.45M564.15 62.65Q563.8 62.9 563.55 62.5Q563.25 62.05 563.6 61.85Q564 61.6 564.25 62Q564.55 62.4 564.15 62.65M544.25 59.3Q543.85 59.6 543.55 59.1Q543.2 58.65 543.65 58.4Q544.05 58.1 544.4 58.55Q544.7 59 544.25 59.3M527.8 64.4Q527.5 63.95 527.9 63.7Q528.3 63.45 528.6 63.9Q528.9 64.3 528.5 64.55Q528.1 64.85 527.8 64.4M529.4 63.5Q529.2 63.1 529.55 62.9L530.1 63Q530.3 63.35 529.95 63.65Q529.6 63.9 529.4 63.5M539.6 72L538.8 71.9Q538.5 71.5 539 71.3Q539.5 71.1 539.8 71.45Q540.05 71.75 539.6 72M546.55 75Q546.95 74.75 547.2 75.15Q547.5 75.55 547.1 75.8Q546.75 76.05 546.5 75.65Q546.2 75.2 546.55 75M532.95 92.3Q532.6 92.55 532.35 92.15Q532.05 91.7 532.4 91.5Q532.8 91.25 533.05 91.65Q533.35 92.05 532.95 92.3M527.3 87.5Q526.85 87.85 526.65 87.35Q526.4 86.9 526.8 86.6Q527.25 86.35 527.45 86.75Q527.7 87.2 527.3 87.5M557.4 81.9Q557.05 81.55 557.4 81.25L558.1 81.35Q558.45 81.75 558.1 82L557.4 81.9M556.05 98.4Q555.9 98.1 556.2 97.9Q556.5 97.7 556.65 98Q556.8 98.3 556.55 98.55Q556.25 98.75 556.05 98.4M551.1 95.25Q550.9 94.8 551.3 94.55Q551.65 94.3 551.9 94.7Q552.1 95.1 551.7 95.4Q551.35 95.7 551.1 95.25M560.2 114.1Q559.9 113.75 560.4 113.6L561.1 113.7Q561.35 114 560.9 114.25Q560.45 114.5 560.2 114.1M538.75 107.35Q538.4 107.6 538.3 107.35Q538.2 107.05 538.5 106.8L538.9 106.85Q539.1 107.1 538.75 107.35M536.7 105.05Q536.35 105.3 536 104.8Q535.65 104.3 536.15 104.1Q536.7 103.85 536.9 104.3Q537.1 104.8 536.7 105.05M533.25 110.2Q532.95 109.8 533.5 109.6L534.35 109.7Q534.6 110.05 534.1 110.35Q533.6 110.6 533.25 110.2M535.45 118.6Q535.15 118.85 534.85 118.4Q534.6 118 535 117.85Q535.4 117.65 535.6 118Q535.75 118.4 535.45 118.6M551.45 132.65Q551.3 132.3 551.7 132.05Q552.15 131.75 552.35 132.15Q552.55 132.5 552.1 132.8Q551.65 133.05 551.45 132.65M555.7 136.65Q555.55 136.3 555.95 136.05L556.5 136.15Q556.7 136.5 556.3 136.75L555.7 136.65M550.2 147.5Q550.05 147 550.55 146.6L551.35 146.65Q551.6 147.15 551 147.6Q550.4 148.05 550.2 147.5M560.55 147.25Q560.35 147.05 560.55 146.9Q560.75 146.75 560.9 147.05Q561.1 147.3 560.9 147.35L560.55 147.25M514.15 100.95Q513.8 100.6 514.15 100.3Q514.55 99.95 514.85 100.4Q515.2 100.8 514.85 101.05L514.15 100.95M510.95 104.55Q510.75 104.1 511.15 103.85Q511.5 103.6 511.75 104Q511.95 104.4 511.55 104.7Q511.2 105 510.95 104.55M499.2 102.95Q498.9 102.65 499.2 102.4L499.8 102.45Q500.1 102.8 499.8 103.05L499.2 102.95M492.4 104.15Q492.25 103.85 492.5 103.65L492.95 103.75L492.8 104.25Q492.55 104.45 492.4 104.15M495.3 110.85Q494.95 111.15 494.75 110.75Q494.6 110.35 494.85 110.2L495.4 110.3Q495.7 110.6 495.3 110.85M496.45 113.35Q496.35 112.95 496.7 112.7L497.25 112.75Q497.5 113.05 497.05 113.4L496.45 113.35M494.95 133.35Q494.65 133.05 495.1 132.75Q495.5 132.5 495.65 132.9Q495.8 133.35 495.55 133.5L494.95 133.35M524.05 132.95Q523.65 132.4 524.2 132.15Q524.75 131.9 524.95 132.4Q525.2 132.9 524.8 133.2Q524.4 133.45 524.05 132.95M520.35 136.15Q520.05 136.2 519.85 135.95Q519.6 135.7 519.9 135.5Q520.15 135.3 520.4 135.7Q520.65 136.05 520.35 136.15M528.5 153.25Q528.2 152.9 528.55 152.65Q528.9 152.4 529.2 152.9Q529.55 153.35 529.15 153.5Q528.8 153.6 528.5 153.25M556.9 155.8Q556.55 155.45 556.95 155.15Q557.35 154.8 557.7 155.4Q558.1 155.95 557.65 156.1Q557.2 156.2 556.9 155.8M630.4 111.75Q629.95 111.35 630.4 111Q630.85 110.6 631.2 111.1Q631.6 111.6 631.2 111.85L630.4 111.75M609.4 103.15Q609 102.6 609.65 102.35Q610.35 102.15 610.7 102.55Q611.05 102.95 610.4 103.3L609.4 103.15M614.7 127.25Q614.5 126.8 614.9 126.55Q615.35 126.3 615.6 126.75Q615.85 127.15 615.35 127.4Q614.85 127.65 614.7 127.25M630.25 133.6Q630.1 133.15 630.4 133L630.95 133.1Q631.15 133.35 630.8 133.65L630.25 133.6M632.3 145.45Q632.1 145.05 632.45 144.9Q632.8 144.75 632.95 145.05Q633.15 145.35 632.8 145.55Q632.5 145.8 632.3 145.45M631.5 143.2Q631.35 142.8 631.7 142.6L632.25 142.75Q632.45 143.1 632.05 143.35Q631.7 143.6 631.5 143.2M591.5 106.65Q591.35 106.35 591.6 106.15L592.05 106.25L591.9 106.75Q591.65 106.95 591.5 106.65M595.95 109.7Q595.6 109.35 595.95 109.05Q596.35 108.7 596.65 109.15Q597 109.55 596.65 109.8L595.95 109.7M597.4 137.95Q597.2 138.1 597.05 137.85Q596.95 137.6 597.1 137.45L597.45 137.55L597.4 137.95M589.15 144.05Q588.9 144.2 588.75 143.95Q588.6 143.65 588.85 143.45Q589.1 143.3 589.3 143.6L589.15 144.05M602.4 151.1Q602.1 150.65 602.6 150.4Q603.05 150.15 603.3 150.6Q603.6 151 603.15 151.25Q602.75 151.5 602.4 151.1M585.65 172.9Q585.85 173.35 585.45 173.55Q585.1 173.8 584.85 173.35Q584.55 172.95 585 172.7Q585.5 172.4 585.65 172.9M584.25 151.55Q583.95 151.8 583.65 151.35Q583.4 150.95 583.8 150.8Q584.2 150.6 584.4 150.95Q584.55 151.35 584.25 151.55M567.3 151.05L566.95 151Q566.85 150.8 567.05 150.65L567.4 150.7Q567.55 150.9 567.3 151.05M594.25 178.55Q594.1 178.1 594.4 177.95L594.95 178.05Q595.15 178.3 594.8 178.6L594.25 178.55M637.5 172.8Q637.2 172.95 637.05 172.65Q636.95 172.4 637.2 172.2Q637.5 172.05 637.65 172.35Q637.85 172.6 637.5 172.8M626.3 152.4Q626.1 152 626.4 151.75Q626.7 151.5 626.95 151.9Q627.2 152.3 626.85 152.55Q626.5 152.75 626.3 152.4M614.9 157.2Q614.75 156.95 615 156.8Q615.25 156.7 615.35 156.95L615.25 157.3L614.9 157.2M621.25 172.45Q620.8 172.7 620.45 172.25Q620.1 171.8 620.6 171.55Q621.1 171.25 621.4 171.75Q621.7 172.2 621.25 172.45M631.9 179.6Q631.5 179.1 632 178.8Q632.5 178.45 632.75 179Q633 179.5 632.6 179.8Q632.25 180.15 631.9 179.6M476.6 6.85Q476.3 6.45 476.7 6.35Q477.1 6.25 477.35 6.55Q477.55 6.9 477.25 7.05Q476.9 7.2 476.6 6.85M477.5 24.15Q477.2 23.6 477.75 23.35Q478.3 23.05 478.6 23.6Q478.95 24.1 478.4 24.4Q477.85 24.7 477.5 24.15M457.05 23.5Q456.85 23 457.3 22.75Q457.75 22.5 458 22.95Q458.2 23.4 457.75 23.65Q457.25 23.95 457.05 23.5M455.8 27.8Q455.45 27.35 455.95 27.2Q456.45 27.05 456.75 27.45Q457.05 27.9 456.6 28.1Q456.2 28.3 455.8 27.8M452.45 32.65Q451.9 32.95 451.6 32.45Q451.3 31.95 451.85 31.75Q452.4 31.55 452.7 31.95Q453 32.35 452.45 32.65M446.15 32.05L445.55 31.95Q445.3 31.55 445.7 31.4Q446.1 31.25 446.35 31.55Q446.6 31.85 446.15 32.05M448.3 48.85Q448.05 48.3 448.6 48Q449.1 47.7 449.4 48.25Q449.7 48.8 449.1 49.1Q448.55 49.45 448.3 48.85M479.3 27.65Q479.6 28.1 479.15 28.3Q478.75 28.5 478.35 28Q478 27.55 478.5 27.4Q479 27.25 479.3 27.65M475.9 26.7Q475.75 26.3 476.1 26.1Q476.45 25.9 476.6 26.25Q476.8 26.65 476.45 26.85Q476.05 27.05 475.9 26.7M477.25 28.55Q477.1 28.3 477.35 28.25L477.7 28.3Q477.85 28.5 477.6 28.6L477.25 28.55M476.15 31.3Q475.5 31.65 475.25 31.05Q474.95 30.45 475.55 30.1Q476.15 29.75 476.45 30.35Q476.8 30.95 476.15 31.3M472.1 27.1Q471.8 26.7 472.25 26.55Q472.65 26.45 472.9 26.8Q473.15 27.15 472.8 27.35Q472.45 27.5 472.1 27.1M481.5 43.85Q481.35 43.6 481.6 43.45Q481.9 43.3 482.05 43.6Q482.2 43.85 481.95 44Q481.65 44.15 481.5 43.85M414.65 17.55Q414.35 17.75 414.15 17.4Q413.95 17.1 414.3 16.9Q414.65 16.75 414.8 17.05Q415 17.4 414.65 17.55M412.9 24.3Q413.1 24.6 412.8 24.75Q412.5 24.9 412.2 24.55Q411.95 24.25 412.3 24.15Q412.7 24 412.9 24.3M413.25 23.5Q413.05 23.2 413.45 23.05L414 23.15Q414.2 23.45 413.85 23.65Q413.45 23.85 413.25 23.5M423.4 26.6Q423.8 26.4 424 26.75Q424.2 27.1 423.85 27.3Q423.45 27.5 423.25 27.15Q423.05 26.8 423.4 26.6M415.75 29.45Q415.4 28.9 416 28.7Q416.55 28.45 416.9 28.9Q417.2 29.3 416.6 29.6Q416.05 29.95 415.75 29.45M415.4 25.9Q414.9 26.15 414.45 25.6Q414 25.05 414.6 24.85Q415.2 24.7 415.55 25.2Q415.9 25.7 415.4 25.9M412.65 38.6Q412.35 38.2 412.8 38.05Q413.2 37.95 413.45 38.3Q413.7 38.65 413.35 38.85Q413 39 412.65 38.6M405.05 46.85Q404.75 46.25 405.3 45.9Q405.8 45.55 406.1 46.1Q406.4 46.65 405.9 47.05Q405.35 47.45 405.05 46.85M442.75 28.85Q442.5 28.45 443 28.25Q443.45 28.05 443.75 28.4Q444 28.75 443.5 29.05Q443 29.3 442.75 28.85M443.2 34.1Q442.9 33.7 443.35 33.55Q443.75 33.45 444 33.8Q444.25 34.15 443.9 34.35Q443.55 34.5 443.2 34.1M428.65 53.05Q428.35 52.65 428.85 52.45Q429.35 52.25 429.65 52.6Q429.9 52.9 429.45 53.15L428.65 53.05M424.4 59.2Q424.2 58.8 424.6 58.6Q425 58.4 425.25 58.8Q425.45 59.15 425.05 59.4Q424.65 59.6 424.4 59.2M405.05 60.4Q404.9 60.1 405.2 59.9Q405.5 59.75 405.7 60.05Q405.85 60.35 405.5 60.55Q405.15 60.75 405.05 60.4M407.95 50.75Q407.7 50.15 408.25 49.85Q408.85 49.5 409.15 50.1Q409.45 50.65 408.85 51Q408.2 51.35 407.95 50.75M411.95 64.5Q411.65 64.1 412.2 63.9L413.05 64Q413.3 64.35 412.8 64.65L411.95 64.5M414.65 74L414.05 73.9Q413.7 73.6 414.05 73.3Q414.4 73 414.7 73.4Q415 73.8 414.65 74M424.75 77.95L425.45 78.05Q425.8 78.45 425.45 78.7L424.75 78.6Q424.4 78.25 424.75 77.95M408.05 80.3Q407.65 80.6 407.35 80.15Q407.05 79.7 407.45 79.45Q407.85 79.2 408.15 79.65Q408.45 80.05 408.05 80.3M418.15 89.45Q417.6 89.75 417.3 89.3Q416.95 88.85 417.5 88.65Q418.1 88.4 418.4 88.8Q418.75 89.15 418.15 89.45M430.05 80.3Q429.8 79.7 430.3 79.4Q430.8 79.05 431.1 79.55Q431.35 80.05 430.85 80.45Q430.35 80.85 430.05 80.3M432.8 93.05Q432.4 93.35 432.1 92.85Q431.75 92.4 432.2 92.15Q432.6 91.85 432.95 92.3Q433.25 92.75 432.8 93.05M442.55 88Q442.35 87.55 442.75 87.3Q443.1 87.05 443.35 87.45Q443.55 87.85 443.15 88.15Q442.8 88.45 442.55 88M444.75 97.9Q444.55 97.65 444.8 97.45Q445.05 97.3 445.25 97.6Q445.4 97.85 445.15 98Q444.9 98.2 444.75 97.9M484.75 52.1Q484.5 51.7 484.95 51.55Q485.4 51.35 485.65 51.7Q485.9 52 485.45 52.25L484.75 52.1M467.45 56.6Q467.15 56.15 467.5 55.95Q467.9 55.7 468.15 56.1Q468.45 56.5 468.05 56.75Q467.7 57 467.45 56.6M451.35 60.25Q451.2 59.95 451.5 59.75Q451.8 59.6 452 59.9Q452.15 60.2 451.8 60.4Q451.45 60.6 451.35 60.25M462.7 62.5Q462.45 62.05 462.9 61.8Q463.4 61.55 463.65 62Q463.9 62.45 463.45 62.7Q462.95 62.95 462.7 62.5M463.75 80.15Q463.4 79.8 463.75 79.5Q464.15 79.15 464.45 79.6Q464.8 80 464.45 80.25L463.75 80.15M458.75 80Q458.55 79.7 458.95 79.55L459.55 79.65Q459.75 79.9 459.35 80.1L458.75 80M455.85 86.45L455.4 86.35Q455.2 86.15 455.4 85.95L455.85 86Q456.05 86.25 455.85 86.45M450.8 76.05Q450.45 76.35 450.2 75.9Q450 75.45 450.4 75.2Q450.75 74.95 451 75.35Q451.2 75.75 450.8 76.05M446.8 74.75L446.2 74.65Q446 74.35 446.4 74.2L447 74.3Q447.2 74.55 446.8 74.75M448.1 75.9Q447.6 76.3 447.3 75.75Q447.05 75.15 447.55 74.85Q448.05 74.5 448.35 75Q448.6 75.5 448.1 75.9M453.4 87.85Q453.1 87.45 453.6 87.25Q454.1 87.05 454.4 87.4Q454.65 87.7 454.2 87.95L453.4 87.85M480.3 74.8Q480 74.35 480.4 74.1Q480.8 73.85 481.1 74.3Q481.4 74.7 481 74.95Q480.6 75.25 480.3 74.8M474.9 77.9Q474.7 77.5 475.05 77.3L475.6 77.4Q475.8 77.75 475.45 78.05Q475.1 78.3 474.9 77.9M471.5 77.3Q471.15 77.55 470.9 77.15Q470.6 76.7 470.95 76.5Q471.35 76.25 471.6 76.65Q471.9 77.05 471.5 77.3M467.95 77.25Q467.5 76.85 467.95 76.5Q468.4 76.1 468.75 76.6Q469.15 77.1 468.75 77.35L467.95 77.25M469.75 77.9L469.3 77.85Q469.1 77.6 469.4 77.5L469.9 77.55L469.75 77.9M370.5 19.9Q370.1 19.4 370.65 19.25Q371.15 19.05 371.5 19.5Q371.8 19.95 371.35 20.15Q370.9 20.35 370.5 19.9M368.7 22.5Q368.55 22.1 368.9 21.9Q369.25 21.7 369.4 22.05Q369.6 22.45 369.25 22.65Q368.85 22.85 368.7 22.5M373.5 30.7Q373.3 30.2 373.8 29.9Q374.3 29.6 374.55 30.1Q374.85 30.65 374.3 30.95Q373.75 31.25 373.5 30.7M375.7 46.35Q375.3 46.65 375 46.2Q374.7 45.75 375.1 45.5Q375.5 45.25 375.8 45.7Q376.1 46.1 375.7 46.35M400.75 32.55Q400.45 32.05 401 31.85Q401.55 31.65 401.85 32.05Q402.15 32.45 401.6 32.75Q401.05 33.05 400.75 32.55M395.3 33.45Q394.85 33.65 394.4 33.15Q394 32.6 394.55 32.45Q395.15 32.3 395.45 32.75Q395.8 33.2 395.3 33.45M393.7 28L393 27.85Q392.75 27.45 393.2 27.3Q393.65 27.1 393.9 27.45Q394.15 27.75 393.7 28M353.1 8Q352.95 7.7 353.2 7.55Q353.45 7.45 353.6 7.7L353.45 8.1Q353.2 8.25 353.1 8M362.95 19.65Q362.8 19.25 363.2 19.05Q363.55 18.8 363.75 19.2Q363.95 19.6 363.55 19.8Q363.15 20.05 362.95 19.65M331.7 22.55Q331.45 22.25 331.8 22.15Q332.2 22 332.4 22.3Q332.6 22.6 332.3 22.75Q332 22.9 331.7 22.55M335.9 30.3Q335.6 29.85 336.1 29.65Q336.65 29.45 336.9 29.8Q337.2 30.2 336.7 30.45Q336.15 30.75 335.9 30.3M341.2 36Q341 35.65 341.35 35.45Q341.75 35.25 341.95 35.6Q342.15 35.95 341.8 36.15Q341.4 36.35 341.2 36M326.45 28.5Q326.15 28.65 326 28.35Q325.85 28.1 326.1 27.95Q326.4 27.8 326.55 28.1Q326.7 28.35 326.45 28.5M340.1 48.2Q339.9 47.95 340.2 47.85L340.7 47.9L340.55 48.25L340.1 48.2M358.7 27.25Q358.5 26.95 358.9 26.8L359.45 26.9Q359.65 27.2 359.3 27.4Q358.9 27.6 358.7 27.25M354.85 27.25Q354.6 26.85 355.1 26.65Q355.55 26.45 355.85 26.8Q356.1 27.15 355.6 27.45Q355.1 27.7 354.85 27.25M354.4 27.6Q354 27.8 353.75 27.4Q353.55 27 353.95 26.8Q354.35 26.6 354.6 27Q354.8 27.35 354.4 27.6M357.65 29.25Q357.45 28.9 357.8 28.7Q358.2 28.5 358.4 28.85Q358.6 29.2 358.25 29.4Q357.85 29.6 357.65 29.25M362.15 32.2Q361.9 31.65 362.45 31.35Q362.95 31.05 363.25 31.6Q363.55 32.15 362.95 32.45Q362.4 32.8 362.15 32.2M349.75 25.35Q349.3 25.6 349.05 25.2Q348.8 24.8 349.25 24.65Q349.7 24.45 349.95 24.8Q350.2 25.1 349.75 25.35M352.2 27.35Q351.85 27.5 351.5 27.1Q351.2 26.7 351.65 26.55Q352.05 26.45 352.3 26.8Q352.55 27.15 352.2 27.35M346.35 27.55Q346 27.15 346.45 27Q346.95 26.85 347.2 27.25Q347.5 27.6 347.1 27.8Q346.7 28 346.35 27.55M352.55 42.15Q352.45 41.85 352.7 41.7L353.15 41.8Q353.3 42.1 353 42.25Q352.7 42.45 352.55 42.15M364.25 49.35Q364.45 49.75 364.05 49.95Q363.65 50.2 363.45 49.8Q363.3 49.4 363.7 49.2Q364.05 48.95 364.25 49.35M359.05 60.1Q358.75 59.55 359.3 59.3Q359.85 59 360.15 59.55Q360.5 60.05 359.95 60.35Q359.4 60.65 359.05 60.1M344.35 69.35Q344.05 68.9 344.4 68.7Q344.8 68.45 345.05 68.85Q345.35 69.25 344.95 69.5Q344.6 69.75 344.35 69.35M327.5 63.95Q327.25 63.5 327.65 63.2Q328.1 62.95 328.3 63.35Q328.55 63.8 328.15 64.1Q327.7 64.45 327.5 63.95M340.75 62.65Q340.35 62.25 340.8 61.9L341.55 62Q341.9 62.45 341.5 62.75L340.75 62.65M336.5 82.25Q336.15 81.8 336.6 81.55Q337 81.25 337.35 81.7Q337.65 82.15 337.2 82.45Q336.8 82.75 336.5 82.25M342.15 82.7L341.3 82.55Q341 82.15 341.55 81.95L342.4 82.05Q342.65 82.4 342.15 82.7M332.55 80.35Q332.1 80.7 331.9 80.2Q331.65 79.75 332.05 79.45Q332.5 79.2 332.7 79.6Q332.95 80.05 332.55 80.35M332.6 80.9Q332.4 80.7 332.6 80.5L333.05 80.55Q333.25 80.8 333.05 81L332.6 80.9M329.85 83.15L329.3 83.05Q329 82.8 329.3 82.55Q329.6 82.3 329.85 82.65Q330.1 82.95 329.85 83.15M330 92.85Q329.7 92.45 330.2 92.25Q330.7 92.05 331 92.4Q331.25 92.7 330.8 92.95L330 92.85M331.9 96.95Q331.7 96.65 332 96.5L332.45 96.6Q332.6 96.9 332.35 97.05Q332.05 97.25 331.9 96.95M362.15 80.3Q361.8 79.95 362.15 79.65Q362.55 79.3 362.85 79.75Q363.2 80.15 362.85 80.4L362.15 80.3M350.55 80.55Q350.05 80.95 349.65 80.35Q349.2 79.75 349.75 79.4Q350.3 79.1 350.7 79.65Q351.1 80.2 350.55 80.55M403.4 72.1L402.6 72Q402.3 71.6 402.8 71.4Q403.3 71.2 403.6 71.55Q403.85 71.85 403.4 72.1M365.1 56.25Q364.85 55.8 365.25 55.5Q365.7 55.25 365.9 55.65Q366.15 56.1 365.75 56.4Q365.3 56.75 365.1 56.25M379.95 77.4Q379.7 77.05 380 76.85Q380.35 76.65 380.55 77Q380.8 77.3 380.45 77.55Q380.15 77.75 379.95 77.4M365.6 79.9Q365.15 80.25 364.95 79.75Q364.7 79.3 365.1 79Q365.55 78.75 365.75 79.15Q366 79.6 365.6 79.9M365.6 89.5L365.1 89.45Q364.85 89.2 365.15 89L365.6 89.05Q365.85 89.35 365.6 89.5M396.4 79Q395.95 79.25 395.7 78.85Q395.4 78.5 395.9 78.35L396.6 78.45Q396.85 78.75 396.4 79M396.05 80.2Q395.7 79.75 396.15 79.5Q396.55 79.2 396.9 79.65Q397.2 80.1 396.75 80.4Q396.35 80.7 396.05 80.2M391.5 81.3L391.4 81.35Q391.7 81.75 391.3 82Q390.95 82.25 390.7 81.85Q390.4 81.4 390.75 81.2L390.9 81.15Q390.7 80.9 390.95 80.7L391.5 80.8Q391.75 81.1 391.5 81.3M398.9 89.7Q398.6 89.3 399.15 89.1L400 89.2Q400.25 89.55 399.75 89.85L398.9 89.7M398.2 103.6Q397.85 103.9 397.55 103.45Q397.25 103 397.75 102.8Q398.2 102.55 398.4 102.95Q398.6 103.3 398.2 103.6M399.1 109.55L399 109.4L398.8 109.6Q398.25 110 397.95 109.4Q397.65 108.8 398.2 108.45Q398.7 108.1 399 108.65L399.1 109.05L399.3 108.95Q399.8 108.75 400.1 109.1Q400.35 109.4 399.9 109.65L399.1 109.55M403.3 108.8Q402.95 108.45 403.3 108.15Q403.7 107.8 404 108.25Q404.35 108.65 404 108.9L403.3 108.8M376.05 115.9Q375.75 115.5 376.2 115.25Q376.65 115.05 376.8 115.4Q377 115.75 376.65 116.05Q376.3 116.3 376.05 115.9M379.1 124.9Q378.75 124.4 379.35 124.05Q379.95 123.7 380.25 124.25Q380.55 124.8 379.95 125.1Q379.4 125.4 379.1 124.9M384.25 125.55Q384.7 125.3 384.9 125.7Q385.1 126.05 384.7 126.35Q384.35 126.65 384.05 126.2Q383.75 125.75 384.25 125.55M368.35 124.4Q368.05 123.95 368.55 123.75Q369 123.5 369.2 123.9Q369.4 124.25 369 124.55Q368.65 124.85 368.35 124.4M366.75 141.35Q366.6 141.05 366.9 140.85Q367.2 140.7 367.4 141Q367.65 141.35 367.25 141.5Q366.9 141.65 366.75 141.35M376.45 138.35Q376 138.55 375.8 138.2Q375.6 137.85 376 137.6Q376.35 137.35 376.65 137.75Q376.95 138.15 376.45 138.35M394.7 126.25Q394.5 125.9 394.9 125.7Q395.25 125.45 395.45 125.8Q395.65 126.15 395.3 126.35L394.7 126.25M399.65 126.6Q399.2 126.8 399 126.45Q398.75 126.05 399.2 125.8Q399.65 125.5 399.9 125.95Q400.1 126.35 399.65 126.6M344.85 107Q344.5 107.25 344.3 106.85Q344.1 106.5 344.5 106.3Q344.85 106.1 345.05 106.45Q345.2 106.8 344.85 107M347.8 113.35Q347.6 113.1 347.9 113L348.4 113.05L348.25 113.4L347.8 113.35M361.1 115.45Q360.85 115.05 361.25 114.8Q361.65 114.55 361.9 114.95Q362.1 115.35 361.75 115.6Q361.35 115.85 361.1 115.45M338.1 111.3Q338.3 111.7 338 111.95Q337.7 112.25 337.4 111.85Q337.1 111.45 337.5 111.15Q337.95 110.85 338.1 111.3M327.85 108.35Q327.55 108 328 107.8Q328.4 107.55 328.65 107.95Q328.85 108.35 328.5 108.55Q328.15 108.7 327.85 108.35M326.35 114.15Q326 114.45 325.7 114Q325.35 113.6 325.8 113.25Q326.25 112.95 326.45 113.4Q326.65 113.85 326.35 114.15M358.9 125.4Q358.6 125.6 358.4 125.3Q358.2 124.95 358.5 124.8Q358.85 124.6 359 124.9Q359.15 125.2 358.9 125.4M467.05 107.9Q466.65 107.35 467.15 107.05Q467.65 106.75 468 107.3Q468.35 107.8 467.85 108.1Q467.4 108.45 467.05 107.9M484.7 123.1Q484.5 122.6 484.9 122.5Q485.25 122.35 485.5 122.7Q485.7 123.05 485.3 123.3Q484.95 123.6 484.7 123.1M448 106Q447.55 106.35 447.25 105.8Q447 105.25 447.45 104.95Q447.95 104.65 448.2 105.15Q448.45 105.6 448 106M450 112.3Q449.55 111.9 450 111.55Q450.45 111.15 450.8 111.65Q451.2 112.15 450.8 112.4L450 112.3M449.65 119.9Q449.25 120.1 449 119.7Q448.75 119.3 449.15 119.05Q449.55 118.8 449.8 119.25Q450.05 119.65 449.65 119.9M465.8 127.75Q465.55 127.5 465.85 127.3Q466.2 127.05 466.35 127.4L466.25 127.85L465.8 127.75M472.8 142.6Q472.65 142.2 472.9 142.05L473.45 142.15Q473.75 142.45 473.35 142.7Q473 143 472.8 142.6M476.8 143.3Q476.5 142.9 476.9 142.65Q477.35 142.35 477.65 142.8Q477.9 143.3 477.5 143.5Q477.05 143.75 476.8 143.3M482.25 143.45Q482.05 142.95 482.45 142.85Q482.8 142.7 483.05 143.05Q483.25 143.4 482.85 143.65Q482.5 143.95 482.25 143.45M409.2 124.9Q408.95 124.5 409.35 124.25Q409.75 124 410 124.4Q410.2 124.8 409.85 125.05Q409.45 125.3 409.2 124.9M414.85 125.5Q414.65 125.1 415 124.85Q415.4 124.6 415.75 125.05Q416.05 125.5 415.55 125.7Q415.05 125.9 414.85 125.5M457.9 158.85Q457.7 158.4 458.05 158.3Q458.4 158.2 458.6 158.5Q458.8 158.85 458.45 159.1Q458.1 159.35 457.9 158.85M466.8 157.65Q466.5 157.35 466.95 157.05Q467.35 156.8 467.5 157.2Q467.65 157.65 467.4 157.8L466.8 157.65M303.9 4.45Q303.6 3.95 304.1 3.65Q304.65 3.4 304.95 3.9Q305.25 4.4 304.7 4.65Q304.2 4.95 303.9 4.45M297.2 2.8Q296.9 2.4 297.35 2.25Q297.75 2.15 298 2.5Q298.25 2.85 297.9 3.05Q297.55 3.2 297.2 2.8M299.2 14.85Q298.9 15 298.7 14.7Q298.55 14.4 298.85 14.25Q299.15 14.1 299.35 14.4L299.2 14.85M296.85 21.85Q296.4 21.3 297 21.1Q297.6 20.95 297.95 21.45Q298.3 21.95 297.8 22.15Q297.3 22.4 296.85 21.85M293.75 20.15Q293.6 19.9 293.85 19.85Q294.05 19.75 294.2 19.95L294.15 20.25L293.75 20.15M303.2 45.4Q303.7 45.1 304.05 45.65Q304.4 46.15 303.9 46.45Q303.45 46.8 303.1 46.25Q302.7 45.7 303.2 45.4M322.55 36.4Q323.05 36.2 323.4 36.65Q323.7 37.1 323.25 37.3L322.4 37.05Q322 36.55 322.55 36.4M312.6 31.95Q312.1 32.2 311.8 31.7Q311.55 31.25 312.05 31Q312.55 30.75 312.8 31.2Q313.1 31.7 312.6 31.95M281.05 8.45L280.35 8.3Q280.1 7.9 280.55 7.75Q281 7.55 281.25 7.9Q281.5 8.2 281.05 8.45M272.3 15.2Q271.9 15.4 271.7 15.05Q271.5 14.7 271.85 14.5Q272.25 14.3 272.45 14.65Q272.65 15 272.3 15.2M264.3 24.25Q264.55 24.6 264.2 24.8Q263.85 24.95 263.5 24.55Q263.2 24.15 263.65 24Q264.05 23.9 264.3 24.25M267.4 22.15Q267.2 21.75 267.6 21.5Q268.05 21.25 268.25 21.7Q268.45 22.1 268 22.35Q267.6 22.6 267.4 22.15M251.05 17.8Q250.65 18 250.4 17.65Q250.15 17.3 250.6 17.05Q251.05 16.85 251.25 17.25Q251.4 17.6 251.05 17.8M251.5 20.6Q251.15 20.05 251.75 19.85Q252.3 19.6 252.65 20.05Q252.95 20.45 252.35 20.75Q251.8 21.1 251.5 20.6M250.8 20.45Q250.45 20.6 250.1 20.2Q249.8 19.8 250.25 19.65Q250.65 19.55 250.9 19.9Q251.15 20.25 250.8 20.45M257.3 13.35Q256.9 13.55 256.5 13.05Q256.15 12.6 256.65 12.45Q257.15 12.3 257.45 12.7Q257.75 13.15 257.3 13.35M254.7 16.75Q254.5 16.4 254.85 16.2Q255.25 16 255.45 16.35Q255.65 16.7 255.3 16.9Q254.9 17.1 254.7 16.75M254.85 18.25Q254.6 17.85 255.05 17.7Q255.5 17.5 255.75 17.85Q256 18.15 255.55 18.4Q255.1 18.65 254.85 18.25M255.9 24.5Q256.15 24.9 255.7 25.15Q255.25 25.4 255.05 25Q254.85 24.6 255.2 24.35Q255.6 24.1 255.9 24.5M261.4 29.55Q261.1 29.7 260.8 29.35Q260.55 29.05 260.9 28.95Q261.3 28.8 261.5 29.1Q261.7 29.4 261.4 29.55M256.7 26.45Q256.2 26.75 255.9 26.25Q255.6 25.7 256.1 25.35Q256.6 24.95 256.9 25.5Q257.2 26.1 256.7 26.45M257 28.25Q256.75 28.4 256.65 28.15Q256.55 27.95 256.8 27.8Q257 27.7 257.1 27.9Q257.25 28.15 257 28.25M250.8 29.4Q250.6 29 251 28.75Q251.45 28.5 251.65 28.95Q251.85 29.35 251.4 29.6Q251 29.85 250.8 29.4M262.4 43.4Q262 43.65 261.8 43.25Q261.55 42.85 261.9 42.55Q262.3 42.25 262.55 42.7Q262.75 43.15 262.4 43.4M281.5 27.2Q281.95 27 282.2 27.35Q282.45 27.65 282 27.9Q281.55 28.15 281.3 27.75Q281.05 27.35 281.5 27.2M278.7 25.55Q278.2 25.85 278 25.4Q277.8 24.9 278.25 24.65Q278.7 24.4 278.95 24.85Q279.15 25.3 278.7 25.55M278.6 29.05Q278.4 28.65 278.8 28.4Q279.25 28.15 279.45 28.6Q279.65 29 279.2 29.25Q278.8 29.5 278.6 29.05M275.85 36.85Q276.1 37.15 275.65 37.35Q275.25 37.6 275.05 37.25Q274.8 36.85 275.2 36.7Q275.6 36.55 275.85 36.85M272.35 43.45Q272.05 43.7 271.85 43.3Q271.65 42.85 272.05 42.65Q272.45 42.4 272.55 42.85Q272.65 43.25 272.35 43.45M282.35 39.5Q281.7 39.85 281.45 39.25Q281.2 38.65 281.75 38.35Q282.35 38 282.65 38.6Q282.95 39.15 282.35 39.5M275.95 41.65Q275.7 41.2 276.2 40.9Q276.65 40.6 276.95 41.05Q277.25 41.5 276.75 41.8Q276.2 42.1 275.95 41.65M281.9 49.25Q282.25 49.7 281.7 50.05Q281.15 50.35 280.9 49.85Q280.6 49.4 281.1 49.05Q281.6 48.75 281.9 49.25M263.55 60.75Q263.3 60.4 263.8 60.15Q264.3 59.9 264.45 60.3Q264.65 60.75 264.25 60.9L263.55 60.75M264.25 64.3Q263.7 64.6 263.45 64.15Q263.2 63.65 263.75 63.35Q264.35 63 264.55 63.5Q264.8 64.05 264.25 64.3M280.6 65.35Q280.2 64.95 280.65 64.6L281.45 64.65Q281.75 65.05 281.35 65.4L280.6 65.35M260.7 60.1L260.1 60Q260 59.7 260.4 59.5L261 59.55Q261.25 59.85 260.7 60.1M253.2 61Q252.75 61.25 252.5 60.85Q252.25 60.45 252.7 60.3Q253.15 60.1 253.4 60.45Q253.65 60.75 253.2 61M246.2 54.6Q245.9 53.95 246.5 53.6Q247.1 53.3 247.25 53.9Q247.45 54.5 247 54.85Q246.5 55.2 246.2 54.6M250.15 92.4Q249.95 92 250.35 91.65Q250.75 91.3 251 91.85Q251.3 92.4 250.85 92.6Q250.4 92.75 250.15 92.4M249.05 92.4Q249.45 92.85 249 93.1Q248.6 93.35 248.4 92.9Q248.15 92.4 248.45 92.2Q248.7 91.95 249.05 92.4M243.1 87.75Q242.75 88 242.5 87.55Q242.25 87.1 242.55 86.85Q242.8 86.65 243.15 87.05Q243.5 87.5 243.1 87.75M247.05 95.7Q246.85 95.3 247.25 95.1L247.8 95.2Q248 95.55 247.65 95.85Q247.3 96.1 247.05 95.7M243.5 95.55Q243.25 95.1 243.7 94.8Q244.15 94.55 244.4 94.95Q244.6 95.4 244.2 95.7Q243.75 96 243.5 95.55M259.9 94.8Q259.7 94.45 260.15 94.2Q260.6 93.9 260.8 94.35Q260.95 94.75 260.55 94.95Q260.1 95.2 259.9 94.8M310.55 50.7Q310.3 50.3 310.75 50.15Q311.2 49.95 311.45 50.3Q311.7 50.6 311.25 50.85Q310.8 51.1 310.55 50.7M302.65 55.6Q302.85 56.05 302.4 56.3Q301.9 56.6 301.7 56.15Q301.5 55.65 301.95 55.4Q302.4 55.15 302.65 55.6M303.55 55.4Q303.75 55.65 303.55 55.85L303.1 55.75Q302.9 55.55 303.1 55.35L303.55 55.4M296.4 59.55Q296.2 59.2 296.55 59Q296.95 58.8 297.15 59.15Q297.35 59.5 297 59.7Q296.6 59.9 296.4 59.55M298.8 61.6Q298.45 61.25 298.8 60.95Q299.2 60.6 299.5 61.05Q299.85 61.45 299.5 61.7L298.8 61.6M295.8 76.1Q295.6 75.8 295.9 75.55L296.4 75.65Q296.6 76 296.3 76.25Q296 76.45 295.8 76.1M284.05 77.1Q283.85 76.7 284.25 76.5Q284.65 76.3 284.9 76.7Q285.15 77.1 284.7 77.3Q284.3 77.45 284.05 77.1M286.2 93.15Q286 92.85 286.35 92.55Q286.7 92.25 287.05 92.75Q287.4 93.2 286.9 93.3L286.2 93.15M297.2 90.05Q296.95 89.7 297.25 89.5Q297.6 89.3 297.8 89.65Q298.05 89.95 297.7 90.2Q297.4 90.4 297.2 90.05M298.4 92.2L298 92.05Q297.85 91.85 298.1 91.7Q298.35 91.55 298.55 91.85Q298.7 92.1 298.4 92.2M298.15 96.25L297.4 96.15Q297.3 95.75 297.75 95.5L298.5 95.6Q298.8 95.95 298.15 96.25M320.9 79.7Q320.7 79.25 321.1 79Q321.45 78.75 321.7 79.15Q321.9 79.55 321.5 79.85Q321.15 80.15 320.9 79.7M323.7 79.7Q323.35 80 323.1 79.55Q322.9 79.1 323.3 78.85Q323.65 78.6 323.9 79Q324.1 79.4 323.7 79.7M310.35 77.2Q310.15 76.8 310.5 76.6Q310.85 76.35 311.05 76.7Q311.25 77.05 310.9 77.35Q310.55 77.6 310.35 77.2M307 97.35L306.15 97.3Q305.7 96.85 306.2 96.45L307.1 96.5Q307.45 96.95 307 97.35M230.55 14.55Q230.2 14.1 230.75 13.8Q231.35 13.45 231.55 14Q231.75 14.55 231.35 14.75Q230.9 14.95 230.55 14.55M224.2 19.15Q224.1 18.85 224.35 18.7L224.8 18.8L224.65 19.25L224.2 19.15M217.2 23.85Q216.95 23.35 217.4 23.1Q217.85 22.85 218 23.3Q218.15 23.75 217.8 24.05Q217.4 24.35 217.2 23.85M220.3 27.35L220.25 27.25L220.05 27.1Q219.95 26.85 220.15 26.7L220.45 26.65L220.55 26.55Q221.1 26.15 221.25 26.7Q221.4 27.25 221 27.5Q220.6 27.8 220.3 27.35M208.8 32.25L208.25 32.15Q208 31.8 208.45 31.45Q208.9 31.15 209 31.6Q209.15 32.05 208.8 32.25M237.9 27.55Q237.75 27.3 238.05 27.2Q238.3 27.1 238.45 27.3L238.3 27.65Q238.05 27.8 237.9 27.55M233.85 35.65Q233.7 35.4 233.95 35.25L234.35 35.3Q234.5 35.5 234.25 35.7L233.85 35.65M229.65 26.35Q229.5 26.05 229.8 25.9Q230.1 25.75 230.3 26.05L230.15 26.5L229.65 26.35M222.85 27.15Q222.7 26.85 222.95 26.65L223.4 26.7Q223.65 27.05 223.3 27.2L222.85 27.15M228.55 40.95Q228.25 40.45 228.8 40.1Q229.3 39.75 229.65 40.25Q230 40.8 229.4 41.1Q228.8 41.45 228.55 40.95M231.2 43.2Q230.7 43.5 230.4 43Q230.1 42.45 230.6 42.1Q231.1 41.7 231.4 42.25Q231.7 42.85 231.2 43.2M224.4 46.95Q224.2 46.5 224.6 46.35Q225 46.15 225.3 46.6Q225.6 47.05 225.1 47.25Q224.55 47.4 224.4 46.95M229.3 47.75Q228.85 48 228.65 47.6Q228.45 47.2 228.8 46.95Q229.2 46.7 229.5 47.1Q229.75 47.5 229.3 47.75M242.55 48.6Q242.15 48.8 241.85 48.4Q241.55 48.05 242.05 47.75Q242.6 47.5 242.8 47.95Q243 48.4 242.55 48.6M191.25 2.4Q191.15 2.1 191.4 1.95L191.85 2.05L191.7 2.5L191.25 2.4M167.3 15.2Q167.05 14.9 167.45 14.6Q167.9 14.3 168 14.7Q168.1 15.1 167.8 15.3L167.3 15.2M171.7 13Q171.45 12.6 171.85 12.35L172.5 12.45Q172.75 12.75 172.35 13.05L171.7 13M179 39.4Q178.65 38.95 179.3 38.5Q179.9 38.05 180.05 38.65Q180.2 39.3 179.75 39.6Q179.3 39.9 179 39.4M199.8 28.2Q199.6 27.8 200 27.65Q200.35 27.45 200.5 27.8Q200.7 28.1 200.35 28.35Q200 28.6 199.8 28.2M185.9 30.6Q185.65 30.2 186.05 29.95L186.7 30.05Q186.95 30.35 186.55 30.65L185.9 30.6M187.2 33.5Q186.9 33.2 187.35 32.95Q187.8 32.7 187.95 33.1Q188.1 33.5 187.8 33.7L187.45 33.75L187.5 33.8Q187.75 34.35 187.2 34.7L186.45 34.65Q186.2 34.2 186.7 33.75Q187 33.5 187.25 33.55L187.2 33.5M190.45 31.5Q190.25 31.15 190.6 30.95L191.15 31.05Q191.35 31.3 191 31.55L190.45 31.5M184.2 40.2Q183.9 39.8 184.45 39.4Q185 39 185.15 39.55Q185.3 40.1 184.9 40.35Q184.5 40.65 184.2 40.2M198.3 48.35Q198.05 48.1 198.35 47.75Q198.6 47.45 198.95 47.85Q199.25 48.25 198.85 48.45L198.3 48.35M200.4 58.2Q200.3 58 200.5 57.85L200.85 57.95L200.75 58.3L200.4 58.2M182.9 57.9Q182.6 57.55 183.1 57.3Q183.55 57 183.75 57.45Q183.9 57.9 183.55 58.05L182.9 57.9M174.1 55.6Q173.75 55.85 173.55 55.45Q173.35 55.05 173.75 54.9Q174.1 54.7 174.25 55.05Q174.45 55.35 174.1 55.6M165.35 50.35Q165.1 49.95 165.5 49.7L166.15 49.8Q166.4 50.1 166 50.4L165.35 50.35M167.85 59.8Q167.5 59.2 168.05 58.85Q168.6 58.55 169 59Q169.4 59.45 168.8 59.9Q168.2 60.35 167.85 59.8M182.95 95.25Q182.65 95.4 182.5 95.15Q182.35 94.9 182.65 94.7Q183 94.5 183.1 94.8L182.95 95.25M242.1 51.45Q241.85 51.1 242.3 50.85Q242.75 50.65 242.95 51.05Q243.1 51.4 242.75 51.6Q242.35 51.8 242.1 51.45M233.45 52.3Q233.2 51.8 233.65 51.55Q234.1 51.3 234.25 51.75Q234.4 52.2 234.05 52.5Q233.65 52.8 233.45 52.3M229.6 59.65Q229.4 59.45 229.7 59.3Q230 59.1 230.1 59.4Q230.25 59.65 230 59.8L229.6 59.65M226.5 71Q226.3 70.6 226.7 70.25Q227.1 69.9 227.35 70.45Q227.65 71 227.2 71.2Q226.75 71.35 226.5 71M208.4 53Q208.2 52.6 208.6 52.35Q209.05 52.1 209.25 52.55Q209.45 52.95 209 53.2Q208.6 53.45 208.4 53M209.2 97.9Q208.95 97.5 209.5 97.2Q210 96.9 210.2 97.35Q210.4 97.8 209.9 98.05Q209.45 98.3 209.2 97.9M234.3 78.1Q233.85 78.25 233.6 77.9Q233.4 77.5 233.8 77.15Q234.2 76.8 234.45 77.35Q234.75 77.9 234.3 78.1M236.6 89.9Q236.25 90.15 236 89.7Q235.8 89.3 236.05 89.1Q236.3 88.9 236.6 89.3Q236.95 89.7 236.6 89.9M242.8 106.3Q243 106.15 243.25 106.5Q243.55 106.8 243.25 107Q242.95 107.2 242.75 106.85Q242.6 106.5 242.8 106.3M233.95 105L233.45 104.9Q233.25 104.55 233.6 104.3Q233.95 104.1 234.1 104.45Q234.3 104.75 233.95 105M222.95 109.9Q222.75 109.55 223.2 109.3Q223.6 109.05 223.75 109.45Q223.95 109.85 223.55 110.05Q223.15 110.25 222.95 109.9M226.85 120.2Q226.55 119.65 227.1 119.3Q227.65 118.95 227.95 119.5Q228.2 120.05 227.7 120.4Q227.15 120.75 226.85 120.2M242.85 112.2Q243.3 111.95 243.55 112.35Q243.75 112.8 243.35 113.1Q242.9 113.4 242.65 112.95Q242.4 112.5 242.85 112.2M236.55 121.25Q236.3 120.8 236.75 120.5Q237.2 120.25 237.45 120.65Q237.65 121.1 237.25 121.4Q236.8 121.7 236.55 121.25M218.45 100.35L218.05 100.2Q217.85 99.85 218.05 99.7Q218.25 99.55 218.5 99.85Q218.75 100.15 218.45 100.35M200.9 102.05Q200.7 101.7 201.1 101.4Q201.45 101.1 201.7 101.6Q201.95 102.1 201.5 102.25Q201.1 102.45 200.9 102.05M200.5 108.2Q200.2 107.7 200.55 107.4Q200.85 107.15 201.25 107.65Q201.65 108.2 201.2 108.45Q200.75 108.75 200.5 108.2M307.5 104.5Q307.15 104.05 307.7 103.85Q308.3 103.6 308.6 104Q308.95 104.35 308.35 104.65Q307.8 104.95 307.5 104.5M304.1 113.75Q303.5 113.9 303.2 113.55Q302.9 113.2 303.35 112.8Q303.85 112.4 304.3 113.05Q304.7 113.65 304.1 113.75M298.6 108.35Q298.35 108 298.75 107.75Q299.15 107.5 299.4 107.9Q299.6 108.3 299.2 108.5L298.6 108.35M298.15 102.65Q297.7 102.95 297.55 102.65Q297.35 102.35 297.7 102.1Q298.05 101.8 298.3 102.1Q298.6 102.4 298.15 102.65M289.25 111.35Q289.4 111.55 289.2 111.65L288.85 111.55Q288.7 111.4 288.95 111.25Q289.15 111.15 289.25 111.35M295.15 121.95Q294.95 121.45 295.45 121.15Q295.95 120.85 296.25 121.4Q296.55 121.9 295.95 122.15Q295.4 122.4 295.15 121.95M302.4 128.05Q302.15 127.7 302.6 127.4Q303.05 127.15 303.25 127.6Q303.5 128 303.1 128.2Q302.7 128.4 302.4 128.05M293.9 131.95Q293.55 132.25 293.35 131.8Q293.15 131.35 293.55 131.15Q293.95 130.95 294.1 131.3Q294.25 131.65 293.9 131.95M289.45 143.95Q289.1 144.15 288.85 143.8Q288.6 143.45 289 143.25Q289.35 143.05 289.6 143.4Q289.85 143.75 289.45 143.95M297.45 146Q297.25 145.8 297.55 145.6Q297.8 145.4 297.95 145.6Q298.1 145.85 297.85 146Q297.65 146.2 297.45 146M303.05 139.6Q302.65 139.8 302.45 139.45Q302.3 139.1 302.65 138.85Q303.05 138.65 303.25 139.05Q303.5 139.4 303.05 139.6M321.7 131.55Q321.45 131.3 321.8 131.1Q322.2 130.9 322.35 131.25Q322.55 131.55 322.25 131.7Q321.95 131.85 321.7 131.55M304.55 148.15Q304.8 148.7 304.35 148.95Q303.85 149.15 303.5 148.75Q303.2 148.3 303.75 148Q304.25 147.65 304.55 148.15M315.1 144.7L314.25 144.65Q313.8 144.25 314.4 143.8L315.25 143.85Q315.55 144.35 315.1 144.7M277.05 106.45Q276.75 106.1 277.15 105.8L277.8 105.85Q278.05 106.15 277.75 106.5L277.05 106.45M264.7 101.35Q264.25 101.55 264.05 101.15Q263.8 100.75 264.25 100.55Q264.65 100.3 264.9 100.75Q265.2 101.2 264.7 101.35M276.2 118.2Q276.1 117.9 276.5 117.7L277.1 117.75Q277.35 118.05 276.8 118.3L276.2 118.2M277.9 112.2Q277.6 112.3 277.45 112.05Q277.3 111.75 277.6 111.6Q277.85 111.45 278.05 111.75Q278.25 112.05 277.9 112.2M253.6 109.05Q253.1 109.15 252.8 108.85Q252.55 108.55 252.95 108.2Q253.4 107.85 253.75 108.4Q254.15 108.95 253.6 109.05M250.45 103.25Q250.25 102.95 250.6 102.65Q250.95 102.35 251.15 102.8Q251.4 103.25 251 103.45Q250.6 103.6 250.45 103.25M251.3 144.15Q251 143.85 251.4 143.55L252.05 143.6Q252.25 143.95 251.95 144.2L251.3 144.15M254.3 140.2Q254.05 139.9 254.45 139.6Q254.85 139.25 255.2 139.75Q255.55 140.3 255.05 140.35L254.3 140.2M267.3 128.3Q266.75 127.75 267.4 127.3L268.45 127.35Q268.9 127.85 268.35 128.35L267.3 128.3M265.85 145.9Q265.75 145.55 266.15 145.3L266.8 145.4Q267.05 145.7 266.5 145.95L265.85 145.9M266.5 149.35Q266.15 149 266.6 148.65L267.35 148.7Q267.6 149.1 267.2 149.4L266.5 149.35M281.65 172.1Q281.5 171.8 281.75 171.7L282.1 171.8L282 172.15L281.65 172.1M314.3 153.5Q314.1 153.05 314.5 152.85Q314.9 152.65 315.05 153Q315.2 153.35 314.85 153.65Q314.5 153.95 314.3 153.5M306.8 168.55Q306.25 168.85 305.85 168.3Q305.5 167.8 306.1 167.5Q306.65 167.2 307 167.7Q307.3 168.25 306.8 168.55M289.35 154.25Q289.1 153.9 289.5 153.7Q289.85 153.5 290.1 153.85Q290.35 154.2 289.95 154.4Q289.6 154.6 289.35 154.25M290.75 172.25L290.15 172.1Q289.9 171.75 290.3 171.5Q290.7 171.25 290.95 171.65Q291.15 172.05 290.75 172.25M158.3 0.95Q157.95 1.2 157.75 0.8Q157.55 0.4 157.95 0.25Q158.3 0.05 158.45 0.4Q158.65 0.7 158.3 0.95M148.1 6.25Q147.8 5.75 148.3 5.45L149.1 5.55Q149.4 5.95 148.9 6.35L148.1 6.25M144.55 23.45Q144.3 23.15 144.7 22.85Q145.15 22.55 145.25 22.95Q145.35 23.35 145.05 23.55L144.55 23.45M123.85 10.75Q123.6 10.4 124.05 10.05Q124.5 9.75 124.6 10.2Q124.75 10.65 124.4 10.85L123.85 10.75M127.85 11.9Q128.1 12.2 127.7 12.5L127.05 12.45Q126.8 12.05 127.2 11.8L127.85 11.9M128.65 14.75Q128.3 14.3 128.9 13.95Q129.5 13.6 129.75 14.2Q129.95 14.75 129.5 14.95Q129.05 15.2 128.65 14.75M129.15 35.5Q128.9 35.15 129.35 34.8Q129.8 34.5 129.9 34.95Q130.05 35.4 129.7 35.6L129.15 35.5M125.85 26.2Q125.6 25.7 126.05 25.5Q126.55 25.3 126.7 25.7Q126.9 26.1 126.5 26.4Q126.1 26.7 125.85 26.2M161.4 28.25Q161.2 27.85 161.6 27.7Q161.95 27.5 162.1 27.85Q162.3 28.15 161.95 28.4Q161.6 28.65 161.4 28.25M160.85 28.35Q160.5 28.5 160.25 28.15Q159.95 27.85 160.4 27.6Q160.85 27.35 161 27.75Q161.15 28.15 160.85 28.35M146.65 26.05L146 26Q145.75 25.6 146.15 25.35L146.8 25.45Q147.05 25.75 146.65 26.05M120.7 2.5Q120.35 2.75 120.15 2.35Q119.95 1.95 120.35 1.8Q120.7 1.6 120.85 1.95Q121.05 2.25 120.7 2.5M110.85 19.9Q111.3 19.6 111.5 20.05Q111.65 20.5 111.3 20.65Q110.95 20.85 110.65 20.5Q110.35 20.15 110.85 19.9M113.15 16.95Q112.9 16.6 113.35 16.25Q113.8 15.95 113.9 16.4Q114.05 16.85 113.7 17.05L113.15 16.95M81.1 10.3Q80.9 9.95 81.25 9.75Q81.55 9.55 81.8 9.85Q82 10.1 81.65 10.35L81.1 10.3M94.25 29.5Q93.95 29.2 94.4 28.95Q94.85 28.7 95 29.1Q95.15 29.5 94.85 29.7Q94.5 29.85 94.25 29.5M97.2 28.2Q97.05 27.95 97.3 27.8L97.7 27.85Q97.85 28.05 97.6 28.25L97.2 28.2M90.9 31.2Q91.1 31.1 91.2 31.3L91.1 31.65Q90.9 31.8 90.75 31.55Q90.65 31.3 90.9 31.2M86.55 48.55Q86.35 48.3 86.65 48.1L87.15 48.15Q87.35 48.4 87.05 48.65L86.55 48.55M119.25 28.45Q119.1 28.2 119.4 27.95Q119.75 27.75 119.8 28.05L119.65 28.5L119.25 28.45M117.45 30L117.05 29.9Q116.9 29.7 117.15 29.55L117.55 29.65L117.45 30M114.85 30.6L114.45 30.5Q114.25 30.25 114.6 30Q114.95 29.75 115.05 30.1L114.85 30.6M107.65 36.3L107.25 36.25Q107.1 36 107.4 35.75Q107.75 35.55 107.8 35.85L107.65 36.3M104.75 36.4Q104.65 36.1 104.9 35.95L105.35 36.05L105.2 36.5Q104.9 36.7 104.75 36.4M109.8 49.45Q110 49.75 109.65 50Q109.3 50.25 109.1 49.85Q108.9 49.45 109.3 49.3Q109.65 49.1 109.8 49.45M113.65 50.6Q113.3 50.75 113.05 50.4Q112.75 50.1 113.2 49.85Q113.65 49.6 113.8 50Q113.95 50.4 113.65 50.6M96.5 50.65Q96.05 50.9 95.65 50.45Q95.3 50 95.9 49.65Q96.5 49.3 96.75 49.9Q96.95 50.45 96.5 50.65M62.55 4.25Q62.2 3.75 62.7 3.45L63.55 3.55Q63.9 3.95 63.4 4.35L62.55 4.25M80.4 21.05Q80 21.3 79.75 20.9Q79.45 20.5 80 20.1Q80.5 19.75 80.65 20.25L80.4 21.05M77.85 16.75Q77.5 16.9 77.15 16.55Q76.85 16.2 77.35 15.9Q77.85 15.6 78.05 16.1Q78.25 16.55 77.85 16.75M49.95 2.1Q49.75 1.65 50.15 1.45L50.7 1.6Q50.85 1.95 50.5 2.25Q50.15 2.5 49.95 2.1M42.2 31.15Q41.9 30.75 42.45 30.45Q42.95 30.1 43.25 30.6Q43.6 31.1 43.05 31.35Q42.5 31.6 42.2 31.15M47.9 40.2L47.5 40.15Q47.35 39.9 47.6 39.75L48 39.8Q48.15 40 47.9 40.2M58.6 45.8Q58.35 45.45 58.7 45.25L59.3 45.3Q59.55 45.6 59.2 45.9L58.6 45.8M57.85 44.45Q57.65 44.2 57.95 44Q58.3 43.8 58.45 44.1L58.3 44.55Q58.05 44.7 57.85 44.45M65.9 26.55Q65.7 26.15 66.1 26Q66.45 25.8 66.6 26.15Q66.8 26.45 66.45 26.7Q66.1 26.95 65.9 26.55M71.25 48.75Q70.85 49 70.65 48.65Q70.45 48.25 70.85 48.1Q71.25 47.9 71.45 48.2L71.25 48.75M18.45 10.9Q18.15 10.5 18.7 10.2Q19.2 9.85 19.5 10.35Q19.85 10.85 19.3 11.1Q18.75 11.35 18.45 10.9M17.9 26.7Q17.3 27.1 17 26.45Q16.7 25.8 17.25 25.55Q17.75 25.25 18.1 25.8Q18.45 26.3 17.9 26.7M11.1 33Q10.7 33.3 10.5 32.9Q10.25 32.5 10.7 32.3Q11.15 32.1 11.3 32.45Q11.5 32.75 11.1 33M34.5 30.55Q34.4 30.3 34.6 30.25L34.9 30.3L34.8 30.6L34.5 30.55M34.45 32.9Q33.85 33.3 33.55 32.6Q33.2 31.95 33.75 31.65Q34.3 31.4 34.65 31.95Q35.05 32.5 34.45 32.9M22.25 27.55Q22.35 28 22 28.25L21.65 28.35Q21.7 28.7 21.4 28.85Q21 29.05 20.65 28.65Q20.3 28.3 20.85 27.95L21.35 27.85L21.65 27.4Q22.15 27.05 22.25 27.55M21 42.6Q20.7 42.85 20.45 42.4Q20.2 41.95 20.6 41.75Q21 41.55 21.15 41.95L21 42.6M40.1 43.5Q39.95 43.3 40.25 43.1Q40.5 42.9 40.6 43.2L40.45 43.6L40.1 43.5M36.6 47.2Q36.3 46.65 36.8 46.4Q37.25 46.15 37.5 46.65Q37.7 47.15 37.3 47.45Q36.9 47.75 36.6 47.2M31.7 60.05Q31.3 60.35 31.05 59.9Q30.8 59.5 31.3 59.3L31.95 59.4Q32.15 59.75 31.7 60.05M22.65 52.7Q22.4 52.4 22.8 52.15Q23.2 51.9 23.45 52.3Q23.7 52.65 23.3 52.85Q22.9 53.05 22.65 52.7M34.8 73.75Q34.6 73.5 34.9 73.3Q35.25 73.1 35.45 73.4Q35.65 73.7 35.3 73.9L34.8 73.75M4.1 51.8Q3.85 51.4 4.3 51.2Q4.75 51 4.9 51.35Q5.1 51.65 4.7 51.9Q4.3 52.2 4.1 51.8M6.3 51.05Q5.95 51.3 5.8 50.9Q5.6 50.5 5.9 50.35Q6.2 50.2 6.4 50.5Q6.6 50.85 6.3 51.05M7.15 73.9Q7.4 74.25 7 74.45Q6.6 74.65 6.35 74.3Q6.1 74 6.5 73.75Q6.9 73.5 7.15 73.9M8.25 78.9Q7.9 78.25 8.45 77.95Q9 77.7 9.35 78.25Q9.75 78.8 9.15 79.2Q8.55 79.6 8.25 78.9M21.95 97.65Q21.7 97.2 22.2 96.95Q22.7 96.75 22.95 97.1Q23.15 97.45 22.7 97.75Q22.2 98.1 21.95 97.65M63.1 69.2Q62.8 69.45 62.55 69Q62.3 68.55 62.7 68.35Q63.1 68.15 63.25 68.55L63.1 69.2M41.55 58.35Q41.3 58 41.8 57.65Q42.3 57.3 42.4 57.8Q42.5 58.25 42.15 58.5Q41.8 58.75 41.55 58.35M44.3 68.9Q44 68.35 44.45 68.1Q44.9 67.85 45.2 68.35Q45.55 68.8 45.05 69.15Q44.55 69.5 44.3 68.9M58.9 73.8Q59.1 74.1 58.7 74.35Q58.3 74.65 58.1 74.25Q57.85 73.85 58.3 73.65Q58.75 73.45 58.9 73.8M56 64.2Q55.65 64.45 55.45 64.05Q55.25 63.6 55.6 63.45Q55.9 63.25 56.15 63.6Q56.4 63.95 56 64.2M59 75.55Q58.75 75.2 59.2 74.95Q59.6 74.7 59.9 75.1Q60.15 75.5 59.7 75.7Q59.25 75.9 59 75.55M52.55 79.95Q52.7 80.35 52.4 80.55Q52.1 80.8 51.9 80.4Q51.65 79.95 52 79.8Q52.4 79.6 52.55 79.95M-1.75 48.35Q-2.1 47.7 -1.5 47.4Q-0.95 47.1 -0.7 47.7Q-0.45 48.25 -0.9 48.6Q-1.4 49 -1.75 48.35" />
</g>
<g id="PathID_662" transform="matrix(1, 0, 0, 1, 2, 7)">
<linearGradient
id="LinearGradID_273" gradientUnits="userSpaceOnUse" gradientTransform="matrix(0.197662, -0.114105, 0.0147705, 0.0264893, 561.7, 337.85)" spreadMethod ="pad" x1="-819.2" y1="0" x2="819.2" y2="0" >
<stop  offset="0.0588235" style="stop-color:#F5FDFF;stop-opacity:0.301961" />
<stop  offset="0.992157" style="stop-color:#EEFBFF;stop-opacity:0" />
</linearGradient>
<path style="fill:url(#LinearGradID_273) " d="M660.2 92.3Q660.95 92.8 662 92.8Q663.65 92.85 671.3 89.6Q679.65 86.1 683 85.55Q697.85 83.1 702.6 85.8Q705 87.2 704.5 90.1L706.1 90.35Q706.9 90.3 710.5 94.35Q714.05 98.35 731.25 113.05Q748.4 127.55 761.6 128.9Q774.75 130.15 782.5 134.45Q780.9 135.55 777.6 135.95L751 137.05Q727.75 137.7 709 139.95L667.75 139.55L638.9 140.9L620 142.3L594 142.15L585 142.45Q584.8 142.55 585.05 142.7Q585.3 142.9 584.9 142.95Q582 143.7 532 144.05L487.25 143.7L478 143.95L459.35 142.9L440.5 143.65L433.2 142.9Q422.9 144.65 412 144.45L407.95 144.05L395 145.4L370 144.95L367.2 143.7Q366.25 143.2 362.6 142.9L352.15 141.95L302 139.05L395.25 140.45L408 139.8L409.15 139.95L413.15 139.05Q422.2 136.95 431 135.8Q447.15 133.45 453.25 135.45L456.05 133.55Q462.35 130.05 469.2 130.3L469.75 129.7L471.6 129.45Q475.65 128.55 477.25 126.95Q479.15 124.8 480.5 124.2Q483.85 122.95 493 122.55Q497.2 118.35 505.3 113.8Q518.85 106.3 531.5 106.45Q539.75 106.55 545.65 109.55L549.45 111.55Q551.4 112.45 553 112.55L557.9 109.8Q563.4 106.85 569.5 107.05L574.7 107.8L579.85 108.6Q580.95 108.7 585.15 105.55Q590.95 101.3 595.85 98.7Q614.6 88.8 642 89.2Q654.35 89.35 658.3 91.1L660.2 92.3" />
<linearGradient
id="LinearGradID_274" gradientUnits="userSpaceOnUse" gradientTransform="matrix(0.0479736, -0.0479736, 0.0215149, 0.0215149, 423.9, 77.9)" spreadMethod ="pad" x1="-819.2" y1="0" x2="819.2" y2="0" >
<stop  offset="0.0431373" style="stop-color:#F5FDFF;stop-opacity:0.501961" />
<stop  offset="0.992157" style="stop-color:#EEFBFF;stop-opacity:0" />
</linearGradient>
<path style="fill:url(#LinearGradID_274) " d="M505.4 70.75Q509.1 72.45 509.1 75.75Q509.1 77.8 508.3 78.35Q507.05 79.3 502.2 79.85L452.35 84.2L401.35 84.2L392.45 83.35L382.95 82.95L373.65 83.95L364.35 85.05Q361.9 85.05 361 82.95Q360.35 81.35 360.6 79.55L350 79.8L342.85 79.95Q338.05 79.95 336.85 77.35L336.6 74.5Q336.6 70.7 344.75 66.5Q351.35 63.1 359.1 61.2Q370.25 58.5 377.1 58.95L380.3 59Q381.5 58.85 382.85 57.6Q386.9 53.95 392.85 50.7Q412.1 40.2 426.7 44.1Q432.95 45.75 436.55 49.95Q440.1 54 440.1 59.5L441.6 58.35Q442.95 57.25 444.8 56.6Q450.55 54.25 461.85 54.25Q469.6 54.25 480.55 59.35Q486.2 61.85 491.85 65.2Q498.4 68.25 505.4 70.75" />
<linearGradient
id="LinearGradID_275" gradientUnits="userSpaceOnUse" gradientTransform="matrix(0.032135, 0.0185242, -0.013092, 0.0146027, 214, 162.1)" spreadMethod ="pad" x1="-819.2" y1="0" x2="819.2" y2="0" >
<stop  offset="0.0431373" style="stop-color:#F5FDFF;stop-opacity:0.65098" />
<stop  offset="0.992157" style="stop-color:#EEFBFF;stop-opacity:0" />
</linearGradient>
<path style="fill:url(#LinearGradID_275) " d="M199.65 171.8Q202.65 171.8 207.25 168.95L216.85 163.2Q232.05 155.2 253.55 157.95Q257 158.65 259 161.3L261.8 165.3L272.5 164.9Q274.75 164.8 295.75 169.65Q306.25 171.95 363.3 175.25L314.3 178.3L303.9 177.3Q299.6 176.55 249.65 180.5Q199.35 184.5 183.7 182.8Q168 181.05 166.1 179.25Q164.2 177.4 169 177.35Q173.8 177.3 176.8 174Q181.25 168.9 190.55 168.9Q195.95 168.9 197.3 170.4L198.05 171.4Q198.55 171.8 199.65 171.8" />
<linearGradient
id="LinearGradID_276" gradientUnits="userSpaceOnUse" gradientTransform="matrix(-0.00608826, -0.0227203, 0.0212402, -0.00569153, 135.9, 113.15)" spreadMethod ="pad" x1="-819.2" y1="0" x2="819.2" y2="0" >
<stop  offset="0.0431373" style="stop-color:#F5FDFF;stop-opacity:0.65098" />
<stop  offset="0.992157" style="stop-color:#EEFBFF;stop-opacity:0" />
</linearGradient>
<path style="fill:url(#LinearGradID_276) " d="M70.3 90.75Q73.75 92.4 75.85 96.35Q77.7 99.85 78 103.5L79.9 102.55Q82.25 101.4 84.95 100.45Q93.5 97.4 101.8 97.4Q111.75 97.4 117.85 99.75L121.6 101.35Q123.4 102.05 124.95 102.05L127.8 102.55L131.2 103.5Q215.8 113.95 246.25 112.55Q225.05 119.15 175.8 115.5L115.7 118.1L68.2 119.9L41.2 118.3Q13.15 116.75 3.8 119.05Q10.35 116.55 14.05 113.65L20.9 107.95Q30.35 100.55 39.6 101.9L42.2 98.65Q44 96.2 45.75 94.75Q49 92.05 54.45 90.75L70.3 90.75" />
<linearGradient
id="LinearGradID_277" gradientUnits="userSpaceOnUse" gradientTransform="matrix(-0.0479736, -0.0479736, -0.0215149, 0.0215149, 22.2, 34.85)" spreadMethod ="pad" x1="-819.2" y1="0" x2="819.2" y2="0" >
<stop  offset="0.0431373" style="stop-color:#F5FDFF;stop-opacity:0.501961" />
<stop  offset="0.992157" style="stop-color:#EEFBFF;stop-opacity:0" />
</linearGradient>
<path style="fill:url(#LinearGradID_277) " d="M101.35 23.45Q109.5 27.65 109.5 31.45L109.25 34.3Q108.05 36.9 103.25 36.9L96.1 36.75L85.5 36.5Q85.75 38.3 85.1 39.9Q84.2 42 81.75 42L72.45 40.9L63.15 39.9L53.65 40.3L44.75 41.15L-2 41.15L-2 12.5Q-0.15 12.95 1.3 13.55Q3.15 14.2 4.5 15.3L6 16.45Q6 10.95 9.55 6.9Q13.15 2.7 19.4 1.05Q34 -2.85 53.25 7.65Q59.2 10.9 63.25 14.55Q64.6 15.8 65.8 15.95L69 15.9Q75.85 15.45 87 18.15Q94.75 20.05 101.35 23.45" />
<linearGradient
id="LinearGradID_278" gradientUnits="userSpaceOnUse" gradientTransform="matrix(-0.0655365, -0.0175629, 0.00787354, -0.0293884, 75.8, 80)" spreadMethod ="pad" x1="-819.2" y1="0" x2="819.2" y2="0" >
<stop  offset="0.0431373" style="stop-color:#F5FDFF;stop-opacity:0.65098" />
<stop  offset="0.992157" style="stop-color:#EEFBFF;stop-opacity:0" />
</linearGradient>
<path style="fill:url(#LinearGradID_278) " d="M54.45 90.75L45.55 89.9L36.05 89.5L26.75 90.5L17.45 91.6Q15 91.6 14.1 89.5Q13.45 87.9 13.7 86.1L3.1 86.35L-0.1 86.45L-0.1 72.05Q5.65 69.35 12.2 67.75Q23.35 65.05 30.2 65.5L33.4 65.55Q34.6 65.4 35.95 64.15Q40 60.5 45.95 57.25Q65.2 46.75 79.8 50.65Q86.05 52.3 89.65 56.5Q93.2 60.55 93.2 66.05L94.7 64.9Q96.05 63.8 97.9 63.15Q103.65 60.8 114.95 60.8Q122.7 60.8 133.65 65.9Q139.3 68.4 144.95 71.75Q151.5 74.8 158.5 77.3Q162.2 79 162.2 82.3Q162.2 84.35 161.4 84.9Q160.15 85.85 155.3 86.4L105.45 90.75L70.3 90.75L54.45 90.75" />
</g>
</svg>
