<?xml version="1.0" encoding="utf-8"?>
<svg version="1.1" id="Layer_1"
xmlns="http://www.w3.org/2000/svg"
xmlns:xlink="http://www.w3.org/1999/xlink"
width="123px" height="109px"
xml:space="preserve">
<g id="PathID_609" transform="matrix(1, 0, 0, 1, 64.35, 192.5)">
<path style="fill:#FFD2E5;fill-opacity:1" d="M-63.55 -104Q-62.75 -105.1 -60.85 -105.3L-58.15 -105.2Q-57.95 -104.1 -58.05 -103.7Q-58.3 -102.75 -59.75 -101.85Q-61.35 -100.85 -62.55 -101.2L-63.45 -101.5L-62.4 -102.7L-62.5 -102.7L-63.15 -102.5L-63.9 -102.45L-64.2 -102.75L-63.55 -104" />
<path style="fill:none;stroke-width:0.7;stroke-linecap:round;stroke-linejoin:round;stroke-miterlimit:3;stroke:#861F32;stroke-opacity:0.4" d="M-64.2 -102.75L-63.9 -102.45L-63.15 -102.5L-62.5 -102.7L-62.4 -102.7L-63.45 -101.5L-62.55 -101.2Q-61.35 -100.85 -59.75 -101.85Q-58.3 -102.75 -58.05 -103.7Q-57.95 -104.1 -58.15 -105.2L-60.85 -105.3Q-62.75 -105.1 -63.55 -104L-64.2 -102.75z" />
</g>
<g id="PathID_610" transform="matrix(1, 0, 0, 1, 64.35, 192.5)">
<path style="fill:#FFD2E5;fill-opacity:1" d="M-59.5 -152.6L-56.5 -152.4Q-54.75 -151.6 -54.2 -150.95L-54.85 -149.6Q-55.6 -148.95 -57.3 -148.85Q-59.2 -148.8 -60 -149.7L-60.65 -150.4L-59.15 -150.95L-59.25 -151L-59.9 -151.1L-60.6 -151.45L-60.7 -151.9Q-60.65 -152.15 -59.5 -152.6" />
<path style="fill:none;stroke-width:0.7;stroke-linecap:round;stroke-linejoin:round;stroke-miterlimit:3;stroke:#861F32;stroke-opacity:0.4" d="M-60.7 -151.9L-60.6 -151.45L-59.9 -151.1L-59.25 -151L-59.15 -150.95L-60.65 -150.4L-60 -149.7Q-59.2 -148.8 -57.3 -148.85Q-55.6 -148.95 -54.85 -149.6L-54.2 -150.95Q-54.75 -151.6 -56.5 -152.4L-59.5 -152.6Q-60.65 -152.15 -60.7 -151.9z" />
</g>
<g id="PathID_611" transform="matrix(1, 0, 0, 1, 64.35, 192.5)">
<path style="fill:#FFD2E5;fill-opacity:1" d="M51.7 -152.8L51.8 -154.3L54.55 -154.4Q56.4 -154.2 57.25 -153.05L57.9 -151.85L57.6 -151.5L56.85 -151.55L56.2 -151.8L56.1 -151.85L57.1 -150.6L56.2 -150.3Q55.05 -149.9 53.4 -150.9Q52 -151.85 51.7 -152.8" />
<path style="fill:none;stroke-width:0.7;stroke-linecap:round;stroke-linejoin:round;stroke-miterlimit:3;stroke:#861F32;stroke-opacity:0.4" d="M51.7 -152.8L51.8 -154.3L54.55 -154.4Q56.4 -154.2 57.25 -153.05L57.9 -151.85L57.6 -151.5L56.85 -151.55L56.2 -151.8L56.1 -151.85L57.1 -150.6L56.2 -150.3Q55.05 -149.9 53.4 -150.9Q52 -151.85 51.7 -152.8z" />
</g>
<g id="PathID_612" transform="matrix(1, 0, 0, 1, 64.35, 192.5)">
<path style="fill:#AA768A;fill-opacity:1" d="M12.25 -87.9Q13.5 -86.95 13.6 -85.75Q13.75 -84.85 13.55 -84.65L13.25 -84.5L12.7 -84.9L12.25 -85.4L12.5 -84.1L11.75 -84.25Q10.7 -84.45 9.95 -85.8Q9.3 -87.1 9.5 -87.95L10.2 -88.95L12.25 -87.9" />
<path style="fill:none;stroke-width:0.7;stroke-linecap:round;stroke-linejoin:round;stroke-miterlimit:3;stroke:#861F32;stroke-opacity:0.4" d="M12.25 -87.9Q13.5 -86.95 13.6 -85.75Q13.75 -84.85 13.55 -84.65L13.25 -84.5L12.7 -84.9L12.25 -85.4L12.5 -84.1L11.75 -84.25Q10.7 -84.45 9.95 -85.8Q9.3 -87.1 9.5 -87.95L10.2 -88.95L12.25 -87.9z" />
</g>
<g id="PathID_613" transform="matrix(1, 0, 0, 1, 64.35, 192.5)">
<path style="fill:#FFD2E5;fill-opacity:1" d="M-28.35 -189.75L-28.3 -190.9L-26.5 -190.1L-26.55 -190.25L-27 -190.9L-27.3 -191.8L-27 -192.3Q-26.7 -192.5 -25.3 -191.9L-24.15 -191.15Q-23.35 -190.45 -22.95 -189.15Q-22.2 -187 -22.3 -185.9Q-23.6 -185.3 -24.05 -185.25Q-25.3 -185.3 -26.85 -186.65Q-28.5 -188.25 -28.35 -189.75" />
<path style="fill:none;stroke-width:0.7;stroke-linecap:round;stroke-linejoin:round;stroke-miterlimit:3;stroke:#861F32;stroke-opacity:0.4" d="M-26.85 -186.65Q-25.3 -185.3 -24.05 -185.25Q-23.6 -185.3 -22.3 -185.9Q-22.2 -187 -22.95 -189.15Q-23.35 -190.45 -24.15 -191.15L-25.3 -191.9Q-26.7 -192.5 -27 -192.3L-27.3 -191.8L-27 -190.9L-26.55 -190.25L-26.5 -190.1L-28.3 -190.9L-28.35 -189.75Q-28.5 -188.25 -26.85 -186.65z" />
</g>
</svg>
