<?xml version="1.0" encoding="utf-8"?>
<svg version="1.1" id="Layer_1"
xmlns="http://www.w3.org/2000/svg"
xmlns:xlink="http://www.w3.org/1999/xlink"
width="65px" height="37px"
xml:space="preserve">
<g id="PathID_764" transform="matrix(1, 0, 0, 1, 0.1, 0.1)">
<linearGradient
id="LinearGradID_344" gradientUnits="userSpaceOnUse" gradientTransform="matrix(0.00561523, 0.00971985, -0.0126801, 0.00730896, 45.2, 20.25)" spreadMethod ="pad" x1="-819.2" y1="0" x2="819.2" y2="0" >
<stop  offset="0" style="stop-color:#808080;stop-opacity:1" />
<stop  offset="1" style="stop-color:#5D5D5D;stop-opacity:1" />
</linearGradient>
<path style="fill:url(#LinearGradID_344) " d="M59.2 14Q60.25 17.75 58.15 21.55L57.9 21.95Q52.7 26.75 46.55 26.3L46.25 25.8Q43.85 21.85 43.65 16.5Q41.4 19.2 40.3 22.5Q38.05 19.35 37.45 15.5L36.65 17.05Q35.4 19.7 35.65 22.55L32.1 20.3L32.9 22.6L29.55 19.6L31.6 23.8Q28.15 25.65 26.7 28.9L25.85 28.35Q25.7 22.6 27.25 19.9Q27.3 17.05 26.7 16Q25.6 13.95 26.05 13.4Q26.4 13 28.35 15.3Q30.4 17.65 31.1 17.3Q31.8 16.95 31.35 14.3Q30.75 11.05 31.1 9.9L34.55 16.65L34.35 12.85L34.3 11.2Q34.2 8 34.7 7.85Q35.1 7.75 36.95 10.25Q38.75 12.65 39.05 12.25Q39.35 11.85 38.35 9.1Q37.35 6.4 37.6 6.15Q37.95 5.85 44.25 8.75L50.5 11.7L44.6 4.9Q50.3 4.85 55.2 7.35L57.65 9.95Q59.6 8.95 61.15 8.9Q62.85 8.85 64.1 9.95Q62.65 12.95 59.2 14" />
<linearGradient
id="LinearGradID_345" gradientUnits="userSpaceOnUse" gradientTransform="matrix(0.0156097, 0.0106659, -0.00881958, 0.0129089, 45.45, 22.75)" spreadMethod ="pad" x1="-819.2" y1="0" x2="819.2" y2="0" >
<stop  offset="0" style="stop-color:#666666;stop-opacity:1" />
<stop  offset="1" style="stop-color:#25282A;stop-opacity:1" />
</linearGradient>
<path style="fill:url(#LinearGradID_345) " d="M50.45 33.85Q48.5 31.6 46.35 30.2L45.1 29.45L42.85 28.5Q36.4 26.3 28.4 30.25L26.7 28.9Q28.15 25.65 31.6 23.8L29.55 19.6L32.9 22.6L32.1 20.3L35.65 22.55Q35.4 19.7 36.65 17.05L37.45 15.5Q38.05 19.35 40.3 22.5Q41.4 19.2 43.65 16.5Q43.85 21.85 46.25 25.8L46.55 26.3Q52.7 26.75 57.9 21.95L58.15 21.55Q60.25 17.75 59.2 14Q62.65 12.95 64.1 9.95Q63.55 12.95 61.05 13.65Q61.45 28.1 51.8 35.6L50.45 33.85" />
<linearGradient
id="LinearGradID_346" gradientUnits="userSpaceOnUse" gradientTransform="matrix(0.00665283, 0.00740051, -0.0128632, 0.0115356, 33.5, 8.1)" spreadMethod ="pad" x1="-819.2" y1="0" x2="819.2" y2="0" >
<stop  offset="0" style="stop-color:#C6C6C6;stop-opacity:1" />
<stop  offset="1" style="stop-color:#838383;stop-opacity:1" />
</linearGradient>
<path style="fill:url(#LinearGradID_346) " d="M21.95 26.4L21.7 22.85Q21.25 10.2 28.4 6.05Q26.8 4.1 28.95 0.35Q30.3 -1.15 32.3 3.95L34.4 3.35L36.65 2.85L42.2 2.3L45.5 2.6Q48.1 3.05 50.4 4.15L51.6 4.75L52.9 5.55L55.2 7.35Q50.3 4.85 44.6 4.9L50.5 11.7L44.25 8.75Q37.95 5.85 37.6 6.15Q37.35 6.4 38.35 9.1Q39.35 11.85 39.05 12.25Q38.75 12.65 36.95 10.25Q35.1 7.75 34.7 7.85Q34.2 8 34.3 11.2L34.35 12.85L34.55 16.65L31.1 9.9Q30.75 11.05 31.35 14.3Q31.8 16.95 31.1 17.3Q30.4 17.65 28.35 15.3Q26.4 13 26.05 13.4Q25.6 13.95 26.7 16Q27.3 17.05 27.25 19.9Q25.7 22.6 25.85 28.35Q24.75 27.6 23.65 27.1L21.95 26.4" />
<linearGradient
id="LinearGradID_347" gradientUnits="userSpaceOnUse" gradientTransform="matrix(0.0259552, 0.011322, -0.0017395, 0.0039978, 31.1, 35.55)" spreadMethod ="pad" x1="-819.2" y1="0" x2="819.2" y2="0" >
<stop  offset="0" style="stop-color:#9C9C9C;stop-opacity:1" />
<stop  offset="1" style="stop-color:#4C4C4D;stop-opacity:1" />
</linearGradient>
<path style="fill:url(#LinearGradID_347) " d="M9.95 29.55Q24.7 31 23.65 27.1Q24.75 27.6 25.85 28.35L26.7 28.9L28.4 30.25Q36.4 26.3 42.85 28.5L45.1 29.45L46.35 30.2Q47.6 32.2 45.45 33.3L41.55 34.2Q34.55 34.55 27.8 31.65Q13.75 33.1 0.35 28.9Q0.9 28.15 2.25 27.5L2.95 27.25Q1.45 29.05 9.95 29.55" />
<linearGradient
id="LinearGradID_348" gradientUnits="userSpaceOnUse" gradientTransform="matrix(0.0191498, 0.0124664, -0.0025177, 0.00386047, 25.95, 32.7)" spreadMethod ="pad" x1="-819.2" y1="0" x2="819.2" y2="0" >
<stop  offset="0.0392157" style="stop-color:#6D6D6D;stop-opacity:1" />
<stop  offset="1" style="stop-color:#2D3133;stop-opacity:1" />
</linearGradient>
<path style="fill:url(#LinearGradID_348) " d="M46.35 30.2Q48.5 31.6 50.45 33.85L51.8 35.6L51.75 35.65Q43.8 37.55 36.35 35L18.3 33.95L2.25 33.15L1.2 32.25Q-0.65 30.35 0.35 28.9Q13.75 33.1 27.8 31.65Q34.55 34.55 41.55 34.2L45.45 33.3Q47.6 32.2 46.35 30.2" />
<path style="fill:#AFAFAF;fill-opacity:1" d="M23.65 27.1Q24.7 31 9.95 29.55Q1.45 29.05 2.95 27.25L7.25 26.05Q13.35 24.6 18.4 25.45Q20.25 25.75 21.95 26.4L23.65 27.1" />
<path style="fill:none;stroke-width:0.7;stroke-linecap:round;stroke-linejoin:round;stroke-miterlimit:3;stroke:#000000;stroke-opacity:0.388235" d="M55.2 7.35L57.65 9.95Q59.6 8.95 61.15 8.9Q62.85 8.85 64.1 9.95Q63.55 12.95 61.05 13.65Q61.45 28.1 51.8 35.6L51.75 35.65Q43.8 37.55 36.35 35L18.3 33.95L2.25 33.15L1.2 32.25Q-0.65 30.35 0.35 28.9Q0.9 28.15 2.25 27.5L2.95 27.25L7.25 26.05Q13.35 24.6 18.4 25.45Q20.25 25.75 21.95 26.4L21.7 22.85Q21.25 10.2 28.4 6.05Q26.8 4.1 28.95 0.35Q30.3 -1.15 32.3 3.95L34.4 3.35L36.65 2.85L42.2 2.3L45.5 2.6Q48.1 3.05 50.4 4.15L51.6 4.75L52.9 5.55L55.2 7.35z" />
<path style="fill:none;stroke-width:0.7;stroke-linecap:round;stroke-linejoin:round;stroke-miterlimit:3;stroke:#000000;stroke-opacity:0.388235" d="M25.85 28.35L26.7 28.9" />
<path style="fill:none;stroke-width:0.7;stroke-linecap:round;stroke-linejoin:round;stroke-miterlimit:3;stroke:#000000;stroke-opacity:0.388235" d="M46.35 30.2Q48.5 31.6 50.45 33.85" />
<path style="fill:none;stroke-width:0.7;stroke-linecap:round;stroke-linejoin:round;stroke-miterlimit:3;stroke:#000000;stroke-opacity:0.388235" d="M46.35 30.2L45.1 29.45L42.85 28.5Q36.4 26.3 28.4 30.25L26.7 28.9" />
<path style="fill:none;stroke-width:0.7;stroke-linecap:round;stroke-linejoin:round;stroke-miterlimit:3;stroke:#000000;stroke-opacity:0.388235" d="M25.85 28.35Q24.75 27.6 23.65 27.1L21.95 26.4" />
</g>
</svg>
