<?xml version="1.0" encoding="utf-8"?>
<svg version="1.1" id="Layer_1"
xmlns="http://www.w3.org/2000/svg"
xmlns:xlink="http://www.w3.org/1999/xlink"
width="39px" height="32px"
xml:space="preserve">
<g id="PathID_1513" transform="matrix(1, 0, 0, 1, 0.15, 0.15)">
<path style="fill:#808080;fill-opacity:1" d="M26 22.2Q23.45 23.9 20.55 23.15L17.9 15.4L17.9 25.7L16.3 24.2L14.8 16.3L12.5 29.2L12.1 11L9.55 28.7L10.25 12.8L8.65 20.15Q7.1 20.1 3.55 18.15L5 13.9L0 21.2L6.55 7.15L6.55 12.8L8.6 14.2L11.7 5.1L13.2 14.8L13.2 7.1L15.1 14.7L17 14.7L17 7.6L21.6 18.7L24.65 18.1L26 22.2M24.95 17.7L26.05 16.15L32.2 29.4L30.1 30.6L24.95 17.7M26.4 15.65L27.75 13.8Q32.5 20.25 38.5 26.8L30.9 19.3L34.8 28.5Q30.3 22.3 26.4 15.65M22.7 29.4L21.75 26.55Q23.6 23.75 26.6 24.05L28.6 30L22.7 29.4M2.1 22.4Q5.2 20.5 8.35 21.65L7.3 26.5L1.1 25.3L2.1 22.4" />
<path style="fill:#B4ACA1;fill-opacity:1" d="M8.2 27.65L1.1 25.3L7.3 26.5L8.35 21.65Q5.2 20.5 2.1 22.4L3.55 18.15Q7.1 20.1 8.65 20.15L10.25 12.8L8.2 27.65M15.3 25.4L14.8 16.3L16.3 24.2L17.9 25.7L15.3 25.4M28.6 30L21.6 31.2L17.9 15.4L20.55 23.15Q23.45 23.9 26 22.2L26.6 24.05Q23.6 23.75 21.75 26.55L22.7 29.4L28.6 30" />
<path style="fill:#5D5553;fill-opacity:1" d="M10.9 0.3Q14.35 -0.6 19.5 1.2Q23.05 7.45 27.75 13.8L26.4 15.65L23 9.7L26.05 16.15L24.95 17.7L22.3 11.1L24.65 18.1L21.6 18.7L17 7.6L17 14.7L15.1 14.7L13.2 7.1L13.2 14.8L11.7 5.1L8.6 14.2L6.55 12.8L6.55 7.15Q7.85 4.15 10.9 0.3" />
<path style="fill:none;stroke-width:0.7;stroke-linecap:round;stroke-linejoin:round;stroke-miterlimit:3;stroke:#000000;stroke-opacity:0.301961" d="M6.55 7.15L0 21.2L5 13.9L3.55 18.15" />
<path style="fill:none;stroke-width:0.7;stroke-linecap:round;stroke-linejoin:round;stroke-miterlimit:3;stroke:#000000;stroke-opacity:0.301961" d="M10.25 12.8L9.55 28.7L12.1 11L12.5 29.2L14.8 16.3" />
<path style="fill:none;stroke-width:0.7;stroke-linecap:round;stroke-linejoin:round;stroke-miterlimit:3;stroke:#000000;stroke-opacity:0.301961" d="M17.9 25.7L17.9 15.4" />
<path style="fill:none;stroke-width:0.7;stroke-linecap:round;stroke-linejoin:round;stroke-miterlimit:3;stroke:#000000;stroke-opacity:0.301961" d="M26 22.2L24.65 18.1L22.3 11.1L24.95 17.7" />
<path style="fill:none;stroke-width:0.7;stroke-linecap:round;stroke-linejoin:round;stroke-miterlimit:3;stroke:#000000;stroke-opacity:0.301961" d="M26.05 16.15L23 9.7L26.4 15.65" />
<path style="fill:none;stroke-width:0.7;stroke-linecap:round;stroke-linejoin:round;stroke-miterlimit:3;stroke:#000000;stroke-opacity:0.301961" d="M27.75 13.8Q23.05 7.45 19.5 1.2Q14.35 -0.6 10.9 0.3Q7.85 4.15 6.55 7.15" />
<path style="fill:none;stroke-width:0.7;stroke-linecap:round;stroke-linejoin:round;stroke-miterlimit:3;stroke:#000000;stroke-opacity:0.301961" d="M26 22.2L26.6 24.05L28.6 30L21.6 31.2L17.9 15.4" />
<path style="fill:none;stroke-width:0.7;stroke-linecap:round;stroke-linejoin:round;stroke-miterlimit:3;stroke:#000000;stroke-opacity:0.301961" d="M3.55 18.15L2.1 22.4" />
<path style="fill:none;stroke-width:0.7;stroke-linecap:round;stroke-linejoin:round;stroke-miterlimit:3;stroke:#000000;stroke-opacity:0.301961" d="M1.1 25.3L8.2 27.65L10.25 12.8" />
<path style="fill:none;stroke-width:0.7;stroke-linecap:round;stroke-linejoin:round;stroke-miterlimit:3;stroke:#000000;stroke-opacity:0.301961" d="M14.8 16.3L15.3 25.4L17.9 25.7" />
<path style="fill:none;stroke-width:0.7;stroke-linecap:round;stroke-linejoin:round;stroke-miterlimit:3;stroke:#000000;stroke-opacity:0.301961" d="M26.05 16.15L32.2 29.4L30.1 30.6L24.95 17.7" />
<path style="fill:none;stroke-width:0.7;stroke-linecap:round;stroke-linejoin:round;stroke-miterlimit:3;stroke:#000000;stroke-opacity:0.301961" d="M2.1 22.4L1.1 25.3" />
<path style="fill:none;stroke-width:0.7;stroke-linecap:round;stroke-linejoin:round;stroke-miterlimit:3;stroke:#000000;stroke-opacity:0.301961" d="M27.75 13.8Q32.5 20.25 38.5 26.8L30.9 19.3L34.8 28.5Q30.3 22.3 26.4 15.65" />
</g>
</svg>
