<?xml version="1.0" encoding="utf-8"?>
<svg version="1.1" id="Layer_1"
xmlns="http://www.w3.org/2000/svg"
xmlns:xlink="http://www.w3.org/1999/xlink"
width="26px" height="27px"
xml:space="preserve">
<g id="PathID_507" transform="matrix(1, 0, 0, 1, 12.15, 25)">
<path style="fill:#A2001E;fill-opacity:1" d="M12.6 -12.45Q11.75 -12.45 11.1 -11.85Q10.55 -11.25 10.55 -10.35Q10.55 -9.9 10.7 -9.5L8.65 -9.05L2.8 -8.65L-4.85 -9L-8.65 -9.55L-9.95 -10L-9.75 -10.25Q-9.1 -10.8 -9.1 -11.7Q-7.9 -9.75 6.1 -14.2Q6.7 -13.6 7.55 -13.6Q8.4 -13.6 8.95 -14.25Q9.6 -14.8 9.6 -15.7Q9.6 -16.55 8.95 -17.15Q8.4 -17.75 7.55 -17.75Q9.45 -20 8.85 -21.95L9.45 -21.25Q11.9 -18 13.05 -14.1L13.25 -12.35L12.6 -12.45" />
<linearGradient
id="LinearGradID_184" gradientUnits="userSpaceOnUse" gradientTransform="matrix(0.00765991, 0.0133057, -0.00868225, 0.0050354, 3.3, -15.25)" spreadMethod ="pad" x1="-819.2" y1="0" x2="819.2" y2="0" >
<stop  offset="0" style="stop-color:#EE002C;stop-opacity:1" />
<stop  offset="0.356863" style="stop-color:#CA0026;stop-opacity:1" />
<stop  offset="1" style="stop-color:#950622;stop-opacity:1" />
</linearGradient>
<path style="fill:url(#LinearGradID_184) " d="M6.05 -17.15Q5.5 -16.55 5.5 -15.7Q5.5 -14.8 6.05 -14.25L6.1 -14.2Q-7.9 -9.75 -9.1 -11.7L-9.1 -11.85Q-9.2 -12.6 -9.75 -13.15Q-10.35 -13.75 -11.2 -13.75L-11.9 -13.6L-11.35 -15.05Q-9.45 -18.8 -7.4 -21.4L-7.3 -21.3Q-6.65 -20.65 -5.8 -20.65Q-4.95 -20.65 -4.4 -21.3Q-3.75 -21.9 -3.75 -22.75Q-3.75 -23.45 -4.2 -24.05Q-1.95 -25.05 1.45 -24.8L4.65 -24.3L4.5 -23.45Q4.5 -22.6 5.05 -22Q5.7 -21.4 6.55 -21.4Q7.4 -21.4 8 -22L8.35 -22.4L8.85 -21.95Q9.45 -20 7.55 -17.75Q6.7 -17.75 6.05 -17.15M0.6 -20.9Q-0.25 -20.9 -0.9 -20.3Q-1.45 -19.7 -1.45 -18.8Q-1.45 -17.95 -0.9 -17.4Q-0.25 -16.75 0.6 -16.75Q1.45 -16.75 2.05 -17.4Q2.65 -17.95 2.65 -18.8Q2.65 -19.7 2.05 -20.3Q1.45 -20.9 0.6 -20.9M-8.25 -15.1Q-8.25 -14.25 -7.65 -13.65Q-7 -13.05 -6.15 -13.05Q-5.3 -13.05 -4.75 -13.65Q-4.1 -14.25 -4.1 -15.1Q-4.1 -15.95 -4.75 -16.6Q-5.3 -17.15 -6.15 -17.15Q-7 -17.15 -7.65 -16.6Q-8.25 -15.95 -8.25 -15.1" />
<path style="fill:#FAF2D9;fill-opacity:1" d="M-9.1 -11.7Q-9.1 -10.8 -9.75 -10.25L-9.95 -10L-10.4 -10.3Q-12.45 -11.45 -11.9 -13.6L-11.2 -13.75Q-10.35 -13.75 -9.75 -13.15Q-9.2 -12.6 -9.1 -11.85L-9.1 -11.7M-7.4 -21.4L-6.55 -22.35Q-5.65 -23.4 -4.2 -24.05Q-3.75 -23.45 -3.75 -22.75Q-3.75 -21.9 -4.4 -21.3Q-4.95 -20.65 -5.8 -20.65Q-6.65 -20.65 -7.3 -21.3L-7.4 -21.4M4.65 -24.3Q6.8 -23.7 8.35 -22.4L8 -22Q7.4 -21.4 6.55 -21.4Q5.7 -21.4 5.05 -22Q4.5 -22.6 4.5 -23.45L4.65 -24.3M2.05 -20.3Q2.65 -19.7 2.65 -18.8Q2.65 -17.95 2.05 -17.4Q1.45 -16.75 0.6 -16.75Q-0.25 -16.75 -0.9 -17.4Q-1.45 -17.95 -1.45 -18.8Q-1.45 -19.7 -0.9 -20.3Q-0.25 -20.9 0.6 -20.9Q1.45 -20.9 2.05 -20.3M-7.65 -16.6Q-7 -17.15 -6.15 -17.15Q-5.3 -17.15 -4.75 -16.6Q-4.1 -15.95 -4.1 -15.1Q-4.1 -14.25 -4.75 -13.65Q-5.3 -13.05 -6.15 -13.05Q-7 -13.05 -7.65 -13.65Q-8.25 -14.25 -8.25 -15.1Q-8.25 -15.95 -7.65 -16.6" />
<path style="fill:#EEE2BD;fill-opacity:1" d="M13.25 -12.35Q13.05 -10.4 10.7 -9.5Q10.55 -9.9 10.55 -10.35Q10.55 -11.25 11.1 -11.85Q11.75 -12.45 12.6 -12.45L13.25 -12.35M7.55 -17.75Q8.4 -17.75 8.95 -17.15Q9.6 -16.55 9.6 -15.7Q9.6 -14.8 8.95 -14.25Q8.4 -13.6 7.55 -13.6Q6.7 -13.6 6.1 -14.2L6.05 -14.25Q5.5 -14.8 5.5 -15.7Q5.5 -16.55 6.05 -17.15Q6.7 -17.75 7.55 -17.75" />
<path style="fill:none;stroke-width:0.7;stroke-linecap:round;stroke-linejoin:round;stroke-miterlimit:3;stroke:#000000;stroke-opacity:0.4" d="M8.85 -21.95L9.45 -21.25Q11.9 -18 13.05 -14.1L13.25 -12.35Q13.05 -10.4 10.7 -9.5L8.65 -9.05L2.8 -8.65L-4.85 -9L-8.65 -9.55L-9.95 -10L-10.4 -10.3Q-12.45 -11.45 -11.9 -13.6L-11.35 -15.05Q-9.45 -18.8 -7.4 -21.4L-6.55 -22.35Q-5.65 -23.4 -4.2 -24.05Q-1.95 -25.05 1.45 -24.8L4.65 -24.3Q6.8 -23.7 8.35 -22.4L8.85 -21.95z" />
</g>
<g id="PathID_508" transform="matrix(1, 0, 0, 1, 12.15, 25)">
<path style="fill:#EEE2BD;fill-opacity:1" d="M10.05 -10.85L10.05 -10.7L3.3 -10.35Q9.85 -10.25 7.4 -10L3.35 -9.75L-2.75 -9.75L-6.35 -10Q-8.7 -10.25 -8.85 -10.6L-2.45 -10.35L-8.85 -10.65L-8.8 -10.75L-6.6 -11.3L-5.45 -11.45L-2 -10.75L-2.3 -11.7L0.6 -11.7L0.55 -11.15L1.5 -11.7L3 -11.7L4.95 -11.65L6.95 -11.5L2.9 -10.75Q9.9 -11.3 10.05 -10.85M0.55 -11.15L0.6 -11.7M3.3 -10.35L10.05 -10.7M2.9 -10.75L6.95 -11.5M-2.45 -10.35L-8.85 -10.6M-2 -10.75L-5.45 -11.45" />
<path style="fill:none;stroke-width:0.7;stroke-linecap:round;stroke-linejoin:round;stroke-miterlimit:3;stroke:#000000;stroke-opacity:0.298039" d="M10.05 -10.85L10.05 -10.7Q9.85 -10.25 7.4 -10L3.35 -9.75L-2.75 -9.75L-6.35 -10Q-8.7 -10.25 -8.85 -10.6L-8.85 -10.65L-8.8 -10.75L-6.6 -11.3L-5.45 -11.45L-2.3 -11.7L0.6 -11.7L1.5 -11.7L3 -11.7L4.95 -11.65L6.95 -11.5Q9.9 -11.3 10.05 -10.85z" />
<path style="fill:none;stroke-width:0.7;stroke-linecap:round;stroke-linejoin:round;stroke-miterlimit:3;stroke:#000000;stroke-opacity:0.298039" d="M0.6 -11.7L0.55 -11.15" />
<path style="fill:none;stroke-width:0.7;stroke-linecap:round;stroke-linejoin:round;stroke-miterlimit:3;stroke:#000000;stroke-opacity:0.298039" d="M10.05 -10.7L3.3 -10.35" />
<path style="fill:none;stroke-width:0.7;stroke-linecap:round;stroke-linejoin:round;stroke-miterlimit:3;stroke:#000000;stroke-opacity:0.298039" d="M2.9 -10.75L6.95 -11.5" />
<path style="fill:none;stroke-width:0.7;stroke-linecap:round;stroke-linejoin:round;stroke-miterlimit:3;stroke:#000000;stroke-opacity:0.298039" d="M-8.85 -10.6L-2.45 -10.35" />
<path style="fill:none;stroke-width:0.7;stroke-linecap:round;stroke-linejoin:round;stroke-miterlimit:3;stroke:#000000;stroke-opacity:0.298039" d="M-5.45 -11.45L-2 -10.75" />
</g>
<g id="PathID_509" transform="matrix(1, 0, 0, 1, 12.15, 25)">
<path style="fill:#EEE2BD;fill-opacity:1" d="M2 -0.1L3.25 -1.15L3.7 -1.9Q3.95 -2.4 3.8 -3.3Q3.7 -4.25 1.75 -6Q-0.2 -7.75 -1.15 -7.85L-2.05 -7.95Q-1.9 -8.6 -1.9 -9.3L-1.65 -10.4L-1.5 -10.65L-1.2 -11.1L-1 -11.35L-0.95 -11.35Q-0.35 -11.9 1.15 -11.8L2 -11.7L3.35 -11.1L3.7 -10.65L3.75 -10.4L3.8 -9.3Q4.05 -6.2 4.65 -4.9L4.95 -4.4Q5.75 -3.25 5.75 -1.6L5.6 -0.85Q5.25 0.25 4.15 0.9Q2.55 1.75 0.15 1.65Q-2.3 1.55 -3.65 -0.15L-3.85 -0.4Q-1 2.15 2 -0.1" />
<path style="fill:#FAF2D9;fill-opacity:1" d="M-3.85 -0.4L-4.2 -1.3Q-4.55 -2.65 -3.55 -4.2Q-2.4 -5.95 -2.05 -7.95L-1.15 -7.85Q-0.2 -7.75 1.75 -6Q3.7 -4.25 3.8 -3.3Q3.95 -2.4 3.7 -1.9L3.25 -1.15L2 -0.1Q-1 2.15 -3.85 -0.4" />
<path style="fill:none;stroke-width:0.7;stroke-linecap:round;stroke-linejoin:round;stroke-miterlimit:3;stroke:#000000;stroke-opacity:0.4" d="M-2.05 -7.95Q-1.9 -8.6 -1.9 -9.3L-1.65 -10.4L-1.5 -10.65L-1.2 -11.1L-1 -11.35L-0.95 -11.35Q-0.35 -11.9 1.15 -11.8L2 -11.7L3.35 -11.1L3.7 -10.65L3.75 -10.4L3.8 -9.3Q4.05 -6.2 4.65 -4.9L4.95 -4.4Q5.75 -3.25 5.75 -1.6L5.6 -0.85Q5.25 0.25 4.15 0.9Q2.55 1.75 0.15 1.65Q-2.3 1.55 -3.65 -0.15L-3.85 -0.4L-4.2 -1.3Q-4.55 -2.65 -3.55 -4.2Q-2.4 -5.95 -2.05 -7.95z" />
</g>
</svg>
