<?xml version="1.0" encoding="utf-8"?>
<svg version="1.1" id="Layer_1"
xmlns="http://www.w3.org/2000/svg"
xmlns:xlink="http://www.w3.org/1999/xlink"
width="102px" height="149px"
xml:space="preserve">
<g id="PathID_1582" transform="matrix(1, 0, 0, 1, -0.3, -9.1)">
<linearGradient
id="LinearGradID_839" gradientUnits="userSpaceOnUse" gradientTransform="matrix(0.00862122, -0.0815887, 0.0978699, 0.0103455, 47.65, 92.85)" spreadMethod ="pad" x1="-819.2" y1="0" x2="819.2" y2="0" >
<stop  offset="0.0235294" style="stop-color:#F7D631;stop-opacity:0.25098" />
<stop  offset="1" style="stop-color:#FFFFFF;stop-opacity:1" />
</linearGradient>
<path style="fill:url(#LinearGradID_839) " d="M52.4 40.15Q51.45 44.1 51.45 46.25Q51.45 48.15 52.2 49.55Q53.1 51.2 54.55 51.2Q58.65 47.1 58.65 40.85Q58.65 37.7 58.05 35.4Q57.3 32.35 54.75 26.9L59.9 35.45Q60.85 37.5 60.85 43L59.9 55.6Q59.9 57 60.6 57.9L61.5 58.75L63.45 56.15Q65.65 52.8 66.75 49.35L64.7 65.9Q63.4 76.8 64.5 77.75Q63.75 75 65.1 70.8Q66.95 64.85 72.35 62.4Q69.8 66.55 68.95 71.3Q68.5 73.75 68.6 75.4Q68.6 79.6 70.1 82.5Q71.55 85.45 71.55 86.6L71 92.3L79.15 79.8Q84.7 69.95 88.2 58.4L74.8 105.9L86.75 97.8Q84.65 101.9 81.45 106.85Q79.25 110.15 79.25 111.15Q79.25 113.2 79.95 118.55Q80.7 123.95 81.1 124.75L81.25 124.7Q82.55 116.95 84.3 111.05Q87.65 99.7 93.25 97.95Q92.75 99.75 91 110.1Q91 114.6 93.55 121.75Q96.1 128.9 96.1 132.1Q96.1 140.3 87.2 147.7Q74.8 158 50.8 158Q29.45 158 18.85 147.1Q11.15 139.2 4.9 118.8L5.8 125.05Q6.85 131.65 7.45 133.35Q3.65 129.2 1.8 124.3Q0.3 120.45 0.3 117.1Q0.3 115.5 1.4 108.1Q2.5 100.75 3.25 97.2L9.5 105.3Q7.9 102.65 6.3 96.3Q5.35 92.45 5.05 86.45L4.95 81.25Q6.1 86.45 9.35 88.8Q11.8 90.65 15.1 90.65Q19.2 90.65 21 84.95Q22.85 79.3 22.85 66.65Q22.85 61.65 22 59.2Q20.65 55.2 16.2 51.55Q24.3 54.45 27.6 62.8Q29.3 67 29.9 67.85Q31.35 70 34.15 70Q38.25 70 40.4 41.05Q41.6 24.65 41.8 9.1Q42 28.5 44.75 43.1Q47.5 57.6 51.15 59.65L49.25 52.6Q49.25 51.45 50.85 45.7L52.4 40.15M34.75 44.95Q32.1 52.9 32.1 63.95L32.5 69Q30.8 65 29.5 60.85Q28.55 57.7 28.55 57.3Q28.55 55.6 30.4 52.35Q34.4 45.3 37.65 38.55L34.75 44.95M10.75 63.9Q12.15 65.65 13.5 69.25Q14.7 72.6 14.7 74Q14.7 76.6 13.3 81.25Q10.7 77.2 10.15 75.75Q9.8 74.95 9.8 73.5L10.25 69.45L10.75 63.9M18.85 84.9L15.9 88.65L16.95 83.2L16 67.7L19.85 82.2Q19.85 83.4 18.85 84.9M97.3 105.5L99.55 94.85Q99.95 97.3 100.8 100.25Q101.4 102.2 101.4 104.25Q101.4 106.8 100 109.1L95.3 115.45Q95.15 114.95 97.3 105.5" />
</g>
</svg>
