<?xml version="1.0" encoding="utf-8"?>
<svg version="1.1" id="Layer_1"
xmlns="http://www.w3.org/2000/svg"
xmlns:xlink="http://www.w3.org/1999/xlink"
width="38px" height="36px"
xml:space="preserve">
<g id="PathID_591" transform="matrix(1, 0, 0, 1, 18, 35.7)">
<linearGradient
id="LinearGradID_238" gradientUnits="userSpaceOnUse" gradientTransform="matrix(0.00195313, 0.00733948, -0.00296021, 0.000793457, 1.25, -20.5)" spreadMethod ="pad" x1="-819.2" y1="0" x2="819.2" y2="0" >
<stop  offset="0" style="stop-color:#0095D7;stop-opacity:1" />
<stop  offset="1" style="stop-color:#006998;stop-opacity:1" />
</linearGradient>
<path style="fill:url(#LinearGradID_238) " d="M-12.4 -18.05L-12.85 -23.1L15.35 -23.1L14.9 -18.05L-12.4 -18.05" />
<linearGradient
id="LinearGradID_239" gradientUnits="userSpaceOnUse" gradientTransform="matrix(0, 0.0164795, -0.00994873, 1.52588e-005, 1.15, -8.35)" spreadMethod ="pad" x1="-819.2" y1="0" x2="819.2" y2="0" >
<stop  offset="0" style="stop-color:#00B9D7;stop-opacity:1" />
<stop  offset="0.984314" style="stop-color:#006198;stop-opacity:1" />
</linearGradient>
<path style="fill:url(#LinearGradID_239) " d="M14.7 -16.05L13.25 -0.1L-10.95 -0.1L-12.3 -16.4L14.7 -16.05" />
<path style="fill:#005E93;fill-opacity:1" d="M-12.3 -16.4L-12.4 -18.05L14.9 -18.05L14.7 -16.05L-12.3 -16.4" />
<path style="fill:none;stroke-width:0.7;stroke-linecap:round;stroke-linejoin:round;stroke-miterlimit:3;stroke:#000000;stroke-opacity:0.301961" d="M14.9 -18.05L14.7 -16.05L13.25 -0.1L-10.95 -0.1L-12.3 -16.4L-12.4 -18.05L-12.85 -23.1L15.35 -23.1L14.9 -18.05L-12.4 -18.05" />
</g>
<g id="PathID_592" transform="matrix(1, 0, 0, 1, 18, 35.7)">
<path style="fill:#000000;fill-opacity:0.329412" d="M7.1 -17.6Q6.15 -9.45 6.15 -0.15L2.75 -0.15L1.95 -23.55L7.85 -23.55L14.3 -14.45L13.65 -5.9Q11 -13.45 7.1 -17.6M-11.6 -9.6L-12.35 -17.1L-5.1 -23.9L-1.45 -23.9Q-8.15 -16.25 -11.6 -9.6" />
</g>
<g id="PathID_593" transform="matrix(1, 0, 0, 1, 18, 35.7)">
<path style="fill:#727272;fill-opacity:1" d="M4.05 -24.2L5.35 -23.8L7.7 -23.55L6.85 -23.55L5.55 -23.25L4.75 -23.1L4.55 -23.35L0.75 -23.35L-3.05 -23.35L1.2 -24.9L-0.55 -24.55L2.35 -24.75L2.95 -25.25L3.75 -25.45Q3.25 -24.7 4.05 -24.2M-0.55 -24.55L-1.95 -25.65L-0.6 -25.9Q0.05 -26.2 0.25 -26.95L1 -25.45L1.2 -24.9L1.35 -25.45L2 -27Q2 -26.35 2.8 -26.35Q3.5 -26.3 4.95 -26.75L2.95 -25.25L2.35 -24.75L0.75 -23.35M19 -28.8Q18.7 -25.05 12.45 -24Q15.15 -25.75 14.5 -27.2L14.35 -27.4Q13.05 -28.6 10.2 -28.6L11.75 -30.2Q12.7 -30.6 14.55 -30.2Q16.3 -30.1 19 -28.8M-1.1 -6L-1.25 -7.05Q2 -10.7 4.35 -8.25L4.35 -7.6Q1.85 -10.1 -1.1 -6M-6.35 -22.5L-7.3 -23.3L-6.35 -23.65L-5.5 -23.55L-5 -23.5L-3.05 -23.35L-3 -23.15L-6.7 -20.7Q-6 -21.8 -6.35 -22.5M-14.8 -25.15Q-17.15 -26.3 -17.85 -28.3Q-15.4 -29.8 -11.4 -29.3Q-10.3 -29.45 -8.4 -28.8Q-7.7 -27.9 -6.8 -27.15Q-12.55 -28.3 -14.8 -25.15M1.2 -24.9L0.75 -23.35M-3.05 -23.35L-5 -23.5L-3.75 -23.8L-3.5 -23.9L-3.15 -24Q-2.2 -24.3 -2.6 -24.6L-1.2 -24L0.75 -23.35" />
<path style="fill:#ADADAD;fill-opacity:1" d="M-2.65 -20.05L-3 -23.15L-3.05 -23.35L0.75 -23.35L4.55 -23.35L4.75 -23.1L4.55 -23.05L4.5 -20.4L-2.65 -20.05M12.45 -24L7.7 -23.55L5.35 -23.8L4.05 -24.2Q3.25 -24.7 3.75 -25.45Q7.85 -26.65 10.2 -28.6Q13.05 -28.6 14.35 -27.4L14.5 -27.2Q15.15 -25.75 12.45 -24M2 -27L4.4 -31.15Q3.25 -28.95 9.85 -29.45Q7.2 -28.35 4.95 -26.75Q3.5 -26.3 2.8 -26.35Q2 -26.35 2 -27M4.35 -7.6L4.25 -0.15L-0.45 -0.15L-1.1 -6Q1.85 -10.1 4.35 -7.6M-9.9 -22.15L-7.3 -23.3L-6.35 -22.5Q-6 -21.8 -6.7 -20.7L-9.9 -18L-9.7 -18.4Q-7.5 -22.3 -9.9 -22.15M-3.15 -24L-3.5 -23.9L-3.75 -23.8L-5 -23.5L-5.5 -23.55L-6.35 -23.65Q-11.85 -23.7 -14.8 -25.15Q-12.55 -28.3 -6.8 -27.15Q-5.1 -25.7 -2.6 -24.6Q-2.2 -24.3 -3.15 -24M-8.4 -28.8L-7.45 -28.75Q-2.6 -28.8 -2.2 -30.85Q-0.9 -29.2 0.25 -26.95Q0.05 -26.2 -0.6 -25.9L-1.95 -25.65Q-4.55 -27.45 -7.75 -28.55L-8.4 -28.8" />
<path style="fill:#DEDEDE;fill-opacity:1" d="M4.4 -31.15L7.35 -35.15Q10.3 -34 11.35 -31.85L11.75 -30.2Q10.75 -29.9 9.85 -29.45Q3.25 -28.95 4.4 -31.15M14.55 -30.2L13.5 -31.95Q11.95 -34.8 14.05 -34.55Q17.65 -33.35 19 -28.8Q16.3 -30.1 14.55 -30.2M-1.95 -13.55L-2.65 -20.05L4.5 -20.4L4.4 -14.3Q1.45 -10.4 -1.95 -13.55M-11.6 -16.3L-14.2 -12.55L-13.7 -16.95L-17.6 -16.05Q-15.85 -18.15 -13.55 -19.85Q-12.35 -19.45 -11.85 -18.45Q-11.45 -17.6 -11.6 -16.3M-10.8 -19.3Q-11.5 -20.2 -11.25 -21.35L-9.9 -22.15Q-7.5 -22.3 -9.7 -18.4L-10.8 -19.3M-11.4 -29.3Q-15.4 -29.8 -17.85 -28.3Q-17 -33.9 -8.4 -35.55Q-8.4 -33.9 -9 -32.5Q-9.7 -30.75 -11.4 -29.3M-7.45 -28.75Q-7.2 -30.2 -6.35 -30.95Q-5.2 -32 -3.15 -31.95L-2.2 -30.85Q-2.6 -28.8 -7.45 -28.75" />
<path style="fill:#FFFFFF;fill-opacity:1" d="M13.5 -31.95L14.55 -30.2Q12.7 -30.6 11.75 -30.2L11.35 -31.85Q10.3 -34 7.35 -35.15Q11.3 -35.5 14.05 -34.55Q11.95 -34.8 13.5 -31.95M-1.25 -7.05L-1.95 -13.55Q1.45 -10.4 4.4 -14.3L4.35 -8.25Q2 -10.7 -1.25 -7.05M-11.85 -18.45Q-12.35 -19.45 -13.55 -19.85L-11.25 -21.35Q-11.5 -20.2 -10.8 -19.3L-9.7 -18.4L-9.9 -18L-11.6 -16.3Q-11.45 -17.6 -11.85 -18.45M-6.35 -30.95Q-7.2 -30.2 -7.45 -28.75L-8.4 -28.8Q-10.3 -29.45 -11.4 -29.3Q-9.7 -30.75 -9 -32.5Q-8.4 -33.9 -8.4 -35.55Q-5.5 -34.5 -3.15 -31.95Q-5.2 -32 -6.35 -30.95" />
<path style="fill:none;stroke-width:0.7;stroke-linecap:round;stroke-linejoin:round;stroke-miterlimit:3;stroke:#000000;stroke-opacity:0.301961" d="M3.75 -25.45L2.95 -25.25L2.35 -24.75L0.75 -23.35L4.55 -23.35L4.75 -23.1L5.55 -23.25L6.85 -23.55L7.7 -23.55" />
<path style="fill:none;stroke-width:0.7;stroke-linecap:round;stroke-linejoin:round;stroke-miterlimit:3;stroke:#000000;stroke-opacity:0.301961" d="M3.75 -25.45Q7.85 -26.65 10.2 -28.6L11.75 -30.2Q10.75 -29.9 9.85 -29.45Q7.2 -28.35 4.95 -26.75L2.95 -25.25" />
<path style="fill:none;stroke-width:0.7;stroke-linecap:round;stroke-linejoin:round;stroke-miterlimit:3;stroke:#000000;stroke-opacity:0.301961" d="M0.25 -26.95L1 -25.45L1.2 -24.9L1.35 -25.45L2 -27L4.4 -31.15L7.35 -35.15Q11.3 -35.5 14.05 -34.55Q17.65 -33.35 19 -28.8Q18.7 -25.05 12.45 -24L7.7 -23.55" />
<path style="fill:none;stroke-width:0.7;stroke-linecap:round;stroke-linejoin:round;stroke-miterlimit:3;stroke:#000000;stroke-opacity:0.301961" d="M14.55 -30.2Q12.7 -30.6 11.75 -30.2" />
<path style="fill:none;stroke-width:0.7;stroke-linecap:round;stroke-linejoin:round;stroke-miterlimit:3;stroke:#000000;stroke-opacity:0.301961" d="M4.75 -23.1L4.55 -23.05L4.5 -20.4L4.4 -14.3L4.35 -8.25L4.35 -7.6L4.25 -0.15L-0.45 -0.15L-1.1 -6L-1.25 -7.05L-1.95 -13.55L-2.65 -20.05L-3 -23.15L-6.7 -20.7L-9.9 -18L-11.6 -16.3L-14.2 -12.55L-13.7 -16.95L-17.6 -16.05Q-15.85 -18.15 -13.55 -19.85L-11.25 -21.35L-9.9 -22.15L-7.3 -23.3L-6.35 -23.65Q-11.85 -23.7 -14.8 -25.15Q-17.15 -26.3 -17.85 -28.3Q-17 -33.9 -8.4 -35.55Q-5.5 -34.5 -3.15 -31.95L-2.2 -30.85Q-0.9 -29.2 0.25 -26.95" />
<path style="fill:none;stroke-width:0.7;stroke-linecap:round;stroke-linejoin:round;stroke-miterlimit:3;stroke:#000000;stroke-opacity:0.301961" d="M-1.95 -25.65L-0.55 -24.55L0.75 -23.35L1.2 -24.9" />
<path style="fill:none;stroke-width:0.7;stroke-linecap:round;stroke-linejoin:round;stroke-miterlimit:3;stroke:#000000;stroke-opacity:0.301961" d="M-11.4 -29.3Q-10.3 -29.45 -8.4 -28.8" />
<path style="fill:none;stroke-width:0.7;stroke-linecap:round;stroke-linejoin:round;stroke-miterlimit:3;stroke:#000000;stroke-opacity:0.301961" d="M-8.4 -28.8Q-7.7 -27.9 -6.8 -27.15Q-5.1 -25.7 -2.6 -24.6L-1.2 -24L0.75 -23.35L-3.05 -23.35L-3 -23.15" />
<path style="fill:none;stroke-width:0.7;stroke-linecap:round;stroke-linejoin:round;stroke-miterlimit:3;stroke:#000000;stroke-opacity:0.301961" d="M-1.95 -25.65Q-4.55 -27.45 -7.75 -28.55L-8.4 -28.8" />
<path style="fill:none;stroke-width:0.7;stroke-linecap:round;stroke-linejoin:round;stroke-miterlimit:3;stroke:#000000;stroke-opacity:0.301961" d="M-5 -23.5L-3.05 -23.35" />
<path style="fill:none;stroke-width:0.7;stroke-linecap:round;stroke-linejoin:round;stroke-miterlimit:3;stroke:#000000;stroke-opacity:0.301961" d="M-6.35 -23.65L-5.5 -23.55L-5 -23.5" />
</g>
<g id="PathID_594" transform="matrix(1, 0, 0, 1, 18, 35.7)">
<path style="fill:#DEDEDE;fill-opacity:1" d="M12.1 -13.55Q11.45 -15.25 12.25 -16.55Q13 -17.7 14.6 -18.1L17 -14.5L15.75 -13.35L14.55 -12.55Q13.7 -11.95 12.8 -12L12.1 -13.55M13.75 -9.05Q14.1 -10.65 15.2 -11.3Q15.85 -11.85 17.7 -12Q18.15 -10.7 18.15 -9.1L17.85 -6.35L15.9 -8.55L14 -5.65L13.75 -9.05" />
<path style="fill:#ADADAD;fill-opacity:1" d="M9 -18.05Q8.7 -19.2 8.95 -19.95Q9.1 -20.8 11.4 -21.75L14.6 -18.1Q13 -17.7 12.25 -16.55Q11.45 -15.25 12.1 -13.55Q10.85 -15.85 9 -18.05" />
<path style="fill:#FFFFFF;fill-opacity:1" d="M17.45 -13.25L17.7 -12Q15.85 -11.85 15.2 -11.3Q14.1 -10.65 13.75 -9.05L12.8 -12Q13.7 -11.95 14.55 -12.55L15.75 -13.35L17 -14.5L17.45 -13.25" />
<path style="fill:#727272;fill-opacity:1" d="M9 -18.05L4.55 -23L9.8 -23.1L11.4 -21.75Q9.1 -20.8 8.95 -19.95Q8.7 -19.2 9 -18.05" />
<path style="fill:none;stroke-width:0.7;stroke-linecap:round;stroke-linejoin:round;stroke-miterlimit:3;stroke:#000000;stroke-opacity:0.301961" d="M12.8 -12L13.75 -9.05" />
<path style="fill:none;stroke-width:0.7;stroke-linecap:round;stroke-linejoin:round;stroke-miterlimit:3;stroke:#000000;stroke-opacity:0.301961" d="M17.7 -12L17.45 -13.25L17 -14.5L14.6 -18.1" />
<path style="fill:none;stroke-width:0.7;stroke-linecap:round;stroke-linejoin:round;stroke-miterlimit:3;stroke:#000000;stroke-opacity:0.301961" d="M12.1 -13.55L12.8 -12" />
<path style="fill:none;stroke-width:0.7;stroke-linecap:round;stroke-linejoin:round;stroke-miterlimit:3;stroke:#000000;stroke-opacity:0.301961" d="M11.4 -21.75L14.6 -18.1" />
<path style="fill:none;stroke-width:0.7;stroke-linecap:round;stroke-linejoin:round;stroke-miterlimit:3;stroke:#000000;stroke-opacity:0.301961" d="M9 -18.05L4.55 -23" />
<path style="fill:none;stroke-width:0.7;stroke-linecap:round;stroke-linejoin:round;stroke-miterlimit:3;stroke:#000000;stroke-opacity:0.301961" d="M9.8 -23.1L11.4 -21.75" />
<path style="fill:none;stroke-width:0.7;stroke-linecap:round;stroke-linejoin:round;stroke-miterlimit:3;stroke:#000000;stroke-opacity:0.301961" d="M9 -18.05Q10.85 -15.85 12.1 -13.55" />
<path style="fill:none;stroke-width:0.7;stroke-linecap:round;stroke-linejoin:round;stroke-miterlimit:3;stroke:#000000;stroke-opacity:0.301961" d="M17.7 -12Q18.15 -10.7 18.15 -9.1L17.85 -6.35L15.9 -8.55L14 -5.65L13.75 -9.05" />
</g>
<g id="PathID_595" transform="matrix(1, 0, 0, 1, 18, 35.7)">
<path style="fill:#DEDEDE;fill-opacity:1" d="M9.15 -7.5Q7.6 -7.5 7.15 -8.2L7.05 -9Q7.05 -9.65 7.35 -10.3Q7.85 -11.45 8.95 -11.45Q10.45 -11.45 11.1 -10.6Q11.55 -10.05 11.55 -9.3Q11.55 -7.5 9.15 -7.5M-5.45 -3.35Q-5.45 -5.15 -4.25 -5.15Q-3.05 -5.2 -3.05 -3.05Q-3.05 -2.6 -3.4 -2.2Q-3.8 -1.8 -4.35 -1.8Q-5.7 -1.8 -5.45 -3.35M-9.6 -9.9Q-9.6 -13.2 -7.05 -13Q-4.5 -12.8 -4.5 -10.5Q-4.5 -8.1 -7.4 -8.1Q-9.1 -8.1 -9.55 -8.95Q-9.75 -9.4 -9.6 -9.9" />
</g>
</svg>
