<?xml version="1.0" encoding="utf-8"?>
<svg version="1.1" id="Layer_1"
xmlns="http://www.w3.org/2000/svg"
xmlns:xlink="http://www.w3.org/1999/xlink"
width="95px" height="122px"
xml:space="preserve">
<g id="PathID_679" transform="matrix(1, 0, 0, 1, -284.15, -190.15)">
<path style="fill:#103B5B;fill-opacity:0.501961" d="M331.7 190.15L333.65 191.75Q335 193.05 335 193.4Q335 194 333.35 194.75L334.35 197L335.5 196.8Q336.5 196.8 337.15 197.55L338.4 199.2L337.6 199.85L339.95 201.25L338.8 202.2L337.7 202.45L338.35 203.05Q338.85 203.55 338.75 204.05L338.75 205.75L339.2 205.55L341.45 204.85L341.45 205.75Q339.9 207.3 339.05 208.95L341.45 210.05Q343.45 211.15 343.25 211.9L341.75 212.4L340.45 212.75L340.3 212.9L340.9 213.25L341.45 213.8L339.95 214.45L339.85 215L339.75 215.7L340.95 216.65L341.1 216.75L340.15 217.2L338.65 218.45L339.35 218.2Q341.25 217.45 341.65 217.4L341.1 216.75L341.6 216.35L342.95 216.05L344.25 216.2Q345.3 216.4 345.3 216.95L344.95 217.9L344.4 219.1Q344.95 219.1 345.35 219.4L345.75 220L344 220.85L342.65 221.3L344.2 222.35Q345.35 223.35 345.6 224.2L344.6 224.5L343.4 224.55L343.9 224.9L344.2 225.6Q344.2 226.1 343.25 226.95L343.15 227L343.3 227.05L345.15 227.3L347.5 226.7L349.8 226.1L352.1 226.45Q354 227 354 227.9Q354 228.7 353.65 229Q353 229.25 352.2 228.65Q351.3 227.95 350.5 227.95Q349.8 227.95 349.1 228.65L350.45 229.4Q351.1 229.85 351.1 230.7Q351.1 231.45 349.45 231.9L347.15 232.45L347.7 233.15L348.4 233.8Q348.8 234.2 347.7 235.2Q346.65 236.2 345.25 236.7L345.35 236.7L348.15 236.9Q350.05 237.3 350.05 238.4Q350.05 239.65 349.25 239.95L347.15 240.15L348.8 241.15L350.05 241.45Q351.6 241.85 351.6 242.8L350.35 243.5L350.6 243.6Q351.45 243.6 352.75 244.65Q354.3 245.8 353.85 246.65Q351.55 247.35 349.55 246.3L350.3 248.2L347.85 247.85L348.3 248.85L348.55 249.8L346.4 251.85L346.75 251.9L348 251.95L350.5 251.7L353.45 251.45Q358.65 251.45 358.65 253.2Q358.65 253.95 358.15 254.2L357.1 254.35L355.1 254.05L354.75 253.95L355.55 254.9L355.85 255.9Q355.85 256.4 354.5 256.9L352.65 257.45Q353.1 258.4 354.05 258.9Q354.7 259.35 354.7 260.1Q354.7 261.15 353.85 261.65L353.75 261.7L358.3 261.7Q362.2 262.05 362.2 263.75L362.05 264.45L360.95 264.45L359.15 264.2L357.45 263.95L357.15 263.95L360 265.85Q361.7 267.05 361.7 267.8Q361.7 269.35 357.6 269.15L358.65 270.55Q358.65 271.2 357.6 271.5L356.65 271.65Q361.1 275.15 358.75 276.15L361.25 276.45Q363.75 277.05 363.75 278.45L363.6 279.2L362.75 279.35L360.35 278.85Q359 278.35 357.95 278.35L356.15 278.4Q355.05 278.55 354.85 279.2L356.5 280.55Q357.95 281.8 357.95 282.3Q357.95 282.85 357.25 283.3L360.15 285.05Q362.3 286.55 361.85 287.55L360 287.95L359.8 288.1L361.55 289.4Q362.95 290.65 362.95 291.35Q362.95 292.15 361.85 292.75L360.7 293.3L360.35 293.15L360.35 293.4L360.7 293.3L367.25 295.8L374.35 297.95Q377.7 299.05 379.05 301.25L379.05 302.45L377.4 302.6Q375.75 302.6 371.2 300.8L364.65 298.35Q364.85 299.2 364.3 300.3L363.7 301.45L363.9 302.1L363.65 303.2L362.7 303.4L360.85 302.95L359.25 302.5L360.35 304.15Q360.65 304.55 360.65 305.5L360.4 306.65Q360.1 307.1 359.35 307.1Q357.9 307.1 356.05 305.7Q354.65 304.65 353.45 303.2L353.2 303.2Q353.15 303.85 352.45 304.7L351.45 305.5Q350.5 305.5 350.1 304.7L349 302.95L348.35 304.2Q347.95 305.05 347.25 305.05Q345.75 305.05 345.75 303.75Q345.75 302.95 346.25 302L346.25 300.6L345.1 300.6Q344.9 301.2 343.65 301.85Q341.95 305.85 341 305.85Q340.2 305.85 339.9 305.2Q339.75 304.75 339.85 303.7L339.65 303.7L339.2 305.4Q338.7 306.9 338.05 307.25L337.3 306.45Q336.75 306.05 336.35 306.05Q335.7 306.05 334.35 307.85Q332.95 309.7 332.2 309.7Q331.2 309.7 330.8 308.6L330.2 307.15L330 308.05Q329.55 308.95 327.9 308.95L326.05 308.5L324.65 307.6L324.65 307.8L325.65 309.4L326.5 311.2L325.6 312Q325.05 311.7 324.8 311.05Q324.65 310.6 323.95 310.6L322 310.95L319.8 311.3Q317.8 311.3 317.25 309.85Q317.05 309.4 316.8 306.65L316.3 306.65L314.9 307.6Q313.65 307.6 313.7 306.15L314 304.1L312.9 305.1Q312 305.95 311.1 305.95L310.45 305.65L309.8 304.8L307.45 306.9Q305.5 308.75 304.8 308.75Q304.35 308.75 304 308.3Q303.55 307.7 303.8 306.9L302.5 307.8L301.45 308.3L300.55 308.05Q300.1 307.8 300.1 307.25Q300.1 306.7 300.55 306.2L300.3 306.2L297.1 308.35Q294.35 310.15 293.2 310.15Q291.25 309.9 291.25 308.95Q291.25 306.15 292.75 304.7L291.2 304.85L289.8 305.05Q285.15 305.05 284.15 302.6Q287.65 301.1 293.4 297.55L295.1 296.55Q293.7 296.6 292.7 296Q293.2 293.95 295.5 292.75L297.05 292.15L295.8 292.4L295.2 292.3L294.55 292.25L294.55 291.35Q295.55 289.55 300.85 287.7Q305.85 285.95 306.55 283.75L306.4 283.8L305.5 283.8L304.3 283.5L303.5 283.15L300.85 283.35Q299.2 283.2 299.9 281.45Q299.35 282 297.45 282.75Q295.5 283.5 294.25 283.5L293.2 283.3Q292.5 283.05 292.5 282.7Q292.5 282.15 295.2 280.75Q297.85 279.45 297.85 278.35L297.4 277.65Q297 277.35 297 276.8Q297 276.25 298.7 274.9L301.85 272.4L297.75 273.85Q296.9 273.85 296.65 273Q296.45 272.3 296.7 271.8Q295.85 271.8 294.8 270.95Q294.85 270.15 297.4 270.05Q300.45 269.95 301.25 269.2L302.55 268.25L298.5 267.8Q294.75 267.15 294.75 265.8Q294.75 264.2 299.2 263.25L299.2 263.15Q298.4 263.15 297.3 262.75Q297.85 261.6 301.9 260.45Q305.8 259.35 306.95 258.55Q305.7 258.5 305.7 257.7Q305.7 256.7 306.75 256.2L307.7 255.95Q308.5 256.25 309.5 255.95L308.75 255.9L307.7 255.95L307.6 255.9Q306.45 255.45 306.9 254.2L304.5 255.05Q302.9 255.4 302.95 254.7Q303.1 253.65 304.9 252.85Q306.15 252.25 307.25 252.15L307.8 251.95L305.65 251.5Q305.1 251 305.35 249.25L303.35 249Q301.4 248.65 301.4 247.95Q301.4 247.5 301.8 247Q302.25 246.3 303.1 246.3Q304.5 246.3 306.55 247.6Q308.55 248.9 310.55 248.9L312.1 248.7Q311.55 248.3 311.55 247.9L311.7 247.35L312 246.85L310 246.8Q308.95 246.7 308.95 245.8Q308.95 244.9 311.2 244.1L314.95 242.7L314.95 242.45L315.1 241.85L315.3 241.35L310.8 241.2L310.8 240.15Q311.5 239.25 313.3 238.6Q315.5 237.8 314.95 237.5L313.95 237.6L312.4 237.45Q312.35 237.35 312.85 236.65L313.8 235.55L312.5 236L311.45 236.05Q310.5 236.05 310 235.55L313.2 233.4Q315.95 231.7 317.2 229.75L314.75 229.9Q312.7 229.9 312.7 228.75Q312.7 228.25 313.5 227.75L314.75 227.15L314.6 227.15L311.7 226.55Q310 226.15 310 225.35Q310 224.4 310.8 224.4L314.6 224.9L313.25 224.05Q311.7 223 311.7 222Q311.7 221.25 312.4 220.85L314.25 220.1L315.55 219.9L314.9 219.85Q312.25 219.5 311.9 218.55L312 218.4L313.95 218.1L315.7 218.1Q313.05 217.4 313.05 216.35Q313.05 216 313.4 215.55Q313.85 214.95 314.45 214.95L316 215.25L317.7 215.5Q319 215.45 320.15 216L321.5 216.5L321.95 216.35L322.35 216.15L322.6 216.25L321.35 215.55Q319.9 214.65 319.9 214.15L320.25 213.55L320.6 212.75L319.15 212.7Q318 212.5 317.7 212.2L319 210.85L320.65 209.9L317.35 207.85Q317.35 207.55 317.9 206.95Q318.5 206.3 318.95 206.3Q319.85 206.3 322.75 208L322.9 208.1L322.5 207.25L322.45 206.55Q322.45 205.45 323.25 204.9L324.9 203.75L322.75 203.85Q321.1 203.85 321.1 202.65L324.95 200.3Q326.4 199.35 327.4 198.85L326.6 196.5L327.8 196.5L329.85 195.4L328.65 195.1Q327.65 194.65 327.65 193.4Q327.65 192 329.3 192Q331.2 191.95 331.7 190.15M331.05 199.9L330.6 201.25L331.05 200L331.05 199.9M332 267.45L332.1 267.35L332.2 267.15L332.15 267.2L332 267.35L332 267.45M297.8 291.95L298 291.85L297.65 291.85L297.2 292.1L297.65 291.95Q297.65 292.25 297.8 292.05L297.8 291.95" />
</g>
</svg>
