<?xml version="1.0" encoding="utf-8"?>
<svg version="1.1" id="Layer_1"
xmlns="http://www.w3.org/2000/svg"
xmlns:xlink="http://www.w3.org/1999/xlink"
width="57px" height="45px"
xml:space="preserve">
<g id="PathID_2271" transform="matrix(1, 0, 0, 1, 28.2, 44.25)">
<path style="fill:#42651B;fill-opacity:1" d="M3.9 -12.65Q3.85 -19.1 -4.15 -27.4L-5.1 -28.5L-2.2 -26.1Q4.4 -18.9 5.2 -12.65L3.9 -12.65" />
<path style="fill:none;stroke-width:0.7;stroke-linecap:round;stroke-linejoin:round;stroke-miterlimit:3;stroke:#000000;stroke-opacity:0.388235" d="M5.2 -12.65Q4.4 -18.9 -2.2 -26.1L-5.1 -28.5L-4.15 -27.4Q3.85 -19.1 3.9 -12.65L5.2 -12.65z" />
</g>
<g id="PathID_2272" transform="matrix(1, 0, 0, 1, 28.2, 44.25)">
<path style="fill:#42651B;fill-opacity:1" d="M12.95 -25.5L11.75 -24.7Q1.85 -18.8 0.15 -12.55L-1.1 -12.9Q1.25 -18.75 9.5 -23.95L12.95 -25.5" />
<path style="fill:none;stroke-width:0.7;stroke-linecap:round;stroke-linejoin:round;stroke-miterlimit:3;stroke:#000000;stroke-opacity:0.388235" d="M12.95 -25.5L11.75 -24.7Q1.85 -18.8 0.15 -12.55L-1.1 -12.9Q1.25 -18.75 9.5 -23.95L12.95 -25.5z" />
</g>
<g id="PathID_2273" transform="matrix(1, 0, 0, 1, 28.2, 44.25)">
<path style="fill:#42651B;fill-opacity:1" d="M-8.35 -24.15L-6.15 -27.2L-6.85 -25.9Q-12.4 -15.85 -10.75 -9.6L-12 -9.25Q-12.9 -15.5 -8.35 -24.15" />
<path style="fill:none;stroke-width:0.7;stroke-linecap:round;stroke-linejoin:round;stroke-miterlimit:3;stroke:#000000;stroke-opacity:0.388235" d="M-8.35 -24.15L-6.15 -27.2L-6.85 -25.9Q-12.4 -15.85 -10.75 -9.6L-12 -9.25Q-12.9 -15.5 -8.35 -24.15z" />
</g>
<g id="PathID_2274" transform="matrix(1, 0, 0, 1, 28.2, 44.25)">
<path style="fill:#42651B;fill-opacity:1" d="M-4.3 -22.8Q-4.45 -22.25 -5.1 -21.95L-6.5 -21.9L-8.05 -22.6L-8.85 -22.55L-9.95 -22.5Q-10.65 -22.75 -11.1 -23.25Q-11.55 -23.85 -11.3 -24.5Q-11.05 -25.15 -9.25 -26.1L-7.15 -27.05Q-7.4 -26.55 -7.65 -24.25L-4.55 -23.9Q-4.1 -23.35 -4.3 -22.8M-7.65 -24.25Q-7.4 -26.55 -7.15 -27.05" />
<path style="fill:none;stroke-width:0.7;stroke-linecap:round;stroke-linejoin:round;stroke-miterlimit:3;stroke:#000000;stroke-opacity:0.298039" d="M-4.3 -22.8Q-4.45 -22.25 -5.1 -21.95L-6.5 -21.9L-8.05 -22.6L-8.85 -22.55L-9.95 -22.5Q-10.65 -22.75 -11.1 -23.25Q-11.55 -23.85 -11.3 -24.5Q-11.05 -25.15 -9.25 -26.1L-7.15 -27.05L-4.55 -23.9Q-4.1 -23.35 -4.3 -22.8z" />
<path style="fill:none;stroke-width:0.7;stroke-linecap:round;stroke-linejoin:round;stroke-miterlimit:3;stroke:#000000;stroke-opacity:0.298039" d="M-7.65 -24.25Q-7.4 -26.55 -7.15 -27.05" />
</g>
<g id="PathID_2275" transform="matrix(1, 0, 0, 1, 28.2, 44.25)">
<path style="fill:#42651B;fill-opacity:1" d="M-4.35 -28.2L-5.45 -27.75L-7.85 -26.15Q-7.45 -26.85 -7.45 -27.55L-8.55 -27.35L-8.95 -27.75L-10.45 -29.3Q-10.9 -29.85 -10.7 -30.45Q-10.55 -31.05 -9.9 -31.3Q-9.25 -31.5 -8.5 -31.3L-6.95 -30.6L-6.15 -30.7L-5.05 -30.7L-3.9 -30Q-3.5 -29.4 -3.6 -29Q-3.7 -28.55 -4.35 -28.2M-7.45 -27.55L-7.35 -28.35L-7.35 -28.95L-7.35 -28.35L-7.45 -27.55Q-7.45 -26.85 -7.85 -26.15" />
<path style="fill:none;stroke-width:0.7;stroke-linecap:round;stroke-linejoin:round;stroke-miterlimit:3;stroke:#000000;stroke-opacity:0.298039" d="M-4.35 -28.2L-5.45 -27.75L-7.85 -26.15L-8.55 -27.35L-8.95 -27.75L-10.45 -29.3Q-10.9 -29.85 -10.7 -30.45Q-10.55 -31.05 -9.9 -31.3Q-9.25 -31.5 -8.5 -31.3L-6.95 -30.6L-6.15 -30.7L-5.05 -30.7L-3.9 -30Q-3.5 -29.4 -3.6 -29Q-3.7 -28.55 -4.35 -28.2z" />
<path style="fill:none;stroke-width:0.7;stroke-linecap:round;stroke-linejoin:round;stroke-miterlimit:3;stroke:#000000;stroke-opacity:0.298039" d="M-7.35 -28.95L-7.35 -28.35L-7.45 -27.55Q-7.45 -26.85 -7.85 -26.15" />
</g>
<g id="PathID_2276" transform="matrix(1, 0, 0, 1, 28.2, 44.25)">
<path style="fill:#42651B;fill-opacity:1" d="M-12.5 -25.25Q-14 -26.4 -13.85 -27.05L-13.3 -28.2L-12.95 -28.5L-12.85 -29.1L-12.5 -29.9Q-12.1 -30.35 -11.2 -30.45Q-10.35 -30.6 -9.2 -28.95L-8.45 -27.65L-7.65 -26.1L-8.45 -27.05Q-11 -24.1 -12.5 -25.25M-8.45 -27.05L-8.5 -27.1L-8.9 -27.3L-9.25 -27.5L-8.9 -27.3L-8.5 -27.1L-8.45 -27.05L-7.65 -26.1" />
<path style="fill:none;stroke-width:0.7;stroke-linecap:round;stroke-linejoin:round;stroke-miterlimit:3;stroke:#000000;stroke-opacity:0.298039" d="M-7.65 -26.1L-8.45 -27.65L-9.2 -28.95Q-10.35 -30.6 -11.2 -30.45Q-12.1 -30.35 -12.5 -29.9L-12.85 -29.1L-12.95 -28.5L-13.3 -28.2L-13.85 -27.05Q-14 -26.4 -12.5 -25.25Q-11 -24.1 -7.65 -26.1L-8.45 -27.05" />
<path style="fill:none;stroke-width:0.7;stroke-linecap:round;stroke-linejoin:round;stroke-miterlimit:3;stroke:#000000;stroke-opacity:0.298039" d="M-8.45 -27.05L-8.5 -27.1" />
<path style="fill:none;stroke-width:0.7;stroke-linecap:round;stroke-linejoin:round;stroke-miterlimit:3;stroke:#000000;stroke-opacity:0.298039" d="M-8.5 -27.1L-8.9 -27.3L-9.25 -27.5" />
</g>
<g id="PathID_2277" transform="matrix(1, 0, 0, 1, 28.2, 44.25)">
<path style="fill:#42651B;fill-opacity:1" d="M-0.6 -25.3Q-0.7 -24.7 -1.25 -24.15Q-1.8 -23.75 -3.15 -23.8Q-4.05 -23.8 -5.8 -24.85L-6.95 -25.6L-7.65 -26.05L-6.4 -26.8Q-8 -27.15 -5.75 -28.5Q-3.5 -29.85 -2.6 -29.35Q-1.65 -28.95 -1.35 -28.4Q-1.05 -27.9 -1.1 -27.45L-1.25 -26.95Q-0.5 -25.9 -0.6 -25.3M-6.4 -26.8L-5.5 -27L-6.4 -26.8L-7.65 -26.05" />
<path style="fill:none;stroke-width:0.7;stroke-linecap:round;stroke-linejoin:round;stroke-miterlimit:3;stroke:#000000;stroke-opacity:0.298039" d="M-0.6 -25.3Q-0.7 -24.7 -1.25 -24.15Q-1.8 -23.75 -3.15 -23.8Q-4.05 -23.8 -5.8 -24.85L-6.95 -25.6L-7.65 -26.05Q-8 -27.15 -5.75 -28.5Q-3.5 -29.85 -2.6 -29.35Q-1.65 -28.95 -1.35 -28.4Q-1.05 -27.9 -1.1 -27.45L-1.25 -26.95Q-0.5 -25.9 -0.6 -25.3z" />
<path style="fill:none;stroke-width:0.7;stroke-linecap:round;stroke-linejoin:round;stroke-miterlimit:3;stroke:#000000;stroke-opacity:0.298039" d="M-5.5 -27L-6.4 -26.8L-7.65 -26.05" />
</g>
<g id="PathID_2278" transform="matrix(1, 0, 0, 1, 28.2, 44.25)">
<path style="fill:#42651B;fill-opacity:1" d="M8.6 -11.3Q1.7 -15.6 -3.7 -25.8L-5.15 -29.8L-4.35 -28.35Q1.7 -16.2 9.2 -12.5L8.6 -11.3" />
<path style="fill:none;stroke-width:0.7;stroke-linecap:round;stroke-linejoin:round;stroke-miterlimit:3;stroke:#000000;stroke-opacity:0.388235" d="M8.6 -11.3Q1.7 -15.6 -3.7 -25.8L-5.15 -29.8L-4.35 -28.35Q1.7 -16.2 9.2 -12.5L8.6 -11.3z" />
</g>
<g id="PathID_2279" transform="matrix(1, 0, 0, 1, 28.2, 44.25)">
<path style="fill:#42651B;fill-opacity:1" d="M-12.55 -11.5Q-12.6 -17.95 -20.6 -26.25L-21.55 -27.35L-18.65 -24.95Q-12.05 -17.75 -11.25 -11.5L-12.55 -11.5" />
<path style="fill:none;stroke-width:0.7;stroke-linecap:round;stroke-linejoin:round;stroke-miterlimit:3;stroke:#000000;stroke-opacity:0.388235" d="M-11.25 -11.5Q-12.05 -17.75 -18.65 -24.95L-21.55 -27.35L-20.6 -26.25Q-12.6 -17.95 -12.55 -11.5L-11.25 -11.5z" />
</g>
<g id="PathID_2280" transform="matrix(1, 0, 0, 1, 28.2, 44.25)">
<path style="fill:#C36477;fill-opacity:1" d="M-19.25 -35.85Q-18.85 -35.15 -18.6 -34.2Q-18.5 -33.55 -18.95 -32.95Q-19.9 -32.95 -20.55 -33.8Q-20.7 -34.9 -20.3 -35.5L-19.35 -36.05L-19.25 -35.85" />
<path style="fill:none;stroke-width:0.7;stroke-linecap:round;stroke-linejoin:round;stroke-miterlimit:3;stroke:#000000;stroke-opacity:0.298039" d="M-19.35 -36.05L-20.3 -35.5Q-20.7 -34.9 -20.55 -33.8Q-19.9 -32.95 -18.95 -32.95Q-18.5 -33.55 -18.6 -34.2Q-18.85 -35.15 -19.25 -35.85L-19.35 -36.05z" />
</g>
<g id="PathID_2281" transform="matrix(1, 0, 0, 1, 28.2, 44.25)">
<path style="fill:#C36477;fill-opacity:1" d="M-21.85 -34.35L-20.05 -34Q-19.4 -33.8 -19.05 -33.15Q-19.55 -32.35 -20.65 -32.25L-22.1 -33.25Q-22.35 -33.75 -22.05 -34.35L-21.85 -34.35" />
<path style="fill:none;stroke-width:0.7;stroke-linecap:round;stroke-linejoin:round;stroke-miterlimit:3;stroke:#000000;stroke-opacity:0.298039" d="M-22.05 -34.35Q-22.35 -33.75 -22.1 -33.25L-20.65 -32.25Q-19.55 -32.35 -19.05 -33.15Q-19.4 -33.8 -20.05 -34L-21.85 -34.35L-22.05 -34.35z" />
</g>
<g id="PathID_2282" transform="matrix(1, 0, 0, 1, 28.2, 44.25)">
<path style="fill:#C36477;fill-opacity:1" d="M-17.8 -35.9Q-17.15 -35.65 -17 -35.1Q-16.8 -34.5 -17.2 -33.45Q-18.15 -32.75 -19 -33Q-19.3 -33.7 -19 -34.3L-18 -35.7L-17.8 -35.9" />
<path style="fill:none;stroke-width:0.7;stroke-linecap:round;stroke-linejoin:round;stroke-miterlimit:3;stroke:#000000;stroke-opacity:0.298039" d="M-17.8 -35.9Q-17.15 -35.65 -17 -35.1Q-16.8 -34.5 -17.2 -33.45Q-18.15 -32.75 -19 -33Q-19.3 -33.7 -19 -34.3L-18 -35.7L-17.8 -35.9z" />
</g>
<g id="PathID_2283" transform="matrix(1, 0, 0, 1, 28.2, 44.25)">
<path style="fill:#C36477;fill-opacity:1" d="M-21.55 -31.45L-20.35 -32.8L-19.05 -33.15Q-18.55 -32.35 -19 -31.35Q-19.95 -30.7 -20.65 -30.7Q-21.25 -30.75 -21.65 -31.25L-21.55 -31.45" />
<path style="fill:none;stroke-width:0.7;stroke-linecap:round;stroke-linejoin:round;stroke-miterlimit:3;stroke:#000000;stroke-opacity:0.298039" d="M-21.65 -31.25Q-21.25 -30.75 -20.65 -30.7Q-19.95 -30.7 -19 -31.35Q-18.55 -32.35 -19.05 -33.15L-20.35 -32.8L-21.55 -31.45L-21.65 -31.25z" />
</g>
<g id="PathID_2284" transform="matrix(1, 0, 0, 1, 28.2, 44.25)">
<path style="fill:#C36477;fill-opacity:1" d="M-16 -32.65Q-16.1 -32 -16.6 -31.7L-18.35 -31.45Q-19.25 -32.15 -19.25 -33.05L-17.9 -33.35L-16.2 -32.75L-16 -32.65" />
<path style="fill:none;stroke-width:0.7;stroke-linecap:round;stroke-linejoin:round;stroke-miterlimit:3;stroke:#000000;stroke-opacity:0.298039" d="M-16 -32.65Q-16.1 -32 -16.6 -31.7L-18.35 -31.45Q-19.25 -32.15 -19.25 -33.05L-17.9 -33.35L-16.2 -32.75L-16 -32.65z" />
</g>
<g id="PathID_2285" transform="matrix(1, 0, 0, 1, 28.2, 44.25)">
<path style="fill:#42651B;fill-opacity:1" d="M-16.25 -27.45Q-15.9 -27 -16.25 -26.4Q-16.6 -25.85 -17.35 -25.45L-19.05 -24.9L-19.65 -24.3L-20.5 -23.6L-22 -23.3Q-22.75 -23.35 -23.05 -23.95Q-23.4 -24.55 -22.65 -26.25L-21.75 -28.25L-20 -26.2L-17.35 -28Q-16.6 -27.9 -16.25 -27.45M-20 -26.2L-21.75 -28.25" />
<path style="fill:none;stroke-width:0.7;stroke-linecap:round;stroke-linejoin:round;stroke-miterlimit:3;stroke:#000000;stroke-opacity:0.298039" d="M-16.25 -27.45Q-15.9 -27 -16.25 -26.4Q-16.6 -25.85 -17.35 -25.45L-19.05 -24.9L-19.65 -24.3L-20.5 -23.6L-22 -23.3Q-22.75 -23.35 -23.05 -23.95Q-23.4 -24.55 -22.65 -26.25L-21.75 -28.25L-17.35 -28Q-16.6 -27.9 -16.25 -27.45z" />
<path style="fill:none;stroke-width:0.7;stroke-linecap:round;stroke-linejoin:round;stroke-miterlimit:3;stroke:#000000;stroke-opacity:0.298039" d="M-20 -26.2L-21.75 -28.25" />
</g>
<g id="PathID_2286" transform="matrix(1, 0, 0, 1, 28.2, 44.25)">
<path style="fill:#42651B;fill-opacity:1" d="M-20.45 -30.8L-20.95 -29.8L-21.6 -27.25L-22.35 -28.45L-23.1 -27.55L-23.65 -27.5L-26 -27.5Q-26.75 -27.6 -27.1 -28.05Q-27.45 -28.5 -27.15 -29.1L-26 -30.05L-24.3 -30.6L-23.7 -31.2L-22.85 -31.9L-21.35 -32.2Q-20.6 -32.15 -20.4 -31.8Q-20.15 -31.45 -20.45 -30.8M-22.35 -28.45L-22.85 -28.95L-23.35 -29.3L-22.85 -28.95L-22.35 -28.45L-21.6 -27.25" />
<path style="fill:none;stroke-width:0.7;stroke-linecap:round;stroke-linejoin:round;stroke-miterlimit:3;stroke:#000000;stroke-opacity:0.298039" d="M-20.45 -30.8L-20.95 -29.8L-21.6 -27.25L-23.1 -27.55L-23.65 -27.5L-26 -27.5Q-26.75 -27.6 -27.1 -28.05Q-27.45 -28.5 -27.15 -29.1L-26 -30.05L-24.3 -30.6L-23.7 -31.2L-22.85 -31.9L-21.35 -32.2Q-20.6 -32.15 -20.4 -31.8Q-20.15 -31.45 -20.45 -30.8z" />
<path style="fill:none;stroke-width:0.7;stroke-linecap:round;stroke-linejoin:round;stroke-miterlimit:3;stroke:#000000;stroke-opacity:0.298039" d="M-23.35 -29.3L-22.85 -28.95L-22.35 -28.45L-21.6 -27.25" />
</g>
<g id="PathID_2287" transform="matrix(1, 0, 0, 1, 28.2, 44.25)">
<path style="fill:#42651B;fill-opacity:1" d="M-24.55 -23.65Q-26.6 -23.35 -27.05 -23.9Q-27.5 -24.35 -27.45 -25L-27.4 -25.4L-27.8 -25.85L-28.1 -26.55Q-28.15 -27.05 -27.55 -27.75Q-26.9 -28.4 -24.8 -28.05L-23.25 -27.8L-21.35 -27.35L-22.8 -27.4Q-22.5 -23.9 -24.55 -23.65M-22.8 -27.4L-22.85 -27.4L-23.3 -27.3L-23.7 -27.15L-23.3 -27.3L-22.85 -27.4L-22.8 -27.4L-21.35 -27.35" />
<path style="fill:none;stroke-width:0.7;stroke-linecap:round;stroke-linejoin:round;stroke-miterlimit:3;stroke:#000000;stroke-opacity:0.298039" d="M-21.35 -27.35L-23.25 -27.8L-24.8 -28.05Q-26.9 -28.4 -27.55 -27.75Q-28.15 -27.05 -28.1 -26.55L-27.8 -25.85L-27.4 -25.4L-27.45 -25Q-27.5 -24.35 -27.05 -23.9Q-26.6 -23.35 -24.55 -23.65Q-22.5 -23.9 -21.35 -27.35L-22.8 -27.4" />
<path style="fill:none;stroke-width:0.7;stroke-linecap:round;stroke-linejoin:round;stroke-miterlimit:3;stroke:#000000;stroke-opacity:0.298039" d="M-22.8 -27.4L-22.85 -27.4" />
<path style="fill:none;stroke-width:0.7;stroke-linecap:round;stroke-linejoin:round;stroke-miterlimit:3;stroke:#000000;stroke-opacity:0.298039" d="M-22.85 -27.4L-23.3 -27.3L-23.7 -27.15" />
</g>
<g id="PathID_2288" transform="matrix(1, 0, 0, 1, 28.2, 44.25)">
<path style="fill:#42651B;fill-opacity:1" d="M-15.3 -31.45Q-14.85 -30.95 -14.9 -30.3Q-15.05 -29.65 -16.15 -28.85Q-16.9 -28.25 -19 -27.75L-20.5 -27.5L-21.3 -27.35L-20.95 -28.6Q-22.5 -27.75 -21.7 -30.1Q-20.95 -32.4 -19.9 -32.7L-18.2 -32.9L-17.25 -32.45L-17.05 -32.05Q-15.65 -31.85 -15.3 -31.45M-20.95 -28.6L-20.4 -29.3L-20.95 -28.6L-21.3 -27.35" />
<path style="fill:none;stroke-width:0.7;stroke-linecap:round;stroke-linejoin:round;stroke-miterlimit:3;stroke:#000000;stroke-opacity:0.298039" d="M-15.3 -31.45Q-14.85 -30.95 -14.9 -30.3Q-15.05 -29.65 -16.15 -28.85Q-16.9 -28.25 -19 -27.75L-20.5 -27.5L-21.3 -27.35Q-22.5 -27.75 -21.7 -30.1Q-20.95 -32.4 -19.9 -32.7L-18.2 -32.9L-17.25 -32.45L-17.05 -32.05Q-15.65 -31.85 -15.3 -31.45z" />
<path style="fill:none;stroke-width:0.7;stroke-linecap:round;stroke-linejoin:round;stroke-miterlimit:3;stroke:#000000;stroke-opacity:0.298039" d="M-20.4 -29.3L-20.95 -28.6L-21.3 -27.35" />
</g>
<g id="PathID_2289" transform="matrix(1, 0, 0, 1, 28.2, 44.25)">
<path style="fill:#42651B;fill-opacity:1" d="M-7.9 -30.75Q-1.85 -20.15 -2.8 -12.55L-4.45 -13Q-2.5 -20.55 -9.95 -32.95L-10.8 -34.5L-7.9 -30.75" />
<path style="fill:none;stroke-width:0.7;stroke-linecap:round;stroke-linejoin:round;stroke-miterlimit:3;stroke:#000000;stroke-opacity:0.388235" d="M-10.8 -34.5L-9.95 -32.95Q-2.5 -20.55 -4.45 -13L-2.8 -12.55Q-1.85 -20.15 -7.9 -30.75L-10.8 -34.5z" />
</g>
<g id="PathID_2290" transform="matrix(1, 0, 0, 1, 28.2, 44.25)">
<path style="fill:#42651B;fill-opacity:1" d="M-16.75 -19.05L-18.1 -19.5L-14.4 -18.9Q-5.1 -15.95 -1.25 -10.95L-2.35 -10.3Q-5.65 -15.9 -16.75 -19.05" />
<path style="fill:none;stroke-width:0.7;stroke-linecap:round;stroke-linejoin:round;stroke-miterlimit:3;stroke:#000000;stroke-opacity:0.388235" d="M-2.35 -10.3L-1.25 -10.95Q-5.1 -15.95 -14.4 -18.9L-18.1 -19.5L-16.75 -19.05Q-5.65 -15.9 -2.35 -10.3z" />
</g>
<g id="PathID_2291" transform="matrix(1, 0, 0, 1, 28.2, 44.25)">
<path style="fill:#42651B;fill-opacity:1" d="M8.05 -9.5Q10 -17.05 2.55 -29.45L1.7 -31L4.6 -27.25Q10.65 -16.65 9.7 -9.05L8.05 -9.5" />
<path style="fill:none;stroke-width:0.7;stroke-linecap:round;stroke-linejoin:round;stroke-miterlimit:3;stroke:#000000;stroke-opacity:0.388235" d="M9.7 -9.05Q10.65 -16.65 4.6 -27.25L1.7 -31L2.55 -29.45Q10 -17.05 8.05 -9.5L9.7 -9.05z" />
</g>
<g id="PathID_2292" transform="matrix(1, 0, 0, 1, 28.2, 44.25)">
<path style="fill:#C36477;fill-opacity:1" d="M21.75 -33.6L22.75 -33Q23.1 -32.45 23 -31.35Q22.3 -30.45 21.35 -30.5Q20.9 -31.1 21.05 -31.75L21.65 -33.4L21.75 -33.6" />
<path style="fill:none;stroke-width:0.7;stroke-linecap:round;stroke-linejoin:round;stroke-miterlimit:3;stroke:#000000;stroke-opacity:0.298039" d="M21.75 -33.6L22.75 -33Q23.1 -32.45 23 -31.35Q22.3 -30.45 21.35 -30.5Q20.9 -31.1 21.05 -31.75L21.65 -33.4L21.75 -33.6z" />
</g>
<g id="PathID_2293" transform="matrix(1, 0, 0, 1, 28.2, 44.25)">
<path style="fill:#C36477;fill-opacity:1" d="M24.5 -31.9Q24.75 -31.3 24.5 -30.8Q24.15 -30.2 23.1 -29.8Q21.95 -29.9 21.5 -30.7Q21.85 -31.35 22.45 -31.55L24.25 -31.9L24.5 -31.9" />
<path style="fill:none;stroke-width:0.7;stroke-linecap:round;stroke-linejoin:round;stroke-miterlimit:3;stroke:#000000;stroke-opacity:0.298039" d="M24.5 -31.9Q24.75 -31.3 24.5 -30.8Q24.15 -30.2 23.1 -29.8Q21.95 -29.9 21.5 -30.7Q21.85 -31.35 22.45 -31.55L24.25 -31.9L24.5 -31.9z" />
</g>
<g id="PathID_2294" transform="matrix(1, 0, 0, 1, 28.2, 44.25)">
<path style="fill:#C36477;fill-opacity:1" d="M20.4 -33.25L21.4 -31.85Q21.75 -31.25 21.4 -30.55Q20.55 -30.3 19.65 -30.95Q19.2 -32.05 19.4 -32.65Q19.55 -33.2 20.25 -33.4L20.4 -33.25" />
<path style="fill:none;stroke-width:0.7;stroke-linecap:round;stroke-linejoin:round;stroke-miterlimit:3;stroke:#000000;stroke-opacity:0.298039" d="M20.25 -33.4Q19.55 -33.2 19.4 -32.65Q19.2 -32.05 19.65 -30.95Q20.55 -30.3 21.4 -30.55Q21.75 -31.25 21.4 -31.85L20.4 -33.25L20.25 -33.4z" />
</g>
<g id="PathID_2295" transform="matrix(1, 0, 0, 1, 28.2, 44.25)">
<path style="fill:#C36477;fill-opacity:1" d="M21.5 -30.7Q22.2 -30.75 22.75 -30.35L23.95 -29L24.05 -28.8Q23.7 -28.3 23.05 -28.25Q22.35 -28.25 21.4 -28.9Q20.95 -29.9 21.5 -30.7" />
<path style="fill:none;stroke-width:0.7;stroke-linecap:round;stroke-linejoin:round;stroke-miterlimit:3;stroke:#000000;stroke-opacity:0.298039" d="M21.5 -30.7Q22.2 -30.75 22.75 -30.35L23.95 -29L24.05 -28.8Q23.7 -28.3 23.05 -28.25Q22.35 -28.25 21.4 -28.9Q20.95 -29.9 21.5 -30.7z" />
</g>
<g id="PathID_2296" transform="matrix(1, 0, 0, 1, 28.2, 44.25)">
<path style="fill:#C36477;fill-opacity:1" d="M18.65 -30.3L20.35 -30.85Q21.05 -31 21.65 -30.55Q21.65 -29.7 20.75 -29L19 -29.25Q18.5 -29.55 18.4 -30.2L18.65 -30.3" />
<path style="fill:none;stroke-width:0.7;stroke-linecap:round;stroke-linejoin:round;stroke-miterlimit:3;stroke:#000000;stroke-opacity:0.298039" d="M18.4 -30.2Q18.5 -29.55 19 -29.25L20.75 -29Q21.65 -29.7 21.65 -30.55Q21.05 -31 20.35 -30.85L18.65 -30.3L18.4 -30.2z" />
</g>
<g id="PathID_2297" transform="matrix(1, 0, 0, 1, 28.2, 44.25)">
<path style="fill:#42651B;fill-opacity:1" d="M21.2 -9.1Q16.25 -16.3 18.5 -32.6L20.25 -39L19.95 -36.6Q16.8 -17.3 23.05 -10.9L21.2 -9.1" />
<path style="fill:none;stroke-width:0.7;stroke-linecap:round;stroke-linejoin:round;stroke-miterlimit:3;stroke:#000000;stroke-opacity:0.388235" d="M21.2 -9.1Q16.25 -16.3 18.5 -32.6L20.25 -39L19.95 -36.6Q16.8 -17.3 23.05 -10.9L21.2 -9.1z" />
</g>
<g id="PathID_2298" transform="matrix(1, 0, 0, 1, 28.2, 44.25)">
<path style="fill:#42651B;fill-opacity:1" d="M4.35 -33.35L3.5 -31.45Q-3.85 -17.05 -1.45 -8L-3.2 -7.55Q-4.5 -16.6 1.45 -28.95L4.35 -33.35" />
<path style="fill:none;stroke-width:0.7;stroke-linecap:round;stroke-linejoin:round;stroke-miterlimit:3;stroke:#000000;stroke-opacity:0.388235" d="M4.35 -33.35L3.5 -31.45Q-3.85 -17.05 -1.45 -8L-3.2 -7.55Q-4.5 -16.6 1.45 -28.95L4.35 -33.35z" />
</g>
<g id="PathID_2299" transform="matrix(1, 0, 0, 1, 28.2, 44.25)">
<path style="fill:#42651B;fill-opacity:1" d="M11.7 -19.85Q11.3 -19.35 10.55 -19.45Q9.9 -19.6 9.35 -20.2L8.35 -21.5L7.65 -21.9Q6.85 -22.15 6.65 -22.4Q6.15 -22.95 6 -23.65Q5.9 -24.35 6.5 -24.8L9 -25.15L11.3 -24.95L9.55 -22.75L12.05 -20.95Q12.1 -20.25 11.7 -19.85M9.55 -22.75L11.3 -24.95" />
<path style="fill:none;stroke-width:0.7;stroke-linecap:round;stroke-linejoin:round;stroke-miterlimit:3;stroke:#000000;stroke-opacity:0.298039" d="M11.7 -19.85Q11.3 -19.35 10.55 -19.45Q9.9 -19.6 9.35 -20.2L8.35 -21.5L7.65 -21.9Q6.85 -22.15 6.65 -22.4Q6.15 -22.95 6 -23.65Q5.9 -24.35 6.5 -24.8L9 -25.15L11.3 -24.95L12.05 -20.95Q12.1 -20.25 11.7 -19.85z" />
<path style="fill:none;stroke-width:0.7;stroke-linecap:round;stroke-linejoin:round;stroke-miterlimit:3;stroke:#000000;stroke-opacity:0.298039" d="M9.55 -22.75L11.3 -24.95" />
</g>
<g id="PathID_2300" transform="matrix(1, 0, 0, 1, 28.2, 44.25)">
<path style="fill:#42651B;fill-opacity:1" d="M14.35 -24.6L13.15 -24.65L10.3 -24.5L11.4 -25.55L10.25 -25.95L10.15 -26.4L9.65 -28.5Q9.5 -29.2 9.95 -29.65Q10.35 -30.1 11.1 -30Q11.75 -29.85 12.3 -29.3L13.25 -27.9L14.05 -27.6L14.95 -27.05L15.6 -25.8Q15.7 -25.15 15.4 -24.85Q15.05 -24.55 14.35 -24.6M11.4 -25.55L11.8 -26.15L12.1 -26.7L11.8 -26.15L11.4 -25.55L10.3 -24.5" />
<path style="fill:none;stroke-width:0.7;stroke-linecap:round;stroke-linejoin:round;stroke-miterlimit:3;stroke:#000000;stroke-opacity:0.298039" d="M14.35 -24.6L13.15 -24.65L10.3 -24.5L10.25 -25.95L10.15 -26.4L9.65 -28.5Q9.5 -29.2 9.95 -29.65Q10.35 -30.1 11.1 -30Q11.75 -29.85 12.3 -29.3L13.25 -27.9L14.05 -27.6L14.95 -27.05L15.6 -25.8Q15.7 -25.15 15.4 -24.85Q15.05 -24.55 14.35 -24.6z" />
<path style="fill:none;stroke-width:0.7;stroke-linecap:round;stroke-linejoin:round;stroke-miterlimit:3;stroke:#000000;stroke-opacity:0.298039" d="M12.1 -26.7L11.8 -26.15L11.4 -25.55L10.3 -24.5" />
</g>
<g id="PathID_2301" transform="matrix(1, 0, 0, 1, 28.2, 44.25)">
<path style="fill:#42651B;fill-opacity:1" d="M5.8 -26.05Q5.05 -27.75 5.5 -28.3Q5.9 -28.85 6.6 -29L7.1 -29.15L7.45 -29.6L8.1 -30.1L9.5 -29.95Q10.35 -29.6 10.45 -27.6L10.55 -26.1L10.45 -24.3L10.2 -25.65Q6.55 -24.3 5.8 -26.05M10.2 -25.65L10.15 -25.7L10 -26.05L9.75 -26.35L10 -26.05L10.15 -25.7L10.2 -25.65L10.45 -24.3" />
<path style="fill:none;stroke-width:0.7;stroke-linecap:round;stroke-linejoin:round;stroke-miterlimit:3;stroke:#000000;stroke-opacity:0.298039" d="M10.45 -24.3L10.55 -26.1L10.45 -27.6Q10.35 -29.6 9.5 -29.95L8.1 -30.1L7.45 -29.6L7.1 -29.15L6.6 -29Q5.9 -28.85 5.5 -28.3Q5.05 -27.75 5.8 -26.05Q6.55 -24.3 10.45 -24.3L10.2 -25.65" />
<path style="fill:none;stroke-width:0.7;stroke-linecap:round;stroke-linejoin:round;stroke-miterlimit:3;stroke:#000000;stroke-opacity:0.298039" d="M10.2 -25.65L10.15 -25.7" />
<path style="fill:none;stroke-width:0.7;stroke-linecap:round;stroke-linejoin:round;stroke-miterlimit:3;stroke:#000000;stroke-opacity:0.298039" d="M10.15 -25.7L10 -26.05L9.75 -26.35" />
</g>
<g id="PathID_2302" transform="matrix(1, 0, 0, 1, 28.2, 44.25)">
<path style="fill:#42651B;fill-opacity:1" d="M16.15 -20.2Q15.75 -19.65 15.05 -19.5Q14.35 -19.45 13.2 -20.15Q12.4 -20.65 11.35 -22.4L10.8 -23.6L10.45 -24.3L11.85 -24.35Q10.65 -25.45 13.3 -25.5Q15.9 -25.5 16.5 -24.65L17.05 -23.25Q17.1 -22.6 16.8 -22.25L16.4 -21.9Q16.5 -20.65 16.15 -20.2M11.85 -24.35L11.9 -24.35L12.75 -24.05L11.9 -24.35L11.85 -24.35L10.45 -24.3" />
<path style="fill:none;stroke-width:0.7;stroke-linecap:round;stroke-linejoin:round;stroke-miterlimit:3;stroke:#000000;stroke-opacity:0.298039" d="M16.15 -20.2Q15.75 -19.65 15.05 -19.5Q14.35 -19.45 13.2 -20.15Q12.4 -20.65 11.35 -22.4L10.8 -23.6L10.45 -24.3Q10.65 -25.45 13.3 -25.5Q15.9 -25.5 16.5 -24.65L17.05 -23.25Q17.1 -22.6 16.8 -22.25L16.4 -21.9Q16.5 -20.65 16.15 -20.2z" />
<path style="fill:none;stroke-width:0.7;stroke-linecap:round;stroke-linejoin:round;stroke-miterlimit:3;stroke:#000000;stroke-opacity:0.298039" d="M12.75 -24.05L11.9 -24.35L11.85 -24.35L10.45 -24.3" />
</g>
<g id="PathID_2303" transform="matrix(1, 0, 0, 1, 28.2, 44.25)">
<path style="fill:#42651B;fill-opacity:1" d="M12.15 -5.75Q11.5 -12.5 18 -22.3L21.05 -25.8L20.1 -24.3Q12.15 -12.9 13.85 -6.2L12.15 -5.75" />
<path style="fill:none;stroke-width:0.7;stroke-linecap:round;stroke-linejoin:round;stroke-miterlimit:3;stroke:#000000;stroke-opacity:0.388235" d="M12.15 -5.75Q11.5 -12.5 18 -22.3L21.05 -25.8L20.1 -24.3Q12.15 -12.9 13.85 -6.2L12.15 -5.75z" />
</g>
<g id="PathID_2304" transform="matrix(1, 0, 0, 1, 28.2, 44.25)">
<path style="fill:#42651B;fill-opacity:1" d="M-12.85 -24.25L-13.45 -25.2L-11.65 -23.15Q-7.5 -17.15 -6.95 -11.9L-7.8 -11.9Q-7.8 -17.3 -12.85 -24.25" />
<path style="fill:none;stroke-width:0.7;stroke-linecap:round;stroke-linejoin:round;stroke-miterlimit:3;stroke:#000000;stroke-opacity:0.388235" d="M-7.8 -11.9L-6.95 -11.9Q-7.5 -17.15 -11.65 -23.15L-13.45 -25.2L-12.85 -24.25Q-7.8 -17.3 -7.8 -11.9z" />
</g>
<g id="PathID_2305" transform="matrix(1, 0, 0, 1, 28.2, 44.25)">
<path style="fill:#528229;fill-opacity:1" d="M21.4 -23.25Q20.55 -22.8 20.35 -23.75L20.35 -24.5L20.25 -24.5Q19.4 -24.25 19.45 -24.8L19.75 -23.8Q20.1 -22.15 20.9 -22.35Q21.3 -22.45 21.5 -22.65L21.4 -23.25M19.45 -24.8L19.55 -25.7L19.05 -25.75Q18.5 -24.45 19.15 -24Q19.4 -23.8 19.75 -23.8L20.25 -24.5" />
<path style="fill:#42651B;fill-opacity:1" d="M19.55 -25.7L19.45 -24.8Q19.4 -24.25 20.25 -24.5L20.35 -24.5L20.35 -23.75Q20.55 -22.8 21.4 -23.25L20.95 -26.1L19.55 -25.7M20.95 -26.1L20.35 -24.5L20.95 -26.1" />
<linearGradient
id="LinearGradID_1191" gradientUnits="userSpaceOnUse" gradientTransform="matrix(-0.000640869, 0.00143433, 0.00189209, 0.00134277, 19.1, -22.75)" spreadMethod ="pad" x1="-819.2" y1="0" x2="819.2" y2="0" >
<stop  offset="0" style="stop-color:#42651B;stop-opacity:1" />
<stop  offset="1" style="stop-color:#5F8B2B;stop-opacity:1" />
</linearGradient>
<path style="fill:url(#LinearGradID_1191) " d="M19.15 -24Q18.5 -24.45 19.05 -25.75L16.95 -25.75Q16.25 -25.65 15.95 -25Q15.65 -24.4 15.95 -23.55Q16.25 -22.8 16.95 -22.3Q17.6 -21.85 18.5 -21.55L19 -20.75L19.75 -19.75Q20.45 -19.3 21.1 -19.35Q21.8 -19.45 22 -19.9L21.95 -21.25L21.5 -22.65Q21.3 -22.45 20.9 -22.35Q20.1 -22.15 19.75 -23.8L19.35 -23.3Q19.4 -23.8 19.15 -24M19.35 -23.3L19.75 -23.8" />
<path style="fill:none;stroke-width:0.7;stroke-linecap:round;stroke-linejoin:round;stroke-miterlimit:3;stroke:#000000;stroke-opacity:0.298039" d="M19.75 -23.8L20.25 -24.5" />
<path style="fill:none;stroke-width:0.7;stroke-linecap:round;stroke-linejoin:round;stroke-miterlimit:3;stroke:#000000;stroke-opacity:0.298039" d="M21.4 -23.25L21.5 -22.65L21.95 -21.25L22 -19.9Q21.8 -19.45 21.1 -19.35Q20.45 -19.3 19.75 -19.75L19 -20.75L18.5 -21.55Q17.6 -21.85 16.95 -22.3Q16.25 -22.8 15.95 -23.55Q15.65 -24.4 15.95 -25Q16.25 -25.65 16.95 -25.75L19.05 -25.75" />
<path style="fill:none;stroke-width:0.7;stroke-linecap:round;stroke-linejoin:round;stroke-miterlimit:3;stroke:#000000;stroke-opacity:0.298039" d="M19.75 -23.8L19.35 -23.3" />
<path style="fill:none;stroke-width:0.7;stroke-linecap:round;stroke-linejoin:round;stroke-miterlimit:3;stroke:#000000;stroke-opacity:0.298039" d="M19.55 -25.7L19.05 -25.75" />
<path style="fill:none;stroke-width:0.7;stroke-linecap:round;stroke-linejoin:round;stroke-miterlimit:3;stroke:#000000;stroke-opacity:0.298039" d="M20.35 -24.5L20.95 -26.1L21.4 -23.25" />
<path style="fill:none;stroke-width:0.7;stroke-linecap:round;stroke-linejoin:round;stroke-miterlimit:3;stroke:#000000;stroke-opacity:0.298039" d="M20.95 -26.1L19.55 -25.7" />
</g>
<g id="PathID_2306" transform="matrix(1, 0, 0, 1, 28.2, 44.25)">
<path style="fill:#528229;fill-opacity:1" d="M20.3 -27.6Q21.15 -28.05 21.35 -27.1L21.35 -26.35L21.45 -26.35Q22.3 -26.6 22.25 -26.05L21.95 -27.05Q21.6 -28.7 20.8 -28.5L20.2 -28.2L20.3 -27.6M22.25 -26.05Q22.05 -25.45 22.15 -25.15L22.65 -25.1Q23.2 -26.4 22.55 -26.85L21.95 -27.05L21.45 -26.35" />
<path style="fill:#42651B;fill-opacity:1" d="M22.15 -25.15Q22.05 -25.45 22.25 -26.05Q22.3 -26.6 21.45 -26.35L21.35 -26.35L21.35 -27.1Q21.15 -28.05 20.3 -27.6L20.75 -24.75L22.15 -25.15M20.75 -24.75L21.35 -26.35L20.75 -24.75" />
<linearGradient
id="LinearGradID_1192" gradientUnits="userSpaceOnUse" gradientTransform="matrix(0.000640869, -0.00143433, -0.00189209, -0.00134277, 22.6, -28.1)" spreadMethod ="pad" x1="-819.2" y1="0" x2="819.2" y2="0" >
<stop  offset="0" style="stop-color:#42651B;stop-opacity:1" />
<stop  offset="1" style="stop-color:#5F8B2B;stop-opacity:1" />
</linearGradient>
<path style="fill:url(#LinearGradID_1192) " d="M22.55 -26.85Q23.2 -26.4 22.65 -25.1L24.75 -25.1Q25.45 -25.2 25.75 -25.85Q26.05 -26.45 25.75 -27.3L24.75 -28.55L23.2 -29.3L22.7 -30.1L21.95 -31.1Q21.25 -31.55 20.6 -31.5Q19.9 -31.4 19.7 -30.95Q19.5 -30.45 19.75 -29.6Q19.8 -29.2 20.2 -28.2L20.8 -28.5Q21.6 -28.7 21.95 -27.05L22.35 -27.55L22.55 -26.85M22.35 -27.55L21.95 -27.05" />
<path style="fill:none;stroke-width:0.7;stroke-linecap:round;stroke-linejoin:round;stroke-miterlimit:3;stroke:#000000;stroke-opacity:0.298039" d="M21.95 -27.05L21.45 -26.35" />
<path style="fill:none;stroke-width:0.7;stroke-linecap:round;stroke-linejoin:round;stroke-miterlimit:3;stroke:#000000;stroke-opacity:0.298039" d="M20.3 -27.6L20.2 -28.2Q19.8 -29.2 19.75 -29.6Q19.5 -30.45 19.7 -30.95Q19.9 -31.4 20.6 -31.5Q21.25 -31.55 21.95 -31.1L22.7 -30.1L23.2 -29.3L24.75 -28.55L25.75 -27.3Q26.05 -26.45 25.75 -25.85Q25.45 -25.2 24.75 -25.1L22.65 -25.1" />
<path style="fill:none;stroke-width:0.7;stroke-linecap:round;stroke-linejoin:round;stroke-miterlimit:3;stroke:#000000;stroke-opacity:0.298039" d="M21.95 -27.05L22.35 -27.55" />
<path style="fill:none;stroke-width:0.7;stroke-linecap:round;stroke-linejoin:round;stroke-miterlimit:3;stroke:#000000;stroke-opacity:0.298039" d="M22.15 -25.15L22.65 -25.1" />
<path style="fill:none;stroke-width:0.7;stroke-linecap:round;stroke-linejoin:round;stroke-miterlimit:3;stroke:#000000;stroke-opacity:0.298039" d="M21.35 -26.35L20.75 -24.75L20.3 -27.6" />
<path style="fill:none;stroke-width:0.7;stroke-linecap:round;stroke-linejoin:round;stroke-miterlimit:3;stroke:#000000;stroke-opacity:0.298039" d="M20.75 -24.75L22.15 -25.15" />
</g>
<g id="PathID_2307" transform="matrix(1, 0, 0, 1, 28.2, 44.25)">
<path style="fill:#528229;fill-opacity:1" d="M21.85 -24.95L21.9 -24.35Q21.65 -23.85 20.85 -24L21.35 -22.6Q21.9 -22.4 22.15 -23.4L22.65 -23.35Q23.15 -23.5 22.7 -24.6L22.35 -24.8L21.95 -24.95L21.85 -24.95M23.45 -25.25L23 -25.9L21.9 -25.75Q23 -25.35 21.95 -24.95L22.35 -24.8L22.7 -24.6Q23.6 -24.85 23.45 -25.25" />
<path style="fill:#42651B;fill-opacity:1" d="M21.85 -24.95L20.6 -24.85L21.95 -24.95Q23 -25.35 21.9 -25.75L20.6 -24.85L20.85 -24L21.85 -24.95M20.85 -24Q21.65 -23.85 21.9 -24.35L21.85 -24.95" />
<linearGradient
id="LinearGradID_1193" gradientUnits="userSpaceOnUse" gradientTransform="matrix(0.00158691, 0.00154114, -0.00184631, 0.00302124, 23.5, -23.3)" spreadMethod ="pad" x1="-819.2" y1="0" x2="819.2" y2="0" >
<stop  offset="0" style="stop-color:#42651B;stop-opacity:1" />
<stop  offset="1" style="stop-color:#5F8B2B;stop-opacity:1" />
</linearGradient>
<path style="fill:url(#LinearGradID_1193) " d="M22.95 -20Q24 -19.2 24.6 -19.3Q25.3 -19.45 25.7 -20.15Q26.1 -20.8 26.05 -21.65L26 -22.25L26.35 -22.85L26.65 -23.8Q26.7 -24.5 26.05 -25Q25.45 -25.6 23.65 -25.85L23 -25.9L23.45 -25.25Q23.6 -24.85 22.7 -24.6Q23.15 -23.5 22.65 -23.35L22.15 -23.4Q21.9 -22.4 21.35 -22.6Q22.25 -20.6 22.95 -20" />
<path style="fill:none;stroke-width:0.7;stroke-linecap:round;stroke-linejoin:round;stroke-miterlimit:3;stroke:#000000;stroke-opacity:0.298039" d="M22.7 -24.6L22.35 -24.8L21.95 -24.95" />
<path style="fill:none;stroke-width:0.7;stroke-linecap:round;stroke-linejoin:round;stroke-miterlimit:3;stroke:#000000;stroke-opacity:0.298039" d="M21.9 -25.75L23 -25.9" />
<path style="fill:none;stroke-width:0.7;stroke-linecap:round;stroke-linejoin:round;stroke-miterlimit:3;stroke:#000000;stroke-opacity:0.298039" d="M21.35 -22.6L20.85 -24" />
<path style="fill:none;stroke-width:0.7;stroke-linecap:round;stroke-linejoin:round;stroke-miterlimit:3;stroke:#000000;stroke-opacity:0.298039" d="M21.85 -24.95L21.95 -24.95" />
<path style="fill:none;stroke-width:0.7;stroke-linecap:round;stroke-linejoin:round;stroke-miterlimit:3;stroke:#000000;stroke-opacity:0.298039" d="M23 -25.9L23.65 -25.85Q25.45 -25.6 26.05 -25Q26.7 -24.5 26.65 -23.8L26.35 -22.85L26 -22.25L26.05 -21.65Q26.1 -20.8 25.7 -20.15Q25.3 -19.45 24.6 -19.3Q24 -19.2 22.95 -20Q22.25 -20.6 21.35 -22.6" />
<path style="fill:none;stroke-width:0.7;stroke-linecap:round;stroke-linejoin:round;stroke-miterlimit:3;stroke:#000000;stroke-opacity:0.298039" d="M20.6 -24.85L21.9 -25.75" />
<path style="fill:none;stroke-width:0.7;stroke-linecap:round;stroke-linejoin:round;stroke-miterlimit:3;stroke:#000000;stroke-opacity:0.298039" d="M20.6 -24.85L21.85 -24.95" />
<path style="fill:none;stroke-width:0.7;stroke-linecap:round;stroke-linejoin:round;stroke-miterlimit:3;stroke:#000000;stroke-opacity:0.298039" d="M20.85 -24L20.6 -24.85" />
</g>
<g id="PathID_2308" transform="matrix(1, 0, 0, 1, 28.2, 44.25)">
<path style="fill:#528229;fill-opacity:1" d="M20.2 -26.6L19.7 -27.55L20.2 -26.6Q20.2 -28.1 20.8 -26.8L20.6 -28.2L19.95 -28.65Q19.6 -28.8 19.7 -27.55Q18.6 -27.9 18.65 -27.25L18.85 -26.55Q18.15 -26.05 18.45 -25.4L19.8 -25.05Q19.4 -26.05 19.75 -26.45L20.2 -26.55L20.2 -26.6" />
<path style="fill:#42651B;fill-opacity:1" d="M20.2 -26.55L20.55 -24.85Q20.85 -25.8 20.8 -26.8Q20.2 -28.1 20.2 -26.6L20.2 -26.55M20.2 -26.55L19.75 -26.45Q19.4 -26.05 19.8 -25.05L20.55 -24.85L20.2 -26.55" />
<linearGradient
id="LinearGradID_1194" gradientUnits="userSpaceOnUse" gradientTransform="matrix(-0.00175476, -0.00170898, -0.00184631, 0.00302124, 18.4, -28.25)" spreadMethod ="pad" x1="-819.2" y1="0" x2="819.2" y2="0" >
<stop  offset="0" style="stop-color:#42651B;stop-opacity:1" />
<stop  offset="1" style="stop-color:#5F8B2B;stop-opacity:1" />
</linearGradient>
<path style="fill:url(#LinearGradID_1194) " d="M20.4 -29.05Q19.6 -31.35 18.95 -32Q18.3 -32.6 17.7 -32.45Q17.15 -32.3 16.85 -31.85L16.65 -31.3Q15.4 -31 15.1 -30.45Q14.7 -29.8 14.75 -28.9Q14.85 -28.05 15.85 -26.9Q16.55 -26.1 18.45 -25.4Q18.15 -26.05 18.85 -26.55L18.65 -27.25Q18.6 -27.9 19.7 -27.55Q19.6 -28.8 19.95 -28.65L20.6 -28.2L20.4 -29.05" />
<path style="fill:none;stroke-width:0.7;stroke-linecap:round;stroke-linejoin:round;stroke-miterlimit:3;stroke:#000000;stroke-opacity:0.298039" d="M18.45 -25.4Q16.55 -26.1 15.85 -26.9Q14.85 -28.05 14.75 -28.9Q14.7 -29.8 15.1 -30.45Q15.4 -31 16.65 -31.3L16.85 -31.85Q17.15 -32.3 17.7 -32.45Q18.3 -32.6 18.95 -32Q19.6 -31.35 20.4 -29.05L20.6 -28.2L20.8 -26.8" />
<path style="fill:none;stroke-width:0.7;stroke-linecap:round;stroke-linejoin:round;stroke-miterlimit:3;stroke:#000000;stroke-opacity:0.298039" d="M20.2 -26.6L19.7 -27.55" />
<path style="fill:none;stroke-width:0.7;stroke-linecap:round;stroke-linejoin:round;stroke-miterlimit:3;stroke:#000000;stroke-opacity:0.298039" d="M19.8 -25.05L20.55 -24.85Q20.85 -25.8 20.8 -26.8" />
<path style="fill:none;stroke-width:0.7;stroke-linecap:round;stroke-linejoin:round;stroke-miterlimit:3;stroke:#000000;stroke-opacity:0.298039" d="M18.45 -25.4L19.8 -25.05" />
<path style="fill:none;stroke-width:0.7;stroke-linecap:round;stroke-linejoin:round;stroke-miterlimit:3;stroke:#000000;stroke-opacity:0.298039" d="M20.2 -26.55L20.55 -24.85" />
<path style="fill:none;stroke-width:0.7;stroke-linecap:round;stroke-linejoin:round;stroke-miterlimit:3;stroke:#000000;stroke-opacity:0.298039" d="M20.2 -26.6L20.2 -26.55" />
</g>
<g id="PathID_2309" transform="matrix(1, 0, 0, 1, 28.2, 44.25)">
<path style="fill:#42651B;fill-opacity:1" d="M9.65 -13.2Q8.85 -19.45 13.35 -28.15L15.5 -31.2L14.9 -29.9Q9.35 -19.75 10.95 -13.55L9.65 -13.2" />
<path style="fill:none;stroke-width:0.7;stroke-linecap:round;stroke-linejoin:round;stroke-miterlimit:3;stroke:#000000;stroke-opacity:0.388235" d="M9.65 -13.2Q8.85 -19.45 13.35 -28.15L15.5 -31.2L14.9 -29.9Q9.35 -19.75 10.95 -13.55L9.65 -13.2z" />
</g>
<g id="PathID_2310" transform="matrix(1, 0, 0, 1, 28.2, 44.25)">
<path style="fill:#892806;fill-opacity:1" d="M9.4 -1.9Q13.7 -5.55 12.9 -9.55Q0.45 -11.25 -25.65 -10.55L-26.5 -11.7L27.4 -11.7L18.9 -0.15L-18.25 -0.15L-19.05 -1.3Q-3.7 -0.9 9.4 -1.9" />
<path style="fill:#97300C;fill-opacity:1" d="M-26.5 -11.7L-27.75 -11.7L-27.75 -14.35L28.4 -14.35L28.4 -11.7L27.4 -11.7L-26.5 -11.7M-19.05 -1.3L-25.65 -10.55Q0.45 -11.25 12.9 -9.55Q13.7 -5.55 9.4 -1.9Q-3.7 -0.9 -19.05 -1.3" />
<path style="fill:none;stroke-width:0.7;stroke-linecap:round;stroke-linejoin:round;stroke-miterlimit:3;stroke:#000000;stroke-opacity:0.278431" d="M-26.5 -11.7L-27.75 -11.7L-27.75 -14.35L28.4 -14.35L28.4 -11.7L27.4 -11.7L18.9 -0.15L-18.25 -0.15L-19.05 -1.3L-25.65 -10.55L-26.5 -11.7L27.4 -11.7" />
</g>
<g id="PathID_2311" transform="matrix(1, 0, 0, 1, 28.2, 44.25)">
<path style="fill:#42651B;fill-opacity:1" d="M14.5 -35.55Q14.35 -35 13.7 -34.7L12.3 -34.65L10.75 -35.35L9.95 -35.3L8.85 -35.25Q8.15 -35.5 7.7 -36Q7.25 -36.6 7.5 -37.25Q7.75 -37.9 9.55 -38.85L11.65 -39.8Q11.4 -39.3 11.15 -37L14.25 -36.65Q14.7 -36.1 14.5 -35.55M11.15 -37Q11.4 -39.3 11.65 -39.8" />
<path style="fill:none;stroke-width:0.7;stroke-linecap:round;stroke-linejoin:round;stroke-miterlimit:3;stroke:#000000;stroke-opacity:0.298039" d="M14.5 -35.55Q14.35 -35 13.7 -34.7L12.3 -34.65L10.75 -35.35L9.95 -35.3L8.85 -35.25Q8.15 -35.5 7.7 -36Q7.25 -36.6 7.5 -37.25Q7.75 -37.9 9.55 -38.85L11.65 -39.8L14.25 -36.65Q14.7 -36.1 14.5 -35.55z" />
<path style="fill:none;stroke-width:0.7;stroke-linecap:round;stroke-linejoin:round;stroke-miterlimit:3;stroke:#000000;stroke-opacity:0.298039" d="M11.15 -37Q11.4 -39.3 11.65 -39.8" />
</g>
<g id="PathID_2312" transform="matrix(1, 0, 0, 1, 28.2, 44.25)">
<path style="fill:#42651B;fill-opacity:1" d="M14.45 -40.95L13.35 -40.5L10.95 -38.9Q11.35 -39.6 11.35 -40.3L10.25 -40.1L9.85 -40.5L8.35 -42.05Q7.9 -42.6 8.1 -43.2Q8.25 -43.8 8.9 -44.05Q9.55 -44.25 10.3 -44.05L11.85 -43.35L12.65 -43.45L13.75 -43.45L14.9 -42.75Q15.3 -42.15 15.2 -41.75Q15.1 -41.3 14.45 -40.95M11.35 -40.3L11.45 -41.1L11.45 -41.7L11.45 -41.1L11.35 -40.3Q11.35 -39.6 10.95 -38.9" />
<path style="fill:none;stroke-width:0.7;stroke-linecap:round;stroke-linejoin:round;stroke-miterlimit:3;stroke:#000000;stroke-opacity:0.298039" d="M14.45 -40.95L13.35 -40.5L10.95 -38.9L10.25 -40.1L9.85 -40.5L8.35 -42.05Q7.9 -42.6 8.1 -43.2Q8.25 -43.8 8.9 -44.05Q9.55 -44.25 10.3 -44.05L11.85 -43.35L12.65 -43.45L13.75 -43.45L14.9 -42.75Q15.3 -42.15 15.2 -41.75Q15.1 -41.3 14.45 -40.95z" />
<path style="fill:none;stroke-width:0.7;stroke-linecap:round;stroke-linejoin:round;stroke-miterlimit:3;stroke:#000000;stroke-opacity:0.298039" d="M11.45 -41.7L11.45 -41.1L11.35 -40.3Q11.35 -39.6 10.95 -38.9" />
</g>
<g id="PathID_2313" transform="matrix(1, 0, 0, 1, 28.2, 44.25)">
<path style="fill:#42651B;fill-opacity:1" d="M6.3 -38Q4.8 -39.15 4.95 -39.8Q5 -40.45 5.5 -40.95L5.85 -41.25L5.95 -41.85L6.3 -42.65Q6.7 -43.1 7.6 -43.2Q8.45 -43.35 9.6 -41.7L10.35 -40.4L11.15 -38.85L10.35 -39.8Q7.8 -36.85 6.3 -38M10.35 -39.8L10.3 -39.85L9.9 -40.05L9.55 -40.25L9.9 -40.05L10.3 -39.85L10.35 -39.8L11.15 -38.85" />
<path style="fill:none;stroke-width:0.7;stroke-linecap:round;stroke-linejoin:round;stroke-miterlimit:3;stroke:#000000;stroke-opacity:0.298039" d="M11.15 -38.85L10.35 -40.4L9.6 -41.7Q8.45 -43.35 7.6 -43.2Q6.7 -43.1 6.3 -42.65L5.95 -41.85L5.85 -41.25L5.5 -40.95Q5 -40.45 4.95 -39.8Q4.8 -39.15 6.3 -38Q7.8 -36.85 11.15 -38.85L10.35 -39.8" />
<path style="fill:none;stroke-width:0.7;stroke-linecap:round;stroke-linejoin:round;stroke-miterlimit:3;stroke:#000000;stroke-opacity:0.298039" d="M10.35 -39.8L10.3 -39.85" />
<path style="fill:none;stroke-width:0.7;stroke-linecap:round;stroke-linejoin:round;stroke-miterlimit:3;stroke:#000000;stroke-opacity:0.298039" d="M10.3 -39.85L9.9 -40.05L9.55 -40.25" />
</g>
<g id="PathID_2314" transform="matrix(1, 0, 0, 1, 28.2, 44.25)">
<path style="fill:#42651B;fill-opacity:1" d="M18.2 -38.05L17.55 -36.9Q17 -36.5 15.65 -36.55Q14.75 -36.55 13 -37.6L11.85 -38.35L11.15 -38.8L12.4 -39.55Q10.8 -39.9 13.05 -41.25Q15.3 -42.6 16.2 -42.1L17.45 -41.15L17.7 -40.2L17.55 -39.7Q18.3 -38.65 18.2 -38.05M12.4 -39.55L13.3 -39.75L12.4 -39.55L11.15 -38.8" />
<path style="fill:none;stroke-width:0.7;stroke-linecap:round;stroke-linejoin:round;stroke-miterlimit:3;stroke:#000000;stroke-opacity:0.298039" d="M18.2 -38.05L17.55 -36.9Q17 -36.5 15.65 -36.55Q14.75 -36.55 13 -37.6L11.85 -38.35L11.15 -38.8Q10.8 -39.9 13.05 -41.25Q15.3 -42.6 16.2 -42.1L17.45 -41.15L17.7 -40.2L17.55 -39.7Q18.3 -38.65 18.2 -38.05z" />
<path style="fill:none;stroke-width:0.7;stroke-linecap:round;stroke-linejoin:round;stroke-miterlimit:3;stroke:#000000;stroke-opacity:0.298039" d="M13.3 -39.75L12.4 -39.55L11.15 -38.8" />
</g>
<g id="PathID_2315" transform="matrix(1, 0, 0, 1, 28.2, 44.25)">
<path style="fill:#42651B;fill-opacity:1" d="M6.7 -36.4L5.6 -35.95L3.2 -34.35Q3.6 -35.05 3.6 -35.75L2.5 -35.55L2.1 -35.95L0.6 -37.5Q0.15 -38.05 0.35 -38.65Q0.5 -39.25 1.15 -39.5Q1.8 -39.7 2.55 -39.5L4.1 -38.8L4.9 -38.9L6 -38.9Q6.7 -38.65 7.15 -38.2Q7.55 -37.6 7.45 -37.2Q7.35 -36.75 6.7 -36.4M3.6 -35.75L3.7 -36.55L3.7 -37.15L3.7 -36.55L3.6 -35.75Q3.6 -35.05 3.2 -34.35" />
<path style="fill:none;stroke-width:0.7;stroke-linecap:round;stroke-linejoin:round;stroke-miterlimit:3;stroke:#000000;stroke-opacity:0.298039" d="M6.7 -36.4L5.6 -35.95L3.2 -34.35L2.5 -35.55L2.1 -35.95L0.6 -37.5Q0.15 -38.05 0.35 -38.65Q0.5 -39.25 1.15 -39.5Q1.8 -39.7 2.55 -39.5L4.1 -38.8L4.9 -38.9L6 -38.9Q6.7 -38.65 7.15 -38.2Q7.55 -37.6 7.45 -37.2Q7.35 -36.75 6.7 -36.4z" />
<path style="fill:none;stroke-width:0.7;stroke-linecap:round;stroke-linejoin:round;stroke-miterlimit:3;stroke:#000000;stroke-opacity:0.298039" d="M3.7 -37.15L3.7 -36.55L3.6 -35.75Q3.6 -35.05 3.2 -34.35" />
</g>
<g id="PathID_2316" transform="matrix(1, 0, 0, 1, 28.2, 44.25)">
<path style="fill:#42651B;fill-opacity:1" d="M-1.45 -33.45Q-2.95 -34.6 -2.8 -35.25L-2.25 -36.4L-1.9 -36.7L-1.8 -37.3L-1.45 -38.1Q-1.05 -38.55 -0.15 -38.65Q0.7 -38.8 1.85 -37.15L2.6 -35.85L3.4 -34.3L2.6 -35.25Q0.05 -32.3 -1.45 -33.45M2.6 -35.25L2.55 -35.3L2.15 -35.5L1.8 -35.7L2.15 -35.5L2.55 -35.3L2.6 -35.25L3.4 -34.3" />
<path style="fill:none;stroke-width:0.7;stroke-linecap:round;stroke-linejoin:round;stroke-miterlimit:3;stroke:#000000;stroke-opacity:0.298039" d="M3.4 -34.3L2.6 -35.85L1.85 -37.15Q0.7 -38.8 -0.15 -38.65Q-1.05 -38.55 -1.45 -38.1L-1.8 -37.3L-1.9 -36.7L-2.25 -36.4L-2.8 -35.25Q-2.95 -34.6 -1.45 -33.45Q0.05 -32.3 3.4 -34.3L2.6 -35.25" />
<path style="fill:none;stroke-width:0.7;stroke-linecap:round;stroke-linejoin:round;stroke-miterlimit:3;stroke:#000000;stroke-opacity:0.298039" d="M2.6 -35.25L2.55 -35.3" />
<path style="fill:none;stroke-width:0.7;stroke-linecap:round;stroke-linejoin:round;stroke-miterlimit:3;stroke:#000000;stroke-opacity:0.298039" d="M2.55 -35.3L2.15 -35.5L1.8 -35.7" />
</g>
<g id="PathID_2317" transform="matrix(1, 0, 0, 1, 28.2, 44.25)">
<path style="fill:#42651B;fill-opacity:1" d="M10.45 -33.5L9.8 -32.35Q9.25 -31.95 7.9 -32Q7 -32 5.25 -33.05L4.1 -33.8L3.4 -34.25Q4.1 -34.8 4.65 -35Q3.05 -35.35 5.3 -36.7Q7.55 -38.05 8.45 -37.55L9.7 -36.6L9.95 -35.65L9.8 -35.15Q10.55 -34.1 10.45 -33.5M4.65 -35L5.55 -35.2L4.65 -35Q4.1 -34.8 3.4 -34.25" />
<path style="fill:none;stroke-width:0.7;stroke-linecap:round;stroke-linejoin:round;stroke-miterlimit:3;stroke:#000000;stroke-opacity:0.298039" d="M10.45 -33.5L9.8 -32.35Q9.25 -31.95 7.9 -32Q7 -32 5.25 -33.05L4.1 -33.8L3.4 -34.25Q3.05 -35.35 5.3 -36.7Q7.55 -38.05 8.45 -37.55L9.7 -36.6L9.95 -35.65L9.8 -35.15Q10.55 -34.1 10.45 -33.5z" />
<path style="fill:none;stroke-width:0.7;stroke-linecap:round;stroke-linejoin:round;stroke-miterlimit:3;stroke:#000000;stroke-opacity:0.298039" d="M5.55 -35.2L4.65 -35Q4.1 -34.8 3.4 -34.25" />
</g>
<g id="PathID_2318" transform="matrix(1, 0, 0, 1, 28.2, 44.25)">
<radialGradient
id="RadialGradID_1195" gradientUnits="userSpaceOnUse" gradientTransform="matrix(-0.00117493, -0.00488281, 0.00442505, -0.00128174, -13.55, -26.2)" spreadMethod ="pad" cx="0" cy="0" r="819.2" fx="0" fy="0" >
<stop  offset="0.054902"  style="stop-color:#7A7300;stop-opacity:1" />
<stop  offset="0.341176"  style="stop-color:#D0B279;stop-opacity:1" />
<stop  offset="0.917647"  style="stop-color:#D77689;stop-opacity:1" />
</radialGradient>
<path style="fill:url(#RadialGradID_1195) " d="M-13.2 -25.95Q-14.85 -25.9 -16 -27.6Q-16.2 -29.75 -15.6 -30.9Q-15.05 -31.85 -13.9 -32L-13.7 -31.6Q-13.1 -30.2 -12.65 -28.35Q-12.45 -27.1 -13.2 -25.95" />
<path style="fill:none;stroke-width:0.7;stroke-linecap:round;stroke-linejoin:round;stroke-miterlimit:3;stroke:#000000;stroke-opacity:0.298039" d="M-12.65 -28.35Q-13.1 -30.2 -13.7 -31.6L-13.9 -32Q-15.05 -31.85 -15.6 -30.9Q-16.2 -29.75 -16 -27.6Q-14.85 -25.9 -13.2 -25.95Q-12.45 -27.1 -12.65 -28.35z" />
</g>
<g id="PathID_2319" transform="matrix(1, 0, 0, 1, 28.2, 44.25)">
<radialGradient
id="RadialGradID_1196" gradientUnits="userSpaceOnUse" gradientTransform="matrix(0.0045929, 0, 0, 0.0050354, -13.8, -26.1)" spreadMethod ="pad" cx="0" cy="0" r="819.2" fx="0" fy="0" >
<stop  offset="0.054902"  style="stop-color:#7A7300;stop-opacity:1" />
<stop  offset="0.341176"  style="stop-color:#D0B279;stop-opacity:1" />
<stop  offset="0.917647"  style="stop-color:#D77689;stop-opacity:1" />
</radialGradient>
<path style="fill:url(#RadialGradID_1196) " d="M-16.15 -24.5Q-18 -25.35 -18.6 -26.5Q-19.05 -27.45 -18.55 -28.7L-18.2 -28.7L-15.1 -28.05Q-14.05 -27.6 -13.45 -26.3Q-14.25 -24.7 -16.15 -24.5" />
<path style="fill:none;stroke-width:0.7;stroke-linecap:round;stroke-linejoin:round;stroke-miterlimit:3;stroke:#000000;stroke-opacity:0.298039" d="M-13.45 -26.3Q-14.05 -27.6 -15.1 -28.05L-18.2 -28.7L-18.55 -28.7Q-19.05 -27.45 -18.6 -26.5Q-18 -25.35 -16.15 -24.5Q-14.25 -24.7 -13.45 -26.3z" />
</g>
<g id="PathID_2320" transform="matrix(1, 0, 0, 1, 28.2, 44.25)">
<radialGradient
id="RadialGradID_1197" gradientUnits="userSpaceOnUse" gradientTransform="matrix(0.00230408, -0.00436401, 0.00350952, 0.00222778, -13.25, -26.3)" spreadMethod ="pad" cx="0" cy="0" r="819.2" fx="0" fy="0" >
<stop  offset="0.054902"  style="stop-color:#7A7300;stop-opacity:1" />
<stop  offset="0.341176"  style="stop-color:#D0B279;stop-opacity:1" />
<stop  offset="0.917647"  style="stop-color:#D77689;stop-opacity:1" />
</radialGradient>
<path style="fill:url(#RadialGradID_1197) " d="M-9.9 -30.15Q-9.55 -28.9 -10.3 -26.85Q-11.8 -25.5 -13.35 -26Q-13.8 -27.35 -13.3 -28.55L-11.55 -31.35L-11.25 -31.65Q-10.15 -31.2 -9.9 -30.15" />
<path style="fill:none;stroke-width:0.7;stroke-linecap:round;stroke-linejoin:round;stroke-miterlimit:3;stroke:#000000;stroke-opacity:0.298039" d="M-9.9 -30.15Q-9.55 -28.9 -10.3 -26.85Q-11.8 -25.5 -13.35 -26Q-13.8 -27.35 -13.3 -28.55L-11.55 -31.35L-11.25 -31.65Q-10.15 -31.2 -9.9 -30.15z" />
</g>
<g id="PathID_2321" transform="matrix(1, 0, 0, 1, 28.2, 44.25)">
<radialGradient
id="RadialGradID_1198" gradientUnits="userSpaceOnUse" gradientTransform="matrix(-0.00213623, 0.00413513, -0.00366211, -0.00234985, -13.9, -26.45)" spreadMethod ="pad" cx="0" cy="0" r="819.2" fx="96" fy="0" >
<stop  offset="0.054902"  style="stop-color:#7A7300;stop-opacity:1" />
<stop  offset="0.341176"  style="stop-color:#D0B279;stop-opacity:1" />
<stop  offset="0.917647"  style="stop-color:#D77689;stop-opacity:1" />
</radialGradient>
<path style="fill:url(#RadialGradID_1198) " d="M-15.25 -21.4Q-16.2 -21.15 -17.2 -22L-17.1 -22.4L-15.8 -25.4Q-15.15 -26.5 -13.85 -26.75Q-12.6 -25.4 -12.9 -23.3Q-14.1 -21.65 -15.25 -21.4" />
<path style="fill:none;stroke-width:0.7;stroke-linecap:round;stroke-linejoin:round;stroke-miterlimit:3;stroke:#000000;stroke-opacity:0.298039" d="M-12.9 -23.3Q-12.6 -25.4 -13.85 -26.75Q-15.15 -26.5 -15.8 -25.4L-17.1 -22.4L-17.2 -22Q-16.2 -21.15 -15.25 -21.4Q-14.1 -21.65 -12.9 -23.3z" />
</g>
<g id="PathID_2322" transform="matrix(1, 0, 0, 1, 28.2, 44.25)">
<radialGradient
id="RadialGradID_1199" gradientUnits="userSpaceOnUse" gradientTransform="matrix(0.00582886, 0, 0, 0.00424194, -13.75, -25.75)" spreadMethod ="pad" cx="0" cy="0" r="819.2" fx="0" fy="0" >
<stop  offset="0.054902"  style="stop-color:#7A7300;stop-opacity:1" />
<stop  offset="0.341176"  style="stop-color:#D0B279;stop-opacity:1" />
<stop  offset="0.917647"  style="stop-color:#D77689;stop-opacity:1" />
</radialGradient>
<path style="fill:url(#RadialGradID_1199) " d="M-8.5 -25.5L-8.2 -25.3Q-8.3 -24.05 -9.2 -23.45Q-10.2 -22.75 -12.2 -23Q-13.75 -24.25 -13.7 -26.05Q-12.65 -26.9 -11.5 -26.65Q-9.8 -26.2 -8.5 -25.5" />
<path style="fill:none;stroke-width:0.7;stroke-linecap:round;stroke-linejoin:round;stroke-miterlimit:3;stroke:#000000;stroke-opacity:0.298039" d="M-8.5 -25.5L-8.2 -25.3Q-8.3 -24.05 -9.2 -23.45Q-10.2 -22.75 -12.2 -23Q-13.75 -24.25 -13.7 -26.05Q-12.65 -26.9 -11.5 -26.65Q-9.8 -26.2 -8.5 -25.5z" />
</g>
<g id="PathID_2323" transform="matrix(1, 0, 0, 1, 28.2, 44.25)">
<path style="fill:#528229;fill-opacity:1" d="M18.3 -37.9Q18.35 -37 19.25 -37.25L19.9 -37.65L19.9 -37.6Q20.1 -36.75 20.6 -37.1L19.55 -36.85Q18 -36.25 17.75 -37.05Q17.65 -37.4 17.7 -37.7L18.3 -37.9M20.6 -37.1Q21 -37.55 21.3 -37.65L21.6 -37.2Q20.75 -36.1 20.05 -36.4L19.55 -36.85L19.9 -37.6" />
<path style="fill:#42651B;fill-opacity:1" d="M21.3 -37.65Q21 -37.55 20.6 -37.1Q20.1 -36.75 19.9 -37.6L19.9 -37.65L19.25 -37.25Q18.35 -37 18.3 -37.9L21 -38.95L21.3 -37.65M21 -38.95L19.9 -37.65L21 -38.95" />
<linearGradient
id="LinearGradID_1200" gradientUnits="userSpaceOnUse" gradientTransform="matrix(-0.000930786, 0.00125122, -0.00205994, -0.000900269, 18.95, -35.75)" spreadMethod ="pad" x1="-819.2" y1="0" x2="819.2" y2="0" >
<stop  offset="0" style="stop-color:#42651B;stop-opacity:1" />
<stop  offset="1" style="stop-color:#5F8B2B;stop-opacity:1" />
</linearGradient>
<path style="fill:url(#LinearGradID_1200) " d="M20.05 -36.4Q20.75 -36.1 21.6 -37.2L22.6 -35.45Q22.85 -34.85 22.4 -34.3L21.2 -33.5L19.6 -33.75Q18.95 -34.05 18.2 -34.65L17.25 -34.65L16.05 -34.8Q15.3 -35.15 15.05 -35.75Q14.8 -36.35 15.1 -36.75Q15.45 -37.2 16.3 -37.4L17.7 -37.7Q17.65 -37.4 17.75 -37.05Q18 -36.25 19.55 -36.85L19.35 -36.25L20.05 -36.4M19.35 -36.25L19.55 -36.85" />
<path style="fill:none;stroke-width:0.7;stroke-linecap:round;stroke-linejoin:round;stroke-miterlimit:3;stroke:#000000;stroke-opacity:0.298039" d="M19.55 -36.85L19.9 -37.6" />
<path style="fill:none;stroke-width:0.7;stroke-linecap:round;stroke-linejoin:round;stroke-miterlimit:3;stroke:#000000;stroke-opacity:0.298039" d="M18.3 -37.9L17.7 -37.7L16.3 -37.4Q15.45 -37.2 15.1 -36.75Q14.8 -36.35 15.05 -35.75Q15.3 -35.15 16.05 -34.8L17.25 -34.65L18.2 -34.65Q18.95 -34.05 19.6 -33.75L21.2 -33.5L22.4 -34.3Q22.85 -34.85 22.6 -35.45L21.6 -37.2" />
<path style="fill:none;stroke-width:0.7;stroke-linecap:round;stroke-linejoin:round;stroke-miterlimit:3;stroke:#000000;stroke-opacity:0.298039" d="M19.55 -36.85L19.35 -36.25" />
<path style="fill:none;stroke-width:0.7;stroke-linecap:round;stroke-linejoin:round;stroke-miterlimit:3;stroke:#000000;stroke-opacity:0.298039" d="M21.3 -37.65L21.6 -37.2" />
<path style="fill:none;stroke-width:0.7;stroke-linecap:round;stroke-linejoin:round;stroke-miterlimit:3;stroke:#000000;stroke-opacity:0.298039" d="M19.9 -37.65L21 -38.95L18.3 -37.9" />
<path style="fill:none;stroke-width:0.7;stroke-linecap:round;stroke-linejoin:round;stroke-miterlimit:3;stroke:#000000;stroke-opacity:0.298039" d="M21 -38.95L21.3 -37.65" />
</g>
<g id="PathID_2324" transform="matrix(1, 0, 0, 1, 28.2, 44.25)">
<path style="fill:#528229;fill-opacity:1" d="M22.6 -39.1Q22.55 -40.05 21.65 -39.75L21 -39.4L21 -39.45Q20.8 -40.25 20.3 -39.95L21.35 -40.2Q22.9 -40.75 23.15 -39.95L23.2 -39.3L22.6 -39.1M20.3 -39.95Q19.9 -39.5 19.6 -39.4L19.3 -39.8Q20.15 -40.9 20.85 -40.65L21.35 -40.2L21 -39.45" />
<path style="fill:#42651B;fill-opacity:1" d="M19.6 -39.4Q19.9 -39.5 20.3 -39.95Q20.8 -40.25 21 -39.45L21 -39.4L21.65 -39.75Q22.55 -40.05 22.6 -39.1L19.9 -38.1L19.6 -39.4M19.9 -38.1L21 -39.4L19.9 -38.1" />
<linearGradient
id="LinearGradID_1201" gradientUnits="userSpaceOnUse" gradientTransform="matrix(0.000930786, -0.00125122, 0.00205994, 0.000900269, 21.95, -41.25)" spreadMethod ="pad" x1="-819.2" y1="0" x2="819.2" y2="0" >
<stop  offset="0" style="stop-color:#42651B;stop-opacity:1" />
<stop  offset="1" style="stop-color:#5F8B2B;stop-opacity:1" />
</linearGradient>
<path style="fill:url(#LinearGradID_1201) " d="M20.85 -40.65Q20.15 -40.9 19.3 -39.8L18.3 -41.55Q18.05 -42.15 18.5 -42.75Q18.85 -43.3 19.7 -43.5L21.3 -43.3L22.7 -42.35L23.65 -42.35L24.85 -42.2Q25.6 -41.9 25.85 -41.25Q26.1 -40.65 25.8 -40.3L24.6 -39.6L23.2 -39.3L23.15 -39.95Q22.9 -40.75 21.35 -40.2L21.55 -40.8L20.85 -40.65M21.55 -40.8L21.35 -40.2" />
<path style="fill:none;stroke-width:0.7;stroke-linecap:round;stroke-linejoin:round;stroke-miterlimit:3;stroke:#000000;stroke-opacity:0.298039" d="M21.35 -40.2L21 -39.45" />
<path style="fill:none;stroke-width:0.7;stroke-linecap:round;stroke-linejoin:round;stroke-miterlimit:3;stroke:#000000;stroke-opacity:0.298039" d="M22.6 -39.1L23.2 -39.3L24.6 -39.6L25.8 -40.3Q26.1 -40.65 25.85 -41.25Q25.6 -41.9 24.85 -42.2L23.65 -42.35L22.7 -42.35L21.3 -43.3L19.7 -43.5Q18.85 -43.3 18.5 -42.75Q18.05 -42.15 18.3 -41.55L19.3 -39.8" />
<path style="fill:none;stroke-width:0.7;stroke-linecap:round;stroke-linejoin:round;stroke-miterlimit:3;stroke:#000000;stroke-opacity:0.298039" d="M21.35 -40.2L21.55 -40.8" />
<path style="fill:none;stroke-width:0.7;stroke-linecap:round;stroke-linejoin:round;stroke-miterlimit:3;stroke:#000000;stroke-opacity:0.298039" d="M19.6 -39.4L19.3 -39.8" />
<path style="fill:none;stroke-width:0.7;stroke-linecap:round;stroke-linejoin:round;stroke-miterlimit:3;stroke:#000000;stroke-opacity:0.298039" d="M21 -39.4L19.9 -38.1L22.6 -39.1" />
<path style="fill:none;stroke-width:0.7;stroke-linecap:round;stroke-linejoin:round;stroke-miterlimit:3;stroke:#000000;stroke-opacity:0.298039" d="M19.9 -38.1L19.6 -39.4" />
</g>
<g id="PathID_2325" transform="matrix(1, 0, 0, 1, 28.2, 44.25)">
<path style="fill:#528229;fill-opacity:1" d="M19.55 -39.1L19 -38.8Q18.7 -38.35 19.2 -37.75L17.75 -37.5Q17.3 -37.8 18.05 -38.5L17.8 -38.95Q17.7 -39.4 18.85 -39.6L19.2 -39.4L19.5 -39.15L19.55 -39.1M19.1 -40.55L19.85 -40.5L20.2 -39.5Q19.35 -40.25 19.5 -39.15L19.2 -39.4L18.85 -39.6Q18.65 -40.5 19.1 -40.55" />
<path style="fill:#42651B;fill-opacity:1" d="M19.55 -39.1L20.1 -37.95L19.5 -39.15Q19.35 -40.25 20.2 -39.5L20.1 -37.95L19.2 -37.75L19.55 -39.1M19.2 -37.75Q18.7 -38.35 19 -38.8L19.55 -39.1" />
<linearGradient
id="LinearGradID_1202" gradientUnits="userSpaceOnUse" gradientTransform="matrix(-0.00209045, -0.000534058, -0.00172424, 0.00305176, 17.35, -39.6)" spreadMethod ="pad" x1="-819.2" y1="0" x2="819.2" y2="0" >
<stop  offset="0" style="stop-color:#42651B;stop-opacity:1" />
<stop  offset="1" style="stop-color:#5F8B2B;stop-opacity:1" />
</linearGradient>
<path style="fill:url(#LinearGradID_1202) " d="M14.75 -37.5Q13.55 -37.95 13.3 -38.5Q13.15 -39.2 13.55 -39.85L14.7 -40.9L15.25 -41.2L15.6 -41.8L16.25 -42.45L17.6 -42.55Q18.4 -42.35 19.5 -41L19.85 -40.5L19.1 -40.55Q18.65 -40.5 18.85 -39.6Q17.7 -39.4 17.8 -38.95L18.05 -38.5Q17.3 -37.8 17.75 -37.5Q15.6 -37.2 14.75 -37.5" />
<path style="fill:none;stroke-width:0.7;stroke-linecap:round;stroke-linejoin:round;stroke-miterlimit:3;stroke:#000000;stroke-opacity:0.298039" d="M18.85 -39.6L19.2 -39.4L19.5 -39.15" />
<path style="fill:none;stroke-width:0.7;stroke-linecap:round;stroke-linejoin:round;stroke-miterlimit:3;stroke:#000000;stroke-opacity:0.298039" d="M20.2 -39.5L19.85 -40.5" />
<path style="fill:none;stroke-width:0.7;stroke-linecap:round;stroke-linejoin:round;stroke-miterlimit:3;stroke:#000000;stroke-opacity:0.298039" d="M17.75 -37.5L19.2 -37.75" />
<path style="fill:none;stroke-width:0.7;stroke-linecap:round;stroke-linejoin:round;stroke-miterlimit:3;stroke:#000000;stroke-opacity:0.298039" d="M19.55 -39.1L19.5 -39.15" />
<path style="fill:none;stroke-width:0.7;stroke-linecap:round;stroke-linejoin:round;stroke-miterlimit:3;stroke:#000000;stroke-opacity:0.298039" d="M19.85 -40.5L19.5 -41Q18.4 -42.35 17.6 -42.55L16.25 -42.45L15.6 -41.8L15.25 -41.2L14.7 -40.9L13.55 -39.85Q13.15 -39.2 13.3 -38.5Q13.55 -37.95 14.75 -37.5Q15.6 -37.2 17.75 -37.5" />
<path style="fill:none;stroke-width:0.7;stroke-linecap:round;stroke-linejoin:round;stroke-miterlimit:3;stroke:#000000;stroke-opacity:0.298039" d="M20.1 -37.95L20.2 -39.5" />
<path style="fill:none;stroke-width:0.7;stroke-linecap:round;stroke-linejoin:round;stroke-miterlimit:3;stroke:#000000;stroke-opacity:0.298039" d="M20.1 -37.95L19.55 -39.1" />
<path style="fill:none;stroke-width:0.7;stroke-linecap:round;stroke-linejoin:round;stroke-miterlimit:3;stroke:#000000;stroke-opacity:0.298039" d="M19.2 -37.75L20.1 -37.95" />
</g>
<g id="PathID_2326" transform="matrix(1, 0, 0, 1, 28.2, 44.25)">
<path style="fill:#528229;fill-opacity:1" d="M21.8 -38.5L22.85 -38.6L21.8 -38.5Q23.1 -39.25 21.65 -39.1L23 -39.6L23.65 -39.35Q24 -39.1 22.85 -38.6Q23.65 -37.85 23.05 -37.6L22.4 -37.4Q22.25 -36.55 21.55 -36.45L20.65 -37.4Q21.7 -37.55 21.85 -38.05L21.75 -38.5L21.8 -38.5" />
<path style="fill:#42651B;fill-opacity:1" d="M21.75 -38.5L20.1 -37.95L21.65 -39.1Q23.1 -39.25 21.8 -38.5L21.75 -38.5M21.75 -38.5L21.85 -38.05Q21.7 -37.55 20.65 -37.4L20.1 -37.95L21.75 -38.5" />
<linearGradient
id="LinearGradID_1203" gradientUnits="userSpaceOnUse" gradientTransform="matrix(0.00231934, 0.000610352, -0.00172424, 0.00305176, 24.05, -37.85)" spreadMethod ="pad" x1="-819.2" y1="0" x2="819.2" y2="0" >
<stop  offset="0" style="stop-color:#42651B;stop-opacity:1" />
<stop  offset="1" style="stop-color:#5F8B2B;stop-opacity:1" />
</linearGradient>
<path style="fill:url(#LinearGradID_1203) " d="M23.8 -39.9L27.05 -40.15Q27.9 -39.95 28.05 -39.4Q28.2 -38.8 27.95 -38.4L27.55 -37.9Q27.9 -36.75 27.6 -36.2L26.4 -35.15L24.1 -35.05Q23.1 -35.2 21.55 -36.45Q22.25 -36.55 22.4 -37.4L23.05 -37.6Q23.65 -37.85 22.85 -38.6Q24 -39.1 23.65 -39.35L23 -39.6L23.8 -39.9" />
<path style="fill:none;stroke-width:0.7;stroke-linecap:round;stroke-linejoin:round;stroke-miterlimit:3;stroke:#000000;stroke-opacity:0.298039" d="M21.55 -36.45Q23.1 -35.2 24.1 -35.05L26.4 -35.15L27.6 -36.2Q27.9 -36.75 27.55 -37.9L27.95 -38.4Q28.2 -38.8 28.05 -39.4Q27.9 -39.95 27.05 -40.15L23.8 -39.9L23 -39.6L21.65 -39.1" />
<path style="fill:none;stroke-width:0.7;stroke-linecap:round;stroke-linejoin:round;stroke-miterlimit:3;stroke:#000000;stroke-opacity:0.298039" d="M21.8 -38.5L22.85 -38.6" />
<path style="fill:none;stroke-width:0.7;stroke-linecap:round;stroke-linejoin:round;stroke-miterlimit:3;stroke:#000000;stroke-opacity:0.298039" d="M20.65 -37.4L20.1 -37.95L21.65 -39.1" />
<path style="fill:none;stroke-width:0.7;stroke-linecap:round;stroke-linejoin:round;stroke-miterlimit:3;stroke:#000000;stroke-opacity:0.298039" d="M21.55 -36.45L20.65 -37.4" />
<path style="fill:none;stroke-width:0.7;stroke-linecap:round;stroke-linejoin:round;stroke-miterlimit:3;stroke:#000000;stroke-opacity:0.298039" d="M21.75 -38.5L20.1 -37.95" />
<path style="fill:none;stroke-width:0.7;stroke-linecap:round;stroke-linejoin:round;stroke-miterlimit:3;stroke:#000000;stroke-opacity:0.298039" d="M21.8 -38.5L21.75 -38.5" />
</g>
<g id="PathID_2327" transform="matrix(1, 0, 0, 1, 28.2, 44.25)">
<radialGradient
id="RadialGradID_1204" gradientUnits="userSpaceOnUse" gradientTransform="matrix(0.00115967, -0.00488281, -0.00440979, -0.00128174, 14, -29.9)" spreadMethod ="pad" cx="0" cy="0" r="819.2" fx="0" fy="0" >
<stop  offset="0.054902"  style="stop-color:#7A7300;stop-opacity:1" />
<stop  offset="0.341176"  style="stop-color:#D0B279;stop-opacity:1" />
<stop  offset="0.917647"  style="stop-color:#D77689;stop-opacity:1" />
</radialGradient>
<path style="fill:url(#RadialGradID_1204) " d="M14.3 -35.7Q15.45 -35.55 16 -34.6Q16.6 -33.45 16.4 -31.3Q15.25 -29.6 13.6 -29.65Q12.9 -30.8 13.1 -32.05L14.1 -35.3L14.3 -35.7" />
<path style="fill:none;stroke-width:0.7;stroke-linecap:round;stroke-linejoin:round;stroke-miterlimit:3;stroke:#000000;stroke-opacity:0.298039" d="M14.3 -35.7Q15.45 -35.55 16 -34.6Q16.6 -33.45 16.4 -31.3Q15.25 -29.6 13.6 -29.65Q12.9 -30.8 13.1 -32.05L14.1 -35.3L14.3 -35.7z" />
</g>
<g id="PathID_2328" transform="matrix(1, 0, 0, 1, 28.2, 44.25)">
<radialGradient
id="RadialGradID_1205" gradientUnits="userSpaceOnUse" gradientTransform="matrix(-0.00457764, 0, 0, 0.0050354, 14.3, -29.8)" spreadMethod ="pad" cx="0" cy="0" r="819.2" fx="0" fy="0" >
<stop  offset="0.054902"  style="stop-color:#7A7300;stop-opacity:1" />
<stop  offset="0.341176"  style="stop-color:#D0B279;stop-opacity:1" />
<stop  offset="0.917647"  style="stop-color:#D77689;stop-opacity:1" />
</radialGradient>
<path style="fill:url(#RadialGradID_1205) " d="M15.5 -31.75L18.6 -32.4L18.95 -32.4Q19.45 -31.15 19 -30.2Q18.4 -29.05 16.6 -28.2Q14.65 -28.4 13.85 -30Q14.45 -31.3 15.5 -31.75" />
<path style="fill:none;stroke-width:0.7;stroke-linecap:round;stroke-linejoin:round;stroke-miterlimit:3;stroke:#000000;stroke-opacity:0.298039" d="M15.5 -31.75L18.6 -32.4L18.95 -32.4Q19.45 -31.15 19 -30.2Q18.4 -29.05 16.6 -28.2Q14.65 -28.4 13.85 -30Q14.45 -31.3 15.5 -31.75z" />
</g>
<g id="PathID_2329" transform="matrix(1, 0, 0, 1, 28.2, 44.25)">
<radialGradient
id="RadialGradID_1206" gradientUnits="userSpaceOnUse" gradientTransform="matrix(-0.00228882, -0.00436401, -0.00349426, 0.00222778, 13.7, -30)" spreadMethod ="pad" cx="0" cy="0" r="819.2" fx="0" fy="0" >
<stop  offset="0.054902"  style="stop-color:#7A7300;stop-opacity:1" />
<stop  offset="0.341176"  style="stop-color:#D0B279;stop-opacity:1" />
<stop  offset="0.917647"  style="stop-color:#D77689;stop-opacity:1" />
</radialGradient>
<path style="fill:url(#RadialGradID_1206) " d="M13.7 -32.25Q14.25 -31.05 13.75 -29.7Q12.2 -29.2 10.7 -30.55Q9.95 -32.6 10.3 -33.85Q10.55 -34.9 11.7 -35.35L11.95 -35.05L13.7 -32.25" />
<path style="fill:none;stroke-width:0.7;stroke-linecap:round;stroke-linejoin:round;stroke-miterlimit:3;stroke:#000000;stroke-opacity:0.298039" d="M11.95 -35.05L11.7 -35.35Q10.55 -34.9 10.3 -33.85Q9.95 -32.6 10.7 -30.55Q12.2 -29.2 13.75 -29.7Q14.25 -31.05 13.7 -32.25L11.95 -35.05z" />
</g>
<g id="PathID_2330" transform="matrix(1, 0, 0, 1, 28.2, 44.25)">
<radialGradient
id="RadialGradID_1207" gradientUnits="userSpaceOnUse" gradientTransform="matrix(0.00314331, 0.00346375, 0.00292969, -0.0032196, 13.9, -29.65)" spreadMethod ="pad" cx="0" cy="0" r="819.2" fx="96" fy="0" >
<stop  offset="0.054902"  style="stop-color:#7A7300;stop-opacity:1" />
<stop  offset="0.341176"  style="stop-color:#D0B279;stop-opacity:1" />
<stop  offset="0.917647"  style="stop-color:#D77689;stop-opacity:1" />
</radialGradient>
<path style="fill:url(#RadialGradID_1207) " d="M16.55 -25.2Q15.35 -25.15 13.75 -26.45Q12.95 -28.4 13.8 -30Q15.1 -30.1 16.05 -29.25L18.05 -26.65L18.25 -26.3Q17.55 -25.25 16.55 -25.2" />
<path style="fill:none;stroke-width:0.7;stroke-linecap:round;stroke-linejoin:round;stroke-miterlimit:3;stroke:#000000;stroke-opacity:0.298039" d="M16.55 -25.2Q15.35 -25.15 13.75 -26.45Q12.95 -28.4 13.8 -30Q15.1 -30.1 16.05 -29.25L18.05 -26.65L18.25 -26.3Q17.55 -25.25 16.55 -25.2z" />
</g>
<g id="PathID_2331" transform="matrix(1, 0, 0, 1, 28.2, 44.25)">
<radialGradient
id="RadialGradID_1208" gradientUnits="userSpaceOnUse" gradientTransform="matrix(-0.00561523, 0.00151062, 0.00109863, 0.00410461, 14, -30)" spreadMethod ="pad" cx="0" cy="0" r="819.2" fx="0" fy="0" >
<stop  offset="0.054902"  style="stop-color:#7A7300;stop-opacity:1" />
<stop  offset="0.341176"  style="stop-color:#D0B279;stop-opacity:1" />
<stop  offset="0.917647"  style="stop-color:#D77689;stop-opacity:1" />
</radialGradient>
<path style="fill:url(#RadialGradID_1208) " d="M8.7 -28.1L8.95 -28.4Q10.05 -29.4 11.5 -30.25Q12.55 -30.8 13.8 -30.25Q14.35 -28.5 13.15 -26.9Q11.25 -26.15 10.15 -26.6Q9.15 -26.9 8.7 -28.1" />
<path style="fill:none;stroke-width:0.7;stroke-linecap:round;stroke-linejoin:round;stroke-miterlimit:3;stroke:#000000;stroke-opacity:0.298039" d="M10.15 -26.6Q11.25 -26.15 13.15 -26.9Q14.35 -28.5 13.8 -30.25Q12.55 -30.8 11.5 -30.25Q10.05 -29.4 8.95 -28.4L8.7 -28.1Q9.15 -26.9 10.15 -26.6z" />
</g>
<g id="PathID_2332" transform="matrix(1, 0, 0, 1, 28.2, 44.25)">
<path style="fill:#528229;fill-opacity:1" d="M-11.9 -32.7Q-10.8 -32.25 -10.55 -33.2L-10.55 -33.95L-10.45 -33.95Q-9.4 -33.7 -9.45 -34.25L-9.85 -33.25Q-10.25 -31.6 -11.25 -31.8Q-11.75 -31.9 -12.05 -32.1L-11.9 -32.7M-9.45 -34.25L-9.6 -35.15L-8.95 -35.2Q-8.25 -33.9 -9.05 -33.45L-9.85 -33.25L-10.45 -33.95" />
<path style="fill:#42651B;fill-opacity:1" d="M-9.6 -35.15L-9.45 -34.25Q-9.4 -33.7 -10.45 -33.95L-10.55 -33.95L-10.55 -33.2Q-10.8 -32.25 -11.9 -32.7L-11.3 -35.55L-9.6 -35.15M-11.3 -35.55L-10.55 -33.95L-11.3 -35.55" />
<linearGradient
id="LinearGradID_1209" gradientUnits="userSpaceOnUse" gradientTransform="matrix(0.000808716, 0.00143433, -0.00236511, 0.00134277, -9, -32.2)" spreadMethod ="pad" x1="-819.2" y1="0" x2="819.2" y2="0" >
<stop  offset="0" style="stop-color:#42651B;stop-opacity:1" />
<stop  offset="1" style="stop-color:#5F8B2B;stop-opacity:1" />
</linearGradient>
<path style="fill:url(#LinearGradID_1209) " d="M-9.05 -33.45Q-8.25 -33.9 -8.95 -35.2L-6.3 -35.2Q-5.45 -35.1 -5.1 -34.45Q-4.7 -33.85 -5.05 -33Q-5.45 -32.25 -6.3 -31.75L-8.25 -31L-8.9 -30.2L-9.85 -29.2Q-10.7 -28.75 -11.55 -28.8Q-12.4 -28.9 -12.65 -29.35Q-12.9 -29.85 -12.6 -30.7L-12.05 -32.1Q-11.75 -31.9 -11.25 -31.8Q-10.25 -31.6 -9.85 -33.25L-9.3 -32.75L-9.05 -33.45M-9.3 -32.75L-9.85 -33.25" />
<path style="fill:none;stroke-width:0.7;stroke-linecap:round;stroke-linejoin:round;stroke-miterlimit:3;stroke:#000000;stroke-opacity:0.298039" d="M-9.85 -33.25L-10.45 -33.95" />
<path style="fill:none;stroke-width:0.7;stroke-linecap:round;stroke-linejoin:round;stroke-miterlimit:3;stroke:#000000;stroke-opacity:0.298039" d="M-11.9 -32.7L-12.05 -32.1L-12.6 -30.7Q-12.9 -29.85 -12.65 -29.35Q-12.4 -28.9 -11.55 -28.8Q-10.7 -28.75 -9.85 -29.2L-8.9 -30.2L-8.25 -31L-6.3 -31.75Q-5.45 -32.25 -5.05 -33Q-4.7 -33.85 -5.1 -34.45Q-5.45 -35.1 -6.3 -35.2L-8.95 -35.2" />
<path style="fill:none;stroke-width:0.7;stroke-linecap:round;stroke-linejoin:round;stroke-miterlimit:3;stroke:#000000;stroke-opacity:0.298039" d="M-9.85 -33.25L-9.3 -32.75" />
<path style="fill:none;stroke-width:0.7;stroke-linecap:round;stroke-linejoin:round;stroke-miterlimit:3;stroke:#000000;stroke-opacity:0.298039" d="M-9.6 -35.15L-8.95 -35.2" />
<path style="fill:none;stroke-width:0.7;stroke-linecap:round;stroke-linejoin:round;stroke-miterlimit:3;stroke:#000000;stroke-opacity:0.298039" d="M-10.55 -33.95L-11.3 -35.55L-11.9 -32.7" />
<path style="fill:none;stroke-width:0.7;stroke-linecap:round;stroke-linejoin:round;stroke-miterlimit:3;stroke:#000000;stroke-opacity:0.298039" d="M-11.3 -35.55L-9.6 -35.15" />
</g>
<g id="PathID_2333" transform="matrix(1, 0, 0, 1, 28.2, 44.25)">
<path style="fill:#528229;fill-opacity:1" d="M-10.5 -37.05Q-11.6 -37.5 -11.85 -36.55L-11.85 -35.8L-11.95 -35.8Q-13 -36.05 -12.95 -35.5L-12.55 -36.5Q-12.15 -38.15 -11.15 -37.95L-10.35 -37.65L-10.5 -37.05M-12.95 -35.5Q-12.7 -34.9 -12.8 -34.6L-13.45 -34.55Q-14.15 -35.85 -13.35 -36.3L-12.55 -36.5L-11.95 -35.8" />
<path style="fill:#42651B;fill-opacity:1" d="M-12.8 -34.6Q-12.7 -34.9 -12.95 -35.5Q-13 -36.05 -11.95 -35.8L-11.85 -35.8L-11.85 -36.55Q-11.6 -37.5 -10.5 -37.05L-11.1 -34.2L-12.8 -34.6M-11.1 -34.2Q-11.4 -35.1 -11.85 -35.8Q-11.4 -35.1 -11.1 -34.2" />
<linearGradient
id="LinearGradID_1210" gradientUnits="userSpaceOnUse" gradientTransform="matrix(-0.000808716, -0.00143433, 0.00236511, -0.00134277, -13.4, -37.55)" spreadMethod ="pad" x1="-819.2" y1="0" x2="819.2" y2="0" >
<stop  offset="0" style="stop-color:#42651B;stop-opacity:1" />
<stop  offset="1" style="stop-color:#5F8B2B;stop-opacity:1" />
</linearGradient>
<path style="fill:url(#LinearGradID_1210) " d="M-13.35 -36.3Q-14.15 -35.85 -13.45 -34.55L-16.1 -34.55Q-16.95 -34.65 -17.3 -35.3Q-17.7 -35.9 -17.35 -36.75L-16.1 -38L-14.15 -38.75L-13.5 -39.55L-12.55 -40.55L-10.85 -40.95Q-10 -40.85 -9.75 -40.4Q-9.5 -39.9 -9.8 -39.05L-10.35 -37.65L-11.15 -37.95Q-12.15 -38.15 -12.55 -36.5L-13.1 -37L-13.35 -36.3M-13.1 -37L-12.55 -36.5" />
<path style="fill:none;stroke-width:0.7;stroke-linecap:round;stroke-linejoin:round;stroke-miterlimit:3;stroke:#000000;stroke-opacity:0.298039" d="M-12.55 -36.5L-11.95 -35.8" />
<path style="fill:none;stroke-width:0.7;stroke-linecap:round;stroke-linejoin:round;stroke-miterlimit:3;stroke:#000000;stroke-opacity:0.298039" d="M-10.5 -37.05L-10.35 -37.65L-9.8 -39.05Q-9.5 -39.9 -9.75 -40.4Q-10 -40.85 -10.85 -40.95L-12.55 -40.55L-13.5 -39.55L-14.15 -38.75L-16.1 -38L-17.35 -36.75Q-17.7 -35.9 -17.3 -35.3Q-16.95 -34.65 -16.1 -34.55L-13.45 -34.55" />
<path style="fill:none;stroke-width:0.7;stroke-linecap:round;stroke-linejoin:round;stroke-miterlimit:3;stroke:#000000;stroke-opacity:0.298039" d="M-12.55 -36.5L-13.1 -37" />
<path style="fill:none;stroke-width:0.7;stroke-linecap:round;stroke-linejoin:round;stroke-miterlimit:3;stroke:#000000;stroke-opacity:0.298039" d="M-12.8 -34.6L-13.45 -34.55" />
<path style="fill:none;stroke-width:0.7;stroke-linecap:round;stroke-linejoin:round;stroke-miterlimit:3;stroke:#000000;stroke-opacity:0.298039" d="M-11.85 -35.8Q-11.4 -35.1 -11.1 -34.2L-10.5 -37.05" />
<path style="fill:none;stroke-width:0.7;stroke-linecap:round;stroke-linejoin:round;stroke-miterlimit:3;stroke:#000000;stroke-opacity:0.298039" d="M-11.1 -34.2L-12.8 -34.6" />
</g>
<g id="PathID_2334" transform="matrix(1, 0, 0, 1, 28.2, 44.25)">
<path style="fill:#528229;fill-opacity:1" d="M-12.45 -34.4L-12.5 -33.8Q-12.2 -33.3 -11.2 -33.45L-11.85 -32.05Q-12.5 -31.85 -12.8 -32.85L-13.45 -32.8Q-14.05 -32.95 -13.5 -34.05L-13.05 -34.25L-12.55 -34.4L-12.45 -34.4M-14.45 -34.7L-13.9 -35.35L-12.5 -35.2Q-13.9 -34.8 -12.55 -34.4L-13.05 -34.25L-13.5 -34.05Q-14.65 -34.3 -14.45 -34.7" />
<path style="fill:#42651B;fill-opacity:1" d="M-12.45 -34.4L-10.85 -34.3L-12.55 -34.4Q-13.9 -34.8 -12.5 -35.2L-10.85 -34.3L-11.2 -33.45L-12.45 -34.4M-11.2 -33.45Q-12.2 -33.3 -12.5 -33.8L-12.45 -34.4" />
<linearGradient
id="LinearGradID_1211" gradientUnits="userSpaceOnUse" gradientTransform="matrix(-0.00198364, 0.00154114, 0.00231934, 0.00302124, -14.5, -32.75)" spreadMethod ="pad" x1="-819.2" y1="0" x2="819.2" y2="0" >
<stop  offset="0" style="stop-color:#42651B;stop-opacity:1" />
<stop  offset="1" style="stop-color:#5F8B2B;stop-opacity:1" />
</linearGradient>
<path style="fill:url(#LinearGradID_1211) " d="M-13.85 -29.45Q-15.15 -28.65 -15.9 -28.75Q-16.75 -28.9 -17.25 -29.6Q-17.75 -30.25 -17.7 -31.1L-17.65 -31.7L-18.1 -32.3L-18.45 -33.25Q-18.5 -33.95 -17.7 -34.45Q-16.95 -35.05 -14.7 -35.3L-13.9 -35.35L-14.45 -34.7Q-14.65 -34.3 -13.5 -34.05Q-14.05 -32.95 -13.45 -32.8L-12.8 -32.85Q-12.5 -31.85 -11.85 -32.05Q-12.95 -30.05 -13.85 -29.45" />
<path style="fill:none;stroke-width:0.7;stroke-linecap:round;stroke-linejoin:round;stroke-miterlimit:3;stroke:#000000;stroke-opacity:0.298039" d="M-13.5 -34.05L-13.05 -34.25L-12.55 -34.4" />
<path style="fill:none;stroke-width:0.7;stroke-linecap:round;stroke-linejoin:round;stroke-miterlimit:3;stroke:#000000;stroke-opacity:0.298039" d="M-12.5 -35.2L-13.9 -35.35" />
<path style="fill:none;stroke-width:0.7;stroke-linecap:round;stroke-linejoin:round;stroke-miterlimit:3;stroke:#000000;stroke-opacity:0.298039" d="M-11.85 -32.05L-11.2 -33.45" />
<path style="fill:none;stroke-width:0.7;stroke-linecap:round;stroke-linejoin:round;stroke-miterlimit:3;stroke:#000000;stroke-opacity:0.298039" d="M-12.45 -34.4L-12.55 -34.4" />
<path style="fill:none;stroke-width:0.7;stroke-linecap:round;stroke-linejoin:round;stroke-miterlimit:3;stroke:#000000;stroke-opacity:0.298039" d="M-13.9 -35.35L-14.7 -35.3Q-16.95 -35.05 -17.7 -34.45Q-18.5 -33.95 -18.45 -33.25L-18.1 -32.3L-17.65 -31.7L-17.7 -31.1Q-17.75 -30.25 -17.25 -29.6Q-16.75 -28.9 -15.9 -28.75Q-15.15 -28.65 -13.85 -29.45Q-12.95 -30.05 -11.85 -32.05" />
<path style="fill:none;stroke-width:0.7;stroke-linecap:round;stroke-linejoin:round;stroke-miterlimit:3;stroke:#000000;stroke-opacity:0.298039" d="M-10.85 -34.3L-12.5 -35.2" />
<path style="fill:none;stroke-width:0.7;stroke-linecap:round;stroke-linejoin:round;stroke-miterlimit:3;stroke:#000000;stroke-opacity:0.298039" d="M-10.85 -34.3L-12.45 -34.4" />
<path style="fill:none;stroke-width:0.7;stroke-linecap:round;stroke-linejoin:round;stroke-miterlimit:3;stroke:#000000;stroke-opacity:0.298039" d="M-11.2 -33.45L-10.85 -34.3" />
</g>
<g id="PathID_2335" transform="matrix(1, 0, 0, 1, 28.2, 44.25)">
<path style="fill:#528229;fill-opacity:1" d="M-10.4 -36.05L-9.75 -37L-10.4 -36.05Q-10.35 -37.55 -11.15 -36.25L-10.85 -37.65L-10.05 -38.1Q-9.6 -38.25 -9.75 -37Q-8.4 -37.35 -8.45 -36.7L-8.7 -36Q-7.8 -35.5 -8.2 -34.85L-9.85 -34.5Q-9.35 -35.5 -9.8 -35.9L-10.4 -36L-10.4 -36.05" />
<path style="fill:#42651B;fill-opacity:1" d="M-10.4 -36L-10.8 -34.3Q-11.2 -35.25 -11.15 -36.25Q-10.35 -37.55 -10.4 -36.05L-10.4 -36M-10.4 -36L-9.8 -35.9Q-9.35 -35.5 -9.85 -34.5L-10.8 -34.3L-10.4 -36" />
<linearGradient
id="LinearGradID_1212" gradientUnits="userSpaceOnUse" gradientTransform="matrix(0.00219727, -0.00170898, 0.00231934, 0.00302124, -8.1, -37.7)" spreadMethod ="pad" x1="-819.2" y1="0" x2="819.2" y2="0" >
<stop  offset="0" style="stop-color:#42651B;stop-opacity:1" />
<stop  offset="1" style="stop-color:#5F8B2B;stop-opacity:1" />
</linearGradient>
<path style="fill:url(#LinearGradID_1212) " d="M-10.6 -38.5Q-9.65 -40.8 -8.8 -41.45Q-8 -42.05 -7.25 -41.9Q-6.55 -41.75 -6.2 -41.3L-5.95 -40.75Q-4.4 -40.45 -4 -39.9Q-3.5 -39.25 -3.55 -38.35Q-3.7 -37.5 -4.95 -36.35Q-5.8 -35.55 -8.2 -34.85Q-7.8 -35.5 -8.7 -36L-8.45 -36.7Q-8.4 -37.35 -9.75 -37Q-9.6 -38.25 -10.05 -38.1L-10.85 -37.65L-10.6 -38.5" />
<path style="fill:none;stroke-width:0.7;stroke-linecap:round;stroke-linejoin:round;stroke-miterlimit:3;stroke:#000000;stroke-opacity:0.298039" d="M-8.2 -34.85Q-5.8 -35.55 -4.95 -36.35Q-3.7 -37.5 -3.55 -38.35Q-3.5 -39.25 -4 -39.9Q-4.4 -40.45 -5.95 -40.75L-6.2 -41.3Q-6.55 -41.75 -7.25 -41.9Q-8 -42.05 -8.8 -41.45Q-9.65 -40.8 -10.6 -38.5L-10.85 -37.65L-11.15 -36.25" />
<path style="fill:none;stroke-width:0.7;stroke-linecap:round;stroke-linejoin:round;stroke-miterlimit:3;stroke:#000000;stroke-opacity:0.298039" d="M-10.4 -36.05L-9.75 -37" />
<path style="fill:none;stroke-width:0.7;stroke-linecap:round;stroke-linejoin:round;stroke-miterlimit:3;stroke:#000000;stroke-opacity:0.298039" d="M-9.85 -34.5L-10.8 -34.3Q-11.2 -35.25 -11.15 -36.25" />
<path style="fill:none;stroke-width:0.7;stroke-linecap:round;stroke-linejoin:round;stroke-miterlimit:3;stroke:#000000;stroke-opacity:0.298039" d="M-8.2 -34.85L-9.85 -34.5" />
<path style="fill:none;stroke-width:0.7;stroke-linecap:round;stroke-linejoin:round;stroke-miterlimit:3;stroke:#000000;stroke-opacity:0.298039" d="M-10.4 -36L-10.8 -34.3" />
<path style="fill:none;stroke-width:0.7;stroke-linecap:round;stroke-linejoin:round;stroke-miterlimit:3;stroke:#000000;stroke-opacity:0.298039" d="M-10.4 -36.05L-10.4 -36" />
</g>
<g id="PathID_2336" transform="matrix(1, 0, 0, 1, 28.2, 44.25)">
<radialGradient
id="RadialGradID_1213" gradientUnits="userSpaceOnUse" gradientTransform="matrix(-0.000976563, -0.00372314, 0.00369263, -0.000976563, -5.1, -30.1)" spreadMethod ="pad" cx="0" cy="0" r="819.2" fx="0" fy="0" >
<stop  offset="0.054902"  style="stop-color:#7A7300;stop-opacity:1" />
<stop  offset="0.341176"  style="stop-color:#D0B279;stop-opacity:1" />
<stop  offset="0.917647"  style="stop-color:#D77689;stop-opacity:1" />
</radialGradient>
<path style="fill:url(#RadialGradID_1213) " d="M-5.2 -34.25Q-4.7 -33.15 -4.35 -31.75Q-4.2 -30.8 -4.8 -29.9Q-6.2 -29.85 -7.15 -31.15Q-7.3 -32.8 -6.8 -33.7Q-6.35 -34.4 -5.4 -34.5L-5.2 -34.25" />
<path style="fill:none;stroke-width:0.7;stroke-linecap:round;stroke-linejoin:round;stroke-miterlimit:3;stroke:#000000;stroke-opacity:0.298039" d="M-5.4 -34.5Q-6.35 -34.4 -6.8 -33.7Q-7.3 -32.8 -7.15 -31.15Q-6.2 -29.85 -4.8 -29.9Q-4.2 -30.8 -4.35 -31.75Q-4.7 -33.15 -5.2 -34.25L-5.4 -34.5z" />
</g>
<g id="PathID_2337" transform="matrix(1, 0, 0, 1, 28.2, 44.25)">
<radialGradient
id="RadialGradID_1214" gradientUnits="userSpaceOnUse" gradientTransform="matrix(0.00384521, 0, 0, 0.00386047, -5.35, -30.05)" spreadMethod ="pad" cx="0" cy="0" r="819.2" fx="0" fy="0" >
<stop  offset="0.054902"  style="stop-color:#7A7300;stop-opacity:1" />
<stop  offset="0.341176"  style="stop-color:#D0B279;stop-opacity:1" />
<stop  offset="0.917647"  style="stop-color:#D77689;stop-opacity:1" />
</radialGradient>
<path style="fill:url(#RadialGradID_1214) " d="M-9 -32L-6.4 -31.5Q-5.5 -31.15 -5 -30.15Q-5.65 -28.95 -7.3 -28.8Q-8.8 -29.45 -9.3 -30.35Q-9.7 -31.05 -9.3 -32L-9 -32" />
<path style="fill:none;stroke-width:0.7;stroke-linecap:round;stroke-linejoin:round;stroke-miterlimit:3;stroke:#000000;stroke-opacity:0.298039" d="M-9.3 -32Q-9.7 -31.05 -9.3 -30.35Q-8.8 -29.45 -7.3 -28.8Q-5.65 -28.95 -5 -30.15Q-5.5 -31.15 -6.4 -31.5L-9 -32L-9.3 -32z" />
</g>
<g id="PathID_2338" transform="matrix(1, 0, 0, 1, 28.2, 44.25)">
<radialGradient
id="RadialGradID_1215" gradientUnits="userSpaceOnUse" gradientTransform="matrix(0.00192261, -0.00334167, 0.00292969, 0.00170898, -4.85, -30.15)" spreadMethod ="pad" cx="0" cy="0" r="819.2" fx="0" fy="0" >
<stop  offset="0.054902"  style="stop-color:#7A7300;stop-opacity:1" />
<stop  offset="0.341176"  style="stop-color:#D0B279;stop-opacity:1" />
<stop  offset="0.917647"  style="stop-color:#D77689;stop-opacity:1" />
</radialGradient>
<path style="fill:url(#RadialGradID_1215) " d="M-2 -33.1Q-1.75 -32.15 -2.35 -30.6Q-3.65 -29.6 -4.9 -29.95Q-5.3 -31 -4.85 -31.9L-3.45 -34.05L-3.2 -34.25Q-2.25 -33.95 -2 -33.1" />
<path style="fill:none;stroke-width:0.7;stroke-linecap:round;stroke-linejoin:round;stroke-miterlimit:3;stroke:#000000;stroke-opacity:0.298039" d="M-2 -33.1Q-1.75 -32.15 -2.35 -30.6Q-3.65 -29.6 -4.9 -29.95Q-5.3 -31 -4.85 -31.9L-3.45 -34.05L-3.2 -34.25Q-2.25 -33.95 -2 -33.1z" />
</g>
<g id="PathID_2339" transform="matrix(1, 0, 0, 1, 28.2, 44.25)">
<radialGradient
id="RadialGradID_1216" gradientUnits="userSpaceOnUse" gradientTransform="matrix(-0.00262451, 0.00263977, -0.00245667, -0.00245667, -5.05, -29.95)" spreadMethod ="pad" cx="0" cy="0" r="819.2" fx="96" fy="0" >
<stop  offset="0.054902"  style="stop-color:#7A7300;stop-opacity:1" />
<stop  offset="0.341176"  style="stop-color:#D0B279;stop-opacity:1" />
<stop  offset="0.917647"  style="stop-color:#D77689;stop-opacity:1" />
</radialGradient>
<path style="fill:url(#RadialGradID_1216) " d="M-8.55 -27.6L-6.85 -29.6Q-6.05 -30.25 -5 -30.15Q-4.25 -28.95 -4.9 -27.5Q-6.25 -26.5 -7.25 -26.5Q-8.1 -26.55 -8.7 -27.35L-8.55 -27.6" />
<path style="fill:none;stroke-width:0.7;stroke-linecap:round;stroke-linejoin:round;stroke-miterlimit:3;stroke:#000000;stroke-opacity:0.298039" d="M-8.7 -27.35Q-8.1 -26.55 -7.25 -26.5Q-6.25 -26.5 -4.9 -27.5Q-4.25 -28.95 -5 -30.15Q-6.05 -30.25 -6.85 -29.6L-8.55 -27.6L-8.7 -27.35z" />
</g>
<g id="PathID_2340" transform="matrix(1, 0, 0, 1, 28.2, 44.25)">
<radialGradient
id="RadialGradID_1217" gradientUnits="userSpaceOnUse" gradientTransform="matrix(0.00486755, 0, 0, 0.00323486, -5.3, -29.75)" spreadMethod ="pad" cx="0" cy="0" r="819.2" fx="0" fy="0" >
<stop  offset="0.054902"  style="stop-color:#7A7300;stop-opacity:1" />
<stop  offset="0.341176"  style="stop-color:#D0B279;stop-opacity:1" />
<stop  offset="0.917647"  style="stop-color:#D77689;stop-opacity:1" />
</radialGradient>
<path style="fill:url(#RadialGradID_1217) " d="M-5.2 -30Q-4.3 -30.6 -3.35 -30.45Q-1.95 -30.1 -0.85 -29.6L-0.6 -29.4Q-0.7 -28.45 -1.45 -28Q-2.3 -27.5 -3.95 -27.65Q-5.25 -28.6 -5.2 -30" />
<path style="fill:none;stroke-width:0.7;stroke-linecap:round;stroke-linejoin:round;stroke-miterlimit:3;stroke:#000000;stroke-opacity:0.298039" d="M-5.2 -30Q-4.3 -30.6 -3.35 -30.45Q-1.95 -30.1 -0.85 -29.6L-0.6 -29.4Q-0.7 -28.45 -1.45 -28Q-2.3 -27.5 -3.95 -27.65Q-5.25 -28.6 -5.2 -30z" />
</g>
<g id="PathID_2341" transform="matrix(1, 0, 0, 1, 28.2, 44.25)">
<path style="fill:#528229;fill-opacity:1" d="M1.8 -28.6Q2.55 -27.65 3.2 -28.35L3.6 -29L3.7 -28.95Q4.45 -28.2 4.7 -28.7L3.85 -28Q2.65 -26.8 1.9 -27.45L1.35 -28.15L1.8 -28.6M4.7 -28.7L5 -29.55L5.6 -29.25Q5.55 -27.8 4.65 -27.8L3.85 -28L3.7 -28.95" />
<path style="fill:#42651B;fill-opacity:1" d="M5 -29.55L4.7 -28.7Q4.45 -28.2 3.7 -28.95L3.6 -29L3.2 -28.35Q2.55 -27.65 1.8 -28.6L3.75 -30.75L5 -29.55M3.75 -30.75L3.6 -29L3.75 -30.75" />
<linearGradient
id="LinearGradID_1218" gradientUnits="userSpaceOnUse" gradientTransform="matrix(-1.52588e-005, 0.00163269, -0.00271606, -1.52588e-005, 4.05, -26.7)" spreadMethod ="pad" x1="-819.2" y1="0" x2="819.2" y2="0" >
<stop  offset="0" style="stop-color:#42651B;stop-opacity:1" />
<stop  offset="1" style="stop-color:#5F8B2B;stop-opacity:1" />
</linearGradient>
<path style="fill:url(#LinearGradID_1218) " d="M4.65 -27.8Q5.55 -27.8 5.6 -29.25L7.9 -27.95Q8.55 -27.4 8.55 -26.7Q8.6 -26 7.85 -25.4Q7.15 -24.95 6.2 -24.95L4.1 -25.25L3.15 -24.95L1.8 -24.5Q0.85 -24.6 0.15 -25Q-0.55 -25.55 -0.5 -26.05Q-0.5 -26.65 0.15 -27.2L1.35 -28.15L1.9 -27.45Q2.65 -26.8 3.85 -28L4.1 -27.35L4.65 -27.8M4.1 -27.35L3.85 -28" />
<path style="fill:none;stroke-width:0.7;stroke-linecap:round;stroke-linejoin:round;stroke-miterlimit:3;stroke:#000000;stroke-opacity:0.298039" d="M3.85 -28L3.7 -28.95" />
<path style="fill:none;stroke-width:0.7;stroke-linecap:round;stroke-linejoin:round;stroke-miterlimit:3;stroke:#000000;stroke-opacity:0.298039" d="M1.8 -28.6L1.35 -28.15L0.15 -27.2Q-0.5 -26.65 -0.5 -26.05Q-0.55 -25.55 0.15 -25Q0.85 -24.6 1.8 -24.5L3.15 -24.95L4.1 -25.25L6.2 -24.95Q7.15 -24.95 7.85 -25.4Q8.6 -26 8.55 -26.7Q8.55 -27.4 7.9 -27.95L5.6 -29.25" />
<path style="fill:none;stroke-width:0.7;stroke-linecap:round;stroke-linejoin:round;stroke-miterlimit:3;stroke:#000000;stroke-opacity:0.298039" d="M3.85 -28L4.1 -27.35" />
<path style="fill:none;stroke-width:0.7;stroke-linecap:round;stroke-linejoin:round;stroke-miterlimit:3;stroke:#000000;stroke-opacity:0.298039" d="M5 -29.55L5.6 -29.25" />
<path style="fill:none;stroke-width:0.7;stroke-linecap:round;stroke-linejoin:round;stroke-miterlimit:3;stroke:#000000;stroke-opacity:0.298039" d="M3.6 -29L3.75 -30.75L1.8 -28.6" />
<path style="fill:none;stroke-width:0.7;stroke-linecap:round;stroke-linejoin:round;stroke-miterlimit:3;stroke:#000000;stroke-opacity:0.298039" d="M3.75 -30.75L5 -29.55" />
</g>
<g id="PathID_2342" transform="matrix(1, 0, 0, 1, 28.2, 44.25)">
<path style="fill:#528229;fill-opacity:1" d="M5.15 -31.6Q4.4 -32.55 3.75 -31.85L3.35 -31.2L3.25 -31.25Q2.5 -32 2.25 -31.5L3.1 -32.2Q4.3 -33.4 5.05 -32.75L5.6 -32.05L5.15 -31.6M2.25 -31.5L1.95 -30.65L1.35 -30.95Q1.4 -32.4 2.3 -32.4L3.1 -32.2L3.25 -31.25" />
<path style="fill:#42651B;fill-opacity:1" d="M1.95 -30.65L2.25 -31.5Q2.5 -32 3.25 -31.25L3.35 -31.2L3.75 -31.85Q4.4 -32.55 5.15 -31.6L3.2 -29.45L1.95 -30.65M3.2 -29.45L3.35 -31.2L3.2 -29.45" />
<linearGradient
id="LinearGradID_1219" gradientUnits="userSpaceOnUse" gradientTransform="matrix(1.52588e-005, -0.00163269, 0.00271606, 1.52588e-005, 2.9, -33.5)" spreadMethod ="pad" x1="-819.2" y1="0" x2="819.2" y2="0" >
<stop  offset="0" style="stop-color:#42651B;stop-opacity:1" />
<stop  offset="1" style="stop-color:#5F8B2B;stop-opacity:1" />
</linearGradient>
<path style="fill:url(#LinearGradID_1219) " d="M2.3 -32.4Q1.4 -32.4 1.35 -30.95L-0.95 -32.25Q-1.6 -32.8 -1.6 -33.5Q-1.65 -34.2 -0.9 -34.8L0.75 -35.25L2.85 -34.95L3.8 -35.25L5.15 -35.7L6.8 -35.2Q7.5 -34.65 7.45 -34.15Q7.45 -33.55 6.8 -33L5.6 -32.05L5.05 -32.75Q4.3 -33.4 3.1 -32.2L2.85 -32.85L2.3 -32.4M2.85 -32.85L3.1 -32.2" />
<path style="fill:none;stroke-width:0.7;stroke-linecap:round;stroke-linejoin:round;stroke-miterlimit:3;stroke:#000000;stroke-opacity:0.298039" d="M3.1 -32.2L3.25 -31.25" />
<path style="fill:none;stroke-width:0.7;stroke-linecap:round;stroke-linejoin:round;stroke-miterlimit:3;stroke:#000000;stroke-opacity:0.298039" d="M5.15 -31.6L5.6 -32.05L6.8 -33Q7.45 -33.55 7.45 -34.15Q7.5 -34.65 6.8 -35.2L5.15 -35.7L3.8 -35.25L2.85 -34.95L0.75 -35.25L-0.9 -34.8Q-1.65 -34.2 -1.6 -33.5Q-1.6 -32.8 -0.95 -32.25L1.35 -30.95" />
<path style="fill:none;stroke-width:0.7;stroke-linecap:round;stroke-linejoin:round;stroke-miterlimit:3;stroke:#000000;stroke-opacity:0.298039" d="M3.1 -32.2L2.85 -32.85" />
<path style="fill:none;stroke-width:0.7;stroke-linecap:round;stroke-linejoin:round;stroke-miterlimit:3;stroke:#000000;stroke-opacity:0.298039" d="M1.95 -30.65L1.35 -30.95" />
<path style="fill:none;stroke-width:0.7;stroke-linecap:round;stroke-linejoin:round;stroke-miterlimit:3;stroke:#000000;stroke-opacity:0.298039" d="M3.35 -31.2L3.2 -29.45L5.15 -31.6" />
<path style="fill:none;stroke-width:0.7;stroke-linecap:round;stroke-linejoin:round;stroke-miterlimit:3;stroke:#000000;stroke-opacity:0.298039" d="M3.2 -29.45L1.95 -30.65" />
</g>
<g id="PathID_2343" transform="matrix(1, 0, 0, 1, 28.2, 44.25)">
<path style="fill:#528229;fill-opacity:1" d="M2.15 -30.3L1.8 -29.8Q1.8 -29.2 2.75 -28.85L1.5 -27.95Q0.85 -28.1 1.1 -29.1Q0.75 -29.2 0.45 -29.4Q0.05 -29.85 1.05 -30.5L1.55 -30.5L2.05 -30.35L2.15 -30.3M0.55 -31.55L1.4 -31.85L2.5 -31Q1.1 -31.35 2.05 -30.35L1.55 -30.5L1.05 -30.5Q0.2 -31.3 0.55 -31.55" />
<path style="fill:#42651B;fill-opacity:1" d="M2.15 -30.3Q2.8 -30.05 3.45 -29.4L2.05 -30.35Q1.1 -31.35 2.5 -31L3.45 -29.4L2.75 -28.85Q2.8 -30.05 2.15 -30.3M2.75 -28.85Q1.8 -29.2 1.8 -29.8L2.15 -30.3" />
<linearGradient
id="LinearGradID_1220" gradientUnits="userSpaceOnUse" gradientTransform="matrix(-0.00248718, 0.000335693, 0.00050354, 0.00376892, -0.45, -29.9)" spreadMethod ="pad" x1="-819.2" y1="0" x2="819.2" y2="0" >
<stop  offset="0" style="stop-color:#42651B;stop-opacity:1" />
<stop  offset="1" style="stop-color:#5F8B2B;stop-opacity:1" />
</linearGradient>
<path style="fill:url(#LinearGradID_1220) " d="M-1.55 -26.7L-3.65 -27.1Q-4.35 -27.7 -4.4 -28.55Q-4.5 -29.35 -4.05 -30.05L-3.7 -30.55L-3.8 -31.3L-3.6 -32.3Q-3.3 -32.9 -2.35 -32.95Q-1.4 -33.1 0.65 -32.2L1.4 -31.85L0.55 -31.55Q0.2 -31.3 1.05 -30.5Q0.05 -29.85 0.45 -29.4Q0.75 -29.2 1.1 -29.1Q0.85 -28.1 1.5 -27.95Q-0.45 -26.8 -1.55 -26.7" />
<path style="fill:none;stroke-width:0.7;stroke-linecap:round;stroke-linejoin:round;stroke-miterlimit:3;stroke:#000000;stroke-opacity:0.298039" d="M1.05 -30.5L1.55 -30.5L2.05 -30.35" />
<path style="fill:none;stroke-width:0.7;stroke-linecap:round;stroke-linejoin:round;stroke-miterlimit:3;stroke:#000000;stroke-opacity:0.298039" d="M2.5 -31L1.4 -31.85" />
<path style="fill:none;stroke-width:0.7;stroke-linecap:round;stroke-linejoin:round;stroke-miterlimit:3;stroke:#000000;stroke-opacity:0.298039" d="M1.5 -27.95L2.75 -28.85" />
<path style="fill:none;stroke-width:0.7;stroke-linecap:round;stroke-linejoin:round;stroke-miterlimit:3;stroke:#000000;stroke-opacity:0.298039" d="M2.15 -30.3L2.05 -30.35" />
<path style="fill:none;stroke-width:0.7;stroke-linecap:round;stroke-linejoin:round;stroke-miterlimit:3;stroke:#000000;stroke-opacity:0.298039" d="M1.4 -31.85L0.65 -32.2Q-1.4 -33.1 -2.35 -32.95Q-3.3 -32.9 -3.6 -32.3L-3.8 -31.3L-3.7 -30.55L-4.05 -30.05Q-4.5 -29.35 -4.4 -28.55Q-4.35 -27.7 -3.65 -27.1L-1.55 -26.7Q-0.45 -26.8 1.5 -27.95" />
<path style="fill:none;stroke-width:0.7;stroke-linecap:round;stroke-linejoin:round;stroke-miterlimit:3;stroke:#000000;stroke-opacity:0.298039" d="M3.45 -29.4L2.5 -31" />
<path style="fill:none;stroke-width:0.7;stroke-linecap:round;stroke-linejoin:round;stroke-miterlimit:3;stroke:#000000;stroke-opacity:0.298039" d="M3.45 -29.4Q2.8 -30.05 2.15 -30.3" />
<path style="fill:none;stroke-width:0.7;stroke-linecap:round;stroke-linejoin:round;stroke-miterlimit:3;stroke:#000000;stroke-opacity:0.298039" d="M2.75 -28.85L3.45 -29.4" />
</g>
<g id="PathID_2344" transform="matrix(1, 0, 0, 1, 28.2, 44.25)">
<path style="fill:#528229;fill-opacity:1" d="M6.05 -28.55L4.45 -29.1Q5.35 -29.7 5.2 -30.25L4.7 -30.65L4.75 -30.7Q5.55 -32 4.2 -31.25L5.15 -32.3L6.05 -32.3Q6.55 -32.2 5.75 -31.2L4.75 -30.7L5.75 -31.2Q7.15 -30.8 6.75 -30.3L6.2 -29.8Q6.7 -28.9 6.05 -28.55" />
<path style="fill:#42651B;fill-opacity:1" d="M4.7 -30.65L5.2 -30.25L3.5 -29.35Q3.65 -30.4 4.2 -31.25Q5.55 -32 4.75 -30.7L4.7 -30.65M5.2 -30.25Q5.35 -29.7 4.45 -29.1L3.5 -29.35L4.7 -30.65" />
<linearGradient
id="LinearGradID_1221" gradientUnits="userSpaceOnUse" gradientTransform="matrix(0.00274658, -0.000366211, 0.000473022, 0.00376892, 7.55, -31)" spreadMethod ="pad" x1="-819.2" y1="0" x2="819.2" y2="0" >
<stop  offset="0" style="stop-color:#42651B;stop-opacity:1" />
<stop  offset="1" style="stop-color:#5F8B2B;stop-opacity:1" />
</linearGradient>
<path style="fill:url(#LinearGradID_1221) " d="M6.2 -29.8L6.75 -30.3Q7.15 -30.8 5.75 -31.2Q6.55 -32.2 6.05 -32.3L5.15 -32.3L5.8 -32.9Q7.75 -34.45 8.85 -34.55Q9.85 -34.7 10.4 -34.2L11 -33.15L10.95 -32.55Q12.15 -31.5 12.2 -30.8Q12.35 -30 11.85 -29.3Q11.25 -28.6 9.65 -28.25L6.05 -28.55Q6.7 -28.9 6.2 -29.8" />
<path style="fill:none;stroke-width:0.7;stroke-linecap:round;stroke-linejoin:round;stroke-miterlimit:3;stroke:#000000;stroke-opacity:0.298039" d="M4.2 -31.25Q3.65 -30.4 3.5 -29.35L4.7 -30.65L4.75 -30.7L5.75 -31.2" />
<path style="fill:none;stroke-width:0.7;stroke-linecap:round;stroke-linejoin:round;stroke-miterlimit:3;stroke:#000000;stroke-opacity:0.298039" d="M5.15 -32.3L4.2 -31.25" />
<path style="fill:none;stroke-width:0.7;stroke-linecap:round;stroke-linejoin:round;stroke-miterlimit:3;stroke:#000000;stroke-opacity:0.298039" d="M5.15 -32.3L5.8 -32.9Q7.75 -34.45 8.85 -34.55Q9.85 -34.7 10.4 -34.2L11 -33.15L10.95 -32.55Q12.15 -31.5 12.2 -30.8Q12.35 -30 11.85 -29.3Q11.25 -28.6 9.65 -28.25L6.05 -28.55L4.45 -29.1L3.5 -29.35" />
</g>
<g id="PathID_2345" transform="matrix(1, 0, 0, 1, 28.2, 44.25)">
<path style="fill:#528229;fill-opacity:1" d="M-19.9 -16.45Q-19.05 -16 -18.85 -16.95L-18.85 -17.7L-18.75 -17.7Q-17.95 -17.45 -18 -18L-18.3 -17Q-18.6 -15.35 -19.4 -15.55L-20 -15.85L-19.9 -16.45M-18 -18L-18.1 -18.9L-17.6 -18.95Q-17.1 -17.65 -17.7 -17.2L-18.3 -17L-18.75 -17.7" />
<path style="fill:#42651B;fill-opacity:1" d="M-18.1 -18.9L-18 -18Q-17.95 -17.45 -18.75 -17.7L-18.85 -17.7L-18.85 -16.95Q-19.05 -16 -19.9 -16.45L-19.4 -19.3L-18.1 -18.9M-19.4 -19.3L-18.85 -17.7L-19.4 -19.3" />
<linearGradient
id="LinearGradID_1222" gradientUnits="userSpaceOnUse" gradientTransform="matrix(0.00062561, 0.00143433, -0.0018158, 0.00134277, -17.65, -15.95)" spreadMethod ="pad" x1="-819.2" y1="0" x2="819.2" y2="0" >
<stop  offset="0" style="stop-color:#42651B;stop-opacity:1" />
<stop  offset="1" style="stop-color:#5F8B2B;stop-opacity:1" />
</linearGradient>
<path style="fill:url(#LinearGradID_1222) " d="M-17.7 -17.2Q-17.1 -17.65 -17.6 -18.95L-15.6 -18.95Q-14.95 -18.85 -14.65 -18.2Q-14.35 -17.6 -14.65 -16.75Q-14.95 -16 -15.6 -15.5Q-16.25 -15.05 -17.1 -14.75L-17.6 -13.95L-18.3 -12.95Q-18.95 -12.5 -19.6 -12.55Q-20.25 -12.65 -20.45 -13.1L-20.4 -14.45L-20 -15.85L-19.4 -15.55Q-18.6 -15.35 -18.3 -17L-17.9 -16.5L-17.7 -17.2M-17.9 -16.5L-18.3 -17" />
<path style="fill:none;stroke-width:0.7;stroke-linecap:round;stroke-linejoin:round;stroke-miterlimit:3;stroke:#000000;stroke-opacity:0.298039" d="M-18.3 -17L-18.75 -17.7" />
<path style="fill:none;stroke-width:0.7;stroke-linecap:round;stroke-linejoin:round;stroke-miterlimit:3;stroke:#000000;stroke-opacity:0.298039" d="M-19.9 -16.45L-20 -15.85L-20.4 -14.45L-20.45 -13.1Q-20.25 -12.65 -19.6 -12.55Q-18.95 -12.5 -18.3 -12.95L-17.6 -13.95L-17.1 -14.75Q-16.25 -15.05 -15.6 -15.5Q-14.95 -16 -14.65 -16.75Q-14.35 -17.6 -14.65 -18.2Q-14.95 -18.85 -15.6 -18.95L-17.6 -18.95" />
<path style="fill:none;stroke-width:0.7;stroke-linecap:round;stroke-linejoin:round;stroke-miterlimit:3;stroke:#000000;stroke-opacity:0.298039" d="M-18.3 -17L-17.9 -16.5" />
<path style="fill:none;stroke-width:0.7;stroke-linecap:round;stroke-linejoin:round;stroke-miterlimit:3;stroke:#000000;stroke-opacity:0.298039" d="M-18.1 -18.9L-17.6 -18.95" />
<path style="fill:none;stroke-width:0.7;stroke-linecap:round;stroke-linejoin:round;stroke-miterlimit:3;stroke:#000000;stroke-opacity:0.298039" d="M-18.85 -17.7L-19.4 -19.3L-19.9 -16.45" />
<path style="fill:none;stroke-width:0.7;stroke-linecap:round;stroke-linejoin:round;stroke-miterlimit:3;stroke:#000000;stroke-opacity:0.298039" d="M-19.4 -19.3L-18.1 -18.9" />
</g>
<g id="PathID_2346" transform="matrix(1, 0, 0, 1, 28.2, 44.25)">
<path style="fill:#528229;fill-opacity:1" d="M-18.8 -20.8Q-19.65 -21.25 -19.85 -20.3L-19.85 -19.55L-19.95 -19.55Q-20.75 -19.8 -20.7 -19.25L-20.4 -20.25Q-20.1 -21.9 -19.3 -21.7L-18.7 -21.4L-18.8 -20.8M-20.7 -19.25Q-20.5 -18.65 -20.6 -18.35L-21.1 -18.3Q-21.6 -19.6 -21 -20.05L-20.4 -20.25L-19.95 -19.55" />
<path style="fill:#42651B;fill-opacity:1" d="M-20.6 -18.35Q-20.5 -18.65 -20.7 -19.25Q-20.75 -19.8 -19.95 -19.55L-19.85 -19.55L-19.85 -20.3Q-19.65 -21.25 -18.8 -20.8L-19.3 -17.95L-20.6 -18.35M-19.3 -17.95Q-19.5 -18.85 -19.85 -19.55Q-19.5 -18.85 -19.3 -17.95" />
<linearGradient
id="LinearGradID_1223" gradientUnits="userSpaceOnUse" gradientTransform="matrix(-0.00062561, -0.00143433, 0.0018158, -0.00134277, -21.05, -21.3)" spreadMethod ="pad" x1="-819.2" y1="0" x2="819.2" y2="0" >
<stop  offset="0" style="stop-color:#42651B;stop-opacity:1" />
<stop  offset="1" style="stop-color:#5F8B2B;stop-opacity:1" />
</linearGradient>
<path style="fill:url(#LinearGradID_1223) " d="M-21 -20.05Q-21.6 -19.6 -21.1 -18.3L-23.1 -18.3Q-23.75 -18.4 -24.05 -19.05Q-24.35 -19.65 -24.05 -20.5L-23.1 -21.75L-21.6 -22.5L-21.1 -23.3L-20.4 -24.3L-19.1 -24.7Q-18.45 -24.6 -18.25 -24.15Q-18.05 -23.65 -18.3 -22.8L-18.7 -21.4L-19.3 -21.7Q-20.1 -21.9 -20.4 -20.25L-20.8 -20.75L-21 -20.05M-20.8 -20.75L-20.4 -20.25" />
<path style="fill:none;stroke-width:0.7;stroke-linecap:round;stroke-linejoin:round;stroke-miterlimit:3;stroke:#000000;stroke-opacity:0.298039" d="M-20.4 -20.25L-19.95 -19.55" />
<path style="fill:none;stroke-width:0.7;stroke-linecap:round;stroke-linejoin:round;stroke-miterlimit:3;stroke:#000000;stroke-opacity:0.298039" d="M-18.8 -20.8L-18.7 -21.4L-18.3 -22.8Q-18.05 -23.65 -18.25 -24.15Q-18.45 -24.6 -19.1 -24.7L-20.4 -24.3L-21.1 -23.3L-21.6 -22.5L-23.1 -21.75L-24.05 -20.5Q-24.35 -19.65 -24.05 -19.05Q-23.75 -18.4 -23.1 -18.3L-21.1 -18.3" />
<path style="fill:none;stroke-width:0.7;stroke-linecap:round;stroke-linejoin:round;stroke-miterlimit:3;stroke:#000000;stroke-opacity:0.298039" d="M-20.4 -20.25L-20.8 -20.75" />
<path style="fill:none;stroke-width:0.7;stroke-linecap:round;stroke-linejoin:round;stroke-miterlimit:3;stroke:#000000;stroke-opacity:0.298039" d="M-20.6 -18.35L-21.1 -18.3" />
<path style="fill:none;stroke-width:0.7;stroke-linecap:round;stroke-linejoin:round;stroke-miterlimit:3;stroke:#000000;stroke-opacity:0.298039" d="M-19.85 -19.55Q-19.5 -18.85 -19.3 -17.95L-18.8 -20.8" />
<path style="fill:none;stroke-width:0.7;stroke-linecap:round;stroke-linejoin:round;stroke-miterlimit:3;stroke:#000000;stroke-opacity:0.298039" d="M-19.3 -17.95L-20.6 -18.35" />
</g>
<g id="PathID_2347" transform="matrix(1, 0, 0, 1, 28.2, 44.25)">
<path style="fill:#528229;fill-opacity:1" d="M-20.3 -18.15L-20.35 -17.55Q-20.1 -17.05 -19.35 -17.2L-19.85 -15.8Q-20.35 -15.6 -20.6 -16.6L-21.1 -16.55Q-21.55 -16.7 -21.1 -17.8L-20.8 -18L-20.4 -18.15L-20.3 -18.15M-21.85 -18.45L-21.45 -19.1L-20.35 -18.95Q-21.45 -18.55 -20.4 -18.15L-20.8 -18L-21.1 -17.8Q-22 -18.05 -21.85 -18.45" />
<path style="fill:#42651B;fill-opacity:1" d="M-20.3 -18.15L-19.1 -18.05L-20.4 -18.15Q-21.45 -18.55 -20.35 -18.95L-19.1 -18.05L-19.35 -17.2L-20.3 -18.15M-19.35 -17.2Q-20.1 -17.05 -20.35 -17.55L-20.3 -18.15" />
<linearGradient
id="LinearGradID_1224" gradientUnits="userSpaceOnUse" gradientTransform="matrix(-0.00152588, 0.00154114, 0.00177002, 0.00302124, -21.9, -16.5)" spreadMethod ="pad" x1="-819.2" y1="0" x2="819.2" y2="0" >
<stop  offset="0" style="stop-color:#42651B;stop-opacity:1" />
<stop  offset="1" style="stop-color:#5F8B2B;stop-opacity:1" />
</linearGradient>
<path style="fill:url(#LinearGradID_1224) " d="M-21.4 -13.2Q-22.4 -12.4 -22.95 -12.5Q-23.6 -12.65 -24 -13.35Q-24.4 -14 -24.35 -14.85L-24.3 -15.45L-24.65 -16.05L-24.9 -17Q-24.95 -17.7 -24.35 -18.2Q-23.75 -18.8 -22.05 -19.05L-21.45 -19.1L-21.85 -18.45Q-22 -18.05 -21.1 -17.8Q-21.55 -16.7 -21.1 -16.55L-20.6 -16.6Q-20.35 -15.6 -19.85 -15.8Q-20.7 -13.8 -21.4 -13.2" />
<path style="fill:none;stroke-width:0.7;stroke-linecap:round;stroke-linejoin:round;stroke-miterlimit:3;stroke:#000000;stroke-opacity:0.298039" d="M-21.1 -17.8L-20.8 -18L-20.4 -18.15" />
<path style="fill:none;stroke-width:0.7;stroke-linecap:round;stroke-linejoin:round;stroke-miterlimit:3;stroke:#000000;stroke-opacity:0.298039" d="M-20.35 -18.95L-21.45 -19.1" />
<path style="fill:none;stroke-width:0.7;stroke-linecap:round;stroke-linejoin:round;stroke-miterlimit:3;stroke:#000000;stroke-opacity:0.298039" d="M-19.85 -15.8L-19.35 -17.2" />
<path style="fill:none;stroke-width:0.7;stroke-linecap:round;stroke-linejoin:round;stroke-miterlimit:3;stroke:#000000;stroke-opacity:0.298039" d="M-20.3 -18.15L-20.4 -18.15" />
<path style="fill:none;stroke-width:0.7;stroke-linecap:round;stroke-linejoin:round;stroke-miterlimit:3;stroke:#000000;stroke-opacity:0.298039" d="M-21.45 -19.1L-22.05 -19.05Q-23.75 -18.8 -24.35 -18.2Q-24.95 -17.7 -24.9 -17L-24.65 -16.05L-24.3 -15.45L-24.35 -14.85Q-24.4 -14 -24 -13.35Q-23.6 -12.65 -22.95 -12.5Q-22.4 -12.4 -21.4 -13.2Q-20.7 -13.8 -19.85 -15.8" />
<path style="fill:none;stroke-width:0.7;stroke-linecap:round;stroke-linejoin:round;stroke-miterlimit:3;stroke:#000000;stroke-opacity:0.298039" d="M-19.1 -18.05L-20.35 -18.95" />
<path style="fill:none;stroke-width:0.7;stroke-linecap:round;stroke-linejoin:round;stroke-miterlimit:3;stroke:#000000;stroke-opacity:0.298039" d="M-19.1 -18.05L-20.3 -18.15" />
<path style="fill:none;stroke-width:0.7;stroke-linecap:round;stroke-linejoin:round;stroke-miterlimit:3;stroke:#000000;stroke-opacity:0.298039" d="M-19.35 -17.2L-19.1 -18.05" />
</g>
<g id="PathID_2348" transform="matrix(1, 0, 0, 1, 28.2, 44.25)">
<path style="fill:#528229;fill-opacity:1" d="M-18.75 -19.8L-18.25 -20.75L-18.75 -19.8Q-18.7 -21.3 -19.3 -20L-19.1 -21.4L-18.5 -21.85Q-18.15 -22 -18.25 -20.75Q-17.2 -21.1 -17.25 -20.45L-17.45 -19.75Q-16.75 -19.25 -17.05 -18.6L-18.3 -18.25Q-17.95 -19.25 -18.3 -19.65L-18.75 -19.75L-18.75 -19.8" />
<path style="fill:#42651B;fill-opacity:1" d="M-18.75 -19.75L-19.05 -18.05Q-19.35 -19 -19.3 -20Q-18.7 -21.3 -18.75 -19.8L-18.75 -19.75M-18.75 -19.75L-18.3 -19.65Q-17.95 -19.25 -18.3 -18.25L-19.05 -18.05L-18.75 -19.75" />
<linearGradient
id="LinearGradID_1225" gradientUnits="userSpaceOnUse" gradientTransform="matrix(0.00167847, -0.00170898, 0.00177002, 0.00302124, -17, -21.45)" spreadMethod ="pad" x1="-819.2" y1="0" x2="819.2" y2="0" >
<stop  offset="0" style="stop-color:#42651B;stop-opacity:1" />
<stop  offset="1" style="stop-color:#5F8B2B;stop-opacity:1" />
</linearGradient>
<path style="fill:url(#LinearGradID_1225) " d="M-18.9 -22.25Q-18.15 -24.55 -17.5 -25.2Q-16.9 -25.8 -16.35 -25.65L-15.55 -25.05L-15.35 -24.5Q-14.15 -24.2 -13.85 -23.65Q-13.45 -23 -13.5 -22.1Q-13.6 -21.25 -14.55 -20.1Q-15.2 -19.3 -17.05 -18.6Q-16.75 -19.25 -17.45 -19.75L-17.25 -20.45Q-17.2 -21.1 -18.25 -20.75Q-18.15 -22 -18.5 -21.85L-19.1 -21.4L-18.9 -22.25" />
<path style="fill:none;stroke-width:0.7;stroke-linecap:round;stroke-linejoin:round;stroke-miterlimit:3;stroke:#000000;stroke-opacity:0.298039" d="M-17.05 -18.6Q-15.2 -19.3 -14.55 -20.1Q-13.6 -21.25 -13.5 -22.1Q-13.45 -23 -13.85 -23.65Q-14.15 -24.2 -15.35 -24.5L-15.55 -25.05L-16.35 -25.65Q-16.9 -25.8 -17.5 -25.2Q-18.15 -24.55 -18.9 -22.25L-19.1 -21.4L-19.3 -20" />
<path style="fill:none;stroke-width:0.7;stroke-linecap:round;stroke-linejoin:round;stroke-miterlimit:3;stroke:#000000;stroke-opacity:0.298039" d="M-18.75 -19.8L-18.25 -20.75" />
<path style="fill:none;stroke-width:0.7;stroke-linecap:round;stroke-linejoin:round;stroke-miterlimit:3;stroke:#000000;stroke-opacity:0.298039" d="M-18.3 -18.25L-19.05 -18.05Q-19.35 -19 -19.3 -20" />
<path style="fill:none;stroke-width:0.7;stroke-linecap:round;stroke-linejoin:round;stroke-miterlimit:3;stroke:#000000;stroke-opacity:0.298039" d="M-17.05 -18.6L-18.3 -18.25" />
<path style="fill:none;stroke-width:0.7;stroke-linecap:round;stroke-linejoin:round;stroke-miterlimit:3;stroke:#000000;stroke-opacity:0.298039" d="M-18.75 -19.75L-19.05 -18.05" />
<path style="fill:none;stroke-width:0.7;stroke-linecap:round;stroke-linejoin:round;stroke-miterlimit:3;stroke:#000000;stroke-opacity:0.298039" d="M-18.75 -19.8L-18.75 -19.75" />
</g>
</svg>
