<?xml version="1.0" encoding="utf-8"?>
<svg version="1.1" id="Layer_1"
xmlns="http://www.w3.org/2000/svg"
xmlns:xlink="http://www.w3.org/1999/xlink"
width="546px" height="435px"
xml:space="preserve">
<g id="PathID_1606" transform="matrix(1, 0, 0, 1, 17.7, 0.1)">
<path style="fill:#0092FF;fill-opacity:0.431373" d="M298.6 433.7L47.55 433.7Q8.25 418.85 -0.95 388.2L-17.45 403.8Q-14.4 360.4 -12.65 316.75L2.5 315.85L-12.05 300.1Q-7.1 151.65 -17.45 0.15Q246.85 11.25 527.95 0.15Q509.8 215.2 527 433.7L320.2 433.7L309.55 421.6L298.6 433.7" />
<path style="fill:none;stroke-width:0.7;stroke-linecap:round;stroke-linejoin:round;stroke-miterlimit:3;stroke:#000000;stroke-opacity:0.301961" d="M309.55 421.6L320.2 433.7L527 433.7Q509.8 215.2 527.95 0.15Q246.85 11.25 -17.45 0.15Q-7.1 151.65 -12.05 300.1L2.5 315.85L-12.65 316.75Q-14.4 360.4 -17.45 403.8L-0.95 388.2Q8.25 418.85 47.55 433.7L298.6 433.7L309.55 421.6z" />
</g>
</svg>
