<?xml version="1.0" encoding="utf-8"?>
<svg version="1.1" id="Layer_1"
xmlns="http://www.w3.org/2000/svg"
xmlns:xlink="http://www.w3.org/1999/xlink"
width="225px" height="87px"
xml:space="preserve">
<g id="PathID_228" transform="matrix(1, 0, 0, 1, 113.35, 29.45)">
<path style="fill:none;stroke-width:0.8;stroke-linecap:round;stroke-linejoin:round;stroke-miterlimit:3;stroke:#FFFFFF;stroke-opacity:0.498039" d="M-90.55 -28.8Q-78.7 -21.8 -71.8 -18.45Q-49.6 -7.65 -32.25 -4.4Q-2.85 1.1 22.65 -1.9Q39.2 -3.85 53.9 -9.25Q61.2 -11.95 68.15 -15.55Q73.95 -18.55 79.35 -22.15L80.4 -22.85Q84.7 -25.8 88.8 -29.05" />
</g>
<g id="PathID_229" transform="matrix(1, 0, 0, 1, 113.35, 29.45)">
<path style="fill:#FAC733;fill-opacity:1" d="M-51.3 -6.65L-51.45 -6.9L-51.65 -7.2L-51.85 -8.35Q-51.85 -9.15 -51.45 -9.8Q-51.05 -10.35 -50.5 -10.35Q-49.95 -10.35 -49.55 -9.8Q-49.1 -9.15 -49.1 -8.35Q-49.1 -7.5 -49.55 -6.9L-49.7 -6.65L-51.3 -6.65M-51.45 -8.35L-51.15 -7.25L-50.5 -6.8L-49.85 -7.25L-49.7 -7.65L-49.6 -8.35L-49.8 -9.25L-49.85 -9.4L-50.5 -9.85L-51.15 -9.4L-51.45 -8.35" />
<path style="fill:#C88A1F;fill-opacity:1" d="M-51.3 -6.65L-49.7 -6.65L-49.8 -6.6Q-48.7 -6.2 -47.7 -4.75L-48.8 -4.75Q-50.45 -7.2 -52.45 -4.75L-53.6 -4.75Q-52.35 -6.25 -51.2 -6.6L-51.3 -6.65" />
<path style="fill:none;stroke-width:0.7;stroke-linecap:round;stroke-linejoin:round;stroke-miterlimit:3;stroke:#000000;stroke-opacity:0.301961" d="M-49.7 -6.65L-49.55 -6.9Q-49.1 -7.5 -49.1 -8.35Q-49.1 -9.15 -49.55 -9.8Q-49.95 -10.35 -50.5 -10.35Q-51.05 -10.35 -51.45 -9.8Q-51.85 -9.15 -51.85 -8.35L-51.65 -7.2L-51.45 -6.9L-51.3 -6.65" />
<path style="fill:none;stroke-width:0.7;stroke-linecap:round;stroke-linejoin:round;stroke-miterlimit:3;stroke:#000000;stroke-opacity:0.301961" d="M-49.7 -6.65L-49.8 -6.6Q-48.7 -6.2 -47.7 -4.75L-48.8 -4.75Q-50.45 -7.2 -52.45 -4.75L-53.6 -4.75Q-52.35 -6.25 -51.2 -6.6L-51.3 -6.65" />
<path style="fill:none;stroke-width:0.7;stroke-linecap:round;stroke-linejoin:round;stroke-miterlimit:3;stroke:#000000;stroke-opacity:0.301961" d="M-51.15 -9.4L-50.5 -9.85L-49.85 -9.4L-49.8 -9.25L-49.6 -8.35L-49.7 -7.65L-49.85 -7.25L-50.5 -6.8L-51.15 -7.25L-51.45 -8.35L-51.15 -9.4z" />
</g>
<g id="PathID_230" transform="matrix(1, 0, 0, 1, 113.35, 29.45)">
<radialGradient
id="RadialGradID_73" gradientUnits="userSpaceOnUse" gradientTransform="matrix(0.0231781, 0, 0, 0.0270386, -51.55, 14.4)" spreadMethod ="pad" cx="0" cy="0" r="819.2" fx="0" fy="0" >
<stop  offset="0"  style="stop-color:#FFFDF5;stop-opacity:0.878431" />
<stop  offset="0.14902"  style="stop-color:#FFD202;stop-opacity:0.701961" />
<stop  offset="0.392157"  style="stop-color:#F79331;stop-opacity:0.541176" />
<stop  offset="0.615686"  style="stop-color:#FCC86F;stop-opacity:0.141176" />
<stop  offset="1"  style="stop-color:#FFDD87;stop-opacity:0" />
</radialGradient>
<path style="fill:url(#RadialGradID_73) " d="M-51.55 -7.95Q-43.3 -7.95 -37.45 -1.45Q-31.6 5.1 -31.6 14.4Q-31.6 23.65 -37.45 30.25Q-43.3 36.75 -51.55 36.75Q-59.8 36.75 -65.7 30.25Q-71.5 23.65 -71.5 14.4Q-71.5 5.1 -65.7 -1.45Q-59.8 -7.95 -51.55 -7.95" />
</g>
<g id="PathID_231" transform="matrix(1, 0, 0, 1, 113.35, 29.45)">
<path style="fill:#C88A1F;fill-opacity:1" d="M-46.45 31L-46.45 27.8L-45.85 27.8L-45.85 31L-46.45 31M-49.7 31L-49.7 27.8L-49.1 27.8L-49.1 31L-49.7 31M-48.3 31L-48.3 26.9L-47.7 26.9L-47.7 31L-48.3 31M-51.2 31L-51.2 26.9L-50.65 26.9L-50.65 31L-51.2 31M-52.75 31L-52.75 27.8L-52.2 27.8L-52.2 31L-52.75 31M-54.4 31L-54.4 26.9L-53.85 26.9L-53.85 31L-54.4 31M-55.9 31L-55.9 27.8L-55.3 27.8L-55.3 31L-55.9 31" />
<path style="fill:#FAC733;fill-opacity:1" d="M-45.85 31L-45.85 35.05L-46.45 35.05L-46.45 31L-45.85 31M-49.1 31L-49.1 35.05L-49.7 35.05L-49.7 31L-49.1 31M-47.7 31L-47.7 34.1L-48.3 34.1L-48.3 31L-47.7 31M-50.65 31L-50.65 34.1L-51.2 34.1L-51.2 31L-50.65 31M-52.2 31L-52.2 35.05L-52.75 35.05L-52.75 31L-52.2 31M-53.85 31L-53.85 34.1L-54.4 34.1L-54.4 31L-53.85 31M-55.3 31L-55.3 35.05L-55.9 35.05L-55.9 31L-55.3 31" />
<path style="fill:none;stroke-width:0.7;stroke-linecap:round;stroke-linejoin:round;stroke-miterlimit:3;stroke:#000000;stroke-opacity:0.301961" d="M-46.45 31L-46.45 27.8L-45.85 27.8L-45.85 31L-45.85 35.05L-46.45 35.05L-46.45 31z" />
<path style="fill:none;stroke-width:0.7;stroke-linecap:round;stroke-linejoin:round;stroke-miterlimit:3;stroke:#000000;stroke-opacity:0.301961" d="M-49.7 31L-49.7 27.8L-49.1 27.8L-49.1 31L-49.1 35.05L-49.7 35.05L-49.7 31z" />
<path style="fill:none;stroke-width:0.7;stroke-linecap:round;stroke-linejoin:round;stroke-miterlimit:3;stroke:#000000;stroke-opacity:0.301961" d="M-48.3 31L-48.3 26.9L-47.7 26.9L-47.7 31L-47.7 34.1L-48.3 34.1L-48.3 31z" />
<path style="fill:none;stroke-width:0.7;stroke-linecap:round;stroke-linejoin:round;stroke-miterlimit:3;stroke:#000000;stroke-opacity:0.301961" d="M-51.2 31L-51.2 26.9L-50.65 26.9L-50.65 31L-50.65 34.1L-51.2 34.1L-51.2 31z" />
<path style="fill:none;stroke-width:0.7;stroke-linecap:round;stroke-linejoin:round;stroke-miterlimit:3;stroke:#000000;stroke-opacity:0.301961" d="M-52.75 31L-52.75 27.8L-52.2 27.8L-52.2 31L-52.2 35.05L-52.75 35.05L-52.75 31z" />
<path style="fill:none;stroke-width:0.7;stroke-linecap:round;stroke-linejoin:round;stroke-miterlimit:3;stroke:#000000;stroke-opacity:0.301961" d="M-54.4 31L-54.4 26.9L-53.85 26.9L-53.85 31L-53.85 34.1L-54.4 34.1L-54.4 31z" />
<path style="fill:none;stroke-width:0.7;stroke-linecap:round;stroke-linejoin:round;stroke-miterlimit:3;stroke:#000000;stroke-opacity:0.301961" d="M-55.3 31L-55.3 35.05L-55.9 35.05L-55.9 31L-55.9 27.8L-55.3 27.8L-55.3 31z" />
</g>
<g id="PathID_232" transform="matrix(1, 0, 0, 1, 113.35, 29.45)">
<path style="fill:#C88A1F;fill-opacity:1" d="M-43.35 27.25L-47.05 27.25L-47.05 26.2L-43.35 26.2L-43.35 27.25" />
<path style="fill:#C26721;fill-opacity:1" d="M-43.35 27.25L-43.35 28.15L-47.05 28.15L-47.05 27.25L-43.35 27.25" />
<path style="fill:#FAC733;fill-opacity:1" d="M-53.5 26.2L-47.05 26.2L-47.05 27.25L-53.5 27.2L-53.5 26.2M-55.5 26.2L-55.5 27.2L-58.2 27.2L-58.25 26.2L-55.5 26.2" />
<path style="fill:#F2932E;fill-opacity:1" d="M-53.5 28.15L-53.5 27.2L-47.05 27.25L-47.05 28.15L-53.5 28.15M-58.25 28.15L-58.2 27.2L-55.5 27.2L-55.5 28.15L-58.25 28.15" />
<path style="fill:#F8D337;fill-opacity:1" d="M-55.5 28.15L-55.5 27.2L-53.5 27.2L-53.5 28.15L-55.5 28.15" />
<path style="fill:#FEE83A;fill-opacity:1" d="M-55.5 26.2L-53.5 26.2L-53.5 27.2L-55.5 27.2L-55.5 26.2" />
<path style="fill:none;stroke-width:0.7;stroke-linecap:round;stroke-linejoin:round;stroke-miterlimit:3;stroke:#000000;stroke-opacity:0.301961" d="M-53.5 28.15L-47.05 28.15L-43.35 28.15L-43.35 27.25" />
<path style="fill:none;stroke-width:0.7;stroke-linecap:round;stroke-linejoin:round;stroke-miterlimit:3;stroke:#000000;stroke-opacity:0.301961" d="M-47.05 26.2L-53.5 26.2" />
<path style="fill:none;stroke-width:0.7;stroke-linecap:round;stroke-linejoin:round;stroke-miterlimit:3;stroke:#000000;stroke-opacity:0.301961" d="M-55.5 28.15L-53.5 28.15" />
<path style="fill:none;stroke-width:0.7;stroke-linecap:round;stroke-linejoin:round;stroke-miterlimit:3;stroke:#000000;stroke-opacity:0.301961" d="M-47.05 26.2L-43.35 26.2L-43.35 27.25" />
<path style="fill:none;stroke-width:0.7;stroke-linecap:round;stroke-linejoin:round;stroke-miterlimit:3;stroke:#000000;stroke-opacity:0.301961" d="M-53.5 26.2L-55.5 26.2" />
<path style="fill:none;stroke-width:0.7;stroke-linecap:round;stroke-linejoin:round;stroke-miterlimit:3;stroke:#000000;stroke-opacity:0.301961" d="M-58.2 27.2L-58.25 28.15L-55.5 28.15" />
<path style="fill:none;stroke-width:0.7;stroke-linecap:round;stroke-linejoin:round;stroke-miterlimit:3;stroke:#000000;stroke-opacity:0.301961" d="M-58.2 27.2L-58.25 26.2L-55.5 26.2" />
</g>
<g id="PathID_233" transform="matrix(1, 0, 0, 1, 113.35, 29.45)">
<path style="fill:#F2932E;fill-opacity:1" d="M-55.5 -3.85L-55.5 -2.9L-58.25 -2.9L-58.2 -3.85L-55.5 -3.85M-47.05 -2.9L-53.5 -2.9L-53.5 -3.85L-47.05 -3.85L-47.05 -2.9" />
<path style="fill:#FAC733;fill-opacity:1" d="M-55.5 -3.85L-58.2 -3.85L-58.25 -4.9L-55.5 -4.9L-55.5 -3.85M-47.05 -3.85L-53.5 -3.85L-53.5 -4.9L-47.05 -4.9L-47.05 -3.85" />
<path style="fill:#FEE83A;fill-opacity:1" d="M-55.5 -3.85L-55.5 -4.9L-53.5 -4.9L-53.5 -3.85L-55.5 -3.85" />
<path style="fill:#F8D337;fill-opacity:1" d="M-53.5 -3.85L-53.5 -2.9L-55.5 -2.9L-55.5 -3.85L-53.5 -3.85" />
<path style="fill:#C88A1F;fill-opacity:1" d="M-47.05 -3.85L-47.05 -4.9L-43.35 -4.9L-43.35 -3.85L-47.05 -3.85" />
<path style="fill:#C26721;fill-opacity:1" d="M-47.05 -3.85L-43.35 -3.85L-43.35 -2.9L-47.05 -2.9L-47.05 -3.85" />
<path style="fill:none;stroke-width:0.7;stroke-linecap:round;stroke-linejoin:round;stroke-miterlimit:3;stroke:#000000;stroke-opacity:0.301961" d="M-55.5 -2.9L-58.25 -2.9L-58.2 -3.85L-58.25 -4.9L-55.5 -4.9L-53.5 -4.9L-47.05 -4.9L-43.35 -4.9L-43.35 -3.85L-43.35 -2.9L-47.05 -2.9L-53.5 -2.9L-55.5 -2.9z" />
</g>
<g id="PathID_234" transform="matrix(1, 0, 0, 1, 113.35, 29.45)">
<path style="fill:#C5232B;fill-opacity:1" d="M-58.45 0.55L-56.95 -3.15L-45.5 -3.15L-43.35 0.55L-58.45 0.55M-59.95 0.55L-62.3 0.55L-60 -3.15L-58.25 -3.15L-59.95 0.55" />
<path style="fill:#D72F38;fill-opacity:1" d="M-58.45 0.55L-59.95 0.55L-58.25 -3.15L-56.95 -3.15L-58.45 0.55M-58.15 4.2L-56.9 4.2L-58.45 7.9L-60 7.9L-58.15 4.2M-58.45 15.2L-60 15.2L-58.2 11.5L-56.7 11.5L-58.45 15.2M-56.7 18.85L-58.45 22.55L-60 22.55L-58.25 18.85L-56.75 18.85L-56.7 18.85" />
<path style="fill:#941218;fill-opacity:1" d="M-43.35 0.55L-45.5 -3.15L-42 -3.15L-39.7 0.55L-43.35 0.55M-43.3 7.9L-45.4 4.15L-41.8 4.15L-39.4 7.9L-43.3 7.9M-43.15 15.2L-43.2 15.2L-45.35 11.5L-41.6 11.5L-39.25 15.2L-43.15 15.2M-43.1 22.55L-45.3 18.8L-41.45 18.8L-38.95 22.55L-43.1 22.55" />
<path style="fill:#790C11;fill-opacity:1" d="M-43.35 0.55L-39.7 0.55L-41.8 4.15L-45.4 4.15L-43.35 0.55M-43.3 7.9L-39.4 7.9L-41.6 11.5L-45.35 11.5L-43.3 7.9M-43.15 15.2L-39.25 15.2L-41.45 18.8L-45.3 18.8L-43.15 15.2M-43.1 22.55L-38.95 22.55L-41.2 26.15L-45.2 26.15L-43.1 22.55" />
<path style="fill:#941217;fill-opacity:1" d="M-59.95 0.55L-58.15 4.2L-60.1 4.2L-62.3 0.55L-59.95 0.55M-43.35 0.55L-45.4 4.15L-56.9 4.2L-58.45 0.55L-43.35 0.55" />
<path style="fill:#8C1016;fill-opacity:1" d="M-60.05 7.9L-58.25 11.5L-60.2 11.5L-60.25 11.5L-62.45 7.9L-60.05 7.9M-56.7 11.5L-58.45 7.9L-43.3 7.9L-45.35 11.5L-56.7 11.5" />
<path style="fill:#C3222A;fill-opacity:1" d="M-60 7.9L-60.05 7.9L-62.45 7.9L-60.1 4.2L-58.15 4.2L-60 7.9M-58.45 7.9L-56.9 4.2L-45.4 4.15L-43.3 7.9L-58.45 7.9" />
<path style="fill:#AC181E;fill-opacity:1" d="M-60 22.55L-58.45 22.55L-56.75 26.2L-58.25 26.2L-60 22.55M-56.9 4.2L-58.15 4.2L-59.95 0.55L-58.45 0.55L-56.9 4.2M-60 7.9L-58.45 7.9L-56.7 11.5L-58.2 11.5L-58.25 11.5L-60.05 7.9L-60 7.9M-56.75 18.85L-58.25 18.85L-60 15.2L-58.45 15.2L-56.75 18.85" />
<path style="fill:#AF1F26;fill-opacity:1" d="M-60 15.2L-62.55 15.2L-60.2 11.5L-58.25 11.5L-58.2 11.5L-60 15.2M-58.45 15.2L-56.7 11.5L-45.35 11.5L-43.2 15.2L-58.45 15.2" />
<path style="fill:#961A21;fill-opacity:1" d="M-58.25 18.85L-60 22.55L-62.7 22.55L-60.3 18.85L-58.25 18.85M-45.3 18.8L-43.1 22.55L-58.45 22.55L-56.7 18.85L-45.3 18.8" />
<path style="fill:#7A0E13;fill-opacity:1" d="M-60 15.2L-58.25 18.85L-60.3 18.85L-62.55 15.2L-60 15.2M-56.7 18.85L-56.75 18.85L-58.45 15.2L-43.2 15.2L-43.15 15.2L-45.3 18.8L-56.7 18.85" />
<path style="fill:#680C10;fill-opacity:1" d="M-58.45 22.55L-43.1 22.55L-45.2 26.15L-56.75 26.2L-58.45 22.55M-58.25 26.2L-60.4 26.2L-62.7 22.55L-60 22.55L-58.25 26.2" />
<path style="fill:none;stroke-width:0.7;stroke-linecap:round;stroke-linejoin:round;stroke-miterlimit:3;stroke:#000000;stroke-opacity:0.301961" d="M-39.7 0.55L-42 -3.15L-45.5 -3.15" />
<path style="fill:none;stroke-width:0.7;stroke-linecap:round;stroke-linejoin:round;stroke-miterlimit:3;stroke:#000000;stroke-opacity:0.301961" d="M-39.7 0.55L-41.8 4.15L-39.4 7.9L-41.6 11.5L-39.25 15.2L-41.45 18.8L-38.95 22.55L-41.2 26.15L-45.2 26.15L-56.75 26.2L-58.25 26.2L-60.4 26.2L-62.7 22.55L-60.3 18.85L-62.55 15.2L-60.2 11.5L-60.25 11.5L-62.45 7.9L-60.1 4.2L-62.3 0.55L-60 -3.15L-58.25 -3.15L-56.95 -3.15L-45.5 -3.15" />
<path style="fill:none;stroke-width:0.7;stroke-linecap:round;stroke-linejoin:round;stroke-miterlimit:3;stroke:#000000;stroke-opacity:0.301961" d="M-45.4 4.15L-41.8 4.15" />
<path style="fill:none;stroke-width:0.7;stroke-linecap:round;stroke-linejoin:round;stroke-miterlimit:3;stroke:#000000;stroke-opacity:0.301961" d="M-45.35 11.5L-41.6 11.5" />
<path style="fill:none;stroke-width:0.7;stroke-linecap:round;stroke-linejoin:round;stroke-miterlimit:3;stroke:#000000;stroke-opacity:0.301961" d="M-45.4 4.15L-56.9 4.2" />
<path style="fill:none;stroke-width:0.7;stroke-linecap:round;stroke-linejoin:round;stroke-miterlimit:3;stroke:#000000;stroke-opacity:0.301961" d="M-60.1 4.2L-58.15 4.2" />
<path style="fill:none;stroke-width:0.7;stroke-linecap:round;stroke-linejoin:round;stroke-miterlimit:3;stroke:#000000;stroke-opacity:0.301961" d="M-60.2 11.5L-58.25 11.5" />
<path style="fill:none;stroke-width:0.7;stroke-linecap:round;stroke-linejoin:round;stroke-miterlimit:3;stroke:#000000;stroke-opacity:0.301961" d="M-56.7 11.5L-45.35 11.5" />
<path style="fill:none;stroke-width:0.7;stroke-linecap:round;stroke-linejoin:round;stroke-miterlimit:3;stroke:#000000;stroke-opacity:0.301961" d="M-56.7 18.85L-56.75 18.85" />
<path style="fill:none;stroke-width:0.7;stroke-linecap:round;stroke-linejoin:round;stroke-miterlimit:3;stroke:#000000;stroke-opacity:0.301961" d="M-60.3 18.85L-58.25 18.85" />
<path style="fill:none;stroke-width:0.7;stroke-linecap:round;stroke-linejoin:round;stroke-miterlimit:3;stroke:#000000;stroke-opacity:0.301961" d="M-45.3 18.8L-41.45 18.8" />
<path style="fill:none;stroke-width:0.7;stroke-linecap:round;stroke-linejoin:round;stroke-miterlimit:3;stroke:#000000;stroke-opacity:0.301961" d="M-45.3 18.8L-56.7 18.85" />
</g>
<g id="PathID_235" transform="matrix(1, 0, 0, 1, 113.35, 29.45)">
<path style="fill:#FAC733;fill-opacity:1" d="M-0.8 2.55L-1 2.25L-1.25 1.9L-1.5 0.55Q-1.5 -0.5 -1 -1.2Q-0.5 -1.9 0.15 -1.9Q0.85 -1.9 1.3 -1.2Q1.85 -0.5 1.85 0.55Q1.85 1.55 1.3 2.25L1.15 2.55L-0.8 2.55M0.95 -0.8Q0.6 -1.3 0.15 -1.3Q-0.3 -1.3 -0.65 -0.8L-1 0.55Q-1 1.3 -0.65 1.8L0.15 2.35L0.95 1.8L1.15 1.35L1.25 0.55L1 -0.6L0.95 -0.8" />
<path style="fill:#C88A1F;fill-opacity:1" d="M-0.8 2.55L1.15 2.55L1 2.65Q2.35 3.1 3.55 4.9L2.2 4.9Q0.2 1.9 -2.2 4.9L-3.6 4.9Q-2.1 3.05 -0.7 2.65L-0.8 2.55" />
<path style="fill:none;stroke-width:0.7;stroke-linecap:round;stroke-linejoin:round;stroke-miterlimit:3;stroke:#000000;stroke-opacity:0.301961" d="M1.15 2.55L1.3 2.25Q1.85 1.55 1.85 0.55Q1.85 -0.5 1.3 -1.2Q0.85 -1.9 0.15 -1.9Q-0.5 -1.9 -1 -1.2Q-1.5 -0.5 -1.5 0.55L-1.25 1.9L-1 2.25L-0.8 2.55" />
<path style="fill:none;stroke-width:0.7;stroke-linecap:round;stroke-linejoin:round;stroke-miterlimit:3;stroke:#000000;stroke-opacity:0.301961" d="M1.15 2.55L1 2.65Q2.35 3.1 3.55 4.9L2.2 4.9Q0.2 1.9 -2.2 4.9L-3.6 4.9Q-2.1 3.05 -0.7 2.65L-0.8 2.55" />
<path style="fill:none;stroke-width:0.7;stroke-linecap:round;stroke-linejoin:round;stroke-miterlimit:3;stroke:#000000;stroke-opacity:0.301961" d="M1 -0.6L1.25 0.55L1.15 1.35L0.95 1.8L0.15 2.35L-0.65 1.8Q-1 1.3 -1 0.55L-0.65 -0.8Q-0.3 -1.3 0.15 -1.3Q0.6 -1.3 0.95 -0.8L1 -0.6z" />
</g>
<g id="PathID_236" transform="matrix(1, 0, 0, 1, 113.35, 29.45)">
<radialGradient
id="RadialGradID_74" gradientUnits="userSpaceOnUse" gradientTransform="matrix(0.0280457, 0, 0, 0.0327301, -0.7, 30.1)" spreadMethod ="pad" cx="0" cy="0" r="819.2" fx="0" fy="0" >
<stop  offset="0"  style="stop-color:#FFFDF5;stop-opacity:0.878431" />
<stop  offset="0.14902"  style="stop-color:#FFD202;stop-opacity:0.701961" />
<stop  offset="0.392157"  style="stop-color:#F79331;stop-opacity:0.541176" />
<stop  offset="0.615686"  style="stop-color:#FCC86F;stop-opacity:0.141176" />
<stop  offset="1"  style="stop-color:#FFDD87;stop-opacity:0" />
</radialGradient>
<path style="fill:url(#RadialGradID_74) " d="M16.35 49.3Q9.25 57.15 -0.7 57.15Q-10.7 57.15 -17.8 49.3Q-24.85 41.35 -24.85 30.1Q-24.85 18.9 -17.8 10.95Q-10.7 3.05 -0.7 3.05Q9.25 3.05 16.35 10.95Q23.45 18.9 23.45 30.1Q23.45 41.35 16.35 49.3" />
</g>
<g id="PathID_237" transform="matrix(1, 0, 0, 1, 113.35, 29.45)">
<path style="fill:#C88A1F;fill-opacity:1" d="M0.35 37.3L0.35 33.45L1.05 33.45L1.05 37.3L0.35 37.3M2.05 37.3L2.05 32.35L2.75 32.35L2.75 37.3L2.05 37.3M4.25 37.3L4.25 33.45L4.95 33.45L4.95 37.3L4.25 37.3M-7.15 37.3L-7.15 33.45L-6.45 33.45L-6.45 37.3L-7.15 37.3M-3.35 37.3L-3.35 33.45L-2.65 33.45L-2.65 37.3L-3.35 37.3M-5.35 37.3L-5.35 32.35L-4.65 32.35L-4.65 37.3L-5.35 37.3M-1.5 37.3L-1.5 32.35L-0.8 32.35L-0.8 37.3L-1.5 37.3" />
<path style="fill:#FAC733;fill-opacity:1" d="M1.05 37.3L1.05 42.2L0.35 42.2L0.35 37.3L1.05 37.3M2.75 37.3L2.75 41.1L2.05 41.1L2.05 37.3L2.75 37.3M4.95 37.3L4.95 42.2L4.25 42.2L4.25 37.3L4.95 37.3M-6.45 37.3L-6.45 42.2L-7.15 42.2L-7.15 37.3L-6.45 37.3M-2.65 37.3L-2.65 42.2L-3.35 42.2L-3.35 37.3L-2.65 37.3M-4.65 37.3L-4.65 41.1L-5.35 41.1L-5.35 37.3L-4.65 37.3M-0.8 37.3L-0.8 41.1L-1.5 41.1L-1.5 37.3L-0.8 37.3" />
<path style="fill:none;stroke-width:0.7;stroke-linecap:round;stroke-linejoin:round;stroke-miterlimit:3;stroke:#000000;stroke-opacity:0.301961" d="M0.35 37.3L0.35 33.45L1.05 33.45L1.05 37.3L1.05 42.2L0.35 42.2L0.35 37.3z" />
<path style="fill:none;stroke-width:0.7;stroke-linecap:round;stroke-linejoin:round;stroke-miterlimit:3;stroke:#000000;stroke-opacity:0.301961" d="M2.05 37.3L2.05 32.35L2.75 32.35L2.75 37.3L2.75 41.1L2.05 41.1L2.05 37.3z" />
<path style="fill:none;stroke-width:0.7;stroke-linecap:round;stroke-linejoin:round;stroke-miterlimit:3;stroke:#000000;stroke-opacity:0.301961" d="M4.25 37.3L4.25 33.45L4.95 33.45L4.95 37.3L4.95 42.2L4.25 42.2L4.25 37.3z" />
<path style="fill:none;stroke-width:0.7;stroke-linecap:round;stroke-linejoin:round;stroke-miterlimit:3;stroke:#000000;stroke-opacity:0.301961" d="M-7.15 37.3L-7.15 33.45L-6.45 33.45L-6.45 37.3L-6.45 42.2L-7.15 42.2L-7.15 37.3z" />
<path style="fill:none;stroke-width:0.7;stroke-linecap:round;stroke-linejoin:round;stroke-miterlimit:3;stroke:#000000;stroke-opacity:0.301961" d="M-3.35 37.3L-3.35 33.45L-2.65 33.45L-2.65 37.3L-2.65 42.2L-3.35 42.2L-3.35 37.3z" />
<path style="fill:none;stroke-width:0.7;stroke-linecap:round;stroke-linejoin:round;stroke-miterlimit:3;stroke:#000000;stroke-opacity:0.301961" d="M-5.35 37.3L-5.35 32.35L-4.65 32.35L-4.65 37.3L-4.65 41.1L-5.35 41.1L-5.35 37.3z" />
<path style="fill:none;stroke-width:0.7;stroke-linecap:round;stroke-linejoin:round;stroke-miterlimit:3;stroke:#000000;stroke-opacity:0.301961" d="M-1.5 37.3L-1.5 32.35L-0.8 32.35L-0.8 37.3L-0.8 41.1L-1.5 41.1L-1.5 37.3z" />
</g>
<g id="PathID_238" transform="matrix(1, 0, 0, 1, 113.35, 29.45)">
<path style="fill:#C26721;fill-opacity:1" d="M4 32.15L8.4 32.15L8.4 33.55L4 33.55L4 32.15" />
<path style="fill:#F2932E;fill-opacity:1" d="M4 32.15L4 33.55L-3.85 33.55L-3.85 32.15L4 32.15M-6.25 32.15L-6.25 33.55L-9.55 33.55L-9.55 32.1L-6.25 32.15" />
<path style="fill:#C88A1F;fill-opacity:1" d="M4 32.15L4 30.55L8.45 28.95L8.4 32.15L4 32.15" />
<path style="fill:#FAC733;fill-opacity:1" d="M-6.25 32.15L-9.55 32.1L-9.5 28.7L-6.25 30.55L-6.25 32.15M-3.85 32.15L-3.85 30.55L4 30.55L4 32.15L-3.85 32.15" />
<path style="fill:#F8D337;fill-opacity:1" d="M-3.85 32.15L-3.85 33.55L-6.25 33.55L-6.25 32.15L-3.85 32.15" />
<path style="fill:#FEE83A;fill-opacity:1" d="M-6.25 32.15L-6.25 30.55L-3.85 30.55L-3.85 32.15L-6.25 32.15" />
<path style="fill:none;stroke-width:0.7;stroke-linecap:round;stroke-linejoin:round;stroke-miterlimit:3;stroke:#000000;stroke-opacity:0.301961" d="M4 30.55L8.45 28.95L8.4 32.15L8.4 33.55L4 33.55L-3.85 33.55L-6.25 33.55L-9.55 33.55L-9.55 32.1L-9.5 28.7L-6.25 30.55L-3.85 30.55L4 30.55z" />
</g>
<g id="PathID_239" transform="matrix(1, 0, 0, 1, 113.35, 29.45)">
<path style="fill:#C88A1F;fill-opacity:1" d="M4 5.9L4 4.6L8.4 4.6L8.4 5.9L4 5.9" />
<path style="fill:#C26721;fill-opacity:1" d="M4 5.9L8.4 5.9L8.4 9L4 7L4 5.9" />
<path style="fill:#F2932E;fill-opacity:1" d="M-3.85 5.9L4 5.9L4 7L-3.85 7L-3.85 5.9M-6.25 7L-9.7 9.3L-9.55 5.9L-6.25 5.9L-6.25 7" />
<path style="fill:#FAC733;fill-opacity:1" d="M-9.55 5.9L-9.55 4.6L-6.25 4.6L-6.25 5.9L-9.55 5.9M-3.85 5.9L-3.85 4.6L4 4.6L4 5.9L-3.85 5.9" />
<path style="fill:#FEE83A;fill-opacity:1" d="M-6.25 5.9L-6.25 4.6L-3.85 4.6L-3.85 5.9L-6.25 5.9" />
<path style="fill:#F8D337;fill-opacity:1" d="M-6.25 5.9L-3.85 5.9L-3.85 7L-6.25 7L-6.25 5.9" />
<path style="fill:none;stroke-width:0.7;stroke-linecap:round;stroke-linejoin:round;stroke-miterlimit:3;stroke:#000000;stroke-opacity:0.301961" d="M4 4.6L8.4 4.6L8.4 5.9L8.4 9L4 7L-3.85 7L-6.25 7L-9.7 9.3L-9.55 5.9L-9.55 4.6L-6.25 4.6L-3.85 4.6L4 4.6z" />
</g>
<g id="PathID_240" transform="matrix(1, 0, 0, 1, 113.35, 29.45)">
<path style="fill:#A11C22;fill-opacity:1" d="M6.9 30.55Q9 25.55 9.6 21.2Q12.25 16.7 10.85 9.45Q18.9 18.1 11.35 28.85Q9.25 29.9 6.9 30.55M14.25 27.1Q19.3 16.7 12.1 9.25L13.3 9.95Q19 13.65 19 18.85Q19 23.6 14.25 27.1M1.9 31.35L3.4 26.45Q6.05 25.25 7.8 23.5Q6.95 27.1 4.9 31L1.9 31.35M-2.5 28.1L1.7 27.05L0.3 31.4L-1.4 31.4L-2.5 28.1M-6.95 28.6L-6.4 28.55L-4.1 28.35L-2.95 31.35L-5.35 31.05L-6.95 28.6M-11.95 28.7L-8.8 28.7L-8.7 28.7L-7.7 30.6L-11.25 29.4L-11.95 28.7" />
<path style="fill:#5D0814;fill-opacity:1" d="M12.1 9.25Q19.3 16.7 14.25 27.1L12.95 27.95L11.35 28.85Q18.9 18.1 10.85 9.45L10.65 8.5L12.1 9.25M4.9 31Q6.95 27.1 7.8 23.5L9.6 21.2Q9 25.55 6.9 30.55L4.9 31M1.7 27.05L3.4 26.45L1.9 31.35L0.3 31.4L1.7 27.05M-4.1 28.35L-2.5 28.1L-1.4 31.4L-2.95 31.35L-4.1 28.35M-8.7 28.7L-6.95 28.55L-6.95 28.6L-5.35 31.05L-7.7 30.6L-8.7 28.7M-11.95 28.7L-11.25 29.4L-12.75 28.65L-11.95 28.7" />
<path style="fill:#850B1D;fill-opacity:1" d="M9.3 7.95L10.65 8.5L10.85 9.45L9.3 7.95M9.6 21.2L7.8 23.5Q8.5 20.65 8.4 17.95Q8.25 11.8 4.05 6.6L6.1 7.05Q10.7 12.9 9.6 21.2M1.7 27.05Q4.2 17.2 0.75 6.3L2.25 6.4Q5.55 16.85 3.4 26.45L1.7 27.05M-14.45 10.05L-13.15 9.3L-10.9 8.15Q-20.8 19.4 -11.95 28.7L-12.75 28.65L-14.55 27.6Q-20.4 19.25 -14.45 10.05M-9.6 18.95Q-9.6 23.8 -6.95 28.55L-8.7 28.7Q-14.4 17.15 -6.9 6.95L-5.15 6.65Q-9.55 12.75 -9.6 18.95M-4.1 28.35Q-5.4 24.25 -5.45 19.65Q-5.5 13.4 -3.2 6.4L-1.65 6.3Q-4 12.35 -3.95 18.65Q-3.9 23.35 -2.5 28.1L-4.1 28.35" />
<path style="fill:#C5232B;fill-opacity:1" d="M6.1 7.05Q7.5 7.35 9.3 7.95L10.85 9.45Q12.25 16.7 9.6 21.2Q10.7 12.9 6.1 7.05M3.4 26.45Q5.55 16.85 2.25 6.4L4.05 6.6Q8.25 11.8 8.4 17.95Q8.5 20.65 7.8 23.5Q6.05 25.25 3.4 26.45M-14.55 27.6Q-20.05 23.95 -20.05 18.85Q-20.05 13.7 -14.45 10.05Q-20.4 19.25 -14.55 27.6M-8.7 28.7L-8.8 28.7L-11.95 28.7Q-20.8 19.4 -10.9 8.15Q-9 7.4 -6.9 6.95Q-14.4 17.15 -8.7 28.7M-6.95 28.55Q-9.6 23.8 -9.6 18.95Q-9.55 12.75 -5.15 6.65L-3.2 6.4Q-5.5 13.4 -5.45 19.65Q-5.4 24.25 -4.1 28.35L-6.4 28.55L-6.95 28.6L-6.95 28.55M-2.5 28.1Q-3.9 23.35 -3.95 18.65Q-4 12.35 -1.65 6.3L0.75 6.3Q4.2 17.2 1.7 27.05L-2.5 28.1" />
<path style="fill:none;stroke-width:0.7;stroke-linecap:round;stroke-linejoin:round;stroke-miterlimit:3;stroke:#000000;stroke-opacity:0.301961" d="M11.35 28.85L12.95 27.95L14.25 27.1" />
<path style="fill:none;stroke-width:0.7;stroke-linecap:round;stroke-linejoin:round;stroke-miterlimit:3;stroke:#000000;stroke-opacity:0.301961" d="M12.1 9.25L10.65 8.5L9.3 7.95" />
<path style="fill:none;stroke-width:0.7;stroke-linecap:round;stroke-linejoin:round;stroke-miterlimit:3;stroke:#000000;stroke-opacity:0.301961" d="M6.9 30.55Q9.25 29.9 11.35 28.85" />
<path style="fill:none;stroke-width:0.7;stroke-linecap:round;stroke-linejoin:round;stroke-miterlimit:3;stroke:#000000;stroke-opacity:0.301961" d="M12.1 9.25L13.3 9.95Q19 13.65 19 18.85Q19 23.6 14.25 27.1" />
<path style="fill:none;stroke-width:0.7;stroke-linecap:round;stroke-linejoin:round;stroke-miterlimit:3;stroke:#000000;stroke-opacity:0.301961" d="M4.05 6.6L6.1 7.05Q7.5 7.35 9.3 7.95" />
<path style="fill:none;stroke-width:0.7;stroke-linecap:round;stroke-linejoin:round;stroke-miterlimit:3;stroke:#000000;stroke-opacity:0.301961" d="M2.25 6.4L4.05 6.6" />
<path style="fill:none;stroke-width:0.7;stroke-linecap:round;stroke-linejoin:round;stroke-miterlimit:3;stroke:#000000;stroke-opacity:0.301961" d="M0.75 6.3L2.25 6.4" />
<path style="fill:none;stroke-width:0.7;stroke-linecap:round;stroke-linejoin:round;stroke-miterlimit:3;stroke:#000000;stroke-opacity:0.301961" d="M4.9 31L6.9 30.55" />
<path style="fill:none;stroke-width:0.7;stroke-linecap:round;stroke-linejoin:round;stroke-miterlimit:3;stroke:#000000;stroke-opacity:0.301961" d="M1.9 31.35L0.3 31.4L-1.4 31.4L-2.95 31.35L-5.35 31.05L-7.7 30.6L-11.25 29.4L-12.75 28.65L-14.55 27.6Q-20.05 23.95 -20.05 18.85Q-20.05 13.7 -14.45 10.05L-13.15 9.3L-10.9 8.15Q-9 7.4 -6.9 6.95L-5.15 6.65L-3.2 6.4L-1.65 6.3L0.75 6.3" />
<path style="fill:none;stroke-width:0.7;stroke-linecap:round;stroke-linejoin:round;stroke-miterlimit:3;stroke:#000000;stroke-opacity:0.301961" d="M1.9 31.35L4.9 31" />
</g>
<g id="PathID_241" transform="matrix(1, 0, 0, 1, 113.35, 29.45)">
<path style="fill:#FAC733;fill-opacity:1" d="M-89.3 -24.6L-89.5 -24.9L-89.7 -25.2L-89.95 -26.6Q-89.95 -27.65 -89.5 -28.35Q-89 -29.05 -88.3 -29.05Q-87.65 -29.05 -87.2 -28.35Q-86.65 -27.65 -86.65 -26.6Q-86.65 -25.55 -87.2 -24.9L-87.35 -24.6L-89.3 -24.6M-88.3 -28.45Q-88.8 -28.45 -89.1 -27.9Q-89.45 -27.35 -89.45 -26.6Q-89.45 -25.8 -89.1 -25.3Q-88.8 -24.75 -88.3 -24.75Q-87.9 -24.75 -87.55 -25.3L-87.3 -25.8L-87.2 -26.6Q-87.2 -27.25 -87.45 -27.7L-87.55 -27.9Q-87.9 -28.45 -88.3 -28.45" />
<path style="fill:#C88A1F;fill-opacity:1" d="M-89.3 -24.6L-87.35 -24.6L-87.45 -24.45Q-86.1 -24.05 -84.9 -22.25L-86.3 -22.25Q-88.25 -25.2 -90.7 -22.25L-92.05 -22.25Q-90.55 -24.1 -89.15 -24.45L-89.3 -24.6" />
<path style="fill:none;stroke-width:0.7;stroke-linecap:round;stroke-linejoin:round;stroke-miterlimit:3;stroke:#000000;stroke-opacity:0.301961" d="M-87.35 -24.6L-87.2 -24.9Q-86.65 -25.55 -86.65 -26.6Q-86.65 -27.65 -87.2 -28.35Q-87.65 -29.05 -88.3 -29.05Q-89 -29.05 -89.5 -28.35Q-89.95 -27.65 -89.95 -26.6L-89.7 -25.2L-89.5 -24.9L-89.3 -24.6" />
<path style="fill:none;stroke-width:0.7;stroke-linecap:round;stroke-linejoin:round;stroke-miterlimit:3;stroke:#000000;stroke-opacity:0.301961" d="M-87.35 -24.6L-87.45 -24.45Q-86.1 -24.05 -84.9 -22.25L-86.3 -22.25Q-88.25 -25.2 -90.7 -22.25L-92.05 -22.25Q-90.55 -24.1 -89.15 -24.45L-89.3 -24.6" />
<path style="fill:none;stroke-width:0.7;stroke-linecap:round;stroke-linejoin:round;stroke-miterlimit:3;stroke:#000000;stroke-opacity:0.301961" d="M-87.55 -27.9L-87.45 -27.7Q-87.2 -27.25 -87.2 -26.6L-87.3 -25.8L-87.55 -25.3Q-87.9 -24.75 -88.3 -24.75Q-88.8 -24.75 -89.1 -25.3Q-89.45 -25.8 -89.45 -26.6Q-89.45 -27.35 -89.1 -27.9Q-88.8 -28.45 -88.3 -28.45Q-87.9 -28.45 -87.55 -27.9z" />
</g>
<g id="PathID_242" transform="matrix(1, 0, 0, 1, 113.35, 29.45)">
<radialGradient
id="RadialGradID_75" gradientUnits="userSpaceOnUse" gradientTransform="matrix(0.0280457, 0, 0, 0.0327148, -89.15, 2.95)" spreadMethod ="pad" cx="0" cy="0" r="819.2" fx="0" fy="0" >
<stop  offset="0"  style="stop-color:#FFFDF5;stop-opacity:0.878431" />
<stop  offset="0.14902"  style="stop-color:#FFD202;stop-opacity:0.701961" />
<stop  offset="0.392157"  style="stop-color:#F79331;stop-opacity:0.541176" />
<stop  offset="0.615686"  style="stop-color:#FCC86F;stop-opacity:0.141176" />
<stop  offset="1"  style="stop-color:#FFDD87;stop-opacity:0" />
</radialGradient>
<path style="fill:url(#RadialGradID_75) " d="M-89.15 -24.1Q-79.2 -24.1 -72.1 -16.2Q-65.05 -8.2 -65.05 2.95Q-65.05 14.2 -72.1 22.15Q-79.2 30 -89.15 30Q-99.15 30 -106.25 22.15Q-113.35 14.2 -113.35 2.95Q-113.35 -8.2 -106.25 -16.2Q-99.15 -24.1 -89.15 -24.1" />
</g>
<g id="PathID_243" transform="matrix(1, 0, 0, 1, 113.35, 29.45)">
<path style="fill:#C88A1F;fill-opacity:1" d="M-89.95 10.2L-89.95 5.2L-89.25 5.2L-89.25 10.2L-89.95 10.2M-88.15 10.2L-88.15 6.35L-87.45 6.35L-87.45 10.2L-88.15 10.2M-84.2 10.2L-84.2 6.35L-83.5 6.35L-83.5 10.2L-84.2 10.2M-86.4 10.2L-86.4 5.2L-85.7 5.2L-85.7 10.2L-86.4 10.2M-93.85 10.2L-93.85 5.2L-93.15 5.2L-93.15 10.2L-93.85 10.2M-91.8 10.2L-91.8 6.35L-91.15 6.35L-91.15 10.2L-91.8 10.2M-95.6 10.2L-95.6 6.35L-94.95 6.35L-94.95 10.2L-95.6 10.2" />
<path style="fill:#FAC733;fill-opacity:1" d="M-89.25 10.2L-89.25 13.95L-89.95 13.95L-89.95 10.2L-89.25 10.2M-87.45 10.2L-87.45 15.05L-88.15 15.05L-88.15 10.2L-87.45 10.2M-83.5 10.2L-83.5 15.05L-84.2 15.05L-84.2 10.2L-83.5 10.2M-85.7 10.2L-85.7 13.95L-86.4 13.95L-86.4 10.2L-85.7 10.2M-93.15 10.2L-93.15 13.95L-93.85 13.95L-93.85 10.2L-93.15 10.2M-91.15 10.2L-91.15 15.05L-91.8 15.05L-91.8 10.2L-91.15 10.2M-94.95 10.2L-94.95 15.05L-95.6 15.05L-95.6 10.2L-94.95 10.2" />
<path style="fill:none;stroke-width:0.7;stroke-linecap:round;stroke-linejoin:round;stroke-miterlimit:3;stroke:#000000;stroke-opacity:0.301961" d="M-89.95 10.2L-89.95 5.2L-89.25 5.2L-89.25 10.2L-89.25 13.95L-89.95 13.95L-89.95 10.2z" />
<path style="fill:none;stroke-width:0.7;stroke-linecap:round;stroke-linejoin:round;stroke-miterlimit:3;stroke:#000000;stroke-opacity:0.301961" d="M-88.15 10.2L-88.15 6.35L-87.45 6.35L-87.45 10.2L-87.45 15.05L-88.15 15.05L-88.15 10.2z" />
<path style="fill:none;stroke-width:0.7;stroke-linecap:round;stroke-linejoin:round;stroke-miterlimit:3;stroke:#000000;stroke-opacity:0.301961" d="M-84.2 10.2L-84.2 6.35L-83.5 6.35L-83.5 10.2L-83.5 15.05L-84.2 15.05L-84.2 10.2z" />
<path style="fill:none;stroke-width:0.7;stroke-linecap:round;stroke-linejoin:round;stroke-miterlimit:3;stroke:#000000;stroke-opacity:0.301961" d="M-86.4 10.2L-86.4 5.2L-85.7 5.2L-85.7 10.2L-85.7 13.95L-86.4 13.95L-86.4 10.2z" />
<path style="fill:none;stroke-width:0.7;stroke-linecap:round;stroke-linejoin:round;stroke-miterlimit:3;stroke:#000000;stroke-opacity:0.301961" d="M-93.85 10.2L-93.85 5.2L-93.15 5.2L-93.15 10.2L-93.15 13.95L-93.85 13.95L-93.85 10.2z" />
<path style="fill:none;stroke-width:0.7;stroke-linecap:round;stroke-linejoin:round;stroke-miterlimit:3;stroke:#000000;stroke-opacity:0.301961" d="M-91.8 10.2L-91.8 6.35L-91.15 6.35L-91.15 10.2L-91.15 15.05L-91.8 15.05L-91.8 10.2z" />
<path style="fill:none;stroke-width:0.7;stroke-linecap:round;stroke-linejoin:round;stroke-miterlimit:3;stroke:#000000;stroke-opacity:0.301961" d="M-95.6 10.2L-95.6 6.35L-94.95 6.35L-94.95 10.2L-94.95 15.05L-95.6 15.05L-95.6 10.2z" />
</g>
<g id="PathID_244" transform="matrix(1, 0, 0, 1, 113.35, 29.45)">
<path style="fill:#C26721;fill-opacity:1" d="M-84.5 5.05L-80.05 5.05L-80.05 6.4L-84.5 6.4L-84.5 5.05" />
<path style="fill:#C88A1F;fill-opacity:1" d="M-84.5 5.05L-84.5 3.4L-80 1.8L-80.05 5.05L-84.5 5.05" />
<path style="fill:#F2932E;fill-opacity:1" d="M-92.35 5L-84.5 5.05L-84.5 6.4L-92.35 6.4L-92.35 5M-94.75 6.4L-98.05 6.4L-98 5L-94.75 5L-94.75 6.4" />
<path style="fill:#FAC733;fill-opacity:1" d="M-98 5L-98 1.55L-94.75 3.4L-94.75 5L-98 5M-92.35 5L-92.35 3.4L-84.5 3.4L-84.5 5.05L-92.35 5" />
<path style="fill:#FEE83A;fill-opacity:1" d="M-94.75 5L-94.75 3.4L-92.35 3.4L-92.35 5L-94.75 5" />
<path style="fill:#F8D337;fill-opacity:1" d="M-94.75 5L-92.35 5L-92.35 6.4L-94.75 6.4L-94.75 5" />
<path style="fill:none;stroke-width:0.7;stroke-linecap:round;stroke-linejoin:round;stroke-miterlimit:3;stroke:#000000;stroke-opacity:0.301961" d="M-84.5 3.4L-80 1.8L-80.05 5.05L-80.05 6.4L-84.5 6.4L-92.35 6.4L-94.75 6.4L-98.05 6.4L-98 5L-98 1.55L-94.75 3.4L-92.35 3.4L-84.5 3.4z" />
</g>
<g id="PathID_245" transform="matrix(1, 0, 0, 1, 113.35, 29.45)">
<path style="fill:#C26721;fill-opacity:1" d="M-80.1 -18.15L-84.5 -20.1L-84.5 -21.25L-80.05 -21.25L-80.1 -18.15" />
<path style="fill:#F2932E;fill-opacity:1" d="M-92.35 -20.1L-92.35 -21.25L-84.5 -21.25L-84.5 -20.1L-92.35 -20.1M-94.75 -21.25L-94.75 -20.1L-98.15 -17.85L-98 -21.25L-94.75 -21.25" />
<path style="fill:#FAC733;fill-opacity:1" d="M-92.35 -21.25L-92.35 -22.5L-84.5 -22.5L-84.5 -21.25L-92.35 -21.25M-98 -21.25L-98.05 -22.5L-94.75 -22.5L-94.75 -21.25L-98 -21.25" />
<path style="fill:#C88A1F;fill-opacity:1" d="M-80.05 -22.5L-80.05 -21.25L-84.5 -21.25L-84.5 -22.5L-80.05 -22.5" />
<path style="fill:#FEE83A;fill-opacity:1" d="M-94.75 -21.25L-94.75 -22.5L-92.35 -22.5L-92.35 -21.25L-94.75 -21.25" />
<path style="fill:#F8D337;fill-opacity:1" d="M-94.75 -21.25L-92.35 -21.25L-92.35 -20.1L-94.75 -20.1L-94.75 -21.25" />
<path style="fill:none;stroke-width:0.7;stroke-linecap:round;stroke-linejoin:round;stroke-miterlimit:3;stroke:#000000;stroke-opacity:0.301961" d="M-84.5 -22.5L-92.35 -22.5" />
<path style="fill:none;stroke-width:0.7;stroke-linecap:round;stroke-linejoin:round;stroke-miterlimit:3;stroke:#000000;stroke-opacity:0.301961" d="M-80.05 -21.25L-80.05 -22.5L-84.5 -22.5" />
<path style="fill:none;stroke-width:0.7;stroke-linecap:round;stroke-linejoin:round;stroke-miterlimit:3;stroke:#000000;stroke-opacity:0.301961" d="M-84.5 -20.1L-80.1 -18.15L-80.05 -21.25" />
<path style="fill:none;stroke-width:0.7;stroke-linecap:round;stroke-linejoin:round;stroke-miterlimit:3;stroke:#000000;stroke-opacity:0.301961" d="M-92.35 -20.1L-84.5 -20.1" />
<path style="fill:none;stroke-width:0.7;stroke-linecap:round;stroke-linejoin:round;stroke-miterlimit:3;stroke:#000000;stroke-opacity:0.301961" d="M-92.35 -20.1L-94.75 -20.1L-98.15 -17.85L-98 -21.25L-98.05 -22.5L-94.75 -22.5L-92.35 -22.5" />
</g>
<g id="PathID_246" transform="matrix(1, 0, 0, 1, 113.35, 29.45)">
<path style="fill:#C5232B;fill-opacity:1" d="M-103.05 0.45Q-108.5 -3.2 -108.5 -8.3Q-108.5 -13.45 -102.9 -17.1Q-108.9 -7.9 -103.05 0.45M-97.2 1.55L-97.3 1.55L-100.45 1.55Q-109.25 -7.75 -99.35 -19L-95.35 -20.2Q-102.9 -9.95 -97.2 1.55M-95.4 1.45Q-98.1 -3.3 -98.05 -8.2Q-98 -14.4 -93.65 -20.5L-91.7 -20.75Q-93.95 -13.75 -93.95 -7.45Q-93.9 -2.9 -92.6 1.25L-94.9 1.45L-95.4 1.5L-95.4 1.45M-91 1Q-92.35 -3.8 -92.4 -8.5Q-92.45 -14.8 -90.15 -20.85L-87.75 -20.85Q-84.3 -9.9 -86.75 -0.05L-91 1M-80.1 -9.15Q-80 -6.5 -80.7 -3.6Q-82.45 -1.9 -85.1 -0.7Q-82.95 -10.3 -86.25 -20.75L-84.45 -20.55Q-80.25 -15.35 -80.1 -9.15M-82.35 -20.1L-79.15 -19.2L-77.65 -17.7Q-76.25 -10.45 -78.9 -5.9Q-77.8 -14.25 -82.35 -20.1" />
<path style="fill:#850B1D;fill-opacity:1" d="M-100.45 1.55L-101.25 1.55L-103.05 0.45Q-108.9 -7.9 -102.9 -17.1L-101.6 -17.85L-99.35 -19Q-109.25 -7.75 -100.45 1.55M-98.05 -8.2Q-98.1 -3.3 -95.4 1.45L-97.2 1.55Q-102.9 -9.95 -95.35 -20.2L-93.65 -20.5Q-98 -14.4 -98.05 -8.2M-92.4 -8.5Q-92.35 -3.8 -91 1L-92.6 1.25Q-93.9 -2.9 -93.95 -7.45Q-93.95 -13.75 -91.7 -20.75L-90.15 -20.85Q-92.45 -14.8 -92.4 -8.5M-85.1 -0.7L-86.75 -0.05Q-84.3 -9.9 -87.75 -20.85L-86.25 -20.75Q-82.95 -10.3 -85.1 -0.7M-78.9 -5.9L-80.7 -3.6Q-80 -6.5 -80.1 -9.15Q-80.25 -15.35 -84.45 -20.55L-82.35 -20.1Q-77.8 -14.25 -78.9 -5.9M-79.15 -19.2L-77.8 -18.65L-77.65 -17.7L-79.15 -19.2" />
<path style="fill:#5D0814;fill-opacity:1" d="M-74.2 -0.05L-75.55 0.8L-77.1 1.75Q-69.6 -9 -77.65 -17.7L-77.8 -18.65L-76.4 -17.9Q-69.2 -10.45 -74.2 -0.05M-80.7 -3.6L-78.9 -5.9Q-79.45 -1.6 -81.55 3.4L-83.6 3.85Q-81.5 -0.05 -80.7 -3.6M-86.75 -0.05L-85.1 -0.7Q-85.65 1.8 -86.6 4.25L-88.2 4.25L-86.75 -0.05M-92.6 1.25L-91 1L-89.9 4.25L-91.45 4.25L-92.6 1.25M-97.2 1.55L-95.4 1.45L-95.4 1.5L-93.85 3.95L-96.15 3.45L-97.2 1.55M-99.7 2.25L-101.25 1.55L-100.45 1.55L-99.7 2.25" />
<path style="fill:#A11C22;fill-opacity:1" d="M-76.4 -17.9L-75.2 -17.15Q-69.45 -13.5 -69.45 -8.3Q-69.45 -3.55 -74.2 -0.05Q-69.2 -10.45 -76.4 -17.9M-78.9 -5.9Q-76.25 -10.45 -77.65 -17.7Q-69.6 -9 -77.1 1.75Q-79.2 2.75 -81.55 3.4Q-79.45 -1.6 -78.9 -5.9M-85.1 -0.7Q-82.45 -1.9 -80.7 -3.6Q-81.5 -0.05 -83.6 3.85L-86.6 4.25Q-85.65 1.8 -85.1 -0.7M-86.75 -0.05L-88.2 4.25L-89.9 4.25L-91 1L-86.75 -0.05M-95.4 1.5L-94.9 1.45L-92.6 1.25L-91.45 4.25L-93.85 3.95L-95.4 1.5M-97.3 1.55L-97.2 1.55L-96.15 3.45L-99.7 2.25L-100.45 1.55L-97.3 1.55" />
<path style="fill:none;stroke-width:0.7;stroke-linecap:round;stroke-linejoin:round;stroke-miterlimit:3;stroke:#000000;stroke-opacity:0.301961" d="M-103.05 0.45Q-108.5 -3.2 -108.5 -8.3Q-108.5 -13.45 -102.9 -17.1L-101.6 -17.85L-99.35 -19L-95.35 -20.2L-93.65 -20.5L-91.7 -20.75L-90.15 -20.85L-87.75 -20.85L-86.25 -20.75L-84.45 -20.55L-82.35 -20.1L-79.15 -19.2L-77.8 -18.65L-76.4 -17.9L-75.2 -17.15Q-69.45 -13.5 -69.45 -8.3Q-69.45 -3.55 -74.2 -0.05L-75.55 0.8L-77.1 1.75Q-79.2 2.75 -81.55 3.4L-83.6 3.85L-86.6 4.25L-88.2 4.25L-89.9 4.25L-91.45 4.25L-93.85 3.95L-96.15 3.45L-99.7 2.25L-101.25 1.55L-103.05 0.45z" />
</g>
<g id="PathID_247" transform="matrix(1, 0, 0, 1, 113.35, 29.45)">
<path style="fill:#FAC733;fill-opacity:1" d="M42.45 -2.45L42.25 -2.7L42.05 -2.95L41.85 -4.1Q41.85 -4.95 42.25 -5.55Q42.65 -6.15 43.25 -6.15Q43.8 -6.15 44.15 -5.55Q44.6 -4.95 44.6 -4.1Q44.6 -3.25 44.15 -2.7L44.05 -2.45L42.45 -2.45M43.25 -5.6Q42.85 -5.6 42.55 -5.15Q42.25 -4.7 42.25 -4.1Q42.25 -3.45 42.55 -3L43.25 -2.6L43.85 -3L44.05 -3.45L44.1 -4.1L43.9 -5.05L43.85 -5.15L43.25 -5.6" />
<path style="fill:#C88A1F;fill-opacity:1" d="M42.45 -2.45L44.05 -2.45L43.9 -2.35Q45 -1.95 46.05 -0.5L44.9 -0.5Q43.25 -2.95 41.25 -0.5L40.1 -0.5Q41.35 -2 42.5 -2.35L42.45 -2.45" />
<path style="fill:none;stroke-width:0.7;stroke-linecap:round;stroke-linejoin:round;stroke-miterlimit:3;stroke:#000000;stroke-opacity:0.301961" d="M44.05 -2.45L44.15 -2.7Q44.6 -3.25 44.6 -4.1Q44.6 -4.95 44.15 -5.55Q43.8 -6.15 43.25 -6.15Q42.65 -6.15 42.25 -5.55Q41.85 -4.95 41.85 -4.1L42.05 -2.95L42.25 -2.7L42.45 -2.45" />
<path style="fill:none;stroke-width:0.7;stroke-linecap:round;stroke-linejoin:round;stroke-miterlimit:3;stroke:#000000;stroke-opacity:0.301961" d="M44.05 -2.45L43.9 -2.35Q45 -1.95 46.05 -0.5L44.9 -0.5Q43.25 -2.95 41.25 -0.5L40.1 -0.5Q41.35 -2 42.5 -2.35L42.45 -2.45" />
<path style="fill:none;stroke-width:0.7;stroke-linecap:round;stroke-linejoin:round;stroke-miterlimit:3;stroke:#000000;stroke-opacity:0.301961" d="M43.85 -5.15L43.9 -5.05L44.1 -4.1L44.05 -3.45L43.85 -3L43.25 -2.6L42.55 -3Q42.25 -3.45 42.25 -4.1Q42.25 -4.7 42.55 -5.15Q42.85 -5.6 43.25 -5.6L43.85 -5.15z" />
</g>
<g id="PathID_248" transform="matrix(1, 0, 0, 1, 113.35, 29.45)">
<radialGradient
id="RadialGradID_76" gradientUnits="userSpaceOnUse" gradientTransform="matrix(0.0231781, 0, 0, 0.0270386, 42.15, 18.65)" spreadMethod ="pad" cx="0" cy="0" r="819.2" fx="0" fy="0" >
<stop  offset="0"  style="stop-color:#FFFDF5;stop-opacity:0.878431" />
<stop  offset="0.14902"  style="stop-color:#FFD202;stop-opacity:0.701961" />
<stop  offset="0.392157"  style="stop-color:#F79331;stop-opacity:0.541176" />
<stop  offset="0.615686"  style="stop-color:#FCC86F;stop-opacity:0.141176" />
<stop  offset="1"  style="stop-color:#FFDD87;stop-opacity:0" />
</radialGradient>
<path style="fill:url(#RadialGradID_76) " d="M42.15 41Q33.9 41 28.05 34.5Q22.15 27.9 22.15 18.65Q22.15 9.35 28.05 2.75Q33.9 -3.75 42.15 -3.75Q50.4 -3.75 56.25 2.75Q62.1 9.35 62.1 18.65Q62.1 27.9 56.25 34.5Q50.4 41 42.15 41" />
</g>
<g id="PathID_249" transform="matrix(1, 0, 0, 1, 113.35, 29.45)">
<path style="fill:#C88A1F;fill-opacity:1" d="M44.05 35.25L44.05 32.05L44.6 32.05L44.6 35.25L44.05 35.25M40.95 35.25L40.95 32.05L41.55 32.05L41.55 35.25L40.95 35.25M42.5 31.1L43.1 31.1L43.1 35.25L42.5 35.25L42.5 31.1M45.4 35.25L45.4 31.1L46 31.1L46 35.25L45.4 35.25M47.3 35.25L47.3 32.05L47.85 32.05L47.85 35.25L47.3 35.25M39.3 35.25L39.3 31.1L39.9 31.1L39.9 35.25L39.3 35.25M37.85 35.25L37.85 32.05L38.4 32.05L38.4 35.25L37.85 35.25" />
<path style="fill:#FAC733;fill-opacity:1" d="M44.6 35.25L44.6 39.25L44.05 39.25L44.05 35.25L44.6 35.25M41.55 35.25L41.55 39.25L40.95 39.25L40.95 35.25L41.55 35.25M43.1 38.35L42.5 38.35L42.5 35.25L43.1 35.25L43.1 38.35M46 35.25L46 38.35L45.4 38.35L45.4 35.25L46 35.25M47.85 35.25L47.85 39.25L47.3 39.25L47.3 35.25L47.85 35.25M39.9 35.25L39.9 38.35L39.3 38.35L39.3 35.25L39.9 35.25M38.4 35.25L38.4 39.25L37.85 39.25L37.85 35.25L38.4 35.25" />
<path style="fill:none;stroke-width:0.7;stroke-linecap:round;stroke-linejoin:round;stroke-miterlimit:3;stroke:#000000;stroke-opacity:0.301961" d="M44.05 35.25L44.05 32.05L44.6 32.05L44.6 35.25L44.6 39.25L44.05 39.25L44.05 35.25z" />
<path style="fill:none;stroke-width:0.7;stroke-linecap:round;stroke-linejoin:round;stroke-miterlimit:3;stroke:#000000;stroke-opacity:0.301961" d="M40.95 35.25L40.95 32.05L41.55 32.05L41.55 35.25L41.55 39.25L40.95 39.25L40.95 35.25z" />
<path style="fill:none;stroke-width:0.7;stroke-linecap:round;stroke-linejoin:round;stroke-miterlimit:3;stroke:#000000;stroke-opacity:0.301961" d="M43.1 35.25L43.1 31.1L42.5 31.1L42.5 35.25L42.5 38.35L43.1 38.35L43.1 35.25z" />
<path style="fill:none;stroke-width:0.7;stroke-linecap:round;stroke-linejoin:round;stroke-miterlimit:3;stroke:#000000;stroke-opacity:0.301961" d="M45.4 35.25L45.4 31.1L46 31.1L46 35.25L46 38.35L45.4 38.35L45.4 35.25z" />
<path style="fill:none;stroke-width:0.7;stroke-linecap:round;stroke-linejoin:round;stroke-miterlimit:3;stroke:#000000;stroke-opacity:0.301961" d="M47.3 35.25L47.3 32.05L47.85 32.05L47.85 35.25L47.85 39.25L47.3 39.25L47.3 35.25z" />
<path style="fill:none;stroke-width:0.7;stroke-linecap:round;stroke-linejoin:round;stroke-miterlimit:3;stroke:#000000;stroke-opacity:0.301961" d="M39.3 35.25L39.3 31.1L39.9 31.1L39.9 35.25L39.9 38.35L39.3 38.35L39.3 35.25z" />
<path style="fill:none;stroke-width:0.7;stroke-linecap:round;stroke-linejoin:round;stroke-miterlimit:3;stroke:#000000;stroke-opacity:0.301961" d="M37.85 35.25L37.85 32.05L38.4 32.05L38.4 35.25L38.4 39.25L37.85 39.25L37.85 35.25z" />
</g>
<g id="PathID_250" transform="matrix(1, 0, 0, 1, 113.35, 29.45)">
<path style="fill:#C26721;fill-opacity:1" d="M46.7 31.45L50.35 31.45L50.35 32.4L46.7 32.4L46.7 31.45" />
<path style="fill:#C88A1F;fill-opacity:1" d="M46.7 31.45L46.7 30.4L50.35 30.4L50.35 31.45L46.7 31.45" />
<path style="fill:#FAC733;fill-opacity:1" d="M38.25 31.45L35.5 31.45L35.45 30.4L38.25 30.4L38.25 31.45M40.2 30.4L46.7 30.4L46.7 31.45L40.2 31.45L40.2 30.4" />
<path style="fill:#F2932E;fill-opacity:1" d="M40.2 31.45L46.7 31.45L46.7 32.4L40.2 32.4L40.2 31.45M38.25 32.4L35.45 32.4L35.5 31.45L38.25 31.45L38.25 32.4" />
<path style="fill:#FEE83A;fill-opacity:1" d="M40.2 31.45L38.25 31.45L38.25 30.4L40.2 30.4L40.2 31.45" />
<path style="fill:#F8D337;fill-opacity:1" d="M38.25 31.45L40.2 31.45L40.2 32.4L38.25 32.4L38.25 31.45" />
<path style="fill:none;stroke-width:0.7;stroke-linecap:round;stroke-linejoin:round;stroke-miterlimit:3;stroke:#000000;stroke-opacity:0.301961" d="M46.7 30.4L50.35 30.4L50.35 31.45L50.35 32.4L46.7 32.4L40.2 32.4L38.25 32.4L35.45 32.4L35.5 31.45L35.45 30.4L38.25 30.4L40.2 30.4L46.7 30.4z" />
</g>
<g id="PathID_251" transform="matrix(1, 0, 0, 1, 113.35, 29.45)">
<path style="fill:#FEE83A;fill-opacity:1" d="M40.2 0.4L38.25 0.4L38.25 -0.65L40.2 -0.65L40.2 0.4" />
<path style="fill:#FAC733;fill-opacity:1" d="M38.25 0.4L35.5 0.4L35.45 -0.65L38.25 -0.65L38.25 0.4M46.7 0.4L40.2 0.4L40.2 -0.65L46.7 -0.65L46.7 0.4" />
<path style="fill:#C88A1F;fill-opacity:1" d="M46.7 -0.65L50.35 -0.65L50.35 0.4L46.7 0.4L46.7 -0.65" />
<path style="fill:#C26721;fill-opacity:1" d="M46.7 0.4L50.35 0.4L50.35 1.35L46.7 1.35L46.7 0.4" />
<path style="fill:#F2932E;fill-opacity:1" d="M46.7 0.4L46.7 1.35L40.2 1.35L40.2 0.4L46.7 0.4M38.25 1.35L35.45 1.35L35.5 0.4L38.25 0.4L38.25 1.35" />
<path style="fill:#F8D337;fill-opacity:1" d="M38.25 0.4L40.2 0.4L40.2 1.35L38.25 1.35L38.25 0.4" />
<path style="fill:none;stroke-width:0.7;stroke-linecap:round;stroke-linejoin:round;stroke-miterlimit:3;stroke:#000000;stroke-opacity:0.301961" d="M35.5 0.4L35.45 -0.65L38.25 -0.65L40.2 -0.65L46.7 -0.65L50.35 -0.65L50.35 0.4L50.35 1.35L46.7 1.35L40.2 1.35L38.25 1.35L35.45 1.35L35.5 0.4z" />
</g>
<g id="PathID_252" transform="matrix(1, 0, 0, 1, 113.35, 29.45)">
<path style="fill:#941218;fill-opacity:1" d="M50.35 4.8L48.2 1.1L51.7 1.1L54.05 4.8L50.35 4.8M50.45 12.15L48.3 8.4L51.9 8.4L54.3 12.15L50.45 12.15M50.55 19.45L48.35 15.75L48.4 15.7L52.1 15.7L54.5 19.45L50.55 19.45M50.6 26.75L48.4 23.05L52.3 23.05L54.75 26.75L50.6 26.75" />
<path style="fill:#790C11;fill-opacity:1" d="M48.3 8.4L50.35 4.8L54.05 4.8L51.9 8.4L48.3 8.4M48.4 15.7L50.45 12.15L54.3 12.15L52.15 15.7L52.1 15.7L48.4 15.7M48.4 23.05L50.55 19.45L54.5 19.45L52.3 23.05L48.4 23.05M50.6 26.75L54.75 26.75L52.5 30.4L48.5 30.4L50.6 26.75" />
<path style="fill:#C3222A;fill-opacity:1" d="M35.55 8.4L33.7 12.15L31.3 12.15L33.6 8.4L35.55 8.4M36.8 8.4L48.3 8.4L50.45 12.15L35.25 12.15L36.8 8.4" />
<path style="fill:#C5232B;fill-opacity:1" d="M36.75 1.1L48.2 1.1L50.35 4.8L35.25 4.8L36.75 1.1M33.8 4.8L33.75 4.8L31.4 4.8L33.7 1.1L35.45 1.1L33.8 4.8" />
<path style="fill:#941217;fill-opacity:1" d="M33.6 8.4L31.4 4.8L33.75 4.8L35.55 8.4L33.6 8.4M36.8 8.4L35.25 4.8L50.35 4.8L48.3 8.4L36.8 8.4" />
<path style="fill:#8F0004;fill-opacity:1" d="M48.4 15.7L48.35 15.75L48.35 15.7L48.4 15.7" />
<path style="fill:#AF1F26;fill-opacity:1" d="M35.45 15.75L35.5 15.75L33.7 19.45L31.15 19.45L33.5 15.75L35.45 15.75M35.25 19.45L37 15.75L48.35 15.7L48.35 15.75L50.55 19.45L35.25 19.45" />
<path style="fill:#8C1016;fill-opacity:1" d="M33.7 12.15L35.45 15.75L33.5 15.75L31.3 12.15L33.7 12.15M35.25 12.15L50.45 12.15L48.4 15.7L48.35 15.7L37 15.75L35.25 12.15" />
<path style="fill:#7A0E13;fill-opacity:1" d="M35.45 23.1L33.45 23.1L31.15 19.45L33.7 19.45L35.45 23.1M37 23.1L35.25 19.45L50.55 19.45L48.4 23.05L37 23.1" />
<path style="fill:#680C10;fill-opacity:1" d="M50.6 26.75L48.5 30.4L37 30.4L35.25 26.75L50.6 26.75M35.45 30.4L33.25 30.4L31.05 26.75L33.7 26.75L35.45 30.4" />
<path style="fill:#961A21;fill-opacity:1" d="M35.45 23.1L33.7 26.75L31.05 26.75L33.45 23.1L35.45 23.1M35.25 26.75L37 23.1L48.4 23.05L50.6 26.75L35.25 26.75" />
<path style="fill:#D72F38;fill-opacity:1" d="M35.25 4.8L33.8 4.8L35.45 1.1L36.75 1.1L35.25 4.8M33.7 19.45L35.5 15.75L37 15.75L35.25 19.45L33.7 19.45M35.55 8.4L36.8 8.4L35.25 12.15L33.7 12.15L35.55 8.4M35.25 26.75L33.7 26.75L35.45 23.1L37 23.1L35.25 26.75" />
<path style="fill:#AC181E;fill-opacity:1" d="M33.7 26.75L35.25 26.75L37 30.4L35.45 30.4L33.7 26.75M35.55 8.4L33.75 4.8L33.8 4.8L35.25 4.8L36.8 8.4L35.55 8.4M35.45 15.75L33.7 12.15L35.25 12.15L37 15.75L35.5 15.75L35.45 15.75M33.7 19.45L35.25 19.45L37 23.1L35.45 23.1L33.7 19.45" />
<path style="fill:none;stroke-width:0.7;stroke-linecap:round;stroke-linejoin:round;stroke-miterlimit:3;stroke:#000000;stroke-opacity:0.301961" d="M54.05 4.8L51.7 1.1L48.2 1.1" />
<path style="fill:none;stroke-width:0.7;stroke-linecap:round;stroke-linejoin:round;stroke-miterlimit:3;stroke:#000000;stroke-opacity:0.301961" d="M54.05 4.8L51.9 8.4L54.3 12.15L52.15 15.7L52.1 15.7L54.5 19.45L52.3 23.05L54.75 26.75L52.5 30.4L48.5 30.4L37 30.4L35.45 30.4L33.25 30.4L31.05 26.75L33.45 23.1L31.15 19.45L33.5 15.75L31.3 12.15L33.6 8.4L31.4 4.8L33.7 1.1L35.45 1.1L36.75 1.1L48.2 1.1" />
<path style="fill:none;stroke-width:0.7;stroke-linecap:round;stroke-linejoin:round;stroke-miterlimit:3;stroke:#000000;stroke-opacity:0.301961" d="M36.8 8.4L48.3 8.4L51.9 8.4" />
<path style="fill:none;stroke-width:0.7;stroke-linecap:round;stroke-linejoin:round;stroke-miterlimit:3;stroke:#000000;stroke-opacity:0.301961" d="M48.4 23.05L52.3 23.05" />
<path style="fill:none;stroke-width:0.7;stroke-linecap:round;stroke-linejoin:round;stroke-miterlimit:3;stroke:#000000;stroke-opacity:0.301961" d="M48.4 15.7L48.35 15.75L48.35 15.7L37 15.75" />
<path style="fill:none;stroke-width:0.7;stroke-linecap:round;stroke-linejoin:round;stroke-miterlimit:3;stroke:#000000;stroke-opacity:0.301961" d="M48.35 15.7L48.4 15.7" />
<path style="fill:none;stroke-width:0.7;stroke-linecap:round;stroke-linejoin:round;stroke-miterlimit:3;stroke:#000000;stroke-opacity:0.301961" d="M37 23.1L48.4 23.05" />
<path style="fill:none;stroke-width:0.7;stroke-linecap:round;stroke-linejoin:round;stroke-miterlimit:3;stroke:#000000;stroke-opacity:0.301961" d="M48.4 15.7L52.1 15.7" />
<path style="fill:none;stroke-width:0.7;stroke-linecap:round;stroke-linejoin:round;stroke-miterlimit:3;stroke:#000000;stroke-opacity:0.301961" d="M35.55 8.4L33.6 8.4" />
<path style="fill:none;stroke-width:0.7;stroke-linecap:round;stroke-linejoin:round;stroke-miterlimit:3;stroke:#000000;stroke-opacity:0.301961" d="M33.45 23.1L35.45 23.1" />
<path style="fill:none;stroke-width:0.7;stroke-linecap:round;stroke-linejoin:round;stroke-miterlimit:3;stroke:#000000;stroke-opacity:0.301961" d="M33.5 15.75L35.45 15.75" />
</g>
<g id="PathID_253" transform="matrix(1, 0, 0, 1, 113.35, 29.45)">
<path style="fill:#FAC733;fill-opacity:1" d="M87.3 -24.6L87.1 -24.9L86.9 -25.2Q86.65 -25.8 86.65 -26.6Q86.65 -27.65 87.1 -28.35Q87.6 -29.05 88.3 -29.05Q88.95 -29.05 89.4 -28.35Q89.95 -27.65 89.95 -26.6Q89.95 -25.55 89.4 -24.9L89.25 -24.6L87.3 -24.6M87.5 -27.9Q87.15 -27.35 87.15 -26.6Q87.15 -25.8 87.5 -25.3Q87.8 -24.75 88.3 -24.75Q88.7 -24.75 89.05 -25.3L89.3 -25.8L89.4 -26.6L89.15 -27.7L89.05 -27.9Q88.7 -28.45 88.3 -28.45Q87.8 -28.45 87.5 -27.9" />
<path style="fill:#C88A1F;fill-opacity:1" d="M87.3 -24.6L89.25 -24.6L89.15 -24.45Q90.5 -24.05 91.7 -22.25L90.3 -22.25Q88.35 -25.2 85.9 -22.25L84.55 -22.25Q86.05 -24.1 87.45 -24.45L87.3 -24.6" />
<path style="fill:none;stroke-width:0.7;stroke-linecap:round;stroke-linejoin:round;stroke-miterlimit:3;stroke:#000000;stroke-opacity:0.301961" d="M89.25 -24.6L89.4 -24.9Q89.95 -25.55 89.95 -26.6Q89.95 -27.65 89.4 -28.35Q88.95 -29.05 88.3 -29.05Q87.6 -29.05 87.1 -28.35Q86.65 -27.65 86.65 -26.6Q86.65 -25.8 86.9 -25.2L87.1 -24.9L87.3 -24.6" />
<path style="fill:none;stroke-width:0.7;stroke-linecap:round;stroke-linejoin:round;stroke-miterlimit:3;stroke:#000000;stroke-opacity:0.301961" d="M89.25 -24.6L89.15 -24.45Q90.5 -24.05 91.7 -22.25L90.3 -22.25Q88.35 -25.2 85.9 -22.25L84.55 -22.25Q86.05 -24.1 87.45 -24.45L87.3 -24.6" />
<path style="fill:none;stroke-width:0.7;stroke-linecap:round;stroke-linejoin:round;stroke-miterlimit:3;stroke:#000000;stroke-opacity:0.301961" d="M88.3 -28.45Q88.7 -28.45 89.05 -27.9L89.15 -27.7L89.4 -26.6L89.3 -25.8L89.05 -25.3Q88.7 -24.75 88.3 -24.75Q87.8 -24.75 87.5 -25.3Q87.15 -25.8 87.15 -26.6Q87.15 -27.35 87.5 -27.9Q87.8 -28.45 88.3 -28.45z" />
</g>
<g id="PathID_254" transform="matrix(1, 0, 0, 1, 113.35, 29.45)">
<radialGradient
id="RadialGradID_77" gradientUnits="userSpaceOnUse" gradientTransform="matrix(0.0280457, 0, 0, 0.0327148, 87.45, 2.95)" spreadMethod ="pad" cx="0" cy="0" r="819.2" fx="0" fy="0" >
<stop  offset="0"  style="stop-color:#FFFDF5;stop-opacity:0.878431" />
<stop  offset="0.14902"  style="stop-color:#FFD202;stop-opacity:0.701961" />
<stop  offset="0.392157"  style="stop-color:#F79331;stop-opacity:0.541176" />
<stop  offset="0.615686"  style="stop-color:#FCC86F;stop-opacity:0.141176" />
<stop  offset="1"  style="stop-color:#FFDD87;stop-opacity:0" />
</radialGradient>
<path style="fill:url(#RadialGradID_77) " d="M104.5 -16.2Q111.55 -8.2 111.55 2.95Q111.55 14.2 104.5 22.15Q97.4 30 87.45 30Q77.45 30 70.35 22.15Q63.25 14.2 63.25 2.95Q63.25 -8.2 70.35 -16.2Q77.45 -24.1 87.45 -24.1Q97.4 -24.1 104.5 -16.2" />
</g>
<g id="PathID_255" transform="matrix(1, 0, 0, 1, 113.35, 29.45)">
<path style="fill:#C88A1F;fill-opacity:1" d="M92.4 10.2L92.4 6.35L93.1 6.35L93.1 10.2L92.4 10.2M90.2 10.2L90.2 5.2L90.9 5.2L90.9 10.2L90.2 10.2M86.65 10.2L86.65 5.2L87.35 5.2L87.35 10.2L86.65 10.2M82.75 10.2L82.75 5.2L83.45 5.2L83.45 10.2L82.75 10.2M84.8 10.2L84.8 6.35L85.45 6.35L85.45 10.2L84.8 10.2M81 10.2L81 6.35L81.65 6.35L81.65 10.2L81 10.2M88.45 10.2L88.45 6.35L89.15 6.35L89.15 10.2L88.45 10.2" />
<path style="fill:#FAC733;fill-opacity:1" d="M93.1 10.2L93.1 15.05L92.4 15.05L92.4 10.2L93.1 10.2M90.9 10.2L90.9 13.95L90.2 13.95L90.2 10.2L90.9 10.2M87.35 10.2L87.35 13.95L86.65 13.95L86.65 10.2L87.35 10.2M83.45 10.2L83.45 13.95L82.75 13.95L82.75 10.2L83.45 10.2M85.45 10.2L85.45 15.05L84.8 15.05L84.8 10.2L85.45 10.2M81.65 10.2L81.65 15.05L81 15.05L81 10.2L81.65 10.2M89.15 10.2L89.15 15.05L88.45 15.05L88.45 10.2L89.15 10.2" />
<path style="fill:none;stroke-width:0.7;stroke-linecap:round;stroke-linejoin:round;stroke-miterlimit:3;stroke:#000000;stroke-opacity:0.301961" d="M92.4 10.2L92.4 6.35L93.1 6.35L93.1 10.2L93.1 15.05L92.4 15.05L92.4 10.2z" />
<path style="fill:none;stroke-width:0.7;stroke-linecap:round;stroke-linejoin:round;stroke-miterlimit:3;stroke:#000000;stroke-opacity:0.301961" d="M90.2 10.2L90.2 5.2L90.9 5.2L90.9 10.2L90.9 13.95L90.2 13.95L90.2 10.2z" />
<path style="fill:none;stroke-width:0.7;stroke-linecap:round;stroke-linejoin:round;stroke-miterlimit:3;stroke:#000000;stroke-opacity:0.301961" d="M86.65 10.2L86.65 5.2L87.35 5.2L87.35 10.2L87.35 13.95L86.65 13.95L86.65 10.2z" />
<path style="fill:none;stroke-width:0.7;stroke-linecap:round;stroke-linejoin:round;stroke-miterlimit:3;stroke:#000000;stroke-opacity:0.301961" d="M82.75 10.2L82.75 5.2L83.45 5.2L83.45 10.2L83.45 13.95L82.75 13.95L82.75 10.2z" />
<path style="fill:none;stroke-width:0.7;stroke-linecap:round;stroke-linejoin:round;stroke-miterlimit:3;stroke:#000000;stroke-opacity:0.301961" d="M84.8 10.2L84.8 6.35L85.45 6.35L85.45 10.2L85.45 15.05L84.8 15.05L84.8 10.2z" />
<path style="fill:none;stroke-width:0.7;stroke-linecap:round;stroke-linejoin:round;stroke-miterlimit:3;stroke:#000000;stroke-opacity:0.301961" d="M81 10.2L81 6.35L81.65 6.35L81.65 10.2L81.65 15.05L81 15.05L81 10.2z" />
<path style="fill:none;stroke-width:0.7;stroke-linecap:round;stroke-linejoin:round;stroke-miterlimit:3;stroke:#000000;stroke-opacity:0.301961" d="M88.45 10.2L88.45 6.35L89.15 6.35L89.15 10.2L89.15 15.05L88.45 15.05L88.45 10.2z" />
</g>
<g id="PathID_256" transform="matrix(1, 0, 0, 1, 113.35, 29.45)">
<path style="fill:#C26721;fill-opacity:1" d="M92.1 5.05L96.55 5.05L96.55 6.4L92.1 6.4L92.1 5.05" />
<path style="fill:#F2932E;fill-opacity:1" d="M84.25 5L92.1 5.05L92.1 6.4L84.25 6.4L84.25 5M81.85 5L81.85 6.4L78.55 6.4L78.6 5L81.85 5" />
<path style="fill:#C88A1F;fill-opacity:1" d="M92.1 5.05L92.1 3.4L96.6 1.8L96.55 5.05L92.1 5.05" />
<path style="fill:#FAC733;fill-opacity:1" d="M78.6 5L78.6 1.55L81.85 3.4L81.85 5L78.6 5M84.25 5L84.25 3.4L92.1 3.4L92.1 5.05L84.25 5" />
<path style="fill:#FEE83A;fill-opacity:1" d="M81.85 5L81.85 3.4L84.25 3.4L84.25 5L81.85 5" />
<path style="fill:#F8D337;fill-opacity:1" d="M81.85 5L84.25 5L84.25 6.4L81.85 6.4L81.85 5" />
<path style="fill:none;stroke-width:0.7;stroke-linecap:round;stroke-linejoin:round;stroke-miterlimit:3;stroke:#000000;stroke-opacity:0.301961" d="M92.1 3.4L96.6 1.8L96.55 5.05L96.55 6.4L92.1 6.4L84.25 6.4L81.85 6.4L78.55 6.4L78.6 5L78.6 1.55L81.85 3.4L84.25 3.4L92.1 3.4z" />
</g>
<g id="PathID_257" transform="matrix(1, 0, 0, 1, 113.35, 29.45)">
<path style="fill:#FAC733;fill-opacity:1" d="M81.85 -21.25L78.6 -21.25L78.55 -22.5L81.85 -22.5L81.85 -21.25M84.25 -21.25L84.25 -22.5L92.1 -22.5L92.1 -21.25L84.25 -21.25" />
<path style="fill:#F2932E;fill-opacity:1" d="M81.85 -21.25L81.85 -20.1L78.45 -17.85L78.6 -21.25L81.85 -21.25M92.1 -21.25L92.1 -20.1L84.25 -20.1L84.25 -21.25L92.1 -21.25" />
<path style="fill:#C88A1F;fill-opacity:1" d="M92.1 -21.25L92.1 -22.5L96.55 -22.5L96.55 -21.25L92.1 -21.25" />
<path style="fill:#C26721;fill-opacity:1" d="M96.55 -21.25L96.5 -18.15L92.1 -20.1L92.1 -21.25L96.55 -21.25" />
<path style="fill:#FEE83A;fill-opacity:1" d="M84.25 -21.25L81.85 -21.25L81.85 -22.5L84.25 -22.5L84.25 -21.25" />
<path style="fill:#F8D337;fill-opacity:1" d="M84.25 -21.25L84.25 -20.1L81.85 -20.1L81.85 -21.25L84.25 -21.25" />
<path style="fill:none;stroke-width:0.7;stroke-linecap:round;stroke-linejoin:round;stroke-miterlimit:3;stroke:#000000;stroke-opacity:0.301961" d="M81.85 -20.1L78.45 -17.85L78.6 -21.25L78.55 -22.5L81.85 -22.5L84.25 -22.5L92.1 -22.5L96.55 -22.5L96.55 -21.25L96.5 -18.15L92.1 -20.1L84.25 -20.1L81.85 -20.1z" />
</g>
<g id="PathID_258" transform="matrix(1, 0, 0, 1, 113.35, 29.45)">
<path style="fill:#850B1D;fill-opacity:1" d="M76.15 1.55L75.35 1.55L73.55 0.45Q67.7 -7.9 73.7 -17.1L75 -17.85L77.25 -19Q67.35 -7.75 76.15 1.55M78.55 -8.2Q78.5 -3.3 81.2 1.45L79.4 1.55Q73.7 -9.95 81.25 -20.2L82.95 -20.5Q78.6 -14.4 78.55 -8.2M84.2 -8.5Q84.25 -3.8 85.6 1L84 1.25Q82.7 -2.9 82.65 -7.45Q82.65 -13.75 84.9 -20.75L86.45 -20.85Q84.15 -14.8 84.2 -8.5M88.85 -20.85L90.35 -20.75Q93.65 -10.3 91.5 -0.7L89.85 -0.05Q92.3 -9.9 88.85 -20.85M97.7 -5.9L95.9 -3.6Q96.6 -6.5 96.5 -9.15Q96.35 -15.35 92.15 -20.55L94.25 -20.1Q98.8 -14.25 97.7 -5.9M97.45 -19.2L98.8 -18.65L98.95 -17.7L97.45 -19.2" />
<path style="fill:#C5232B;fill-opacity:1" d="M73.55 0.45Q68.1 -3.2 68.1 -8.3Q68.1 -13.45 73.7 -17.1Q67.7 -7.9 73.55 0.45M79.4 1.55L79.3 1.55L76.15 1.55Q67.35 -7.75 77.25 -19L81.25 -20.2Q73.7 -9.95 79.4 1.55M81.2 1.45Q78.5 -3.3 78.55 -8.2Q78.6 -14.4 82.95 -20.5L84.9 -20.75Q82.65 -13.75 82.65 -7.45Q82.7 -2.9 84 1.25L81.7 1.45L81.2 1.5L81.2 1.45M85.6 1Q84.25 -3.8 84.2 -8.5Q84.15 -14.8 86.45 -20.85L88.85 -20.85Q92.3 -9.9 89.85 -0.05L85.6 1M90.35 -20.75L92.15 -20.55Q96.35 -15.35 96.5 -9.15Q96.6 -6.5 95.9 -3.6Q94.15 -1.9 91.5 -0.7Q93.65 -10.3 90.35 -20.75M94.25 -20.1L97.45 -19.2L98.95 -17.7Q100.35 -10.45 97.7 -5.9Q98.8 -14.25 94.25 -20.1" />
<path style="fill:#5D0814;fill-opacity:1" d="M102.4 -0.05L101.05 0.8L99.5 1.75Q107 -9 98.95 -17.7L98.8 -18.65L100.2 -17.9Q107.4 -10.45 102.4 -0.05M95.9 -3.6L97.7 -5.9Q97.15 -1.6 95.05 3.4L93 3.85Q95.1 -0.05 95.9 -3.6M89.85 -0.05L91.5 -0.7Q90.95 1.8 90 4.25L88.4 4.25L89.85 -0.05M84 1.25L85.6 1L86.7 4.25L85.15 4.25L84 1.25M79.4 1.55L81.2 1.45L81.2 1.5L82.75 3.95L80.45 3.45L79.4 1.55M76.15 1.55L76.9 2.25L75.35 1.55L76.15 1.55" />
<path style="fill:#A11C22;fill-opacity:1" d="M100.2 -17.9L101.4 -17.15Q107.15 -13.5 107.15 -8.3Q107.15 -3.55 102.4 -0.05Q107.4 -10.45 100.2 -17.9M97.7 -5.9Q100.35 -10.45 98.95 -17.7Q107 -9 99.5 1.75Q97.4 2.75 95.05 3.4Q97.15 -1.6 97.7 -5.9M91.5 -0.7Q94.15 -1.9 95.9 -3.6Q95.1 -0.05 93 3.85L90 4.25Q90.95 1.8 91.5 -0.7M89.85 -0.05L88.4 4.25L86.7 4.25L85.6 1L89.85 -0.05M81.2 1.5L81.7 1.45L84 1.25L85.15 4.25L82.75 3.95L81.2 1.5M76.15 1.55L79.3 1.55L79.4 1.55L80.45 3.45L76.9 2.25L76.15 1.55" />
<path style="fill:none;stroke-width:0.7;stroke-linecap:round;stroke-linejoin:round;stroke-miterlimit:3;stroke:#000000;stroke-opacity:0.301961" d="M73.55 0.45Q68.1 -3.2 68.1 -8.3Q68.1 -13.45 73.7 -17.1L75 -17.85L77.25 -19L81.25 -20.2L82.95 -20.5L84.9 -20.75L86.45 -20.85L88.85 -20.85L90.35 -20.75L92.15 -20.55L94.25 -20.1L97.45 -19.2L98.8 -18.65L100.2 -17.9L101.4 -17.15Q107.15 -13.5 107.15 -8.3Q107.15 -3.55 102.4 -0.05L101.05 0.8L99.5 1.75Q97.4 2.75 95.05 3.4L93 3.85L90 4.25L88.4 4.25L86.7 4.25L85.15 4.25L82.75 3.95L80.45 3.45L76.9 2.25L75.35 1.55L73.55 0.45z" />
</g>
</svg>
