<?xml version="1.0" encoding="utf-8"?>
<svg version="1.1" id="Layer_1"
xmlns="http://www.w3.org/2000/svg"
xmlns:xlink="http://www.w3.org/1999/xlink"
width="11px" height="14px"
xml:space="preserve">
<g id="PathID_1119" transform="matrix(1, 0, 0, 1, -2.8, 68.2)">
<path style="fill:none;stroke-width:1;stroke-linecap:round;stroke-linejoin:round;stroke-miterlimit:3;stroke:#000000;stroke-opacity:0.298039" d="M8.15 -57.8L8.15 -58.65" />
</g>
<g id="PathID_1120" transform="matrix(1, 0, 0, 1, -2.8, 68.2)">
<radialGradient
id="RadialGradID_551" gradientUnits="userSpaceOnUse" gradientTransform="matrix(0.00616455, 0, 0, 0.00793457, 8.15, -61.6)" spreadMethod ="pad" cx="0" cy="0" r="819.2" fx="0" fy="0" >
<stop  offset="0"  style="stop-color:#FFFDF5;stop-opacity:0.878431" />
<stop  offset="0.14902"  style="stop-color:#FFD202;stop-opacity:0.701961" />
<stop  offset="0.392157"  style="stop-color:#F79331;stop-opacity:0.541176" />
<stop  offset="0.615686"  style="stop-color:#FCC86F;stop-opacity:0.141176" />
<stop  offset="1"  style="stop-color:#FFDD87;stop-opacity:0" />
</radialGradient>
<path style="fill:url(#RadialGradID_551) " d="M11.85 -66.25Q13.4 -64.35 13.4 -61.6Q13.4 -58.9 11.85 -56.95Q10.35 -55.05 8.15 -55.05Q5.9 -55.05 4.35 -56.95Q2.8 -58.9 2.8 -61.6Q2.8 -64.35 4.35 -66.25Q5.9 -68.2 8.15 -68.2Q10.35 -68.2 11.85 -66.25" />
</g>
<g id="PathID_1121" transform="matrix(1, 0, 0, 1, -2.8, 68.2)">
<linearGradient
id="LinearGradID_552" gradientUnits="userSpaceOnUse" gradientTransform="matrix(-1.52588e-005, 0.00296021, -0.00408936, -1.52588e-005, 8.05, -61.65)" spreadMethod ="pad" x1="-819.2" y1="0" x2="819.2" y2="0" >
<stop  offset="0" style="stop-color:#F35225;stop-opacity:1" />
<stop  offset="0.988235" style="stop-color:#FFE362;stop-opacity:1" />
</linearGradient>
<path style="fill:url(#LinearGradID_552) " d="M8.9 -61.1Q8.15 -61.85 8.05 -62.75Q7.8 -61.5 8 -60.55Q7.35 -60.7 7.6 -61.85Q6.7 -60.5 8.4 -59.7L8.35 -59.7Q6.35 -60 6.7 -61.5L7.1 -62.75L7.95 -63.85Q9.05 -65.35 8.45 -67.1Q9.75 -64.9 8.75 -63.2L8.8 -62.75L8.95 -62.4L9.55 -61.5Q10.1 -60.65 9.8 -60.25Q9.45 -59.9 8.85 -59.85Q9.4 -60.55 8.9 -61.1" />
<path style="fill:#FFF1B4;fill-opacity:1" d="M8.85 -59.85L8.4 -59.7Q6.7 -60.5 7.6 -61.85Q7.35 -60.7 8 -60.55Q7.8 -61.5 8.05 -62.75Q8.15 -61.85 8.9 -61.1Q9.4 -60.55 8.85 -59.85" />
</g>
</svg>
