<?xml version="1.0" encoding="utf-8"?>
<svg version="1.1" id="Layer_1"
xmlns="http://www.w3.org/2000/svg"
xmlns:xlink="http://www.w3.org/1999/xlink"
width="40px" height="73px"
xml:space="preserve">
<g id="PathID_850" transform="matrix(1, 0, 0, 1, 36.45, 72.05)">
<path style="fill:#E2E1DE;fill-opacity:0.741176" d="M-33.5 -27.85Q-32.3 -26.3 -27.45 -24.4L-31.1 -36.7L-33.4 -45.4L-34.1 -43Q-34.85 -39.85 -35 -37.95Q-35.65 -30.65 -33.5 -27.85M-26.45 -16L-26.4 -14.65L-23.6 -15.3Q-23.15 -15.4 -23.15 -15.75Q-23.15 -17.3 -24.8 -18.25Q-26.45 -19.25 -26.45 -16M-36.45 -17.3L-36.45 -72.05Q-32.55 -41.15 -26.15 -27.7Q-19.8 -14.3 -13.65 -10Q-7.55 -5.7 3.05 0.7Q-3.7 -2.4 -4.7 -2.4Q-7.05 -2.4 -9.45 0.55L-10.4 -2.4Q-8.85 -5.3 -9.65 -5.65Q-10.9 -6.2 -11.35 -5.65L-11.55 -4.95L-16.5 -9.1Q-18.3 -9.95 -18.3 -7.2L-20.05 -2.7Q-22.45 -13.6 -23.3 -13.85Q-24.6 -14.25 -26.65 -12.35L-28.5 -10.35Q-28.4 -15.7 -30.7 -19.65Q-33 -23.65 -35.8 -20.95L-36.45 -17.3M-31.25 -21.75Q-28.95 -20.15 -27.65 -18.05Q-30.4 -22.75 -31.85 -24.5Q-34.5 -27.7 -35.2 -25.7Q-35.55 -24.65 -35.45 -22.7Q-33.95 -23.7 -31.25 -21.75" />
</g>
</svg>
