<?xml version="1.0" encoding="utf-8"?>
<svg version="1.1" id="Layer_1"
xmlns="http://www.w3.org/2000/svg"
xmlns:xlink="http://www.w3.org/1999/xlink"
width="143px" height="212px"
xml:space="preserve">
<g id="PathID_1561" transform="matrix(1, 0, 0, 1, 65.25, 207.25)">
<path style="fill:#F3F7F8;fill-opacity:1" d="M28.1 -178.85L25.3 -179.15Q24.2 -179.4 22 -177.2Q19.75 -175 18.65 -175.85Q17.55 -176.7 16.25 -179.3L14.1 -183.65Q13.25 -184.7 11.45 -185.25L7.8 -185.95Q5.8 -186.25 4.9 -188.05L3.2 -192.4Q1.85 -195.95 -2.5 -194.15L-10.45 -190.6Q-14.05 -188.85 -15.2 -190.85Q-16.4 -192.9 -16.4 -194.65L-16.25 -196.5L-15.8 -199.25Q-14.75 -203.15 -12.1 -203.15Q-10.9 -203.15 -9.5 -200.95Q-8.05 -198.75 -6.95 -198.75L-5.4 -199L-2.45 -199.5Q-0.95 -199.7 0.4 -201.3Q1.75 -202.9 2.55 -204.95Q4.1 -207.45 6.95 -206.4Q9.65 -205.35 9.65 -203.5Q9.65 -204.2 6.6 -193.3Q6.6 -192.85 7.9 -191.8Q9.15 -190.85 8.75 -187.65L8.85 -187.4L9.5 -187.2Q10.3 -187.2 11.2 -187.95L12.45 -188.7Q14 -188.7 16.15 -185.45Q18 -182.65 18.6 -180.35Q20.05 -180.6 20.9 -181.7Q21.5 -182.55 26.25 -182.55Q30.25 -182.55 31.3 -181.2Q31.65 -180.8 31.65 -179.55L31.65 -176.8Q29.8 -178.75 28.1 -178.85M27.95 -157.55Q28.9 -157 29.85 -155.35L31.3 -152.3Q32.75 -148.55 32.75 -146.85L32.75 -146.45L31.8 -147.75L28.75 -152.65L26.7 -154.55L25.45 -155.45L24.35 -155.85L21.3 -156.3L20.7 -156.4Q19.6 -156.7 18.95 -157.05L18.95 -157.1Q18.95 -157.6 20.3 -158.7L20.85 -159.2Q22.8 -160.8 23.8 -160.8Q24.8 -160.8 25.3 -160.05L25.85 -159.15L27.35 -162.8Q28.4 -165.5 30.2 -165.5Q31.35 -165.5 31.7 -165.05L31.95 -164.4L33.45 -167.25Q34.55 -169.1 35.85 -169.35L36.3 -169.4Q37.55 -169.4 37.7 -168.85Q37.85 -168.35 37.95 -168.35L44.55 -169.55Q48.9 -169.95 49.85 -167.8L48.25 -168.25L36.55 -164.6L36 -164.25Q27.95 -159.55 27.95 -158.6L28.2 -157.8L27.95 -157.55M-5.35 -152.8L-5.45 -153.05L-5.45 -153.9L-5.45 -154.25Q-5.35 -156.8 -3.85 -160.15L-3.5 -160.95Q-0.65 -166.95 3.55 -166.7Q6.45 -170.55 10.2 -169.6L12.75 -168.65Q13.9 -167.55 13.9 -166.9Q13.9 -164 10.45 -161.9L10.35 -161.85Q7.05 -159.95 2.65 -159.7Q0.85 -159.6 -0.55 -158.7Q-1.95 -157.8 -2.5 -156.45Q-3.05 -154.3 -3.35 -153.6Q-3.8 -152.45 -5.15 -152.45L-5.2 -152.45L-5.35 -152.8M30.1 -143.45Q30.5 -143.85 31.3 -143.8Q33.05 -143.65 34.5 -141.45Q35.3 -139.8 35.35 -138.8L35.3 -136.9Q33.35 -137.25 32.4 -139.1Q30.8 -142.05 29.8 -143.05L30.1 -143.45M38.95 -136.1Q39.55 -138.2 43.5 -135.25Q48.15 -131.8 48.15 -128.25Q48.15 -127.65 47.65 -127.4Q46.45 -127.8 45.85 -129.35L44.35 -133.2Q43.8 -133.85 40.6 -134.85Q39.35 -135.25 38.95 -136.1M46.05 -119.15Q46.05 -117.5 44.2 -116.25L40.55 -113.6L39.9 -112.9L37.4 -110.4Q34.55 -107.7 33.65 -107.7L33.4 -107.7L33.1 -108.25L33 -109.95Q33 -111.65 34.85 -114.7L35.35 -115.5Q38 -119.55 40.4 -119.55L41.15 -119.25L41.4 -118.8Q43.15 -120.25 45.7 -120.2Q46.05 -119.8 46.05 -119.15M49.7 -124.8Q49.6 -125.5 49.65 -126.15Q49.65 -128.2 49.95 -128.9Q50.8 -130.9 54.05 -131.1Q56 -132.85 57.7 -133.8Q60.8 -135.5 62.95 -134.45Q65.2 -133.3 65.4 -130.55Q64.55 -129.6 63.75 -129.6Q60.15 -129.6 57.55 -128.7Q55.8 -128.1 54.5 -127.1L52.5 -125.4Q51.6 -124.65 50.8 -124.65L49.7 -124.8M56.1 -110.65L57.35 -109.85L57.6 -109.7L61.5 -105.8L62.3 -102.85L63.2 -99.15Q63.2 -98.65 62.85 -98.4Q61.4 -99.2 60.65 -100.75L60.15 -101.9L59.2 -104.5L56.85 -107.05Q55.95 -108.1 55.95 -110.35L55.95 -110.7L56.1 -110.65M64.45 -116.85Q66.2 -117.05 66.6 -114.75L68.15 -115.35L70.1 -115.85Q71.5 -115.85 72.3 -114.4Q73.05 -113 72.6 -111.65Q74.3 -111.15 75.75 -109.95L71.25 -112.7L70.8 -113.05L66.85 -114.25Q64.3 -114.95 63.2 -116.1L63 -116.1Q63.4 -116.75 64.45 -116.85M75.75 -109.95L76.55 -109.2Q75.4 -109.7 74.15 -110.55L72.6 -111.65M8.4 -54.95Q6.9 -52.8 5.45 -52.8Q5.1 -52.8 3.4 -53.9L2.7 -54.35L3 -58L3.85 -58.1Q4.75 -58.1 4.95 -56.4Q5.15 -54.75 6 -54.75L7.2 -55.55L8.25 -56.5L8.7 -56.15L8.8 -55.55L8.8 -55.5L8.4 -54.95M-3.95 -2.7L-3.9 -2.7Q-3.25 -1.95 -2.7 -1.95Q-1.15 -1.95 0.3 -2.7Q1.8 -3.5 2.7 -3.5L4.65 -3.15L6 -2.55L6.3 -2.55L7.1 -2.6L9.5 -2.1L10.65 -2.1Q9.55 -3.15 7.15 -6.95Q4.4 -11.3 4.2 -13.05Q4.45 -13.35 4.95 -13.35Q5.4 -13.35 8 -10.15Q10.8 -6.7 12.95 -5.9L21 -3.25L28.9 -0.6L22.65 0L11.95 -0.65L9 1.4L6.8 2.8Q5.2 3.55 3.6 3.65L-0.75 3.85L-1.15 3.85L-3.35 3.65Q-4.9 3.3 -6.65 2.4L-7.1 1.9L-8.4 0.2Q-9.45 -1.2 -11.75 -1.5Q-14.05 -1.8 -16.5 -0.35Q-19 1.05 -22.35 0.95Q-25.75 0.8 -27.85 0.95L-28.9 0.95L-31.6 0.65L-26.55 -1.75Q-21.15 -4.25 -20.6 -4.8Q-19.35 -6.05 -15.05 -6.65Q-11 -7.2 -9.6 -9.3L-7 -15.75L-6.8 -16.2L-6.65 -16.5L-6.75 -14.85L-7.2 -10.8L-7.6 -6.1Q-7.5 -5.45 -6.15 -4.15Q-4.85 -2.95 -3.95 -2.7M-6.3 -185.2Q-8.2 -184.05 -10.15 -184.05L-13.9 -184.6L-17.5 -185.2Q-20 -185.2 -22.05 -183.45Q-23.95 -181.85 -26.55 -181.75Q-25.55 -183 -23.6 -184Q-20.25 -185.8 -19.25 -186.6Q-16 -189.3 -14.2 -188.05L-12.75 -186.2Q-11.55 -186.2 -10.95 -187Q-10.4 -187.8 -9.75 -187.8Q-7.25 -187.8 -5.1 -186.05Q-5.55 -185.65 -6.3 -185.2M-45.25 -168.5Q-44.65 -172.4 -40.15 -168.8L-36.55 -165.05Q-35.2 -163.25 -35 -162.4Q-37.1 -162.7 -40.35 -165.55Q-44 -168.8 -44.4 -168.8L-45.25 -168.5M-19.6 -157.2Q-20.8 -157.2 -21.9 -158.35Q-23 -159.5 -23.8 -159.5Q-25.2 -159.5 -28.75 -156.4L-32 -153.35L-31.95 -153.85L-31.8 -154.85L-31.5 -155.55L-31.3 -155.9Q-30.5 -157.4 -28.5 -159.05Q-24.45 -162.45 -20.45 -158.7L-18.65 -159.35Q-17.6 -159.35 -16.95 -158.4L-16.8 -158.2Q-18.7 -157.2 -19.6 -157.2M-65.05 -173.2Q-64.45 -175.9 -58.8 -174Q-52.7 -171.9 -52.5 -169.45L-53.3 -169.4Q-55.1 -169.4 -59.15 -171.4Q-63.2 -173.4 -64.05 -173.4L-65.05 -173.2M-55.95 -138.25Q-55.95 -140.75 -53.45 -143.4Q-51.45 -145.5 -48.55 -146.55L-44.25 -147.5Q-43.4 -149 -42.3 -149.75Q-40.55 -150.95 -38.15 -150.1Q-36.2 -149.35 -35.3 -148.4L-35.4 -148.3Q-36.55 -147.25 -39.5 -146.8L-46.8 -145.8L-49.65 -144.35L-50.5 -143.9Q-52 -143.05 -52.9 -141.8L-54.95 -139.4L-56 -137.7L-55.95 -138.25M-49.5 -103.5L-49.5 -104.65L-49.35 -107.05Q-48.95 -108.5 -47.1 -109.2Q-46.95 -110.1 -47.3 -113.85Q-47.3 -115.2 -46.2 -116.5Q-45.1 -117.85 -42.9 -119.1Q-39.5 -121.1 -38.75 -119.65L-38.75 -119.6Q-39.7 -118.1 -41.4 -116.3L-42.95 -114.7L-45.85 -111.55Q-45.85 -109.7 -47.05 -106.85Q-48.15 -104.25 -49.5 -103.5M-30 -140.05Q-29 -140.75 -25 -142.85L-24 -143.4Q-19.5 -145.85 -15.7 -144.15L-13.45 -142.75Q-14.35 -141.9 -16.15 -141.25L-20 -140.25L-20.2 -140.25Q-21.65 -139.6 -24.6 -137.55Q-26.5 -136.25 -28.25 -136.25L-30.65 -136.85L-31.4 -137.1Q-31.4 -139.05 -30 -140.05M-15.2 -102.6L-15.45 -103.15L-16.35 -105.5Q-16.7 -106.55 -16.65 -107.55L-16.35 -110L-16.15 -111.1L-16.05 -112.5Q-16.05 -115.55 -9.6 -121.4Q-6.15 -124.5 -4.5 -125.4Q-3.05 -124.3 -3.05 -123.2Q-3.05 -121.75 -4.95 -120.5L-7.6 -118.95Q-8.8 -117.85 -8.95 -115.65L-8.95 -112.1L-8.95 -111.8Q-9.1 -109.9 -10.65 -109.55Q-12.6 -109.1 -12.95 -108.1L-13.1 -104.2Q-13.15 -102.65 -15.2 -102.6" />
<path style="fill:#BBD1D7;fill-opacity:1" d="M31.65 -176.8Q31.2 -175.1 30.35 -175.1L28.5 -176.05Q26.25 -177 23.65 -176.9Q22.9 -176.85 20.35 -175L17.8 -173.15Q16.5 -173.15 16.05 -173.9Q15.85 -174.25 15.9 -174.7Q15.9 -175.2 17 -176.75Q17 -177.35 15.7 -179.8Q14.4 -182.3 13.8 -182.85L12.35 -181.8Q11.35 -181.8 11.05 -182.8L10.95 -183.9Q10.2 -183.5 9.45 -183.5Q3.6 -183.5 3.45 -185.65L3.15 -188.35Q2.45 -190.95 0.5 -191.6Q-2.3 -192.55 -8 -190.1Q-13.95 -187.55 -15.15 -189.3Q-16.4 -191.15 -16.45 -192.5L-16.4 -194.65Q-16.4 -192.9 -15.2 -190.85Q-14.05 -188.85 -10.45 -190.6L-2.5 -194.15Q1.85 -195.95 3.2 -192.4L4.9 -188.05Q5.8 -186.25 7.8 -185.95L11.45 -185.25Q13.25 -184.7 14.1 -183.65L16.25 -179.3Q17.55 -176.7 18.65 -175.85Q19.75 -175 22 -177.2Q24.2 -179.4 25.3 -179.15L28.1 -178.85Q29.8 -178.75 31.65 -176.8M50.1 -166.95L50.1 -166.45Q50.1 -165.65 49.6 -164.95Q49 -164.25 48.3 -164.25Q47.95 -164.25 47.8 -164.55L47.25 -164.85L43.75 -163.7Q39.7 -162.6 36.6 -162.6Q36.25 -162.6 36.15 -162.3L35.9 -162L35.7 -162Q35.35 -162 35.1 -162.3Q34.9 -162.6 34.5 -162.6Q31.8 -161.2 28.95 -158.45L28.2 -157.8L27.95 -158.6Q27.95 -159.55 36 -164.25L36.55 -164.6L48.25 -168.25L49.85 -167.8L50.1 -166.95M18.95 -157.05Q19.6 -156.7 20.7 -156.4L21.3 -156.3L24.35 -155.85L25.45 -155.45L26.7 -154.55L28.75 -152.65L31.8 -147.75L32.75 -146.45L32.7 -145.95L32.5 -145.75L31.8 -145.55L31.15 -145.75Q30.7 -146.15 30.45 -147.15L30.15 -149.1L29.15 -150.8Q28.35 -151.95 28.2 -152.7L26.4 -152.65Q25.3 -153.9 23.3 -154.85Q22 -155.5 19.9 -155.6Q18.95 -155.7 18.95 -157.05M17.7 -164.65L17.65 -164.35L17.2 -161.9Q16.95 -160.55 14.35 -159.55L10.45 -158.4L2.95 -157.05Q1.85 -157.05 -0.55 -152.6Q-3 -148.15 -4.05 -150.2L-5.2 -152.45L-5.15 -152.45Q-3.8 -152.45 -3.35 -153.6Q-3.05 -154.3 -2.5 -156.45Q-1.95 -157.8 -0.55 -158.7Q0.85 -159.6 2.65 -159.7Q7.05 -159.95 10.35 -161.85L10.45 -161.9Q13.9 -164 13.9 -166.9Q13.9 -167.55 12.75 -168.65Q15.25 -167.35 17.7 -164.65M35.3 -136.6L35.25 -135.4Q35.1 -134.75 34.35 -134.7L34.25 -134.7L29.6 -142L29.8 -143.05Q30.8 -142.05 32.4 -139.1Q33.35 -137.25 35.3 -136.9L35.3 -136.6M40.6 -134.85Q43.8 -133.85 44.35 -133.2L45.85 -129.35Q46.45 -127.8 47.65 -127.4L46.85 -127.2L46.5 -127.2Q44.7 -127.2 44.75 -129.1L44.75 -131.55L44.7 -131.7L41.65 -133.15Q38.85 -134.45 38.85 -135.3L38.85 -135.35L38.95 -136.1Q39.35 -135.25 40.6 -134.85M45.7 -120.2L46.9 -120.15Q49.55 -119.8 50 -118.7L50.1 -118.2L46.95 -116.2Q43.5 -114 42.15 -112.5L41.95 -112.2L40 -109.75Q38.3 -107.75 36.5 -106.5L34.55 -106.5L33.4 -107.7L33.65 -107.7Q34.55 -107.7 37.4 -110.4L39.9 -112.9L40.55 -113.6L44.2 -116.25Q46.05 -117.5 46.05 -119.15Q46.05 -119.8 45.7 -120.2M50.8 -124.65Q51.6 -124.65 52.5 -125.4L54.5 -127.1Q55.8 -128.1 57.55 -128.7Q60.15 -129.6 63.75 -129.6Q64.55 -129.6 65.4 -130.55L65.4 -130.1Q65.4 -128.75 65.1 -128.1Q64.75 -127.4 64.1 -127.4L62.65 -127.75L61.15 -128.1Q59.55 -128.1 57.4 -126.65L55.5 -125.25Q52.1 -122.4 51.3 -122.4Q50.15 -122.4 49.8 -124.05L49.75 -124.2L49.7 -124.8L50.8 -124.65M62.65 -98.3L61.6 -98.15Q59.85 -98.15 59.75 -99.05Q59.7 -99.55 60 -100.35Q59.3 -100.65 58.6 -101.35Q57.5 -102.4 56.35 -104.3Q54.45 -107.4 54.45 -109.15Q54.45 -111.3 55.95 -110.7L55.95 -110.35Q55.95 -108.1 56.85 -107.05L59.2 -104.5L60.15 -101.9L60.65 -100.75Q61.4 -99.2 62.85 -98.4L62.65 -98.3M74.15 -110.55Q75.4 -109.7 76.55 -109.2Q77.25 -108.45 77.25 -107.85L77 -107.15Q76.65 -106.8 75.75 -106.8Q75.1 -106.8 69.65 -110.6L68.75 -111.25Q62.75 -115.5 62.75 -115.05L62.75 -115.2Q62.8 -115.75 63 -116.1L63.2 -116.1Q64.3 -114.95 66.85 -114.25L70.8 -113.05L71.25 -112.7L72.6 -111.65L74.15 -110.55M8.8 -55.5Q8.75 -54.85 6.8 -52.25Q4.7 -49.4 3.85 -49.4L3.4 -49.5Q3.25 -50.1 3.4 -50.45L3.6 -50.85L3.15 -51.9Q2.65 -52.75 2.65 -53.4L2.7 -54.35L3.4 -53.9Q5.1 -52.8 5.45 -52.8Q6.9 -52.8 8.4 -54.95L8.8 -55.5M28.9 -0.6Q30.3 0.1 30.3 0.5Q30.3 1.55 28.95 1.55L23 1.45L18.85 1.45Q11.45 1.55 8.3 2.4L6.8 2.8L9 1.4L11.95 -0.65L22.65 0L28.9 -0.6M-6.65 2.4L-7.55 1.9Q-9.9 0.6 -15.15 1.8L-27.85 0.95Q-25.75 0.8 -22.35 0.95Q-19 1.05 -16.5 -0.35Q-14.05 -1.8 -11.75 -1.5Q-9.45 -1.2 -8.4 0.2L-7.1 1.9L-6.65 2.4M-6.15 -4.15Q-7.5 -5.45 -7.6 -6.1L-7.2 -10.8L-6.75 -14.85L-6.3 -10.1Q-5.55 -3.15 -3.95 -2.7Q-4.85 -2.95 -6.15 -4.15M7.1 -2.6Q7.35 -2.65 6.65 -4.7L5.7 -7.15Q3.9 -10.3 3.9 -12Q3.9 -12.7 4.2 -13.05Q4.4 -11.3 7.15 -6.95Q9.55 -3.15 10.65 -2.1L9.5 -2.1L7.1 -2.6M-5.1 -186.05L-2.6 -183.3L-7.45 -183.15L-8.6 -182.6Q-9.6 -182.1 -10.2 -182.1Q-11.55 -182.1 -12.95 -183L-14.7 -183.9Q-16.7 -183.9 -19.75 -182.15Q-22.75 -180.45 -24.25 -180.45Q-24.75 -180.45 -26.55 -181.75Q-23.95 -181.85 -22.05 -183.45Q-20 -185.2 -17.5 -185.2L-13.9 -184.6L-10.15 -184.05Q-8.2 -184.05 -6.3 -185.2Q-5.55 -185.65 -5.1 -186.05M-44.4 -168.8Q-44 -168.8 -40.35 -165.55Q-37.1 -162.7 -35 -162.4L-34.95 -162.1L-35 -161.4L-35.5 -160.8L-35.9 -160.65L-36.9 -160.95L-37.05 -162.5L-38.15 -162.3L-40.35 -163.7L-43.2 -165.8L-43.35 -164.8Q-43.55 -164 -44.3 -163.95L-45.3 -164.3L-45.35 -167.1L-45.35 -167.5L-45.25 -168.5L-44.4 -168.8M-16.8 -158.2L-16.6 -157.8L-16.5 -157.35Q-16.5 -156.9 -16.65 -156.6Q-16.9 -156.25 -17.5 -156.2L-19.6 -156.3L-20.6 -155.95Q-21.2 -155.6 -21.6 -155.6Q-22.75 -155.6 -22.8 -156.7Q-22.8 -157.8 -23.7 -157.8L-30.9 -152.55Q-31.75 -152.55 -31.9 -153.05L-31.95 -153.15L-32 -153.35L-28.75 -156.4Q-25.2 -159.5 -23.8 -159.5Q-23 -159.5 -21.9 -158.35Q-20.8 -157.2 -19.6 -157.2Q-18.7 -157.2 -16.8 -158.2M-64.05 -173.4Q-63.2 -173.4 -59.15 -171.4Q-55.1 -169.4 -53.3 -169.4L-52.5 -169.45L-52.5 -169.3L-52.55 -168.7Q-52.7 -167.6 -53.65 -167.6L-58.05 -169.3Q-62.4 -171.1 -64.1 -171.2L-65.1 -171.8L-65.15 -172.45L-65.1 -173L-65.05 -173.2L-64.05 -173.4M-35.2 -148.25L-34.75 -147.4L-34.65 -146.7Q-34.65 -146.2 -35.3 -145.35Q-36.05 -144.45 -36.75 -144.45L-38.55 -144.75L-40.4 -145.05Q-41 -145.05 -41.4 -144.7L-42.3 -144L-48.2 -143.4Q-49.55 -143.3 -50.1 -142.75L-50.35 -142.45Q-50.65 -141.5 -51.15 -141.15L-52.8 -138.9Q-54.25 -136.95 -54.75 -136.95L-55 -136.95Q-55.8 -137.05 -55.95 -137.55L-56 -137.7L-54.95 -139.4L-52.9 -141.8Q-52 -143.05 -50.5 -143.9L-49.65 -144.35L-46.8 -145.8L-39.5 -146.8Q-36.55 -147.25 -35.4 -148.3L-35.3 -148.4L-35.2 -148.25M-47.05 -106.85Q-45.85 -109.7 -45.85 -111.55L-42.95 -114.7L-41.4 -116.3Q-39.7 -118.1 -38.75 -119.6L-38.55 -118.55Q-38.55 -117.2 -41 -114.7L-41.5 -114.2Q-43.5 -112.1 -43.5 -111.45L-43.1 -110.4L-42.75 -109.6Q-42.75 -109.15 -45.15 -105.65Q-47.65 -102.05 -48.35 -102.05L-48.9 -102.2Q-49.4 -102.5 -49.5 -103.3L-49.5 -103.5Q-48.15 -104.25 -47.05 -106.85M-13.1 -142.35Q-12.6 -141.7 -12.6 -141Q-12.6 -140.5 -16.55 -138.8L-17.6 -138.35Q-22.65 -136.25 -27 -135L-30.35 -135L-31.05 -135.75Q-31.4 -136.35 -31.4 -137.1L-30.65 -136.85L-28.25 -136.25Q-26.5 -136.25 -24.6 -137.55Q-21.65 -139.6 -20.2 -140.25L-20 -140.25L-16.15 -141.25Q-14.35 -141.9 -13.45 -142.75L-13.1 -142.35M-13.1 -104.2L-12.95 -108.1Q-12.6 -109.1 -10.65 -109.55Q-9.1 -109.9 -8.95 -111.8L-8.95 -112.1L-8.95 -115.65Q-8.8 -117.85 -7.6 -118.95L-4.95 -120.5Q-3.05 -121.75 -3.05 -123.2Q-3.05 -124.3 -4.5 -125.4Q-3.15 -126.15 -3.1 -125.25Q-3.1 -123.35 -0.3 -123.4Q2.5 -123.5 -2.05 -120.5L-6.6 -117.3L-6.25 -116.25L-4.05 -113.3L-3.65 -112.75Q-2.5 -110.85 -4.3 -109.45Q-6.4 -107.9 -7.85 -107.1Q-9.4 -106.3 -11.2 -103.2Q-13.05 -100.15 -13.95 -100.9L-15.2 -102.6Q-13.15 -102.65 -13.1 -104.2" />
</g>
<g id="PathID_1562" transform="matrix(1, 0, 0, 1, 65.25, 207.25)">
<path style="fill:#FFFFFF;fill-opacity:0.819608" d="M5.35 -206.5Q5.1 -206.85 5.55 -207.15Q6.05 -207.45 6.35 -206.95Q6.65 -206.5 6.15 -206.35Q5.6 -206.15 5.35 -206.5M8 -205.8Q7.9 -206.1 8.1 -206.3L8.6 -206.15Q8.85 -205.9 8.5 -205.65Q8.15 -205.45 8 -205.8M2.55 -204.6Q2.85 -204.25 2.45 -203.95L1.85 -204Q1.6 -204.35 1.95 -204.65L2.55 -204.6M3.5 -205.8Q3.3 -206.15 3.6 -206.25L4.1 -206.1Q4.3 -205.8 4 -205.65Q3.7 -205.45 3.5 -205.8M0.85 -201.55Q0.7 -201.9 1 -202.15Q1.25 -202.35 1.55 -202Q1.85 -201.65 1.45 -201.4Q1 -201.15 0.85 -201.55M9.05 -203.35Q8.8 -203.65 9.1 -203.95L9.7 -203.9Q9.95 -203.55 9.6 -203.3L9.05 -203.35M8.5 -202.3Q8.25 -202.75 8.65 -202.85L9.3 -202.6Q9.6 -202.25 9.15 -202.05Q8.75 -201.85 8.5 -202.3M8.4 -200Q8.15 -200.3 8.55 -200.55Q8.95 -200.75 9.2 -200.4Q9.45 -200 9.05 -199.85Q8.6 -199.75 8.4 -200M8.35 -198.2Q8.65 -197.85 8.2 -197.55Q7.75 -197.3 7.6 -197.7Q7.4 -198.15 7.7 -198.35L8.35 -198.2M47.2 -169.15L46.55 -169.2Q46.2 -169.6 46.6 -169.85L47.25 -169.8Q47.55 -169.45 47.2 -169.15M48.9 -168.55Q48.55 -168.95 49.05 -169.25Q49.5 -169.55 49.75 -169.05Q50.05 -168.6 49.6 -168.35Q49.2 -168.1 48.9 -168.55M50.25 -167.15Q50.55 -166.75 50.1 -166.5Q49.65 -166.25 49.3 -166.75Q49 -167.3 49.45 -167.4Q49.95 -167.55 50.25 -167.15M42.35 -169.75L43 -169.55Q43.25 -169.2 42.85 -169Q42.5 -168.8 42.2 -169.2Q41.95 -169.6 42.35 -169.75M40.65 -168.7Q40.15 -168.4 39.75 -168.95Q39.4 -169.45 39.95 -169.8Q40.5 -170.15 40.85 -169.55Q41.15 -169 40.65 -168.7M44.45 -169.05Q44.25 -168.85 43.9 -169.2Q43.6 -169.5 43.95 -169.65L44.5 -169.5Q44.7 -169.2 44.45 -169.05M29.35 -182.1L28.75 -182.15Q28.5 -182.5 28.85 -182.8L29.45 -182.75Q29.75 -182.4 29.35 -182.1M26.9 -182.1Q26.3 -181.7 26.05 -182.3Q25.85 -182.9 26.25 -183.2Q26.65 -183.5 27.1 -183Q27.55 -182.5 26.9 -182.1M20.25 -181.3Q20 -181.6 20.3 -181.9L20.9 -181.85Q21.15 -181.5 20.8 -181.25L20.25 -181.3M24.7 -182L24.1 -182.1Q23.9 -182.4 24.25 -182.6L24.85 -182.5Q25.1 -182.15 24.7 -182M22.85 -181.85Q22.4 -181.65 22.15 -182.1Q21.85 -182.6 22.3 -182.75Q22.7 -182.85 23 -182.5Q23.3 -182.1 22.85 -181.85M31.1 -180.8Q30.95 -181.1 31.2 -181.15L31.6 -181Q31.75 -180.8 31.5 -180.65Q31.25 -180.5 31.1 -180.8M31.95 -176.65Q31.6 -176.45 31.45 -176.8Q31.35 -177.1 31.55 -177.3L32.05 -177.15Q32.3 -176.9 31.95 -176.65M32.05 -178.65Q31.6 -178.55 31.4 -178.8Q31.15 -179.1 31.55 -179.35L32.2 -179.2Q32.45 -178.8 32.05 -178.65M12.25 -187.9Q11.7 -187.7 11.45 -188.05Q11.2 -188.4 11.65 -188.7Q12.15 -189 12.45 -188.5Q12.75 -188.05 12.25 -187.9M10.3 -187.15Q9.75 -186.85 9.4 -187.45Q9.05 -188.1 9.6 -188.25Q10.15 -188.4 10.5 -187.95Q10.9 -187.45 10.3 -187.15M13.3 -187.85Q13.2 -188.15 13.4 -188.25L13.75 -188.2Q13.95 -187.95 13.7 -187.8L13.3 -187.85M15.7 -186.1L15.15 -186.15Q14.9 -186.45 15.2 -186.75L15.8 -186.7Q16.05 -186.35 15.7 -186.1M7.05 -195.8Q6.85 -196.1 7.1 -196.3Q7.35 -196.55 7.6 -196.3Q7.8 -196 7.5 -195.8Q7.25 -195.55 7.05 -195.8M7.05 -192.2Q7.3 -192.35 7.45 -192.1Q7.6 -191.85 7.35 -191.75Q7.05 -191.65 6.9 -191.85Q6.8 -192 7.05 -192.2M6.7 -193.7Q6.15 -193.4 5.8 -194Q5.45 -194.65 6 -194.8Q6.55 -194.95 6.9 -194.5Q7.3 -194 6.7 -193.7M8.4 -190.35Q8.2 -190.8 8.5 -191L9.15 -190.85Q9.45 -190.5 9 -190.2Q8.55 -189.95 8.4 -190.35M8.4 -188Q8.1 -188.35 8.45 -188.7L9.15 -188.65Q9.45 -188.25 9.05 -187.95L8.4 -188M16.55 -184.4Q16.3 -184.8 16.65 -184.9Q17.05 -185.05 17.3 -184.7Q17.5 -184.4 17.15 -184.2Q16.75 -184 16.55 -184.4M17.25 -182.5L17.7 -182.4Q17.9 -182.15 17.6 -182.05L17.15 -182.1Q17 -182.3 17.25 -182.5M19.05 -179.9Q18.6 -179.65 18.45 -180.05Q18.25 -180.5 18.55 -180.7L19.2 -180.55Q19.5 -180.2 19.05 -179.9M11.45 -169Q11 -168.75 10.8 -169.15Q10.55 -169.55 10.95 -169.85L11.6 -169.75Q11.85 -169.25 11.45 -169M12.9 -168.65Q12.6 -168.4 12.35 -168.8Q12.1 -169.2 12.45 -169.5Q12.8 -169.75 13 -169.35Q13.25 -168.9 12.9 -168.65M14.3 -167.05Q14.05 -167.4 14.45 -167.7L15.25 -167.6Q15.55 -167.25 15.05 -167L14.3 -167.05M16.4 -165.75Q16.3 -166.05 16.6 -166.3Q16.9 -166.55 17.1 -166.15Q17.3 -165.8 16.9 -165.65Q16.55 -165.5 16.4 -165.75M7.6 -169.55Q7.5 -169.85 7.8 -170.1Q8.1 -170.35 8.3 -169.95Q8.5 -169.6 8.1 -169.45L7.6 -169.55M5.45 -168.55Q5.15 -169 5.7 -169.4L6.7 -169.3Q7.15 -168.85 6.45 -168.45L5.45 -168.55M3.6 -167.45Q3.35 -167.85 3.7 -168.15Q4.05 -168.4 4.25 -168Q4.5 -167.55 4.15 -167.3Q3.85 -167.05 3.6 -167.45M3.15 -167.1Q3.45 -166.55 2.95 -166.2Q2.45 -165.9 2.15 -166.4Q1.85 -166.9 2.35 -167.3Q2.8 -167.7 3.15 -167.1M0.15 -165.7Q0.05 -166 0.35 -166.3Q0.7 -166.6 0.95 -166.15Q1.2 -165.7 0.75 -165.5Q0.3 -165.35 0.15 -165.7M37.85 -168.55L38.5 -168.5Q38.8 -168.15 38.45 -167.85L37.8 -167.9Q37.45 -168.3 37.85 -168.55M36.9 -168.6Q36.55 -168.3 35.95 -168.85Q35.4 -169.4 36 -169.65Q36.65 -169.9 36.95 -169.4Q37.3 -168.9 36.9 -168.6M34.45 -168.2Q34.2 -168.55 34.55 -168.65L35.05 -168.45Q35.3 -168.2 34.95 -168.05Q34.65 -167.85 34.45 -168.2M33.85 -166.05Q33.35 -165.75 32.95 -166.3Q32.6 -166.8 33.15 -167.15Q33.7 -167.5 34.05 -166.9Q34.35 -166.35 33.85 -166.05M32.45 -164.65Q32.8 -164.9 33.05 -164.55Q33.3 -164.25 32.95 -163.95Q32.65 -163.7 32.35 -164.05Q32.05 -164.4 32.45 -164.65M31.05 -164.95Q30.8 -164.75 30.4 -165.15Q30 -165.55 30.45 -165.7L31.1 -165.55Q31.3 -165.2 31.05 -164.95M24.1 -161.1Q24.35 -160.75 24 -160.55Q23.6 -160.3 23.3 -160.75Q23 -161.2 23.4 -161.3Q23.85 -161.45 24.1 -161.1M28.15 -164.6Q27.85 -165.05 28.25 -165.15Q28.7 -165.3 28.95 -164.95Q29.2 -164.6 28.85 -164.4Q28.45 -164.15 28.15 -164.6M26.55 -161.35Q26.8 -161.1 26.5 -160.85Q26.25 -160.65 26 -160.95Q25.75 -161.2 26.05 -161.45L26.55 -161.35M26.85 -163.05Q26.6 -163.45 27 -163.7Q27.45 -163.95 27.7 -163.55Q27.95 -163.1 27.55 -162.9Q27.15 -162.65 26.85 -163.05M29.5 -158.05Q29.05 -157.9 28.85 -158.2Q28.6 -158.5 28.95 -158.7L29.6 -158.6Q29.9 -158.2 29.5 -158.05M25.55 -159.2Q25.15 -159.6 25.6 -159.8Q26.05 -159.95 26.3 -159.6Q26.55 -159.2 26.25 -159Q26 -158.75 25.55 -159.2M29.7 -155.65Q30.2 -156 30.6 -155.35Q31 -154.7 30.45 -154.4Q29.9 -154.1 29.55 -154.7Q29.2 -155.25 29.7 -155.65M28.5 -156.45Q28.35 -156.8 28.65 -157Q28.95 -157.15 29.1 -156.9Q29.3 -156.65 28.95 -156.4L28.5 -156.45M22.15 -159.95Q21.75 -159.7 21.45 -160.1Q21.2 -160.5 21.6 -160.75Q22.05 -161 22.3 -160.6Q22.55 -160.15 22.15 -159.95M31.5 -152.25Q31.2 -152.1 31 -152.4Q30.85 -152.65 31.1 -152.8L31.55 -152.65Q31.8 -152.4 31.5 -152.25M32.15 -150.55Q31.7 -150.35 31.45 -150.7Q31.2 -151 31.6 -151.25Q31.95 -151.5 32.3 -151.1Q32.65 -150.7 32.15 -150.55M31.95 -147.65Q31.75 -148.05 32.1 -148.3L32.7 -148.2Q32.9 -147.9 32.5 -147.6L31.95 -147.65M31.45 -142.75Q31.05 -143.2 31.6 -143.55Q32.1 -143.95 32.6 -143.35Q33.1 -142.75 32.45 -142.55Q31.8 -142.3 31.45 -142.75M30.45 -143.1Q30.05 -142.8 29.75 -143.2Q29.45 -143.55 29.9 -143.8L30.55 -143.7Q30.8 -143.35 30.45 -143.1M34.35 -142.45Q34.6 -142.05 34.25 -141.8Q33.9 -141.5 33.6 -141.95Q33.25 -142.4 33.7 -142.6L34.35 -142.45M32.2 -145.35Q31.95 -145.85 32.35 -146.1Q32.75 -146.4 33.05 -145.9Q33.35 -145.35 32.95 -145.1Q32.5 -144.9 32.2 -145.35M35.35 -138.25L36 -138.15Q36.25 -137.8 35.9 -137.55Q35.5 -137.25 35.2 -137.65Q34.9 -138 35.35 -138.25M35 -140.3L35.65 -140.25Q35.9 -139.9 35.5 -139.65L34.85 -139.7Q34.65 -140.05 35 -140.3M39.55 -136.7Q39.8 -136.3 39.4 -136.1Q39 -135.85 38.8 -136.25Q38.55 -136.6 38.95 -136.85Q39.35 -137.15 39.55 -136.7M34.95 -135.45Q34.7 -135.75 35.05 -135.95L35.7 -135.8Q36 -135.45 35.6 -135.3Q35.15 -135.15 34.95 -135.45M37.25 -118.4Q37.1 -118.65 37.4 -119L38 -118.95Q38.25 -118.5 37.85 -118.35L37.25 -118.4M39.3 -119.25Q39.15 -119.45 39.35 -119.6L39.7 -119.5L39.6 -119.15Q39.45 -119.05 39.3 -119.25M33.35 -111.95Q33.05 -112.35 33.45 -112.6Q33.9 -112.9 34.1 -112.4Q34.3 -111.95 34 -111.75Q33.65 -111.55 33.35 -111.95M33.85 -113.8Q33.65 -114.15 33.95 -114.4Q34.25 -114.65 34.5 -114.3Q34.8 -113.95 34.4 -113.75L33.85 -113.8M35.6 -116.5Q35.4 -117 35.9 -117.5Q36.4 -117.95 36.65 -117.4Q36.9 -116.8 36.4 -116.4Q35.85 -116 35.6 -116.5M33.5 -110.7Q33.7 -110.35 33.35 -110.2L32.85 -110.25Q32.75 -110.45 33 -110.75L33.5 -110.7M34.45 -106.65Q34.25 -107 34.6 -107.25L35.2 -107.2Q35.5 -106.8 35.05 -106.55Q34.65 -106.3 34.45 -106.65M32.95 -107.9L32.65 -107.95Q32.55 -108.15 32.75 -108.3L33.05 -108.25L32.95 -107.9M63.65 -133.75Q63.4 -133.55 63.2 -133.95Q63 -134.3 63.3 -134.45Q63.6 -134.65 63.75 -134.3Q63.9 -133.95 63.65 -133.75M61.4 -134.75Q61.25 -134.95 61.45 -135.1Q61.65 -135.3 61.85 -135Q62 -134.7 61.8 -134.6Q61.55 -134.55 61.4 -134.75M65.1 -131.8Q64.65 -131.55 64.4 -131.95Q64.15 -132.35 64.6 -132.6L65.35 -132.5Q65.6 -132.1 65.1 -131.8M65.15 -128.8Q65.65 -129.2 66.05 -128.45Q66.45 -127.75 65.9 -127.6Q65.4 -127.45 65.05 -127.9Q64.65 -128.35 65.15 -128.8M65.95 -129.55Q65.7 -129.45 65.55 -129.65Q65.4 -129.85 65.6 -130L66 -129.9L65.95 -129.55M40.8 -137Q40.65 -137.25 40.9 -137.4L41.35 -137.3Q41.55 -137 41.25 -136.85Q40.95 -136.7 40.8 -137M46 -132Q45.75 -132.4 46.2 -132.7Q46.65 -133.05 46.9 -132.55Q47.2 -132.05 46.75 -131.8Q46.3 -131.55 46 -132M46.9 -130.65Q46.6 -131.15 47.15 -131.45Q47.65 -131.75 48 -131.2Q48.3 -130.65 47.75 -130.4Q47.2 -130.15 46.9 -130.65M45.2 -134.25Q44.85 -133.85 44.5 -134.35Q44.15 -134.85 44.65 -135.2Q45.15 -135.55 45.35 -135.1Q45.55 -134.6 45.2 -134.25M42.85 -135.45Q42.6 -135.3 42.5 -135.55Q42.35 -135.8 42.55 -135.9L42.9 -135.8L42.85 -135.45M44.55 -131.3Q44.35 -131.7 44.75 -132Q45.1 -132.35 45.35 -131.85Q45.6 -131.4 45.2 -131.15Q44.75 -130.9 44.55 -131.3M48.55 -127.45Q48.35 -127.8 48.6 -128.1L48.45 -128Q47.95 -127.65 47.65 -128.2Q47.4 -128.75 47.85 -129Q48.35 -129.3 48.65 -128.85L48.7 -128.2L48.85 -128.35Q49.45 -128.7 49.8 -128.15Q50.2 -127.65 49.55 -127.3Q48.9 -126.95 48.55 -127.45M46.7 -127.45Q46.45 -127.75 46.8 -128L47.3 -127.95L47.2 -127.35Q46.95 -127.1 46.7 -127.45M49.2 -125.75Q48.95 -126.25 49.35 -126.45Q49.75 -126.65 49.95 -126.2Q50.15 -125.75 49.8 -125.5Q49.45 -125.25 49.2 -125.75M50.1 -130.3Q50.5 -130.5 50.85 -130.15Q51.15 -129.75 50.75 -129.55Q50.3 -129.3 50 -129.7Q49.75 -130.05 50.1 -130.3M59.55 -134.3Q59 -134.05 58.7 -134.5Q58.4 -134.95 58.8 -135.2Q59.25 -135.45 59.65 -135Q60.05 -134.55 59.55 -134.3M56.7 -132.55L56 -132.65Q55.8 -133 56.2 -133.25L56.9 -133.15Q57.15 -132.8 56.7 -132.55M52.35 -130.5Q52.1 -130.8 52.45 -131.1Q52.75 -131.35 53.05 -130.85Q53.35 -130.4 52.95 -130.25Q52.6 -130.15 52.35 -130.5M54.3 -131.95Q54.05 -132.4 54.45 -132.6Q54.8 -132.8 54.95 -132.35Q55.15 -131.95 54.85 -131.75Q54.5 -131.5 54.3 -131.95M48.05 -120.35Q48.5 -120.7 48.75 -120.15Q49 -119.6 48.65 -119.4Q48.25 -119.15 47.9 -119.6Q47.6 -120.05 48.05 -120.35M49.75 -118.5Q49.35 -118.25 49.15 -118.6Q48.95 -118.95 49.3 -119.2L49.9 -119.15Q50.2 -118.75 49.75 -118.5M45.65 -120.3L45.05 -120.35Q44.9 -120.6 45.2 -120.95L45.8 -120.9Q46.05 -120.45 45.65 -120.3M41.2 -118.65Q40.95 -118.45 40.8 -118.75Q40.65 -119 40.9 -119.15L41.3 -119.1Q41.5 -118.85 41.2 -118.65M43.8 -119.2Q43.35 -118.85 43.15 -119.3Q42.95 -119.7 43.35 -120.1Q43.8 -120.5 44 -120Q44.2 -119.5 43.8 -119.2M59.45 -108.45Q59.8 -108.15 59.35 -107.9Q58.9 -107.65 58.65 -108Q58.35 -108.35 58.75 -108.55L59.45 -108.45M57.4 -109.65Q57.3 -109.95 57.5 -110.1L57.85 -110Q58 -109.75 57.75 -109.55Q57.5 -109.35 57.4 -109.65M55.8 -110.45Q55.6 -110.8 55.9 -110.95Q56.2 -111.1 56.4 -110.8Q56.65 -110.5 56.35 -110.3Q56.05 -110.1 55.8 -110.45M71.45 -115.25Q71.15 -115.7 71.55 -116Q72 -116.25 72.3 -115.8Q72.6 -115.4 72.15 -115.05Q71.75 -114.75 71.45 -115.25M73.3 -111.7Q73.55 -111.3 73.15 -111.1Q72.75 -110.95 72.55 -111.3Q72.35 -111.65 72.7 -111.9Q73.05 -112.15 73.3 -111.7M72.25 -113Q72.05 -113.4 72.45 -113.7Q72.85 -114 73.15 -113.5Q73.4 -112.95 72.95 -112.8Q72.45 -112.6 72.25 -113M64.1 -116.4Q63.7 -117 64.2 -117.3Q64.7 -117.65 65.1 -117.15Q65.45 -116.6 64.95 -116.2Q64.45 -115.85 64.1 -116.4M61.85 -114.65Q61.65 -115.05 62.05 -115.2L62.65 -115.15Q62.8 -114.85 62.4 -114.6L61.85 -114.65M69.45 -115.55Q69.2 -115.95 69.65 -116.15L70.25 -116.05Q70.45 -115.75 70.05 -115.45Q69.65 -115.15 69.45 -115.55M66.65 -116.1Q66.15 -115.9 65.95 -116.3Q65.75 -116.7 66.15 -117Q66.55 -117.3 66.85 -116.8Q67.1 -116.25 66.65 -116.1M67.4 -114.75Q66.95 -114.55 66.7 -114.95Q66.45 -115.35 66.9 -115.65Q67.3 -115.95 67.6 -115.45Q67.9 -114.95 67.4 -114.75M61.4 -105.75Q61 -105.5 60.75 -105.9Q60.5 -106.25 60.85 -106.45L61.5 -106.35Q61.8 -106 61.4 -105.75M61.15 -103.5Q60.9 -104.15 61.35 -104.35Q61.8 -104.55 62.1 -104.1Q62.4 -103.7 61.9 -103.3Q61.35 -102.85 61.15 -103.5M62.85 -102.2Q63 -101.95 62.75 -101.75Q62.5 -101.55 62.4 -101.85Q62.3 -102.15 62.5 -102.3L62.85 -102.2M63 -100.4L63.8 -100.25Q64.15 -99.95 63.65 -99.65Q63.2 -99.4 62.9 -99.8Q62.6 -100.15 63 -100.4M77.35 -108.05Q76.95 -107.75 76.65 -108.25Q76.35 -108.7 76.75 -109Q77.2 -109.25 77.5 -108.8Q77.8 -108.4 77.35 -108.05M75.45 -110.15Q75.15 -109.95 75 -110.25Q74.85 -110.5 75.15 -110.65L75.6 -110.6L75.45 -110.15M5.45 -12.95Q5.3 -13.25 5.55 -13.35Q5.75 -13.45 5.95 -13.15Q6.1 -12.9 5.8 -12.75Q5.55 -12.65 5.45 -12.95M9.1 -9.9Q9.6 -9.3 9 -8.95Q8.4 -8.6 8 -9.1Q7.55 -9.6 8.1 -10Q8.65 -10.45 9.1 -9.9M6.9 -11.15Q6.65 -11.55 7.1 -11.8L7.75 -11.65Q7.9 -11.25 7.55 -11Q7.15 -10.7 6.9 -11.15M9.6 -8.1Q9.4 -8.35 9.7 -8.5L10.15 -8.4Q10.3 -8.15 10 -8Q9.75 -7.8 9.6 -8.1M12.15 -6.75Q12.5 -6.15 11.95 -5.95Q11.4 -5.7 11.15 -6.3Q10.95 -6.85 11.35 -7.05Q11.8 -7.3 12.15 -6.75M13.6 -5.35Q13.35 -5.75 13.75 -5.9L14.25 -5.8Q14.4 -5.45 14.1 -5.25Q13.8 -5 13.6 -5.35M19.85 -3.75Q20.05 -3.85 20.25 -3.55Q20.4 -3.3 20.1 -3.15L19.75 -3.35Q19.6 -3.65 19.85 -3.75M15.4 -4.75Q15.15 -5.05 15.45 -5.3L16.1 -5.25Q16.4 -4.9 16.05 -4.7L15.4 -4.75M17.25 -4.5Q17.65 -4.75 17.85 -4.35Q18.1 -3.95 17.7 -3.7Q17.3 -3.45 17.05 -3.85Q16.85 -4.25 17.25 -4.5M22 -2.75Q21.75 -3.15 22.2 -3.35Q22.6 -3.55 22.75 -3.2Q22.9 -2.85 22.6 -2.6Q22.25 -2.35 22 -2.75M23.7 -2.1Q23.45 -2.4 23.8 -2.7L24.5 -2.6Q24.8 -2.25 24.4 -2L23.7 -2.1M29.2 -0.3Q28.65 -0.05 28.4 -0.65Q28.2 -1.2 28.6 -1.4Q29.05 -1.65 29.4 -1.1Q29.75 -0.5 29.2 -0.3M26.55 -0.95Q26.15 -0.7 25.9 -1.1Q25.7 -1.5 26.1 -1.75Q26.5 -2 26.7 -1.6Q26.95 -1.2 26.55 -0.95M-15.65 -198.35Q-15.45 -198.05 -15.8 -197.85Q-16.1 -197.7 -16.35 -198.05Q-16.55 -198.45 -16.2 -198.55Q-15.9 -198.65 -15.65 -198.35M-15.45 -201.15L-15 -201.05Q-14.8 -200.8 -15.1 -200.7L-15.55 -200.75Q-15.7 -200.95 -15.45 -201.15M-12.45 -203.25Q-12.7 -203.6 -12.35 -203.9L-11.75 -203.85Q-11.45 -203.5 -11.85 -203.2L-12.45 -203.25M-10.4 -202.6Q-9.85 -202.75 -9.45 -202.25Q-9.05 -201.75 -9.65 -201.4Q-10.25 -201.1 -10.6 -201.75Q-11 -202.4 -10.4 -202.6M-14.45 -202.25Q-14.6 -202.7 -14.3 -202.95Q-14 -203.2 -13.65 -202.8Q-13.3 -202.4 -13.75 -202.1Q-14.25 -201.8 -14.45 -202.25M-8.4 -199.55Q-9 -199.35 -9.3 -199.7Q-9.6 -200.1 -9.05 -200.4Q-8.55 -200.75 -8.2 -200.25Q-7.85 -199.75 -8.4 -199.55M-6.75 -198.3Q-7.2 -198.05 -7.35 -198.45Q-7.55 -198.9 -7.25 -199.1L-6.6 -198.95Q-6.3 -198.6 -6.75 -198.3M-4.85 -199Q-5.2 -199.45 -4.75 -199.85L-3.95 -199.8Q-3.6 -199.35 -4.05 -198.95L-4.85 -199M-1.85 -199.6Q-1.55 -199.25 -2 -199.05Q-2.4 -198.85 -2.65 -199.3Q-2.9 -199.75 -2.5 -199.85Q-2.1 -199.95 -1.85 -199.6M-0.75 -199.8Q-0.9 -199.95 -0.65 -200.1L-0.3 -200.05Q-0.15 -199.8 -0.4 -199.75L-0.75 -199.8M-8.55 -187.65L-9.25 -187.75Q-9.5 -188.1 -9.15 -188.4L-8.45 -188.3Q-8.1 -187.9 -8.55 -187.65M-7.25 -186.85Q-7.45 -187.2 -7.05 -187.4Q-6.7 -187.6 -6.5 -187.2Q-6.25 -186.85 -6.65 -186.65Q-7 -186.5 -7.25 -186.85M-5.4 -186.75Q-4.9 -187.25 -4.5 -186.6Q-4.1 -185.95 -4.75 -185.75Q-5.35 -185.5 -5.6 -185.9Q-5.85 -186.3 -5.4 -186.75M-16.4 -195.65L-17.2 -195.7Q-17.55 -196.15 -17.1 -196.55L-16.3 -196.5Q-15.95 -196.05 -16.4 -195.65M-19.75 -186.4Q-19.9 -186.65 -19.65 -186.85L-19.25 -186.75Q-19.15 -186.45 -19.35 -186.3L-19.75 -186.4M-17.45 -187.8Q-17.75 -188.25 -17.3 -188.55L-16.45 -188.45Q-16.05 -188 -16.6 -187.7Q-17.15 -187.4 -17.45 -187.8M-14.05 -188.85Q-13.85 -188.4 -14.25 -188.2Q-14.7 -188 -14.95 -188.4Q-15.2 -188.8 -14.75 -189.05Q-14.3 -189.3 -14.05 -188.85M-13.25 -186.2L-13.8 -186.3L-13.65 -186.85Q-13.35 -187.15 -13.1 -186.75Q-12.85 -186.35 -13.25 -186.2M-11.9 -186.6Q-12.15 -186.95 -11.8 -187.25Q-11.4 -187.55 -11.2 -187.1Q-11 -186.65 -11.35 -186.4Q-11.7 -186.2 -11.9 -186.6M-20.55 -185.9Q-20.35 -185.55 -20.7 -185.45Q-21 -185.35 -21.15 -185.55L-21 -186L-20.55 -185.9M-25 -182.8L-25.6 -182.85Q-25.8 -183.15 -25.5 -183.4L-24.9 -183.3Q-24.65 -183 -25 -182.8M-23 -184.4Q-23.2 -184.65 -22.85 -184.85Q-22.55 -185.05 -22.4 -184.7Q-22.2 -184.35 -22.55 -184.25Q-22.85 -184.1 -23 -184.4M-26.75 -181.75Q-27.05 -182.15 -26.6 -182.5Q-26.2 -182.85 -25.95 -182.35Q-25.7 -181.8 -26.1 -181.55Q-26.5 -181.3 -26.75 -181.75M-39 -167.9L-38.95 -168.25L-38.55 -168.2Q-38.45 -168 -38.65 -167.8L-39 -167.9M-35.55 -162.5Q-35.1 -162.75 -34.8 -162.3Q-34.45 -161.8 -34.95 -161.65Q-35.45 -161.5 -35.75 -161.85Q-36.05 -162.2 -35.55 -162.5M-36.2 -163.65Q-36.45 -164.1 -36 -164.35Q-35.55 -164.6 -35.35 -164.1Q-35.1 -163.65 -35.55 -163.4Q-36 -163.15 -36.2 -163.65M-37.6 -165.7Q-38 -166.1 -37.45 -166.3L-36.65 -166.15Q-36.4 -165.8 -36.8 -165.5Q-37.2 -165.25 -37.6 -165.7M-30.8 -156.05Q-31.25 -155.7 -31.5 -156.15Q-31.8 -156.55 -31.35 -156.75L-30.65 -156.7Q-30.4 -156.4 -30.8 -156.05M-40.25 -150.05L-40.8 -150.1Q-41.05 -150.45 -40.7 -150.75Q-40.4 -151.05 -40.15 -150.65Q-39.85 -150.25 -40.25 -150.05M-37.9 -149.7Q-38.35 -149.45 -38.45 -149.85L-38.2 -150.45Q-37.9 -150.7 -37.65 -150.35Q-37.4 -149.95 -37.9 -149.7M-35.4 -149Q-34.95 -148.4 -35.4 -148.05Q-35.85 -147.7 -36.25 -148.25Q-36.7 -148.85 -36.25 -149.2Q-35.85 -149.6 -35.4 -149M-20.65 -159.55Q-20.4 -159.8 -20.2 -159.45Q-20 -159.15 -20.3 -158.95Q-20.6 -158.8 -20.75 -159.05Q-20.9 -159.3 -20.65 -159.55M-21.85 -159.3Q-22.2 -159.1 -22.45 -159.5Q-22.75 -159.85 -22.3 -160.2Q-21.9 -160.5 -21.7 -160Q-21.5 -159.55 -21.85 -159.3M-23.95 -160.2Q-24.4 -159.85 -24.65 -160.3Q-24.95 -160.7 -24.5 -160.9L-23.8 -160.85Q-23.55 -160.55 -23.95 -160.2M-26.15 -160.25Q-26.45 -160 -26.75 -160.4Q-27.05 -160.75 -26.65 -161Q-26.3 -161.2 -26.05 -160.85Q-25.8 -160.45 -26.15 -160.25M-28.2 -159.4Q-28.45 -159.3 -28.55 -159.5L-28.5 -159.9L-28.1 -159.85Q-27.95 -159.55 -28.2 -159.4M-29.15 -157.95Q-29 -157.5 -29.3 -157.3Q-29.65 -157.1 -29.9 -157.45Q-30.15 -157.8 -29.75 -158.1Q-29.35 -158.4 -29.15 -157.95M-1.45 -164.3Q-1.6 -164.55 -1.35 -164.7L-0.9 -164.65Q-0.7 -164.45 -1 -164.3Q-1.3 -164.1 -1.45 -164.3M-3.05 -162.1Q-3.35 -162.6 -2.9 -162.95Q-2.45 -163.3 -2.15 -162.75Q-1.85 -162.2 -2.25 -161.9Q-2.7 -161.55 -3.05 -162.1M-18.55 -159.5Q-18.85 -159.85 -18.45 -160.1Q-18.1 -160.3 -17.85 -159.95Q-17.6 -159.55 -17.95 -159.35Q-18.25 -159.1 -18.55 -159.5M-17.05 -157.6Q-17.35 -158 -16.9 -158.2L-16.2 -158.15Q-15.95 -157.85 -16.35 -157.5Q-16.8 -157.15 -17.05 -157.6M-3.55 -160.45Q-3.7 -160.7 -3.45 -160.95L-3 -160.85Q-2.8 -160.5 -3.1 -160.35Q-3.4 -160.15 -3.55 -160.45M-4.6 -158.1Q-4.7 -158.4 -4.4 -158.7Q-4.05 -159 -3.8 -158.55Q-3.55 -158.1 -4 -157.9Q-4.45 -157.75 -4.6 -158.1M-4.9 -156.2L-5.65 -156.25Q-5.9 -156.6 -5.5 -156.9L-4.7 -156.8Q-4.4 -156.45 -4.9 -156.2M-5.35 -153.75Q-5.65 -153.5 -5.85 -153.85Q-6.1 -154.25 -5.8 -154.5Q-5.45 -154.75 -5.25 -154.35Q-5.05 -153.95 -5.35 -153.75M-59.9 -174.1Q-60.05 -174.4 -59.75 -174.55Q-59.45 -174.7 -59.3 -174.4Q-59.15 -174.1 -59.45 -174L-59.9 -174.1M-56.15 -173.55Q-55.85 -172.9 -56.4 -172.7Q-56.95 -172.45 -57.35 -173Q-57.75 -173.55 -57.1 -173.85Q-56.5 -174.2 -56.15 -173.55M-64.15 -174.2Q-64.45 -174.75 -64.05 -175Q-63.65 -175.25 -63.3 -174.8Q-63 -174.3 -63.45 -174Q-63.85 -173.7 -64.15 -174.2M-61.6 -174.35Q-61.85 -174.8 -61.45 -175.1Q-61 -175.4 -60.75 -174.85Q-60.55 -174.3 -60.9 -174.1Q-61.3 -173.9 -61.6 -174.35M-65.1 -172.35Q-65.45 -172.85 -64.9 -173.15Q-64.3 -173.5 -64 -172.85Q-63.7 -172.25 -64.2 -172.05Q-64.75 -171.85 -65.1 -172.35M-42.55 -170.3Q-42.9 -170.1 -43.1 -170.5Q-43.3 -170.9 -42.9 -171.1Q-42.55 -171.3 -42.35 -170.9Q-42.2 -170.5 -42.55 -170.3M-45.05 -169.4Q-45.45 -169.8 -44.9 -170L-44.1 -169.85Q-43.85 -169.5 -44.25 -169.2Q-44.65 -168.95 -45.05 -169.4M-44.55 -167.85Q-44.25 -167.4 -44.7 -167.05Q-45.2 -166.7 -45.55 -167.25Q-45.9 -167.75 -45.35 -168.05Q-44.85 -168.35 -44.55 -167.85M-41.35 -169.3L-41.2 -169.65L-40.75 -169.55Q-40.55 -169.25 -40.85 -169.15Q-41.15 -169.05 -41.35 -169.3M-52.65 -170.5Q-52.5 -170.2 -52.7 -170.1Q-52.95 -170 -53.1 -170.25Q-53.25 -170.45 -53 -170.65Q-52.75 -170.8 -52.65 -170.5M-55.2 -172.2Q-55.45 -172.65 -55.1 -172.9Q-54.75 -173.1 -54.45 -172.7Q-54.2 -172.25 -54.55 -172Q-54.95 -171.75 -55.2 -172.2M-53.15 -168.35Q-53.45 -168.9 -52.9 -169.15Q-52.4 -169.45 -52.1 -168.9Q-51.85 -168.35 -52.35 -168.1Q-52.9 -167.8 -53.15 -168.35M-42.85 -149.1Q-43.1 -149.5 -42.75 -149.7L-42.1 -149.55Q-41.9 -149.15 -42.25 -148.95Q-42.6 -148.75 -42.85 -149.1M-43.55 -147.05Q-43.9 -146.75 -44.25 -147.25Q-44.6 -147.7 -44.25 -148Q-43.9 -148.35 -43.55 -147.85Q-43.15 -147.35 -43.55 -147.05M-50.25 -145.65Q-50.6 -145.45 -50.85 -145.8Q-51.1 -146.2 -50.75 -146.4Q-50.35 -146.65 -50.1 -146.25Q-49.9 -145.85 -50.25 -145.65M-48.6 -146.35Q-48.85 -146.7 -48.5 -147L-47.85 -146.95Q-47.55 -146.5 -47.95 -146.25L-48.6 -146.35M-46.1 -147.65Q-45.8 -147.85 -45.6 -147.5Q-45.35 -147.15 -45.8 -146.95Q-46.2 -146.7 -46.3 -147.05Q-46.4 -147.4 -46.1 -147.65M-51.75 -144.35Q-52 -144.15 -52.25 -144.5Q-52.5 -144.85 -52.25 -145.05Q-52 -145.3 -51.75 -144.95Q-51.45 -144.55 -51.75 -144.35M-53.3 -142.4Q-53.95 -142.05 -54.1 -142.6Q-54.25 -143.15 -53.8 -143.45Q-53.35 -143.8 -53 -143.25Q-52.65 -142.75 -53.3 -142.4M-56.15 -140.1Q-55.75 -140.35 -55.5 -139.95Q-55.3 -139.55 -55.65 -139.35Q-56 -139.15 -56.25 -139.5Q-56.5 -139.9 -56.15 -140.1M-54.65 -140.95Q-55.15 -140.65 -55.4 -141.05Q-55.65 -141.45 -55.3 -141.8L-54.55 -141.7Q-54.2 -141.2 -54.65 -140.95M-54.95 -136.5Q-55.2 -136.3 -55.45 -136.6Q-55.65 -136.9 -55.45 -137.15Q-55.2 -137.35 -54.95 -137Q-54.7 -136.7 -54.95 -136.5M-42.65 -119.2Q-43 -119.75 -42.5 -120.15Q-41.95 -120.5 -41.65 -119.9Q-41.35 -119.3 -41.8 -119Q-42.3 -118.65 -42.65 -119.2M-44.65 -118.45Q-45.15 -119 -44.5 -119.35Q-43.9 -119.7 -43.55 -119.05Q-43.2 -118.4 -43.65 -118.2Q-44.1 -117.95 -44.65 -118.45M-46.25 -116.55Q-46.55 -116.85 -46.2 -117.05L-45.7 -116.95Q-45.55 -116.65 -45.75 -116.45Q-45.95 -116.2 -46.25 -116.55M-46.4 -114.65Q-46.25 -114.2 -46.6 -114L-47.25 -114.1Q-47.55 -114.5 -47.05 -114.75Q-46.55 -115.05 -46.4 -114.65M-47.3 -112.2Q-47.55 -112.6 -47.15 -112.85Q-46.8 -113.15 -46.6 -112.7Q-46.35 -112.3 -46.7 -112.05Q-47 -111.8 -47.3 -112.2M-47.35 -109.85Q-47.7 -110.25 -47.25 -110.5Q-46.8 -110.75 -46.55 -110.3Q-46.3 -109.8 -46.65 -109.65Q-46.95 -109.45 -47.35 -109.85M-49.2 -106.15Q-49.5 -105.95 -49.75 -106.25Q-50 -106.55 -49.6 -106.8Q-49.15 -107.05 -49.05 -106.7Q-48.9 -106.35 -49.2 -106.15M-47.85 -107.9Q-48.1 -107.6 -48.55 -108.05Q-48.95 -108.5 -48.45 -108.75Q-48 -109 -47.75 -108.6Q-47.55 -108.2 -47.85 -107.9M-50.2 -104.3Q-50.55 -104.85 -50.05 -105.25Q-49.5 -105.6 -49.2 -105Q-48.9 -104.4 -49.35 -104.1Q-49.85 -103.75 -50.2 -104.3M-49.45 -101.95Q-50 -102.5 -49.35 -102.9Q-48.7 -103.25 -48.3 -102.6Q-47.95 -101.9 -48.45 -101.65Q-48.9 -101.4 -49.45 -101.95M-14.55 -143.85Q-14.4 -143.5 -14.75 -143.25Q-15.1 -143 -15.35 -143.4Q-15.6 -143.85 -15.15 -144.05Q-14.65 -144.2 -14.55 -143.85M-12.85 -142.6Q-12.5 -142.3 -12.95 -141.95Q-13.4 -141.6 -13.75 -142.05Q-14.1 -142.45 -13.6 -142.7L-12.85 -142.6M-19.5 -144.6Q-19.8 -145.05 -19.45 -145.25Q-19.05 -145.5 -18.75 -145.15Q-18.45 -144.8 -18.85 -144.5Q-19.2 -144.15 -19.5 -144.6M-17.2 -144.7Q-17.5 -145.05 -17.15 -145.25L-16.6 -145.15Q-16.35 -144.85 -16.65 -144.6L-17.2 -144.7M-5.6 -124.2Q-5.9 -123.95 -6.15 -124.3Q-6.4 -124.6 -6.05 -124.85Q-5.7 -125.1 -5.5 -124.75Q-5.3 -124.4 -5.6 -124.2M-2.05 -123.95Q-1.8 -123.5 -2.25 -123.3Q-2.65 -123.1 -2.85 -123.45Q-3.05 -123.8 -2.65 -124.1Q-2.3 -124.35 -2.05 -123.95M-3.4 -125.3Q-3.75 -125.05 -4 -125.45Q-4.25 -125.85 -3.9 -126.15Q-3.5 -126.45 -3.25 -126Q-3.05 -125.55 -3.4 -125.3M-21.7 -144.15Q-21.95 -144.45 -21.65 -144.6Q-21.3 -144.8 -21.1 -144.6Q-20.85 -144.35 -21.15 -144.1L-21.7 -144.15M-23 -143.1Q-23.4 -142.85 -23.7 -143.35Q-24 -143.85 -23.45 -144.05Q-22.95 -144.25 -22.8 -143.85Q-22.65 -143.4 -23 -143.1M-29.75 -140.2Q-30.05 -140.6 -29.7 -140.8L-29 -140.7Q-28.7 -140.45 -29.1 -140.15L-29.75 -140.2M-27.7 -141.25Q-28 -141.7 -27.65 -141.9L-26.95 -141.8Q-26.65 -141.45 -27.05 -141.15Q-27.4 -140.8 -27.7 -141.25M-26 -142.3Q-26.45 -142.85 -25.95 -143.2Q-25.4 -143.55 -24.95 -143.05Q-24.5 -142.55 -25.05 -142.1Q-25.55 -141.7 -26 -142.3M-34.55 -146.6Q-34.9 -146.4 -35.15 -146.75Q-35.4 -147.15 -35.05 -147.35Q-34.65 -147.6 -34.4 -147.2Q-34.2 -146.8 -34.55 -146.6M-32 -136.6Q-32.3 -137 -31.95 -137.2L-31.3 -137.1Q-31.05 -136.75 -31.35 -136.5Q-31.7 -136.2 -32 -136.6M-31.3 -139.75Q-30.6 -140 -30.4 -139.5Q-30.2 -138.95 -30.7 -138.6Q-31.2 -138.2 -31.6 -138.85Q-31.95 -139.5 -31.3 -139.75M-39.75 -119.6Q-40.1 -119.35 -40.45 -119.75Q-40.75 -120.15 -40.25 -120.45Q-39.7 -120.75 -39.5 -120.3Q-39.35 -119.85 -39.75 -119.6M-0.85 -123.25Q-1.1 -123.65 -0.65 -123.9Q-0.25 -124.15 0 -123.75Q0.25 -123.35 -0.2 -123.1Q-0.6 -122.85 -0.85 -123.25M-10.05 -121.45Q-10.25 -121.9 -9.8 -122.3Q-9.3 -122.65 -9 -122.05Q-8.65 -121.5 -9.25 -121.25Q-9.8 -120.95 -10.05 -121.45M-8.05 -122.7Q-8.3 -123.1 -7.85 -123.35Q-7.45 -123.6 -7.2 -123.2Q-6.95 -122.8 -7.4 -122.55Q-7.8 -122.3 -8.05 -122.7M-10.4 -120.2Q-10.7 -120 -10.9 -120.35Q-11.1 -120.65 -10.8 -120.9L-10.25 -120.8Q-10.1 -120.45 -10.4 -120.2M-12.45 -117.75Q-12.85 -117.45 -13.15 -117.9Q-13.5 -118.3 -13 -118.65Q-12.55 -119 -12.3 -118.5Q-12.05 -118.05 -12.45 -117.75M-16.4 -112.3Q-16.6 -112.7 -16.25 -112.95Q-15.9 -113.25 -15.7 -112.85Q-15.5 -112.4 -15.8 -112.2L-16.4 -112.3M-15.4 -115.1Q-15.05 -115.35 -14.8 -114.95Q-14.55 -114.5 -15 -114.3Q-15.4 -114.1 -15.6 -114.45Q-15.8 -114.8 -15.4 -115.1M-14.6 -117.05Q-14.85 -117.45 -14.45 -117.65L-13.85 -117.55Q-13.6 -117.15 -14 -116.95L-14.6 -117.05M-16.2 -108.75Q-15.9 -108.25 -16.4 -107.95Q-16.95 -107.65 -17.2 -108.15Q-17.5 -108.65 -17 -108.95Q-16.5 -109.25 -16.2 -108.75M-16.55 -110.65Q-16.8 -111 -16.4 -111.25Q-16.05 -111.55 -15.8 -111.15Q-15.6 -110.8 -15.95 -110.55Q-16.25 -110.3 -16.55 -110.65M-17.05 -105.85Q-17.25 -106.3 -16.8 -106.65Q-16.35 -107 -16.05 -106.45Q-15.75 -105.9 -16.3 -105.65Q-16.8 -105.4 -17.05 -105.85M-16.85 -103.75Q-17.15 -104.3 -16.65 -104.7Q-16.1 -105.1 -15.8 -104.5Q-15.5 -103.9 -16 -103.55Q-16.5 -103.15 -16.85 -103.75M-29.2 -0.35Q-28.95 0.1 -29.45 0.25Q-29.9 0.4 -30.2 0Q-30.45 -0.4 -29.95 -0.6Q-29.45 -0.8 -29.2 -0.35M-28.55 -0.9Q-28.8 -1.3 -28.3 -1.55Q-27.85 -1.8 -27.5 -1.3Q-27.15 -0.8 -27.75 -0.65Q-28.35 -0.45 -28.55 -0.9M-26.45 -1.6Q-26.75 -2.15 -26.25 -2.45Q-25.75 -2.75 -25.4 -2.3Q-25 -1.8 -25.6 -1.45Q-26.15 -1.05 -26.45 -1.6M-24.45 -2.25Q-24.85 -2.8 -24.3 -3.2Q-23.7 -3.6 -23.4 -3Q-23.1 -2.4 -23.6 -2.05Q-24.05 -1.7 -24.45 -2.25M-22.4 -3.8L-22.25 -4.15Q-22 -4.25 -21.85 -4Q-21.7 -3.75 -21.95 -3.65Q-22.25 -3.55 -22.4 -3.8M-7.25 -15.8Q-7.45 -16.15 -7.05 -16.4Q-6.65 -16.6 -6.35 -16.15Q-6.05 -15.75 -6.55 -15.6Q-7.1 -15.45 -7.25 -15.8M-8.6 -13.9Q-8.95 -14.45 -8.3 -14.7Q-7.6 -15 -7.25 -14.4Q-6.95 -13.8 -7.6 -13.55Q-8.2 -13.35 -8.6 -13.9M-7 -14.55L-6.9 -14.95L-6.5 -14.9Q-6.3 -14.65 -6.6 -14.5L-7 -14.55M-14.8 -6.2Q-15.25 -5.85 -15.65 -6.4Q-16.05 -6.95 -15.5 -7.35Q-14.9 -7.75 -14.6 -7.15Q-14.3 -6.55 -14.8 -6.2M-13.5 -6.9Q-13.75 -7.3 -13.25 -7.5Q-12.75 -7.7 -12.5 -7.25Q-12.25 -6.8 -12.75 -6.65Q-13.2 -6.5 -13.5 -6.9M-11.4 -8.1L-11.25 -8.45Q-11.05 -8.55 -10.9 -8.3Q-10.75 -8.1 -11 -8L-11.4 -8.1M-20.15 -5.1Q-20.35 -5.45 -19.95 -5.7Q-19.55 -5.9 -19.25 -5.45Q-18.95 -5.05 -19.45 -4.9Q-20 -4.75 -20.15 -5.1M-17.7 -5.7L-17.6 -6.1L-17.2 -6.05Q-17 -5.8 -17.3 -5.65L-17.7 -5.7M-9.9 -9.55Q-10.2 -10.1 -9.7 -10.4Q-9.2 -10.7 -8.85 -10.25Q-8.45 -9.75 -9.05 -9.4Q-9.6 -9 -9.9 -9.55M-9.15 -11.6Q-9.55 -12.15 -8.95 -12.6Q-8.3 -13 -8 -12.35Q-7.7 -11.75 -8.2 -11.35Q-8.7 -11 -9.15 -11.6M-28.95 1.15Q-29.1 0.85 -28.85 0.7L-28.4 0.8Q-28.2 1.05 -28.5 1.25L-28.95 1.15M-31.25 0.9Q-31.55 0.5 -31.1 0.2Q-30.7 -0.05 -30.45 0.35Q-30.25 0.8 -30.6 1.05Q-30.95 1.3 -31.25 0.9" />
</g>
</svg>
