<?xml version="1.0" encoding="utf-8"?>
<svg version="1.1" id="Layer_1"
xmlns="http://www.w3.org/2000/svg"
xmlns:xlink="http://www.w3.org/1999/xlink"
width="171px" height="59px"
xml:space="preserve">
<g id="PathID_2187" transform="matrix(1, 0, 0, 1, 85.8, 37.85)">
<path style="fill:none;stroke-width:0.7;stroke-linecap:round;stroke-linejoin:round;stroke-miterlimit:3;stroke:#000000;stroke-opacity:0.301961" d="M-85.8 -37.85Q7.4 37.85 84.5 -35.15" />
</g>
<g id="PathID_2188" transform="matrix(1, 0, 0, 1, 85.8, 37.85)">
<path style="fill:#FFB358;fill-opacity:1" d="M-53.05 -14.2L-52.3 -15.95L-37.35 -9.2L-38.15 -7.3L-53.05 -14.2" />
<linearGradient
id="LinearGradID_1148" gradientUnits="userSpaceOnUse" gradientTransform="matrix(0.00679016, 0.00328064, -0.00668335, 0.0138245, -50.55, -3.9)" spreadMethod ="pad" x1="-819.2" y1="0" x2="819.2" y2="0" >
<stop  offset="0" style="stop-color:#FF981C;stop-opacity:1" />
<stop  offset="1" style="stop-color:#E0871C;stop-opacity:1" />
</linearGradient>
<path style="fill:url(#LinearGradID_1148) " d="M-38.15 -7.3L-46.5 11L-51.65 2.1L-61.5 4.2L-53.05 -14.2L-38.15 -7.3" />
<path style="fill:none;stroke-width:0.7;stroke-linecap:round;stroke-linejoin:round;stroke-miterlimit:3;stroke:#000000;stroke-opacity:0.4" d="M-53.05 -14.2L-52.3 -15.95L-37.35 -9.2L-38.15 -7.3L-46.5 11L-51.65 2.1L-61.5 4.2L-53.05 -14.2z" />
</g>
<g id="PathID_2189" transform="matrix(1, 0, 0, 1, 85.8, 37.85)">
<path style="fill:#C1FF8E;fill-opacity:1" d="M-32.1 -5.25L-31.75 -7.1L-15.8 -2.95L-16.35 -0.95L-32.1 -5.25" />
<linearGradient
id="LinearGradID_1149" gradientUnits="userSpaceOnUse" gradientTransform="matrix(0.0128174, 0, 0, 0.0144653, -26.85, 6.6)" spreadMethod ="pad" x1="-819.2" y1="0" x2="819.2" y2="0" >
<stop  offset="0" style="stop-color:#94D95A;stop-opacity:1" />
<stop  offset="1" style="stop-color:#74AD44;stop-opacity:1" />
</linearGradient>
<path style="fill:url(#LinearGradID_1149) " d="M-16.35 -0.95L-21.4 18.45L-28.05 10.6L-37.35 14.4L-32.1 -5.25L-16.35 -0.95" />
<path style="fill:none;stroke-width:0.7;stroke-linecap:round;stroke-linejoin:round;stroke-miterlimit:3;stroke:#000000;stroke-opacity:0.4" d="M-32.1 -5.25L-31.75 -7.1L-15.8 -2.95L-16.35 -0.95L-21.4 18.45L-28.05 10.6L-37.35 14.4L-32.1 -5.25z" />
</g>
<g id="PathID_2190" transform="matrix(1, 0, 0, 1, 85.8, 37.85)">
<path style="fill:#FFB358;fill-opacity:1" d="M15.3 0.75L15.05 -1.15L31.35 -3.15L31.6 -1.15L15.3 0.75" />
<linearGradient
id="LinearGradID_1150" gradientUnits="userSpaceOnUse" gradientTransform="matrix(0.00749207, -0.000747681, 0.00151062, 0.015274, 22.8, 8.3)" spreadMethod ="pad" x1="-819.2" y1="0" x2="819.2" y2="0" >
<stop  offset="0" style="stop-color:#FF981C;stop-opacity:1" />
<stop  offset="1" style="stop-color:#E0871C;stop-opacity:1" />
</linearGradient>
<path style="fill:url(#LinearGradID_1150) " d="M31.6 -1.15L34.05 18.85L25.05 13.95L17.7 20.9L15.3 0.75L31.6 -1.15" />
<path style="fill:none;stroke-width:0.7;stroke-linecap:round;stroke-linejoin:round;stroke-miterlimit:3;stroke:#000000;stroke-opacity:0.4" d="M15.3 0.75L15.05 -1.15L31.35 -3.15L31.6 -1.15L34.05 18.85L25.05 13.95L17.7 20.9L15.3 0.75z" />
</g>
<g id="PathID_2191" transform="matrix(1, 0, 0, 1, 85.8, 37.85)">
<path style="fill:#C1FF8E;fill-opacity:1" d="M36.55 -2.8L35.75 -4.5L50.7 -11.4L51.6 -9.5L36.55 -2.8" />
<linearGradient
id="LinearGradID_1151" gradientUnits="userSpaceOnUse" gradientTransform="matrix(0.00990295, -0.00814819, 0.00920105, 0.0111694, 48.25, 3)" spreadMethod ="pad" x1="-819.2" y1="0" x2="819.2" y2="0" >
<stop  offset="0" style="stop-color:#94D95A;stop-opacity:1" />
<stop  offset="1" style="stop-color:#74AD44;stop-opacity:1" />
</linearGradient>
<path style="fill:url(#LinearGradID_1151) " d="M51.6 -9.5L59.95 8.65L49.85 6.85L45.1 15.7L36.55 -2.8L51.6 -9.5" />
<path style="fill:none;stroke-width:0.7;stroke-linecap:round;stroke-linejoin:round;stroke-miterlimit:3;stroke:#000000;stroke-opacity:0.4" d="M36.55 -2.8L35.75 -4.5L50.7 -11.4L51.6 -9.5L59.95 8.65L49.85 6.85L45.1 15.7L36.55 -2.8z" />
</g>
<g id="PathID_2192" transform="matrix(1, 0, 0, 1, 85.8, 37.85)">
<path style="fill:#FFFFFF;fill-opacity:1" d="M-71.3 -24.4L-70.4 -26L-56.15 -17.8L-57.2 -16L-71.3 -24.4" />
<linearGradient
id="LinearGradID_1152" gradientUnits="userSpaceOnUse" gradientTransform="matrix(0.00640869, 0.00393677, -0.00802612, 0.013092, -69.8, -13.9)" spreadMethod ="pad" x1="-819.2" y1="0" x2="819.2" y2="0" >
<stop  offset="0" style="stop-color:#E0DCDC;stop-opacity:1" />
<stop  offset="1" style="stop-color:#D7D5D5;stop-opacity:1" />
</linearGradient>
<path style="fill:url(#LinearGradID_1152) " d="M-57.2 -16L-67.25 1.4L-71.55 -7.95L-81.55 -6.95L-71.3 -24.4L-57.2 -16" />
<path style="fill:none;stroke-width:0.7;stroke-linecap:round;stroke-linejoin:round;stroke-miterlimit:3;stroke:#000000;stroke-opacity:0.4" d="M-71.3 -24.4L-70.4 -26L-56.15 -17.8L-57.2 -16L-67.25 1.4L-71.55 -7.95L-81.55 -6.95L-71.3 -24.4z" />
</g>
<g id="PathID_2193" transform="matrix(1, 0, 0, 1, 85.8, 37.85)">
<path style="fill:#FFFFFF;fill-opacity:1" d="M-66.05 -20.65Q-64.6 -19.95 -65.05 -18.4Q-63.55 -19.8 -62.4 -18.1Q-61.75 -16.35 -64.8 -15.1Q-67.9 -13.95 -68.15 -16.55Q-68.35 -21.3 -66.05 -20.65M-69.5 -14.2L-72.7 -13.9Q-74.05 -14.3 -73.8 -15.8Q-73.6 -16.4 -72.7 -16.65L-71.8 -16.7Q-72.45 -18.8 -71.4 -19.25Q-69.8 -20.05 -68.5 -16.25Q-68.15 -14.6 -69.5 -14.2M-72.45 -12.2L-70.15 -13.5Q-67.95 -14.35 -67.7 -11.95Q-67.35 -8.3 -68.95 -7.75L-69.8 -7.7Q-70.7 -8.05 -70.65 -9.25L-70.6 -9.95Q-70.8 -9.75 -71.1 -9.7Q-72.25 -9.25 -73.25 -9.95Q-74.05 -11.05 -72.45 -12.2M-67.25 -11.95Q-67.9 -14.3 -65.45 -14.6Q-60.55 -15 -61.7 -12.3Q-62.35 -11.45 -63.6 -11.45Q-62.6 -9.1 -64.6 -8.85Q-66.45 -9 -67.25 -11.95" />
</g>
<g id="PathID_2194" transform="matrix(1, 0, 0, 1, 85.8, 37.85)">
<path style="fill:#FFFFFF;fill-opacity:1" d="M-52.6 -8.65Q-51.2 -9.55 -49.7 -6.2Q-49.2 -4.75 -50.35 -4.2Q-52.35 -3.45 -53.3 -3.7Q-54.55 -3.9 -54.5 -5.4Q-54.35 -5.9 -53.55 -6.2L-52.75 -6.35Q-53.45 -8.15 -52.6 -8.65M-52.95 -2.15L-50.95 -3.6Q-49 -4.55 -48.55 -2.35Q-47.9 1 -49.4 1.6L-50.1 1.7Q-51 1.45 -51.05 0.35L-51.05 -0.3L-51.45 0.05L-53.45 -0.05Q-54.3 -1 -52.95 -2.15M-47.85 -10.4Q-46.4 -9.9 -46.75 -8.5Q-45.5 -9.9 -44.3 -8.4Q-43.5 -6.85 -46.15 -5.5Q-48.95 -4.2 -49.3 -6.5Q-49.95 -10.85 -47.85 -10.4M-46.75 -5Q-42.3 -5.75 -43.15 -3.2Q-43.65 -2.35 -44.8 -2.25Q-43.65 -0.25 -45.45 0.2Q-47.2 0.2 -48.15 -2.35Q-48.95 -4.5 -46.75 -5" />
</g>
<g id="PathID_2195" transform="matrix(1, 0, 0, 1, 85.8, 37.85)">
<path style="fill:#FFFFFF;fill-opacity:1" d="M-24.45 -0.55Q-23.5 -2.1 -22 -0.95Q-20.95 0.4 -23.4 2.3Q-25.8 4.1 -26.65 1.9Q-28.05 -2.35 -25.85 -2.25Q-24.45 -1.95 -24.45 -0.55M-23.8 2.95Q-19.6 1.3 -19.95 3.95Q-20.35 4.95 -21.4 5.25Q-19.85 7 -21.6 7.7Q-23.2 8.1 -24.7 5.65Q-25.85 3.75 -23.8 2.95M-27.3 4.2Q-29.15 5.4 -30.05 5.4Q-31.35 5.3 -31.55 3.9Q-31.45 3.4 -30.75 2.95L-29.95 2.65Q-31.1 1 -30.25 0.35Q-29 -0.8 -26.95 2.2Q-26.1 3.65 -27.3 4.2M-29.45 9Q-30.55 8.2 -29.4 6.8L-27.65 5.05Q-25.95 3.7 -25.15 5.75Q-23.85 9 -25.15 9.8Q-25.55 10.1 -25.85 10.1Q-26.85 10 -27.05 9L-27.15 8.3L-27.55 8.6Q-28.45 9.35 -29.45 9" />
</g>
<g id="PathID_2196" transform="matrix(1, 0, 0, 1, 85.8, 37.85)">
<path style="fill:#FFFFFF;fill-opacity:1" d="M26.05 4.55Q24.5 7.1 22.9 5.4Q20.05 2.05 22.15 1.25Q23.55 0.95 24.05 2.3Q24.4 0.4 26.2 1Q27.7 1.9 26.05 4.55M30 4.85Q30 5.85 29.05 6.55Q31.1 7.7 29.75 8.9Q28.4 9.9 26.15 8.15Q24.35 6.85 25.95 5.3Q29.3 2.2 30 4.85M21.05 9.9Q19.8 10.35 19.15 9.05Q19 8.55 19.5 7.85L20.15 7.3Q18.55 6.15 19 5.3Q19.75 3.75 22.8 5.85Q24 6.8 23.25 7.85Q21.9 9.55 21.05 9.9M24.6 11.95Q24 13 22.9 13.05Q21.6 12.65 22.2 11Q22.45 10.1 23.15 8.75Q24.25 6.8 25.75 8.4Q28.05 10.9 27.25 12.2L26.65 12.7Q25.75 13 25.15 12.1L24.85 11.5L24.6 11.95" />
</g>
<g id="PathID_2197" transform="matrix(1, 0, 0, 1, 85.8, 37.85)">
<path style="fill:#FFFFFF;fill-opacity:1" d="M51.7 -3.2Q52.05 -2.3 51.4 -1.3Q53.65 -0.95 52.8 0.75Q51.85 2.05 49.05 1.05Q47 0.5 48.05 -1.6Q50.3 -5.6 51.7 -3.2M45.15 -0.55Q41.4 -2.85 43.1 -4.2Q44.45 -4.95 45.4 -3.85Q45 -5.7 46.9 -5.7Q48.6 -5.3 47.9 -2.35Q47.25 0.6 45.15 -0.55M51.05 5.25Q50.3 5.75 49.45 5.1L48.95 4.65L48.9 5.2Q48.6 6.35 47.5 6.75Q46.3 6.75 46.25 4.95Q46.15 3.95 46.45 2.55Q46.95 0.4 48.8 1.45Q51.85 3.1 51.4 4.6L51.05 5.25M42.8 4.1Q42.5 3.7 42.75 2.85L43.2 2.15Q41.2 1.6 41.45 0.6Q41.65 -1.05 45.2 -0.1Q46.7 0.4 46.3 1.65Q45.55 3.7 44.9 4.3Q43.85 5.1 42.8 4.1" />
</g>
<g id="PathID_2198" transform="matrix(1, 0, 0, 1, 85.8, 37.85)">
<path style="fill:#FFFFFF;fill-opacity:1" d="M-7.5 0.1L-7.5 -1.7L8.95 -1.3L8.85 0.8L-7.5 0.1" />
<linearGradient
id="LinearGradID_1153" gradientUnits="userSpaceOnUse" gradientTransform="matrix(0.00750732, 0.000427246, -0.00088501, 0.0153351, -1.25, 8.6)" spreadMethod ="pad" x1="-819.2" y1="0" x2="819.2" y2="0" >
<stop  offset="0" style="stop-color:#E0DCDC;stop-opacity:1" />
<stop  offset="1" style="stop-color:#D7D5D5;stop-opacity:1" />
</linearGradient>
<path style="fill:url(#LinearGradID_1153) " d="M8.85 0.8L8.2 20.9L-0.05 14.65L-8.35 20.25L-7.5 0.1L8.85 0.8" />
<path style="fill:none;stroke-width:0.7;stroke-linecap:round;stroke-linejoin:round;stroke-miterlimit:3;stroke:#000000;stroke-opacity:0.4" d="M8.85 0.8L8.2 20.9L-0.05 14.65L-8.35 20.25L-7.5 0.1L-7.5 -1.7L8.95 -1.3L8.85 0.8z" />
</g>
<g id="PathID_2199" transform="matrix(1, 0, 0, 1, 85.8, 37.85)">
<path style="fill:#FFFFFF;fill-opacity:1" d="M6.6 6.2Q6.5 7.3 5.3 7.9Q7.3 9.35 5.65 10.6Q3.95 11.35 1.9 9.2Q0.25 7.35 2.25 5.95Q6.4 3.25 6.6 6.2M2.6 5.2Q0.35 7.65 -1.05 5.5Q-3.5 1.45 -1.2 0.95Q0.4 0.8 0.75 2.4Q1.4 0.5 3.25 1.45Q4.7 2.65 2.6 5.2M0.15 13.15L-0.15 12.45Q-0.15 12.8 -0.5 12.9Q-1.25 13.9 -2.5 13.7Q-3.7 13.15 -2.8 11.35L-1.45 9.1Q0.1 7.35 1.5 9.35Q3.5 12.4 2.3 13.6L1.65 14.1Q0.7 14.2 0.15 13.15M-5.2 7.55L-4.4 7.05Q-5.9 5.55 -5.25 4.65Q-4.2 3.2 -1.3 5.95Q-0.15 7.25 -1.2 8.2Q-2.85 9.9 -3.85 10Q-5.2 10.35 -5.75 8.85Q-5.85 8.2 -5.2 7.55" />
</g>
<g id="PathID_2200" transform="matrix(1, 0, 0, 1, 85.8, 37.85)">
<path style="fill:#FFFFFF;fill-opacity:1" d="M57 -11.75L55.9 -13.25L69.3 -22.8L70.55 -21.05L57 -11.75" />
<linearGradient
id="LinearGradID_1154" gradientUnits="userSpaceOnUse" gradientTransform="matrix(0.00627136, -0.00416565, 0.00852966, 0.0127563, 67.2, -8.65)" spreadMethod ="pad" x1="-819.2" y1="0" x2="819.2" y2="0" >
<stop  offset="0" style="stop-color:#E0DCDC;stop-opacity:1" />
<stop  offset="1" style="stop-color:#D7D5D5;stop-opacity:1" />
</linearGradient>
<path style="fill:url(#LinearGradID_1154) " d="M70.55 -21.05L82.05 -4.65L71.75 -4.65L68.55 4.85L57 -11.75L70.55 -21.05" />
<path style="fill:none;stroke-width:0.7;stroke-linecap:round;stroke-linejoin:round;stroke-miterlimit:3;stroke:#000000;stroke-opacity:0.4" d="M57 -11.75L55.9 -13.25L69.3 -22.8L70.55 -21.05L82.05 -4.65L71.75 -4.65L68.55 4.85L57 -11.75z" />
</g>
<g id="PathID_2201" transform="matrix(1, 0, 0, 1, 85.8, 37.85)">
<path style="fill:#FFFFFF;fill-opacity:1" d="M71.95 -13.25Q74.5 -13.25 73.9 -11.3Q73 -9.65 69.95 -10.3Q67.55 -10.6 68.35 -13Q70 -17.55 72 -15.45Q72.45 -14.45 71.95 -13.25M68.1 -13.75Q67.9 -10.45 65.45 -11.3Q61 -13.1 62.55 -14.9Q63.85 -16 65.05 -14.9Q64.35 -16.85 66.45 -17.2Q68.25 -17.05 68.1 -13.75M69.8 -9.85Q73.3 -8.6 73.05 -6.85L72.8 -6.1Q72.05 -5.4 71 -5.95L70.4 -6.35L70.4 -5.75Q70.35 -4.55 69.25 -3.95Q67.95 -3.65 67.5 -5.6Q67.35 -6.6 67.35 -8.3Q67.5 -10.6 69.8 -9.85M61.55 -9.45Q61.55 -11.25 65.5 -10.85Q67.25 -10.55 67 -9.1Q66.6 -6.8 65.95 -6.05Q65 -5 63.7 -5.9Q63.25 -6.35 63.45 -7.2L63.75 -8.1Q61.55 -8.35 61.55 -9.45" />
</g>
</svg>
