<?xml version="1.0" encoding="utf-8"?>
<svg version="1.1" id="Layer_1"
xmlns="http://www.w3.org/2000/svg"
xmlns:xlink="http://www.w3.org/1999/xlink"
width="5px" height="5px"
xml:space="preserve">
<g id="PathID_1233" transform="matrix(1, 0, 0, 1, -22.85, 99.3)">
<path style="fill:#F0C384;fill-opacity:1" d="M26.35 -98.95L23.5 -99.05L22.85 -99.2L25.05 -99.3L27.8 -99.15L26.35 -98.95" />
<path style="fill:#CC9449;fill-opacity:1" d="M24.7 -95L24.05 -95.5L22.85 -99.2L23.5 -99.05L24.7 -95" />
<path style="fill:#4D381B;fill-opacity:1" d="M26.35 -98.95L27.8 -99.15L27.1 -95.85Q26.75 -94.9 26 -94.9Q26.75 -98.15 26.35 -98.95" />
<path style="fill:#966F36;fill-opacity:1" d="M26 -94.9L24.7 -95L23.5 -99.05L26.35 -98.95Q26.75 -98.15 26 -94.9" />
<path style="fill:none;stroke-width:0.7;stroke-linecap:round;stroke-linejoin:round;stroke-miterlimit:3;stroke:#000000;stroke-opacity:0.301961" d="M27.8 -99.15L25.05 -99.3L22.85 -99.2" />
<path style="fill:none;stroke-width:0.7;stroke-linecap:round;stroke-linejoin:round;stroke-miterlimit:3;stroke:#000000;stroke-opacity:0.301961" d="M27.8 -99.15L27.1 -95.85Q26.75 -94.9 26 -94.9L24.7 -95L24.05 -95.5L22.85 -99.2" />
</g>
</svg>
