<?xml version="1.0" encoding="utf-8"?>
<svg version="1.1" id="Layer_1"
xmlns="http://www.w3.org/2000/svg"
xmlns:xlink="http://www.w3.org/1999/xlink"
width="72px" height="92px"
xml:space="preserve">
<g id="PathID_1177" transform="matrix(1, 0, 0, 1, 0, 0)">
<radialGradient
id="RadialGradID_583" gradientUnits="userSpaceOnUse" gradientTransform="matrix(0.0608368, 0, 0, 0.0643463, 19.9, 17.3)" spreadMethod ="pad" cx="0" cy="0" r="819.2" fx="0" fy="0" >
<stop  offset="0"  style="stop-color:#FFFFFF;stop-opacity:0.890196" />
<stop  offset="1"  style="stop-color:#FFFFFF;stop-opacity:0" />
</radialGradient>
<path style="fill:url(#RadialGradID_583) " d="M71.1 7.25L66.45 7.25L66.45 10.85L71.1 10.85L71.1 88L14.4 88Q17.25 89.9 14.25 91.9L6 91.9Q4.8 91.2 4.9 90.15L5 89.75Q5.3 88.55 6.8 88Q7.75 87.15 7.1 85.25Q5.85 84.9 4.8 84.3Q2.7 83.05 2.7 81.3Q2.7 80.95 3 80.5L3.3 79.9L3.95 79.25L5.2 78.1Q4.15 77.95 4.5 77.25Q4.6 77 4.85 76.8Q5.3 76.45 6.15 76.35Q7 76.2 7 73.9L6.95 73.4Q6.9 71.65 6.4 70.85Q6.1 70.35 5.65 70.2L4.65 70.2Q3.25 68.8 3.8 66.5Q1.3 66.75 0.65 65.45Q0.7 63.75 1.95 63.3L4.1 62.95L5.1 62.85L5.1 53.3Q5.05 52.35 5.6 51.55Q6.1 50.7 7.2 50.45L7.15 21.35Q4.55 19 0 18.9L9.15 18.9L9.15 14.25L7.9 14.25L7.9 13L11.2 13Q10.3 12.85 9.55 12.25L9.4 12.1Q8.7 11.45 8.7 10.6Q8.7 9.6 9.55 8.85Q10.45 8.15 11.65 8.15Q12.85 8.15 13.7 8.85Q14.55 9.6 14.55 10.6Q14.55 11.6 13.7 12.25Q12.95 13 11.9 13L15.1 13L15.45 13.45Q15.6 13.85 15.1 14.25L47.25 14.25L47.25 13.15Q45.65 10.95 43.6 10.85L46.25 10.85L46.25 6.1L45 6.1L45 4.9L48.55 4.9L48.25 4.85Q47.35 4.7 46.65 4.15L46.45 4Q45.8 3.35 45.8 2.45Q45.8 1.45 46.65 0.7Q47.5 0 48.7 0Q49.9 0 50.8 0.7Q51.65 1.45 51.65 2.45Q51.65 3.45 50.8 4.15Q49.95 4.85 48.8 4.9L52.15 4.9L52.55 5.3Q52.7 5.7 52.15 6.1L71.1 6.1L71.1 7.25M64.1 10.85L64.1 7.25L61.45 7.25L61.45 10.85L64.1 10.85M53.35 7.25L51.25 7.25L51.25 10.85L53.35 10.85L53.35 7.25M58.65 7.25L55.9 7.25L55.9 10.85L58.65 10.85L58.65 7.25M43.65 15.75L40.1 15.75L40.1 18.9L43.65 18.9L43.65 15.75M47.25 15.75L45.45 15.75L45.45 18.9L47.25 18.9L47.25 15.75M30.35 15.75L25.65 15.75L25.65 18.9L30.35 18.9L30.35 15.75M23.75 15.75L19.9 15.75L19.9 18.9L23.75 18.9L23.75 15.75M37.5 18.9L37.5 15.75L32.8 15.75L32.8 18.9L37.5 18.9M14.15 15.75L14.15 18.9L17.45 18.9L17.45 15.75L14.15 15.75" />
</g>
</svg>
