<?xml version="1.0" encoding="utf-8"?>
<svg version="1.1" id="Layer_1"
xmlns="http://www.w3.org/2000/svg"
xmlns:xlink="http://www.w3.org/1999/xlink"
width="153px" height="53px"
xml:space="preserve">
<g id="PathID_853" transform="matrix(1, 0, 0, 1, 76.4, 26.4)">
<path style="fill:#E2E1DE;fill-opacity:0.65098" d="M7.4 -2.95Q7.7 -3.25 11.05 -4.35Q14.4 -5.45 19 -10.35Q4.5 -10.7 3.7 -8.95Q2.9 -7.25 4.9 -5.35L7.4 -2.95M8.55 -0.2Q14.95 -3.25 23.65 -2.15Q22.6 -7.2 18.75 -6.65Q17 -6.1 12.9 -3.35Q9.3 -0.95 8.55 -0.2M27.25 -2.7Q25.4 0.2 24.95 4.45Q35.95 5.65 43.7 11.85Q41.75 -7.45 38.65 -10.75Q36.3 -11.6 35.25 -8.15Q34.75 -4 35.25 6.65Q32.35 -6.45 31.15 -6.65Q29.8 -6.85 27.25 -2.7M21.3 -12.95Q32.65 -14.3 44.15 -17Q60.6 -20.85 76.4 -26.15Q74.2 -23.7 71.6 -18.45L69.4 -13.7Q57.5 -26.75 57.35 -3.4Q56.55 -9.35 55.65 -10.55Q52.75 -12.5 50.3 -9.75Q47.75 -7 46.35 4.95Q46.05 7.55 45.5 15.5Q44.85 24.1 44.9 26.45L43.85 13.1Q34.5 6.5 24.9 4.95L24.8 8.3L24.5 4.85Q14.3 3.3 3.8 7.35Q2.8 10.3 2.9 13.6Q2.35 3.15 0.55 -3.45Q-3.05 -16.6 -9.3 0.3L-9.85 13.55Q-10.3 -4.8 -15.35 -2.6Q-17.55 -1.55 -19.6 9.2L-18.85 4.75Q-18.5 2.55 -19.2 1.95Q-21.25 0.25 -24.05 -0.15Q-26.75 -0.55 -28 0.55Q-34.25 6.4 -37.15 25.1Q-37.4 4.65 -39.05 -1.55Q-44.55 -6.45 -47.1 -3.85L-48.95 -0.65Q-51.1 -20.85 -56.2 -0.65Q-58.55 -4.7 -61.95 -8.55L-64 -5.7Q-66.65 -17.7 -76.4 -26.25L-75.5 -26.4Q-69.3 -23.8 -63 -21.65L-43.05 -17.95Q-25.65 -15.05 5.3 -12.95L21.3 -12.95M20.15 -2Q15.05 -1.75 7.1 1.4L5.3 4.2L4.4 5.9Q15.5 3.5 24.45 4.4L23.75 -1.55L20.15 -2M48.6 -11.9Q48.6 -14.2 46.8 -11.9Q44.95 -9.6 44.95 -8.1Q44.95 -6.75 45.1 -6.2L45.45 -6.15Q45.7 -6.15 47.15 -8.85L48.6 -11.9M54.6 -11.95L52.65 -14.2Q50.55 -12.9 49.05 -9.85Q51.35 -12.05 54.6 -11.95M69.5 -17.75L70.25 -19.75Q70.25 -21 69.3 -20.7L67 -19.25L67.05 -18.95Q68.05 -17.95 69.5 -17.75M-60.3 -14.8Q-61.75 -14.85 -61.75 -13.75Q-58.4 -8 -57.8 -7.95Q-57.35 -7.9 -56.7 -10.15Q-56.05 -12.3 -56.05 -13.3Q-58.75 -14.75 -60.3 -14.8M-47.15 -7.35Q-46.5 -6.35 -44.25 -8.2Q-42 -10.05 -42.1 -11.25Q-42.25 -12.45 -43 -13.8Q-43.75 -15.15 -51.5 -15.8Q-51.5 -12.75 -50.25 -11.35L-48.35 -8.9L-47.6 -7.8L-47.45 -7.45L-47.15 -7.35M-56.35 -19.55Q-23.25 -9.55 11.35 -12Q-28.05 -14.35 -42.5 -16.6Q-46.65 -17.25 -56.35 -19.55M-37.85 -2.9Q-37.2 -0.25 -34.65 -0.25Q-30.85 -2.4 -29.05 -7.7Q-27.25 -13.05 -31.8 -11.15Q-36.35 -9.25 -37.45 -7.4Q-38.55 -5.6 -37.85 -2.9M-29.65 -2.35Q-30.6 -2.7 -33.25 -0.25Q-35.9 2.2 -36.5 4Q-37.1 5.75 -35.65 9.55Q-29.15 -1.3 -29.15 -1.7Q-29.15 -2.15 -29.65 -2.35M-21 -1L-19.1 -0.35Q-18.9 -2.6 -21.15 -3.8Q-23.35 -2.95 -25.15 -1.7Q-23.3 -1.8 -21 -1M-39.45 -2.85Q-41.9 -10.3 -46.05 -5.25Q-42.5 -5.1 -39.45 -2.85" />
</g>
</svg>
