<?xml version="1.0" encoding="utf-8"?>
<svg version="1.1" id="Layer_1"
xmlns="http://www.w3.org/2000/svg"
xmlns:xlink="http://www.w3.org/1999/xlink"
width="541px" height="440px"
xml:space="preserve">
<g id="PathID_1613" transform="matrix(1, 0, 0, 1, 28.7, 3)">
<path style="fill:#0A0806;fill-opacity:1" d="M331.5 122.6Q327.8 121.2 326.35 118.15Q325.15 115.6 323.9 115.6L322.1 115.85Q321 116.2 321 116.85L321.5 121.25L321.95 126.4L319.85 128.25Q319.6 120.85 313.95 116.65Q306.95 111.45 292.25 111.45Q282.4 111.45 275.35 114.3Q268.2 117.2 260.65 124.35Q261 120.85 258.25 115.75Q255.95 111.45 253.65 109.45L261.95 104.3Q266.2 101.6 276.1 96.8Q287.6 91.25 295.6 88.5L301.05 86.65L311.15 83.65Q326.6 79.5 345.7 77.5L365.85 76.15Q375.25 76.15 375.25 79.55Q375.25 81.35 374.15 83.25L369.55 89.85Q366.7 93.75 355.35 104.8Q342.05 117.75 337.2 119.3L331.5 122.6M191.5 177.15Q180.4 181.7 169.9 181.7Q161.4 181.7 161.4 177.75Q161.4 176.05 164.05 172.55Q168.2 167.1 176.35 162.8Q179.7 168.15 184.9 172.75Q189.4 176.75 191.5 177.15M194.7 87.2Q194.4 87.2 193.75 86.85L192 85.4Q191.95 88.25 190.55 91.75Q189.35 94.7 188.35 95.8Q185.85 97.1 180.25 104.25Q174.85 111.1 170.15 118.75Q165 117.55 163.75 108.5Q163.15 97.25 162.35 92.25Q163.25 95.2 165.6 97.4Q167.45 99.05 168.2 99.05Q174 99.05 179.35 90.85Q185.65 81.15 188.1 63.7Q189.15 66.3 195.5 66.65Q201.55 66.95 202.75 65.4L201.7 69.55Q199.2 78.65 196.45 86.05M238.7 88.6Q232.85 92.5 230.8 94.7Q226.05 92.15 217.8 90.95L210.15 90.2L205.6 90.5L199.15 91.25L196.45 86.05Q195.7 87.2 194.7 87.2Q199.2 78.65 201.7 69.55Q203.15 76.95 211.6 81.85Q219.4 86.3 228.45 86.3Q233.95 86.3 238.4 83.45L245.8 77.25Q250.55 73.15 255.4 71.4Q262.2 68.9 271.9 69.45L258.9 73.4Q251.4 76.6 252.1 81.2Q245.8 83.8 238.7 88.6M188.1 63.7Q188.15 69.15 189.7 76.9Q191.1 83.75 192 85.4Q191.1 83.75 189.7 76.9Q188.15 69.15 188.1 63.7" />
<linearGradient
id="LinearGradID_867" gradientUnits="userSpaceOnUse" gradientTransform="matrix(-0.0102539, 0.0177612, -0.0360565, -0.020813, 337.55, 149.65)" spreadMethod ="pad" x1="-819.2" y1="0" x2="819.2" y2="0" >
<stop  offset="0" style="stop-color:#4F3A27;stop-opacity:1" />
<stop  offset="1" style="stop-color:#302217;stop-opacity:1" />
</linearGradient>
<path style="fill:url(#LinearGradID_867) " d="M330.2 181.4L336.1 174.45Q334.85 175.45 324.25 177.45L320.75 174.45Q326.5 170.85 330.1 159.55L332.6 148.5L332.5 147.5Q331.4 144.3 329.85 143.2Q327.75 142.1 326.1 140.75L321.95 126.4L321.5 121.25L321 116.85Q321 116.2 322.1 115.85L323.9 115.6Q325.15 115.6 326.35 118.15Q327.8 121.2 331.5 122.6L337.2 119.3L346.05 129.4Q341.65 129.95 339.3 131.6Q336.85 133.3 336.85 135.95Q336.85 136.9 337.9 140.45Q339.25 144.95 341.1 148.75Q346.85 160.3 354.6 159.45Q352.35 164.9 345.95 173.3Q340.6 180.35 336.95 183.75L330.2 181.4M331.5 122.6L332.55 124.4L332.95 125.55L332.55 124.4L331.5 122.6M325.5 133.4L321.95 126.4L325.5 133.4" />
<linearGradient
id="LinearGradID_868" gradientUnits="userSpaceOnUse" gradientTransform="matrix(0.0180969, -0.0104523, 0.00920105, 0.0159302, 352.65, 137.2)" spreadMethod ="pad" x1="-819.2" y1="0" x2="819.2" y2="0" >
<stop  offset="0" style="stop-color:#78583A;stop-opacity:1" />
<stop  offset="0.94902" style="stop-color:#9F7651;stop-opacity:1" />
<stop  offset="1" style="stop-color:#A17752;stop-opacity:1" />
</linearGradient>
<path style="fill:url(#LinearGradID_868) " d="M346.05 129.4Q350.25 137 353.75 145.95L356.4 153.6Q356.4 155.7 354.6 159.45Q346.85 160.3 341.1 148.75Q339.25 144.95 337.9 140.45Q336.85 136.9 336.85 135.95Q336.85 133.3 339.3 131.6Q341.65 129.95 346.05 129.4" />
<linearGradient
id="LinearGradID_869" gradientUnits="userSpaceOnUse" gradientTransform="matrix(-0.00265503, -0.0241089, 0.0249481, -0.00274658, 290.3, 122.05)" spreadMethod ="pad" x1="-819.2" y1="0" x2="819.2" y2="0" >
<stop  offset="0" style="stop-color:#78583A;stop-opacity:1" />
<stop  offset="1" style="stop-color:#A17752;stop-opacity:1" />
</linearGradient>
<path style="fill:url(#LinearGradID_869) " d="M273.25 126.1Q285.4 122.55 295.55 122.55Q302.5 122.55 311.6 127.6Q319.85 132.2 321.85 135.9Q323.85 138.85 326.1 140.75Q327.75 142.1 329.85 143.2Q331.4 144.3 332.5 147.5L326.15 144.5L326.15 144.4L323.9 144.1Q321.15 144.15 317.9 145.3L315.85 146.4Q300.7 157.35 293.05 160.8Q286 164 278 164Q266.2 164 260.75 159.2Q255.85 154.9 255.85 146.4Q255.85 141.25 259.55 131.6Q263.15 129 273.25 126.1M285.6 126.8Q288.1 126.1 291 127.45Q293.5 128.6 294.4 130.1Q293.5 128.6 291 127.45Q288.1 126.1 285.6 126.8" />
<path style="fill:#EAC39A;fill-opacity:1" d="M390.9 205.85Q390 204.15 388.2 203.6L386.45 203.35Q384.3 203.35 381.6 206.4Q377.9 210.6 376.55 218.3L373.55 221.6L374.6 215.7Q375.25 211.15 378.1 205.65Q380.85 200.2 383.2 198.75Q385.25 194.75 388.65 193Q390.85 191.9 392.95 191.9Q395.85 191.9 397.25 195.7Q393.6 194.5 390.55 195.8Q388.5 196.65 387.25 198.25L389.75 199.25L392.15 200.3Q392.5 200.5 392.3 201.75L391.7 204.25L390.9 205.85M324.85 146.9Q323.7 148.65 323.25 148.65Q317.45 147.15 315.85 146.4L317.9 145.3Q320 146.35 321.2 146.35L323 145.95Q324.9 145.4 326.15 144.5L326.15 144.6L324.85 146.9M387.25 198.25L385.2 198.35L383.2 198.75L385.2 198.35L387.25 198.25M274.6 268.7L274.5 268.7L274.6 268.65L274.6 268.7" />
<path style="fill:#B58658;fill-opacity:1" d="M326.15 144.6Q326.55 145.95 326.55 146.95Q326.55 148.25 325.5 149.75Q324.55 151.15 324 151.15L320.25 149.1L315.85 146.4Q317.45 147.15 323.25 148.65Q323.7 148.65 324.85 146.9L326.15 144.6" />
<path style="fill:#4F3A27;fill-opacity:1" d="M373.55 221.6L373.3 221.85Q358.05 215.65 352.6 209.8Q349.85 206.8 349.7 203.3Q360 203.3 367.3 206.95Q374.6 210.55 374.6 215.7L373.55 221.6M247.8 162.1Q246.4 162.9 245.1 164.75Q243.55 166.85 244 168.15Q242.65 167.05 240.95 160.55Q239.35 154.5 239.5 152.95Q237.45 154.1 235.75 155.6L234.1 158L235.15 154.05L236.35 150.2L239.05 146.55L234.9 146L230.6 145.85L227 146.15L225.6 146.05L229.3 142.65Q231.65 140.6 237.2 138.6Q241.8 136.9 244.65 136.45Q245.85 137.35 247.9 138.1Q245.85 137.35 244.65 136.45Q243.15 134.9 240.25 128.4Q236.5 120 234.35 116.25Q225.15 100.4 211.45 100.45Q194.75 100.45 182.95 109.4Q171.15 118.3 171.15 130.95Q170.8 130.1 170.8 129.15Q170.8 116.8 180.75 106.5Q191.45 95.4 206.4 95.4Q221.65 95.4 231.05 101.3Q238.15 105.75 242.75 114.3Q245.3 119 248.7 127.25Q251.7 133.15 256.1 133.15Q257.55 133.15 259.55 131.6Q255.85 141.25 255.85 146.4Q255.85 154.9 260.75 159.2Q266.2 164 278 164Q286 164 293.05 160.8Q300.7 157.35 315.85 146.4L320.25 149.1L324 151.15Q324.55 151.15 325.5 149.75Q326.55 148.25 326.55 146.95Q326.55 145.95 326.15 144.6L326.15 144.5L332.5 147.5L332.6 148.5L330.1 159.55Q326.5 170.85 320.75 174.45L324.25 177.45Q321.7 179 320.3 181.5Q319.15 183.65 319.45 184.8Q314.9 184.4 309.05 186.35Q303.9 188.05 302.2 189.75Q306.6 188.8 310.3 189.75Q292.4 191.15 282.4 203.85Q272.75 216.2 272.75 233.75Q272.75 250.95 281.1 258.45Q289.6 266.1 309.35 266.1Q324.25 266.1 331.5 260.7Q339.05 255.1 339.05 243.25Q339.05 240.95 336.95 236.15Q334.9 231.4 332.7 228.6Q325.8 224.55 318.6 223.2L302.35 221.9Q300.45 221.5 297.6 217.85Q294.75 214.15 293.35 209.8Q295.55 214.85 306.8 217.55L319.25 220.1Q327.55 221.65 332.5 223.15Q337.7 224.7 342.65 228.45L350.45 235.25Q354.75 239.2 357.55 240.55Q361.5 242.5 365.7 241.35L364.5 236.7L366.75 237.7L369.2 238.55L372.5 238.2L369.2 238.55Q371.4 234.4 371 231L371.1 231.05L377.05 232.15Q377.05 234.55 376 236.3Q374.9 238 373.4 238L373.35 238L372.5 238.2L369.25 240.85L365.95 243.3L361.4 243.7L356.95 243.75L350.3 242.85L343.5 240.3L338.15 234.3L332.7 228.6L338.15 234.3L343.5 240.3L345.5 247.55L345.95 252.35Q346.15 255.85 345.65 258.85L344.25 264.8L344.2 264.85L341.1 270.7Q336.05 275 331.5 277.7Q327.6 280 325.3 280.45L325.4 280.45L317.55 281.35Q312.85 281.65 299.3 281.3L295.95 281.45Q288.9 278.1 282.85 274.5Q276.3 270.65 274.85 268.75L274.8 268.75L274.7 268.7L274.5 268.55Q268.15 257.55 266.1 251.05Q264.1 244.8 264.1 236.1Q264.1 227.45 271 205.8Q278.2 184.8 278.8 181.8Q272.6 181.55 265 178.15Q258.6 175.35 256.3 173L247.8 162.1M306.35 160.25Q305.45 158.7 304.45 158.7Q302.8 158.7 301.05 159.3Q298.95 159.95 297.75 161.2Q298.95 159.95 301.05 159.3Q302.8 158.7 304.45 158.7Q305.45 158.7 306.35 160.25Q306.65 164.95 309 167.85Q311.35 170.75 314.45 170.4Q317.5 170.05 319.55 166.7Q321.55 163.3 321.35 159.1L323.35 158.95L325.3 158.35L323.35 158.95L321.35 159.1Q320.65 158.55 319.65 158.55L315.9 160Q312.1 161.45 310.65 161.45Q308.85 161.45 306.35 160.25M320.75 174.45L316.45 176.75Q312.55 178.7 311.95 178.85Q312.55 178.7 316.45 176.75L320.75 174.45M286.9 182.2L278.8 181.8L286.9 182.2" />
<path style="fill:#EEE4D5;fill-opacity:1" d="M323 145.95L321.2 146.35Q320 146.35 317.9 145.3Q321.15 144.15 323.9 144.1L326.15 144.4L326.15 144.5Q324.9 145.4 323 145.95" />
<path style="fill:#ECEAB7;fill-opacity:1" d="M346.85 208.25Q347.7 211.3 348.15 212L343.3 208.6L339.8 204.15Q337.2 201 335 199.8L339.8 199.55Q338.4 199.4 333 197Q327.45 194.5 326.75 193.6L328.15 196.8Q329.55 200.25 329.95 201.95L303.4 196.95Q303.45 196.5 305.95 193.75Q308.65 190.75 310.3 189.75L316.65 189.35Q322.65 189.05 323.65 189.2L322.75 186.45L322.3 184.45Q323.8 178.7 324.25 177.45Q334.85 175.45 336.1 174.45L330.2 181.4L336.95 183.75L340.3 185.95L343.7 188.35L335.45 187.6L339.85 192.6L344.35 198.05L340.05 195.7L343.85 200.4L345.95 204.7L346.85 208.25" />
<path style="fill:#B0AD82;fill-opacity:1" d="M330.2 202L329.95 201.95Q329.55 200.25 328.15 196.8L326.75 193.6Q327.45 194.5 333 197Q338.4 199.4 339.8 199.55L335 199.8Q337.2 201 339.8 204.15L343.3 208.6L330.2 202M310.3 189.75Q306.6 188.8 302.2 189.75Q303.9 188.05 309.05 186.35Q314.9 184.4 319.45 184.8Q319.15 183.65 320.3 181.5Q321.7 179 324.25 177.45Q323.8 178.7 322.3 184.45L322.75 186.45L323.65 189.2Q322.65 189.05 316.65 189.35L310.3 189.75" />
<path style="fill:#4F3115;fill-opacity:1" d="M396.85 199.1Q393.45 203.05 391.7 204.25L392.3 201.75Q392.5 200.5 392.15 200.3L397.25 195.7L403.4 189.85Q401 194.25 396.85 199.1M460.8 140.65L463 137.9Q464.35 135.85 464.55 134.75L467.6 138.15L463.3 143.15L460.8 140.65M468.35 149.7L475.85 147.25L469 151.2L468.35 149.7M465.75 153.55L467.95 154.4L445.35 169.4Q447.1 166.9 453 162.1Q459.8 156.5 465.75 153.55M371.1 231.05L371 231L368.95 229.65Q378.35 222.7 392.5 210.15Q404.45 199.55 410 193.85L421.55 181.25Q428.2 173.25 452.9 141Q454.35 141 455.35 143Q456.35 144.95 456.35 147.75L446.8 158.5L431.4 180L404.6 204.6L371.1 231.05M345.65 258.85Q346.15 255.85 345.95 252.35L356.95 243.75L361.4 243.7Q346.85 257.35 345.65 258.85" />
<linearGradient
id="LinearGradID_870" gradientUnits="userSpaceOnUse" gradientTransform="matrix(0.0243378, 0.0140533, -0.0138245, 0.023941, 383.15, 236.9)" spreadMethod ="pad" x1="-819.2" y1="0" x2="819.2" y2="0" >
<stop  offset="0" style="stop-color:#BA9876;stop-opacity:1" />
<stop  offset="1" style="stop-color:#9E7A56;stop-opacity:1" />
</linearGradient>
<path style="fill:url(#LinearGradID_870) " d="M373.4 238Q374.9 238 376 236.3Q377.05 234.55 377.05 232.15L394.1 214.4Q388.65 222.7 387.8 225.25Q385.75 231.25 386.7 243.45L386.35 245.35L385.95 247.95Q385.95 253.3 386.5 253.55Q386.9 253.75 388.55 253.05Q389.6 256.75 387.45 258.45Q386.25 259.4 384.85 259.4Q384.05 259.4 382.55 258.7Q379.75 257.4 376.4 256.2Q374.2 249.15 373.15 243.95Q372.3 239.7 372.5 238.2L373.2 238.05L373.4 238M389.75 199.25L387.25 198.25Q388.5 196.65 390.55 195.8Q393.6 194.5 397.25 195.7L392.15 200.3L389.75 199.25M376.55 218.3Q377.9 210.6 381.6 206.4Q384.3 203.35 386.45 203.35L388.2 203.6Q390 204.15 390.9 205.85L388.65 208.2Q385.85 209.85 376.55 218.3" />
<path style="fill:#402813;fill-opacity:1" d="M452.9 141Q428.2 173.25 421.55 181.25L410 193.85Q404.45 199.55 392.5 210.15Q378.35 222.7 368.95 229.65L366.85 228.35L371.15 224.2L373.3 221.85L373.55 221.6L376.55 218.3Q385.85 209.85 388.65 208.2L390.9 205.85L391.7 204.25Q393.45 203.05 396.85 199.1Q401 194.25 403.4 189.85L411.7 181.45Q420.2 172.95 436.35 153.7Q451.85 135.2 453.5 131.95L456.9 135.2L455.1 138L452.9 141M446.8 158.5Q448 158.1 459.95 151.5L461.5 150.3L465.75 153.55Q459.8 156.5 453 162.1Q447.1 166.9 445.35 169.4L431.4 180L446.8 158.5M377.05 232.15L371.1 231.05L404.6 204.6L394.1 214.4L377.05 232.15M295.95 281.45L299.3 281.3Q296.6 285.25 299.45 288.4L299.5 288.45L301.15 289.15L302.75 289.75Q282.75 306.25 265.45 318.75Q235.75 340.3 226.7 340.5Q223.25 340.85 219.55 339.25Q217.05 338.15 215.6 336.8L215.55 336.8L214.35 334.2L213.25 331.7Q216.4 330.45 241.3 316.45Q265.2 303 268.25 301Q271.2 299.4 281.45 292.05L295.95 281.45M344.25 264.8L345.65 258.85Q346.85 257.35 361.4 243.7L365.95 243.3L361.15 247.6L344.25 264.8M345.5 247.55L350.3 242.85L356.95 243.75L345.95 252.35L345.5 247.55M299.45 288.4Q280.25 299.4 255.7 317.45Q234.5 333 226.7 340.5Q234.5 333 255.7 317.45Q280.25 299.4 299.45 288.4" />
<path style="fill:#784A21;fill-opacity:1" d="M456.35 147.75Q456.35 144.95 455.35 143Q454.35 141 452.9 141L455.1 138Q455.7 138.1 458.1 139.25L460.8 140.65L463.3 143.15L468.35 149.7L469 151.2Q468.8 152.8 467.85 153.35L465.75 153.55L461.5 150.3L459.95 151.5L458.15 149.8L456.35 147.75" />
<path style="fill:#241609;fill-opacity:1" d="M456.35 147.75L458.15 149.8L459.95 151.5Q448 158.1 446.8 158.5L456.35 147.75" />
<linearGradient
id="LinearGradID_871" gradientUnits="userSpaceOnUse" gradientTransform="matrix(0.0154877, -0.0577545, 0.0465851, 0.0124817, 323.3, 204)" spreadMethod ="pad" x1="-819.2" y1="0" x2="819.2" y2="0" >
<stop  offset="0" style="stop-color:#78583A;stop-opacity:1" />
<stop  offset="0.94902" style="stop-color:#9F7651;stop-opacity:1" />
<stop  offset="1" style="stop-color:#A17752;stop-opacity:1" />
</linearGradient>
<path style="fill:url(#LinearGradID_871) " d="M318.6 223.2Q325.8 224.55 332.7 228.6Q334.9 231.4 336.95 236.15Q339.05 240.95 339.05 243.25Q339.05 255.1 331.5 260.7Q324.25 266.1 309.35 266.1Q289.6 266.1 281.1 258.45Q272.75 250.95 272.75 233.75Q272.75 216.2 282.4 203.85Q292.4 191.15 310.3 189.75Q308.65 190.75 305.95 193.75Q303.45 196.5 303.4 196.95L329.95 201.95L330.2 202L343.3 208.6L348.15 212Q360.3 220.95 361 221.75L366.8 221.95Q369.65 222.85 371.15 224.2L366.85 228.35L368.95 229.65L371 231Q371.4 234.4 369.2 238.55L366.75 237.7L364.5 236.7L365.7 241.35Q361.5 242.5 357.55 240.55Q354.75 239.2 350.45 235.25L342.65 228.45Q337.7 224.7 332.5 223.15Q327.55 221.65 319.25 220.1L306.8 217.55Q295.55 214.85 293.35 209.8Q294.75 214.15 297.6 217.85Q300.45 221.5 302.35 221.9L318.6 223.2" />
<linearGradient
id="LinearGradID_872" gradientUnits="userSpaceOnUse" gradientTransform="matrix(0, 0.0150452, -0.0127716, 0, 359.7, 213.75)" spreadMethod ="pad" x1="-819.2" y1="0" x2="819.2" y2="0" >
<stop  offset="0" style="stop-color:#4F3A27;stop-opacity:1" />
<stop  offset="0.980392" style="stop-color:#302217;stop-opacity:1" />
</linearGradient>
<path style="fill:url(#LinearGradID_872) " d="M373.3 221.85L371.15 224.2Q369.65 222.85 366.8 221.95L361 221.75Q360.3 220.95 348.15 212Q347.7 211.3 346.85 208.25L345.95 204.7L349.7 203.3Q349.85 206.8 352.6 209.8Q358.05 215.65 373.3 221.85M356.5 260.45Q361.1 253.4 361.15 247.6L365.95 243.3L369.25 240.85L372.5 238.2Q372.3 239.7 373.15 243.95Q374.2 249.15 376.4 256.2L374 255.45L372.25 255.05Q371.7 255.05 369.9 257.2L365.6 262.05Q358 269.1 346.95 269.4Q351.9 267.5 356.5 260.45" />
<path style="fill:#B38892;fill-opacity:1" d="M386.5 253.55Q385.95 253.3 385.95 247.95L386.35 245.35L386.7 243.45Q388 244.4 388.75 247.8Q389.25 250.15 389.25 251.65Q389.25 252.85 388.55 253.05Q386.9 253.75 386.5 253.55" />
<path style="fill:#8F8263;fill-opacity:1" d="M344.2 264.85L344.05 265.35L344.15 265.1L344.25 264.8L361.15 247.6Q361.1 253.4 356.5 260.45Q351.9 267.5 346.95 269.4Q345.55 270.3 341.1 270.7L344.2 264.85M343.5 240.3L350.3 242.85L345.5 247.55L343.5 240.3" />
<linearGradient
id="LinearGradID_873" gradientUnits="userSpaceOnUse" gradientTransform="matrix(0.00764465, -0.0132904, 0.0144806, 0.00831604, 345.6, 281)" spreadMethod ="pad" x1="-819.2" y1="0" x2="819.2" y2="0" >
<stop  offset="0" style="stop-color:#EAC39A;stop-opacity:1" />
<stop  offset="0.992157" style="stop-color:#FFDCB8;stop-opacity:1" />
</linearGradient>
<path style="fill:url(#LinearGradID_873) " d="M356.4 306.75Q356.05 307.9 354.55 309.1Q353.05 310.3 351.8 310.3Q348.5 310.3 344.95 307.5L337.95 300.9Q327.1 290.5 314.05 287.65L315.65 287.65Q327.45 287.5 331.05 283.15Q334.15 284.9 338.7 286.4L346.5 289Q356.3 292.55 364.3 300.3L364.4 300.4Q364.15 302.15 363.6 302.65Q362.4 303.8 358.45 303.8L351 303.7L356.4 306.75" />
<linearGradient
id="LinearGradID_874" gradientUnits="userSpaceOnUse" gradientTransform="matrix(-0.00657654, -0.0142212, 0.0195007, -0.00901794, 325.05, 294.25)" spreadMethod ="pad" x1="-819.2" y1="0" x2="819.2" y2="0" >
<stop  offset="0" style="stop-color:#BA9876;stop-opacity:1" />
<stop  offset="1" style="stop-color:#9E7A56;stop-opacity:1" />
</linearGradient>
<path style="fill:url(#LinearGradID_874) " d="M301.15 289.15L299.5 288.45L299.45 288.4Q296.6 285.25 299.3 281.3Q312.85 281.65 317.55 281.35L325.4 280.45L327.95 281.75L331.05 283.15Q327.45 287.5 315.65 287.65L314.05 287.65Q327.1 290.5 337.95 300.9L344.95 307.5Q348.5 310.3 351.8 310.3Q353.05 310.3 354.55 309.1Q356.05 307.9 356.4 306.75L358.2 309.65Q359.4 311.8 359.7 313L357.2 313.8L355.2 314.15Q353.65 314.15 350.5 313.2Q347.85 312.45 346.85 311.95Q340.95 308.85 338.85 306.85Q337.95 305.95 337.05 304.05Q335.7 301.1 322.8 295.8L319.65 294.6L302.75 289.75L301.15 289.15" />
<path style="fill:#BA9876;fill-opacity:1" d="M358.2 309.65L356.4 306.75L351 303.7L358.45 303.8Q362.4 303.8 363.6 302.65Q364.15 302.15 364.4 300.4Q367.35 301.7 368.6 304.1Q369.85 306.45 368.8 308.9Q368.3 310.1 364.65 311.7Q361.05 313.25 359.7 313Q359.4 311.8 358.2 309.65" />
<path style="fill:#47321F;fill-opacity:1" d="M288.45 54.75Q283.7 58.35 275.8 58.35Q273.35 58.35 272.05 57.5Q271.5 57.15 270.65 56Q273.55 48.5 275.8 45.7Q278.15 42.85 281.55 42.85Q282.1 42.85 285.25 44.3Q289.2 46.15 291.45 48.25Q292.65 51.55 288.45 54.75" />
<path style="fill:#24170E;fill-opacity:1" d="M291.95 78.2L289.2 73.75L287 70.9Q296.3 73.5 296.3 75.7L301.05 86.65L296.3 75.7Q296.3 73.5 287 70.9L284.8 68.1L284.6 68.1L279.65 68.35L275.85 68.7L269.05 62.6L270.65 56Q271.5 57.15 272.05 57.5Q273.35 58.35 275.8 58.35Q283.7 58.35 288.45 54.75Q292.65 51.55 291.45 48.25Q299.3 59 304.95 69.05Q310.6 79.2 311.15 83.65L301.05 86.65L295.6 88.5Q294.65 83.35 291.95 78.2M244.9 102.75Q237.35 97.4 234.9 96.5Q241.5 95.15 243.95 94.2Q249.25 92.15 253.55 87.8L255.05 92.1L258.45 98.2L261.95 104.3L253.65 109.45Q251.85 107.7 244.9 102.75M283.15 84.85L286.85 83.55L289 87.8Q286.35 88.45 265.55 96.05L260.85 86.55Q260.95 81.8 266.6 78.45Q272.35 75.05 280.5 75.05L283.1 77.9L279.25 78.15Q276.95 78.7 275.95 80.25Q274.9 81.75 275.75 83.35Q276.55 84.9 279.3 86L283.15 84.85" />
<linearGradient
id="LinearGradID_875" gradientUnits="userSpaceOnUse" gradientTransform="matrix(0.0171967, -0.0296173, 0.0366364, 0.0212708, 236.6, 53.35)" spreadMethod ="pad" x1="-819.2" y1="0" x2="819.2" y2="0" >
<stop  offset="0" style="stop-color:#1A1511;stop-opacity:1" />
<stop  offset="1" style="stop-color:#362B23;stop-opacity:1" />
</linearGradient>
<path style="fill:url(#LinearGradID_875) " d="M202.75 65.4Q201.55 66.95 195.5 66.65Q189.15 66.3 188.1 63.7Q185.65 81.15 179.35 90.85Q174 99.05 168.2 99.05Q167.45 99.05 165.6 97.4Q163.25 95.2 162.35 92.25Q168.75 60.4 175.75 47.55Q185.55 29.55 203.6 29.55Q214.3 29.55 231.4 38.85Q242.45 44.85 269.05 62.6L275.85 68.7L271.9 69.45Q262.2 68.9 255.4 71.4Q250.55 73.15 245.8 77.25L238.4 83.45Q233.95 86.3 228.45 86.3Q219.4 86.3 211.6 81.85Q203.15 76.95 201.7 69.55L202.75 65.4" />
<path style="fill:#DEC95D;fill-opacity:1" d="M262.65 73.9Q253.55 79.65 253.55 87.8Q252.75 84.55 252.1 81.2Q251.4 76.6 258.9 73.4L271.9 69.45L275.85 68.7L279.65 68.35Q269.95 69.25 262.65 73.9M285.05 77.6Q284 77.95 281.7 81.05Q279.3 84.3 279.3 86Q276.55 84.9 275.75 83.35Q274.9 81.75 275.95 80.25Q276.95 78.7 279.25 78.15L283.1 77.9L285.05 77.6" />
<linearGradient
id="LinearGradID_876" gradientUnits="userSpaceOnUse" gradientTransform="matrix(0.00408936, 0.00712585, -0.0191345, 0.0109711, 277.75, 90.2)" spreadMethod ="pad" x1="-819.2" y1="0" x2="819.2" y2="0" >
<stop  offset="0" style="stop-color:#826228;stop-opacity:1" />
<stop  offset="1" style="stop-color:#633E11;stop-opacity:1" />
</linearGradient>
<path style="fill:url(#LinearGradID_876) " d="M288.85 81.25Q290.2 78.9 289.8 78.35Q289.45 77.9 287.2 77.7L285.05 77.6L283.1 77.9L280.5 75.05L280.8 75.05Q285.1 75.25 285.1 71.3Q285.1 69.75 284.65 68.15L284.8 68.1L287 70.9L289.2 73.75L291.95 78.2Q294.65 83.35 295.6 88.5Q287.6 91.25 276.1 96.8Q266.2 101.6 261.95 104.3L258.45 98.2L255.05 92.1Q256.35 91.8 257.9 90.6Q259.85 89.05 260.85 86.75L260.85 86.55L265.55 96.05Q286.35 88.45 289 87.8L286.85 83.55Q287.55 83.65 288.85 81.25" />
<path style="fill:#826228;fill-opacity:1" d="M260.85 86.55L260.85 86.75Q254.85 79.9 261.45 76.8Q265.75 74.75 273.1 74.75L280.5 75.05Q272.35 75.05 266.6 78.45Q260.95 81.8 260.85 86.55" />
<path style="fill:#382516;fill-opacity:1" d="M230.8 94.7Q232.85 92.5 238.7 88.6Q245.8 83.8 252.1 81.2Q252.75 84.55 253.55 87.8Q249.25 92.15 243.95 94.2Q241.5 95.15 234.9 96.5L230.8 94.7" />
<path style="fill:#AD873C;fill-opacity:1" d="M284.65 68.15Q285.1 69.75 285.1 71.3Q285.1 75.25 280.8 75.05L280.5 75.05L273.1 74.75Q265.75 74.75 261.45 76.8Q254.85 79.9 260.85 86.75Q259.85 89.05 257.9 90.6Q256.35 91.8 255.05 92.1L253.55 87.8Q253.55 79.65 262.65 73.9Q269.95 69.25 279.65 68.35L284.6 68.1L284.8 68.1L284.65 68.15M286.85 83.55L283.15 84.85L279.3 86Q279.3 84.3 281.7 81.05Q284 77.95 285.05 77.6L287.2 77.7Q289.45 77.9 289.8 78.35Q290.2 78.9 288.85 81.25Q287.55 83.65 286.85 83.55" />
<linearGradient
id="LinearGradID_877" gradientUnits="userSpaceOnUse" gradientTransform="matrix(0, -0.032486, 0.0463562, 0, 213.7, 101.05)" spreadMethod ="pad" x1="-819.2" y1="0" x2="819.2" y2="0" >
<stop  offset="0" style="stop-color:#78583A;stop-opacity:1" />
<stop  offset="1" style="stop-color:#A17752;stop-opacity:1" />
</linearGradient>
<path style="fill:url(#LinearGradID_877) " d="M180.25 104.25Q185.85 97.1 188.35 95.8L199.15 91.25L205.6 90.5L210.15 90.2L217.8 90.95Q226.05 92.15 230.8 94.7L234.9 96.5Q237.35 97.4 244.9 102.75Q251.85 107.7 253.65 109.45Q255.95 111.45 258.25 115.75Q261 120.85 260.65 124.35L259.55 131.6Q257.55 133.15 256.1 133.15Q251.7 133.15 248.7 127.25Q245.3 119 242.75 114.3Q238.15 105.75 231.05 101.3Q221.65 95.4 206.4 95.4Q191.45 95.4 180.75 106.5Q170.8 116.8 170.8 129.15Q170.8 130.1 171.15 130.95Q176.05 161.95 176.35 162.8Q170.55 156.45 168.25 143.45Q165.7 129.2 170.15 118.75Q174.85 111.1 180.25 104.25" />
<linearGradient
id="LinearGradID_878" gradientUnits="userSpaceOnUse" gradientTransform="matrix(0.028717, -0.0344238, 0.0259857, 0.0216675, 220.2, 148.7)" spreadMethod ="pad" x1="-819.2" y1="0" x2="819.2" y2="0" >
<stop  offset="0" style="stop-color:#EAC39A;stop-opacity:1" />
<stop  offset="0.992157" style="stop-color:#FFDCB8;stop-opacity:1" />
</linearGradient>
<path style="fill:url(#LinearGradID_878) " d="M184.9 172.75Q179.7 168.15 176.35 162.8Q176.35 150.55 182.25 141.9Q188.1 133.2 196.45 133.2Q196.45 137.2 198.15 143.8Q199.55 149.5 200.85 152.25Q199.55 149.5 198.15 143.8Q196.45 137.2 196.45 133.2L196.45 132.85L204.4 131.75Q216.45 131.75 229.3 142.65L225.6 146.05L227 146.15L230.6 145.85L222.5 155.55L236.35 150.2L235.15 154.05L234.1 158L235.75 155.6L235.2 166.15L237.05 161.9Q237.35 165.2 241.05 170.3Q245.3 176.1 250.15 177.85Q244 182.35 234.85 185.1Q227.05 187.45 222.85 187.2Q222.65 185.35 222.8 179.9Q222.95 174.45 223.2 172.55Q222.35 177.1 220.65 182.1Q218.9 187.1 218.2 187.1Q212.2 187.1 203.05 183.45Q194.65 180.1 191.5 177.15Q189.4 176.75 184.9 172.75" />
<linearGradient
id="LinearGradID_879" gradientUnits="userSpaceOnUse" gradientTransform="matrix(0, -0.0294495, 0.0257721, 0, 204.95, 120)" spreadMethod ="pad" x1="-819.2" y1="0" x2="819.2" y2="0" >
<stop  offset="0" style="stop-color:#BA9876;stop-opacity:1" />
<stop  offset="1" style="stop-color:#7D6348;stop-opacity:1" />
</linearGradient>
<path style="fill:url(#LinearGradID_879) " d="M235.75 155.6Q237.45 154.1 239.5 152.95Q239.35 154.5 240.95 160.55Q242.65 167.05 244 168.15Q243.55 166.85 245.1 164.75Q246.4 162.9 247.8 162.1L256.3 173L253.45 175.3L250.15 177.85Q245.3 176.1 241.05 170.3Q237.35 165.2 237.05 161.9L235.2 166.15L235.75 155.6M171.15 130.95Q171.15 118.3 182.95 109.4Q194.75 100.45 211.45 100.45Q225.15 100.4 234.35 116.25Q236.5 120 240.25 128.4Q243.15 134.9 244.65 136.45Q241.8 136.9 237.2 138.6Q231.65 140.6 229.3 142.65Q216.45 131.75 204.4 131.75L196.45 132.85L196.45 133.2Q188.1 133.2 182.25 141.9Q176.35 150.55 176.35 162.8Q176.05 161.95 171.15 130.95M230.6 145.85L234.9 146L239.05 146.55L236.35 150.2L222.5 155.55L230.6 145.85M211.45 100.45Q204.85 104.95 200.05 115.3Q195.3 125.65 196.45 132.85Q195.3 125.65 200.05 115.3Q204.85 104.95 211.45 100.45" />
<linearGradient
id="LinearGradID_880" gradientUnits="userSpaceOnUse" gradientTransform="matrix(0.00404358, -0.0150757, 0.0142212, 0.00379944, 292, 118.75)" spreadMethod ="pad" x1="-819.2" y1="0" x2="819.2" y2="0" >
<stop  offset="0" style="stop-color:#4F3A27;stop-opacity:1" />
<stop  offset="0.976471" style="stop-color:#302217;stop-opacity:1" />
</linearGradient>
<path style="fill:url(#LinearGradID_880) " d="M321.85 135.9Q319.85 132.2 311.6 127.6Q302.5 122.55 295.55 122.55Q285.4 122.55 273.25 126.1Q263.15 129 259.55 131.6L260.65 124.35Q268.2 117.2 275.35 114.3Q282.4 111.45 292.25 111.45Q306.95 111.45 313.95 116.65Q319.6 120.85 319.85 128.25Q319.85 131.35 321.85 135.9M273.1 124.45Q275.35 122.2 279.05 120.45Q280.9 119.55 282.35 119.1Q283.05 119.1 285.05 119.8Q287.7 120.7 289.7 122.1Q287.7 120.7 285.05 119.8Q283.05 119.1 282.35 119.1Q280.9 119.55 279.05 120.45Q275.35 122.2 273.1 124.45" />
<path style="fill:#DBCEC4;fill-opacity:1" d="M310.65 161.45Q312.1 161.45 315.9 160L319.65 158.55Q320.65 158.55 321.35 159.1Q321.55 163.3 319.55 166.7Q317.5 170.05 314.45 170.4Q311.35 170.75 309 167.85Q306.65 164.95 306.35 160.25Q308.85 161.45 310.65 161.45" />
<linearGradient
id="LinearGradID_881" gradientUnits="userSpaceOnUse" gradientTransform="matrix(0.0247345, -0.00457764, 0.0140533, 0.075882, 274.25, 391.5)" spreadMethod ="pad" x1="-819.2" y1="0" x2="819.2" y2="0" >
<stop  offset="0" style="stop-color:#BA9876;stop-opacity:1" />
<stop  offset="0.992157" style="stop-color:#8F6E4D;stop-opacity:1" />
</linearGradient>
<path style="fill:url(#LinearGradID_881) " d="M274.8 268.75L274.85 268.75Q276.3 270.65 282.85 274.5Q288.9 278.1 295.95 281.45L281.45 292.05Q271.2 299.4 268.25 301L257.1 301.75L250.9 301.55L242.85 301.05Q239.4 300.7 210 293.95L194.4 292.75L184.45 292.3Q162.7 292.3 147 296.5Q129.4 301.2 115.6 312.1Q86.6 334.9 64.2 395.45L65.2 390.25Q87.35 323.7 126.65 300.4Q141.65 291.5 160.1 288.35Q172.05 286.3 190.55 286.3Q207.2 286.3 226.1 289.85Q244.95 293.4 252.85 293.4Q265.4 293.4 271.75 288.3Q276.1 284.85 276.1 281.2Q276.1 280.5 275.15 278.8Q274.05 276.75 272.55 275.5L274.5 268.7L274.6 268.7L274.8 268.75" />
<linearGradient
id="LinearGradID_882" gradientUnits="userSpaceOnUse" gradientTransform="matrix(0.0753479, -0.0119934, 0.0109863, 0.0691376, 267.55, 296.35)" spreadMethod ="pad" x1="-819.2" y1="0" x2="819.2" y2="0" >
<stop  offset="0" style="stop-color:#EAC39A;stop-opacity:1" />
<stop  offset="0.992157" style="stop-color:#FFDCB8;stop-opacity:1" />
</linearGradient>
<path style="fill:url(#LinearGradID_882) " d="M65.2 390.25Q79.9 329.95 117.8 303.35Q152.05 279.25 211 279.25Q219.9 279.25 234.25 281.35L250 283.4Q260.2 283.4 265.85 280.8Q269.35 279.25 272.55 275.5Q274.05 276.75 275.15 278.8Q276.1 280.5 276.1 281.2Q276.1 284.85 271.75 288.3Q265.4 293.4 252.85 293.4Q244.95 293.4 226.1 289.85Q207.2 286.3 190.55 286.3Q172.05 286.3 160.1 288.35Q141.65 291.5 126.65 300.4Q87.35 323.7 65.2 390.25" />
<path style="fill:none;stroke-width:0.7;stroke-linecap:round;stroke-linejoin:round;stroke-miterlimit:3;stroke:#000000;stroke-opacity:0.45098" d="M337.2 119.3Q342.05 117.75 355.35 104.8Q366.7 93.75 369.55 89.85L374.15 83.25Q375.25 81.35 375.25 79.55Q375.25 76.15 365.85 76.15L345.7 77.5Q326.6 79.5 311.15 83.65L301.05 86.65L295.6 88.5Q287.6 91.25 276.1 96.8Q266.2 101.6 261.95 104.3L253.65 109.45Q255.95 111.45 258.25 115.75Q261 120.85 260.65 124.35Q268.2 117.2 275.35 114.3Q282.4 111.45 292.25 111.45Q306.95 111.45 313.95 116.65Q319.6 120.85 319.85 128.25L321.95 126.4L321.5 121.25L321 116.85Q321 116.2 322.1 115.85L323.9 115.6Q325.15 115.6 326.35 118.15Q327.8 121.2 331.5 122.6L337.2 119.3L346.05 129.4Q350.25 137 353.75 145.95L356.4 153.6Q356.4 155.7 354.6 159.45Q352.35 164.9 345.95 173.3Q340.6 180.35 336.95 183.75L340.3 185.95L343.7 188.35L335.45 187.6L339.85 192.6L344.35 198.05L340.05 195.7L343.85 200.4L345.95 204.7L349.7 203.3Q360 203.3 367.3 206.95Q374.6 210.55 374.6 215.7Q375.25 211.15 378.1 205.65Q380.85 200.2 383.2 198.75Q385.25 194.75 388.65 193Q390.85 191.9 392.95 191.9Q395.85 191.9 397.25 195.7L403.4 189.85L411.7 181.45Q420.2 172.95 436.35 153.7Q451.85 135.2 453.5 131.95L456.9 135.2L455.1 138Q455.7 138.1 458.1 139.25L460.8 140.65L463 137.9Q464.35 135.85 464.55 134.75L467.6 138.15L463.3 143.15L468.35 149.7L475.85 147.25L469 151.2Q468.8 152.8 467.85 153.35L465.75 153.55L467.95 154.4L445.35 169.4L431.4 180L404.6 204.6L394.1 214.4Q388.65 222.7 387.8 225.25Q385.75 231.25 386.7 243.45Q388 244.4 388.75 247.8Q389.25 250.15 389.25 251.65Q389.25 252.85 388.55 253.05Q389.6 256.75 387.45 258.45Q386.25 259.4 384.85 259.4Q384.05 259.4 382.55 258.7Q379.75 257.4 376.4 256.2L374 255.45L372.25 255.05Q371.7 255.05 369.9 257.2L365.6 262.05Q358 269.1 346.95 269.4Q345.55 270.3 341.1 270.7Q336.05 275 331.5 277.7Q327.6 280 325.3 280.45L325.4 280.45L327.95 281.75L331.05 283.15Q334.15 284.9 338.7 286.4L346.5 289Q356.3 292.55 364.3 300.3" />
<path style="fill:none;stroke-width:0.7;stroke-linecap:round;stroke-linejoin:round;stroke-miterlimit:3;stroke:#000000;stroke-opacity:0.45098" d="M364.4 300.4Q367.35 301.7 368.6 304.1Q369.85 306.45 368.8 308.9Q368.3 310.1 364.65 311.7Q361.05 313.25 359.7 313L357.2 313.8L355.2 314.15Q353.65 314.15 350.5 313.2Q347.85 312.45 346.85 311.95Q340.95 308.85 338.85 306.85Q337.95 305.95 337.05 304.05Q335.7 301.1 322.8 295.8L319.65 294.6L302.75 289.75Q282.75 306.25 265.45 318.75Q235.75 340.3 226.7 340.5Q223.25 340.85 219.55 339.25Q217.05 338.15 215.6 336.8" />
<path style="fill:none;stroke-width:0.7;stroke-linecap:round;stroke-linejoin:round;stroke-miterlimit:3;stroke:#000000;stroke-opacity:0.2" d="M215.6 336.8L215.55 336.8" />
<path style="fill:none;stroke-width:0.7;stroke-linecap:round;stroke-linejoin:round;stroke-miterlimit:3;stroke:#000000;stroke-opacity:0.45098" d="M215.55 336.8L214.35 334.2L213.25 331.7Q216.4 330.45 241.3 316.45Q265.2 303 268.25 301L257.1 301.75L250.9 301.55L242.85 301.05Q239.4 300.7 210 293.95L194.4 292.75L184.45 292.3Q162.7 292.3 147 296.5Q129.4 301.2 115.6 312.1Q86.6 334.9 64.2 395.45L65.2 390.25Q79.9 329.95 117.8 303.35Q152.05 279.25 211 279.25Q219.9 279.25 234.25 281.35L250 283.4Q260.2 283.4 265.85 280.8Q269.35 279.25 272.55 275.5L274.5 268.7L274.5 268.55Q268.15 257.55 266.1 251.05Q264.1 244.8 264.1 236.1Q264.1 227.45 271 205.8Q278.2 184.8 278.8 181.8Q272.6 181.55 265 178.15Q258.6 175.35 256.3 173L253.45 175.3L250.15 177.85Q244 182.35 234.85 185.1Q227.05 187.45 222.85 187.2Q222.65 185.35 222.8 179.9Q222.95 174.45 223.2 172.55Q222.35 177.1 220.65 182.1Q218.9 187.1 218.2 187.1Q212.2 187.1 203.05 183.45Q194.65 180.1 191.5 177.15Q180.4 181.7 169.9 181.7Q161.4 181.7 161.4 177.75Q161.4 176.05 164.05 172.55Q168.2 167.1 176.35 162.8Q170.55 156.45 168.25 143.45Q165.7 129.2 170.15 118.75Q165 117.55 163.75 108.5Q163.15 97.25 162.35 92.25Q168.75 60.4 175.75 47.55Q185.55 29.55 203.6 29.55Q214.3 29.55 231.4 38.85Q242.45 44.85 269.05 62.6L270.65 56Q273.55 48.5 275.8 45.7Q278.15 42.85 281.55 42.85Q282.1 42.85 285.25 44.3Q289.2 46.15 291.45 48.25Q299.3 59 304.95 69.05Q310.6 79.2 311.15 83.65" />
<path style="fill:none;stroke-width:0.7;stroke-linecap:round;stroke-linejoin:round;stroke-miterlimit:3;stroke:#000000;stroke-opacity:0.45098" d="M332.95 125.55L332.55 124.4L331.5 122.6" />
<path style="fill:none;stroke-width:0.7;stroke-linecap:round;stroke-linejoin:round;stroke-miterlimit:3;stroke:#000000;stroke-opacity:0.45098" d="M326.15 144.6Q326.55 145.95 326.55 146.95Q326.55 148.25 325.5 149.75Q324.55 151.15 324 151.15L320.25 149.1L315.85 146.4" />
<path style="fill:none;stroke-width:0.7;stroke-linecap:round;stroke-linejoin:round;stroke-miterlimit:3;stroke:#000000;stroke-opacity:0.45098" d="M171.15 130.95Q171.15 118.3 182.95 109.4Q194.75 100.45 211.45 100.45Q225.15 100.4 234.35 116.25Q236.5 120 240.25 128.4Q243.15 134.9 244.65 136.45Q245.85 137.35 247.9 138.1" />
<path style="fill:none;stroke-width:0.7;stroke-linecap:round;stroke-linejoin:round;stroke-miterlimit:3;stroke:#000000;stroke-opacity:0.45098" d="M326.15 144.5L326.15 144.4L323.9 144.1Q321.15 144.15 317.9 145.3" />
<path style="fill:none;stroke-width:0.7;stroke-linecap:round;stroke-linejoin:round;stroke-miterlimit:3;stroke:#000000;stroke-opacity:0.45098" d="M332.5 147.5Q331.4 144.3 329.85 143.2Q327.75 142.1 326.1 140.75Q323.85 138.85 321.85 135.9" />
<path style="fill:none;stroke-width:0.7;stroke-linecap:round;stroke-linejoin:round;stroke-miterlimit:3;stroke:#000000;stroke-opacity:0.45098" d="M259.55 131.6L260.65 124.35" />
<path style="fill:none;stroke-width:0.7;stroke-linecap:round;stroke-linejoin:round;stroke-miterlimit:3;stroke:#000000;stroke-opacity:0.45098" d="M326.15 144.6L326.15 144.5" />
<path style="fill:none;stroke-width:0.7;stroke-linecap:round;stroke-linejoin:round;stroke-miterlimit:3;stroke:#000000;stroke-opacity:0.45098" d="M332.5 147.5L332.6 148.5L330.1 159.55Q326.5 170.85 320.75 174.45L324.25 177.45Q334.85 175.45 336.1 174.45" />
<path style="fill:none;stroke-width:0.7;stroke-linecap:round;stroke-linejoin:round;stroke-miterlimit:3;stroke:#000000;stroke-opacity:0.45098" d="M330.2 181.4L336.95 183.75" />
<path style="fill:none;stroke-width:0.7;stroke-linecap:round;stroke-linejoin:round;stroke-miterlimit:3;stroke:#000000;stroke-opacity:0.45098" d="M343.3 208.6L348.15 212Q347.7 211.3 346.85 208.25L345.95 204.7" />
<path style="fill:none;stroke-width:0.7;stroke-linecap:round;stroke-linejoin:round;stroke-miterlimit:3;stroke:#000000;stroke-opacity:0.45098" d="M397.25 195.7L392.15 200.3Q392.5 200.5 392.3 201.75L391.7 204.25" />
<path style="fill:none;stroke-width:0.7;stroke-linecap:round;stroke-linejoin:round;stroke-miterlimit:3;stroke:#000000;stroke-opacity:0.2" d="M391.7 204.25Q393.45 203.05 396.85 199.1Q401 194.25 403.4 189.85" />
<path style="fill:none;stroke-width:0.7;stroke-linecap:round;stroke-linejoin:round;stroke-miterlimit:3;stroke:#000000;stroke-opacity:0.45098" d="M456.35 147.75Q456.35 144.95 455.35 143Q454.35 141 452.9 141Q428.2 173.25 421.55 181.25L410 193.85" />
<path style="fill:none;stroke-width:0.7;stroke-linecap:round;stroke-linejoin:round;stroke-miterlimit:3;stroke:#000000;stroke-opacity:0.2" d="M410 193.85Q404.45 199.55 392.5 210.15Q378.35 222.7 368.95 229.65" />
<path style="fill:none;stroke-width:0.7;stroke-linecap:round;stroke-linejoin:round;stroke-miterlimit:3;stroke:#000000;stroke-opacity:0.45098" d="M368.95 229.65L371 231L371.1 231.05" />
<path style="fill:none;stroke-width:0.7;stroke-linecap:round;stroke-linejoin:round;stroke-miterlimit:3;stroke:#000000;stroke-opacity:0.2" d="M371.1 231.05L404.6 204.6" />
<path style="fill:none;stroke-width:0.7;stroke-linecap:round;stroke-linejoin:round;stroke-miterlimit:3;stroke:#000000;stroke-opacity:0.45098" d="M452.9 141L455.1 138" />
<path style="fill:none;stroke-width:0.7;stroke-linecap:round;stroke-linejoin:round;stroke-miterlimit:3;stroke:#000000;stroke-opacity:0.45098" d="M460.8 140.65L463.3 143.15" />
<path style="fill:none;stroke-width:0.7;stroke-linecap:round;stroke-linejoin:round;stroke-miterlimit:3;stroke:#000000;stroke-opacity:0.45098" d="M469 151.2L468.35 149.7" />
<path style="fill:none;stroke-width:0.7;stroke-linecap:round;stroke-linejoin:round;stroke-miterlimit:3;stroke:#000000;stroke-opacity:0.45098" d="M465.75 153.55L461.5 150.3L459.95 151.5Q448 158.1 446.8 158.5" />
<path style="fill:none;stroke-width:0.7;stroke-linecap:round;stroke-linejoin:round;stroke-miterlimit:3;stroke:#000000;stroke-opacity:0.2" d="M446.8 158.5L431.4 180" />
<path style="fill:none;stroke-width:0.7;stroke-linecap:round;stroke-linejoin:round;stroke-miterlimit:3;stroke:#000000;stroke-opacity:0.45098" d="M459.95 151.5L458.15 149.8L456.35 147.75L446.8 158.5" />
<path style="fill:none;stroke-width:0.7;stroke-linecap:round;stroke-linejoin:round;stroke-miterlimit:3;stroke:#000000;stroke-opacity:0.2" d="M445.35 169.4Q447.1 166.9 453 162.1Q459.8 156.5 465.75 153.55" />
<path style="fill:none;stroke-width:0.7;stroke-linecap:round;stroke-linejoin:round;stroke-miterlimit:3;stroke:#000000;stroke-opacity:0.45098" d="M387.25 198.25L389.75 199.25L392.15 200.3" />
<path style="fill:none;stroke-width:0.7;stroke-linecap:round;stroke-linejoin:round;stroke-miterlimit:3;stroke:#000000;stroke-opacity:0.45098" d="M390.9 205.85L391.7 204.25" />
<path style="fill:none;stroke-width:0.7;stroke-linecap:round;stroke-linejoin:round;stroke-miterlimit:3;stroke:#000000;stroke-opacity:0.45098" d="M383.2 198.75L385.2 198.35L387.25 198.25" />
<path style="fill:none;stroke-width:0.7;stroke-linecap:round;stroke-linejoin:round;stroke-miterlimit:3;stroke:#000000;stroke-opacity:0.45098" d="M390.9 205.85L388.65 208.2Q385.85 209.85 376.55 218.3L373.55 221.6L373.3 221.85L371.15 224.2L366.85 228.35L368.95 229.65" />
<path style="fill:none;stroke-width:0.7;stroke-linecap:round;stroke-linejoin:round;stroke-miterlimit:3;stroke:#000000;stroke-opacity:0.45098" d="M374.6 215.7L373.55 221.6" />
<path style="fill:none;stroke-width:0.7;stroke-linecap:round;stroke-linejoin:round;stroke-miterlimit:3;stroke:#000000;stroke-opacity:0.45098" d="M373.35 238L372.5 238.2L373.2 238.05L373.35 238L373.4 238Q374.9 238 376 236.3Q377.05 234.55 377.05 232.15L371.1 231.05" />
<path style="fill:none;stroke-width:0.7;stroke-linecap:round;stroke-linejoin:round;stroke-miterlimit:3;stroke:#000000;stroke-opacity:0.45098" d="M373.2 238.05L373.4 238" />
<path style="fill:none;stroke-width:0.7;stroke-linecap:round;stroke-linejoin:round;stroke-miterlimit:3;stroke:#000000;stroke-opacity:0.45098" d="M364.5 236.7L366.75 237.7L369.2 238.55" />
<path style="fill:none;stroke-width:0.7;stroke-linecap:round;stroke-linejoin:round;stroke-miterlimit:3;stroke:#000000;stroke-opacity:0.45098" d="M372.5 238.2L369.25 240.85L365.95 243.3L361.15 247.6Q361.1 253.4 356.5 260.45Q351.9 267.5 346.95 269.4" />
<path style="fill:none;stroke-width:0.7;stroke-linecap:round;stroke-linejoin:round;stroke-miterlimit:3;stroke:#000000;stroke-opacity:0.45098" d="M376.4 256.2Q374.2 249.15 373.15 243.95Q372.3 239.7 372.5 238.2L369.2 238.55" />
<path style="fill:none;stroke-width:0.7;stroke-linecap:round;stroke-linejoin:round;stroke-miterlimit:3;stroke:#000000;stroke-opacity:0.45098" d="M386.7 243.45L386.35 245.35L385.95 247.95Q385.95 253.3 386.5 253.55Q386.9 253.75 388.55 253.05" />
<path style="fill:none;stroke-width:0.7;stroke-linecap:round;stroke-linejoin:round;stroke-miterlimit:3;stroke:#000000;stroke-opacity:0.45098" d="M377.05 232.15L394.1 214.4" />
<path style="fill:none;stroke-width:0.7;stroke-linecap:round;stroke-linejoin:round;stroke-miterlimit:3;stroke:#000000;stroke-opacity:0.45098" d="M371.15 224.2Q369.65 222.85 366.8 221.95L361 221.75Q360.3 220.95 348.15 212" />
<path style="fill:none;stroke-width:0.7;stroke-linecap:round;stroke-linejoin:round;stroke-miterlimit:3;stroke:#000000;stroke-opacity:0.45098" d="M329.95 201.95L303.4 196.95Q303.45 196.5 305.95 193.75Q308.65 190.75 310.3 189.75" />
<path style="fill:none;stroke-width:0.7;stroke-linecap:round;stroke-linejoin:round;stroke-miterlimit:3;stroke:#000000;stroke-opacity:0.45098" d="M332.7 228.6Q325.8 224.55 318.6 223.2L302.35 221.9" />
<path style="fill:none;stroke-width:0.7;stroke-linecap:round;stroke-linejoin:round;stroke-miterlimit:3;stroke:#000000;stroke-opacity:0.45098" d="M343.3 208.6L330.2 202" />
<path style="fill:none;stroke-width:0.7;stroke-linecap:round;stroke-linejoin:round;stroke-miterlimit:3;stroke:#000000;stroke-opacity:0.45098" d="M343.5 240.3L338.15 234.3L332.7 228.6" />
<path style="fill:none;stroke-width:0.7;stroke-linecap:round;stroke-linejoin:round;stroke-miterlimit:3;stroke:#000000;stroke-opacity:0.45098" d="M361.4 243.7L356.95 243.75" />
<path style="fill:none;stroke-width:0.7;stroke-linecap:round;stroke-linejoin:round;stroke-miterlimit:3;stroke:#000000;stroke-opacity:0.2" d="M356.95 243.75L345.95 252.35" />
<path style="fill:none;stroke-width:0.7;stroke-linecap:round;stroke-linejoin:round;stroke-miterlimit:3;stroke:#000000;stroke-opacity:0.45098" d="M345.95 252.35Q346.15 255.85 345.65 258.85" />
<path style="fill:none;stroke-width:0.7;stroke-linecap:round;stroke-linejoin:round;stroke-miterlimit:3;stroke:#000000;stroke-opacity:0.2" d="M345.65 258.85Q346.85 257.35 361.4 243.7" />
<path style="fill:none;stroke-width:0.7;stroke-linecap:round;stroke-linejoin:round;stroke-miterlimit:3;stroke:#000000;stroke-opacity:0.45098" d="M361.4 243.7L365.95 243.3" />
<path style="fill:none;stroke-width:0.7;stroke-linecap:round;stroke-linejoin:round;stroke-miterlimit:3;stroke:#000000;stroke-opacity:0.45098" d="M356.95 243.75L350.3 242.85L345.5 247.55L345.95 252.35" />
<path style="fill:none;stroke-width:0.7;stroke-linecap:round;stroke-linejoin:round;stroke-miterlimit:3;stroke:#000000;stroke-opacity:0.45098" d="M350.3 242.85L343.5 240.3L345.5 247.55" />
<path style="fill:none;stroke-width:0.7;stroke-linecap:round;stroke-linejoin:round;stroke-miterlimit:3;stroke:#000000;stroke-opacity:0.45098" d="M345.65 258.85L344.25 264.8L361.15 247.6" />
<path style="fill:none;stroke-width:0.7;stroke-linecap:round;stroke-linejoin:round;stroke-miterlimit:3;stroke:#000000;stroke-opacity:0.45098" d="M344.2 264.85L344.05 265.35L344.15 265.1L344.25 264.8L344.2 264.85L341.1 270.7" />
<path style="fill:none;stroke-width:0.7;stroke-linecap:round;stroke-linejoin:round;stroke-miterlimit:3;stroke:#000000;stroke-opacity:0.45098" d="M351 303.7L356.4 306.75L358.2 309.65Q359.4 311.8 359.7 313" />
<path style="fill:none;stroke-width:0.7;stroke-linecap:round;stroke-linejoin:round;stroke-miterlimit:3;stroke:#000000;stroke-opacity:0.45098" d="M269.05 62.6L275.85 68.7L279.65 68.35L284.6 68.1L284.8 68.1" />
<path style="fill:none;stroke-width:0.7;stroke-linecap:round;stroke-linejoin:round;stroke-miterlimit:3;stroke:#000000;stroke-opacity:0.388235" d="M284.8 68.1L287 70.9" />
<path style="fill:none;stroke-width:0.7;stroke-linecap:round;stroke-linejoin:round;stroke-miterlimit:3;stroke:#000000;stroke-opacity:0.45098" d="M287 70.9Q296.3 73.5 296.3 75.7L301.05 86.65" />
<path style="fill:none;stroke-width:0.7;stroke-linecap:round;stroke-linejoin:round;stroke-miterlimit:3;stroke:#000000;stroke-opacity:0.45098" d="M275.85 68.7L271.9 69.45L258.9 73.4Q251.4 76.6 252.1 81.2Q252.75 84.55 253.55 87.8" />
<path style="fill:none;stroke-width:0.7;stroke-linecap:round;stroke-linejoin:round;stroke-miterlimit:3;stroke:#000000;stroke-opacity:0.45098" d="M253.55 87.8L255.05 92.1" />
<path style="fill:none;stroke-width:0.7;stroke-linecap:round;stroke-linejoin:round;stroke-miterlimit:3;stroke:#000000;stroke-opacity:0.45098" d="M280.5 75.05L280.8 75.05" />
<path style="fill:none;stroke-width:0.7;stroke-linecap:round;stroke-linejoin:round;stroke-miterlimit:3;stroke:#000000;stroke-opacity:0.45098" d="M255.05 92.1L258.45 98.2L261.95 104.3" />
<path style="fill:none;stroke-width:0.7;stroke-linecap:round;stroke-linejoin:round;stroke-miterlimit:3;stroke:#000000;stroke-opacity:0.45098" d="M260.85 86.55L260.85 86.75" />
<path style="fill:none;stroke-width:0.7;stroke-linecap:round;stroke-linejoin:round;stroke-miterlimit:3;stroke:#000000;stroke-opacity:0.45098" d="M283.1 77.9L279.25 78.15Q276.95 78.7 275.95 80.25Q274.9 81.75 275.75 83.35Q276.55 84.9 279.3 86" />
<path style="fill:none;stroke-width:0.7;stroke-linecap:round;stroke-linejoin:round;stroke-miterlimit:3;stroke:#000000;stroke-opacity:0.45098" d="M285.05 77.6L283.1 77.9L280.5 75.05Q272.35 75.05 266.6 78.45Q260.95 81.8 260.85 86.55L265.55 96.05Q286.35 88.45 289 87.8L286.85 83.55L283.15 84.85L279.3 86" />
<path style="fill:none;stroke-width:0.7;stroke-linecap:round;stroke-linejoin:round;stroke-miterlimit:3;stroke:#000000;stroke-opacity:0.45098" d="M201.7 69.55Q199.2 78.65 196.45 86.05L199.15 91.25L205.6 90.5L210.15 90.2L217.8 90.95Q226.05 92.15 230.8 94.7Q232.85 92.5 238.7 88.6Q245.8 83.8 252.1 81.2" />
<path style="fill:none;stroke-width:0.7;stroke-linecap:round;stroke-linejoin:round;stroke-miterlimit:3;stroke:#000000;stroke-opacity:0.388235" d="M287 70.9L289.2 73.75" />
<path style="fill:none;stroke-width:0.7;stroke-linecap:round;stroke-linejoin:round;stroke-miterlimit:3;stroke:#000000;stroke-opacity:0.45098" d="M289.2 73.75L291.95 78.2Q294.65 83.35 295.6 88.5" />
<path style="fill:none;stroke-width:0.7;stroke-linecap:round;stroke-linejoin:round;stroke-miterlimit:3;stroke:#000000;stroke-opacity:0.45098" d="M285.05 77.6L287.2 77.7Q289.45 77.9 289.8 78.35Q290.2 78.9 288.85 81.25Q287.55 83.65 286.85 83.55" />
<path style="fill:none;stroke-width:0.7;stroke-linecap:round;stroke-linejoin:round;stroke-miterlimit:3;stroke:#000000;stroke-opacity:0.45098" d="M202.75 65.4L201.7 69.55" />
<path style="fill:none;stroke-width:0.7;stroke-linecap:round;stroke-linejoin:round;stroke-miterlimit:3;stroke:#000000;stroke-opacity:0.45098" d="M196.45 86.05Q195.7 87.2 194.7 87.2Q194.4 87.2 193.75 86.85L192 85.4Q191.95 88.25 190.55 91.75Q189.35 94.7 188.35 95.8L199.15 91.25" />
<path style="fill:none;stroke-width:0.7;stroke-linecap:round;stroke-linejoin:round;stroke-miterlimit:3;stroke:#000000;stroke-opacity:0.45098" d="M192 85.4Q191.1 83.75 189.7 76.9Q188.15 69.15 188.1 63.7" />
<path style="fill:none;stroke-width:0.7;stroke-linecap:round;stroke-linejoin:round;stroke-miterlimit:3;stroke:#000000;stroke-opacity:0.45098" d="M230.8 94.7L234.9 96.5Q237.35 97.4 244.9 102.75Q251.85 107.7 253.65 109.45" />
<path style="fill:none;stroke-width:0.7;stroke-linecap:round;stroke-linejoin:round;stroke-miterlimit:3;stroke:#000000;stroke-opacity:0.45098" d="M229.3 142.65L225.6 146.05L227 146.15L230.6 145.85L234.9 146L239.05 146.55L236.35 150.2L235.15 154.05L234.1 158L235.75 155.6Q237.45 154.1 239.5 152.95Q239.35 154.5 240.95 160.55Q242.65 167.05 244 168.15Q243.55 166.85 245.1 164.75Q246.4 162.9 247.8 162.1L256.3 173" />
<path style="fill:none;stroke-width:0.7;stroke-linecap:round;stroke-linejoin:round;stroke-miterlimit:3;stroke:#000000;stroke-opacity:0.45098" d="M244.65 136.45Q241.8 136.9 237.2 138.6Q231.65 140.6 229.3 142.65" />
<path style="fill:none;stroke-width:0.7;stroke-linecap:round;stroke-linejoin:round;stroke-miterlimit:3;stroke:#000000;stroke-opacity:0.45098" d="M196.45 132.85L196.45 133.2Q196.45 137.2 198.15 143.8Q199.55 149.5 200.85 152.25" />
<path style="fill:none;stroke-width:0.7;stroke-linecap:round;stroke-linejoin:round;stroke-miterlimit:3;stroke:#000000;stroke-opacity:0.45098" d="M188.35 95.8Q185.85 97.1 180.25 104.25Q174.85 111.1 170.15 118.75" />
<path style="fill:none;stroke-width:0.7;stroke-linecap:round;stroke-linejoin:round;stroke-miterlimit:3;stroke:#000000;stroke-opacity:0.45098" d="M176.35 162.8Q179.7 168.15 184.9 172.75Q189.4 176.75 191.5 177.15" />
<path style="fill:none;stroke-width:0.7;stroke-linecap:round;stroke-linejoin:round;stroke-miterlimit:3;stroke:#000000;stroke-opacity:0.45098" d="M196.45 132.85Q195.3 125.65 200.05 115.3Q204.85 104.95 211.45 100.45" />
<path style="fill:none;stroke-width:0.7;stroke-linecap:round;stroke-linejoin:round;stroke-miterlimit:3;stroke:#000000;stroke-opacity:0.45098" d="M176.35 162.8Q176.05 161.95 171.15 130.95" />
<path style="fill:none;stroke-width:0.8;stroke-linecap:round;stroke-linejoin:round;stroke-miterlimit:3;stroke:#000000;stroke-opacity:0.501961" d="M289.7 122.1Q287.7 120.7 285.05 119.8Q283.05 119.1 282.35 119.1Q280.9 119.55 279.05 120.45Q275.35 122.2 273.1 124.45" />
<path style="fill:none;stroke-width:0.7;stroke-linecap:round;stroke-linejoin:round;stroke-miterlimit:3;stroke:#000000;stroke-opacity:0.45098" d="M294.4 130.1Q293.5 128.6 291 127.45Q288.1 126.1 285.6 126.8" />
<path style="fill:none;stroke-width:0.7;stroke-linecap:round;stroke-linejoin:round;stroke-miterlimit:3;stroke:#000000;stroke-opacity:0.45098" d="M317.9 145.3L315.85 146.4" />
<path style="fill:none;stroke-width:0.7;stroke-linecap:round;stroke-linejoin:round;stroke-miterlimit:3;stroke:#000000;stroke-opacity:0.45098" d="M321.85 135.9Q319.85 131.35 319.85 128.25" />
<path style="fill:none;stroke-width:0.8;stroke-linecap:round;stroke-linejoin:round;stroke-miterlimit:3;stroke:#000000;stroke-opacity:0.501961" d="M325.3 158.35L323.35 158.95L321.35 159.1" />
<path style="fill:none;stroke-width:0.7;stroke-linecap:round;stroke-linejoin:round;stroke-miterlimit:3;stroke:#000000;stroke-opacity:0.45098" d="M321.35 159.1Q321.55 163.3 319.55 166.7Q317.5 170.05 314.45 170.4Q311.35 170.75 309 167.85Q306.65 164.95 306.35 160.25" />
<path style="fill:none;stroke-width:0.8;stroke-linecap:round;stroke-linejoin:round;stroke-miterlimit:3;stroke:#000000;stroke-opacity:0.501961" d="M306.35 160.25Q305.45 158.7 304.45 158.7Q302.8 158.7 301.05 159.3Q298.95 159.95 297.75 161.2" />
<path style="fill:none;stroke-width:0.8;stroke-linecap:round;stroke-linejoin:round;stroke-miterlimit:3;stroke:#000000;stroke-opacity:0.501961" d="M321.35 159.1Q320.65 158.55 319.65 158.55L315.9 160Q312.1 161.45 310.65 161.45Q308.85 161.45 306.35 160.25" />
<path style="fill:none;stroke-width:0.7;stroke-linecap:round;stroke-linejoin:round;stroke-miterlimit:3;stroke:#000000;stroke-opacity:0.45098" d="M310.3 189.75Q306.6 188.8 302.2 189.75Q303.9 188.05 309.05 186.35Q314.9 184.4 319.45 184.8Q319.15 183.65 320.3 181.5Q321.7 179 324.25 177.45" />
<path style="fill:none;stroke-width:0.7;stroke-linecap:round;stroke-linejoin:round;stroke-miterlimit:3;stroke:#000000;stroke-opacity:0.45098" d="M311.95 178.85Q312.55 178.7 316.45 176.75L320.75 174.45" />
<path style="fill:none;stroke-width:0.7;stroke-linecap:round;stroke-linejoin:round;stroke-miterlimit:3;stroke:#000000;stroke-opacity:0.45098" d="M278.8 181.8L286.9 182.2" />
<path style="fill:none;stroke-width:0.7;stroke-linecap:round;stroke-linejoin:round;stroke-miterlimit:3;stroke:#000000;stroke-opacity:0.45098" d="M274.6 268.65L274.5 268.55L274.7 268.7L274.8 268.75L274.85 268.75Q276.3 270.65 282.85 274.5Q288.9 278.1 295.95 281.45L299.3 281.3Q312.85 281.65 317.55 281.35L325.4 280.45" />
<path style="fill:none;stroke-width:0.7;stroke-linecap:round;stroke-linejoin:round;stroke-miterlimit:3;stroke:#000000;stroke-opacity:0.45098" d="M274.6 268.65L274.6 268.7L274.7 268.7" />
<path style="fill:none;stroke-width:0.7;stroke-linecap:round;stroke-linejoin:round;stroke-miterlimit:3;stroke:#000000;stroke-opacity:0.45098" d="M274.8 268.75L274.6 268.7" />
<path style="fill:none;stroke-width:0.7;stroke-linecap:round;stroke-linejoin:round;stroke-miterlimit:3;stroke:#000000;stroke-opacity:0.45098" d="M299.3 281.3Q296.6 285.25 299.45 288.4" />
<path style="fill:none;stroke-width:0.7;stroke-linecap:round;stroke-linejoin:round;stroke-miterlimit:3;stroke:#000000;stroke-opacity:0.2" d="M299.45 288.4L299.5 288.45" />
<path style="fill:none;stroke-width:0.7;stroke-linecap:round;stroke-linejoin:round;stroke-miterlimit:3;stroke:#000000;stroke-opacity:0.45098" d="M299.5 288.45L301.15 289.15L302.75 289.75" />
<path style="fill:none;stroke-width:0.7;stroke-linecap:round;stroke-linejoin:round;stroke-miterlimit:3;stroke:#000000;stroke-opacity:0.45098" d="M268.25 301Q271.2 299.4 281.45 292.05L295.95 281.45" />
<path style="fill:none;stroke-width:0.7;stroke-linecap:round;stroke-linejoin:round;stroke-miterlimit:3;stroke:#000000;stroke-opacity:0.2" d="M226.7 340.5Q234.5 333 255.7 317.45Q280.25 299.4 299.45 288.4" />
<path style="fill:none;stroke-width:0.7;stroke-linecap:round;stroke-linejoin:round;stroke-miterlimit:3;stroke:#000000;stroke-opacity:0.45098" d="M326.1 140.75L321.95 126.4L325.5 133.4" />
</g>
<g id="PathID_1614" transform="matrix(1, 0, 0, 1, 28.7, 3)">
<path style="fill:#B5A13A;fill-opacity:1" d="M119.45 379.45L109.55 384.55Q125.7 390.2 161.4 376.95L143.35 395.75Q153 394.6 181.8 387.9L176.25 380.85L181.45 383.95Q198 369.7 206 351.5L203.05 347.85Q184.05 343.65 168.05 346.85L172.45 342.5Q186.95 340.85 199.8 344.15L199.95 341.4Q193.65 338.55 191.3 337.8L211.75 343.3L212 343.1L220.8 337.25L228.55 335.15Q236.75 332.6 238.8 330.35L245 330.7Q243.05 332.65 229.8 340L263.15 333.05L224.15 341.7Q223.05 341.85 218.05 343.85L213.3 345.85L214.6 351.55L212.3 358.3Q217.75 380.45 208.3 400.8Q211.3 383.75 208.45 367.65L207.45 362.9Q195.5 382.75 180.35 394.55Q172.65 401.05 161.65 402.35L168.5 397.85L162.05 394.45Q146.85 400 131.05 402.65L148.8 384.8Q133.35 392.15 117.35 395.5Q83.9 394.9 61.15 371.35L60.9 371.1Q86.3 384.85 119.45 379.45M263.15 333.05L263.15 337L252.35 337.95Q240.4 339.25 234.45 341.2L224.15 341.7L229.8 340M203.15 335.55L204.05 331.45Q205.8 320.8 202.45 311.3Q209.05 313.55 207.95 328L203.15 335.55M209.8 333.75L231.4 308.9L231.4 319.65Q224.1 326.3 217.9 330.65Q216.05 331.95 208.1 336.3L209.8 333.75M191.65 352.9Q176.95 365.6 171.2 369.1Q147.15 376.3 120.4 373.2L133.9 372.05Q147.15 372.2 154.4 370.35Q165.45 368.15 186.75 355.15L191.65 352.9M142 353.2L156.7 353.25L143.95 357.05Q126 358.05 115.6 361.95Q128.7 355.5 142 353.2" />
<linearGradient
id="LinearGradID_883" gradientUnits="userSpaceOnUse" gradientTransform="matrix(0.00457764, 0.043335, -0.0497437, 0.00526428, 136.25, 347.1)" spreadMethod ="pad" x1="-819.2" y1="0" x2="819.2" y2="0" >
<stop  offset="0" style="stop-color:#EBDD54;stop-opacity:1" />
<stop  offset="0.992157" style="stop-color:#D4CE58;stop-opacity:1" />
</linearGradient>
<path style="fill:url(#LinearGradID_883) " d="M208.1 336.3Q216.05 331.95 217.9 330.65L238.7 320.9L219.55 332.6L235.2 327.1Q252.45 321.4 260.3 320.05Q239.1 327.55 220.8 337.25L212 343.1L211.75 343.3L191.3 337.8Q193.65 338.55 199.95 341.4L199.8 344.15Q186.95 340.85 172.45 342.5L168.05 346.85Q184.05 343.65 203.05 347.85L206 351.5Q198 369.7 181.45 383.95L176.25 380.85L181.8 387.9Q153 394.6 143.35 395.75L161.4 376.95Q125.7 390.2 109.55 384.55L119.45 379.45Q86.3 384.85 60.9 371.1Q81.1 373.75 100.5 356.45Q120.95 340.25 147.85 332.95Q131.55 330.4 115.05 334.45Q152.5 320.1 191.35 330.15Q184.35 319.5 172.7 313.8Q186.1 316.15 195.9 326.05Q200.8 331 203.15 335.55L207.95 328Q214.55 314.9 218 300.7Q223.8 304.7 224.15 309.5Q218.1 322.8 209.8 333.75L208.1 336.3M143.95 357.05L156.7 353.25L142 353.2Q128.7 355.5 115.6 361.95L111.35 364.15Q117.25 352.85 133.4 347.65Q117.25 352.85 111.35 364.15L115.6 361.95Q126 358.05 143.95 357.05M133.9 372.05L120.4 373.2Q142.45 370.75 171.9 352.2Q147.15 376.3 171.2 369.1Q176.95 365.6 191.65 352.9L186.75 355.15Q156.4 368.7 133.9 372.05M191.3 337.8Q183.6 335.45 174.2 335.1Q168.05 339.35 166.8 343.25L172.45 342.5L166.8 343.25Q168.05 339.35 174.2 335.1Q183.6 335.45 191.3 337.8M203.05 347.85Q202.65 349.75 192.9 361.65Q181.7 375.3 174.65 379.85L176.25 380.85L174.65 379.85Q181.7 375.3 192.9 361.65Q202.65 349.75 203.05 347.85M171.9 352.2Q142.45 370.75 120.4 373.2" />
<path style="fill:#998629;fill-opacity:1" d="M117.35 395.5Q133.35 392.15 148.8 384.8L131.05 402.65Q146.85 400 162.05 394.45L168.5 397.85L161.65 402.35Q172.65 401.05 180.35 394.55Q195.5 382.75 207.45 362.9L208.45 367.65Q201.65 382.55 192.2 397.3L189.2 396.9L186.15 396.5Q177.05 408.15 159.8 414.8Q169.35 410.6 179.6 400.1Q158.25 411.7 135.55 415.35Q152.5 406.95 162.65 397.45Q127.95 411.8 92.05 410.9Q117 405.15 137.65 393.9Q127.75 395.55 117.35 395.5M186.75 355.15Q165.45 368.15 154.4 370.35Q147.15 372.2 133.9 372.05Q156.4 368.7 186.75 355.15M242.05 375.95Q236.9 365.1 225.85 355.75Q223.4 352.6 220.2 349.45Q226.5 352.55 231.55 356.05L231.8 356.25Q239.3 365.4 242.05 375.95M186.15 396.5Q195.15 387.95 200.65 376.95Q195.15 387.95 186.15 396.5L189.2 396.9" />
<linearGradient
id="LinearGradID_884" gradientUnits="userSpaceOnUse" gradientTransform="matrix(-0.0231781, 0.0231781, -0.0142059, -0.0142059, 238.2, 357.65)" spreadMethod ="pad" x1="-819.2" y1="0" x2="819.2" y2="0" >
<stop  offset="0.0156863" style="stop-color:#EBDD54;stop-opacity:1" />
<stop  offset="0.992157" style="stop-color:#D4CE58;stop-opacity:1" />
</linearGradient>
<path style="fill:url(#LinearGradID_884) " d="M265.05 347.7L255.4 353.8Q244.15 348.5 230.3 346.6Q249.1 353 262.1 366.1Q259.4 370.1 254.65 371.95Q251.05 365.55 242.55 360.2L239.55 362.85Q236.15 359.35 231.8 356.25L231.55 356.05Q226.5 352.55 220.2 349.45Q223.4 352.6 225.85 355.75Q230.75 362 231.95 369.55L226.95 370.95Q226.95 359.1 218.75 350.95Q223.2 362.55 220.55 374.1Q220.7 369.75 217.65 360.15L214.6 351.55L213.3 345.85L218.05 343.85Q223.05 341.85 224.15 341.7L234.45 341.2Q250.75 341.35 265.05 347.7" />
<path style="fill:none;stroke-width:0.7;stroke-linecap:round;stroke-linejoin:round;stroke-miterlimit:3;stroke:#000000;stroke-opacity:0.45098" d="M60.9 371.1L61.15 371.35Q83.9 394.9 117.35 395.5" />
<path style="fill:none;stroke-width:0.7;stroke-linecap:round;stroke-linejoin:round;stroke-miterlimit:3;stroke:#000000;stroke-opacity:0.301961" d="M207.45 362.9L208.45 367.65" />
<path style="fill:none;stroke-width:0.7;stroke-linecap:round;stroke-linejoin:round;stroke-miterlimit:3;stroke:#000000;stroke-opacity:0.45098" d="M208.45 367.65Q211.3 383.75 208.3 400.8Q217.75 380.45 212.3 358.3L214.6 351.55" />
<path style="fill:none;stroke-width:0.7;stroke-linecap:round;stroke-linejoin:round;stroke-miterlimit:3;stroke:#000000;stroke-opacity:0.301961" d="M213.3 345.85L218.05 343.85Q223.05 341.85 224.15 341.7" />
<path style="fill:none;stroke-width:0.7;stroke-linecap:round;stroke-linejoin:round;stroke-miterlimit:3;stroke:#000000;stroke-opacity:0.45098" d="M224.15 341.7L229.8 340" />
<path style="fill:none;stroke-width:0.7;stroke-linecap:round;stroke-linejoin:round;stroke-miterlimit:3;stroke:#000000;stroke-opacity:0.301961" d="M229.8 340Q243.05 332.65 245 330.7L238.8 330.35Q236.75 332.6 228.55 335.15L220.8 337.25L212 343.1L211.75 343.3" />
<path style="fill:none;stroke-width:0.7;stroke-linecap:round;stroke-linejoin:round;stroke-miterlimit:3;stroke:#000000;stroke-opacity:0.301961" d="M191.3 337.8Q193.65 338.55 199.95 341.4L199.8 344.15Q186.95 340.85 172.45 342.5" />
<path style="fill:none;stroke-width:0.7;stroke-linecap:round;stroke-linejoin:round;stroke-miterlimit:3;stroke:#000000;stroke-opacity:0.301961" d="M206 351.5Q198 369.7 181.45 383.95L176.25 380.85" />
<path style="fill:none;stroke-width:0.7;stroke-linecap:round;stroke-linejoin:round;stroke-miterlimit:3;stroke:#000000;stroke-opacity:0.45098" d="M60.9 371.1Q81.1 373.75 100.5 356.45Q120.95 340.25 147.85 332.95Q131.55 330.4 115.05 334.45Q152.5 320.1 191.35 330.15Q184.35 319.5 172.7 313.8Q186.1 316.15 195.9 326.05Q200.8 331 203.15 335.55" />
<path style="fill:none;stroke-width:0.7;stroke-linecap:round;stroke-linejoin:round;stroke-miterlimit:3;stroke:#000000;stroke-opacity:0.301961" d="M203.15 335.55L204.05 331.45Q205.8 320.8 202.45 311.3Q209.05 313.55 207.95 328Q214.55 314.9 218 300.7Q223.8 304.7 224.15 309.5Q218.1 322.8 209.8 333.75L231.4 308.9L231.4 319.65Q224.1 326.3 217.9 330.65L238.7 320.9L219.55 332.6L235.2 327.1Q252.45 321.4 260.3 320.05Q239.1 327.55 220.8 337.25" />
<path style="fill:none;stroke-width:0.7;stroke-linecap:round;stroke-linejoin:round;stroke-miterlimit:3;stroke:#000000;stroke-opacity:0.301961" d="M115.6 361.95L111.35 364.15Q117.25 352.85 133.4 347.65" />
<path style="fill:none;stroke-width:0.7;stroke-linecap:round;stroke-linejoin:round;stroke-miterlimit:3;stroke:#000000;stroke-opacity:0.301961" d="M133.9 372.05L120.4 373.2" />
<path style="fill:none;stroke-width:0.7;stroke-linecap:round;stroke-linejoin:round;stroke-miterlimit:3;stroke:#000000;stroke-opacity:0.301961" d="M191.65 352.9L186.75 355.15Q156.4 368.7 133.9 372.05" />
<path style="fill:none;stroke-width:0.7;stroke-linecap:round;stroke-linejoin:round;stroke-miterlimit:3;stroke:#000000;stroke-opacity:0.301961" d="M115.6 361.95Q128.7 355.5 142 353.2" />
<path style="fill:none;stroke-width:0.7;stroke-linecap:round;stroke-linejoin:round;stroke-miterlimit:3;stroke:#000000;stroke-opacity:0.45098" d="M208.45 367.65Q201.65 382.55 192.2 397.3L189.2 396.9Q177.05 408.15 159.8 414.8Q169.35 410.6 179.6 400.1Q158.25 411.7 135.55 415.35Q152.5 406.95 162.65 397.45Q127.95 411.8 92.05 410.9Q117 405.15 137.65 393.9Q127.75 395.55 117.35 395.5" />
<path style="fill:none;stroke-width:0.7;stroke-linecap:round;stroke-linejoin:round;stroke-miterlimit:3;stroke:#000000;stroke-opacity:0.301961" d="M203.15 335.55L207.95 328" />
<path style="fill:none;stroke-width:0.7;stroke-linecap:round;stroke-linejoin:round;stroke-miterlimit:3;stroke:#000000;stroke-opacity:0.45098" d="M208.1 336.3Q216.05 331.95 217.9 330.65" />
<path style="fill:none;stroke-width:0.7;stroke-linecap:round;stroke-linejoin:round;stroke-miterlimit:3;stroke:#000000;stroke-opacity:0.301961" d="M209.8 333.75L208.1 336.3" />
<path style="fill:none;stroke-width:0.7;stroke-linecap:round;stroke-linejoin:round;stroke-miterlimit:3;stroke:#000000;stroke-opacity:0.301961" d="M234.45 341.2L224.15 341.7" />
<path style="fill:none;stroke-width:0.7;stroke-linecap:round;stroke-linejoin:round;stroke-miterlimit:3;stroke:#000000;stroke-opacity:0.301961" d="M172.45 342.5L166.8 343.25Q168.05 339.35 174.2 335.1Q183.6 335.45 191.3 337.8" />
<path style="fill:none;stroke-width:0.7;stroke-linecap:round;stroke-linejoin:round;stroke-miterlimit:3;stroke:#000000;stroke-opacity:0.301961" d="M176.25 380.85L174.65 379.85Q181.7 375.3 192.9 361.65Q202.65 349.75 203.05 347.85" />
<path style="fill:none;stroke-width:0.7;stroke-linecap:round;stroke-linejoin:round;stroke-miterlimit:3;stroke:#000000;stroke-opacity:0.301961" d="M225.85 355.75Q230.75 362 231.95 369.55L226.95 370.95Q226.95 359.1 218.75 350.95Q223.2 362.55 220.55 374.1Q220.7 369.75 217.65 360.15L214.6 351.55" />
<path style="fill:none;stroke-width:0.7;stroke-linecap:round;stroke-linejoin:round;stroke-miterlimit:3;stroke:#000000;stroke-opacity:0.301961" d="M231.8 356.25Q236.15 359.35 239.55 362.85L242.55 360.2Q251.05 365.55 254.65 371.95Q259.4 370.1 262.1 366.1Q249.1 353 230.3 346.6Q244.15 348.5 255.4 353.8L265.05 347.7Q250.75 341.35 234.45 341.2" />
<path style="fill:none;stroke-width:0.7;stroke-linecap:round;stroke-linejoin:round;stroke-miterlimit:3;stroke:#000000;stroke-opacity:0.45098" d="M234.45 341.2Q240.4 339.25 252.35 337.95L263.15 337L263.15 333.05L229.8 340" />
<path style="fill:none;stroke-width:0.7;stroke-linecap:round;stroke-linejoin:round;stroke-miterlimit:3;stroke:#000000;stroke-opacity:0.301961" d="M231.8 356.25L231.55 356.05Q226.5 352.55 220.2 349.45Q223.4 352.6 225.85 355.75Q236.9 365.1 242.05 375.95Q239.3 365.4 231.8 356.25z" />
<path style="fill:none;stroke-width:0.7;stroke-linecap:round;stroke-linejoin:round;stroke-miterlimit:3;stroke:#000000;stroke-opacity:0.45098" d="M242.05 375.95L242.15 376.4" />
<path style="fill:none;stroke-width:0.7;stroke-linecap:round;stroke-linejoin:round;stroke-miterlimit:3;stroke:#000000;stroke-opacity:0.301961" d="M120.4 373.2Q142.45 370.75 171.9 352.2" />
<path style="fill:none;stroke-width:0.7;stroke-linecap:round;stroke-linejoin:round;stroke-miterlimit:3;stroke:#000000;stroke-opacity:0.301961" d="M189.2 396.9L186.15 396.5Q195.15 387.95 200.65 376.95" />
</g>
<g id="PathID_1615" transform="matrix(1, 0, 0, 1, 28.7, 3)">
<path style="fill:#CFBC5A;fill-opacity:1" d="M204.85 340.85Q203.85 339.35 202.8 336.6L201.95 334.15L203.05 333.2Q204.25 332.3 205.05 332.45L205.2 332.45L206.6 335.95Q208.85 340.55 213.05 344.3Q205.25 337.3 204.85 340.85M213.05 344.3L213.3 344.5Q215.05 346.15 217.25 347.6Q216.75 348.15 214.85 348.3L212.35 348.2Q212.35 346.25 213.3 344.5Q212.35 346.25 212.35 348.2Q209.6 346.95 206.35 342.9L204.85 340.85Q205.25 337.3 206.6 335.95" />
<path style="fill:#A39138;fill-opacity:1" d="M218.45 356.85Q216.85 356.55 215.35 355.85Q214.4 355.45 211.1 352.6Q207.8 349.7 206.85 348.4L204.65 344.9Q203.1 342 202.3 338.8Q202.1 338.1 202 336.05L201.95 334.15L202 336.05Q202.1 338.1 202.3 338.8Q203.1 342 204.65 344.9Q204.6 342.55 204.85 340.85L206.35 342.9Q209.6 346.95 212.35 348.2L214.85 348.3Q216.75 348.15 217.25 347.6L220.95 349.85Q223.6 353.75 221.6 356.9L218.45 356.85Q218.65 360.25 213.55 360.1L210.35 357.75Q204.4 353 201.5 346.75Q199.4 342.2 198.8 336.9Q199.5 333.7 201.25 334.75L201.95 334.15L202.8 336.6Q203.85 339.35 204.85 340.85Q204.6 342.55 204.65 344.9L206.85 348.4Q207.8 349.7 211.1 352.6Q214.4 355.45 215.35 355.85Q216.85 356.55 218.45 356.85M210.35 357.75Q205.7 351.8 206.85 348.4Q205.7 351.8 210.35 357.75M212.35 348.2Q212.35 351.6 215.35 355.85Q212.35 351.6 212.35 348.2M202.3 338.8Q200.05 340.5 201.5 346.75Q200.05 340.5 202.3 338.8" />
<path style="fill:none;stroke-width:0.7;stroke-linecap:round;stroke-linejoin:round;stroke-miterlimit:3;stroke:#000000;stroke-opacity:0.352941" d="M206.6 335.95L205.2 332.45L205.05 332.45Q204.25 332.3 203.05 333.2L201.95 334.15" />
<path style="fill:none;stroke-width:0.7;stroke-linecap:round;stroke-linejoin:round;stroke-miterlimit:3;stroke:#000000;stroke-opacity:0.301961" d="M204.85 340.85Q205.25 337.3 206.6 335.95" />
<path style="fill:none;stroke-width:0.7;stroke-linecap:round;stroke-linejoin:round;stroke-miterlimit:3;stroke:#000000;stroke-opacity:0.352941" d="M206.6 335.95Q208.85 340.55 213.05 344.3L213.3 344.5Q215.05 346.15 217.25 347.6L220.95 349.85Q223.6 353.75 221.6 356.9L218.45 356.85Q218.65 360.25 213.55 360.1L210.35 357.75Q204.4 353 201.5 346.75Q199.4 342.2 198.8 336.9Q199.5 333.7 201.25 334.75L201.95 334.15L202 336.05Q202.1 338.1 202.3 338.8Q203.1 342 204.65 344.9" />
<path style="fill:none;stroke-width:0.7;stroke-linecap:round;stroke-linejoin:round;stroke-miterlimit:3;stroke:#000000;stroke-opacity:0.301961" d="M204.65 344.9Q204.6 342.55 204.85 340.85" />
<path style="fill:none;stroke-width:0.7;stroke-linecap:round;stroke-linejoin:round;stroke-miterlimit:3;stroke:#000000;stroke-opacity:0.301961" d="M212.35 348.2Q212.35 346.25 213.3 344.5" />
<path style="fill:none;stroke-width:0.7;stroke-linecap:round;stroke-linejoin:round;stroke-miterlimit:3;stroke:#000000;stroke-opacity:0.352941" d="M215.35 355.85Q216.85 356.55 218.45 356.85" />
<path style="fill:none;stroke-width:0.7;stroke-linecap:round;stroke-linejoin:round;stroke-miterlimit:3;stroke:#000000;stroke-opacity:0.301961" d="M206.85 348.4Q205.7 351.8 210.35 357.75" />
<path style="fill:none;stroke-width:0.7;stroke-linecap:round;stroke-linejoin:round;stroke-miterlimit:3;stroke:#000000;stroke-opacity:0.352941" d="M215.35 355.85Q214.4 355.45 211.1 352.6Q207.8 349.7 206.85 348.4L204.65 344.9" />
<path style="fill:none;stroke-width:0.7;stroke-linecap:round;stroke-linejoin:round;stroke-miterlimit:3;stroke:#000000;stroke-opacity:0.301961" d="M215.35 355.85Q212.35 351.6 212.35 348.2" />
<path style="fill:none;stroke-width:0.7;stroke-linecap:round;stroke-linejoin:round;stroke-miterlimit:3;stroke:#000000;stroke-opacity:0.301961" d="M201.5 346.75Q200.05 340.5 202.3 338.8" />
</g>
<g id="PathID_1616" transform="matrix(1, 0, 0, 1, 28.7, 3)">
<radialGradient
id="RadialGradID_885" gradientUnits="userSpaceOnUse" gradientTransform="matrix(0.0215607, 0, 0, 0.0215607, 284.35, 138.5)" spreadMethod ="pad" cx="0" cy="0" r="819.2" fx="0" fy="0" >
<stop  offset="0"  style="stop-color:#FCF1E2;stop-opacity:1" />
<stop  offset="1"  style="stop-color:#BDB4A9;stop-opacity:1" />
</radialGradient>
<path style="fill:url(#RadialGradID_885) " d="M296 138.95Q292.95 145.75 289.1 147.3Q285.7 148.7 281 148.7L276.3 148.35Q276.75 136.45 283.7 134.6Q289.7 133.1 296 138.95" />
<path style="fill:#BDB4A9;fill-opacity:1" d="M283.7 134.6Q276.75 136.45 276.3 148.35L275.05 144.75Q273.3 131.45 284.8 129.8L284.95 129.85Q292.25 130.75 296.3 138L296 138.95Q289.7 133.1 283.7 134.6" />
</g>
<g id="PathID_1617" transform="matrix(1, 0, 0, 1, 28.7, 3)">
<path style="fill:#000000;fill-opacity:1" d="M285.55 139.5Q285.55 143.3 284.1 145.95Q282.55 148.65 280.45 148.65Q278.35 148.65 276.85 145.95Q275.35 143.3 275.35 139.5Q275.35 135.75 276.85 133Q278.35 130.35 280.45 130.35Q282.55 130.35 284.1 133Q285.55 135.75 285.55 139.5M280.25 132.45Q278.85 132.5 277.65 135.1Q276.65 137.25 276.65 139Q276.65 140.85 277.5 142.9Q278.6 145.5 280.25 145.55Q281.95 145.6 283.05 142.95Q283.95 140.85 283.95 139Q283.95 137.25 282.9 135.05Q281.7 132.4 280.25 132.45" />
<linearGradient
id="LinearGradID_886" gradientUnits="userSpaceOnUse" gradientTransform="matrix(0, 0.00611877, -0.00799561, 0, 280.25, 139)" spreadMethod ="pad" x1="-819.2" y1="0" x2="819.2" y2="0" >
<stop  offset="0" style="stop-color:#000000;stop-opacity:1" />
<stop  offset="1" style="stop-color:#1F1717;stop-opacity:1" />
</linearGradient>
<path style="fill:url(#LinearGradID_886) " d="M282.9 135.05Q283.95 137.25 283.95 139Q283.95 140.85 283.05 142.95Q281.95 145.6 280.25 145.55Q278.6 145.5 277.5 142.9Q276.65 140.85 276.65 139Q276.65 137.25 277.65 135.1Q278.85 132.5 280.25 132.45Q281.7 132.4 282.9 135.05" />
</g>
<g id="PathID_1618" transform="matrix(1, 0, 0, 1, 28.7, 3)">
<path style="fill:#000000;fill-opacity:1" d="M278.7 136.8Q279.15 135.95 279.85 135.95Q280.5 135.95 281 136.8Q281.45 137.65 281.45 138.85Q281.45 140.05 281 140.9Q280.5 141.75 279.85 141.75Q279.15 141.75 278.7 140.9Q278.2 140.05 278.2 138.85Q278.2 137.65 278.7 136.8" />
</g>
<g id="PathID_1619" transform="matrix(1, 0, 0, 1, 28.7, 3)">
<path style="fill:#FFFFFF;fill-opacity:1" d="M288.7 139.65Q289.8 139.85 290 140.55Q290.2 141.25 289.35 142.05Q288.55 142.75 287.15 143.15L284.65 143.3Q283.55 143.05 283.35 142.4Q283.2 141.65 284.05 140.9Q284.85 140.15 286.25 139.75L288.7 139.65" />
</g>
<g id="PathID_1620" transform="matrix(1, 0, 0, 1, 28.7, 3)">
<path style="fill:#FFFFFF;fill-opacity:1" d="M275.2 135.2Q275.65 134.5 276.45 134.25L277.95 134.5Q278.7 134.9 278.95 135.65Q279.1 136.45 278.7 137.2Q278.3 137.95 277.5 138.15L275.9 137.95Q275.2 137.5 275 136.7Q274.75 135.95 275.2 135.2" />
</g>
<g id="PathID_1621" transform="matrix(1, 0, 0, 1, 28.7, 3)">
<path style="fill:#000000;fill-opacity:1" d="M288.75 129.7Q294.55 132 296.85 138.3Q287.65 128 280.1 131.65Q275.35 133.65 276.15 148.2Q272.85 143.75 274.8 134.35Q277.2 128.7 283.4 128.6L285 128.65Q286.95 128.9 288.75 129.7" />
</g>
<g id="PathID_1622" transform="matrix(1, 0, 0, 1, 28.7, 3)">
<path style="fill:#000000;fill-opacity:1" d="M102.55 236.2Q105.35 238.05 103.5 242.2Q70.5 262.3 70.35 262.65L68.1 265.05L66.2 266.35Q68.5 268.2 68.85 270.9L65.5 271.05Q66.05 275.2 58.7 273L62 277.85L57.25 274.3L53.55 275Q53.75 279.55 51.9 284.15Q52.7 280.45 51.95 276.65Q50.55 281.1 44.3 283.7Q38.05 286.3 35.4 286.5Q39.3 284.8 41.55 282.65Q33.75 285.45 25.75 284.75Q31.35 283.75 35.9 281.6L29.05 281.95Q22.55 281.1 18.8 275.2L18.9 275.2Q20.5 275.55 28.2 272Q36.75 268 38.3 267.7Q34.65 266.85 30.95 267.55Q39.45 264.8 48.1 267.8Q46.55 265.2 43.95 263.75Q45.6 264.1 48.6 265.8L51.1 267.1Q48.35 265.35 47.15 262.3Q39.4 262.65 33.7 255.5Q31.9 253.25 30.5 250.55L29.5 248.3L29.4 248.15Q23.4 232.15 8.55 230.5Q23.35 227.7 32.1 246.1Q38.2 256.25 47.45 254.95Q47.45 251.8 53.75 246.35L60 241.5L58.05 238.7Q56.85 236.7 56.5 236.75L53.55 236.95L50.6 236.7L52.2 232.4L48.8 236Q46.2 235.2 44.5 233.15Q41.2 229.3 43.25 222.85Q45.4 216.25 52.5 216.55Q58.05 216.85 60.8 219.4L60.85 219.45Q63.2 221.6 63.95 224.4Q65.65 222.25 65 220.25L66.2 221.4L67.65 222.5Q67.35 221.1 67.95 215.15Q68.7 208.5 70 208.5Q72.1 208.5 71.4 223.55Q75.05 223.5 77.3 225.9Q79.7 228.5 80.8 231.15Q81 231.75 82.75 233.65L84.35 235.6Q84.4 240.5 78.75 244.55Q75.95 246.55 73.15 247.6L75.6 250.45L78.15 253.9L93.25 243.15L102.55 236.2" />
</g>
<g id="PathID_1623" transform="matrix(1, 0, 0, 1, 28.7, 3)">
<path style="fill:#050508;fill-opacity:1" d="M77.9 -0.9L72.9 14.3Q71.9 17.1 66.55 22.7L61.45 27.85L39.75 40.55Q36.1 42.9 31 47.7Q26.45 51.95 25.9 53Q10.95 81 5.95 91.55Q-3.2 110.65 -3.2 117.9Q-3.2 122.35 0.65 138L13.2 115.65L29.85 101.95L37.05 75.9L37.05 97.25L51.05 79.2L59.7 75.95L65.15 47.15L64 74.4L87.6 64.7L74.75 76.4L53.9 83.6L18.25 129.4L2.9 171.7Q1.3 175.7 -2.1 231.75L-5.1 286.95Q-4.55 380.65 42.75 436.1L-27.95 435.7L-28.7 434.9L-28.7 85.3Q-23.85 78.1 -13.45 66.5L-3.5 55.6L-4.65 50.7Q-5.75 44.15 -7.25 40.95Q-9.5 36.1 -9.55 20.55Q-9.6 12.6 -9.25 4.6Q-9.25 3.35 -18.25 -0.75Q-27.3 -4.9 -1.55 -0.35Q-2.65 10.6 0.1 19.85Q2.9 29.55 9.95 38.15Q13.2 29.85 16.15 16.3Q18.8 4 21.4 -3L52.65 -2.85Q50.35 4.1 45.9 13.85Q42.55 21.25 36.25 33.35L50.95 24.35L63.7 16.6L68.45 -0.35L77.9 -0.9" />
</g>
<g id="PathID_1624" transform="matrix(1, 0, 0, 1, 28.7, 3)">
<path style="fill:#000000;fill-opacity:1" d="M130.75 43.95Q129.15 45.8 126.8 46.55L123.65 43.3L125.1 47.3L122.4 47.5L119.65 47.35Q119.35 47.25 118.2 49.05L116.35 51.65L124.85 58.45L126.5 60.85Q127.9 63.2 128.05 64.15Q136.65 65.3 142.25 55.9Q150.35 38.9 164.05 41.5Q150.3 43.05 144.7 57.85L144.65 58L143.7 60.05Q142.45 62.6 140.75 64.65Q135.45 71.25 128.3 70.9Q127.2 73.75 124.65 75.35L127 74.2Q129.75 72.6 131.25 72.3Q128.9 73.6 127.4 76Q135.4 73.25 143.3 75.8Q139.9 75.15 136.5 75.9Q137.9 76.2 145.85 79.9Q152.95 83.2 154.45 82.9L154.55 82.9Q151.1 88.35 145.05 89.1L138.7 88.85Q142.95 90.8 148.15 91.75Q140.7 92.35 133.5 89.8Q135.55 91.8 139.15 93.35Q136.75 93.15 130.9 90.75Q125.15 88.35 123.9 84.25Q123.15 87.75 123.9 91.2Q122.2 86.9 122.4 82.7L118.95 82.1L114.55 85.35L117.65 80.8L114 81.95L111.1 80.7L111.3 79.05L108.25 78.9Q108.55 76.4 110.65 74.7L108.9 73.5Q107.3 72.15 106.85 71.25Q106.65 70.9 95.35 63.85Q83.1 56.15 76.1 52.35Q75.2 50.45 75.6 49Q75.9 47.8 77 46.8Q88.9 56.1 99.6 63.15L102 59.95L104.25 57.35L97.5 53.3Q95.9 52.35 94.7 49.4Q93.65 46.8 93.85 46.2L95.2 45.2L96.1 43.95L97.15 42.1Q98.2 39.65 100.35 37.3Q102.5 35.05 105.85 35.05Q105.2 21.1 107.15 21.1Q108.4 21.1 109.05 27.25Q109.6 32.8 109.35 34.1L110.65 33.05L111.8 32Q111.15 33.85 112.75 35.85Q113.45 33.3 115.6 31.25L115.65 31.2Q118.2 28.85 123.4 28.6Q129.9 28.3 131.9 34.4Q133.8 40.35 130.75 43.95" />
</g>
<g id="PathID_1625" transform="matrix(1, 0, 0, 1, 28.7, 3)">
<path style="fill:#000000;fill-opacity:1" d="M460.4 294.15Q462.2 291.2 467.25 289.6Q473.6 287.55 477.1 293Q480.55 298.35 478.5 302.65Q477.4 304.9 475.25 306.3L471.35 303.85L473.85 307.4L471.2 308.3L468.5 308.85Q468.2 308.85 467.5 310.95L466.45 313.95L476.55 318.4L478.7 320.3Q480.75 322.25 481.15 323.15Q489.85 322 492.85 311.35Q496.35 292.55 510.45 291.55Q497.4 296.6 495.8 312.6L495.75 312.75L495.35 315Q494.8 317.85 493.7 320.25Q490.25 328.15 483.15 329.7Q482.8 332.75 480.75 335L482.7 333.25Q485.05 330.95 486.4 330.25Q484.45 332.15 483.6 334.95Q490.7 330.1 499.1 330.55Q495.6 330.8 492.45 332.45L502.7 333.9Q510.45 335.25 511.9 334.55L512 334.5Q510 340.75 504.3 343.1Q501.4 344.35 498.05 344.5L508 344.85Q500.9 347.4 493.2 346.85Q495.75 348.2 499.65 348.8L490.9 348.45Q484.65 347.55 482.35 343.9Q482.5 347.5 484.15 350.65Q481.35 346.9 480.45 342.75L476.95 343.05L473.5 347.45L475.3 342.2L472.05 344.25L468.9 343.8L468.7 342.1L465.6 342.75Q465.25 340.2 466.9 338Q466.6 338.05 464.85 337.3L462.25 335.65L449.05 331.45Q435.05 327.1 427.25 325.2Q425.85 323.6 425.85 322.05Q425.85 320.8 426.7 319.55Q440.75 325.5 453 329.6L454.55 325.85Q455.75 323 456.05 322.7L448.4 320.5Q446.6 320 444.65 317.45Q442.95 315.2 443 314.6Q443.1 314.1 444 313.2L444.6 311.75L445.1 309.65Q445.5 307 447 304.1Q448.5 301.35 451.8 300.45Q447.5 287 449.4 286.5Q450.6 286.15 452.85 292.05Q454.85 297.3 454.95 298.6L455.95 297.25L456.8 296Q456.7 297.9 458.7 299.45Q458.75 296.8 460.35 294.2L460.4 294.15" />
</g>
</svg>
