<?xml version="1.0" encoding="utf-8"?>
<svg version="1.1" id="Layer_1"
xmlns="http://www.w3.org/2000/svg"
xmlns:xlink="http://www.w3.org/1999/xlink"
width="17px" height="27px"
xml:space="preserve">
<g id="PathID_1753" transform="matrix(1, 0, 0, 1, 0.2, 0.2)">
<path style="fill:#424A18;fill-opacity:1" d="M11.75 1.1L11.1 1L11.9 0.4L12.4 0.4L11.75 1.1" />
<path style="fill:#3B4F19;fill-opacity:1" d="M3.45 8.5L4.2 11.7L5 9.5L5.3 8.85L5.7 7.95L5.3 8.85L5 9.5L4.2 11.7L3.45 8.5L2.6 7.15L4.6 8.6Q5.3 7.7 5.15 5Q6.05 6.1 5.7 7.95L6.95 5.75Q8.9 3.25 10.6 3Q8.9 3.25 6.95 5.75L7.7 4.6Q9 2.85 10.55 1.45L11.1 1L11.75 1.1Q11.1 1.75 11.25 2.45Q11.3 2.8 11.5 3L10.6 3Q9.15 3.9 8.3 5.05Q8.55 5.85 10.7 6.25L10.15 6.25Q7.85 7.2 6.75 8.55Q6.2 9.5 8 9.45Q8.7 9.5 9.75 10.1L9.15 10.05Q6.15 11.05 4.95 12.9Q4.9 13.6 5.9 14.05Q8.5 13.95 11.35 10.8Q10.15 13.1 8.35 14.6Q6.25 15.05 4.4 15.9L2.95 16.65L3.9 12.7L4.2 11.7L2.55 15.9Q0.5 13.85 0 11.9Q-0.05 9.8 0.55 7.95Q0.05 11.3 1.7 12.65Q3.85 13.1 3.45 8.5M7.7 4.6L6.95 5.75L8.3 2.75Q8.35 1.85 7.7 1.35L10 1.45L10.55 1.45Q9 2.85 7.7 4.6M6.95 5.75L5.7 7.95Q6.05 6.1 5.15 5L4.35 4.25L6.6 5.25Q7.45 4.6 8.3 2.75L7.7 4.6M9.15 10.05Q6.05 9.85 3.9 12.7Q6.05 9.85 9.15 10.05M5 9.5Q7.3 6.3 10.15 6.25Q7.3 6.3 5 9.5" />
<path style="fill:#404815;fill-opacity:1" d="M10.55 1.45L10 1.45L11.9 0.4L11.1 1L10.55 1.45" />
<path style="fill:#535D20;fill-opacity:1" d="M11.75 1.1L12.4 0.4Q13.8 0.4 14.8 1.65L11.75 1.1M12.45 8.1L11.8 9.8L8.4 7.9L12.45 8.1M4.6 2.4Q5.25 1.85 7.05 0.8L7.4 1.95L6.4 1.95L7.45 3.5L4.6 2.4M9.45 0.05L11.9 0.4L10 1.45L9.45 0.05" />
<linearGradient
id="LinearGradID_975" gradientUnits="userSpaceOnUse" gradientTransform="matrix(0.00343323, 0.00492859, -0.00648499, 0.00450134, 7.9, 4.25)" spreadMethod ="pad" x1="-819.2" y1="0" x2="819.2" y2="0" >
<stop  offset="0.0117647" style="stop-color:#6C8734;stop-opacity:1" />
<stop  offset="1" style="stop-color:#4D6623;stop-opacity:1" />
</linearGradient>
<path style="fill:url(#LinearGradID_975) " d="M11.25 2.45Q11.1 1.75 11.75 1.1L14.8 1.65Q13.7 2.45 13.2 4.15Q12.95 5 12.45 8.1L8.4 7.9L11.8 9.8L11.35 10.8Q8.5 13.95 5.9 14.05Q4.9 13.6 4.95 12.9Q6.15 11.05 9.15 10.05L9.75 10.1Q8.7 9.5 8 9.45Q6.2 9.5 6.75 8.55Q7.85 7.2 10.15 6.25L10.7 6.25Q8.55 5.85 8.3 5.05Q9.15 3.9 10.6 3L11.5 3Q11.3 2.8 11.25 2.45M12.4 3.35L11.5 3L12.4 3.35" />
<path style="fill:#293C10;fill-opacity:1" d="M14.8 1.65Q16.5 3.9 16.2 6.3Q15 4.05 13.2 4.15Q13.7 2.45 14.8 1.65" />
<linearGradient
id="LinearGradID_976" gradientUnits="userSpaceOnUse" gradientTransform="matrix(0.00291443, 0.00505066, -0.00668335, 0.00386047, 4.3, 4.1)" spreadMethod ="pad" x1="-819.2" y1="0" x2="819.2" y2="0" >
<stop  offset="0.00392157" style="stop-color:#6C8734;stop-opacity:1" />
<stop  offset="1" style="stop-color:#4D6623;stop-opacity:1" />
</linearGradient>
<path style="fill:url(#LinearGradID_976) " d="M4.6 8.6L2.6 7.15L3.45 8.5Q3.85 13.1 1.7 12.65Q0.05 11.3 0.55 7.95Q1.55 4.75 4.6 2.4L7.45 3.5L6.4 1.95L7.4 1.95L7.05 0.8L7.95 0.45L9.45 0.05L10 1.45L7.7 1.35Q8.35 1.85 8.3 2.75Q7.45 4.6 6.6 5.25L4.35 4.25L5.15 5Q5.3 7.7 4.6 8.6" />
<path style="fill:#334A16;fill-opacity:1" d="M4.2 11.7L3.9 12.7L2.95 16.65Q1.85 24.85 2 25.5L0.9 25.8Q0.95 24.7 1.75 20.2L2.55 15.9L4.2 11.7" />
<path style="fill:none;stroke-width:0.7;stroke-linecap:round;stroke-linejoin:round;stroke-miterlimit:3;stroke:#000000;stroke-opacity:0.321569" d="M12.4 0.4L11.9 0.4" />
<path style="fill:none;stroke-width:0.7;stroke-linecap:round;stroke-linejoin:round;stroke-miterlimit:3;stroke:#000000;stroke-opacity:0.321569" d="M11.9 0.4L11.1 1" />
<path style="fill:none;stroke-width:0.7;stroke-linecap:round;stroke-linejoin:round;stroke-miterlimit:3;stroke:#000000;stroke-opacity:0.321569" d="M12.4 0.4Q13.8 0.4 14.8 1.65Q16.5 3.9 16.2 6.3Q15 4.05 13.2 4.15Q12.95 5 12.45 8.1L11.8 9.8L11.35 10.8Q10.15 13.1 8.35 14.6Q6.25 15.05 4.4 15.9L2.95 16.65Q1.85 24.85 2 25.5L0.9 25.8Q0.95 24.7 1.75 20.2L2.55 15.9Q0.5 13.85 0 11.9Q-0.05 9.8 0.55 7.95Q1.55 4.75 4.6 2.4Q5.25 1.85 7.05 0.8L7.95 0.45L9.45 0.05L11.9 0.4" />
<path style="fill:none;stroke-width:0.7;stroke-linecap:round;stroke-linejoin:round;stroke-miterlimit:3;stroke:#000000;stroke-opacity:0.321569" d="M10.55 1.45L11.1 1" />
<path style="fill:none;stroke-width:0.7;stroke-linecap:round;stroke-linejoin:round;stroke-miterlimit:3;stroke:#000000;stroke-opacity:0.321569" d="M11.5 3L10.6 3" />
<path style="fill:none;stroke-width:0.7;stroke-linecap:round;stroke-linejoin:round;stroke-miterlimit:3;stroke:#000000;stroke-opacity:0.321569" d="M10.7 6.25L10.15 6.25" />
<path style="fill:none;stroke-width:0.7;stroke-linecap:round;stroke-linejoin:round;stroke-miterlimit:3;stroke:#000000;stroke-opacity:0.321569" d="M9.75 10.1L9.15 10.05" />
<path style="fill:none;stroke-width:0.7;stroke-linecap:round;stroke-linejoin:round;stroke-miterlimit:3;stroke:#000000;stroke-opacity:0.321569" d="M11.5 3L12.4 3.35" />
<path style="fill:none;stroke-width:0.7;stroke-linecap:round;stroke-linejoin:round;stroke-miterlimit:3;stroke:#000000;stroke-opacity:0.321569" d="M13.2 4.15Q13.7 2.45 14.8 1.65" />
<path style="fill:none;stroke-width:0.7;stroke-linecap:round;stroke-linejoin:round;stroke-miterlimit:3;stroke:#000000;stroke-opacity:0.321569" d="M7.7 1.35Q8.35 1.85 8.3 2.75L7.7 4.6Q9 2.85 10.55 1.45" />
<path style="fill:none;stroke-width:0.7;stroke-linecap:round;stroke-linejoin:round;stroke-miterlimit:3;stroke:#000000;stroke-opacity:0.321569" d="M4.35 4.25L5.15 5Q6.05 6.1 5.7 7.95L6.95 5.75L7.7 4.6" />
<path style="fill:none;stroke-width:0.7;stroke-linecap:round;stroke-linejoin:round;stroke-miterlimit:3;stroke:#000000;stroke-opacity:0.321569" d="M3.45 8.5L2.6 7.15" />
<path style="fill:none;stroke-width:0.7;stroke-linecap:round;stroke-linejoin:round;stroke-miterlimit:3;stroke:#000000;stroke-opacity:0.321569" d="M3.45 8.5L4.2 11.7L5 9.5L5.3 8.85L5.7 7.95" />
<path style="fill:none;stroke-width:0.7;stroke-linecap:round;stroke-linejoin:round;stroke-miterlimit:3;stroke:#000000;stroke-opacity:0.321569" d="M2.95 16.65L3.9 12.7L4.2 11.7L2.55 15.9" />
<path style="fill:none;stroke-width:0.7;stroke-linecap:round;stroke-linejoin:round;stroke-miterlimit:3;stroke:#000000;stroke-opacity:0.321569" d="M3.9 12.7Q6.05 9.85 9.15 10.05" />
<path style="fill:none;stroke-width:0.7;stroke-linecap:round;stroke-linejoin:round;stroke-miterlimit:3;stroke:#000000;stroke-opacity:0.321569" d="M10.15 6.25Q7.3 6.3 5 9.5" />
<path style="fill:none;stroke-width:0.7;stroke-linecap:round;stroke-linejoin:round;stroke-miterlimit:3;stroke:#000000;stroke-opacity:0.321569" d="M6.95 5.75Q8.9 3.25 10.6 3" />
</g>
</svg>
