<?xml version="1.0" encoding="utf-8"?>
<svg version="1.1" id="Layer_1"
xmlns="http://www.w3.org/2000/svg"
xmlns:xlink="http://www.w3.org/1999/xlink"
width="23px" height="31px"
xml:space="preserve">
<g id="PathID_586" transform="matrix(1, 0, 0, 1, 10.8, 24.5)">
<path style="fill:#F1CD5B;fill-opacity:1" d="M1.1 -16.85L-0.35 -16.1L0.9 -18.05L3.7 -17.45L3 -17.45Q2.05 -17.35 1.1 -16.85M2.15 -5.95L1.75 -4.3Q1.45 -3.15 -0.45 -1.25L-2.9 -2Q-0.45 -4.3 2.15 -5.95M-6.3 -4.6L-2.9 -11.55L0.9 -13.65L3.05 -14.25L2.85 -10.5L1.45 -9.85Q-2.45 -7.9 -6.3 -4.6" />
<path style="fill:#47B7C3;fill-opacity:1" d="M0.9 -13.65L-2.9 -11.55L-0.35 -16.1L1.1 -16.85Q2.05 -17.35 3 -17.45L3.05 -15.8L3.05 -14.25L0.9 -13.65M1.45 -9.85L2.85 -10.5L2.15 -5.95Q-0.45 -4.3 -2.9 -2L-6.9 -3.15L-6.3 -4.6Q-2.45 -7.9 1.45 -9.85" />
<path style="fill:#317F87;fill-opacity:1" d="M3.05 -14.25L3.05 -15.8L3 -17.45L3.7 -17.45L4.7 -14.5L3.05 -14.25M2.85 -10.5L5.5 -11.45L6.15 -8.5Q4.35 -7.6 2.6 -6.3L2.15 -5.95L2.85 -10.5M3.65 -3.6Q5.05 -4.7 6.7 -5.2L7.35 0.95L1.05 -0.8Q2.25 -2.55 3.65 -3.6" />
<path style="fill:#B18E20;fill-opacity:1" d="M2.85 -10.5L3.05 -14.25L4.7 -14.5L5.5 -11.45L2.85 -10.5M1.75 -4.3L2.15 -5.95L2.6 -6.3Q4.35 -7.6 6.15 -8.5L6.7 -5.2Q5.05 -4.7 3.65 -3.6Q2.25 -2.55 1.05 -0.8L-0.45 -1.25Q1.45 -3.15 1.75 -4.3" />
<path style="fill:none;stroke-width:0.7;stroke-linecap:round;stroke-linejoin:round;stroke-miterlimit:3;stroke:#000000;stroke-opacity:0.301961" d="M4.7 -14.5L3.7 -17.45" />
<path style="fill:none;stroke-width:0.7;stroke-linecap:round;stroke-linejoin:round;stroke-miterlimit:3;stroke:#000000;stroke-opacity:0.301961" d="M4.7 -14.5L5.5 -11.45L6.15 -8.5L6.7 -5.2L7.35 0.95L1.05 -0.8L-0.45 -1.25L-2.9 -2L-6.9 -3.15L-6.3 -4.6L-2.9 -11.55L-0.35 -16.1L0.9 -18.05L3.7 -17.45" />
</g>
<g id="PathID_587" transform="matrix(1, 0, 0, 1, 10.8, 24.5)">
<path style="fill:#D8FEFF;fill-opacity:1" d="M0.95 -23.2L1.85 -22.3L3.7 -24.35Q4.35 -23.35 4 -21.45L6.95 -21.95Q6.45 -20.35 4.55 -19.75L4.6 -19.7L6.9 -18.7L4.35 -18.35Q4.15 -17.35 4.5 -16.25L2.6 -17.8L2 -16.6L1.4 -17.4L1 -18.2L-1.55 -18.1L-1.85 -18.3L-0.05 -19.9L-0.1 -19.95Q-2.35 -20.65 -1.85 -22.25L0.2 -22.15Q0.5 -22.85 0.05 -23.55L0.95 -23.2" />
<path style="fill:none;stroke-width:0.7;stroke-linecap:round;stroke-linejoin:round;stroke-miterlimit:3;stroke:#000000;stroke-opacity:0.301961" d="M0.05 -23.55Q0.5 -22.85 0.2 -22.15L-1.85 -22.25Q-2.35 -20.65 -0.1 -19.95L-0.05 -19.9L-1.85 -18.3L-1.55 -18.1L1 -18.2L1.4 -17.4L2 -16.6L2.6 -17.8L4.5 -16.25Q4.15 -17.35 4.35 -18.35L6.9 -18.7L4.6 -19.7L4.55 -19.75Q6.45 -20.35 6.95 -21.95L4 -21.45Q4.35 -23.35 3.7 -24.35L1.85 -22.3L0.95 -23.2L0.05 -23.55z" />
</g>
<g id="PathID_588" transform="matrix(1, 0, 0, 1, 10.8, 24.5)">
<path style="fill:#D8FEFF;fill-opacity:1" d="M6.35 -3.5L6.4 -3.45Q6.35 -2.95 5.95 -2.45L11.45 -3.05L10.55 -1.4L10.35 -1.15L10.05 -1.55L10.35 -1.15L10.55 -0.6L10.7 0.05L10.15 -0.2L7.95 -0.7L6.4 -1.05L6.1 -1.05L5.95 0.3L5.6 0.3Q3.85 -0.8 3.25 -0.8Q3 -0.8 2.45 0.2L1.8 1.2L-0.75 -1.2L-3.35 0.3L-3.9 -0.6L-4.4 -1.7Q-5.15 -1.25 -7.2 -0.5L-10.55 0.5L-9.75 -0.95L-9.5 -1.2L-9.25 -1.55L-9.5 -1.2L-9.75 -1.75L-10 -3.6L-8.05 -3.4L-6.3 -3.35L-6.7 -4.15L-6.85 -4.9L-4.45 -4.05Q-5 -4.8 -4.55 -5.8L-3.15 -8.3L-3 -8.25Q-2.55 -6.85 -0.3 -5.2Q0.6 -5.7 0.95 -6.6L0.75 -5.6Q0.55 -4.65 0.75 -4.45L1.95 -5.3Q2.1 -4.35 2.45 -4.05Q2.95 -4.7 4.7 -5.4L7.25 -6.1L6.4 -4.15L5.5 -3.15L6.35 -3.5M4.75 -2.85Q5.05 -2.8 5.5 -3.15Q5.05 -2.8 4.75 -2.85" />
<path style="fill:#8FA7A8;fill-opacity:1" d="M10.8 1.25L8.85 1.05L7.1 1L7.5 1.8L7.65 2.55L5.25 1.7Q5.8 2.45 5.35 3.45L3.95 5.95L3.8 5.9Q3.35 4.5 1.1 2.85Q0.2 3.35 -0.15 4.25L0.05 3.25Q0.25 2.3 0.05 2.1Q-0.4 2.2 -1.15 2.95Q-1.3 2 -1.65 1.7Q-2.15 2.35 -3.9 3.05L-6.45 3.75L-5.6 1.8L-4.7 0.8L-3.95 0.5L-4.7 0.8L-5.55 1.15L-5.6 1.1L-5.15 0.1L-10.65 0.7L-10.55 0.5L-7.2 -0.5Q-5.15 -1.25 -4.4 -1.7L-3.9 -0.6L-3.35 0.3L-0.75 -1.2L1.8 1.2L2.45 0.2Q3 -0.8 3.25 -0.8Q3.85 -0.8 5.6 0.3L5.95 0.3L6.1 -1.05L6.4 -1.05L7.95 -0.7L10.15 -0.2L10.7 0.05L10.8 1.25" />
<path style="fill:none;stroke-width:0.7;stroke-linecap:round;stroke-linejoin:round;stroke-miterlimit:3;stroke:#000000;stroke-opacity:0.301961" d="M5.5 -3.15L6.4 -4.15L7.25 -6.1L4.7 -5.4Q2.95 -4.7 2.45 -4.05Q2.1 -4.35 1.95 -5.3L0.75 -4.45Q0.55 -4.65 0.75 -5.6L0.95 -6.6Q0.6 -5.7 -0.3 -5.2Q-2.55 -6.85 -3 -8.25L-3.15 -8.3L-4.55 -5.8Q-5 -4.8 -4.45 -4.05L-6.85 -4.9L-6.7 -4.15L-6.3 -3.35L-8.05 -3.4L-10 -3.6L-9.75 -1.75L-9.5 -1.2L-9.25 -1.55" />
<path style="fill:none;stroke-width:0.7;stroke-linecap:round;stroke-linejoin:round;stroke-miterlimit:3;stroke:#000000;stroke-opacity:0.301961" d="M10.7 0.05L10.55 -0.6L10.35 -1.15L10.05 -1.55" />
<path style="fill:none;stroke-width:0.7;stroke-linecap:round;stroke-linejoin:round;stroke-miterlimit:3;stroke:#000000;stroke-opacity:0.301961" d="M10.35 -1.15L10.55 -1.4L11.45 -3.05L5.95 -2.45Q6.35 -2.95 6.4 -3.45L6.35 -3.5L5.5 -3.15Q5.05 -2.8 4.75 -2.85" />
<path style="fill:none;stroke-width:0.7;stroke-linecap:round;stroke-linejoin:round;stroke-miterlimit:3;stroke:#000000;stroke-opacity:0.301961" d="M-4.7 0.8L-5.6 1.8L-6.45 3.75L-3.9 3.05Q-2.15 2.35 -1.65 1.7Q-1.3 2 -1.15 2.95Q-0.4 2.2 0.05 2.1Q0.25 2.3 0.05 3.25L-0.15 4.25Q0.2 3.35 1.1 2.85Q3.35 4.5 3.8 5.9L3.95 5.95L5.35 3.45Q5.8 2.45 5.25 1.7L7.65 2.55L7.5 1.8L7.1 1L8.85 1.05L10.8 1.25L10.7 0.05" />
<path style="fill:none;stroke-width:0.7;stroke-linecap:round;stroke-linejoin:round;stroke-miterlimit:3;stroke:#000000;stroke-opacity:0.301961" d="M-9.5 -1.2L-9.75 -0.95L-10.55 0.5L-10.65 0.7L-5.15 0.1L-5.6 1.1L-5.55 1.15L-4.7 0.8L-3.95 0.5" />
</g>
</svg>
