<?xml version="1.0" encoding="utf-8"?>
<svg version="1.1" id="Layer_1"
xmlns="http://www.w3.org/2000/svg"
xmlns:xlink="http://www.w3.org/1999/xlink"
width="39px" height="30px"
xml:space="preserve">
<g id="PathID_683" transform="matrix(1, 0, 0, 1, 17.85, 124.7)">
<path style="fill:#9A4C00;fill-opacity:1" d="M14.75 -104.8L14.1 -104.6Q15.2 -108.55 14.45 -111.85L14.2 -113L13.7 -112.85Q13.55 -115.3 12.25 -117.35Q8.9 -122.85 3.25 -123.55Q9.75 -124.85 15.6 -119.15Q21.4 -113.35 20.5 -106.35Q20.35 -104.8 18.6 -101.8Q16.8 -98.7 15.15 -97.05Q13.05 -95.05 11.25 -94.85L7.45 -95.15L2.65 -95.7Q9.35 -96.15 10.75 -97.6Q12.05 -98.85 13.3 -101L14.9 -102.8L13.5 -100Q16.15 -99.75 17.95 -102.4Q19.35 -104.45 19.65 -106.7Q20 -109.25 18.15 -113.8Q16.25 -118.55 13.8 -120L13 -118.9Q12.95 -118.25 13.6 -116.9L14.95 -114.05Q16.8 -109.65 15.65 -105.15L14.75 -104.8M2.65 -95.7L3.25 -96.5L2.65 -95.7L-0.15 -96.05L-3.75 -96.5L-8.4 -97.1Q-12.85 -96.8 -15.65 -102.25Q-18.2 -107.2 -17.55 -112.15Q-16.7 -118.75 -11.45 -122.15Q-6.85 -125.1 -1.6 -124.45L0.35 -124.05L2.95 -123.55Q7.9 -116.2 8.4 -114.4L6.55 -116.55Q5.25 -117.75 4.8 -117.8Q4.25 -117.9 3.2 -116.85Q1.9 -115.55 1.45 -113.4L1.7 -115.35L1.75 -115.45Q1.95 -117.15 1.2 -118.1L-0.1 -118.8Q-1.05 -118.9 -2.2 -118.2L-4.6 -116.1L-5.8 -113.25L-6.35 -113.65L-4.85 -115.95Q-3.85 -117.25 -3.65 -119Q-3.55 -119.6 -3.85 -120.05Q-4.15 -120.45 -4.65 -120.5Q-6.8 -120 -9.8 -118Q-11.85 -115.25 -12.65 -111.5L-13.1 -108.25L-13.75 -108.7L-13.55 -111.3Q-13.4 -112.65 -12.15 -114.8Q-10.9 -116.85 -10.8 -117.85L-10.9 -118.75Q-11 -119.25 -11.5 -119.35Q-12.65 -119.2 -13.85 -118.05Q-16.3 -115.8 -16.95 -110.7Q-17.35 -107.45 -15.9 -104.8Q-14.6 -102.6 -13.2 -102.45L-12.7 -102.75L-12.4 -103.4L-11.05 -101L-9.75 -98.9L-8.4 -97.1L-9.75 -98.9Q-8.95 -97.95 -7.2 -97.75L-6.45 -97.85L-5.4 -98.25L-5.9 -99.15L-5.5 -100.15L-5.1 -99.95L-3.75 -96.5L-5.1 -99.95L-3.2 -99.05L-3.45 -98.4L-3.85 -97.3L-0.05 -96.6L3.25 -96.5L3.6 -96.9L3.45 -97.8L3.3 -98.7L3.35 -98.7L5 -98.9L3.6 -96.9L5 -98.9L5.8 -99L5.85 -98.95L4.65 -96.7L5.75 -96.5L7 -96.45L11.2 -99.2L13.3 -101Q12.05 -98.85 10.75 -97.6Q9.35 -96.15 7.45 -95.15M13.7 -112.85Q13.3 -114.2 12 -116.6Q10.7 -119.3 10 -119.4Q8.4 -119.6 8.1 -117.25L9.55 -111.3L8.9 -111.05L8.8 -112.1L8.4 -114.4Q7.9 -116.2 2.95 -123.55L3.25 -123.55Q8.9 -122.85 12.25 -117.35Q13.55 -115.3 14.2 -113M14.1 -104.6L14.5 -106.8L14.5 -108.95L14.45 -111.85Q15.2 -108.55 14.75 -104.8M8.55 -105.3L7.4 -101.75L7.1 -102.65L8.8 -108.7L9.55 -108.6L8.55 -105.3M-6.65 -103.45L-7 -110.45L-6.4 -110.6L-6.15 -104.4L-6.65 -103.45M-1.5 -103.25Q-0.8 -103.2 -0.2 -104.2Q0.5 -105.25 0.7 -106.8L0.6 -105.85L0.35 -103Q0.8 -103.95 2.65 -102.85L0.35 -103L0.6 -105.85L-1.5 -103.25M1.75 -115.45L2.95 -123.55Q-0.8 -123.85 -5.05 -121.6Q-0.8 -123.85 2.95 -123.55L1.75 -115.45M-5.05 -121.6Q-8.4 -119.8 -9.8 -118Q-8.4 -119.8 -5.05 -121.6M-4.6 -116.1Q-3.65 -118.1 -0.95 -120.6Q1.4 -122.75 2.95 -123.55Q1.4 -122.75 -0.95 -120.6Q-3.65 -118.1 -4.6 -116.1M-0.15 -96.05L-0.05 -96.6L-0.15 -96.05" />
<radialGradient
id="RadialGradID_289" gradientUnits="userSpaceOnUse" gradientTransform="matrix(0.0223846, 0.00283813, -0.00164795, 0.0129395, 0.65, -107.05)" spreadMethod ="pad" cx="0" cy="0" r="819.2" fx="28" fy="0" >
<stop  offset="0.180392"  style="stop-color:#FFB019;stop-opacity:1" />
<stop  offset="0.960784"  style="stop-color:#D77B09;stop-opacity:1" />
</radialGradient>
<path style="fill:url(#RadialGradID_289) " d="M15.45 -103.6L16.6 -105.6L15.65 -105.15Q16.8 -109.65 14.95 -114.05L13.6 -116.9Q12.95 -118.25 13 -118.9L13.8 -120Q16.25 -118.55 18.15 -113.8Q20 -109.25 19.65 -106.7Q19.35 -104.45 17.95 -102.4Q16.15 -99.75 13.5 -100L14.9 -102.8L15.45 -103.6M9.55 -111.3L8.1 -117.25Q8.4 -119.6 10 -119.4Q10.7 -119.3 12 -116.6Q13.3 -114.2 13.7 -112.85L9.55 -111.3M3.2 -116.85Q4.25 -117.9 4.8 -117.8Q5.25 -117.75 6.55 -116.55L8.4 -114.4L8.8 -112.1L8.9 -111.05L3.85 -109.25L5.1 -107Q5.4 -106.65 6.75 -105.8Q6.65 -106.25 7.25 -107.2Q7.9 -108.35 8.8 -108.7L7.1 -102.65L5.25 -102.85L2.65 -102.85Q0.8 -103.95 0.6 -105.85L0.7 -106.8L1.45 -113.4M0.7 -106.8Q0.5 -105.25 -0.2 -104.2Q-0.8 -103.2 -1.5 -103.25L-1.55 -103.25L-3.9 -103.75L-6.15 -104.4L-6.4 -110.6Q-5.55 -110.35 -4.9 -109.25Q-4.35 -108.25 -4.4 -107.2L-3.9 -107.3L-2.25 -108.3Q-0.95 -109.25 -0.8 -109.85L-5.8 -113.25L-4.6 -116.1L-2.2 -118.2Q-1.05 -118.9 -0.1 -118.8L1.2 -118.1Q1.95 -117.15 1.75 -115.45L1.7 -115.35L1.45 -113.4Q1.9 -115.55 3.2 -116.85L0.7 -106.8M-10.05 -116.25L-11.05 -113.05Q-11.3 -110.95 -10.5 -109.55Q-9.8 -108.2 -8.35 -108.2Q-8.05 -109.8 -7 -110.45L-6.65 -103.45L-7.15 -102.6L-10.05 -103.95L-9.35 -106L-13.1 -108.25L-12.65 -111.5Q-11.85 -115.25 -9.8 -118Q-6.8 -120 -4.65 -120.5Q-4.15 -120.45 -3.85 -120.05Q-3.55 -119.6 -3.65 -119Q-3.85 -117.25 -4.85 -115.95L-6.35 -113.65L-10.05 -116.25M-12.4 -103.4L-12.7 -102.75L-13.2 -102.45Q-14.6 -102.6 -15.9 -104.8Q-17.35 -107.45 -16.95 -110.7Q-16.3 -115.8 -13.85 -118.05Q-12.65 -119.2 -11.5 -119.35Q-11 -119.25 -10.9 -118.75L-10.8 -117.85Q-10.9 -116.85 -12.15 -114.8Q-13.4 -112.65 -13.55 -111.3L-13.75 -108.7L-14.35 -109.2L-12.75 -104.5L-12.4 -103.4" />
<radialGradient
id="RadialGradID_290" gradientUnits="userSpaceOnUse" gradientTransform="matrix(0.0210876, 0.00268555, -0.00288391, 0.0226746, 0.2, -103.4)" spreadMethod ="pad" cx="0" cy="0" r="819.2" fx="0" fy="0" >
<stop  offset="0.211765"  style="stop-color:#FFEAA6;stop-opacity:1" />
<stop  offset="0.341176"  style="stop-color:#FFF45B;stop-opacity:1" />
<stop  offset="1"  style="stop-color:#E09506;stop-opacity:1" />
</radialGradient>
<path style="fill:url(#RadialGradID_290) " d="M14.5 -108.95Q14.35 -107.45 12.95 -106.35Q11.8 -105.5 10.75 -105.5Q11.05 -106.25 10.5 -107.3L9.55 -108.6L8.8 -108.7Q7.9 -108.35 7.25 -107.2Q6.65 -106.25 6.75 -105.8Q5.4 -106.65 5.1 -107L3.85 -109.25L8.9 -111.05L9.55 -111.3L13.7 -112.85L14.2 -113L14.45 -111.85L14.5 -108.95M-7 -110.45Q-8.05 -109.8 -8.35 -108.2Q-9.8 -108.2 -10.5 -109.55Q-11.3 -110.95 -11.05 -113.05L-10.05 -116.25L-6.35 -113.65L-5.8 -113.25L-0.8 -109.85Q-0.95 -109.25 -2.25 -108.3L-3.9 -107.3L-4.4 -107.2Q-4.35 -108.25 -4.9 -109.25Q-5.55 -110.35 -6.4 -110.6L-7 -110.45M-4.15 -99.9L-5.5 -100.15L-5.9 -99.15Q-7.8 -99.7 -10.1 -102.2Q-12.8 -105.15 -13.1 -108.25L-9.35 -106L-10.05 -103.95L-7.15 -102.6L-6.65 -103.45L-6.15 -104.4L-3.9 -103.75L-1.55 -103.25L-1.5 -103.25L0.35 -103L2.65 -102.85L5.25 -102.85L7.1 -102.65L7.4 -101.75L7.8 -100.85L10.8 -101.55L10.25 -103.5L14.1 -104.6L14.75 -104.8Q13.9 -103.1 11.55 -100.95Q8.7 -98.4 6.05 -98.1L5.85 -98.95L5.8 -99Q5.55 -99.4 4.6 -99.25Q3.6 -99.2 3.35 -98.7L3.3 -98.7L3.45 -97.8L0.05 -97.95L-3.45 -98.4L-3.2 -99.05Q-3.25 -99.5 -4.15 -99.9" />
<linearGradient
id="LinearGradID_291" gradientUnits="userSpaceOnUse" gradientTransform="matrix(0, 0, 0, 0, -349.4, -267.85)" spreadMethod ="pad" x1="-819.2" y1="0" x2="819.2" y2="0" >
<stop  offset="0" style="stop-color:#F7AB16;stop-opacity:1" />
<stop  offset="1" style="stop-color:#D2811C;stop-opacity:1" />
</linearGradient>
<path style="fill:url(#LinearGradID_291) " d="M14.1 -104.6L10.25 -103.5L10.8 -101.55L7.8 -100.85L7.4 -101.75L8.55 -105.3L9.55 -108.6L10.5 -107.3Q11.05 -106.25 10.75 -105.5Q11.8 -105.5 12.95 -106.35Q14.35 -107.45 14.5 -108.95L14.5 -106.8L14.1 -104.6" />
<path style="fill:#FABF29;fill-opacity:1" d="M11.2 -99.2L8.85 -98L6.35 -96.9L6.05 -98.1Q8.7 -98.4 11.55 -100.95Q13.9 -103.1 14.75 -104.8L15.65 -105.15L16.6 -105.6L15.45 -103.6L14.9 -102.8L13.3 -101L11.2 -99.2M0.05 -97.95L3.45 -97.8L3.6 -96.9L3.25 -96.5L-0.05 -96.6L-3.85 -97.3L-3.45 -98.4L0.05 -97.95M-5.5 -100.15L-4.15 -99.9Q-3.25 -99.5 -3.2 -99.05L-5.1 -99.95L-5.5 -100.15M4.6 -99.25Q5.55 -99.4 5.8 -99L5 -98.9L3.35 -98.7Q3.6 -99.2 4.6 -99.25M-6.3 -98.2Q-7.8 -98.6 -10.2 -101.15Q-12.25 -103.45 -12.75 -104.5L-14.35 -109.2L-13.75 -108.7L-13.1 -108.25Q-12.8 -105.15 -10.1 -102.2Q-7.8 -99.7 -5.9 -99.15L-6.3 -98.2" />
<path style="fill:#D2811C;fill-opacity:1" d="M7 -96.45L5.75 -96.5L4.65 -96.7L5.85 -98.95L6.05 -98.1L6.35 -96.9L8.85 -98L11.2 -99.2L7 -96.45M-11.05 -101L-12.4 -103.4L-12.75 -104.5Q-12.25 -103.45 -10.2 -101.15Q-7.8 -98.6 -6.3 -98.2L-5.9 -99.15L-5.4 -98.25L-6.45 -97.85L-7.2 -97.75Q-8.95 -97.95 -9.75 -98.9L-11.05 -101" />
<path style="fill:none;stroke-width:0.7;stroke-linecap:round;stroke-linejoin:round;stroke-miterlimit:3;stroke:#000000;stroke-opacity:0.301961" d="M14.9 -102.8L13.3 -101Q12.05 -98.85 10.75 -97.6Q9.35 -96.15 7.45 -95.15L11.25 -94.85Q13.05 -95.05 15.15 -97.05Q16.8 -98.7 18.6 -101.8Q20.35 -104.8 20.5 -106.35Q21.4 -113.35 15.6 -119.15Q9.75 -124.85 3.25 -123.55Q8.9 -122.85 12.25 -117.35Q13.55 -115.3 14.2 -113L14.45 -111.85Q15.2 -108.55 14.75 -104.8L15.65 -105.15L16.6 -105.6L15.45 -103.6L14.9 -102.8z" />
<path style="fill:none;stroke-width:0.7;stroke-linecap:round;stroke-linejoin:round;stroke-miterlimit:3;stroke:#000000;stroke-opacity:0.301961" d="M13.7 -112.85L14.2 -113" />
<path style="fill:none;stroke-width:0.7;stroke-linecap:round;stroke-linejoin:round;stroke-miterlimit:3;stroke:#000000;stroke-opacity:0.301961" d="M13.7 -112.85L9.55 -111.3L8.9 -111.05L3.85 -109.25L5.1 -107Q5.4 -106.65 6.75 -105.8Q6.65 -106.25 7.25 -107.2Q7.9 -108.35 8.8 -108.7L9.55 -108.6L10.5 -107.3Q11.05 -106.25 10.75 -105.5Q11.8 -105.5 12.95 -106.35Q14.35 -107.45 14.5 -108.95L14.45 -111.85" />
<path style="fill:none;stroke-width:0.7;stroke-linecap:round;stroke-linejoin:round;stroke-miterlimit:3;stroke:#000000;stroke-opacity:0.301961" d="M7.45 -95.15L2.65 -95.7L-0.15 -96.05L-3.75 -96.5L-8.4 -97.1Q-12.85 -96.8 -15.65 -102.25Q-18.2 -107.2 -17.55 -112.15Q-16.7 -118.75 -11.45 -122.15Q-6.85 -125.1 -1.6 -124.45L0.35 -124.05L2.95 -123.55L3.25 -123.55" />
<path style="fill:none;stroke-width:0.7;stroke-linecap:round;stroke-linejoin:round;stroke-miterlimit:3;stroke:#000000;stroke-opacity:0.301961" d="M1.45 -113.4L1.7 -115.35L1.75 -115.45" />
<path style="fill:none;stroke-width:0.7;stroke-linecap:round;stroke-linejoin:round;stroke-miterlimit:3;stroke:#000000;stroke-opacity:0.301961" d="M-4.6 -116.1L-5.8 -113.25L-0.8 -109.85Q-0.95 -109.25 -2.25 -108.3L-3.9 -107.3L-4.4 -107.2Q-4.35 -108.25 -4.9 -109.25Q-5.55 -110.35 -6.4 -110.6L-6.15 -104.4L-3.9 -103.75L-1.55 -103.25L-1.5 -103.25" />
<path style="fill:none;stroke-width:0.7;stroke-linecap:round;stroke-linejoin:round;stroke-miterlimit:3;stroke:#000000;stroke-opacity:0.301961" d="M0.7 -106.8L1.45 -113.4" />
<path style="fill:none;stroke-width:0.7;stroke-linecap:round;stroke-linejoin:round;stroke-miterlimit:3;stroke:#000000;stroke-opacity:0.301961" d="M8.4 -114.4Q7.9 -116.2 2.95 -123.55L1.75 -115.45" />
<path style="fill:none;stroke-width:0.7;stroke-linecap:round;stroke-linejoin:round;stroke-miterlimit:3;stroke:#000000;stroke-opacity:0.301961" d="M8.9 -111.05L8.8 -112.1L8.4 -114.4" />
<path style="fill:none;stroke-width:0.7;stroke-linecap:round;stroke-linejoin:round;stroke-miterlimit:3;stroke:#000000;stroke-opacity:0.301961" d="M0.7 -106.8L0.6 -105.85" />
<path style="fill:none;stroke-width:0.7;stroke-linecap:round;stroke-linejoin:round;stroke-miterlimit:3;stroke:#000000;stroke-opacity:0.301961" d="M2.65 -102.85L5.25 -102.85L7.1 -102.65L8.8 -108.7" />
<path style="fill:none;stroke-width:0.7;stroke-linecap:round;stroke-linejoin:round;stroke-miterlimit:3;stroke:#000000;stroke-opacity:0.301961" d="M2.65 -102.85L0.35 -103L-1.5 -103.25" />
<path style="fill:none;stroke-width:0.7;stroke-linecap:round;stroke-linejoin:round;stroke-miterlimit:3;stroke:#000000;stroke-opacity:0.301961" d="M7.4 -101.75L7.1 -102.65" />
<path style="fill:none;stroke-width:0.7;stroke-linecap:round;stroke-linejoin:round;stroke-miterlimit:3;stroke:#000000;stroke-opacity:0.301961" d="M14.1 -104.6L10.25 -103.5L10.8 -101.55L7.8 -100.85L7.4 -101.75" />
<path style="fill:none;stroke-width:0.7;stroke-linecap:round;stroke-linejoin:round;stroke-miterlimit:3;stroke:#000000;stroke-opacity:0.301961" d="M0.35 -103L0.6 -105.85" />
<path style="fill:none;stroke-width:0.7;stroke-linecap:round;stroke-linejoin:round;stroke-miterlimit:3;stroke:#000000;stroke-opacity:0.301961" d="M14.1 -104.6L14.75 -104.8Q13.9 -103.1 11.55 -100.95Q8.7 -98.4 6.05 -98.1L6.35 -96.9L8.85 -98L11.2 -99.2L13.3 -101" />
<path style="fill:none;stroke-width:0.7;stroke-linecap:round;stroke-linejoin:round;stroke-miterlimit:3;stroke:#000000;stroke-opacity:0.301961" d="M5.8 -99L5.85 -98.95L6.05 -98.1" />
<path style="fill:none;stroke-width:0.7;stroke-linecap:round;stroke-linejoin:round;stroke-miterlimit:3;stroke:#000000;stroke-opacity:0.301961" d="M-3.45 -98.4L-3.85 -97.3L-0.05 -96.6L3.25 -96.5L3.6 -96.9L3.45 -97.8L0.05 -97.95L-3.45 -98.4L-3.2 -99.05L-5.1 -99.95L-3.75 -96.5" />
<path style="fill:none;stroke-width:0.7;stroke-linecap:round;stroke-linejoin:round;stroke-miterlimit:3;stroke:#000000;stroke-opacity:0.301961" d="M2.65 -95.7L3.25 -96.5" />
<path style="fill:none;stroke-width:0.7;stroke-linecap:round;stroke-linejoin:round;stroke-miterlimit:3;stroke:#000000;stroke-opacity:0.301961" d="M3.6 -96.9L5 -98.9L3.35 -98.7" />
<path style="fill:none;stroke-width:0.7;stroke-linecap:round;stroke-linejoin:round;stroke-miterlimit:3;stroke:#00FF00;stroke-opacity:1" d="M3.35 -98.7L3.3 -98.7" />
<path style="fill:none;stroke-width:0.7;stroke-linecap:round;stroke-linejoin:round;stroke-miterlimit:3;stroke:#000000;stroke-opacity:0.301961" d="M3.3 -98.7L3.45 -97.8" />
<path style="fill:none;stroke-width:0.7;stroke-linecap:round;stroke-linejoin:round;stroke-miterlimit:3;stroke:#000000;stroke-opacity:0.301961" d="M5 -98.9L5.8 -99Q5.55 -99.4 4.6 -99.25Q3.6 -99.2 3.35 -98.7" />
<path style="fill:none;stroke-width:0.7;stroke-linecap:round;stroke-linejoin:round;stroke-miterlimit:3;stroke:#000000;stroke-opacity:0.301961" d="M-9.8 -118Q-11.85 -115.25 -12.65 -111.5L-13.1 -108.25L-9.35 -106L-10.05 -103.95L-7.15 -102.6L-6.65 -103.45" />
<path style="fill:none;stroke-width:0.7;stroke-linecap:round;stroke-linejoin:round;stroke-miterlimit:3;stroke:#000000;stroke-opacity:0.301961" d="M-7 -110.45Q-8.05 -109.8 -8.35 -108.2Q-9.8 -108.2 -10.5 -109.55Q-11.3 -110.95 -11.05 -113.05L-10.05 -116.25L-6.35 -113.65L-5.8 -113.25" />
<path style="fill:none;stroke-width:0.7;stroke-linecap:round;stroke-linejoin:round;stroke-miterlimit:3;stroke:#000000;stroke-opacity:0.301961" d="M-9.8 -118Q-8.4 -119.8 -5.05 -121.6Q-0.8 -123.85 2.95 -123.55Q1.4 -122.75 -0.95 -120.6Q-3.65 -118.1 -4.6 -116.1" />
<path style="fill:none;stroke-width:0.7;stroke-linecap:round;stroke-linejoin:round;stroke-miterlimit:3;stroke:#000000;stroke-opacity:0.301961" d="M-13.75 -108.7L-13.1 -108.25Q-12.8 -105.15 -10.1 -102.2Q-7.8 -99.7 -5.9 -99.15L-5.5 -100.15L-4.15 -99.9Q-3.25 -99.5 -3.2 -99.05" />
<path style="fill:none;stroke-width:0.7;stroke-linecap:round;stroke-linejoin:round;stroke-miterlimit:3;stroke:#000000;stroke-opacity:0.301961" d="M-13.75 -108.7L-14.35 -109.2L-12.75 -104.5Q-12.25 -103.45 -10.2 -101.15Q-7.8 -98.6 -6.3 -98.2L-5.9 -99.15" />
<path style="fill:none;stroke-width:0.7;stroke-linecap:round;stroke-linejoin:round;stroke-miterlimit:3;stroke:#000000;stroke-opacity:0.301961" d="M-9.75 -98.9L-8.4 -97.1" />
<path style="fill:none;stroke-width:0.7;stroke-linecap:round;stroke-linejoin:round;stroke-miterlimit:3;stroke:#000000;stroke-opacity:0.301961" d="M-12.75 -104.5L-12.4 -103.4L-11.05 -101L-9.75 -98.9" />
<path style="fill:none;stroke-width:0.7;stroke-linecap:round;stroke-linejoin:round;stroke-miterlimit:3;stroke:#000000;stroke-opacity:0.301961" d="M-7 -110.45L-6.4 -110.6" />
<path style="fill:none;stroke-width:0.7;stroke-linecap:round;stroke-linejoin:round;stroke-miterlimit:3;stroke:#000000;stroke-opacity:0.301961" d="M-6.15 -104.4L-6.65 -103.45" />
<path style="fill:none;stroke-width:0.7;stroke-linecap:round;stroke-linejoin:round;stroke-miterlimit:3;stroke:#000000;stroke-opacity:0.301961" d="M-5.5 -100.15L-5.1 -99.95" />
<path style="fill:none;stroke-width:0.7;stroke-linecap:round;stroke-linejoin:round;stroke-miterlimit:3;stroke:#000000;stroke-opacity:0.301961" d="M-0.05 -96.6L-0.15 -96.05" />
</g>
</svg>
