<?xml version="1.0" encoding="utf-8"?>
<svg version="1.1" id="Layer_1"
xmlns="http://www.w3.org/2000/svg"
xmlns:xlink="http://www.w3.org/1999/xlink"
width="25px" height="25px"
xml:space="preserve">
<g id="PathID_646" transform="matrix(1, 0, 0, 1, 12.35, 12.95)">
<linearGradient
id="LinearGradID_261" gradientUnits="userSpaceOnUse" gradientTransform="matrix(0.00126648, 0.00827026, -0.00585938, 0.00088501, 3.45, -7.15)" spreadMethod ="pad" x1="-819.2" y1="0" x2="819.2" y2="0" >
<stop  offset="0" style="stop-color:#996F3B;stop-opacity:1" />
<stop  offset="1" style="stop-color:#78583A;stop-opacity:1" />
</linearGradient>
<path style="fill:url(#LinearGradID_261) " d="M2.05 -10.9Q-0.05 -9.3 -0.15 -8.3L1.8 -9.65Q4.65 -9.85 6.5 -7.9Q8.35 -6 9.15 -4.05Q9.65 -2.75 10.25 -2.05Q7.35 1.35 1.1 -1.05Q-3.05 -2.25 -4.4 -4.4Q-5 -5.35 -4.65 -7.9L-3.6 -9.05Q-2.6 -10.55 -2.85 -12.1Q-1.6 -11.15 -1.95 -9.75L-2.45 -8L-1.3 -9.85Q-0.45 -11.3 2.35 -11.15L2.05 -10.9" />
<path style="fill:#694D33;fill-opacity:1" d="M-1.3 -9.85L-2.45 -8L-1.95 -9.75Q-1.6 -11.15 -2.85 -12.1L-3 -12.5Q-0.75 -11.15 -1.3 -9.85M1.8 -9.65L-0.15 -8.3Q-0.05 -9.3 2.05 -10.9Q1.6 -10.45 1.8 -9.65" />
<path style="fill:#78583A;fill-opacity:1" d="M4.15 3.95Q0.35 4.65 -1.4 3.85Q-5.65 2 -6.35 -2.2Q-6.7 -4.35 -6.15 -6.2L-4.65 -7.9Q-5 -5.35 -4.4 -4.4Q-3.05 -2.25 1.1 -1.05Q7.35 1.35 10.25 -2.05L10.8 -1.55L11.9 -0.7Q10.45 1.25 4.15 3.95" />
<path style="fill:#4F3218;fill-opacity:1" d="M11.9 -0.7L12.1 0.7Q11.95 3.2 9 5.1L4.55 7.55L2.5 8.25Q-0.95 6.4 -3 5.9Q-5.15 5.4 -6.45 4.05Q-7.8 2.7 -7.75 -0.65Q-7.7 -4 -6.15 -6.2Q-6.7 -4.35 -6.35 -2.2Q-5.65 2 -1.4 3.85Q0.35 4.65 4.15 3.95Q10.45 1.25 11.9 -0.7" />
<path style="fill:none;stroke-width:0.7;stroke-linecap:round;stroke-linejoin:miter;stroke-miterlimit:5;stroke:#000000;stroke-opacity:0.4" d="M2.35 -11.15Q-0.45 -11.3 -1.3 -9.85" />
<path style="fill:none;stroke-width:0.7;stroke-linecap:round;stroke-linejoin:miter;stroke-miterlimit:5;stroke:#000000;stroke-opacity:0.4" d="M-2.85 -12.1Q-2.6 -10.55 -3.6 -9.05L-4.65 -7.9" />
<path style="fill:none;stroke-width:0.7;stroke-linecap:round;stroke-linejoin:miter;stroke-miterlimit:5;stroke:#000000;stroke-opacity:0.4" d="M10.25 -2.05Q9.65 -2.75 9.15 -4.05Q8.35 -6 6.5 -7.9Q4.65 -9.85 1.8 -9.65" />
<path style="fill:none;stroke-width:0.7;stroke-linecap:round;stroke-linejoin:miter;stroke-miterlimit:5;stroke:#000000;stroke-opacity:0.4" d="M2.05 -10.9L2.35 -11.15" />
<path style="fill:none;stroke-width:0.7;stroke-linecap:round;stroke-linejoin:miter;stroke-miterlimit:5;stroke:#000000;stroke-opacity:0.4" d="M2.05 -10.9Q1.6 -10.45 1.8 -9.65" />
<path style="fill:none;stroke-width:0.7;stroke-linecap:round;stroke-linejoin:miter;stroke-miterlimit:5;stroke:#000000;stroke-opacity:0.4" d="M10.25 -2.05L10.8 -1.55L11.9 -0.7L12.1 0.7Q11.95 3.2 9 5.1L4.55 7.55" />
<path style="fill:none;stroke-width:0.7;stroke-linecap:round;stroke-linejoin:miter;stroke-miterlimit:5;stroke:#000000;stroke-opacity:0.4" d="M-3 5.9Q-5.15 5.4 -6.45 4.05Q-7.8 2.7 -7.75 -0.65Q-7.7 -4 -6.15 -6.2L-4.65 -7.9" />
<path style="fill:none;stroke-width:0.7;stroke-linecap:round;stroke-linejoin:miter;stroke-miterlimit:5;stroke:#000000;stroke-opacity:0.4" d="M-2.85 -12.1L-3 -12.5Q-0.75 -11.15 -1.3 -9.85" />
</g>
<g id="PathID_647" transform="matrix(1, 0, 0, 1, 12.35, 12.95)">
<path style="fill:none;stroke-width:0.7;stroke-linecap:round;stroke-linejoin:miter;stroke-miterlimit:5;stroke:#000000;stroke-opacity:0.501961" d="M4.25 2.8Q-5.05 2.95 -12.1 7.9" />
</g>
<g id="PathID_648" transform="matrix(1, 0, 0, 1, 12.35, 12.95)">
<path style="fill:none;stroke-width:0.7;stroke-linecap:round;stroke-linejoin:miter;stroke-miterlimit:5;stroke:#000000;stroke-opacity:0.501961" d="M5.75 3.75Q-2 5.95 -6.8 11.65" />
</g>
</svg>
