<?xml version="1.0" encoding="utf-8"?>
<svg version="1.1" id="Layer_1"
xmlns="http://www.w3.org/2000/svg"
xmlns:xlink="http://www.w3.org/1999/xlink"
width="8px" height="17px"
xml:space="preserve">
<g id="PathID_1493" transform="matrix(1, 0, 0, 1, 34.1, 33.35)">
<path style="fill:#CD4201;fill-opacity:1" d="M-32.7 -30.3Q-33 -31.1 -32.7 -32Q-31.65 -33.2 -30.15 -33.2Q-30.7 -32.9 -31 -32.05L-31.05 -31.95L-31.45 -31.7Q-32.25 -31.25 -32.5 -29.95L-32.7 -30.3M-27.5 -31.9Q-26.9 -31.1 -26.6 -30.15L-27.7 -30.35L-28.2 -30.25Q-28.55 -31.3 -29.1 -31.75L-28.9 -31.95L-27.75 -32.1L-27.5 -31.9M-32.85 -18.1Q-33.6 -18.5 -33.95 -19.6L-33.95 -21.65Q-33.6 -20.5 -32.85 -20L-32.85 -18.1M-32.9 -24.1L-32.9 -22.2L-33.05 -22.3Q-33.65 -22.75 -33.95 -23.8L-33.95 -25.65Q-33.7 -24.8 -33.25 -24.35L-32.9 -24.1M-33.2 -26.2L-33.95 -27.45L-33.95 -28.55L-33.9 -29.35Q-33.65 -28.65 -33.25 -28.3L-32.8 -27.85L-32.85 -25.95L-33.2 -26.2" />
<path style="fill:#9A3100;fill-opacity:1" d="M-31.25 -30.7L-31.3 -30.6L-31.9 -29.25L-32.5 -29.95Q-32.25 -31.25 -31.45 -31.7L-31.05 -31.95L-31.25 -30.7M-32.85 -25.95L-32.8 -27.85L-32.1 -27.7L-32.1 -25.8L-32.85 -25.95M-32.9 -22.2L-32.9 -24.1L-32.1 -23.8L-32.1 -21.95L-32.9 -22.2M-32.85 -20L-32.75 -19.95L-32.15 -19.85L-32.15 -18L-32.85 -18.1L-32.85 -20M-28.75 -30.1L-28.85 -30.25L-29.75 -31L-29.1 -31.75Q-28.55 -31.3 -28.2 -30.25L-28.75 -30.1" />
<path style="fill:#F6F4EF;fill-opacity:1" d="M-27.75 -32.1L-28.9 -31.95L-29.1 -31.75Q-29.9 -32.5 -31.05 -31.95L-31 -32.05Q-30.7 -32.9 -30.15 -33.2Q-28.8 -33.2 -27.75 -32.1M-33.25 -28.3Q-33.65 -28.65 -33.9 -29.35Q-33.7 -30.8 -32.85 -31.9L-32.7 -32Q-33 -31.1 -32.7 -30.3L-32.5 -29.95L-32.7 -28.9L-32.8 -27.85L-33.25 -28.3M-32.85 -18.1L-32.8 -16.95L-33.05 -16.9Q-33.65 -16.95 -33.95 -17.45L-33.95 -19.6Q-33.6 -18.5 -32.85 -18.1M-33.95 -21.65L-33.95 -23.8Q-33.65 -22.75 -33.05 -22.3L-32.9 -22.2L-32.85 -20Q-33.6 -20.5 -33.95 -21.65M-33.25 -24.35Q-33.7 -24.8 -33.95 -25.65L-33.95 -27.45L-33.2 -26.2L-32.85 -25.95L-32.9 -24.1L-33.25 -24.35M-28.2 -30.25L-27.7 -30.35L-26.6 -30.15L-26.4 -28.55L-26.4 -28.4Q-27.15 -28.55 -27.8 -29.1L-28.2 -30.25" />
<path style="fill:#BBB6AB;fill-opacity:1" d="M-32.05 -28.6L-32.1 -27.7L-32.8 -27.85L-32.7 -28.9L-32.5 -29.95L-31.9 -29.25L-32.05 -28.6M-31.25 -30.7L-31.05 -31.95Q-29.9 -32.5 -29.1 -31.75L-29.75 -31L-30.05 -31.05Q-30.7 -31.15 -31.25 -30.7M-32.9 -24.1L-32.85 -25.95L-32.1 -25.8L-32.1 -23.8L-32.9 -24.1M-32.75 -19.95L-32.85 -20L-32.9 -22.2L-32.1 -21.95L-32.15 -19.85L-32.75 -19.95M-32.85 -18.1L-32.15 -18L-32.15 -17.45Q-32.4 -17.05 -32.8 -16.95L-32.85 -18.1M-28.2 -30.25L-27.8 -29.1Q-27.15 -28.55 -26.4 -28.4L-26.4 -28.25Q-26.65 -27.8 -27.3 -27.8Q-27.95 -27.8 -28.35 -28.25Q-28.35 -29.3 -28.75 -30.1L-28.2 -30.25" />
<path style="fill:none;stroke-width:0.7;stroke-linecap:round;stroke-linejoin:round;stroke-miterlimit:3;stroke:#000000;stroke-opacity:0.301961" d="M-30.15 -33.2Q-31.65 -33.2 -32.7 -32" />
<path style="fill:none;stroke-width:0.7;stroke-linecap:round;stroke-linejoin:round;stroke-miterlimit:3;stroke:#000000;stroke-opacity:0.301961" d="M-31.9 -29.25L-31.3 -30.6L-31.25 -30.7" />
<path style="fill:none;stroke-width:0.7;stroke-linecap:round;stroke-linejoin:round;stroke-miterlimit:3;stroke:#000000;stroke-opacity:0.301961" d="M-27.75 -32.1Q-28.8 -33.2 -30.15 -33.2" />
<path style="fill:none;stroke-width:0.7;stroke-linecap:round;stroke-linejoin:round;stroke-miterlimit:3;stroke:#000000;stroke-opacity:0.301961" d="M-33.9 -29.35Q-33.7 -30.8 -32.85 -31.9L-32.7 -32" />
<path style="fill:none;stroke-width:0.7;stroke-linecap:round;stroke-linejoin:round;stroke-miterlimit:3;stroke:#000000;stroke-opacity:0.301961" d="M-32.1 -27.7L-32.05 -28.6L-31.9 -29.25" />
<path style="fill:none;stroke-width:0.7;stroke-linecap:round;stroke-linejoin:round;stroke-miterlimit:3;stroke:#000000;stroke-opacity:0.301961" d="M-32.1 -27.7L-32.1 -25.8L-32.1 -23.8L-32.1 -21.95L-32.15 -19.85L-32.15 -18L-32.15 -17.45Q-32.4 -17.05 -32.8 -16.95L-33.05 -16.9Q-33.65 -16.95 -33.95 -17.45L-33.95 -19.6L-33.95 -21.65L-33.95 -23.8L-33.95 -25.65L-33.95 -27.45L-33.95 -28.55L-33.9 -29.35" />
<path style="fill:none;stroke-width:0.7;stroke-linecap:round;stroke-linejoin:round;stroke-miterlimit:3;stroke:#000000;stroke-opacity:0.301961" d="M-26.6 -30.15Q-26.9 -31.1 -27.5 -31.9L-27.75 -32.1" />
<path style="fill:none;stroke-width:0.7;stroke-linecap:round;stroke-linejoin:round;stroke-miterlimit:3;stroke:#000000;stroke-opacity:0.301961" d="M-26.6 -30.15L-26.4 -28.55L-26.4 -28.4L-26.4 -28.25Q-26.65 -27.8 -27.3 -27.8Q-27.95 -27.8 -28.35 -28.25Q-28.35 -29.3 -28.75 -30.1L-28.85 -30.25L-29.75 -31L-30.05 -31.05Q-30.7 -31.15 -31.25 -30.7" />
</g>
</svg>
