<?xml version="1.0" encoding="utf-8"?>
<svg version="1.1" id="Layer_1"
xmlns="http://www.w3.org/2000/svg"
xmlns:xlink="http://www.w3.org/1999/xlink"
width="2px" height="10px"
xml:space="preserve">
<g id="PathID_1659" transform="matrix(1, 0, 0, 1, 0.15, 0.15)">
<path style="fill:#85BB68;fill-opacity:1" d="M1.3 3.25L0 3.25L0 1.05L1.3 1.05L1.3 3.25" />
<path style="fill:#DEDEDE;fill-opacity:1" d="M0 0L1.3 0L1.3 1.05L0 1.05L0 0M0 3.25L1.3 3.25L1.3 9.15L0 9.15L0 3.25" />
<path style="fill:none;stroke-width:0.7;stroke-linecap:round;stroke-linejoin:round;stroke-miterlimit:3;stroke:#000000;stroke-opacity:0.301961" d="M0 1.05L0 3.25" />
<path style="fill:none;stroke-width:0.7;stroke-linecap:round;stroke-linejoin:round;stroke-miterlimit:3;stroke:#000000;stroke-opacity:0.301961" d="M1.3 3.25L1.3 1.05L1.3 0L0 0L0 1.05" />
<path style="fill:none;stroke-width:0.7;stroke-linecap:round;stroke-linejoin:round;stroke-miterlimit:3;stroke:#000000;stroke-opacity:0.301961" d="M1.3 3.25L1.3 9.15L0 9.15L0 3.25" />
</g>
</svg>
