<?xml version="1.0" encoding="utf-8"?>
<svg version="1.1" id="Layer_1"
xmlns="http://www.w3.org/2000/svg"
xmlns:xlink="http://www.w3.org/1999/xlink"
width="226px" height="65px"
xml:space="preserve">
<g id="PathID_585" transform="matrix(1, 0, 0, 1, 106.1, 44.75)">
<path style="fill:#E1EFF0;fill-opacity:1" d="M43.05 -10.85L45 -12.45Q47.5 -14.35 50.45 -13.4Q53.35 -12.5 56.25 -9.75L59.1 -6.45L62.55 -9.3Q66.15 -12.05 68.25 -12.05Q71.15 -12.05 72.6 -10.2Q73.35 -9.35 74.25 -6.9Q78.1 -8.65 80.6 -10.55Q82.6 -11.6 89.15 -11.6Q95.15 -11.6 100.6 -8.4Q102.15 -7.5 103.65 -4.15Q107.75 -5.6 112.7 -4.9Q120.85 -3.75 118.95 11.55L105.05 10.65Q103.8 10.65 102.7 9.85L101.7 8.75Q100.95 10.4 97.55 11.5Q94 12.65 89.55 12.65Q84.6 12.65 82.45 10.85Q81.05 8.8 80.2 8.4L77.3 10.6Q75.05 12.15 73 12.15Q71.8 12.15 70.7 11.5Q69.6 10.85 67.6 10.85L58.45 11.35Q54.65 11.35 51.9 9.45L49.8 7.5L45.9 8.8Q41.55 10.05 35.65 10.05L31.75 9.95Q29.55 9.65 28.1 8.75L26.35 7.3L25.65 6.55L21.75 10.75Q19.45 13.05 17.05 13.05L6.5 11.35Q3.5 10.85 0.65 8.65Q-1.9 6.75 -3.3 6.75L-9.9 7.1Q-14.75 7.1 -19.05 5.1Q-22.75 2.95 -23.5 2.65L-26.75 6.4Q-29.1 8.6 -32.15 8.6Q-34.15 8.6 -38.5 7.25Q-42.9 5.85 -44.2 5.85L-52.8 6Q-53.6 6 -55.05 5.2L-56.35 4.35L-60.05 6Q-63.65 7.7 -67.8 7.7Q-71.65 7.7 -74.8 6Q-77.25 4.35 -77.45 4.35L-81.7 5.55Q-85.9 6.75 -89.8 6.75Q-96.6 6.75 -101.55 4.55Q-104.15 3.35 -105.75 1.7L-105.8 -0.1Q-105.8 -5.25 -103.95 -9.25Q-101.8 -13.95 -98.25 -13.95Q-97.15 -13.95 -94.95 -12.55Q-93.7 -11.8 -93.4 -11.45Q-93.55 -14.55 -92.6 -17.1Q-91.65 -19.7 -87.1 -22.3Q-82.6 -24.9 -75.1 -16.55Q-76.3 -24.45 -71.2 -30.8L-65.05 -38.35Q-64 -39.45 -56.65 -42.35Q-49.4 -45.2 -46.15 -44.2Q-42.95 -43.2 -33.55 -36.3Q-32.1 -41.05 -28.6 -42.3Q-25.1 -43.55 -22.6 -41.9Q-20.15 -40.3 -20.2 -38.35L-17.75 -38.6L-15.1 -38.9Q-9.95 -38.9 -8 -34.1Q-6.55 -30.45 -7.3 -25.25Q-2.05 -26.25 2.75 -17.95Q5.15 -13.85 6.6 -10.05Q6.9 -11.05 13.05 -14.9Q19.95 -19.15 23.9 -19.15Q31 -19.15 36.5 -15.4L40.15 -12.5Q41.35 -11.55 42.2 -11.05L43.05 -10.65L43.05 -10.85" />
<path style="fill:#ADD1D4;fill-opacity:1" d="M118.95 11.55L116.85 13.15Q115 14.6 113.15 15.3L106.1 15.85L100.05 15.7L96.95 17.35Q93.9 18.95 91 18.95Q89.7 18.95 84.7 17.1Q79.65 15.2 78.7 15.2Q77.6 15.2 75.5 17.55Q73.3 19.9 70.45 19.9L64.55 19.3L56.9 18.05L48.25 16.3L40.6 16.05L27.15 17.6L11.55 19.05Q6.75 19.75 1 16.7Q-4.75 13.7 -5.75 12.45Q-6.8 11.15 -10.75 13.45Q-14.7 15.7 -26.95 16.9L-41.85 18.05Q-47.5 18.05 -52.35 14.75Q-56.3 11.4 -57.2 11.4L-62.25 13.1Q-67.25 14.75 -68.85 14.75Q-74.35 14.75 -77.3 12.4L-79.05 10.75Q-79.8 10 -80.4 10L-90.65 10.95Q-101.1 10.95 -103.05 8.2Q-104.35 7.45 -104.9 6.3Q-105.55 4.75 -105.75 1.7Q-104.15 3.35 -101.55 4.55Q-96.6 6.75 -89.8 6.75Q-85.9 6.75 -81.7 5.55L-77.45 4.35Q-77.25 4.35 -74.8 6Q-71.65 7.7 -67.8 7.7Q-63.65 7.7 -60.05 6L-56.35 4.35L-55.05 5.2Q-53.6 6 -52.8 6L-44.2 5.85Q-42.9 5.85 -38.5 7.25Q-34.15 8.6 -32.15 8.6Q-29.1 8.6 -26.75 6.4L-23.5 2.65Q-22.75 2.95 -19.05 5.1Q-14.75 7.1 -9.9 7.1L-3.3 6.75Q-1.9 6.75 0.65 8.65Q3.5 10.85 6.5 11.35L17.05 13.05Q19.45 13.05 21.75 10.75L25.65 6.55L26.35 7.3L28.1 8.75Q29.55 9.65 31.75 9.95L35.65 10.05Q41.55 10.05 45.9 8.8L49.8 7.5L51.9 9.45Q54.65 11.35 58.45 11.35L67.6 10.85Q69.6 10.85 70.7 11.5Q71.8 12.15 73 12.15Q75.05 12.15 77.3 10.6L80.2 8.4Q81.05 8.8 82.45 10.85Q84.6 12.65 89.55 12.65Q94 12.65 97.55 11.5Q100.95 10.4 101.7 8.75L102.7 9.85Q103.8 10.65 105.05 10.65L118.95 11.55" />
<path style="fill:none;stroke-width:0.7;stroke-linecap:round;stroke-linejoin:round;stroke-miterlimit:3;stroke:#2B5558;stroke-opacity:0.301961" d="M-105.75 1.7L-105.8 -0.1Q-105.8 -5.25 -103.95 -9.25Q-101.8 -13.95 -98.25 -13.95Q-97.15 -13.95 -94.95 -12.55Q-93.7 -11.8 -93.4 -11.45Q-93.55 -14.55 -92.6 -17.1Q-91.65 -19.7 -87.1 -22.3Q-82.6 -24.9 -75.1 -16.55Q-76.3 -24.45 -71.2 -30.8L-65.05 -38.35Q-64 -39.45 -56.65 -42.35Q-49.4 -45.2 -46.15 -44.2Q-42.95 -43.2 -33.55 -36.3Q-32.1 -41.05 -28.6 -42.3Q-25.1 -43.55 -22.6 -41.9Q-20.15 -40.3 -20.2 -38.35L-17.75 -38.6L-15.1 -38.9Q-9.95 -38.9 -8 -34.1Q-6.55 -30.45 -7.3 -25.25Q-2.05 -26.25 2.75 -17.95Q5.15 -13.85 6.6 -10.05Q6.9 -11.05 13.05 -14.9Q19.95 -19.15 23.9 -19.15Q31 -19.15 36.5 -15.4L40.15 -12.5Q41.35 -11.55 42.2 -11.05L42.2 -11.6L42.65 -11.35Q42.85 -11.15 43.05 -11.15L43.05 -10.85L45 -12.45Q47.5 -14.35 50.45 -13.4Q53.35 -12.5 56.25 -9.75L59.1 -6.45L62.55 -9.3Q66.15 -12.05 68.25 -12.05Q71.15 -12.05 72.6 -10.2Q73.35 -9.35 74.25 -6.9Q78.1 -8.65 80.6 -10.55Q82.6 -11.6 89.15 -11.6Q95.15 -11.6 100.6 -8.4Q102.15 -7.5 103.65 -4.15Q107.75 -5.6 112.7 -4.9Q120.85 -3.75 118.95 11.55L116.85 13.15Q115 14.6 113.15 15.3L106.1 15.85L100.05 15.7L96.95 17.35Q93.9 18.95 91 18.95Q89.7 18.95 84.7 17.1Q79.65 15.2 78.7 15.2Q77.6 15.2 75.5 17.55Q73.3 19.9 70.45 19.9L64.55 19.3L56.9 18.05L48.25 16.3L40.6 16.05L27.15 17.6L11.55 19.05Q6.75 19.75 1 16.7Q-4.75 13.7 -5.75 12.45Q-6.8 11.15 -10.75 13.45Q-14.7 15.7 -26.95 16.9L-41.85 18.05Q-47.5 18.05 -52.35 14.75Q-56.3 11.4 -57.2 11.4L-62.25 13.1Q-67.25 14.75 -68.85 14.75Q-74.35 14.75 -77.3 12.4L-79.05 10.75Q-79.8 10 -80.4 10L-90.65 10.95Q-101.1 10.95 -103.05 8.2Q-104.35 7.45 -104.9 6.3Q-105.55 4.75 -105.75 1.7z" />
<path style="fill:none;stroke-width:0.7;stroke-linecap:round;stroke-linejoin:round;stroke-miterlimit:3;stroke:#2B5558;stroke-opacity:0.301961" d="M42.2 -11.05L43.05 -10.65L43.05 -10.85" />
</g>
</svg>
