<?xml version="1.0" encoding="utf-8"?>
<svg version="1.1" id="Layer_1"
xmlns="http://www.w3.org/2000/svg"
xmlns:xlink="http://www.w3.org/1999/xlink"
width="37px" height="20px"
xml:space="preserve">
<g id="PathID_559" transform="matrix(1, 0, 0, 1, 0, 0)">
<path style="fill:#808080;fill-opacity:1" d="M35.8 3.15Q35.15 2.65 34.2 2.7Q33.25 2.75 32.65 3.25Q32 3.75 32 4.35Q32 4.85 32.35 4.8L33.3 4.2Q33.9 3.6 34.3 3.8L35.55 3.8Q36.4 3.65 35.8 3.15M36.95 5Q36.95 6.25 36.2 7.15Q35.4 7.95 34.3 7.95Q33.15 7.95 32.35 7.15Q31.55 6.25 31.55 5Q31.55 3.8 32.35 2.95Q33.15 2.1 34.3 2.1Q35.4 2.1 36.2 2.95Q36.95 3.8 36.95 5M35.8 5.1Q35.35 4.8 35.3 5.35Q35.25 5.9 34.15 6.5L33.5 6.75Q33.95 7.2 34.65 7.2Q35.35 7.2 35.8 6.75Q36.35 6.45 36.35 6Q36.35 5.5 35.8 5.1M31.5 8.7Q31.5 9.5 30.95 10.1Q30.35 10.75 29.55 10.75Q28.75 10.75 28.15 10.1Q27.6 9.5 27.6 8.7Q27.6 7.8 28.15 7.2Q28.75 6.6 29.55 6.6Q30.35 6.6 30.95 7.2Q31.5 7.8 31.5 8.7M31.4 11.25Q30.85 11.25 30.45 11.65Q30.05 12.05 30.05 12.6Q30.05 13.15 30.3 13.1L30.9 12.45L31.25 12.05L31.95 12.1Q32.65 12 32.25 11.65Q31.95 11.25 31.4 11.25M33 11.4Q33.65 12.15 33.65 13.1Q33.65 14.05 33 14.75Q32.4 15.45 31.5 15.45Q30.65 15.45 30.05 14.75Q29.45 14.05 29.45 13.1Q29.45 12.15 30.05 11.4Q30.65 10.75 31.5 10.75Q32.4 10.75 33 11.4M21.6 12.75Q21.05 13.3 20.4 13.5L20.05 13.5L19.4 13.35L18.8 13.05L18.55 12.75Q17.9 12.1 17.9 11.1Q17.9 10.15 18.55 9.45Q19.2 8.8 20.05 8.8Q20.95 8.8 21.6 9.45Q22.15 10.15 22.15 11.1L22.05 12.1L21.6 12.75M11.8 13.8L12.8 14.6L13.55 14Q13.3 13.3 13.55 12.8Q14.15 11.95 15.15 12.25L16.25 12.7L16.5 14Q17.55 13.3 18.45 14.75L18.75 15.7Q19.3 14.4 19.85 14.05Q20 13.9 20.3 13.8L20.8 13.75Q21.4 13.75 21.9 14.2L22.35 14.95L22.5 14.75Q23 14.15 23.75 14.15L23.75 14.1Q23.75 13.75 24.05 13.35L24.25 13.25L24.75 13.1L24.8 13.1Q25.2 13.1 25.5 13.35L25.85 14.1L25.5 14.85L25.25 15.1L25.5 15.7L25.9 15.65Q26.6 15.65 27 16.1Q27.45 16.45 27.5 17Q27.85 17 28 17.25Q28.3 17.25 28.45 17.05Q28.75 16.8 29.2 16.8L29.85 17.05L30.25 17.85L30.05 18.4L30.25 18.4L30.7 18.6L30.85 19L28.6 19.15L18.25 19.5L6.65 19L3.8 18.45Q3.55 17 5.1 16.9Q6.05 14.35 8.15 15.4Q8.4 13.9 9.9 14.1L9.7 13.4Q9.75 12.6 10.35 12.35L11.5 12.55L11.55 12.55L11.6 12.65Q11.95 13 11.8 13.8M28.6 13.2Q29 13.65 29 14.15L28.95 14.5L28.6 15.1Q28.3 15.5 27.8 15.5Q27.3 15.5 26.9 15.1L26.85 14.95L27.55 15.2L28.4 14.9L28.7 14.35L28.4 13.85Q28 13.6 28 13.95L27.2 14.75L26.85 14.9Q26.6 14.6 26.6 14.15Q26.6 13.65 26.9 13.2Q27.3 12.8 27.8 12.8Q28.3 12.8 28.6 13.2M6.2 14.05L6 13.9L6.4 13.35L6 12.8Q5.7 12.55 5.65 12.95L4.85 13.75L4.4 13.9L4.45 13.95L4.2 13.85Q3.85 13.4 3.85 12.8Q3.85 12.2 4.25 11.7Q4.7 11.25 5.25 11.25Q5.85 11.25 6.35 11.7Q6.75 12.2 6.75 12.8L6.6 13.55L6.2 14.05M15.1 10.6L14.9 9.85Q14.9 9.25 15.3 8.8Q15.75 8.3 16.3 8.3Q16.9 8.3 17.4 8.8Q17.8 9.25 17.8 9.85Q17.8 10.55 17.4 10.95L17.1 11.2L16.3 11.45Q15.4 11.25 15.1 10.6M21.25 10.8Q20.8 10.5 20.75 11Q20.7 11.55 19.6 12.2L18.95 12.45L20.1 12.8Q20.8 12.8 21.25 12.45Q21.8 12.15 21.8 11.65Q21.8 11.15 21.25 10.8M20.8 9.75Q20.4 9.4 19.9 9.4Q19.3 9.4 19 9.75Q18.55 10.15 18.55 10.75Q18.55 11.25 18.75 11.2L19.35 10.6Q19.7 10.05 19.8 10.15L20.4 10.25Q21.1 10.1 20.8 9.75M28.55 7.35Q28.05 7.7 28.05 8.25Q28.05 8.85 28.35 8.8L28.9 8.1L29.3 7.7L30 7.75Q30.65 7.65 30.35 7.35Q30 6.9 29.45 6.9Q28.85 6.9 28.55 7.35M28.6 18L28.85 17.65Q29 17.3 29.05 17.45L29.3 17.45Q29.6 17.4 29.45 17.15L29.15 16.95L28.7 17.15L28.55 17.75L28.6 18M24.35 13.55L24.15 14.1L24.25 14.35L24.5 14L24.65 13.8L24.95 13.8L25.1 13.55L24.7 13.3L24.35 13.55M21.15 14.85Q21.75 14.75 21.5 14.5Q21.15 14.15 20.75 14.15Q20.25 14.15 19.95 14.5Q19.6 14.8 19.6 15.3Q19.6 15.7 19.85 15.65L20.3 15.15Q20.55 14.7 20.65 14.8L21.15 14.85M21 16.9Q21.55 16.9 21.85 16.6L22.15 16.1L21.85 15.55Q21.55 15.3 21.5 15.65L20.7 16.45L20.25 16.6Q20.55 16.9 21 16.9M32.15 13.3Q32.1 13.85 31.05 14.5L30.35 14.75Q30.9 15.15 31.5 15.15Q32.2 15.15 32.7 14.75Q33.25 14.45 33.25 13.95Q33.25 13.5 32.7 13.1Q32.2 12.75 32.15 13.3M19.5 6.15Q19.9 6.55 19.9 7.15Q19.9 7.65 19.5 8Q19.2 8.4 18.65 8.4Q18.2 8.4 17.8 8L17.6 7.75L17.5 7.15Q17.5 6.55 17.8 6.15Q18.2 5.8 18.65 5.8Q19.2 5.8 19.5 6.15M15.9 3.5Q15.45 3.2 14.95 3.2Q14.35 3.2 14 3.55Q13.55 3.95 13.55 4.55Q13.55 5.05 13.85 5L14.4 4.4Q14.75 3.85 15.15 3.9L15.9 3.9Q16.3 3.85 15.9 3.5M17.25 5.1Q17.25 5.75 16.9 6.4Q16.45 7.45 15.4 7.5Q12.9 7.65 12.9 5.1Q12.9 4.2 13.55 3.45Q14.2 2.8 15.1 2.8Q15.95 2.8 16.6 3.45Q17.25 4.2 17.25 5.1M10.2 2.1Q9.9 1.8 9.85 2.2L9.05 3L8.6 3.15L9.35 3.4L10.2 3.15L10.55 2.6Q10.55 2.3 10.2 2.1M10.65 2.45Q10.65 3 10.25 3.35Q9.95 3.8 9.4 3.8Q8.95 3.8 8.55 3.35Q8.2 3 8.2 2.45Q8.2 1.9 8.55 1.5Q8.95 1.1 9.4 1.1Q9.95 1.1 10.25 1.5Q10.65 1.9 10.65 2.45M19.05 7.25L18.5 7.8L18.2 7.9Q18.4 8.1 18.7 8.1L19.25 7.9L19.55 7.55L19.25 7.15Q19.1 6.9 19.05 7.25M16.8 9.25Q17.4 9.15 17.05 8.9Q16.8 8.6 16.3 8.6Q15.85 8.6 15.6 8.9Q15.2 9.2 15.2 9.65Q15.2 10.1 15.4 10.05L15.9 9.5Q16.2 9.1 16.25 9.2L16.8 9.25M16.85 9.85Q16.8 10.3 16.05 10.7L15.65 10.85L16.4 11.1L17.25 10.85L17.55 10.35L17.25 9.75Q16.9 9.5 16.85 9.85M7.05 0.7Q7.6 1.4 7.6 2.35L7.5 3.3L7.05 4Q6.5 4.55 5.85 4.7L5.5 4.7L4.85 4.55Q4.55 4.35 4.3 4.3L3.75 3.8Q3.35 3.3 3.35 2.35Q3.35 1.4 4 0.7Q4.65 0 5.5 0Q6.4 0 7.05 0.7M5.25 0.4Q4.7 0.4 4.35 0.8Q3.95 1.15 3.95 1.75Q3.95 2.3 4.15 2.25L4.8 1.6Q5.2 1.15 5.5 1.25L6.25 1.15Q6.7 0.95 6.3 0.7Q5.85 0.4 5.25 0.4M6.25 2.3Q6.2 2.85 5.1 3.45L4.4 3.75L5.6 4.1Q6.3 4.1 6.75 3.75Q7.3 3.4 7.3 2.95Q7.3 2.45 6.75 2.1Q6.3 1.75 6.25 2.3M6.5 5.55Q6.05 5.95 6.05 6.5Q6.05 7.05 6.35 7L6.9 6.35Q7.25 5.85 7.55 6L8.3 6Q8.75 5.9 8.4 5.55Q8 5.15 7.45 5.15Q6.85 5.15 6.5 5.55M9.05 5.45Q9.7 6.15 9.7 7.15Q9.7 8.05 9.05 8.8Q8.45 9.45 7.6 9.45Q6.7 9.45 6.05 8.8Q5.5 8.05 5.5 7.15Q5.5 6.15 6.05 5.45Q6.7 4.75 7.6 4.75Q8.45 4.75 9.05 5.45M3.1 6.5Q2.45 6.45 1.65 7Q0.8 7.55 0.55 8.1Q0 8.9 0.35 9.35Q0.6 9.8 0.85 9.55L1.7 8.4L2.9 7.2Q3.75 6.45 3.1 6.5M0.75 6.7Q1.55 5.9 2.65 5.9Q3.8 5.9 4.6 6.7Q5.35 7.6 5.35 8.85Q5.35 10.05 4.6 10.9Q3.8 11.75 2.65 11.75Q1.55 11.75 0.75 10.9Q0 10.05 0 8.85Q0 7.6 0.75 6.7M8.15 7.4Q8.1 7.9 7.05 8.6L6.35 8.85Q6.8 9.2 7.5 9.2L8.65 8.85Q9.2 8.45 9.2 8Q9.2 7.55 8.65 7.2Q8.2 6.8 8.15 7.4M5.7 12.25Q6.3 12.15 5.95 11.9Q5.7 11.55 5.25 11.55Q4.75 11.55 4.5 11.9Q4.1 12.2 4.1 12.65Q4.1 13.1 4.3 13.05L4.8 12.5L5.15 12.2L5.7 12.25M6.6 17.85L7.4 18.1L8.2 17.85L8.55 17.3Q8.55 17 8.2 16.8Q7.9 16.5 7.8 16.9L7.05 17.7L6.6 17.85M6.2 15.9L6 16.3L6.25 16.85L7.15 16Q7.15 15.6 6.65 15.6Q6.4 15.6 6.2 15.9M14.6 13.5Q14.95 13.4 14.8 13.2L14.45 13L14.05 13.2L13.9 13.8L14 14.05L14.2 13.7Q14.35 13.35 14.4 13.5L14.6 13.5M10.65 12.45L10.25 12.65L10.05 13.25Q10.05 13.6 10.15 13.55L10.45 13.15Q10.55 12.8 10.6 12.95L10.85 12.95L11 12.65L10.65 12.45" />
<path style="fill:#ADADAD;fill-opacity:1" d="M35.55 3.8L34.3 3.8Q33.9 3.6 33.3 4.2L32.35 4.8Q32 4.85 32 4.35Q32 3.75 32.65 3.25Q33.25 2.75 34.2 2.7Q35.15 2.65 35.8 3.15Q36.4 3.65 35.55 3.8M32.25 11.65Q32.65 12 31.95 12.1L31.25 12.05L30.9 12.45L30.3 13.1Q30.05 13.15 30.05 12.6Q30.05 12.05 30.45 11.65Q30.85 11.25 31.4 11.25Q31.95 11.25 32.25 11.65M20.4 10.25L19.8 10.15Q19.7 10.05 19.35 10.6L18.75 11.2Q18.55 11.25 18.55 10.75Q18.55 10.15 19 9.75Q19.3 9.4 19.9 9.4Q20.4 9.4 20.8 9.75Q21.1 10.1 20.4 10.25M29.45 6.9Q30 6.9 30.35 7.35Q30.65 7.65 30 7.75L29.3 7.7L28.9 8.1L28.35 8.8Q28.05 8.85 28.05 8.25Q28.05 7.7 28.55 7.35Q28.85 6.9 29.45 6.9M28.55 17.75L28.7 17.15L29.15 16.95L29.45 17.15Q29.6 17.4 29.3 17.45L29.05 17.45Q29 17.3 28.85 17.65L28.6 18L28.55 17.75M24.7 13.3L25.1 13.55L24.95 13.8L24.65 13.8L24.5 14L24.25 14.35L24.15 14.1L24.35 13.55L24.7 13.3M20.65 14.8Q20.55 14.7 20.3 15.15L19.85 15.65Q19.6 15.7 19.6 15.3Q19.6 14.8 19.95 14.5Q20.25 14.15 20.75 14.15Q21.15 14.15 21.5 14.5Q21.75 14.75 21.15 14.85L20.65 14.8M15.9 3.9L15.15 3.9Q14.75 3.85 14.4 4.4L13.85 5Q13.55 5.05 13.55 4.55Q13.55 3.95 14 3.55Q14.35 3.2 14.95 3.2Q15.45 3.2 15.9 3.5Q16.3 3.85 15.9 3.9M16.25 9.2Q16.2 9.1 15.9 9.5L15.4 10.05Q15.2 10.1 15.2 9.65Q15.2 9.2 15.6 8.9Q15.85 8.6 16.3 8.6Q16.8 8.6 17.05 8.9Q17.4 9.15 16.8 9.25L16.25 9.2M6.3 0.7Q6.7 0.95 6.25 1.15L5.5 1.25Q5.2 1.15 4.8 1.6L4.15 2.25Q3.95 2.3 3.95 1.75Q3.95 1.15 4.35 0.8Q4.7 0.4 5.25 0.4Q5.85 0.4 6.3 0.7M7.45 5.15Q8 5.15 8.4 5.55Q8.75 5.9 8.3 6L7.55 6Q7.25 5.85 6.9 6.35L6.35 7Q6.05 7.05 6.05 6.5Q6.05 5.95 6.5 5.55Q6.85 5.15 7.45 5.15M2.9 7.2L1.7 8.4L0.85 9.55Q0.6 9.8 0.35 9.35Q0 8.9 0.55 8.1Q0.8 7.55 1.65 7Q2.45 6.45 3.1 6.5Q3.75 6.45 2.9 7.2M5.15 12.2L4.8 12.5L4.3 13.05Q4.1 13.1 4.1 12.65Q4.1 12.2 4.5 11.9Q4.75 11.55 5.25 11.55Q5.7 11.55 5.95 11.9Q6.3 12.15 5.7 12.25L5.15 12.2M6.65 15.6Q7.15 15.6 7.15 16L6.25 16.85L6 16.3L6.2 15.9Q6.4 15.6 6.65 15.6M14.4 13.5Q14.35 13.35 14.2 13.7L14 14.05L13.9 13.8L14.05 13.2L14.45 13L14.8 13.2Q14.95 13.4 14.6 13.5L14.4 13.5M11 12.65L10.85 12.95L10.6 12.95Q10.55 12.8 10.45 13.15L10.15 13.55Q10.05 13.6 10.05 13.25L10.25 12.65L10.65 12.45L11 12.65" />
<path style="fill:#626262;fill-opacity:1" d="M36.35 6Q36.35 6.45 35.8 6.75Q35.35 7.2 34.65 7.2Q33.95 7.2 33.5 6.75L34.15 6.5Q35.25 5.9 35.3 5.35Q35.35 4.8 35.8 5.1Q36.35 5.5 36.35 6M25.1 8.6Q25.55 8.6 25.9 8.95Q26.25 9.35 26.25 9.85L25.9 10.8Q25.55 11.2 25.1 11.2Q24.55 11.2 24.2 10.8Q23.85 10.45 23.85 9.85Q23.85 9.35 24.2 8.95Q24.55 8.6 25.1 8.6M24.05 13.35Q23.75 13.75 23.75 14.1L23.75 14.15Q23 14.15 22.5 14.75L22.35 14.95L21.9 14.2Q21.4 13.75 20.8 13.75L20.3 13.8L20.4 13.5Q21.05 13.3 21.6 12.75L22.05 12.1L22.35 12.05Q23.2 12.05 23.8 12.65L24.25 13.25L24.05 13.35M27.8 12.8Q27.3 12.8 26.9 13.2Q26.6 13.65 26.6 14.15Q26.6 14.6 26.85 14.9L27.2 14.75L28 13.95Q28 13.6 28.4 13.85L28.7 14.35L28.4 14.9L27.55 15.2L26.85 14.95L26.9 15.1Q27.3 15.5 27.8 15.5Q28.3 15.5 28.6 15.1L28.95 14.5Q29.75 14.55 30.3 15.1L30.95 16.2Q31.3 16.2 31.55 16.5L31.8 16.8L32.1 16.3Q32.45 15.95 33 15.95Q33.55 15.95 33.9 16.3Q34.35 16.75 34.35 17.25L34.1 17.95L34.4 17.95L35.3 18.15L35.9 18.35L33.5 18.85L30.85 19L30.7 18.6L30.25 18.4L30.05 18.4L30.25 17.85L29.85 17.05L29.2 16.8Q28.75 16.8 28.45 17.05Q28.3 17.25 28 17.25Q27.85 17 27.5 17Q27.45 16.45 27 16.1Q26.6 15.65 25.9 15.65L25.5 15.7L25.25 15.1L25.5 14.85L25.85 14.1L25.5 13.35Q25.2 13.1 24.8 13.1Q25.4 12.6 26.15 12.6L26.15 12.55Q26.15 12.05 26.5 11.6Q26.9 11.2 27.45 11.2Q28 11.2 28.4 11.6L28.75 12.55L28.6 13.2Q28.3 12.8 27.8 12.8M6.6 13.55Q7.3 12.2 8.55 12.5Q8.1 11.65 8.6 10.75L9.05 10.25Q10.45 9.9 10.8 11L11 12.15L11.5 12.55L10.35 12.35Q9.75 12.6 9.7 13.4L9.9 14.1Q8.4 13.9 8.15 15.4Q6.05 14.35 5.1 16.9Q3.55 17 3.8 18.45L6.65 19L0.85 18.4Q0.5 16.3 2.45 16.1Q2.15 14.45 4.2 13.85L4.45 13.95L4.4 13.9L4.85 13.75L5.65 12.95Q5.7 12.55 6 12.8L6.4 13.35L6 13.9L6.2 14.05L6.6 13.55M19.85 14.05Q19.3 14.4 18.75 15.7L18.45 14.75Q17.55 13.3 16.5 14L16.25 12.7L15.15 12.25Q14.15 11.95 13.55 12.8Q13.3 13.3 13.55 14L12.8 14.6L11.8 13.8Q11.95 13 11.6 12.65L12.25 13.15Q12.15 12.35 12.7 11.55Q13.25 10.75 14.05 10.75L14.9 10.75L15.1 10.6Q15.4 11.25 16.3 11.45L17.1 11.2L16.9 12.4Q17.85 12.4 17.9 13.15L18.8 13.05L19.4 13.35L19.85 14.05M21.8 11.65Q21.8 12.15 21.25 12.45Q20.8 12.8 20.1 12.8L18.95 12.45L19.6 12.2Q20.7 11.55 20.75 11Q20.8 10.5 21.25 10.8Q21.8 11.15 21.8 11.65M20.25 16.6L20.7 16.45L21.5 15.65Q21.55 15.3 21.85 15.55L22.15 16.1L21.85 16.6Q21.55 16.9 21 16.9Q20.55 16.9 20.25 16.6M32.7 13.1Q33.25 13.5 33.25 13.95Q33.25 14.45 32.7 14.75Q32.2 15.15 31.5 15.15Q30.9 15.15 30.35 14.75L31.05 14.5Q32.1 13.85 32.15 13.3Q32.2 12.75 32.7 13.1M10.55 2.6L10.2 3.15L9.35 3.4L8.6 3.15L9.05 3L9.85 2.2Q9.9 1.8 10.2 2.1Q10.55 2.3 10.55 2.6M19.25 7.15L19.55 7.55L19.25 7.9L18.7 8.1Q18.4 8.1 18.2 7.9L18.5 7.8L19.05 7.25Q19.1 6.9 19.25 7.15M17.25 9.75L17.55 10.35L17.25 10.85L16.4 11.1L15.65 10.85L16.05 10.7Q16.8 10.3 16.85 9.85Q16.9 9.5 17.25 9.75M6.75 2.1Q7.3 2.45 7.3 2.95Q7.3 3.4 6.75 3.75Q6.3 4.1 5.6 4.1L4.4 3.75L5.1 3.45Q6.2 2.85 6.25 2.3Q6.3 1.75 6.75 2.1M8.65 7.2Q9.2 7.55 9.2 8Q9.2 8.45 8.65 8.85L7.5 9.2Q6.8 9.2 6.35 8.85L7.05 8.6Q8.1 7.9 8.15 7.4Q8.2 6.8 8.65 7.2M7.05 17.7L7.8 16.9Q7.9 16.5 8.2 16.8Q8.55 17 8.55 17.3L8.2 17.85L7.4 18.1L6.6 17.85L7.05 17.7M2.85 14.2L2.1 14.55Q1.65 14.55 1.35 14.2L1.1 13.4L1.35 12.6Q1.65 12.3 2.1 12.3L2.85 12.6L3.1 13.4L2.85 14.2" />
<path style="fill:none;stroke-width:0.7;stroke-linecap:round;stroke-linejoin:round;stroke-miterlimit:3;stroke:#000000;stroke-opacity:0.298039" d="M30.85 19L28.6 19.15" />
<path style="fill:none;stroke-width:0.7;stroke-linecap:round;stroke-linejoin:round;stroke-miterlimit:3;stroke:#000000;stroke-opacity:0.298039" d="M6.65 19L0.85 18.4" />
</g>
</svg>
