<?xml version="1.0" encoding="utf-8"?>
<svg version="1.1" id="Layer_1"
xmlns="http://www.w3.org/2000/svg"
xmlns:xlink="http://www.w3.org/1999/xlink"
width="145px" height="181px"
xml:space="preserve">
<g id="PathID_627" transform="matrix(1, 0, 0, 1, 71.65, 180.75)">
<path style="fill:#326209;fill-opacity:1" d="M-2.85 -108.85L-3.1 -113.45L-1.15 -106.2Q0.25 -102 2.3 -98Q-0.55 -101.85 -2 -106.05L-2.85 -108.85M-4.6 -103.65L-5.85 -108.9L-5.45 -112.15L-4.6 -103.65M-5.45 -69.35Q-7.7 -65.6 -8.15 -61.4L-8.05 -66.5L-5.45 -69.35" />
</g>
<g id="PathID_628" transform="matrix(1, 0, 0, 1, 71.65, 180.75)">
<path style="fill:#2B5607;fill-opacity:1" d="M-43.15 -36.95Q-38.4 -40.1 -34.2 -44L-42.3 -30.8Q-35.55 -34.55 -29.85 -40Q-30.65 -34.3 -32.75 -29.6Q-23.7 -32.65 -16.7 -37.45L-19.75 -30.4Q-14.35 -34.2 -10.75 -38.55Q-9.05 -33.95 -3.65 -29.85Q-4.95 -34.15 -3 -39.85Q1.1 -36.3 2.8 -30.25Q3.05 -35.05 2.05 -40.2Q5.15 -36.4 5.45 -32.3L8.6 -38.8Q8.85 -33.15 5.95 -28.05L5.25 -27.2L5.95 -28.05L12.75 -36.65Q14.85 -32.55 15.4 -27.95Q18.25 -32.65 19.65 -38.4Q23.3 -32.8 28.25 -28.2Q32.85 -33.55 33.1 -40.95Q38.95 -37 43 -31.55L40.55 -39.95Q44 -37.3 48.05 -35L50.3 -31.25L51.75 -28.95L43.75 -34.85L43.7 -29.25Q39.55 -33.75 34.2 -38.05Q33.1 -30.5 28.3 -26.4Q23.6 -30.7 20.3 -35.45Q19.2 -27.9 14.5 -25.65Q14.15 -30.45 12.45 -33.85Q7.45 -26.5 2.95 -25.95Q5.3 -28.3 6.15 -31.75L3.95 -29.1L4 -31.6L2.1 -27.8Q1.15 -32.65 -2.25 -37.25Q-3.5 -32.35 -2.35 -27.8Q-5.35 -29.15 -7.7 -31.25Q-9.75 -33.1 -11.25 -35.55Q-16.6 -29.6 -24.5 -26.45L-22.55 -30.95Q-29.65 -26.7 -37.85 -24.25L-33.8 -33Q-39.85 -28.6 -47.15 -26.3L-42.55 -33.25L-49.45 -28.7L-43.15 -36.95M-47.9 -8.25L-51.25 -4.05L-67.4 -4.4Q-57.6 -5.2 -47.9 -8.25M-12.95 -6.05L-11.2 -4.3L-15.05 -4.3L-12.95 -6.05M-6.95 -4.3L-8.5 -4.3L-10.25 -7.7Q-8.85 -5.9 -6.95 -4.3M4.55 -4.4L6.45 -6.05L5.7 -4.4L4.55 -4.4M17.9 -4.45L20.45 -6.4L21.2 -4.5L17.9 -4.45M30.75 -4.55L23.25 -4.5L25.6 -7.65Q27.8 -5.9 30.75 -4.55M36.25 -4.6L34.1 -8.05Q36.9 -5.95 40.2 -4.6L36.25 -4.6M56.35 -4.7L53.7 -4.7Q51.55 -7.15 50.1 -10.1L56.35 -4.7M53.5 -9.2Q56.05 -6.65 60 -4.75L59.55 -4.75L58.95 -4.7L58.3 -4.7L57.05 -4.7L53.5 -9.2M-40.4 -4.9L-44.9 -4.4Q-41.3 -5.9 -38.7 -8.05L-40.4 -4.9" />
<path style="fill:#326209;fill-opacity:1" d="M53.85 -25.85L44.85 -32.45Q45.1 -29.3 44 -26.55Q40.5 -31.15 34.95 -35.75Q33.35 -28.3 28.3 -24.15Q25 -28.55 20.9 -32.9Q18.4 -24.65 12.8 -23.6Q13 -26.85 11.55 -29.9Q7.2 -24.9 1.45 -23.7L2.45 -26.9L1.5 -25.35Q0.45 -30.1 -1.7 -33.5Q-2.05 -29.3 -1.1 -25.1Q-5.3 -27.15 -8.2 -30.05Q-10.05 -31.9 -11.45 -34.1Q-19.1 -25.45 -27.1 -23.9L-25.6 -27.7Q-32.8 -23.35 -41.05 -21.3L-36.95 -29.25Q-42.55 -26 -49.7 -24.35L-47.05 -28.85L-51 -26.75L-49.45 -28.7Q-53.2 -25.65 -55.75 -25.05Q-52.65 -28.8 -48.9 -36.1L-46.45 -37.75L-50.15 -32.8Q-46.5 -34.7 -43.15 -36.95L-49.45 -28.7L-42.55 -33.25L-47.15 -26.3Q-39.85 -28.6 -33.8 -33L-37.85 -24.25Q-29.65 -26.7 -22.55 -30.95L-24.5 -26.45Q-16.6 -29.6 -11.25 -35.55Q-9.75 -33.1 -7.7 -31.25Q-5.35 -29.15 -2.35 -27.8Q-3.5 -32.35 -2.25 -37.25Q1.15 -32.65 2.1 -27.8L4 -31.6L3.95 -29.1L6.15 -31.75Q5.3 -28.3 2.95 -25.95Q7.45 -26.5 12.45 -33.85Q14.15 -30.45 14.5 -25.65Q19.2 -27.9 20.3 -35.45Q23.6 -30.7 28.3 -26.4Q33.1 -30.5 34.2 -38.05Q39.55 -33.75 43.7 -29.25L43.75 -34.85L51.75 -28.95L53.85 -25.85M50.3 -31.25L48.05 -35Q49.95 -33.95 52.05 -32.95L46.35 -38.85Q49.45 -36.7 52.8 -34.75Q55.35 -29.8 60.15 -25.75Q54.65 -28.1 50.3 -31.25M-67.4 -4.4L-71.5 -4.2Q-53.55 -7.7 -38.25 -20.45L-40.95 -16.8L-47.9 -8.25Q-57.6 -5.2 -67.4 -4.4M-38.7 -8.05L-37 -9.8L-38.7 -8.05Q-41.3 -5.9 -44.9 -4.4Q-48.3 -3.1 -52.65 -2.35Q-40.7 -7.2 -34.4 -13.3Q-26.85 -8.2 -24.95 -1.25Q-26.3 -3.3 -29.4 -4.85L-42.15 -1.75L-40.4 -4.9L-38.7 -8.05M-24.55 -0.35Q-16.35 -3.8 -14.05 -7.8L-12.95 -6.05L-15.05 -4.3Q-18.7 -1.7 -24.55 -0.35M-10.25 -7.7L-11.2 -9.2L-12 -12.35L-1.85 -1Q-4.8 -2.4 -6.95 -4.3Q-8.85 -5.9 -10.25 -7.7M25.6 -7.65L24.7 -9.85Q28.15 -6.8 32.55 -4.55Q35 -3.3 37.65 -2.25Q33.8 -3.2 30.75 -4.55Q27.8 -5.9 25.6 -7.65M40.2 -4.6Q36.9 -5.95 34.1 -8.05Q33.3 -8.6 32.5 -9.3Q38 -6.4 44.2 -4.65Q49.8 -3.05 55.9 -2.35Q47.1 -1.75 40.2 -4.6M53.5 -9.2L53.1 -9.6Q51.6 -11.05 50.55 -12.75Q55.5 -9.1 60.05 -7.25Q62.95 -6.15 72.65 -6.55Q66.55 -5.2 60 -4.75Q56.05 -6.65 53.5 -9.2" />
<linearGradient
id="LinearGradID_249" gradientUnits="userSpaceOnUse" gradientTransform="matrix(0, 0.0227661, -0.0216064, 0, 0.55, -18.05)" spreadMethod ="pad" x1="-819.2" y1="0" x2="819.2" y2="0" >
<stop  offset="0" style="stop-color:#32690E;stop-opacity:1" />
<stop  offset="1" style="stop-color:#4D9F34;stop-opacity:1" />
</linearGradient>
<path style="fill:url(#LinearGradID_249) " d="M60.05 -7.25Q55.5 -9.1 50.55 -12.75Q51.6 -11.05 53.1 -9.6L53.5 -9.2L57.05 -4.7L58.7 -2.65L56.35 -4.7L50.1 -10.1L48.5 -11.45L50.1 -10.1Q51.55 -7.15 53.7 -4.7L55.9 -2.35Q49.8 -3.05 44.2 -4.65Q38 -6.4 32.5 -9.3Q33.3 -8.6 34.1 -8.05L36.25 -4.6L37.65 -2.25Q35 -3.3 32.55 -4.55Q28.15 -6.8 24.7 -9.85L25.6 -7.65L23.25 -4.5L20.95 -1.5Q21.45 -3.1 21.2 -4.5L20.45 -6.4L19.55 -7.65L20.45 -6.4L17.9 -4.45Q13.45 -1.8 6.45 -0.45Q7.8 -2.35 8.55 -4.4L8.6 -4.65L3.1 -1.5Q4.75 -2.85 5.7 -4.4L6.45 -6.05L7 -8.15L6.45 -6.05L4.55 -4.4Q1.7 -2.3 -1.85 -1L-12 -12.35L-11.2 -9.2L-10.25 -7.7L-8.5 -4.3L-7.2 -1.75Q-9.55 -2.95 -11.2 -4.3L-12.95 -6.05L-14.05 -7.8Q-16.35 -3.8 -24.55 -0.35L-24.95 -1.25Q-26.85 -8.2 -34.4 -13.3Q-40.7 -7.2 -52.65 -2.35L-51.25 -4.05L-47.9 -8.25L-40.95 -16.8L-38.25 -20.45Q-53.55 -7.7 -71.5 -4.2Q-63.55 -12.05 -56.2 -20.55L-51 -26.75L-47.05 -28.85L-49.7 -24.35Q-42.55 -26 -36.95 -29.25L-41.05 -21.3Q-32.8 -23.35 -25.6 -27.7L-27.1 -23.9Q-19.1 -25.45 -11.45 -34.1Q-10.05 -31.9 -8.2 -30.05Q-5.3 -27.15 -1.1 -25.1Q-2.05 -29.3 -1.7 -33.5Q0.45 -30.1 1.5 -25.35L2.45 -26.9L1.45 -23.7Q7.2 -24.9 11.55 -29.9Q13 -26.85 12.8 -23.6Q18.4 -24.65 20.9 -32.9Q25 -28.55 28.3 -24.15Q33.35 -28.3 34.95 -35.75Q40.5 -31.15 44 -26.55Q45.1 -29.3 44.85 -32.45L53.85 -25.85Q55.65 -23.15 57.9 -20.55Q64 -13.3 72.65 -6.55Q62.95 -6.15 60.05 -7.25M8.85 -6.5L8.6 -4.65L8.85 -6.5" />
<path style="fill:none;stroke-width:0.7;stroke-linecap:round;stroke-linejoin:round;stroke-miterlimit:3;stroke:#000000;stroke-opacity:0.301961" d="M5.95 -28.05L5.25 -27.2" />
<path style="fill:none;stroke-width:0.7;stroke-linecap:round;stroke-linejoin:round;stroke-miterlimit:3;stroke:#000000;stroke-opacity:0.301961" d="M51.75 -28.95L50.3 -31.25L48.05 -35" />
<path style="fill:none;stroke-width:0.7;stroke-linecap:round;stroke-linejoin:round;stroke-miterlimit:3;stroke:#000000;stroke-opacity:0.301961" d="M52.8 -34.75Q55.35 -29.8 60.15 -25.75Q54.65 -28.1 50.3 -31.25" />
<path style="fill:none;stroke-width:0.7;stroke-linecap:round;stroke-linejoin:round;stroke-miterlimit:3;stroke:#000000;stroke-opacity:0.301961" d="M-51 -26.75L-56.2 -20.55Q-63.55 -12.05 -71.5 -4.2" />
<path style="fill:none;stroke-width:0.7;stroke-linecap:round;stroke-linejoin:round;stroke-miterlimit:3;stroke:#000000;stroke-opacity:0.301961" d="M-40.95 -16.8L-47.9 -8.25L-51.25 -4.05L-52.65 -2.35" />
<path style="fill:none;stroke-width:0.7;stroke-linecap:round;stroke-linejoin:round;stroke-miterlimit:3;stroke:#000000;stroke-opacity:0.301961" d="M-14.05 -7.8L-12.95 -6.05L-11.2 -4.3Q-9.55 -2.95 -7.2 -1.75L-8.5 -4.3L-10.25 -7.7L-11.2 -9.2" />
<path style="fill:none;stroke-width:0.7;stroke-linecap:round;stroke-linejoin:round;stroke-miterlimit:3;stroke:#000000;stroke-opacity:0.301961" d="M-1.85 -1Q1.7 -2.3 4.55 -4.4L6.45 -6.05L7 -8.15" />
<path style="fill:none;stroke-width:0.7;stroke-linecap:round;stroke-linejoin:round;stroke-miterlimit:3;stroke:#000000;stroke-opacity:0.301961" d="M5.7 -4.4L6.45 -6.05" />
<path style="fill:none;stroke-width:0.7;stroke-linecap:round;stroke-linejoin:round;stroke-miterlimit:3;stroke:#000000;stroke-opacity:0.301961" d="M17.9 -4.45Q13.45 -1.8 6.45 -0.45Q7.8 -2.35 8.55 -4.4L8.6 -4.65L3.1 -1.5Q4.75 -2.85 5.7 -4.4" />
<path style="fill:none;stroke-width:0.7;stroke-linecap:round;stroke-linejoin:round;stroke-miterlimit:3;stroke:#000000;stroke-opacity:0.301961" d="M8.6 -4.65L8.85 -6.5" />
<path style="fill:none;stroke-width:0.7;stroke-linecap:round;stroke-linejoin:round;stroke-miterlimit:3;stroke:#000000;stroke-opacity:0.301961" d="M21.2 -4.5L20.45 -6.4L17.9 -4.45L21.2 -4.5Q21.45 -3.1 20.95 -1.5L23.25 -4.5L25.6 -7.65" />
<path style="fill:none;stroke-width:0.7;stroke-linecap:round;stroke-linejoin:round;stroke-miterlimit:3;stroke:#000000;stroke-opacity:0.301961" d="M37.65 -2.25L36.25 -4.6L34.1 -8.05Q33.3 -8.6 32.5 -9.3" />
<path style="fill:none;stroke-width:0.7;stroke-linecap:round;stroke-linejoin:round;stroke-miterlimit:3;stroke:#000000;stroke-opacity:0.301961" d="M55.9 -2.35L53.7 -4.7Q51.55 -7.15 50.1 -10.1L48.5 -11.45" />
<path style="fill:none;stroke-width:0.7;stroke-linecap:round;stroke-linejoin:round;stroke-miterlimit:3;stroke:#000000;stroke-opacity:0.301961" d="M37.65 -2.25Q33.8 -3.2 30.75 -4.55L23.25 -4.5" />
<path style="fill:none;stroke-width:0.7;stroke-linecap:round;stroke-linejoin:round;stroke-miterlimit:3;stroke:#000000;stroke-opacity:0.301961" d="M40.2 -4.6Q36.9 -5.95 34.1 -8.05" />
<path style="fill:none;stroke-width:0.7;stroke-linecap:round;stroke-linejoin:round;stroke-miterlimit:3;stroke:#000000;stroke-opacity:0.301961" d="M40.2 -4.6L36.25 -4.6" />
<path style="fill:none;stroke-width:0.7;stroke-linecap:round;stroke-linejoin:round;stroke-miterlimit:3;stroke:#000000;stroke-opacity:0.301961" d="M30.75 -4.55Q27.8 -5.9 25.6 -7.65" />
<path style="fill:none;stroke-width:0.7;stroke-linecap:round;stroke-linejoin:round;stroke-miterlimit:3;stroke:#000000;stroke-opacity:0.301961" d="M20.45 -6.4L19.55 -7.65" />
<path style="fill:none;stroke-width:0.7;stroke-linecap:round;stroke-linejoin:round;stroke-miterlimit:3;stroke:#000000;stroke-opacity:0.301961" d="M51.75 -28.95L53.85 -25.85Q55.65 -23.15 57.9 -20.55Q64 -13.3 72.65 -6.55Q66.55 -5.2 60 -4.75" />
<path style="fill:none;stroke-width:0.7;stroke-linecap:round;stroke-linejoin:round;stroke-miterlimit:3;stroke:#00FF00;stroke-opacity:1" d="M60 -4.75L59.55 -4.75" />
<path style="fill:none;stroke-width:0.7;stroke-linecap:round;stroke-linejoin:round;stroke-miterlimit:3;stroke:#000000;stroke-opacity:0.301961" d="M59.55 -4.75L58.95 -4.7L58.3 -4.7" />
<path style="fill:none;stroke-width:0.7;stroke-linecap:round;stroke-linejoin:round;stroke-miterlimit:3;stroke:#000000;stroke-opacity:0.301961" d="M57.05 -4.7L58.7 -2.65L56.35 -4.7L53.7 -4.7" />
<path style="fill:none;stroke-width:0.7;stroke-linecap:round;stroke-linejoin:round;stroke-miterlimit:3;stroke:#000000;stroke-opacity:0.301961" d="M53.5 -9.2L53.1 -9.6Q51.6 -11.05 50.55 -12.75" />
<path style="fill:none;stroke-width:0.7;stroke-linecap:round;stroke-linejoin:round;stroke-miterlimit:3;stroke:#000000;stroke-opacity:0.301961" d="M55.9 -2.35L56.75 -1.65" />
<path style="fill:none;stroke-width:0.7;stroke-linecap:round;stroke-linejoin:round;stroke-miterlimit:3;stroke:#000000;stroke-opacity:0.301961" d="M60 -4.75Q56.05 -6.65 53.5 -9.2L57.05 -4.7" />
<path style="fill:none;stroke-width:0.7;stroke-linecap:round;stroke-linejoin:round;stroke-miterlimit:3;stroke:#000000;stroke-opacity:0.301961" d="M56.35 -4.7L50.1 -10.1" />
<path style="fill:none;stroke-width:0.7;stroke-linecap:round;stroke-linejoin:round;stroke-miterlimit:3;stroke:#000000;stroke-opacity:0.301961" d="M55.9 -2.35Q47.1 -1.75 40.2 -4.6" />
<path style="fill:none;stroke-width:0.7;stroke-linecap:round;stroke-linejoin:round;stroke-miterlimit:3;stroke:#000000;stroke-opacity:0.301961" d="M-49.45 -28.7L-43.15 -36.95" />
<path style="fill:none;stroke-width:0.7;stroke-linecap:round;stroke-linejoin:round;stroke-miterlimit:3;stroke:#000000;stroke-opacity:0.301961" d="M-48.9 -36.1Q-52.65 -28.8 -55.75 -25.05Q-53.2 -25.65 -49.45 -28.7L-51 -26.75" />
<path style="fill:none;stroke-width:0.7;stroke-linecap:round;stroke-linejoin:round;stroke-miterlimit:3;stroke:#000000;stroke-opacity:0.301961" d="M-67.4 -4.4L-71.5 -4.2" />
<path style="fill:none;stroke-width:0.7;stroke-linecap:round;stroke-linejoin:round;stroke-miterlimit:3;stroke:#000000;stroke-opacity:0.301961" d="M-44.9 -4.4Q-48.3 -3.1 -52.65 -2.35" />
<path style="fill:none;stroke-width:0.7;stroke-linecap:round;stroke-linejoin:round;stroke-miterlimit:3;stroke:#000000;stroke-opacity:0.301961" d="M-51.25 -4.05L-67.4 -4.4Q-57.6 -5.2 -47.9 -8.25" />
<path style="fill:none;stroke-width:0.7;stroke-linecap:round;stroke-linejoin:round;stroke-miterlimit:3;stroke:#000000;stroke-opacity:0.301961" d="M-24.95 -1.25Q-26.3 -3.3 -29.4 -4.85L-42.15 -1.75L-40.4 -4.9" />
<path style="fill:none;stroke-width:0.7;stroke-linecap:round;stroke-linejoin:round;stroke-miterlimit:3;stroke:#000000;stroke-opacity:0.301961" d="M-44.9 -4.4Q-41.3 -5.9 -38.7 -8.05L-37 -9.8" />
<path style="fill:none;stroke-width:0.7;stroke-linecap:round;stroke-linejoin:round;stroke-miterlimit:3;stroke:#000000;stroke-opacity:0.301961" d="M-40.4 -4.9L-38.7 -8.05" />
<path style="fill:none;stroke-width:0.7;stroke-linecap:round;stroke-linejoin:round;stroke-miterlimit:3;stroke:#000000;stroke-opacity:0.301961" d="M-15.05 -4.3L-11.2 -4.3" />
<path style="fill:none;stroke-width:0.7;stroke-linecap:round;stroke-linejoin:round;stroke-miterlimit:3;stroke:#000000;stroke-opacity:0.301961" d="M-12.95 -6.05L-15.05 -4.3Q-18.7 -1.7 -24.55 -0.35" />
<path style="fill:none;stroke-width:0.7;stroke-linecap:round;stroke-linejoin:round;stroke-miterlimit:3;stroke:#000000;stroke-opacity:0.301961" d="M-6.95 -4.3L-8.5 -4.3" />
<path style="fill:none;stroke-width:0.7;stroke-linecap:round;stroke-linejoin:round;stroke-miterlimit:3;stroke:#000000;stroke-opacity:0.301961" d="M-1.85 -1Q-4.8 -2.4 -6.95 -4.3Q-8.85 -5.9 -10.25 -7.7" />
</g>
<g id="PathID_629" transform="matrix(1, 0, 0, 1, 71.65, 180.75)">
<path style="fill:#326209;fill-opacity:1" d="M40.4 -54.15L32.85 -59.4Q31.85 -55.6 30.85 -53.95Q24.95 -55.55 22.05 -58.2L24.3 -52.4Q15.25 -52.85 8.45 -60.35Q7.75 -54.55 4.25 -51.5Q-1.65 -53.6 -2.7 -60.6Q-5.55 -55.95 -9.95 -51.9Q-9.6 -55.75 -10.95 -59.35Q-18.05 -54.6 -26.1 -53.85L-23.8 -57.35Q-29.95 -53.2 -37.65 -51.75Q-39.75 -55.35 -39.3 -59.3L-38.3 -61.05Q-42.8 -58.05 -47.9 -57.9L-37.25 -63Q-37.5 -58.7 -36.05 -54.75Q-29.35 -56.2 -24.35 -58.3L-20.55 -60.05L-22.65 -56.35Q-15.7 -58.45 -9.75 -62.2L-8.3 -55.4Q-4.9 -59.2 -2.6 -64.3Q-1.1 -57.1 3.95 -53.85Q7.2 -57.15 7.05 -65.8Q12.8 -56.25 22.25 -54L19.75 -61.55Q23.45 -58.05 28.95 -56L26.3 -63.9Q29.5 -60.1 30.65 -55.95L32.15 -61.15L39.05 -56.25L40.4 -54.15M-47.9 -57.9Q-45 -60.2 -38.45 -72.25L-34.9 -72.5L-31.85 -73.4L-42.3 -62.35Q-38.4 -64.6 -35.1 -67.15L-37.25 -63L-38.3 -61.05M47.6 -61.25Q41.95 -61.8 38.9 -63.3L44.5 -56.6Q39.25 -57.9 36.5 -60.55L30.7 -73.95L33.8 -73.95Q40.4 -64.45 47.6 -61.25M37.4 -64.15L38.9 -63.3L37.4 -64.15" />
<path style="fill:#2B5607;fill-opacity:1" d="M-35.1 -67.15Q-38.4 -64.6 -42.3 -62.35L-31.85 -73.4L22.1 -77.75L30.7 -73.95L36.5 -60.55L39.05 -56.25L32.15 -61.15L30.65 -55.95Q29.5 -60.1 26.3 -63.9L28.95 -56Q23.45 -58.05 19.75 -61.55L22.25 -54Q12.8 -56.25 7.05 -65.8Q7.2 -57.15 3.95 -53.85Q-1.1 -57.1 -2.6 -64.3Q-4.9 -59.2 -8.3 -55.4L-9.75 -62.2Q-15.7 -58.45 -22.65 -56.35L-20.55 -60.05L-24.35 -58.3Q-29.35 -56.2 -36.05 -54.75Q-37.5 -58.7 -37.25 -63L-35.1 -67.15" />
<linearGradient
id="LinearGradID_250" gradientUnits="userSpaceOnUse" gradientTransform="matrix(-0.00227356, 0.0258179, -0.0198517, -0.0017395, 2.4, -47.8)" spreadMethod ="pad" x1="-819.2" y1="0" x2="819.2" y2="0" >
<stop  offset="0" style="stop-color:#32690E;stop-opacity:1" />
<stop  offset="1" style="stop-color:#4D9F34;stop-opacity:1" />
</linearGradient>
<path style="fill:url(#LinearGradID_250) " d="M-39.3 -59.3Q-39.75 -55.35 -37.65 -51.75Q-29.95 -53.2 -23.8 -57.35L-26.1 -53.85Q-18.05 -54.6 -10.95 -59.35Q-9.6 -55.75 -9.95 -51.9Q-5.55 -55.95 -2.7 -60.6Q-1.65 -53.6 4.25 -51.5Q7.75 -54.55 8.45 -60.35Q15.25 -52.85 24.3 -52.4L22.05 -58.2Q24.95 -55.55 30.85 -53.95Q31.85 -55.6 32.85 -59.4L40.4 -54.15Q48.3 -42.4 63.85 -34.05L52.8 -34.75Q49.45 -36.7 46.35 -38.85Q41.05 -42.55 36.6 -46.9L52.05 -32.95Q49.95 -33.95 48.05 -35Q44 -37.3 40.55 -39.95L37.1 -42.9L43 -31.55Q38.95 -37 33.1 -40.95Q32.85 -33.55 28.25 -28.2Q23.3 -32.8 19.65 -38.4L17.3 -42.4Q18.25 -32.65 15.4 -27.95Q14.85 -32.55 12.75 -36.65L10.25 -40.75L5.95 -28.05Q8.85 -33.15 8.6 -38.8L8.25 -42.05L5.45 -32.3Q5.15 -36.4 2.05 -40.2L1.3 -43.15Q3.05 -35.05 2.8 -30.25Q1.1 -36.3 -3 -39.85L-1.9 -42.8Q-4.95 -34.15 -3.65 -29.85Q-9.05 -33.95 -10.75 -38.55L-9.1 -40.6Q-14.35 -34.2 -19.75 -30.4L-16.7 -37.45L-12.3 -40.85Q-23.7 -32.65 -32.75 -29.6Q-30.65 -34.3 -29.85 -40L-28.4 -41.5Q-35.55 -34.55 -42.3 -30.8L-34.2 -44L-31.8 -46.25Q-38.4 -40.1 -43.15 -36.95Q-46.5 -34.7 -50.15 -32.8L-46.45 -37.75L-45 -38.85L-48.9 -36.1Q-53.05 -33.65 -61.3 -33.15Q-47.65 -43.05 -39.3 -59.3M28.8 -43.55L33.1 -40.95L28.8 -43.55M17.3 -42.4L19.65 -38.4M1.3 -43.15L2.05 -40.2M8.25 -42.05L8.6 -38.8M10.25 -40.75L12.75 -36.65M36.6 -46.9Q41.05 -42.55 46.35 -38.85M37.1 -42.9L40.55 -39.95M-45 -38.85L-46.45 -37.75M-1.9 -42.8L-3 -39.85M-12.3 -40.85L-16.7 -37.45M-9.1 -40.6L-10.75 -38.55M-31.8 -46.25L-34.2 -44M-28.4 -41.5L-29.85 -40" />
<path style="fill:none;stroke-width:0.7;stroke-linecap:round;stroke-linejoin:round;stroke-miterlimit:3;stroke:#000000;stroke-opacity:0.301961" d="M-37.25 -63L-38.3 -61.05L-39.3 -59.3" />
<path style="fill:none;stroke-width:0.7;stroke-linecap:round;stroke-linejoin:round;stroke-miterlimit:3;stroke:#000000;stroke-opacity:0.301961" d="M40.4 -54.15L39.05 -56.25L36.5 -60.55L30.7 -73.95" />
<path style="fill:none;stroke-width:0.7;stroke-linecap:round;stroke-linejoin:round;stroke-miterlimit:3;stroke:#000000;stroke-opacity:0.301961" d="M-35.1 -67.15L-37.25 -63" />
<path style="fill:none;stroke-width:0.7;stroke-linecap:round;stroke-linejoin:round;stroke-miterlimit:3;stroke:#000000;stroke-opacity:0.301961" d="M38.9 -63.3L37.4 -64.15" />
<path style="fill:none;stroke-width:0.7;stroke-linecap:round;stroke-linejoin:round;stroke-miterlimit:3;stroke:#000000;stroke-opacity:0.301961" d="M33.1 -40.95L28.8 -43.55" />
<path style="fill:none;stroke-width:0.7;stroke-linecap:round;stroke-linejoin:round;stroke-miterlimit:3;stroke:#000000;stroke-opacity:0.301961" d="M40.4 -54.15Q48.3 -42.4 63.85 -34.05L52.8 -34.75Q49.45 -36.7 46.35 -38.85L52.05 -32.95Q49.95 -33.95 48.05 -35Q44 -37.3 40.55 -39.95L43 -31.55Q38.95 -37 33.1 -40.95Q32.85 -33.55 28.25 -28.2Q23.3 -32.8 19.65 -38.4Q18.25 -32.65 15.4 -27.95Q14.85 -32.55 12.75 -36.65L5.95 -28.05Q8.85 -33.15 8.6 -38.8L5.45 -32.3Q5.15 -36.4 2.05 -40.2Q3.05 -35.05 2.8 -30.25Q1.1 -36.3 -3 -39.85Q-4.95 -34.15 -3.65 -29.85Q-9.05 -33.95 -10.75 -38.55Q-14.35 -34.2 -19.75 -30.4L-16.7 -37.45Q-23.7 -32.65 -32.75 -29.6Q-30.65 -34.3 -29.85 -40Q-35.55 -34.55 -42.3 -30.8L-34.2 -44Q-38.4 -40.1 -43.15 -36.95Q-46.5 -34.7 -50.15 -32.8L-46.45 -37.75L-48.9 -36.1Q-53.05 -33.65 -61.3 -33.15Q-47.65 -43.05 -39.3 -59.3" />
<path style="fill:none;stroke-width:0.7;stroke-linecap:round;stroke-linejoin:round;stroke-miterlimit:3;stroke:#000000;stroke-opacity:0.301961" d="M19.65 -38.4L17.3 -42.4" />
<path style="fill:none;stroke-width:0.7;stroke-linecap:round;stroke-linejoin:round;stroke-miterlimit:3;stroke:#000000;stroke-opacity:0.301961" d="M2.05 -40.2L1.3 -43.15" />
<path style="fill:none;stroke-width:0.7;stroke-linecap:round;stroke-linejoin:round;stroke-miterlimit:3;stroke:#000000;stroke-opacity:0.301961" d="M8.6 -38.8L8.25 -42.05" />
<path style="fill:none;stroke-width:0.7;stroke-linecap:round;stroke-linejoin:round;stroke-miterlimit:3;stroke:#000000;stroke-opacity:0.301961" d="M12.75 -36.65L10.25 -40.75" />
<path style="fill:none;stroke-width:0.7;stroke-linecap:round;stroke-linejoin:round;stroke-miterlimit:3;stroke:#000000;stroke-opacity:0.301961" d="M36.5 -60.55Q39.25 -57.9 44.5 -56.6L38.9 -63.3Q41.95 -61.8 47.6 -61.25Q40.4 -64.45 33.8 -73.95" />
<path style="fill:none;stroke-width:0.7;stroke-linecap:round;stroke-linejoin:round;stroke-miterlimit:3;stroke:#000000;stroke-opacity:0.301961" d="M36.6 -46.9Q41.05 -42.55 46.35 -38.85" />
<path style="fill:none;stroke-width:0.7;stroke-linecap:round;stroke-linejoin:round;stroke-miterlimit:3;stroke:#000000;stroke-opacity:0.301961" d="M40.55 -39.95L37.1 -42.9" />
<path style="fill:none;stroke-width:0.7;stroke-linecap:round;stroke-linejoin:round;stroke-miterlimit:3;stroke:#000000;stroke-opacity:0.301961" d="M-38.45 -72.25Q-45 -60.2 -47.9 -57.9Q-42.8 -58.05 -38.3 -61.05" />
<path style="fill:none;stroke-width:0.7;stroke-linecap:round;stroke-linejoin:round;stroke-miterlimit:3;stroke:#000000;stroke-opacity:0.301961" d="M-46.45 -37.75L-45 -38.85" />
<path style="fill:none;stroke-width:0.7;stroke-linecap:round;stroke-linejoin:round;stroke-miterlimit:3;stroke:#000000;stroke-opacity:0.301961" d="M-3 -39.85L-1.9 -42.8" />
<path style="fill:none;stroke-width:0.7;stroke-linecap:round;stroke-linejoin:round;stroke-miterlimit:3;stroke:#000000;stroke-opacity:0.301961" d="M-16.7 -37.45L-12.3 -40.85" />
<path style="fill:none;stroke-width:0.7;stroke-linecap:round;stroke-linejoin:round;stroke-miterlimit:3;stroke:#000000;stroke-opacity:0.301961" d="M-10.75 -38.55L-9.1 -40.6" />
<path style="fill:none;stroke-width:0.7;stroke-linecap:round;stroke-linejoin:round;stroke-miterlimit:3;stroke:#000000;stroke-opacity:0.301961" d="M-34.2 -44L-31.8 -46.25" />
<path style="fill:none;stroke-width:0.7;stroke-linecap:round;stroke-linejoin:round;stroke-miterlimit:3;stroke:#000000;stroke-opacity:0.301961" d="M-29.85 -40L-28.4 -41.5" />
</g>
<g id="PathID_630" transform="matrix(1, 0, 0, 1, 71.65, 180.75)">
<path style="fill:#326209;fill-opacity:1" d="M22.35 -109.95Q25.8 -100.75 31.75 -96.2Q23.8 -99.2 20.85 -102.75Q19.75 -105.5 18.8 -108.35L18.6 -108.85L17 -114.1Q19.65 -112.5 22.35 -109.95M-26.4 -108.8Q-27.45 -105.7 -27.85 -102.45L-29.15 -99.6Q-33.1 -97.4 -39.4 -96.05Q-30.45 -102.1 -26.4 -108.8M20.35 -95.95Q18.9 -98.45 15.35 -100.95Q15.05 -98.1 12.55 -95.85L10.4 -101.1Q9 -94.35 3.65 -92.55L3.7 -95.95L2.35 -94L-0.7 -99.35Q-0.9 -95.8 -2.75 -92.9L-5.65 -99.65L-7.75 -90.95Q-13.75 -95.55 -16.15 -100.95Q-22.5 -96.8 -26.7 -95.35L-25.5 -98.2L-32.05 -92.95L-30.65 -96Q-26.25 -98.75 -22.65 -102.65L-24.2 -98.8Q-18.45 -101.3 -14.45 -105.15L-13.2 -102.4Q-11.1 -98.25 -7.8 -95.35L-5.35 -104.35L-3.15 -96.35Q-1.15 -99.6 -1.2 -103.4L3.1 -96.95Q4.4 -99.8 4.55 -102.95Q5.5 -98.6 4.45 -94Q9.15 -96.7 9.9 -104.85Q12 -101.9 13.05 -99Q14.85 -101.25 14.5 -103.8L20 -98.2L21.65 -100.9L22.4 -99.15L20.35 -95.95M28.35 -78.7Q31.65 -75.65 35.05 -73.45Q37.05 -69.7 38 -66.2L38.6 -63.45Q34.95 -72.3 28.35 -78.7M30 -70.6L31.25 -61.55Q30 -66.15 24.35 -71.45L23.8 -71.95Q23.55 -73.2 23.45 -74.55L28.95 -68.85L26.25 -74.75Q28 -72.6 30 -70.6M17.65 -68.05Q19.3 -62.4 21.45 -57.7Q16.65 -63 14.3 -68.85Q13.4 -71.05 12.85 -73.35L16.65 -69.15L17.65 -68.05M5.5 -73.6L6.35 -72L6.6 -68.55L6.25 -64.1L5.5 -73.6M-0.2 -73.85Q-0.2 -70.9 0.35 -68.05Q1.4 -62.8 4.3 -58.2Q0.45 -62.65 -1.2 -67.95L-1.75 -70.15L-0.2 -73.85M-18.3 -61.55L-14.9 -67.65Q-23 -61.95 -32 -59.65Q-26.7 -61.75 -20.2 -65.55Q-13.75 -69.3 -8.55 -73.65Q-9.35 -71.85 -12.4 -68.25L-18.3 -61.55M-29.65 -73.5L-32.45 -65.7L-32.05 -69.65L-31.75 -71.45L-29.65 -73.5M-36.6 -70.65Q-39.3 -68.5 -41.5 -67.15Q-45.75 -64.55 -54.85 -65.9Q-41.9 -68.45 -37.3 -72.4Q-35.1 -74.3 -33.15 -76.35L-31.15 -78.8L-32.8 -73.9L-35.75 -71.3L-36.6 -70.65M-11.05 -70.65L-14.45 -67.95L-14.9 -67.65L-14.45 -67.95L-11.05 -70.65" />
<path style="fill:#2B5607;fill-opacity:1" d="M21.65 -100.9L20 -98.2L14.5 -103.8Q14.85 -101.25 13.05 -99Q12 -101.9 9.9 -104.85Q9.15 -96.7 4.45 -94Q5.5 -98.6 4.55 -102.95Q4.4 -99.8 3.1 -96.95L-1.2 -103.4Q-1.15 -99.6 -3.15 -96.35L-5.35 -104.35L-7.8 -95.35Q-11.1 -98.25 -13.2 -102.4L-14.45 -105.15Q-18.45 -101.3 -24.2 -98.8L-22.65 -102.65Q-26.25 -98.75 -30.65 -96L-29.15 -99.6L-27.85 -102.45Q-27.45 -105.7 -26.4 -108.8L-18.5 -115.35L17 -114.1L18.6 -108.85L18.8 -108.35Q19.75 -105.5 20.85 -102.75L21.65 -100.9" />
<linearGradient
id="LinearGradID_251" gradientUnits="userSpaceOnUse" gradientTransform="matrix(-0.00485229, 0.0289612, -0.0252991, -0.00424194, -2.2, -88.7)" spreadMethod ="pad" x1="-819.2" y1="0" x2="819.2" y2="0" >
<stop  offset="0" style="stop-color:#32690E;stop-opacity:1" />
<stop  offset="1" style="stop-color:#4D9F34;stop-opacity:1" />
</linearGradient>
<path style="fill:url(#LinearGradID_251) " d="M0.35 -68.05Q-0.2 -70.9 -0.2 -73.85L-1.75 -70.15L-2.9 -67.85Q-5 -63.85 -7.65 -60.3L-7.55 -63.45Q-7.1 -67.65 -4.85 -71.4L-7.45 -68.55L-8.4 -67.6Q-13.15 -63.1 -18.3 -61.55L-12.4 -68.25Q-9.35 -71.85 -8.55 -73.65Q-13.75 -69.3 -20.2 -65.55Q-26.7 -61.75 -32 -59.65Q-32.55 -62.65 -32.45 -65.7L-29.65 -73.5L-31.75 -71.45L-33.25 -70.2L-34.5 -69.2Q-37.8 -66.65 -41.7 -64.4L-36.6 -70.65L-35.75 -71.3L-32.8 -73.9L-31.15 -78.8L-33.15 -76.35Q-35.1 -74.3 -37.3 -72.4Q-41.9 -68.45 -54.85 -65.9Q-41.75 -76.2 -32.05 -92.95L-25.5 -98.2L-26.7 -95.35Q-22.5 -96.8 -16.15 -100.95Q-13.75 -95.55 -7.75 -90.95L-5.65 -99.65L-2.75 -92.9Q-0.9 -95.8 -0.7 -99.35L2.35 -94L3.7 -95.95L3.65 -92.55Q9 -94.35 10.4 -101.1L12.55 -95.85Q15.05 -98.1 15.35 -100.95Q18.9 -98.45 20.35 -95.95L22.4 -99.15Q30.25 -82.2 48.05 -69.25Q40.55 -70.8 37.35 -72.2Q36.15 -72.75 35.05 -73.45Q31.65 -75.65 28.35 -78.7Q34.95 -72.3 38.6 -63.45Q36.9 -64.6 35.35 -65.85Q32.45 -68.05 30 -70.6Q28 -72.6 26.25 -74.75L25.25 -76L26.25 -74.75L28.95 -68.85L23.45 -74.55Q23.55 -73.2 23.8 -71.95L23.9 -71.3Q25.05 -65.05 28.1 -59.75Q22.4 -63.55 17.65 -68.05L16.65 -69.15L12.85 -73.35Q13.4 -71.05 14.3 -68.85Q16.65 -63 21.45 -57.7Q13.1 -62.85 8.65 -68.65Q7.35 -70.3 6.35 -72L5.5 -73.6L6.25 -64.1Q5.65 -60.9 4.3 -58.2Q1.4 -62.8 0.35 -68.05" />
<path style="fill:none;stroke-width:0.7;stroke-linecap:round;stroke-linejoin:round;stroke-miterlimit:3;stroke:#000000;stroke-opacity:0.301961" d="M20.85 -102.75Q19.75 -105.5 18.8 -108.35L18.6 -108.85" />
<path style="fill:none;stroke-width:0.7;stroke-linecap:round;stroke-linejoin:round;stroke-miterlimit:3;stroke:#000000;stroke-opacity:0.301961" d="M-27.85 -102.45L-29.15 -99.6L-30.65 -96" />
<path style="fill:none;stroke-width:0.7;stroke-linecap:round;stroke-linejoin:round;stroke-miterlimit:3;stroke:#000000;stroke-opacity:0.301961" d="M21.65 -100.9L20.85 -102.75Q23.8 -99.2 31.75 -96.2Q25.8 -100.75 22.35 -109.95" />
<path style="fill:none;stroke-width:0.7;stroke-linecap:round;stroke-linejoin:round;stroke-miterlimit:3;stroke:#000000;stroke-opacity:0.301961" d="M22.4 -99.15L21.65 -100.9" />
<path style="fill:none;stroke-width:0.7;stroke-linecap:round;stroke-linejoin:round;stroke-miterlimit:3;stroke:#000000;stroke-opacity:0.301961" d="M26.25 -74.75L25.25 -76" />
<path style="fill:none;stroke-width:0.7;stroke-linecap:round;stroke-linejoin:round;stroke-miterlimit:3;stroke:#000000;stroke-opacity:0.301961" d="M22.4 -99.15Q30.25 -82.2 48.05 -69.25Q40.55 -70.8 37.35 -72.2Q36.15 -72.75 35.05 -73.45Q37.05 -69.7 38 -66.2L38.6 -63.45Q36.9 -64.6 35.35 -65.85Q32.45 -68.05 30 -70.6L31.25 -61.55Q30 -66.15 24.35 -71.45L23.8 -71.95L23.9 -71.3Q25.05 -65.05 28.1 -59.75Q22.4 -63.55 17.65 -68.05Q19.3 -62.4 21.45 -57.7Q13.1 -62.85 8.65 -68.65Q7.35 -70.3 6.35 -72L6.6 -68.55L6.25 -64.1Q5.65 -60.9 4.3 -58.2Q0.45 -62.65 -1.2 -67.95L-1.75 -70.15L-2.9 -67.85Q-5 -63.85 -7.65 -60.3L-7.55 -63.45" />
<path style="fill:none;stroke-width:0.7;stroke-linecap:round;stroke-linejoin:round;stroke-miterlimit:3;stroke:#000000;stroke-opacity:0.301961" d="M-4.85 -71.4L-7.45 -68.55L-8.4 -67.6Q-13.15 -63.1 -18.3 -61.55L-14.9 -67.65Q-23 -61.95 -32 -59.65Q-32.55 -62.65 -32.45 -65.7L-32.05 -69.65L-31.75 -71.45L-33.25 -70.2L-34.5 -69.2Q-37.8 -66.65 -41.7 -64.4L-36.6 -70.65Q-39.3 -68.5 -41.5 -67.15Q-45.75 -64.55 -54.85 -65.9Q-41.75 -76.2 -32.05 -92.95L-30.65 -96" />
<path style="fill:none;stroke-width:0.7;stroke-linecap:round;stroke-linejoin:round;stroke-miterlimit:3;stroke:#000000;stroke-opacity:0.301961" d="M12.85 -73.35L16.65 -69.15L17.65 -68.05" />
<path style="fill:none;stroke-width:0.7;stroke-linecap:round;stroke-linejoin:round;stroke-miterlimit:3;stroke:#000000;stroke-opacity:0.301961" d="M5.5 -73.6L6.35 -72" />
<path style="fill:none;stroke-width:0.7;stroke-linecap:round;stroke-linejoin:round;stroke-miterlimit:3;stroke:#000000;stroke-opacity:0.301961" d="M23.8 -71.95Q23.55 -73.2 23.45 -74.55" />
<path style="fill:none;stroke-width:0.7;stroke-linecap:round;stroke-linejoin:round;stroke-miterlimit:3;stroke:#000000;stroke-opacity:0.301961" d="M26.25 -74.75Q28 -72.6 30 -70.6" />
<path style="fill:none;stroke-width:0.7;stroke-linecap:round;stroke-linejoin:round;stroke-miterlimit:3;stroke:#000000;stroke-opacity:0.301961" d="M35.05 -73.45Q31.65 -75.65 28.35 -78.7" />
<path style="fill:none;stroke-width:0.7;stroke-linecap:round;stroke-linejoin:round;stroke-miterlimit:3;stroke:#000000;stroke-opacity:0.301961" d="M-32.8 -73.9L-35.75 -71.3L-36.6 -70.65" />
<path style="fill:none;stroke-width:0.7;stroke-linecap:round;stroke-linejoin:round;stroke-miterlimit:3;stroke:#000000;stroke-opacity:0.301961" d="M-31.75 -71.45L-29.65 -73.5" />
<path style="fill:none;stroke-width:0.7;stroke-linecap:round;stroke-linejoin:round;stroke-miterlimit:3;stroke:#000000;stroke-opacity:0.301961" d="M-1.75 -70.15L-0.2 -73.85" />
<path style="fill:none;stroke-width:0.7;stroke-linecap:round;stroke-linejoin:round;stroke-miterlimit:3;stroke:#000000;stroke-opacity:0.301961" d="M-14.9 -67.65L-14.45 -67.95L-11.05 -70.65" />
<path style="fill:none;stroke-width:0.7;stroke-linecap:round;stroke-linejoin:round;stroke-miterlimit:3;stroke:#000000;stroke-opacity:0.301961" d="M-29.15 -99.6Q-33.1 -97.4 -39.4 -96.05Q-30.45 -102.1 -26.4 -108.8" />
</g>
<g id="PathID_631" transform="matrix(1, 0, 0, 1, 71.65, 180.75)">
<linearGradient
id="LinearGradID_252" gradientUnits="userSpaceOnUse" gradientTransform="matrix(-0.0124512, 0.0462036, -0.0487823, -0.0135193, -3.55, -158.55)" spreadMethod ="pad" x1="-819.2" y1="0" x2="819.2" y2="0" >
<stop  offset="0" style="stop-color:#32690E;stop-opacity:1" />
<stop  offset="1" style="stop-color:#4D9F34;stop-opacity:1" />
</linearGradient>
<path style="fill:url(#LinearGradID_252) " d="M-5.15 -112.9L-5.6 -109.55L-5.65 -109.35L-6.55 -104.7Q-7.5 -100.5 -8.9 -96.4Q-12.65 -100.25 -13.3 -104.8L-13.5 -107.5Q-12.05 -113.2 -11.45 -119.65Q-14.65 -109.05 -17.75 -105.15Q-20 -102.35 -22.55 -99.7L-19.25 -108.55L-16 -117.05L-23.1 -106Q-26.05 -101.85 -29.6 -98L-29.15 -100.8Q-28.75 -104.2 -27.55 -107.4L-25.7 -111.75L-28.95 -108.25Q-32.8 -104.6 -39.9 -101.35L-28.8 -111.85Q-24.45 -117.05 -22.3 -123.65Q-25.5 -119.25 -32.65 -112.35Q-39.15 -106.2 -44.2 -103.9Q-12.2 -136.95 -2.25 -180.6Q8 -139.1 35.05 -104.85Q25.55 -106.95 22.25 -109.55Q26.75 -103.95 29.65 -102.3Q25.95 -103.55 24.8 -104.45Q21.55 -107.05 18.65 -109.9L15.7 -113Q17.25 -110.4 18.35 -107Q19.45 -103.3 19.9 -98.65Q16.25 -102.7 13.5 -107.15L12 -109.85L13.65 -100.2L9.35 -109.55L9.3 -107.25Q9.05 -100.9 7.05 -95.1L6.7 -99.95Q7 -103.95 6.25 -107.35Q5.35 -110.85 3.05 -116.1L3.5 -109.3L3.6 -107.2Q3.55 -102.55 2.95 -98.2Q0.7 -102.35 -0.7 -106.7Q-1.95 -110.45 -2.7 -114.2L-2.5 -109.5L-2.5 -108.85L-2.45 -106.4Q-2.6 -102.55 -3 -98.6L-4.3 -104.15L-5.15 -112.9M10.15 -113.65L12 -109.85L10.15 -113.65M8.15 -112.2L9.35 -109.55L8.15 -112.2M19.1 -112.85Q20.25 -111.2 22.25 -109.55Q20.25 -111.2 19.1 -112.85" />
<path style="fill:#326209;fill-opacity:1" d="M3.05 -116.1Q5.35 -110.85 6.25 -107.35Q7 -103.95 6.7 -99.95Q6.05 -103.55 4.45 -107.25L3.5 -109.3L3.05 -116.1M-2.5 -109.5L-2.7 -114.2Q-1.95 -110.45 -0.7 -106.7Q0.7 -102.35 2.95 -98.2Q-1.1 -103.85 -2.5 -108.85L-2.5 -109.5M-5.6 -109.55L-5.15 -112.9L-4.3 -104.15L-5.65 -109.35L-5.6 -109.55M-13.5 -107.5L-15.9 -104.95Q-19.3 -101.8 -22.55 -99.7Q-20 -102.35 -17.75 -105.15Q-14.65 -109.05 -11.45 -119.65Q-12.05 -113.2 -13.5 -107.5M-19.25 -108.55L-21.25 -105.55Q-24.85 -101.2 -29.6 -98Q-26.05 -101.85 -23.1 -106L-16 -117.05L-19.25 -108.55M-32.65 -112.35Q-25.5 -119.25 -22.3 -123.65Q-24.45 -117.05 -28.8 -111.85L-31.55 -109.95Q-37.35 -106.2 -44.2 -103.9Q-39.15 -106.2 -32.65 -112.35M18.65 -109.9L19.25 -107.35L19.35 -106.8Q20.1 -102.6 19.9 -98.65Q19.45 -103.3 18.35 -107Q17.25 -110.4 15.7 -113L18.65 -109.9" />
<path style="fill:none;stroke-width:0.7;stroke-linecap:round;stroke-linejoin:round;stroke-miterlimit:3;stroke:#000000;stroke-opacity:0.301961" d="M19.9 -98.65Q16.25 -102.7 13.5 -107.15L12 -109.85L13.65 -100.2L9.35 -109.55L9.3 -107.25Q9.05 -100.9 7.05 -95.1L6.7 -99.95Q6.05 -103.55 4.45 -107.25L3.5 -109.3L3.6 -107.2Q3.55 -102.55 2.95 -98.2Q-1.1 -103.85 -2.5 -108.85L-2.45 -106.4Q-2.6 -102.55 -3 -98.6L-4.3 -104.15L-5.65 -109.35L-6.55 -104.7Q-7.5 -100.5 -8.9 -96.4Q-12.65 -100.25 -13.3 -104.8L-13.5 -107.5L-15.9 -104.95Q-19.3 -101.8 -22.55 -99.7L-19.25 -108.55L-21.25 -105.55Q-24.85 -101.2 -29.6 -98L-29.15 -100.8Q-28.75 -104.2 -27.55 -107.4L-25.7 -111.75L-28.95 -108.25Q-32.8 -104.6 -39.9 -101.35L-28.8 -111.85L-31.55 -109.95Q-37.35 -106.2 -44.2 -103.9Q-12.2 -136.95 -2.25 -180.6Q8 -139.1 35.05 -104.85Q25.55 -106.95 22.25 -109.55Q26.75 -103.95 29.65 -102.3Q25.95 -103.55 24.8 -104.45Q21.55 -107.05 18.65 -109.9L19.25 -107.35L19.35 -106.8Q20.1 -102.6 19.9 -98.65z" />
<path style="fill:none;stroke-width:0.7;stroke-linecap:round;stroke-linejoin:round;stroke-miterlimit:3;stroke:#000000;stroke-opacity:0.301961" d="M15.7 -113L18.65 -109.9" />
<path style="fill:none;stroke-width:0.7;stroke-linecap:round;stroke-linejoin:round;stroke-miterlimit:3;stroke:#000000;stroke-opacity:0.301961" d="M12 -109.85L10.15 -113.65" />
<path style="fill:none;stroke-width:0.7;stroke-linecap:round;stroke-linejoin:round;stroke-miterlimit:3;stroke:#000000;stroke-opacity:0.301961" d="M3.5 -109.3L3.05 -116.1" />
<path style="fill:none;stroke-width:0.7;stroke-linecap:round;stroke-linejoin:round;stroke-miterlimit:3;stroke:#000000;stroke-opacity:0.301961" d="M9.35 -109.55L8.15 -112.2" />
<path style="fill:none;stroke-width:0.7;stroke-linecap:round;stroke-linejoin:round;stroke-miterlimit:3;stroke:#000000;stroke-opacity:0.301961" d="M22.25 -109.55Q20.25 -111.2 19.1 -112.85" />
<path style="fill:none;stroke-width:0.7;stroke-linecap:round;stroke-linejoin:round;stroke-miterlimit:3;stroke:#000000;stroke-opacity:0.301961" d="M-2.7 -114.2L-2.5 -109.5L-2.5 -108.85" />
<path style="fill:none;stroke-width:0.7;stroke-linecap:round;stroke-linejoin:round;stroke-miterlimit:3;stroke:#000000;stroke-opacity:0.301961" d="M-5.15 -112.9L-5.6 -109.55L-5.65 -109.35" />
</g>
<g id="PathID_632" transform="matrix(1, 0, 0, 1, 71.65, 180.75)">
<path style="fill:#FFFFFF;fill-opacity:1" d="M31.45 -111.9Q27.15 -111.9 23.45 -115.45Q19.75 -119 19 -119Q17.5 -119 15.95 -116.65Q14.35 -114.35 13.95 -114.35Q13.35 -114.35 12.15 -115.15Q10.9 -115.95 10.35 -115.95L9.15 -115.3Q8.2 -114.65 7.75 -114.65Q6.05 -114.65 5.55 -116.65Q5.05 -118.7 3.7 -118.7Q2.4 -118.7 1.85 -116.05Q1.25 -113.4 0.3 -113.4Q-0.6 -113.4 -1.85 -115.4Q-3.05 -117.45 -3.9 -117.45Q-4.85 -117.45 -6.35 -115.55Q-7.9 -113.7 -8.55 -113.7L-9.7 -113.85Q-10.25 -114.2 -9.95 -115.55L-11.25 -115.55L-13.05 -114L-15.6 -114L-15.3 -118.4Q-16.55 -118.8 -18.45 -117.1L-20.55 -115.25Q-23.05 -115.25 -23.35 -117.85L-23.7 -122.45L-25.5 -122.45L-32.75 -115.05Q-38.45 -109.35 -40.85 -108.55Q-40.45 -110 -38.4 -113.3Q-32.75 -122.7 -29.8 -125.25Q-26.85 -127.8 -21.2 -135.35Q-17.8 -141.95 -17.05 -134.6Q-16.7 -131.95 -16.35 -131.4Q-15.85 -131.5 -15.4 -132.4Q-15 -133.2 -14 -133.2Q-12.6 -133.2 -12 -130.7Q-11.4 -128.25 -10.85 -128.25Q-8.9 -128.25 -7.2 -130.25L-5.25 -132.75Q-4.15 -133.65 -2.4 -134L0.9 -134.7L2.4 -135.7L4.05 -136.95L6.85 -139.95Q9.35 -141.95 11.7 -140.4Q13.35 -139.3 15.8 -135.8L24.8 -123.55L32.55 -112.55Q31.8 -111.9 31.45 -111.9M-48.6 -73.65Q-48.15 -75.05 -46.65 -76.7L-42.25 -81.35Q-41.75 -81.9 -39.2 -86.05Q-36.55 -89.85 -35 -89.85Q-32.9 -89.85 -31.5 -86.85Q-30.1 -83.85 -27.75 -83.85L-11.2 -87.15Q-8.4 -87.15 -5.55 -85.5L-2.8 -83.6L5.8 -83.65Q11.15 -84.45 14.45 -85.75Q17.4 -86.95 19.1 -88.8L20.85 -90.35L23.05 -91.65Q25.5 -91.45 26.3 -90.4Q26.85 -89.15 27.4 -88.65L39.05 -80L42.3 -77.4L39.85 -77Q37.55 -77 33.7 -78.45L29.4 -79.9Q28.75 -79.9 28.6 -78.2L28.55 -75.9L27.45 -76.1L26.5 -76.35Q25.85 -76.35 25.25 -75.9Q24.65 -75.45 24.05 -75.45L23 -75.6L22 -76.35Q22.2 -75.7 21.4 -74.5Q20.55 -73.2 19.65 -73.2Q18.9 -73.2 16.6 -74.4Q14.35 -75.65 13.5 -75.65Q12.95 -75.65 12.25 -74.05Q11.6 -72.5 10.8 -72.5Q9.65 -72.5 8.65 -73.35Q7.45 -74.4 6.75 -74.55Q6.1 -72.5 4.7 -72.5Q3.3 -72.5 2.45 -74.4Q1.55 -76.35 1.1 -76.35Q0.25 -76.35 -2.05 -74.4Q-4.35 -72.5 -4.7 -72.5Q-6.35 -72.5 -7.2 -74.95Q-8.05 -77.45 -8.6 -77.45Q-12.15 -77.45 -16.35 -73.95Q-20.6 -70.5 -22.3 -70.5Q-24.55 -70.5 -25.5 -71.55Q-26.45 -72.65 -26.5 -75.2Q-27.15 -74.5 -27.65 -74.3L-28.85 -74.1L-30.3 -74.3L-30.3 -75.65Q-27.6 -80.35 -27.6 -81.35L-27.85 -82.4L-28.7 -82.4Q-35.8 -80.15 -38.4 -78.35Q-41.55 -75.95 -43 -75.1Q-45.4 -73.65 -47.7 -73.65L-48.6 -73.65M52.3 -41.95Q49.4 -42.25 45.55 -44.45Q41.65 -46.7 40.45 -46.7Q39.2 -46.7 38.4 -45Q37.55 -43.35 36.5 -43.35Q35.75 -43.35 33.5 -44.1Q31.2 -44.9 29.95 -44.9Q29.3 -44.9 27.75 -42.65Q26.25 -40.4 24.8 -40.4Q23.25 -40.4 21.25 -42.4Q19.25 -44.45 17.5 -44.45Q16.15 -44.45 16.05 -42.4Q15.95 -40.4 14.4 -40.4Q12.85 -40.4 11.25 -41.85L9.55 -43.35L8.1 -43Q7.25 -42.65 6.5 -42.65L4.35 -43.1L2.45 -43.55Q1.7 -43.55 0.55 -42.55L-0.65 -41.55Q-1 -41.55 -1.7 -42.2L-2.45 -42.9Q-2.9 -42.9 -3.8 -41.4Q-4.7 -39.95 -5.05 -39.95Q-6.05 -39.95 -6.2 -40.9L-6.3 -43.35L-7.2 -43.35L-8.6 -42.15Q-9.65 -41.3 -10.65 -41.3Q-11.5 -41.3 -11.9 -42.2L-12.35 -43.55L-13.7 -43.55L-17.15 -41.85Q-20.05 -40.4 -21.2 -40.4Q-23.95 -40.4 -25.25 -42.4Q-26.5 -44.45 -26.9 -44.45Q-28 -44.45 -28.95 -43.7L-30.75 -42L-32.1 -42L-32.1 -44Q-31.7 -44.5 -31.1 -45.75L-30.3 -47.15L-30.3 -48.5L-34.45 -45.85L-39.3 -42.9L-42.65 -42.9Q-42.5 -43.45 -42.75 -43.7L-43.1 -44Q-45.15 -42.65 -48.85 -40.85Q-53.6 -38.6 -55.55 -38.6L-56.75 -38.85L-52.8 -43.8L-48.65 -48.65L-44.8 -52.7Q-43.3 -54.3 -40.05 -52.35Q-36.85 -50.4 -31.75 -50.05Q-26.7 -49.75 -22.15 -51Q-17.6 -52.3 -16.05 -52.3Q-12.85 -52.3 -9.55 -50.4L-6.6 -48.3L3.75 -48.3L7.65 -49.15L12 -49.4L21.05 -49.5Q30.9 -48.5 33.45 -51.25Q36 -54 38.6 -54.3Q41.2 -54.65 48.05 -48.45L51.85 -44.9L52.25 -44.5Q55 -41.65 52.3 -41.95M66.25 -11.9L63.4 -11.7L57.7 -13.7Q51.95 -15.7 50.2 -15.7Q48.5 -15.7 47.5 -12.45Q46.5 -9.2 44.55 -9.2Q42.35 -9.2 38.3 -10.75Q34.25 -12.35 33.8 -12.35Q33 -12.35 31.2 -11.1Q29.4 -9.9 28.4 -9.9Q27.45 -9.9 26.35 -10.45L25.05 -11L23.7 -10.1L22.45 -9.2Q21.9 -9.2 21.1 -9.75L20 -10.55Q19.85 -9.95 18.3 -9Q16.85 -8.1 16.15 -8.1Q13.95 -8.1 11.9 -11.2Q9.9 -14.35 9.55 -14.35Q9.1 -14.35 4.1 -11.65Q-0.9 -9 -2.45 -9Q-5.85 -9 -13 -13.9L-16.6 -10.1Q-19.55 -7.2 -20.65 -7.2Q-22.45 -7.2 -23.5 -9.55Q-24.55 -11.9 -25.25 -11.9Q-26.15 -11.9 -27.25 -11.1Q-28.3 -10.35 -29.85 -10.35Q-31.5 -10.35 -32.15 -11.35L-33.25 -14.15L-37.7 -12.3L-41.1 -10.8Q-42.7 -10.8 -43.25 -14.35Q-43.8 -17.95 -44.9 -17.95Q-46.3 -17.95 -56.2 -13.55Q-66.1 -9.2 -68.15 -9.2L-68.6 -9.2Q-68.55 -10.65 -66.55 -13.15Q-64.85 -15.3 -63 -16.75L-57.95 -20.8Q-54.25 -23.9 -48.85 -23.7Q-43.45 -23.5 -39.05 -21.1Q-34.7 -18.75 -33 -16.8Q-33.8 -15.5 -29 -16.15Q-24.25 -16.8 -22.05 -17.9Q-19.85 -19 -16.95 -19.4L-10.15 -19.15Q-6.15 -18.55 -5.4 -18L0.8 -18L2.3 -18.35Q5.3 -19.9 6.75 -19.9Q7.35 -19.9 12.35 -17.45Q17.4 -15 20.65 -15Q33.75 -15 39.75 -19.6Q45.75 -24.2 49.05 -25.75Q52.35 -27.3 55.9 -24.3L65 -16.9Q67.65 -14.6 69.35 -12.5L66.25 -11.9" />
<path style="fill:#B1C3CD;fill-opacity:1" d="M32.55 -112.55L33.15 -111.55Q35 -108.4 30.3 -109.05Q25.55 -109.7 22.65 -113Q19.7 -116.3 18.85 -116.3L17.6 -116.1Q16.75 -115.7 16.75 -113.45Q16.75 -111.5 14.9 -111.5Q14.2 -111.5 13.35 -111.9L12.3 -112.35L12.05 -111.05Q11.7 -110.25 9.2 -113Q8.6 -105.7 5.9 -110.95Q3.35 -118.05 2.7 -115.65Q3.35 -101.9 0.85 -105.8Q-0.65 -108.15 -1.85 -113.2Q-2.8 -114.15 -2.55 -109.4Q-2.4 -104.7 -3.9 -106.1Q-4.4 -105.85 -4.5 -110.15Q-4.6 -114.5 -5.5 -113.8Q-6.4 -113.15 -6.55 -109.25Q-6.8 -105.4 -9.1 -105Q-11.45 -104.65 -11.2 -107.6Q-10.9 -110.6 -11.55 -111.95Q-12.15 -113.3 -12.6 -111.6Q-13.05 -109.95 -15.85 -107.35Q-18.65 -104.8 -18.5 -107.65Q-18.4 -110.55 -17.6 -113.25Q-16.8 -115.95 -18.15 -114.85Q-19.5 -113.75 -20.9 -110.75Q-22.35 -107.75 -24.3 -106.85Q-26.3 -105.95 -26.25 -107.5Q-26.2 -109.15 -25.35 -112.35L-24.2 -117.05Q-23.35 -120.9 -25.9 -119.15L-29.45 -116.5L-37.3 -109.8Q-41.65 -106.05 -40.85 -108.55Q-38.45 -109.35 -32.75 -115.05L-25.5 -122.45L-23.7 -122.45L-23.35 -117.85Q-23.05 -115.25 -20.55 -115.25L-18.45 -117.1Q-16.55 -118.8 -15.3 -118.4L-15.6 -114L-13.05 -114L-11.25 -115.55L-9.95 -115.55Q-10.25 -114.2 -9.7 -113.85L-8.55 -113.7Q-7.9 -113.7 -6.35 -115.55Q-4.85 -117.45 -3.9 -117.45Q-3.05 -117.45 -1.85 -115.4Q-0.6 -113.4 0.3 -113.4Q1.25 -113.4 1.85 -116.05Q2.4 -118.7 3.7 -118.7Q5.05 -118.7 5.55 -116.65Q6.05 -114.65 7.75 -114.65Q8.2 -114.65 9.15 -115.3L10.35 -115.95Q10.9 -115.95 12.15 -115.15Q13.35 -114.35 13.95 -114.35Q14.35 -114.35 15.95 -116.65Q17.5 -119 19 -119Q19.75 -119 23.45 -115.45Q27.15 -111.9 31.45 -111.9Q31.8 -111.9 32.55 -112.55M-47.7 -73.65Q-45.4 -73.65 -43 -75.1Q-41.55 -75.95 -38.4 -78.35Q-35.8 -80.15 -28.7 -82.4L-27.85 -82.4L-27.6 -81.35Q-27.6 -80.35 -30.3 -75.65L-30.3 -74.3L-28.85 -74.1L-27.65 -74.3Q-27.15 -74.5 -26.5 -75.2Q-26.45 -72.65 -25.5 -71.55Q-24.55 -70.5 -22.3 -70.5Q-20.6 -70.5 -16.35 -73.95Q-12.15 -77.45 -8.6 -77.45Q-8.05 -77.45 -7.2 -74.95Q-6.35 -72.5 -4.7 -72.5Q-4.35 -72.5 -2.05 -74.4Q0.25 -76.35 1.1 -76.35Q1.55 -76.35 2.45 -74.4Q3.3 -72.5 4.7 -72.5Q6.1 -72.5 6.75 -74.55Q7.45 -74.4 8.65 -73.35Q9.65 -72.5 10.8 -72.5Q11.6 -72.5 12.25 -74.05Q12.95 -75.65 13.5 -75.65Q14.35 -75.65 16.6 -74.4Q18.9 -73.2 19.65 -73.2Q20.55 -73.2 21.4 -74.5Q22.2 -75.7 22 -76.35L23 -75.6L24.05 -75.45Q24.65 -75.45 25.25 -75.9Q25.85 -76.35 26.5 -76.35L27.45 -76.1L28.55 -75.9L28.6 -78.2Q28.75 -79.9 29.4 -79.9L33.7 -78.45Q37.55 -77 39.85 -77L42.3 -77.4Q45.6 -74.45 45.75 -72.75Q45.95 -70.4 41.5 -72.4L37.3 -74.25L35.05 -75.55L30.6 -78.35L30.05 -77.85L30.9 -76.65L31.25 -75.65Q31.25 -74.25 29.75 -74.25L28.45 -74.35L27.15 -75.15L26.75 -73.75Q26.4 -72.65 25.3 -72.65Q24 -72.65 22.65 -74L22.5 -71.4Q22.1 -69.25 20.55 -69.25Q17.3 -69.25 15.7 -71.2Q13.55 -73.8 12.85 -74.1L12.7 -74.05L12.65 -73.65L13.3 -70.8L13.25 -69.75Q13 -69 12.1 -69Q9.85 -69 7.95 -71.05Q7 -72.1 6.3 -73.5L6.55 -71.55Q6.45 -70 4.5 -70Q1.85 -70 0.7 -72Q0 -73.2 0 -74.4L0 -74.55Q-0.65 -74.3 -1.8 -72.05Q-2.75 -70.15 -6.1 -70.15Q-9.35 -70.15 -10.05 -71.1Q-10.4 -71.6 -10.15 -72.15L-9.8 -73.6L-9.25 -74.9L-9.15 -75.1L-9.1 -75.15L-10.35 -74.8Q-11.6 -74.4 -18.6 -69.05Q-25.65 -63.7 -27 -65Q-28.35 -66.3 -28.35 -68.05L-28.25 -70.65L-28.2 -71.8L-27.35 -73.15L-27.35 -73.35Q-29.25 -72.4 -30.1 -72.4Q-31.95 -72.4 -32.35 -73.45L-32.35 -74.65Q-32.35 -76.05 -31.2 -77.55L-28.75 -80.9L-28.75 -81.25L-37.15 -75.3Q-44.4 -70.15 -45.95 -70.15Q-47.95 -70.15 -48.6 -71.2L-48.85 -72.4L-48.6 -73.65L-47.7 -73.65M52.25 -44.5Q55.6 -41.25 57 -39.35Q59.15 -36.5 54.6 -38.4L45.9 -42.1L41.6 -43.9Q40.45 -43.9 39.7 -42.45Q38.95 -41 36.75 -41Q34.7 -41 33.7 -41.8L33.5 -41.95L32.2 -42.3L30.05 -43Q30.5 -40.4 30.35 -39.15Q30.1 -36.9 25.3 -36.9Q22.4 -36.9 19.7 -39.15L16.55 -42.5L17.1 -39.65Q17.1 -37.35 15 -37.35Q12.85 -37.35 10.65 -39Q9.3 -40.1 8.25 -41.5L7.75 -39.95Q7.2 -38.9 5.75 -38.9Q3.65 -38.9 3 -40Q2.8 -40.4 2.65 -41.9L2.55 -42.15Q1.8 -41.7 1.85 -39.95Q1.9 -38.5 0.35 -38.5Q-0.65 -38.5 -1.45 -39.7L-2.25 -41.15Q-2.75 -40.9 -3.4 -38.75Q-3.95 -36.9 -5.3 -36.9Q-7.5 -36.9 -7.9 -38.75Q-8.15 -39.7 -8 -41.25L-8.1 -41.4L-9.2 -40.15Q-10 -39.35 -11.75 -39.35Q-13.9 -39.35 -14.15 -39.9L-14 -40.85L-14.15 -41.25Q-15.85 -39.65 -17.5 -38.6Q-20.6 -36.65 -24.5 -36.65Q-27.2 -36.65 -27.95 -37.65Q-28.25 -38 -28.25 -38.9Q-28.25 -39.8 -27.85 -40.8L-27.15 -43L-27.25 -43.1Q-28.45 -41.85 -29.75 -40.8Q-32.2 -38.75 -33.9 -38.75Q-35 -38.75 -35.25 -39.4L-35.3 -40.15Q-35.3 -41.3 -34.1 -43.35L-32.3 -46.3L-32.3 -46.5Q-33.7 -45.35 -37.45 -42.65Q-41.4 -39.8 -41.7 -39.8Q-42.85 -39.8 -43.25 -40.5L-43.5 -41.5L-47.25 -39Q-51.3 -36.65 -54.3 -36.65Q-56.5 -36.65 -57 -37.55Q-57.25 -38 -57.05 -38.5L-56.75 -38.85L-55.55 -38.6Q-53.6 -38.6 -48.85 -40.85Q-45.15 -42.65 -43.1 -44L-42.75 -43.7Q-42.5 -43.45 -42.65 -42.9L-39.3 -42.9L-34.45 -45.85L-30.3 -48.5L-30.3 -47.15L-31.1 -45.75Q-31.7 -44.5 -32.1 -44L-32.1 -42L-30.75 -42L-28.95 -43.7Q-28 -44.45 -26.9 -44.45Q-26.5 -44.45 -25.25 -42.4Q-23.95 -40.4 -21.2 -40.4Q-20.05 -40.4 -17.15 -41.85L-13.7 -43.55L-12.35 -43.55L-11.9 -42.2Q-11.5 -41.3 -10.65 -41.3Q-9.65 -41.3 -8.6 -42.15L-7.2 -43.35L-6.3 -43.35L-6.2 -40.9Q-6.05 -39.95 -5.05 -39.95Q-4.7 -39.95 -3.8 -41.4Q-2.9 -42.9 -2.45 -42.9L-1.7 -42.2Q-1 -41.55 -0.65 -41.55L0.55 -42.55Q1.7 -43.55 2.45 -43.55L4.35 -43.1L6.5 -42.65Q7.25 -42.65 8.1 -43L9.55 -43.35L11.25 -41.85Q12.85 -40.4 14.4 -40.4Q15.95 -40.4 16.05 -42.4Q16.15 -44.45 17.5 -44.45Q19.25 -44.45 21.25 -42.4Q23.25 -40.4 24.8 -40.4Q26.25 -40.4 27.75 -42.65Q29.3 -44.9 29.95 -44.9Q31.2 -44.9 33.5 -44.1Q35.75 -43.35 36.5 -43.35Q37.55 -43.35 38.4 -45Q39.2 -46.7 40.45 -46.7Q41.65 -46.7 45.55 -44.45Q49.4 -42.25 52.3 -41.95Q55 -41.65 52.25 -44.5M69.35 -12.5L69.65 -12.1Q71.4 -9.85 70.35 -9.35Q69.3 -8.85 66.55 -8.85Q63.8 -8.85 58.2 -10.75L52.75 -12.65L50.5 -12.6L50.5 -8.95Q49.7 -6.1 45.55 -6.1Q41.8 -6.1 38.6 -8.15L35.6 -10.55Q32.15 -10.6 32.25 -8.95Q32.35 -7.25 30.3 -7.25Q28.1 -7.25 26.35 -8.5Q25 -9.75 24.65 -9.75Q24 -9.75 23.4 -8.35Q22.8 -7 21 -7Q19.75 -7 19.25 -7.5L18.65 -8.25L18.3 -7.8L18.05 -7.6Q17.05 -6.75 15 -6.75Q11.25 -6.75 9.9 -8.6L9 -11.15Q6.85 -11.5 4.1 -8.9Q1.15 -6.1 -2.25 -6.1Q-4.35 -6.1 -8.25 -8.55Q-12.15 -11 -13.9 -11L-15.5 -8.05Q-17.15 -5.15 -20.6 -5.15Q-23.8 -5.15 -24.9 -7.2Q-26 -9.25 -26.75 -9.25L-28.45 -8.8L-30.55 -8.4Q-33.4 -8.4 -34.2 -10.1Q-34.55 -10.95 -34.4 -11.85L-34.5 -12L-37.85 -9.95Q-41 -8.1 -42.25 -8.1Q-44.3 -8.1 -44.75 -9L-44.65 -10.5Q-44.5 -11.9 -43.6 -14.55Q-42.7 -17.2 -48 -15L-59.8 -10.4Q-66.35 -8 -67.1 -7.9Q-67.9 -7.85 -68.25 -8.15Q-68.65 -8.5 -68.6 -9.1L-68.6 -9.2L-68.15 -9.2Q-66.1 -9.2 -56.2 -13.55Q-46.3 -17.95 -44.9 -17.95Q-43.8 -17.95 -43.25 -14.35Q-42.7 -10.8 -41.1 -10.8L-37.7 -12.3L-33.25 -14.15L-32.15 -11.35Q-31.5 -10.35 -29.85 -10.35Q-28.3 -10.35 -27.25 -11.1Q-26.15 -11.9 -25.25 -11.9Q-24.55 -11.9 -23.5 -9.55Q-22.45 -7.2 -20.65 -7.2Q-19.55 -7.2 -16.6 -10.1L-13 -13.9Q-5.85 -9 -2.45 -9Q-0.9 -9 4.1 -11.65Q9.1 -14.35 9.55 -14.35Q9.9 -14.35 11.9 -11.2Q13.95 -8.1 16.15 -8.1Q16.85 -8.1 18.3 -9Q19.85 -9.95 20 -10.55L21.1 -9.75Q21.9 -9.2 22.45 -9.2L23.7 -10.1L25.05 -11L26.35 -10.45Q27.45 -9.9 28.4 -9.9Q29.4 -9.9 31.2 -11.1Q33 -12.35 33.8 -12.35Q34.25 -12.35 38.3 -10.75Q42.35 -9.2 44.55 -9.2Q46.5 -9.2 47.5 -12.45Q48.5 -15.7 50.2 -15.7Q51.95 -15.7 57.7 -13.7L63.4 -11.7L66.25 -11.9L69.35 -12.5" />
</g>
<g id="PathID_633" transform="matrix(1, 0, 0, 1, 71.65, 180.75)">
<path style="fill:#FFFFFF;fill-opacity:1" d="M21.4 -128.4Q20.6 -127.9 20.15 -128.9Q19.7 -129.9 20.35 -130.2Q21 -130.55 21.6 -129.7Q22.15 -128.85 21.4 -128.4M21.7 -126.45Q21.2 -127.25 21.85 -127.8Q22.5 -128.35 22.9 -127.55Q23.25 -126.75 22.75 -126.2Q22.2 -125.7 21.7 -126.45M24.05 -124.05Q23.6 -123.85 23.3 -124.25Q22.95 -124.65 23.45 -124.95Q23.9 -125.3 24.2 -124.8Q24.45 -124.25 24.05 -124.05M10.95 -141.35Q11.5 -141.65 11.8 -141.2Q12.15 -140.75 11.45 -140.25Q10.75 -139.75 10.55 -140.4Q10.4 -141.05 10.95 -141.35M12.95 -138.25Q12.55 -139.15 13.15 -139.45Q13.75 -139.75 14.3 -139Q14.8 -138.2 14.1 -137.75Q13.35 -137.3 12.95 -138.25M15.15 -137.05Q15.45 -137.3 15.65 -136.9Q15.9 -136.5 15.6 -136.2Q15.3 -135.95 15.05 -136.35Q14.8 -136.75 15.15 -137.05M4.6 -137.35Q5.3 -136.3 4.35 -135.75Q3.4 -135.15 2.85 -136.35Q2.3 -137.55 3.1 -137.95Q3.9 -138.35 4.6 -137.35M8.4 -140.3Q7.9 -140 7.5 -140.55Q7.1 -141.05 7.7 -141.45Q8.3 -141.85 8.6 -141.2Q8.95 -140.55 8.4 -140.3M6.45 -138.2Q5.95 -137.7 5.5 -138.4Q5 -139.1 5.65 -139.6Q6.25 -140.15 6.6 -139.4Q6.95 -138.65 6.45 -138.2M0.15 -134.35Q0 -135 0.55 -135.3Q1.1 -135.6 1.4 -135.15Q1.75 -134.7 1.05 -134.2Q0.35 -133.7 0.15 -134.35M18.9 -131.5Q18.4 -131.15 18.25 -131.6Q18.15 -132.05 18.5 -132.25L19.15 -132.15Q19.35 -131.85 18.9 -131.5M17.3 -133.95Q16.7 -133.65 16.25 -134.2Q15.85 -134.75 16.5 -135.2Q17.15 -135.6 17.5 -134.95Q17.9 -134.25 17.3 -133.95M31.4 -115.3Q31.7 -114.7 31.2 -114.4Q30.7 -114.15 30.35 -114.65Q29.95 -115.15 30.5 -115.5Q31.1 -115.9 31.4 -115.3M33.55 -112.9Q34.05 -112.3 33 -111.55Q32 -110.8 31.75 -111.75Q31.5 -112.7 32.3 -113.15Q33.1 -113.55 33.55 -112.9M29.75 -118.2Q30.15 -117.3 29.55 -116.75Q28.95 -116.15 28.4 -117Q27.85 -117.85 28.55 -118.5Q29.3 -119.1 29.75 -118.2M28 -118.8Q27.05 -118.2 26.5 -119.4Q25.95 -120.6 26.75 -121Q27.55 -121.4 28.25 -120.4Q28.95 -119.35 28 -118.8M25.65 -121.6Q24.95 -121.1 24.75 -121.75Q24.6 -122.4 25.15 -122.7Q25.7 -123 26 -122.55Q26.35 -122.1 25.65 -121.6M42.7 -76.1Q41.95 -75.75 41.55 -76.4Q41.1 -77.1 41.8 -77.7Q42.55 -78.3 43 -77.35Q43.45 -76.45 42.7 -76.1M41.45 -52.9Q40.4 -52.25 39.95 -53.2Q39.5 -54.15 40.4 -54.55Q41.25 -54.95 41.9 -54.25Q42.55 -53.55 41.45 -52.9M42.85 -51.25Q42.45 -52.05 43.2 -52.45Q44 -52.85 44.5 -52.3Q45 -51.7 44.1 -51.1Q43.25 -50.45 42.85 -51.25M45.1 -51.15Q45.6 -51.5 46.05 -50.85Q46.45 -50.25 45.75 -49.85Q45.05 -49.45 44.8 -50.15Q44.6 -50.85 45.1 -51.15M21.05 -89.7Q20.3 -89.2 19.8 -89.9Q19.35 -90.6 20 -91Q20.65 -91.45 21.25 -90.8Q21.85 -90.2 21.05 -89.7M22.4 -91.15Q22 -91.75 22.65 -92.3Q23.3 -92.85 23.75 -92.05Q24.15 -91.2 23.5 -90.85Q22.8 -90.55 22.4 -91.15M28.6 -87.7Q27.95 -87.1 27.4 -87.95Q26.8 -88.8 27.65 -89.2Q28.45 -89.55 28.85 -88.95Q29.3 -88.3 28.6 -87.7M26.1 -89.65Q25.45 -89.2 25.05 -89.95Q24.65 -90.7 25.35 -91.1Q26 -91.5 26.4 -90.8Q26.75 -90.1 26.1 -89.65M37.85 -80.55Q37.25 -80 36.8 -80.75Q36.3 -81.5 37 -81.85Q37.7 -82.15 38.1 -81.6Q38.45 -81.1 37.85 -80.55M31.7 -84.5Q31.25 -85.2 32 -85.8Q32.75 -86.45 33.25 -85.5Q33.7 -84.55 32.95 -84.15Q32.15 -83.8 31.7 -84.5M34.4 -82.65Q34.2 -83.1 34.6 -83.35Q35 -83.6 35.2 -83.15Q35.45 -82.75 35.05 -82.5Q34.65 -82.25 34.4 -82.65M39.3 -80.05Q40.05 -80.45 40.65 -79.8Q41.3 -79.15 40.45 -78.6Q39.6 -78.05 39.1 -78.8Q38.6 -79.6 39.3 -80.05M29.3 -86.2Q28.75 -87 29.55 -87.5Q30.3 -87.95 31 -87.25Q31.65 -86.55 30.75 -85.95Q29.85 -85.35 29.3 -86.2M18.95 -87.65Q18.3 -87.1 17.8 -87.9Q17.3 -88.7 18.05 -89Q18.8 -89.35 19.15 -88.8Q19.55 -88.25 18.95 -87.65M16.3 -87.3Q16.65 -86.6 16 -86.15Q15.35 -85.7 14.95 -86.45Q14.55 -87.2 15.25 -87.6Q15.9 -88 16.3 -87.3M9.1 -85.2Q9.95 -85.7 10.7 -84.9Q11.5 -84.1 10.45 -83.45Q9.45 -82.8 8.85 -83.7Q8.25 -84.65 9.1 -85.2M7.35 -83.55Q6.85 -83.15 6.5 -83.75Q6.1 -84.3 6.65 -84.55L7.5 -84.4Q7.8 -84 7.35 -83.55M0.2 -83.3Q-0.05 -83.75 0.4 -84.1Q0.85 -84.5 1.15 -83.9Q1.45 -83.35 0.95 -83.1Q0.5 -82.9 0.2 -83.3M4.35 -82.6Q3.7 -82.2 3.35 -82.85Q3 -83.55 3.6 -83.9Q4.25 -84.25 4.6 -83.65Q4.95 -83 4.35 -82.6M12.35 -84.35Q11.95 -84.95 12.6 -85.5Q13.25 -86.05 13.7 -85.25Q14.1 -84.4 13.45 -84.05Q12.75 -83.75 12.35 -84.35M10.55 -49.8Q11 -49.25 10.25 -48.7Q9.45 -48.1 9.1 -48.85Q8.7 -49.6 9.4 -49.95L10.55 -49.8M13.4 -49.6Q13.8 -49 13.1 -48.6Q12.4 -48.2 12.15 -48.9Q11.95 -49.6 12.45 -49.9Q12.95 -50.25 13.4 -49.6M16.35 -50.3Q16.75 -49.65 16.2 -49.25Q15.7 -48.85 15.2 -49.5Q14.7 -50.15 15.3 -50.55Q15.95 -50.95 16.35 -50.3M19.2 -50.05Q19.65 -49.5 18.85 -49.05Q18.05 -48.55 17.75 -49.25Q17.4 -50 18.05 -50.3Q18.7 -50.6 19.2 -50.05M22.5 -50.05Q23.1 -49.35 22.05 -48.6Q21 -47.8 20.5 -48.8Q20 -49.8 20.95 -50.25Q21.9 -50.7 22.5 -50.05M24.85 -49.7Q25.3 -49.05 24.55 -48.6Q23.8 -48.2 23.6 -48.95Q23.35 -49.65 23.85 -50Q24.4 -50.35 24.85 -49.7M31.9 -50.6Q32.5 -50 31.5 -49.4Q30.55 -48.85 30.2 -49.7Q29.8 -50.5 30.55 -50.9Q31.35 -51.25 31.9 -50.6M32.85 -50.95Q32.55 -51.45 33.05 -51.7L33.85 -51.6Q34.2 -51.25 33.65 -50.8Q33.1 -50.4 32.85 -50.95M36.45 -53.95Q36.9 -53.3 36.15 -52.85Q35.4 -52.45 35.2 -53.2Q34.95 -53.9 35.45 -54.25Q36 -54.6 36.45 -53.95M37.7 -53.8Q37 -54.7 37.9 -55.3Q38.8 -55.9 39.35 -54.95Q39.9 -54.05 39.15 -53.45Q38.45 -52.9 37.7 -53.8M28.35 -48Q27.65 -47.45 26.9 -48.35Q26.2 -49.25 27.1 -49.85Q28 -50.45 28.55 -49.5Q29.1 -48.6 28.35 -48M6.3 -48.55Q6 -49.15 6.55 -49.4Q7.05 -49.65 7.45 -49.2Q7.85 -48.75 7.2 -48.35Q6.55 -47.95 6.3 -48.55M0.65 -48Q0.4 -48.9 1.05 -49.3Q1.7 -49.7 2.25 -48.95Q2.8 -48.15 1.9 -47.6Q0.95 -47.1 0.65 -48M4.1 -47.4Q3.5 -46.95 2.9 -47.7Q2.3 -48.45 3.05 -48.95Q3.8 -49.45 4.25 -48.7Q4.7 -47.9 4.1 -47.4M11.55 -18.95Q12 -18.2 11.35 -17.75Q10.65 -17.25 10.1 -17.85Q9.6 -18.5 10.35 -19.1Q11.1 -19.7 11.55 -18.95M12.75 -16.45Q12.3 -17.1 13.05 -17.4Q13.85 -17.7 14.15 -17.1Q14.45 -16.55 13.85 -16.2Q13.2 -15.8 12.75 -16.45M15.25 -15.45Q14.65 -16.5 15.5 -16.95Q16.35 -17.4 17 -16.45Q17.65 -15.55 16.75 -14.95Q15.85 -14.35 15.25 -15.45M18.5 -14.65Q17.9 -15.55 18.7 -16Q19.5 -16.4 20.05 -15.55Q20.6 -14.7 19.85 -14.2Q19.05 -13.7 18.5 -14.65M8.85 -18.95Q8.25 -18.6 7.8 -19.3Q7.35 -20 8 -20.35Q8.6 -20.7 9.05 -20.05Q9.45 -19.35 8.85 -18.95M6.3 -18.8Q5.7 -18.4 5.25 -19.15Q4.85 -19.9 5.45 -20.2Q6.05 -20.5 6.5 -19.85Q6.9 -19.25 6.3 -18.8M3.45 -18.65Q3.8 -18.05 3.15 -17.65Q2.5 -17.25 2 -17.95Q1.55 -18.6 2.35 -18.9Q3.15 -19.2 3.45 -18.65M38.75 -19.05Q38.3 -19.85 38.9 -20.15Q39.55 -20.5 40 -19.85Q40.45 -19.15 39.85 -18.75Q39.2 -18.3 38.75 -19.05M31.2 -15.6Q30.75 -16.3 31.4 -16.65Q32 -17 32.45 -16.35Q32.85 -15.65 32.25 -15.25Q31.65 -14.9 31.2 -15.6M33.85 -15.8Q33.4 -16.35 34 -16.85Q34.65 -17.4 35 -16.75Q35.4 -16.1 34.85 -15.7Q34.3 -15.3 33.85 -15.8M36.75 -17.45Q36.3 -18.1 37.05 -18.4Q37.85 -18.7 38.15 -18.1Q38.45 -17.55 37.85 -17.2Q37.2 -16.8 36.75 -17.45M21.65 -14.55Q21.2 -15.1 21.85 -15.65Q22.5 -16.2 22.9 -15.5Q23.3 -14.85 22.7 -14.4Q22.1 -14 21.65 -14.55M24.7 -15.95Q25.7 -16.3 26.05 -15.6Q26.4 -14.9 25.65 -14.4Q24.85 -13.95 24.25 -14.75Q23.7 -15.55 24.7 -15.95M28.65 -15.1Q28.1 -14.7 27.7 -15.35Q27.35 -16.05 27.9 -16.3Q28.4 -16.6 28.8 -16.05Q29.2 -15.45 28.65 -15.1M51.6 -44.2Q51.2 -45 51.95 -45.35Q52.7 -45.75 53.15 -45.2Q53.65 -44.65 52.8 -44.05Q52 -43.45 51.6 -44.2M47.45 -47.7Q46.85 -48.45 47.6 -48.95Q48.35 -49.45 48.8 -48.7Q49.25 -47.9 48.65 -47.4Q48.05 -46.95 47.45 -47.7M48.75 -46.25Q48.4 -47.05 49.15 -47.4Q49.85 -47.75 50.4 -47.15Q51 -46.55 50.05 -46Q49.15 -45.45 48.75 -46.25M48.3 -25.4Q48.65 -24.7 47.9 -24.2Q47.1 -23.75 46.5 -24.55Q45.95 -25.35 46.95 -25.75Q47.95 -26.1 48.3 -25.4M49.6 -26.65Q50.4 -27.05 51 -26.2Q51.6 -25.35 50.75 -24.75Q49.95 -24.2 49.35 -25.2Q48.75 -26.25 49.6 -26.65M52.05 -26.1Q51.6 -26.8 52.25 -27.15Q52.85 -27.5 53.3 -26.85Q53.7 -26.15 53.1 -25.75Q52.5 -25.4 52.05 -26.1M56.2 -25.5Q56.6 -24.85 56.05 -24.45L55.05 -24.55Q54.6 -25.1 55.2 -25.6Q55.85 -26.15 56.2 -25.5M56.45 -22.95Q56 -23.6 56.8 -23.9Q57.6 -24.2 57.9 -23.65Q58.25 -23.05 57.6 -22.65Q56.95 -22.25 56.45 -22.95M58.9 -20.6Q58.35 -21.55 59.15 -21.9Q59.9 -22.3 60.45 -21.5Q61 -20.7 60.25 -20.2Q59.45 -19.65 58.9 -20.6M45.1 -22L44.1 -22.1Q43.65 -22.65 44.25 -23.15Q44.9 -23.7 45.25 -23.05Q45.65 -22.4 45.1 -22M42.05 -21Q41.45 -20.65 41.05 -21.3Q40.6 -22 41.2 -22.35Q41.8 -22.65 42.2 -22Q42.6 -21.35 42.05 -21M63.4 -19.45Q63.85 -18.75 63.25 -18.35Q62.6 -17.95 62.15 -18.7Q61.65 -19.45 62.3 -19.8Q62.95 -20.15 63.4 -19.45M64.1 -16.6Q63.75 -17.05 64.25 -17.5Q64.8 -17.95 65.15 -17.4Q65.45 -16.85 65 -16.5L64.1 -16.6M66.55 -14.05Q66.1 -14.7 66.85 -15Q67.65 -15.3 67.95 -14.7Q68.25 -14.15 67.65 -13.8Q67 -13.4 66.55 -14.05M69.8 -13.3Q70.2 -12.7 69.6 -12.25Q69 -11.85 68.55 -12.6Q68.15 -13.35 68.75 -13.65Q69.35 -13.95 69.8 -13.3M-19.7 -136.2Q-20.45 -135.75 -20.85 -136.7Q-21.25 -137.6 -20.65 -137.9Q-20.05 -138.2 -19.5 -137.45Q-19 -136.65 -19.7 -136.2M-18.4 -137.55Q-18.8 -138.15 -18.25 -138.6Q-17.75 -139.05 -17.45 -138.45Q-17.1 -137.8 -17.55 -137.35Q-18 -136.95 -18.4 -137.55M-12.15 -131.5Q-12.55 -131.1 -12.95 -131.7Q-13.35 -132.25 -12.85 -132.7Q-12.35 -133.1 -12.05 -132.5Q-11.75 -131.9 -12.15 -131.5M-14.35 -132.3Q-15.1 -131.85 -15.5 -132.8Q-15.9 -133.7 -15.3 -134Q-14.7 -134.3 -14.15 -133.55Q-13.65 -132.75 -14.35 -132.3M-16.95 -134.15Q-17.55 -133.85 -18 -134.4Q-18.4 -134.95 -17.75 -135.4Q-17.1 -135.8 -16.75 -135.15Q-16.35 -134.45 -16.95 -134.15M-16.05 -131.6Q-16.65 -131.15 -16.8 -131.7Q-16.95 -132.25 -16.45 -132.5L-15.7 -132.4Q-15.45 -132 -16.05 -131.6M-10.75 -128.1Q-11.35 -127.8 -11.75 -128.35Q-12.15 -128.9 -11.55 -129.3Q-10.9 -129.7 -10.55 -129.05Q-10.2 -128.4 -10.75 -128.1M-1.8 -133.75Q-2.4 -133.45 -2.85 -134Q-3.25 -134.55 -2.6 -135Q-1.95 -135.4 -1.6 -134.75Q-1.2 -134.05 -1.8 -133.75M-4.45 -132.55Q-4.9 -132.15 -5.3 -132.75Q-5.7 -133.35 -5.15 -133.8Q-4.65 -134.25 -4.35 -133.65Q-4 -133 -4.45 -132.55M-7.3 -130.65Q-7.75 -131.65 -7.1 -131.95Q-6.45 -132.3 -5.85 -131.45Q-5.3 -130.6 -6.05 -130.15Q-6.85 -129.65 -7.3 -130.65M-9.4 -128.3Q-9.6 -129 -9 -129.35Q-8.35 -129.65 -8 -129.15Q-7.65 -128.7 -8.4 -128.1Q-9.2 -127.55 -9.4 -128.3M-24 -131.55Q-24.5 -132.2 -23.75 -132.7Q-23 -133.15 -22.55 -132.4Q-22.15 -131.6 -22.85 -131.25Q-23.5 -130.9 -24 -131.55M-22.4 -134.25Q-22.55 -134.9 -22.05 -135.15Q-21.5 -135.45 -21.2 -135Q-20.9 -134.6 -21.55 -134.1Q-22.2 -133.65 -22.4 -134.25M-28.85 -125.75Q-28.35 -125.05 -29.45 -124.25Q-30.55 -123.4 -30.85 -124.5Q-31.15 -125.55 -30.25 -126Q-29.4 -126.45 -28.85 -125.75M-28.25 -127Q-28.65 -127.9 -28.05 -128.2Q-27.45 -128.5 -26.9 -127.75Q-26.4 -126.95 -27.1 -126.5Q-27.85 -126.05 -28.25 -127M-25.7 -129.2Q-26.15 -129.9 -25.55 -130.45Q-24.9 -131 -24.55 -130.2Q-24.15 -129.45 -24.7 -128.95Q-25.2 -128.45 -25.7 -129.2M-31.4 -122.35Q-32 -122.05 -32.45 -122.6Q-32.85 -123.15 -32.2 -123.6Q-31.55 -124 -31.2 -123.35Q-30.8 -122.65 -31.4 -122.35M-33 -121.05Q-32.65 -120.35 -33.1 -119.9Q-33.6 -119.45 -34.05 -120.1Q-34.5 -120.8 -33.9 -121.3Q-33.35 -121.8 -33 -121.05M-34.6 -117.95Q-35.2 -117.55 -35.55 -118.3Q-35.85 -119.05 -35.35 -119.3Q-34.85 -119.55 -34.45 -118.9Q-34 -118.3 -34.6 -117.95M-36.55 -115.55Q-37.35 -115 -37.55 -115.75Q-37.75 -116.45 -37.15 -116.8Q-36.5 -117.1 -36.15 -116.6Q-35.8 -116.15 -36.55 -115.55M-39.05 -114.4Q-38.3 -114.85 -37.85 -114.1Q-37.45 -113.3 -38.15 -112.95Q-38.8 -112.6 -39.3 -113.25Q-39.8 -113.9 -39.05 -114.4M-39.3 -111.45Q-38.95 -110.75 -39.4 -110.3Q-39.9 -109.85 -40.35 -110.5Q-40.8 -111.2 -40.2 -111.7Q-39.65 -112.2 -39.3 -111.45M-6.85 -86.85Q-6.5 -86.15 -7.15 -85.7Q-7.8 -85.25 -8.2 -86Q-8.6 -86.75 -7.9 -87.15Q-7.25 -87.55 -6.85 -86.85M-15.25 -86.65Q-14.9 -86.15 -15.5 -85.6Q-16.1 -85.05 -16.55 -85.8Q-17.05 -86.55 -16.35 -86.9Q-15.65 -87.2 -15.25 -86.65M-13 -87Q-12.4 -86.4 -13.15 -85.9Q-13.9 -85.45 -14.35 -86.1Q-14.8 -86.8 -14.15 -87.2Q-13.55 -87.6 -13 -87M-19.85 -84.55Q-20.4 -85.6 -19.45 -86.2Q-18.45 -86.8 -17.9 -85.75Q-17.35 -84.75 -18.3 -84.1Q-19.25 -83.45 -19.85 -84.55M-1.55 -83.05Q-2.3 -82.6 -2.75 -83.25Q-3.2 -83.95 -2.55 -84.35Q-1.95 -84.75 -1.4 -84.15Q-0.8 -83.55 -1.55 -83.05M-4.6 -84.45Q-5.15 -83.95 -5.65 -84.7Q-6.1 -85.4 -5.45 -85.7Q-4.75 -86 -4.4 -85.5Q-4.05 -85 -4.6 -84.45M-10.7 -86.55Q-11.1 -87.1 -10.5 -87.65Q-9.85 -88.15 -9.45 -87.35Q-9.05 -86.55 -9.7 -86.25Q-10.35 -85.95 -10.7 -86.55M-38.35 -86.75Q-38 -86.05 -38.65 -85.6Q-39.3 -85.15 -39.7 -85.9Q-40.1 -86.65 -39.4 -87.05Q-38.75 -87.45 -38.35 -86.75M-37.95 -88.45Q-38.65 -89.55 -37.6 -90Q-36.6 -90.5 -36.05 -89.7Q-35.5 -88.9 -36.35 -88.15Q-37.25 -87.35 -37.95 -88.45M-31.7 -87.3Q-32.3 -87 -32.7 -87.55Q-33.05 -88.1 -32.45 -88.6Q-31.85 -89.1 -31.45 -88.35Q-31.1 -87.6 -31.7 -87.3M-33.5 -89.45Q-34.25 -88.95 -34.75 -89.65Q-35.2 -90.35 -34.55 -90.75Q-33.9 -91.2 -33.3 -90.55Q-32.7 -89.95 -33.5 -89.45M-40.45 -83.35Q-41.2 -83 -41.6 -83.65Q-42.05 -84.35 -41.35 -84.95Q-40.6 -85.55 -40.15 -84.6Q-39.7 -83.7 -40.45 -83.35M-30.65 -85.8Q-29.8 -86.3 -29.3 -85.4Q-28.85 -84.5 -29.65 -83.95Q-30.5 -83.4 -31 -84.35Q-31.5 -85.25 -30.65 -85.8M-24.4 -84.75Q-23.95 -84.25 -24.5 -83.9Q-25.1 -83.55 -25.45 -84.05Q-25.8 -84.55 -25.3 -84.9Q-24.8 -85.2 -24.4 -84.75M-23.55 -84.3Q-24.05 -85.1 -23.2 -85.85Q-22.35 -86.55 -21.75 -85.45Q-21.2 -84.35 -22.1 -83.9Q-23 -83.5 -23.55 -84.3M-28.2 -83.5Q-28.45 -83.95 -28.05 -84.15L-27.4 -84Q-27.2 -83.7 -27.55 -83.35Q-27.9 -83.05 -28.2 -83.5M-39.2 -52.45Q-38.75 -51.95 -39.5 -51.45Q-40.25 -51 -40.6 -51.7Q-40.9 -52.35 -40.3 -52.65Q-39.65 -52.95 -39.2 -52.45M-38 -50.25Q-38.5 -51.25 -37.55 -51.7Q-36.6 -52.15 -36 -51.5Q-35.4 -50.8 -36.45 -50.05Q-37.5 -49.25 -38 -50.25M-31.45 -50.85Q-30.8 -51.3 -30.4 -50.65Q-30 -49.95 -30.5 -49.5Q-31.05 -49.1 -31.6 -49.75Q-32.1 -50.45 -31.45 -50.85M-33.5 -49.7Q-34.2 -49.3 -34.45 -50Q-34.65 -50.7 -34.15 -51Q-33.65 -51.35 -33.2 -50.7Q-32.8 -50.1 -33.5 -49.7M-21.3 -50.7Q-22.15 -50.2 -22.45 -51.05Q-22.75 -51.95 -22.1 -52.35Q-21.5 -52.7 -20.95 -51.95Q-20.4 -51.2 -21.3 -50.7M-24.3 -49.65Q-25.25 -48.95 -25.7 -49.85Q-26.1 -50.75 -25.3 -51.15Q-24.45 -51.6 -23.9 -50.95Q-23.35 -50.35 -24.3 -49.65M-26.7 -50.3Q-26.25 -49.75 -27.05 -49.3Q-27.85 -48.8 -28.15 -49.5Q-28.5 -50.25 -27.85 -50.55Q-27.2 -50.85 -26.7 -50.3M-19.3 -51.55Q-19.6 -51.95 -19.2 -52.2Q-18.85 -52.45 -18.6 -52.05Q-18.35 -51.65 -18.7 -51.4Q-19 -51.15 -19.3 -51.55M-16.35 -53.45Q-15.5 -53.85 -14.85 -53.15Q-14.2 -52.45 -15.3 -51.8Q-16.35 -51.15 -16.8 -52.1Q-17.25 -53.05 -16.35 -53.45M-13.6 -51.3Q-14 -52.15 -13.2 -52.55L-11.9 -52.4Q-11.35 -51.8 -12.25 -51.15Q-13.15 -50.5 -13.6 -51.3M-10.25 -51Q-9.95 -51.2 -9.65 -50.8Q-9.35 -50.35 -9.85 -50.1Q-10.3 -49.8 -10.45 -50.3Q-10.6 -50.75 -10.25 -51M-6.7 -49.6Q-6.15 -48.7 -6.85 -48.15Q-7.55 -47.6 -8.25 -48.5Q-8.95 -49.35 -8.1 -49.95Q-7.2 -50.5 -6.7 -49.6M-41.55 -81.25Q-42.15 -80.85 -42.5 -81.4Q-42.9 -81.95 -42.35 -82.25Q-41.85 -82.6 -41.4 -82.1Q-40.95 -81.6 -41.55 -81.25M-48.35 -75.3Q-48.65 -75.75 -48.2 -76.15Q-47.7 -76.55 -47.4 -75.95Q-47.05 -75.3 -47.55 -75.1Q-48.05 -74.85 -48.35 -75.3M-46.4 -77.05Q-46.65 -77.5 -46.25 -77.75Q-45.8 -78.05 -45.55 -77.6Q-45.3 -77.15 -45.75 -76.85Q-46.15 -76.55 -46.4 -77.05M-43.45 -79.4Q-43.85 -79.05 -44.2 -79.55Q-44.55 -80.1 -44.05 -80.3Q-43.55 -80.55 -43.3 -80.15Q-43.05 -79.8 -43.45 -79.4M-46.15 -50.75Q-45.6 -50.15 -46.5 -49.5Q-47.4 -48.85 -47.85 -49.65Q-48.25 -50.5 -47.45 -50.9Q-46.65 -51.35 -46.15 -50.75M-45.75 -53.4Q-45 -53.85 -44.35 -52.95Q-43.7 -52.05 -44.75 -51.45Q-45.85 -50.85 -46.15 -51.9Q-46.5 -52.95 -45.75 -53.4M-43 -52.8Q-43.5 -53.45 -42.9 -53.85Q-42.25 -54.25 -41.85 -53.6Q-41.45 -52.95 -42 -52.55Q-42.5 -52.15 -43 -52.8M-49.5 -47.55Q-49.8 -48.15 -49.25 -48.4Q-48.75 -48.65 -48.35 -48.2Q-47.95 -47.75 -48.6 -47.35Q-49.25 -46.95 -49.5 -47.55M-50.95 -45.1Q-51.35 -44.75 -51.75 -45.25Q-52.15 -45.8 -51.65 -46.1Q-51.15 -46.4 -50.85 -45.9Q-50.55 -45.4 -50.95 -45.1M-52.55 -43.9Q-51.95 -43.05 -52.95 -42.45Q-53.95 -41.9 -54.25 -42.9Q-54.55 -43.85 -53.85 -44.3Q-53.15 -44.7 -52.55 -43.9M-55.85 -41.75Q-54.8 -42.25 -54.15 -41.5Q-53.45 -40.75 -54.65 -39.9Q-55.85 -39 -56.35 -40.1Q-56.9 -41.2 -55.85 -41.75M-66.55 -13.8Q-65.85 -14.4 -65.4 -13.65Q-64.95 -12.9 -65.6 -12.45Q-66.25 -12 -66.75 -12.6Q-67.25 -13.2 -66.55 -13.8M-62.3 -16.95Q-62.65 -16.7 -62.9 -17.15Q-63.15 -17.6 -62.8 -17.75Q-62.45 -17.95 -62.2 -17.55Q-61.9 -17.2 -62.3 -16.95M-63.9 -15.6Q-63.55 -15 -64.2 -14.6Q-64.85 -14.2 -65.35 -14.9Q-65.8 -15.55 -65 -15.85Q-64.2 -16.15 -63.9 -15.6M-68.6 -10.95Q-69.1 -11.7 -68.4 -12.1Q-67.7 -12.45 -67.25 -11.75Q-66.8 -11 -67.45 -10.55Q-68.1 -10.15 -68.6 -10.95M-45.4 -22.75L-46.55 -22.85Q-47 -23.45 -46.35 -24Q-45.65 -24.6 -45.2 -23.9Q-44.8 -23.2 -45.4 -22.75M-44.6 -21.95Q-45.15 -22.75 -44.15 -23.15Q-43.15 -23.5 -42.8 -22.8Q-42.45 -22.1 -43.2 -21.6Q-44 -21.15 -44.6 -21.95M-40.95 -22.6Q-40.35 -22.9 -39.9 -22.25Q-39.5 -21.65 -40.1 -21.2Q-40.7 -20.8 -41.15 -21.55Q-41.55 -22.3 -40.95 -22.6M-49.65 -23.25Q-50.1 -23.95 -49.5 -24.3Q-48.9 -24.6 -48.5 -23.95Q-48.1 -23.3 -48.65 -22.95Q-49.25 -22.6 -49.65 -23.25M-52 -22.95Q-52.5 -22.6 -52.85 -23.2Q-53.2 -23.8 -52.7 -24.05Q-52.2 -24.3 -51.85 -23.8Q-51.45 -23.3 -52 -22.95M-54.75 -22Q-55.4 -21.6 -55.9 -22.3Q-56.35 -22.95 -55.55 -23.25Q-54.75 -23.55 -54.45 -23Q-54.1 -22.4 -54.75 -22M-60.5 -19.55Q-60.95 -20.25 -60.35 -20.6Q-59.75 -20.9 -59.35 -20.25Q-58.95 -19.6 -59.5 -19.25Q-60.1 -18.9 -60.5 -19.55M-58.7 -20.5Q-59.35 -21.25 -58.45 -22Q-57.55 -22.7 -57 -21.8Q-56.45 -20.9 -57.25 -20.3Q-58.1 -19.75 -58.7 -20.5M-1.35 -47.75Q-2.15 -47.15 -2.55 -47.9Q-2.95 -48.7 -2.2 -49.05Q-1.45 -49.45 -1 -48.9Q-0.5 -48.35 -1.35 -47.75M-4.9 -47.55Q-5.9 -47 -6.3 -47.85Q-6.7 -48.75 -5.9 -49.1Q-5.1 -49.45 -4.5 -48.8Q-3.9 -48.15 -4.9 -47.55M-30 -15.1Q-30.65 -14.65 -31.1 -15.4Q-31.55 -16.2 -30.95 -16.5Q-30.3 -16.85 -29.85 -16.2Q-29.4 -15.5 -30 -15.1M-27.7 -16.1Q-28.1 -16.75 -27.55 -17.05Q-26.95 -17.35 -26.55 -16.75Q-26.2 -16.1 -26.75 -15.8Q-27.3 -15.45 -27.7 -16.1M-24.95 -16.5Q-25.4 -17.1 -24.75 -17.65Q-24.05 -18.25 -23.6 -17.55Q-23.2 -16.85 -23.8 -16.4L-24.95 -16.5M-21.8 -17.75Q-22.3 -18.45 -21.45 -18.8Q-20.55 -19.1 -20.25 -18.5Q-19.95 -17.9 -20.6 -17.5Q-21.25 -17.05 -21.8 -17.75M-34 -19.2Q-33.6 -18.55 -34.2 -18.1Q-34.8 -17.7 -35.25 -18.25Q-35.7 -18.8 -35.05 -19.35Q-34.4 -19.9 -34 -19.2M-37.7 -20.05Q-37.95 -20.45 -37.6 -20.65Q-37.25 -20.85 -36.95 -20.45Q-36.7 -20.05 -37.05 -19.85Q-37.45 -19.6 -37.7 -20.05M-32.85 -15.8Q-33.5 -15.4 -34 -16.1Q-34.45 -16.75 -33.65 -17.05Q-32.85 -17.35 -32.55 -16.8Q-32.2 -16.2 -32.85 -15.8M-7.4 -17.55Q-8 -18.6 -7.15 -19Q-6.35 -19.4 -5.75 -18.55Q-5.15 -17.7 -6 -17.1Q-6.8 -16.55 -7.4 -17.55M-3.8 -17.75Q-4.15 -18.35 -3.7 -18.6Q-3.2 -18.85 -2.85 -18.35Q-2.5 -17.8 -3 -17.5Q-3.45 -17.2 -3.8 -17.75M-1.55 -17.2Q-2 -17.8 -1.35 -18.35L-0.2 -18.25Q0.2 -17.55 -0.4 -17.1L-1.55 -17.2M-9.35 -18.4Q-10 -18 -10.45 -18.65Q-10.9 -19.3 -10.15 -19.6Q-9.35 -19.9 -9.05 -19.3Q-8.75 -18.75 -9.35 -18.4M-12.4 -19.7Q-11.75 -20.25 -11.4 -19.6Q-11 -18.95 -11.55 -18.55Q-12.1 -18.15 -12.55 -18.65Q-13 -19.2 -12.4 -19.7M-18.85 -19.05Q-19.25 -19.75 -18.7 -20.05Q-18.1 -20.35 -17.7 -19.75Q-17.3 -19.15 -17.85 -18.75Q-18.45 -18.35 -18.85 -19.05M-15.7 -19.9Q-15.05 -20.25 -14.6 -19.55Q-14.15 -18.85 -14.75 -18.45Q-15.4 -18.05 -15.85 -18.8Q-16.35 -19.55 -15.7 -19.9" />
</g>
</svg>
