<?xml version="1.0" encoding="utf-8"?>
<svg version="1.1" id="Layer_1"
xmlns="http://www.w3.org/2000/svg"
xmlns:xlink="http://www.w3.org/1999/xlink"
width="865px" height="209px"
xml:space="preserve">
<g id="PathID_671" transform="matrix(1, 0, 0, 1, 19.8, -141.15)">
<path style="fill:#3271A1;fill-opacity:0.239216" d="M680.8 147.8L682.25 151.05L683.9 150.75Q685.35 150.75 686.3 151.85L688.1 154.2L686.95 155.15L690.35 157.2Q689.75 158.1 688.65 158.55L687.1 158.9L688 159.8Q688.75 160.5 688.6 161.25L688.6 163.7L689.25 163.4L692.5 162.4L692.5 163.7Q690.25 165.95 689.05 168.3L692.5 169.9Q695.4 171.5 695.1 172.6L692.95 173.3L691.05 173.8L690.85 174.05L691.7 174.55L692.5 175.35L690.35 176.25L690.2 177.05L690.05 178.1L691.8 179.45L692 179.6L690.6 180.25L688.45 182.05L689.45 181.7L692.8 180.55L692 179.6L692.7 179Q693.15 178.6 694.65 178.6L696.55 178.8Q698.05 179.1 698.05 179.9L697.55 181.25Q696.9 182.25 696.75 183Q697.55 183 698.15 183.45Q698.7 183.85 698.7 184.3L696.2 185.55L694.25 186.2L696.5 187.7Q698.15 189.15 698.5 190.35L697.05 190.8L695.3 190.9Q695.75 191 696.05 191.4L696.5 192.4Q696.5 193.1 695.1 194.35L694.95 194.4L695.2 194.5L697.85 194.85Q699.3 194.85 701.25 194Q703.2 193.1 704.6 193.1L707.9 193.6Q710.65 194.4 710.65 195.7Q710.65 196.9 710.15 197.3Q709.2 197.65 708.05 196.8Q706.75 195.8 705.6 195.8Q704.6 195.8 703.55 196.8L705.5 197.9Q706.45 198.55 706.45 199.75Q706.45 200.85 704.05 201.5L700.75 202.3L701.55 203.3L702.55 204.25Q703.15 204.85 701.55 206.3Q700 207.7 698 208.45L698.15 208.45L702.2 208.75Q704.95 209.3 704.95 210.9Q704.95 212.7 703.8 213.15L700.75 213.45L703.15 214.9L704.95 215.3Q707.2 215.9 707.2 217.25L705.35 218.3L705.75 218.4Q706.95 218.4 708.85 219.95Q711.1 221.6 710.45 222.85Q707.1 223.85 704.2 222.35Q704.7 223 705.3 225.1L701.75 224.55L702.4 226Q702.9 226.8 702.75 227.4Q702.65 227.95 699.65 230.35L700.15 230.45L702 230.5L705.6 230.15L709.85 229.75Q717.4 229.75 717.4 232.3Q717.4 233.4 716.65 233.75L715.15 233.95L712.25 233.55L711.75 233.4L712.9 234.75L713.35 236.2Q713.35 236.95 711.35 237.65L708.7 238.45Q709.35 239.8 710.7 240.55Q711.65 241.2 711.65 242.3Q711.65 243.8 710.45 244.5L710.3 244.6L716.85 244.6Q722.5 245.1 722.5 247.55Q722.5 248.5 722.3 248.55L720.7 248.55L718.1 248.2L715.65 247.85L715.2 247.85L719.35 250.6Q721.8 252.35 721.8 253.4Q721.8 255.65 715.85 255.35L717.4 257.4Q717.4 258.35 715.85 258.75L714.5 259Q720.9 264.05 717.5 265.5L721.15 265.95Q724.75 266.8 724.75 268.8Q724.75 269.7 724.55 269.9L723.3 270.1L719.85 269.4Q717.9 268.65 716.35 268.65L713.75 268.75Q712.15 268.95 711.9 269.9L714.25 271.85Q716.35 273.65 716.35 274.4Q716.35 275.2 715.35 275.85L719.55 278.35Q722.65 280.55 722 282L719.35 282.55L719.05 282.75Q719.9 283.15 721.55 284.65Q723.6 286.45 723.6 287.45Q723.6 288.65 722 289.5Q721.2 290 720.35 290.3L719.85 290.05L719.85 290.45L720.35 290.3L729.8 293.9Q733.65 295.45 740.1 297Q744.9 298.6 746.85 301.8L746.85 303.5L744.5 303.75Q742.1 303.75 735.5 301.15Q727.8 298.05 726.05 297.6Q726.35 298.8 725.55 300.4L724.7 302.1L724.95 303Q724.95 304.25 724.6 304.6L723.25 304.9L720.55 304.25L718.25 303.6L719.85 306Q720.25 306.55 720.25 307.95Q720.25 309.1 719.9 309.6Q719.45 310.25 718.4 310.25Q716.3 310.25 713.6 308.2Q711.6 306.7 709.85 304.6L709.5 304.6Q709.4 305.55 708.4 306.8Q707.45 307.95 706.95 307.95Q705.6 307.95 705 306.8Q704 304.75 703.4 304.25L702.5 306.05Q701.9 307.3 700.9 307.3Q698.7 307.3 698.7 305.4Q698.7 304.25 699.45 302.85L699.45 300.85L697.8 300.85Q697.5 301.7 695.7 302.65Q693.25 308.45 691.85 308.45Q690.7 308.45 690.25 307.5Q690.05 306.85 690.2 305.35L689.9 305.35L689.25 307.8Q688.55 309.95 687.6 310.45L686.5 309.3Q685.7 308.75 685.15 308.75Q684.2 308.75 682.25 311.35Q680.2 314 679.15 314Q677.7 314 677.1 312.4L676.25 310.3L675.95 311.6Q675.3 312.9 672.9 312.9Q671.3 312.9 670.25 312.25L668.2 310.95L668.2 311.25L669.65 313.55Q670.9 315.65 670.9 316.2Q670.9 316.7 669.6 317.35Q668.8 316.9 668.45 315.95Q668.2 315.3 667.2 315.3L664.4 315.8L661.2 316.3Q658.3 316.3 657.5 314.2Q657.2 313.55 656.85 309.6L656.15 309.6L654.1 310.95Q652.3 310.95 652.4 308.85L652.8 305.9L651.2 307.35Q649.9 308.6 648.6 308.6L647.7 308.15Q646.9 307.55 646.75 306.9L643.35 309.95Q640.5 312.65 639.5 312.65Q638.85 312.65 638.35 312Q637.7 311.1 638.05 309.95L636.2 311.25Q635.3 312 634.65 312Q633.85 312 633.35 311.6Q632.7 311.25 632.7 310.45Q632.7 309.65 633.35 308.95L633 308.95Q632.3 309.3 628.35 312.05Q624.4 314.65 622.75 314.65Q619.9 314.3 619.9 312.9Q619.9 308.85 622.1 306.8L619.85 307L617.8 307.3Q611.1 307.3 609.65 303.75Q614.7 301.55 623 296.45Q624.3 295.55 625.5 295Q623.45 295.05 622 294.2Q622.75 291.25 626.05 289.5L628.3 288.65L626.5 289L625.6 288.85L624.7 288.75L624.7 287.45Q626.15 284.85 633.8 282.2Q641 279.65 642.05 276.5L641.8 276.55L640.5 276.55L638.8 276.1L637.65 275.6L633.8 275.9Q631.4 275.7 632.4 273.15Q631.6 273.95 628.9 275.05Q626.05 276.1 624.25 276.1L622.75 275.85Q621.7 275.45 621.7 274.95Q621.7 274.15 625.6 272.15Q629.45 270.25 629.45 268.65Q629.45 268.15 628.8 267.65Q628.25 267.25 628.25 266.45Q628.25 265.65 630.7 263.7L635.25 260.05L629.3 262.15Q628.1 262.15 627.7 260.95Q627.45 259.9 627.8 259.2Q626.55 259.2 625.05 257.95Q625.1 256.8 628.8 256.65Q633.2 256.55 634.35 255.45L636.25 254.05L630.4 253.4Q624.95 252.5 624.95 250.55Q624.95 248.2 631.4 246.85L631.4 246.7L628.65 246.1Q629.45 244.45 635.3 242.8Q640.95 241.2 642.6 240.05Q640.8 239.95 640.8 238.8Q640.8 237.35 642.35 236.65L643.7 236.3Q644.85 236.7 646.3 236.3L645.2 236.2L643.7 236.3L643.55 236.2Q641.9 235.55 642.55 233.75Q641.3 234.55 639.05 235Q636.75 235.5 636.85 234.45Q637.05 232.95 639.65 231.8Q641.45 230.95 643.05 230.8L643.85 230.5Q641.45 230.5 640.75 229.85Q639.95 229.1 640.3 226.6L637.4 226.25Q634.6 225.75 634.6 224.7Q634.6 224.05 635.15 223.35Q635.8 222.35 637.05 222.35Q639.05 222.35 642.05 224.2Q644.95 226.1 647.8 226.1L650.05 225.8Q649.25 225.2 649.25 224.65L649.5 223.85L649.9 223.1L647.05 223.05Q645.5 222.9 645.5 221.6Q645.5 220.3 648.75 219.15L654.2 217.1L654.2 216.75L654.4 215.9L654.7 215.15L648.2 214.95L648.2 213.45Q649.2 212.15 651.8 211.2Q655 210.05 654.2 209.6L652.75 209.75L650.5 209.55Q650.4 209.4 651.15 208.35L652.5 206.8L650.65 207.45L649.1 207.5Q647.75 207.5 647.05 206.8Q647.3 206.4 651.65 203.65Q655.65 201.2 657.45 198.4L653.9 198.6Q650.95 198.6 650.95 196.95Q650.95 196.25 652.1 195.5Q652.95 194.95 653.9 194.65L653.7 194.65L649.5 193.75Q647.05 193.2 647.05 192.05Q647.05 190.65 648.2 190.65L653.7 191.4L651.7 190.15Q649.5 188.65 649.5 187.2Q649.5 186.1 650.5 185.55L653.15 184.45L655.05 184.15L654.1 184.1Q650.3 183.55 649.75 182.2L649.9 182L652.75 181.55L655.25 181.55Q651.45 180.55 651.45 179Q651.45 178.5 651.95 177.85Q652.6 177 653.45 177L655.7 177.45L658.15 177.8Q660.05 177.7 661.7 178.5L663.65 179.25L664.3 179Q664.6 178.75 664.9 178.75L665.4 178.95L663.45 177.85Q661.35 176.55 661.35 175.85L661.85 174.95L662.35 173.8L660.25 173.75Q658.6 173.45 658.15 173Q658.65 172.15 660.05 171.05Q661.4 170.05 662.45 169.7L657.65 166.75Q657.65 166.3 658.45 165.45Q659.3 164.5 659.95 164.5Q661.25 164.5 665.45 166.95L665.7 167.1L665.1 165.85L665.05 164.85Q665.05 163.25 666.2 162.45L668.55 160.8L665.45 160.95Q663.1 160.95 663.1 159.2L668.65 155.8Q670.75 154.45 672.2 153.7L671.05 150.3L672.75 150.3L675.75 148.7L674 148.3Q672.55 147.65 672.55 145.85Q672.55 143.8 674.95 143.8Q677.7 143.75 678.4 141.15L681.2 143.45Q683.2 145.35 683.2 145.85Q683.2 146.7 680.8 147.8M676.8 157.2Q677.45 156.25 677.45 155.4L677.45 155.25L676.8 157.2M678.85 252.9L679 252.75L679.15 252.5L679.05 252.55L678.85 252.75L678.85 252.9M629.65 288.2L629.15 288.2L628.5 288.55L629.15 288.35Q629.15 288.75 629.4 288.5L629.4 288.35L629.65 288.2" />
</g>
<g id="PathID_672" transform="matrix(1, 0, 0, 1, 19.8, -141.15)">
<radialGradient
id="RadialGradID_283" gradientUnits="userSpaceOnUse" gradientTransform="matrix(0.178619, 0, 0, 0.0315399, 743.45, 330.55)" spreadMethod ="pad" cx="0" cy="0" r="819.2" fx="0" fy="0" >
<stop  offset="0.376471"  style="stop-color:#001E2C;stop-opacity:0.498039" />
<stop  offset="0.682353"  style="stop-color:#002A38;stop-opacity:0" />
</radialGradient>
<path style="fill:url(#RadialGradID_283) " d="M743.45 311.45Q785.3 311.45 814.85 317.05Q844.45 322.6 844.45 330.55Q844.45 338.45 814.85 344.05Q785.3 349.65 743.45 349.65Q701.6 349.65 672.05 344.05Q642.45 338.45 642.45 330.55Q642.45 322.6 672.05 317.05Q701.6 311.45 743.45 311.45" />
</g>
<g id="PathID_673" transform="matrix(1, 0, 0, 1, 19.8, -141.15)">
<radialGradient
id="RadialGradID_284" gradientUnits="userSpaceOnUse" gradientTransform="matrix(0.101913, 0, 0, 0.0179901, 503.55, 304.15)" spreadMethod ="pad" cx="0" cy="0" r="819.2" fx="0" fy="0" >
<stop  offset="0.376471"  style="stop-color:#001E2C;stop-opacity:0.498039" />
<stop  offset="0.682353"  style="stop-color:#002A38;stop-opacity:0" />
</radialGradient>
<path style="fill:url(#RadialGradID_284) " d="M445.95 304.15Q445.95 299.6 462.8 296.45Q479.7 293.25 503.55 293.25Q527.4 293.25 544.25 296.45Q561.2 299.6 561.2 304.15Q561.2 308.65 544.25 311.85Q527.4 315.05 503.55 315.05Q479.7 315.05 462.8 311.85Q445.95 308.65 445.95 304.15" />
</g>
<g id="PathID_674" transform="matrix(1, 0, 0, 1, 19.8, -141.15)">
<radialGradient
id="RadialGradID_285" gradientUnits="userSpaceOnUse" gradientTransform="matrix(0.098465, 0, 0, 0.0193176, 325.45, 305.65)" spreadMethod ="pad" cx="0" cy="0" r="819.2" fx="0" fy="0" >
<stop  offset="0.376471"  style="stop-color:#001E2C;stop-opacity:0.498039" />
<stop  offset="0.682353"  style="stop-color:#002A38;stop-opacity:0" />
</radialGradient>
<path style="fill:url(#RadialGradID_285) " d="M364.8 313.95Q348.5 317.35 325.45 317.35Q302.4 317.35 286.05 313.95Q269.8 310.5 269.8 305.65Q269.8 300.75 286.05 297.4Q302.4 293.95 325.45 293.95Q348.5 293.95 364.8 297.4Q381.15 300.75 381.15 305.65Q381.15 310.5 364.8 313.95" />
</g>
<g id="PathID_675" transform="matrix(1, 0, 0, 1, 19.8, -141.15)">
<radialGradient
id="RadialGradID_286" gradientUnits="userSpaceOnUse" gradientTransform="matrix(0.12764, 0, 0, 0.0225372, 386.15, 305.8)" spreadMethod ="pad" cx="0" cy="0" r="819.2" fx="0" fy="0" >
<stop  offset="0.376471"  style="stop-color:#001E2C;stop-opacity:0.498039" />
<stop  offset="0.682353"  style="stop-color:#002A38;stop-opacity:0" />
</radialGradient>
<path style="fill:url(#RadialGradID_286) " d="M386.15 292.15Q416.05 292.15 437.15 296.15Q458.35 300.1 458.35 305.8Q458.35 311.45 437.15 315.45Q416.05 319.45 386.15 319.45Q356.25 319.45 335.1 315.45Q314 311.45 314 305.8Q314 300.1 335.1 296.15Q356.25 292.15 386.15 292.15" />
</g>
<g id="PathID_676" transform="matrix(1, 0, 0, 1, 19.8, -141.15)">
<radialGradient
id="RadialGradID_287" gradientUnits="userSpaceOnUse" gradientTransform="matrix(0.159424, 0, 0, 0.0281525, 191.55, 320.7)" spreadMethod ="pad" cx="0" cy="0" r="819.2" fx="0" fy="0" >
<stop  offset="0.376471"  style="stop-color:#001E2C;stop-opacity:0.498039" />
<stop  offset="0.682353"  style="stop-color:#002A38;stop-opacity:0" />
</radialGradient>
<path style="fill:url(#RadialGradID_287) " d="M127.8 308.65Q154.2 303.65 191.55 303.65Q228.9 303.65 255.25 308.65Q281.7 313.6 281.7 320.7Q281.7 327.75 255.25 332.75Q228.9 337.75 191.55 337.75Q154.2 337.75 127.8 332.75Q101.4 327.75 101.4 320.7Q101.4 313.6 127.8 308.65" />
</g>
<g id="PathID_677" transform="matrix(1, 0, 0, 1, 19.8, -141.15)">
<radialGradient
id="RadialGradID_288" gradientUnits="userSpaceOnUse" gradientTransform="matrix(0.159424, 0, 0, 0.0281525, 70.35, 332.6)" spreadMethod ="pad" cx="0" cy="0" r="819.2" fx="0" fy="0" >
<stop  offset="0.376471"  style="stop-color:#001E2C;stop-opacity:0.498039" />
<stop  offset="0.682353"  style="stop-color:#002A38;stop-opacity:0" />
</radialGradient>
<path style="fill:url(#RadialGradID_288) " d="M6.6 344.65Q-19.8 339.65 -19.8 332.6Q-19.8 325.5 6.6 320.55Q33 315.55 70.35 315.55Q107.7 315.55 134.05 320.55Q160.5 325.5 160.5 332.6Q160.5 339.65 134.05 344.65Q107.7 349.65 70.35 349.65Q33 349.65 6.6 344.65" />
</g>
</svg>
