<?xml version="1.0" encoding="utf-8"?>
<svg version="1.1" id="Layer_1"
xmlns="http://www.w3.org/2000/svg"
xmlns:xlink="http://www.w3.org/1999/xlink"
width="118px" height="55px"
xml:space="preserve">
<g id="PathID_589" transform="matrix(1, 0, 0, 1, 58.55, 0)">
<path style="fill:none;stroke-width:0.7;stroke-linecap:round;stroke-linejoin:round;stroke-miterlimit:3;stroke:#000000;stroke-opacity:0.301961" d="M-56 6.9Q-3.7 78.9 55 8.8Q58.35 3.65 58.5 0" />
<path style="fill:none;stroke-width:0.7;stroke-linecap:round;stroke-linejoin:round;stroke-miterlimit:3;stroke:#000000;stroke-opacity:0.301961" d="M-56 6.9Q-56.95 5.65 -57.55 3.75L-58.4 0.2" />
<path style="fill:none;stroke-width:0.7;stroke-linecap:round;stroke-linejoin:round;stroke-miterlimit:3;stroke:#000000;stroke-opacity:0.301961" d="M-53.65 0.1Q0 44.7 48.2 0.1" />
</g>
<g id="PathID_590" transform="matrix(1, 0, 0, 1, 58.55, 0)">
<path style="fill:#E9F8FD;fill-opacity:1" d="M44.95 22.15L45.85 22.4L46.5 22.75L47 22.95L47.05 22.95L46.3 20.5L48 19.05L48.05 21Q48.05 22.15 48.3 22.85Q48.55 23.55 49.35 24.2L50.65 25.3L49.95 25.95L49.1 26.6Q48.65 25.05 47 24.3Q45.9 23.8 43.95 23.6L43.35 23.65L44.05 22.9L44.95 22.15M30.2 15.95L29.65 17.75Q29.35 18.85 29.35 19.55Q29.4 20.3 29.95 21.15L30.85 22.6L29.95 23L29 23.3Q29 21.75 27.65 20.5Q26.75 19.7 25 18.9L24.4 18.75L25.3 18.25Q26.2 17.8 26.35 17.85L27.1 18.35L27.65 18.9L28.05 19.25L28.15 19.25L28.15 16.75Q29.9 15.95 30.2 15.95" />
<path style="fill:#33B996;fill-opacity:1" d="M44.05 22.9L43.35 23.65L43.95 23.6Q45.9 23.8 47 24.3Q48.65 25.05 49.1 26.6L49.95 25.95L50.65 25.3L49.35 24.2Q48.55 23.55 48.3 22.85Q48.05 22.15 48.05 21L48 19.05L46.3 20.5L47.05 22.95L47 22.95L46.5 22.75L45.85 22.4L44.95 22.15L44.05 22.9M50.4 26.85L48.1 32.75L39.8 22.85Q43.45 20.05 47.75 15.65L56.1 25.55L50.4 26.85M28.15 16.75L28.15 19.25L28.05 19.25L27.65 18.9L27.1 18.35L26.35 17.85Q26.2 17.8 25.3 18.25L24.4 18.75L25 18.9Q26.75 19.7 27.65 20.5Q29 21.75 29 23.3L29.95 23L30.85 22.6L29.95 21.15Q29.4 20.3 29.35 19.55Q29.35 18.85 29.65 17.75L30.2 15.95Q29.9 15.95 28.15 16.75M35.95 24.55L30.15 23.95L26.25 28.7L21.2 16.85Q25.55 15.45 30.95 12.7L35.95 24.55" />
<path style="fill:#20609D;fill-opacity:1" d="M10.1 22.55Q11 25.65 11.25 29.1L12.85 28.8L12.4 26.3Q15.85 25.65 15.4 23.8Q14.85 21.4 12.25 22.2L10.1 22.55M14 24.05Q14.05 24.95 12 25.3L11.7 23.5Q13.55 22.95 14 24.05M17 18.9L19.25 31.6L13.75 29.7L8.85 33.45L6.6 20.75Q11.15 20.35 17 18.9M7.65 48.45L7.9 50.85L9.2 50.75L8.55 44.05L7 44.3L7.1 46.85L5.25 46.95L5.05 44.6L3.6 44.7L4.3 51.2L5.7 51.05L5.4 48.6L7.65 48.45M10.95 41.15L12 53.9L6.85 51.8L2.4 54.75L0.95 42.2L10.95 41.15" />
<path style="fill:#FAF9FE;fill-opacity:1" d="M12.25 22.2Q14.85 21.4 15.4 23.8Q15.85 25.65 12.4 26.3L12.85 28.8L11.25 29.1Q11 25.65 10.1 22.55L12.25 22.2M11.7 23.5L12 25.3Q14.05 24.95 14 24.05Q13.55 22.95 11.7 23.5M5.4 48.6L5.7 51.05L4.3 51.2L3.6 44.7L5.05 44.6L5.25 46.95L7.1 46.85L7 44.3L8.55 44.05L9.2 50.75L7.9 50.85L7.65 48.45L5.4 48.6M35.3 35.3L36.1 34.75L34.6 33.25L35.3 35.3M34.15 30.95Q36.75 33.55 39.9 35.3L38.25 36.65L37.4 35.85L35.9 36.5L36.1 37.9L34.4 38.8Q34.15 36.1 33.05 32.05L34.15 30.95M-1.9 23.85Q0.8 23.5 0.95 26Q1 27.9 -2.45 27.95L-2.45 30.45L-4.1 30.45Q-3.75 27 -4.1 23.85L-1.9 23.85M-16 22Q-15.95 25.65 -15 29.15L-17.1 28.9L-17.1 27.75L-18.65 27.15L-19.5 28.25L-21.35 27.75Q-19.65 25.7 -17.55 22L-16 22M-33.1 15.5L-34.1 17.6L-32.45 18.45L-31.25 16.25L-29.8 16.8L-32.55 22.9L-33.75 22.3L-32.8 20.1L-34.8 19.15L-35.8 21.35L-37.05 20.85L-34.4 14.85L-33.1 15.5M-23.7 40.65L-24.2 41.95L-23.55 42.3L-22.75 42.4L-22.2 42.35Q-21.9 42.25 -21.9 41.95Q-21.9 41.45 -22.5 41.15L-23.7 40.65M-20.55 40.6Q-19.8 41.95 -20.55 43.35L-23 43.5L-21.5 46.2L-23.2 46.2L-24.3 43.45L-25.25 45.65L-26.8 44.8Q-25.25 42.25 -24.45 39L-20.55 40.6M-2.7 26.85Q-0.65 26.85 -0.5 26Q-0.8 24.8 -2.7 25.05L-2.7 26.85M-17.3 26.1L-17.3 23.95L-18.25 25.85L-17.3 26.1M-48.1 22.2L-49.15 23.35L-48 24.35Q-47.1 24.1 -47.25 23.25L-48.1 22.2M-45.8 23.25Q-46.05 25.65 -47.65 25.2Q-47.2 26.7 -48.35 27.45Q-49.2 28.1 -50.4 27.2L-52.7 25.05Q-50.65 23.15 -48.7 20.55Q-46.8 21.65 -45.8 23.25M-48.9 25.2L-49.95 24.25L-50.85 25.2L-49.65 26.05Q-48.6 26.05 -48.9 25.2" />
<path style="fill:#E8FEFC;fill-opacity:1" d="M19.8 40.4Q21.75 39.7 22.75 40.7Q24.45 42.95 24.15 45.05Q22.65 46.45 20.3 47.2L18 41.35L19.8 40.4M22.75 43.9Q22.15 40.65 20 42.15L21.3 45.3Q22.8 44.85 22.75 43.9M-11 43.9L-5.7 44.3L-5.7 45.45L-7.65 45.45Q-8.4 48.1 -8 50.55L-9.85 50.55Q-9.1 48.15 -9.15 45.45L-11 45.15L-11 43.9" />
<path style="fill:#44CFB0;fill-opacity:1" d="M18 41.35L20.3 47.2Q22.65 46.45 24.15 45.05Q24.45 42.95 22.75 40.7Q21.75 39.7 19.8 40.4L18 41.35M21.3 45.3L20 42.15Q22.15 40.65 22.75 43.9Q22.8 44.85 21.3 45.3M23.05 46.85L19.35 51.25L15.05 39.5Q19.7 38.05 24.2 35.7L28.85 47.5L23.05 46.85M3.35 34.3L-1.75 31.5L-7.2 34.35L-7.2 21.45Q-2.4 21.75 3.35 21.4L3.35 34.3M-4.1 23.85Q-3.75 27 -4.1 30.45L-2.45 30.45L-2.45 27.95Q1 27.9 0.95 26Q0.8 23.5 -1.9 23.85L-4.1 23.85M-34.4 14.85L-37.05 20.85L-35.8 21.35L-34.8 19.15L-32.8 20.1L-33.75 22.3L-32.55 22.9L-29.8 16.8L-31.25 16.25L-32.45 18.45L-34.1 17.6L-33.1 15.5L-34.4 14.85M-40.45 22.95L-35.45 11.35L-26.25 15.45L-31.7 27L-35.1 22.6L-40.45 22.95M-40.15 36.3L-38.3 37.55Q-36.9 34.45 -35.15 32.1L-36.85 31.1Q-38.15 34.05 -40.15 36.3M-39.35 38.1Q-43.4 38.05 -45.1 37.3L-38.35 26.45Q-34.4 29.7 -29.8 32.5L-36.45 43.2L-39.35 38.1M-2.7 25.05Q-0.8 24.8 -0.5 26Q-0.65 26.85 -2.7 26.85L-2.7 25.05" />
<path style="fill:#307ABB;fill-opacity:1" d="M34.6 33.25L36.1 34.75L35.3 35.3L34.6 33.25M33.05 32.05Q34.15 36.1 34.4 38.8L36.1 37.9L35.9 36.5L37.4 35.85L38.25 36.65L39.9 35.3Q36.75 33.55 34.15 30.95L33.05 32.05M34.75 43.05L27.75 32.1Q31.75 30.55 36.5 26.65L43.7 37.6L37.9 37.8L34.75 43.05M-17.55 22Q-19.65 25.7 -21.35 27.75L-19.5 28.25L-18.65 27.15L-17.1 27.75L-17.1 28.9L-15 29.15Q-15.95 25.65 -16 22L-17.55 22M-22.5 41.15Q-21.9 41.45 -21.9 41.95Q-21.9 42.25 -22.2 42.35L-22.75 42.4L-23.55 42.3L-24.2 41.95L-23.7 40.65L-22.5 41.15M-24.45 39Q-25.25 42.25 -26.8 44.8L-25.25 45.65L-24.3 43.45L-23.2 46.2L-21.5 46.2L-23 43.5L-20.55 43.35Q-19.8 41.95 -20.55 40.6L-24.45 39M-30.45 47L-25.95 35.45Q-21.45 37.7 -16.3 39.3L-20.8 50.95L-24.35 46.7L-30.45 47M-18.2 29.5L-24.1 31L-21.3 18.3Q-17.35 20 -11.3 20.6L-13.9 33.45L-18.2 29.5M-18.25 25.85L-17.3 23.95L-17.3 26.1L-18.25 25.85M-47.25 23.25Q-47.1 24.1 -48 24.35L-49.15 23.35L-48.1 22.2L-47.25 23.25M-48.7 20.55Q-50.65 23.15 -52.7 25.05L-50.4 27.2Q-49.2 28.1 -48.35 27.45Q-47.2 26.7 -47.65 25.2Q-46.05 25.65 -45.8 23.25Q-46.8 21.65 -48.7 20.55M-41.3 23.35Q-45.65 27.65 -49.55 32.7L-51.35 27.5L-57.2 26.05L-48.4 16.05Q-45.5 19.7 -41.3 23.35M-49.65 26.05L-50.85 25.2L-49.95 24.25L-48.9 25.2Q-48.6 26.05 -49.65 26.05" />
<path style="fill:#EFFBFB;fill-opacity:1" d="M-36.85 31.1L-35.15 32.1Q-36.9 34.45 -38.3 37.55L-40.15 36.3Q-38.15 34.05 -36.85 31.1" />
<path style="fill:#3BC6A7;fill-opacity:1" d="M-11 45.15L-9.15 45.45Q-9.1 48.15 -9.85 50.55L-8 50.55Q-8.4 48.1 -7.65 45.45L-5.7 45.45L-5.7 44.3L-11 43.9L-11 45.15M-2.75 42.5L-4.25 54.55L-8.7 51.4L-14.1 53.05L-12.7 41Q-7.6 42.45 -2.75 42.5" />
<path style="fill:none;stroke-width:0.7;stroke-linecap:round;stroke-linejoin:round;stroke-miterlimit:3;stroke:#000000;stroke-opacity:0.301961" d="M47.75 15.65L47.6 15.45" />
<path style="fill:none;stroke-width:0.7;stroke-linecap:round;stroke-linejoin:round;stroke-miterlimit:3;stroke:#000000;stroke-opacity:0.301961" d="M56.1 25.55L47.75 15.65Q43.45 20.05 39.8 22.85L48.1 32.75L50.4 26.85L56.1 25.55z" />
<path style="fill:none;stroke-width:0.7;stroke-linecap:round;stroke-linejoin:round;stroke-miterlimit:3;stroke:#000000;stroke-opacity:0.301961" d="M30.95 12.7Q25.55 15.45 21.2 16.85L26.25 28.7L30.15 23.95L35.95 24.55L30.95 12.7z" />
<path style="fill:none;stroke-width:0.7;stroke-linecap:round;stroke-linejoin:round;stroke-miterlimit:3;stroke:#000000;stroke-opacity:0.301961" d="M17 18.9L17 18.65" />
<path style="fill:none;stroke-width:0.7;stroke-linecap:round;stroke-linejoin:round;stroke-miterlimit:3;stroke:#000000;stroke-opacity:0.301961" d="M6.6 20.75L8.85 33.45L13.75 29.7L19.25 31.6L17 18.9Q11.15 20.35 6.6 20.75z" />
<path style="fill:none;stroke-width:0.7;stroke-linecap:round;stroke-linejoin:round;stroke-miterlimit:3;stroke:#000000;stroke-opacity:0.301961" d="M10.95 41.15L12 53.9L6.85 51.8L2.4 54.75L0.95 42.2L10.95 41.15z" />
<path style="fill:none;stroke-width:0.7;stroke-linecap:round;stroke-linejoin:round;stroke-miterlimit:3;stroke:#000000;stroke-opacity:0.301961" d="M28.85 47.5L24.2 35.7Q19.7 38.05 15.05 39.5L19.35 51.25L23.05 46.85L28.85 47.5z" />
<path style="fill:none;stroke-width:0.7;stroke-linecap:round;stroke-linejoin:round;stroke-miterlimit:3;stroke:#000000;stroke-opacity:0.301961" d="M37.9 37.8L43.7 37.6L36.5 26.65Q31.75 30.55 27.75 32.1L34.75 43.05L37.9 37.8z" />
<path style="fill:none;stroke-width:0.7;stroke-linecap:round;stroke-linejoin:round;stroke-miterlimit:3;stroke:#000000;stroke-opacity:0.301961" d="M3.35 21.4Q-2.4 21.75 -7.2 21.45L-7.2 34.35L-1.75 31.5L3.35 34.3L3.35 21.4z" />
<path style="fill:none;stroke-width:0.7;stroke-linecap:round;stroke-linejoin:round;stroke-miterlimit:3;stroke:#000000;stroke-opacity:0.301961" d="M-40.45 22.95L-35.45 11.35L-26.25 15.45L-31.7 27L-35.1 22.6L-40.45 22.95z" />
<path style="fill:none;stroke-width:0.7;stroke-linecap:round;stroke-linejoin:round;stroke-miterlimit:3;stroke:#000000;stroke-opacity:0.301961" d="M-39.35 38.1Q-43.4 38.05 -45.1 37.3L-38.35 26.45Q-34.4 29.7 -29.8 32.5L-36.45 43.2L-39.35 38.1z" />
<path style="fill:none;stroke-width:0.7;stroke-linecap:round;stroke-linejoin:round;stroke-miterlimit:3;stroke:#000000;stroke-opacity:0.301961" d="M-30.45 47L-25.95 35.45Q-21.45 37.7 -16.3 39.3L-20.8 50.95L-24.35 46.7L-30.45 47z" />
<path style="fill:none;stroke-width:0.7;stroke-linecap:round;stroke-linejoin:round;stroke-miterlimit:3;stroke:#000000;stroke-opacity:0.301961" d="M-13.9 33.45L-11.3 20.6Q-17.35 20 -21.3 18.3L-24.1 31L-18.2 29.5L-13.9 33.45z" />
<path style="fill:none;stroke-width:0.7;stroke-linecap:round;stroke-linejoin:round;stroke-miterlimit:3;stroke:#000000;stroke-opacity:0.301961" d="M-12.7 41L-14.1 53.05L-8.7 51.4L-4.25 54.55L-2.75 42.5Q-7.6 42.45 -12.7 41z" />
<path style="fill:none;stroke-width:0.7;stroke-linecap:round;stroke-linejoin:round;stroke-miterlimit:3;stroke:#000000;stroke-opacity:0.301961" d="M-48.4 16.05L-57.2 26.05L-51.35 27.5L-49.55 32.7Q-45.65 27.65 -41.3 23.35Q-45.5 19.7 -48.4 16.05z" />
</g>
</svg>
