<?xml version="1.0" encoding="utf-8"?>
<svg version="1.1" id="Layer_1"
xmlns="http://www.w3.org/2000/svg"
xmlns:xlink="http://www.w3.org/1999/xlink"
width="403px" height="221px"
xml:space="preserve">
<g id="PathID_1611" transform="matrix(1, 0, 0, 1, -84.1, 0)">
<path style="fill:#A1AEC7;fill-opacity:0.8" d="M448.95 7.75Q447.35 2.95 442.45 5.75Q446.95 3 445.95 0Q447.55 3.1 451.45 1.95Q447.7 3.6 448.95 7.75M442.45 37.05Q440.2 38.05 440.95 40.55Q440 37.65 437.05 39.35Q439.75 37.7 439.15 35.9Q440.1 37.75 442.45 37.05M413.15 33.1L415.35 28.5Q417.2 29.95 419.05 27.85Q417.6 30.5 418.6 33.3L413.15 33.1M461.5 54.2Q465.55 50.05 465 48.45Q466.6 51.55 470.5 50.4Q466.75 52.05 468 56.2Q466.4 51.4 461.5 54.2M407.25 87.9Q408.2 89.75 410.55 89.05Q408.3 90.05 409.05 92.55Q408.1 89.65 405.15 91.35Q407.85 89.7 407.25 87.9M405.15 64.05Q407.85 62.4 407.25 60.6Q408.2 62.45 410.55 61.75Q408.3 62.75 409.05 65.25Q408.1 62.35 405.15 64.05M477.8 68.7Q480.5 67.05 479.9 65.25Q480.85 67.1 483.2 66.4Q480.95 67.4 481.7 69.9Q480.75 67 477.8 68.7M356.1 20Q358.6 16.95 358.5 12.8Q358.8 17.75 363.25 22.05Q359.85 19.45 356.1 20M347.2 74.7L347.15 74.55Q348.1 76.4 350.45 75.7Q348.2 76.7 348.95 79.2Q348 76.3 345.05 78Q347.65 76.4 347.2 74.7M319.5 105.3L318.15 106.9L321 105.1Q318.75 106.1 319.5 108.6Q319.05 107.2 318.15 106.9L319.5 105.3Q317.15 106.5 315.6 107.4Q318.3 105.75 317.7 103.95Q318.3 105.15 319.5 105.3M373.7 53.25Q371.4 53.1 371.85 52.65Q373.95 50.6 373.25 48.45Q374.85 51.55 378.75 50.4Q376.9 51.2 376.25 52.65Q375.95 53.35 373.7 53.25M398.9 144.2Q399.3 146.05 402.4 146.15Q399 146.1 399.65 149.1Q399.05 146.55 396.6 146.85Q399 146.25 398.9 144.2M399.75 107.4Q402.45 105.75 401.85 103.95L402.9 105.8L403.5 107.5L403.15 107.55Q402.05 106.1 399.75 107.4M334.1 139.75Q335.05 141.6 337.4 140.9Q335.15 141.9 335.9 144.4Q334.95 141.5 332 143.2Q334.7 141.55 334.1 139.75M357.75 113.45Q356.8 110.55 353.85 112.25Q356.55 110.6 355.95 108.8Q356.9 110.65 359.25 109.95Q357 110.95 357.75 113.45M350.45 165.7Q353.15 164.05 352.55 162.25Q353.5 164.1 355.85 163.4Q354.2 164.15 354.2 165.65L353.7 165.65Q352.6 164.45 350.45 165.7M354.35 166.9L353.7 165.65L354.2 165.65L354.35 166.9M382.75 165.65L382.65 165.7Q385.35 164 384.75 162.25Q385.7 164.05 386.55 166.9Q385.6 164.05 382.75 165.65M382.65 165.7L382.75 165.65M446.35 108.6Q445.4 105.7 442.45 107.4Q445.15 105.75 444.55 103.95Q445.5 105.8 447.85 105.1Q445.6 106.1 446.35 108.6M471.35 116.75Q470.1 115.35 468.65 116.45Q469.95 115.2 469.15 113.9L471.95 113.95Q469.9 115.05 471.35 116.75M449.55 153.2Q447.3 154.2 448.05 156.7Q447.1 153.8 444.15 155.5Q446.85 153.85 446.25 152.05Q447.2 153.9 449.55 153.2M384.05 220.85Q382.45 216.05 377.55 218.85Q382.05 216.1 381.05 213.1Q382.65 216.2 386.55 215.05Q382.8 216.7 384.05 220.85M277.45 48Q269.35 51.6 272.1 60.6Q268.6 50.2 258 56.15Q267.6 50.2 265.45 43.8Q268.95 50.4 277.45 48M270.2 14.4Q268.65 9.8 264 12.45Q268.25 9.85 267.3 7Q268.85 9.95 272.6 8.85Q269 10.45 270.2 14.4M214.55 18.3Q212.5 12.2 206.25 15.7Q211.95 12.2 210.65 8.45Q212.75 12.35 217.7 10.9Q212.95 13 214.55 18.3M111.45 14.4Q110.5 11.5 107.55 13.2Q110.25 11.55 109.65 9.75Q110.6 11.6 112.95 10.9Q110.7 11.9 111.45 14.4M99.7 113.25Q98.75 110.35 95.8 112.05Q98.5 110.4 97.9 108.6Q98.85 110.45 101.2 109.75Q98.95 110.75 99.7 113.25M93.1 153.4Q89.35 155.05 90.6 159.2Q89 154.4 84.1 157.2Q88.6 154.45 87.6 151.45Q89.2 154.55 93.1 153.4M149.6 192.85Q150.55 194.7 152.9 194Q150.65 195 151.4 197.5Q150.45 194.6 147.5 196.3Q150.2 194.65 149.6 192.85M97 207.9Q96.05 205 93.1 206.7Q95.8 205.05 95.2 203.25Q96.15 205.1 98.5 204.4Q96.25 205.4 97 207.9" />
<path style="fill:none;stroke-width:0.7;stroke-linecap:round;stroke-linejoin:round;stroke-miterlimit:3;stroke:#FFFFFF;stroke-opacity:0.101961" d="M418.6 33.3L461.5 54.2" />
<path style="fill:none;stroke-width:0.7;stroke-linecap:round;stroke-linejoin:round;stroke-miterlimit:3;stroke:#FFFFFF;stroke-opacity:0.101961" d="M347.2 74.7L319.5 105.3" />
<path style="fill:none;stroke-width:0.7;stroke-linecap:round;stroke-linejoin:round;stroke-miterlimit:3;stroke:#FFFFFF;stroke-opacity:0.101961" d="M319.5 105.3L318.15 106.9" />
<path style="fill:none;stroke-width:0.7;stroke-linecap:round;stroke-linejoin:round;stroke-miterlimit:3;stroke:#FFFFFF;stroke-opacity:0.101961" d="M403.15 107.55L403.5 107.5" />
<path style="fill:none;stroke-width:0.7;stroke-linecap:round;stroke-linejoin:round;stroke-miterlimit:3;stroke:#FFFFFF;stroke-opacity:0.101961" d="M403.15 107.55L402.2 107.7" />
<path style="fill:none;stroke-width:0.7;stroke-linecap:round;stroke-linejoin:round;stroke-miterlimit:3;stroke:#FFFFFF;stroke-opacity:0.101961" d="M354.2 165.65L353.7 165.65" />
<path style="fill:none;stroke-width:0.7;stroke-linecap:round;stroke-linejoin:round;stroke-miterlimit:3;stroke:#FFFFFF;stroke-opacity:0.101961" d="M353.7 165.65L353.2 165.65" />
<path style="fill:none;stroke-width:0.7;stroke-linecap:round;stroke-linejoin:round;stroke-miterlimit:3;stroke:#FFFFFF;stroke-opacity:0.101961" d="M382.75 165.65L384.2 165.65" />
<path style="fill:none;stroke-width:0.7;stroke-linecap:round;stroke-linejoin:round;stroke-miterlimit:3;stroke:#FFFFFF;stroke-opacity:0.101961" d="M382.75 165.65L354.2 165.65" />
<path style="fill:none;stroke-width:0.7;stroke-linecap:round;stroke-linejoin:round;stroke-miterlimit:3;stroke:#FFFFFF;stroke-opacity:0.101961" d="M403.5 107.5L487.1 92.35" />
</g>
</svg>
