<?xml version="1.0" encoding="utf-8"?>
<svg version="1.1" id="Layer_1"
xmlns="http://www.w3.org/2000/svg"
xmlns:xlink="http://www.w3.org/1999/xlink"
width="65px" height="49px"
xml:space="preserve">
<g id="PathID_1326" transform="matrix(1, 0, 0, 1, 28.15, 46.55)">
<path style="fill:#FFD754;fill-opacity:1" d="M30.9 -36.4L30.1 -38L28.5 -41.05L26.95 -42.75Q30.2 -42.2 29.75 -44.4Q31.8 -43.15 33.3 -41.05L34.85 -38.5Q30.9 -41.35 30.9 -36.4M-0.95 -35.15Q-1.3 -36.3 -2.4 -37.75Q-4.15 -40.05 -5 -40.3Q-3.35 -39.85 -2.35 -40.55Q-1.8 -41 -1.65 -41.5L-0.1 -40.45L1 -39.75L1.2 -39.55L1.95 -38.85L2.75 -37.7Q-1.5 -39.6 -0.95 -35.15" />
<path style="fill:#E9B32F;fill-opacity:1" d="M30.15 -23.7L6.1 -21.05L0.45 -26.1Q0.4 -29.7 -0.25 -32.8L-0.95 -35.15Q-1.5 -39.6 2.75 -37.7L3.95 -35.75L3.95 -35.7Q4.7 -34 5.15 -31.75L5.6 -27.95L5.55 -24.95L19.7 -26.35L31.85 -27.55L31.85 -30.5L31.6 -34.15L30.9 -36.4Q30.9 -41.35 34.85 -38.5Q36.15 -35.4 36.35 -31.05L30.15 -23.7M32.35 -13.45L32.35 -16.9L32.35 -20.35L32.25 -21.45L36.5 -22L36.5 -10.7L29.55 -2.95L9.35 0L0.4 -6.25L0.4 -17.25L6.15 -18L6.15 -17.2L6.15 -13.6L6.15 -10L6.15 -6.8L6.15 -3.55L14.5 -4.75L32.35 -7.25L32.35 -13.45M24.35 -44.4L21.6 -45.1Q22.25 -45.75 25.4 -46Q27.75 -45.55 29.75 -44.4Q30.2 -42.2 26.95 -42.75Q25.8 -43.75 24.35 -44.4M-5.05 -40.3L-8.15 -42.15Q-10 -44.3 -5.4 -43.35Q-4.35 -43 -3.25 -42.4L-1.65 -41.5Q-1.8 -41 -2.35 -40.55Q-3.35 -39.85 -5 -40.3L-5.05 -40.3" />
<path style="fill:#6B4C1B;fill-opacity:1" d="M-5.4 -43.35Q-7.7 -44.15 -10.3 -44.05L1.85 -45Q0.75 -43.8 -5.4 -43.35M21.6 -45.1L24.35 -44.4L22.3 -44.25L15.55 -43.7Q8.95 -43.65 6.3 -45.3L16.9 -46.15L21.6 -45.1M22.4 -37.3L18.45 -36.95L11 -36.3Q12.05 -38.2 13.4 -39.4Q16.15 -41.9 21.7 -44.15L22.3 -44.25L24.35 -44.4Q25.8 -43.75 26.95 -42.75L28.5 -41.05Q24.95 -40.1 22.4 -37.3M31.6 -34.15L31.85 -30.5L24.85 -29.8Q19.15 -35.9 7.75 -36L11 -36.3L18.45 -36.95Q22.25 -33.85 31.6 -34.15M-0.1 -40.45L-1.65 -41.5L-3.25 -42.4L8.8 -43.25Q8.35 -42.1 5.9 -40.85Q3.45 -39.5 1.2 -39.55L1 -39.75L-0.1 -40.45M11.85 -28.55Q13.95 -26.85 19.7 -26.35L5.55 -24.95L5.6 -27.95L11.85 -28.55M11.5 -10.7L6.15 -10L11.5 -10.7L14.25 -11.05Q13.95 -7.15 6.15 -6.8L6.15 -10L6.15 -13.6Q15.5 -14.75 16.5 -18.4L23.15 -19.2Q15.1 -16.5 11.5 -10.7M32.35 -16.9L32.35 -13.45L31.4 -13.3L31.25 -13.3Q22.55 -14 25.8 -19.55L29.1 -19.95Q29.3 -17.25 32.35 -16.9M32.35 -7.25L14.5 -4.75Q21.5 -8.65 17 -11.45L19.25 -11.7Q22.55 -8.1 32.35 -7.25" />
<path style="fill:#795722;fill-opacity:1" d="M-3.25 -42.4Q-4.35 -43 -5.4 -43.35Q0.75 -43.8 1.85 -45L6.3 -45.3Q8.95 -43.65 15.55 -43.7L8.8 -43.25M18.45 -36.95L22.4 -37.3L30.1 -38L22.4 -37.3Q24.95 -40.1 28.5 -41.05L30.1 -38L30.9 -36.4L31.6 -34.15Q22.25 -33.85 18.45 -36.95M7.75 -36Q19.15 -35.9 24.85 -29.8L7.45 -36L3.95 -35.7L3.95 -35.75L2.75 -37.7L1.95 -38.85L1.2 -39.55Q3.45 -39.5 5.9 -40.85Q8.35 -42.1 8.8 -43.25L-3.25 -42.4L15.55 -43.7L22.3 -44.25L21.7 -44.15Q16.15 -41.9 13.4 -39.4Q12.05 -38.2 11 -36.3L7.75 -36M5.6 -27.95L5.15 -31.75Q4.7 -34 3.95 -35.7L7.45 -36L7.75 -36M11.85 -28.55L5.6 -27.95L24.85 -29.8L31.85 -30.5L31.85 -27.55L19.7 -26.35Q13.95 -26.85 11.85 -28.55M24.85 -29.8L11.85 -28.55M32.25 -21.45L32.35 -20.35L32.35 -16.9L29.1 -19.95L25.8 -19.55Q22.55 -14 31.25 -13.3L23.15 -19.2L16.5 -18.4Q15.5 -14.75 6.15 -13.6L6.15 -17.2L6.15 -18L32.25 -21.45M6.15 -13.6L6.15 -17.2L16.5 -18.4M31.25 -13.3L19.25 -11.7L17 -11.45L14.25 -11.05L17 -11.45Q21.5 -8.65 14.5 -4.75L6.15 -3.55L6.15 -6.8Q13.95 -7.15 14.25 -11.05L11.5 -10.7Q15.1 -16.5 23.15 -19.2L25.8 -19.55M32.35 -16.9Q29.3 -17.25 29.1 -19.95L32.35 -20.35M32.35 -7.25Q22.55 -8.1 19.25 -11.7L31.25 -13.3L31.4 -13.3L32.35 -13.45L32.35 -7.25" />
<path style="fill:#B47210;fill-opacity:1" d="M32.25 -21.45L32.25 -23.95L36.5 -24.35L36.5 -22L32.25 -21.45M0.4 -6.25L-8.3 -0.3L-19.75 -2.4L-28 -10.9L-28 -26.8L-23.35 -25.75L-23.35 -22.3L-23.35 -18.35L-23.35 -14.45L-23.35 -7.45L-10.15 -4.9L-4.95 -3.9L-4.95 -7.3L-4.95 -10.65L-4.95 -14.45L-4.95 -18.25L-4.95 -21.6L0.4 -20.4L0.4 -17.25M-5.4 -43.35Q-10 -44.3 -8.15 -42.15L-5.05 -40.3L-5 -40.3Q-4.15 -40.05 -2.4 -37.75Q-1.3 -36.3 -0.95 -35.15L-0.25 -32.8Q0.4 -29.7 0.45 -26.1L-9.4 -22.6L-17.6 -24.45L-20.45 -25.1L-27.9 -32.15Q-26.45 -43.55 -16.25 -43.65L-15.85 -43.65L-10.3 -44.05Q-7.7 -44.15 -5.4 -43.35M21.6 -45.1L16.9 -46.15L22.5 -46.4L24.9 -46.1L25.4 -46Q22.25 -45.75 21.6 -45.1M33.55 -25.9L34 -26.65L34.7 -27.1L35.3 -26.75L35.65 -26.15L34.9 -25.5Q34.05 -25.05 33.95 -25.15Q33.55 -25.45 33.55 -25.9M2.45 -23.5Q2.7 -23.65 3.1 -23.2L3.6 -22.55L3.15 -21.85L2.45 -21.3L1.75 -21.7L1.3 -22.3L1.75 -23L2.45 -23.5M0.4 -17.25L0.4 -6.25L0.4 -20.4L6.1 -21.05L6.15 -18L0.4 -17.25M4.4 -0.65Q3.85 -0.35 3.6 -0.3Q3.35 -0.3 2.85 -0.65Q2.35 -1.05 2.4 -1.25L2.85 -2Q3.35 -2.5 3.75 -2.45L4.55 -1.75Q4.95 -1.05 4.4 -0.65M34.6 -4.5Q34.35 -4.45 33.9 -4.8L33.45 -5.4L34.25 -6.1Q35.05 -6.55 35.25 -6.4Q35.6 -6.2 35.6 -5.65L35.2 -5L34.6 -4.5M-15.85 -43.65L-12.55 -43.4Q-10.2 -43.05 -8.15 -42.15Q-10.2 -43.05 -12.55 -43.4L-15.85 -43.65M-22.05 -35.8Q-22.9 -34.65 -23.35 -32.8L-23.75 -29.75L-14.2 -27.55L-7.55 -25.95L-4.65 -25.3L-4.65 -28.35Q-4.75 -30.25 -5.25 -31.75Q-5.65 -32.95 -6.2 -34L-6.95 -35.2L-7.1 -35.4Q-9.45 -38.3 -13.4 -38.8Q-16.85 -39.45 -19.1 -38.4Q-20.8 -37.7 -21.75 -36.25L-22.05 -35.8" />
<path style="fill:#D09A18;fill-opacity:1" d="M36.35 -31.05L36.5 -24.35L32.25 -23.95L30.15 -23.7L36.35 -31.05M36.5 -10.7L36.5 -3.95L29.55 -2.95L36.5 -10.7M0.4 -6.25L9.35 0L0.4 1.4L0.4 -6.25M33.95 -25.15Q34.05 -25.05 34.9 -25.5L35.65 -26.15L35.3 -26.75L34.7 -27.1L34 -26.65L33.55 -25.9Q33.55 -25.45 33.95 -25.15M1.75 -23L1.3 -22.3L1.75 -21.7L2.45 -21.3L3.15 -21.85L3.6 -22.55L3.1 -23.2Q2.7 -23.65 2.45 -23.5L1.75 -23M0.45 -26.1L6.1 -21.05L0.4 -20.4L0.45 -26.1M4.55 -1.75L3.75 -2.45Q3.35 -2.5 2.85 -2L2.4 -1.25Q2.35 -1.05 2.85 -0.65Q3.35 -0.3 3.6 -0.3Q3.85 -0.35 4.4 -0.65Q4.95 -1.05 4.55 -1.75M35.2 -5L35.6 -5.65Q35.6 -6.2 35.25 -6.4Q35.05 -6.55 34.25 -6.1L33.45 -5.4L33.9 -4.8Q34.35 -4.45 34.6 -4.5L35.2 -5" />
<path style="fill:#5B3C0B;fill-opacity:1" d="M30.15 -23.7L32.25 -23.95L32.25 -21.45L6.15 -18L6.1 -21.05L30.15 -23.7M-4.95 -18.25L-7.05 -18.7L-9.15 -19.1Q-9.7 -20.9 -7.15 -22.1L-4.95 -21.6L-4.95 -18.25M-12.3 -36.7L-19.1 -38.4L-12.3 -36.7Q-15.5 -34.6 -21.75 -36.25Q-20.8 -37.7 -19.1 -38.4Q-16.85 -39.45 -13.4 -38.8Q-9.45 -38.3 -7.1 -35.4L-12.3 -36.7M-4.65 -28.35L-12.4 -30.15L-18.1 -31.55Q-15.2 -35.6 -6.2 -34Q-5.65 -32.95 -5.25 -31.75Q-4.75 -30.25 -4.65 -28.35L-4.65 -25.3L-7.55 -25.95Q-11.95 -27.65 -12.4 -30.15L-4.65 -28.35M-20.7 -32.15Q-19.65 -29.25 -14.2 -27.55L-23.75 -29.75L-23.35 -32.8L-20.7 -32.15M-17.6 -24.45Q-12.7 -23 -11 -19.55L-9.15 -19.1L-17.2 -20.9L-23.35 -22.3L-23.35 -25.75L-20.45 -25.1L-17.6 -24.45M-9.15 -19.1L-7.05 -18.7Q-17.7 -19.05 -18.4 -13.4L-20.9 -13.95L-23.35 -14.45L-23.35 -18.35Q-17.25 -16.5 -17.2 -20.9L-11 -19.55M-10.15 -4.9L-23.35 -7.45L-23.35 -14.45L-20.9 -13.95Q-20.05 -8.8 -10.15 -4.9M-10.6 -11.85L-4.95 -10.65L-10.6 -11.85L-13.35 -12.35Q-9.85 -14.9 -4.95 -14.45L-4.95 -10.65L-4.95 -7.3Q-9.3 -8.45 -10.6 -11.85" />
<path style="fill:#A3660A;fill-opacity:1" d="M0.4 -6.25L0.4 1.4L-8.3 -0.3L0.4 -6.25M-19.75 -2.4L-28 -4L-28 -10.9L-19.75 -2.4M-20.45 -25.1L-23.35 -25.75L-28 -26.8L-27.9 -32.15L-20.45 -25.1M-4.95 -21.6L-7.15 -22.1L-9.4 -22.6L0.45 -26.1L0.4 -20.4L-4.95 -21.6M-26.9 -29L-27.35 -28.4L-26.9 -27.55L-26.1 -26.9Q-25.85 -26.85 -25.35 -27.25L-24.9 -27.9L-25.35 -28.7Q-25.85 -29.25 -26.1 -29.25L-26.9 -29M-26.55 -5.85Q-26.95 -5 -26.75 -4.75Q-26.5 -4.45 -25.85 -4.3L-25.15 -4.7Q-24.65 -5.05 -24.65 -5.3Q-24.65 -5.6 -25.15 -6.1Q-25.6 -6.65 -25.85 -6.65Q-26.2 -6.7 -26.55 -5.85M-1.85 -22.15L-1.3 -22.9Q-0.95 -24 -2.45 -24.2Q-3.4 -24.45 -3.65 -23.3Q-4.1 -22.2 -2.45 -21.95L-1.85 -22.15M-2.45 -0.45Q-2.25 -0.45 -1.75 -0.8L-1.3 -1.4L-1.75 -2.2Q-2.25 -2.7 -2.45 -2.7Q-2.9 -2.8 -3.35 -2.15Q-3.85 -1.4 -3.3 -0.9Q-2.9 -0.5 -2.45 -0.45" />
<path style="fill:#543709;fill-opacity:1" d="M-9.15 -19.1L-11 -19.55Q-12.7 -23 -17.6 -24.45L-9.4 -22.6L-7.15 -22.1Q-9.7 -20.9 -9.15 -19.1M-18.1 -31.55L-20.7 -32.15L-18.1 -31.55L-12.4 -30.15Q-11.95 -27.65 -7.55 -25.95L-14.2 -27.55Q-19.65 -29.25 -20.7 -32.15L-23.35 -32.8Q-22.9 -34.65 -22.05 -35.8L-21.75 -36.25Q-15.5 -34.6 -12.3 -36.7L-7.1 -35.4L-6.95 -35.2L-6.2 -34Q-15.2 -35.6 -18.1 -31.55M-23.35 -18.35L-23.35 -22.3L-17.2 -20.9Q-17.25 -16.5 -23.35 -18.35M-18.4 -13.4L-13.35 -12.35L-10.6 -11.85Q-9.3 -8.45 -4.95 -7.3L-4.95 -3.9L-10.15 -4.9Q-20.05 -8.8 -20.9 -13.95L-18.4 -13.4Q-17.7 -19.05 -7.05 -18.7L-4.95 -18.25L-4.95 -14.45Q-9.85 -14.9 -13.35 -12.35L-18.4 -13.4" />
<path style="fill:#985A00;fill-opacity:1" d="M-26.1 -29.25Q-25.85 -29.25 -25.35 -28.7L-24.9 -27.9L-25.35 -27.25Q-25.85 -26.85 -26.1 -26.9L-26.9 -27.55L-27.35 -28.4L-26.9 -29L-26.1 -29.25M-25.85 -6.65Q-25.6 -6.65 -25.15 -6.1Q-24.65 -5.6 -24.65 -5.3Q-24.65 -5.05 -25.15 -4.7L-25.85 -4.3Q-26.5 -4.45 -26.75 -4.75Q-26.95 -5 -26.55 -5.85Q-26.2 -6.7 -25.85 -6.65M-2.45 -21.95Q-4.1 -22.2 -3.65 -23.3Q-3.4 -24.45 -2.45 -24.2Q-0.95 -24 -1.3 -22.9L-1.85 -22.15L-2.45 -21.95M-3.3 -0.9Q-3.85 -1.4 -3.35 -2.15Q-2.9 -2.8 -2.45 -2.7Q-2.25 -2.7 -1.75 -2.2L-1.3 -1.4L-1.75 -0.8Q-2.25 -0.45 -2.45 -0.45Q-2.9 -0.5 -3.3 -0.9" />
<path style="fill:none;stroke-width:0.7;stroke-linecap:round;stroke-linejoin:round;stroke-miterlimit:3;stroke:#000000;stroke-opacity:0.301961" d="M29.75 -44.4Q31.8 -43.15 33.3 -41.05L34.85 -38.5Q36.15 -35.4 36.35 -31.05L36.5 -24.35L36.5 -22L36.5 -10.7L36.5 -3.95L29.55 -2.95L9.35 0L0.4 1.4L-8.3 -0.3L-19.75 -2.4L-28 -4L-28 -10.9L-28 -26.8L-27.9 -32.15Q-26.45 -43.55 -16.25 -43.65L-15.85 -43.65L-10.3 -44.05L1.85 -45L6.3 -45.3L16.9 -46.15L22.5 -46.4L24.9 -46.1L25.4 -46Q27.75 -45.55 29.75 -44.4z" />
<path style="fill:none;stroke-width:0.7;stroke-linecap:round;stroke-linejoin:round;stroke-miterlimit:3;stroke:#000000;stroke-opacity:0.301961" d="M26.95 -42.75L28.5 -41.05L30.1 -38L30.9 -36.4" />
<path style="fill:none;stroke-width:0.7;stroke-linecap:round;stroke-linejoin:round;stroke-miterlimit:3;stroke:#000000;stroke-opacity:0.160784" d="M22.3 -44.25L21.7 -44.15Q16.15 -41.9 13.4 -39.4Q12.05 -38.2 11 -36.3" />
<path style="fill:none;stroke-width:0.7;stroke-linecap:round;stroke-linejoin:round;stroke-miterlimit:3;stroke:#000000;stroke-opacity:0.301961" d="M11 -36.3L18.45 -36.95L22.4 -37.3" />
<path style="fill:none;stroke-width:0.7;stroke-linecap:round;stroke-linejoin:round;stroke-miterlimit:3;stroke:#000000;stroke-opacity:0.160784" d="M22.4 -37.3Q24.95 -40.1 28.5 -41.05" />
<path style="fill:none;stroke-width:0.7;stroke-linecap:round;stroke-linejoin:round;stroke-miterlimit:3;stroke:#000000;stroke-opacity:0.301961" d="M24.35 -44.4L22.3 -44.25L15.55 -43.7L8.8 -43.25" />
<path style="fill:none;stroke-width:0.7;stroke-linecap:round;stroke-linejoin:round;stroke-miterlimit:3;stroke:#000000;stroke-opacity:0.160784" d="M8.8 -43.25Q8.35 -42.1 5.9 -40.85Q3.45 -39.5 1.2 -39.55" />
<path style="fill:none;stroke-width:0.7;stroke-linecap:round;stroke-linejoin:round;stroke-miterlimit:3;stroke:#000000;stroke-opacity:0.301961" d="M1.2 -39.55L1.95 -38.85L2.75 -37.7L3.95 -35.75L3.95 -35.7L7.45 -36" />
<path style="fill:none;stroke-width:0.7;stroke-linecap:round;stroke-linejoin:round;stroke-miterlimit:3;stroke:#000000;stroke-opacity:0.160784" d="M7.45 -36L7.75 -36" />
<path style="fill:none;stroke-width:0.7;stroke-linecap:round;stroke-linejoin:round;stroke-miterlimit:3;stroke:#000000;stroke-opacity:0.301961" d="M7.75 -36L11 -36.3" />
<path style="fill:none;stroke-width:0.7;stroke-linecap:round;stroke-linejoin:round;stroke-miterlimit:3;stroke:#000000;stroke-opacity:0.301961" d="M24.35 -44.4L21.6 -45.1L16.9 -46.15" />
<path style="fill:none;stroke-width:0.7;stroke-linecap:round;stroke-linejoin:round;stroke-miterlimit:3;stroke:#000000;stroke-opacity:0.301961" d="M26.95 -42.75Q25.8 -43.75 24.35 -44.4" />
<path style="fill:none;stroke-width:0.7;stroke-linecap:round;stroke-linejoin:round;stroke-miterlimit:3;stroke:#000000;stroke-opacity:0.301961" d="M30.1 -38L22.4 -37.3" />
<path style="fill:none;stroke-width:0.7;stroke-linecap:round;stroke-linejoin:round;stroke-miterlimit:3;stroke:#000000;stroke-opacity:0.301961" d="M30.9 -36.4L31.6 -34.15L31.85 -30.5L31.85 -27.55L19.7 -26.35L5.55 -24.95L5.6 -27.95L5.15 -31.75Q4.7 -34 3.95 -35.7" />
<path style="fill:none;stroke-width:0.7;stroke-linecap:round;stroke-linejoin:round;stroke-miterlimit:3;stroke:#000000;stroke-opacity:0.301961" d="M33.55 -25.9L34 -26.65L34.7 -27.1L35.3 -26.75L35.65 -26.15L34.9 -25.5Q34.05 -25.05 33.95 -25.15Q33.55 -25.45 33.55 -25.9z" />
<path style="fill:none;stroke-width:0.7;stroke-linecap:round;stroke-linejoin:round;stroke-miterlimit:3;stroke:#000000;stroke-opacity:0.301961" d="M31.85 -30.5L24.85 -29.8L11.85 -28.55" />
<path style="fill:none;stroke-width:0.7;stroke-linecap:round;stroke-linejoin:round;stroke-miterlimit:3;stroke:#000000;stroke-opacity:0.160784" d="M11.85 -28.55Q13.95 -26.85 19.7 -26.35" />
<path style="fill:none;stroke-width:0.7;stroke-linecap:round;stroke-linejoin:round;stroke-miterlimit:3;stroke:#000000;stroke-opacity:0.160784" d="M1 -39.75L1.2 -39.55" />
<path style="fill:none;stroke-width:0.7;stroke-linecap:round;stroke-linejoin:round;stroke-miterlimit:3;stroke:#000000;stroke-opacity:0.160784" d="M15.55 -43.7Q8.95 -43.65 6.3 -45.3" />
<path style="fill:none;stroke-width:0.7;stroke-linecap:round;stroke-linejoin:round;stroke-miterlimit:3;stroke:#000000;stroke-opacity:0.301961" d="M5.6 -27.95L11.85 -28.55" />
<path style="fill:none;stroke-width:0.7;stroke-linecap:round;stroke-linejoin:round;stroke-miterlimit:3;stroke:#000000;stroke-opacity:0.301961" d="M2.45 -23.5Q2.7 -23.65 3.1 -23.2L3.6 -22.55L3.15 -21.85L2.45 -21.3L1.75 -21.7L1.3 -22.3L1.75 -23L2.45 -23.5z" />
<path style="fill:none;stroke-width:0.7;stroke-linecap:round;stroke-linejoin:round;stroke-miterlimit:3;stroke:#000000;stroke-opacity:0.301961" d="M6.15 -18L6.15 -17.2L16.5 -18.4L23.15 -19.2L25.8 -19.55L29.1 -19.95L32.35 -20.35L32.25 -21.45" />
<path style="fill:none;stroke-width:0.7;stroke-linecap:round;stroke-linejoin:round;stroke-miterlimit:3;stroke:#000000;stroke-opacity:0.301961" d="M6.15 -18L6.1 -21.05L0.4 -20.4L0.4 -17.25" />
<path style="fill:none;stroke-width:0.7;stroke-linecap:round;stroke-linejoin:round;stroke-miterlimit:3;stroke:#000000;stroke-opacity:0.301961" d="M6.15 -13.6L6.15 -17.2" />
<path style="fill:none;stroke-width:0.7;stroke-linecap:round;stroke-linejoin:round;stroke-miterlimit:3;stroke:#000000;stroke-opacity:0.301961" d="M6.15 -6.8L6.15 -10L6.15 -13.6" />
<path style="fill:none;stroke-width:0.7;stroke-linecap:round;stroke-linejoin:round;stroke-miterlimit:3;stroke:#000000;stroke-opacity:0.160784" d="M6.15 -13.6Q15.5 -14.75 16.5 -18.4" />
<path style="fill:none;stroke-width:0.7;stroke-linecap:round;stroke-linejoin:round;stroke-miterlimit:3;stroke:#000000;stroke-opacity:0.301961" d="M4.4 -0.65Q3.85 -0.35 3.6 -0.3Q3.35 -0.3 2.85 -0.65Q2.35 -1.05 2.4 -1.25L2.85 -2Q3.35 -2.5 3.75 -2.45L4.55 -1.75Q4.95 -1.05 4.4 -0.65z" />
<path style="fill:none;stroke-width:0.7;stroke-linecap:round;stroke-linejoin:round;stroke-miterlimit:3;stroke:#000000;stroke-opacity:0.301961" d="M14.5 -4.75L6.15 -3.55L6.15 -6.8" />
<path style="fill:none;stroke-width:0.7;stroke-linecap:round;stroke-linejoin:round;stroke-miterlimit:3;stroke:#000000;stroke-opacity:0.160784" d="M6.15 -6.8Q13.95 -7.15 14.25 -11.05" />
<path style="fill:none;stroke-width:0.7;stroke-linecap:round;stroke-linejoin:round;stroke-miterlimit:3;stroke:#000000;stroke-opacity:0.301961" d="M14.25 -11.05L11.5 -10.7L6.15 -10" />
<path style="fill:none;stroke-width:0.7;stroke-linecap:round;stroke-linejoin:round;stroke-miterlimit:3;stroke:#000000;stroke-opacity:0.301961" d="M14.25 -11.05L17 -11.45L19.25 -11.7L31.25 -13.3" />
<path style="fill:none;stroke-width:0.7;stroke-linecap:round;stroke-linejoin:round;stroke-miterlimit:3;stroke:#000000;stroke-opacity:0.160784" d="M31.25 -13.3Q22.55 -14 25.8 -19.55" />
<path style="fill:none;stroke-width:0.7;stroke-linecap:round;stroke-linejoin:round;stroke-miterlimit:3;stroke:#000000;stroke-opacity:0.160784" d="M17 -11.45Q21.5 -8.65 14.5 -4.75" />
<path style="fill:none;stroke-width:0.7;stroke-linecap:round;stroke-linejoin:round;stroke-miterlimit:3;stroke:#000000;stroke-opacity:0.301961" d="M14.5 -4.75L32.35 -7.25" />
<path style="fill:none;stroke-width:0.7;stroke-linecap:round;stroke-linejoin:round;stroke-miterlimit:3;stroke:#000000;stroke-opacity:0.160784" d="M32.35 -7.25Q22.55 -8.1 19.25 -11.7" />
<path style="fill:none;stroke-width:0.7;stroke-linecap:round;stroke-linejoin:round;stroke-miterlimit:3;stroke:#000000;stroke-opacity:0.301961" d="M0.4 -17.25L0.4 -6.25L9.35 0" />
<path style="fill:none;stroke-width:0.7;stroke-linecap:round;stroke-linejoin:round;stroke-miterlimit:3;stroke:#000000;stroke-opacity:0.301961" d="M32.25 -23.95L32.25 -21.45" />
<path style="fill:none;stroke-width:0.7;stroke-linecap:round;stroke-linejoin:round;stroke-miterlimit:3;stroke:#000000;stroke-opacity:0.160784" d="M31.25 -13.3L31.4 -13.3" />
<path style="fill:none;stroke-width:0.7;stroke-linecap:round;stroke-linejoin:round;stroke-miterlimit:3;stroke:#000000;stroke-opacity:0.301961" d="M31.4 -13.3L32.35 -13.45L32.35 -16.9" />
<path style="fill:none;stroke-width:0.7;stroke-linecap:round;stroke-linejoin:round;stroke-miterlimit:3;stroke:#000000;stroke-opacity:0.160784" d="M32.35 -16.9Q29.3 -17.25 29.1 -19.95" />
<path style="fill:none;stroke-width:0.7;stroke-linecap:round;stroke-linejoin:round;stroke-miterlimit:3;stroke:#000000;stroke-opacity:0.301961" d="M32.25 -23.95L36.5 -24.35" />
<path style="fill:none;stroke-width:0.7;stroke-linecap:round;stroke-linejoin:round;stroke-miterlimit:3;stroke:#000000;stroke-opacity:0.301961" d="M32.35 -20.35L32.35 -16.9" />
<path style="fill:none;stroke-width:0.7;stroke-linecap:round;stroke-linejoin:round;stroke-miterlimit:3;stroke:#000000;stroke-opacity:0.301961" d="M35.2 -5L35.6 -5.65Q35.6 -6.2 35.25 -6.4Q35.05 -6.55 34.25 -6.1L33.45 -5.4L33.9 -4.8Q34.35 -4.45 34.6 -4.5L35.2 -5z" />
<path style="fill:none;stroke-width:0.7;stroke-linecap:round;stroke-linejoin:round;stroke-miterlimit:3;stroke:#000000;stroke-opacity:0.301961" d="M29.55 -2.95L36.5 -10.7" />
<path style="fill:none;stroke-width:0.7;stroke-linecap:round;stroke-linejoin:round;stroke-miterlimit:3;stroke:#000000;stroke-opacity:0.301961" d="M32.35 -13.45L32.35 -7.25" />
<path style="fill:none;stroke-width:0.7;stroke-linecap:round;stroke-linejoin:round;stroke-miterlimit:3;stroke:#000000;stroke-opacity:0.301961" d="M30.15 -23.7L32.25 -23.95" />
<path style="fill:none;stroke-width:0.7;stroke-linecap:round;stroke-linejoin:round;stroke-miterlimit:3;stroke:#000000;stroke-opacity:0.301961" d="M0.45 -26.1L6.1 -21.05L30.15 -23.7L36.35 -31.05" />
<path style="fill:none;stroke-width:0.7;stroke-linecap:round;stroke-linejoin:round;stroke-miterlimit:3;stroke:#000000;stroke-opacity:0.160784" d="M11.5 -10.7Q15.1 -16.5 23.15 -19.2" />
<path style="fill:none;stroke-width:0.7;stroke-linecap:round;stroke-linejoin:round;stroke-miterlimit:3;stroke:#000000;stroke-opacity:0.160784" d="M24.85 -29.8Q19.15 -35.9 7.75 -36" />
<path style="fill:none;stroke-width:0.7;stroke-linecap:round;stroke-linejoin:round;stroke-miterlimit:3;stroke:#000000;stroke-opacity:0.301961" d="M0.4 -20.4L0.45 -26.1L-9.4 -22.6L-7.15 -22.1L-4.95 -21.6L0.4 -20.4z" />
<path style="fill:none;stroke-width:0.7;stroke-linecap:round;stroke-linejoin:round;stroke-miterlimit:3;stroke:#000000;stroke-opacity:0.160784" d="M18.45 -36.95Q22.25 -33.85 31.6 -34.15" />
<path style="fill:none;stroke-width:0.7;stroke-linecap:round;stroke-linejoin:round;stroke-miterlimit:3;stroke:#000000;stroke-opacity:0.301961" d="M0.4 -6.25L0.4 1.4" />
<path style="fill:none;stroke-width:0.7;stroke-linecap:round;stroke-linejoin:round;stroke-miterlimit:3;stroke:#000000;stroke-opacity:0.301961" d="M-5 -40.3Q-4.15 -40.05 -2.4 -37.75Q-1.3 -36.3 -0.95 -35.15" />
<path style="fill:none;stroke-width:0.7;stroke-linecap:round;stroke-linejoin:round;stroke-miterlimit:3;stroke:#000000;stroke-opacity:0.301961" d="M-1.65 -41.5L-0.1 -40.45L1 -39.75" />
<path style="fill:none;stroke-width:0.7;stroke-linecap:round;stroke-linejoin:round;stroke-miterlimit:3;stroke:#000000;stroke-opacity:0.301961" d="M-3.25 -42.4L-1.65 -41.5" />
<path style="fill:none;stroke-width:0.7;stroke-linecap:round;stroke-linejoin:round;stroke-miterlimit:3;stroke:#000000;stroke-opacity:0.301961" d="M-8.15 -42.15L-5.05 -40.3L-5 -40.3" />
<path style="fill:none;stroke-width:0.7;stroke-linecap:round;stroke-linejoin:round;stroke-miterlimit:3;stroke:#000000;stroke-opacity:0.301961" d="M-8.15 -42.15Q-10.2 -43.05 -12.55 -43.4L-15.85 -43.65" />
<path style="fill:none;stroke-width:0.7;stroke-linecap:round;stroke-linejoin:round;stroke-miterlimit:3;stroke:#000000;stroke-opacity:0.301961" d="M-3.25 -42.4Q-4.35 -43 -5.4 -43.35Q-7.7 -44.15 -10.3 -44.05" />
<path style="fill:none;stroke-width:0.7;stroke-linecap:round;stroke-linejoin:round;stroke-miterlimit:3;stroke:#000000;stroke-opacity:0.301961" d="M-21.75 -36.25Q-20.8 -37.7 -19.1 -38.4Q-16.85 -39.45 -13.4 -38.8Q-9.45 -38.3 -7.1 -35.4L-6.95 -35.2L-6.2 -34Q-5.65 -32.95 -5.25 -31.75Q-4.75 -30.25 -4.65 -28.35L-4.65 -25.3L-7.55 -25.95L-14.2 -27.55L-23.75 -29.75L-23.35 -32.8Q-22.9 -34.65 -22.05 -35.8L-21.75 -36.25z" />
<path style="fill:none;stroke-width:0.7;stroke-linecap:round;stroke-linejoin:round;stroke-miterlimit:3;stroke:#000000;stroke-opacity:0.160784" d="M-21.75 -36.25Q-15.5 -34.6 -12.3 -36.7" />
<path style="fill:none;stroke-width:0.7;stroke-linecap:round;stroke-linejoin:round;stroke-miterlimit:3;stroke:#000000;stroke-opacity:0.301961" d="M-12.3 -36.7L-19.1 -38.4" />
<path style="fill:none;stroke-width:0.7;stroke-linecap:round;stroke-linejoin:round;stroke-miterlimit:3;stroke:#000000;stroke-opacity:0.301961" d="M-12.4 -30.15L-18.1 -31.55L-20.7 -32.15" />
<path style="fill:none;stroke-width:0.7;stroke-linecap:round;stroke-linejoin:round;stroke-miterlimit:3;stroke:#000000;stroke-opacity:0.160784" d="M-20.7 -32.15Q-19.65 -29.25 -14.2 -27.55" />
<path style="fill:none;stroke-width:0.7;stroke-linecap:round;stroke-linejoin:round;stroke-miterlimit:3;stroke:#000000;stroke-opacity:0.301961" d="M-0.95 -35.15L-0.25 -32.8Q0.4 -29.7 0.45 -26.1" />
<path style="fill:none;stroke-width:0.7;stroke-linecap:round;stroke-linejoin:round;stroke-miterlimit:3;stroke:#000000;stroke-opacity:0.160784" d="M-7.55 -25.95Q-11.95 -27.65 -12.4 -30.15" />
<path style="fill:none;stroke-width:0.7;stroke-linecap:round;stroke-linejoin:round;stroke-miterlimit:3;stroke:#000000;stroke-opacity:0.301961" d="M-12.4 -30.15L-4.65 -28.35" />
<path style="fill:none;stroke-width:0.7;stroke-linecap:round;stroke-linejoin:round;stroke-miterlimit:3;stroke:#000000;stroke-opacity:0.301961" d="M-12.3 -36.7L-7.1 -35.4" />
<path style="fill:none;stroke-width:0.7;stroke-linecap:round;stroke-linejoin:round;stroke-miterlimit:3;stroke:#000000;stroke-opacity:0.160784" d="M-18.1 -31.55Q-15.2 -35.6 -6.2 -34" />
<path style="fill:none;stroke-width:0.7;stroke-linecap:round;stroke-linejoin:round;stroke-miterlimit:3;stroke:#000000;stroke-opacity:0.301961" d="M-23.35 -32.8L-20.7 -32.15" />
<path style="fill:none;stroke-width:0.7;stroke-linecap:round;stroke-linejoin:round;stroke-miterlimit:3;stroke:#000000;stroke-opacity:0.301961" d="M-26.1 -29.25Q-25.85 -29.25 -25.35 -28.7L-24.9 -27.9L-25.35 -27.25Q-25.85 -26.85 -26.1 -26.9L-26.9 -27.55L-27.35 -28.4L-26.9 -29L-26.1 -29.25z" />
<path style="fill:none;stroke-width:0.7;stroke-linecap:round;stroke-linejoin:round;stroke-miterlimit:3;stroke:#000000;stroke-opacity:0.301961" d="M-23.35 -25.75L-20.45 -25.1L-27.9 -32.15" />
<path style="fill:none;stroke-width:0.7;stroke-linecap:round;stroke-linejoin:round;stroke-miterlimit:3;stroke:#000000;stroke-opacity:0.301961" d="M-28 -26.8L-23.35 -25.75L-23.35 -22.3L-17.2 -20.9L-11 -19.55" />
<path style="fill:none;stroke-width:0.7;stroke-linecap:round;stroke-linejoin:round;stroke-miterlimit:3;stroke:#000000;stroke-opacity:0.160784" d="M-11 -19.55Q-12.7 -23 -17.6 -24.45" />
<path style="fill:none;stroke-width:0.7;stroke-linecap:round;stroke-linejoin:round;stroke-miterlimit:3;stroke:#000000;stroke-opacity:0.301961" d="M-17.6 -24.45L-20.45 -25.1" />
<path style="fill:none;stroke-width:0.7;stroke-linecap:round;stroke-linejoin:round;stroke-miterlimit:3;stroke:#000000;stroke-opacity:0.301961" d="M-23.35 -18.35L-23.35 -14.45L-20.9 -13.95L-18.4 -13.4" />
<path style="fill:none;stroke-width:0.7;stroke-linecap:round;stroke-linejoin:round;stroke-miterlimit:3;stroke:#000000;stroke-opacity:0.160784" d="M-18.4 -13.4Q-17.7 -19.05 -7.05 -18.7" />
<path style="fill:none;stroke-width:0.7;stroke-linecap:round;stroke-linejoin:round;stroke-miterlimit:3;stroke:#000000;stroke-opacity:0.301961" d="M-7.05 -18.7L-9.15 -19.1L-11 -19.55" />
<path style="fill:none;stroke-width:0.7;stroke-linecap:round;stroke-linejoin:round;stroke-miterlimit:3;stroke:#000000;stroke-opacity:0.301961" d="M-23.35 -22.3L-23.35 -18.35" />
<path style="fill:none;stroke-width:0.7;stroke-linecap:round;stroke-linejoin:round;stroke-miterlimit:3;stroke:#000000;stroke-opacity:0.160784" d="M-23.35 -18.35Q-17.25 -16.5 -17.2 -20.9" />
<path style="fill:none;stroke-width:0.7;stroke-linecap:round;stroke-linejoin:round;stroke-miterlimit:3;stroke:#000000;stroke-opacity:0.301961" d="M-25.85 -6.65Q-25.6 -6.65 -25.15 -6.1Q-24.65 -5.6 -24.65 -5.3Q-24.65 -5.05 -25.15 -4.7L-25.85 -4.3Q-26.5 -4.45 -26.75 -4.75Q-26.95 -5 -26.55 -5.85Q-26.2 -6.7 -25.85 -6.65z" />
<path style="fill:none;stroke-width:0.7;stroke-linecap:round;stroke-linejoin:round;stroke-miterlimit:3;stroke:#000000;stroke-opacity:0.301961" d="M-10.15 -4.9L-23.35 -7.45L-23.35 -14.45" />
<path style="fill:none;stroke-width:0.7;stroke-linecap:round;stroke-linejoin:round;stroke-miterlimit:3;stroke:#000000;stroke-opacity:0.301961" d="M-2.45 -21.95Q-4.1 -22.2 -3.65 -23.3Q-3.4 -24.45 -2.45 -24.2Q-0.95 -24 -1.3 -22.9L-1.85 -22.15L-2.45 -21.95z" />
<path style="fill:none;stroke-width:0.7;stroke-linecap:round;stroke-linejoin:round;stroke-miterlimit:3;stroke:#000000;stroke-opacity:0.160784" d="M-9.15 -19.1Q-9.7 -20.9 -7.15 -22.1" />
<path style="fill:none;stroke-width:0.7;stroke-linecap:round;stroke-linejoin:round;stroke-miterlimit:3;stroke:#000000;stroke-opacity:0.301961" d="M-4.95 -18.25L-4.95 -14.45L-4.95 -10.65L-4.95 -7.3L-4.95 -3.9L-10.15 -4.9" />
<path style="fill:none;stroke-width:0.7;stroke-linecap:round;stroke-linejoin:round;stroke-miterlimit:3;stroke:#000000;stroke-opacity:0.160784" d="M-10.15 -4.9Q-20.05 -8.8 -20.9 -13.95" />
<path style="fill:none;stroke-width:0.7;stroke-linecap:round;stroke-linejoin:round;stroke-miterlimit:3;stroke:#000000;stroke-opacity:0.301961" d="M-7.05 -18.7L-4.95 -18.25L-4.95 -21.6" />
<path style="fill:none;stroke-width:0.7;stroke-linecap:round;stroke-linejoin:round;stroke-miterlimit:3;stroke:#000000;stroke-opacity:0.301961" d="M-13.35 -12.35L-10.6 -11.85L-4.95 -10.65" />
<path style="fill:none;stroke-width:0.7;stroke-linecap:round;stroke-linejoin:round;stroke-miterlimit:3;stroke:#000000;stroke-opacity:0.301961" d="M-3.3 -0.9Q-3.85 -1.4 -3.35 -2.15Q-2.9 -2.8 -2.45 -2.7Q-2.25 -2.7 -1.75 -2.2L-1.3 -1.4L-1.75 -0.8Q-2.25 -0.45 -2.45 -0.45Q-2.9 -0.5 -3.3 -0.9z" />
<path style="fill:none;stroke-width:0.7;stroke-linecap:round;stroke-linejoin:round;stroke-miterlimit:3;stroke:#000000;stroke-opacity:0.160784" d="M-4.95 -14.45Q-9.85 -14.9 -13.35 -12.35" />
<path style="fill:none;stroke-width:0.7;stroke-linecap:round;stroke-linejoin:round;stroke-miterlimit:3;stroke:#000000;stroke-opacity:0.301961" d="M-13.35 -12.35L-18.4 -13.4" />
<path style="fill:none;stroke-width:0.7;stroke-linecap:round;stroke-linejoin:round;stroke-miterlimit:3;stroke:#000000;stroke-opacity:0.160784" d="M-10.6 -11.85Q-9.3 -8.45 -4.95 -7.3" />
<path style="fill:none;stroke-width:0.7;stroke-linecap:round;stroke-linejoin:round;stroke-miterlimit:3;stroke:#000000;stroke-opacity:0.301961" d="M-9.4 -22.6L-17.6 -24.45" />
<path style="fill:none;stroke-width:0.7;stroke-linecap:round;stroke-linejoin:round;stroke-miterlimit:3;stroke:#000000;stroke-opacity:0.301961" d="M-28 -10.9L-19.75 -2.4" />
<path style="fill:none;stroke-width:0.7;stroke-linecap:round;stroke-linejoin:round;stroke-miterlimit:3;stroke:#000000;stroke-opacity:0.301961" d="M8.8 -43.25L-3.25 -42.4" />
<path style="fill:none;stroke-width:0.7;stroke-linecap:round;stroke-linejoin:round;stroke-miterlimit:3;stroke:#000000;stroke-opacity:0.301961" d="M0.4 -6.25L-8.3 -0.3" />
<path style="fill:none;stroke-width:0.7;stroke-linecap:round;stroke-linejoin:round;stroke-miterlimit:3;stroke:#000000;stroke-opacity:0.160784" d="M1.85 -45Q0.75 -43.8 -5.4 -43.35" />
</g>
<g id="PathID_1327" transform="matrix(1, 0, 0, 1, 28.15, 46.55)">
<path style="fill:#FFD754;fill-opacity:1" d="M24.95 -28.6Q26.6 -27.9 27 -25.9Q25.1 -26.25 23.25 -23.45L23.6 -24Q24 -24.4 24 -24.85Q24 -25.85 23.25 -25.95L24.95 -28.6M20.55 -19.45L18.35 -19.15L18.35 -19.75L18.35 -22.5Q19.7 -22.05 21.55 -24.3L21.6 -24.25L21.9 -23.8L21.6 -22.6L21.7 -21.75Q20.05 -20.45 20.55 -19.45" />
<path style="fill:#694519;fill-opacity:1" d="M23.15 -23L23.3 -22.05Q23.25 -21.4 22.2 -21.4Q21.8 -21.4 21.7 -21.75L21.6 -22.6L21.9 -23.8L21.6 -24.25L21.55 -24.3L21.3 -24.85Q21.3 -25.95 22.65 -26L23.25 -25.95Q24 -25.85 24 -24.85Q24 -24.4 23.6 -24L23.25 -23.45L23.15 -23" />
<path style="fill:#B47210;fill-opacity:1" d="M18.35 -19.15L15.85 -19.75L15.95 -25.2Q16.65 -28.95 20.55 -29.05L21.7 -29Q20.2 -28.75 19.4 -27.75Q18.7 -26.9 18.35 -25.2L18.35 -22.5L18.35 -19.75L18.35 -19.15" />
<path style="fill:#E9B32F;fill-opacity:1" d="M20.55 -19.45Q20.05 -20.45 21.7 -21.75Q21.8 -21.4 22.2 -21.4Q23.25 -21.4 23.3 -22.05L23.15 -23L23.25 -23.45Q25.1 -26.25 27 -25.9L27 -20.5L20.55 -19.45M18.35 -22.5L18.35 -25.2Q18.7 -26.9 19.4 -27.75Q20.2 -28.75 21.7 -29L22.55 -29.05L24.95 -28.6L23.25 -25.95L22.65 -26Q21.3 -25.95 21.3 -24.85L21.55 -24.3Q19.7 -22.05 18.35 -22.5" />
<path style="fill:none;stroke-width:0.7;stroke-linecap:round;stroke-linejoin:round;stroke-miterlimit:3;stroke:#000000;stroke-opacity:0.301961" d="M27 -25.9Q26.6 -27.9 24.95 -28.6" />
<path style="fill:none;stroke-width:0.7;stroke-linecap:round;stroke-linejoin:round;stroke-miterlimit:3;stroke:#000000;stroke-opacity:0.301961" d="M18.35 -19.15L15.85 -19.75L15.95 -25.2Q16.65 -28.95 20.55 -29.05L21.7 -29L22.55 -29.05L24.95 -28.6" />
<path style="fill:none;stroke-width:0.7;stroke-linecap:round;stroke-linejoin:round;stroke-miterlimit:3;stroke:#000000;stroke-opacity:0.301961" d="M21.7 -29Q20.2 -28.75 19.4 -27.75Q18.7 -26.9 18.35 -25.2L18.35 -22.5" />
<path style="fill:none;stroke-width:0.7;stroke-linecap:round;stroke-linejoin:round;stroke-miterlimit:3;stroke:#000000;stroke-opacity:0.301961" d="M18.35 -22.5L18.35 -19.75L18.35 -19.15L20.55 -19.45" />
<path style="fill:none;stroke-width:0.7;stroke-linecap:round;stroke-linejoin:round;stroke-miterlimit:3;stroke:#000000;stroke-opacity:0.301961" d="M27 -25.9L27 -20.5L20.55 -19.45" />
</g>
</svg>
