<?xml version="1.0" encoding="utf-8"?>
<svg version="1.1" id="Layer_1"
xmlns="http://www.w3.org/2000/svg"
xmlns:xlink="http://www.w3.org/1999/xlink"
width="42px" height="34px"
xml:space="preserve">
<g id="PathID_459" transform="matrix(1, 0, 0, 1, 20.85, 68)">
<path style="fill:#DD3835;fill-opacity:1" d="M11.25 -58.75L12.25 -58.7L14.7 -57.8Q13.05 -58.1 14.45 -55.3L13.5 -55.4L8 -55.75Q12.05 -58.15 11.25 -58.75M14.7 -57.8L16.5 -55.2L14.45 -55.3Q13.05 -58.1 12.25 -58.7M8 -55.75Q7.15 -57.85 5.95 -58.7L11.25 -58.75Q12.05 -58.15 13.5 -55.4M-8.95 -56.8Q-10.95 -58.5 -12.55 -58.55L-6.55 -58.6L-5.15 -58.6L5.95 -58.7Q7.15 -57.85 8 -55.75L-2.95 -56.5L-4.3 -56.55L-8.95 -56.8M-2.95 -56.5L-4.2 -57.8L-5.15 -58.6L-4.2 -57.8L-2.95 -56.5M-6.55 -58.6Q-5.25 -57.95 -4.3 -56.55Q-5.25 -57.95 -6.55 -58.6" />
<path style="fill:#CC2C29;fill-opacity:1" d="M-6.3 -53.05L-6.3 -53.1L-2.65 -53.1L-2.35 -52.25L-2.65 -53.1L-1.5 -53.1L8.85 -53.05L9.05 -52.25L8.85 -53.05L14.15 -53.05L15.15 -53.05L15.3 -52.25L15.15 -53.05L17.65 -53.05L18.05 -52.25L15.3 -52.25L14.35 -52.25L14.35 -52.3L14.15 -53.05L14.35 -52.3L14.35 -52.25L9.05 -52.25L-1.25 -52.25L-1.5 -53.1L-1.25 -52.25L-2.35 -52.25L-6.05 -52.25L-6.3 -53.05M18.6 -50.35L18.75 -49.85Q18.8 -48.55 15.95 -47.35L15.5 -51.35L15.95 -47.35L15.05 -46.95L14.5 -51.35L15.5 -51.35L18.35 -51.35L18.6 -50.5L18.6 -50.35M-1.35 -46.1Q-1.6 -49.1 -2.15 -51.35Q-1.6 -49.1 -1.35 -46.1L-1.35 -46L-4.85 -46.6L-5.85 -51.35L-2.15 -51.35L-1.05 -51.35L9.2 -51.35L14.5 -51.35L15.05 -46.95L12.4 -46.15L9.85 -45.6L9.8 -46.05L9.2 -51.35L9.8 -46.05L9.85 -45.6Q5.9 -45.05 0.7 -45.7L-0.3 -45.8Q-0.55 -48.95 -1.05 -51.35Q-0.55 -48.95 -0.3 -45.8L-1.35 -46L-1.35 -46.1" />
<path style="fill:#F23E3B;fill-opacity:1" d="M15.15 -53.05L14.15 -53.05L8.85 -53.05L14.15 -53.1L13.5 -55.4L14.45 -55.3L16.5 -55.2L15.15 -53.05M8.85 -53.05L8 -55.75L13.5 -55.4L14.15 -53.1L14.15 -53.05M16.5 -55.2L17.65 -53.05L15.15 -53.05L14.45 -55.3M-2.65 -53.1L-6.3 -53.1Q-3.35 -55.2 -4.3 -56.55L-2.95 -56.5L8 -55.75L8.85 -53.05L-1.5 -53.1L-2.65 -53.1M14.5 -51.35L14.5 -51.4L14.35 -52.25L15.3 -52.25L18.05 -52.25L18.35 -51.35L15.5 -51.35L14.5 -51.35M15.5 -51.35L15.3 -52.25L15.5 -51.35M9.2 -51.35L-1.05 -51.35L9.05 -52.25L14.35 -52.25L14.5 -51.4L14.5 -51.35L9.2 -51.35M-1.05 -51.35L-1.25 -52.25L9.05 -52.25L9.2 -51.35M-2.15 -51.35L-5.85 -51.35L-2.35 -52.25L-1.25 -52.25L-1.05 -51.35L-2.15 -51.35M-1.5 -53.1L-2.85 -56.4L-2.95 -56.5L-2.85 -56.4L-1.5 -53.1M-6.3 -53.1Q-7.45 -55.95 -8.95 -56.8L-4.3 -56.55Q-3.35 -55.2 -2.65 -53.1M-5.85 -51.35L-6.05 -52.25L-2.35 -52.25L-2.15 -51.35" />
<path style="fill:#B01C19;fill-opacity:1" d="M15.15 -36.2L15.25 -41.2L15.2 -44.4L16.05 -44.65L16.15 -44.65Q19.15 -45.45 19.2 -46.8Q19.65 -42.75 19.2 -36.3L16.1 -36.2L15.15 -36.2M15.2 -44.4L15.25 -41.2L15.15 -36.2L9.9 -36.15L9.85 -36.15Q10.05 -39.9 9.9 -43.95L15.2 -44.4M-0.2 -36.1L-1.15 -36.1L-0.2 -44.75L0.85 -44.65L9.9 -43.95Q10.05 -39.9 9.85 -36.15L-0.2 -36.1M-1.15 -36.1L-1.25 -36.1Q-0.85 -40.35 -1.2 -44.9L-0.2 -44.75L-0.2 -36.1M-4.65 -36.1Q-4.4 -39.35 -4.5 -42.55L-4.75 -45.45L-1.2 -44.9Q-0.85 -40.35 -1.25 -36.1L-4.65 -36.1M16.15 -44.65L16.25 -41.3L16.1 -36.2L16.25 -41.3L16.15 -44.65" />
<path style="fill:#BB201D;fill-opacity:1" d="M15.2 -44.4L15.05 -46.95L15.95 -47.35Q18.8 -48.55 18.75 -49.85L19.2 -46.8Q19.15 -45.45 16.15 -44.65L16.05 -44.65L15.2 -44.4M-4.65 -36.1L-4.85 -34.45L-20.5 -34.45L-20.35 -36.05L-19.5 -36.05L-4.65 -36.1M-0.3 -45.7L-0.3 -45.8L0.7 -45.7Q5.9 -45.05 9.85 -45.6L9.9 -43.95L9.85 -45.6L12.4 -46.15L15.05 -46.95L15.2 -44.4L9.9 -43.95L0.85 -44.65L-0.2 -44.75L-0.3 -45.7M-1.35 -46L-0.3 -45.8L-0.3 -45.7L-0.2 -44.75L-1.2 -44.9L-4.75 -45.45L-1.35 -46M16.15 -44.65L15.95 -47.35L16.15 -44.65M-4.75 -45.45L-4.85 -46.6L-1.35 -46L-1.2 -44.9" />
<path style="fill:#A11613;fill-opacity:1" d="M-4.65 -36.1L-1.25 -36.1L-1.15 -36.1L-0.2 -36.1L9.85 -36.15L9.9 -36.15L15.15 -36.2L16.1 -36.2L19.2 -36.3L20.15 -36.3L20.15 -34.45L-4.85 -34.45L-4.65 -36.1" />
<path style="fill:#AE1F1C;fill-opacity:1" d="M-12.15 -52.7L-12.05 -52.65L-12.2 -52.65L-13 -52.65L-12.15 -52.7M-13 -52.65L-13.05 -54.15Q-13 -55.7 -12.4 -55.7Q-11.7 -55.9 -11.15 -55Q-12.05 -54.75 -12.15 -53.7L-12.15 -52.7L-12.2 -52.65" />
<path style="fill:#961613;fill-opacity:1" d="M-11.15 -55L-11 -52.65L-12.05 -52.65L-12.15 -52.7L-12.15 -53.7Q-12.05 -54.75 -11.15 -55" />
<linearGradient
id="LinearGradID_146" gradientUnits="userSpaceOnUse" gradientTransform="matrix(0.00134277, -0.00856018, 0.014328, 0.00201416, -12, -47.4)" spreadMethod ="pad" x1="-819.2" y1="0" x2="819.2" y2="0" >
<stop  offset="0" style="stop-color:#910F0D;stop-opacity:1" />
<stop  offset="1" style="stop-color:#BB201D;stop-opacity:1" />
</linearGradient>
<path style="fill:url(#LinearGradID_146) " d="M-6.3 -53.1L-6.3 -53.05L-6.05 -52.25L-5.85 -51.35L-4.85 -46.6L-4.75 -45.45L-4.5 -42.55Q-4.4 -39.35 -4.65 -36.1L-19.5 -36.05L-19.45 -46.6Q-18.3 -57.65 -12.65 -58.55L-12.55 -58.55Q-10.95 -58.5 -8.95 -56.8Q-7.45 -55.95 -6.3 -53.1M-16.6 -49.55Q-16.6 -51.15 -15.75 -53.05L-14.9 -54.65L-15.75 -53.05Q-16.6 -51.15 -16.6 -49.55M-11 -52.65L-11.15 -55Q-11.7 -55.9 -12.4 -55.7Q-13 -55.7 -13.05 -54.15L-13 -52.65L-12.2 -52.65L-12.05 -52.65L-11 -52.65M-18.2 -44.4Q-17.9 -51.25 -15.2 -56Q-17.9 -51.25 -18.2 -44.4" />
<path style="fill:none;stroke-width:0.7;stroke-linecap:round;stroke-linejoin:miter;stroke-miterlimit:5;stroke:#000000;stroke-opacity:0.301961" d="M13.5 -55.4L14.15 -53.1L14.15 -53.05" />
<path style="fill:none;stroke-width:0.7;stroke-linecap:round;stroke-linejoin:miter;stroke-miterlimit:5;stroke:#000000;stroke-opacity:0.301961" d="M15.15 -53.05L14.45 -55.3Q13.05 -58.1 12.25 -58.7" />
<path style="fill:none;stroke-width:0.7;stroke-linecap:round;stroke-linejoin:miter;stroke-miterlimit:5;stroke:#000000;stroke-opacity:0.301961" d="M12.25 -58.7L11.25 -58.75" />
<path style="fill:none;stroke-width:0.7;stroke-linecap:round;stroke-linejoin:miter;stroke-miterlimit:5;stroke:#000000;stroke-opacity:0.301961" d="M11.25 -58.75Q12.05 -58.15 13.5 -55.4" />
<path style="fill:none;stroke-width:0.7;stroke-linecap:round;stroke-linejoin:miter;stroke-miterlimit:5;stroke:#000000;stroke-opacity:0.301961" d="M8 -55.75L8.85 -53.05" />
<path style="fill:none;stroke-width:0.7;stroke-linecap:round;stroke-linejoin:miter;stroke-miterlimit:5;stroke:#000000;stroke-opacity:0.301961" d="M14.15 -53.05L14.35 -52.3L14.35 -52.25" />
<path style="fill:none;stroke-width:0.7;stroke-linecap:round;stroke-linejoin:miter;stroke-miterlimit:5;stroke:#000000;stroke-opacity:0.301961" d="M15.3 -52.25L15.15 -53.05" />
<path style="fill:none;stroke-width:0.7;stroke-linecap:round;stroke-linejoin:miter;stroke-miterlimit:5;stroke:#000000;stroke-opacity:0.301961" d="M17.65 -53.05L16.5 -55.2" />
<path style="fill:none;stroke-width:0.7;stroke-linecap:round;stroke-linejoin:miter;stroke-miterlimit:5;stroke:#000000;stroke-opacity:0.301961" d="M12.25 -58.7L14.7 -57.8L16.5 -55.2" />
<path style="fill:none;stroke-width:0.7;stroke-linecap:round;stroke-linejoin:miter;stroke-miterlimit:5;stroke:#000000;stroke-opacity:0.301961" d="M18.05 -52.25L18.35 -51.35L18.6 -50.5" />
<path style="fill:none;stroke-width:0.7;stroke-linecap:round;stroke-linejoin:miter;stroke-miterlimit:5;stroke:#000000;stroke-opacity:0.301961" d="M18.6 -50.5L18.75 -49.85" />
<path style="fill:none;stroke-width:0.7;stroke-linecap:round;stroke-linejoin:miter;stroke-miterlimit:5;stroke:#000000;stroke-opacity:0.301961" d="M18.75 -49.85L19.2 -46.8Q19.65 -42.75 19.2 -36.3L20.15 -36.3L20.15 -34.45L-4.85 -34.45L-20.5 -34.45L-20.35 -36.05L-19.5 -36.05L-19.45 -46.6Q-18.3 -57.65 -12.65 -58.55L-12.55 -58.55L-6.55 -58.6L-5.15 -58.6L5.95 -58.7L11.25 -58.75" />
<path style="fill:none;stroke-width:0.7;stroke-linecap:round;stroke-linejoin:miter;stroke-miterlimit:5;stroke:#000000;stroke-opacity:0.301961" d="M17.65 -53.05L18.05 -52.25" />
<path style="fill:none;stroke-width:0.7;stroke-linecap:round;stroke-linejoin:miter;stroke-miterlimit:5;stroke:#000000;stroke-opacity:0.301961" d="M15.3 -52.25L15.5 -51.35" />
<path style="fill:none;stroke-width:0.7;stroke-linecap:round;stroke-linejoin:miter;stroke-miterlimit:5;stroke:#000000;stroke-opacity:0.301961" d="M14.5 -51.35L14.5 -51.4L14.35 -52.25" />
<path style="fill:none;stroke-width:0.7;stroke-linecap:round;stroke-linejoin:miter;stroke-miterlimit:5;stroke:#000000;stroke-opacity:0.301961" d="M9.05 -52.25L9.2 -51.35" />
<path style="fill:none;stroke-width:0.7;stroke-linecap:round;stroke-linejoin:miter;stroke-miterlimit:5;stroke:#000000;stroke-opacity:0.301961" d="M15.5 -51.35L15.95 -47.35" />
<path style="fill:none;stroke-width:0.7;stroke-linecap:round;stroke-linejoin:miter;stroke-miterlimit:5;stroke:#000000;stroke-opacity:0.301961" d="M18.75 -49.85L18.6 -50.35L18.6 -50.5" />
<path style="fill:none;stroke-width:0.7;stroke-linecap:round;stroke-linejoin:miter;stroke-miterlimit:5;stroke:#000000;stroke-opacity:0.301961" d="M8 -55.75Q7.15 -57.85 5.95 -58.7" />
<path style="fill:none;stroke-width:0.7;stroke-linecap:round;stroke-linejoin:miter;stroke-miterlimit:5;stroke:#000000;stroke-opacity:0.301961" d="M8.85 -53.05L9.05 -52.25" />
<path style="fill:none;stroke-width:0.7;stroke-linecap:round;stroke-linejoin:miter;stroke-miterlimit:5;stroke:#000000;stroke-opacity:0.301961" d="M-1.25 -52.25L-1.05 -51.35" />
<path style="fill:none;stroke-width:0.7;stroke-linecap:round;stroke-linejoin:miter;stroke-miterlimit:5;stroke:#000000;stroke-opacity:0.301961" d="M9.2 -51.35L9.8 -46.05L9.85 -45.6" />
<path style="fill:none;stroke-width:0.7;stroke-linecap:round;stroke-linejoin:miter;stroke-miterlimit:5;stroke:#000000;stroke-opacity:0.301961" d="M15.05 -46.95L14.5 -51.35" />
<path style="fill:none;stroke-width:0.7;stroke-linecap:round;stroke-linejoin:miter;stroke-miterlimit:5;stroke:#000000;stroke-opacity:0.301961" d="M9.85 -36.15Q10.05 -39.9 9.9 -43.95" />
<path style="fill:none;stroke-width:0.7;stroke-linecap:round;stroke-linejoin:miter;stroke-miterlimit:5;stroke:#000000;stroke-opacity:0.301961" d="M-0.2 -44.75L-0.2 -36.1" />
<path style="fill:none;stroke-width:0.7;stroke-linecap:round;stroke-linejoin:miter;stroke-miterlimit:5;stroke:#000000;stroke-opacity:0.301961" d="M15.15 -36.2L15.25 -41.2L15.2 -44.4" />
<path style="fill:none;stroke-width:0.7;stroke-linecap:round;stroke-linejoin:miter;stroke-miterlimit:5;stroke:#000000;stroke-opacity:0.301961" d="M9.9 -43.95L9.85 -45.6" />
<path style="fill:none;stroke-width:0.7;stroke-linecap:round;stroke-linejoin:miter;stroke-miterlimit:5;stroke:#000000;stroke-opacity:0.301961" d="M-0.3 -45.8L-0.3 -45.7L-0.2 -44.75" />
<path style="fill:none;stroke-width:0.7;stroke-linecap:round;stroke-linejoin:miter;stroke-miterlimit:5;stroke:#000000;stroke-opacity:0.301961" d="M-1.2 -44.9Q-0.85 -40.35 -1.25 -36.1" />
<path style="fill:none;stroke-width:0.7;stroke-linecap:round;stroke-linejoin:miter;stroke-miterlimit:5;stroke:#000000;stroke-opacity:0.301961" d="M15.95 -47.35L16.15 -44.65" />
<path style="fill:none;stroke-width:0.7;stroke-linecap:round;stroke-linejoin:miter;stroke-miterlimit:5;stroke:#000000;stroke-opacity:0.301961" d="M15.2 -44.4L15.05 -46.95" />
<path style="fill:none;stroke-width:0.7;stroke-linecap:round;stroke-linejoin:miter;stroke-miterlimit:5;stroke:#000000;stroke-opacity:0.301961" d="M16.1 -36.2L16.25 -41.3L16.15 -44.65" />
<path style="fill:none;stroke-width:0.7;stroke-linecap:round;stroke-linejoin:miter;stroke-miterlimit:5;stroke:#000000;stroke-opacity:0.301961" d="M-2.95 -56.5L-2.85 -56.4L-1.5 -53.1" />
<path style="fill:none;stroke-width:0.7;stroke-linecap:round;stroke-linejoin:miter;stroke-miterlimit:5;stroke:#000000;stroke-opacity:0.301961" d="M-5.15 -58.6L-4.2 -57.8L-2.95 -56.5" />
<path style="fill:none;stroke-width:0.7;stroke-linecap:round;stroke-linejoin:miter;stroke-miterlimit:5;stroke:#000000;stroke-opacity:0.301961" d="M-4.3 -56.55Q-5.25 -57.95 -6.55 -58.6" />
<path style="fill:none;stroke-width:0.7;stroke-linecap:round;stroke-linejoin:miter;stroke-miterlimit:5;stroke:#000000;stroke-opacity:0.301961" d="M-4.3 -56.55Q-3.35 -55.2 -2.65 -53.1" />
<path style="fill:none;stroke-width:0.7;stroke-linecap:round;stroke-linejoin:miter;stroke-miterlimit:5;stroke:#000000;stroke-opacity:0.301961" d="M-1.5 -53.1L-1.25 -52.25" />
<path style="fill:none;stroke-width:0.7;stroke-linecap:round;stroke-linejoin:miter;stroke-miterlimit:5;stroke:#000000;stroke-opacity:0.301961" d="M-2.35 -52.25L-2.15 -51.35" />
<path style="fill:none;stroke-width:0.7;stroke-linecap:round;stroke-linejoin:miter;stroke-miterlimit:5;stroke:#000000;stroke-opacity:0.301961" d="M-1.05 -51.35Q-0.55 -48.95 -0.3 -45.8" />
<path style="fill:none;stroke-width:0.7;stroke-linecap:round;stroke-linejoin:miter;stroke-miterlimit:5;stroke:#000000;stroke-opacity:0.301961" d="M-1.35 -46L-1.2 -44.9" />
<path style="fill:none;stroke-width:0.7;stroke-linecap:round;stroke-linejoin:miter;stroke-miterlimit:5;stroke:#000000;stroke-opacity:0.301961" d="M-4.75 -45.45L-4.5 -42.55Q-4.4 -39.35 -4.65 -36.1" />
<path style="fill:none;stroke-width:0.7;stroke-linecap:round;stroke-linejoin:miter;stroke-miterlimit:5;stroke:#000000;stroke-opacity:0.301961" d="M-6.05 -52.25L-5.85 -51.35" />
<path style="fill:none;stroke-width:0.7;stroke-linecap:round;stroke-linejoin:miter;stroke-miterlimit:5;stroke:#000000;stroke-opacity:0.301961" d="M-2.15 -51.35Q-1.6 -49.1 -1.35 -46.1L-1.35 -46" />
<path style="fill:none;stroke-width:0.7;stroke-linecap:round;stroke-linejoin:miter;stroke-miterlimit:5;stroke:#000000;stroke-opacity:0.301961" d="M-4.85 -46.6L-4.75 -45.45" />
<path style="fill:none;stroke-width:0.7;stroke-linecap:round;stroke-linejoin:miter;stroke-miterlimit:5;stroke:#000000;stroke-opacity:0.301961" d="M-2.35 -52.25L-2.65 -53.1" />
<path style="fill:none;stroke-width:0.7;stroke-linecap:round;stroke-linejoin:miter;stroke-miterlimit:5;stroke:#000000;stroke-opacity:0.301961" d="M-6.3 -53.1L-6.3 -53.05" />
<path style="fill:none;stroke-width:0.7;stroke-linecap:round;stroke-linejoin:miter;stroke-miterlimit:5;stroke:#000000;stroke-opacity:0.301961" d="M-6.3 -53.05L-6.05 -52.25" />
<path style="fill:none;stroke-width:0.7;stroke-linecap:round;stroke-linejoin:miter;stroke-miterlimit:5;stroke:#000000;stroke-opacity:0.301961" d="M-14.9 -54.65L-15.75 -53.05Q-16.6 -51.15 -16.6 -49.55" />
<path style="fill:none;stroke-width:0.7;stroke-linecap:round;stroke-linejoin:miter;stroke-miterlimit:5;stroke:#000000;stroke-opacity:0.301961" d="M-12.2 -52.65L-12.05 -52.65" />
<path style="fill:none;stroke-width:0.7;stroke-linecap:round;stroke-linejoin:miter;stroke-miterlimit:5;stroke:#000000;stroke-opacity:0.301961" d="M-12.15 -52.7L-12.2 -52.65" />
<path style="fill:none;stroke-width:0.7;stroke-linecap:round;stroke-linejoin:miter;stroke-miterlimit:5;stroke:#000000;stroke-opacity:0.301961" d="M-12.2 -52.65L-13 -52.65L-13.05 -54.15Q-13 -55.7 -12.4 -55.7Q-11.7 -55.9 -11.15 -55L-11 -52.65L-12.05 -52.65" />
<path style="fill:none;stroke-width:0.7;stroke-linecap:round;stroke-linejoin:miter;stroke-miterlimit:5;stroke:#000000;stroke-opacity:0.301961" d="M-8.95 -56.8Q-10.95 -58.5 -12.55 -58.55" />
<path style="fill:none;stroke-width:0.7;stroke-linecap:round;stroke-linejoin:miter;stroke-miterlimit:5;stroke:#000000;stroke-opacity:0.301961" d="M-8.95 -56.8Q-7.45 -55.95 -6.3 -53.1" />
<path style="fill:none;stroke-width:0.7;stroke-linecap:round;stroke-linejoin:miter;stroke-miterlimit:5;stroke:#000000;stroke-opacity:0.301961" d="M-5.85 -51.35L-4.85 -46.6" />
<path style="fill:none;stroke-width:0.7;stroke-linecap:round;stroke-linejoin:miter;stroke-miterlimit:5;stroke:#000000;stroke-opacity:0.301961" d="M-15.2 -56Q-17.9 -51.25 -18.2 -44.4" />
</g>
<g id="PathID_460" transform="matrix(1, 0, 0, 1, 20.85, 68)">
<path style="fill:#F2F7F8;fill-opacity:1" d="M11.95 -56.4Q8.6 -54.4 5.2 -54.4Q3.35 -54.4 -1.85 -56.9Q-7.05 -59.45 -8.7 -59.85L-13.15 -59.45Q-16 -58.6 -17.9 -57.25Q-19.85 -55.9 -19.85 -57.05L-19.95 -58.85L-19.6 -59.4L-17.45 -62.3Q-15 -65.8 -13.2 -65.45Q-10.2 -64.25 -6.7 -64.25L-5.55 -64.45L-4.9 -64.7L0.35 -64.7Q2.4 -64.7 4.4 -63.95L7.1 -63.2L11.2 -63.25Q15 -62.55 15.7 -61.2Q16.35 -59.85 16.1 -58.9L11.95 -56.4" />
<path style="fill:#BBD1D7;fill-opacity:1" d="M-19.95 -58.85L-19.85 -57.05Q-19.85 -55.9 -17.9 -57.25Q-16 -58.6 -13.15 -59.45L-8.7 -59.85Q-7.05 -59.45 -1.85 -56.9Q3.35 -54.4 5.2 -54.4Q8.6 -54.4 11.95 -56.4L16.1 -58.9Q17.35 -57.7 17.2 -56.15L15.55 -55.35Q13.35 -55.4 11.35 -53.95Q9.3 -52.5 6.8 -52.1L0.55 -52.45L-3.15 -54.2L-9.05 -56.95Q-10.7 -57.8 -12.7 -57.65Q-14.75 -57.5 -16.9 -55.55Q-19.15 -53.65 -19.95 -54.5Q-20.75 -55.35 -20.75 -56.75Q-20.75 -57.55 -19.95 -58.85" />
</g>
<g id="PathID_461" transform="matrix(1, 0, 0, 1, 20.85, 68)">
<path style="fill:#FFFFFF;fill-opacity:0.819608" d="M10.45 -62.95L9.75 -63.05Q9.45 -63.35 9.85 -63.6Q10.25 -63.9 10.5 -63.5Q10.75 -63.1 10.45 -62.95M1.9 -64.45L1.2 -64.55Q0.9 -64.85 1.3 -65.1L1.95 -65Q2.2 -64.6 1.9 -64.45M3.7 -63.9L3.1 -64Q2.85 -64.3 3.3 -64.6Q3.7 -64.95 3.9 -64.5Q4.15 -64.1 3.7 -63.9M6.25 -63.45L5.65 -63.5Q5.4 -63.85 5.9 -64.1L6.5 -64.05Q6.65 -63.7 6.25 -63.45M7.2 -63.8Q7.6 -64.1 7.8 -63.6Q8 -63.15 7.6 -62.9Q7.15 -62.65 7 -63.1Q6.8 -63.5 7.2 -63.8M-20.55 -59.45Q-20.15 -59.8 -19.95 -59.35Q-19.7 -58.95 -20.15 -58.75Q-20.55 -58.55 -20.75 -58.85Q-21 -59.15 -20.55 -59.45M-9.95 -63.9Q-10.3 -63.7 -10.45 -64.05Q-10.6 -64.45 -10.25 -64.7Q-9.95 -64.9 -9.75 -64.5Q-9.6 -64.15 -9.95 -63.9M-7.35 -64L-7.9 -64.1Q-8.2 -64.35 -7.85 -64.55Q-7.55 -64.8 -7.3 -64.45Q-7.1 -64.15 -7.35 -64M-5.55 -64.4L-5.1 -64.35Q-4.95 -64.05 -5.25 -63.9Q-5.55 -63.8 -5.7 -64L-5.55 -64.4M-1.35 -64.45Q-1.6 -65 -1.05 -65.35Q-0.55 -65.75 -0.3 -65.1Q0 -64.5 -0.55 -64.2Q-1.15 -63.85 -1.35 -64.45M-3.5 -64.2Q-3.75 -64.6 -3.25 -64.9L-2.55 -64.85Q-2.4 -64.45 -2.8 -64.15L-3.5 -64.2M-17.45 -62.3Q-17.25 -61.85 -17.65 -61.6Q-18.1 -61.35 -18.25 -61.8Q-18.45 -62.2 -18.05 -62.5Q-17.65 -62.8 -17.45 -62.3M-16.25 -63.8L-16.95 -63.9Q-17.25 -64.2 -16.85 -64.45L-16.2 -64.35Q-15.95 -63.95 -16.25 -63.8M-14 -65.15Q-13.8 -64.75 -14.2 -64.6Q-14.6 -64.4 -14.8 -64.7Q-15 -64.95 -14.6 -65.25Q-14.2 -65.55 -14 -65.15M-12.5 -64.8L-13.1 -64.85Q-13.35 -65.2 -12.85 -65.45L-12.25 -65.4Q-12.1 -65.05 -12.5 -64.8M-18.9 -60.05Q-19.15 -60.45 -18.65 -60.75L-17.95 -60.7Q-17.8 -60.3 -18.2 -60L-18.9 -60.05" />
</g>
<g id="PathID_462" transform="matrix(1, 0, 0, 1, 20.85, 68)">
<path style="fill:#666666;fill-opacity:1" d="M0.05 -49.6L0.15 -49L0.05 -48.45L-0.55 -48.35L-1.15 -48.45L-1.25 -49L-1.15 -49.6L-0.55 -49.7L0.05 -49.6" />
<path style="fill:#1A1A1A;fill-opacity:1" d="M-1.4 -57.95L0.3 -63L3.3 -63.4Q6.3 -64.05 6.55 -65.45L6.5 -67.8L7.7 -67.8L7.8 -61.55L0.3 -63L0.2 -50.65L0.85 -50L1.35 -49Q1.35 -48.25 0.8 -47.7Q0.2 -47.15 -0.6 -47.15Q-1.4 -47.15 -1.95 -47.7Q-2.55 -48.25 -2.55 -49L-2.05 -50L-1.4 -50.65L-1.4 -57.95M-0.55 -49.7L-1.15 -49.6L-1.25 -49L-1.15 -48.45L-0.55 -48.35L0.05 -48.45L0.15 -49L0.05 -49.6L-0.55 -49.7" />
<path style="fill:#1F1F1F;fill-opacity:1" d="M6.55 -65.45Q6.3 -64.05 3.3 -63.4L0.3 -63L-1.4 -57.95L-1.5 -66.85Q-1.5 -67.3 2.15 -67.6L6.5 -67.8L6.55 -65.45" />
<path style="fill:none;stroke-width:0.7;stroke-linecap:round;stroke-linejoin:miter;stroke-miterlimit:5;stroke:#000000;stroke-opacity:0.301961" d="M6.5 -67.8L2.15 -67.6Q-1.5 -67.3 -1.5 -66.85L-1.4 -57.95" />
<path style="fill:none;stroke-width:0.7;stroke-linecap:round;stroke-linejoin:miter;stroke-miterlimit:5;stroke:#000000;stroke-opacity:0.301961" d="M6.5 -67.8L7.7 -67.8L7.8 -61.55L0.3 -63L0.2 -50.65L0.85 -50L1.35 -49Q1.35 -48.25 0.8 -47.7Q0.2 -47.15 -0.6 -47.15Q-1.4 -47.15 -1.95 -47.7Q-2.55 -48.25 -2.55 -49L-2.05 -50L-1.4 -50.65L-1.4 -57.95" />
<path style="fill:none;stroke-width:0.7;stroke-linecap:round;stroke-linejoin:miter;stroke-miterlimit:5;stroke:#000000;stroke-opacity:0.301961" d="M0.05 -49.6L0.15 -49L0.05 -48.45L-0.55 -48.35L-1.15 -48.45L-1.25 -49L-1.15 -49.6L-0.55 -49.7L0.05 -49.6z" />
</g>
</svg>
