<?xml version="1.0" encoding="utf-8"?>
<svg version="1.1" id="Layer_1"
xmlns="http://www.w3.org/2000/svg"
xmlns:xlink="http://www.w3.org/1999/xlink"
width="50px" height="45px"
xml:space="preserve">
<g id="PathID_754" transform="matrix(1, 0, 0, 1, 0.15, 0.15)">
<path style="fill:#514F4F;fill-opacity:1" d="M37.55 1.15L1.2 1.15L1.2 11.9L29.5 11.9L36.7 11.9L47.5 11.9L47.5 1.15L44.85 1.15L37.55 1.15M48.9 43.9L0 43.9L0 13.35L48.9 13.35L0 0L48.9 0L48.9 13.35L0 13.35L48.9 43.9M31.85 14.8L1.4 14.8L1.4 41.55L10 41.55L18.1 41.55L47.4 41.55L47.4 14.8L38.85 14.8L31.85 14.8" />
<path style="fill:#808080;fill-opacity:1" d="M44.85 1.15L47.5 1.15L47.5 11.9L36.7 11.9L44.85 1.15M29.5 11.9L1.2 11.9L1.2 1.15L37.55 1.15L29.5 11.9M38.85 14.8L47.4 14.8L47.4 41.55L18.1 41.55L38.85 14.8M10 41.55L1.4 41.55L1.4 14.8L31.85 14.8L10 41.55" />
<linearGradient
id="LinearGradID_339" gradientUnits="userSpaceOnUse" gradientTransform="matrix(0.00352478, -0.0130768, 0.0157471, 0.00424194, 22.85, 27.4)" spreadMethod ="pad" x1="-819.2" y1="0" x2="819.2" y2="0" >
<stop  offset="0" style="stop-color:#808080;stop-opacity:1" />
<stop  offset="0.458824" style="stop-color:#ADADAD;stop-opacity:1" />
<stop  offset="1" style="stop-color:#808080;stop-opacity:1" />
</linearGradient>
<path style="fill:url(#LinearGradID_339) " d="M31.85 14.8L38.85 14.8L18.1 41.55L10 41.55L31.85 14.8" />
<linearGradient
id="LinearGradID_340" gradientUnits="userSpaceOnUse" gradientTransform="matrix(0.00242615, -0.00904846, 0.0063324, 0.00169373, 37.15, 6.5)" spreadMethod ="pad" x1="-819.2" y1="0" x2="819.2" y2="0" >
<stop  offset="0" style="stop-color:#808080;stop-opacity:1" />
<stop  offset="0.458824" style="stop-color:#ADADAD;stop-opacity:1" />
<stop  offset="1" style="stop-color:#808080;stop-opacity:1" />
</linearGradient>
<path style="fill:url(#LinearGradID_340) " d="M37.55 1.15L44.85 1.15L36.7 11.9L29.5 11.9L37.55 1.15" />
<path style="fill:none;stroke-width:0.7;stroke-linecap:round;stroke-linejoin:round;stroke-miterlimit:3;stroke:#000000;stroke-opacity:0.4" d="M48.9 43.9L0 43.9L0 13.35L0 0L48.9 0L48.9 13.35L48.9 43.9z" />
<path style="fill:none;stroke-width:0.7;stroke-linecap:round;stroke-linejoin:round;stroke-miterlimit:3;stroke:#000000;stroke-opacity:0.4" d="M0 13.35L48.9 13.35" />
</g>
</svg>
