<?xml version="1.0" encoding="utf-8"?>
<svg version="1.1" id="Layer_1"
xmlns="http://www.w3.org/2000/svg"
xmlns:xlink="http://www.w3.org/1999/xlink"
width="11px" height="14px"
xml:space="preserve">
<g id="PathID_1104" transform="matrix(1, 0, 0, 1, 17.05, 73.6)">
<path style="fill:none;stroke-width:1;stroke-linecap:round;stroke-linejoin:round;stroke-miterlimit:3;stroke:#000000;stroke-opacity:0.298039" d="M-11.7 -63.2L-11.7 -64.05" />
</g>
<g id="PathID_1105" transform="matrix(1, 0, 0, 1, 17.05, 73.6)">
<radialGradient
id="RadialGradID_541" gradientUnits="userSpaceOnUse" gradientTransform="matrix(0.00616455, 0, 0, 0.00793457, -11.7, -67)" spreadMethod ="pad" cx="0" cy="0" r="819.2" fx="0" fy="0" >
<stop  offset="0"  style="stop-color:#FFFDF5;stop-opacity:0.878431" />
<stop  offset="0.14902"  style="stop-color:#FFD202;stop-opacity:0.701961" />
<stop  offset="0.392157"  style="stop-color:#F79331;stop-opacity:0.541176" />
<stop  offset="0.615686"  style="stop-color:#FCC86F;stop-opacity:0.141176" />
<stop  offset="1"  style="stop-color:#FFDD87;stop-opacity:0" />
</radialGradient>
<path style="fill:url(#RadialGradID_541) " d="M-8 -71.65Q-6.45 -69.75 -6.45 -67Q-6.45 -64.3 -8 -62.35Q-9.5 -60.45 -11.7 -60.45Q-13.95 -60.45 -15.5 -62.35Q-17.05 -64.3 -17.05 -67Q-17.05 -69.75 -15.5 -71.65Q-13.95 -73.6 -11.7 -73.6Q-9.5 -73.6 -8 -71.65" />
</g>
<g id="PathID_1106" transform="matrix(1, 0, 0, 1, 17.05, 73.6)">
<linearGradient
id="LinearGradID_542" gradientUnits="userSpaceOnUse" gradientTransform="matrix(-1.52588e-005, 0.00296021, -0.00408936, -1.52588e-005, -11.8, -67.05)" spreadMethod ="pad" x1="-819.2" y1="0" x2="819.2" y2="0" >
<stop  offset="0" style="stop-color:#F35225;stop-opacity:1" />
<stop  offset="0.988235" style="stop-color:#FFE362;stop-opacity:1" />
</linearGradient>
<path style="fill:url(#LinearGradID_542) " d="M-10.95 -66.5Q-11.7 -67.25 -11.8 -68.15L-11.85 -65.95Q-12.5 -66.1 -12.25 -67.25Q-13.15 -65.9 -11.45 -65.1L-11.5 -65.1Q-13.5 -65.4 -13.15 -66.9L-12.75 -68.15L-11.9 -69.25Q-10.8 -70.75 -11.4 -72.5Q-10.1 -70.3 -11.1 -68.6L-11.05 -68.15L-10.9 -67.8L-10.3 -66.9Q-9.75 -66.05 -10.05 -65.65Q-10.4 -65.3 -11 -65.25Q-10.45 -65.95 -10.95 -66.5" />
<path style="fill:#FFF1B4;fill-opacity:1" d="M-11 -65.25L-11.45 -65.1Q-13.15 -65.9 -12.25 -67.25Q-12.5 -66.1 -11.85 -65.95L-11.8 -68.15Q-11.7 -67.25 -10.95 -66.5Q-10.45 -65.95 -11 -65.25" />
</g>
</svg>
