<?xml version="1.0" encoding="utf-8"?>
<svg version="1.1" id="Layer_1"
xmlns="http://www.w3.org/2000/svg"
xmlns:xlink="http://www.w3.org/1999/xlink"
width="70px" height="80px"
xml:space="preserve">
<g id="PathID_579" transform="matrix(1, 0, 0, 1, 35, 79.55)">
<linearGradient
id="LinearGradID_236" gradientUnits="userSpaceOnUse" gradientTransform="matrix(0, 0.0111084, -0.0184021, 0, -20.7, -65.25)" spreadMethod ="pad" x1="-819.2" y1="0" x2="819.2" y2="0" >
<stop  offset="0" style="stop-color:#7B7671;stop-opacity:1" />
<stop  offset="1" style="stop-color:#ADA9A5;stop-opacity:1" />
</linearGradient>
<path style="fill:url(#LinearGradID_236) " d="M6.25 -78.15L19.6 -78.15Q17.4 -52.3 5.3 -48L-8.5 -48Q2.05 -50.45 6.25 -78.15M-22.95 -48L-33.9 -48Q-25.25 -56.3 -22.9 -78.15L-8.3 -78.15Q-11.35 -53.75 -22.95 -48" />
<linearGradient
id="LinearGradID_237" gradientUnits="userSpaceOnUse" gradientTransform="matrix(-0.000671387, 0.00982666, -0.0183563, -0.00126648, -7.55, -66.05)" spreadMethod ="pad" x1="-819.2" y1="0" x2="819.2" y2="0" >
<stop  offset="0" style="stop-color:#316469;stop-opacity:1" />
<stop  offset="1" style="stop-color:#458187;stop-opacity:1" />
</linearGradient>
<path style="fill:url(#LinearGradID_237) " d="M19.6 -78.15L32.35 -78.15Q29 -53.75 19.05 -48L5.3 -48Q17.4 -52.3 19.6 -78.15M6.25 -78.15Q2.05 -50.45 -8.5 -48L-22.95 -48Q-11.35 -53.75 -8.3 -78.15L6.25 -78.15" />
<path style="fill:none;stroke-width:0.7;stroke-linecap:round;stroke-linejoin:round;stroke-miterlimit:3;stroke:#000000;stroke-opacity:0.301961" d="M19.6 -78.15L32.35 -78.15Q29 -53.75 19.05 -48L5.3 -48L-8.5 -48L-22.95 -48L-33.9 -48Q-25.25 -56.3 -22.9 -78.15L-8.3 -78.15L-8.25 -78.4" />
<path style="fill:none;stroke-width:0.7;stroke-linecap:round;stroke-linejoin:round;stroke-miterlimit:3;stroke:#000000;stroke-opacity:0.301961" d="M6.25 -78.15L19.6 -78.15" />
<path style="fill:none;stroke-width:0.7;stroke-linecap:round;stroke-linejoin:round;stroke-miterlimit:3;stroke:#000000;stroke-opacity:0.301961" d="M6.25 -78.15L-8.3 -78.15" />
</g>
<g id="PathID_580" transform="matrix(1, 0, 0, 1, 35, 79.55)">
<path style="fill:#6B8523;fill-opacity:1" d="M20.85 -34.5L20.9 -34.25Q21.05 -33.9 21.5 -33.9Q21.8 -33.9 21.95 -34.15L22.1 -34.5Q22.1 -35.15 21.5 -35.15Q20.85 -35.15 20.85 -34.5M17.95 -29.25Q20.45 -31.75 22.25 -31.25Q20.55 -29.25 18.2 -29.25L17.95 -29.25L17.8 -29.1L17.8 -29.25L18 -31.3L17.7 -33.75L17.1 -36.15L16.8 -36.8L16.55 -37.4L16.4 -37.65Q15.8 -39.65 17.25 -40.55Q15.8 -39.65 16.4 -37.65Q15.25 -39.8 12.9 -41.55L13.55 -41.9L14.65 -42L15.5 -41.95Q16.95 -41.9 18.45 -41L20.6 -39.15Q22.5 -36.9 22.9 -33.5L23 -32.5L23 -32.25L23 -31.5L23 -30.95L22.25 -31.25Q20.45 -31.75 17.95 -29.25M14.5 -29.85L16.8 -29.65L14.5 -29.85Q13.3 -30.3 12.15 -31L12.2 -32.8L12.2 -34.95L12 -36.15L11.9 -36.8L11.75 -37.05L11.05 -38.3L10.1 -38.5L8.25 -38.1L8.15 -38Q8.15 -39.15 8.4 -40L8.45 -40.25Q9.9 -41.65 11.15 -41.65L12.15 -41.6L12.2 -41.55L13.25 -40.6L14.75 -38.65L15.5 -37.5L16.25 -35L16.5 -34L16.95 -31.35L16.8 -29.65L16.75 -29.35L14.5 -29.85M14.3 -38.15Q14.3 -38.9 13.7 -38.9Q13.1 -38.9 13.1 -38.15L13.15 -37.8Q13.25 -37.4 13.7 -37.4Q14.3 -37.4 14.3 -38.15M17.65 -38.95L17.9 -38.25Q18.35 -37.5 19.35 -37.5Q20 -37.5 20 -38.35Q20 -39.3 18.85 -39.65Q17.65 -40 17.65 -38.95M12.75 -35.7Q14.9 -36.15 16.5 -34Q14.9 -36.15 12.75 -35.7M9.45 -39.55Q12.1 -40.65 14.75 -38.65Q12.1 -40.65 9.45 -39.55M21.5 -36.2Q19.25 -35.9 17.7 -33.75Q19.25 -35.9 21.5 -36.2" />
<path style="fill:#9FC437;fill-opacity:1" d="M21.5 -35.15Q22.1 -35.15 22.1 -34.5L21.95 -34.15Q21.8 -33.9 21.5 -33.9Q21.05 -33.9 20.9 -34.25L20.85 -34.5Q20.85 -35.15 21.5 -35.15M13.7 -37.4Q13.25 -37.4 13.15 -37.8L13.1 -38.15Q13.1 -38.9 13.7 -38.9Q14.3 -38.9 14.3 -38.15Q14.3 -37.4 13.7 -37.4M18.85 -39.65Q20 -39.3 20 -38.35Q20 -37.5 19.35 -37.5Q18.35 -37.5 17.9 -38.25L17.65 -38.95Q17.65 -40 18.85 -39.65" />
<path style="fill:#A37751;fill-opacity:1" d="M-34.1 -36.75L-33.75 -36.5L-31.55 -34.2L-28.7 -31.3L-22.25 -24.75L-8.5 -24.75L2.5 -24.75L10.3 -24.75L14.75 -24.75L16.4 -24.75L19.95 -24.75L25.8 -24.75L30.75 -24.75L23 -32.5L22.9 -33.5L32.45 -24L-22.6 -24L-34.85 -36.8L-34.1 -36.8L-34.1 -36.75M5.7 -36.4L5.4 -36.15L4.4 -36.15L4.4 -36.8L6.2 -36.8L5.7 -36.4M-10.3 -36.15L-11.05 -36.8L-9.2 -36.8L-8.95 -36.3L-8.85 -36.15L-10.3 -36.15M-31.55 -36.15L-31.55 -36.8L-27.95 -36.8L-28.1 -36.5L-28.3 -36.15L-31.55 -36.15" />
<path style="fill:#463323;fill-opacity:1" d="M30.75 -24.75L25.8 -24.75Q25.65 -28.25 22.7 -28.65L23 -30.95L23 -31.5L23 -32.25L23 -32.5L30.75 -24.75M15.5 -41.95L14.65 -42L14.65 -48.4L15.5 -48.4L15.5 -41.95M5.4 -36.15L3.95 -34.55L4.1 -35.05L4.4 -36.15L5.4 -36.15M15.05 0.15L14 0.15L14 -8.3L15.05 -7.8L15.05 0.15M-22.6 0.15L-24.4 0.15L-24.4 -11.15L-22.6 -9.3L-22.6 0.15M-22.6 -24L-22.6 -11.65L-24.4 -13.25L-31.35 -19.1L-33.95 -21.3L-34.85 -22.1L-34.85 -36.8L-22.6 -24M-33.95 0.15L-34.85 0.15L-34.85 -18.6L-33.95 -17.85L-33.95 0.15M-33.75 -36.5L-34.1 -36.75L-34.1 -36.8L-34.1 -48L-33.75 -48L-33.75 -36.5M29.75 0.15L28.25 0.15L28.25 -10.05L29.75 -10.05L29.75 0.15M-10.3 -36.15L-8.85 -36.15L-8.25 -35.4L-9.3 -35.15L-10.3 -36.15M-31.55 -34.2L-31.55 -36.15L-28.3 -36.15Q-28.85 -34.95 -28.85 -33.75L-28.7 -31.45L-28.7 -31.3L-31.55 -34.2M-28.55 -24.85L-30.15 -26.4L-28.55 -24.85M-28.8 -27.25L-32.4 -30.85L-28.8 -27.25M-25.1 -17.1L-32.4 -23.15L-25.1 -17.1" />
<path style="fill:#4A5D17;fill-opacity:1" d="M17.8 -29.1L17.95 -29.25L18.2 -29.25Q20.55 -29.25 22.25 -31.25L23 -30.95L22.7 -28.65Q22.45 -27.8 22 -27.1Q21.35 -25.9 19.95 -24.75L16.4 -24.75Q17.4 -27.15 17.8 -29.1M6.2 -36.8Q7 -38.65 8.25 -40.05L8.45 -40.25L8.4 -40Q8.15 -39.15 8.15 -38L6.2 -36.8M13 -29.2Q13.75 -29.7 14.5 -29.85L16.75 -29.35Q16.25 -27.15 14.75 -24.75L10.3 -24.75L11.15 -26.05Q11.95 -27.95 12.15 -31Q13.3 -30.3 14.5 -29.85Q13.75 -29.7 13 -29.2" />
<path style="fill:#25190F;fill-opacity:1" d="M19.95 -24.75Q21.35 -25.9 22 -27.1Q22.45 -27.8 22.7 -28.65Q25.65 -28.25 25.8 -24.75L19.95 -24.75M2 -31.5L1.35 -32.6Q2.1 -32.6 3.25 -33.5L2.6 -32.5L2.05 -31.4L2 -31.5" />
<path style="fill:#705034;fill-opacity:1" d="M15.5 -48.4L18.45 -48.4L18.45 -41Q16.95 -41.9 15.5 -41.95L15.5 -48.4M15.05 0.15L15.05 -7.8L18.5 -7.8L18.5 0.15L15.05 0.15M-22.6 -11.65L-22.6 -24L32.45 -24L32.45 -11.65L29.75 -11.65L28.25 -11.65L18.5 -11.65L15.05 -11.65L14 -11.65L-20.1 -11.65L-22.6 -11.65M-22.6 -9.3L-20.1 -9.3L-20.1 0.15L-22.6 0.15L-22.6 -9.3M-33.95 -17.85L-31.35 -15.7L-31.35 0.15L-33.95 0.15L-33.95 -17.85M13.05 -14.5L8.6 -14.5L13.05 -14.5M29.75 0.15L29.75 -10.05L32.45 -10.05L32.45 0.15L29.75 0.15M21.5 -20.4L13.05 -20.4L21.5 -20.4M-31.55 -36.15L-31.55 -34.2L-33.75 -36.5L-33.75 -48L-31.55 -48L-31.55 -36.8L-31.55 -36.15M-12.3 -21.35L-16.85 -21.35L-12.3 -21.35M-12.1 -14.15L-20.55 -14.15L-12.1 -14.15M25.65 -16.9L-8.2 -16.9L25.65 -16.9" />
<path style="fill:#465B0F;fill-opacity:1" d="M16.55 -37.4L16.8 -36.8L17.1 -36.15L17.7 -33.75L18 -31.3L17.8 -29.25L16.75 -29.35L16.8 -29.65L16.95 -31.35L16.5 -34L16.25 -35L15.5 -37.5L14.75 -38.65L13.25 -40.6L12.2 -41.55L12.9 -41.55Q15.25 -39.8 16.4 -37.65L16.55 -37.4" />
<path style="fill:#CBAE84;fill-opacity:1" d="M-7.85 -44.25L-7.35 -44.65L-6.9 -44.9L-4.9 -45.85L-4.4 -46Q-2.85 -45.3 -3.6 -43.75Q-2.85 -45.3 -4.4 -46L-1.6 -46.3L-1.1 -45.4Q-0.45 -44.3 -0.5 -43.65Q-0.45 -44.3 -1.1 -45.4L-1.6 -46.3L-0.5 -45.65Q0.6 -44.8 0.6 -43.95L0.5 -43.3L-0.5 -43.65L-2.35 -43.9L-3.6 -43.75Q-5.45 -43.45 -7.4 -42.25L-8.7 -40.9L-9 -42.15Q-9 -43.25 -7.85 -44.25M-7.35 -44.65Q-8.15 -43.15 -7.4 -42.25Q-8.15 -43.15 -7.35 -44.65M-21.2 -39.5Q-20.5 -41.2 -21.45 -42.15Q-20.5 -41.2 -21.2 -39.5L-22.2 -39.4L-23.25 -39.3Q-24.6 -40 -23.95 -41.6Q-24.6 -40 -23.25 -39.3L-26.1 -38.9Q-27.6 -39.6 -25.4 -41.1L-24.75 -41.3L-24.75 -41.35L-23.95 -41.6L-22.5 -42L-21.45 -42.15L-20.35 -42.25L-18.5 -42.3L-18.5 -42.25Q-16.8 -40.9 -18 -39.5M-16.1 -39.4L-16.35 -39.4L-18 -39.5L-21.2 -39.5Q-16.8 -40.9 -18.5 -42.25L-18.45 -42.3L-17.35 -42.25Q-14.35 -41 -15.4 -39.3L-16.1 -39.4" />
<path style="fill:#D4CEC5;fill-opacity:1" d="M3.25 -33.5L3.25 -33.6L3.3 -33.65L3.95 -34.55L5.4 -36.15L5.7 -36.4L6.2 -36.8L8.15 -38L8.25 -38.1L10.1 -38.5L11.05 -38.3L11.75 -37.05L11.9 -36.8L12 -36.15L12.2 -34.95L12.2 -32.8L12.15 -31Q11.95 -27.95 11.15 -26.05L10.1 -25.9L8.9 -26.15Q8.5 -26.4 8.5 -27.25L8.55 -27.6L8.6 -27.85L8.85 -27.85Q8.5 -28.15 8.5 -28.35L8.7 -28.75L9.15 -29.1L9 -29.15L8.95 -29.25Q8.7 -29.3 8.65 -29.4L8.6 -29.6Q8.6 -30 9.15 -30.5Q9.7 -31.1 10.35 -31.05L10.1 -31.95Q10.1 -33.05 11.2 -33.05L11.2 -34.8L10.95 -36.75L9.7 -36.3L9.6 -36.5L9.55 -36.5L9.5 -37.25L8.15 -36.6Q7.05 -35.95 6.75 -35.9L6.9 -35.35L7.15 -34.75L6.8 -34.3L6.15 -33.65L6.6 -33.3L6.65 -33Q6.65 -32.75 5.85 -32.15Q5 -31.5 5 -30.9Q5 -30.05 3.75 -29.85L3.85 -29.55L3.9 -29.25L3.3 -29.25Q2.85 -30.4 2.65 -31.75L2.6 -32.5L3.25 -33.5" />
<path style="fill:#9F845E;fill-opacity:1" d="M0 -35.45Q-3.9 -35.65 -6.25 -36.95Q-8.6 -38.3 -9.05 -40.35L-8.7 -40.9L-7.4 -42.25Q-5.45 -43.45 -3.6 -43.75L-2.35 -43.9L-0.5 -43.65L0.5 -43.3Q1.8 -42.7 2.8 -41.5L3.6 -40.35Q3.9 -35.25 0 -35.45M-2.35 -46.75Q-2.9 -46.75 -2.9 -47.75L-2.75 -48.9L-4.9 -47.65L-5.85 -46.75Q-6.2 -46.75 -6.3 -47L-6.75 -47.4L-7.6 -45.95L-7.7 -45.7L-8.25 -44.4L-8.1 -46.55L-8.65 -47.5Q-8.55 -48.3 -7.65 -49.15L-6.75 -49.85L-4.85 -48.95Q-4.45 -48.95 -3.75 -49.7Q-3 -50.4 -2.45 -50.4Q-2.1 -50.4 -2.05 -49.95Q-2 -49.45 -1.35 -49.45L0.4 -49.75L-1.05 -47.25Q-2 -46.75 -2.35 -46.75M-8.25 -44.4L-10.35 -45.25Q-11.85 -45.9 -11.85 -46.9Q-11.85 -47.35 -11.35 -47.35L-10.7 -47.15L-9.85 -46.7L-9.1 -46.7L-9.35 -47.55L-9.7 -48.3Q-9.25 -48.4 -8.65 -47.5L-8.1 -46.55L-7.7 -45.7M-28.7 -43.9Q-30.2 -45.5 -30.1 -46L-29.75 -46.75L-29.25 -47L-28.25 -46.55L-27.1 -46.15Q-26.85 -46.15 -26.75 -46.25L-26.7 -46.5L-26.85 -47L-26.4 -47.4L-26 -47.45Q-25.5 -47.45 -25 -46.95Q-24.5 -46.45 -23.6 -46.45Q-22.7 -46.45 -21.85 -47.8Q-20.95 -49.15 -19.8 -49.15Q-18.8 -49.15 -18.6 -48.1Q-18.4 -47.1 -17.75 -47.1L-16.6 -47.2L-16 -47.1Q-15.7 -46.95 -15.85 -45.3Q-15.95 -44.2 -17.1 -43.2L-17.75 -43.2L-18 -45.9L-18.75 -45.9L-20.35 -44.55Q-21.45 -43.8 -22 -43.8Q-22.6 -43.8 -23.05 -44.65Q-23.5 -45.55 -24.25 -45.55L-25.05 -45.15L-25.4 -44.5L-25.3 -43.75L-25.2 -43.1Q-25.2 -42.5 -25.7 -42.55L-27 -42.7L-27 -42.45L-28.7 -43.9M-23.25 -39.3L-22.2 -39.4L-21.2 -39.5L-18 -39.5L-16.35 -39.4L-16.1 -39.4L-15.4 -39.3Q-13.9 -38.95 -11.95 -37.5L-11.2 -36.9Q-11.25 -33.9 -12.75 -32.25Q-14.7 -30.3 -19.15 -30.3Q-22.75 -30.3 -25.3 -32.05Q-27.8 -33.75 -28.1 -36.5L-27.95 -36.8L-27.75 -37.15L-26.2 -38.8L-26.1 -38.9L-23.25 -39.3M-18.25 -36.35L-18.55 -36.8L-19.75 -38L-20.85 -38.9L-21.1 -38.6L-21.05 -38.35L-21.1 -38.6L-20.85 -38.9L-19.75 -38L-18.55 -36.8L-18.25 -36.35M-25.15 -36.15L-24.9 -36.8Q-24.45 -37.85 -23.5 -38.6L-22.2 -39.4L-23.5 -38.6Q-24.45 -37.85 -24.9 -36.8L-25.15 -36.15" />
<path style="fill:#58534A;fill-opacity:1" d="M9.6 -36.5L9.7 -36.3L10.55 -35.05L9.5 -33.7L9.4 -33.5Q9.15 -33 9.25 -32.7L9.6 -31.9L8.9 -31.65L8.25 -30.9Q8.1 -30.4 8.25 -29.65L7.75 -29.3L7.35 -28.6L7.55 -27.95L6.9 -27.55Q6.2 -27.05 6.2 -26.65L6.3 -26.4L6.45 -26.05L4.15 -25.15L4.15 -25.25L4.55 -25.75L4.9 -26.4L4.75 -26.8L4.65 -27.1L5.4 -27.85L4.9 -29.15L5.9 -29.75L5.7 -30.4Q7.1 -31 7.1 -31.5L6.9 -32L6.75 -32.25Q7.75 -32.5 7.75 -33L7.65 -33.3L7.55 -33.4L8.25 -33.7L8.85 -34.5L8.9 -34.8L8.75 -35.25L8.45 -35.75L9.55 -36.5L9.6 -36.5" />
<path style="fill:#958E83;fill-opacity:1" d="M10.95 -36.75L11.2 -34.8L11.2 -33.05Q10.1 -33.05 10.1 -31.95L10.35 -31.05Q9.7 -31.1 9.15 -30.5Q8.6 -30 8.6 -29.6L8.65 -29.4Q8.7 -29.3 8.95 -29.25L9 -29.15L9.15 -29.1L8.7 -28.75L8.5 -28.35Q8.5 -28.15 8.85 -27.85L8.6 -27.85L8.55 -27.6L8.5 -27.25Q8.5 -26.4 8.9 -26.15L10.1 -25.9L11.15 -26.05L10.3 -24.75L2.5 -24.75L2.7 -25.7L2.9 -27.7Q2.9 -29.65 2.15 -31.25L2.05 -31.4L2.6 -32.5L2.65 -31.75Q2.85 -30.4 3.3 -29.25L3.9 -29.25L3.85 -29.55L3.75 -29.85Q5 -30.05 5 -30.9Q5 -31.5 5.85 -32.15Q6.65 -32.75 6.65 -33L6.6 -33.3L6.15 -33.65L6.8 -34.3L7.15 -34.75L6.9 -35.35L6.75 -35.9Q7.05 -35.95 8.15 -36.6L9.5 -37.25L9.55 -36.5L8.45 -35.75L8.75 -35.25L8.9 -34.8L8.85 -34.5L8.25 -33.7L7.55 -33.4L7.65 -33.3L7.75 -33Q7.75 -32.5 6.75 -32.25L6.9 -32L7.1 -31.5Q7.1 -31 5.7 -30.4L5.9 -29.75L4.9 -29.15L5.4 -27.85L4.65 -27.1L4.75 -26.8L4.9 -26.4L4.55 -25.75L4.15 -25.25L4.15 -25.15L6.45 -26.05L6.3 -26.4L6.2 -26.65Q6.2 -27.05 6.9 -27.55L7.55 -27.95L7.35 -28.6L7.75 -29.3L8.25 -29.65Q8.1 -30.4 8.25 -30.9L8.9 -31.65L9.6 -31.9L9.25 -32.7Q9.15 -33 9.4 -33.5L9.5 -33.7L10.55 -35.05L9.7 -36.3L10.95 -36.75" />
<path style="fill:#695335;fill-opacity:1" d="M-7.8 -35.45L-8.25 -35.4L-8.85 -36.15L-8.95 -36.3L-9.2 -36.8Q-9.6 -37.5 -9.6 -38Q-9.6 -39.3 -9.05 -40.35Q-8.6 -38.3 -6.25 -36.95Q-3.9 -35.65 0 -35.45Q3.9 -35.25 3.6 -40.35Q4.4 -38.8 4.4 -37L4.4 -36.8L4.4 -36.15L4.1 -35.05L3.95 -34.55L3.3 -33.65L3.25 -33.6L3.25 -33.5Q2.1 -32.6 1.35 -32.6Q-1.3 -35.7 -5.35 -35.7L-6.75 -35.6L-7.8 -35.45M-4.15 -47.5L-4.75 -46.45L-4.9 -45.85L-6.9 -44.9L-7.35 -44.65L-7.85 -44.25L-8.25 -44.4L-7.7 -45.7L-7.6 -45.95L-6.75 -47.4L-6.3 -47Q-6.2 -46.75 -5.85 -46.75L-4.9 -47.65L-2.75 -48.9L-2.9 -47.75Q-2.9 -46.75 -2.35 -46.75Q-2 -46.75 -1.05 -47.25L-1.6 -46.3L-4.4 -46L-4.9 -45.85L-4.75 -46.45L-4.15 -47.5M-7.5 -45.3L-7.7 -45.7L-7.5 -45.3M-20.35 -42.25L-19.75 -44.5L-20.35 -42.25L-21.45 -42.15L-22.5 -42L-24.6 -44.2L-22.5 -42L-23.95 -41.6L-24.75 -41.35L-24.75 -41.3L-27 -42.45L-27 -42.7L-25.7 -42.55Q-25.2 -42.5 -25.2 -43.1L-25.3 -43.75L-25.4 -44.5L-25.05 -45.15L-24.25 -45.55Q-23.5 -45.55 -23.05 -44.65Q-22.6 -43.8 -22 -43.8Q-21.45 -43.8 -20.35 -44.55L-18.75 -45.9L-18 -45.9L-17.75 -43.2L-17.1 -43.2L-18.45 -42.3L-18.5 -42.3L-20.35 -42.25M-9.3 -35.15L-9.15 -35Q-7.95 -33.55 -7.35 -31.85Q-6.9 -30.45 -6.9 -29.2Q-6.9 -27.5 -7.85 -25.75L-8.5 -24.75L-22.25 -24.75L-28.7 -31.3L-28.7 -31.45L-28.85 -33.75Q-28.85 -34.95 -28.3 -36.15L-28.1 -36.5Q-27.8 -33.75 -25.3 -32.05Q-22.75 -30.3 -19.15 -30.3Q-14.7 -30.3 -12.75 -32.25Q-11.25 -33.9 -11.2 -36.9L-11.05 -36.8L-10.3 -36.15L-9.3 -35.15" />
<path style="fill:#69360E;fill-opacity:1" d="M-8.5 -24.75L-7.85 -25.75Q-6.9 -27.5 -6.9 -29.2Q-6.9 -30.45 -7.35 -31.85Q-7.95 -33.55 -9.15 -35L-9.3 -35.15L-8.25 -35.4L-7.8 -35.45L-6.75 -35.6L-7.1 -34.05Q-7.1 -31.65 -5.6 -30.15Q-4.25 -28.85 -2.1 -28.85Q-0.05 -28.85 1.3 -30.45L2 -31.5L2.05 -31.4L2.15 -31.25Q2.9 -29.65 2.9 -27.7L2.7 -25.7L2.5 -24.75L-8.5 -24.75" />
<path style="fill:#A15011;fill-opacity:1" d="M1.3 -30.45Q-0.05 -28.85 -2.1 -28.85Q-4.25 -28.85 -5.6 -30.15Q-7.1 -31.65 -7.1 -34.05L-6.75 -35.6L-5.35 -35.7Q-1.3 -35.7 1.35 -32.6L2 -31.5L1.3 -30.45M-4.5 -32.65Q-4.05 -31.8 -3.1 -31.8Q-2.35 -31.8 -1.85 -32.35Q-1.4 -32.75 -1.4 -33.25Q-1.4 -33.65 -1.9 -34.1L-3.05 -34.75Q-4.75 -35.3 -4.75 -33.5L-4.5 -32.65M-0.75 -32.2Q-1.35 -32.2 -1.35 -31.55L-1.3 -31.25Q-1.15 -30.9 -0.75 -30.9Q-0.4 -30.9 -0.25 -31.15L-0.15 -31.55Q-0.15 -32.2 -0.75 -32.2" />
<path style="fill:#384611;fill-opacity:1" d="M16.4 -24.75L14.75 -24.75Q16.25 -27.15 16.75 -29.35L17.8 -29.25L17.8 -29.1Q17.4 -27.15 16.4 -24.75" />
<path style="fill:#312318;fill-opacity:1" d="M14 -11.65L15.05 -11.65L15.05 -7.8L14 -8.3L14 -11.65M-22.6 -11.65L-22.6 -9.3L-24.4 -11.15L-24.4 -13.25L-22.6 -11.65M-33.95 -21.3L-33.95 -17.85L-34.85 -18.6L-34.85 -22.1L-33.95 -21.3M28.25 -11.65L29.75 -11.65L29.75 -10.05L28.25 -10.05L28.25 -11.65" />
<path style="fill:#4F3721;fill-opacity:1" d="M15.05 -11.65L18.5 -11.65L18.5 -7.8L15.05 -7.8L15.05 -11.65M-22.6 -9.3L-22.6 -11.65L-20.1 -11.65L-20.1 -9.3L-22.6 -9.3M-33.95 -17.85L-33.95 -21.3L-31.35 -19.1L-31.35 -15.7L-33.95 -17.85M32.45 -10.05L29.75 -10.05L29.75 -11.65L32.45 -11.65L32.45 -10.05" />
<path style="fill:#E0A577;fill-opacity:1" d="M-4.75 -33.5Q-4.75 -35.3 -3.05 -34.75L-1.9 -34.1Q-1.4 -33.65 -1.4 -33.25Q-1.4 -32.75 -1.85 -32.35Q-2.35 -31.8 -3.1 -31.8Q-4.05 -31.8 -4.5 -32.65L-4.75 -33.5M-0.15 -31.55L-0.25 -31.15Q-0.4 -30.9 -0.75 -30.9Q-1.15 -30.9 -1.3 -31.25L-1.35 -31.55Q-1.35 -32.2 -0.75 -32.2Q-0.15 -32.2 -0.15 -31.55" />
<path style="fill:none;stroke-width:0.7;stroke-linecap:round;stroke-linejoin:round;stroke-miterlimit:3;stroke:#000000;stroke-opacity:0.301961" d="M23 -30.95L23 -31.5L23 -32.25L23 -32.5L22.9 -33.5Q22.5 -36.9 20.6 -39.15L18.45 -41Q16.95 -41.9 15.5 -41.95L14.65 -42L13.55 -41.9L12.9 -41.55Q15.25 -39.8 16.4 -37.65Q15.8 -39.65 17.25 -40.55" />
<path style="fill:none;stroke-width:0.7;stroke-linecap:round;stroke-linejoin:round;stroke-miterlimit:3;stroke:#000000;stroke-opacity:0.301961" d="M22.25 -31.25L23 -30.95L22.7 -28.65Q25.65 -28.25 25.8 -24.75L30.75 -24.75" />
<path style="fill:none;stroke-width:0.7;stroke-linecap:round;stroke-linejoin:round;stroke-miterlimit:3;stroke:#000000;stroke-opacity:0.301961" d="M22.7 -28.65Q22.45 -27.8 22 -27.1Q21.35 -25.9 19.95 -24.75L25.8 -24.75" />
<path style="fill:none;stroke-width:0.7;stroke-linecap:round;stroke-linejoin:round;stroke-miterlimit:3;stroke:#000000;stroke-opacity:0.301961" d="M15.5 -48.4L18.45 -48.4L18.45 -41" />
<path style="fill:none;stroke-width:0.7;stroke-linecap:round;stroke-linejoin:round;stroke-miterlimit:3;stroke:#000000;stroke-opacity:0.301961" d="M8.45 -40.25Q9.9 -41.65 11.15 -41.65L12.15 -41.6L12.2 -41.55L12.9 -41.55" />
<path style="fill:none;stroke-width:0.7;stroke-linecap:round;stroke-linejoin:round;stroke-miterlimit:3;stroke:#000000;stroke-opacity:0.301961" d="M12.2 -41.55L13.25 -40.6L14.75 -38.65L15.5 -37.5L16.25 -35L16.5 -34L16.95 -31.35L16.8 -29.65L16.75 -29.35" />
<path style="fill:none;stroke-width:0.7;stroke-linecap:round;stroke-linejoin:round;stroke-miterlimit:3;stroke:#000000;stroke-opacity:0.301961" d="M17.8 -29.25L18 -31.3L17.7 -33.75L17.1 -36.15L16.8 -36.8L16.55 -37.4L16.4 -37.65" />
<path style="fill:none;stroke-width:0.7;stroke-linecap:round;stroke-linejoin:round;stroke-miterlimit:3;stroke:#000000;stroke-opacity:0.301961" d="M14.65 -42L14.65 -48.4L15.5 -48.4" />
<path style="fill:none;stroke-width:0.7;stroke-linecap:round;stroke-linejoin:round;stroke-miterlimit:3;stroke:#000000;stroke-opacity:0.301961" d="M0.5 -43.3Q1.8 -42.7 2.8 -41.5L3.6 -40.35Q4.4 -38.8 4.4 -37L4.4 -36.8L6.2 -36.8Q7 -38.65 8.25 -40.05L8.45 -40.25" />
<path style="fill:none;stroke-width:0.7;stroke-linecap:round;stroke-linejoin:round;stroke-miterlimit:3;stroke:#000000;stroke-opacity:0.301961" d="M8.15 -38L8.25 -38.1L10.1 -38.5L11.05 -38.3L11.75 -37.05L11.9 -36.8L12 -36.15L12.2 -34.95L12.2 -32.8L12.15 -31" />
<path style="fill:none;stroke-width:0.7;stroke-linecap:round;stroke-linejoin:round;stroke-miterlimit:3;stroke:#000000;stroke-opacity:0.301961" d="M14.5 -29.85L16.8 -29.65" />
<path style="fill:none;stroke-width:0.7;stroke-linecap:round;stroke-linejoin:round;stroke-miterlimit:3;stroke:#000000;stroke-opacity:0.301961" d="M-1.6 -46.3L-0.5 -45.65Q0.6 -44.8 0.6 -43.95L0.5 -43.3L-0.5 -43.65L-2.35 -43.9L-3.6 -43.75Q-5.45 -43.45 -7.4 -42.25L-8.7 -40.9L-9.05 -40.35" />
<path style="fill:none;stroke-width:0.7;stroke-linecap:round;stroke-linejoin:round;stroke-miterlimit:3;stroke:#000000;stroke-opacity:0.301961" d="M9.7 -36.3L10.55 -35.05L9.5 -33.7L9.4 -33.5Q9.15 -33 9.25 -32.7L9.6 -31.9L8.9 -31.65L8.25 -30.9Q8.1 -30.4 8.25 -29.65L7.75 -29.3L7.35 -28.6L7.55 -27.95L6.9 -27.55Q6.2 -27.05 6.2 -26.65L6.3 -26.4L6.45 -26.05L4.15 -25.15L4.15 -25.25L4.55 -25.75L4.9 -26.4L4.75 -26.8L4.65 -27.1L5.4 -27.85L4.9 -29.15L5.9 -29.75L5.7 -30.4Q7.1 -31 7.1 -31.5L6.9 -32L6.75 -32.25Q7.75 -32.5 7.75 -33L7.65 -33.3L7.55 -33.4L8.25 -33.7L8.85 -34.5L8.9 -34.8L8.75 -35.25L8.45 -35.75L9.55 -36.5" />
<path style="fill:none;stroke-width:0.7;stroke-linecap:round;stroke-linejoin:round;stroke-miterlimit:3;stroke:#000000;stroke-opacity:0.301961" d="M2.6 -32.5L2.05 -31.4L2.15 -31.25Q2.9 -29.65 2.9 -27.7L2.7 -25.7L2.5 -24.75L10.3 -24.75L11.15 -26.05" />
<path style="fill:none;stroke-width:0.7;stroke-linecap:round;stroke-linejoin:round;stroke-miterlimit:3;stroke:#000000;stroke-opacity:0.301961" d="M9.7 -36.3L9.6 -36.5L9.55 -36.5" />
<path style="fill:none;stroke-width:0.7;stroke-linecap:round;stroke-linejoin:round;stroke-miterlimit:3;stroke:#000000;stroke-opacity:0.301961" d="M5.4 -36.15L5.7 -36.4L6.2 -36.8L8.15 -38" />
<path style="fill:none;stroke-width:0.7;stroke-linecap:round;stroke-linejoin:round;stroke-miterlimit:3;stroke:#000000;stroke-opacity:0.301961" d="M4.4 -36.15L4.4 -36.8" />
<path style="fill:none;stroke-width:0.7;stroke-linecap:round;stroke-linejoin:round;stroke-miterlimit:3;stroke:#000000;stroke-opacity:0.301961" d="M4.4 -36.15L4.1 -35.05L3.95 -34.55L5.4 -36.15" />
<path style="fill:none;stroke-width:0.7;stroke-linecap:round;stroke-linejoin:round;stroke-miterlimit:3;stroke:#000000;stroke-opacity:0.301961" d="M1.35 -32.6L2 -31.5L2.05 -31.4" />
<path style="fill:none;stroke-width:0.7;stroke-linecap:round;stroke-linejoin:round;stroke-miterlimit:3;stroke:#000000;stroke-opacity:0.301961" d="M3.25 -33.5L3.25 -33.6L3.3 -33.65L3.95 -34.55" />
<path style="fill:none;stroke-width:0.7;stroke-linecap:round;stroke-linejoin:round;stroke-miterlimit:3;stroke:#000000;stroke-opacity:0.301961" d="M2.6 -32.5L3.25 -33.5Q2.1 -32.6 1.35 -32.6Q-1.3 -35.7 -5.35 -35.7L-6.75 -35.6" />
<path style="fill:none;stroke-width:0.7;stroke-linecap:round;stroke-linejoin:round;stroke-miterlimit:3;stroke:#000000;stroke-opacity:0.301961" d="M14.5 -29.85Q13.75 -29.7 13 -29.2" />
<path style="fill:none;stroke-width:0.7;stroke-linecap:round;stroke-linejoin:round;stroke-miterlimit:3;stroke:#000000;stroke-opacity:0.301961" d="M17.8 -29.25L17.8 -29.1L17.95 -29.25Q20.45 -31.75 22.25 -31.25" />
<path style="fill:none;stroke-width:0.7;stroke-linecap:round;stroke-linejoin:round;stroke-miterlimit:3;stroke:#000000;stroke-opacity:0.301961" d="M12.15 -31Q11.95 -27.95 11.15 -26.05" />
<path style="fill:none;stroke-width:0.7;stroke-linecap:round;stroke-linejoin:round;stroke-miterlimit:3;stroke:#000000;stroke-opacity:0.301961" d="M16.5 -34Q14.9 -36.15 12.75 -35.7" />
<path style="fill:none;stroke-width:0.7;stroke-linecap:round;stroke-linejoin:round;stroke-miterlimit:3;stroke:#000000;stroke-opacity:0.301961" d="M14.75 -38.65Q12.1 -40.65 9.45 -39.55" />
<path style="fill:none;stroke-width:0.7;stroke-linecap:round;stroke-linejoin:round;stroke-miterlimit:3;stroke:#000000;stroke-opacity:0.301961" d="M19.95 -24.75L16.4 -24.75L14.75 -24.75L10.3 -24.75" />
<path style="fill:none;stroke-width:0.7;stroke-linecap:round;stroke-linejoin:round;stroke-miterlimit:3;stroke:#000000;stroke-opacity:0.301961" d="M18.5 -7.8L18.5 -11.65L15.05 -11.65L15.05 -7.8" />
<path style="fill:none;stroke-width:0.7;stroke-linecap:round;stroke-linejoin:round;stroke-miterlimit:3;stroke:#000000;stroke-opacity:0.301961" d="M14 -8.3L14 0.15L15.05 0.15L15.05 -7.8" />
<path style="fill:none;stroke-width:0.7;stroke-linecap:round;stroke-linejoin:round;stroke-miterlimit:3;stroke:#000000;stroke-opacity:0.301961" d="M14 -11.65L15.05 -11.65" />
<path style="fill:none;stroke-width:0.7;stroke-linecap:round;stroke-linejoin:round;stroke-miterlimit:3;stroke:#000000;stroke-opacity:0.301961" d="M14 -8.3L14 -11.65L-20.1 -11.65L-20.1 -9.3L-20.1 0.15L-22.6 0.15L-24.4 0.15L-24.4 -11.15L-24.4 -13.25L-31.35 -19.1L-31.35 -15.7L-31.35 0.15L-33.95 0.15L-34.85 0.15L-34.85 -18.6L-34.85 -22.1L-34.85 -36.8L-34.1 -36.8L-34.1 -48L-33.75 -48L-33.75 -48.35" />
<path style="fill:none;stroke-width:0.7;stroke-linecap:round;stroke-linejoin:round;stroke-miterlimit:3;stroke:#000000;stroke-opacity:0.14902" d="M8.6 -14.5L13.05 -14.5" />
<path style="fill:none;stroke-width:0.7;stroke-linecap:round;stroke-linejoin:round;stroke-miterlimit:3;stroke:#000000;stroke-opacity:0.301961" d="M28.25 -11.65L29.75 -11.65L32.45 -11.65L32.45 -24" />
<path style="fill:none;stroke-width:0.7;stroke-linecap:round;stroke-linejoin:round;stroke-miterlimit:3;stroke:#000000;stroke-opacity:0.301961" d="M-22.6 -24L-22.6 -11.65L-20.1 -11.65" />
<path style="fill:none;stroke-width:0.7;stroke-linecap:round;stroke-linejoin:round;stroke-miterlimit:3;stroke:#000000;stroke-opacity:0.301961" d="M29.75 -11.65L29.75 -10.05" />
<path style="fill:none;stroke-width:0.7;stroke-linecap:round;stroke-linejoin:round;stroke-miterlimit:3;stroke:#000000;stroke-opacity:0.301961" d="M32.45 -10.05L32.45 -11.65" />
<path style="fill:none;stroke-width:0.7;stroke-linecap:round;stroke-linejoin:round;stroke-miterlimit:3;stroke:#000000;stroke-opacity:0.301961" d="M28.25 -10.05L28.25 0.15L29.75 0.15L29.75 -10.05" />
<path style="fill:none;stroke-width:0.7;stroke-linecap:round;stroke-linejoin:round;stroke-miterlimit:3;stroke:#000000;stroke-opacity:0.301961" d="M28.25 -10.05L28.25 -11.65L18.5 -11.65" />
<path style="fill:none;stroke-width:0.7;stroke-linecap:round;stroke-linejoin:round;stroke-miterlimit:3;stroke:#000000;stroke-opacity:0.301961" d="M22.9 -33.5L32.45 -24" />
<path style="fill:none;stroke-width:0.7;stroke-linecap:round;stroke-linejoin:round;stroke-miterlimit:3;stroke:#000000;stroke-opacity:0.301961" d="M14.75 -24.75Q16.25 -27.15 16.75 -29.35" />
<path style="fill:none;stroke-width:0.7;stroke-linecap:round;stroke-linejoin:round;stroke-miterlimit:3;stroke:#000000;stroke-opacity:0.301961" d="M16.4 -24.75Q17.4 -27.15 17.8 -29.1" />
<path style="fill:none;stroke-width:0.7;stroke-linecap:round;stroke-linejoin:round;stroke-miterlimit:3;stroke:#000000;stroke-opacity:0.14902" d="M13.05 -20.4L21.5 -20.4" />
<path style="fill:none;stroke-width:0.7;stroke-linecap:round;stroke-linejoin:round;stroke-miterlimit:3;stroke:#000000;stroke-opacity:0.301961" d="M17.7 -33.75Q19.25 -35.9 21.5 -36.2" />
<path style="fill:none;stroke-width:0.7;stroke-linecap:round;stroke-linejoin:round;stroke-miterlimit:3;stroke:#000000;stroke-opacity:0.301961" d="M18.5 -7.8L18.5 0.15L15.05 0.15" />
<path style="fill:none;stroke-width:0.7;stroke-linecap:round;stroke-linejoin:round;stroke-miterlimit:3;stroke:#000000;stroke-opacity:0.301961" d="M32.45 -10.05L32.45 0.15L29.75 0.15" />
<path style="fill:none;stroke-width:0.7;stroke-linecap:round;stroke-linejoin:round;stroke-miterlimit:3;stroke:#000000;stroke-opacity:0.301961" d="M-1.05 -47.25L0.4 -49.75L-1.35 -49.45Q-2 -49.45 -2.05 -49.95Q-2.1 -50.4 -2.45 -50.4Q-3 -50.4 -3.75 -49.7Q-4.45 -48.95 -4.85 -48.95L-6.75 -49.85L-7.65 -49.15Q-8.55 -48.3 -8.65 -47.5L-8.1 -46.55L-7.7 -45.7" />
<path style="fill:none;stroke-width:0.7;stroke-linecap:round;stroke-linejoin:round;stroke-miterlimit:3;stroke:#000000;stroke-opacity:0.301961" d="M-1.05 -47.25L-1.6 -46.3L-1.1 -45.4Q-0.45 -44.3 -0.5 -43.65" />
<path style="fill:none;stroke-width:0.7;stroke-linecap:round;stroke-linejoin:round;stroke-miterlimit:3;stroke:#000000;stroke-opacity:0.301961" d="M-4.9 -45.85L-4.75 -46.45L-4.15 -47.5" />
<path style="fill:none;stroke-width:0.7;stroke-linecap:round;stroke-linejoin:round;stroke-miterlimit:3;stroke:#000000;stroke-opacity:0.301961" d="M-4.9 -45.85L-4.4 -46L-1.6 -46.3" />
<path style="fill:none;stroke-width:0.7;stroke-linecap:round;stroke-linejoin:round;stroke-miterlimit:3;stroke:#000000;stroke-opacity:0.301961" d="M-4.4 -46Q-2.85 -45.3 -3.6 -43.75" />
<path style="fill:none;stroke-width:0.7;stroke-linecap:round;stroke-linejoin:round;stroke-miterlimit:3;stroke:#000000;stroke-opacity:0.301961" d="M-8.65 -47.5Q-9.25 -48.4 -9.7 -48.3L-9.35 -47.55L-9.1 -46.7L-9.85 -46.7L-10.7 -47.15L-11.35 -47.35Q-11.85 -47.35 -11.85 -46.9Q-11.85 -45.9 -10.35 -45.25L-8.25 -44.4" />
<path style="fill:none;stroke-width:0.7;stroke-linecap:round;stroke-linejoin:round;stroke-miterlimit:3;stroke:#000000;stroke-opacity:0.301961" d="M-7.7 -45.7L-7.5 -45.3" />
<path style="fill:none;stroke-width:0.7;stroke-linecap:round;stroke-linejoin:round;stroke-miterlimit:3;stroke:#000000;stroke-opacity:0.301961" d="M-8.25 -44.4L-7.85 -44.25L-7.35 -44.65L-6.9 -44.9L-4.9 -45.85" />
<path style="fill:none;stroke-width:0.7;stroke-linecap:round;stroke-linejoin:round;stroke-miterlimit:3;stroke:#000000;stroke-opacity:0.301961" d="M-8.7 -40.9L-9 -42.15Q-9 -43.25 -7.85 -44.25" />
<path style="fill:none;stroke-width:0.7;stroke-linecap:round;stroke-linejoin:round;stroke-miterlimit:3;stroke:#000000;stroke-opacity:0.301961" d="M-9.2 -36.8Q-9.6 -37.5 -9.6 -38Q-9.6 -39.3 -9.05 -40.35" />
<path style="fill:none;stroke-width:0.7;stroke-linecap:round;stroke-linejoin:round;stroke-miterlimit:3;stroke:#000000;stroke-opacity:0.301961" d="M-7.4 -42.25Q-8.15 -43.15 -7.35 -44.65" />
<path style="fill:none;stroke-width:0.7;stroke-linecap:round;stroke-linejoin:round;stroke-miterlimit:3;stroke:#000000;stroke-opacity:0.301961" d="M-17.1 -43.2Q-15.95 -44.2 -15.85 -45.3Q-15.7 -46.95 -16 -47.1L-16.6 -47.2L-17.75 -47.1Q-18.4 -47.1 -18.6 -48.1Q-18.8 -49.15 -19.8 -49.15Q-20.95 -49.15 -21.85 -47.8Q-22.7 -46.45 -23.6 -46.45Q-24.5 -46.45 -25 -46.95Q-25.5 -47.45 -26 -47.45L-26.4 -47.4L-26.85 -47L-26.7 -46.5L-26.75 -46.25Q-26.85 -46.15 -27.1 -46.15L-28.25 -46.55L-29.25 -47L-29.75 -46.75L-30.1 -46Q-30.2 -45.5 -28.7 -43.9L-27 -42.45L-24.75 -41.3L-24.75 -41.35L-23.95 -41.6L-22.5 -42L-24.6 -44.2" />
<path style="fill:none;stroke-width:0.7;stroke-linecap:round;stroke-linejoin:round;stroke-miterlimit:3;stroke:#000000;stroke-opacity:0.301961" d="M-15.4 -39.3Q-14.35 -41 -17.35 -42.25L-18.45 -42.3L-18.5 -42.25Q-16.8 -40.9 -18 -39.5L-16.35 -39.4L-16.1 -39.4L-15.4 -39.3Q-13.9 -38.95 -11.95 -37.5L-11.2 -36.9L-11.05 -36.8L-9.2 -36.8L-8.95 -36.3L-8.85 -36.15L-8.25 -35.4L-7.8 -35.45L-6.75 -35.6" />
<path style="fill:none;stroke-width:0.7;stroke-linecap:round;stroke-linejoin:round;stroke-miterlimit:3;stroke:#000000;stroke-opacity:0.301961" d="M-18.5 -42.3L-18.5 -42.25" />
<path style="fill:none;stroke-width:0.7;stroke-linecap:round;stroke-linejoin:round;stroke-miterlimit:3;stroke:#000000;stroke-opacity:0.301961" d="M-18.5 -42.3L-18.45 -42.3L-17.1 -43.2" />
<path style="fill:none;stroke-width:0.7;stroke-linecap:round;stroke-linejoin:round;stroke-miterlimit:3;stroke:#000000;stroke-opacity:0.301961" d="M-21.05 -38.35L-21.1 -38.6L-20.85 -38.9L-19.75 -38L-18.55 -36.8L-18.25 -36.35" />
<path style="fill:none;stroke-width:0.7;stroke-linecap:round;stroke-linejoin:round;stroke-miterlimit:3;stroke:#000000;stroke-opacity:0.301961" d="M-11.05 -36.8L-10.3 -36.15" />
<path style="fill:none;stroke-width:0.7;stroke-linecap:round;stroke-linejoin:round;stroke-miterlimit:3;stroke:#000000;stroke-opacity:0.301961" d="M-9.3 -35.15L-9.15 -35Q-7.95 -33.55 -7.35 -31.85Q-6.9 -30.45 -6.9 -29.2Q-6.9 -27.5 -7.85 -25.75L-8.5 -24.75L2.5 -24.75" />
<path style="fill:none;stroke-width:0.7;stroke-linecap:round;stroke-linejoin:round;stroke-miterlimit:3;stroke:#000000;stroke-opacity:0.301961" d="M-8.25 -35.4L-9.3 -35.15L-10.3 -36.15" />
<path style="fill:none;stroke-width:0.7;stroke-linecap:round;stroke-linejoin:round;stroke-miterlimit:3;stroke:#000000;stroke-opacity:0.301961" d="M-27.95 -36.8L-27.75 -37.15L-26.2 -38.8L-26.1 -38.9Q-27.6 -39.6 -25.4 -41.1L-24.75 -41.3" />
<path style="fill:none;stroke-width:0.7;stroke-linecap:round;stroke-linejoin:round;stroke-miterlimit:3;stroke:#000000;stroke-opacity:0.301961" d="M-22.5 -42L-21.45 -42.15L-20.35 -42.25L-19.75 -44.5" />
<path style="fill:none;stroke-width:0.7;stroke-linecap:round;stroke-linejoin:round;stroke-miterlimit:3;stroke:#000000;stroke-opacity:0.301961" d="M-23.25 -39.3L-22.2 -39.4L-21.2 -39.5Q-20.5 -41.2 -21.45 -42.15" />
<path style="fill:none;stroke-width:0.7;stroke-linecap:round;stroke-linejoin:round;stroke-miterlimit:3;stroke:#000000;stroke-opacity:0.301961" d="M-23.25 -39.3Q-24.6 -40 -23.95 -41.6" />
<path style="fill:none;stroke-width:0.7;stroke-linecap:round;stroke-linejoin:round;stroke-miterlimit:3;stroke:#000000;stroke-opacity:0.301961" d="M-22.2 -39.4L-23.5 -38.6Q-24.45 -37.85 -24.9 -36.8L-25.15 -36.15" />
<path style="fill:none;stroke-width:0.7;stroke-linecap:round;stroke-linejoin:round;stroke-miterlimit:3;stroke:#000000;stroke-opacity:0.301961" d="M-26.1 -38.9L-23.25 -39.3" />
<path style="fill:none;stroke-width:0.7;stroke-linecap:round;stroke-linejoin:round;stroke-miterlimit:3;stroke:#000000;stroke-opacity:0.301961" d="M-33.75 -48L-31.55 -48L-31.55 -36.8L-27.95 -36.8L-28.1 -36.5L-28.3 -36.15Q-28.85 -34.95 -28.85 -33.75L-28.7 -31.45L-28.7 -31.3L-22.25 -24.75L-8.5 -24.75" />
<path style="fill:none;stroke-width:0.7;stroke-linecap:round;stroke-linejoin:round;stroke-miterlimit:3;stroke:#000000;stroke-opacity:0.301961" d="M-31.55 -34.2L-33.75 -36.5L-34.1 -36.75L-34.1 -36.8" />
<path style="fill:none;stroke-width:0.7;stroke-linecap:round;stroke-linejoin:round;stroke-miterlimit:3;stroke:#000000;stroke-opacity:0.301961" d="M-31.55 -36.15L-31.55 -34.2L-28.7 -31.3" />
<path style="fill:none;stroke-width:0.7;stroke-linecap:round;stroke-linejoin:round;stroke-miterlimit:3;stroke:#000000;stroke-opacity:0.301961" d="M-31.55 -36.8L-31.55 -36.15" />
<path style="fill:none;stroke-width:0.7;stroke-linecap:round;stroke-linejoin:round;stroke-miterlimit:3;stroke:#000000;stroke-opacity:0.14902" d="M-30.15 -26.4L-28.55 -24.85" />
<path style="fill:none;stroke-width:0.7;stroke-linecap:round;stroke-linejoin:round;stroke-miterlimit:3;stroke:#000000;stroke-opacity:0.14902" d="M-32.4 -30.85L-28.8 -27.25" />
<path style="fill:none;stroke-width:0.7;stroke-linecap:round;stroke-linejoin:round;stroke-miterlimit:3;stroke:#000000;stroke-opacity:0.301961" d="M-33.95 -21.3L-33.95 -17.85" />
<path style="fill:none;stroke-width:0.7;stroke-linecap:round;stroke-linejoin:round;stroke-miterlimit:3;stroke:#000000;stroke-opacity:0.301961" d="M-31.35 -19.1L-33.95 -21.3L-34.85 -22.1" />
<path style="fill:none;stroke-width:0.7;stroke-linecap:round;stroke-linejoin:round;stroke-miterlimit:3;stroke:#000000;stroke-opacity:0.301961" d="M-22.6 -11.65L-22.6 -9.3" />
<path style="fill:none;stroke-width:0.7;stroke-linecap:round;stroke-linejoin:round;stroke-miterlimit:3;stroke:#000000;stroke-opacity:0.301961" d="M-24.4 -13.25L-22.6 -11.65" />
<path style="fill:none;stroke-width:0.7;stroke-linecap:round;stroke-linejoin:round;stroke-miterlimit:3;stroke:#000000;stroke-opacity:0.14902" d="M-32.4 -23.15L-25.1 -17.1" />
<path style="fill:none;stroke-width:0.7;stroke-linecap:round;stroke-linejoin:round;stroke-miterlimit:3;stroke:#000000;stroke-opacity:0.14902" d="M-16.85 -21.35L-12.3 -21.35" />
<path style="fill:none;stroke-width:0.7;stroke-linecap:round;stroke-linejoin:round;stroke-miterlimit:3;stroke:#000000;stroke-opacity:0.301961" d="M-21.2 -39.5L-18 -39.5" />
<path style="fill:none;stroke-width:0.7;stroke-linecap:round;stroke-linejoin:round;stroke-miterlimit:3;stroke:#000000;stroke-opacity:0.14902" d="M-20.55 -14.15L-12.1 -14.15" />
<path style="fill:none;stroke-width:0.7;stroke-linecap:round;stroke-linejoin:round;stroke-miterlimit:3;stroke:#000000;stroke-opacity:0.301961" d="M-18.5 -42.3L-20.35 -42.25" />
<path style="fill:none;stroke-width:0.7;stroke-linecap:round;stroke-linejoin:round;stroke-miterlimit:3;stroke:#000000;stroke-opacity:0.301961" d="M-33.95 0.15L-33.95 -17.85" />
<path style="fill:none;stroke-width:0.7;stroke-linecap:round;stroke-linejoin:round;stroke-miterlimit:3;stroke:#000000;stroke-opacity:0.301961" d="M-22.6 0.15L-22.6 -9.3" />
<path style="fill:none;stroke-width:0.7;stroke-linecap:round;stroke-linejoin:round;stroke-miterlimit:3;stroke:#000000;stroke-opacity:0.14902" d="M-8.2 -16.9L25.65 -16.9" />
</g>
<g id="PathID_581" transform="matrix(1, 0, 0, 1, 35, 79.55)">
<path style="fill:#463323;fill-opacity:1" d="M29.25 -25.25L28.45 -25.25L28.45 -71.4L29.25 -72.15L29.25 -25.25M-22.45 -25.15L-23.15 -25.8L-23.15 -78.25L-22.45 -77.5L-22.45 -25.15" />
<path style="fill:#705034;fill-opacity:1" d="M30.35 -25.3L29.25 -25.25L29.25 -72.15L30.35 -73.25L30.35 -25.3M-20.95 -25.15L-22.45 -25.15L-22.45 -77.5L-20.95 -76L-20.95 -25.15" />
<path style="fill:none;stroke-width:0.7;stroke-linecap:round;stroke-linejoin:round;stroke-miterlimit:3;stroke:#000000;stroke-opacity:0.301961" d="M29.25 -72.15L30.35 -73.25L30.35 -74.35" />
<path style="fill:none;stroke-width:0.7;stroke-linecap:round;stroke-linejoin:round;stroke-miterlimit:3;stroke:#000000;stroke-opacity:0.301961" d="M28.45 -71.4L29.25 -72.15L29.25 -74.85" />
<path style="fill:none;stroke-width:0.7;stroke-linecap:round;stroke-linejoin:round;stroke-miterlimit:3;stroke:#000000;stroke-opacity:0.301961" d="M28.45 -71.4L28.45 -73.1" />
<path style="fill:none;stroke-width:0.7;stroke-linecap:round;stroke-linejoin:round;stroke-miterlimit:3;stroke:#000000;stroke-opacity:0.301961" d="M29.25 -25.25L30.35 -25.3L30.35 -73.25" />
<path style="fill:none;stroke-width:0.7;stroke-linecap:round;stroke-linejoin:round;stroke-miterlimit:3;stroke:#000000;stroke-opacity:0.301961" d="M28.45 -71.4L28.45 -25.25L29.25 -25.25" />
<path style="fill:none;stroke-width:0.7;stroke-linecap:round;stroke-linejoin:round;stroke-miterlimit:3;stroke:#000000;stroke-opacity:0.301961" d="M-22.45 -77.5L-20.95 -76L-20.95 -76.85" />
<path style="fill:none;stroke-width:0.7;stroke-linecap:round;stroke-linejoin:round;stroke-miterlimit:3;stroke:#000000;stroke-opacity:0.301961" d="M-22.45 -25.15L-23.15 -25.8L-23.15 -78.25L-22.45 -77.5" />
<path style="fill:none;stroke-width:0.7;stroke-linecap:round;stroke-linejoin:round;stroke-miterlimit:3;stroke:#000000;stroke-opacity:0.301961" d="M-22.45 -25.15L-20.95 -25.15L-20.95 -76" />
</g>
<g id="PathID_582" transform="matrix(1, 0, 0, 1, 35, 79.55)">
<path style="fill:#6BC4CD;fill-opacity:1" d="M20.05 -79.4L34.4 -79.4Q34.75 -78.65 34.7 -77.8Q34.55 -74.9 33 -72.7Q31.25 -70.15 28.25 -70.15Q25.35 -70.15 22.9 -72.7Q20.75 -74.9 20.25 -77.95L20.05 -79.4M-8.65 -79.4L5.75 -79.4L5.75 -77.65Q5.55 -74.6 4.25 -72.7Q2.45 -70.15 -0.5 -70.15Q-3.4 -70.15 -5.85 -72.7Q-8 -74.9 -8.55 -77.95L-8.65 -79.4" />
<path style="fill:#E9E5DF;fill-opacity:1" d="M5.75 -79.4L20.05 -79.4L20.25 -77.95Q20.2 -74.9 18.6 -72.7Q16.85 -70.15 13.9 -70.15Q10.95 -70.15 8.55 -72.7Q6.5 -74.8 5.75 -77.65L5.75 -79.4M-8.55 -77.95Q-8.7 -74.9 -10.3 -72.7Q-12.05 -70.15 -15 -70.15Q-17.95 -70.15 -20.4 -72.7Q-22.5 -74.9 -23.05 -77.95L-23.05 -79.4L-8.65 -79.4L-8.55 -77.95" />
<path style="fill:none;stroke-width:0.7;stroke-linecap:round;stroke-linejoin:round;stroke-miterlimit:3;stroke:#000000;stroke-opacity:0.301961" d="M20.05 -79.4L34.4 -79.4Q34.75 -78.65 34.7 -77.8Q34.55 -74.9 33 -72.7Q31.25 -70.15 28.25 -70.15Q25.35 -70.15 22.9 -72.7Q20.75 -74.9 20.25 -77.95Q20.2 -74.9 18.6 -72.7Q16.85 -70.15 13.9 -70.15Q10.95 -70.15 8.55 -72.7Q6.5 -74.8 5.75 -77.65Q5.55 -74.6 4.25 -72.7Q2.45 -70.15 -0.5 -70.15Q-3.4 -70.15 -5.85 -72.7Q-8 -74.9 -8.55 -77.95Q-8.7 -74.9 -10.3 -72.7Q-12.05 -70.15 -15 -70.15Q-17.95 -70.15 -20.4 -72.7Q-22.5 -74.9 -23.05 -77.95L-23.05 -79.4L-8.65 -79.4L5.75 -79.4L20.05 -79.4z" />
</g>
</svg>
