<?xml version="1.0" encoding="utf-8"?>
<svg version="1.1" id="Layer_1"
xmlns="http://www.w3.org/2000/svg"
xmlns:xlink="http://www.w3.org/1999/xlink"
width="59px" height="50px"
xml:space="preserve">
<g id="PathID_598" transform="matrix(1, 0, 0, 1, 29, 44.2)">
<radialGradient
id="RadialGradID_240" gradientUnits="userSpaceOnUse" gradientTransform="matrix(0.0342865, 0, 0, 0.0271149, 0.55, -21.75)" spreadMethod ="pad" cx="0" cy="0" r="819.2" fx="0" fy="0" >
<stop  offset="0"  style="stop-color:#FFFDF5;stop-opacity:0.878431" />
<stop  offset="0.14902"  style="stop-color:#FFD202;stop-opacity:0.701961" />
<stop  offset="0.392157"  style="stop-color:#F79331;stop-opacity:0.541176" />
<stop  offset="0.615686"  style="stop-color:#FCC86F;stop-opacity:0.141176" />
<stop  offset="1"  style="stop-color:#FFDD87;stop-opacity:0" />
</radialGradient>
<path style="fill:url(#RadialGradID_240) " d="M21.35 -37.6Q29.9 -31.1 29.9 -21.75Q29.9 -12.4 21.35 -5.8Q12.8 0.7 0.55 0.7Q-11.85 0.7 -20.45 -5.8Q-29 -12.4 -29 -21.75Q-29 -31.1 -20.45 -37.6Q-11.85 -44.2 0.55 -44.2Q12.8 -44.2 21.35 -37.6" />
</g>
<g id="PathID_599" transform="matrix(1, 0, 0, 1, 29, 44.2)">
<path style="fill:#77542D;fill-opacity:1" d="M-13.6 -8Q-12.7 -6.7 -12.6 -4.75Q-12.6 -2.95 -13.45 -1.55Q-14.15 -0.4 -15.05 -0.2L-15.5 -0.1L-15.55 -0.1L-15.6 -0.15Q-16.75 -0.1 -17.65 -1.4Q-18.6 -2.7 -18.7 -4.65Q-18.75 -6.55 -17.85 -7.9Q-17.05 -9.25 -15.8 -9.25L-15.7 -9.3Q-14.5 -9.25 -13.6 -8M-15.6 -0.15Q-16.35 -0.5 -16.9 -1.55Q-17.45 -2.65 -17.35 -4.05Q-17.25 -5.45 -16.7 -6.15Q-16.25 -6.65 -15.8 -6.65Q-14.5 -6.55 -14.75 -3.15Q-14.8 -2.45 -14.95 -2.3L-15.2 -2.1Q-15.7 -2.15 -16.05 -3.25L-16.35 -4.45L-16.2 -5Q-15.35 -4.9 -15.6 -4Q-15.35 -4.9 -16.2 -5L-16.35 -4.45L-16.05 -3.25Q-15.7 -2.15 -15.2 -2.1L-14.95 -2.3Q-14.8 -2.45 -14.75 -3.15Q-14.5 -6.55 -15.8 -6.65Q-16.25 -6.65 -16.7 -6.15Q-17.25 -5.45 -17.35 -4.05Q-17.45 -2.65 -16.9 -1.55Q-16.35 -0.5 -15.6 -0.15L-15.55 -0.1" />
<path style="fill:#3A2711;fill-opacity:1" d="M-15.7 -9.3L-0.8 -9.6Q2.8 -8.8 2.75 -5.55Q2.7 -2.25 -0.05 -1.6L-15.05 -0.2Q-14.15 -0.4 -13.45 -1.55Q-12.6 -2.95 -12.6 -4.75Q-12.7 -6.7 -13.6 -8Q-14.5 -9.25 -15.7 -9.3M-4.65 -8.35L-10.3 -7.9L-4.65 -8.35M0.3 -6.2L-10.7 -5.85L0.3 -6.2M0.3 -3.95L-3.95 -3.55L0.3 -3.95" />
<path style="fill:none;stroke-width:0.7;stroke-linecap:round;stroke-linejoin:round;stroke-miterlimit:3;stroke:#000000;stroke-opacity:0.301961" d="M-15.05 -0.2L-15.5 -0.1L-15.55 -0.1Q-16.75 -0.1 -17.65 -1.4Q-18.6 -2.7 -18.7 -4.65Q-18.75 -6.55 -17.85 -7.9Q-17.05 -9.25 -15.8 -9.25L-15.7 -9.3L-0.8 -9.6Q2.8 -8.8 2.75 -5.55Q2.7 -2.25 -0.05 -1.6L-15.05 -0.2Q-14.15 -0.4 -13.45 -1.55Q-12.6 -2.95 -12.6 -4.75Q-12.7 -6.7 -13.6 -8Q-14.5 -9.25 -15.7 -9.3" />
<path style="fill:none;stroke-width:0.7;stroke-linecap:round;stroke-linejoin:round;stroke-miterlimit:3;stroke:#000000;stroke-opacity:0.301961" d="M-15.55 -0.1L-15.6 -0.15Q-16.35 -0.5 -16.9 -1.55Q-17.45 -2.65 -17.35 -4.05Q-17.25 -5.45 -16.7 -6.15Q-16.25 -6.65 -15.8 -6.65Q-14.5 -6.55 -14.75 -3.15Q-14.8 -2.45 -14.95 -2.3L-15.2 -2.1Q-15.7 -2.15 -16.05 -3.25L-16.35 -4.45L-16.2 -5Q-15.35 -4.9 -15.6 -4" />
<path style="fill:none;stroke-width:0.7;stroke-linecap:round;stroke-linejoin:round;stroke-miterlimit:3;stroke:#000000;stroke-opacity:0.301961" d="M-10.3 -7.9L-4.65 -8.35" />
<path style="fill:none;stroke-width:0.7;stroke-linecap:round;stroke-linejoin:round;stroke-miterlimit:3;stroke:#000000;stroke-opacity:0.301961" d="M-10.7 -5.85L0.3 -6.2" />
<path style="fill:none;stroke-width:0.7;stroke-linecap:round;stroke-linejoin:round;stroke-miterlimit:3;stroke:#000000;stroke-opacity:0.301961" d="M-3.95 -3.55L0.3 -3.95" />
</g>
<g id="PathID_600" transform="matrix(1, 0, 0, 1, 29, 44.2)">
<path style="fill:#3A2711;fill-opacity:1" d="M14.6 -7.15Q13.9 -6 13.8 -4.4Q13.8 -2.8 14.45 -1.75Q15.1 -0.8 15.85 -0.7L3.45 -1.15Q1.15 -1.55 1.1 -4.3Q1.1 -7 4.05 -7.9L16.3 -8.3Q15.3 -8.2 14.6 -7.15M3.15 -3.05L6.7 -2.9L3.15 -3.05M3.15 -5L12.25 -5.2L3.15 -5M7.25 -7L11.9 -6.85L7.25 -7" />
<path style="fill:#77542D;fill-opacity:1" d="M15.85 -0.7Q15.1 -0.8 14.45 -1.75Q13.8 -2.8 13.8 -4.4Q13.9 -6 14.6 -7.15Q15.3 -8.2 16.3 -8.3L16.35 -8.25Q17.4 -8.35 18.15 -7.25Q18.9 -6.2 18.8 -4.55Q18.8 -3 18 -1.8Q17.25 -0.7 16.2 -0.65L15.85 -0.7" />
<path style="fill:none;stroke-width:0.7;stroke-linecap:round;stroke-linejoin:round;stroke-miterlimit:3;stroke:#000000;stroke-opacity:0.301961" d="M16.3 -8.3L4.05 -7.9Q1.1 -7 1.1 -4.3Q1.15 -1.55 3.45 -1.15L15.85 -0.7Q15.1 -0.8 14.45 -1.75Q13.8 -2.8 13.8 -4.4Q13.9 -6 14.6 -7.15Q15.3 -8.2 16.3 -8.3L16.35 -8.25Q17.4 -8.35 18.15 -7.25Q18.9 -6.2 18.8 -4.55Q18.8 -3 18 -1.8Q17.25 -0.7 16.2 -0.65L16.3 -0.7Q16.95 -1 17.3 -1.95Q17.8 -2.85 17.7 -4.05Q17.6 -5.2 17.2 -5.8Q16.85 -6.15 16.5 -6.1Q15.4 -6 15.6 -3.2L15.7 -2.45Q15.75 -2.3 16 -2.35Q16.4 -2.35 16.65 -3.3L16.9 -4.3L16.75 -4.75Q16.05 -4.6 16.3 -3.95" />
<path style="fill:none;stroke-width:0.7;stroke-linecap:round;stroke-linejoin:round;stroke-miterlimit:3;stroke:#000000;stroke-opacity:0.301961" d="M6.7 -2.9L3.15 -3.05" />
<path style="fill:none;stroke-width:0.7;stroke-linecap:round;stroke-linejoin:round;stroke-miterlimit:3;stroke:#000000;stroke-opacity:0.301961" d="M15.85 -0.7L16.2 -0.65" />
<path style="fill:none;stroke-width:0.7;stroke-linecap:round;stroke-linejoin:round;stroke-miterlimit:3;stroke:#000000;stroke-opacity:0.301961" d="M12.25 -5.2L3.15 -5" />
<path style="fill:none;stroke-width:0.7;stroke-linecap:round;stroke-linejoin:round;stroke-miterlimit:3;stroke:#000000;stroke-opacity:0.301961" d="M11.9 -6.85L7.25 -7" />
</g>
<g id="PathID_601" transform="matrix(1, 0, 0, 1, 29, 44.2)">
<path style="fill:#77542D;fill-opacity:1" d="M-3.05 3.95Q-3.7 2.85 -3.7 1.3Q-3.7 -1.85 0.3 -1.85Q1.85 -1.85 2.65 -0.85Q3.3 0 3.3 1.3Q3.3 2.3 2.25 2.95L0.65 3.45Q-1.45 3.45 -1.45 1.85Q-1.45 0.7 -0.5 0.7Q0.65 0.7 0.65 1.4L0.6 1.75L0.65 1.4Q0.65 0.7 -0.5 0.7Q-1.45 0.7 -1.45 1.85Q-1.45 3.45 0.65 3.45L2.25 2.95Q3.3 2.3 3.3 1.3Q3.3 0 2.65 -0.85Q1.85 -1.85 0.3 -1.85Q-3.7 -1.85 -3.7 1.3Q-3.7 2.85 -3.05 3.95Q-4.5 2.6 -4.5 0.7L-4.25 -0.65L-4.1 -1.1L-3.05 -2.55Q-1.55 -3.85 0.5 -3.85Q2.55 -3.85 4 -2.55Q4.95 -1.65 5.3 -0.6L5.3 -0.5L5.35 -0.45L5.5 0.7Q5.5 2.6 4 3.95Q2.55 5.3 0.5 5.3Q-1.45 5.3 -2.9 4.1L-3.05 3.95" />
<path style="fill:#3A2711;fill-opacity:1" d="M-2.55 -5.85Q0.45 -7.95 3.75 -5.85L5.3 -0.6Q4.95 -1.65 4 -2.55Q2.55 -3.85 0.5 -3.85Q-1.55 -3.85 -3.05 -2.55L-4.1 -1.1L-2.55 -5.85" />
<path style="fill:none;stroke-width:0.7;stroke-linecap:round;stroke-linejoin:round;stroke-miterlimit:3;stroke:#000000;stroke-opacity:0.4" d="M-4.1 -1.1L-3.05 -2.55Q-1.55 -3.85 0.5 -3.85Q2.55 -3.85 4 -2.55Q4.95 -1.65 5.3 -0.6L3.75 -5.85Q0.45 -7.95 -2.55 -5.85L-4.1 -1.1L-4.25 -0.65L-4.5 0.7Q-4.5 2.6 -3.05 3.95Q-3.7 2.85 -3.7 1.3Q-3.7 -1.85 0.3 -1.85Q1.85 -1.85 2.65 -0.85Q3.3 0 3.3 1.3Q3.3 2.3 2.25 2.95L0.65 3.45Q-1.45 3.45 -1.45 1.85Q-1.45 0.7 -0.5 0.7Q0.65 0.7 0.65 1.4L0.6 1.75" />
<path style="fill:none;stroke-width:0.7;stroke-linecap:round;stroke-linejoin:round;stroke-miterlimit:3;stroke:#000000;stroke-opacity:0.4" d="M5.3 -0.6L5.3 -0.5L5.35 -0.45L5.5 0.7Q5.5 2.6 4 3.95Q2.55 5.3 0.5 5.3Q-1.45 5.3 -2.9 4.1L-3.05 3.95" />
</g>
<g id="PathID_602" transform="matrix(1, 0, 0, 1, 29, 44.2)">
<linearGradient
id="LinearGradID_241" gradientUnits="userSpaceOnUse" gradientTransform="matrix(0.00123596, 0.0045929, -0.00759888, 0.00202942, 12.4, -31.45)" spreadMethod ="pad" x1="-819.2" y1="0" x2="819.2" y2="0" >
<stop  offset="0.0431373" style="stop-color:#F35225;stop-opacity:1" />
<stop  offset="1" style="stop-color:#FFE362;stop-opacity:0.760784" />
</linearGradient>
<path style="fill:url(#LinearGradID_241) " d="M13 -39.05Q12.65 -36.9 12.95 -35.4L13.4 -34L12.55 -34.85Q12 -33.65 12.05 -32.1L12.35 -30.05Q12.5 -29.25 11.95 -28.6L11.3 -31.3L10.5 -33.55L10.35 -31.9Q9.55 -33 9.9 -34.35Q10.2 -36.05 11.1 -37.5Q11 -36.1 11.15 -35.2L12.05 -38.05L13.45 -40.95L13 -39.05" />
<linearGradient
id="LinearGradID_242" gradientUnits="userSpaceOnUse" gradientTransform="matrix(-3.05176e-005, 0.00991821, -0.0245514, -9.15527e-005, 1.5, -18.25)" spreadMethod ="pad" x1="-819.2" y1="0" x2="819.2" y2="0" >
<stop  offset="0" style="stop-color:#F35225;stop-opacity:1" />
<stop  offset="1" style="stop-color:#FFE362;stop-opacity:0.760784" />
</linearGradient>
<path style="fill:url(#LinearGradID_242) " d="M8.7 -42Q10.25 -40.45 8.6 -39.45Q7.7 -38.45 7.55 -37Q7.2 -35.4 8.05 -32.8L8.4 -32.3L8.4 -31.75L8.25 -30.5L8.15 -29.25L8.15 -29.05L8.35 -28.85L8.85 -30.2L9.15 -31.05Q10.4 -28.8 10.4 -27L10.2 -24.35L9.9 -22.65L9.9 -21.85Q10.9 -21.75 12.1 -25.7Q13.3 -29.65 15.95 -31.3Q13.55 -28.2 13.9 -26.35L14.15 -24.2Q14.15 -22.05 12.45 -19Q10.7 -15.9 10.7 -14.3Q10.7 -12.65 10.95 -11.7L11.2 -10.6Q11.7 -10.5 11.95 -11.45Q12.3 -13.05 13.4 -14.5L16.1 -17.75L16.2 -17.8L15.8 -15.65Q15.1 -12.35 15.1 -11.35L15.35 -8.55L15.5 -8.55L17.2 -9.65Q18.85 -10.7 19.25 -16.7Q20.6 -13.7 19.3 -9Q15.95 -4.25 12.1 -5.75L10.55 -5.75L6.6 -5.95Q2.7 -5.9 1.75 -6.5L-1.65 -5.15Q-3.5 -4.6 -4.5 -5.6L-10.8 -7.65Q-15 -8.8 -15.55 -11.4Q-16.15 -14 -15.75 -15.25L-14.9 -16.2Q-14.5 -16.7 -14.25 -17.35Q-13.95 -17.95 -14.15 -18.95L-15.15 -17.15L-14.8 -19.1L-14.25 -21.9Q-13.95 -23.25 -18.3 -25.6L-17.05 -25L-17.05 -25.15L-18.3 -25.6Q-16.1 -25.35 -14.55 -24.4Q-12.75 -23.3 -12.75 -21.6Q-12.75 -20.95 -13 -20.35L-13.25 -19.5Q-13.25 -18.95 -11.9 -18L-10.15 -16.95L-11.05 -18Q-11.6 -18.65 -11.6 -19.55L-10.2 -21.2L-10.05 -20.7L-9.85 -20.3L-9.1 -22.4Q-8.2 -23.7 -8.05 -25.15L-8.05 -25.25Q-7.5 -26.7 -7.5 -27.1Q-7.5 -27.95 -8.5 -30.15L-8.4 -27.15L-9.2 -28.85Q-10.35 -31.05 -10.35 -32.95Q-10.35 -34.1 -9.65 -35.8L-8.6 -37.95L-8.7 -35.65Q-8.7 -34.45 -7.9 -32.9L-7.2 -31.8L-6.9 -32.8L-4.55 -37.8Q-3.85 -39.2 -3.6 -41.35L-3.5 -43.1Q-1.4 -40.9 -3.05 -35.25Q-4.4 -30.45 -1.8 -30.05Q-0.8 -32.85 0.45 -34.9Q0.7 -36.9 -0.1 -38.9Q1.55 -36 1.35 -34.1Q1.15 -32 0.3 -30.85Q-0.65 -29.65 1.2 -28.35Q1.8 -27.95 1.6 -26.85L-0.75 -28.45Q0.95 -27.25 1.25 -26.05Q0.35 -24.15 -0.6 -23.15L3.75 -26.25Q4.85 -29.85 4.55 -32.4L6.05 -30.2Q6.15 -31.6 4.85 -33Q3.55 -34.4 3.2 -35.6Q0.6 -41.15 3.9 -43.45Q3.35 -42.9 2.95 -41.7Q2.45 -40.05 5.35 -36.25Q5.1 -38.35 7.35 -39.45Q9.4 -40.5 8.7 -42" />
<linearGradient
id="LinearGradID_243" gradientUnits="userSpaceOnUse" gradientTransform="matrix(-3.05176e-005, 0.00991821, -0.0245514, -9.15527e-005, 1.5, -18.25)" spreadMethod ="pad" x1="-819.2" y1="0" x2="819.2" y2="0" >
<stop  offset="0" style="stop-color:#F35225;stop-opacity:1" />
<stop  offset="0.988235" style="stop-color:#FFE362;stop-opacity:1" />
</linearGradient>
<path style="fill:url(#LinearGradID_243) " d="M16.75 -28.15L17.85 -30.9L17.35 -27.85Q17 -25.8 16.15 -25.15L16.15 -24.95L16.05 -25.15L16.05 -26Q16.05 -26.55 16.75 -28.15M-11.05 -28.7Q-10.55 -28.1 -10.65 -26.15L-10.9 -24.3L-11.6 -25.55L-12.1 -27L-12.65 -32.2Q-12.4 -30.1 -11.05 -28.7" />
</g>
<g id="PathID_603" transform="matrix(1, 0, 0, 1, 29, 44.2)">
<path style="fill:#FFF1B4;fill-opacity:0.858824" d="M7.7 -26.4L8.95 -24Q8.95 -22.7 7.55 -20.6Q6.15 -18.4 6.25 -16.8Q4.05 -15.15 5.65 -13.9L7.5 -17.05L7.8 -15.25Q7.8 -15.85 9.7 -17.3Q11.55 -18.7 12.65 -19.2L12.8 -19.2L10.35 -15.7Q8.8 -13.3 8.8 -11.65Q8.8 -10.25 9.9 -9Q10.75 -7.9 12.45 -7.75Q14 -7.7 15 -10.5L15 -10.2Q15 -7.6 14.05 -6.3Q12.5 -4.35 9.55 -4.6L3.75 -5.4L-0.15 -5.15Q-1.3 -4.35 -5.8 -5.05Q-10.3 -5.75 -10.4 -6.85Q-10.55 -7.4 -10.3 -8.45Q-10.25 -9.45 -11.15 -10.3L-13.3 -11.9L-13.85 -12.2Q-12.25 -11.55 -9.45 -11L-9.45 -11.45L-10 -13.15Q-10.55 -14.65 -9.25 -14.95Q-7.95 -15.25 -9.45 -17.25Q-7.75 -17.6 -6.9 -12.85L-6.9 -15.45Q-7.1 -18.15 -8.4 -19.1L-7.95 -19.85L-7.05 -21.05Q-6.3 -22.2 -6 -23.6Q-7.1 -21.2 -7.95 -21.2Q-7 -21.75 -7 -24.95Q-6.9 -26.55 -5.6 -27.55Q-4.4 -28.6 -3.75 -29.4L-4.15 -28.65Q-5.65 -25.6 -4.4 -25.25L-3.1 -25.35Q-3.85 -23.4 -4.4 -22.6L-5.15 -21.4Q-5.25 -20.95 -4.8 -20.35L-3.7 -18.95Q-4.15 -20.05 -0.5 -21.35L-1.55 -19.65Q-1.55 -19.45 -0.95 -19.8L0.2 -20.9L1.05 -21.85Q4.6 -23.15 5.25 -24.75Q4.95 -23.9 3.75 -22.45L1.6 -20L1.6 -18.45Q2.75 -17.95 3.35 -19.5L2.25 -17.05Q1.15 -15.65 1.15 -14.25L1.2 -13.2L1.55 -12L1.7 -13.4Q1.75 -14.4 2.65 -15.75L2.8 -14.75Q3 -13.9 3.45 -13.9L3.4 -15.25Q3.4 -17 4.15 -18.6Q4.8 -19.8 6.6 -21.25Q8.25 -22.6 8.15 -24.05Q8 -25.5 7.15 -27.05L6.7 -27.95L7.7 -26.4M6.1 -27.4L5.85 -26.3L5.15 -25.45L5 -25.1Q4.85 -26 5.2 -26.95L5.5 -28.25L5.45 -29.45L5.95 -28.5Q6.3 -27.95 6.1 -27.4M11.1 -11.95Q11.1 -13.9 11.85 -15.15Q11.05 -13.1 12.05 -11.65Q13.05 -10.25 12.75 -9.85L12.5 -9.6L12.45 -9.5Q11.7 -9.65 11.45 -10.05Q11.1 -10.6 11.1 -11.95M-13.85 -17.35L-12.9 -16.4Q-12.25 -15.75 -12.1 -15L-11.85 -13.45L-11.65 -12.85Q-12.85 -13.45 -13.25 -14.7L-13.85 -17.35" />
</g>
</svg>
