<?xml version="1.0" encoding="utf-8"?>
<svg version="1.1" id="Layer_1"
xmlns="http://www.w3.org/2000/svg"
xmlns:xlink="http://www.w3.org/1999/xlink"
width="81px" height="70px"
xml:space="preserve">
<g id="PathID_1838" transform="matrix(1, 0, 0, 1, 50.3, 68.4)">
<path style="fill:#938871;fill-opacity:1" d="M-5.45 -21.15L-10.95 -43.3L-9.15 -43.75L-4.1 -23.25L-5.45 -21.15" />
<path style="fill:#D7C9AB;fill-opacity:1" d="M-2.95 -11L-4.65 -17.6L-3.15 -19.75L-1.6 -13.35L-2.95 -11" />
<path style="fill:#C2B8A3;fill-opacity:1" d="M-4.65 -17.6L-5.45 -21.15L-4.1 -23.25L-3.15 -19.75L-4.65 -17.6" />
<path style="fill:#F2EDE3;fill-opacity:1" d="M-1.6 -13.35L1.9 0.75L0 1.25L-2.95 -11L-1.6 -13.35" />
<path style="fill:none;stroke-width:0.7;stroke-linecap:round;stroke-linejoin:round;stroke-miterlimit:3;stroke:#000000;stroke-opacity:0.388235" d="M-5.45 -21.15L-10.95 -43.3L-9.15 -43.75L-4.1 -23.25L-3.15 -19.75L-1.6 -13.35L1.9 0.75L0 1.25L-2.95 -11L-4.65 -17.6L-5.45 -21.15z" />
</g>
<g id="PathID_1839" transform="matrix(1, 0, 0, 1, 50.3, 68.4)">
<path style="fill:#3C382E;fill-opacity:1" d="M-14.85 -65.15L-14.7 -65.5L-14.65 -65.95L-14.65 -66.25L-15 -66.65L-15.1 -66.45L-15 -65.85L-15.05 -65.5L-15.35 -65.1L-15.35 -65.05L-15.75 -65L-17.05 -64.6L-16.35 -65.05Q-15.5 -65.6 -15.5 -66.75L-15.6 -67.45L-15.3 -67.7Q-14.85 -67.7 -14.55 -66.95L-14.3 -66.1Q-14.3 -65.65 -14.45 -65.25L-14.85 -65.15" />
<path style="fill:#666562;fill-opacity:1" d="M-15.35 -65.05L-15.35 -65.1L-15.05 -65.5L-15 -65.85L-15.1 -66.45L-15 -66.65L-14.65 -66.25L-14.65 -65.95L-14.7 -65.5L-14.85 -65.15L-15.35 -65.05" />
<radialGradient
id="RadialGradID_1022" gradientUnits="userSpaceOnUse" gradientTransform="matrix(0.00418091, -6.10352e-005, 1.52588e-005, 0.00418091, -17.25, -67.1)" spreadMethod ="pad" cx="0" cy="0" r="819.2" fx="0" fy="0" >
<stop  offset="0.0196078"  style="stop-color:#AAA599;stop-opacity:1" />
<stop  offset="0.937255"  style="stop-color:#43413B;stop-opacity:1" />
</radialGradient>
<path style="fill:url(#RadialGradID_1022) " d="M-16.5 -67.7Q-17.35 -67.7 -17.75 -67L-18 -66.05Q-18 -65.2 -17.65 -65.2Q-17.95 -65.5 -17.35 -66.45Q-16.5 -66.35 -16.1 -66.7Q-15.8 -66.95 -15.8 -67.25Q-15.8 -67.75 -16.5 -67.7M-17.95 -64.35Q-18.55 -65 -18.55 -65.85Q-18.55 -66.8 -17.9 -67.45Q-17.25 -68.15 -16.3 -68.2Q-15.4 -68.2 -14.75 -67.5Q-14.1 -66.85 -14.1 -65.9L-14.15 -65.3L-14.45 -65.25Q-14.3 -65.65 -14.3 -66.1L-14.55 -66.95Q-14.85 -67.7 -15.3 -67.7L-15.6 -67.45L-15.5 -66.75Q-15.5 -65.6 -16.35 -65.05L-17.05 -64.6L-17.95 -64.35" />
<path style="fill:#AFA99D;fill-opacity:1" d="M-15.8 -67.25Q-15.8 -66.95 -16.1 -66.7Q-16.5 -66.35 -17.35 -66.45Q-17.95 -65.5 -17.65 -65.2Q-18 -65.2 -18 -66.05L-17.75 -67Q-17.35 -67.7 -16.5 -67.7Q-15.8 -67.75 -15.8 -67.25" />
<path style="fill:none;stroke-width:0.7;stroke-linecap:round;stroke-linejoin:round;stroke-miterlimit:3;stroke:#000000;stroke-opacity:0.388235" d="M-14.15 -65.3L-14.1 -65.9Q-14.1 -66.85 -14.75 -67.5Q-15.4 -68.2 -16.3 -68.2Q-17.25 -68.15 -17.9 -67.45Q-18.55 -66.8 -18.55 -65.85Q-18.55 -65 -17.95 -64.35" />
</g>
<g id="PathID_1840" transform="matrix(1, 0, 0, 1, 50.3, 68.4)">
<linearGradient
id="LinearGradID_1023" gradientUnits="userSpaceOnUse" gradientTransform="matrix(0.00320435, -0.00653076, 0.00733948, 0.00282288, 9.95, -67.45)" spreadMethod ="pad" x1="-819.2" y1="0" x2="819.2" y2="0" >
<stop  offset="0.00392157" style="stop-color:#F2EDE3;stop-opacity:1" />
<stop  offset="1" style="stop-color:#CDC0A6;stop-opacity:1" />
</linearGradient>
<path style="fill:url(#LinearGradID_1023) " d="M5.1 -63.6L4.05 -65L2.95 -66.7L10.05 -65.75Q10.4 -65.25 10.55 -64Q10.65 -62.8 10.4 -62.45L5.1 -63.6M16.35 -63.95L20.7 -62.1L21.1 -58.9L16.15 -60.75Q15.9 -61 15.2 -62.55L14.25 -64.7L16.35 -63.95M-5.3 -66.6L-0.25 -66.75L0.45 -65.35L0.85 -64.25L-4.75 -64.8Q-4.6 -65.55 -4.8 -66L-5.3 -66.6M28.95 -55.1L25.9 -56.7L24.95 -59.4Q27.4 -57.45 28.95 -55.1M-13 -65L-13.05 -65L-15.5 -65L-12.45 -65.65L-13 -65M-7.5 -64.95L-11.7 -65.05Q-11.15 -65.4 -11.2 -65.85L-7.15 -66.4L-7.5 -64.95" />
<linearGradient
id="LinearGradID_1024" gradientUnits="userSpaceOnUse" gradientTransform="matrix(0.00286865, -0.00520325, 0.00302124, 0.00132751, 12.6, -63.95)" spreadMethod ="pad" x1="-819.2" y1="0" x2="819.2" y2="0" >
<stop  offset="0.00392157" style="stop-color:#69C9FA;stop-opacity:1" />
<stop  offset="0.984314" style="stop-color:#1C91CD;stop-opacity:1" />
</linearGradient>
<path style="fill:url(#LinearGradID_1024) " d="M14.25 -64.7L15.2 -62.55Q15.9 -61 16.15 -60.75L10.4 -62.45Q10.65 -62.8 10.55 -64Q10.4 -65.25 10.05 -65.75L14.25 -64.7M0.85 -64.25L0.45 -65.35L-0.25 -66.75L2.95 -66.7L4.05 -65L5.1 -63.6L0.85 -64.25M24.95 -59.4L25.9 -56.7Q23.55 -57.95 21.1 -58.9L20.7 -62.1Q23.1 -60.85 24.95 -59.4" />
<linearGradient
id="LinearGradID_1025" gradientUnits="userSpaceOnUse" gradientTransform="matrix(0.00636292, -0.00680542, 0.00486755, 0.00378418, 10, -59.2)" spreadMethod ="pad" x1="-819.2" y1="0" x2="819.2" y2="0" >
<stop  offset="0.00392157" style="stop-color:#69C9FA;stop-opacity:1" />
<stop  offset="0.984314" style="stop-color:#1C91CD;stop-opacity:1" />
</linearGradient>
<path style="fill:url(#LinearGradID_1025) " d="M13.55 -56.9L10 -52.6L5.3 -55.5Q10.6 -61.7 10.4 -62.45L16.15 -60.75L13.55 -56.9M-3.25 -59.95Q-0.65 -61 0.85 -64.25L5.1 -63.6Q3.55 -60.2 0.75 -58.05L-3.25 -59.95M23.2 -51.15Q20.75 -47 19.35 -45.65L14.6 -49.4Q16.25 -50.65 18.65 -54.4Q20.85 -57.8 21.1 -58.9Q23.55 -57.95 25.9 -56.7Q25.65 -55.3 23.2 -51.15" />
<linearGradient
id="LinearGradID_1026" gradientUnits="userSpaceOnUse" gradientTransform="matrix(0.0176697, -0.0130157, 0.0119324, 0.013855, 10.8, -54.65)" spreadMethod ="pad" x1="-819.2" y1="0" x2="819.2" y2="0" >
<stop  offset="0.00392157" style="stop-color:#F2EDE3;stop-opacity:1" />
<stop  offset="1" style="stop-color:#CDC0A6;stop-opacity:1" />
</linearGradient>
<path style="fill:url(#LinearGradID_1026) " d="M-8.95 -53.55L0.75 -58.05L5.3 -55.5L-6.7 -49.1L-8.95 -53.55M19.35 -45.65L20.45 -44.75Q14.85 -41 0.6 -35.8L0.6 -35.85L-1.1 -36.95Q12.3 -41.2 19.35 -45.65M-14.15 -62.75L-13.05 -63.5L-12.6 -63.95L-9.55 -62.7Q-10.25 -62.05 -11.75 -61.45L-13.05 -60.95L-14.15 -62.75M-10.7 -56.85L-12.1 -59.3L-10.3 -60.25Q-8.35 -61.4 -7.9 -62.05L-3.25 -59.95Q-7 -57.8 -10.7 -56.85M-15.5 -65L-13.7 -64.3L-14.6 -63.55L-15.5 -65" />
<linearGradient
id="LinearGradID_1027" gradientUnits="userSpaceOnUse" gradientTransform="matrix(0.012207, -0.0140686, 0.0107269, 0.00767517, 17.6, -62.8)" spreadMethod ="pad" x1="-819.2" y1="0" x2="819.2" y2="0" >
<stop  offset="0.00392157" style="stop-color:#F2EDE3;stop-opacity:1" />
<stop  offset="1" style="stop-color:#CDC0A6;stop-opacity:1" />
</linearGradient>
<path style="fill:url(#LinearGradID_1027) " d="M0.75 -58.05Q3.55 -60.2 5.1 -63.6L10.4 -62.45Q10.6 -61.7 5.3 -55.5L0.75 -58.05M26.8 -50.9Q25.35 -48.65 23.1 -46.7L20.45 -44.75L19.35 -45.65Q20.75 -47 23.2 -51.15Q25.65 -55.3 25.9 -56.7L28.95 -55.1L26.8 -50.9M-12.6 -63.95Q-11.75 -64.55 -11.7 -65.05L-7.5 -64.95Q-7.45 -64.75 -8.2 -63.9L-9.55 -62.7L-12.6 -63.95M0.85 -64.25Q-0.65 -61 -3.25 -59.95L-7.9 -62.05Q-7.2 -62.35 -6.05 -63.4L-4.75 -64.8L0.85 -64.25M-15.5 -65L-13.05 -65L-13.15 -64.75Q-13.3 -64.5 -13.7 -64.3L-15.5 -65" />
<linearGradient
id="LinearGradID_1028" gradientUnits="userSpaceOnUse" gradientTransform="matrix(0.0102234, -0.00550842, 0.00357056, 0.00582886, 0.85, -50.4)" spreadMethod ="pad" x1="-819.2" y1="0" x2="819.2" y2="0" >
<stop  offset="0.00392157" style="stop-color:#69C9FA;stop-opacity:1" />
<stop  offset="0.984314" style="stop-color:#1C91CD;stop-opacity:1" />
</linearGradient>
<path style="fill:url(#LinearGradID_1028) " d="M-4.6 -44.85L-4.6 -44.9L-6.7 -49.1L5.3 -55.5L10 -52.6Q4.75 -48.8 -4.6 -44.85M-1.1 -36.95L-2.95 -41.25Q6.7 -43.5 14.6 -49.4L19.35 -45.65Q12.3 -41.2 -1.1 -36.95M-10.7 -56.85Q-7 -57.8 -3.25 -59.95L0.75 -58.05L-8.95 -53.55L-10.7 -56.85" />
<linearGradient
id="LinearGradID_1029" gradientUnits="userSpaceOnUse" gradientTransform="matrix(0.012207, -0.0140686, 0.0107269, 0.00767517, 17.6, -62.8)" spreadMethod ="pad" x1="-819.2" y1="0" x2="819.2" y2="0" >
<stop  offset="0.00392157" style="stop-color:#FFFEFC;stop-opacity:1" />
<stop  offset="1" style="stop-color:#CDC0A6;stop-opacity:1" />
</linearGradient>
<path style="fill:url(#LinearGradID_1029) " d="M18.65 -54.4Q16.25 -50.65 14.6 -49.4L10 -52.6L13.55 -56.9L16.15 -60.75L21.1 -58.9Q20.85 -57.8 18.65 -54.4" />
<path style="fill:#C2B8A3;fill-opacity:1" d="M20.45 -44.75L21.85 -41.15L23.1 -46.7Q25.35 -48.65 26.8 -50.9L28.95 -55.1L30 -51Q27.35 -46.05 23.15 -42L20.45 -44.75M21.85 -41.15Q12.5 -34.85 1.7 -31.7L0.6 -35.8Q14.85 -41 20.45 -44.75M-0.45 -35.4L-0.6 -31.05Q-12.65 -27.45 -23.7 -27.35L-24.5 -31.2Q-18.7 -31.65 -11.15 -33.05L-0.45 -35.4M-25.95 -31.1L-26.25 -26.7Q-36.85 -26.95 -43.9 -29.5L-44.1 -33.45Q-39.65 -31.15 -25.95 -31.1M-44.9 -34.2L-45.75 -30.45L-50.1 -33.1L-49.2 -35.95Q-47.9 -35.2 -44.9 -34.2" />
<linearGradient
id="LinearGradID_1030" gradientUnits="userSpaceOnUse" gradientTransform="matrix(0.0176697, -0.0130157, 0.0119324, 0.013855, 10.8, -54.65)" spreadMethod ="pad" x1="-819.2" y1="0" x2="819.2" y2="0" >
<stop  offset="0.00392157" style="stop-color:#FFFBF3;stop-opacity:1" />
<stop  offset="1" style="stop-color:#CDC0A6;stop-opacity:1" />
</linearGradient>
<path style="fill:url(#LinearGradID_1030) " d="M-2.95 -41.25L-4.6 -44.85Q4.75 -48.8 10 -52.6L14.6 -49.4Q6.7 -43.5 -2.95 -41.25" />
<linearGradient
id="LinearGradID_1031" gradientUnits="userSpaceOnUse" gradientTransform="matrix(0.00765991, 0.00398254, -0.00270081, 0.00418091, -38.75, -46.8)" spreadMethod ="pad" x1="-819.2" y1="0" x2="819.2" y2="0" >
<stop  offset="0.00392157" style="stop-color:#69C9FA;stop-opacity:1" />
<stop  offset="0.984314" style="stop-color:#1C91CD;stop-opacity:1" />
</linearGradient>
<path style="fill:url(#LinearGradID_1031) " d="M-44.9 -40.25Q-42.45 -39.05 -41.25 -38.85L-43 -35.7L-44.9 -34.2L-46.6 -35.6L-48.95 -37.15Q-48.5 -39.45 -47.4 -41.75Q-47.15 -41.35 -44.9 -40.25M-38.3 -49.1L-35.8 -47.55L-38.55 -43.05Q-39.9 -43.45 -43.85 -47.3L-40.8 -50.8L-38.3 -49.1M-29.6 -56.35L-27.6 -55.5L-31.2 -51.95Q-35.5 -53.7 -35.5 -55.4L-32.1 -57.85Q-31.55 -57.3 -29.6 -56.35" />
<linearGradient
id="LinearGradID_1032" gradientUnits="userSpaceOnUse" gradientTransform="matrix(0.00515747, 0.00476074, -0.00418091, 0.00378418, -42.5, -39.8)" spreadMethod ="pad" x1="-819.2" y1="0" x2="819.2" y2="0" >
<stop  offset="0.0509804" style="stop-color:#FCF8F1;stop-opacity:1" />
<stop  offset="1" style="stop-color:#CDC0A6;stop-opacity:1" />
</linearGradient>
<path style="fill:url(#LinearGradID_1032) " d="M-44.9 -34.2Q-47.9 -35.2 -49.2 -35.95L-48.95 -37.15L-46.6 -35.6L-44.9 -34.2M-38.55 -43.05L-41.25 -38.85Q-42.45 -39.05 -44.9 -40.25Q-47.15 -41.35 -47.4 -41.75Q-46.55 -43.6 -43.85 -47.3Q-39.9 -43.45 -38.55 -43.05M-40.8 -50.8L-35.5 -55.4Q-35.5 -53.7 -31.2 -51.95L-35.8 -47.55L-38.3 -49.1L-40.8 -50.8M-27.6 -55.5L-29.6 -56.35Q-31.55 -57.3 -32.1 -57.85L-27 -60.7L-23.2 -59.3L-27.6 -55.5M-21.15 -60.95L-22.55 -61.3Q-24 -61.8 -24.1 -62.05L-19.5 -63.8Q-19.15 -63.15 -18.35 -63.05L-21.15 -60.95M-18.2 -64.25L-15.5 -65L-17.3 -63.75Q-18.1 -63.85 -18.2 -64.25" />
<linearGradient
id="LinearGradID_1033" gradientUnits="userSpaceOnUse" gradientTransform="matrix(0.00466919, 0.00106812, -0.000518799, 0.00161743, -21.75, -60.6)" spreadMethod ="pad" x1="-819.2" y1="0" x2="819.2" y2="0" >
<stop  offset="0.0196078" style="stop-color:#69C9FA;stop-opacity:1" />
<stop  offset="0.984314" style="stop-color:#1C91CD;stop-opacity:1" />
</linearGradient>
<path style="fill:url(#LinearGradID_1033) " d="M-22.55 -61.3L-21.15 -60.95L-23.2 -59.3L-27 -60.7L-24.1 -62.05Q-24 -61.8 -22.55 -61.3" />
<linearGradient
id="LinearGradID_1034" gradientUnits="userSpaceOnUse" gradientTransform="matrix(0.00466919, -7.62939e-005, -3.05176e-005, 0.00135803, -19.05, -60.25)" spreadMethod ="pad" x1="-819.2" y1="0" x2="819.2" y2="0" >
<stop  offset="0.00784314" style="stop-color:#69C9FA;stop-opacity:1" />
<stop  offset="0.984314" style="stop-color:#1C91CD;stop-opacity:1" />
</linearGradient>
<path style="fill:url(#LinearGradID_1034) " d="M-17.7 -60.45L-18.45 -58.75L-23.2 -59.3L-21.15 -60.95L-17.7 -60.45" />
<linearGradient
id="LinearGradID_1035" gradientUnits="userSpaceOnUse" gradientTransform="matrix(0.0125885, 0.0055542, -0.0104065, 0.018631, -18.45, -45.65)" spreadMethod ="pad" x1="-819.2" y1="0" x2="819.2" y2="0" >
<stop  offset="0" style="stop-color:#FCF8F1;stop-opacity:1" />
<stop  offset="1" style="stop-color:#CDC0A6;stop-opacity:1" />
</linearGradient>
<path style="fill:url(#LinearGradID_1035) " d="M-44.1 -33.45L-43.75 -34.25L-34.55 -33.15L-25.35 -32.45L-25.95 -31.1Q-39.65 -31.15 -44.1 -33.45M-18.45 -58.75L-20.05 -54.7L-20.05 -54.6L-27.6 -55.5L-23.2 -59.3L-18.45 -58.75M-22.65 -46.4L-29.05 -46.75L-35.8 -47.55L-31.2 -51.95L-25.85 -51.4L-21.45 -50.6L-22.65 -46.4M-15.5 -65L-16.35 -63.35L-17.3 -63.75L-15.5 -65M-18.35 -63.05L-16.7 -62.6L-17.7 -60.45L-21.15 -60.95L-18.35 -63.05M-31 -42.35L-23.7 -41.5L-24.35 -37.3Q-34.8 -36.5 -41.25 -38.85L-38.55 -43.05L-31 -42.35" />
<linearGradient
id="LinearGradID_1036" gradientUnits="userSpaceOnUse" gradientTransform="matrix(0.00808716, 0.00187683, -0.00431824, 0.0137329, -27.8, -43.1)" spreadMethod ="pad" x1="-819.2" y1="0" x2="819.2" y2="0" >
<stop  offset="0.00392157" style="stop-color:#69C9FA;stop-opacity:1" />
<stop  offset="1" style="stop-color:#1C91CD;stop-opacity:1" />
</linearGradient>
<path style="fill:url(#LinearGradID_1036) " d="M-43.75 -34.25L-43.2 -35.3L-43 -35.7L-41.25 -38.85Q-34.8 -36.5 -24.35 -37.3L-24.7 -33.8L-25.35 -32.45L-34.55 -33.15L-43.75 -34.25M-20.05 -54.6L-21.45 -50.6L-25.85 -51.4L-31.2 -51.95L-27.6 -55.5L-20.05 -54.6M-38.55 -43.05L-35.8 -47.55L-29.05 -46.75L-22.65 -46.4L-23.7 -41.5L-31 -42.35L-38.55 -43.05" />
<linearGradient
id="LinearGradID_1037" gradientUnits="userSpaceOnUse" gradientTransform="matrix(0.00221252, -0.00201416, 0.000823975, 0.000747681, -6.15, -65.65)" spreadMethod ="pad" x1="-819.2" y1="0" x2="819.2" y2="0" >
<stop  offset="0.00784314" style="stop-color:#69C9FA;stop-opacity:1" />
<stop  offset="0.984314" style="stop-color:#1C91CD;stop-opacity:1" />
</linearGradient>
<path style="fill:url(#LinearGradID_1037) " d="M-4.8 -66Q-4.6 -65.55 -4.75 -64.8L-7.5 -64.95L-7.15 -66.4L-5.3 -66.6L-4.8 -66" />
<linearGradient
id="LinearGradID_1038" gradientUnits="userSpaceOnUse" gradientTransform="matrix(0.00402832, -0.00216675, 0.000946045, 0.00154114, -7.15, -63.5)" spreadMethod ="pad" x1="-819.2" y1="0" x2="819.2" y2="0" >
<stop  offset="0.00784314" style="stop-color:#69C9FA;stop-opacity:1" />
<stop  offset="0.984314" style="stop-color:#1C91CD;stop-opacity:1" />
</linearGradient>
<path style="fill:url(#LinearGradID_1038) " d="M-4.75 -64.8L-6.05 -63.4Q-7.2 -62.35 -7.9 -62.05L-9.55 -62.7L-8.2 -63.9Q-7.45 -64.75 -7.5 -64.95L-4.75 -64.8" />
<linearGradient
id="LinearGradID_1039" gradientUnits="userSpaceOnUse" gradientTransform="matrix(0.00485229, -0.00126648, 0.000549316, 0.00201416, -10.5, -61)" spreadMethod ="pad" x1="-819.2" y1="0" x2="819.2" y2="0" >
<stop  offset="0.00784314" style="stop-color:#69C9FA;stop-opacity:1" />
<stop  offset="0.984314" style="stop-color:#1C91CD;stop-opacity:1" />
</linearGradient>
<path style="fill:url(#LinearGradID_1039) " d="M-10.3 -60.25L-12.1 -59.3L-13.05 -60.95L-11.75 -61.45Q-10.25 -62.05 -9.55 -62.7L-7.9 -62.05Q-8.35 -61.4 -10.3 -60.25" />
<linearGradient
id="LinearGradID_1040" gradientUnits="userSpaceOnUse" gradientTransform="matrix(0.000976563, 0.00088501, -0.000579834, 0.000518799, -18, -63.45)" spreadMethod ="pad" x1="-819.2" y1="0" x2="819.2" y2="0" >
<stop  offset="0" style="stop-color:#69C9FA;stop-opacity:1" />
<stop  offset="0.984314" style="stop-color:#1C91CD;stop-opacity:1" />
</linearGradient>
<path style="fill:url(#LinearGradID_1040) " d="M-17.3 -63.75L-18.35 -63.05Q-19.15 -63.15 -19.5 -63.8L-18.2 -64.25Q-18.1 -63.85 -17.3 -63.75" />
<linearGradient
id="LinearGradID_1041" gradientUnits="userSpaceOnUse" gradientTransform="matrix(0.00105286, 0.000549316, -0.000396729, 0.000610352, -16.75, -62.9)" spreadMethod ="pad" x1="-819.2" y1="0" x2="819.2" y2="0" >
<stop  offset="0" style="stop-color:#69C9FA;stop-opacity:1" />
<stop  offset="0.984314" style="stop-color:#1C91CD;stop-opacity:1" />
</linearGradient>
<path style="fill:url(#LinearGradID_1041) " d="M-18.35 -63.05L-17.3 -63.75L-16.35 -63.35L-16.7 -62.6L-18.35 -63.05" />
<linearGradient
id="LinearGradID_1042" gradientUnits="userSpaceOnUse" gradientTransform="matrix(0.00248718, -3.05176e-005, -1.52588e-005, 0.000595093, -14.8, -63)" spreadMethod ="pad" x1="-819.2" y1="0" x2="819.2" y2="0" >
<stop  offset="0.0352941" style="stop-color:#69C9FA;stop-opacity:1" />
<stop  offset="0.984314" style="stop-color:#1C91CD;stop-opacity:1" />
</linearGradient>
<path style="fill:url(#LinearGradID_1042) " d="M-14.6 -63.55L-14.15 -62.75L-16.7 -62.6L-16.35 -63.35L-14.6 -63.55" />
<linearGradient
id="LinearGradID_1043" gradientUnits="userSpaceOnUse" gradientTransform="matrix(0.0128174, -0.000198364, -0.000106812, 0.00444031, -9.25, -42.35)" spreadMethod ="pad" x1="-819.2" y1="0" x2="819.2" y2="0" >
<stop  offset="0.00392157" style="stop-color:#FFFEFC;stop-opacity:1" />
<stop  offset="1" style="stop-color:#CDC0A6;stop-opacity:1" />
</linearGradient>
<path style="fill:url(#LinearGradID_1043) " d="M-11.15 -33.05Q-18.7 -31.65 -24.5 -31.2L-24.65 -32L-14.05 -33.75L-5.9 -35.45L-1.1 -36.95L-0.45 -35.4L-11.15 -33.05M-8.95 -53.55L-6.7 -49.1L-15.15 -47.45L-22.65 -46.4L-21.45 -50.6L-8.95 -53.55M-16.7 -62.6L-14.15 -62.75L-13.05 -60.95L-15.05 -60.6L-17.7 -60.45L-16.7 -62.6M-14.6 -63.55L-16.35 -63.35L-15.5 -65L-14.6 -63.55M-15.95 -55.5L-20.05 -54.6L-20.05 -54.7L-18.45 -58.75L-14.8 -58.95L-12.1 -59.3L-10.7 -56.85Q-12.3 -56.3 -15.95 -55.5M-16 -38.35L-24.35 -37.3L-23.7 -41.5L-4.6 -44.85L-2.95 -41.25Q-6.85 -39.65 -16 -38.35" />
<linearGradient
id="LinearGradID_1044" gradientUnits="userSpaceOnUse" gradientTransform="matrix(0.000305176, -0.000976563, 0.000473022, 0.00012207, -12, -65.7)" spreadMethod ="pad" x1="-819.2" y1="0" x2="819.2" y2="0" >
<stop  offset="0" style="stop-color:#69C9FA;stop-opacity:1" />
<stop  offset="0.984314" style="stop-color:#1C91CD;stop-opacity:1" />
</linearGradient>
<path style="fill:url(#LinearGradID_1044) " d="M-13 -65L-12.45 -65.65L-11.2 -65.85Q-11.15 -65.4 -11.7 -65.05L-13 -65" />
<linearGradient
id="LinearGradID_1045" gradientUnits="userSpaceOnUse" gradientTransform="matrix(0.00193787, -0.00050354, 0.000183105, 0.000671387, -12.7, -64.5)" spreadMethod ="pad" x1="-819.2" y1="0" x2="819.2" y2="0" >
<stop  offset="0" style="stop-color:#69C9FA;stop-opacity:1" />
<stop  offset="0.984314" style="stop-color:#1C91CD;stop-opacity:1" />
</linearGradient>
<path style="fill:url(#LinearGradID_1045) " d="M-13.7 -64.3Q-13.3 -64.5 -13.15 -64.75L-13.05 -65L-13 -65L-11.7 -65.05Q-11.75 -64.55 -12.6 -63.95L-13.7 -64.3" />
<linearGradient
id="LinearGradID_1046" gradientUnits="userSpaceOnUse" gradientTransform="matrix(0.00117493, -0.000305176, 0.000259399, 0.000915527, -13.6, -63.55)" spreadMethod ="pad" x1="-819.2" y1="0" x2="819.2" y2="0" >
<stop  offset="0.0352941" style="stop-color:#69C9FA;stop-opacity:1" />
<stop  offset="0.984314" style="stop-color:#1C91CD;stop-opacity:1" />
</linearGradient>
<path style="fill:url(#LinearGradID_1046) " d="M-13.7 -64.3L-12.6 -63.95L-13.05 -63.5L-14.15 -62.75L-14.6 -63.55L-13.7 -64.3" />
<linearGradient
id="LinearGradID_1047" gradientUnits="userSpaceOnUse" gradientTransform="matrix(0.00617981, -9.15527e-005, -3.05176e-005, 0.00131226, -14.2, -60.15)" spreadMethod ="pad" x1="-819.2" y1="0" x2="819.2" y2="0" >
<stop  offset="0.00784314" style="stop-color:#69C9FA;stop-opacity:1" />
<stop  offset="0.984314" style="stop-color:#1C91CD;stop-opacity:1" />
</linearGradient>
<path style="fill:url(#LinearGradID_1047) " d="M-14.8 -58.95L-18.45 -58.75L-17.7 -60.45L-15.05 -60.6L-13.05 -60.95L-12.1 -59.3L-14.8 -58.95" />
<linearGradient
id="LinearGradID_1048" gradientUnits="userSpaceOnUse" gradientTransform="matrix(0.014267, -0.00210571, 0.000793457, 0.00582886, -11.2, -36.85)" spreadMethod ="pad" x1="-819.2" y1="0" x2="819.2" y2="0" >
<stop  offset="0.00392157" style="stop-color:#69C9FA;stop-opacity:1" />
<stop  offset="0.984314" style="stop-color:#1C91CD;stop-opacity:1" />
</linearGradient>
<path style="fill:url(#LinearGradID_1048) " d="M-23.7 -41.5L-22.65 -46.4L-15.15 -47.45L-6.7 -49.1L-4.6 -44.9L-4.6 -44.85L-23.7 -41.5M-24.35 -37.3L-16 -38.35Q-6.85 -39.65 -2.95 -41.25L-1.1 -36.95L-5.9 -35.45L-14.05 -33.75L-24.65 -32L-24.7 -33.8L-24.35 -37.3M-21.45 -50.6L-20.05 -54.6L-15.95 -55.5Q-12.3 -56.3 -10.7 -56.85L-8.95 -53.55L-21.45 -50.6" />
<path style="fill:none;stroke-width:0.7;stroke-linecap:round;stroke-linejoin:round;stroke-miterlimit:3;stroke:#000000;stroke-opacity:0.388235" d="M14.25 -64.7L10.05 -65.75L2.95 -66.7" />
<path style="fill:none;stroke-width:0.7;stroke-linecap:round;stroke-linejoin:round;stroke-miterlimit:3;stroke:#000000;stroke-opacity:0.388235" d="M20.7 -62.1L16.35 -63.95L14.25 -64.7" />
<path style="fill:none;stroke-width:0.7;stroke-linecap:round;stroke-linejoin:round;stroke-miterlimit:3;stroke:#000000;stroke-opacity:0.388235" d="M24.95 -59.4Q23.1 -60.85 20.7 -62.1" />
<path style="fill:none;stroke-width:0.7;stroke-linecap:round;stroke-linejoin:round;stroke-miterlimit:3;stroke:#000000;stroke-opacity:0.388235" d="M28.95 -55.1Q27.4 -57.45 24.95 -59.4" />
<path style="fill:none;stroke-width:0.7;stroke-linecap:round;stroke-linejoin:round;stroke-miterlimit:3;stroke:#000000;stroke-opacity:0.388235" d="M28.95 -55.1L30 -51Q27.35 -46.05 23.15 -42L20.45 -44.75L21.85 -41.15Q12.5 -34.85 1.7 -31.7L0.6 -35.8L0.6 -35.85L-1.1 -36.95L-0.45 -35.4L-0.6 -31.05Q-12.65 -27.45 -23.7 -27.35L-24.5 -31.2L-24.65 -32L-24.7 -33.8L-25.35 -32.45L-25.95 -31.1L-26.25 -26.7Q-36.85 -26.95 -43.9 -29.5L-44.1 -33.45L-43.75 -34.25L-43.2 -35.3L-43 -35.7L-44.9 -34.2L-45.75 -30.45L-50.1 -33.1L-49.2 -35.95L-48.95 -37.15Q-48.5 -39.45 -47.4 -41.75Q-46.55 -43.6 -43.85 -47.3L-40.8 -50.8L-35.5 -55.4L-32.1 -57.85L-27 -60.7L-24.1 -62.05L-19.5 -63.8L-18.2 -64.25L-15.5 -65L-12.45 -65.65L-11.2 -65.85L-7.15 -66.4L-5.3 -66.6L-0.25 -66.75L2.95 -66.7" />
</g>
</svg>
