<?xml version="1.0" encoding="utf-8"?>
<svg version="1.1" id="Layer_1"
xmlns="http://www.w3.org/2000/svg"
xmlns:xlink="http://www.w3.org/1999/xlink"
width="802px" height="400px"
xml:space="preserve">
<g id="PathID_625" transform="matrix(1, 0, 0, 1, 1.55, 0.15)">
<linearGradient
id="LinearGradID_248" gradientUnits="userSpaceOnUse" gradientTransform="matrix(-0.0465851, 0.201675, -0.242874, -0.029541, 400.45, -6.15)" spreadMethod ="pad" x1="-819.2" y1="0" x2="819.2" y2="0" >
<stop  offset="0" style="stop-color:#32690E;stop-opacity:1" />
<stop  offset="1" style="stop-color:#4D9F34;stop-opacity:1" />
</linearGradient>
<path style="fill:url(#LinearGradID_248) " d="M699.5 132.05L646.7 92.4Q647.65 101.8 650.05 110.5L651 115Q662.05 158.55 691.3 195.45Q636.6 169 591 137.65L581.4 130Q562.2 116.05 544.9 100.75Q550.2 116.75 558.85 132.05Q581.4 172.8 627.5 209.7Q547.3 173.85 504.6 133.45Q492.1 121.95 482.5 110.15Q478.2 104.9 474.35 99L481.55 165.15Q475.8 187.45 462.85 206.25Q435 174.2 424.9 137.65Q419.65 117.8 419.65 97.25Q412.45 110.5 404.75 123L393.7 139.05Q373.55 166.9 348.1 191.6L349.05 169.65Q353.4 140.45 375 114.3Q362.5 125.1 350.05 134.15L340.9 140.75Q295.3 172.1 245.85 182.9Q274.65 160.25 302.5 136.25Q331.8 111.2 339.45 98.65Q289.55 128.95 227.6 155.05Q165.2 181.5 114.35 196.15Q109.05 175.25 110 154L136.9 99.7Q127.3 107 116.75 113.95L102.35 122.65Q96.6 126.5 90.35 129.65Q58.65 147.4 21.2 163.05L70.2 119.55Q74 117.1 78.35 115L106.65 96.9L122.5 62.8L103.3 79.85Q84.6 94.1 63.45 107.35Q41.6 120.95 0.05 132.2L0.05 80.2Q32.55 44.45 52.4 0L750.5 0Q776.35 57.85 800 69.55L800 114.15Q788.5 111.4 780.1 108.75Q768.6 104.9 758.05 100.05Q725.4 84.7 693.7 63.5Q757.1 108.05 792.1 169.65Q775.8 161.65 760.9 152.95Q733.1 137.65 709.55 119.9Q690.35 105.95 673.55 91L663.95 82.3L673.55 91L699.5 132.05" />
<path style="fill:#326209;fill-opacity:1" d="M693.7 63.5Q725.4 84.7 758.05 100.05Q777.25 126.15 786.35 150.5Q789.7 160.25 792.1 169.65Q757.1 108.05 693.7 63.5M646.7 92.4L699.5 132.05L673.55 91Q690.35 105.95 709.55 119.9L721.55 182.9Q709.55 150.85 655.3 113.95Q652.45 112.55 650.05 110.5Q647.65 101.8 646.7 92.4M591 137.65Q606.85 177 627.5 209.7Q581.4 172.8 558.85 132.05Q550.2 116.75 544.9 100.75Q562.2 116.05 581.4 130L591 137.65M474.35 99Q478.2 104.9 482.5 110.15Q484.45 122.65 484.9 134.15Q484.45 150.5 481.55 165.15L474.35 99M462.85 206.25Q425.85 175.25 410.05 138.35Q407.15 130.7 404.75 123Q412.45 110.5 419.65 97.25Q419.65 117.8 424.9 137.65Q435 174.2 462.85 206.25M245.85 182.9L278.5 140.45Q200.75 180.1 114.35 196.15Q165.2 181.5 227.6 155.05Q289.55 128.95 339.45 98.65Q331.8 111.2 302.5 136.25Q274.65 160.25 245.85 182.9M136.9 99.7L110 154Q110.5 140.45 113.85 126.5Q114.8 119.9 116.75 113.95Q127.3 107 136.9 99.7M70.2 119.55Q44.25 134.5 23.15 143.9Q13.05 148.4 0.05 151.2L0.05 132.2Q41.6 120.95 63.45 107.35Q84.6 94.1 103.3 79.85L122.5 62.8L106.65 96.9L78.35 115Q74 117.1 70.2 119.55M315.45 119.55Q299.65 129.3 282.85 138.35L278.5 140.45L282.85 138.35Q299.65 129.3 315.45 119.55" />
<path style="fill:none;stroke-width:0.7;stroke-linecap:round;stroke-linejoin:round;stroke-miterlimit:3;stroke:#000000;stroke-opacity:0.301961" d="M750.5 0Q776.35 57.85 800 69.55" />
<path style="fill:none;stroke-width:0.7;stroke-linecap:round;stroke-linejoin:round;stroke-miterlimit:3;stroke:#000000;stroke-opacity:0.301961" d="M800 114.15Q788.5 111.4 780.1 108.75Q768.6 104.9 758.05 100.05Q777.25 126.15 786.35 150.5Q789.7 160.25 792.1 169.65Q775.8 161.65 760.9 152.95Q733.1 137.65 709.55 119.9L721.55 182.9Q709.55 150.85 655.3 113.95Q652.45 112.55 650.05 110.5L651 115Q662.05 158.55 691.3 195.45Q636.6 169 591 137.65Q606.85 177 627.5 209.7Q547.3 173.85 504.6 133.45Q492.1 121.95 482.5 110.15Q484.45 122.65 484.9 134.15Q484.45 150.5 481.55 165.15Q475.8 187.45 462.85 206.25Q425.85 175.25 410.05 138.35Q407.15 130.7 404.75 123L393.7 139.05Q373.55 166.9 348.1 191.6L349.05 169.65" />
<path style="fill:none;stroke-width:0.7;stroke-linecap:round;stroke-linejoin:round;stroke-miterlimit:3;stroke:#000000;stroke-opacity:0.301961" d="M375 114.3Q362.5 125.1 350.05 134.15L340.9 140.75Q295.3 172.1 245.85 182.9L278.5 140.45Q200.75 180.1 114.35 196.15Q109.05 175.25 110 154Q110.5 140.45 113.85 126.5Q114.8 119.9 116.75 113.95L102.35 122.65Q96.6 126.5 90.35 129.65Q58.65 147.4 21.2 163.05L70.2 119.55Q44.25 134.5 23.15 143.9Q13.05 148.4 0.05 151.2" />
<path style="fill:none;stroke-width:0.7;stroke-linecap:round;stroke-linejoin:round;stroke-miterlimit:3;stroke:#000000;stroke-opacity:0.301961" d="M0.05 80.2Q32.55 44.45 52.4 0" />
<path style="fill:none;stroke-width:0.7;stroke-linecap:round;stroke-linejoin:round;stroke-miterlimit:3;stroke:#000000;stroke-opacity:0.301961" d="M673.55 91L663.95 82.3" />
<path style="fill:none;stroke-width:0.7;stroke-linecap:round;stroke-linejoin:round;stroke-miterlimit:3;stroke:#000000;stroke-opacity:0.301961" d="M673.55 91Q690.35 105.95 709.55 119.9" />
<path style="fill:none;stroke-width:0.7;stroke-linecap:round;stroke-linejoin:round;stroke-miterlimit:3;stroke:#000000;stroke-opacity:0.301961" d="M758.05 100.05Q725.4 84.7 693.7 63.5" />
<path style="fill:none;stroke-width:0.7;stroke-linecap:round;stroke-linejoin:round;stroke-miterlimit:3;stroke:#000000;stroke-opacity:0.301961" d="M544.9 100.75Q562.2 116.05 581.4 130L591 137.65" />
<path style="fill:none;stroke-width:0.7;stroke-linecap:round;stroke-linejoin:round;stroke-miterlimit:3;stroke:#000000;stroke-opacity:0.301961" d="M474.35 99Q478.2 104.9 482.5 110.15" />
<path style="fill:none;stroke-width:0.7;stroke-linecap:round;stroke-linejoin:round;stroke-miterlimit:3;stroke:#000000;stroke-opacity:0.301961" d="M404.75 123Q412.45 110.5 419.65 97.25" />
<path style="fill:none;stroke-width:0.7;stroke-linecap:round;stroke-linejoin:round;stroke-miterlimit:3;stroke:#000000;stroke-opacity:0.301961" d="M278.5 140.45L282.85 138.35Q299.65 129.3 315.45 119.55" />
<path style="fill:none;stroke-width:0.7;stroke-linecap:round;stroke-linejoin:round;stroke-miterlimit:3;stroke:#000000;stroke-opacity:0.301961" d="M106.65 96.9L78.35 115Q74 117.1 70.2 119.55" />
<path style="fill:none;stroke-width:0.7;stroke-linecap:round;stroke-linejoin:round;stroke-miterlimit:3;stroke:#000000;stroke-opacity:0.301961" d="M116.75 113.95Q127.3 107 136.9 99.7" />
<path style="fill:none;stroke-width:0.7;stroke-linecap:round;stroke-linejoin:round;stroke-miterlimit:3;stroke:#000000;stroke-opacity:0.301961" d="M650.05 110.5Q647.65 101.8 646.7 92.4" />
</g>
<g id="PathID_626" transform="matrix(1, 0, 0, 1, 1.55, 0.15)">
<path style="fill:#326209;fill-opacity:1" d="M728.15 42.25Q735.7 48.45 744.2 53.25Q746.45 60.2 751.65 64.9Q742.05 62.25 735.65 57.5Q714 43.2 709.7 21.4Q717.25 33.2 728.15 42.25M713.4 69.2Q677.3 46.5 673.45 14.65L674.3 16.5Q686.7 44.5 710.4 61.2L713.4 69.2M631.4 33.2Q639.55 48.95 650.9 62.45L653.2 73.9Q629.2 52.95 625.15 18.45Q627.7 26.05 631.4 33.2M773.45 236.55L781.6 242.45Q758.75 240.65 744.5 224.55Q759.4 234.6 773.45 236.55M710.6 241.55Q722.05 247.4 734.2 251.45L740.4 259.25Q725.5 256.4 716.25 248.6L716.2 248.55L710.6 241.55M728.05 265.25L736.2 270.45Q722.2 271.1 711.4 267.25Q686.45 261.2 656.6 223.55Q679.2 240.85 683.1 244.15Q702.95 261.2 728.05 265.25M624.35 109.05Q589.6 88.45 577.1 43.6Q581.9 56.95 590 68.8Q602.75 87.55 621.3 99.55L624.35 109.05M525.6 93.8Q514.45 89 506.7 82.35Q501.3 74.2 497.2 65.25Q487.9 44.9 485.65 23.1Q500 68.05 525.6 93.8M576.55 116.25Q532.1 95.95 518.1 54.95Q521.8 62.5 526.7 69.45Q536.35 83.15 549.4 93.5Q560.85 102.6 573.45 109.65L576.55 116.25M436.25 48.2Q436.05 86.2 446.65 107Q442.4 103.8 436.7 96.7Q430.5 72.55 436.25 48.2M357.5 35.3Q359.75 49 353.55 60.65Q341.3 83.55 317.05 94.95L323.8 84.05Q350.5 66.1 357.5 35.3M380.75 87Q405.3 61.85 411.35 9.7Q415.75 40.5 404.2 66.95Q379.3 110.6 336.1 131L346.1 116.25Q363.35 104.8 380.75 87M432.05 288.95L434.4 297.45Q409.45 287.2 396.05 245.75Q413.15 278.75 432.05 288.95M378.6 290.85Q364.05 278.15 365.6 262.3Q367.7 272.05 377.15 282L378.6 290.85M483.7 260.05Q488.85 290.2 472.75 304L474.35 297.05Q484.95 280.25 483.7 260.05M573.7 278.05Q589.65 293 609.85 300.95L615.8 309.05Q566.15 288.4 559.8 261.35Q565.65 270.55 573.7 278.05M643.6 290.65Q615.85 288.9 603.15 278.65L598.9 269.9Q616.5 284 637.8 285.55L643.6 290.65M537.6 307.65L535.9 290.65Q538 267.3 525.7 222.4Q544.7 275.8 537.6 307.65M272.9 86.95Q294.3 63.1 309.1 34.75L320.75 11.5Q289.55 96.2 247.85 118.7L260.35 99.2Q266.95 93.55 272.9 86.95M171.9 53.95L163.75 68.5L168.2 66.2Q175.7 62.6 183.7 54.15L183.9 53.9Q176.5 67.7 157.95 74.7L159.8 68.75L153.25 75.1Q145.8 81.1 136.7 83.9L136.7 83.7Q138.05 82.9 141.35 78.8L146.5 72.9Q160.4 65.2 171.9 53.95M250.6 49.1Q207.75 129.75 155.35 138.3L176.35 117.45Q186.5 113.5 195.95 107.6Q222.65 90.95 239.9 64.65L250.6 49.1M54.45 80.95Q82.65 68.65 104.95 47.65Q101.6 54.8 97.05 61.15Q91.85 68.5 85.9 75.6L88.95 73.85Q112 60.85 128.4 40.25Q104.95 72.55 77.45 83.1L85.45 69.8Q49.7 94 20.55 100.7L32.35 89.65Q43.55 85.7 54.45 80.95M186.05 272.5L188.1 272.2Q192.75 271.1 195.65 267.75Q187.2 279.65 177.4 281L182.2 273.45Q168.15 281 152.65 279.3L160.95 273.6Q178.7 273.65 191.85 262.05L186.05 272.5M58.25 298.5L69.25 286.15Q76.4 284.45 83.2 281.15Q112.1 266.9 139.4 235.45Q114.8 282.35 58.25 298.5M79.25 250.4Q70.4 272.5 53.45 281.35L58.7 271.65Q68.4 265.2 79.25 250.4M306.9 260.6L310.2 253.65L310.4 259.25Q307.1 272 302 277.65Q286.65 297 265.4 296.95L273.55 289.7Q296.15 282.4 306.9 260.6M246.45 270.35L252 263.65Q245.5 282.35 228.45 284.1L233.8 278.95Q241.4 277.2 246.45 270.35M325.6 260.25Q322.4 274.15 311.5 281.7L315.1 272.2Q319.3 268.8 322.6 264.4L325.6 260.25M255 293.45Q230.6 354.05 163.6 359.05L177.5 345.95Q186.25 345.35 194.65 342.35Q225.3 331.35 244.6 306.4L245.95 304.75L255 293.45" />
<path style="fill:none;stroke-width:0.7;stroke-linecap:round;stroke-linejoin:round;stroke-miterlimit:3;stroke:#000000;stroke-opacity:0.4" d="M744.2 53.25Q735.7 48.45 728.15 42.25Q717.25 33.2 709.7 21.4L707.9 18.45" />
<path style="fill:none;stroke-width:0.7;stroke-linecap:round;stroke-linejoin:round;stroke-miterlimit:3;stroke:#000000;stroke-opacity:0.4" d="M732.9 2.2Q739.55 27.7 750.9 51.45L754.15 58.2Q749 55.95 744.2 53.25" />
<path style="fill:none;stroke-width:0.7;stroke-linecap:round;stroke-linejoin:round;stroke-miterlimit:3;stroke:#000000;stroke-opacity:0.4" d="M673.45 14.65L671.45 10.3" />
<path style="fill:none;stroke-width:0.7;stroke-linecap:round;stroke-linejoin:round;stroke-miterlimit:3;stroke:#000000;stroke-opacity:0.4" d="M710.4 61.2Q686.7 44.5 674.3 16.5L673.45 14.65" />
<path style="fill:none;stroke-width:0.7;stroke-linecap:round;stroke-linejoin:round;stroke-miterlimit:3;stroke:#000000;stroke-opacity:0.4" d="M710.4 61.2L719.3 66.85L716.1 61.55Q698.3 34.35 699.7 3.75" />
<path style="fill:none;stroke-width:0.7;stroke-linecap:round;stroke-linejoin:round;stroke-miterlimit:3;stroke:#000000;stroke-opacity:0.4" d="M650.9 62.45Q639.55 48.95 631.4 33.2Q627.7 26.05 625.15 18.45L624.1 15.15" />
<path style="fill:none;stroke-width:0.7;stroke-linecap:round;stroke-linejoin:round;stroke-miterlimit:3;stroke:#000000;stroke-opacity:0.4" d="M643.15 10.85Q644.7 37.55 654.45 62.6L657.3 69.6Q653.95 66.1 650.9 62.45" />
<path style="fill:none;stroke-width:0.7;stroke-linecap:round;stroke-linejoin:round;stroke-miterlimit:3;stroke:#000000;stroke-opacity:0.4" d="M728.4 176.25Q735.05 190.8 765.4 194.3Q745.6 172.7 738.35 158.85" />
<path style="fill:none;stroke-width:0.7;stroke-linecap:round;stroke-linejoin:round;stroke-miterlimit:3;stroke:#000000;stroke-opacity:0.4" d="M773.45 236.55Q759.4 234.6 744.5 224.55" />
<path style="fill:none;stroke-width:0.7;stroke-linecap:round;stroke-linejoin:round;stroke-miterlimit:3;stroke:#000000;stroke-opacity:0.4" d="M773.45 236.55L778.55 237.4L781.85 237.7Q766.4 230.4 757.1 217.15Q754.4 213.25 752.5 208.9" />
<path style="fill:none;stroke-width:0.7;stroke-linecap:round;stroke-linejoin:round;stroke-miterlimit:3;stroke:#000000;stroke-opacity:0.4" d="M734.2 251.45Q722.05 247.4 710.6 241.55L716.2 248.55" />
<path style="fill:none;stroke-width:0.7;stroke-linecap:round;stroke-linejoin:round;stroke-miterlimit:3;stroke:#000000;stroke-opacity:0.4" d="M729.6 235.5Q732.35 242.5 737.7 248.35L742.7 254.05Q738.4 252.85 734.2 251.45" />
<path style="fill:none;stroke-width:0.7;stroke-linecap:round;stroke-linejoin:round;stroke-miterlimit:3;stroke:#000000;stroke-opacity:0.4" d="M716.25 248.6Q723.15 256.55 731.25 263.35L734.55 266.05L728.05 265.25" />
<path style="fill:none;stroke-width:0.7;stroke-linecap:round;stroke-linejoin:round;stroke-miterlimit:3;stroke:#000000;stroke-opacity:0.4" d="M656.6 223.55Q679.2 240.85 683.1 244.15Q702.95 261.2 728.05 265.25" />
<path style="fill:none;stroke-width:0.7;stroke-linecap:round;stroke-linejoin:round;stroke-miterlimit:3;stroke:#000000;stroke-opacity:0.4" d="M693.7 206.9Q700.7 232.95 705.25 236.65Q709.8 240.35 710.6 241.55" />
<path style="fill:none;stroke-width:0.7;stroke-linecap:round;stroke-linejoin:round;stroke-miterlimit:3;stroke:#000000;stroke-opacity:0.4" d="M748.8 379.15L750.55 380.9Q757.15 387.55 759.05 388.5L756.95 381.95Q755.25 376.15 755.25 372.1" />
<path style="fill:none;stroke-width:0.7;stroke-linecap:round;stroke-linejoin:round;stroke-miterlimit:3;stroke:#000000;stroke-opacity:0.4" d="M753.6 359.7Q755.4 371.05 773.7 384.95Q780.6 390.2 788 394.25Q794.75 398 798.15 398.8Q798.15 397.5 794.25 393.65Q788.85 388.3 785.15 382.5Q781.85 377.25 778.45 367.6Q774.8 357.2 774.8 351.5" />
<path style="fill:none;stroke-width:0.7;stroke-linecap:round;stroke-linejoin:round;stroke-miterlimit:3;stroke:#000000;stroke-opacity:0.4" d="M731.55 399.45Q738.2 392.05 742.4 383.1" />
<path style="fill:none;stroke-width:0.7;stroke-linecap:round;stroke-linejoin:round;stroke-miterlimit:3;stroke:#000000;stroke-opacity:0.4" d="M731.85 387.95L727.9 399.45" />
<path style="fill:none;stroke-width:0.7;stroke-linecap:round;stroke-linejoin:round;stroke-miterlimit:3;stroke:#000000;stroke-opacity:0.4" d="M577.1 43.6Q575 37.65 573.5 31.45" />
<path style="fill:none;stroke-width:0.7;stroke-linecap:round;stroke-linejoin:round;stroke-miterlimit:3;stroke:#000000;stroke-opacity:0.4" d="M621.3 99.55Q602.75 87.55 590 68.8Q581.9 56.95 577.1 43.6" />
<path style="fill:none;stroke-width:0.7;stroke-linecap:round;stroke-linejoin:round;stroke-miterlimit:3;stroke:#000000;stroke-opacity:0.4" d="M621.3 99.55Q626.8 103.1 632.8 106.05Q621.55 92.05 614.85 75.35Q602.7 44.95 601.8 11.95" />
<path style="fill:none;stroke-width:0.7;stroke-linecap:round;stroke-linejoin:round;stroke-miterlimit:3;stroke:#000000;stroke-opacity:0.4" d="M485.65 23.1Q487.9 44.9 497.2 65.25Q501.3 74.2 506.7 82.35" />
<path style="fill:none;stroke-width:0.7;stroke-linecap:round;stroke-linejoin:round;stroke-miterlimit:3;stroke:#000000;stroke-opacity:0.4" d="M485.65 23.1Q484.8 15.25 484.9 7.25" />
<path style="fill:none;stroke-width:0.7;stroke-linecap:round;stroke-linejoin:round;stroke-miterlimit:3;stroke:#000000;stroke-opacity:0.4" d="M506.7 82.35Q510.25 87.7 514.35 92.65Q487.1 75.7 469.65 48.6Q458.9 31.95 454.45 12.7" />
<path style="fill:none;stroke-width:0.7;stroke-linecap:round;stroke-linejoin:round;stroke-miterlimit:3;stroke:#000000;stroke-opacity:0.4" d="M573.45 109.65Q560.85 102.6 549.4 93.5Q536.35 83.15 526.7 69.45Q521.8 62.5 518.1 54.95" />
<path style="fill:none;stroke-width:0.7;stroke-linecap:round;stroke-linejoin:round;stroke-miterlimit:3;stroke:#000000;stroke-opacity:0.4" d="M573.45 109.65L583.5 114.85Q576.05 103.15 569.5 90.75Q556.15 65.4 547.6 38.05" />
<path style="fill:none;stroke-width:0.7;stroke-linecap:round;stroke-linejoin:round;stroke-miterlimit:3;stroke:#000000;stroke-opacity:0.4" d="M517.95 54.7Q515.7 50.05 513.85 45.2" />
<path style="fill:none;stroke-width:0.7;stroke-linecap:round;stroke-linejoin:round;stroke-miterlimit:3;stroke:#000000;stroke-opacity:0.4" d="M438.55 39.7Q437.2 43.95 436.25 48.2" />
<path style="fill:none;stroke-width:0.7;stroke-linecap:round;stroke-linejoin:round;stroke-miterlimit:3;stroke:#000000;stroke-opacity:0.4" d="M436.7 96.7L437 98L438.55 102.85Q427.7 92.8 423.6 78.1Q419.15 62.25 418.4 45.65" />
<path style="fill:none;stroke-width:0.7;stroke-linecap:round;stroke-linejoin:round;stroke-miterlimit:3;stroke:#000000;stroke-opacity:0.4" d="M436.25 48.2Q430.5 72.55 436.7 96.7" />
<path style="fill:none;stroke-width:0.7;stroke-linecap:round;stroke-linejoin:round;stroke-miterlimit:3;stroke:#000000;stroke-opacity:0.4" d="M323.8 84.05L323.4 84.3L314.75 89.9Q330.45 66.95 336.15 39.9L337.35 33.65" />
<path style="fill:none;stroke-width:0.7;stroke-linecap:round;stroke-linejoin:round;stroke-miterlimit:3;stroke:#000000;stroke-opacity:0.4" d="M323.8 84.05Q350.5 66.1 357.5 35.3" />
<path style="fill:none;stroke-width:0.7;stroke-linecap:round;stroke-linejoin:round;stroke-miterlimit:3;stroke:#000000;stroke-opacity:0.4" d="M346.1 116.25Q339 120.9 331.9 124.55Q351.55 105.3 360.9 78.8Q370.25 52.25 369.4 14.1" />
<path style="fill:none;stroke-width:0.7;stroke-linecap:round;stroke-linejoin:round;stroke-miterlimit:3;stroke:#000000;stroke-opacity:0.4" d="M411.35 9.7Q405.3 61.85 380.75 87Q363.35 104.8 346.1 116.25" />
<path style="fill:none;stroke-width:0.7;stroke-linecap:round;stroke-linejoin:round;stroke-miterlimit:3;stroke:#000000;stroke-opacity:0.4" d="M421.75 213.95Q430.55 283.85 434.15 287.45L438.55 292.15L432.05 288.95" />
<path style="fill:none;stroke-width:0.7;stroke-linecap:round;stroke-linejoin:round;stroke-miterlimit:3;stroke:#000000;stroke-opacity:0.4" d="M396.05 245.75Q413.15 278.75 432.05 288.95" />
<path style="fill:none;stroke-width:0.7;stroke-linecap:round;stroke-linejoin:round;stroke-miterlimit:3;stroke:#000000;stroke-opacity:0.4" d="M365.1 259.5L365.6 262.3Q367.7 272.05 377.15 282L382.1 286.8Q377.8 276.95 377.5 260.35" />
<path style="fill:none;stroke-width:0.7;stroke-linecap:round;stroke-linejoin:round;stroke-miterlimit:3;stroke:#000000;stroke-opacity:0.4" d="M483.7 260.05Q484.95 280.25 474.35 297.05L471.5 301.2L470.1 303.05Q471.7 284 456.45 245" />
<path style="fill:none;stroke-width:0.7;stroke-linecap:round;stroke-linejoin:round;stroke-miterlimit:3;stroke:#000000;stroke-opacity:0.4" d="M408.8 399.45L410.9 393.45Q412.95 387.1 412.95 377.85Q412.95 372.05 411.7 366.95Q410.3 361.15 407.55 357.5" />
<path style="fill:none;stroke-width:0.7;stroke-linecap:round;stroke-linejoin:round;stroke-miterlimit:3;stroke:#000000;stroke-opacity:0.4" d="M459.8 369.45Q459.8 373.55 467.6 386.4Q473.2 395.6 476.35 399.45" />
<path style="fill:none;stroke-width:0.7;stroke-linecap:round;stroke-linejoin:round;stroke-miterlimit:3;stroke:#000000;stroke-opacity:0.4" d="M471.2 399.45Q467.05 397.5 462.2 393.15Q454.15 385.9 451.6 379.8" />
<path style="fill:none;stroke-width:0.7;stroke-linecap:round;stroke-linejoin:round;stroke-miterlimit:3;stroke:#000000;stroke-opacity:0.4" d="M603.15 278.65L604.6 281.65Q611.25 294.6 615.85 300.3L619 304.1Q614.35 302.7 609.85 300.95" />
<path style="fill:none;stroke-width:0.7;stroke-linecap:round;stroke-linejoin:round;stroke-miterlimit:3;stroke:#000000;stroke-opacity:0.4" d="M559.8 261.35L557.15 256.85" />
<path style="fill:none;stroke-width:0.7;stroke-linecap:round;stroke-linejoin:round;stroke-miterlimit:3;stroke:#000000;stroke-opacity:0.4" d="M637.8 285.55Q616.5 284 598.9 269.9L603.15 278.65" />
<path style="fill:none;stroke-width:0.7;stroke-linecap:round;stroke-linejoin:round;stroke-miterlimit:3;stroke:#000000;stroke-opacity:0.4" d="M637.8 285.55Q642 285.85 646.35 285.65Q641.4 281.8 631.65 271.3Q621.9 260.75 608.3 233.65" />
<path style="fill:none;stroke-width:0.7;stroke-linecap:round;stroke-linejoin:round;stroke-miterlimit:3;stroke:#000000;stroke-opacity:0.4" d="M569.8 213.4Q577.95 236.85 598.9 269.9" />
<path style="fill:none;stroke-width:0.7;stroke-linecap:round;stroke-linejoin:round;stroke-miterlimit:3;stroke:#000000;stroke-opacity:0.4" d="M535.9 290.65L535.1 297.3L534 304Q533.7 292.7 528.75 282.05Q521.1 265.7 495.4 232.2" />
<path style="fill:none;stroke-width:0.7;stroke-linecap:round;stroke-linejoin:round;stroke-miterlimit:3;stroke:#000000;stroke-opacity:0.4" d="M525.7 222.4Q538 267.3 535.9 290.65" />
<path style="fill:none;stroke-width:0.7;stroke-linecap:round;stroke-linejoin:round;stroke-miterlimit:3;stroke:#000000;stroke-opacity:0.4" d="M531.4 390.4L528.6 395.5L526.3 399.45" />
<path style="fill:none;stroke-width:0.7;stroke-linecap:round;stroke-linejoin:round;stroke-miterlimit:3;stroke:#000000;stroke-opacity:0.4" d="M609.85 300.95Q589.65 293 573.7 278.05Q565.65 270.55 559.8 261.35" />
<path style="fill:none;stroke-width:0.7;stroke-linecap:round;stroke-linejoin:round;stroke-miterlimit:3;stroke:#000000;stroke-opacity:0.4" d="M260.35 99.2Q243.3 113.75 221.95 121.85Q240.95 101.95 251.25 82Q261.5 62.05 268.25 40.25" />
<path style="fill:none;stroke-width:0.7;stroke-linecap:round;stroke-linejoin:round;stroke-miterlimit:3;stroke:#000000;stroke-opacity:0.4" d="M309.1 34.75Q294.3 63.1 272.9 86.95Q266.95 93.55 260.35 99.2" />
<path style="fill:none;stroke-width:0.7;stroke-linecap:round;stroke-linejoin:round;stroke-miterlimit:3;stroke:#000000;stroke-opacity:0.4" d="M183.7 54.15Q175.7 62.6 168.2 66.2L163.75 68.5L171.9 53.95Q160.4 65.2 146.5 72.9Q140.65 76.05 134.45 78.65L128.4 81.05Q148.5 60.6 156.6 33.25L158.3 26.65" />
<path style="fill:none;stroke-width:0.7;stroke-linecap:round;stroke-linejoin:round;stroke-miterlimit:3;stroke:#000000;stroke-opacity:0.4" d="M192.6 23.9Q187.1 39.6 175.15 50.95L171.9 53.95" />
<path style="fill:none;stroke-width:0.7;stroke-linecap:round;stroke-linejoin:round;stroke-miterlimit:3;stroke:#000000;stroke-opacity:0.4" d="M239.9 64.65Q222.65 90.95 195.95 107.6Q186.5 113.5 176.35 117.45" />
<path style="fill:none;stroke-width:0.7;stroke-linecap:round;stroke-linejoin:round;stroke-miterlimit:3;stroke:#000000;stroke-opacity:0.4" d="M115.8 34.2L104.95 47.65Q101.6 54.8 97.05 61.15Q91.85 68.5 85.9 75.6L88.95 73.85Q112 60.85 128.4 40.25" />
<path style="fill:none;stroke-width:0.7;stroke-linecap:round;stroke-linejoin:round;stroke-miterlimit:3;stroke:#000000;stroke-opacity:0.4" d="M32.35 89.65Q22.8 93 13.05 95.75Q41.2 72.75 64.65 45.35Q75.6 32.55 91.95 3.45" />
<path style="fill:none;stroke-width:0.7;stroke-linecap:round;stroke-linejoin:round;stroke-miterlimit:3;stroke:#000000;stroke-opacity:0.4" d="M104.95 47.65Q82.65 68.65 54.45 80.95Q43.55 85.7 32.35 89.65" />
<path style="fill:none;stroke-width:0.7;stroke-linecap:round;stroke-linejoin:round;stroke-miterlimit:3;stroke:#000000;stroke-opacity:0.4" d="M196.7 223Q172.45 261.65 151.1 272.65L160.95 273.6Q178.7 273.65 191.85 262.05Q194.5 259.7 207.35 244.85" />
<path style="fill:none;stroke-width:0.7;stroke-linecap:round;stroke-linejoin:round;stroke-miterlimit:3;stroke:#000000;stroke-opacity:0.4" d="M195.65 267.75Q192.75 271.1 188.1 272.2L186.05 272.5L191.85 262.05" />
<path style="fill:none;stroke-width:0.7;stroke-linecap:round;stroke-linejoin:round;stroke-miterlimit:3;stroke:#000000;stroke-opacity:0.4" d="M139.4 235.45Q112.1 266.9 83.2 281.15Q76.4 284.45 69.25 286.15" />
<path style="fill:none;stroke-width:0.7;stroke-linecap:round;stroke-linejoin:round;stroke-miterlimit:3;stroke:#000000;stroke-opacity:0.4" d="M79.25 250.4Q68.4 265.2 58.7 271.65Q55.25 273.95 51.95 275.2L49.8 275.95Q59.7 265.3 65.25 245" />
<path style="fill:none;stroke-width:0.7;stroke-linecap:round;stroke-linejoin:round;stroke-miterlimit:3;stroke:#000000;stroke-opacity:0.4" d="M69.25 286.15Q62.15 287.85 54.7 287.9Q95.15 253.2 103.9 221.8" />
<path style="fill:none;stroke-width:0.7;stroke-linecap:round;stroke-linejoin:round;stroke-miterlimit:3;stroke:#000000;stroke-opacity:0.4" d="M32.55 351.5Q30.7 354.7 15.65 367.75Q0.9 380.5 -1.55 381.4L-1.55 381.95L3.55 382.7L8.1 383.05Q8.9 383.05 13.2 381.5Q18.55 379.55 23.3 377.15Q37.75 369.85 39.15 362.35" />
<path style="fill:none;stroke-width:0.7;stroke-linecap:round;stroke-linejoin:round;stroke-miterlimit:3;stroke:#000000;stroke-opacity:0.4" d="M94.1 369.45Q91.55 374.65 74.4 388.55L60.6 399.45" />
<path style="fill:none;stroke-width:0.7;stroke-linecap:round;stroke-linejoin:round;stroke-miterlimit:3;stroke:#000000;stroke-opacity:0.4" d="M64.75 399.45L65.15 399.35L79.85 395.45Q101.05 388.65 109.9 375.4" />
<path style="fill:none;stroke-width:0.7;stroke-linecap:round;stroke-linejoin:round;stroke-miterlimit:3;stroke:#000000;stroke-opacity:0.4" d="M306.9 260.6Q296.15 282.4 273.55 289.7L266.35 291.6L263.35 292.15Q277.25 277.2 290.95 221.75" />
<path style="fill:none;stroke-width:0.7;stroke-linecap:round;stroke-linejoin:round;stroke-miterlimit:3;stroke:#000000;stroke-opacity:0.4" d="M233.8 278.95L227.7 279.55L225.9 279.6L247 253.55" />
<path style="fill:none;stroke-width:0.7;stroke-linecap:round;stroke-linejoin:round;stroke-miterlimit:3;stroke:#000000;stroke-opacity:0.4" d="M322.6 264.4Q319.3 268.8 315.1 272.2" />
<path style="fill:none;stroke-width:0.7;stroke-linecap:round;stroke-linejoin:round;stroke-miterlimit:3;stroke:#000000;stroke-opacity:0.4" d="M315.1 272.2L311.55 274.75L309.65 275.85L313.95 265.5" />
<path style="fill:none;stroke-width:0.7;stroke-linecap:round;stroke-linejoin:round;stroke-miterlimit:3;stroke:#000000;stroke-opacity:0.4" d="M177.5 345.95L163.75 345.5Q187.55 324.05 204.6 297.05" />
<path style="fill:none;stroke-width:0.7;stroke-linecap:round;stroke-linejoin:round;stroke-miterlimit:3;stroke:#000000;stroke-opacity:0.4" d="M245.95 304.75L244.6 306.4Q225.3 331.35 194.65 342.35Q186.25 345.35 177.5 345.95" />
<path style="fill:none;stroke-width:0.7;stroke-linecap:round;stroke-linejoin:round;stroke-miterlimit:3;stroke:#000000;stroke-opacity:0.4" d="M207 383.75L199.45 392L192.1 399.45" />
<path style="fill:none;stroke-width:0.7;stroke-linecap:round;stroke-linejoin:round;stroke-miterlimit:3;stroke:#000000;stroke-opacity:0.4" d="M314.75 399.45L314.5 394.45L314.5 392.1" />
<path style="fill:none;stroke-width:0.7;stroke-linecap:round;stroke-linejoin:round;stroke-miterlimit:3;stroke:#000000;stroke-opacity:0.4" d="M246.45 270.35Q241.4 277.2 233.8 278.95" />
<path style="fill:none;stroke-width:0.7;stroke-linecap:round;stroke-linejoin:round;stroke-miterlimit:3;stroke:#000000;stroke-opacity:0.4" d="M176.35 117.45Q163.05 122.65 148.5 124.55Q182.5 97.8 202.4 59.25" />
<path style="fill:none;stroke-width:0.7;stroke-linecap:round;stroke-linejoin:round;stroke-miterlimit:3;stroke:#000000;stroke-opacity:0.4" d="M300.85 388.4Q302.45 393.2 305.7 398.25L306.5 399.45" />
<path style="fill:none;stroke-width:0.7;stroke-linecap:round;stroke-linejoin:round;stroke-miterlimit:3;stroke:#000000;stroke-opacity:0.4" d="M208 399.45L212.55 397.3Q218.65 394.2 223.45 390.8" />
<path style="fill:none;stroke-width:0.7;stroke-linecap:round;stroke-linejoin:round;stroke-miterlimit:3;stroke:#000000;stroke-opacity:0.4" d="M403.35 386.25Q405.05 391.8 406.85 399.45" />
<path style="fill:none;stroke-width:0.7;stroke-linecap:round;stroke-linejoin:round;stroke-miterlimit:3;stroke:#000000;stroke-opacity:0.4" d="M534.3 399.45Q538.6 395.05 541.7 391.3" />
</g>
</svg>
