<?xml version="1.0" encoding="utf-8"?>
<svg version="1.1" id="Layer_1"
xmlns="http://www.w3.org/2000/svg"
xmlns:xlink="http://www.w3.org/1999/xlink"
width="145px" height="110px"
xml:space="preserve">
<g id="PathID_1484" transform="matrix(1, 0, 0, 1, 70.2, 110)">
<path style="fill:#326209;fill-opacity:1" d="M-2.4 -105.55L-2.65 -110Q-1.9 -106.45 -0.65 -102.95Q0.8 -98.9 2.9 -95Q0 -98.75 -1.5 -102.8L-2.4 -105.55M-4.1 -100.5L-5.4 -105.6L-5 -108.75L-4.1 -100.5M-4.6 -67.25Q-6.8 -63.6 -7.25 -59.55L-7.2 -64.45L-4.6 -67.25" />
</g>
<g id="PathID_1485" transform="matrix(1, 0, 0, 1, 70.2, 110)">
<path style="fill:#2B5607;fill-opacity:1" d="M-42 -35.8Q-37.3 -38.9 -33.1 -42.65L-41.1 -29.85Q-34.4 -33.5 -28.75 -38.8Q-29.45 -33.25 -31.55 -28.7Q-22.5 -31.65 -15.55 -36.3L-18.55 -29.45Q-13.15 -33.15 -9.6 -37.35Q-7.85 -32.9 -2.45 -28.95Q-3.75 -33.1 -1.9 -38.65Q2.25 -35.2 4 -29.35Q4.2 -34 3.15 -38.95Q6.3 -35.3 6.65 -31.3L9.75 -37.6Q10.05 -32.15 7.2 -27.2L6.5 -26.35L7.2 -27.2L13.9 -35.55Q16.05 -31.55 16.65 -27.1Q19.45 -31.65 20.8 -37.25Q24.5 -31.8 29.5 -27.35Q34.05 -32.55 34.2 -39.7Q40.1 -35.85 44.2 -30.6L41.65 -38.75Q45.15 -36.15 49.2 -33.95L51.5 -30.3L53 -28.05L44.9 -33.8L44.9 -28.35Q40.75 -32.7 35.35 -36.9Q34.3 -29.55 29.55 -25.6Q24.8 -29.75 21.45 -34.35Q20.45 -27.05 15.75 -24.85Q15.35 -29.5 13.65 -32.8Q8.7 -25.7 4.2 -25.15Q6.55 -27.45 7.35 -30.8L5.2 -28.2L5.2 -30.65L3.35 -26.95Q2.35 -31.65 -1.1 -36.1Q-2.3 -31.35 -1.1 -26.95Q-4.15 -28.25 -6.5 -30.3Q-8.55 -32.1 -10.1 -34.45Q-15.4 -28.7 -23.25 -25.65L-21.35 -30Q-28.4 -25.9 -36.6 -23.5L-32.6 -32Q-38.6 -27.75 -45.9 -25.5L-41.35 -32.25L-48.2 -27.8L-42 -35.8M7.9 -5.85L7.15 -4.25L6 -4.25L7.9 -5.85M-8.8 -7.45L-5.5 -4.15L-7.05 -4.15L-8.8 -7.45M-9.75 -4.15L-13.6 -4.15L-11.5 -5.85Q-10.8 -4.95 -9.75 -4.15M-37.3 -7.8L-38.95 -4.75L-43.45 -4.25Q-39.85 -5.7 -37.3 -7.8M-46.5 -8L-49.8 -3.95L-65.95 -4.25Q-56.15 -5.05 -46.5 -8M19.35 -4.3L21.9 -6.2Q22.45 -5.35 22.65 -4.35L19.35 -4.3M32.2 -4.4L24.7 -4.35L27.05 -7.4Q29.25 -5.7 32.2 -4.4M41.65 -4.45L37.7 -4.45L35.5 -7.8Q38.35 -5.75 41.65 -4.45M57.8 -4.55L55.15 -4.55Q53 -6.95 51.5 -9.8L57.8 -4.55M61.45 -4.6L61 -4.6L60.4 -4.55L59.75 -4.55L58.5 -4.55L54.9 -8.9Q57.5 -6.45 61.45 -4.6" />
<path style="fill:#326209;fill-opacity:1" d="M55.1 -25.05L46.05 -31.45Q46.3 -28.4 45.25 -25.75Q41.7 -30.2 36.1 -34.65Q34.6 -27.45 29.55 -23.4Q26.25 -27.7 22.1 -31.9Q19.65 -23.9 14.1 -22.9Q14.25 -26.05 12.75 -29Q8.45 -24.15 2.75 -23L3.7 -26.1L2.75 -24.6Q1.65 -29.2 -0.5 -32.5Q-0.85 -28.4 0.15 -24.35Q-4.05 -26.3 -7 -29.15Q-8.85 -30.95 -10.25 -33.05Q-17.85 -24.65 -25.85 -23.15L-24.35 -26.85Q-31.5 -22.65 -39.75 -20.65L-35.75 -28.35Q-41.3 -25.2 -48.45 -23.6L-45.8 -27.95L-49.75 -25.95L-48.2 -27.8L-41.35 -32.25L-45.9 -25.5Q-38.6 -27.75 -32.6 -32L-36.6 -23.5Q-28.4 -25.9 -21.35 -30L-23.25 -25.65Q-15.4 -28.7 -10.1 -34.45Q-8.55 -32.1 -6.5 -30.3Q-4.15 -28.25 -1.1 -26.95Q-2.3 -31.35 -1.1 -36.1Q2.35 -31.65 3.35 -26.95L5.2 -30.65L5.2 -28.2L7.35 -30.8Q6.55 -27.45 4.2 -25.15Q8.7 -25.7 13.65 -32.8Q15.35 -29.5 15.75 -24.85Q20.45 -27.05 21.45 -34.35Q24.8 -29.75 29.55 -25.6Q34.3 -29.55 35.35 -36.9Q40.75 -32.7 44.9 -28.35L44.9 -33.8L53 -28.05L55.1 -25.05M51.5 -30.3L49.2 -33.95Q51.15 -32.9 53.25 -31.95L47.5 -37.65Q50.6 -35.6 53.95 -33.7Q56.55 -28.9 61.4 -24.95Q55.9 -27.25 51.5 -30.3M-0.35 -0.95Q-3.3 -2.35 -5.5 -4.15L-8.8 -7.45L-9.8 -8.9L-10.6 -11.95L-0.35 -0.95M-12.6 -7.55L-11.5 -5.85L-13.6 -4.15Q-17.2 -1.65 -23.05 -0.35Q-14.9 -3.7 -12.6 -7.55M-43.45 -4.25Q-46.85 -3 -51.15 -2.3Q-39.25 -7 -33.05 -12.9Q-25.45 -7.95 -23.45 -1.2Q-24.85 -3.2 -27.95 -4.7L-40.65 -1.7L-38.95 -4.75L-37.3 -7.8Q-39.85 -5.7 -43.45 -4.25M-36.95 -19.85L-39.6 -16.3L-46.5 -8Q-56.15 -5.05 -65.95 -4.25L-70.05 -4.05Q-52.1 -7.45 -36.95 -19.85M-48.2 -27.8Q-51.95 -24.85 -54.5 -24.3Q-51.4 -27.9 -47.75 -35L-45.3 -36.6L-48.95 -31.8L-42 -35.8L-48.2 -27.8M27.05 -7.4L26.1 -9.55Q29.6 -6.6 34 -4.4L39.15 -2.2Q35.25 -3.1 32.2 -4.4Q29.25 -5.7 27.05 -7.4M35.5 -7.8L33.9 -9Q39.45 -6.2 45.65 -4.5Q51.25 -2.95 57.4 -2.3Q48.6 -1.7 41.65 -4.45Q38.35 -5.75 35.5 -7.8M54.9 -8.9L54.5 -9.3Q53 -10.7 51.95 -12.35Q56.9 -8.8 61.5 -7.05Q64.4 -5.95 74.1 -6.35Q68 -5.05 61.45 -4.6Q57.5 -6.45 54.9 -8.9M-35.6 -9.5L-37.3 -7.8L-35.6 -9.5" />
<linearGradient
id="LinearGradID_751" gradientUnits="userSpaceOnUse" gradientTransform="matrix(-0.00689697, 0.0371552, -0.0205688, -0.0038147, 2, -17.5)" spreadMethod ="pad" x1="-819.2" y1="0" x2="819.2" y2="0" >
<stop  offset="0.0352941" style="stop-color:#3E6400;stop-opacity:1" />
<stop  offset="1" style="stop-color:#5D9F07;stop-opacity:1" />
</linearGradient>
<path style="fill:url(#LinearGradID_751) " d="M-11.5 -5.85L-12.6 -7.55Q-14.9 -3.7 -23.05 -0.35L-23.45 -1.2Q-25.45 -7.95 -33.05 -12.9Q-39.25 -7 -51.15 -2.3L-49.8 -3.95L-46.5 -8L-39.6 -16.3L-36.95 -19.85Q-52.1 -7.45 -70.05 -4.05Q-62.15 -11.7 -54.9 -19.9L-49.75 -25.95L-45.8 -27.95L-48.45 -23.6Q-41.3 -25.2 -35.75 -28.35L-39.75 -20.65Q-31.5 -22.65 -24.35 -26.85L-25.85 -23.15Q-17.85 -24.65 -10.25 -33.05Q-8.85 -30.95 -7 -29.15Q-4.05 -26.3 0.15 -24.35Q-0.85 -28.4 -0.5 -32.5Q1.65 -29.2 2.75 -24.6L3.7 -26.1L2.75 -23Q8.45 -24.15 12.75 -29Q14.25 -26.05 14.1 -22.9Q19.65 -23.9 22.1 -31.9Q26.25 -27.7 29.55 -23.4Q34.6 -27.45 36.1 -34.65Q41.7 -30.2 45.25 -25.75Q46.3 -28.4 46.05 -31.45L55.1 -25.05L59.2 -19.9Q65.35 -12.9 74.1 -6.35Q64.4 -5.95 61.5 -7.05Q56.9 -8.8 51.95 -12.35Q53 -10.7 54.5 -9.3L54.9 -8.9L58.5 -4.55L60.2 -2.55L57.8 -4.55L51.5 -9.8L49.9 -11.1L51.5 -9.8Q53 -6.95 55.15 -4.55L57.4 -2.3Q51.25 -2.95 45.65 -4.5Q39.45 -6.2 33.9 -9L35.5 -7.8L37.7 -4.45L39.15 -2.2L34 -4.4Q29.6 -6.6 26.1 -9.55L27.05 -7.4L24.7 -4.35L22.45 -1.45Q22.9 -3 22.65 -4.35Q22.45 -5.35 21.9 -6.2L21 -7.4L21.9 -6.2L19.35 -4.3Q14.95 -1.75 7.95 -0.45Q9.3 -2.3 10 -4.25L10.05 -4.5L4.6 -1.45Q6.2 -2.75 7.15 -4.25L7.9 -5.85L6 -4.25Q3.2 -2.25 -0.35 -0.95L-10.6 -11.95L-9.8 -8.9L-8.8 -7.45L-7.05 -4.15L-5.7 -1.7Q-8.1 -2.85 -9.75 -4.15Q-10.8 -4.95 -11.5 -5.85M8.4 -7.9L7.9 -5.85L8.4 -7.9M10.3 -6.3L10.05 -4.5L10.3 -6.3" />
<path style="fill:none;stroke-width:0.7;stroke-linecap:round;stroke-linejoin:round;stroke-miterlimit:3;stroke:#000000;stroke-opacity:0.301961" d="M7.2 -27.2L6.5 -26.35" />
<path style="fill:none;stroke-width:0.7;stroke-linecap:round;stroke-linejoin:round;stroke-miterlimit:3;stroke:#000000;stroke-opacity:0.301961" d="M53 -28.05L51.5 -30.3L49.2 -33.95" />
<path style="fill:none;stroke-width:0.7;stroke-linecap:round;stroke-linejoin:round;stroke-miterlimit:3;stroke:#000000;stroke-opacity:0.301961" d="M53.95 -33.7Q56.55 -28.9 61.4 -24.95Q55.9 -27.25 51.5 -30.3" />
<path style="fill:none;stroke-width:0.7;stroke-linecap:round;stroke-linejoin:round;stroke-miterlimit:3;stroke:#000000;stroke-opacity:0.301961" d="M19.35 -4.3Q14.95 -1.75 7.95 -0.45Q9.3 -2.3 10 -4.25L10.05 -4.5L4.6 -1.45Q6.2 -2.75 7.15 -4.25" />
<path style="fill:none;stroke-width:0.7;stroke-linecap:round;stroke-linejoin:round;stroke-miterlimit:3;stroke:#000000;stroke-opacity:0.301961" d="M6 -4.25Q3.2 -2.25 -0.35 -0.95Q-3.3 -2.35 -5.5 -4.15L-7.05 -4.15L-5.7 -1.7Q-8.1 -2.85 -9.75 -4.15L-13.6 -4.15Q-17.2 -1.65 -23.05 -0.35" />
<path style="fill:none;stroke-width:0.7;stroke-linecap:round;stroke-linejoin:round;stroke-miterlimit:3;stroke:#000000;stroke-opacity:0.301961" d="M-23.45 -1.2Q-24.85 -3.2 -27.95 -4.7L-40.65 -1.7L-38.95 -4.75" />
<path style="fill:none;stroke-width:0.7;stroke-linecap:round;stroke-linejoin:round;stroke-miterlimit:3;stroke:#000000;stroke-opacity:0.301961" d="M-43.45 -4.25Q-46.85 -3 -51.15 -2.3L-49.8 -3.95L-65.95 -4.25L-70.05 -4.05Q-62.15 -11.7 -54.9 -19.9L-49.75 -25.95L-48.2 -27.8Q-51.95 -24.85 -54.5 -24.3Q-51.4 -27.9 -47.75 -35" />
<path style="fill:none;stroke-width:0.7;stroke-linecap:round;stroke-linejoin:round;stroke-miterlimit:3;stroke:#000000;stroke-opacity:0.301961" d="M-42 -35.8L-48.2 -27.8" />
<path style="fill:none;stroke-width:0.7;stroke-linecap:round;stroke-linejoin:round;stroke-miterlimit:3;stroke:#000000;stroke-opacity:0.301961" d="M7.15 -4.25L7.9 -5.85L6 -4.25" />
<path style="fill:none;stroke-width:0.7;stroke-linecap:round;stroke-linejoin:round;stroke-miterlimit:3;stroke:#000000;stroke-opacity:0.301961" d="M7.9 -5.85L8.4 -7.9" />
<path style="fill:none;stroke-width:0.7;stroke-linecap:round;stroke-linejoin:round;stroke-miterlimit:3;stroke:#000000;stroke-opacity:0.301961" d="M10.05 -4.5L10.3 -6.3" />
<path style="fill:none;stroke-width:0.7;stroke-linecap:round;stroke-linejoin:round;stroke-miterlimit:3;stroke:#000000;stroke-opacity:0.301961" d="M22.65 -4.35Q22.45 -5.35 21.9 -6.2L19.35 -4.3L22.65 -4.35Q22.9 -3 22.45 -1.45L24.7 -4.35L27.05 -7.4" />
<path style="fill:none;stroke-width:0.7;stroke-linecap:round;stroke-linejoin:round;stroke-miterlimit:3;stroke:#000000;stroke-opacity:0.301961" d="M39.15 -2.2L37.7 -4.45L35.5 -7.8L33.9 -9" />
<path style="fill:none;stroke-width:0.7;stroke-linecap:round;stroke-linejoin:round;stroke-miterlimit:3;stroke:#000000;stroke-opacity:0.301961" d="M57.4 -2.3L55.15 -4.55Q53 -6.95 51.5 -9.8L49.9 -11.1" />
<path style="fill:none;stroke-width:0.7;stroke-linecap:round;stroke-linejoin:round;stroke-miterlimit:3;stroke:#000000;stroke-opacity:0.301961" d="M21.9 -6.2L21 -7.4" />
<path style="fill:none;stroke-width:0.7;stroke-linecap:round;stroke-linejoin:round;stroke-miterlimit:3;stroke:#000000;stroke-opacity:0.301961" d="M39.15 -2.2Q35.25 -3.1 32.2 -4.4L24.7 -4.35" />
<path style="fill:none;stroke-width:0.7;stroke-linecap:round;stroke-linejoin:round;stroke-miterlimit:3;stroke:#000000;stroke-opacity:0.301961" d="M32.2 -4.4Q29.25 -5.7 27.05 -7.4" />
<path style="fill:none;stroke-width:0.7;stroke-linecap:round;stroke-linejoin:round;stroke-miterlimit:3;stroke:#000000;stroke-opacity:0.301961" d="M53 -28.05L55.1 -25.05L59.2 -19.9Q65.35 -12.9 74.1 -6.35Q68 -5.05 61.45 -4.6" />
<path style="fill:none;stroke-width:0.7;stroke-linecap:round;stroke-linejoin:round;stroke-miterlimit:3;stroke:#00FF00;stroke-opacity:1" d="M61.45 -4.6L61 -4.6" />
<path style="fill:none;stroke-width:0.7;stroke-linecap:round;stroke-linejoin:round;stroke-miterlimit:3;stroke:#000000;stroke-opacity:0.301961" d="M61 -4.6L60.4 -4.55L59.75 -4.55" />
<path style="fill:none;stroke-width:0.7;stroke-linecap:round;stroke-linejoin:round;stroke-miterlimit:3;stroke:#000000;stroke-opacity:0.301961" d="M58.5 -4.55L60.2 -2.55L57.8 -4.55L55.15 -4.55" />
<path style="fill:none;stroke-width:0.7;stroke-linecap:round;stroke-linejoin:round;stroke-miterlimit:3;stroke:#000000;stroke-opacity:0.301961" d="M54.9 -8.9L54.5 -9.3Q53 -10.7 51.95 -12.35" />
<path style="fill:none;stroke-width:0.7;stroke-linecap:round;stroke-linejoin:round;stroke-miterlimit:3;stroke:#000000;stroke-opacity:0.301961" d="M57.4 -2.3L58.25 -1.6" />
<path style="fill:none;stroke-width:0.7;stroke-linecap:round;stroke-linejoin:round;stroke-miterlimit:3;stroke:#000000;stroke-opacity:0.301961" d="M57.8 -4.55L51.5 -9.8" />
<path style="fill:none;stroke-width:0.7;stroke-linecap:round;stroke-linejoin:round;stroke-miterlimit:3;stroke:#000000;stroke-opacity:0.301961" d="M54.9 -8.9L58.5 -4.55" />
<path style="fill:none;stroke-width:0.7;stroke-linecap:round;stroke-linejoin:round;stroke-miterlimit:3;stroke:#000000;stroke-opacity:0.301961" d="M57.4 -2.3Q48.6 -1.7 41.65 -4.45L37.7 -4.45" />
<path style="fill:none;stroke-width:0.7;stroke-linecap:round;stroke-linejoin:round;stroke-miterlimit:3;stroke:#000000;stroke-opacity:0.301961" d="M61.45 -4.6Q57.5 -6.45 54.9 -8.9" />
<path style="fill:none;stroke-width:0.7;stroke-linecap:round;stroke-linejoin:round;stroke-miterlimit:3;stroke:#000000;stroke-opacity:0.301961" d="M41.65 -4.45Q38.35 -5.75 35.5 -7.8" />
<path style="fill:none;stroke-width:0.7;stroke-linecap:round;stroke-linejoin:round;stroke-miterlimit:3;stroke:#000000;stroke-opacity:0.301961" d="M-46.5 -8L-49.8 -3.95" />
<path style="fill:none;stroke-width:0.7;stroke-linecap:round;stroke-linejoin:round;stroke-miterlimit:3;stroke:#000000;stroke-opacity:0.301961" d="M-65.95 -4.25Q-56.15 -5.05 -46.5 -8L-39.6 -16.3" />
<path style="fill:none;stroke-width:0.7;stroke-linecap:round;stroke-linejoin:round;stroke-miterlimit:3;stroke:#000000;stroke-opacity:0.301961" d="M-38.95 -4.75L-37.3 -7.8Q-39.85 -5.7 -43.45 -4.25" />
<path style="fill:none;stroke-width:0.7;stroke-linecap:round;stroke-linejoin:round;stroke-miterlimit:3;stroke:#000000;stroke-opacity:0.301961" d="M-37.3 -7.8L-35.6 -9.5" />
<path style="fill:none;stroke-width:0.7;stroke-linecap:round;stroke-linejoin:round;stroke-miterlimit:3;stroke:#000000;stroke-opacity:0.301961" d="M-11.5 -5.85L-13.6 -4.15" />
<path style="fill:none;stroke-width:0.7;stroke-linecap:round;stroke-linejoin:round;stroke-miterlimit:3;stroke:#000000;stroke-opacity:0.301961" d="M-12.6 -7.55L-11.5 -5.85Q-10.8 -4.95 -9.75 -4.15" />
<path style="fill:none;stroke-width:0.7;stroke-linecap:round;stroke-linejoin:round;stroke-miterlimit:3;stroke:#000000;stroke-opacity:0.301961" d="M-5.5 -4.15L-8.8 -7.45L-7.05 -4.15" />
<path style="fill:none;stroke-width:0.7;stroke-linecap:round;stroke-linejoin:round;stroke-miterlimit:3;stroke:#000000;stroke-opacity:0.301961" d="M-8.8 -7.45L-9.8 -8.9" />
</g>
</svg>
