<?xml version="1.0" encoding="utf-8"?>
<svg version="1.1" id="Layer_1"
xmlns="http://www.w3.org/2000/svg"
xmlns:xlink="http://www.w3.org/1999/xlink"
width="40px" height="179px"
xml:space="preserve">
<g id="PathID_1593" transform="matrix(1, 0, 0, 1, 29.6, 178.05)">
<path style="fill:#2A1505;fill-opacity:1" d="M-8.6 -117.45L-4.55 -119.2Q0.1 -114.25 2.8 -109.65Q1.95 -105.4 1.8 -99.2L-8.6 -117.45" />
<path style="fill:#563B25;fill-opacity:1" d="M-0.05 -46.75L1.4 -40.5Q1.4 -37.6 0.6 -35.35Q-1.1 -29.95 -1.1 -28.3L-0.2 -24.7Q-0.95 -20.55 -0.95 -16.4L0.6 -8.55Q2.2 -1.25 2.55 -0.2L1.2 -0.1L-2 -18.8Q-2.4 -14.3 -3.15 -10.8Q-3.7 -8.15 -3.7 -5.8L-5.55 -2.6L-7.4 0.25Q-6.7 -1.65 -5.95 -4.25Q-4.55 -9.4 -4.55 -12.7L-5.3 -18.7L-3.75 -24.85Q-3.35 -26.25 -2.5 -35.65Q-2.45 -36.9 -2.9 -41.75Q-3.4 -47.6 -4.2 -50.6Q-4 -52.65 -4.55 -63.8L-2.65 -71.45Q-0.65 -78.7 -0.45 -80.7Q-0.2 -83.35 -2.35 -91.1Q-4.45 -98.45 -6.1 -101.55Q-7.4 -104.3 -9.05 -106.95Q-8 -105.7 -3.65 -97.4Q0.85 -88.75 1.1 -87Q1.7 -82.85 1.7 -81.15Q1.7 -77.95 0.75 -74.55L0.7 -76.35L0.9 -78.75L0.7 -76.35L0.75 -74.55L-0.45 -71.2Q-2.55 -66.15 -2.55 -65.15Q-2.55 -64.2 -0.2 -55.2L-1.8 -51.15L-0.05 -46.75M-3.75 -19.9Q-3.4 -21.85 -2.5 -35.65Q-3.4 -21.85 -3.75 -19.9" />
<path style="fill:#3C2818;fill-opacity:1" d="M-2.55 -65.15Q-2.55 -66.15 -0.45 -71.2L0.75 -74.55L0.9 -72.45L0.75 -74.55Q1.7 -77.95 1.7 -81.15Q1.7 -82.85 1.1 -87Q0.85 -88.75 -3.65 -97.4Q-8 -105.7 -9.05 -106.95L-14.05 -115.1L-8.6 -117.45L1.8 -99.2Q1.55 -89.05 3.05 -73.55L1.8 -70.25Q0.35 -66.6 0.35 -65.4Q0.35 -62.6 1.7 -60.15L1.1 -58.5L0.6 -62.05L1.1 -58.5L-0.2 -55.2Q-2.55 -64.2 -2.55 -65.15M2.1 -26.75L1.4 -29.45L2 -32.55L2.45 -38.2L2 -32.55L1.4 -29.45L0.95 -30.95L-0.2 -24.7L-1.1 -28.3Q-1.1 -29.95 0.6 -35.35Q1.4 -37.6 1.4 -40.5L-0.05 -46.75L0.4 -47.95L1.55 -46.75L1.2 -52.9L3 -55.8Q2.95 -54.3 3.8 -52.1Q4.6 -50.1 4.75 -50.2Q5.95 -51.1 8.85 -54.9Q6.7 -50.55 5.7 -47.1L5.7 -44.65Q5.35 -40 4.9 -37.85L3.95 -34.45Q2.85 -31.15 2.95 -24.3Q2.65 -24.9 2.1 -26.75M1.2 -0.1L-7.4 0.25L-5.55 -2.6L-3.7 -5.8Q-3.7 -8.15 -3.15 -10.8Q-2.4 -14.3 -2 -18.8L1.2 -0.1M2.7 -44.4Q3.55 -43.65 3.55 -43.95L3.4 -45.2L2.65 -46.2L1.9 -46.35L1.8 -45.6Q1.8 -45.2 2.7 -44.4M-0.2 -1.5L-1.05 -4.05Q-1.7 -6.25 -1.6 -7.4Q-1.7 -6.25 -1.05 -4.05L-0.2 -1.5" />
<path style="fill:#251305;fill-opacity:1" d="M1.7 -60.15Q0.35 -62.6 0.35 -65.4Q0.35 -66.6 1.8 -70.25L3.05 -73.55L3.1 -71.95L1.8 -66.1Q2.15 -66.25 2.75 -63.45L1.7 -60.15" />
<path style="fill:#383C14;fill-opacity:1" d="M-0.2 -55.2L1.1 -58.5L1.4 -55.55L1.1 -58.5L1.7 -60.15L2.75 -63.45L3 -55.8L1.2 -52.9L-0.2 -55.2" />
<path style="fill:#404610;fill-opacity:1" d="M1.8 -45.6L1.9 -46.35L2.65 -46.2L3.4 -45.2L3.55 -43.95Q3.55 -43.65 2.7 -44.4Q1.8 -45.2 1.8 -45.6" />
<path style="fill:#543217;fill-opacity:1" d="M1.2 -52.9L1.55 -46.75L0.4 -47.95L1.2 -52.9" />
<path style="fill:#25190F;fill-opacity:1" d="M0.4 -25.15L1.4 -29.45L2.1 -26.75Q2.65 -24.9 2.95 -24.3Q2.95 -19.75 3.55 -13.7Q2.4 -15.55 0.15 -21.85L-0.2 -24.7L0.95 -30.95L1.4 -29.45L0.4 -25.15" />
<path style="fill:#373C11;fill-opacity:1" d="M0.15 -21.85Q2.4 -15.55 3.55 -13.7Q5 -8.9 6.85 -4.8Q8.65 -0.75 9.75 -0.2L4.2 -0.2Q4.05 -2.25 0.15 -21.85" />
<path style="fill:#404324;fill-opacity:1" d="M0.6 -8.55L-0.95 -16.4Q-0.95 -20.55 -0.2 -24.7L0.15 -21.85Q4.05 -2.25 4.2 -0.2L2.55 -0.2Q2.2 -1.25 0.6 -8.55" />
<path style="fill:#474D1A;fill-opacity:1" d="M0.4 -47.95L-0.05 -46.75L-1.8 -51.15L-0.2 -55.2L1.2 -52.9L0.4 -47.95" />
<path style="fill:#3A1F0A;fill-opacity:1" d="M-6.2 -177.85L-3.05 -168.25Q-0.6 -160.2 -0.7 -157.05L-0.6 -150.95L-0.55 -144.7Q-0.6 -140.6 -0.15 -138.35L0.35 -135.5Q0.35 -135.4 -1.3 -134.25Q-3 -133 -3.35 -132.9Q-3.25 -135.75 -3.7 -138.85Q-4.15 -142.1 -4.15 -145.6L-3.9 -156.85L-3.95 -158.95L-10.8 -163.3L-13.55 -169.45L-13.25 -170.4L-9.85 -164.7L-4.05 -162.45Q-4.3 -165.9 -4.9 -168.15L-6.55 -173.5Q-6.95 -174.75 -6.2 -177.85M-29.4 -157.9Q-29.2 -157.85 -28.8 -158.1L-28.1 -158.4L-25.8 -153.1Q-23.3 -148.15 -21 -146.1Q-19.2 -144.55 -14.45 -137.4Q-9.5 -129.9 -8.85 -130.6L-8 -126.1L-9.65 -128.7Q-10.9 -130.9 -11.75 -131.65L-15.45 -135.1Q-17.8 -137.25 -19.35 -139.15Q-23.5 -144.3 -26.25 -150.1L-29.4 -157.9" />
<path style="fill:#B4854D;fill-opacity:1" d="M-9.6 0.25L-11.45 0.25Q-9.25 -0.1 -8.85 -4.85Q-8.45 -8.95 -6.8 -14.9L-7.65 -7.15Q-8.25 -2.55 -9.6 0.25M-5.25 -70.1Q-5.1 -73.85 -5.4 -77.75L-4.15 -75.85Q-3.9 -75.45 -3.9 -74.3Q-3.9 -73.25 -5.25 -70.1M-5.7 -80.5L-5.8 -82.25L-5.35 -80.6L-3.1 -80.7Q-1.15 -81.9 -1.55 -84.25Q-1.95 -86.65 -2.85 -87.9Q-1.15 -86.25 -1 -83.7Q-0.85 -81.15 -1.5 -79.95Q-2.15 -78.75 -3.65 -78.75Q-4 -78.75 -4.9 -79.6L-5.7 -80.5M-4.1 -92.6Q-3.05 -89.1 -3.6 -88.85Q-4.35 -88.5 -5.85 -84.85L-6.1 -97.6Q-5.1 -95.95 -4.1 -92.6" />
<path style="fill:#856238;fill-opacity:1" d="M-7.65 -7.15L-6.8 -14.9L-5.3 -20.35Q-4.1 -24.75 -2.5 -35.65Q-3.35 -26.25 -3.75 -24.85L-5.3 -18.7L-4.55 -12.7Q-4.55 -9.4 -5.95 -4.25Q-6.7 -1.65 -7.4 0.25L-9.6 0.25Q-8.25 -2.55 -7.65 -7.15M-6.1 -97.6L-6.1 -101.55Q-4.45 -98.45 -2.35 -91.1Q-0.2 -83.35 -0.45 -80.7Q-0.65 -78.7 -2.65 -71.45L-4.55 -63.8Q-4 -52.65 -4.2 -50.6L-5.3 -55.45Q-6.35 -60.15 -6.15 -60.7Q-5.95 -61.6 -5.25 -70.1Q-3.9 -73.25 -3.9 -74.3Q-3.9 -75.45 -4.15 -75.85L-5.4 -77.75L-5.7 -80.5L-4.9 -79.6Q-4 -78.75 -3.65 -78.75Q-2.15 -78.75 -1.5 -79.95Q-0.85 -81.15 -1 -83.7Q-1.15 -86.25 -2.85 -87.9Q-1.95 -86.65 -1.55 -84.25Q-1.15 -81.9 -3.1 -80.7L-5.35 -80.6L-5.8 -82.25L-5.85 -84.85Q-4.35 -88.5 -3.6 -88.85Q-3.05 -89.1 -4.1 -92.6Q-5.1 -95.95 -6.1 -97.6M-3.35 -83Q-4.65 -82.75 -4.5 -85Q-4.3 -87.25 -2.95 -88L-2.85 -87.9L-2.95 -88Q-4.3 -87.25 -4.5 -85Q-4.65 -82.75 -3.35 -83" />
<path style="fill:none;stroke-width:0.7;stroke-linecap:round;stroke-linejoin:round;stroke-miterlimit:3;stroke:#000000;stroke-opacity:0.388235" d="M1.8 -99.2Q1.95 -105.4 2.8 -109.65Q0.1 -114.25 -4.55 -119.2L-8.6 -117.45" />
<path style="fill:none;stroke-width:0.7;stroke-linecap:round;stroke-linejoin:round;stroke-miterlimit:3;stroke:#000000;stroke-opacity:0.388235" d="M1.8 -99.2Q1.55 -89.05 3.05 -73.55L3.1 -71.95L1.8 -66.1Q2.15 -66.25 2.75 -63.45L3 -55.8Q2.95 -54.3 3.8 -52.1Q4.6 -50.1 4.75 -50.2Q5.95 -51.1 8.85 -54.9Q6.7 -50.55 5.7 -47.1L5.7 -44.65Q5.35 -40 4.9 -37.85L3.95 -34.45Q2.85 -31.15 2.95 -24.3Q2.95 -19.75 3.55 -13.7Q5 -8.9 6.85 -4.8Q8.65 -0.75 9.75 -0.2L4.2 -0.2L2.55 -0.2L1.2 -0.1L-7.4 0.25L-9.6 0.25L-11.45 0.25Q-9.25 -0.1 -8.85 -4.85Q-8.45 -8.95 -6.8 -14.9L-5.3 -20.35Q-4.1 -24.75 -2.5 -35.65Q-2.45 -36.9 -2.9 -41.75Q-3.4 -47.6 -4.2 -50.6L-5.3 -55.45Q-6.35 -60.15 -6.15 -60.7Q-5.95 -61.6 -5.25 -70.1Q-5.1 -73.85 -5.4 -77.75L-5.7 -80.5L-5.8 -82.25L-5.85 -84.85L-6.1 -97.6L-6.1 -101.55Q-7.4 -104.3 -9.05 -106.95L-14.05 -115.1L-8.6 -117.45" />
<path style="fill:none;stroke-width:0.7;stroke-linecap:round;stroke-linejoin:round;stroke-miterlimit:3;stroke:#000000;stroke-opacity:0.211765" d="M0.9 -78.75L0.7 -76.35L0.75 -74.55" />
<path style="fill:none;stroke-width:0.7;stroke-linecap:round;stroke-linejoin:round;stroke-miterlimit:3;stroke:#000000;stroke-opacity:0.211765" d="M1.1 -58.5L1.4 -55.55" />
<path style="fill:none;stroke-width:0.7;stroke-linecap:round;stroke-linejoin:round;stroke-miterlimit:3;stroke:#000000;stroke-opacity:0.211765" d="M0.6 -62.05L1.1 -58.5" />
<path style="fill:none;stroke-width:0.7;stroke-linecap:round;stroke-linejoin:round;stroke-miterlimit:3;stroke:#000000;stroke-opacity:0.211765" d="M1.4 -29.45L2 -32.55L2.45 -38.2" />
<path style="fill:none;stroke-width:0.7;stroke-linecap:round;stroke-linejoin:round;stroke-miterlimit:3;stroke:#000000;stroke-opacity:0.211765" d="M0.9 -72.45L0.75 -74.55" />
<path style="fill:none;stroke-width:0.7;stroke-linecap:round;stroke-linejoin:round;stroke-miterlimit:3;stroke:#000000;stroke-opacity:0.211765" d="M1.4 -29.45L0.4 -25.15" />
<path style="fill:none;stroke-width:0.7;stroke-linecap:round;stroke-linejoin:round;stroke-miterlimit:3;stroke:#000000;stroke-opacity:0.388235" d="M-6.55 -173.5L-4.9 -168.15Q-4.3 -165.9 -4.05 -162.45L-9.85 -164.7L-13.25 -170.4L-13.55 -169.45L-10.8 -163.3L-3.95 -158.95L-3.9 -156.85L-4.15 -145.6Q-4.15 -142.1 -3.7 -138.85Q-3.25 -135.75 -3.35 -132.9Q-3 -133 -1.3 -134.25Q0.35 -135.4 0.35 -135.5L-0.15 -138.35Q-0.6 -140.6 -0.55 -144.7L-0.6 -150.95L-0.7 -157.05Q-0.6 -160.2 -3.05 -168.25L-6.2 -177.85Q-6.95 -174.75 -6.55 -173.5z" />
<path style="fill:none;stroke-width:0.7;stroke-linecap:round;stroke-linejoin:round;stroke-miterlimit:3;stroke:#000000;stroke-opacity:0.388235" d="M-26.25 -150.1Q-23.5 -144.3 -19.35 -139.15Q-17.8 -137.25 -15.45 -135.1L-11.75 -131.65Q-10.9 -130.9 -9.65 -128.7L-8 -126.1L-8.85 -130.6Q-9.5 -129.9 -14.45 -137.4Q-19.2 -144.55 -21 -146.1Q-23.3 -148.15 -25.8 -153.1L-28.1 -158.4L-28.8 -158.1Q-29.2 -157.85 -29.4 -157.9L-26.25 -150.1z" />
<path style="fill:none;stroke-width:0.7;stroke-linecap:round;stroke-linejoin:round;stroke-miterlimit:3;stroke:#000000;stroke-opacity:0.211765" d="M-2.85 -87.9L-2.95 -88Q-4.3 -87.25 -4.5 -85Q-4.65 -82.75 -3.35 -83" />
<path style="fill:none;stroke-width:0.7;stroke-linecap:round;stroke-linejoin:round;stroke-miterlimit:3;stroke:#000000;stroke-opacity:0.211765" d="M-2.85 -87.9Q-1.15 -86.25 -1 -83.7Q-0.85 -81.15 -1.5 -79.95Q-2.15 -78.75 -3.65 -78.75Q-4 -78.75 -4.9 -79.6L-5.7 -80.5" />
<path style="fill:none;stroke-width:0.7;stroke-linecap:round;stroke-linejoin:round;stroke-miterlimit:3;stroke:#000000;stroke-opacity:0.211765" d="M-1.6 -7.4Q-1.7 -6.25 -1.05 -4.05L-0.2 -1.5" />
<path style="fill:none;stroke-width:0.7;stroke-linecap:round;stroke-linejoin:round;stroke-miterlimit:3;stroke:#000000;stroke-opacity:0.388235" d="M-2.5 -35.65Q-3.4 -21.85 -3.75 -19.9" />
</g>
</svg>
