<?xml version="1.0" encoding="utf-8"?>
<svg version="1.1" id="Layer_1"
xmlns="http://www.w3.org/2000/svg"
xmlns:xlink="http://www.w3.org/1999/xlink"
width="126px" height="43px"
xml:space="preserve">
<g id="PathID_1486" transform="matrix(1, 0, 0, 1, 60.25, 69.2)">
<path style="fill:#2B5607;fill-opacity:1" d="M37.45 -58.7L40 -54.55L33.05 -59.3L31.6 -54.25Q30.45 -58.25 27.2 -61.95L29.9 -54.3Q24.4 -56.3 20.65 -59.65L23.25 -52.35Q13.75 -54.55 7.95 -63.8Q8.15 -55.4 4.95 -52.2Q-0.15 -55.35 -1.7 -62.35Q-3.95 -57.4 -7.3 -53.7L-8.85 -60.3Q-14.75 -56.65 -21.7 -54.65L-19.6 -58.2L-23.4 -56.5Q-28.4 -54.5 -35.05 -53.1Q-36.55 -56.9 -36.35 -61.1L-34.25 -65.1L-33 -66.05L-31.5 -67.3L-31.8 -65.55L-32.15 -61.7Q-32.2 -58.75 -31.65 -55.85Q-22.65 -58.05 -14.6 -63.6L-17.95 -57.7Q-12.85 -59.2 -8.1 -63.55L-7.2 -64.45L-7.25 -59.55L-7.3 -56.45Q-4.7 -59.9 -2.6 -63.8L-1.5 -66L-0.9 -63.9Q0.8 -58.75 4.65 -54.45Q6 -57.05 6.55 -60.15L6.85 -64.45L6.6 -67.8Q7.6 -66.15 8.9 -64.55Q13.45 -58.95 21.8 -53.95Q19.65 -58.5 17.95 -64Q22.7 -59.6 28.45 -55.95Q25.35 -61.1 24.15 -67.15L24.05 -67.75L24.6 -67.3Q30.3 -62.15 31.6 -57.7L30.25 -66.45Q32.75 -64 35.65 -61.85L37.45 -58.7" />
<path style="fill:#326209;fill-opacity:1" d="M41.4 -52.5L33.8 -57.6Q32.85 -53.9 31.85 -52.3Q25.95 -53.85 23 -56.4L25.3 -50.8Q16.25 -51.25 9.4 -58.5Q8.75 -52.9 5.25 -49.95Q-0.65 -51.95 -1.75 -58.75Q-4.6 -54.25 -8.95 -50.3Q-8.65 -54.05 -10 -57.55Q-17.05 -52.95 -25.1 -52.2L-22.85 -55.6Q-28.95 -51.6 -36.65 -50.15Q-38.75 -53.65 -38.35 -57.5L-37.4 -59.2Q-41.85 -56.3 -46.95 -56.15Q-44.05 -58.35 -41.2 -63.1L-36.35 -66.5L-41.4 -60.45Q-37.5 -62.65 -34.25 -65.1L-36.35 -61.1Q-36.55 -56.9 -35.05 -53.1Q-28.4 -54.5 -23.4 -56.5L-19.6 -58.2L-21.7 -54.65Q-14.75 -56.65 -8.85 -60.3L-7.3 -53.7Q-3.95 -57.4 -1.7 -62.35Q-0.15 -55.35 4.95 -52.2Q8.15 -55.4 7.95 -63.8Q13.75 -54.55 23.25 -52.35L20.65 -59.65Q24.4 -56.3 29.9 -54.3L27.2 -61.95Q30.45 -58.25 31.6 -54.25L33.05 -59.3L40 -54.55L41.4 -52.5M37.45 -58.7L35.65 -61.85Q37.2 -60.65 38.9 -59.55L38.3 -62.2L39.8 -61.35Q37.3 -65.6 35.3 -69.2L37.6 -68Q41.3 -62.5 48.5 -59.4Q42.85 -59.9 39.8 -61.35L38.3 -62.2L45.45 -54.85Q40.2 -56.15 37.45 -58.7M-37.4 -59.2L-36.35 -61.1L-37.4 -59.2" />
<linearGradient
id="LinearGradID_752" gradientUnits="userSpaceOnUse" gradientTransform="matrix(-0.00376892, 0.0276642, -0.0196381, -0.00268555, 1.5, -47.25)" spreadMethod ="pad" x1="-819.2" y1="0" x2="819.2" y2="0" >
<stop  offset="0" style="stop-color:#3E6400;stop-opacity:1" />
<stop  offset="1" style="stop-color:#5D9F07;stop-opacity:1" />
</linearGradient>
<path style="fill:url(#LinearGradID_752) " d="M-38.35 -57.5Q-38.75 -53.65 -36.65 -50.15Q-28.95 -51.6 -22.85 -55.6L-25.1 -52.2Q-17.05 -52.95 -10 -57.55Q-8.65 -54.05 -8.95 -50.3Q-4.6 -54.25 -1.75 -58.75Q-0.65 -51.95 5.25 -49.95Q8.75 -52.9 9.4 -58.5Q16.25 -51.25 25.3 -50.8L23 -56.4Q25.95 -53.85 31.85 -52.3Q32.85 -53.9 33.8 -57.6L41.4 -52.5Q49.4 -41.1 65.05 -33L53.95 -33.7Q50.6 -35.6 47.5 -37.65Q42.15 -41.25 37.65 -45.45L53.25 -31.95Q51.15 -32.9 49.2 -33.95Q45.15 -36.15 41.65 -38.75L38.2 -41.6L44.2 -30.6Q40.1 -35.85 34.2 -39.7Q34.05 -32.55 29.5 -27.35Q24.5 -31.8 20.8 -37.25L18.4 -41.1Q19.45 -31.65 16.65 -27.1Q16.05 -31.55 13.9 -35.55L11.35 -39.5L7.2 -27.2Q10.05 -32.15 9.75 -37.6L9.35 -40.75L6.65 -31.3Q6.3 -35.3 3.15 -38.95L2.4 -41.85Q4.2 -34 4 -29.35Q2.25 -35.2 -1.9 -38.65L-0.8 -41.5Q-3.75 -33.1 -2.45 -28.95Q-7.85 -32.9 -9.6 -37.35L-8 -39.35Q-13.15 -33.15 -18.55 -29.45L-15.55 -36.3L-11.2 -39.6Q-22.5 -31.65 -31.55 -28.7Q-29.45 -33.25 -28.75 -38.8L-27.3 -40.25Q-34.4 -33.5 -41.1 -29.85L-33.1 -42.65Q-31.9 -43.7 -30.75 -44.85Q-37.3 -38.9 -42 -35.8L-48.95 -31.8L-45.3 -36.6L-43.85 -37.65L-47.75 -35Q-51.85 -32.6 -60.1 -32.15Q-46.55 -41.75 -38.35 -57.5M29.9 -42.2L34.2 -39.7L29.9 -42.2M2.4 -41.85L3.15 -38.95M9.35 -40.75L9.75 -37.6M11.35 -39.5L13.9 -35.55M18.4 -41.1L20.8 -37.25M38.2 -41.6L41.65 -38.75M37.65 -45.45Q42.15 -41.25 47.5 -37.65M-43.85 -37.65L-45.3 -36.6M-0.8 -41.5L-1.9 -38.65M-8 -39.35L-9.6 -37.35M-11.2 -39.6L-15.55 -36.3M-27.3 -40.25L-28.75 -38.8M-30.75 -44.85Q-31.9 -43.7 -33.1 -42.65" />
<path style="fill:none;stroke-width:0.7;stroke-linecap:round;stroke-linejoin:round;stroke-miterlimit:3;stroke:#000000;stroke-opacity:0.301961" d="M-7.25 -59.55L-7.2 -64.45" />
<path style="fill:none;stroke-width:0.7;stroke-linecap:round;stroke-linejoin:round;stroke-miterlimit:3;stroke:#000000;stroke-opacity:0.301961" d="M-34.25 -65.1L-36.35 -61.1" />
<path style="fill:none;stroke-width:0.7;stroke-linecap:round;stroke-linejoin:round;stroke-miterlimit:3;stroke:#000000;stroke-opacity:0.301961" d="M40 -54.55L37.45 -58.7L35.65 -61.85" />
<path style="fill:none;stroke-width:0.7;stroke-linecap:round;stroke-linejoin:round;stroke-miterlimit:3;stroke:#000000;stroke-opacity:0.301961" d="M37.6 -68Q41.3 -62.5 48.5 -59.4Q42.85 -59.9 39.8 -61.35L45.45 -54.85Q40.2 -56.15 37.45 -58.7" />
<path style="fill:none;stroke-width:0.7;stroke-linecap:round;stroke-linejoin:round;stroke-miterlimit:3;stroke:#000000;stroke-opacity:0.301961" d="M41.4 -52.5L40 -54.55" />
<path style="fill:none;stroke-width:0.7;stroke-linecap:round;stroke-linejoin:round;stroke-miterlimit:3;stroke:#000000;stroke-opacity:0.301961" d="M38.3 -62.2L39.8 -61.35" />
<path style="fill:none;stroke-width:0.7;stroke-linecap:round;stroke-linejoin:round;stroke-miterlimit:3;stroke:#000000;stroke-opacity:0.301961" d="M34.2 -39.7L29.9 -42.2" />
<path style="fill:none;stroke-width:0.7;stroke-linecap:round;stroke-linejoin:round;stroke-miterlimit:3;stroke:#000000;stroke-opacity:0.301961" d="M41.4 -52.5Q49.4 -41.1 65.05 -33L53.95 -33.7Q50.6 -35.6 47.5 -37.65L53.25 -31.95Q51.15 -32.9 49.2 -33.95Q45.15 -36.15 41.65 -38.75L44.2 -30.6Q40.1 -35.85 34.2 -39.7Q34.05 -32.55 29.5 -27.35Q24.5 -31.8 20.8 -37.25Q19.45 -31.65 16.65 -27.1Q16.05 -31.55 13.9 -35.55L7.2 -27.2Q10.05 -32.15 9.75 -37.6L6.65 -31.3Q6.3 -35.3 3.15 -38.95Q4.2 -34 4 -29.35Q2.25 -35.2 -1.9 -38.65Q-3.75 -33.1 -2.45 -28.95Q-7.85 -32.9 -9.6 -37.35Q-13.15 -33.15 -18.55 -29.45L-15.55 -36.3Q-22.5 -31.65 -31.55 -28.7Q-29.45 -33.25 -28.75 -38.8Q-34.4 -33.5 -41.1 -29.85L-33.1 -42.65Q-37.3 -38.9 -42 -35.8L-48.95 -31.8L-45.3 -36.6L-47.75 -35Q-51.85 -32.6 -60.1 -32.15Q-46.55 -41.75 -38.35 -57.5L-37.4 -59.2Q-41.85 -56.3 -46.95 -56.15Q-44.05 -58.35 -41.2 -63.1" />
<path style="fill:none;stroke-width:0.7;stroke-linecap:round;stroke-linejoin:round;stroke-miterlimit:3;stroke:#000000;stroke-opacity:0.301961" d="M3.15 -38.95L2.4 -41.85" />
<path style="fill:none;stroke-width:0.7;stroke-linecap:round;stroke-linejoin:round;stroke-miterlimit:3;stroke:#000000;stroke-opacity:0.301961" d="M9.75 -37.6L9.35 -40.75" />
<path style="fill:none;stroke-width:0.7;stroke-linecap:round;stroke-linejoin:round;stroke-miterlimit:3;stroke:#000000;stroke-opacity:0.301961" d="M13.9 -35.55L11.35 -39.5" />
<path style="fill:none;stroke-width:0.7;stroke-linecap:round;stroke-linejoin:round;stroke-miterlimit:3;stroke:#000000;stroke-opacity:0.301961" d="M20.8 -37.25L18.4 -41.1" />
<path style="fill:none;stroke-width:0.7;stroke-linecap:round;stroke-linejoin:round;stroke-miterlimit:3;stroke:#000000;stroke-opacity:0.301961" d="M41.65 -38.75L38.2 -41.6" />
<path style="fill:none;stroke-width:0.7;stroke-linecap:round;stroke-linejoin:round;stroke-miterlimit:3;stroke:#000000;stroke-opacity:0.301961" d="M37.65 -45.45Q42.15 -41.25 47.5 -37.65" />
<path style="fill:none;stroke-width:0.7;stroke-linecap:round;stroke-linejoin:round;stroke-miterlimit:3;stroke:#000000;stroke-opacity:0.301961" d="M-36.35 -61.1L-37.4 -59.2" />
<path style="fill:none;stroke-width:0.7;stroke-linecap:round;stroke-linejoin:round;stroke-miterlimit:3;stroke:#000000;stroke-opacity:0.301961" d="M-45.3 -36.6L-43.85 -37.65" />
<path style="fill:none;stroke-width:0.7;stroke-linecap:round;stroke-linejoin:round;stroke-miterlimit:3;stroke:#000000;stroke-opacity:0.301961" d="M-1.9 -38.65L-0.8 -41.5" />
<path style="fill:none;stroke-width:0.7;stroke-linecap:round;stroke-linejoin:round;stroke-miterlimit:3;stroke:#000000;stroke-opacity:0.301961" d="M-9.6 -37.35L-8 -39.35" />
<path style="fill:none;stroke-width:0.7;stroke-linecap:round;stroke-linejoin:round;stroke-miterlimit:3;stroke:#000000;stroke-opacity:0.301961" d="M-15.55 -36.3L-11.2 -39.6" />
<path style="fill:none;stroke-width:0.7;stroke-linecap:round;stroke-linejoin:round;stroke-miterlimit:3;stroke:#000000;stroke-opacity:0.301961" d="M-28.75 -38.8L-27.3 -40.25" />
<path style="fill:none;stroke-width:0.7;stroke-linecap:round;stroke-linejoin:round;stroke-miterlimit:3;stroke:#000000;stroke-opacity:0.301961" d="M-33.1 -42.65Q-31.9 -43.7 -30.75 -44.85" />
</g>
</svg>
