<?xml version="1.0" encoding="utf-8"?>
<svg version="1.1" id="Layer_1"
xmlns="http://www.w3.org/2000/svg"
xmlns:xlink="http://www.w3.org/1999/xlink"
width="77px" height="131px"
xml:space="preserve">
<g id="PathID_2463" transform="matrix(1, 0, 0, 1, 21.5, 130.65)">
<linearGradient
id="LinearGradID_1331" gradientUnits="userSpaceOnUse" gradientTransform="matrix(0.0200653, -0.0605469, 0.0476532, 0.0157318, 32.95, -74.85)" spreadMethod ="pad" x1="-819.2" y1="0" x2="819.2" y2="0" >
<stop  offset="0" style="stop-color:#878787;stop-opacity:0.6" />
<stop  offset="1" style="stop-color:#FFFFFF;stop-opacity:0" />
</linearGradient>
<path style="fill:url(#LinearGradID_1331) " d="M36.95 -130.35Q38.7 -131.6 46.95 -127.55Q50.8 -125.8 52.4 -124.3Q55.1 -122.05 54.95 -120.55L54.7 -113.4Q54.7 -105.5 53.95 -101.6Q52.8 -96.25 49.2 -90.55Q46.55 -86.4 41.8 -80.85L35.85 -74.05Q31.3 -69.75 -10.15 -49.45Q-8.25 -50.8 -5.4 -56.3L-0.8 -65.4Q4.8 -75.75 18.95 -87.85Q33.05 -99.95 35.05 -123.55L34.95 -123.55L33.45 -123.95Q26.6 -124.3 27.8 -125.55Q29.55 -127.05 32.4 -128.2L35.1 -129.3L36.95 -130.35" />
</g>
<g id="PathID_2464" transform="matrix(1, 0, 0, 1, 21.5, 130.65)">
<path style="fill:#F7B060;fill-opacity:1" d="M12.25 -33.65L12.25 -28.75L15.95 -28.75L15.95 -27.2L8.6 -27.2L8.6 -21.45L15.95 -21.5L15.95 -20L4.2 -20L4.2 -14.3L15.95 -14.3L15.95 -12.85L10.35 -12.85L10.35 -7.05L15.95 -7.05L15.95 -5.65L6.05 -5.65L6.05 -0.2L5.1 -0.2L5.1 -5.65L-4.65 -5.65L-4.65 -0.2L-5.85 -0.2L-5.85 -5.65L-15.9 -5.65L-15.9 -7.05L-4.45 -7.05L-4.45 -12.85L-15.9 -12.85L-15.9 -14.3L-9.4 -14.3L-9.4 -20L-15.9 -20L-15.9 -21.4L-6 -21.4L-6 -27.2L-15.9 -27.2L-15.9 -28.75L-3.45 -28.75L-3.45 -33.65L-15.9 -33.65L-15.9 -35.5L15.95 -35.55L15.95 -33.65L12.25 -33.65M11.3 -33.65L-2.5 -33.65L-2.5 -28.75L11.3 -28.75L11.3 -33.65M3.3 -20L-8.3 -20L-8.3 -14.3L3.3 -14.3L3.3 -20M9.25 -12.85L-3.35 -12.85L-3.35 -7.05L9.25 -7.05L9.25 -12.85M7.45 -27.2L-4.9 -27.2L-4.9 -21.4L7.45 -21.45L7.45 -27.2" />
<path style="fill:#9E3215;fill-opacity:1" d="M-15.9 -33.65L-3.45 -33.65L-3.45 -28.75L-15.9 -28.75L-15.9 -33.65M-15.9 -20L-9.4 -20L-9.4 -14.3L-15.9 -14.3L-15.9 -20M-15.9 -12.85L-4.45 -12.85L-4.45 -7.05L-15.9 -7.05L-15.9 -12.85M-15.9 -5.65L-5.85 -5.65L-5.85 -0.2L-15.9 -0.2L-15.9 -5.65M15.95 -21.5L8.6 -21.45L8.6 -27.2L15.95 -27.2L15.95 -21.5M15.95 -28.75L12.25 -28.75L12.25 -33.65L15.95 -33.65L15.95 -28.75M9.25 -7.05L-3.35 -7.05L-3.35 -12.85L9.25 -12.85L9.25 -7.05" />
<path style="fill:#E0471E;fill-opacity:1" d="M-15.9 -27.2L-6 -27.2L-6 -21.4L-15.9 -21.4L-15.9 -27.2M15.95 -14.3L4.2 -14.3L4.2 -20L15.95 -20L15.95 -14.3M11.3 -28.75L-2.5 -28.75L-2.5 -33.65L11.3 -33.65L11.3 -28.75M3.3 -14.3L-8.3 -14.3L-8.3 -20L3.3 -20L3.3 -14.3M7.45 -21.45L-4.9 -21.4L-4.9 -27.2L7.45 -27.2L7.45 -21.45" />
<path style="fill:#D3461B;fill-opacity:1" d="M-4.65 -0.2L-4.65 -5.65L5.1 -5.65L5.1 -0.2L-4.65 -0.2M15.95 -7.05L10.35 -7.05L10.35 -12.85L15.95 -12.85L15.95 -7.05" />
<path style="fill:#9E3315;fill-opacity:1" d="M6.05 -0.2L6.05 -5.65L15.95 -5.65L15.95 -0.2L6.05 -0.2" />
<path style="fill:none;stroke-width:0.7;stroke-linecap:round;stroke-linejoin:round;stroke-miterlimit:3;stroke:#000000;stroke-opacity:0.301961" d="M15.95 -33.65L15.95 -35.55L-15.9 -35.5L-15.9 -33.65" />
<path style="fill:none;stroke-width:0.7;stroke-linecap:round;stroke-linejoin:round;stroke-miterlimit:3;stroke:#000000;stroke-opacity:0.301961" d="M-15.9 -28.75L-15.9 -27.2" />
<path style="fill:none;stroke-width:0.7;stroke-linecap:round;stroke-linejoin:round;stroke-miterlimit:3;stroke:#000000;stroke-opacity:0.301961" d="M-15.9 -21.4L-15.9 -20" />
<path style="fill:none;stroke-width:0.7;stroke-linecap:round;stroke-linejoin:round;stroke-miterlimit:3;stroke:#000000;stroke-opacity:0.301961" d="M-15.9 -14.3L-15.9 -12.85" />
<path style="fill:none;stroke-width:0.7;stroke-linecap:round;stroke-linejoin:round;stroke-miterlimit:3;stroke:#000000;stroke-opacity:0.301961" d="M-15.9 -7.05L-15.9 -5.65" />
<path style="fill:none;stroke-width:0.7;stroke-linecap:round;stroke-linejoin:round;stroke-miterlimit:3;stroke:#000000;stroke-opacity:0.301961" d="M-5.85 -0.2L-4.65 -0.2" />
<path style="fill:none;stroke-width:0.7;stroke-linecap:round;stroke-linejoin:round;stroke-miterlimit:3;stroke:#000000;stroke-opacity:0.301961" d="M5.1 -0.2L6.05 -0.2" />
<path style="fill:none;stroke-width:0.7;stroke-linecap:round;stroke-linejoin:round;stroke-miterlimit:3;stroke:#000000;stroke-opacity:0.301961" d="M15.95 -5.65L15.95 -7.05" />
<path style="fill:none;stroke-width:0.7;stroke-linecap:round;stroke-linejoin:round;stroke-miterlimit:3;stroke:#000000;stroke-opacity:0.301961" d="M15.95 -12.85L15.95 -14.3" />
<path style="fill:none;stroke-width:0.7;stroke-linecap:round;stroke-linejoin:round;stroke-miterlimit:3;stroke:#000000;stroke-opacity:0.301961" d="M15.95 -20L15.95 -21.5" />
<path style="fill:none;stroke-width:0.7;stroke-linecap:round;stroke-linejoin:round;stroke-miterlimit:3;stroke:#000000;stroke-opacity:0.301961" d="M15.95 -27.2L15.95 -28.75" />
<path style="fill:none;stroke-width:0.7;stroke-linecap:round;stroke-linejoin:round;stroke-miterlimit:3;stroke:#000000;stroke-opacity:0.301961" d="M15.95 -33.65L15.95 -28.75" />
<path style="fill:none;stroke-width:0.7;stroke-linecap:round;stroke-linejoin:round;stroke-miterlimit:3;stroke:#000000;stroke-opacity:0.301961" d="M15.95 -20L15.95 -14.3" />
<path style="fill:none;stroke-width:0.7;stroke-linecap:round;stroke-linejoin:round;stroke-miterlimit:3;stroke:#000000;stroke-opacity:0.301961" d="M15.95 -5.65L15.95 -0.2L6.05 -0.2" />
<path style="fill:none;stroke-width:0.7;stroke-linecap:round;stroke-linejoin:round;stroke-miterlimit:3;stroke:#000000;stroke-opacity:0.301961" d="M15.95 -12.85L15.95 -7.05" />
<path style="fill:none;stroke-width:0.7;stroke-linecap:round;stroke-linejoin:round;stroke-miterlimit:3;stroke:#000000;stroke-opacity:0.301961" d="M15.95 -27.2L15.95 -21.5" />
<path style="fill:none;stroke-width:0.7;stroke-linecap:round;stroke-linejoin:round;stroke-miterlimit:3;stroke:#000000;stroke-opacity:0.301961" d="M-15.9 -28.75L-15.9 -33.65" />
<path style="fill:none;stroke-width:0.7;stroke-linecap:round;stroke-linejoin:round;stroke-miterlimit:3;stroke:#000000;stroke-opacity:0.301961" d="M-15.9 -14.3L-15.9 -20" />
<path style="fill:none;stroke-width:0.7;stroke-linecap:round;stroke-linejoin:round;stroke-miterlimit:3;stroke:#000000;stroke-opacity:0.301961" d="M-5.85 -0.2L-15.9 -0.2L-15.9 -5.65" />
<path style="fill:none;stroke-width:0.7;stroke-linecap:round;stroke-linejoin:round;stroke-miterlimit:3;stroke:#000000;stroke-opacity:0.301961" d="M-15.9 -7.05L-15.9 -12.85" />
<path style="fill:none;stroke-width:0.7;stroke-linecap:round;stroke-linejoin:round;stroke-miterlimit:3;stroke:#000000;stroke-opacity:0.301961" d="M-15.9 -21.4L-15.9 -27.2" />
<path style="fill:none;stroke-width:0.7;stroke-linecap:round;stroke-linejoin:round;stroke-miterlimit:3;stroke:#000000;stroke-opacity:0.301961" d="M5.1 -0.2L-4.65 -0.2" />
</g>
<g id="PathID_2465" transform="matrix(1, 0, 0, 1, 21.5, 130.65)">
<path style="fill:#000000;fill-opacity:0.298039" d="M15.8 -3.65L-15.9 -28.05L-15.9 -35.55L16 -35.55L15.8 -3.65" />
</g>
<g id="PathID_2466" transform="matrix(1, 0, 0, 1, 21.5, 130.65)">
<path style="fill:#F7B060;fill-opacity:1" d="M-12.8 -35.55L-12.8 -39L-11.9 -39L-11.9 -35.55L3.4 -35.55L3.4 -39L4.6 -39L4.6 -35.55L19.95 -35.55L19.95 -34.15L9.6 -34.15L9.6 -30.65L8.8 -30.65L8.8 -34.15L-9.3 -34.15L-9.3 -30.65L-10.15 -30.65L-10.15 -34.15L-20.4 -34.15L-20.4 -35.55L-12.8 -35.55" />
<path style="fill:#9E3215;fill-opacity:1" d="M19.95 -34.15L19.95 -33.35Q19.95 -30.65 17.7 -30.65L9.6 -30.65L9.6 -34.15L19.95 -34.15M-11.9 -39L3.4 -39L3.4 -35.55L-11.9 -35.55L-11.9 -39" />
<path style="fill:#DD4921;fill-opacity:1" d="M4.6 -39L17.7 -39Q19.95 -39 19.95 -36.3L19.95 -35.55L4.6 -35.55L4.6 -39M8.8 -30.65L-9.3 -30.65L-9.3 -34.15L8.8 -34.15L8.8 -30.65M-10.15 -30.65L-18.1 -30.65Q-20.4 -30.65 -20.4 -33.35L-20.4 -34.15L-10.15 -34.15L-10.15 -30.65M-20.4 -35.55L-20.4 -36.3Q-20.4 -39 -18.1 -39L-12.8 -39L-12.8 -35.55L-20.4 -35.55" />
<path style="fill:none;stroke-width:0.7;stroke-linecap:round;stroke-linejoin:round;stroke-miterlimit:3;stroke:#000000;stroke-opacity:0.301961" d="M3.4 -39L4.6 -39L17.7 -39Q19.95 -39 19.95 -36.3L19.95 -35.55L19.95 -34.15L19.95 -33.35Q19.95 -30.65 17.7 -30.65L9.6 -30.65L8.8 -30.65L-9.3 -30.65L-10.15 -30.65L-18.1 -30.65Q-20.4 -30.65 -20.4 -33.35L-20.4 -34.15L-20.4 -35.55L-20.4 -36.3Q-20.4 -39 -18.1 -39L-12.8 -39L-11.9 -39L3.4 -39z" />
</g>
<g id="PathID_2467" transform="matrix(1, 0, 0, 1, 21.5, 130.65)">
<path style="fill:#BBD1D7;fill-opacity:1" d="M-17.25 -38.4L-17.15 -38.4Q-14.85 -38 -13.7 -39.05Q-7.45 -37.75 -1.65 -39.7Q-0.1 -38.25 2.95 -39.7Q10 -38 16.95 -39.6L17.85 -39.25L18.3 -39.05Q22.85 -36.95 9.6 -36.8Q6.3 -35.7 2.85 -37.5L2 -37.95L1.6 -38.2Q-0.65 -37.2 -2.4 -38.2L-3.15 -37.4Q-5.15 -35.35 -13.15 -36.85Q-13.8 -36.1 -14.9 -35.8L-17.35 -35.75Q-21.8 -37.55 -21 -41.5Q-20.05 -39.15 -17.25 -38.4" />
<path style="fill:#FFFFFF;fill-opacity:1" d="M16.95 -39.6Q10 -38 2.95 -39.7Q-0.1 -38.25 -1.65 -39.7Q-7.45 -37.75 -13.7 -39.05Q-14.85 -38 -17.15 -38.4L-17.25 -38.4Q-20.05 -39.15 -21 -41.5L-21 -41.65L-20.65 -42.9Q-20.35 -43.8 -19.55 -44.1Q-18.8 -44.45 -17.5 -44.1Q-15.35 -45.8 -12.15 -45.2L-12.25 -45.25Q-9.05 -47.9 -3.15 -44.75Q0.3 -45.05 3.5 -41.75Q6.25 -42.45 9.3 -41.7L9.4 -41.65L16.95 -39.6" />
<path style="fill:none;stroke-width:0.7;stroke-linecap:round;stroke-linejoin:round;stroke-miterlimit:3;stroke:#000000;stroke-opacity:0.301961" d="M-21 -41.5Q-21.8 -37.55 -17.35 -35.75L-14.9 -35.8Q-13.8 -36.1 -13.15 -36.85Q-5.15 -35.35 -3.15 -37.4L-2.4 -38.2Q-0.65 -37.2 1.6 -38.2L2 -37.95L2.85 -37.5Q6.3 -35.7 9.6 -36.8Q22.85 -36.95 18.3 -39.05L17.85 -39.25L16.95 -39.6" />
<path style="fill:none;stroke-width:0.7;stroke-linecap:round;stroke-linejoin:round;stroke-miterlimit:3;stroke:#000000;stroke-opacity:0.301961" d="M-21 -41.5L-21 -41.65L-20.65 -42.9Q-20.35 -43.8 -19.55 -44.1Q-18.8 -44.45 -17.5 -44.1Q-15.35 -45.8 -12.15 -45.2L-12.25 -45.25Q-9.05 -47.9 -3.15 -44.75Q0.3 -45.05 3.5 -41.75Q6.25 -42.45 9.3 -41.7L9.4 -41.65L16.95 -39.6" />
</g>
<g id="PathID_2468" transform="matrix(1, 0, 0, 1, 21.5, 130.65)">
</g>
<g id="PathID_2469" transform="matrix(1, 0, 0, 1, 21.5, 130.65)">
<path style="fill:#FFFFFF;fill-opacity:1" d="M14.95 -40.85Q15.4 -40.3 14.6 -39.95Q13.8 -39.6 13.65 -40.2Q13.55 -40.85 14 -41.15Q14.5 -41.4 14.95 -40.85M11.65 -40.85Q11.35 -41.3 11.75 -41.65Q12.15 -42 12.55 -41.45Q12.9 -40.95 12.45 -40.7Q11.95 -40.45 11.65 -40.85M10.15 -41.55Q9.7 -41.3 9.55 -41.7Q9.35 -42.05 9.65 -42.3L10.3 -42.2Q10.6 -41.8 10.15 -41.55M17.95 -38.35Q17.65 -38.95 18.1 -39.4Q18.6 -39.85 19.2 -39.2Q19.75 -38.55 19 -38.15Q18.25 -37.75 17.95 -38.35M15.85 -38.95Q15.4 -39.7 16.15 -40.1Q16.9 -40.55 17.35 -39.95Q17.8 -39.35 17.05 -38.8Q16.3 -38.25 15.85 -38.95M1.2 -43.6Q0.5 -43.25 0.25 -43.75Q0 -44.25 0.45 -44.65Q0.85 -45.05 1.35 -44.5Q1.85 -43.95 1.2 -43.6M3.35 -43.75Q4 -42.9 3.2 -42.5Q2.4 -42.15 1.95 -42.8Q1.5 -43.5 2.1 -44.05Q2.75 -44.6 3.35 -43.75M5 -43.3Q5.55 -43.6 6.05 -42.95Q6.55 -42.35 5.65 -41.9Q4.75 -41.5 4.6 -42.25Q4.4 -42.95 5 -43.3M6.9 -41.8Q6.55 -42.3 7.1 -42.65Q7.65 -43 8 -42.5Q8.4 -42.05 7.8 -41.65Q7.25 -41.25 6.9 -41.8M-1.55 -44.7Q-2 -45.35 -1.3 -45.8Q-0.6 -46.2 -0.15 -45.6Q0.3 -45.05 -0.4 -44.55Q-1.1 -44 -1.55 -44.7M-3.9 -45.3L-3.65 -45.95L-3 -45.75Q-2.75 -45.35 -3.25 -45.1Q-3.8 -44.85 -3.9 -45.3M-4.8 -45.35Q-5.35 -45.1 -5.65 -45.55Q-5.95 -46 -5.5 -46.35Q-5.1 -46.75 -4.7 -46.15Q-4.3 -45.6 -4.8 -45.35M-9.6 -46.7Q-10.15 -46.3 -10.5 -46.85Q-10.85 -47.35 -10.3 -47.7Q-9.75 -48.05 -9.4 -47.55Q-9 -47.1 -9.6 -46.7M-7 -46.15Q-7.8 -45.75 -8.1 -46.35Q-8.4 -47 -7.9 -47.45Q-7.4 -47.95 -6.8 -47.25Q-6.15 -46.6 -7 -46.15M-12.25 -45.15Q-12.45 -45.85 -11.85 -46.2Q-11.3 -46.5 -10.8 -45.85Q-10.3 -45.25 -11.2 -44.8Q-12.1 -44.4 -12.25 -45.15M-14.25 -46.05Q-13.85 -45.5 -14.35 -45.25Q-14.9 -45 -15.2 -45.45Q-15.5 -45.9 -15.05 -46.25Q-14.65 -46.65 -14.25 -46.05M-16.95 -45Q-17.2 -45.5 -16.75 -45.9Q-16.35 -46.3 -15.85 -45.75Q-15.35 -45.2 -16 -44.85Q-16.7 -44.5 -16.95 -45M-18.1 -44.35Q-18.55 -44 -18.85 -44.45Q-19.15 -44.85 -18.7 -45.15L-17.95 -45.05Q-17.65 -44.65 -18.1 -44.35M-17.9 -37.85Q-17.55 -37.45 -17.75 -37L-17.4 -37.35Q-16.85 -37.65 -16.35 -37Q-15.85 -36.4 -16.75 -35.95Q-17.65 -35.55 -17.8 -36.3L-17.8 -36.95L-18.2 -36.5Q-19.1 -35.9 -19.6 -36.7Q-20.15 -37.5 -19.3 -38.05Q-18.4 -38.55 -17.9 -37.85M-19.95 -38.15Q-20.9 -37.6 -21.3 -38.35Q-21.65 -39.1 -21.05 -39.7Q-20.45 -40.3 -19.7 -39.45Q-18.95 -38.65 -19.95 -38.15M-19.95 -42.8Q-20.5 -42.5 -20.65 -43Q-20.75 -43.45 -20.35 -43.65Q-20 -43.85 -19.7 -43.45Q-19.35 -43.05 -19.95 -42.8M-21.35 -40.9Q-21.65 -41.3 -21.25 -41.6Q-20.9 -41.95 -20.55 -41.45Q-20.2 -40.95 -20.65 -40.7Q-21.1 -40.5 -21.35 -40.9" />
</g>
</svg>
