<?xml version="1.0" encoding="utf-8"?>
<svg version="1.1" id="Layer_1"
xmlns="http://www.w3.org/2000/svg"
xmlns:xlink="http://www.w3.org/1999/xlink"
width="25px" height="46px"
xml:space="preserve">
<g id="PathID_1934" transform="matrix(1, 0, 0, 1, -1.45, -53.45)">
<path style="fill:none;stroke-width:1;stroke-linecap:round;stroke-linejoin:round;stroke-miterlimit:3;stroke:#3E571F;stroke-opacity:1" d="M23 68.4Q22.05 64.5 20.7 61.6Q16.85 71.9 25.2 84.45" />
<path style="fill:none;stroke-width:1;stroke-linecap:round;stroke-linejoin:round;stroke-miterlimit:3;stroke:#3E571F;stroke-opacity:1" d="M20.7 61.6Q19.25 58.5 17.35 56.65Q15.45 54.8 13.1 54.2Q20.3 63.85 16.3 73.5Q15.45 75.6 14.05 77.65L13.7 78.25Q17.1 87.95 16.45 89.3L15.05 92.8Q14.4 95 15.9 98.8" />
<path style="fill:none;stroke-width:1;stroke-linecap:round;stroke-linejoin:round;stroke-miterlimit:3;stroke:#3E571F;stroke-opacity:1" d="M13.1 54.2Q8.4 53 1.95 57.9" />
<path style="fill:none;stroke-width:1;stroke-linecap:round;stroke-linejoin:round;stroke-miterlimit:3;stroke:#3E571F;stroke-opacity:1" d="M7.9 90.95Q9.6 84.6 13.7 78.25" />
<path style="fill:none;stroke-width:1;stroke-linecap:round;stroke-linejoin:round;stroke-miterlimit:3;stroke:#3E571F;stroke-opacity:1" d="M17.35 56.65Q22.95 59.75 24 56.65" />
<path style="fill:none;stroke-width:1;stroke-linecap:round;stroke-linejoin:round;stroke-miterlimit:3;stroke:#3E571F;stroke-opacity:1" d="M16.3 73.5Q14.15 68.5 11.35 76" />
</g>
</svg>
