<?xml version="1.0" encoding="utf-8"?>
<svg version="1.1" id="Layer_1"
xmlns="http://www.w3.org/2000/svg"
xmlns:xlink="http://www.w3.org/1999/xlink"
width="65px" height="35px"
xml:space="preserve">
<g id="PathID_1329" transform="matrix(1, 0, 0, 1, 33.75, 35.35)">
<path style="fill:#384822;fill-opacity:1" d="M20.3 -14.35Q18.2 -15.55 15.85 -16.05Q17.2 -17.2 18.9 -17.4Q17.9 -16 20.3 -14.35M28.7 -9.15Q24.3 -6.05 15.35 -9.25Q8.75 -13.25 13.1 -16.35Q11.95 -12.75 14.9 -11.15Q21.35 -7.45 28.7 -9.15" />
<path style="fill:#596930;fill-opacity:1" d="M14.9 -11.15Q11.95 -12.75 13.1 -16.35L15.85 -16.05Q18.2 -15.55 20.3 -14.35Q17.9 -16 18.9 -17.4L21.8 -17.2L26.25 -13.15Q27.85 -11.55 30.75 -11.35Q29.9 -10 28.7 -9.15Q21.35 -7.45 14.9 -11.15M21.2 -13.8L22.15 -13.15L21.2 -13.8" />
<path style="fill:none;stroke-width:0.7;stroke-linecap:round;stroke-linejoin:round;stroke-miterlimit:3;stroke:#000000;stroke-opacity:0.301961" d="M15.85 -16.05Q17.2 -17.2 18.9 -17.4L21.8 -17.2L26.25 -13.15Q27.85 -11.55 30.75 -11.35Q29.9 -10 28.7 -9.15Q24.3 -6.05 15.35 -9.25Q8.75 -13.25 13.1 -16.35L15.85 -16.05Q18.2 -15.55 20.3 -14.35" />
<path style="fill:none;stroke-width:0.7;stroke-linecap:round;stroke-linejoin:round;stroke-miterlimit:3;stroke:#000000;stroke-opacity:0.301961" d="M22.15 -13.15L21.2 -13.8" />
</g>
<g id="PathID_1330" transform="matrix(1, 0, 0, 1, 33.75, 35.35)">
<linearGradient
id="LinearGradID_682" gradientUnits="userSpaceOnUse" gradientTransform="matrix(0.00741577, 0.00741577, -0.00340271, 0.00340271, 9.35, -32.85)" spreadMethod ="pad" x1="-819.2" y1="0" x2="819.2" y2="0" >
<stop  offset="0" style="stop-color:#739546;stop-opacity:1" />
<stop  offset="0.972549" style="stop-color:#556B38;stop-opacity:1" />
</linearGradient>
<path style="fill:url(#LinearGradID_682) " d="M5.3 -32L10.75 -32.2L8.4 -30.7L13.6 -30.5Q18.2 -29.45 21.4 -24.85Q15.3 -28.1 8.2 -27.2Q3.25 -27.6 4.45 -31.1L5.3 -32" />
<path style="fill:#384822;fill-opacity:1" d="M4.15 -11.7L2.75 -11.7Q2.75 -18.85 4.55 -26.3Q5.2 -25.75 6.3 -25.4Q3.4 -19.5 4.15 -11.7M4.45 -31.1Q3.25 -27.6 8.2 -27.2Q15.3 -28.1 21.4 -24.85L23.3 -21.5Q19.05 -24.8 10.25 -24.9L6.3 -25.4Q5.2 -25.75 4.55 -26.3Q2.85 -27.85 4.45 -31.1M8.4 -30.7L10.75 -32.2Q12.1 -31.65 13.6 -30.5L8.4 -30.7" />
<path style="fill:none;stroke-width:0.7;stroke-linecap:round;stroke-linejoin:round;stroke-miterlimit:3;stroke:#000000;stroke-opacity:0.301961" d="M4.55 -26.3Q5.2 -25.75 6.3 -25.4L10.25 -24.9Q19.05 -24.8 23.3 -21.5L21.4 -24.85" />
<path style="fill:none;stroke-width:0.7;stroke-linecap:round;stroke-linejoin:round;stroke-miterlimit:3;stroke:#000000;stroke-opacity:0.301961" d="M4.45 -31.1Q2.85 -27.85 4.55 -26.3Q2.75 -18.85 2.75 -11.7L4.15 -11.7Q3.4 -19.5 6.3 -25.4" />
<path style="fill:none;stroke-width:0.7;stroke-linecap:round;stroke-linejoin:round;stroke-miterlimit:3;stroke:#000000;stroke-opacity:0.301961" d="M10.75 -32.2L5.3 -32L4.45 -31.1" />
<path style="fill:none;stroke-width:0.7;stroke-linecap:round;stroke-linejoin:round;stroke-miterlimit:3;stroke:#000000;stroke-opacity:0.301961" d="M13.6 -30.5Q12.1 -31.65 10.75 -32.2" />
<path style="fill:none;stroke-width:0.7;stroke-linecap:round;stroke-linejoin:round;stroke-miterlimit:3;stroke:#000000;stroke-opacity:0.301961" d="M8.4 -30.7L13.6 -30.5Q18.2 -29.45 21.4 -24.85" />
</g>
<g id="PathID_1331" transform="matrix(1, 0, 0, 1, 33.75, 35.35)">
<path style="fill:#303C1E;fill-opacity:1" d="M-8.75 -23.9Q-0.65 -22.85 1.25 -16.4Q1.45 -14.85 -0.85 -14.85Q-4.6 -21.05 -12.85 -22.25Q-0.6 -11.7 -6.1 -12.2Q-9.4 -13.2 -12.2 -16.35Q-14.9 -19.5 -19.2 -19.8Q-14.3 -24.85 -8.75 -23.9M-12.85 -22.25Q-4.6 -21.05 -0.85 -14.85" />
<path style="fill:none;stroke-width:0.7;stroke-linecap:round;stroke-linejoin:round;stroke-miterlimit:3;stroke:#000000;stroke-opacity:0.301961" d="M-8.75 -23.9Q-0.65 -22.85 1.25 -16.4Q1.45 -14.85 -0.85 -14.85Q-0.6 -11.7 -6.1 -12.2Q-9.4 -13.2 -12.2 -16.35Q-14.9 -19.5 -19.2 -19.8Q-14.3 -24.85 -8.75 -23.9z" />
<path style="fill:none;stroke-width:0.7;stroke-linecap:round;stroke-linejoin:round;stroke-miterlimit:3;stroke:#000000;stroke-opacity:0.301961" d="M-12.85 -22.25Q-4.6 -21.05 -0.85 -14.85" />
</g>
<g id="PathID_1332" transform="matrix(1, 0, 0, 1, 33.75, 35.35)">
<path style="fill:#384822;fill-opacity:1" d="M-8.85 -33.85L-11.35 -33.35Q-13.75 -32.65 -16.15 -31.25Q-11.85 -34.45 -16.45 -34.5Q-10.65 -36.2 -8.85 -33.85M-8.85 -33.85Q-6.6 -34.2 -4.3 -33.85Q2.1 -32.15 0.65 -28.4Q-0.6 -27.8 -2.1 -27.35Q1.3 -20.2 1.15 -13.05L-3.65 -27L-12.25 -26.45L-14.8 -26.4Q-1.45 -29.05 -3.8 -32.05Q-5.85 -33.7 -11.35 -33.35L-8.85 -33.85M1.15 -13.05L-0.65 -11.6Q-0.3 -23.05 -3.65 -27L-2.1 -27.35" />
<linearGradient
id="LinearGradID_683" gradientUnits="userSpaceOnUse" gradientTransform="matrix(-0.00476074, 0.00823975, -0.00602722, -0.003479, -11.2, -31.05)" spreadMethod ="pad" x1="-819.2" y1="0" x2="819.2" y2="0" >
<stop  offset="0" style="stop-color:#739546;stop-opacity:1" />
<stop  offset="0.972549" style="stop-color:#556B38;stop-opacity:1" />
</linearGradient>
<path style="fill:url(#LinearGradID_683) " d="M-11.35 -33.35Q-5.85 -33.7 -3.8 -32.05Q-1.45 -29.05 -14.8 -26.4Q-21.8 -26.05 -24.45 -23.1Q-22.95 -29.7 -16.45 -34.5Q-11.85 -34.45 -16.15 -31.25L-17.85 -30.2L-16.15 -31.25Q-13.75 -32.65 -11.35 -33.35" />
<path style="fill:none;stroke-width:0.7;stroke-linecap:round;stroke-linejoin:round;stroke-miterlimit:3;stroke:#000000;stroke-opacity:0.301961" d="M-17.85 -30.2L-16.15 -31.25" />
<path style="fill:none;stroke-width:0.7;stroke-linecap:round;stroke-linejoin:round;stroke-miterlimit:3;stroke:#000000;stroke-opacity:0.301961" d="M-16.45 -34.5Q-22.95 -29.7 -24.45 -23.1Q-21.8 -26.05 -14.8 -26.4" />
<path style="fill:none;stroke-width:0.7;stroke-linecap:round;stroke-linejoin:round;stroke-miterlimit:3;stroke:#000000;stroke-opacity:0.301961" d="M-11.35 -33.35Q-13.75 -32.65 -16.15 -31.25" />
<path style="fill:none;stroke-width:0.7;stroke-linecap:round;stroke-linejoin:round;stroke-miterlimit:3;stroke:#000000;stroke-opacity:0.301961" d="M-14.8 -26.4L-12.25 -26.45L-3.65 -27L-2.1 -27.35Q-0.6 -27.8 0.65 -28.4Q2.1 -32.15 -4.3 -33.85Q-6.6 -34.2 -8.85 -33.85L-11.35 -33.35" />
<path style="fill:none;stroke-width:0.7;stroke-linecap:round;stroke-linejoin:round;stroke-miterlimit:3;stroke:#000000;stroke-opacity:0.301961" d="M-8.85 -33.85Q-10.65 -36.2 -16.45 -34.5" />
<path style="fill:none;stroke-width:0.7;stroke-linecap:round;stroke-linejoin:round;stroke-miterlimit:3;stroke:#000000;stroke-opacity:0.301961" d="M-2.1 -27.35Q1.3 -20.2 1.15 -13.05L-0.65 -11.6Q-0.3 -23.05 -3.65 -27" />
</g>
<g id="PathID_1333" transform="matrix(1, 0, 0, 1, 33.75, 35.35)">
<linearGradient
id="LinearGradID_684" gradientUnits="userSpaceOnUse" gradientTransform="matrix(0.00257874, 0.00613403, -0.00561523, 0.00236511, 11.05, -8.9)" spreadMethod ="pad" x1="-819.2" y1="0" x2="819.2" y2="0" >
<stop  offset="0" style="stop-color:#739546;stop-opacity:1" />
<stop  offset="0.972549" style="stop-color:#556B38;stop-opacity:1" />
</linearGradient>
<path style="fill:url(#LinearGradID_684) " d="M12.7 -11.25L14.45 -8.95L12.7 -11.25Q11.05 -12.8 11.75 -13.55Q13.9 -13.45 15.35 -11Q17.8 -6.95 15.05 -3.9Q14.9 -5.25 13.55 -6.6Q9.95 -7.9 7.75 -9.55Q6.8 -11.05 7.75 -12.55L8.5 -12.7Q11 -12.7 12.7 -11.25" />
<path style="fill:#384822;fill-opacity:1" d="M7.75 -12.55Q6.8 -11.05 7.75 -9.55Q9.95 -7.9 13.55 -6.6Q14.9 -5.25 15.05 -3.9Q12.55 -6.4 6.8 -8.95L5.95 -10.05Q4.75 -6.8 4.65 -4.8L3.9 -5.3Q4.15 -7.7 5.95 -10.05L6.8 -8.95Q4.95 -11.95 7.75 -12.55M11.75 -13.55Q11.05 -12.8 12.7 -11.25Q11 -12.7 8.5 -12.7Q10.25 -13.65 11.75 -13.55" />
<path style="fill:none;stroke-width:0.7;stroke-linecap:round;stroke-linejoin:round;stroke-miterlimit:3;stroke:#000000;stroke-opacity:0.301961" d="M8.5 -12.7L7.75 -12.55" />
<path style="fill:none;stroke-width:0.7;stroke-linecap:round;stroke-linejoin:round;stroke-miterlimit:3;stroke:#000000;stroke-opacity:0.301961" d="M15.05 -3.9Q17.8 -6.95 15.35 -11Q13.9 -13.45 11.75 -13.55" />
<path style="fill:none;stroke-width:0.7;stroke-linecap:round;stroke-linejoin:round;stroke-miterlimit:3;stroke:#000000;stroke-opacity:0.301961" d="M12.7 -11.25L14.45 -8.95" />
<path style="fill:none;stroke-width:0.7;stroke-linecap:round;stroke-linejoin:round;stroke-miterlimit:3;stroke:#000000;stroke-opacity:0.301961" d="M15.05 -3.9Q12.55 -6.4 6.8 -8.95Q4.75 -6.8 4.65 -4.8L3.9 -5.3Q4.15 -7.7 5.95 -10.05Q4.95 -11.95 7.75 -12.55" />
<path style="fill:none;stroke-width:0.7;stroke-linecap:round;stroke-linejoin:round;stroke-miterlimit:3;stroke:#000000;stroke-opacity:0.301961" d="M5.95 -10.05L6.8 -8.95" />
<path style="fill:none;stroke-width:0.7;stroke-linecap:round;stroke-linejoin:round;stroke-miterlimit:3;stroke:#000000;stroke-opacity:0.301961" d="M12.7 -11.25Q11 -12.7 8.5 -12.7Q10.25 -13.65 11.75 -13.55" />
</g>
<g id="PathID_1334" transform="matrix(1, 0, 0, 1, 33.75, 35.35)">
<path style="fill:#596930;fill-opacity:1" d="M-21.1 -16.45Q-16.25 -16.35 -16.8 -12.1Q-18.1 -8.35 -22.75 -9.75Q-25.6 -11.3 -31.8 -7.65L-33.6 -6.75Q-31.35 -13 -24.9 -17.8L-22.6 -18.25Q-20.55 -17.3 -24.15 -15.05Q-25.6 -14.3 -27.15 -13.05L-21.1 -16.45M-27.15 -13.05Q-25.6 -14.3 -24.15 -15.05" />
<path style="fill:#384822;fill-opacity:1" d="M-31.8 -7.65Q-25.6 -11.3 -22.75 -9.75Q-18.1 -8.35 -16.8 -12.1Q-16.25 -16.35 -21.1 -16.45L-18.6 -16.9L-21.1 -16.45L-24.15 -15.05Q-20.55 -17.3 -22.6 -18.25Q-20 -18.5 -18.6 -16.9L-15.8 -16.35Q-14.55 -14.95 -14.5 -13.25Q-10.05 -10.75 -7.5 -4.9L-10.45 -3.95Q-10.55 -10.25 -14.75 -11.45Q-15.15 -10.45 -15.8 -9.4Q-18.85 -6.65 -22.75 -7.8Q-27.6 -9.35 -31.8 -7.65M-14.75 -11.45L-14.5 -13.25L-14.75 -11.45" />
<path style="fill:none;stroke-width:0.7;stroke-linecap:round;stroke-linejoin:round;stroke-miterlimit:3;stroke:#000000;stroke-opacity:0.301961" d="M-22.6 -18.25L-24.9 -17.8Q-31.35 -13 -33.6 -6.75L-31.8 -7.65" />
<path style="fill:none;stroke-width:0.7;stroke-linecap:round;stroke-linejoin:round;stroke-miterlimit:3;stroke:#000000;stroke-opacity:0.301961" d="M-21.1 -16.45L-24.15 -15.05Q-25.6 -14.3 -27.15 -13.05" />
<path style="fill:none;stroke-width:0.7;stroke-linecap:round;stroke-linejoin:round;stroke-miterlimit:3;stroke:#000000;stroke-opacity:0.301961" d="M-22.6 -18.25Q-20 -18.5 -18.6 -16.9L-15.8 -16.35Q-14.55 -14.95 -14.5 -13.25Q-10.05 -10.75 -7.5 -4.9L-10.45 -3.95Q-10.55 -10.25 -14.75 -11.45Q-15.15 -10.45 -15.8 -9.4Q-18.85 -6.65 -22.75 -7.8Q-27.6 -9.35 -31.8 -7.65" />
<path style="fill:none;stroke-width:0.7;stroke-linecap:round;stroke-linejoin:round;stroke-miterlimit:3;stroke:#000000;stroke-opacity:0.301961" d="M-14.5 -13.25L-14.75 -11.45" />
<path style="fill:none;stroke-width:0.7;stroke-linecap:round;stroke-linejoin:round;stroke-miterlimit:3;stroke:#000000;stroke-opacity:0.301961" d="M-21.1 -16.45L-18.6 -16.9" />
</g>
<g id="PathID_1335" transform="matrix(1, 0, 0, 1, 33.75, 35.35)">
<path style="fill:#433827;fill-opacity:1" d="M2.9 -4.1L4.55 -2.8L3.4 -1.95L3.05 -1.85L1.3 -2.1L-0.55 -2L-1.5 -2L-1.9 -2.5L-1 -3.9Q0 -5.15 0.8 -5.1L1.95 -4.6L2.9 -4.1" />
<path style="fill:#514533;fill-opacity:1" d="M6.45 -3.5Q6.05 -3.5 4.75 -2.9L4.55 -2.8L2.9 -4.1L1.95 -4.6L3.7 -5.7Q4.75 -6.55 6 -6.1Q7.25 -5.7 8.55 -4.8Q10.6 -3.5 11.65 -3.15L11.65 -2.8L10.3 -2.55L9.5 -2.6Q7.9 -3.5 6.45 -3.5M17.8 -3.8L18 -3.7L19.45 -2.5L19.45 -1.9L15.95 -1.5L13.4 -1.6L14.9 -2.25L16.5 -2.3L17.2 -2.3L17.55 -3.35L17.8 -3.8M-9.05 -1.45L-8.55 -2.4L-9.75 -3.1L-8.55 -2.4L-9.05 -1.45L-9.5 -1.5L-12.1 -0.95L-17.1 -0.95L-16.9 -1.85L-16.1 -3.7L-16.05 -3.75Q-12.2 -6.15 -11.4 -6.95L-10.2 -6.15L-9.05 -5.4L-7.5 -4.55L-6.8 -3.95L-6.15 -2.9L-5.5 -1.45L-9.05 -1.45M-8 -3.1L-8.55 -2.4L-8 -3.1" />
<path style="fill:#796A54;fill-opacity:1" d="M9.5 -2.6L10.4 -2.15L9.95 -1.7L8.05 -1.45L7.85 -1.4L6.6 -2.2L5.7 -1.3L3.75 -1.3Q3.35 -1.4 3.35 -1.85L3.4 -1.95L4.55 -2.8L4.75 -2.9Q6.05 -3.5 6.45 -3.5Q7.9 -3.5 9.5 -2.6M6.6 -2.2L7.85 -1.4M-16.05 -3.75L-16.1 -3.7L-19.65 -3.75L-16.95 -5.5Q-13.85 -7.4 -12.65 -7.85L-11.4 -6.95Q-12.2 -6.15 -16.05 -3.75" />
<path style="fill:#625543;fill-opacity:1" d="M17.55 -3.35L17.2 -2.3L16.5 -2.3L14.9 -2.25L13.4 -1.6L10.6 -1.7L12.3 -2.85L12.45 -2.95L12.8 -3.35L13.6 -3.7L14.8 -3.55L16.75 -3.95L17.8 -3.8L17.55 -3.35M-3.15 -4.8Q-1.75 -3.6 -1.9 -2.8L-6.8 -3.95L-7.5 -4.55L-9.05 -5.4L-7 -5.55L-5.35 -5.85L-3.15 -4.8M-16.9 -1.85L-17.1 -0.95L-17.15 -0.95Q-20.45 -2.35 -20.25 -3.35L-19.85 -3.6L-19.65 -3.75L-16.1 -3.7L-16.9 -1.85" />
<path style="fill:#584C39;fill-opacity:1" d="M-12.4 -7.95Q-8.75 -7.25 -5.35 -5.85L-7 -5.55L-9.05 -5.4L-10.2 -6.15L-11.4 -6.95L-12.65 -7.85L-12.4 -7.95M-5.5 -1.45L-6.15 -2.9L-6.8 -3.95L-1.9 -2.8Q-2.15 -1.7 -5.5 -1.45" />
<path style="fill:none;stroke-width:0.7;stroke-linecap:round;stroke-linejoin:round;stroke-miterlimit:3;stroke:#000000;stroke-opacity:0.301961" d="M3.4 -1.95L3.05 -1.85L1.3 -2.1L-0.55 -2L-1.5 -2L-1.9 -2.5L-1 -3.9Q0 -5.15 0.8 -5.1L1.95 -4.6L3.7 -5.7Q4.75 -6.55 6 -6.1Q7.25 -5.7 8.55 -4.8Q10.6 -3.5 11.65 -3.15L11.65 -2.8L10.3 -2.55L9.5 -2.6L10.4 -2.15L9.95 -1.7L8.05 -1.45" />
<path style="fill:none;stroke-width:0.7;stroke-linecap:round;stroke-linejoin:round;stroke-miterlimit:3;stroke:#000000;stroke-opacity:0.180392" d="M8.05 -1.45L7.85 -1.4" />
<path style="fill:none;stroke-width:0.7;stroke-linecap:round;stroke-linejoin:round;stroke-miterlimit:3;stroke:#000000;stroke-opacity:0.301961" d="M7.85 -1.4L5.7 -1.3L3.75 -1.3Q3.35 -1.4 3.35 -1.85L3.4 -1.95L4.55 -2.8L2.9 -4.1L1.95 -4.6" />
<path style="fill:none;stroke-width:0.7;stroke-linecap:round;stroke-linejoin:round;stroke-miterlimit:3;stroke:#000000;stroke-opacity:0.301961" d="M4.55 -2.8L4.75 -2.9Q6.05 -3.5 6.45 -3.5Q7.9 -3.5 9.5 -2.6" />
<path style="fill:none;stroke-width:0.7;stroke-linecap:round;stroke-linejoin:round;stroke-miterlimit:3;stroke:#000000;stroke-opacity:0.180392" d="M6.6 -2.2L7.85 -1.4" />
<path style="fill:none;stroke-width:0.7;stroke-linecap:round;stroke-linejoin:round;stroke-miterlimit:3;stroke:#000000;stroke-opacity:0.301961" d="M13.4 -1.6L10.6 -1.7L12.3 -2.85L12.45 -2.95L12.8 -3.35L13.6 -3.7L14.8 -3.55L16.75 -3.95L17.8 -3.8L18 -3.7L19.45 -2.5L19.45 -1.9L15.95 -1.5L13.4 -1.6z" />
<path style="fill:none;stroke-width:0.7;stroke-linecap:round;stroke-linejoin:round;stroke-miterlimit:3;stroke:#000000;stroke-opacity:0.301961" d="M-5.35 -5.85Q-8.75 -7.25 -12.4 -7.95L-12.65 -7.85Q-13.85 -7.4 -16.95 -5.5L-19.65 -3.75" />
<path style="fill:none;stroke-width:0.7;stroke-linecap:round;stroke-linejoin:round;stroke-miterlimit:3;stroke:#000000;stroke-opacity:0.301961" d="M-19.85 -3.6L-20.25 -3.35Q-20.45 -2.35 -17.15 -0.95L-17.1 -0.95L-16.9 -1.85L-16.1 -3.7" />
<path style="fill:none;stroke-width:0.7;stroke-linecap:round;stroke-linejoin:round;stroke-miterlimit:3;stroke:#000000;stroke-opacity:0.301961" d="M-17.1 -0.95L-12.1 -0.95L-9.5 -1.5L-9.05 -1.45" />
<path style="fill:none;stroke-width:0.7;stroke-linecap:round;stroke-linejoin:round;stroke-miterlimit:3;stroke:#000000;stroke-opacity:0.180392" d="M-9.05 -1.45L-8.55 -2.4L-9.75 -3.1" />
<path style="fill:none;stroke-width:0.7;stroke-linecap:round;stroke-linejoin:round;stroke-miterlimit:3;stroke:#000000;stroke-opacity:0.301961" d="M-1.9 -2.8Q-1.75 -3.6 -3.15 -4.8L-5.35 -5.85" />
<path style="fill:none;stroke-width:0.7;stroke-linecap:round;stroke-linejoin:round;stroke-miterlimit:3;stroke:#000000;stroke-opacity:0.301961" d="M-5.5 -1.45Q-2.15 -1.7 -1.9 -2.8" />
<path style="fill:none;stroke-width:0.7;stroke-linecap:round;stroke-linejoin:round;stroke-miterlimit:3;stroke:#000000;stroke-opacity:0.180392" d="M-8.55 -2.4L-8 -3.1" />
<path style="fill:none;stroke-width:0.7;stroke-linecap:round;stroke-linejoin:round;stroke-miterlimit:3;stroke:#000000;stroke-opacity:0.301961" d="M-5.5 -1.45L-9.05 -1.45" />
</g>
<g id="PathID_1336" transform="matrix(1, 0, 0, 1, 33.75, 35.35)">
<path style="fill:#384822;fill-opacity:1" d="M-3.1 -14.5L-0.1 -15.5Q4.4 -15.5 4.7 -10.05Q4.9 -6.85 1.95 -3.85Q4.95 -11.3 1.35 -12.95Q-1.7 -14.55 -3.8 -10.5L-3.75 -7.55Q-3.7 -12.55 -3.1 -14.5M-3.75 -7.55Q-6.2 -13.35 -8.9 -12.7Q-7.9 -14.95 -3.1 -14.5Q-3.7 -12.55 -3.8 -10.5" />
<linearGradient
id="LinearGradID_685" gradientUnits="userSpaceOnUse" gradientTransform="matrix(0, 0.00549316, -0.00787354, 0, -2.95, -11.85)" spreadMethod ="pad" x1="-819.2" y1="0" x2="819.2" y2="0" >
<stop  offset="0" style="stop-color:#739546;stop-opacity:1" />
<stop  offset="0.972549" style="stop-color:#556B38;stop-opacity:1" />
</linearGradient>
<path style="fill:url(#LinearGradID_685) " d="M-2.4 -0.5Q-8.1 -5.05 -9.1 -10.15Q-9.4 -11.7 -8.9 -12.7Q-6.2 -13.35 -3.75 -7.55L-3.3 -5.1L-3.75 -7.55L-3.8 -10.5Q-1.7 -14.55 1.35 -12.95Q4.95 -11.3 1.95 -3.85Q0.3 -2.15 -2.4 -0.5" />
<path style="fill:none;stroke-width:0.7;stroke-linecap:round;stroke-linejoin:round;stroke-miterlimit:3;stroke:#000000;stroke-opacity:0.301961" d="M1.95 -3.85Q4.9 -6.85 4.7 -10.05Q4.4 -15.5 -0.1 -15.5L-3.1 -14.5Q-3.7 -12.55 -3.8 -10.5L-3.75 -7.55L-3.3 -5.1" />
<path style="fill:none;stroke-width:0.7;stroke-linecap:round;stroke-linejoin:round;stroke-miterlimit:3;stroke:#000000;stroke-opacity:0.301961" d="M-8.9 -12.7Q-9.4 -11.7 -9.1 -10.15Q-8.1 -5.05 -2.4 -0.5Q0.3 -2.15 1.95 -3.85" />
<path style="fill:none;stroke-width:0.7;stroke-linecap:round;stroke-linejoin:round;stroke-miterlimit:3;stroke:#000000;stroke-opacity:0.301961" d="M-3.1 -14.5Q-7.9 -14.95 -8.9 -12.7" />
</g>
</svg>
