<?xml version="1.0" encoding="utf-8"?>
<svg version="1.1" id="Layer_1"
xmlns="http://www.w3.org/2000/svg"
xmlns:xlink="http://www.w3.org/1999/xlink"
width="28px" height="24px"
xml:space="preserve">
<g id="PathID_1759" transform="matrix(1, 0, 0, 1, 0.2, 0.2)">
<path style="fill:#808080;fill-opacity:1" d="M0 0L24.95 0Q26.15 1.85 23.75 3.15Q2.6 5.1 0 2.3L0 0M5.3 21.05L2.45 6.45Q13.7 5.35 19.05 8.05Q19.4 14.35 17.55 20.1Q11.9 21.7 5.3 21.05" />
<path style="fill:#4F4C4C;fill-opacity:1" d="M27.25 0L27.25 4.65L25.3 4.65L21.65 22.85L2.1 4.65L0 4.65L0 2.3Q2.6 5.1 23.75 3.15Q26.15 1.85 24.95 0L27.25 0M21.65 22.85L5.65 22.85L5.3 21.05Q11.9 21.7 17.55 20.1Q19.4 14.35 19.05 8.05Q13.7 5.35 2.45 6.45L2.1 4.65L25.3 4.65" />
<path style="fill:none;stroke-width:0.7;stroke-linecap:round;stroke-linejoin:round;stroke-miterlimit:3;stroke:#000000;stroke-opacity:0.278431" d="M24.95 0L0 0L0 2.3L0 4.65L2.1 4.65L25.3 4.65L27.25 4.65L27.25 0L24.95 0z" />
<path style="fill:none;stroke-width:0.7;stroke-linecap:round;stroke-linejoin:round;stroke-miterlimit:3;stroke:#000000;stroke-opacity:0.278431" d="M25.3 4.65L21.65 22.85L5.65 22.85L5.3 21.05L2.45 6.45L2.1 4.65" />
</g>
</svg>
