<?xml version="1.0" encoding="utf-8"?>
<svg version="1.1" id="Layer_1"
xmlns="http://www.w3.org/2000/svg"
xmlns:xlink="http://www.w3.org/1999/xlink"
width="53px" height="72px"
xml:space="preserve">
<g id="PathID_1594" transform="matrix(1, 0, 0, 1, 28.65, 12.55)">
<path style="fill:none;stroke-width:0.7;stroke-linecap:round;stroke-linejoin:round;stroke-miterlimit:3;stroke:#FFFFFF;stroke-opacity:0.611765" d="M0.35 52.25L0.35 -1.65" />
</g>
<g id="PathID_1595" transform="matrix(1, 0, 0, 1, 28.65, 12.55)">
<path style="fill:#E2E1DE;fill-opacity:0.741176" d="M1.95 -3.85L2.25 -2.55Q3.15 -3.4 11.45 -6.15Q9.95 -6.25 9.1 -7.2L8.5 -8.1Q2.7 -6.2 1.95 -3.85M1.1 -3.75Q1.15 -4.05 -1.5 -2.95L-1.95 -2.4Q-2.3 -1.75 -1.65 -1.3L0.65 -2.55L1.1 -3.75M5.2 -9.2Q10.3 -9.75 13.1 -12.55L13.8 -12.35L11.35 -10.1Q9.65 -8.4 9.65 -8.05Q9.65 -6.55 12.15 -6.55Q21.95 -11.8 23.75 -12.15Q21.2 -10.15 14.15 -6.75L5.75 -2.9Q2.05 -1.15 -4.5 3.4Q-11.05 7.9 -16.35 11.95L-24.8 21.85Q-28.45 25.95 -28.45 25.45Q-24 18.45 -24 17.95Q-24 17.15 -24.75 15.65L-25.5 14.35L-28.55 15.65L-28.65 15.3L-21.95 11.55Q-21.1 8.6 -22.1 6.5Q-22.95 4.65 -24.95 3.85L-27.9 4.45L-27.9 3.75Q-26.5 3.5 -25.45 2.1Q-23.3 -0.7 -24.95 -6.55Q-25.3 -7.8 -26.45 -9.75L-28 -12.05Q-23.15 -8.25 -15.15 -8.5Q-7.2 -8.8 -4.15 -12.5Q-4.25 -12.3 -2.35 -10.95Q-0.4 -9.55 0.6 -9.25Q2.6 -8.95 5.2 -9.2M7.9 -9.25Q5.4 -8.3 0.4 -8.7Q-2.65 -9.35 -3.95 -10.1Q-4.25 -10.25 -4.9 -8.85Q-5.55 -7.4 -5.3 -6.95Q-4.4 -5.15 -1.35 -5.3L1.85 -5.8Q2.25 -5.8 4.35 -7Q6.5 -8.2 7.9 -9.25M-23.45 -0.15Q-23.45 0.9 -24.35 3.15Q-19.15 2 -18.55 -1.3Q-18.25 -2.95 -19.1 -4.45L-24.95 -8.95Q-23.45 -4.6 -23.45 -0.15M-15.8 -4.3L-12.7 -4.95Q-9 -6.3 -6.1 -9.5Q-13.6 -7.4 -18.55 -8.1Q-23.15 -8.75 -24.8 -9.4Q-22 -6.85 -18.6 -5.3Q-16.9 -4.55 -15.8 -4.3M-17.8 -3.35Q-17.35 0.75 -19.3 2.15L-14.85 1.55Q-14.75 0.3 -13.95 -1.2L-17.8 -3.35M-16.35 -3.6L-12.25 -1.45L-8.95 -1.5Q-8.25 -2.45 -7.3 -5.2Q-6.5 -7.5 -6.45 -8.05Q-7.05 -7.25 -8.2 -6.15Q-9.4 -5 -12.7 -4.15L-16.35 -3.6M-6.5 -3.85Q-6.75 -2.65 -6.6 -1.45Q-4.65 -1.75 -3.4 -2.5Q-4.15 -2.55 -5.3 -3.15Q-6.3 -3.65 -6.5 -3.85M-9 -0.85L-10.85 -0.8L-8 0.15L-7.55 -2.5Q-7.9 -1.85 -9 -0.85M-2.7 -2.4L-6.45 -0.4Q-2.45 -1.1 -2.55 -1.45L-2.55 -2.05L-2.7 -2.4M-2.9 -3.5Q-0.95 -3.8 0.85 -4.9Q-3.4 -4.4 -5.7 -6.25L-6.35 -4.75Q-5.5 -3.1 -2.9 -3.5M-8.55 0.75L-13.45 1.95Q-13.15 2.1 -13 2.8Q-12.8 3.65 -13.15 4.55L-12.2 3.55Q-11.45 2.8 -9.9 1.7L-8.55 0.75M-7.8 0.9L-10.55 4.8Q-5.2 1.45 -3.95 0.1Q-5.5 0.05 -7.8 0.9M-14.8 2.3L-18.1 2.75L-16.95 3.6L-16.45 4.1L-16.25 7.8Q-14 6.2 -13.7 4.2Q-13.4 2.3 -14.8 2.3M-12.1 5.8L-8.4 1.35L-13.1 5.35Q-13.7 6.45 -12.1 5.8M-18.6 2.8L-24.45 3.8Q-22.25 4.65 -21.45 5.75Q-20.9 6.55 -20.9 8.7Q-20.9 9.6 -19.6 9.55Q-18.5 9.5 -17.65 8.95L-17.65 8.9L-17.05 7.45Q-16.55 5.85 -17 4.45L-18.6 2.8M-17.75 11.9L-12.95 6.85Q-16.3 8 -19.65 11.05L-17.75 11.9M-15.05 10.35L1.6 -1.8L-3 0.1Q-11.85 6.75 -12 6.65L-15.05 10.35M-9.2 0.7Q-10.85 0.4 -13.25 -0.8Q-13.2 0.1 -13.75 1.35L-9.2 0.7M-23.45 19.2L-18.3 13.3Q-18.3 11.55 -20.4 11.4L-24.85 14Q-24.35 14.4 -23.95 15.3Q-23.45 16.55 -23.45 17.95L-23.45 19.2" />
</g>
<g id="PathID_1596" transform="matrix(1, 0, 0, 1, 28.65, 12.55)">
<path style="fill:#0D0A07;fill-opacity:1" d="M4.9 57.95Q3.35 59.05 1.05 59.05Q-1.4 59.05 -2.8 57.95L-3.9 56.8L-6.4 55.45L-4.45 55.45L-4.45 55.2L-4.25 54.2L-6.5 52.25L-3.8 53.2L-2.8 52.3Q-1.45 51.6 -0.6 51.5L0.05 51.45L0.75 51.25L1.5 51.25L2.4 51.45Q3.8 51.6 4.9 52.3L5.35 52.7L6.15 51.95Q5.85 53.15 6.15 53.75L6.5 54.65L6.5 55.2L6.15 56.6L4.9 57.95M8.85 52.75Q10.6 55.2 10.6 57.5L8.3 54.45L6.15 56.6L6.5 55.2L6.5 54.65L8.85 52.75M6.15 51.95L8.2 49.65Q10.45 51.25 11.25 53.3L8.1 51.05L6.15 53.75Q5.85 53.15 5.35 52.7M-6.5 52.25L-9.7 55.3Q-8.75 52.3 -6.75 50.55Q-5.35 51 -4.6 51.7Q-4.05 52.3 -3.8 53.2L-4.25 54.2M-6.4 55.45L-8.2 58.6Q-8.2 55.55 -6.95 53.65Q-5.5 53.95 -4.45 55.45L-3.9 56.8M-3.1 54.9L-3.2 55.2L-3.25 55.3L-3.35 55.45L-3.35 55.9L-3.25 56.1L-3.1 56.5L-2.8 57.05L-2.3 57.5L-2.2 57.6L-1.4 57.7L-0.65 57.6Q-0.3 57.5 0.15 57.05L0.7 55.9L0.7 55.45Q0.6 54.75 0.15 54.2Q-0.3 53.85 -0.65 53.75L-1.4 53.65L-2.2 53.85L-2.3 53.95Q-2.65 54 -2.8 54.2L-3.1 54.9M3.35 53.65Q2.55 53.65 1.85 54.2Q1.3 54.85 1.3 55.75Q1.3 56.55 1.85 57.05Q2.55 57.7 3.35 57.7Q4.25 57.7 4.8 57.05Q5.4 56.55 5.4 55.75Q5.4 54.85 4.8 54.2Q4.25 53.65 3.35 53.65M2.65 56.8L2.3 57.05Q1.75 57.05 1.75 56.1Q1.75 55.75 2.3 55.8Q2.85 55.9 2.85 56.35L2.65 56.8M-0.3 55.8Q0.25 55.75 0.25 56.1Q0.25 57.05 -0.3 57.05L-0.6 56.8L-0.85 56.35Q-0.85 55.9 -0.3 55.8" />
<path style="fill:#FFFFFF;fill-opacity:1" d="M-2.75 57.05L-3.1 56.5L-3.25 56.1L-3.35 55.9L-3.35 55.45L-3.25 55.3L-3.2 55.2L-3.1 54.9L-2.75 54.2L-2.3 53.95L-2.2 53.85L-1.4 53.65L-0.65 53.75Q-0.3 53.85 0.15 54.2Q0.6 54.75 0.7 55.45L0.7 55.9L0.15 57.05Q-0.3 57.5 -0.65 57.6L-1.4 57.7L-2.2 57.6L-2.3 57.5L-2.75 57.05M4.8 54.2Q5.4 54.85 5.4 55.75Q5.4 56.55 4.8 57.05Q4.25 57.7 3.35 57.7Q2.55 57.7 1.85 57.05Q1.3 56.55 1.3 55.75Q1.3 54.85 1.85 54.2Q2.55 53.65 3.35 53.65Q4.25 53.65 4.8 54.2M2.85 56.35Q2.85 55.9 2.3 55.8Q1.75 55.75 1.75 56.1Q1.75 57.05 2.3 57.05L2.65 56.8L2.85 56.35M-0.85 56.35L-0.6 56.8L-0.3 57.05Q0.25 57.05 0.25 56.1Q0.25 55.75 -0.3 55.8Q-0.85 55.9 -0.85 56.35" />
<path style="fill:none;stroke-width:0.7;stroke-linecap:round;stroke-linejoin:round;stroke-miterlimit:3;stroke:#000000;stroke-opacity:0.301961" d="M6.5 54.65L6.5 55.2L6.15 56.6L8.3 54.45L10.6 57.5Q10.6 55.2 8.85 52.75L6.5 54.65L6.15 53.75Q5.85 53.15 5.35 52.7L4.9 52.3Q3.8 51.6 2.4 51.45L1.5 51.25L0.75 51.25L0.05 51.45L-0.6 51.5Q-1.45 51.6 -2.8 52.3L-3.8 53.2L-4.25 54.2L-4.45 55.2L-4.45 55.45L-3.9 56.8L-2.8 57.95Q-1.4 59.05 1.05 59.05Q3.35 59.05 4.9 57.95L6.15 56.6" />
<path style="fill:none;stroke-width:0.7;stroke-linecap:round;stroke-linejoin:round;stroke-miterlimit:3;stroke:#000000;stroke-opacity:0.301961" d="M6.15 53.75L8.1 51.05L11.25 53.3Q10.45 51.25 8.2 49.65L6.15 51.95L5.35 52.7" />
<path style="fill:none;stroke-width:0.7;stroke-linecap:round;stroke-linejoin:round;stroke-miterlimit:3;stroke:#000000;stroke-opacity:0.301961" d="M2.4 51.45Q3.2 50.15 3.45 50.15Q5 50.15 6.15 51.95" />
<path style="fill:none;stroke-width:0.7;stroke-linecap:round;stroke-linejoin:round;stroke-miterlimit:3;stroke:#000000;stroke-opacity:0.301961" d="M-4.6 51.7Q-3.55 50 -2.75 49.9Q-2 49.8 -0.6 51.5" />
<path style="fill:none;stroke-width:0.7;stroke-linecap:round;stroke-linejoin:round;stroke-miterlimit:3;stroke:#000000;stroke-opacity:0.301961" d="M-3.8 53.2Q-4.05 52.3 -4.6 51.7Q-5.35 51 -6.75 50.55Q-8.75 52.3 -9.7 55.3L-6.5 52.25L-4.25 54.2" />
<path style="fill:none;stroke-width:0.7;stroke-linecap:round;stroke-linejoin:round;stroke-miterlimit:3;stroke:#000000;stroke-opacity:0.301961" d="M-3.9 56.8L-6.4 55.45L-8.2 58.6Q-8.2 55.55 -6.95 53.65Q-5.5 53.95 -4.45 55.45" />
</g>
</svg>
