<?xml version="1.0" encoding="utf-8"?>
<svg version="1.1" id="Layer_1"
xmlns="http://www.w3.org/2000/svg"
xmlns:xlink="http://www.w3.org/1999/xlink"
width="7px" height="37px"
xml:space="preserve">
<g id="PathID_457" transform="matrix(1, 0, 0, 1, 2.75, 36.1)">
<path style="fill:#4F2D04;fill-opacity:1" d="M0.45 -24.8L0.45 -31.8L0.45 -24.8M-2.55 -35.9L3.75 -35.9L3.75 -17.45L2.3 -17.35L2.3 -18.75L2.3 -17.35L-0.45 -16.4L-2.55 -15.6L-2.55 -35.9" />
<path style="fill:#6D3D03;fill-opacity:1" d="M-2.55 -12.75L-2.55 -15.6L-0.45 -16.4L2.3 -17.35L3.75 -17.45L2.35 -15.8L0.3 -14.7L-1.5 -13.45L-1.55 -15.15L-2.55 -12.75M3.75 -17.45L3.75 -15.6L2.35 -15.8L2.3 -17.35M-1.55 -15.15L-1.5 -13.45" />
<path style="fill:#884E09;fill-opacity:1" d="M-1.15 -0.85L-2.55 -2.65L-2.55 -3.55L-2.55 -12.75L-1.5 -13.45L0.3 -14.7L2.35 -15.8L3.75 -15.6L3.75 -7.05L2.65 -9.5L3.3 -1.7L2.65 -2.7L1.9 -2.05Q1.45 -5.45 1.05 -6.6L-0.6 -2L-1.15 -0.85M2.2 -5.85L1.9 -2.05L2.2 -5.85M2.55 -10.2L2.35 -15.8L2.55 -10.2M-1.5 -13.45L-1.4 -11.9L-1.25 -9.65L-1.1 -7.15L-1.25 -9.65L-1.4 -11.9L-1.5 -13.45" />
<path style="fill:#4B4F04;fill-opacity:1" d="M3.75 -0.15L-0.1 -0.15L-2.55 -0.15L-0.6 -2L1.05 -6.6Q1.45 -5.45 1.9 -2.05L2.65 -2.7L3.3 -1.7L2.65 -9.5L3.75 -7.05L3.75 -0.15M-2.55 -0.15L-2.55 -2.65L-1.15 -0.85L-0.6 -2L-0.1 -0.15" />
<path style="fill:none;stroke-width:0.7;stroke-linecap:round;stroke-linejoin:round;stroke-miterlimit:3;stroke:#000000;stroke-opacity:0.168627" d="M0.45 -31.8L0.45 -24.8" />
<path style="fill:none;stroke-width:0.7;stroke-linecap:round;stroke-linejoin:round;stroke-miterlimit:3;stroke:#000000;stroke-opacity:0.168627" d="M2.35 -15.8L2.3 -17.35" />
<path style="fill:none;stroke-width:0.7;stroke-linecap:round;stroke-linejoin:round;stroke-miterlimit:3;stroke:#000000;stroke-opacity:0.388235" d="M-2.55 -15.6L-2.55 -12.75" />
<path style="fill:none;stroke-width:0.7;stroke-linecap:round;stroke-linejoin:round;stroke-miterlimit:3;stroke:#000000;stroke-opacity:0.168627" d="M-1.5 -13.45L-1.55 -15.15" />
<path style="fill:none;stroke-width:0.7;stroke-linecap:round;stroke-linejoin:round;stroke-miterlimit:3;stroke:#000000;stroke-opacity:0.168627" d="M2.3 -17.35L2.3 -18.75" />
<path style="fill:none;stroke-width:0.7;stroke-linecap:round;stroke-linejoin:round;stroke-miterlimit:3;stroke:#000000;stroke-opacity:0.388235" d="M3.75 -17.45L3.75 -35.9L-2.55 -35.9L-2.55 -15.6" />
<path style="fill:none;stroke-width:0.7;stroke-linecap:round;stroke-linejoin:round;stroke-miterlimit:3;stroke:#000000;stroke-opacity:0.388235" d="M3.75 -15.6L3.75 -17.45" />
<path style="fill:none;stroke-width:0.7;stroke-linecap:round;stroke-linejoin:round;stroke-miterlimit:3;stroke:#000000;stroke-opacity:0.168627" d="M-0.6 -2L-0.1 -0.15" />
<path style="fill:none;stroke-width:0.7;stroke-linecap:round;stroke-linejoin:round;stroke-miterlimit:3;stroke:#000000;stroke-opacity:0.388235" d="M-0.1 -0.15L3.75 -0.15L3.75 -7.05L3.75 -15.6" />
<path style="fill:none;stroke-width:0.7;stroke-linecap:round;stroke-linejoin:round;stroke-miterlimit:3;stroke:#000000;stroke-opacity:0.168627" d="M1.9 -2.05L2.2 -5.85" />
<path style="fill:none;stroke-width:0.7;stroke-linecap:round;stroke-linejoin:round;stroke-miterlimit:3;stroke:#000000;stroke-opacity:0.168627" d="M2.35 -15.8L2.55 -10.2" />
<path style="fill:none;stroke-width:0.7;stroke-linecap:round;stroke-linejoin:round;stroke-miterlimit:3;stroke:#000000;stroke-opacity:0.388235" d="M-2.55 -2.65L-2.55 -0.15L-0.1 -0.15" />
<path style="fill:none;stroke-width:0.7;stroke-linecap:round;stroke-linejoin:round;stroke-miterlimit:3;stroke:#000000;stroke-opacity:0.388235" d="M-2.55 -12.75L-2.55 -3.55L-2.55 -2.65" />
<path style="fill:none;stroke-width:0.7;stroke-linecap:round;stroke-linejoin:round;stroke-miterlimit:3;stroke:#000000;stroke-opacity:0.168627" d="M-1.1 -7.15L-1.25 -9.65L-1.4 -11.9L-1.5 -13.45" />
</g>
</svg>
