<?xml version="1.0" encoding="utf-8"?>
<svg version="1.1" id="Layer_1"
xmlns="http://www.w3.org/2000/svg"
xmlns:xlink="http://www.w3.org/1999/xlink"
width="10px" height="5px"
xml:space="preserve">
<g id="PathID_5814" transform="matrix(1, 0, 0, 1, 4.4, 1.85)">
<path style="fill:#B5B5B5;fill-opacity:1" d="M1.1 1.85L0.35 1.9Q-0.5 1.95 -1.6 1.4L-3.5 0.55L-4.2 0.05Q-4.7 -0.9 -4 -1.35Q-3.1 -1.95 -1.7 -1.8L1 -1.25L3.6 -0.45Q4.05 -0.45 4.3 0.2L2.85 -0.35Q0.95 -0.1 -0.35 0.75Q-0.65 1.55 1.45 1.55Q2.05 0.9 0.95 0.4L1.1 1.85M0.95 0.4Q2.25 0.5 2.45 0.9L1.6 1.85L1.1 1.85L1.45 1.55M4.3 0.2Q4.55 0.8 3.9 1.05L2.95 1.4Q3.8 1.05 3.45 0.15Q3.8 0 3.6 -0.45" />
<path style="fill:#FFFFFF;fill-opacity:1" d="M3.45 0.15L2.85 -0.35L3.45 0.15Q3.8 1.05 2.95 1.4L1.6 1.85L2.45 0.9Q2.25 0.5 0.95 0.4Q2.05 0.9 1.45 1.55Q-0.65 1.55 -0.35 0.75Q0.95 -0.1 2.85 -0.35L3.6 -0.45Q3.8 0 3.45 0.15" />
<path style="fill:none;stroke-width:0.7;stroke-linecap:round;stroke-linejoin:round;stroke-miterlimit:3;stroke:#000000;stroke-opacity:0.301961" d="M3.6 -0.45L1 -1.25L-1.7 -1.8Q-3.1 -1.95 -4 -1.35Q-4.7 -0.9 -4.2 0.05L-3.5 0.55L-1.6 1.4Q-0.5 1.95 0.35 1.9L1.1 1.85L1.45 1.55Q2.05 0.9 0.95 0.4" />
<path style="fill:none;stroke-width:0.7;stroke-linecap:round;stroke-linejoin:round;stroke-miterlimit:3;stroke:#000000;stroke-opacity:0.301961" d="M1.6 1.85L2.95 1.4Q3.8 1.05 3.45 0.15L2.85 -0.35" />
<path style="fill:none;stroke-width:0.7;stroke-linecap:round;stroke-linejoin:round;stroke-miterlimit:3;stroke:#000000;stroke-opacity:0.301961" d="M2.95 1.4L3.9 1.05Q4.55 0.8 4.3 0.2Q4.05 -0.45 3.6 -0.45" />
<path style="fill:none;stroke-width:0.7;stroke-linecap:round;stroke-linejoin:round;stroke-miterlimit:3;stroke:#000000;stroke-opacity:0.301961" d="M1.6 1.85L1.1 1.85" />
</g>
<g id="PathID_5815" transform="matrix(1, 0, 0, 1, 4.4, 1.85)">
<path style="fill:#5B524B;fill-opacity:1" d="M4.4 0.2Q4.7 0.25 4.95 1.45L4 1.25L4 1.2L4 2Q2.65 1.55 2.25 1.6Q2.45 0.25 3.25 0.25L3.7 0.65L4 1.2L3.9 0.3Q4.1 0.1 4.4 0.2M4 1.2L3.7 0.65M4 1.2L4 1.25M0.4 1.4Q0.6 1 1 1L1.35 1.25L1.7 1.9L1.7 2.5L0.5 2.1Q0.25 1.8 0.4 1.4" />
<path style="fill:none;stroke-width:0.7;stroke-linecap:round;stroke-linejoin:round;stroke-miterlimit:3;stroke:#000000;stroke-opacity:0.4" d="M4.4 0.2Q4.7 0.25 4.95 1.45L4 1.25L4 2Q2.65 1.55 2.25 1.6Q2.45 0.25 3.25 0.25L3.7 0.65L3.9 0.3Q4.1 0.1 4.4 0.2z" />
<path style="fill:none;stroke-width:0.7;stroke-linecap:round;stroke-linejoin:round;stroke-miterlimit:3;stroke:#000000;stroke-opacity:0.4" d="M3.7 0.65L4 1.2L4 1.25" />
<path style="fill:none;stroke-width:0.7;stroke-linecap:round;stroke-linejoin:round;stroke-miterlimit:3;stroke:#000000;stroke-opacity:0.4" d="M0.4 1.4Q0.6 1 1 1L1.35 1.25L1.7 1.9L1.7 2.5L0.5 2.1Q0.25 1.8 0.4 1.4z" />
</g>
</svg>
