<?xml version="1.0" encoding="utf-8"?>
<svg version="1.1" id="Layer_1"
xmlns="http://www.w3.org/2000/svg"
xmlns:xlink="http://www.w3.org/1999/xlink"
width="20px" height="15px"
xml:space="preserve">
<g id="PathID_4704" transform="matrix(1, 0, 0, 1, 9.4, 8.15)">
<path style="fill:#D6D6D6;fill-opacity:1" d="M-6.7 3.75L-7.7 3.3Q-9.3 2.5 -9.3 1.85L-8.35 1.15L-7.75 0.3Q-7.35 -0.65 -7.25 -2.35L-7.2 -3.05L-6.85 -1.75Q-5.2 3.7 -2.65 1.7Q-1.5 0.8 -1.7 -0.15Q-1.85 -3.1 1.05 -6.75L1.75 -7.6L2.15 -7.5L1.55 -6.6Q-1.9 -1.45 -1.1 0.75Q-0.2 3.1 -0.7 4.25L-2.35 3.8L-4.7 4.1L-6.7 3.75" />
<path style="fill:#FFFFFF;fill-opacity:1" d="M7.65 5.25L6.7 5.55L3.9 5.85Q2.35 5.85 0.5 4.85L-0.7 4.25Q-0.2 3.1 -1.1 0.75Q-1.9 -1.45 1.55 -6.6L2.15 -7.5Q9.8 -5.35 8 5.15L7.65 5.25M-7.2 -3.05Q-7 -5.2 -6 -5.85L-4.2 -7.25Q-3.55 -7.9 -1.35 -8.05L1.75 -7.6L1.05 -6.75Q-1.85 -3.1 -1.7 -0.15Q-1.5 0.8 -2.65 1.7Q-5.2 3.7 -6.85 -1.75L-7.2 -3.05" />
<radialGradient
id="RadialGradID_1030" gradientUnits="userSpaceOnUse" gradientTransform="matrix(0.0180511, 0, 0, 0.0180511, 1.35, -2)" spreadMethod ="pad" cx="0" cy="0" r="819.2" fx="0" fy="0" >
<stop  offset="0.247059"  style="stop-color:#D5A68C;stop-opacity:1" />
<stop  offset="1"  style="stop-color:#D6C5B5;stop-opacity:1" />
</radialGradient>
<path style="fill:url(#RadialGradID_1030) " d="M-4.7 4.1L-2.35 3.8L-0.7 4.25L0.5 4.85Q2.35 5.85 3.9 5.85L6.7 5.55L7.65 5.25L8 5.15L10.55 6.55Q3.6 6.8 1.05 6.5L-3.8 5.6Q-6.05 5.1 -6.7 3.75L-4.7 4.1" />
<path style="fill:none;stroke-width:0.7;stroke-linecap:round;stroke-linejoin:round;stroke-miterlimit:3;stroke:#66FF00;stroke-opacity:0.4" d="M1.75 -7.6L2.15 -7.5" />
<path style="fill:none;stroke-width:0.7;stroke-linecap:round;stroke-linejoin:miter;stroke-miterlimit:5;stroke:#000000;stroke-opacity:0.4" d="M1.05 6.5L-3.8 5.6Q-6.05 5.1 -6.7 3.75" />
<path style="fill:none;stroke-width:0.7;stroke-linecap:round;stroke-linejoin:round;stroke-miterlimit:3;stroke:#666666;stroke-opacity:0.4" d="M-6.7 3.75L-7.7 3.3Q-9.3 2.5 -9.3 1.85L-8.35 1.15L-7.75 0.3Q-7.35 -0.65 -7.25 -2.35L-7.2 -3.05Q-7 -5.2 -6 -5.85L-4.2 -7.25Q-3.55 -7.9 -1.35 -8.05" />
<path style="fill:none;stroke-width:0.7;stroke-linecap:round;stroke-linejoin:round;stroke-miterlimit:3;stroke:#666666;stroke-opacity:0.4" d="M2.15 -7.5L1.55 -6.6Q-1.9 -1.45 -1.1 0.75Q-0.2 3.1 -0.7 4.25L0.5 4.85Q2.35 5.85 3.9 5.85L6.7 5.55L7.65 5.25L8 5.15" />
<path style="fill:none;stroke-width:0.7;stroke-linecap:round;stroke-linejoin:round;stroke-miterlimit:3;stroke:#666666;stroke-opacity:0.4" d="M-0.7 4.25L-2.35 3.8L-4.7 4.1L-6.7 3.75" />
</g>
</svg>
