<?xml version="1.0" encoding="utf-8"?>
<svg version="1.1" id="Layer_1"
xmlns="http://www.w3.org/2000/svg"
xmlns:xlink="http://www.w3.org/1999/xlink"
width="18px" height="17px"
xml:space="preserve">
<g id="PathID_5893" transform="matrix(1, 0, 0, 1, 9.2, 7.75)">
<path style="fill:#D2665A;fill-opacity:1" d="M-1.55 -2.55Q-0.7 -2.8 0.25 -2.55Q-0.7 -2.8 -1.55 -2.55L-2.55 -6.1L-2.15 -5.8L0.25 -2.55L0.5 -2.15L3.35 2.25L4.25 3.3L5.3 3.75L5.5 3.9Q5 6.3 3.1 7.85L0.65 8.45Q1.6 2.7 -1.55 -2.55" />
<path style="fill:#FF9E93;fill-opacity:1" d="M-4.25 -0.05Q-3.1 -2.15 -1.55 -2.55Q1.6 2.7 0.65 8.45Q-1.1 8.85 -5.25 7.3Q-9.2 3.2 -9.05 -0.65Q-8.9 -3.85 -8.55 -4.2L-6.45 -5.35Q-4 -6.45 -2.55 -6.1L-1.55 -2.55Q-3.1 -2.15 -4.25 -0.05" />
<path style="fill:#010002;fill-opacity:1" d="M-6.45 -5.35L-8.55 -4.2Q-8 -7 -6.45 -7.5Q-4.9 -7.95 -2.55 -6.1Q-4 -6.45 -6.45 -5.35" />
<path style="fill:none;stroke-width:0.7;stroke-linecap:round;stroke-linejoin:round;stroke-miterlimit:3;stroke:#000000;stroke-opacity:0.4" d="M5.3 3.75L5.5 3.9Q5 6.3 3.1 7.85L0.65 8.45Q-1.1 8.85 -5.25 7.3Q-9.2 3.2 -9.05 -0.65Q-8.9 -3.85 -8.55 -4.2Q-8 -7 -6.45 -7.5Q-4.9 -7.95 -2.55 -6.1L-2.15 -5.8" />
<path style="fill:none;stroke-width:0.7;stroke-linecap:round;stroke-linejoin:round;stroke-miterlimit:3;stroke:#000000;stroke-opacity:0.4" d="M-8.55 -4.2L-6.45 -5.35Q-4 -6.45 -2.55 -6.1" />
<path style="fill:none;stroke-width:0.7;stroke-linecap:round;stroke-linejoin:round;stroke-miterlimit:3;stroke:#000000;stroke-opacity:0.4" d="M-1.55 -2.55Q-0.7 -2.8 0.25 -2.55" />
<path style="fill:none;stroke-width:0.7;stroke-linecap:round;stroke-linejoin:round;stroke-miterlimit:3;stroke:#000000;stroke-opacity:0.4" d="M-1.55 -2.55Q-3.1 -2.15 -4.25 -0.05" />
</g>
<g id="PathID_5894" transform="matrix(1, 0, 0, 1, 9.2, 7.75)">
<path style="fill:#F7C7A1;fill-opacity:1" d="M0.8 7.4Q-3.5 8.15 -8.1 3.65Q-2.4 7.6 2.35 5.3Q1.85 4.05 2.1 2.85Q0.95 -1.75 -1.8 -5.45Q1.25 -3.9 3.95 0.05Q4.95 2.7 4.7 5.4L5.1 5.65Q5.1 6.65 0.8 7.4" />
<path style="fill:#701514;fill-opacity:1" d="M5.1 5.65Q6.4 6.5 5.15 7.4Q3.9 8.3 1.15 8.7Q-1.6 9.1 -4.35 7.75Q-7.15 6.35 -8.1 3.65Q-3.5 8.15 0.8 7.4Q5.1 6.65 5.1 5.65" />
<path style="fill:none;stroke-width:0.7;stroke-linecap:round;stroke-linejoin:round;stroke-miterlimit:3;stroke:#000000;stroke-opacity:0.4" d="M-8.1 3.65Q-2.4 7.6 2.35 5.3Q1.85 4.05 2.1 2.85Q0.95 -1.75 -1.8 -5.45Q1.25 -3.9 3.95 0.05Q4.95 2.7 4.7 5.4L5.1 5.65Q6.4 6.5 5.15 7.4Q3.9 8.3 1.15 8.7Q-1.6 9.1 -4.35 7.75Q-7.15 6.35 -8.1 3.65Q-3.5 8.15 0.8 7.4Q5.1 6.65 5.1 5.65" />
</g>
<g id="PathID_5895" transform="matrix(1, 0, 0, 1, 9.2, 7.75)">
<path style="fill:#701514;fill-opacity:1" d="M7.05 4.4Q6.5 5.85 5.85 6.25L5.45 6.4Q5.1 6.4 4.8 6.2L4.5 6Q3.5 5.25 3.6 4.05Q3.7 2.65 2.95 1.05L1.15 -1.8L-0.6 -4L-2.15 -5.8L3.45 -4.55Q6.75 -3.6 7.55 -1.05Q7.85 0.7 7.6 2.35L7.05 4.4" />
<path style="fill:none;stroke-width:0.7;stroke-linecap:round;stroke-linejoin:round;stroke-miterlimit:3;stroke:#000000;stroke-opacity:0.4" d="M7.6 2.35Q7.85 0.7 7.55 -1.05Q6.75 -3.6 3.45 -4.55L-2.15 -5.8L-0.6 -4L1.15 -1.8L2.95 1.05Q3.7 2.65 3.6 4.05Q3.5 5.25 4.5 6" />
</g>
</svg>
