<?xml version="1.0" encoding="utf-8"?>
<svg version="1.1" id="Layer_1"
xmlns="http://www.w3.org/2000/svg"
xmlns:xlink="http://www.w3.org/1999/xlink"
width="7px" height="5px"
xml:space="preserve">
<g id="PathID_5863" transform="matrix(1, 0, 0, 1, 2.15, 2.6)">
<path style="fill:#FFFFFF;fill-opacity:1" d="M0.85 0.1L0.05 0.2Q-0.65 0.25 -0.7 -0.95L-0.45 -1.7L1.45 -0.45Q1.35 -0.1 0.85 0.1M0.15 1.95L0.5 1.95L0.9 2L0 2.15Q-0.9 2.15 -1.55 1.5Q-2.15 0.85 -2.15 0.05L-2.15 0L-2.15 -0.2L-2.05 -0.7L-1.7 0.3L-1.65 0.25L-1.3 0.15L-1.15 0.15L-0.9 0.3L-0.75 0.6L-0.75 0.7L-0.8 0.95L-0.9 1.1L-1.3 1.25L-0.75 1.6L-0.3 1.8L0.15 1.95" />
<path style="fill:#000000;fill-opacity:0.4" d="M-1.85 -1.05L-1.95 -2.6L-0.45 -1.7L-1.7 -1.2L-1.85 -1.05M1.55 1.5L1.75 1.3L1.9 1.1L2.2 0L3.05 0.6L1.55 1.5" />
<path style="fill:#1D130E;fill-opacity:1" d="M-1.7 -1.2L-0.45 -1.7L-0.7 -0.95Q-0.65 0.25 0.05 0.2L0.85 0.1Q1.35 -0.1 1.45 -0.45L2.2 0L1.9 1.1L1.75 1.3L0.85 0.55L0.55 1.25Q0.2 1.7 -0.3 1.8L-0.75 1.6L-1.3 1.25L-0.9 1.1L-0.8 0.95L-0.75 0.7L-0.75 0.6L-0.9 0.3L-1.15 0.15L-1 -0.45L-0.95 -0.5L-1.95 -0.9L-1.85 -1.05L-1.7 -1.2" />
<path style="fill:#FFD262;fill-opacity:1" d="M-1.3 0.15L-1.65 0.25L-1.7 0.3L-2.05 -0.7L-1.95 -0.9L-0.95 -0.5L-1 -0.45L-1.15 0.15L-1.3 0.15M0.9 2L0.5 1.95L0.15 1.95L-0.3 1.8Q0.2 1.7 0.55 1.25L0.85 0.55L1.75 1.3L1.55 1.5L1.5 1.6L1.45 1.65L0.9 2" />
<path style="fill:none;stroke-width:0.7;stroke-linecap:round;stroke-linejoin:round;stroke-miterlimit:3;stroke:#000000;stroke-opacity:0.301961" d="M-1.95 -0.9L-1.85 -1.05" />
<path style="fill:none;stroke-width:0.7;stroke-linecap:round;stroke-linejoin:round;stroke-miterlimit:3;stroke:#000000;stroke-opacity:0.301961" d="M-1.95 -2.6L-0.45 -1.7L1.45 -0.45L2.2 0L3.05 0.6Q4.25 0.5 3.9 -0.6" />
<path style="fill:none;stroke-width:0.7;stroke-linecap:round;stroke-linejoin:round;stroke-miterlimit:3;stroke:#000000;stroke-opacity:0.301961" d="M-0.45 -1.7L-1.7 -1.2L-1.85 -1.05" />
<path style="fill:none;stroke-width:0.7;stroke-linecap:round;stroke-linejoin:round;stroke-miterlimit:3;stroke:#000000;stroke-opacity:0.301961" d="M-2.05 -0.7L-1.95 -0.9" />
<path style="fill:none;stroke-width:0.7;stroke-linecap:round;stroke-linejoin:round;stroke-miterlimit:3;stroke:#000000;stroke-opacity:0.301961" d="M-0.9 0.3L-0.75 0.6" />
<path style="fill:none;stroke-width:0.7;stroke-linecap:round;stroke-linejoin:round;stroke-miterlimit:3;stroke:#000000;stroke-opacity:0.301961" d="M1.75 1.3L1.9 1.1L2.2 0" />
<path style="fill:none;stroke-width:0.7;stroke-linecap:round;stroke-linejoin:round;stroke-miterlimit:3;stroke:#000000;stroke-opacity:0.301961" d="M0.9 2L0 2.15Q-0.9 2.15 -1.55 1.5Q-2.15 0.85 -2.15 0.05L-2.15 0L-2.15 -0.2L-2.05 -0.7" />
<path style="fill:none;stroke-width:0.7;stroke-linecap:round;stroke-linejoin:round;stroke-miterlimit:3;stroke:#000000;stroke-opacity:0.301961" d="M-1.7 0.3L-1.65 0.25" />
<path style="fill:none;stroke-width:0.7;stroke-linecap:round;stroke-linejoin:round;stroke-miterlimit:3;stroke:#000000;stroke-opacity:0.301961" d="M1.75 1.3L1.55 1.5" />
<path style="fill:none;stroke-width:0.7;stroke-linecap:round;stroke-linejoin:round;stroke-miterlimit:3;stroke:#000000;stroke-opacity:0.301961" d="M1.55 1.5L1.5 1.6L1.45 1.65L0.9 2" />
</g>
</svg>
