<?xml version="1.0" encoding="utf-8"?>
<svg version="1.1" id="Layer_1"
xmlns="http://www.w3.org/2000/svg"
xmlns:xlink="http://www.w3.org/1999/xlink"
width="20px" height="24px"
xml:space="preserve">
<g id="PathID_5274" transform="matrix(1, 0, 0, 1, 9.55, 13.65)">
<path style="fill:#2F98C0;fill-opacity:1" d="M-7 -7.05L-6 -8.8Q-5.2 -10.4 -5.65 -11.75L-6.65 -13.55Q-4.95 -11.4 -2.2 -10.6Q0.5 -9.8 1 -8.7Q1.45 -7.65 0.35 -6.2L-1.1 -4.25Q-5.3 -4.75 -7 -7.05" />
<path style="fill:#37CCEF;fill-opacity:1" d="M-7 -7.05Q-5.3 -4.75 -1.1 -4.25L-3.15 -1.3Q-4.3 0.3 -6.1 0.45Q-7.75 0.55 -9.3 -0.55Q-9.35 -2.6 -8.15 -4.95L-7 -7.05" />
<path style="fill:none;stroke-width:0.7;stroke-linecap:round;stroke-linejoin:round;stroke-miterlimit:3;stroke:#000000;stroke-opacity:0.4" d="M-1.1 -4.25L0.35 -6.2Q1.45 -7.65 1 -8.7Q0.5 -9.8 -2.2 -10.6Q-4.95 -11.4 -6.65 -13.55L-5.65 -11.75Q-5.2 -10.4 -6 -8.8L-7 -7.05" />
<path style="fill:none;stroke-width:0.7;stroke-linecap:round;stroke-linejoin:round;stroke-miterlimit:3;stroke:#000000;stroke-opacity:0.4" d="M-1.1 -4.25L-3.15 -1.3Q-4.3 0.3 -6.1 0.45Q-7.75 0.55 -9.3 -0.55Q-9.35 -2.6 -8.15 -4.95L-7 -7.05" />
</g>
<g id="PathID_5275" transform="matrix(1, 0, 0, 1, 9.55, 13.65)">
<path style="fill:#C5BC8E;fill-opacity:1" d="M-3.85 6.8Q6.3 9.65 7.9 -2.3Q8.1 -5.4 6.7 -9.15Q7.5 -8.55 8.6 -6.35Q9.65 -4.2 9.25 -1.55L8.65 4.05Q8.5 7.05 5.45 8.75Q2.4 10.45 -1.15 10.15Q-4.75 9.8 -7.2 7.25Q-9.65 4.65 -9.4 1.9Q-9.25 0.05 -7.85 -2.15Q-10.95 3.7 -3.85 6.8" />
<path style="fill:#FFEF5E;fill-opacity:1" d="M-2.55 -6L-3.1 -6.5L-2.1 -7.3L0.2 -9.15Q4.85 -10.5 6.7 -9.15Q8.1 -5.4 7.9 -2.3Q6.3 9.65 -3.85 6.8Q-10.95 3.7 -7.85 -2.15L-7.15 -2.85L-7.1 -2.9L-6 -3.9L-6.15 -3.65Q-0.1 -2.4 -4.15 -4.1L-5.05 -4.55L-5.3 -4.6L-5 -4.9L-4.9 -5L-4.2 -5.6Q1.2 -3.15 -2.55 -6" />
<path style="fill:#2681C3;fill-opacity:1" d="M-5.7 -4.2L-6 -3.9L-5.55 -4.45L-5.3 -4.6L-5.05 -4.55L-5.7 -4.2M-4.2 -5.6L-3.1 -6.5L-2.55 -6Q1.2 -3.15 -4.2 -5.6M-5.05 -4.55L-4.15 -4.1Q-0.1 -2.4 -6.15 -3.65L-6 -3.9L-5.7 -4.2L-5.3 -4.6" />
<path style="fill:none;stroke-width:0.7;stroke-linecap:round;stroke-linejoin:miter;stroke-miterlimit:5;stroke:#000000;stroke-opacity:0.4" d="M6.7 -9.15Q7.5 -8.55 8.6 -6.35Q9.65 -4.2 9.25 -1.55L8.65 4.05Q8.5 7.05 5.45 8.75Q2.4 10.45 -1.15 10.15Q-4.75 9.8 -7.2 7.25Q-9.65 4.65 -9.4 1.9Q-9.25 0.05 -7.85 -2.15L-7.15 -2.85" />
<path style="fill:none;stroke-width:0.7;stroke-linecap:round;stroke-linejoin:miter;stroke-miterlimit:5;stroke:#000000;stroke-opacity:0.4" d="M-7.1 -2.9L-6 -3.9" />
<path style="fill:none;stroke-width:0.7;stroke-linecap:round;stroke-linejoin:miter;stroke-miterlimit:5;stroke:#000000;stroke-opacity:0.4" d="M-5.3 -4.6L-5 -4.9L-4.9 -5L-4.2 -5.6L-3.1 -6.5L-2.1 -7.3L0.2 -9.15" />
<path style="fill:none;stroke-width:0.7;stroke-linecap:round;stroke-linejoin:miter;stroke-miterlimit:5;stroke:#000000;stroke-opacity:0.4" d="M-6 -3.9L-5.7 -4.2L-5.3 -4.6" />
</g>
<g id="PathID_5276" transform="matrix(1, 0, 0, 1, 9.55, 13.65)">
<path style="fill:#F5EEBF;fill-opacity:1" d="M5.8 -9.5Q6.75 -9.05 7.05 -8.05Q7.9 -5.05 7.95 -3.75Q8.15 0.05 6.05 3.85Q4.6 6.5 1.55 7.25Q-2.2 8.2 -6.4 5.4L-7.3 4.65L-7.8 4Q-8.65 2.8 -6.35 3.65Q-4.4 4.4 -2.75 4.45Q-1.1 4.5 0.85 1.85Q2.75 -0.85 4.05 -4.7Q5.3 -8.55 4.9 -9.8L5.8 -9.5" />
</g>
</svg>
