<?xml version="1.0" encoding="utf-8"?>
<svg version="1.1" id="Layer_1"
xmlns="http://www.w3.org/2000/svg"
xmlns:xlink="http://www.w3.org/1999/xlink"
width="38px" height="25px"
xml:space="preserve">
<g id="PathID_5102" transform="matrix(1, 0, 0, 1, 12.35, 12.85)">
<path style="fill:#758C84;fill-opacity:1" d="M5 -5.8L4.9 -5.85L4.85 -5.85L4.9 -5.9L5 -5.9L5.05 -5.9L5.1 -5.85L5.05 -5.85L5 -5.8" />
<path style="fill:none;stroke-width:0.7;stroke-linecap:round;stroke-linejoin:round;stroke-miterlimit:3;stroke:#C9D1BF;stroke-opacity:1" d="M5 -5.8L4.9 -5.85L4.85 -5.85L4.9 -5.9L5 -5.9L5.05 -5.9L5.1 -5.85L5.05 -5.85L5 -5.8z" />
</g>
<g id="PathID_5103" transform="matrix(1, 0, 0, 1, 12.35, 12.85)">
<path style="fill:#D3DBC9;fill-opacity:1" d="M5.85 -6.25Q5.35 -6.15 5.15 -5.65Q5 -4.85 5.15 -4.55Q5.35 -4 5.85 -3.8L6.4 -3.6L6.9 -3.6Q7.5 -3.8 7.75 -4.3Q8 -4.75 7.8 -5.3L7.3 -6L6.75 -6.25L5.85 -6.25M5.5 -7.7L4.9 -7.9Q4.55 -7.9 4.3 -7.7L4.1 -7.05L4.3 -6.5Q4.55 -6.25 4.9 -6.25Q5.3 -6.25 5.5 -6.5L5.75 -7.05L5.5 -7.7M-3 3.1L-3.35 2.9L-4.4 2.25L-4.6 2.1Q-4.25 1.55 -4.25 1.15Q-4.25 0.6 -4.6 0.15Q-5 -0.15 -5.5 -0.15L-6.15 0L-6.5 0.2Q-7.3 -1.05 -7 -2.4L-6.15 -6.2L-5.15 -7.4L-4.65 -7.9L-4.55 -7.95Q-2.2 -10.1 -2.85 -12.1Q-1.6 -11.15 -1.95 -9.75L-2.45 -8L-1.3 -9.85Q-0.45 -11.3 2.35 -11.15L2.05 -10.9Q-0.05 -9.3 -0.15 -8.3L1.8 -9.65L2.55 -9.65Q5.25 -9.5 6.75 -7.85L2.65 -9.4L2.5 -8.15L2.25 -7.3L0.85 -7.15L1 -6.8L2.25 -6.95L1.75 -5.05L0.4 -4.85L0.4 -4.45L1.65 -4.65L-0.05 -0.7L-1.4 -0.7L-1.55 -0.3L-0.2 -0.3L-1.85 2.65L-3.05 2.85L-2.95 3.1L-3 3.1M-2.85 3.15L-2 3.1L-2.15 3.5L-2.85 3.15M6.75 -7.85Q8.35 -6 9.15 -4.05Q9.65 -2.75 10.25 -2.05L10.8 -1.55L11.9 -0.7Q10.3 1.45 7.5 2.5L5.4 3.1L3.95 4L-1.4 3.85L-1.85 3.65L-1.7 3.15L-0.5 3.65L-0.1 3.5L-1.45 2.8L0.1 -0.2Q0.45 -0.3 1.4 0.45L1.65 0.2Q1.05 -0.5 0.35 -0.65L1.95 -4.5Q2.05 -4.95 3.15 -4L3.3 -4.4L2.1 -5L2.55 -6.85L3.5 -6.45L3.8 -6.75L2.55 -7.25L2.85 -8.45Q3.05 -9.4 2.85 -9.6L2.55 -9.65M3.55 -0.25L2.95 0.2Q2.7 1.1 3.55 1.2Q4.35 1.3 4.7 0.95L4.9 0.3L4.4 -0.15L3.55 -0.25M5.35 1L4.9 1.2L4.75 1.55L4.75 1.6L4.8 1.85L5.05 2L5.55 1.9L5.75 1.45L5.85 1.25L5.85 1.2Q5.7 0.85 5.35 1" />
<path style="fill:#758C84;fill-opacity:1" d="M6.75 -6.25L7.3 -6L7.8 -5.3Q8 -4.75 7.75 -4.3Q7.5 -3.8 6.9 -3.6L6.4 -3.6L5.85 -3.8Q5.35 -4 5.15 -4.55Q5 -4.85 5.15 -5.65Q5.35 -6.15 5.85 -6.25L6.75 -6.25M5.75 -7.05L5.5 -6.5Q5.3 -6.25 4.9 -6.25Q4.55 -6.25 4.3 -6.5L4.1 -7.05L4.3 -7.7Q4.55 -7.9 4.9 -7.9L5.5 -7.7L5.75 -7.05M5.3 -7.25L5.1 -7.35L4.9 -7.25L4.8 -7L4.9 -6.65Q5.05 -6.5 5.3 -6.65L5.35 -6.9L5.3 -7.25M-6.5 0.2L-6.15 0L-5.5 -0.15Q-5 -0.15 -4.6 0.15Q-4.25 0.6 -4.25 1.15Q-4.25 1.55 -4.6 2.1L-4.95 2.35L-5.5 2.55Q-6.1 2.55 -6.45 2.05Q-6.85 1.75 -6.85 1.15L-6.7 0.6L-6.5 0.2M6.9 -4.75L6.95 -4.45L7.05 -4.3L7.25 -4.2Q7.4 -4.2 7.5 -4.35L7.55 -4.7L7.5 -5.05L7.25 -5.2L7 -5.05L6.9 -4.75M-5.15 2.05Q-4.9 2.05 -4.9 1.4Q-4.9 0.75 -5.45 0.95Q-5.65 2 -5.15 2.05" />
<path style="fill:#8A9E96;fill-opacity:1" d="M5.35 -6.9L5.3 -6.65Q5.05 -6.5 4.9 -6.65L4.8 -7L4.9 -7.25L5.1 -7.35L5.3 -7.25L5.35 -6.9M7 -5.05L7.25 -5.2L7.5 -5.05L7.55 -4.7L7.5 -4.35Q7.4 -4.2 7.25 -4.2L7.05 -4.3L6.95 -4.45L6.9 -4.75L7 -5.05M-5.45 0.95Q-4.9 0.75 -4.9 1.4Q-4.9 2.05 -5.15 2.05Q-5.65 2 -5.45 0.95" />
<path style="fill:#445650;fill-opacity:1" d="M2.85 -9.6Q3.05 -9.4 2.85 -8.45L2.55 -7.25L3.8 -6.75L3.5 -6.45L2.55 -6.85L2.1 -5L3.3 -4.4L3.15 -4Q2.05 -4.95 1.95 -4.5L0.35 -0.65Q1.05 -0.5 1.65 0.2L1.4 0.45Q0.45 -0.3 0.1 -0.2L-1.45 2.8L-0.1 3.5L-0.5 3.65L-1.7 3.15L-1.85 3.65L-2.35 4.95L-1.8 5.65L-1.9 5.85L-2.45 5.25L-2.6 5.55L-2.65 6.15L-2.8 6.15L-2.9 5.8L-2.95 5.9L-2.75 5.15L-3.7 5.05L-3.7 4.8L-2.65 4.8L-2.15 3.5L-2 3.1L-2.85 3.15L-3 3.2L-2.95 3.1L-3.05 2.85L-1.85 2.65L-0.2 -0.3L-1.55 -0.3L-1.4 -0.7L-0.05 -0.7L1.65 -4.65L0.4 -4.45L0.4 -4.85L1.75 -5.05L2.25 -6.95L1 -6.8L0.85 -7.15L2.25 -7.3L2.5 -8.15L2.65 -9.4L2.55 -9.65L2.85 -9.6M24.95 -7.9L24.9 -7.9L24.95 -7.9M20.4 3.2L20.35 3.15L20.35 3.1L20.4 3.2" />
<path style="fill:#ADB3A5;fill-opacity:1" d="M1.8 -9.65L-0.15 -8.3Q-0.05 -9.3 2.05 -10.9Q1.6 -10.45 1.8 -9.65M-1.3 -9.85L-2.45 -8L-1.95 -9.75Q-1.6 -11.15 -2.85 -12.1L-3 -12.5Q-0.75 -11.15 -1.3 -9.85M-2.15 3.5L-2.65 4.8L-3.7 4.8L-3.7 5.05L-2.75 5.15L-2.95 5.9L-2.9 5.8L-2.8 6.15L-5.05 5.3L-7 3.65Q-7.8 2.7 -7.75 -0.65Q-7.7 -4 -6.15 -6.2L-7 -2.4Q-7.3 -1.05 -6.5 0.2L-6.7 0.6L-6.85 1.15Q-6.85 1.75 -6.45 2.05Q-6.1 2.55 -5.5 2.55L-4.95 2.35L-4.6 2.1L-4.4 2.25L-3.35 2.9L-3 3.1L-2.95 3.1L-3 3.2L-2.85 3.15L-2.15 3.5M11.9 -0.7L12.1 0.7Q12.05 1.65 11.6 2.5Q10.85 3.9 9 5.1L4.55 7.55L3.95 7.8L2.5 8.25Q-0.95 6.4 -2.4 6.2L-2.65 6.15L-2.6 5.55L-2.45 5.25L-1.9 5.85L-1.8 5.65L-2.35 4.95L-1.85 3.65L-1.4 3.85L3.95 4L5.4 3.1L7.5 2.5Q10.3 1.45 11.9 -0.7" />
<path style="fill:#ECF0F0;fill-opacity:1" d="M4.4 -0.15L4.9 0.3L4.7 0.95Q4.35 1.3 3.55 1.2Q2.7 1.1 2.95 0.2L3.55 -0.25L4.4 -0.15M5.85 1.2L5.85 1.25L5.75 1.45L5.55 1.9L5.05 2L4.8 1.85L4.75 1.6L4.75 1.55L4.9 1.2L5.35 1Q5.7 0.85 5.85 1.2" />
<path style="fill:none;stroke-width:0.7;stroke-linecap:round;stroke-linejoin:round;stroke-miterlimit:3;stroke:#C9D1BF;stroke-opacity:1" d="M6.75 -6.25L7.3 -6L7.8 -5.3Q8 -4.75 7.75 -4.3Q7.5 -3.8 6.9 -3.6L6.4 -3.6L5.85 -3.8Q5.35 -4 5.15 -4.55Q5 -4.85 5.15 -5.65Q5.35 -6.15 5.85 -6.25L6.75 -6.25z" />
<path style="fill:none;stroke-width:0.7;stroke-linecap:round;stroke-linejoin:round;stroke-miterlimit:3;stroke:#C9D1BF;stroke-opacity:1" d="M5.75 -7.05L5.5 -6.5Q5.3 -6.25 4.9 -6.25Q4.55 -6.25 4.3 -6.5L4.1 -7.05L4.3 -7.7Q4.55 -7.9 4.9 -7.9L5.5 -7.7L5.75 -7.05z" />
<path style="fill:none;stroke-width:0.7;stroke-linecap:round;stroke-linejoin:miter;stroke-miterlimit:5;stroke:#000000;stroke-opacity:0.4" d="M2.55 -9.65L1.8 -9.65" />
<path style="fill:none;stroke-width:0.7;stroke-linecap:round;stroke-linejoin:miter;stroke-miterlimit:5;stroke:#000000;stroke-opacity:0.4" d="M2.05 -10.9L2.35 -11.15Q-0.45 -11.3 -1.3 -9.85" />
<path style="fill:none;stroke-width:0.7;stroke-linecap:round;stroke-linejoin:miter;stroke-miterlimit:5;stroke:#000000;stroke-opacity:0.4" d="M-2.85 -12.1Q-2.2 -10.1 -4.55 -7.95L-4.65 -7.9L-5.15 -7.4L-6.15 -6.2" />
<path style="fill:none;stroke-width:0.7;stroke-linecap:round;stroke-linejoin:round;stroke-miterlimit:3;stroke:#C9D1BF;stroke-opacity:1" d="M-6.5 0.2L-6.15 0L-5.5 -0.15Q-5 -0.15 -4.6 0.15Q-4.25 0.6 -4.25 1.15Q-4.25 1.55 -4.6 2.1" />
<path style="fill:none;stroke-width:0.7;stroke-linecap:round;stroke-linejoin:miter;stroke-miterlimit:5;stroke:#000000;stroke-opacity:0.4" d="M-2.8 6.15L-2.65 6.15" />
<path style="fill:none;stroke-width:0.7;stroke-linecap:round;stroke-linejoin:miter;stroke-miterlimit:5;stroke:#000000;stroke-opacity:0.4" d="M2.55 -9.65Q5.25 -9.5 6.75 -7.85Q8.35 -6 9.15 -4.05Q9.65 -2.75 10.25 -2.05L10.8 -1.55L11.9 -0.7L12.1 0.7Q12.05 1.65 11.6 2.5Q10.85 3.9 9 5.1L4.55 7.55" />
<path style="fill:none;stroke-width:0.7;stroke-linecap:round;stroke-linejoin:miter;stroke-miterlimit:5;stroke:#000000;stroke-opacity:0.4" d="M-2.4 6.2L-2.65 6.15" />
<path style="fill:none;stroke-width:0.7;stroke-linecap:round;stroke-linejoin:miter;stroke-miterlimit:5;stroke:#000000;stroke-opacity:0.4" d="M2.05 -10.9Q1.6 -10.45 1.8 -9.65" />
<path style="fill:none;stroke-width:0.7;stroke-linecap:round;stroke-linejoin:miter;stroke-miterlimit:5;stroke:#000000;stroke-opacity:0.4" d="M-2.8 6.15L-5.05 5.3L-7 3.65Q-7.8 2.7 -7.75 -0.65Q-7.7 -4 -6.15 -6.2" />
<path style="fill:none;stroke-width:0.7;stroke-linecap:round;stroke-linejoin:miter;stroke-miterlimit:5;stroke:#000000;stroke-opacity:0.4" d="M-2.85 -12.1L-3 -12.5Q-0.75 -11.15 -1.3 -9.85" />
<path style="fill:none;stroke-width:0.7;stroke-linecap:round;stroke-linejoin:round;stroke-miterlimit:3;stroke:#C9D1BF;stroke-opacity:1" d="M-4.6 2.1L-4.95 2.35L-5.5 2.55Q-6.1 2.55 -6.45 2.05Q-6.85 1.75 -6.85 1.15L-6.7 0.6L-6.5 0.2" />
</g>
<g id="PathID_5104" transform="matrix(1, 0, 0, 1, 12.35, 12.85)">
<path style="fill:none;stroke-width:0.7;stroke-linecap:round;stroke-linejoin:miter;stroke-miterlimit:5;stroke:#000000;stroke-opacity:0.501961" d="M4.25 2.8Q-5.05 2.95 -12.1 7.9" />
</g>
<g id="PathID_5105" transform="matrix(1, 0, 0, 1, 12.35, 12.85)">
<path style="fill:none;stroke-width:0.7;stroke-linecap:round;stroke-linejoin:miter;stroke-miterlimit:5;stroke:#000000;stroke-opacity:0.501961" d="M5.75 3.75Q-2 5.95 -6.8 11.65" />
</g>
<g id="PathID_5106" transform="matrix(1, 0, 0, 1, 12.35, 12.85)">
<path style="fill:#8DA59C;fill-opacity:1" d="M9.5 -0.35Q10.35 -0.85 11.25 -0.8Q10.9 0.35 9.5 -0.35" />
<path style="fill:#7E938B;fill-opacity:1" d="M11.55 -0.8L11.9 -0.15Q11 0.95 11.25 1.3L10.75 1.6Q10.95 1 10.15 0.6Q9.15 0.6 9 -0.05L9.5 -0.35Q10.9 0.35 11.25 -0.8L11.55 -0.8" />
<path style="fill:#687972;fill-opacity:1" d="M10.4 1.75Q10.05 0.6 9.05 0.9L8.7 0.2L9 -0.05Q9.15 0.6 10.15 0.6Q10.95 1 10.75 1.6L10.4 1.75" />
<path style="fill:none;stroke-width:0.7;stroke-linecap:round;stroke-linejoin:round;stroke-miterlimit:3;stroke:#000000;stroke-opacity:0.301961" d="M9.5 -0.35L9 -0.05" />
<path style="fill:none;stroke-width:0.7;stroke-linecap:round;stroke-linejoin:round;stroke-miterlimit:3;stroke:#000000;stroke-opacity:0.301961" d="M10.75 1.6L11.25 1.3Q11 0.95 11.9 -0.15L11.55 -0.8L11.25 -0.8Q10.35 -0.85 9.5 -0.35" />
<path style="fill:none;stroke-width:0.7;stroke-linecap:round;stroke-linejoin:round;stroke-miterlimit:3;stroke:#000000;stroke-opacity:0.301961" d="M9 -0.05L8.7 0.2L9.05 0.9Q10.05 0.6 10.4 1.75L10.75 1.6" />
</g>
</svg>
