<?xml version="1.0" encoding="utf-8"?>
<svg version="1.1" id="Layer_1"
xmlns="http://www.w3.org/2000/svg"
xmlns:xlink="http://www.w3.org/1999/xlink"
width="7px" height="18px"
xml:space="preserve">
<g id="PathID_5560" transform="matrix(1, 0, 0, 1, 4.7, 10)">
<path style="fill:#AFB2D1;fill-opacity:1" d="M-2.55 -3.2Q-1.7 -3.05 -0.6 -2.05L0.95 -3.7L1.2 -3.85L1.35 -1.1L1.35 0L1.35 4.45Q1.1 7.7 -0.2 7.85Q-0.8 7.95 -1.35 5.85L-2.05 2.9L-2.9 1.4Q-3.9 -0.3 -3.7 -0.95Q-3.65 -1.45 -3.05 -1.4L-4.15 -2.5Q-3.45 -3.35 -2.55 -3.2" />
<path style="fill:#C6C7CC;fill-opacity:1" d="M1.2 -3.85L0.95 -3.7L-0.6 -2.05Q-1.7 -3.05 -2.55 -3.2Q-3.45 -3.35 -4.15 -2.5Q-5.4 -4.55 -2.85 -4.45Q-3.7 -4.8 -3.85 -6.4Q-3.95 -8.05 -1.7 -7.2Q-2.2 -8.95 -1.85 -9.6Q-1.55 -10.3 -0.25 -8.85Q1 -7.4 1.2 -3.85" />
<path style="fill:none;stroke-width:0.7;stroke-linecap:round;stroke-linejoin:round;stroke-miterlimit:3;stroke:#000000;stroke-opacity:0.301961" d="M-4.15 -2.5L-3.05 -1.4Q-3.65 -1.45 -3.7 -0.95Q-3.9 -0.3 -2.9 1.4L-2.05 2.9L-1.35 5.85Q-0.8 7.95 -0.2 7.85Q1.1 7.7 1.35 4.45L1.35 0L1.35 -1.1L1.2 -3.85" />
<path style="fill:none;stroke-width:0.7;stroke-linecap:round;stroke-linejoin:round;stroke-miterlimit:3;stroke:#000000;stroke-opacity:0.301961" d="M-4.15 -2.5Q-5.4 -4.55 -2.85 -4.45Q-3.7 -4.8 -3.85 -6.4Q-3.95 -8.05 -1.7 -7.2Q-2.2 -8.95 -1.85 -9.6Q-1.55 -10.3 -0.25 -8.85Q1 -7.4 1.2 -3.85" />
</g>
<g id="PathID_5561" transform="matrix(1, 0, 0, 1, 4.7, 10)">
<path style="fill:#E0B9D4;fill-opacity:1" d="M-1.6 -6.3L-1.15 -5.55L-0.45 -5.55Q0.05 -5.5 -0.15 -5.15L-0.6 -4.5L-0.4 -3.7Q-0.3 -3.25 -0.85 -3.4L-1.55 -3.6L-2.05 -3.1Q-2.45 -2.95 -2.55 -3.25L-2.6 -4.15L-3.2 -4.65Q-3.5 -4.95 -3.15 -5.2L-2.35 -5.45L-2.05 -6.2Q-1.9 -6.55 -1.6 -6.3" />
<path style="fill:none;stroke-width:0.7;stroke-linecap:round;stroke-linejoin:round;stroke-miterlimit:3;stroke:#000000;stroke-opacity:0.301961" d="M-1.6 -6.3L-1.15 -5.55L-0.45 -5.55Q0.05 -5.5 -0.15 -5.15L-0.6 -4.5L-0.4 -3.7Q-0.3 -3.25 -0.85 -3.4L-1.55 -3.6L-2.05 -3.1Q-2.45 -2.95 -2.55 -3.25L-2.6 -4.15L-3.2 -4.65Q-3.5 -4.95 -3.15 -5.2L-2.35 -5.45L-2.05 -6.2Q-1.9 -6.55 -1.6 -6.3z" />
</g>
<g id="PathID_5562" transform="matrix(1, 0, 0, 1, 4.7, 10)">
<path style="fill:#CAB9DD;fill-opacity:1" d="M-3.35 -0.95Q-3.6 -1.2 -3.3 -1.4L-2.65 -1.6L-2.4 -2.25L-2 -2.3L-1.65 -1.7L-1.05 -1.7Q-0.65 -1.65 -0.8 -1.35L-1.2 -0.85L-1.05 -0.15Q-0.95 0.2 -1.4 0.1L-2 -0.1L-2.4 0.3Q-2.7 0.45 -2.8 0.2L-2.85 -0.55L-3.35 -0.95" />
<path style="fill:none;stroke-width:0.7;stroke-linecap:round;stroke-linejoin:round;stroke-miterlimit:3;stroke:#000000;stroke-opacity:0.301961" d="M-3.35 -0.95Q-3.6 -1.2 -3.3 -1.4L-2.65 -1.6L-2.4 -2.25L-2 -2.3L-1.65 -1.7L-1.05 -1.7Q-0.65 -1.65 -0.8 -1.35L-1.2 -0.85L-1.05 -0.15Q-0.95 0.2 -1.4 0.1L-2 -0.1L-2.4 0.3Q-2.7 0.45 -2.8 0.2L-2.85 -0.55L-3.35 -0.95z" />
</g>
</svg>
