<?xml version="1.0" encoding="utf-8"?>
<svg version="1.1" id="Layer_1"
xmlns="http://www.w3.org/2000/svg"
xmlns:xlink="http://www.w3.org/1999/xlink"
width="17px" height="17px"
xml:space="preserve">
<g id="PathID_4908" transform="matrix(1, 0, 0, 1, 8.55, 14.5)">
<path style="fill:#CC2525;fill-opacity:1" d="M2.35 -6.95L1 -6.45Q-0.4 -5.8 -1.75 -4.7L-4.7 -1.55L-7.55 1.6Q-8.45 -1.4 -8.4 -3.75L-8.35 -5L-8.2 -7L-4.85 -5.95L-4.1 -9.8L-0.45 -8.5L0 -10.1Q-0.2 -7.35 2.35 -6.95" />
<path style="fill:#E92F2F;fill-opacity:1" d="M0 -10.1L0.45 -11.95L3.35 -10.7Q3.75 -11.7 3.9 -13.7L3.95 -14.2Q6.8 -11.6 7.3 -8.35L7.4 -7.85L3.35 -7.2L2.35 -6.95Q-0.2 -7.35 0 -10.1" />
<path style="fill:none;stroke-width:0.7;stroke-linecap:round;stroke-linejoin:miter;stroke-miterlimit:5;stroke:#000000;stroke-opacity:0.4" d="M0 -10.1L0.45 -11.95L3.35 -10.7Q3.75 -11.7 3.9 -13.7L3.95 -14.2Q6.8 -11.6 7.3 -8.35L7.4 -7.85L3.35 -7.2L2.35 -6.95L1 -6.45Q-0.4 -5.8 -1.75 -4.7L-4.7 -1.55L-7.55 1.6Q-8.45 -1.4 -8.4 -3.75L-8.35 -5L-8.2 -7L-4.85 -5.95L-4.1 -9.8L-0.45 -8.5L0 -10.1z" />
</g>
</svg>
