<?xml version="1.0" encoding="utf-8"?>
<svg version="1.1" id="Layer_1"
xmlns="http://www.w3.org/2000/svg"
xmlns:xlink="http://www.w3.org/1999/xlink"
width="24px" height="21px"
xml:space="preserve">
<g id="PathID_5834" transform="matrix(1, 0, 0, 1, 9.6, 9.95)">
<path style="fill:#948276;fill-opacity:1" d="M2.35 -8.15L1.45 -8.65L1.2 -8.75L0.2 -9.15L1.55 -9.45Q5.2 -10.25 6.7 -9.15L8.85 -5.9L7.55 -6.55Q6.7 -7.35 5.2 -7L3.85 -6.5L2.35 -8.15M-7.85 -2.15Q-9.5 0.95 -8.25 3.3L-7.3 4.55Q-6.35 5.5 -3.1 7.25L-3.25 9.65Q-4.85 9.1 -7.45 6.95Q-9.65 4.5 -9.4 1.9Q-9.25 0.05 -7.85 -2.15" />
<path style="fill:#FFFFFF;fill-opacity:1" d="M10.35 -5Q11.65 -4.6 13.55 -6.05Q13.35 -1.75 10.35 -2.65Q10.6 -2.05 12.4 -1.6Q11.95 -0.95 11.2 -0.8Q10.4 -0.65 9.65 -1.05L9.25 -1.25L9.05 0.65L9.05 0.7L9.05 0.7Q7.05 4.3 6.15 5.2Q3.5 7.75 1.4 7.7L-3.1 7.25L-1.5 2.3Q-0.2 -1.3 1.95 -4.25L3.85 -6.5L5.2 -7Q6.7 -7.35 7.55 -6.55L8.85 -5.9Q9 -5.45 10.35 -5M9.05 0.7L9.05 0.65" />
<path style="fill:#D5BBAE;fill-opacity:1" d="M-7.3 4.55L-8.25 3.3Q-9.5 0.95 -7.85 -2.15L-5.45 -4.55Q-3.05 -6.75 -1 -8.2L-1.5 -7.85L-1.35 -8L0.2 -9.15L1.2 -8.75L1.45 -8.65L2.35 -8.15L3.85 -6.5L1.95 -4.25Q-0.2 -1.3 -1.5 2.3L-3.1 7.25Q-6.35 5.5 -7.3 4.55" />
<path style="fill:#B5B5B5;fill-opacity:1" d="M8.7 3.85Q8.55 5.3 7.95 6.45Q7.15 7.8 5.45 8.75Q2.4 10.45 -1.15 10.15L-3.25 9.65L-3.1 7.25L1.4 7.7Q3.5 7.75 6.15 5.2Q7.05 4.3 9.05 0.7L8.7 3.85" />
<path style="fill:none;stroke-width:0.7;stroke-linecap:round;stroke-linejoin:miter;stroke-miterlimit:5;stroke:#000000;stroke-opacity:0.4" d="M8.85 -5.9L6.7 -9.15Q5.2 -10.25 1.55 -9.45L0.2 -9.15" />
<path style="fill:none;stroke-width:0.7;stroke-linecap:round;stroke-linejoin:miter;stroke-miterlimit:5;stroke:#000000;stroke-opacity:0.4" d="M9.05 0.7L9.05 0.65L9.25 -1.25L9.65 -1.05Q10.4 -0.65 11.2 -0.8Q11.95 -0.95 12.4 -1.6Q10.6 -2.05 10.35 -2.65Q13.35 -1.75 13.55 -6.05Q11.65 -4.6 10.35 -5Q9 -5.45 8.85 -5.9" />
<path style="fill:none;stroke-width:0.7;stroke-linecap:round;stroke-linejoin:miter;stroke-miterlimit:5;stroke:#000000;stroke-opacity:0.4" d="M-3.25 9.65L-1.15 10.15Q2.4 10.45 5.45 8.75Q7.15 7.8 7.95 6.45Q8.55 5.3 8.7 3.85L9.05 0.7" />
<path style="fill:none;stroke-width:0.7;stroke-linecap:round;stroke-linejoin:miter;stroke-miterlimit:5;stroke:#000000;stroke-opacity:0.4" d="M0.2 -9.15L-1.35 -8L-1.5 -7.85L-1 -8.2Q-3.05 -6.75 -5.45 -4.55L-7.85 -2.15" />
<path style="fill:none;stroke-width:0.7;stroke-linecap:round;stroke-linejoin:miter;stroke-miterlimit:5;stroke:#000000;stroke-opacity:0.4" d="M-3.25 9.65Q-4.85 9.1 -7.45 6.95Q-9.65 4.5 -9.4 1.9Q-9.25 0.05 -7.85 -2.15" />
</g>
</svg>
