<?xml version="1.0" encoding="utf-8"?>
<svg version="1.1" id="Layer_1"
xmlns="http://www.w3.org/2000/svg"
xmlns:xlink="http://www.w3.org/1999/xlink"
width="9px" height="8px"
xml:space="preserve">
<g id="PathID_4968" transform="matrix(1, 0, 0, 1, 3.9, 3.8)">
<linearGradient
id="LinearGradID_1175" gradientUnits="userSpaceOnUse" gradientTransform="matrix(-0.00421143, -0.00260925, 0.0020752, -0.00335693, 0.5, -0.05)" spreadMethod ="pad" x1="-819.2" y1="0" x2="819.2" y2="0" >
<stop  offset="0" style="stop-color:#AFD7F6;stop-opacity:1" />
<stop  offset="1" style="stop-color:#D5EBF3;stop-opacity:1" />
</linearGradient>
<path style="fill:url(#LinearGradID_1175) " d="M3.05 -1.55Q3.4 -2 4.1 -1.15L4.2 0L4.2 0.8Q2.85 3.05 1.95 2.6L1.25 1.85L0.45 1.2L-0.1 0.75L-0.65 0.7L-2 0.35Q-3.2 0 -3.7 -0.6L-3.8 -0.85Q-4.15 -2.25 -3.5 -3.1Q-2.2 -4 -0.9 -3.7Q0.55 -3.4 1.4 -2.45L1.5 -2.3L2.25 -1.35L2.5 -1.15Q2.6 -1.1 2.85 -1.3L3.05 -1.55M2.7 1.1Q3.25 -0.3 4.2 0Q3.25 -0.3 2.7 1.1" />
<path style="fill:#8DBDDE;fill-opacity:1" d="M2.85 -1.3Q3.05 -2.4 3.45 -2.1L4 -1.6L4 -1.3L4.05 -1.25L4.1 -1.15Q3.4 -2 3.05 -1.55L2.85 -1.3M4.2 0.8Q3.9 2.8 3.35 3.35L2.7 3.75Q2.05 3.9 1.3 3.3L0.05 2.45L-0.65 2L-1.3 1.6L-1.6 1.45L-2.55 0.85L-3.55 -0.15L-3.7 -0.6Q-3.2 0 -2 0.35L-0.65 0.7L-0.1 0.75L0.45 1.2L1.25 1.85L1.95 2.6Q2.85 3.05 4.2 0.8" />
<path style="fill:#78583A;fill-opacity:1" d="M4.05 -1.25L4.15 -1.1L4.1 -1.15L4.05 -1.25" />
<path style="fill:none;stroke-width:0.7;stroke-linecap:round;stroke-linejoin:round;stroke-miterlimit:3;stroke:#000000;stroke-opacity:0.301961" d="M2.5 -1.15Q2.6 -1.1 2.85 -1.3Q3.05 -2.4 3.45 -2.1L4 -1.6L4 -1.3L4.05 -1.25L4.15 -1.1L4.1 -1.15L4.2 0L4.2 0.8Q3.9 2.8 3.35 3.35L2.7 3.75Q2.05 3.9 1.3 3.3L0.05 2.45L-0.65 2L-1.3 1.6L-1.6 1.45L-2.55 0.85L-3.55 -0.15L-3.7 -0.6L-3.8 -0.85" />
<path style="fill:none;stroke-width:0.7;stroke-linecap:round;stroke-linejoin:round;stroke-miterlimit:3;stroke:#000000;stroke-opacity:0.301961" d="M4.05 -1.25L4.1 -1.15Q3.4 -2 3.05 -1.55L2.85 -1.3" />
<path style="fill:none;stroke-width:0.7;stroke-linecap:round;stroke-linejoin:round;stroke-miterlimit:3;stroke:#000000;stroke-opacity:0.301961" d="M4.2 0Q3.25 -0.3 2.7 1.1" />
</g>
</svg>
