<?xml version="1.0" encoding="utf-8"?>
<svg version="1.1" id="Layer_1"
xmlns="http://www.w3.org/2000/svg"
xmlns:xlink="http://www.w3.org/1999/xlink"
width="23px" height="50px"
xml:space="preserve">
<g id="PathID_5258" transform="matrix(1, 0, 0, 1, 14.4, 30.45)">
<path style="fill:#3BC6E8;fill-opacity:1" d="M-3.75 -15.65Q-6.7 -25.7 -11.4 -25.8L-11.45 -26.35Q-11.6 -27.8 -12.1 -29.7Q-12.45 -31.5 -8.8 -28.05Q-6.7 -26.05 -5.75 -24.7Q-4.3 -22.55 -3.75 -19.75L-2.85 -16L-2.35 -14.7L-3.75 -15.65M-4.55 -14.95L-4.85 -14.45Q-6.4 -15.65 -9 -15.95L-12.25 -15.95L-13.45 -16.05Q-14.35 -16.3 -14.25 -17.25L-13.85 -18.7Q-10.2 -19.8 -4.55 -14.95M-4.45 -15.35Q-9.2 -20.85 -12.95 -20.2L-12.25 -21.3L-11.55 -23.35Q-6.25 -20.45 -4.45 -15.35M-4.55 -14.95L-4.45 -15.35L-4.55 -14.95" />
<path style="fill:#FCEA57;fill-opacity:1" d="M-4.55 -14.95L-4.45 -15.35Q-4.35 -15.75 -3.85 -15.7L-3.75 -15.65L-2.35 -14.7Q-2.6 -12.9 -2.3 -11.6Q-2.1 -10.8 -2 -11.05L-1.65 -12.4L-1.7 -13.15L-1.55 -12.85Q-0.5 -10.35 -0.1 -7.4Q0.35 -4.5 -0.05 -2.4Q-0.45 -0.15 -0.45 1.95Q-1.75 3.55 -1.9 5.6Q-2 6.9 -1.6 6.9L-0.85 5.7L-0.2 5.05L0.2 7.25Q0.85 9.7 3.5 11.9Q4.85 13.05 7 13.65Q7.85 14.9 8.05 16.05Q1.05 15.05 -1.65 9.1Q-3.35 5.75 -3.1 1.85L-2.4 -1.85Q-1.5 -7.05 -3.2 -12Q-3.75 -13.55 -4.85 -14.45L-4.55 -14.95" />
<path style="fill:#389FC3;fill-opacity:1" d="M-3.85 -15.7Q-4.35 -15.75 -4.45 -15.35L-4.55 -14.95Q-10.2 -19.8 -13.85 -18.7L-13.75 -19L-12.95 -20.2Q-9.2 -20.85 -4.45 -15.35Q-6.25 -20.45 -11.55 -23.35Q-11.35 -24.55 -11.4 -25.8Q-6.7 -25.7 -3.75 -15.65L-3.85 -15.7" />
<path style="fill:#2594BD;fill-opacity:1" d="M-2.35 -14.7L-1.7 -13.15L-1.65 -12.4L-2 -11.05Q-2.1 -10.8 -2.3 -11.6Q-2.6 -12.9 -2.35 -14.7M-0.45 1.95L-0.2 5.05L-0.85 5.7L-1.6 6.9Q-2 6.9 -1.9 5.6Q-1.75 3.55 -0.45 1.95" />
<path style="fill:#FEFAD7;fill-opacity:1" d="M3.1 15.9Q-0.4 14.55 -1.85 11Q-3.3 7.4 -3.5 4.15L-3.1 1.85Q-3.35 5.75 -1.65 9.1Q1.05 15.05 8.05 16.05L8.1 16.85L8.1 16.9Q6.6 17.2 3.1 15.9" />
<path style="fill:#D0BF93;fill-opacity:1" d="M8.1 16.9Q7.95 18.35 5.6 19.05Q1.25 17.95 -2.05 13.85Q-4.3 11.1 -3.95 6.55L-3.5 4.15Q-3.3 7.4 -1.85 11Q-0.4 14.55 3.1 15.9Q6.6 17.2 8.1 16.9" />
<path style="fill:none;stroke-width:0.7;stroke-linecap:round;stroke-linejoin:round;stroke-miterlimit:3;stroke:#000000;stroke-opacity:0.4" d="M-2.35 -14.7L-2.85 -16L-3.75 -19.75Q-4.3 -22.55 -5.75 -24.7Q-6.7 -26.05 -8.8 -28.05Q-12.45 -31.5 -12.1 -29.7Q-11.6 -27.8 -11.45 -26.35L-11.4 -25.8" />
<path style="fill:none;stroke-width:0.7;stroke-linecap:round;stroke-linejoin:round;stroke-miterlimit:3;stroke:#000000;stroke-opacity:0.4" d="M-2.35 -14.7L-1.7 -13.15L-1.55 -12.85Q-0.5 -10.35 -0.1 -7.4Q0.35 -4.5 -0.05 -2.4Q-0.45 -0.15 -0.45 1.95L-0.2 5.05L0.2 7.25Q0.85 9.7 3.5 11.9Q4.85 13.05 7 13.65Q7.85 14.9 8.05 16.05L8.1 16.85L8.1 16.9Q7.95 18.35 5.6 19.05Q1.25 17.95 -2.05 13.85Q-4.3 11.1 -3.95 6.55L-3.5 4.15L-3.1 1.85L-2.4 -1.85Q-1.5 -7.05 -3.2 -12Q-3.75 -13.55 -4.85 -14.45Q-6.4 -15.65 -9 -15.95L-12.25 -15.95L-13.45 -16.05Q-14.35 -16.3 -14.25 -17.25L-13.85 -18.7L-13.75 -19L-12.95 -20.2L-12.25 -21.3L-11.55 -23.35Q-11.35 -24.55 -11.4 -25.8" />
</g>
</svg>
