<?xml version="1.0" encoding="utf-8"?>
<svg version="1.1" id="Layer_1"
xmlns="http://www.w3.org/2000/svg"
xmlns:xlink="http://www.w3.org/1999/xlink"
width="10px" height="8px"
xml:space="preserve">
<g id="PathID_5744" transform="matrix(1, 0, 0, 1, 4.95, 3.8)">
<path style="fill:#7DD2F1;fill-opacity:1" d="M0.05 1.75Q-0.75 2.5 -1.25 2.35L-0.8 1Q0.3 -1.35 2.7 -1.35L3.2 -0.75Q4.1 0.45 4.2 2.1L3.45 0.9Q4.65 3.15 3.5 3.25Q2.95 2 2.3 1.6L2.7 3.75Q2.55 3.5 0.05 1.75M2.3 1.6Q2.95 2 3.5 3.25M3.45 0.9L4.2 2.1" />
<path style="fill:#FDE9F5;fill-opacity:1" d="M-0.8 1L-1.25 2.35Q-1.9 2.2 -2.25 0.95L-4.25 0.9Q-4.7 0.4 -4.05 -1.55Q-3.95 -2.55 -3.5 -3.1Q-2.2 -4 -0.9 -3.7Q0.15 -3.45 2.3 -1.65L2.7 -1.35Q0.3 -1.35 -0.8 1" />
<path style="fill:#58A9C4;fill-opacity:1" d="M-1.25 2.35Q-0.75 2.5 0.05 1.75Q2.55 3.5 2.7 3.75Q2.05 3.9 1.3 3.3L0 2.7Q-0.8 3.3 -1.4 3.25L-1.25 2.35" />
<path style="fill:#E6BBCE;fill-opacity:1" d="M-1.4 3.25Q-2.25 3.2 -2.65 1.95Q-3.9 2.2 -4.55 1.4Q-5.2 0.6 -4.05 -1.55Q-4.7 0.4 -4.25 0.9L-2.25 0.95Q-1.9 2.2 -1.25 2.35L-1.4 3.25" />
<path style="fill:none;stroke-width:0.7;stroke-linecap:round;stroke-linejoin:miter;stroke-miterlimit:5;stroke:#003846;stroke-opacity:0.329412" d="M2.7 -1.35L2.3 -1.65" />
<path style="fill:none;stroke-width:0.7;stroke-linecap:round;stroke-linejoin:miter;stroke-miterlimit:5;stroke:#003846;stroke-opacity:0.329412" d="M2.7 -1.35L3.2 -0.75Q4.1 0.45 4.2 2.1Q4.65 3.15 3.5 3.25L2.7 3.75Q2.05 3.9 1.3 3.3L0 2.7Q-0.8 3.3 -1.4 3.25Q-2.25 3.2 -2.65 1.95Q-3.9 2.2 -4.55 1.4Q-5.2 0.6 -4.05 -1.55" />
<path style="fill:none;stroke-width:0.7;stroke-linecap:round;stroke-linejoin:miter;stroke-miterlimit:5;stroke:#003846;stroke-opacity:0.329412" d="M3.5 3.25Q2.95 2 2.3 1.6" />
<path style="fill:none;stroke-width:0.7;stroke-linecap:round;stroke-linejoin:miter;stroke-miterlimit:5;stroke:#003846;stroke-opacity:0.329412" d="M4.2 2.1L3.45 0.9" />
</g>
<g id="PathID_5745" transform="matrix(1, 0, 0, 1, 4.95, 3.8)">
<path style="fill:#4FA5D4;fill-opacity:1" d="M2.65 -0.15L2.55 0.15L2.2 0.4Q1.7 0.4 1.7 -0.15Q1.7 -0.65 2.2 -0.7Q2.65 -0.75 2.65 -0.15M-0.85 -2.7Q-0.1 -2.7 -0.05 -2.2Q0.45 -2.2 0.45 -1.7Q0.45 -1.2 -0.05 -1.2L-0.5 -1.3L-0.75 -1.3Q-1.65 -1.3 -1.65 -2.1Q-1.65 -2.7 -0.85 -2.7M-0.85 1.75Q-1.45 1.75 -1.6 0.95Q-1.6 0.45 -1 0.45Q-0.4 0.45 -0.4 1.1Q-0.35 1.75 -0.85 1.75" />
</g>
</svg>
