<?xml version="1.0" encoding="utf-8"?>
<svg version="1.1" id="Layer_1"
xmlns="http://www.w3.org/2000/svg"
xmlns:xlink="http://www.w3.org/1999/xlink"
width="9px" height="4px"
xml:space="preserve">
<g id="PathID_4807" transform="matrix(1, 0, 0, 1, 4.4, 2)">
<path style="fill:#B46358;fill-opacity:1" d="M-0.25 1.3Q-0.5 0.9 -0.05 0.6L0.5 0.3L2.95 -0.4L3.55 0.1L2.95 -0.4L3.7 -0.5Q3.9 -0.05 3.55 0.1Q3.9 1 3.05 1.35Q2.75 1.65 1.7 1.8L2.55 0.85Q2.35 0.45 0.9 0.4L1.55 0.65Q1.95 1 1.65 1.4L-0.25 1.3" />
<path style="fill:#A95045;fill-opacity:1" d="M2.95 -0.4L0.5 0.3L-0.05 0.6Q-0.5 0.9 -0.25 1.3L1.65 1.4Q1.95 1 1.55 0.65L0.9 0.4Q2.35 0.45 2.55 0.85L1.7 1.8L1.2 1.8L0.45 1.85Q-0.4 1.9 -1.5 1.35Q-1.85 -0.75 1.55 -1.15L3.7 -0.5Q4.15 -0.5 4.4 0.15Q4.65 0.75 4 1L3.05 1.35Q3.9 1 3.55 0.1Q3.9 -0.05 3.7 -0.5L2.95 -0.4M1.2 1.8L1.65 1.4L1.2 1.8" />
<path style="fill:#EBB9A0;fill-opacity:1" d="M-1.5 1.35L-3.4 0.5L-4.1 0Q-4.6 -0.95 -3.9 -1.4Q-3 -2 -1.6 -1.85L1.1 -1.3L1.55 -1.15Q-1.85 -0.75 -1.5 1.35" />
<path style="fill:none;stroke-width:0.7;stroke-linecap:round;stroke-linejoin:round;stroke-miterlimit:3;stroke:#551911;stroke-opacity:0.4" d="M-1.5 1.35L-3.4 0.5L-4.1 0Q-4.6 -0.95 -3.9 -1.4Q-3 -2 -1.6 -1.85L1.1 -1.3L1.55 -1.15L3.7 -0.5Q4.15 -0.5 4.4 0.15Q4.65 0.75 4 1L3.05 1.35Q2.75 1.65 1.7 1.8L1.2 1.8L0.45 1.85Q-0.4 1.9 -1.5 1.35z" />
<path style="fill:none;stroke-width:0.7;stroke-linecap:round;stroke-linejoin:round;stroke-miterlimit:3;stroke:#551911;stroke-opacity:0.4" d="M1.65 1.4Q1.95 1 1.55 0.65L0.9 0.4" />
<path style="fill:none;stroke-width:0.7;stroke-linecap:round;stroke-linejoin:round;stroke-miterlimit:3;stroke:#551911;stroke-opacity:0.4" d="M1.65 1.4L1.2 1.8" />
<path style="fill:none;stroke-width:0.7;stroke-linecap:round;stroke-linejoin:round;stroke-miterlimit:3;stroke:#551911;stroke-opacity:0.4" d="M3.55 0.1Q3.9 1 3.05 1.35" />
<path style="fill:none;stroke-width:0.7;stroke-linecap:round;stroke-linejoin:round;stroke-miterlimit:3;stroke:#551911;stroke-opacity:0.4" d="M2.95 -0.4L3.55 0.1" />
</g>
</svg>
