<?xml version="1.0" encoding="utf-8"?>
<svg version="1.1" id="Layer_1"
xmlns="http://www.w3.org/2000/svg"
xmlns:xlink="http://www.w3.org/1999/xlink"
width="21px" height="20px"
xml:space="preserve">
<g id="PathID_5273" transform="matrix(1, 0, 0, 1, 10.6, 9.3)">
<path style="fill:#F5EEBF;fill-opacity:1" d="M6.1 0.1L6.7 5.8L6.8 6.95Q3.4 8.9 -4.35 7.8L-5.95 7.25L-5 3.85L-2.75 -1.8Q-2 -3.6 -0.85 -4.75Q0.55 -3.85 2.95 -3.6L5 -3.8L6.1 0.1" />
<path style="fill:#C5BC8E;fill-opacity:1" d="M-5.95 7.25L-4.35 7.8Q3.4 8.9 6.8 6.95L6.9 8.3L5.5 8.85Q1 10.25 -2.45 9.65Q-4.5 9.3 -6.15 8.5L-5.95 7.25M-0.75 -4.85Q0.7 -6.3 2.3 -6.3Q3.6 -6.3 4.5 -4.8L5 -3.8L2.95 -3.6Q0.55 -3.85 -0.85 -4.75L-0.75 -4.85" />
<path style="fill:#DBAB2D;fill-opacity:1" d="M6.8 6.95Q9.1 5.65 9.4 2.9Q10.15 -3.95 8.05 -4.95Q6.95 -4.15 5 -3.8L4.5 -4.8Q3.6 -6.3 2.3 -6.3Q0.7 -6.3 -0.75 -4.85L-0.85 -4.75Q-2.2 -5.6 -2.7 -7.05Q-1.75 -7.6 1.15 -8.65Q5.3 -10.15 6.5 -8.15Q7.5 -8.55 8.55 -6.2Q9.65 -3.9 9.7 -2.15L9.85 3.5Q9.95 6.7 6.9 8.3L6.8 6.95M-5.95 7.25L-6.15 8.5Q-7.35 7.95 -8.35 7.2Q-10.85 5.35 -10.4 3.4Q-9.95 1.4 -8.75 -0.15Q-10.75 5.1 -5.95 7.25" />
<path style="fill:#FFEF5E;fill-opacity:1" d="M-0.85 -4.75Q-2 -3.6 -2.75 -1.8L-5 3.85L-5.95 7.25Q-10.75 5.1 -8.75 -0.15L-7.75 -1.55L-5.9 -3.9L-4.4 -5.45L-2.7 -7.05Q-2.2 -5.6 -0.85 -4.75M8.05 -4.95Q10.15 -3.95 9.4 2.9Q9.1 5.65 6.8 6.95L6.7 5.8L6.1 0.1L5 -3.8Q6.95 -4.15 8.05 -4.95" />
<path style="fill:none;stroke-width:0.7;stroke-linecap:round;stroke-linejoin:miter;stroke-miterlimit:5;stroke:#000000;stroke-opacity:0.4" d="M6.5 -8.15Q7.5 -8.55 8.55 -6.2Q9.65 -3.9 9.7 -2.15L9.85 3.5Q9.95 6.7 6.9 8.3L5.5 8.85Q1 10.25 -2.45 9.65Q-4.5 9.3 -6.15 8.5Q-7.35 7.95 -8.35 7.2Q-10.85 5.35 -10.4 3.4Q-9.95 1.4 -8.75 -0.15L-7.75 -1.55L-5.9 -3.9L-4.4 -5.45L-2.7 -7.05Q-1.75 -7.6 1.15 -8.65" />
</g>
</svg>
