<?xml version="1.0" encoding="utf-8"?>
<svg version="1.1" id="Layer_1"
xmlns="http://www.w3.org/2000/svg"
xmlns:xlink="http://www.w3.org/1999/xlink"
width="15px" height="14px"
xml:space="preserve">
<g id="PathID_5899" transform="matrix(1, 0, 0, 1, 7.65, 6.75)">
<path style="fill:#B16D42;fill-opacity:1" d="M-1.35 5.35Q-2.9 5.2 -5.7 3.95L-5.95 3.7L-6.05 3.4Q-6.45 2.1 -6.15 1L-5.6 -1.05Q-5.4 -2 -3.9 -3.75L-1.75 -6.05L-0.25 -6.75Q1.35 -6.7 2.85 -5.9L4.95 -4.35L5.15 -4.2Q5.55 -2.4 5.55 -0.95Q5.55 1.7 4.5 3.85Q1.6 5.7 -1.35 5.35" />
<path style="fill:#F7C7A1;fill-opacity:1" d="M6.15 -3.05Q6.85 -1.95 7 -0.45L6.9 0.85L6.5 2.35L4.6 3.75L4.5 3.85Q5.55 1.7 5.55 -0.95Q5.55 -2.4 5.15 -4.2L6.15 -3.05" />
<path style="fill:#8E5430;fill-opacity:1" d="M0.05 6.85Q-2.7 6.65 -4.5 5.15L-5.7 3.95Q-2.9 5.2 -1.35 5.35Q1.6 5.7 4.5 3.85L3.35 5.55L2.25 6.7L0.05 6.85" />
<path style="fill:#C29470;fill-opacity:1" d="M4.5 5.5L2.25 6.7L3.35 5.55L4.5 3.85L4.6 3.75L6.5 2.35Q6.15 3.9 4.5 5.5" />
<radialGradient
id="RadialGradID_1423" gradientUnits="userSpaceOnUse" gradientTransform="matrix(0.00772095, -0.0112152, 0.0065918, 0.00454712, -2.6, -1.5)" spreadMethod ="pad" cx="0" cy="0" r="819.2" fx="0" fy="0" >
<stop  offset="0.47451"  style="stop-color:#B16D42;stop-opacity:1" />
<stop  offset="0.607843"  style="stop-color:#741415;stop-opacity:1" />
</radialGradient>
<path style="fill:url(#RadialGradID_1423) " d="M-6.45 3.2Q-7.75 0.95 -7.45 -1.3Q-6.2 -4.4 -5.15 -5.2Q-3.95 -6.15 -2.6 -6.5L-0.25 -6.75L-1.75 -6.05L-3.9 -3.75Q-5.4 -2 -5.6 -1.05L-6.15 1Q-6.45 2.1 -6.05 3.4L-5.95 3.7L-6.45 3.2" />
<path style="fill:none;stroke-width:0.7;stroke-linecap:round;stroke-linejoin:miter;stroke-miterlimit:5;stroke:#000000;stroke-opacity:0.4" d="M6.5 2.35L6.9 0.85L7 -0.45Q6.85 -1.95 6.15 -3.05L5.15 -4.2L4.95 -4.35" />
<path style="fill:none;stroke-width:0.7;stroke-linecap:round;stroke-linejoin:miter;stroke-miterlimit:5;stroke:#000000;stroke-opacity:0.4" d="M-5.95 3.7L-5.7 3.95" />
<path style="fill:none;stroke-width:0.7;stroke-linecap:round;stroke-linejoin:miter;stroke-miterlimit:5;stroke:#000000;stroke-opacity:0.4" d="M2.25 6.7L4.5 5.5Q6.15 3.9 6.5 2.35" />
<path style="fill:none;stroke-width:0.7;stroke-linecap:round;stroke-linejoin:miter;stroke-miterlimit:5;stroke:#000000;stroke-opacity:0.4" d="M-5.7 3.95L-4.5 5.15Q-2.7 6.65 0.05 6.85L2.25 6.7" />
<path style="fill:none;stroke-width:0.7;stroke-linecap:round;stroke-linejoin:miter;stroke-miterlimit:5;stroke:#000000;stroke-opacity:0.4" d="M-2.6 -6.5Q-3.95 -6.15 -5.15 -5.2Q-6.2 -4.4 -7.45 -1.3Q-7.75 0.95 -6.45 3.2L-5.95 3.7" />
</g>
<g id="PathID_5900" transform="matrix(1, 0, 0, 1, 7.65, 6.75)">
<path style="fill:#E2B591;fill-opacity:1" d="M-5.4 -0.9L-5.55 -0.1Q-5.75 0.5 -6.15 0.5L-6.5 0.45Q-6.85 0.3 -6.85 -0.4L-6.7 -1L-6.3 -1.9L-5.7 -2.2Q-5.4 -2.2 -5.4 -1.9L-5.4 -1.5L-5.4 -1L-5.4 -0.9M-0.7 -6Q-0.35 -6 -0.35 -5.6Q-0.35 -5.3 -0.8 -4.85Q-1.25 -4.35 -1.6 -4.35Q-2.1 -4.35 -2.1 -4.8L-1.75 -5.5Q-1.3 -6 -0.7 -6M-4.85 -3.1Q-5.55 -3.1 -5.55 -3.8Q-4.5 -5.2 -3.7 -5.3Q-2.9 -5.45 -2.9 -5L-3.9 -3.65Q-4.35 -3.1 -4.85 -3.1M-3.35 -2.05Q-3.35 -1.5 -3.8 -1.5Q-4.15 -1.5 -4.15 -1.8L-4 -2.2L-3.6 -2.4Q-3.35 -2.4 -3.35 -2.05M-3.25 0.1Q-3.25 -0.45 -2.75 -0.45L-2.55 0Q-2.55 0.55 -2.9 0.55L-3.25 0.1" />
</g>
</svg>
