<?xml version="1.0" encoding="utf-8"?>
<svg version="1.1" id="Layer_1"
xmlns="http://www.w3.org/2000/svg"
xmlns:xlink="http://www.w3.org/1999/xlink"
width="15px" height="16px"
xml:space="preserve">
<g id="PathID_4920" transform="matrix(1, 0, 0, 1, 6.95, 6.8)">
<path style="fill:#33742D;fill-opacity:1" d="M-0.3 6.85Q-2.9 6.55 -4.8 4.55Q-6.8 2.45 -6.8 -0.4Q-6.8 -1.95 -6.2 -3.2Q-5.7 -4.25 -4.8 -5.1Q-3.8 -6.05 -2.55 -6.5L0.05 -6.8Q2.9 -6.65 4.85 -4.55L5 -4.35L6.25 -2.5Q6.85 -1.15 6.85 0.4Q6.85 3 5.25 4.8L4.85 5.15Q2.9 7 0.05 6.85L-0.3 6.85" />
<path style="fill:#CC2525;fill-opacity:1" d="M0.05 6.85Q2.9 7 4.85 5.15L5.25 4.8L6.6 5.4L4.55 5.75L4.05 7.3L2.3 6.9L0.85 8.05Q0.55 7.25 -0.3 6.85L0.05 6.85" />
<path style="fill:none;stroke-width:0.7;stroke-linecap:round;stroke-linejoin:miter;stroke-miterlimit:5;stroke:#000000;stroke-opacity:0.4" d="M5 -4.35L6.25 -2.5Q6.85 -1.15 6.85 0.4Q6.85 3 5.25 4.8L6.6 5.4L4.55 5.75L4.05 7.3L2.3 6.9L0.85 8.05Q0.55 7.25 -0.3 6.85Q-2.9 6.55 -4.8 4.55Q-6.8 2.45 -6.8 -0.4Q-6.8 -1.95 -6.2 -3.2Q-5.7 -4.25 -4.8 -5.1Q-3.8 -6.05 -2.55 -6.5" />
<path style="fill:none;stroke-width:0.7;stroke-linecap:round;stroke-linejoin:miter;stroke-miterlimit:5;stroke:#000000;stroke-opacity:0.4" d="M5.25 4.8L4.85 5.15Q2.9 7 0.05 6.85L-0.3 6.85" />
</g>
</svg>
