<?xml version="1.0" encoding="utf-8"?>
<svg version="1.1" id="Layer_1"
xmlns="http://www.w3.org/2000/svg"
xmlns:xlink="http://www.w3.org/1999/xlink"
width="9px" height="4px"
xml:space="preserve">
<g id="PathID_4720" transform="matrix(1, 0, 0, 1, 4.5, 1.95)">
<path style="fill:#CDACBA;fill-opacity:1" d="M-3.5 0.55L-4.2 0.05Q-4.7 -0.9 -4 -1.35Q-3.1 -1.95 -1.7 -1.8L1 -1.25L1.05 -1.2Q-1.1 -0.9 -2.3 1.05L-3.5 0.55" />
<linearGradient
id="LinearGradID_1040" gradientUnits="userSpaceOnUse" gradientTransform="matrix(-0.00297546, -0.00138855, 0.000793457, -0.00169373, -0.4, 0.6)" spreadMethod ="pad" x1="-819.2" y1="0" x2="819.2" y2="0" >
<stop  offset="0" style="stop-color:#DC576F;stop-opacity:1" />
<stop  offset="1" style="stop-color:#AD3154;stop-opacity:1" />
</linearGradient>
<path style="fill:url(#LinearGradID_1040) " d="M2.85 -0.35L0.4 0.35L-0.15 0.65Q-0.6 0.95 -0.35 1.35L1.55 1.45L1.1 1.85L0.35 1.9Q-0.5 1.95 -1.6 1.4L-2.3 1.05Q-1.1 -0.9 1.05 -1.2L3.6 -0.45L2.85 -0.35" />
<path style="fill:#FB979F;fill-opacity:1" d="M2.45 0.9Q2.25 0.5 0.8 0.45L1.45 0.7Q1.85 1.05 1.55 1.45L-0.35 1.35Q-0.6 0.95 -0.15 0.65L0.4 0.35L2.85 -0.35L3.6 -0.45Q3.8 0 3.45 0.15L2.85 -0.35L3.45 0.15Q3.8 1.05 2.95 1.4L1.6 1.85L2.45 0.9" />
<path style="fill:#DC576F;fill-opacity:1" d="M0.8 0.45Q2.25 0.5 2.45 0.9L1.6 1.85L1.1 1.85L1.55 1.45Q1.85 1.05 1.45 0.7L0.8 0.45M3.6 -0.45Q4.05 -0.45 4.3 0.2Q4.55 0.8 3.9 1.05L2.95 1.4Q3.8 1.05 3.45 0.15Q3.8 0 3.6 -0.45" />
<path style="fill:none;stroke-width:0.7;stroke-linecap:round;stroke-linejoin:round;stroke-miterlimit:3;stroke:#000000;stroke-opacity:0.4" d="M3.6 -0.45L1.05 -1.2" />
<path style="fill:none;stroke-width:0.7;stroke-linecap:round;stroke-linejoin:round;stroke-miterlimit:3;stroke:#000000;stroke-opacity:0.4" d="M-2.3 1.05L-1.6 1.4Q-0.5 1.95 0.35 1.9L1.1 1.85L1.55 1.45" />
<path style="fill:none;stroke-width:0.7;stroke-linecap:round;stroke-linejoin:round;stroke-miterlimit:3;stroke:#000000;stroke-opacity:0.4" d="M3.6 -0.45Q4.05 -0.45 4.3 0.2Q4.55 0.8 3.9 1.05L2.95 1.4L1.6 1.85L1.1 1.85" />
<path style="fill:none;stroke-width:0.7;stroke-linecap:round;stroke-linejoin:round;stroke-miterlimit:3;stroke:#000000;stroke-opacity:0.4" d="M1.05 -1.2L1 -1.25L-1.7 -1.8Q-3.1 -1.95 -4 -1.35Q-4.7 -0.9 -4.2 0.05L-3.5 0.55L-2.3 1.05" />
<path style="fill:none;stroke-width:0.7;stroke-linecap:round;stroke-linejoin:round;stroke-miterlimit:3;stroke:#000000;stroke-opacity:0.4" d="M3.45 0.15Q3.8 1.05 2.95 1.4" />
<path style="fill:none;stroke-width:0.7;stroke-linecap:round;stroke-linejoin:round;stroke-miterlimit:3;stroke:#000000;stroke-opacity:0.4" d="M1.55 1.45Q1.85 1.05 1.45 0.7L0.8 0.45" />
<path style="fill:none;stroke-width:0.7;stroke-linecap:round;stroke-linejoin:round;stroke-miterlimit:3;stroke:#000000;stroke-opacity:0.4" d="M3.45 0.15L2.85 -0.35" />
</g>
</svg>
