<?xml version="1.0" encoding="utf-8"?>
<svg version="1.1" id="Layer_1"
xmlns="http://www.w3.org/2000/svg"
xmlns:xlink="http://www.w3.org/1999/xlink"
width="15px" height="14px"
xml:space="preserve">
<g id="PathID_4732" transform="matrix(1, 0, 0, 1, 7.65, 6.75)">
<linearGradient
id="LinearGradID_1046" gradientUnits="userSpaceOnUse" gradientTransform="matrix(0.0010376, -0.00675964, 0.00717163, 0.00109863, -0.35, 5.95)" spreadMethod ="pad" x1="-819.2" y1="0" x2="819.2" y2="0" >
<stop  offset="0" style="stop-color:#CBA9B7;stop-opacity:1" />
<stop  offset="1" style="stop-color:#FDFAFB;stop-opacity:1" />
</linearGradient>
<path style="fill:url(#LinearGradID_1046) " d="M5.45 3.7Q3.9 5.25 0.25 5.15L0.2 5.15Q-6.85 4.1 -6.25 -3.15L-5.95 -3.7Q-7.65 -3.2 -7.5 -4.1Q-6.8 -5.05 -5.9 -5.15Q-7.5 -5.75 -6.3 -6.2L-2.35 -6.45L0 -6.75Q2.85 -6.6 4.8 -4.5L5.55 -3.6L6.2 -2.45Q7.3 1.8 5.45 3.7" />
<path style="fill:#CDACBA;fill-opacity:1" d="M6.2 -2.45Q6.8 -1.1 6.8 0.45Q6.8 3.3 4.8 5.2Q2.85 7.05 0 6.9Q-2.85 6.75 -4.85 4.6Q-6.85 2.5 -6.85 -0.35Q-6.85 -1.9 -6.25 -3.15Q-6.85 4.1 0.2 5.15L0.25 5.15Q3.9 5.25 5.45 3.7Q7.3 1.8 6.2 -2.45" />
<path style="fill:none;stroke-width:0.7;stroke-linecap:round;stroke-linejoin:miter;stroke-miterlimit:5;stroke:#000000;stroke-opacity:0.4" d="M4.8 -4.5L5.55 -3.6L6.2 -2.45Q6.8 -1.1 6.8 0.45Q6.8 3.3 4.8 5.2Q2.85 7.05 0 6.9Q-2.85 6.75 -4.85 4.6Q-6.85 2.5 -6.85 -0.35Q-6.85 -1.9 -6.25 -3.15L-5.95 -3.7Q-7.65 -3.2 -7.5 -4.1Q-6.8 -5.05 -5.9 -5.15Q-7.5 -5.75 -6.3 -6.2L-2.35 -6.45" />
</g>
</svg>
