<?xml version="1.0" encoding="utf-8"?>
<svg version="1.1" id="Layer_1"
xmlns="http://www.w3.org/2000/svg"
xmlns:xlink="http://www.w3.org/1999/xlink"
width="9px" height="8px"
xml:space="preserve">
<g id="PathID_5080" transform="matrix(1, 0, 0, 1, 3.95, 3.8)">
<linearGradient
id="LinearGradID_1224" gradientUnits="userSpaceOnUse" gradientTransform="matrix(0.00292969, 0.00169373, -0.00231934, 0.00401306, 0.75, 0.25)" spreadMethod ="pad" x1="-819.2" y1="0" x2="819.2" y2="0" >
<stop  offset="0.364706" style="stop-color:#CD7525;stop-opacity:1" />
<stop  offset="1" style="stop-color:#F4D4A0;stop-opacity:1" />
</linearGradient>
<path style="fill:url(#LinearGradID_1224) " d="M-1.15 -1.55L-2.75 0.7L-3.55 -0.15L-3.75 -0.75L-3.8 -0.85Q-4.15 -2.25 -3.5 -3.1Q-2.2 -4 -0.9 -3.7Q0.65 -3.35 1.5 -2.3L2.3 -1.3L2.5 -1.15Q2.6 -1.1 2.85 -1.3L3.05 -1.55Q3.4 -2 4.1 -1.15L4.2 0L4.2 0.8Q3.9 2.8 3.35 3.35L2.7 3.75Q2.05 3.9 1.3 3.3L0.1 2.5L0.3 -0.15L-0.8 1.9L-1.6 1.45L-1.8 1.35L-1.15 -1.55M4.2 0Q3.25 -0.3 2.7 1.1Q3.25 -0.3 4.2 0" />
<path style="fill:#78583A;fill-opacity:1" d="M4.05 -1.25L4.15 -1.1L4.1 -1.15L4.05 -1.25" />
<path style="fill:#F4D4A0;fill-opacity:1" d="M2.85 -1.3Q3.05 -2.4 3.45 -2.1L4 -1.6L4 -1.3L4.05 -1.25L4.1 -1.15Q3.4 -2 3.05 -1.55L2.85 -1.3" />
<path style="fill:#885221;fill-opacity:1" d="M0.1 2.5L-0.8 1.9L0.3 -0.15L0.1 2.5M-1.8 1.35L-2.75 0.7L-1.15 -1.55L-1.8 1.35" />
<path style="fill:none;stroke-width:0.7;stroke-linecap:round;stroke-linejoin:round;stroke-miterlimit:3;stroke:#000000;stroke-opacity:0.4" d="M2.5 -1.15Q2.6 -1.1 2.85 -1.3Q3.05 -2.4 3.45 -2.1L4 -1.6L4 -1.3L4.05 -1.25L4.15 -1.1L4.1 -1.15L4.2 0L4.2 0.8Q3.9 2.8 3.35 3.35L2.7 3.75Q2.05 3.9 1.3 3.3L0.1 2.5L-0.8 1.9L-1.6 1.45L-1.8 1.35L-2.75 0.7L-3.55 -0.15L-3.75 -0.75L-3.8 -0.85" />
<path style="fill:none;stroke-width:0.7;stroke-linecap:round;stroke-linejoin:round;stroke-miterlimit:3;stroke:#000000;stroke-opacity:0.4" d="M4.05 -1.25L4.1 -1.15Q3.4 -2 3.05 -1.55L2.85 -1.3" />
<path style="fill:none;stroke-width:0.7;stroke-linecap:round;stroke-linejoin:round;stroke-miterlimit:3;stroke:#000000;stroke-opacity:0.4" d="M2.7 1.1Q3.25 -0.3 4.2 0" />
</g>
</svg>
