<?xml version="1.0" encoding="utf-8"?>
<svg version="1.1" id="Layer_1"
xmlns="http://www.w3.org/2000/svg"
xmlns:xlink="http://www.w3.org/1999/xlink"
width="6px" height="17px"
xml:space="preserve">
<g id="PathID_6211" transform="matrix(1, 0, 0, 1, 4.35, 8.9)">
<path style="fill:#DABA53;fill-opacity:1" d="M0.5 -6.9L0.95 -5.55Q1.35 -3.85 1.35 0Q1.15 7.8 0 7.85Q-1.1 7.9 -1.75 1.55L-0.2 -0.35L-0.65 -1.15L-1 -2.25L-0.7 -3.1Q-0.35 -3.45 0.05 -3.5L-0.25 -4.8L-0.05 -6.15L0.5 -6.9" />
<path style="fill:#D98709;fill-opacity:1" d="M-0.05 -6.15L-0.25 -4.8L0.05 -3.5Q-0.35 -3.45 -0.7 -3.1L-1 -2.25L-0.65 -1.15L-0.2 -0.35L-1.75 1.55L-1.75 1.5Q-3.35 0 -3.35 -1.2L-3.1 -1.9Q-2.85 -2.25 -2.35 -2.2L-3.4 -3Q-4.2 -3.65 -4.2 -4.55L-3.95 -5.3L-3.1 -5.45L-1.9 -5.3L-2.45 -6.05L-2.85 -7L-2.5 -8.15L-1.7 -8.75Q-1.2 -8.75 -0.55 -8.25L0.5 -6.9L-0.05 -6.15" />
<path style="fill:none;stroke-width:0.7;stroke-linecap:round;stroke-linejoin:round;stroke-miterlimit:3;stroke:#000000;stroke-opacity:0.4" d="M-1.75 1.55L-1.75 1.5Q-3.35 0 -3.35 -1.2L-3.1 -1.9Q-2.85 -2.25 -2.35 -2.2L-3.4 -3Q-4.2 -3.65 -4.2 -4.55L-3.95 -5.3L-3.1 -5.45L-1.9 -5.3L-2.45 -6.05L-2.85 -7L-2.5 -8.15L-1.7 -8.75Q-1.2 -8.75 -0.55 -8.25L0.5 -6.9L0.95 -5.55Q1.35 -3.85 1.35 0Q1.15 7.8 0 7.85Q-1.1 7.9 -1.75 1.55z" />
</g>
</svg>
