<?xml version="1.0" encoding="utf-8"?>
<svg version="1.1" id="Layer_1"
xmlns="http://www.w3.org/2000/svg"
xmlns:xlink="http://www.w3.org/1999/xlink"
width="10px" height="4px"
xml:space="preserve">
<g id="PathID_5303" transform="matrix(1, 0, 0, 1, 4.6, 1.9)">
<path style="fill:#AF63DD;fill-opacity:1" d="M3.65 -0.2Q3.9 -0.4 3.35 -0.95L2.75 -0.8Q1.1 -0.25 0.55 0.8Q0.85 1.65 2.85 1.35L2.75 1.7L2.85 1.35Q2.85 0.65 1.5 0.35Q2.85 0.3 3.25 0.65Q3.55 1.1 3.2 1.65L2.75 1.7L1.95 1.9L-0.65 1.55L-0.9 1.5L-3 0.65Q-3.75 0.3 -4.5 0.1Q-4.75 -0.45 -4.45 -0.95Q-4.15 -1.55 -2.55 -1.8L0.25 -1.65L1.8 -1.25L3.35 -0.95L3.85 -0.65Q4.9 0 4.5 0.7L4.1 1.05Q4.55 0.2 3.65 -0.2" />
<path style="fill:#CA6AFA;fill-opacity:1" d="M0.55 0.8Q1.1 -0.25 2.75 -0.8L3.65 -0.2Q4.55 0.2 4.1 1.05Q4.1 1.45 3.2 1.65Q3.55 1.1 3.25 0.65Q2.85 0.3 1.5 0.35Q2.85 0.65 2.85 1.35Q0.85 1.65 0.55 0.8M3.35 -0.95Q3.9 -0.4 3.65 -0.2L2.75 -0.8L3.35 -0.95" />
<path style="fill:none;stroke-width:0.7;stroke-linecap:round;stroke-linejoin:round;stroke-miterlimit:3;stroke:#000000;stroke-opacity:0.301961" d="M3.2 1.65L2.75 1.7L1.95 1.9L-0.65 1.55L-0.9 1.5L-3 0.65Q-3.75 0.3 -4.5 0.1Q-4.75 -0.45 -4.45 -0.95Q-4.15 -1.55 -2.55 -1.8L0.25 -1.65L1.8 -1.25L3.35 -0.95L3.85 -0.65Q4.9 0 4.5 0.7L4.1 1.05Q4.1 1.45 3.2 1.65z" />
<path style="fill:none;stroke-width:0.7;stroke-linecap:round;stroke-linejoin:round;stroke-miterlimit:3;stroke:#000000;stroke-opacity:0.301961" d="M1.5 0.35Q2.85 0.65 2.85 1.35L2.75 1.7" />
<path style="fill:none;stroke-width:0.7;stroke-linecap:round;stroke-linejoin:round;stroke-miterlimit:3;stroke:#000000;stroke-opacity:0.301961" d="M3.65 -0.2L2.75 -0.8" />
<path style="fill:none;stroke-width:0.7;stroke-linecap:round;stroke-linejoin:round;stroke-miterlimit:3;stroke:#000000;stroke-opacity:0.301961" d="M4.1 1.05Q4.55 0.2 3.65 -0.2" />
</g>
</svg>
