<?xml version="1.0" encoding="utf-8"?>
<svg version="1.1" id="Layer_1"
xmlns="http://www.w3.org/2000/svg"
xmlns:xlink="http://www.w3.org/1999/xlink"
width="9px" height="4px"
xml:space="preserve">
<g id="PathID_5486" transform="matrix(1, 0, 0, 1, 4.4, 1.85)">
<radialGradient
id="RadialGradID_1348" gradientUnits="userSpaceOnUse" gradientTransform="matrix(0.0102539, 0, 0, 0.00837708, 5.55, 0.95)" spreadMethod ="pad" cx="0" cy="0" r="819.2" fx="210492" fy="0" >
<stop  offset="0.184314"  style="stop-color:#DEDEDE;stop-opacity:1" />
<stop  offset="0.839216"  style="stop-color:#E0C243;stop-opacity:1" />
<stop  offset="1"  style="stop-color:#C48F40;stop-opacity:1" />
</radialGradient>
<path style="fill:url(#RadialGradID_1348) " d="M3.6 -0.45Q4.05 -0.45 4.3 0.2L2.85 -0.35Q0.95 -0.1 -0.35 0.75Q-0.65 1.55 1.45 1.55Q2.05 0.9 0.95 0.4L1.1 1.85L0.35 1.9Q-0.5 1.95 -1.6 1.4L-2.1 1.15L-3.5 0.55L-4.2 0.05Q-4.7 -0.9 -4 -1.35Q-3.1 -1.95 -1.7 -1.8L1 -1.25L1.45 -1.1L1.85 -0.95L3.6 -0.45M0.95 0.4Q2.25 0.5 2.45 0.9L1.6 1.85L1.1 1.85L1.45 1.55M4.3 0.2Q4.55 0.8 3.9 1.05L2.95 1.4Q3.8 1.05 3.45 0.15Q3.8 0 3.6 -0.45" />
<radialGradient
id="RadialGradID_1349" gradientUnits="userSpaceOnUse" gradientTransform="matrix(0.0080719, 0, 0, 0.0080719, 3.2, 0.55)" spreadMethod ="pad" cx="0" cy="0" r="819.2" fx="0" fy="0" >
<stop  offset="0.121569"  style="stop-color:#FCF3EC;stop-opacity:1" />
<stop  offset="0.74902"  style="stop-color:#F9E07A;stop-opacity:1" />
<stop  offset="0.968627"  style="stop-color:#E78F28;stop-opacity:1" />
</radialGradient>
<path style="fill:url(#RadialGradID_1349) " d="M1.6 1.85L2.45 0.9Q2.25 0.5 0.95 0.4Q2.05 0.9 1.45 1.55Q-0.65 1.55 -0.35 0.75Q0.95 -0.1 2.85 -0.35L3.6 -0.45Q3.8 0 3.45 0.15L2.85 -0.35L3.45 0.15Q3.8 1.05 2.95 1.4L1.6 1.85" />
<path style="fill:none;stroke-width:0.7;stroke-linecap:round;stroke-linejoin:round;stroke-miterlimit:3;stroke:#000000;stroke-opacity:0.301961" d="M1.45 -1.1L1 -1.25L-1.7 -1.8Q-3.1 -1.95 -4 -1.35Q-4.7 -0.9 -4.2 0.05L-3.5 0.55L-2.1 1.15L-1.6 1.4Q-0.5 1.95 0.35 1.9L1.1 1.85L1.45 1.55" />
<path style="fill:none;stroke-width:0.7;stroke-linecap:round;stroke-linejoin:round;stroke-miterlimit:3;stroke:#000000;stroke-opacity:0.301961" d="M3.6 -0.45L1.85 -0.95" />
<path style="fill:none;stroke-width:0.7;stroke-linecap:round;stroke-linejoin:round;stroke-miterlimit:3;stroke:#000000;stroke-opacity:0.301961" d="M3.45 0.15Q3.8 1.05 2.95 1.4L3.9 1.05Q4.55 0.8 4.3 0.2Q4.05 -0.45 3.6 -0.45" />
<path style="fill:none;stroke-width:0.7;stroke-linecap:round;stroke-linejoin:round;stroke-miterlimit:3;stroke:#000000;stroke-opacity:0.301961" d="M3.45 0.15L2.85 -0.35" />
<path style="fill:none;stroke-width:0.7;stroke-linecap:round;stroke-linejoin:round;stroke-miterlimit:3;stroke:#000000;stroke-opacity:0.301961" d="M1.6 1.85L1.1 1.85" />
<path style="fill:none;stroke-width:0.7;stroke-linecap:round;stroke-linejoin:round;stroke-miterlimit:3;stroke:#000000;stroke-opacity:0.301961" d="M0.95 0.4Q2.05 0.9 1.45 1.55" />
<path style="fill:none;stroke-width:0.7;stroke-linecap:round;stroke-linejoin:round;stroke-miterlimit:3;stroke:#000000;stroke-opacity:0.301961" d="M2.95 1.4L1.6 1.85" />
</g>
</svg>
