<?xml version="1.0" encoding="utf-8"?>
<svg version="1.1" id="Layer_1"
xmlns="http://www.w3.org/2000/svg"
xmlns:xlink="http://www.w3.org/1999/xlink"
width="21px" height="43px"
xml:space="preserve">
<g id="PathID_5012" transform="matrix(1, 0, 0, 1, 12.1, 23.45)">
<path style="fill:#441909;fill-opacity:1" d="M-2.95 0.9Q-4.15 6.55 -0.9 12.4Q0.9 15.7 8.1 16.55Q8.05 18.15 5.75 19Q-6.35 15.3 -3.25 1.8L-2.95 0.9" />
<path style="fill:#793A19;fill-opacity:1" d="M-0.9 12.4Q-4.15 6.55 -2.95 0.9Q0.35 -11.65 -8.1 -19.05Q2.3 -14.35 -0.45 0.75Q-1.2 10.85 6.95 13.7Q8.15 15.35 8.1 16.55Q0.9 15.7 -0.9 12.4" />
<path style="fill:none;stroke-width:0.7;stroke-linecap:round;stroke-linejoin:miter;stroke-miterlimit:5;stroke:#000000;stroke-opacity:0.4" d="M8.1 16.55Q8.15 15.35 6.95 13.7Q-1.2 10.85 -0.45 0.75Q2.3 -14.35 -8.1 -19.05Q0.35 -11.65 -2.95 0.9" />
<path style="fill:none;stroke-width:0.7;stroke-linecap:round;stroke-linejoin:miter;stroke-miterlimit:5;stroke:#000000;stroke-opacity:0.4" d="M8.1 16.55Q8.05 18.15 5.75 19Q-6.35 15.3 -3.25 1.8L-2.95 0.9" />
</g>
<g id="PathID_5013" transform="matrix(1, 0, 0, 1, 12.1, 23.45)">
<path style="fill:#171717;fill-opacity:1" d="M-4 -8.65L-3.4 -6.1Q-3 -3.85 -2.9 -1.75Q-3.1 2.75 -2.75 5.9Q-2.05 11.85 1.45 14.95Q5.45 18.5 8.1 16.55Q8.05 18.15 5.75 19L0.75 18.35L-4.15 18.5L-3.45 16.55Q-3 15.7 -2.4 15.35L-3.5 15.35Q-4.7 15.3 -5.4 13.85L-6.35 11.45L-4 12.45L-2.75 12.8Q-5.05 9.1 -4.75 3.75Q-4.35 -2.55 -4.8 -6Q-4.95 -7.1 -5.45 -8.55L-4 -8.65" />
<path style="fill:#212121;fill-opacity:1" d="M1.45 14.95Q-2.05 11.85 -2.75 5.9Q-3.1 2.75 -2.9 -1.75Q-3 -3.85 -3.4 -6.1L-4 -8.65Q-3.15 -8.85 -2.45 -9.35Q-1.1 -10.3 -1 -11.85Q-0.55 -10.7 -0.05 -7.6Q0.55 -3.8 0.4 -0.7Q0.25 3.2 0.8 6.3Q1.25 8.8 2 10.25Q2.65 11.45 4.35 12.5Q5.75 13.35 6.95 13.7Q8.15 15.35 8.1 16.55Q5.45 18.5 1.45 14.95" />
<linearGradient
id="LinearGradID_1206" gradientUnits="userSpaceOnUse" gradientTransform="matrix(0.00314331, 0.00549316, -0.00588989, 0.00338745, -4.15, -15.25)" spreadMethod ="pad" x1="-819.2" y1="0" x2="819.2" y2="0" >
<stop  offset="0.00392157" style="stop-color:#363434;stop-opacity:1" />
<stop  offset="0.992157" style="stop-color:#212121;stop-opacity:1" />
</linearGradient>
<path style="fill:url(#LinearGradID_1206) " d="M-5.9 -11.9Q-6.95 -13.1 -8.5 -13.95Q-10.2 -14.45 -11.1 -15.4Q-12 -16.35 -11.55 -20.2Q-10.95 -18.45 -8.75 -17.25Q-9.95 -18.65 -9.75 -19.85Q-9.6 -21.1 -8.1 -23.1Q-7.5 -20.65 -5.1 -17.55Q-5.3 -20.2 -4.55 -21.05L-3.45 -17.45L-1 -11.85Q-1.1 -10.3 -2.45 -9.35Q-3.15 -8.85 -4 -8.65Q-4.85 -10.6 -5.9 -11.9" />
<linearGradient
id="LinearGradID_1207" gradientUnits="userSpaceOnUse" gradientTransform="matrix(0.00393677, 0.00653076, -0.00140381, 0.000839233, 2.05, -18.95)" spreadMethod ="pad" x1="-819.2" y1="0" x2="819.2" y2="0" >
<stop  offset="0.00392157" style="stop-color:#2E2D2D;stop-opacity:1" />
<stop  offset="1" style="stop-color:#171717;stop-opacity:1" />
</linearGradient>
<path style="fill:url(#LinearGradID_1207) " d="M-5.45 -8.55L-8.65 -11.25Q-10.65 -12.85 -11.7 -14.5Q-10.65 -14.1 -9.7 -14L-8.5 -13.95Q-6.95 -13.1 -5.9 -11.9Q-4.85 -10.6 -4 -8.65L-5.45 -8.55" />
<path style="fill:none;stroke-width:0.7;stroke-linecap:round;stroke-linejoin:miter;stroke-miterlimit:5;stroke:#000000;stroke-opacity:0.4" d="M8.1 16.55Q8.15 15.35 6.95 13.7Q5.75 13.35 4.35 12.5Q2.65 11.45 2 10.25Q1.25 8.8 0.8 6.3Q0.25 3.2 0.4 -0.7Q0.55 -3.8 -0.05 -7.6Q-0.55 -10.7 -1 -11.85" />
<path style="fill:none;stroke-width:0.7;stroke-linecap:round;stroke-linejoin:miter;stroke-miterlimit:5;stroke:#000000;stroke-opacity:0.4" d="M8.1 16.55Q8.05 18.15 5.75 19L0.75 18.35L-4.15 18.5L-3.45 16.55Q-3 15.7 -2.4 15.35L-3.5 15.35Q-4.7 15.3 -5.4 13.85L-6.35 11.45L-4 12.45L-2.75 12.8Q-5.05 9.1 -4.75 3.75Q-4.35 -2.55 -4.8 -6Q-4.95 -7.1 -5.45 -8.55L-8.65 -11.25Q-10.65 -12.85 -11.7 -14.5Q-10.65 -14.1 -9.7 -14L-8.5 -13.95Q-10.2 -14.45 -11.1 -15.4Q-12 -16.35 -11.55 -20.2Q-10.95 -18.45 -8.75 -17.25Q-9.95 -18.65 -9.75 -19.85Q-9.6 -21.1 -8.1 -23.1Q-7.5 -20.65 -5.1 -17.55Q-5.3 -20.2 -4.55 -21.05L-3.45 -17.45L-1 -11.85" />
</g>
</svg>
