<?xml version="1.0" encoding="utf-8"?>
<svg version="1.1" id="Layer_1"
xmlns="http://www.w3.org/2000/svg"
xmlns:xlink="http://www.w3.org/1999/xlink"
width="17px" height="17px"
xml:space="preserve">
<g id="PathID_5121" transform="matrix(1, 0, 0, 1, 8.9, 8.85)">
<path style="fill:#577F74;fill-opacity:1" d="M-1.5 -1.7L-0.9 -2.25L-0.8 -2.35L-0.75 -2.4L0.8 -3.25L4.25 -3.9L0.8 -3.25L-0.75 -2.4Q1 -3.9 -0.2 -4.6Q-3.7 -6.95 -6.9 -3.75L-4.7 -5.55Q-2.1 -7.15 0.8 -6.05L1.4 -5.75L4.25 -3.9Q5.35 -2.5 5.55 -1.3Q5.7 -0.45 5.3 0.3Q4.45 1.9 4.6 2.85Q3.8 1.5 4.4 0.5Q5 -1 3 -2.3L1.35 -2.5Q-0.9 -2.05 -2.4 -0.35L-1.5 -1.7" />
<path style="fill:#5C867B;fill-opacity:1" d="M2.2 1.25Q1.3 -0.55 -0.05 -0.75Q-2.3 -1.25 -3.15 2.4Q-3 0.8 -2.4 -0.35Q-0.9 -2.05 1.35 -2.5L3 -2.3Q5 -1 4.4 0.5Q3.8 1.5 4.6 2.85Q4.7 3.65 5.5 4.15L6.25 4.7L6.25 4.75L3.6 4.35L3.75 4.55Q2.2 4.2 2.2 1.25M-0.9 -2.25L-1.5 -1.7Q-5.05 -3 -8.6 0.2L-8.55 0.1Q-8.25 -1.75 -7 -3.65L-6.9 -3.75Q-3.7 -6.95 -0.2 -4.6Q1 -3.9 -0.75 -2.4L-0.8 -2.35L-0.9 -2.25" />
<path style="fill:#6A9B8E;fill-opacity:1" d="M-8.6 0.2Q-5.05 -3 -1.5 -1.7L-2.4 -0.35Q-3 0.8 -3.15 2.4Q-2.3 -1.25 -0.05 -0.75Q1.3 -0.55 2.2 1.25Q2.2 4.2 3.75 4.55L5 5.95L3.65 5.45L4.4 6.45Q3.25 7.2 2 7.55L-0.25 7.85L-2.45 7.55L-1.25 4.25L-3.8 7.05Q-5 6.5 -6.05 5.5Q-8.5 3.35 -8.65 0.3L-8.6 0.2M-3.15 4.25L-3.15 2.4L-3.15 4.25" />
<path style="fill:#694D33;fill-opacity:1" d="M-8.65 0.3L-8.65 0.2L-8.65 0.05L-8.55 0.1L-8.6 0.2L-8.65 0.3" />
<path style="fill:none;stroke-width:0.7;stroke-linecap:round;stroke-linejoin:miter;stroke-miterlimit:5;stroke:#000000;stroke-opacity:0.301961" d="M2 7.55L-0.25 7.85L-2.45 7.55L-1.25 4.25L-3.8 7.05Q-5 6.5 -6.05 5.5Q-8.5 3.35 -8.65 0.3L-8.65 0.2" />
<path style="fill:none;stroke-width:0.7;stroke-linecap:round;stroke-linejoin:miter;stroke-miterlimit:5;stroke:#000000;stroke-opacity:0.2" d="M-0.75 -2.4L0.8 -3.25L4.25 -3.9" />
<path style="fill:none;stroke-width:0.7;stroke-linecap:round;stroke-linejoin:miter;stroke-miterlimit:5;stroke:#000000;stroke-opacity:0.2" d="M-2.4 -0.35Q-3 0.8 -3.15 2.4" />
<path style="fill:none;stroke-width:0.7;stroke-linecap:round;stroke-linejoin:miter;stroke-miterlimit:5;stroke:#000000;stroke-opacity:0.2" d="M-0.8 -2.35L-0.75 -2.4" />
<path style="fill:none;stroke-width:0.7;stroke-linecap:round;stroke-linejoin:miter;stroke-miterlimit:5;stroke:#000000;stroke-opacity:0.2" d="M-0.9 -2.25L-1.5 -1.7L-2.4 -0.35" />
<path style="fill:none;stroke-width:0.7;stroke-linecap:round;stroke-linejoin:miter;stroke-miterlimit:5;stroke:#000000;stroke-opacity:0.2" d="M-3.15 2.4L-3.15 4.25" />
</g>
<g id="PathID_5122" transform="matrix(1, 0, 0, 1, 8.9, 8.85)">
<path style="fill:#D3DBC9;fill-opacity:1" d="M5.85 4.25Q4.7 3.45 4.6 2.85L6.45 2.55L4.6 2.85Q4.5 2 5.1 0.7L6.85 0.9L5.1 0.7L5.3 0.3Q5.7 -0.45 5.55 -1.3Q5.35 -2.5 4.25 -3.9L3.3 -4.65L3.7 -5.15L4.2 -5.4L3.7 -5.15L3.3 -4.65Q2.35 -5.35 1.4 -5.75L0.8 -6.05L-0.55 -6.4L-1.1 -6.45L-2.2 -6.45L-2.25 -7.45L-2.2 -6.45Q-3.5 -6.3 -4.7 -5.55L-6.9 -3.75L-7 -3.65Q-8.25 -1.75 -8.55 0.1L-8.65 0.05Q-8.7 -1.5 -8.15 -2.85Q-7.65 -4.4 -6.4 -5.6L-5.5 -6.3Q-6 -6.2 -6.65 -6.6Q-7.3 -7 -3.6 -7.35L-5.05 -8.25L-1.5 -8.4Q2.8 -7.95 5.1 -5.65L5.15 -5.6Q7.7 -3.35 7.8 -0.05Q7.85 1.6 7.5 3.25L7 4.95L5.85 4.25M-1.2 -7.95Q-0.65 -7.15 -0.55 -6.4Q-0.65 -7.15 -1.2 -7.95" />
<path style="fill:none;stroke-width:0.7;stroke-linecap:round;stroke-linejoin:round;stroke-miterlimit:3;stroke:#000000;stroke-opacity:0.4" d="M4.2 -5.4L3.7 -5.15L3.3 -4.65" />
<path style="fill:none;stroke-width:0.7;stroke-linecap:round;stroke-linejoin:miter;stroke-miterlimit:5;stroke:#000000;stroke-opacity:0.301961" d="M3.3 -4.65L4.25 -3.9Q5.35 -2.5 5.55 -1.3Q5.7 -0.45 5.3 0.3L5.1 0.7" />
<path style="fill:none;stroke-width:0.7;stroke-linecap:round;stroke-linejoin:round;stroke-miterlimit:3;stroke:#000000;stroke-opacity:0.4" d="M5.1 0.7L6.85 0.9" />
<path style="fill:none;stroke-width:0.7;stroke-linecap:round;stroke-linejoin:miter;stroke-miterlimit:5;stroke:#000000;stroke-opacity:0.301961" d="M-0.55 -6.4L0.8 -6.05L1.4 -5.75Q2.35 -5.35 3.3 -4.65" />
<path style="fill:none;stroke-width:0.7;stroke-linecap:round;stroke-linejoin:miter;stroke-miterlimit:5;stroke:#000000;stroke-opacity:0.301961" d="M7 4.95L7.5 3.25Q7.85 1.6 7.8 -0.05Q7.7 -3.35 5.15 -5.6L5.1 -5.65Q2.8 -7.95 -1.5 -8.4L-5.05 -8.25L-3.6 -7.35Q-7.3 -7 -6.65 -6.6Q-6 -6.2 -5.5 -6.3L-6.4 -5.6Q-7.65 -4.4 -8.15 -2.85Q-8.7 -1.5 -8.65 0.05" />
<path style="fill:none;stroke-width:0.7;stroke-linecap:round;stroke-linejoin:miter;stroke-miterlimit:5;stroke:#000000;stroke-opacity:0.301961" d="M-4.7 -5.55Q-3.5 -6.3 -2.2 -6.45" />
<path style="fill:none;stroke-width:0.7;stroke-linecap:round;stroke-linejoin:round;stroke-miterlimit:3;stroke:#000000;stroke-opacity:0.4" d="M-2.2 -6.45L-2.25 -7.45" />
<path style="fill:none;stroke-width:0.7;stroke-linecap:round;stroke-linejoin:miter;stroke-miterlimit:5;stroke:#000000;stroke-opacity:0.301961" d="M5.1 0.7Q4.5 2 4.6 2.85" />
<path style="fill:none;stroke-width:0.7;stroke-linecap:round;stroke-linejoin:round;stroke-miterlimit:3;stroke:#000000;stroke-opacity:0.4" d="M4.6 2.85L6.45 2.55" />
<path style="fill:none;stroke-width:0.7;stroke-linecap:round;stroke-linejoin:miter;stroke-miterlimit:5;stroke:#000000;stroke-opacity:0.301961" d="M4.6 2.85Q4.7 3.45 5.85 4.25" />
<path style="fill:none;stroke-width:0.7;stroke-linecap:round;stroke-linejoin:miter;stroke-miterlimit:5;stroke:#000000;stroke-opacity:0.301961" d="M-2.2 -6.45L-1.1 -6.45L-0.55 -6.4" />
<path style="fill:none;stroke-width:0.7;stroke-linecap:round;stroke-linejoin:round;stroke-miterlimit:3;stroke:#000000;stroke-opacity:0.4" d="M-0.55 -6.4Q-0.65 -7.15 -1.2 -7.95" />
</g>
</svg>
