<?xml version="1.0" encoding="utf-8"?>
<svg version="1.1" id="Layer_1"
xmlns="http://www.w3.org/2000/svg"
xmlns:xlink="http://www.w3.org/1999/xlink"
width="7px" height="18px"
xml:space="preserve">
<g id="PathID_6245" transform="matrix(1, 0, 0, 1, 5.2, 9.25)">
<radialGradient
id="RadialGradID_1446" gradientUnits="userSpaceOnUse" gradientTransform="matrix(0.010498, 0, 0, 0.010498, -3.1, -7.45)" spreadMethod ="pad" cx="0" cy="0" r="819.2" fx="0" fy="0" >
<stop  offset="0"  style="stop-color:#DEA7A3;stop-opacity:1" />
<stop  offset="0.670588"  style="stop-color:#CBCBCD;stop-opacity:1" />
</radialGradient>
<path style="fill:url(#RadialGradID_1446) " d="M-2.8 -2.9L-2.6 -4.95Q-2.4 -5.9 -2.85 -7.05Q-3.3 -8.2 -3.05 -8.55L-2.7 -8.7L-0.8 -8.25Q0.35 -7.85 0.65 -6.85L0.95 -5.55Q1.35 -3.25 1.35 0Q1.15 7.8 0 7.85Q-1.15 7.9 -2.2 0.65Q-2.85 -1.8 -2.8 -2.9" />
<path style="fill:#B1A578;fill-opacity:1" d="M-2.2 0.65L-3.3 -1.85Q-4.4 -3.7 -4.4 -4.5L-4.05 -5.25Q-3.7 -5.6 -3.2 -5.45L-4.3 -6.6Q-5.05 -7.45 -5.05 -8.3Q-5.05 -9.05 -4.2 -9.05L-3.5 -8.85L-3.05 -8.55Q-3.3 -8.2 -2.85 -7.05Q-2.4 -5.9 -2.6 -4.95L-2.8 -2.9Q-2.85 -1.8 -2.2 0.65" />
<path style="fill:none;stroke-width:0.7;stroke-linecap:round;stroke-linejoin:round;stroke-miterlimit:3;stroke:#000000;stroke-opacity:0.4" d="M-3.05 -8.55L-2.7 -8.7L-0.8 -8.25Q0.35 -7.85 0.65 -6.85L0.95 -5.55Q1.35 -3.25 1.35 0Q1.15 7.8 0 7.85Q-1.15 7.9 -2.2 0.65" />
<path style="fill:none;stroke-width:0.7;stroke-linecap:round;stroke-linejoin:miter;stroke-miterlimit:5;stroke:#000000;stroke-opacity:0.4" d="M-2.2 0.65L-3.3 -1.85Q-4.4 -3.7 -4.4 -4.5L-4.05 -5.25Q-3.7 -5.6 -3.2 -5.45L-4.3 -6.6Q-5.05 -7.45 -5.05 -8.3Q-5.05 -9.05 -4.2 -9.05L-3.5 -8.85L-3.05 -8.55" />
<path style="fill:none;stroke-width:0.7;stroke-linecap:round;stroke-linejoin:round;stroke-miterlimit:3;stroke:#000000;stroke-opacity:0.4" d="M-3.05 -8.55Q-3.3 -8.2 -2.85 -7.05Q-2.4 -5.9 -2.6 -4.95L-2.8 -2.9Q-2.85 -1.8 -2.2 0.65" />
</g>
</svg>
