<?xml version="1.0" encoding="utf-8"?>
<svg version="1.1" id="Layer_1"
xmlns="http://www.w3.org/2000/svg"
xmlns:xlink="http://www.w3.org/1999/xlink"
width="9px" height="4px"
xml:space="preserve">
<g id="PathID_5015" transform="matrix(1, 0, 0, 1, 4.45, 1.95)">
<path style="fill:#2E2D2D;fill-opacity:1" d="M0.45 0.35Q0.3 0.35 -0.1 0.65Q-0.55 0.95 -0.3 1.35L1.6 1.45Q1.9 1.05 1.5 0.7L1.15 1.85L0.4 1.9L-1.25 1.55L-1.55 1.4L-2.05 1.15L-3.35 0.6Q-4.15 0.2 -4.15 0.05Q-4.65 -0.9 -3.95 -1.35Q-3.05 -1.95 -1.65 -1.8L1.05 -1.25Q1.95 -0.9 2.95 -0.65L3.65 -0.45Q4.1 -0.45 4.35 0.2Q4.6 0.8 3.95 1.05L3 1.4Q3.85 1.05 3.5 0.15L2.9 -0.35L0.45 0.35M1.5 0.7L0.85 0.45Q2.3 0.5 2.5 0.9L1.65 1.85L1.15 1.85L1.6 1.45" />
<path style="fill:#363434;fill-opacity:1" d="M1.65 1.85L2.5 0.9Q2.3 0.5 0.85 0.45L1.5 0.7Q1.9 1.05 1.6 1.45L-0.3 1.35Q-0.55 0.95 -0.1 0.65Q0.3 0.35 0.45 0.35L2.9 -0.35L3.5 0.15Q3.85 1.05 3 1.4L1.65 1.85" />
<path style="fill:none;stroke-width:0.7;stroke-linecap:round;stroke-linejoin:round;stroke-miterlimit:3;stroke:#000000;stroke-opacity:0.4" d="M2.9 -0.35L3.5 0.15Q3.85 1.05 3 1.4L3.95 1.05Q4.6 0.8 4.35 0.2Q4.1 -0.45 3.65 -0.45L2.95 -0.65Q1.95 -0.9 1.05 -1.25L-1.65 -1.8Q-3.05 -1.95 -3.95 -1.35Q-4.65 -0.9 -4.15 0.05Q-4.15 0.2 -3.35 0.6L-2.05 1.15L-1.55 1.4L-1.25 1.55L0.4 1.9L1.15 1.85L1.6 1.45" />
<path style="fill:none;stroke-width:0.7;stroke-linecap:round;stroke-linejoin:round;stroke-miterlimit:3;stroke:#000000;stroke-opacity:0.4" d="M1.6 1.45Q1.9 1.05 1.5 0.7L0.85 0.45" />
<path style="fill:none;stroke-width:0.7;stroke-linecap:round;stroke-linejoin:round;stroke-miterlimit:3;stroke:#000000;stroke-opacity:0.4" d="M1.65 1.85L3 1.4" />
<path style="fill:none;stroke-width:0.7;stroke-linecap:round;stroke-linejoin:round;stroke-miterlimit:3;stroke:#000000;stroke-opacity:0.4" d="M1.65 1.85L1.15 1.85" />
</g>
</svg>
