<?xml version="1.0" encoding="utf-8"?>
<svg version="1.1" id="Layer_1"
xmlns="http://www.w3.org/2000/svg"
xmlns:xlink="http://www.w3.org/1999/xlink"
width="18px" height="14px"
xml:space="preserve">
<g id="PathID_6067" transform="matrix(1, 0, 0, 1, 7.35, 6.85)">
<path style="fill:#564A5E;fill-opacity:1" d="M-6.35 -3.25Q-5.85 -4.3 -4.95 -5.15L-4.7 -5.35L-4.55 -5.45Q-3.7 -6.2 -2.7 -6.55L-0.1 -6.85Q1.55 -6.75 2.9 -6L4.7 -4.6L4.85 -4.4L5.45 -3.7L6.05 -2.6L6.8 -0.3Q7.3 1.45 6.95 3.2L6.9 3.55L6.85 3.5Q1.5 4.7 -1.5 3.55Q-4.5 2.4 -5.55 1.4Q-6.65 0.35 -6.35 -3.25" />
<path style="fill:#312835;fill-opacity:1" d="M-5.55 1.4Q-4.5 2.4 -1.5 3.55Q1.5 4.7 6.85 3.5L6.9 3.55L7.35 4.6Q8.15 5.6 10.55 6.6Q3.6 6.85 1.05 6.55L-3.8 5.65Q-6.1 5.15 -6.75 3.7Q-7.4 2.25 -7.15 0.15Q-6.95 -2 -6.35 -3.25Q-6.65 0.35 -5.55 1.4" />
<path style="fill:none;stroke-width:0.7;stroke-linecap:round;stroke-linejoin:miter;stroke-miterlimit:5;stroke:#000000;stroke-opacity:0.4" d="M1.05 6.55L-3.8 5.65Q-6.1 5.15 -6.75 3.7Q-7.4 2.25 -7.15 0.15Q-6.95 -2 -6.35 -3.25Q-5.85 -4.3 -4.95 -5.15L-4.7 -5.35" />
<path style="fill:none;stroke-width:0.7;stroke-linecap:round;stroke-linejoin:miter;stroke-miterlimit:5;stroke:#000000;stroke-opacity:0.4" d="M-4.55 -5.45Q-3.7 -6.2 -2.7 -6.55" />
</g>
</svg>
