<?xml version="1.0" encoding="utf-8"?>
<svg version="1.1" id="Layer_1"
xmlns="http://www.w3.org/2000/svg"
xmlns:xlink="http://www.w3.org/1999/xlink"
width="18px" height="14px"
xml:space="preserve">
<g id="PathID_5357" transform="matrix(1, 0, 0, 1, 7.3, 6.75)">
<path style="fill:#DBB086;fill-opacity:1" d="M3.4 2.15Q1.55 1.6 1.55 3.95L1.65 4.2L0.35 4L-1.8 3.3L-4.05 2.45L-4.55 1.95L-5.5 0.35Q-6.5 -1.65 -6.35 -3.25Q-5.9 -4.3 -3.95 -5.9L-2.7 -6.55L-2.55 -6.6L-0.6 -6.75L-0.25 -6.75L1.85 -6.4L2.9 -6L4.85 -4.2L6.05 -2.6L6.6 -0.95L7.05 0.7L6.9 3.55L5.25 4.05Q5.05 2.65 3.4 2.15M0.8 -5.75L0.75 -6.05L-0.65 -5.95L-1.05 -5.3Q-1.05 -4.75 -0.6 -4.55L0.5 -5.1L0.8 -5.75M-4.1 -1.15L-2.85 -0.2L-1.8 -0.2Q-1.1 -0.9 -0.95 -1.3L-0.9 -2.4Q-0.9 -4.55 -2.55 -4.3Q-4.2 -4.05 -4.2 -1.9L-4.1 -1.15" />
<path style="fill:#CBA177;fill-opacity:1" d="M0.5 -5.1L-0.6 -4.55Q-1.05 -4.75 -1.05 -5.3L-0.65 -5.95L0.75 -6.05L0.8 -5.75L0.5 -5.1M-4.2 -1.9Q-4.2 -4.05 -2.55 -4.3Q-0.9 -4.55 -0.9 -2.4L-0.95 -1.3Q-1.1 -0.9 -1.8 -0.2L-2.85 -0.2L-4.1 -1.15L-4.2 -1.9" />
<path style="fill:#C88960;fill-opacity:1" d="M-5.5 0.35L-4.55 1.95L-4.05 2.45L-1.8 3.3L0.35 4L1.65 4.2L1.8 4.8Q2.3 5.7 3.8 5.7Q5.05 5.7 5.25 5.2L5.25 4.4L5.25 4.05L6.9 3.55L8.15 4.85Q9.55 6.2 10.55 6.6L8.85 6.65L3.4 6.7L1.05 6.55L-3.1 5.85L-5.4 5.1L-6.35 4.05Q-6.9 3.15 -7.05 1.95L-7.15 0.15Q-7.1 -1.7 -6.35 -3.25Q-6.5 -1.65 -5.5 0.35M6 6.15L6.5 6.3L7.05 6.2L7.05 5.7L6.3 5.6Q6 5.7 6 5.9L6 6.15" />
<path style="fill:#4A2E23;fill-opacity:1" d="M5.25 4.05L5.25 4.4L5.25 5.2Q5.05 5.7 3.8 5.7Q2.3 5.7 1.8 4.8L1.65 4.2L1.55 3.95Q1.55 1.6 3.4 2.15Q5.05 2.65 5.25 4.05M6 5.9Q6 5.7 6.3 5.6L7.05 5.7L7.05 6.2L6.5 6.3L6 6.15L6 5.9" />
<path style="fill:none;stroke-width:0.7;stroke-linecap:round;stroke-linejoin:miter;stroke-miterlimit:5;stroke:#000000;stroke-opacity:0.4" d="M1.05 6.55L-3.1 5.85L-5.4 5.1L-6.35 4.05Q-6.9 3.15 -7.05 1.95L-7.15 0.15Q-7.1 -1.7 -6.35 -3.25Q-5.9 -4.3 -3.95 -5.9L-2.7 -6.55" />
</g>
</svg>
