<?xml version="1.0" encoding="utf-8"?>
<svg version="1.1" id="Layer_1"
xmlns="http://www.w3.org/2000/svg"
xmlns:xlink="http://www.w3.org/1999/xlink"
width="19px" height="13px"
xml:space="preserve">
<g id="PathID_4751" transform="matrix(1, 0, 0, 1, 14.1, 3.7)">
<path style="fill:#F7BFD8;fill-opacity:1" d="M3.3 -1.45Q3.65 -1.9 4.35 -1.05Q3.65 -1.9 3.3 -1.45L3.1 -1.2Q3.3 -2.3 3.7 -2L4.25 -1.5L4.25 -1.2L4.3 -1.15L4.35 -1.05L4.45 0.1Q3.5 -0.2 2.95 1.2Q3.5 -0.2 4.45 0.1L4.45 0.9Q3.1 3.15 2.2 2.7L0.15 0.85Q-2.2 0.55 -3.15 -0.2L-3.45 -0.5L-3.3 -0.05L-2.75 0.6L-2.6 0.8L-2.7 1.95L-2.9 2.8Q-3.75 4.1 -4 3.25L-4.2 1.15Q-4.6 1.65 -4.9 1.65L-5.15 1.45L-5.05 0.8Q-8.55 2.4 -5.85 -0.75Q-9.55 0.1 -5.05 -2.5L-3.25 -3Q-1.95 -3.9 -0.65 -3.6Q0.9 -3.25 1.75 -2.2L2.55 -1.2L2.75 -1.05L3.1 -1.2L3.3 -1.45" />
<path style="fill:#78583A;fill-opacity:1" d="M4.3 -1.15L4.4 -1L4.35 -1.05L4.3 -1.15" />
<path style="fill:#F7A1B7;fill-opacity:1" d="M-2.75 0.6L-3.3 -0.05L-3.45 -0.5L-3.15 -0.2Q-2.2 0.55 0.15 0.85L2.2 2.7Q3.1 3.15 4.45 0.9Q4.15 2.9 3.6 3.45L2.95 3.85Q2.3 4 1.55 3.4L-2.75 0.6" />
<path style="fill:#F18699;fill-opacity:1" d="M-3.85 5.55Q-4.55 6.15 -5.35 4.6L-5.9 5.65Q-6.4 6.35 -6.5 4.75L-7.45 6.1Q-8.2 7.05 -7.7 3.95L-7.55 3.6Q-8.5 4.65 -8.65 3.9L-8.65 3.15Q-11.1 3.55 -10.55 2.7Q-10.3 2.25 -9.05 1.55L-9.2 1.2Q-9.45 0.7 -9.2 0.3Q-10.55 0.1 -10.35 -0.4L-9.65 -1.1L-5.05 -2.5Q-9.55 0.1 -5.85 -0.75Q-8.55 2.4 -5.05 0.8L-5.15 1.45L-4.9 1.65Q-4.6 1.65 -4.2 1.15L-4 3.25Q-3.75 4.1 -2.9 2.8Q-3.55 5.2 -3.85 5.55" />
<path style="fill:#EA5662;fill-opacity:1" d="M-4.35 7.9Q-5.35 7.75 -5.65 6Q-5.9 7.05 -7 8.2Q-8.1 9.35 -8.45 9Q-8.8 8.6 -8.5 6.55L-8.1 4.75L-7.7 3.95Q-8.2 7.05 -7.45 6.1L-6.5 4.75Q-6.4 6.35 -5.9 5.65L-5.35 4.6Q-4.55 6.15 -3.85 5.55Q-3.55 5.2 -2.9 2.8L-2.7 1.95Q-3.4 8.05 -4.35 7.9M-10.35 -0.4Q-10.55 0.1 -9.2 0.3Q-9.45 0.7 -9.2 1.2L-9.05 1.55Q-10.3 2.25 -10.55 2.7L-9.75 1.45L-10.45 1.2Q-12.25 0.4 -11.65 -0.15L-9.65 -1.1L-10.35 -0.4M-10.55 2.7Q-11.1 3.55 -8.65 3.15L-8.65 3.9Q-8.5 4.65 -7.55 3.6L-7.7 3.95L-8.1 4.75Q-9.1 6.15 -9.55 6.35Q-9.95 6.55 -9.75 5.5L-9.45 4.6Q-9.75 5 -11.1 5.15L-12.25 5.15Q-14.55 5 -13.7 4.05Q-13.5 3.8 -11.8 2.9L-10.2 2L-9.05 1.55" />
<path style="fill:none;stroke-width:0.7;stroke-linecap:round;stroke-linejoin:round;stroke-miterlimit:3;stroke:#000000;stroke-opacity:0.4" d="M-2.75 0.6L-3.3 -0.05L-3.45 -0.5" />
<path style="fill:none;stroke-width:0.7;stroke-linecap:round;stroke-linejoin:round;stroke-miterlimit:3;stroke:#000000;stroke-opacity:0.4" d="M4.45 0.9L4.45 0.1Q3.5 -0.2 2.95 1.2" />
<path style="fill:none;stroke-width:0.7;stroke-linecap:round;stroke-linejoin:round;stroke-miterlimit:3;stroke:#000000;stroke-opacity:0.4" d="M3.1 -1.2L2.75 -1.05" />
<path style="fill:none;stroke-width:0.7;stroke-linecap:round;stroke-linejoin:round;stroke-miterlimit:3;stroke:#000000;stroke-opacity:0.4" d="M4.35 -1.05Q3.65 -1.9 3.3 -1.45L3.1 -1.2Q3.3 -2.3 3.7 -2L4.25 -1.5L4.25 -1.2L4.3 -1.15L4.4 -1L4.35 -1.05L4.45 0.1" />
<path style="fill:none;stroke-width:0.7;stroke-linecap:round;stroke-linejoin:round;stroke-miterlimit:3;stroke:#000000;stroke-opacity:0.4" d="M4.3 -1.15L4.35 -1.05" />
<path style="fill:none;stroke-width:0.7;stroke-linecap:round;stroke-linejoin:round;stroke-miterlimit:3;stroke:#000000;stroke-opacity:0.4" d="M4.45 0.9Q4.15 2.9 3.6 3.45L2.95 3.85Q2.3 4 1.55 3.4L-2.75 0.6" />
<path style="fill:none;stroke-width:0.7;stroke-linecap:round;stroke-linejoin:round;stroke-miterlimit:3;stroke:#000000;stroke-opacity:0.4" d="M-9.65 -1.1L-11.65 -0.15Q-12.25 0.4 -10.45 1.2L-9.75 1.45L-9.05 1.55" />
<path style="fill:none;stroke-width:0.7;stroke-linecap:round;stroke-linejoin:round;stroke-miterlimit:3;stroke:#000000;stroke-opacity:0.4" d="M-9.65 -1.1L-5.05 -2.5" />
<path style="fill:none;stroke-width:0.7;stroke-linecap:round;stroke-linejoin:round;stroke-miterlimit:3;stroke:#000000;stroke-opacity:0.4" d="M-9.05 1.55L-10.2 2L-11.8 2.9Q-13.5 3.8 -13.7 4.05Q-14.55 5 -12.25 5.15L-11.1 5.15Q-9.75 5 -9.45 4.6L-9.75 5.5Q-9.95 6.55 -9.55 6.35Q-9.1 6.15 -8.1 4.75L-7.7 3.95L-7.55 3.6" />
<path style="fill:none;stroke-width:0.7;stroke-linecap:round;stroke-linejoin:round;stroke-miterlimit:3;stroke:#000000;stroke-opacity:0.4" d="M-8.1 4.75L-8.5 6.55Q-8.8 8.6 -8.45 9Q-8.1 9.35 -7 8.2Q-5.9 7.05 -5.65 6Q-5.35 7.75 -4.35 7.9Q-3.4 8.05 -2.7 1.95" />
</g>
</svg>
