<?xml version="1.0" encoding="utf-8"?>
<svg version="1.1" id="Layer_1"
xmlns="http://www.w3.org/2000/svg"
xmlns:xlink="http://www.w3.org/1999/xlink"
width="4px" height="16px"
xml:space="preserve">
<g id="PathID_4753" transform="matrix(1, 0, 0, 1, 2.4, 7.4)">
<path style="fill:#F17798;fill-opacity:1" d="M0.55 5L0.55 5.25L-0.15 8.05L-0.55 8.3Q-1 8.3 -1.35 7L-1.55 6.3L-2.2 3.25L-2.4 1.3L-2.05 -1.75L-1.5 -5.1Q-1.1 -7.4 -0.55 -7.4Q0 -7.4 0.4 -5.1Q0.8 -2.8 0.8 0.45L0.55 5" />
<path style="fill:none;stroke-width:0.7;stroke-linecap:round;stroke-linejoin:round;stroke-miterlimit:3;stroke:#000000;stroke-opacity:0.301961" d="M0.55 5L0.55 5.25L-0.15 8.05L-0.55 8.3Q-1 8.3 -1.35 7L-1.55 6.3L-2.2 3.25L-2.4 1.3L-2.05 -1.75L-1.5 -5.1Q-1.1 -7.4 -0.55 -7.4Q0 -7.4 0.4 -5.1Q0.8 -2.8 0.8 0.45" />
</g>
</svg>
