<?xml version="1.0" encoding="utf-8"?>
<svg version="1.1" id="Layer_1"
xmlns="http://www.w3.org/2000/svg"
xmlns:xlink="http://www.w3.org/1999/xlink"
width="9px" height="8px"
xml:space="preserve">
<g id="PathID_5209" transform="matrix(1, 0, 0, 1, 3.95, 3.8)">
<linearGradient
id="LinearGradID_1288" gradientUnits="userSpaceOnUse" gradientTransform="matrix(0.00575256, 0, 3.05176e-005, 0.00445557, -1.6, 0.2)" spreadMethod ="pad" x1="-819.2" y1="0" x2="819.2" y2="0" >
<stop  offset="0.443137" style="stop-color:#8D481B;stop-opacity:1" />
<stop  offset="0.992157" style="stop-color:#D47C30;stop-opacity:1" />
</linearGradient>
<path style="fill:url(#LinearGradID_1288) " d="M0.65 1.35L-0.1 0.75Q-2.85 0.4 -3.7 -0.6L-3.8 -0.85Q-4.15 -2.25 -3.5 -3.1Q-2.2 -4 -0.9 -3.7Q0.65 -3.35 2 -1.95L2.3 -1.65L2.8 -1.1L3.5 -0.2L1.9 0.1Q1.05 0.55 0.7 1.45L0.65 1.35" />
<path style="fill:#7B2C06;fill-opacity:1" d="M3.45 0.9L4.2 2.1Q4.55 2.6 3.5 3.25Q3.25 2.2 2.3 1.6Q3.25 2.2 3.5 3.25L3.4 3.55Q3.25 3.75 2.7 3.75Q2.1 2.6 0.7 1.45Q1.05 0.55 1.9 0.1L3.5 -0.2L3.6 -0.1Q4.05 0.5 4.2 2.1L3.45 0.9" />
<path style="fill:#8F310F;fill-opacity:1" d="M-1.6 1.45Q-3.25 0.45 -3.55 -0.15L-3.7 -0.6Q-2.85 0.4 -0.1 0.75L0.65 1.35L0.7 1.45L0.7 1.5Q0.5 1.95 0.45 2.75L-1.6 1.45" />
<path style="fill:#622305;fill-opacity:1" d="M1.3 3.3L0.45 2.75Q0.5 1.95 0.7 1.5L0.7 1.45Q2.1 2.6 2.7 3.75Q2.05 3.9 1.3 3.3" />
<path style="fill:none;stroke-width:0.7;stroke-linecap:round;stroke-linejoin:miter;stroke-miterlimit:5;stroke:#000000;stroke-opacity:0.4" d="M4.2 2.1Q4.05 0.5 3.6 -0.1L3.5 -0.2" />
<path style="fill:none;stroke-width:0.7;stroke-linecap:round;stroke-linejoin:miter;stroke-miterlimit:5;stroke:#000000;stroke-opacity:0.4" d="M2.7 3.75Q3.25 3.75 3.4 3.55L3.5 3.25Q3.25 2.2 2.3 1.6" />
<path style="fill:none;stroke-width:0.7;stroke-linecap:round;stroke-linejoin:miter;stroke-miterlimit:5;stroke:#000000;stroke-opacity:0.4" d="M3.5 -0.2L2.8 -1.1L2.3 -1.65" />
<path style="fill:none;stroke-width:0.7;stroke-linecap:round;stroke-linejoin:miter;stroke-miterlimit:5;stroke:#000000;stroke-opacity:0.4" d="M-3.8 -0.85L-3.7 -0.6" />
<path style="fill:none;stroke-width:0.7;stroke-linecap:round;stroke-linejoin:miter;stroke-miterlimit:5;stroke:#000000;stroke-opacity:0.4" d="M0.45 2.75L1.3 3.3Q2.05 3.9 2.7 3.75" />
<path style="fill:none;stroke-width:0.7;stroke-linecap:round;stroke-linejoin:miter;stroke-miterlimit:5;stroke:#000000;stroke-opacity:0.4" d="M4.2 2.1L3.45 0.9" />
<path style="fill:none;stroke-width:0.7;stroke-linecap:round;stroke-linejoin:miter;stroke-miterlimit:5;stroke:#000000;stroke-opacity:0.4" d="M3.5 3.25Q4.55 2.6 4.2 2.1" />
<path style="fill:none;stroke-width:0.7;stroke-linecap:round;stroke-linejoin:miter;stroke-miterlimit:5;stroke:#000000;stroke-opacity:0.4" d="M-3.7 -0.6L-3.55 -0.15Q-3.25 0.45 -1.6 1.45L0.45 2.75" />
</g>
</svg>
