<?xml version="1.0" encoding="utf-8"?>
<svg version="1.1" id="Layer_1"
xmlns="http://www.w3.org/2000/svg"
xmlns:xlink="http://www.w3.org/1999/xlink"
width="9px" height="8px"
xml:space="preserve">
<g id="PathID_5233" transform="matrix(1, 0, 0, 1, 3.95, 3.8)">
<path style="fill:#F1F1E8;fill-opacity:1" d="M2.55 -1.15Q1.45 0 2.55 1.2Q2.4 2.6 3.5 2.65L3.8 2.6L3.35 3.35L2.7 3.75Q2.05 3.9 1.3 3.3Q0.1 2.4 -1.6 1.45Q-3.25 0.45 -3.55 -0.15L-3.75 -0.75L-3.8 -0.85Q-4.15 -2.25 -3.5 -3.1Q-2.2 -4 -0.9 -3.7Q0.65 -3.35 1.5 -2.3L2.3 -1.3L2.5 -1.15L2.55 -1.15" />
<path style="fill:#4E5755;fill-opacity:1" d="M4.2 0Q3.25 -0.3 2.55 1.2Q3.25 -0.3 4.2 0L4.2 0.8L3.8 2.6L3.5 2.65Q2.4 2.6 2.55 1.2Q1.45 0 2.55 -1.15L2.85 -1.3Q3.05 -2.4 3.45 -2.1L4 -1.6L4 -1.3L4.05 -1.25L4.1 -1.15Q3.4 -2 3.05 -1.55L2.85 -1.3L3.05 -1.55Q3.4 -2 4.1 -1.15L4.2 0" />
<path style="fill:#78583A;fill-opacity:1" d="M4.15 -1.1L4.1 -1.15L4.05 -1.25L4.15 -1.1" />
<path style="fill:none;stroke-width:0.7;stroke-linecap:round;stroke-linejoin:round;stroke-miterlimit:3;stroke:#000000;stroke-opacity:0.4" d="M-3.8 -0.85L-3.75 -0.75L-3.55 -0.15Q-3.25 0.45 -1.6 1.45Q0.1 2.4 1.3 3.3Q2.05 3.9 2.7 3.75L3.35 3.35L3.8 2.6" />
<path style="fill:none;stroke-width:0.7;stroke-linecap:round;stroke-linejoin:round;stroke-miterlimit:3;stroke:#000000;stroke-opacity:0.4" d="M2.55 -1.15L2.5 -1.15" />
<path style="fill:none;stroke-width:0.7;stroke-linecap:round;stroke-linejoin:round;stroke-miterlimit:3;stroke:#000000;stroke-opacity:0.4" d="M2.85 -1.3L2.55 -1.15" />
<path style="fill:none;stroke-width:0.7;stroke-linecap:round;stroke-linejoin:round;stroke-miterlimit:3;stroke:#000000;stroke-opacity:0.4" d="M4.05 -1.25L4.1 -1.15L4.15 -1.1L4.05 -1.25L4 -1.3L4 -1.6L3.45 -2.1Q3.05 -2.4 2.85 -1.3L3.05 -1.55Q3.4 -2 4.1 -1.15" />
<path style="fill:none;stroke-width:0.7;stroke-linecap:round;stroke-linejoin:round;stroke-miterlimit:3;stroke:#000000;stroke-opacity:0.4" d="M3.8 2.6L4.2 0.8L4.2 0Q3.25 -0.3 2.55 1.2" />
<path style="fill:none;stroke-width:0.7;stroke-linecap:round;stroke-linejoin:round;stroke-miterlimit:3;stroke:#000000;stroke-opacity:0.4" d="M4.2 0L4.1 -1.15" />
</g>
</svg>
