<?xml version="1.0" encoding="utf-8"?>
<svg version="1.1" id="Layer_1"
xmlns="http://www.w3.org/2000/svg"
xmlns:xlink="http://www.w3.org/1999/xlink"
width="21px" height="20px"
xml:space="preserve">
<g id="PathID_5095" transform="matrix(1, 0, 0, 1, 10.65, 9.2)">
<path style="fill:#AE5522;fill-opacity:1" d="M-2.75 -6.95L1.1 -8.55L3.55 -9.15Q1 -8.2 -1.2 -4.8Q-2.3 -5.65 -2.75 -6.95M9.5 1.5Q9.85 -3.95 8 -4.85Q7.4 -4.4 6.5 -4.1Q6.45 -8.05 4.6 -9.15Q5.85 -9.05 6.45 -8.05Q7.45 -8.45 8.5 -6.1Q9.6 -3.8 9.65 -2.05L9.75 1.5L9.5 1.5M9.25 3.6L9.8 3.6Q9.95 7.5 5.45 8.95L3.85 9.4L4.25 8Q8.55 7.05 9.25 3.6M-5.95 7.35L-6.25 8.6L-8.4 7.3Q-10.9 5.45 -10.45 3.5L-9.6 1.2L-9.2 1.3Q-10.15 5.5 -5.95 7.35" />
<path style="fill:#CD7525;fill-opacity:1" d="M-8.3 -0.75L-7.8 -1.45L-5.95 -3.8L-2.75 -6.95Q-2.3 -5.65 -1.2 -4.8Q-2.5 -2.8 -3.65 0.2L-8.3 -0.75M5.9 1.35Q6.5 -1.85 6.5 -4.1Q7.4 -4.4 8 -4.85Q9.85 -3.95 9.5 1.5L5.9 1.35M-9.2 1.3L-4.4 2.2L-5.95 7.35Q-10.15 5.5 -9.2 1.3M4.25 8L5.45 3.4L9.25 3.6Q8.55 7.05 4.25 8" />
<path style="fill:#49382F;fill-opacity:1" d="M9.4 2.8L5.6 2.85L3.2 2.75Q3.85 2 3.25 1.1L5.9 1.35L9.5 1.5L9.75 1.5L9.8 2.75L9.4 2.8M-1.1 2.3L-4.25 1.7L-8.95 0.4L-9.1 0.35L-8.8 -0.05L-8.3 -0.75L-3.65 0.2L-0.3 0.7Q-1.3 1.5 -1.1 2.3" />
<radialGradient
id="RadialGradID_1234" gradientUnits="userSpaceOnUse" gradientTransform="matrix(0.00672913, 0.00178528, -0.00296021, 0.0110931, 1.45, 1.25)" spreadMethod ="pad" cx="0" cy="0" r="819.2" fx="210441" fy="0" >
<stop  offset="0.74902"  style="stop-color:#B07F72;stop-opacity:1" />
<stop  offset="1"  style="stop-color:#AE5522;stop-opacity:1" />
</radialGradient>
<path style="fill:url(#RadialGradID_1234) " d="M6.5 -4.1L3.65 -3.55L3.8 -3.95Q3.15 -4.3 2.3 -3.55Q0.1 -3.9 -1.2 -4.8Q1 -8.2 3.55 -9.15L4.6 -9.15Q6.45 -8.05 6.5 -4.1" />
<radialGradient
id="RadialGradID_1235" gradientUnits="userSpaceOnUse" gradientTransform="matrix(0.00727844, 0.00262451, -0.00514221, 0.0142975, -0.05, 4.4)" spreadMethod ="pad" cx="0" cy="0" r="819.2" fx="0" fy="0" >
<stop  offset="0.74902"  style="stop-color:#F4D4A0;stop-opacity:1" />
<stop  offset="1"  style="stop-color:#CD7525;stop-opacity:1" />
</radialGradient>
<path style="fill:url(#RadialGradID_1235) " d="M5.9 1.35L3.25 1.1L-0.3 0.7L-3.65 0.2Q-2.5 -2.8 -1.2 -4.8Q0.1 -3.9 2.3 -3.55Q3.15 -4.3 3.8 -3.95L3.65 -3.55L6.5 -4.1Q6.5 -1.85 5.9 1.35M2.15 -0.75Q3.75 -0.85 4.2 -2.6L2.85 -2.45L3.65 -3.55L2.85 -2.45L4.2 -2.6Q3.75 -0.85 2.15 -0.75M2.3 -3.55L1.35 -2.5L2.3 -3.55M2.45 -2.15L2.85 -2.45L2.45 -2.15M5.45 3.4L4.25 8Q0.95 8.7 -4.4 7.9L-5.95 7.35L-4.4 2.2L-0.85 2.75L2.65 3.15L5.45 3.4" />
<path style="fill:#352222;fill-opacity:1" d="M9.25 3.6L5.45 3.4L2.65 3.15L3.2 2.75L5.6 2.85L9.4 2.8L9.8 2.75L9.8 3.6L9.25 3.6M-8.95 0.4L-4.25 1.7L-1.1 2.3L-0.85 2.75L-4.4 2.2L-9.2 1.3L-9.6 1.2L-9.1 0.35L-8.95 0.4M1.75 2.35L0.75 2.25Q0.2 1.75 0.9 1.5L1.85 1.6Q2.55 2.05 1.75 2.35" />
<path style="fill:#C5C7C7;fill-opacity:1" d="M3.2 2.75L-1.1 2.3Q-1.3 1.5 -0.3 0.7L3.25 1.1Q3.85 2 3.2 2.75M1.85 1.6L0.9 1.5Q0.2 1.75 0.75 2.25L1.75 2.35Q2.55 2.05 1.85 1.6" />
<path style="fill:#A9A9A9;fill-opacity:1" d="M3.2 2.75L2.65 3.15L-0.85 2.75L-1.1 2.3L3.2 2.75" />
<path style="fill:#B07F72;fill-opacity:1" d="M-5.95 7.35L-4.4 7.9Q0.95 8.7 4.25 8L3.85 9.4L2.9 9.6L-2.5 9.75L-3.25 9.6L-6.25 8.6L-5.95 7.35" />
<path style="fill:none;stroke-width:0.7;stroke-linecap:round;stroke-linejoin:round;stroke-miterlimit:3;stroke:#000000;stroke-opacity:0.4" d="M2.3 -3.55Q3.15 -4.3 3.8 -3.95L3.65 -3.55" />
<path style="fill:none;stroke-width:0.7;stroke-linecap:round;stroke-linejoin:miter;stroke-miterlimit:5;stroke:#000000;stroke-opacity:0.4" d="M6.45 -8.05Q7.45 -8.45 8.5 -6.1Q9.6 -3.8 9.65 -2.05L9.75 1.5L9.8 2.75L9.8 3.6Q9.95 7.5 5.45 8.95L3.85 9.4L2.9 9.6L-2.5 9.75L-3.25 9.6L-6.25 8.6L-8.4 7.3Q-10.9 5.45 -10.45 3.5L-9.6 1.2L-9.1 0.35L-8.8 -0.05L-8.3 -0.75L-7.8 -1.45L-5.95 -3.8L-2.75 -6.95L1.1 -8.55" />
<path style="fill:none;stroke-width:0.7;stroke-linecap:round;stroke-linejoin:round;stroke-miterlimit:3;stroke:#000000;stroke-opacity:0.4" d="M3.65 -3.55L2.85 -2.45L4.2 -2.6Q3.75 -0.85 2.15 -0.75" />
<path style="fill:none;stroke-width:0.7;stroke-linecap:round;stroke-linejoin:round;stroke-miterlimit:3;stroke:#000000;stroke-opacity:0.4" d="M1.35 -2.5L2.3 -3.55" />
<path style="fill:none;stroke-width:0.7;stroke-linecap:round;stroke-linejoin:round;stroke-miterlimit:3;stroke:#000000;stroke-opacity:0.4" d="M2.85 -2.45L2.45 -2.15" />
<path style="fill:none;stroke-width:0.7;stroke-linecap:round;stroke-linejoin:round;stroke-miterlimit:3;stroke:#000000;stroke-opacity:0.4" d="M9.5 1.5L9.75 1.5" />
<path style="fill:none;stroke-width:0.7;stroke-linecap:round;stroke-linejoin:round;stroke-miterlimit:3;stroke:#000000;stroke-opacity:0.4" d="M-3.65 0.2L-0.3 0.7L3.25 1.1L5.9 1.35" />
<path style="fill:none;stroke-width:0.7;stroke-linecap:round;stroke-linejoin:round;stroke-miterlimit:3;stroke:#000000;stroke-opacity:0.4" d="M-0.85 2.75L-1.1 2.3" />
<path style="fill:none;stroke-width:0.7;stroke-linecap:round;stroke-linejoin:round;stroke-miterlimit:3;stroke:#000000;stroke-opacity:0.4" d="M-4.4 2.2L-0.85 2.75L2.65 3.15L3.2 2.75" />
<path style="fill:none;stroke-width:0.7;stroke-linecap:round;stroke-linejoin:round;stroke-miterlimit:3;stroke:#000000;stroke-opacity:0.4" d="M-1.1 2.3Q-1.3 1.5 -0.3 0.7" />
<path style="fill:none;stroke-width:0.7;stroke-linecap:round;stroke-linejoin:round;stroke-miterlimit:3;stroke:#000000;stroke-opacity:0.4" d="M-9.6 1.2L-9.2 1.3L-4.4 2.2" />
<path style="fill:none;stroke-width:0.7;stroke-linecap:round;stroke-linejoin:round;stroke-miterlimit:3;stroke:#000000;stroke-opacity:0.4" d="M5.45 3.4L2.65 3.15" />
<path style="fill:none;stroke-width:0.7;stroke-linecap:round;stroke-linejoin:round;stroke-miterlimit:3;stroke:#000000;stroke-opacity:0.4" d="M9.5 1.5L5.9 1.35" />
<path style="fill:none;stroke-width:0.7;stroke-linecap:round;stroke-linejoin:round;stroke-miterlimit:3;stroke:#000000;stroke-opacity:0.4" d="M5.45 3.4L9.25 3.6L9.8 3.6" />
<path style="fill:none;stroke-width:0.7;stroke-linecap:round;stroke-linejoin:round;stroke-miterlimit:3;stroke:#000000;stroke-opacity:0.4" d="M1.75 2.35L0.75 2.25Q0.2 1.75 0.9 1.5L1.85 1.6Q2.55 2.05 1.75 2.35z" />
<path style="fill:none;stroke-width:0.7;stroke-linecap:round;stroke-linejoin:round;stroke-miterlimit:3;stroke:#000000;stroke-opacity:0.4" d="M3.25 1.1Q3.85 2 3.2 2.75" />
<path style="fill:none;stroke-width:0.7;stroke-linecap:round;stroke-linejoin:round;stroke-miterlimit:3;stroke:#000000;stroke-opacity:0.4" d="M-8.3 -0.75L-3.65 0.2" />
</g>
</svg>
