<?xml version="1.0" encoding="utf-8"?>
<svg version="1.1" id="Layer_1"
xmlns="http://www.w3.org/2000/svg"
xmlns:xlink="http://www.w3.org/1999/xlink"
width="9px" height="8px"
xml:space="preserve">
<g id="PathID_5050" transform="matrix(1, 0, 0, 1, 3.85, 3.9)">
<path style="fill:#EDE9A0;fill-opacity:1" d="M2.95 -1.3L3.15 -1.55Q3.5 -2 4.2 -1.15L4.3 0L4.3 0.8Q4 2.8 3.45 3.35L2.8 3.75Q2.15 3.9 1.4 3.3Q0.2 2.4 -1.5 1.45Q-3.15 0.45 -3.45 -0.15L-3.65 -0.75L-3.7 -0.85Q-4.05 -2.25 -3.4 -3.1Q-2.1 -4 -0.8 -3.7Q0.75 -3.35 1.6 -2.3L2.4 -1.3L2.6 -1.15L2.95 -1.3Q3.15 -2.4 3.55 -2.1L4.1 -1.6L4.1 -1.3L4.15 -1.25L4.2 -1.15Q3.5 -2 3.15 -1.55L2.95 -1.3M2.8 1.1Q3.35 -0.3 4.3 0Q3.35 -0.3 2.8 1.1" />
<path style="fill:#78583A;fill-opacity:1" d="M4.15 -1.25L4.25 -1.1L4.2 -1.15L4.15 -1.25" />
<path style="fill:none;stroke-width:0.7;stroke-linecap:round;stroke-linejoin:round;stroke-miterlimit:3;stroke:#000000;stroke-opacity:0.4" d="M2.6 -1.15L2.95 -1.3Q3.15 -2.4 3.55 -2.1L4.1 -1.6L4.1 -1.3L4.15 -1.25L4.25 -1.1L4.2 -1.15L4.3 0L4.3 0.8Q4 2.8 3.45 3.35L2.8 3.75Q2.15 3.9 1.4 3.3Q0.2 2.4 -1.5 1.45Q-3.15 0.45 -3.45 -0.15L-3.65 -0.75L-3.7 -0.85" />
<path style="fill:none;stroke-width:0.7;stroke-linecap:round;stroke-linejoin:round;stroke-miterlimit:3;stroke:#000000;stroke-opacity:0.4" d="M4.15 -1.25L4.2 -1.15Q3.5 -2 3.15 -1.55L2.95 -1.3" />
<path style="fill:none;stroke-width:0.7;stroke-linecap:round;stroke-linejoin:round;stroke-miterlimit:3;stroke:#000000;stroke-opacity:0.4" d="M4.3 0Q3.35 -0.3 2.8 1.1" />
</g>
<g id="PathID_5051" transform="matrix(1, 0, 0, 1, 3.85, 3.9)">
<path style="fill:#64B636;fill-opacity:1" d="M0.95 -2.9L1.55 -2.3Q0.85 -0.3 -1.5 1.4L-2.55 0.7Q-3.35 0.3 -3.4 -0.25Q-0.05 -0.3 0.95 -2.9M-3.4 -0.25Q-0.6 -0.6 -0.2 -3.55L0.95 -2.9Q-0.05 -0.3 -2.55 0.7" />
<path style="fill:none;stroke-width:0.7;stroke-linecap:round;stroke-linejoin:miter;stroke-miterlimit:5;stroke:#000000;stroke-opacity:0.4" d="M-2.55 0.7L-1.5 1.4Q0.85 -0.3 1.55 -2.3L0.95 -2.9Q-0.05 -0.3 -2.55 0.7Q-3.35 0.3 -3.4 -0.25Q-0.6 -0.6 -0.2 -3.55L0.95 -2.9" />
</g>
</svg>
