<?xml version="1.0" encoding="utf-8"?>
<svg version="1.1" id="Layer_1"
xmlns="http://www.w3.org/2000/svg"
xmlns:xlink="http://www.w3.org/1999/xlink"
width="18px" height="14px"
xml:space="preserve">
<g id="PathID_5240" transform="matrix(1, 0, 0, 1, 10.8, 6.8)">
<linearGradient
id="LinearGradID_1304" gradientUnits="userSpaceOnUse" gradientTransform="matrix(0.00401306, -0.00402832, 0.00512695, 0.00511169, -1.9, -1)" spreadMethod ="pad" x1="-819.2" y1="0" x2="819.2" y2="0" >
<stop  offset="0" style="stop-color:#F87053;stop-opacity:1" />
<stop  offset="1" style="stop-color:#FEAD67;stop-opacity:1" />
</linearGradient>
<path style="fill:url(#LinearGradID_1304) " d="M-5.1 1.65Q-5.95 0.65 -5.2 -1.6Q-7.9 0.2 -9.6 0.1L-10.55 -0.2L-9.6 -0.75L-8.1 -1.75Q-6 -3.3 -4.85 -5.1L-4.6 -5.3L-4.45 -5.4L-3.95 -5.8L-3.8 -5.9L-2.6 -6.5L0 -6.8Q2.85 -6.65 4.8 -4.55L5.05 -4.05Q5.7 -3.2 4.65 -1.75L2.3 0.6Q-1.6 3.85 -4.2 2.4L-4.9 1.85L-5.1 1.65" />
<path style="fill:#F8F0E8;fill-opacity:1" d="M-4.9 1.85L-4.2 2.4Q-1.6 3.85 2.3 0.6L4.65 -1.75Q5.7 -3.2 5.05 -4.05L4.8 -4.55L5.4 -3.8L5.55 -3.65L6.2 -2.5L6.4 -1.75Q7 1.75 3.45 3.55Q0.45 5.1 -2.45 4.25Q-4.8 3.65 -4.9 1.85" />
<path style="fill:#E5A5AE;fill-opacity:1" d="M6.5 -1.75L6.8 0.4Q6.8 3.25 4.8 5.15Q2.85 7 0 6.85Q-2.85 6.7 -4.85 4.55L-5 4.25L-2.45 4.25Q0.45 5.1 3.45 3.55Q7 1.75 6.4 -1.75L6.2 -2.5L6.5 -1.75" />
<path style="fill:#DFA6B0;fill-opacity:1" d="M-8.95 3.55L-6.65 3Q-5.95 2.75 -5.1 1.65L-4.9 1.85Q-4.8 3.65 -2.45 4.25L-5 4.25Q-7 4.6 -8.95 3.55" />
<path style="fill:#DE6042;fill-opacity:1" d="M-6.65 3L-8.95 3.55Q-7.35 1.7 -7.4 1Q-8.65 1.05 -9.6 0.55L-10.25 0.05L-10.55 -0.2L-9.6 0.1Q-7.9 0.2 -5.2 -1.6Q-5.95 0.65 -5.1 1.65Q-5.95 2.75 -6.65 3" />
<path style="fill:none;stroke-width:0.7;stroke-linecap:round;stroke-linejoin:miter;stroke-miterlimit:5;stroke:#000000;stroke-opacity:0.4" d="M6.2 -2.5L5.55 -3.65" />
<path style="fill:none;stroke-width:0.7;stroke-linecap:round;stroke-linejoin:miter;stroke-miterlimit:5;stroke:#000000;stroke-opacity:0.4" d="M-5 4.25L-4.85 4.55Q-2.85 6.7 0 6.85Q2.85 7 4.8 5.15Q6.8 3.25 6.8 0.4L6.5 -1.75L6.2 -2.5" />
<path style="fill:none;stroke-width:0.7;stroke-linecap:round;stroke-linejoin:miter;stroke-miterlimit:5;stroke:#000000;stroke-opacity:0.4" d="M-2.6 -6.5L-3.8 -5.9L-3.95 -5.8L-4.45 -5.4L-4.6 -5.3L-4.85 -5.1Q-6 -3.3 -8.1 -1.75L-9.6 -0.75L-10.55 -0.2" />
<path style="fill:none;stroke-width:0.7;stroke-linecap:round;stroke-linejoin:miter;stroke-miterlimit:5;stroke:#000000;stroke-opacity:0.4" d="M-10.55 -0.2L-10.25 0.05L-9.6 0.55Q-8.65 1.05 -7.4 1Q-7.35 1.7 -8.95 3.55" />
<path style="fill:none;stroke-width:0.7;stroke-linecap:round;stroke-linejoin:miter;stroke-miterlimit:5;stroke:#000000;stroke-opacity:0.4" d="M-8.95 3.55Q-7 4.6 -5 4.25" />
</g>
</svg>
