<?xml version="1.0" encoding="utf-8"?>
<svg version="1.1" id="Layer_1"
xmlns="http://www.w3.org/2000/svg"
xmlns:xlink="http://www.w3.org/1999/xlink"
width="14px" height="14px"
xml:space="preserve">
<g id="PathID_6183" transform="matrix(1, 0, 0, 1, 6.95, 6.8)">
<radialGradient
id="RadialGradID_1440" gradientUnits="userSpaceOnUse" gradientTransform="matrix(0.00654602, 0, 0, 0.00654602, 5, 6.05)" spreadMethod ="pad" cx="0" cy="0" r="819.2" fx="41" fy="0" >
<stop  offset="0"  style="stop-color:#D991A5;stop-opacity:1" />
<stop  offset="1"  style="stop-color:#B63F52;stop-opacity:1" />
</radialGradient>
<path style="fill:url(#RadialGradID_1440) " d="M-2.55 -6.5L0.05 -6.8Q2.9 -6.65 4.85 -4.55L5 -4.35L6.25 -2.5Q6.85 -1.15 6.85 0.4Q6.85 3.25 4.85 5.15Q2.9 7 0.05 6.85Q-2.8 6.7 -4.8 4.55Q-6.8 2.45 -6.8 -0.4Q-6.8 -1.95 -6.2 -3.2Q-5.7 -4.25 -4.8 -5.1Q-3.8 -6.05 -2.55 -6.5" />
<path style="fill:none;stroke-width:0.7;stroke-linecap:round;stroke-linejoin:round;stroke-miterlimit:3;stroke:#861F32;stroke-opacity:0.6" d="M5 -4.35L6.25 -2.5Q6.85 -1.15 6.85 0.4Q6.85 3.25 4.85 5.15Q2.9 7 0.05 6.85Q-2.8 6.7 -4.8 4.55Q-6.8 2.45 -6.8 -0.4Q-6.8 -1.95 -6.2 -3.2Q-5.7 -4.25 -4.8 -5.1Q-3.8 -6.05 -2.55 -6.5" />
</g>
</svg>
