<?xml version="1.0" encoding="utf-8"?>
<svg version="1.1" id="Layer_1"
xmlns="http://www.w3.org/2000/svg"
xmlns:xlink="http://www.w3.org/1999/xlink"
width="9px" height="8px"
xml:space="preserve">
<g id="PathID_5459" transform="matrix(1, 0, 0, 1, 3.9, 3.6)">
<path style="fill:#FFFFFF;fill-opacity:1" d="M3.5 0.9L4.25 2.1Q4.6 2.6 3.55 3.25Q3.3 2.2 2.35 1.6Q3.3 2.2 3.55 3.25L3.45 3.55L2.75 3.75Q2 2.25 -0.05 0.75Q-2.8 0.4 -3.65 -0.6L-3.75 -0.85L-3.75 -0.95Q-3.65 -1.95 -2.85 -2.7Q-1.9 -3.5 -0.85 -3.5L-0.7 -3.45L-0.2 -3.3Q0.85 -3 1.5 -2.45L2.35 -1.65L2.85 -1.1L3.65 -0.1Q4.1 0.5 4.25 2.1L3.5 0.9" />
<path style="fill:#D7D7D7;fill-opacity:1" d="M-3.65 -0.6Q-2.8 0.4 -0.05 0.75Q2 2.25 2.75 3.75Q2.1 3.9 1.35 3.3Q0.15 2.4 -1.55 1.45Q-3.2 0.45 -3.5 -0.15L-3.65 -0.6" />
<path style="fill:#DAA85F;fill-opacity:1" d="M-3.45 -3.1Q-2.2 -3.8 -0.85 -3.5Q-1.9 -3.5 -2.85 -2.7Q-3.65 -1.95 -3.75 -0.95Q-4.05 -2.3 -3.45 -3.1" />
<path style="fill:none;stroke-width:0.7;stroke-linecap:round;stroke-linejoin:miter;stroke-miterlimit:5;stroke:#000000;stroke-opacity:0.4" d="M-3.75 -0.85L-3.65 -0.6" />
<path style="fill:none;stroke-width:0.7;stroke-linecap:round;stroke-linejoin:miter;stroke-miterlimit:5;stroke:#000000;stroke-opacity:0.4" d="M2.75 3.75L3.45 3.55L3.55 3.25Q3.3 2.2 2.35 1.6" />
<path style="fill:none;stroke-width:0.7;stroke-linecap:round;stroke-linejoin:miter;stroke-miterlimit:5;stroke:#000000;stroke-opacity:0.4" d="M4.25 2.1Q4.1 0.5 3.65 -0.1L2.85 -1.1L2.35 -1.65" />
<path style="fill:none;stroke-width:0.7;stroke-linecap:round;stroke-linejoin:miter;stroke-miterlimit:5;stroke:#000000;stroke-opacity:0.4" d="M2.75 3.75Q2.1 3.9 1.35 3.3Q0.15 2.4 -1.55 1.45Q-3.2 0.45 -3.5 -0.15L-3.65 -0.6" />
<path style="fill:none;stroke-width:0.7;stroke-linecap:round;stroke-linejoin:miter;stroke-miterlimit:5;stroke:#000000;stroke-opacity:0.4" d="M4.25 2.1L3.5 0.9" />
<path style="fill:none;stroke-width:0.7;stroke-linecap:round;stroke-linejoin:miter;stroke-miterlimit:5;stroke:#000000;stroke-opacity:0.4" d="M3.55 3.25Q4.6 2.6 4.25 2.1" />
</g>
</svg>
