<?xml version="1.0" encoding="utf-8"?>
<svg version="1.1" id="Layer_1"
xmlns="http://www.w3.org/2000/svg"
xmlns:xlink="http://www.w3.org/1999/xlink"
width="20px" height="21px"
xml:space="preserve">
<g id="PathID_6131" transform="matrix(1, 0, 0, 1, 9.6, 9.95)">
<path style="fill:#970609;fill-opacity:1" d="M2.35 -8.15L1 -8.9L1.55 -9.45Q5.2 -10.25 6.7 -9.15Q7.5 -8.55 8.6 -6.35L8.75 -6.05L8.85 -5.9L7.55 -6.55Q6.7 -7.35 5.2 -7L3.85 -6.5L2.35 -8.15M-7.2 7.25L-7.45 6.95L-7.5 6.45L-7.3 4.55Q-6.1 5.8 -3.85 6.8L-3.1 7.25L-3.3 9.4L-3.25 9.65Q-5.65 8.85 -7.2 7.25" />
<path style="fill:#F5D5C0;fill-opacity:1" d="M6.15 5.2Q3.5 7.75 1.4 7.7L-3.1 7.25L-2.1 3.9L-1.5 2.3Q-0.85 0.45 1.35 -3.1L3.85 -6.5L5.2 -7Q6.7 -7.35 7.55 -6.55Q8.8 2.6 6.15 5.2" />
<path style="fill:#5D0204;fill-opacity:1" d="M0.2 -9.15L1.55 -9.45L1 -8.9L0.2 -9.15M-7.85 -2.15Q-9.95 1.85 -7.3 4.55L-7.5 6.45L-7.45 6.95Q-9.65 4.5 -9.4 1.9Q-9.25 0.05 -7.85 -2.15" />
<path style="fill:#7F0406;fill-opacity:1" d="M-7.85 -2.15L-4.9 -5L-2.2 -7.2L0.2 -9.15L1 -8.9L-2.95 -4.25Q-6.6 0.6 -7.3 4.55Q-9.95 1.85 -7.85 -2.15" />
<path style="fill:#C53A0C;fill-opacity:1" d="M-3.85 6.8Q-6.1 5.8 -7.3 4.55Q-6.6 0.6 -2.95 -4.25L1 -8.9L2.35 -8.15L3.85 -6.5L1.35 -3.1Q-0.85 0.45 -1.5 2.3L-2.1 3.9L-3.1 7.25L-3.85 6.8" />
<path style="fill:#EBAEA9;fill-opacity:1" d="M9.3 -2L8.7 3.85Q8.55 5.3 7.95 6.45Q7.15 7.8 5.45 8.75Q2.4 10.45 -1.15 10.15L-3.25 9.65L-3.3 9.4L-3.1 7.25L1.4 7.7Q3.5 7.75 6.15 5.2Q8.8 2.6 7.55 -6.55L8.85 -5.9Q9.5 -4.35 9.3 -2" />
<path style="fill:none;stroke-width:0.7;stroke-linecap:round;stroke-linejoin:miter;stroke-miterlimit:5;stroke:#000000;stroke-opacity:0.4" d="M8.85 -5.9L8.75 -6.05L8.6 -6.35Q7.5 -8.55 6.7 -9.15Q5.2 -10.25 1.55 -9.45" />
<path style="fill:none;stroke-width:0.7;stroke-linecap:round;stroke-linejoin:miter;stroke-miterlimit:5;stroke:#000000;stroke-opacity:0.4" d="M1.55 -9.45L0.2 -9.15" />
<path style="fill:none;stroke-width:0.7;stroke-linecap:round;stroke-linejoin:miter;stroke-miterlimit:5;stroke:#000000;stroke-opacity:0.4" d="M-3.25 9.65L-1.15 10.15Q2.4 10.45 5.45 8.75Q7.15 7.8 7.95 6.45Q8.55 5.3 8.7 3.85L9.3 -2Q9.5 -4.35 8.85 -5.9" />
<path style="fill:none;stroke-width:0.7;stroke-linecap:round;stroke-linejoin:miter;stroke-miterlimit:5;stroke:#000000;stroke-opacity:0.4" d="M0.2 -9.15L-2.2 -7.2L-4.9 -5L-7.85 -2.15" />
<path style="fill:none;stroke-width:0.7;stroke-linecap:round;stroke-linejoin:miter;stroke-miterlimit:5;stroke:#000000;stroke-opacity:0.4" d="M-7.45 6.95L-7.2 7.25Q-5.65 8.85 -3.25 9.65" />
<path style="fill:none;stroke-width:0.7;stroke-linecap:round;stroke-linejoin:miter;stroke-miterlimit:5;stroke:#000000;stroke-opacity:0.4" d="M-7.45 6.95Q-9.65 4.5 -9.4 1.9Q-9.25 0.05 -7.85 -2.15" />
</g>
</svg>
