<?xml version="1.0" encoding="utf-8"?>
<svg version="1.1" id="Layer_1"
xmlns="http://www.w3.org/2000/svg"
xmlns:xlink="http://www.w3.org/1999/xlink"
width="29px" height="25px"
xml:space="preserve">
<g id="PathID_5798" transform="matrix(1, 0, 0, 1, 16.85, 12.85)">
<path style="fill:#B4B4B4;fill-opacity:1" d="M-9.6 1.25L-10.6 0.95Q-11.55 0.95 -13.25 1.6L-13.45 1.65L-13.65 1.75L-15.2 1.15L-16.55 -0.1L-15.8 0.05L-14.5 0.15L-13 -0.05L-11.6 -0.3Q-10.25 -0.3 -9.75 0.25Q-9.55 0.5 -9.3 1.35L-9.6 1.25M-7.4 6.85L-7.5 7.1L-9.4 8.4Q-10.8 9.15 -12.3 9.15L-14.4 8.7Q-14.15 8.35 -13.1 7.7L-12.4 6.5L-12.45 6.5L-14.15 7.05Q-15.6 7.6 -15.7 8.2Q-15.95 7.6 -15.15 6.3Q-14.35 4.85 -13.55 4.85L-12.35 5Q-11.5 5 -10.4 4.6L-9 3.8L-6.05 4.25L-7.4 6.85" />
<path style="fill:#403B35;fill-opacity:1" d="M-10.4 4.6Q-11.5 5 -12.35 5L-13.55 4.85L-15.3 3.95Q-16.7 3 -16.55 2.15L-16.35 2.3L-15.85 2.35L-13.65 1.75L-13.25 1.6Q-11.55 0.95 -10.6 0.95L-9.6 1.25L-9.3 1.35L-8.75 1.65L-9 3.8L-10.4 4.6M-7.5 7.1L-7.4 6.85L-6.05 4.25Q-4.5 3.85 -5.05 7.15Q-6.65 8.15 -8.5 10.65Q-8.3 8.95 -7.5 7.1" />
<path style="fill:none;stroke-width:0.7;stroke-linecap:round;stroke-linejoin:round;stroke-miterlimit:3;stroke:#000000;stroke-opacity:0.4" d="M-9.3 1.35Q-9.55 0.5 -9.75 0.25Q-10.25 -0.3 -11.6 -0.3L-13 -0.05L-14.5 0.15L-15.8 0.05L-16.55 -0.1L-15.2 1.15L-13.65 1.75L-13.45 1.65L-13.25 1.6Q-11.55 0.95 -10.6 0.95L-9.6 1.25L-9.3 1.35L-8.75 1.65L-9 3.8L-6.05 4.25Q-4.5 3.85 -5.05 7.15Q-6.65 8.15 -8.5 10.65L-8.55 11.1" />
<path style="fill:none;stroke-width:0.7;stroke-linecap:round;stroke-linejoin:round;stroke-miterlimit:3;stroke:#000000;stroke-opacity:0.4" d="M-13.55 4.85Q-14.35 4.85 -15.15 6.3Q-15.95 7.6 -15.7 8.2Q-15.6 7.6 -14.15 7.05L-12.45 6.5L-12.4 6.5L-13.1 7.7Q-14.15 8.35 -14.4 8.7L-12.3 9.15Q-10.8 9.15 -9.4 8.4L-7.5 7.1L-7.4 6.85L-6.05 4.25" />
<path style="fill:none;stroke-width:0.7;stroke-linecap:round;stroke-linejoin:round;stroke-miterlimit:3;stroke:#000000;stroke-opacity:0.4" d="M-7.5 7.1Q-8.3 8.95 -8.5 10.65" />
<path style="fill:none;stroke-width:0.7;stroke-linecap:round;stroke-linejoin:round;stroke-miterlimit:3;stroke:#000000;stroke-opacity:0.4" d="M-13.25 1.6L-13.65 1.75L-15.85 2.35L-16.35 2.3L-16.55 2.15Q-16.7 3 -15.3 3.95L-13.55 4.85L-12.35 5Q-11.5 5 -10.4 4.6L-9 3.8" />
<path style="fill:none;stroke-width:0.7;stroke-linecap:round;stroke-linejoin:round;stroke-miterlimit:3;stroke:#000000;stroke-opacity:0.4" d="M-16.7 1.9L-16.55 2.15" />
<path style="fill:none;stroke-width:0.7;stroke-linecap:round;stroke-linejoin:round;stroke-miterlimit:3;stroke:#000000;stroke-opacity:0.4" d="M-15.7 8.2L-15.7 8.25L-15.75 8.25L-15.7 8.2z" />
</g>
<g id="PathID_5799" transform="matrix(1, 0, 0, 1, 16.85, 12.85)">
<path style="fill:#D5BBAE;fill-opacity:1" d="M2.05 -10.9Q-0.05 -9.3 -0.15 -8.3L1.8 -9.65Q4.65 -9.85 6.5 -7.9Q7.9 -6.45 8.7 -4.95L9.15 -4.05L9.75 -2.75L9.9 -2.5L8.35 -3.35L8.35 -1.5L7.9 -1.5Q6 -1.85 3.35 -3.6Q0.65 -5.35 -0.75 -6.55Q-2.25 -6.15 -3.1 -4.85Q-4 -3.55 -4.05 -1.3Q-4.15 0.85 -2.15 1.85Q-0.15 2.85 1.75 2.85L1.5 4.25L-0.4 4L-2.6 3.25L-4.5 2.3L-5.95 0.95Q-7.4 -0.65 -7 -2.4L-6.5 -4.8L-6.15 -6.2L-5.15 -7.4L-4.65 -7.9L-4.6 -7.9L-4.55 -7.95Q-2.2 -10.1 -2.85 -12.1Q-1.6 -11.15 -1.95 -9.75L-2.45 -8L-1.3 -9.85Q-0.45 -11.3 2.35 -11.15L2.05 -10.9" />
<path style="fill:#948276;fill-opacity:1" d="M-1.3 -9.85L-2.45 -8L-1.95 -9.75Q-1.6 -11.15 -2.85 -12.1L-3 -12.5Q-0.75 -11.15 -1.3 -9.85M-0.55 6.75L-1.45 6.4L-2.65 6Q-5.65 4.9 -6.45 4.05Q-7.8 2.7 -7.75 -0.65Q-7.7 -3.2 -6.8 -5.1L-6.15 -6.2L-6.5 -4.8L-7 -2.4Q-7.4 -0.65 -5.95 0.95L-4.5 2.3L-2.6 3.25L-0.4 4L1.5 4.25Q1.15 5.5 -0.55 6.75M1.8 -9.65L-0.15 -8.3Q-0.05 -9.3 2.05 -10.9Q1.6 -10.45 1.8 -9.65" />
<path style="fill:#FFFFFF;fill-opacity:1" d="M11.7 -0.4Q10.6 1 7.05 2.6L3.35 4.1L1.5 4.25L1.75 2.85Q-0.15 2.85 -2.15 1.85Q-4.15 0.85 -4.05 -1.3Q-4 -3.55 -3.1 -4.85Q-2.25 -6.15 -0.75 -6.55Q0.65 -5.35 3.35 -3.6Q6 -1.85 7.9 -1.5L8.35 -1.5L8.35 -3.35L9.9 -2.5L10.25 -2.05L11.55 -1.15L11.9 -0.7L11.7 -0.4" />
<path style="fill:#B7B7B7;fill-opacity:1" d="M1.5 4.25L3.35 4.1L7.05 2.6Q10.6 1 11.7 -0.4L11.9 -0.7Q12.15 0.05 11.75 1.95Q11.35 3.55 9.35 5L8.55 5.55L5.1 7.4L4.25 7.7L2.5 8.25L-0.55 6.75Q1.15 5.5 1.5 4.25" />
<path style="fill:#78583A;fill-opacity:1" d="M-4.55 -7.95L-4.6 -7.9L-4.65 -7.9L-4.55 -7.95" />
<path style="fill:none;stroke-width:0.7;stroke-linecap:round;stroke-linejoin:miter;stroke-miterlimit:5;stroke:#000000;stroke-opacity:0.4" d="M2.35 -11.15Q-0.45 -11.3 -1.3 -9.85" />
<path style="fill:none;stroke-width:0.7;stroke-linecap:round;stroke-linejoin:miter;stroke-miterlimit:5;stroke:#000000;stroke-opacity:0.4" d="M-2.85 -12.1Q-2.2 -10.1 -4.55 -7.95" />
<path style="fill:none;stroke-width:0.7;stroke-linecap:round;stroke-linejoin:miter;stroke-miterlimit:5;stroke:#000000;stroke-opacity:0.4" d="M-4.65 -7.9L-5.15 -7.4L-6.15 -6.2" />
<path style="fill:none;stroke-width:0.7;stroke-linecap:round;stroke-linejoin:round;stroke-miterlimit:3;stroke:#000000;stroke-opacity:0.2" d="M1.5 4.25L1.75 2.85Q-0.15 2.85 -2.15 1.85Q-4.15 0.85 -4.05 -1.3Q-4 -3.55 -3.1 -4.85Q-2.25 -6.15 -0.75 -6.55Q0.65 -5.35 3.35 -3.6Q6 -1.85 7.9 -1.5L8.35 -1.5L8.35 -3.35L9.9 -2.5" />
<path style="fill:none;stroke-width:0.7;stroke-linecap:round;stroke-linejoin:miter;stroke-miterlimit:5;stroke:#000000;stroke-opacity:0.4" d="M9.9 -2.5L9.75 -2.75L9.15 -4.05L8.7 -4.95Q7.9 -6.45 6.5 -7.9Q4.65 -9.85 1.8 -9.65" />
<path style="fill:none;stroke-width:0.7;stroke-linecap:round;stroke-linejoin:miter;stroke-miterlimit:5;stroke:#000000;stroke-opacity:0.4" d="M2.05 -10.9L2.35 -11.15" />
<path style="fill:none;stroke-width:0.7;stroke-linecap:round;stroke-linejoin:miter;stroke-miterlimit:5;stroke:#000000;stroke-opacity:0.4" d="M2.05 -10.9Q1.6 -10.45 1.8 -9.65" />
<path style="fill:none;stroke-width:0.7;stroke-linecap:round;stroke-linejoin:miter;stroke-miterlimit:5;stroke:#000000;stroke-opacity:0.4" d="M9.9 -2.5L10.25 -2.05L11.55 -1.15L11.9 -0.7Q12.15 0.05 11.75 1.95Q11.35 3.55 9.35 5L8.55 5.55L5.1 7.4" />
<path style="fill:none;stroke-width:0.7;stroke-linecap:round;stroke-linejoin:miter;stroke-miterlimit:5;stroke:#000000;stroke-opacity:0.4" d="M-2.65 6Q-5.65 4.9 -6.45 4.05Q-7.8 2.7 -7.75 -0.65Q-7.7 -3.2 -6.8 -5.1L-6.15 -6.2" />
<path style="fill:none;stroke-width:0.7;stroke-linecap:round;stroke-linejoin:miter;stroke-miterlimit:5;stroke:#000000;stroke-opacity:0.4" d="M-4.65 -7.9L-4.55 -7.95" />
<path style="fill:none;stroke-width:0.7;stroke-linecap:round;stroke-linejoin:miter;stroke-miterlimit:5;stroke:#000000;stroke-opacity:0.4" d="M-2.85 -12.1L-3 -12.5Q-0.75 -11.15 -1.3 -9.85" />
<path style="fill:none;stroke-width:0.7;stroke-linecap:round;stroke-linejoin:round;stroke-miterlimit:3;stroke:#000000;stroke-opacity:0.2" d="M1.5 4.25Q1.15 5.5 -0.55 6.75" />
</g>
<g id="PathID_5800" transform="matrix(1, 0, 0, 1, 16.85, 12.85)">
<path style="fill:#978579;fill-opacity:1" d="M-4.9 4.4Q-6.4 5.45 -13.5 6.9Q-8.85 5.55 -6.25 4Q-3.8 2.55 -3.75 1.95L-3.75 2.95L-4.9 4.4" />
<path style="fill:#D5BBAE;fill-opacity:1" d="M-3.75 2.95Q-3.05 2 -0.85 2.45Q1.3 2.85 1.55 3.75Q-0.45 8 -6.4 9.75Q-6.3 6.4 -4.9 4.4L-3.75 2.95M-13.5 6.9Q-12.55 3.1 -10.25 1.4Q-9.1 0.5 -7.6 0.2Q-13.1 1.85 -14.6 0.75L-9.05 -0.75Q-7.5 -1.45 -7.6 0.2Q-9.1 0.5 -10.25 1.4L-6.95 0.05Q-4.5 -0.15 -3.75 1.9L-3.75 1.95Q-3.8 2.55 -6.25 4Q-8.85 5.55 -13.5 6.9" />
<path style="fill:none;stroke-width:0.7;stroke-linecap:round;stroke-linejoin:round;stroke-miterlimit:3;stroke:#000000;stroke-opacity:0.4" d="M1.55 3.75Q-0.45 8 -6.4 9.75Q-6.3 6.4 -4.9 4.4Q-6.4 5.45 -13.5 6.9Q-12.55 3.1 -10.25 1.4Q-13.1 1.85 -14.6 0.75L-9.05 -0.75" />
<path style="fill:none;stroke-width:0.7;stroke-linecap:round;stroke-linejoin:round;stroke-miterlimit:3;stroke:#000000;stroke-opacity:0.4" d="M-7.6 0.2L-6.95 0.05" />
<path style="fill:none;stroke-width:0.7;stroke-linecap:round;stroke-linejoin:round;stroke-miterlimit:3;stroke:#000000;stroke-opacity:0.4" d="M-3.75 2.95L-4.9 4.4" />
<path style="fill:none;stroke-width:0.7;stroke-linecap:round;stroke-linejoin:round;stroke-miterlimit:3;stroke:#000000;stroke-opacity:0.4" d="M-10.25 1.4Q-9.1 0.5 -7.6 0.2" />
</g>
<g id="PathID_5801" transform="matrix(1, 0, 0, 1, 16.85, 12.85)">
<path style="fill:none;stroke-width:0.7;stroke-linecap:round;stroke-linejoin:miter;stroke-miterlimit:5;stroke:#000000;stroke-opacity:0.501961" d="M4.25 2.8Q-5.05 2.95 -12.1 7.9" />
</g>
<g id="PathID_5802" transform="matrix(1, 0, 0, 1, 16.85, 12.85)">
<path style="fill:none;stroke-width:0.7;stroke-linecap:round;stroke-linejoin:miter;stroke-miterlimit:5;stroke:#000000;stroke-opacity:0.501961" d="M5.75 3.75Q-2 5.95 -6.8 11.65" />
</g>
<g id="PathID_5803" transform="matrix(1, 0, 0, 1, 16.85, 12.85)">
<path style="fill:#85837E;fill-opacity:1" d="M9.3 -0.65Q10.55 -0.75 11.25 -1.2Q10.95 0.9 9.3 -0.65" />
<path style="fill:#5C584F;fill-opacity:1" d="M11.25 -1.2Q12.05 -1.35 11.95 -0.5Q10.95 0.65 11.25 1.05L10.3 1.55L9.95 0.85Q9.55 0.45 8.6 0.55Q8.15 0.35 8.45 -0.1L8.75 -0.4L9.3 -0.65Q10.95 0.9 11.25 -1.2" />
<path style="fill:none;stroke-width:0.7;stroke-linecap:round;stroke-linejoin:round;stroke-miterlimit:3;stroke:#000000;stroke-opacity:0.301961" d="M9.3 -0.65L8.75 -0.4L8.45 -0.1Q8.15 0.35 8.6 0.55Q9.55 0.45 9.95 0.85L10.3 1.55L11.25 1.05Q10.95 0.65 11.95 -0.5Q12.05 -1.35 11.25 -1.2" />
<path style="fill:none;stroke-width:0.7;stroke-linecap:round;stroke-linejoin:round;stroke-miterlimit:3;stroke:#000000;stroke-opacity:0.301961" d="M9.3 -0.65Q10.55 -0.75 11.25 -1.2" />
</g>
</svg>
