<?xml version="1.0" encoding="utf-8"?>
<svg version="1.1" id="Layer_1"
xmlns="http://www.w3.org/2000/svg"
xmlns:xlink="http://www.w3.org/1999/xlink"
width="25px" height="26px"
xml:space="preserve">
<g id="PathID_5005" transform="matrix(1, 0, 0, 1, 12.35, 13.3)">
<linearGradient
id="LinearGradID_1204" gradientUnits="userSpaceOnUse" gradientTransform="matrix(0.00274658, -0.0107117, 0.00419617, 0.00112915, 2.5, -6.65)" spreadMethod ="pad" x1="-819.2" y1="0" x2="819.2" y2="0" >
<stop  offset="0.533333" style="stop-color:#212121;stop-opacity:1" />
<stop  offset="0.580392" style="stop-color:#1C1C1C;stop-opacity:1" />
<stop  offset="1" style="stop-color:#1C1C1C;stop-opacity:1" />
</linearGradient>
<path style="fill:url(#LinearGradID_1204) " d="M3.4 -8.6L1.35 -8.6L2.15 -8.1L2.3 -7.15L2.05 -5.95Q1.55 -7 -0.4 -8Q-0.75 -8.65 -0.6 -9Q-1.55 -8.75 -1.9 -7.85L-2 -9L-2.25 -9.75L-2.5 -10.1Q-2.55 -9.55 -2.75 -9.2Q-3.05 -8.75 -3.9 -8.5L-3.25 -9.75L-2.95 -11L-3.45 -13.15Q-0.15 -11.65 -0.7 -10.25Q0.75 -12 3.15 -11.25L1.5 -9.9L3.1 -10.25Q4.65 -10.25 6 -8.6L5.35 -8.65L3.4 -8.6" />
<path style="fill:#212121;fill-opacity:1" d="M5.4 -4.9L5.9 -1.8Q6.25 0.35 5.15 1.6Q4.25 2.65 1.8 2.9Q1.85 3.3 2.65 3.8L1.35 4.4L-1.35 3.75L-3.6 2.95Q-7.65 0.6 -7.05 -2.25L-6.2 -6.05L-3.9 -8.5Q-3.05 -8.75 -2.75 -9.2Q-2.55 -9.55 -2.5 -10.1L-2.25 -9.75L-2 -9L-1.9 -7.85Q-1.55 -8.75 -0.6 -9Q-0.75 -8.65 -0.4 -8Q1.55 -7 2.05 -5.95L2.3 -7.15L2.15 -8.1L1.35 -8.6L3.4 -8.6L5.35 -8.65L6.25 -7.85L7.25 -6.9Q5.5 -6.6 5.4 -4.9M1.7 -3.15Q0.85 -3.95 -0.4 -3.95Q-1.65 -3.95 -2.55 -3.15Q-3.4 -2.3 -3.4 -1.1Q-3.4 0.1 -2.55 0.9Q-1.65 1.75 -0.4 1.75Q0.85 1.75 1.7 0.9Q2.6 0.1 2.6 -1.1Q2.6 -2.3 1.7 -3.15" />
<path style="fill:#1C1C1C;fill-opacity:1" d="M2.6 -1.1Q2.6 0.1 1.7 0.9Q0.85 1.75 -0.4 1.75Q-1.65 1.75 -2.55 0.9Q-3.4 0.1 -3.4 -1.1Q-3.4 -2.3 -2.55 -3.15Q-1.65 -3.95 -0.4 -3.95Q0.85 -3.95 1.7 -3.15Q2.6 -2.3 2.6 -1.1" />
<linearGradient
id="LinearGradID_1205" gradientUnits="userSpaceOnUse" gradientTransform="matrix(0.00395203, 0.00495911, -0.00309753, 0.00247192, 8.2, -7.15)" spreadMethod ="pad" x1="-819.2" y1="0" x2="819.2" y2="0" >
<stop  offset="0.431373" style="stop-color:#212121;stop-opacity:1" />
<stop  offset="0.741176" style="stop-color:#2E2D2D;stop-opacity:1" />
<stop  offset="1" style="stop-color:#363434;stop-opacity:1" />
</linearGradient>
<path style="fill:url(#LinearGradID_1205) " d="M5.35 3.25L4.1 4.1L1.35 4.4L2.65 3.8Q1.85 3.3 1.8 2.9Q4.25 2.65 5.15 1.6Q6.25 0.35 5.9 -1.8L5.4 -4.9Q5.5 -6.6 7.25 -6.9L7.85 -6.1L9.1 -3.9Q9.5 -2.8 10 -2.15L10.2 -1.9L10.75 -1.4Q11.7 -0.9 11.85 -0.55Q9.7 2.35 5.35 3.25" />
<path style="fill:#171717;fill-opacity:1" d="M1.35 4.4L4.1 4.1L5.35 3.25Q9.7 2.35 11.85 -0.55L12.05 0.85Q11.9 3.35 8.95 5.25L4.5 7.7L2.45 8.4L-0.05 6.95L-2.9 6.05L-5.5 6.55Q-7.2 7.1 -7.5 7.5L-7.2 6.05L-6.75 5.2L-8.45 6.8Q-9.55 5.3 -8.1 4.3Q-9.3 4.4 -10.15 5.15L-9.65 3.1Q-9.3 2.2 -8.35 1.9L-9.45 1.8L-11.1 1.4Q-10.35 0.3 -7.8 -0.5Q-7.75 -3.85 -6.2 -6.05L-7.05 -2.25Q-7.65 0.6 -3.6 2.95L-1.35 3.75L1.35 4.4" />
<path style="fill:none;stroke-width:0.7;stroke-linecap:round;stroke-linejoin:miter;stroke-miterlimit:5;stroke:#000000;stroke-opacity:0.4" d="M-3.9 -8.5L-3.25 -9.75L-2.95 -11L-3.45 -13.15Q-0.15 -11.65 -0.7 -10.25Q0.75 -12 3.15 -11.25L1.5 -9.9L3.1 -10.25Q4.65 -10.25 6 -8.6L5.35 -8.65L6.25 -7.85L7.25 -6.9L7.85 -6.1L9.1 -3.9Q9.5 -2.8 10 -2.15L10.2 -1.9L10.75 -1.4Q11.7 -0.9 11.85 -0.55L12.05 0.85Q11.9 3.35 8.95 5.25L4.5 7.7" />
<path style="fill:none;stroke-width:0.7;stroke-linecap:round;stroke-linejoin:miter;stroke-miterlimit:5;stroke:#000000;stroke-opacity:0.4" d="M-2.9 6.05L-5.5 6.55Q-7.2 7.1 -7.5 7.5L-7.2 6.05L-6.75 5.2L-8.45 6.8Q-9.55 5.3 -8.1 4.3Q-9.3 4.4 -10.15 5.15L-9.65 3.1Q-9.3 2.2 -8.35 1.9L-9.45 1.8L-11.1 1.4Q-10.35 0.3 -7.8 -0.5Q-7.75 -3.85 -6.2 -6.05L-3.9 -8.5" />
<path style="fill:none;stroke-width:0.7;stroke-linecap:round;stroke-linejoin:miter;stroke-miterlimit:5;stroke:#000000;stroke-opacity:0.4" d="M3.4 -8.6L5.35 -8.65" />
</g>
<g id="PathID_5006" transform="matrix(1, 0, 0, 1, 12.35, 13.3)">
<path style="fill:#E0AF9D;fill-opacity:1" d="M9.5 -0.35Q10.35 -0.85 11.25 -0.8Q10.9 0.35 9.5 -0.35" />
<path style="fill:#B87C67;fill-opacity:1" d="M11.55 -0.8L11.9 -0.15Q11 0.95 11.25 1.3L10.75 1.6Q10.95 1 10.15 0.6Q9.15 0.6 9 -0.05L9.5 -0.35Q10.9 0.35 11.25 -0.8L11.55 -0.8" />
<path style="fill:#916251;fill-opacity:1" d="M10.4 1.75Q10.05 0.6 9.05 0.9L8.7 0.2L9 -0.05Q9.15 0.6 10.15 0.6Q10.95 1 10.75 1.6L10.4 1.75" />
<path style="fill:none;stroke-width:0.7;stroke-linecap:round;stroke-linejoin:round;stroke-miterlimit:3;stroke:#000000;stroke-opacity:0.301961" d="M9.5 -0.35L9 -0.05" />
<path style="fill:none;stroke-width:0.7;stroke-linecap:round;stroke-linejoin:round;stroke-miterlimit:3;stroke:#000000;stroke-opacity:0.301961" d="M10.75 1.6L11.25 1.3Q11 0.95 11.9 -0.15L11.55 -0.8L11.25 -0.8Q10.35 -0.85 9.5 -0.35" />
<path style="fill:none;stroke-width:0.7;stroke-linecap:round;stroke-linejoin:round;stroke-miterlimit:3;stroke:#000000;stroke-opacity:0.301961" d="M9 -0.05L8.7 0.2L9.05 0.9Q10.05 0.6 10.4 1.75L10.75 1.6" />
<path style="fill:none;stroke-width:0.7;stroke-linecap:round;stroke-linejoin:miter;stroke-miterlimit:5;stroke:#000000;stroke-opacity:0.501961" d="M5.75 3.75Q-2 5.95 -6.8 11.65" />
<path style="fill:none;stroke-width:0.7;stroke-linecap:round;stroke-linejoin:miter;stroke-miterlimit:5;stroke:#000000;stroke-opacity:0.501961" d="M4.25 2.8Q-5.05 2.95 -12.1 7.9" />
</g>
</svg>
