<?xml version="1.0" encoding="utf-8"?>
<svg version="1.1" id="Layer_1"
xmlns="http://www.w3.org/2000/svg"
xmlns:xlink="http://www.w3.org/1999/xlink"
width="17px" height="39px"
xml:space="preserve">
<g id="PathID_5203" transform="matrix(1, 0, 0, 1, 8.75, 19.45)">
<path style="fill:#441909;fill-opacity:1" d="M-2.95 0.9Q-4.15 6.55 -0.9 12.4Q0.9 15.7 8.1 16.55Q8.05 18.15 5.75 19Q-6.35 15.3 -3.25 1.8L-2.95 0.9" />
<path style="fill:#793A19;fill-opacity:1" d="M-0.9 12.4Q-4.15 6.55 -2.95 0.9Q0.35 -11.65 -8.1 -19.05Q2.3 -14.35 -0.45 0.75Q-1.2 10.85 6.95 13.7Q8.15 15.35 8.1 16.55Q0.9 15.7 -0.9 12.4" />
<path style="fill:none;stroke-width:0.7;stroke-linecap:round;stroke-linejoin:miter;stroke-miterlimit:5;stroke:#000000;stroke-opacity:0.4" d="M8.1 16.55Q8.15 15.35 6.95 13.7Q-1.2 10.85 -0.45 0.75Q2.3 -14.35 -8.1 -19.05Q0.35 -11.65 -2.95 0.9" />
<path style="fill:none;stroke-width:0.7;stroke-linecap:round;stroke-linejoin:miter;stroke-miterlimit:5;stroke:#000000;stroke-opacity:0.4" d="M8.1 16.55Q8.05 18.15 5.75 19Q-6.35 15.3 -3.25 1.8L-2.95 0.9" />
</g>
</svg>
