<?xml version="1.0" encoding="utf-8"?>
<svg version="1.1" id="Layer_1"
xmlns="http://www.w3.org/2000/svg"
xmlns:xlink="http://www.w3.org/1999/xlink"
width="21px" height="38px"
xml:space="preserve">
<g id="PathID_5670" transform="matrix(1, 0, 0, 1, 11.7, 19.7)">
<path style="fill:#5D393B;fill-opacity:1" d="M-0.55 -11.7Q-0.55 -10.6 -0.95 -9.95Q-1.35 -9.35 -1.8 -9.35Q-2.05 -9.35 -2.5 -9.65L-3.25 -9.95Q-3.7 -9.95 -4.15 -8.7L-4.45 -8.05Q-7.05 -8.8 -5.95 -9.95L-4.8 -9.95L-5.95 -9.95Q-8.65 -10.1 -8.9 -11.5Q-9.25 -12.7 -5.95 -12.3Q-9.45 -13.15 -10.8 -15.05Q-12.05 -16.7 -11.2 -18.7Q-8.95 -21.45 -2.9 -15.15Q-1.35 -13.75 -0.55 -11.85L-0.55 -11.7" />
<path style="fill:#A86C54;fill-opacity:1" d="M-1.05 3.75L-1.3 2.85Q-1.9 2.95 -2.2 5.25Q-2.45 6.7 -2.9 7.25Q-3.55 4.35 -3.3 1.2L-2.95 -0.2Q-2.1 -3.3 -2 -5.3Q-3.8 -6.85 -3.75 -7.9L-2 -7.6L-3.75 -7.9L-4.45 -8.05L-4.15 -8.7Q-3.7 -9.95 -3.25 -9.95L-2.5 -9.65Q-2.05 -9.35 -1.8 -9.35Q-1.35 -9.35 -0.95 -9.95Q-0.55 -10.6 -0.55 -11.7L-0.55 -11.85Q1.1 -8 -0.15 -2.25Q-0.7 1.5 -0.4 4.35Q-0.8 4.3 -1.05 3.75M-1.45 -4.85L-2 -5.3L-1.45 -4.85" />
<path style="fill:#FFEFD8;fill-opacity:1" d="M-1.05 12.25Q-2.35 9.85 -2.9 7.25Q-2.45 6.7 -2.2 5.25Q-1.9 2.95 -1.3 2.85L-1.05 3.75Q-0.8 4.3 -0.4 4.35Q-0.05 8.65 2.2 10.85Q4.05 12.8 8.3 13.75Q8.95 15.6 8.1 17.05Q1.65 15.85 -1.05 12.25" />
<path style="fill:#B6B0A2;fill-opacity:1" d="M-2.9 7.25Q-2.35 9.85 -1.05 12.25Q1.65 15.85 8.1 17.05L7.15 18.1L5 17.35L-0.9 17.5Q-1.45 16.7 0.15 16.1Q-3 16.2 -3.3 15.15Q-3.85 14.2 -1.25 14.55Q-2.3 13.95 -3.05 12.45Q-3.85 10.1 -3.9 7.45L-3.55 7.5L-2.9 7.25" />
<path style="fill:#774E38;fill-opacity:1" d="M-2.9 7.25L-3.55 7.5L-3.9 7.45Q-4.05 4.5 -3.3 1.2Q-3.55 4.35 -2.9 7.25" />
<path style="fill:none;stroke-width:0.7;stroke-linecap:round;stroke-linejoin:round;stroke-miterlimit:3;stroke:#000000;stroke-opacity:0.301961" d="M-0.55 -11.85Q-1.35 -13.75 -2.9 -15.15Q-8.95 -21.45 -11.2 -18.7Q-12.05 -16.7 -10.8 -15.05Q-9.45 -13.15 -5.95 -12.3Q-9.25 -12.7 -8.9 -11.5Q-8.65 -10.1 -5.95 -9.95L-4.8 -9.95" />
<path style="fill:none;stroke-width:0.7;stroke-linecap:round;stroke-linejoin:round;stroke-miterlimit:3;stroke:#000000;stroke-opacity:0.301961" d="M-0.55 -11.85Q1.1 -8 -0.15 -2.25Q-0.7 1.5 -0.4 4.35Q-0.05 8.65 2.2 10.85Q4.05 12.8 8.3 13.75Q8.95 15.6 8.1 17.05L7.15 18.1L5 17.35L-0.9 17.5Q-1.45 16.7 0.15 16.1Q-3 16.2 -3.3 15.15Q-3.85 14.2 -1.25 14.55Q-2.3 13.95 -3.05 12.45Q-3.85 10.1 -3.9 7.45Q-4.05 4.5 -3.3 1.2L-2.95 -0.2Q-2.1 -3.3 -2 -5.3Q-3.8 -6.85 -3.75 -7.9L-4.45 -8.05Q-7.05 -8.8 -5.95 -9.95" />
<path style="fill:none;stroke-width:0.7;stroke-linecap:round;stroke-linejoin:round;stroke-miterlimit:3;stroke:#000000;stroke-opacity:0.301961" d="M-3.75 -7.9L-2 -7.6" />
<path style="fill:none;stroke-width:0.7;stroke-linecap:round;stroke-linejoin:round;stroke-miterlimit:3;stroke:#000000;stroke-opacity:0.301961" d="M-2 -5.3L-1.45 -4.85" />
</g>
</svg>
