<?xml version="1.0" encoding="utf-8"?>
<svg version="1.1" id="Layer_1"
xmlns="http://www.w3.org/2000/svg"
xmlns:xlink="http://www.w3.org/1999/xlink"
width="17px" height="39px"
xml:space="preserve">
<g id="PathID_6056" transform="matrix(1, 0, 0, 1, 8.75, 19.45)">
<path style="fill:#EEADB5;fill-opacity:1" d="M-2.95 0.9Q0.35 -11.65 -8.1 -19.05Q2.3 -14.35 -0.45 0.75Q-0.9 6.85 1.9 10.35Q3.75 12.6 6.95 13.7Q8.15 15.35 8.1 16.55Q0.9 15.7 -0.9 12.4L-2.35 9.25Q-3.8 5 -2.95 0.9" />
<path style="fill:#B47786;fill-opacity:1" d="M-3.75 8.25L-3.8 8.2Q-4.05 5.3 -3.25 1.8L-2.95 0.9Q-3.8 5 -2.35 9.25L-0.9 12.4Q0.9 15.7 8.1 16.55Q8.05 18.15 5.75 19Q-3.15 16.3 -3.8 8.25L-3.75 8.25" />
<path style="fill:#9F9F9D;fill-opacity:1" d="M-3.8 8.25L-3.8 8.2L-3.75 8.25L-3.8 8.25" />
<path style="fill:none;stroke-width:0.7;stroke-linecap:round;stroke-linejoin:miter;stroke-miterlimit:5;stroke:#000000;stroke-opacity:0.4" d="M8.1 16.55Q8.05 18.15 5.75 19Q-3.15 16.3 -3.8 8.25L-3.8 8.2Q-4.05 5.3 -3.25 1.8L-2.95 0.9Q0.35 -11.65 -8.1 -19.05Q2.3 -14.35 -0.45 0.75Q-0.9 6.85 1.9 10.35Q3.75 12.6 6.95 13.7Q8.15 15.35 8.1 16.55z" />
</g>
</svg>
