<?xml version="1.0" encoding="utf-8"?>
<svg version="1.1" id="Layer_1"
xmlns="http://www.w3.org/2000/svg"
xmlns:xlink="http://www.w3.org/1999/xlink"
width="18px" height="19px"
xml:space="preserve">
<g id="PathID_5563" transform="matrix(1, 0, 0, 1, 9.85, 10.3)">
<path style="fill:#A88F78;fill-opacity:1" d="M4.4 0.5Q4.75 -0.35 4.4 -1.15Q4.05 -2.1 3 -2.3Q-0.15 -2.9 -2.4 -0.35L-1.5 -1.7L-0.75 -2.4L1.55 -3.3L4.9 -4.05L1.55 -3.3L-0.75 -2.4Q1.05 -3.95 -0.2 -4.6Q-2.25 -5.6 -4.5 -5.05L-6.9 -4.2Q-4.3 -6.8 -1.5 -6.95L1.8 -6.35Q4.1 -5.35 4.9 -4.05Q6.45 -1.5 5.65 0.7Q5.25 1.85 5.15 3Q3.8 1.5 4.4 0.5" />
<path style="fill:#CBBAAA;fill-opacity:1" d="M2.2 1.25Q1.3 -0.55 -0.05 -0.75Q-2.3 -1.25 -3.15 2.4Q-3 0.8 -2.4 -0.35Q-0.15 -2.9 3 -2.3Q4.05 -2.1 4.4 -1.15Q4.75 -0.35 4.4 0.5Q3.8 1.5 5.15 3Q5.35 3.75 5.85 4.25L6.25 4.75L4.4 6.45Q2.2 4.2 2.2 1.25M-1.5 -1.7Q-5.05 -3 -8.6 0.6Q-8.75 -1.75 -6.9 -4.2L-4.5 -5.05Q-2.25 -5.6 -0.2 -4.6Q1.05 -3.95 -0.75 -2.4L-1.5 -1.7" />
<radialGradient
id="RadialGradID_1372" gradientUnits="userSpaceOnUse" gradientTransform="matrix(0.0172577, 0, 0, 0.0172577, -4.25, 7.2)" spreadMethod ="pad" cx="0" cy="0" r="819.2" fx="25" fy="0" >
<stop  offset="0.0901961"  style="stop-color:#E88089;stop-opacity:1" />
<stop  offset="0.74902"  style="stop-color:#FFFEE2;stop-opacity:1" />
</radialGradient>
<path style="fill:url(#RadialGradID_1372) " d="M-3.15 2.4L-3.15 4.25L-3.15 2.4Q-2.3 -1.25 -0.05 -0.75Q1.3 -0.55 2.2 1.25Q2.2 4.2 4.4 6.45Q3.25 7.2 2 7.55L-0.1 7.7L-2.45 7.55L-1.25 4.25L-3.8 7.05Q-5.95 6.05 -7.3 4Q-8.45 2.25 -8.6 0.6Q-5.05 -3 -1.5 -1.7L-2.4 -0.35Q-3 0.8 -3.15 2.4" />
<path style="fill:none;stroke-width:0.7;stroke-linecap:round;stroke-linejoin:miter;stroke-miterlimit:5;stroke:#000000;stroke-opacity:0.301961" d="M2 7.55L-0.1 7.7L-2.45 7.55L-1.25 4.25L-3.8 7.05Q-5.95 6.05 -7.3 4Q-8.45 2.25 -8.6 0.6" />
<path style="fill:none;stroke-width:0.7;stroke-linecap:round;stroke-linejoin:miter;stroke-miterlimit:5;stroke:#000000;stroke-opacity:0.2" d="M-0.75 -2.4L1.55 -3.3L4.9 -4.05" />
<path style="fill:none;stroke-width:0.7;stroke-linecap:round;stroke-linejoin:miter;stroke-miterlimit:5;stroke:#000000;stroke-opacity:0.2" d="M-2.4 -0.35L-1.5 -1.7" />
<path style="fill:none;stroke-width:0.7;stroke-linecap:round;stroke-linejoin:miter;stroke-miterlimit:5;stroke:#000000;stroke-opacity:0.2" d="M-0.75 -2.4L-1.5 -1.7" />
<path style="fill:none;stroke-width:0.7;stroke-linecap:round;stroke-linejoin:miter;stroke-miterlimit:5;stroke:#000000;stroke-opacity:0.2" d="M-3.15 2.4L-3.15 4.25" />
<path style="fill:none;stroke-width:0.7;stroke-linecap:round;stroke-linejoin:miter;stroke-miterlimit:5;stroke:#000000;stroke-opacity:0.2" d="M-2.4 -0.35Q-3 0.8 -3.15 2.4" />
</g>
<g id="PathID_5564" transform="matrix(1, 0, 0, 1, 9.85, 10.3)">
<path style="fill:#E67A89;fill-opacity:1" d="M3.25 3.4Q4.05 2.7 5.2 4Q8.3 5.1 1.85 8.05Q1 6.95 2.75 6.75Q1.45 5.45 3.7 5.35L4.2 5.8L3.7 5.35Q2.4 4.1 3.25 3.4" />
<path style="fill:none;stroke-width:0.7;stroke-linecap:round;stroke-linejoin:miter;stroke-miterlimit:5;stroke:#460045;stroke-opacity:0.329412" d="M3.7 5.35L4.2 5.8" />
<path style="fill:none;stroke-width:0.7;stroke-linecap:round;stroke-linejoin:miter;stroke-miterlimit:5;stroke:#460045;stroke-opacity:0.329412" d="M5.2 4Q4.05 2.7 3.25 3.4Q2.4 4.1 3.7 5.35Q1.45 5.45 2.75 6.75Q1 6.95 1.85 8.05" />
</g>
<g id="PathID_5565" transform="matrix(1, 0, 0, 1, 9.85, 10.3)">
<path style="fill:#DBE0FE;fill-opacity:1" d="M0.9 -6.15Q1.45 -6.5 1.45 -6.8L1.4 -7.6L1.65 -8.4L3.6 -7.15L5.3 -5.6L5.3 -5.7L5.5 -6.7L5.75 -6.7L6.4 -6.15L6.95 -5.15Q8.2 -2.95 7.95 -0.2Q7.65 2.55 7.2 3Q6.7 3.45 6.55 2.8Q6.4 2.15 6.05 3L5.65 4.4Q5.65 4.95 5.15 5.2Q4.6 5.4 4.3 4.95Q3.95 4.45 4 3.65Q4.05 2.85 4.75 1.55Q5.45 0.25 5.25 -1.3Q5.1 -3.05 4.25 -3.9Q2.7 -5.5 0.8 -6.1L0.9 -6.15" />
<path style="fill:#F8F9FE;fill-opacity:1" d="M1.65 -8.4L1.4 -7.6L1.45 -6.8Q1.45 -6.5 0.9 -6.15L0.8 -6.1L0 -6.3L-1.6 -6.4Q-3.7 -6.3 -4.5 -5.6Q-5.35 -4.95 -5.95 -3.65L-6.55 -2.3L-6.85 -1.5Q-7.15 -0.6 -8 -0.05L-8.65 0.2Q-9.05 0.25 -9.45 -0.05Q-9.85 -0.4 -9.6 -1.35Q-9.4 -2.3 -7.95 -3.75Q-10.1 -4.4 -9.1 -5.9Q-8 -7.55 -3.85 -8.3Q-4.35 -8.55 -4.35 -8.95Q-4.4 -9.4 -3.75 -9.5Q-1.9 -9.8 0.15 -9.05L1 -8.7L1.65 -8.4" />
<path style="fill:none;stroke-width:0.7;stroke-linecap:round;stroke-linejoin:round;stroke-miterlimit:3;stroke:#000000;stroke-opacity:0.301961" d="M0.8 -6.1Q2.7 -5.5 4.25 -3.9Q5.1 -3.05 5.25 -1.3Q5.45 0.25 4.75 1.55Q4.05 2.85 4 3.65Q3.95 4.45 4.3 4.95Q4.6 5.4 5.15 5.2Q5.65 4.95 5.65 4.4L6.05 3Q6.4 2.15 6.55 2.8Q6.7 3.45 7.2 3Q7.65 2.55 7.95 -0.2Q8.2 -2.95 6.95 -5.15L6.4 -6.15L5.75 -6.7L5.5 -6.7L5.3 -5.7L5.3 -5.6L3.6 -7.15L1.65 -8.4" />
<path style="fill:none;stroke-width:0.7;stroke-linecap:round;stroke-linejoin:round;stroke-miterlimit:3;stroke:#000000;stroke-opacity:0.301961" d="M0.8 -6.1L0 -6.3L-1.6 -6.4Q-3.7 -6.3 -4.5 -5.6Q-5.35 -4.95 -5.95 -3.65L-6.55 -2.3" />
<path style="fill:none;stroke-width:0.7;stroke-linecap:round;stroke-linejoin:round;stroke-miterlimit:3;stroke:#000000;stroke-opacity:0.301961" d="M-8.65 0.2Q-9.05 0.25 -9.45 -0.05Q-9.85 -0.4 -9.6 -1.35Q-9.4 -2.3 -7.95 -3.75Q-10.1 -4.4 -9.1 -5.9Q-8 -7.55 -3.85 -8.3Q-4.35 -8.55 -4.35 -8.95Q-4.4 -9.4 -3.75 -9.5Q-1.9 -9.8 0.15 -9.05L1 -8.7L1.65 -8.4" />
</g>
<g id="PathID_5566" transform="matrix(1, 0, 0, 1, 9.85, 10.3)">
<path style="fill:#D2F1A1;fill-opacity:1" d="M-3.8 -9.25L-4.2 -8.3L-3.7 -7.45Q-3.45 -6.9 -4.05 -6.85L-5 -6.9L-5.5 -6.2L-6.1 -6.15L-6.45 -7.25L-7.4 -7.55Q-7.85 -7.85 -7.4 -8.35L-6.65 -8.9L-6.45 -9.9Q-6.35 -10.3 -5.95 -10.15L-5.15 -9.5L-4.35 -9.65Q-3.7 -9.7 -3.8 -9.25" />
<path style="fill:none;stroke-width:0.7;stroke-linecap:round;stroke-linejoin:round;stroke-miterlimit:3;stroke:#000000;stroke-opacity:0.301961" d="M-3.8 -9.25L-4.2 -8.3L-3.7 -7.45Q-3.45 -6.9 -4.05 -6.85L-5 -6.9L-5.5 -6.2L-6.1 -6.15L-6.45 -7.25L-7.4 -7.55Q-7.85 -7.85 -7.4 -8.35L-6.65 -8.9L-6.45 -9.9Q-6.35 -10.3 -5.95 -10.15L-5.15 -9.5L-4.35 -9.65Q-3.7 -9.7 -3.8 -9.25z" />
</g>
<g id="PathID_5567" transform="matrix(1, 0, 0, 1, 9.85, 10.3)">
<path style="fill:#BCE1DA;fill-opacity:1" d="M2.2 -9.75L2.5 -8.95L3.35 -8.6L3.4 -8.25L2.7 -7.65L2.65 -6.9Q2.6 -6.35 2.2 -6.65L1.5 -7.15L0.7 -6.95Q0.25 -6.9 0.35 -7.3L0.65 -8L0.05 -8.6Q0 -9.05 0.2 -9.15L1.25 -9.1L1.6 -9.85Q1.95 -10.2 2.2 -9.75" />
<path style="fill:none;stroke-width:0.7;stroke-linecap:round;stroke-linejoin:round;stroke-miterlimit:3;stroke:#000000;stroke-opacity:0.301961" d="M2.2 -9.75L2.5 -8.95L3.35 -8.6L3.4 -8.25L2.7 -7.65L2.65 -6.9Q2.6 -6.35 2.2 -6.65L1.5 -7.15L0.7 -6.95Q0.25 -6.9 0.35 -7.3L0.65 -8L0.05 -8.6Q0 -9.05 0.2 -9.15L1.25 -9.1L1.6 -9.85Q1.95 -10.2 2.2 -9.75z" />
</g>
</svg>
