<?xml version="1.0" encoding="utf-8"?>
<svg version="1.1" id="Layer_1"
xmlns="http://www.w3.org/2000/svg"
xmlns:xlink="http://www.w3.org/1999/xlink"
width="12px" height="28px"
xml:space="preserve">
<g id="PathID_4618" transform="matrix(1, 0, 0, 1, 0.15, 0.15)">
<path style="fill:#808080;fill-opacity:1" d="M5.45 16.1Q4.2 16.15 2.95 15.05L2.25 14.45Q4.8 20.8 4 19.5Q0.25 17.45 0.05 10.2L0.05 10L0.1 9.95Q2.05 11.35 3.1 13.15Q2.15 10.85 0.3 8.95Q0.5 7.85 2 3.75Q3.5 -0.3 4.9 0.05L6.1 3.35L6.2 1.5Q7.45 1.5 8.05 2.55Q8.85 5.1 9.25 7.7Q8.05 9.8 7.6 12.45Q8.15 10.75 9.45 9.15Q11.75 13.4 10.25 18.45Q8.75 23.4 3 25.9L3.2 25.5L3.3 25.3L3.5 25.1L3.6 25L8.15 19.35L6.2 20.65Q6.35 17.5 7.75 13.7L8.35 13.1L7 13.55Q6.55 10.55 7.4 6.4L8.15 5.25L7.4 6.4Q6.55 7.9 6.25 10Q6.35 7.9 5.35 4.75L5.6 10.95L4.65 10.4L4.15 9.9Q5.45 12.8 5.45 16.1" />
<path style="fill:#585452;fill-opacity:1" d="M2.25 14.45L2.95 15.05Q4.2 16.15 5.45 16.1Q5.45 12.8 4.15 9.9L4.65 10.4L5.6 10.95L5.35 4.75Q6.35 7.9 6.25 10Q6.55 7.9 7.4 6.4Q6.55 10.55 7 13.55L8.35 13.1L7.75 13.7Q6.55 15.2 5.95 17.2Q5.55 20.05 5 21.2L3.55 24.95Q4.3 23 2.7 20.6Q1.7 19.2 1.35 18.05Q-0.2 13.4 0.05 10.2Q0.25 17.45 4 19.5Q4.8 20.8 2.25 14.45M6.25 10L6.15 10.9L6.2 14.2Q6 11.85 4.65 10.4Q6 11.85 6.2 14.2L6.15 10.9L6.25 10M6.2 20.65L8.15 19.35L3.6 25L3.55 24.95L5 21.2Q5.9 18.1 2.95 15.05Q5.55 20.05 5.95 17.2L6.2 14.2Q6.55 15.2 7.75 13.7Q6.35 17.5 6.2 20.65M6.2 14.2L5.95 17.2M2.95 15.05Q5.9 18.1 5 21.2" />
<path style="fill:#AB5520;fill-opacity:1" d="M3.5 25.1L3.55 24.95L3.6 25L3.5 25.1" />
<path style="fill:none;stroke-width:0.7;stroke-linecap:round;stroke-linejoin:miter;stroke-miterlimit:5;stroke:#000000;stroke-opacity:0.301961" d="M0.05 10L0.1 9.95Q2.05 11.35 3.1 13.15Q2.15 10.85 0.3 8.95Q0.5 7.85 2 3.75Q3.5 -0.3 4.9 0.05L6.1 3.35L6.2 1.5Q7.45 1.5 8.05 2.55Q8.85 5.1 9.25 7.7Q8.05 9.8 7.6 12.45Q8.15 10.75 9.45 9.15Q11.75 13.4 10.25 18.45Q8.75 23.4 3 25.9L2.2 27.15" />
<path style="fill:none;stroke-width:0.7;stroke-linecap:round;stroke-linejoin:miter;stroke-miterlimit:5;stroke:#000000;stroke-opacity:0.301961" d="M4.15 9.9L4.65 10.4" />
<path style="fill:none;stroke-width:0.7;stroke-linecap:round;stroke-linejoin:miter;stroke-miterlimit:5;stroke:#000000;stroke-opacity:0.301961" d="M5.35 4.75Q6.35 7.9 6.25 10Q6.55 7.9 7.4 6.4L8.15 5.25" />
<path style="fill:none;stroke-width:0.7;stroke-linecap:round;stroke-linejoin:miter;stroke-miterlimit:5;stroke:#000000;stroke-opacity:0.301961" d="M4.65 10.4Q6 11.85 6.2 14.2L6.15 10.9L6.25 10" />
<path style="fill:none;stroke-width:0.7;stroke-linecap:round;stroke-linejoin:miter;stroke-miterlimit:5;stroke:#000000;stroke-opacity:0.301961" d="M7.75 13.7Q6.55 15.2 5.95 17.2Q5.55 20.05 5 21.2L3.55 24.95" />
<path style="fill:none;stroke-width:0.7;stroke-linecap:round;stroke-linejoin:miter;stroke-miterlimit:5;stroke:#000000;stroke-opacity:0.301961" d="M7.75 13.7L8.35 13.1" />
<path style="fill:none;stroke-width:0.7;stroke-linecap:round;stroke-linejoin:miter;stroke-miterlimit:5;stroke:#000000;stroke-opacity:0.301961" d="M5.95 17.2L6.2 14.2" />
<path style="fill:none;stroke-width:0.7;stroke-linecap:round;stroke-linejoin:miter;stroke-miterlimit:5;stroke:#000000;stroke-opacity:0.301961" d="M2.25 14.45L2.95 15.05" />
<path style="fill:none;stroke-width:0.7;stroke-linecap:round;stroke-linejoin:miter;stroke-miterlimit:5;stroke:#000000;stroke-opacity:0.301961" d="M3.55 24.95Q4.3 23 2.7 20.6Q1.7 19.2 1.35 18.05Q-0.2 13.4 0.05 10.2" />
<path style="fill:none;stroke-width:0.7;stroke-linecap:round;stroke-linejoin:miter;stroke-miterlimit:5;stroke:#000000;stroke-opacity:0.301961" d="M2.95 15.05Q5.9 18.1 5 21.2" />
<path style="fill:none;stroke-width:0.7;stroke-linecap:round;stroke-linejoin:miter;stroke-miterlimit:5;stroke:#000000;stroke-opacity:0.301961" d="M3.55 24.95L3.5 25.1" />
<path style="fill:none;stroke-width:0.7;stroke-linecap:round;stroke-linejoin:miter;stroke-miterlimit:5;stroke:#000000;stroke-opacity:0.301961" d="M3 25.9L3.2 25.5L3.3 25.3L3.5 25.1" />
</g>
</svg>
