<?xml version="1.0" encoding="utf-8"?>
<svg version="1.1" id="Layer_1"
xmlns="http://www.w3.org/2000/svg"
xmlns:xlink="http://www.w3.org/1999/xlink"
width="21px" height="20px"
xml:space="preserve">
<g id="PathID_5967" transform="matrix(1, 0, 0, 1, 10.6, 9.3)">
<path style="fill:#82D0DD;fill-opacity:1" d="M-6.95 -2.35L-4.4 -5.45L-2.7 -7.05Q-1.75 -7.6 1.15 -8.65Q5.3 -10.15 6.5 -8.15Q7.5 -8.55 8.55 -6.2Q9.55 -4.15 9.7 -2.5Q9.7 -1.45 9.85 -0.4Q7.45 -1.05 3.95 0.9Q0.4 2.85 -0.1 4.25L-4.4 -0.5Q-5.1 -1.25 -6.95 -2.35M1.65 0L1.1 0.85L0.3 1.65L0.3 0.15L0.6 -0.6L0.1 -0.25L-0.45 -0.15Q-0.95 -0.15 -1.4 -0.5Q-1.95 -0.9 -1.8 -1.65Q-1.15 -1.65 1.5 -2.9Q-1.15 -1.65 -1.8 -1.65Q-1.95 -0.9 -1.4 -0.5Q-0.95 -0.15 -0.45 -0.15L0.1 -0.25L0.6 -0.6L0.3 0.15L0.3 1.65L1.1 0.85L1.65 0M-1.9 8.1L-0.65 7L-0.3 8.2L-1.9 8.1" />
<path style="fill:#446DA1;fill-opacity:1" d="M-4.4 -0.5L-0.1 4.25Q0.4 2.85 3.95 0.9Q7.45 -1.05 9.85 -0.4L9.4 2.9Q9.2 4.85 8 6.05L8 6.1Q5.65 8.45 -0.3 8.2L-0.65 7L-1.9 8.1L-4.35 7.8Q-7.75 6.85 -8.8 4.8L-8.85 4.7Q-9.85 2.75 -8.75 -0.15L-6.95 -2.35Q-5.1 -1.25 -4.4 -0.5" />
<path style="fill:#2E446D;fill-opacity:1" d="M1.1 9.5L-0.3 8.2Q5.65 8.45 8 6.1L8 6.05Q9.2 4.85 9.4 2.9L9.85 -0.4L9.85 3.5Q9.95 6.65 7.1 8.2L5.5 8.85L1.45 9.75L1.1 9.5M-3.6 9.4Q-6.35 8.75 -8.35 7.2L-8.6 7Q-10.85 5.25 -10.4 3.4Q-9.95 1.4 -8.75 -0.15Q-9.85 2.75 -8.85 4.7L-8.8 4.8Q-7.75 6.85 -4.35 7.8L-1.9 8.1L-3.6 9.4" />
<path style="fill:#4F8796;fill-opacity:1" d="M-1.9 8.1L-0.3 8.2L1.1 9.5L1.45 9.75L-2.45 9.65L-3.6 9.4L-1.9 8.1" />
<path style="fill:none;stroke-width:0.7;stroke-linecap:round;stroke-linejoin:miter;stroke-miterlimit:5;stroke:#000000;stroke-opacity:0.4" d="M6.5 -8.15Q7.5 -8.55 8.55 -6.2Q9.55 -4.15 9.7 -2.5Q9.7 -1.45 9.85 -0.4L9.85 3.5Q9.95 6.65 7.1 8.2L5.5 8.85L1.45 9.75L-2.45 9.65L-3.6 9.4Q-6.35 8.75 -8.35 7.2L-8.6 7Q-10.85 5.25 -10.4 3.4Q-9.95 1.4 -8.75 -0.15L-6.95 -2.35L-4.4 -5.45L-2.7 -7.05Q-1.75 -7.6 1.15 -8.65" />
<path style="fill:none;stroke-width:0.7;stroke-linecap:round;stroke-linejoin:round;stroke-miterlimit:3;stroke:#000000;stroke-opacity:0.4" d="M1.5 -2.9Q-1.15 -1.65 -1.8 -1.65Q-1.95 -0.9 -1.4 -0.5Q-0.95 -0.15 -0.45 -0.15L0.1 -0.25L0.6 -0.6L0.3 0.15L0.3 1.65L1.1 0.85L1.65 0" />
<path style="fill:none;stroke-width:0.7;stroke-linecap:round;stroke-linejoin:miter;stroke-miterlimit:5;stroke:#000000;stroke-opacity:0.4" d="M9.85 -0.4Q7.45 -1.05 3.95 0.9Q0.4 2.85 -0.1 4.25L-4.4 -0.5Q-5.1 -1.25 -6.95 -2.35" />
<path style="fill:none;stroke-width:0.7;stroke-linecap:round;stroke-linejoin:miter;stroke-miterlimit:5;stroke:#000000;stroke-opacity:0.4" d="M-0.3 8.2L1.1 9.5L1.45 9.75" />
<path style="fill:none;stroke-width:0.7;stroke-linecap:round;stroke-linejoin:miter;stroke-miterlimit:5;stroke:#000000;stroke-opacity:0.4" d="M-1.9 8.1L-0.65 7L-0.3 8.2" />
<path style="fill:none;stroke-width:0.7;stroke-linecap:round;stroke-linejoin:miter;stroke-miterlimit:5;stroke:#000000;stroke-opacity:0.4" d="M-1.9 8.1L-3.6 9.4" />
</g>
</svg>
