<?xml version="1.0" encoding="utf-8"?>
<svg version="1.1" id="Layer_1"
xmlns="http://www.w3.org/2000/svg"
xmlns:xlink="http://www.w3.org/1999/xlink"
width="9px" height="8px"
xml:space="preserve">
<g id="PathID_4648" transform="matrix(1, 0, 0, 1, 3.95, 3.8)">
<path style="fill:#B78066;fill-opacity:1" d="M1.3 3.3L0.8 2.95L-0.5 2.1L0.8 1.45Q2.1 0.6 2.8 -1.1L3.6 -0.1L3.7 0.1L3.5 0.95L2.7 1.9L2.3 1.6L2.7 1.9L1.8 2.45L2.7 3.75Q2.05 3.9 1.3 3.3" />
<path style="fill:#848484;fill-opacity:1" d="M2.8 -1.1Q2.1 0.6 0.8 1.45L-0.1 0.75L-2.05 0.35Q-3.2 0 -3.7 -0.6L-3.8 -0.85Q-4.15 -2.25 -3.5 -3.1Q-2.2 -4 -0.9 -3.7Q0.4 -3.4 1.55 -2.4L2 -1.95L2.3 -1.65L2.8 -1.1" />
<path style="fill:#FDBE9B;fill-opacity:1" d="M4.2 2.1Q4.55 2.6 3.5 3.25L3.5 0.95L3.7 0.1Q4.05 0.7 4.2 2.1M3.5 3.25Q3.3 2.45 2.7 1.9L3.5 0.95L4.2 2.1M3.4 3.55Q3.25 3.75 2.7 3.75L1.8 2.45L2.7 1.9Q3.3 2.45 3.5 3.25L3.4 3.55" />
<path style="fill:#605854;fill-opacity:1" d="M-0.5 2.1L-1.6 1.45L-2.05 1.2L-3.55 -0.15L-3.7 -0.6Q-3.2 0 -2.05 0.35L-0.1 0.75L0.8 1.45L-0.5 2.1" />
<path style="fill:none;stroke-width:0.7;stroke-linecap:round;stroke-linejoin:miter;stroke-miterlimit:5;stroke:#000000;stroke-opacity:0.4" d="M-3.8 -0.85L-3.7 -0.6" />
<path style="fill:none;stroke-width:0.7;stroke-linecap:round;stroke-linejoin:miter;stroke-miterlimit:5;stroke:#000000;stroke-opacity:0.4" d="M2.8 -1.1L2.3 -1.65" />
<path style="fill:none;stroke-width:0.7;stroke-linecap:round;stroke-linejoin:miter;stroke-miterlimit:5;stroke:#000000;stroke-opacity:0.4" d="M3.7 0.1L3.6 -0.1L2.8 -1.1" />
<path style="fill:none;stroke-width:0.7;stroke-linecap:round;stroke-linejoin:miter;stroke-miterlimit:5;stroke:#000000;stroke-opacity:0.4" d="M3.5 0.95L4.2 2.1Q4.05 0.7 3.7 0.1" />
<path style="fill:none;stroke-width:0.7;stroke-linecap:round;stroke-linejoin:miter;stroke-miterlimit:5;stroke:#000000;stroke-opacity:0.4" d="M2.7 1.9Q3.3 2.45 3.5 3.25Q4.55 2.6 4.2 2.1" />
<path style="fill:none;stroke-width:0.7;stroke-linecap:round;stroke-linejoin:miter;stroke-miterlimit:5;stroke:#000000;stroke-opacity:0.4" d="M2.7 3.75Q3.25 3.75 3.4 3.55L3.5 3.25" />
<path style="fill:none;stroke-width:0.7;stroke-linecap:round;stroke-linejoin:miter;stroke-miterlimit:5;stroke:#000000;stroke-opacity:0.4" d="M2.7 1.9L2.3 1.6" />
<path style="fill:none;stroke-width:0.7;stroke-linecap:round;stroke-linejoin:miter;stroke-miterlimit:5;stroke:#000000;stroke-opacity:0.4" d="M-0.5 2.1L0.8 2.95L1.3 3.3Q2.05 3.9 2.7 3.75" />
<path style="fill:none;stroke-width:0.7;stroke-linecap:round;stroke-linejoin:miter;stroke-miterlimit:5;stroke:#000000;stroke-opacity:0.4" d="M-0.5 2.1L-1.6 1.45L-2.05 1.2L-3.55 -0.15L-3.7 -0.6" />
</g>
<g id="PathID_4649" transform="matrix(1, 0, 0, 1, 3.95, 3.8)">
<path style="fill:#848484;fill-opacity:1" d="M-0.25 0.4Q1.4 -0.85 2.15 -2.85Q2.4 -1.45 3.65 -0.1Q3 1.1 1.85 2Q0.3 1.75 -0.25 0.4" />
<path style="fill:#605854;fill-opacity:1" d="M1.85 2L0.05 3.05Q-1.15 1.6 -2.5 1.5L-0.25 0.4Q0.3 1.75 1.85 2" />
<path style="fill:none;stroke-width:0.7;stroke-linecap:round;stroke-linejoin:miter;stroke-miterlimit:5;stroke:#000000;stroke-opacity:0.4" d="M-0.25 0.4Q1.4 -0.85 2.15 -2.85Q2.4 -1.45 3.65 -0.1Q3 1.1 1.85 2L0.05 3.05Q-1.15 1.6 -2.5 1.5L-0.25 0.4z" />
</g>
</svg>
