<?xml version="1.0" encoding="utf-8"?>
<svg version="1.1" id="Layer_1"
xmlns="http://www.w3.org/2000/svg"
xmlns:xlink="http://www.w3.org/1999/xlink"
width="6px" height="18px"
xml:space="preserve">
<g id="PathID_5020" transform="matrix(1, 0, 0, 1, 3.75, 10.15)">
<path style="fill:#171717;fill-opacity:1" d="M1.1 4.55Q0.7 7.25 0 7.85Q-0.55 7.85 -1 5.85L-1.65 2.8L-1.85 0.85L-1.55 -1.85L-1.25 -3.7Q-1.65 -4.35 -3.75 -4.65Q-2.9 -5.8 -1.9 -5.7L-1.35 -5.55Q-3.65 -6.35 -3.65 -8.55Q-3.65 -9.9 -3.45 -10.15L-2.55 -8.85Q-1.65 -7.75 -1.15 -8.05Q-1.15 -8.75 -0.45 -9.45L-0.35 -8.6L0.2 -7.75Q0.65 -7.35 0.95 -5.55L1.15 -3.1L1.35 0L1.1 4.55M-1.35 -5.55L-1.9 -5.7" />
<path style="fill:none;stroke-width:0.7;stroke-linecap:round;stroke-linejoin:round;stroke-miterlimit:3;stroke:#000000;stroke-opacity:0.301961" d="M1.1 4.55Q0.7 7.25 0 7.85Q-0.55 7.85 -1 5.85L-1.65 2.8L-1.85 0.85L-1.55 -1.85L-1.25 -3.7Q-1.65 -4.35 -3.75 -4.65Q-2.9 -5.8 -1.9 -5.7Q-3.65 -6.35 -3.65 -8.55Q-3.65 -9.9 -3.45 -10.15L-2.55 -8.85Q-1.65 -7.75 -1.15 -8.05Q-1.15 -8.75 -0.45 -9.45L-0.35 -8.6L0.2 -7.75Q0.65 -7.35 0.95 -5.55L1.15 -3.1L1.35 0" />
<path style="fill:none;stroke-width:0.7;stroke-linecap:round;stroke-linejoin:round;stroke-miterlimit:3;stroke:#000000;stroke-opacity:0.301961" d="M-1.35 -5.55L-1.9 -5.7" />
</g>
</svg>
