<?xml version="1.0" encoding="utf-8"?>
<svg version="1.1" id="Layer_1"
xmlns="http://www.w3.org/2000/svg"
xmlns:xlink="http://www.w3.org/1999/xlink"
width="4px" height="18px"
xml:space="preserve">
<g id="PathID_4916" transform="matrix(1, 0, 0, 1, 1.85, 9.7)">
<path style="fill:#D7A071;fill-opacity:1" d="M-0.7 -6.65L-1 -9.7Q1.1 -7.3 1.25 -5.25L1.35 0L1.1 4.8L0 7.85Q-0.55 7.85 -1 5.85L-1.65 2.8L-1.85 0.85L-1.5 -2.2L-0.95 -5.35L-0.7 -6.65" />
<path style="fill:#453121;fill-opacity:1" d="M-0.7 -6.65L-0.95 -5.35L-0.7 -6.65" />
<path style="fill:none;stroke-width:0.7;stroke-linecap:round;stroke-linejoin:round;stroke-miterlimit:3;stroke:#000000;stroke-opacity:0.301961" d="M-0.7 -6.65L-1 -9.7Q1.1 -7.3 1.25 -5.25L1.35 0L1.1 4.8L0 7.85Q-0.55 7.85 -1 5.85L-1.65 2.8L-1.85 0.85L-1.5 -2.2L-0.95 -5.35L-0.7 -6.65L-0.95 -5.35" />
</g>
</svg>
