<?xml version="1.0" encoding="utf-8"?>
<svg version="1.1" id="Layer_1"
xmlns="http://www.w3.org/2000/svg"
xmlns:xlink="http://www.w3.org/1999/xlink"
width="10px" height="5px"
xml:space="preserve">
<g id="PathID_6024" transform="matrix(1, 0, 0, 1, 4.4, 1.85)">
<path style="fill:#100F0E;fill-opacity:1" d="M1.1 1.85L0.35 1.9Q-0.5 1.95 -1.6 1.4L-3.5 0.55L-4.2 0.05Q-4.7 -0.9 -4 -1.35Q-3.1 -1.95 -1.7 -1.8L1 -1.25L3.6 -0.45Q4.05 -0.45 4.3 0.2L2.85 -0.35Q0.95 -0.1 -0.35 0.75Q-0.65 1.55 1.45 1.55Q2.05 0.9 0.95 0.4L1.1 1.85M0.95 0.4Q2.25 0.5 2.45 0.9L1.6 1.85L1.1 1.85L1.45 1.55M4.3 0.2Q4.55 0.8 3.9 1.05L2.95 1.4Q3.8 1.05 3.45 0.15Q3.8 0 3.6 -0.45" />
<path style="fill:#242321;fill-opacity:1" d="M3.45 0.15L2.85 -0.35L3.45 0.15Q3.8 1.05 2.95 1.4L1.6 1.85L2.45 0.9Q2.25 0.5 0.95 0.4Q2.05 0.9 1.45 1.55Q-0.65 1.55 -0.35 0.75Q0.95 -0.1 2.85 -0.35L3.6 -0.45Q3.8 0 3.45 0.15" />
<path style="fill:none;stroke-width:0.7;stroke-linecap:round;stroke-linejoin:round;stroke-miterlimit:3;stroke:#000000;stroke-opacity:0.301961" d="M3.6 -0.45L1 -1.25L-1.7 -1.8Q-3.1 -1.95 -4 -1.35Q-4.7 -0.9 -4.2 0.05L-3.5 0.55L-1.6 1.4Q-0.5 1.95 0.35 1.9L1.1 1.85L1.45 1.55Q2.05 0.9 0.95 0.4" />
<path style="fill:none;stroke-width:0.7;stroke-linecap:round;stroke-linejoin:round;stroke-miterlimit:3;stroke:#000000;stroke-opacity:0.301961" d="M1.6 1.85L2.95 1.4Q3.8 1.05 3.45 0.15L2.85 -0.35" />
<path style="fill:none;stroke-width:0.7;stroke-linecap:round;stroke-linejoin:round;stroke-miterlimit:3;stroke:#000000;stroke-opacity:0.301961" d="M2.95 1.4L3.9 1.05Q4.55 0.8 4.3 0.2Q4.05 -0.45 3.6 -0.45" />
<path style="fill:none;stroke-width:0.7;stroke-linecap:round;stroke-linejoin:round;stroke-miterlimit:3;stroke:#000000;stroke-opacity:0.301961" d="M1.6 1.85L1.1 1.85" />
</g>
<g id="PathID_6025" transform="matrix(1, 0, 0, 1, 4.4, 1.85)">
<path style="fill:#EBE3D8;fill-opacity:1" d="M2.05 2.4L-0.15 1.8Q-0.55 1 0.3 0.7Q1.55 0.75 2.05 2.4" />
<path style="fill:none;stroke-width:0.7;stroke-linecap:round;stroke-linejoin:round;stroke-miterlimit:3;stroke:#000000;stroke-opacity:0.4" d="M0.3 0.7Q-0.55 1 -0.15 1.8L2.05 2.4Q1.55 0.75 0.3 0.7z" />
</g>
<g id="PathID_6026" transform="matrix(1, 0, 0, 1, 4.4, 1.85)">
<path style="fill:#EBE3D8;fill-opacity:1" d="M3.1 0.85Q2.7 0.05 3.55 -0.25Q4.8 -0.2 5.3 1.45L3.1 0.85" />
<path style="fill:none;stroke-width:0.7;stroke-linecap:round;stroke-linejoin:round;stroke-miterlimit:3;stroke:#000000;stroke-opacity:0.4" d="M5.3 1.45Q4.8 -0.2 3.55 -0.25Q2.7 0.05 3.1 0.85L5.3 1.45z" />
</g>
<g id="PathID_6027" transform="matrix(1, 0, 0, 1, 4.4, 1.85)">
<path style="fill:#EBE3D8;fill-opacity:1" d="M1.75 1.2Q1.55 0.3 2.4 0Q4 0.05 4 2.25L1.75 1.2" />
<path style="fill:none;stroke-width:0.7;stroke-linecap:round;stroke-linejoin:round;stroke-miterlimit:3;stroke:#000000;stroke-opacity:0.4" d="M4 2.25Q4 0.05 2.4 0Q1.55 0.3 1.75 1.2L4 2.25z" />
</g>
</svg>
