<?xml version="1.0" encoding="utf-8"?>
<svg version="1.1" id="Layer_1"
xmlns="http://www.w3.org/2000/svg"
xmlns:xlink="http://www.w3.org/1999/xlink"
width="17px" height="17px"
xml:space="preserve">
<g id="PathID_5496" transform="matrix(1, 0, 0, 1, 9, 8.3)">
<radialGradient
id="RadialGradID_1359" gradientUnits="userSpaceOnUse" gradientTransform="matrix(0.0182037, 0, 0, 0.0182037, -7.25, -6.85)" spreadMethod ="pad" cx="0" cy="0" r="819.2" fx="0" fy="0" >
<stop  offset="0.0588235"  style="stop-color:#EB9A48;stop-opacity:1" />
<stop  offset="0.839216"  style="stop-color:#FFEE8C;stop-opacity:1" />
</radialGradient>
<path style="fill:url(#RadialGradID_1359) " d="M4.4 3.85Q3.9 2.4 5.1 -0.3Q5.2 -2.25 3.7 -3.7L2.3 -4.8Q0.4 -5.95 -1.3 -5.95Q-4.45 -5.9 -6.35 -4.4Q-8 -3.2 -8.35 -1.2L-8.5 -0.1L-8.35 1.7Q-9.35 -1.25 -8.3 -3.7Q-6.9 -6.2 -3.9 -7.5Q-1.3 -8.7 2.05 -7.6Q4 -6.95 5.4 -5.5Q7.45 -3.25 7.5 0.4L7.4 3.15Q6.85 4.5 5.65 5.15L5.15 4.85Q4.6 4.45 4.4 3.85" />
<path style="fill:#D2BEA8;fill-opacity:1" d="M3.65 1.05Q3.85 -0.95 2.45 -1.6Q1.05 -2.3 -1.5 -0.8Q0.3 -3 3.7 -3.7Q0.3 -3 -1.5 -0.8Q-2.1 -3.85 -4.7 -3.7L-6.05 -3.35Q-7.35 -2.75 -8.35 -1.2Q-8 -3.2 -6.35 -4.4Q-4.45 -5.9 -1.3 -5.95Q0.4 -5.95 2.3 -4.8L3.7 -3.7Q5.2 -2.25 5.1 -0.3Q3.9 2.4 4.4 3.85Q3.4 3.05 3.65 1.05" />
<path style="fill:#F8E6D2;fill-opacity:1" d="M-3.5 3.95Q-3.1 1.05 -1.5 -0.8Q1.05 -2.3 2.45 -1.6Q3.85 -0.95 3.65 1.05Q3.4 3.05 4.4 3.85Q4.6 4.45 5.15 4.85Q5 6.4 3.45 7.05Q0.5 8.85 -2.8 7.65L-1.15 4.2L-3.85 7.2Q-7.05 5.5 -8.35 1.7L-8.5 -0.1L-8.35 -1.2Q-7.35 -2.75 -6.05 -3.35L-4.7 -3.7Q-2.1 -3.85 -1.5 -0.8Q-3.1 1.05 -3.5 3.95" />
<path style="fill:none;stroke-width:0.7;stroke-linecap:round;stroke-linejoin:round;stroke-miterlimit:3;stroke:#834A09;stroke-opacity:0.560784" d="M-8.35 1.7Q-9.35 -1.25 -8.3 -3.7Q-6.9 -6.2 -3.9 -7.5Q-1.3 -8.7 2.05 -7.6Q4 -6.95 5.4 -5.5Q7.45 -3.25 7.5 0.4L7.4 3.15" />
<path style="fill:none;stroke-width:0.7;stroke-linecap:round;stroke-linejoin:round;stroke-miterlimit:3;stroke:#834A09;stroke-opacity:0.560784" d="M5.65 5.15L5.15 4.85" />
<path style="fill:none;stroke-width:0.7;stroke-linecap:round;stroke-linejoin:round;stroke-miterlimit:3;stroke:#834A09;stroke-opacity:0.560784" d="M3.45 7.05Q0.5 8.85 -2.8 7.65L-1.15 4.2L-3.85 7.2Q-7.05 5.5 -8.35 1.7" />
<path style="fill:none;stroke-width:0.7;stroke-linecap:round;stroke-linejoin:round;stroke-miterlimit:3;stroke:#834A09;stroke-opacity:0.560784" d="M-6.35 -4.4Q-4.45 -5.9 -1.3 -5.95Q0.4 -5.95 2.3 -4.8L3.7 -3.7Q5.2 -2.25 5.1 -0.3Q3.9 2.4 4.4 3.85Q4.6 4.45 5.15 4.85" />
<path style="fill:none;stroke-width:0.7;stroke-linecap:round;stroke-linejoin:round;stroke-miterlimit:3;stroke:#834A09;stroke-opacity:0.560784" d="M-1.5 -0.8Q0.3 -3 3.7 -3.7" />
<path style="fill:none;stroke-width:0.7;stroke-linecap:round;stroke-linejoin:round;stroke-miterlimit:3;stroke:#834A09;stroke-opacity:0.560784" d="M-3.5 3.95Q-3.1 1.05 -1.5 -0.8" />
</g>
</svg>
