<?xml version="1.0" encoding="utf-8"?>
<svg version="1.1" id="Layer_1"
xmlns="http://www.w3.org/2000/svg"
xmlns:xlink="http://www.w3.org/1999/xlink"
width="5px" height="19px"
xml:space="preserve">
<g id="PathID_5678" transform="matrix(1, 0, 0, 1, 3.3, 10.3)">
<path style="fill:#BAAE9E;fill-opacity:1" d="M-2.35 -4.45Q-2.6 -5.15 -2.45 -6.45Q-2.35 -7.75 -1.1 -6.65Q-1.35 -8.95 -0.85 -9.85Q-0.25 -10.75 0.4 -9Q1.05 -7.4 1.25 -3.85L1 -3.7Q0.3 -3.2 -0.8 -4.45Q-1.65 -3.2 -2.6 -3.75L-3.1 -4.1Q-3 -4.6 -2.35 -4.45" />
<path style="fill:#B49288;fill-opacity:1" d="M-0.35 -1.15Q-0.6 -0.15 -0.85 -0.15Q-1.95 -0.15 -3.1 -0.95Q-3.05 -1.45 -2.5 -1.4Q-3.35 -3.4 -3.1 -4.1L-2.6 -3.75Q-1.65 -3.2 -0.8 -4.45Q0.3 -3.2 1 -3.7L1.25 -3.85L1.35 -1.1L-0.35 -1.15" />
<path style="fill:#7D4B42;fill-opacity:1" d="M-3.1 -0.95Q-1.95 -0.15 -0.85 -0.15Q-0.6 -0.15 -0.35 -1.15L1.35 -1.1L1.35 0L1.35 4.45Q1.15 7.7 0 7.85Q-0.55 7.95 -1 5.85L-1.65 2.9L-2.4 1.4Q-3.25 -0.3 -3.1 -0.95" />
<path style="fill:none;stroke-width:0.7;stroke-linecap:round;stroke-linejoin:round;stroke-miterlimit:3;stroke:#001F20;stroke-opacity:0.301961" d="M1.35 -1.1L1.25 -3.85" />
<path style="fill:none;stroke-width:0.7;stroke-linecap:round;stroke-linejoin:round;stroke-miterlimit:3;stroke:#001F20;stroke-opacity:0.301961" d="M-3.1 -4.1Q-3.35 -3.4 -2.5 -1.4Q-3.05 -1.45 -3.1 -0.95" />
<path style="fill:none;stroke-width:0.7;stroke-linecap:round;stroke-linejoin:round;stroke-miterlimit:3;stroke:#001F20;stroke-opacity:0.301961" d="M1.35 -1.1L1.35 0L1.35 4.45Q1.15 7.7 0 7.85Q-0.55 7.95 -1 5.85L-1.65 2.9L-2.4 1.4Q-3.25 -0.3 -3.1 -0.95" />
<path style="fill:none;stroke-width:0.7;stroke-linecap:round;stroke-linejoin:round;stroke-miterlimit:3;stroke:#001F20;stroke-opacity:0.301961" d="M1.25 -3.85Q1.05 -7.4 0.4 -9Q-0.25 -10.75 -0.85 -9.85Q-1.35 -8.95 -1.1 -6.65Q-2.35 -7.75 -2.45 -6.45Q-2.6 -5.15 -2.35 -4.45Q-3 -4.6 -3.1 -4.1" />
</g>
</svg>
