<?xml version="1.0" encoding="utf-8"?>
<svg version="1.1" id="Layer_1"
xmlns="http://www.w3.org/2000/svg"
xmlns:xlink="http://www.w3.org/1999/xlink"
width="7px" height="5px"
xml:space="preserve">
<g id="PathID_6285" transform="matrix(1, 0, 0, 1, 2.15, 2.6)">
<path style="fill:#FFFFFF;fill-opacity:1" d="M0.55 0.2L0.4 0.2Q-0.05 0.2 -0.4 -0.15L-0.65 -0.6L-0.7 -0.85L-0.7 -0.95L-0.45 -1.7L1.45 -0.45L1.2 -0.15L1.1 -0.05L0.8 0.15L0.55 0.2M0.25 1.85L0.9 2L0 2.15Q-0.9 2.15 -1.55 1.5Q-2.15 0.85 -2.15 0L-2.15 -0.2L-2.05 -0.7L-1.85 -0.2L-1.7 0.3L-1.3 0.15Q-1.05 0.15 -0.9 0.3L-0.75 0.7L-0.8 0.95L-0.9 1.1L-1.3 1.25L-1.35 1.25L0.25 1.85" />
<path style="fill:#000000;fill-opacity:0.4" d="M3.05 0.6L1.55 1.5Q2.2 0.85 2.2 0L3.05 0.6M-1.85 -1.05L-1.95 -2.6L-0.45 -1.7L-1.7 -1.2L-1.85 -1.05" />
<path style="fill:#000000;fill-opacity:1" d="M2.2 0Q2.2 0.85 1.55 1.5L1.45 1.65L0.9 2L0.25 1.85Q1.15 1.1 0.8 0.15L1.1 -0.05L1.2 -0.15L1.45 -0.45L2.2 0M-1.85 -0.2L-2.05 -0.7L-1.85 -1.05L-1.7 -1.2L-0.45 -1.7L-0.7 -0.95L-0.7 -0.85Q-1.4 -1 -1.85 -0.2" />
<path style="fill:#4D1D21;fill-opacity:1" d="M-1.35 1.25L-1.3 1.25L-0.9 1.1L-0.8 0.95L-0.75 0.7L-0.9 0.3Q-1.05 0.15 -1.3 0.15L-1.7 0.3L-1.85 -0.2Q-1.4 -1 -0.7 -0.85L-0.65 -0.6L-0.4 -0.15Q-0.05 0.2 0.4 0.2L0.55 0.2L0.8 0.15Q1.15 1.1 0.25 1.85L-1.35 1.25" />
<path style="fill:none;stroke-width:0.7;stroke-linecap:round;stroke-linejoin:round;stroke-miterlimit:3;stroke:#000000;stroke-opacity:0.301961" d="M0.9 2L1.45 1.65L1.55 1.5Q2.2 0.85 2.2 0L1.45 -0.45L-0.45 -1.7" />
<path style="fill:none;stroke-width:0.7;stroke-linecap:round;stroke-linejoin:round;stroke-miterlimit:3;stroke:#000000;stroke-opacity:0.301961" d="M0.9 2L0 2.15Q-0.9 2.15 -1.55 1.5Q-2.15 0.85 -2.15 0L-2.15 -0.2L-2.05 -0.7L-1.85 -1.05" />
<path style="fill:none;stroke-width:0.7;stroke-linecap:round;stroke-linejoin:round;stroke-miterlimit:3;stroke:#000000;stroke-opacity:0.301961" d="M-1.95 -2.6L-0.45 -1.7L-1.7 -1.2L-1.85 -1.05" />
<path style="fill:none;stroke-width:0.7;stroke-linecap:round;stroke-linejoin:round;stroke-miterlimit:3;stroke:#000000;stroke-opacity:0.301961" d="M3.05 0.6L2.2 0" />
<path style="fill:none;stroke-width:0.7;stroke-linecap:round;stroke-linejoin:round;stroke-miterlimit:3;stroke:#000000;stroke-opacity:0.301961" d="M3.05 0.6Q4.25 0.5 3.9 -0.6" />
</g>
</svg>
