<?xml version="1.0" encoding="utf-8"?>
<svg version="1.1" id="Layer_1"
xmlns="http://www.w3.org/2000/svg"
xmlns:xlink="http://www.w3.org/1999/xlink"
width="7px" height="6px"
xml:space="preserve">
<g id="PathID_5237" transform="matrix(1, 0, 0, 1, 2.3, 2.75)">
<path style="fill:#FFFFFF;fill-opacity:1" d="M1.45 -0.45L0.9 0.1L0.85 0.15L0.45 0.25Q-0.05 0.25 -0.4 -0.15L-0.65 -0.5L-0.7 -0.8L-0.7 -0.95L-0.45 -1.7L1.45 -0.45" />
<path style="fill:#000000;fill-opacity:0.4" d="M-1.7 -1.2L-1.85 -1.05L-1.95 -2.6L-0.5 -1.7L-0.45 -1.7L-0.5 -1.7Q-1.3 -1.55 -1.7 -1.2M3.05 0.6L1.55 1.5L1.9 1.1L2.2 0L3.05 0.6" />
<path style="fill:#4C564E;fill-opacity:1" d="M-1.05 -0.5L-0.9 -0.95L-0.7 -0.8L-1.05 -0.5M-0.95 0.25L-0.2 0.55Q-0.3 1.3 -0.05 1.8L0.3 2.15L0 2.15L-0.9 1.95L-1.25 0.5L-1.2 0.05L-0.95 0.25" />
<path style="fill:#413C3B;fill-opacity:1" d="M-0.7 -0.95L-0.7 -0.8L-0.65 -0.5L-0.9 -0.95L-0.5 -1.7L-0.45 -1.7L-0.7 -0.95M-0.65 -0.5L-0.4 -0.15Q-0.05 0.25 0.45 0.25L0.85 0.15L0.9 0.1L1.45 -0.45L2.2 0L1.9 1.1L1.55 1.5L1.45 1.65L0.3 2.15L-0.05 1.8Q-0.3 1.3 -0.2 0.55L-0.95 0.25L-1.2 0.05L-1.05 -0.5L-0.7 -0.8" />
<path style="fill:#FEECDE;fill-opacity:1" d="M-1.05 -0.5L-1.2 0.05L-1.25 0.5L-0.9 1.95L-1.55 1.5Q-2.15 0.85 -2.15 0L-2.15 -0.2L-2.05 -0.7L-1.85 -1.05L-1.7 -1.2Q-1.3 -1.55 -0.5 -1.7L-0.9 -0.95L-1.05 -0.5" />
<path style="fill:none;stroke-width:0.7;stroke-linecap:round;stroke-linejoin:round;stroke-miterlimit:3;stroke:#000000;stroke-opacity:0.301961" d="M-0.45 -1.7L-0.5 -1.7" />
<path style="fill:none;stroke-width:0.7;stroke-linecap:round;stroke-linejoin:round;stroke-miterlimit:3;stroke:#000000;stroke-opacity:0.301961" d="M-0.45 -1.7L-0.5 -1.7L-1.95 -2.6" />
<path style="fill:none;stroke-width:0.7;stroke-linecap:round;stroke-linejoin:round;stroke-miterlimit:3;stroke:#2B2B2B;stroke-opacity:1" d="M-1.85 -1.05L-1.7 -1.2Q-1.3 -1.55 -0.5 -1.7" />
<path style="fill:none;stroke-width:0.7;stroke-linecap:round;stroke-linejoin:round;stroke-miterlimit:3;stroke:#2B2B2B;stroke-opacity:1" d="M-1.85 -1.05L-2.05 -0.7L-2.15 -0.2L-2.15 0Q-2.15 0.85 -1.55 1.5L-0.9 1.95" />
<path style="fill:none;stroke-width:0.7;stroke-linecap:round;stroke-linejoin:round;stroke-miterlimit:3;stroke:#000000;stroke-opacity:0.301961" d="M1.45 -0.45L-0.45 -1.7" />
<path style="fill:none;stroke-width:0.7;stroke-linecap:round;stroke-linejoin:round;stroke-miterlimit:3;stroke:#2B2B2B;stroke-opacity:1" d="M-0.9 1.95L0 2.15L0.3 2.15L1.45 1.65L1.55 1.5L1.9 1.1L2.2 0" />
<path style="fill:none;stroke-width:0.7;stroke-linecap:round;stroke-linejoin:round;stroke-miterlimit:3;stroke:#000000;stroke-opacity:0.301961" d="M2.2 0L1.45 -0.45" />
<path style="fill:none;stroke-width:0.7;stroke-linecap:round;stroke-linejoin:round;stroke-miterlimit:3;stroke:#000000;stroke-opacity:0.301961" d="M3.05 0.6L2.2 0" />
<path style="fill:none;stroke-width:0.7;stroke-linecap:round;stroke-linejoin:round;stroke-miterlimit:3;stroke:#000000;stroke-opacity:0.301961" d="M3.05 0.6Q4.25 0.5 3.9 -0.6" />
</g>
</svg>
