<?xml version="1.0" encoding="utf-8"?>
<svg version="1.1" id="Layer_1"
xmlns="http://www.w3.org/2000/svg"
xmlns:xlink="http://www.w3.org/1999/xlink"
width="29px" height="23px"
xml:space="preserve">
<g id="PathID_5193" transform="matrix(1, 0, 0, 1, 16.8, 12.1)">
<linearGradient
id="LinearGradID_1282" gradientUnits="userSpaceOnUse" gradientTransform="matrix(0.00514221, 0.00395203, -0.00717163, 0.00932312, 8.6, 5.75)" spreadMethod ="pad" x1="-819.2" y1="0" x2="819.2" y2="0" >
<stop  offset="0" style="stop-color:#C0686D;stop-opacity:1" />
<stop  offset="1" style="stop-color:#974956;stop-opacity:1" />
</linearGradient>
<path style="fill:url(#LinearGradID_1282) " d="M8.6 -6.35L9.1 -5Q10.4 -4.7 11.55 -5.4Q11.15 -4.2 9.55 -3L11.5 -2.9L9.65 -2.15L10.65 -0.7L11.3 1.05L10.2 0.2L9.1 -0.35Q8.8 1.7 8.65 4.05Q8.5 7.05 5.45 8.75Q2.4 10.45 -1.15 10.15L-3.55 9.65L-3.65 6.85L-3.45 6.9Q6.35 9.4 7.9 -2.3Q8.1 -5.4 6.7 -9.15Q7.5 -8.55 8.6 -6.35" />
<linearGradient
id="LinearGradID_1283" gradientUnits="userSpaceOnUse" gradientTransform="matrix(-0.0030365, -0.00453186, 0.00845337, -0.00566101, -4.05, -3.75)" spreadMethod ="pad" x1="-819.2" y1="0" x2="819.2" y2="0" >
<stop  offset="0" style="stop-color:#BF2C1F;stop-opacity:1" />
<stop  offset="0.8" style="stop-color:#C73825;stop-opacity:1" />
</linearGradient>
<path style="fill:url(#LinearGradID_1283) " d="M-3.65 6.85L-3.85 6.8Q-10.95 3.7 -7.85 -2.15L-7.15 -2.85L-7.1 -2.9L-6.2 -3.75L-3.55 -4.15L-3.8 -2.95L-3.45 -3Q-2.25 -3.35 -0.5 -4.7L-2.3 -4.6Q-2.4 -6 -1.6 -7.7L0.2 -9.15L3.35 -9.8Q3.4 -8.7 3.8 -7.45Q4.25 -6.05 4.9 -5.15Q2.1 -3.45 0.4 -1.25L-3.45 6.9L-3.65 6.85" />
<path style="fill:#EDBCAC;fill-opacity:1" d="M6.7 -9.15Q8.1 -5.4 7.9 -2.3Q6.35 9.4 -3.45 6.9L0.4 -1.25Q2.1 -3.45 4.9 -5.15Q4.25 -6.05 3.8 -7.45Q3.4 -8.7 3.35 -9.8Q5.55 -10 6.7 -9.15" />
<linearGradient
id="LinearGradID_1284" gradientUnits="userSpaceOnUse" gradientTransform="matrix(-0.00050354, 0.00488281, -0.00404358, -0.000411987, -10.2, -3.65)" spreadMethod ="pad" x1="-819.2" y1="0" x2="819.2" y2="0" >
<stop  offset="0" style="stop-color:#561729;stop-opacity:1" />
<stop  offset="1" style="stop-color:#803F51;stop-opacity:1" />
</linearGradient>
<path style="fill:url(#LinearGradID_1284) " d="M-12.65 -4.8Q-14 -4.9 -15.65 -4.05Q-13.95 -8.65 -9.4 -10.15Q-10.75 -7.55 -10.65 -3.7Q-11.3 -4.7 -12.65 -4.8M-4.8 -5.1L-4.9 -5L-5 -4.9L-5.4 -4.5L-7.55 -4.7Q-9.05 -4.45 -10.1 -3.45Q-9.55 -7.75 -8.15 -9.65Q-7.55 -7.65 -6.45 -7.15L-3.7 -6L-4.8 -5.1" />
<path style="fill:#602E38;fill-opacity:1" d="M-2.1 -7.3L-2.4 -7.05L-2.85 -6.7L-3.5 -6.2L-3.55 -6.15L-3.7 -6L-6.45 -7.15Q-7.55 -7.65 -8.15 -9.65Q-9.55 -7.75 -10.1 -3.45L-10.35 -1.9L-10.65 -3.7Q-10.75 -7.55 -9.4 -10.15Q-13.95 -8.65 -15.65 -4.05L-16.55 -2.2L-15.9 -5.3Q-15.35 -7.1 -14.15 -8.6Q-12.9 -10.15 -11.15 -10.85L-7.25 -11.9Q-7.6 -9.95 -6.2 -8.35Q-3.7 -6.95 -1.9 -7.45L-2.1 -7.3" />
<path style="fill:#940B15;fill-opacity:1" d="M-5.7 -4.2L-5.4 -4.5L-5 -4.9L-4.9 -5L-4.8 -5.1L-3.7 -6L-3.55 -6.15L-3.5 -6.2L-2.85 -6.7L-2.4 -7.05L-2.1 -7.3L-1.9 -7.45L-1.75 -7.6L-1.6 -7.7Q-2.4 -6 -2.3 -4.6L-0.5 -4.7Q-2.25 -3.35 -3.45 -3L-3.8 -2.95L-3.55 -4.15L-6.2 -3.75L-5.7 -4.2" />
<path style="fill:#731622;fill-opacity:1" d="M-3.55 9.65Q-5.6 8.9 -7.2 7.25Q-9.65 4.65 -9.4 1.9Q-9.25 0.05 -7.85 -2.15Q-10.95 3.7 -3.85 6.8L-3.65 6.85L-3.55 9.65" />
<path style="fill:none;stroke-width:0.7;stroke-linecap:round;stroke-linejoin:miter;stroke-miterlimit:5;stroke:#EDBCAC;stroke-opacity:1" d="M3.35 -9.8Q3.4 -8.7 3.8 -7.45Q4.25 -6.05 4.9 -5.15Q2.1 -3.45 0.4 -1.25L-3.45 6.9" />
<path style="fill:none;stroke-width:0.7;stroke-linecap:round;stroke-linejoin:miter;stroke-miterlimit:5;stroke:#000000;stroke-opacity:0.4" d="M0.2 -9.15L-1.6 -7.7" />
<path style="fill:none;stroke-width:0.7;stroke-linecap:round;stroke-linejoin:miter;stroke-miterlimit:5;stroke:#000000;stroke-opacity:0.4" d="M-6.2 -3.75L-7.1 -2.9L-7.15 -2.85L-7.85 -2.15" />
<path style="fill:none;stroke-width:0.7;stroke-linecap:round;stroke-linejoin:miter;stroke-miterlimit:5;stroke:#000000;stroke-opacity:0.4" d="M-3.55 9.65L-1.15 10.15Q2.4 10.45 5.45 8.75Q8.5 7.05 8.65 4.05Q8.8 1.7 9.1 -0.35L10.2 0.2L11.3 1.05L10.65 -0.7L9.65 -2.15L11.5 -2.9L9.55 -3Q11.15 -4.2 11.55 -5.4Q10.4 -4.7 9.1 -5L8.6 -6.35Q7.5 -8.55 6.7 -9.15" />
<path style="fill:none;stroke-width:0.7;stroke-linecap:round;stroke-linejoin:miter;stroke-miterlimit:5;stroke:#000000;stroke-opacity:0.4" d="M-1.9 -7.45Q-3.7 -6.95 -6.2 -8.35Q-7.6 -9.95 -7.25 -11.9L-11.15 -10.85Q-12.9 -10.15 -14.15 -8.6Q-15.35 -7.1 -15.9 -5.3L-16.55 -2.2L-15.65 -4.05Q-13.95 -8.65 -9.4 -10.15Q-10.75 -7.55 -10.65 -3.7L-10.35 -1.9L-10.1 -3.45Q-9.55 -7.75 -8.15 -9.65Q-7.55 -7.65 -6.45 -7.15L-3.7 -6L-3.55 -6.15L-3.5 -6.2L-2.85 -6.7L-2.4 -7.05L-2.1 -7.3L-1.9 -7.45L-1.75 -7.6L-1.6 -7.7" />
<path style="fill:none;stroke-width:0.7;stroke-linecap:round;stroke-linejoin:miter;stroke-miterlimit:5;stroke:#000000;stroke-opacity:0.4" d="M-15.65 -4.05Q-14 -4.9 -12.65 -4.8Q-11.3 -4.7 -10.65 -3.7" />
<path style="fill:none;stroke-width:0.7;stroke-linecap:round;stroke-linejoin:miter;stroke-miterlimit:5;stroke:#000000;stroke-opacity:0.4" d="M-10.1 -3.45Q-9.05 -4.45 -7.55 -4.7L-5.4 -4.5L-5 -4.9L-4.9 -5L-4.8 -5.1L-3.7 -6" />
<path style="fill:none;stroke-width:0.7;stroke-linecap:round;stroke-linejoin:miter;stroke-miterlimit:5;stroke:#000000;stroke-opacity:0.4" d="M-5.4 -4.5L-5.7 -4.2L-6.2 -3.75" />
<path style="fill:none;stroke-width:0.7;stroke-linecap:round;stroke-linejoin:miter;stroke-miterlimit:5;stroke:#000000;stroke-opacity:0.4" d="M-7.85 -2.15Q-9.25 0.05 -9.4 1.9Q-9.65 4.65 -7.2 7.25Q-5.6 8.9 -3.55 9.65" />
<path style="fill:none;stroke-width:0.7;stroke-linecap:round;stroke-linejoin:miter;stroke-miterlimit:5;stroke:#731622;stroke-opacity:1" d="M-3.55 9.65L-3.65 6.85" />
</g>
</svg>
