<?xml version="1.0" encoding="utf-8"?>
<svg version="1.1" id="Layer_1"
xmlns="http://www.w3.org/2000/svg"
xmlns:xlink="http://www.w3.org/1999/xlink"
width="22px" height="39px"
xml:space="preserve">
<g id="PathID_5809" transform="matrix(1, 0, 0, 1, 11, 19.95)">
<path style="fill:#B4B4B4;fill-opacity:1" d="M-9.15 -18.55Q-5.9 -15.1 -6.85 -8.9Q-8.05 -4.8 -8 -0.95Q-7.15 6.45 -3 11.05L-5.5 10.45Q-2.5 13.7 2.75 16.05Q6.85 17.05 6.15 13.7L8.85 14.65Q11.3 16.7 8.55 18.65Q0.75 19.55 -2.5 15.95L0.5 16.1Q-8.75 13.05 -8.45 8.65Q-7.25 9.5 -5.75 9.7Q-10.25 5.75 -10.85 1Q-11 -3.1 -9.65 -7.6L-9 -5.35Q-8.95 -8.55 -8.1 -11.05Q-7.2 -15.75 -9.15 -18.55" />
<path style="fill:#FFFFFF;fill-opacity:1" d="M2.75 16.05Q-2.5 13.7 -5.5 10.45L-3 11.05Q-7.15 6.45 -8 -0.95Q-8.05 -4.8 -6.85 -8.9Q-5.9 -15.1 -9.15 -18.55L-10.2 -19.8Q-6.25 -19 -3.6 -16.2Q0.25 -12.75 -0.6 -5.85L0.05 -7.6Q0.6 -6.55 0.55 -4.2Q0.2 -1.65 -0.6 0.4Q0.3 -0.8 1.15 -0.75Q0.25 1 0.1 2.65Q-1 7.45 2.1 10.9Q3.75 12.6 6.15 13.7Q6.85 17.05 2.75 16.05" />
<path style="fill:none;stroke-width:0.7;stroke-linecap:round;stroke-linejoin:round;stroke-miterlimit:3;stroke:#000000;stroke-opacity:0.4" d="M6.15 13.7Q3.75 12.6 2.1 10.9Q-1 7.45 0.1 2.65Q0.25 1 1.15 -0.75Q0.3 -0.8 -0.6 0.4Q0.2 -1.65 0.55 -4.2Q0.6 -6.55 0.05 -7.6L-0.6 -5.85Q0.25 -12.75 -3.6 -16.2Q-6.25 -19 -10.2 -19.8L-9.15 -18.55" />
<path style="fill:none;stroke-width:0.7;stroke-linecap:round;stroke-linejoin:round;stroke-miterlimit:3;stroke:#000000;stroke-opacity:0.4" d="M6.15 13.7L8.85 14.65Q11.3 16.7 8.55 18.65Q0.75 19.55 -2.5 15.95L0.5 16.1Q-8.75 13.05 -8.45 8.65Q-7.25 9.5 -5.75 9.7Q-10.25 5.75 -10.85 1Q-11 -3.1 -9.65 -7.6L-9 -5.35Q-8.95 -8.55 -8.1 -11.05Q-7.2 -15.75 -9.15 -18.55" />
</g>
</svg>
