<?xml version="1.0" encoding="utf-8"?>
<svg version="1.1" id="Layer_1"
xmlns="http://www.w3.org/2000/svg"
xmlns:xlink="http://www.w3.org/1999/xlink"
width="6px" height="5px"
xml:space="preserve">
<g id="PathID_5869" transform="matrix(1, 0, 0, 1, 2.85, 2.3)">
<path style="fill:#1D130E;fill-opacity:1" d="M1.6 -1.75L2.4 -0.55L2.55 1.1Q2.55 1.45 1.35 1.85L0 2.05Q-0.95 2 -1.45 1.55L-2.35 0.6L-2.85 -0.3L-1.65 -1.7Q-0.95 -2.35 0 -2.3Q0.9 -2.3 1.6 -1.75" />
<path style="fill:none;stroke-width:0.7;stroke-linecap:round;stroke-linejoin:round;stroke-miterlimit:3;stroke:#000000;stroke-opacity:0.301961" d="M1.6 -1.75L2.4 -0.55L2.55 1.1Q2.55 1.45 1.35 1.85L0 2.05Q-0.95 2 -1.45 1.55L-2.35 0.6L-2.85 -0.3L-1.65 -1.7Q-0.95 -2.35 0 -2.3Q0.9 -2.3 1.6 -1.75z" />
</g>
<g id="PathID_5870" transform="matrix(1, 0, 0, 1, 2.85, 2.3)">
<path style="fill:#FFFFFF;fill-opacity:1" d="M1.55 -0.95L1.2 -0.15Q0.85 0.2 0.4 0.2Q-0.05 0.2 -0.4 -0.15L-0.7 -0.95L-0.4 -1.75L0.4 -2.05L1.2 -1.75L1.55 -0.95" />
</g>
<g id="PathID_5871" transform="matrix(1, 0, 0, 1, 2.85, 2.3)">
<path style="fill:#FFFFFF;fill-opacity:1" d="M-1.3 0.15Q-1.05 0.15 -0.9 0.3L-0.75 0.7L-0.9 1.1L-1.3 1.25L-1.7 1.1L-1.85 0.7L-1.7 0.3L-1.3 0.15" />
</g>
</svg>
