<?xml version="1.0" encoding="utf-8"?>
<svg version="1.1" id="Layer_1"
xmlns="http://www.w3.org/2000/svg"
xmlns:xlink="http://www.w3.org/1999/xlink"
width="18px" height="18px"
xml:space="preserve">
<g id="PathID_5748" transform="matrix(1, 0, 0, 1, 9.7, 9.75)">
<path style="fill:#B98A94;fill-opacity:1" d="M4.4 0.5Q4.75 -0.35 4.4 -1.15Q4.05 -2.1 3 -2.3Q-0.15 -2.9 -2.4 -0.35L-1.5 -1.7L-0.75 -2.4L1.55 -3.3L4.9 -4.05L1.55 -3.3L-0.75 -2.4Q1.05 -3.95 -0.2 -4.6Q-2.25 -5.6 -4.5 -5.05L-6.9 -4.2Q-4.3 -6.8 -1.5 -6.95L1.8 -6.35Q4.1 -5.35 4.9 -4.05Q6.45 -1.5 5.65 0.7Q5.25 1.85 5.15 3Q3.8 1.5 4.4 0.5" />
<radialGradient
id="RadialGradID_1405" gradientUnits="userSpaceOnUse" gradientTransform="matrix(0.0297394, 0, 0, 0.0245056, 0.05, -2.2)" spreadMethod ="pad" cx="0" cy="0" r="819.2" fx="0" fy="0" >
<stop  offset="0.258824"  style="stop-color:#DFBEC9;stop-opacity:1" />
<stop  offset="0.47451"  style="stop-color:#BB63AB;stop-opacity:1" />
</radialGradient>
<path style="fill:url(#RadialGradID_1405) " d="M2.2 1.25Q1.3 -0.55 -0.05 -0.75Q-2.3 -1.25 -3.15 2.4Q-3 0.8 -2.4 -0.35Q-0.15 -2.9 3 -2.3Q4.05 -2.1 4.4 -1.15Q4.75 -0.35 4.4 0.5Q3.8 1.5 5.15 3Q5.35 3.75 5.85 4.25L6.25 4.75L4.4 6.45Q2.2 4.2 2.2 1.25M-1.5 -1.7Q-5.05 -3 -8.6 0.6Q-8.75 -1.75 -6.9 -4.2L-4.5 -5.05Q-2.25 -5.6 -0.2 -4.6Q1.05 -3.95 -0.75 -2.4L-1.5 -1.7" />
<radialGradient
id="RadialGradID_1406" gradientUnits="userSpaceOnUse" gradientTransform="matrix(0.023407, 0, 0, 0.023407, -1.1, -1.25)" spreadMethod ="pad" cx="0" cy="0" r="819.2" fx="0" fy="0" >
<stop  offset="0.258824"  style="stop-color:#FFEBF6;stop-opacity:1" />
<stop  offset="0.47451"  style="stop-color:#D68AC8;stop-opacity:1" />
</radialGradient>
<path style="fill:url(#RadialGradID_1406) " d="M-3.15 2.4L-3.15 4.25L-3.15 2.4Q-2.3 -1.25 -0.05 -0.75Q1.3 -0.55 2.2 1.25Q2.2 4.2 4.4 6.45Q3.25 7.2 2 7.55L-0.1 7.7L-2.45 7.55L-1.25 4.25L-3.8 7.05Q-5.95 6.05 -7.3 4Q-8.45 2.25 -8.6 0.6Q-5.05 -3 -1.5 -1.7L-2.4 -0.35Q-3 0.8 -3.15 2.4" />
<path style="fill:none;stroke-width:0.7;stroke-linecap:round;stroke-linejoin:miter;stroke-miterlimit:5;stroke:#000000;stroke-opacity:0.301961" d="M2 7.55L-0.1 7.7L-2.45 7.55L-1.25 4.25L-3.8 7.05Q-5.95 6.05 -7.3 4Q-8.45 2.25 -8.6 0.6" />
<path style="fill:none;stroke-width:0.7;stroke-linecap:round;stroke-linejoin:miter;stroke-miterlimit:5;stroke:#000000;stroke-opacity:0.2" d="M-0.75 -2.4L1.55 -3.3L4.9 -4.05" />
<path style="fill:none;stroke-width:0.7;stroke-linecap:round;stroke-linejoin:miter;stroke-miterlimit:5;stroke:#000000;stroke-opacity:0.2" d="M-2.4 -0.35L-1.5 -1.7" />
<path style="fill:none;stroke-width:0.7;stroke-linecap:round;stroke-linejoin:miter;stroke-miterlimit:5;stroke:#000000;stroke-opacity:0.2" d="M-0.75 -2.4L-1.5 -1.7" />
<path style="fill:none;stroke-width:0.7;stroke-linecap:round;stroke-linejoin:miter;stroke-miterlimit:5;stroke:#000000;stroke-opacity:0.2" d="M-3.15 2.4L-3.15 4.25" />
<path style="fill:none;stroke-width:0.7;stroke-linecap:round;stroke-linejoin:miter;stroke-miterlimit:5;stroke:#000000;stroke-opacity:0.2" d="M-2.4 -0.35Q-3 0.8 -3.15 2.4" />
</g>
<g id="PathID_5749" transform="matrix(1, 0, 0, 1, 9.7, 9.75)">
<path style="fill:#F692C6;fill-opacity:1" d="M5.25 -5.5Q7.75 -2.65 7.8 -0.05Q7.85 1.6 7.5 3.25L7 4.95Q4.65 4.65 4.55 3.7Q4.45 2.75 5.05 1.15Q5.45 0.25 5.25 -1.3Q5.1 -3.05 4.25 -3.9Q2.35 -5.85 0 -6.3Q0.65 -6.85 2.75 -6.85L3.95 -6.8L5.25 -5.5" />
<path style="fill:#FEBADF;fill-opacity:1" d="M-1.6 -6.4Q-3.7 -6.3 -5.7 -4.65L-5.8 -4.6Q-3.95 -7.3 -0.35 -8.85L0.15 -9.05L1 -8.7Q2.6 -7.95 3.95 -6.8L2.75 -6.85Q0.65 -6.85 0 -6.3L-1.6 -6.4" />
<path style="fill:#FFEAFA;fill-opacity:1" d="M-8.65 0.85L-8.95 -1.3Q-9.25 -3 -8.8 -3.95Q-8.4 -4.9 -6.9 -5.35Q-7.6 -7.3 -6.3 -7.85L-3.65 -8.05Q-4.35 -8.55 -4.35 -8.95Q-4.4 -9.4 -3.75 -9.5Q-1.9 -9.8 0.15 -9.05L-0.35 -8.85Q-3.95 -7.3 -5.8 -4.6Q-7.8 -2.95 -8.65 0.85" />
<path style="fill:none;stroke-width:0.7;stroke-linecap:round;stroke-linejoin:miter;stroke-miterlimit:5;stroke:#460035;stroke-opacity:0.329412" d="M3.95 -6.8Q2.6 -7.95 1 -8.7L0.15 -9.05" />
<path style="fill:none;stroke-width:0.7;stroke-linecap:round;stroke-linejoin:miter;stroke-miterlimit:5;stroke:#460035;stroke-opacity:0.329412" d="M-5.7 -4.65Q-3.7 -6.3 -1.6 -6.4L0 -6.3Q2.35 -5.85 4.25 -3.9Q5.1 -3.05 5.25 -1.3Q5.45 0.25 5.05 1.15Q4.45 2.75 4.55 3.7" />
<path style="fill:none;stroke-width:0.7;stroke-linecap:round;stroke-linejoin:miter;stroke-miterlimit:5;stroke:#460035;stroke-opacity:0.329412" d="M7 4.95L7.5 3.25Q7.85 1.6 7.8 -0.05Q7.75 -2.65 5.25 -5.5L3.95 -6.8" />
<path style="fill:none;stroke-width:0.7;stroke-linecap:round;stroke-linejoin:miter;stroke-miterlimit:5;stroke:#460035;stroke-opacity:0.329412" d="M0.15 -9.05Q-1.9 -9.8 -3.75 -9.5Q-4.4 -9.4 -4.35 -8.95Q-4.35 -8.55 -3.65 -8.05L-6.3 -7.85Q-7.6 -7.3 -6.9 -5.35Q-8.4 -4.9 -8.8 -3.95Q-9.25 -3 -8.95 -1.3L-8.65 0.85" />
</g>
<g id="PathID_5750" transform="matrix(1, 0, 0, 1, 9.7, 9.75)">
<path style="fill:#FDE9F5;fill-opacity:1" d="M3.25 3.4Q4.05 2.7 5.2 4Q8.3 5.1 1.85 8.05Q1 6.95 2.75 6.75Q1.45 5.45 3.7 5.35L4.2 5.8L3.7 5.35Q2.4 4.1 3.25 3.4" />
<path style="fill:none;stroke-width:0.7;stroke-linecap:round;stroke-linejoin:miter;stroke-miterlimit:5;stroke:#460045;stroke-opacity:0.329412" d="M3.7 5.35L4.2 5.8" />
<path style="fill:none;stroke-width:0.7;stroke-linecap:round;stroke-linejoin:miter;stroke-miterlimit:5;stroke:#460045;stroke-opacity:0.329412" d="M5.2 4Q4.05 2.7 3.25 3.4Q2.4 4.1 3.7 5.35Q1.45 5.45 2.75 6.75Q1 6.95 1.85 8.05" />
</g>
<g id="PathID_5751" transform="matrix(1, 0, 0, 1, 9.7, 9.75)">
<path style="fill:#93E7FF;fill-opacity:1" d="M1.85 -8.45Q1.85 -8 0.45 -8Q-0.7 -8 -0.95 -8.3L-0.95 -8.65Q-0.95 -9.95 0.45 -9.45Q1.85 -9 1.85 -8.45" />
<path style="fill:#FEA9C8;fill-opacity:1" d="M4.3 -5.8Q4.3 -7.15 5.4 -6.45Q6.45 -5.75 6.45 -5.2Q6.45 -4.6 5.55 -4.6Q4.3 -4.6 4.3 -5.8M-6 -5L-6.6 -4.6Q-7.5 -4.6 -7.5 -5.55Q-7.5 -6.5 -6.6 -6.45Q-5.75 -6.4 -5.75 -5.65Q-5.75 -5.35 -6 -5" />
<path style="fill:#FEFEFE;fill-opacity:1" d="M-9.55 -2.75Q-9.55 -3.55 -8.55 -3.5Q-7.6 -3.45 -7.6 -2.6Q-7.6 -1.75 -8.55 -1.75Q-9.35 -1.75 -9.55 -2.75" />
<path style="fill:none;stroke-width:0.7;stroke-linecap:round;stroke-linejoin:round;stroke-miterlimit:3;stroke:#000000;stroke-opacity:0.301961" d="M4.3 -5.8Q4.3 -7.15 5.4 -6.45Q6.45 -5.75 6.45 -5.2Q6.45 -4.6 5.55 -4.6Q4.3 -4.6 4.3 -5.8z" />
<path style="fill:none;stroke-width:0.7;stroke-linecap:round;stroke-linejoin:round;stroke-miterlimit:3;stroke:#000000;stroke-opacity:0.301961" d="M1.85 -8.45Q1.85 -8 0.45 -8Q-0.7 -8 -0.95 -8.3L-0.95 -8.65Q-0.95 -9.95 0.45 -9.45Q1.85 -9 1.85 -8.45z" />
<path style="fill:none;stroke-width:0.7;stroke-linecap:round;stroke-linejoin:round;stroke-miterlimit:3;stroke:#000000;stroke-opacity:0.301961" d="M-6 -5L-6.6 -4.6Q-7.5 -4.6 -7.5 -5.55Q-7.5 -6.5 -6.6 -6.45Q-5.75 -6.4 -5.75 -5.65Q-5.75 -5.35 -6 -5z" />
<path style="fill:none;stroke-width:0.7;stroke-linecap:round;stroke-linejoin:round;stroke-miterlimit:3;stroke:#000000;stroke-opacity:0.301961" d="M-9.55 -2.75Q-9.55 -3.55 -8.55 -3.5Q-7.6 -3.45 -7.6 -2.6Q-7.6 -1.75 -8.55 -1.75Q-9.35 -1.75 -9.55 -2.75z" />
</g>
</svg>
