<?xml version="1.0" encoding="utf-8"?>
<svg version="1.1" id="Layer_1"
xmlns="http://www.w3.org/2000/svg"
xmlns:xlink="http://www.w3.org/1999/xlink"
width="11px" height="8px"
xml:space="preserve">
<g id="PathID_5816" transform="matrix(1, 0, 0, 1, 3.8, 4.15)">
<path style="fill:#B5B5B5;fill-opacity:1" d="M5.05 2.45Q4.25 1 2.4 1.85Q4.25 1 5.05 2.45L3.55 3.1L1 2.95L0.5 2.6Q1.2 0.15 1.05 -1.1L2.45 -0.8L2.95 -0.15L4 0.45L4.9 0.5Q6.9 0.6 5.8 1.75L5.05 2.45M5.8 1.75L5.75 1.3Q5.65 0.9 4.85 0.75L4 0.45L4.85 0.75Q5.65 0.9 5.75 1.3L5.8 1.75" />
<path style="fill:#988678;fill-opacity:1" d="M-0.7 1.75L-1.45 1.25Q-3.15 0.2 -3.7 -1.1Q-4.1 -2.7 -3.2 -3.55Q-2.4 -4.4 -0.8 -4Q0.75 -3.6 1.35 -2.6L2.1 -1.3L2.45 -0.8L1.05 -1.1Q1.2 0.15 0.5 2.6Q0 2.1 -0.7 1.75" />
<path style="fill:none;stroke-width:0.7;stroke-linecap:round;stroke-linejoin:round;stroke-miterlimit:3;stroke:#000000;stroke-opacity:0.301961" d="M2.45 -0.8L2.1 -1.3" />
<path style="fill:none;stroke-width:0.7;stroke-linecap:round;stroke-linejoin:round;stroke-miterlimit:3;stroke:#000000;stroke-opacity:0.301961" d="M-3.7 -1.1Q-3.15 0.2 -1.45 1.25L-0.7 1.75Q0 2.1 0.5 2.6L1 2.95L3.55 3.1L5.05 2.45Q4.25 1 2.4 1.85" />
<path style="fill:none;stroke-width:0.7;stroke-linecap:round;stroke-linejoin:round;stroke-miterlimit:3;stroke:#000000;stroke-opacity:0.301961" d="M2.45 -0.8L2.95 -0.15L4 0.45L4.9 0.5Q6.9 0.6 5.8 1.75L5.05 2.45" />
<path style="fill:none;stroke-width:0.7;stroke-linecap:round;stroke-linejoin:round;stroke-miterlimit:3;stroke:#000000;stroke-opacity:0.301961" d="M4 0.45L4.85 0.75Q5.65 0.9 5.75 1.3L5.8 1.75" />
</g>
<g id="PathID_5817" transform="matrix(1, 0, 0, 1, 3.8, 4.15)">
<path style="fill:#3C3732;fill-opacity:1" d="M6.45 1.55L5.85 1.1L6.9 2.15L5.6 2.45L5.55 2.4L5.8 2.85L4.75 3.1L3.9 3.1L3.9 2.45L4.1 2.05L4.55 1.95L5.05 2.05L5.4 2.25Q5.05 1.05 5.6 1.05L5.85 1.1L6.45 1.55Q6 0.65 6.3 0.65L6.75 1L7.05 1.5L6.45 1.55M5.4 2.25L5.55 2.4L5.55 2.45L5.6 2.45M5.55 2.4L5.4 2.25L5.05 2.05" />
<path style="fill:none;stroke-width:0.7;stroke-linecap:round;stroke-linejoin:round;stroke-miterlimit:3;stroke:#000000;stroke-opacity:0.4" d="M6.45 1.55L6.9 2.15L5.6 2.45L5.8 2.85L4.75 3.1L3.9 3.1L3.9 2.45L4.1 2.05L4.55 1.95L5.05 2.05Q5.05 1.05 5.6 1.05L5.85 1.1Q6 0.65 6.3 0.65L6.75 1L7.05 1.5L6.45 1.55L5.85 1.1" />
<path style="fill:none;stroke-width:0.7;stroke-linecap:round;stroke-linejoin:round;stroke-miterlimit:3;stroke:#000000;stroke-opacity:0.4" d="M5.55 2.4L5.6 2.45L5.55 2.45L5.55 2.4L5.4 2.25L5.05 2.05" />
</g>
</svg>
