<?xml version="1.0" encoding="utf-8"?>
<svg version="1.1" id="Layer_1"
xmlns="http://www.w3.org/2000/svg"
xmlns:xlink="http://www.w3.org/1999/xlink"
width="25px" height="36px"
xml:space="preserve">
<g id="PathID_5765" transform="matrix(1, 0, 0, 1, 12.35, 24)">
<path style="fill:#FEFEFC;fill-opacity:1" d="M9 -18.95L9 -18.55Q8.85 -17.4 8.2 -17.4L7.65 -17.85L7.35 -18.55L8.65 -18.85L9 -18.95M6.55 -18.35L6.65 -17.5L6.65 -17.25Q6.6 -16.3 6.1 -16.3Q5.75 -16.3 5.5 -16.5Q5.1 -16.85 4.9 -17.65L6.55 -18.35M4 -17.1L4.4 -16.55L4.7 -15.95L4.8 -15.55Q4.8 -14.75 3.8 -14.75L3.5 -14.8L2.6 -15.05L3.95 -17.05L4 -17.1M1.9 -13.4L2.15 -13.25L2.35 -12.95L2.4 -12.55L2.1 -11.75L1.5 -11.3Q1.55 -12.4 1.9 -13.4M4.95 -10L4.45 -10.95Q4.2 -11.7 4.95 -11.95Q5.25 -12 5.6 -11.55L6.1 -10.7L4.95 -10M7.1 -11.35L6.6 -12.1Q6.2 -12.95 6.7 -13.55Q7.2 -13.95 8.1 -13.15L8.7 -12.45L8.1 -12L7.1 -11.35M9.6 -13.4L8.8 -13.85Q8.1 -14.35 8.4 -14.85Q8.8 -15.25 9.55 -15.1L10.5 -14.8L9.6 -13.4M10.9 -15.6Q10.25 -15.8 10.1 -16.15L10.15 -16.7L11.25 -16.75L10.9 -15.6" />
<path style="fill:#FEBD5F;fill-opacity:1" d="M10.15 -16.7L10.1 -16.15Q10.25 -15.8 10.9 -15.6L10.5 -14.8L9.55 -15.1Q8.8 -15.25 8.4 -14.85Q8.1 -14.35 8.8 -13.85L9.6 -13.4L8.7 -12.45L8.1 -13.15Q7.2 -13.95 6.7 -13.55Q6.2 -12.95 6.6 -12.1L7.1 -11.35L6.1 -10.7L5.6 -11.55Q5.25 -12 4.95 -11.95Q4.2 -11.7 4.45 -10.95L4.95 -10L4.4 -9.7Q3.25 -9.4 2.95 -7.25L1.9 -7.75Q3.15 -13 6.5 -14.2Q10.25 -16.3 10.45 -18.9Q8.65 -16.5 5.45 -15.1Q1.9 -12.25 1.9 -7.75Q1.4 -9.6 1.5 -11.3L2.1 -11.75L2.4 -12.55L2.35 -12.95L2.15 -13.25L1.9 -13.4L2.6 -15.05L3.5 -14.8L3.8 -14.75Q4.8 -14.75 4.8 -15.55L4.7 -15.95L4.4 -16.55L4 -17.1L4.9 -17.65Q5.1 -16.85 5.5 -16.5Q5.75 -16.3 6.1 -16.3Q6.6 -16.3 6.65 -17.25L6.65 -17.5L6.55 -18.35L7.35 -18.55L7.65 -17.85L8.2 -17.4Q8.85 -17.4 9 -18.55L9 -18.95Q10.45 -19.6 11.5 -21.3Q11.8 -18.8 11.25 -16.75L10.15 -16.7" />
<path style="fill:#EFA238;fill-opacity:1" d="M1.9 -7.75Q1.9 -12.25 5.45 -15.1Q8.65 -16.5 10.45 -18.9Q10.25 -16.3 6.5 -14.2Q3.15 -13 1.9 -7.75" />
<path style="fill:none;stroke-width:0.7;stroke-linecap:round;stroke-linejoin:round;stroke-miterlimit:3;stroke:#000000;stroke-opacity:0.301961" d="M11.25 -16.75Q11.8 -18.8 11.5 -21.3Q10.45 -19.6 9 -18.95" />
<path style="fill:none;stroke-width:0.7;stroke-linecap:round;stroke-linejoin:round;stroke-miterlimit:3;stroke:#000000;stroke-opacity:0.301961" d="M7.35 -18.55L6.55 -18.35" />
<path style="fill:none;stroke-width:0.7;stroke-linecap:round;stroke-linejoin:round;stroke-miterlimit:3;stroke:#000000;stroke-opacity:0.301961" d="M4.9 -17.65L4 -17.1" />
<path style="fill:none;stroke-width:0.7;stroke-linecap:round;stroke-linejoin:round;stroke-miterlimit:3;stroke:#000000;stroke-opacity:0.301961" d="M2.6 -15.05L1.9 -13.4" />
<path style="fill:none;stroke-width:0.7;stroke-linecap:round;stroke-linejoin:round;stroke-miterlimit:3;stroke:#000000;stroke-opacity:0.301961" d="M1.5 -11.3Q1.4 -9.6 1.9 -7.75Q1.9 -12.25 5.45 -15.1Q8.65 -16.5 10.45 -18.9Q10.25 -16.3 6.5 -14.2Q3.15 -13 1.9 -7.75" />
<path style="fill:none;stroke-width:0.7;stroke-linecap:round;stroke-linejoin:round;stroke-miterlimit:3;stroke:#000000;stroke-opacity:0.301961" d="M2.95 -7.25Q3.25 -9.4 4.4 -9.7L4.95 -10" />
<path style="fill:none;stroke-width:0.7;stroke-linecap:round;stroke-linejoin:round;stroke-miterlimit:3;stroke:#000000;stroke-opacity:0.301961" d="M6.1 -10.7L7.1 -11.35" />
<path style="fill:none;stroke-width:0.7;stroke-linecap:round;stroke-linejoin:round;stroke-miterlimit:3;stroke:#000000;stroke-opacity:0.301961" d="M8.7 -12.45L9.6 -13.4" />
<path style="fill:none;stroke-width:0.7;stroke-linecap:round;stroke-linejoin:round;stroke-miterlimit:3;stroke:#000000;stroke-opacity:0.301961" d="M10.5 -14.8L10.9 -15.6" />
<path style="fill:none;stroke-width:0.7;stroke-linecap:round;stroke-linejoin:round;stroke-miterlimit:3;stroke:#000000;stroke-opacity:0.301961" d="M11.25 -16.75L10.9 -15.6" />
<path style="fill:none;stroke-width:0.7;stroke-linecap:round;stroke-linejoin:round;stroke-miterlimit:3;stroke:#000000;stroke-opacity:0.301961" d="M7.35 -18.55L8.65 -18.85L9 -18.95" />
<path style="fill:none;stroke-width:0.7;stroke-linecap:round;stroke-linejoin:round;stroke-miterlimit:3;stroke:#000000;stroke-opacity:0.301961" d="M2.6 -15.05L3.95 -17.05L4 -17.1" />
<path style="fill:none;stroke-width:0.7;stroke-linecap:round;stroke-linejoin:round;stroke-miterlimit:3;stroke:#000000;stroke-opacity:0.301961" d="M4.9 -17.65L6.55 -18.35" />
<path style="fill:none;stroke-width:0.7;stroke-linecap:round;stroke-linejoin:round;stroke-miterlimit:3;stroke:#000000;stroke-opacity:0.301961" d="M8.7 -12.45L8.1 -12L7.1 -11.35" />
<path style="fill:none;stroke-width:0.7;stroke-linecap:round;stroke-linejoin:round;stroke-miterlimit:3;stroke:#000000;stroke-opacity:0.301961" d="M6.1 -10.7L4.95 -10" />
<path style="fill:none;stroke-width:0.7;stroke-linecap:round;stroke-linejoin:round;stroke-miterlimit:3;stroke:#000000;stroke-opacity:0.301961" d="M1.5 -11.3Q1.55 -12.4 1.9 -13.4" />
<path style="fill:none;stroke-width:0.7;stroke-linecap:round;stroke-linejoin:round;stroke-miterlimit:3;stroke:#000000;stroke-opacity:0.301961" d="M10.5 -14.8L9.6 -13.4" />
</g>
<g id="PathID_5766" transform="matrix(1, 0, 0, 1, 12.35, 24)">
<radialGradient
id="RadialGradID_1417" gradientUnits="userSpaceOnUse" gradientTransform="matrix(0.0123901, 0, 0, 0.0123901, 9.9, -0.4)" spreadMethod ="pad" cx="0" cy="0" r="819.2" fx="0" fy="0" >
<stop  offset="0"  style="stop-color:#FDEAA5;stop-opacity:1" />
<stop  offset="1"  style="stop-color:#FFFFFF;stop-opacity:1" />
</radialGradient>
<path style="fill:url(#RadialGradID_1417) " d="M2.05 -10.9Q-0.05 -9.3 -0.15 -8.3L1.8 -9.65Q4.65 -9.85 6.5 -7.9Q7.9 -6.45 8.7 -4.95L9.15 -4.05L9.75 -2.75L10.25 -2.05L11.55 -1.15L11.9 -0.7L11.7 -0.4Q10.6 0.95 7.15 2.55L6.7 2.15Q5.95 1.4 5.25 -0.35L4.85 -2.1Q4.5 -3.5 3.85 -4.15L1.9 -5.55L-0.3 -6Q-2.5 -6 -3.55 -3.7Q-4.6 -1.45 -4.45 0.2Q-4.3 1.8 -2.1 2.7Q0.05 3.6 2.05 3.55L1.3 4.2Q-7.55 6.5 -6.35 3.8Q-8.8 6.05 -8.2 2.15Q-9.85 2.9 -8.35 0.35L-7.75 -0.05L-7.75 -0.65Q-7.7 -3.2 -6.8 -5.1L-6.15 -6.2L-5.25 -7.2L-4.55 -7.95Q-2.2 -10.1 -2.85 -12.1Q-1.6 -11.15 -1.95 -9.75L-2.45 -8L-1.3 -9.85Q-0.45 -11.3 2.35 -11.15L2.05 -10.9" />
<path style="fill:#ADA1A1;fill-opacity:1" d="M-1.3 -9.85L-2.45 -8L-1.95 -9.75Q-1.6 -11.15 -2.85 -12.1L-3 -12.5Q-0.75 -11.15 -1.3 -9.85M1.8 -9.65L-0.15 -8.3Q-0.05 -9.3 2.05 -10.9Q1.6 -10.45 1.8 -9.65" />
<radialGradient
id="RadialGradID_1418" gradientUnits="userSpaceOnUse" gradientTransform="matrix(0.00976563, 0, 0, 0.00976563, -0.3, -1.6)" spreadMethod ="pad" cx="0" cy="0" r="819.2" fx="0" fy="0" >
<stop  offset="0.278431"  style="stop-color:#5C2F36;stop-opacity:1" />
<stop  offset="0.619608"  style="stop-color:#180B14;stop-opacity:1" />
</radialGradient>
<path style="fill:url(#RadialGradID_1418) " d="M1.3 4.2L2.05 3.55Q0.05 3.6 -2.1 2.7Q-4.3 1.8 -4.45 0.2Q-4.6 -1.45 -3.55 -3.7Q-2.5 -6 -0.3 -6L1.9 -5.55L3.85 -4.15Q4.5 -3.5 4.85 -2.1L5.25 -0.35Q5.95 1.4 6.7 2.15L7.15 2.55L7.05 2.6L3.35 4.1L1.3 4.2" />
<radialGradient
id="RadialGradID_1419" gradientUnits="userSpaceOnUse" gradientTransform="matrix(0.0135498, 0, 0, 0.0135498, 11.6, 0.05)" spreadMethod ="pad" cx="0" cy="0" r="819.2" fx="0" fy="0" >
<stop  offset="0"  style="stop-color:#C2AA7C;stop-opacity:1" />
<stop  offset="0.988235"  style="stop-color:#A89E9D;stop-opacity:1" />
</radialGradient>
<path style="fill:url(#RadialGradID_1419) " d="M-0.3 6.85L-1.45 6.4L-2.65 6L-2.95 5.9L-4.25 6.05L-5.4 6.2Q-6.05 6.2 -6.5 5.75Q-7 5.3 -6.8 4.7L-7.15 5.45L-7.85 5.75Q-8.35 5.75 -8.65 5.25L-8.9 4.15L-8.7 3.35L-8.55 2.7L-9.15 3.05L-9.6 2.65Q-9.6 2.1 -8.95 1.15L-8.35 0.35Q-9.85 2.9 -8.2 2.15Q-8.8 6.05 -6.35 3.8Q-7.55 6.5 1.3 4.2L0.4 5.2Q-0.25 6.1 -0.3 6.85M7.15 2.55Q10.6 0.95 11.7 -0.4L11.9 -0.7Q12.15 0.05 11.75 1.95L11.05 3.4L10.4 3.4Q8.35 3.4 7.15 2.55" />
<path style="fill:#0F050D;fill-opacity:1" d="M0.4 5.2L1.3 4.2L3.35 4.1L7.05 2.6L7.15 2.55Q8.35 3.4 10.4 3.4L11.05 3.4L9.35 5L5.1 7.4L4.25 7.7L2.5 8.25L-0.3 6.85Q-0.25 6.1 0.4 5.2" />
<path style="fill:none;stroke-width:0.7;stroke-linecap:round;stroke-linejoin:miter;stroke-miterlimit:5;stroke:#000000;stroke-opacity:0.4" d="M2.35 -11.15Q-0.45 -11.3 -1.3 -9.85" />
<path style="fill:none;stroke-width:0.7;stroke-linecap:round;stroke-linejoin:miter;stroke-miterlimit:5;stroke:#000000;stroke-opacity:0.4" d="M-2.85 -12.1Q-2.2 -10.1 -4.55 -7.95L-5.25 -7.2L-6.15 -6.2L-6.8 -5.1Q-7.7 -3.2 -7.75 -0.65L-7.75 -0.05L-8.35 0.35" />
<path style="fill:none;stroke-width:0.7;stroke-linecap:round;stroke-linejoin:miter;stroke-miterlimit:5;stroke:#000000;stroke-opacity:0.4" d="M11.9 -0.7L11.55 -1.15L10.25 -2.05L9.75 -2.75L9.15 -4.05L8.7 -4.95Q7.9 -6.45 6.5 -7.9Q4.65 -9.85 1.8 -9.65" />
<path style="fill:none;stroke-width:0.7;stroke-linecap:round;stroke-linejoin:miter;stroke-miterlimit:5;stroke:#000000;stroke-opacity:0.4" d="M2.05 -10.9L2.35 -11.15" />
<path style="fill:none;stroke-width:0.7;stroke-linecap:round;stroke-linejoin:miter;stroke-miterlimit:5;stroke:#000000;stroke-opacity:0.4" d="M2.05 -10.9Q1.6 -10.45 1.8 -9.65" />
<path style="fill:none;stroke-width:0.7;stroke-linecap:round;stroke-linejoin:miter;stroke-miterlimit:5;stroke:#000000;stroke-opacity:0.4" d="M11.9 -0.7Q12.15 0.05 11.75 1.95L11.05 3.4L9.35 5L5.1 7.4" />
<path style="fill:none;stroke-width:0.7;stroke-linecap:round;stroke-linejoin:miter;stroke-miterlimit:5;stroke:#000000;stroke-opacity:0.4" d="M-2.65 6L-2.95 5.9L-4.25 6.05L-5.4 6.2Q-6.05 6.2 -6.5 5.75Q-7 5.3 -6.8 4.7L-7.15 5.45L-7.85 5.75Q-8.35 5.75 -8.65 5.25L-8.9 4.15L-8.7 3.35L-8.55 2.7L-9.15 3.05L-9.6 2.65Q-9.6 2.1 -8.95 1.15L-8.35 0.35" />
<path style="fill:none;stroke-width:0.7;stroke-linecap:round;stroke-linejoin:miter;stroke-miterlimit:5;stroke:#000000;stroke-opacity:0.4" d="M-2.85 -12.1L-3 -12.5Q-0.75 -11.15 -1.3 -9.85" />
</g>
<g id="PathID_5767" transform="matrix(1, 0, 0, 1, 12.35, 24)">
<radialGradient
id="RadialGradID_1420" gradientUnits="userSpaceOnUse" gradientTransform="matrix(0.00526428, -0.00524902, 0.009552, 0.0115051, 0.35, 0)" spreadMethod ="pad" cx="0" cy="0" r="819.2" fx="0" fy="0" >
<stop  offset="0.403922"  style="stop-color:#F7F6F1;stop-opacity:0" />
<stop  offset="1"  style="stop-color:#F6F7F1;stop-opacity:1" />
</radialGradient>
<path style="fill:url(#RadialGradID_1420) " d="M-4 -5.25L2.25 3.45L-2.3 4.2L-3.9 2.25Q-5.45 -0.1 -5.2 -2.15Q-4.95 -4.25 -4 -5.25" />
</g>
<g id="PathID_5768" transform="matrix(1, 0, 0, 1, 12.35, 24)">
<path style="fill:none;stroke-width:0.7;stroke-linecap:round;stroke-linejoin:miter;stroke-miterlimit:5;stroke:#000000;stroke-opacity:0.501961" d="M4.25 2.8Q-5.05 2.95 -12.1 7.9" />
</g>
<g id="PathID_5769" transform="matrix(1, 0, 0, 1, 12.35, 24)">
<path style="fill:none;stroke-width:0.7;stroke-linecap:round;stroke-linejoin:miter;stroke-miterlimit:5;stroke:#000000;stroke-opacity:0.501961" d="M5.75 3.75Q-2 5.95 -6.8 11.65" />
</g>
<g id="PathID_5770" transform="matrix(1, 0, 0, 1, 12.35, 24)">
<path style="fill:#FFC9DB;fill-opacity:1" d="M9.3 -0.65Q10.55 -0.75 11.25 -1.2Q10.95 0.9 9.3 -0.65" />
<path style="fill:#B6707B;fill-opacity:1" d="M11.25 -1.2Q12.05 -1.35 11.95 -0.5Q10.95 0.65 11.25 1.05L10.3 1.55L9.95 0.85Q9.55 0.45 8.6 0.55Q8.15 0.35 8.45 -0.1L8.75 -0.4L9.3 -0.65Q10.95 0.9 11.25 -1.2" />
<path style="fill:none;stroke-width:0.7;stroke-linecap:round;stroke-linejoin:round;stroke-miterlimit:3;stroke:#000000;stroke-opacity:0.301961" d="M9.3 -0.65L8.75 -0.4L8.45 -0.1Q8.15 0.35 8.6 0.55Q9.55 0.45 9.95 0.85L10.3 1.55L11.25 1.05Q10.95 0.65 11.95 -0.5Q12.05 -1.35 11.25 -1.2" />
<path style="fill:none;stroke-width:0.7;stroke-linecap:round;stroke-linejoin:round;stroke-miterlimit:3;stroke:#000000;stroke-opacity:0.301961" d="M9.3 -0.65Q10.55 -0.75 11.25 -1.2" />
</g>
<g id="PathID_5771" transform="matrix(1, 0, 0, 1, 12.35, 24)">
<path style="fill:#FEBD5F;fill-opacity:1" d="M1.7 -23.85Q3.35 -22.05 3.7 -19.45L2.9 -19.4L2.1 -18.65Q2.2 -18.15 2.95 -18.1Q2.4 -20.15 1.85 -21.4Q1.85 -20.25 1.35 -19.25L1 -20.3L0.55 -20.65Q1.6 -21.95 1.7 -23.85M2.95 -18.1L3.8 -18.2L3.8 -17.15L2.95 -17.2Q1.75 -17.15 1.7 -16.15Q1.9 -15.7 2.8 -15.65L3.65 -15.7L3.35 -14.15Q2.9 -14.5 2.4 -14.65L0.65 -14.45Q0.3 -13.85 1.55 -13L2.2 -12.6L1.3 -11.55L0.8 -11.85L-0.65 -11.8Q-1.25 -11.35 -0.15 -10.55L0.15 -10.35L0 -10.2Q-1.15 -9.2 -1.35 -6.85L-1.9 -6.5L-2.55 -6.8Q-3.8 -9.1 -4.15 -11.8L-3.2 -12.05Q-2.8 -13.25 -3.7 -13.55L-4.3 -13.7L-4.25 -15.35L-3.15 -14.95Q-2.45 -14.85 -1.95 -15.5L-2.5 -16.3Q-3.05 -16.9 -3.7 -16.85L-3 -17.8L-2 -17.05Q-1.45 -16.8 -1.05 -17.05Q-0.65 -17.6 -0.9 -18.15L-1.6 -19.05L-0.55 -19.7L-0.1 -18.85Q0.3 -18.35 1 -18.65L0.65 -18.15Q-1 -16.4 -2.2 -13.7Q-3.3 -10.3 -1.9 -6.5Q-2 -13.45 0.35 -15.05Q1.75 -17 2.1 -18.65" />
<path style="fill:#EF9D3A;fill-opacity:1" d="M1 -18.65L1.35 -19.25Q1.85 -20.25 1.85 -21.4Q2.4 -20.15 2.1 -18.65Q1.75 -17 0.35 -15.05Q-2 -13.45 -1.9 -6.5Q-3.3 -10.3 -2.2 -13.7Q-1 -16.4 0.65 -18.15L1 -18.65" />
<path style="fill:#FFFEFF;fill-opacity:1" d="M1 -18.65Q0.3 -18.35 -0.1 -18.85L-0.55 -19.7L0.55 -20.65L1 -20.3L1.35 -19.25L1 -18.65M3.8 -18.2L2.95 -18.1Q2.2 -18.15 2.1 -18.65L2.9 -19.4L3.7 -19.45L3.8 -18.2M3.8 -17.15L3.65 -15.7L2.8 -15.65Q1.9 -15.7 1.7 -16.15Q1.75 -17.15 2.95 -17.2L3.8 -17.15M3.35 -14.15L2.2 -12.6L1.55 -13Q0.3 -13.85 0.65 -14.45L2.4 -14.65Q2.9 -14.5 3.35 -14.15M1.3 -11.55L0.15 -10.35L-0.15 -10.55Q-1.25 -11.35 -0.65 -11.8L0.8 -11.85L1.3 -11.55M-4.15 -11.8L-4.3 -13.7L-3.7 -13.55Q-2.8 -13.25 -3.2 -12.05L-4.15 -11.8M-4.25 -15.35L-4.25 -15.45L-3.7 -16.85Q-3.05 -16.9 -2.5 -16.3L-1.95 -15.5Q-2.45 -14.85 -3.15 -14.95L-4.25 -15.35M-3 -17.8L-1.6 -19.05L-0.9 -18.15Q-0.65 -17.6 -1.05 -17.05Q-1.45 -16.8 -2 -17.05L-3 -17.8" />
<path style="fill:none;stroke-width:0.7;stroke-linecap:round;stroke-linejoin:round;stroke-miterlimit:3;stroke:#000000;stroke-opacity:0.301961" d="M0.55 -20.65L-0.55 -19.7" />
<path style="fill:none;stroke-width:0.7;stroke-linecap:round;stroke-linejoin:round;stroke-miterlimit:3;stroke:#000000;stroke-opacity:0.301961" d="M1 -18.65L1.35 -19.25Q1.85 -20.25 1.85 -21.4Q2.4 -20.15 2.1 -18.65" />
<path style="fill:none;stroke-width:0.7;stroke-linecap:round;stroke-linejoin:round;stroke-miterlimit:3;stroke:#000000;stroke-opacity:0.301961" d="M3.7 -19.45Q3.35 -22.05 1.7 -23.85Q1.6 -21.95 0.55 -20.65" />
<path style="fill:none;stroke-width:0.7;stroke-linecap:round;stroke-linejoin:round;stroke-miterlimit:3;stroke:#000000;stroke-opacity:0.301961" d="M3.8 -17.15L3.65 -15.7L3.35 -14.15L2.2 -12.6L1.3 -11.55L0.15 -10.35L0 -10.2Q-1.15 -9.2 -1.35 -6.85" />
<path style="fill:none;stroke-width:0.7;stroke-linecap:round;stroke-linejoin:round;stroke-miterlimit:3;stroke:#000000;stroke-opacity:0.301961" d="M-2.55 -6.8Q-3.8 -9.1 -4.15 -11.8L-4.3 -13.7L-4.25 -15.35L-4.25 -15.45L-3.7 -16.85L-3 -17.8L-1.6 -19.05L-0.55 -19.7" />
<path style="fill:none;stroke-width:0.7;stroke-linecap:round;stroke-linejoin:round;stroke-miterlimit:3;stroke:#000000;stroke-opacity:0.301961" d="M3.8 -17.15L3.8 -18.2" />
<path style="fill:none;stroke-width:0.7;stroke-linecap:round;stroke-linejoin:round;stroke-miterlimit:3;stroke:#000000;stroke-opacity:0.301961" d="M2.1 -18.65Q1.75 -17 0.35 -15.05Q-2 -13.45 -1.9 -6.5Q-3.3 -10.3 -2.2 -13.7Q-1 -16.4 0.65 -18.15L1 -18.65" />
<path style="fill:none;stroke-width:0.7;stroke-linecap:round;stroke-linejoin:round;stroke-miterlimit:3;stroke:#000000;stroke-opacity:0.301961" d="M3.7 -19.45L3.8 -18.2" />
</g>
</svg>
