<?xml version="1.0" encoding="utf-8"?>
<svg version="1.1" id="Layer_1"
xmlns="http://www.w3.org/2000/svg"
xmlns:xlink="http://www.w3.org/1999/xlink"
width="15px" height="14px"
xml:space="preserve">
<g id="PathID_6185" transform="matrix(1, 0, 0, 1, 7, 6.8)">
<path style="fill:#FF959F;fill-opacity:1" d="M5.55 -3.65Q7.9 -0.65 6.55 2.35L5.45 3.75Q4.5 4.7 2.6 5Q3.9 3.8 3.9 2.3Q3.9 0.65 1.5 -1.35Q-0.9 -3.35 -0.9 -5.2L-0.7 -6.15L-0.45 -6.8L0 -6.8Q1.9 -6.7 4.95 -4.35L5.55 -3.65" />
<path style="fill:#D46375;fill-opacity:1" d="M6.55 2.4Q6.05 3.95 4.8 5.15Q2.85 7 0.05 6.85Q-1.8 6.75 -3.15 6.1L-1.2 6.4Q0.9 6.4 2.45 5.1L2.6 5Q4.5 4.7 5.45 3.75L6.55 2.35L6.55 2.4" />
<path style="fill:#F85C67;fill-opacity:1" d="M0.25 5.1L0.2 5.1Q-6.85 4.05 -6.25 -3.2Q-4.95 -5.8 -2.6 -6.5L-0.45 -6.8L-0.7 -6.15L-0.9 -5.2Q-0.9 -3.35 1.5 -1.35Q3.9 0.65 3.9 2.3Q3.9 3.8 2.6 5L0.25 5.1" />
<path style="fill:#B63F52;fill-opacity:1" d="M2.6 5L2.45 5.1Q0.9 6.4 -1.2 6.4L-3.15 6.1L-4.5 5.15Q-6.2 3.55 -6.5 1.95L-6.85 -0.4Q-6.85 -1.95 -6.25 -3.2Q-6.85 4.05 0.2 5.1L0.25 5.1L2.6 5" />
<path style="fill:none;stroke-width:0.7;stroke-linecap:round;stroke-linejoin:round;stroke-miterlimit:3;stroke:#861F32;stroke-opacity:0.6" d="M6.55 2.35Q7.9 -0.65 5.55 -3.65L4.95 -4.35" />
<path style="fill:none;stroke-width:0.7;stroke-linecap:round;stroke-linejoin:round;stroke-miterlimit:3;stroke:#861F32;stroke-opacity:0.6" d="M-3.15 6.1Q-1.8 6.75 0.05 6.85Q2.85 7 4.8 5.15Q6.05 3.95 6.55 2.4L6.55 2.35" />
<path style="fill:none;stroke-width:0.7;stroke-linecap:round;stroke-linejoin:round;stroke-miterlimit:3;stroke:#861F32;stroke-opacity:0.6" d="M-3.15 6.1L-4.5 5.15Q-6.2 3.55 -6.5 1.95L-6.85 -0.4Q-6.85 -1.95 -6.25 -3.2Q-4.95 -5.8 -2.6 -6.5" />
</g>
<g id="PathID_6186" transform="matrix(1, 0, 0, 1, 7, 6.8)">
<path style="fill:#FCDFE4;fill-opacity:1" d="M3.7 -3.95Q3.85 -2.4 3.2 -1.3Q4.45 -1 5.1 -0.15L5.15 0L5.15 0.1L4.65 1.2L5.4 2.25L5.45 2.45L5.4 2.6Q4.95 3.05 3.45 3.15L2.2 3Q2.25 5.25 1.35 6.15L0.35 5.8L-0.55 6.4Q-1.8 5.15 -1.8 3.8Q-3.05 4.45 -4.25 4.55L-4.45 4.5L-4.55 4.35L-4.6 3L-5.7 2.4L-5.8 2.25L-5.8 2.05Q-5.35 0.75 -3.9 -0.05Q-4.65 -1.25 -4.75 -2.3L-4.7 -2.45L-4.6 -2.55L-3.7 -3.1L-3.6 -4.2L-3.5 -4.4L-3.3 -4.45Q-1.55 -4.3 -0.7 -2.95Q-0.05 -4.4 1.25 -4.95L1.45 -5L1.55 -4.9L2.15 -4.1L3.45 -4.2L3.6 -4.15L3.7 -3.95M1.3 -4.4Q0.1 -3.8 -0.45 -2.4Q-0.1 -1.5 -0.1 0.15L1.15 -2.35L1.15 -1.75L0.4 0.1Q1.85 -0.4 2.55 -1.25L2.6 -1.35Q3.3 -2.3 3.25 -3.65L1.9 -3.6L1.3 -4.4M4.85 2.35L4.1 1.25L4.6 0.05Q4 -0.65 2.85 -0.85Q2.1 0.1 0.3 0.6L2.65 0.85L0.15 0.9Q1.1 2.2 1.9 2.4L3.65 2.55L4.85 2.35M1.2 5.65Q1.85 4.25 1.75 2.9Q0.55 2.4 -0.2 0.95Q-0.35 2.3 -0.1 3.5Q-0.7 2.6 -0.65 1.3Q-1.3 2.55 -1.4 3.4Q-1.35 4.9 -0.45 5.95L0.35 5.3L1.2 5.65M-3.45 -0.25Q-1.95 -0.65 -0.6 0.15Q-1 -0.7 -2 -1.8L-1.8 -1.7L-0.5 -0.5L-0.9 -2.3L-0.95 -2.35Q-1.6 -3.7 -3.1 -3.9L-3.2 -2.8L-4.2 -2.2Q-4.1 -1.25 -3.45 -0.25M-3.45 0.3Q-4.75 1 -5.25 2.05L-4.2 2.65L-4.05 4.05L-1.85 3.25Q-1.7 2.15 -0.85 0.9Q-2 1.2 -3 2.05Q-2.05 0.7 -0.7 0.45L-3.45 0.3" />
<path style="fill:#FD6C73;fill-opacity:1" d="M1.9 -3.6L3.25 -3.65Q3.3 -2.3 2.6 -1.35L2.55 -1.25Q1.85 -0.4 0.4 0.1L1.15 -1.75L1.15 -2.35L-0.1 0.15Q-0.1 -1.5 -0.45 -2.4Q0.1 -3.8 1.3 -4.4L1.9 -3.6M3.65 2.55L1.9 2.4Q1.1 2.2 0.15 0.9L2.65 0.85L0.3 0.6Q2.1 0.1 2.85 -0.85Q4 -0.65 4.6 0.05L4.1 1.25L4.85 2.35L3.65 2.55" />
</g>
</svg>
