<?xml version="1.0" encoding="utf-8"?>
<svg version="1.1" id="Layer_1"
xmlns="http://www.w3.org/2000/svg"
xmlns:xlink="http://www.w3.org/1999/xlink"
width="18px" height="14px"
xml:space="preserve">
<g id="PathID_4974" transform="matrix(1, 0, 0, 1, 7.25, 6.8)">
<path style="fill:#C7E5F7;fill-opacity:1" d="M-1.55 -5.25L0.95 -0.85Q0.2 -1.45 -5.25 -2.7L-5.35 -2.7Q-4.9 -2.2 -4.15 -0.05L-3.3 2.8Q-5.6 1.25 -6.2 -0.3L-6.3 -1.45L-6.25 -3.2L-5.1 -4.7Q-4.25 -5.65 -2.6 -6.5L0 -6.8L2.55 -6.35L4.4 -5.15L5.6 -3.7L6.15 -2.55L6.45 -1.8Q1.85 -4.9 -1.55 -5.25" />
<linearGradient
id="LinearGradID_1181" gradientUnits="userSpaceOnUse" gradientTransform="matrix(0.000137329, -0.00402832, 0.00617981, 0.000213623, 0.65, 3.3)" spreadMethod ="pad" x1="-819.2" y1="0" x2="819.2" y2="0" >
<stop  offset="0" style="stop-color:#C7E5F7;stop-opacity:1" />
<stop  offset="1" style="stop-color:#A1D7FD;stop-opacity:1" />
</linearGradient>
<path style="fill:url(#LinearGradID_1181) " d="M6.45 -1.8L7.1 0.55Q7.3 1.65 7.15 2.8L7.15 2.85L7 3.6L7 3.65L6.95 3.65L6 3.75Q1.3 4.65 -1.4 3.6L-3.25 2.8L-3.3 2.8L-4.15 -0.05Q-4.9 -2.2 -5.35 -2.7L-5.25 -2.7Q0.2 -1.45 0.95 -0.85L-1.55 -5.25Q1.85 -4.9 6.45 -1.8" />
<path style="fill:#8DBDDE;fill-opacity:1" d="M-6.3 -1.45L-6.2 -0.3Q-5.6 1.25 -3.3 2.8L-3.25 2.8L-1.4 3.6Q1.3 4.65 6 3.75L6.95 3.65L7 3.65L7 3.6L7.45 4.65Q8.25 5.65 10.65 6.65Q3.7 6.9 1.15 6.6L-3.7 5.7Q-6 5.2 -6.65 3.75L-7.05 2.3L-7.1 0.85L-6.9 -0.9L-6.25 -3.2L-6.3 -1.45" />
<path style="fill:none;stroke-width:0.7;stroke-linecap:round;stroke-linejoin:miter;stroke-miterlimit:5;stroke:#000000;stroke-opacity:0.4" d="M1.15 6.6L-3.7 5.7Q-6 5.2 -6.65 3.75L-7.05 2.3L-7.1 0.85L-6.9 -0.9L-6.25 -3.2L-5.1 -4.7Q-4.25 -5.65 -2.6 -6.5" />
</g>
</svg>
