<?xml version="1.0" encoding="utf-8"?>
<svg version="1.1" id="Layer_1"
xmlns="http://www.w3.org/2000/svg"
xmlns:xlink="http://www.w3.org/1999/xlink"
width="20px" height="21px"
xml:space="preserve">
<g id="PathID_4671" transform="matrix(1, 0, 0, 1, 9.6, 9.8)">
<path style="fill:#B9A9A3;fill-opacity:1" d="M7.3 3.35L5.7 4.35Q6.75 2.75 7.4 0.35L7.45 0.45L7.75 0.55L8 0.45L8.1 0.2L8 -0.1L7.75 -0.2L7.5 -0.1L7.8 -1.5L8.1 -1.4L8.35 -1.5L8.45 -1.75L8.35 -2.05L8.1 -2.15L7.9 -2.1L7.9 -2.3Q8.1 -5.4 6.7 -9.15Q7.5 -8.55 8.6 -6.35Q9.65 -4.2 9.25 -1.55L8.65 4.05L8.45 5.3L7.3 3.35M7.8 2.05L7.7 1.75L7.45 1.65L7.15 1.75L7.05 2.05L7.15 2.3L7.45 2.4L7.7 2.3L7.8 2.05" />
<path style="fill:#848484;fill-opacity:1" d="M-2.2 7.2L-3.45 6.9L-3.85 6.8L-5.6 5.9L-7.65 4.2Q-9.85 1.6 -7.85 -2.15L-7.65 -2.35L-7.15 -2.85L-7.1 -2.9L-5.7 -4.2L-5.6 -4.3L-5 -4.9L-4.9 -5L-3.45 -6.25L-2.1 -7.3L-1.95 -7.4L0.2 -9.15L2.65 -9.7Q5.4 -10.1 6.7 -9.15Q7.15 -3.05 2.6 2.9Q0.55 5.65 -2.2 7.2" />
<path style="fill:#FFFFFF;fill-opacity:1" d="M7.45 -0.1L7.35 0.2L7.4 0.35Q6.75 2.75 5.7 4.35Q3.95 5.3 1.2 6.15L2.6 2.9Q7.15 -3.05 6.7 -9.15Q8.1 -5.4 7.9 -2.3L7.9 -2.1L7.8 -2.05L7.7 -1.75L7.8 -1.5L7.5 -0.1L7.45 -0.1" />
<path style="fill:#000000;fill-opacity:1" d="M7.9 -2.1L8.1 -2.15L8.35 -2.05L8.45 -1.75L8.35 -1.5L8.1 -1.4L7.8 -1.5L7.7 -1.75L7.8 -2.05L7.9 -2.1M7.5 -0.1L7.75 -0.2L8 -0.1L8.1 0.2L8 0.45L7.75 0.55L7.45 0.45L7.4 0.35L7.35 0.2L7.45 -0.1L7.5 -0.1M7.7 2.3L7.45 2.4L7.15 2.3L7.05 2.05L7.15 1.75L7.45 1.65L7.7 1.75L7.8 2.05L7.7 2.3" />
<path style="fill:#211E1D;fill-opacity:1" d="M-2.2 7.2L-1.95 7.2Q3.15 8 5.7 4.35L7.3 3.35L8.45 5.3Q8.1 6.55 7.15 7.5Q6.45 8.2 5.45 8.75L3.4 9.65Q1.25 10.35 -1.15 10.15L-3.45 9.7L-6.1 8.25Q-4 8.15 -2.2 7.2" />
<path style="fill:#2D2D2D;fill-opacity:1" d="M2.6 2.9L1.2 6.15Q3.95 5.3 5.7 4.35Q3.15 8 -1.95 7.2L-2.2 7.2Q0.55 5.65 2.6 2.9" />
<path style="fill:#605854;fill-opacity:1" d="M-7.65 4.2L-5.6 5.9L-3.85 6.8L-3.45 6.9L-2.2 7.2Q-4 8.15 -6.1 8.25L-7.2 7.25L-7.65 6.75Q-9.65 4.4 -9.4 1.9Q-9.25 0.05 -7.85 -2.15Q-9.85 1.6 -7.65 4.2" />
<path style="fill:none;stroke-width:0.7;stroke-linecap:round;stroke-linejoin:miter;stroke-miterlimit:5;stroke:#000000;stroke-opacity:0.4" d="M8.45 5.3L8.65 4.05L9.25 -1.55Q9.65 -4.2 8.6 -6.35Q7.5 -8.55 6.7 -9.15" />
<path style="fill:none;stroke-width:0.7;stroke-linecap:round;stroke-linejoin:round;stroke-miterlimit:3;stroke:#000000;stroke-opacity:0.4" d="M5.7 4.35L7.3 3.35L8.45 5.3" />
<path style="fill:none;stroke-width:0.7;stroke-linecap:round;stroke-linejoin:miter;stroke-miterlimit:5;stroke:#000000;stroke-opacity:0.4" d="M8.45 5.3Q8.1 6.55 7.15 7.5Q6.45 8.2 5.45 8.75L3.4 9.65Q1.25 10.35 -1.15 10.15L-3.45 9.7L-6.1 8.25L-7.2 7.25L-7.65 6.75Q-9.65 4.4 -9.4 1.9Q-9.25 0.05 -7.85 -2.15L-7.65 -2.35L-7.15 -2.85" />
<path style="fill:none;stroke-width:0.7;stroke-linecap:round;stroke-linejoin:miter;stroke-miterlimit:5;stroke:#000000;stroke-opacity:0.4" d="M-7.1 -2.9L-5.7 -4.2L-5.6 -4.3L-5 -4.9L-4.9 -5L-3.45 -6.25L-2.1 -7.3L-1.95 -7.4L0.2 -9.15" />
<path style="fill:none;stroke-width:0.7;stroke-linecap:round;stroke-linejoin:round;stroke-miterlimit:3;stroke:#000000;stroke-opacity:0.4" d="M6.7 -9.15Q7.15 -3.05 2.6 2.9L1.2 6.15Q3.95 5.3 5.7 4.35" />
</g>
</svg>
