<?xml version="1.0" encoding="utf-8"?>
<svg version="1.1" id="Layer_1"
xmlns="http://www.w3.org/2000/svg"
xmlns:xlink="http://www.w3.org/1999/xlink"
width="9px" height="8px"
xml:space="preserve">
<g id="PathID_6244" transform="matrix(1, 0, 0, 1, 3.95, 3.8)">
<path style="fill:#FAFAFC;fill-opacity:1" d="M-3.7 -0.6L-3.8 -0.85Q-4.15 -2.25 -3.5 -3.1Q-2.2 -4 -0.9 -3.7Q0.65 -3.35 2 -1.95L2.3 -1.65L2.8 -1.1L3.4 -0.4Q2.9 -0.95 2.5 0.35Q0.2 -0.2 -0.05 1.35Q-2.85 0.4 -3.7 -0.6" />
<path style="fill:#F3E9CE;fill-opacity:1" d="M3.7 1.15L3.6 1.05Q3.7 1.8 2.5 1.75L2.3 1.6Q2.4 2.3 1.9 2.55Q1.6 2.2 -0.05 1.35Q0.2 -0.2 2.5 0.35Q2.9 -0.95 3.4 -0.4L3.6 -0.1L3.85 0.35L3.7 1.15" />
<path style="fill:#CEC08F;fill-opacity:1" d="M-0.05 1.35Q1.6 2.2 1.9 2.55Q2.4 2.3 2.3 1.6L2.5 1.75Q3.7 1.8 3.6 1.05L3.7 1.15L3.85 0.35Q4.6 1.25 4.2 2.1Q4.55 2.6 3.5 3.25L3.4 3.55Q3.25 3.75 2.7 3.75Q2.05 3.9 1.3 3.3L0.3 2.6L0 2.4L-0.05 1.35M3.7 1.15L4.2 2.1L3.7 1.15M3.5 3.25Q3.3 2.3 2.5 1.75Q3.3 2.3 3.5 3.25" />
<path style="fill:#CBCBCD;fill-opacity:1" d="M-0.05 1.35L0 2.4L-1.6 1.45Q-3.25 0.45 -3.55 -0.15L-3.7 -0.6Q-2.85 0.4 -0.05 1.35" />
<path style="fill:none;stroke-width:0.7;stroke-linecap:round;stroke-linejoin:miter;stroke-miterlimit:5;stroke:#251E18;stroke-opacity:0.4" d="M3.85 0.35L3.6 -0.1L3.4 -0.4" />
<path style="fill:none;stroke-width:0.7;stroke-linecap:round;stroke-linejoin:round;stroke-miterlimit:3;stroke:#000000;stroke-opacity:0.2" d="M3.4 -0.4Q2.9 -0.95 2.5 0.35Q0.2 -0.2 -0.05 1.35" />
<path style="fill:none;stroke-width:0.7;stroke-linecap:round;stroke-linejoin:miter;stroke-miterlimit:5;stroke:#251E18;stroke-opacity:0.4" d="M2.3 1.6L2.5 1.75" />
<path style="fill:none;stroke-width:0.7;stroke-linecap:round;stroke-linejoin:miter;stroke-miterlimit:5;stroke:#251E18;stroke-opacity:0.4" d="M3.85 0.35Q4.6 1.25 4.2 2.1Q4.55 2.6 3.5 3.25L3.4 3.55Q3.25 3.75 2.7 3.75Q2.05 3.9 1.3 3.3L0.3 2.6L0 2.4L-1.6 1.45Q-3.25 0.45 -3.55 -0.15L-3.7 -0.6L-3.8 -0.85" />
<path style="fill:none;stroke-width:0.7;stroke-linecap:round;stroke-linejoin:miter;stroke-miterlimit:5;stroke:#251E18;stroke-opacity:0.4" d="M2.3 -1.65L2.8 -1.1L3.4 -0.4" />
<path style="fill:none;stroke-width:0.7;stroke-linecap:round;stroke-linejoin:miter;stroke-miterlimit:5;stroke:#251E18;stroke-opacity:0.4" d="M4.2 2.1L3.7 1.15" />
<path style="fill:none;stroke-width:0.7;stroke-linecap:round;stroke-linejoin:miter;stroke-miterlimit:5;stroke:#251E18;stroke-opacity:0.4" d="M2.5 1.75Q3.3 2.3 3.5 3.25" />
<path style="fill:none;stroke-width:0.7;stroke-linecap:round;stroke-linejoin:round;stroke-miterlimit:3;stroke:#000000;stroke-opacity:0.2" d="M-0.05 1.35L0 2.4" />
</g>
</svg>
