<?xml version="1.0" encoding="utf-8"?>
<svg version="1.1" id="Layer_1"
xmlns="http://www.w3.org/2000/svg"
xmlns:xlink="http://www.w3.org/1999/xlink"
width="17px" height="15px"
xml:space="preserve">
<g id="PathID_5755" transform="matrix(1, 0, 0, 1, 8.6, 6.65)">
<radialGradient
id="RadialGradID_1409" gradientUnits="userSpaceOnUse" gradientTransform="matrix(0.0148926, -0.0148926, 0.00512695, 0.00512695, -4.6, -5.7)" spreadMethod ="pad" cx="0" cy="0" r="819.2" fx="0" fy="0" >
<stop  offset="0.105882"  style="stop-color:#008CC7;stop-opacity:1" />
<stop  offset="0.733333"  style="stop-color:#FDDDF2;stop-opacity:1" />
</radialGradient>
<path style="fill:url(#RadialGradID_1409) " d="M-6.95 0Q-10 -1.8 -6.3 -3.2Q-7.55 -4.5 -6.2 -5.45Q-4.8 -6.35 -2.85 -6.5L0.2 -6.65L0.7 -6.6L0.2 -6.1L-1.3 -4.5L-3.15 -3.3L-4.35 -2.65L-3.95 -2.65L-2.15 -2.8L-2.1 -2.8L-3.65 -1.75Q-4.85 -1.2 -5.55 -1.35L-5.6 -1.25Q-5.6 -0.9 -4.5 -0.5L-5.2 -0.05L-6.25 0.35L-7.35 0.65L-6.95 0" />
<path style="fill:#FFE8F8;fill-opacity:1" d="M-4.85 2.7Q-8.85 3.15 -7.35 0.65L-6.25 0.35L-5.2 -0.05L-4.5 -0.5Q-5.6 -0.9 -5.6 -1.25L-5.55 -1.35Q-4.85 -1.2 -3.65 -1.75L-2.1 -2.8L-2.15 -2.8L-3.95 -2.65L-4.35 -2.65L-3.15 -3.3L-1.3 -4.5L0.2 -6.1L0.7 -6.6Q3.1 -6.4 4.8 -4.95L5.05 -4.75Q4.55 -2.55 3.15 -0.4L3.1 -0.4L2.8 -2.7L2.75 -2.7Q2.7 -0.7 0.4 1.4Q-1.2 2.95 -2.45 3.5L-1.65 2.4L-1.1 1.5L-1.95 2.2L-3.65 3.3L-5.1 4.15L-4.85 2.7M2.4 6.1Q2.75 4.95 3.65 3.9Q4.9 2.45 5.75 2.45L6.55 2.55Q6.5 3.15 6.25 3.35L4.75 3.4L4.1 4.85Q3.4 5.75 2.4 6.1" />
<radialGradient
id="RadialGradID_1410" gradientUnits="userSpaceOnUse" gradientTransform="matrix(0.00604248, 0.00601196, -0.0149231, 0.0149536, 1.45, 3.1)" spreadMethod ="pad" cx="0" cy="0" r="819.2" fx="0" fy="0" >
<stop  offset="0.243137"  style="stop-color:#F98EC6;stop-opacity:1" />
<stop  offset="0.639216"  style="stop-color:#FDDDF2;stop-opacity:1" />
</radialGradient>
<path style="fill:url(#RadialGradID_1410) " d="M6.2 0.7L6.55 2.55L5.75 2.45Q4.9 2.45 3.65 3.9Q2.75 4.95 2.4 6.1L1.25 6.35Q-0.65 6.5 -1.35 4.45Q-3.05 5.75 -4.3 5.3Q-5.05 4.95 -5.1 4.15L-3.65 3.3L-1.95 2.2L-1.1 1.5L-1.65 2.4L-2.45 3.5Q-1.2 2.95 0.4 1.4Q2.7 -0.7 2.75 -2.7L2.8 -2.7L3.1 -0.4L3.15 -0.4Q4.55 -2.55 5.05 -4.75Q6.4 -3.45 6.75 -1.95Q7.4 0.95 6.2 0.7" />
<path style="fill:#DC6198;fill-opacity:1" d="M6.55 2.55L6.2 0.7Q7.4 0.95 6.75 -1.95Q7.75 -0.45 7.65 0.75Q7.5 1.9 6.85 1.7L7.3 2.7L6.55 2.55M-5.65 4.35L-5.1 4.15Q-5.05 4.95 -4.3 5.3Q-3.05 5.75 -1.35 4.45Q-0.65 6.5 1.25 6.35L2.4 6.1L2.2 7.5L2.2 7.55L0 7.7Q-1.95 7.2 -1.9 6.35Q-3.15 7.45 -5.1 6.8Q-6.8 6.2 -6.45 4.55L-5.65 4.35" />
<path style="fill:#DFBBC9;fill-opacity:1" d="M2.2 7.5L2.4 6.1Q3.4 5.75 4.1 4.85L4.75 3.4L6.25 3.35Q6.5 3.15 6.55 2.55L7.3 2.7Q7.85 4.4 5.9 4.7Q5.65 7.25 3.75 6.3Q3.05 7.2 2.2 7.55L2.2 7.5M-7.35 0.65Q-8.85 3.15 -4.85 2.7L-5.1 4.15L-5.65 4.35L-6.45 4.55L-6.2 3.8Q-8.75 3.8 -8.4 2.15Q-8.25 1.35 -7.9 0.85Q-7.55 0.25 -6.95 0L-7.35 0.65" />
<path style="fill:none;stroke-width:0.7;stroke-linecap:round;stroke-linejoin:miter;stroke-miterlimit:5;stroke:#46003D;stroke-opacity:0.329412" d="M6.75 -1.95Q7.75 -0.45 7.65 0.75Q7.5 1.9 6.85 1.7L7.3 2.7Q7.85 4.4 5.9 4.7Q5.65 7.25 3.75 6.3Q3.05 7.2 2.2 7.55L0 7.7Q-1.95 7.2 -1.9 6.35Q-3.15 7.45 -5.1 6.8Q-6.8 6.2 -6.45 4.55L-6.2 3.8Q-8.75 3.8 -8.4 2.15Q-8.25 1.35 -7.9 0.85Q-7.55 0.25 -6.95 0Q-10 -1.8 -6.3 -3.2Q-7.55 -4.5 -6.2 -5.45Q-4.8 -6.35 -2.85 -6.5" />
</g>
<g id="PathID_5756" transform="matrix(1, 0, 0, 1, 8.6, 6.65)">
<path style="fill:#FEBAE1;fill-opacity:1" d="M4.3 -1.45Q4.4 -1.95 4.85 -1.95Q5.45 -1.95 5.7 -0.55L5.7 -0.3Q6.15 -0.1 6.15 0.65Q6.15 1.35 5.45 1.35Q4.85 1.35 4.65 0.9L4.55 0.4L4.6 0.1Q4.15 -0.1 4.25 -0.85L4.3 -1.45M4.25 2.45Q4.25 3.25 3.5 3.25L2.9 2.85L2.85 2.8L2.05 3.25Q0.9 3.25 0.9 2.55Q0.9 1.7 2.25 1.4L3.25 1.35L3.4 1.35Q4.25 1.4 4.25 2.45M0.35 5.6Q-0.2 5.6 -0.2 5.05Q-0.2 4.4 0.45 4.4Q1.05 4.4 1.05 4.95Q1.05 5.6 0.35 5.6" />
<path style="fill:#DE94B9;fill-opacity:1" d="M4.55 5.8Q4.1 5.8 4.1 5.3Q4.1 4.9 4.65 4.75Q5.15 4.6 5.15 5.15L5 5.55L4.55 5.8" />
<path style="fill:#85D3F9;fill-opacity:1" d="M-5.9 -4.8Q-5.9 -5.3 -5.1 -5.55L-5 -5.55L-4.25 -5.8Q-3.5 -5.8 -3.3 -5.1Q-3.3 -4.6 -4.4 -4.6L-4.55 -4.6L-4.6 -4.6Q-4.9 -4.3 -5.3 -4.3Q-5.95 -4.3 -5.9 -4.8M-1.85 -5L-2 -4.6Q-2.15 -4.3 -2.4 -4.3Q-2.85 -4.3 -2.85 -4.9Q-2.85 -5.55 -2.3 -5.55Q-1.8 -5.55 -1.85 -5" />
</g>
</svg>
