<?xml version="1.0" encoding="utf-8"?>
<svg version="1.1" id="Layer_1"
xmlns="http://www.w3.org/2000/svg"
xmlns:xlink="http://www.w3.org/1999/xlink"
width="15px" height="14px"
xml:space="preserve">
<g id="PathID_5463" transform="matrix(1, 0, 0, 1, 6.9, 6.65)">
<path style="fill:#000000;fill-opacity:1" d="M-5.9 -3.65Q-4.75 -5.8 -3.05 -6.35L-2.55 -6.5L1.25 -6.35L3.15 -5.7L4.6 -4.7L5.65 -3.5Q7.7 -1.15 6.85 2Q5.45 3.25 2.2 3.25L-1.25 3.05Q-2.6 2.7 -3.7 1.6Q-5.1 0.2 -5.55 -1.1Q-5.9 -2.05 -5.9 -3.65" />
<path style="fill:#A37633;fill-opacity:1" d="M-5.55 -1.1Q-5.1 0.2 -3.7 1.6Q-2.6 2.7 -1.25 3.05L2.2 3.25Q5.45 3.25 6.85 2L6.55 2.9Q5 6.9 0.05 6.85Q-1.75 6.8 -3.05 6.1L-4.8 4.55Q-7.8 0.65 -6.2 -3.05L-5.9 -3.65Q-5.9 -2.05 -5.55 -1.1" />
<path style="fill:none;stroke-width:0.7;stroke-linecap:round;stroke-linejoin:round;stroke-miterlimit:3;stroke:#000000;stroke-opacity:0.301961" d="M5.65 -3.5Q7.7 -1.15 6.85 2L6.55 2.9Q5 6.9 0.05 6.85Q-1.75 6.8 -3.05 6.1L-4.8 4.55Q-7.8 0.65 -6.2 -3.05L-5.9 -3.65Q-4.75 -5.8 -3.05 -6.35L-2.55 -6.5" />
</g>
</svg>
