<?xml version="1.0" encoding="utf-8"?>
<svg version="1.1" id="Layer_1"
xmlns="http://www.w3.org/2000/svg"
xmlns:xlink="http://www.w3.org/1999/xlink"
width="9px" height="8px"
xml:space="preserve">
<g id="PathID_6209" transform="matrix(1, 0, 0, 1, 4.1, 3.8)">
<path style="fill:#F7BB36;fill-opacity:1" d="M2.85 -1.3L3.05 -1.55Q3.4 -2 4.1 -1.15L4.2 0Q3.25 -0.3 2.7 1.1Q3.25 -0.3 4.2 0L4.2 0.8Q2.85 3.05 1.95 2.6L0.55 1.25L0.55 1.05L0.15 -1.85Q0.15 -2.65 1.05 -2.75L1.5 -2.3L2.5 -1.15Q2.6 -1.1 2.85 -1.3M1 -1.15Q1.1 -0.1 1.8 -0.1Q2.25 -0.1 2.25 -0.65Q2.05 -1.6 1.65 -1.6Q1 -1.6 1 -1.15M4.1 -1.15Q3.4 -2 3.05 -1.55L2.85 -1.3L2.95 -1.65Q3.15 -2.35 3.45 -2.1L4 -1.6L4 -1.3L4.05 -1.25L4.1 -1.15" />
<path style="fill:#FEEE8E;fill-opacity:1" d="M-0.1 0.75L-1.75 0.9Q-3.2 1 -3.7 -0.6L-3.8 -0.85Q-4.15 -2.25 -3.5 -3.1Q-2.2 -4 -0.9 -3.7Q0.25 -3.45 1.05 -2.75Q0.15 -2.65 0.15 -1.85L0.55 1.05L0.55 1.25L-0.1 0.75M1.65 -1.6Q2.05 -1.6 2.25 -0.65Q2.25 -0.1 1.8 -0.1Q1.1 -0.1 1 -1.15Q1 -1.6 1.65 -1.6" />
<path style="fill:#78583A;fill-opacity:1" d="M4.1 -1.15L4.05 -1.25L4.15 -1.1L4.1 -1.15" />
<path style="fill:#D78205;fill-opacity:1" d="M3.35 3.35L2.7 3.75Q2.05 3.9 1.3 3.3L0.3 2.6L0.4 2.2L0.55 1.25L1.95 2.6Q2.85 3.05 4.2 0.8Q3.9 2.8 3.35 3.35" />
<path style="fill:#C2A923;fill-opacity:1" d="M0.55 1.25L0.4 2.2L0.3 2.6L-1.6 1.45Q-2.95 2.25 -3.65 0.9Q-4.25 0.9 -4.05 0.45L-3.7 -0.55L-3.7 -0.6Q-3.2 1 -1.75 0.9L-0.1 0.75L0.55 1.25" />
<path style="fill:none;stroke-width:0.7;stroke-linecap:round;stroke-linejoin:round;stroke-miterlimit:3;stroke:#000000;stroke-opacity:0.301961" d="M4.2 0.8L4.2 0Q3.25 -0.3 2.7 1.1" />
<path style="fill:none;stroke-width:0.7;stroke-linecap:round;stroke-linejoin:round;stroke-miterlimit:3;stroke:#000000;stroke-opacity:0.301961" d="M4.05 -1.25L4 -1.3L4 -1.6L3.45 -2.1Q3.15 -2.35 2.95 -1.65L2.85 -1.3L3.05 -1.55Q3.4 -2 4.1 -1.15L4.05 -1.25L4.15 -1.1L4.1 -1.15L4.2 0" />
<path style="fill:none;stroke-width:0.7;stroke-linecap:round;stroke-linejoin:round;stroke-miterlimit:3;stroke:#000000;stroke-opacity:0.301961" d="M2.85 -1.3Q2.6 -1.1 2.5 -1.15" />
<path style="fill:none;stroke-width:0.7;stroke-linecap:round;stroke-linejoin:round;stroke-miterlimit:3;stroke:#000000;stroke-opacity:0.301961" d="M0.3 2.6L1.3 3.3Q2.05 3.9 2.7 3.75L3.35 3.35Q3.9 2.8 4.2 0.8" />
<path style="fill:none;stroke-width:0.7;stroke-linecap:round;stroke-linejoin:round;stroke-miterlimit:3;stroke:#000000;stroke-opacity:0.301961" d="M0.3 2.6L-1.6 1.45Q-2.95 2.25 -3.65 0.9Q-4.25 0.9 -4.05 0.45L-3.7 -0.55L-3.7 -0.6L-3.8 -0.85" />
</g>
</svg>
