<?xml version="1.0" encoding="utf-8"?>
<svg version="1.1" id="Layer_1"
xmlns="http://www.w3.org/2000/svg"
xmlns:xlink="http://www.w3.org/1999/xlink"
width="9px" height="8px"
xml:space="preserve">
<g id="PathID_6243" transform="matrix(1, 0, 0, 1, 3.9, 3.8)">
<path style="fill:#FAFAFC;fill-opacity:1" d="M1.35 -2.45L1.3 -1.75Q1.3 -1.1 1.45 -0.9L0.1 -0.65Q-0.4 -0.35 -0.45 0.7Q-2.9 0.35 -3.7 -0.6L-3.8 -0.85Q-4.15 -2.25 -3.5 -3.1Q-2.2 -4 -0.9 -3.7Q0.5 -3.4 1.35 -2.45" />
<path style="fill:#F3E9CE;fill-opacity:1" d="M2.85 -1.3L3.05 -1.55Q3.4 -2 4.1 -1.15L4.2 0Q3.25 -0.3 2.7 1.1Q3.25 -0.3 4.2 0L4.2 0.8Q2.85 3.05 1.95 2.6L-0.1 0.75L-0.45 0.7Q-0.4 -0.35 0.1 -0.65L1.45 -0.9Q1.3 -1.1 1.3 -1.75L1.35 -2.45L1.5 -2.3L2.5 -1.15Q2.6 -1.1 2.85 -1.3L2.95 -1.65Q3.15 -2.35 3.45 -2.1L4 -1.6L4 -1.3L4.05 -1.25L4.1 -1.15Q3.4 -2 3.05 -1.55L2.85 -1.3" />
<path style="fill:#78583A;fill-opacity:1" d="M4.05 -1.25L4.15 -1.1L4.1 -1.15L4.05 -1.25" />
<path style="fill:#CEC08F;fill-opacity:1" d="M-0.4 2.15L-0.5 1.15L-0.45 0.7L-0.1 0.75L1.95 2.6Q2.85 3.05 4.2 0.8Q3.9 2.8 3.35 3.35L2.7 3.75Q2.05 3.9 1.3 3.3L-0.4 2.15" />
<path style="fill:#CBCBCD;fill-opacity:1" d="M-0.45 0.7L-0.5 1.15L-0.4 2.15L-1.6 1.45L-2.7 0.9L-3.65 -0.1L-3.7 -0.55L-3.7 -0.6Q-2.9 0.35 -0.45 0.7" />
<path style="fill:none;stroke-width:0.7;stroke-linecap:round;stroke-linejoin:round;stroke-miterlimit:3;stroke:#000000;stroke-opacity:0.301961" d="M1.35 -2.45L1.3 -1.75Q1.3 -1.1 1.45 -0.9L0.1 -0.65Q-0.4 -0.35 -0.45 0.7" />
<path style="fill:none;stroke-width:0.7;stroke-linecap:round;stroke-linejoin:round;stroke-miterlimit:3;stroke:#000000;stroke-opacity:0.301961" d="M4.2 0.8L4.2 0Q3.25 -0.3 2.7 1.1" />
<path style="fill:none;stroke-width:0.7;stroke-linecap:round;stroke-linejoin:round;stroke-miterlimit:3;stroke:#000000;stroke-opacity:0.301961" d="M2.5 -1.15Q2.6 -1.1 2.85 -1.3L2.95 -1.65Q3.15 -2.35 3.45 -2.1L4 -1.6L4 -1.3L4.05 -1.25L4.15 -1.1L4.1 -1.15L4.2 0" />
<path style="fill:none;stroke-width:0.7;stroke-linecap:round;stroke-linejoin:round;stroke-miterlimit:3;stroke:#000000;stroke-opacity:0.301961" d="M4.05 -1.25L4.1 -1.15Q3.4 -2 3.05 -1.55L2.85 -1.3" />
<path style="fill:none;stroke-width:0.7;stroke-linecap:round;stroke-linejoin:round;stroke-miterlimit:3;stroke:#000000;stroke-opacity:0.301961" d="M-3.7 -0.6L-3.7 -0.55L-3.65 -0.1L-2.7 0.9L-1.6 1.45L-0.4 2.15L-0.5 1.15L-0.45 0.7" />
<path style="fill:none;stroke-width:0.7;stroke-linecap:round;stroke-linejoin:round;stroke-miterlimit:3;stroke:#000000;stroke-opacity:0.301961" d="M-3.7 -0.6L-3.8 -0.85" />
<path style="fill:none;stroke-width:0.7;stroke-linecap:round;stroke-linejoin:round;stroke-miterlimit:3;stroke:#000000;stroke-opacity:0.301961" d="M4.2 0.8Q3.9 2.8 3.35 3.35L2.7 3.75Q2.05 3.9 1.3 3.3L-0.4 2.15" />
</g>
</svg>
