<?xml version="1.0" encoding="utf-8"?>
<svg version="1.1" id="Layer_1"
xmlns="http://www.w3.org/2000/svg"
xmlns:xlink="http://www.w3.org/1999/xlink"
width="8px" height="6px"
xml:space="preserve">
<g id="PathID_5829" transform="matrix(1, 0, 0, 1, 3.25, 3.05)">
<path style="fill:#2875B8;fill-opacity:1" d="M2 -0.7L2.05 -1.5L3.05 -1.2L2.75 -0.35L2 -0.7M-1.15 -1L-0.85 -2.3L1.1 -1.75L1 -1.1L-1.15 -1" />
<path style="fill:#65B0F0;fill-opacity:1" d="M1 -1.1Q0.9 -0.1 1.35 0.2Q1.8 0.5 2 -0.7L2.75 -0.35Q2.25 1.1 1.3 1.4Q0.05 1.75 -0.65 0.6Q-1.2 -0.3 -1.15 -1L1 -1.1" />
<path style="fill:#FFFFFF;fill-opacity:1" d="M-1.15 -1Q-1.2 -0.3 -0.65 0.6Q0.05 1.75 1.3 1.4Q2.25 1.1 2.75 -0.35L3.05 -1.2L3.9 -1Q3.25 0.6 2.55 1.2Q1.55 2.05 0.55 2.2Q-0.55 2.3 -1.95 1.6Q-3.6 0.2 -2.85 -2.9L-0.85 -2.3L-1.15 -1" />
<path style="fill:#000000;fill-opacity:1" d="M2 -0.7Q1.8 0.5 1.35 0.2Q0.9 -0.1 1 -1.1L1.1 -1.75L2.05 -1.5L2 -0.7" />
<path style="fill:none;stroke-width:0.7;stroke-linecap:round;stroke-linejoin:round;stroke-miterlimit:3;stroke:#000000;stroke-opacity:0.501961" d="M1.1 -1.75L2.05 -1.5L3.05 -1.2L3.9 -1" />
<path style="fill:none;stroke-width:0.7;stroke-linecap:round;stroke-linejoin:round;stroke-miterlimit:3;stroke:#000000;stroke-opacity:0.4" d="M3.9 -1Q3.25 0.6 2.55 1.2Q1.55 2.05 0.55 2.2Q-0.55 2.3 -1.95 1.6Q-3.6 0.2 -2.85 -2.9" />
<path style="fill:none;stroke-width:0.7;stroke-linecap:round;stroke-linejoin:round;stroke-miterlimit:3;stroke:#000000;stroke-opacity:0.501961" d="M-2.85 -2.9L-0.85 -2.3L1.1 -1.75" />
</g>
</svg>
