<?xml version="1.0" encoding="utf-8"?>
<svg version="1.1" id="Layer_1"
xmlns="http://www.w3.org/2000/svg"
xmlns:xlink="http://www.w3.org/1999/xlink"
width="11px" height="8px"
xml:space="preserve">
<g id="PathID_5178" transform="matrix(1, 0, 0, 1, 3.8, 4.15)">
<path style="fill:#490010;fill-opacity:1" d="M-1.65 1.1L-2.65 0.35L1.95 -0.2L2 -1.45L2.4 -0.75L2.9 -0.15Q3.1 0.3 2.9 0.75L-1.65 1.1" />
<path style="fill:#731622;fill-opacity:1" d="M1.95 -0.2L-2.65 0.35L-3.7 -1.1Q-4.1 -2.7 -3.2 -3.55Q-2.4 -4.4 -0.8 -4Q0.75 -3.6 1.35 -2.6L2 -1.45L1.95 -0.2" />
<path style="fill:#2B0003;fill-opacity:1" d="M2.9 0.75Q3.1 0.3 2.9 -0.15L4 0.45Q7.1 0.4 5.8 1.75L5.05 2.45L3.55 3.1L1 2.95L-1.45 1.25L-1.65 1.1L2.9 0.75M2.4 1.85Q4.25 1 5.05 2.45Q4.25 1 2.4 1.85M5.8 1.75L5.75 1.3Q5.65 0.9 4.85 0.75L4 0.45L4.85 0.75Q5.65 0.9 5.75 1.3L5.8 1.75" />
<path style="fill:none;stroke-width:0.7;stroke-linecap:round;stroke-linejoin:round;stroke-miterlimit:3;stroke:#000000;stroke-opacity:0.301961" d="M2.4 -0.75L2.9 -0.15L4 0.45Q7.1 0.4 5.8 1.75L5.05 2.45L3.55 3.1L1 2.95L-1.45 1.25L-1.65 1.1L-2.65 0.35L-3.7 -1.1" />
<path style="fill:none;stroke-width:0.7;stroke-linecap:round;stroke-linejoin:round;stroke-miterlimit:3;stroke:#000000;stroke-opacity:0.301961" d="M5.05 2.45Q4.25 1 2.4 1.85" />
<path style="fill:none;stroke-width:0.7;stroke-linecap:round;stroke-linejoin:round;stroke-miterlimit:3;stroke:#000000;stroke-opacity:0.301961" d="M4 0.45L4.85 0.75Q5.65 0.9 5.75 1.3L5.8 1.75" />
</g>
<g id="PathID_5179" transform="matrix(1, 0, 0, 1, 3.8, 4.15)">
<path style="fill:#1F0811;fill-opacity:1" d="M5.1 0.45L5.7 0.5Q6.35 0.7 6.85 1.25L6.25 1.7L5.45 0.9L4.8 0.65L5.1 0.45M6.35 1.8L5.5 2.3L5.55 2.4Q5.25 1.8 4.5 1.65L3.8 1.5Q3.75 1.1 4.3 0.7L4.8 0.65L5.45 0.9L6.25 1.7L6.35 1.8M5.55 2.4Q4.6 3.1 3.1 3.2Q2.5 3 2.45 2.4Q2.5 1.95 3.1 1.7L3.8 1.5L4.5 1.65Q5.25 1.8 5.5 2.3" />
<path style="fill:none;stroke-width:0.7;stroke-linecap:round;stroke-linejoin:miter;stroke-miterlimit:5;stroke:#000000;stroke-opacity:0.4" d="M6.25 1.7L5.45 0.9L4.8 0.65L4.3 0.7Q3.75 1.1 3.8 1.5L4.5 1.65Q5.25 1.8 5.5 2.3L6.35 1.8L6.25 1.7L6.85 1.25Q6.35 0.7 5.7 0.5L5.1 0.45L4.8 0.65" />
<path style="fill:none;stroke-width:0.7;stroke-linecap:round;stroke-linejoin:miter;stroke-miterlimit:5;stroke:#000000;stroke-opacity:0.4" d="M3.8 1.5L3.1 1.7Q2.5 1.95 2.45 2.4Q2.5 3 3.1 3.2Q4.6 3.1 5.55 2.4L5.5 2.3" />
</g>
</svg>
