<?xml version="1.0" encoding="utf-8"?>
<svg version="1.1" id="Layer_1"
xmlns="http://www.w3.org/2000/svg"
xmlns:xlink="http://www.w3.org/1999/xlink"
width="10px" height="8px"
xml:space="preserve">
<g id="PathID_4783" transform="matrix(1, 0, 0, 1, 4.75, 3.65)">
<path style="fill:#9972CC;fill-opacity:1" d="M-0.35 0.9L-1.2 0.8L-1 0.45L-1 0.4L-0.95 -0.1Q1 0.9 1.4 -0.6L2.2 -0.25L3.1 -0.25L3.35 0.05Q3.8 0.65 4.15 2.3Q4.3 2.75 3.4 3.6L2.45 3.9Q1.7 2.4 -0.35 0.9" />
<path style="fill:#D2EAEF;fill-opacity:1" d="M-2.95 -0.45Q-3.35 -0.2 -3.9 -0.2L-4.4 -0.25L-4.2 -0.45Q-4.6 -0.55 -4.6 -1.2Q-4.65 -1.9 -4.15 -1.9L-2.9 -1.65Q-2.85 -3.25 -0.9 -1.9Q-0.9 -3.3 0.1 -3.1L1.45 -2.4Q2.6 -3.8 3.3 -2.55Q3.55 -1.85 2.75 -1.7Q4.05 -0.45 3.1 -0.25L2.2 -0.25L1.4 -0.6Q1 0.9 -0.95 -0.1L-1 0.4Q-2.3 0.7 -2.95 -0.45" />
<path style="fill:#623DA9;fill-opacity:1" d="M-1.2 0.8L-0.35 0.9Q1.7 2.4 2.45 3.9Q1.8 4.05 1.05 3.45L-1.85 1.6L-3.2 0.65L-3 0.4Q-2.35 1.15 -1.7 1L-1.2 0.8" />
<path style="fill:#9ABACD;fill-opacity:1" d="M-1 0.4L-1 0.45L-1.2 0.8L-1.7 1Q-2.35 1.15 -3 0.4L-3.2 0.65Q-4 1.15 -4.55 0.3L-4.4 -0.25L-3.9 -0.2Q-3.35 -0.2 -2.95 -0.45Q-2.3 0.7 -1 0.4" />
<path style="fill:#8ED2EA;fill-opacity:1" d="M-4.15 -1.9L-4.05 -2.4L-3.75 -2.95Q-2.45 -3.85 -1.15 -3.55L0.1 -3.1Q-0.9 -3.3 -0.9 -1.9Q-2.85 -3.25 -2.9 -1.65L-4.15 -1.9" />
<path style="fill:none;stroke-width:0.7;stroke-linecap:round;stroke-linejoin:miter;stroke-miterlimit:5;stroke:#000000;stroke-opacity:0.4" d="M0.1 -3.1L1.45 -2.4Q2.6 -3.8 3.3 -2.55Q3.55 -1.85 2.75 -1.7Q4.05 -0.45 3.1 -0.25L3.35 0.05Q3.8 0.65 4.15 2.3Q4.3 2.75 3.4 3.6L2.45 3.9Q1.8 4.05 1.05 3.45L-1.85 1.6L-3.2 0.65Q-4 1.15 -4.55 0.3L-4.4 -0.25L-4.2 -0.45Q-4.6 -0.55 -4.6 -1.2Q-4.65 -1.9 -4.15 -1.9" />
<path style="fill:none;stroke-width:0.7;stroke-linecap:round;stroke-linejoin:miter;stroke-miterlimit:5;stroke:#000000;stroke-opacity:0.4" d="M0.1 -3.1Q-0.9 -3.3 -0.9 -1.9Q-2.85 -3.25 -2.9 -1.65L-4.15 -1.9" />
<path style="fill:none;stroke-width:0.7;stroke-linecap:round;stroke-linejoin:miter;stroke-miterlimit:5;stroke:#000000;stroke-opacity:0.4" d="M3.1 -0.25L2.2 -0.25L1.4 -0.6Q1 0.9 -0.95 -0.1L-1 0.4" />
<path style="fill:none;stroke-width:0.7;stroke-linecap:round;stroke-linejoin:miter;stroke-miterlimit:5;stroke:#000000;stroke-opacity:0.4" d="M-1 0.45L-1.2 0.8" />
<path style="fill:none;stroke-width:0.7;stroke-linecap:round;stroke-linejoin:miter;stroke-miterlimit:5;stroke:#000000;stroke-opacity:0.4" d="M-3.2 0.65L-3 0.4Q-2.35 1.15 -1.7 1L-1.2 0.8" />
</g>
</svg>
