<?xml version="1.0" encoding="utf-8"?>
<svg version="1.1" id="Layer_1"
xmlns="http://www.w3.org/2000/svg"
xmlns:xlink="http://www.w3.org/1999/xlink"
width="10px" height="9px"
xml:space="preserve">
<g id="PathID_5931" transform="matrix(1, 0, 0, 1, 5.35, 4.95)">
<path style="fill:#574545;fill-opacity:1" d="M3.5 3.25Q3.25 2.2 2.3 1.6Q3.25 2.2 3.5 3.25L3.4 3.55Q3.25 3.75 2.7 3.75Q2.1 2.6 0.75 1.4L-0.1 0.75Q-2.85 0.4 -3.7 -0.6L-3.8 -0.85Q-4.15 -2.25 -3.5 -3.1Q-2.2 -4 -0.9 -3.7Q0.65 -3.35 2 -1.95L2.3 -1.65L2.8 -1.1L3.15 -0.65L3.6 -0.1Q4.05 0.5 4.2 2.1Q4.55 2.6 3.5 3.25M3.45 0.9L4.2 2.1L3.45 0.9" />
<path style="fill:#413030;fill-opacity:1" d="M-3.7 -0.6Q-2.85 0.4 -0.1 0.75L0.75 1.4Q2.1 2.6 2.7 3.75Q2.05 3.9 1.3 3.3L-1 1.8L-1.6 1.45Q-3.25 0.45 -3.55 -0.15L-3.7 -0.6" />
<path style="fill:none;stroke-width:0.7;stroke-linecap:round;stroke-linejoin:miter;stroke-miterlimit:5;stroke:#000000;stroke-opacity:0.4" d="M4.2 2.1Q4.05 0.5 3.6 -0.1L3.15 -0.65L2.8 -1.1L2.3 -1.65" />
<path style="fill:none;stroke-width:0.7;stroke-linecap:round;stroke-linejoin:miter;stroke-miterlimit:5;stroke:#000000;stroke-opacity:0.4" d="M-3.8 -0.85L-3.7 -0.6" />
<path style="fill:none;stroke-width:0.7;stroke-linecap:round;stroke-linejoin:miter;stroke-miterlimit:5;stroke:#000000;stroke-opacity:0.4" d="M2.7 3.75Q3.25 3.75 3.4 3.55L3.5 3.25Q3.25 2.2 2.3 1.6" />
<path style="fill:none;stroke-width:0.7;stroke-linecap:round;stroke-linejoin:miter;stroke-miterlimit:5;stroke:#000000;stroke-opacity:0.4" d="M2.7 3.75Q2.05 3.9 1.3 3.3L-1 1.8L-1.6 1.45Q-3.25 0.45 -3.55 -0.15L-3.7 -0.6" />
<path style="fill:none;stroke-width:0.7;stroke-linecap:round;stroke-linejoin:miter;stroke-miterlimit:5;stroke:#000000;stroke-opacity:0.4" d="M3.5 3.25Q4.55 2.6 4.2 2.1L3.45 0.9" />
</g>
<g id="PathID_5932" transform="matrix(1, 0, 0, 1, 5.35, 4.95)">
<path style="fill:#FAF8FB;fill-opacity:1" d="M0.15 -0.55L-0.65 -0.65Q-0.5 -0.35 -0.75 0.1Q-0.95 0.65 -1.35 0.65L-2.1 0.35L-2.55 -0.05L-2.85 0.4L-3.55 0.6Q-4.35 0.6 -4.95 0.1L-5.2 -0.05Q-5.05 -1.7 -4.55 -1.9Q-3.65 -3.85 -2.2 -4.35L-0.75 -4.75Q1.3 -5.1 1.3 -3.35L2.25 -2.85Q3 -0.2 0.15 -0.55" />
<path style="fill:#ACA3A4;fill-opacity:1" d="M2.25 -2.85Q2.85 -2.3 2.85 -1.65Q2.9 -0.9 2.4 -0.35Q1.8 0.2 1.2 0.25L0.4 0.05L0.75 0.6Q0.8 1.2 0.3 1.8Q-0.15 2.45 -0.85 2.5Q-1.85 2.5 -2.05 1.55L-3.95 1.35Q-4.7 1.05 -5.2 -0.05L-4.95 0.1Q-4.35 0.6 -3.55 0.6L-2.85 0.4L-2.55 -0.05L-2.1 0.35L-1.35 0.65Q-0.95 0.65 -0.75 0.1Q-0.5 -0.35 -0.65 -0.65L0.15 -0.55Q3 -0.2 2.25 -2.85" />
<path style="fill:none;stroke-width:0.7;stroke-linecap:round;stroke-linejoin:round;stroke-miterlimit:3;stroke:#000000;stroke-opacity:0.4" d="M-0.75 -4.75Q1.3 -5.1 1.3 -3.35L2.25 -2.85Q2.85 -2.3 2.85 -1.65Q2.9 -0.9 2.4 -0.35Q1.8 0.2 1.2 0.25L0.4 0.05L0.75 0.6Q0.8 1.2 0.3 1.8Q-0.15 2.45 -0.85 2.5Q-1.85 2.5 -2.05 1.55L-3.95 1.35Q-4.7 1.05 -5.2 -0.05Q-5.05 -1.7 -4.55 -1.9" />
</g>
</svg>
