<?xml version="1.0" encoding="utf-8"?>
<svg version="1.1" id="Layer_1"
xmlns="http://www.w3.org/2000/svg"
xmlns:xlink="http://www.w3.org/1999/xlink"
width="10px" height="15px"
xml:space="preserve">
<g id="PathID_4617" transform="matrix(1, 0, 0, 1, 0.15, 0.15)">
<path style="fill:#585452;fill-opacity:1" d="M6.2 10.95Q5.25 10.6 4.7 10.1Q2.4 8.3 1.4 6.65L1.35 6.55L1.35 6.5L1.4 6.5L3.9 7.1Q2.65 6.25 1.15 5.95Q0.85 5.35 0.25 2.8Q-0.35 0.35 0.45 0L2.1 1.25L1.55 0.3L2.8 0.2L4.05 1.3L5.15 2.35Q5.25 3.8 5.9 5.25Q5.65 4.2 5.75 3Q8.3 4.35 9.25 7.35Q10.2 10.35 8.15 13.45L8.1 13.2L8.1 13.1L8.1 12.8L7.6 10.5L6.7 8.15Q6.3 6.95 6.4 5.85L6.5 5.3L6.4 5.85Q6.3 6.95 6.7 8.15L7.6 10.5L8.1 12.8Q7.8 11.65 6.2 10.95M4.05 1.3Q3.75 1.9 3.8 2.35Q3.85 3.35 4.45 4.5Q3.75 3.4 2.25 2.2Q3.75 3.4 4.45 4.5Q3.85 3.35 3.8 2.35Q3.75 1.9 4.05 1.3M4.45 4.5L4.65 4.95L5.8 6.6Q4.9 5.5 3.8 5.2Q4.9 5.5 5.8 6.6L4.65 4.95L4.45 4.5M3.9 8L4.45 8.1Q7 8.65 7.6 10.5Q7 8.65 4.45 8.1L3.9 8M5.8 6.6L6.7 8.15L5.8 6.6" />
<path style="fill:none;stroke-width:0.7;stroke-linecap:round;stroke-linejoin:miter;stroke-miterlimit:5;stroke:#000000;stroke-opacity:0.301961" d="M1.35 6.55L1.35 6.5L1.4 6.5L3.9 7.1Q2.65 6.25 1.15 5.95Q0.85 5.35 0.25 2.8Q-0.35 0.35 0.45 0L2.1 1.25L1.55 0.3L2.8 0.2L4.05 1.3L5.15 2.35Q5.25 3.8 5.9 5.25Q5.65 4.2 5.75 3Q8.3 4.35 9.25 7.35Q10.2 10.35 8.15 13.45L8.15 14.4" />
<path style="fill:none;stroke-width:0.7;stroke-linecap:round;stroke-linejoin:miter;stroke-miterlimit:5;stroke:#000000;stroke-opacity:0.301961" d="M6.5 5.3L6.4 5.85Q6.3 6.95 6.7 8.15L7.6 10.5L8.1 12.8L8.1 13.1L8.1 13.2L8.15 13.45" />
<path style="fill:none;stroke-width:0.7;stroke-linecap:round;stroke-linejoin:miter;stroke-miterlimit:5;stroke:#000000;stroke-opacity:0.301961" d="M2.25 2.2Q3.75 3.4 4.45 4.5Q3.85 3.35 3.8 2.35Q3.75 1.9 4.05 1.3" />
<path style="fill:none;stroke-width:0.7;stroke-linecap:round;stroke-linejoin:miter;stroke-miterlimit:5;stroke:#000000;stroke-opacity:0.301961" d="M3.8 5.2Q4.9 5.5 5.8 6.6L4.65 4.95L4.45 4.5" />
<path style="fill:none;stroke-width:0.7;stroke-linecap:round;stroke-linejoin:miter;stroke-miterlimit:5;stroke:#000000;stroke-opacity:0.301961" d="M7.6 10.5Q7 8.65 4.45 8.1L3.9 8" />
<path style="fill:none;stroke-width:0.7;stroke-linecap:round;stroke-linejoin:miter;stroke-miterlimit:5;stroke:#000000;stroke-opacity:0.301961" d="M1.4 6.65Q2.4 8.3 4.7 10.1Q5.25 10.6 6.2 10.95Q7.8 11.65 8.1 12.8" />
<path style="fill:none;stroke-width:0.7;stroke-linecap:round;stroke-linejoin:miter;stroke-miterlimit:5;stroke:#000000;stroke-opacity:0.301961" d="M6.7 8.15L5.8 6.6" />
</g>
</svg>
