<?xml version="1.0" encoding="utf-8"?>
<svg version="1.1" id="Layer_1"
xmlns="http://www.w3.org/2000/svg"
xmlns:xlink="http://www.w3.org/1999/xlink"
width="15px" height="14px"
xml:space="preserve">
<g id="PathID_6155" transform="matrix(1, 0, 0, 1, 7, 6.8)">
<path style="fill:#F7B3C0;fill-opacity:1" d="M5.55 -3.65Q7.9 -0.65 6.55 2.35L5.45 3.75Q4 5.2 0.25 5.1L0.2 5.1Q-6.85 4.05 -6.25 -3.2Q-4.95 -5.8 -2.6 -6.5L0 -6.8Q1.9 -6.7 4.95 -4.35L5.55 -3.65M0.7 1.95L1.25 2Q2.3 2 2.3 0.8Q2.3 0.25 1.5 0.25L0.95 0.4L0.6 0.85L0.55 1.2L0.5 1.45L0.7 1.95M-1.95 -3.45L-3.75 -2.6Q-4.8 -2.05 -4.8 -0.35Q-4.8 0.45 -4.15 0.9Q-3.5 1.3 -2.6 1.3Q-1.8 1.3 -1.45 0.55L-1.05 -0.75L-0.35 -1.55Q0.2 -2.05 0.2 -2.75Q0.2 -3.5 -0.3 -3.55L-1.5 -3.5L-1.95 -3.45" />
<path style="fill:#BF7E8B;fill-opacity:1" d="M6.55 2.4Q6.05 3.95 4.8 5.15Q2.85 7 0.05 6.85Q-2.8 6.7 -4.5 5.15Q-6.2 3.55 -6.5 1.95L-6.85 -0.4Q-6.85 -1.95 -6.25 -3.2Q-6.85 4.05 0.2 5.1L0.25 5.1Q4 5.2 5.45 3.75L6.55 2.35L6.55 2.4" />
<path style="fill:#E193A1;fill-opacity:1" d="M0.5 1.45L0.55 1.2L0.6 0.85L0.95 0.4L1.5 0.25Q2.3 0.25 2.3 0.8Q2.3 2 1.25 2L0.7 1.95L0.5 1.45M-1.5 -3.5L-0.3 -3.55Q0.2 -3.5 0.2 -2.75Q0.2 -2.05 -0.35 -1.55L-1.05 -0.75L-1.45 0.55Q-1.8 1.3 -2.6 1.3Q-3.5 1.3 -4.15 0.9Q-4.8 0.45 -4.8 -0.35Q-4.8 -2.05 -3.75 -2.6L-1.95 -3.45L-1.5 -3.5" />
<path style="fill:none;stroke-width:0.7;stroke-linecap:round;stroke-linejoin:miter;stroke-miterlimit:5;stroke:#46000B;stroke-opacity:0.4" d="M-2.6 -6.5Q-4.95 -5.8 -6.25 -3.2" />
<path style="fill:none;stroke-width:0.7;stroke-linecap:round;stroke-linejoin:miter;stroke-miterlimit:5;stroke:#46000B;stroke-opacity:0.4" d="M6.55 2.35Q7.9 -0.65 5.55 -3.65L4.95 -4.35" />
<path style="fill:none;stroke-width:0.7;stroke-linecap:round;stroke-linejoin:miter;stroke-miterlimit:5;stroke:#46000B;stroke-opacity:0.4" d="M-6.25 -3.2Q-6.85 -1.95 -6.85 -0.4L-6.5 1.95Q-6.2 3.55 -4.5 5.15Q-2.8 6.7 0.05 6.85Q2.85 7 4.8 5.15Q6.05 3.95 6.55 2.4L6.55 2.35" />
</g>
</svg>
