<?xml version="1.0" encoding="utf-8"?>
<svg version="1.1" id="Layer_1"
xmlns="http://www.w3.org/2000/svg"
xmlns:xlink="http://www.w3.org/1999/xlink"
width="17px" height="18px"
xml:space="preserve">
<g id="PathID_5236" transform="matrix(1, 0, 0, 1, 9.1, 9.7)">
<path style="fill:#FFAB64;fill-opacity:1" d="M6.25 4.9L6.05 4.65L6.05 4.75L5.3 4.2Q4.5 3.7 4.4 2.9Q4.25 1.95 5.1 0.35Q5.5 -0.4 5.35 -1.25Q5.15 -2.45 4.05 -3.85L3.85 -3.8L3.15 -4.55Q2.15 -5.3 1.2 -5.7L0.6 -6Q-2.3 -7.1 -4.9 -5.5Q-6.05 -4.85 -7.1 -3.7L-7.15 -3.65L-8.55 -0.7L-8.65 0.15L-8.8 0.25L-8.75 0.15L-8.85 0.1Q-8.9 -1.45 -8.35 -2.8Q-8 -3.95 -7.15 -4.95Q-8.2 -5.55 -8.2 -6.6L-5.4 -6.5L-6.75 -9.45L-5.85 -9.1L-3.95 -8.45L-1.3 -7.8L-0.3 -7.75Q2.5 -7.8 4.9 -5.6L4.95 -5.55Q7.5 -3.3 7.6 0Q7.65 1.65 7.3 3.3L6.8 5L6.25 4.9M3.85 -3.8L3.15 -4.55L4.05 -3.85" />
<path style="fill:#C1A0A1;fill-opacity:1" d="M-8.85 0.1L-8.75 0.15L-8.8 0.25L-8.85 0.35L-8.85 0.1M-4.25 -4.35L-7.15 -3.65L-7.1 -3.7Q-6.05 -4.85 -4.9 -5.5Q-2.3 -7.1 0.6 -6L1.2 -5.7Q2.15 -5.3 3.15 -4.55L3.85 -3.8Q1.45 -4.15 -0.95 -2.35L-1.85 -1.35Q-1.8 -4.65 -4.25 -4.35M4.2 0.55Q4.75 -3.15 1.15 -2.45Q-1.1 -2 -2.6 -0.3L-1.85 -1.35L-0.95 -2.35Q1.45 -4.15 3.85 -3.8L4.05 -3.85Q5.15 -2.45 5.35 -1.25Q5.5 -0.4 5.1 0.35Q4.25 1.95 4.4 2.9Q3.6 1.55 4.2 0.55" />
<path style="fill:#DCCCC7;fill-opacity:1" d="M-8.65 0.15L-8.55 -0.7L-7.15 -3.65L-4.25 -4.35Q-1.8 -4.65 -1.85 -1.35Q-4.2 -2.2 -6.55 -0.8L-8.75 0.85L-8.75 0.8L-8.65 0.15M6.05 4.8L3.4 4.4L3.55 4.6L3 4.35Q2 3.65 2 1.3Q1.1 -0.5 -0.25 -0.7Q-2.5 -1.2 -3.35 2.45Q-3.2 0.85 -2.6 -0.3Q-1.1 -2 1.15 -2.45Q4.75 -3.15 4.2 0.55Q3.6 1.55 4.4 2.9Q4.5 3.7 5.3 4.2L6.05 4.75L6.05 4.8" />
<path style="fill:#F8F0E8;fill-opacity:1" d="M-0.45 7.9L-2.65 7.6L-1.45 4.3L-2.75 5.75L-4.25 5.2L-4.15 5.6L-3.6 6.7L-4 7.1Q-5.15 6.55 -6.2 5.6L-6.25 5.55L-7.35 4.35Q-8.75 2.6 -8.85 0.35L-8.8 0.25L-8.65 0.15L-8.75 0.8L-8.75 0.85L-6.55 -0.8Q-4.2 -2.2 -1.85 -1.35L-2.6 -0.3Q-3.2 0.85 -3.35 2.45L-3.35 4.3L-3.35 2.45Q-2.5 -1.2 -0.25 -0.7Q1.1 -0.5 2 1.3Q2 3.65 3 4.35L3.55 4.6L4.8 6L3.45 5.5L4.2 6.5Q3.05 7.25 1.8 7.6L-0.45 7.9" />
<path style="fill:none;stroke-width:0.7;stroke-linecap:round;stroke-linejoin:miter;stroke-miterlimit:5;stroke:#000000;stroke-opacity:0.301961" d="M6.8 5L7.3 3.3Q7.65 1.65 7.6 0Q7.5 -3.3 4.95 -5.55L4.9 -5.6Q2.5 -7.8 -0.3 -7.75L-1.3 -7.8L-3.95 -8.45L-5.85 -9.1L-6.75 -9.45L-5.4 -6.5L-8.2 -6.6Q-8.2 -5.55 -7.15 -4.95Q-8 -3.95 -8.35 -2.8Q-8.9 -1.45 -8.85 0.1" />
<path style="fill:none;stroke-width:0.7;stroke-linecap:round;stroke-linejoin:miter;stroke-miterlimit:5;stroke:#000000;stroke-opacity:0.301961" d="M-4.9 -5.5Q-2.3 -7.1 0.6 -6L1.2 -5.7Q2.15 -5.3 3.15 -4.55L4.05 -3.85Q5.15 -2.45 5.35 -1.25Q5.5 -0.4 5.1 0.35Q4.25 1.95 4.4 2.9Q4.5 3.7 5.3 4.2" />
<path style="fill:none;stroke-width:0.7;stroke-linecap:round;stroke-linejoin:miter;stroke-miterlimit:5;stroke:#000000;stroke-opacity:0.2" d="M3.85 -3.8L4.05 -3.85" />
<path style="fill:none;stroke-width:0.7;stroke-linecap:round;stroke-linejoin:miter;stroke-miterlimit:5;stroke:#000000;stroke-opacity:0.2" d="M3.85 -3.8Q1.45 -4.15 -0.95 -2.35L-1.85 -1.35L-2.6 -0.3" />
<path style="fill:none;stroke-width:0.7;stroke-linecap:round;stroke-linejoin:miter;stroke-miterlimit:5;stroke:#000000;stroke-opacity:0.2" d="M-3.35 2.45L-3.35 4.3" />
<path style="fill:none;stroke-width:0.7;stroke-linecap:round;stroke-linejoin:miter;stroke-miterlimit:5;stroke:#000000;stroke-opacity:0.301961" d="M-8.85 0.35Q-8.75 2.6 -7.35 4.35L-6.25 5.55L-6.2 5.6Q-5.15 6.55 -4 7.1L-3.6 6.7L-4.15 5.6L-4.25 5.2L-2.75 5.75L-1.45 4.3L-2.65 7.6L-0.45 7.9L1.8 7.6" />
<path style="fill:none;stroke-width:0.7;stroke-linecap:round;stroke-linejoin:miter;stroke-miterlimit:5;stroke:#000000;stroke-opacity:0.301961" d="M-8.85 0.1L-8.85 0.35" />
<path style="fill:none;stroke-width:0.7;stroke-linecap:round;stroke-linejoin:miter;stroke-miterlimit:5;stroke:#000000;stroke-opacity:0.2" d="M-2.6 -0.3Q-3.2 0.85 -3.35 2.45" />
</g>
</svg>
