<?xml version="1.0" encoding="utf-8"?>
<svg version="1.1" id="Layer_1"
xmlns="http://www.w3.org/2000/svg"
xmlns:xlink="http://www.w3.org/1999/xlink"
width="11px" height="5px"
xml:space="preserve">
<g id="PathID_6020" transform="matrix(1, 0, 0, 1, 4.6, 1.9)">
<path style="fill:#242321;fill-opacity:1" d="M3.35 -0.95Q3.9 -0.4 3.65 -0.2L2.75 -0.8L3.35 -0.95M4.1 1.05Q4.1 1.45 3.2 1.65Q3.55 1.1 3.25 0.65Q2.85 0.3 1.5 0.35Q2.85 0.65 2.85 1.35Q0.85 1.65 0.55 0.8Q1.1 -0.25 2.75 -0.8L3.65 -0.2Q4.55 0.2 4.1 1.05" />
<path style="fill:#100F0E;fill-opacity:1" d="M3.35 -0.95L3.85 -0.65L2.75 -0.8Q1.1 -0.25 0.55 0.8Q0.85 1.65 2.85 1.35L2.75 1.7Q2.85 0.65 1.5 0.35Q2.85 0.3 3.25 0.65Q3.55 1.1 3.2 1.65L2.75 1.7L2.85 1.35L1.95 1.9L-0.65 1.55L-3 0.65Q-3.75 0.3 -4.5 0.1Q-4.75 -0.45 -4.45 -0.95Q-4.15 -1.55 -2.55 -1.8L0.25 -1.65L3.35 -0.95M3.85 -0.65Q4.9 0 4.5 0.7L4.1 1.05Q4.55 0.2 3.65 -0.2Q3.9 -0.4 3.35 -0.95" />
<path style="fill:none;stroke-width:0.7;stroke-linecap:round;stroke-linejoin:round;stroke-miterlimit:3;stroke:#000000;stroke-opacity:0.301961" d="M3.65 -0.2L2.75 -0.8" />
<path style="fill:none;stroke-width:0.7;stroke-linecap:round;stroke-linejoin:round;stroke-miterlimit:3;stroke:#000000;stroke-opacity:0.301961" d="M2.85 1.35Q2.85 0.65 1.5 0.35" />
<path style="fill:none;stroke-width:0.7;stroke-linecap:round;stroke-linejoin:round;stroke-miterlimit:3;stroke:#000000;stroke-opacity:0.301961" d="M3.2 1.65Q4.1 1.45 4.1 1.05Q4.55 0.2 3.65 -0.2" />
<path style="fill:none;stroke-width:0.7;stroke-linecap:round;stroke-linejoin:round;stroke-miterlimit:3;stroke:#000000;stroke-opacity:0.301961" d="M3.2 1.65L2.75 1.7L1.95 1.9L-0.65 1.55L-3 0.65Q-3.75 0.3 -4.5 0.1Q-4.75 -0.45 -4.45 -0.95Q-4.15 -1.55 -2.55 -1.8L0.25 -1.65L3.35 -0.95L3.85 -0.65Q4.9 0 4.5 0.7L4.1 1.05" />
<path style="fill:none;stroke-width:0.7;stroke-linecap:round;stroke-linejoin:round;stroke-miterlimit:3;stroke:#000000;stroke-opacity:0.301961" d="M2.85 1.35L2.75 1.7" />
</g>
<g id="PathID_6021" transform="matrix(1, 0, 0, 1, 4.6, 1.9)">
<path style="fill:#EBE3D8;fill-opacity:1" d="M3.3 0.4Q2.9 -0.4 3.15 -0.8Q5 -0.65 5.5 1L3.3 0.4" />
<path style="fill:none;stroke-width:0.7;stroke-linecap:round;stroke-linejoin:round;stroke-miterlimit:3;stroke:#000000;stroke-opacity:0.4" d="M5.5 1Q5 -0.65 3.15 -0.8Q2.9 -0.4 3.3 0.4L5.5 1z" />
</g>
<g id="PathID_6022" transform="matrix(1, 0, 0, 1, 4.6, 1.9)">
<path style="fill:#EBE3D8;fill-opacity:1" d="M3.65 -0.1Q4.8 0.2 4.95 1.85L2.6 1.15Q2.4 0.5 2.35 -0.35L3.65 -0.1" />
<path style="fill:none;stroke-width:0.7;stroke-linecap:round;stroke-linejoin:round;stroke-miterlimit:3;stroke:#000000;stroke-opacity:0.4" d="M2.35 -0.35Q2.4 0.5 2.6 1.15L4.95 1.85Q4.8 0.2 3.65 -0.1L2.35 -0.35z" />
</g>
<g id="PathID_6023" transform="matrix(1, 0, 0, 1, 4.6, 1.9)">
<path style="fill:#EBE3D8;fill-opacity:1" d="M3.45 2.15L1.3 1.7Q0.75 0.55 1.25 0.45Q2.15 0.25 2.8 0.7Q3.5 1.2 3.45 2.15" />
<path style="fill:none;stroke-width:0.7;stroke-linecap:round;stroke-linejoin:round;stroke-miterlimit:3;stroke:#000000;stroke-opacity:0.4" d="M2.8 0.7Q2.15 0.25 1.25 0.45Q0.75 0.55 1.3 1.7L3.45 2.15Q3.5 1.2 2.8 0.7z" />
</g>
</svg>
