<?xml version="1.0" encoding="utf-8"?>
<svg version="1.1" id="Layer_1"
xmlns="http://www.w3.org/2000/svg"
xmlns:xlink="http://www.w3.org/1999/xlink"
width="22px" height="21px"
xml:space="preserve">
<g id="PathID_5218" transform="matrix(1, 0, 0, 1, 9.55, 9.8)">
<linearGradient
id="LinearGradID_1296" gradientUnits="userSpaceOnUse" gradientTransform="matrix(0.00352478, -0.00012207, 0.000366211, 0.0103455, 1.2, -15.9)" spreadMethod ="pad" x1="-819.2" y1="0" x2="819.2" y2="0" >
<stop  offset="0" style="stop-color:#8D481B;stop-opacity:1" />
<stop  offset="1" style="stop-color:#E48936;stop-opacity:1" />
</linearGradient>
<path style="fill:url(#LinearGradID_1296) " d="M1.4 -3.5Q-1.3 -0.35 -2.2 7.2L-3.85 6.8Q-10.95 3.7 -7.85 -2.15L-7.15 -2.85L-7.1 -2.9L-5.7 -4.2L-5.6 -4.3L-5 -4.9L-4.9 -5L-4 -5.75L-2.1 -7.3L0.2 -9.15L4.1 -9.8Q5.4 -9.85 6.25 -9.4L1.4 -3.5" />
<linearGradient
id="LinearGradID_1297" gradientUnits="userSpaceOnUse" gradientTransform="matrix(0.00338745, -0.0068512, 0.0105743, 0.00521851, 0.5, 1.7)" spreadMethod ="pad" x1="-819.2" y1="0" x2="819.2" y2="0" >
<stop  offset="0" style="stop-color:#F04B48;stop-opacity:1" />
<stop  offset="1" style="stop-color:#FBA184;stop-opacity:1" />
</linearGradient>
<path style="fill:url(#LinearGradID_1297) " d="M-2.2 7.2Q6.45 8.65 7.9 -2.3Q8.1 -5.4 6.7 -9.15Q7.5 -8.55 8.6 -6.35L9.05 -5.35L12.1 -5.25Q10.5 -3.8 9.7 -3.8Q10.75 -3.4 10.85 -2.55L9.35 -2.75L9.35 -2.4L9.3 -2L9.25 -1.55L8.65 4.05Q8.5 7.05 5.45 8.75Q2.4 10.45 -1.15 10.15L-3.2 9.75L-2.2 7.2" />
<linearGradient
id="LinearGradID_1298" gradientUnits="userSpaceOnUse" gradientTransform="matrix(0.0030365, -0.00534058, 0.00886536, 0.0050354, 0.1, 2.15)" spreadMethod ="pad" x1="-819.2" y1="0" x2="819.2" y2="0" >
<stop  offset="0" style="stop-color:#F04B48;stop-opacity:1" />
<stop  offset="1" style="stop-color:#FDDBB8;stop-opacity:1" />
</linearGradient>
<path style="fill:url(#LinearGradID_1298) " d="M6.25 -9.4L6.7 -9.15Q8.1 -5.4 7.9 -2.3Q6.45 8.65 -2.2 7.2Q-1.3 -0.35 1.4 -3.5L6.25 -9.4" />
<path style="fill:#552710;fill-opacity:1" d="M-2.2 7.2L-3.2 9.75Q-5.5 9.05 -7.2 7.25Q-9.65 4.65 -9.4 1.9Q-9.25 0.05 -7.85 -2.15Q-10.95 3.7 -3.85 6.8L-2.2 7.2" />
<path style="fill:none;stroke-width:0.7;stroke-linecap:round;stroke-linejoin:miter;stroke-miterlimit:5;stroke:#000000;stroke-opacity:0.4" d="M-3.2 9.75L-1.15 10.15Q2.4 10.45 5.45 8.75Q8.5 7.05 8.65 4.05L9.25 -1.55L9.3 -2L9.35 -2.4L9.35 -2.75L10.85 -2.55Q10.75 -3.4 9.7 -3.8Q10.5 -3.8 12.1 -5.25L9.05 -5.35L8.6 -6.35Q7.5 -8.55 6.7 -9.15" />
<path style="fill:none;stroke-width:0.7;stroke-linecap:round;stroke-linejoin:miter;stroke-miterlimit:5;stroke:#000000;stroke-opacity:0.4" d="M-3.2 9.75Q-5.5 9.05 -7.2 7.25Q-9.65 4.65 -9.4 1.9Q-9.25 0.05 -7.85 -2.15L-7.15 -2.85" />
<path style="fill:none;stroke-width:0.7;stroke-linecap:round;stroke-linejoin:miter;stroke-miterlimit:5;stroke:#000000;stroke-opacity:0.4" d="M-7.1 -2.9L-5.7 -4.2L-5.6 -4.3L-5 -4.9L-4.9 -5L-4 -5.75L-2.1 -7.3L0.2 -9.15" />
</g>
<g id="PathID_5219" transform="matrix(1, 0, 0, 1, 9.55, 9.8)">
<radialGradient
id="RadialGradID_1299" gradientUnits="userSpaceOnUse" gradientTransform="matrix(0.0145569, -0.00622559, 0.00152588, 0.00358582, -0.1, -5.55)" spreadMethod ="pad" cx="0" cy="0" r="819.2" fx="0" fy="0" >
<stop  offset="0.380392"  style="stop-color:#622305;stop-opacity:0" />
<stop  offset="0.843137"  style="stop-color:#622305;stop-opacity:1" />
</radialGradient>
<path style="fill:url(#RadialGradID_1299) " d="M6.55 -9.2Q1.3 -7.45 -6.4 -3.6L-2.1 -7.3L0.2 -9.15Q4.8 -10.45 6.55 -9.2" />
</g>
<g id="PathID_5220" transform="matrix(1, 0, 0, 1, 9.55, 9.8)">
<radialGradient
id="RadialGradID_1300" gradientUnits="userSpaceOnUse" gradientTransform="matrix(0.00868225, 0, 0, 0.00868225, -3.6, 1.05)" spreadMethod ="pad" cx="0" cy="0" r="819.2" fx="0" fy="0" >
<stop  offset="0.615686"  style="stop-color:#E0852A;stop-opacity:0.988235" />
<stop  offset="0.862745"  style="stop-color:#D17C27;stop-opacity:0" />
</radialGradient>
<path style="fill:url(#RadialGradID_1300) " d="M-3.35 -6.05Q-0.5 -5.95 1.6 -4Q3.85 -1.9 3.85 1.1Q3.85 4.05 1.6 6.15Q-0.65 8.25 -3.85 8.25Q-6.3 8.25 -8.15 7Q-10.95 2 -8.1 -2L-3.35 -6.05" />
</g>
</svg>
