<?xml version="1.0" encoding="utf-8"?>
<svg version="1.1" id="Layer_1"
xmlns="http://www.w3.org/2000/svg"
xmlns:xlink="http://www.w3.org/1999/xlink"
width="6px" height="14px"
xml:space="preserve">
<g id="PathID_5528" transform="matrix(1, 0, 0, 1, 3.5, 9.55)">
<path style="fill:#C3BCAC;fill-opacity:1" d="M1.25 -3.65L0.7 -3.05L-0.1 -3.9L-0.75 -2.75L-0.8 -2.85L-1.25 -3.7L-1.3 -3.65L-1.45 -2.75L-2.2 -3.1L-2.8 -3.7L-2.8 -3.8Q-3.15 -5.2 -2.35 -7.35Q-1.9 -5.85 -1.1 -5.5Q-2.05 -7.2 -0.5 -9.4L0.65 -6.7L1.3 -3.7L1.25 -3.65" />
<path style="fill:#AB8E70;fill-opacity:1" d="M-2.8 -3.7L-2.2 -3.1L-1.45 -2.75L-1.3 -3.65L-1.25 -3.7L-0.8 -2.85L-0.75 -2.75L-0.1 -3.9L0.7 -3.05L1.25 -3.65L1.3 -3.7Q1.8 0.05 0.9 3.9L-1.2 3.85Q-3.75 1.05 -3.25 -3.05Q-2.8 -2.6 -1.8 -2.35Q-2.65 -2.8 -2.8 -3.7" />
<path style="fill:none;stroke-width:0.7;stroke-linecap:round;stroke-linejoin:round;stroke-miterlimit:3;stroke:#000000;stroke-opacity:0.301961" d="M1.3 -3.7L0.65 -6.7L-0.5 -9.4Q-2.05 -7.2 -1.1 -5.5Q-1.9 -5.85 -2.35 -7.35Q-3.15 -5.2 -2.8 -3.8L-2.8 -3.7" />
<path style="fill:none;stroke-width:0.7;stroke-linecap:round;stroke-linejoin:round;stroke-miterlimit:3;stroke:#000000;stroke-opacity:0.301961" d="M1.3 -3.7Q1.8 0.05 0.9 3.9L-1.2 3.85Q-3.75 1.05 -3.25 -3.05Q-2.8 -2.6 -1.8 -2.35Q-2.65 -2.8 -2.8 -3.7" />
</g>
</svg>
