<?xml version="1.0" encoding="utf-8"?>
<svg version="1.1" id="Layer_1"
xmlns="http://www.w3.org/2000/svg"
xmlns:xlink="http://www.w3.org/1999/xlink"
width="11px" height="8px"
xml:space="preserve">
<g id="PathID_4749" transform="matrix(1, 0, 0, 1, 2.55, 4.25)">
<path style="fill:#F7A1B7;fill-opacity:1" d="M7.1 1.65L6.35 2.35L4.85 3L2.3 2.85L-0.15 1.15L-1.8 -0.25L-2.4 -1.2Q-2.8 -2.8 -1.9 -3.65Q-1.1 -4.5 0.5 -4.1Q2.05 -3.7 2.65 -2.7L3.7 -0.85Q4.05 -0.3 4.7 0.05L5.3 0.35L6.15 0.65Q6.95 0.8 7.05 1.2L7.1 1.65M3.7 1.75Q5.55 0.9 6.35 2.35Q5.55 0.9 3.7 1.75" />
<path style="fill:#F7AEC3;fill-opacity:1" d="M7.05 1.2Q6.95 0.8 6.15 0.65L5.3 0.35Q8.4 0.3 7.1 1.65L7.05 1.2" />
<path style="fill:none;stroke-width:0.7;stroke-linecap:round;stroke-linejoin:round;stroke-miterlimit:3;stroke:#000000;stroke-opacity:0.4" d="M3.7 -0.85Q4.05 -0.3 4.7 0.05L5.3 0.35Q8.4 0.3 7.1 1.65L6.35 2.35L4.85 3L2.3 2.85L-0.15 1.15L-1.8 -0.25L-2.4 -1.2" />
<path style="fill:none;stroke-width:0.7;stroke-linecap:round;stroke-linejoin:round;stroke-miterlimit:3;stroke:#000000;stroke-opacity:0.4" d="M5.3 0.35L6.15 0.65Q6.95 0.8 7.05 1.2L7.1 1.65" />
<path style="fill:none;stroke-width:0.7;stroke-linecap:round;stroke-linejoin:round;stroke-miterlimit:3;stroke:#000000;stroke-opacity:0.4" d="M6.35 2.35Q5.55 0.9 3.7 1.75" />
</g>
</svg>
