<?xml version="1.0" encoding="utf-8"?>
<svg version="1.1" id="Layer_1"
xmlns="http://www.w3.org/2000/svg"
xmlns:xlink="http://www.w3.org/1999/xlink"
width="13px" height="8px"
xml:space="preserve">
<g id="PathID_4943" transform="matrix(1, 0, 0, 1, 7.65, 3.9)">
<linearGradient
id="LinearGradID_1129" gradientUnits="userSpaceOnUse" gradientTransform="matrix(0.00276184, 0.00350952, -0.00334167, 0.00262451, 1.6, -0.45)" spreadMethod ="pad" x1="-819.2" y1="0" x2="819.2" y2="0" >
<stop  offset="0" style="stop-color:#E85109;stop-opacity:1" />
<stop  offset="0.368627" style="stop-color:#FE7903;stop-opacity:1" />
<stop  offset="1" style="stop-color:#FFE802;stop-opacity:1" />
</linearGradient>
<path style="fill:url(#LinearGradID_1129) " d="M-1.6 1.05L-0.8 1.15L-1.6 1.05L-2.35 0.95L-2.85 0.6L-2.3 0.25L-1.85 0.1L-2.65 -0.2L-3.8 -0.85L-3.8 -0.95Q-3.75 -1.2 -2.75 -1.25L-2.2 -1.3L-2.75 -1.25Q-3.6 -1.85 -3.3 -2.2L-3.15 -2.35L-2.6 -2.55L-2.1 -2.6L-2.6 -2.55Q-3.3 -3.4 -4.25 -3.4L-2.65 -3.55L-0.9 -3.7Q0.65 -3.35 2 -1.95L2.3 -1.65L2.8 -1.1L3.6 -0.1Q4.05 0.5 4.2 2.1L3.45 0.9L4.2 2.1Q4.55 2.6 3.5 3.25L3.25 2.6L0.1 2.5L-0.6 2.05Q-3.5 2.6 -6.9 1.25L-6.4 1.2Q-3.85 1.6 -1.95 1.2L-1.6 1.05M2.3 1.6L3.25 2.6L2.3 1.6" />
<path style="fill:#EE8F00;fill-opacity:1" d="M3.25 2.6L3.5 3.25L3.4 3.55Q3.25 3.75 2.7 3.75Q2.05 3.9 1.3 3.3L0.1 2.5L3.25 2.6" />
<linearGradient
id="LinearGradID_1130" gradientUnits="userSpaceOnUse" gradientTransform="matrix(0.00332642, 0, 0, 0.0010376, -5.5, -0.4)" spreadMethod ="pad" x1="-819.2" y1="0" x2="819.2" y2="0" >
<stop  offset="0" style="stop-color:#FA0E01;stop-opacity:1" />
<stop  offset="1" style="stop-color:#6F0A25;stop-opacity:1" />
</linearGradient>
<path style="fill:url(#LinearGradID_1130) " d="M-2.9 0.65Q-5.25 0.65 -7.3 -0.95L-6.8 -1.05Q-3.95 0.3 -2.65 -0.2L-1.85 0.1L-2.3 0.25L-2.85 0.6L-2.9 0.65" />
<linearGradient
id="LinearGradID_1131" gradientUnits="userSpaceOnUse" gradientTransform="matrix(0.00242615, 0, 0, 0.00177002, -5.95, -1.65)" spreadMethod ="pad" x1="-819.2" y1="0" x2="819.2" y2="0" >
<stop  offset="0" style="stop-color:#FF550F;stop-opacity:1" />
<stop  offset="1" style="stop-color:#A73B34;stop-opacity:1" />
</linearGradient>
<path style="fill:url(#LinearGradID_1131) " d="M-3.8 -0.95L-3.8 -0.85L-2.65 -0.2Q-3.95 0.3 -6.8 -1.05L-5.55 -1.3L-3.9 -1.55Q-6.3 -1.7 -6.35 -2.05Q-6.4 -2.35 -5.85 -2.65L-4.8 -2.95Q-4.45 -2.25 -3.3 -2.2Q-3.6 -1.85 -2.75 -1.25Q-3.75 -1.2 -3.8 -0.95" />
<linearGradient
id="LinearGradID_1132" gradientUnits="userSpaceOnUse" gradientTransform="matrix(0.00100708, 0, 0, 0.000457764, -4.3, -2.75)" spreadMethod ="pad" x1="-819.2" y1="0" x2="819.2" y2="0" >
<stop  offset="0" style="stop-color:#FA0E01;stop-opacity:1" />
<stop  offset="1" style="stop-color:#6F0A25;stop-opacity:1" />
</linearGradient>
<path style="fill:url(#LinearGradID_1132) " d="M-3.15 -2.35L-3.3 -2.2Q-4.45 -2.25 -4.8 -2.95L-4.6 -2.95L-3.7 -2.75Q-3.35 -2.6 -3.15 -2.35" />
<path style="fill:#FF0F01;fill-opacity:1" d="M-3.7 -2.75L-4.6 -2.95L-4.25 -3.4Q-3.3 -3.4 -2.6 -2.55L-3.15 -2.35Q-3.35 -2.6 -3.7 -2.75M-2.35 0.95L-1.6 1.05L-1.95 1.2Q-3.85 1.6 -6.4 1.2L-2.9 0.7L-2.35 0.95" />
<path style="fill:none;stroke-width:0.7;stroke-linecap:round;stroke-linejoin:miter;stroke-miterlimit:5;stroke:#260000;stroke-opacity:0.4" d="M4.2 2.1Q4.05 0.5 3.6 -0.1L2.8 -1.1L2.3 -1.65" />
<path style="fill:none;stroke-width:0.7;stroke-linecap:round;stroke-linejoin:miter;stroke-miterlimit:5;stroke:#260000;stroke-opacity:0.4" d="M-2.65 -3.55L-4.25 -3.4" />
<path style="fill:none;stroke-width:0.7;stroke-linecap:round;stroke-linejoin:miter;stroke-miterlimit:5;stroke:#260000;stroke-opacity:0.4" d="M-2.6 -2.55L-2.1 -2.6" />
<path style="fill:none;stroke-width:0.7;stroke-linecap:round;stroke-linejoin:miter;stroke-miterlimit:5;stroke:#260000;stroke-opacity:0.4" d="M4.2 2.1L3.45 0.9" />
<path style="fill:none;stroke-width:0.7;stroke-linecap:round;stroke-linejoin:miter;stroke-miterlimit:5;stroke:#260000;stroke-opacity:0.4" d="M0.1 2.5L1.3 3.3Q2.05 3.9 2.7 3.75Q3.25 3.75 3.4 3.55L3.5 3.25L3.25 2.6" />
<path style="fill:none;stroke-width:0.7;stroke-linecap:round;stroke-linejoin:miter;stroke-miterlimit:5;stroke:#260000;stroke-opacity:0.4" d="M0.1 2.5L-0.6 2.05Q-3.5 2.6 -6.9 1.25L-6.4 1.2L-2.9 0.7L-2.9 0.65Q-5.25 0.65 -7.3 -0.95L-6.8 -1.05L-5.55 -1.3L-3.9 -1.55Q-6.3 -1.7 -6.35 -2.05Q-6.4 -2.35 -5.85 -2.65L-4.8 -2.95L-4.6 -2.95L-4.25 -3.4" />
<path style="fill:none;stroke-width:0.7;stroke-linecap:round;stroke-linejoin:miter;stroke-miterlimit:5;stroke:#260000;stroke-opacity:0.4" d="M3.5 3.25Q4.55 2.6 4.2 2.1" />
<path style="fill:none;stroke-width:0.7;stroke-linecap:round;stroke-linejoin:miter;stroke-miterlimit:5;stroke:#260000;stroke-opacity:0.4" d="M3.25 2.6L2.3 1.6" />
<path style="fill:none;stroke-width:0.7;stroke-linecap:round;stroke-linejoin:miter;stroke-miterlimit:5;stroke:#260000;stroke-opacity:0.4" d="M-3.15 -2.35L-3.3 -2.2Q-3.6 -1.85 -2.75 -1.25L-2.2 -1.3" />
<path style="fill:none;stroke-width:0.7;stroke-linecap:round;stroke-linejoin:miter;stroke-miterlimit:5;stroke:#260000;stroke-opacity:0.4" d="M-3.15 -2.35L-2.6 -2.55" />
<path style="fill:none;stroke-width:0.7;stroke-linecap:round;stroke-linejoin:miter;stroke-miterlimit:5;stroke:#260000;stroke-opacity:0.4" d="M-4.6 -2.95L-3.7 -2.75Q-3.35 -2.6 -3.15 -2.35" />
<path style="fill:none;stroke-width:0.7;stroke-linecap:round;stroke-linejoin:miter;stroke-miterlimit:5;stroke:#260000;stroke-opacity:0.4" d="M-2.65 -0.2L-3.8 -0.85L-3.8 -0.95Q-3.75 -1.2 -2.75 -1.25" />
<path style="fill:none;stroke-width:0.7;stroke-linecap:round;stroke-linejoin:miter;stroke-miterlimit:5;stroke:#260000;stroke-opacity:0.4" d="M-2.65 -0.2L-1.85 0.1L-2.3 0.25L-2.85 0.6" />
<path style="fill:none;stroke-width:0.7;stroke-linecap:round;stroke-linejoin:miter;stroke-miterlimit:5;stroke:#260000;stroke-opacity:0.4" d="M-2.35 0.95L-1.6 1.05L-0.8 1.15" />
<path style="fill:none;stroke-width:0.7;stroke-linecap:round;stroke-linejoin:miter;stroke-miterlimit:5;stroke:#260000;stroke-opacity:0.4" d="M-2.9 0.65L-2.85 0.6" />
<path style="fill:none;stroke-width:0.7;stroke-linecap:round;stroke-linejoin:miter;stroke-miterlimit:5;stroke:#260000;stroke-opacity:0.4" d="M-2.35 0.95L-2.9 0.7" />
</g>
</svg>
