<?xml version="1.0" encoding="utf-8"?>
<svg version="1.1" id="Layer_1"
xmlns="http://www.w3.org/2000/svg"
xmlns:xlink="http://www.w3.org/1999/xlink"
width="4px" height="20px"
xml:space="preserve">
<g id="PathID_5146" transform="matrix(1, 0, 0, 1, 2.45, 11.15)">
<path style="fill:#9272B3;fill-opacity:1" d="M0.45 -8.2L0.95 -5.55Q1.35 -3.3 1.1 4.55L1.1 4.65L1.1 4.8L0.4 7.6L0 7.85L-0.95 6.55L-1.75 4.55L-1.9 3.7L-1.75 2.65L-1.25 -1.8L-0.75 -5.65L-0.6 -7.4L-0.65 -7.6Q0 -7.4 0.45 -8.2" />
<path style="fill:#B197C2;fill-opacity:1" d="M-0.65 -7.6L-1.4 -8.25Q-2.25 -8.65 -2.3 -9.4Q-2.35 -10.1 -1.85 -10.7Q-1.1 -11.6 -0.15 -10L0.45 -8.2Q0 -7.4 -0.65 -7.6" />
<path style="fill:none;stroke-width:0.7;stroke-linecap:round;stroke-linejoin:round;stroke-miterlimit:3;stroke:#230038;stroke-opacity:0.301961" d="M0.45 -8.2L0.95 -5.55Q1.35 -3.3 1.1 4.55L1.1 4.65L1.1 4.8L0.4 7.6L0 7.85L-0.95 6.55L-1.75 4.55L-1.9 3.7L-1.75 2.65L-1.25 -1.8L-0.75 -5.65L-0.6 -7.4L-0.65 -7.6L-1.4 -8.25Q-2.25 -8.65 -2.3 -9.4Q-2.35 -10.1 -1.85 -10.7Q-1.1 -11.6 -0.15 -10L0.45 -8.2z" />
<path style="fill:none;stroke-width:0.7;stroke-linecap:round;stroke-linejoin:miter;stroke-miterlimit:5;stroke:#230038;stroke-opacity:0.301961" d="M0.45 -8.2Q0 -7.4 -0.65 -7.6" />
</g>
</svg>
