<?xml version="1.0" encoding="utf-8"?>
<svg version="1.1" id="Layer_1"
xmlns="http://www.w3.org/2000/svg"
xmlns:xlink="http://www.w3.org/1999/xlink"
width="25px" height="26px"
xml:space="preserve">
<g id="PathID_5536" transform="matrix(1, 0, 0, 1, 12.35, 13.15)">
<radialGradient
id="RadialGradID_1371" gradientUnits="userSpaceOnUse" gradientTransform="matrix(0.0192108, 0, 0, 0.0192108, -3.05, -12.55)" spreadMethod ="pad" cx="0" cy="0" r="819.2" fx="0" fy="0" >
<stop  offset="0.333333"  style="stop-color:#724F65;stop-opacity:1" />
<stop  offset="1"  style="stop-color:#E67A89;stop-opacity:1" />
</radialGradient>
<path style="fill:url(#RadialGradID_1371) " d="M10.05 -0.75L9.85 0.05Q7.65 -1.45 7.1 -3.95Q5.75 -6.55 3.6 -7.25Q5.2 -7.55 4.95 -7.95L2.6 -8.15Q5.4 -9.2 4.35 -9.6Q3.3 -10 1.85 -9.6Q4.4 -11.85 1.6 -11.25Q-1.2 -10.7 -2.25 -9.25Q-1.95 -10.65 -2.4 -10.9Q-3.5 -10.45 -4.25 -7.65L-5.5 -6.95L-5.05 -7.8L-3.9 -10.45Q-3.65 -11.25 -2.6 -12.15Q-1.6 -13 -1.05 -13Q-0.55 -13 -0.55 -12.55L-1.15 -11Q-0.4 -11.95 1.55 -12.55L4.65 -12.9Q5.6 -12.8 5.7 -12.4Q5.75 -12 4.95 -11.35L3.75 -10.55L5.6 -10.7Q7.6 -10.7 7.5 -10Q7.45 -9.1 5.35 -8.55Q7.35 -8.75 7.6 -8.05L7.35 -7.6L7.05 -7.4L5.6 -7.3Q8.35 -6.55 9.15 -4.1L9.95 -2.4L11 -1.45L11.9 -0.7L10.05 -0.75M5.6 -7.3L7.05 -7.4" />
<path style="fill:#E67A89;fill-opacity:1" d="M-8.2 -1.6Q-7.2 -5 -6.15 -6.2L-5.5 -6.95L-4.25 -7.65Q-3.5 -10.45 -2.4 -10.9Q-1.95 -10.65 -2.25 -9.25Q-1.2 -10.7 1.6 -11.25Q4.4 -11.85 1.85 -9.6Q3.3 -10 4.35 -9.6Q5.4 -9.2 2.6 -8.15L4.95 -7.95Q5.2 -7.55 3.6 -7.25Q5.75 -6.55 7.1 -3.95Q7.65 -1.45 9.85 0.05L9.45 0.7Q8.8 1.45 7.95 1.45Q7.6 1.45 7.1 1.05Q7.15 1.55 6.5 2.15Q5.85 2.75 5.05 2.75L4.3 2.2L3.8 1.6Q3.5 3.3 2.15 3.6Q0.75 3.85 -0.25 2.25Q-1 3.45 -2.25 3.25Q-3.55 3 -4.15 2.15Q-4.75 1.3 -4.35 0.25Q-5.35 1.55 -6.15 0.85Q-7 0.1 -6.35 -1.5L-6.6 -1.3L-7.2 -1.15Q-7.65 -1.15 -8.2 -1.6" />
<path style="fill:#FFFBE2;fill-opacity:1" d="M-7.2 -1.15L-6.6 -1.3L-6.35 -1.5Q-7 0.1 -6.15 0.85Q-5.35 1.55 -4.35 0.25Q-4.75 1.3 -4.15 2.15Q-3.55 3 -2.25 3.25Q-1 3.45 -0.25 2.25Q0.75 3.85 2.15 3.6Q3.5 3.3 3.8 1.6L4.3 2.2L5.05 2.75Q5.85 2.75 6.5 2.15Q7.15 1.55 7.1 1.05Q7.6 1.45 7.95 1.45Q8.8 1.45 9.45 0.7L9.85 0.05L10.05 -0.75L11.9 -0.7L10.65 1.3Q9.9 2.55 3.9 4.45Q-2.1 6.3 -5.35 3.15Q-8.35 0.25 -8.3 -1.15L-8.2 -1.6Q-7.65 -1.15 -7.2 -1.15" />
<path style="fill:#CFC9B3;fill-opacity:1" d="M-5.35 3.15Q-2.1 6.3 3.9 4.45Q9.9 2.55 10.65 1.3L11.9 -0.7Q12.2 -0.25 12.1 0.7Q12 2.95 8.7 5.1Q5.35 7.25 3.75 7.45L1.05 7.3L-2.1 6.7L-4.8 6.2L-6.05 5.5Q-8.45 6.15 -9.05 5.15Q-9.65 4.2 -8.4 3.6L-8.15 3.5Q-10.05 4.25 -10.45 3.3Q-10.8 2.5 -9.15 1.35L-8.45 0.85L-9.95 1.4Q-11 1.4 -11 0.95Q-11 0.45 -10.05 -0.05L-8.35 -0.7L-8.3 -1.15Q-8.35 0.25 -5.35 3.15M-8.45 0.85L-9.15 1.35M-8.15 3.5L-8.4 3.6" />
<path style="fill:none;stroke-width:0.7;stroke-linecap:round;stroke-linejoin:miter;stroke-miterlimit:5;stroke:#000000;stroke-opacity:0.301961" d="M-5.5 -6.95L-5.05 -7.8L-3.9 -10.45Q-3.65 -11.25 -2.6 -12.15Q-1.6 -13 -1.05 -13Q-0.55 -13 -0.55 -12.55L-1.15 -11Q-0.4 -11.95 1.55 -12.55L4.65 -12.9Q5.6 -12.8 5.7 -12.4Q5.75 -12 4.95 -11.35L3.75 -10.55L5.6 -10.7Q7.6 -10.7 7.5 -10Q7.45 -9.1 5.35 -8.55Q7.35 -8.75 7.6 -8.05L7.35 -7.6L7.05 -7.4Q8.35 -6.55 9.15 -4.1L9.95 -2.4L11 -1.45L11.9 -0.7Q12.2 -0.25 12.1 0.7Q12 2.95 8.7 5.1Q5.35 7.25 3.75 7.45" />
<path style="fill:none;stroke-width:0.7;stroke-linecap:round;stroke-linejoin:miter;stroke-miterlimit:5;stroke:#000000;stroke-opacity:0.301961" d="M-2.1 6.7L-4.8 6.2L-6.05 5.5Q-8.45 6.15 -9.05 5.15Q-9.65 4.2 -8.4 3.6Q-10.05 4.25 -10.45 3.3Q-10.8 2.5 -9.15 1.35L-9.95 1.4Q-11 1.4 -11 0.95Q-11 0.45 -10.05 -0.05L-8.35 -0.7L-8.3 -1.15L-8.2 -1.6Q-7.2 -5 -6.15 -6.2L-5.5 -6.95" />
<path style="fill:none;stroke-width:0.7;stroke-linecap:round;stroke-linejoin:miter;stroke-miterlimit:5;stroke:#000000;stroke-opacity:0.301961" d="M5.6 -7.3L7.05 -7.4" />
<path style="fill:none;stroke-width:0.7;stroke-linecap:round;stroke-linejoin:miter;stroke-miterlimit:5;stroke:#000000;stroke-opacity:0.301961" d="M-9.15 1.35L-8.45 0.85" />
<path style="fill:none;stroke-width:0.7;stroke-linecap:round;stroke-linejoin:miter;stroke-miterlimit:5;stroke:#000000;stroke-opacity:0.301961" d="M-8.4 3.6L-8.15 3.5" />
</g>
<g id="PathID_5537" transform="matrix(1, 0, 0, 1, 12.35, 13.15)">
<path style="fill:#FFCEC4;fill-opacity:1" d="M1.9 -3.6L3.75 -3Q5 -2.55 4.25 -1.7L2.5 -0.3L2.5 1.95Q2.35 3.2 1.15 2.6L-0.6 1.5L-2.4 2.35Q-3.55 2.55 -3.65 1.7L-3.05 -0.85L-4.4 -2.45Q-4.95 -3.5 -3.75 -3.95L-1.5 -4.05L-0.15 -5.9L1.05 -5.85L1.9 -3.6" />
</g>
<g id="PathID_5538" transform="matrix(1, 0, 0, 1, 12.35, 13.15)">
<path style="fill:none;stroke-width:0.7;stroke-linecap:round;stroke-linejoin:miter;stroke-miterlimit:5;stroke:#000000;stroke-opacity:0.501961" d="M4.25 2.8Q-5.05 2.95 -12.1 7.9" />
</g>
<g id="PathID_5539" transform="matrix(1, 0, 0, 1, 12.35, 13.15)">
<path style="fill:none;stroke-width:0.7;stroke-linecap:round;stroke-linejoin:miter;stroke-miterlimit:5;stroke:#000000;stroke-opacity:0.501961" d="M5.75 3.75Q-2 5.95 -6.8 11.65" />
</g>
<g id="PathID_5540" transform="matrix(1, 0, 0, 1, 12.35, 13.15)">
<path style="fill:#F89F99;fill-opacity:1" d="M9 -0.4Q11.05 0.9 11.3 -1.2Q12.05 -1.35 11.95 -0.5Q11.4 0.1 11.3 1.05L10.45 1.55L10.1 1Q9.8 0.7 8.85 0.55Q8.45 0.35 8.7 -0.1L9 -0.4" />
<path style="fill:#FFE0DD;fill-opacity:1" d="M11.3 -1.2Q11.05 0.9 9 -0.4Q10.4 -1.2 11.3 -1.2" />
<path style="fill:none;stroke-width:0.7;stroke-linecap:round;stroke-linejoin:round;stroke-miterlimit:3;stroke:#000000;stroke-opacity:0.301961" d="M11.3 -1.2Q10.4 -1.2 9 -0.4" />
<path style="fill:none;stroke-width:0.7;stroke-linecap:round;stroke-linejoin:round;stroke-miterlimit:3;stroke:#000000;stroke-opacity:0.301961" d="M11.3 -1.2Q12.05 -1.35 11.95 -0.5Q11.4 0.1 11.3 1.05L10.45 1.55L10.1 1Q9.8 0.7 8.85 0.55Q8.45 0.35 8.7 -0.1L9 -0.4" />
</g>
<g id="PathID_5541" transform="matrix(1, 0, 0, 1, 12.35, 13.15)">
<path style="fill:#FFCEC4;fill-opacity:1" d="M4.6 -6.5L5.3 -6.5Q5.8 -6.45 5.6 -6.1L5.15 -5.45L5.35 -4.65Q5.45 -4.2 4.9 -4.35L4.2 -4.55L3.7 -4.05Q3.3 -3.9 3.2 -4.2L3.15 -5.1L2.55 -5.6Q2.25 -5.9 2.6 -6.15L3.4 -6.4L3.7 -7.15Q3.85 -7.5 4.15 -7.25L4.6 -6.5" />
</g>
</svg>
