<?xml version="1.0" encoding="utf-8"?>
<svg version="1.1" id="Layer_1"
xmlns="http://www.w3.org/2000/svg"
xmlns:xlink="http://www.w3.org/1999/xlink"
width="9px" height="8px"
xml:space="preserve">
<g id="PathID_5676" transform="matrix(1, 0, 0, 1, 4.6, 3.8)">
<path style="fill:#A46A52;fill-opacity:1" d="M1.95 2.6L1.2 1.8L-0.1 0.75L-0.35 0.9Q-1.8 1.65 -1.95 0.6Q-3.85 1.55 -3.8 -0.85Q-4.15 -2.25 -3.5 -3.1Q-2.2 -4 -0.9 -3.7L0.65 -3.05L1.4 -2.35L2 -1.65L2.5 -1.15L2.85 -1.3L3.05 -1.55L2.95 -1.65Q3.15 -2.35 3.45 -2.1L4 -1.6L4 -1.25Q3.35 -1.95 3.05 -1.55Q4.35 -0.6 4.2 0Q3.05 0.15 2.7 1.1L4.2 0.8Q2.85 3.05 1.95 2.6M3.05 -1.55L2.85 -1.3M3.05 -1.55Q3.35 -1.95 4 -1.25M2.7 1.1Q3.05 0.15 4.2 0" />
<path style="fill:#794A36;fill-opacity:1" d="M4.2 0.8Q3.9 2.8 3.35 3.35L2.7 3.75Q2.05 3.9 1.3 3.3L-0.1 2.3L-0.55 2.05Q-0.9 2.45 -1.4 2.45L-2 2.25L-2.45 1.7Q-2.8 2.05 -3.2 2.05L-4 1.75L-4.45 0.8Q-4.45 -0.15 -3.8 -0.85Q-3.85 1.55 -1.95 0.6Q-1.8 1.65 -0.35 0.9L-0.1 0.75L1.2 1.8L1.95 2.6Q2.85 3.05 4.2 0.8" />
<path style="fill:none;stroke-width:0.7;stroke-linecap:round;stroke-linejoin:round;stroke-miterlimit:3;stroke:#000000;stroke-opacity:0.301961" d="M2.5 -1.15L2.85 -1.3L2.95 -1.65Q3.15 -2.35 3.45 -2.1L4 -1.6L4 -1.25Q4.35 -0.6 4.2 0L4.2 0.8Q3.9 2.8 3.35 3.35L2.7 3.75Q2.05 3.9 1.3 3.3L-0.1 2.3L-0.55 2.05Q-0.9 2.45 -1.4 2.45L-2 2.25L-2.45 1.7Q-2.8 2.05 -3.2 2.05L-4 1.75L-4.45 0.8Q-4.45 -0.15 -3.8 -0.85" />
<path style="fill:none;stroke-width:0.7;stroke-linecap:round;stroke-linejoin:round;stroke-miterlimit:3;stroke:#000000;stroke-opacity:0.301961" d="M2.85 -1.3L3.05 -1.55Q3.35 -1.95 4 -1.25" />
<path style="fill:none;stroke-width:0.7;stroke-linecap:round;stroke-linejoin:round;stroke-miterlimit:3;stroke:#000000;stroke-opacity:0.301961" d="M4.2 0Q3.05 0.15 2.7 1.1" />
</g>
</svg>
