<?xml version="1.0" encoding="utf-8"?>
<svg version="1.1" id="Layer_1"
xmlns="http://www.w3.org/2000/svg"
xmlns:xlink="http://www.w3.org/1999/xlink"
width="8px" height="9px"
xml:space="preserve">
<g id="PathID_5117" transform="matrix(1, 0, 0, 1, 3.85, 4.25)">
<path style="fill:#ADB3A5;fill-opacity:1" d="M0.75 3.15Q-0.1 2.1 -1.45 1.25Q-3.1 0.2 -3.65 -1.05L-3.7 -1.1Q-4.1 -2.7 -3.2 -3.55Q-2.4 -4.4 -1.2 -4.25Q-0.05 -4.15 0.35 -3.75L1.4 -2.5L2.5 -0.85L3.35 0.75Q1.9 0.3 1.25 1.65L0.75 3.15" />
<path style="fill:#B4B7B7;fill-opacity:1" d="M1.25 1.65Q1.9 0.3 3.35 0.75L3.6 1.35Q4.15 2.7 3.05 3.75Q2.6 4.15 2.2 4.2Q1.6 4.3 1.05 3.55L0.75 3.15L1.25 1.65M2.1 1.55Q3.25 3.05 2.2 4.2Q3.25 3.05 2.1 1.55" />
<path style="fill:none;stroke-width:0.7;stroke-linecap:round;stroke-linejoin:miter;stroke-miterlimit:5;stroke:#000000;stroke-opacity:0.4" d="M0.35 -3.75L1.4 -2.5L2.5 -0.85L3.35 0.75L3.6 1.35Q4.15 2.7 3.05 3.75Q2.6 4.15 2.2 4.2Q1.6 4.3 1.05 3.55L0.75 3.15Q-0.1 2.1 -1.45 1.25Q-3.1 0.2 -3.65 -1.05L-3.7 -1.1" />
<path style="fill:none;stroke-width:0.7;stroke-linecap:round;stroke-linejoin:miter;stroke-miterlimit:5;stroke:#000000;stroke-opacity:0.4" d="M2.2 4.2Q3.25 3.05 2.1 1.55" />
</g>
</svg>
