<?xml version="1.0" encoding="utf-8"?>
<svg version="1.1" id="Layer_1"
xmlns="http://www.w3.org/2000/svg"
xmlns:xlink="http://www.w3.org/1999/xlink"
width="8px" height="6px"
xml:space="preserve">
<g id="PathID_4862" transform="matrix(1, 0, 0, 1, 2.5, 2.8)">
<path style="fill:#08102C;fill-opacity:1" d="M1.9 -0.7L2.6 -0.25L4.4 -0.35L3.55 0.25Q2.55 1.9 1.3 2.25L1.05 2.35L-0.9 2L-1.2 1.75Q-2.7 0.45 -2.2 -2.65L-0.45 -2.1L1.9 -0.7M0.6 0.35L0.65 -0.95L-1.45 -1.85L-1.95 -1.7Q-2.2 -0.7 -1.9 0.1L-1.9 0.2L-1.6 0.8L-1.5 0.95L-0.7 1.75L0.5 2.1L0.95 2L1.15 1.95L1.65 1.7L2 1.45L2.3 1.2L2.3 1.25L2.9 0.35L2.3 -0.05L2.35 0.65L2.3 1.15L2.1 1.05L2.1 0.8L2.05 0.3L1.85 0.2L1.8 0.65L1.75 0.9L1.45 0.75L1.45 0.05L1.1 -0.2L1 -0.05L0.9 0.35L0.9 0.5L0.6 0.35" />
<path style="fill:#DDF7DE;fill-opacity:1" d="M1.25 0.65L0.9 0.5L0.9 0.35L1 -0.05L1.1 -0.2L1.45 0.05L1.45 0.75L1.25 0.65M1.8 0.9L1.75 0.9L1.8 0.65L1.85 0.2L2.05 0.3L2.1 0.8L2.1 1.05L1.8 0.9" />
<path style="fill:#2989DE;fill-opacity:1" d="M1.6 1.05L1.45 0.75L1.75 0.9L1.6 1.05M2.3 1.2L2 1.45L2.1 1.05L2.3 1.15L2.3 1.2M0.9 1.9L0.6 0.35L0.9 0.5L1.1 1.8L1.15 1.95L0.95 2L0.9 1.9M-1.65 -1.15Q-1.9 0 -1.6 0.8L-1.9 0.2L-1.9 0.1Q-2.2 -0.7 -1.95 -1.7L-1.45 -1.85L-1.65 -1.15" />
<path style="fill:#80E2DE;fill-opacity:1" d="M2.3 1.15L2.35 0.65L2.3 -0.05L2.9 0.35L2.3 1.25L2.3 1.2L2.3 1.15M-1.45 -1.85L0.65 -0.95L0.6 0.35L-1.5 -0.35L-1.5 0.95L-1.6 0.8Q-1.9 0 -1.65 -1.15L-1.45 -1.85" />
<path style="fill:#E6F7DE;fill-opacity:1" d="M0.6 0.35L0.9 1.9L0.95 2L0.5 2.1L-0.7 1.75L-1.5 0.95L-1.5 -0.35L0.6 0.35" />
<path style="fill:#FFFAEA;fill-opacity:1" d="M0.9 0.5L1.25 0.65L1.45 0.75L1.6 1.05L1.75 0.9L1.8 0.9L2.1 1.05L2 1.45L1.65 1.7L1.15 1.95L1.1 1.8L0.9 0.5" />
<path style="fill:none;stroke-width:0.7;stroke-linecap:round;stroke-linejoin:miter;stroke-miterlimit:5;stroke:#000000;stroke-opacity:0.4" d="M-0.45 -2.1L-2.2 -2.65Q-2.7 0.45 -1.2 1.75L-0.9 2L1.05 2.35L1.3 2.25Q2.55 1.9 3.55 0.25L4.4 -0.35L2.6 -0.25L1.9 -0.7" />
<path style="fill:none;stroke-width:0.7;stroke-linecap:round;stroke-linejoin:miter;stroke-miterlimit:5;stroke:#000000;stroke-opacity:0.4" d="M2.3 1.25L2.3 1.2" />
<path style="fill:none;stroke-width:0.7;stroke-linecap:round;stroke-linejoin:miter;stroke-miterlimit:5;stroke:#000000;stroke-opacity:0.4" d="M0.6 0.35L0.9 0.5" />
</g>
<g id="PathID_4863" transform="matrix(1, 0, 0, 1, 2.5, 2.8)">
<path style="fill:#FFFFFF;fill-opacity:1" d="M1.4 -0.15Q1.35 0 1 0L0.25 -0.15Q-0.2 -0.3 -0.55 -0.55L-0.7 -0.9L-0.35 -1.05L0.45 -0.85L1.2 -0.5L1.4 -0.15" />
</g>
</svg>
