<?xml version="1.0" encoding="utf-8"?>
<svg version="1.1" id="Layer_1"
xmlns="http://www.w3.org/2000/svg"
xmlns:xlink="http://www.w3.org/1999/xlink"
width="22px" height="21px"
xml:space="preserve">
<g id="PathID_5466" transform="matrix(1, 0, 0, 1, 10.65, 10.8)">
<path style="fill:#A37633;fill-opacity:1" d="M7.45 -4.1L7.25 -4.45Q6.25 -6.45 3.15 -6.25Q1.6 -6.2 -1.2 -5.2L-1.1 -6.15L-0.8 -7.55L-0.6 -7.95L1.15 -8.65Q5.3 -10.15 6.5 -8.15Q7.4 -8.5 8.35 -6.65Q8.1 -5.25 7.45 -4.1M7.1 6.8L8 6.05Q9.2 4.85 9.4 2.9L9.6 0.5L9.7 -1.55L9.85 3.5Q9.95 6.65 7.1 8.2L6.4 8.5L7.1 6.8M-7.7 7.65L-8.6 7Q-10.85 5.25 -10.4 3.4Q-9.95 1.4 -8.75 -0.15Q-9.85 2.75 -8.85 4.7L-7.4 6.4L-7.7 7.65" />
<path style="fill:#DAA85F;fill-opacity:1" d="M-6.7 -1.15Q-5.75 -1.35 -5.2 -2.25Q-4.65 -3.15 -4.65 -4.4L-4.65 -4.9L-2.7 -7.05L-0.6 -7.95L-0.8 -7.55L-1.1 -6.15L-1.2 -5.2Q-5.05 0.8 -5.75 2.45L-7.4 6.35L-7.4 6.4L-8.85 4.7Q-9.85 2.75 -8.75 -0.15L-8.25 -0.7L-6.7 -1.15M9.4 2.9Q9.2 4.85 8 6.05L7.1 6.8Q7.9 1.45 7.45 -4.1Q8.1 -5.25 8.35 -6.65L8.55 -6.2L9.3 -4.2L9.4 -3.75Q8.9 -1.75 8.9 -0.75Q8.9 -0.3 9.6 0.5L9.4 2.9" />
<path style="fill:#212227;fill-opacity:1" d="M9.6 0.5Q8.9 -0.3 8.9 -0.75Q8.9 -1.75 9.4 -3.75L9.7 -2.5L9.7 -1.55L9.6 0.5M-8.25 -0.7L-4.65 -4.9L-4.65 -4.4Q-4.65 -3.15 -5.2 -2.25Q-5.75 -1.35 -6.7 -1.15L-8.25 -0.7" />
<path style="fill:#FFFFFF;fill-opacity:1" d="M7.1 6.8L5.6 7.55L1.85 8.2L-4.35 7.8Q-5.6 7.45 -7.4 6.4L-7.4 6.35L-5.75 2.45Q-5.05 0.8 -1.2 -5.2Q1.6 -6.2 3.15 -6.25Q6.25 -6.45 7.25 -4.45L7.45 -4.1Q7.9 1.45 7.1 6.8" />
<path style="fill:#C3BCAC;fill-opacity:1" d="M-7.4 6.4Q-5.6 7.45 -4.35 7.8L1.85 8.2L5.6 7.55L7.1 6.8L6.4 8.5L5.5 8.85Q1 10.25 -2.45 9.65Q-4.3 9.3 -7.7 7.65L-7.4 6.4" />
<path style="fill:none;stroke-width:0.7;stroke-linecap:round;stroke-linejoin:miter;stroke-miterlimit:5;stroke:#000000;stroke-opacity:0.4" d="M8.35 -6.65Q7.4 -8.5 6.5 -8.15" />
<path style="fill:none;stroke-width:0.7;stroke-linecap:round;stroke-linejoin:miter;stroke-miterlimit:5;stroke:#000000;stroke-opacity:0.4" d="M1.15 -8.65L-0.6 -7.95" />
<path style="fill:none;stroke-width:0.7;stroke-linecap:round;stroke-linejoin:miter;stroke-miterlimit:5;stroke:#000000;stroke-opacity:0.4" d="M8.35 -6.65L8.55 -6.2L9.3 -4.2L9.4 -3.75L9.7 -2.5L9.7 -1.55L9.85 3.5Q9.95 6.65 7.1 8.2L6.4 8.5L5.5 8.85Q1 10.25 -2.45 9.65Q-4.3 9.3 -7.7 7.65L-8.6 7Q-10.85 5.25 -10.4 3.4Q-9.95 1.4 -8.75 -0.15L-8.25 -0.7L-4.65 -4.9L-2.7 -7.05L-0.6 -7.95" />
</g>
<g id="PathID_5467" transform="matrix(1, 0, 0, 1, 10.65, 10.8)">
<path style="fill:#D7D7D7;fill-opacity:1" d="M6.45 -5.25Q3.1 -4.65 0.45 -6.75Q-1.3 -8.15 -1.65 -9.25Q6.35 -13.05 9.65 -6.55L9.75 -6.55Q7.55 -5.45 6.45 -5.25M8.25 -3.35L7.65 -4.65L7.55 -4.7Q9.95 -4.6 9.95 -1.65L9.15 -0.65L8.65 -1.95L8.25 -3.35M6.5 -3.2L6.4 -4.25L6.9 -3.65Q7.3 -2.95 7.2 -1.85Q7.15 -0.2 6.25 1.1L5.35 1.8Q6.6 -0.1 6.3 -2.2L6.5 -3.2M-1.55 -5.6L-1.5 -5.8L-2.85 -3.75L-2.95 -3.8L-2.95 -4Q-2.85 -5.15 -2.4 -5.7L-0.7 -6.85L-0.6 -6.85L-1.55 -5.6" />
<path style="fill:#FFFFFF;fill-opacity:1" d="M6.5 -3.2L6.3 -2.2L5.55 -0.25Q5.35 -2 3.9 -2.65Q0.15 -2.3 -0.4 -4.25L-0.8 -2.4Q-2.3 -3.1 -1.55 -5.6L-0.6 -6.85L-0.7 -6.85L-2.4 -5.7Q-2.85 -5.15 -2.95 -4L-2.95 -3.8Q-4.35 -5.15 -3.55 -7.45Q-4.1 -7.55 -5.15 -6.65Q-4.3 -9.3 -2.25 -8.95L-1.65 -9.25Q-1.3 -8.15 0.45 -6.75Q3.1 -4.65 6.45 -5.25Q7.55 -5.45 9.75 -6.55Q11.2 -6.1 11.2 -3.95Q10.45 -4.85 9.75 -4.55Q10.7 -3 9.95 -1.65Q9.95 -4.6 7.55 -4.7L7.65 -4.65L8.25 -3.35L8.65 -1.95Q7.8 -0.2 6.25 1.1Q7.15 -0.2 7.2 -1.85Q7.3 -2.95 6.9 -3.65L6.4 -4.25M6.35 -4.5L6.25 -4.45L6.4 -4.25L6.5 -3.2L6.35 -4.5M-0.1 -5.15L-0.4 -4.25L-0.1 -5.15" />
<path style="fill:none;stroke-width:0.7;stroke-linecap:round;stroke-linejoin:round;stroke-miterlimit:3;stroke:#000000;stroke-opacity:0.4" d="M-1.65 -9.25Q6.35 -13.05 9.65 -6.55L9.75 -6.55Q11.2 -6.1 11.2 -3.95Q10.45 -4.85 9.75 -4.55Q10.7 -3 9.95 -1.65L9.15 -0.65L8.65 -1.95Q7.8 -0.2 6.25 1.1L5.35 1.8Q6.6 -0.1 6.3 -2.2L5.55 -0.25Q5.35 -2 3.9 -2.65Q0.15 -2.3 -0.4 -4.25L-0.8 -2.4Q-2.3 -3.1 -1.55 -5.6L-1.5 -5.8L-2.85 -3.75L-2.95 -3.8Q-4.35 -5.15 -3.55 -7.45Q-4.1 -7.55 -5.15 -6.65Q-4.3 -9.3 -2.25 -8.95L-1.65 -9.25z" />
<path style="fill:none;stroke-width:0.7;stroke-linecap:round;stroke-linejoin:round;stroke-miterlimit:3;stroke:#000000;stroke-opacity:0.4" d="M8.65 -1.95L8.25 -3.35" />
<path style="fill:none;stroke-width:0.7;stroke-linecap:round;stroke-linejoin:round;stroke-miterlimit:3;stroke:#000000;stroke-opacity:0.4" d="M6.5 -3.2L6.3 -2.2" />
<path style="fill:none;stroke-width:0.7;stroke-linecap:round;stroke-linejoin:round;stroke-miterlimit:3;stroke:#000000;stroke-opacity:0.4" d="M-0.4 -4.25L-0.1 -5.15" />
</g>
</svg>
