<?xml version="1.0" encoding="utf-8"?>
<svg version="1.1" id="Layer_1"
xmlns="http://www.w3.org/2000/svg"
xmlns:xlink="http://www.w3.org/1999/xlink"
width="11px" height="8px"
xml:space="preserve">
<g id="PathID_5705" transform="matrix(1, 0, 0, 1, 5.85, 3.9)">
<path style="fill:#AB9FB7;fill-opacity:1" d="M-2.05 0.65L-4.7 -0.35L-4 -0.25L-4.45 -1.85L-3.9 -1.4L-3.55 -0.95L-3.9 -1.4L-3.85 -2.2Q-1.6 -3.05 0.65 -3.05L2 -1.95L2.3 -1.65L2.55 -1.4Q0.6 -0.65 0.3 -0.05L1.45 -0.5L-0.05 0.85L-2.05 0.65M3.5 3.25Q3.25 2.2 2.3 1.6Q3.25 2.2 3.5 3.25L3.4 3.55Q3.25 3.75 2.7 3.75L0.95 1.55L1.2 1.1Q1.75 0.25 3.2 -0.65L3.6 -0.1Q4.05 0.5 4.2 2.1L3.45 0.9L4.2 2.1Q4.55 2.6 3.5 3.25" />
<path style="fill:#67E9E9;fill-opacity:1" d="M-3.45 -3.35Q-2.2 -4.1 -1.15 -3.8Q-0.1 -3.5 0.65 -3.05Q-1.6 -3.05 -3.85 -2.2L-3.45 -3.35M3.2 -0.65Q1.75 0.25 1.2 1.1L0.95 1.55L0.75 1.4L-0.05 0.85L1.45 -0.5L0.3 -0.05Q0.6 -0.65 2.55 -1.4L3.2 -0.65" />
<path style="fill:#746781;fill-opacity:1" d="M2.7 3.75Q2.05 3.9 1.3 3.3L0.4 2.7Q0.6 2.15 0.95 1.55L2.7 3.75M-0.7 2L-1.6 1.45L-1.8 1.3L-2.95 1.25Q-3.95 1.25 -4.25 1.55Q-4.15 0.95 -3.5 0.85L-3.45 0.85L-5.3 -0.55L-4.7 -0.35L-2.05 0.65L-0.05 0.85L-0.7 2" />
<path style="fill:#44A197;fill-opacity:1" d="M-0.7 2L-0.05 0.85L0.75 1.4L0.95 1.55Q0.6 2.15 0.4 2.7L-0.7 2" />
<path style="fill:none;stroke-width:0.7;stroke-linecap:round;stroke-linejoin:round;stroke-miterlimit:3;stroke:#000000;stroke-opacity:0.14902" d="M0.65 -3.05Q-1.6 -3.05 -3.85 -2.2" />
<path style="fill:none;stroke-width:0.7;stroke-linecap:round;stroke-linejoin:miter;stroke-miterlimit:5;stroke:#000000;stroke-opacity:0.4" d="M-3.9 -1.4L-3.55 -0.95" />
<path style="fill:none;stroke-width:0.7;stroke-linecap:round;stroke-linejoin:round;stroke-miterlimit:3;stroke:#000000;stroke-opacity:0.14902" d="M2.55 -1.4Q0.6 -0.65 0.3 -0.05L1.45 -0.5L-0.05 0.85" />
<path style="fill:none;stroke-width:0.7;stroke-linecap:round;stroke-linejoin:round;stroke-miterlimit:3;stroke:#000000;stroke-opacity:0.14902" d="M0.95 1.55L1.2 1.1Q1.75 0.25 3.2 -0.65" />
<path style="fill:none;stroke-width:0.7;stroke-linecap:round;stroke-linejoin:miter;stroke-miterlimit:5;stroke:#000000;stroke-opacity:0.4" d="M3.2 -0.65L2.55 -1.4L2.3 -1.65" />
<path style="fill:none;stroke-width:0.7;stroke-linecap:round;stroke-linejoin:miter;stroke-miterlimit:5;stroke:#000000;stroke-opacity:0.4" d="M4.2 2.1Q4.05 0.5 3.6 -0.1L3.2 -0.65" />
<path style="fill:none;stroke-width:0.7;stroke-linecap:round;stroke-linejoin:miter;stroke-miterlimit:5;stroke:#000000;stroke-opacity:0.4" d="M4.2 2.1L3.45 0.9" />
<path style="fill:none;stroke-width:0.7;stroke-linecap:round;stroke-linejoin:round;stroke-miterlimit:3;stroke:#000000;stroke-opacity:0.14902" d="M0.95 1.55Q0.6 2.15 0.4 2.7" />
<path style="fill:none;stroke-width:0.7;stroke-linecap:round;stroke-linejoin:miter;stroke-miterlimit:5;stroke:#000000;stroke-opacity:0.4" d="M0.4 2.7L1.3 3.3Q2.05 3.9 2.7 3.75" />
<path style="fill:none;stroke-width:0.7;stroke-linecap:round;stroke-linejoin:miter;stroke-miterlimit:5;stroke:#000000;stroke-opacity:0.4" d="M2.7 3.75Q3.25 3.75 3.4 3.55L3.5 3.25Q3.25 2.2 2.3 1.6" />
<path style="fill:none;stroke-width:0.7;stroke-linecap:round;stroke-linejoin:miter;stroke-miterlimit:5;stroke:#000000;stroke-opacity:0.4" d="M3.5 3.25Q4.55 2.6 4.2 2.1" />
<path style="fill:none;stroke-width:0.7;stroke-linecap:round;stroke-linejoin:miter;stroke-miterlimit:5;stroke:#000000;stroke-opacity:0.4" d="M-4.7 -0.35L-4 -0.25L-4.45 -1.85L-3.9 -1.4" />
<path style="fill:none;stroke-width:0.7;stroke-linecap:round;stroke-linejoin:miter;stroke-miterlimit:5;stroke:#000000;stroke-opacity:0.4" d="M-0.7 2L-1.6 1.45L-1.8 1.3L-2.95 1.25Q-3.95 1.25 -4.25 1.55Q-4.15 0.95 -3.5 0.85L-3.45 0.85L-5.3 -0.55L-4.7 -0.35" />
<path style="fill:none;stroke-width:0.7;stroke-linecap:round;stroke-linejoin:round;stroke-miterlimit:3;stroke:#000000;stroke-opacity:0.14902" d="M-0.05 0.85L-0.7 2" />
<path style="fill:none;stroke-width:0.7;stroke-linecap:round;stroke-linejoin:miter;stroke-miterlimit:5;stroke:#000000;stroke-opacity:0.4" d="M-0.7 2L0.4 2.7" />
</g>
</svg>
