<?xml version="1.0" encoding="utf-8"?>
<svg version="1.1" id="Layer_1"
xmlns="http://www.w3.org/2000/svg"
xmlns:xlink="http://www.w3.org/1999/xlink"
width="9px" height="8px"
xml:space="preserve">
<g id="PathID_4723" transform="matrix(1, 0, 0, 1, 3.9, 3.8)">
<path style="fill:#FB979F;fill-opacity:1" d="M1.55 -2.3L2.55 -1.15L2.9 -1.3Q3.1 -2.4 3.5 -2.1L4.05 -1.6L4.1 -1.25L4.15 -1.15L4.25 0Q3.3 -0.3 2.75 1.1Q3.3 -0.3 4.25 0L4.25 0.8Q3.95 2.8 3.4 3.35L2.75 3.75Q2.1 3.9 1.35 3.3L-0.8 1.9Q0.5 1.1 1.9 -0.9L1.2 -2.65L1.55 -2.3M2.9 -1.3L3.1 -1.55Q3.45 -2 4.15 -1.15Q3.45 -2 3.1 -1.55L2.9 -1.3" />
<path style="fill:#FDFAFB;fill-opacity:1" d="M-1.55 1.45Q-3.2 0.45 -3.5 -0.15L-3.75 -0.85Q-4.1 -2.25 -3.45 -3.1Q-2.15 -4 -0.85 -3.7Q0.4 -3.4 1.2 -2.65L1.9 -0.9Q0.5 1.1 -0.8 1.9L-1.55 1.45" />
<path style="fill:none;stroke-width:0.7;stroke-linecap:round;stroke-linejoin:round;stroke-miterlimit:3;stroke:#000000;stroke-opacity:0.4" d="M-3.75 -0.85L-3.5 -0.15Q-3.2 0.45 -1.55 1.45L-0.8 1.9L1.35 3.3Q2.1 3.9 2.75 3.75L3.4 3.35Q3.95 2.8 4.25 0.8L4.25 0Q3.3 -0.3 2.75 1.1" />
<path style="fill:none;stroke-width:0.7;stroke-linecap:round;stroke-linejoin:round;stroke-miterlimit:3;stroke:#000000;stroke-opacity:0.4" d="M4.15 -1.15Q3.45 -2 3.1 -1.55L2.9 -1.3L2.55 -1.15" />
<path style="fill:none;stroke-width:0.7;stroke-linecap:round;stroke-linejoin:round;stroke-miterlimit:3;stroke:#000000;stroke-opacity:0.4" d="M2.9 -1.3Q3.1 -2.4 3.5 -2.1L4.05 -1.6L4.1 -1.25" />
<path style="fill:none;stroke-width:0.7;stroke-linecap:round;stroke-linejoin:round;stroke-miterlimit:3;stroke:#000000;stroke-opacity:0.4" d="M4.15 -1.15L4.25 0" />
</g>
</svg>
