<?xml version="1.0" encoding="utf-8"?>
<svg version="1.1" id="Layer_1"
xmlns="http://www.w3.org/2000/svg"
xmlns:xlink="http://www.w3.org/1999/xlink"
width="25px" height="23px"
xml:space="preserve">
<g id="PathID_5626" transform="matrix(1, 0, 0, 1, 12.35, 10.3)">
<path style="fill:#3D8C5D;fill-opacity:1" d="M-3.6 -9.1Q-2.75 -9.9 -0.15 -10.1L3.55 -9.65L3.55 -9.55Q3.55 -8.25 2.7 -7.8L1.4 -7.45L0.1 -6.8Q-0.65 -6.45 -1.55 -6.45L-3.65 -6.85Q-4.6 -7.25 -4.7 -8.05L-3.6 -9.1M3.95 -6.4Q3.95 -5.8 3 -5.8L2.15 -5.95Q1.55 -6.1 1.55 -6.25Q1.55 -6.95 2.75 -6.85Q3.95 -6.8 3.95 -6.4" />
<path style="fill:#8ACD6C;fill-opacity:1" d="M7.2 -7.15L8.4 -5.45L8.9 -4.05Q9.55 -2.55 10.25 -2.05L11.4 -1.15Q11.9 1.85 10.3 2.75Q8.7 3.6 7.1 3.75L4.6 4.1L1.75 2.55L1.7 2.55Q0.45 1.8 -0.95 2.1Q-1.6 1.95 -2.9 3.1L-3.35 2.85Q-5.7 1.6 -7.75 -0.85Q-7.7 -3.3 -6.8 -5.1L-6.2 -6.1L-5.6 -7L-4.7 -8.05Q-4.6 -7.25 -3.65 -6.85L-1.55 -6.45Q-0.65 -6.45 0.1 -6.8L1.4 -7.45L2.7 -7.8Q3.55 -8.25 3.55 -9.55L3.55 -9.65Q5.6 -8.95 7.2 -7.15M2.75 -6.85Q1.55 -6.95 1.55 -6.25Q1.55 -6.1 2.15 -5.95L3 -5.8Q3.95 -5.8 3.95 -6.4Q3.95 -6.8 2.75 -6.85" />
<path style="fill:#6B9857;fill-opacity:1" d="M-4.05 5.6Q-7.7 4.2 -7.75 -0.05L-7.75 -0.65L-7.75 -0.85Q-5.7 1.6 -3.35 2.85L-2.9 3.1L-3.3 3.6L-3.4 3.7Q-4.15 4.8 -4.05 5.6M4.6 4.1L7.1 3.75Q8.7 3.6 10.3 2.75Q11.9 1.85 11.4 -1.15Q12.2 -0.3 12.15 1.25Q12.05 2.75 10.95 3.55Q9.65 4.4 8.05 4.5L5.4 4.3L4.6 4.1" />
<path style="fill:#CEB04E;fill-opacity:1" d="M-3.4 3.7L-3.3 3.6L-2.9 3.1L-1 3.8L2.6 4.2L3.35 4.1L4.6 4.1L5.4 4.3L8.05 4.5Q9.65 4.4 10.95 3.55L9.35 5L5.1 7.4L4.25 7.7L2.5 8.25L-0.3 6.85L-1.45 6.4L-2.65 6L-2.95 5.9L-3.7 5.7L-4.05 5.6Q-4.15 4.8 -3.4 3.7" />
<path style="fill:#FFFF89;fill-opacity:1" d="M-2.9 3.1Q-1.6 1.95 -0.95 2.1Q0.45 1.8 1.7 2.55L1.75 2.55L4.6 4.1L3.35 4.1L2.6 4.2L-1 3.8L-2.9 3.1" />
<path style="fill:none;stroke-width:0.7;stroke-linecap:round;stroke-linejoin:miter;stroke-miterlimit:5;stroke:#000000;stroke-opacity:0.4" d="M3.55 -9.65L-0.15 -10.1Q-2.75 -9.9 -3.6 -9.1L-4.7 -8.05L-5.6 -7L-6.2 -6.1L-6.8 -5.1Q-7.7 -3.3 -7.75 -0.85" />
<path style="fill:none;stroke-width:0.7;stroke-linecap:round;stroke-linejoin:miter;stroke-miterlimit:5;stroke:#000000;stroke-opacity:0.4" d="M1.7 2.55L1.75 2.55L4.6 4.1" />
<path style="fill:none;stroke-width:0.7;stroke-linecap:round;stroke-linejoin:miter;stroke-miterlimit:5;stroke:#000000;stroke-opacity:0.4" d="M11.4 -1.15L10.25 -2.05Q9.55 -2.55 8.9 -4.05L8.4 -5.45L7.2 -7.15Q5.6 -8.95 3.55 -9.65" />
<path style="fill:none;stroke-width:0.7;stroke-linecap:round;stroke-linejoin:miter;stroke-miterlimit:5;stroke:#000000;stroke-opacity:0.4" d="M11.4 -1.15Q12.2 -0.3 12.15 1.25Q12.05 2.75 10.95 3.55L9.35 5L5.1 7.4" />
<path style="fill:none;stroke-width:0.7;stroke-linecap:round;stroke-linejoin:miter;stroke-miterlimit:5;stroke:#000000;stroke-opacity:0.4" d="M-2.65 6L-2.95 5.9L-3.7 5.7L-4.05 5.6Q-7.7 4.2 -7.75 -0.05L-7.75 -0.65L-7.75 -0.85" />
<path style="fill:none;stroke-width:0.7;stroke-linecap:round;stroke-linejoin:miter;stroke-miterlimit:5;stroke:#000000;stroke-opacity:0.4" d="M10.95 3.55Q9.65 4.4 8.05 4.5L5.4 4.3L4.6 4.1" />
</g>
<g id="PathID_5627" transform="matrix(1, 0, 0, 1, 12.35, 10.3)">
<path style="fill:none;stroke-width:0.7;stroke-linecap:round;stroke-linejoin:miter;stroke-miterlimit:5;stroke:#000000;stroke-opacity:0.501961" d="M4.25 2.8Q-5.05 2.95 -12.1 7.9" />
</g>
<g id="PathID_5628" transform="matrix(1, 0, 0, 1, 12.35, 10.3)">
<path style="fill:none;stroke-width:0.7;stroke-linecap:round;stroke-linejoin:miter;stroke-miterlimit:5;stroke:#000000;stroke-opacity:0.501961" d="M5.75 3.75Q-2 5.95 -6.8 11.65" />
</g>
<g id="PathID_5629" transform="matrix(1, 0, 0, 1, 12.35, 10.3)">
<path style="fill:#FFFE88;fill-opacity:1" d="M3.35 -1.45Q3.35 -0.1 2.3 0.65Q1.2 1.4 -0.45 1.65Q-2.1 1.85 -2.95 0.95Q-3.8 0.05 -3.85 -1.1Q-3.95 -2.2 -2.7 -3.45Q-1.5 -4.7 -0.05 -4.7Q1.35 -4.7 2.35 -3.75Q3.35 -2.8 3.35 -1.45" />
</g>
<g id="PathID_5630" transform="matrix(1, 0, 0, 1, 12.35, 10.3)">
<path style="fill:#03030B;fill-opacity:1" d="M8.25 0.2L9.2 0.6L9.2 1.1L8.05 0.9L7.15 0.35L7.3 0.2L7.55 0.05L8.25 0.2" />
</g>
</svg>
