<?xml version="1.0" encoding="utf-8"?>
<svg version="1.1" id="Layer_1"
xmlns="http://www.w3.org/2000/svg"
xmlns:xlink="http://www.w3.org/1999/xlink"
width="17px" height="17px"
xml:space="preserve">
<g id="PathID_4785" transform="matrix(1, 0, 0, 1, 8.7, 8.05)">
<path style="fill:#879ACB;fill-opacity:1" d="M-1.5 -1.35L-1.3 -1.65L-1.35 -1.65L-0.55 -2.35L1 -3.2L4.45 -3.85Q5.55 -2.45 5.75 -1.25Q5.9 -0.4 5.5 0.35Q4.65 1.95 4.8 2.9Q4 1.55 4.6 0.55Q5.2 -0.95 3.2 -2.25L1.55 -2.45Q-0.7 -2 -2.2 -0.3L-1.5 -1.35M-1.35 -1.65Q-1.4 -3.8 -2.65 -4.25L-3.9 -4.35L-6.7 -3.65L-6.7 -3.7L-6.15 -4.25L-4.5 -5.5Q-1.9 -7.1 1 -6L1.6 -5.7L3.4 -4.65L3.95 -4.25L4.45 -3.85L1 -3.2L-0.55 -2.35L-1.3 -1.65" />
<path style="fill:#9ABACD;fill-opacity:1" d="M5.7 4.2L6.45 4.75L6.45 4.8L3.8 4.4L3.95 4.6Q2.4 4.25 2.4 1.3Q1.5 -0.5 0.15 -0.7Q-2.1 -1.2 -2.95 2.45Q-2.8 0.85 -2.2 -0.3Q-0.7 -2 1.55 -2.45L3.2 -2.25Q5.2 -0.95 4.6 0.55Q4 1.55 4.8 2.9Q4.9 3.7 5.7 4.2M-3.9 -4.35L-2.65 -4.25Q-1.4 -3.8 -1.35 -1.65L-1.5 -1.35L-2.35 -1.95L-4.55 -1.5L-6.2 -0.8L-8.4 0.85L-8.4 0.8L-8.35 0.6L-8.35 0.55L-8.3 0.2L-8.25 -0.4L-7.35 -2.65L-6.8 -3.6L-6.7 -3.65L-3.9 -4.35" />
<path style="fill:#77B8D1;fill-opacity:1" d="M-6.15 -4.25L-6.7 -3.7L-6.7 -3.65L-6.8 -3.6L-7.35 -2.65L-8.25 -0.4L-8.35 0.15L-8.4 0.25L-8.45 0.35L-8.45 0.1Q-8.5 -1.45 -7.95 -2.8L-7.35 -4.1L-7.25 -4.25L-6.2 -5.55L-4 -7.05Q-2.4 -7.8 -0.45 -7.8Q1.5 -7.8 3.15 -7.05L5.3 -5.6L5.35 -5.55L6.55 -4.25Q7.35 -3.2 7.7 -1.95L8 0Q8.05 1.65 7.7 3.3L7.2 5L6.65 4.9L6.45 4.65L6.45 4.75L5.7 4.2Q4.9 3.7 4.8 2.9Q4.65 1.95 5.5 0.35Q5.9 -0.4 5.75 -1.25Q5.55 -2.45 4.45 -3.85L3.95 -4.25L3.4 -4.65L1.6 -5.7L1 -6Q-1.9 -7.1 -4.5 -5.5L-6.15 -4.25" />
<path style="fill:#D2EAEF;fill-opacity:1" d="M5.2 6L3.85 5.5L4.6 6.5Q3.45 7.25 2.2 7.6L-0.05 7.9L-2.25 7.6L-1.05 4.3L-3.6 7.1Q-4.7 6.6 -5.6 5.75L-5.85 5.55L-7.35 3.85Q-8.35 2.25 -8.45 0.35L-8.4 0.25L-8.3 0.2L-8.35 0.55L-8.35 0.6L-8.4 0.8L-8.4 0.85L-6.2 -0.8L-4.55 -1.5L-2.35 -1.95L-1.5 -1.35L-2.2 -0.3Q-2.8 0.85 -2.95 2.45Q-2.1 -1.2 0.15 -0.7Q1.5 -0.5 2.4 1.3Q2.4 4.25 3.95 4.6L5.2 6M-2.95 4.3L-2.95 2.45L-2.95 4.3" />
<path style="fill:#EDC49A;fill-opacity:1" d="M-1.35 -1.65L-1.3 -1.65L-1.5 -1.35L-1.35 -1.65" />
<path style="fill:none;stroke-width:0.7;stroke-linecap:round;stroke-linejoin:miter;stroke-miterlimit:5;stroke:#000000;stroke-opacity:0.301961" d="M4.8 2.9Q4.65 1.95 5.5 0.35Q5.9 -0.4 5.75 -1.25Q5.55 -2.45 4.45 -3.85" />
<path style="fill:none;stroke-width:0.7;stroke-linecap:round;stroke-linejoin:miter;stroke-miterlimit:5;stroke:#000000;stroke-opacity:0.2" d="M4.45 -3.85L1 -3.2L-0.55 -2.35L-1.3 -1.65L-1.5 -1.35L-2.2 -0.3Q-2.8 0.85 -2.95 2.45" />
<path style="fill:none;stroke-width:0.7;stroke-linecap:round;stroke-linejoin:miter;stroke-miterlimit:5;stroke:#000000;stroke-opacity:0.301961" d="M5.7 4.2Q4.9 3.7 4.8 2.9" />
<path style="fill:none;stroke-width:0.7;stroke-linecap:round;stroke-linejoin:miter;stroke-miterlimit:5;stroke:#000000;stroke-opacity:0.301961" d="M-4.5 -5.5Q-1.9 -7.1 1 -6L1.6 -5.7L3.4 -4.65L3.95 -4.25L4.45 -3.85" />
<path style="fill:none;stroke-width:0.7;stroke-linecap:round;stroke-linejoin:miter;stroke-miterlimit:5;stroke:#000000;stroke-opacity:0.301961" d="M7.2 5L7.7 3.3Q8.05 1.65 8 0L7.7 -1.95Q7.35 -3.2 6.55 -4.25L5.35 -5.55L5.3 -5.6L3.15 -7.05Q1.5 -7.8 -0.45 -7.8Q-2.4 -7.8 -4 -7.05L-6.2 -5.55L-7.25 -4.25L-7.35 -4.1L-7.95 -2.8Q-8.5 -1.45 -8.45 0.1L-8.45 0.35" />
<path style="fill:none;stroke-width:0.7;stroke-linecap:round;stroke-linejoin:miter;stroke-miterlimit:5;stroke:#000000;stroke-opacity:0.2" d="M-2.95 2.45L-2.95 4.3" />
<path style="fill:none;stroke-width:0.7;stroke-linecap:round;stroke-linejoin:miter;stroke-miterlimit:5;stroke:#000000;stroke-opacity:0.301961" d="M-8.45 0.35Q-8.35 2.25 -7.35 3.85L-5.85 5.55L-5.6 5.75Q-4.7 6.6 -3.6 7.1L-1.05 4.3L-2.25 7.6L-0.05 7.9L2.2 7.6" />
</g>
</svg>
