<?xml version="1.0" encoding="utf-8"?>
<svg version="1.1" id="Layer_1"
xmlns="http://www.w3.org/2000/svg"
xmlns:xlink="http://www.w3.org/1999/xlink"
width="18px" height="14px"
xml:space="preserve">
<g id="PathID_4921" transform="matrix(1, 0, 0, 1, 7.25, 6.8)">
<path style="fill:#51B948;fill-opacity:1" d="M1.25 1.65L6.45 -1.7L6.55 -1.45L6.9 -0.25Q7.4 1.5 7.05 3.25L7 3.6L7.45 4.65Q8.25 5.65 10.65 6.65L2.85 6.75Q3.4 3.75 1.25 1.65" />
<path style="fill:#33742D;fill-opacity:1" d="M2.85 6.75L1.15 6.6L-3.7 5.7Q-6 5.2 -6.65 3.75Q-7.3 2.3 -7.05 0.2L-7 -0.15L-3.4 -2.55L-2.3 1.65L6.25 -2.2L6.45 -1.7L1.25 1.65Q3.4 3.75 2.85 6.75" />
<path style="fill:#0E4E09;fill-opacity:1" d="M-7 -0.15Q-6.85 -1.8 -6.4 -2.85Q-5.65 -4.3 -4.3 -5.3L-2.6 -6.5L0 -6.8Q1.65 -6.7 3 -5.95Q4 -5.45 4.8 -4.55L6.25 -2.2L-2.3 1.65L-3.4 -2.55L-7 -0.15" />
<path style="fill:none;stroke-width:0.7;stroke-linecap:round;stroke-linejoin:miter;stroke-miterlimit:5;stroke:#000000;stroke-opacity:0.4" d="M1.15 6.6L-3.7 5.7Q-6 5.2 -6.65 3.75Q-7.3 2.3 -7.05 0.2L-7 -0.15Q-6.85 -1.8 -6.4 -2.85Q-5.65 -4.3 -4.3 -5.3L-2.6 -6.5" />
<path style="fill:none;stroke-width:0.7;stroke-linecap:round;stroke-linejoin:miter;stroke-miterlimit:5;stroke:#000000;stroke-opacity:0.4" d="M6.25 -2.2L-2.3 1.65L-3.4 -2.55L-7 -0.15" />
</g>
</svg>
