<?xml version="1.0" encoding="utf-8"?>
<svg version="1.1" id="Layer_1"
xmlns="http://www.w3.org/2000/svg"
xmlns:xlink="http://www.w3.org/1999/xlink"
width="21px" height="21px"
xml:space="preserve">
<g id="PathID_6220" transform="matrix(1, 0, 0, 1, 9.55, 9.95)">
<path style="fill:#C2A923;fill-opacity:1" d="M7.5 -6.45L3.3 -7.2Q0.65 -8 0.2 -9.15Q4.95 -10.45 6.7 -9.15Q7.5 -8.55 8.6 -6.35L8.8 -5.95Q8.25 -6.5 7.5 -6.45" />
<path style="fill:#FEEE8E;fill-opacity:1" d="M-3.1 7.25L-2.1 3.9Q-2.6 1.55 -3.9 -0.95Q-3 -1.4 -1.45 -3Q-0.15 -4.45 0.4 -5.35Q1.35 -6.85 -1 -8.15L0.2 -9.15Q0.65 -8 3.3 -7.2L7.5 -6.45Q8.25 -6.5 8.8 -5.95Q7.5 -6.4 6.05 -5Q1.95 0.1 -0.4 7.65L-3.1 7.25M-7.45 -2.5L-4.9 -5L-2.4 -7.05L-2.2 -6.55L-1.9 -5.55Q-1.9 -5 -2.8 -4.8L-2.7 -4.25Q-2.7 -3.4 -3.5 -3.4L-4.25 -3.6Q-4.1 -2.55 -4.75 -1.75Q-5.35 -1 -6.15 -1Q-6.9 -1 -6.9 -1.65L-6.7 -2.05L-6.7 -2.15Q-7 -2.15 -7.45 -2.5" />
<path style="fill:#F6FADF;fill-opacity:1" d="M9.15 -0.4L8.8 -0.8L9.15 -0.4L8.9 1.7Q8.45 3.25 6.95 4.8Q6.75 5.7 5.15 6.85Q3.55 8 1.45 7.85L-0.4 7.65Q1.95 0.1 6.05 -5Q7.5 -6.4 8.8 -5.95Q11.2 -4.25 11.2 -3.35Q11.2 -2.9 10.2 -3Q10.95 -2.35 10.85 -1.8L10.45 -1.35L10 -1.4L10.1 -0.85Q10.05 0.3 9.15 -0.4" />
<path style="fill:#D4C5A6;fill-opacity:1" d="M-0.4 7.65L1.45 7.85Q3.55 8 5.15 6.85Q6.75 5.7 6.95 4.8Q8.45 3.25 8.9 1.7L8.7 3.85Q8.55 5.3 7.95 6.45Q7.15 7.8 5.45 8.75Q2.6 10.35 -0.7 10.2L-0.4 7.65" />
<path style="fill:#F7BB36;fill-opacity:1" d="M0.4 -5.35Q-0.15 -4.45 -1.45 -3Q-3 -1.4 -3.9 -0.95Q-2.6 1.55 -2.1 3.9L-3.1 7.25L-3.85 6.8Q-10.95 3.7 -7.85 -2.15L-7.45 -2.5Q-7 -2.15 -6.7 -2.15L-6.7 -2.05L-6.9 -1.65Q-6.9 -1 -6.15 -1Q-5.35 -1 -4.75 -1.75Q-4.1 -2.55 -4.25 -3.6L-3.5 -3.4Q-2.7 -3.4 -2.7 -4.25L-2.8 -4.8Q-1.9 -5 -1.9 -5.55L-2.2 -6.55L-2.4 -7.05L-1 -8.15Q1.35 -6.85 0.4 -5.35" />
<path style="fill:#CDBA54;fill-opacity:1" d="M-0.4 7.65L-0.7 10.2L-3.25 9.65L-3.1 7.25L-0.4 7.65" />
<path style="fill:#D78205;fill-opacity:1" d="M-3.85 6.8L-3.1 7.25L-3.25 9.65Q-5.65 8.85 -7.2 7.25Q-9.65 4.65 -9.4 1.9Q-9.25 0.05 -7.85 -2.15Q-10.95 3.7 -3.85 6.8" />
<path style="fill:none;stroke-width:0.7;stroke-linecap:round;stroke-linejoin:miter;stroke-miterlimit:5;stroke:#000000;stroke-opacity:0.4" d="M8.8 -5.95L8.6 -6.35Q7.5 -8.55 6.7 -9.15Q4.95 -10.45 0.2 -9.15" />
<path style="fill:none;stroke-width:0.7;stroke-linecap:round;stroke-linejoin:miter;stroke-miterlimit:5;stroke:#000000;stroke-opacity:0.4" d="M8.9 1.7L9.15 -0.4L8.8 -0.8" />
<path style="fill:none;stroke-width:0.7;stroke-linecap:round;stroke-linejoin:miter;stroke-miterlimit:5;stroke:#000000;stroke-opacity:0.4" d="M8.8 -5.95Q11.2 -4.25 11.2 -3.35Q11.2 -2.9 10.2 -3Q10.95 -2.35 10.85 -1.8L10.45 -1.35L10 -1.4L10.1 -0.85Q10.05 0.3 9.15 -0.4" />
<path style="fill:none;stroke-width:0.7;stroke-linecap:round;stroke-linejoin:miter;stroke-miterlimit:5;stroke:#000000;stroke-opacity:0.4" d="M8.9 1.7L8.7 3.85Q8.55 5.3 7.95 6.45Q7.15 7.8 5.45 8.75Q2.6 10.35 -0.7 10.2L-3.25 9.65Q-5.65 8.85 -7.2 7.25Q-9.65 4.65 -9.4 1.9Q-9.25 0.05 -7.85 -2.15L-7.45 -2.5L-4.9 -5L-2.4 -7.05L-1 -8.15L0.2 -9.15" />
</g>
</svg>
