<?xml version="1.0" encoding="utf-8"?>
<svg version="1.1" id="Layer_1"
xmlns="http://www.w3.org/2000/svg"
xmlns:xlink="http://www.w3.org/1999/xlink"
width="25px" height="26px"
xml:space="preserve">
<g id="PathID_5942" transform="matrix(1, 0, 0, 1, 12.15, 15.65)">
<path style="fill:#82D0DD;fill-opacity:1" d="M2.55 -9.8Q5.55 -9.35 6.95 -7.65Q8.35 -6 9.15 -4.05L9.75 -2.75L10.25 -2.05Q10.45 -1.8 11.1 -1.5L11.15 -1.45L11.9 -0.7Q10.6 1.4 3.35 4.1L-1.4 3.85L-3.9 2.55L-5.95 0.95Q-7.4 -0.65 -7 -2.4L-6.15 -6.2L-5.15 -7.4L-4.65 -7.9L-4.6 -7.9L-4.55 -7.95L-3.55 -8.75Q-2.35 -14 0.2 -15.4Q0.85 -14.1 0.25 -11.4Q2.15 -13.1 3.35 -12.6Q2.55 -11 0.55 -9.4L2.3 -9.8L2.55 -9.8" />
<path style="fill:#4F8796;fill-opacity:1" d="M2.3 -9.8L0.55 -9.4Q2.55 -11 3.35 -12.6Q3.85 -10.95 2.3 -9.8M-6.15 -6.2L-7 -2.4Q-7.4 -0.65 -5.95 0.95L-3.9 2.55L-1.4 3.85L3.35 4.1Q10.6 1.4 11.9 -0.7Q12.15 0.05 11.75 1.95Q11.3 3.85 8.55 5.55L5.1 7.4L4.25 7.7L2.5 8.25Q0.2 7.05 -1.45 6.4L-2.65 6L-3 5.9L-4.05 5.6Q-5.5 5.05 -6.45 4.05Q-7.8 2.7 -7.75 -0.65Q-7.7 -4 -6.15 -6.2" />
<path style="fill:#78583A;fill-opacity:1" d="M-4.55 -7.95L-4.6 -7.9L-4.65 -7.9L-4.55 -7.95" />
<path style="fill:none;stroke-width:0.7;stroke-linecap:round;stroke-linejoin:miter;stroke-miterlimit:5;stroke:#000000;stroke-opacity:0.4" d="M2.3 -9.8Q3.85 -10.95 3.35 -12.6Q2.15 -13.1 0.25 -11.4Q0.85 -14.1 0.2 -15.4Q-2.35 -14 -3.55 -8.75L-4.55 -7.95" />
<path style="fill:none;stroke-width:0.7;stroke-linecap:round;stroke-linejoin:miter;stroke-miterlimit:5;stroke:#000000;stroke-opacity:0.4" d="M-4.65 -7.9L-5.15 -7.4L-6.15 -6.2" />
<path style="fill:none;stroke-width:0.7;stroke-linecap:round;stroke-linejoin:miter;stroke-miterlimit:5;stroke:#000000;stroke-opacity:0.4" d="M11.9 -0.7L11.15 -1.45L11.1 -1.5Q10.45 -1.8 10.25 -2.05L9.75 -2.75L9.15 -4.05Q8.35 -6 6.95 -7.65Q5.55 -9.35 2.55 -9.8L2.3 -9.8" />
<path style="fill:none;stroke-width:0.7;stroke-linecap:round;stroke-linejoin:miter;stroke-miterlimit:5;stroke:#000000;stroke-opacity:0.4" d="M11.9 -0.7Q12.15 0.05 11.75 1.95Q11.3 3.85 8.55 5.55L5.1 7.4" />
<path style="fill:none;stroke-width:0.7;stroke-linecap:round;stroke-linejoin:miter;stroke-miterlimit:5;stroke:#000000;stroke-opacity:0.4" d="M-3 5.9L-4.05 5.6Q-5.5 5.05 -6.45 4.05Q-7.8 2.7 -7.75 -0.65Q-7.7 -4 -6.15 -6.2" />
<path style="fill:none;stroke-width:0.7;stroke-linecap:round;stroke-linejoin:miter;stroke-miterlimit:5;stroke:#000000;stroke-opacity:0.4" d="M-4.65 -7.9L-4.55 -7.95" />
</g>
<g id="PathID_5943" transform="matrix(1, 0, 0, 1, 12.15, 15.65)">
<path style="fill:#EEADB5;fill-opacity:1" d="M11.25 -1.2L11.55 -1.2L11.95 -0.5Q10.95 0.65 11.25 1.05L10.7 1.35Q10.85 0.85 10.4 0.55L10.05 0.3Q8.95 0.3 8.75 -0.4L9.3 -0.75Q10.85 0.05 11.25 -1.2" />
<path style="fill:#DEDAD2;fill-opacity:1" d="M11.25 -1.2Q10.85 0.05 9.3 -0.75Q10.25 -1.3 11.25 -1.2" />
<path style="fill:#AD6D75;fill-opacity:1" d="M10.05 0.3L10.4 0.55Q10.85 0.85 10.7 1.35L10.3 1.55L9.95 0.85Q9.55 0.45 8.85 0.6L8.45 -0.1L8.75 -0.4Q8.95 0.3 10.05 0.3" />
<path style="fill:none;stroke-width:0.7;stroke-linecap:round;stroke-linejoin:round;stroke-miterlimit:3;stroke:#000000;stroke-opacity:0.301961" d="M8.75 -0.4L8.45 -0.1L8.85 0.6Q9.55 0.45 9.95 0.85L10.3 1.55L10.7 1.35" />
<path style="fill:none;stroke-width:0.7;stroke-linecap:round;stroke-linejoin:round;stroke-miterlimit:3;stroke:#000000;stroke-opacity:0.301961" d="M8.75 -0.4L9.3 -0.75Q10.25 -1.3 11.25 -1.2L11.55 -1.2L11.95 -0.5Q10.95 0.65 11.25 1.05L10.7 1.35" />
</g>
<g id="PathID_5944" transform="matrix(1, 0, 0, 1, 12.15, 15.65)">
<path style="fill:#F1F5FF;fill-opacity:1" d="M-12.15 3.4Q-2.5 0.7 4.35 2.55Q-2.15 6.4 -9.55 9.45Q-3.85 6.45 0.2 3.7Q-4.75 2.5 -12.15 3.4" />
<path style="fill:none;stroke-width:0.7;stroke-linecap:round;stroke-linejoin:round;stroke-miterlimit:3;stroke:#000000;stroke-opacity:0.4" d="M0.2 3.7Q-3.85 6.45 -9.55 9.45Q-2.15 6.4 4.35 2.55Q-2.5 0.7 -12.15 3.4Q-4.75 2.5 0.2 3.7z" />
</g>
</svg>
