<?xml version="1.0" encoding="utf-8"?>
<svg version="1.1" id="Layer_1"
xmlns="http://www.w3.org/2000/svg"
xmlns:xlink="http://www.w3.org/1999/xlink"
width="25px" height="24px"
xml:space="preserve">
<g id="PathID_6074" transform="matrix(1, 0, 0, 1, 12.35, 12.1)">
<radialGradient
id="RadialGradID_1432" gradientUnits="userSpaceOnUse" gradientTransform="matrix(0.0219269, 0.00587463, -0.00444031, 0.0165863, 4.2, -10.1)" spreadMethod ="pad" cx="0" cy="0" r="819.2" fx="0" fy="0" >
<stop  offset="0"  style="stop-color:#52555D;stop-opacity:1" />
<stop  offset="0.592157"  style="stop-color:#28292D;stop-opacity:1" />
</radialGradient>
<path style="fill:url(#RadialGradID_1432) " d="M11.35 0.2Q9.85 2.05 7.05 3.1Q5.8 1.3 4.9 0.7L3 -0.45Q2.05 -1 1.1 -1.25L-5.1 -2.05L-6.5 -1.95Q-6.7 -3.55 -6.15 -6.2L-5.25 -7.2L-4.55 -7.95L-3.4 -8.65Q-4.15 -9.55 -4.15 -10.4L-3.9 -11.35Q-3.7 -10.85 -3.05 -10.65L-2 -10.4L-2.35 -11.25Q-2.65 -12.05 -2.35 -11.95L-1.05 -11.5L0.7 -11.35Q1.75 -11.3 2.3 -10.75L3.2 -9.55L3.4 -9.3L3.6 -8.7L3.4 -9.3L3.2 -9.55L3.4 -10.7Q3.65 -11.55 4.05 -11.65Q3.85 -10.45 5.2 -9.25L6.35 -8L6.6 -7.45L6.35 -8L6.5 -7.9L8.05 -6L9.15 -4.05Q9.65 -2.75 10.25 -2.05L10.8 -1.55L11.9 -0.7L11.35 0.2M-0.65 -9.4L-1.4 -10L-2 -10.4L-1.4 -10L-0.65 -9.4" />
<radialGradient
id="RadialGradID_1433" gradientUnits="userSpaceOnUse" gradientTransform="matrix(0.0135651, 0, 0, 0.0135651, 6.8, 2.25)" spreadMethod ="pad" cx="0" cy="0" r="819.2" fx="0" fy="0" >
<stop  offset="0.219608"  style="stop-color:#F35431;stop-opacity:1" />
<stop  offset="0.615686"  style="stop-color:#FD8A5E;stop-opacity:1" />
</radialGradient>
<path style="fill:url(#RadialGradID_1433) " d="M-6.5 -1.95L-5.1 -2.05L1.1 -1.25Q2.05 -1 3 -0.45L4.9 0.7Q5.8 1.3 7.05 3.1L4.55 3.55L0.65 3.7Q-2.55 3.55 -3.7 2.6Q-6.1 0.6 -6.5 -1.8L-6.5 -1.95" />
<path style="fill:#171717;fill-opacity:1" d="M7.95 4.5Q7.2 3.95 7.05 3.1Q9.85 2.05 11.35 0.2L11.9 -0.7L12.05 -0.2L12.1 0.7Q12 2.15 11 3.4L10.25 4.1L9.55 4.75Q8.65 5 7.95 4.5M-6.5 -1.95L-8 -1.1L-7.95 -1.7L-7.95 -1.8Q-7.7 -4 -6.15 -6.2Q-6.7 -3.55 -6.5 -1.95" />
<radialGradient
id="RadialGradID_1434" gradientUnits="userSpaceOnUse" gradientTransform="matrix(0.0132294, 0, 0, 0.0132294, 5.7, 2.55)" spreadMethod ="pad" cx="0" cy="0" r="819.2" fx="0" fy="0" >
<stop  offset="0.105882"  style="stop-color:#B83619;stop-opacity:1" />
<stop  offset="0.54902"  style="stop-color:#D76B47;stop-opacity:1" />
</radialGradient>
<path style="fill:url(#RadialGradID_1434) " d="M-6.5 -1.95L-6.5 -1.8Q-6.1 0.6 -3.7 2.6Q-2.55 3.55 0.65 3.7L4.55 3.55L7.05 3.1Q7.2 3.95 7.95 4.5Q8.65 5 9.55 4.75L9 5.1L4.55 7.55L2.5 8.25L-0.85 6.65L-1.4 6.45L-4.1 5.45Q-6.4 4.5 -6.95 3.4Q-8.05 0.85 -8 -1.1L-6.5 -1.95" />
<path style="fill:none;stroke-width:0.7;stroke-linecap:round;stroke-linejoin:miter;stroke-miterlimit:5;stroke:#000000;stroke-opacity:0.4" d="M6.35 -8L5.2 -9.25Q3.85 -10.45 4.05 -11.65Q3.65 -11.55 3.4 -10.7L3.2 -9.55L3.4 -9.3L3.6 -8.7" />
<path style="fill:none;stroke-width:0.7;stroke-linecap:round;stroke-linejoin:miter;stroke-miterlimit:5;stroke:#000000;stroke-opacity:0.4" d="M6.6 -7.45L6.35 -8L6.5 -7.9L8.05 -6L9.15 -4.05Q9.65 -2.75 10.25 -2.05L10.8 -1.55L11.9 -0.7L12.05 -0.2L12.1 0.7Q12 2.15 11 3.4L10.25 4.1L9.55 4.75L9 5.1L4.55 7.55" />
<path style="fill:none;stroke-width:0.7;stroke-linecap:round;stroke-linejoin:miter;stroke-miterlimit:5;stroke:#000000;stroke-opacity:0.4" d="M-4.1 5.45Q-6.4 4.5 -6.95 3.4Q-8.05 0.85 -8 -1.1L-7.95 -1.7L-7.95 -1.8Q-7.7 -4 -6.15 -6.2L-5.25 -7.2L-4.55 -7.95L-3.4 -8.65Q-4.15 -9.55 -4.15 -10.4L-3.9 -11.35Q-3.7 -10.85 -3.05 -10.65L-2 -10.4L-2.35 -11.25Q-2.65 -12.05 -2.35 -11.95L-1.05 -11.5L0.7 -11.35Q1.75 -11.3 2.3 -10.75L3.2 -9.55" />
<path style="fill:none;stroke-width:0.7;stroke-linecap:round;stroke-linejoin:miter;stroke-miterlimit:5;stroke:#000000;stroke-opacity:0.4" d="M-2 -10.4L-1.4 -10L-0.65 -9.4" />
</g>
<g id="PathID_6075" transform="matrix(1, 0, 0, 1, 12.35, 12.1)">
<path style="fill:none;stroke-width:0.7;stroke-linecap:round;stroke-linejoin:miter;stroke-miterlimit:5;stroke:#000000;stroke-opacity:0.501961" d="M4.25 2.8Q-5.05 2.95 -12.1 7.9" />
</g>
<g id="PathID_6076" transform="matrix(1, 0, 0, 1, 12.35, 12.1)">
<path style="fill:none;stroke-width:0.7;stroke-linecap:round;stroke-linejoin:miter;stroke-miterlimit:5;stroke:#000000;stroke-opacity:0.501961" d="M5.75 3.75Q-2 5.95 -6.8 11.65" />
</g>
<g id="PathID_6077" transform="matrix(1, 0, 0, 1, 12.35, 12.1)">
<path style="fill:#A69F8F;fill-opacity:1" d="M11.55 -0.95L11.95 -0.25Q10.95 0.9 11.25 1.3L10.7 1.6Q10.85 1.1 10.4 0.8L10.05 0.55Q8.95 0.55 8.75 -0.15L9.3 -0.5Q10.85 0.3 11.25 -0.95L11.55 -0.95" />
<path style="fill:#DEDAD2;fill-opacity:1" d="M9.3 -0.5Q10.25 -1.05 11.25 -0.95Q10.85 0.3 9.3 -0.5" />
<path style="fill:#646056;fill-opacity:1" d="M10.3 1.8L9.95 1.1Q9.55 0.7 8.85 0.85L8.45 0.15L8.75 -0.15Q8.95 0.55 10.05 0.55L10.4 0.8Q10.85 1.1 10.7 1.6L10.3 1.8" />
<path style="fill:none;stroke-width:0.7;stroke-linecap:round;stroke-linejoin:round;stroke-miterlimit:3;stroke:#000000;stroke-opacity:0.301961" d="M11.25 -0.95Q10.25 -1.05 9.3 -0.5L8.75 -0.15" />
<path style="fill:none;stroke-width:0.7;stroke-linecap:round;stroke-linejoin:round;stroke-miterlimit:3;stroke:#000000;stroke-opacity:0.301961" d="M10.7 1.6L11.25 1.3Q10.95 0.9 11.95 -0.25L11.55 -0.95L11.25 -0.95" />
<path style="fill:none;stroke-width:0.7;stroke-linecap:round;stroke-linejoin:round;stroke-miterlimit:3;stroke:#000000;stroke-opacity:0.301961" d="M8.75 -0.15L8.45 0.15L8.85 0.85Q9.55 0.7 9.95 1.1L10.3 1.8L10.7 1.6" />
</g>
<g id="PathID_6078" transform="matrix(1, 0, 0, 1, 12.35, 12.1)">
<path style="fill:#FFEBDA;fill-opacity:1" d="M2.5 -1.35Q2.5 -0.2 1.65 0.6Q0.8 1.5 -0.4 1.5Q-1.6 1.5 -2.4 0.6Q-3.25 -0.2 -3.25 -1.4Q-3.25 -2.5 -2.4 -3.4Q-1.6 -4.25 -0.4 -4.25Q0.8 -4.25 1.65 -3.4Q2.5 -2.5 2.5 -1.35" />
</g>
</svg>
