<?xml version="1.0" encoding="utf-8"?>
<svg version="1.1" id="Layer_1"
xmlns="http://www.w3.org/2000/svg"
xmlns:xlink="http://www.w3.org/1999/xlink"
width="10px" height="8px"
xml:space="preserve">
<g id="PathID_5888" transform="matrix(1, 0, 0, 1, 3.8, 4.15)">
<path style="fill:#2C1911;fill-opacity:1" d="M0.05 0.55Q1.1 -0.75 2.1 -0.75L2.55 -0.7L2.7 -0.5L2.95 -0.15L4 0.45L4.85 0.75L4.9 0.5Q6.9 0.6 5.8 1.75L5.75 1.3L5.05 2.45Q4.25 1 2.4 1.85L3.55 3.1L1 2.95L-0.45 1.9L-0.7 1.75L0.05 0.55M5.75 1.3Q5.65 0.9 4.85 0.75L4 0.45M4.85 0.75Q5.65 0.9 5.75 1.3L5.8 1.75M2.4 1.85Q4.25 1 5.05 2.45" />
<path style="fill:#8E5430;fill-opacity:1" d="M-0.7 1.75L-1.45 1.25Q-3.15 0.2 -3.7 -1.1Q-4.1 -2.7 -3.2 -3.55Q-2.4 -4.4 -0.8 -4Q0.75 -3.6 1.35 -2.6L2.1 -1.3L2.55 -0.7L2.1 -0.75Q1.1 -0.75 0.05 0.55L-0.7 1.75" />
<path style="fill:none;stroke-width:0.7;stroke-linecap:round;stroke-linejoin:round;stroke-miterlimit:3;stroke:#000000;stroke-opacity:0.301961" d="M2.1 -1.3L2.55 -0.7L2.7 -0.5L2.95 -0.15L4 0.45L4.9 0.5Q6.9 0.6 5.8 1.75L5.05 2.45L3.55 3.1L1 2.95L-0.45 1.9L-0.7 1.75L-1.45 1.25Q-3.15 0.2 -3.7 -1.1" />
<path style="fill:none;stroke-width:0.7;stroke-linecap:round;stroke-linejoin:round;stroke-miterlimit:3;stroke:#000000;stroke-opacity:0.301961" d="M4 0.45L4.85 0.75Q5.65 0.9 5.75 1.3L5.8 1.75" />
<path style="fill:none;stroke-width:0.7;stroke-linecap:round;stroke-linejoin:round;stroke-miterlimit:3;stroke:#000000;stroke-opacity:0.301961" d="M5.05 2.45Q4.25 1 2.4 1.85" />
</g>
</svg>
