<?xml version="1.0" encoding="utf-8"?>
<svg version="1.1" id="Layer_1"
xmlns="http://www.w3.org/2000/svg"
xmlns:xlink="http://www.w3.org/1999/xlink"
width="20px" height="18px"
xml:space="preserve">
<g id="PathID_5609" transform="matrix(1, 0, 0, 1, 11, 9.85)">
<path style="fill:#AA9677;fill-opacity:1" d="M-0.9 -2.25L-0.8 -2.35L-0.75 -2.4L0.8 -3.25L4.25 -3.9L0.8 -3.25L-0.75 -2.4Q1 -3.9 -0.2 -4.6Q-3.7 -6.95 -6.9 -3.75L-4.7 -5.55Q-2.1 -7.15 0.8 -6.05L1.4 -5.75L4.25 -3.9Q5.35 -2.5 5.55 -1.3Q5.7 -0.45 5.3 0.3Q4.45 1.9 4.6 2.85Q3.8 1.5 4.4 0.5Q5 -1 3 -2.3L1.35 -2.5Q-0.9 -2.05 -2.4 -0.35L-1.5 -1.7L-0.9 -2.25" />
<path style="fill:#D3C2A8;fill-opacity:1" d="M3.75 4.55Q2.2 4.2 2.2 1.25Q1.3 -0.55 -0.05 -0.75Q-2.3 -1.25 -3.15 2.4Q-3 0.8 -2.4 -0.35Q-0.9 -2.05 1.35 -2.5L3 -2.3Q5 -1 4.4 0.5Q3.8 1.5 4.6 2.85Q4.7 3.65 5.5 4.15Q5.1 4.75 3.75 4.55M-1.5 -1.7Q-5.05 -3 -8.6 0.2L-8.55 0.1Q-8.25 -1.75 -7 -3.65L-6.9 -3.75Q-3.7 -6.95 -0.2 -4.6Q1 -3.9 -0.75 -2.4L-0.8 -2.35L-0.9 -2.25L-1.5 -1.7" />
<path style="fill:#F1E0C2;fill-opacity:1" d="M-8.6 0.2Q-5.05 -3 -1.5 -1.7L-2.4 -0.35Q-3 0.8 -3.15 2.4Q-2.3 -1.25 -0.05 -0.75Q1.3 -0.55 2.2 1.25Q2.2 4.2 3.75 4.55Q5.1 4.75 5.5 4.15L6.25 4.7L6.25 4.75L6.2 4.75L5 5.95L4.4 6.45Q3.25 7.2 2 7.55L-0.25 7.85L-2.45 7.55L-1.25 4.25L-3.8 7.05Q-5 6.5 -6.05 5.5Q-8.5 3.35 -8.65 0.3L-8.6 0.2M-3.15 4.25L-3.15 2.4L-3.15 4.25" />
<path style="fill:#694D33;fill-opacity:1" d="M-8.6 0.2L-8.65 0.3L-8.65 0.2L-8.65 0.05L-8.55 0.1L-8.6 0.2" />
<path style="fill:none;stroke-width:0.7;stroke-linecap:round;stroke-linejoin:miter;stroke-miterlimit:5;stroke:#000000;stroke-opacity:0.301961" d="M2 7.55L-0.25 7.85L-2.45 7.55L-1.25 4.25L-3.8 7.05Q-5 6.5 -6.05 5.5Q-8.5 3.35 -8.65 0.3L-8.65 0.2L-8.65 0.05" />
<path style="fill:none;stroke-width:0.7;stroke-linecap:round;stroke-linejoin:miter;stroke-miterlimit:5;stroke:#000000;stroke-opacity:0.2" d="M-0.75 -2.4L0.8 -3.25L4.25 -3.9" />
<path style="fill:none;stroke-width:0.7;stroke-linecap:round;stroke-linejoin:miter;stroke-miterlimit:5;stroke:#000000;stroke-opacity:0.2" d="M-2.4 -0.35Q-3 0.8 -3.15 2.4" />
<path style="fill:none;stroke-width:0.7;stroke-linecap:round;stroke-linejoin:miter;stroke-miterlimit:5;stroke:#000000;stroke-opacity:0.2" d="M-2.4 -0.35L-1.5 -1.7" />
<path style="fill:none;stroke-width:0.7;stroke-linecap:round;stroke-linejoin:miter;stroke-miterlimit:5;stroke:#000000;stroke-opacity:0.2" d="M-0.8 -2.35L-0.75 -2.4" />
<path style="fill:none;stroke-width:0.7;stroke-linecap:round;stroke-linejoin:miter;stroke-miterlimit:5;stroke:#000000;stroke-opacity:0.2" d="M-1.5 -1.7L-0.9 -2.25" />
<path style="fill:none;stroke-width:0.7;stroke-linecap:round;stroke-linejoin:miter;stroke-miterlimit:5;stroke:#000000;stroke-opacity:0.2" d="M-3.15 2.4L-3.15 4.25" />
</g>
<g id="PathID_5610" transform="matrix(1, 0, 0, 1, 11, 9.85)">
<path style="fill:#6D90AE;fill-opacity:1" d="M2.7 -5.05L0.8 -6.05Q-2.1 -7.15 -4.7 -5.55L-6.9 -3.75L-7 -3.65Q-8.25 -1.75 -8.55 0.1L-8.65 0.05Q-8.7 -1.5 -8.15 -2.85Q-9.2 -2.15 -10 -2.25Q-10.8 -2.35 -10.75 -3.25Q-10.6 -5.05 -8.4 -6.2L-6.2 -7.05L-6.7 -7.45Q-6.85 -8.25 -6.5 -8.9Q-6.05 -9.65 -5.1 -9.6Q-1.7 -9.3 1.05 -8.15L3.6 -6.75Q2.55 -6.75 2.7 -5.05M-4.55 -6.9L-6.2 -7.05L-4.55 -6.9" />
<path style="fill:#A4D0DB;fill-opacity:1" d="M5.45 -1.75Q5.15 -2.75 4.25 -3.9L2.7 -5.05Q2.55 -6.75 3.6 -6.75L5.1 -5.65L5.15 -5.6Q6.4 -4.5 7.05 -3.15Q6.15 -3.35 5.45 -1.75" />
<path style="fill:#CCE4F0;fill-opacity:1" d="M7.05 -3.15Q7.75 -1.75 7.8 -0.05Q7.85 1.6 7.5 3.25L7 4.95L6.45 4.85L6.25 4.6L6.25 4.7L5.5 4.15Q4.7 3.65 4.6 2.85Q4.45 1.9 5.3 0.3Q5.7 -0.45 5.55 -1.3L5.45 -1.75Q6.15 -3.35 7.05 -3.15" />
<path style="fill:none;stroke-width:0.7;stroke-linecap:round;stroke-linejoin:miter;stroke-miterlimit:5;stroke:#000000;stroke-opacity:0.301961" d="M-8.65 0.05Q-8.7 -1.5 -8.15 -2.85Q-9.2 -2.15 -10 -2.25Q-10.8 -2.35 -10.75 -3.25Q-10.6 -5.05 -8.4 -6.2L-6.2 -7.05L-6.7 -7.45Q-6.85 -8.25 -6.5 -8.9Q-6.05 -9.65 -5.1 -9.6Q-1.7 -9.3 1.05 -8.15L3.6 -6.75L5.1 -5.65L5.15 -5.6Q6.4 -4.5 7.05 -3.15Q7.75 -1.75 7.8 -0.05Q7.85 1.6 7.5 3.25L7 4.95" />
<path style="fill:none;stroke-width:0.7;stroke-linecap:round;stroke-linejoin:miter;stroke-miterlimit:5;stroke:#000000;stroke-opacity:0.301961" d="M5.5 4.15Q4.7 3.65 4.6 2.85Q4.45 1.9 5.3 0.3Q5.7 -0.45 5.55 -1.3L5.45 -1.75Q5.15 -2.75 4.25 -3.9L2.7 -5.05L0.8 -6.05Q-2.1 -7.15 -4.7 -5.55" />
<path style="fill:none;stroke-width:0.7;stroke-linecap:round;stroke-linejoin:miter;stroke-miterlimit:5;stroke:#000000;stroke-opacity:0.301961" d="M-6.2 -7.05L-4.55 -6.9" />
</g>
</svg>
