<?xml version="1.0" encoding="utf-8"?>
<svg version="1.1" id="Layer_1"
xmlns="http://www.w3.org/2000/svg"
xmlns:xlink="http://www.w3.org/1999/xlink"
width="5px" height="6px"
xml:space="preserve">
<g id="PathID_1266" transform="matrix(1, 0, 0, 1, 0.05, 0.05)">
<linearGradient
id="LinearGradID_328" gradientUnits="userSpaceOnUse" gradientTransform="matrix(-0.00140381, 0.0025177, -0.00422668, -0.00244141, 0.7, 4.2)" spreadMethod ="pad" x1="-819.2" y1="0" x2="819.2" y2="0" >
<stop  offset="0" style="stop-color:#727272;stop-opacity:1" />
<stop  offset="0.129412" style="stop-color:#A1A1A1;stop-opacity:1" />
<stop  offset="0.619608" style="stop-color:#64665D;stop-opacity:1" />
</linearGradient>
<path style="fill:url(#LinearGradID_328) " d="M2.5 2.8L2.2 3.4Q1.95 5.05 1.2 5Q0.15 4.9 0 3.55L0.15 1.2Q1 0.15 2.65 0.05Q4.25 -0.2 4.15 1.4Q3.9 2 2.9 2.45L2.5 2.8" />
<path style="fill:none;stroke-width:0.7;stroke-linecap:round;stroke-linejoin:round;stroke-miterlimit:3;stroke:#000000;stroke-opacity:0.498039" d="M2.5 2.8L2.2 3.4Q1.95 5.05 1.2 5Q0.15 4.9 0 3.55L0.15 1.2Q1 0.15 2.65 0.05Q4.25 -0.2 4.15 1.4Q3.9 2 2.9 2.45L2.5 2.8z" />
</g>
</svg>
