<?xml version="1.0" encoding="utf-8"?>
<svg version="1.1" id="Layer_1"
xmlns="http://www.w3.org/2000/svg"
xmlns:xlink="http://www.w3.org/1999/xlink"
width="11px" height="8px"
xml:space="preserve">
<g id="PathID_3804" transform="matrix(1, 0, 0, 1, 0.15, 0.15)">
<path style="fill:#808080;fill-opacity:1" d="M8.35 2.35L7.85 2.85L5.55 5Q2.75 7.2 0 7.55L7.8 0.45L9.6 0L9.65 0.15Q8.55 1.65 5.05 4.4Q8.55 1.65 9.65 0.15Q9.75 0.55 10.1 0.6L8.35 2.35" />
<path style="fill:none;stroke-width:0.7;stroke-linecap:round;stroke-linejoin:round;stroke-miterlimit:3;stroke:#000000;stroke-opacity:0.4" d="M9.65 0.15Q8.55 1.65 5.05 4.4" />
<path style="fill:none;stroke-width:0.7;stroke-linecap:round;stroke-linejoin:round;stroke-miterlimit:3;stroke:#000000;stroke-opacity:0.4" d="M9.6 0L7.8 0.45L0 7.55Q2.75 7.2 5.55 5L7.85 2.85L8.35 2.35L10.1 0.6" />
</g>
</svg>
