<?xml version="1.0" encoding="utf-8"?>
<svg version="1.1" id="Layer_1"
xmlns="http://www.w3.org/2000/svg"
xmlns:xlink="http://www.w3.org/1999/xlink"
width="6px" height="6px"
xml:space="preserve">
<g id="PathID_1005" transform="matrix(1, 0, 0, 1, 0.1, 0.1)">
<path style="fill:#808080;fill-opacity:1" d="M0 3.5Q0.25 -0.65 4.45 0.15Q5.15 0.95 5.2 1.9Q3.15 1.65 2.25 3.5Q1.2 3.75 0 3.5" />
<path style="fill:#474747;fill-opacity:1" d="M2.25 3.5Q1.95 4.2 1.75 5.15Q0.85 5.1 0 4.35L0 3.5Q1.2 3.75 2.25 3.5" />
<path style="fill:none;stroke-width:0.7;stroke-linecap:round;stroke-linejoin:round;stroke-miterlimit:3;stroke:#000000;stroke-opacity:0.290196" d="M2.25 3.5Q1.95 4.2 1.75 5.15Q0.85 5.1 0 4.35L0 3.5Q0.25 -0.65 4.45 0.15Q5.15 0.95 5.2 1.9Q3.15 1.65 2.25 3.5z" />
</g>
</svg>
