<?xml version="1.0" encoding="utf-8"?>
<svg version="1.1" id="Layer_1"
xmlns="http://www.w3.org/2000/svg"
xmlns:xlink="http://www.w3.org/1999/xlink"
width="18px" height="25px"
xml:space="preserve">
<g id="PathID_1289" transform="matrix(1, 0, 0, 1, 0.1, 0.1)">
<path style="fill:#808080;fill-opacity:1" d="M0 0.95L0.35 1Q1 1 1.45 0.6L1.65 0.3L1.85 0L3.8 3.05L3.55 3.35L3.25 3.6L2.1 3.9L1.9 3.9L0 0.95M4.25 7.65L5.4 7.15L5.75 6.85L6.05 6.6L8.5 10.4L8.45 10.5L7.9 11.25L7.3 11.45L6.65 11.4L4.25 7.65M8.7 14.7L9.05 14.7L9.9 14.5L10.4 14.05L10.6 13.75L12.7 17L12.7 17.05L12.65 17.65L12.3 18.35L11.05 18.4L8.7 14.7M15 20.65L17.05 24.35Q15.55 23.25 13.95 22.8L13.15 21.75L14.3 22Q15.05 22 15 20.65" />
<path style="fill:none;stroke-width:0.7;stroke-linecap:round;stroke-linejoin:round;stroke-miterlimit:3;stroke:#000000;stroke-opacity:0.301961" d="M1.85 0L3.8 3.05" />
<path style="fill:none;stroke-width:0.7;stroke-linecap:round;stroke-linejoin:round;stroke-miterlimit:3;stroke:#000000;stroke-opacity:0.301961" d="M1.9 3.9L0 0.95" />
<path style="fill:none;stroke-width:0.7;stroke-linecap:round;stroke-linejoin:round;stroke-miterlimit:3;stroke:#000000;stroke-opacity:0.301961" d="M6.05 6.6L8.5 10.4" />
<path style="fill:none;stroke-width:0.7;stroke-linecap:round;stroke-linejoin:round;stroke-miterlimit:3;stroke:#000000;stroke-opacity:0.301961" d="M6.65 11.4L4.25 7.65" />
<path style="fill:none;stroke-width:0.7;stroke-linecap:round;stroke-linejoin:round;stroke-miterlimit:3;stroke:#000000;stroke-opacity:0.301961" d="M10.6 13.75L12.7 17L12.7 17.05" />
<path style="fill:none;stroke-width:0.7;stroke-linecap:round;stroke-linejoin:round;stroke-miterlimit:3;stroke:#000000;stroke-opacity:0.301961" d="M11.05 18.4L8.7 14.7" />
<path style="fill:none;stroke-width:0.7;stroke-linecap:round;stroke-linejoin:round;stroke-miterlimit:3;stroke:#000000;stroke-opacity:0.301961" d="M15 20.65L17.05 24.35Q15.55 23.25 13.95 22.8L13.15 21.75" />
</g>
</svg>
