<?xml version="1.0" encoding="utf-8"?>
<svg version="1.1" id="Layer_1"
xmlns="http://www.w3.org/2000/svg"
xmlns:xlink="http://www.w3.org/1999/xlink"
width="12px" height="10px"
xml:space="preserve">
<g id="PathID_3786" transform="matrix(1, 0, 0, 1, 0.1, 0.1)">
<linearGradient
id="LinearGradID_1250" gradientUnits="userSpaceOnUse" gradientTransform="matrix(0.00689697, 0, 0, 0.00544739, 5.65, 4.45)" spreadMethod ="pad" x1="-819.2" y1="0" x2="819.2" y2="0" >
<stop  offset="0.00392157" style="stop-color:#797979;stop-opacity:1" />
<stop  offset="1" style="stop-color:#4F4F4F;stop-opacity:1" />
</linearGradient>
<path style="fill:url(#LinearGradID_1250) " d="M6 3.85L3.5 2.95L3.15 2.8Q1.5 1.85 0.05 0Q1.55 1.05 3.6 1.05Q3.95 2.8 6.75 3.05Q9.55 3.25 9.95 2.15L11.3 8.95L10.2 7.35Q8.8 4.95 6 3.85" />
<linearGradient
id="LinearGradID_1251" gradientUnits="userSpaceOnUse" gradientTransform="matrix(0.00341797, 0.00178528, -0.000839233, 0.00161743, 8.25, 2.2)" spreadMethod ="pad" x1="-819.2" y1="0" x2="819.2" y2="0" >
<stop  offset="0" style="stop-color:#A3A3A3;stop-opacity:1" />
<stop  offset="1" style="stop-color:#808080;stop-opacity:1" />
</linearGradient>
<path style="fill:url(#LinearGradID_1251) " d="M3.6 1.05L6.85 0.5Q9.25 -0.35 9.95 2.15Q9.55 3.25 6.75 3.05Q3.95 2.8 3.6 1.05" />
<path style="fill:#45463D;fill-opacity:1" d="M10.2 7.35L9.65 6.85Q8.6 5.05 6 3.85Q8.35 5.75 6.65 5.75L4.6 5.95Q3.15 5.65 1.6 3.6Q0.5 2.1 0.2 1.2L0.05 0.45L0.05 0Q1.5 1.85 3.15 2.8L3.5 2.95L6 3.85Q8.6 5.05 9.65 6.85Q8.8 4.95 10.2 7.35" />
<path style="fill:none;stroke-width:0.7;stroke-linecap:round;stroke-linejoin:round;stroke-miterlimit:3;stroke:#000000;stroke-opacity:0.290196" d="M9.95 2.15L11.3 8.95L10.2 7.35L9.65 6.85Q8.35 5.75 6.65 5.75L4.6 5.95Q3.15 5.65 1.6 3.6Q0.5 2.1 0.2 1.2L0.05 0.45L0.05 0Q1.55 1.05 3.6 1.05L6.85 0.5Q9.25 -0.35 9.95 2.15z" />
<path style="fill:none;stroke-width:0.7;stroke-linecap:round;stroke-linejoin:round;stroke-miterlimit:3;stroke:#000000;stroke-opacity:0.290196" d="M3.15 2.8L3.5 2.95L6 3.85" />
<path style="fill:none;stroke-width:0.7;stroke-linecap:round;stroke-linejoin:round;stroke-miterlimit:3;stroke:#000000;stroke-opacity:0.290196" d="M6 3.85Q8.6 5.05 9.65 6.85" />
</g>
</svg>
