<?xml version="1.0" encoding="utf-8"?>
<svg version="1.1" id="Layer_1"
xmlns="http://www.w3.org/2000/svg"
xmlns:xlink="http://www.w3.org/1999/xlink"
width="32px" height="14px"
xml:space="preserve">
<g id="PathID_2773" transform="matrix(1, 0, 0, 1, 14.05, 6.1)">
<path style="fill:#808080;fill-opacity:1" d="M-2.3 -3.35L-1.45 -3.8L-0.45 -4.2Q4.85 -6.5 5.45 -6Q6.15 -5.4 8 -0.3L8.7 1.7L-1 2.5L-2.3 -3.35" />
<path style="fill:#999999;fill-opacity:1" d="M-7.1 -1.65L-8.65 -1.85Q-9.2 -2.45 -1.45 -3.8L-2.3 -3.35Q-6.2 -1.75 -7.1 -1.65" />
<path style="fill:#636363;fill-opacity:1" d="M-2.3 -3.35L-1 2.5L-7.85 2.5L-7.55 4.3L-5.6 6.05L-8.7 6L-8.65 -1.85L-7.1 -1.65Q-6.2 -1.75 -2.3 -3.35" />
</g>
<g id="PathID_2774" transform="matrix(1, 0, 0, 1, 14.05, 6.1)">
<path style="fill:#999999;fill-opacity:1" d="M-4.2 4.7L11.15 5L17.4 5.5Q18.95 6.15 15.9 7L11.1 7.8L10.55 7.85L7.25 7.65Q0.3 6.95 -4.2 4.7" />
<path style="fill:#636363;fill-opacity:1" d="M7.25 7.65L2 7.4L-13.7 6.5L-14.05 5.8L-9.1 4.6L-4.2 4.7Q0.3 6.95 7.25 7.65" />
<path style="fill:none;stroke-width:0.7;stroke-linecap:round;stroke-linejoin:round;stroke-miterlimit:3;stroke:#000000;stroke-opacity:0.4" d="M7.25 7.65L2 7.4L-13.7 6.5L-14.05 5.8L-9.1 4.6L-4.2 4.7L11.15 5L17.4 5.5Q18.95 6.15 15.9 7L11.1 7.8L10.55 7.85L7.25 7.65Q0.3 6.95 -4.2 4.7" />
</g>
</svg>
