<?xml version="1.0" encoding="utf-8"?>
<svg version="1.1" id="Layer_1"
xmlns="http://www.w3.org/2000/svg"
xmlns:xlink="http://www.w3.org/1999/xlink"
width="22px" height="7px"
xml:space="preserve">
<g id="PathID_88" transform="matrix(1, 0, 0, 1, 13.1, 6.25)">
<path style="fill:#FFFFFF;fill-opacity:1" d="M8.4 -5.25L7.75 -5.1L8.2 -4.35L7.65 -4.95L7.35 -4.3L7.45 -5.05L6.65 -5.1L7.4 -5.15L6.7 -6.1L7.6 -5.2L8.05 -6.25L7.7 -5.15L8.4 -5.25" />
</g>
<g id="PathID_89" transform="matrix(1, 0, 0, 1, 13.1, 6.25)">
<path style="fill:#FFFFFF;fill-opacity:1" d="M-10.95 -0.75L-11.7 -0.5L-11.15 0.65L-11.85 -0.25L-12.25 0.7L-12.1 -0.45L-13.1 -0.5L-12.15 -0.6L-13 -2.05L-11.9 -0.7L-11.4 -2.3L-11.8 -0.6L-10.95 -0.75" />
</g>
</svg>
