<?xml version="1.0" encoding="utf-8"?>
<svg version="1.1" id="Layer_1"
xmlns="http://www.w3.org/2000/svg"
xmlns:xlink="http://www.w3.org/1999/xlink"
width="20px" height="10px"
xml:space="preserve">
<g id="PathID_541" transform="matrix(1, 0, 0, 1, 0.15, 0.15)">
<radialGradient
id="RadialGradID_181" gradientUnits="userSpaceOnUse" gradientTransform="matrix(0.000640869, -0.00379944, 0.00250244, 0.000427246, 17.55, 4.75)" spreadMethod ="pad" cx="0" cy="0" r="819.2" fx="0" fy="0" >
<stop  offset="0"  style="stop-color:#FFFFFF;stop-opacity:1" />
<stop  offset="1"  style="stop-color:#343434;stop-opacity:1" />
</radialGradient>
<path style="fill:url(#RadialGradID_181) " d="M17.25 4.05L17.85 4.25L19.1 4.9Q19.45 5.45 18.75 5.65Q18.1 5.6 17.5 5L16.3 6.95L15.75 7.15L15.4 6.85L15.4 6.7Q15.9 5.3 16.6 4.55L17.25 4.05" />
<linearGradient
id="LinearGradID_182" gradientUnits="userSpaceOnUse" gradientTransform="matrix(0.00639343, -0.000534058, 0.000244141, 0.00283813, 9.25, 2.3)" spreadMethod ="reflect" x1="-819.2" y1="0" x2="819.2" y2="0" >
<stop  offset="0" style="stop-color:#343434;stop-opacity:1" />
<stop  offset="0.909804" style="stop-color:#FFFFFF;stop-opacity:1" />
</linearGradient>
<path style="fill:url(#LinearGradID_182) " d="M5.05 2.9Q2.45 4.4 0.1 4.65Q0.35 3.8 0.95 2.9L3.3 2.85Q4.2 2.2 5.05 1.8Q7.6 0.55 9.85 1.05L13.95 1.85Q15.25 2.15 16.7 0.8Q18.3 -0.4 19.1 0.15L18.55 0.35Q17.75 0.65 17.45 1.15Q16.45 2.7 13.85 2.6L9.7 1.9Q7.6 1.45 5.85 2.45L5.05 2.9" />
<linearGradient
id="LinearGradID_183" gradientUnits="userSpaceOnUse" gradientTransform="matrix(0.00268555, -0.000473022, 0.000534058, 0.00294495, 2.2, 5.65)" spreadMethod ="pad" x1="-819.2" y1="0" x2="819.2" y2="0" >
<stop  offset="0" style="stop-color:#343434;stop-opacity:1" />
<stop  offset="1" style="stop-color:#FFFFFF;stop-opacity:1" />
</linearGradient>
<path style="fill:url(#LinearGradID_183) " d="M5.1 3.85L6.55 3L5.05 4.8L4.3 5.9L5.05 6.9Q5.6 7.35 6.3 7.7L5.05 7.85L4.05 7.7Q2.7 7.3 1.9 7.7L0.45 7.75Q-0.25 6.15 0.1 4.65Q2.7 5.05 5.05 3.85L5.1 3.85" />
<linearGradient
id="LinearGradID_184" gradientUnits="userSpaceOnUse" gradientTransform="matrix(0.00265503, 0, 0, 0.00138855, 2.95, 3.6)" spreadMethod ="pad" x1="-819.2" y1="0" x2="819.2" y2="0" >
<stop  offset="0" style="stop-color:#343434;stop-opacity:1" />
<stop  offset="1" style="stop-color:#FFFFFF;stop-opacity:1" />
</linearGradient>
<path style="fill:url(#LinearGradID_184) " d="M5.05 3.85Q2.7 5.05 0.1 4.65Q2.45 4.4 5.05 2.9L5.85 2.45L5.1 3.85L5.05 3.85" />
<path style="fill:none;stroke-width:0.7;stroke-linecap:round;stroke-linejoin:round;stroke-miterlimit:3;stroke:#000000;stroke-opacity:0.301961" d="M16.6 4.55Q15.9 5.3 15.4 6.7L15.4 6.85L15.75 7.15L16.3 6.95L17.5 5Q18.1 5.6 18.75 5.65Q19.45 5.45 19.1 4.9L17.85 4.25L17.25 4.05L16.6 4.55z" />
<path style="fill:none;stroke-width:0.7;stroke-linecap:round;stroke-linejoin:round;stroke-miterlimit:3;stroke:#000000;stroke-opacity:0.301961" d="M5.85 2.45Q7.6 1.45 9.7 1.9L13.85 2.6Q16.45 2.7 17.45 1.15Q17.75 0.65 18.55 0.35L19.1 0.15Q18.3 -0.4 16.7 0.8Q15.25 2.15 13.95 1.85L9.85 1.05Q7.6 0.55 5.05 1.8Q4.2 2.2 3.3 2.85L0.95 2.9Q0.35 3.8 0.1 4.65Q2.45 4.4 5.05 2.9L5.85 2.45L5.1 3.85L6.55 3L5.05 4.8L4.3 5.9L5.05 6.9Q5.6 7.35 6.3 7.7L5.05 7.85L4.05 7.7Q2.7 7.3 1.9 7.7L0.45 7.75Q-0.25 6.15 0.1 4.65Q2.7 5.05 5.05 3.85L5.1 3.85" />
</g>
<g id="PathID_542" transform="matrix(1, 0, 0, 1, 0.15, 0.15)">
<path style="fill:#3B3B3B;fill-opacity:1" d="M19.1 0.15L19 1.2L18.55 0.35L19.1 0.15" />
<path style="fill:none;stroke-width:0.7;stroke-linecap:round;stroke-linejoin:round;stroke-miterlimit:3;stroke:#000000;stroke-opacity:0.301961" d="M5.05 7.85Q6 9.6 8.85 9.2L13.1 8.6Q14.45 8 15.4 6.85" />
<path style="fill:none;stroke-width:0.7;stroke-linecap:round;stroke-linejoin:round;stroke-miterlimit:3;stroke:#000000;stroke-opacity:0.301961" d="M19 1.2Q19.7 3.05 19.1 4.9" />
<path style="fill:none;stroke-width:0.7;stroke-linecap:round;stroke-linejoin:round;stroke-miterlimit:3;stroke:#000000;stroke-opacity:0.301961" d="M18.55 0.35L19 1.2L19.1 0.15" />
</g>
</svg>
