<?xml version="1.0" encoding="utf-8"?>
<svg version="1.1" id="Layer_1"
xmlns="http://www.w3.org/2000/svg"
xmlns:xlink="http://www.w3.org/1999/xlink"
width="25px" height="26px"
xml:space="preserve">
<g id="PathID_2011" transform="matrix(1, 0, 0, 1, 12, 12.9)">
<path style="fill:#808080;fill-opacity:1" d="M5.3 -6.45L6.7 -5.65L7.15 -4.25Q7.55 -3.2 7.35 -1.5L6.5 -2.05L6 -2.5Q6.15 -4.5 5.3 -6.45M4.4 -9.9Q3.3 -10.85 0 -11.9L-4.05 -12.25L-5.95 -11.95L-6.4 -11.8L-7.6 -11.2Q-9.1 -10 -9.65 -7.65Q-9.85 -9.05 -8.95 -10.45Q-8.1 -11.7 -7.1 -12.15L-6.75 -12.25L-6.45 -12.4L-1.85 -12.8Q0.65 -12.55 2.5 -11.55Q3.55 -11 4.4 -9.9M-10.05 -4.2Q-10.75 -2.3 -10.55 -0.4Q-10.35 1.25 -9.1 3L-7.45 5.15Q-6.65 6.6 -6.95 8.45L-7.05 9Q-7.55 6.8 -9 5.55L-11.35 3.1Q-12.3 1.3 -11.85 -1.5Q-11.3 -5 -8.4 -6.95Q-9.45 -5.9 -10.05 -4.2M11 8.65Q10.95 7.75 10.1 7.5Q9.25 7.25 8.95 8.4Q9.75 7.6 10.2 8Q10.6 8.35 10.4 9.05Q10.2 9.65 9.35 9.75Q8.5 9.9 8.1 9.45Q7.3 8.6 7.6 7.75L8.25 6.8Q8.9 6.2 9.75 6.3Q10.8 6.4 11.45 7.3Q12.15 8.2 12.05 9.5Q11.95 10.75 10.95 12.3Q9.8 13.2 8.45 12.75L7.75 11.45L5.9 11.35Q5.2 10.55 4.6 9.05Q3.9 7.2 3.8 5.2L4.7 4.6L6.3 3.35L5.95 4.55Q5.65 6.1 5.8 7.55Q5.9 9.5 8.05 10.15Q9.45 10.65 10.35 9.95Q11.05 9.35 11 8.65" />
</g>
</svg>
