<?xml version="1.0" encoding="utf-8"?>
<svg version="1.1" id="Layer_1"
xmlns="http://www.w3.org/2000/svg"
xmlns:xlink="http://www.w3.org/1999/xlink"
width="19px" height="20px"
xml:space="preserve">
<g id="PathID_2809" transform="matrix(1, 0, 0, 1, 9.35, 9.95)">
<path style="fill:#808080;fill-opacity:1" d="M2.25 -1.65L1.85 -2.3L1.45 -3.3L0.7 -3.95L-2.05 -3.65L-2.95 -4.4L-3.1 -4.8L-3.75 -5.15L-4.5 -5.7L-4.6 -6.15L-6.05 -7.2L-6.4 -8.2L-6.75 -9.6L-6.8 -9.85L-6.75 -9.85L-4.85 -9.8L-4.75 -8.75L-4.8 -7.8L-4.7 -7.8Q-4.6 -7.3 -3.65 -7.45L-1.45 -7.5Q-1.15 -8.75 -1.25 -9.9L0.8 -9.9L0.95 -8.1L0.9 -7.85L2.75 -7.85L2.9 -9.95L4.3 -9.9L4.75 -6.6L5 -4.8L5.05 -3.2L5.45 -1.55L2.25 -1.65" />
<path style="fill:#5B5550;fill-opacity:1" d="M2.15 -8.1L2.1 -9L2.2 -9.95L2.9 -9.95L2.75 -7.85L0.9 -7.85L0.95 -8.1L2.15 -8.1M-2.75 -7.8L-2.85 -8.7L-3 -9.85L-1.25 -9.9Q-1.15 -8.75 -1.45 -7.5L-3.65 -7.45Q-4.6 -7.3 -4.7 -7.8L-2.75 -7.8M5.95 0L6.2 1.8L6.2 1.85Q7.3 2.85 8.3 5L9.05 6.55Q9.5 7.6 9.35 8.8L8.55 7.9L8 8.35Q7.2 8.35 7.05 7.75Q6.2 7.7 5.6 6.8Q4.85 5.65 4.35 5.35L3.85 5.5L3.35 5.35Q3.05 5 3.05 4.6Q1.5 3.55 0.65 4.3Q0.7 4.95 0.35 5.35L-0.2 5.6L-0.8 5.5L-1.65 6.7Q-2.15 7.45 -2.7 7.35L-3.5 7.45L-4.15 7.45L-4.35 6.75L-4.35 5.5Q-5 4.15 -6.5 6.8Q-8 9.5 -8.45 8.85Q-9.55 7.15 -9.3 5L-8.65 1.8Q-8.3 -0.9 -8.4 -2.65L-8.4 -2.85L-8.4 -2.95L-8.2 -3.6L-8.05 -3.9L-7.95 -4.05L-7.85 -4.25L-7.8 -4.3Q-7.6 -4.95 -7.75 -7.55L-8.1 -9.8L-7 -9.85L-6.55 -6.6Q-6.4 -5.45 -6.6 -4.45L-6.65 -4.25L-5.3 -4.5Q-3.2 -4.35 -2.75 -2.3Q-2.15 -2.25 -2.25 -1.6L-2.15 -1.3L0.2 0.05L1.9 0.85L3.35 -0.15L5.95 0M2.3 5L2.55 4.9L2.8 5L2.95 5.35L2.8 5.7L2.55 5.85Q2.4 5.85 2.3 5.7L2.2 5.35L2.3 5M0.65 6.1L0.8 6.5L0.65 6.9L0.3 7.1L-0.05 6.9L-0.15 6.5L-0.05 6.1Q0.1 5.95 0.3 5.95L0.65 6.1M3.6 7.95Q3.35 7.5 3.4 7.1Q3.35 6.7 3.6 6.55L4.25 6.6L4.8 7.25L5.1 8.1L4.85 8.7L4.25 8.6L3.6 7.95M7.55 8.75L7.85 8.9L8 9.3L7.85 9.7L7.55 9.9L7.25 9.7L7.15 9.3L7.25 8.9L7.55 8.75M-3.95 8.55L-3.6 8.5L-3.2 8.55Q-3.05 8.65 -3.05 8.8L-3.2 9L-3.6 9.1L-3.95 9L-4.1 8.75L-3.95 8.55" />
<path style="fill:#6D6A65;fill-opacity:1" d="M3.35 -0.15L1.9 0.85L0.2 0.05L-2.15 -1.3L-2.25 -1.6Q-2.15 -2.25 -2.75 -2.3Q-3.2 -4.35 -5.3 -4.5L-6.65 -4.25L-6.6 -4.45Q-6.4 -5.45 -6.55 -6.6L-7 -9.85L-6.8 -9.85L-6.75 -9.6L-6.4 -8.2L-6.05 -7.2L-4.6 -6.15L-4.5 -5.7L-3.75 -5.15L-3.1 -4.8L-2.95 -4.4L-2.05 -3.65L0.7 -3.95L1.45 -3.3L1.85 -2.3L2.25 -1.65L5.45 -1.55L5.7 -0.7L5.95 0L3.35 -0.15" />
<path style="fill:none;stroke-width:0.7;stroke-linecap:round;stroke-linejoin:round;stroke-miterlimit:3;stroke:#000000;stroke-opacity:0.301961" d="M5.45 -1.55L5.05 -3.2L5 -4.8L4.75 -6.6L4.3 -9.9L2.9 -9.95" />
<path style="fill:none;stroke-width:0.7;stroke-linecap:round;stroke-linejoin:round;stroke-miterlimit:3;stroke:#000000;stroke-opacity:0.301961" d="M0.95 -8.1L0.8 -9.9L-1.25 -9.9" />
<path style="fill:none;stroke-width:0.7;stroke-linecap:round;stroke-linejoin:round;stroke-miterlimit:3;stroke:#000000;stroke-opacity:0.301961" d="M-4.7 -7.8L-4.8 -7.8L-4.75 -8.75L-4.85 -9.8L-6.75 -9.85L-6.8 -9.85" />
<path style="fill:none;stroke-width:0.7;stroke-linecap:round;stroke-linejoin:round;stroke-miterlimit:3;stroke:#000000;stroke-opacity:0.301961" d="M5.45 -1.55L5.7 -0.7L5.95 0L6.2 1.8L6.2 1.85Q7.3 2.85 8.3 5L9.05 6.55Q9.5 7.6 9.35 8.8L8.55 7.9L8 8.35Q7.2 8.35 7.05 7.75Q6.2 7.7 5.6 6.8Q4.85 5.65 4.35 5.35L3.85 5.5L3.35 5.35Q3.05 5 3.05 4.6Q1.5 3.55 0.65 4.3Q0.7 4.95 0.35 5.35L-0.2 5.6L-0.8 5.5L-1.65 6.7Q-2.15 7.45 -2.7 7.35L-3.5 7.45L-4.15 7.45L-4.35 6.75L-4.35 5.5Q-5 4.15 -6.5 6.8Q-8 9.5 -8.45 8.85Q-9.55 7.15 -9.3 5L-8.65 1.8Q-8.3 -0.9 -8.4 -2.65L-8.4 -2.85L-8.4 -2.95L-8.2 -3.6L-8.05 -3.9L-7.95 -4.05L-7.85 -4.25L-7.8 -4.3Q-7.6 -4.95 -7.75 -7.55L-8.1 -9.8L-7 -9.85L-6.8 -9.85" />
<path style="fill:none;stroke-width:0.7;stroke-linecap:round;stroke-linejoin:round;stroke-miterlimit:3;stroke:#000000;stroke-opacity:0.301961" d="M2.9 -9.95L2.2 -9.95L2.1 -9L2.15 -8.1L0.95 -8.1" />
<path style="fill:none;stroke-width:0.7;stroke-linecap:round;stroke-linejoin:round;stroke-miterlimit:3;stroke:#000000;stroke-opacity:0.101961" d="M2.3 5L2.55 4.9L2.8 5L2.95 5.35L2.8 5.7L2.55 5.85Q2.4 5.85 2.3 5.7L2.2 5.35L2.3 5z" />
<path style="fill:none;stroke-width:0.7;stroke-linecap:round;stroke-linejoin:round;stroke-miterlimit:3;stroke:#000000;stroke-opacity:0.101961" d="M0.65 6.1L0.8 6.5L0.65 6.9L0.3 7.1L-0.05 6.9L-0.15 6.5L-0.05 6.1Q0.1 5.95 0.3 5.95L0.65 6.1z" />
<path style="fill:none;stroke-width:0.7;stroke-linecap:round;stroke-linejoin:round;stroke-miterlimit:3;stroke:#000000;stroke-opacity:0.101961" d="M3.6 7.95Q3.35 7.5 3.4 7.1Q3.35 6.7 3.6 6.55L4.25 6.6L4.8 7.25L5.1 8.1L4.85 8.7L4.25 8.6L3.6 7.95z" />
<path style="fill:none;stroke-width:0.7;stroke-linecap:round;stroke-linejoin:round;stroke-miterlimit:3;stroke:#000000;stroke-opacity:0.101961" d="M7.55 8.75L7.85 8.9L8 9.3L7.85 9.7L7.55 9.9L7.25 9.7L7.15 9.3L7.25 8.9L7.55 8.75z" />
<path style="fill:none;stroke-width:0.7;stroke-linecap:round;stroke-linejoin:round;stroke-miterlimit:3;stroke:#000000;stroke-opacity:0.301961" d="M-1.25 -9.9L-3 -9.85L-2.85 -8.7L-2.75 -7.8L-4.7 -7.8" />
<path style="fill:none;stroke-width:0.7;stroke-linecap:round;stroke-linejoin:round;stroke-miterlimit:3;stroke:#000000;stroke-opacity:0.101961" d="M-3.95 8.55L-3.6 8.5L-3.2 8.55Q-3.05 8.65 -3.05 8.8L-3.2 9L-3.6 9.1L-3.95 9L-4.1 8.75L-3.95 8.55z" />
</g>
<g id="PathID_2810" transform="matrix(1, 0, 0, 1, 9.35, 9.95)">
<path style="fill:#5B5550;fill-opacity:1" d="M2.15 -3.55Q1.95 -4.85 2.2 -4.9L2.95 -5.05L3.5 -5L3.85 -2.25Q3.85 -2.05 3.25 -1.9L2.5 -2L2.15 -3.55" />
<path style="fill:none;stroke-width:0.7;stroke-linecap:round;stroke-linejoin:round;stroke-miterlimit:3;stroke:#000000;stroke-opacity:0.2" d="M2.5 -2L3.25 -1.9Q3.85 -2.05 3.85 -2.25L3.5 -5L2.95 -5.05L2.2 -4.9Q1.95 -4.85 2.15 -3.55L2.5 -2z" />
</g>
<g id="PathID_2811" transform="matrix(1, 0, 0, 1, 9.35, 9.95)">
<path style="fill:none;stroke-width:0.7;stroke-linecap:round;stroke-linejoin:round;stroke-miterlimit:3;stroke:#6D5843;stroke-opacity:0.501961" d="M2.4 -6.7L2.65 -6.6" />
<path style="fill:none;stroke-width:0.7;stroke-linecap:round;stroke-linejoin:round;stroke-miterlimit:3;stroke:#6D5843;stroke-opacity:0.501961" d="M2.6 -5.6L2.95 -5.75" />
<path style="fill:none;stroke-width:0.7;stroke-linecap:round;stroke-linejoin:round;stroke-miterlimit:3;stroke:#6D5843;stroke-opacity:0.501961" d="M1.05 -1.5L1.75 -1.6" />
<path style="fill:none;stroke-width:0.7;stroke-linecap:round;stroke-linejoin:round;stroke-miterlimit:3;stroke:#6D5843;stroke-opacity:0.501961" d="M3.95 -0.85L4.6 -0.55" />
<path style="fill:none;stroke-width:0.7;stroke-linecap:round;stroke-linejoin:round;stroke-miterlimit:3;stroke:#6D5843;stroke-opacity:0.501961" d="M1.5 2.5L2.1 2.5" />
<path style="fill:none;stroke-width:0.7;stroke-linecap:round;stroke-linejoin:round;stroke-miterlimit:3;stroke:#6D5843;stroke-opacity:0.501961" d="M4.95 3.5L5.25 4.15" />
<path style="fill:none;stroke-width:0.7;stroke-linecap:round;stroke-linejoin:round;stroke-miterlimit:3;stroke:#6D5843;stroke-opacity:0.501961" d="M6.75 4.45L7 4.75" />
<path style="fill:none;stroke-width:0.7;stroke-linecap:round;stroke-linejoin:round;stroke-miterlimit:3;stroke:#6D5843;stroke-opacity:0.501961" d="M-1.15 -7.85L-0.25 -8.2" />
<path style="fill:none;stroke-width:0.7;stroke-linecap:round;stroke-linejoin:round;stroke-miterlimit:3;stroke:#6D5843;stroke-opacity:0.501961" d="M-5.5 -3.2L-5.1 -2.7" />
<path style="fill:none;stroke-width:0.7;stroke-linecap:round;stroke-linejoin:round;stroke-miterlimit:3;stroke:#6D5843;stroke-opacity:0.501961" d="M-4.35 -1.15L-3.9 -1.1" />
<path style="fill:none;stroke-width:0.7;stroke-linecap:round;stroke-linejoin:round;stroke-miterlimit:3;stroke:#6D5843;stroke-opacity:0.501961" d="M-1.3 -2.6L-0.85 -2.95" />
<path style="fill:none;stroke-width:0.7;stroke-linecap:round;stroke-linejoin:round;stroke-miterlimit:3;stroke:#6D5843;stroke-opacity:0.501961" d="M-3.7 -6.65L-3.1 -6.65" />
<path style="fill:none;stroke-width:0.7;stroke-linecap:round;stroke-linejoin:round;stroke-miterlimit:3;stroke:#6D5843;stroke-opacity:0.501961" d="M-6.25 -8.7L-6.7 -8.45" />
<path style="fill:none;stroke-width:0.7;stroke-linecap:round;stroke-linejoin:round;stroke-miterlimit:3;stroke:#6D5843;stroke-opacity:0.501961" d="M-6.75 -7.35L-6.4 -7.3" />
<path style="fill:none;stroke-width:0.7;stroke-linecap:round;stroke-linejoin:round;stroke-miterlimit:3;stroke:#6D5843;stroke-opacity:0.501961" d="M-6.9 0.6L-6.2 1.1" />
<path style="fill:none;stroke-width:0.7;stroke-linecap:round;stroke-linejoin:round;stroke-miterlimit:3;stroke:#6D5843;stroke-opacity:0.501961" d="M-5.35 2.5L-4.85 2.35" />
<path style="fill:none;stroke-width:0.7;stroke-linecap:round;stroke-linejoin:round;stroke-miterlimit:3;stroke:#6D5843;stroke-opacity:0.501961" d="M-2.45 2.4L-2.15 2.35" />
<path style="fill:none;stroke-width:0.7;stroke-linecap:round;stroke-linejoin:round;stroke-miterlimit:3;stroke:#6D5843;stroke-opacity:0.501961" d="M-6.7 3.2L-6.1 3.5" />
<path style="fill:none;stroke-width:0.7;stroke-linecap:round;stroke-linejoin:round;stroke-miterlimit:3;stroke:#6D5843;stroke-opacity:0.501961" d="M-2.6 4.9L-2.05 4.65" />
<path style="fill:none;stroke-width:0.7;stroke-linecap:round;stroke-linejoin:round;stroke-miterlimit:3;stroke:#6D5843;stroke-opacity:0.501961" d="M-7.8 5.1L-7.35 5.35" />
<path style="fill:none;stroke-width:0.7;stroke-linecap:round;stroke-linejoin:round;stroke-miterlimit:3;stroke:#6D5843;stroke-opacity:0.501961" d="M-0.3 -6.35L0.1 -6.15" />
</g>
</svg>
