<?xml version="1.0" encoding="utf-8"?>
<svg version="1.1" id="Layer_1"
xmlns="http://www.w3.org/2000/svg"
xmlns:xlink="http://www.w3.org/1999/xlink"
width="11px" height="17px"
xml:space="preserve">
<g id="PathID_1010" transform="matrix(1, 0, 0, 1, 0.1, 0.1)">
<path style="fill:#808080;fill-opacity:1" d="M9.5 5.8Q10.35 9 9.1 12.4L7.2 16L3.1 12.5L3.35 10.15Q3.4 8.05 2.7 6.95Q2 5.85 1.15 5.35L0 4.85L0.1 0L3.55 0.85Q5.65 1.6 7.1 2.65Q9.05 4.15 9.5 5.8" />
<path style="fill:none;stroke-width:0.7;stroke-linecap:round;stroke-linejoin:round;stroke-miterlimit:3;stroke:#000000;stroke-opacity:0.498039" d="M9.5 5.8Q10.35 9 9.1 12.4L7.2 16L3.1 12.5L3.35 10.15Q3.4 8.05 2.7 6.95Q2 5.85 1.15 5.35L0 4.85L0.1 0L3.55 0.85Q5.65 1.6 7.1 2.65Q9.05 4.15 9.5 5.8z" />
</g>
</svg>
