<?xml version="1.0" encoding="utf-8"?>
<svg version="1.1" id="Layer_1"
xmlns="http://www.w3.org/2000/svg"
xmlns:xlink="http://www.w3.org/1999/xlink"
width="29px" height="10px"
xml:space="preserve">
<g id="PathID_1471" transform="matrix(1, 0, 0, 1, 0.15, 0.15)">
<path style="fill:none;stroke-width:0.7;stroke-linecap:round;stroke-linejoin:round;stroke-miterlimit:3;stroke:#808080;stroke-opacity:0.8" d="M28.1 8.55L28.4 8.75" />
<path style="fill:none;stroke-width:0.7;stroke-linecap:round;stroke-linejoin:round;stroke-miterlimit:3;stroke:#808080;stroke-opacity:0.8" d="M27.45 7.35L27.7 7.4" />
<path style="fill:none;stroke-width:0.7;stroke-linecap:round;stroke-linejoin:round;stroke-miterlimit:3;stroke:#808080;stroke-opacity:0.8" d="M25.5 4.7L25.7 4.55" />
<path style="fill:none;stroke-width:0.7;stroke-linecap:round;stroke-linejoin:round;stroke-miterlimit:3;stroke:#808080;stroke-opacity:0.8" d="M25.85 3.5Q23.75 5.45 23.15 8.25L27.65 8.1" />
<path style="fill:none;stroke-width:0.7;stroke-linecap:round;stroke-linejoin:round;stroke-miterlimit:3;stroke:#808080;stroke-opacity:0.8" d="M21.95 3.2L21.75 3" />
<path style="fill:none;stroke-width:0.7;stroke-linecap:round;stroke-linejoin:round;stroke-miterlimit:3;stroke:#808080;stroke-opacity:0.8" d="M18.35 1.95Q16 3.9 15.3 6.7" />
<path style="fill:none;stroke-width:0.7;stroke-linecap:round;stroke-linejoin:round;stroke-miterlimit:3;stroke:#808080;stroke-opacity:0.8" d="M17.95 3.15L18.15 3" />
<path style="fill:none;stroke-width:0.7;stroke-linecap:round;stroke-linejoin:round;stroke-miterlimit:3;stroke:#808080;stroke-opacity:0.8" d="M16.9 1.65L17.1 1.5" />
<path style="fill:none;stroke-width:0.7;stroke-linecap:round;stroke-linejoin:round;stroke-miterlimit:3;stroke:#808080;stroke-opacity:0.8" d="M0.25 0.1L0 0" />
<path style="fill:none;stroke-width:0.7;stroke-linecap:round;stroke-linejoin:round;stroke-miterlimit:3;stroke:#808080;stroke-opacity:0.8" d="M1.55 4.35L1.35 4.6" />
<path style="fill:none;stroke-width:0.7;stroke-linecap:round;stroke-linejoin:round;stroke-miterlimit:3;stroke:#808080;stroke-opacity:0.8" d="M0.9 0Q4.25 0.5 6.65 2.6Q3.65 2.5 1.8 5.25" />
<path style="fill:none;stroke-width:0.7;stroke-linecap:round;stroke-linejoin:round;stroke-miterlimit:3;stroke:#808080;stroke-opacity:0.8" d="M1.95 0.8L1.7 0.9" />
<path style="fill:none;stroke-width:0.7;stroke-linecap:round;stroke-linejoin:round;stroke-miterlimit:3;stroke:#808080;stroke-opacity:0.8" d="M9.3 8.15L9.25 8.5" />
<path style="fill:none;stroke-width:0.7;stroke-linecap:round;stroke-linejoin:round;stroke-miterlimit:3;stroke:#808080;stroke-opacity:0.8" d="M8.65 7.2L8.65 7.5" />
<path style="fill:none;stroke-width:0.7;stroke-linecap:round;stroke-linejoin:round;stroke-miterlimit:3;stroke:#808080;stroke-opacity:0.8" d="M1.6 5.9L1.4 6.25" />
<path style="fill:none;stroke-width:0.7;stroke-linecap:round;stroke-linejoin:round;stroke-miterlimit:3;stroke:#808080;stroke-opacity:0.8" d="M11.2 4.25Q9.25 5.4 9.15 7.7" />
<path style="fill:none;stroke-width:0.7;stroke-linecap:round;stroke-linejoin:round;stroke-miterlimit:3;stroke:#808080;stroke-opacity:0.8" d="M21.55 3.65Q21.25 6.05 19.75 7.75" />
<path style="fill:none;stroke-width:0.7;stroke-linecap:round;stroke-linejoin:round;stroke-miterlimit:3;stroke:#808080;stroke-opacity:0.8" d="M20.25 3.85L20.05 3.65" />
</g>
</svg>
