<?xml version="1.0" encoding="utf-8"?>
<svg version="1.1" id="Layer_1"
xmlns="http://www.w3.org/2000/svg"
xmlns:xlink="http://www.w3.org/1999/xlink"
width="35px" height="38px"
xml:space="preserve">
<g id="PathID_3356" transform="matrix(1, 0, 0, 1, 0.15, 0.15)">
<path style="fill:#4F4B46;fill-opacity:1" d="M14.45 3.7Q14.3 2.95 14.6 2.7L16.6 5.45L18.7 8.65Q17.85 8.8 17.75 9.95Q17.85 8.8 18.7 8.65Q20.35 11.05 21.25 11.05L21.95 10.8L22.65 12.4L23.35 14.6L19.35 14.45L19 13.4L17.75 9.95L16.2 6.65L14.45 3.7L11.95 0L14.6 2.7Q14.3 2.95 14.45 3.7M12.4 15.5L12.35 15.55Q11.7 16.6 11.75 17.4Q11.7 16.6 12.35 15.55Q13.65 18.55 15.35 18.35Q16.2 18 17 15.75Q17.3 20.05 13.4 19.9L11.75 17.4L9.35 14.15L7.3 11.55L4.1 8.05L0 4.05L4.35 6.9L4.35 6.95L7.65 9.7Q7.05 10.25 7.3 11.55Q7.05 10.25 7.65 9.7L9.65 12.35L12.4 15.5M16.2 6.65Q16.15 5.75 16.6 5.45Q16.15 5.75 16.2 6.65M4.35 6.95Q4 7.35 4.1 8.05Q4 7.35 4.35 6.95M9.35 14.15Q9.25 13.05 9.65 12.35Q9.25 13.05 9.35 14.15M19 13.4Q20.05 11.35 22.65 12.4Q20.05 11.35 19 13.4" />
<path style="fill:#808080;fill-opacity:1" d="M14.6 2.7Q14.8 2.4 15.35 2.45Q14.8 2.4 14.6 2.7L11.95 0L15.35 2.45Q17.1 3.9 18.5 5.55L21.2 9.35L21.95 10.8L21.25 11.05Q20.35 11.05 18.7 8.65L16.6 5.45L14.6 2.7M27.9 27.45Q27.3 26 27.2 24.85Q27.15 25.45 26.3 25.85Q25.35 26.3 24.75 25.55L20.8 22.15L19.75 21.2Q15.95 17.7 18.5 14.7Q17.55 15.95 19.45 18.6Q21.75 21.85 26.7 22.65L28.25 22.3Q29.45 21.45 29.65 20.4L29.55 19.3Q30.4 20.4 31.1 21.8Q32.05 24.55 34.1 25.7Q34.6 26.95 34.1 27.7L34.05 27.75L31.15 25.75Q29.95 28 27.9 27.45M15.35 18.35Q13.65 18.55 12.35 15.55L12.4 15.5L14.1 13.65L12.4 15.5L9.65 12.35Q10.2 11.45 11.75 11.35Q10.2 11.45 9.65 12.35L7.65 9.7Q8.15 9.15 9.35 9.2Q8.15 9.15 7.65 9.7L4.35 6.95L4.35 6.9Q4.65 6.6 5.3 6.45Q4.65 6.6 4.35 6.9L0 4.05Q2.85 5.1 5.3 6.45Q7.5 7.7 9.35 9.2L11.75 11.35L14.1 13.65L17 15.75Q16.2 18 15.35 18.35M16.6 5.45L18.5 5.55L16.6 5.45M21.2 9.35Q19.55 8.45 18.7 8.65Q19.55 8.45 21.2 9.35M29.55 23.65L31.15 25.75L29.55 23.65" />
<path style="fill:#A3A3A3;fill-opacity:1" d="M29.65 20.4Q29.45 21.45 28.25 22.3L26.9 20.75L28.25 22.3L26.7 22.65Q21.75 21.85 19.45 18.6Q17.55 15.95 18.5 14.7L19.35 14.45L23.35 14.6Q27 15.8 29.55 19.3L29.65 20.4M25.65 19.05Q22.25 14.45 18.5 14.7Q22.25 14.45 25.65 19.05" />
<linearGradient
id="LinearGradID_1089" gradientUnits="userSpaceOnUse" gradientTransform="matrix(-0.00735474, -0.0042572, 0.00695801, -0.0120544, 15.7, 22.6)" spreadMethod ="pad" x1="-819.2" y1="0" x2="819.2" y2="0" >
<stop  offset="0" style="stop-color:#64625F;stop-opacity:1" />
<stop  offset="1" style="stop-color:#413B36;stop-opacity:1" />
</linearGradient>
<path style="fill:url(#LinearGradID_1089) " d="M13 29.4L13.75 28.15L13.75 28.1L12.15 26.95L10.2 25.55Q11.7 21.95 13.4 19.9Q17.3 20.05 17 15.75Q17.25 15.2 18 14.85L18.5 14.7Q15.95 17.7 19.75 21.2Q18.2 24 17.4 25.9Q17.4 26.85 19.15 28.3Q20.85 29.7 23.85 29L23.9 28.5L24.75 25.55Q25.35 26.3 26.3 25.85Q27.15 25.45 27.2 24.85Q27.3 26 27.9 27.45Q29.95 28 31.15 25.75Q30.35 29.35 29.3 30.2L27.6 31.2Q27.35 34.85 25.55 37.5Q26.35 32.2 25.15 30.9Q21.3 30.9 17.95 29.9L15.6 33.75L15.2 34.05L15.7 32.7L16.15 31.4L16.75 29.7L14.85 30.4L12.8 31.2L11.75 31.6L12 31.2L13 29.4M14.1 27.5L13.75 28.1L14.1 27.5" />
<path style="fill:#56514C;fill-opacity:1" d="M18.75 26.2Q19.25 27.55 20.6 28.35L23.9 28.5L23.85 29Q20.85 29.7 19.15 28.3Q17.4 26.85 17.4 25.9L18.75 26.2" />
<path style="fill:#413D38;fill-opacity:1" d="M18.75 26.2L17.4 25.9Q18.2 24 19.75 21.2L20.8 22.15L18.75 26.2" />
<path style="fill:#4C4843;fill-opacity:1" d="M17.95 29.9Q21.3 30.9 25.15 30.9Q26.35 32.2 25.55 37.5Q25.55 34.55 24.9 31.9Q21.25 30.6 18.3 31.35L15.6 33.75L17.95 29.9M14.85 30.4L16.75 29.7L16.15 31.4L15.7 32.7Q14.75 31.55 12.8 31.2L14.85 30.4M12.15 26.95Q12.95 28.2 13 29.4L12 31.2Q12 28.35 10.2 25.55L12.15 26.95M13.75 28.1L13.75 28.15L13 29.4Q12.95 28.2 12.15 26.95L13.75 28.1M16.75 29.7L16.15 31.4L14.85 30.4" />
<path style="fill:none;stroke-width:0.7;stroke-linecap:round;stroke-linejoin:round;stroke-miterlimit:3;stroke:#000000;stroke-opacity:0.4" d="M11.95 0L15.35 2.45Q17.1 3.9 18.5 5.55L21.2 9.35L21.95 10.8L22.65 12.4L23.35 14.6Q27 15.8 29.55 19.3Q30.4 20.4 31.1 21.8Q32.05 24.55 34.1 25.7Q34.6 26.95 34.1 27.7" />
<path style="fill:none;stroke-width:0.7;stroke-linecap:round;stroke-linejoin:round;stroke-miterlimit:3;stroke:#000000;stroke-opacity:0.4" d="M34.05 27.75L31.15 25.75Q30.35 29.35 29.3 30.2L27.6 31.2Q27.35 34.85 25.55 37.5Q25.55 34.55 24.9 31.9Q21.25 30.6 18.3 31.35L15.6 33.75L15.2 34.05L15.7 32.7Q14.75 31.55 12.8 31.2L11.75 31.6L12 31.2Q12 28.35 10.2 25.55Q11.7 21.95 13.4 19.9L11.75 17.4L9.35 14.15L7.3 11.55L4.1 8.05L0 4.05Q2.85 5.1 5.3 6.45Q7.5 7.7 9.35 9.2L11.75 11.35L14.1 13.65L17 15.75Q17.25 15.2 18 14.85L18.5 14.7L19.35 14.45L19 13.4L17.75 9.95L16.2 6.65L14.45 3.7L11.95 0" />
<path style="fill:none;stroke-width:0.7;stroke-linecap:round;stroke-linejoin:round;stroke-miterlimit:3;stroke:#000000;stroke-opacity:0.4" d="M14.6 2.7Q14.8 2.4 15.35 2.45" />
<path style="fill:none;stroke-width:0.7;stroke-linecap:round;stroke-linejoin:round;stroke-miterlimit:3;stroke:#000000;stroke-opacity:0.4" d="M18.7 8.65Q17.85 8.8 17.75 9.95" />
<path style="fill:none;stroke-width:0.7;stroke-linecap:round;stroke-linejoin:round;stroke-miterlimit:3;stroke:#000000;stroke-opacity:0.4" d="M28.25 22.3L26.9 20.75" />
<path style="fill:none;stroke-width:0.7;stroke-linecap:round;stroke-linejoin:round;stroke-miterlimit:3;stroke:#000000;stroke-opacity:0.4" d="M18.5 5.55L16.6 5.45" />
<path style="fill:none;stroke-width:0.7;stroke-linecap:round;stroke-linejoin:round;stroke-miterlimit:3;stroke:#000000;stroke-opacity:0.4" d="M18.7 8.65Q19.55 8.45 21.2 9.35" />
<path style="fill:none;stroke-width:0.7;stroke-linecap:round;stroke-linejoin:round;stroke-miterlimit:3;stroke:#000000;stroke-opacity:0.4" d="M14.45 3.7Q14.3 2.95 14.6 2.7" />
<path style="fill:none;stroke-width:0.7;stroke-linecap:round;stroke-linejoin:round;stroke-miterlimit:3;stroke:#000000;stroke-opacity:0.4" d="M16.6 5.45Q16.15 5.75 16.2 6.65" />
<path style="fill:none;stroke-width:0.7;stroke-linecap:round;stroke-linejoin:round;stroke-miterlimit:3;stroke:#000000;stroke-opacity:0.4" d="M4.35 6.9L4.35 6.95" />
<path style="fill:none;stroke-width:0.7;stroke-linecap:round;stroke-linejoin:round;stroke-miterlimit:3;stroke:#000000;stroke-opacity:0.4" d="M7.65 9.7Q8.15 9.15 9.35 9.2" />
<path style="fill:none;stroke-width:0.7;stroke-linecap:round;stroke-linejoin:round;stroke-miterlimit:3;stroke:#000000;stroke-opacity:0.4" d="M4.1 8.05Q4 7.35 4.35 6.95" />
<path style="fill:none;stroke-width:0.7;stroke-linecap:round;stroke-linejoin:round;stroke-miterlimit:3;stroke:#000000;stroke-opacity:0.4" d="M7.3 11.55Q7.05 10.25 7.65 9.7" />
<path style="fill:none;stroke-width:0.7;stroke-linecap:round;stroke-linejoin:round;stroke-miterlimit:3;stroke:#000000;stroke-opacity:0.4" d="M9.65 12.35Q10.2 11.45 11.75 11.35" />
<path style="fill:none;stroke-width:0.7;stroke-linecap:round;stroke-linejoin:round;stroke-miterlimit:3;stroke:#000000;stroke-opacity:0.4" d="M5.3 6.45Q4.65 6.6 4.35 6.9" />
<path style="fill:none;stroke-width:0.7;stroke-linecap:round;stroke-linejoin:round;stroke-miterlimit:3;stroke:#000000;stroke-opacity:0.4" d="M17 15.75Q17.3 20.05 13.4 19.9" />
<path style="fill:none;stroke-width:0.7;stroke-linecap:round;stroke-linejoin:round;stroke-miterlimit:3;stroke:#000000;stroke-opacity:0.4" d="M11.75 17.4Q11.7 16.6 12.35 15.55L12.4 15.5" />
<path style="fill:none;stroke-width:0.7;stroke-linecap:round;stroke-linejoin:round;stroke-miterlimit:3;stroke:#000000;stroke-opacity:0.4" d="M9.65 12.35Q9.25 13.05 9.35 14.15" />
<path style="fill:none;stroke-width:0.7;stroke-linecap:round;stroke-linejoin:round;stroke-miterlimit:3;stroke:#000000;stroke-opacity:0.4" d="M12.4 15.5L14.1 13.65" />
<path style="fill:none;stroke-width:0.7;stroke-linecap:round;stroke-linejoin:round;stroke-miterlimit:3;stroke:#000000;stroke-opacity:0.4" d="M19.75 21.2L20.8 22.15L24.75 25.55Q25.35 26.3 26.3 25.85Q27.15 25.45 27.2 24.85" />
<path style="fill:none;stroke-width:0.7;stroke-linecap:round;stroke-linejoin:round;stroke-miterlimit:3;stroke:#000000;stroke-opacity:0.4" d="M31.15 25.75L29.55 23.65" />
<path style="fill:none;stroke-width:0.7;stroke-linecap:round;stroke-linejoin:round;stroke-miterlimit:3;stroke:#000000;stroke-opacity:0.4" d="M23.85 29L23.9 28.5L20.6 28.35Q19.25 27.55 18.75 26.2" />
<path style="fill:none;stroke-width:0.7;stroke-linecap:round;stroke-linejoin:round;stroke-miterlimit:3;stroke:#000000;stroke-opacity:0.4" d="M12.15 26.95Q12.95 28.2 13 29.4L13.75 28.15L13.75 28.1L12.15 26.95L10.2 25.55" />
<path style="fill:none;stroke-width:0.7;stroke-linecap:round;stroke-linejoin:round;stroke-miterlimit:3;stroke:#000000;stroke-opacity:0.4" d="M13.75 28.1L14.1 27.5" />
<path style="fill:none;stroke-width:0.7;stroke-linecap:round;stroke-linejoin:round;stroke-miterlimit:3;stroke:#000000;stroke-opacity:0.4" d="M15.7 32.7L16.15 31.4L14.85 30.4L12.8 31.2" />
<path style="fill:none;stroke-width:0.7;stroke-linecap:round;stroke-linejoin:round;stroke-miterlimit:3;stroke:#000000;stroke-opacity:0.4" d="M16.15 31.4L16.75 29.7L14.85 30.4" />
<path style="fill:none;stroke-width:0.7;stroke-linecap:round;stroke-linejoin:round;stroke-miterlimit:3;stroke:#000000;stroke-opacity:0.4" d="M12 31.2L13 29.4" />
<path style="fill:none;stroke-width:0.7;stroke-linecap:round;stroke-linejoin:round;stroke-miterlimit:3;stroke:#000000;stroke-opacity:0.4" d="M23.9 28.5L24.75 25.55" />
<path style="fill:none;stroke-width:0.7;stroke-linecap:round;stroke-linejoin:round;stroke-miterlimit:3;stroke:#000000;stroke-opacity:0.4" d="M20.8 22.15L18.75 26.2" />
<path style="fill:none;stroke-width:0.7;stroke-linecap:round;stroke-linejoin:round;stroke-miterlimit:3;stroke:#000000;stroke-opacity:0.4" d="M18.5 14.7Q22.25 14.45 25.65 19.05" />
<path style="fill:none;stroke-width:0.7;stroke-linecap:round;stroke-linejoin:round;stroke-miterlimit:3;stroke:#000000;stroke-opacity:0.4" d="M22.65 12.4Q20.05 11.35 19 13.4" />
<path style="fill:none;stroke-width:0.7;stroke-linecap:round;stroke-linejoin:round;stroke-miterlimit:3;stroke:#000000;stroke-opacity:0.4" d="M19.35 14.45L23.35 14.6" />
</g>
</svg>
