<?xml version="1.0" encoding="utf-8"?>
<svg version="1.1" id="Layer_1"
xmlns="http://www.w3.org/2000/svg"
xmlns:xlink="http://www.w3.org/1999/xlink"
width="5px" height="5px"
xml:space="preserve">
<g id="PathID_399" transform="matrix(1, 0, 0, 1, 0.15, 0.15)">
<path style="fill:#808080;fill-opacity:1" d="M0.05 1.9Q0.1 1.15 0.65 0.6Q1.3 0 2.2 0L3.1 0.2Q3.7 1.25 3.35 2.1Q3 2.95 1.9 3.1Q0.45 3.3 0.05 1.9M1.5 0.6Q1.1 0.6 0.85 0.9L0.6 1.55Q0.6 1.95 0.95 1.95L1.5 1.55L1.75 0.85L1.5 0.6" />
<path style="fill:#4F4943;fill-opacity:1" d="M1.9 3.1Q3 2.95 3.35 2.1Q3.7 1.25 3.1 0.2Q3.45 0.35 3.7 0.6Q4.35 1.25 4.35 2.15Q4.35 3.05 3.7 3.7Q3.1 4.35 2.2 4.35Q1.3 4.35 0.65 3.7Q0 3.05 0 2.15L0.05 1.9Q0.45 3.3 1.9 3.1" />
<path style="fill:#D2D2D2;fill-opacity:1" d="M1.75 0.85L1.5 1.55L0.95 1.95Q0.6 1.95 0.6 1.55L0.85 0.9Q1.1 0.6 1.5 0.6L1.75 0.85" />
<path style="fill:none;stroke-width:0.7;stroke-linecap:round;stroke-linejoin:round;stroke-miterlimit:3;stroke:#000000;stroke-opacity:0.4" d="M3.1 0.2Q3.45 0.35 3.7 0.6Q4.35 1.25 4.35 2.15Q4.35 3.05 3.7 3.7Q3.1 4.35 2.2 4.35Q1.3 4.35 0.65 3.7Q0 3.05 0 2.15L0.05 1.9Q0.1 1.15 0.65 0.6Q1.3 0 2.2 0L3.1 0.2z" />
</g>
</svg>
