<?xml version="1.0" encoding="utf-8"?>
<svg version="1.1" id="Layer_1"
xmlns="http://www.w3.org/2000/svg"
xmlns:xlink="http://www.w3.org/1999/xlink"
width="30px" height="32px"
xml:space="preserve">
<g id="PathID_1990" transform="matrix(1, 0, 0, 1, 14.35, 15.2)">
<path style="fill:none;stroke-width:0.7;stroke-linecap:round;stroke-linejoin:round;stroke-miterlimit:3;stroke:#000000;stroke-opacity:0.2" d="M0.4 -9.6L0.3 -9.75Q-0.4 -11.9 0.8 -12.7Q1.6 -13.3 2.75 -13.2L3.3 -13.1L4.3 -12.8L5.3 -12.35L6.6 -11.4L7 -11L7.55 -9.75Q7.75 -8.65 7.4 -6.95" />
<path style="fill:none;stroke-width:0.7;stroke-linecap:round;stroke-linejoin:round;stroke-miterlimit:3;stroke:#000000;stroke-opacity:0.301961" d="M7.4 -6.95L7.45 -5.5Q7.5 -4.35 8.25 -3.45L10.05 -2.15" />
<path style="fill:none;stroke-width:0.7;stroke-linecap:round;stroke-linejoin:round;stroke-miterlimit:3;stroke:#000000;stroke-opacity:0.2" d="M10.05 -2.15L13.4 -1.6" />
<path style="fill:none;stroke-width:0.7;stroke-linecap:round;stroke-linejoin:round;stroke-miterlimit:3;stroke:#000000;stroke-opacity:0.301961" d="M13.4 -1.6L14.4 -2.05Q15.4 -2.75 15.15 -4.3Q14.6 -3.4 13.75 -3.35Q13.05 -3.35 12.95 -3.65Q13.55 -3.75 13.95 -4.25Q14.4 -4.85 14.4 -5.8Q13.7 -5.1 12.85 -5.05L12.1 -5.1" />
<path style="fill:none;stroke-width:0.7;stroke-linecap:round;stroke-linejoin:round;stroke-miterlimit:3;stroke:#000000;stroke-opacity:0.2" d="M12.1 -5.1L12.05 -5.1Q11.05 -5.5 10.55 -6.45L10.2 -7.8L10.05 -8.9L9.4 -11.8" />
<path style="fill:none;stroke-width:0.7;stroke-linecap:round;stroke-linejoin:round;stroke-miterlimit:3;stroke:#000000;stroke-opacity:0.301961" d="M9.4 -11.8Q8.65 -13.1 7.55 -13.7L6.65 -14Q5.8 -14.2 4.75 -14L4.7 -14" />
<path style="fill:none;stroke-width:0.7;stroke-linecap:round;stroke-linejoin:round;stroke-miterlimit:3;stroke:#000000;stroke-opacity:0.101961" d="M4.7 -14L2.65 -14.1Q0.5 -14 -0.2 -13.1L-0.75 -12.05L-0.85 -11.65Q-0.25 -10.9 -0.1 -10.15L0.4 -9.6" />
<path style="fill:none;stroke-width:0.7;stroke-linecap:round;stroke-linejoin:round;stroke-miterlimit:3;stroke:#000000;stroke-opacity:0.2" d="M0.4 -9.6L1.3 -7.85" />
<path style="fill:none;stroke-width:0.7;stroke-linecap:round;stroke-linejoin:round;stroke-miterlimit:3;stroke:#000000;stroke-opacity:0.301961" d="M1.3 -7.85L1.95 -9.4L2.5 -8.75" />
<path style="fill:none;stroke-width:0.7;stroke-linecap:round;stroke-linejoin:round;stroke-miterlimit:3;stroke:#000000;stroke-opacity:0.101961" d="M2.5 -8.75L2.05 -9.75Q1.6 -10.9 1.7 -11.6Q1.85 -12.75 2.75 -13.2" />
<path style="fill:none;stroke-width:0.7;stroke-linecap:round;stroke-linejoin:round;stroke-miterlimit:3;stroke:#000000;stroke-opacity:0.301961" d="M4.7 -14L2.15 -14.7" />
<path style="fill:none;stroke-width:0.7;stroke-linecap:round;stroke-linejoin:round;stroke-miterlimit:3;stroke:#000000;stroke-opacity:0.101961" d="M2.15 -14.7Q-0.35 -14.6 -1.2 -13.85L-1.9 -13.1L-2.1 -12.75L-0.85 -11.65L-2.8 -11.75Q-3.55 -11.5 -4.3 -10.6L-5.6 -7.75L-7.9 -0.6L-8 3.8L-7.95 4.95" />
<path style="fill:none;stroke-width:0.7;stroke-linecap:round;stroke-linejoin:round;stroke-miterlimit:3;stroke:#000000;stroke-opacity:0.101961" d="M6.6 -11.4Q5.75 -11.5 5.4 -10.7L5.2 -9.5L5.25 -8.95" />
<path style="fill:none;stroke-width:0.7;stroke-linecap:round;stroke-linejoin:round;stroke-miterlimit:3;stroke:#000000;stroke-opacity:0.301961" d="M5.25 -8.95L6.2 -8.3" />
<path style="fill:none;stroke-width:0.7;stroke-linecap:round;stroke-linejoin:round;stroke-miterlimit:3;stroke:#000000;stroke-opacity:0.101961" d="M6.2 -8.3L6.65 -9.2Q6.9 -9.6 7.55 -9.75" />
<path style="fill:none;stroke-width:0.7;stroke-linecap:round;stroke-linejoin:round;stroke-miterlimit:3;stroke:#000000;stroke-opacity:0.301961" d="M4.05 -8.35L5.1 -8.3L5.1 -9L5.25 -8.95" />
<path style="fill:none;stroke-width:0.7;stroke-linecap:round;stroke-linejoin:round;stroke-miterlimit:3;stroke:#000000;stroke-opacity:0.301961" d="M7.4 -6.95L6.2 -8.3" />
<path style="fill:none;stroke-width:0.7;stroke-linecap:round;stroke-linejoin:round;stroke-miterlimit:3;stroke:#000000;stroke-opacity:0.101961" d="M5.3 -12.35Q3.85 -12.55 3.3 -11.5Q2.95 -10.8 3.45 -9.55L3.6 -9.3L4.05 -8.35" />
<path style="fill:none;stroke-width:0.7;stroke-linecap:round;stroke-linejoin:round;stroke-miterlimit:3;stroke:#000000;stroke-opacity:0.301961" d="M4.05 -8.35L2.8 -8.4L2.5 -8.75" />
<path style="fill:none;stroke-width:0.7;stroke-linecap:round;stroke-linejoin:round;stroke-miterlimit:3;stroke:#000000;stroke-opacity:0.301961" d="M0.85 -7.8L1.25 -7.8L1.3 -7.85" />
<path style="fill:none;stroke-width:0.7;stroke-linecap:round;stroke-linejoin:round;stroke-miterlimit:3;stroke:#000000;stroke-opacity:0.301961" d="M-0.95 -7.05L-0.4 -7.1L-0.35 -7.9L0.4 -7.2L0.4 -7.8L0.85 -7.8" />
<path style="fill:none;stroke-width:0.7;stroke-linecap:round;stroke-linejoin:round;stroke-miterlimit:3;stroke:#000000;stroke-opacity:0.2" d="M0.85 -7.8Q-0.6 -9.65 -0.85 -9.2L-1 -8L-0.95 -7.05" />
<path style="fill:none;stroke-width:0.7;stroke-linecap:round;stroke-linejoin:round;stroke-miterlimit:3;stroke:#000000;stroke-opacity:0.301961" d="M-0.95 -7.05L-1 -7.05L-1 -6.4Q-1.05 -5.6 -1.35 -4.85L-2.35 -2.8L-3.3 0L-3.3 0.1Q-3.5 1.5 -3 2.6Q-2.45 3.9 -1.3 4.4L0.2 4.85Q1.3 4.85 2.05 3.75Q1.9 5.3 0.5 6L-0.9 6.4Q0.85 7.45 2.1 6.25Q1.9 7.55 0.25 7.9L-1.4 8.05L-0.8 9.2Q-0.25 10.45 -0.4 11.1Q-0.6 12.15 -1.7 12.6Q-1.4 10.9 -2.45 9.75Q-2.4 11.15 -2.5 11.7Q-2.7 12.9 -3.6 13.8Q-4.45 14.65 -6 14.85L-7.35 14.9Q-5.7 12.65 -5.7 12.15Q-5.7 11.85 -6 11.45L-6.35 11.1L-6.35 11.15L-6.8 12.25Q-7.55 13.15 -8.4 13.45Q-7.95 14.05 -8.05 15.4L-8.5 14.65Q-9 14 -9.35 14.25L-9.4 14.25Q-9.45 15.3 -8.15 15.8Q-9.95 15.3 -10.2 14.7L-10.35 13.65L-10.35 13.05L-11.35 12.35Q-12.35 11.4 -12.5 10.2Q-12.7 8.25 -11.3 4.85L-11.35 4.85L-11.95 4.9L-12.95 4.55Q-10.95 4.15 -11.05 2.2Q-12.15 3.15 -13.25 2.55L-14.2 1.7L-13.25 1.85Q-12.15 1.85 -11.85 0.95L-11.6 0.05Q-11.15 -2.25 -10.6 -7.2L-10.3 -8.45Q-9.6 -11 -8.1 -12.45Q-6.95 -13.55 -4.8 -13.75L-2.9 -13.7Q-1.35 -14.9 -0.35 -15.05L2.15 -14.7" />
<path style="fill:none;stroke-width:0.7;stroke-linecap:round;stroke-linejoin:round;stroke-miterlimit:3;stroke:#000000;stroke-opacity:0.301961" d="M12.05 -5.1L12.05 -5.15Q11.8 -8.1 11.25 -9.45L10.35 -10.9L9.4 -11.8" />
<path style="fill:none;stroke-width:0.7;stroke-linecap:round;stroke-linejoin:round;stroke-miterlimit:3;stroke:#000000;stroke-opacity:0.301961" d="M10.05 -2.15L10.2 -2.05L11.85 -0.75Q12.25 0.15 11.8 1.9L11.6 2.45" />
<path style="fill:none;stroke-width:0.7;stroke-linecap:round;stroke-linejoin:round;stroke-miterlimit:3;stroke:#000000;stroke-opacity:0.101961" d="M11.6 2.45Q11.4 3.15 11.5 4.95Q11.55 5.85 11.95 6.85" />
<path style="fill:none;stroke-width:0.7;stroke-linecap:round;stroke-linejoin:round;stroke-miterlimit:3;stroke:#000000;stroke-opacity:0.301961" d="M11.95 6.85L11.95 6.8L12.65 7.85Q13.5 8.9 14.65 8.95Q13.15 7.7 12.8 6.6Q12.6 6 12.8 4.95L13.85 1.25Q14.25 -0.25 13.4 -1.6" />
<path style="fill:none;stroke-width:0.7;stroke-linecap:round;stroke-linejoin:round;stroke-miterlimit:3;stroke:#000000;stroke-opacity:0.101961" d="M-11.05 2.2L-10.65 1.6Q-9.4 -0.3 -8.65 -2.75L-7.9 -6.25L-7.55 -7.65L-7.3 -8.45L-6.8 -9.7Q-5.5 -11.95 -3.5 -12.7L-2.1 -12.75L-2.9 -13.7" />
<path style="fill:none;stroke-width:0.7;stroke-linecap:round;stroke-linejoin:round;stroke-miterlimit:3;stroke:#000000;stroke-opacity:0.101961" d="M-0.1 -10.15L-1.35 -11Q-2.85 -11.55 -3.65 -9.5L-4.3 -7.65L-4.95 -5.4L-5.65 -2L-5.75 -0.65L-5.6 1.45L-5.45 2.35Q-5.15 3.55 -3.7 5.05Q-2 6.85 -1.4 8.05" />
<path style="fill:none;stroke-width:0.7;stroke-linecap:round;stroke-linejoin:round;stroke-miterlimit:3;stroke:#000000;stroke-opacity:0.101961" d="M-7.9 -0.6L-8.2 0.1L-10.1 4.15L-10.55 5.5L-11.05 7.5Q-11.1 8.3 -10.5 9.25" />
<path style="fill:none;stroke-width:0.7;stroke-linecap:round;stroke-linejoin:round;stroke-miterlimit:3;stroke:#000000;stroke-opacity:0.301961" d="M-10.5 9.25Q-10.2 10.2 -8.95 10.7L-7.7 11L-7.75 11.5Q-8.6 11.7 -9.55 12.45" />
<path style="fill:none;stroke-width:0.7;stroke-linecap:round;stroke-linejoin:round;stroke-miterlimit:3;stroke:#000000;stroke-opacity:0.101961" d="M-9.55 12.45L-10.35 13.05" />
<path style="fill:none;stroke-width:0.7;stroke-linecap:round;stroke-linejoin:round;stroke-miterlimit:3;stroke:#000000;stroke-opacity:0.101961" d="M-5.6 1.45Q-6 3.1 -5.9 3.95L-5.65 5.05L-4.95 6.4L-3.8 7.75Q-2.95 8.65 -2.45 9.75" />
<path style="fill:none;stroke-width:0.7;stroke-linecap:round;stroke-linejoin:round;stroke-miterlimit:3;stroke:#000000;stroke-opacity:0.101961" d="M-6.35 11.15L-8.35 8.2L-8.4 8.1L-7.8 6.25L-7.9 5.2" />
<path style="fill:none;stroke-width:0.7;stroke-linecap:round;stroke-linejoin:round;stroke-miterlimit:3;stroke:#000000;stroke-opacity:0.101961" d="M-7.8 6.25Q-7.4 9.45 -6.35 11.15" />
<path style="fill:none;stroke-width:0.7;stroke-linecap:round;stroke-linejoin:round;stroke-miterlimit:3;stroke:#000000;stroke-opacity:0.301961" d="M-10.5 9.25L-10.75 10.6L-10.75 11.45L-9.55 12.45" />
<path style="fill:none;stroke-width:0.7;stroke-linecap:round;stroke-linejoin:round;stroke-miterlimit:3;stroke:#000000;stroke-opacity:0.101961" d="M-8.4 13.45L-9.35 14.25" />
<path style="fill:none;stroke-width:0.7;stroke-linecap:round;stroke-linejoin:round;stroke-miterlimit:3;stroke:#000000;stroke-opacity:0.101961" d="M-10.1 4.15Q-10.65 4.7 -11.35 4.85" />
<path style="fill:none;stroke-width:0.7;stroke-linecap:round;stroke-linejoin:round;stroke-miterlimit:3;stroke:#000000;stroke-opacity:0.301961" d="M10.6 10.6L11.85 11.2L14.4 11.25Q12.6 10.5 12.05 8.55L12 7.85L11.95 6.85" />
<path style="fill:none;stroke-width:0.7;stroke-linecap:round;stroke-linejoin:round;stroke-miterlimit:3;stroke:#000000;stroke-opacity:0.301961" d="M11.6 2.45L10 4.4L9.95 4.45" />
<path style="fill:none;stroke-width:0.7;stroke-linecap:round;stroke-linejoin:round;stroke-miterlimit:3;stroke:#000000;stroke-opacity:0.101961" d="M9.95 4.45Q8.7 6.1 9 8.5L9 8.55L9.45 9.4Q9.95 10.3 10.6 10.6" />
<path style="fill:none;stroke-width:0.7;stroke-linecap:round;stroke-linejoin:round;stroke-miterlimit:3;stroke:#000000;stroke-opacity:0.301961" d="M10.6 10.6Q11.2 11.85 10.45 12.7Q10.05 13.15 9.05 13.45Q8 13.7 7.75 14.05Q7.25 14.65 7.65 15.25Q8.1 15.95 9.7 16.35Q8.15 16.4 7 15.65Q6.15 15 5.95 14.3Q5.8 13.85 6.85 12.5Q7.7 11.3 8 11.15L7.25 11.5L5.25 11.7Q6.7 10.9 7.35 9.5Q5.85 10.4 4.5 10.2Q6.05 9.25 7 6.4L9.95 4.45" />
<path style="fill:none;stroke-width:0.7;stroke-linecap:round;stroke-linejoin:round;stroke-miterlimit:3;stroke:#000000;stroke-opacity:0.101961" d="M8 11.15Q8.75 10.55 9 8.55" />
</g>
</svg>
