<?xml version="1.0" encoding="utf-8"?>
<svg version="1.1" id="Layer_1"
xmlns="http://www.w3.org/2000/svg"
xmlns:xlink="http://www.w3.org/1999/xlink"
width="19px" height="17px"
xml:space="preserve">
<g id="PathID_3316" transform="matrix(1, 0, 0, 1, -0.25, 0.05)">
<radialGradient
id="RadialGradID_1075" gradientUnits="userSpaceOnUse" gradientTransform="matrix(0.00598145, 0, 0, 0.00598145, 15.6, 1.75)" spreadMethod ="pad" cx="0" cy="0" r="819.2" fx="0" fy="0" >
<stop  offset="0"  style="stop-color:#958E8E;stop-opacity:1" />
<stop  offset="1"  style="stop-color:#808080;stop-opacity:1" />
</radialGradient>
<path style="fill:url(#RadialGradID_1075) " d="M16.9 2.7L18.6 4.5L17.35 5.95Q15.7 7.4 13.65 7.35Q12.1 7.3 11.75 3.45Q11.4 -0.45 12.65 0Q14.8 0.8 16.9 2.7" />
<path style="fill:#5B5651;fill-opacity:1" d="M5.9 2.7Q5.9 3.35 4.95 3.55Q3.85 3.8 2.7 2.65Q4 0.95 5.65 0.15L5.9 2.7M3.7 10.15Q4.75 10.15 6.1 14.85Q5.65 15.65 4.05 16.25L2.3 16.75Q0.25 16.3 0.25 14.85Q0.25 13.5 1.9 11.75Q3.45 10.15 3.7 10.15" />
</g>
</svg>
