<?xml version="1.0" encoding="utf-8"?>
<svg version="1.1" id="Layer_1"
xmlns="http://www.w3.org/2000/svg"
xmlns:xlink="http://www.w3.org/1999/xlink"
width="33px" height="12px"
xml:space="preserve">
<g id="PathID_420" transform="matrix(1, 0, 0, 1, 0.15, 0.15)">
<path style="fill:#585452;fill-opacity:1" d="M31.8 0.5L31.85 1.1L25.9 3.4L25.7 3.05L31.8 0.5M11.6 7.05Q11.75 7.35 11.4 7.75L0.05 11.4L0.05 10.75L11.6 7.05" />
<path style="fill:#808080;fill-opacity:1" d="M25.7 3.05L25.3 2.35L31.15 0Q31.65 0.05 31.8 0.5L25.7 3.05M0.05 10.75L0 10.1L10.85 6.6Q11.45 6.75 11.6 7.05L0.05 10.75" />
<path style="fill:none;stroke-width:0.7;stroke-linecap:round;stroke-linejoin:round;stroke-miterlimit:3;stroke:#000000;stroke-opacity:0.301961" d="M31.8 0.5L31.85 1.1L25.9 3.4L25.7 3.05L25.3 2.35L31.15 0Q31.65 0.05 31.8 0.5z" />
<path style="fill:none;stroke-width:0.7;stroke-linecap:round;stroke-linejoin:round;stroke-miterlimit:3;stroke:#000000;stroke-opacity:0.301961" d="M11.6 7.05Q11.75 7.35 11.4 7.75L0.05 11.4L0.05 10.75L0 10.1L10.85 6.6Q11.45 6.75 11.6 7.05z" />
</g>
</svg>
