<?xml version="1.0" encoding="utf-8"?>
<svg version="1.1" id="Layer_1"
xmlns="http://www.w3.org/2000/svg"
xmlns:xlink="http://www.w3.org/1999/xlink"
width="17px" height="14px"
xml:space="preserve">
<g id="PathID_2553" transform="matrix(1, 0, 0, 1, 0.15, 0.15)">
<path style="fill:#808080;fill-opacity:1" d="M13.15 3.7Q11.35 2.75 9.2 2.8Q6.7 2.9 5.15 4.25Q3.55 5.65 3.85 7.6Q4.15 9.5 6.05 10.85Q8.05 12.15 10.55 12.1Q12.95 12 14.5 10.65L15.7 9L16.1 10.4L15.1 11.55L13.9 12.5Q11.95 13.55 9.45 13.5Q6.9 13.35 4.85 11.85Q2.45 10.15 2.15 7.65Q1.8 5.1 3.7 3.25Q5.6 1.5 8.6 1.45L11.5 1.8L13.15 3.7M12.6 5.6L12.15 6.35L13.55 7.4Q13.75 7.75 13.35 8.75Q12.9 9.8 12.55 9.8Q12.05 9.8 10.15 8.7L9.05 9.7L8 9.55L6.95 8.9Q6.85 8.65 7.9 7.25L6.1 5.75Q6.1 5.2 7 4.5Q7.9 3.8 8.15 3.75Q8.35 3.7 9.85 4.75L11 3.65Q11.3 3.5 12.05 4.35L12.6 5.6M10.05 0.9L9.65 1.1L9.05 1.05L8.5 0.8L8.35 0.3L8.85 0.05L9.45 0.15L9.9 0.6L10.05 0.9M5.7 0.35Q5.85 0.2 6.3 0.1L6.9 0.1L7.25 0.35L7.25 0.85L6.6 1.25L6 1.2L5.6 0.9L5.7 0.35M3.5 2.3L3.05 2.1L3 1.5L3.5 0.95L4.1 0.8L4.55 1.05L4.65 1.6L4.1 2.15L3.5 2.3M2.1 2.95L2.45 3.4L2.25 4.15L1.8 4.55L1.25 4.65L0.9 4.1L1.05 3.45L1.55 2.95Q1.85 2.8 2.1 2.95M1.2 6.05L1.4 6.8L1.2 7.4L0.75 7.7L0.2 7.4L0 6.75L0.2 6.1Q0.4 5.85 0.7 5.85L1.2 6.05M1.4 8.85Q1.7 9 1.8 9.45L1.75 10.1L1.35 10.55L0.8 10.4L0.45 9.85L0.45 9.15L0.85 8.8L1.4 8.85M2.2 11.85Q2.4 11.65 2.7 11.65L3.35 11.95L3.65 12.55L3.5 13.1L2.95 13.3Q2.65 13.3 2.35 13L2 12.35L2.2 11.85" />
<path style="fill:none;stroke-width:0.7;stroke-linecap:round;stroke-linejoin:round;stroke-miterlimit:3;stroke:#000000;stroke-opacity:0.4" d="M13.15 3.7Q11.35 2.75 9.2 2.8Q6.7 2.9 5.15 4.25Q3.55 5.65 3.85 7.6Q4.15 9.5 6.05 10.85Q8.05 12.15 10.55 12.1Q12.95 12 14.5 10.65L15.7 9L16.1 10.4L15.1 11.55L13.9 12.5Q11.95 13.55 9.45 13.5Q6.9 13.35 4.85 11.85Q2.45 10.15 2.15 7.65Q1.8 5.1 3.7 3.25Q5.6 1.5 8.6 1.45L11.5 1.8L13.15 3.7z" />
<path style="fill:none;stroke-width:0.7;stroke-linecap:round;stroke-linejoin:round;stroke-miterlimit:3;stroke:#000000;stroke-opacity:0.4" d="M12.6 5.6L12.15 6.35L13.55 7.4Q13.75 7.75 13.35 8.75Q12.9 9.8 12.55 9.8Q12.05 9.8 10.15 8.7L9.05 9.7L8 9.55L6.95 8.9Q6.85 8.65 7.9 7.25L6.1 5.75Q6.1 5.2 7 4.5Q7.9 3.8 8.15 3.75Q8.35 3.7 9.85 4.75L11 3.65Q11.3 3.5 12.05 4.35L12.6 5.6z" />
<path style="fill:none;stroke-width:0.7;stroke-linecap:round;stroke-linejoin:round;stroke-miterlimit:3;stroke:#000000;stroke-opacity:0.4" d="M10.05 0.9L9.65 1.1L9.05 1.05L8.5 0.8L8.35 0.3L8.85 0.05L9.45 0.15L9.9 0.6L10.05 0.9z" />
<path style="fill:none;stroke-width:0.7;stroke-linecap:round;stroke-linejoin:round;stroke-miterlimit:3;stroke:#000000;stroke-opacity:0.4" d="M5.7 0.35Q5.85 0.2 6.3 0.1L6.9 0.1L7.25 0.35L7.25 0.85L6.6 1.25L6 1.2L5.6 0.9L5.7 0.35z" />
<path style="fill:none;stroke-width:0.7;stroke-linecap:round;stroke-linejoin:round;stroke-miterlimit:3;stroke:#000000;stroke-opacity:0.4" d="M3.5 2.3L3.05 2.1L3 1.5L3.5 0.95L4.1 0.8L4.55 1.05L4.65 1.6L4.1 2.15L3.5 2.3z" />
<path style="fill:none;stroke-width:0.7;stroke-linecap:round;stroke-linejoin:round;stroke-miterlimit:3;stroke:#000000;stroke-opacity:0.4" d="M2.1 2.95L2.45 3.4L2.25 4.15L1.8 4.55L1.25 4.65L0.9 4.1L1.05 3.45L1.55 2.95Q1.85 2.8 2.1 2.95z" />
<path style="fill:none;stroke-width:0.7;stroke-linecap:round;stroke-linejoin:round;stroke-miterlimit:3;stroke:#000000;stroke-opacity:0.4" d="M1.2 6.05L1.4 6.8L1.2 7.4L0.75 7.7L0.2 7.4L0 6.75L0.2 6.1Q0.4 5.85 0.7 5.85L1.2 6.05z" />
<path style="fill:none;stroke-width:0.7;stroke-linecap:round;stroke-linejoin:round;stroke-miterlimit:3;stroke:#000000;stroke-opacity:0.4" d="M1.4 8.85Q1.7 9 1.8 9.45L1.75 10.1L1.35 10.55L0.8 10.4L0.45 9.85L0.45 9.15L0.85 8.8L1.4 8.85z" />
<path style="fill:none;stroke-width:0.7;stroke-linecap:round;stroke-linejoin:round;stroke-miterlimit:3;stroke:#000000;stroke-opacity:0.4" d="M2.2 11.85Q2.4 11.65 2.7 11.65L3.35 11.95L3.65 12.55L3.5 13.1L2.95 13.3Q2.65 13.3 2.35 13L2 12.35L2.2 11.85z" />
</g>
</svg>
