<?xml version="1.0" encoding="utf-8"?>
<svg version="1.1" id="Layer_1"
xmlns="http://www.w3.org/2000/svg"
xmlns:xlink="http://www.w3.org/1999/xlink"
width="26px" height="28px"
xml:space="preserve">
<g id="PathID_2822" transform="matrix(1, 0, 0, 1, 0, 0)">
<radialGradient
id="RadialGradID_873" gradientUnits="userSpaceOnUse" gradientTransform="matrix(0.0191498, 0, 0, 0.017807, 16.65, -1)" spreadMethod ="pad" cx="0" cy="0" r="819.2" fx="0" fy="0" >
<stop  offset="0"  style="stop-color:#C2C2C2;stop-opacity:1" />
<stop  offset="1"  style="stop-color:#808080;stop-opacity:1" />
</radialGradient>
<path style="fill:url(#RadialGradID_873) " d="M8.25 16.75Q8.15 20.45 7 22.7Q0.7 24.1 0.05 17.05Q0.2 14.6 0.85 12.4Q1.8 9.1 3.7 6.35Q5.55 3.55 9.15 1.75Q12.65 -0.1 14.1 0Q15.55 0.05 17.45 0.9Q19.4 1.65 21.05 2.85Q22.65 3.95 23.7 5.25Q24.7 6.5 25.3 7.95L24.4 9.1Q21.9 8.2 20.35 8.2Q16.85 8.2 14.1 10.1Q12.95 10.9 11.8 12.85L11.55 13.35L8.25 16.75" />
<path style="fill:#4F4943;fill-opacity:1" d="M0.05 17.05Q0.7 24.1 7 22.7Q8.15 20.45 8.25 16.75L11.55 13.35Q10.35 15.4 10.45 17.15Q10.5 18.15 11.45 19.85L12.45 21.55L13.2 22.6L13.7 23.55L13.45 23.85L12.95 23.95L11.15 25.2Q8.8 27.45 5.7 27.15Q2.65 26.8 1.35 25.2Q0.1 23.6 0 19.7L0.05 17.05" />
<path style="fill:none;stroke-width:0.7;stroke-linecap:round;stroke-linejoin:round;stroke-miterlimit:3;stroke:#000000;stroke-opacity:0.4" d="M11.55 13.35L11.8 12.85Q12.95 10.9 14.1 10.1Q16.85 8.2 20.35 8.2Q21.9 8.2 24.4 9.1L25.3 7.95Q24.7 6.5 23.7 5.25Q22.65 3.95 21.05 2.85Q19.4 1.65 17.45 0.9Q15.55 0.05 14.1 0Q12.65 -0.1 9.15 1.75Q5.55 3.55 3.7 6.35Q1.8 9.1 0.85 12.4Q0.2 14.6 0.05 17.05" />
<path style="fill:none;stroke-width:0.7;stroke-linecap:round;stroke-linejoin:round;stroke-miterlimit:3;stroke:#000000;stroke-opacity:0.4" d="M11.55 13.35Q10.35 15.4 10.45 17.15Q10.5 18.15 11.45 19.85L12.45 21.55L13.2 22.6L13.7 23.55L13.45 23.85L12.95 23.95L11.15 25.2Q8.8 27.45 5.7 27.15Q2.65 26.8 1.35 25.2Q0.1 23.6 0 19.7L0.05 17.05" />
</g>
</svg>
