<?xml version="1.0" encoding="utf-8"?>
<svg version="1.1" id="Layer_1"
xmlns="http://www.w3.org/2000/svg"
xmlns:xlink="http://www.w3.org/1999/xlink"
width="11px" height="6px"
xml:space="preserve">
<g id="PathID_3364" transform="matrix(1, 0, 0, 1, 0, 0)">
<path style="fill:#808080;fill-opacity:1" d="M1.85 5L1.8 4.95L0.35 3.9L0.3 3.4L0 2.35Q4.45 1 5.9 0.75L9.75 0Q10.75 1.7 10.65 2.5L10.55 3L9.85 3.05Q6.15 3.35 2.3 5.2L1.85 5" />
<path style="fill:none;stroke-width:0.7;stroke-linecap:round;stroke-linejoin:miter;stroke-miterlimit:5;stroke:#000000;stroke-opacity:0.4" d="M1.85 5L1.8 4.95L0.35 3.9L0.3 3.4L0 2.35Q4.45 1 5.9 0.75L9.75 0Q10.75 1.7 10.65 2.5L10.55 3L9.85 3.05Q6.15 3.35 2.3 5.2" />
</g>
</svg>
