<?xml version="1.0" encoding="utf-8"?>
<svg version="1.1" id="Layer_1"
xmlns="http://www.w3.org/2000/svg"
xmlns:xlink="http://www.w3.org/1999/xlink"
width="20px" height="11px"
xml:space="preserve">
<g id="PathID_3488" transform="matrix(1, 0, 0, 1, 0, 0)">
<path style="fill:#808080;fill-opacity:1" d="M16.9 3.55Q9 7.7 0.2 10.35L0 9.95Q0.4 9.3 1.55 9.3Q1.95 9.65 2.5 9.05L3.2 8.5L4.3 8.7L5.35 8.05L6.65 7.7L7.4 7.15L8.45 6.95L9.7 6.25L10.65 6.35L11.85 5.8L13.1 4.75L14.3 4.65Q15.1 3.85 16.05 3.8L16.3 3.55L17.05 2.8Q17.7 2.35 18.45 2.25Q19.7 1.25 19.95 0Q20 1.8 17.05 3.5L16.9 3.55" />
</g>
</svg>
