<?xml version="1.0" encoding="utf-8"?>
<svg version="1.1" id="Layer_1"
xmlns="http://www.w3.org/2000/svg"
xmlns:xlink="http://www.w3.org/1999/xlink"
width="18px" height="14px"
xml:space="preserve">
<g id="PathID_3104" transform="matrix(1, 0, 0, 1, 6.7, 21.5)">
<path style="fill:#FFFFFF;fill-opacity:1" d="M1.6 -18.45L0.85 -18L0.35 -17.95L0.95 -18.45L1.6 -18.45M2.95 -14Q4.05 -13.1 4.35 -11.5L4.25 -11.4Q4.05 -12.3 2.9 -14L2.95 -14M4.5 -15.3L5.5 -15L5.45 -14.8L3.7 -15.05L3.7 -15.25L4.5 -15.3M6.25 -14.35L6.15 -14.15L5.85 -14.5Q6.1 -14.7 6.25 -14.35M7.05 -13.35L7.45 -12.65L7.15 -13L6.95 -13.35L7.05 -13.35M7.45 -11.25L7.35 -11.4L7.6 -11.85L7.7 -11.75L7.45 -11.25M1.5 -8.9L1.25 -8.95L1.55 -9.1L1.7 -9.05L1.5 -8.9M0 -7.9L-0.1 -7.85L-0.55 -8L-0.35 -8.1L0 -8.05L0 -7.9M0.2 -8.85L-0.2 -8.95L-0.3 -9.15L-0.1 -9.15L0.85 -9L0.75 -8.9L0.2 -8.85M-1.85 -16.8L-2.2 -17L-1.9 -17.35L-1.35 -17.55L-1 -17.45L-1.35 -17.15L-1.85 -16.8" />
</g>
<g id="PathID_3105" transform="matrix(1, 0, 0, 1, 6.7, 21.5)">
<path style="fill:#F2F2F2;fill-opacity:0.592157" d="M1.4 -19.95L2.1 -19.45Q3.8 -20 6.05 -21.15Q3.85 -19.95 2.25 -18.6Q2.15 -17.9 1.6 -17.65L0.8 -17.55L0.4 -17.6L-0.95 -17.05L0 -18.05Q-0.2 -18.35 0 -19.2L-0.8 -20.1L-2.25 -21.5L-0.95 -20.65L0.45 -19.85L1.4 -19.95M0.4 -18.7L0.5 -18.35L0.75 -18.1L1.15 -18.2L1.4 -18.5L1 -19.05Q0.55 -19.15 0.4 -18.7" />
<path style="fill:#F2F2F2;fill-opacity:0.941176" d="M1 -19.05L1.4 -18.5L1.15 -18.2L0.75 -18.1L0.5 -18.35L0.4 -18.7Q0.55 -19.15 1 -19.05" />
</g>
<g id="PathID_3106" transform="matrix(1, 0, 0, 1, 6.7, 21.5)">
<path style="fill:#F2F2F2;fill-opacity:0.941176" d="M7 -14.05L7.25 -13.95L7.25 -13.5L6.55 -13.4L6.55 -13.7L6.7 -14.05L7 -14.05" />
<path style="fill:#F2F2F2;fill-opacity:0.592157" d="M6.7 -14.05L6.55 -13.7L6.55 -13.4L7.25 -13.5L7.25 -13.95L7 -14.05L6.7 -14.05M7.25 -14.8L7.8 -14.35L10.85 -15.75L7.9 -13.6Q7.9 -13.15 7.45 -12.8L6.5 -12.75L5.45 -12.35L6.15 -13.2Q5.95 -13.45 6.1 -13.95L5.6 -14.75L4.6 -15.95L6.35 -14.5L6.6 -14.7L7.25 -14.8" />
</g>
<g id="PathID_3107" transform="matrix(1, 0, 0, 1, 6.7, 21.5)">
<path style="fill:#F2F2F2;fill-opacity:0.592157" d="M-2.15 -13.45L-2.2 -12.45Q-1.85 -12.15 -1.9 -11.75L-0.95 -11.55L-2.15 -11.05Q-2.4 -10.8 -2.7 -10.8Q-3.1 -10.75 -3.45 -11.05Q-4.95 -11.3 -6.7 -11.1L-3.7 -11.8Q-3.8 -12.75 -2.9 -12.75L-1.95 -15.05L-2.15 -13.45M-2.45 -12L-2.7 -12.15L-2.95 -12L-3.1 -11.75L-2.65 -11.3L-2.45 -11.5L-2.35 -11.8L-2.45 -12" />
<path style="fill:#F2F2F2;fill-opacity:0.941176" d="M-2.35 -11.8L-2.45 -11.5L-2.65 -11.3L-3.1 -11.75L-2.95 -12L-2.7 -12.15L-2.45 -12L-2.35 -11.8" />
</g>
</svg>
