<?xml version="1.0" encoding="utf-8"?>
<svg version="1.1" id="Layer_1"
xmlns="http://www.w3.org/2000/svg"
xmlns:xlink="http://www.w3.org/1999/xlink"
width="30px" height="18px"
xml:space="preserve">
<g id="PathID_3394" transform="matrix(1, 0, 0, 1, 0.1, 0.1)">
<path style="fill:#808080;fill-opacity:1" d="M19 11.9Q18.15 10.4 18.25 8.9L18.2 8.9L23.65 8.75L18.2 8.9Q9.9 9.1 8.15 5.6Q14.05 5.2 16.55 3.6L21.3 0L25.4 3.55Q25.9 4.1 25.55 5.15L24 7.2L24.15 8.35L23.65 8.75L24 11.15L19 11.9M19.4 13.7L24.3 12.95L24.3 13.2L19.45 14.5Q28.85 15.35 28.95 15.6Q28.3 15.5 27.35 15.9L22.45 16.9Q20.6 16.1 19.45 14.5L24.3 13.2L19.4 13.7" />
<path style="fill:#5B5959;fill-opacity:1" d="M19.4 13.7Q18.25 13.1 18.45 12L19 11.9L24 11.15L24.4 11.1L24.7 12.9L24.3 12.95L19.4 13.7" />
<path style="fill:#4F4943;fill-opacity:1" d="M18.25 8.9L15.15 9.6Q9.85 11.1 5.45 14.15L5.55 15.05L5.45 14.15Q9.85 11.1 15.15 9.6L18.25 8.9Q18.15 10.4 19 11.9L18.45 12Q13.55 12.8 9 14.3Q8.05 15.4 8.45 16.25Q9.95 14.85 13.1 14.4L19.4 13.7L19.45 14.5L13.15 15.2L10.85 15.45L13.15 15.2L19.45 14.5Q20.6 16.1 22.45 16.9L27.35 15.9Q28.3 15.5 28.95 15.6L28.85 15.85L23.25 17.15L14.8 16.85Q12.75 15.4 10.85 15.45Q9.6 15.7 8.45 16.25Q7.2 16.85 5.95 17.8L5.55 15.05Q3.7 14.8 2.55 14.15L0 11.85Q2.5 11.95 4.1 10.85Q5.7 9.75 8.15 5.6Q9.9 9.1 18.2 8.9L18.25 8.9" />
<path style="fill:#2A2723;fill-opacity:1" d="M13.1 14.4Q9.95 14.85 8.45 16.25Q8.05 15.4 9 14.3Q13.55 12.8 18.45 12Q18.25 13.1 19.4 13.7L13.1 14.4" />
<path style="fill:none;stroke-width:0.7;stroke-linecap:round;stroke-linejoin:round;stroke-miterlimit:3;stroke:#000000;stroke-opacity:0.4" d="M8.15 5.6Q14.05 5.2 16.55 3.6L21.3 0L25.4 3.55Q25.9 4.1 25.55 5.15L24 7.2L24.15 8.35L23.65 8.75L24 11.15L24.4 11.1L24.7 12.9L24.3 12.95L24.3 13.2Q28.85 15.35 28.95 15.6L28.85 15.85L23.25 17.15L14.8 16.85Q12.75 15.4 10.85 15.45Q9.6 15.7 8.45 16.25Q7.2 16.85 5.95 17.8L5.55 15.05Q3.7 14.8 2.55 14.15L0 11.85Q2.5 11.95 4.1 10.85Q5.7 9.75 8.15 5.6z" />
<path style="fill:none;stroke-width:0.7;stroke-linecap:round;stroke-linejoin:round;stroke-miterlimit:3;stroke:#000000;stroke-opacity:0.4" d="M18.2 8.9L23.65 8.75" />
<path style="fill:none;stroke-width:0.7;stroke-linecap:round;stroke-linejoin:round;stroke-miterlimit:3;stroke:#000000;stroke-opacity:0.4" d="M19.45 14.5L13.15 15.2L10.85 15.45" />
<path style="fill:none;stroke-width:0.7;stroke-linecap:round;stroke-linejoin:round;stroke-miterlimit:3;stroke:#000000;stroke-opacity:0.4" d="M18.25 8.9L15.15 9.6Q9.85 11.1 5.45 14.15L5.55 15.05" />
<path style="fill:none;stroke-width:0.7;stroke-linecap:round;stroke-linejoin:round;stroke-miterlimit:3;stroke:#000000;stroke-opacity:0.4" d="M18.2 8.9L18.25 8.9" />
<path style="fill:none;stroke-width:0.7;stroke-linecap:round;stroke-linejoin:round;stroke-miterlimit:3;stroke:#000000;stroke-opacity:0.4" d="M19 11.9L18.45 12" />
<path style="fill:none;stroke-width:0.7;stroke-linecap:round;stroke-linejoin:round;stroke-miterlimit:3;stroke:#000000;stroke-opacity:0.4" d="M19.4 13.7L24.3 12.95" />
<path style="fill:none;stroke-width:0.7;stroke-linecap:round;stroke-linejoin:round;stroke-miterlimit:3;stroke:#000000;stroke-opacity:0.4" d="M18.45 12Q13.55 12.8 9 14.3Q8.05 15.4 8.45 16.25Q9.95 14.85 13.1 14.4L19.4 13.7" />
<path style="fill:none;stroke-width:0.7;stroke-linecap:round;stroke-linejoin:round;stroke-miterlimit:3;stroke:#000000;stroke-opacity:0.4" d="M19.45 14.5L24.3 13.2" />
<path style="fill:none;stroke-width:0.7;stroke-linecap:round;stroke-linejoin:round;stroke-miterlimit:3;stroke:#000000;stroke-opacity:0.4" d="M24 11.15L19 11.9" />
</g>
</svg>
