<?xml version="1.0" encoding="utf-8"?>
<svg version="1.1" id="Layer_1"
xmlns="http://www.w3.org/2000/svg"
xmlns:xlink="http://www.w3.org/1999/xlink"
width="15px" height="18px"
xml:space="preserve">
<g id="PathID_2645" transform="matrix(1, 0, 0, 1, 7.15, 8.6)">
<linearGradient
id="LinearGradID_761" gradientUnits="userSpaceOnUse" gradientTransform="matrix(-0.000732422, -0.00486755, 0.00386047, -0.000579834, 1.95, -3.2)" spreadMethod ="pad" x1="-819.2" y1="0" x2="819.2" y2="0" >
<stop  offset="0" style="stop-color:#3F3F3F;stop-opacity:1" />
<stop  offset="0.615686" style="stop-color:#808080;stop-opacity:1" />
<stop  offset="1" style="stop-color:#3F3F3F;stop-opacity:1" />
</linearGradient>
<path style="fill:url(#LinearGradID_761) " d="M4.15 -3.1Q5.5 -0.6 5.75 0.5L4.7 0.45Q1.1 -5.15 -1.9 -7.7Q-2.15 -7.95 -1.35 -8.4Q-0.95 -8.6 1.7 -7.1L4.15 -3.1" />
<linearGradient
id="LinearGradID_762" gradientUnits="userSpaceOnUse" gradientTransform="matrix(-0.000747681, -0.00500488, 0.00114441, -0.000167847, 5.7, -3.9)" spreadMethod ="pad" x1="-819.2" y1="0" x2="819.2" y2="0" >
<stop  offset="0" style="stop-color:#3F3F3F;stop-opacity:1" />
<stop  offset="0.615686" style="stop-color:#808080;stop-opacity:1" />
<stop  offset="1" style="stop-color:#3F3F3F;stop-opacity:1" />
</linearGradient>
<path style="fill:url(#LinearGradID_762) " d="M5.35 -7.85Q7.35 -1.1 7.15 0.45L6.55 0.45Q6.6 -1.1 4.3 -7.3L4.25 -7.35L4.45 -8.3Q4.6 -8.7 4.9 -8.6Q5.35 -8.45 5.35 -7.85" />
<linearGradient
id="LinearGradID_763" gradientUnits="userSpaceOnUse" gradientTransform="matrix(-0.00418091, -0.00450134, 0.00157166, -0.00144958, -4.3, 5.45)" spreadMethod ="pad" x1="-819.2" y1="0" x2="819.2" y2="0" >
<stop  offset="0" style="stop-color:#3F3F3F;stop-opacity:1" />
<stop  offset="0.615686" style="stop-color:#808080;stop-opacity:1" />
<stop  offset="1" style="stop-color:#3F3F3F;stop-opacity:1" />
</linearGradient>
<path style="fill:url(#LinearGradID_763) " d="M0.45 8.55L-2.2 8.05Q-5 7.35 -5.95 6.2Q-7.1 4.8 -7.15 0.95L-6.85 0.5L-6.65 0.3Q-6.45 4.35 -5.55 5.7Q-4.75 6.9 -2.15 7.55L0.2 7.95L0.45 8.55" />
</g>
</svg>
