<?xml version="1.0" encoding="utf-8"?>
<svg version="1.1" id="Layer_1"
xmlns="http://www.w3.org/2000/svg"
xmlns:xlink="http://www.w3.org/1999/xlink"
width="25px" height="26px"
xml:space="preserve">
<g id="PathID_2352" transform="matrix(1, 0, 0, 1, 0.15, 0.15)">
<path style="fill:#5D5D5D;fill-opacity:1" d="M10.65 12.45Q11.15 12.8 11.45 11.55Q11.9 10.25 11.55 9.05Q10.8 6.45 11.2 3.3L11.3 1.4Q12.05 0.95 12.25 0L13.2 2.25Q14.05 4.1 16.4 6.15Q18.7 8.2 18.2 10.9Q17.65 13.6 16.35 15.15Q15.05 16.7 13.2 16.4Q11.2 16.15 10.2 14.05Q9.25 12.5 9.55 10.05Q9.65 11.7 10.65 12.45" />
<path style="fill:#808080;fill-opacity:1" d="M9.55 10.05L9.7 8.9Q10.25 5.75 10.2 4.2L9.75 1.75L11.3 1.4L11.2 3.3Q10.8 6.45 11.55 9.05Q11.9 10.25 11.45 11.55Q11.15 12.8 10.65 12.45Q9.65 11.7 9.55 10.05" />
<path style="fill:none;stroke-width:0.7;stroke-linecap:round;stroke-linejoin:round;stroke-miterlimit:3;stroke:#000000;stroke-opacity:0.4" d="M12.25 0L13.2 2.25Q14.05 4.1 16.4 6.15Q18.7 8.2 18.2 10.9Q17.65 13.6 16.35 15.15Q15.05 16.7 13.2 16.4Q11.2 16.15 10.2 14.05Q9.25 12.5 9.55 10.05L9.7 8.9Q10.25 5.75 10.2 4.2L9.75 1.75" />
</g>
<g id="PathID_2353" transform="matrix(1, 0, 0, 1, 0.15, 0.15)">
<path style="fill:#5D5D5D;fill-opacity:1" d="M23.35 10.3Q23.65 10.25 23.75 10.65L23.75 12.15Q23.7 13.3 22.9 14.95L21.6 17.3Q21.15 18 19.9 18.5Q18.65 18.95 16.4 18Q14.15 17.05 13.65 15.2Q13.1 13.25 13.75 12.65Q14.35 11.95 15.8 11.9Q17.25 11.85 18.05 12.7Q18.85 13.55 19.55 13.75Q18.8 15 18.6 15.6Q23.1 10.25 23.35 10.3M18.6 15.6Q18.8 15 19.55 13.75" />
<path style="fill:none;stroke-width:0.7;stroke-linecap:round;stroke-linejoin:round;stroke-miterlimit:3;stroke:#000000;stroke-opacity:0.4" d="M19.55 13.75Q18.85 13.55 18.05 12.7Q17.25 11.85 15.8 11.9Q14.35 11.95 13.75 12.65Q13.1 13.25 13.65 15.2Q14.15 17.05 16.4 18Q18.65 18.95 19.9 18.5Q21.15 18 21.6 17.3L22.9 14.95Q23.7 13.3 23.75 12.15L23.75 10.65Q23.65 10.25 23.35 10.3Q23.1 10.25 19.55 13.75z" />
<path style="fill:none;stroke-width:0.7;stroke-linecap:round;stroke-linejoin:round;stroke-miterlimit:3;stroke:#000000;stroke-opacity:0.4" d="M19.55 13.75Q18.8 15 18.6 15.6" />
</g>
<g id="PathID_2354" transform="matrix(1, 0, 0, 1, 0.15, 0.15)">
<path style="fill:#808080;fill-opacity:1" d="M15.6 17.8Q15.9 17.35 17.25 16.8L21 16.9Q22.3 18 21.35 19L17.45 18.7Q15.3 18.2 15.6 17.8M6.75 22.8Q5.55 23.85 5 25.2Q3.85 25.75 3.6 24.3Q2.5 22.45 2.75 18.55Q4.85 19.5 5.95 21.15Q6.45 21.9 6.75 22.8M11.45 4.2L12.15 5Q14.9 8.25 17.3 9.3Q19.35 10.2 20.1 11.45Q20.8 16.15 17.4 15.05Q14 13.95 11.9 12.6Q9.75 11.25 8.4 9.05Q7 6.8 8.15 4.4Q9.25 2.05 11.45 4.2M5.95 21.15Q4.6 22.35 3.6 24.3Q4.6 22.35 5.95 21.15" />
<path style="fill:#5D5D5D;fill-opacity:1" d="M8.15 4.4Q7 6.8 8.4 9.05Q9.75 11.25 11.9 12.6Q14 13.95 17.4 15.05Q20.8 16.15 20.1 11.45L20.3 11.9Q20.85 13.4 20.95 15L21 16.85L21 16.9L17.25 16.8Q15.9 17.35 15.6 17.8Q15.3 18.2 17.45 18.7L15.55 18.8Q10.7 19.4 6.75 22.8Q6.45 21.9 5.95 21.15Q7.75 19.7 10.4 18.45Q13.05 17.2 15.6 16.95L17.25 16.8L15.6 16.95Q13.05 17.2 10.4 18.45Q7.75 19.7 5.95 21.15Q4.85 19.5 2.75 18.55L2.8 17.8L3.6 11.95Q5.25 2.5 7.35 2.15Q9.15 1.8 11.45 4.2Q9.25 2.05 8.15 4.4" />
<path style="fill:none;stroke-width:0.7;stroke-linecap:round;stroke-linejoin:round;stroke-miterlimit:3;stroke:#000000;stroke-opacity:0.4" d="M17.45 18.7L21.35 19Q22.3 18 21 16.9L17.25 16.8" />
<path style="fill:none;stroke-width:0.7;stroke-linecap:round;stroke-linejoin:round;stroke-miterlimit:3;stroke:#000000;stroke-opacity:0.4" d="M17.45 18.7L15.55 18.8Q10.7 19.4 6.75 22.8Q5.55 23.85 5 25.2Q3.85 25.75 3.6 24.3Q2.5 22.45 2.75 18.55L2.8 17.8L3.6 11.95Q5.25 2.5 7.35 2.15Q9.15 1.8 11.45 4.2L12.15 5Q14.9 8.25 17.3 9.3Q19.35 10.2 20.1 11.45L20.3 11.9Q20.85 13.4 20.95 15L21 16.85L21 16.9" />
<path style="fill:none;stroke-width:0.7;stroke-linecap:round;stroke-linejoin:round;stroke-miterlimit:3;stroke:#000000;stroke-opacity:0.4" d="M3.6 24.3Q4.6 22.35 5.95 21.15" />
<path style="fill:none;stroke-width:0.7;stroke-linecap:round;stroke-linejoin:round;stroke-miterlimit:3;stroke:#000000;stroke-opacity:0.4" d="M5.95 21.15Q7.75 19.7 10.4 18.45Q13.05 17.2 15.6 16.95L17.25 16.8" />
</g>
<g id="PathID_2355" transform="matrix(1, 0, 0, 1, 0.15, 0.15)">
<path style="fill:#808080;fill-opacity:1" d="M2.95 16.95Q1.9 15.95 1.6 15.15Q2.45 16.25 3.3 13.05Q4.1 9.8 2.8 7.75L0.95 4.8Q2.15 4.25 2.5 3L3.2 3.85Q4.7 5.8 6.9 7.25L7.55 7.65Q8.6 10.35 7.9 13Q6.6 17.75 2.95 16.95" />
<path style="fill:#9A9A9A;fill-opacity:1" d="M1.6 15.15Q1.1 13.8 1.15 11.95Q1.25 8.8 0.85 7.35L0 5.1L0.95 4.8L2.8 7.75Q4.1 9.8 3.3 13.05Q2.45 16.25 1.6 15.15" />
<path style="fill:#5D5D5D;fill-opacity:1" d="M7.9 13Q8.6 10.35 7.55 7.65L9.1 9.05Q10.6 10.75 10.55 12.2Q10.5 14.85 9.35 16.55Q8.3 18.1 6.5 18.35Q4.6 18.3 3.3 17.2L2.95 16.95Q6.6 17.75 7.9 13" />
<path style="fill:none;stroke-width:0.7;stroke-linecap:round;stroke-linejoin:round;stroke-miterlimit:3;stroke:#000000;stroke-opacity:0.4" d="M2.5 3L3.2 3.85Q4.7 5.8 6.9 7.25L7.55 7.65L9.1 9.05Q10.6 10.75 10.55 12.2Q10.5 14.85 9.35 16.55Q8.3 18.1 6.5 18.35Q4.6 18.3 3.3 17.2L2.95 16.95Q1.9 15.95 1.6 15.15Q1.1 13.8 1.15 11.95Q1.25 8.8 0.85 7.35L0 5.1" />
</g>
<g id="PathID_2356" transform="matrix(1, 0, 0, 1, 0.15, 0.15)">
<path style="fill:#808080;fill-opacity:1" d="M8.75 12.75Q10.15 12.6 11.3 14.1L11.45 17.2L11.45 17.65L12.65 15.6L13.55 13.85Q16.05 10.9 16.3 10.95Q16.6 10.9 16.8 11.85L17 13.9L16.45 16.65Q15.95 18.25 15.05 19.15Q14.1 20 12.85 20.6L12.3 20.75Q5.4 17.2 8.75 12.75" />
<path style="fill:#9A9A9A;fill-opacity:1" d="M8.75 12.75Q5.4 17.2 12.3 20.75Q11.1 20.9 9.35 20.05Q7.1 18.9 6.6 16.7Q6.05 14.45 6.7 13.7Q7.3 12.9 8.75 12.75" />
<path style="fill:#5D5D5D;fill-opacity:1" d="M11.45 17.2L12.5 15L13.55 13.85L12.65 15.6L11.45 17.65L11.45 17.2L11.3 14.1Q11.95 14.8 12.5 15L11.45 17.2" />
<path style="fill:none;stroke-width:0.7;stroke-linecap:round;stroke-linejoin:round;stroke-miterlimit:3;stroke:#000000;stroke-opacity:0.4" d="M12.3 20.75L12.85 20.6Q14.1 20 15.05 19.15Q15.95 18.25 16.45 16.65L17 13.9L16.8 11.85Q16.6 10.9 16.3 10.95Q16.05 10.9 13.55 13.85" />
<path style="fill:none;stroke-width:0.7;stroke-linecap:round;stroke-linejoin:round;stroke-miterlimit:3;stroke:#000000;stroke-opacity:0.4" d="M11.3 14.1Q10.15 12.6 8.75 12.75" />
<path style="fill:none;stroke-width:0.7;stroke-linecap:round;stroke-linejoin:round;stroke-miterlimit:3;stroke:#000000;stroke-opacity:0.4" d="M12.3 20.75Q11.1 20.9 9.35 20.05Q7.1 18.9 6.6 16.7Q6.05 14.45 6.7 13.7Q7.3 12.9 8.75 12.75" />
<path style="fill:none;stroke-width:0.7;stroke-linecap:round;stroke-linejoin:round;stroke-miterlimit:3;stroke:#000000;stroke-opacity:0.4" d="M12.5 15Q11.95 14.8 11.3 14.1" />
<path style="fill:none;stroke-width:0.7;stroke-linecap:round;stroke-linejoin:round;stroke-miterlimit:3;stroke:#000000;stroke-opacity:0.4" d="M12.5 15L11.45 17.2" />
<path style="fill:none;stroke-width:0.7;stroke-linecap:round;stroke-linejoin:round;stroke-miterlimit:3;stroke:#000000;stroke-opacity:0.4" d="M13.55 13.85L12.5 15" />
</g>
</svg>
