<?xml version="1.0" encoding="utf-8"?>
<svg version="1.1" id="Layer_1"
xmlns="http://www.w3.org/2000/svg"
xmlns:xlink="http://www.w3.org/1999/xlink"
width="9px" height="11px"
xml:space="preserve">
<g id="PathID_600" transform="matrix(1, 0, 0, 1, 4.2, 5.3)">
<path style="fill:#808080;fill-opacity:1" d="M4.2 -0.2Q4.35 1.95 3.3 3.55Q2.25 5.15 0.5 5.25L0.4 5.25Q-0.75 5.25 -1.75 4.65L-2.6 3.9Q-3.95 2.4 -4.1 0.2Q-4.3 -1.8 -3.4 -3.15L-3.2 -3.45Q-2.55 -4.45 -1.75 -4.85L-1.35 -5.05L-0.5 -5.25Q1.25 -5.35 2.55 -3.85Q3.95 -2.45 4.2 -0.2M1.85 -2.8Q0.95 -3.75 -0.2 -3.6Q-1.3 -3.5 -2 -2.35Q-2.75 -1.3 -2.6 0.2Q-2.45 1.75 -1.6 2.85Q-0.65 3.8 0.5 3.7Q1.7 3.6 2.4 2.45Q3.05 1.25 2.95 -0.25Q2.75 -1.8 1.85 -2.8" />
<path style="fill:#000000;fill-opacity:1" d="M2.95 -0.25Q3.05 1.25 2.4 2.45Q1.7 3.6 0.5 3.7Q-0.65 3.8 -1.6 2.85Q-2.45 1.75 -2.6 0.2Q-2.75 -1.3 -2 -2.35Q-1.3 -3.5 -0.2 -3.6Q0.95 -3.75 1.85 -2.8Q2.75 -1.8 2.95 -0.25" />
<path style="fill:none;stroke-width:0.7;stroke-linecap:round;stroke-linejoin:round;stroke-miterlimit:3;stroke:#000000;stroke-opacity:0.4" d="M4.2 -0.2Q4.35 1.95 3.3 3.55Q2.25 5.15 0.5 5.25L0.4 5.25Q-0.75 5.25 -1.75 4.65L-2.6 3.9Q-3.95 2.4 -4.1 0.2Q-4.3 -1.8 -3.4 -3.15L-3.2 -3.45Q-2.55 -4.45 -1.75 -4.85L-1.35 -5.05L-0.5 -5.25Q1.25 -5.35 2.55 -3.85Q3.95 -2.45 4.2 -0.2z" />
<path style="fill:none;stroke-width:0.7;stroke-linecap:round;stroke-linejoin:round;stroke-miterlimit:3;stroke:#000000;stroke-opacity:0.4" d="M2.95 -0.25Q3.05 1.25 2.4 2.45Q1.7 3.6 0.5 3.7Q-0.65 3.8 -1.6 2.85Q-2.45 1.75 -2.6 0.2Q-2.75 -1.3 -2 -2.35Q-1.3 -3.5 -0.2 -3.6Q0.95 -3.75 1.85 -2.8Q2.75 -1.8 2.95 -0.25z" />
</g>
</svg>
