<?xml version="1.0" encoding="utf-8"?>
<svg version="1.1" id="Layer_1"
xmlns="http://www.w3.org/2000/svg"
xmlns:xlink="http://www.w3.org/1999/xlink"
width="5px" height="5px"
xml:space="preserve">
<g id="PathID_955" transform="matrix(1, 0, 0, 1, 2.35, 2.4)">
<radialGradient
id="RadialGradID_254" gradientUnits="userSpaceOnUse" gradientTransform="matrix(0.00416565, 0, 0, 0.00416565, 0.45, -0.75)" spreadMethod ="pad" cx="0" cy="0" r="819.2" fx="0" fy="0" >
<stop  offset="0.203922"  style="stop-color:#004A6B;stop-opacity:1" />
<stop  offset="0.427451"  style="stop-color:#006CB8;stop-opacity:1" />
<stop  offset="0.713725"  style="stop-color:#81D6FC;stop-opacity:1" />
</radialGradient>
<path style="fill:url(#RadialGradID_254) " d="M-0.35 1.7Q-2.2 1.05 -1.9 -1.25L-1.3 -1.9L0 -2.3Q0.95 -2.3 1.65 -1.65L1.9 -1.3Q2.3 -0.75 2.3 0L2.3 0.3Q1.2 2.25 -0.35 1.7" />
<path style="fill:#EEEEEE;fill-opacity:1" d="M2.3 0.3Q2.2 1 1.65 1.55Q1.15 2.05 0.6 2.2L0 2.25Q-0.95 2.25 -1.65 1.55L-2.1 0.8L-2.25 0L-1.9 -1.25Q-2.2 1.05 -0.35 1.7Q1.2 2.25 2.3 0.3" />
<path style="fill:none;stroke-width:0.7;stroke-linecap:round;stroke-linejoin:round;stroke-miterlimit:3;stroke:#000000;stroke-opacity:0.4" d="M-1.9 -1.25L-1.3 -1.9L0 -2.3Q0.95 -2.3 1.65 -1.65L1.9 -1.3Q2.3 -0.75 2.3 0L2.3 0.3Q2.2 1 1.65 1.55Q1.15 2.05 0.6 2.2L0 2.25Q-0.95 2.25 -1.65 1.55L-2.1 0.8L-2.25 0L-1.9 -1.25z" />
</g>
<g id="PathID_956" transform="matrix(1, 0, 0, 1, 2.35, 2.4)">
<path style="fill:#1D130E;fill-opacity:1" d="M1.45 -0.15L1.25 0.8Q1 1.4 0.45 1.35Q-0.35 1.25 -0.45 0.25Q-0.6 -0.65 -0.2 -1.25Q0.05 -1.85 0.7 -1.75Q1.35 -1.65 1.45 -0.35L1.45 -0.15" />
</g>
<g id="PathID_957" transform="matrix(1, 0, 0, 1, 2.35, 2.4)">
<path style="fill:#1D130E;fill-opacity:1" d="M-2.05 -0.5Q-1.8 -2.4 0.35 -2.3Q2.85 -1.85 2.1 0.85Q1.95 -0.45 1.1 -1.15Q0.5 -1.65 -0.5 -1.55Q-1.5 -1.5 -2.05 -0.5" />
</g>
<g id="PathID_958" transform="matrix(1, 0, 0, 1, 2.35, 2.4)">
<path style="fill:#FFFFFF;fill-opacity:1" d="M0.8 -0.65Q0.45 -0.35 0.1 -0.35Q-0.3 -0.35 -0.65 -0.65L-0.9 -1.25L-0.65 -1.9L0.1 -2.15L0.8 -1.9L1.1 -1.25L0.8 -0.65" />
</g>
<g id="PathID_959" transform="matrix(1, 0, 0, 1, 2.35, 2.4)">
<path style="fill:#FFFFFF;fill-opacity:1" d="M-2.05 0.4L-1.9 0L-1.45 -0.15L-1.05 0L-0.9 0.4Q-0.9 0.7 -1.05 0.85L-1.45 1L-1.9 0.85L-2.05 0.4" />
</g>
</svg>
