<?xml version="1.0" encoding="utf-8"?>
<svg version="1.1" id="Layer_1"
xmlns="http://www.w3.org/2000/svg"
xmlns:xlink="http://www.w3.org/1999/xlink"
width="11px" height="9px"
xml:space="preserve">
<g id="PathID_2284" transform="matrix(1, 0, 0, 1, 0.15, 0.15)">
<path style="fill:#808080;fill-opacity:1" d="M9.6 3.5Q10.5 5.6 9.9 6.65Q9.3 7.7 8.25 7.95L4.65 7.5L1.05 6.7Q0.05 6.45 0 5.3Q0.1 2.9 1.55 1.6Q3.45 0.05 5.05 0L5.1 0Q6.25 0 7.5 0.7Q8.7 1.35 9.6 3.5" />
<path style="fill:none;stroke-width:0.7;stroke-linecap:round;stroke-linejoin:round;stroke-miterlimit:3;stroke:#000000;stroke-opacity:0.301961" d="M9.6 3.5Q10.5 5.6 9.9 6.65Q9.3 7.7 8.25 7.95L4.65 7.5L1.05 6.7Q0.05 6.45 0 5.3Q0.1 2.9 1.55 1.6Q3.45 0.05 5.05 0L5.1 0Q6.25 0 7.5 0.7Q8.7 1.35 9.6 3.5z" />
</g>
<g id="PathID_2285" transform="matrix(1, 0, 0, 1, 0.15, 0.15)">
<path style="fill:none;stroke-width:0.7;stroke-linecap:round;stroke-linejoin:round;stroke-miterlimit:3;stroke:#585454;stroke-opacity:1" d="M7.15 1.2L5.85 1.95L7.4 3L8.8 2.2" />
<path style="fill:none;stroke-width:0.7;stroke-linecap:round;stroke-linejoin:round;stroke-miterlimit:3;stroke:#585454;stroke-opacity:1" d="M7.1 5.45L8.7 4.05L7.4 3Q6.55 3.6 5.75 4.4L7.1 5.45L9.05 7.2" />
<path style="fill:none;stroke-width:0.7;stroke-linecap:round;stroke-linejoin:round;stroke-miterlimit:3;stroke:#585454;stroke-opacity:1" d="M9.25 3.7L8.7 4.05L9.8 5.05" />
<path style="fill:none;stroke-width:0.7;stroke-linecap:round;stroke-linejoin:round;stroke-miterlimit:3;stroke:#585454;stroke-opacity:1" d="M1.75 2.05L2.5 2.4Q3.3 1.65 4.3 1.15L3.25 0.65" />
<path style="fill:none;stroke-width:0.7;stroke-linecap:round;stroke-linejoin:round;stroke-miterlimit:3;stroke:#585454;stroke-opacity:1" d="M0.65 3.65L1.2 3.85L2.5 2.4L4.2 3.3L5.85 1.95L4.3 1.15Q5.2 0.65 5.9 0.45" />
<path style="fill:none;stroke-width:0.7;stroke-linecap:round;stroke-linejoin:round;stroke-miterlimit:3;stroke:#585454;stroke-opacity:1" d="M1.75 6.55Q1.85 5.95 2.9 4.75L1.2 3.85Q0.6 4.65 0.3 5.35" />
<path style="fill:none;stroke-width:0.7;stroke-linecap:round;stroke-linejoin:round;stroke-miterlimit:3;stroke:#585454;stroke-opacity:1" d="M3.7 6.9L4.5 5.8Q3.7 5.2 2.9 4.75Q3.5 3.95 4.2 3.3L5.75 4.4L4.5 5.8L5.85 6.9L7.1 5.45" />
<path style="fill:none;stroke-width:0.7;stroke-linecap:round;stroke-linejoin:round;stroke-miterlimit:3;stroke:#585454;stroke-opacity:1" d="M5.85 6.9L6.6 7.6" />
<path style="fill:none;stroke-width:0.7;stroke-linecap:round;stroke-linejoin:round;stroke-miterlimit:3;stroke:#585454;stroke-opacity:1" d="M5.5 7.3L5.85 6.9" />
</g>
</svg>
