<?xml version="1.0" encoding="utf-8"?>
<svg version="1.1" id="Layer_1"
xmlns="http://www.w3.org/2000/svg"
xmlns:xlink="http://www.w3.org/1999/xlink"
width="19px" height="13px"
xml:space="preserve">
<g id="PathID_2544" transform="matrix(1, 0, 0, 1, 0.15, 0.15)">
<path style="fill:#696969;fill-opacity:1" d="M14.65 1.8Q12 1.1 8.55 2.4Q5.15 3.65 2.95 6.2Q2.1 7.25 1.65 8.25Q1.15 9.5 1.3 10.75Q1.4 11.8 2.1 11.95L1.6 12.5Q0.15 12.55 0.05 11.25Q-0.15 9.65 0.55 8Q1.05 6.8 2 5.6Q4.55 2.45 8.45 0.9Q12.15 -0.55 15.35 0.3Q17.4 1.05 17.85 2.15Q18.25 3.1 17.35 3.85Q16.65 2.35 14.65 1.8" />
<path style="fill:none;stroke-width:0.7;stroke-linecap:round;stroke-linejoin:round;stroke-miterlimit:3;stroke:#000000;stroke-opacity:0.4" d="M17.35 3.85Q18.25 3.1 17.85 2.15Q17.4 1.05 15.35 0.3Q12.15 -0.55 8.45 0.9Q4.55 2.45 2 5.6Q1.05 6.8 0.55 8Q-0.15 9.65 0.05 11.25Q0.15 12.55 1.6 12.5L2.1 11.95Q1.4 11.8 1.3 10.75Q1.15 9.5 1.65 8.25Q2.1 7.25 2.95 6.2Q5.15 3.65 8.55 2.4Q12 1.1 14.65 1.8Q16.65 2.35 17.35 3.85z" />
</g>
</svg>
