<?xml version="1.0" encoding="utf-8"?>
<svg version="1.1" id="Layer_1"
xmlns="http://www.w3.org/2000/svg"
xmlns:xlink="http://www.w3.org/1999/xlink"
width="31px" height="15px"
xml:space="preserve">
<g id="PathID_1233" transform="matrix(1, 0, 0, 1, 7.05, 7.3)">
<path style="fill:none;stroke-width:0.7;stroke-linecap:round;stroke-linejoin:round;stroke-miterlimit:3;stroke:#000000;stroke-opacity:0.301961" d="M2.55 -1.35L3.2 -1.65L8.7 -3.35Q10.4 -3.8 13.7 -5.6Q16.65 -7.15 17.45 -7.15Q18.15 -6.9 18.35 -5.75L14.9 -4.15L17.55 -4.8L22.3 -5.05Q22.9 -4.8 22.9 -3.95Q22.9 -3.05 22.3 -3.05L17.6 -2.55L21.3 -2.1Q21.4 -0.3 21.15 -0.05L17.1 -0.55Q12.4 -1.1 9.1 -0.6Q6.45 -0.2 4 0.85" />
<path style="fill:none;stroke-width:0.7;stroke-linecap:round;stroke-linejoin:round;stroke-miterlimit:3;stroke:#000000;stroke-opacity:0.14902" d="M17.6 -2.55L14.15 -2.3L10.55 -1.6" />
<path style="fill:none;stroke-width:0.7;stroke-linecap:round;stroke-linejoin:round;stroke-miterlimit:3;stroke:#000000;stroke-opacity:0.14902" d="M14.9 -4.15Q13.25 -3.25 11 -2.8" />
<path style="fill:none;stroke-width:0.7;stroke-linecap:round;stroke-linejoin:round;stroke-miterlimit:3;stroke:#000000;stroke-opacity:0.301961" d="M0.4 2.7Q-1.5 3.85 -3.25 5.45L-4 6.75Q-4.35 7.45 -5.45 7.55Q-6.05 7.6 -6.45 7L-6.9 5.6Q-7.05 3.95 -5.75 3.8L-4.2 2.75L-2.05 1.2" />
</g>
</svg>
