<?xml version="1.0" encoding="utf-8"?>
<svg version="1.1" id="Layer_1"
xmlns="http://www.w3.org/2000/svg"
xmlns:xlink="http://www.w3.org/1999/xlink"
width="16px" height="13px"
xml:space="preserve">
<g id="PathID_2969" transform="matrix(1, 0, 0, 1, 0, 0)">
<linearGradient
id="LinearGradID_933" gradientUnits="userSpaceOnUse" gradientTransform="matrix(0.006073, -0.000411987, 0.000198364, 0.00288391, 6.2, 7.7)" spreadMethod ="pad" x1="-819.2" y1="0" x2="819.2" y2="0" >
<stop  offset="0" style="stop-color:#626262;stop-opacity:1" />
<stop  offset="0.121569" style="stop-color:#808080;stop-opacity:1" />
<stop  offset="0.419608" style="stop-color:#B8B8B8;stop-opacity:1" />
<stop  offset="1" style="stop-color:#514549;stop-opacity:1" />
</linearGradient>
<path style="fill:url(#LinearGradID_933) " d="M1.9 6.1Q1.5 7.2 2 7.9L2.2 8.2Q3.75 9.35 6.4 9.25L11.7 9.1L13.8 9.5L11.25 9.75Q6.05 10.75 2.05 9.75Q0.2 8.75 0.75 7.25L0.85 6.9L1.65 5.85L1.9 6.1" />
<path style="fill:#4F4943;fill-opacity:1" d="M11.15 7.15L8.6 7.45L6.2 7.7Q8.2 6.65 10.8 6.55Q14.7 6.1 15.65 7.55L15 8Q14.25 7 11.15 7.15M13.8 9.5L14 9.6Q13.55 11.9 9.3 11.6L8.8 11.55L10.7 11.95L7.3 12.25L5.05 12.25L2.75 11.95Q1.4 11.5 0 10.5Q1.9 11.45 4.05 11.5L7.8 11.35L8.35 11.45L8.8 11.55L9.3 11.6Q12.95 11.15 13.8 9.5M2.7 1.7L2.6 1.9Q1.2 3.5 2.45 5.4Q2.9 6.45 4.8 6.9L4.65 6.95Q3.05 6.85 2.35 6.4L2.25 6.4L1.9 6.1L1.65 5.85L1.35 5.5L1.25 5.3L1.15 4.8Q0.5 2.5 3.45 0.55L4.85 0.05Q3.65 0.6 2.7 1.7" />
<linearGradient
id="LinearGradID_934" gradientUnits="userSpaceOnUse" gradientTransform="matrix(0.00263977, 0.00390625, -0.00349426, 0.00233459, 4.4, 3.55)" spreadMethod ="pad" x1="-819.2" y1="0" x2="819.2" y2="0" >
<stop  offset="0" style="stop-color:#626262;stop-opacity:1" />
<stop  offset="0.121569" style="stop-color:#808080;stop-opacity:1" />
<stop  offset="0.419608" style="stop-color:#B8B8B8;stop-opacity:1" />
<stop  offset="1" style="stop-color:#514549;stop-opacity:1" />
</linearGradient>
<path style="fill:url(#LinearGradID_934) " d="M4.85 0.05L5.3 0L4.75 0.45Q3.55 1.35 3.1 2.3Q2.35 4.25 3.75 5.2Q4.8 6.05 7.05 6L6.8 6.1Q5.75 6.35 4.8 6.9Q2.9 6.45 2.45 5.4Q1.2 3.5 2.6 1.9L2.7 1.7Q3.65 0.6 4.85 0.05" />
<path style="fill:none;stroke-width:0.7;stroke-linecap:round;stroke-linejoin:round;stroke-miterlimit:3;stroke:#000000;stroke-opacity:0.2" d="M13.8 9.5L14 9.6Q13.55 11.9 9.3 11.6" />
<path style="fill:none;stroke-width:0.7;stroke-linecap:round;stroke-linejoin:round;stroke-miterlimit:3;stroke:#000000;stroke-opacity:0.2" d="M1.65 5.85L1.35 5.5L1.25 5.3L1.15 4.8Q0.5 2.5 3.45 0.55L4.85 0.05" />
<path style="fill:none;stroke-width:0.7;stroke-linecap:round;stroke-linejoin:round;stroke-miterlimit:3;stroke:#000000;stroke-opacity:0.2" d="M4.8 6.9L4.65 6.95Q3.05 6.85 2.35 6.4L2.25 6.4L1.9 6.1" />
<path style="fill:none;stroke-width:0.7;stroke-linecap:round;stroke-linejoin:round;stroke-miterlimit:3;stroke:#000000;stroke-opacity:0.2" d="M1.9 6.1L1.65 5.85" />
<path style="fill:none;stroke-width:0.7;stroke-linecap:round;stroke-linejoin:round;stroke-miterlimit:3;stroke:#000000;stroke-opacity:0.2" d="M8.8 11.55L9.3 11.6" />
</g>
</svg>
