<?xml version="1.0" encoding="utf-8"?>
<svg version="1.1" id="Layer_1"
xmlns="http://www.w3.org/2000/svg"
xmlns:xlink="http://www.w3.org/1999/xlink"
width="15px" height="10px"
xml:space="preserve">
<g id="PathID_693" transform="matrix(1, 0, 0, 1, 2.45, 6.55)">
<path style="fill:#FFFFFF;fill-opacity:0.160784" d="M10 -2.45L8.95 -4.5L8.8 -4.8L9.3 -6.3L10.35 -4.65L11.45 -4.65L11.85 -6.55L12.55 -6.05L12.4 -4.95L10 -2.45M12.25 -4.15L11.15 -0.9L10.4 -1.8L12.25 -4.15M3.2 -1.35Q2.45 1.1 1.3 3.1Q1 3.1 0.3 2.5L3.2 -1.35M-0.15 2.05Q-1.75 0.5 -2.45 -1.75L-1.7 -3.85L0.3 -1.7L1.65 -1.7L2.5 -4.15L3.7 -3.5L3.45 -2.25L-0.15 2.05" />
<path style="fill:#FFFFFF;fill-opacity:0.423529" d="M10.4 -1.8L10 -2.45L12.4 -4.95L12.25 -4.15L10.4 -1.8M0.3 2.5L-0.15 2.05L3.45 -2.25L3.2 -1.35L0.3 2.5" />
</g>
</svg>
