<?xml version="1.0" encoding="utf-8"?>
<svg version="1.1" id="Layer_1"
xmlns="http://www.w3.org/2000/svg"
xmlns:xlink="http://www.w3.org/1999/xlink"
width="16px" height="24px"
xml:space="preserve">
<g id="PathID_3899" transform="matrix(1, 0, 0, 1, 0.15, 0.15)">
<path style="fill:#544F4A;fill-opacity:1" d="M10.4 10.35L9.15 9.45L10 8.55L10.4 10.35" />
<path style="fill:none;stroke-width:0.7;stroke-linecap:round;stroke-linejoin:round;stroke-miterlimit:3;stroke:#000000;stroke-opacity:0.301961" d="M10.4 10.35L9.15 9.45L10 8.55L10.4 10.35z" />
</g>
<g id="PathID_3900" transform="matrix(1, 0, 0, 1, 0.15, 0.15)">
<path style="fill:#544F4A;fill-opacity:1" d="M11.9 6.55Q11.9 7.1 12.25 7.35L11.85 7.35L11.3 7.3Q9.75 7.05 9 8.1Q9.75 7.05 11.3 7.3L11.85 7.35Q11.9 8.15 12.5 8.65L13.1 8.9L12.4 9.1L12.1 9.1L9.5 8.8Q9.05 8.55 9 8.15L9 8.1Q8.9 6.25 10.55 6.1L12.05 5.95L11.9 6.55" />
<path style="fill:#808080;fill-opacity:1" d="M13.1 6.85L12.25 7.35Q11.9 7.1 11.9 6.55L12.05 5.95Q13.75 5.55 15.25 4.35L15.05 6.4Q14.75 7.8 13.75 8.55L13.1 8.9L12.5 8.65Q11.9 8.15 11.85 7.35L12.25 7.35L13.1 6.85" />
<path style="fill:none;stroke-width:0.7;stroke-linecap:round;stroke-linejoin:round;stroke-miterlimit:3;stroke:#000000;stroke-opacity:0.301961" d="M13.1 8.9L12.4 9.1L12.1 9.1L9.5 8.8Q9.05 8.55 9 8.15L9 8.1Q8.9 6.25 10.55 6.1L12.05 5.95Q13.75 5.55 15.25 4.35L15.05 6.4Q14.75 7.8 13.75 8.55L13.1 8.9z" />
<path style="fill:none;stroke-width:0.7;stroke-linecap:round;stroke-linejoin:round;stroke-miterlimit:3;stroke:#000000;stroke-opacity:0.301961" d="M11.85 7.35L11.3 7.3Q9.75 7.05 9 8.1" />
<path style="fill:none;stroke-width:0.7;stroke-linecap:round;stroke-linejoin:round;stroke-miterlimit:3;stroke:#000000;stroke-opacity:0.301961" d="M11.85 7.35L12.25 7.35L13.1 6.85" />
</g>
<g id="PathID_3901" transform="matrix(1, 0, 0, 1, 0.15, 0.15)">
<path style="fill:#808080;fill-opacity:1" d="M10.4 12.6L11.25 14.3Q11.35 15.6 10.7 17.15L9.65 18.75L9.05 19.3L8.15 19.1L7.2 19.65L7.1 19.85Q6.95 20.1 6.95 20.45L2.9 20.3L2.8 20.2Q2.4 19.9 1.8 19.95L1.75 20L0.25 19.4Q-0.05 18.8 0.05 18.05Q0.1 17.2 0.6 16.2L0.95 15.6L3.3 12.35L3.85 11.7L4.75 10.8Q6 9.6 7.4 8.7L7.4 9.25L5.7 11.25Q4.5 12.7 4 13.85Q3.2 16.55 5.7 14.4L6.95 12L7.8 9.45L8.2 9.4L8.95 9.4L8.95 10.15Q8.9 11.65 9 12.8Q9.15 15.95 9.9 16.95Q10.6 16.85 10.4 12.6M8.2 9.4L7.85 14.55L8.2 9.4" />
<path style="fill:#2C2A27;fill-opacity:1" d="M5.7 11.25Q5.65 12.95 6.95 12L5.7 14.4Q3.2 16.55 4 13.85Q4.5 12.7 5.7 11.25M9.9 16.95Q9.15 15.95 9 12.8Q9.7 14.75 9.8 12.55L9.8 11.85L10.4 12.6Q10.6 16.85 9.9 16.95" />
<path style="fill:#544F4A;fill-opacity:1" d="M11.25 14.3L11.55 15.15L11.6 15.35L11.85 16.6L11.95 19.1L11.85 21.1Q11.05 24.05 5.8 23.2Q3.2 22.4 3.3 21.65Q5.05 22.05 7.2 21.6L2.45 21.35L0.95 20.4L0.25 19.4L1.75 20L1.8 19.95Q2.4 19.9 2.8 20.2L2.9 20.3L6.95 20.45Q6.95 20.1 7.1 19.85L7.2 19.65L8.15 19.1L9.05 19.3L9.65 18.75L10.7 17.15Q11.35 15.6 11.25 14.3M7.2 21.6Q5.05 22.05 3.3 21.65" />
<path style="fill:none;stroke-width:0.7;stroke-linecap:round;stroke-linejoin:round;stroke-miterlimit:3;stroke:#000000;stroke-opacity:0.301961" d="M0.25 19.4Q-0.05 18.8 0.05 18.05Q0.1 17.2 0.6 16.2L0.95 15.6L3.3 12.35L3.85 11.7L4.75 10.8Q6 9.6 7.4 8.7L7.4 9.25L5.7 11.25Q5.65 12.95 6.95 12L7.8 9.45L8.2 9.4L8.95 9.4L8.95 10.15Q8.9 11.65 9 12.8Q9.7 14.75 9.8 12.55L9.8 11.85L10.4 12.6L11.25 14.3L11.55 15.15L11.6 15.35L11.85 16.6L11.95 19.1L11.85 21.1Q11.05 24.05 5.8 23.2Q3.2 22.4 3.3 21.65L2.45 21.35L0.95 20.4L0.25 19.4z" />
<path style="fill:none;stroke-width:0.7;stroke-linecap:round;stroke-linejoin:round;stroke-miterlimit:3;stroke:#000000;stroke-opacity:0.301961" d="M9 12.8Q9.15 15.95 9.9 16.95Q10.6 16.85 10.4 12.6" />
<path style="fill:none;stroke-width:0.7;stroke-linecap:round;stroke-linejoin:round;stroke-miterlimit:3;stroke:#000000;stroke-opacity:0.301961" d="M6.95 12L5.7 14.4Q3.2 16.55 4 13.85Q4.5 12.7 5.7 11.25" />
<path style="fill:none;stroke-width:0.7;stroke-linecap:round;stroke-linejoin:round;stroke-miterlimit:3;stroke:#000000;stroke-opacity:0.301961" d="M3.3 21.65Q5.05 22.05 7.2 21.6" />
<path style="fill:none;stroke-width:0.7;stroke-linecap:round;stroke-linejoin:round;stroke-miterlimit:3;stroke:#000000;stroke-opacity:0.301961" d="M7.85 14.55L8.2 9.4" />
</g>
<g id="PathID_3902" transform="matrix(1, 0, 0, 1, 0.15, 0.15)">
<path style="fill:#808080;fill-opacity:1" d="M9.8 6.45L9.5 6.15L9.25 6.15Q8.95 6.15 8.75 5.9L8.55 5.3L8.65 5.05L8.75 4.8L9.15 4.1L9.75 2.4L9.15 4.1L7.85 4.55L7.6 4.45L7.7 3.75L7.8 3Q7.95 2.4 8.75 1.85L10.15 1.05Q11.15 0.7 11.75 0Q11.85 1 11.25 1.9Q10.65 2.75 11.2 4.5L11.25 4.6L11.3 4.8Q11.4 5.9 10.45 6.75L9.8 6.45" />
<path style="fill:#544F4A;fill-opacity:1" d="M8.75 4.8L8.65 5.05L8.55 5.3L8.75 5.9Q8.95 6.15 9.25 6.15L9.5 6.15L9.8 6.45L10.45 6.75L9.2 7.5L8.25 7.8Q7.4 6.45 7.6 4.45L7.85 4.55L9.15 4.1L8.75 4.8M8.65 5.05Q7.95 6.45 8.25 7.8Q7.95 6.45 8.65 5.05" />
<path style="fill:none;stroke-width:0.7;stroke-linecap:round;stroke-linejoin:round;stroke-miterlimit:3;stroke:#000000;stroke-opacity:0.301961" d="M7.6 4.45L7.7 3.75L7.8 3Q7.95 2.4 8.75 1.85L10.15 1.05Q11.15 0.7 11.75 0Q11.85 1 11.25 1.9Q10.65 2.75 11.2 4.5L11.25 4.6L11.3 4.8Q11.4 5.9 10.45 6.75L9.2 7.5L8.25 7.8Q7.4 6.45 7.6 4.45z" />
<path style="fill:none;stroke-width:0.7;stroke-linecap:round;stroke-linejoin:round;stroke-miterlimit:3;stroke:#000000;stroke-opacity:0.301961" d="M9.15 4.1L9.75 2.4" />
<path style="fill:none;stroke-width:0.7;stroke-linecap:round;stroke-linejoin:round;stroke-miterlimit:3;stroke:#000000;stroke-opacity:0.301961" d="M8.65 5.05L8.75 4.8L9.15 4.1" />
<path style="fill:none;stroke-width:0.7;stroke-linecap:round;stroke-linejoin:round;stroke-miterlimit:3;stroke:#000000;stroke-opacity:0.301961" d="M8.25 7.8Q7.95 6.45 8.65 5.05" />
</g>
<g id="PathID_3903" transform="matrix(1, 0, 0, 1, 0.15, 0.15)">
<path style="fill:#808080;fill-opacity:1" d="M9.25 7Q9.8 7.2 9.85 7.9L9.7 9Q9.5 9.5 8.9 9.6Q8.3 9.7 7.9 9.4Q6.95 8.3 7.9 7.05L7.25 9.35Q6.7 8.95 6.65 8.25Q6.6 7.65 7.05 7.2Q7.45 6.8 7.9 7.05Q6.95 8.3 7.9 9.4L9.25 7" />
<path style="fill:none;stroke-width:0.7;stroke-linecap:round;stroke-linejoin:round;stroke-miterlimit:3;stroke:#000000;stroke-opacity:0.301961" d="M9.25 7Q9.8 7.2 9.85 7.9L9.7 9Q9.5 9.5 8.9 9.6Q8.3 9.7 7.9 9.4L7.25 9.35Q6.7 8.95 6.65 8.25Q6.6 7.65 7.05 7.2Q7.45 6.8 7.9 7.05L9.25 7z" />
<path style="fill:none;stroke-width:0.7;stroke-linecap:round;stroke-linejoin:round;stroke-miterlimit:3;stroke:#000000;stroke-opacity:0.301961" d="M7.9 9.4Q6.95 8.3 7.9 7.05" />
</g>
</svg>
