<?xml version="1.0" encoding="utf-8"?>
<svg version="1.1" id="Layer_1"
xmlns="http://www.w3.org/2000/svg"
xmlns:xlink="http://www.w3.org/1999/xlink"
width="6px" height="8px"
xml:space="preserve">
<g id="PathID_3320" transform="matrix(1, 0, 0, 1, 0.15, 0.15)">
<path style="fill:#D0D0D0;fill-opacity:1" d="M3 0.25L3.6 0.95L3.6 1.55L2.9 1.55L2.15 1.1Q1.8 0.85 1.8 0.55L1.8 0.25Q1.85 0.1 2.15 0L3 0.25M3.95 2.55L4.1 3.2L4 3.75L3.85 3.75Q3.15 3.05 3.4 2.65L3.95 2.55" />
<radialGradient
id="RadialGradID_1077" gradientUnits="userSpaceOnUse" gradientTransform="matrix(0.0057373, 0.0057373, -0.00352478, 0.00352478, 4.1, 0.4)" spreadMethod ="pad" cx="0" cy="0" r="819.2" fx="0" fy="0" >
<stop  offset="0"  style="stop-color:#C4C4C4;stop-opacity:1" />
<stop  offset="1"  style="stop-color:#808080;stop-opacity:1" />
</radialGradient>
<path style="fill:url(#RadialGradID_1077) " d="M3.5 0.6Q4.45 1.45 4.8 2.85L4.8 2.9Q4.45 5.15 3.15 5.3Q2.2 5.4 1.3 3.95Q0.45 2.5 0.4 1.1Q0.85 0.25 1.6 0.05L2.15 0Q1.85 0.1 1.8 0.25L1.8 0.55Q1.8 0.85 2.15 1.1L2.9 1.55L3.6 1.55L3.6 0.95L3 0.25Q3.25 0.35 3.5 0.6M3.4 2.65Q3.15 3.05 3.85 3.75L4 3.75L4.1 3.2L3.95 2.55L3.4 2.65" />
<path style="fill:#4F4943;fill-opacity:1" d="M4.8 5.45Q4.25 6.9 3.4 6.9Q0.95 6.95 0.2 4.05Q-0.15 2.65 0.2 1.5L0.4 1.1Q0.45 2.5 1.3 3.95Q2.2 5.4 3.15 5.3Q4.45 5.15 4.8 2.9Q5.2 4.25 4.8 5.45" />
<path style="fill:none;stroke-width:0.7;stroke-linecap:round;stroke-linejoin:round;stroke-miterlimit:3;stroke:#000000;stroke-opacity:0.4" d="M3 0.25L2.15 0L1.6 0.05Q0.85 0.25 0.4 1.1" />
<path style="fill:none;stroke-width:0.7;stroke-linecap:round;stroke-linejoin:round;stroke-miterlimit:3;stroke:#000000;stroke-opacity:0.4" d="M4.8 2.9L4.8 2.85Q4.45 1.45 3.5 0.6Q3.25 0.35 3 0.25" />
<path style="fill:none;stroke-width:0.7;stroke-linecap:round;stroke-linejoin:round;stroke-miterlimit:3;stroke:#000000;stroke-opacity:0.4" d="M0.4 1.1L0.2 1.5Q-0.15 2.65 0.2 4.05Q0.95 6.95 3.4 6.9Q4.25 6.9 4.8 5.45Q5.2 4.25 4.8 2.9" />
</g>
</svg>
