<?xml version="1.0" encoding="utf-8"?>
<svg version="1.1" id="Layer_1"
xmlns="http://www.w3.org/2000/svg"
xmlns:xlink="http://www.w3.org/1999/xlink"
width="37px" height="18px"
xml:space="preserve">
<g id="PathID_2607" transform="matrix(1, 0, 0, 1, 0, 0)">
<path style="fill:#808080;fill-opacity:1" d="M2.75 14.25Q3.25 14.75 3.25 15.45Q3.25 16.15 2.75 16.6Q2.3 17.1 1.6 17.1Q0.95 17.1 0.45 16.6Q0 16.15 0 15.45Q0 14.75 0.45 14.25Q0.95 13.8 1.6 13.8Q2.3 13.8 2.75 14.25" />
<path style="fill:none;stroke-width:0.7;stroke-linecap:round;stroke-linejoin:round;stroke-miterlimit:3;stroke:#000000;stroke-opacity:0.4" d="M2.75 14.25Q3.25 14.75 3.25 15.45Q3.25 16.15 2.75 16.6Q2.3 17.1 1.6 17.1Q0.95 17.1 0.45 16.6Q0 16.15 0 15.45Q0 14.75 0.45 14.25Q0.95 13.8 1.6 13.8Q2.3 13.8 2.75 14.25z" />
</g>
<g id="PathID_2608" transform="matrix(1, 0, 0, 1, 0, 0)">
<path style="fill:#808080;fill-opacity:1" d="M36.1 0.45Q36.6 0.95 36.6 1.65Q36.6 2.35 36.1 2.8Q35.65 3.3 34.95 3.3Q34.3 3.3 33.8 2.8Q33.35 2.35 33.35 1.65Q33.35 0.95 33.8 0.45Q34.3 0 34.95 0Q35.65 0 36.1 0.45" />
<path style="fill:none;stroke-width:0.7;stroke-linecap:round;stroke-linejoin:round;stroke-miterlimit:3;stroke:#000000;stroke-opacity:0.4" d="M36.1 0.45Q36.6 0.95 36.6 1.65Q36.6 2.35 36.1 2.8Q35.65 3.3 34.95 3.3Q34.3 3.3 33.8 2.8Q33.35 2.35 33.35 1.65Q33.35 0.95 33.8 0.45Q34.3 0 34.95 0Q35.65 0 36.1 0.45z" />
</g>
</svg>
