<?xml version="1.0" encoding="utf-8"?>
<svg version="1.1" id="Layer_1"
xmlns="http://www.w3.org/2000/svg"
xmlns:xlink="http://www.w3.org/1999/xlink"
width="44px" height="31px"
xml:space="preserve">
<g id="PathID_3244" transform="matrix(1, 0, 0, 1, 0, 0)">
<linearGradient
id="LinearGradID_1062" gradientUnits="userSpaceOnUse" gradientTransform="matrix(0, 0.00842285, -0.00942993, 0, 32, 13.1)" spreadMethod ="pad" x1="-819.2" y1="0" x2="819.2" y2="0" >
<stop  offset="0" style="stop-color:#A3A3A3;stop-opacity:1" />
<stop  offset="1" style="stop-color:#808080;stop-opacity:1" />
</linearGradient>
<path style="fill:url(#LinearGradID_1062) " d="M40 13.45Q42.55 15.85 44 15Q40.7 17.5 35.35 17.55Q29.5 17.55 28.25 16.35L29.25 17.7L30.35 19.05Q30.7 20.45 32.5 23.4Q29.75 20.6 27.6 19.45Q25.45 18.25 24.55 18.5Q24 18.65 22.8 20.35Q21.55 22.15 21.35 23.35Q20.7 21.3 20.9 18.25L21.2 15.6L22.4 14.15L23.95 12.55Q23.2 13.65 23.2 14.3Q23.2 13.65 23.95 12.55L25.85 10.45Q27.65 8.65 28.25 8.5Q27.65 9.55 27.8 10.8Q28.2 9.45 32.45 8.55L35.3 7.95Q31.05 9.45 30.1 11.35L31.55 10.65L34.15 9.6Q37.5 11.1 40 13.45" />
<linearGradient
id="LinearGradID_1063" gradientUnits="userSpaceOnUse" gradientTransform="matrix(-0.000946045, 0.00944519, -0.015213, -0.00152588, 11.65, 10.15)" spreadMethod ="pad" x1="-819.2" y1="0" x2="819.2" y2="0" >
<stop  offset="0" style="stop-color:#A3A3A3;stop-opacity:1" />
<stop  offset="1" style="stop-color:#808080;stop-opacity:1" />
</linearGradient>
<path style="fill:url(#LinearGradID_1063) " d="M3.95 15.9L4.55 13.45Q6.2 12.05 11.9 8.6L7.6 9.35Q4.35 10 0 11.85Q6.05 8.15 8.9 6.7Q13.6 4.25 16.25 4.85L11.6 0Q14.15 0.9 16.95 2.85Q18.25 3.75 20 6.65L21.75 9.85L17.9 8.5L18.45 10.3L18.9 12.1L16.4 11.65L18.15 13.35Q16.05 14.1 14.25 17.1L12.85 19.9Q12.6 18.6 12.6 16.85Q12.6 13.35 13.9 11.05Q12.25 12 10.7 14.25Q7.5 18.75 7.9 25.05L3.4 19.15Q3.35 18.45 3.95 15.9" />
<path style="fill:#4F4943;fill-opacity:1" d="M37.35 7.75L34.15 9.6L31.55 10.65L30.1 11.35Q31.05 9.45 35.3 7.95L37.35 7.75M20.6 13.7Q19.85 14.95 19.9 15.5Q15.75 19.35 15 23Q14.5 25.4 14.8 28.2L15.15 30.6L11.95 28.35Q9.7 26.7 9.4 26.1L8.55 30.4Q6.95 29.25 5.1 25.3Q3.55 22.05 3.4 19.15L7.9 25.05Q7.5 18.75 10.7 14.25Q12.25 12 13.9 11.05Q12.6 13.35 12.6 16.85Q12.6 18.6 12.85 19.9L14.25 17.1Q16.05 14.1 18.15 13.35L16.4 11.65L18.9 12.1L18.45 10.3L17.9 8.5L21.75 9.85L21.85 11.2L21.8 12.1Q21.3 12.45 20.6 13.7M38.4 18.75L39.6 22.05L37.35 20.25L37.4 21.35L30.35 19L30.35 19.05L29.25 17.7L28.25 16.35Q29.5 17.55 35.35 17.55Q40.7 17.5 44 15Q41.7 18.4 38.4 18.75M21.2 15.6L20.9 18.25Q20.7 21.3 21.35 23.35Q21.55 22.15 22.8 20.35Q24 18.65 24.55 18.5Q25.45 18.25 27.6 19.45Q29.75 20.6 32.5 23.4Q28.6 20.75 26.85 20.75Q24.8 20.75 24.3 22.25L23.45 25.25Q22.35 29 19.8 29.85Q21.7 28.85 20.45 26.7Q19.2 24.6 19.3 22.75Q19.4 20.25 20.3 17.7L21.2 15.6M7.5 9.8L0 11.85Q4.35 10 7.6 9.35L11.9 8.6Q6.2 12.05 4.55 13.45Q5.6 11.55 7.5 9.8" />
<path style="fill:none;stroke-width:0.7;stroke-linecap:round;stroke-linejoin:round;stroke-miterlimit:3;stroke:#000000;stroke-opacity:0.45098" d="M35.3 7.95L32.45 8.55Q28.2 9.45 27.8 10.8Q27.65 9.55 28.25 8.5Q27.65 8.65 25.85 10.45L23.95 12.55Q23.2 13.65 23.2 14.3" />
<path style="fill:none;stroke-width:0.7;stroke-linecap:round;stroke-linejoin:round;stroke-miterlimit:3;stroke:#000000;stroke-opacity:0.45098" d="M34.15 9.6L37.35 7.75L35.3 7.95" />
<path style="fill:none;stroke-width:0.7;stroke-linecap:round;stroke-linejoin:round;stroke-miterlimit:3;stroke:#000000;stroke-opacity:0.45098" d="M21.8 12.1L21.85 11.2L21.75 9.85" />
<path style="fill:none;stroke-width:0.7;stroke-linecap:round;stroke-linejoin:round;stroke-miterlimit:3;stroke:#000000;stroke-opacity:0.45098" d="M3.4 19.15Q3.55 22.05 5.1 25.3Q6.95 29.25 8.55 30.4L9.4 26.1Q9.7 26.7 11.95 28.35L15.15 30.6L14.8 28.2Q14.5 25.4 15 23Q15.75 19.35 19.9 15.5" />
<path style="fill:none;stroke-width:0.7;stroke-linecap:round;stroke-linejoin:round;stroke-miterlimit:3;stroke:#000000;stroke-opacity:0.45098" d="M44 15Q42.55 15.85 40 13.45Q37.5 11.1 34.15 9.6" />
<path style="fill:none;stroke-width:0.7;stroke-linecap:round;stroke-linejoin:round;stroke-miterlimit:3;stroke:#000000;stroke-opacity:0.45098" d="M23.95 12.55L22.4 14.15L21.2 15.6" />
<path style="fill:none;stroke-width:0.7;stroke-linecap:round;stroke-linejoin:round;stroke-miterlimit:3;stroke:#000000;stroke-opacity:0.45098" d="M32.5 23.4Q30.7 20.45 30.35 19.05L30.35 19L37.4 21.35L37.35 20.25L39.6 22.05L38.4 18.75Q41.7 18.4 44 15" />
<path style="fill:none;stroke-width:0.7;stroke-linecap:round;stroke-linejoin:round;stroke-miterlimit:3;stroke:#000000;stroke-opacity:0.45098" d="M32.5 23.4Q28.6 20.75 26.85 20.75Q24.8 20.75 24.3 22.25L23.45 25.25Q22.35 29 19.8 29.85Q21.7 28.85 20.45 26.7Q19.2 24.6 19.3 22.75Q19.4 20.25 20.3 17.7L21.2 15.6" />
<path style="fill:none;stroke-width:0.7;stroke-linecap:round;stroke-linejoin:round;stroke-miterlimit:3;stroke:#000000;stroke-opacity:0.45098" d="M21.75 9.85L20 6.65Q18.25 3.75 16.95 2.85Q14.15 0.9 11.6 0L16.25 4.85Q13.6 4.25 8.9 6.7Q6.05 8.15 0 11.85" />
<path style="fill:none;stroke-width:0.7;stroke-linecap:round;stroke-linejoin:round;stroke-miterlimit:3;stroke:#000000;stroke-opacity:0.45098" d="M4.55 13.45L3.95 15.9Q3.35 18.45 3.4 19.15" />
<path style="fill:none;stroke-width:0.7;stroke-linecap:round;stroke-linejoin:round;stroke-miterlimit:3;stroke:#000000;stroke-opacity:0.45098" d="M0 11.85L7.5 9.8Q5.6 11.55 4.55 13.45" />
</g>
</svg>
