<?xml version="1.0" encoding="utf-8"?>
<svg version="1.1" id="Layer_1"
xmlns="http://www.w3.org/2000/svg"
xmlns:xlink="http://www.w3.org/1999/xlink"
width="16px" height="10px"
xml:space="preserve">
<g id="PathID_3762" transform="matrix(1, 0, 0, 1, 0.15, 0.15)">
<path style="fill:#808080;fill-opacity:1" d="M14.25 3.55L13.5 4.65L14.25 3.55Q14.6 3.8 14.6 4.25L13.55 5.65Q12.8 6.2 12.45 6.2Q11.55 5.85 11.15 4.95L11.1 4.9L10.8 4.25Q12.45 3.8 14 1.8L14.5 0.5Q15.2 1.85 14.25 3.55M11.1 4.95Q10.8 6.2 10.15 6.2L10.1 6.25Q9.4 5.95 9.25 5.15L8.8 5.55Q9.45 4.8 9.3 4.45L8.8 4.15Q9.5 3.7 10.2 3.95L10.8 4.25L11.1 4.9L11.15 4.95L11.1 4.95M8.8 5.55L6.75 6.5L6.25 6.65L6.75 6.5Q8.35 6.1 7.25 7.85L6.55 8.35Q4.2 8.9 3.5 8.05L4.1 7.5L3.2 7.1Q3.05 6.95 3.25 6.5Q3.45 6 3.85 5.8L6.95 5.6Q1.45 4.7 0 2.65L0.15 1.85Q1.9 3.85 9.3 4.45Q9.45 4.8 9.25 5.15" />
<path style="fill:#4F4943;fill-opacity:1" d="M14.5 0.5L14 1.8Q12.45 3.8 10.8 4.25L10.2 3.95Q11.3 1.25 13.7 0Q14.5 -0.05 14.5 0.5M6.75 6.5L8.8 5.55L8.7 6.3L8.8 5.55L9.25 5.15Q9.4 5.95 10.1 6.25L10.15 6.2Q10.8 6.2 11.1 4.95L11.15 4.95Q11.55 5.85 12.45 6.2Q12.8 6.2 13.55 5.65L14.6 4.25L14.2 5.25L13.55 5.65L14.2 5.25Q14.65 6.5 14.1 7.3Q12.25 7.85 10.9 6.45Q11.35 5.8 11.15 4.95Q11.35 5.8 10.9 6.45L10.3 7Q9.2 7.4 8.7 6.3L7.25 7.85Q8.35 6.1 6.75 6.5M0.15 1.85L0.15 1.8Q2.65 0.55 6.25 2.6L8.8 4.15L9.3 4.45Q1.9 3.85 0.15 1.85M6.55 8.35Q5.05 9.2 3.05 9Q1.35 7.5 1.35 6.25L1.35 6.2Q0.85 5.35 1.35 4.95L1.3 4.95Q0 3.75 0 2.65Q1.45 4.7 6.95 5.6L3.85 5.8Q3.45 6 3.25 6.5Q3.05 6.95 3.2 7.1L4.1 7.5L3.5 8.05Q4.2 8.9 6.55 8.35M1.35 4.95L3.85 5.8L1.35 4.95" />
<path style="fill:none;stroke-width:0.7;stroke-linecap:round;stroke-linejoin:round;stroke-miterlimit:3;stroke:#000000;stroke-opacity:0.4" d="M14.5 0.5L14 1.8Q12.45 3.8 10.8 4.25L11.1 4.9L11.15 4.95" />
<path style="fill:none;stroke-width:0.7;stroke-linecap:round;stroke-linejoin:round;stroke-miterlimit:3;stroke:#000000;stroke-opacity:0.4" d="M14.6 4.25Q14.6 3.8 14.25 3.55L13.5 4.65" />
<path style="fill:none;stroke-width:0.7;stroke-linecap:round;stroke-linejoin:round;stroke-miterlimit:3;stroke:#000000;stroke-opacity:0.4" d="M10.8 4.25L10.2 3.95Q9.5 3.7 8.8 4.15L9.3 4.45Q9.45 4.8 9.25 5.15" />
<path style="fill:none;stroke-width:0.7;stroke-linecap:round;stroke-linejoin:round;stroke-miterlimit:3;stroke:#000000;stroke-opacity:0.4" d="M11.15 4.95Q11.35 5.8 10.9 6.45Q12.25 7.85 14.1 7.3Q14.65 6.5 14.2 5.25L13.55 5.65" />
<path style="fill:none;stroke-width:0.7;stroke-linecap:round;stroke-linejoin:round;stroke-miterlimit:3;stroke:#000000;stroke-opacity:0.4" d="M14.2 5.25L14.6 4.25" />
<path style="fill:none;stroke-width:0.7;stroke-linecap:round;stroke-linejoin:round;stroke-miterlimit:3;stroke:#000000;stroke-opacity:0.4" d="M10.2 3.95Q11.3 1.25 13.7 0Q14.5 -0.05 14.5 0.5Q15.2 1.85 14.25 3.55" />
<path style="fill:none;stroke-width:0.7;stroke-linecap:round;stroke-linejoin:round;stroke-miterlimit:3;stroke:#000000;stroke-opacity:0.4" d="M10.9 6.45L10.3 7Q9.2 7.4 8.7 6.3L7.25 7.85L6.55 8.35Q5.05 9.2 3.05 9Q1.35 7.5 1.35 6.25L1.35 6.2Q0.85 5.35 1.35 4.95L1.3 4.95Q0 3.75 0 2.65L0.15 1.85L0.15 1.8Q2.65 0.55 6.25 2.6L8.8 4.15" />
<path style="fill:none;stroke-width:0.7;stroke-linecap:round;stroke-linejoin:round;stroke-miterlimit:3;stroke:#000000;stroke-opacity:0.4" d="M6.75 6.5L8.8 5.55L9.25 5.15" />
<path style="fill:none;stroke-width:0.7;stroke-linecap:round;stroke-linejoin:round;stroke-miterlimit:3;stroke:#000000;stroke-opacity:0.4" d="M3.85 5.8L1.35 4.95" />
<path style="fill:none;stroke-width:0.7;stroke-linecap:round;stroke-linejoin:round;stroke-miterlimit:3;stroke:#000000;stroke-opacity:0.4" d="M6.75 6.5L6.25 6.65" />
<path style="fill:none;stroke-width:0.7;stroke-linecap:round;stroke-linejoin:round;stroke-miterlimit:3;stroke:#000000;stroke-opacity:0.4" d="M8.7 6.3L8.8 5.55" />
<path style="fill:none;stroke-width:0.7;stroke-linecap:round;stroke-linejoin:round;stroke-miterlimit:3;stroke:#000000;stroke-opacity:0.4" d="M0.15 1.85Q1.9 3.85 9.3 4.45" />
</g>
</svg>
