<?xml version="1.0" encoding="utf-8"?>
<svg version="1.1" id="Layer_1"
xmlns="http://www.w3.org/2000/svg"
xmlns:xlink="http://www.w3.org/1999/xlink"
width="17px" height="14px"
xml:space="preserve">
<g id="PathID_1746" transform="matrix(1, 0, 0, 1, 0.15, 0.15)">
<path style="fill:#665151;fill-opacity:1" d="M5 12.2Q6.85 10 5.5 6.85L5.35 5.45L5.35 5L5.45 4.15L5.6 2.7L5.6 3.1Q5.6 4.5 6.55 5.55L6.7 5.7L7.25 6.25Q8.9 7.5 11.25 7.5Q13.35 7.5 15.85 5.75Q15.15 7.25 13.8 8.15L13.6 9.45L7.3 12.35Q4.6 13.35 2.4 12.8Q4.3 12.9 5 12.2" />
<path style="fill:#808080;fill-opacity:1" d="M11.25 7.5Q8.9 7.5 7.25 6.25L6.7 5.7L6.55 5.55Q5.6 4.5 5.6 3.1L5.6 2.7Q5.9 1.15 6.75 0Q5.65 3.75 7.3 4.85Q9.2 6.2 11.7 4.55Q13.1 3.2 13.2 0.7Q14.25 1.9 15 4.1Q16.3 3.15 16.2 0.75Q16.95 2.75 16.2 4.95L15.85 5.75Q13.35 7.5 11.25 7.5M2.4 12.8Q1.4 12.5 0.5 11.85L0 11.35Q2.25 12 1.65 10.05L3.75 9.85Q5.85 7.95 4.3 5.05L5.35 5.45L5.5 6.85Q6.85 10 5 12.2Q4.3 12.9 2.4 12.8" />
<path style="fill:none;stroke-width:0.7;stroke-linecap:round;stroke-linejoin:round;stroke-miterlimit:3;stroke:#000000;stroke-opacity:0.301961" d="M15.85 5.75L16.2 4.95Q16.95 2.75 16.2 0.75" />
<path style="fill:none;stroke-width:0.7;stroke-linecap:round;stroke-linejoin:round;stroke-miterlimit:3;stroke:#000000;stroke-opacity:0.301961" d="M6.75 0Q5.9 1.15 5.6 2.7" />
<path style="fill:none;stroke-width:0.7;stroke-linecap:round;stroke-linejoin:round;stroke-miterlimit:3;stroke:#000000;stroke-opacity:0.301961" d="M15.85 5.75Q15.15 7.25 13.8 8.15L13.6 9.45L7.3 12.35Q4.6 13.35 2.4 12.8Q1.4 12.5 0.5 11.85L0 11.35" />
<path style="fill:none;stroke-width:0.7;stroke-linecap:round;stroke-linejoin:round;stroke-miterlimit:3;stroke:#000000;stroke-opacity:0.301961" d="M5.35 5.45L5.35 5L5.45 4.15L5.6 2.7" />
<path style="fill:none;stroke-width:0.7;stroke-linecap:round;stroke-linejoin:round;stroke-miterlimit:3;stroke:#000000;stroke-opacity:0.301961" d="M5.35 5.45L5.5 6.85" />
</g>
</svg>
