<?xml version="1.0" encoding="utf-8"?>
<svg version="1.1" id="Layer_1"
xmlns="http://www.w3.org/2000/svg"
xmlns:xlink="http://www.w3.org/1999/xlink"
width="11px" height="10px"
xml:space="preserve">
<g id="PathID_1979" transform="matrix(1, 0, 0, 1, 5.05, 4.65)">
<linearGradient
id="LinearGradID_562" gradientUnits="userSpaceOnUse" gradientTransform="matrix(-0.000701904, 0.00256348, -0.00595093, -0.00163269, 0.25, -1.8)" spreadMethod ="pad" x1="-819.2" y1="0" x2="819.2" y2="0" >
<stop  offset="0" style="stop-color:#808080;stop-opacity:1" />
<stop  offset="1" style="stop-color:#808080;stop-opacity:0" />
</linearGradient>
<path style="fill:url(#LinearGradID_562) " d="M2.55 -2.55L0.15 -2.35Q-1.3 -1.75 -1.35 -0.5Q-1.4 1.05 0.6 2.9L2.6 4.4L2 4.65Q1.45 3.9 0.9 3.7L-0.65 3.35Q-2.35 2.9 -3.95 1.1Q-5.95 -1.2 -4.25 -3.2Q-2.65 -5.1 0.5 -4.55Q3.25 -4.05 4.2 -2.75Q5.5 -1 4.85 0.35Q4.8 -0.55 4.15 -1.35Q3.5 -2.2 2.55 -2.55" />
</g>
</svg>
