<?xml version="1.0" encoding="utf-8"?>
<svg version="1.1" id="Layer_1"
xmlns="http://www.w3.org/2000/svg"
xmlns:xlink="http://www.w3.org/1999/xlink"
width="20px" height="27px"
xml:space="preserve">
<g id="PathID_3343" transform="matrix(1, 0, 0, 1, 0.35, 0.4)">
<path style="fill:#808080;fill-opacity:1" d="M16.4 4.8L16.3 6.2L14 5.55L14.1 6.3Q13.2 5.95 7.35 2.85L8.05 5.15L8.6 7.6Q8.6 8.15 6.55 9.25L4.45 10.25L5.3 10.85L0 14.6L2.05 11.4L0.6 11.4Q2.45 8.95 2.75 8.85L2.4 8.7L1.95 8.4L4.8 8.3L3.95 6.9L3.35 5.5L6.1 5.85L5.85 4.95L6.9 4.35Q5.7 1.35 5 1.15L6.9 1.15Q8.55 1.15 13.3 2.65L12.9 1.75L12.85 1.7L14.8 1.85L14 0L15.8 1.5L18 3.65L18.45 2.75L19.15 5.75Q18.9 6.05 18.6 6.95L16.4 4.8" />
<path style="fill:#4F4943;fill-opacity:1" d="M0 14.6L5.3 10.85L4.45 10.25L6.55 9.25Q8.6 8.15 8.6 7.6L8.05 5.15L7.35 2.85Q13.2 5.95 14.1 6.3L14 5.55L16.3 6.2L16.4 4.8L18.6 6.95L18.55 7.1L18 8.75Q11.4 9.9 8.55 12.75Q7.1 14.2 7.1 14.95L7.5 15.65Q7.9 16.1 7.9 16.4Q7.9 17.05 7.55 17.4L6.3 18.5L7.4 21.65L8.3 25.35Q7.8 25 7 23Q6.65 24.85 4.45 25.95Q5.3 24.3 4.9 24.2Q4.45 24.1 4.95 21.15L4.2 21.15L3.9 19.9L2.85 20.5L3 14.85L1.5 15.3L1.8 14.8L2.05 14.15L0 14.6" />
<path style="fill:none;stroke-width:0.7;stroke-linecap:round;stroke-linejoin:miter;stroke-miterlimit:5;stroke:#000000;stroke-opacity:0.4" d="M18.6 6.95Q18.9 6.05 19.15 5.75L18.45 2.75L18 3.65L15.8 1.5L14 0L14.8 1.85L12.85 1.7L12.9 1.75L13.3 2.65Q8.55 1.15 6.9 1.15L5 1.15Q5.7 1.35 6.9 4.35L5.85 4.95L6.1 5.85L3.35 5.5L3.95 6.9L4.8 8.3L1.95 8.4L2.4 8.7L2.75 8.85Q2.45 8.95 0.6 11.4L2.05 11.4L0 14.6" />
<path style="fill:none;stroke-width:0.7;stroke-linecap:round;stroke-linejoin:miter;stroke-miterlimit:5;stroke:#000000;stroke-opacity:0.4" d="M18.6 6.95L18.55 7.1L18 8.75Q11.4 9.9 8.55 12.75Q7.1 14.2 7.1 14.95L7.5 15.65Q7.9 16.1 7.9 16.4Q7.9 17.05 7.55 17.4L6.3 18.5L7.4 21.65L8.3 25.35Q7.8 25 7 23Q6.65 24.85 4.45 25.95Q5.3 24.3 4.9 24.2Q4.45 24.1 4.95 21.15L4.2 21.15L3.9 19.9L2.85 20.5L3 14.85L1.5 15.3L1.8 14.8L2.05 14.15L0 14.6" />
</g>
</svg>
