<?xml version="1.0" encoding="utf-8"?>
<svg version="1.1" id="Layer_1"
xmlns="http://www.w3.org/2000/svg"
xmlns:xlink="http://www.w3.org/1999/xlink"
width="25px" height="26px"
xml:space="preserve">
<g id="PathID_2033" transform="matrix(1, 0, 0, 1, 11.25, 19.15)">
<path style="fill:none;stroke-width:0.7;stroke-linecap:round;stroke-linejoin:round;stroke-miterlimit:3;stroke:#000000;stroke-opacity:0.101961" d="M10.15 -16.85L10.7 -16.75L12.65 -18.45L11.85 -18.45" />
<path style="fill:none;stroke-width:0.7;stroke-linecap:round;stroke-linejoin:round;stroke-miterlimit:3;stroke:#000000;stroke-opacity:0.101961" d="M13.2 -18.95L12.65 -18.45L13.5 -18.45" />
<path style="fill:none;stroke-width:0.7;stroke-linecap:round;stroke-linejoin:round;stroke-miterlimit:3;stroke:#000000;stroke-opacity:0.101961" d="M10.7 -16.75L12.6 -16.35L10.75 -14.55L11.45 -14.35" />
<path style="fill:none;stroke-width:0.7;stroke-linecap:round;stroke-linejoin:round;stroke-miterlimit:3;stroke:#000000;stroke-opacity:0.101961" d="M5.9 -13.55L6.75 -13.3L8.8 -15.1L8.05 -15.3" />
<path style="fill:none;stroke-width:0.7;stroke-linecap:round;stroke-linejoin:round;stroke-miterlimit:3;stroke:#000000;stroke-opacity:0.101961" d="M7.45 -11.5L8.8 -12.7L6.75 -13.3L5.15 -11.9L6.9 -11.25" />
<path style="fill:none;stroke-width:0.7;stroke-linecap:round;stroke-linejoin:round;stroke-miterlimit:3;stroke:#000000;stroke-opacity:0.101961" d="M9.95 -12.4L8.8 -12.7L10.75 -14.55L8.8 -15.1L10.7 -16.75" />
<path style="fill:none;stroke-width:0.7;stroke-linecap:round;stroke-linejoin:round;stroke-miterlimit:3;stroke:#000000;stroke-opacity:0.101961" d="M7.5 -10.4L8.3 -9.45L9.65 -10.65L9.2 -10.9" />
<path style="fill:none;stroke-width:0.7;stroke-linecap:round;stroke-linejoin:round;stroke-miterlimit:3;stroke:#000000;stroke-opacity:0.101961" d="M9.05 -7.85L9.45 -8.2L8.3 -9.45L8.05 -9.25" />
<path style="fill:none;stroke-width:0.7;stroke-linecap:round;stroke-linejoin:round;stroke-miterlimit:3;stroke:#000000;stroke-opacity:0.101961" d="M9.95 -8.8L9.45 -8.2" />
<path style="fill:none;stroke-width:0.7;stroke-linecap:round;stroke-linejoin:round;stroke-miterlimit:3;stroke:#000000;stroke-opacity:0.101961" d="M5.15 -11.9L4.15 -12.25" />
<path style="fill:none;stroke-width:0.7;stroke-linecap:round;stroke-linejoin:round;stroke-miterlimit:3;stroke:#000000;stroke-opacity:0.101961" d="M10.3 -12.25L11.95 -14.15" />
<path style="fill:none;stroke-width:0.7;stroke-linecap:round;stroke-linejoin:round;stroke-miterlimit:3;stroke:#000000;stroke-opacity:0.101961" d="M10.35 -11.35L9.65 -10.65L10.5 -10.2" />
<path style="fill:none;stroke-width:0.7;stroke-linecap:round;stroke-linejoin:round;stroke-miterlimit:3;stroke:#000000;stroke-opacity:0.101961" d="M-2.45 -14.4L-3.5 -14.1L-2.95 -13.05" />
<path style="fill:none;stroke-width:0.7;stroke-linecap:round;stroke-linejoin:round;stroke-miterlimit:3;stroke:#000000;stroke-opacity:0.101961" d="M-4.6 -13.8L-3.5 -14.1L-4 -14.95" />
<path style="fill:none;stroke-width:0.7;stroke-linecap:round;stroke-linejoin:round;stroke-miterlimit:3;stroke:#000000;stroke-opacity:0.101961" d="M-0.05 -14.8L-0.05 -15.1L-0.5 -14.95" />
<path style="fill:none;stroke-width:0.7;stroke-linecap:round;stroke-linejoin:round;stroke-miterlimit:3;stroke:#000000;stroke-opacity:0.101961" d="M-2.4 -16.15L-2.05 -14.75" />
<path style="fill:none;stroke-width:0.7;stroke-linecap:round;stroke-linejoin:round;stroke-miterlimit:3;stroke:#000000;stroke-opacity:0.101961" d="M-0.05 -16.5L-0.05 -15.1L0.55 -15.3" />
</g>
<g id="PathID_2034" transform="matrix(1, 0, 0, 1, 11.25, 19.15)">
<path style="fill:#FFFFFF;fill-opacity:1" d="M5.4 -9Q5.2 -8.5 4.45 -8.5L3.25 -8.75Q4.6 -9.85 5.65 -9.85L5.4 -9M1.5 -11.35Q0.9 -10.6 -0.1 -10.1L-0.2 -10.5Q1.05 -11.45 1.4 -11.45L1.5 -11.35M6.2 -1.6L6.05 -0.9L5.7 -0.6Q5.5 -0.6 5.35 -0.9Q5.2 -1.2 5.2 -1.6L5.35 -2.3Q5.5 -2.6 5.7 -2.6L6.05 -2.3L6.2 -1.6M10.35 -6.95Q10.95 -6.95 12.05 -6.1Q11.6 -5.25 12.1 -4.55L12.7 -3.25Q12.7 -2.25 12.55 -2.95L12.45 -2.95Q10.75 -3.75 10.75 -4.35Q10.75 -5.3 10.15 -6.55L10.35 -6.95M-3.25 -11.05Q-3.9 -9.6 -4.9 -9.3L-4.45 -10.6L-3.4 -11.7L-3.25 -11.05M-4.6 3.8Q-4.95 4.3 -5.85 4.7L-5.4 2.65L-4.65 0.45L-4.4 1.5Q-4.1 3.05 -4.6 3.8M-8.2 5.55L-8.35 6.25L-8.75 6.5L-9.15 6.25L-9.3 5.55L-9.15 4.9Q-9 4.6 -8.75 4.6L-8.35 4.9Q-8.2 5.15 -8.2 5.55M-11.05 3.45L-10.15 2.75L-9.95 2.9Q-9.9 3.3 -10.25 3.75L-10.85 4.25L-11.25 4.15L-11.25 4L-11.05 3.45" />
</g>
<g id="PathID_2035" transform="matrix(1, 0, 0, 1, 11.25, 19.15)">
<path style="fill:none;stroke-width:0.7;stroke-linecap:round;stroke-linejoin:round;stroke-miterlimit:3;stroke:#000000;stroke-opacity:0.2" d="M-0.75 -14.4L-0.05 -16.5" />
</g>
</svg>
