<?xml version="1.0" encoding="utf-8"?>
<svg version="1.1" id="Layer_1"
xmlns="http://www.w3.org/2000/svg"
xmlns:xlink="http://www.w3.org/1999/xlink"
width="18px" height="10px"
xml:space="preserve">
<g id="PathID_3515" transform="matrix(1, 0, 0, 1, 8.7, 4.85)">
<path style="fill:#808080;fill-opacity:1" d="M8.5 -4.85L8.7 -3Q8.75 -1.65 8.45 -0.5L8 0.7L7.35 1.8L6.75 2.55L6.05 3.2L5.1 3.85L4.8 4.05L3.05 4.7L1.75 4.9L0.1 4.9L-1.65 4.65L-2.9 4.35L-3.5 4.15L-4.45 3.85L-6.4 2.95L-7.3 2.3Q-8.3 1.5 -8.7 0.55L-8.3 -0.85L-7.1 0.5L-5.85 1.4L-4.05 2.2L-2.95 2.55L-2.05 2.75L-1.25 2.9L0.1 3.05L2.2 3.05L3.15 2.85L5 2.25L5.45 2L6.2 1.55L6.85 1L7.1 0.75L8 -0.7L8.35 -1.7L8.45 -2.25L8.5 -4.85" />
</g>
</svg>
