<?xml version="1.0" encoding="utf-8"?>
<svg version="1.1" id="Layer_1"
xmlns="http://www.w3.org/2000/svg"
xmlns:xlink="http://www.w3.org/1999/xlink"
width="17px" height="10px"
xml:space="preserve">
<g id="PathID_2919" transform="matrix(1, 0, 0, 1, 0, 0)">
<path style="fill:#808080;fill-opacity:1" d="M15.6 1.55L15.05 1.3L14.85 0.75L15.05 0.25Q15.3 0 15.6 0Q15.95 0 16.2 0.25L16.4 0.75L16.2 1.3L15.6 1.55" />
<path style="fill:#5D5A56;fill-opacity:1" d="M6.75 2.6Q7 2.45 7.25 2.45L7.75 2.6L7.95 3.1L7.75 3.55L7.25 3.75L6.75 3.55L6.6 3.1L6.75 2.6" />
<path style="fill:#403C38;fill-opacity:1" d="M0.6 9.9L0.15 9.7L0 9.25L0.15 8.85L0.6 8.65Q0.9 8.65 1.05 8.85L1.3 9.3L1.05 9.7Q0.9 9.9 0.6 9.9" />
<path style="fill:none;stroke-width:0.7;stroke-linecap:round;stroke-linejoin:round;stroke-miterlimit:3;stroke:#000000;stroke-opacity:0.4" d="M15.6 1.55L15.05 1.3L14.85 0.75L15.05 0.25Q15.3 0 15.6 0Q15.95 0 16.2 0.25L16.4 0.75L16.2 1.3L15.6 1.55z" />
<path style="fill:none;stroke-width:0.7;stroke-linecap:round;stroke-linejoin:round;stroke-miterlimit:3;stroke:#000000;stroke-opacity:0.4" d="M6.75 2.6Q7 2.45 7.25 2.45L7.75 2.6L7.95 3.1L7.75 3.55L7.25 3.75L6.75 3.55L6.6 3.1L6.75 2.6z" />
<path style="fill:none;stroke-width:0.7;stroke-linecap:round;stroke-linejoin:round;stroke-miterlimit:3;stroke:#000000;stroke-opacity:0.4" d="M0.6 9.9L0.15 9.7L0 9.25L0.15 8.85L0.6 8.65Q0.9 8.65 1.05 8.85L1.3 9.3L1.05 9.7Q0.9 9.9 0.6 9.9z" />
</g>
</svg>
