<?xml version="1.0" encoding="utf-8"?>
<svg version="1.1" id="Layer_1"
xmlns="http://www.w3.org/2000/svg"
xmlns:xlink="http://www.w3.org/1999/xlink"
width="16px" height="12px"
xml:space="preserve">
<g id="PathID_2225" transform="matrix(1, 0, 0, 1, 0.1, 0.1)">
<path style="fill:#666666;fill-opacity:1" d="M10.55 7.9L10.3 8.5Q9.85 9.55 8.45 10.35Q7.4 10.95 5.85 11.4L5.65 10.9Q4.95 11.75 3.75 11.7L3.7 11.15Q2.3 11.35 1.05 10.6Q1.25 9.35 1.75 8.75Q3.15 9.55 5.05 9.75L5.65 9.15L6 9.6Q7.25 9.45 8.45 8.75Q9.7 8 10.9 6.7L10.55 7.9" />
<path style="fill:#B1A5B5;fill-opacity:1" d="M10.9 6.7L11.65 5.85L10.55 7.9L10.9 6.7" />
<path style="fill:#808080;fill-opacity:1" d="M8.45 8.75Q7.25 9.45 6 9.6L5.65 9.15L5.05 9.75Q3.15 9.55 1.75 8.75Q2.3 7.85 3.35 7.95L5.65 8Q7.6 8.1 8.45 6.95L8.8 6.3L8.45 6.65Q7.4 7.45 5.25 7.45Q5.3 2.8 0 1.95Q0.85 1.25 2.05 0.85Q6.75 -1.05 10.1 1.3L10.95 2Q11.55 3.2 11.75 4.35L10.9 6.7Q9.7 8 8.45 8.75M8.35 2.6L8.35 2.9L8.9 4.45L9.1 3.45Q9.05 2.85 8.7 2.6L8.35 2.6M7.35 3L7.8 3.8Q8.05 3.8 7.8 2.2Q7.45 1.3 7.2 1.3Q7 1.3 7.05 1.85L7.35 3M5.7 1.55L5.45 1.6Q6.25 1.7 6.75 3.7Q7.2 5.7 8.4 5.7L8.45 5.7L8.7 5.75L8.45 5.6L7.9 4.95L7.1 3.05Q6.6 1.65 5.7 1.55M8.3 4.4L8.2 4.65Q8.2 5.15 8.45 5.4L8.6 5.45L8.9 5.45L8.45 4.55L8.3 4.4" />
<path style="fill:none;stroke-width:0.7;stroke-linecap:round;stroke-linejoin:round;stroke-miterlimit:3;stroke:#000000;stroke-opacity:0.498039" d="M10.9 6.7L11.75 4.35Q11.55 3.2 10.95 2L10.1 1.3Q6.75 -1.05 2.05 0.85Q0.85 1.25 0 1.95" />
<path style="fill:none;stroke-width:0.7;stroke-linecap:round;stroke-linejoin:round;stroke-miterlimit:3;stroke:#000000;stroke-opacity:0.498039" d="M10.55 7.9L10.3 8.5Q9.85 9.55 8.45 10.35Q7.4 10.95 5.85 11.4L5.65 10.9Q4.95 11.75 3.75 11.7L3.7 11.15Q2.3 11.35 1.05 10.6L0.2 9.9" />
<path style="fill:none;stroke-width:0.7;stroke-linecap:round;stroke-linejoin:round;stroke-miterlimit:3;stroke:#000000;stroke-opacity:0.498039" d="M10.9 6.7L10.55 7.9" />
</g>
<g id="PathID_2226" transform="matrix(1, 0, 0, 1, 0.1, 0.1)">
<path style="fill:#808080;fill-opacity:1" d="M12.15 5.05Q11.85 5.05 11.5 5.85Q11.2 6.55 11.2 6.85L11.95 6.25L12.4 5.45L12.15 5.05M9.95 7.95Q9.85 4.2 12.2 3.8L13.05 4.1Q13.6 4.45 13.6 5.4Q14.2 3.05 14.95 5.35Q15.05 6.1 14.7 6.45L13.6 5.4Q13.6 4.45 13.05 4.1Q13.65 6.15 12.95 6.9L9.95 7.95" />
<path style="fill:#666666;fill-opacity:1" d="M12.95 6.9L11.4 7.9Q10.45 8.45 10 9.15L9.95 7.95L12.95 6.9" />
<path style="fill:none;stroke-width:0.7;stroke-linecap:round;stroke-linejoin:round;stroke-miterlimit:3;stroke:#000000;stroke-opacity:0.498039" d="M9.95 7.95Q9.85 4.2 12.2 3.8L13.05 4.1Q14.2 3.05 14.95 5.35Q15.05 6.1 14.7 6.45L13.6 5.4Q13.65 6.15 12.95 6.9L11.4 7.9Q10.45 8.45 10 9.15L9.95 7.95z" />
<path style="fill:none;stroke-width:0.7;stroke-linecap:round;stroke-linejoin:round;stroke-miterlimit:3;stroke:#000000;stroke-opacity:0.498039" d="M13.05 4.1Q13.6 4.45 13.6 5.4" />
</g>
</svg>
