<?xml version="1.0" encoding="utf-8"?>
<svg version="1.1" id="Layer_1"
xmlns="http://www.w3.org/2000/svg"
xmlns:xlink="http://www.w3.org/1999/xlink"
width="12px" height="12px"
xml:space="preserve">
<g id="PathID_1247" transform="matrix(1, 0, 0, 1, 0, 0)">
<path style="fill:#808080;fill-opacity:1" d="M5.4 8.45L4.25 8.6L3.25 8.35Q3.1 8.5 0.05 7.05L0.35 5.9Q1 4.6 1.35 4.45Q3.1 3.65 4.4 5.3L6.1 6.85Q5.9 7.4 6.05 7.85L6.65 8.5L5.4 8.45M7.1 8.45L8.15 7.8Q8.7 7.2 8.45 6.2Q7.9 5.7 7 6L5.05 4.2L4.15 3.35Q3.85 2.85 3.95 2.35Q4.05 1.3 5.5 0.55Q6.2 0.15 6.95 0L8.35 1.65L10.1 2.05Q11 2.95 11.4 3.9Q11.9 4.95 11.2 4.95Q11.75 5.55 11.9 6.25Q12.1 7.4 11.15 8.25Q11.6 8.15 11.4 8.75L11 9.5Q9.75 9.55 7.9 8.8L7.1 8.45" />
<linearGradient
id="LinearGradID_315" gradientUnits="userSpaceOnUse" gradientTransform="matrix(0.00126648, -0.00299072, 0.00404358, 0.00172424, -0.1, 5.05)" spreadMethod ="pad" x1="-819.2" y1="0" x2="819.2" y2="0" >
<stop  offset="0.00392157" style="stop-color:#5C5652;stop-opacity:1" />
<stop  offset="1" style="stop-color:#808080;stop-opacity:1" />
</linearGradient>
<path style="fill:url(#LinearGradID_315) " d="M6.65 8.5L7.1 8.45L7.9 8.8Q9.75 9.55 11 9.5L10.25 10.25L7.3 10.05Q5.15 9.85 4.4 10.4L3 11.5Q2.65 11.3 2.65 8.9L2.65 8.75L4.25 8.6L5.4 8.45L6.65 8.5" />
<path style="fill:#5C5652;fill-opacity:1" d="M3.25 8.35L4.25 8.6L2.65 8.75L1.2 8.7L0.25 8.3Q-0.05 7.9 0.05 7.6L0.15 7.4L0.05 7.05Q3.1 8.5 3.25 8.35" />
</g>
</svg>
