<?xml version="1.0" encoding="utf-8"?>
<svg version="1.1" id="Layer_1"
xmlns="http://www.w3.org/2000/svg"
xmlns:xlink="http://www.w3.org/1999/xlink"
width="17px" height="16px"
xml:space="preserve">
<g id="PathID_3785" transform="matrix(1, 0, 0, 1, 0.15, 0.15)">
<radialGradient
id="RadialGradID_1249" gradientUnits="userSpaceOnUse" gradientTransform="matrix(0.0124817, 0.000640869, -0.000640869, 0.0124817, 6, 5.1)" spreadMethod ="pad" cx="0" cy="0" r="819.2" fx="0" fy="0" >
<stop  offset="0.027451"  style="stop-color:#C2C2C2;stop-opacity:1" />
<stop  offset="1"  style="stop-color:#808080;stop-opacity:1" />
</radialGradient>
<path style="fill:url(#RadialGradID_1249) " d="M15.9 4.25Q14.1 6.85 12 8.05L13 9.05Q14.4 11.2 14.65 13.65Q11.8 13.55 9.2 12.35Q6 14.85 3.95 15.3Q3.65 15.6 4.25 10.35Q2.95 9.8 1.25 8.3L0.05 6.9Q5.3 7.35 4.9 5.8Q-0.05 6.65 0.1 6.55Q2.15 5.65 5 5.25Q5.7 2.2 7.05 0Q9.65 2.5 10.5 4.3Q13.4 3.8 15.9 4.25M5.65 5.2Q7.55 3.85 7.15 0.85Q5.75 3.35 5.65 5.2M4.9 5.8Q2.8 5.95 0.05 6.9M4.35 14.7Q6.5 14.2 9.1 11.75Q12.25 13.35 14 13.1L8.85 10.7L4.35 14.7" />
<path style="fill:#5B5752;fill-opacity:1" d="M12 8.05Q14.1 6.85 15.9 4.25L14.8 6.8Q13.9 8.4 13 9.05L12 8.05M8.85 10.7L14 13.1Q12.25 13.35 9.1 11.75Q6.5 14.2 4.35 14.7L8.85 10.7" />
<path style="fill:#D0D0D0;fill-opacity:1" d="M7.15 0.85Q7.55 3.85 5.65 5.2Q5.75 3.35 7.15 0.85M4.9 5.8Q5.3 7.35 0.05 6.9Q2.8 5.95 4.9 5.8" />
<path style="fill:none;stroke-width:0.7;stroke-linecap:round;stroke-linejoin:miter;stroke-miterlimit:3;stroke:#000000;stroke-opacity:0.298039" d="M13 9.05Q13.9 8.4 14.8 6.8L15.9 4.25" />
<path style="fill:none;stroke-width:0.7;stroke-linecap:round;stroke-linejoin:miter;stroke-miterlimit:3;stroke:#000000;stroke-opacity:0.298039" d="M13 9.05Q14.4 11.2 14.65 13.65Q11.8 13.55 9.2 12.35Q6 14.85 3.95 15.3Q3.65 15.6 4.25 10.35Q2.95 9.8 1.25 8.3L0.05 6.9Q-0.05 6.65 0.1 6.55Q2.15 5.65 5 5.25Q5.7 2.2 7.05 0Q9.65 2.5 10.5 4.3Q13.4 3.8 15.9 4.25" />
</g>
</svg>
