<?xml version="1.0" encoding="utf-8"?>
<svg version="1.1" id="Layer_1"
xmlns="http://www.w3.org/2000/svg"
xmlns:xlink="http://www.w3.org/1999/xlink"
width="4px" height="4px"
xml:space="preserve">
<g id="PathID_2475" transform="matrix(1, 0, 0, 1, 0, 0)">
<path style="fill:#4F4943;fill-opacity:1" d="M1.75 1.95Q1.85 1.65 2.1 1.5Q2.5 1.15 3 1.3Q3.8 1.6 3.65 2.35L3.1 3.1Q2.6 3.4 1.95 2.8L1.7 2.45L1.7 2.2L1.75 1.95" />
<path style="fill:none;stroke-width:0.7;stroke-linecap:round;stroke-linejoin:round;stroke-miterlimit:3;stroke:#000000;stroke-opacity:0.4" d="M1.75 1.95Q1.85 1.65 2.1 1.5Q2.5 1.15 3 1.3Q3.8 1.6 3.65 2.35L3.1 3.1Q2.6 3.4 1.95 2.8L1.7 2.45L1.7 2.2L1.75 1.95z" />
</g>
<g id="PathID_2476" transform="matrix(1, 0, 0, 1, 0, 0)">
<path style="fill:#4F4943;fill-opacity:1" d="M1.7 1.95Q2.3 1.25 1.9 0.6Q1.55 0 0.9 0.1Q1.3 -0.05 1.75 0.1L2.45 0.75Q2.7 1.25 2.45 1.75L1.8 2.5L0.8 2.55L0.15 1.9L1.7 1.95" />
<path style="fill:#808080;fill-opacity:1" d="M0.15 1.9L0.15 1.85Q-0.1 1.35 0.1 0.85L0.75 0.15L0.9 0.1Q1.55 0 1.9 0.6Q2.3 1.25 1.7 1.95L0.15 1.9M0.6 1.4L0.8 0.95L0.8 0.65Q0.6 0.3 0.4 0.7Q0.2 1.1 0.3 1.3L0.35 1.4L0.6 1.4M0.65 1.8L0.7 1.85L0.9 1.9L0.9 1.75L0.75 1.7L0.65 1.8" />
<path style="fill:#D0D0D0;fill-opacity:1" d="M0.35 1.4L0.3 1.3Q0.2 1.1 0.4 0.7Q0.6 0.3 0.8 0.65L0.8 0.95L0.6 1.4L0.35 1.4M0.75 1.7L0.9 1.75L0.9 1.9L0.7 1.85L0.65 1.8L0.75 1.7" />
<path style="fill:none;stroke-width:0.7;stroke-linecap:round;stroke-linejoin:round;stroke-miterlimit:3;stroke:#000000;stroke-opacity:0.4" d="M0.9 0.1Q1.3 -0.05 1.75 0.1L2.45 0.75Q2.7 1.25 2.45 1.75L1.8 2.5L0.8 2.55L0.15 1.9L0.15 1.85Q-0.1 1.35 0.1 0.85L0.75 0.15L0.9 0.1z" />
</g>
</svg>
