<?xml version="1.0" encoding="utf-8"?>
<svg version="1.1" id="Layer_1"
xmlns="http://www.w3.org/2000/svg"
xmlns:xlink="http://www.w3.org/1999/xlink"
width="17px" height="22px"
xml:space="preserve">
<g id="PathID_2398" transform="matrix(1, 0, 0, 1, 0.15, 0.15)">
<path style="fill:#808080;fill-opacity:1" d="M5.3 2L5.3 2.8L5.35 2.8Q5.8 2.75 6.05 2.5L7.3 2.55L6.6 3.7L5.85 4.95L5.2 5.4L4.8 5.9L4.1 5.6L3.5 5.2L1.85 6.25L1.55 6.25Q1.45 6 2.15 4.45L2.1 4.45Q0.3 4.85 0 3.55L1.45 2.85Q1.35 2.25 0.8 1.95L1.5 1.85L2.45 2.1L2.95 0L3.55 0.75Q4.35 1.45 4.7 1.45L4.85 1.3L5.15 0.85L5.3 2" />
<path style="fill:none;stroke-width:0.7;stroke-linecap:round;stroke-linejoin:round;stroke-miterlimit:3;stroke:#000000;stroke-opacity:0.301961" d="M5.15 0.85L4.85 1.3L4.7 1.45Q4.35 1.45 3.55 0.75L2.95 0L2.45 2.1L1.5 1.85L0.8 1.95Q1.35 2.25 1.45 2.85L0 3.55Q0.3 4.85 2.1 4.45L2.15 4.45Q1.45 6 1.55 6.25L1.85 6.25L3.5 5.2L4.1 5.6L4.8 5.9L5.2 5.4L5.85 4.95L6.6 3.7L7.3 2.55L6.05 2.5Q5.8 2.75 5.35 2.8L5.3 2.8L5.3 2L5.15 0.85z" />
</g>
<g id="PathID_2399" transform="matrix(1, 0, 0, 1, 0.15, 0.15)">
<path style="fill:#808080;fill-opacity:1" d="M12.3 11.75L12.35 11.75L12.35 12.6L16.1 10.45L15.95 11.95Q15.65 13.1 15.35 13.15L15.35 13.25L15.9 13.1L16.3 12.6L16.35 12.6L16.35 13.3L15.55 16.35Q10.1 17.85 4.95 20.6L4.2 20.95L1.95 20.6L1.95 20.55L3.6 18.5L2.55 18.7Q1.85 18.7 1.3 18L0.55 16.75L2.05 16.3L3.3 15.8L2.75 15.35L2.4 14.85L4.4 14.7Q3.8 14.35 3.8 13.5L4 11.25L4.1 11.25Q4.9 12.1 7 12.6Q7.5 11.95 7.5 11.2L7.65 12Q7.8 12.7 8 12.8L8.6 11.8Q9 12.45 9.35 12.55Q9.5 11.95 10.55 10.9L12.15 9.6L12.15 11.25L11.8 12.25L11.35 12.7L12.3 11.75M11.35 12.7L11.8 12.25" />
<path style="fill:none;stroke-width:0.7;stroke-linecap:round;stroke-linejoin:round;stroke-miterlimit:3;stroke:#000000;stroke-opacity:0.301961" d="M11.8 12.25L12.15 11.25L12.15 9.6L10.55 10.9Q9.5 11.95 9.35 12.55Q9 12.45 8.6 11.8L8 12.8Q7.8 12.7 7.65 12L7.5 11.2Q7.5 11.95 7 12.6Q4.9 12.1 4.1 11.25L4 11.25L3.8 13.5Q3.8 14.35 4.4 14.7L2.4 14.85L2.75 15.35L3.3 15.8L2.05 16.3L0.55 16.75L1.3 18Q1.85 18.7 2.55 18.7L3.6 18.5L1.95 20.55L1.95 20.6L4.2 20.95L4.95 20.6Q10.1 17.85 15.55 16.35L16.35 13.3L16.35 12.6L16.3 12.6L15.9 13.1L15.35 13.25L15.35 13.15Q15.65 13.1 15.95 11.95L16.1 10.45L12.35 12.6L12.35 11.75L12.3 11.75L11.8 12.25L11.35 12.7" />
</g>
</svg>
