<?xml version="1.0" encoding="utf-8"?>
<svg version="1.1" id="Layer_1"
xmlns="http://www.w3.org/2000/svg"
xmlns:xlink="http://www.w3.org/1999/xlink"
width="28px" height="30px"
xml:space="preserve">
<g id="PathID_1891" transform="matrix(1, 0, 0, 1, 0, 0)">
<path style="fill:#808080;fill-opacity:1" d="M2 24.55L1.8 24.85L1.4 25Q1.1 25 1.15 24.75Q1.25 24.05 1.65 24.05Q2.05 24.1 2 24.55M0.75 23.65L0.65 24.25L0.6 25.6L3.25 25.8L3.6 28.2L5.55 28L5.1 29.05L3.05 29.05L2.65 26.55L0 26.3L0.1 24.35L0.75 23.65M5.05 26.45Q5.45 26.55 5.4 27.05Q5.3 27.55 4.9 27.5Q4.5 27.45 4.6 26.9Q4.65 26.35 5.05 26.45M1.15 27.25Q1.5 27.3 1.45 27.6L1.35 27.9L1.05 28.05Q0.7 28.05 0.75 27.6Q0.8 27.25 1.15 27.25" />
</g>
<g id="PathID_1892" transform="matrix(1, 0, 0, 1, 0, 0)">
<path style="fill:#808080;fill-opacity:1" d="M26.35 3.25Q26.05 3.25 26.05 2.9Q26.05 2.6 26.45 2.55Q26.85 2.5 26.85 2.85Q26.85 3.25 26.35 3.25M25.25 9.5L26.25 8.35Q26.25 8.05 23.95 6.85L26.05 4.4L24.75 4L23.6 3.4L25.1 1.5L23.05 0.7L24 0L25.15 0.5L26.5 1.1L24.95 3.1Q25.3 3.65 27.35 4.35Q25.45 6.5 25.45 6.7L26.5 7.6L27.55 8.15L27.55 8.4L26.9 9.15L25.25 9.5M23.1 1.85Q23.1 1.55 23.55 1.4Q23.95 1.3 23.95 1.7L23.8 2.05L23.45 2.25L23.2 2.05L23.1 1.85M24.75 4.85L24.55 5.15L24.25 5.3Q23.95 5.3 23.95 5Q23.95 4.7 24.35 4.65Q24.75 4.6 24.75 4.85M24.2 8.9L23.95 8.7L23.9 8.5Q23.9 8.15 24.35 8.15Q24.8 8.15 24.8 8.5L24.6 8.75L24.2 8.9M26.75 6.25Q27.15 6.2 27.15 6.55L26.7 7Q26.35 7 26.35 6.7Q26.35 6.3 26.75 6.25M11.1 11.5L10.9 11.3L10.9 11.15Q10.9 10.8 11.2 10.8Q11.5 10.8 11.5 11.15Q11.45 11.5 11.1 11.5M5.8 5Q6.35 5 6.25 5.5Q6.2 6.1 5.7 6.1Q5.2 6.1 5.2 5.5Q5.25 5 5.8 5M8 9.25L8.15 8.95L6.65 8.2L5.3 7.75L7.85 5.4L6.6 4.5L5.45 3.4L6.45 1.95L7.65 2.05L6.55 3.65L7.95 4.8Q8.9 5.35 8.9 5.6L8.05 6.85L7.1 7.75L9.2 8.5L8.95 9.2L8 9.25M8.65 10.2L9.4 10.95L9.9 11.45L9.65 12.1L8.8 12.1Q8.8 11.45 8.6 11.25L7.25 10.5L7.25 10.4L7.3 10.4L8.65 10.2M8.7 16.1Q8.4 14.9 7 14.05L8.4 12.75L9.35 12.7L8.65 13.9Q8.6 14.15 9.4 14.7L10.2 15.4L8.7 16.1M8.15 3.4Q8.2 2.9 8.7 2.9Q9.15 2.9 9.05 3.2Q9 3.75 8.45 3.75Q8.2 3.75 8.15 3.6L8.15 3.4M9.2 7.4L8.95 7.15L8.95 6.95L9.35 6.85L9.6 7.1L9.2 7.4M6 9.3Q6.05 8.95 6.5 8.95Q6.9 8.95 6.8 9.25L6.8 9.3L6 9.3M7.3 11.4L7.05 11.65L6.75 11.55L6.75 11.4L7.1 11.15L7.3 11.4M9.85 13.95Q9.9 13.5 10.4 13.5Q10.75 13.5 10.75 13.9Q10.7 14.3 10.2 14.3L9.9 14.15L9.85 13.95M6.95 15.55Q7 15.4 7.35 15.4Q7.65 15.4 7.6 15.75Q7.6 16.2 7.25 16.2Q6.95 16.2 6.95 15.85L6.95 15.55" />
<path style="fill:#4F4943;fill-opacity:1" d="M26.9 9.15L25.9 10.45L26.9 11.2L27.8 12L26.55 13.7L26.1 14.2L24.9 13.45L25.5 12.85L26.4 11.7L24.25 10.2L25.25 9.5L26.9 9.15M25.15 12.15L25 12.45L24.75 12.65Q24.4 12.65 24.4 12.1Q24.4 11.8 24.8 11.8Q25.15 11.8 25.15 12.15M27.7 10.2Q27.7 10.65 27.1 10.65Q26.95 10.65 26.95 10.15L27.35 9.9Q27.7 9.85 27.7 10.2M7.3 10.4L8 9.25L8.95 9.2L8.65 10.2L7.3 10.4M8.4 12.75L8 12.15L8.8 12.1L9.35 12.7L8.4 12.75M10.2 15.4L9.55 17.15L11.55 17.2Q11 19.25 11 19.65Q11 20.25 12.6 21.05L12.65 21.05L11.8 21.3L10.9 21.35L9.35 19.95L9.8 19.15L10.2 18.15L10.2 18.05L8.6 17.75Q8.4 17.65 8.7 16.1L10.2 15.4M6.8 9.3Q6.8 9.8 6.25 9.8Q5.95 9.8 5.95 9.45L6 9.3L6.8 9.3M8.5 18.9Q8.5 18.45 8.95 18.45Q9.35 18.5 9.35 18.75L9.15 19.1L8.75 19.25Q8.45 19.25 8.5 18.9M12.5 18.95L12.65 19.5L12.45 19.75L12.2 19.9Q11.65 19.9 11.65 19.45Q11.7 18.95 12.2 18.85L12.5 18.95" />
</g>
</svg>
