<?xml version="1.0" encoding="utf-8"?>
<svg version="1.1" id="Layer_1"
xmlns="http://www.w3.org/2000/svg"
xmlns:xlink="http://www.w3.org/1999/xlink"
width="19px" height="9px"
xml:space="preserve">
<g id="PathID_3701" transform="matrix(1, 0, 0, 1, 0.15, 0.15)">
<path style="fill:#808080;fill-opacity:1" d="M14.95 1.75L18.2 2L16.3 2.45L13.15 2.1L10.6 2.9L14.95 1.75M10.6 2.9L7.55 2.5L10.25 1.7L13.15 2.1M7.4 2.1L8.4 0.75L10.1 1.2L11.8 0.8L14.75 1.15L13 1.55L10.1 1.2L7.55 2.5L7.05 2.4L7.4 2.1M4.75 3.95L2.45 5.1L7.6 3.15L2.55 3.25L3.9 2.6L5.55 2.9Q6.35 2.9 7.05 2.4L7.55 2.5L4.75 3.95M11.65 0.4L10.1 1.2L8.4 0.75Q9.8 0.15 11.65 0.4M8.05 4.9L5.65 5.6L10.85 4L13.65 4.3L10.8 5.1L8.05 4.9M8.35 6.3L5.9 6.15L8.05 5.5L10.75 5.75L8.35 6.3M13.75 3.75L10.75 3.4L7.95 4.35L13.25 2.55L16.3 3L13.75 3.75M5.65 5.6L2.45 5.1L0 4.35L2.45 3.8L4.75 3.95M7.6 3.15L10.75 3.4M7.95 4.35L4.75 3.95M2.45 5.1L4.85 4.4L8.05 4.9" />
<path style="fill:#BFBFBF;fill-opacity:1" d="M14.75 1.15L18.2 2L14.95 1.75L13.15 2.1L16.3 3L13.25 2.55L10.75 3.4L7.6 3.15L4.75 3.95L2.45 3.8L0 4.35L2.55 3.25L4.75 3.95L7.55 2.5M10.1 1.2L11.65 0.4L13.15 2.1L14.75 1.15L10.25 1.7L7.55 2.5L10.75 3.4L10.1 1.2M10.75 3.4L13.65 4.3L10.85 4L8.05 4.9L10.75 3.4L13.15 2.1M8.05 4.9L4.85 4.4L10.75 5.75L8.05 5.5L5.9 6.15L8.05 4.9M11.65 0.4Q9.8 0.15 8.4 0.75L9.85 0L11.65 0.4L14.75 1.15L11.8 0.8L10.1 1.2M4.85 4.4L2.45 5.1L4.75 3.95L8.05 4.9" />
<path style="fill:#4F4941;fill-opacity:1" d="M16.3 3L13.65 4.3L13.15 2.1L10.75 3.4L10.1 1.2L16.3 2.45L18.2 2L16.3 3M13.65 4.3L10.75 5.75L8.4 6.9L5.9 6.15L8.35 6.3L10.75 5.75L8.05 4.9L10.8 5.1L13.65 4.3L10.75 3.4L7.55 2.5L10.6 2.9L13.15 2.1M10.1 1.2L13 1.55L14.75 1.15L13.15 2.1M8.05 4.9L4.75 3.95L7.95 4.35L10.75 3.4L8.05 4.9L5.9 6.15L2.45 5.1L5.65 5.6L8.05 4.9M10.75 3.4L13.75 3.75L16.3 3" />
<path style="fill:#35322C;fill-opacity:1" d="M8.4 6.9L10.75 5.75L13.65 4.3L16.3 3L18.2 2L18.2 2.95L8.4 7.8L8.4 6.9" />
<path style="fill:#25231F;fill-opacity:1" d="M2.45 5.1L5.9 6.15L8.4 6.9L8.4 7.8L0 5.05L0 4.35L2.45 5.1" />
<path style="fill:none;stroke-width:0.7;stroke-linecap:round;stroke-linejoin:round;stroke-miterlimit:3;stroke:#000000;stroke-opacity:0.301961" d="M13.15 2.1L16.3 3" />
<path style="fill:none;stroke-width:0.7;stroke-linecap:round;stroke-linejoin:round;stroke-miterlimit:3;stroke:#000000;stroke-opacity:0.301961" d="M13.15 2.1L10.1 1.2L7.55 2.5L7.05 2.4Q6.35 2.9 5.55 2.9L3.9 2.6L2.55 3.25L4.75 3.95L7.55 2.5L10.75 3.4L13.15 2.1L14.75 1.15" />
<path style="fill:none;stroke-width:0.7;stroke-linecap:round;stroke-linejoin:round;stroke-miterlimit:3;stroke:#000000;stroke-opacity:0.301961" d="M10.1 1.2L8.4 0.75L7.4 2.1L7.05 2.4" />
<path style="fill:none;stroke-width:0.7;stroke-linecap:round;stroke-linejoin:round;stroke-miterlimit:3;stroke:#000000;stroke-opacity:0.301961" d="M18.2 2L18.2 2.95L8.4 7.8L0 5.05L0 4.35L2.55 3.25" />
<path style="fill:none;stroke-width:0.7;stroke-linecap:round;stroke-linejoin:round;stroke-miterlimit:3;stroke:#000000;stroke-opacity:0.301961" d="M13.65 4.3L10.75 3.4L8.05 4.9" />
<path style="fill:none;stroke-width:0.7;stroke-linecap:round;stroke-linejoin:round;stroke-miterlimit:3;stroke:#000000;stroke-opacity:0.301961" d="M8.05 4.9L10.75 5.75" />
<path style="fill:none;stroke-width:0.7;stroke-linecap:round;stroke-linejoin:round;stroke-miterlimit:3;stroke:#000000;stroke-opacity:0.301961" d="M14.75 1.15L11.65 0.4L10.1 1.2" />
<path style="fill:none;stroke-width:0.7;stroke-linecap:round;stroke-linejoin:round;stroke-miterlimit:3;stroke:#000000;stroke-opacity:0.301961" d="M14.75 1.15L18.2 2" />
<path style="fill:none;stroke-width:0.7;stroke-linecap:round;stroke-linejoin:round;stroke-miterlimit:3;stroke:#000000;stroke-opacity:0.301961" d="M8.4 0.75L9.85 0L11.65 0.4" />
<path style="fill:none;stroke-width:0.7;stroke-linecap:round;stroke-linejoin:round;stroke-miterlimit:3;stroke:#000000;stroke-opacity:0.301961" d="M8.05 4.9L5.9 6.15" />
<path style="fill:none;stroke-width:0.7;stroke-linecap:round;stroke-linejoin:round;stroke-miterlimit:3;stroke:#000000;stroke-opacity:0.301961" d="M4.75 3.95L8.05 4.9" />
<path style="fill:none;stroke-width:0.7;stroke-linecap:round;stroke-linejoin:round;stroke-miterlimit:3;stroke:#000000;stroke-opacity:0.301961" d="M2.45 5.1L4.75 3.95" />
</g>
</svg>
