<?xml version="1.0" encoding="utf-8"?>
<svg version="1.1" id="Layer_1"
xmlns="http://www.w3.org/2000/svg"
xmlns:xlink="http://www.w3.org/1999/xlink"
width="8px" height="16px"
xml:space="preserve">
<g id="PathID_1789" transform="matrix(1, 0, 0, 1, 0, 0)">
<path style="fill:#C4C4C4;fill-opacity:1" d="M4.9 10.6Q3.4 10.6 2.8 10L4.15 9.6L5.05 9.35L5.35 10.6L4.9 10.6" />
<path style="fill:#808080;fill-opacity:1" d="M5.35 10.6Q6 12.95 7.2 14.55L5.15 15.05Q4.2 13.6 3.6 11.6L3.25 15L2.95 14.15Q2.1 11.7 1.55 9.15Q1.35 13.95 0.7 13.35Q-1.15 6.9 2 0.75Q3.9 -0.45 4.7 0.25Q4.3 5.85 5.05 9.35L4.15 9.6L2.8 10Q3.4 10.6 4.9 10.6L5.35 10.6M3.6 11.6Q4.2 13.6 5.15 15.05M1.55 9.15Q2.1 11.7 2.95 14.15" />
<path style="fill:none;stroke-width:0.7;stroke-linecap:round;stroke-linejoin:round;stroke-miterlimit:3;stroke:#000000;stroke-opacity:0.4" d="M5.05 9.35L5.35 10.6Q6 12.95 7.2 14.55L5.15 15.05L3.25 15L2.95 14.15Q1.35 13.95 0.7 13.35Q-1.15 6.9 2 0.75" />
<path style="fill:none;stroke-width:0.7;stroke-linecap:round;stroke-linejoin:round;stroke-miterlimit:3;stroke:#000000;stroke-opacity:0.4" d="M4.7 0.25Q4.3 5.85 5.05 9.35" />
<path style="fill:none;stroke-width:0.7;stroke-linecap:round;stroke-linejoin:round;stroke-miterlimit:3;stroke:#000000;stroke-opacity:0.4" d="M5.15 15.05Q4.2 13.6 3.6 11.6" />
<path style="fill:none;stroke-width:0.7;stroke-linecap:round;stroke-linejoin:round;stroke-miterlimit:3;stroke:#000000;stroke-opacity:0.4" d="M1.55 9.15Q2.1 11.7 2.95 14.15" />
</g>
</svg>
