<?xml version="1.0" encoding="utf-8"?>
<svg version="1.1" id="Layer_1"
xmlns="http://www.w3.org/2000/svg"
xmlns:xlink="http://www.w3.org/1999/xlink"
width="20px" height="10px"
xml:space="preserve">
<g id="PathID_1579" transform="matrix(1, 0, 0, 1, 0, 0)">
<path style="fill:#808080;fill-opacity:1" d="M17.45 4.65L19.1 3.4Q18.55 6.75 15.95 8.9Q17.8 6.8 17.45 4.65" />
<path style="fill:#6F574F;fill-opacity:1" d="M15.95 8.9L14.65 9.5Q15.5 8.6 15.6 6.5Q15.2 7.6 13.8 8.55L14.6 6.25L17.45 4.65Q17.8 6.8 15.95 8.9" />
<linearGradient
id="LinearGradID_426" gradientUnits="userSpaceOnUse" gradientTransform="matrix(0, -0.00242615, 0.00598145, 0, -2.4, 2)" spreadMethod ="pad" x1="-819.2" y1="0" x2="819.2" y2="0" >
<stop  offset="0" style="stop-color:#6F574F;stop-opacity:1" />
<stop  offset="1" style="stop-color:#6F574F;stop-opacity:0" />
</linearGradient>
<path style="fill:url(#LinearGradID_426) " d="M5.25 7.8Q4.75 5.6 4.85 3.3Q5.6 5.35 6.95 6.2L8.55 9.25Q6.2 7.75 5.6 5.75Q6.2 8.75 7.65 9.75Q5.65 10.1 3.65 7.35Q2.55 5.8 2.35 4.4Q2.6 6.9 3.65 8.75Q1.9 7.65 0.95 5.1Q0.4 2.95 0.15 1.05L0 0L2.1 0Q2.5 5.45 5.25 7.8" />
<linearGradient
id="LinearGradID_427" gradientUnits="userSpaceOnUse" gradientTransform="matrix(0, -0.00242615, 0.00476074, 0, 3, 2)" spreadMethod ="pad" x1="-819.2" y1="0" x2="819.2" y2="0" >
<stop  offset="0" style="stop-color:#808080;stop-opacity:1" />
<stop  offset="1" style="stop-color:#808080;stop-opacity:0" />
</linearGradient>
<path style="fill:url(#LinearGradID_427) " d="M2.1 0L5.55 0Q5.7 3.2 6.95 6.2Q5.6 5.35 4.85 3.3Q4.75 5.6 5.25 7.8Q2.5 5.45 2.1 0" />
</g>
</svg>
