<?xml version="1.0" encoding="utf-8"?>
<svg version="1.1" id="Layer_1"
xmlns="http://www.w3.org/2000/svg"
xmlns:xlink="http://www.w3.org/1999/xlink"
width="9px" height="4px"
xml:space="preserve">
<g id="PathID_2547" transform="matrix(1, 0, 0, 1, 0.15, 0.15)">
<path style="fill:#808080;fill-opacity:1" d="M7.75 0.65L7.55 1.05L7.2 1L6.85 0.7L6.8 0.35L7 0.1L7.35 0L7.65 0.3L7.75 0.65M4.8 2.65L4.65 2.5L4.55 2.25L4.65 2L4.95 1.9L5.2 2L5.3 2.25L5.2 2.5L4.95 2.65L4.8 2.65M0.15 1.7L0 1.3L0.15 0.95Q0.3 0.8 0.55 0.8Q0.8 0.8 0.95 0.95L1.1 1.35L0.95 1.7Q0.8 1.9 0.55 1.9Q0.3 1.9 0.15 1.7" />
<path style="fill:none;stroke-width:0.7;stroke-linecap:round;stroke-linejoin:round;stroke-miterlimit:3;stroke:#000000;stroke-opacity:0.4" d="M7.75 0.65L7.55 1.05L7.2 1L6.85 0.7L6.8 0.35L7 0.1L7.35 0L7.65 0.3L7.75 0.65z" />
<path style="fill:none;stroke-width:0.7;stroke-linecap:round;stroke-linejoin:round;stroke-miterlimit:3;stroke:#000000;stroke-opacity:0.4" d="M4.8 2.65L4.65 2.5L4.55 2.25L4.65 2L4.95 1.9L5.2 2L5.3 2.25L5.2 2.5L6.3 3.15" />
<path style="fill:none;stroke-width:0.7;stroke-linecap:round;stroke-linejoin:round;stroke-miterlimit:3;stroke:#000000;stroke-opacity:0.4" d="M5.2 2.5L4.95 2.65L4.8 2.65L4.05 3.55" />
<path style="fill:none;stroke-width:0.7;stroke-linecap:round;stroke-linejoin:round;stroke-miterlimit:3;stroke:#000000;stroke-opacity:0.4" d="M0.15 1.7L0 1.3L0.15 0.95Q0.3 0.8 0.55 0.8Q0.8 0.8 0.95 0.95L1.1 1.35L0.95 1.7Q0.8 1.9 0.55 1.9Q0.3 1.9 0.15 1.7z" />
</g>
</svg>
