<?xml version="1.0" encoding="utf-8"?>
<svg version="1.1" id="Layer_1"
xmlns="http://www.w3.org/2000/svg"
xmlns:xlink="http://www.w3.org/1999/xlink"
width="6px" height="6px"
xml:space="preserve">
<g id="PathID_3954" transform="matrix(1, 0, 0, 1, 2.6, 2.55)">
<path style="fill:none;stroke-width:0.7;stroke-linecap:round;stroke-linejoin:round;stroke-miterlimit:3;stroke:#808080;stroke-opacity:0.301961" d="M0.5 -2.1L1.65 -1.3" />
<path style="fill:none;stroke-width:0.7;stroke-linecap:round;stroke-linejoin:round;stroke-miterlimit:3;stroke:#808080;stroke-opacity:0.301961" d="M1.05 -1.15L1.75 -0.4" />
<path style="fill:none;stroke-width:0.7;stroke-linecap:round;stroke-linejoin:round;stroke-miterlimit:3;stroke:#808080;stroke-opacity:0.301961" d="M0 0.2L0.55 2.05" />
<path style="fill:none;stroke-width:0.7;stroke-linecap:round;stroke-linejoin:round;stroke-miterlimit:3;stroke:#808080;stroke-opacity:0.301961" d="M0.85 -0.7L2.45 1.2" />
<path style="fill:none;stroke-width:0.7;stroke-linecap:round;stroke-linejoin:round;stroke-miterlimit:3;stroke:#808080;stroke-opacity:0.301961" d="M-1.5 -1.2L-0.05 -1.65" />
<path style="fill:none;stroke-width:0.7;stroke-linecap:round;stroke-linejoin:round;stroke-miterlimit:3;stroke:#808080;stroke-opacity:0.301961" d="M-0.2 0.45L-1.15 2.1" />
<path style="fill:none;stroke-width:0.7;stroke-linecap:round;stroke-linejoin:round;stroke-miterlimit:3;stroke:#808080;stroke-opacity:0.301961" d="M-2.4 0L-0.75 -1" />
</g>
<g id="PathID_3955" transform="matrix(1, 0, 0, 1, 2.6, 2.55)">
<path style="fill:#808080;fill-opacity:1" d="M1 -1L2.15 1.3Q2.2 1.75 1.3 0.45L1.7 1.2L2.1 2.25Q2.15 2.65 0.9 1.05L1.1 1.55L1.3 2.25Q1.25 2.6 -0.15 0.5L-2.35 2.4L-1.15 0.65L-1.65 1.2L-2.4 1.85Q-2.8 1.95 -0.95 -0.2L-2.35 0.95L-1 -0.7L-1.4 -0.65Q-1.65 -0.7 0.45 -2.4L1.55 -0.6Q1.25 -0.7 1 -1" />
<path style="fill:none;stroke-width:0.7;stroke-linecap:round;stroke-linejoin:round;stroke-miterlimit:3;stroke:#000000;stroke-opacity:0.2" d="M1.55 -0.6L0.45 -2.4Q-1.65 -0.7 -1.4 -0.65L-1 -0.7L-2.35 0.95L-0.95 -0.2Q-2.8 1.95 -2.4 1.85L-1.65 1.2L-1.15 0.65L-2.35 2.4L-0.15 0.5Q1.25 2.6 1.3 2.25L1.1 1.55L0.9 1.05Q2.15 2.65 2.1 2.25L1.7 1.2L1.3 0.45Q2.2 1.75 2.15 1.3L1 -1Q1.25 -0.7 1.55 -0.6z" />
</g>
</svg>
