<?xml version="1.0" encoding="utf-8"?>
<svg version="1.1" id="Layer_1"
xmlns="http://www.w3.org/2000/svg"
xmlns:xlink="http://www.w3.org/1999/xlink"
width="13px" height="13px"
xml:space="preserve">
<g id="PathID_311" transform="matrix(1, 0, 0, 1, 0, 0)">
<path style="fill:#808080;fill-opacity:1" d="M12.55 8.45Q12.1 9.85 10.95 10.95Q9.1 12.85 6.4 12.85Q3.75 12.85 1.85 10.95Q0 9.1 0 6.4Q0 3.75 1.85 1.85Q5.65 0.1 8.65 1.6Q11.95 3.25 12.55 8.45" />
<path style="fill:#4F4943;fill-opacity:1" d="M8.65 1.6Q5.65 0.1 1.85 1.85Q3.75 0 6.4 0Q9.1 0 10.95 1.85Q12.85 3.75 12.85 6.4L12.55 8.45Q11.95 3.25 8.65 1.6" />
<path style="fill:none;stroke-width:0.7;stroke-linecap:round;stroke-linejoin:round;stroke-miterlimit:3;stroke:#000000;stroke-opacity:0.4" d="M1.85 1.85Q3.75 0 6.4 0Q9.1 0 10.95 1.85Q12.85 3.75 12.85 6.4L12.55 8.45Q12.1 9.85 10.95 10.95Q9.1 12.85 6.4 12.85Q3.75 12.85 1.85 10.95Q0 9.1 0 6.4Q0 3.75 1.85 1.85z" />
</g>
</svg>
