<?xml version="1.0" encoding="utf-8"?>
<svg version="1.1" id="Layer_1"
xmlns="http://www.w3.org/2000/svg"
xmlns:xlink="http://www.w3.org/1999/xlink"
width="12px" height="11px"
xml:space="preserve">
<g id="PathID_1846" transform="matrix(1, 0, 0, 1, 0, 0)">
<path style="fill:#4F4943;fill-opacity:1" d="M11.6 6.65Q11.95 9.2 10.9 10.7L9.25 10.1Q8.05 5 4.1 2.7Q6.6 2.85 9.9 4.75Q9.8 3.65 8.45 1.75Q11.15 3.75 11.6 6.65" />
<path style="fill:#808080;fill-opacity:1" d="M0 0.8Q1.95 -0.45 5.75 0.2Q7.3 0.9 8.45 1.75Q9.8 3.65 9.9 4.75Q6.6 2.85 4.1 2.7L0 0.8" />
<path style="fill:none;stroke-width:0.7;stroke-linecap:round;stroke-linejoin:round;stroke-miterlimit:3;stroke:#000000;stroke-opacity:0.4" d="M8.45 1.75Q7.3 0.9 5.75 0.2Q1.95 -0.45 0 0.8L4.1 2.7Q8.05 5 9.25 10.1L10.9 10.7Q11.95 9.2 11.6 6.65Q11.15 3.75 8.45 1.75z" />
</g>
</svg>
