<?xml version="1.0" encoding="utf-8"?>
<svg version="1.1" id="Layer_1"
xmlns="http://www.w3.org/2000/svg"
xmlns:xlink="http://www.w3.org/1999/xlink"
width="18px" height="9px"
xml:space="preserve">
<g id="PathID_2173" transform="matrix(1, 0, 0, 1, 0.15, 0.15)">
<path style="fill:#6B6C6C;fill-opacity:1" d="M16.85 5.15L17.55 6.75Q15.75 7.05 14.45 7.95L13.2 6.55Q14.75 5.75 16.85 5.15" />
<path style="fill:#808080;fill-opacity:1" d="M13.2 6.55Q9.75 3.3 4.2 4.35Q1.5 5.85 0 5.55L0.3 4.3Q1 2.15 2.65 1.6Q4.25 1.35 6.25 0Q13.95 0.05 16.85 5.15Q14.75 5.75 13.2 6.55" />
<path style="fill:none;stroke-width:0.7;stroke-linecap:round;stroke-linejoin:round;stroke-miterlimit:3;stroke:#000000;stroke-opacity:0.34902" d="M17.55 6.75Q15.75 7.05 14.45 7.95L13.2 6.55Q9.75 3.3 4.2 4.35Q1.5 5.85 0 5.55L0.3 4.3Q1 2.15 2.65 1.6Q4.25 1.35 6.25 0" />
</g>
</svg>
