<?xml version="1.0" encoding="utf-8"?>
<svg version="1.1" id="Layer_1"
xmlns="http://www.w3.org/2000/svg"
xmlns:xlink="http://www.w3.org/1999/xlink"
width="10px" height="13px"
xml:space="preserve">
<g id="PathID_330" transform="matrix(1, 0, 0, 1, 0.1, 0.1)">
<path style="fill:#808080;fill-opacity:1" d="M6.2 1.55Q6.8 1.7 7.95 3.05Q8.25 4.35 8 5L6.45 7.6L7.05 4.55L7.1 4.05Q7.15 2.45 5.85 1.95Q5.3 1.85 5.9 1.6L6.2 1.55M5.9 0.15Q6.15 0.55 5.6 0.95L3.25 0.85L2.5 2.6Q4.5 -0.3 5.9 0.15M2.5 2.6Q2.7 2.8 2.5 3.15Q1.8 3.7 1.05 5.25Q0.25 6.75 0.9 7.85L1.45 6.9L1.55 6.4L1.75 5.2Q1.95 4.25 2.6 4.05L3.8 4L2.65 5.05Q1.9 5.9 1.85 7.2Q2 8 2.7 8L4.05 8.15Q2.65 9.2 2.05 8.95Q1.7 8.8 1.5 8.3L1.3 9.2Q0.9 10.3 2.25 10.9L2.7 10.55Q3.05 10.15 4.9 9.5Q6.7 8.8 7.4 7.7Q6.7 9.7 5.05 10.35L3.05 11.15L2.6 11.55L2.5 12.05L2.3 11.8L2.15 11.45Q1.4 11.45 0.85 10.85Q0.1 10.2 0.55 8.8L0.75 8.4Q-0.05 7.65 0 6.3Q0.15 5.05 1.15 3.8L2 2.9Q1.95 1.85 3.25 0.85M5.4 3.5Q5.15 3.05 3.55 3.25Q3.9 2.7 4.3 2.5Q4.65 2.3 5.4 2.5Q6.15 2.7 6.3 3.25Q6.4 3.75 6 4.45Q5.6 5.15 5.95 6.3Q6.1 6.75 5.45 7.6Q4.75 8.15 4.65 9.2L4.6 7.85L5.1 6.05L5.25 5.15L5.55 4.7Q5.8 4 5.4 3.5M4.5 4.9L3.35 4.85Q3.7 4.3 4.4 4.1Q5 4.15 4.65 5.15L4.5 4.9M3.85 5.15Q4 6.1 3.6 6.5L3 6.85L2.75 6.2L3.5 6L3.85 5.1L3.85 5.15" />
<radialGradient
id="RadialGradID_109" gradientUnits="userSpaceOnUse" gradientTransform="matrix(0.0137329, 0, 0, 0.0137329, -2.65, 1.55)" spreadMethod ="pad" cx="0" cy="0" r="819.2" fx="0" fy="0" >
<stop  offset="0"  style="stop-color:#6D6D6D;stop-opacity:1" />
<stop  offset="1"  style="stop-color:#434043;stop-opacity:1" />
</radialGradient>
<path style="fill:url(#RadialGradID_109) " d="M5.9 1.6Q5.3 1.85 5.85 1.95Q7.15 2.45 7.1 4.05L7.05 4.55L6.45 7.6L8 5Q8.25 4.35 7.95 3.05Q6.8 1.7 6.2 1.55L5.9 1.6M8 2.2L8.9 3.65Q9.2 4.5 9.15 5.55L8.55 8.2Q7.95 9.85 6 10.95Q4.05 12 2.5 12.05L2.6 11.55L3.05 11.15L5.05 10.35Q6.7 9.7 7.4 7.7Q6.7 8.8 4.9 9.5Q3.05 10.15 2.7 10.55L2.25 10.9Q0.9 10.3 1.3 9.2L1.5 8.3Q1.7 8.8 2.05 8.95Q2.65 9.2 4.05 8.15L2.7 8Q2 8 1.85 7.2Q1.9 5.9 2.65 5.05L3.8 4L2.6 4.05Q1.95 4.25 1.75 5.2L1.55 6.4L1.45 6.9L0.9 7.85Q0.25 6.75 1.05 5.25Q1.8 3.7 2.5 3.15Q2.7 2.8 2.5 2.6L3.25 0.85L5.6 0.95Q6.15 0.55 5.9 0.15L8 2.2M5.55 4.7L5.25 5.15L5.1 6.05L4.6 7.85L4.65 9.2Q4.75 8.15 5.45 7.6Q6.1 6.75 5.95 6.3Q5.6 5.15 6 4.45Q6.4 3.75 6.3 3.25Q6.15 2.7 5.4 2.5Q4.65 2.3 4.3 2.5Q3.9 2.7 3.55 3.25Q5.15 3.05 5.4 3.5Q5.8 4 5.55 4.7M4.65 5.15Q5 4.15 4.4 4.1Q3.7 4.3 3.35 4.85L4.5 4.9L4.65 5.15M3.85 5.1L3.5 6L2.75 6.2L3 6.85L3.6 6.5Q4 6.1 3.85 5.15L3.85 5.1" />
<path style="fill:none;stroke-width:0.7;stroke-linecap:round;stroke-linejoin:round;stroke-miterlimit:3;stroke:#000000;stroke-opacity:0.4" d="M5.9 0.15Q4.5 -0.3 3.25 0.85" />
<path style="fill:none;stroke-width:0.7;stroke-linecap:round;stroke-linejoin:round;stroke-miterlimit:3;stroke:#000000;stroke-opacity:0.4" d="M2.5 12.05Q4.05 12 6 10.95Q7.95 9.85 8.55 8.2L9.15 5.55Q9.2 4.5 8.9 3.65L8 2.2L5.9 0.15" />
<path style="fill:none;stroke-width:0.7;stroke-linecap:round;stroke-linejoin:round;stroke-miterlimit:3;stroke:#000000;stroke-opacity:0.4" d="M3.25 0.85Q1.95 1.85 2 2.9L1.15 3.8Q0.15 5.05 0 6.3Q-0.05 7.65 0.75 8.4L0.55 8.8Q0.1 10.2 0.85 10.85Q1.4 11.45 2.15 11.45L2.3 11.8L2.5 12.05" />
</g>
</svg>
