<?xml version="1.0" encoding="utf-8"?>
<svg version="1.1" id="Layer_1"
xmlns="http://www.w3.org/2000/svg"
xmlns:xlink="http://www.w3.org/1999/xlink"
width="5px" height="8px"
xml:space="preserve">
<g id="PathID_91" transform="matrix(1, 0, 0, 1, 0.1, 0.1)">
<path style="fill:#808080;fill-opacity:1" d="M3.15 2.9L2.3 2.9L1.6 3.45L1 3.15L0.05 2.4L0 2.3L0.5 1.95L0.1 1.4L0.55 1L0.5 0.1L1.45 0.25L2.55 0Q2.55 0.6 2.8 0.8L3.5 0.6Q3.25 1.15 3.6 1.7L3.15 2.9" />
<path style="fill:#58544F;fill-opacity:1" d="M3.6 1.7L4.2 1.7Q3.7 2.1 4.35 2.75Q4.15 2.75 4.05 2.95Q3.9 3.15 4.1 3.35L4.5 3.45Q3.65 4.2 3.8 4.45L4.15 4.75Q3.7 5.35 3.8 5.6L3.35 7.25L3.15 7.1L2.5 6.35L1.8 5.75L1.15 5.1L1.05 4.55L0.8 4.45L0.45 3.65Q0.25 3.45 0.05 3.55Q0.35 3.05 0.05 2.4L1 3.15L1.6 3.45L2.3 2.9L3.15 2.9L3.6 1.7" />
<path style="fill:none;stroke-width:0.7;stroke-linecap:round;stroke-linejoin:round;stroke-miterlimit:3;stroke:#010101;stroke-opacity:0.4" d="M0.05 2.4L0 2.3L0.5 1.95L0.1 1.4L0.55 1L0.5 0.1L1.45 0.25L2.55 0Q2.55 0.6 2.8 0.8L3.5 0.6Q3.25 1.15 3.6 1.7L4.2 1.7Q3.7 2.1 4.35 2.75Q4.15 2.75 4.05 2.95Q3.9 3.15 4.1 3.35L4.5 3.45Q3.65 4.2 3.8 4.45L4.15 4.75Q3.7 5.35 3.8 5.6L3.35 7.25L3.15 7.1L2.5 6.35L1.8 5.75L1.15 5.1L1.05 4.55L0.8 4.45L0.45 3.65Q0.25 3.45 0.05 3.55Q0.35 3.05 0.05 2.4z" />
</g>
<g id="PathID_92" transform="matrix(1, 0, 0, 1, 0.1, 0.1)">
<path style="fill:none;stroke-width:0.7;stroke-linecap:round;stroke-linejoin:round;stroke-miterlimit:3;stroke:#4A4942;stroke-opacity:0.4" d="M3.5 7.45Q3 3.6 1.35 0.85" />
</g>
<g id="PathID_93" transform="matrix(1, 0, 0, 1, 0.1, 0.1)">
<path style="fill:none;stroke-width:0.7;stroke-linecap:round;stroke-linejoin:round;stroke-miterlimit:3;stroke:#4F4E47;stroke-opacity:0.4" d="M1.4 1.9L1.7 1.9L2.05 1.75L2.2 1.45" />
</g>
<g id="PathID_94" transform="matrix(1, 0, 0, 1, 0.1, 0.1)">
<path style="fill:none;stroke-width:0.7;stroke-linecap:round;stroke-linejoin:round;stroke-miterlimit:3;stroke:#4F4E47;stroke-opacity:0.4" d="M1.05 2.85L2.1 2.9L2.7 2.45L3.15 1.95" />
</g>
<g id="PathID_95" transform="matrix(1, 0, 0, 1, 0.1, 0.1)">
<path style="fill:none;stroke-width:0.7;stroke-linecap:round;stroke-linejoin:round;stroke-miterlimit:3;stroke:#4F4E47;stroke-opacity:0.4" d="M1.6 4.05L2.6 4.1L3.45 3.25" />
</g>
<g id="PathID_96" transform="matrix(1, 0, 0, 1, 0.1, 0.1)">
<path style="fill:none;stroke-width:0.7;stroke-linecap:round;stroke-linejoin:round;stroke-miterlimit:3;stroke:#4A4942;stroke-opacity:0.4" d="M2.25 5.15L2.95 5.15L3.55 4.7" />
</g>
</svg>
