<?xml version="1.0" encoding="utf-8"?>
<svg version="1.1" id="Layer_1"
xmlns="http://www.w3.org/2000/svg"
xmlns:xlink="http://www.w3.org/1999/xlink"
width="11px" height="14px"
xml:space="preserve">
<g id="PathID_4094" transform="matrix(1, 0, 0, 1, 0.15, 0.1)">
<path style="fill:#584D41;fill-opacity:1" d="M6.75 2.8L6.7 2.85L6.3 1.7Q6 0.95 5.5 1Q5 1.05 4.7 1.75L4.35 2.85L4.3 2.8Q3.8 2.35 3.8 1.6Q3.8 0.95 4.3 0.45Q4.85 0 5.55 0Q6.25 0 6.75 0.45Q7.3 0.95 7.3 1.6Q7.3 2.35 6.75 2.8" />
<path style="fill:none;stroke-width:0.7;stroke-linecap:round;stroke-linejoin:round;stroke-miterlimit:3;stroke:#000000;stroke-opacity:0.388235" d="M7.3 1.6Q7.3 0.95 6.75 0.45Q6.25 0 5.55 0Q4.85 0 4.3 0.45Q3.8 0.95 3.8 1.6Q3.8 2.35 4.3 2.8L4.35 2.85L4.7 1.75Q5 1.05 5.5 1Q6 0.95 6.3 1.7L6.7 2.85L6.75 2.8Q7.3 2.35 7.3 1.6z" />
</g>
<g id="PathID_4095" transform="matrix(1, 0, 0, 1, 0.15, 0.1)">
<linearGradient
id="LinearGradID_1323" gradientUnits="userSpaceOnUse" gradientTransform="matrix(0.00244141, 0, 0, 0.0012207, 7.45, 10.9)" spreadMethod ="pad" x1="-819.2" y1="0" x2="819.2" y2="0" >
<stop  offset="0.0980392" style="stop-color:#51463A;stop-opacity:1" />
<stop  offset="1" style="stop-color:#857B6C;stop-opacity:1" />
</linearGradient>
<path style="fill:url(#LinearGradID_1323) " d="M4.95 9.15Q4.65 8.3 5.25 7L5.95 5.75L6.15 4.65Q6.05 3.15 3.95 3L3.8 3Q4.4 2.55 5.45 2.5Q7.35 2.65 7.8 4.15Q8.15 5.05 8.1 6.85Q8.05 8.6 9.2 9.9L8.45 10.95L6.15 11L4.95 9.15" />
<radialGradient
id="RadialGradID_1324" gradientUnits="userSpaceOnUse" gradientTransform="matrix(0.00628662, 0, 0, 0.00628662, 4, 5.65)" spreadMethod ="pad" cx="0" cy="0" r="819.2" fx="0" fy="0" >
<stop  offset="0.0980392"  style="stop-color:#C6C5BD;stop-opacity:1" />
<stop  offset="0.909804"  style="stop-color:#808080;stop-opacity:1" />
</radialGradient>
<path style="fill:url(#RadialGradID_1324) " d="M3.95 3Q6.05 3.15 6.15 4.65L5.95 5.75L5.25 7Q4.65 8.3 4.95 9.15L6.15 11Q3.4 10.85 0.9 9.85L1.05 8.95Q2.25 7.85 2.85 6.65Q3.4 5.5 3.2 4.4Q3.4 3.25 3.95 3" />
<path style="fill:#C2C2C2;fill-opacity:1" d="M3.2 4.4Q3.4 5.5 2.85 6.65Q2.25 7.85 1.05 8.95L0.9 9.85L0.5 9.7L0.65 8.65L1.9 7.15Q2.85 6.05 2.95 4.3Q3.15 3.4 3.8 3L3.95 3Q3.4 3.25 3.2 4.4" />
<path style="fill:none;stroke-width:0.7;stroke-linecap:round;stroke-linejoin:round;stroke-miterlimit:3;stroke:#000000;stroke-opacity:0.388235" d="M6.15 11L8.45 10.95L9.2 9.9Q8.05 8.6 8.1 6.85Q8.15 5.05 7.8 4.15Q7.35 2.65 5.45 2.5Q4.4 2.55 3.8 3" />
<path style="fill:none;stroke-width:0.7;stroke-linecap:round;stroke-linejoin:round;stroke-miterlimit:3;stroke:#000000;stroke-opacity:0.388235" d="M6.15 11Q3.4 10.85 0.9 9.85L0.5 9.7L0.65 8.65L1.9 7.15Q2.85 6.05 2.95 4.3Q3.15 3.4 3.8 3" />
</g>
<g id="PathID_4096" transform="matrix(1, 0, 0, 1, 0.15, 0.1)">
<path style="fill:none;stroke-width:0.7;stroke-linecap:round;stroke-linejoin:round;stroke-miterlimit:3;stroke:#000000;stroke-opacity:0.388235" d="M1.4 7.85Q2.25 8.55 4.85 8.75L8.25 8.4" />
<path style="fill:none;stroke-width:0.7;stroke-linecap:round;stroke-linejoin:round;stroke-miterlimit:3;stroke:#000000;stroke-opacity:0.388235" d="M2.7 5.85Q4.7 6.9 8.05 6.25" />
<path style="fill:none;stroke-width:0.7;stroke-linecap:round;stroke-linejoin:round;stroke-miterlimit:3;stroke:#000000;stroke-opacity:0.388235" d="M2.35 6.5Q4.6 7.7 8 6.95" />
</g>
<g id="PathID_4097" transform="matrix(1, 0, 0, 1, 0.15, 0.1)">
<path style="fill:#483F36;fill-opacity:1" d="M3.1 11.5Q3.1 10.95 3.55 10.55Q4.05 10.15 4.7 10.15Q5.35 10.15 5.8 10.55Q6.3 10.95 6.3 11.55Q6.3 12.1 5.8 12.5Q5.35 12.95 4.7 12.95Q4.05 12.95 3.55 12.5Q3.1 12.1 3.1 11.5" />
<path style="fill:none;stroke-width:0.7;stroke-linecap:round;stroke-linejoin:round;stroke-miterlimit:3;stroke:#000000;stroke-opacity:0.388235" d="M3.1 11.5Q3.1 10.95 3.55 10.55Q4.05 10.15 4.7 10.15Q5.35 10.15 5.8 10.55Q6.3 10.95 6.3 11.55Q6.3 12.1 5.8 12.5Q5.35 12.95 4.7 12.95Q4.05 12.95 3.55 12.5Q3.1 12.1 3.1 11.5z" />
</g>
<g id="PathID_4098" transform="matrix(1, 0, 0, 1, 0.15, 0.1)">
<linearGradient
id="LinearGradID_1325" gradientUnits="userSpaceOnUse" gradientTransform="matrix(0.00366211, 0, 0, 0.0012207, 8.1, 10.85)" spreadMethod ="pad" x1="-819.2" y1="0" x2="819.2" y2="0" >
<stop  offset="0.0980392" style="stop-color:#51463A;stop-opacity:1" />
<stop  offset="1" style="stop-color:#857B6C;stop-opacity:1" />
</linearGradient>
<path style="fill:url(#LinearGradID_1325) " d="M6.45 10.9Q7.5 10.65 7.2 10.05L9.6 9.7Q9.95 10.45 9.5 11.5L2.65 11.25L0.45 10.45L6.45 10.9" />
<path style="fill:#C2C2C2;fill-opacity:1" d="M0.35 9.3L0.1 10.25L0.05 10.2Q-0.1 9.15 0.25 8.65Q2.9 9.9 5.6 10.05Q1.9 9.95 0.35 9.3" />
<path style="fill:#858585;fill-opacity:1" d="M5.6 10.05L7.2 10.05Q7.5 10.65 6.45 10.9L0.45 10.45L0.1 10.25L0.35 9.3Q1.9 9.95 5.6 10.05" />
<path style="fill:none;stroke-width:0.7;stroke-linecap:round;stroke-linejoin:round;stroke-miterlimit:3;stroke:#000000;stroke-opacity:0.388235" d="M7.2 10.05L9.6 9.7Q9.95 10.45 9.5 11.5L2.65 11.25L0.45 10.45L0.1 10.25L0.05 10.2Q-0.1 9.15 0.25 8.65Q2.9 9.9 5.6 10.05L7.2 10.05z" />
</g>
</svg>
