<?xml version="1.0" encoding="utf-8"?>
<svg version="1.1" id="Layer_1"
xmlns="http://www.w3.org/2000/svg"
xmlns:xlink="http://www.w3.org/1999/xlink"
width="16px" height="12px"
xml:space="preserve">
<g id="PathID_1409" transform="matrix(1, 0, 0, 1, 7.85, 5.8)">
<linearGradient
id="LinearGradID_378" gradientUnits="userSpaceOnUse" gradientTransform="matrix(-0.00798035, -0.00291443, 0.0012207, -0.00332642, 0.3, 0.05)" spreadMethod ="pad" x1="-819.2" y1="0" x2="819.2" y2="0" >
<stop  offset="0" style="stop-color:#D8D8D8;stop-opacity:1" />
<stop  offset="1" style="stop-color:#808080;stop-opacity:1" />
</linearGradient>
<path style="fill:url(#LinearGradID_378) " d="M7.45 1.1L7.2 1.55Q6.65 1.85 5.85 1.55L5.25 2.8Q4.5 4.1 3.45 4.05Q2.55 4.05 3.95 1.4L2.7 2.35Q1.2 3.25 0.05 3.1Q-1.05 2.95 1.05 1.05L-0.6 1.6L-3.45 1.55L-3.9 1.05Q-3.65 0.5 -1.95 0L-0.15 -0.35L-2 -0.4L-4.2 -0.65L-4.15 -0.65Q-6.55 -1.45 -6.95 -1.95Q-7.75 -2.9 -4.3 -2.3L-5.7 -3.1Q-7.1 -4.2 -7.25 -5.75L-6.3 -5.15L-3 -3.25L0.15 -2.85Q1.45 -2.95 1.6 -2.3Q2.3 -0.3 4.2 -0.05Q5.35 0.1 6.45 -0.4Q6.75 -0.5 7.35 0.35L7.55 0.7L7.45 1.1M-4.3 -2.3L-3.2 -2.05L-4.3 -2.3" />
<linearGradient
id="LinearGradID_379" gradientUnits="userSpaceOnUse" gradientTransform="matrix(-0.00556946, 0.001297, -0.00117493, -0.00508118, 1.9, 1.85)" spreadMethod ="pad" x1="-819.2" y1="0" x2="819.2" y2="0" >
<stop  offset="0" style="stop-color:#A5A5A5;stop-opacity:1" />
<stop  offset="1" style="stop-color:#727272;stop-opacity:1" />
</linearGradient>
<path style="fill:url(#LinearGradID_379) " d="M7.55 0.7L7.85 1.25L7.4 2.4Q6.9 3.55 6.55 3.55Q6 3.55 6.1 2.25L5.5 3.9Q4.75 5.45 3.95 5.75Q2.85 6 3.45 4.1L2.55 5Q1.5 5.85 0.8 5.85Q-0.35 5.85 0.5 3.45L-0.55 4.1Q-1.75 4.75 -2.45 4.55Q-3.6 4.25 -1.25 2.5L-2.75 3L-5.15 3.1Q-5.9 2.8 -4.95 2.2Q-4.15 1.7 -3.45 1.55L-0.6 1.6L1.05 1.05Q-1.05 2.95 0.05 3.1Q1.2 3.25 2.7 2.35L3.95 1.4Q2.55 4.05 3.45 4.05Q4.5 4.1 5.25 2.8L5.85 1.55Q6.65 1.85 7.2 1.55L7.45 1.1L7.55 0.7M-3.9 1.05L-5.35 1Q-6.95 0.85 -7.6 0.3Q-8.8 -0.7 -4.2 -0.65L-2 -0.4L-0.15 -0.35L-1.95 0Q-3.65 0.5 -3.9 1.05" />
<path style="fill:none;stroke-width:0.7;stroke-linecap:round;stroke-linejoin:round;stroke-miterlimit:3;stroke:#000000;stroke-opacity:0.301961" d="M-4.2 -0.65L-4.15 -0.65Q-6.55 -1.45 -6.95 -1.95Q-7.75 -2.9 -4.3 -2.3L-5.7 -3.1Q-7.1 -4.2 -7.25 -5.75L-6.3 -5.15L-3 -3.25L0.15 -2.85Q1.45 -2.95 1.6 -2.3Q2.3 -0.3 4.2 -0.05Q5.35 0.1 6.45 -0.4Q6.75 -0.5 7.35 0.35L7.55 0.7L7.85 1.25L7.4 2.4Q6.9 3.55 6.55 3.55Q6 3.55 6.1 2.25L5.5 3.9Q4.75 5.45 3.95 5.75Q2.85 6 3.45 4.1L2.55 5Q1.5 5.85 0.8 5.85Q-0.35 5.85 0.5 3.45L-0.55 4.1Q-1.75 4.75 -2.45 4.55Q-3.6 4.25 -1.25 2.5L-2.75 3L-5.15 3.1Q-5.9 2.8 -4.95 2.2Q-4.15 1.7 -3.45 1.55L-3.9 1.05L-5.35 1Q-6.95 0.85 -7.6 0.3Q-8.8 -0.7 -4.2 -0.65z" />
<path style="fill:none;stroke-width:0.7;stroke-linecap:round;stroke-linejoin:round;stroke-miterlimit:3;stroke:#000000;stroke-opacity:0.14902" d="M-4.2 -0.65L-2 -0.4L-0.15 -0.35L-1.95 0Q-3.65 0.5 -3.9 1.05" />
<path style="fill:none;stroke-width:0.7;stroke-linecap:round;stroke-linejoin:round;stroke-miterlimit:3;stroke:#000000;stroke-opacity:0.14902" d="M-3.45 1.55L-0.6 1.6L1.05 1.05Q-1.05 2.95 0.05 3.1Q1.2 3.25 2.7 2.35L3.95 1.4Q2.55 4.05 3.45 4.05Q4.5 4.1 5.25 2.8L5.85 1.55Q6.65 1.85 7.2 1.55L7.45 1.1L7.55 0.7" />
<path style="fill:none;stroke-width:0.7;stroke-linecap:round;stroke-linejoin:round;stroke-miterlimit:3;stroke:#000000;stroke-opacity:0.14902" d="M-3.2 -2.05L-4.3 -2.3" />
</g>
</svg>
