<?xml version="1.0" encoding="utf-8"?>
<svg version="1.1" id="Layer_1"
xmlns="http://www.w3.org/2000/svg"
xmlns:xlink="http://www.w3.org/1999/xlink"
width="8px" height="11px"
xml:space="preserve">
<g id="PathID_23" transform="matrix(1, 0, 0, 1, 0.1, 0.1)">
<path style="fill:#E1DBD4;fill-opacity:1" d="M6.45 3.05Q6.25 2.25 5.65 1.65L4.8 1.05Q4.65 0.55 5.45 0.45L6.3 1.1L7.1 2.3L7.25 2.65Q7.1 3.15 6.45 3.05M0.65 4.45Q0.8 5.2 1.3 5.8L0.85 6.25Q0.25 5.5 0.1 4.6L0.65 4.45" />
<path style="fill:#808080;fill-opacity:1" d="M3.55 0.8Q2.35 0.8 1.45 1.65Q0.6 2.55 0.6 3.8L0.65 4.45L0.1 4.6L0 3.75Q0 2.2 1.05 1.1Q1.8 0.35 2.8 0.1L3.05 0.05L3.55 0L4.2 0.05L4.45 0.1L5.45 0.45Q4.65 0.55 4.8 1.05L3.55 0.8M1.3 5.8L1.45 5.95L1.9 6.35L3.4 8L2.95 8.85L3.35 9.15Q3.9 8.4 5.5 8.1Q3.9 8.4 3.35 9.15L2.95 8.85L3.4 8Q3.95 7.15 5 6.5L5.65 5.95Q6.55 5.05 6.55 3.85L6.45 3.05Q7.1 3.15 7.25 2.65L7.4 3.8L7.1 5.3L6.3 6.45L5.45 7.1Q6.3 7.4 5.5 8.1Q5.95 8.85 5.15 9.35Q3.65 9.8 3.55 10.5L3 10.55L3 9.75Q2.1 9.7 1.2 9.05Q0.55 8.45 1.25 7.7Q0.65 6.9 1.3 6.65L1.05 6.45L0.85 6.25L1.3 5.8M2.95 8.85L1.25 7.7L2.95 8.85M3.35 9.15Q3.1 9.4 3 9.75Q3.1 9.4 3.35 9.15" />
<path style="fill:none;stroke-width:0.7;stroke-linecap:round;stroke-linejoin:round;stroke-miterlimit:3;stroke:#000000;stroke-opacity:0.498039" d="M7.25 2.65L7.1 2.3L6.3 1.1L5.45 0.45" />
<path style="fill:none;stroke-width:0.7;stroke-linecap:round;stroke-linejoin:round;stroke-miterlimit:3;stroke:#000000;stroke-opacity:0.498039" d="M7.25 2.65L7.4 3.8L7.1 5.3L6.3 6.45L5.45 7.1Q6.3 7.4 5.5 8.1Q5.95 8.85 5.15 9.35Q3.65 9.8 3.55 10.5L3 10.55L3 9.75Q2.1 9.7 1.2 9.05Q0.55 8.45 1.25 7.7Q0.65 6.9 1.3 6.65L1.05 6.45L0.85 6.25Q0.25 5.5 0.1 4.6L0 3.75Q0 2.2 1.05 1.1Q1.8 0.35 2.8 0.1L3.05 0.05L3.55 0L4.2 0.05L4.45 0.1L5.45 0.45" />
<path style="fill:none;stroke-width:0.7;stroke-linecap:round;stroke-linejoin:round;stroke-miterlimit:3;stroke:#000000;stroke-opacity:0.498039" d="M3.4 8L2.95 8.85L3.35 9.15Q3.9 8.4 5.5 8.1" />
<path style="fill:none;stroke-width:0.7;stroke-linecap:round;stroke-linejoin:round;stroke-miterlimit:3;stroke:#000000;stroke-opacity:0.498039" d="M1.25 7.7L2.95 8.85" />
<path style="fill:none;stroke-width:0.7;stroke-linecap:round;stroke-linejoin:round;stroke-miterlimit:3;stroke:#000000;stroke-opacity:0.498039" d="M3 9.75Q3.1 9.4 3.35 9.15" />
</g>
</svg>
