<?xml version="1.0" encoding="utf-8"?>
<svg version="1.1" id="Layer_1"
xmlns="http://www.w3.org/2000/svg"
xmlns:xlink="http://www.w3.org/1999/xlink"
width="37px" height="28px"
xml:space="preserve">
<g id="PathID_3206" transform="matrix(1, 0, 0, 1, 0.1, 0.1)">
<path style="fill:#808080;fill-opacity:1" d="M9.3 2.05Q10.5 0.55 12 0.15Q14.8 -0.55 17 2.05L18.4 3.7Q18.95 6.2 18 8Q16.95 9.95 14.8 9.35Q10.2 8.1 9.25 5.4Q8.85 4.3 9.3 2.05M13.9 4.9L15.8 4.05L16.6 5.45L15.8 4.05L13.9 4.9M16.15 3.35L16.45 3.8L15.8 4.05L15.05 2.95L14.45 2.1L15.05 2.95L15.8 4.05L16.45 3.8L16.15 3.35M16.9 4.5L16.45 3.8L17.5 3.55L16.45 3.8L16.9 4.5M15.05 2.95L14.1 3.35L15.05 2.95" />
<path style="fill:#66615E;fill-opacity:1" d="M9.25 5.4Q10.2 8.1 14.8 9.35Q16.95 9.95 18 8Q18.95 6.2 18.4 3.7L19.6 5.3Q19.3 7.9 18.1 9.5L17.5 10.2Q15.95 11.1 14.35 11.1Q12.1 10.85 10.55 9.65Q8.15 7.8 8.1 3.95L9.3 2.05Q8.85 4.3 9.25 5.4M9.6 21.75Q11.8 21.65 16.1 19.6Q19.9 17.8 22.8 17.35L34.55 17.7L33.95 18.15L26.2 17.7Q19.7 18.05 14.25 21.2Q10.65 22.8 8.35 22.75L9.6 21.75M6.5 21.5L6.35 21.8L3.5 21.25L4.7 20.35Q5.4 21.1 6.5 21.5" />
<path style="fill:#464039;fill-opacity:1" d="M10.55 9.65Q12.1 10.85 14.35 11.1Q15.95 11.1 17.5 10.2L18.1 9.5Q19.3 7.9 19.6 5.3L20.1 6.1L20.05 4.25L20.75 4.05Q20.8 6.35 21.55 8.5L23.6 11.5L23.45 11.55L21.65 11.9L17.5 12.9Q15.25 13.4 13.7 14.25Q12.1 15.05 10.25 16.15L8.35 17.1L8.3 16.5L7.6 10.95Q7.25 8.35 7.4 5.5L8.1 3.95Q8.15 7.8 10.55 9.65M8.3 22.75L8.35 22.75Q10.65 22.8 14.25 21.2Q19.7 18.05 26.2 17.7L33.95 18.15L32.2 19.1L27.65 19.5Q25.1 19.2 19.25 20.3L15.6 21.95Q12.4 23.85 11.15 26.95Q7.3 28.05 4.15 27.05Q5.75 24.8 8.3 22.75M2.5 21.85L2 26.15L0.5 24.75L0.15 23.95L2.5 21.85M9.85 11.4L9.65 10.55L9.5 10.05L9.65 10.55L9.85 11.4M9.65 10.55L8.7 11L8.45 7.75L8.7 11L9.65 10.55M8.7 11L9.3 12.4L8.7 11" />
<path style="fill:#8C8C8C;fill-opacity:1" d="M28.6 11.85L25.5 14.1L22.45 12.35L28.6 11.85M36.1 12.45L32.05 14.15L29.85 11.9L36.1 12.45M6.5 21.5Q5.4 21.1 4.7 20.35L8 18.3L6.5 21.5M14.65 14.6L20.75 12.75L18.05 15.45L14.65 14.6M11.75 18.35L8.7 17.7L13.65 15L11.75 18.35" />
<path style="fill:#837A7A;fill-opacity:1" d="M22.8 17.35Q19.9 17.8 16.1 19.6Q11.8 21.65 9.6 21.75Q12.25 19.85 15.8 18.15Q17.6 17.45 19.35 17Q25.75 15.25 31.65 16.15Q33.8 16.75 34.8 17.5L34.55 17.7L22.8 17.35" />
<path style="fill:none;stroke-width:0.7;stroke-linecap:round;stroke-linejoin:round;stroke-miterlimit:3;stroke:#000000;stroke-opacity:0.309804" d="M8.1 3.95L7.4 5.5Q7.25 8.35 7.6 10.95L8.3 16.5L8.35 17.1L10.25 16.15Q12.1 15.05 13.7 14.25Q15.25 13.4 17.5 12.9L21.65 11.9L23.45 11.55L23.6 11.5L21.55 8.5Q20.8 6.35 20.75 4.05L20.05 4.25L20.1 6.1L19.6 5.3" />
<path style="fill:none;stroke-width:0.7;stroke-linecap:round;stroke-linejoin:round;stroke-miterlimit:3;stroke:#000000;stroke-opacity:0.309804" d="M8.1 3.95L9.3 2.05Q10.5 0.55 12 0.15Q14.8 -0.55 17 2.05L18.4 3.7L19.6 5.3" />
<path style="fill:none;stroke-width:0.7;stroke-linecap:round;stroke-linejoin:round;stroke-miterlimit:3;stroke:#000000;stroke-opacity:0.309804" d="M23.6 11.5L35.1 11.2L36.1 12.45L36.6 13.45Q37 14.65 36.45 15.45L35.8 16.5L34.8 17.5L34.55 17.7L33.95 18.15L32.2 19.1L27.65 19.5Q25.1 19.2 19.25 20.3L15.6 21.95Q12.4 23.85 11.15 26.95Q7.3 28.05 4.15 27.05L2.85 26.6L2 26.15L0.5 24.75L0.15 23.95L0 23L4.2 19.75L5.35 18.95Q6.9 17.9 8.35 17.1" />
<path style="fill:none;stroke-width:0.7;stroke-linecap:round;stroke-linejoin:round;stroke-miterlimit:3;stroke:#000000;stroke-opacity:0.180392" d="M16.6 5.45L15.8 4.05L13.9 4.9" />
<path style="fill:none;stroke-width:0.7;stroke-linecap:round;stroke-linejoin:round;stroke-miterlimit:3;stroke:#000000;stroke-opacity:0.180392" d="M14.45 2.1L15.05 2.95L15.8 4.05L16.45 3.8L16.15 3.35" />
<path style="fill:none;stroke-width:0.7;stroke-linecap:round;stroke-linejoin:round;stroke-miterlimit:3;stroke:#000000;stroke-opacity:0.180392" d="M17.5 3.55L16.45 3.8L16.9 4.5" />
<path style="fill:none;stroke-width:0.7;stroke-linecap:round;stroke-linejoin:round;stroke-miterlimit:3;stroke:#000000;stroke-opacity:0.180392" d="M14.1 3.35L15.05 2.95" />
<path style="fill:none;stroke-width:0.7;stroke-linecap:round;stroke-linejoin:round;stroke-miterlimit:3;stroke:#000000;stroke-opacity:0.180392" d="M9.5 10.05L9.65 10.55L9.85 11.4" />
<path style="fill:none;stroke-width:0.7;stroke-linecap:round;stroke-linejoin:round;stroke-miterlimit:3;stroke:#000000;stroke-opacity:0.180392" d="M8.45 7.75L8.7 11L9.65 10.55" />
<path style="fill:none;stroke-width:0.7;stroke-linecap:round;stroke-linejoin:round;stroke-miterlimit:3;stroke:#000000;stroke-opacity:0.180392" d="M9.3 12.4L8.7 11" />
</g>
</svg>
