<?xml version="1.0" encoding="utf-8"?>
<svg version="1.1" id="Layer_1"
xmlns="http://www.w3.org/2000/svg"
xmlns:xlink="http://www.w3.org/1999/xlink"
width="7px" height="12px"
xml:space="preserve">
<g id="PathID_2287" transform="matrix(1, 0, 0, 1, 0.15, 0.15)">
<path style="fill:#808080;fill-opacity:1" d="M3.8 8Q1.5 6.75 1.9 4.05L2.2 3.05Q2.35 1.9 3.5 2.1L3.45 2.65L3.5 2.1Q4.6 2.3 4.55 3.45L4.65 4.6Q4.9 5.75 5.35 6Q6 6.75 6 7.8L5.9 8.7Q4.9 8.55 3.8 8M5 8.1L5.4 7.55Q5.55 6.95 5.05 6.35Q4.55 5.7 4.5 6.1L4.8 7.8Q4.7 8.05 5 8.1" />
<path style="fill:#4F4943;fill-opacity:1" d="M5.9 8.7L5.15 9.9Q4.25 10.8 3 10.8Q1.8 10.8 0.9 9.9Q0 9.05 0 7.8Q0 6.55 0.9 5.7L1.9 4.05Q1.5 6.75 3.8 8Q4.9 8.55 5.9 8.7" />
<path style="fill:#BFBFBF;fill-opacity:1" d="M4.8 7.8L4.5 6.1Q4.55 5.7 5.05 6.35Q5.55 6.95 5.4 7.55L5 8.1Q4.7 8.05 4.8 7.8" />
<path style="fill:none;stroke-width:0.7;stroke-linecap:round;stroke-linejoin:round;stroke-miterlimit:3;stroke:#000000;stroke-opacity:0.301961" d="M3.5 2.1L3.45 2.65" />
<path style="fill:none;stroke-width:0.7;stroke-linecap:round;stroke-linejoin:round;stroke-miterlimit:3;stroke:#000000;stroke-opacity:0.301961" d="M3.5 2.1Q3.35 1.25 2.35 0" />
<path style="fill:none;stroke-width:0.7;stroke-linecap:round;stroke-linejoin:round;stroke-miterlimit:3;stroke:#000000;stroke-opacity:0.301961" d="M1.9 4.05L2.2 3.05Q2.35 1.9 3.5 2.1Q4.6 2.3 4.55 3.45L4.65 4.6Q4.9 5.75 5.35 6Q6 6.75 6 7.8L5.9 8.7L5.15 9.9Q4.25 10.8 3 10.8Q1.8 10.8 0.9 9.9Q0 9.05 0 7.8Q0 6.55 0.9 5.7L1.9 4.05z" />
</g>
</svg>
