<?xml version="1.0" encoding="utf-8"?>
<svg version="1.1" id="Layer_1"
xmlns="http://www.w3.org/2000/svg"
xmlns:xlink="http://www.w3.org/1999/xlink"
width="11px" height="8px"
xml:space="preserve">
<g id="PathID_1155" transform="matrix(1, 0, 0, 1, 0, 0)">
<path style="fill:#808080;fill-opacity:1" d="M7.4 4L0.95 7.2Q6.9 3.75 6.65 3.1L6.5 2.65L8.25 1.55L8.6 2.3L9.45 3.1Q7.95 3.6 7.4 4M0.95 7.2Q0.3 7.1 0 6.1L1.4 5.5L1.85 5.85L2.55 6.05L2.95 6Q3.6 5.95 3.9 5.4Q4.3 5.25 4.35 4.75L4.35 3.9L6.5 2.65L6.65 3.1Q6.9 3.75 7.4 4" />
<path style="fill:#C6C6C6;fill-opacity:1" d="M6.5 2.65L4.35 3.9Q6.35 2.2 6.6 1.75Q7.3 1.45 8.6 0Q8 0.75 8.25 1.55L6.5 2.65M0 6.1Q-0.1 5.7 0.3 5.25L0.7 4.95L1.4 5.5L0 6.1M4.35 3.9L4.25 3.1L6.6 1.75Q6.35 2.2 6.5 2.65" />
<path style="fill:#989898;fill-opacity:1" d="M7.4 4L7.8 4.1L7.4 4Q7.95 3.6 9.45 3.1L10.1 3.35Q8.8 3.5 7.8 4.1L1.45 7.3L0.95 7.2L7.4 4" />
<path style="fill:none;stroke-width:0.7;stroke-linecap:round;stroke-linejoin:round;stroke-miterlimit:3;stroke:#000000;stroke-opacity:0.4" d="M10.1 3.35Q8.8 3.5 7.8 4.1L1.45 7.3L0.95 7.2Q0.3 7.1 0 6.1Q-0.1 5.7 0.3 5.25L0.7 4.95" />
<path style="fill:none;stroke-width:0.7;stroke-linecap:round;stroke-linejoin:round;stroke-miterlimit:3;stroke:#000000;stroke-opacity:0.4" d="M4.25 3.1L6.6 1.75Q7.3 1.45 8.6 0" />
<path style="fill:none;stroke-width:0.7;stroke-linecap:round;stroke-linejoin:round;stroke-miterlimit:3;stroke:#000000;stroke-opacity:0.4" d="M6.6 1.75Q6.35 2.2 6.5 2.65" />
<path style="fill:none;stroke-width:0.7;stroke-linecap:round;stroke-linejoin:round;stroke-miterlimit:3;stroke:#000000;stroke-opacity:0.4" d="M6.5 2.65L6.65 3.1Q6.9 3.75 7.4 4" />
<path style="fill:none;stroke-width:0.7;stroke-linecap:round;stroke-linejoin:round;stroke-miterlimit:3;stroke:#000000;stroke-opacity:0.4" d="M7.4 4L7.8 4.1" />
</g>
</svg>
