<?xml version="1.0" encoding="utf-8"?>
<svg version="1.1" id="Layer_1"
xmlns="http://www.w3.org/2000/svg"
xmlns:xlink="http://www.w3.org/1999/xlink"
width="7px" height="7px"
xml:space="preserve">
<g id="PathID_1020" transform="matrix(1, 0, 0, 1, 0.1, 0.1)">
<path style="fill:#5F5A54;fill-opacity:1" d="M1.05 0Q3.05 2.7 2.35 4.35Q1.5 4.4 1 3.15Q0.65 1.7 1.05 0" />
<path style="fill:#808080;fill-opacity:1" d="M1.05 0Q3.8 1 3.15 4.05L2.35 4.35Q3.05 2.7 1.05 0" />
<path style="fill:none;stroke-width:0.7;stroke-linecap:round;stroke-linejoin:round;stroke-miterlimit:3;stroke:#000000;stroke-opacity:0.301961" d="M2.35 4.35L3.15 4.05Q3.8 1 1.05 0Q3.05 2.7 2.35 4.35Q1.5 4.4 1 3.15Q0.65 1.7 1.05 0" />
</g>
<g id="PathID_1021" transform="matrix(1, 0, 0, 1, 0.1, 0.1)">
<path style="fill:#4F4943;fill-opacity:1" d="M0.7 6.4Q2.95 3.6 5.25 2.65Q3.5 3.5 0.95 6.5L0.7 6.4" />
<path style="fill:#808080;fill-opacity:1" d="M0.7 6.4L0 6.05Q3.05 2.25 6.75 1.6L6.25 2.35L5.25 2.65Q2.95 3.6 0.7 6.4" />
<path style="fill:none;stroke-width:0.7;stroke-linecap:round;stroke-linejoin:round;stroke-miterlimit:3;stroke:#000000;stroke-opacity:0.301961" d="M5.25 2.65L6.25 2.35L6.75 1.6Q3.05 2.25 0 6.05L0.7 6.4" />
<path style="fill:none;stroke-width:0.7;stroke-linecap:round;stroke-linejoin:round;stroke-miterlimit:3;stroke:#000000;stroke-opacity:0.301961" d="M5.25 2.65Q3.5 3.5 0.95 6.5L0.7 6.4" />
</g>
</svg>
