<?xml version="1.0" encoding="utf-8"?>
<svg version="1.1" id="Layer_1"
xmlns="http://www.w3.org/2000/svg"
xmlns:xlink="http://www.w3.org/1999/xlink"
width="5px" height="6px"
xml:space="preserve">
<g id="PathID_3709" transform="matrix(1, 0, 0, 1, 0, 0.25)">
<path style="fill:#808080;fill-opacity:1" d="M0.05 1.9L0 1.15L1.2 0Q1.8 0.4 2.55 0.2Q3.35 0.2 3.75 0.7L3.9 1.3L3.85 1.9Q3.45 2.7 3.8 3.5L2.45 5.1Q2.55 4.5 2.3 4.25L3.15 2.85L1.65 4.05Q2 3.05 1.5 2.55Q1.3 2.25 0.75 2.05L2 1.1L1.4 1L0.05 1.9" />
<path style="fill:#4F4943;fill-opacity:1" d="M3.15 2.85L2.3 4.25Q2.1 4 1.65 4.05L3.15 2.85M1.4 1L2 1.1L0.75 2.05L0.05 1.9L1.4 1" />
<path style="fill:none;stroke-width:0.7;stroke-linecap:round;stroke-linejoin:round;stroke-miterlimit:3;stroke:#000000;stroke-opacity:0.301961" d="M1.2 0Q1.8 0.4 2.55 0.2Q3.35 0.2 3.75 0.7L3.9 1.3L3.85 1.9Q3.45 2.7 3.8 3.5L2.45 5.1" />
</g>
</svg>
