<?xml version="1.0" encoding="utf-8"?>
<svg version="1.1" id="Layer_1"
xmlns="http://www.w3.org/2000/svg"
xmlns:xlink="http://www.w3.org/1999/xlink"
width="11px" height="7px"
xml:space="preserve">
<g id="PathID_211" transform="matrix(1, 0, 0, 1, 1.35, 14.75)">
<path style="fill:#F2F2F2;fill-opacity:0.592157" d="M3.3 -10.1Q5.65 -9.9 8.85 -10.05L3.15 -8.95L3.15 -8.8Q2.65 -8.15 1.95 -8.1Q1.45 -8.05 0.9 -8.35L0.4 -8.7L-1.35 -8.75L0.15 -9.5Q0 -10.1 0.4 -10.65L0.6 -10.9Q0.1 -12.8 -0.95 -14.75L1.1 -11.2L1.5 -11.4Q2.1 -11.5 2.7 -11.05Q3.2 -10.75 3.3 -10.1M1.45 -10.4L0.9 -10.05Q0.75 -9.8 0.9 -9.65Q0.9 -9.3 1.1 -9.1L1.65 -9L2.1 -9.25L2.25 -9.85L1.95 -10.25L1.45 -10.4" />
<path style="fill:#F2F2F2;fill-opacity:0.941176" d="M1.95 -10.25L2.25 -9.85L2.1 -9.25L1.65 -9L1.1 -9.1Q0.9 -9.3 0.9 -9.65Q0.75 -9.8 0.9 -10.05L1.45 -10.4L1.95 -10.25" />
</g>
</svg>
