<?xml version="1.0" encoding="utf-8"?>
<svg version="1.1" id="Layer_1"
xmlns="http://www.w3.org/2000/svg"
xmlns:xlink="http://www.w3.org/1999/xlink"
width="29px" height="22px"
xml:space="preserve">
<g id="PathID_3641" transform="matrix(1, 0, 0, 1, 0.1, 0.1)">
<linearGradient
id="LinearGradID_1157" gradientUnits="userSpaceOnUse" gradientTransform="matrix(0.00338745, 0.00619507, -0.00700378, 0.00453186, 24.75, 12.2)" spreadMethod ="pad" x1="-819.2" y1="0" x2="819.2" y2="0" >
<stop  offset="0.0431373" style="stop-color:#A3A3A3;stop-opacity:1" />
<stop  offset="1" style="stop-color:#808080;stop-opacity:1" />
</linearGradient>
<path style="fill:url(#LinearGradID_1157) " d="M26.8 6.6Q27.4 4.45 27.9 4.3Q27.8 7 27.1 8.3Q28.15 6.5 28.3 7.4Q27.9 9.25 27 10.3L25.85 11.25Q28.4 10.75 26.7 12.35L25.05 12.7Q26.8 13.7 25.1 14.1L23.55 13.4Q26.9 14.95 26 15.2L24.35 14.9Q23.3 14.55 22.55 13.7L22.35 15.05L21.45 14.2L23.3 16Q23.6 17.6 21.05 15.7Q19.1 13.3 19.6 11.25Q22.4 13.6 24.25 10.05Q26.15 6.5 26.1 0Q27.85 0.8 26.8 6.6M25.85 11.25L27 10.3M22.55 13.7Q23.3 14.55 24.35 14.9M21.45 14.2L22.35 15.05M23.55 13.4L25.1 14.1M25.05 12.7L26.7 12.35" />
<path style="fill:none;stroke-width:0.7;stroke-linecap:round;stroke-linejoin:round;stroke-miterlimit:3;stroke:#000000;stroke-opacity:0.4" d="M26.8 6.6Q27.4 4.45 27.9 4.3Q27.8 7 27.1 8.3Q28.15 6.5 28.3 7.4Q27.9 9.25 27 10.3Q28.4 10.75 26.7 12.35Q26.8 13.7 25.1 14.1Q26.9 14.95 26 15.2L24.35 14.9L22.35 15.05L23.3 16Q23.6 17.6 21.05 15.7Q19.1 13.3 19.6 11.25Q22.4 13.6 24.25 10.05Q26.15 6.5 26.1 0Q27.85 0.8 26.8 6.6z" />
<path style="fill:none;stroke-width:0.7;stroke-linecap:round;stroke-linejoin:round;stroke-miterlimit:3;stroke:#000000;stroke-opacity:0.25098" d="M25.85 11.25L27 10.3" />
<path style="fill:none;stroke-width:0.7;stroke-linecap:round;stroke-linejoin:round;stroke-miterlimit:3;stroke:#000000;stroke-opacity:0.25098" d="M22.55 13.7Q23.3 14.55 24.35 14.9" />
<path style="fill:none;stroke-width:0.7;stroke-linecap:round;stroke-linejoin:round;stroke-miterlimit:3;stroke:#000000;stroke-opacity:0.25098" d="M21.45 14.2L22.35 15.05" />
<path style="fill:none;stroke-width:0.7;stroke-linecap:round;stroke-linejoin:round;stroke-miterlimit:3;stroke:#000000;stroke-opacity:0.25098" d="M25.1 14.1L23.55 13.4" />
<path style="fill:none;stroke-width:0.7;stroke-linecap:round;stroke-linejoin:round;stroke-miterlimit:3;stroke:#000000;stroke-opacity:0.25098" d="M25.05 12.7L26.7 12.35" />
</g>
<g id="PathID_3642" transform="matrix(1, 0, 0, 1, 0.1, 0.1)">
<linearGradient
id="LinearGradID_1158" gradientUnits="userSpaceOnUse" gradientTransform="matrix(-0.000366211, 0.0058136, -0.00808716, -0.000793457, 8.55, 17.95)" spreadMethod ="pad" x1="-819.2" y1="0" x2="819.2" y2="0" >
<stop  offset="0.0431373" style="stop-color:#A6A6A6;stop-opacity:1" />
<stop  offset="1" style="stop-color:#808080;stop-opacity:1" />
</linearGradient>
<path style="fill:url(#LinearGradID_1158) " d="M2 11.4Q-0.55 6.8 0.3 5.1Q2.2 9.85 4.8 12.75Q7.55 15.75 10.35 15.8Q14.25 15.8 16.95 11.8Q17.95 11.4 17.6 13.2Q16.6 18.25 15.85 17.7L16.25 15.5Q15.4 17.95 14.05 19.75Q12.7 21.3 12.2 20.65Q13 19.85 14.25 16.75Q11.5 21.45 10.9 20.15L11.65 18.6Q8.25 22.1 8.15 20.8L9 20.1L11.1 17.7Q9.25 19.65 7.65 19.1Q8.3 18.7 8.5 17.95L5.85 19.4Q4.4 19.35 7.1 17.7Q4.45 18.8 3.65 17.95Q2.75 17.45 5.2 16.35Q1.65 16 1.3 14.05Q0.9 12.9 3 13.85Q0.4 12.6 0 9Q0.3 8.7 2 11.4M8.5 17.95Q8.3 18.7 7.65 19.1M11.65 18.6L10.9 20.15" />
<path style="fill:none;stroke-width:0.7;stroke-linecap:round;stroke-linejoin:round;stroke-miterlimit:3;stroke:#000000;stroke-opacity:0.4" d="M2 11.4Q-0.55 6.8 0.3 5.1Q2.2 9.85 4.8 12.75Q7.55 15.75 10.35 15.8Q14.25 15.8 16.95 11.8Q17.95 11.4 17.6 13.2Q16.6 18.25 15.85 17.7L16.25 15.5Q15.4 17.95 14.05 19.75Q12.7 21.3 12.2 20.65Q13 19.85 14.25 16.75Q11.5 21.45 10.9 20.15Q8.25 22.1 8.15 20.8L9 20.1L11.1 17.7Q9.25 19.65 7.65 19.1L5.85 19.4Q4.4 19.35 7.1 17.7Q4.45 18.8 3.65 17.95Q2.75 17.45 5.2 16.35Q1.65 16 1.3 14.05Q0.9 12.9 3 13.85Q0.4 12.6 0 9Q0.3 8.7 2 11.4z" />
<path style="fill:none;stroke-width:0.7;stroke-linecap:round;stroke-linejoin:round;stroke-miterlimit:3;stroke:#000000;stroke-opacity:0.25098" d="M8.5 17.95Q8.3 18.7 7.65 19.1" />
<path style="fill:none;stroke-width:0.7;stroke-linecap:round;stroke-linejoin:round;stroke-miterlimit:3;stroke:#000000;stroke-opacity:0.25098" d="M10.9 20.15L11.65 18.6" />
</g>
</svg>
