<?xml version="1.0" encoding="utf-8"?>
<svg version="1.1" id="Layer_1"
xmlns="http://www.w3.org/2000/svg"
xmlns:xlink="http://www.w3.org/1999/xlink"
width="4px" height="5px"
xml:space="preserve">
<g id="PathID_997" transform="matrix(1, 0, 0, 1, 0, 0)">
<radialGradient
id="RadialGradID_259" gradientUnits="userSpaceOnUse" gradientTransform="matrix(0.00123596, 0, 0, 0.00123596, 1.35, 1.9)" spreadMethod ="pad" cx="0" cy="0" r="819.2" fx="0" fy="0" >
<stop  offset="0"  style="stop-color:#CBCACA;stop-opacity:1" />
<stop  offset="1"  style="stop-color:#808080;stop-opacity:1" />
</radialGradient>
<path style="fill:url(#RadialGradID_259) " d="M0.9 2.5L1.15 2.05L0.5 2.45L0.05 2.35L0.25 1.85L1.15 1.85L0.05 1.3Q0.5 0.3 1.05 0.8L1.3 1.75L1.3 0.8Q1.4 0.4 1.85 0.65Q2.25 0.9 2.2 1.25L1.35 1.85L2.3 1.55Q2.6 1.7 2.5 2.25Q2.4 2.8 2 2.9L1.4 1.95L1.75 3.15L1.3 3.5L0.9 3.4L0.9 2.5" />
<path style="fill:#DCD8D8;fill-opacity:1" d="M0.05 1.3L0.35 0.65Q1.3 -0.25 2.3 0.65Q2.85 1.15 2.75 2.1L2.4 3.15Q1.9 3.9 0.9 3.9L0.9 3.4L1.3 3.5L1.75 3.15L1.4 1.95L2 2.9Q2.4 2.8 2.5 2.25Q2.6 1.7 2.3 1.55L1.35 1.85L2.2 1.25Q2.25 0.9 1.85 0.65Q1.4 0.4 1.3 0.8L1.3 1.75L1.05 0.8Q0.5 0.3 0.05 1.3L1.15 1.85L0.25 1.85L0.05 2.35L0.05 1.3M0.5 2.45L1.15 2.05L0.9 2.5L0.5 2.45" />
<path style="fill:#808080;fill-opacity:1" d="M2.4 3.15L2.75 2.1Q2.85 1.15 2.3 0.65Q1.3 -0.25 0.35 0.65L0.55 0.35Q1.1 -0.15 2.4 0.05Q3.6 0.55 3.5 1.95Q3.45 2.95 3.05 3.45L2.4 3.15" />
<path style="fill:#6C6A66;fill-opacity:1" d="M3.05 3.45Q2.65 4 2.05 4.05L0.9 3.9Q1.9 3.9 2.4 3.15L3.05 3.45" />
<path style="fill:none;stroke-width:0.7;stroke-linecap:round;stroke-linejoin:round;stroke-miterlimit:3;stroke:#000000;stroke-opacity:0.2" d="M0.9 3.9Q1.9 3.9 2.4 3.15L2.75 2.1Q2.85 1.15 2.3 0.65Q1.3 -0.25 0.35 0.65L0.05 1.3L0.05 2.35" />
<path style="fill:none;stroke-width:0.7;stroke-linecap:round;stroke-linejoin:round;stroke-miterlimit:3;stroke:#000000;stroke-opacity:0.2" d="M0.35 0.65L0.55 0.35Q1.1 -0.15 2.4 0.05Q3.6 0.55 3.5 1.95Q3.45 2.95 3.05 3.45Q2.65 4 2.05 4.05L0.9 3.9" />
</g>
</svg>
