<?xml version="1.0" encoding="utf-8"?>
<svg version="1.1" id="Layer_1"
xmlns="http://www.w3.org/2000/svg"
xmlns:xlink="http://www.w3.org/1999/xlink"
width="7px" height="7px"
xml:space="preserve">
<g id="PathID_3781" transform="matrix(1, 0, 0, 1, 0.1, 0.1)">
<path style="fill:#1F1F1F;fill-opacity:1" d="M3.35 0.9L3.75 1Q4.15 1.35 3.75 1.75L3.05 1.25Q3.05 0.9 3.35 0.9M0.25 2.45Q0.25 1.85 0.9 1.85Q1.5 1.85 1.5 2.45Q1.5 3.05 0.9 3.05Q0.55 3.05 0.35 2.75L0.25 2.45" />
<linearGradient
id="LinearGradID_1245" gradientUnits="userSpaceOnUse" gradientTransform="matrix(0.00260925, -0.00260925, 0.00253296, 0.00253296, 3.95, 3.05)" spreadMethod ="pad" x1="-819.2" y1="0" x2="819.2" y2="0" >
<stop  offset="0.211765" style="stop-color:#808080;stop-opacity:1" />
<stop  offset="0.482353" style="stop-color:#E0D2D2;stop-opacity:1" />
<stop  offset="0.733333" style="stop-color:#808080;stop-opacity:1" />
</linearGradient>
<path style="fill:url(#LinearGradID_1245) " d="M6.05 4Q4 3.6 1.95 5.6Q0.55 4.85 0.05 2.95L0 1.15L0.15 0.7Q0.25 -0.5 1.6 0.3L3.05 1.25L3.75 1.75Q5.85 3.2 6.05 4M0.35 2.75Q0.55 3.05 0.9 3.05Q1.5 3.05 1.5 2.45Q1.5 1.85 0.9 1.85Q0.25 1.85 0.25 2.45L0.35 2.75M2.3 1.55L3.4 2.65L2.3 1.55" />
<path style="fill:#5F5757;fill-opacity:1" d="M1.2 6.5Q0.15 6.2 0.05 2.95Q0.55 4.85 1.95 5.6L1.2 6.5" />
<path style="fill:none;stroke-width:0.7;stroke-linecap:round;stroke-linejoin:round;stroke-miterlimit:3;stroke:#000000;stroke-opacity:0.298039" d="M3.05 1.25L3.75 1.75" />
<path style="fill:none;stroke-width:0.7;stroke-linecap:round;stroke-linejoin:round;stroke-miterlimit:3;stroke:#000000;stroke-opacity:0.298039" d="M3.05 1.25L1.6 0.3Q0.25 -0.5 0.15 0.7" />
<path style="fill:none;stroke-width:0.7;stroke-linecap:round;stroke-linejoin:round;stroke-miterlimit:3;stroke:#000000;stroke-opacity:0.298039" d="M0 1.15L0.05 2.95" />
<path style="fill:none;stroke-width:0.7;stroke-linecap:round;stroke-linejoin:round;stroke-miterlimit:3;stroke:#000000;stroke-opacity:0.298039" d="M6.05 4Q5.85 3.2 3.75 1.75" />
<path style="fill:none;stroke-width:0.7;stroke-linecap:round;stroke-linejoin:round;stroke-miterlimit:3;stroke:#000000;stroke-opacity:0.109804" d="M3.4 2.65L2.3 1.55" />
<path style="fill:none;stroke-width:0.7;stroke-linecap:round;stroke-linejoin:round;stroke-miterlimit:3;stroke:#000000;stroke-opacity:0.298039" d="M1.2 6.5Q0.15 6.2 0.05 2.95" />
</g>
</svg>
