<?xml version="1.0" encoding="utf-8"?>
<svg version="1.1" id="Layer_1"
xmlns="http://www.w3.org/2000/svg"
xmlns:xlink="http://www.w3.org/1999/xlink"
width="23px" height="25px"
xml:space="preserve">
<g id="PathID_2228" transform="matrix(1, 0, 0, 1, 0.1, 0)">
<path style="fill:#808080;fill-opacity:1" d="M10.4 4.75Q8.75 5.6 7.45 4.25Q6.25 3.65 4.65 5.8Q5.7 3.45 7.8 2.45L7.35 2.3Q8.65 1.3 9.4 1.55L9.05 1.25Q10.75 0.4 13.05 0.4L12.95 0.05Q14.75 -0.1 15.8 0.45L15.6 0Q18.4 0.15 20.3 1.95L20.85 2.55L21.1 2.05L21.85 3.2L22.2 4.6L22.5 4.4L22.7 6.6Q22.45 6.65 22.25 6.85L21.4 6.55Q20.8 6.65 20.4 7Q18 2.65 15.4 3.6Q14.95 3.75 14.5 4.05L13.5 3.6L12.25 4.65Q11.55 3.7 10.4 4.75" />
<path style="fill:#666666;fill-opacity:1" d="M0.05 20.4Q-0.1 20 0.5 19.1Q2.2 16.65 3.15 12.05L4.15 7.25L4.65 5.8Q6.25 3.65 7.45 4.25Q8.75 5.6 10.4 4.75Q11.55 3.7 12.25 4.65Q10.25 6.1 8.75 5.8Q4.2 9.7 5.35 16.05L5.7 17.55L6.35 19.25Q6.45 24.9 2.9 23.25Q2.1 21.55 2.9 19.55Q4.75 17.9 5.35 16.05Q2.8 19.1 0.05 20.4" />
<path style="fill:#333333;fill-opacity:1" d="M6.35 19.25Q7.1 21.65 6.6 23.55Q5.8 25.7 3.65 24.4L2.9 23.25Q6.45 24.9 6.35 19.25M5.35 16.05Q4.75 17.9 2.9 19.55Q2.15 20.4 1.1 20.7Q0.15 20.85 0.05 20.4Q2.8 19.1 5.35 16.05" />
<path style="fill:none;stroke-width:0.7;stroke-linecap:round;stroke-linejoin:round;stroke-miterlimit:3;stroke:#000000;stroke-opacity:0.498039" d="M12.25 4.65Q10.25 6.1 8.75 5.8Q4.2 9.7 5.35 16.05L5.7 17.55L6.35 19.25Q7.1 21.65 6.6 23.55Q5.8 25.7 3.65 24.4L2.9 23.25Q2.1 21.55 2.9 19.55Q2.15 20.4 1.1 20.7Q0.15 20.85 0.05 20.4Q-0.1 20 0.5 19.1Q2.2 16.65 3.15 12.05L4.15 7.25L4.65 5.8" />
</g>
</svg>
