<?xml version="1.0" encoding="utf-8"?>
<svg version="1.1" id="Layer_1"
xmlns="http://www.w3.org/2000/svg"
xmlns:xlink="http://www.w3.org/1999/xlink"
width="13px" height="9px"
xml:space="preserve">
<g id="PathID_4069" transform="matrix(1, 0, 0, 1, 4.95, 1.25)">
<path style="fill:#4F4943;fill-opacity:1" d="M-2.45 5.6L-1.85 6.25L-2.7 7.15Q-4 6.4 -4.7 4.85L-4.2 4.7Q-3.4 5.35 -2.45 5.6M5.7 3.2L5.7 0.8L6.75 0Q7.15 1 7.15 2.25L6.95 3.8L5.7 3.2M0.2 5.9Q1.45 5.65 3.6 4L4.25 4.4L3.7 6.25L1.45 7.15L0 6.3L0.2 5.9" />
<path style="fill:#808080;fill-opacity:1" d="M0.2 0.55L-1.1 2.5L-2.8 2.5L-3.6 0.9L-2.45 -1.15L-0.55 -1.05L0.2 0.55M-4.2 4.7L-3.4 4.4L-2.45 5.6Q-3.4 5.35 -4.2 4.7M0.2 5.9L0.55 4.4L2.75 3.45L3.6 4Q1.45 5.65 0.2 5.9" />
<path style="fill:none;stroke-width:0.7;stroke-linecap:round;stroke-linejoin:round;stroke-miterlimit:3;stroke:#000000;stroke-opacity:0.2" d="M-2.45 -1.15L-3.6 0.9" />
<path style="fill:none;stroke-width:0.7;stroke-linecap:round;stroke-linejoin:round;stroke-miterlimit:3;stroke:#000000;stroke-opacity:0.2" d="M-2.8 2.5L-1.1 2.5" />
<path style="fill:none;stroke-width:0.7;stroke-linecap:round;stroke-linejoin:round;stroke-miterlimit:3;stroke:#000000;stroke-opacity:0.2" d="M0.2 0.55L-0.55 -1.05" />
<path style="fill:none;stroke-width:0.7;stroke-linecap:round;stroke-linejoin:round;stroke-miterlimit:3;stroke:#000000;stroke-opacity:0.2" d="M-3.4 4.4L-2.45 5.6L-1.85 6.25" />
<path style="fill:none;stroke-width:0.7;stroke-linecap:round;stroke-linejoin:round;stroke-miterlimit:3;stroke:#000000;stroke-opacity:0.45098" d="M-2.7 7.15Q-4 6.4 -4.7 4.85" />
<path style="fill:none;stroke-width:0.7;stroke-linecap:round;stroke-linejoin:round;stroke-miterlimit:3;stroke:#000000;stroke-opacity:0.2" d="M-4.7 4.85L-4.2 4.7" />
<path style="fill:none;stroke-width:0.7;stroke-linecap:round;stroke-linejoin:round;stroke-miterlimit:3;stroke:#000000;stroke-opacity:0.45098" d="M6.95 3.8L7.15 2.25Q7.15 1 6.75 0" />
<path style="fill:none;stroke-width:0.7;stroke-linecap:round;stroke-linejoin:round;stroke-miterlimit:3;stroke:#000000;stroke-opacity:0.2" d="M0.55 4.4L0.2 5.9" />
<path style="fill:none;stroke-width:0.7;stroke-linecap:round;stroke-linejoin:round;stroke-miterlimit:3;stroke:#000000;stroke-opacity:0.2" d="M3.7 6.25L1.45 7.15" />
<path style="fill:none;stroke-width:0.7;stroke-linecap:round;stroke-linejoin:round;stroke-miterlimit:3;stroke:#000000;stroke-opacity:0.2" d="M0 6.3L0.2 5.9" />
</g>
</svg>
