<?xml version="1.0" encoding="utf-8"?>
<svg version="1.1" id="Layer_1"
xmlns="http://www.w3.org/2000/svg"
xmlns:xlink="http://www.w3.org/1999/xlink"
width="6px" height="9px"
xml:space="preserve">
<g id="PathID_2418" transform="matrix(1, 0, 0, 1, 6.7, 15.4)">
<path style="fill:none;stroke-width:0.7;stroke-linecap:round;stroke-linejoin:round;stroke-miterlimit:3;stroke:#000000;stroke-opacity:0.501961" d="M-5.8 -15.3L-6.4 -14.7L-6.6 -14Q-6.6 -13.55 -6 -13.25L-5.7 -13.1L-5.3 -13.75Q-4.7 -14.4 -4 -14.35Q-3.7 -14.35 -3.7 -13.95Q-3.7 -13.75 -4.05 -13.35Q-4.5 -12.9 -5 -12.95L-5.7 -13.1L-5.9 -12.5Q-5.9 -11.9 -5.05 -11.7L-4.55 -12.4L-3.5 -12.85Q-3.2 -12.8 -3.2 -12.55Q-3.2 -12.15 -3.85 -11.9L-4.8 -11.65L-5.05 -11.7L-5.2 -11.25Q-5.2 -10.4 -4.2 -10.25L-3.9 -10.7Q-3.25 -11.55 -2.65 -11.55Q-2.2 -11.5 -2.2 -11.25Q-2.2 -10.1 -3.9 -10.2L-4.2 -10.25L-4.55 -9.35Q-4.55 -8.4 -3.2 -8.3L-3.1 -8.3L-3.1 -8.45L-2.7 -9.35Q-2.3 -9.7 -1.85 -9.7L-1.6 -9.4Q-1.6 -8.95 -2.2 -8.65L-3.1 -8.3L-2.85 -7.8L-2.2 -7.25" />
</g>
</svg>
