<?xml version="1.0" encoding="utf-8"?>
<svg version="1.1" id="Layer_1"
xmlns="http://www.w3.org/2000/svg"
xmlns:xlink="http://www.w3.org/1999/xlink"
width="27px" height="15px"
xml:space="preserve">
<g id="PathID_1402" transform="matrix(1, 0, 0, 1, 13.05, 7.45)">
<radialGradient
id="RadialGradID_375" gradientUnits="userSpaceOnUse" gradientTransform="matrix(0.0212402, 0, 0, 0.0212402, 4.2, -4.3)" spreadMethod ="pad" cx="0" cy="0" r="819.2" fx="0" fy="0" >
<stop  offset="0.427451"  style="stop-color:#5E5E5E;stop-opacity:1" />
<stop  offset="0.878431"  style="stop-color:#808080;stop-opacity:1" />
</radialGradient>
<path style="fill:url(#RadialGradID_375) " d="M1.8 -0.55Q4.3 0.75 7.05 0.55L9.3 0.1L10 1.7Q11.05 3.45 13 4.05Q11.15 4.1 10.9 5.2L10.85 5.55L12.35 6.6Q10.75 6.6 10.2 7.45Q9.15 6.9 5.85 6.3Q1.9 5.6 0 6.25Q-0.75 5.2 -2.8 3.95Q-5.65 2.15 -8.35 2.25Q-9.5 -1.45 -13 -3.35Q-12.3 -4.45 -13.05 -5.55Q-7.25 -3.95 -0.85 -7.45L-0.9 -6.9Q-1.15 -4.3 0.2 -2.2Q0.95 -1.1 1.8 -0.55" />
</g>
</svg>
