<?xml version="1.0" encoding="utf-8"?>
<svg version="1.1" id="Layer_1"
xmlns="http://www.w3.org/2000/svg"
xmlns:xlink="http://www.w3.org/1999/xlink"
width="14px" height="19px"
xml:space="preserve">
<g id="PathID_1359" transform="matrix(1, 0, 0, 1, 0, 0)">
<path style="fill:#514F58;fill-opacity:1" d="M10.3 1L12.95 0L13.2 1.45Q13.15 3.6 10.7 5.35L10.45 5.55L11.15 3.95Q11.1 2.15 8.7 2.8Q9.45 2.4 10.3 1M5.95 9.9Q6.85 10.85 8.45 11.1L9.9 11.4L10.85 10.9L10.85 12.1L11.65 12.8L9.95 13L8.65 13.55L8.85 12.3L7.55 11.85L6.15 12.95L7.1 13.9L8.2 13.85L7.7 14.9L8 15.8L6.3 15.6L5.05 15.65L5.75 14.45L5.05 13.65L2.65 14.95L3.15 15.95L4.45 15.75L3.7 17.1L3.55 18.55L2 17.4L0.45 17.65L1.65 16.25L1.25 15.65L0.4 14Q2.2 10.05 5.95 9.9" />
<path style="fill:#808080;fill-opacity:1" d="M9 6.25L6.6 7.15Q1.65 7.45 0.1 10.75Q1.05 6.9 6.8 3.7L8.7 2.8Q11.1 2.15 11.15 3.95L10.45 5.55L9 6.25" />
<path style="fill:#3C3B43;fill-opacity:1" d="M0.4 14Q-0.05 12.8 0 11.35L0.1 10.75Q1.65 7.45 6.6 7.15Q4.6 7.75 5.5 9.4L5.95 9.9Q2.2 10.05 0.4 14" />
<path style="fill:none;stroke-width:0.7;stroke-linecap:round;stroke-linejoin:round;stroke-miterlimit:3;stroke:#000000;stroke-opacity:0.4" d="M10.45 5.55L10.7 5.35Q13.15 3.6 13.2 1.45L12.95 0L10.3 1Q9.45 2.4 8.7 2.8L6.8 3.7Q1.05 6.9 0.1 10.75Q1.65 7.45 6.6 7.15L9 6.25L10.45 5.55z" />
<path style="fill:none;stroke-width:0.7;stroke-linecap:round;stroke-linejoin:round;stroke-miterlimit:3;stroke:#000000;stroke-opacity:0.4" d="M5.95 9.9Q6.85 10.85 8.45 11.1L9.9 11.4L10.85 10.9L10.85 12.1L11.65 12.8L9.95 13L8.65 13.55L8.85 12.3L7.55 11.85L6.15 12.95L7.1 13.9L8.2 13.85L7.7 14.9L8 15.8L6.3 15.6L5.05 15.65L5.75 14.45L5.05 13.65L2.65 14.95L3.15 15.95L4.45 15.75L3.7 17.1L3.55 18.55L2 17.4L0.45 17.65L1.65 16.25L1.25 15.65L0.4 14Q-0.05 12.8 0 11.35L0.1 10.75" />
<path style="fill:none;stroke-width:0.7;stroke-linecap:round;stroke-linejoin:round;stroke-miterlimit:3;stroke:#000000;stroke-opacity:0.4" d="M6.6 7.15Q4.6 7.75 5.5 9.4L5.95 9.9" />
</g>
</svg>
