<?xml version="1.0" encoding="utf-8"?>
<svg version="1.1" id="Layer_1"
xmlns="http://www.w3.org/2000/svg"
xmlns:xlink="http://www.w3.org/1999/xlink"
width="13px" height="8px"
xml:space="preserve">
<g id="PathID_1118" transform="matrix(1, 0, 0, 1, 0, 0)">
<path style="fill:#808080;fill-opacity:1" d="M12.3 1L8.4 2.6L8.3 1.95L8.15 1.3L11.7 0L12.3 1M4.85 4L4.45 3.1L4.85 2.95L5.2 3.25L5.8 3.65L4.85 4M0.75 3.3Q1.45 2.75 2.35 2.85Q3.25 2.9 3.8 3.6Q4.4 4.3 4.3 5.2Q4.25 6.1 3.55 6.6Q2.9 7.15 2 7.1Q1.1 7 0.5 6.3Q-0.05 5.7 0 4.8Q0.1 3.9 0.75 3.3M1.6 4.35L1.3 4.9L1.5 5.6Q1.75 5.85 2.1 5.9L2.75 5.7L3.05 5.05L2.85 4.45L2.25 4.15Q1.9 4.1 1.6 4.35" />
<path style="fill:none;stroke-width:0.7;stroke-linecap:round;stroke-linejoin:round;stroke-miterlimit:3;stroke:#000000;stroke-opacity:0.301961" d="M12.3 1L8.4 2.6L8.3 1.95L8.15 1.3L11.7 0L12.3 1z" />
<path style="fill:none;stroke-width:0.7;stroke-linecap:round;stroke-linejoin:round;stroke-miterlimit:3;stroke:#000000;stroke-opacity:0.301961" d="M4.85 2.95L4.45 3.1" />
<path style="fill:none;stroke-width:0.7;stroke-linecap:round;stroke-linejoin:round;stroke-miterlimit:3;stroke:#000000;stroke-opacity:0.301961" d="M4.85 4L5.8 3.65" />
<path style="fill:none;stroke-width:0.7;stroke-linecap:round;stroke-linejoin:round;stroke-miterlimit:3;stroke:#000000;stroke-opacity:0.301961" d="M0.75 3.3Q1.45 2.75 2.35 2.85Q3.25 2.9 3.8 3.6Q4.4 4.3 4.3 5.2Q4.25 6.1 3.55 6.6Q2.9 7.15 2 7.1Q1.1 7 0.5 6.3Q-0.05 5.7 0 4.8Q0.1 3.9 0.75 3.3z" />
<path style="fill:none;stroke-width:0.7;stroke-linecap:round;stroke-linejoin:round;stroke-miterlimit:3;stroke:#000000;stroke-opacity:0.301961" d="M2.25 4.15L2.85 4.45L3.05 5.05L2.75 5.7L2.1 5.9Q1.75 5.85 1.5 5.6L1.3 4.9L1.6 4.35Q1.9 4.1 2.25 4.15z" />
</g>
</svg>
