<?xml version="1.0" encoding="utf-8"?>
<svg version="1.1" id="Layer_1"
xmlns="http://www.w3.org/2000/svg"
xmlns:xlink="http://www.w3.org/1999/xlink"
width="6px" height="7px"
xml:space="preserve">
<g id="PathID_1295" transform="matrix(1, 0, 0, 1, 0.1, 0.1)">
<path style="fill:#9C9C9C;fill-opacity:1" d="M4.4 3.55L3.2 3.45L2.7 3.35L3.6 2.65L3.6 2.75L5.55 3.65L5.5 3.65L4.4 3.55M1.85 3.15L1 2.95L0 2.5L0.05 2.5L2.1 2.4L2.9 0.6L3.15 0.7L3 1.3L2.65 2.75L2.55 3.3L2.45 3.3L1.85 3.15" />
<path style="fill:#727272;fill-opacity:1" d="M2.4 3.35L2.45 3.35L2.45 3.3L2.55 3.3L2.65 2.75L3 1.3L3.15 0.7L3.4 0.75L3.4 0.8L3.6 2.65L2.7 3.35L3.2 3.45L4.4 3.55L5.5 3.65L3.45 4.2L2.4 3.35" />
<path style="fill:#808080;fill-opacity:1" d="M2.45 3.3L2.45 3.35L2.4 3.35L2.35 3.5L2.2 5.3L2.15 5.95L1.5 3.8L1.5 3.75L0.05 2.55L0 2.5L1 2.95L1.85 3.15L2.45 3.3M2.9 0.6L2.8 0L3.55 0L3.4 0.75L3.15 0.7L2.9 0.6" />
<path style="fill:#646464;fill-opacity:1" d="M2.4 3.35L3.45 4.2L3.4 4.2L2.2 6.25L2.15 5.95L2.2 5.3L2.35 3.5L2.4 3.35" />
<path style="fill:none;stroke-width:0.7;stroke-linecap:round;stroke-linejoin:round;stroke-miterlimit:3;stroke:#000000;stroke-opacity:0.4" d="M5.5 3.65L5.55 3.65L3.6 2.75L3.6 2.65" />
<path style="fill:none;stroke-width:0.7;stroke-linecap:round;stroke-linejoin:round;stroke-miterlimit:3;stroke:#000000;stroke-opacity:0.2" d="M3.2 3.45L4.4 3.55" />
<path style="fill:none;stroke-width:0.7;stroke-linecap:round;stroke-linejoin:round;stroke-miterlimit:3;stroke:#000000;stroke-opacity:0.4" d="M5.5 3.65L3.45 4.2L3.4 4.2L2.2 6.25L2.15 5.95L1.5 3.8L1.5 3.75L0.05 2.55L0 2.5L0.05 2.5L2.1 2.4L2.9 0.6L2.8 0L3.55 0L3.4 0.75L3.4 0.8L3.6 2.65" />
<path style="fill:none;stroke-width:0.7;stroke-linecap:round;stroke-linejoin:round;stroke-miterlimit:3;stroke:#000000;stroke-opacity:0.2" d="M3 1.3L2.65 2.75" />
<path style="fill:none;stroke-width:0.7;stroke-linecap:round;stroke-linejoin:round;stroke-miterlimit:3;stroke:#000000;stroke-opacity:0.2" d="M1 2.95L1.85 3.15" />
<path style="fill:none;stroke-width:0.7;stroke-linecap:round;stroke-linejoin:round;stroke-miterlimit:3;stroke:#000000;stroke-opacity:0.2" d="M2.2 5.3L2.35 3.5" />
</g>
</svg>
