<?xml version="1.0" encoding="utf-8"?>
<svg version="1.1" id="Layer_1"
xmlns="http://www.w3.org/2000/svg"
xmlns:xlink="http://www.w3.org/1999/xlink"
width="39px" height="16px"
xml:space="preserve">
<g id="PathID_2488" transform="matrix(1, 0, 0, 1, 0.15, 0.15)">
<path style="fill:#808080;fill-opacity:1" d="M20.9 12.95Q22.9 5.4 26.15 1.9Q27.9 -0.7 32.85 1.45Q36.4 2.9 37.75 5.75Q38.2 6.95 38.15 7.85Q37.4 8.55 36.5 8.55Q34.7 8.55 32.1 6.6Q29.45 4.6 28.4 4.6Q26.45 4.6 24.7 7.85L22.4 13.25Q21.35 13.7 20.9 12.95" />
<path style="fill:#514849;fill-opacity:1" d="M22.4 13.25L24.7 7.85Q26.45 4.6 28.4 4.6Q29.45 4.6 32.1 6.6Q34.7 8.55 36.5 8.55Q37.4 8.55 38.15 7.85Q38.05 9.15 36.45 9.65Q35.35 10.45 32.3 8.35L30.9 7.35L29.5 6.3Q27.35 10.1 23.2 15.35Q20.85 15.35 20.6 14L20.9 12.95Q21.35 13.7 22.4 13.25M25.5 8Q23.75 10.5 22.95 12.9L22.9 13.05L22.6 14.15L29.5 6.3L30.9 7.35L28.75 5.8Q27.4 4.85 25.5 8M22.6 14.15L22.9 13.05" />
<path style="fill:none;stroke-width:0.7;stroke-linecap:round;stroke-linejoin:round;stroke-miterlimit:3;stroke:#000000;stroke-opacity:0.4" d="M38.15 7.85Q38.05 9.15 36.45 9.65Q35.35 10.45 32.3 8.35L30.9 7.35Q27.35 10.1 23.2 15.35Q20.85 15.35 20.6 14L20.9 12.95Q22.9 5.4 26.15 1.9Q27.9 -0.7 32.85 1.45Q36.4 2.9 37.75 5.75Q38.2 6.95 38.15 7.85z" />
<path style="fill:none;stroke-width:0.7;stroke-linecap:round;stroke-linejoin:round;stroke-miterlimit:3;stroke:#000000;stroke-opacity:0.4" d="M25.5 8Q23.75 10.5 22.95 12.9L22.9 13.05L29.5 6.3L28.75 5.8Q27.4 4.85 25.5 8z" />
<path style="fill:none;stroke-width:0.7;stroke-linecap:round;stroke-linejoin:round;stroke-miterlimit:3;stroke:#000000;stroke-opacity:0.4" d="M22.9 13.05L22.6 14.15" />
<path style="fill:none;stroke-width:0.7;stroke-linecap:round;stroke-linejoin:round;stroke-miterlimit:3;stroke:#000000;stroke-opacity:0.4" d="M30.9 7.35L29.5 6.3" />
</g>
<g id="PathID_2489" transform="matrix(1, 0, 0, 1, 0.15, 0.15)">
<path style="fill:#808080;fill-opacity:1" d="M9.9 4.75L9.35 4.35Q8.95 3.85 8.4 4.6Q7.9 5.45 7.45 6.85Q6.6 8.45 4.35 8.8L1.2 8.7L0.4 8.35Q-0.05 7.35 0 5.95Q0.1 3.25 2.55 1.45Q4.5 0 6.3 0L8.15 0.4Q8.8 0.8 9 1.45L9.15 1.65Q12.2 6.65 13.4 12.35Q12.5 9.5 11.15 6.7L9.9 4.7L9.9 4.75" />
<path style="fill:#514849;fill-opacity:1" d="M0.4 8.35L1.2 8.7L4.35 8.8Q6.6 8.45 7.45 6.85Q7.9 5.45 8.4 4.6Q8.95 3.85 9.35 4.35L9.9 4.75L9.15 6.4L9.9 4.75L9.9 4.7L11.15 6.7Q12.5 9.5 13.4 12.35L13.85 14.6Q12.5 15.6 11 15.05Q7.8 13.15 5.3 10.15L3.4 10.45Q1.7 10.45 0.85 9.25L0.4 8.35M6.9 9.6L5.8 10.05L12.1 13.95L9.15 6.4L9 6.8L7.75 8.95L6.9 9.6M5.8 10.05L5.3 10.15L5.8 10.05L6.9 9.6" />
<path style="fill:none;stroke-width:0.7;stroke-linecap:round;stroke-linejoin:round;stroke-miterlimit:3;stroke:#000000;stroke-opacity:0.4" d="M13.4 12.35Q12.2 6.65 9.15 1.65L9 1.45Q8.8 0.8 8.15 0.4L6.3 0Q4.5 0 2.55 1.45Q0.1 3.25 0 5.95Q-0.05 7.35 0.4 8.35" />
<path style="fill:none;stroke-width:0.7;stroke-linecap:round;stroke-linejoin:round;stroke-miterlimit:3;stroke:#000000;stroke-opacity:0.4" d="M9.9 4.75L9.9 4.7" />
<path style="fill:none;stroke-width:0.7;stroke-linecap:round;stroke-linejoin:round;stroke-miterlimit:3;stroke:#000000;stroke-opacity:0.4" d="M13.4 12.35L13.85 14.6Q12.5 15.6 11 15.05Q7.8 13.15 5.3 10.15L3.4 10.45Q1.7 10.45 0.85 9.25L0.4 8.35" />
<path style="fill:none;stroke-width:0.7;stroke-linecap:round;stroke-linejoin:round;stroke-miterlimit:3;stroke:#000000;stroke-opacity:0.4" d="M6.9 9.6L12.1 13.95L9.15 6.4L9 6.8L7.75 8.95L6.9 9.6L5.8 10.05L5.3 10.15" />
<path style="fill:none;stroke-width:0.7;stroke-linecap:round;stroke-linejoin:round;stroke-miterlimit:3;stroke:#000000;stroke-opacity:0.4" d="M9.9 4.75L9.15 6.4" />
</g>
</svg>
