<?xml version="1.0" encoding="utf-8"?>
<svg version="1.1" id="Layer_1"
xmlns="http://www.w3.org/2000/svg"
xmlns:xlink="http://www.w3.org/1999/xlink"
width="27px" height="21px"
xml:space="preserve">
<g id="PathID_2842" transform="matrix(1, 0, 0, 1, 0, 0)">
<path style="fill:#5B5B5B;fill-opacity:1" d="M24.45 6.6L23.95 7.1L23.45 6.95L23.3 6.9L23.65 5.85Q23.3 5.35 22.8 5.4L23.2 5L23.7 5.1Q24.7 5.85 24.45 6.6M18.15 2L18.25 1.9Q18.55 1.7 18.95 2.05L19.4 2.6L19.6 3.35L19.45 3.9Q18.9 2.15 18.15 2M16.2 5.95L16.3 5.8Q16.55 5.65 16.95 6L17.45 6.5L17.65 7.25L17.5 7.85Q16.9 6.3 16.2 5.95M11 5.1L11.05 5.05Q11.35 4.9 11.75 5.2L12.2 5.8L12.35 6.5L12.25 7Q11.7 5.25 11 5.1M9.1 10L9.45 9.7Q9.85 9.55 10.15 10L10.4 10.7L10.35 11.45L10.25 11.7Q9.95 9.75 9.1 10M2.65 11Q2.95 10.7 3.25 10.85L3.6 11.35L3.55 12.15L3.1 12.8L3.05 12.85Q3.45 10.85 2.65 11M4.45 14.95Q4.6 14.65 5 14.7Q5.5 14.75 5.65 15.2L5.65 15.9L5.5 16.65L5.3 16.95Q5.25 14.95 4.45 14.95" />
<radialGradient
id="RadialGradID_879" gradientUnits="userSpaceOnUse" gradientTransform="matrix(0.0162964, 0, 0, 0.0162964, 15.75, -0.05)" spreadMethod ="pad" cx="0" cy="0" r="819.2" fx="0" fy="0" >
<stop  offset="0"  style="stop-color:#C9C9C9;stop-opacity:1" />
<stop  offset="1"  style="stop-color:#808080;stop-opacity:1" />
</radialGradient>
<path style="fill:url(#RadialGradID_879) " d="M22.75 5.5Q22.65 5.85 22.9 6.35L23.3 6.9Q22.65 8.3 20.9 9.35Q16.35 9.95 12.55 12.7Q10.05 14.45 7.9 17.15Q5.65 18.35 3.85 18.25Q0.5 17.8 0.05 14.15Q0.1 12.05 0.75 10.2Q1.45 8.3 3.4 6.6Q4.6 5.5 6.65 4.7Q7.7 4.45 7.15 6.85Q8.1 4.9 9.45 3.8L10.45 2.7Q12.35 0.85 15.6 0.2Q18.8 -0.45 21.65 1.25Q23.65 3.15 23.7 5.1L23.2 5L22.8 5.4L22.75 5.5M18.8 1.4Q19.4 1.4 19.4 1Q19.4 0.65 18.75 0.65Q18.05 0.65 18.05 1L18.2 1.2L18.8 1.4M17.95 2.6L18.1 3.25Q18.75 4.25 19.25 4L19.45 3.9L19.6 3.35L19.4 2.6L18.95 2.05Q18.55 1.7 18.25 1.9L18.15 2L17.95 2.6M17.05 0.65Q15.5 0.75 14.1 1.35Q12.8 1.9 12.7 2.35L12.95 2.45L15.75 1.65Q17.3 1.3 17.3 1L17.05 0.65M16.05 6.45L16.15 7.15Q16.75 8.2 17.3 7.95L17.5 7.85L17.65 7.25L17.45 6.5L16.95 6Q16.55 5.65 16.3 5.8L16.2 5.95Q16.05 6.1 16.05 6.45M10.75 5.7L10.9 6.4Q11.6 7.45 12.05 7.2L12.25 7L12.35 6.5L12.2 5.8L11.75 5.2Q11.35 4.9 11.05 5.05L11 5.1Q10.75 5.25 10.75 5.7M8.95 10.9L9.2 11.6L9.85 12L10.25 11.7L10.35 11.45L10.4 10.7L10.15 10Q9.85 9.55 9.45 9.7L9.1 10Q8.95 10.3 8.95 10.9M2.25 11.75L2.25 12.5L2.5 13.1L3.05 12.85L3.1 12.8L3.55 12.15L3.6 11.35L3.25 10.85Q2.95 10.7 2.65 11L2.25 11.75M4.35 15.1L4.2 15.8Q4.2 17.05 4.8 17.1L5.3 16.95L5.5 16.65L5.65 15.9L5.65 15.2Q5.5 14.75 5 14.7Q4.6 14.65 4.45 14.95L4.35 15.1" />
<path style="fill:#747474;fill-opacity:1" d="M22.8 5.4Q23.3 5.35 23.65 5.85L23.3 6.9L22.9 6.35Q22.65 5.85 22.75 5.5L22.8 5.4M9.45 3.8Q8.1 4.9 7.15 6.85Q7.7 4.45 6.65 4.7Q7.9 4.2 9.45 3.8M19.45 3.9L19.25 4Q18.75 4.25 18.1 3.25L17.95 2.6L18.15 2Q18.9 2.15 19.45 3.9M17.5 7.85L17.3 7.95Q16.75 8.2 16.15 7.15L16.05 6.45Q16.05 6.1 16.2 5.95Q16.9 6.3 17.5 7.85M12.25 7L12.05 7.2Q11.6 7.45 10.9 6.4L10.75 5.7Q10.75 5.25 11 5.1Q11.7 5.25 12.25 7M9.1 10Q9.95 9.75 10.25 11.7L9.85 12L9.2 11.6L8.95 10.9Q8.95 10.3 9.1 10M3.05 12.85L2.5 13.1L2.25 12.5L2.25 11.75L2.65 11Q3.45 10.85 3.05 12.85M5.3 16.95L4.8 17.1Q4.2 17.05 4.2 15.8L4.35 15.1L4.45 14.95Q5.25 14.95 5.3 16.95" />
<path style="fill:#5D5D5D;fill-opacity:1" d="M24.6 3.4Q27.2 6.05 26.1 9.9Q25.55 9.3 24.1 9.15L20.9 9.35Q22.65 8.3 23.3 6.9L23.45 6.95L23.95 7.1L24.45 6.6Q24.7 5.85 23.7 5.1Q23.65 3.15 21.65 1.25Q23.15 1.95 24.6 3.4M5.75 20.1Q3.85 20.15 2.3 19.45Q-0.3 17.4 0.05 14.15Q0.5 17.8 3.85 18.25Q5.65 18.35 7.9 17.15Q6.8 18.45 5.75 20.1" />
<path style="fill:#E9E9E9;fill-opacity:1" d="M18.2 1.2L18.05 1Q18.05 0.65 18.75 0.65Q19.4 0.65 19.4 1Q19.4 1.4 18.8 1.4L18.2 1.2M17.3 1Q17.3 1.3 15.75 1.65L12.95 2.45L12.7 2.35Q12.8 1.9 14.1 1.35Q15.5 0.75 17.05 0.65L17.3 1" />
<path style="fill:none;stroke-width:0.7;stroke-linecap:round;stroke-linejoin:round;stroke-miterlimit:3;stroke:#000000;stroke-opacity:0.4" d="M21.65 1.25Q18.8 -0.45 15.6 0.2Q12.35 0.85 10.45 2.7L9.45 3.8Q8.1 4.9 7.15 6.85" />
<path style="fill:none;stroke-width:0.7;stroke-linecap:round;stroke-linejoin:round;stroke-miterlimit:3;stroke:#000000;stroke-opacity:0.4" d="M6.65 4.7Q4.6 5.5 3.4 6.6Q1.45 8.3 0.75 10.2Q0.1 12.05 0.05 14.15" />
<path style="fill:none;stroke-width:0.7;stroke-linecap:round;stroke-linejoin:round;stroke-miterlimit:3;stroke:#000000;stroke-opacity:0.4" d="M26.1 9.9Q27.2 6.05 24.6 3.4Q23.15 1.95 21.65 1.25" />
<path style="fill:none;stroke-width:0.7;stroke-linecap:round;stroke-linejoin:round;stroke-miterlimit:3;stroke:#000000;stroke-opacity:0.4" d="M9.45 3.8Q7.9 4.2 6.65 4.7" />
<path style="fill:none;stroke-width:0.7;stroke-linecap:round;stroke-linejoin:round;stroke-miterlimit:3;stroke:#000000;stroke-opacity:0.4" d="M0.05 14.15Q-0.3 17.4 2.3 19.45Q3.85 20.15 5.75 20.1" />
</g>
</svg>
