<?xml version="1.0" encoding="utf-8"?>
<svg version="1.1" id="Layer_1"
xmlns="http://www.w3.org/2000/svg"
xmlns:xlink="http://www.w3.org/1999/xlink"
width="22px" height="7px"
xml:space="preserve">
<g id="PathID_2096" transform="matrix(1, 0, 0, 1, 0, -22.7)">
<path style="fill:#8E8E8E;fill-opacity:1" d="M5.15 23.9Q5 26 6.35 26.55L8.8 26.75Q10.7 26.6 11.5 25.8Q12.95 28.5 15.25 28.25Q16.5 28.3 17.35 26.45Q20.45 28.9 21.6 26.6L21.95 27.05Q22.1 28.05 21.55 28.75Q19.65 29.6 17.45 27.8Q16.15 29.55 14.15 29.4Q11.65 28.7 11.1 26.9Q9.8 27.55 8.3 27.65L5.95 27.4Q4.3 26.8 4.6 24.65Q-0.3 26 0 23.35L0.9 22.7Q0.6 25.05 5.15 23.9" />
</g>
</svg>
