<?xml version="1.0" encoding="utf-8"?>
<svg version="1.1" id="Layer_1"
xmlns="http://www.w3.org/2000/svg"
xmlns:xlink="http://www.w3.org/1999/xlink"
width="13px" height="14px"
xml:space="preserve">
<g id="PathID_4119" transform="matrix(1, 0, 0, 1, 0.75, 0.75)">
<path style="fill:#5D5A59;fill-opacity:1" d="M5.6 8.15L4.85 6.95L4.65 6Q4.65 4.6 5.45 3.7Q6.15 2.85 7.3 2.55L9.5 2.6Q10.6 2.95 11.35 3.75Q10.1 2.75 8.3 2.85Q6.35 2.95 5.55 4.35Q4.85 5.55 5.2 6.7Q5.55 7.75 6.6 8.45Q7.6 9.15 8.85 9.15Q10.25 9.15 11.35 8.25L10.6 8.95L9.6 9.4Q7.05 9.7 5.6 8.15" />
<path style="fill:#46413F;fill-opacity:1" d="M9.4 10.4L8.4 10.85L9.5 9.95Q9.75 9.55 9.6 9.4L10.6 8.95L11.35 8.25L10.7 9.45L10.65 9.5L9.4 10.4" />
<path style="fill:#808080;fill-opacity:1" d="M9.6 9.4Q9.75 9.55 9.5 9.95L8.4 10.85L4.95 11.1Q2.2 10.65 0.5 8.2Q0.1 7.4 0 6.5Q-0.1 4.1 1.6 2.05Q3.8 -0.65 7.45 0.25Q9.5 0.75 10.6 2.3L11.35 3.75Q10.6 2.95 9.5 2.6L7.3 2.55Q6.15 2.85 5.45 3.7Q4.65 4.6 4.65 6L4.85 6.95L5.6 8.15Q7.05 9.7 9.6 9.4" />
<path style="fill:#696767;fill-opacity:1" d="M4.95 11.1L8.4 10.85L9.4 10.4L10.65 9.5L10.25 9.95Q8.6 11.6 6.15 11.6Q3.4 11.6 1.6 9.7Q0.9 9 0.5 8.2Q2.2 10.65 4.95 11.1" />
<path style="fill:none;stroke-width:1.5;stroke-linecap:round;stroke-linejoin:round;stroke-miterlimit:3;stroke:#000000;stroke-opacity:0.4" d="M11.35 8.25L10.7 9.45L10.65 9.5L10.25 9.95Q8.6 11.6 6.15 11.6Q3.4 11.6 1.6 9.7Q0.9 9 0.5 8.2Q0.1 7.4 0 6.5Q-0.1 4.1 1.6 2.05Q3.8 -0.65 7.45 0.25Q9.5 0.75 10.6 2.3L11.35 3.75Q10.1 2.75 8.3 2.85Q6.35 2.95 5.55 4.35Q4.85 5.55 5.2 6.7Q5.55 7.75 6.6 8.45Q7.6 9.15 8.85 9.15Q10.25 9.15 11.35 8.25z" />
</g>
<g id="PathID_4120" transform="matrix(1, 0, 0, 1, 0.75, 0.75)">
<linearGradient
id="LinearGradID_1335" gradientUnits="userSpaceOnUse" gradientTransform="matrix(0, 0.00384521, -0.00579834, 0, 3.65, 4.7)" spreadMethod ="pad" x1="-819.2" y1="0" x2="819.2" y2="0" >
<stop  offset="0" style="stop-color:#C2C2C2;stop-opacity:1" />
<stop  offset="1" style="stop-color:#808080;stop-opacity:1" />
</linearGradient>
<path style="fill:url(#LinearGradID_1335) " d="M5.85 2.85Q4.8 3.55 4.4 4.75Q3.95 5.95 4.55 7.15L2.45 6.9Q1.2 6.4 0.5 7.55Q-0.25 6.4 0.7 4Q1.85 1.3 4.3 0.5L7.35 0.4Q9.65 1 11 3.3Q9.65 2.25 8.25 2.1Q6.9 2.1 5.85 2.85" />
<linearGradient
id="LinearGradID_1336" gradientUnits="userSpaceOnUse" gradientTransform="matrix(0, 0.00311279, -0.00579834, 0, 3.7, 6.7)" spreadMethod ="pad" x1="-819.2" y1="0" x2="819.2" y2="0" >
<stop  offset="0" style="stop-color:#A1A1A1;stop-opacity:1" />
<stop  offset="1" style="stop-color:#808080;stop-opacity:1" />
</linearGradient>
<path style="fill:url(#LinearGradID_1336) " d="M2.35 7.3L4.6 7.5Q5.6 8.4 3.45 9Q1.25 9.65 0.65 7.8Q1.35 6.95 2.35 7.3" />
</g>
</svg>
