<?xml version="1.0" encoding="utf-8"?>
<svg version="1.1" id="Layer_1"
xmlns="http://www.w3.org/2000/svg"
xmlns:xlink="http://www.w3.org/1999/xlink"
width="29px" height="25px"
xml:space="preserve">
<g id="PathID_308" transform="matrix(1, 0, 0, 1, 0, 0)">
<path style="fill:#5D5B5B;fill-opacity:1" d="M23.75 8.6L22 9Q20.25 7.2 19.15 6.75Q21.75 5.15 25.45 5.75L26.15 7L26.85 8.35L23.75 8.6M16.75 17.65L15.3 16.7Q14.7 16.4 14 16.35Q14.15 13.7 15.25 11.45Q15.7 11.6 16.95 12.65L17.25 12.9L17.8 13.4Q16.85 15.3 16.75 17.65" />
<path style="fill:#808080;fill-opacity:1" d="M26 5.85Q28.3 6.4 28.5 8.7L26.85 8.35L26.15 7L25.45 5.75L26 5.85M19.45 10.95Q18.45 12.05 17.8 13.4L17.25 12.9L16.95 12.65Q15.7 11.6 15.25 11.45Q15.8 10.2 16.7 9.05Q17.75 7.6 19.15 6.75Q20.25 7.2 22 9Q20.2 10.1 19.45 10.95M15.3 16.7L16.75 17.65Q16.65 19.25 16.95 21.05L14.1 19.5Q13.9 17.85 14 16.35Q14.7 16.4 15.3 16.7" />
<path style="fill:none;stroke-width:0.7;stroke-linecap:round;stroke-linejoin:round;stroke-miterlimit:3;stroke:#000000;stroke-opacity:0.4" d="M25.45 5.75Q21.75 5.15 19.15 6.75" />
<path style="fill:none;stroke-width:0.7;stroke-linecap:round;stroke-linejoin:round;stroke-miterlimit:3;stroke:#000000;stroke-opacity:0.4" d="M22 9L23.75 8.6L26.85 8.35L28.5 8.7Q28.3 6.4 26 5.85L25.45 5.75" />
<path style="fill:none;stroke-width:0.7;stroke-linecap:round;stroke-linejoin:round;stroke-miterlimit:3;stroke:#000000;stroke-opacity:0.4" d="M19.15 6.75Q17.75 7.6 16.7 9.05Q15.8 10.2 15.25 11.45" />
<path style="fill:none;stroke-width:0.7;stroke-linecap:round;stroke-linejoin:round;stroke-miterlimit:3;stroke:#000000;stroke-opacity:0.4" d="M17.8 13.4Q18.45 12.05 19.45 10.95Q20.2 10.1 22 9" />
<path style="fill:none;stroke-width:0.7;stroke-linecap:round;stroke-linejoin:round;stroke-miterlimit:3;stroke:#000000;stroke-opacity:0.4" d="M14 16.35Q13.9 17.85 14.1 19.5L16.95 21.05Q16.65 19.25 16.75 17.65" />
<path style="fill:none;stroke-width:0.7;stroke-linecap:round;stroke-linejoin:round;stroke-miterlimit:3;stroke:#000000;stroke-opacity:0.4" d="M14 16.35Q14.15 13.7 15.25 11.45" />
<path style="fill:none;stroke-width:0.7;stroke-linecap:round;stroke-linejoin:round;stroke-miterlimit:3;stroke:#000000;stroke-opacity:0.4" d="M17.8 13.4Q16.85 15.3 16.75 17.65" />
</g>
<g id="PathID_309" transform="matrix(1, 0, 0, 1, 0, 0)">
<path style="fill:#5D5B5B;fill-opacity:1" d="M25.6 22L24.55 24.35L24.3 24.7L24.15 24.7L21.95 24.5L22.05 23.9Q22.1 23.15 22.3 22.7Q22.5 22 23 21.65L25.6 22M15.45 22.65L15.5 22.6L16 21.75L16 21.65L15.75 20.75L15.45 20.1L15.65 19.55L19.3 20.85Q18.9 21.05 18.85 21.25L18.8 21.8L18.85 22.3L18.95 22.9L18.65 23.95Q16.9 23.45 15.45 22.65" />
<path style="fill:#808080;fill-opacity:1" d="M18.65 23.95L18.95 22.9L18.85 22.3L18.8 21.8L18.85 21.25Q18.9 21.05 19.3 20.85L23 21.65Q22.5 22 22.3 22.7Q22.1 23.15 22.05 23.9L21.95 24.5L18.65 23.95M27.7 22.1Q27.25 22.85 25.75 23.35Q25.7 24.5 24.3 24.7L24.55 24.35L25.6 22L27.7 22.1M15.45 22.65L13.65 21.6Q12.85 21 13.7 20.4Q12.45 18.8 13.4 18.3L15.65 19.55L15.45 20.1L15.75 20.75L16 21.65L16 21.75L15.5 22.6L15.45 22.65" />
<path style="fill:none;stroke-width:0.7;stroke-linecap:round;stroke-linejoin:round;stroke-miterlimit:3;stroke:#000000;stroke-opacity:0.4" d="M21.95 24.5L24.15 24.7L24.3 24.7" />
<path style="fill:none;stroke-width:0.7;stroke-linecap:round;stroke-linejoin:round;stroke-miterlimit:3;stroke:#000000;stroke-opacity:0.4" d="M25.6 22L23 21.65L19.3 20.85" />
<path style="fill:none;stroke-width:0.7;stroke-linecap:round;stroke-linejoin:round;stroke-miterlimit:3;stroke:#000000;stroke-opacity:0.4" d="M18.65 23.95L21.95 24.5" />
<path style="fill:none;stroke-width:0.7;stroke-linecap:round;stroke-linejoin:round;stroke-miterlimit:3;stroke:#000000;stroke-opacity:0.4" d="M24.3 24.7Q25.7 24.5 25.75 23.35Q27.25 22.85 27.7 22.1L25.6 22" />
<path style="fill:none;stroke-width:0.7;stroke-linecap:round;stroke-linejoin:round;stroke-miterlimit:3;stroke:#000000;stroke-opacity:0.4" d="M15.45 22.65L13.65 21.6Q12.85 21 13.7 20.4Q12.45 18.8 13.4 18.3L15.65 19.55L19.3 20.85" />
<path style="fill:none;stroke-width:0.7;stroke-linecap:round;stroke-linejoin:round;stroke-miterlimit:3;stroke:#000000;stroke-opacity:0.4" d="M15.45 22.65Q16.9 23.45 18.65 23.95" />
</g>
<g id="PathID_310" transform="matrix(1, 0, 0, 1, 0, 0)">
<path style="fill:#5D5B5B;fill-opacity:1" d="M9.2 16.9Q10.5 16.9 12.45 16.1L14.25 16.25Q12.4 17.6 10.1 17.9L9.2 16.9Q7.1 16.65 6.1 16.1Q5.9 17 6.1 17.5Q4.15 16.85 2.6 15.3L1.95 14.6L2.65 14.45Q3.55 15.15 4.35 15.5L6.1 16.1Q6.55 14.05 9.15 10Q5.8 13.6 2.65 14.45Q1.4 13.65 0.75 12.6Q0.15 11.3 0.05 9.8Q1.5 10.5 9.15 10Q8.5 6.25 8.5 2.55Q8.5 0.85 9.8 0.05Q12.6 0.25 14.7 2.05Q13.3 2.3 12.85 3.65L9.15 10L15.05 8.65Q16.95 8.3 17.65 6.45L17.95 8.15L17.95 8.95L17.9 10.3Q16.55 11.55 15.2 10.95L9.15 10M2.6 2.6L4.35 1.25Q3.85 2.75 5.15 4.1L9.15 10Q8.1 13.75 9.2 16.9Q14.3 14.45 16.8 13.4L2.55 6.95Q0.95 6.65 0.85 5.15Q1.45 3.75 2.6 2.6M16.8 13.4L16.6 13.75L14.25 15.25L12.45 16.1L11.95 15.45L9.15 10" />
<path style="fill:#808080;fill-opacity:1" d="M15.3 2.6Q17 4.3 17.65 6.45Q16.95 8.3 15.05 8.65L9.15 10L11.95 15.45Q6.55 14.05 6.1 16.1L15.2 10.95L5.15 4.1Q1.5 10.5 0.05 9.8L12.85 3.65Q13.3 2.3 14.7 2.05L15.3 2.6M5.15 4.1Q3.85 2.75 4.35 1.25Q6.4 0 8.95 0L9.8 0.05Q8.5 0.85 8.5 2.55Q8.5 6.25 9.15 10M0.05 9.8L0 8.95Q0 6.85 0.85 5.15Q0.95 6.65 2.55 6.95L9.15 10M15.2 10.95Q16.55 11.55 17.9 10.3Q17.65 11.95 16.8 13.4Q14.3 14.45 9.15 10M6.1 16.1L4.35 15.5Q3.55 15.15 2.65 14.45Q5.8 13.6 9.15 10M11.95 15.45L12.45 16.1Q10.5 16.9 9.2 16.9Q8.1 13.75 9.15 10" />
<path style="fill:#3A3636;fill-opacity:1" d="M12.45 16.1L14.25 15.25L16.6 13.75L15.3 15.3L14.6 15.95L14.25 16.25L12.45 16.1M6.1 16.1Q7.1 16.65 9.2 16.9L10.1 17.9L8.95 17.95L6.1 17.5Q5.9 17 6.1 16.1M2.65 14.45L1.95 14.6L0.75 12.6Q1.4 13.65 2.65 14.45" />
<path style="fill:none;stroke-width:0.7;stroke-linecap:round;stroke-linejoin:round;stroke-miterlimit:3;stroke:#000000;stroke-opacity:0.4" d="M17.65 6.45Q17 4.3 15.3 2.6L14.7 2.05Q12.6 0.25 9.8 0.05" />
<path style="fill:none;stroke-width:0.7;stroke-linecap:round;stroke-linejoin:round;stroke-miterlimit:3;stroke:#000000;stroke-opacity:0.4" d="M0.85 5.15Q0 6.85 0 8.95L0.05 9.8" />
<path style="fill:none;stroke-width:0.7;stroke-linecap:round;stroke-linejoin:round;stroke-miterlimit:3;stroke:#000000;stroke-opacity:0.4" d="M4.35 1.25L2.6 2.6Q1.45 3.75 0.85 5.15" />
<path style="fill:none;stroke-width:0.7;stroke-linecap:round;stroke-linejoin:round;stroke-miterlimit:3;stroke:#000000;stroke-opacity:0.4" d="M17.65 6.45L17.95 8.15" />
<path style="fill:none;stroke-width:0.7;stroke-linecap:round;stroke-linejoin:round;stroke-miterlimit:3;stroke:#000000;stroke-opacity:0.4" d="M14.6 15.95L14.25 16.25Q12.4 17.6 10.1 17.9L8.95 17.95L6.1 17.5Q4.15 16.85 2.6 15.3L1.95 14.6L0.75 12.6Q0.15 11.3 0.05 9.8" />
<path style="fill:none;stroke-width:0.7;stroke-linecap:round;stroke-linejoin:round;stroke-miterlimit:3;stroke:#000000;stroke-opacity:0.4" d="M4.35 1.25Q6.4 0 8.95 0L9.8 0.05" />
</g>
</svg>
