<?xml version="1.0" encoding="utf-8"?>
<svg version="1.1" id="Layer_1"
xmlns="http://www.w3.org/2000/svg"
xmlns:xlink="http://www.w3.org/1999/xlink"
width="23px" height="21px"
xml:space="preserve">
<g id="PathID_4157" transform="matrix(1, 0, 0, 1, -3.9, -7.05)">
<path style="fill:#E7C161;fill-opacity:1" d="M9.85 20.35L10.5 20.15L10.15 25.25L12.75 18.8L13.05 19.55L13.3 19.85L13.45 20.05L13.55 20.05L13.55 20L13.55 19.55L13.6 19.05L15.3 19.3L15.3 19.25L15.2 19.15L15 18.9L14.8 18.75L14.8 18.6L16.8 18.2L15.85 17.8L20 16.95L20.25 16.65L24.05 15.25Q20.75 17 18.85 18.8L20.65 19.65L20.3 20L18.45 19.4L18.25 20.9L17.45 19.65L16.3 21.8L16.55 19.7Q15.15 20.15 14.9 21.25L14.5 20.75Q14.15 23.6 14.45 25.9L13.65 21.05L13.65 20.65L12.95 25.45Q13.2 23.6 12.85 20.95Q10.95 23.75 10.2 27.45L10.55 24.7L9.75 25.85L9.3 23.1L8.3 25.2L7.3 26.1Q8.35 24 8.9 21.3L9.85 20.35M6.45 23.55L4 25.8L8.8 17.25L9.8 17.2L6.45 23.55M14 14.3L20.55 8.25L16.6 13.4L16.7 13.05L13.15 15.8L14 14.3M15.85 14.8L22.75 7.75L20.5 11.5L24.4 7.15L25.5 7.95L21.5 12.45L19.95 14.1L26.05 9.9Q22.8 12.6 20.4 15.85L17.5 16.35L18.95 15.25Q24.15 12.3 19.95 14.1L21.5 12.45L18.1 14.9L18.95 13.9L18.35 14.3L19 13.05L18.6 13L15.5 16.45L15.6 15.8L15.75 15.1L15.85 14.8M13.65 20.65L13.65 21.05" />
<path style="fill:#BB8E1E;fill-opacity:1" d="M15.75 15.1L15.6 15.8L15.5 16.45L18.6 13L19 13.05L18.35 14.3L18.95 13.9L18.1 14.9L19.95 14.1Q24.15 12.3 18.95 15.25L17.5 16.35L20.4 15.85L19.65 16.8L20.25 16.65L20 16.95L15.85 17.8L16.8 18.2L14.8 18.6L14.8 18.75L15 18.9L15.2 19.15L15.3 19.25L15.3 19.3L13.6 19.05L13.55 19.55L13.55 20L13.55 20.05L13.45 20.05L13.3 19.85L13.05 19.55L12.75 18.8L10.15 25.25L10.5 20.15L9.85 20.35L8.9 21.3L6.45 23.55L9.8 17.2L8.8 17.25L13.2 13.1L13.15 15.05L14 14.3L13.15 15.8L16.7 13.05L16.6 13.4L13.35 16.95L15.85 14.8L15.75 15.1" />
<path style="fill:none;stroke-width:0.7;stroke-linecap:round;stroke-linejoin:round;stroke-miterlimit:3;stroke:#000000;stroke-opacity:0.301961" d="M20.25 16.65L24.05 15.25Q20.75 17 18.85 18.8L20.65 19.65L20.3 20L18.45 19.4L18.25 20.9L17.45 19.65L16.3 21.8L16.55 19.7Q15.15 20.15 14.9 21.25L14.5 20.75Q14.15 23.6 14.45 25.9L13.65 21.05L12.95 25.45Q13.2 23.6 12.85 20.95Q10.95 23.75 10.2 27.45L10.55 24.7L9.75 25.85L9.3 23.1L8.3 25.2L7.3 26.1Q8.35 24 8.9 21.3L6.45 23.55L4 25.8L8.8 17.25L13.2 13.1L13.15 15.05L14 14.3L20.55 8.25L16.6 13.4L13.35 16.95L15.85 14.8L22.75 7.75L20.5 11.5L24.4 7.15L25.5 7.95L21.5 12.45L26.05 9.9Q22.8 12.6 20.4 15.85L19.65 16.8L20.25 16.65z" />
<path style="fill:none;stroke-width:0.7;stroke-linecap:round;stroke-linejoin:round;stroke-miterlimit:3;stroke:#000000;stroke-opacity:0.301961" d="M13.65 20.65L13.65 21.05" />
<path style="fill:none;stroke-width:0.7;stroke-linecap:round;stroke-linejoin:round;stroke-miterlimit:3;stroke:#000000;stroke-opacity:0.301961" d="M21.5 12.45L19.95 14.1" />
</g>
</svg>
