<?xml version="1.0" encoding="utf-8"?>
<svg version="1.1" id="Layer_1"
xmlns="http://www.w3.org/2000/svg"
xmlns:xlink="http://www.w3.org/1999/xlink"
width="24px" height="16px"
xml:space="preserve">
<g id="PathID_2388" transform="matrix(1, 0, 0, 1, 0.15, 0.15)">
<path style="fill:#A1A1A1;fill-opacity:1" d="M20.15 13.45L17.05 13.8L15.25 13.45L16.05 13.15L17.05 12.6Q16.2 12.05 15.9 12.1L17.3 11.7L18.25 11.25L17.8 11.85Q17.3 12.2 17.55 12.6Q17.8 13 18.55 13.1L20.75 13L22.95 12.2Q22.05 13.05 20.15 13.45M12.85 0.25Q14.3 -0.4 16.05 0.75Q18 2.8 18.1 6.55L18 6.75Q18 4.95 16.35 2.75Q14.7 0.3 12.1 1.2L8.7 2.25L12.85 0.25" />
<path style="fill:#808080;fill-opacity:1" d="M19.05 10.35L19.15 9.6L19.5 9.6Q22.2 10 23.25 11.55L23.3 11.9L22.95 12.2L20.75 13L18.55 13.1Q17.8 13 17.55 12.6Q17.3 12.2 17.8 11.85L18.25 11.25L17.3 11.7L19.05 10.35M18.1 6.55L18 8.75L17.55 7.3L17 8.35Q16.2 9.35 14.9 9.1Q13.3 8.7 13.2 7.1Q13.1 5.45 14.3 4.85L16.35 4.7Q17.45 5.3 17.5 6.25L18 6.75L18.1 6.55" />
<path style="fill:#4F4943;fill-opacity:1" d="M18.4 14.65L9.45 14.35L5.5 13.1L3.95 12.3Q5.85 11.45 7.35 11.4L11.35 12Q17.65 12.35 18.85 9.5L19.15 9.6L19.05 10.35L17.3 11.7L15.9 12.1Q16.2 12.05 17.05 12.6L16.05 13.15L15.25 13.45L17.05 13.8L20.15 13.45Q22.05 13.05 22.95 12.2L23.3 11.9Q24.3 13.9 18.4 14.65M18.85 9.5Q17.65 12.35 11.35 12L7.35 11.4Q5.85 11.45 3.95 12.3Q1.85 11.55 0 9.85Q4.85 8.75 1.5 7.75Q4.4 6.35 2.1 6.55L0.5 6.5L2.65 5.15L2.3 4.65L1.3 3.6Q4.6 4.1 6.65 3.2L8.7 2.25L12.1 1.2Q14.7 0.3 16.35 2.75Q18 4.95 18 6.75L17.5 6.25Q17.45 5.3 16.35 4.7L14.3 4.85Q13.1 5.45 13.2 7.1Q13.3 8.7 14.9 9.1Q16.2 9.35 17 8.35L17.55 7.3L18 8.75Q18.9 8.75 18.85 9.5" />
<path style="fill:none;stroke-width:0.7;stroke-linecap:round;stroke-linejoin:round;stroke-miterlimit:3;stroke:#000000;stroke-opacity:0.301961" d="M23.3 11.9L23.25 11.55Q22.2 10 19.5 9.6L19.15 9.6" />
<path style="fill:none;stroke-width:0.7;stroke-linecap:round;stroke-linejoin:round;stroke-miterlimit:3;stroke:#000000;stroke-opacity:0.301961" d="M8.7 2.25L6.65 3.2Q4.6 4.1 1.3 3.6L2.3 4.65L2.65 5.15L0.5 6.5L2.1 6.55Q4.4 6.35 1.5 7.75Q4.85 8.75 0 9.85Q1.85 11.55 3.95 12.3Q5.85 11.45 7.35 11.4L11.35 12Q17.65 12.35 18.85 9.5Q18.9 8.75 18 8.75L18.1 6.55" />
<path style="fill:none;stroke-width:0.7;stroke-linecap:round;stroke-linejoin:round;stroke-miterlimit:3;stroke:#000000;stroke-opacity:0.301961" d="M19.15 9.6L18.85 9.5" />
<path style="fill:none;stroke-width:0.7;stroke-linecap:round;stroke-linejoin:round;stroke-miterlimit:3;stroke:#000000;stroke-opacity:0.301961" d="M18.1 6.55Q18 2.8 16.05 0.75Q14.3 -0.4 12.85 0.25L8.7 2.25" />
<path style="fill:none;stroke-width:0.7;stroke-linecap:round;stroke-linejoin:round;stroke-miterlimit:3;stroke:#000000;stroke-opacity:0.301961" d="M3.95 12.3L5.5 13.1L9.45 14.35L18.4 14.65Q24.3 13.9 23.3 11.9" />
</g>
</svg>
