<?xml version="1.0" encoding="utf-8"?>
<svg version="1.1" id="Layer_1"
xmlns="http://www.w3.org/2000/svg"
xmlns:xlink="http://www.w3.org/1999/xlink"
width="24px" height="13px"
xml:space="preserve">
<g id="PathID_2051" transform="matrix(1, 0, 0, 1, 12, 6.35)">
<path style="fill:#474747;fill-opacity:1" d="M8.35 -2.8Q9.45 -4.45 9.25 -6.25Q10.1 -5.9 9.4 -3.3L11.1 -2.55L8.35 -2.8M-8.6 5.25L-7.7 3.95L7.7 -1.85Q9.25 0.05 11.2 -0.25Q9.85 0.65 7.05 -1.1L-7.4 4.1Q-7.7 6.05 -8.65 6.3Q-9.6 6.6 -9.75 4.5Q-9.5 5.85 -8.6 5.25M-9.75 3.9L-11.45 3.65Q-10.6 3.7 -9.95 2.9L-9.75 3.9" />
<path style="fill:#808080;fill-opacity:1" d="M-9.95 2.9Q-10.6 3.7 -11.45 3.65Q-12.3 3.35 -11.85 2.7Q-11.2 1.7 -8.6 2.7L6.9 -3.25Q6.35 -5.9 8.4 -6.3L9.25 -6.25Q9.45 -4.45 8.35 -2.8L11.1 -2.55Q12.5 -1.75 11.65 -0.65L11.2 -0.25Q9.25 0.05 7.7 -1.85L-7.7 3.95L-8.6 5.25Q-9.5 5.85 -9.75 4.5L-9.75 4.2L-9.75 3.9L-9.95 2.9" />
<path style="fill:none;stroke-width:0.7;stroke-linecap:round;stroke-linejoin:round;stroke-miterlimit:3;stroke:#000000;stroke-opacity:0.4" d="M9.25 -6.25Q10.1 -5.9 9.4 -3.3L11.1 -2.55Q12.5 -1.75 11.65 -0.65L11.2 -0.25Q9.85 0.65 7.05 -1.1L-7.4 4.1Q-7.7 6.05 -8.65 6.3Q-9.6 6.6 -9.75 4.5L-9.75 4.2L-9.75 3.9L-11.45 3.65Q-12.3 3.35 -11.85 2.7Q-11.2 1.7 -8.6 2.7L6.9 -3.25Q6.35 -5.9 8.4 -6.3L9.25 -6.25z" />
</g>
</svg>
