<?xml version="1.0" encoding="utf-8"?>
<svg version="1.1" id="Layer_1"
xmlns="http://www.w3.org/2000/svg"
xmlns:xlink="http://www.w3.org/1999/xlink"
width="13px" height="17px"
xml:space="preserve">
<g id="PathID_1341" transform="matrix(1, 0, 0, 1, 0.15, 0.15)">
<path style="fill:#4F4943;fill-opacity:1" d="M11.35 7.65L10.5 7.8Q8.85 5.1 4.2 4.6L3.9 3.75L4.2 4.6L4.75 5.45Q2.2 3.45 1 3.85Q0.55 2.65 0.7 1.45Q0.85 -1.25 5.35 1.15Q8.45 1.8 10.75 4.2Q10.45 5.85 11.35 7.65L12.5 9Q8.25 9.65 4.65 11.25L3.85 10.25Q6.95 9.25 10.05 8.95Q10.65 8.2 9.95 7.85L10.5 7.8L11.35 7.65M10.8 10.3Q7.4 12.95 4.95 16.25Q0.7 16.2 0 13.6Q1.05 14.85 6 13.05L10.8 10.3" />
<path style="fill:#808080;fill-opacity:1" d="M6 13.05Q1.05 14.85 0 13.6Q0.85 12.4 4.65 11.25Q8.25 9.65 12.5 9L10.8 10.3L6 13.05M10.05 8.95Q6.95 9.25 3.85 10.25Q2.85 8.75 3 7.35Q1.5 5.6 1 3.85Q2.2 3.45 4.75 5.45Q5.65 6.65 7.5 7.4L9.95 7.85Q10.65 8.2 10.05 8.95" />
<path style="fill:#332F2B;fill-opacity:1" d="M10.5 7.8L9.95 7.85L7.5 7.4Q5.65 6.65 4.75 5.45L4.2 4.6Q8.85 5.1 10.5 7.8" />
<path style="fill:none;stroke-width:0.7;stroke-linecap:round;stroke-linejoin:round;stroke-miterlimit:3;stroke:#000000;stroke-opacity:0.4" d="M1 3.85Q0.55 2.65 0.7 1.45Q0.85 -1.25 5.35 1.15Q8.45 1.8 10.75 4.2Q10.45 5.85 11.35 7.65L12.5 9L10.8 10.3Q7.4 12.95 4.95 16.25Q0.7 16.2 0 13.6Q0.85 12.4 4.65 11.25L3.85 10.25Q2.85 8.75 3 7.35Q1.5 5.6 1 3.85z" />
<path style="fill:none;stroke-width:0.7;stroke-linecap:round;stroke-linejoin:round;stroke-miterlimit:3;stroke:#000000;stroke-opacity:0.4" d="M4.75 5.45L4.2 4.6L3.9 3.75" />
<path style="fill:none;stroke-width:0.7;stroke-linecap:round;stroke-linejoin:round;stroke-miterlimit:3;stroke:#000000;stroke-opacity:0.4" d="M10.5 7.8L11.35 7.65" />
<path style="fill:none;stroke-width:0.7;stroke-linecap:round;stroke-linejoin:round;stroke-miterlimit:3;stroke:#000000;stroke-opacity:0.4" d="M4.75 5.45Q5.65 6.65 7.5 7.4L9.95 7.85L10.5 7.8Q8.85 5.1 4.2 4.6" />
<path style="fill:none;stroke-width:0.7;stroke-linecap:round;stroke-linejoin:round;stroke-miterlimit:3;stroke:#000000;stroke-opacity:0.4" d="M4.65 11.25Q8.25 9.65 12.5 9" />
</g>
</svg>
