<?xml version="1.0" encoding="utf-8"?>
<svg version="1.1" id="Layer_1"
xmlns="http://www.w3.org/2000/svg"
xmlns:xlink="http://www.w3.org/1999/xlink"
width="19px" height="19px"
xml:space="preserve">
<g id="PathID_2623" transform="matrix(1, 0, 0, 1, 0, 0)">
<path style="fill:#808080;fill-opacity:1" d="M14.5 2L16.05 0Q17.65 1.95 18.55 4.65L16.9 6L16.55 6.3Q16.05 3.65 14.5 2M14.6 7.5Q13.2 8.25 12.1 8.3Q11.7 6.75 11.05 5.85L12.8 3.95Q14.15 5.2 14.6 7.5" />
<path style="fill:#4F4943;fill-opacity:1" d="M18.85 5.7L16.7 7.95L16.55 6.3L16.9 6L18.55 4.65L18.85 5.7M12.1 8.3Q13.2 8.25 14.6 7.5L14.85 9.7L12.6 11.7L12.1 8.3M6.35 10.25L8.9 8Q9.95 9.7 10.15 13.65L7.1 15.85Q7.15 12.05 6.35 10.25M3.65 18.05L2.6 18.65Q0.7 19.5 0 17.3Q-0.1 14.35 1.45 13.85L3.55 12.45Q4.2 14.55 3.65 18.05" />
<path style="fill:none;stroke-width:0.7;stroke-linecap:round;stroke-linejoin:round;stroke-miterlimit:3;stroke:#000000;stroke-opacity:0.4" d="M16.05 0L14.5 2" />
<path style="fill:none;stroke-width:0.7;stroke-linecap:round;stroke-linejoin:round;stroke-miterlimit:3;stroke:#000000;stroke-opacity:0.4" d="M16.7 7.95L18.85 5.7" />
<path style="fill:none;stroke-width:0.7;stroke-linecap:round;stroke-linejoin:round;stroke-miterlimit:3;stroke:#000000;stroke-opacity:0.4" d="M12.8 3.95L11.05 5.85" />
<path style="fill:none;stroke-width:0.7;stroke-linecap:round;stroke-linejoin:round;stroke-miterlimit:3;stroke:#000000;stroke-opacity:0.4" d="M14.85 9.7L12.6 11.7" />
<path style="fill:none;stroke-width:0.7;stroke-linecap:round;stroke-linejoin:round;stroke-miterlimit:3;stroke:#000000;stroke-opacity:0.4" d="M6.35 10.25L8.9 8" />
<path style="fill:none;stroke-width:0.7;stroke-linecap:round;stroke-linejoin:round;stroke-miterlimit:3;stroke:#000000;stroke-opacity:0.4" d="M10.15 13.65L7.1 15.85" />
<path style="fill:none;stroke-width:0.7;stroke-linecap:round;stroke-linejoin:round;stroke-miterlimit:3;stroke:#000000;stroke-opacity:0.4" d="M3.65 18.05L2.6 18.65Q0.7 19.5 0 17.3Q-0.1 14.35 1.45 13.85L3.55 12.45" />
</g>
</svg>
