<?xml version="1.0" encoding="utf-8"?>
<svg version="1.1" id="Layer_1"
xmlns="http://www.w3.org/2000/svg"
xmlns:xlink="http://www.w3.org/1999/xlink"
width="17px" height="20px"
xml:space="preserve">
<g id="PathID_2392" transform="matrix(1, 0, 0, 1, 0.05, 0.05)">
<path style="fill:#808080;fill-opacity:1" d="M10.45 5.95L9.9 4.55L11.1 3.9L12.3 9.8Q13.2 13.6 15.2 14.1L15.5 14.7Q15.65 15 14.9 15.25L11.5 15.7Q8.85 15.9 0 18.65Q-0.05 17.8 0.2 17.25L5.95 16.05Q7.95 15.55 10.15 14Q12.3 12.45 10.45 5.95" />
<path style="fill:#B1B1B1;fill-opacity:1" d="M10.15 14Q7.95 15.55 5.95 16.05L0.2 17.25Q0.4 16.65 0.85 16.35Q5.75 15.65 7.2 15Q8.6 14.3 9.85 13.05Q11.05 11.75 10.45 5.95Q12.3 12.45 10.15 14" />
<path style="fill:#625B53;fill-opacity:1" d="M11.5 15.7L14.9 15.25Q15.65 15 15.5 14.7L15.2 14.1L15.85 14.3Q16.4 14.7 16.65 15.8Q10.8 15.15 0 19.55L0 18.65Q8.85 15.9 11.5 15.7" />
<path style="fill:none;stroke-width:0.7;stroke-linecap:round;stroke-linejoin:round;stroke-miterlimit:3;stroke:#303030;stroke-opacity:0.4" d="M11.1 3.9L12.3 9.8Q13.2 13.6 15.2 14.1L15.85 14.3Q16.4 14.7 16.65 15.8Q10.8 15.15 0 19.55L0 18.65Q-0.05 17.8 0.2 17.25Q0.4 16.65 0.85 16.35Q5.75 15.65 7.2 15Q8.6 14.3 9.85 13.05Q11.05 11.75 10.45 5.95L9.9 4.55" />
</g>
<g id="PathID_2393" transform="matrix(1, 0, 0, 1, 0.05, 0.05)">
<path style="fill:#B1B1B1;fill-opacity:1" d="M11.2 4.5L10.9 4.65L9.75 4.65L8.9 4.2Q8.25 3.6 8.05 2.6Q7.85 1.6 8.35 0.85Q8.9 0.15 9.7 0.05L10.8 0.15L9.65 0.5Q8.9 0.85 8.95 2.1Q9 3.35 9.55 3.95Q10.1 4.55 11.2 4.5" />
<path style="fill:#808080;fill-opacity:1" d="M9.55 3.95Q9 3.35 8.95 2.1Q8.9 0.85 9.65 0.5L10.8 0.15L11.3 0.35L11.4 0.5Q12.1 1.7 11.85 3.5L11.65 4.15L11.2 4.5Q10.1 4.55 9.55 3.95" />
<path style="fill:none;stroke-width:0.7;stroke-linecap:round;stroke-linejoin:round;stroke-miterlimit:3;stroke:#303030;stroke-opacity:0.4" d="M10.8 0.15L11.3 0.35L11.4 0.5Q12.1 1.7 11.85 3.5L11.65 4.15L11.2 4.5L10.9 4.65" />
<path style="fill:none;stroke-width:0.7;stroke-linecap:round;stroke-linejoin:round;stroke-miterlimit:3;stroke:#303030;stroke-opacity:0.4" d="M9.75 4.65L8.9 4.2Q8.25 3.6 8.05 2.6Q7.85 1.6 8.35 0.85Q8.9 0.15 9.7 0.05L10.8 0.15" />
</g>
</svg>
