<?xml version="1.0" encoding="utf-8"?>
<svg version="1.1" id="Layer_1"
xmlns="http://www.w3.org/2000/svg"
xmlns:xlink="http://www.w3.org/1999/xlink"
width="32px" height="26px"
xml:space="preserve">
<g id="PathID_1948" transform="matrix(1, 0, 0, 1, 14.3, 21.05)">
<path style="fill:none;stroke-width:0.7;stroke-linecap:round;stroke-linejoin:round;stroke-miterlimit:3;stroke:#000000;stroke-opacity:0.4" d="M11.3 -12.5L11.75 -12.5L12.65 -12.3L13.65 -11.75Q14.35 -11.35 14.65 -11.35Q15.35 -11.35 15.95 -11.95L16.2 -12.25Q16.3 -11.7 15.75 -10.5L14.75 -8.8Q14.05 -7.9 13.1 -8.2Q13.9 -7.65 13.9 -6.2L15 -6.3L16.55 -6.8L16.85 -7.05Q16.25 -5 14.5 -4.5L13.35 -4.25L12.95 -4.25L12.95 -4.2L13.05 -3.1Q14.5 -2.15 16.05 -2.8Q15.25 -1.4 13.45 -1.7L11.75 -2.25L12 -1.85L12.7 -1.25Q12.25 -1.1 11.55 -1.25L10.95 -1.4Q9.55 -2.65 8.95 -4.4Q8.35 -4.4 7.5 -4.75Q6.65 -5.15 6.15 -5.7Q6.5 -4.95 7.45 -4.2Q8.05 -3.75 9 -3.25L5.4 -3.55L5.95 -2.9Q5.3 -2.9 4.4 -3.35Q3.05 -3.95 2.75 -5.05Q2.05 -4.35 0.9 -4.25L1.4 -5.55L1.35 -6.15Q-0.9 -3.5 -2.05 -3.25Q-2 -2.6 -2.45 -1.45Q-2.8 -0.65 -2 1.45Q-4.35 -0.05 -4.1 -1.9L-3.75 -4.2Q-3.65 -5.3 -4.3 -5.6Q-5.4 -6.15 -7.3 -4.15Q-7.8 -3.6 -7.9 -2.55Q-8 -1.55 -7.55 -1.25L-5.4 0.8Q-4.35 1.95 -2.75 2.65L-5.95 2.45L-6.1 3.5Q-6.5 4.6 -7.95 4.7Q-7.35 4.25 -7.3 3.65L-7.35 3.1Q-8.45 2.45 -8.75 0.7L-9.6 1.4Q-10.3 1.9 -11.25 1.8L-10.95 1.6Q-10.45 1.2 -10.45 0.5L-10.5 -1.35L-11.2 -1.05L-12.45 -0.95Q-11.55 -1.65 -11.15 -2.25L-10.85 -3Q-11.05 -3.4 -10.9 -4.35L-11.4 -4L-12.3 -3.85L-11.65 -4.55L-11.45 -4.95L-11.95 -4.9L-13.25 -4.95Q-12.3 -5.55 -12.05 -6.05Q-11.9 -7.7 -10.85 -8.55L-10.8 -8.6Q-12.65 -8.35 -14.15 -9.6L-13.85 -9.6Q-12.5 -9.65 -12.05 -10.05L-10.55 -11.4Q-11.8 -11.4 -12.5 -11.9Q-11.8 -11.85 -11.05 -12.5L-9.75 -13.5L-8.1 -13.4L-8.3 -13.8L-8.65 -14.7L-8.75 -15.65L-8.25 -16.95Q-8.1 -15.9 -7.55 -14.7L-7.05 -13.7Q-6.95 -14.9 -6.3 -15.45L-6 -14.7L-5.5 -15.7L-5.3 -16.9L-4.75 -15.8L-3.55 -16.85Q-2.65 -18.05 -2.6 -18.85Q-2.2 -18.4 -2.25 -17.4L-2.35 -16.45L-1.55 -16.9Q-0.65 -17.5 -0.25 -18.35Q0 -17.8 -0.2 -17.25Q0.45 -18.05 2.15 -17.95Q2.55 -18.3 3.35 -18.5L4.4 -18.7Q5.3 -18.9 5.95 -19.65Q5.85 -19.05 5.35 -18.4L4.9 -17.9L7.15 -18.4Q8.5 -18.95 9.45 -20.9Q9.3 -18.3 8.4 -17.1L7.1 -15.8L6.5 -15.4L7.75 -15.65Q9.2 -16.05 10.1 -16.75L9.15 -15.5L8.7 -15.15Q9.5 -15.25 10.1 -14.8L10.75 -14.25L11.4 -14.05Q13.4 -13.9 14.7 -14.65L14.95 -14.85Q14.5 -13.95 12.85 -13.15L11.3 -12.5z" />
</g>
</svg>
