<?xml version="1.0" encoding="utf-8"?>
<svg version="1.1" id="Layer_1"
xmlns="http://www.w3.org/2000/svg"
xmlns:xlink="http://www.w3.org/1999/xlink"
width="12px" height="6px"
xml:space="preserve">
<g id="PathID_1376" transform="matrix(1, 0, 0, 1, 6, 2.65)">
<linearGradient
id="LinearGradID_345" gradientUnits="userSpaceOnUse" gradientTransform="matrix(-0.00283813, -0.00320435, 0.00231934, -0.00204468, 5.6, -0.1)" spreadMethod ="pad" x1="-819.2" y1="0" x2="819.2" y2="0" >
<stop  offset="0.294118" style="stop-color:#808080;stop-opacity:0" />
<stop  offset="0.945098" style="stop-color:#808080;stop-opacity:0.847059" />
</linearGradient>
<path style="fill:url(#LinearGradID_345) " d="M1.3 -1.7L1.55 -1.95L2.95 -2.2L4.1 -2.05L4.65 -1.85L4.95 -1.75Q5.15 -0.05 5.95 0.95L5.05 0.7L4.95 0.65L4.45 0.55L3.35 0.1Q2.15 -0.4 1.65 -0.75L1.55 -0.8Q1.1 -1.35 1.3 -1.7" />
<linearGradient
id="LinearGradID_346" gradientUnits="userSpaceOnUse" gradientTransform="matrix(0.0027771, -0.000473022, 0.000183105, 0.00119019, -1.2, -0.8)" spreadMethod ="pad" x1="-819.2" y1="0" x2="819.2" y2="0" >
<stop  offset="0" style="stop-color:#808080;stop-opacity:0" />
<stop  offset="1" style="stop-color:#808080;stop-opacity:0.847059" />
</linearGradient>
<path style="fill:url(#LinearGradID_346) " d="M-4.25 -0.85L-4.4 -0.9Q-2.55 -1.8 -0.35 -1.75L1.3 -1.7Q1.1 -1.35 1.55 -0.8L-1.05 -0.35L-1.25 -0.25L-2.65 0.45L-4.25 -0.85" />
<linearGradient
id="LinearGradID_347" gradientUnits="userSpaceOnUse" gradientTransform="matrix(0.00346375, -0.000198364, 4.57764e-005, 0.000930786, -1.35, -1.9)" spreadMethod ="pad" x1="-819.2" y1="0" x2="819.2" y2="0" >
<stop  offset="0" style="stop-color:#808080;stop-opacity:0" />
<stop  offset="1" style="stop-color:#808080;stop-opacity:0.847059" />
</linearGradient>
<path style="fill:url(#LinearGradID_347) " d="M-4.4 -0.9L-4.95 -0.85L-5.6 -0.85L-6 -0.85L-5.25 -1.45L-3.7 -2.2L0.15 -2.65L2.5 -2.3L2.95 -2.2L1.55 -1.95L1.3 -1.7L-0.35 -1.75Q-2.55 -1.8 -4.4 -0.9" />
<linearGradient
id="LinearGradID_348" gradientUnits="userSpaceOnUse" gradientTransform="matrix(0.00190735, -0.00125122, 0.0010376, 0.00157166, 0.2, 0.4)" spreadMethod ="pad" x1="-819.2" y1="0" x2="819.2" y2="0" >
<stop  offset="0" style="stop-color:#808080;stop-opacity:0" />
<stop  offset="1" style="stop-color:#808080;stop-opacity:0.847059" />
</linearGradient>
<path style="fill:url(#LinearGradID_348) " d="M2.35 0.8L0.25 1.9L-0.05 1.85L-1.15 1.5L-2.65 0.45L-1.25 -0.25L-1.05 -0.35L1.55 -0.8L1.65 -0.75Q2.15 -0.4 3.35 0.1L2.35 0.8" />
<linearGradient
id="LinearGradID_349" gradientUnits="userSpaceOnUse" gradientTransform="matrix(0.000762939, -0.00138855, 0.00241089, 0.00134277, 3.05, 1.7)" spreadMethod ="pad" x1="-819.2" y1="0" x2="819.2" y2="0" >
<stop  offset="0" style="stop-color:#808080;stop-opacity:0" />
<stop  offset="1" style="stop-color:#808080;stop-opacity:0.847059" />
</linearGradient>
<path style="fill:url(#LinearGradID_349) " d="M0.25 1.9L2.35 0.8L3.35 0.1L4.45 0.55L4.95 0.65L5.05 0.7L5.95 0.95Q4.5 2.3 2.65 2.7L2.1 2.7Q1.25 2.6 0.25 1.9" />
</g>
</svg>
