<?xml version="1.0" encoding="utf-8"?>
<svg version="1.1" id="Layer_1"
xmlns="http://www.w3.org/2000/svg"
xmlns:xlink="http://www.w3.org/1999/xlink"
width="19px" height="20px"
xml:space="preserve">
<g id="PathID_2159" transform="matrix(1, 0, 0, 1, 0, 0)">
<path style="fill:#808080;fill-opacity:1" d="M18.75 7.35Q18.9 12.8 17.15 13.85L14.25 15.9L13.65 18.05Q11.6 21.4 2.8 18.1Q-1 11.5 0.4 4.55Q0.2 6.55 3.75 9.5Q6.8 12.1 9.6 12.95L12.85 13.65L14.85 13.7Q14.35 12.05 13.05 10.45Q17 2.6 15.05 0.1Q18.6 1.9 18.75 7.35" />
<path style="fill:#695D5D;fill-opacity:1" d="M0.5 3.95Q3.8 2.9 6.2 4.9Q8.8 6.45 10.7 8.05Q12.7 0.75 14.95 0L15.05 0.1Q17 2.6 13.05 10.45Q14.35 12.05 14.85 13.7L12.85 13.65L9.6 12.95Q6.8 12.1 3.75 9.5Q0.2 6.55 0.4 4.55L0.5 3.95" />
</g>
</svg>
