<?xml version="1.0" encoding="utf-8"?>
<svg version="1.1" id="Layer_1"
xmlns="http://www.w3.org/2000/svg"
xmlns:xlink="http://www.w3.org/1999/xlink"
width="22px" height="10px"
xml:space="preserve">
<g id="PathID_1218" transform="matrix(1, 0, 0, 1, 10.8, 4.85)">
<path style="fill:#808080;fill-opacity:1" d="M1.85 -0.35L2 -0.25L2.1 -0.05L1.85 0.15L1.75 0.05L1.7 -0.1L1.75 -0.3L1.85 -0.35M7.85 0.75Q7.45 -0.3 7.55 -1.65Q7.65 -3 8.15 -3.95L8.8 -4.7L9 -4.8L9.3 -4.85Q10 -4.8 10.45 -3.85Q10.85 -2.8 10.75 -1.45Q10.65 -0.1 10.15 0.85Q9.6 1.85 8.9 1.8L8.55 1.7L7.85 0.75M8.8 -2.4L8.6 -1.55L8.7 -0.6L8.8 -0.4Q8.95 -0.2 9.15 -0.2L9.6 -0.55L9.8 -1.45L9.7 -2.35L9.3 -2.75L8.9 -2.5L8.8 -2.4M-2.45 0.55L-2.6 0.6L-2.7 0.55L-2.75 0.4L-2.7 0.2L-2.6 0.15L-2.45 0.2L-2.35 0.4L-2.45 0.55" />
<path style="fill:#686868;fill-opacity:1" d="M9.2 -1.45Q9.25 -2.2 8.9 -2.5L9.3 -2.75L9.7 -2.35L9.8 -1.45L9.6 -0.55L9.15 -0.2Q8.95 -0.2 8.8 -0.4L9.2 -1.45" />
<path style="fill:#424242;fill-opacity:1" d="M8.8 -0.4L8.7 -0.6L8.6 -1.55L8.8 -2.4L8.9 -2.5Q9.25 -2.2 9.2 -1.45L8.8 -0.4" />
<linearGradient
id="LinearGradID_301" gradientUnits="userSpaceOnUse" gradientTransform="matrix(0.00222778, 0, 0, 0.00390625, 6.95, -1.5)" spreadMethod ="pad" x1="-819.2" y1="0" x2="819.2" y2="0" >
<stop  offset="0" style="stop-color:#424242;stop-opacity:1" />
<stop  offset="1" style="stop-color:#686868;stop-opacity:1" />
</linearGradient>
<path style="fill:url(#LinearGradID_301) " d="M8.55 1.7Q5.9 0.1 5.3 -1.05Q4.95 -1.8 5.45 -2.45Q6.35 -3.6 8.8 -4.7L8.15 -3.95Q7.65 -3 7.55 -1.65Q7.45 -0.3 7.85 0.75L8.55 1.7" />
<linearGradient
id="LinearGradID_302" gradientUnits="userSpaceOnUse" gradientTransform="matrix(0.00424194, 0, 0, 0.00195313, 0.4, 0.9)" spreadMethod ="pad" x1="-819.2" y1="0" x2="819.2" y2="0" >
<stop  offset="0" style="stop-color:#808080;stop-opacity:1" />
<stop  offset="1" style="stop-color:#686868;stop-opacity:1" />
</linearGradient>
<path style="fill:url(#LinearGradID_302) " d="M-3 -0.1L-1.4 -0.35L0.05 -0.5L1 -0.6L2.6 -0.65L2.8 0.75L3.25 1.5L3.85 1.6L3.9 2.1L-1.7 2.4Q-2.6 2 -2.9 1.2L-3 -0.1M1.75 -0.3L1.7 -0.1L1.75 0.05L1.85 0.15L2.1 -0.05L2 -0.25L1.85 -0.35L1.75 -0.3M-2.35 0.4L-2.45 0.2L-2.6 0.15L-2.7 0.2L-2.75 0.4L-2.7 0.55L-2.6 0.6L-2.45 0.55L-2.35 0.4" />
<linearGradient
id="LinearGradID_303" gradientUnits="userSpaceOnUse" gradientTransform="matrix(0.00120544, 0.000717163, -0.000595093, 0.00100708, -7.5, 2.35)" spreadMethod ="pad" x1="-819.2" y1="0" x2="819.2" y2="0" >
<stop  offset="0" style="stop-color:#686868;stop-opacity:1" />
<stop  offset="1" style="stop-color:#808080;stop-opacity:1" />
</linearGradient>
<path style="fill:url(#LinearGradID_303) " d="M-6.85 3.55Q-7.85 3.25 -8.55 2.8L-9.25 2.05L-9.1 1.35L-7.4 1.25Q-6.55 1.7 -5.95 2.4L-6.85 3.55" />
<linearGradient
id="LinearGradID_304" gradientUnits="userSpaceOnUse" gradientTransform="matrix(0.00253296, 0, 0, 0.00131226, -7.9, 1.3)" spreadMethod ="pad" x1="-819.2" y1="0" x2="819.2" y2="0" >
<stop  offset="0" style="stop-color:#424242;stop-opacity:1" />
<stop  offset="1" style="stop-color:#686868;stop-opacity:1" />
</linearGradient>
<path style="fill:url(#LinearGradID_304) " d="M-9.95 1.4L-8.85 0.25L-5.8 2.2L-5.95 2.4Q-6.55 1.7 -7.4 1.25L-9.1 1.35L-9.25 2.05L-9.95 1.4" />
<path style="fill:none;stroke-width:0.7;stroke-linecap:round;stroke-linejoin:round;stroke-miterlimit:3;stroke:#000000;stroke-opacity:0.2" d="M-3 -0.1L-1.4 -0.35L0.05 -0.5L1 -0.6L2.6 -0.65L2.8 0.75L3.25 1.5L3.85 1.6" />
<path style="fill:none;stroke-width:0.7;stroke-linecap:round;stroke-linejoin:round;stroke-miterlimit:3;stroke:#000000;stroke-opacity:0.301961" d="M3.9 2.1L-1.7 2.4Q-2.6 2 -2.9 1.2L-3 -0.1" />
<path style="fill:none;stroke-width:0.7;stroke-linecap:round;stroke-linejoin:round;stroke-miterlimit:3;stroke:#000000;stroke-opacity:0.298039" d="M1.85 -0.35L2 -0.25L2.1 -0.05L1.85 0.15L1.75 0.05L1.7 -0.1L1.75 -0.3L1.85 -0.35z" />
<path style="fill:none;stroke-width:0.7;stroke-linecap:round;stroke-linejoin:round;stroke-miterlimit:3;stroke:#000000;stroke-opacity:0.2" d="M8.8 -4.7L9 -4.8L9.3 -4.85Q10 -4.8 10.45 -3.85Q10.85 -2.8 10.75 -1.45Q10.65 -0.1 10.15 0.85Q9.6 1.85 8.9 1.8L8.55 1.7Q5.9 0.1 5.3 -1.05Q4.95 -1.8 5.45 -2.45Q6.35 -3.6 8.8 -4.7L8.15 -3.95Q7.65 -3 7.55 -1.65Q7.45 -0.3 7.85 0.75L8.55 1.7" />
<path style="fill:none;stroke-width:0.7;stroke-linecap:round;stroke-linejoin:round;stroke-miterlimit:3;stroke:#000000;stroke-opacity:0.101961" d="M8.9 -2.5L9.3 -2.75L9.7 -2.35L9.8 -1.45L9.6 -0.55L9.15 -0.2Q8.95 -0.2 8.8 -0.4L8.7 -0.6L8.6 -1.55L8.8 -2.4L8.9 -2.5Q9.25 -2.2 9.2 -1.45L8.8 -0.4" />
<path style="fill:none;stroke-width:0.7;stroke-linecap:round;stroke-linejoin:round;stroke-miterlimit:3;stroke:#000000;stroke-opacity:0.298039" d="M-2.45 0.55L-2.6 0.6L-2.7 0.55L-2.75 0.4L-2.7 0.2L-2.6 0.15L-2.45 0.2L-2.35 0.4L-2.45 0.55z" />
<path style="fill:none;stroke-width:0.7;stroke-linecap:round;stroke-linejoin:round;stroke-miterlimit:3;stroke:#000000;stroke-opacity:0.101961" d="M-9.25 2.05L-9.1 1.35L-7.4 1.25Q-6.55 1.7 -5.95 2.4" />
<path style="fill:none;stroke-width:0.7;stroke-linecap:round;stroke-linejoin:round;stroke-miterlimit:3;stroke:#000000;stroke-opacity:0.298039" d="M-5.95 2.4L-5.8 2.2L-8.85 0.25L-9.95 1.4" />
<path style="fill:none;stroke-width:0.7;stroke-linecap:round;stroke-linejoin:round;stroke-miterlimit:3;stroke:#000000;stroke-opacity:0.101961" d="M-9.25 2.05L-8.55 2.8Q-7.85 3.25 -6.85 3.55" />
<path style="fill:none;stroke-width:0.7;stroke-linecap:round;stroke-linejoin:round;stroke-miterlimit:3;stroke:#000000;stroke-opacity:0.298039" d="M-6.85 3.55L-5.95 2.4" />
<path style="fill:none;stroke-width:0.7;stroke-linecap:round;stroke-linejoin:round;stroke-miterlimit:3;stroke:#000000;stroke-opacity:0.298039" d="M-6.85 3.55L-6.5 4.3L-7.1 4.9L-10.7 2.9Q-10.9 2.75 -10.7 2.25L-9.95 1.4" />
</g>
</svg>
