<?xml version="1.0" encoding="utf-8"?>
<svg version="1.1" id="Layer_1"
xmlns="http://www.w3.org/2000/svg"
xmlns:xlink="http://www.w3.org/1999/xlink"
width="9px" height="16px"
xml:space="preserve">
<g id="PathID_202" transform="matrix(1, 0, 0, 1, 0, 0)">
<path style="fill:#625653;fill-opacity:1" d="M6.75 3.45L5.75 5.1L4.05 4.45L5.45 2.4Q5.8 3.15 6.75 3.45" />
<path style="fill:#808080;fill-opacity:1" d="M5.45 2.4Q7.3 -0.15 8.25 0Q9.05 1 8.9 2.5Q7.75 2.05 6.75 3.45Q5.8 3.15 5.45 2.4" />
</g>
<g id="PathID_203" transform="matrix(1, 0, 0, 1, 0, 0)">
<path style="fill:#625653;fill-opacity:1" d="M5.7 11.2L5.5 9.45L6.5 7.2L7.35 10.55Q6.6 10.6 5.7 11.2" />
<path style="fill:#808080;fill-opacity:1" d="M7.35 10.55Q7.75 12.95 7.55 15.35L6.3 13.8L5.45 14.9L5.7 11.2Q6.6 10.6 7.35 10.55" />
</g>
<g id="PathID_204" transform="matrix(1, 0, 0, 1, 0, 0)">
<path style="fill:#625653;fill-opacity:1" d="M4.85 9.5L4.05 8.8L5.5 7.45L6.15 7.7L4.9 9.55L4.85 9.5" />
<path style="fill:#808080;fill-opacity:1" d="M4.9 9.55Q3.15 11.75 1 13.2L1.25 11.45L0 11Q1.75 10.8 4.05 8.8L4.85 9.5L4.9 9.55" />
</g>
</svg>
