<?xml version="1.0" encoding="utf-8"?>
<svg version="1.1" id="Layer_1"
xmlns="http://www.w3.org/2000/svg"
xmlns:xlink="http://www.w3.org/1999/xlink"
width="10px" height="9px"
xml:space="preserve">
<g id="PathID_1291" transform="matrix(1, 0, 0, 1, 0.1, 0.1)">
<path style="fill:#585552;fill-opacity:1" d="M5.4 4.15Q6.15 4.6 6.75 5.75L6.65 5.65L5.8 5.45L5.3 4.2L5.4 4.15M4.8 5.25L4.5 4.2L4.95 4.2L5.3 5.3L4.8 5.25M3.05 5.05L2.45 5.05L2.4 5.05L3.35 4.15L3.05 5.05M4.2 5.1L3.65 5.05L4 4.1L4.45 4.1L4.5 4.2L4.2 5.1" />
<path style="fill:#808080;fill-opacity:1" d="M7.7 8.1L6.75 8.35L6.6 7.5L5.8 5.45L6.65 5.65L6.75 5.75L7.7 8.1M4.95 8.75Q5.1 6.6 4.8 5.25L5.3 5.3L5.75 6.5L6.05 8.55L4.95 8.75M2.45 5.05L3.05 5.05L2.9 5.3L1.85 7.55L0.2 7.75L1.45 5.95L2.4 5.05L2.45 5.05M3.4 8.1Q3.2 7.75 2.45 7.6L2.75 6.95L3.65 5.05L4.2 5.1L3.4 8.1" />
<path style="fill:none;stroke-width:0.7;stroke-linecap:round;stroke-linejoin:round;stroke-miterlimit:3;stroke:#000000;stroke-opacity:0.301961" d="M6.75 5.75Q6.15 4.6 5.4 4.15L5.3 4.2L4.95 4.2" />
<path style="fill:none;stroke-width:0.7;stroke-linecap:round;stroke-linejoin:round;stroke-miterlimit:3;stroke:#000000;stroke-opacity:0.301961" d="M6.05 8.55L6.75 8.35" />
<path style="fill:none;stroke-width:0.7;stroke-linecap:round;stroke-linejoin:round;stroke-miterlimit:3;stroke:#000000;stroke-opacity:0.301961" d="M6.75 8.35L7.7 8.1L6.75 5.75" />
<path style="fill:none;stroke-width:0.7;stroke-linecap:round;stroke-linejoin:round;stroke-miterlimit:3;stroke:#000000;stroke-opacity:0.301961" d="M2.4 5.05L1.45 5.95L0.2 7.75L1.85 7.55" />
<path style="fill:none;stroke-width:0.7;stroke-linecap:round;stroke-linejoin:round;stroke-miterlimit:3;stroke:#000000;stroke-opacity:0.301961" d="M2.4 5.05L3.35 4.15L3.45 4.1L4 4.1L4.45 4.1L4.5 4.2L4.95 4.2" />
<path style="fill:none;stroke-width:0.7;stroke-linecap:round;stroke-linejoin:round;stroke-miterlimit:3;stroke:#000000;stroke-opacity:0.301961" d="M4.2 5.1L4.5 4.2L4.8 5.25" />
<path style="fill:none;stroke-width:0.7;stroke-linecap:round;stroke-linejoin:round;stroke-miterlimit:3;stroke:#000000;stroke-opacity:0.301961" d="M2.45 7.6Q3.2 7.75 3.4 8.1L4.2 5.1" />
<path style="fill:none;stroke-width:0.7;stroke-linecap:round;stroke-linejoin:round;stroke-miterlimit:3;stroke:#000000;stroke-opacity:0.301961" d="M1.85 7.55L2 7.55L2.45 7.6" />
<path style="fill:none;stroke-width:0.7;stroke-linecap:round;stroke-linejoin:round;stroke-miterlimit:3;stroke:#000000;stroke-opacity:0.301961" d="M4.8 5.25Q5.1 6.6 4.95 8.75L6.05 8.55" />
</g>
<g id="PathID_1292" transform="matrix(1, 0, 0, 1, 0.1, 0.1)">
<path style="fill:#585552;fill-opacity:1" d="M8.7 0.9Q9.8 1.15 9.7 2Q9.1 1.75 8.45 1.65L8.25 1.35L7.45 0.9L8.7 0.9M8.45 6.55Q8.1 6.35 7.85 5.5L7.8 5L8.7 5.7L8.45 6.55M8.55 4.4L8.1 3.9L8.2 3.4L8.4 2.9L9.05 3.35Q8.6 3.9 8.55 4.4M3.75 3.65L4.7 4L4.7 4.05L2.15 4.3Q1.05 4.6 0.3 5.35Q0 5.05 0 4.5L0.1 3.5L3.75 3.65M0.7 2.3L0.65 1.55L1.6 1.3L1.65 1.7L1.85 2.25L0.85 2.4L0.7 2.3M0.6 0.75Q0.6 -0.15 1.7 0L1.55 0.6L0.6 0.75" />
<path style="fill:#808080;fill-opacity:1" d="M9.05 3.35L8.4 2.9L8.2 3.4L8.1 3.9L8.55 4.4L8.6 4.95L8.7 5.7L7.8 5L7.85 5.5Q8.1 6.35 8.45 6.55L7.35 6.7L7.2 6.6L6.8 6.3Q7 5.1 6.3 4.5Q5.7 4.15 4.7 4L3.75 3.65L4.65 2.15Q5.4 1 7.45 0.9L8.25 1.35L8.45 1.65Q9.1 1.75 9.7 2L9.05 3.35M3.75 3.65L0.1 3.5Q0.25 2.75 0.7 2.3L0.85 2.4L1.85 2.25L1.65 1.7L1.6 1.3L0.65 1.55L0.6 0.95L0.6 0.75L1.55 0.6L1.7 0L3.25 0.45Q3.8 0.65 4.2 1.15Q4.6 1.6 4.65 2.15L4.7 4" />
<path style="fill:#413946;fill-opacity:1" d="M4.7 4Q5.7 4.15 6.3 4.5Q7 5.1 6.8 6.3L6.3 5.9L5.35 4.9L4.7 4.05L4.65 4.1L2.1 5.3L1.65 5.45L0.3 5.35Q1.05 4.6 2.15 4.3L4.7 4.05L4.7 4" />
<path style="fill:none;stroke-width:0.7;stroke-linecap:round;stroke-linejoin:round;stroke-miterlimit:3;stroke:#000000;stroke-opacity:0.4" d="M9.7 2Q9.8 1.15 8.7 0.9L7.45 0.9Q5.4 1 4.65 2.15L4.7 4Q5.7 4.15 6.3 4.5Q7 5.1 6.8 6.3L7.2 6.6L7.35 6.7L8.45 6.55" />
<path style="fill:none;stroke-width:0.7;stroke-linecap:round;stroke-linejoin:round;stroke-miterlimit:3;stroke:#000000;stroke-opacity:0.4" d="M8.7 5.7L8.6 4.95L8.55 4.4" />
<path style="fill:none;stroke-width:0.7;stroke-linecap:round;stroke-linejoin:round;stroke-miterlimit:3;stroke:#000000;stroke-opacity:0.4" d="M9.05 3.35L9.7 2" />
<path style="fill:none;stroke-width:0.7;stroke-linecap:round;stroke-linejoin:round;stroke-miterlimit:3;stroke:#000000;stroke-opacity:0.4" d="M6.8 6.3L6.3 5.9L5.35 4.9L4.7 4.05L4.65 4.1L2.1 5.3L1.65 5.45L0.3 5.35Q0 5.05 0 4.5L0.1 3.5Q0.25 2.75 0.7 2.3L0.65 1.55L0.6 0.95L0.6 0.75Q0.6 -0.15 1.7 0L3.25 0.45Q3.8 0.65 4.2 1.15Q4.6 1.6 4.65 2.15" />
<path style="fill:none;stroke-width:0.7;stroke-linecap:round;stroke-linejoin:round;stroke-miterlimit:3;stroke:#000000;stroke-opacity:0.4" d="M8.55 4.4Q8.6 3.9 9.05 3.35" />
<path style="fill:none;stroke-width:0.7;stroke-linecap:round;stroke-linejoin:round;stroke-miterlimit:3;stroke:#000000;stroke-opacity:0.4" d="M0.3 5.35Q1.05 4.6 2.15 4.3L4.7 4.05L4.7 4" />
<path style="fill:none;stroke-width:0.7;stroke-linecap:round;stroke-linejoin:round;stroke-miterlimit:3;stroke:#000000;stroke-opacity:0.4" d="M8.45 6.55L8.7 5.7" />
</g>
</svg>
