<?xml version="1.0" encoding="utf-8"?>
<svg version="1.1" id="Layer_1"
xmlns="http://www.w3.org/2000/svg"
xmlns:xlink="http://www.w3.org/1999/xlink"
width="14px" height="10px"
xml:space="preserve">
<g id="PathID_599" transform="matrix(1, 0, 0, 1, 6.65, 4.6)">
<radialGradient
id="RadialGradID_197" gradientUnits="userSpaceOnUse" gradientTransform="matrix(0.00151062, -0.000671387, 0.00132751, 0.00302124, 5.2, -1.85)" spreadMethod ="pad" cx="0" cy="0" r="819.2" fx="0" fy="0" >
<stop  offset="0.278431"  style="stop-color:#808080;stop-opacity:1" />
<stop  offset="0.572549"  style="stop-color:#808080;stop-opacity:0.4" />
<stop  offset="0.635294"  style="stop-color:#808080;stop-opacity:0.298039" />
<stop  offset="0.831373"  style="stop-color:#808080;stop-opacity:0" />
</radialGradient>
<path style="fill:url(#RadialGradID_197) " d="M5.1 -3.65L5.15 -3.55L5.2 -3.5L5.2 -3.45L5.85 -2.2L6.5 -0.15Q5 -1.6 3.7 -4.4L4.8 -3.9L5.1 -3.65" />
<radialGradient
id="RadialGradID_198" gradientUnits="userSpaceOnUse" gradientTransform="matrix(0.00495911, 0.00100708, -0.00114441, 0.00570679, -4.2, 0.2)" spreadMethod ="pad" cx="0" cy="0" r="819.2" fx="0" fy="0" >
<stop  offset="0.298039"  style="stop-color:#808080;stop-opacity:1" />
<stop  offset="0.576471"  style="stop-color:#808080;stop-opacity:0.4" />
<stop  offset="0.662745"  style="stop-color:#808080;stop-opacity:0.298039" />
<stop  offset="0.815686"  style="stop-color:#808080;stop-opacity:0" />
</radialGradient>
<path style="fill:url(#RadialGradID_198) " d="M-6.45 3.15Q-5.65 -0.55 -1.55 -3Q0.5 0.35 -1.4 3Q-3.4 5.65 -6.45 3.15" />
<path style="fill:none;stroke-width:0.7;stroke-linecap:round;stroke-linejoin:round;stroke-miterlimit:3;stroke:#000000;stroke-opacity:0.4" d="M5.2 -3.45L5.85 -2.2L6.5 -0.15Q5 -1.6 3.7 -4.4L4.8 -3.9L5.1 -3.65" />
<path style="fill:none;stroke-width:0.7;stroke-linecap:round;stroke-linejoin:round;stroke-miterlimit:3;stroke:#000000;stroke-opacity:0.4" d="M-6.45 3.15Q-5.65 -0.55 -1.55 -3Q0.5 0.35 -1.4 3Q-3.4 5.65 -6.45 3.15z" />
</g>
</svg>
