<?xml version="1.0" encoding="utf-8"?>
<svg version="1.1" id="Layer_1"
xmlns="http://www.w3.org/2000/svg"
xmlns:xlink="http://www.w3.org/1999/xlink"
width="22px" height="26px"
xml:space="preserve">
<g id="PathID_1795" transform="matrix(1, 0, 0, 1, 0, 0)">
<path style="fill:#4F4943;fill-opacity:1" d="M3.85 18.3Q3.6 20.15 3.95 21.6L4.5 23.05Q5.35 24.7 7.2 25.55L7.45 25.75L5.25 25.2Q3.5 24.15 2.95 21.45Q3.5 24.15 5.25 25.2Q3.15 24.5 2.4 23.3Q1.65 22.15 1.95 20.05Q1.15 20.65 0 20.85Q0.85 20.35 1.55 17.75Q2.25 14.65 3.7 13.35L5.9 12.65Q5.25 14.2 5.1 15.5Q4.6 14.25 3.65 14.8Q2.7 16.9 3 18.55L4.1 16.3Q4.05 18.45 5.1 19.15Q5.4 19.65 6.65 20.15L5.55 20.1L4.9 19.75Q4.15 19.25 3.85 18.3" />
<path style="fill:#808080;fill-opacity:1" d="M6.65 20.15Q5.4 19.65 5.1 19.15Q4.05 18.45 4.1 16.3L3 18.55Q2.7 16.9 3.65 14.8Q4.6 14.25 5.1 15.5Q4.8 17.65 6 19.05L7.8 19L6.65 20.15M4.9 19.75L5.65 20.75Q5.2 22.1 3.95 21.6Q3.6 20.15 3.85 18.3Q4.15 19.25 4.9 19.75M4.5 23.05Q5.2 21.75 6.05 22.25L6.1 22.8Q6.1 24.4 7.2 25.55Q5.35 24.7 4.5 23.05" />
<path style="fill:#9F9F9F;fill-opacity:1" d="M4.5 23.05L3.95 21.6Q5.2 22.1 5.65 20.75L6.05 22.25Q5.2 21.75 4.5 23.05" />
<path style="fill:none;stroke-width:0.7;stroke-linecap:round;stroke-linejoin:round;stroke-miterlimit:3;stroke:#000000;stroke-opacity:0.4" d="M5.1 15.5Q5.25 14.2 5.9 12.65L3.7 13.35Q2.25 14.65 1.55 17.75Q0.85 20.35 0 20.85Q1.15 20.65 1.95 20.05Q1.65 22.15 2.4 23.3Q3.15 24.5 5.25 25.2Q3.5 24.15 2.95 21.45" />
<path style="fill:none;stroke-width:0.7;stroke-linecap:round;stroke-linejoin:round;stroke-miterlimit:3;stroke:#000000;stroke-opacity:0.4" d="M5.1 15.5Q4.8 17.65 6 19.05L7.8 19L6.65 20.15L5.55 20.1L4.9 19.75L5.65 20.75L6.05 22.25L6.1 22.8Q6.1 24.4 7.2 25.55" />
<path style="fill:none;stroke-width:0.7;stroke-linecap:round;stroke-linejoin:round;stroke-miterlimit:3;stroke:#000000;stroke-opacity:0.4" d="M7.45 25.75L5.25 25.2" />
<path style="fill:none;stroke-width:0.7;stroke-linecap:round;stroke-linejoin:round;stroke-miterlimit:3;stroke:#000000;stroke-opacity:0.4" d="M3.85 18.3Q4.15 19.25 4.9 19.75" />
</g>
<g id="PathID_1796" transform="matrix(1, 0, 0, 1, 0, 0)">
<path style="fill:#808080;fill-opacity:1" d="M20.05 9.2Q18.8 9.2 18.45 8.55L18.2 8.05L19 8.35L19 8.1L18.75 7.15L19.5 7.4L19.9 7.25Q20.55 8.15 21.6 8.5L21.3 8.95L20.05 9.2M19.85 11.65Q18.7 11.65 17.5 10.8L17.05 10.4L16.85 10.3L16.7 9.4L16.7 9.05L17.5 9.3L17.7 8.35L18.25 9.4L18.65 10.65L19.9 11.65L19.85 11.65M13.6 12.3Q12.1 11.95 10.4 8.6Q10.8 6.2 12.3 7.05Q13.4 8.4 14.15 10.4L14.3 10.75Q14.9 12 16.65 12.55L13.6 12.3M6.1 12.8L5.1 13.25L5.95 12.1Q6.9 10.6 7.2 9.1L8.45 8L7.2 9.1L7.05 9.2L7.3 7.9L7.3 7.55L7.95 7.4L8.45 7.5L8.45 8L8.15 10Q7.25 13.15 4.5 14.7L4.1 14.8L6.1 12.8M17.15 3.35L16.55 3.2L16.3 2.95L16.7 2.55L16.75 2.55L17.85 3.25L17.15 3.35M13.1 5.85L13.15 5.9L14.5 6.4L13.5 6.6L12.2 6.5L11.7 6.4L11.55 6.25L11.35 6.05L11.15 5.85L11.1 5.55L11.1 5.45L11.75 5.65L12.1 5.65L12.1 5.6L12.35 5.6Q11.05 5.3 10.8 4.85L11.35 4.65L11.8 4.25L11.75 4.05L13.65 4.05Q13 3.95 11.9 3.3L13.8 3.45L13.85 3.45L15.7 3.8L18.1 3.65L19.3 3.25L17.75 4.65Q15.9 6 14.15 6L13.25 5.9L13.2 5.85L13.1 5.85M18.55 6.2L18.35 6.05L18.4 7.05L18 6.45L17.95 6.5L17.85 7.2L17.6 6.05L18.8 4.75L19.2 6L18.55 6.2M11.65 2.2Q11.65 1.95 12.2 1.35L11.45 1.45L10.85 1.45Q10.6 1.4 10.65 1.15Q14.3 -0.05 18.25 1.2Q16.5 2 15.15 2.05L13.45 2.05L11.95 2.25L11.95 2.3L12.9 2.45L13.8 2.65L13.2 2.6L12.25 2.65L11.95 2.65Q11.65 2.55 11.65 2.2M8.2 6.2L8.05 6.15L8.15 6.25Q7.6 6.9 7.25 6.9L7.2 6.75L7.05 6.3L6.8 5.6Q6.8 5.3 7.3 5.3L7.45 5.3L7.8 5.65L7.45 5.3L6.9 4.95L6.35 4.85Q7.2 3.3 8.8 2.2L9.45 2.2Q10.35 2.4 10.5 2.95L9 3.5L9 3.55L9.9 3.5L10.15 3.45L10.4 4.15Q10.4 4.95 10.2 5.2Q10.5 6.5 8.9 6.95L8.2 6.2M17 8.55L15.7 8.1L15.65 9.3L13 7.15L16.15 6.95L17.1 7.65L17 8.55M7.55 1.55Q9.25 0.95 9.75 0.15Q9.5 1.35 8.2 2.25Q8 2 7.3 1.65L7.55 1.55M5.85 2.45L6.15 2.3L6.45 2.2Q6.75 2.2 6.75 2.45Q6.7 2.85 6.8 3L7 3Q6.05 3.75 5.8 4.35L5.8 4.3L5.3 2.9L5.85 2.45M5.95 7.7L5.6 7.6L5.6 7.05L5.45 6.15L5.15 5.8L4.95 5.45L4.55 5.15L5.2 5.25Q5.85 5.45 6.3 6.05L6.75 7.15Q6.35 7.7 5.95 7.7M2.85 10.65L4.5 9.7L5.35 8.55L5.4 8.35L6.2 8.25L6.65 8.35Q6.3 10.1 4.1 10.6L2.85 10.65" />
<path style="fill:#4F4943;fill-opacity:1" d="M17.7 8.35L17.1 7.65L16.15 6.95L17.6 6.05L16.15 6.95L13 7.15L12.3 7.05L11.7 6.4L12.2 6.5L13.5 6.6L14.5 6.4L13.15 5.9L13.2 5.85L13.25 5.9L14.15 6Q15.9 6 17.75 4.65L19.3 3.25L19.9 2.9L18.8 4.75L17.6 6.05L17.85 7.2L17.9 7.45L18.2 8.05L18.45 8.55Q18.8 9.2 20.05 9.2L21.3 8.95Q20.2 10.35 18.25 9.4L17.7 8.35M15.65 9.3L16.4 10.3L16.45 10.3L16.45 10L16.25 9.35L16.85 10.3L17.05 10.4L17.5 10.8Q18.7 11.65 19.85 11.65L19.9 11.65L20.05 11.7Q15.6 12.5 14.15 10.4Q13.4 8.4 12.3 7.05L13 7.15L15.65 9.3M8.45 8L8.45 7.5L8.15 6.25L8.2 6.2L8.9 6.95L9.95 9.25L9.75 7.45L10.4 8.6Q12.1 11.95 13.6 12.3L16.65 12.55Q15.65 13.25 14.45 13.45Q9.95 13.8 8.15 10L8.45 8M3.05 14.6Q5.1 12.6 6.05 9.6L7.05 9.2L7.2 9.1Q6.9 10.6 5.95 12.1L5.1 13.25L6.1 12.8L4.1 14.8L2.2 15.35L3.05 14.6M13.8 3.45L11.9 3.3L10.15 3.45L9.9 3.5L9 3.55L9 3.5L10.5 2.95L11.95 2.65L12.25 2.65L13.2 2.6L13.8 2.65L12.9 2.45L11.95 2.3L11.95 2.25L13.45 2.05L15.15 2.05Q16.5 2 18.25 1.2L18.35 1.2L16.25 2.45L16.75 2.55L16.7 2.55L16.3 2.95L16.55 3.2L17.15 3.35L17.85 3.25L18.1 3.65L15.7 3.8L13.85 3.45Q15.15 3.25 15.6 2.8L16.25 2.45L15.6 2.8Q15.15 3.25 13.85 3.45L13.8 3.45M5.4 8.35L5.35 8.55L4.5 9.7L2.85 10.65L2.65 10.6L4.25 8.7L3.45 6.95L3.3 5.9Q3.15 4.2 4.25 2.3L4.7 3.6L4.1 4.4L4.7 3.6L5.3 2.9L5.8 4.3L5.8 4.35Q6.05 3.75 7 3L7.35 2.75L8.15 2.25L8.2 2.25Q9.5 1.35 9.75 0.15L9.85 0Q10.25 0.7 9.85 1.5L8.8 2.2Q7.2 3.3 6.35 4.85L6.9 4.95L7.45 5.3L7.3 5.3Q6.8 5.3 6.8 5.6L7.05 6.3L7.2 6.75L7.25 6.9L7.3 7.55L7.3 7.9L7.05 9.2L6.05 9.6Q5.1 12.6 3.05 14.6Q3.15 12.25 4.1 10.6Q6.3 10.1 6.65 8.35L6.65 8.3L6.75 7.15L6.3 6.05Q5.85 5.45 5.2 5.25Q5.15 4.7 6.35 4.85Q5.15 4.7 5.2 5.25L4.55 5.15L4.95 5.45L5.15 5.8L5.45 6.15L5.6 7.05L5.6 7.6L5.4 8.35M4.25 8.7Q5.55 6.85 5.15 5.8Q5.55 6.85 4.25 8.7" />
<path style="fill:#9F9F9F;fill-opacity:1" d="M17.9 7.45L17.85 7.2L17.95 6.5L18 6.45L18.4 7.05L18.35 6.05L18.55 6.2L19.2 6L19.9 7.25L19.5 7.4L18.75 7.15L19 8.1L19 8.35L18.2 8.05L17.9 7.45M9.85 1.5L10.5 1.2L10.65 1.15Q10.6 1.4 10.85 1.45L11.45 1.45L12.2 1.35Q11.65 1.95 11.65 2.2Q11.65 2.55 11.95 2.65L10.5 2.95Q10.35 2.4 9.45 2.2L8.8 2.2L9.85 1.5M9.75 7.45L9.95 9.25L8.9 6.95Q10.5 6.5 10.2 5.2Q10.4 4.95 10.4 4.15L10.15 3.45L11.9 3.3Q13 3.95 13.65 4.05L11.75 4.05L11.8 4.25L11.35 4.65L10.8 4.85Q11.05 5.3 12.35 5.6L12.1 5.6L11.95 5.6L12.1 5.65L11.75 5.65L11.1 5.45L11.1 5.55L11.15 5.85L11.35 6.05L11.55 6.25L11.7 6.4L12.3 7.05Q10.8 6.2 10.4 8.6L9.75 7.45M10.2 5.2L11.15 5.85L10.2 5.2M17.5 9.3L16.7 9.05L16.7 9.4L16.85 10.3L16.25 9.35L16.45 10L16.45 10.3L16.4 10.3L15.65 9.3L15.7 8.1L17 8.55L17.1 7.65L17.7 8.35L17.5 9.3M6.8 3Q6.7 2.85 6.75 2.45Q6.75 2.2 6.45 2.2L6.15 2.3Q6.7 1.9 7.3 1.65Q8 2 8.2 2.25L8.15 2.25L7.35 2.75L7 3L6.8 3M6.2 8.25L5.4 8.35L5.6 7.6L5.95 7.7Q6.35 7.7 6.75 7.15L6.65 8.3L6.65 8.35L6.2 8.25M8.45 7.5L7.95 7.4L7.3 7.55L7.25 6.9Q7.6 6.9 8.15 6.25L8.45 7.5" />
<path style="fill:none;stroke-width:0.7;stroke-linecap:round;stroke-linejoin:round;stroke-miterlimit:3;stroke:#000000;stroke-opacity:0.4" d="M19.9 7.25Q20.55 8.15 21.6 8.5L21.3 8.95Q20.2 10.35 18.25 9.4L18.65 10.65L19.9 11.65L20.05 11.7Q15.6 12.5 14.15 10.4L14.3 10.75Q14.9 12 16.65 12.55Q15.65 13.25 14.45 13.45Q9.95 13.8 8.15 10Q7.25 13.15 4.5 14.7L4.1 14.8L2.2 15.35L1.7 15.45" />
<path style="fill:none;stroke-width:0.7;stroke-linecap:round;stroke-linejoin:round;stroke-miterlimit:3;stroke:#000000;stroke-opacity:0.4" d="M18.25 1.2L18.35 1.2L16.25 2.45L16.75 2.55L17.85 3.25L18.1 3.65L19.3 3.25L19.9 2.9L18.8 4.75L19.2 6L19.9 7.25" />
<path style="fill:none;stroke-width:0.7;stroke-linecap:round;stroke-linejoin:round;stroke-miterlimit:3;stroke:#000000;stroke-opacity:0.4" d="M13.85 3.45Q15.15 3.25 15.6 2.8L16.25 2.45" />
<path style="fill:none;stroke-width:0.7;stroke-linecap:round;stroke-linejoin:round;stroke-miterlimit:3;stroke:#000000;stroke-opacity:0.4" d="M13.85 3.45L15.7 3.8L18.1 3.65" />
<path style="fill:none;stroke-width:0.7;stroke-linecap:round;stroke-linejoin:round;stroke-miterlimit:3;stroke:#000000;stroke-opacity:0.4" d="M18.8 4.75L17.6 6.05" />
<path style="fill:none;stroke-width:0.7;stroke-linecap:round;stroke-linejoin:round;stroke-miterlimit:3;stroke:#000000;stroke-opacity:0.4" d="M18.25 1.2Q14.3 -0.05 10.65 1.15" />
<path style="fill:none;stroke-width:0.7;stroke-linecap:round;stroke-linejoin:round;stroke-miterlimit:3;stroke:#000000;stroke-opacity:0.4" d="M9.9 3.5L10.15 3.45L11.9 3.3L13.8 3.45L13.85 3.45" />
<path style="fill:none;stroke-width:0.7;stroke-linecap:round;stroke-linejoin:round;stroke-miterlimit:3;stroke:#000000;stroke-opacity:0.4" d="M9.85 1.5L10.5 1.2L10.65 1.15" />
<path style="fill:none;stroke-width:0.7;stroke-linecap:round;stroke-linejoin:round;stroke-miterlimit:3;stroke:#000000;stroke-opacity:0.4" d="M11.35 6.05L11.55 6.25" />
<path style="fill:none;stroke-width:0.7;stroke-linecap:round;stroke-linejoin:round;stroke-miterlimit:3;stroke:#000000;stroke-opacity:0.4" d="M11.15 5.85L10.2 5.2" />
<path style="fill:none;stroke-width:0.7;stroke-linecap:round;stroke-linejoin:round;stroke-miterlimit:3;stroke:#000000;stroke-opacity:0.4" d="M12.3 7.05L11.7 6.4" />
<path style="fill:none;stroke-width:0.7;stroke-linecap:round;stroke-linejoin:round;stroke-miterlimit:3;stroke:#000000;stroke-opacity:0.4" d="M12.3 7.05L13 7.15L16.15 6.95L17.6 6.05" />
<path style="fill:none;stroke-width:0.7;stroke-linecap:round;stroke-linejoin:round;stroke-miterlimit:3;stroke:#000000;stroke-opacity:0.4" d="M12.3 7.05Q13.4 8.4 14.15 10.4" />
<path style="fill:none;stroke-width:0.7;stroke-linecap:round;stroke-linejoin:round;stroke-miterlimit:3;stroke:#000000;stroke-opacity:0.4" d="M17.1 7.65L16.15 6.95" />
<path style="fill:none;stroke-width:0.7;stroke-linecap:round;stroke-linejoin:round;stroke-miterlimit:3;stroke:#000000;stroke-opacity:0.4" d="M17.1 7.65L17.7 8.35L18.25 9.4" />
<path style="fill:none;stroke-width:0.7;stroke-linecap:round;stroke-linejoin:round;stroke-miterlimit:3;stroke:#000000;stroke-opacity:0.4" d="M8.8 2.2Q7.2 3.3 6.35 4.85L6.9 4.95L7.45 5.3L7.8 5.65" />
<path style="fill:none;stroke-width:0.7;stroke-linecap:round;stroke-linejoin:round;stroke-miterlimit:3;stroke:#000000;stroke-opacity:0.4" d="M9.75 0.15L9.85 0Q10.25 0.7 9.85 1.5L8.8 2.2" />
<path style="fill:none;stroke-width:0.7;stroke-linecap:round;stroke-linejoin:round;stroke-miterlimit:3;stroke:#000000;stroke-opacity:0.4" d="M7.3 1.65Q6.7 1.9 6.15 2.3" />
<path style="fill:none;stroke-width:0.7;stroke-linecap:round;stroke-linejoin:round;stroke-miterlimit:3;stroke:#000000;stroke-opacity:0.4" d="M5.3 2.9L4.7 3.6L4.1 4.4" />
<path style="fill:none;stroke-width:0.7;stroke-linecap:round;stroke-linejoin:round;stroke-miterlimit:3;stroke:#000000;stroke-opacity:0.4" d="M9.75 0.15Q9.25 0.95 7.55 1.55L7.3 1.65" />
<path style="fill:none;stroke-width:0.7;stroke-linecap:round;stroke-linejoin:round;stroke-miterlimit:3;stroke:#000000;stroke-opacity:0.4" d="M5.3 2.9L5.85 2.45" />
<path style="fill:none;stroke-width:0.7;stroke-linecap:round;stroke-linejoin:round;stroke-miterlimit:3;stroke:#000000;stroke-opacity:0.4" d="M5.2 5.25Q5.85 5.45 6.3 6.05L6.75 7.15L6.65 8.3L6.65 8.35Q6.3 10.1 4.1 10.6Q3.15 12.25 3.05 14.6Q5.1 12.6 6.05 9.6L7.05 9.2" />
<path style="fill:none;stroke-width:0.7;stroke-linecap:round;stroke-linejoin:round;stroke-miterlimit:3;stroke:#000000;stroke-opacity:0.4" d="M8.15 6.25L8.05 6.15" />
<path style="fill:none;stroke-width:0.7;stroke-linecap:round;stroke-linejoin:round;stroke-miterlimit:3;stroke:#000000;stroke-opacity:0.4" d="M6.35 4.85Q5.15 4.7 5.2 5.25L4.55 5.15L4.95 5.45" />
<path style="fill:none;stroke-width:0.7;stroke-linecap:round;stroke-linejoin:round;stroke-miterlimit:3;stroke:#000000;stroke-opacity:0.4" d="M2.85 10.65L2.65 10.6L4.25 8.7L3.45 6.95L3.3 5.9Q3.15 4.2 4.25 2.3L4.7 3.6" />
<path style="fill:none;stroke-width:0.7;stroke-linecap:round;stroke-linejoin:round;stroke-miterlimit:3;stroke:#000000;stroke-opacity:0.4" d="M2.85 10.65L4.1 10.6" />
<path style="fill:none;stroke-width:0.7;stroke-linecap:round;stroke-linejoin:round;stroke-miterlimit:3;stroke:#000000;stroke-opacity:0.4" d="M8.45 8L8.45 7.5" />
<path style="fill:none;stroke-width:0.7;stroke-linecap:round;stroke-linejoin:round;stroke-miterlimit:3;stroke:#000000;stroke-opacity:0.4" d="M8.45 7.5L8.15 6.25" />
<path style="fill:none;stroke-width:0.7;stroke-linecap:round;stroke-linejoin:round;stroke-miterlimit:3;stroke:#000000;stroke-opacity:0.4" d="M7.05 9.2L7.2 9.1L8.45 8L8.15 10" />
<path style="fill:none;stroke-width:0.7;stroke-linecap:round;stroke-linejoin:round;stroke-miterlimit:3;stroke:#000000;stroke-opacity:0.4" d="M5.15 5.8Q5.55 6.85 4.25 8.7" />
<path style="fill:none;stroke-width:0.7;stroke-linecap:round;stroke-linejoin:round;stroke-miterlimit:3;stroke:#000000;stroke-opacity:0.4" d="M2.2 15.35L3.05 14.6" />
</g>
</svg>
