<?xml version="1.0" encoding="utf-8"?>
<svg version="1.1" id="Layer_1"
xmlns="http://www.w3.org/2000/svg"
xmlns:xlink="http://www.w3.org/1999/xlink"
width="17px" height="8px"
xml:space="preserve">
<g id="PathID_1574" transform="matrix(1, 0, 0, 1, 0, 0)">
<path style="fill:#808080;fill-opacity:1" d="M15.95 5.6Q13.75 5.45 12.9 4.75L12.9 4.7L13.25 3.5L16.1 4.2L15.95 5.6M3.25 2.95L3.6 1.3L5 1.35L5.15 2.2L3.25 2.95" />
<path style="fill:#4F4943;fill-opacity:1" d="M15.95 5.6L15.05 7.6L12.5 6.95Q12.3 6.4 12.9 4.75Q13.75 5.45 15.95 5.6M5.15 2.2L4.95 4L3.4 4.9Q3.15 3.95 3.25 2.95L5.15 2.2M2.7 1.35L1.25 1.7L0 2.15Q0.05 1.15 0.75 0L3.5 0.25L2.7 1.35" />
</g>
</svg>
