<?xml version="1.0" encoding="utf-8"?>
<svg version="1.1" id="Layer_1"
xmlns="http://www.w3.org/2000/svg"
xmlns:xlink="http://www.w3.org/1999/xlink"
width="7px" height="5px"
xml:space="preserve">
<g id="PathID_1234" transform="matrix(1, 0, 0, 1, 0.4, 0)">
<linearGradient
id="LinearGradID_308" gradientUnits="userSpaceOnUse" gradientTransform="matrix(-0.00169373, 0.00169373, -0.00175476, -0.00175476, 3.25, 0.65)" spreadMethod ="pad" x1="-819.2" y1="0" x2="819.2" y2="0" >
<stop  offset="0" style="stop-color:#564C4C;stop-opacity:1" />
<stop  offset="1" style="stop-color:#808080;stop-opacity:1" />
</linearGradient>
<path style="fill:url(#LinearGradID_308) " d="M2.75 0.65L2.8 0.6L4.95 0L5.25 0.5Q3.75 2.9 2.8 2.65L5.7 0.5L4.95 1.65L5.6 1.55Q3.6 4.85 0 3.9L1.35 2.95Q2 1.4 2.75 0.65M2.8 2.65Q2.85 1.85 4.2 1.05Q2.85 1.85 2.8 2.65Q3.75 2.9 5.25 0.5" />
<path style="fill:none;stroke-width:0.7;stroke-linecap:round;stroke-linejoin:miter;stroke-miterlimit:3;stroke:#000000;stroke-opacity:0.298039" d="M5.6 1.55Q3.6 4.85 0 3.9L1.35 2.95Q2 1.4 2.75 0.65" />
<path style="fill:none;stroke-width:0.7;stroke-linecap:round;stroke-linejoin:miter;stroke-miterlimit:3;stroke:#000000;stroke-opacity:0.298039" d="M5.25 0.5Q3.75 2.9 2.8 2.65Q2.85 1.85 4.2 1.05" />
</g>
</svg>
