<?xml version="1.0" encoding="utf-8"?>
<svg version="1.1" id="Layer_1"
xmlns="http://www.w3.org/2000/svg"
xmlns:xlink="http://www.w3.org/1999/xlink"
width="6px" height="9px"
xml:space="preserve">
<g id="PathID_4067" transform="matrix(1, 0, 0, 1, 0.25, 0.25)">
<path style="fill:#808080;fill-opacity:1" d="M0 0L0.35 0Q2.05 0 3.5 0.8L3.5 0.9L2.85 2L0.2 1.4L0 0M3 8L2.15 7.45L2.15 5.05L3.35 3.9L4.5 4.45Q4.25 6.3 3 8" />
<path style="fill:#4F4943;fill-opacity:1" d="M4.5 4.45L5.1 4.8L5.1 7.2L3.65 8.4L3 8Q4.25 6.3 4.5 4.45" />
<path style="fill:none;stroke-width:0.7;stroke-linecap:round;stroke-linejoin:round;stroke-miterlimit:3;stroke:#000000;stroke-opacity:0.45098" d="M0 0L0.35 0Q2.05 0 3.5 0.8" />
<path style="fill:none;stroke-width:0.7;stroke-linecap:round;stroke-linejoin:round;stroke-miterlimit:3;stroke:#000000;stroke-opacity:0.2" d="M5.1 4.8L5.1 7.2" />
<path style="fill:none;stroke-width:0.7;stroke-linecap:round;stroke-linejoin:round;stroke-miterlimit:3;stroke:#000000;stroke-opacity:0.2" d="M3.65 8.4L3 8L2.15 7.45" />
</g>
</svg>
