<?xml version="1.0" encoding="utf-8"?>
<svg version="1.1" id="Layer_1"
xmlns="http://www.w3.org/2000/svg"
xmlns:xlink="http://www.w3.org/1999/xlink"
width="14px" height="9px"
xml:space="preserve">
<g id="PathID_2220" transform="matrix(1, 0, 0, 1, 0.05, 0.05)">
<path style="fill:#808080;fill-opacity:0.698039" d="M12.95 4.45Q12.2 5.4 11.05 4.85Q9.9 4.3 9.95 2.5L9.95 2.2L10 1.95Q10.2 1.15 10.65 0.75Q11.1 0.3 12.25 0.05Q13.4 -0.25 13.6 1.05Q13.8 2.35 13.55 3.15L12.95 4.45M6.15 4.35Q6.25 5.7 5.35 7.1Q4.4 8.45 2.8 8.2Q1.15 7.9 0.55 6.85L0.3 6.3L0.2 6Q-0.2 4.7 0.2 3.65Q0.6 2.5 1.3 2.35L3.3 2.15L4.55 2.25L5.3 2.55Q5.85 2.9 6.1 3.85L6.15 4.35" />
<path style="fill:none;stroke-width:0.7;stroke-linecap:round;stroke-linejoin:round;stroke-miterlimit:3;stroke:#000000;stroke-opacity:0.2" d="M12.95 4.45Q12.2 5.4 11.05 4.85Q9.9 4.3 9.95 2.5L9.95 2.2L10 1.95Q10.2 1.15 10.65 0.75Q11.1 0.3 12.25 0.05Q13.4 -0.25 13.6 1.05Q13.8 2.35 13.55 3.15L12.95 4.45z" />
<path style="fill:none;stroke-width:0.7;stroke-linecap:round;stroke-linejoin:round;stroke-miterlimit:3;stroke:#000000;stroke-opacity:0.2" d="M6.15 4.35Q6.25 5.7 5.35 7.1Q4.4 8.45 2.8 8.2Q1.15 7.9 0.55 6.85L0.3 6.3L0.2 6Q-0.2 4.7 0.2 3.65Q0.6 2.5 1.3 2.35L3.3 2.15L4.55 2.25L5.3 2.55Q5.85 2.9 6.1 3.85L6.15 4.35z" />
</g>
</svg>
