<?xml version="1.0" encoding="utf-8"?>
<svg version="1.1" id="Layer_1"
xmlns="http://www.w3.org/2000/svg"
xmlns:xlink="http://www.w3.org/1999/xlink"
width="16px" height="15px"
xml:space="preserve">
<g id="PathID_1285" transform="matrix(1, 0, 0, 1, 0.1, 0.1)">
<path style="fill:#5C6364;fill-opacity:1" d="M14.8 10.65Q15.6 11.85 14 12.45Q12.35 13 11.5 13.6Q10.7 14.35 10.25 14.3Q9.8 14.35 10.4 13.4Q10.9 12.5 10.15 13.4Q9.45 14.3 8.8 14.3L8.05 14.1L8.85 12.6L6.85 14L6 14L5.75 13.8L6.75 12.1L2.85 12Q2.9 11.7 5.65 10.8Q2.45 11.4 1.65 10.5Q0.9 9.55 1.3 9.45L5.3 9.15L3.2 8.75L1.55 8.05L0.2 6.65Q-0.15 5.8 0.1 5.6L0.45 5.55L2.45 6.15L3.85 6.55L3.9 5.95L2.3 3.95Q1.25 2.3 1.25 0.65Q1.25 -1.05 3.3 1.55Q5.25 4.1 8 5.45Q10.75 6.75 12.35 8.1Q14 9.45 14.8 10.65" />
<path style="fill:none;stroke-width:0.7;stroke-linecap:round;stroke-linejoin:round;stroke-miterlimit:3;stroke:#000000;stroke-opacity:0.4" d="M12.35 8.1Q10.75 6.75 8 5.45Q5.25 4.1 3.3 1.55Q1.25 -1.05 1.25 0.65Q1.25 2.3 2.3 3.95L3.9 5.95L3.85 6.55L2.45 6.15L0.45 5.55L0.1 5.6Q-0.15 5.8 0.2 6.65L1.55 8.05L3.2 8.75L5.3 9.15L1.3 9.45Q0.9 9.55 1.65 10.5Q2.45 11.4 5.65 10.8Q2.9 11.7 2.85 12L6.75 12.1L5.75 13.8L6 14L6.85 14L8.85 12.6L8.05 14.1L8.8 14.3Q9.45 14.3 10.15 13.4Q10.9 12.5 10.4 13.4Q9.8 14.35 10.25 14.3Q10.7 14.35 11.5 13.6Q12.35 13 14 12.45Q15.6 11.85 14.8 10.65Q14 9.45 12.35 8.1z" />
</g>
</svg>
