<?xml version="1.0" encoding="utf-8"?>
<svg version="1.1" id="Layer_1"
xmlns="http://www.w3.org/2000/svg"
xmlns:xlink="http://www.w3.org/1999/xlink"
width="14px" height="18px"
xml:space="preserve">
<g id="PathID_3928" transform="matrix(1, 0, 0, 1, 0, 0)">
<path style="fill:#4F4943;fill-opacity:1" d="M8.15 8.4L7.55 8.1L10.95 1.2L10.8 2.4Q9.55 5.9 8.15 8.4M10.95 1.15Q7.65 4.85 4.7 7.15L11.05 0L11.1 0L11.35 0.35Q11 5.3 9.95 9.5L9.75 9.35L9.45 9.15L10.8 2.4L10.95 1.2L10.95 1.15M4.7 7.15L3.75 6.95Q7.65 3.9 11.05 0L10.95 1.15M12.7 12Q13.25 6.55 11.6 0.7Q13.85 6.1 13.35 10.95L13.35 11.1L13.2 12.7L12.7 12" />
<path style="fill:#808080;fill-opacity:1" d="M7.9 15.5L7.05 15.7Q8.5 12.45 9.45 9.15L9.75 9.35L9.95 9.5Q9.1 12.7 7.9 15.5M4.25 13.25L7.55 8.1L8.15 8.4Q6.3 11.8 4.25 13.25M12.7 12L13.2 12.7Q12.85 15.4 12.1 17.35L11.65 16.95L12.7 12M0.6 9.7L0 9.55Q1.95 8.35 3.75 6.95L4.7 7.15Q2.55 8.8 0.6 9.7" />
<path style="fill:none;stroke-width:0.7;stroke-linecap:round;stroke-linejoin:round;stroke-miterlimit:3;stroke:#000000;stroke-opacity:0.4" d="M10.95 1.2L10.8 2.4L9.45 9.15" />
<path style="fill:none;stroke-width:0.7;stroke-linecap:round;stroke-linejoin:round;stroke-miterlimit:3;stroke:#000000;stroke-opacity:0.4" d="M11.35 0.35L11.1 0L11.05 0L10.95 1.15L10.95 1.2" />
<path style="fill:none;stroke-width:0.7;stroke-linecap:round;stroke-linejoin:round;stroke-miterlimit:3;stroke:#000000;stroke-opacity:0.4" d="M8.15 8.4Q9.55 5.9 10.8 2.4" />
<path style="fill:none;stroke-width:0.7;stroke-linecap:round;stroke-linejoin:round;stroke-miterlimit:3;stroke:#000000;stroke-opacity:0.4" d="M13.2 12.7L13.35 11.1L13.35 10.95Q13.85 6.1 11.6 0.7" />
<path style="fill:none;stroke-width:0.7;stroke-linecap:round;stroke-linejoin:round;stroke-miterlimit:3;stroke:#000000;stroke-opacity:0.4" d="M13.2 12.7Q12.85 15.4 12.1 17.35L11.65 16.95" />
<path style="fill:none;stroke-width:0.7;stroke-linecap:round;stroke-linejoin:round;stroke-miterlimit:3;stroke:#000000;stroke-opacity:0.4" d="M3.75 6.95Q1.95 8.35 0 9.55L0.6 9.7" />
<path style="fill:none;stroke-width:0.7;stroke-linecap:round;stroke-linejoin:round;stroke-miterlimit:3;stroke:#000000;stroke-opacity:0.4" d="M9.45 9.15Q8.5 12.45 7.05 15.7L7.9 15.5" />
<path style="fill:none;stroke-width:0.7;stroke-linecap:round;stroke-linejoin:round;stroke-miterlimit:3;stroke:#000000;stroke-opacity:0.4" d="M11.05 0Q7.65 3.9 3.75 6.95" />
<path style="fill:none;stroke-width:0.7;stroke-linecap:round;stroke-linejoin:round;stroke-miterlimit:3;stroke:#000000;stroke-opacity:0.4" d="M4.25 13.25Q6.3 11.8 8.15 8.4" />
</g>
</svg>
