<?xml version="1.0" encoding="utf-8"?>
<svg version="1.1" id="Layer_1"
xmlns="http://www.w3.org/2000/svg"
xmlns:xlink="http://www.w3.org/1999/xlink"
width="3px" height="7px"
xml:space="preserve">
<g id="PathID_1660" transform="matrix(1, 0, 0, 1, 0.15, 0.15)">
<path style="fill:#808080;fill-opacity:1" d="M1 4.8L0.9 3.8Q0.5 1.15 0 0.65Q0.05 -0.2 0.75 0.1Q1.95 1.1 2.35 2.25Q2.35 2.9 1.8 3.8L1 4.8" />
<path style="fill:#9F9F9F;fill-opacity:1" d="M0.95 5.65L1 4.8L1.8 3.8Q2.35 2.9 2.35 2.25L2.5 3.6L2.35 4.35L0.95 5.65" />
<path style="fill:#4D4A48;fill-opacity:1" d="M2.35 4.35L2 5.1Q1.3 6.8 0.2 6.8Q0.85 6.65 0.95 5.65L2.35 4.35" />
<path style="fill:none;stroke-width:0.7;stroke-linecap:round;stroke-linejoin:round;stroke-miterlimit:3;stroke:#000000;stroke-opacity:0.301961" d="M0 0.65Q0.05 -0.2 0.75 0.1" />
<path style="fill:none;stroke-width:0.7;stroke-linecap:round;stroke-linejoin:round;stroke-miterlimit:3;stroke:#000000;stroke-opacity:0.301961" d="M0.75 0.1Q1.95 1.1 2.35 2.25L2.5 3.6L2.35 4.35L2 5.1Q1.3 6.8 0.2 6.8" />
</g>
</svg>
