<?xml version="1.0" encoding="utf-8"?>
<svg version="1.1" id="Layer_1"
xmlns="http://www.w3.org/2000/svg"
xmlns:xlink="http://www.w3.org/1999/xlink"
width="17px" height="12px"
xml:space="preserve">
<g id="PathID_3695" transform="matrix(1, 0, 0, 1, 0, 0)">
<path style="fill:#808080;fill-opacity:1" d="M3.15 7.65Q3.85 7.6 4.25 8.25L2.1 10.25Q1.7 8.5 0.15 7.65L3.15 7.65L5.65 3.5Q9.6 2.95 10.65 0Q13.4 0.4 15.1 3Q12.15 6.1 4.25 8.25Q3.85 7.6 3.15 7.65" />
<path style="fill:#645F5F;fill-opacity:1" d="M2.1 10.25L4.25 8.25L4.55 9.15L4.25 8.25Q12.15 6.1 15.1 3L15.3 3.25Q17.05 6 16.85 8.3Q11.6 9.6 4.55 9.15L2.2 11.1L2.1 10.25" />
<path style="fill:#423C36;fill-opacity:1" d="M2.1 10.25L2.2 11.1Q1.4 11.5 0.55 10.1Q-0.25 8.7 0.15 7.65Q1.7 8.5 2.1 10.25" />
<path style="fill:none;stroke-width:0.7;stroke-linecap:round;stroke-linejoin:round;stroke-miterlimit:3;stroke:#000000;stroke-opacity:0.301961" d="M15.1 3L15.3 3.25Q17.05 6 16.85 8.3Q11.6 9.6 4.55 9.15L2.2 11.1Q1.4 11.5 0.55 10.1Q-0.25 8.7 0.15 7.65L3.15 7.65L5.65 3.5Q9.6 2.95 10.65 0Q13.4 0.4 15.1 3z" />
<path style="fill:none;stroke-width:0.7;stroke-linecap:round;stroke-linejoin:round;stroke-miterlimit:3;stroke:#000000;stroke-opacity:0.301961" d="M4.25 8.25L4.55 9.15" />
<path style="fill:none;stroke-width:0.7;stroke-linecap:round;stroke-linejoin:round;stroke-miterlimit:3;stroke:#000000;stroke-opacity:0.301961" d="M3.15 7.65Q3.85 7.6 4.25 8.25" />
<path style="fill:none;stroke-width:0.7;stroke-linecap:round;stroke-linejoin:round;stroke-miterlimit:3;stroke:#000000;stroke-opacity:0.301961" d="M2.1 10.25L2.2 11.1" />
<path style="fill:none;stroke-width:0.7;stroke-linecap:round;stroke-linejoin:round;stroke-miterlimit:3;stroke:#000000;stroke-opacity:0.301961" d="M0.15 7.65Q1.7 8.5 2.1 10.25" />
</g>
</svg>
