<?xml version="1.0" encoding="utf-8"?>
<svg version="1.1" id="Layer_1"
xmlns="http://www.w3.org/2000/svg"
xmlns:xlink="http://www.w3.org/1999/xlink"
width="8px" height="14px"
xml:space="preserve">
<g id="PathID_698" transform="matrix(1, 0, 0, 1, 4.05, 7)">
<path style="fill:#4A5168;fill-opacity:0.498039" d="M1.85 -0.75Q0.9 -1.5 -0.5 -1.6L-1.7 -1.65L-2.3 -1.6L-1.65 -2L-1.55 -2.6L-1.15 -2.6L-0.55 -3.25L-0.4 -4.85L-0.75 -5.6L0.25 -7Q0.1 -5.9 0.25 -5.15L0.9 -4.05L0.85 -2.6L1.8 -1.75L1.55 -1.55L2.05 -1.15L2.5 -0.1L2 -0.65L1.85 -0.75M0.95 2.1L-0.45 2.85L-1.3 3.65L-1.45 4.3L-1.95 5.3L-2.05 5.35L-2.05 6.2L-2.5 5.15L-2.15 3.85L-3.1 4.7L-2.7 3.95L-2.3 2.85L-2.3 2.8Q-2.15 2.2 -2.3 1.85L-2.3 0.75L0.45 2.1L0.95 2.1" />
</g>
<g id="PathID_699" transform="matrix(1, 0, 0, 1, 4.05, 7)">
<path style="fill:#000000;fill-opacity:0.498039" d="M0.1 -3.45L0.45 -3.2L-0.05 -3.15L1.55 -1.6L-0.15 -2.05L0.55 -1.85L1.85 -0.8Q0.9 -1.55 -0.5 -1.65L-1.7 -1.7L-1 -2.4L-0.5 -2.55L-0.55 -2.95L-0.15 -4.55L-0.55 -5.6L-0.15 -6.15L-0.2 -5.4L0.2 -4.65L0.1 -3.45M-2.3 2.75L-1.9 2.2L-2.15 1.6L-2.3 0.7L0.45 2.05L-0.9 2.45L-1.65 3.9L-1.95 5.25L-2.05 5.3L-1.85 3.1L-2.65 4.1Q-2 3.2 -1.9 2.55L-2.3 2.8L-2.3 2.75" />
</g>
<g id="PathID_700" transform="matrix(1, 0, 0, 1, 4.05, 7)">
<path style="fill:#CDCEB9;fill-opacity:1" d="M-3.4 -0.7L-3.45 -0.75Q-1.75 -1.85 -0.35 -1.85Q1.7 -1.85 3.05 0.55L3.05 0.6Q0.6 -2 -3.4 -0.7" />
<path style="fill:#FEFEFE;fill-opacity:1" d="M-3.4 -0.7Q0.6 -2 3.05 0.6Q1.7 2.2 0.3 2.25Q-1.3 2.2 -2.8 0.15L-3.4 -0.7" />
</g>
<g id="PathID_701" transform="matrix(1, 0, 0, 1, 4.05, 7)">
<radialGradient
id="RadialGradID_230" gradientUnits="userSpaceOnUse" gradientTransform="matrix(0.00410461, 0, 0, 0.00370789, -0.6, 0.4)" spreadMethod ="pad" cx="0" cy="0" r="819.2" fx="0" fy="0" >
<stop  offset="0"  style="stop-color:#FFFFFF;stop-opacity:1" />
<stop  offset="0.843137"  style="stop-color:#597379;stop-opacity:1" />
</radialGradient>
<path style="fill:url(#RadialGradID_230) " d="M1.65 -1.05L2.05 0.2L1.75 1.4Q1.25 2.2 0.25 2.2Q-0.75 2.2 -1.25 1.4L-1.6 0.2Q-1.65 -0.45 -1.3 -1.05Q-0.8 -1.85 0.15 -1.85Q1.1 -1.85 1.65 -1.05" />
<path style="fill:none;stroke-width:0.7;stroke-linecap:round;stroke-linejoin:miter;stroke-miterlimit:3;stroke:#4D6368;stroke-opacity:0.8" d="M1.65 -1.05L2.05 0.2L1.75 1.4Q1.25 2.2 0.25 2.2Q-0.75 2.2 -1.25 1.4L-1.6 0.2Q-1.65 -0.45 -1.3 -1.05Q-0.8 -1.85 0.15 -1.85Q1.1 -1.85 1.65 -1.05z" />
</g>
<g id="PathID_702" transform="matrix(1, 0, 0, 1, 4.05, 7)">
<path style="fill:#000000;fill-opacity:1" d="M0.6 -1.7L-0.35 -1.85Q-1.7 -1.85 -3.45 -0.75L-2.8 0.15L-4.05 -0.75Q-2.8 -2.35 -0.05 -2.45L0.6 -2.25Q2.35 -1.55 3.5 0.55L3.05 0.55Q2.05 -1.3 0.6 -1.7" />
<path style="fill:none;stroke-width:0.7;stroke-linecap:round;stroke-linejoin:miter;stroke-miterlimit:3;stroke:#000000;stroke-opacity:0.298039" d="M3.05 0.55Q1.85 2 0.6 2.25L0.3 2.25Q-1.3 2.2 -2.8 0.15L-3.45 -0.75Q-1.7 -1.85 -0.35 -1.85L0.6 -1.7Q2.05 -1.3 3.05 0.55z" />
</g>
</svg>
