<?xml version="1.0" encoding="utf-8"?>
<svg version="1.1" id="Layer_1"
xmlns="http://www.w3.org/2000/svg"
xmlns:xlink="http://www.w3.org/1999/xlink"
width="16px" height="11px"
xml:space="preserve">
<g id="PathID_1273" transform="matrix(1, 0, 0, 1, 0.1, 0.1)">
<path style="fill:#808080;fill-opacity:1" d="M12.9 8.95Q10.8 9.6 6.1 7L3.9 5.65Q5.55 4.3 4.45 2.6L5.75 3.25Q6.65 3.75 7.5 4.55Q6.65 3.75 5.75 3.25L4.45 2.6Q6.05 1.45 4.3 0.4L9 0Q11.5 -0.1 13.5 1.15Q15.45 2.35 14.25 3.8Q13 5.2 15 6.15Q14.95 8.25 12.9 8.95M0.1 1.95L0 1.75Q1.4 1.05 2.9 0.7Q3.65 1.7 2.6 1.95Q2.85 3.9 1.6 3.85Q0.55 2.9 0.1 1.95M0 1.75L2.6 1.95L0 1.75" />
<path style="fill:#625D59;fill-opacity:1" d="M3.9 5.65L6.1 7Q10.8 9.6 12.9 8.95Q14.95 8.25 15 6.15Q16.1 6.95 15.7 8.15Q15.2 9.35 13.85 9.9L10.1 10.2Q7.7 9.85 5.5 8.2Q3.2 6.5 2.75 5.8L3.9 5.65M1.6 3.85L1.35 4.15Q0.35 2.8 0.1 1.95Q0.55 2.9 1.6 3.85" />
<path style="fill:none;stroke-width:0.7;stroke-linecap:round;stroke-linejoin:round;stroke-miterlimit:3;stroke:#000000;stroke-opacity:0.45098" d="M4.3 0.4L9 0Q11.5 -0.1 13.5 1.15Q15.45 2.35 14.25 3.8Q13 5.2 15 6.15Q16.1 6.95 15.7 8.15Q15.2 9.35 13.85 9.9L10.1 10.2Q7.7 9.85 5.5 8.2Q3.2 6.5 2.75 5.8L1.35 4.15Q0.35 2.8 0.1 1.95L0 1.75Q1.4 1.05 2.9 0.7L4.3 0.4z" />
<path style="fill:none;stroke-width:0.7;stroke-linecap:round;stroke-linejoin:round;stroke-miterlimit:3;stroke:#000000;stroke-opacity:0.45098" d="M4.45 2.6L5.75 3.25Q6.65 3.75 7.5 4.55" />
<path style="fill:none;stroke-width:0.7;stroke-linecap:round;stroke-linejoin:round;stroke-miterlimit:3;stroke:#000000;stroke-opacity:0.45098" d="M2.6 1.95L0 1.75" />
</g>
</svg>
