<?xml version="1.0" encoding="utf-8"?>
<svg version="1.1" id="Layer_1"
xmlns="http://www.w3.org/2000/svg"
xmlns:xlink="http://www.w3.org/1999/xlink"
width="5px" height="8px"
xml:space="preserve">
<g id="PathID_4118" transform="matrix(1, 0, 0, 1, 2.5, 3.65)">
<path style="fill:#A0A0A0;fill-opacity:1" d="M-0.55 -0.6L-2.5 0Q-1.15 -1.1 -0.55 -2.4L0.05 -3.65L-0.55 -0.6" />
<path style="fill:#808080;fill-opacity:1" d="M0.05 -3.65Q0.45 -1.65 2.5 0L-0.55 -0.6L0.05 -3.65" />
<path style="fill:#696767;fill-opacity:1" d="M-0.55 -0.6L0 3.7Q-0.8 0.9 -2.5 0L-0.55 -0.6" />
<path style="fill:#544E4B;fill-opacity:1" d="M-0.55 -0.6L2.5 0Q0.7 0.75 0 3.75L0 3.7L-0.55 -0.6" />
<path style="fill:none;stroke-width:0.7;stroke-linecap:round;stroke-linejoin:round;stroke-miterlimit:3;stroke:#000000;stroke-opacity:0.270588" d="M2.5 0Q0.7 0.75 0 3.75L0 3.7Q-0.8 0.9 -2.5 0Q-1.15 -1.1 -0.55 -2.4L0.05 -3.65Q0.45 -1.65 2.5 0z" />
<path style="fill:none;stroke-width:0.7;stroke-linecap:round;stroke-linejoin:round;stroke-miterlimit:3;stroke:#A6C0C6;stroke-opacity:0.388235" d="M2.5 0L-0.55 -0.6L0 3.7" />
<path style="fill:none;stroke-width:0.7;stroke-linecap:round;stroke-linejoin:round;stroke-miterlimit:3;stroke:#A6C0C6;stroke-opacity:0.388235" d="M-2.5 0L-0.55 -0.6L0.05 -3.65" />
</g>
</svg>
