<?xml version="1.0" encoding="utf-8"?>
<svg version="1.1" id="Layer_1"
xmlns="http://www.w3.org/2000/svg"
xmlns:xlink="http://www.w3.org/1999/xlink"
width="20px" height="13px"
xml:space="preserve">
<g id="PathID_2775" transform="matrix(1, 0, 0, 1, 9.95, 6.45)">
<path style="fill:#808080;fill-opacity:1" d="M7.55 2.7L6.85 2.8L5.9 6.4L4.8 6.45Q5.7 4.3 6.2 1.4L7.45 1.35L8 1.25L8.35 2.2L8.15 4.2L9.1 3.95L9.35 4.7L9.35 4.75L9.6 5.1L9.75 5.45L9.35 6L9.15 6.05L7 6.35Q7.6 4.65 7.55 2.7M2.25 1.6L4.55 1.45Q2.75 2.6 1.8 4.25L2.5 4.4Q3.3 3.2 5 2.35Q5.6 2.1 4.1 6.4L0 5.75L-0.3 5.3Q0.2 3.25 2.25 1.6M-2.2 2.1L-2.3 1.8L0.35 1.7Q-0.6 3.1 -0.8 4.4L-1.35 3.5L-1.15 2.9L-1.8 2.6L-1.85 2.7L-2.2 2.1" />
<path style="fill:#545454;fill-opacity:1" d="M0 5.75L-0.4 5.75L-0.3 5.3L0 5.75M-1.65 4.15L-1.35 3.5L-0.8 4.4L-0.95 5.75L-1.45 5.75L-1.65 4.15M-2.3 1.8L-2.2 2.1L-1.85 2.7L-2.45 3.65L-2.3 5.75L-4.15 5.7L-2.9 3.2L-3.2 1.9L-2.3 1.8M-4.75 2L-6.25 3.55L-5.55 4.05Q-4.9 2.75 -3.85 2.6Q-3.45 2.85 -3.7 3.5L-4.7 5.7L-5.95 5.65L-7.95 3.45L-8.2 2.1L-4.75 2" />
<path style="fill:none;stroke-width:0.7;stroke-linecap:round;stroke-linejoin:round;stroke-miterlimit:3;stroke:#000000;stroke-opacity:0.4" d="M-5.95 5.65L-6.85 5.7L-9.95 5.65L-9.9 -2.2Q-10.45 -2.8 -2.7 -4.15L-1.7 -4.55Q3.6 -6.85 4.2 -6.35Q4.9 -5.75 6.75 -0.65L7.45 1.35L8 1.25L8.35 2.2L9.1 3.95L9.35 4.7L9.6 5.1L9.75 5.45L9.35 6L9.15 6.05L7 6.35L5.9 6.4L4.8 6.45L4.1 6.4L0 5.75L-0.4 5.75L-0.95 5.75L-1.45 5.75L-2.3 5.75L-4.15 5.7L-4.7 5.7L-5.95 5.65L-7.95 3.45L-8.2 2.1L-9.1 2.15L-8.8 3.95L-6.85 5.7" />
<path style="fill:none;stroke-width:0.7;stroke-linecap:round;stroke-linejoin:round;stroke-miterlimit:3;stroke:#000000;stroke-opacity:0.4" d="M-9.9 -2.2L-8.35 -2Q-7.45 -2.1 -3.55 -3.7L-2.7 -4.15" />
<path style="fill:none;stroke-width:0.7;stroke-linecap:round;stroke-linejoin:round;stroke-miterlimit:3;stroke:#000000;stroke-opacity:0.4" d="M-1.85 2.7L-1.8 2.6L-1.15 2.9L-1.35 3.5" />
<path style="fill:none;stroke-width:0.7;stroke-linecap:round;stroke-linejoin:round;stroke-miterlimit:3;stroke:#000000;stroke-opacity:0.4" d="M-0.8 4.4Q-0.6 3.1 0.35 1.7L-2.3 1.8" />
<path style="fill:none;stroke-width:0.7;stroke-linecap:round;stroke-linejoin:round;stroke-miterlimit:3;stroke:#000000;stroke-opacity:0.4" d="M-1.85 2.7L-2.45 3.65L-2.3 5.75" />
<path style="fill:none;stroke-width:0.7;stroke-linecap:round;stroke-linejoin:round;stroke-miterlimit:3;stroke:#000000;stroke-opacity:0.4" d="M-3.2 1.9L-4.75 2L-6.25 3.55L-5.55 4.05Q-4.9 2.75 -3.85 2.6Q-3.45 2.85 -3.7 3.5L-4.7 5.7" />
<path style="fill:none;stroke-width:0.7;stroke-linecap:round;stroke-linejoin:round;stroke-miterlimit:3;stroke:#000000;stroke-opacity:0.4" d="M-4.15 5.7L-2.9 3.2L-3.2 1.9L-2.3 1.8" />
<path style="fill:none;stroke-width:0.7;stroke-linecap:round;stroke-linejoin:round;stroke-miterlimit:3;stroke:#000000;stroke-opacity:0.4" d="M-1.35 3.5L-1.65 4.15L-1.45 5.75" />
<path style="fill:none;stroke-width:0.7;stroke-linecap:round;stroke-linejoin:round;stroke-miterlimit:3;stroke:#000000;stroke-opacity:0.4" d="M-0.3 5.3L-0.4 5.75" />
<path style="fill:none;stroke-width:0.7;stroke-linecap:round;stroke-linejoin:round;stroke-miterlimit:3;stroke:#000000;stroke-opacity:0.4" d="M-0.95 5.75L-0.8 4.4" />
<path style="fill:none;stroke-width:0.7;stroke-linecap:round;stroke-linejoin:round;stroke-miterlimit:3;stroke:#000000;stroke-opacity:0.4" d="M-8.2 2.1L-4.75 2" />
<path style="fill:none;stroke-width:0.7;stroke-linecap:round;stroke-linejoin:round;stroke-miterlimit:3;stroke:#000000;stroke-opacity:0.4" d="M6.2 1.4L7.45 1.35" />
<path style="fill:none;stroke-width:0.7;stroke-linecap:round;stroke-linejoin:round;stroke-miterlimit:3;stroke:#000000;stroke-opacity:0.4" d="M5.9 6.4L6.85 2.8L7.55 2.7Q7.6 4.65 7 6.35" />
<path style="fill:none;stroke-width:0.7;stroke-linecap:round;stroke-linejoin:round;stroke-miterlimit:3;stroke:#000000;stroke-opacity:0.4" d="M9.35 4.7L9.35 4.75L9.6 5.1" />
<path style="fill:none;stroke-width:0.7;stroke-linecap:round;stroke-linejoin:round;stroke-miterlimit:3;stroke:#000000;stroke-opacity:0.4" d="M8.35 2.2L8.15 4.2L9.1 3.95" />
<path style="fill:none;stroke-width:0.7;stroke-linecap:round;stroke-linejoin:round;stroke-miterlimit:3;stroke:#000000;stroke-opacity:0.4" d="M0.35 1.7L2.25 1.6L4.55 1.45L6.2 1.4Q5.7 4.3 4.8 6.45" />
<path style="fill:none;stroke-width:0.7;stroke-linecap:round;stroke-linejoin:round;stroke-miterlimit:3;stroke:#000000;stroke-opacity:0.4" d="M4.55 1.45Q2.75 2.6 1.8 4.25L2.5 4.4Q3.3 3.2 5 2.35Q5.6 2.1 4.1 6.4" />
<path style="fill:none;stroke-width:0.7;stroke-linecap:round;stroke-linejoin:round;stroke-miterlimit:3;stroke:#000000;stroke-opacity:0.4" d="M-0.3 5.3Q0.2 3.25 2.25 1.6" />
</g>
</svg>
