<?xml version="1.0" encoding="utf-8"?>
<svg version="1.1" id="Layer_1"
xmlns="http://www.w3.org/2000/svg"
xmlns:xlink="http://www.w3.org/1999/xlink"
width="12px" height="10px"
xml:space="preserve">
<g id="PathID_396" transform="matrix(1, 0, 0, 1, 0.15, 0.15)">
<path style="fill:#808080;fill-opacity:1" d="M2.8 4.7L3.55 4.25Q4.3 3.8 5.1 3.5Q4.3 3.8 3.55 4.25Q1.9 4.4 1.65 3.5L1.5 1.65Q2.85 3.35 4.55 2.65Q5.85 1.75 6.05 0Q5.8 2.95 8.35 2.1L11.45 1.15Q6.2 3.3 6.7 5.3L7.15 6.05Q5.85 5 4.5 5.5Q2.25 6.3 2.8 4.7" />
<path style="fill:#4F4943;fill-opacity:1" d="M8.15 6.75Q5.2 5.6 3.8 7.1Q3 7.95 3.3 9Q1.65 6.45 0 7.25L0.1 6.8Q1.4 5.55 2.8 4.7Q1.4 5.55 0.1 6.8L0.2 6.35Q1.45 5.2 1.65 3.5Q1.9 4.4 3.55 4.25L2.8 4.7Q2.25 6.3 4.5 5.5Q5.85 5 7.15 6.05L8.15 6.75" />
<path style="fill:none;stroke-width:0.7;stroke-linecap:round;stroke-linejoin:round;stroke-miterlimit:3;stroke:#000000;stroke-opacity:0.4" d="M7.15 6.05L6.7 5.3Q6.2 3.3 11.45 1.15L8.35 2.1Q5.8 2.95 6.05 0Q5.85 1.75 4.55 2.65Q2.85 3.35 1.5 1.65L1.65 3.5" />
<path style="fill:none;stroke-width:0.7;stroke-linecap:round;stroke-linejoin:round;stroke-miterlimit:3;stroke:#000000;stroke-opacity:0.4" d="M3.55 4.25Q4.3 3.8 5.1 3.5" />
<path style="fill:none;stroke-width:0.7;stroke-linecap:round;stroke-linejoin:round;stroke-miterlimit:3;stroke:#000000;stroke-opacity:0.4" d="M2.8 4.7L3.55 4.25" />
<path style="fill:none;stroke-width:0.7;stroke-linecap:round;stroke-linejoin:round;stroke-miterlimit:3;stroke:#000000;stroke-opacity:0.4" d="M2.8 4.7Q1.4 5.55 0.1 6.8L0 7.25Q1.65 6.45 3.3 9Q3 7.95 3.8 7.1Q5.2 5.6 8.15 6.75L7.15 6.05" />
<path style="fill:none;stroke-width:0.7;stroke-linecap:round;stroke-linejoin:round;stroke-miterlimit:3;stroke:#000000;stroke-opacity:0.4" d="M1.65 3.5Q1.45 5.2 0.2 6.35L0.1 6.8" />
</g>
</svg>
