<?xml version="1.0" encoding="utf-8"?>
<svg version="1.1" id="Layer_1"
xmlns="http://www.w3.org/2000/svg"
xmlns:xlink="http://www.w3.org/1999/xlink"
width="23px" height="26px"
xml:space="preserve">
<g id="PathID_1283" transform="matrix(1, 0, 0, 1, 0.1, 0.1)">
<path style="fill:#808080;fill-opacity:0.498039" d="M21.4 14.3Q20.7 11.15 18.5 7.85L16.65 5.65Q13.05 1.9 8.9 0.85Q4.75 -0.2 2.55 2.05Q1.15 3.45 1.05 5.65Q1 6.2 1.7 10.9Q2.7 14.2 4.55 17L4.2 17.4L4.8 16.6Q8.55 19.5 12.85 21.05L16.65 22.1Q18.5 22.3 20.15 21.1Q21.2 20.35 21.55 18.25Q21.85 16.25 21.4 14.3M21.4 20.95Q20.6 22.1 19.6 22.45L17.8 22.85L14 22.6Q11.1 21.95 8 20.15L4.2 17.4L4.55 17L3.85 17.8Q1.5 15.1 0.5 10.5Q0.05 8.3 0 5.45Q0.2 3.1 1.65 1.65Q4.1 -0.8 8.6 0.4Q13.05 1.55 17.05 5.65L18.75 7.6L20.15 9.65Q21.65 12.25 22.1 14.4Q23 18.6 21.4 20.95M1.4 21.4L3 22.35Q4.75 23.2 7.4 23.85L12.2 24.5L12.55 25.1Q6.65 25.1 2.5 23L0.7 21.95L1.4 21.4" />
<path style="fill:none;stroke-width:0.7;stroke-linecap:round;stroke-linejoin:round;stroke-miterlimit:3;stroke:#000000;stroke-opacity:0.498039" d="M21.4 14.3Q20.7 11.15 18.5 7.85L16.65 5.65Q13.05 1.9 8.9 0.85Q4.75 -0.2 2.55 2.05Q1.15 3.45 1.05 5.65Q1 6.2 1.7 10.9Q2.7 14.2 4.55 17L4.8 16.6Q8.55 19.5 12.85 21.05L16.65 22.1Q18.5 22.3 20.15 21.1Q21.2 20.35 21.55 18.25Q21.85 16.25 21.4 14.3z" />
<path style="fill:none;stroke-width:0.7;stroke-linecap:round;stroke-linejoin:round;stroke-miterlimit:3;stroke:#000000;stroke-opacity:0.498039" d="M21.4 20.95Q20.6 22.1 19.6 22.45L17.8 22.85L14 22.6Q11.1 21.95 8 20.15L4.2 17.4L3.85 17.8Q1.5 15.1 0.5 10.5Q0.05 8.3 0 5.45Q0.2 3.1 1.65 1.65Q4.1 -0.8 8.6 0.4Q13.05 1.55 17.05 5.65L18.75 7.6L20.15 9.65Q21.65 12.25 22.1 14.4Q23 18.6 21.4 20.95z" />
<path style="fill:none;stroke-width:0.7;stroke-linecap:round;stroke-linejoin:round;stroke-miterlimit:3;stroke:#000000;stroke-opacity:0.498039" d="M1.4 21.4L3 22.35Q4.75 23.2 7.4 23.85L12.2 24.5L12.55 25.1Q6.65 25.1 2.5 23L0.7 21.95L1.4 21.4z" />
<path style="fill:none;stroke-width:0.7;stroke-linecap:round;stroke-linejoin:round;stroke-miterlimit:3;stroke:#000000;stroke-opacity:0.498039" d="M4.2 17.4L4.55 17" />
</g>
</svg>
