<?xml version="1.0" encoding="utf-8"?>
<svg version="1.1" id="Layer_1"
xmlns="http://www.w3.org/2000/svg"
xmlns:xlink="http://www.w3.org/1999/xlink"
width="8px" height="20px"
xml:space="preserve">
<g id="PathID_1589" transform="matrix(1, 0, 0, 1, 0.1, 0.1)">
<path style="fill:#808080;fill-opacity:1" d="M5.9 3.2Q6.85 6.05 5.65 8.3Q4.25 10.15 3.05 11.05Q1.3 12.55 1.95 13.15Q3.5 14.3 2.8 15.45L2.5 16.05L1.75 16.4L2.05 15.15Q2.2 14 1.2 13.1Q0.8 12.3 1.2 11.1Q0.3 12.2 1.2 13.15L1.25 13.2Q1.8 13.9 1.7 14.8Q1.3 16 1.45 16.5Q0.5 16.1 1.1 15.15Q1.35 14 0.55 13.25Q-0.45 12.3 0.4 10.55Q2.8 7.75 2.8 5.85Q2.7 3.95 3.15 2.6Q3.45 1.55 4 0.95Q5.85 0.15 6.3 1.6Q4.4 0.85 4.35 3.75Q5 1 6.45 2.05Q6.5 2.75 6.05 2.75Q5.65 2.5 5.9 3.2" />
<path style="fill:#5B4E4D;fill-opacity:1" d="M6.85 0.05Q7.6 1.25 7 3.6L6.05 2.75Q6.5 2.75 6.45 2.05Q5 1 4.35 3.75Q4.4 0.85 6.3 1.6Q5.85 0.15 4 0.95Q5.05 -0.2 6.85 0.05M1.45 16.5Q1.3 16 1.7 14.8Q1.8 13.9 1.25 13.2L1.2 13.15Q0.3 12.2 1.2 11.1Q0.8 12.3 1.2 13.1Q2.2 14 2.05 15.15L1.75 16.4L2.5 16.05Q2.15 16.85 2.75 17.05Q3.85 18 1.4 19.1Q2.95 17.8 1.45 16.5" />
<path style="fill:none;stroke-width:0.7;stroke-linecap:round;stroke-linejoin:round;stroke-miterlimit:3;stroke:#000000;stroke-opacity:0.498039" d="M4 0.95Q3.45 1.55 3.15 2.6Q2.7 3.95 2.8 5.85Q2.8 7.75 0.4 10.55Q-0.45 12.3 0.55 13.25Q1.35 14 1.1 15.15Q0.5 16.1 1.45 16.5" />
<path style="fill:none;stroke-width:0.7;stroke-linecap:round;stroke-linejoin:round;stroke-miterlimit:3;stroke:#000000;stroke-opacity:0.498039" d="M2.5 16.05L2.8 15.45Q3.5 14.3 1.95 13.15Q1.3 12.55 3.05 11.05Q4.25 10.15 5.65 8.3Q6.85 6.05 5.9 3.2Q5.65 2.5 6.05 2.75L7 3.6Q7.6 1.25 6.85 0.05Q5.05 -0.2 4 0.95" />
<path style="fill:none;stroke-width:0.7;stroke-linecap:round;stroke-linejoin:round;stroke-miterlimit:3;stroke:#000000;stroke-opacity:0.498039" d="M2.5 16.05Q2.15 16.85 2.75 17.05Q3.85 18 1.4 19.1Q2.95 17.8 1.45 16.5" />
</g>
</svg>
