<?xml version="1.0" encoding="utf-8"?>
<svg version="1.1" id="Layer_1"
xmlns="http://www.w3.org/2000/svg"
xmlns:xlink="http://www.w3.org/1999/xlink"
width="24px" height="37px"
xml:space="preserve">
<g id="PathID_2764" transform="matrix(1, 0, 0, 1, 11.7, 18.35)">
<path style="fill:#3C3835;fill-opacity:1" d="M-1.5 -7.55L-0.9 -7.75Q-2.3 -3.65 -1.5 1.35L-0.35 4.4L-1.8 5.2L-2.7 2L-2.75 0.15L-2.7 -1.7L-2.15 -5.15L-1.5 -7.55" />
<path style="fill:#8C887F;fill-opacity:1" d="M-1.5 -7.55L-2.15 -5.15L-3.7 -4.9L-1.5 -7.55" />
<path style="fill:#CEC7C3;fill-opacity:1" d="M-5.35 0.55L-5.4 0.5L-3.8 -4.8L-3.7 -4.9L-2.15 -5.15L-2.7 -1.7L-2.75 0.15L-5.35 0.55" />
<path style="fill:#646060;fill-opacity:1" d="M-5.35 0.55L-2.75 0.15L-2.7 2L-1.8 5.2L-3.4 6L-5.35 0.55" />
<path style="fill:none;stroke-width:0.7;stroke-linecap:round;stroke-linejoin:round;stroke-miterlimit:3;stroke:#000000;stroke-opacity:0.4" d="M-3.7 -4.9L-3.8 -4.8L-5.4 0.5L-5.35 0.55" />
<path style="fill:none;stroke-width:0.7;stroke-linecap:round;stroke-linejoin:round;stroke-miterlimit:3;stroke:#000000;stroke-opacity:0.4" d="M-1.8 5.2L-0.35 4.4L-1.5 1.35Q-2.3 -3.65 -0.9 -7.75L-1.5 -7.55" />
<path style="fill:none;stroke-width:0.7;stroke-linecap:round;stroke-linejoin:round;stroke-miterlimit:3;stroke:#000000;stroke-opacity:0.4" d="M-1.5 -7.55L-3.7 -4.9" />
<path style="fill:none;stroke-width:0.7;stroke-linecap:round;stroke-linejoin:round;stroke-miterlimit:3;stroke:#000000;stroke-opacity:0.4" d="M-1.8 5.2L-3.4 6L-5.35 0.55" />
</g>
<g id="PathID_2765" transform="matrix(1, 0, 0, 1, 11.7, 18.35)">
<linearGradient
id="LinearGradID_836" gradientUnits="userSpaceOnUse" gradientTransform="matrix(0.00209045, 0.00393677, -0.00956726, 0.00511169, -10, -8.35)" spreadMethod ="pad" x1="-819.2" y1="0" x2="819.2" y2="0" >
<stop  offset="0" style="stop-color:#E3DBD8;stop-opacity:1" />
<stop  offset="1" style="stop-color:#8C887F;stop-opacity:1" />
<stop  offset="1" style="stop-color:#515151;stop-opacity:1" />
</linearGradient>
<path style="fill:url(#LinearGradID_836) " d="M-9.4 -10.55L-8.6 -4.35L-10.8 -0.5L-11.45 -3.4Q-12.35 -9.95 -9.4 -18.3L-9.35 -18.3Q-9.7 -14.5 -9.4 -10.55" />
<path style="fill:#504C49;fill-opacity:1" d="M-9.35 -18.3L-8.95 -18.25Q-9.05 -12.4 -6.95 -2.25L-2.1 18.25L-7.4 18.2Q-8.5 11.2 -10.8 -0.5L-8.6 -4.35L-9.4 -10.55Q-9.7 -14.5 -9.35 -18.3" />
<path style="fill:none;stroke-width:0.7;stroke-linecap:round;stroke-linejoin:round;stroke-miterlimit:3;stroke:#000000;stroke-opacity:0.4" d="M-10.8 -0.5L-11.45 -3.4Q-12.35 -9.95 -9.4 -18.3L-9.35 -18.3L-8.95 -18.25Q-9.05 -12.4 -6.95 -2.25L-2.1 18.25L-7.4 18.2Q-8.5 11.2 -10.8 -0.5z" />
</g>
<g id="PathID_2766" transform="matrix(1, 0, 0, 1, 11.7, 18.35)">
<path style="fill:#CEC7C3;fill-opacity:1" d="M4.05 -2.9Q1.3 -12.6 -1.4 -17.75Q2.3 -14.1 4.6 -10.35L3.05 -7.5L5 -1.4L4.1 -2.6L4.05 -2.9" />
<path style="fill:#504C49;fill-opacity:1" d="M10.7 8.3L7.75 -2.2L7 -5.2Q6.15 -7.8 4.6 -10.35Q2.3 -14.1 -1.4 -17.75L-1.6 -18.05L-1.1 -18.1Q5.3 -12.3 7.55 -6.05L8.3 -3.15L11.65 7.75L10.7 8.3" />
<path style="fill:#8C887F;fill-opacity:1" d="M7 -5.2L7.75 -2.2L10.7 8.3L6.95 10.3Q5.25 3.25 4.1 -2.6L5 -1.4L3.05 -7.5L4.6 -10.35Q6.15 -7.8 7 -5.2" />
<path style="fill:none;stroke-width:0.7;stroke-linecap:round;stroke-linejoin:round;stroke-miterlimit:3;stroke:#000000;stroke-opacity:0.4" d="M4.1 -2.6Q5.25 3.25 6.95 10.3L10.7 8.3L7.75 -2.2L7 -5.2Q6.15 -7.8 4.6 -10.35Q2.3 -14.1 -1.4 -17.75Q1.3 -12.6 4.05 -2.9L4.1 -2.6z" />
<path style="fill:none;stroke-width:0.7;stroke-linecap:round;stroke-linejoin:round;stroke-miterlimit:3;stroke:#000000;stroke-opacity:0.4" d="M-1.4 -17.75L-1.6 -18.05L-1.1 -18.1Q5.3 -12.3 7.55 -6.05L8.3 -3.15L11.65 7.75L10.7 8.3" />
</g>
</svg>
