<?xml version="1.0" encoding="utf-8"?>
<svg version="1.1" id="Layer_1"
xmlns="http://www.w3.org/2000/svg"
xmlns:xlink="http://www.w3.org/1999/xlink"
width="5px" height="4px"
xml:space="preserve">
<g id="PathID_652" transform="matrix(1, 0, 0, 1, 0.1, 0.1)">
<path style="fill:#808080;fill-opacity:1" d="M1.2 0Q1.8 0 2.5 0.4Q3.5 0.95 3.8 1.85Q4.15 2.75 3.6 3.3Q3.2 3.7 2.65 3.7L1.45 3.4Q0.5 2.9 0.15 1.85Q-0.2 0.9 0.3 0.4Q0.65 0 1.2 0" />
<path style="fill:none;stroke-width:0.7;stroke-linecap:round;stroke-linejoin:round;stroke-miterlimit:3;stroke:#000000;stroke-opacity:0.301961" d="M1.2 0Q1.8 0 2.5 0.4Q3.5 0.95 3.8 1.85Q4.15 2.75 3.6 3.3Q3.2 3.7 2.65 3.7L1.45 3.4Q0.5 2.9 0.15 1.85Q-0.2 0.9 0.3 0.4Q0.65 0 1.2 0z" />
</g>
</svg>
