<?xml version="1.0" encoding="utf-8"?>
<svg version="1.1" id="Layer_1"
xmlns="http://www.w3.org/2000/svg"
xmlns:xlink="http://www.w3.org/1999/xlink"
width="19px" height="6px"
xml:space="preserve">
<g id="PathID_3472" transform="matrix(1, 0, 0, 1, 0, 0)">
<path style="fill:#585858;fill-opacity:1" d="M17.75 1.85L18.6 2.25L16.65 4.75L15.65 4.2L17.75 1.85M3.75 4L1.25 5.75L0.35 4.9L0 3.8L1.8 2.5L2.65 2L3.75 4" />
<path style="fill:#808080;fill-opacity:1" d="M15.65 4.2L12.65 3.05Q9 2 5.65 3.2L3.75 4L2.65 2L4.25 1.2L4.4 1.3Q5.6 2.1 7 2Q7.5 1.95 8.7 1.1L10.05 0L13.45 0.4L13.55 0.4Q14.9 0.7 17.75 1.85L15.65 4.2" />
</g>
</svg>
