<?xml version="1.0" encoding="utf-8"?>
<svg version="1.1" id="Layer_1"
xmlns="http://www.w3.org/2000/svg"
xmlns:xlink="http://www.w3.org/1999/xlink"
width="7px" height="14px"
xml:space="preserve">
<g id="PathID_1864" transform="matrix(1, 0, 0, 1, 0, 0)">
<path style="fill:#808080;fill-opacity:1" d="M3.1 11.95L3.7 11.4L3.85 10.75Q3.85 9.95 3.25 10.05Q2.65 10.15 2.65 11.1Q2.6 11.9 3.1 11.95M5.35 12.3L2.3 12.45Q2 10.55 2.6 8.75L3.15 9.25L4.05 9.7L5.45 9.9Q5.8 10.9 5.35 12.3" />
<path style="fill:#BBBBBB;fill-opacity:1" d="M2.65 11.1Q2.65 10.15 3.25 10.05Q3.85 9.95 3.85 10.75L3.7 11.4L3.1 11.95Q2.6 11.9 2.65 11.1" />
<path style="fill:#4F4943;fill-opacity:1" d="M5.45 9.9L6.25 9.9Q6.35 11.95 6.05 13.2Q3.8 13.2 2.3 12.45L5.35 12.3Q5.8 10.9 5.45 9.9" />
<path style="fill:none;stroke-width:0.7;stroke-linecap:round;stroke-linejoin:round;stroke-miterlimit:3;stroke:#000000;stroke-opacity:0.4" d="M2.3 12.45Q2 10.55 2.6 8.75L3.15 9.25L4.05 9.7L5.45 9.9L6.25 9.9Q6.35 11.95 6.05 13.2Q3.8 13.2 2.3 12.45z" />
</g>
<g id="PathID_1865" transform="matrix(1, 0, 0, 1, 0, 0)">
<path style="fill:#808080;fill-opacity:1" d="M0 2.95Q0.2 2.05 1.85 0Q1.85 0.35 2 0.7L2.6 1.6L3.65 2.5Q2.8 3.65 1.55 3.55Q0.8 3.5 0 2.95M1.8 1.85Q1.8 1.15 1.3 1.25Q0.75 1.4 0.75 2.05Q0.75 2.5 1.15 2.55L1.6 2.3L1.8 1.85" />
<path style="fill:#4F4943;fill-opacity:1" d="M1.55 3.55Q2.8 3.65 3.65 2.5L4.05 2.8Q3.05 4.8 2.45 5.3Q0.5 4.6 0 3.1L0 2.95Q0.8 3.5 1.55 3.55" />
<path style="fill:#BBBBBB;fill-opacity:1" d="M1.6 2.3L1.15 2.55Q0.75 2.5 0.75 2.05Q0.75 1.4 1.3 1.25Q1.8 1.15 1.8 1.85L1.6 2.3" />
<path style="fill:none;stroke-width:0.7;stroke-linecap:round;stroke-linejoin:round;stroke-miterlimit:3;stroke:#000000;stroke-opacity:0.4" d="M3.65 2.5L4.05 2.8Q3.05 4.8 2.45 5.3Q0.5 4.6 0 3.1L0 2.95Q0.2 2.05 1.85 0Q1.85 0.35 2 0.7L2.6 1.6L3.65 2.5z" />
</g>
</svg>
