<?xml version="1.0" encoding="utf-8"?>
<svg version="1.1" id="Layer_1"
xmlns="http://www.w3.org/2000/svg"
xmlns:xlink="http://www.w3.org/1999/xlink"
width="16px" height="8px"
xml:space="preserve">
<g id="PathID_3523" transform="matrix(1, 0, 0, 1, 7.55, 3.7)">
<path style="fill:#808080;fill-opacity:1" d="M-1.05 -3.25L-0.55 -2.95L0.25 -2.6Q-2 -1.8 -4.15 -1.65L-5.6 -1.6L-6.05 -1.6L-6.5 -1.6Q-7.25 0.3 -5.35 1.6L-2.95 2.95L-3 2.95Q-5.2 2.35 -6.35 1.55Q-7.15 1 -7.35 -0.4Q-7.55 -1.75 -7.05 -2.25L-5.2 -2.7L-2.05 -3.4L-1.05 -3.25" />
<path style="fill:#6D6D6D;fill-opacity:1" d="M-5.35 1.6Q-7.25 0.3 -6.5 -1.6L-6.05 -1.6L-5.6 -1.6L-4.15 -1.65Q-2 -1.8 0.25 -2.6L1.35 -2.4L2.05 -2.55L2.6 -2.75L3.8 -3.45L4.5 -3.3L4.6 -3.25Q7.6 -2.5 7.45 -0.7Q7.3 1.35 5.95 2.45Q4.65 3.5 2.6 3.55L-2.8 3L-2.9 3L-2.95 2.95L-5.35 1.6M-2.05 -3.4L-1.45 -3.55L-1.05 -3.25L-2.05 -3.4" />
<path style="fill:none;stroke-width:0.7;stroke-linecap:round;stroke-linejoin:round;stroke-miterlimit:3;stroke:#000000;stroke-opacity:0.301961" d="M-2.95 2.95L-2.9 3L-2.8 3L2.6 3.55Q4.65 3.5 5.95 2.45Q7.3 1.35 7.45 -0.7Q7.6 -2.5 4.6 -3.25L4.5 -3.3" />
<path style="fill:none;stroke-width:0.7;stroke-linecap:round;stroke-linejoin:round;stroke-miterlimit:3;stroke:#000000;stroke-opacity:0.301961" d="M-2.95 2.95L-3 2.95Q-5.2 2.35 -6.35 1.55Q-7.15 1 -7.35 -0.4Q-7.55 -1.75 -7.05 -2.25L-5.2 -2.7L-2.05 -3.4L-1.45 -3.55" />
</g>
</svg>
