<?xml version="1.0" encoding="utf-8"?>
<svg version="1.1" id="Layer_1"
xmlns="http://www.w3.org/2000/svg"
xmlns:xlink="http://www.w3.org/1999/xlink"
width="45px" height="32px"
xml:space="preserve">
<g id="PathID_1599" transform="matrix(1, 0, 0, 1, 0.1, 0.1)">
<path style="fill:#808080;fill-opacity:1" d="M38.85 12.65Q35.2 11.45 33.15 8.7Q31.05 5.95 25.4 3.2L28.1 2.4L30.2 2.35Q28.15 0.25 25.2 0.45L25.6 0.3L26.15 0.1L28.3 0.3Q29.35 0.7 30.6 1.7Q33.2 3.8 36.1 3.25Q38.95 2.65 40.65 4.4Q38.95 5.8 37.45 4.15Q36.8 5.65 36.95 6.95Q35.65 6 35.15 4.5Q33.4 8.25 37.25 10.7Q36.4 8.8 37.45 8.8Q37.8 8.65 38.75 9.5Q38.3 6.9 39.45 6.4Q40.55 5.85 41.45 7Q41.35 8 40.65 9.1Q43.2 7.2 44.65 9.7Q43.55 8.9 42.3 9.25Q40.55 9.7 40.05 11.5L39.45 11L40.05 11.5L41.25 11.8Q42.2 11.7 43.2 10.65L43.05 11.45Q41.95 13.15 38.85 12.65M26.9 24.95Q26.35 25.8 25.15 25.85L25.65 24.6L26.9 24.95M19.55 22.65Q19.75 22.05 19.4 21.5L18.6 20.7Q18.9 20.55 19 20Q20.5 23.05 25.15 24.05Q24 25 22.05 23.8L20.85 23.05L19.55 22.65M13.75 9.8Q13.2 12.7 13.2 13.3Q12.8 12.75 11.9 12.75Q9 12.75 6.4 14.7Q3.75 16.6 0.1 13.85L1.65 14.4L3.95 14.45Q-0.2 12.7 0.8 9.65L1.85 8.7Q2.95 8.05 4.65 7.95L4 8.5L3.6 8.85Q2.15 10.45 1.85 8.7Q0.9 9.9 1.6 11.6Q1.7 9.55 2.95 10.55L3 11.1Q3.75 10.15 6.15 10.4Q4.45 11.1 5.1 12.4Q5.85 13.3 7.05 12.7L7.75 12L8.25 11.3Q9.75 10.1 9.2 12.6L12.7 10Q9.5 10.25 9.85 8.1Q10.6 7.65 11.75 7.65L12.6 7.65Q10.9 5.95 8.55 6.45Q10.3 4.8 13.2 5.9L13.7 6.1L12.15 4.85L13.55 4.75L15.2 4.95Q14.45 6.3 13.75 9.8M3 11.1L2.65 12L3 11.1" />
<path style="fill:#5E5E5E;fill-opacity:1" d="M42.3 9.25Q43.55 8.9 44.65 9.7Q45.1 10.85 44.35 11.55Q44.25 10 42.9 10Q41.45 10 41.25 11.8L40.05 11.5Q40.55 9.7 42.3 9.25M23.1 1.7Q24 0.9 25.2 0.45Q28.15 0.25 30.2 2.35L28.1 2.4Q26.1 0.85 23.1 1.7M15.85 21.05Q14.45 20.1 15.2 18.65L15.85 18.95Q15.6 20.6 16.95 21.05Q16.1 22.1 16.95 23L16.4 23.3Q15.75 22.75 15.85 21.05M8.2 24.1Q9 22.55 10.15 22.7Q11.4 22.85 10.8 25.25L12.25 22.95Q12.1 23.65 12.9 24.8L13.5 23.7Q14.05 22.75 14.35 22.6Q13.65 24.6 15.05 26.4L15.75 27.2Q16.6 28.35 18.35 27.65Q19.1 27.3 19.3 26.75Q19.5 28.55 19.1 29.35Q18.65 30.1 17.95 30.25L16.85 30.3L16.75 30.6Q16.55 30.9 16.05 31.05Q14.55 31.45 13.55 30.6Q12.95 30.15 12.5 29.3L12.15 28.25L10 28.2Q8.95 27.85 8.3 26.9L8.05 26.4L7.8 25.6L7.65 24.25L7.8 22.95L8.2 24.1M15.1 17.65L15 18.1Q14.35 18.7 13.7 18.1L13.2 18.4Q12.55 18.6 11.85 18.1L12.15 17.6L13.4 17.8Q14.15 17.6 14.3 17.3L15.1 17.65M12.15 15.1Q12.1 13.45 9.65 14.5L8.05 15.35L6.65 16.3L1.95 16.5Q0.25 15.75 0.1 13.85Q3.75 16.6 6.4 14.7Q9 12.75 11.9 12.75Q12.8 12.75 13.2 13.3L13.2 13.35Q13.5 13.85 13.45 14.75L12.9 14.8L12.15 15.1M1.65 14.4Q0.35 13.65 0.1 12.4Q-0.05 11.8 0.1 11.1L0.25 10.45L0.8 9.65Q-0.2 12.7 3.95 14.45L1.65 14.4M12.6 7.65L11.75 7.65L9.25 7.35L7.6 7.6L8.55 6.45Q10.9 5.95 12.6 7.65M12.15 28.25Q12.05 27.85 12.25 26.95L12.4 26.4L12.5 26L12.4 26.4L12.25 26.95Q12.05 27.85 12.15 28.25M16.85 30.3Q15.9 30.3 15.1 29.45Q15.9 30.3 16.85 30.3" />
<path style="fill:#D3D3D3;fill-opacity:1" d="M41.45 7Q40.55 5.85 39.45 6.4Q38.3 6.9 38.75 9.5Q37.8 8.65 37.45 8.8Q36.4 8.8 37.25 10.7Q33.4 8.25 35.15 4.5Q35.65 6 36.95 6.95Q36.8 5.65 37.45 4.15Q38.95 5.8 40.65 4.4Q41.55 5.6 41.45 7M26.4 24.2Q27.25 22.25 25.75 21.25Q27.5 22.35 27.65 21.8L27.85 22.6L26.4 24.2M12.25 22.95L10.8 25.25Q11.4 22.85 10.15 22.7Q9 22.55 8.2 24.1L7.8 22.95L8.55 21.8L10.05 20.05L10.15 20Q9.45 21.65 11.65 20.7L11.65 22.05L13.05 20.65L12.25 22.95M1.6 11.6Q0.9 9.9 1.85 8.7Q2.15 10.45 3.6 8.85Q3 9.6 2.95 10.55Q1.7 9.55 1.6 11.6M12.7 10L9.2 12.6Q9.75 10.1 8.25 11.3L8.35 10.85Q8.5 8.85 9.85 8.1Q9.5 10.25 12.7 10" />
<linearGradient
id="LinearGradID_442" gradientUnits="userSpaceOnUse" gradientTransform="matrix(0.00120544, -0.00213623, 0.0114899, 0.0065918, 26.9, 22.9)" spreadMethod ="pad" x1="-819.2" y1="0" x2="819.2" y2="0" >
<stop  offset="0" style="stop-color:#808080;stop-opacity:1" />
<stop  offset="1" style="stop-color:#5E5E5E;stop-opacity:1" />
</linearGradient>
<path style="fill:url(#LinearGradID_442) " d="M19 20L18.9 19.1L18.3 18L19.1 16.35L22.7 11.95L19.1 16.35L18.95 15.95Q17.6 12.9 19.7 8.55Q21.55 4.7 25.4 3.2Q31.05 5.95 33.15 8.7Q35.2 11.45 38.85 12.65Q41.95 13.15 43.05 11.45Q42.7 12.5 42 13.05Q38.75 14.95 35.95 12.35Q33.15 9.7 29 9.7Q25.8 10.15 25 15.1Q24.8 15.95 24.75 16.95Q24.5 19.85 26.75 21Q27.4 21.25 27.65 21.8Q27.5 22.35 25.75 21.25Q27.25 22.25 26.4 24.2L27.85 22.6L27.5 23.85L26.9 24.95L25.65 24.6L25.85 23.15L25.15 24.05Q20.5 23.05 19 20M25.15 21.35Q25.75 22.2 25.85 23.15Q25.75 22.2 25.15 21.35" />
<linearGradient
id="LinearGradID_443" gradientUnits="userSpaceOnUse" gradientTransform="matrix(0.00238037, 0.00062561, -0.00160217, 0.0059967, 15.75, 9.55)" spreadMethod ="pad" x1="-819.2" y1="0" x2="819.2" y2="0" >
<stop  offset="0" style="stop-color:#808080;stop-opacity:1" />
<stop  offset="1" style="stop-color:#5E5E5E;stop-opacity:1" />
</linearGradient>
<path style="fill:url(#LinearGradID_443) " d="M16.4 14.9Q16.2 14.55 15.45 14.4Q14.65 14.25 13.9 15.15L13.45 14.75Q13.5 13.85 13.2 13.35L13.2 13.3Q13.2 12.7 13.75 9.8Q14.45 6.3 15.2 4.95Q16.55 5.45 17.65 6.8Q19.75 9.4 16.65 14.2L16.4 14.9" />
<linearGradient
id="LinearGradID_444" gradientUnits="userSpaceOnUse" gradientTransform="matrix(0.00390625, 0, 0, 0.0055542, 13.2, 22.65)" spreadMethod ="pad" x1="-819.2" y1="0" x2="819.2" y2="0" >
<stop  offset="0" style="stop-color:#808080;stop-opacity:1" />
<stop  offset="1" style="stop-color:#5E5E5E;stop-opacity:1" />
</linearGradient>
<path style="fill:url(#LinearGradID_444) " d="M15 18.1L15.2 18.65Q14.45 20.1 15.85 21.05Q15.75 22.75 16.4 23.3Q14.65 24.35 15.3 26.35L15.75 27.2L15.05 26.4Q13.65 24.6 14.35 22.6Q14.05 22.75 13.5 23.7L12.9 24.8Q12.1 23.65 12.25 22.95L13.05 20.65L11.65 22.05L11.65 20.7Q9.45 21.65 10.15 20L11.85 18.1Q12.55 18.6 13.2 18.4L13.7 18.1Q14.35 18.7 15 18.1" />
<path style="fill:none;stroke-width:0.7;stroke-linecap:round;stroke-linejoin:round;stroke-miterlimit:3;stroke:#000000;stroke-opacity:0.298039" d="M43.05 11.45L43.2 10.65Q42.2 11.7 41.25 11.8L40.05 11.5L39.45 11" />
<path style="fill:none;stroke-width:0.7;stroke-linecap:round;stroke-linejoin:round;stroke-miterlimit:3;stroke:#000000;stroke-opacity:0.298039" d="M41.25 11.8Q41.45 10 42.9 10Q44.25 10 44.35 11.55Q45.1 10.85 44.65 9.7" />
<path style="fill:none;stroke-width:0.7;stroke-linecap:round;stroke-linejoin:round;stroke-miterlimit:3;stroke:#000000;stroke-opacity:0.298039" d="M44.65 9.7Q43.2 7.2 40.65 9.1Q41.35 8 41.45 7" />
<path style="fill:none;stroke-width:0.7;stroke-linecap:round;stroke-linejoin:round;stroke-miterlimit:3;stroke:#000000;stroke-opacity:0.298039" d="M40.65 4.4Q38.95 2.65 36.1 3.25Q33.2 3.8 30.6 1.7Q29.35 0.7 28.3 0.3L26.15 0.1L25.6 0.3L25.2 0.45" />
<path style="fill:none;stroke-width:0.7;stroke-linecap:round;stroke-linejoin:round;stroke-miterlimit:3;stroke:#000000;stroke-opacity:0.298039" d="M28.1 2.4L25.4 3.2" />
<path style="fill:none;stroke-width:0.7;stroke-linecap:round;stroke-linejoin:round;stroke-miterlimit:3;stroke:#000000;stroke-opacity:0.298039" d="M43.05 11.45Q42.7 12.5 42 13.05Q38.75 14.95 35.95 12.35Q33.15 9.7 29 9.7Q25.8 10.15 25 15.1Q24.8 15.95 24.75 16.95Q24.5 19.85 26.75 21Q27.4 21.25 27.65 21.8L27.85 22.6L27.5 23.85L26.9 24.95Q26.35 25.8 25.15 25.85L25.65 24.6L25.85 23.15L25.15 24.05Q24 25 22.05 23.8L20.85 23.05Q20.65 24.6 19.35 24.65Q18 24.65 17.9 23.5L16.95 23L16.4 23.3Q14.65 24.35 15.3 26.35L15.75 27.2Q16.6 28.35 18.35 27.65Q19.1 27.3 19.3 26.75Q19.5 28.55 19.1 29.35Q18.65 30.1 17.95 30.25L16.85 30.3L16.75 30.6Q16.55 30.9 16.05 31.05Q14.55 31.45 13.55 30.6Q12.95 30.15 12.5 29.3L12.15 28.25L10 28.2Q8.95 27.85 8.3 26.9L8.05 26.4L7.8 25.6L7.65 24.25L7.8 22.95L8.55 21.8L10.05 20.05L10.15 20L11.85 18.1L12.15 17.6Q10.9 18 10.8 16.65Q10.65 15.2 12.15 15.1Q12.1 13.45 9.65 14.5L8.05 15.35L6.65 16.3L1.95 16.5Q0.25 15.75 0.1 13.85L1.65 14.4Q0.35 13.65 0.1 12.4Q-0.05 11.8 0.1 11.1L0.25 10.45L0.8 9.65L1.85 8.7Q2.95 8.05 4.65 7.95L4 8.5L3.6 8.85Q3 9.6 2.95 10.55L3 11.1Q3.75 10.15 6.15 10.4Q4.45 11.1 5.1 12.4Q5.85 13.3 7.05 12.7L7.75 12L8.25 11.3L8.35 10.85Q8.5 8.85 9.85 8.1Q10.6 7.65 11.75 7.65L9.25 7.35L7.6 7.6L8.55 6.45Q10.3 4.8 13.2 5.9L13.7 6.1L12.15 4.85L13.55 4.75L15.2 4.95Q16.55 5.45 17.65 6.8Q19.75 9.4 16.65 14.2Q17.9 14.3 17.8 15.3Q17.65 16.25 16.8 16.35Q16.65 17.65 15.1 17.65L15 18.1L15.2 18.65L15.85 18.95L16.5 18.15Q16.5 15.9 18.95 15.95Q17.6 12.9 19.7 8.55Q21.55 4.7 25.4 3.2" />
<path style="fill:none;stroke-width:0.7;stroke-linecap:round;stroke-linejoin:round;stroke-miterlimit:3;stroke:#000000;stroke-opacity:0.298039" d="M41.45 7Q41.55 5.6 40.65 4.4" />
<path style="fill:none;stroke-width:0.7;stroke-linecap:round;stroke-linejoin:round;stroke-miterlimit:3;stroke:#000000;stroke-opacity:0.298039" d="M25.2 0.45Q24 0.9 23.1 1.7Q26.1 0.85 28.1 2.4" />
<path style="fill:none;stroke-width:0.7;stroke-linecap:round;stroke-linejoin:round;stroke-miterlimit:3;stroke:#000000;stroke-opacity:0.298039" d="M25.85 23.15Q25.75 22.2 25.15 21.35" />
<path style="fill:none;stroke-width:0.7;stroke-linecap:round;stroke-linejoin:round;stroke-miterlimit:3;stroke:#000000;stroke-opacity:0.298039" d="M12.6 7.65L11.75 7.65" />
<path style="fill:none;stroke-width:0.7;stroke-linecap:round;stroke-linejoin:round;stroke-miterlimit:3;stroke:#000000;stroke-opacity:0.298039" d="M2.65 12L3 11.1" />
<path style="fill:none;stroke-width:0.7;stroke-linecap:round;stroke-linejoin:round;stroke-miterlimit:3;stroke:#000000;stroke-opacity:0.298039" d="M13.45 14.75L13.9 15.15Q14.65 14.25 15.45 14.4Q16.2 14.55 16.4 14.9L16.65 14.2" />
<path style="fill:none;stroke-width:0.7;stroke-linecap:round;stroke-linejoin:round;stroke-miterlimit:3;stroke:#000000;stroke-opacity:0.298039" d="M16.8 16.35L16.65 15.65L16.4 14.9" />
<path style="fill:none;stroke-width:0.7;stroke-linecap:round;stroke-linejoin:round;stroke-miterlimit:3;stroke:#000000;stroke-opacity:0.298039" d="M18.3 18L19.1 16.35L18.95 15.95" />
<path style="fill:none;stroke-width:0.7;stroke-linecap:round;stroke-linejoin:round;stroke-miterlimit:3;stroke:#000000;stroke-opacity:0.298039" d="M18.3 18L16.5 18.15" />
<path style="fill:none;stroke-width:0.7;stroke-linecap:round;stroke-linejoin:round;stroke-miterlimit:3;stroke:#000000;stroke-opacity:0.298039" d="M13.45 14.75L12.9 14.8L12.15 15.1Q11.3 16.55 12.15 17.6L13.4 17.8Q14.15 17.6 14.3 17.3L14 16.25L13.9 15.15" />
<path style="fill:none;stroke-width:0.7;stroke-linecap:round;stroke-linejoin:round;stroke-miterlimit:3;stroke:#000000;stroke-opacity:0.298039" d="M14.3 17.3L15.1 17.65" />
<path style="fill:none;stroke-width:0.7;stroke-linecap:round;stroke-linejoin:round;stroke-miterlimit:3;stroke:#000000;stroke-opacity:0.298039" d="M19 20Q18.9 20.55 18.6 20.7L19.4 21.5Q19.75 22.05 19.55 22.65L20.85 23.05" />
<path style="fill:none;stroke-width:0.7;stroke-linecap:round;stroke-linejoin:round;stroke-miterlimit:3;stroke:#000000;stroke-opacity:0.298039" d="M18.3 18L18.9 19.1L19 20" />
<path style="fill:none;stroke-width:0.7;stroke-linecap:round;stroke-linejoin:round;stroke-miterlimit:3;stroke:#000000;stroke-opacity:0.298039" d="M16.95 23Q16.1 22.1 16.95 21.05Q15.6 20.6 15.85 18.95" />
<path style="fill:none;stroke-width:0.7;stroke-linecap:round;stroke-linejoin:round;stroke-miterlimit:3;stroke:#000000;stroke-opacity:0.298039" d="M17.9 23.5L18.85 23.15Q19.5 22.8 19.55 22.65" />
<path style="fill:none;stroke-width:0.7;stroke-linecap:round;stroke-linejoin:round;stroke-miterlimit:3;stroke:#000000;stroke-opacity:0.298039" d="M18.6 20.7Q17.45 20.7 16.95 21.05" />
<path style="fill:none;stroke-width:0.7;stroke-linecap:round;stroke-linejoin:round;stroke-miterlimit:3;stroke:#000000;stroke-opacity:0.298039" d="M12.5 26L12.4 26.4L12.25 26.95Q12.05 27.85 12.15 28.25" />
<path style="fill:none;stroke-width:0.7;stroke-linecap:round;stroke-linejoin:round;stroke-miterlimit:3;stroke:#000000;stroke-opacity:0.298039" d="M15.1 29.45Q15.9 30.3 16.85 30.3" />
<path style="fill:none;stroke-width:0.7;stroke-linecap:round;stroke-linejoin:round;stroke-miterlimit:3;stroke:#000000;stroke-opacity:0.298039" d="M22.7 11.95L19.1 16.35" />
</g>
</svg>
