<?xml version="1.0" encoding="utf-8"?>
<svg version="1.1" id="Layer_1"
xmlns="http://www.w3.org/2000/svg"
xmlns:xlink="http://www.w3.org/1999/xlink"
width="20px" height="9px"
xml:space="preserve">
<g id="PathID_1575" transform="matrix(1, 0, 0, 1, 0, 0)">
<path style="fill:#A99797;fill-opacity:1" d="M16.45 0L16.4 2.95L15.9 1.05L14.5 1.9Q15.25 0.9 16.45 0M18.55 4.85L18.65 3.45L16.95 3.45L19.7 3.15L18.55 4.85M4.35 0.5L6.55 2.45L4.85 1.75L4.5 3.65Q4.2 1.9 4.35 0.5M0 3.4L2.8 3.7L1.45 4.05L1.45 5.4L0 3.4" />
<path style="fill:#808080;fill-opacity:1" d="M16.2 3.8L16.95 3.45L14 5.8L13.5 4.05Q13.75 2.9 14.5 1.9L15.9 1.05L16.4 2.95L16.2 3.8M16.95 3.45L18.65 3.45L18.55 4.85L17.85 5.75L16.05 6.3L16.05 4.4L16.2 3.8M7.25 6.5L5.2 5.6L5.75 7.6L2.9 7Q2 6.3 1.45 5.4L1.45 4.05L2.8 3.7Q3.75 3.9 4.6 4.25L4.5 3.65L4.85 1.75L6.55 2.45L7.75 4.25L7.25 6.5" />
<path style="fill:#6F6464;fill-opacity:1" d="M13.5 4.05L14 5.8L16.2 3.8L16.05 4.4L16.05 6.3L17.85 5.75Q16.7 7.05 15.6 7.05L15.3 7.05L14.25 7.05L13.45 6.8Q13.15 5.35 13.5 4.05M2.9 7L5.75 7.6L5.2 5.6L7.25 6.5L7.75 4.25Q8.45 5.75 8.1 7.35L7.2 7.95L6.45 8.45Q4.4 8.15 2.9 7" />
</g>
</svg>
