<?xml version="1.0" encoding="utf-8"?>
<svg version="1.1" id="Layer_1"
xmlns="http://www.w3.org/2000/svg"
xmlns:xlink="http://www.w3.org/1999/xlink"
width="25px" height="25px"
xml:space="preserve">
<g id="PathID_3377" transform="matrix(1, 0, 0, 1, 0.15, 0.15)">
<path style="fill:#808080;fill-opacity:1" d="M17.15 22.4Q13.9 21.75 12.95 20.3L12.95 20.25Q14.3 19.35 19.25 16.95L24.45 15.85Q24.3 16.95 24.3 18L23.6 21.5L22.1 22.5Q20.05 22.95 17.15 22.4M7.55 2.8Q6.95 2.7 6.85 2.5Q7.95 1.75 9.75 1.1Q13.3 -0.25 16.65 0.15L17.6 0.25L18.6 0.2L21.6 0.05Q18.65 0.15 16 1.9Q13.55 1.9 10.95 2.6L7.55 2.8" />
<path style="fill:#4F4943;fill-opacity:1" d="M12.95 20.3Q13.9 21.75 17.15 22.4Q20.05 22.95 22.1 22.5Q21.5 23 18.95 23.65L16.35 24.2Q10.95 22.75 9.3 23.45Q9.9 22.4 11.2 21.45L12.95 20.3M6.85 2.5Q6.95 2.7 7.55 2.8L10.95 2.6Q6.9 3.65 4.85 6.1Q0.9 6.85 0 7.7Q0.75 6.15 2.9 5.4Q3.75 4.05 5.4 3.15L6.85 2.5" />
<path style="fill:none;stroke-width:0.7;stroke-linecap:round;stroke-linejoin:round;stroke-miterlimit:3;stroke:#000000;stroke-opacity:0.301961" d="M22.1 22.5L23.6 21.5L24.3 18Q24.3 16.95 24.45 15.85" />
<path style="fill:none;stroke-width:0.7;stroke-linecap:round;stroke-linejoin:round;stroke-miterlimit:3;stroke:#000000;stroke-opacity:0.301961" d="M19.25 16.95Q14.3 19.35 12.95 20.25" />
<path style="fill:none;stroke-width:0.7;stroke-linecap:round;stroke-linejoin:round;stroke-miterlimit:3;stroke:#000000;stroke-opacity:0.301961" d="M22.1 22.5Q21.5 23 18.95 23.65L16.35 24.2Q10.95 22.75 9.3 23.45Q9.9 22.4 11.2 21.45L12.95 20.3" />
<path style="fill:none;stroke-width:0.7;stroke-linecap:round;stroke-linejoin:round;stroke-miterlimit:3;stroke:#000000;stroke-opacity:0.301961" d="M10.95 2.6Q13.55 1.9 16 1.9" />
<path style="fill:none;stroke-width:0.7;stroke-linecap:round;stroke-linejoin:round;stroke-miterlimit:3;stroke:#000000;stroke-opacity:0.301961" d="M21.6 0.05L18.6 0.2L17.6 0.25L16.65 0.15Q13.3 -0.25 9.75 1.1Q7.95 1.75 6.85 2.5" />
<path style="fill:none;stroke-width:0.7;stroke-linecap:round;stroke-linejoin:round;stroke-miterlimit:3;stroke:#000000;stroke-opacity:0.301961" d="M10.95 2.6Q6.9 3.65 4.85 6.1Q0.9 6.85 0 7.7Q0.75 6.15 2.9 5.4Q3.75 4.05 5.4 3.15L6.85 2.5" />
</g>
</svg>
