<?xml version="1.0" encoding="utf-8"?>
<svg version="1.1" id="Layer_1"
xmlns="http://www.w3.org/2000/svg"
xmlns:xlink="http://www.w3.org/1999/xlink"
width="26px" height="26px"
xml:space="preserve">
<g id="PathID_427" transform="matrix(1, 0, 0, 1, 0.15, 0.15)">
<path style="fill:#808080;fill-opacity:1" d="M23.7 13.35Q25.4 13.8 25.65 15.75Q24.2 14.5 20.25 15.05Q21.85 14.15 20.85 13.05L23.7 13.35M11.5 25.65Q10.95 25 10.95 24.15Q11.2 22.5 11.95 20.75Q12.4 21.4 13.75 20.45Q12.6 22.6 11.5 25.65" />
<path style="fill:#4F4943;fill-opacity:1" d="M19.55 15.15Q16.4 15.6 13.75 20.45Q12.4 21.4 11.95 20.75Q13 18.3 15 15.7Q17.85 13.2 20.85 13.05Q21.85 14.15 20.25 15.05L19.55 15.15" />
<path style="fill:none;stroke-width:0.7;stroke-linecap:round;stroke-linejoin:round;stroke-miterlimit:3;stroke:#000000;stroke-opacity:0.301961" d="M20.25 15.05Q24.2 14.5 25.65 15.75Q25.4 13.8 23.7 13.35L20.85 13.05Q17.85 13.2 15 15.7Q13 18.3 11.95 20.75" />
<path style="fill:none;stroke-width:0.7;stroke-linecap:round;stroke-linejoin:round;stroke-miterlimit:3;stroke:#000000;stroke-opacity:0.301961" d="M13.75 20.45Q16.4 15.6 19.55 15.15L20.25 15.05" />
<path style="fill:none;stroke-width:0.7;stroke-linecap:round;stroke-linejoin:round;stroke-miterlimit:3;stroke:#000000;stroke-opacity:0.301961" d="M11.95 20.75Q11.2 22.5 10.95 24.15Q10.95 25 11.5 25.65Q12.6 22.6 13.75 20.45" />
</g>
<g id="PathID_428" transform="matrix(1, 0, 0, 1, 0.15, 0.15)">
<path style="fill:#4F4943;fill-opacity:1" d="M15.2 10.7Q15.9 10.9 17.2 9.4Q15.75 11.3 15.65 13.4Q15.6 13.85 15.8 14.15Q15.6 13.85 15.65 13.4Q15.75 11.3 17.2 9.4Q16.85 11.7 18.65 12.25Q20.45 11.65 20.65 6.3L20.85 11.75Q19.75 13.7 16.6 14.5L15.8 14.15Q14.3 13.45 13.65 11.6Q13.4 10.5 14.9 7.95Q14.3 9.65 15.2 10.7" />
<path style="fill:#808080;fill-opacity:1" d="M14.9 7.95L17.5 4.1Q18.85 2.35 19 0Q20.2 2.5 20.65 6.3Q20.45 11.65 18.65 12.25Q16.85 11.7 17.2 9.4L17.85 8.6Q15.9 10.9 15.2 10.7Q14.3 9.65 14.9 7.95M17.85 8.6L17.2 9.4" />
<path style="fill:none;stroke-width:0.7;stroke-linecap:round;stroke-linejoin:round;stroke-miterlimit:3;stroke:#000000;stroke-opacity:0.301961" d="M20.65 6.3L20.85 11.75Q19.75 13.7 16.6 14.5L15.8 14.15Q14.3 13.45 13.65 11.6Q13.4 10.5 14.9 7.95L17.5 4.1Q18.85 2.35 19 0Q20.2 2.5 20.65 6.3z" />
<path style="fill:none;stroke-width:0.7;stroke-linecap:round;stroke-linejoin:round;stroke-miterlimit:3;stroke:#000000;stroke-opacity:0.301961" d="M17.2 9.4Q15.75 11.3 15.65 13.4Q15.6 13.85 15.8 14.15" />
<path style="fill:none;stroke-width:0.7;stroke-linecap:round;stroke-linejoin:round;stroke-miterlimit:3;stroke:#000000;stroke-opacity:0.301961" d="M17.2 9.4L17.85 8.6" />
</g>
<g id="PathID_429" transform="matrix(1, 0, 0, 1, 0.15, 0.15)">
<path style="fill:#808080;fill-opacity:1" d="M10.25 16.1L8.8 17.2L10.25 16.1Q10.65 15.8 11.15 15.6Q12.4 16.6 11.55 18.35Q8.7 19.5 4.05 18.85Q1.45 18.05 0 17.1Q3.05 17.4 5.25 15.4Q7.5 13.35 8.9 12.7Q11.9 13.55 10.25 16.1" />
<path style="fill:#4F4943;fill-opacity:1" d="M8.9 12.7Q12.05 12.65 14.2 14.85L14.25 14.85L15.05 14.75Q15.85 15.3 15.3 16.1Q13.9 19.1 10.85 20.35Q6.8 19.7 4.05 18.85Q8.7 19.5 11.55 18.35Q12.4 16.6 11.15 15.6Q10.65 15.8 10.25 16.1Q11.9 13.55 8.9 12.7M11.15 15.6Q12.45 15.05 14.2 14.85Q12.45 15.05 11.15 15.6" />
<path style="fill:none;stroke-width:0.7;stroke-linecap:round;stroke-linejoin:round;stroke-miterlimit:3;stroke:#000000;stroke-opacity:0.301961" d="M8.9 12.7Q7.5 13.35 5.25 15.4Q3.05 17.4 0 17.1Q1.45 18.05 4.05 18.85" />
<path style="fill:none;stroke-width:0.7;stroke-linecap:round;stroke-linejoin:round;stroke-miterlimit:3;stroke:#000000;stroke-opacity:0.301961" d="M11.15 15.6Q10.65 15.8 10.25 16.1L8.8 17.2" />
<path style="fill:none;stroke-width:0.7;stroke-linecap:round;stroke-linejoin:round;stroke-miterlimit:3;stroke:#000000;stroke-opacity:0.301961" d="M14.2 14.85Q12.45 15.05 11.15 15.6" />
<path style="fill:none;stroke-width:0.7;stroke-linecap:round;stroke-linejoin:round;stroke-miterlimit:3;stroke:#000000;stroke-opacity:0.301961" d="M4.05 18.85Q6.8 19.7 10.85 20.35Q13.9 19.1 15.3 16.1Q15.85 15.3 15.05 14.75L14.25 14.85L14.2 14.85Q12.05 12.65 8.9 12.7" />
</g>
<g id="PathID_430" transform="matrix(1, 0, 0, 1, 0.15, 0.15)">
<path style="fill:#4F4943;fill-opacity:1" d="M16.8 14.05Q16.8 14.75 16.4 15.2Q15.95 15.65 15.45 15.65Q14.95 15.6 14.95 15.4Q15.75 15.05 16.1 14.1L15.2 13.9L14.4 15Q14.05 14.55 14.35 14.3Q14.6 14 15.2 13.9L14.95 15.4Q15.45 13.15 16.15 13.25Q16.8 13.35 16.8 14.05M16.1 14.1Q15.75 15.05 14.95 15.4" />
<path style="fill:none;stroke-width:0.7;stroke-linecap:round;stroke-linejoin:round;stroke-miterlimit:3;stroke:#000000;stroke-opacity:0.301961" d="M16.8 14.05Q16.8 14.75 16.4 15.2Q15.95 15.65 15.45 15.65Q14.95 15.6 14.95 15.4L14.4 15Q14.05 14.55 14.35 14.3Q14.6 14 15.2 13.9Q15.45 13.15 16.15 13.25Q16.8 13.35 16.8 14.05z" />
<path style="fill:none;stroke-width:0.7;stroke-linecap:round;stroke-linejoin:round;stroke-miterlimit:3;stroke:#000000;stroke-opacity:0.301961" d="M15.2 13.9L14.95 15.4Q15.75 15.05 16.1 14.1" />
</g>
</svg>
