<?xml version="1.0" encoding="utf-8"?>
<svg version="1.1" id="Layer_1"
xmlns="http://www.w3.org/2000/svg"
xmlns:xlink="http://www.w3.org/1999/xlink"
width="36px" height="36px"
xml:space="preserve">
<g id="PathID_2701" transform="matrix(1, 0, 0, 1, 13, 26.65)">
<linearGradient
id="LinearGradID_795" gradientUnits="userSpaceOnUse" gradientTransform="matrix(-0.0141144, 0.00508118, -0.000762939, -0.00212097, 0.9, -4.15)" spreadMethod ="pad" x1="-819.2" y1="0" x2="819.2" y2="0" >
<stop  offset="0.141176" style="stop-color:#FFFFFF;stop-opacity:0" />
<stop  offset="0.392157" style="stop-color:#FFFFFF;stop-opacity:0.2" />
<stop  offset="0.796078" style="stop-color:#FFFFFF;stop-opacity:0" />
</linearGradient>
<path style="fill:url(#LinearGradID_795) " d="M7.7 -6.6Q4.1 -6.05 0.55 -4.85Q-1.8 -4.05 -4.3 -2.7L-4.85 -3.55Q-1.8 -5.2 0.1 -5.85Q4.15 -7.3 9.1 -7.75L13.25 -7.9L14 -7.45L13.8 -6.8L13.8 -6.95L9.25 -6.85L7.7 -6.6M-7.8 -0.65Q-10.8 1.15 -10.55 1.6L-10.3 1.8L-10.85 1.25Q-11.05 0.8 -10.6 0.35Q-9.25 -1 -7.75 -1.7L-7.8 -0.65" />
</g>
<g id="PathID_2702" transform="matrix(1, 0, 0, 1, 13, 26.65)">
<path style="fill:#E7E8EA;fill-opacity:1" d="M6.25 -12.45Q6.85 -12.3 6.55 -12Q6 -11.55 6.15 -11.05Q6.25 -10.8 7.15 -10.45L8.8 -9.7L10 -9.05L10.55 -8.4L7.85 -8.2L5.3 -7.75Q5.55 -8.6 5.3 -8.95L4.8 -9.4Q4.45 -9.75 1.3 -10.95Q0.8 -11.2 1.45 -11.5L2.45 -12.05Q2.7 -12.5 0.2 -13.1Q-2.35 -13.75 -2.3 -13.9Q-2.2 -14.15 -1.1 -14.3L0.55 -14.4Q0.85 -14.05 1.9 -13.7L3.85 -13L6.25 -12.45M-1.65 -16.75Q-1.75 -16.1 -2.85 -16.25Q-3.7 -16.35 -3.7 -17Q-4.1 -17 -4.75 -16.4Q-4.6 -17 -3.85 -17.4L-2.5 -17.6L-1.4 -17.25L-1 -16.45Q-0.9 -15.95 -1.05 -15.65Q-1.1 -16.4 -1.65 -16.75" />
</g>
<g id="PathID_2703" transform="matrix(1, 0, 0, 1, 13, 26.65)">
<linearGradient
id="LinearGradID_796" gradientUnits="userSpaceOnUse" gradientTransform="matrix(0, 0.0186462, -0.00805664, 0, 16.05, -11.4)" spreadMethod ="pad" x1="-819.2" y1="0" x2="819.2" y2="0" >
<stop  offset="0.027451" style="stop-color:#FFFFFF;stop-opacity:0" />
<stop  offset="0.752941" style="stop-color:#FFFFFF;stop-opacity:0.101961" />
<stop  offset="0.913725" style="stop-color:#FFFFFF;stop-opacity:0" />
</linearGradient>
<path style="fill:url(#LinearGradID_796) " d="M18.2 -26.3Q18.2 -24.25 20.4 -23.1Q22.6 -21.95 22.65 -19.9Q22.7 -17.4 21.25 -16.05Q19.45 -14.85 18.75 -14Q17.95 -13 20 -11.1Q22.25 -9.05 21.75 -7.85Q21.3 -6.8 19.05 -5.8Q17.05 -4.95 16.75 -2.95Q16.5 -1.25 17.7 0.75Q18.6 2.2 17.45 3.2Q16.85 3.85 15.35 3.9L13.35 3.85Q13.6 -0.4 9.45 -2.85L11.65 -2.8Q13.1 -2.5 13.4 -3.35Q13.65 -3.95 13.2 -5Q12.85 -6.1 13.15 -6.95Q13.4 -7.55 14.7 -8.4Q15.7 -9.05 15.6 -10.3Q15.45 -11.25 14.1 -12.15Q12.9 -13 12.95 -14.45Q13 -15.65 14.75 -16.55Q16.6 -17.55 17 -19.9Q17.4 -22.15 15 -23.4Q12.4 -24.7 12.35 -26.5L15.1 -26.6L18.2 -26.3" />
</g>
<g id="PathID_2704" transform="matrix(1, 0, 0, 1, 13, 26.65)">
<path style="fill:none;stroke-width:0.7;stroke-linecap:round;stroke-linejoin:round;stroke-miterlimit:3;stroke:#000000;stroke-opacity:0.14902" d="M7.65 -6.6Q4.1 -6.05 0.55 -4.85Q-1.65 -4.1 -3.95 -2.9L-4.3 -2.7L-4.85 -3.55Q-5.8 -4.7 -6.95 -4.3Q-7.95 -4 -7.75 -1.7L-7.75 -1.65L-7.8 -0.65L-7.75 0.75L-7.4 0.65Q-7.65 -0.1 -6.9 -0.35L-6.8 -0.4L-6.25 -0.4L-5.9 -0.3L-5.75 -0.2L-5.55 -0.1L-5.5 -0.1L-5.35 -0.2L-5.2 -0.25L-5.1 -0.3L-5 -0.35L-4.45 -0.6L-4.05 -0.7L-4 -0.7L-3.9 -0.7L-3.75 -0.7L-3.7 -0.7Q-3.15 -0.55 -3.1 -0.2L-3.25 0.2Q-2.3 0.1 -1.85 1L-1.65 1.95Q-0.8 1.85 -0.4 2.25Q0.05 2.7 -0.05 3.25L0.2 3.2L0.7 3.4Q1 3.7 0.85 4.45L1.1 4.35L1.6 4.4L1.85 4.85L2.3 4.9Q3.4 5.05 3.35 5.35Q3.3 5.6 2.7 5.65L2.9 5.8L3.55 5.7L3.9 6L3.85 6.15L4.35 6.2L4.45 6.1L5.1 6.15L5.25 6.25L7 6.25L7.95 5.75L9.15 4.95L10.2 4.1L10.25 4.15L10.4 4.55Q13.85 6.25 13.6 7.4Q13.35 8.55 9.25 8.45L6.65 8.3L4.5 8.65L-2.35 7.5Q-5.95 6.55 -7.75 5.5L-9.05 4.35L-9.6 4.1Q-11.45 3.25 -12.3 2.55Q-13.1 1.85 -13 1.25Q-12.8 0.45 -10.75 0.2Q-11.2 -2.65 -10.6 -5.85L-10.55 -6.05Q-9.95 -8.9 -8.5 -10.8Q-6.8 -13.1 -3.9 -14.15L-4.3 -14.3L-5.05 -14.9L-5.3 -15.45Q-5.45 -16.15 -4.95 -16.95L-3.85 -17.75L-3.45 -17.85L-2 -17.85L-1.65 -17.7Q-0.8 -17.25 -0.65 -16.5Q-0.45 -15.8 -0.85 -15.2L-1 -15.05L-1.1 -14.9Q5.05 -16 9.55 -12.4Q12.1 -10.35 13.25 -7.9L14 -7.45L13.8 -6.8Q13.7 -6.3 12.15 -5.3L9.3 -3.65Q8.7 -5.4 7.7 -6.6L7.65 -6.6z" />
<path style="fill:none;stroke-width:0.7;stroke-linecap:round;stroke-linejoin:round;stroke-miterlimit:3;stroke:#000000;stroke-opacity:0.14902" d="M-8.95 0.1L-8.4 -0.25L-9 0.1L-8.95 0.1z" />
</g>
</svg>
