<?xml version="1.0" encoding="utf-8"?>
<svg version="1.1" id="Layer_1"
xmlns="http://www.w3.org/2000/svg"
xmlns:xlink="http://www.w3.org/1999/xlink"
width="22px" height="13px"
xml:space="preserve">
<g id="PathID_3242" transform="matrix(1, 0, 0, 1, 0.15, 0.15)">
<path style="fill:#4F4943;fill-opacity:1" d="M21.4 5.35Q17.45 1.25 11.25 1.2L16.55 0.5Q20.1 2.55 21.4 5.35M4.15 8.9L3.4 7.5Q3.2 9.1 2.55 10.55Q2.75 5.9 3.2 3.85L4.45 3.3L4.2 4.35Q4.15 5.4 4.9 6.35Q5.5 7.25 5.45 8.35Q5.4 9.65 4.5 11.85Q5.2 9.45 4.15 8.9M2.55 10.55Q2.05 11.8 0 12.6L0.6 10.35L1.15 6L3.2 3.85Q2.75 5.9 3.4 7.5M1.8 6.95L0.6 10.35L1.8 6.95" />
<path style="fill:#808080;fill-opacity:1" d="M16.55 0.5L17.95 0Q20.95 2.4 21.4 5.35Q20.1 2.55 16.55 0.5M6.05 2.55Q5.7 5.4 6.75 8.05Q6.6 10.4 4.5 11.85Q5.4 9.65 5.45 8.35Q5.5 7.25 4.9 6.35Q4.15 5.4 4.2 4.35L4.45 3.3L6.05 2.55" />
<path style="fill:none;stroke-width:0.7;stroke-linecap:round;stroke-linejoin:round;stroke-miterlimit:3;stroke:#000000;stroke-opacity:0.388235" d="M21.4 5.35Q17.45 1.25 11.25 1.2L16.55 0.5L17.95 0Q20.95 2.4 21.4 5.35z" />
<path style="fill:none;stroke-width:0.7;stroke-linecap:round;stroke-linejoin:round;stroke-miterlimit:3;stroke:#000000;stroke-opacity:0.388235" d="M4.45 3.3L3.2 3.85Q2.75 5.9 3.4 7.5L4.15 8.9Q5.2 9.45 4.5 11.85Q6.6 10.4 6.75 8.05Q5.7 5.4 6.05 2.55" />
<path style="fill:none;stroke-width:0.7;stroke-linecap:round;stroke-linejoin:round;stroke-miterlimit:3;stroke:#000000;stroke-opacity:0.388235" d="M3.4 7.5Q3.2 9.1 2.55 10.55Q2.05 11.8 0 12.6L0.6 10.35L1.15 6L3.2 3.85" />
<path style="fill:none;stroke-width:0.7;stroke-linecap:round;stroke-linejoin:round;stroke-miterlimit:3;stroke:#000000;stroke-opacity:0.388235" d="M0.6 10.35L1.8 6.95" />
</g>
</svg>
