<?xml version="1.0" encoding="utf-8"?>
<svg version="1.1" id="Layer_1"
xmlns="http://www.w3.org/2000/svg"
xmlns:xlink="http://www.w3.org/1999/xlink"
width="8px" height="16px"
xml:space="preserve">
<g id="PathID_371" transform="matrix(1, 0, 0, 1, 0, 0)">
<path style="fill:#808080;fill-opacity:1" d="M0 3.75Q0 2.15 1.1 1.05Q2.25 0 3.7 0L5.4 0.45Q7.2 2.3 6.6 4.4Q6 6.4 3.95 6.65Q1.85 6.9 0.3 5.1Q0 4.4 0 3.75M6 3.65Q6 2.7 5.4 3.05L5.35 3.6L5.2 4.15L3.9 5.4L3.5 5.8Q3.5 6.25 3.85 6.25L5.6 5.2Q6 4.75 6 3.65" />
<path style="fill:#4F4943;fill-opacity:1" d="M6.3 1.05Q7.45 2.15 7.45 3.65L7.45 3.75Q7.45 5.2 6.3 6.3Q5.3 7.45 3.7 7.45Q2.3 7.45 1.15 6.35L1.1 6.3L0.3 5.1Q1.85 6.9 3.95 6.65Q6 6.4 6.6 4.4Q7.2 2.3 5.4 0.45Q5.85 0.6 6.3 1.05" />
<path style="fill:#DBD4C5;fill-opacity:1" d="M5.6 5.2L3.85 6.25Q3.5 6.25 3.5 5.8L3.9 5.4L5.2 4.15L5.35 3.6L5.4 3.05Q6 2.7 6 3.65Q6 4.75 5.6 5.2" />
<path style="fill:none;stroke-width:0.7;stroke-linecap:round;stroke-linejoin:round;stroke-miterlimit:3;stroke:#000000;stroke-opacity:0.4" d="M5.4 0.45L3.7 0Q2.25 0 1.1 1.05Q0 2.15 0 3.75Q0 4.4 0.3 5.1L1.1 6.3L1.15 6.35Q2.3 7.45 3.7 7.45Q5.3 7.45 6.3 6.3Q7.45 5.2 7.45 3.75L7.45 3.65Q7.45 2.15 6.3 1.05Q5.85 0.6 5.4 0.45z" />
</g>
<g id="PathID_372" transform="matrix(1, 0, 0, 1, 0, 0)">
<path style="fill:#4F4943;fill-opacity:1" d="M4.45 1.9Q5.05 2.5 5.05 3.35Q5.05 4.15 4.45 4.75Q3.85 5.35 3 5.35Q2.2 5.35 1.6 4.75Q1 4.15 1 3.3Q1 2.5 1.6 1.9Q2.2 1.35 3 1.35Q3.85 1.35 4.45 1.9" />
</g>
<g id="PathID_373" transform="matrix(1, 0, 0, 1, 0, 0)">
<path style="fill:#808080;fill-opacity:1" d="M3.8 9.2L3.25 8.95L3.05 8.5Q3.05 8.15 3.25 7.95L3.8 7.75L4.3 7.95L4.5 8.5L4.3 8.95L3.8 9.2M3.85 11.3L3.4 11.05Q3.15 10.9 3.15 10.55Q3.15 10.25 3.4 10.05L3.85 9.85L4.4 10.05L4.55 10.55L4.4 11.05L3.85 11.3" />
</g>
<g id="PathID_374" transform="matrix(1, 0, 0, 1, 0, 0)">
<path style="fill:none;stroke-width:0.7;stroke-linecap:round;stroke-linejoin:round;stroke-miterlimit:3;stroke:#808080;stroke-opacity:0.541176" d="M4.95 12.15Q5.45 12.6 5.45 13.35Q5.45 14 4.95 14.45Q4.5 14.95 3.75 14.95Q3.1 14.95 2.6 14.45Q2.15 14 2.15 13.25Q2.15 12.6 2.6 12.15Q3.1 11.7 3.75 11.7Q4.5 11.7 4.95 12.15z" />
</g>
</svg>
