<?xml version="1.0" encoding="utf-8"?>
<svg version="1.1" id="Layer_1"
xmlns="http://www.w3.org/2000/svg"
xmlns:xlink="http://www.w3.org/1999/xlink"
width="31px" height="32px"
xml:space="preserve">
<g id="PathID_2880" transform="matrix(1, 0, 0, 1, 17, 26.95)">
<path style="fill:none;stroke-width:0.7;stroke-linecap:round;stroke-linejoin:round;stroke-miterlimit:3;stroke:#000000;stroke-opacity:0.4" d="M-0.35 -21.8Q-2.45 -20.15 -1.7 -19.15Q-1.4 -18.65 -0.4 -18.65L0.55 -18.8L1.25 -19.25L1.95 -19.85L2.55 -20.5L3.05 -21.45Q3.25 -22.15 2.95 -22.85L2.55 -23.45L1.85 -23.95L-1.05 -23.85L-2.35 -23.25L-3.45 -22.4L-4.85 -20.9Q-6.25 -18.85 -5.9 -16.25L-5.25 -13.95L-4.25 -12.2Q-2.5 -10.15 0.05 -9.7L0.45 -9.65L3.85 -9.65L7.05 -10.1L8.95 -10.65Q9.4 -10.8 10.45 -11.5L12.4 -13.2Q14.8 -17.2 12.5 -21.55L10.7 -23.8Q8.3 -26 4.55 -26.6L0.8 -26.85L-2.65 -26.5Q-5.55 -26.05 -7.95 -24.85L-8.9 -24.4L-8.95 -24.35L-10.05 -23.7L-11.3 -22.75L-13.45 -20.55Q-16.55 -16.85 -16.9 -11.8Q-17 -9.6 -16.6 -7.15Q-15.5 -3.2 -14.7 -1.55Q-13.4 1 -10.85 2.7Q-10.8 0.7 -9.5 -1.15L-7.6 -3.85L-7.6 -3.9L-6.9 -4.8L-4.65 -7.25Q-3.2 -8.75 0.05 -9.7" />
<path style="fill:none;stroke-width:0.7;stroke-linecap:round;stroke-linejoin:round;stroke-miterlimit:3;stroke:#000000;stroke-opacity:0.4" d="M7.05 -10.1Q9 -8.85 8.5 -7.9Q8 -7 7.25 -6.95Q6.05 -8.15 4.6 -8.1Q3.15 -8.05 0.25 -6.8L-1.3 -5.85L-3.4 -4.35L-5.1 -2.8L-6.4 -1.3L-7.55 0.9L-6.95 3.2Q-7.65 3.6 -8.25 4.55L-10.35 4.65L-10.85 2.7" />
<path style="fill:none;stroke-width:0.7;stroke-linecap:round;stroke-linejoin:round;stroke-miterlimit:3;stroke:#000000;stroke-opacity:0.4" d="M-8.25 4.55Q-8.1 2.95 -7.55 0.9" />
</g>
<g id="PathID_2881" transform="matrix(1, 0, 0, 1, 17, 26.95)">
<path style="fill:#FFFFFF;fill-opacity:0.160784" d="M12.75 -15.1Q12.75 -13.95 10.5 -12.3Q8.05 -10.45 5.5 -10.45Q2.9 -10.45 -0.45 -11.25Q-3.8 -12.05 -1.6 -11.85L4.15 -11.65Q7.7 -11.65 9.8 -13.35Q11.9 -15.1 12.9 -17.85Q12.75 -16.65 12.75 -15.1" />
<path style="fill:#FFFFFF;fill-opacity:0.4" d="M5.9 -22.7L5.65 -23.2Q5.65 -23.95 6.7 -23.95Q8.2 -23.95 8.45 -21.5Q8.45 -20.3 7.55 -18.9Q6.15 -16.7 3.35 -16.7Q1.95 -16.7 2.1 -17.55Q2.1 -17.85 4.15 -19.2Q6.15 -20.6 6.15 -22.15L5.9 -22.7M-9.35 -18.1Q-10.4 -18.1 -10.15 -19.5Q-10.15 -20.7 -8.9 -22.5Q-7.1 -25.05 -4.05 -25.05Q-3.1 -25.05 -3.1 -24.2Q-3.1 -23.65 -4.7 -22.45L-6.65 -21.05L-7.7 -19.45Q-8.75 -18.1 -9.35 -18.1M-1.15 -16.95Q-1.15 -17.7 -0.25 -17.7Q0.4 -17.7 0.45 -16.95Q0.45 -16.2 -0.35 -16.2Q-1.15 -16.2 -1.15 -16.95" />
</g>
</svg>
