<?xml version="1.0" encoding="utf-8"?>
<svg version="1.1" id="Layer_1"
xmlns="http://www.w3.org/2000/svg"
xmlns:xlink="http://www.w3.org/1999/xlink"
width="11px" height="12px"
xml:space="preserve">
<g id="PathID_1108" transform="matrix(1, 0, 0, 1, 0.15, 0.15)">
<path style="fill:#808080;fill-opacity:1" d="M9.1 9.6L8 9.6L7.7 9.55Q7.45 10.4 7.05 10.35L6.55 10.05Q5.95 10.4 5.8 10.35Q4.9 10.1 5.2 9.2L4.3 8.45Q4.05 7.8 4.3 7.45L4.25 7.4Q3.75 7.3 3.25 6.7Q2.75 6.1 3 5.85Q2.4 5.65 2.25 5.3Q2.15 5.1 2.2 4.55L2.35 4.05L1.65 3.8Q1.15 3.55 1.2 3.15Q1.25 2.7 1.45 2.6L2.15 2.55L2.55 2.7L3 2.3L4 2.2L4.2 1.75L3.75 1.8Q3.15 1.7 3.2 1.35L2.9 1.95L2.3 2.35L1.2 1.85L1 2.1L0.75 1.9L0.65 1.55L0.7 1.45Q0.6 1.2 0.8 0.9Q1 0.6 1.3 0.65L1.8 0.9L2 0.4Q2.25 0.15 2.5 0.15L2.8 0.4L2.95 0.85L3.25 0.3Q3.55 -0.05 3.85 0Q4.35 0.05 4.55 1.2L4.95 0.5Q5.15 0.3 5.6 0.35Q6.25 0.45 6.7 1.05Q7.1 1.6 6.9 2.15Q7.15 1.7 7.5 1.9Q7.85 2.05 7.75 2.5Q8.15 1.95 8.65 2.2Q9.1 2.45 8.8 3.3Q9.65 3.35 9.25 4.2Q10.05 4.25 10.15 4.9Q10.3 5.55 9.65 5.85Q10.2 6.05 10.15 6.55L9.5 7.2Q10 7.5 9.9 8.05Q9.85 8.6 9.25 8.7Q9.45 9.15 9.3 9.55L9.1 9.6M5.35 0.85Q4.95 0.85 4.8 1.35Q4.75 1.8 5.2 1.85Q5.4 1.9 5.6 1.6L5.75 1.25Q5.85 0.85 5.35 0.85M5.15 2.75Q5.65 3.3 4.85 3.85L4.55 3.9L4.35 3.5L3.65 4.1L3.2 3.75L3.15 3.55L2.7 4.2L3.1 4.55L3.2 5.15L3.15 5.65L3.5 5.55Q4.05 5.65 4.25 7.1L4.4 6.8L4.85 6.6L4.55 6L4.7 5.75Q4.3 5.9 3.9 5.5L3.6 4.75Q3.6 4.5 3.9 4.35L4.45 4.2Q4.7 4.25 5.15 4.65Q5.05 4.4 5.5 4.1Q5.8 3.85 6 3.85Q5.75 3.7 5.8 3.2L5.95 2.8L5.15 2.75M6.9 4.25Q7.25 4.4 7.2 4.7Q7.15 5.3 6.65 5.2L7.1 5.55L7.3 6L7.2 5.25L7.6 4.5Q7.95 3.95 8.3 3.9L7.75 3.9Q7.05 3.8 7.1 3.5L6.55 4.1L6.9 4.25M5.75 5.65L5.8 6.2L5.7 6.55L6.75 6.35L6 5.9L5.75 5.65M7.85 5.85L8.15 6.2L8.15 6.4Q8.25 6.85 8.65 6.95Q8.35 6.55 8.4 6L8.5 5.6L8.7 5.25Q8.75 4.85 8.1 4.75L7.65 5.2Q7.6 5.65 7.95 5.7L7.85 5.85M2.85 2.8L2.95 3.25L3.25 3.4Q3.85 3.45 3.85 2.95Q3.85 2.3 3.4 2.35Q2.95 2.45 2.85 2.8M4.4 5.5L4.8 5.35L4.9 5Q4.9 4.6 4.55 4.55Q4.25 4.5 4 4.75L4 5.1L4.4 5.5M7.85 8.7L7.25 8.8L7.2 9.6Q7.3 9.4 8.15 9.15L7.95 8.9L7.85 8.7M6.4 7.7L6 8.1L5.4 7.7Q5.7 8.25 5.4 8.6L6.25 9.15Q6.3 8.8 6.95 8.35L7.6 8L7.45 7.7L7.85 7.45L7.4 6.85L7.25 6.5L7.15 7.2L6.55 7.6L6.35 7.45L6.4 7.7" />
<path style="fill:#5F5C58;fill-opacity:1" d="M9.3 9.55L9.2 9.65Q8.75 10.1 8.15 9.8Q8.35 10.4 7.75 10.8Q7.15 11.2 6.6 10.65Q6.4 11.7 5.35 10.95Q1.25 7.5 0.1 2.35L0 1.8Q0.05 1.3 0.5 1.35L0.7 1.45L0.65 1.55L0.75 1.9L1 2.1L1.2 1.85L2.3 2.35L2.9 1.95L3.2 1.35Q3.15 1.7 3.75 1.8L4.2 1.75L4 2.2L3 2.3L2.55 2.7L2.15 2.55L1.45 2.6Q1.25 2.7 1.2 3.15Q1.15 3.55 1.65 3.8L2.35 4.05L2.2 4.55Q2.15 5.1 2.25 5.3Q2.4 5.65 3 5.85Q2.75 6.1 3.25 6.7Q3.75 7.3 4.25 7.4L4.3 7.45Q4.05 7.8 4.3 8.45L5.2 9.2Q4.9 10.1 5.8 10.35Q5.95 10.4 6.55 10.05L7.05 10.35Q7.45 10.4 7.7 9.55L8 9.6L9.1 9.6L9.3 9.55M5.95 2.8L5.8 3.2Q5.75 3.7 6 3.85Q5.8 3.85 5.5 4.1Q5.05 4.4 5.15 4.65Q4.7 4.25 4.45 4.2L3.9 4.35Q3.6 4.5 3.6 4.75L3.9 5.5Q4.3 5.9 4.7 5.75L4.55 6L4.85 6.6L4.4 6.8L4.25 7.1Q4.05 5.65 3.5 5.55L3.15 5.65L3.2 5.15L3.1 4.55L2.7 4.2L3.15 3.55L3.2 3.75L3.65 4.1L4.35 3.5L4.55 3.9L4.85 3.85Q5.65 3.3 5.15 2.75L5.95 2.8M6.55 4.1L7.1 3.5Q7.05 3.8 7.75 3.9L8.3 3.9Q7.95 3.95 7.6 4.5L7.2 5.25L7.3 6L7.1 5.55L6.65 5.2Q7.15 5.3 7.2 4.7Q7.25 4.4 6.9 4.25L6.55 4.1M6 5.9L6.75 6.35L5.7 6.55L5.8 6.2L5.75 5.65L6 5.9M7.95 5.7L8 5.7L8.5 5.6L8.4 6Q8.35 6.55 8.65 6.95Q8.25 6.85 8.15 6.4L8.15 6.2L7.85 5.85L7.95 5.7M7.95 8.9L8.15 9.15Q7.3 9.4 7.2 9.6L7.25 8.8L7.85 8.7L7.95 8.9M6.35 7.45L6.55 7.6L7.15 7.2L7.25 6.5L7.4 6.85L7.85 7.45L7.45 7.7L7.6 8L6.95 8.35Q6.3 8.8 6.25 9.15L5.4 8.6Q5.7 8.25 5.4 7.7L6 8.1L6.4 7.7L6.35 7.45" />
<path style="fill:#4F4538;fill-opacity:1" d="M5.75 1.25L5.6 1.6Q5.4 1.9 5.2 1.85Q4.75 1.8 4.8 1.35Q4.95 0.85 5.35 0.85Q5.85 0.85 5.75 1.25M8 5.7L7.95 5.7Q7.6 5.65 7.65 5.2L8.1 4.75Q8.75 4.85 8.7 5.25L8.5 5.6L8 5.7M3.4 2.35Q3.85 2.3 3.85 2.95Q3.85 3.45 3.25 3.4L2.95 3.25L2.85 2.8Q2.95 2.45 3.4 2.35M4 5.1L4 4.75Q4.25 4.5 4.55 4.55Q4.9 4.6 4.9 5L4.8 5.35L4.4 5.5L4 5.1" />
<path style="fill:none;stroke-width:0.7;stroke-linecap:round;stroke-linejoin:round;stroke-miterlimit:3;stroke:#000000;stroke-opacity:0.4" d="M0.7 1.45Q0.6 1.2 0.8 0.9Q1 0.6 1.3 0.65L1.8 0.9L2 0.4Q2.25 0.15 2.5 0.15L2.8 0.4L2.95 0.85L3.25 0.3Q3.55 -0.05 3.85 0Q4.35 0.05 4.55 1.2L4.95 0.5Q5.15 0.3 5.6 0.35Q6.25 0.45 6.7 1.05Q7.1 1.6 6.9 2.15Q7.15 1.7 7.5 1.9Q7.85 2.05 7.75 2.5Q8.15 1.95 8.65 2.2Q9.1 2.45 8.8 3.3Q9.65 3.35 9.25 4.2Q10.05 4.25 10.15 4.9Q10.3 5.55 9.65 5.85Q10.2 6.05 10.15 6.55L9.5 7.2Q10 7.5 9.9 8.05Q9.85 8.6 9.25 8.7Q9.45 9.15 9.3 9.55L9.2 9.65Q8.75 10.1 8.15 9.8Q8.35 10.4 7.75 10.8Q7.15 11.2 6.6 10.65Q6.4 11.7 5.35 10.95Q1.25 7.5 0.1 2.35L0 1.8Q0.05 1.3 0.5 1.35L0.7 1.45z" />
</g>
</svg>
