<?xml version="1.0" encoding="utf-8"?>
<svg version="1.1" id="Layer_1"
xmlns="http://www.w3.org/2000/svg"
xmlns:xlink="http://www.w3.org/1999/xlink"
width="66px" height="10px"
xml:space="preserve">
<g id="PathID_4158" transform="matrix(1, 0, 0, 1, 0.1, 0.1)">
<path style="fill:#E7C161;fill-opacity:1" d="M45.85 5.05L51.1 4.85L45.85 5.05L41.4 4.45L44.3 4.25L42.75 4.15L45.75 3.7L44.95 3.4L34.5 3.8L35.55 3.45L36.9 3L37.5 2.9Q48.2 2.9 60.25 2.4L50.75 3.55L64.05 3.05L64.95 4.3L51.1 4.85L63.05 6L44.25 6.55L38.15 5.05L42.5 5.2Q56.1 6.5 45.85 5.05M42.85 7.05L51.7 8.45L37.15 7.65L39.2 9.4L38 9.4L35.6 7.8L33 8.7L33.35 7.3L28.2 8.1L31.65 6.8Q28.45 6.2 26.45 6.8L26.45 6.15Q21.65 7.95 18.9 9.75L24.45 5.9L25 5.6L16.85 8.45Q19.9 7.3 23.1 5.25Q15.6 6 8.9 8.1L13.6 6.4L10.4 6.75L13.6 4.5L8.8 5.3L5.7 5.3Q10.5 4.5 15.45 2.95L18.55 2.9L19.95 3.2L12 6.55L26.05 3.7L25.55 4.45L25.5 4.8L25.55 5.05L25.7 5.1L25.75 5.05L26.45 4.75L27.15 4.45L29.95 5.7L30 5.65L30.05 5.5L30 5.2L29.95 5L30 4.85L34.3 5.9L33.2 5L41.9 7.1L42.85 7.05M7.75 2.95L0 2.95L21.15 0.1L22.9 0.65L7.75 2.95M34.75 1.35L55.4 1.35L40.85 2.4L41.45 2.2L31.15 1.85L34.75 1.35M25 5.6L24.45 5.9" />
<path style="fill:#BB8E1E;fill-opacity:1" d="M31.15 1.85L41.45 2.2L40.85 2.4L29.75 2.8L37.5 2.9L36.9 3L35.55 3.45L34.5 3.8L44.95 3.4L45.75 3.7L42.75 4.15L44.3 4.25L41.4 4.45L45.85 5.05Q56.1 6.5 42.5 5.2L38.15 5.05L44.25 6.55L41.45 6.75L42.85 7.05L41.9 7.1L33.2 5L34.3 5.9L30 4.85L29.95 5L30 5.2L30.05 5.5L30 5.65L29.95 5.7L27.15 4.45L26.45 4.75L25.75 5.05L25.7 5.1L25.55 5.05L25.5 4.8L25.55 4.45L26.05 3.7L12 6.55L19.95 3.2L18.55 2.9L15.45 2.95L7.75 2.95L22.9 0.65L21.15 0.1L35.05 0L32.15 1.35L34.75 1.35L31.15 1.85" />
<path style="fill:none;stroke-width:0.7;stroke-linecap:round;stroke-linejoin:round;stroke-miterlimit:3;stroke:#000000;stroke-opacity:0.301961" d="M37.5 2.9Q48.2 2.9 60.25 2.4L50.75 3.55L64.05 3.05L64.95 4.3L51.1 4.85L63.05 6L44.25 6.55L41.45 6.75L42.85 7.05L51.7 8.45L37.15 7.65L39.2 9.4L38 9.4L35.6 7.8L33 8.7L33.35 7.3L28.2 8.1L31.65 6.8Q28.45 6.2 26.45 6.8L26.45 6.15Q21.65 7.95 18.9 9.75L24.45 5.9L16.85 8.45Q19.9 7.3 23.1 5.25Q15.6 6 8.9 8.1L13.6 6.4L10.4 6.75L13.6 4.5L8.8 5.3L5.7 5.3Q10.5 4.5 15.45 2.95L7.75 2.95L0 2.95L21.15 0.1L35.05 0L32.15 1.35L34.75 1.35L55.4 1.35L40.85 2.4L29.75 2.8L37.5 2.9z" />
<path style="fill:none;stroke-width:0.7;stroke-linecap:round;stroke-linejoin:round;stroke-miterlimit:3;stroke:#000000;stroke-opacity:0.301961" d="M45.85 5.05L51.1 4.85" />
<path style="fill:none;stroke-width:0.7;stroke-linecap:round;stroke-linejoin:round;stroke-miterlimit:3;stroke:#000000;stroke-opacity:0.301961" d="M25 5.6L24.45 5.9" />
</g>
</svg>
