<?xml version="1.0" encoding="utf-8"?>
<svg version="1.1" id="Layer_1"
xmlns="http://www.w3.org/2000/svg"
xmlns:xlink="http://www.w3.org/1999/xlink"
width="9px" height="6px"
xml:space="preserve">
<g id="PathID_925" transform="matrix(1, 0, 0, 1, 4.25, 3.15)">
<path style="fill:#EEEEEC;fill-opacity:1" d="M-3 -2.45Q-0.7 -2.55 2.35 -1Q2.95 -0.5 3.35 0.4Q3.1 1.75 1.6 2.2Q0 2.55 -0.95 1.9Q-2.8 0.65 -2.9 -1.95L-3 -2.45" />
</g>
<g id="PathID_926" transform="matrix(1, 0, 0, 1, 4.25, 3.15)">
<path style="fill:#AD7200;fill-opacity:1" d="M2.1 0.75L1.4 -0.15Q1.8 -1.15 1.6 -1.45L2.3 -0.85Q2.5 0.1 2.1 0.75M1.2 -1.75L0.7 -0.65L-0.5 -0.75L-0.5 -0.9L0.15 -2.25Q0.7 -2.1 1.2 -1.75" />
<path style="fill:#050D02;fill-opacity:1" d="M1.2 -1.75L1.6 -1.45Q1.8 -1.15 1.4 -0.15L1.35 -0.05Q1 1.05 0.7 0.55Q0.5 0.05 0.7 -0.65L1.2 -1.75" />
<path style="fill:#FFD61E;fill-opacity:1" d="M2.1 0.75L1.4 1.35Q0.8 1.7 0.25 1.35Q-0.3 1 -0.45 0.3L-0.5 -0.75L0.7 -0.65Q0.5 0.05 0.7 0.55Q1 1.05 1.35 -0.05L1.4 -0.15L2.1 0.75" />
<path style="fill:none;stroke-width:0.7;stroke-linecap:round;stroke-linejoin:round;stroke-miterlimit:3;stroke:#000000;stroke-opacity:0.4" d="M1.6 -1.45L1.2 -1.75" />
<path style="fill:none;stroke-width:0.7;stroke-linecap:round;stroke-linejoin:round;stroke-miterlimit:3;stroke:#000000;stroke-opacity:0.4" d="M-0.5 -0.75L-0.45 0.3Q-0.3 1 0.25 1.35Q0.8 1.7 1.4 1.35L2.1 0.75" />
<path style="fill:none;stroke-width:0.7;stroke-linecap:round;stroke-linejoin:round;stroke-miterlimit:3;stroke:#000000;stroke-opacity:0.4" d="M-0.5 -0.75L-0.5 -0.9L0.15 -2.25Q0.7 -2.1 1.2 -1.75" />
<path style="fill:none;stroke-width:0.7;stroke-linecap:round;stroke-linejoin:round;stroke-miterlimit:3;stroke:#000000;stroke-opacity:0.4" d="M1.6 -1.45L2.3 -0.85Q2.5 0.1 2.1 0.75" />
</g>
<g id="PathID_927" transform="matrix(1, 0, 0, 1, 4.25, 3.15)">
<path style="fill:#080000;fill-opacity:1" d="M3.45 -0.65Q3.9 0.3 3.5 1.05L3.35 0.4Q2.95 -0.5 2.35 -1Q-0.7 -2.55 -3 -2.45L-4.25 -2.45Q-3 -3.25 -2.05 -3.15Q1.5 -2.55 4.35 -0.3L3.45 -0.65" />
</g>
<g id="PathID_928" transform="matrix(1, 0, 0, 1, 4.25, 3.15)">
<path style="fill:#080000;fill-opacity:1" d="M1.6 2.2L-0.35 2.6Q-3.45 1.5 -2.9 -1.95Q-2.8 0.65 -0.95 1.9Q0 2.55 1.6 2.2" />
</g>
<g id="PathID_929" transform="matrix(1, 0, 0, 1, 4.25, 3.15)">
<path style="fill:#FFFFFF;fill-opacity:1" d="M-1.5 -1.3L-1.25 -1.9L-0.65 -2.15L-0.05 -1.9L0.2 -1.3L-0.05 -0.7Q-0.3 -0.4 -0.65 -0.4Q-1 -0.4 -1.25 -0.7L-1.5 -1.3" />
</g>
</svg>
