<?xml version="1.0" encoding="utf-8"?>
<svg version="1.1" id="Layer_1"
xmlns="http://www.w3.org/2000/svg"
xmlns:xlink="http://www.w3.org/1999/xlink"
width="10px" height="8px"
xml:space="preserve">
<g id="PathID_61" transform="matrix(1, 0, 0, 1, 0.1, 0.1)">
<path style="fill:#808080;fill-opacity:1" d="M8.25 4.4L8.75 4.2L7.8 4.75L7.4 5.55L7.9 4L7.7 3.15L7.7 2.6Q7.45 1.35 7.05 2.25L7.05 1.7Q9.2 1.9 8.25 4.4M7.05 3.95L7.15 3.8L6.05 4.9L4.4 5.7Q6.7 4.3 6.45 3.3Q6.25 2.4 5.75 1.95L5.05 2.5L5.2 1.6L4.45 1.4Q4.2 0.65 3.35 0.85Q4.4 1.1 4.8 0.9L5.15 0.75L5.65 0.5Q5.55 1.1 6.2 1.05Q6.95 0.9 7.05 1.7L7.05 2.25L7.05 3.95M3.35 0.85L2.7 0.75Q3.6 -0.8 4.8 0.9Q4.4 1.1 4.45 1.4M5.05 2.5Q4.6 2.1 4.2 2.15Q4.05 1.75 5.2 1.6L5.75 1.95Q6.25 2.4 6.45 3.3Q6.7 4.3 6.05 4.9L7.05 3.95M7.15 3.8Q7.5 3 7.7 3.15L7.9 4L7.8 4.75M7.4 5.55L7.2 5.95Q7.5 5.55 8.15 5.4L8.25 4.4M8.75 4.2Q9.95 4.3 8.9 5.55Q9.25 6.35 8.65 6.15Q8.15 5.8 8.1 6.85Q8.1 7.15 7.35 7.5L6.15 7.55Q7.15 7.25 7.2 6Q6.5 7.3 5.65 6.75Q5.15 6.35 4.6 6.5Q4.8 7.05 4.1 6.9L3.15 6.7Q0.6 5.65 0.75 3.5L0.95 3.9L1.65 4.5M2.85 1.6L2.45 1.95Q1.35 3.5 1.65 4.5Q2.9 4.65 3.4 5.75L0.95 3.9L0.75 3.5Q0.5 3.05 0.35 3.15Q0.45 1.65 1.65 1Q2.2 0.5 2.45 1.15Q3.05 0.95 2.85 1.6M7.2 6L7.2 5.95L7.2 6M3.8 3.5L4.5 4.5L4.6 3.4Q4.75 5.1 4.4 5.7L6.05 4.9L3.8 6L4.6 6.5L3.4 5.75Q2.25 2.8 2.95 2.25L3.2 2.9L3.8 3.5M3.4 5.75L3.8 6L4.4 5.7Q4.75 5.1 4.5 4.5M4.6 3.4L5.05 2.5L5.75 1.95M4.2 2.15Q4.6 2.1 5.05 2.5L4.6 3.4Q3.85 3.15 4.2 2.15M4.6 6.5L3.8 6" />
<path style="fill:#4F4943;fill-opacity:1" d="M4.5 4.5L3.8 3.5L3.2 2.9Q3.7 2.2 4.2 2.15Q3.7 2.2 3.2 2.9L2.95 2.25L2.85 1.6Q3.05 0.95 2.45 1.15L2.7 0.75L3.35 0.85Q4.2 0.65 4.45 1.4L5.2 1.6Q4.05 1.75 4.2 2.15Q3.85 3.15 4.6 3.4L4.5 4.5M7.15 3.8L7.05 3.95L7.05 2.25Q7.45 1.35 7.7 2.6L7.7 3.15Q7.5 3 7.15 3.8M8.15 5.4Q7.5 5.55 7.2 5.95L7.4 5.55L7.8 4.75L8.25 4.4L8.15 5.4M5.65 6.75Q6.5 7.3 7.2 6Q7.15 7.25 6.15 7.55L5.15 7.1Q5.25 6.85 4.6 6.5L3.4 7.45Q2.05 7.25 1.7 6.9L1.15 6.6Q-0.35 5.75 0.1 4Q0.15 3.2 0.35 3.15Q0.5 3.05 0.75 3.5Q0.6 5.65 3.15 6.7L4.1 6.9Q4.8 7.05 4.6 6.5Q5.25 6.85 5.15 7.1Q5.15 6.35 5.65 6.75M1.65 4.5Q1.35 3.5 2.45 1.95L2.85 1.6L4.45 1.4L2.85 1.6L2.95 2.25Q2.25 2.8 3.4 5.75Q2.9 4.65 1.65 4.5M3.15 6.7L2.4 6.75L1.7 6.9L2.4 6.75L3.15 6.7" />
<path style="fill:none;stroke-width:0.7;stroke-linecap:round;stroke-linejoin:round;stroke-miterlimit:3;stroke:#000000;stroke-opacity:0.4" d="M7.05 2.25L7.05 1.7Q6.95 0.9 6.2 1.05Q5.55 1.1 5.65 0.5L5.15 0.75L4.8 0.9Q4.4 1.1 4.45 1.4L5.2 1.6L5.75 1.95Q6.25 2.4 6.45 3.3Q6.7 4.3 6.05 4.9L7.05 3.95L7.05 2.25z" />
<path style="fill:none;stroke-width:0.7;stroke-linecap:round;stroke-linejoin:round;stroke-miterlimit:3;stroke:#000000;stroke-opacity:0.4" d="M7.7 3.15L7.9 4L7.8 4.75L8.25 4.4Q9.2 1.9 7.05 1.7" />
<path style="fill:none;stroke-width:0.7;stroke-linecap:round;stroke-linejoin:round;stroke-miterlimit:3;stroke:#000000;stroke-opacity:0.4" d="M7.05 3.95L7.15 3.8Q7.5 3 7.7 3.15" />
<path style="fill:none;stroke-width:0.7;stroke-linecap:round;stroke-linejoin:round;stroke-miterlimit:3;stroke:#000000;stroke-opacity:0.4" d="M7.8 4.75L7.4 5.55L7.2 5.95" />
<path style="fill:none;stroke-width:0.7;stroke-linecap:round;stroke-linejoin:round;stroke-miterlimit:3;stroke:#000000;stroke-opacity:0.4" d="M8.25 4.4L8.75 4.2Q9.95 4.3 8.9 5.55Q9.25 6.35 8.65 6.15Q8.15 5.8 8.1 6.85Q8.1 7.15 7.35 7.5L6.15 7.55L5.15 7.1L3.4 7.45Q2.05 7.25 1.7 6.9L1.15 6.6Q-0.35 5.75 0.1 4Q0.15 3.2 0.35 3.15Q0.45 1.65 1.65 1Q2.2 0.5 2.45 1.15L2.7 0.75Q3.6 -0.8 4.8 0.9" />
<path style="fill:none;stroke-width:0.7;stroke-linecap:round;stroke-linejoin:round;stroke-miterlimit:3;stroke:#000000;stroke-opacity:0.4" d="M7.2 5.95L7.2 6" />
<path style="fill:none;stroke-width:0.7;stroke-linecap:round;stroke-linejoin:round;stroke-miterlimit:3;stroke:#000000;stroke-opacity:0.4" d="M2.95 2.25L3.2 2.9Q3.7 2.2 4.2 2.15" />
<path style="fill:none;stroke-width:0.7;stroke-linecap:round;stroke-linejoin:round;stroke-miterlimit:3;stroke:#000000;stroke-opacity:0.4" d="M4.45 1.4L2.85 1.6L2.95 2.25" />
<path style="fill:none;stroke-width:0.7;stroke-linecap:round;stroke-linejoin:round;stroke-miterlimit:3;stroke:#000000;stroke-opacity:0.4" d="M3.4 5.75L3.8 6L4.4 5.7Q4.75 5.1 4.5 4.5L3.8 3.5L3.2 2.9" />
<path style="fill:none;stroke-width:0.7;stroke-linecap:round;stroke-linejoin:round;stroke-miterlimit:3;stroke:#000000;stroke-opacity:0.4" d="M4.6 3.4L5.05 2.5Q4.6 2.1 4.2 2.15Q3.85 3.15 4.6 3.4L4.5 4.5" />
<path style="fill:none;stroke-width:0.7;stroke-linecap:round;stroke-linejoin:round;stroke-miterlimit:3;stroke:#000000;stroke-opacity:0.4" d="M0.35 3.15Q0.5 3.05 0.75 3.5L0.95 3.9L1.65 4.5Q1.35 3.5 2.45 1.95L2.85 1.6Q3.05 0.95 2.45 1.15" />
<path style="fill:none;stroke-width:0.7;stroke-linecap:round;stroke-linejoin:round;stroke-miterlimit:3;stroke:#000000;stroke-opacity:0.4" d="M3.4 5.75Q2.9 4.65 1.65 4.5" />
<path style="fill:none;stroke-width:0.7;stroke-linecap:round;stroke-linejoin:round;stroke-miterlimit:3;stroke:#000000;stroke-opacity:0.4" d="M1.7 6.9L2.4 6.75L3.15 6.7" />
<path style="fill:none;stroke-width:0.7;stroke-linecap:round;stroke-linejoin:round;stroke-miterlimit:3;stroke:#000000;stroke-opacity:0.4" d="M3.15 6.7L4.1 6.9Q4.8 7.05 4.6 6.5L3.8 6" />
<path style="fill:none;stroke-width:0.7;stroke-linecap:round;stroke-linejoin:round;stroke-miterlimit:3;stroke:#000000;stroke-opacity:0.4" d="M4.4 5.7L6.05 4.9" />
<path style="fill:none;stroke-width:0.7;stroke-linecap:round;stroke-linejoin:round;stroke-miterlimit:3;stroke:#000000;stroke-opacity:0.4" d="M5.05 2.5L5.75 1.95" />
<path style="fill:none;stroke-width:0.7;stroke-linecap:round;stroke-linejoin:round;stroke-miterlimit:3;stroke:#000000;stroke-opacity:0.4" d="M7.2 6Q6.5 7.3 5.65 6.75Q5.15 6.35 4.6 6.5Q5.25 6.85 5.15 7.1" />
</g>
</svg>
