<?xml version="1.0" encoding="utf-8"?>
<svg version="1.1" id="Layer_1"
xmlns="http://www.w3.org/2000/svg"
xmlns:xlink="http://www.w3.org/1999/xlink"
width="5px" height="6px"
xml:space="preserve">
<g id="PathID_1535" transform="matrix(1, 0, 0, 1, -3.95, -10.7)">
<path style="fill:#E1E3F0;fill-opacity:1" d="M5.65 11Q6.6 10.6 7.4 11Q8.2 11.45 8.45 12.45Q8.75 13.4 8.25 14.4Q7.8 15.35 6.9 15.75Q6 16.15 5.15 15.75Q4.4 15.25 4.15 14.35Q3.9 13.35 4.35 12.4Q4.75 11.35 5.65 11" />
<path style="fill:none;stroke-width:0.7;stroke-linecap:round;stroke-linejoin:round;stroke-miterlimit:3;stroke:#000000;stroke-opacity:0.25098" d="M5.65 11Q6.6 10.6 7.4 11Q8.2 11.45 8.45 12.45Q8.75 13.4 8.25 14.4Q7.8 15.35 6.9 15.75Q6 16.15 5.15 15.75Q4.4 15.25 4.15 14.35Q3.9 13.35 4.35 12.4Q4.75 11.35 5.65 11z" />
</g>
</svg>
