<?xml version="1.0" encoding="utf-8"?>
<svg version="1.1" id="Layer_1"
xmlns="http://www.w3.org/2000/svg"
xmlns:xlink="http://www.w3.org/1999/xlink"
width="9px" height="7px"
xml:space="preserve">
<g id="PathID_1977" transform="matrix(1, 0, 0, 1, 4.05, 3.35)">
<path style="fill:#808080;fill-opacity:1" d="M-1.6 0.9L-1.6 1.05Q-1.35 1.05 -1.25 1.35L-3.5 1.45L-3.4 0.4L-2.95 -0.05L-2.25 0L-2.1 0.05L-1.6 0.5L-1.55 0.85L-1.6 0.9M-1.25 1.35L-1.2 1.75Q-1.25 2.15 -1.45 2.25L-2.1 2.5L-2.6 2.4L-3.25 1.7L-2.65 1.75L-1.8 1.4L-1.6 1.05" />
<path style="fill:#808080;fill-opacity:0.8" d="M1.35 0.8L2.05 0.85L2.7 1L1.8 1.85L1.05 2.15L0.15 2.25L-0.55 1.8L-0.55 1.85L-0.6 2.7L-1.45 3.2L-2.05 3.35L-2.8 3.2L-3.65 2.1L-3.75 1.55L-4.05 1.15L-3.9 0L-3.45 -0.4L-2.65 -0.7L-2.2 -0.75L-2.3 -1.4L-2.2 -1.75L-1.95 -1.65L-1.55 -1.1L-1.45 -0.45L-1.25 0.35L-0.9 0.55L0.15 1.15Q0.35 1.4 0.75 1.15L1.35 0.8M-1.55 0.85L-1.35 1.15L-1.6 0.5L-1.55 0.5L-2.1 0.05L-2.2 -0.75L-2.25 0L-2.95 -0.05L-3.4 0.4L-3.5 1.45L-1.6 1.05L-1.8 1.4L-1.6 0.9L-1.55 0.85M-1.35 1.15L-0.55 1.8L-1.35 1.15L-1.55 0.85M-1.55 0.5L-1.25 0.35L-1.55 0.5L-1.6 0.5M-1.8 1.4L-2.65 1.75L-3.25 1.7L-2.6 2.4L-2.1 2.5L-1.45 2.25Q-1.25 2.15 -1.2 1.75L-1.25 1.35Q-1.35 1.05 -1.6 1.05M-2.2 -0.75L-2.1 0.05" />
<path style="fill:#808080;fill-opacity:0.501961" d="M3.2 -1.5Q3.05 -1.25 2.8 -1.3L1.55 -1.15L2.8 -1.3Q3.05 -1.25 3.2 -1.5L4 -0.95L4.05 -0.8L3.5 -0.4L2.5 -0.3L1.65 -0.35L1.55 -0.35Q1.05 -0.35 0.95 -0.75L1 -0.85L1.15 -1.1L0.9 -1.25L0 -2L-0.1 -2.1Q-0.3 -2.45 -0.15 -3L-0.1 -3.05L-0.1 -3L1.1 -2.3L1.3 -2.25L1.3 -2.2L1.65 -2.25L1.15 -1.1L1.55 -1.15L2.05 -1.75L2.3 -2.15L3.2 -1.5M2.1 -2.3L2.3 -2.15L2.05 -1.75L1.55 -1.15L1.15 -1.1L1 -0.85L1.65 -2.25L2.1 -2.3M0.15 -0.8L-0.9 -1.85Q-1.15 -2.2 -1.05 -2.65L-1.05 -2.75L-0.85 -3.35L-0.35 -3.3L-0.25 -3.25L-0.1 -3.05L-0.15 -3Q-0.3 -2.45 -0.1 -2.1L0 -2L0.9 -1.25L1.15 -1.1M1 -0.85L0.95 -0.75Q1.05 -0.35 1.55 -0.35L1.65 -0.35L1.75 -0.2L1.75 -0.15L1.75 0L1.7 0.3L1.5 0.65L1.35 0.8L0.75 1.15Q0.35 1.4 0.15 1.15L-0.9 0.55L-0.85 0.55L-0.15 0.4L0.05 0.35L0.3 0.25L0.8 -0.3L0.85 -0.4L0.9 -0.55L0.95 -0.75L0.6 -0.65L-1.25 0.35L-1.45 -0.45L-1.55 -1.1L-1.45 -1.35L-1.1 -1.8L-1 -1.8L-0.9 -1.85L0.15 -0.8Q0.3 -0.65 0.6 -0.65M0.9 -0.55L0.85 -0.4L0.8 -0.3L0.3 0.25L0.05 0.35L-0.15 0.4L-0.85 0.55L-0.9 0.55L-1.25 0.35L0.6 -0.65Q0.3 -0.65 0.15 -0.8L0.95 -0.75L0.9 -0.55" />
<path style="fill:none;stroke-width:0.7;stroke-linecap:round;stroke-linejoin:round;stroke-miterlimit:3;stroke:#000000;stroke-opacity:0.14902" d="M1.65 -2.25L1.15 -1.1L1.55 -1.15L2.05 -1.75L2.3 -2.15" />
<path style="fill:none;stroke-width:0.7;stroke-linecap:round;stroke-linejoin:round;stroke-miterlimit:3;stroke:#000000;stroke-opacity:0.14902" d="M-0.1 -3.05L-0.15 -3Q-0.3 -2.45 -0.1 -2.1L0 -2L0.9 -1.25L1.15 -1.1L1 -0.85L0.95 -0.75" />
<path style="fill:none;stroke-width:0.7;stroke-linecap:round;stroke-linejoin:round;stroke-miterlimit:3;stroke:#000000;stroke-opacity:0.301961" d="M0.95 -0.75Q1.05 -0.35 1.55 -0.35L1.65 -0.35L2.5 -0.3L3.5 -0.4L4.05 -0.8" />
<path style="fill:none;stroke-width:0.7;stroke-linecap:round;stroke-linejoin:round;stroke-miterlimit:3;stroke:#000000;stroke-opacity:0.14902" d="M3.2 -1.5Q3.05 -1.25 2.8 -1.3L1.55 -1.15" />
<path style="fill:none;stroke-width:0.7;stroke-linecap:round;stroke-linejoin:round;stroke-miterlimit:3;stroke:#000000;stroke-opacity:0.301961" d="M0.95 -0.75L0.6 -0.65" />
<path style="fill:none;stroke-width:0.7;stroke-linecap:round;stroke-linejoin:round;stroke-miterlimit:3;stroke:#000000;stroke-opacity:0.14902" d="M0.6 -0.65L-1.25 0.35L-0.9 0.55L-0.85 0.55L-0.15 0.4L0.05 0.35L0.3 0.25L0.8 -0.3L0.85 -0.4L0.9 -0.55L0.95 -0.75" />
<path style="fill:none;stroke-width:0.7;stroke-linecap:round;stroke-linejoin:round;stroke-miterlimit:3;stroke:#000000;stroke-opacity:0.301961" d="M-0.9 -1.85L0.15 -0.8Q0.3 -0.65 0.6 -0.65" />
<path style="fill:none;stroke-width:0.7;stroke-linecap:round;stroke-linejoin:round;stroke-miterlimit:3;stroke:#000000;stroke-opacity:0.14902" d="M1.35 0.8L1.5 0.65L1.7 0.3L1.75 0L1.75 -0.15L1.75 -0.2L1.65 -0.35" />
<path style="fill:none;stroke-width:0.7;stroke-linecap:round;stroke-linejoin:round;stroke-miterlimit:3;stroke:#000000;stroke-opacity:0.301961" d="M2.7 1L1.8 1.85L1.05 2.15L0.15 2.25L-0.55 1.8L-0.55 1.85L-0.6 2.7L-1.45 3.2L-2.05 3.35L-2.8 3.2L-3.65 2.1L-3.75 1.55L-4.05 1.15L-3.9 0L-3.45 -0.4L-2.65 -0.7L-2.2 -0.75L-2.3 -1.4L-2.2 -1.75" />
<path style="fill:none;stroke-width:0.7;stroke-linecap:round;stroke-linejoin:round;stroke-miterlimit:3;stroke:#000000;stroke-opacity:0.14902" d="M-1.55 -1.1L-1.45 -1.35L-1.1 -1.8L-1 -1.8L-0.9 -1.85" />
<path style="fill:none;stroke-width:0.7;stroke-linecap:round;stroke-linejoin:round;stroke-miterlimit:3;stroke:#000000;stroke-opacity:0.301961" d="M-0.9 -1.85Q-1.15 -2.2 -1.05 -2.65L-1.05 -2.75L-0.85 -3.35" />
<path style="fill:none;stroke-width:0.7;stroke-linecap:round;stroke-linejoin:round;stroke-miterlimit:3;stroke:#000000;stroke-opacity:0.14902" d="M-1.25 0.35L-1.45 -0.45L-1.55 -1.1" />
<path style="fill:none;stroke-width:0.7;stroke-linecap:round;stroke-linejoin:round;stroke-miterlimit:3;stroke:#000000;stroke-opacity:0.301961" d="M-1.55 0.85L-1.6 0.5L-2.1 0.05" />
<path style="fill:none;stroke-width:0.7;stroke-linecap:round;stroke-linejoin:round;stroke-miterlimit:3;stroke:#000000;stroke-opacity:0.14902" d="M-2.1 0.05L-2.25 0L-2.95 -0.05L-3.4 0.4L-3.5 1.45L-1.6 1.05L-1.6 0.9L-1.55 0.85" />
<path style="fill:none;stroke-width:0.7;stroke-linecap:round;stroke-linejoin:round;stroke-miterlimit:3;stroke:#000000;stroke-opacity:0.301961" d="M-1.55 0.85L-1.35 1.15L-0.55 1.8" />
<path style="fill:none;stroke-width:0.7;stroke-linecap:round;stroke-linejoin:round;stroke-miterlimit:3;stroke:#000000;stroke-opacity:0.14902" d="M-1.6 0.5L-1.55 0.5L-1.25 0.35" />
<path style="fill:none;stroke-width:0.7;stroke-linecap:round;stroke-linejoin:round;stroke-miterlimit:3;stroke:#000000;stroke-opacity:0.14902" d="M-1.8 1.4L-2.65 1.75L-3.25 1.7L-2.6 2.4L-2.1 2.5L-1.45 2.25Q-1.25 2.15 -1.2 1.75L-1.25 1.35Q-1.35 1.05 -1.6 1.05L-1.8 1.4z" />
<path style="fill:none;stroke-width:0.7;stroke-linecap:round;stroke-linejoin:round;stroke-miterlimit:3;stroke:#000000;stroke-opacity:0.14902" d="M-0.9 0.55L0.15 1.15Q0.35 1.4 0.75 1.15L1.35 0.8" />
<path style="fill:none;stroke-width:0.7;stroke-linecap:round;stroke-linejoin:round;stroke-miterlimit:3;stroke:#000000;stroke-opacity:0.301961" d="M-2.2 -0.75L-2.1 0.05" />
</g>
</svg>
