<?xml version="1.0" encoding="utf-8"?>
<svg version="1.1" id="Layer_1"
xmlns="http://www.w3.org/2000/svg"
xmlns:xlink="http://www.w3.org/1999/xlink"
width="26px" height="12px"
xml:space="preserve">
<g id="PathID_640" transform="matrix(1, 0, 0, 1, 0.15, 0.15)">
<path style="fill:#808080;fill-opacity:1" d="M23.3 6.45Q24.35 4.75 24.45 1.9Q23 0.8 21.35 3.4L21.15 5.65Q20.6 4.85 20.45 4.1Q19.7 3.5 18.35 5.15Q17.85 9.55 15.85 10.8Q13.8 12 10.8 11.05Q9.4 10.25 9 8.75Q8.55 7.2 8.65 6.05Q4.15 5.4 2 6.05Q0.4 9 0.1 6.95Q-0.6 3.9 4.15 3.75L9.4 3.5Q10.1 2.7 12.7 2.45Q15.3 2.2 17.75 3.5Q18.8 2.15 20.4 2.55Q21.95 0.2 24.55 0.55L25.5 0L25.5 1.75L25.1 2.3Q24.85 6.75 23.25 7.55L22.4 7L23.3 6.45M17 4.8Q16.35 3.65 13.7 3.6Q11.05 3.5 10.1 4.8Q9.5 6.2 10.2 8.4Q10.9 10.55 14.1 10.45Q16.65 9.55 16.95 6.15L17 4.8" />
<path style="fill:none;stroke-width:0.7;stroke-linecap:round;stroke-linejoin:round;stroke-miterlimit:3;stroke:#000000;stroke-opacity:0.4" d="M21.15 5.65Q20.6 4.85 20.45 4.1Q19.7 3.5 18.35 5.15Q17.85 9.55 15.85 10.8Q13.8 12 10.8 11.05Q9.4 10.25 9 8.75Q8.55 7.2 8.65 6.05Q4.15 5.4 2 6.05Q0.4 9 0.1 6.95Q-0.6 3.9 4.15 3.75L9.4 3.5Q10.1 2.7 12.7 2.45Q15.3 2.2 17.75 3.5Q18.8 2.15 20.4 2.55Q21.95 0.2 24.55 0.55L25.5 0L25.5 1.75L25.1 2.3Q24.85 6.75 23.25 7.55L22.4 7Q21.6 6.5 21.15 5.65L21.35 3.4Q23 0.8 24.45 1.9Q24.35 4.75 23.3 6.45L22.4 7" />
<path style="fill:none;stroke-width:0.7;stroke-linecap:round;stroke-linejoin:round;stroke-miterlimit:3;stroke:#000000;stroke-opacity:0.4" d="M17 4.8Q16.35 3.65 13.7 3.6Q11.05 3.5 10.1 4.8Q9.5 6.2 10.2 8.4Q10.9 10.55 14.1 10.45Q16.65 9.55 16.95 6.15L17 4.8z" />
</g>
<g id="PathID_641" transform="matrix(1, 0, 0, 1, 0.15, 0.15)">
<path style="fill:#D4D4D4;fill-opacity:1" d="M9.05 5.2Q9.05 4.5 9.45 4.35Q9.65 4.2 9.65 4.65Q9.65 5.25 9.35 5.4Q9.05 5.55 9.05 5.2" />
</g>
</svg>
