<?xml version="1.0" encoding="utf-8"?>
<svg version="1.1" id="Layer_1"
xmlns="http://www.w3.org/2000/svg"
xmlns:xlink="http://www.w3.org/1999/xlink"
width="25px" height="27px"
xml:space="preserve">
<g id="PathID_1613" transform="matrix(1, 0, 0, 1, 0.05, 0.05)">
<radialGradient
id="RadialGradID_447" gradientUnits="userSpaceOnUse" gradientTransform="matrix(0.00514221, 0, 0, 0.00514221, 20.35, 0.4)" spreadMethod ="pad" cx="0" cy="0" r="819.2" fx="0" fy="0" >
<stop  offset="0.0196078"  style="stop-color:#808080;stop-opacity:1" />
<stop  offset="1"  style="stop-color:#808080;stop-opacity:0" />
</radialGradient>
<path style="fill:url(#RadialGradID_447) " d="M23.85 6.95Q23.85 5.75 22.1 4.4L21.65 3.9L20.5 0.8Q21.2 2.05 22.4 3.05Q24 4.85 23.85 6.95" />
<radialGradient
id="RadialGradID_448" gradientUnits="userSpaceOnUse" gradientTransform="matrix(0.00512695, 0, 0, 0.00512695, 13.45, 0.25)" spreadMethod ="pad" cx="0" cy="0" r="819.2" fx="210479" fy="0" >
<stop  offset="0.0392157"  style="stop-color:#E0FFEF;stop-opacity:1" />
<stop  offset="1"  style="stop-color:#E0FFEF;stop-opacity:0" />
</radialGradient>
<path style="fill:url(#RadialGradID_448) " d="M21.7 6.65Q21.35 4.3 18.75 4Q15.95 3.85 15.1 2.5Q16.5 3.3 18.3 3.3Q20.7 3.25 21.65 3.9L22.1 4.4Q22.6 5.2 21.7 6.65" />
<radialGradient
id="RadialGradID_449" gradientUnits="userSpaceOnUse" gradientTransform="matrix(0.00915527, 0, 0, 0.00915527, 13.35, -1.75)" spreadMethod ="pad" cx="0" cy="0" r="819.2" fx="210364" fy="0" >
<stop  offset="0.00392157"  style="stop-color:#414141;stop-opacity:1" />
<stop  offset="1"  style="stop-color:#414141;stop-opacity:0" />
<stop  offset="1"  style="stop-color:#99FFCC;stop-opacity:0" />
<stop  offset="1"  style="stop-color:#99FFCC;stop-opacity:0" />
</radialGradient>
<path style="fill:url(#RadialGradID_449) " d="M19.5 7.4L18.55 6.6Q17.45 5.15 14 4.1Q12.75 2.3 12.8 0.35Q14 3.7 18.65 5.25Q21.35 6.25 21.4 7.15L20.75 7.95L21.4 7.15L21.7 6.65Q22.6 5.2 22.1 4.4Q23.85 5.75 23.85 6.95L23.95 7.95Q23.45 10.35 20.2 10.15Q20 9.55 19 8.65L19.5 7.4" />
<radialGradient
id="RadialGradID_450" gradientUnits="userSpaceOnUse" gradientTransform="matrix(0.00701904, 0, 0, 0.00701904, 14.1, -0.8)" spreadMethod ="pad" cx="0" cy="0" r="819.2" fx="0" fy="0" >
<stop  offset="0.0196078"  style="stop-color:#808080;stop-opacity:1" />
<stop  offset="1"  style="stop-color:#808080;stop-opacity:0" />
</radialGradient>
<path style="fill:url(#RadialGradID_450) " d="M18.75 4Q21.35 4.3 21.7 6.65L21.4 7.15Q21.35 6.25 18.65 5.25Q14 3.7 12.8 0.35Q13.8 1.75 15.1 2.5Q15.95 3.85 18.75 4" />
<radialGradient
id="RadialGradID_451" gradientUnits="userSpaceOnUse" gradientTransform="matrix(0.00947571, 0, 0, 0.00947571, 8.1, 0.1)" spreadMethod ="pad" cx="0" cy="0" r="819.2" fx="210479" fy="0" >
<stop  offset="0.0392157"  style="stop-color:#E0FFEF;stop-opacity:1" />
<stop  offset="1"  style="stop-color:#E0FFEF;stop-opacity:0" />
</radialGradient>
<path style="fill:url(#RadialGradID_451) " d="M13.4 3.7L14 4.1Q17.45 5.15 18.55 6.6Q17.05 5.8 15.9 5.6Q17.1 7 16.55 8.4Q14.05 5.7 10.5 4.05L11.7 4.35Q13.8 5 15.9 6.85Q15.1 5.25 13.4 3.7" />
<radialGradient
id="RadialGradID_452" gradientUnits="userSpaceOnUse" gradientTransform="matrix(0.00666809, 0, 0, 0.00666809, 11.9, -1.75)" spreadMethod ="pad" cx="0" cy="0" r="819.2" fx="0" fy="0" >
<stop  offset="0.0196078"  style="stop-color:#808080;stop-opacity:1" />
<stop  offset="1"  style="stop-color:#808080;stop-opacity:0" />
</radialGradient>
<path style="fill:url(#RadialGradID_452) " d="M15.9 6.85Q13.8 5 11.7 4.35Q9.65 1.85 11.35 0Q11.4 2.2 13.4 3.7Q15.1 5.25 15.9 6.85" />
<radialGradient
id="RadialGradID_453" gradientUnits="userSpaceOnUse" gradientTransform="matrix(0.0197601, 0, 0, 0.00871277, 11.6, 26.8)" spreadMethod ="pad" cx="0" cy="0" r="819.2" fx="0" fy="0" >
<stop  offset="0.0509804"  style="stop-color:#414141;stop-opacity:1" />
<stop  offset="1"  style="stop-color:#414141;stop-opacity:0" />
<stop  offset="1"  style="stop-color:#99FFCC;stop-opacity:0" />
<stop  offset="1"  style="stop-color:#99FFCC;stop-opacity:0" />
</radialGradient>
<path style="fill:url(#RadialGradID_453) " d="M6.75 17.15L10.8 10.3L10.6 7.3Q11.45 6.55 11.1 5.45Q13.3 6.3 15.3 8.45L17.1 8.8L18.3 8.65Q15.9 12.3 13.55 17.95L13.85 19.55L14.65 21.1L13.85 20.35L13.5 19.95L13.85 21.05Q14.75 23.2 16.55 24.6Q14.75 24 13.3 22.6L12.15 21.3L12.05 19.15Q11.25 21.1 11.4 22.6Q11.5 24.4 12.95 25.65L13.4 26.9Q11.3 25.2 10.15 22.6L10.1 22.45L10 22.6Q8.9 24.55 7.45 24.85L8.75 22.6L9.05 21.55L7.45 22.6Q5.7 23.55 3.95 23.55L5.1 22.6Q6.65 20.9 6.75 17.95L6.75 17.15M9.4 20.5L10.1 22.45L9.4 20.5M12.9 19.2L13.5 19.95L12.9 19.2" />
<radialGradient
id="RadialGradID_454" gradientUnits="userSpaceOnUse" gradientTransform="matrix(0.00598145, -0.00402832, 0.00865173, 0.0129242, -1.7, 15.35)" spreadMethod ="pad" cx="0" cy="0" r="819.2" fx="210364" fy="0" >
<stop  offset="0.0509804"  style="stop-color:#414141;stop-opacity:1" />
<stop  offset="1"  style="stop-color:#414141;stop-opacity:0" />
<stop  offset="1"  style="stop-color:#99FFCC;stop-opacity:0" />
<stop  offset="1"  style="stop-color:#99FFCC;stop-opacity:0" />
</radialGradient>
<path style="fill:url(#RadialGradID_454) " d="M8.15 7.8L10.6 7.3L10.8 10.3L6.75 17.15L6.75 17.95Q4.05 18.4 3.3 20.35Q1.95 17.45 3.6 14L0 13.4Q2.9 12.1 4.6 9.5L5.4 7.95L8.15 7.8M8.05 12.4Q6.85 13.3 5.45 13.7L3.6 14L5.45 13.7Q6.85 13.3 8.05 12.4" />
<radialGradient
id="RadialGradID_455" gradientUnits="userSpaceOnUse" gradientTransform="matrix(0.00775146, 0, 0, 0.00775146, 6.05, 1.15)" spreadMethod ="pad" cx="0" cy="0" r="819.2" fx="0" fy="0" >
<stop  offset="0.0196078"  style="stop-color:#808080;stop-opacity:1" />
<stop  offset="1"  style="stop-color:#808080;stop-opacity:0" />
</radialGradient>
<path style="fill:url(#RadialGradID_455) " d="M18.55 6.6L19.5 7.4L19 8.65L18.3 8.65L17.1 8.8L15.3 8.45Q13.3 6.3 11.1 5.45Q8.95 4.55 7.15 4.25L10.5 4.05Q14.05 5.7 16.55 8.4Q17.1 7 15.9 5.6Q17.05 5.8 18.55 6.6" />
<radialGradient
id="RadialGradID_456" gradientUnits="userSpaceOnUse" gradientTransform="matrix(0.00982666, 0, 0, 0.00982666, 3.7, 1.4)" spreadMethod ="pad" cx="0" cy="0" r="819.2" fx="210463" fy="0" >
<stop  offset="0.00392157"  style="stop-color:#414141;stop-opacity:1" />
<stop  offset="1"  style="stop-color:#414141;stop-opacity:0" />
<stop  offset="1"  style="stop-color:#99FFCC;stop-opacity:0" />
<stop  offset="1"  style="stop-color:#99FFCC;stop-opacity:0" />
</radialGradient>
<path style="fill:url(#RadialGradID_456) " d="M11.1 5.45Q11.45 6.55 10.6 7.3L8.15 7.8L5.4 7.95Q3.6 7.65 1.9 6.3Q3.85 6.2 5.2 5.1L7.15 4.25Q8.95 4.55 11.1 5.45" />
<radialGradient
id="RadialGradID_457" gradientUnits="userSpaceOnUse" gradientTransform="matrix(0.00457764, 0, 0, 0.00457764, 16.3, 22.2)" spreadMethod ="pad" cx="0" cy="0" r="819.2" fx="0" fy="0" >
<stop  offset="0.0509804"  style="stop-color:#808080;stop-opacity:1" />
<stop  offset="1"  style="stop-color:#808080;stop-opacity:0" />
<stop  offset="1"  style="stop-color:#99FFCC;stop-opacity:0" />
<stop  offset="1"  style="stop-color:#99FFCC;stop-opacity:0" />
</radialGradient>
<path style="fill:url(#RadialGradID_457) " d="M13.85 19.55L13.55 17.95L13.85 17.85L14.35 17.7Q14.2 20.15 16 22.05L14.65 21.1L13.85 19.55" />
<radialGradient
id="RadialGradID_458" gradientUnits="userSpaceOnUse" gradientTransform="matrix(0.0075531, 0, 0, 0.0075531, 13.75, 26.2)" spreadMethod ="pad" cx="0" cy="0" r="819.2" fx="0" fy="0" >
<stop  offset="0"  style="stop-color:#808080;stop-opacity:1" />
<stop  offset="1"  style="stop-color:#808080;stop-opacity:0" />
</radialGradient>
<path style="fill:url(#RadialGradID_458) " d="M11.4 22.6Q11.25 21.1 12.05 19.15L12.15 21.3L12.3 22.6L12.95 25.65Q11.5 24.4 11.4 22.6" />
<path style="fill:none;stroke-width:0.7;stroke-linecap:round;stroke-linejoin:round;stroke-miterlimit:3;stroke:#000000;stroke-opacity:0.498039" d="M22.4 3.05Q21.2 2.05 20.5 0.8L21.65 3.9L22.1 4.4" />
<path style="fill:none;stroke-width:0.7;stroke-linecap:round;stroke-linejoin:round;stroke-miterlimit:3;stroke:#000000;stroke-opacity:0.498039" d="M22.4 3.05L22.9 3.45Q24.9 4.9 24.5 6.75" />
<path style="fill:none;stroke-width:0.7;stroke-linecap:round;stroke-linejoin:round;stroke-miterlimit:3;stroke:#000000;stroke-opacity:0.498039" d="M14.35 17.7Q14.2 20.15 16 22.05L14.65 21.1L13.85 20.35L13.5 19.95L13.85 21.05Q14.75 23.2 16.55 24.6Q14.75 24 13.3 22.6L12.15 21.3L12.3 22.6L12.95 25.65L13.4 26.9Q11.3 25.2 10.15 22.6L10.1 22.45L10 22.6Q8.9 24.55 7.45 24.85L8.75 22.6L9.05 21.55L7.45 22.6Q5.7 23.55 3.95 23.55L5.1 22.6Q6.65 20.9 6.75 17.95Q4.05 18.4 3.3 20.35Q1.95 17.45 3.6 14L0 13.4Q2.9 12.1 4.6 9.5L5.4 7.95Q3.6 7.65 1.9 6.3Q3.85 6.2 5.2 5.1L7.15 4.25L10.5 4.05L11.7 4.35Q9.65 1.85 11.35 0Q11.4 2.2 13.4 3.7L14 4.1Q12.75 2.3 12.8 0.35Q13.8 1.75 15.1 2.5Q16.5 3.3 18.3 3.3Q20.7 3.25 21.65 3.9" />
<path style="fill:none;stroke-width:0.7;stroke-linecap:round;stroke-linejoin:round;stroke-miterlimit:3;stroke:#000000;stroke-opacity:0.498039" d="M20.75 7.95L21.4 7.15" />
<path style="fill:none;stroke-width:0.7;stroke-linecap:round;stroke-linejoin:round;stroke-miterlimit:3;stroke:#000000;stroke-opacity:0.498039" d="M21.4 7.15L21.7 6.65" />
<path style="fill:none;stroke-width:0.7;stroke-linecap:round;stroke-linejoin:round;stroke-miterlimit:3;stroke:#000000;stroke-opacity:0.498039" d="M21.7 6.65Q22.6 5.2 22.1 4.4" />
<path style="fill:none;stroke-width:0.7;stroke-linecap:round;stroke-linejoin:round;stroke-miterlimit:3;stroke:#000000;stroke-opacity:0.498039" d="M6.75 17.15L6.75 17.95" />
<path style="fill:none;stroke-width:0.7;stroke-linecap:round;stroke-linejoin:round;stroke-miterlimit:3;stroke:#000000;stroke-opacity:0.498039" d="M8.15 7.8L5.4 7.95" />
<path style="fill:none;stroke-width:0.7;stroke-linecap:round;stroke-linejoin:round;stroke-miterlimit:3;stroke:#000000;stroke-opacity:0.498039" d="M11.7 4.35Q13.8 5 15.9 6.85" />
<path style="fill:none;stroke-width:0.7;stroke-linecap:round;stroke-linejoin:round;stroke-miterlimit:3;stroke:#000000;stroke-opacity:0.498039" d="M18.55 6.6Q17.45 5.15 14 4.1" />
<path style="fill:none;stroke-width:0.7;stroke-linecap:round;stroke-linejoin:round;stroke-miterlimit:3;stroke:#000000;stroke-opacity:0.498039" d="M3.6 14L5.45 13.7Q6.85 13.3 8.05 12.4" />
<path style="fill:none;stroke-width:0.7;stroke-linecap:round;stroke-linejoin:round;stroke-miterlimit:3;stroke:#000000;stroke-opacity:0.498039" d="M10.1 22.45L9.4 20.5" />
<path style="fill:none;stroke-width:0.7;stroke-linecap:round;stroke-linejoin:round;stroke-miterlimit:3;stroke:#000000;stroke-opacity:0.498039" d="M13.5 19.95L12.9 19.2" />
<path style="fill:none;stroke-width:0.7;stroke-linecap:round;stroke-linejoin:round;stroke-miterlimit:3;stroke:#000000;stroke-opacity:0.498039" d="M12.05 19.15L12.15 21.3" />
</g>
</svg>
