<?xml version="1.0" encoding="utf-8"?>
<svg version="1.1" id="Layer_1"
xmlns="http://www.w3.org/2000/svg"
xmlns:xlink="http://www.w3.org/1999/xlink"
width="10px" height="6px"
xml:space="preserve">
<g id="PathID_1296" transform="matrix(1, 0, 0, 1, 0, 0)">
<path style="fill:#585552;fill-opacity:1" d="M9.6 1.45L8.95 2.8L8.3 2.35L8.5 1.8L8.55 1.5L8.35 1.1L9.6 1.45M8 3.35L8.45 3.85L8.5 4.4L8.6 5.15L7.7 4.45Q7.7 3.95 8 3.35M4.6 3.45L3.65 3.1L0 2.95Q0.15 2.2 0.6 1.75L0.75 1.85L1.75 1.7Q1.95 2.25 2.25 2.4L2.65 2.45L4.25 2.95L4.6 3.25L4.6 3.45M1.5 0.75L0.55 1L0.5 0.4L0.5 0.2L1.45 0.05L1.5 0.75" />
<path style="fill:#808080;fill-opacity:1" d="M7.75 2Q6.25 1.2 4.55 1.6Q3 0.6 1.5 0.75Q6.55 0.8 8.35 1.1L8.55 1.5L8.5 1.8L8.3 2.35L7.75 2M4.6 3.25L4.25 2.95L2.65 2.45L2.25 2.4Q1.95 2.25 1.75 1.7Q3.1 1.65 4.6 2.5L6.25 2.4Q7.15 2.6 8 3.35Q7.7 3.95 7.7 4.45Q7.05 4.05 6.2 3.95L4.6 3.45L4.6 3.25M1.5 0.75L1.45 0.05Q2.75 -0.15 4.1 0.6Q4.5 1.05 4.55 1.6" />
</g>
</svg>
