<?xml version="1.0" encoding="utf-8"?>
<svg version="1.1" id="Layer_1"
xmlns="http://www.w3.org/2000/svg"
xmlns:xlink="http://www.w3.org/1999/xlink"
width="10px" height="9px"
xml:space="preserve">
<g id="PathID_1619" transform="matrix(1, 0, 0, 1, 0.15, 0.15)">
<path style="fill:#808080;fill-opacity:1" d="M7.85 0.95Q8.4 1.15 8.95 2.05Q9.5 2.9 9.45 3.45Q8.7 7.7 4.75 7.8Q3.75 7.9 1.35 5.9Q-1.1 3.85 0.9 0.75Q2.4 -0.25 3.4 0.05Q4.65 0.35 5.5 1.45L3.25 1.3Q6.6 0.6 7.85 0.95M3.25 1.3Q2.05 1.55 2.6 2.55Q5.7 3.55 6.85 3.25Q8 2.9 8.05 1.65L5.5 1.45M7.45 4.9Q4.1 5.35 2.5 4.8Q1.65 5.1 2.25 5.7Q4.45 7.25 5.65 7Q6.9 6.75 7.75 5.75Q8.15 4.95 7.45 4.9" />
<path style="fill:#AFAFAF;fill-opacity:1" d="M5.5 1.45L5.75 2L8.05 1.65Q8 2.9 6.85 3.25Q5.7 3.55 2.6 2.55Q2.05 1.55 3.25 1.3L5.5 1.45M5.75 2L5.5 1.45M7.75 5.75Q6.9 6.75 5.65 7Q4.45 7.25 2.25 5.7Q1.65 5.1 2.5 4.8Q4.1 5.35 7.45 4.9Q8.15 4.95 7.75 5.75" />
<path style="fill:none;stroke-width:0.7;stroke-linecap:round;stroke-linejoin:round;stroke-miterlimit:3;stroke:#000000;stroke-opacity:0.4" d="M5.5 1.45Q4.65 0.35 3.4 0.05Q2.4 -0.25 0.9 0.75Q-1.1 3.85 1.35 5.9Q3.75 7.9 4.75 7.8Q8.7 7.7 9.45 3.45Q9.5 2.9 8.95 2.05Q8.4 1.15 7.85 0.95Q6.6 0.6 5.5 1.45z" />
<path style="fill:none;stroke-width:0.7;stroke-linecap:round;stroke-linejoin:round;stroke-miterlimit:3;stroke:#000000;stroke-opacity:0.4" d="M5.5 1.45L5.75 2" />
</g>
</svg>
