<?xml version="1.0" encoding="utf-8"?>
<svg version="1.1" id="Layer_1"
xmlns="http://www.w3.org/2000/svg"
xmlns:xlink="http://www.w3.org/1999/xlink"
width="27px" height="28px"
xml:space="preserve">
<g id="PathID_4160" transform="matrix(1, 0, 0, 1, -0.5, 5.7)">
<linearGradient
id="LinearGradID_1357" gradientUnits="userSpaceOnUse" gradientTransform="matrix(0.00382996, 0.0103455, 0.00624084, -0.00228882, 16.5, 13.8)" spreadMethod ="pad" x1="-819.2" y1="0" x2="819.2" y2="0" >
<stop  offset="0" style="stop-color:#D74600;stop-opacity:1" />
<stop  offset="1" style="stop-color:#983300;stop-opacity:1" />
</linearGradient>
<path style="fill:url(#LinearGradID_1357) " d="M23.1 5.6L26.05 16.1L10.85 21.75L6.25 12.1L23.1 5.6" />
<path style="fill:#933000;fill-opacity:1" d="M22.8 4.5L23.1 5.6L6.25 12.1L5.6 10.85L22.8 4.5" />
<linearGradient
id="LinearGradID_1358" gradientUnits="userSpaceOnUse" gradientTransform="matrix(0.000473022, 0.00506592, 0.00204468, -0.000183105, 13.6, 6.15)" spreadMethod ="pad" x1="-819.2" y1="0" x2="819.2" y2="0" >
<stop  offset="0" style="stop-color:#D74600;stop-opacity:1" />
<stop  offset="1" style="stop-color:#983300;stop-opacity:1" />
</linearGradient>
<path style="fill:url(#LinearGradID_1358) " d="M5.6 10.85L4.2 7.85L21.9 1.35L22.8 4.5L5.6 10.85" />
<path style="fill:none;stroke-width:0.7;stroke-linecap:round;stroke-linejoin:round;stroke-miterlimit:3;stroke:#000000;stroke-opacity:0.301961" d="M6.25 12.1L10.85 21.75L26.05 16.1L23.1 5.6" />
<path style="fill:none;stroke-width:0.7;stroke-linecap:round;stroke-linejoin:round;stroke-miterlimit:3;stroke:#000000;stroke-opacity:0.301961" d="M6.25 12.1L5.6 10.85L4.2 7.85L21.9 1.35L22.8 4.5L23.1 5.6" />
<path style="fill:none;stroke-width:0.7;stroke-linecap:round;stroke-linejoin:round;stroke-miterlimit:3;stroke:#000000;stroke-opacity:0.301961" d="M22.8 4.5L5.6 10.85" />
</g>
<g id="PathID_4161" transform="matrix(1, 0, 0, 1, -0.5, 5.7)">
<path style="fill:#000000;fill-opacity:0.329412" d="M24.5 10.35Q20.75 6.95 14.85 3.7L17.1 2.85L23.25 5.45L24.5 10.35M9.5 18.5L7.15 13.25L9.15 6.15L12.8 4.8L17.7 19.6L15.6 20.35Q13.45 14.5 10.95 9.65Q9.4 13.15 9.5 18.5" />
</g>
<g id="PathID_4162" transform="matrix(1, 0, 0, 1, -0.5, 5.7)">
<path style="fill:#FCC200;fill-opacity:1" d="M16.05 -1.95Q16.75 -1.75 17.25 -0.8Q14.2 0.3 13.45 -0.95L13.7 -1.85L16.05 -1.95M19.6 -2.2Q18.15 -2.65 17.3 -3.55Q16.6 -4.3 16.2 -5.4Q22.05 -6.2 23.85 -3Q22.05 -3.4 19.6 -2.2M21.55 4.25L21 5.1Q18.75 3.2 20.3 2.7L21.3 2.9Q21.85 3.55 21.55 4.25M22.4 4.55Q22.45 3.85 23.1 3.3Q24.95 3.85 26.55 4.8L23.9 5.1L25.25 7.7L22.7 5.95Q22.4 5.25 22.4 4.55M13.15 11L11.7 7.15L16.3 5.75L17.25 10.05Q15.95 12.7 13.15 11M3.3 2L3.05 3.35Q1.95 3.75 0.65 5.3Q0.45 2.05 2.4 0.45Q3.65 -0.15 3.3 2M6.2 2.75L4.8 2.7L4.75 1.6Q4.9 0 6.45 -1.45L9.25 0.4Q10.45 1.55 6.2 2.75" />
<path style="fill:#A66400;fill-opacity:1" d="M17.15 0.3L17.8 -1.05L19.6 -2.2Q22.05 -3.4 23.85 -3Q23.9 -1.55 22.7 -0.3Q20.55 -1.75 17.15 0.3M10.35 5.2L11.05 4.65Q11.45 4.25 10.95 3.85L11.6 3.8L11.95 3.85L13.4 4.45L14.4 3.6L15.15 2.9L15.55 3.15L15.95 3.1L16.1 3.1L16.95 3L17.2 2.85L17.75 2.6L18.35 2.6L18 3.3Q17.95 3.8 18.6 4.35L15.7 3.7L15.7 3.6L13.4 4.45L10.95 5.35L10.9 5.55L10.35 5.65L9.45 5.7L10.35 5.2M14.75 15.1L14.6 14.7Q15.5 12.7 18.4 14.2L18.5 14.85Q15.75 13 14.75 15.1M3.05 3.35Q4.15 2.65 4.8 2.7L6.25 3.3Q4.45 4 3.9 5.1L3.9 5.15Q3.75 6.3 5.85 6.75Q1.7 7.5 0.65 5.3Q1.95 3.75 3.05 3.35M12.6 3.5L13.4 4.45L11.95 3.85L11.6 3.8L9.95 3.25L11.4 3Q11.85 2.85 11.7 2.45L12.45 3.3L12.6 3.5L12.65 3.2L12.8 2.05Q13.1 2.5 13.65 2.55L14.5 2.35L13.95 3.4L13.4 4.45L12.6 3.5M16.95 3L15.7 3.6L16.95 3" />
<path style="fill:#FFE841;fill-opacity:1" d="M19.6 -2.2L17.8 -1.05L17.25 -0.8Q16.75 -1.75 16.05 -1.95L13.7 -1.85Q14.65 -4 16.2 -5.4Q16.6 -4.3 17.3 -3.55Q18.15 -2.65 19.6 -2.2M21 5.1L21.55 4.25Q21.85 3.55 21.3 2.9L23.1 3.3Q22.45 3.85 22.4 4.55Q22.4 5.25 22.7 5.95L21.25 5.3L21 5.1M14.6 14.7L13.15 11Q15.95 12.7 17.25 10.05L18.4 14.2Q15.5 12.7 14.6 14.7M3.05 3.35L3.3 2Q3.65 -0.15 2.4 0.45Q3.95 -0.75 6.45 -1.45Q4.9 0 4.75 1.6L4.8 2.7Q4.15 2.65 3.05 3.35" />
<path style="fill:#CB8600;fill-opacity:1" d="M17.2 2.85L16.95 3L16.1 3.1L15.95 3.1L15.55 3.15L15.15 2.9L17.15 0.3Q20.55 -1.75 22.7 -0.3Q21.15 1.25 17.75 2.6L17.2 2.85M21 5.1L21.25 5.3L18.6 4.35Q17.95 3.8 18 3.3L18.35 2.6L20.3 2.7Q18.75 3.2 21 5.1M11.7 7.15L11.05 5.55L10.9 5.55L10.95 5.35L13.4 4.45L15.7 3.6L15.7 3.7L16.3 5.75L11.7 7.15M18.5 14.85L19.5 18.7L16.55 19.8L14.75 15.1Q15.75 13 18.5 14.85M3.9 5.15L3.9 5.1Q4.45 4 6.25 3.3Q8.1 4.05 10.95 3.85Q11.45 4.25 11.05 4.65L10.35 5.2L9.45 5.7L9.2 5.8L8.9 5.9L5.85 6.75Q3.75 6.3 3.9 5.15M9.25 0.4Q10.75 1.35 11.7 2.45Q11.85 2.85 11.4 3L9.95 3.25L6.2 2.75Q10.45 1.55 9.25 0.4M17.8 -1.05L17.5 -0.8Q15.7 0.7 14.5 2.35L13.65 2.55Q13.1 2.5 12.8 2.05Q13 0.35 13.45 -0.95Q14.2 0.3 17.25 -0.8L17.8 -1.05" />
<path style="fill:none;stroke-width:0.7;stroke-linecap:round;stroke-linejoin:round;stroke-miterlimit:3;stroke:#000000;stroke-opacity:0.301961" d="M13.45 -0.95L13.7 -1.85Q14.65 -4 16.2 -5.4Q22.05 -6.2 23.85 -3Q23.9 -1.55 22.7 -0.3Q21.15 1.25 17.75 2.6L18.35 2.6L20.3 2.7L21.3 2.9L23.1 3.3Q24.95 3.85 26.55 4.8L23.9 5.1L25.25 7.7L22.7 5.95L21.25 5.3L18.6 4.35L15.7 3.7L16.3 5.75L17.25 10.05L18.4 14.2L18.5 14.85L19.5 18.7L16.55 19.8L14.75 15.1L14.6 14.7L13.15 11L11.7 7.15L11.05 5.55L10.9 5.55L10.35 5.65L9.45 5.7L9.2 5.8L8.9 5.9L5.85 6.75Q1.7 7.5 0.65 5.3Q0.45 2.05 2.4 0.45Q3.95 -0.75 6.45 -1.45L9.25 0.4Q10.75 1.35 11.7 2.45L12.45 3.3L12.6 3.5L12.65 3.2L12.8 2.05Q13 0.35 13.45 -0.95z" />
<path style="fill:none;stroke-width:0.7;stroke-linecap:round;stroke-linejoin:round;stroke-miterlimit:3;stroke:#000000;stroke-opacity:0.301961" d="M19.6 -2.2L17.8 -1.05L17.15 0.3" />
<path style="fill:none;stroke-width:0.7;stroke-linecap:round;stroke-linejoin:round;stroke-miterlimit:3;stroke:#000000;stroke-opacity:0.301961" d="M14.5 2.35Q15.7 0.7 17.5 -0.8L17.8 -1.05" />
<path style="fill:none;stroke-width:0.7;stroke-linecap:round;stroke-linejoin:round;stroke-miterlimit:3;stroke:#000000;stroke-opacity:0.301961" d="M16.95 3L17.2 2.85L17.75 2.6" />
<path style="fill:none;stroke-width:0.7;stroke-linecap:round;stroke-linejoin:round;stroke-miterlimit:3;stroke:#000000;stroke-opacity:0.301961" d="M15.7 3.7L15.7 3.6L13.4 4.45L10.95 5.35L10.9 5.55" />
<path style="fill:none;stroke-width:0.7;stroke-linecap:round;stroke-linejoin:round;stroke-miterlimit:3;stroke:#000000;stroke-opacity:0.301961" d="M15.15 2.9L14.4 3.6L13.4 4.45L11.95 3.85L11.6 3.8L10.95 3.85" />
<path style="fill:none;stroke-width:0.7;stroke-linecap:round;stroke-linejoin:round;stroke-miterlimit:3;stroke:#000000;stroke-opacity:0.301961" d="M15.7 3.6L16.95 3" />
<path style="fill:none;stroke-width:0.7;stroke-linecap:round;stroke-linejoin:round;stroke-miterlimit:3;stroke:#000000;stroke-opacity:0.301961" d="M14.5 2.35L13.95 3.4L13.4 4.45L12.6 3.5" />
<path style="fill:none;stroke-width:0.7;stroke-linecap:round;stroke-linejoin:round;stroke-miterlimit:3;stroke:#000000;stroke-opacity:0.301961" d="M9.95 3.25L11.6 3.8" />
<path style="fill:none;stroke-width:0.7;stroke-linecap:round;stroke-linejoin:round;stroke-miterlimit:3;stroke:#000000;stroke-opacity:0.301961" d="M17.15 0.3L15.15 2.9" />
<path style="fill:none;stroke-width:0.7;stroke-linecap:round;stroke-linejoin:round;stroke-miterlimit:3;stroke:#000000;stroke-opacity:0.301961" d="M9.95 3.25L6.2 2.75L4.8 2.7L6.25 3.3Q8.1 4.05 10.95 3.85" />
<path style="fill:none;stroke-width:0.7;stroke-linecap:round;stroke-linejoin:round;stroke-miterlimit:3;stroke:#000000;stroke-opacity:0.301961" d="M4.8 2.7Q4.15 2.65 3.05 3.35" />
</g>
<g id="PathID_4163" transform="matrix(1, 0, 0, 1, -0.5, 5.7)">
<path style="fill:#CB8600;fill-opacity:1" d="M8.5 13.25Q8.55 11.95 7.75 11.4Q7 10.8 5.85 10.9Q6.3 9.35 7 7.9Q8.65 8 9.05 8.45L9.45 9.65Q8.75 11.5 8.5 13.25" />
<path style="fill:#FCC200;fill-opacity:1" d="M8.4 14.4L7.15 14.4L6.3 14.2L5.25 13.75Q5.35 12.45 5.85 10.9Q7 10.8 7.75 11.4Q8.55 11.95 8.5 13.25L8.4 14.4M7.05 15.35Q7.9 15.55 8.55 16.45L9.1 18.65L7.3 17.25L6.55 19.1L5.8 17.45Q5.4 16.4 5.35 15.5L7.05 15.35" />
<path style="fill:#A66400;fill-opacity:1" d="M11.05 5.55Q9.8 8.4 9.45 9.65L9.05 8.45Q8.65 8 7 7.9L7.7 6.75L11.05 5.55" />
<path style="fill:#FFE841;fill-opacity:1" d="M8.55 16.45Q7.9 15.55 7.05 15.35L5.35 15.5L5.2 14.65Q5.1 14.05 5.25 13.75L6.3 14.2L7.15 14.4L8.4 14.4L8.55 16.45" />
<path style="fill:none;stroke-width:0.7;stroke-linecap:round;stroke-linejoin:round;stroke-miterlimit:3;stroke:#000000;stroke-opacity:0.301961" d="M7.7 6.75L7 7.9" />
<path style="fill:none;stroke-width:0.7;stroke-linecap:round;stroke-linejoin:round;stroke-miterlimit:3;stroke:#000000;stroke-opacity:0.301961" d="M9.45 9.65Q9.8 8.4 11.05 5.55" />
<path style="fill:none;stroke-width:0.7;stroke-linecap:round;stroke-linejoin:round;stroke-miterlimit:3;stroke:#000000;stroke-opacity:0.301961" d="M5.85 10.9Q5.35 12.45 5.25 13.75" />
<path style="fill:none;stroke-width:0.7;stroke-linecap:round;stroke-linejoin:round;stroke-miterlimit:3;stroke:#000000;stroke-opacity:0.301961" d="M8.4 14.4L8.5 13.25Q8.75 11.5 9.45 9.65" />
<path style="fill:none;stroke-width:0.7;stroke-linecap:round;stroke-linejoin:round;stroke-miterlimit:3;stroke:#000000;stroke-opacity:0.301961" d="M5.85 10.9Q6.3 9.35 7 7.9" />
<path style="fill:none;stroke-width:0.7;stroke-linecap:round;stroke-linejoin:round;stroke-miterlimit:3;stroke:#000000;stroke-opacity:0.301961" d="M5.35 15.5L5.2 14.65Q5.1 14.05 5.25 13.75" />
<path style="fill:none;stroke-width:0.7;stroke-linecap:round;stroke-linejoin:round;stroke-miterlimit:3;stroke:#000000;stroke-opacity:0.301961" d="M5.35 15.5Q5.4 16.4 5.8 17.45L6.55 19.1L7.3 17.25L9.1 18.65L8.55 16.45" />
<path style="fill:none;stroke-width:0.7;stroke-linecap:round;stroke-linejoin:round;stroke-miterlimit:3;stroke:#000000;stroke-opacity:0.301961" d="M8.4 14.4L8.55 16.45" />
</g>
</svg>
