<?xml version="1.0" encoding="utf-8"?>
<svg version="1.1" id="Layer_1"
xmlns="http://www.w3.org/2000/svg"
xmlns:xlink="http://www.w3.org/1999/xlink"
width="13px" height="7px"
xml:space="preserve">
<g id="PathID_2263" transform="matrix(1, 0, 0, 1, 0.1, 0.1)">
<path style="fill:#808080;fill-opacity:1" d="M11.9 0Q12.3 0.3 12.3 0.8Q8.4 1.45 5.15 3.05L1.85 5L0.1 6.45L0 6.4L1.4 5Q3.15 3.45 5.15 2.35Q8.2 0.65 11.9 0" />
<path style="fill:none;stroke-width:0.7;stroke-linecap:round;stroke-linejoin:round;stroke-miterlimit:3;stroke:#000000;stroke-opacity:0.4" d="M11.9 0Q12.3 0.3 12.3 0.8Q8.4 1.45 5.15 3.05L1.85 5L0.1 6.45L0 6.4L1.4 5Q3.15 3.45 5.15 2.35Q8.2 0.65 11.9 0z" />
</g>
</svg>
