<?xml version="1.0" encoding="utf-8"?>
<svg version="1.1" id="Layer_1"
xmlns="http://www.w3.org/2000/svg"
xmlns:xlink="http://www.w3.org/1999/xlink"
width="10px" height="16px"
xml:space="preserve">
<g id="PathID_1887" transform="matrix(1, 0, 0, 1, 0.15, 0.15)">
<path style="fill:#4F4943;fill-opacity:1" d="M9.25 1.35Q2 7.6 1.85 14.85L0.15 14.8L0 11.8Q0.75 13 1.55 12.2Q3.2 6.4 5.95 3.6Q8.7 0.75 8.8 0.85L9.25 1.35" />
<path style="fill:#808080;fill-opacity:1" d="M5.05 0.15Q7.4 -0.35 8.8 0.85Q8.7 0.75 5.95 3.6Q3.2 6.4 1.55 12.2Q0.75 13 0 11.8Q0.15 5.1 5.05 0.15" />
<path style="fill:none;stroke-width:0.7;stroke-linecap:round;stroke-linejoin:round;stroke-miterlimit:3;stroke:#000000;stroke-opacity:0.4" d="M8.8 0.85Q7.4 -0.35 5.05 0.15Q0.15 5.1 0 11.8L0.15 14.8L1.85 14.85Q2 7.6 9.25 1.35L8.8 0.85z" />
</g>
</svg>
