<?xml version="1.0" encoding="utf-8"?>
<svg version="1.1" id="Layer_1"
xmlns="http://www.w3.org/2000/svg"
xmlns:xlink="http://www.w3.org/1999/xlink"
width="24px" height="16px"
xml:space="preserve">
<g id="PathID_2478" transform="matrix(1, 0, 0, 1, 0.15, 0.15)">
<path style="fill:#808080;fill-opacity:1" d="M23.25 11.9Q23.05 13.05 19.4 14.05Q11.2 16 6.65 15.25L19.65 11.6L23.25 11.9" />
</g>
<g id="PathID_2479" transform="matrix(1, 0, 0, 1, 0.15, 0.15)">
<path style="fill:#808080;fill-opacity:1" d="M18.4 0Q19.7 0.15 19.4 2.25Q9.7 4.55 0.75 8.05Q-0.4 7.05 0.2 5.5Q7.6 2.05 18.4 0" />
<path style="fill:none;stroke-width:0.7;stroke-linecap:round;stroke-linejoin:round;stroke-miterlimit:3;stroke:#000000;stroke-opacity:0.4" d="M0.2 5.5Q-0.4 7.05 0.75 8.05Q9.7 4.55 19.4 2.25Q19.7 0.15 18.4 0Q7.6 2.05 0.2 5.5z" />
</g>
</svg>
