<?xml version="1.0" encoding="utf-8"?>
<svg version="1.1" id="Layer_1"
xmlns="http://www.w3.org/2000/svg"
xmlns:xlink="http://www.w3.org/1999/xlink"
width="14px" height="23px"
xml:space="preserve">
<g id="PathID_2649" transform="matrix(1, 0, 0, 1, 6.8, 11.25)">
<path style="fill:#808080;fill-opacity:1" d="M5.9 0.35Q5.9 2.35 5.4 4.2L5.3 4.55Q4.35 6.9 1.35 9.85L0.7 6.5L1.4 6.4L2.45 6Q3.1 5.45 3.7 3Q4.5 -0.1 3.9 -2.95Q3.2 -6.3 -0.1 -8.7Q-3.55 -11.2 -6.65 -10.25Q-4.75 -11.75 -0.8 -10.6Q3.6 -9.25 5.2 -5.3L5.45 -4.7L5.9 0.35" />
<path style="fill:#665B5B;fill-opacity:1" d="M5.45 -4.7Q6.95 -0.7 6.6 3Q6.35 5.75 5.4 7L1.6 11.05L1.35 9.85Q4.35 6.9 5.3 4.55L5.4 4.2Q5.9 2.35 5.9 0.35L5.45 -4.7" />
<path style="fill:none;stroke-width:0.7;stroke-linecap:round;stroke-linejoin:round;stroke-miterlimit:3;stroke:#000000;stroke-opacity:0.301961" d="M1.35 9.85L0.7 6.5L1.4 6.4L2.45 6Q3.1 5.45 3.7 3Q4.5 -0.1 3.9 -2.95Q3.2 -6.3 -0.1 -8.7Q-3.55 -11.2 -6.65 -10.25Q-4.75 -11.75 -0.8 -10.6Q3.6 -9.25 5.2 -5.3L5.45 -4.7Q6.95 -0.7 6.6 3Q6.35 5.75 5.4 7L1.6 11.05L1.35 9.85z" />
<path style="fill:none;stroke-width:0.7;stroke-linecap:round;stroke-linejoin:round;stroke-miterlimit:3;stroke:#000000;stroke-opacity:0.2" d="M1.35 9.85Q4.35 6.9 5.3 4.55" />
</g>
</svg>
