<?xml version="1.0" encoding="utf-8"?>
<svg version="1.1" id="Layer_1"
xmlns="http://www.w3.org/2000/svg"
xmlns:xlink="http://www.w3.org/1999/xlink"
width="31px" height="33px"
xml:space="preserve">
<g id="PathID_3236" transform="matrix(1, 0, 0, 1, 0.35, 0.3)">
<path style="fill:none;stroke-width:0.7;stroke-linecap:round;stroke-linejoin:miter;stroke-miterlimit:5;stroke:#777777;stroke-opacity:0.760784" d="M28.7 11.8Q25.1 12.1 21 6.95Q22.75 7.25 24.4 8.3L23.9 7.45Q22.2 5.15 18.75 3.5Q20.75 2.75 23 3.5L21.05 1.75Q19.75 0.75 17.6 0.35Q9.9 -1.15 4.45 4L5.35 8.85L8.6 8.95Q14.65 9.8 18.15 16.45Q18.2 13.9 16.4 11.55Q19.95 13.65 23.75 13.3Q26.2 13.1 28.7 11.8z" />
<path style="fill:none;stroke-width:0.7;stroke-linecap:round;stroke-linejoin:miter;stroke-miterlimit:5;stroke:#777777;stroke-opacity:0.760784" d="M5.35 18.05Q7.6 18.2 8.7 17.5Q6.3 17 4.55 15.2Q2.65 13.3 1.6 10Q0.25 14.45 0 17.7Q-0.15 19.8 0.45 21.9Q2.95 26.4 0.8 31.35Q2.5 30.6 3.7 29.7Q5.05 28.6 5.75 27.1Q6.45 25.05 5.55 22.6Q7.25 24.25 7.8 26.05L8.05 24.8Q8.4 22.55 7.65 20.25Q7 19.15 5.35 18.05z" />
</g>
</svg>
