<?xml version="1.0" encoding="utf-8"?>
<svg version="1.1" id="Layer_1"
xmlns="http://www.w3.org/2000/svg"
xmlns:xlink="http://www.w3.org/1999/xlink"
width="20px" height="24px"
xml:space="preserve">
<g id="PathID_3095" transform="matrix(1, 0, 0, 1, 7.55, 15.7)">
<path style="fill:none;stroke-width:0.7;stroke-linecap:round;stroke-linejoin:round;stroke-miterlimit:3;stroke:#000000;stroke-opacity:0.2" d="M5.05 -9.35Q3.9 -9.65 3.6 -10.75Q3.5 -11.25 3.65 -11.75L3.75 -12L4 -12.4L4.35 -12.8" />
<path style="fill:none;stroke-width:0.7;stroke-linecap:round;stroke-linejoin:round;stroke-miterlimit:3;stroke:#000000;stroke-opacity:0.2" d="M10 -6.85L9.95 -7.6" />
<path style="fill:none;stroke-width:0.7;stroke-linecap:round;stroke-linejoin:round;stroke-miterlimit:3;stroke:#000000;stroke-opacity:0.2" d="M9.95 -8.2L10.05 -9.2" />
<path style="fill:none;stroke-width:0.7;stroke-linecap:round;stroke-linejoin:round;stroke-miterlimit:3;stroke:#000000;stroke-opacity:0.2" d="M2.05 -8.95Q2.8 -10.45 2.25 -10.85L1.05 -11.2L0.3 -10.95" />
<path style="fill:none;stroke-width:0.7;stroke-linecap:round;stroke-linejoin:round;stroke-miterlimit:3;stroke:#000000;stroke-opacity:0.2" d="M4.4 -8.6L4.8 -7.6L3.9 -6.85L5.4 -7.05" />
<path style="fill:none;stroke-width:0.7;stroke-linecap:round;stroke-linejoin:round;stroke-miterlimit:3;stroke:#000000;stroke-opacity:0.2" d="M3.9 -6.85L3.35 -6.45" />
<path style="fill:none;stroke-width:0.7;stroke-linecap:round;stroke-linejoin:round;stroke-miterlimit:3;stroke:#000000;stroke-opacity:0.2" d="M2.25 -8.1L3.6 -9.15" />
<path style="fill:none;stroke-width:0.7;stroke-linecap:round;stroke-linejoin:round;stroke-miterlimit:3;stroke:#000000;stroke-opacity:0.2" d="M8.25 -6.5L8.7 -5.05" />
<path style="fill:none;stroke-width:0.7;stroke-linecap:round;stroke-linejoin:round;stroke-miterlimit:3;stroke:#000000;stroke-opacity:0.2" d="M11.1 -7.3L10.8 -8.2" />
<path style="fill:none;stroke-width:0.7;stroke-linecap:round;stroke-linejoin:round;stroke-miterlimit:3;stroke:#000000;stroke-opacity:0.2" d="M10.8 -4.85L10.8 -5.45" />
<path style="fill:none;stroke-width:0.7;stroke-linecap:round;stroke-linejoin:round;stroke-miterlimit:3;stroke:#000000;stroke-opacity:0.2" d="M0.3 6.95L1.05 8.15" />
<path style="fill:none;stroke-width:0.7;stroke-linecap:round;stroke-linejoin:round;stroke-miterlimit:3;stroke:#000000;stroke-opacity:0.2" d="M-2.55 -6.15Q-2.35 -7.3 -3.1 -7.65" />
<path style="fill:none;stroke-width:0.7;stroke-linecap:round;stroke-linejoin:round;stroke-miterlimit:3;stroke:#000000;stroke-opacity:0.2" d="M-6.55 -0.95L-6.05 -1.6" />
<path style="fill:none;stroke-width:0.7;stroke-linecap:round;stroke-linejoin:round;stroke-miterlimit:3;stroke:#000000;stroke-opacity:0.2" d="M-7.55 -0.6L-6.8 -1.25L-6.7 -1.65L-6.15 -2.3L-6.1 -2.75" />
<path style="fill:none;stroke-width:0.7;stroke-linecap:round;stroke-linejoin:round;stroke-miterlimit:3;stroke:#000000;stroke-opacity:0.2" d="M-1.6 4.25L-1.6 4.2L-1.65 4.2L-1.6 4.25L-0.55 5.15L0.1 4" />
<path style="fill:none;stroke-width:0.7;stroke-linecap:round;stroke-linejoin:round;stroke-miterlimit:3;stroke:#000000;stroke-opacity:0.2" d="M-4 3.95L-3.75 2.25" />
<path style="fill:none;stroke-width:0.7;stroke-linecap:round;stroke-linejoin:round;stroke-miterlimit:3;stroke:#000000;stroke-opacity:0.2" d="M-0.55 5.15L-1.05 6.85" />
<path style="fill:none;stroke-width:0.7;stroke-linecap:round;stroke-linejoin:round;stroke-miterlimit:3;stroke:#000000;stroke-opacity:0.2" d="M0.1 -4.4L-0.6 -5.75" />
</g>
<g id="PathID_3096" transform="matrix(1, 0, 0, 1, 7.55, 15.7)">
<path style="fill:#000000;fill-opacity:0.301961" d="M7.15 -12.85L7.5 -13.1Q8.2 -13.1 8.55 -11.5Q8.55 -10.9 8.1 -10.9Q7.55 -10.9 7.25 -11.65Q7.05 -12 7 -12.4L7.15 -12.85M9.35 -10.05Q9.4 -9.75 9.15 -9.75L8.9 -9.95L8.9 -10.1Q8.9 -10.45 9.15 -10.4L9.35 -10.05M0.7 4.5Q0.7 4.1 1 4.1Q1.75 4.1 1.8 5.15Q1.8 5.6 1.4 5.6Q0.7 5.6 0.7 4.5M-5.15 -5.15Q-4.75 -5.75 -4.25 -5.75Q-3.5 -5.75 -3.5 -5.15L-3.85 -4.55Q-4.2 -4.05 -4.5 -4.05L-5.05 -4.2L-5.45 -4.4L-5.15 -5.15M-6.35 -0.1L-6.6 0.15L-6.8 -0.15L-6.55 -0.4L-6.35 -0.1" />
<path style="fill:#000000;fill-opacity:0.101961" d="M5.2 -15.7L6.85 -14.65L6.35 -13.85Q5.9 -13.4 5.7 -13.3Q5.5 -13.65 5.2 -15.7M0.2 -7.15Q-0.05 -7.15 -0.05 -7.4Q-0.1 -7.75 0.45 -7.65Q0.45 -7.15 0.2 -7.15" />
<radialGradient
id="RadialGradID_989" gradientUnits="userSpaceOnUse" gradientTransform="matrix(0.00244141, 0, 0, 0.00244141, 3.55, -11.05)" spreadMethod ="pad" cx="0" cy="0" r="819.2" fx="0" fy="0" >
<stop  offset="0"  style="stop-color:#000000;stop-opacity:0.231373" />
<stop  offset="1"  style="stop-color:#000000;stop-opacity:0" />
</radialGradient>
<path style="fill:url(#RadialGradID_989) " d="M5.35 -9.65Q4.15 -9.5 3.6 -10.9Q3.45 -11.35 3.8 -12Q4.2 -12.8 4.95 -12.65Q6 -12.4 6.3 -10.95Q6.5 -9.85 5.35 -9.65" />
<radialGradient
id="RadialGradID_990" gradientUnits="userSpaceOnUse" gradientTransform="matrix(0.00268555, 0, 0, 0.00268555, 4.65, -6.6)" spreadMethod ="pad" cx="0" cy="0" r="819.2" fx="0" fy="0" >
<stop  offset="0"  style="stop-color:#000000;stop-opacity:0.231373" />
<stop  offset="1"  style="stop-color:#000000;stop-opacity:0" />
</radialGradient>
<path style="fill:url(#RadialGradID_990) " d="M5 -8.55Q6.85 -8.55 6.8 -6.55Q6.65 -5.6 5.75 -5.6Q5 -5.6 4.45 -6.7Q4.15 -7.3 4.45 -7.95Q4.7 -8.55 5 -8.55" />
<radialGradient
id="RadialGradID_991" gradientUnits="userSpaceOnUse" gradientTransform="matrix(0.00244141, 0, 0, 0.00244141, 2.3, -10.8)" spreadMethod ="pad" cx="0" cy="0" r="819.2" fx="0" fy="0" >
<stop  offset="0"  style="stop-color:#000000;stop-opacity:0.231373" />
<stop  offset="1"  style="stop-color:#000000;stop-opacity:0" />
</radialGradient>
<path style="fill:url(#RadialGradID_991) " d="M2.2 -9.2Q1.75 -8.35 1.15 -8.35Q0.15 -8.35 -0.25 -10.15Q-0.25 -11.15 1.1 -11.15Q2.55 -11.15 2.55 -10.4L2.2 -9.2" />
<path style="fill:#000000;fill-opacity:0.2" d="M6.1 -1.95Q6.8 -2.45 7.75 -2.45Q8.5 -2.45 8.85 -2.05L9.05 -0.95L5.85 -0.45Q5.5 -0.85 5.5 -1.1Q5.5 -1.5 6.1 -1.95M10.25 -10.35Q11.2 -8.65 11.5 -6.2Q10.2 -8.65 10.2 -9.2L10.25 -10.35" />
<path style="fill:#000000;fill-opacity:0.14902" d="M-2.8 5.95Q-4.5 6.15 -4.2 5.15Q-3.95 4.15 -3.4 4L-2.25 3.9Q-1.35 3.95 -1.15 4.6Q-0.75 5.65 -2.8 5.95" />
</g>
</svg>
