<?xml version="1.0" encoding="utf-8"?>
<svg version="1.1" id="Layer_1"
xmlns="http://www.w3.org/2000/svg"
xmlns:xlink="http://www.w3.org/1999/xlink"
width="14px" height="13px"
xml:space="preserve">
<g id="PathID_2325" transform="matrix(1, 0, 0, 1, 0.15, 0.15)">
<path style="fill:#808080;fill-opacity:1" d="M11.1 4.55L10.25 4.5Q9.95 4.6 9.5 5Q9.1 5.55 9.05 6.15Q9.1 6.75 9.45 7.2Q10 7.7 10.6 7.55Q11.2 7.5 11.65 7.05L12.05 6.35L12.15 5.8L11.85 5L11.1 4.55M10.7 10Q8.5 10.75 5.6 10.5Q4.5 10.4 3.9 9.1Q2.95 5.5 3.75 3.45Q5.25 0.9 6.9 2.85L6.7 4.6Q9.55 2.35 11.65 3.7Q12.6 4.35 12.95 5.45L13 5.8L13 6.45Q13 7.25 12.5 8.2L11.7 9.25L11.15 9.8L10.7 10M8.25 7.8L8 7.2L7.35 6.9L6.95 7.05L6.75 7.3Q6.5 7.5 6.4 7.95Q6.45 8.3 6.75 8.45Q7 8.85 7.35 8.8L8.05 8.5L8.25 7.8" />
<path style="fill:#B6B6B6;fill-opacity:1" d="M11.85 5L12.15 5.8L12.05 6.35L11.65 7.05Q11.2 7.5 10.6 7.55Q10 7.7 9.45 7.2Q9.1 6.75 9.05 6.15Q9.1 5.55 9.5 5Q9.95 4.6 10.25 4.5L11.1 4.55L11.85 5M8.05 8.5L7.35 8.8Q7 8.85 6.75 8.45Q6.45 8.3 6.4 7.95Q6.5 7.5 6.75 7.3L6.95 7.05L7.35 6.9L8 7.2L8.25 7.8L8.05 8.5" />
<path style="fill:#4F4943;fill-opacity:1" d="M11.15 9.8L10.55 10.35Q9.15 11.45 7.65 11.85Q5.8 12.4 3.5 11.9Q1.15 9.65 0.35 7.4Q-0.45 5 0.7 2.25Q2.2 -0.65 5.05 0.2Q5.9 0.4 6.3 1L6.85 2L6.9 2.85Q5.25 0.9 3.75 3.45Q2.95 5.5 3.9 9.1Q4.5 10.4 5.6 10.5Q8.5 10.75 10.7 10L11.15 9.8" />
<path style="fill:none;stroke-width:0.7;stroke-linecap:round;stroke-linejoin:round;stroke-miterlimit:3;stroke:#000000;stroke-opacity:0.4" d="M6.9 2.85L6.7 4.6Q9.55 2.35 11.65 3.7Q12.6 4.35 12.95 5.45L13 5.8L13 6.45Q13 7.25 12.5 8.2L11.7 9.25L11.15 9.8L10.55 10.35Q9.15 11.45 7.65 11.85Q5.8 12.4 3.5 11.9Q1.15 9.65 0.35 7.4Q-0.45 5 0.7 2.25Q2.2 -0.65 5.05 0.2Q5.9 0.4 6.3 1L6.85 2L6.9 2.85z" />
</g>
</svg>
