<?xml version="1.0" encoding="utf-8"?>
<svg version="1.1" id="Layer_1"
xmlns="http://www.w3.org/2000/svg"
xmlns:xlink="http://www.w3.org/1999/xlink"
width="25px" height="12px"
xml:space="preserve">
<g id="PathID_679" transform="matrix(1, 0, 0, 1, 0.15, 0.15)">
<path style="fill:#808080;fill-opacity:1" d="M23.65 5.2L23 3L22.4 1.65L19.55 3L21.8 6.2L23.65 5.2M22.8 0.55Q23.55 2.1 24.35 5.85L21.5 7.15Q19.9 4.05 17.5 6.7L16.85 9.8Q10.8 11.25 8.45 10.95Q7.8 9.45 7.45 7.3L3 5.25Q1.55 6.6 2.35 8.8Q0.15 9.3 0 6.85L0.05 6.2Q0.25 3.95 1.6 2.4Q2.75 1.15 4.25 1.45L8.7 3.9Q13.15 3.85 18.3 2.1L22.8 0.55M15.35 4.2L9.05 5.2L9.95 9.45L15.7 8.65Q15.9 6.35 15.35 4.2" />
<path style="fill:#4F4943;fill-opacity:1" d="M18.3 2.1Q18.05 1.35 16.65 0L22.8 0.55L18.3 2.1" />
<path style="fill:none;stroke-width:0.7;stroke-linecap:round;stroke-linejoin:round;stroke-miterlimit:3;stroke:#000000;stroke-opacity:0.4" d="M22.8 0.55Q23.55 2.1 24.35 5.85L21.5 7.15Q19.9 4.05 17.5 6.7L16.85 9.8Q10.8 11.25 8.45 10.95Q7.8 9.45 7.45 7.3L3 5.25Q1.55 6.6 2.35 8.8Q0.15 9.3 0 6.85L0.05 6.2Q0.25 3.95 1.6 2.4Q2.75 1.15 4.25 1.45L8.7 3.9Q13.15 3.85 18.3 2.1Q18.05 1.35 16.65 0L22.8 0.55L18.3 2.1" />
</g>
</svg>
