<?xml version="1.0" encoding="utf-8"?>
<svg version="1.1" id="Layer_1"
xmlns="http://www.w3.org/2000/svg"
xmlns:xlink="http://www.w3.org/1999/xlink"
width="39px" height="35px"
xml:space="preserve">
<g id="PathID_1736" transform="matrix(1, 0, 0, 1, 0.15, 0.15)">
<path style="fill:#808080;fill-opacity:1" d="M22.65 28.8L20.3 26.8L19.5 28.3Q18.35 24.55 18.05 20.8Q19.5 18.15 20.85 17.75Q21.4 23.2 22.65 28.8" />
<path style="fill:#4F4943;fill-opacity:1" d="M20.7 15.6L20.85 17.75Q19.5 18.15 18.05 20.8L17.95 17.9L20.7 15.6" />
<path style="fill:none;stroke-width:0.7;stroke-linecap:round;stroke-linejoin:round;stroke-miterlimit:3;stroke:#000000;stroke-opacity:0.301961" d="M17.95 17.9L18.05 20.8" />
<path style="fill:none;stroke-width:0.7;stroke-linecap:round;stroke-linejoin:round;stroke-miterlimit:3;stroke:#000000;stroke-opacity:0.301961" d="M20.85 17.75L20.7 15.6" />
<path style="fill:none;stroke-width:0.7;stroke-linecap:round;stroke-linejoin:round;stroke-miterlimit:3;stroke:#000000;stroke-opacity:0.301961" d="M18.05 20.8Q18.35 24.55 19.5 28.3L20.3 26.8L22.65 28.8Q21.4 23.2 20.85 17.75" />
</g>
<g id="PathID_1737" transform="matrix(1, 0, 0, 1, 0.15, 0.15)">
<path style="fill:#4F4943;fill-opacity:1" d="M30.4 7.4L27.75 4.65Q30.6 2.8 31.75 0Q32.2 0.75 32.2 1.95L31.9 3.6L31.05 4.85L31.55 4.85L33.05 4.25L33.1 4.65L32.6 5.8L31.85 6.4Q34.85 8.85 34.95 12.55L36.45 13.55L35.45 13.85Q37.7 15.55 38.35 17.05L36.2 17.55L37.35 19.25L36.1 18.95Q35.95 24.15 36.65 28.05L35.75 27L35.9 30.1Q33.55 27.3 33.5 22.2Q36.05 19.05 36.2 17.55L36.1 16.3Q34.65 16 34.15 14.95Q32.8 11.7 31.25 11Q31.7 8.9 30.4 7.4M1.1 29.45Q2.35 29.45 3.4 28.8Q4.5 28.15 5.15 28.15Q5.45 28.15 5.95 28.45L6.7 28.75Q7.3 28.75 8.1 27.8L8.95 26.5Q9.1 26.1 9.5 26L10.15 25.9L11.45 25.3L9.95 24.6Q12.8 24 12.65 22.8L13.8 23L15.45 22.55Q16.25 22 16.25 21.25L16.15 20.25L13.45 20.65L12.3 20.55L11.55 20.35L11.6 20.35L12.3 19.9L13.2 18.95L11.95 19.15Q10 19.15 9.05 18.3L10.8 18.15Q12.3 17.9 12.45 17.3Q9.65 17.1 8.45 15.9Q7.35 14.8 7.35 12.75L7.45 11.55L7.85 10.9Q7.95 14.15 13.9 15.35L19.45 11Q16.3 15.1 15.5 19.55L17.05 19Q16.9 20.3 18.15 21.6Q14.35 24.35 11 28Q7.8 29.7 7.75 33.95L7.5 33.6L7.3 33.1L7.3 34L6.45 32.25L6.45 32.3L5.05 34.4L4.4 32.2L3.7 32.85Q3.3 33.3 3.4 33.75L3.35 33.75L3.05 33.25L3 32.75Q3 30.9 3.5 30.5L2.7 30.8L1.25 30.8L1.25 30.75L1.95 30L1.65 30.1L0.7 29.8L0 29.35L0.05 29.35L1.1 29.45" />
<path style="fill:#808080;fill-opacity:1" d="M7.85 10.9Q9.65 12.05 11.45 12.05Q13.15 12.05 13.95 10.8Q12.95 10.55 12 9.7Q14.25 9.85 14.3 9.15Q14.35 8.4 17.2 5.15Q20.1 1.85 27.25 3.5L31.75 0Q30.6 2.8 27.75 4.65L30.4 7.4Q31.7 8.9 31.25 11L30.5 13.05Q30.65 14 30.25 16.1L29.05 14.95Q27.75 15.85 25.9 16.6Q27.5 12.35 27.35 9.3Q25.45 12.4 22.9 14.2L23.4 12.3L20.65 16.2L18.7 18L17.05 19L15.5 19.55Q16.3 15.1 19.45 11L13.9 15.35Q7.95 14.15 7.85 10.9M0.05 29.35Q1.35 29.1 2.85 27.8Q4.45 26.35 5.55 26L6.65 26Q4.9 25.85 4.25 25.35Q2.95 24.45 2.85 23.45Q2.75 22.4 3.15 22L3.95 22.7L5 23.1Q6.25 23.1 7.6 22.35Q9.05 21.6 9.45 21.6Q10.2 21.6 11.6 22.3L12.65 22.8Q12.8 24 9.95 24.6L11.45 25.3L10.15 25.9L9.5 26Q9.1 26.1 8.95 26.5L8.1 27.8Q7.3 28.75 6.7 28.75L5.95 28.45Q5.45 28.15 5.15 28.15Q4.5 28.15 3.4 28.8Q2.35 29.45 1.1 29.45L0.05 29.35M30.5 13.05L29.85 14.15L29.05 14.95L29.85 14.15L30.5 13.05M6.65 26L5.55 26M20.45 9.8L19.45 11L20.45 9.8" />
<path style="fill:none;stroke-width:0.7;stroke-linecap:round;stroke-linejoin:round;stroke-miterlimit:3;stroke:#000000;stroke-opacity:0.301961" d="M31.75 0Q32.2 0.75 32.2 1.95L31.9 3.6L31.05 4.85L31.55 4.85L33.05 4.25L33.1 4.65L32.6 5.8L31.85 6.4Q34.85 8.85 34.95 12.55L36.45 13.55L35.45 13.85Q37.7 15.55 38.35 17.05L36.2 17.55L37.35 19.25L36.1 18.95Q35.95 24.15 36.65 28.05L35.75 27L35.9 30.1Q33.55 27.3 33.5 22.2Q36.05 19.05 36.2 17.55L36.1 16.3Q34.65 16 34.15 14.95Q32.8 11.7 31.25 11L30.5 13.05Q30.65 14 30.25 16.1L29.05 14.95Q27.75 15.85 25.9 16.6Q27.5 12.35 27.35 9.3Q25.45 12.4 22.9 14.2L23.4 12.3L20.65 16.2L18.7 18L17.05 19Q16.9 20.3 18.15 21.6Q14.35 24.35 11 28Q7.8 29.7 7.75 33.95L7.5 33.6L7.3 33.1L7.3 34L6.45 32.25L6.45 32.3L5.05 34.4L4.4 32.2L3.7 32.85Q3.3 33.3 3.4 33.75L3.35 33.75L3.05 33.25L3 32.75Q3 30.9 3.5 30.5L2.7 30.8L1.25 30.8L1.25 30.75L1.95 30L1.65 30.1L0.7 29.8L0 29.35" />
<path style="fill:none;stroke-width:0.7;stroke-linecap:round;stroke-linejoin:round;stroke-miterlimit:3;stroke:#000000;stroke-opacity:0.301961" d="M0.05 29.35Q1.35 29.1 2.85 27.8Q4.45 26.35 5.55 26Q4.9 25.85 4.25 25.35Q2.95 24.45 2.85 23.45Q2.75 22.4 3.15 22L3.95 22.7L5 23.1Q6.25 23.1 7.6 22.35Q9.05 21.6 9.45 21.6Q10.2 21.6 11.6 22.3L12.65 22.8L13.8 23L15.45 22.55Q16.25 22 16.25 21.25L16.15 20.25L13.45 20.65L12.3 20.55L11.55 20.35L11.6 20.35L12.3 19.9L13.2 18.95L11.95 19.15Q10 19.15 9.05 18.3L10.8 18.15Q12.3 17.9 12.45 17.3Q9.65 17.1 8.45 15.9Q7.35 14.8 7.35 12.75L7.45 11.55L7.85 10.9Q9.65 12.05 11.45 12.05Q13.15 12.05 13.95 10.8Q12.95 10.55 12 9.7Q14.25 9.85 14.3 9.15Q14.35 8.4 17.2 5.15Q20.1 1.85 27.25 3.5L31.75 0" />
<path style="fill:none;stroke-width:0.7;stroke-linecap:round;stroke-linejoin:round;stroke-miterlimit:3;stroke:#000000;stroke-opacity:0.301961" d="M30.4 7.4Q31.7 8.9 31.25 11" />
<path style="fill:none;stroke-width:0.7;stroke-linecap:round;stroke-linejoin:round;stroke-miterlimit:3;stroke:#000000;stroke-opacity:0.301961" d="M29.05 14.95L29.85 14.15L30.5 13.05" />
<path style="fill:none;stroke-width:0.7;stroke-linecap:round;stroke-linejoin:round;stroke-miterlimit:3;stroke:#000000;stroke-opacity:0.301961" d="M17.05 19L15.5 19.55Q16.3 15.1 19.45 11" />
<path style="fill:none;stroke-width:0.7;stroke-linecap:round;stroke-linejoin:round;stroke-miterlimit:3;stroke:#000000;stroke-opacity:0.301961" d="M5.55 26L6.65 26" />
<path style="fill:none;stroke-width:0.7;stroke-linecap:round;stroke-linejoin:round;stroke-miterlimit:3;stroke:#000000;stroke-opacity:0.301961" d="M19.45 11L20.45 9.8" />
</g>
</svg>
