<?xml version="1.0" encoding="utf-8"?>
<svg version="1.1" id="Layer_1"
xmlns="http://www.w3.org/2000/svg"
xmlns:xlink="http://www.w3.org/1999/xlink"
width="5px" height="6px"
xml:space="preserve">
<g id="PathID_1651" transform="matrix(1, 0, 0, 1, 0.15, 0.15)">
<path style="fill:#646464;fill-opacity:1" d="M1.5 3.5Q1.5 3.95 2.4 4.7L3.75 5.5L3.5 5.6Q2.7 5.85 2.1 4.95Q1.5 4.1 0 3.75L0.55 3.15L1.8 2.1L1.9 2L1.5 3.5" />
<path style="fill:#808080;fill-opacity:1" d="M1.9 2L3.05 0Q5.15 3.85 2.9 4.4L4.45 4.35Q4.35 5.15 3.75 5.5L2.4 4.7Q1.5 3.95 1.5 3.5L1.9 2" />
<path style="fill:none;stroke-width:0.7;stroke-linecap:round;stroke-linejoin:round;stroke-miterlimit:3;stroke:#000000;stroke-opacity:0.298039" d="M3.05 0Q5.15 3.85 2.9 4.4L4.45 4.35Q4.35 5.15 3.75 5.5L3.5 5.6Q2.7 5.85 2.1 4.95Q1.5 4.1 0 3.75" />
</g>
</svg>
