<?xml version="1.0" encoding="utf-8"?>
<svg version="1.1" id="Layer_1"
xmlns="http://www.w3.org/2000/svg"
xmlns:xlink="http://www.w3.org/1999/xlink"
width="11px" height="5px"
xml:space="preserve">
<g id="PathID_3948" transform="matrix(1, 0, 0, 1, 3.85, -12.8)">
<path style="fill:#000000;fill-opacity:0.2" d="M6.35 15.75L6.35 16.25Q5.8 15.5 5.55 14.55L3.85 14.65L2.5 14.2L2.45 14.2L1.15 14.95L-0.35 14.95L-1.15 16L-1.25 16.1Q-1.95 16.65 -2.8 16.95L-3.7 17.15L-3.85 16.45L-3 16.25L-2.05 15.7L-1.5 15.05Q-1.2 14.45 -1.2 13.8L0.4 14L1 13.85L2.25 12.8L3.55 13.5L3.85 13.6L4.85 13.75L6.05 13.65L6.25 14.3L6.35 15.75" />
</g>
</svg>
