<?xml version="1.0" encoding="utf-8"?>
<svg version="1.1" id="Layer_1"
xmlns="http://www.w3.org/2000/svg"
xmlns:xlink="http://www.w3.org/1999/xlink"
width="26px" height="24px"
xml:space="preserve">
<g id="PathID_2854" transform="matrix(1, 0, 0, 1, 0, 0)">
<path style="fill:#645F5B;fill-opacity:1" d="M7.65 15Q7.25 16.65 5.25 17.2Q3.25 17.75 1.9 16.55Q-0.05 14.1 0 9.9Q0.1 6.65 2.8 4.35Q1.75 7 2.25 9.6Q2.7 12 3.75 11.95Q4.8 11.8 5.5 10.25Q5.6 13.1 7.65 15" />
<path style="fill:#808080;fill-opacity:1" d="M4.5 3.15Q8.75 0.9 12.6 0Q5.45 5.9 5.45 9.7L5.5 10.25Q4.8 11.8 3.75 11.95Q2.7 12 2.25 9.6Q1.75 7 2.8 4.35L4.5 3.15" />
<path style="fill:none;stroke-width:0.7;stroke-linecap:round;stroke-linejoin:round;stroke-miterlimit:3;stroke:#000000;stroke-opacity:0.4" d="M5.5 10.25L5.45 9.7Q5.45 5.9 12.6 0Q8.75 0.9 4.5 3.15L2.8 4.35Q0.1 6.65 0 9.9Q-0.05 14.1 1.9 16.55Q3.25 17.75 5.25 17.2Q7.25 16.65 7.65 15Q5.6 13.1 5.5 10.25z" />
</g>
<g id="PathID_2855" transform="matrix(1, 0, 0, 1, 0, 0)">
<path style="fill:#808080;fill-opacity:1" d="M16.25 21.5Q16.05 20.25 16.8 19.45Q21.75 19.2 25.2 15.1Q25.35 20.6 19.95 23.9Q17.15 24.35 16.25 21.5" />
<path style="fill:none;stroke-width:0.7;stroke-linecap:round;stroke-linejoin:round;stroke-miterlimit:3;stroke:#000000;stroke-opacity:0.4" d="M16.25 21.5Q16.05 20.25 16.8 19.45Q21.75 19.2 25.2 15.1Q25.35 20.6 19.95 23.9Q17.15 24.35 16.25 21.5z" />
</g>
</svg>
