<?xml version="1.0" encoding="utf-8"?>
<svg version="1.1" id="Layer_1"
xmlns="http://www.w3.org/2000/svg"
xmlns:xlink="http://www.w3.org/1999/xlink"
width="7px" height="8px"
xml:space="preserve">
<g id="PathID_33" transform="matrix(1, 0, 0, 1, 0.1, 0.1)">
<linearGradient
id="LinearGradID_6" gradientUnits="userSpaceOnUse" gradientTransform="matrix(-0.000518799, -0.00180054, 0.00242615, -0.000686646, 0.15, 5.5)" spreadMethod ="pad" x1="-819.2" y1="0" x2="819.2" y2="0" >
<stop  offset="0" style="stop-color:#808080;stop-opacity:1" />
<stop  offset="0.988235" style="stop-color:#4A4A4A;stop-opacity:1" />
</linearGradient>
<path style="fill:url(#LinearGradID_6) " d="M5.7 5.05L3.5 4.95Q5.2 6.45 3.8 7.8L3.5 5Q3.05 7.35 2.45 6.75L3.5 5Q1.35 5.75 0.75 4.5Q1.35 2.7 2.9 2.7Q0.15 3.3 0 1.8Q0.75 0.45 1.8 0.1L2.95 2.7Q3.1 -0.25 4.95 0.9Q5.9 2.15 5.95 3.45Q4.4 2.35 2.95 2.7L5.7 5.05M3.5 5L3.5 4.95L5.7 5.05M2.95 2.7L3.5 4.95L3.5 5L3.8 7.8M3.5 4.95L2.95 2.7L2.9 2.7Q1.35 2.7 0.75 4.5M2.9 2.7L2.95 2.7L1.8 0.1M2.95 2.7Q4.4 2.35 5.95 3.45M3.5 5L2.45 6.75" />
<path style="fill:none;stroke-width:0.7;stroke-linecap:round;stroke-linejoin:round;stroke-miterlimit:3;stroke:#000000;stroke-opacity:0.4" d="M5.7 5.05Q5.2 6.45 3.8 7.8Q3.05 7.35 2.45 6.75Q1.35 5.75 0.75 4.5Q0.15 3.3 0 1.8Q0.75 0.45 1.8 0.1Q3.1 -0.25 4.95 0.9Q5.9 2.15 5.95 3.45L5.7 5.05L3.5 4.95L3.5 5L3.8 7.8" />
<path style="fill:none;stroke-width:0.7;stroke-linecap:round;stroke-linejoin:round;stroke-miterlimit:3;stroke:#000000;stroke-opacity:0.4" d="M0.75 4.5Q1.35 2.7 2.9 2.7L2.95 2.7L1.8 0.1" />
<path style="fill:none;stroke-width:0.7;stroke-linecap:round;stroke-linejoin:round;stroke-miterlimit:3;stroke:#000000;stroke-opacity:0.4" d="M5.95 3.45Q4.4 2.35 2.95 2.7L3.5 4.95" />
<path style="fill:none;stroke-width:0.7;stroke-linecap:round;stroke-linejoin:round;stroke-miterlimit:3;stroke:#000000;stroke-opacity:0.4" d="M2.45 6.75L3.5 5" />
</g>
</svg>
