<?xml version="1.0" encoding="utf-8"?>
<svg version="1.1" id="Layer_1"
xmlns="http://www.w3.org/2000/svg"
xmlns:xlink="http://www.w3.org/1999/xlink"
width="4px" height="14px"
xml:space="preserve">
<g id="PathID_4057" transform="matrix(1, 0, 0, 1, 0, 0)">
<path style="fill:#54504D;fill-opacity:1" d="M3.35 3.4Q2.55 9.55 1.6 13.85L0.95 13.5L2.55 2.4L3.35 3.4" />
<path style="fill:none;stroke-width:0.7;stroke-linecap:round;stroke-linejoin:round;stroke-miterlimit:3;stroke:#000000;stroke-opacity:0.4" d="M3.35 3.4Q2.55 9.55 1.6 13.85L0.95 13.5L2.55 2.4L3.35 3.4z" />
</g>
<g id="PathID_4058" transform="matrix(1, 0, 0, 1, 0, 0)">
<path style="fill:#898989;fill-opacity:1" d="M0.45 13.6Q-0.6 6.25 0.7 0L2.05 0.9Q0.8 7.1 1.45 13.7L0.45 13.6" />
<path style="fill:none;stroke-width:0.7;stroke-linecap:round;stroke-linejoin:round;stroke-miterlimit:3;stroke:#000000;stroke-opacity:0.4" d="M0.45 13.6Q-0.6 6.25 0.7 0L2.05 0.9Q0.8 7.1 1.45 13.7L0.45 13.6z" />
</g>
</svg>
