<?xml version="1.0" encoding="utf-8"?>
<svg version="1.1" id="Layer_1"
xmlns="http://www.w3.org/2000/svg"
xmlns:xlink="http://www.w3.org/1999/xlink"
width="5px" height="5px"
xml:space="preserve">
<g id="PathID_718" transform="matrix(1, 0, 0, 1, 2.2, 2.3)">
<path style="fill:#D3190C;fill-opacity:1" d="M2.25 -0.05Q2.25 0.8 1.6 1.5Q0.9 2.15 0 2.15Q-0.9 2.15 -1.6 1.5Q-2.2 0.8 -2.2 -0.05Q-2.2 -0.95 -1.6 -1.65Q-0.9 -2.3 0 -2.3Q0.9 -2.3 1.6 -1.65Q2.25 -0.95 2.25 -0.05" />
<path style="fill:none;stroke-width:0.7;stroke-linecap:round;stroke-linejoin:round;stroke-miterlimit:3;stroke:#000000;stroke-opacity:0.301961" d="M2.25 -0.05Q2.25 0.8 1.6 1.5Q0.9 2.15 0 2.15Q-0.9 2.15 -1.6 1.5Q-2.2 0.8 -2.2 -0.05Q-2.2 -0.95 -1.6 -1.65Q-0.9 -2.3 0 -2.3Q0.9 -2.3 1.6 -1.65Q2.25 -0.95 2.25 -0.05z" />
</g>
<g id="PathID_719" transform="matrix(1, 0, 0, 1, 2.2, 2.3)">
<path style="fill:#FFFFFF;fill-opacity:1" d="M1.2 -0.2Q0.85 0.15 0.4 0.15Q-0.05 0.15 -0.4 -0.2L-0.7 -1L-0.4 -1.85L0.4 -2.15L1.2 -1.85Q1.6 -1.5 1.6 -1Q1.6 -0.5 1.2 -0.2" />
</g>
<g id="PathID_720" transform="matrix(1, 0, 0, 1, 2.2, 2.3)">
<path style="fill:#FFFFFF;fill-opacity:1" d="M-0.9 0.25L-0.75 0.65L-0.9 1.05L-1.35 1.2L-1.75 1.05L-1.9 0.65L-1.75 0.25L-1.35 0.1Q-1.05 0.1 -0.9 0.25" />
</g>
</svg>
