<?xml version="1.0" encoding="utf-8"?>
<svg version="1.1" id="Layer_1"
xmlns="http://www.w3.org/2000/svg"
xmlns:xlink="http://www.w3.org/1999/xlink"
width="15px" height="7px"
xml:space="preserve">
<g id="PathID_1329" transform="matrix(1, 0, 0, 1, 0, 0)">
<path style="fill:#808080;fill-opacity:1" d="M13.9 4.85L13.45 5.95L13.05 5.4L13.45 4.3L13.9 4.85M6.1 3.45L10.05 6.15L9.6 6.9Q8.15 5.6 6.35 4.45L6.1 3.45" />
<path style="fill:#4F4943;fill-opacity:1" d="M13.45 4.3L13.7 2.6L13.75 2.05L14.15 1.8L14.1 2.4L13.9 4.85L13.45 4.3M6.35 4.45L3.25 2.65L0 0.6L0.8 0Q1.9 1.3 4.15 2.45L6.1 3.45L6.35 4.45" />
</g>
</svg>
