<?xml version="1.0" encoding="utf-8"?>
<svg version="1.1" id="Layer_1"
xmlns="http://www.w3.org/2000/svg"
xmlns:xlink="http://www.w3.org/1999/xlink"
width="16px" height="16px"
xml:space="preserve">
<g id="PathID_2383" transform="matrix(1, 0, 0, 1, 0.15, 0.15)">
<path style="fill:#808080;fill-opacity:1" d="M6.95 0.6Q7.75 1.6 7.1 2Q8.2 2.2 8.3 3.25Q8.35 4.25 7.45 4.45Q8.2 6.3 7 6.15Q7 7.3 5.95 6.75Q5.05 7.75 4.4 6.75Q1.45 8 2.2 5.85Q0.95 5.95 0.7 5.15L1.15 4.75Q1.65 4.55 1.95 4.75L1.75 4.2Q1.6 3.7 1.9 3.15Q2.25 2.55 3.35 2.95L5 3.4Q4.75 2.45 5.2 1.55Q5.65 0.6 6.45 0.25L6.95 0.6" />
<path style="fill:#4F4943;fill-opacity:1" d="M0.8 4.15Q-0.65 3.25 0.45 2.5Q-0.6 0 2.25 0.7Q3.15 -0.75 4.4 0.85Q5.55 0 6.3 0.25L6.45 0.25Q5.65 0.6 5.2 1.55Q4.75 2.45 5 3.4L3.35 2.95Q2.25 2.55 1.9 3.15Q1.6 3.7 1.75 4.2L1.95 4.75Q1.65 4.55 1.15 4.75L0.7 5.15L0.8 4.15" />
</g>
<g id="PathID_2384" transform="matrix(1, 0, 0, 1, 0.15, 0.15)">
<path style="fill:none;stroke-width:0.7;stroke-linecap:round;stroke-linejoin:round;stroke-miterlimit:3;stroke:#000000;stroke-opacity:0.4" d="M8.3 3.25Q8.35 4.25 7.45 4.45Q8.2 6.3 7 6.15Q7 7.3 5.95 6.75Q5.05 7.75 4.4 6.75Q1.45 8 2.2 5.85Q0.35 6 0.8 4.15Q-0.65 3.25 0.45 2.5Q-0.6 0 2.25 0.7Q3.15 -0.75 4.4 0.85Q6.05 -0.35 6.95 0.6Q7.75 1.6 7.1 2Q8.2 2.2 8.3 3.25z" />
</g>
<g id="PathID_2385" transform="matrix(1, 0, 0, 1, 0.15, 0.15)">
<path style="fill:#4F4943;fill-opacity:1" d="M13 10.1Q11.8 9.85 11.35 10.35Q10.95 10.85 10.9 11.25Q10.85 11.55 10.15 11.25Q9.4 10.85 8.95 11.95L8.9 11.85Q7.7 11.3 9.1 10.45Q9.1 8.45 10.9 9.25Q11.45 8.3 12.6 9.1L13.7 9.15Q14.2 9.25 14.5 9.6Q15.05 10.25 14.35 10.6L14.35 10.65Q14.25 10.35 13 10.1" />
<path style="fill:#808080;fill-opacity:1" d="M14.35 10.65Q15.3 11 15.35 11.9Q15.35 12.8 14.7 13.3Q14.8 14.15 13.85 14.3L13.7 14.5L12.7 14.6Q12 15.35 11.45 14.7Q9.7 14.95 9.85 13.75Q7.95 13.15 8.95 11.95Q9.4 10.85 10.15 11.25Q10.85 11.55 10.9 11.25Q10.95 10.85 11.35 10.35Q11.8 9.85 13 10.1Q14.25 10.35 14.35 10.65" />
</g>
<g id="PathID_2386" transform="matrix(1, 0, 0, 1, 0.15, 0.15)">
<path style="fill:none;stroke-width:0.7;stroke-linecap:round;stroke-linejoin:round;stroke-miterlimit:3;stroke:#000000;stroke-opacity:0.4" d="M14.5 9.6Q15.05 10.25 14.3 10.6Q15.3 11 15.35 11.9Q15.35 12.8 14.7 13.3Q14.8 14.15 13.85 14.3L13.7 14.5L12.7 14.6Q12 15.35 11.45 14.7Q9.7 14.95 9.85 13.75Q7.95 13.15 9 11.9Q7.6 11.35 9.1 10.45Q9.1 8.45 10.9 9.25Q11.45 8.3 12.6 9.1L13.7 9.15Q14.2 9.25 14.5 9.6z" />
</g>
</svg>
