<?xml version="1.0" encoding="utf-8"?>
<svg version="1.1" id="Layer_1"
xmlns="http://www.w3.org/2000/svg"
xmlns:xlink="http://www.w3.org/1999/xlink"
width="10px" height="4px"
xml:space="preserve">
<g id="PathID_2342" transform="matrix(1, 0, 0, 1, 0, 0)">
<path style="fill:#808080;fill-opacity:1" d="M7.9 2.6L7.7 2L7.9 1.35Q8.1 1.1 8.4 1.1Q8.7 1.1 8.9 1.35L9.1 2L8.9 2.6L8.4 2.9Q8.1 2.9 7.9 2.6M5.7 1.1L5.4 1.85Q5.1 2.2 4.7 2.2Q4.3 2.2 4 1.85Q3.7 1.55 3.7 1.1Q3.7 0.65 4 0.3Q4.3 0 4.7 0Q5.1 0 5.4 0.3L5.7 1.1M0.25 2.05Q0.5 1.75 0.85 1.75Q1.2 1.75 1.45 2.05L1.7 2.8L1.45 3.55Q1.2 3.85 0.85 3.85Q0.5 3.85 0.25 3.55L0 2.8Q0 2.35 0.25 2.05" />
</g>
</svg>
