<?xml version="1.0" encoding="utf-8"?>
<svg version="1.1" id="Layer_1"
xmlns="http://www.w3.org/2000/svg"
xmlns:xlink="http://www.w3.org/1999/xlink"
width="7px" height="9px"
xml:space="preserve">
<g id="PathID_2297" transform="matrix(1, 0, 0, 1, 0.15, 0.15)">
<path style="fill:#37332F;fill-opacity:1" d="M4.25 2.3Q4.6 2.65 4.6 3.15Q4.6 3.6 4.25 3.95Q3.85 4.3 3.35 4.3Q2.85 4.3 2.45 3.95L2.25 3.7L2.15 3.45L2.1 3.15Q2.1 2.65 2.45 2.3Q2.85 1.95 3.35 1.95Q3.85 1.95 4.25 2.3" />
<path style="fill:none;stroke-width:0.7;stroke-linecap:round;stroke-linejoin:round;stroke-miterlimit:3;stroke:#000000;stroke-opacity:0.298039" d="M4.25 2.3Q4.6 2.65 4.6 3.15Q4.6 3.6 4.25 3.95Q3.85 4.3 3.35 4.3Q2.85 4.3 2.45 3.95L2.25 3.7L2.15 3.45L2.1 3.15Q2.1 2.65 2.45 2.3Q2.85 1.95 3.35 1.95Q3.85 1.95 4.25 2.3z" />
</g>
<g id="PathID_2298" transform="matrix(1, 0, 0, 1, 0.15, 0.15)">
<path style="fill:#808080;fill-opacity:1" d="M4.8 1.85Q3.75 1.85 3.7 0.9L3.9 0.55Q4.25 0.2 4.8 0.2Q5.3 0.2 5.65 0.55L5.75 0.7Q5.9 1.7 4.8 1.85M4.15 1Q4.15 1.2 4.5 1.2L4.8 1.05L4.9 0.8Q4.75 0.3 4.15 1" />
<path style="fill:#4F4943;fill-opacity:1" d="M5.75 0.7L6 1.4L5.65 2.25L4.8 2.6L3.9 2.25Q3.6 1.9 3.6 1.4L3.7 0.9Q3.75 1.85 4.8 1.85Q5.9 1.7 5.75 0.7" />
<path style="fill:#BFBFBF;fill-opacity:1" d="M4.9 0.8L4.8 1.05L4.5 1.2Q4.15 1.2 4.15 1Q4.75 0.3 4.9 0.8" />
<path style="fill:none;stroke-width:0.7;stroke-linecap:round;stroke-linejoin:round;stroke-miterlimit:3;stroke:#000000;stroke-opacity:0.298039" d="M3.7 0.9L3.9 0.55Q4.25 0.2 4.8 0.2Q5.3 0.2 5.65 0.55L5.75 0.7L6 1.4L5.65 2.25L4.8 2.6L3.9 2.25Q3.6 1.9 3.6 1.4L3.7 0.9z" />
</g>
<g id="PathID_2299" transform="matrix(1, 0, 0, 1, 0.15, 0.15)">
<path style="fill:#808080;fill-opacity:1" d="M2.95 1.65Q1.9 1.65 1.85 0.7L2.05 0.35Q2.4 0 2.95 0Q3.45 0 3.8 0.35L3.9 0.5Q4.05 1.5 2.95 1.65M3.05 0.6Q2.4 0.3 2.3 0.8Q2.25 1 2.65 1L2.95 0.85L3.05 0.6" />
<path style="fill:#4F4943;fill-opacity:1" d="M3.9 0.5L4.15 1.2L3.8 2.05Q3.45 2.4 2.95 2.4Q2.4 2.4 2.05 2.05Q1.75 1.7 1.75 1.2L1.85 0.7Q1.9 1.65 2.95 1.65Q4.05 1.5 3.9 0.5" />
<path style="fill:#BFBFBF;fill-opacity:1" d="M2.95 0.85L2.65 1Q2.25 1 2.3 0.8Q2.4 0.3 3.05 0.6L2.95 0.85" />
<path style="fill:none;stroke-width:0.7;stroke-linecap:round;stroke-linejoin:round;stroke-miterlimit:3;stroke:#000000;stroke-opacity:0.298039" d="M1.85 0.7L2.05 0.35Q2.4 0 2.95 0Q3.45 0 3.8 0.35L3.9 0.5L4.15 1.2L3.8 2.05Q3.45 2.4 2.95 2.4Q2.4 2.4 2.05 2.05Q1.75 1.7 1.75 1.2L1.85 0.7z" />
</g>
<g id="PathID_2300" transform="matrix(1, 0, 0, 1, 0.15, 0.15)">
<path style="fill:#4F4943;fill-opacity:1" d="M3 4.15Q3 5.25 1.75 5.3Q0.6 5.35 0.5 4.15Q0.5 3.8 0.85 3.4Q1.2 2.9 1.75 2.95L2.7 3.45L3 4.15" />
<path style="fill:none;stroke-width:0.7;stroke-linecap:round;stroke-linejoin:round;stroke-miterlimit:3;stroke:#000000;stroke-opacity:0.298039" d="M3 4.15Q3 5.25 1.75 5.3Q0.6 5.35 0.5 4.15Q0.5 3.8 0.85 3.4Q1.2 2.9 1.75 2.95L2.7 3.45L3 4.15z" />
</g>
<g id="PathID_2301" transform="matrix(1, 0, 0, 1, 0.15, 0.15)">
<path style="fill:#808080;fill-opacity:1" d="M0.8 2.5L1 2.2L0.95 1.95L0.65 1.9L0.4 2.2L0.6 2.5L0.8 2.5M0.6 1.45Q1.15 1.1 1.65 1.45Q1.95 2.45 1.4 2.9Q1.05 3.1 0.5 2.9L0 2.6Q-0.05 1.85 0.6 1.45" />
<path style="fill:#BFBFBF;fill-opacity:1" d="M0.6 2.5L0.4 2.2L0.65 1.9L0.95 1.95L1 2.2L0.8 2.5L0.6 2.5" />
<path style="fill:#4F4943;fill-opacity:1" d="M2.3 2.85Q2.2 3.4 1.8 3.55Q0.85 3.95 0.3 3.3L0 2.6L0.5 2.9Q1.05 3.1 1.4 2.9Q1.95 2.45 1.65 1.45Q2.45 1.9 2.3 2.85" />
<path style="fill:none;stroke-width:0.7;stroke-linecap:round;stroke-linejoin:round;stroke-miterlimit:3;stroke:#000000;stroke-opacity:0.298039" d="M0 2.6L0.3 3.3Q0.85 3.95 1.8 3.55Q2.2 3.4 2.3 2.85Q2.45 1.9 1.65 1.45Q1.15 1.1 0.6 1.45Q-0.05 1.85 0 2.6z" />
</g>
<g id="PathID_2302" transform="matrix(1, 0, 0, 1, 0.15, 0.15)">
<path style="fill:#4F4943;fill-opacity:1" d="M5.15 5.4L4.25 5.75Q3.75 5.75 3.35 5.4L3.15 5.15L3.05 4.9L3 4.6Q3 4.1 3.35 3.75Q3.75 3.4 4.25 3.4Q4.75 3.4 5.15 3.75Q5.5 4.1 5.5 4.6Q5.5 5.05 5.15 5.4" />
<path style="fill:none;stroke-width:0.7;stroke-linecap:round;stroke-linejoin:round;stroke-miterlimit:3;stroke:#000000;stroke-opacity:0.298039" d="M5.15 5.4L4.25 5.75Q3.75 5.75 3.35 5.4L3.15 5.15L3.05 4.9L3 4.6Q3 4.1 3.35 3.75Q3.75 3.4 4.25 3.4Q4.75 3.4 5.15 3.75Q5.5 4.1 5.5 4.6Q5.5 5.05 5.15 5.4z" />
</g>
<g id="PathID_2303" transform="matrix(1, 0, 0, 1, 0.15, 0.15)">
<path style="fill:#808080;fill-opacity:1" d="M4.2 2.55Q4.55 2.2 5.1 2.2Q5.6 2.2 5.95 2.55L6.05 2.7Q6.2 3.7 5.1 3.85Q4.05 3.85 4 2.9L4.2 2.55M5.2 2.8Q5.05 2.35 4.45 3L4.8 3.2L5.1 3.05L5.2 2.8" />
<path style="fill:#4F4943;fill-opacity:1" d="M6.3 3.4L5.95 4.25L5.1 4.6Q4.55 4.6 4.2 4.25Q3.9 3.9 3.9 3.4L4 2.9Q4.05 3.85 5.1 3.85Q6.2 3.7 6.05 2.7L6.3 3.4" />
<path style="fill:#BFBFBF;fill-opacity:1" d="M5.1 3.05L4.8 3.2L4.45 3Q5.05 2.35 5.2 2.8L5.1 3.05" />
<path style="fill:none;stroke-width:0.7;stroke-linecap:round;stroke-linejoin:round;stroke-miterlimit:3;stroke:#000000;stroke-opacity:0.298039" d="M6.05 2.7L5.95 2.55Q5.6 2.2 5.1 2.2Q4.55 2.2 4.2 2.55L4 2.9L3.9 3.4Q3.9 3.9 4.2 4.25Q4.55 4.6 5.1 4.6L5.95 4.25L6.3 3.4L6.05 2.7z" />
</g>
<g id="PathID_2304" transform="matrix(1, 0, 0, 1, 0.15, 0.15)">
<path style="fill:#808080;fill-opacity:1" d="M2.95 4.25Q1.9 4.25 1.85 3.3L2.05 2.95Q2.4 2.6 2.95 2.6Q3.45 2.6 3.8 2.95L3.9 3.1Q4.05 4.1 2.95 4.25M3.05 3.2Q2.7 2.85 2.3 3.4Q2.3 3.6 2.65 3.6L2.95 3.45L3.05 3.2" />
<path style="fill:#4F4943;fill-opacity:1" d="M3.9 3.1L4.15 3.8L3.8 4.65Q3.45 5 2.95 5Q2.4 5 2.05 4.65Q1.75 4.3 1.75 3.8L1.85 3.3Q1.9 4.25 2.95 4.25Q4.05 4.1 3.9 3.1" />
<path style="fill:#BFBFBF;fill-opacity:1" d="M2.95 3.45L2.65 3.6Q2.3 3.6 2.3 3.4Q2.7 2.85 3.05 3.2L2.95 3.45" />
<path style="fill:none;stroke-width:0.7;stroke-linecap:round;stroke-linejoin:round;stroke-miterlimit:3;stroke:#000000;stroke-opacity:0.298039" d="M1.85 3.3L2.05 2.95Q2.4 2.6 2.95 2.6Q3.45 2.6 3.8 2.95L3.9 3.1L4.15 3.8L3.8 4.65Q3.45 5 2.95 5Q2.4 5 2.05 4.65Q1.75 4.3 1.75 3.8L1.85 3.3z" />
</g>
<g id="PathID_2305" transform="matrix(1, 0, 0, 1, 0.15, 0.15)">
<path style="fill:#BFBFBF;fill-opacity:1" d="M2.1 5.55Q1.75 5.55 1.75 5.35Q2.25 4.8 2.5 5.15L2.4 5.4L2.1 5.55" />
<path style="fill:#808080;fill-opacity:1" d="M2.4 5.4L2.5 5.15Q2.25 4.8 1.75 5.35Q1.75 5.55 2.1 5.55L2.4 5.4M1.3 5.25L1.5 4.9Q1.85 4.55 2.4 4.55Q2.9 4.55 3.25 4.9L3.35 5.05Q3.5 6.05 2.4 6.2Q1.35 6.2 1.3 5.25" />
<path style="fill:#4F4943;fill-opacity:1" d="M2.4 6.2Q3.5 6.05 3.35 5.05L3.6 5.75L3.25 6.6Q2.9 6.95 2.4 6.95Q1.85 6.95 1.5 6.6Q1.2 6.25 1.2 5.75L1.3 5.25Q1.35 6.2 2.4 6.2" />
<path style="fill:none;stroke-width:0.7;stroke-linecap:round;stroke-linejoin:round;stroke-miterlimit:3;stroke:#000000;stroke-opacity:0.298039" d="M3.35 5.05L3.6 5.75L3.25 6.6Q2.9 6.95 2.4 6.95Q1.85 6.95 1.5 6.6Q1.2 6.25 1.2 5.75L1.3 5.25L1.5 4.9Q1.85 4.55 2.4 4.55Q2.9 4.55 3.25 4.9L3.35 5.05z" />
</g>
<g id="PathID_2306" transform="matrix(1, 0, 0, 1, 0.15, 0.15)">
<path style="fill:#808080;fill-opacity:1" d="M4.55 6.4Q3.5 6.4 3.45 5.45L3.65 5.1Q4 4.75 4.55 4.75Q5.05 4.75 5.4 5.1L5.5 5.25Q5.65 6.25 4.55 6.4M3.9 5.55Q3.9 5.75 4.25 5.75L4.5 5.6L4.5 5.35Q4.3 5.1 3.9 5.55" />
<path style="fill:#4F4943;fill-opacity:1" d="M5.5 5.25L5.75 5.95L5.4 6.8Q5.05 7.15 4.55 7.15L3.65 6.8Q3.35 6.45 3.35 5.95L3.45 5.45Q3.5 6.4 4.55 6.4Q5.65 6.25 5.5 5.25" />
<path style="fill:#BFBFBF;fill-opacity:1" d="M4.5 5.35L4.5 5.6L4.25 5.75Q3.9 5.75 3.9 5.55Q4.3 5.1 4.5 5.35" />
<path style="fill:none;stroke-width:0.7;stroke-linecap:round;stroke-linejoin:round;stroke-miterlimit:3;stroke:#000000;stroke-opacity:0.298039" d="M3.45 5.45L3.65 5.1Q4 4.75 4.55 4.75Q5.05 4.75 5.4 5.1L5.5 5.25L5.75 5.95L5.4 6.8Q5.05 7.15 4.55 7.15L3.65 6.8Q3.35 6.45 3.35 5.95L3.45 5.45z" />
</g>
<g id="PathID_2307" transform="matrix(1, 0, 0, 1, 0.15, 0.15)">
<path style="fill:#808080;fill-opacity:1" d="M2.95 7.95Q1.9 7.95 1.85 7L2.05 6.65Q2.4 6.3 2.95 6.3Q3.45 6.3 3.8 6.65L3.9 6.8Q4.05 7.8 2.95 7.95M2.95 7.15L3.05 6.9Q2.7 6.45 2.3 7.1Q2.3 7.3 2.65 7.3L2.95 7.15" />
<path style="fill:#4F4943;fill-opacity:1" d="M3.9 6.8L4.15 7.5L3.8 8.35Q3.45 8.7 2.95 8.7Q2.4 8.7 2.05 8.35Q1.75 8 1.75 7.5L1.85 7Q1.9 7.95 2.95 7.95Q4.05 7.8 3.9 6.8" />
<path style="fill:#BFBFBF;fill-opacity:1" d="M2.65 7.3Q2.3 7.3 2.3 7.1Q2.7 6.45 3.05 6.9L2.95 7.15L2.65 7.3" />
<path style="fill:none;stroke-width:0.7;stroke-linecap:round;stroke-linejoin:round;stroke-miterlimit:3;stroke:#000000;stroke-opacity:0.298039" d="M1.85 7L2.05 6.65Q2.4 6.3 2.95 6.3Q3.45 6.3 3.8 6.65L3.9 6.8L4.15 7.5L3.8 8.35Q3.45 8.7 2.95 8.7Q2.4 8.7 2.05 8.35Q1.75 8 1.75 7.5L1.85 7z" />
</g>
</svg>
