<?xml version="1.0" encoding="utf-8"?>
<svg version="1.1" id="Layer_1"
xmlns="http://www.w3.org/2000/svg"
xmlns:xlink="http://www.w3.org/1999/xlink"
width="18px" height="20px"
xml:space="preserve">
<g id="PathID_3919" transform="matrix(1, 0, 0, 1, 0, 0)">
<path style="fill:#808080;fill-opacity:1" d="M4.05 8.1Q5 6.05 6.55 4.3Q9.5 0.8 12.9 1.3Q13.95 2 13.2 3.15Q13.85 3.65 12.95 4.6Q13.45 5.3 12.2 6.75Q13.15 7.1 11.7 8.45Q12.75 10.1 10.95 11.45Q6.9 12.7 2.9 15.3L13.3 11.05Q12.85 13.2 13.85 14.4Q13.1 15.2 13.35 15.85L15.2 15.75Q16.4 15.05 17.2 15.4Q17.7 16.1 17.2 16.75Q15.8 17.55 14.95 16.55Q13.4 16.3 12.65 16.55Q12.45 17.1 12.6 17.55Q11.3 17.65 11.75 18.85Q11 18.5 10.75 19.25L9.2 18.1Q9.35 18.6 8.9 19Q7.85 18.75 6.2 17.3Q4.5 15.8 3.4 15.75L2.9 15.3Q6.9 12.7 10.95 11.45L2.1 14.7Q2.5 11.15 4.05 8.1" />
<path style="fill:#4F4943;fill-opacity:1" d="M2.1 14.7L2.05 14.3L2 14.1L2.1 13.85L1.7 14.25L1.35 13.55L1.25 14.25L1.15 14L0.9 13.75L0.8 13.95Q-0.35 9.6 0.15 4.9Q0.3 0.8 1.25 0.1Q2.05 -0.4 1.95 1.3Q2.1 3.15 2.6 4.7L4.05 8.1Q2.5 11.15 2.1 14.7" />
<path style="fill:none;stroke-width:0.7;stroke-linecap:round;stroke-linejoin:round;stroke-miterlimit:3;stroke:#000000;stroke-opacity:0.4" d="M4.05 8.1Q5 6.05 6.55 4.3Q9.5 0.8 12.9 1.3Q13.95 2 13.2 3.15Q13.85 3.65 12.95 4.6Q13.45 5.3 12.2 6.75Q13.15 7.1 11.7 8.45Q12.75 10.1 10.95 11.45L13.3 11.05Q12.85 13.2 13.85 14.4Q13.1 15.2 13.35 15.85L15.2 15.75Q16.4 15.05 17.2 15.4Q17.7 16.1 17.2 16.75Q15.8 17.55 14.95 16.55Q13.4 16.3 12.65 16.55Q12.45 17.1 12.6 17.55Q11.3 17.65 11.75 18.85Q11 18.5 10.75 19.25L9.2 18.1Q9.35 18.6 8.9 19Q7.85 18.75 6.2 17.3Q4.5 15.8 3.4 15.75" />
<path style="fill:none;stroke-width:0.7;stroke-linecap:round;stroke-linejoin:round;stroke-miterlimit:3;stroke:#000000;stroke-opacity:0.501961" d="M3.4 15.75L2.9 15.3L2.1 14.7L2.05 14.3L2 14.1L2.1 13.85L1.7 14.25L1.35 13.55L1.25 14.25L1.15 14L0.9 13.75L0.8 13.95" />
<path style="fill:none;stroke-width:0.7;stroke-linecap:round;stroke-linejoin:round;stroke-miterlimit:3;stroke:#000000;stroke-opacity:0.4" d="M0.8 13.95Q-0.35 9.6 0.15 4.9Q0.3 0.8 1.25 0.1Q2.05 -0.4 1.95 1.3Q2.1 3.15 2.6 4.7L4.05 8.1Q2.5 11.15 2.1 14.7" />
<path style="fill:none;stroke-width:0.7;stroke-linecap:round;stroke-linejoin:round;stroke-miterlimit:3;stroke:#000000;stroke-opacity:0.4" d="M2.9 15.3Q6.9 12.7 10.95 11.45" />
</g>
</svg>
