<?xml version="1.0" encoding="utf-8"?>
<svg version="1.1" id="Layer_1"
xmlns="http://www.w3.org/2000/svg"
xmlns:xlink="http://www.w3.org/1999/xlink"
width="24px" height="18px"
xml:space="preserve">
<g id="PathID_2956" transform="matrix(1, 0, 0, 1, 0, 0)">
<path style="fill:#433E39;fill-opacity:1" d="M22.1 1.2Q22.95 0.4 23.55 1.3L23.55 3.6Q23.05 3.6 22.65 2.85Q22.25 2.15 22.1 1.2M23.15 9.4L23.35 10.8L23.2 11.9L23 13Q22.85 13.7 22.95 14.75Q22.85 15.95 21.85 16Q20.8 16.05 20.6 15.65L20.45 14.75L20.65 13.75L20.6 13.1Q20.6 12.25 21.1 11.15L21.1 10.7L23.15 9.4M18 15.55Q17.3 15.5 17.2 15.3L17.1 14.75L17.3 13L19.55 11.95Q20.1 12.45 19.3 14.35Q19.45 14.5 19.2 14.95L18.75 15.5L18 15.55" />
<path style="fill:#4F4943;fill-opacity:1" d="M4.3 9Q4.7 8.55 5.1 8.75Q5.4 7.7 5.9 7.8Q6.35 7.85 6.35 8.6L5.9 10.4L5.4 11.75Q4.6 15.2 3.2 15.2Q2.3 15.2 2.5 13.9Q2.5 13.15 3 11.95L3.7 10L4.3 9M4.4 11.85Q4 12.1 3.85 12.55L3.5 13.85Q3.5 14.4 3.9 14.4Q4.2 14.4 4.55 13.35L4.85 12.2Q4.85 11.6 4.4 11.85" />
<path style="fill:#808080;fill-opacity:1" d="M4.85 12.2L4.55 13.35Q4.2 14.4 3.9 14.4Q3.5 14.4 3.5 13.85L3.85 12.55Q4 12.1 4.4 11.85Q4.85 11.6 4.85 12.2" />
<path style="fill:none;stroke-width:0.7;stroke-linecap:round;stroke-linejoin:round;stroke-miterlimit:3;stroke:#000000;stroke-opacity:0.4" d="M22.1 1.2Q22.95 0.4 23.55 1.3L23.55 3.6Q23.05 3.6 22.65 2.85Q22.25 2.15 22.1 1.2z" />
<path style="fill:none;stroke-width:0.7;stroke-linecap:round;stroke-linejoin:round;stroke-miterlimit:3;stroke:#000000;stroke-opacity:0.4" d="M23.15 9.4L23.35 10.8L23.2 11.9L23 13Q22.85 13.7 22.95 14.75Q22.85 15.95 21.85 16Q20.8 16.05 20.6 15.65L20.45 14.75L20.65 13.75L20.6 13.1Q20.6 12.25 21.1 11.15L21.1 10.7L23.15 9.4z" />
<path style="fill:none;stroke-width:0.7;stroke-linecap:round;stroke-linejoin:round;stroke-miterlimit:3;stroke:#000000;stroke-opacity:0.4" d="M4.3 9Q4.7 8.55 5.1 8.75Q5.4 7.7 5.9 7.8Q6.35 7.85 6.35 8.6L5.9 10.4L5.4 11.75Q4.6 15.2 3.2 15.2Q2.3 15.2 2.5 13.9Q2.5 13.15 3 11.95L3.7 10L4.3 9z" />
<path style="fill:none;stroke-width:0.7;stroke-linecap:round;stroke-linejoin:round;stroke-miterlimit:3;stroke:#000000;stroke-opacity:0.4" d="M18.75 15.5L19.2 14.95Q19.45 14.5 19.3 14.35Q20.1 12.45 19.55 11.95L17.3 13L17.1 14.75L17.2 15.3Q17.3 15.5 18 15.55L18.75 15.5z" />
</g>
<g id="PathID_2957" transform="matrix(1, 0, 0, 1, 0, 0)">
<linearGradient
id="LinearGradID_923" gradientUnits="userSpaceOnUse" gradientTransform="matrix(-0.00326538, -0.00566101, 0.0085144, -0.00491333, 6.85, 5.9)" spreadMethod ="pad" x1="-819.2" y1="0" x2="819.2" y2="0" >
<stop  offset="0" style="stop-color:#808080;stop-opacity:1" />
<stop  offset="1" style="stop-color:#4A4A4A;stop-opacity:1" />
</linearGradient>
<path style="fill:url(#LinearGradID_923) " d="M6.35 3.1Q6.35 1 7.4 1.15Q8.45 1.3 8.25 2.35L8.25 9Q8.25 11.45 7.75 12.75Q7.25 14.15 7.25 15.15L7.45 15.65L7.6 16.3Q7.6 17.25 6.45 17.25Q4.85 17.25 4.95 14.5L5.35 11.85L5.7 9.75L6.65 5L6.5 4.15L6.35 3.1" />
<path style="fill:none;stroke-width:0.7;stroke-linecap:round;stroke-linejoin:round;stroke-miterlimit:3;stroke:#000000;stroke-opacity:0.4" d="M6.35 3.1Q6.35 1 7.4 1.15Q8.45 1.3 8.25 2.35L8.25 9Q8.25 11.45 7.75 12.75Q7.25 14.15 7.25 15.15L7.45 15.65L7.6 16.3Q7.6 17.25 6.45 17.25Q4.85 17.25 4.95 14.5L5.35 11.85L5.7 9.75L6.65 5L6.5 4.15L6.35 3.1z" />
</g>
<g id="PathID_2958" transform="matrix(1, 0, 0, 1, 0, 0)">
<linearGradient
id="LinearGradID_924" gradientUnits="userSpaceOnUse" gradientTransform="matrix(0.00215149, -0.00799561, 0.00869751, 0.00233459, 10.6, 5.5)" spreadMethod ="pad" x1="-819.2" y1="0" x2="819.2" y2="0" >
<stop  offset="0" style="stop-color:#808080;stop-opacity:1" />
<stop  offset="1" style="stop-color:#4A4A4A;stop-opacity:1" />
</linearGradient>
<path style="fill:url(#LinearGradID_924) " d="M10.85 5.6Q10.7 6.7 10.7 7.8Q10.7 8.7 11.25 10.2L11.75 12.4Q11.75 14.75 10.55 14.75Q9.15 14.75 8.7 11.55Q8.45 9.9 8.5 8.2L8.8 2.7L9.35 1.3L10.25 0.1Q11.3 -0.6 11 2.75L10.85 5.6" />
<path style="fill:none;stroke-width:0.7;stroke-linecap:round;stroke-linejoin:round;stroke-miterlimit:3;stroke:#000000;stroke-opacity:0.4" d="M10.85 5.6Q10.7 6.7 10.7 7.8Q10.7 8.7 11.25 10.2L11.75 12.4Q11.75 14.75 10.55 14.75Q9.15 14.75 8.7 11.55Q8.45 9.9 8.5 8.2L8.8 2.7L9.35 1.3L10.25 0.1Q11.3 -0.6 11 2.75L10.85 5.6z" />
</g>
<g id="PathID_2959" transform="matrix(1, 0, 0, 1, 0, 0)">
<path style="fill:#4F4943;fill-opacity:1" d="M2.85 10.05Q3.3 9.5 3.5 10.15L3.65 11.05Q3.65 11.7 2.75 13.25Q1.7 15.1 0.65 15.1Q-0.15 15.1 0.05 14.4Q0.05 13.8 0.85 12.85L1.95 11.45L2.6 10.8L2.85 10.05" />
<path style="fill:none;stroke-width:0.7;stroke-linecap:round;stroke-linejoin:round;stroke-miterlimit:3;stroke:#000000;stroke-opacity:0.4" d="M2.85 10.05Q3.3 9.5 3.5 10.15L3.65 11.05Q3.65 11.7 2.75 13.25Q1.7 15.1 0.65 15.1Q-0.15 15.1 0.05 14.4Q0.05 13.8 0.85 12.85L1.95 11.45L2.6 10.8L2.85 10.05z" />
</g>
</svg>
