<?xml version="1.0" encoding="utf-8"?>
<svg version="1.1" id="Layer_1"
xmlns="http://www.w3.org/2000/svg"
xmlns:xlink="http://www.w3.org/1999/xlink"
width="22px" height="17px"
xml:space="preserve">
<g id="PathID_660" transform="matrix(1, 0, 0, 1, 0, 0)">
<path style="fill:#808080;fill-opacity:1" d="M19.65 4.65Q19.35 5.6 19.45 6.5L17.6 6.3Q19.8 8.65 21.15 11.15L21.7 12.9Q20.75 13.25 19.2 11.7Q17.1 8.35 15.25 7.4Q13.7 6.2 11.9 6.15Q10.75 6.1 8.75 7.25L6.5 8.1L4.85 8.05Q4.1 8.65 3.5 10.3Q2.9 12 4.25 13.9Q5.65 15.8 11 15.6Q4.7 16.4 2.15 12.75Q-1.05 9.65 0.55 3.9Q3.2 6.65 5.35 5.55L5.5 5.4L5.85 5.25Q7.4 4.1 9.05 3.8L12.35 3.55L8.3 3.35L10.3 3Q13.25 2.9 15.5 4.2Q16.1 3.65 16.85 3.5L17.8 3.55Q19.3 3.55 19.55 0.85Q20.65 2.3 21.2 3.8Q21.05 5.25 20.4 6Q20.25 5.25 19.65 4.65" />
<linearGradient
id="LinearGradID_220" gradientUnits="userSpaceOnUse" gradientTransform="matrix(0.0113525, 0, 0, 0.00622559, 12.6, 11.25)" spreadMethod ="pad" x1="-819.2" y1="0" x2="819.2" y2="0" >
<stop  offset="0" style="stop-color:#808080;stop-opacity:1" />
<stop  offset="1" style="stop-color:#564F4F;stop-opacity:1" />
</linearGradient>
<path style="fill:url(#LinearGradID_220) " d="M4.25 13.9Q2.9 12 3.5 10.3Q4.1 8.65 4.85 8.05L6.5 8.1L8.75 7.25Q10.75 6.1 11.9 6.15Q13.7 6.2 15.25 7.4Q16.45 8.4 17.4 10Q19.75 13.8 21.75 13.85L21.85 13.85L21.9 14.7L20.35 16.35Q19.95 15.9 18.9 15.55Q16.25 14.65 13.25 15.2L11.85 15.5L11 15.6Q5.65 15.8 4.25 13.9M11.85 8.05L11.8 8L6.65 8.15Q6.15 10.35 8.4 11.7Q10.8 13.1 14.15 12.1Q13.6 9.05 11.95 8.1L11.9 8.05L11.85 8.05" />
<path style="fill:#B6B6B6;fill-opacity:1" d="M5.85 5.25L6.15 4.9Q6.95 3.8 8.3 3.35L12.35 3.55L9.05 3.8Q7.4 4.1 5.85 5.25M15.5 4.2Q16.45 2.25 17.8 2.7Q19.65 1.1 18.8 0L19.55 0.85Q19.3 3.55 17.8 3.55L16.85 3.5Q16.1 3.65 15.5 4.2M21.7 12.9L21.85 13.85L21.75 13.85Q19.75 13.8 17.4 10Q16.45 8.4 15.25 7.4Q17.1 8.35 19.2 11.7Q20.75 13.25 21.7 12.9" />
<linearGradient
id="LinearGradID_221" gradientUnits="userSpaceOnUse" gradientTransform="matrix(0, 0.00265503, -0.00448608, 0, 19.75, 7.45)" spreadMethod ="pad" x1="-819.2" y1="0" x2="819.2" y2="0" >
<stop  offset="0" style="stop-color:#808080;stop-opacity:1" />
<stop  offset="0.972549" style="stop-color:#564F4F;stop-opacity:1" />
</linearGradient>
<path style="fill:url(#LinearGradID_221) " d="M17.6 6.3L19.45 6.5Q19.5 7.4 20.15 8.15Q20.65 7 20.4 6Q21.05 5.25 21.2 3.8Q22.7 7.4 21.15 11.15Q19.8 8.65 17.6 6.3" />
<path style="fill:none;stroke-width:0.7;stroke-linecap:round;stroke-linejoin:round;stroke-miterlimit:3;stroke:#772600;stroke-opacity:0.768627" d="M11.85 8.05L11.8 8" />
<path style="fill:none;stroke-width:0.7;stroke-linecap:round;stroke-linejoin:round;stroke-miterlimit:3;stroke:#000000;stroke-opacity:0.301961" d="M21.15 11.15Q19.8 8.65 17.6 6.3" />
</g>
</svg>
