<?xml version="1.0" encoding="utf-8"?>
<svg version="1.1" id="Layer_1"
xmlns="http://www.w3.org/2000/svg"
xmlns:xlink="http://www.w3.org/1999/xlink"
width="3px" height="4px"
xml:space="preserve">
<g id="PathID_3455" transform="matrix(1, 0, 0, 1, 0, 0.1)">
<path style="fill:#808080;fill-opacity:1" d="M0.8 2.45L0.65 2.05Q1.55 1.7 1.55 1.1Q1.55 0.7 1.2 0.7L1.6 0.1Q2.3 -0.25 2.8 0.65L2.65 1.05L2.3 0.75Q2 0.75 2 1.15L2.4 1.65Q2.15 2.35 2.05 3.15L1.65 2.75Q1.4 2.75 1.3 2.95L0.8 2.45" />
<path style="fill:#585551;fill-opacity:1" d="M1.6 0.1L1.2 0.7Q1.55 0.7 1.55 1.1Q1.55 1.7 0.65 2.05L0.8 2.45L1.3 2.95L1.1 3.6L0 3Q-0.05 2.65 0.25 1.65Q0.4 1.15 0.95 0.6L1.6 0.1" />
<path style="fill:none;stroke-width:0.7;stroke-linecap:round;stroke-linejoin:round;stroke-miterlimit:3;stroke:#000000;stroke-opacity:0.498039" d="M2.8 0.65Q2.3 -0.25 1.6 0.1" />
<path style="fill:none;stroke-width:0.7;stroke-linecap:round;stroke-linejoin:round;stroke-miterlimit:3;stroke:#000000;stroke-opacity:0.498039" d="M0.25 1.65Q0.4 1.15 0.95 0.6L1.6 0.1" />
</g>
</svg>
