<?xml version="1.0" encoding="utf-8"?>
<svg version="1.1" id="Layer_1"
xmlns="http://www.w3.org/2000/svg"
xmlns:xlink="http://www.w3.org/1999/xlink"
width="19px" height="6px"
xml:space="preserve">
<g id="PathID_2777" transform="matrix(1, 0, 0, 1, 9.1, 2.5)">
<path style="fill:#808080;fill-opacity:1" d="M7.55 -1.2Q7.6 0.75 7 2.45L5.9 2.5L6.85 -1.1L7.55 -1.2M-0.8 0.5Q-0.6 -0.8 0.35 -2.2L2.25 -2.3Q0.2 -0.65 -0.3 1.4L-0.8 0.5M6.2 -2.5Q5.7 0.4 4.8 2.55L4.1 2.5Q5.6 -1.8 5 -1.55Q3.3 -0.7 2.5 0.5L1.8 0.35Q2.75 -1.3 4.55 -2.45L6.2 -2.5M8.15 0.3L8.35 -1.7L9.1 0.05L8.15 0.3M-1.8 -1.3L-1.15 -1L-1.35 -0.4L-1.85 -1.2L-1.8 -1.3" />
<path style="fill:#595959;fill-opacity:1" d="M-0.3 1.4L-0.4 1.85L-0.95 1.85L-0.8 0.5L-0.3 1.4M-7.95 -0.45L-5.95 1.75L-6.85 1.8L-8.8 0.05L-9.1 -1.75L-8.2 -1.8L-7.95 -0.45M-1.65 0.25L-1.45 1.85L-2.3 1.85L-2.45 -0.25L-1.85 -1.2L-1.35 -0.4L-1.65 0.25M-3.85 -1.3Q-4.9 -1.15 -5.55 0.15L-6.25 -0.35L-4.75 -1.9L-3.2 -2L-2.9 -0.7L-4.15 1.8L-4.7 1.8L-3.7 -0.4Q-3.45 -1.05 -3.85 -1.3" />
</g>
</svg>
