<?xml version="1.0" encoding="utf-8"?>
<svg version="1.1" id="Layer_1"
xmlns="http://www.w3.org/2000/svg"
xmlns:xlink="http://www.w3.org/1999/xlink"
width="7px" height="8px"
xml:space="preserve">
<g id="PathID_412" transform="matrix(1, 0, 0, 1, 0.1, 0.1)">
<linearGradient
id="LinearGradID_120" gradientUnits="userSpaceOnUse" gradientTransform="matrix(0.0014801, 0.000396729, -0.00106812, 0.00398254, 4.7, 3.65)" spreadMethod ="pad" x1="-819.2" y1="0" x2="819.2" y2="0" >
<stop  offset="0" style="stop-color:#232323;stop-opacity:1" />
<stop  offset="1" style="stop-color:#828282;stop-opacity:1" />
</linearGradient>
<path style="fill:url(#LinearGradID_120) " d="M3.9 5.55Q4.05 5.1 3.75 4.75Q3.7 4.25 3.8 4.2L5 3.55Q6.1 2.9 6 2.3L5.25 0.7L3.95 0.05L4.25 0.1L4.85 0.2Q5.8 0.4 5.85 0.8L6.15 1.65L6.4 2.1L6.4 2.9Q6.1 3.45 6.2 4.1L6.4 4.95Q6.65 5.65 5.95 5.85L5.4 5.95L5 6L5.15 6.7Q5 7 4.7 6.85L4.1 6.3L3.9 5.55M5.85 5.2L5.6 4.95L4.95 4.85Q4.55 4.85 4.5 5Q4.4 5.2 4.65 5.35L5.2 5.35L5.85 5.2" />
<linearGradient
id="LinearGradID_121" gradientUnits="userSpaceOnUse" gradientTransform="matrix(0, -0.00778198, 0.00424194, 0, 3, 1.85)" spreadMethod ="pad" x1="-819.2" y1="0" x2="819.2" y2="0" >
<stop  offset="0" style="stop-color:#000000;stop-opacity:1" />
<stop  offset="1" style="stop-color:#FFFFFF;stop-opacity:1" />
</linearGradient>
<path style="fill:url(#LinearGradID_121) " d="M3.6 3.95L3.45 3.4L3.1 3.4L2.8 4.1L2.55 4.1L1.95 4.7L0.6 4.75Q0.4 5.2 0.55 5.35L0.9 5.4L1.35 5.35Q1.6 5.35 1.7 5.55Q1.85 5.15 2.55 4.95L2.65 4.7L3.35 4.8L3.75 4.75Q4.05 5.1 3.9 5.55Q3.6 5.35 3.5 4.85L3.05 4.85L2.65 5.45L2.4 6.3L1.8 6.85Q1.5 7 1.35 6.65Q1.2 6.4 1.45 6L1.45 5.75L1.4 5.5Q0 5.8 0.6 4.7L0.05 4.95L0.3 4.1Q0.4 3.45 0.05 2.9L0.05 2.1L0.35 1.65L0.65 0.8Q0.8 0.2 2.35 0.05L3.95 0.05L5.25 0.7L6 2.3Q6.1 2.9 5 3.55L3.8 4.2L3.6 3.95M5.2 5.35L4.65 5.35Q4.4 5.2 4.5 5Q4.55 4.85 4.95 4.85L5.6 4.95L5.85 5.2L5.2 5.35M3.55 1.35Q3.6 0.85 3.3 0.55Q2.85 0.2 2.15 0.25Q1.4 0.4 1 0.75Q0.6 1.15 0.6 1.6L0.75 2.1L0.6 2.25Q0.5 2.4 0.7 2.55L1.5 3.15L2.45 3.8L2.7 3.7L2.7 3.5L1.5 2.55Q2.4 2.55 2.9 2.2L3.55 1.35M1.6 6.2L1.7 5.8L1.45 6.2Q1.3 6.55 1.45 6.5L1.6 6.2" />
<path style="fill:#D9D9D9;fill-opacity:1" d="M2.9 2.2Q2.4 2.55 1.5 2.55L2.7 3.5L2.7 3.7L2.45 3.8L1.5 3.15L0.7 2.55Q0.5 2.4 0.6 2.25L0.75 2.1L0.6 1.6Q0.6 1.15 1 0.75Q1.4 0.4 2.15 0.25Q2.85 0.2 3.3 0.55Q3.6 0.85 3.55 1.35L2.9 2.2M2.65 4.7L2.55 4.95Q1.85 5.15 1.7 5.55Q1.6 5.35 1.35 5.35L0.9 5.4L0.55 5.35Q0.4 5.2 0.6 4.75L1.95 4.7L2.55 4.1L2.8 4.1L2.65 4.7" />
<linearGradient
id="LinearGradID_122" gradientUnits="userSpaceOnUse" gradientTransform="matrix(0.00106812, 0, 0, 0.000778198, 0.5, 5.35)" spreadMethod ="pad" x1="-819.2" y1="0" x2="819.2" y2="0" >
<stop  offset="0" style="stop-color:#232323;stop-opacity:1" />
<stop  offset="1" style="stop-color:#828282;stop-opacity:1" />
</linearGradient>
<path style="fill:url(#LinearGradID_122) " d="M1.45 6L1.1 5.9L0.55 5.8L0.05 5.35L0.05 4.95L0.6 4.7Q0 5.8 1.4 5.5L1.45 5.75L1.45 6" />
<linearGradient
id="LinearGradID_123" gradientUnits="userSpaceOnUse" gradientTransform="matrix(0, 0.000717163, -0.000961304, 0, 3.25, 3.95)" spreadMethod ="pad" x1="-819.2" y1="0" x2="819.2" y2="0" >
<stop  offset="0" style="stop-color:#626262;stop-opacity:1" />
<stop  offset="1" style="stop-color:#A3A3A3;stop-opacity:1" />
</linearGradient>
<path style="fill:url(#LinearGradID_123) " d="M2.8 4.1L3.1 3.4L3.45 3.4L3.6 3.95L3.8 4.2Q3.7 4.25 3.75 4.75L3.35 4.8L2.65 4.7L2.8 4.1" />
<linearGradient
id="LinearGradID_124" gradientUnits="userSpaceOnUse" gradientTransform="matrix(0, 0.00123596, -0.000869751, 0, 3.15, 5.6)" spreadMethod ="pad" x1="-819.2" y1="0" x2="819.2" y2="0" >
<stop  offset="0" style="stop-color:#232323;stop-opacity:1" />
<stop  offset="1" style="stop-color:#828282;stop-opacity:1" />
</linearGradient>
<path style="fill:url(#LinearGradID_124) " d="M3.9 5.55L4.1 6.3L4.05 6.9L3.25 6.85L3.25 6.3L2.45 6.9Q2.35 6.7 2.4 6.3L2.65 5.45L3.05 4.85L3.5 4.85Q3.6 5.35 3.9 5.55M3.25 6.3L3.25 6.85" />
<path style="fill:#EDEDED;fill-opacity:1" d="M1.45 6.5Q1.3 6.55 1.45 6.2L1.7 5.8L1.6 6.2L1.45 6.5" />
<path style="fill:none;stroke-width:0.7;stroke-linecap:round;stroke-linejoin:round;stroke-miterlimit:3;stroke:#000000;stroke-opacity:0.498039" d="M4.1 6.3L4.7 6.85Q5 7 5.15 6.7L5 6L5.4 5.95L5.95 5.85Q6.65 5.65 6.4 4.95L6.2 4.1Q6.1 3.45 6.4 2.9L6.4 2.1L6.15 1.65L5.85 0.8Q5.8 0.4 4.85 0.2L4.25 0.1L3.95 0.05" />
<path style="fill:none;stroke-width:0.7;stroke-linecap:round;stroke-linejoin:round;stroke-miterlimit:3;stroke:#000000;stroke-opacity:0.498039" d="M4.1 6.3L4.05 6.9L3.25 6.85L2.45 6.9Q2.35 6.7 2.4 6.3L1.8 6.85Q1.5 7 1.35 6.65Q1.2 6.4 1.45 6L1.1 5.9L0.55 5.8L0.05 5.35L0.05 4.95L0.3 4.1Q0.4 3.45 0.05 2.9L0.05 2.1L0.35 1.65L0.65 0.8Q0.8 0.2 2.35 0.05L3.95 0.05" />
<path style="fill:none;stroke-width:0.7;stroke-linecap:round;stroke-linejoin:round;stroke-miterlimit:3;stroke:#000000;stroke-opacity:0.498039" d="M1.4 5.5L1.45 5.75L1.45 6" />
<path style="fill:none;stroke-width:0.7;stroke-linecap:round;stroke-linejoin:round;stroke-miterlimit:3;stroke:#000000;stroke-opacity:0.498039" d="M3.25 6.3L3.25 6.85" />
</g>
<g id="PathID_413" transform="matrix(1, 0, 0, 1, 0.1, 0.1)">
<radialGradient
id="RadialGradID_125" gradientUnits="userSpaceOnUse" gradientTransform="matrix(0.00263977, 0, 0.000549316, 0.00270081, 3.1, 1.15)" spreadMethod ="pad" cx="0" cy="0" r="819.2" fx="0" fy="0" >
<stop  offset="0"  style="stop-color:#000000;stop-opacity:1" />
<stop  offset="0.984314"  style="stop-color:#000000;stop-opacity:0" />
</radialGradient>
<path style="fill:url(#RadialGradID_125) " d="M3.7 0.5L3.25 0.1Q4.3 0.15 4.9 0.5Q5.45 0.8 5.55 1.25L5.5 2.05L4.95 2.6Q4 3.1 3.8 4.25L3.05 3.65L2.75 3.25L3.15 2.95Q4.65 2.45 4.2 1.3L3.7 0.5" />
</g>
<g id="PathID_414" transform="matrix(1, 0, 0, 1, 0.1, 0.1)">
<path style="fill:#230B00;fill-opacity:1" d="M3.7 5.45L3.35 4.9L3.5 4.85L3.6 4.9L3.7 5.45M2.8 4.85L2.95 4.9L2.5 5.45Q2.4 5.05 2.6 4.9L2.8 4.85" />
</g>
</svg>
