<?xml version="1.0" encoding="utf-8"?>
<svg version="1.1" id="Layer_1"
xmlns="http://www.w3.org/2000/svg"
xmlns:xlink="http://www.w3.org/1999/xlink"
width="19px" height="5px"
xml:space="preserve">
<g id="PathID_2749" transform="matrix(1, 0, 0, 1, 9.15, 2.3)">
<linearGradient
id="LinearGradID_819" gradientUnits="userSpaceOnUse" gradientTransform="matrix(0.00244141, 0, 0, 0.00170898, 7.05, -0.35)" spreadMethod ="pad" x1="-819.2" y1="0" x2="819.2" y2="0" >
<stop  offset="0" style="stop-color:#705B5B;stop-opacity:1" />
<stop  offset="0.356863" style="stop-color:#808080;stop-opacity:1" />
<stop  offset="0.486275" style="stop-color:#B2B2A6;stop-opacity:1" />
<stop  offset="0.701961" style="stop-color:#808080;stop-opacity:1" />
<stop  offset="1" style="stop-color:#705B5B;stop-opacity:1" />
</linearGradient>
<path style="fill:url(#LinearGradID_819) " d="M7.35 -1L7.55 -1.15L8.05 -1.25Q9.05 -1.05 9.05 -0.05Q9 0.8 8 0.9L8 0.3Q6.95 1.1 6.3 1.05Q4.95 0.95 5.05 -0.4Q5.15 -1.8 6.35 -1.75L7.15 -1.35L7.35 -1" />
<path style="fill:none;stroke-width:0.7;stroke-linecap:round;stroke-linejoin:round;stroke-miterlimit:3;stroke:#000000;stroke-opacity:0.101961" d="M7.15 -1.35L6.35 -1.75Q5.15 -1.8 5.05 -0.4Q4.95 0.95 6.3 1.05Q6.95 1.1 8 0.3L8 0.9Q9 0.8 9.05 -0.05Q9.05 -1.05 8.05 -1.25L7.55 -1.15L7.35 -1L7.15 -1.35z" />
</g>
<g id="PathID_2750" transform="matrix(1, 0, 0, 1, 9.15, 2.3)">
<path style="fill:none;stroke-width:0.7;stroke-linecap:round;stroke-linejoin:round;stroke-miterlimit:3;stroke:#000000;stroke-opacity:0.101961" d="M7.35 -1.05L7.05 -0.5L6.3 0.05Q5.9 0.1 5.8 -0.45Q5.7 -0.95 6.25 -1" />
</g>
<g id="PathID_2751" transform="matrix(1, 0, 0, 1, 9.15, 2.3)">
<linearGradient
id="LinearGradID_820" gradientUnits="userSpaceOnUse" gradientTransform="matrix(0.00869751, 0, 0, 0.00262451, -1.9, 0)" spreadMethod ="pad" x1="-819.2" y1="0" x2="819.2" y2="0" >
<stop  offset="0.423529" style="stop-color:#705B5B;stop-opacity:1" />
<stop  offset="0.615686" style="stop-color:#808080;stop-opacity:1" />
<stop  offset="0.709804" style="stop-color:#E5E3E0;stop-opacity:1" />
<stop  offset="0.847059" style="stop-color:#808080;stop-opacity:1" />
<stop  offset="1" style="stop-color:#705B5B;stop-opacity:1" />
</linearGradient>
<path style="fill:url(#LinearGradID_820) " d="M2.75 -1.25L2.95 -1.65L3.85 -2.05Q5.15 -2.1 5.25 -0.6Q5.35 0.9 3.75 1Q3.1 1.05 2.25 0.4Q1.35 -0.25 0.65 -0.2Q-0.05 -0.15 -0.75 0.4Q-1.5 0.95 -2.25 1L-3.9 0.8L-5.25 0.5Q-5.95 0.5 -6.8 1.05L-8.1 2Q-8.7 2.4 -8.95 1.65Q-9.2 0.95 -8.6 0.4Q-6.65 -1.35 -5.55 -1.4L-4.1 -1.15L-2.45 -0.9Q-1.75 -0.9 -0.95 -1.5Q-0.15 -2.1 0.45 -2.15Q1.7 -2.2 2.75 -1.25" />
<path style="fill:none;stroke-width:0.7;stroke-linecap:round;stroke-linejoin:round;stroke-miterlimit:3;stroke:#000000;stroke-opacity:0.101961" d="M2.75 -1.25L2.95 -1.65L3.85 -2.05Q5.15 -2.1 5.25 -0.6Q5.35 0.9 3.75 1Q3.1 1.05 2.25 0.4Q1.35 -0.25 0.65 -0.2Q-0.05 -0.15 -0.75 0.4Q-1.5 0.95 -2.25 1L-3.9 0.8L-5.25 0.5Q-5.95 0.5 -6.8 1.05L-8.1 2Q-8.7 2.4 -8.95 1.65Q-9.2 0.95 -8.6 0.4Q-6.65 -1.35 -5.55 -1.4L-4.1 -1.15L-2.45 -0.9Q-1.75 -0.9 -0.95 -1.5Q-0.15 -2.1 0.45 -2.15Q1.7 -2.2 2.75 -1.25z" />
</g>
<g id="PathID_2752" transform="matrix(1, 0, 0, 1, 9.15, 2.3)">
<path style="fill:none;stroke-width:0.7;stroke-linecap:round;stroke-linejoin:round;stroke-miterlimit:3;stroke:#000000;stroke-opacity:0.101961" d="M2.75 -1.3L3.1 -0.7Q3.55 -0.15 3.9 -0.1Q4.35 -0.05 4.45 -0.65Q4.55 -1.2 3.95 -1.25" />
</g>
</svg>
