<?xml version="1.0" encoding="utf-8"?>
<svg version="1.1" id="Layer_1"
xmlns="http://www.w3.org/2000/svg"
xmlns:xlink="http://www.w3.org/1999/xlink"
width="14px" height="8px"
xml:space="preserve">
<g id="PathID_2262" transform="matrix(1, 0, 0, 1, 0.1, 0.1)">
<path style="fill:#808080;fill-opacity:1" d="M12.85 0L13 3.3L10.55 1.05L10.25 4.1L8.05 2.35L7.5 5L4.9 3.4L4.5 6.15L2.4 4.85L0.8 7.3L0 6.2L0.65 5.65L2.4 4.2Q3.95 3.1 5.7 2.25Q8.95 0.65 12.85 0" />
<path style="fill:none;stroke-width:0.7;stroke-linecap:round;stroke-linejoin:round;stroke-miterlimit:3;stroke:#000000;stroke-opacity:0.4" d="M12.85 0L13 3.3L10.55 1.05L10.25 4.1L8.05 2.35L7.5 5L4.9 3.4L4.5 6.15L2.4 4.85L0.8 7.3L0 6.2L0.65 5.65" />
</g>
</svg>
