<?xml version="1.0" encoding="utf-8"?>
<svg version="1.1" id="Layer_1"
xmlns="http://www.w3.org/2000/svg"
xmlns:xlink="http://www.w3.org/1999/xlink"
width="7px" height="7px"
xml:space="preserve">
<g id="PathID_2666" transform="matrix(1, 0, 0, 1, 3.45, 3.3)">
<path style="fill:#808080;fill-opacity:1" d="M1.35 -3.1Q1.95 -2.85 2.2 -2.15Q2.4 -1.55 2.2 -0.8L1.95 -0.15L2.5 0.3L2.9 0.25L3.35 0.7Q3.5 1.3 2.15 2.45Q0.8 3.6 0.4 3Q0 2.35 0.1 1.9Q0.25 1.4 0.45 1.25Q0 0.9 0.15 0.55L0.4 0.2L0.7 -0.35L0.8 -1.3Q0.7 -1.9 0.3 -1.85L-0.65 -1.05L-1.65 -0.25L-2.6 -0.5Q-3.1 -0.8 -3.3 -1.3Q-3.45 -1.75 -3.2 -2.2L-2.6 -2.65L-2.05 -2.55Q-1.8 -2.3 -1.95 -1.85L-2.55 -1.95Q-3 -1.2 -2.05 -0.9Q-1.65 -0.75 -1.2 -1.55Q-0.6 -2.55 0.15 -3L1.35 -3.1" />
<path style="fill:none;stroke-width:0.7;stroke-linecap:round;stroke-linejoin:round;stroke-miterlimit:3;stroke:#000000;stroke-opacity:0.301961" d="M1.35 -3.1Q1.95 -2.85 2.2 -2.15Q2.4 -1.55 2.2 -0.8L1.95 -0.15L2.5 0.3L2.9 0.25L3.35 0.7Q3.5 1.3 2.15 2.45Q0.8 3.6 0.4 3Q0 2.35 0.1 1.9Q0.25 1.4 0.45 1.25Q0 0.9 0.15 0.55L0.4 0.2L0.7 -0.35L0.8 -1.3Q0.7 -1.9 0.3 -1.85L-0.65 -1.05L-1.65 -0.25L-2.6 -0.5Q-3.1 -0.8 -3.3 -1.3Q-3.45 -1.75 -3.2 -2.2L-2.6 -2.65L-2.05 -2.55Q-1.8 -2.3 -1.95 -1.85L-2.55 -1.95Q-3 -1.2 -2.05 -0.9Q-1.65 -0.75 -1.2 -1.55Q-0.6 -2.55 0.15 -3L1.35 -3.1z" />
</g>
</svg>
