<?xml version="1.0" encoding="utf-8"?>
<svg version="1.1" id="Layer_1"
xmlns="http://www.w3.org/2000/svg"
xmlns:xlink="http://www.w3.org/1999/xlink"
width="8px" height="8px"
xml:space="preserve">
<g id="PathID_1248" transform="matrix(1, 0, 0, 1, 0, 0)">
<path style="fill:#808080;fill-opacity:1" d="M7.2 0.75L7.45 1.7Q7.65 3.05 6.8 3Q6.25 2.9 5.95 1.5L5.9 0.85Q5.95 0 6.6 0L7.2 0.75M1.9 7.35L0.45 6.9L0 6.55L0.15 6.4Q0.45 6.2 1.3 6.4Q2.25 6.55 2.45 7L2.5 7.5L1.9 7.35" />
<path style="fill:#5C5652;fill-opacity:1" d="M0 6.55L0.45 6.9L1.9 7.35L2.5 7.5L1.95 7.7L1.3 7.7L0.65 7.5L0.3 7.2L0.05 6.7L0 6.55" />
</g>
</svg>
