<?xml version="1.0" encoding="utf-8"?>
<svg version="1.1" id="Layer_1"
xmlns="http://www.w3.org/2000/svg"
xmlns:xlink="http://www.w3.org/1999/xlink"
width="4px" height="7px"
xml:space="preserve">
<g id="PathID_417" transform="matrix(1, 0, 0, 1, 0, 0)">
<path style="fill:#5F5D5C;fill-opacity:1" d="M2.3 2.95Q2.75 1.9 2.4 1.7Q3.05 1.9 3.5 0.35Q3.85 0.6 2.95 2.95L2.3 2.95M1.6 3.1L0.6 3.1Q1.25 2.3 1.1 1.05L1.25 1.8Q1.6 2.25 1.6 3.1" />
<path style="fill:#2E2A29;fill-opacity:1" d="M1.25 1.8L1.1 1.05L1.75 0.3L3.5 0.35Q3.05 1.9 2.4 1.7L1.25 1.8" />
<path style="fill:#A3A3A3;fill-opacity:1" d="M0.75 3.5L0.8 4.55L0.6 4.7L0.3 4.25Q0.3 3.6 0.75 3.5M2.4 4.95L2.5 4.4Q2.8 4.45 2.8 4.9Q2.8 5.5 2.6 5.5L2.4 5.25L2.4 4.95" />
<path style="fill:#808080;fill-opacity:1" d="M2.3 2.95L2.95 2.95Q2.75 4.4 3.4 5.1Q3.85 5.55 3.6 6.25Q3.3 7 2.45 6.25Q1.85 5.75 2.3 2.95M1.25 4.8Q0.25 5.75 0 4.15L0.6 3.1L1.6 3.1L1.25 4.8M0.3 4.25L0.6 4.7L0.8 4.55L0.75 3.5Q0.3 3.6 0.3 4.25M2.4 5.25L2.6 5.5Q2.8 5.5 2.8 4.9Q2.8 4.45 2.5 4.4L2.4 4.95L2.4 5.25" />
</g>
</svg>
