<?xml version="1.0" encoding="utf-8"?>
<svg version="1.1" id="Layer_1"
xmlns="http://www.w3.org/2000/svg"
xmlns:xlink="http://www.w3.org/1999/xlink"
width="5px" height="6px"
xml:space="preserve">
<g id="PathID_1154" transform="matrix(1, 0, 0, 1, 0, 0)">
<path style="fill:#808080;fill-opacity:1" d="M2.85 0.7L2.35 0.7Q2.7 -0.3 3.05 0.15Q3.15 0.45 2.85 0.7M4.3 2.75L3.9 2.45Q4.9 1.95 4.8 2.55Q4.7 2.85 4.3 2.75M0.75 0.7Q0.4 1.8 0.05 1.3Q-0.15 1 0.25 0.8L0.75 0.7M1.75 2.55Q1.85 1.95 2.4 1.8L2.4 2.55L2 2.85Q1.7 2.8 1.75 2.55M2.65 4.85L2.2 5.05Q2.25 3.95 2.7 4.3L2.65 4.85" />
</g>
</svg>
