<?xml version="1.0" encoding="utf-8"?>
<svg version="1.1" id="Layer_1"
xmlns="http://www.w3.org/2000/svg"
xmlns:xlink="http://www.w3.org/1999/xlink"
width="17px" height="16px"
xml:space="preserve">
<g id="PathID_2812" transform="matrix(1, 0, 0, 1, 8.2, 20.5)">
<path style="fill:none;stroke-width:1;stroke-linecap:butt;stroke-linejoin:round;stroke-miterlimit:3;stroke:#FFFFFF;stroke-opacity:0.2" d="M4.6 -15.05L5.05 -15.3L5.7 -15.75" />
<path style="fill:none;stroke-width:1;stroke-linecap:butt;stroke-linejoin:round;stroke-miterlimit:3;stroke:#FFFFFF;stroke-opacity:0.2" d="M-7.05 -16.7L-5.45 -16.65L-4.6 -16.25L-3.7 -15.75L-2.2 -15.8L-0.45 -15.9L1.5 -15.3L2.65 -14.95" />
<path style="fill:none;stroke-width:1;stroke-linecap:butt;stroke-linejoin:round;stroke-miterlimit:3;stroke:#FFFFFF;stroke-opacity:0.2" d="M-7.7 -13.45Q-6.85 -13.3 -5.3 -12.25Q-4.3 -11.25 -3.4 -10.8L-1.4 -10.45L0.6 -10.6L1.5 -10.85L2.35 -10.95L4.45 -10L5.75 -9.75L6.9 -9.8" />
</g>
<g id="PathID_2813" transform="matrix(1, 0, 0, 1, 8.2, 20.5)">
<path style="fill:none;stroke-width:0.7;stroke-linecap:round;stroke-linejoin:round;stroke-miterlimit:3;stroke:#000000;stroke-opacity:0.101961" d="M0.25 -13.35L0.85 -13.6" />
<path style="fill:none;stroke-width:0.7;stroke-linecap:round;stroke-linejoin:round;stroke-miterlimit:3;stroke:#000000;stroke-opacity:0.101961" d="M4.7 -16.7L5 -16.55" />
<path style="fill:none;stroke-width:0.7;stroke-linecap:round;stroke-linejoin:round;stroke-miterlimit:3;stroke:#000000;stroke-opacity:0.101961" d="M4.45 -19.8L3.75 -19.35" />
<path style="fill:none;stroke-width:0.7;stroke-linecap:round;stroke-linejoin:round;stroke-miterlimit:3;stroke:#000000;stroke-opacity:0.101961" d="M1.45 -17.05L1.85 -17.05" />
<path style="fill:none;stroke-width:0.7;stroke-linecap:round;stroke-linejoin:round;stroke-miterlimit:3;stroke:#000000;stroke-opacity:0.101961" d="M1.5 -18.7L2.2 -18.6" />
<path style="fill:none;stroke-width:0.7;stroke-linecap:round;stroke-linejoin:round;stroke-miterlimit:3;stroke:#000000;stroke-opacity:0.101961" d="M7.3 -4.8L7.85 -5.05" />
<path style="fill:none;stroke-width:0.7;stroke-linecap:round;stroke-linejoin:round;stroke-miterlimit:3;stroke:#000000;stroke-opacity:0.101961" d="M6.75 -7.75L7.3 -7.75" />
<path style="fill:none;stroke-width:0.7;stroke-linecap:round;stroke-linejoin:round;stroke-miterlimit:3;stroke:#000000;stroke-opacity:0.101961" d="M1.5 -10.85L2.35 -10.95" />
<path style="fill:none;stroke-width:0.7;stroke-linecap:round;stroke-linejoin:round;stroke-miterlimit:3;stroke:#000000;stroke-opacity:0.101961" d="M3.5 -10.2L3.8 -10.05" />
<path style="fill:none;stroke-width:0.7;stroke-linecap:round;stroke-linejoin:round;stroke-miterlimit:3;stroke:#000000;stroke-opacity:0.101961" d="M3.35 -8L4.05 -8" />
<path style="fill:none;stroke-width:0.7;stroke-linecap:round;stroke-linejoin:round;stroke-miterlimit:3;stroke:#000000;stroke-opacity:0.101961" d="M-1.35 -20.3L-0.95 -20.5" />
<path style="fill:none;stroke-width:0.7;stroke-linecap:round;stroke-linejoin:round;stroke-miterlimit:3;stroke:#000000;stroke-opacity:0.101961" d="M-6.4 -17.75L-5.75 -17.95" />
<path style="fill:none;stroke-width:0.7;stroke-linecap:round;stroke-linejoin:round;stroke-miterlimit:3;stroke:#000000;stroke-opacity:0.101961" d="M-6.55 -12.6L-6.15 -12.6" />
<path style="fill:none;stroke-width:0.7;stroke-linecap:round;stroke-linejoin:round;stroke-miterlimit:3;stroke:#000000;stroke-opacity:0.101961" d="M-4.8 -17.3L-4.4 -17.2" />
<path style="fill:none;stroke-width:0.7;stroke-linecap:round;stroke-linejoin:round;stroke-miterlimit:3;stroke:#000000;stroke-opacity:0.101961" d="M-1.3 -18.25L-0.95 -18.05" />
<path style="fill:none;stroke-width:0.7;stroke-linecap:round;stroke-linejoin:round;stroke-miterlimit:3;stroke:#000000;stroke-opacity:0.101961" d="M-1.05 -16.05L-0.5 -15.9" />
<path style="fill:none;stroke-width:0.7;stroke-linecap:round;stroke-linejoin:round;stroke-miterlimit:3;stroke:#000000;stroke-opacity:0.101961" d="M-2.55 -16.95L-1.55 -16.85" />
<path style="fill:none;stroke-width:0.7;stroke-linecap:round;stroke-linejoin:round;stroke-miterlimit:3;stroke:#000000;stroke-opacity:0.101961" d="M-2.95 -14.3L-2.3 -14.25" />
<path style="fill:none;stroke-width:0.7;stroke-linecap:round;stroke-linejoin:round;stroke-miterlimit:3;stroke:#000000;stroke-opacity:0.101961" d="M-5.95 -13.95L-5.05 -13.6" />
<path style="fill:none;stroke-width:0.7;stroke-linecap:round;stroke-linejoin:round;stroke-miterlimit:3;stroke:#000000;stroke-opacity:0.101961" d="M-1.9 -11.05L-1.25 -11.25" />
<path style="fill:none;stroke-width:0.7;stroke-linecap:round;stroke-linejoin:round;stroke-miterlimit:3;stroke:#000000;stroke-opacity:0.101961" d="M-3.3 -11.5L-2.7 -11.7" />
<path style="fill:none;stroke-width:0.7;stroke-linecap:round;stroke-linejoin:round;stroke-miterlimit:3;stroke:#000000;stroke-opacity:0.101961" d="M-3.55 -7.3L-3 -7.5" />
<path style="fill:none;stroke-width:0.7;stroke-linecap:round;stroke-linejoin:round;stroke-miterlimit:3;stroke:#000000;stroke-opacity:0.101961" d="M-3.4 -8.35L-2.65 -8.6" />
<path style="fill:none;stroke-width:0.7;stroke-linecap:round;stroke-linejoin:round;stroke-miterlimit:3;stroke:#000000;stroke-opacity:0.101961" d="M-0.7 -9.95L-0.2 -9.75" />
<path style="fill:none;stroke-width:0.7;stroke-linecap:round;stroke-linejoin:round;stroke-miterlimit:3;stroke:#000000;stroke-opacity:0.101961" d="M-6.75 -9.45L-6.05 -9.1" />
<path style="fill:none;stroke-width:0.7;stroke-linecap:round;stroke-linejoin:round;stroke-miterlimit:3;stroke:#000000;stroke-opacity:0.101961" d="M-7.75 -7.25L-7.45 -7.45" />
<path style="fill:none;stroke-width:0.7;stroke-linecap:round;stroke-linejoin:round;stroke-miterlimit:3;stroke:#000000;stroke-opacity:0.101961" d="M-7.8 -4.8L-7.45 -4.75" />
<path style="fill:none;stroke-width:0.7;stroke-linecap:round;stroke-linejoin:round;stroke-miterlimit:3;stroke:#000000;stroke-opacity:0.101961" d="M-2.25 -5.1L-1.7 -5.2" />
<path style="fill:none;stroke-width:0.7;stroke-linecap:round;stroke-linejoin:round;stroke-miterlimit:3;stroke:#000000;stroke-opacity:0.101961" d="M-0.45 -6.95L0.05 -7.1" />
</g>
<g id="PathID_2814" transform="matrix(1, 0, 0, 1, 8.2, 20.5)">
<path style="fill:none;stroke-width:0.7;stroke-linecap:round;stroke-linejoin:round;stroke-miterlimit:3;stroke:#FFFFFF;stroke-opacity:0.2" d="M4.7 -18.25L3.7 -18.2" />
<path style="fill:none;stroke-width:0.7;stroke-linecap:round;stroke-linejoin:round;stroke-miterlimit:3;stroke:#FFFFFF;stroke-opacity:0.2" d="M2.35 -18.25L1.5 -18.05" />
<path style="fill:none;stroke-width:0.7;stroke-linecap:round;stroke-linejoin:round;stroke-miterlimit:3;stroke:#FFFFFF;stroke-opacity:0.2" d="M1.1 -14.75L1.95 -14.8" />
<path style="fill:none;stroke-width:0.7;stroke-linecap:round;stroke-linejoin:round;stroke-miterlimit:3;stroke:#FFFFFF;stroke-opacity:0.2" d="M1.45 -12.35L2.3 -12.25" />
<path style="fill:none;stroke-width:0.7;stroke-linecap:round;stroke-linejoin:round;stroke-miterlimit:3;stroke:#FFFFFF;stroke-opacity:0.2" d="M5.55 -11.1L6 -11.05" />
<path style="fill:none;stroke-width:0.7;stroke-linecap:round;stroke-linejoin:round;stroke-miterlimit:3;stroke:#FFFFFF;stroke-opacity:0.2" d="M4.6 -9.1L5.35 -9.05" />
<path style="fill:none;stroke-width:0.7;stroke-linecap:round;stroke-linejoin:round;stroke-miterlimit:3;stroke:#FFFFFF;stroke-opacity:0.2" d="M4.25 -7L5.05 -7.45" />
<path style="fill:none;stroke-width:0.7;stroke-linecap:round;stroke-linejoin:round;stroke-miterlimit:3;stroke:#FFFFFF;stroke-opacity:0.2" d="M1.55 -9.6L2.3 -9.6" />
<path style="fill:none;stroke-width:0.7;stroke-linecap:round;stroke-linejoin:round;stroke-miterlimit:3;stroke:#FFFFFF;stroke-opacity:0.2" d="M0.45 -8.7L1.35 -9" />
<path style="fill:none;stroke-width:0.7;stroke-linecap:round;stroke-linejoin:round;stroke-miterlimit:3;stroke:#FFFFFF;stroke-opacity:0.2" d="M-4.05 -13L-2.8 -12.7" />
<path style="fill:none;stroke-width:0.7;stroke-linecap:round;stroke-linejoin:round;stroke-miterlimit:3;stroke:#FFFFFF;stroke-opacity:0.2" d="M-3.4 -13.7L-2.55 -13.55" />
<path style="fill:none;stroke-width:0.7;stroke-linecap:round;stroke-linejoin:round;stroke-miterlimit:3;stroke:#FFFFFF;stroke-opacity:0.2" d="M-5.2 -15.1L-4.5 -15.1" />
<path style="fill:none;stroke-width:0.7;stroke-linecap:round;stroke-linejoin:round;stroke-miterlimit:3;stroke:#FFFFFF;stroke-opacity:0.2" d="M-6.15 -16.5L-5.5 -16.25" />
<path style="fill:none;stroke-width:0.7;stroke-linecap:round;stroke-linejoin:round;stroke-miterlimit:3;stroke:#FFFFFF;stroke-opacity:0.2" d="M-4.75 -18.05L-4 -18.3" />
<path style="fill:none;stroke-width:0.7;stroke-linecap:round;stroke-linejoin:round;stroke-miterlimit:3;stroke:#FFFFFF;stroke-opacity:0.2" d="M-3.45 -6.8L-2.75 -6.7" />
<path style="fill:none;stroke-width:0.7;stroke-linecap:round;stroke-linejoin:round;stroke-miterlimit:3;stroke:#FFFFFF;stroke-opacity:0.2" d="M-6.55 -5.1L-6.15 -5.35" />
<path style="fill:none;stroke-width:0.7;stroke-linecap:round;stroke-linejoin:round;stroke-miterlimit:3;stroke:#FFFFFF;stroke-opacity:0.2" d="M-6.55 -6.85L-5.5 -6.45" />
<path style="fill:none;stroke-width:0.7;stroke-linecap:round;stroke-linejoin:round;stroke-miterlimit:3;stroke:#FFFFFF;stroke-opacity:0.2" d="M-1.95 -9.3L-1.15 -9" />
<path style="fill:none;stroke-width:0.7;stroke-linecap:round;stroke-linejoin:round;stroke-miterlimit:3;stroke:#FFFFFF;stroke-opacity:0.2" d="M-5.05 -9.45L-4.5 -9.6" />
<path style="fill:none;stroke-width:0.7;stroke-linecap:round;stroke-linejoin:round;stroke-miterlimit:3;stroke:#FFFFFF;stroke-opacity:0.2" d="M-6.2 -10.7L-5.55 -11" />
</g>
</svg>
