<?xml version="1.0" encoding="utf-8"?>
<svg version="1.1" id="Layer_1"
xmlns="http://www.w3.org/2000/svg"
xmlns:xlink="http://www.w3.org/1999/xlink"
width="4px" height="5px"
xml:space="preserve">
<g id="PathID_1631" transform="matrix(1, 0, 0, 1, 0.15, 0.15)">
<path style="fill:#808080;fill-opacity:1" d="M1.5 0Q2.2 0 2.85 1.65L2.25 2.4L1.75 1.1Q3.5 3.2 2.25 3.75L2.05 2.45L2.25 2.4L0 2.4Q0.7 1.35 1.75 1.1L2.85 1.65L1.25 0.7L1 0.15L1.5 0M2.25 2.4L2.85 1.65M2.25 2.4L2.05 2.45" />
<path style="fill:none;stroke-width:0.7;stroke-linecap:round;stroke-linejoin:round;stroke-miterlimit:3;stroke:#000000;stroke-opacity:0.4" d="M1.5 0Q2.2 0 2.85 1.65Q3.5 3.2 2.25 3.75L2.05 2.45L0 2.4Q0.7 1.35 1.75 1.1L1.25 0.7L1 0.15L1.5 0z" />
<path style="fill:none;stroke-width:0.7;stroke-linecap:round;stroke-linejoin:round;stroke-miterlimit:3;stroke:#000000;stroke-opacity:0.4" d="M1.75 1.1L2.85 1.65L2.25 2.4L2.05 2.45" />
</g>
</svg>
