<?xml version="1.0" encoding="utf-8"?>
<svg version="1.1" id="Layer_1"
xmlns="http://www.w3.org/2000/svg"
xmlns:xlink="http://www.w3.org/1999/xlink"
width="12px" height="10px"
xml:space="preserve">
<g id="PathID_1191" transform="matrix(1, 0, 0, 1, 5.55, 4.65)">
<linearGradient
id="LinearGradID_289" gradientUnits="userSpaceOnUse" gradientTransform="matrix(0.000595093, 0.00062561, -0.00201416, 0.00192261, -3.65, 2.8)" spreadMethod ="pad" x1="-819.2" y1="0" x2="819.2" y2="0" >
<stop  offset="0.376471" style="stop-color:#808080;stop-opacity:1" />
<stop  offset="1" style="stop-color:#726666;stop-opacity:1" />
</linearGradient>
<path style="fill:url(#LinearGradID_289) " d="M-3.25 0.5Q-2.85 0.05 -2.4 0.95Q-2.05 1.8 -2.4 2.4Q-2.9 3.4 -3.75 4.1Q-4.9 5.1 -5.35 4.35Q-5.9 3.45 -4.9 2.15L-3.25 0.5" />
<path style="fill:none;stroke-width:0.7;stroke-linecap:round;stroke-linejoin:round;stroke-miterlimit:3;stroke:#000000;stroke-opacity:0.2" d="M-4.9 2.15Q-5.9 3.45 -5.35 4.35Q-4.9 5.1 -3.75 4.1Q-2.9 3.4 -2.4 2.4Q-2.05 1.8 -2.4 0.95Q-2.85 0.05 -3.25 0.5L-4.9 2.15z" />
</g>
<g id="PathID_1192" transform="matrix(1, 0, 0, 1, 5.55, 4.65)">
<linearGradient
id="LinearGradID_290" gradientUnits="userSpaceOnUse" gradientTransform="matrix(0.00151062, 0.00192261, -0.00465393, 0.00367737, 2.05, 0.4)" spreadMethod ="pad" x1="-819.2" y1="0" x2="819.2" y2="0" >
<stop  offset="0" style="stop-color:#808080;stop-opacity:1" />
<stop  offset="1" style="stop-color:#726666;stop-opacity:1" />
</linearGradient>
<path style="fill:url(#LinearGradID_290) " d="M4.4 -0.85Q4.65 0.45 4 1.45Q3.4 2.45 2.4 2.65L-0.4 2.7Q-2.35 2.45 -3.1 1.65Q-3.8 1 -3.85 -0.1L-3.65 -1.3Q-4.35 -1.4 -4.45 -2.3Q-4.6 -3.1 -4 -4Q-3.5 -4.6 -2.7 -4.65Q-1.65 -4.7 -1.3 -3.4Q1.05 -4.1 2.8 -2.75Q2.95 -4.05 3.85 -4.1Q4.7 -4.1 5.2 -3.45Q5.75 -2.75 5.55 -1.9Q5.35 -1.1 4.4 -0.85" />
<path style="fill:none;stroke-width:0.7;stroke-linecap:round;stroke-linejoin:round;stroke-miterlimit:3;stroke:#000000;stroke-opacity:0.2" d="M4.4 -0.85Q4.65 0.45 4 1.45Q3.4 2.45 2.4 2.65L-0.4 2.7Q-2.35 2.45 -3.1 1.65Q-3.8 1 -3.85 -0.1L-3.65 -1.3Q-4.35 -1.4 -4.45 -2.3Q-4.6 -3.1 -4 -4Q-3.5 -4.6 -2.7 -4.65Q-1.65 -4.7 -1.3 -3.4Q1.05 -4.1 2.8 -2.75Q2.95 -4.05 3.85 -4.1Q4.7 -4.1 5.2 -3.45Q5.75 -2.75 5.55 -1.9Q5.35 -1.1 4.4 -0.85z" />
</g>
</svg>
