<?xml version="1.0" encoding="utf-8"?>
<svg version="1.1" id="Layer_1"
xmlns="http://www.w3.org/2000/svg"
xmlns:xlink="http://www.w3.org/1999/xlink"
width="16px" height="17px"
xml:space="preserve">
<g id="PathID_2726" transform="matrix(1, 0, 0, 1, 10.7, 29.9)">
<linearGradient
id="LinearGradID_810" gradientUnits="userSpaceOnUse" gradientTransform="matrix(-0.00109863, -0.00965881, 0.0117645, -0.00134277, -3.05, -21.15)" spreadMethod ="pad" x1="-819.2" y1="0" x2="819.2" y2="0" >
<stop  offset="0" style="stop-color:#FFFFFF;stop-opacity:0" />
<stop  offset="1" style="stop-color:#FFFFFF;stop-opacity:0.501961" />
</linearGradient>
<path style="fill:url(#LinearGradID_810) " d="M5.2 -17.45Q2.95 -14.1 -1.65 -19.55L-4.3 -26.45L-4.35 -26.4L-4.45 -26.85L-4.55 -27.15L-4.75 -27.75L-5.8 -29.9Q-4.15 -29.9 -3.15 -28.4Q0.75 -27 2.1 -23.6Q5.85 -20.35 5.2 -17.45M-10.05 -27.45Q-6.7 -27.45 -4.35 -24L-3.75 -22.95L-3 -21.15L-2.85 -20.95L-2.9 -20.95L-0.3 -13.4Q-4.8 -14.75 -9.05 -23.85Q-10.25 -20.1 -9.6 -18.65Q-10.8 -19.45 -10.7 -23.5Q-10.45 -24.65 -9.75 -25.6L-10.05 -27.45" />
</g>
</svg>
