<?xml version="1.0" encoding="utf-8"?>
<svg version="1.1" id="Layer_1"
xmlns="http://www.w3.org/2000/svg"
xmlns:xlink="http://www.w3.org/1999/xlink"
width="23px" height="23px"
xml:space="preserve">
<g id="PathID_2668" transform="matrix(1, 0, 0, 1, 11.2, 11.1)">
<radialGradient
id="RadialGradID_777" gradientUnits="userSpaceOnUse" gradientTransform="matrix(0.0167236, 0, 0, 0.0167236, 1.6, 1)" spreadMethod ="pad" cx="0" cy="0" r="819.2" fx="0" fy="0" >
<stop  offset="0.572549"  style="stop-color:#808080;stop-opacity:1" />
<stop  offset="0.929412"  style="stop-color:#545454;stop-opacity:1" />
</radialGradient>
<path style="fill:url(#RadialGradID_777) " d="M5.75 -6.65L4.6 -6.95Q4.2 -7.1 3.55 -7.9L2.5 -8.85L-0.75 -9.55L1.45 -8.45L2.2 -7.5L3.1 -6.2L4.8 -5.1L6.7 -3.9L8.45 -1.8L6.85 -2.8L6.45 -1.4L5.85 0.05L4.85 -0.15Q4.15 -2.25 1.85 -4.35L0.7 -5.15L-0.3 -5.65L-0.95 -6.4L-1.7 -7.4Q-2.45 -8.05 -4.35 -8.75L-2.25 -6.35L-1.85 -5.4L-1.3 -4.6L-0.25 -4L0.75 -3.3L1.45 -2.3L0.45 -3Q-0.05 -2.85 -0.35 -1.8L-0.35 -1.7L-0.75 -0.3L-1.9 -1.05L-2.55 -1.6L-3.3 -2.9L-4.2 -4.3L-7.7 -6.25L-4.95 -3.5Q-4.8 -3.3 -4.6 -2.25Q-4.4 -1.35 -4.05 -1L-2.45 0.3L-1.3 1.1L-2.5 1.75L-2.9 3.9L-4.05 2.5Q-4.35 2.15 -5.45 1.8Q-6.55 1.4 -6.85 1.05L-7.35 -0.05L-7.7 -1.2Q-8.1 -1.9 -9.75 -3L-8.7 -0.6L-8.35 1.05L-7.95 2.45L-6.5 3.4Q-5.2 3.95 -4.9 4.3L-3.5 6.05L-4 7Q-4.65 7.4 -5.6 7.5L-5.55 8.15L-5.75 7.65L-6.45 6.75L-7.35 6.35L-8.3 5.95L-9.05 5.05L-9.8 3.3Q-10.1 5.05 -8.7 6.85L-6.9 8.5Q-5.9 9.1 -5.5 9.95L-5.5 10.05L-5.8 11.05L-7.65 9.55Q-10.45 6.95 -10.95 3.8Q-11.6 -0.3 -10.7 -2.95Q-9.65 -6.3 -5.8 -9.2Q-3.4 -11.05 0 -11.1Q2.95 -11.15 5 -10.05Q6.9 -9 8.95 -6.2Q11.1 -3.2 11.2 -0.95L10.05 -1.05Q9.8 -2.85 9.35 -3.4Q8.9 -3.95 8.1 -4.35Q7.65 -5.6 6.85 -6.2L5.75 -6.65" />
</g>
</svg>
