<?xml version="1.0" encoding="utf-8"?>
<svg version="1.1" id="Layer_1"
xmlns="http://www.w3.org/2000/svg"
xmlns:xlink="http://www.w3.org/1999/xlink"
width="4px" height="8px"
xml:space="preserve">
<g id="PathID_2955" transform="matrix(1, 0, 0, 1, 0.15, 0.15)">
<linearGradient
id="LinearGradID_922" gradientUnits="userSpaceOnUse" gradientTransform="matrix(-0.000564575, -0.0010376, 0.00314331, -0.00202942, 1.6, 2.95)" spreadMethod ="pad" x1="-819.2" y1="0" x2="819.2" y2="0" >
<stop  offset="0" style="stop-color:#808080;stop-opacity:1" />
<stop  offset="1" style="stop-color:#4F4943;stop-opacity:1" />
</linearGradient>
<path style="fill:url(#LinearGradID_922) " d="M0.95 5.55L0.95 3.95Q-0.35 2.35 0.1 1.4L2.35 0L3.5 1.1L2.95 3.1L2.95 4.9L0.95 5.55" />
<path style="fill:#808080;fill-opacity:1" d="M0.95 5.55L2.95 4.9L3.2 6.45Q2.1 6.4 1.1 7.25L0.95 5.55" />
<path style="fill:none;stroke-width:0.7;stroke-linecap:round;stroke-linejoin:round;stroke-miterlimit:3;stroke:#000000;stroke-opacity:0.4" d="M2.95 4.9L2.95 3.1L3.5 1.1L2.35 0L0.1 1.4Q-0.35 2.35 0.95 3.95L0.95 5.55" />
<path style="fill:none;stroke-width:0.7;stroke-linecap:round;stroke-linejoin:round;stroke-miterlimit:3;stroke:#000000;stroke-opacity:0.4" d="M2.95 4.9L3.2 6.45" />
<path style="fill:none;stroke-width:0.7;stroke-linecap:round;stroke-linejoin:round;stroke-miterlimit:3;stroke:#000000;stroke-opacity:0.4" d="M1.1 7.25L0.95 5.55" />
</g>
</svg>
