<?xml version="1.0" encoding="utf-8"?>
<svg version="1.1" id="Layer_1"
xmlns="http://www.w3.org/2000/svg"
xmlns:xlink="http://www.w3.org/1999/xlink"
width="36px" height="32px"
xml:space="preserve">
<g id="PathID_3433" transform="matrix(1, 0, 0, 1, 0.15, 0.15)">
<path style="fill:#808080;fill-opacity:1" d="M17.35 10.25Q15.75 6.3 15.65 0L19.3 0.15Q19.25 3.9 21.2 7.45Q22.8 10.4 26.35 14.15L21.1 15.6Q18.6 13.35 17.35 10.25M12.55 2Q14.55 6.6 15.1 10.65L15.2 15.3L15.05 18.2L14.15 18.65Q11.3 16.25 9.45 13Q7.25 9.1 5.95 3Q9 0.8 11.7 0.4L12.55 2" />
<path style="fill:#A6A6A6;fill-opacity:1" d="M11.7 0.4L15.65 0Q15.75 6.3 17.35 10.25Q18.6 13.35 21.1 15.6L18 16.85Q17.6 13.75 15.65 8.85Q14.2 5.1 12.55 2L11.7 0.4" />
<path style="fill:#666564;fill-opacity:1" d="M15.2 15.3L15.1 10.65Q14.55 6.6 12.55 2Q14.2 5.1 15.65 8.85Q17.6 13.75 18 16.85L15.05 18.2L15.2 15.3" />
<path style="fill:#4F4943;fill-opacity:1" d="M14.15 18.65Q10.8 20.25 7.35 23.95L6.75 21.5Q6 18.85 5.35 17.7Q3.6 14.5 0 11Q1.1 8.1 2.75 6L5.4 7.5L5.4 3.4L5.95 3Q7.25 9.1 9.45 13Q11.3 16.25 14.15 18.65" />
<path style="fill:#38342F;fill-opacity:1" d="M14.15 18.65L15.05 18.2L18 16.85L21.1 15.6L26.35 14.15L29.1 13.5Q32.1 13.15 34.6 14.25Q35.3 14.55 35.3 15.25Q35.3 15.85 34.75 16.55L31.65 19.25L28.25 21.7Q28.3 21.1 27.45 20.4Q26.55 19.7 26.45 19.15Q26.35 18.6 24.05 18.75Q20.8 18.85 18.3 20.25Q14 22.65 12.35 25.6Q11.05 27.95 11.75 28.4Q12.4 28.8 9.65 30.05Q6.85 31.25 4.75 30.65Q2.6 30.05 3.85 27.9Q4.65 26.45 7.35 23.95Q10.8 20.25 14.15 18.65" />
<path style="fill:none;stroke-width:0.7;stroke-linecap:round;stroke-linejoin:miter;stroke-miterlimit:5;stroke:#000000;stroke-opacity:0.301961" d="M7.35 23.95Q4.65 26.45 3.85 27.9Q2.6 30.05 4.75 30.65Q6.85 31.25 9.65 30.05Q12.4 28.8 11.75 28.4Q11.05 27.95 12.35 25.6Q14 22.65 18.3 20.25Q20.8 18.85 24.05 18.75Q26.35 18.6 26.45 19.15Q26.55 19.7 27.45 20.4Q28.3 21.1 28.25 21.7L31.65 19.25L34.75 16.55Q35.3 15.85 35.3 15.25Q35.3 14.55 34.6 14.25Q32.1 13.15 29.1 13.5L26.35 14.15L21.1 15.6L18 16.85L15.05 18.2L14.15 18.65Q10.8 20.25 7.35 23.95L6.75 21.5Q6 18.85 5.35 17.7Q3.6 14.5 0 11Q1.1 8.1 2.75 6L5.4 7.5L5.4 3.4L5.95 3Q9 0.8 11.7 0.4L15.65 0L19.3 0.15Q19.25 3.9 21.2 7.45Q22.8 10.4 26.35 14.15" />
</g>
</svg>
