<?xml version="1.0" encoding="utf-8"?>
<svg version="1.1" id="Layer_1"
xmlns="http://www.w3.org/2000/svg"
xmlns:xlink="http://www.w3.org/1999/xlink"
width="9px" height="7px"
xml:space="preserve">
<g id="PathID_1558" transform="matrix(1, 0, 0, 1, 0.15, 0.15)">
<path style="fill:#808080;fill-opacity:1" d="M7.15 3.75Q5.95 3.35 5.6 2.7L4.5 3.5L4.7 2.9L2.6 1.9L4.9 2.3Q5.35 2.3 5.55 2.6Q6.15 1 8.15 0.4L8.5 1.55Q8.25 3.2 7.15 3.75M2.6 1.9L3.8 3.45Q2.75 3.95 1.7 4.05Q0.6 3.5 0.05 2.55Q0.25 1.25 1.15 0Q3.1 0.55 4.9 2.3L4.7 2.9" />
<path style="fill:#4F4943;fill-opacity:1" d="M1.7 4.05Q2.75 3.95 3.8 3.45L2.6 1.9L4.7 2.9L4.5 3.5L5.6 2.7Q5.95 3.35 7.15 3.75Q8.25 3.2 8.5 1.55Q8.8 3.35 7.8 4.75Q6.45 4.75 5.6 3.45L4.5 3.5Q3.45 5.3 0.7 5.85Q-0.2 4.2 0.05 2.55Q0.6 3.5 1.7 4.05M5.6 3.45L5.6 2.7L5.6 3.45" />
<path style="fill:none;stroke-width:0.7;stroke-linecap:round;stroke-linejoin:round;stroke-miterlimit:3;stroke:#000000;stroke-opacity:0.301961" d="M8.5 1.55L8.15 0.4Q6.15 1 5.55 2.6Q5.35 2.3 4.9 2.3L4.7 2.9L4.5 3.5" />
<path style="fill:none;stroke-width:0.7;stroke-linecap:round;stroke-linejoin:round;stroke-miterlimit:3;stroke:#000000;stroke-opacity:0.301961" d="M8.5 1.55Q8.8 3.35 7.8 4.75Q6.45 4.75 5.6 3.45L4.5 3.5Q3.45 5.3 0.7 5.85Q-0.2 4.2 0.05 2.55Q0.25 1.25 1.15 0Q3.1 0.55 4.9 2.3" />
<path style="fill:none;stroke-width:0.7;stroke-linecap:round;stroke-linejoin:round;stroke-miterlimit:3;stroke:#000000;stroke-opacity:0.301961" d="M5.6 2.7L5.6 3.45" />
</g>
</svg>
