<?xml version="1.0" encoding="utf-8"?>
<svg version="1.1" id="Layer_1"
xmlns="http://www.w3.org/2000/svg"
xmlns:xlink="http://www.w3.org/1999/xlink"
width="27px" height="20px"
xml:space="preserve">
<g id="PathID_3079" transform="matrix(1, 0, 0, 1, 12.15, 12.1)">
<radialGradient
id="RadialGradID_974" gradientUnits="userSpaceOnUse" gradientTransform="matrix(0.0126038, 0, 0, 0.0113373, 14.2, 6.4)" spreadMethod ="pad" cx="0" cy="0" r="819.2" fx="0" fy="0" >
<stop  offset="0"  style="stop-color:#FCFEFF;stop-opacity:0.537255" />
<stop  offset="0.921569"  style="stop-color:#FFFFFF;stop-opacity:0" />
</radialGradient>
<path style="fill:url(#RadialGradID_974) " d="M4.45 7.7Q4.95 0 13.45 -5.6L13.7 2.25Q14 4.5 11.15 5.65Q8.25 6.85 4.45 7.7" />
<radialGradient
id="RadialGradID_975" gradientUnits="userSpaceOnUse" gradientTransform="matrix(-0.0126038, 0, 0, 0.0113373, -12, 6.1)" spreadMethod ="pad" cx="0" cy="0" r="819.2" fx="0" fy="0" >
<stop  offset="0"  style="stop-color:#FCFEFF;stop-opacity:0.537255" />
<stop  offset="0.921569"  style="stop-color:#FFFFFF;stop-opacity:0" />
</radialGradient>
<path style="fill:url(#RadialGradID_975) " d="M-8.95 5Q-11.8 4.2 -11.5 1.95L-11.25 -5.9Q-2.75 -0.3 -2.05 6.8L-8.95 5" />
</g>
<g id="PathID_3080" transform="matrix(1, 0, 0, 1, 12.15, 12.1)">
<radialGradient
id="RadialGradID_976" gradientUnits="userSpaceOnUse" gradientTransform="matrix(0.00640869, 0, 0, 0.00891113, 9, -0.8)" spreadMethod ="pad" cx="0" cy="0" r="819.2" fx="0" fy="0" >
<stop  offset="0"  style="stop-color:#FCFEFF;stop-opacity:0.537255" />
<stop  offset="0.921569"  style="stop-color:#FFFFFF;stop-opacity:0" />
</radialGradient>
<path style="fill:url(#RadialGradID_976) " d="M9 -7.6Q11.2 -7.6 12.8 -5.65Q14.4 -3.65 14.4 -0.8Q14.4 1.9 12.8 3.9Q11.2 5.9 9 5.9Q6.75 5.9 5.15 3.9Q3.6 1.9 3.6 -0.95Q3.6 -3.65 5.15 -5.65Q6.75 -7.6 9 -7.6" />
</g>
<g id="PathID_3081" transform="matrix(1, 0, 0, 1, 12.15, 12.1)">
<radialGradient
id="RadialGradID_977" gradientUnits="userSpaceOnUse" gradientTransform="matrix(-0.00584412, 0.00204468, -0.00756836, -0.0017395, 1.7, -9.95)" spreadMethod ="pad" cx="0" cy="0" r="819.2" fx="0" fy="0" >
<stop  offset="0"  style="stop-color:#FCFEFF;stop-opacity:0.537255" />
<stop  offset="0.921569"  style="stop-color:#FFFFFF;stop-opacity:0" />
</radialGradient>
<path style="fill:url(#RadialGradID_977) " d="M9.35 -10.2Q9.55 -9.3 7.55 -8.6Q5.55 -7.9 2.35 -7.8L-3.2 -8.2Q-5.55 -8.75 -5.75 -9.65Q-6 -10.55 -4 -11.25Q-1.95 -11.95 1.2 -12.1L6.8 -11.65Q9.05 -11.1 9.35 -10.2" />
</g>
<g id="PathID_3082" transform="matrix(1, 0, 0, 1, 12.15, 12.1)">
<path style="fill:#FFFFFF;fill-opacity:0.478431" d="M4.25 -3.15Q4.05 -6 3.6 -6.85Q1.8 -6 1.35 -2.95Q1.5 -5.15 0.1 -6.9Q-2.05 -8 -2.95 -0.15Q-3.15 -8 -4.55 -7.25Q-5.95 -6.55 -7 2.4Q-6.6 -3.8 -7 -6.25Q-8 -8.05 -9.4 -3.4Q-9.45 -7.85 -9.9 -7.9Q-11.6 -6.35 -12.15 -2.05L-12.15 -8.55L-9.6 -9.75L3.05 -7.45L13.2 -10.35Q14.05 -9.5 14.1 -8.35L14.1 -3.65Q13.5 -7.6 12.5 -8.6Q10.95 -7.75 11.25 2.35Q10.75 -7.05 9.95 -7.55Q9.1 -8.05 8.55 -3.2Q8.55 -7.4 8.05 -7.7Q6.8 -7.15 6.7 0.15Q6.45 -5.95 5.9 -6.5Q4.5 -6.9 4.25 -3.15" />
</g>
</svg>
