<?xml version="1.0" encoding="utf-8"?>
<svg version="1.1" id="Layer_1"
xmlns="http://www.w3.org/2000/svg"
xmlns:xlink="http://www.w3.org/1999/xlink"
width="6px" height="5px"
xml:space="preserve">
<g id="PathID_287" transform="matrix(1, 0, 0, 1, 6.2, -10.25)">
<path style="fill:#F7D1CE;fill-opacity:1" d="M-1.65 11.7L-1.4 11.8L-1.3 12.05L-1.35 12.3L-1.6 12.35L-1.8 12.25L-1.95 12L-1.85 11.75L-1.65 11.7" />
<radialGradient
id="RadialGradID_102" gradientUnits="userSpaceOnUse" gradientTransform="matrix(0.0087738, -0.000701904, 0.000320435, 0.00411987, -2.85, 13.45)" spreadMethod ="pad" cx="0" cy="0" r="819.2" fx="0" fy="0" >
<stop  offset="0.164706"  style="stop-color:#FFFFFF;stop-opacity:0.2" />
<stop  offset="0.298039"  style="stop-color:#FFFFFF;stop-opacity:0" />
<stop  offset="1"  style="stop-color:#FFFFFF;stop-opacity:0" />
</radialGradient>
<path style="fill:url(#RadialGradID_102) " d="M-5.45 11.95Q-5.55 11.95 -5.7 12.1L-5.85 12.5L-5.8 13L-5.55 13.15L-5.3 13.05L-5.15 12.6L-5.2 12.15L-5.45 11.95M-6.15 13.2L-6.05 12.35Q-5.75 11.15 -4.9 10.85L-3.1 10.9Q-2.85 10.55 -2.4 10.55L-1.95 10.55Q-1.45 10.6 -1.1 10.8L-0.85 11.15Q-0.4 12.05 -0.55 13.05Q-1.55 14.4 -3.3 14.55Q-5.1 14.7 -6.1 13.5L-6.15 13.4L-6.15 13.2M-4.45 11.6Q-4.5 11 -5.05 11.2Q-5.4 11.45 -5.2 11.75L-4.35 12.05L-2.6 11.75Q-2 11.3 -1.95 10.9Q-1.95 10.6 -2.2 10.9L-2.8 11.4L-4.45 11.6M-2.1 12L-2.2 11.85L-2.35 11.85L-2.5 11.85L-2.5 12L-2.4 12.1L-2.3 12.2L-2.15 12.15L-2.1 12M-1.85 11.75L-1.95 12L-1.8 12.25L-1.6 12.35L-1.35 12.3L-1.3 12.05L-1.4 11.8L-1.65 11.7L-1.85 11.75" />
<path style="fill:#FFFFFF;fill-opacity:0.8" d="M-5.2 12.15L-5.15 12.6L-5.3 13.05L-5.55 13.15L-5.8 13L-5.85 12.5L-5.7 12.1Q-5.55 11.95 -5.45 11.95L-5.2 12.15M-1.95 10.55L-2.4 10.55Q-2.85 10.55 -3.1 10.9L-4.9 10.85Q-5.75 11.15 -6.05 12.35L-6.15 13.2L-6.15 12.3Q-6 11 -5.15 10.65Q-4.35 10.25 -3.35 10.65Q-3.15 10.35 -2.7 10.25Q-1.65 10.25 -1.1 10.8Q-1.45 10.6 -1.95 10.55M-2.15 12.15L-2.3 12.2L-2.4 12.1L-2.5 12L-2.5 11.85L-2.35 11.85L-2.2 11.85L-2.1 12L-2.15 12.15" />
<path style="fill:#FFFFFF;fill-opacity:0.501961" d="M-2.8 11.4L-2.2 10.9Q-1.95 10.6 -1.95 10.9Q-2 11.3 -2.6 11.75L-4.35 12.05L-5.2 11.75Q-5.4 11.45 -5.05 11.2Q-4.5 11 -4.45 11.6L-2.8 11.4" />
</g>
</svg>
