<?xml version="1.0" encoding="utf-8"?>
<svg version="1.1" id="Layer_1"
xmlns="http://www.w3.org/2000/svg"
xmlns:xlink="http://www.w3.org/1999/xlink"
width="5px" height="4px"
xml:space="preserve">
<g id="PathID_22" transform="matrix(1, 0, 0, 1, 0.1, 0.1)">
<path style="fill:#808080;fill-opacity:1" d="M2.3 1.1L1.45 1.05Q0.95 1.05 0.95 1.4L1.25 1.9L1.7 2.3Q2.1 2.3 2.5 1.9L2.8 1.2Q3 1.8 3.5 2.05L3.1 2.45L1.95 3.4L0.7 2.5Q0 1.85 0 0.85Q0 0 0.9 0Q1.55 0 2.1 0.6L2.1 0.65L2.15 0.65L2.35 0.45Q2.7 0.15 2.95 0.15L3.6 0.4L3.8 0.6Q3.2 0.35 2.8 1.15L2.3 1.1" />
<path style="fill:#E1DBD4;fill-opacity:1" d="M2.8 1.2L2.8 1.15Q3.2 0.35 3.8 0.6L3.9 0.95Q3.9 1.55 3.5 2.05Q3 1.8 2.8 1.2" />
<path style="fill:none;stroke-width:0.7;stroke-linecap:round;stroke-linejoin:round;stroke-miterlimit:3;stroke:#000000;stroke-opacity:0.498039" d="M2.15 0.65L2.35 0.45Q2.7 0.15 2.95 0.15L3.6 0.4L3.8 0.6L3.9 0.95Q3.9 1.55 3.5 2.05L3.1 2.45L1.95 3.4L0.7 2.5Q0 1.85 0 0.85Q0 0 0.9 0Q1.55 0 2.1 0.6L2.15 0.65L2.1 0.65L2.1 0.6" />
<path style="fill:none;stroke-width:0.7;stroke-linecap:round;stroke-linejoin:round;stroke-miterlimit:3;stroke:#000000;stroke-opacity:0.498039" d="M2.8 1.15L2.8 1.2" />
<path style="fill:none;stroke-width:0.7;stroke-linecap:round;stroke-linejoin:round;stroke-miterlimit:3;stroke:#000000;stroke-opacity:0.498039" d="M2.8 1.2L2.5 1.9Q2.1 2.3 1.7 2.3L1.25 1.9L0.95 1.4Q0.95 1.05 1.45 1.05L2.3 1.1L2.8 1.15" />
</g>
</svg>
