<?xml version="1.0" encoding="utf-8"?>
<svg version="1.1" id="Layer_1"
xmlns="http://www.w3.org/2000/svg"
xmlns:xlink="http://www.w3.org/1999/xlink"
width="16px" height="16px"
xml:space="preserve">
<g id="PathID_17" transform="matrix(1, 0, 0, 1, 1.25, 10.35)">
<path style="fill:none;stroke-width:0.7;stroke-linecap:round;stroke-linejoin:round;stroke-miterlimit:3;stroke:#000000;stroke-opacity:0.4" d="M11.2 -8.85Q13.65 -7 13.85 -4.3Q14 -1.75 12.2 0.6Q12.9 2.3 11.65 3.1Q10.65 3.85 9 3.1Q7.35 6.1 4.8 5.15L1.55 4.05L0.75 3.7Q-0.45 2.9 0.45 1Q-1.4 0.45 -1.1 -1Q-1.05 -1.95 -0.1 -2.35Q-0.3 -6.55 3.6 -9.2Q7.25 -11.45 11.2 -8.85z" />
<path style="fill:none;stroke-width:0.7;stroke-linecap:round;stroke-linejoin:round;stroke-miterlimit:3;stroke:#000000;stroke-opacity:0.4" d="M12.2 0.6L11.75 0" />
<path style="fill:none;stroke-width:0.7;stroke-linecap:round;stroke-linejoin:round;stroke-miterlimit:3;stroke:#000000;stroke-opacity:0.4" d="M4.8 5.15Q4.5 4 5.5 3.1" />
<path style="fill:none;stroke-width:0.7;stroke-linecap:round;stroke-linejoin:round;stroke-miterlimit:3;stroke:#000000;stroke-opacity:0.4" d="M0.75 3.7Q0.65 2.6 1.3 1.6" />
<path style="fill:none;stroke-width:0.7;stroke-linecap:round;stroke-linejoin:round;stroke-miterlimit:3;stroke:#000000;stroke-opacity:0.4" d="M-0.1 -2.35L0.45 -2.5" />
</g>
</svg>
