<?xml version="1.0" encoding="utf-8"?>
<svg version="1.1" id="Layer_1"
xmlns="http://www.w3.org/2000/svg"
xmlns:xlink="http://www.w3.org/1999/xlink"
width="5px" height="8px"
xml:space="preserve">
<g id="PathID_97" transform="matrix(1, 0, 0, 1, 0.1, 0.1)">
<path style="fill:#808080;fill-opacity:1" d="M3.25 4.3L2.7 4.65L2.15 4.75L1.8 4.7L2.35 4.15L2.2 4.1L2.75 4L3.3 3.25L2.75 4L2.2 4.1Q1.8 3.95 1.75 3.55L2 3.15L1.7 3.15L1.55 2.9L1.55 2.7L1.55 2.65L1.65 1.1L1.55 2.65L1.55 2.7L1.4 2.55L1.25 1.8L1.4 0.85L1.95 0Q1.9 1.15 3 2.3L3.8 3.4L3.25 4.3M2.15 1.85L2.1 2.35L1.55 2.65L2.1 2.35L2.15 1.85" />
<path style="fill:#58544F;fill-opacity:1" d="M1.05 4L0.7 3.45L1.05 4L1.45 4.45L1.45 4.15L1.55 2.9L1.45 4.15L1.45 4.45Q1.8 4.15 2.2 4.1L2.35 4.15L1.8 4.7L2.15 4.75L2.7 4.65L3.25 4.3L3.8 3.4L3.95 4.15Q3.95 5.1 3.55 5.65L2.55 6.8L2.5 6.85Q2.25 6.95 0.85 5.85Q0.05 5.2 0 4.05L0.2 3.3L0.65 2.05L1.4 0.85L1.25 1.8L1.4 2.55L1.55 2.7L1.55 2.9L1.7 3.15L2 3.15L1.75 3.55Q1.8 3.95 2.2 4.1Q1.8 4.15 1.45 4.45L1.05 4M1.25 1.8L1.2 2.2L1.4 2.55L1.2 2.2L1.25 1.8M2.55 6.8L1.6 5.3L1.45 4.45L1.6 5.3L2.55 6.8M1.6 5.3Q1.2 5.2 1.1 5.1L0.9 4.9L1.1 5.1Q1.2 5.2 1.6 5.3" />
<path style="fill:none;stroke-width:0.7;stroke-linecap:round;stroke-linejoin:round;stroke-miterlimit:3;stroke:#000000;stroke-opacity:0.4" d="M1.4 0.85L1.95 0Q1.9 1.15 3 2.3L3.8 3.4L3.95 4.15Q3.95 5.1 3.55 5.65L2.55 6.8L2.5 6.85Q2.25 6.95 0.85 5.85Q0.05 5.2 0 4.05L0.2 3.3L0.65 2.05L1.4 0.85z" />
<path style="fill:none;stroke-width:0.7;stroke-linecap:round;stroke-linejoin:round;stroke-miterlimit:3;stroke:#4A4843;stroke-opacity:0.4" d="M1.4 2.55L1.55 2.7L1.55 2.65L1.65 1.1" />
<path style="fill:none;stroke-width:0.7;stroke-linecap:round;stroke-linejoin:round;stroke-miterlimit:3;stroke:#4A4843;stroke-opacity:0.4" d="M1.4 2.55L1.2 2.2L1.25 1.8" />
<path style="fill:none;stroke-width:0.7;stroke-linecap:round;stroke-linejoin:round;stroke-miterlimit:3;stroke:#4A4843;stroke-opacity:0.4" d="M1.55 2.65L2.1 2.35L2.15 1.85" />
<path style="fill:none;stroke-width:0.7;stroke-linecap:round;stroke-linejoin:round;stroke-miterlimit:3;stroke:#4A4843;stroke-opacity:0.4" d="M1.55 2.9L1.55 2.7" />
<path style="fill:none;stroke-width:0.7;stroke-linecap:round;stroke-linejoin:round;stroke-miterlimit:3;stroke:#4A4843;stroke-opacity:0.4" d="M1.55 2.9L1.45 4.15L1.45 4.45Q1.8 4.15 2.2 4.1L2.75 4L3.3 3.25" />
<path style="fill:none;stroke-width:0.7;stroke-linecap:round;stroke-linejoin:round;stroke-miterlimit:3;stroke:#4A4843;stroke-opacity:0.4" d="M0.7 3.45L1.05 4L1.45 4.45L1.6 5.3L2.55 6.8" />
<path style="fill:none;stroke-width:0.7;stroke-linecap:round;stroke-linejoin:round;stroke-miterlimit:3;stroke:#4A4843;stroke-opacity:0.4" d="M0.9 4.9L1.1 5.1Q1.2 5.2 1.6 5.3" />
</g>
</svg>
