<?xml version="1.0" encoding="utf-8"?>
<svg version="1.1" id="Layer_1"
xmlns="http://www.w3.org/2000/svg"
xmlns:xlink="http://www.w3.org/1999/xlink"
width="17px" height="6px"
xml:space="preserve">
<g id="PathID_556" transform="matrix(1, 0, 0, 1, 0, 0)">
<path style="fill:#808080;fill-opacity:0.301961" d="M0 3.85L0 3.75Q0 2.65 0.25 1.65L4.5 1.25L7.6 1.1Q8.45 2.95 8 4.9Q4.15 6 0.25 5.4L0.05 3.85L0 3.85" />
</g>
<g id="PathID_557" transform="matrix(1, 0, 0, 1, 0, 0)">
<path style="fill:#808080;fill-opacity:0.301961" d="M16.05 2.95Q15.7 3.2 15.25 3.3L13.7 3.85L12.55 2.9L11.9 2.5L11.9 2.4L12.1 0.25L15.8 0L16.15 0.4L16.25 1.8L16.05 2.95" />
</g>
</svg>
