<?xml version="1.0" encoding="utf-8"?>
<svg version="1.1" id="Layer_1"
xmlns="http://www.w3.org/2000/svg"
xmlns:xlink="http://www.w3.org/1999/xlink"
width="8px" height="7px"
xml:space="preserve">
<g id="PathID_318" transform="matrix(1, 0, 0, 1, 0, 0)">
<path style="fill:#808080;fill-opacity:1" d="M6.65 4L4.5 3.2L2.65 3.1Q1.8 4.15 3.1 4.85L7.05 4.55Q4.7 6 3.4 6.4L1.15 6.95Q0.55 5.95 0.85 5.25Q1.15 4.5 0.5 3.85Q-0.15 3.2 0.2 2.1Q0.4 1.25 0 0Q3.75 2.7 6.65 4" />
<path style="fill:#4F4943;fill-opacity:1" d="M3.1 4.85Q1.8 4.15 2.65 3.1L4.5 3.2L6.65 4L7.4 4.35L7.05 4.55L3.1 4.85" />
<path style="fill:none;stroke-width:0.7;stroke-linecap:round;stroke-linejoin:round;stroke-miterlimit:3;stroke:#000000;stroke-opacity:0.4" d="M7.05 4.55L7.4 4.35" />
<path style="fill:none;stroke-width:0.7;stroke-linecap:round;stroke-linejoin:round;stroke-miterlimit:3;stroke:#000000;stroke-opacity:0.4" d="M7.05 4.55Q4.7 6 3.4 6.4L1.15 6.95" />
</g>
</svg>
