<?xml version="1.0" encoding="utf-8"?>
<svg version="1.1" id="Layer_1"
xmlns="http://www.w3.org/2000/svg"
xmlns:xlink="http://www.w3.org/1999/xlink"
width="5px" height="8px"
xml:space="preserve">
<g id="PathID_3116" transform="matrix(1, 0, 0, 1, 0.15, 0.15)">
<path style="fill:#C2C2C2;fill-opacity:1" d="M0.75 5.45Q0.75 5 1.3 5.05Q1.55 5.05 1.55 5.4L0.9 5.75L0.75 5.45" />
<path style="fill:#808080;fill-opacity:1" d="M1.9 5L3.2 5.15L3.3 5.4L2.85 6.35L2 6.7Q1.35 6.7 0.9 6.35Q0.35 6.05 0.35 5.45L0.5 4.9L1.9 5M0.9 5.75L1.55 5.4Q1.55 5.05 1.3 5.05Q0.75 5 0.75 5.45L0.9 5.75M3.4 6.75L3.05 7.1L2.85 7.05L3.05 6.8L3.4 6.5L3.4 6.75" />
<path style="fill:#56524F;fill-opacity:1" d="M3.25 5.2Q3.75 5.7 3.75 6.35L3.3 7.4L2.45 7.35L0.5 7.4Q0 6.85 0 6.15Q0 5.45 0.3 5.1L0.5 4.9L0.35 5.45Q0.35 6.05 0.9 6.35Q1.35 6.7 2 6.7L2.85 6.35L3.3 5.4L3.2 5.15L3.25 5.2M3.4 6.5L3.05 6.8L2.85 7.05L3.05 7.1L3.4 6.75L3.4 6.5" />
<path style="fill:none;stroke-width:0.7;stroke-linecap:round;stroke-linejoin:round;stroke-miterlimit:3;stroke:#000000;stroke-opacity:0.301961" d="M3.2 5.15L1.9 5L0.5 4.9L0.3 5.1Q0 5.45 0 6.15Q0 6.85 0.5 7.4L2.45 7.35L3.3 7.4L3.75 6.35Q3.75 5.7 3.25 5.2L3.2 5.15z" />
<path style="fill:none;stroke-width:0.7;stroke-linecap:round;stroke-linejoin:round;stroke-miterlimit:3;stroke:#000000;stroke-opacity:0.301961" d="M1.9 5Q2.05 1.5 3.8 0" />
</g>
</svg>
