<?xml version="1.0" encoding="utf-8"?>
<svg version="1.1" id="Layer_1"
xmlns="http://www.w3.org/2000/svg"
xmlns:xlink="http://www.w3.org/1999/xlink"
width="19px" height="14px"
xml:space="preserve">
<g id="PathID_3090" transform="matrix(1, 0, 0, 1, 0.15, 0.15)">
<path style="fill:#808080;fill-opacity:1" d="M12.65 2.35Q10.25 2.9 9.55 3.35Q10.25 2.9 12.65 2.35Q16.15 2 17.9 2.75Q18.4 3.2 18.45 3.95Q16.25 3.2 13.55 3.3Q10.2 3.85 7.2 5.65Q4.9 5.9 8.3 3.8Q3.45 5.65 4.55 3.75Q11.6 -1 15.95 0.25Q16.6 0.4 17.45 1.65Q15.15 1.4 12.65 2.35" />
<path style="fill:#4F4943;fill-opacity:1" d="M17.45 1.65L17.9 2.75Q16.15 2 12.65 2.35Q15.15 1.4 17.45 1.65M18.45 3.95L18.35 4.75L11.85 4.55Q10.55 4.8 7.85 5.9Q6.8 6.45 5.5 7.6Q3 9.85 2.05 12.9Q0.7 11.65 0.95 10Q2.9 7.15 5.55 5.85Q-0.35 10.5 0.15 8.25Q1.2 6.75 2.4 5.6L4.55 3.75Q3.45 5.65 8.3 3.8Q4.9 5.9 7.2 5.65Q10.2 3.85 13.55 3.3Q16.25 3.2 18.45 3.95M5.55 5.85Q2.9 7.15 0.95 10" />
<path style="fill:none;stroke-width:0.7;stroke-linecap:round;stroke-linejoin:round;stroke-miterlimit:3;stroke:#000000;stroke-opacity:0.298039" d="M4.55 3.75Q11.6 -1 15.95 0.25Q16.6 0.4 17.45 1.65L17.9 2.75Q18.4 3.2 18.45 3.95L18.35 4.75L11.85 4.55Q10.55 4.8 7.85 5.9Q6.8 6.45 5.5 7.6Q3 9.85 2.05 12.9Q0.7 11.65 0.95 10Q-0.35 10.5 0.15 8.25Q1.2 6.75 2.4 5.6L4.55 3.75z" />
<path style="fill:none;stroke-width:0.7;stroke-linecap:round;stroke-linejoin:round;stroke-miterlimit:3;stroke:#000000;stroke-opacity:0.298039" d="M17.9 2.75Q16.15 2 12.65 2.35Q10.25 2.9 9.55 3.35" />
<path style="fill:none;stroke-width:0.7;stroke-linecap:round;stroke-linejoin:round;stroke-miterlimit:3;stroke:#000000;stroke-opacity:0.298039" d="M0.95 10Q2.9 7.15 5.55 5.85" />
</g>
</svg>
