<?xml version="1.0" encoding="utf-8"?>
<svg version="1.1" id="Layer_1"
xmlns="http://www.w3.org/2000/svg"
xmlns:xlink="http://www.w3.org/1999/xlink"
width="14px" height="9px"
xml:space="preserve">
<g id="PathID_3755" transform="matrix(1, 0, 0, 1, -1.2, -1.6)">
<path style="fill:#FCFCFC;fill-opacity:1" d="M12.85 3.55L11.3 4.25L10.95 3.7L10.9 3.65L12.75 2.9L13.45 2.45Q12.9 2.05 12 2.05L11.25 2.2L10.85 2.4Q11.1 1.9 11.5 1.8L12 1.75L12.55 1.7L13.5 2.4L13.75 2.65L13.85 2.8L14.05 3.05L12.85 3.55M10.15 4.1L10.45 4.6L8.7 5.35L8.45 4.9L9.65 4.55L10 4.2Q9.9 4 9.5 3.9L9.1 3.85L8.15 4.45L8.85 3.8L9.9 3.7L10.1 4.05L10.15 4.1M8 5.05L8.25 5.5L7.45 5.9L7.25 5.5Q7.9 5.55 8 5.05M6.15 6.6L5.4 7.05L5.15 6.6L5.9 6.15L6.15 6.6" />
<path style="fill:#C7C7C7;fill-opacity:1" d="M10.6 3.3L10.85 2.4L11.25 2.2L12 2.05Q12.9 2.05 13.45 2.45L12.75 2.9L10.9 3.65L10.6 3.3M11.75 5.15L11.55 4.65Q11.85 4.25 12.45 4Q13.15 3.6 14.35 3.5L14.55 4.1Q14.25 4.9 13.6 5.25L12.5 5.4L11.75 5.15M5.15 6.6L5.1 6.55L4.75 6Q4.95 5.5 5.55 5.65L5.9 6.1L5.9 6.15L5.15 6.6M8 5.05Q7.9 5.55 7.25 5.5L7.2 5.45L6.95 5.1Q7.15 4.6 7.75 4.7L8 5.05M9.05 6.75L8.85 5.75L9.15 5.5Q9.6 5.15 10.05 5.1L10.6 5.05L10.8 5.7L9.95 6.4Q9.35 6.8 9.05 6.75M8.15 4.45L9.1 3.85L9.5 3.9Q9.9 4 10 4.2L9.65 4.55L8.45 4.9L8.15 4.45M7.85 7.2L7.65 6.3L8 6L8.25 5.5L8.4 5.85L8.6 6.65L7.85 7.2M6.4 7.6L5.7 8.35L5.55 7.45L6.15 6.6L6.25 6.85L6.4 7.6" />
<path style="fill:#999999;fill-opacity:1" d="M10.7 4.15L10.15 4.1L10.1 4.05L9.9 3.7L10.6 3.3L10.9 3.65L10.95 3.7L10.7 4.15M5.1 6.55Q4.25 7.25 2.25 8.05L1.65 7.3L4.75 6L5.1 6.55M7.2 5.45Q6.8 6.3 5.9 6.1L5.55 5.65L6.95 5.1L7.2 5.45M8.45 4.9L8 5.05L7.75 4.7L8.15 4.45L8.45 4.9" />
<path style="fill:#A6A6A6;fill-opacity:1" d="M11.4 4.4Q10.5 4.45 10.55 4.85L10.45 4.6L10.15 4.1L10.7 4.15L10.95 3.7L11.3 4.25L11.4 4.4M7.6 6.2L6.25 6.85L6.15 6.6L5.9 6.15L5.9 6.1Q6.8 6.3 7.2 5.45L7.25 5.5L7.45 5.9L7.6 6.2M8.8 5.65L8.4 5.85L8.25 5.5L8 5.05L8.45 4.9L8.7 5.35L8.8 5.65M5.1 6.55L5.15 6.6L5.4 7.05L5.5 7.2Q4.4 7.25 2.55 8.55L2.25 8.05Q4.25 7.25 5.1 6.55" />
<path style="fill:#828282;fill-opacity:1" d="M12.45 4Q11.85 4.25 11.55 4.65L11.4 4.4L11.3 4.25L12.85 3.55L14.05 3.05L14.35 3.5Q13.15 3.6 12.45 4M10.05 5.1Q9.6 5.15 9.15 5.5L8.85 5.75L8.8 5.65L8.7 5.35L10.45 4.6L10.55 4.85L10.6 5.05L10.05 5.1M7.45 5.9L8.25 5.5L8 6L7.65 6.3L7.6 6.2L7.45 5.9M6.15 6.6L5.55 7.45L5.5 7.2L5.4 7.05L6.15 6.6" />
<path style="fill:#6B6B6B;fill-opacity:1" d="M10.8 5.7L10.6 5.05L10.55 4.85Q10.5 4.45 11.4 4.4L11.55 4.65L11.75 5.15L11.95 6.05L11.45 6.3L10.8 6.45L10.8 5.7M8.6 6.65L8.4 5.85L8.8 5.65L8.85 5.75L9.05 6.75L9.05 7.25L8.65 7.4L8.6 6.65M6.4 7.6L6.25 6.85L7.6 6.2L7.65 6.3L7.85 7.2L7.85 7.8L6.45 8.4L6.4 7.6M5.5 7.2L5.55 7.45L5.7 8.35L5.7 8.55L5.65 8.8L2.75 10.05Q2.85 9.3 2.55 8.6L2.55 8.55Q4.4 7.25 5.5 7.2" />
<path style="fill:#9C9C9C;fill-opacity:1" d="M12.5 5.4L13.6 5.25Q14.25 4.9 14.55 4.1L14.7 5.6L14 6.2L11.95 6.05L11.75 5.15L12.5 5.4M9.95 6.4L10.8 5.7L10.8 6.45Q10.85 7.2 10.1 7.35L9.05 7.25L9.05 6.75Q9.35 6.8 9.95 6.4M7.85 7.2L8.6 6.65L8.65 7.4Q8.35 8 7.85 7.8L7.85 7.2M6.45 8.4Q6.25 8.8 5.65 8.8L5.7 8.55L5.7 8.35L6.4 7.6L6.45 8.4" />
<path style="fill:#454545;fill-opacity:1" d="M2.25 8.05L2.55 8.55L2.55 8.6Q2.85 9.3 2.75 10.05Q2.05 10.25 1.55 9.1L1.3 8.3Q1.2 7.65 1.65 7.3L2.25 8.05" />
<path style="fill:none;stroke-width:0.7;stroke-linecap:round;stroke-linejoin:round;stroke-miterlimit:3;stroke:#000000;stroke-opacity:0.4" d="M14.05 3.05L13.85 2.8L13.75 2.65L13.5 2.4L12.55 1.7L12 1.75L11.5 1.8Q11.1 1.9 10.85 2.4" />
<path style="fill:none;stroke-width:0.7;stroke-linecap:round;stroke-linejoin:round;stroke-miterlimit:3;stroke:#000000;stroke-opacity:0.4" d="M10.9 3.65L10.95 3.7L11.3 4.25" />
<path style="fill:none;stroke-width:0.7;stroke-linecap:round;stroke-linejoin:round;stroke-miterlimit:3;stroke:#000000;stroke-opacity:0.4" d="M14.05 3.05L14.35 3.5L14.55 4.1L14.7 5.6L14 6.2L11.95 6.05L11.45 6.3L10.8 6.45Q10.85 7.2 10.1 7.35L9.05 7.25L8.65 7.4Q8.35 8 7.85 7.8L6.45 8.4Q6.25 8.8 5.65 8.8L2.75 10.05Q2.05 10.25 1.55 9.1L1.3 8.3Q1.2 7.65 1.65 7.3L4.75 6Q4.95 5.5 5.55 5.65L6.95 5.1Q7.15 4.6 7.75 4.7L8.15 4.45L8.85 3.8L9.9 3.7L10.6 3.3L10.85 2.4" />
<path style="fill:none;stroke-width:0.7;stroke-linecap:round;stroke-linejoin:round;stroke-miterlimit:3;stroke:#000000;stroke-opacity:0.4" d="M10.9 3.65L10.6 3.3" />
<path style="fill:none;stroke-width:0.7;stroke-linecap:round;stroke-linejoin:round;stroke-miterlimit:3;stroke:#000000;stroke-opacity:0.4" d="M10.15 4.1L10.45 4.6L10.55 4.85" />
<path style="fill:none;stroke-width:0.7;stroke-linecap:round;stroke-linejoin:round;stroke-miterlimit:3;stroke:#000000;stroke-opacity:0.4" d="M11.4 4.4L11.3 4.25" />
<path style="fill:none;stroke-width:0.7;stroke-linecap:round;stroke-linejoin:round;stroke-miterlimit:3;stroke:#000000;stroke-opacity:0.4" d="M10.6 5.05L10.55 4.85" />
<path style="fill:none;stroke-width:0.7;stroke-linecap:round;stroke-linejoin:round;stroke-miterlimit:3;stroke:#000000;stroke-opacity:0.4" d="M10.6 5.05L10.8 5.7L10.8 6.45" />
<path style="fill:none;stroke-width:0.7;stroke-linecap:round;stroke-linejoin:round;stroke-miterlimit:3;stroke:#000000;stroke-opacity:0.4" d="M11.95 6.05L11.75 5.15L11.55 4.65L11.4 4.4" />
<path style="fill:none;stroke-width:0.7;stroke-linecap:round;stroke-linejoin:round;stroke-miterlimit:3;stroke:#000000;stroke-opacity:0.4" d="M5.55 5.65L5.9 6.1" />
<path style="fill:none;stroke-width:0.7;stroke-linecap:round;stroke-linejoin:round;stroke-miterlimit:3;stroke:#000000;stroke-opacity:0.4" d="M7.2 5.45L6.95 5.1" />
<path style="fill:none;stroke-width:0.7;stroke-linecap:round;stroke-linejoin:round;stroke-miterlimit:3;stroke:#000000;stroke-opacity:0.4" d="M7.25 5.5L7.45 5.9" />
<path style="fill:none;stroke-width:0.7;stroke-linecap:round;stroke-linejoin:round;stroke-miterlimit:3;stroke:#000000;stroke-opacity:0.4" d="M8.25 5.5L8 5.05" />
<path style="fill:none;stroke-width:0.7;stroke-linecap:round;stroke-linejoin:round;stroke-miterlimit:3;stroke:#000000;stroke-opacity:0.4" d="M7.25 5.5L7.2 5.45" />
<path style="fill:none;stroke-width:0.7;stroke-linecap:round;stroke-linejoin:round;stroke-miterlimit:3;stroke:#000000;stroke-opacity:0.4" d="M5.9 6.15L5.9 6.1" />
<path style="fill:none;stroke-width:0.7;stroke-linecap:round;stroke-linejoin:round;stroke-miterlimit:3;stroke:#000000;stroke-opacity:0.4" d="M9.9 3.7L10.1 4.05L10.15 4.1" />
<path style="fill:none;stroke-width:0.7;stroke-linecap:round;stroke-linejoin:round;stroke-miterlimit:3;stroke:#000000;stroke-opacity:0.4" d="M8.45 4.9L8.7 5.35" />
<path style="fill:none;stroke-width:0.7;stroke-linecap:round;stroke-linejoin:round;stroke-miterlimit:3;stroke:#000000;stroke-opacity:0.4" d="M7.75 4.7L8 5.05" />
<path style="fill:none;stroke-width:0.7;stroke-linecap:round;stroke-linejoin:round;stroke-miterlimit:3;stroke:#000000;stroke-opacity:0.4" d="M8.45 4.9L8.15 4.45" />
<path style="fill:none;stroke-width:0.7;stroke-linecap:round;stroke-linejoin:round;stroke-miterlimit:3;stroke:#000000;stroke-opacity:0.4" d="M8.4 5.85L8.6 6.65L8.65 7.4" />
<path style="fill:none;stroke-width:0.7;stroke-linecap:round;stroke-linejoin:round;stroke-miterlimit:3;stroke:#000000;stroke-opacity:0.4" d="M8.85 5.75L8.8 5.65L8.7 5.35" />
<path style="fill:none;stroke-width:0.7;stroke-linecap:round;stroke-linejoin:round;stroke-miterlimit:3;stroke:#000000;stroke-opacity:0.4" d="M8.4 5.85L8.25 5.5" />
<path style="fill:none;stroke-width:0.7;stroke-linecap:round;stroke-linejoin:round;stroke-miterlimit:3;stroke:#000000;stroke-opacity:0.4" d="M7.65 6.3L7.85 7.2" />
<path style="fill:none;stroke-width:0.7;stroke-linecap:round;stroke-linejoin:round;stroke-miterlimit:3;stroke:#000000;stroke-opacity:0.4" d="M2.75 10.05Q2.85 9.3 2.55 8.6" />
<path style="fill:none;stroke-width:0.7;stroke-linecap:round;stroke-linejoin:round;stroke-miterlimit:3;stroke:#000000;stroke-opacity:0.4" d="M2.55 8.55L2.25 8.05L1.65 7.3" />
<path style="fill:none;stroke-width:0.7;stroke-linecap:round;stroke-linejoin:round;stroke-miterlimit:3;stroke:#000000;stroke-opacity:0.4" d="M9.05 7.25L9.05 6.75L8.85 5.75" />
<path style="fill:none;stroke-width:0.7;stroke-linecap:round;stroke-linejoin:round;stroke-miterlimit:3;stroke:#000000;stroke-opacity:0.4" d="M7.6 6.2L7.65 6.3" />
<path style="fill:none;stroke-width:0.7;stroke-linecap:round;stroke-linejoin:round;stroke-miterlimit:3;stroke:#000000;stroke-opacity:0.4" d="M7.85 7.2L7.85 7.8" />
<path style="fill:none;stroke-width:0.7;stroke-linecap:round;stroke-linejoin:round;stroke-miterlimit:3;stroke:#000000;stroke-opacity:0.4" d="M5.4 7.05L5.5 7.2L5.55 7.45" />
<path style="fill:none;stroke-width:0.7;stroke-linecap:round;stroke-linejoin:round;stroke-miterlimit:3;stroke:#000000;stroke-opacity:0.4" d="M5.4 7.05L5.15 6.6L5.1 6.55" />
<path style="fill:none;stroke-width:0.7;stroke-linecap:round;stroke-linejoin:round;stroke-miterlimit:3;stroke:#000000;stroke-opacity:0.4" d="M6.15 6.6L6.25 6.85" />
<path style="fill:none;stroke-width:0.7;stroke-linecap:round;stroke-linejoin:round;stroke-miterlimit:3;stroke:#000000;stroke-opacity:0.4" d="M7.6 6.2L7.45 5.9" />
<path style="fill:none;stroke-width:0.7;stroke-linecap:round;stroke-linejoin:round;stroke-miterlimit:3;stroke:#000000;stroke-opacity:0.4" d="M5.65 8.8L5.7 8.55" />
<path style="fill:none;stroke-width:0.7;stroke-linecap:round;stroke-linejoin:round;stroke-miterlimit:3;stroke:#000000;stroke-opacity:0.4" d="M5.7 8.35L5.55 7.45" />
<path style="fill:none;stroke-width:0.7;stroke-linecap:round;stroke-linejoin:round;stroke-miterlimit:3;stroke:#000000;stroke-opacity:0.4" d="M6.4 7.6L6.25 6.85" />
<path style="fill:none;stroke-width:0.7;stroke-linecap:round;stroke-linejoin:round;stroke-miterlimit:3;stroke:#000000;stroke-opacity:0.4" d="M6.45 8.4L6.4 7.6" />
<path style="fill:none;stroke-width:0.7;stroke-linecap:round;stroke-linejoin:round;stroke-miterlimit:3;stroke:#000000;stroke-opacity:0.4" d="M5.9 6.15L6.15 6.6" />
<path style="fill:none;stroke-width:0.7;stroke-linecap:round;stroke-linejoin:round;stroke-miterlimit:3;stroke:#000000;stroke-opacity:0.4" d="M4.75 6L5.1 6.55" />
</g>
</svg>
