<?xml version="1.0" encoding="utf-8"?>
<svg version="1.1" id="Layer_1"
xmlns="http://www.w3.org/2000/svg"
xmlns:xlink="http://www.w3.org/1999/xlink"
width="33px" height="28px"
xml:space="preserve">
<g id="PathID_2138" transform="matrix(1, 0, 0, 1, 0.15, 0.15)">
<path style="fill:#848484;fill-opacity:1" d="M0.4 19.65Q5.3 18.85 3.6 22.15L1.9 22.2L2.05 21.3Q1.95 20.35 0.4 19.65M0 21.4Q1.15 20.25 2.05 21.3L1.9 22.2L0 21.4M4.8 25.4L5 24.8L4.8 25.4L4.6 26.05L3.55 25.1L2.9 23.6L3.8 23.35Q4.6 23.7 5 24.8Q5.85 23.75 6.9 23.85Q6.85 23.45 7.25 23.2L8.15 22.9L8.55 22.1L9.25 21.6Q9.5 22.6 8.55 23.35L8.15 22.9Q8 24.35 7.15 24.55L6.9 23.85Q6.35 25.8 4.8 25.4" />
<path style="fill:#5D5552;fill-opacity:1" d="M7.15 24.55L7.45 25.3L5.8 25.95L4.6 26.05L4.8 25.4Q6.35 25.8 6.9 23.85L7.15 24.55Q8 24.35 8.15 22.9L8.55 23.35L9 23.85L9.1 23.85L11.2 22.65L9.1 23.85L9 23.85L8.55 23.35Q9.5 22.6 9.25 21.6L10.05 21.3Q11.1 21.7 11.2 22.65L12.05 22.8Q12.4 23.1 11.8 24.2Q11.15 25.3 9.65 25.05L9.4 25.4Q8.4 26.7 6.85 26.35L6.65 27Q5 27.95 3.15 26.25L3.35 25.35L2.85 25.4Q1.8 24.3 1.9 23.6L2.9 23.6L3.55 25.1L4.6 26.05L5.8 25.95L7.45 25.3L7.15 24.55M6.85 26.35L5.8 25.95L6.85 26.35M3.55 25.1L3.35 25.35L3.55 25.1M9.1 23.85L9.65 25.05L9.1 23.85M7.45 25.3Q8.45 25 9 23.85Q8.45 25 7.45 25.3" />
<path style="fill:none;stroke-width:0.7;stroke-linecap:round;stroke-linejoin:round;stroke-miterlimit:3;stroke:#000000;stroke-opacity:0.301961" d="M1.9 22.2L2.05 21.3" />
<path style="fill:none;stroke-width:0.7;stroke-linecap:round;stroke-linejoin:round;stroke-miterlimit:3;stroke:#000000;stroke-opacity:0.301961" d="M2.05 21.3Q1.15 20.25 0 21.4L1.9 22.2" />
<path style="fill:none;stroke-width:0.7;stroke-linecap:round;stroke-linejoin:round;stroke-miterlimit:3;stroke:#000000;stroke-opacity:0.301961" d="M3.6 22.15Q5.3 18.85 0.4 19.65Q1.95 20.35 2.05 21.3" />
<path style="fill:none;stroke-width:0.7;stroke-linecap:round;stroke-linejoin:round;stroke-miterlimit:3;stroke:#000000;stroke-opacity:0.301961" d="M3.8 23.35Q4.6 23.7 5 24.8Q5.85 23.75 6.9 23.85Q6.85 23.45 7.25 23.2L8.15 22.9L8.55 22.1L9.25 21.6L10.05 21.3Q11.1 21.7 11.2 22.65L12.05 22.8Q12.4 23.1 11.8 24.2Q11.15 25.3 9.65 25.05L9.4 25.4Q8.4 26.7 6.85 26.35L6.65 27Q5 27.95 3.15 26.25L3.35 25.35L2.85 25.4Q1.8 24.3 1.9 23.6" />
<path style="fill:none;stroke-width:0.7;stroke-linecap:round;stroke-linejoin:round;stroke-miterlimit:3;stroke:#000000;stroke-opacity:0.301961" d="M6.9 23.85L7.15 24.55" />
<path style="fill:none;stroke-width:0.7;stroke-linecap:round;stroke-linejoin:round;stroke-miterlimit:3;stroke:#000000;stroke-opacity:0.301961" d="M8.15 22.9L8.55 23.35" />
<path style="fill:none;stroke-width:0.7;stroke-linecap:round;stroke-linejoin:round;stroke-miterlimit:3;stroke:#000000;stroke-opacity:0.301961" d="M8.55 23.35L9 23.85L9.1 23.85L11.2 22.65" />
<path style="fill:none;stroke-width:0.7;stroke-linecap:round;stroke-linejoin:round;stroke-miterlimit:3;stroke:#000000;stroke-opacity:0.301961" d="M4.6 26.05L5.8 25.95L7.45 25.3L7.15 24.55" />
<path style="fill:none;stroke-width:0.7;stroke-linecap:round;stroke-linejoin:round;stroke-miterlimit:3;stroke:#000000;stroke-opacity:0.301961" d="M5.8 25.95L6.85 26.35" />
<path style="fill:none;stroke-width:0.7;stroke-linecap:round;stroke-linejoin:round;stroke-miterlimit:3;stroke:#000000;stroke-opacity:0.301961" d="M3.35 25.35L3.55 25.1L2.9 23.6" />
<path style="fill:none;stroke-width:0.7;stroke-linecap:round;stroke-linejoin:round;stroke-miterlimit:3;stroke:#000000;stroke-opacity:0.301961" d="M4.8 25.4L4.6 26.05L3.55 25.1" />
<path style="fill:none;stroke-width:0.7;stroke-linecap:round;stroke-linejoin:round;stroke-miterlimit:3;stroke:#000000;stroke-opacity:0.301961" d="M5 24.8L4.8 25.4" />
<path style="fill:none;stroke-width:0.7;stroke-linecap:round;stroke-linejoin:round;stroke-miterlimit:3;stroke:#000000;stroke-opacity:0.301961" d="M9.65 25.05L9.1 23.85" />
<path style="fill:none;stroke-width:0.7;stroke-linecap:round;stroke-linejoin:round;stroke-miterlimit:3;stroke:#000000;stroke-opacity:0.301961" d="M9 23.85Q8.45 25 7.45 25.3" />
</g>
<g id="PathID_2139" transform="matrix(1, 0, 0, 1, 0.15, 0.15)">
<radialGradient
id="RadialGradID_669" gradientUnits="userSpaceOnUse" gradientTransform="matrix(0.0109253, 0, 0, 0.00959778, 19.65, 4)" spreadMethod ="pad" cx="0" cy="0" r="819.2" fx="0" fy="0" >
<stop  offset="0"  style="stop-color:#AAAAAA;stop-opacity:1" />
<stop  offset="0.992157"  style="stop-color:#808080;stop-opacity:1" />
</radialGradient>
<path style="fill:url(#RadialGradID_669) " d="M20.2 3.25Q22.1 3.2 24.05 4.1L25.15 4.75Q27.5 6.25 28.1 8.65L24.05 4.75Q23.55 4.8 23.1 5Q19.7 4.15 20.2 3.25M28.1 8.65Q22.05 8.8 18.5 10.6L16.35 10.6Q16.6 9.3 17.75 8.35L15.6 10Q14.1 9.5 13.05 8.2L11.35 10L12.3 7.8L11.3 6.85Q13.4 3.85 16.95 3.7L17.6 3.7Q20.1 4.4 18.65 5.05Q16.2 6.05 15 8.6Q16.2 6.05 18.65 5.05Q19.45 4.75 20.4 4.6Q21.2 4.25 21.2 5.2Q20.25 5.35 19.35 6.25L18.8 6.85L19.35 6.25Q20.6 5.55 22.15 5.6L23.7 6.65Q22.3 5.4 24.05 4.75L25.15 4.75" />
<path style="fill:#5D5552;fill-opacity:1" d="M21.2 5.2L22.15 5.6Q20.6 5.55 19.35 6.25Q20.25 5.35 21.2 5.2Q21.2 4.25 20.4 4.6Q19.15 3.75 17.6 3.7Q19.15 3.75 20.4 4.6Q19.45 4.75 18.65 5.05Q20.1 4.4 17.6 3.7L20.2 3.25Q19.7 4.15 23.1 5Q23.55 4.8 24.05 4.75Q22.3 5.4 23.7 6.65L22.15 5.6Q22.55 5.2 23.1 5Q22.55 5.2 22.15 5.6L21.2 5.2M18.5 10.6Q17.95 16.45 15.95 19.35Q15.25 20.35 13.6 21.4L12.55 21.75Q13.9 20.7 15 17.75L11.75 21.55Q11.5 20 12.1 17.75Q10.25 21.15 10.2 20.35L10.15 17.75Q8.45 19.85 8.35 15.9Q8.25 11.3 11.3 6.85L12.3 7.8L11.35 10L13.05 8.2Q14.1 9.5 15.6 10L17.75 8.35Q16.6 9.3 16.35 10.6L18.5 10.6M12.1 17.75Q12.6 15.8 13.65 13.45Q12.6 15.8 12.1 17.75Q11.5 20 11.75 21.55M15 17.75L16.4 12.4L15 17.75Q13.9 20.7 12.55 21.75M10.15 17.75Q10.3 14.45 12.1 10.1Q10.3 14.45 10.15 17.75L10.2 20.35" />
<path style="fill:#808080;fill-opacity:1" d="M19.5 0Q17.35 2.5 16.95 3.7Q15.55 0.85 19.5 0" />
<path style="fill:none;stroke-width:0.7;stroke-linecap:round;stroke-linejoin:round;stroke-miterlimit:3;stroke:#000000;stroke-opacity:0.2" d="M23.1 5Q23.55 4.8 24.05 4.75L25.15 4.75" />
<path style="fill:none;stroke-width:0.7;stroke-linecap:round;stroke-linejoin:round;stroke-miterlimit:3;stroke:#000000;stroke-opacity:0.301961" d="M25.15 4.75L24.05 4.1Q22.1 3.2 20.2 3.25" />
<path style="fill:none;stroke-width:0.7;stroke-linecap:round;stroke-linejoin:round;stroke-miterlimit:3;stroke:#000000;stroke-opacity:0.2" d="M23.1 5Q22.55 5.2 22.15 5.6L23.7 6.65" />
<path style="fill:none;stroke-width:0.7;stroke-linecap:round;stroke-linejoin:round;stroke-miterlimit:3;stroke:#000000;stroke-opacity:0.2" d="M20.4 4.6Q21.2 4.25 21.2 5.2L22.15 5.6" />
<path style="fill:none;stroke-width:0.7;stroke-linecap:round;stroke-linejoin:round;stroke-miterlimit:3;stroke:#000000;stroke-opacity:0.2" d="M19.35 6.25L18.8 6.85" />
<path style="fill:none;stroke-width:0.7;stroke-linecap:round;stroke-linejoin:round;stroke-miterlimit:3;stroke:#000000;stroke-opacity:0.301961" d="M25.15 4.75Q27.5 6.25 28.1 8.65Q22.05 8.8 18.5 10.6Q17.95 16.45 15.95 19.35Q15.25 20.35 13.6 21.4" />
<path style="fill:none;stroke-width:0.7;stroke-linecap:round;stroke-linejoin:round;stroke-miterlimit:3;stroke:#000000;stroke-opacity:0.301961" d="M10.2 20.35Q8.45 19.85 8.35 15.9Q8.25 11.3 11.3 6.85Q13.4 3.85 16.95 3.7Q15.55 0.85 19.5 0Q17.35 2.5 16.95 3.7L17.6 3.7L20.2 3.25" />
<path style="fill:none;stroke-width:0.7;stroke-linecap:round;stroke-linejoin:round;stroke-miterlimit:3;stroke:#000000;stroke-opacity:0.2" d="M18.65 5.05Q19.45 4.75 20.4 4.6Q19.15 3.75 17.6 3.7" />
<path style="fill:none;stroke-width:0.7;stroke-linecap:round;stroke-linejoin:round;stroke-miterlimit:3;stroke:#000000;stroke-opacity:0.2" d="M18.65 5.05Q16.2 6.05 15 8.6" />
<path style="fill:none;stroke-width:0.7;stroke-linecap:round;stroke-linejoin:round;stroke-miterlimit:3;stroke:#000000;stroke-opacity:0.2" d="M11.75 21.55Q11.5 20 12.1 17.75Q12.6 15.8 13.65 13.45" />
<path style="fill:none;stroke-width:0.7;stroke-linecap:round;stroke-linejoin:round;stroke-miterlimit:3;stroke:#000000;stroke-opacity:0.2" d="M12.55 21.75Q13.9 20.7 15 17.75L16.4 12.4" />
<path style="fill:none;stroke-width:0.7;stroke-linecap:round;stroke-linejoin:round;stroke-miterlimit:3;stroke:#000000;stroke-opacity:0.2" d="M10.2 20.35L10.15 17.75Q10.3 14.45 12.1 10.1" />
<path style="fill:none;stroke-width:0.7;stroke-linecap:round;stroke-linejoin:round;stroke-miterlimit:3;stroke:#000000;stroke-opacity:0.2" d="M21.2 5.2Q20.25 5.35 19.35 6.25" />
</g>
<g id="PathID_2140" transform="matrix(1, 0, 0, 1, 0.15, 0.15)">
<linearGradient
id="LinearGradID_670" gradientUnits="userSpaceOnUse" gradientTransform="matrix(0.000747681, 0.0014801, -0.00294495, 0.00158691, 24.3, 8.9)" spreadMethod ="pad" x1="-819.2" y1="0" x2="819.2" y2="0" >
<stop  offset="0.00392157" style="stop-color:#808080;stop-opacity:1" />
<stop  offset="0.992157" style="stop-color:#B1B1B1;stop-opacity:1" />
</linearGradient>
<path style="fill:url(#LinearGradID_670) " d="M20.55 8.1Q21.95 8.2 23.2 9.3Q21.95 8.2 20.55 8.1Q20.85 7.65 21.45 7.4Q22.05 7.2 22.85 7.85Q22.05 7.2 21.45 7.4Q21.75 6.9 22.4 6.65L23.7 6.5Q25.25 6.65 26.65 8Q25.25 6.65 23.7 6.5L24.75 6.4Q26.35 6.55 27.6 7.8Q26.35 6.55 24.75 6.4Q25.55 5.9 26.45 5.9L27.15 6.05Q28.3 6.45 29.9 7.75Q29.7 9.3 27.35 9.35L26.55 8.7L25.1 7.85L26.2 8.8Q25.75 10.6 22.95 10.3Q22.55 11.7 20 12.05Q18.95 11.2 17.55 10.55Q17.65 9.6 18.85 9.15Q19.2 8.4 20.55 8.1M21.3 10.35Q19.55 9 18.85 9.15Q19.55 9 21.3 10.35" />
<path style="fill:#B1B1B1;fill-opacity:1" d="M21.55 13.95Q20.9 12.85 20 12.05Q22.55 11.7 22.95 10.3Q25.75 10.6 26.2 8.8L24.55 12.2Q21.85 10.85 21.55 13.95M26.2 8.8L27.55 10.3Q25.85 9.9 24.9 11.6L22.95 10.3M31.1 9.1Q29 9.4 28.65 11L27.35 9.35Q29.7 9.3 29.9 7.75Q30.6 8.25 31.1 9.1" />
<path style="fill:#5D5552;fill-opacity:1" d="M24.9 11.6Q26.3 13.25 27.05 14.95L26.6 15.1L25.6 13.8L24.55 12.2L22.95 10.3L24.9 11.6M29.85 13.7L29 13.7Q28.65 11.9 27.55 10.3L26.2 8.8L25.1 7.85L26.55 8.7L27.35 9.35L28.65 11L29.85 13.7M23.2 12.55L24.95 14.15L24.35 14.5L23.2 12.55M29.75 11.15L31.3 12.85L30.6 13.05L29.75 11.15" />
<path style="fill:#848484;fill-opacity:1" d="M24.95 14.15L23.2 12.55L24.35 14.5Q23.65 15.2 22.2 15.6L21.55 13.95Q21.85 10.85 24.55 12.2L25.6 13.8L24.95 14.15M27.05 14.95Q26.3 13.25 24.9 11.6Q25.85 9.9 27.55 10.3Q28.65 11.9 29 13.7L28.45 14.15Q27.65 12 26.85 11L27.05 14.95M32 12.65L31.3 12.85L29.75 11.15L30.6 13.05L29.85 13.7L28.65 11Q29 9.4 31.1 9.1Q32 10.55 32 12.65M26.85 11Q27.65 12 28.45 14.15" />
<path style="fill:none;stroke-width:0.7;stroke-linecap:round;stroke-linejoin:round;stroke-miterlimit:3;stroke:#000000;stroke-opacity:0.301961" d="M27.15 6.05L26.45 5.9Q25.55 5.9 24.75 6.4" />
<path style="fill:none;stroke-width:0.7;stroke-linecap:round;stroke-linejoin:round;stroke-miterlimit:3;stroke:#000000;stroke-opacity:0.2" d="M24.75 6.4Q26.35 6.55 27.6 7.8" />
<path style="fill:none;stroke-width:0.7;stroke-linecap:round;stroke-linejoin:round;stroke-miterlimit:3;stroke:#000000;stroke-opacity:0.301961" d="M20 12.05Q20.9 12.85 21.55 13.95" />
<path style="fill:none;stroke-width:0.7;stroke-linecap:round;stroke-linejoin:round;stroke-miterlimit:3;stroke:#000000;stroke-opacity:0.2" d="M24.55 12.2L25.6 13.8" />
<path style="fill:none;stroke-width:0.7;stroke-linecap:round;stroke-linejoin:round;stroke-miterlimit:3;stroke:#000000;stroke-opacity:0.301961" d="M25.6 13.8L26.6 15.1L27.05 14.95" />
<path style="fill:none;stroke-width:0.7;stroke-linecap:round;stroke-linejoin:round;stroke-miterlimit:3;stroke:#000000;stroke-opacity:0.301961" d="M29.9 7.75Q28.3 6.45 27.15 6.05" />
<path style="fill:none;stroke-width:0.7;stroke-linecap:round;stroke-linejoin:round;stroke-miterlimit:3;stroke:#000000;stroke-opacity:0.301961" d="M23.7 6.5L22.4 6.65Q21.75 6.9 21.45 7.4" />
<path style="fill:none;stroke-width:0.7;stroke-linecap:round;stroke-linejoin:round;stroke-miterlimit:3;stroke:#000000;stroke-opacity:0.2" d="M21.45 7.4Q22.05 7.2 22.85 7.85" />
<path style="fill:none;stroke-width:0.7;stroke-linecap:round;stroke-linejoin:round;stroke-miterlimit:3;stroke:#000000;stroke-opacity:0.301961" d="M24.75 6.4L23.7 6.5" />
<path style="fill:none;stroke-width:0.7;stroke-linecap:round;stroke-linejoin:round;stroke-miterlimit:3;stroke:#000000;stroke-opacity:0.2" d="M23.7 6.5Q25.25 6.65 26.65 8" />
<path style="fill:none;stroke-width:0.7;stroke-linecap:round;stroke-linejoin:round;stroke-miterlimit:3;stroke:#000000;stroke-opacity:0.301961" d="M21.45 7.4Q20.85 7.65 20.55 8.1" />
<path style="fill:none;stroke-width:0.7;stroke-linecap:round;stroke-linejoin:round;stroke-miterlimit:3;stroke:#000000;stroke-opacity:0.2" d="M20.55 8.1Q21.95 8.2 23.2 9.3" />
<path style="fill:none;stroke-width:0.7;stroke-linecap:round;stroke-linejoin:round;stroke-miterlimit:3;stroke:#000000;stroke-opacity:0.301961" d="M31.1 9.1Q30.6 8.25 29.9 7.75" />
<path style="fill:none;stroke-width:0.7;stroke-linecap:round;stroke-linejoin:round;stroke-miterlimit:3;stroke:#000000;stroke-opacity:0.301961" d="M29 13.7L29.85 13.7" />
<path style="fill:none;stroke-width:0.7;stroke-linecap:round;stroke-linejoin:round;stroke-miterlimit:3;stroke:#000000;stroke-opacity:0.301961" d="M28.45 14.15L29 13.7" />
<path style="fill:none;stroke-width:0.7;stroke-linecap:round;stroke-linejoin:round;stroke-miterlimit:3;stroke:#000000;stroke-opacity:0.301961" d="M27.05 14.95L28.45 14.15" />
<path style="fill:none;stroke-width:0.7;stroke-linecap:round;stroke-linejoin:round;stroke-miterlimit:3;stroke:#000000;stroke-opacity:0.2" d="M28.45 14.15Q27.65 12 26.85 11" />
<path style="fill:none;stroke-width:0.7;stroke-linecap:round;stroke-linejoin:round;stroke-miterlimit:3;stroke:#000000;stroke-opacity:0.301961" d="M24.35 14.5L24.95 14.15" />
<path style="fill:none;stroke-width:0.7;stroke-linecap:round;stroke-linejoin:round;stroke-miterlimit:3;stroke:#000000;stroke-opacity:0.301961" d="M24.35 14.5Q23.65 15.2 22.2 15.6L21.55 13.95" />
<path style="fill:none;stroke-width:0.7;stroke-linecap:round;stroke-linejoin:round;stroke-miterlimit:3;stroke:#000000;stroke-opacity:0.301961" d="M24.95 14.15L25.6 13.8" />
<path style="fill:none;stroke-width:0.7;stroke-linecap:round;stroke-linejoin:round;stroke-miterlimit:3;stroke:#000000;stroke-opacity:0.301961" d="M31.3 12.85L32 12.65Q32 10.55 31.1 9.1" />
<path style="fill:none;stroke-width:0.7;stroke-linecap:round;stroke-linejoin:round;stroke-miterlimit:3;stroke:#000000;stroke-opacity:0.301961" d="M30.6 13.05L31.3 12.85" />
<path style="fill:none;stroke-width:0.7;stroke-linecap:round;stroke-linejoin:round;stroke-miterlimit:3;stroke:#000000;stroke-opacity:0.2" d="M29.75 11.15L30.6 13.05" />
<path style="fill:none;stroke-width:0.7;stroke-linecap:round;stroke-linejoin:round;stroke-miterlimit:3;stroke:#000000;stroke-opacity:0.301961" d="M30.6 13.05L29.85 13.7" />
<path style="fill:none;stroke-width:0.7;stroke-linecap:round;stroke-linejoin:round;stroke-miterlimit:3;stroke:#000000;stroke-opacity:0.301961" d="M17.55 10.55Q18.95 11.2 20 12.05" />
<path style="fill:none;stroke-width:0.7;stroke-linecap:round;stroke-linejoin:round;stroke-miterlimit:3;stroke:#000000;stroke-opacity:0.301961" d="M18.85 9.15Q17.65 9.6 17.55 10.55" />
<path style="fill:none;stroke-width:0.7;stroke-linecap:round;stroke-linejoin:round;stroke-miterlimit:3;stroke:#000000;stroke-opacity:0.301961" d="M20.55 8.1Q19.2 8.4 18.85 9.15" />
<path style="fill:none;stroke-width:0.7;stroke-linecap:round;stroke-linejoin:round;stroke-miterlimit:3;stroke:#000000;stroke-opacity:0.2" d="M18.85 9.15Q19.55 9 21.3 10.35" />
</g>
</svg>
