<?xml version="1.0" encoding="utf-8"?>
<svg version="1.1" id="Layer_1"
xmlns="http://www.w3.org/2000/svg"
xmlns:xlink="http://www.w3.org/1999/xlink"
width="26px" height="10px"
xml:space="preserve">
<g id="PathID_1501" transform="matrix(1, 0, 0, 1, 0, 0)">
<path style="fill:#808080;fill-opacity:1" d="M25.2 8.5L24.3 9.25L22.45 9.65Q21 9.75 18.65 8.85L18.25 8.75L22.05 9.25Q23.75 9.3 25.2 8.5M0 0L3.25 0.05Q7.35 0.25 9.4 1.4Q4.55 0.5 0.4 2.2Q-0.1 1.1 0 0M5.4 6.5Q7.8 3.85 10.1 3Q6.55 5.75 6 9.15L3.55 8.6L5.4 6.5" />
<path style="fill:none;stroke-width:0.7;stroke-linecap:round;stroke-linejoin:round;stroke-miterlimit:3;stroke:#000000;stroke-opacity:0.4" d="M25.2 8.5L24.3 9.25L22.45 9.65Q21 9.75 18.65 8.85L18.25 8.75" />
<path style="fill:none;stroke-width:0.7;stroke-linecap:round;stroke-linejoin:round;stroke-miterlimit:3;stroke:#000000;stroke-opacity:0.4" d="M9.4 1.4Q4.55 0.5 0.4 2.2Q-0.1 1.1 0 0" />
<path style="fill:none;stroke-width:0.7;stroke-linecap:round;stroke-linejoin:round;stroke-miterlimit:3;stroke:#000000;stroke-opacity:0.4" d="M3.55 8.6L6 9.15Q6.55 5.75 10.1 3" />
</g>
</svg>
