<?xml version="1.0" encoding="utf-8"?>
<svg version="1.1" id="Layer_1"
xmlns="http://www.w3.org/2000/svg"
xmlns:xlink="http://www.w3.org/1999/xlink"
width="23px" height="15px"
xml:space="preserve">
<g id="PathID_3422" transform="matrix(1, 0, 0, 1, 0.2, 0.15)">
<path style="fill:#808080;fill-opacity:1" d="M7.25 12.1Q6.45 10.9 6 8.85Q5 4.75 6.5 0.55L11.7 0.15Q16.5 0.7 19.75 7.4L20.05 8L18.9 9.15L15.5 10.5L18.5 11.6L13.6 12.55L8.45 13.4L4.6 13.85L7.25 12.1M13 3.45Q15.3 4.9 15.8 6.6Q15.3 4.9 13 3.45M8.45 12.1L8.45 13.4L8.45 12.1" />
<path style="fill:#4F4943;fill-opacity:1" d="M18.9 9.15L20.5 9.85L18.9 9.15L20.05 8L21.85 8.55Q21.8 9.3 21.1 10.1Q20.2 11 18.5 11.6L15.5 10.5L18.9 9.15M4.6 13.85Q1.15 14.7 0 12.8L1.5 10.4Q1.4 4.65 4.15 2Q4.95 1.2 6 0.75L6.5 0.55Q5 4.75 6 8.85Q6.45 10.9 7.25 12.1L4.6 13.85M5.25 7.55L5.25 8.8L5.25 7.55M3.65 5.5Q3.95 3.1 6 0.75Q3.95 3.1 3.65 5.5M2.1 13.65L3.35 11.75L2.1 13.65" />
<path style="fill:none;stroke-width:0.7;stroke-linecap:round;stroke-linejoin:miter;stroke-miterlimit:5;stroke:#000000;stroke-opacity:0.4" d="M20.05 8L21.85 8.55Q21.8 9.3 21.1 10.1Q20.2 11 18.5 11.6L13.6 12.55L8.45 13.4L4.6 13.85Q1.15 14.7 0 12.8L1.5 10.4Q1.4 4.65 4.15 2Q4.95 1.2 6 0.75L6.5 0.55L11.7 0.15Q16.5 0.7 19.75 7.4L20.05 8z" />
<path style="fill:none;stroke-width:0.7;stroke-linecap:round;stroke-linejoin:miter;stroke-miterlimit:5;stroke:#000000;stroke-opacity:0.152941" d="M18.9 9.15L20.5 9.85" />
<path style="fill:none;stroke-width:0.7;stroke-linecap:round;stroke-linejoin:miter;stroke-miterlimit:5;stroke:#000000;stroke-opacity:0.152941" d="M15.8 6.6Q15.3 4.9 13 3.45" />
<path style="fill:none;stroke-width:0.7;stroke-linecap:round;stroke-linejoin:miter;stroke-miterlimit:5;stroke:#000000;stroke-opacity:0.152941" d="M5.25 8.8L5.25 7.55" />
<path style="fill:none;stroke-width:0.7;stroke-linecap:round;stroke-linejoin:miter;stroke-miterlimit:5;stroke:#000000;stroke-opacity:0.152941" d="M6 0.75Q3.95 3.1 3.65 5.5" />
<path style="fill:none;stroke-width:0.7;stroke-linecap:round;stroke-linejoin:miter;stroke-miterlimit:5;stroke:#000000;stroke-opacity:0.152941" d="M3.35 11.75L2.1 13.65" />
<path style="fill:none;stroke-width:0.7;stroke-linecap:round;stroke-linejoin:miter;stroke-miterlimit:5;stroke:#000000;stroke-opacity:0.152941" d="M8.45 13.4L8.45 12.1" />
</g>
</svg>
