<?xml version="1.0" encoding="utf-8"?>
<svg version="1.1" id="Layer_1"
xmlns="http://www.w3.org/2000/svg"
xmlns:xlink="http://www.w3.org/1999/xlink"
width="9px" height="8px"
xml:space="preserve">
<g id="PathID_593" transform="matrix(1, 0, 0, 1, 4.2, 4)">
<linearGradient
id="LinearGradID_196" gradientUnits="userSpaceOnUse" gradientTransform="matrix(0.0085907, -0.00343323, -0.00350952, -0.00744629, 1.15, -0.85)" spreadMethod ="pad" x1="-819.2" y1="0" x2="819.2" y2="0" >
<stop  offset="0.278431" style="stop-color:#BFBFBF;stop-opacity:1" />
<stop  offset="0.858824" style="stop-color:#808080;stop-opacity:1" />
</linearGradient>
<path style="fill:url(#LinearGradID_196) " d="M2.65 -2.5Q3.5 -2.1 3.75 -2.3L3.65 -2.05L2.45 -2.3L1.45 -1.25Q2.75 -0.4 3.15 -0.6L3 -0.3L1.2 -0.95L0.65 -0.4Q1.5 0.3 2.6 0.6L2.5 0.8L0.25 0L-0.15 0.35Q0.55 1.3 1.7 1.9L1.55 2.1L-0.65 0.8L-0.9 1.1L1 2.5L0.9 2.55L-1.25 1.5L-1.5 1.7L0.2 2.75L-0.1 2.8L-1.85 1.95L-2.25 2.4L-1.25 3.1L-1.4 3.15L-2.55 2.75L-3.7 3.8L-4.15 3.95L-4.05 3.65L-3 2.25L-3.1 1.45L-3 1.05L-2.7 1.75L-2.4 1.35L-2.6 0.1L-2.45 -0.2Q-2.45 0.4 -2.05 0.95L-1.85 0.6L-2.15 -0.9L-2 -1.25L-1.5 0.2L-1.3 -0.15L-1.7 -1.75L-1.4 -2.25Q-1.25 -1.2 -0.7 -0.7L-0.3 -1L-0.65 -2.65L-0.45 -2.75L0.1 -1.3L0.65 -1.65L0.35 -3.1L0.55 -3.3L1 -1.85L2.25 -2.6L2 -3.7L2.2 -3.75L2.45 -2.75L4 -3.95L4.15 -3.9L2.65 -2.5" />
<path style="fill:#808080;fill-opacity:1" d="M4 -3.95L2.45 -2.75L2.2 -3.75L4 -3.95M2 -3.7L2.25 -2.6L1 -1.85L0.55 -3.3L2 -3.7M0.35 -3.1L0.65 -1.65L0.1 -1.3L-0.45 -2.75L0.35 -3.1M-0.65 -2.65L-0.3 -1L-0.7 -0.7Q-1.25 -1.2 -1.4 -2.25L-0.65 -2.65M-1.7 -1.75L-1.3 -0.15L-1.5 0.2L-2 -1.25L-1.7 -1.75M-2.15 -0.9L-1.85 0.6L-2.05 0.95Q-2.45 0.4 -2.45 -0.2L-2.15 -0.9M-2.6 0.1L-2.4 1.35L-2.7 1.75L-3 1.05L-2.6 0.1M-3.1 1.45L-3 2.25L-4.05 3.65L-3.1 1.45M-3.7 3.8L-2.55 2.75L-1.4 3.15L-3.7 3.8M-1.25 3.1L-2.25 2.4L-1.85 1.95L-0.1 2.8L-1.25 3.1M0.2 2.75L-1.5 1.7L-1.25 1.5L0.9 2.55L0.2 2.75M1 2.5L-0.9 1.1L-0.65 0.8L1.55 2.1L1 2.5M1.7 1.9Q0.55 1.3 -0.15 0.35L0.25 0L2.5 0.8L1.7 1.9M2.6 0.6Q1.5 0.3 0.65 -0.4L1.2 -0.95L3 -0.3L2.6 0.6M3.15 -0.6Q2.75 -0.4 1.45 -1.25L2.45 -2.3L3.65 -2.05L3.15 -0.6M3.75 -2.3Q3.5 -2.1 2.65 -2.5L4.15 -3.9L3.75 -2.3" />
<path style="fill:none;stroke-width:0.7;stroke-linecap:round;stroke-linejoin:round;stroke-miterlimit:3;stroke:#000000;stroke-opacity:0.4" d="M4.15 -3.9L4 -3.95" />
<path style="fill:none;stroke-width:0.7;stroke-linecap:round;stroke-linejoin:round;stroke-miterlimit:3;stroke:#000000;stroke-opacity:0.4" d="M2.2 -3.75L2 -3.7" />
<path style="fill:none;stroke-width:0.7;stroke-linecap:round;stroke-linejoin:round;stroke-miterlimit:3;stroke:#000000;stroke-opacity:0.4" d="M0.55 -3.3L0.35 -3.1" />
<path style="fill:none;stroke-width:0.7;stroke-linecap:round;stroke-linejoin:round;stroke-miterlimit:3;stroke:#000000;stroke-opacity:0.4" d="M-0.45 -2.75L-0.65 -2.65" />
<path style="fill:none;stroke-width:0.7;stroke-linecap:round;stroke-linejoin:round;stroke-miterlimit:3;stroke:#000000;stroke-opacity:0.4" d="M-1.4 -2.25L-1.7 -1.75" />
<path style="fill:none;stroke-width:0.7;stroke-linecap:round;stroke-linejoin:round;stroke-miterlimit:3;stroke:#000000;stroke-opacity:0.4" d="M-2 -1.25L-2.15 -0.9" />
<path style="fill:none;stroke-width:0.7;stroke-linecap:round;stroke-linejoin:round;stroke-miterlimit:3;stroke:#000000;stroke-opacity:0.4" d="M-2.45 -0.2L-2.6 0.1" />
<path style="fill:none;stroke-width:0.7;stroke-linecap:round;stroke-linejoin:round;stroke-miterlimit:3;stroke:#000000;stroke-opacity:0.4" d="M-3 1.05L-3.1 1.45" />
<path style="fill:none;stroke-width:0.7;stroke-linecap:round;stroke-linejoin:round;stroke-miterlimit:3;stroke:#000000;stroke-opacity:0.4" d="M-4.05 3.65L-4.15 3.95L-3.7 3.8" />
<path style="fill:none;stroke-width:0.7;stroke-linecap:round;stroke-linejoin:round;stroke-miterlimit:3;stroke:#000000;stroke-opacity:0.4" d="M-1.4 3.15L-1.25 3.1" />
<path style="fill:none;stroke-width:0.7;stroke-linecap:round;stroke-linejoin:round;stroke-miterlimit:3;stroke:#000000;stroke-opacity:0.4" d="M-0.1 2.8L0.2 2.75" />
<path style="fill:none;stroke-width:0.7;stroke-linecap:round;stroke-linejoin:round;stroke-miterlimit:3;stroke:#000000;stroke-opacity:0.4" d="M0.9 2.55L1 2.5" />
<path style="fill:none;stroke-width:0.7;stroke-linecap:round;stroke-linejoin:round;stroke-miterlimit:3;stroke:#000000;stroke-opacity:0.4" d="M1.55 2.1L1.7 1.9" />
<path style="fill:none;stroke-width:0.7;stroke-linecap:round;stroke-linejoin:round;stroke-miterlimit:3;stroke:#000000;stroke-opacity:0.4" d="M2.5 0.8L2.6 0.6" />
<path style="fill:none;stroke-width:0.7;stroke-linecap:round;stroke-linejoin:round;stroke-miterlimit:3;stroke:#000000;stroke-opacity:0.4" d="M3 -0.3L3.15 -0.6" />
<path style="fill:none;stroke-width:0.7;stroke-linecap:round;stroke-linejoin:round;stroke-miterlimit:3;stroke:#000000;stroke-opacity:0.4" d="M3.65 -2.05L3.75 -2.3" />
<path style="fill:none;stroke-width:0.7;stroke-linecap:round;stroke-linejoin:round;stroke-miterlimit:3;stroke:#000000;stroke-opacity:0.4" d="M4.15 -3.9L3.75 -2.3" />
<path style="fill:none;stroke-width:0.7;stroke-linecap:round;stroke-linejoin:round;stroke-miterlimit:3;stroke:#000000;stroke-opacity:0.4" d="M2 -3.7L0.55 -3.3" />
<path style="fill:none;stroke-width:0.7;stroke-linecap:round;stroke-linejoin:round;stroke-miterlimit:3;stroke:#000000;stroke-opacity:0.4" d="M3.15 -0.6L3.65 -2.05" />
<path style="fill:none;stroke-width:0.7;stroke-linecap:round;stroke-linejoin:round;stroke-miterlimit:3;stroke:#000000;stroke-opacity:0.4" d="M4 -3.95L2.2 -3.75" />
<path style="fill:none;stroke-width:0.7;stroke-linecap:round;stroke-linejoin:round;stroke-miterlimit:3;stroke:#000000;stroke-opacity:0.4" d="M0.2 2.75L0.9 2.55" />
<path style="fill:none;stroke-width:0.7;stroke-linecap:round;stroke-linejoin:round;stroke-miterlimit:3;stroke:#000000;stroke-opacity:0.4" d="M1 2.5L1.55 2.1" />
<path style="fill:none;stroke-width:0.7;stroke-linecap:round;stroke-linejoin:round;stroke-miterlimit:3;stroke:#000000;stroke-opacity:0.4" d="M1.7 1.9L2.5 0.8" />
<path style="fill:none;stroke-width:0.7;stroke-linecap:round;stroke-linejoin:round;stroke-miterlimit:3;stroke:#000000;stroke-opacity:0.4" d="M2.6 0.6L3 -0.3" />
<path style="fill:none;stroke-width:0.7;stroke-linecap:round;stroke-linejoin:round;stroke-miterlimit:3;stroke:#000000;stroke-opacity:0.4" d="M-2.15 -0.9L-2.45 -0.2" />
<path style="fill:none;stroke-width:0.7;stroke-linecap:round;stroke-linejoin:round;stroke-miterlimit:3;stroke:#000000;stroke-opacity:0.4" d="M-0.65 -2.65L-1.4 -2.25" />
<path style="fill:none;stroke-width:0.7;stroke-linecap:round;stroke-linejoin:round;stroke-miterlimit:3;stroke:#000000;stroke-opacity:0.4" d="M-1.7 -1.75L-2 -1.25" />
<path style="fill:none;stroke-width:0.7;stroke-linecap:round;stroke-linejoin:round;stroke-miterlimit:3;stroke:#000000;stroke-opacity:0.4" d="M-2.6 0.1L-3 1.05" />
<path style="fill:none;stroke-width:0.7;stroke-linecap:round;stroke-linejoin:round;stroke-miterlimit:3;stroke:#000000;stroke-opacity:0.4" d="M-1.25 3.1L-0.1 2.8" />
<path style="fill:none;stroke-width:0.7;stroke-linecap:round;stroke-linejoin:round;stroke-miterlimit:3;stroke:#000000;stroke-opacity:0.4" d="M-3.1 1.45L-4.05 3.65" />
<path style="fill:none;stroke-width:0.7;stroke-linecap:round;stroke-linejoin:round;stroke-miterlimit:3;stroke:#000000;stroke-opacity:0.4" d="M-3.7 3.8L-1.4 3.15" />
<path style="fill:none;stroke-width:0.7;stroke-linecap:round;stroke-linejoin:round;stroke-miterlimit:3;stroke:#000000;stroke-opacity:0.4" d="M0.35 -3.1L-0.45 -2.75" />
</g>
</svg>
