<?xml version="1.0" encoding="utf-8"?>
<svg version="1.1" id="Layer_1"
xmlns="http://www.w3.org/2000/svg"
xmlns:xlink="http://www.w3.org/1999/xlink"
width="18px" height="20px"
xml:space="preserve">
<g id="PathID_494" transform="matrix(1, 0, 0, 1, 0.25, 0.25)">
<path style="fill:#3F3B38;fill-opacity:1" d="M9.75 8.2L10.4 8.4L9.75 8.2Q10.15 6.45 9.75 4.5Q9.35 2.8 8.55 1.8L6.9 0.35Q8.7 0.5 10.15 2.05Q11.65 3.6 11.45 4.7L10.4 4.7L11.45 4.7L11.65 5.8L11.65 6.55L11.65 7.1L10.6 6.95L11.65 7.1Q11.15 10.5 9.3 11.8Q7.75 12.85 5.95 12.8Q4.15 12.7 3 11.85L5 12.3Q6.85 12.3 8.2 10.9L9.75 8.2M8.8 11.05L8.2 10.9L8.8 11.05" />
<path style="fill:#808080;fill-opacity:1" d="M8.2 10.9Q6.85 12.3 5 12.3L3 11.85L1.45 10.5Q0.5 9.3 0.15 7.8L0 6.15Q0 3.6 1.45 1.8Q2.5 0.5 4.25 0.05L6.9 0.35L8.55 1.8Q9.35 2.8 9.75 4.5Q10.15 6.45 9.75 8.2L8.2 10.9M3.55 2.9Q4.4 2.35 5.2 2.2L4.85 2.1Q3.05 1.85 2.05 3.2Q1.1 4.5 1.1 5.95Q1.1 7 1.65 8.2Q2.3 9.6 4 9.85L3.05 9Q2.05 7.8 2 6.1Q1.95 4 3.55 2.9" />
<path style="fill:#484441;fill-opacity:1" d="M2 6.1Q2.05 7.8 3.05 9L4 9.85Q2.3 9.6 1.65 8.2Q1.1 7 1.1 5.95Q1.1 4.5 2.05 3.2Q3.05 1.85 4.85 2.1L5.2 2.2Q4.4 2.35 3.55 2.9Q1.95 4 2 6.1" />
<path style="fill:none;stroke-width:0.7;stroke-linecap:round;stroke-linejoin:round;stroke-miterlimit:3;stroke:#000000;stroke-opacity:0.301961" d="M11.65 7.1L10.6 6.95" />
<path style="fill:none;stroke-width:0.7;stroke-linecap:round;stroke-linejoin:round;stroke-miterlimit:3;stroke:#000000;stroke-opacity:0.301961" d="M11.45 4.7L10.4 4.7" />
<path style="fill:none;stroke-width:0.7;stroke-linecap:round;stroke-linejoin:round;stroke-miterlimit:3;stroke:#000000;stroke-opacity:0.301961" d="M6.9 0.35Q8.7 0.5 10.15 2.05Q11.65 3.6 11.45 4.7L11.65 5.8L11.65 6.55L11.65 7.1Q11.15 10.5 9.3 11.8Q7.75 12.85 5.95 12.8Q4.15 12.7 3 11.85L1.45 10.5Q0.5 9.3 0.15 7.8L0 6.15Q0 3.6 1.45 1.8Q2.5 0.5 4.25 0.05L6.9 0.35L8.55 1.8Q9.35 2.8 9.75 4.5Q10.15 6.45 9.75 8.2" />
<path style="fill:none;stroke-width:0.7;stroke-linecap:round;stroke-linejoin:round;stroke-miterlimit:3;stroke:#000000;stroke-opacity:0.301961" d="M9.75 8.2L10.4 8.4" />
<path style="fill:none;stroke-width:0.7;stroke-linecap:round;stroke-linejoin:round;stroke-miterlimit:3;stroke:#000000;stroke-opacity:0.301961" d="M3 11.85L5 12.3Q6.85 12.3 8.2 10.9L9.75 8.2" />
<path style="fill:none;stroke-width:0.7;stroke-linecap:round;stroke-linejoin:round;stroke-miterlimit:3;stroke:#000000;stroke-opacity:0.301961" d="M8.2 10.9L8.8 11.05" />
</g>
<g id="PathID_495" transform="matrix(1, 0, 0, 1, 0.25, 0.25)">
<path style="fill:#3F3B38;fill-opacity:1" d="M5.75 14.1L5.1 14L5.25 12.75L5.75 12.4L6.7 12.3L6.5 14.1L6.15 14.15L5.4 15.8Q5.35 16.4 6 17.05Q6.7 17.75 7.55 17.65L9.75 16.7Q11.15 15.95 12.6 16.35L15.65 17.45Q16.8 17.9 17.55 19.25L15.8 18.05Q14.4 17.2 12.85 16.8Q11.25 16.3 9.9 17.15Q8.55 18 7.5 18.15Q6.5 18.25 5.6 17.35Q4.85 16.6 4.95 15.85L5.25 14.9Q5.45 14.3 5.75 14.1" />
</g>
</svg>
