<?xml version="1.0" encoding="utf-8"?>
<svg version="1.1" id="Layer_1"
xmlns="http://www.w3.org/2000/svg"
xmlns:xlink="http://www.w3.org/1999/xlink"
width="21px" height="13px"
xml:space="preserve">
<g id="PathID_2422" transform="matrix(1, 0, 0, 1, 0, 0)">
<path style="fill:#808080;fill-opacity:1" d="M7.75 3.15Q9.5 0.95 10.55 0.55L12.25 0.2L19.05 0.45Q18.9 1.5 18.9 2.5L18.95 3.1L12.3 2.85Q10.4 3.3 8.45 4.35L6.6 5.5Q6.6 4.6 7.75 3.15M7.6 8.95L6.85 8.25Q9.85 6.3 12.8 5.25L14.05 4.85Q17 4.25 19.65 5.2L20.1 6.3L13.2 6.55Q10.7 7.35 8 9.15L7.6 8.95" />
<path style="fill:#54504C;fill-opacity:1" d="M6.6 5.5Q2.95 8.1 1.45 9.5L0 7.05Q2.75 4.05 6.3 2.15Q8.4 1.05 10.55 0.55Q9.5 0.95 7.75 3.15Q6.6 4.6 6.6 5.5M8 9.15L6.55 10.1L3.25 12.5L2.65 11.45L6.85 8.25L7.6 8.95L8 9.15" />
</g>
</svg>
