<?xml version="1.0" encoding="utf-8"?>
<svg version="1.1" id="Layer_1"
xmlns="http://www.w3.org/2000/svg"
xmlns:xlink="http://www.w3.org/1999/xlink"
width="17px" height="15px"
xml:space="preserve">
<g id="PathID_1850" transform="matrix(1, 0, 0, 1, 0, 0)">
<path style="fill:#4F4943;fill-opacity:1" d="M4 10.4Q3.6 9.25 2.6 9.2Q2 9.15 1.05 10.75L0.25 12.1L1.15 8.4Q2.5 4.15 5.25 2.1Q10.3 -1.4 14.8 0.9Q16.6 3.35 16.05 5.7Q13.45 2.6 10 3.8Q6.15 5.1 4.6 8.8Q4.25 9.6 4.05 10.55L4 10.4" />
<path style="fill:#808080;fill-opacity:1" d="M4.05 10.55Q3.6 12.2 3.55 14.35L2.5 14.55L1.5 14.5L0.75 14.3L0 13.9L0.15 13L0.25 12.1L1.05 10.75Q2 9.15 2.6 9.2Q3.6 9.25 4 10.4L4.05 10.55" />
<path style="fill:none;stroke-width:0.7;stroke-linecap:round;stroke-linejoin:round;stroke-miterlimit:3;stroke:#000000;stroke-opacity:0.4" d="M0.25 12.1L1.15 8.4Q2.5 4.15 5.25 2.1Q10.3 -1.4 14.8 0.9Q16.6 3.35 16.05 5.7Q13.45 2.6 10 3.8Q6.15 5.1 4.6 8.8Q4.25 9.6 4.05 10.55Q3.6 12.2 3.55 14.35" />
<path style="fill:none;stroke-width:0.7;stroke-linecap:round;stroke-linejoin:round;stroke-miterlimit:3;stroke:#000000;stroke-opacity:0.4" d="M0 13.9L0.15 13" />
</g>
</svg>
