<?xml version="1.0" encoding="utf-8"?>
<svg version="1.1" id="Layer_1"
xmlns="http://www.w3.org/2000/svg"
xmlns:xlink="http://www.w3.org/1999/xlink"
width="31px" height="24px"
xml:space="preserve">
<g id="PathID_1710" transform="matrix(1, 0, 0, 1, 14.15, 19.55)">
<path style="fill:#FFFFFF;fill-opacity:1" d="M10.45 -14L10.4 -14.2Q10.4 -14.55 10.8 -14.45L10.9 -14.2L10.75 -14L10.45 -14M9.75 -18.75L9.8 -18.55L9.55 -18.3L9.35 -18.35L9.35 -18.8L9.75 -18.75M2.8 -19.1L2.7 -19.15Q2.7 -19.5 3.1 -19.55L3.15 -19.15L2.8 -19.1M14.05 -7.1L13.9 -7.3L14.05 -7.55L14.2 -7.2L14.05 -7.1M13.85 -4.6L13.55 -4.4L13.5 -4.75L13.6 -4.8L13.85 -4.6M-8.8 -18.7L-8.85 -18.45L-9.1 -18.5L-9.05 -18.8L-8.8 -18.7M-6 -17.9L-5.75 -18.2L-5.3 -18.1Q-5.3 -17.75 -5.55 -17.65L-5.95 -17.75L-6 -17.9M-8.95 3.2L-8.6 3.1L-8.55 3.15L-8.55 3.25L-8.75 3.6L-8.95 3.55L-8.95 3.2M-14.1 3.6L-14.15 3.25L-14.1 3.1L-13.95 3.1L-13.75 3.4L-13.9 3.65L-14.1 3.6M-11.5 3.45L-11.55 3.3L-11.4 3.1L-11.1 3.1L-11.1 3.45L-11.3 3.55L-11.5 3.45" />
</g>
<g id="PathID_1711" transform="matrix(1, 0, 0, 1, 14.15, 19.55)">
<path style="fill:#FFFFFF;fill-opacity:1" d="M16.35 -14.75L16.6 -14.8L16.8 -14.65L16.8 -14.35L16.55 -14.25Q16.2 -14.25 16.35 -14.75" />
</g>
</svg>
