<?xml version="1.0" encoding="utf-8"?>
<svg version="1.1" id="Layer_1"
xmlns="http://www.w3.org/2000/svg"
xmlns:xlink="http://www.w3.org/1999/xlink"
width="29px" height="20px"
xml:space="preserve">
<g id="PathID_329" transform="matrix(1, 0, 0, 1, 0, 0)">
<radialGradient
id="RadialGradID_108" gradientUnits="userSpaceOnUse" gradientTransform="matrix(0.0230103, 0.00393677, -0.00352478, 0.0205841, 14.5, 2.2)" spreadMethod ="pad" cx="0" cy="0" r="819.2" fx="0" fy="0" >
<stop  offset="0"  style="stop-color:#9C9C9C;stop-opacity:1" />
<stop  offset="1"  style="stop-color:#515151;stop-opacity:1" />
</radialGradient>
<path style="fill:url(#RadialGradID_108) " d="M20.8 4.7L23.6 7.45Q26.3 10.6 28.65 10.25Q25.95 10.75 24.35 8.9Q24.4 12.15 22.95 13.1Q24 10.8 23.3 9.7L21.8 6.9Q22.1 8.6 21.85 9.4Q21.35 6.85 20.5 5.85L19.6 5.3Q20.45 7.2 19.45 10.1Q19.8 8 19.55 6.4Q19.4 9.1 18.3 11.3Q18.85 7.45 17.95 6.25Q18.25 8.85 17.45 12.15Q17.5 9.5 16.85 7.85Q17.15 9.7 16.65 11.6Q16.3 7.35 15.3 5.85Q15.8 7.7 15.85 10.85Q15.1 8.65 13.95 7.35Q13.9 8.6 15.25 10.35Q12.95 8.4 11.75 6.65Q12.3 10.25 15.9 13.15Q14.35 12.55 14.05 12L14.7 13.5L13.05 11.55L13.75 13.5Q12.2 11.8 11.35 9.95Q11.7 11.6 13.05 13.45Q10.55 11 9.1 8.5Q9.7 12.65 12.1 15.65Q10.35 14.6 9.35 13.05L10.35 14.9L9.55 14.5L7.4 13.4Q9.65 14.8 10.3 16.6L8.45 14.65Q9.8 16.55 10.25 18.75Q8.95 15.95 7.45 14.4Q7.85 15.25 7.7 16.5Q6.8 14.05 5.8 13.4Q5.5 16.1 8.75 18.25Q6.05 17.2 4.3 15.1Q4.95 17.45 8.25 18.7L4.3 17.85L6.25 19.1L3.3 18.45L4.65 19.4L1.25 18.7L0 16.5L0.85 16.85Q0.35 16.3 0.35 15.25L1.05 16Q1 14 0.45 13.3Q1.35 13.7 1.7 15.15L2.85 12.65Q2.5 10.6 1.45 9.85Q2.8 10.3 3.35 12.15Q4.4 9.9 5.75 8.4Q5.85 5.95 5.15 4.45Q6.25 5.3 6.65 7.05Q7.35 5.35 7.2 3.75Q7.45 4.85 7.35 6.2L8.05 5.6Q8.7 3.25 10.35 1.35Q11.9 0.4 13.35 0.45Q14.3 0.05 15.05 0L14.25 0.9L15.2 0.55Q16.4 0.45 17.45 1Q18.45 0.85 19.55 1.5Q20.85 1.7 21.8 2.6L23.05 4.15L21.65 3.25L20.35 2.25Q19.55 1.7 18.6 2Q19.55 1.7 20.35 2.25L21.65 3.25Q22.5 4.25 22.75 5.5Q21.35 3.45 19.6 3.05L20.3 3.75L20.8 4.7M23.55 8.15L23.9 10.45L24.3 8.85L24.3 8.8L24.35 8.9L24.3 8.8L24.3 8.85L23.55 8.15M15.3 5.85L15.2 5.5L15.3 5.85M19.55 1.5L18.6 1.45L19.55 1.5M17.45 1Q16.95 1.05 16.6 1.25Q16.95 1.05 17.45 1M13.25 1.25L14.25 0.9L13.25 1.25M13.35 0.45L11.75 1.35L13.35 0.45M12.15 10.2L13.05 11.55L12.15 10.2M17.8 5.55L17.95 6.25L17.8 5.55M3.1 17.7L4.3 17.85L3.1 17.7M9.55 14.5Q8.2 13.15 7.7 11.9Q8.2 13.15 9.55 14.5M19.6 3.05Q7.3 0.85 1.65 17.8Q7.3 0.85 19.6 3.05" />
<path style="fill:none;stroke-width:0.7;stroke-linecap:round;stroke-linejoin:round;stroke-miterlimit:3;stroke:#000000;stroke-opacity:0.301961" d="M21.65 3.25L20.35 2.25Q19.55 1.7 18.6 2" />
<path style="fill:none;stroke-width:0.7;stroke-linecap:round;stroke-linejoin:round;stroke-miterlimit:3;stroke:#000000;stroke-opacity:0.301961" d="M20.8 4.7L23.6 7.45Q26.3 10.6 28.65 10.25Q25.95 10.75 24.35 8.9Q24.4 12.15 22.95 13.1Q24 10.8 23.3 9.7L21.8 6.9Q22.1 8.6 21.85 9.4Q21.35 6.85 20.5 5.85L19.6 5.3Q20.45 7.2 19.45 10.1Q19.8 8 19.55 6.4Q19.4 9.1 18.3 11.3Q18.85 7.45 17.95 6.25Q18.25 8.85 17.45 12.15Q17.5 9.5 16.85 7.85Q17.15 9.7 16.65 11.6Q16.3 7.35 15.3 5.85Q15.8 7.7 15.85 10.85Q15.1 8.65 13.95 7.35Q13.9 8.6 15.25 10.35Q12.95 8.4 11.75 6.65Q12.3 10.25 15.9 13.15Q14.35 12.55 14.05 12L14.7 13.5L13.05 11.55L13.75 13.5Q12.2 11.8 11.35 9.95Q11.7 11.6 13.05 13.45Q10.55 11 9.1 8.5Q9.7 12.65 12.1 15.65Q10.35 14.6 9.35 13.05L10.35 14.9L9.55 14.5L7.4 13.4Q9.65 14.8 10.3 16.6L8.45 14.65Q9.8 16.55 10.25 18.75Q8.95 15.95 7.45 14.4Q7.85 15.25 7.7 16.5Q6.8 14.05 5.8 13.4Q5.5 16.1 8.75 18.25Q6.05 17.2 4.3 15.1Q4.95 17.45 8.25 18.7L4.3 17.85L6.25 19.1L3.3 18.45L4.65 19.4L1.25 18.7L0 16.5L0.85 16.85Q0.35 16.3 0.35 15.25L1.05 16Q1 14 0.45 13.3Q1.35 13.7 1.7 15.15L2.85 12.65Q2.5 10.6 1.45 9.85Q2.8 10.3 3.35 12.15Q4.4 9.9 5.75 8.4Q5.85 5.95 5.15 4.45Q6.25 5.3 6.65 7.05Q7.35 5.35 7.2 3.75Q7.45 4.85 7.35 6.2L8.05 5.6Q8.7 3.25 10.35 1.35Q11.9 0.4 13.35 0.45Q14.3 0.05 15.05 0L14.25 0.9L15.2 0.55Q16.4 0.45 17.45 1Q18.45 0.85 19.55 1.5Q20.85 1.7 21.8 2.6L23.05 4.15L21.65 3.25Q22.5 4.25 22.75 5.5Q21.35 3.45 19.6 3.05L20.3 3.75L20.8 4.7z" />
<path style="fill:none;stroke-width:0.7;stroke-linecap:round;stroke-linejoin:round;stroke-miterlimit:3;stroke:#000000;stroke-opacity:0.301961" d="M24.35 8.9L24.3 8.8L24.3 8.85L23.9 10.45L23.55 8.15L24.3 8.85" />
<path style="fill:none;stroke-width:0.7;stroke-linecap:round;stroke-linejoin:round;stroke-miterlimit:3;stroke:#000000;stroke-opacity:0.301961" d="M15.2 5.5L15.3 5.85" />
<path style="fill:none;stroke-width:0.7;stroke-linecap:round;stroke-linejoin:round;stroke-miterlimit:3;stroke:#000000;stroke-opacity:0.301961" d="M18.6 1.45L19.55 1.5" />
<path style="fill:none;stroke-width:0.7;stroke-linecap:round;stroke-linejoin:round;stroke-miterlimit:3;stroke:#000000;stroke-opacity:0.301961" d="M16.6 1.25Q16.95 1.05 17.45 1" />
<path style="fill:none;stroke-width:0.7;stroke-linecap:round;stroke-linejoin:round;stroke-miterlimit:3;stroke:#000000;stroke-opacity:0.301961" d="M14.25 0.9L13.25 1.25" />
<path style="fill:none;stroke-width:0.7;stroke-linecap:round;stroke-linejoin:round;stroke-miterlimit:3;stroke:#000000;stroke-opacity:0.301961" d="M11.75 1.35L13.35 0.45" />
<path style="fill:none;stroke-width:0.7;stroke-linecap:round;stroke-linejoin:round;stroke-miterlimit:3;stroke:#000000;stroke-opacity:0.301961" d="M13.05 11.55L12.15 10.2" />
<path style="fill:none;stroke-width:0.7;stroke-linecap:round;stroke-linejoin:round;stroke-miterlimit:3;stroke:#000000;stroke-opacity:0.301961" d="M17.95 6.25L17.8 5.55" />
<path style="fill:none;stroke-width:0.7;stroke-linecap:round;stroke-linejoin:round;stroke-miterlimit:3;stroke:#000000;stroke-opacity:0.301961" d="M4.3 17.85L3.1 17.7" />
<path style="fill:none;stroke-width:0.7;stroke-linecap:round;stroke-linejoin:round;stroke-miterlimit:3;stroke:#000000;stroke-opacity:0.301961" d="M7.7 11.9Q8.2 13.15 9.55 14.5" />
<path style="fill:none;stroke-width:0.7;stroke-linecap:round;stroke-linejoin:round;stroke-miterlimit:3;stroke:#000000;stroke-opacity:0.4" d="M1.65 17.8Q7.3 0.85 19.6 3.05" />
</g>
</svg>
