<?xml version="1.0" encoding="utf-8"?>
<svg version="1.1" id="Layer_1"
xmlns="http://www.w3.org/2000/svg"
xmlns:xlink="http://www.w3.org/1999/xlink"
width="16px" height="13px"
xml:space="preserve">
<g id="PathID_3012" transform="matrix(1, 0, 0, 1, 0.15, 0.15)">
<path style="fill:#696561;fill-opacity:1" d="M15.1 9.85Q15.1 11.25 13.7 11.85L11.45 11.7L11.4 11.7Q10.8 11.1 10.8 10.2Q10.8 9.3 11.45 8.6Q12.1 8 13.85 7.65Q15.05 8.35 15.1 9.85" />
<path style="fill:#808080;fill-opacity:1" d="M8.1 8.55Q8.35 7.15 9.8 6.85Q11.2 6.5 13.85 7.65Q12.1 8 11.45 8.6Q10.8 9.3 10.8 10.2Q10.8 11.1 11.4 11.7L8.1 8.55" />
<path style="fill:none;stroke-width:0.7;stroke-linecap:round;stroke-linejoin:round;stroke-miterlimit:3;stroke:#000000;stroke-opacity:0.301961" d="M13.85 7.65Q11.2 6.5 9.8 6.85" />
<path style="fill:none;stroke-width:0.7;stroke-linecap:round;stroke-linejoin:round;stroke-miterlimit:3;stroke:#000000;stroke-opacity:0.301961" d="M8.1 8.55L11.4 11.7L11.45 11.7L13.7 11.85Q15.1 11.25 15.1 9.85Q15.05 8.35 13.85 7.65" />
</g>
<g id="PathID_3013" transform="matrix(1, 0, 0, 1, 0.15, 0.15)">
<path style="fill:#696561;fill-opacity:1" d="M2.05 1.05Q6.5 -1 10.55 0.9Q13 3.95 10.65 10.05Q4.55 11.65 1.35 10.5Q-1.65 6.65 2.05 1.05" />
<path style="fill:none;stroke-width:0.7;stroke-linecap:round;stroke-linejoin:round;stroke-miterlimit:3;stroke:#000000;stroke-opacity:0.301961" d="M1.35 10.5Q4.55 11.65 10.65 10.05Q13 3.95 10.55 0.9Q6.5 -1 2.05 1.05Q-1.65 6.65 1.35 10.5z" />
</g>
<g id="PathID_3014" transform="matrix(1, 0, 0, 1, 0.15, 0.15)">
<path style="fill:#696561;fill-opacity:1" d="M12.3 0.7Q15.05 2.1 13.9 5.65Q12.5 6.8 11.5 5.3Q9.25 -0.1 12.3 0.7" />
<path style="fill:none;stroke-width:0.7;stroke-linecap:round;stroke-linejoin:round;stroke-miterlimit:3;stroke:#000000;stroke-opacity:0.301961" d="M12.3 0.7Q15.05 2.1 13.9 5.65Q12.5 6.8 11.5 5.3Q9.25 -0.1 12.3 0.7z" />
</g>
</svg>
