<?xml version="1.0" encoding="utf-8"?>
<svg version="1.1" id="Layer_1"
xmlns="http://www.w3.org/2000/svg"
xmlns:xlink="http://www.w3.org/1999/xlink"
width="10px" height="5px"
xml:space="preserve">
<g id="PathID_2168" transform="matrix(1, 0, 0, 1, 0.15, 0.05)">
<path style="fill:#6B6C6C;fill-opacity:1" d="M0 2.85Q3.3 2.4 4.45 0.1Q4.65 1.4 5.2 2.3L4.45 0Q6.35 2.7 8.3 2.75Q8.15 4.25 9 4.4Q6.3 4.15 5.2 2.3Q4.65 1.4 4.45 0.1Q3.85 3.35 1.4 3.35Q0.5 3.35 0 2.85" />
<path style="fill:none;stroke-width:0.7;stroke-linecap:round;stroke-linejoin:round;stroke-miterlimit:3;stroke:#000000;stroke-opacity:0.34902" d="M8.3 2.75Q8.15 4.25 9 4.4Q6.3 4.15 5.2 2.3Q3.85 3.35 1.4 3.35Q0.5 3.35 0 2.85" />
<path style="fill:none;stroke-width:0.7;stroke-linecap:round;stroke-linejoin:round;stroke-miterlimit:3;stroke:#000000;stroke-opacity:0.34902" d="M5.2 2.3Q4.65 1.4 4.45 0.1" />
</g>
</svg>
