<?xml version="1.0" encoding="utf-8"?>
<svg version="1.1" id="Layer_1"
xmlns="http://www.w3.org/2000/svg"
xmlns:xlink="http://www.w3.org/1999/xlink"
width="41px" height="31px"
xml:space="preserve">
<g id="PathID_1993" transform="matrix(1, 0, 0, 1, 20.25, 15.3)">
<linearGradient
id="LinearGradID_571" gradientUnits="userSpaceOnUse" gradientTransform="matrix(-0.00256348, -0.00128174, 0.000762939, -0.00152588, 14.45, -12.55)" spreadMethod ="pad" x1="-819.2" y1="0" x2="819.2" y2="0" >
<stop  offset="0" style="stop-color:#727272;stop-opacity:1" />
<stop  offset="1" style="stop-color:#808080;stop-opacity:1" />
</linearGradient>
<path style="fill:url(#LinearGradID_571) " d="M8.9 -14.35Q10.2 -15.3 11.8 -15.15Q12.6 -15.1 13.35 -14.65L14.8 -13.6L16.35 -11.7L15.1 -12L14.65 -12.4Q13.65 -13.65 11.6 -13.25Q9.95 -13 8.65 -13.95L8.65 -14.05L8.7 -14.15L8.9 -14.35" />
<path style="fill:#666666;fill-opacity:1" d="M16.6 -11.25L16.7 -11.15L17 -10.55L15.55 -11.25L15.45 -11.25L15.35 -11.3L14.1 -11.65L10.7 -11.4Q8.9 -10.95 6.85 -9.2L5.75 -9.25Q6.65 -12.05 7.2 -12.65L7.85 -13.35L8.7 -14.15L8.65 -14.05L8.65 -13.95Q9.95 -13 11.6 -13.25Q13.65 -13.65 14.65 -12.4L15.1 -12L16.35 -11.7L16.6 -11.25M15.45 -11.25L15.25 -11.15Q15 -9.25 16.1 -7.95L17.85 -6.25Q19.1 -5.05 20 -3.5L20 -2.5L19.9 -1.35Q19.35 -4.15 17.1 -6.05L15.9 -6.95Q14.6 -7.75 13.5 -7.6L10.65 -6.8L13.5 -7.6Q14.6 -7.75 15.9 -6.95Q16.1 -5 16.75 -3.25Q17.5 -1.3 18.55 0.65Q19.3 1.95 19.6 3.45L19.4 4.15L19.3 4.6Q18.9 2.5 18.1 0.8Q17.2 -1 15.85 -2.3Q14.5 -3.55 13.25 -4L12.6 -3.75L13.25 -4Q14.5 -3.55 15.85 -2.3Q17.2 -1 18.1 0.8L17.15 -0.15Q16.55 2.9 18.1 6.25L18.8 8.2L18.15 10.35L17.95 10.75Q17.45 11.35 16.5 11.75Q16.85 10.9 16.8 10.2L16.95 9.95Q17.7 8.7 17.05 5.7Q18.1 7.6 18.15 10.35Q18.1 7.6 17.05 5.7L15.05 3L15.6 1.1L15.4 -0.3Q15.25 -0.65 14.3 -1.15L13.75 -1.65Q13.15 -2.35 12.65 -3.65L12.6 -3.75L12.4 -4.25L10.65 -6.8L10 -7.5L7.85 -8.95L6.85 -9.2Q8.9 -10.95 10.7 -11.4L14.1 -11.65L15.35 -11.3L15.55 -11.25M12.95 11.85Q12.2 11.3 12.25 10.05Q12.3 8.55 13.75 8.25Q12.8 8.95 12.85 9.9Q12.6 10.4 12.7 11.1L12.95 11.85" />
<linearGradient
id="LinearGradID_572" gradientUnits="userSpaceOnUse" gradientTransform="matrix(-0.00224304, -0.00270081, 0.00117493, -0.000976563, 18.1, -7.55)" spreadMethod ="pad" x1="-819.2" y1="0" x2="819.2" y2="0" >
<stop  offset="0" style="stop-color:#727272;stop-opacity:1" />
<stop  offset="1" style="stop-color:#808080;stop-opacity:1" />
</linearGradient>
<path style="fill:url(#LinearGradID_572) " d="M18.15 -9.35L19.5 -6.5L19.95 -4.4L19.95 -4L20 -3.5Q19.1 -5.05 17.85 -6.25L16.1 -7.95Q15 -9.25 15.25 -11.15L15.45 -11.25L15.55 -11.25L17 -10.55L18.15 -9.35" />
<linearGradient
id="LinearGradID_573" gradientUnits="userSpaceOnUse" gradientTransform="matrix(-0.00160217, -0.0037384, 0.00134277, -0.000579834, 18.95, -1)" spreadMethod ="pad" x1="-819.2" y1="0" x2="819.2" y2="0" >
<stop  offset="0" style="stop-color:#727272;stop-opacity:1" />
<stop  offset="1" style="stop-color:#808080;stop-opacity:1" />
</linearGradient>
<path style="fill:url(#LinearGradID_573) " d="M19.6 3.45Q19.3 1.95 18.55 0.65Q17.5 -1.3 16.75 -3.25Q16.1 -5 15.9 -6.95L17.1 -6.05Q19.35 -4.15 19.9 -1.35L19.9 -1.25Q20.2 0.45 20 1.55L19.6 3.45" />
<linearGradient
id="LinearGradID_574" gradientUnits="userSpaceOnUse" gradientTransform="matrix(-0.000518799, -0.00291443, 0.00114441, -0.000198364, 18.4, 5.1)" spreadMethod ="pad" x1="-819.2" y1="0" x2="819.2" y2="0" >
<stop  offset="0" style="stop-color:#727272;stop-opacity:1" />
<stop  offset="1" style="stop-color:#808080;stop-opacity:1" />
</linearGradient>
<path style="fill:url(#LinearGradID_574) " d="M18.1 6.25Q16.55 2.9 17.15 -0.15L18.1 0.8Q18.9 2.5 19.3 4.6L19.25 4.65Q19.4 5.8 19.2 6.65L18.8 8.2L18.1 6.25" />
<path style="fill:#808080;fill-opacity:1" d="M12.7 11.1Q12.6 10.4 12.85 9.9L12.85 10.1Q12.95 11.15 13.9 11.35Q15.75 11.75 16.8 10.2Q16.85 10.9 16.5 11.75L15.75 12Q14.2 12.45 13.25 12L12.95 11.85L12.7 11.1" />
<path style="fill:none;stroke-width:0.7;stroke-linecap:round;stroke-linejoin:round;stroke-miterlimit:3;stroke:#333333;stroke-opacity:0.4" d="M16.35 -11.7L14.8 -13.6L13.35 -14.65Q12.6 -15.1 11.8 -15.15Q10.2 -15.3 8.9 -14.35L8.7 -14.15L7.85 -13.35L7.2 -12.65Q6.65 -12.05 5.75 -9.25" />
<path style="fill:none;stroke-width:0.7;stroke-linecap:round;stroke-linejoin:round;stroke-miterlimit:3;stroke:#333333;stroke-opacity:0.4" d="M6.85 -9.2Q8.9 -10.95 10.7 -11.4L14.1 -11.65L15.35 -11.3L15.55 -11.25L17 -10.55" />
<path style="fill:none;stroke-width:0.7;stroke-linecap:round;stroke-linejoin:round;stroke-miterlimit:3;stroke:#333333;stroke-opacity:0.4" d="M17 -10.55L16.7 -11.15L16.6 -11.25L16.35 -11.7" />
<path style="fill:none;stroke-width:0.7;stroke-linecap:round;stroke-linejoin:round;stroke-miterlimit:3;stroke:#333333;stroke-opacity:0.4" d="M20 -3.5L19.95 -4L19.95 -4.4L19.5 -6.5L18.15 -9.35L17 -10.55" />
<path style="fill:none;stroke-width:0.7;stroke-linecap:round;stroke-linejoin:round;stroke-miterlimit:3;stroke:#333333;stroke-opacity:0.4" d="M15.9 -6.95Q14.6 -7.75 13.5 -7.6L10.65 -6.8" />
<path style="fill:none;stroke-width:0.7;stroke-linecap:round;stroke-linejoin:round;stroke-miterlimit:3;stroke:#333333;stroke-opacity:0.4" d="M12.6 -3.75L13.25 -4Q14.5 -3.55 15.85 -2.3Q17.2 -1 18.1 0.8Q18.9 2.5 19.3 4.6" />
<path style="fill:none;stroke-width:0.7;stroke-linecap:round;stroke-linejoin:round;stroke-miterlimit:3;stroke:#333333;stroke-opacity:0.4" d="M19.3 4.6L19.4 4.15L19.6 3.45" />
<path style="fill:none;stroke-width:0.7;stroke-linecap:round;stroke-linejoin:round;stroke-miterlimit:3;stroke:#333333;stroke-opacity:0.4" d="M15.9 -6.95L17.1 -6.05Q19.35 -4.15 19.9 -1.35" />
<path style="fill:none;stroke-width:0.7;stroke-linecap:round;stroke-linejoin:round;stroke-miterlimit:3;stroke:#333333;stroke-opacity:0.4" d="M19.9 -1.35L20 -2.5L20 -3.5" />
<path style="fill:none;stroke-width:0.7;stroke-linecap:round;stroke-linejoin:round;stroke-miterlimit:3;stroke:#333333;stroke-opacity:0.4" d="M19.9 -1.35L19.9 -1.25Q20.2 0.45 20 1.55L19.6 3.45" />
<path style="fill:none;stroke-width:0.7;stroke-linecap:round;stroke-linejoin:round;stroke-miterlimit:3;stroke:#333333;stroke-opacity:0.4" d="M19.3 4.6L19.25 4.65Q19.4 5.8 19.2 6.65L18.8 8.2L18.15 10.35L17.95 10.75Q17.45 11.35 16.5 11.75L15.75 12Q14.2 12.45 13.25 12L12.95 11.85Q12.2 11.3 12.25 10.05Q12.3 8.55 13.75 8.25Q12.8 8.95 12.85 9.9L12.85 10.1Q12.95 11.15 13.9 11.35Q15.75 11.75 16.8 10.2L16.95 9.95Q17.7 8.7 17.05 5.7L15.05 3" />
<path style="fill:none;stroke-width:0.7;stroke-linecap:round;stroke-linejoin:round;stroke-miterlimit:3;stroke:#333333;stroke-opacity:0.4" d="M17.05 5.7Q18.1 7.6 18.15 10.35" />
</g>
<g id="PathID_1994" transform="matrix(1, 0, 0, 1, 20.25, 15.3)">
<linearGradient
id="LinearGradID_575" gradientUnits="userSpaceOnUse" gradientTransform="matrix(0.0113831, -0.00257874, 0.00218201, 0.00961304, 5.05, -7.55)" spreadMethod ="pad" x1="-819.2" y1="0" x2="819.2" y2="0" >
<stop  offset="0" style="stop-color:#727272;stop-opacity:1" />
<stop  offset="0.470588" style="stop-color:#808080;stop-opacity:1" />
<stop  offset="0.666667" style="stop-color:#808080;stop-opacity:1" />
<stop  offset="1" style="stop-color:#727272;stop-opacity:1" />
</linearGradient>
<path style="fill:url(#LinearGradID_575) " d="M13.2 -3.55Q12.6 -4.35 12.45 -5.35L11.9 -7.95L11.85 -7.9L11.85 -7.8L11.75 -5.85L11.65 -5.45L11.5 -5.7L11.5 -5.8Q12.05 -7.6 10.5 -9L10.15 -9.3L10.25 -9.05L10.35 -7.05L10.2 -6.65L10.25 -7Q10.35 -8.95 8.75 -10.05L8.35 -10.6L8.75 -10.05Q9.45 -8.95 9.2 -7.5L9.2 -7.55L8.95 -6.85L8.85 -6.6L8.95 -7.5L8.7 -8.6L8.3 -8.95L8.1 -9Q7.25 -8.95 6.8 -8.3L6.75 -8.4Q6.55 -8.85 6 -8.7L5.95 -8.7L5.9 -8.6Q4.55 -7.35 4.9 -5.85L4.8 -6L4.7 -6.15Q3.95 -7.45 4.45 -8.85Q4.6 -9.4 4.9 -9.75Q3.4 -8.9 3.55 -6.95Q3.6 -5.4 4.5 -4.75L4.7 -4.45Q3.7 -4.55 2.95 -5.25L2.7 -5.5Q2.3 -6 2.2 -6.45Q2.1 -7.65 2.65 -8.6Q1.35 -7.65 1.45 -5.9Q1.55 -4.3 2.75 -3.7Q0.65 -3.6 0.4 -5.75Q0.25 -6.95 0.55 -8.15Q0.2 -6.9 0.15 -5.5Q0 -2.75 1.4 -1.65L1.3 -1.15Q0.95 -0.15 0.05 0.15L-0.95 0.25L-1 0.25L-0.45 0.85L-2.7 0.4L-2.75 0.4L-2.75 0.45Q-4 -0.45 -4.3 -2.55Q-4.5 -4.55 -3.85 -6.7Q-3.25 -8.6 -1.1 -10.75L0.65 -12.3Q1.4 -12.8 1.9 -12.85Q3.5 -12.9 4.5 -11.9Q3.5 -12.9 1.9 -12.85Q1.4 -12.8 0.65 -12.3L-3.25 -12.1Q-1.75 -14 -0.3 -14.55L1.6 -14.8Q3.05 -14.25 4.2 -13.5L4.2 -13.6L4.05 -13.95L3.75 -14.45Q4.4 -14.95 5.6 -14.9Q7.05 -14.85 8.3 -13.95Q9.5 -14.75 10.7 -14.6L11.95 -14.1L12.4 -13.55L11.9 -13.6Q10.8 -13.55 10.45 -12.7Q10.95 -13.25 12.6 -13.15L12.65 -13.15L13.25 -12.85Q14.2 -12.4 14.6 -11.55Q15.05 -10.7 14.85 -10.05Q13.9 -11.45 12.35 -11.05Q13.75 -10.65 14.55 -9.55L14.6 -9.5L15.1 -8.7L15.2 -8.25L15.2 -7.3Q14.2 -8.2 13 -8.2Q14.45 -7.4 15.2 -6.25L15.65 -5.5L16 -4.2L15.4 -2.65Q14.85 -1.65 14.2 -1.3L14.15 -1.3L13.9 -1.55Q13.8 -2.7 13.2 -3.55M10.35 -12.45L10.45 -12.7L10.35 -12.45M7.9 -10.3L7.3 -9.5L6.7 -10.45L6.25 -10.85L6.7 -10.45L7.3 -9.5L7.9 -10.3M7.1 -12.25L6.3 -11.65L5.05 -12.65L6.3 -11.65L7.1 -12.25M3.1 -9.3L2.65 -8.6L3.1 -9.3M4.9 -9.75L5.55 -10.5L4.9 -9.75M12.35 -11.05L11.75 -11.2L12.35 -11.05M13 -8.2L12.15 -8.6L13 -8.2M14.15 -1.3Q14.15 -3.15 13.75 -4.2Q14.15 -3.15 14.15 -1.3M-0.95 0.25L-1.75 -0.45L-0.95 0.25M1.4 -1.65Q0.4 -1.55 -0.65 -2.3Q0.4 -1.55 1.4 -1.65M1.3 -1.15L-0.9 -1.05L1.3 -1.15" />
<path style="fill:#666666;fill-opacity:1" d="M11.9 -13.6L12.4 -13.55L12.6 -13.15Q10.95 -13.25 10.45 -12.7Q10.8 -13.55 11.9 -13.6M3.75 -14.45L4.05 -13.95L3.5 -14.3L4.2 -13.6L4.2 -13.5Q3.05 -14.25 1.6 -14.8L2.35 -14.7L3.45 -14.35L3.5 -14.3L4.05 -13.95L3.75 -14.45M-2.75 0.45Q-3.5 1.8 -3.65 3.35Q-3.9 6.15 -1.3 6.95L-0.8 7.05L-1.35 7.1Q-4.35 7.05 -4.6 3.85Q-4.75 2.1 -4.2 0.3L-5.25 -1.55Q-6.25 -3.85 -6.05 -6.2Q-5.8 -8.8 -3.75 -11.5L-3.25 -12.1L0.65 -12.3L-1.1 -10.75Q-3.25 -8.6 -3.85 -6.7Q-4.5 -4.55 -4.3 -2.55Q-4 -0.45 -2.75 0.45M12.35 -11.05Q13.9 -11.45 14.85 -10.05L14.55 -9.55Q13.75 -10.65 12.35 -11.05M13 -8.2Q14.2 -8.2 15.2 -7.3L15.2 -6.25Q14.45 -7.4 13 -8.2M11.75 -5.85L11.85 -7.8L11.85 -7.9L11.9 -7.95L12.45 -5.35Q12.6 -4.35 13.2 -3.55Q13.8 -2.7 13.9 -1.55Q13.3 -2.1 12.6 -3.65L11.7 -5.35L11.65 -5.45L11.75 -5.85M11.5 -5.7L10.4 -7.15L10.35 -7.05L10.25 -9.05L10.15 -9.3L10.5 -9Q12.05 -7.6 11.5 -5.8L11.5 -5.7M8.75 -10.05Q10.35 -8.95 10.25 -7L10.2 -6.65L10 -6.15L9.1 -5.15Q9.35 -6.15 9.2 -7.5Q9.45 -8.95 8.75 -10.05M5.9 -8.6L5.95 -8.7L6 -8.7Q6.55 -8.85 6.75 -8.4L6.8 -8.3Q7.25 -8.95 8.1 -9L8.3 -8.95L8.7 -8.6L8.95 -7.5L8.85 -6.6L8.3 -5.85Q8.75 -7.95 8.05 -8.05Q7.45 -8.15 7 -7.2Q6.8 -8.2 6.2 -8.1Q5.6 -8 5.5 -7.1Q5.35 -6.05 6.45 -5.1Q5.55 -5.05 4.9 -5.85Q4.55 -7.35 5.9 -8.6M3.55 -6.95Q3.4 -8.9 4.9 -9.75Q4.6 -9.4 4.45 -8.85Q3.95 -7.45 4.7 -6.15L4.65 -6.2Q4.05 -5.45 4.5 -4.75Q3.6 -5.4 3.55 -6.95M1.45 -5.9Q1.35 -7.65 2.65 -8.6Q2.1 -7.65 2.2 -6.45L2.15 -5.4Q2.25 -4.25 3.15 -3.75L2.75 -3.7Q1.55 -4.3 1.45 -5.9M10.4 -7.15Q10.65 -8.05 10.5 -9Q10.65 -8.05 10.4 -7.15" />
<path style="fill:none;stroke-width:0.7;stroke-linecap:round;stroke-linejoin:round;stroke-miterlimit:3;stroke:#333333;stroke-opacity:0.4" d="M10.45 -12.7Q10.95 -13.25 12.6 -13.15" />
<path style="fill:none;stroke-width:0.7;stroke-linecap:round;stroke-linejoin:round;stroke-miterlimit:3;stroke:#333333;stroke-opacity:0.4" d="M12.6 -13.15L12.4 -13.55" />
<path style="fill:none;stroke-width:0.7;stroke-linecap:round;stroke-linejoin:round;stroke-miterlimit:3;stroke:#333333;stroke-opacity:0.4" d="M10.45 -12.7L10.35 -12.45" />
<path style="fill:none;stroke-width:0.7;stroke-linecap:round;stroke-linejoin:round;stroke-miterlimit:3;stroke:#333333;stroke-opacity:0.4" d="M12.4 -13.55L11.95 -14.1L10.7 -14.6Q9.5 -14.75 8.3 -13.95Q7.05 -14.85 5.6 -14.9Q4.4 -14.95 3.75 -14.45" />
<path style="fill:none;stroke-width:0.7;stroke-linecap:round;stroke-linejoin:round;stroke-miterlimit:3;stroke:#333333;stroke-opacity:0.4" d="M4.05 -13.95L4.2 -13.6" />
<path style="fill:none;stroke-width:0.7;stroke-linecap:round;stroke-linejoin:round;stroke-miterlimit:3;stroke:#333333;stroke-opacity:0.4" d="M1.6 -14.8L-0.3 -14.55Q-1.75 -14 -3.25 -12.1" />
<path style="fill:none;stroke-width:0.7;stroke-linecap:round;stroke-linejoin:round;stroke-miterlimit:3;stroke:#333333;stroke-opacity:0.4" d="M0.65 -12.3Q1.4 -12.8 1.9 -12.85Q3.5 -12.9 4.5 -11.9" />
<path style="fill:none;stroke-width:0.7;stroke-linecap:round;stroke-linejoin:round;stroke-miterlimit:3;stroke:#333333;stroke-opacity:0.4" d="M12.6 -13.15L12.65 -13.15" />
<path style="fill:none;stroke-width:0.7;stroke-linecap:round;stroke-linejoin:round;stroke-miterlimit:3;stroke:#333333;stroke-opacity:0.4" d="M12.65 -13.15L13.25 -12.85Q14.2 -12.4 14.6 -11.55Q15.05 -10.7 14.85 -10.05L14.55 -9.55" />
<path style="fill:none;stroke-width:0.7;stroke-linecap:round;stroke-linejoin:round;stroke-miterlimit:3;stroke:#333333;stroke-opacity:0.4" d="M14.55 -9.55L14.6 -9.5" />
<path style="fill:none;stroke-width:0.7;stroke-linecap:round;stroke-linejoin:round;stroke-miterlimit:3;stroke:#333333;stroke-opacity:0.4" d="M14.6 -9.5L15.1 -8.7L15.2 -8.25L15.2 -7.3L15.2 -6.25L15.65 -5.5L16 -4.2L15.4 -2.65Q14.85 -1.65 14.2 -1.3L14.15 -1.3L13.9 -1.55Q13.3 -2.1 12.6 -3.65L11.7 -5.35L11.65 -5.45L11.5 -5.7L10.4 -7.15L10.35 -7.05L10.2 -6.65L10 -6.15L9.1 -5.15Q9.35 -6.15 9.2 -7.5L9.2 -7.55L8.95 -6.85L8.85 -6.6L8.3 -5.85Q8.75 -7.95 8.05 -8.05Q7.45 -8.15 7 -7.2Q6.8 -8.2 6.2 -8.1Q5.6 -8 5.5 -7.1Q5.35 -6.05 6.45 -5.1Q5.55 -5.05 4.9 -5.85L4.8 -6L4.7 -6.15L4.65 -6.2Q4.05 -5.45 4.5 -4.75L4.7 -4.45Q3.7 -4.55 2.95 -5.25L2.7 -5.5Q2.3 -6 2.2 -6.45L2.15 -5.4Q2.25 -4.25 3.15 -3.75L2.75 -3.7Q0.65 -3.6 0.4 -5.75Q0.25 -6.95 0.55 -8.15Q0.2 -6.9 0.15 -5.5Q0 -2.75 1.4 -1.65L1.3 -1.15Q0.95 -0.15 0.05 0.15L-0.95 0.25L-1 0.25L-0.45 0.85L-2.7 0.4L-2.75 0.4L-2.75 0.45Q-3.5 1.8 -3.65 3.35Q-3.9 6.15 -1.3 6.95L-0.8 7.05L-1.35 7.1Q-4.35 7.05 -4.6 3.85Q-4.75 2.1 -4.2 0.3L-5.25 -1.55Q-6.25 -3.85 -6.05 -6.2Q-5.8 -8.8 -3.75 -11.5L-3.25 -12.1" />
<path style="fill:none;stroke-width:0.7;stroke-linecap:round;stroke-linejoin:round;stroke-miterlimit:3;stroke:#333333;stroke-opacity:0.4" d="M1.6 -14.8L2.35 -14.7L3.45 -14.35" />
<path style="fill:none;stroke-width:0.7;stroke-linecap:round;stroke-linejoin:round;stroke-miterlimit:3;stroke:#333333;stroke-opacity:0.4" d="M3.45 -14.35L3.5 -14.3" />
<path style="fill:none;stroke-width:0.7;stroke-linecap:round;stroke-linejoin:round;stroke-miterlimit:3;stroke:#333333;stroke-opacity:0.4" d="M3.5 -14.3L3.75 -14.45" />
<path style="fill:none;stroke-width:0.7;stroke-linecap:round;stroke-linejoin:round;stroke-miterlimit:3;stroke:#333333;stroke-opacity:0.4" d="M3.5 -14.3L4.05 -13.95" />
<path style="fill:none;stroke-width:0.7;stroke-linecap:round;stroke-linejoin:round;stroke-miterlimit:3;stroke:#333333;stroke-opacity:0.4" d="M8.35 -10.6L8.75 -10.05" />
<path style="fill:none;stroke-width:0.7;stroke-linecap:round;stroke-linejoin:round;stroke-miterlimit:3;stroke:#333333;stroke-opacity:0.4" d="M6.25 -10.85L6.7 -10.45L7.3 -9.5L7.9 -10.3" />
<path style="fill:none;stroke-width:0.7;stroke-linecap:round;stroke-linejoin:round;stroke-miterlimit:3;stroke:#333333;stroke-opacity:0.4" d="M5.05 -12.65L6.3 -11.65L7.1 -12.25" />
<path style="fill:none;stroke-width:0.7;stroke-linecap:round;stroke-linejoin:round;stroke-miterlimit:3;stroke:#333333;stroke-opacity:0.4" d="M8.75 -10.05Q9.45 -8.95 9.2 -7.5" />
<path style="fill:none;stroke-width:0.7;stroke-linecap:round;stroke-linejoin:round;stroke-miterlimit:3;stroke:#333333;stroke-opacity:0.4" d="M2.65 -8.6L3.1 -9.3" />
<path style="fill:none;stroke-width:0.7;stroke-linecap:round;stroke-linejoin:round;stroke-miterlimit:3;stroke:#333333;stroke-opacity:0.4" d="M2.2 -6.45Q2.1 -7.65 2.65 -8.6" />
<path style="fill:none;stroke-width:0.7;stroke-linecap:round;stroke-linejoin:round;stroke-miterlimit:3;stroke:#333333;stroke-opacity:0.4" d="M4.9 -9.75Q4.6 -9.4 4.45 -8.85Q3.95 -7.45 4.7 -6.15" />
<path style="fill:none;stroke-width:0.7;stroke-linecap:round;stroke-linejoin:round;stroke-miterlimit:3;stroke:#333333;stroke-opacity:0.4" d="M5.55 -10.5L4.9 -9.75" />
<path style="fill:none;stroke-width:0.7;stroke-linecap:round;stroke-linejoin:round;stroke-miterlimit:3;stroke:#333333;stroke-opacity:0.4" d="M11.75 -11.2L12.35 -11.05" />
<path style="fill:none;stroke-width:0.7;stroke-linecap:round;stroke-linejoin:round;stroke-miterlimit:3;stroke:#333333;stroke-opacity:0.4" d="M10.5 -9Q10.65 -8.05 10.4 -7.15" />
<path style="fill:none;stroke-width:0.7;stroke-linecap:round;stroke-linejoin:round;stroke-miterlimit:3;stroke:#333333;stroke-opacity:0.4" d="M12.35 -11.05Q13.75 -10.65 14.55 -9.55" />
<path style="fill:none;stroke-width:0.7;stroke-linecap:round;stroke-linejoin:round;stroke-miterlimit:3;stroke:#333333;stroke-opacity:0.4" d="M12.15 -8.6L13 -8.2" />
<path style="fill:none;stroke-width:0.7;stroke-linecap:round;stroke-linejoin:round;stroke-miterlimit:3;stroke:#333333;stroke-opacity:0.4" d="M11.85 -7.8L11.75 -5.85L11.65 -5.45" />
<path style="fill:none;stroke-width:0.7;stroke-linecap:round;stroke-linejoin:round;stroke-miterlimit:3;stroke:#333333;stroke-opacity:0.4" d="M13.75 -4.2Q14.15 -3.15 14.15 -1.3" />
<path style="fill:none;stroke-width:0.7;stroke-linecap:round;stroke-linejoin:round;stroke-miterlimit:3;stroke:#333333;stroke-opacity:0.4" d="M13 -8.2Q14.45 -7.4 15.2 -6.25" />
<path style="fill:none;stroke-width:0.7;stroke-linecap:round;stroke-linejoin:round;stroke-miterlimit:3;stroke:#333333;stroke-opacity:0.4" d="M0.65 -12.3L-1.1 -10.75Q-3.25 -8.6 -3.85 -6.7Q-4.5 -4.55 -4.3 -2.55Q-4 -0.45 -2.75 0.45" />
<path style="fill:none;stroke-width:0.7;stroke-linecap:round;stroke-linejoin:round;stroke-miterlimit:3;stroke:#333333;stroke-opacity:0.4" d="M-1.75 -0.45L-0.95 0.25" />
<path style="fill:none;stroke-width:0.7;stroke-linecap:round;stroke-linejoin:round;stroke-miterlimit:3;stroke:#333333;stroke-opacity:0.4" d="M-0.65 -2.3Q0.4 -1.55 1.4 -1.65" />
<path style="fill:none;stroke-width:0.7;stroke-linecap:round;stroke-linejoin:round;stroke-miterlimit:3;stroke:#333333;stroke-opacity:0.4" d="M-0.9 -1.05L1.3 -1.15" />
</g>
<g id="PathID_1995" transform="matrix(1, 0, 0, 1, 20.25, 15.3)">
<path style="fill:#666666;fill-opacity:1" d="M14.55 3.9L15.05 3.15Q15.55 4.45 15 6.1Q14.35 8.1 12.2 7.25Q14.05 7.6 14.5 5.8L14.55 3.9" />
<path style="fill:none;stroke-width:0.7;stroke-linecap:round;stroke-linejoin:round;stroke-miterlimit:3;stroke:#333333;stroke-opacity:0.301961" d="M14.5 5.8Q14.05 7.6 12.2 7.25Q14.35 8.1 15 6.1Q15.55 4.45 15.05 3.15L14.55 3.9L14.5 5.8z" />
</g>
<g id="PathID_1996" transform="matrix(1, 0, 0, 1, 20.25, 15.3)">
<path style="fill:#666666;fill-opacity:1" d="M-6.4 -11.3L-9.15 -11.35Q-12.25 -11.2 -13.75 -10.5Q-15.55 -9.65 -16.75 -8.45Q-18.15 -7 -19.5 -4.2L-19.5 -5.05L-19.2 -6.75Q-15.55 -11.45 -14.05 -12.55Q-12.55 -13.65 -10.05 -14.7Q-8.3 -14.65 -6.9 -13.85Q-4.75 -12.7 -4.6 -11.15Q-4 -10.55 -3.95 -9.25L-6.4 -11.3M-3.95 -9.25Q-3.95 -8 -4.4 -7.45Q-4.05 -6.5 -4.25 -4.75Q-4.45 -3 -5 -1.75L-5 -1.7Q-4.8 -0.75 -5.05 0.4L-5.5 2.25Q-6.4 4.25 -9.9 5.7Q-13.95 7.4 -14.75 8.2Q-15.7 9.15 -15.75 10.85L-15.75 11.4Q-15.65 12.35 -15.1 12.95L-14.65 13.3L-14.5 13.7Q-12.95 14.9 -11.3 13.55L-11.1 13.35L-11.15 13.8Q-11.5 15.25 -13.7 15.1Q-15.1 14.95 -15.3 14.35Q-15.85 14.25 -16.35 13.55Q-16.9 12.85 -16.85 12.25L-17.45 11.65L-17.45 11.2Q-17.4 9.35 -16.85 7.55Q-16.35 5.9 -15.25 4.35L-15.05 4.1Q-13.85 2.75 -12.25 1.9Q-9.95 0.65 -9.15 -1.25Q-9.05 -1.7 -9.6 -1.6L-10.4 -1.35L-9.75 -1.75Q-7.65 -2.95 -5.85 -5.35L-4.4 -7.45L-5.85 -5.35Q-7.65 -2.95 -9.75 -1.75L-10.4 -1.35L-14 0.4Q-16.35 1.6 -17.2 3Q-18.6 5.25 -18.75 8.3L-19.2 7.4L-19.55 6L-18.85 4.2Q-18.1 2.4 -16.8 1.05L-14.7 -0.95L-11.15 -4.05Q-9.15 -5.8 -7.3 -8.05Q-6.1 -9.55 -6.2 -11.1L-6.4 -11.3L-4.6 -11.15M-6.55 0.35Q-5.35 -0.75 -5 -1.7Q-5.35 -0.75 -6.55 0.35L-8 1.5L-12.5 3.65Q-15.2 4.85 -16.25 6.85L-16.5 7.5L-17 9.15L-17 10.05L-16 8.3Q-15.1 7.2 -13.4 6.35Q-10.75 5.05 -8.65 3.6Q-6.7 2.2 -6.55 0.35M-17 10.05L-16.85 12.25L-17 10.05M-15.3 14.35Q-15.8 13.05 -15.75 11.4Q-15.8 13.05 -15.3 14.35" />
<linearGradient
id="LinearGradID_576" gradientUnits="userSpaceOnUse" gradientTransform="matrix(0.0025177, -0.00291443, 0.00149536, 0.001297, -16.1, -10.25)" spreadMethod ="pad" x1="-819.2" y1="0" x2="819.2" y2="0" >
<stop  offset="0" style="stop-color:#727272;stop-opacity:1" />
<stop  offset="1" style="stop-color:#808080;stop-opacity:1" />
</linearGradient>
<path style="fill:url(#LinearGradID_576) " d="M-18.35 -9.15L-18.2 -9.45Q-16.5 -13.2 -13.55 -14.2L-11.85 -14.6L-10.05 -14.7Q-12.55 -13.65 -14.05 -12.55Q-15.55 -11.45 -19.2 -6.75L-18.35 -9.15" />
<linearGradient
id="LinearGradID_577" gradientUnits="userSpaceOnUse" gradientTransform="matrix(0.00482178, -0.00816345, 0.00454712, 0.00268555, -16, -1.85)" spreadMethod ="pad" x1="-819.2" y1="0" x2="819.2" y2="0" >
<stop  offset="0" style="stop-color:#727272;stop-opacity:1" />
<stop  offset="1" style="stop-color:#808080;stop-opacity:1" />
</linearGradient>
<path style="fill:url(#LinearGradID_577) " d="M-6.2 -11.1Q-6.1 -9.55 -7.3 -8.05Q-9.15 -5.8 -11.15 -4.05L-14.7 -0.95L-16.8 1.05Q-18.1 2.4 -18.85 4.2L-19.55 6L-19.85 4.15Q-20.25 0.7 -19.95 -1.55L-19.9 -2.85L-19.5 -4.2Q-18.15 -7 -16.75 -8.45Q-15.55 -9.65 -13.75 -10.5Q-12.25 -11.2 -9.15 -11.35L-6.4 -11.3L-6.2 -11.1" />
<linearGradient
id="LinearGradID_578" gradientUnits="userSpaceOnUse" gradientTransform="matrix(0.00376892, -0.00596619, 0.00234985, 0.0014801, -15.8, 5)" spreadMethod ="pad" x1="-819.2" y1="0" x2="819.2" y2="0" >
<stop  offset="0" style="stop-color:#727272;stop-opacity:1" />
<stop  offset="1" style="stop-color:#808080;stop-opacity:1" />
</linearGradient>
<path style="fill:url(#LinearGradID_578) " d="M-10.4 -1.35L-9.6 -1.6Q-9.05 -1.7 -9.15 -1.25Q-9.95 0.65 -12.25 1.9Q-13.85 2.75 -15.05 4.1L-15.25 4.35Q-16.35 5.9 -16.85 7.55Q-17.4 9.35 -17.45 11.2L-17.45 11.65L-17.75 11.25L-18.15 10.55L-18.35 10.1Q-18.75 9.2 -18.75 8.3Q-18.6 5.25 -17.2 3Q-16.35 1.6 -14 0.4L-10.4 -1.35" />
<linearGradient
id="LinearGradID_579" gradientUnits="userSpaceOnUse" gradientTransform="matrix(0.00344849, -0.00288391, 0.00111389, 0.00134277, -14.4, 6.5)" spreadMethod ="pad" x1="-819.2" y1="0" x2="819.2" y2="0" >
<stop  offset="0" style="stop-color:#727272;stop-opacity:1" />
<stop  offset="1" style="stop-color:#808080;stop-opacity:1" />
</linearGradient>
<path style="fill:url(#LinearGradID_579) " d="M-8.65 3.6Q-10.75 5.05 -13.4 6.35Q-15.1 7.2 -16 8.3L-17 10.05L-17 9.15L-16.5 7.5L-16.25 6.85Q-15.2 4.85 -12.5 3.65L-8 1.5L-6.55 0.35Q-6.7 2.2 -8.65 3.6" />
<linearGradient
id="LinearGradID_580" gradientUnits="userSpaceOnUse" gradientTransform="matrix(0.00216675, 0, 0, 0.00247192, -12.9, 12.2)" spreadMethod ="pad" x1="-819.2" y1="0" x2="819.2" y2="0" >
<stop  offset="0" style="stop-color:#727272;stop-opacity:1" />
<stop  offset="1" style="stop-color:#808080;stop-opacity:1" />
</linearGradient>
<path style="fill:url(#LinearGradID_580) " d="M-11.3 13.55Q-12.95 14.9 -14.5 13.7L-14.65 13.3L-14.05 13.65Q-12.65 14.25 -12.05 13.05Q-11.45 11.85 -12.45 10.2Q-11.25 10.7 -11.1 12.95L-11.1 13.35L-11.3 13.55" />
<path style="fill:none;stroke-width:0.7;stroke-linecap:round;stroke-linejoin:round;stroke-miterlimit:3;stroke:#333333;stroke-opacity:0.4" d="M-4.6 -11.15Q-4.75 -12.7 -6.9 -13.85Q-8.3 -14.65 -10.05 -14.7" />
<path style="fill:none;stroke-width:0.7;stroke-linecap:round;stroke-linejoin:round;stroke-miterlimit:3;stroke:#333333;stroke-opacity:0.4" d="M-19.2 -6.75L-19.5 -5.05L-19.5 -4.2" />
<path style="fill:none;stroke-width:0.7;stroke-linecap:round;stroke-linejoin:round;stroke-miterlimit:3;stroke:#333333;stroke-opacity:0.4" d="M-19.5 -4.2Q-18.15 -7 -16.75 -8.45Q-15.55 -9.65 -13.75 -10.5Q-12.25 -11.2 -9.15 -11.35L-6.4 -11.3L-4.6 -11.15" />
<path style="fill:none;stroke-width:0.7;stroke-linecap:round;stroke-linejoin:round;stroke-miterlimit:3;stroke:#333333;stroke-opacity:0.4" d="M-4.6 -11.15Q-4 -10.55 -3.95 -9.25Q-3.95 -8 -4.4 -7.45Q-4.05 -6.5 -4.25 -4.75Q-4.45 -3 -5 -1.75L-5 -1.7Q-4.8 -0.75 -5.05 0.4L-5.5 2.25Q-6.4 4.25 -9.9 5.7Q-13.95 7.4 -14.75 8.2Q-15.7 9.15 -15.75 10.85L-15.75 11.4Q-15.65 12.35 -15.1 12.95L-14.65 13.3L-14.05 13.65Q-12.65 14.25 -12.05 13.05Q-11.45 11.85 -12.45 10.2Q-11.25 10.7 -11.1 12.95L-11.1 13.35L-11.15 13.8Q-11.5 15.25 -13.7 15.1Q-15.1 14.95 -15.3 14.35Q-15.85 14.25 -16.35 13.55Q-16.9 12.85 -16.85 12.25L-17.45 11.65L-17.75 11.25L-18.15 10.55L-18.35 10.1Q-18.75 9.2 -18.75 8.3L-19.2 7.4L-19.55 6L-19.85 4.15Q-20.25 0.7 -19.95 -1.55L-19.9 -2.85L-19.5 -4.2" />
<path style="fill:none;stroke-width:0.7;stroke-linecap:round;stroke-linejoin:round;stroke-miterlimit:3;stroke:#333333;stroke-opacity:0.4" d="M-10.05 -14.7L-11.85 -14.6L-13.55 -14.2Q-16.5 -13.2 -18.2 -9.45L-18.35 -9.15L-19.2 -6.75" />
<path style="fill:none;stroke-width:0.7;stroke-linecap:round;stroke-linejoin:round;stroke-miterlimit:3;stroke:#333333;stroke-opacity:0.4" d="M-4.4 -7.45L-5.85 -5.35Q-7.65 -2.95 -9.75 -1.75L-10.4 -1.35" />
<path style="fill:none;stroke-width:0.7;stroke-linecap:round;stroke-linejoin:round;stroke-miterlimit:3;stroke:#333333;stroke-opacity:0.4" d="M-17 10.05L-17 9.15L-16.5 7.5L-16.25 6.85Q-15.2 4.85 -12.5 3.65L-8 1.5L-6.55 0.35Q-5.35 -0.75 -5 -1.7" />
<path style="fill:none;stroke-width:0.7;stroke-linecap:round;stroke-linejoin:round;stroke-miterlimit:3;stroke:#333333;stroke-opacity:0.4" d="M-16.85 12.25L-17 10.05" />
<path style="fill:none;stroke-width:0.7;stroke-linecap:round;stroke-linejoin:round;stroke-miterlimit:3;stroke:#333333;stroke-opacity:0.4" d="M-18.75 8.3Q-18.6 5.25 -17.2 3Q-16.35 1.6 -14 0.4L-10.4 -1.35" />
<path style="fill:none;stroke-width:0.7;stroke-linecap:round;stroke-linejoin:round;stroke-miterlimit:3;stroke:#333333;stroke-opacity:0.4" d="M-15.75 11.4Q-15.8 13.05 -15.3 14.35" />
</g>
</svg>
