<?xml version="1.0" encoding="utf-8"?>
<svg version="1.1" id="Layer_1"
xmlns="http://www.w3.org/2000/svg"
xmlns:xlink="http://www.w3.org/1999/xlink"
width="8px" height="8px"
xml:space="preserve">
<g id="PathID_280" transform="matrix(1, 0, 0, 1, 0, 0)">
<radialGradient
id="RadialGradID_98" gradientUnits="userSpaceOnUse" gradientTransform="matrix(0.00566101, 0, 0, 0.00566101, 3.95, 3.8)" spreadMethod ="pad" cx="0" cy="0" r="819.2" fx="0" fy="0" >
<stop  offset="0"  style="stop-color:#494949;stop-opacity:1" />
<stop  offset="0.458824"  style="stop-color:#777777;stop-opacity:1" />
<stop  offset="0.686275"  style="stop-color:#808080;stop-opacity:1" />
<stop  offset="1"  style="stop-color:#646464;stop-opacity:1" />
</radialGradient>
<path style="fill:url(#RadialGradID_98) " d="M7.5 1.95Q8.15 2.95 7.7 3.7L7.35 4.05L5.15 3.95Q4.9 3.9 4.8 3.65Q4.7 3.35 4.9 3.05L6.15 1.55Q6.85 0.9 7.5 1.95M5.3 2.2Q3.95 3.25 3.9 3.05L3.75 1.85L3.75 1.05L4 0.15Q4.2 0 4.35 0Q5.15 -0.05 5.7 0.25Q6.15 0.45 6.1 1Q6.1 1.6 5.3 2.2M7.05 4.25Q7.7 4.4 7.8 4.7L7.75 5.7Q7.5 6.3 7.05 6.5Q6.5 6.65 5.85 6.15L5.95 6.35Q6.35 7.25 5.2 7.55Q4.4 7.8 4.1 6.7L3.95 7.45L2.6 7.5Q1.7 7 2.6 5.6Q3.75 3.7 4.05 6.35Q4.05 4.6 4.35 4.8L5.2 5.55L5.45 5.75Q4.35 4.6 4.5 4.3L5.75 4.2L7.05 4.25M3.6 1.1Q3.6 3.2 3.2 3.05L1.7 2.1Q0.85 1.3 1.15 1.05Q2.1 0.25 2.7 0.1Q3.6 -0.1 3.6 1.1M2.2 2.85L2.75 3.55L1.7 4.1L0.45 4.35Q0.05 4.3 0 3.8Q0 2.8 0.2 2.5Q0.6 1.85 1.45 2.2L2.2 2.85M1.6 4.25Q3.5 3.8 2.55 5.6L1.15 6.55L0.3 5.5Q0.1 4.75 1.6 4.25" />
</g>
</svg>
