<?xml version="1.0" encoding="utf-8"?>
<svg version="1.1" id="Layer_1"
xmlns="http://www.w3.org/2000/svg"
xmlns:xlink="http://www.w3.org/1999/xlink"
width="22px" height="22px"
xml:space="preserve">
<g id="PathID_2944" transform="matrix(1, 0, 0, 1, 0.15, 0.15)">
<path style="fill:#808080;fill-opacity:1" d="M5.85 14.55Q4.55 15.45 3.55 16.7L3.85 13.3L2.1 16.4L1.65 13.3L2.9 11.6Q5.45 8.5 11 5.65Q14.5 5.8 17.4 8.35L18.15 9.1Q19.15 10.3 18.35 10.95Q16 8.55 13.65 8.75Q10.7 10.4 8.55 12.75L5.85 14.55M5.45 12.8Q7.25 9.8 11.6 6.9Q7.25 9.8 5.45 12.8" />
<path style="fill:#4F4943;fill-opacity:1" d="M8.55 12.75Q5.25 16.25 3.85 21.3Q2.55 21.2 1.15 19.7L0 18.2Q0.2 15.6 1.65 13.3L2.1 16.4L3.85 13.3L3.55 16.7Q4.55 15.45 5.85 14.55L8.55 12.75" />
<path style="fill:none;stroke-width:0.7;stroke-linecap:round;stroke-linejoin:round;stroke-miterlimit:3;stroke:#000000;stroke-opacity:0.4" d="M1.65 13.3L2.9 11.6Q5.45 8.5 11 5.65Q14.5 5.8 17.4 8.35L18.15 9.1Q19.15 10.3 18.35 10.95Q16 8.55 13.65 8.75Q10.7 10.4 8.55 12.75Q5.25 16.25 3.85 21.3Q2.55 21.2 1.15 19.7L0 18.2Q0.2 15.6 1.65 13.3z" />
<path style="fill:none;stroke-width:0.7;stroke-linecap:round;stroke-linejoin:round;stroke-miterlimit:3;stroke:#000000;stroke-opacity:0.4" d="M11.6 6.9Q7.25 9.8 5.45 12.8" />
</g>
<g id="PathID_2945" transform="matrix(1, 0, 0, 1, 0.15, 0.15)">
<path style="fill:#808080;fill-opacity:1" d="M15.95 4.95Q13.75 5.5 13.9 3.35Q15.35 1.85 20.8 1.45Q18.7 2.9 18.35 3.75L18.15 4.3Q17.2 6.1 16.2 4.55L16.7 3.95L16.2 4.55L15.95 4.95" />
<path style="fill:#4F4943;fill-opacity:1" d="M13.9 3.35Q13.75 5.5 15.95 4.95Q15 6.35 15.15 7.9Q15 6.35 15.95 4.95L16.2 4.55Q17.2 6.1 18.15 4.3Q18 4.95 18.2 5.8Q18.5 7.1 18.15 7.55Q17.65 8.3 16.8 8.4Q15.9 8.6 15.15 7.9Q12 7 13.45 3.9L13.9 3.35" />
<path style="fill:none;stroke-width:0.7;stroke-linecap:round;stroke-linejoin:round;stroke-miterlimit:3;stroke:#000000;stroke-opacity:0.4" d="M16.7 3.95L16.2 4.55" />
<path style="fill:none;stroke-width:0.7;stroke-linecap:round;stroke-linejoin:round;stroke-miterlimit:3;stroke:#000000;stroke-opacity:0.4" d="M18.15 4.3L18.35 3.75Q18.7 2.9 20.8 1.45Q15.35 1.85 13.9 3.35" />
<path style="fill:none;stroke-width:0.7;stroke-linecap:round;stroke-linejoin:round;stroke-miterlimit:3;stroke:#000000;stroke-opacity:0.4" d="M15.95 4.95L16.2 4.55" />
<path style="fill:none;stroke-width:0.7;stroke-linecap:round;stroke-linejoin:round;stroke-miterlimit:3;stroke:#000000;stroke-opacity:0.4" d="M18.15 4.3Q18 4.95 18.2 5.8Q18.5 7.1 18.15 7.55Q17.65 8.3 16.8 8.4Q15.9 8.6 15.15 7.9Q12 7 13.45 3.9L13.9 3.35" />
<path style="fill:none;stroke-width:0.7;stroke-linecap:round;stroke-linejoin:round;stroke-miterlimit:3;stroke:#000000;stroke-opacity:0.4" d="M15.95 4.95Q15 6.35 15.15 7.9" />
</g>
<g id="PathID_2946" transform="matrix(1, 0, 0, 1, 0.15, 0.15)">
<path style="fill:#808080;fill-opacity:1" d="M13.4 7.7Q12.85 8.45 10.2 8.1Q8.2 6.7 7.75 4.65Q7.4 2.35 7.55 0Q8 1.35 9.1 2.25Q10.15 3.15 11.35 3.35L13.4 3.6Q14.45 3.7 15.1 4.3L15.55 4.85Q15.3 6.5 13.35 6L12.15 5.3L11.45 5L12.15 5.3Q13.75 6.9 13.4 7.7" />
<path style="fill:#4F4943;fill-opacity:1" d="M15.55 4.85L16 6.45Q16.1 8 14.95 7.75Q14.4 6.75 13.35 6Q14.5 10.2 11.45 8.8L10.2 8.1Q12.85 8.45 13.4 7.7Q13.75 6.9 12.15 5.3L13.35 6Q14.4 6.75 14.95 7.75Q15.3 6.5 15.55 4.85" />
<path style="fill:none;stroke-width:0.7;stroke-linecap:round;stroke-linejoin:round;stroke-miterlimit:3;stroke:#000000;stroke-opacity:0.4" d="M12.15 5.3L11.45 5" />
<path style="fill:none;stroke-width:0.7;stroke-linecap:round;stroke-linejoin:round;stroke-miterlimit:3;stroke:#000000;stroke-opacity:0.4" d="M10.2 8.1Q8.2 6.7 7.75 4.65Q7.4 2.35 7.55 0Q8 1.35 9.1 2.25Q10.15 3.15 11.35 3.35L13.4 3.6Q14.45 3.7 15.1 4.3L15.55 4.85L16 6.45Q16.1 8 14.95 7.75Q14.5 10.2 11.45 8.8L10.2 8.1z" />
<path style="fill:none;stroke-width:0.7;stroke-linecap:round;stroke-linejoin:round;stroke-miterlimit:3;stroke:#000000;stroke-opacity:0.4" d="M12.15 5.3L13.35 6" />
<path style="fill:none;stroke-width:0.7;stroke-linecap:round;stroke-linejoin:round;stroke-miterlimit:3;stroke:#000000;stroke-opacity:0.4" d="M14.95 7.75Q14.4 6.75 13.35 6" />
</g>
</svg>
