<?xml version="1.0" encoding="utf-8"?>
<svg version="1.1" id="Layer_1"
xmlns="http://www.w3.org/2000/svg"
xmlns:xlink="http://www.w3.org/1999/xlink"
width="13px" height="33px"
xml:space="preserve">
<g id="PathID_2144" transform="matrix(1, 0, 0, 1, 0.15, 0.15)">
<path style="fill:#4F4943;fill-opacity:1" d="M11.45 18.4Q10.3 17.75 10.15 16.4Q8.85 14 7.35 13.6L0.35 9.1Q-0.25 7.95 0.15 6.1L0.3 5.25Q3.3 7.05 5.95 6.5Q8.55 5.9 7.6 3.55Q9.85 8.1 11.45 18.4" />
<path style="fill:#808080;fill-opacity:1" d="M2.7 0.15Q5.45 -0.7 7.6 3.55Q8.55 5.9 5.95 6.5Q3.3 7.05 0.3 5.25Q0.85 1.7 2.7 0.15" />
<path style="fill:none;stroke-width:0.7;stroke-linecap:round;stroke-linejoin:round;stroke-miterlimit:3;stroke:#000000;stroke-opacity:0.301961" d="M7.6 3.55Q5.45 -0.7 2.7 0.15Q0.85 1.7 0.3 5.25L0.15 6.1Q-0.25 7.95 0.35 9.1L7.35 13.6Q8.85 14 10.15 16.4Q10.3 17.75 11.45 18.4Q9.85 8.1 7.6 3.55z" />
</g>
<g id="PathID_2145" transform="matrix(1, 0, 0, 1, 0.15, 0.15)">
<path style="fill:#4F4943;fill-opacity:1" d="M8.75 30.75L8.9 29L8.75 30.75L7.95 28.45L7.7 30.7Q7 29.95 6.75 28.75L6.75 27.05Q10.3 25.25 12.05 23.35Q12.75 25.85 12.4 28.6Q11.8 29.95 10.7 31L11.45 29.15Q11.9 27.4 11.65 25.1Q11.9 27.4 11.45 29.15Q10.25 31.05 8.35 31.95L8.75 30.75" />
<path style="fill:none;stroke-width:0.7;stroke-linecap:round;stroke-linejoin:round;stroke-miterlimit:3;stroke:#000000;stroke-opacity:0.301961" d="M11.65 25.1Q11.9 27.4 11.45 29.15L10.7 31Q11.8 29.95 12.4 28.6Q12.75 25.85 12.05 23.35Q10.3 25.25 6.75 27.05L6.75 28.75Q7 29.95 7.7 30.7L7.95 28.45L8.75 30.75L8.9 29" />
<path style="fill:none;stroke-width:0.7;stroke-linecap:round;stroke-linejoin:round;stroke-miterlimit:3;stroke:#000000;stroke-opacity:0.301961" d="M11.45 29.15Q10.25 31.05 8.35 31.95L8.75 30.75" />
</g>
</svg>
