<?xml version="1.0" encoding="utf-8"?>
<svg version="1.1" id="Layer_1"
xmlns="http://www.w3.org/2000/svg"
xmlns:xlink="http://www.w3.org/1999/xlink"
width="17px" height="15px"
xml:space="preserve">
<g id="PathID_2340" transform="matrix(1, 0, 0, 1, 0.15, 0)">
<path style="fill:#545A5D;fill-opacity:1" d="M7.85 3.65L7.45 4.75Q7 9.4 10.05 11.2Q13.55 13 16.4 12.6Q15.35 14.6 14.1 14.35Q12.8 14.1 11.9 13Q10.9 12 9.15 11.7Q4.05 11.45 3.4 6.7Q1.5 5.85 0.7 4.1Q3 6.9 7.85 3.65" />
<path style="fill:#808080;fill-opacity:1" d="M0.7 4.1Q0.25 3.35 0.1 2.4L0 1.45Q2.8 -1.6 8.9 1.8Q8.25 2.45 7.85 3.65Q3 6.9 0.7 4.1" />
<path style="fill:none;stroke-width:0.7;stroke-linecap:round;stroke-linejoin:round;stroke-miterlimit:3;stroke:#000000;stroke-opacity:0.4" d="M7.85 3.65L7.45 4.75Q7 9.4 10.05 11.2Q13.55 13 16.4 12.6Q15.35 14.6 14.1 14.35Q12.8 14.1 11.9 13Q10.9 12 9.15 11.7Q4.05 11.45 3.4 6.7Q1.5 5.85 0.7 4.1Q0.25 3.35 0.1 2.4L0 1.45" />
<path style="fill:none;stroke-width:0.7;stroke-linecap:round;stroke-linejoin:round;stroke-miterlimit:3;stroke:#000000;stroke-opacity:0.4" d="M8.9 1.8Q8.25 2.45 7.85 3.65" />
</g>
</svg>
