<?xml version="1.0" encoding="utf-8"?>
<svg version="1.1" id="Layer_1"
xmlns="http://www.w3.org/2000/svg"
xmlns:xlink="http://www.w3.org/1999/xlink"
width="23px" height="17px"
xml:space="preserve">
<g id="PathID_1822" transform="matrix(1, 0, 0, 1, 0.15, 0.15)">
<path style="fill:#808080;fill-opacity:1" d="M8.95 11.95Q7.3 10.65 7.65 6.7Q5.7 11.95 9.05 16Q3.45 14 4.4 8.45Q3 11.4 3.75 13.6Q2.05 10.85 3.55 7.1Q1.6 7.4 0 5.65Q2.8 7.4 6.35 3.45Q8.15 1.45 8.85 1.05Q10.15 0.25 11.35 1.5L10.3 4Q7.1 7.2 8.95 11.95" />
<path style="fill:none;stroke-width:0.7;stroke-linecap:round;stroke-linejoin:round;stroke-miterlimit:3;stroke:#000000;stroke-opacity:0.4" d="M11.35 1.5Q10.15 0.25 8.85 1.05Q8.15 1.45 6.35 3.45Q2.8 7.4 0 5.65Q1.6 7.4 3.55 7.1Q2.05 10.85 3.75 13.6Q3 11.4 4.4 8.45Q3.45 14 9.05 16Q5.7 11.95 7.65 6.7Q7.3 10.65 8.95 11.95Q7.1 7.2 10.3 4" />
</g>
<g id="PathID_1823" transform="matrix(1, 0, 0, 1, 0.15, 0.15)">
<path style="fill:#8E8E8E;fill-opacity:1" d="M12.6 4.2L12.25 4.2Q11.1 4.25 10.6 6.65Q9.9 9.95 11.95 12.75Q8.75 12 8.65 6.5Q8.6 4.35 9.35 3.1Q10 1.9 11.55 2.5L12.25 3.1L12.5 1.1Q14.85 -1.3 17.15 1.6L19.2 4.05L19.5 4.3Q20.65 5.1 21.85 4.5Q21 6.4 19.35 5.6L19.05 5.05Q21.3 9.9 18.25 13.2Q20.7 7.15 15 3.85L12.6 4.2M19.05 5.05L19.35 5.6M12.25 3.1L11.55 2.5" />
<path style="fill:none;stroke-width:0.7;stroke-linecap:round;stroke-linejoin:round;stroke-miterlimit:3;stroke:#000000;stroke-opacity:0.4" d="M12.6 4.2L12.25 4.2Q11.1 4.25 10.6 6.65Q9.9 9.95 11.95 12.75Q8.75 12 8.65 6.5Q8.6 4.35 9.35 3.1Q10 1.9 11.55 2.5L12.5 1.1Q14.85 -1.3 17.15 1.6L19.2 4.05L19.5 4.3Q20.65 5.1 21.85 4.5Q21 6.4 19.35 5.6Q21.3 9.9 18.25 13.2Q20.7 7.15 15 3.85" />
<path style="fill:none;stroke-width:0.7;stroke-linecap:round;stroke-linejoin:round;stroke-miterlimit:3;stroke:#000000;stroke-opacity:0.4" d="M19.05 5.05L19.35 5.6" />
<path style="fill:none;stroke-width:0.7;stroke-linecap:round;stroke-linejoin:round;stroke-miterlimit:3;stroke:#000000;stroke-opacity:0.4" d="M11.55 2.5L12.25 3.1" />
</g>
</svg>
