<?xml version="1.0" encoding="utf-8"?>
<svg version="1.1" id="Layer_1"
xmlns="http://www.w3.org/2000/svg"
xmlns:xlink="http://www.w3.org/1999/xlink"
width="4px" height="5px"
xml:space="preserve">
<g id="PathID_2176" transform="matrix(1, 0, 0, 1, 0.15, 0.15)">
<path style="fill:#808080;fill-opacity:1" d="M0.95 1.75Q0.75 0.7 0 0L0.85 0.4Q2.35 1 3.05 1.6L2.9 3Q2.2 1.65 0.95 1.75" />
<path style="fill:#6B6C6C;fill-opacity:1" d="M0.95 1.75Q2.2 1.65 2.9 3L1.9 4.7L1.25 4.05L0.8 3.5L0.95 1.75" />
<path style="fill:none;stroke-width:0.7;stroke-linecap:round;stroke-linejoin:round;stroke-miterlimit:3;stroke:#000000;stroke-opacity:0.34902" d="M3.05 1.6Q2.35 1 0.85 0.4L0 0Q0.75 0.7 0.95 1.75" />
<path style="fill:none;stroke-width:0.7;stroke-linecap:round;stroke-linejoin:round;stroke-miterlimit:3;stroke:#000000;stroke-opacity:0.34902" d="M1.9 4.7L1.25 4.05L0.8 3.5L0.95 1.75" />
</g>
</svg>
