<?xml version="1.0" encoding="utf-8"?>
<svg version="1.1" id="Layer_1"
xmlns="http://www.w3.org/2000/svg"
xmlns:xlink="http://www.w3.org/1999/xlink"
width="10px" height="9px"
xml:space="preserve">
<g id="PathID_485" transform="matrix(1, 0, 0, 1, 10.8, -11.55)">
<path style="fill:#FAD174;fill-opacity:1" d="M-5.8 11.65L-5.7 11.6L-5.7 11.55L-5.45 11.75L-5.45 11.85L-5.6 11.9L-5.8 11.65M-10.8 14.7L-10.7 14.65L-10.7 14.6L-10.45 14.7L-10.35 14.85L-10.45 15.1L-10.8 14.7M-2.5 15.1L-2.7 15.05L-2.7 14.8L-2.55 14.8L-2.35 14.9L-2.5 15.1M-1.5 15.15L-1.75 15.2L-1.8 15.1L-1.6 14.9L-1.5 14.95L-1.5 15.15M-4.2 14.9L-4.4 14.8L-4.05 14.55L-4 14.65L-4.2 14.9M-3.65 16.7L-3.8 16.65L-3.55 16.3L-3.45 16.35L-3.45 16.65L-3.65 16.7M-3.75 15.8L-3.85 15.75Q-3.9 15.4 -3.6 15.35Q-3.3 15.3 -3.4 15.65L-3.75 15.8M-4.7 15.9L-4.95 15.6Q-4.65 15.55 -4.65 15.7L-4.7 15.9M-3.65 17.9L-3.75 18.1L-3.95 18L-3.7 17.8L-3.65 17.9M-2.4 15.95L-2.35 15.8L-2.25 15.8L-2.1 15.85L-2.1 16L-2.35 16.05L-2.4 15.95M-5.65 12.95L-5.95 12.7L-5.9 12.5L-5.6 12.75L-5.65 12.95M-6.05 15.3L-6.15 15.35L-6.3 15.15L-6.2 15L-6.05 15.05L-6.05 15.3M-6.05 13.95L-5.95 13.8L-5.8 14L-5.85 14.1L-6 14.1L-6.05 13.95M-9.35 15Q-9.2 14.85 -8.9 15L-8.95 15.2L-9.3 15.2L-9.35 15M-8.45 14.3L-8.25 14.05L-8.2 14.3L-8.25 14.35L-8.45 14.3M-8.55 15.45Q-8.3 15.45 -8.4 15.75L-8.55 15.8L-8.75 15.75L-8.75 15.45L-8.55 15.45M-7.8 15.3L-8.05 15.2L-8 15L-7.7 15.05L-7.65 15.1L-7.8 15.3M-8.95 17.6L-8.8 17.65L-8.8 17.75L-9.1 17.8L-9.15 17.75L-9.15 17.6L-8.95 17.6M-8.1 18.05L-8.15 17.95L-8 17.75L-7.75 17.6L-7.65 17.65L-7.8 17.85L-8.1 18.05M-6.3 16.35L-6.55 16.4L-6.6 16.3L-6.4 16.05L-6.3 16.1L-6.3 16.35M-6.85 16.85L-6.85 17.05L-7.15 17.05L-7.2 16.95L-6.85 16.85M-7.05 18.4L-7 18.6L-7.05 18.7L-7.3 18.6L-7.3 18.4L-7.05 18.4M-5.15 17.8L-5.35 17.8L-5.4 17.65L-5.2 17.5L-5.1 17.55L-5.15 17.8M-5.4 19.5L-5.15 19.5L-5.1 19.65L-5.15 19.75L-5.4 19.65L-5.4 19.5M-8 19.95L-8.15 20L-8.3 19.95L-8.3 19.8L-8.05 19.8L-8 19.85L-8 19.95M-9.95 19.9Q-9.95 19.7 -9.6 19.75L-9.55 19.85L-9.6 20L-9.9 20L-9.95 19.9M-9.15 18.95L-9.05 18.8Q-8.85 18.8 -8.85 19.1L-9.1 19.15L-9.15 18.95M-3.35 19.35L-3.55 19.3L-3.55 19.1L-3.35 19.1L-3.3 19.3L-3.35 19.35M-4.6 19L-4.9 19L-4.95 18.7L-4.55 18.7L-4.5 18.75L-4.6 19M-4.15 20.15L-4.15 20L-3.75 20L-3.7 20.3L-3.85 20.35L-4.15 20.15" />
</g>
</svg>
