<?xml version="1.0" encoding="utf-8"?>
<svg version="1.1" id="Layer_1"
xmlns="http://www.w3.org/2000/svg"
xmlns:xlink="http://www.w3.org/1999/xlink"
width="7px" height="6px"
xml:space="preserve">
<g id="PathID_2455" transform="matrix(1, 0, 0, 1, 0.15, 0.15)">
<path style="fill:#808080;fill-opacity:1" d="M5.15 4.05Q4.1 5.4 2.7 5.35Q0 5.3 0 3.3Q0 2.05 1.35 0.9Q2.6 -0.15 3.65 0L4.05 0Q6.05 0.25 6.05 1.5Q6.05 2.85 5.15 4.05M2.9 1.3Q2.9 0.9 2.3 0.9L1.8 1.25L1.6 1.5L1.55 1.6L1.65 2L2.1 2.05L2.65 1.8L2.9 1.3" />
<path style="fill:#100E0E;fill-opacity:1" d="M2.65 1.8L2.1 2.05L1.65 2L1.55 1.6L1.6 1.5L1.8 1.25L2.3 0.9Q2.9 0.9 2.9 1.3L2.65 1.8" />
<path style="fill:none;stroke-width:0.7;stroke-linecap:round;stroke-linejoin:round;stroke-miterlimit:3;stroke:#000000;stroke-opacity:0.4" d="M6.05 1.5Q6.05 0.25 4.05 0L3.65 0Q2.6 -0.15 1.35 0.9Q0 2.05 0 3.3Q0 5.3 2.7 5.35Q4.1 5.4 5.15 4.05Q6.05 2.85 6.05 1.5z" />
</g>
</svg>
