<?xml version="1.0" encoding="utf-8"?>
<svg version="1.1" id="Layer_1"
xmlns="http://www.w3.org/2000/svg"
xmlns:xlink="http://www.w3.org/1999/xlink"
width="28px" height="27px"
xml:space="preserve">
<g id="PathID_2125" transform="matrix(1, 0, 0, 1, 0.15, 0.5)">
<linearGradient
id="LinearGradID_648" gradientUnits="userSpaceOnUse" gradientTransform="matrix(0.00238037, -0.00238037, 0.00323486, 0.00323486, 9.5, 19.45)" spreadMethod ="pad" x1="-819.2" y1="0" x2="819.2" y2="0" >
<stop  offset="0" style="stop-color:#5B5855;stop-opacity:1" />
<stop  offset="0.988235" style="stop-color:#464442;stop-opacity:1" />
</linearGradient>
<path style="fill:url(#LinearGradID_648) " d="M6.7 22.8Q7.9 21.6 9.5 20.75Q7.9 21.6 6.7 22.8L6.9 20.8L5.95 21.85L5.2 22.65L7.5 18.75L5.6 20.15L4.85 21.1L4.05 21.8Q2.45 22.6 1.6 22.15L2.8 21.7L3.25 20.95L4.15 20.8L3.25 20.95Q4.55 19.9 2.95 19.4L4.3 18.85L5.25 18.3L7.15 16.95Q12 14.5 14.7 16.95Q10.95 21.85 6.3 23.2L6.7 22.8M5.15 22.75Q4.65 23.3 4.45 24.05L2.65 24.05Q4.4 23.55 5.15 22.75M5.6 20.15L6.3 18.75L5.6 20.15M7.8 20.55Q10.55 19.5 11.85 17.85Q10.55 19.5 7.8 20.55" />
<path style="fill:#838383;fill-opacity:1" d="M7.15 16.95L5.25 18.3Q2.6 18.2 1.2 17.4Q3.9 17.85 5.7 16.95L7.15 16.95M2.8 21.7Q1.05 21.6 0.7 21.2L2 20.8Q0.9 20.4 0 19.3L2.95 19.4Q4.55 19.9 3.25 20.95L2.8 21.7M4.85 21.1L5.6 20.15L7.5 18.75L5.2 22.65L5.95 21.85L6.9 20.8L6.7 22.8L6.3 23.2Q5.2 24.3 4.35 25.65L4.45 24.05Q4.65 23.3 5.15 22.75Q4.4 23.55 2.65 24.05Q1.8 23.85 1.2 23.4Q2.85 22.75 4.05 21.8L4.85 21.1M3.25 20.95L2 20.8L3.25 20.95M5.15 22.75L5.15 22.7L5.2 22.65L5.15 22.7L5.15 22.75" />
<path style="fill:none;stroke-width:0.7;stroke-linecap:round;stroke-linejoin:round;stroke-miterlimit:3;stroke:#000000;stroke-opacity:0.4" d="M7.15 16.95L5.25 18.3" />
<path style="fill:none;stroke-width:0.7;stroke-linecap:round;stroke-linejoin:round;stroke-miterlimit:3;stroke:#000000;stroke-opacity:0.4" d="M5.25 18.3L4.3 18.85L2.95 19.4" />
<path style="fill:none;stroke-width:0.7;stroke-linecap:round;stroke-linejoin:round;stroke-miterlimit:3;stroke:#000000;stroke-opacity:0.4" d="M3.25 20.95L4.15 20.8" />
<path style="fill:none;stroke-width:0.7;stroke-linecap:round;stroke-linejoin:round;stroke-miterlimit:3;stroke:#000000;stroke-opacity:0.4" d="M5.25 18.3Q2.6 18.2 1.2 17.4Q3.9 17.85 5.7 16.95L7.15 16.95" />
<path style="fill:none;stroke-width:0.7;stroke-linecap:round;stroke-linejoin:round;stroke-miterlimit:3;stroke:#000000;stroke-opacity:0.4" d="M7.15 16.95Q12 14.5 14.7 16.95" />
<path style="fill:none;stroke-width:0.7;stroke-linecap:round;stroke-linejoin:round;stroke-miterlimit:3;stroke:#000000;stroke-opacity:0.4" d="M14.7 16.95Q10.95 21.85 6.3 23.2Q5.2 24.3 4.35 25.65L4.45 24.05L2.65 24.05Q1.8 23.85 1.2 23.4Q2.85 22.75 4.05 21.8Q2.45 22.6 1.6 22.15L2.8 21.7Q1.05 21.6 0.7 21.2L2 20.8Q0.9 20.4 0 19.3L2.95 19.4" />
<path style="fill:none;stroke-width:0.7;stroke-linecap:round;stroke-linejoin:round;stroke-miterlimit:3;stroke:#000000;stroke-opacity:0.4" d="M5.6 20.15L4.85 21.1L4.05 21.8" />
<path style="fill:none;stroke-width:0.7;stroke-linecap:round;stroke-linejoin:round;stroke-miterlimit:3;stroke:#000000;stroke-opacity:0.4" d="M2 20.8L3.25 20.95" />
<path style="fill:none;stroke-width:0.7;stroke-linecap:round;stroke-linejoin:round;stroke-miterlimit:3;stroke:#000000;stroke-opacity:0.4" d="M5.2 22.65L5.95 21.85" />
<path style="fill:none;stroke-width:0.7;stroke-linecap:round;stroke-linejoin:round;stroke-miterlimit:3;stroke:#000000;stroke-opacity:0.4" d="M6.7 22.8Q7.9 21.6 9.5 20.75" />
<path style="fill:none;stroke-width:0.7;stroke-linecap:round;stroke-linejoin:round;stroke-miterlimit:3;stroke:#000000;stroke-opacity:0.4" d="M6.3 18.75L5.6 20.15" />
<path style="fill:none;stroke-width:0.7;stroke-linecap:round;stroke-linejoin:round;stroke-miterlimit:3;stroke:#000000;stroke-opacity:0.4" d="M6.3 23.2L6.7 22.8" />
<path style="fill:none;stroke-width:0.7;stroke-linecap:round;stroke-linejoin:round;stroke-miterlimit:3;stroke:#000000;stroke-opacity:0.4" d="M5.2 22.65L5.15 22.7L5.15 22.75Q4.65 23.3 4.45 24.05" />
<path style="fill:none;stroke-width:0.7;stroke-linecap:round;stroke-linejoin:round;stroke-miterlimit:3;stroke:#000000;stroke-opacity:0.4" d="M11.85 17.85Q10.55 19.5 7.8 20.55" />
</g>
<g id="PathID_2126" transform="matrix(1, 0, 0, 1, 0.15, 0.5)">
<path style="fill:#5B5855;fill-opacity:1" d="M21.9 13.4Q22.95 12.7 24 13.7Q21.7 14.8 20.95 18.3Q20.4 14.5 21.9 13.4" />
<path style="fill:none;stroke-width:0.7;stroke-linecap:round;stroke-linejoin:round;stroke-miterlimit:3;stroke:#000000;stroke-opacity:0.4" d="M21.9 13.4Q22.95 12.7 24 13.7Q21.7 14.8 20.95 18.3Q20.4 14.5 21.9 13.4z" />
</g>
<g id="PathID_2127" transform="matrix(1, 0, 0, 1, 0.15, 0.5)">
<radialGradient
id="RadialGradID_649" gradientUnits="userSpaceOnUse" gradientTransform="matrix(0.0211945, 0, 0, 0.0211945, 8.4, -1.15)" spreadMethod ="pad" cx="0" cy="0" r="819.2" fx="0" fy="0" >
<stop  offset="0"  style="stop-color:#A8A8A8;stop-opacity:1" />
<stop  offset="0.988235"  style="stop-color:#808080;stop-opacity:1" />
</radialGradient>
<path style="fill:url(#RadialGradID_649) " d="M24.95 6.5L25.55 7.35L23.6 6.55Q24.65 7.65 25.1 9.6L22.85 5.95L22.25 5.6L21.5 4.65Q21.1 2.55 23.9 0Q21.8 4 24.15 5.5L24.95 6.5M25.1 9.6Q24.55 11.8 22.05 10.95Q21.1 10.2 19.85 10.1L18.9 10.1Q16.9 10.1 15.85 11.05L14 12.95L11.85 13.15L11.75 13.15Q14 10.05 17.65 8.65L18.3 8.65L17.65 8.65Q14.15 8.65 11.45 12.2L10.55 13.2L6.05 12.8Q8.25 10.5 12 9.2Q10.05 9.15 7.7 9.9Q6.6 10.15 5.65 10.75Q4.1 11.6 2.85 13Q3 11 4.05 9.95Q5.1 8.85 6.15 8.45Q7.7 7.45 10.2 7.2Q13.7 7.2 16.5 5.7Q18.15 4.85 20.35 5.15Q21.5 5.3 22.25 5.6L22.85 5.95L23.6 6.55M15.25 5.55Q7.6 7.75 7.25 6.6Q10.45 2.1 17.25 2.45L19.1 2.95Q19.8 3.95 15.25 5.55M12.75 9.2L12 9.2L12.75 9.2M17.7 10.6Q19.3 10.05 21.1 11.05Q19.6 11.15 18.25 11.75Q16.85 12.3 13.65 14.6Q15.25 11.55 17.7 10.6" />
<path style="fill:#5B5855;fill-opacity:1" d="M6.15 8.45L7.25 6.6Q7.6 7.75 15.25 5.55Q19.8 3.95 19.1 2.95Q20.5 3.55 21.5 4.65L22.25 5.6Q21.5 5.3 20.35 5.15Q18.15 4.85 16.5 5.7Q13.7 7.2 10.2 7.2Q7.7 7.45 6.15 8.45M14 12.95L12.9 14.2Q11.5 15.9 6.85 16.3Q11.5 15.9 12.9 14.2L14 12.95L15.85 11.05Q16.9 10.1 18.9 10.1L19.85 10.1Q21.1 10.2 22.05 10.95Q23.05 11.75 23.65 13.35Q22.45 11.05 20.3 11.7Q18.8 12.55 17.25 14L14.3 15.95L10.7 16.55L4.85 16.35L10.7 16.55L14.3 15.95L17.25 14Q18.8 12.55 20.3 11.7Q22.45 11.05 23.65 13.35Q23.05 11.75 22.05 10.95Q24.55 11.8 25.1 9.6L25.4 12.8L25.1 9.6Q24.65 7.65 23.6 6.55L25.55 7.35L24.95 6.5L24.15 5.5Q25.6 5.95 26.8 7.95Q27.85 9.95 26.75 12.6L26.55 13.6L25.4 12.8Q25 13.7 23.65 13.35Q20.65 11.05 19.1 14.1Q17.3 16.65 13.25 17Q3.8 17.35 1.2 15.65L4.85 16.35L6.85 16.3L4.05 15.7Q2.3 15.2 1.55 14.5Q3.45 13.7 5.25 12.3L5.55 12.05L5.65 10.75Q6.6 10.15 7.7 9.9Q10.05 9.15 12 9.2Q8.25 10.5 6.05 12.8L10.55 13.2Q7.75 16 4.05 15.7Q7.75 16 10.55 13.2L11.45 12.2Q14.15 8.65 17.65 8.65Q14 10.05 11.75 13.15L11.85 13.15L14 12.95M25.55 7.35L26.25 8.75Q26.95 10.55 26.75 12.6Q26.95 10.55 26.25 8.75L25.55 7.35M5.55 12.05L7.7 9.9L5.55 12.05M13.65 14.6Q16.85 12.3 18.25 11.75Q19.6 11.15 21.1 11.05Q19.3 10.05 17.7 10.6Q15.25 11.55 13.65 14.6" />
<path style="fill:none;stroke-width:0.7;stroke-linecap:round;stroke-linejoin:round;stroke-miterlimit:3;stroke:#000000;stroke-opacity:0.4" d="M24.15 5.5Q21.8 4 23.9 0Q21.1 2.55 21.5 4.65" />
<path style="fill:none;stroke-width:0.7;stroke-linecap:round;stroke-linejoin:round;stroke-miterlimit:3;stroke:#000000;stroke-opacity:0.4" d="M21.5 4.65L22.25 5.6L22.85 5.95L23.6 6.55" />
<path style="fill:none;stroke-width:0.7;stroke-linecap:round;stroke-linejoin:round;stroke-miterlimit:3;stroke:#000000;stroke-opacity:0.4" d="M25.55 7.35L24.95 6.5L24.15 5.5" />
<path style="fill:none;stroke-width:0.7;stroke-linecap:round;stroke-linejoin:round;stroke-miterlimit:3;stroke:#000000;stroke-opacity:0.4" d="M24.15 5.5Q25.6 5.95 26.8 7.95Q27.85 9.95 26.75 12.6L26.55 13.6L25.4 12.8Q25 13.7 23.65 13.35Q20.65 11.05 19.1 14.1Q17.3 16.65 13.25 17Q3.8 17.35 1.2 15.65L4.85 16.35" />
<path style="fill:none;stroke-width:0.7;stroke-linecap:round;stroke-linejoin:round;stroke-miterlimit:3;stroke:#000000;stroke-opacity:0.4" d="M4.85 16.35L6.85 16.3L4.05 15.7" />
<path style="fill:none;stroke-width:0.7;stroke-linecap:round;stroke-linejoin:round;stroke-miterlimit:3;stroke:#000000;stroke-opacity:0.4" d="M4.05 15.7Q2.3 15.2 1.55 14.5Q3.45 13.7 5.25 12.3L5.55 12.05L5.65 10.75Q4.1 11.6 2.85 13Q3 11 4.05 9.95Q5.1 8.85 6.15 8.45L7.25 6.6Q10.45 2.1 17.25 2.45L19.1 2.95Q20.5 3.55 21.5 4.65" />
<path style="fill:none;stroke-width:0.7;stroke-linecap:round;stroke-linejoin:round;stroke-miterlimit:3;stroke:#000000;stroke-opacity:0.4" d="M22.25 5.6Q21.5 5.3 20.35 5.15Q18.15 4.85 16.5 5.7Q13.7 7.2 10.2 7.2Q7.7 7.45 6.15 8.45" />
<path style="fill:none;stroke-width:0.7;stroke-linecap:round;stroke-linejoin:round;stroke-miterlimit:3;stroke:#000000;stroke-opacity:0.4" d="M22.05 10.95Q23.05 11.75 23.65 13.35Q22.45 11.05 20.3 11.7Q18.8 12.55 17.25 14L14.3 15.95L10.7 16.55L4.85 16.35" />
<path style="fill:none;stroke-width:0.7;stroke-linecap:round;stroke-linejoin:round;stroke-miterlimit:3;stroke:#000000;stroke-opacity:0.4" d="M25.1 9.6Q24.65 7.65 23.6 6.55" />
<path style="fill:none;stroke-width:0.7;stroke-linecap:round;stroke-linejoin:round;stroke-miterlimit:3;stroke:#000000;stroke-opacity:0.4" d="M26.75 12.6Q26.95 10.55 26.25 8.75L25.55 7.35" />
<path style="fill:none;stroke-width:0.7;stroke-linecap:round;stroke-linejoin:round;stroke-miterlimit:3;stroke:#000000;stroke-opacity:0.4" d="M25.4 12.8L25.1 9.6" />
<path style="fill:none;stroke-width:0.7;stroke-linecap:round;stroke-linejoin:round;stroke-miterlimit:3;stroke:#000000;stroke-opacity:0.4" d="M10.55 13.2L11.45 12.2Q14.15 8.65 17.65 8.65L18.3 8.65" />
<path style="fill:none;stroke-width:0.7;stroke-linecap:round;stroke-linejoin:round;stroke-miterlimit:3;stroke:#000000;stroke-opacity:0.4" d="M22.05 10.95Q21.1 10.2 19.85 10.1L18.9 10.1Q16.9 10.1 15.85 11.05L14 12.95L12.9 14.2Q11.5 15.9 6.85 16.3" />
<path style="fill:none;stroke-width:0.7;stroke-linecap:round;stroke-linejoin:round;stroke-miterlimit:3;stroke:#000000;stroke-opacity:0.4" d="M12 9.2L12.75 9.2" />
<path style="fill:none;stroke-width:0.7;stroke-linecap:round;stroke-linejoin:round;stroke-miterlimit:3;stroke:#000000;stroke-opacity:0.4" d="M5.65 10.75Q6.6 10.15 7.7 9.9Q10.05 9.15 12 9.2" />
<path style="fill:none;stroke-width:0.7;stroke-linecap:round;stroke-linejoin:round;stroke-miterlimit:3;stroke:#000000;stroke-opacity:0.4" d="M10.55 13.2Q7.75 16 4.05 15.7" />
<path style="fill:none;stroke-width:0.7;stroke-linecap:round;stroke-linejoin:round;stroke-miterlimit:3;stroke:#000000;stroke-opacity:0.4" d="M7.7 9.9L5.55 12.05" />
</g>
<g id="PathID_2128" transform="matrix(1, 0, 0, 1, 0.15, 0.5)">
<radialGradient
id="RadialGradID_650" gradientUnits="userSpaceOnUse" gradientTransform="matrix(0.0125885, 0, 0, 0.0125885, 10.5, 2.3)" spreadMethod ="pad" cx="0" cy="0" r="819.2" fx="0" fy="0" >
<stop  offset="0"  style="stop-color:#A8A8A8;stop-opacity:1" />
<stop  offset="0.988235"  style="stop-color:#808080;stop-opacity:1" />
</radialGradient>
<path style="fill:url(#RadialGradID_650) " d="M17.8 7.95Q15.3 8.45 12 7.25Q7.9 5.85 9.25 -0.35Q10.2 3.85 12.2 4.55Q13.5 4.95 17 4.55Q19.75 4.25 21.7 6.75Q23 9.45 21.05 8.8Q19.7 7.55 17.8 7.95" />
<path style="fill:#5B5855;fill-opacity:1" d="M24 13.85Q22.6 10.25 21.05 8.8Q23 9.45 21.7 6.75Q23.85 9.2 24 13.85" />
<path style="fill:none;stroke-width:0.7;stroke-linecap:round;stroke-linejoin:round;stroke-miterlimit:3;stroke:#000000;stroke-opacity:0.4" d="M21.05 8.8Q22.6 10.25 24 13.85Q23.85 9.2 21.7 6.75Q19.75 4.25 17 4.55Q13.5 4.95 12.2 4.55Q10.2 3.85 9.25 -0.35Q7.9 5.85 12 7.25Q15.3 8.45 17.8 7.95Q19.7 7.55 21.05 8.8z" />
</g>
</svg>
