<?xml version="1.0" encoding="utf-8"?>
<svg version="1.1" id="Layer_1"
xmlns="http://www.w3.org/2000/svg"
xmlns:xlink="http://www.w3.org/1999/xlink"
width="15px" height="31px"
xml:space="preserve">
<g id="PathID_1716" transform="matrix(1, 0, 0, 1, 0, 0.05)">
<linearGradient
id="LinearGradID_507" gradientUnits="userSpaceOnUse" gradientTransform="matrix(0.00224304, -0.00836182, 0.0173798, 0.00463867, 7.5, 18.45)" spreadMethod ="pad" x1="-819.2" y1="0" x2="819.2" y2="0" >
<stop  offset="0" style="stop-color:#808080;stop-opacity:1" />
<stop  offset="1" style="stop-color:#808080;stop-opacity:0" />
</linearGradient>
<path style="fill:url(#LinearGradID_507) " d="M5.9 2.3Q3.75 5.05 2.9 11.3L6.25 2.6Q8.1 2.95 9.85 2.6Q12.1 2.15 13.2 4L13.7 5.05L13.65 5.05L12.85 4.9L12.7 4.95L12.4 5.05L12.45 5.1Q10.2 5.4 8.45 6.9Q6.2 8.75 5.75 11.95Q5.25 15.15 5.75 16.65Q6.15 18 7.05 18.95L7.05 20.65L8.65 20.65L8.45 21.3Q9.85 21.9 11.4 22.3L11.7 22.4L11.75 22.4L11.8 22.45L11.75 22.45Q10.9 22.8 9.35 24.4L4.2 29.1L2.85 30.7Q1.3 30.65 0.5 29.8L0 28.9L0.6 28.85Q3.4 29.45 5.55 26.6Q2.65 28.1 3.2 27.35Q2.45 27.85 1.45 26.95L2.4 26.75L4.1 26.05L3.5 25.65Q4.1 24.35 3.65 22L2.9 19.95Q1.05 14.65 1.55 10.2Q2.1 4.85 3.85 2.5L5 1.2Q5.3 2.25 5.9 2.3M7.05 20.65Q6.75 24.4 4.1 26.05L4.95 25.1Q5.7 23.6 4.45 20.05Q2.7 15.15 2.9 11.3Q3.75 5.05 5.9 2.3M2.9 11.3Q2.7 15.15 4.45 20.05Q5.7 23.6 4.95 25.1L4.1 26.05Q6.75 24.4 7.05 20.65L7.05 18.95M5.55 26.6Q7.65 23.85 8.45 21.3L8.65 20.65M8.45 21.3Q7.65 23.85 5.55 26.6Q3.4 29.45 0.6 28.85M4.1 26.05L2.4 26.75" />
<path style="fill:none;stroke-width:0.7;stroke-linecap:round;stroke-linejoin:round;stroke-miterlimit:3;stroke:#000000;stroke-opacity:0.4" d="M5.9 2.3Q6.7 1.15 7.75 0.6L8.75 0.2L9.05 0.15Q11.65 -0.5 13.25 1.55L13.3 1.6Q14.25 2.85 14.8 5.1" />
<path style="fill:none;stroke-width:0.7;stroke-linecap:round;stroke-linejoin:round;stroke-miterlimit:3;stroke:#000000;stroke-opacity:0.4" d="M5.9 2.3Q3.75 5.05 2.9 11.3Q2.7 15.15 4.45 20.05Q5.7 23.6 4.95 25.1L4.1 26.05" />
<path style="fill:none;stroke-width:0.7;stroke-linecap:round;stroke-linejoin:miter;stroke-miterlimit:5;stroke:#000000;stroke-opacity:0.4" d="M4.1 26.05Q6.75 24.4 7.05 20.65L7.05 18.95" />
<path style="fill:none;stroke-width:0.7;stroke-linecap:round;stroke-linejoin:miter;stroke-miterlimit:5;stroke:#000000;stroke-opacity:0.4" d="M8.65 20.65L8.45 21.3Q7.65 23.85 5.55 26.6Q3.4 29.45 0.6 28.85" />
<path style="fill:none;stroke-width:0.7;stroke-linecap:round;stroke-linejoin:miter;stroke-miterlimit:5;stroke:#000000;stroke-opacity:0.4" d="M4.1 26.05L2.4 26.75" />
</g>
</svg>
