<?xml version="1.0" encoding="utf-8"?>
<svg version="1.1" id="Layer_1"
xmlns="http://www.w3.org/2000/svg"
xmlns:xlink="http://www.w3.org/1999/xlink"
width="11px" height="10px"
xml:space="preserve">
<g id="PathID_1911" transform="matrix(1, 0, 0, 1, 0, 0)">
<path style="fill:#BDBDBD;fill-opacity:1" d="M3.15 2.05Q3.9 1.4 4.85 0.95Q2.95 2.4 2.25 4.45L4.65 3Q3.6 3.75 3.55 4.5Q3.65 5.65 6.7 5.75Q7.65 5.65 8.15 4.7L7.05 7.7L7.15 6.3L6.05 6.45L3.55 7.7L5.1 6.3Q3.1 6.2 2.4 5L1 6.1Q1.45 3.55 3.15 2.05" />
<path style="fill:#808080;fill-opacity:1" d="M7.4 0.95Q7 1.05 6.4 2.4L8.85 1.75Q9.65 4.8 7.05 7.7Q4.7 9.15 1.6 8.95L0 8.3Q0.45 8.05 1 6.1L2.4 5Q3.1 6.2 5.1 6.3L3.55 7.7L6.05 6.45L7.15 6.3L7.05 7.7L8.15 4.7Q7.65 5.65 6.7 5.75Q3.65 5.65 3.55 4.5Q3.6 3.75 4.65 3L2.25 4.45Q2.95 2.4 4.85 0.95L7.4 0.95" />
<path style="fill:#4F4943;fill-opacity:1" d="M1.6 8.95Q4.7 9.15 7.05 7.7Q9.65 4.8 8.85 1.75L6.4 2.4Q7 1.05 7.4 0.95L4.85 0.95Q6.45 0.2 8.7 0L10.3 1.6Q11.55 4.7 9.55 7.05Q5.65 10.25 1.6 8.95" />
<path style="fill:none;stroke-width:0.7;stroke-linecap:round;stroke-linejoin:round;stroke-miterlimit:3;stroke:#000000;stroke-opacity:0.4" d="M4.85 0.95Q3.9 1.4 3.15 2.05Q1.45 3.55 1 6.1Q0.45 8.05 0 8.3L1.6 8.95" />
<path style="fill:none;stroke-width:0.7;stroke-linecap:round;stroke-linejoin:round;stroke-miterlimit:3;stroke:#000000;stroke-opacity:0.4" d="M4.85 0.95Q6.45 0.2 8.7 0L10.3 1.6Q11.55 4.7 9.55 7.05Q5.65 10.25 1.6 8.95" />
</g>
</svg>
