<?xml version="1.0" encoding="utf-8"?>
<svg version="1.1" id="Layer_1"
xmlns="http://www.w3.org/2000/svg"
xmlns:xlink="http://www.w3.org/1999/xlink"
width="8px" height="10px"
xml:space="preserve">
<g id="PathID_2005" transform="matrix(1, 0, 0, 1, 0, 0)">
<linearGradient
id="LinearGradID_582" gradientUnits="userSpaceOnUse" gradientTransform="matrix(0, 0.00341797, -0.00479126, 0, 3.85, 2.55)" spreadMethod ="pad" x1="-819.2" y1="0" x2="819.2" y2="0" >
<stop  offset="0" style="stop-color:#808080;stop-opacity:0" />
<stop  offset="1" style="stop-color:#808080;stop-opacity:1" />
</linearGradient>
<path style="fill:url(#LinearGradID_582) " d="M3.8 6L3.55 6.6L3.5 7.25L3.85 7.9L3.95 8.2L3.1 7.95L2.55 7.55L2.1 7.1Q1.85 6.75 2.05 6L2.25 5.35Q0.5 4.7 0.15 4Q-0.1 3.45 0.05 2.95Q0.25 2.45 0.85 2.15L1.45 1.9Q0.95 2.75 2.05 4L1.6 1.85L4.4 0.1Q5.2 0.75 5.1 1.05L4.55 0L5.25 0.15Q6 0.45 6.3 1Q6.75 1.9 6.2 3.3L6.35 3.7L6.35 4.45L6.05 5.1L5.8 5.6L5.85 5.65Q4.5 4.9 4.5 3Q6.05 5.85 6.75 6.1Q7.45 6.5 7.45 7.35Q7.45 8.25 6.75 8.75L5.95 9.2L6.55 8.2Q7 7.35 6.6 7.1L5.35 6.7Q4.45 6.45 3.8 5.95Q4.35 5.2 3.8 4.65L3.8 6M2.05 4Q2.45 4.45 3 4.4L3.8 4.65Q4.35 5.2 3.8 5.95M3.8 4.65L3 4.4Q2.45 4.45 2.05 4Q0.95 2.75 1.45 1.9M5.1 1.05Q4.5 2.25 4.5 3Q4.5 4.9 5.85 5.65M4.5 3Q4.5 2.25 5.1 1.05Q5.2 0.75 4.4 0.1" />
<path style="fill:none;stroke-width:0.7;stroke-linecap:round;stroke-linejoin:round;stroke-miterlimit:3;stroke:#000000;stroke-opacity:0.14902" d="M3.8 5.95L3.8 6" />
<path style="fill:none;stroke-width:0.7;stroke-linecap:round;stroke-linejoin:round;stroke-miterlimit:3;stroke:#000000;stroke-opacity:0.14902" d="M3.8 5.95Q4.35 5.2 3.8 4.65L3 4.4Q2.45 4.45 2.05 4Q0.95 2.75 1.45 1.9" />
<path style="fill:none;stroke-width:0.7;stroke-linecap:round;stroke-linejoin:round;stroke-miterlimit:3;stroke:#000000;stroke-opacity:0.14902" d="M5.85 5.65Q4.5 4.9 4.5 3Q4.5 2.25 5.1 1.05Q5.2 0.75 4.4 0.1" />
</g>
</svg>
