<?xml version="1.0" encoding="utf-8"?>
<svg version="1.1" id="Layer_1"
xmlns="http://www.w3.org/2000/svg"
xmlns:xlink="http://www.w3.org/1999/xlink"
width="9px" height="9px"
xml:space="preserve">
<g id="PathID_2590" transform="matrix(1, 0, 0, 1, 0, 0)">
<path style="fill:#808080;fill-opacity:1" d="M4.3 4.75Q2.9 6.8 0.8 7.45Q0.5 6.1 1.35 4.1L2.1 3.8Q0.4 2.45 0.25 0.3Q2.6 -0.1 4.2 2.2Q5.9 0.05 8 0Q8.35 2.4 6.6 3.8Q7.9 5.55 7.7 7.2Q5.55 6.75 4.3 4.75M5.55 1.8L4.6 3.75L2.8 2.2L4.6 3.75L5.55 1.8M2.65 5.15Q3.9 4.6 4.4 3.95L4.6 3.75L5.3 4.9L4.6 3.75L4.4 3.95Q3.9 4.6 2.65 5.15" />
<path style="fill:#4F4943;fill-opacity:1" d="M0.25 0.3Q0.4 2.45 2.1 3.8L1.35 4.1Q0.5 6.1 0.8 7.45Q2.9 6.8 4.3 4.75Q5.55 6.75 7.7 7.2Q5.5 7.8 4.3 5.45Q2.65 8.2 0 8.15Q0.05 5.95 1.35 4.1Q-0.25 2.8 0.25 0.3" />
<path style="fill:none;stroke-width:0.7;stroke-linecap:round;stroke-linejoin:round;stroke-miterlimit:3;stroke:#000000;stroke-opacity:0.4" d="M7.7 7.2Q7.9 5.55 6.6 3.8Q8.35 2.4 8 0Q5.9 0.05 4.2 2.2Q2.6 -0.1 0.25 0.3" />
<path style="fill:none;stroke-width:0.7;stroke-linecap:round;stroke-linejoin:round;stroke-miterlimit:3;stroke:#000000;stroke-opacity:0.4" d="M7.7 7.2Q5.5 7.8 4.3 5.45Q2.65 8.2 0 8.15Q0.05 5.95 1.35 4.1Q-0.25 2.8 0.25 0.3" />
<path style="fill:none;stroke-width:0.7;stroke-linecap:round;stroke-linejoin:round;stroke-miterlimit:3;stroke:#000000;stroke-opacity:0.4" d="M2.8 2.2L4.6 3.75L5.55 1.8" />
<path style="fill:none;stroke-width:0.7;stroke-linecap:round;stroke-linejoin:round;stroke-miterlimit:3;stroke:#000000;stroke-opacity:0.4" d="M5.3 4.9L4.6 3.75L4.4 3.95Q3.9 4.6 2.65 5.15" />
</g>
</svg>
