<?xml version="1.0" encoding="utf-8"?>
<svg version="1.1" id="Layer_1"
xmlns="http://www.w3.org/2000/svg"
xmlns:xlink="http://www.w3.org/1999/xlink"
width="26px" height="5px"
xml:space="preserve">
<g id="PathID_607" transform="matrix(1, 0, 0, 1, 12.9, 2.35)">
<path style="fill:#808080;fill-opacity:1" d="M11.8 -0.45L11.8 0.45L10.95 0.45L10.95 1.4L5.75 1.4L5.75 0.45L4.85 0.45L4.85 -0.45L3.1 -0.45L3.1 0.5L2.2 0.5L2.2 1.4L1.35 1.4L1.35 2.35L-4 2.35L-4 1.4L-4.9 1.4L-4.9 0.5L-5.8 0.5L-5.8 -0.45L-6.7 -0.45L-6.7 -1.4L-11.1 -1.4L-11.1 -0.5L-12.9 -0.5L-12.9 -1.45L-11.1 -1.45L-11.1 -2.35L12.9 -2.35L12.9 -0.45L11.8 -0.45" />
<path style="fill:none;stroke-width:0.7;stroke-linecap:round;stroke-linejoin:round;stroke-miterlimit:3;stroke:#000000;stroke-opacity:0.2" d="M11.8 -0.45L11.8 0.45L10.95 0.45L10.95 1.4L5.75 1.4L5.75 0.45L4.85 0.45L4.85 -0.45L3.1 -0.45L3.1 0.5L2.2 0.5L2.2 1.4L1.35 1.4L1.35 2.35L-4 2.35L-4 1.4L-4.9 1.4L-4.9 0.5L-5.8 0.5L-5.8 -0.45L-6.7 -0.45L-6.7 -1.4L-11.1 -1.4L-11.1 -0.5L-12.9 -0.5L-12.9 -1.45L-11.1 -1.45L-11.1 -2.35L12.9 -2.35L12.9 -0.45L11.8 -0.45z" />
</g>
</svg>
