<?xml version="1.0" encoding="utf-8"?>
<svg version="1.1" id="Layer_1"
xmlns="http://www.w3.org/2000/svg"
xmlns:xlink="http://www.w3.org/1999/xlink"
width="26px" height="26px"
xml:space="preserve">
<g id="PathID_3050" transform="matrix(1, 0, 0, 1, 0.1, 0.1)">
<path style="fill:#312927;fill-opacity:1" d="M11.9 9.8L12.75 9.4Q13.9 8.9 16.15 8.3L17.55 9.05L17.5 8.05L19.65 8Q21.9 8.15 23.15 8.85L23.85 9.35Q24.75 10.15 24.9 11.45Q25 12.85 24.25 14.2Q23.45 15.3 22.2 15.8L21.7 15L23.7 13.15Q18.2 9 17.55 9.05L14.05 10.05L11.85 10.85L11.9 9.8M2.4 21.25Q2.55 19.55 3.4 17.95Q4.25 16.45 6.2 14.1Q7.9 12.1 10.4 10.65L10.6 11.55Q10 11.95 3.95 20L7.25 23.2L7.9 23.8Q5.6 25.85 3.8 24.5Q2.65 23.6 2.4 22.4L2.4 21.25M10.8 3.85Q10.7 4.25 10.1 4.4L8.6 4.45L7.5 3.95Q6.8 3.5 6.85 3.2Q7 2.65 7.8 2.55L9 2.65L10.2 2.95Q10.95 3.35 10.8 3.85M4.4 5.8L4.25 7.35L3.5 8.55Q3.05 9.05 2.65 8.95Q2.4 8.85 2.3 8.2Q2.15 7.4 2.5 6.75L3.4 5.55Q3.9 5.05 4.1 5.15Q4.35 5.2 4.4 5.8" />
<radialGradient
id="RadialGradID_969" gradientUnits="userSpaceOnUse" gradientTransform="matrix(0.0193176, -0.00517273, 0.00466919, 0.0174103, 4.9, 5.1)" spreadMethod ="pad" cx="0" cy="0" r="819.2" fx="0" fy="0" >
<stop  offset="0"  style="stop-color:#9A9A9A;stop-opacity:1" />
<stop  offset="1"  style="stop-color:#382C29;stop-opacity:1" />
</radialGradient>
<path style="fill:url(#RadialGradID_969) " d="M0.5 17.95L0 15.35Q-0.3 5.8 5.05 2.65L7.25 1.65L8 1.45L9.9 1.15L13.55 1.5Q14.9 1.85 16.25 2.6L16.35 2.65Q18.45 3.75 20.6 5.65L21.3 6.3L21.45 6.45L23.85 9.35L23.15 8.85Q21.9 8.15 19.65 8L17.5 8.05L15.4 6.75L16.15 8.3Q13.9 8.9 12.75 9.4L11.9 9.8L9.75 8.45L10.4 10.65Q7.9 12.1 6.2 14.1Q4.25 16.45 3.4 17.95Q2.55 19.55 2.4 21.25L2.4 22.4L1.35 20.4Q0.85 19.25 0.5 17.95M10.2 2.95L9 2.65L7.8 2.55Q7 2.65 6.85 3.2Q6.8 3.5 7.5 3.95L8.6 4.45L10.1 4.4Q10.7 4.25 10.8 3.85Q10.95 3.35 10.2 2.95M4.1 5.15Q3.9 5.05 3.4 5.55L2.5 6.75Q2.15 7.4 2.3 8.2Q2.4 8.85 2.65 8.95Q3.05 9.05 3.5 8.55L4.25 7.35L4.4 5.8Q4.35 5.2 4.1 5.15" />
<radialGradient
id="RadialGradID_970" gradientUnits="userSpaceOnUse" gradientTransform="matrix(0.0193176, -0.00517273, 0.00466919, 0.0174103, 4.9, 5.1)" spreadMethod ="pad" cx="0" cy="0" r="819.2" fx="0" fy="0" >
<stop  offset="0"  style="stop-color:#A35A21;stop-opacity:1" />
<stop  offset="1"  style="stop-color:#3D0E00;stop-opacity:1" />
</radialGradient>
<path style="fill:url(#RadialGradID_970) " d="M21.3 6.3L21.35 6.3L21.45 6.45L21.3 6.3" />
<path style="fill:#3C322F;fill-opacity:1" d="M11.9 9.8L11.85 10.85L10.6 11.55L10.4 10.65L9.75 8.45L11.9 9.8M15.4 6.75L17.5 8.05L17.55 9.05L16.15 8.3L15.4 6.75" />
<path style="fill:none;stroke-width:0.7;stroke-linecap:round;stroke-linejoin:round;stroke-miterlimit:3;stroke:#000000;stroke-opacity:0.388235" d="M21.3 6.3L21.35 6.3L21.45 6.45Q23 7.7 24.55 8.25" />
<path style="fill:none;stroke-width:0.7;stroke-linecap:round;stroke-linejoin:round;stroke-miterlimit:3;stroke:#000000;stroke-opacity:0.388235" d="M21.3 6.3L21.45 6.45L23.85 9.35Q24.75 10.15 24.9 11.45Q25 12.85 24.25 14.2Q23.45 15.3 22.2 15.8L21.7 15" />
<path style="fill:none;stroke-width:0.7;stroke-linecap:round;stroke-linejoin:round;stroke-miterlimit:3;stroke:#000000;stroke-opacity:0.388235" d="M7.25 23.2L7.9 23.8Q5.6 25.85 3.8 24.5Q2.65 23.6 2.4 22.4L1.35 20.4Q1.85 22.65 0.5 24.1" />
<path style="fill:none;stroke-width:0.7;stroke-linecap:round;stroke-linejoin:round;stroke-miterlimit:3;stroke:#000000;stroke-opacity:0.388235" d="M16.35 2.65Q18.45 3.75 20.6 5.65L21.3 6.3" />
<path style="fill:none;stroke-width:0.7;stroke-linecap:round;stroke-linejoin:round;stroke-miterlimit:3;stroke:#000000;stroke-opacity:0.388235" d="M23.85 9.35L23.15 8.85Q21.9 8.15 19.65 8L17.5 8.05L17.55 9.05" />
<path style="fill:none;stroke-width:0.7;stroke-linecap:round;stroke-linejoin:round;stroke-miterlimit:3;stroke:#000000;stroke-opacity:0.388235" d="M16.15 8.3Q13.9 8.9 12.75 9.4L11.9 9.8L11.85 10.85" />
<path style="fill:none;stroke-width:0.7;stroke-linecap:round;stroke-linejoin:round;stroke-miterlimit:3;stroke:#000000;stroke-opacity:0.388235" d="M13.55 1.5Q14.9 1.85 16.25 2.6L16.35 2.65Q18.95 3.95 21.65 3.9" />
<path style="fill:none;stroke-width:0.7;stroke-linecap:round;stroke-linejoin:round;stroke-miterlimit:3;stroke:#000000;stroke-opacity:0.388235" d="M10.8 3.85Q10.7 4.25 10.1 4.4L8.6 4.45L7.5 3.95Q6.8 3.5 6.85 3.2Q7 2.65 7.8 2.55L9 2.65L10.2 2.95Q10.95 3.35 10.8 3.85z" />
<path style="fill:none;stroke-width:0.7;stroke-linecap:round;stroke-linejoin:round;stroke-miterlimit:3;stroke:#000000;stroke-opacity:0.388235" d="M10.4 10.65Q7.9 12.1 6.2 14.1Q4.25 16.45 3.4 17.95Q2.55 19.55 2.4 21.25L2.4 22.4" />
<path style="fill:none;stroke-width:0.7;stroke-linecap:round;stroke-linejoin:round;stroke-miterlimit:3;stroke:#000000;stroke-opacity:0.388235" d="M17.5 8.05L15.4 6.75L16.15 8.3" />
<path style="fill:none;stroke-width:0.7;stroke-linecap:round;stroke-linejoin:round;stroke-miterlimit:3;stroke:#000000;stroke-opacity:0.388235" d="M13.55 1.5Q16.2 2.1 17.95 0.7" />
<path style="fill:none;stroke-width:0.7;stroke-linecap:round;stroke-linejoin:round;stroke-miterlimit:3;stroke:#000000;stroke-opacity:0.388235" d="M8 1.45L9.9 1.15Q8.05 -1.25 7.35 1.4L8 1.45L7.25 1.65L5.05 2.65Q-0.3 5.8 0 15.35L0.5 17.95Q0.85 19.25 1.35 20.4" />
<path style="fill:none;stroke-width:0.7;stroke-linecap:round;stroke-linejoin:round;stroke-miterlimit:3;stroke:#000000;stroke-opacity:0.388235" d="M7.25 1.65L7.35 1.4Q6.3 1 5.05 2.65Q3.25 1.1 2 2.65" />
<path style="fill:none;stroke-width:0.7;stroke-linecap:round;stroke-linejoin:round;stroke-miterlimit:3;stroke:#000000;stroke-opacity:0.388235" d="M4.1 5.15Q3.9 5.05 3.4 5.55L2.5 6.75Q2.15 7.4 2.3 8.2Q2.4 8.85 2.65 8.95Q3.05 9.05 3.5 8.55L4.25 7.35L4.4 5.8Q4.35 5.2 4.1 5.15z" />
<path style="fill:none;stroke-width:0.7;stroke-linecap:round;stroke-linejoin:round;stroke-miterlimit:3;stroke:#000000;stroke-opacity:0.388235" d="M0.5 17.95Q0.9 19.8 0.05 21" />
<path style="fill:none;stroke-width:0.7;stroke-linecap:round;stroke-linejoin:round;stroke-miterlimit:3;stroke:#000000;stroke-opacity:0.388235" d="M10.4 10.65L9.75 8.45L11.9 9.8" />
<path style="fill:none;stroke-width:0.7;stroke-linecap:round;stroke-linejoin:round;stroke-miterlimit:3;stroke:#000000;stroke-opacity:0.388235" d="M9.9 1.15L13.55 1.5" />
</g>
</svg>
