<?xml version="1.0" encoding="utf-8"?>
<svg version="1.1" id="Layer_1"
xmlns="http://www.w3.org/2000/svg"
xmlns:xlink="http://www.w3.org/1999/xlink"
width="11px" height="11px"
xml:space="preserve">
<g id="PathID_686" transform="matrix(1, 0, 0, 1, -0.5, -0.5)">
<radialGradient
id="RadialGradID_229" gradientUnits="userSpaceOnUse" gradientTransform="matrix(0.00653076, 0, 0, 0.00653076, 6, 6)" spreadMethod ="pad" cx="0" cy="0" r="819.2" fx="0" fy="0" >
<stop  offset="0"  style="stop-color:#FFFFFF;stop-opacity:0.2" />
<stop  offset="0.627451"  style="stop-color:#FFFFFF;stop-opacity:0" />
<stop  offset="1"  style="stop-color:#FFFFFF;stop-opacity:1" />
</radialGradient>
<path style="fill:url(#RadialGradID_229) " d="M9.5 2.45Q11 3.95 11 6Q11 8.05 9.5 9.5Q8.05 11 6 11Q3.95 11 2.45 9.5Q1 8.05 1 6Q1 3.95 2.45 2.45Q3.95 1 6 1Q8.05 1 9.5 2.45" />
<path style="fill:none;stroke-width:1;stroke-linecap:round;stroke-linejoin:round;stroke-miterlimit:3;stroke:#000000;stroke-opacity:0.4" d="M9.5 2.45Q11 3.95 11 6Q11 8.05 9.5 9.5Q8.05 11 6 11Q3.95 11 2.45 9.5Q1 8.05 1 6Q1 3.95 2.45 2.45Q3.95 1 6 1Q8.05 1 9.5 2.45z" />
</g>
</svg>
