<?xml version="1.0" encoding="utf-8"?>
<svg version="1.1" id="Layer_1"
xmlns="http://www.w3.org/2000/svg"
xmlns:xlink="http://www.w3.org/1999/xlink"
width="4px" height="10px"
xml:space="preserve">
<g id="PathID_3823" transform="matrix(1, 0, 0, 1, 0.1, 0)">
<path style="fill:#808080;fill-opacity:1" d="M0.7 2.7L0.25 1.55L2.35 1.7L0.4 0.7L0.65 0L1.4 0.3L2.25 0.8Q3.05 2 3.25 3.05L2.25 2.95L2.55 3.65L1.9 4.15L1.4 3.2L1 3.55L0.7 2.7" />
<path style="fill:#585858;fill-opacity:1" d="M1 3.55L1.4 3.2L1.9 4.15L1.2 3.75L0.6 4L0.6 2.95L0.7 2.7L1 3.55" />
<radialGradient
id="RadialGradID_1263" gradientUnits="userSpaceOnUse" gradientTransform="matrix(0.00474548, 0, 0, 0.00683594, 1.7, 2.8)" spreadMethod ="pad" cx="0" cy="0" r="819.2" fx="0" fy="0" >
<stop  offset="0"  style="stop-color:#808080;stop-opacity:1" />
<stop  offset="0.494118"  style="stop-color:#808080;stop-opacity:1" />
<stop  offset="1"  style="stop-color:#808080;stop-opacity:0" />
</radialGradient>
<path style="fill:url(#RadialGradID_1263) " d="M1.9 4.15Q1.45 5.2 1.9 6.25L2.3 7.85L1.85 7.7L2.25 9.4L0.9 7.65Q0.2 6.6 0.05 5.45Q-0.1 4.25 0.6 2.95L0.6 4L1.2 3.75L1.9 4.15" />
<path style="fill:none;stroke-width:0.7;stroke-linecap:round;stroke-linejoin:round;stroke-miterlimit:3;stroke:#000000;stroke-opacity:0.4" d="M0.7 2.7L0.25 1.55L2.35 1.7L0.4 0.7" />
<path style="fill:none;stroke-width:0.7;stroke-linecap:round;stroke-linejoin:round;stroke-miterlimit:3;stroke:#000000;stroke-opacity:0.4" d="M2.25 9.4L0.9 7.65Q0.2 6.6 0.05 5.45Q-0.1 4.25 0.6 2.95" />
</g>
</svg>
