<?xml version="1.0" encoding="utf-8"?>
<svg version="1.1" id="Layer_1"
xmlns="http://www.w3.org/2000/svg"
xmlns:xlink="http://www.w3.org/1999/xlink"
width="21px" height="8px"
xml:space="preserve">
<g id="PathID_3349" transform="matrix(1, 0, 0, 1, 0.6, 0.15)">
<linearGradient
id="LinearGradID_1088" gradientUnits="userSpaceOnUse" gradientTransform="matrix(-0.0129547, 0.00584412, -0.00175476, -0.00389099, 12.9, 1.7)" spreadMethod ="pad" x1="-819.2" y1="0" x2="819.2" y2="0" >
<stop  offset="0" style="stop-color:#747474;stop-opacity:1" />
<stop  offset="1" style="stop-color:#35322B;stop-opacity:1" />
</linearGradient>
<path style="fill:url(#LinearGradID_1088) " d="M3.85 3.7L4.3 3.35Q6.9 1.7 9.8 0.85Q14 -0.4 18.95 0.2Q20.85 2.9 12.4 4.65Q10.2 1.4 0 7L0.2 6.85Q1.9 5 3.85 3.7" />
<path style="fill:none;stroke-width:0.7;stroke-linecap:round;stroke-linejoin:miter;stroke-miterlimit:5;stroke:#000000;stroke-opacity:0.4" d="M3.85 3.7L4.3 3.35Q6.9 1.7 9.8 0.85Q14 -0.4 18.95 0.2Q20.85 2.9 12.4 4.65Q10.2 1.4 0 7L0.2 6.85Q1.9 5 3.85 3.7z" />
</g>
</svg>
