<?xml version="1.0" encoding="utf-8"?>
<svg version="1.1" id="Layer_1"
xmlns="http://www.w3.org/2000/svg"
xmlns:xlink="http://www.w3.org/1999/xlink"
width="25px" height="14px"
xml:space="preserve">
<g id="PathID_1615" transform="matrix(1, 0, 0, 1, 0.05, 0.05)">
<radialGradient
id="RadialGradID_459" gradientUnits="userSpaceOnUse" gradientTransform="matrix(0.010025, 0, 0, 0.010025, 17.6, 12.2)" spreadMethod ="pad" cx="0" cy="0" r="819.2" fx="210479" fy="0" >
<stop  offset="0"  style="stop-color:#E0FFEF;stop-opacity:1" />
<stop  offset="1"  style="stop-color:#E0FFEF;stop-opacity:0" />
</radialGradient>
<path style="fill:url(#RadialGradID_459) " d="M20.6 6L20.15 6.9Q20.15 4.45 19.4 3.25Q19.8 4.95 19.15 6.05L19.1 5.7L18.65 4.2L18.1 3.25Q17.35 2.25 16.2 1.8Q17.7 1.4 18.75 3.1Q19.05 1.9 18.35 1.1Q19.55 1.65 20.15 2.9L20.2 3L20.25 3.1L20.7 4.3L20.6 6" />
<radialGradient
id="RadialGradID_460" gradientUnits="userSpaceOnUse" gradientTransform="matrix(0.00964355, 0, 0, 0.00964355, 24.2, 11.45)" spreadMethod ="pad" cx="0" cy="0" r="819.2" fx="0" fy="0" >
<stop  offset="0.0117647"  style="stop-color:#808080;stop-opacity:1" />
<stop  offset="1"  style="stop-color:#808080;stop-opacity:0" />
</radialGradient>
<path style="fill:url(#RadialGradID_460) " d="M19.45 1.3Q21.55 3.05 22.8 6.25Q23.15 5.4 23 4.45Q23.7 7.15 23.15 9.35L22.35 7.65L20.95 5.45L20.7 4.3L20.25 3.1L20.2 3L20.15 2.9L19.45 1.3" />
<radialGradient
id="RadialGradID_461" gradientUnits="userSpaceOnUse" gradientTransform="matrix(0.0100555, 0, 0, 0.0100555, 24.15, 11.65)" spreadMethod ="pad" cx="0" cy="0" r="819.2" fx="210479" fy="0" >
<stop  offset="0"  style="stop-color:#E0FFEF;stop-opacity:1" />
<stop  offset="1"  style="stop-color:#E0FFEF;stop-opacity:0" />
</radialGradient>
<path style="fill:url(#RadialGradID_461) " d="M18.25 0.1Q19.1 -0.2 20 0.4Q21.8 2.05 22.85 3.9L22.95 4.3L23 4.45Q23.15 5.4 22.8 6.25Q21.55 3.05 19.45 1.3L18.25 0.1" />
<radialGradient
id="RadialGradID_462" gradientUnits="userSpaceOnUse" gradientTransform="matrix(0.00839233, 0, 0, 0.00839233, 23.85, 11.45)" spreadMethod ="pad" cx="0" cy="0" r="819.2" fx="0" fy="0" >
<stop  offset="0"  style="stop-color:#414141;stop-opacity:1" />
<stop  offset="1"  style="stop-color:#414141;stop-opacity:0" />
<stop  offset="1"  style="stop-color:#99FFCC;stop-opacity:0" />
<stop  offset="1"  style="stop-color:#99FFCC;stop-opacity:0" />
</radialGradient>
<path style="fill:url(#RadialGradID_462) " d="M23.15 9.35Q23.7 7.15 23 4.45L22.95 4.3L22.85 3.9Q25.05 7.75 23.85 12.35L23.15 9.35" />
<radialGradient
id="RadialGradID_463" gradientUnits="userSpaceOnUse" gradientTransform="matrix(0.0102539, 0, 0, 0.0102539, 16.45, 13.25)" spreadMethod ="pad" cx="0" cy="0" r="819.2" fx="0" fy="0" >
<stop  offset="0.0509804"  style="stop-color:#414141;stop-opacity:1" />
<stop  offset="1"  style="stop-color:#414141;stop-opacity:0" />
<stop  offset="1"  style="stop-color:#99FFCC;stop-opacity:0" />
<stop  offset="1"  style="stop-color:#99FFCC;stop-opacity:0" />
</radialGradient>
<path style="fill:url(#RadialGradID_463) " d="M20.05 10.5Q18.5 12.6 14.7 13.6Q16.25 11.4 16.9 9.3Q18.15 7.9 18.65 4.3Q19.45 7.6 18.45 10.1Q19.8 9.1 20.6 6L20.7 4.3L20.95 5.45Q21.5 8.45 20.05 10.5" />
<radialGradient
id="RadialGradID_464" gradientUnits="userSpaceOnUse" gradientTransform="matrix(0.00488281, 0, 0, 0.00488281, 22.25, 13.7)" spreadMethod ="pad" cx="0" cy="0" r="819.2" fx="99" fy="0" >
<stop  offset="0"  style="stop-color:#2C2C2C;stop-opacity:1" />
<stop  offset="1"  style="stop-color:#2C2C2C;stop-opacity:0" />
<stop  offset="1"  style="stop-color:#99FFCC;stop-opacity:0" />
<stop  offset="1"  style="stop-color:#99FFCC;stop-opacity:0" />
</radialGradient>
<path style="fill:url(#RadialGradID_464) " d="M20.95 5.45L22.35 7.65Q22.55 10.15 21.9 11.85L20.05 10.5Q21.5 8.45 20.95 5.45" />
<radialGradient
id="RadialGradID_465" gradientUnits="userSpaceOnUse" gradientTransform="matrix(0.0100861, 0, 0, 0.0100861, 14.65, 13.8)" spreadMethod ="pad" cx="0" cy="0" r="819.2" fx="0" fy="0" >
<stop  offset="0.0196078"  style="stop-color:#99FFCC;stop-opacity:1" />
<stop  offset="1"  style="stop-color:#99FFCC;stop-opacity:0" />
</radialGradient>
<path style="fill:url(#RadialGradID_465) " d="M14.75 2.15L15.3 1.5Q15.95 1 16.2 1.8Q16.1 3.6 15.05 5.05Q15.4 3.6 14.75 2.15" />
<radialGradient
id="RadialGradID_466" gradientUnits="userSpaceOnUse" gradientTransform="matrix(0.0108643, 0, 0, 0.0108643, 16.05, 13.15)" spreadMethod ="pad" cx="0" cy="0" r="819.2" fx="0" fy="0" >
<stop  offset="0.0588235"  style="stop-color:#808080;stop-opacity:1" />
<stop  offset="1"  style="stop-color:#808080;stop-opacity:0" />
</radialGradient>
<path style="fill:url(#RadialGradID_466) " d="M16.9 9.3Q17.6 6.9 17.1 4.55L17 3.75L16.2 1.8Q17.35 2.25 18.1 3.25L18.65 4.2L19.1 5.7L19.15 6.05Q19.8 4.95 19.4 3.25Q20.15 4.45 20.15 6.9L20.6 6Q19.8 9.1 18.45 10.1Q19.45 7.6 18.65 4.3Q18.15 7.9 16.9 9.3M19.25 7.4L19.15 6.05L19.25 7.4" />
<radialGradient
id="RadialGradID_467" gradientUnits="userSpaceOnUse" gradientTransform="matrix(0.0100861, 0, 0, 0.0100861, 14.65, 13.8)" spreadMethod ="pad" cx="0" cy="0" r="819.2" fx="0" fy="0" >
<stop  offset="0.0196078"  style="stop-color:#808080;stop-opacity:1" />
<stop  offset="1"  style="stop-color:#808080;stop-opacity:0" />
</radialGradient>
<path style="fill:url(#RadialGradID_467) " d="M13.35 3.65L14.15 2.75Q14.65 4.7 14.25 6.6Q14.95 6.15 15.85 4.7Q15.85 6.95 15.05 8.85Q16.3 7.55 17 3.75L17.1 4.55Q17.2 5.8 16.85 7.1Q15.3 9.65 13.5 11Q14.55 7.15 13.35 3.65" />
<radialGradient
id="RadialGradID_468" gradientUnits="userSpaceOnUse" gradientTransform="matrix(0.00947571, 0, 0, 0.00947571, 12.85, 12.35)" spreadMethod ="pad" cx="0" cy="0" r="819.2" fx="210479" fy="0" >
<stop  offset="0.0392157"  style="stop-color:#E0FFEF;stop-opacity:1" />
<stop  offset="1"  style="stop-color:#E0FFEF;stop-opacity:0" />
</radialGradient>
<path style="fill:url(#RadialGradID_468) " d="M15.05 5.05Q16.1 3.6 16.2 1.8L17 3.75Q16.3 7.55 15.05 8.85Q15.85 6.95 15.85 4.7Q14.95 6.15 14.25 6.6Q14.65 4.7 14.15 2.75L14.75 2.15Q15.4 3.6 15.05 5.05" />
<radialGradient
id="RadialGradID_469" gradientUnits="userSpaceOnUse" gradientTransform="matrix(0.0131378, 0, 0, 0.0131378, -1.15, 9.85)" spreadMethod ="pad" cx="0" cy="0" r="819.2" fx="0" fy="0" >
<stop  offset="0"  style="stop-color:#808080;stop-opacity:1" />
<stop  offset="1"  style="stop-color:#808080;stop-opacity:0" />
</radialGradient>
<path style="fill:url(#RadialGradID_469) " d="M6.75 7.3Q8.65 6.5 10.05 4.85L11.25 3.15L10.05 4.85Q8.4 5.9 6.75 6.45L3.6 6.85Q5.25 6.2 6.75 5.35Q9.3 3.9 11.25 1.8Q12 1 12.4 1.15Q10.2 7.15 7.95 7.85Q9.7 7.7 11.25 5.8Q10.45 7.9 8.85 9.45Q10.55 8.7 12.95 5.2Q12.1 8.75 7.25 11.45L6.75 11.6L6.45 11.7Q4.05 12.2 2.45 11.3Q0.8 10.3 0 7.9Q3.15 10.4 6.75 9.6L8.85 8.85L6.75 9.6Q3.15 10.4 0 7.9Q3.95 8.5 6.75 7.3" />
<radialGradient
id="RadialGradID_470" gradientUnits="userSpaceOnUse" gradientTransform="matrix(0.0108948, 0, 0, 0.0108948, 0.9, 7.7)" spreadMethod ="pad" cx="0" cy="0" r="819.2" fx="210479" fy="0" >
<stop  offset="0"  style="stop-color:#E0FFEF;stop-opacity:1" />
<stop  offset="1"  style="stop-color:#E0FFEF;stop-opacity:0" />
</radialGradient>
<path style="fill:url(#RadialGradID_470) " d="M8.85 9.45Q10.45 7.9 11.25 5.8Q9.7 7.7 7.95 7.85Q10.2 7.15 12.4 1.15L12.85 1.85L13.1 3.9L13.1 4L13.1 4.3L12.95 5.2Q10.55 8.7 8.85 9.45M10.05 4.85Q8.65 6.5 6.75 7.3Q3.95 8.5 0 7.9L3.6 6.85L6.75 6.45Q8.4 5.9 10.05 4.85" />
<radialGradient
id="RadialGradID_471" gradientUnits="userSpaceOnUse" gradientTransform="matrix(0.0105286, 0, 0, 0.0105286, 12.45, 13.9)" spreadMethod ="pad" cx="0" cy="0" r="819.2" fx="0" fy="0" >
<stop  offset="0.0117647"  style="stop-color:#414141;stop-opacity:1" />
<stop  offset="1"  style="stop-color:#414141;stop-opacity:0" />
<stop  offset="1"  style="stop-color:#99FFCC;stop-opacity:0" />
<stop  offset="1"  style="stop-color:#99FFCC;stop-opacity:0" />
</radialGradient>
<path style="fill:url(#RadialGradID_471) " d="M13.1 4L13.1 3.9L13.35 3.65Q14.55 7.15 13.5 11Q15.3 9.65 16.85 7.1Q15.85 10.25 11.85 13.65Q13.95 8.55 13.1 4.3L13.1 4" />
<path style="fill:none;stroke-width:0.7;stroke-linecap:round;stroke-linejoin:round;stroke-miterlimit:3;stroke:#000000;stroke-opacity:0.498039" d="M20.7 4.3L20.25 3.1L20.2 3L20.15 2.9" />
<path style="fill:none;stroke-width:0.7;stroke-linecap:round;stroke-linejoin:round;stroke-miterlimit:3;stroke:#000000;stroke-opacity:0.498039" d="M16.2 1.8Q17.35 2.25 18.1 3.25L18.65 4.2L19.1 5.7L19.15 6.05" />
<path style="fill:none;stroke-width:0.7;stroke-linecap:round;stroke-linejoin:round;stroke-miterlimit:3;stroke:#000000;stroke-opacity:0.498039" d="M20.7 4.3L20.95 5.45" />
<path style="fill:none;stroke-width:0.7;stroke-linecap:round;stroke-linejoin:round;stroke-miterlimit:3;stroke:#000000;stroke-opacity:0.498039" d="M22.35 7.65L23.15 9.35" />
<path style="fill:none;stroke-width:0.7;stroke-linecap:round;stroke-linejoin:round;stroke-miterlimit:3;stroke:#000000;stroke-opacity:0.498039" d="M19.45 1.3L20.15 2.9" />
<path style="fill:none;stroke-width:0.7;stroke-linecap:round;stroke-linejoin:round;stroke-miterlimit:3;stroke:#000000;stroke-opacity:0.498039" d="M22.85 3.9Q21.8 2.05 20 0.4Q19.1 -0.2 18.25 0.1" />
<path style="fill:none;stroke-width:0.7;stroke-linecap:round;stroke-linejoin:round;stroke-miterlimit:3;stroke:#000000;stroke-opacity:0.498039" d="M22.35 7.65Q22.55 10.15 21.9 11.85L20.05 10.5Q18.5 12.6 14.7 13.6Q16.25 11.4 16.9 9.3Q17.6 6.9 17.1 4.55Q17.2 5.8 16.85 7.1Q15.85 10.25 11.85 13.65Q13.95 8.55 13.1 4.3L12.95 5.2Q12.1 8.75 7.25 11.45L6.75 11.6L6.45 11.7Q4.05 12.2 2.45 11.3Q0.8 10.3 0 7.9L3.6 6.85Q5.25 6.2 6.75 5.35Q9.3 3.9 11.25 1.8Q12 1 12.4 1.15L12.85 1.85L13.1 3.9L13.35 3.65L14.15 2.75L14.75 2.15L15.3 1.5Q15.95 1 16.2 1.8L16.7 1.15L17.4 0.5L18.25 0.1" />
<path style="fill:none;stroke-width:0.7;stroke-linecap:round;stroke-linejoin:round;stroke-miterlimit:3;stroke:#000000;stroke-opacity:0.498039" d="M22.85 3.9Q25.05 7.75 23.85 12.35L23.15 9.35" />
<path style="fill:none;stroke-width:0.7;stroke-linecap:round;stroke-linejoin:round;stroke-miterlimit:3;stroke:#000000;stroke-opacity:0.498039" d="M17 3.75L17.1 4.55" />
<path style="fill:none;stroke-width:0.7;stroke-linecap:round;stroke-linejoin:round;stroke-miterlimit:3;stroke:#000000;stroke-opacity:0.498039" d="M17 3.75L16.2 1.8" />
<path style="fill:none;stroke-width:0.7;stroke-linecap:round;stroke-linejoin:round;stroke-miterlimit:3;stroke:#000000;stroke-opacity:0.498039" d="M13.1 3.9L13.1 4L13.1 4.3" />
<path style="fill:none;stroke-width:0.7;stroke-linecap:round;stroke-linejoin:round;stroke-miterlimit:3;stroke:#000000;stroke-opacity:0.498039" d="M19.15 6.05L19.25 7.4" />
<path style="fill:none;stroke-width:0.7;stroke-linecap:round;stroke-linejoin:round;stroke-miterlimit:3;stroke:#000000;stroke-opacity:0.498039" d="M0 7.9Q3.15 10.4 6.75 9.6L8.85 8.85" />
<path style="fill:none;stroke-width:0.7;stroke-linecap:round;stroke-linejoin:round;stroke-miterlimit:3;stroke:#000000;stroke-opacity:0.498039" d="M10.05 4.85Q8.65 6.5 6.75 7.3Q3.95 8.5 0 7.9" />
<path style="fill:none;stroke-width:0.7;stroke-linecap:round;stroke-linejoin:round;stroke-miterlimit:3;stroke:#000000;stroke-opacity:0.498039" d="M10.05 4.85L11.25 3.15" />
<path style="fill:none;stroke-width:0.7;stroke-linecap:round;stroke-linejoin:round;stroke-miterlimit:3;stroke:#000000;stroke-opacity:0.498039" d="M20.05 10.5Q21.5 8.45 20.95 5.45" />
</g>
</svg>
