<?xml version="1.0" encoding="utf-8"?>
<svg version="1.1" id="Layer_1"
xmlns="http://www.w3.org/2000/svg"
xmlns:xlink="http://www.w3.org/1999/xlink"
width="13px" height="15px"
xml:space="preserve">
<g id="PathID_3545" transform="matrix(1, 0, 0, 1, 6.45, 7.05)">
<path style="fill:#808080;fill-opacity:1" d="M5.15 -2.1L5.1 -2.05L4.8 5.2L2.85 -1.45L-0.7 -1.05L-3.35 -1.2L-4.2 -1.5L-4.75 -4.2Q-3.8 -3.85 -2.15 -3.65L0.25 -3.6L2.4 -3.85Q3.95 -4.1 5.2 -4.6L5.55 -4.8L5.15 -2.1M4.8 5.2Q3.8 6.3 2.35 6.75L0.65 7.1L0.5 7.1L-2.1 6.7Q-2.05 2.7 -3.2 -1.15L-3.35 -1.2L-0.7 -1.05L2.85 -1.45L5.1 -2.05" />
<path style="fill:#666666;fill-opacity:1" d="M-3.2 -1.15Q-2.05 2.7 -2.1 6.7Q-3.65 6.1 -4.7 4.55L-5.45 -1.85Q-5.75 -1.9 -6 -2.25L-6.45 -5.35L-5.05 -4.35L-4.75 -4.2L-4.2 -1.5L-3.35 -1.2L-3.2 -1.15M5.1 -2.05L5.15 -2.1L5.6 -2.3L5.55 -4.8L6.5 -5.4L6.25 -2.8L6.05 -2.55Q5.85 -2.35 5.6 -2.3L5.15 -2.1L5.6 -1.5L5.55 1.7L5.35 4.45L4.8 5.2L5.1 -2.05M-5.45 -1.85L-3.35 -1.2L-5.45 -1.85" />
<linearGradient
id="LinearGradID_1132" gradientUnits="userSpaceOnUse" gradientTransform="matrix(-1.52588e-005, 0.00190735, -0.00794983, -1.52588e-005, 0, -5.3)" spreadMethod ="pad" x1="-819.2" y1="0" x2="819.2" y2="0" >
<stop  offset="0" style="stop-color:#666666;stop-opacity:1" />
<stop  offset="1" style="stop-color:#484848;stop-opacity:1" />
</linearGradient>
<path style="fill:url(#LinearGradID_1132) " d="M-5.05 -4.35Q-3.15 -5.5 0 -5.65Q3.35 -5.8 5.2 -4.6Q3.35 -5.8 0 -5.65Q-3.15 -5.5 -5.05 -4.35L-6.45 -5.35Q-3.5 -7.25 1.4 -7.05Q6.05 -6.8 6.5 -5.4L5.55 -4.8L5.2 -4.6Q3.95 -4.1 2.4 -3.85L0.25 -3.6L-2.15 -3.65Q-3.8 -3.85 -4.75 -4.2L-5.05 -4.35" />
<path style="fill:none;stroke-width:0.7;stroke-linecap:round;stroke-linejoin:round;stroke-miterlimit:3;stroke:#000000;stroke-opacity:0.301961" d="M5.55 -4.8L5.2 -4.6Q3.95 -4.1 2.4 -3.85L0.25 -3.6L-2.15 -3.65Q-3.8 -3.85 -4.75 -4.2" />
<path style="fill:none;stroke-width:0.7;stroke-linecap:round;stroke-linejoin:round;stroke-miterlimit:3;stroke:#000000;stroke-opacity:0.2" d="M-3.35 -1.2L-0.7 -1.05L2.85 -1.45L5.1 -2.05L5.15 -2.1" />
<path style="fill:none;stroke-width:0.7;stroke-linecap:round;stroke-linejoin:round;stroke-miterlimit:3;stroke:#000000;stroke-opacity:0.301961" d="M5.55 -4.8L6.5 -5.4Q6.05 -6.8 1.4 -7.05Q-3.5 -7.25 -6.45 -5.35L-5.05 -4.35" />
<path style="fill:none;stroke-width:0.7;stroke-linecap:round;stroke-linejoin:round;stroke-miterlimit:3;stroke:#000000;stroke-opacity:0.2" d="M-5.05 -4.35Q-3.15 -5.5 0 -5.65Q3.35 -5.8 5.2 -4.6" />
<path style="fill:none;stroke-width:0.7;stroke-linecap:round;stroke-linejoin:round;stroke-miterlimit:3;stroke:#000000;stroke-opacity:0.301961" d="M6.5 -5.4L6.25 -2.8L6.05 -2.55Q5.85 -2.35 5.6 -2.3L5.6 -1.5L5.55 1.7L5.35 4.45L4.8 5.2Q3.8 6.3 2.35 6.75L0.65 7.1L0.5 7.1L-2.1 6.7Q-3.65 6.1 -4.7 4.55L-5.45 -1.85Q-5.75 -1.9 -6 -2.25L-6.45 -5.35" />
<path style="fill:none;stroke-width:0.7;stroke-linecap:round;stroke-linejoin:round;stroke-miterlimit:3;stroke:#000000;stroke-opacity:0.2" d="M5.15 -2.1L5.6 -2.3" />
<path style="fill:none;stroke-width:0.7;stroke-linecap:round;stroke-linejoin:round;stroke-miterlimit:3;stroke:#000000;stroke-opacity:0.301961" d="M-4.75 -4.2L-5.05 -4.35" />
<path style="fill:none;stroke-width:0.7;stroke-linecap:round;stroke-linejoin:round;stroke-miterlimit:3;stroke:#000000;stroke-opacity:0.2" d="M-3.35 -1.2L-5.45 -1.85" />
</g>
</svg>
