<?xml version="1.0" encoding="utf-8"?>
<svg version="1.1" id="Layer_1"
xmlns="http://www.w3.org/2000/svg"
xmlns:xlink="http://www.w3.org/1999/xlink"
width="28px" height="27px"
xml:space="preserve">
<g id="PathID_2164" transform="matrix(1, 0, 0, 1, 0.15, 0.15)">
<linearGradient
id="LinearGradID_674" gradientUnits="userSpaceOnUse" gradientTransform="matrix(0.00292969, -0.00883484, 0.00997925, 0.00331116, 14.1, 9.6)" spreadMethod ="pad" x1="-819.2" y1="0" x2="819.2" y2="0" >
<stop  offset="0" style="stop-color:#808080;stop-opacity:1" />
<stop  offset="1" style="stop-color:#BBB4B2;stop-opacity:1" />
</linearGradient>
<path style="fill:url(#LinearGradID_674) " d="M12.45 14.05Q12.15 15.9 12.15 16.9L12 17.95Q9.95 20.4 6.85 21.2Q8.45 19.5 8.8 17.45Q4.7 18.85 0.05 18.7L0 18.65Q5.1 16.6 7.45 14.3Q9.9 13.65 11.05 11.8Q8.8 12.7 6.35 12.3Q3.85 11.9 0.55 7.4Q4.15 10.2 8.2 9.05Q11.55 4.65 14.7 4.65Q17 3.3 21.75 4.65Q27.05 6.2 27.5 10.85Q27.7 12.6 27.15 14L27.1 12.5L26.75 10.65L27.1 12.5L27.15 14Q27.2 16.15 26.6 17.2L26.55 17.1Q26.55 16.3 24.9 14.35L22.9 12.4Q22.6 11.3 23.6 11.1L25.15 11.15Q25.6 9.65 26.75 10.65L25.9 9.1Q25.9 10 25.3 10.15Q24.6 10.3 23.7 9.4Q24 10.5 22.7 10.9L20.7 10.75L18.2 8.3L19.6 10.65Q20 11.45 19.4 11.95Q18.65 12.4 17.45 11.65L16.35 10.55L15.45 9.1L15.45 11.5Q14.55 14.6 14.7 16.9Q14.35 18 13.5 18.05Q12.6 18.1 12.15 16.9Q12.15 15.9 12.45 14.05M23.3 6.7Q25 7.7 25.9 9.1Q25 7.7 23.3 6.7M19.1 13.4Q18.65 11.9 20.8 12.15L23.9 14.7L24.45 16.95Q21.55 15.75 19.1 13.4M13.55 21.05L14.25 23.45Q12.8 22.45 12.2 20.25Q12.8 17.55 15 19Q15.8 21.6 18.5 22.55Q14.95 22.35 13.55 21.05M10.8 0Q15.5 0.15 14.75 3.8Q14 1.25 10.8 0" />
<path style="fill:#5B5652;fill-opacity:1" d="M23.9 14.7L20.8 12.15L19.6 10.65L18.2 8.3L20.7 10.75L22.9 12.4L24.9 14.35Q26.55 16.3 26.55 17.1Q25.7 15.95 23.9 14.7M15.45 9.1L16.35 10.55L17.45 11.65L19.1 13.4Q21.55 15.75 24.45 16.95Q21.55 16.25 19.35 14.75Q17.1 13.4 15.45 11.5L15.45 9.1M8.8 17.45Q8.45 19.5 6.85 21.2Q9.95 20.4 12 17.95L12 19.6L12.2 20.25Q12.8 22.45 14.25 23.45L13.55 21.05Q14.95 22.35 18.5 22.55Q16.2 23.55 14.85 22.85Q15.45 24.85 17.25 25.7Q14.1 25.65 13 23.45Q12.35 24.45 9.65 25.85Q9.8 22.85 10.9 21.45Q7.9 24.95 3.95 24.05Q4.9 20.9 5.55 20.25Q3.4 21.15 0.05 18.7Q4.7 18.85 8.8 17.45M7.45 14.3L4.3 13.6Q1.05 12 0.55 7.4Q3.85 11.9 6.35 12.3Q8.8 12.7 11.05 11.8Q9.9 13.65 7.45 14.3M12 19.6L12.5 22L13 23.45L12.5 22L12 19.6" />
<path style="fill:#B4B4B4;fill-opacity:1" d="M20.7 10.75L22.7 10.9Q24 10.5 23.7 9.4Q24.6 10.3 25.3 10.15Q25.9 10 25.9 9.1L26.75 10.65Q25.6 9.65 25.15 11.15L23.6 11.1Q22.6 11.3 22.9 12.4L20.7 10.75M17.45 11.65Q18.65 12.4 19.4 11.95Q20 11.45 19.6 10.65L20.8 12.15Q18.65 11.9 19.1 13.4L17.45 11.65M12.2 20.25L12 19.6L12 17.95L12.15 16.9Q12.6 18.1 13.5 18.05Q14.35 18 14.7 16.9Q14.65 18.05 15 19Q12.8 17.55 12.2 20.25" />
<path style="fill:none;stroke-width:0.7;stroke-linecap:round;stroke-linejoin:round;stroke-miterlimit:3;stroke:#000000;stroke-opacity:0.301961" d="M26.75 10.65L25.9 9.1" />
<path style="fill:none;stroke-width:0.7;stroke-linecap:round;stroke-linejoin:round;stroke-miterlimit:3;stroke:#000000;stroke-opacity:0.301961" d="M26.55 17.1L26.6 17.2Q27.2 16.15 27.15 14L27.1 12.5L26.75 10.65" />
<path style="fill:none;stroke-width:0.7;stroke-linecap:round;stroke-linejoin:round;stroke-miterlimit:3;stroke:#000000;stroke-opacity:0.301961" d="M0.55 7.4Q4.15 10.2 8.2 9.05Q11.55 4.65 14.7 4.65Q17 3.3 21.75 4.65Q27.05 6.2 27.5 10.85Q27.7 12.6 27.15 14" />
<path style="fill:none;stroke-width:0.7;stroke-linecap:round;stroke-linejoin:round;stroke-miterlimit:3;stroke:#000000;stroke-opacity:0.301961" d="M25.9 9.1Q25 7.7 23.3 6.7" />
<path style="fill:none;stroke-width:0.7;stroke-linecap:round;stroke-linejoin:round;stroke-miterlimit:3;stroke:#000000;stroke-opacity:0.301961" d="M24.45 16.95L23.9 14.7L20.8 12.15" />
<path style="fill:none;stroke-width:0.7;stroke-linecap:round;stroke-linejoin:round;stroke-miterlimit:3;stroke:#000000;stroke-opacity:0.301961" d="M24.45 16.95Q21.55 16.25 19.35 14.75Q17.1 13.4 15.45 11.5Q14.55 14.6 14.7 16.9Q14.65 18.05 15 19Q15.8 21.6 18.5 22.55Q16.2 23.55 14.85 22.85Q15.45 24.85 17.25 25.7Q14.1 25.65 13 23.45Q12.35 24.45 9.65 25.85Q9.8 22.85 10.9 21.45Q7.9 24.95 3.95 24.05Q4.9 20.9 5.55 20.25Q3.4 21.15 0.05 18.7L0 18.65Q5.1 16.6 7.45 14.3L4.3 13.6Q1.05 12 0.55 7.4" />
<path style="fill:none;stroke-width:0.7;stroke-linecap:round;stroke-linejoin:round;stroke-miterlimit:3;stroke:#000000;stroke-opacity:0.301961" d="M26.55 17.1Q25.7 15.95 23.9 14.7" />
<path style="fill:none;stroke-width:0.7;stroke-linecap:round;stroke-linejoin:round;stroke-miterlimit:3;stroke:#000000;stroke-opacity:0.301961" d="M19.6 10.65L20.8 12.15" />
<path style="fill:none;stroke-width:0.7;stroke-linecap:round;stroke-linejoin:round;stroke-miterlimit:3;stroke:#000000;stroke-opacity:0.301961" d="M14.75 3.8Q14 1.25 10.8 0Q15.5 0.15 14.75 3.8z" />
<path style="fill:none;stroke-width:0.7;stroke-linecap:round;stroke-linejoin:round;stroke-miterlimit:3;stroke:#000000;stroke-opacity:0.301961" d="M12.15 16.9L12 17.95L12 19.6" />
<path style="fill:none;stroke-width:0.7;stroke-linecap:round;stroke-linejoin:round;stroke-miterlimit:3;stroke:#000000;stroke-opacity:0.301961" d="M12.15 16.9Q12.15 15.9 12.45 14.05" />
<path style="fill:none;stroke-width:0.7;stroke-linecap:round;stroke-linejoin:round;stroke-miterlimit:3;stroke:#000000;stroke-opacity:0.301961" d="M13 23.45L12.5 22L12 19.6" />
</g>
</svg>
