<?xml version="1.0" encoding="utf-8"?>
<svg version="1.1" id="Layer_1"
xmlns="http://www.w3.org/2000/svg"
xmlns:xlink="http://www.w3.org/1999/xlink"
width="15px" height="14px"
xml:space="preserve">
<g id="PathID_2594" transform="matrix(1, 0, 0, 1, 0, 0)">
<path style="fill:#808080;fill-opacity:1" d="M3.25 8Q1.6 6.1 1.15 4.15Q0.6 4.65 0.05 4.65Q0.25 3.5 0.9 2.55L2.2 1.2Q5 -0.4 7.5 0.15Q8.3 0.25 9.05 0.65L11.15 2.55Q12.8 4.5 14.3 7.4L9.35 10.95L7.05 12.25L3.25 8" />
<path style="fill:#4F4943;fill-opacity:1" d="M7.05 12.25L3.9 13.7L2.6 12.7L1.95 11.4Q0.15 7.65 0.05 5.6L0.05 4.65Q0.6 4.65 1.15 4.15Q1.6 6.1 3.25 8L7.05 12.25" />
<path style="fill:none;stroke-width:0.7;stroke-linecap:round;stroke-linejoin:round;stroke-miterlimit:3;stroke:#000000;stroke-opacity:0.4" d="M0.05 4.65Q0.25 3.5 0.9 2.55L2.2 1.2Q5 -0.4 7.5 0.15Q8.3 0.25 9.05 0.65L11.15 2.55Q12.8 4.5 14.3 7.4L9.35 10.95L7.05 12.25L3.9 13.7L2.6 12.7L1.95 11.4Q0.15 7.65 0.05 5.6L0.05 4.65z" />
</g>
</svg>
