<?xml version="1.0" encoding="utf-8"?>
<svg version="1.1" id="Layer_1"
xmlns="http://www.w3.org/2000/svg"
xmlns:xlink="http://www.w3.org/1999/xlink"
width="5px" height="4px"
xml:space="preserve">
<g id="PathID_455" transform="matrix(1, 0, 0, 1, 0.15, 0.15)">
<path style="fill:#808080;fill-opacity:1" d="M2.1 2.75Q1.75 1.45 0.95 1.25Q0.4 1.65 1.3 3Q-0.25 2.25 0.05 0.8Q0.4 -0.3 2.7 0.15Q3.6 -0.35 4 1.05Q3.75 2.1 3.2 2.35L2.8 2.35Q2.95 1.5 2.5 0.8L2.1 2.75M2.5 0.8Q2.95 1.5 2.8 2.35" />
<path style="fill:#23100C;fill-opacity:1" d="M1.3 3Q0.4 1.65 0.95 1.25Q1.75 1.45 2.1 2.75L1.3 3" />
<path style="fill:none;stroke-width:0.7;stroke-linecap:round;stroke-linejoin:round;stroke-miterlimit:3;stroke:#000000;stroke-opacity:0.301961" d="M2.8 2.35L3.2 2.35Q3.75 2.1 4 1.05Q3.6 -0.35 2.7 0.15Q0.4 -0.3 0.05 0.8Q-0.25 2.25 1.3 3Q0.4 1.65 0.95 1.25Q1.75 1.45 2.1 2.75L2.8 2.35Q2.95 1.5 2.5 0.8" />
<path style="fill:none;stroke-width:0.7;stroke-linecap:round;stroke-linejoin:round;stroke-miterlimit:3;stroke:#000000;stroke-opacity:0.301961" d="M1.3 3L2.1 2.75" />
</g>
</svg>
