<?xml version="1.0" encoding="utf-8"?>
<svg version="1.1" id="Layer_1"
xmlns="http://www.w3.org/2000/svg"
xmlns:xlink="http://www.w3.org/1999/xlink"
width="31px" height="20px"
xml:space="preserve">
<g id="PathID_2206" transform="matrix(1, 0, 0, 1, 0.15, 0.15)">
<path style="fill:#4F4943;fill-opacity:1" d="M26.05 10.5Q25.8 10.15 26.35 9.6Q26.75 9.15 27.15 9L25.7 9Q23.15 8.55 21.45 4.35Q19.85 0.5 17.25 0.15L20.3 0Q22.1 0.15 23.35 0.95L24.2 1.65Q25.9 3.45 25.85 7.15L26.9 7.25L26.45 6.65L26.7 6.2L26.6 5.95L26.45 5.7Q26.45 5.15 27.05 5.05L27.85 4.4Q28.35 2.45 29.2 1.85L29.25 2.1Q29.6 3.5 29.45 4.55L30.1 5.5Q29 9.85 25.05 12.25L23.9 10.6L26.05 10.5M16.25 11.6Q11.95 14.1 8.25 15.25Q8.3 18.15 8.8 19.7Q0.3 17.45 0 8.85L1.85 10.85Q7.25 15.8 8.75 9.25L9.05 7.9Q10.45 7.95 11.1 9L11.6 8.4Q11.9 7.7 12.95 7.7Q14.1 7.7 14.35 8.6L14.55 10.05L15.05 9.95L15.4 10.2L15.6 10.65L16.05 10.85L16.3 11.2L16.25 11.6M26.65 2.7L27.2 3.1L27.45 3.7L27.2 4.1L26.9 4.2Q26.55 4.2 26.65 3.7Q26.25 3.55 26.25 3.05Q26.25 2.7 26.65 2.7M14.95 8.4L15.3 8.1L15.55 8.1L15.75 8.35Q15.75 9 15.2 9L15.05 8.95L14.85 8.75L14.95 8.4" />
<path style="fill:#808080;fill-opacity:1" d="M27.85 4.4L27.05 5.05Q26.45 5.15 26.45 5.7L26.6 5.95L26.7 6.2L26.45 6.65L26.9 7.25L25.85 7.15Q25.9 3.45 24.2 1.65Q25.6 1.45 27.1 0.4Q27.65 0.05 28.15 0.2L28.8 0.8L29.2 1.85Q28.35 2.45 27.85 4.4M16.3 11.2L16.05 10.85L15.6 10.65L15.4 10.2L15.05 9.95L14.55 10.05L14.35 8.6Q14.1 7.7 12.95 7.7Q11.9 7.7 11.6 8.4L11.1 9Q10.45 7.95 9.05 7.9Q10.45 2.2 14.65 0.6Q16.05 0 17.25 0.15Q19.85 0.5 21.45 4.35Q23.15 8.55 25.7 9L27.15 9Q26.75 9.15 26.35 9.6Q25.8 10.15 26.05 10.5L23.9 10.6L22.65 9.05Q20.85 8.7 18.5 10.2L16.25 11.6L16.3 11.2M26.25 3.05Q26.25 3.55 26.65 3.7Q26.55 4.2 26.9 4.2L27.2 4.1L27.45 3.7L27.2 3.1L26.65 2.7Q26.25 2.7 26.25 3.05M24.2 9.55L22.65 9.05L24.2 9.55M14.85 8.75L15.05 8.95L15.2 9Q15.75 9 15.75 8.35L15.55 8.1L15.3 8.1L14.95 8.4L14.85 8.75" />
<path style="fill:none;stroke-width:0.7;stroke-linecap:round;stroke-linejoin:round;stroke-miterlimit:3;stroke:#000000;stroke-opacity:0.498039" d="M30.1 5.5Q29 9.85 25.05 12.25" />
<path style="fill:none;stroke-width:0.7;stroke-linecap:round;stroke-linejoin:round;stroke-miterlimit:3;stroke:#000000;stroke-opacity:0.498039" d="M22.65 9.05Q20.85 8.7 18.5 10.2L16.25 11.6Q11.95 14.1 8.25 15.25Q8.3 18.15 8.8 19.7Q0.3 17.45 0 8.85" />
<path style="fill:none;stroke-width:0.7;stroke-linecap:round;stroke-linejoin:round;stroke-miterlimit:3;stroke:#000000;stroke-opacity:0.498039" d="M20.3 0Q22.1 0.15 23.35 0.95" />
<path style="fill:none;stroke-width:0.7;stroke-linecap:round;stroke-linejoin:round;stroke-miterlimit:3;stroke:#000000;stroke-opacity:0.498039" d="M24.2 1.65Q25.9 3.45 25.85 7.15" />
<path style="fill:none;stroke-width:0.7;stroke-linecap:round;stroke-linejoin:round;stroke-miterlimit:3;stroke:#000000;stroke-opacity:0.498039" d="M22.65 9.05L24.2 9.55" />
</g>
</svg>
