<?xml version="1.0" encoding="utf-8"?>
<svg version="1.1" id="Layer_1"
xmlns="http://www.w3.org/2000/svg"
xmlns:xlink="http://www.w3.org/1999/xlink"
width="4px" height="16px"
xml:space="preserve">
<g id="PathID_62" transform="matrix(1, 0, 0, 1, 0.85, 0.05)">
<path style="fill:#808080;fill-opacity:1" d="M-0.8 5.1L-0.55 3.2Q0.85 2.6 2.15 3.2L2.3 4.05Q2.1 5.4 1.45 4.9L1.45 3.9L0.65 3.85L0.15 3.95L0.1 4.8Q-0.4 5.65 -0.8 5.1" />
<path style="fill:#514B48;fill-opacity:1" d="M2.15 6.75Q0.7 7.4 -0.55 6.75L-0.8 5.1Q-0.4 5.65 0.1 4.8L0.15 6.05Q0.8 6.45 1.4 6.05L1.45 4.9Q2.1 5.4 2.3 4.05Q2.55 5.4 2.15 6.75" />
<path style="fill:none;stroke-width:0.7;stroke-linecap:round;stroke-linejoin:round;stroke-miterlimit:3;stroke:#000000;stroke-opacity:0.2" d="M0.1 4.8L0.15 3.95L0.65 3.85L1.45 3.9L1.45 4.9" />
<path style="fill:none;stroke-width:0.7;stroke-linecap:round;stroke-linejoin:round;stroke-miterlimit:3;stroke:#000000;stroke-opacity:0.2" d="M2.3 4.05L2.15 3.2Q0.85 2.6 -0.55 3.2L-0.8 5.1" />
<path style="fill:none;stroke-width:0.7;stroke-linecap:round;stroke-linejoin:round;stroke-miterlimit:3;stroke:#000000;stroke-opacity:0.2" d="M0.1 4.8L0.15 6.05Q0.8 6.45 1.4 6.05L1.45 4.9" />
<path style="fill:none;stroke-width:0.7;stroke-linecap:round;stroke-linejoin:round;stroke-miterlimit:3;stroke:#000000;stroke-opacity:0.2" d="M-0.8 5.1L-0.55 6.75Q0.7 7.4 2.15 6.75Q2.55 5.4 2.3 4.05" />
</g>
<g id="PathID_63" transform="matrix(1, 0, 0, 1, 0.85, 0.05)">
<path style="fill:#808080;fill-opacity:1" d="M-0.55 8.85Q0.85 8.25 2.15 8.85L2.3 9.7Q2.1 11.05 1.45 10.55L1.45 9.55L0.65 9.5L0.15 9.6L0.1 10.45Q-0.4 11.3 -0.8 10.75L-0.55 8.85" />
<path style="fill:#514B48;fill-opacity:1" d="M2.3 9.7Q2.55 11.05 2.15 12.4Q0.7 13.05 -0.55 12.4L-0.8 10.75Q-0.4 11.3 0.1 10.45L0.15 11.7Q0.8 12.1 1.4 11.7L1.45 10.55Q2.1 11.05 2.3 9.7" />
<path style="fill:none;stroke-width:0.7;stroke-linecap:round;stroke-linejoin:round;stroke-miterlimit:3;stroke:#000000;stroke-opacity:0.2" d="M1.45 10.55L1.4 11.7Q0.8 12.1 0.15 11.7L0.1 10.45" />
<path style="fill:none;stroke-width:0.7;stroke-linecap:round;stroke-linejoin:round;stroke-miterlimit:3;stroke:#000000;stroke-opacity:0.2" d="M-0.8 10.75L-0.55 12.4Q0.7 13.05 2.15 12.4Q2.55 11.05 2.3 9.7" />
<path style="fill:none;stroke-width:0.7;stroke-linecap:round;stroke-linejoin:round;stroke-miterlimit:3;stroke:#000000;stroke-opacity:0.2" d="M1.45 10.55L1.45 9.55L0.65 9.5L0.15 9.6L0.1 10.45" />
<path style="fill:none;stroke-width:0.7;stroke-linecap:round;stroke-linejoin:round;stroke-miterlimit:3;stroke:#000000;stroke-opacity:0.2" d="M2.3 9.7L2.15 8.85Q0.85 8.25 -0.55 8.85L-0.8 10.75" />
</g>
<g id="PathID_64" transform="matrix(1, 0, 0, 1, 0.85, 0.05)">
<path style="fill:#514B48;fill-opacity:1" d="M1.4 14.95Q0.8 15.25 0.25 14.95Q0.05 13.35 0.25 11.65Q0.8 11.35 1.4 11.65Q1.65 13.35 1.4 14.95" />
<path style="fill:none;stroke-width:0.7;stroke-linecap:round;stroke-linejoin:round;stroke-miterlimit:3;stroke:#000000;stroke-opacity:0.2" d="M1.4 14.95Q0.8 15.25 0.25 14.95Q0.05 13.35 0.25 11.65Q0.8 11.35 1.4 11.65Q1.65 13.35 1.4 14.95z" />
</g>
<g id="PathID_65" transform="matrix(1, 0, 0, 1, 0.85, 0.05)">
<path style="fill:#514B48;fill-opacity:1" d="M1.4 6.2Q1.65 7.9 1.4 9.5Q0.8 9.8 0.25 9.5Q0.05 7.9 0.25 6.2Q0.8 5.9 1.4 6.2" />
<path style="fill:none;stroke-width:0.7;stroke-linecap:round;stroke-linejoin:round;stroke-miterlimit:3;stroke:#000000;stroke-opacity:0.2" d="M1.4 6.2Q1.65 7.9 1.4 9.5Q0.8 9.8 0.25 9.5Q0.05 7.9 0.25 6.2Q0.8 5.9 1.4 6.2z" />
</g>
<g id="PathID_66" transform="matrix(1, 0, 0, 1, 0.85, 0.05)">
<path style="fill:#514B48;fill-opacity:1" d="M1.4 3.7Q0.8 4.05 0.25 3.7Q-0.05 1.95 0.25 0.15Q0.8 -0.15 1.4 0.15Q1.65 1.95 1.4 3.7" />
<path style="fill:none;stroke-width:0.7;stroke-linecap:round;stroke-linejoin:round;stroke-miterlimit:3;stroke:#000000;stroke-opacity:0.2" d="M1.4 3.7Q0.8 4.05 0.25 3.7Q-0.05 1.95 0.25 0.15Q0.8 -0.15 1.4 0.15Q1.65 1.95 1.4 3.7z" />
</g>
</svg>
