<?xml version="1.0" encoding="utf-8"?>
<svg version="1.1" id="Layer_1"
xmlns="http://www.w3.org/2000/svg"
xmlns:xlink="http://www.w3.org/1999/xlink"
width="22px" height="16px"
xml:space="preserve">
<g id="PathID_545" transform="matrix(1, 0, 0, 1, 0, 0)">
<path style="fill:#666666;fill-opacity:1" d="M16.7 1.1L17.1 1.55Q17.9 3 19.65 4.15L18.15 4.2Q19.65 5.75 20.85 6.3L19.1 6.25Q20.3 7.5 21.75 8.1L18.65 8.1L18.7 8.95Q18.7 10.3 17.9 11.25L17.05 12.05L16.9 11.15L17.45 10.6Q18.05 9.85 18.05 8.8L17.9 7.7L17.45 6.95Q16.85 6.2 16 6.2Q15.15 6.2 14.55 6.95L14.05 7.95Q13.45 6.35 12.65 5.6L15 3.85L13.6 3.85Q14.8 3.2 16.2 1.55L16.7 1.1" />
<path style="fill:none;stroke-width:0.7;stroke-linecap:round;stroke-linejoin:round;stroke-miterlimit:3;stroke:#000000;stroke-opacity:0.4" d="M16.2 1.55Q14.8 3.2 13.6 3.85L15 3.85L12.65 5.6Q13.45 6.35 14.05 7.95L14.55 6.95Q15.15 6.2 16 6.2Q16.85 6.2 17.45 6.95L17.9 7.7L18.05 8.8Q18.05 9.85 17.45 10.6L16.9 11.15L17.05 12.05L17.9 11.25Q18.7 10.3 18.7 8.95L18.65 8.1L21.75 8.1Q20.3 7.5 19.1 6.25L20.85 6.3Q19.65 5.75 18.15 4.2L19.65 4.15Q17.9 3 17.1 1.55L16.7 1.1L16.2 1.55z" />
</g>
<g id="PathID_546" transform="matrix(1, 0, 0, 1, 0, 0)">
<path style="fill:#666666;fill-opacity:1" d="M14.8 7.6Q13.3 7.25 11.95 8.35L11.25 7.6Q12.5 6.4 13.8 6.45Q15.1 6.5 14.8 7.6" />
<path style="fill:none;stroke-width:0.7;stroke-linecap:round;stroke-linejoin:round;stroke-miterlimit:3;stroke:#000000;stroke-opacity:0.4" d="M13.8 6.45Q12.5 6.4 11.25 7.6L11.95 8.35Q13.3 7.25 14.8 7.6Q15.1 6.5 13.8 6.45z" />
</g>
<g id="PathID_547" transform="matrix(1, 0, 0, 1, 0, 0)">
<path style="fill:#808080;fill-opacity:1" d="M11.75 10.5Q11.75 12.55 10.3 13.95Q8.9 15.3 6.9 15.3Q5 15.3 3.5 13.95L3.05 13.4Q2.2 12.15 2.2 10.5L2.4 9.1L0 9.15L3.5 6.55L1.8 6.45L5 3.9L3.6 3.9Q4.05 3.75 6.35 0.6L6.85 0L7.4 0.7L10 4L8.7 3.95Q10.7 5.65 12.15 6.15L10.45 6.35Q11.65 7.7 13.75 8.7L11.6 9.05L11.75 10.5M3.35 10.55Q3.35 12.1 4.35 13.15L4.8 13.55Q5.75 14.2 6.9 14.2Q8.4 14.2 9.45 13.15Q10.55 12.1 10.55 10.55Q10.55 9.25 9.85 8.3L9.55 7.95Q8.5 6.85 7 6.85Q5.55 6.85 4.45 7.95Q3.35 9 3.35 10.55" />
<path style="fill:none;stroke-width:0.7;stroke-linecap:round;stroke-linejoin:round;stroke-miterlimit:3;stroke:#000000;stroke-opacity:0.4" d="M11.75 10.5Q11.75 12.55 10.3 13.95Q8.9 15.3 6.9 15.3Q5 15.3 3.5 13.95L3.05 13.4Q2.2 12.15 2.2 10.5L2.4 9.1L0 9.15L3.5 6.55L1.8 6.45L5 3.9L3.6 3.9Q4.05 3.75 6.35 0.6L6.85 0L7.4 0.7L10 4L8.7 3.95Q10.7 5.65 12.15 6.15L10.45 6.35Q11.65 7.7 13.75 8.7L11.6 9.05L11.75 10.5z" />
<path style="fill:none;stroke-width:0.7;stroke-linecap:round;stroke-linejoin:round;stroke-miterlimit:3;stroke:#000000;stroke-opacity:0.4" d="M4.45 7.95Q5.55 6.85 7 6.85Q8.5 6.85 9.55 7.95L9.85 8.3Q10.55 9.25 10.55 10.55Q10.55 12.1 9.45 13.15Q8.4 14.2 6.9 14.2Q5.75 14.2 4.8 13.55L4.35 13.15Q3.35 12.1 3.35 10.55Q3.35 9 4.45 7.95z" />
</g>
</svg>
