<?xml version="1.0" encoding="utf-8"?>
<svg version="1.1" id="Layer_1"
xmlns="http://www.w3.org/2000/svg"
xmlns:xlink="http://www.w3.org/1999/xlink"
width="8px" height="7px"
xml:space="preserve">
<g id="PathID_1162" transform="matrix(1, 0, 0, 1, 0.1, 0.1)">
<path style="fill:#808080;fill-opacity:1" d="M4.2 3.75Q2.1 3.5 2.85 5.9Q1.8 4.35 0.5 6.1Q1.6 3.15 0 3.25Q2.8 2.9 1.05 1.25Q2.75 1.9 3.45 0.45Q2.9 2.6 4.2 3.75" />
<path style="fill:none;stroke-width:0.7;stroke-linecap:round;stroke-linejoin:round;stroke-miterlimit:3;stroke:#000000;stroke-opacity:0.388235" d="M4.2 3.75Q2.1 3.5 2.85 5.9Q1.8 4.35 0.5 6.1Q1.6 3.15 0 3.25Q2.8 2.9 1.05 1.25Q2.75 1.9 3.45 0.45Q2.9 2.6 4.2 3.75z" />
</g>
<g id="PathID_1163" transform="matrix(1, 0, 0, 1, 0.1, 0.1)">
<path style="fill:#808080;fill-opacity:1" d="M3 0Q4 1.5 5.85 0.5Q4.1 2.65 7.3 2.55Q5.55 2.75 7.25 5.9Q5.45 4.1 4.55 6.1Q5 3.2 2.7 3.85Q3.95 2.35 3 0" />
<path style="fill:none;stroke-width:0.7;stroke-linecap:round;stroke-linejoin:round;stroke-miterlimit:3;stroke:#000000;stroke-opacity:0.388235" d="M2.7 3.85Q5 3.2 4.55 6.1Q5.45 4.1 7.25 5.9Q5.55 2.75 7.3 2.55Q4.1 2.65 5.85 0.5Q4 1.5 3 0Q3.95 2.35 2.7 3.85z" />
</g>
</svg>
