<?xml version="1.0" encoding="utf-8"?>
<svg version="1.1" id="Layer_1"
xmlns="http://www.w3.org/2000/svg"
xmlns:xlink="http://www.w3.org/1999/xlink"
width="28px" height="21px"
xml:space="preserve">
<g id="PathID_1459" transform="matrix(1, 0, 0, 1, 0.2, 0.15)">
<path style="fill:#343533;fill-opacity:1" d="M22.85 8.7Q23.45 7.2 23.4 5.55L24.4 5.55Q26.15 5.5 27.5 7.25Q25.95 8.7 24.45 8.1Q24.9 9.45 24 10.25Q22.8 9.45 22.85 8.7" />
<path style="fill:none;stroke-width:0.7;stroke-linecap:round;stroke-linejoin:round;stroke-miterlimit:3;stroke:#000000;stroke-opacity:0.388235" d="M24 10.25Q24.9 9.45 24.45 8.1Q25.95 8.7 27.5 7.25Q26.15 5.5 24.4 5.55L23.4 5.55Q23.45 7.2 22.85 8.7Q22.8 9.45 24 10.25z" />
</g>
<g id="PathID_1460" transform="matrix(1, 0, 0, 1, 0.2, 0.15)">
<path style="fill:#3F413C;fill-opacity:1" d="M21.25 8.8L18.15 9.05L17.45 7.95L19.6 5.5L20.65 7.95L23.4 8Q21.4 10.1 18.85 10.1L18.15 9.05L21.25 8.8" />
<path style="fill:none;stroke-width:0.7;stroke-linecap:round;stroke-linejoin:round;stroke-miterlimit:3;stroke:#A6A49E;stroke-opacity:0.388235" d="M18.15 9.05L21.25 8.8" />
<path style="fill:none;stroke-width:0.7;stroke-linecap:round;stroke-linejoin:round;stroke-miterlimit:3;stroke:#000000;stroke-opacity:0.388235" d="M18.15 9.05L18.85 10.1Q21.4 10.1 23.4 8L20.65 7.95L19.6 5.5L17.45 7.95L18.15 9.05z" />
</g>
<g id="PathID_1461" transform="matrix(1, 0, 0, 1, 0.2, 0.15)">
<path style="fill:#919191;fill-opacity:1" d="M12.7 3.35L17.1 3.45Q16 5.1 14.7 6L12.7 3.35" />
<path style="fill:none;stroke-width:0.7;stroke-linecap:round;stroke-linejoin:round;stroke-miterlimit:3;stroke:#000000;stroke-opacity:0.388235" d="M14.7 6Q16 5.1 17.1 3.45L12.7 3.35L14.7 6L14.35 6.2" />
</g>
<g id="PathID_1462" transform="matrix(1, 0, 0, 1, 0.2, 0.15)">
<path style="fill:#A8A8A8;fill-opacity:1" d="M18.35 4.25Q17.7 3.45 16.7 3.15Q17.55 2.5 18.55 2.65L19.15 2.8Q19.75 0.75 21.65 0L21.25 1.95Q19.95 5.4 18.65 4.7L18.35 4.25M19.15 2.8L18.55 2.65" />
<path style="fill:#74776A;fill-opacity:1" d="M18.65 4.7Q18.05 5.9 18.35 7.65L17.7 7.15Q17.6 5.55 18.35 4.25L18.65 4.7" />
<path style="fill:none;stroke-width:0.7;stroke-linecap:round;stroke-linejoin:round;stroke-miterlimit:3;stroke:#000000;stroke-opacity:0.388235" d="M18.35 4.25Q17.7 3.45 16.7 3.15Q17.55 2.5 18.55 2.65Q19.75 0.75 21.65 0L21.25 1.95Q19.95 5.4 18.65 4.7Q18.05 5.9 18.35 7.65L17.7 7.15Q17.6 5.55 18.35 4.25L18.65 4.7" />
<path style="fill:none;stroke-width:0.7;stroke-linecap:round;stroke-linejoin:round;stroke-miterlimit:3;stroke:#000000;stroke-opacity:0.388235" d="M18.55 2.65L19.15 2.8" />
</g>
<g id="PathID_1463" transform="matrix(1, 0, 0, 1, 0.2, 0.15)">
<path style="fill:#808080;fill-opacity:1" d="M15.8 6.2Q15.7 6.75 15.75 7.2L14.8 5.4L15.75 7.2L15.4 8.6L14.8 7.45L15.4 8.6L15.35 9.05L14.15 7.95L14 7.75Q12.75 6.25 14.4 4.9L16 3.35L15.8 4.8L15.8 6.2M12.55 8.85L13.6 9.2L15.35 9.05L16.8 7.5L13.4 10.75Q11.35 10.05 10.9 7.75L12.55 8.85M12.75 10Q13.4 10 14 9.5Q13.4 10 12.75 10M16.8 7.5L18.05 7.1Q19.05 6.95 19.45 7.4L18.45 8.15L17.3 8.9L17.7 7.85L17.3 8.9L16.15 9.05L15.35 9.05" />
<path style="fill:#585555;fill-opacity:1" d="M15.75 7.2Q15.7 6.75 15.8 6.2L16.55 5.15L15.8 6.2L15.8 4.8L16 3.35Q17.05 4.85 17.55 6.05Q17.55 7 16.8 7.5L15.35 9.05L16.15 9.05L17.3 8.9L18.45 8.15L19.45 7.4L18.3 9.3Q17.35 10.1 16.4 10.3L15.35 9.05L13.6 9.2L12.55 8.85L10.9 7.75L11.85 7.6Q13.2 7 14 7.75L14.15 7.95L15.35 9.05L15.4 8.6L15.75 7.2M13.2 8.35L13.6 9.2L13.2 8.35M17.25 9.5L16.15 9.05L17.25 9.5" />
<path style="fill:none;stroke-width:0.7;stroke-linecap:round;stroke-linejoin:round;stroke-miterlimit:3;stroke:#000000;stroke-opacity:0.388235" d="M16 3.35L14.4 4.9Q12.75 6.25 14 7.75L14.15 7.95" />
<path style="fill:none;stroke-width:0.7;stroke-linecap:round;stroke-linejoin:round;stroke-miterlimit:3;stroke:#ECECEC;stroke-opacity:0.2" d="M15.35 9.05L15.4 8.6L14.8 7.45" />
<path style="fill:none;stroke-width:0.7;stroke-linecap:round;stroke-linejoin:round;stroke-miterlimit:3;stroke:#000000;stroke-opacity:0.388235" d="M16.8 7.5Q17.55 7 17.55 6.05Q17.05 4.85 16 3.35" />
<path style="fill:none;stroke-width:0.7;stroke-linecap:round;stroke-linejoin:round;stroke-miterlimit:3;stroke:#000000;stroke-opacity:0.388235" d="M10.9 7.75Q11.35 10.05 13.4 10.75L15.35 9.05" />
<path style="fill:none;stroke-width:0.7;stroke-linecap:round;stroke-linejoin:round;stroke-miterlimit:3;stroke:#ECECEC;stroke-opacity:0.2" d="M15.35 9.05L13.6 9.2L12.55 8.85" />
<path style="fill:none;stroke-width:0.7;stroke-linecap:round;stroke-linejoin:round;stroke-miterlimit:3;stroke:#000000;stroke-opacity:0.388235" d="M10.9 7.75L11.85 7.6Q13.2 7 14 7.75" />
<path style="fill:none;stroke-width:0.7;stroke-linecap:round;stroke-linejoin:round;stroke-miterlimit:3;stroke:#ECECEC;stroke-opacity:0.2" d="M13.6 9.2L13.2 8.35" />
<path style="fill:none;stroke-width:0.7;stroke-linecap:round;stroke-linejoin:round;stroke-miterlimit:3;stroke:#ECECEC;stroke-opacity:0.2" d="M14 9.5Q13.4 10 12.75 10" />
<path style="fill:none;stroke-width:0.7;stroke-linecap:round;stroke-linejoin:round;stroke-miterlimit:3;stroke:#000000;stroke-opacity:0.388235" d="M19.45 7.4Q19.05 6.95 18.05 7.1L16.8 7.5" />
<path style="fill:none;stroke-width:0.7;stroke-linecap:round;stroke-linejoin:round;stroke-miterlimit:3;stroke:#ECECEC;stroke-opacity:0.2" d="M15.35 9.05L16.15 9.05L17.3 8.9L17.7 7.85" />
<path style="fill:none;stroke-width:0.7;stroke-linecap:round;stroke-linejoin:round;stroke-miterlimit:3;stroke:#000000;stroke-opacity:0.388235" d="M19.45 7.4L18.3 9.3Q17.35 10.1 16.4 10.3L15.35 9.05" />
<path style="fill:none;stroke-width:0.7;stroke-linecap:round;stroke-linejoin:round;stroke-miterlimit:3;stroke:#ECECEC;stroke-opacity:0.2" d="M15.75 7.2Q15.7 6.75 15.8 6.2L15.8 4.8" />
<path style="fill:none;stroke-width:0.7;stroke-linecap:round;stroke-linejoin:round;stroke-miterlimit:3;stroke:#ECECEC;stroke-opacity:0.2" d="M15.4 8.6L15.75 7.2L14.8 5.4" />
<path style="fill:none;stroke-width:0.7;stroke-linecap:round;stroke-linejoin:round;stroke-miterlimit:3;stroke:#ECECEC;stroke-opacity:0.2" d="M17.3 8.9L18.45 8.15" />
<path style="fill:none;stroke-width:0.7;stroke-linecap:round;stroke-linejoin:round;stroke-miterlimit:3;stroke:#ECECEC;stroke-opacity:0.2" d="M16.15 9.05L17.25 9.5" />
<path style="fill:none;stroke-width:0.7;stroke-linecap:round;stroke-linejoin:round;stroke-miterlimit:3;stroke:#ECECEC;stroke-opacity:0.2" d="M15.8 6.2L16.55 5.15" />
</g>
<g id="PathID_1464" transform="matrix(1, 0, 0, 1, 0.2, 0.15)">
<path style="fill:#808080;fill-opacity:1" d="M12 8.5L9.9 8.2Q9.8 7.55 10 6.85L8.9 7.65Q9.3 8.45 9 8.8L10.9 9.8L9.55 10.95L9 8.8Q8.45 11.6 7.35 11.45Q7.05 10.95 7.1 10.4L8.65 9.3Q7.1 9.75 7.75 8.95L6.65 7.9L8.9 7.65Q5.85 6.8 5.5 4.85L7.6 5.45L7.85 6.95Q8.35 5.65 9.2 6.25L9.8 5L10.2 6.35Q10.35 4.3 11.3 3.8L11.85 5.55L10 6.85Q12.2 7.1 12 8.5M10 6.85L10.2 6.35L10.95 5.1L10.2 6.35L10 6.85L11.85 5.55M9 8.8L8.65 9.3L8.3 10.45L8.65 9.3L9 8.8Q9.3 8.45 9.9 8.2M9 8.8L9.55 10.95M8.9 7.65L7.85 6.95L7.6 5.45M7.85 6.95L6.6 5.85L7.85 6.95L8.9 7.65L9.9 8.2M10 6.85Q9.8 7.55 9.9 8.2M8.9 7.65L6.65 7.9M8.65 9.3L7.1 10.4M10.2 6.35L9.8 5" />
<path style="fill:none;stroke-width:0.7;stroke-linecap:round;stroke-linejoin:round;stroke-miterlimit:3;stroke:#000000;stroke-opacity:0.388235" d="M12 8.5L9.9 8.2L10.9 9.8L9.55 10.95Q8.45 11.6 7.35 11.45Q7.05 10.95 7.1 10.4Q7.1 9.75 7.75 8.95L6.65 7.9Q5.85 6.8 5.5 4.85L7.6 5.45Q8.35 5.65 9.2 6.25L9.8 5Q10.35 4.3 11.3 3.8L11.85 5.55Q12.2 7.1 12 8.5z" />
<path style="fill:none;stroke-width:0.7;stroke-linecap:round;stroke-linejoin:round;stroke-miterlimit:3;stroke:#B1B1B1;stroke-opacity:0.388235" d="M10.95 5.1L10.2 6.35L10 6.85L11.85 5.55" />
<path style="fill:none;stroke-width:0.7;stroke-linecap:round;stroke-linejoin:round;stroke-miterlimit:3;stroke:#B1B1B1;stroke-opacity:0.388235" d="M9.9 8.2Q9.3 8.45 9 8.8L9.55 10.95" />
<path style="fill:none;stroke-width:0.7;stroke-linecap:round;stroke-linejoin:round;stroke-miterlimit:3;stroke:#B1B1B1;stroke-opacity:0.388235" d="M7.6 5.45L7.85 6.95L8.9 7.65L9.9 8.2Q9.8 7.55 10 6.85" />
<path style="fill:none;stroke-width:0.7;stroke-linecap:round;stroke-linejoin:round;stroke-miterlimit:3;stroke:#B1B1B1;stroke-opacity:0.388235" d="M9 8.8L8.65 9.3L8.3 10.45" />
<path style="fill:none;stroke-width:0.7;stroke-linecap:round;stroke-linejoin:round;stroke-miterlimit:3;stroke:#B1B1B1;stroke-opacity:0.388235" d="M6.65 7.9L8.9 7.65" />
<path style="fill:none;stroke-width:0.7;stroke-linecap:round;stroke-linejoin:round;stroke-miterlimit:3;stroke:#B1B1B1;stroke-opacity:0.388235" d="M8.65 9.3L7.1 10.4" />
<path style="fill:none;stroke-width:0.7;stroke-linecap:round;stroke-linejoin:round;stroke-miterlimit:3;stroke:#B1B1B1;stroke-opacity:0.388235" d="M7.85 6.95L6.6 5.85" />
<path style="fill:none;stroke-width:0.7;stroke-linecap:round;stroke-linejoin:round;stroke-miterlimit:3;stroke:#B1B1B1;stroke-opacity:0.388235" d="M10.2 6.35L9.8 5" />
</g>
<g id="PathID_1465" transform="matrix(1, 0, 0, 1, 0.2, 0.15)">
<path style="fill:#808080;fill-opacity:1" d="M19.5 4L20.3 4.9L19.5 4L20.3 4.25L20.3 4.9L21 5.7L21.75 6.55L19.9 7.45Q19.05 6.75 19.15 5.85L19.3 5.35L19.5 4M21.25 4.85Q22 4.2 23.15 4.1L24.8 3.65L22.65 5.65L21.75 6.55L23.35 7.4L21 5.7L19.3 5.35L20.3 4.9L20.3 4.25Q20.85 4.45 21.25 4.85M24.8 3.65L24.3 4.55L23.3 5.2L22.65 5.65L23.15 4.1M23.35 7.4L23.95 8.8L23.35 7.4L24.95 8.25Q24.7 8.7 23.95 8.8L22.85 8.7L21.75 8.4L21.75 6.55M19.3 5.35L21 5.7" />
<path style="fill:#585555;fill-opacity:1" d="M24.3 4.55L24.8 3.65L24.7 5.05L24.55 5.5Q24.15 6.6 23.2 6.55Q24.1 6.7 24.95 8.25L23.35 7.4L21.75 6.55L22.65 5.65L23.3 5.2L24.3 4.55M24.7 5.05L23.3 5.2L24.7 5.05" />
<path style="fill:none;stroke-width:0.7;stroke-linecap:round;stroke-linejoin:round;stroke-miterlimit:3;stroke:#9F9F9F;stroke-opacity:0.388235" d="M20.3 4.25L20.3 4.9L21 5.7L21.75 6.55L22.65 5.65L23.15 4.1" />
<path style="fill:none;stroke-width:0.7;stroke-linecap:round;stroke-linejoin:round;stroke-miterlimit:3;stroke:#000000;stroke-opacity:0.388235" d="M23.15 4.1Q22 4.2 21.25 4.85Q20.85 4.45 20.3 4.25L19.5 4" />
<path style="fill:none;stroke-width:0.7;stroke-linecap:round;stroke-linejoin:round;stroke-miterlimit:3;stroke:#9F9F9F;stroke-opacity:0.388235" d="M19.5 4L20.3 4.9" />
<path style="fill:none;stroke-width:0.7;stroke-linecap:round;stroke-linejoin:round;stroke-miterlimit:3;stroke:#000000;stroke-opacity:0.388235" d="M24.8 3.65L23.15 4.1" />
<path style="fill:none;stroke-width:0.7;stroke-linecap:round;stroke-linejoin:round;stroke-miterlimit:3;stroke:#000000;stroke-opacity:0.388235" d="M24.8 3.65L24.7 5.05L24.55 5.5Q24.15 6.6 23.2 6.55Q24.1 6.7 24.95 8.25Q24.7 8.7 23.95 8.8L22.85 8.7L21.75 8.4L21.75 6.55L19.9 7.45Q19.05 6.75 19.15 5.85L19.3 5.35L19.5 4" />
<path style="fill:none;stroke-width:0.7;stroke-linecap:round;stroke-linejoin:round;stroke-miterlimit:3;stroke:#9F9F9F;stroke-opacity:0.388235" d="M23.3 5.2L24.7 5.05" />
<path style="fill:none;stroke-width:0.7;stroke-linecap:round;stroke-linejoin:round;stroke-miterlimit:3;stroke:#9F9F9F;stroke-opacity:0.388235" d="M22.65 5.65L23.3 5.2L24.3 4.55" />
<path style="fill:none;stroke-width:0.7;stroke-linecap:round;stroke-linejoin:round;stroke-miterlimit:3;stroke:#9F9F9F;stroke-opacity:0.388235" d="M21.75 6.55L23.35 7.4L24.95 8.25" />
<path style="fill:none;stroke-width:0.7;stroke-linecap:round;stroke-linejoin:round;stroke-miterlimit:3;stroke:#9F9F9F;stroke-opacity:0.388235" d="M23.35 7.4L23.95 8.8" />
<path style="fill:none;stroke-width:0.7;stroke-linecap:round;stroke-linejoin:round;stroke-miterlimit:3;stroke:#9F9F9F;stroke-opacity:0.388235" d="M21 5.7L19.3 5.35" />
</g>
<g id="PathID_1466" transform="matrix(1, 0, 0, 1, 0.2, 0.15)">
<path style="fill:#5D340C;fill-opacity:1" d="M3.75 16.4Q4.25 13.75 6.5 11.85L6.75 12.4Q4.9 14.2 4.25 16.55L3.75 16.4" />
<path style="fill:none;stroke-width:0.7;stroke-linecap:round;stroke-linejoin:round;stroke-miterlimit:3;stroke:#000000;stroke-opacity:0.388235" d="M3.75 16.4Q4.25 13.75 6.5 11.85L6.75 12.4Q4.9 14.2 4.25 16.55L3.75 16.4z" />
</g>
<g id="PathID_1467" transform="matrix(1, 0, 0, 1, 0.2, 0.15)">
<path style="fill:#585555;fill-opacity:1" d="M3.6 19.8L3.7 18.8Q3.3 17.35 4.15 16.7L4.35 16.55L5.7 15.6L5.9 14.8L6.55 13.65L5.9 14.8L5.95 13.6L5.35 12.25L4.85 11L6.6 12.65Q7.25 13.75 7.2 14.7L5.7 15.6Q5.8 16.55 5.55 17.4L5 18.4L3.6 19.8M3.9 14.85L2.9 14.55L1.5 14.2L0 13.85Q1.7 13.05 3.1 12.8Q4.1 12.9 4.5 13.8L5.7 15.6L5.2 15.35L3.9 14.85M2 13.55L2.9 14.55L2 13.55M4.65 17.6L5.55 17.4L4.65 17.6" />
<path style="fill:#808080;fill-opacity:1" d="M4.5 13.8L4.2 12.4Q4.25 11.35 4.85 11L5.35 12.25L5.95 13.6L5.9 14.8L5.7 15.6L4.35 16.55L4.15 16.7Q2.4 17.7 1.3 15.75L0 13.85L1.5 14.2L2.9 14.55L3.9 14.85L1.9 15.45L3.9 14.85L5.2 15.35L4.05 15.8L5.2 15.35L5.7 15.6M5 18.4L5.55 17.4Q5.8 16.55 5.7 15.6L4.5 13.8L7.15 17.85Q6 19.8 3.6 19.8L5 18.4M6.15 18.4Q6.3 17.75 5.95 17.05Q6.3 17.75 6.15 18.4M4.95 12.9L5.95 13.6L4.95 12.9" />
<path style="fill:none;stroke-width:0.7;stroke-linecap:round;stroke-linejoin:round;stroke-miterlimit:3;stroke:#ECECEC;stroke-opacity:0.388235" d="M5.35 12.25L5.95 13.6L5.9 14.8L6.55 13.65" />
<path style="fill:none;stroke-width:0.7;stroke-linecap:round;stroke-linejoin:round;stroke-miterlimit:3;stroke:#000000;stroke-opacity:0.388235" d="M4.85 11L6.6 12.65Q7.25 13.75 7.2 14.7L5.7 15.6L7.15 17.85Q6 19.8 3.6 19.8L3.7 18.8Q3.3 17.35 4.15 16.7Q2.4 17.7 1.3 15.75L0 13.85Q1.7 13.05 3.1 12.8Q4.1 12.9 4.5 13.8L4.2 12.4Q4.25 11.35 4.85 11z" />
<path style="fill:none;stroke-width:0.7;stroke-linecap:round;stroke-linejoin:round;stroke-miterlimit:3;stroke:#ECECEC;stroke-opacity:0.388235" d="M5.7 15.6Q5.8 16.55 5.55 17.4L5 18.4" />
<path style="fill:none;stroke-width:0.7;stroke-linecap:round;stroke-linejoin:round;stroke-miterlimit:3;stroke:#ECECEC;stroke-opacity:0.388235" d="M5.95 17.05Q6.3 17.75 6.15 18.4" />
<path style="fill:none;stroke-width:0.7;stroke-linecap:round;stroke-linejoin:round;stroke-miterlimit:3;stroke:#ECECEC;stroke-opacity:0.388235" d="M5.7 15.6L5.9 14.8" />
<path style="fill:none;stroke-width:0.7;stroke-linecap:round;stroke-linejoin:round;stroke-miterlimit:3;stroke:#ECECEC;stroke-opacity:0.388235" d="M5.7 15.6L5.2 15.35L4.05 15.8" />
<path style="fill:none;stroke-width:0.7;stroke-linecap:round;stroke-linejoin:round;stroke-miterlimit:3;stroke:#ECECEC;stroke-opacity:0.388235" d="M3.9 14.85L2.9 14.55L1.5 14.2" />
<path style="fill:none;stroke-width:0.7;stroke-linecap:round;stroke-linejoin:round;stroke-miterlimit:3;stroke:#000000;stroke-opacity:0.388235" d="M4.15 16.7L4.35 16.55" />
<path style="fill:none;stroke-width:0.7;stroke-linecap:round;stroke-linejoin:round;stroke-miterlimit:3;stroke:#ECECEC;stroke-opacity:0.388235" d="M2.9 14.55L2 13.55" />
<path style="fill:none;stroke-width:0.7;stroke-linecap:round;stroke-linejoin:round;stroke-miterlimit:3;stroke:#ECECEC;stroke-opacity:0.388235" d="M3.9 14.85L1.9 15.45" />
<path style="fill:none;stroke-width:0.7;stroke-linecap:round;stroke-linejoin:round;stroke-miterlimit:3;stroke:#ECECEC;stroke-opacity:0.388235" d="M5.95 13.6L4.95 12.9" />
<path style="fill:none;stroke-width:0.7;stroke-linecap:round;stroke-linejoin:round;stroke-miterlimit:3;stroke:#ECECEC;stroke-opacity:0.388235" d="M5.2 15.35L3.9 14.85" />
<path style="fill:none;stroke-width:0.7;stroke-linecap:round;stroke-linejoin:round;stroke-miterlimit:3;stroke:#ECECEC;stroke-opacity:0.388235" d="M5.55 17.4L4.65 17.6" />
</g>
<g id="PathID_1468" transform="matrix(1, 0, 0, 1, 0.2, 0.15)">
<path style="fill:#808080;fill-opacity:1" d="M6.4 14.8L7.5 13.2L6.4 14.8L4.55 14.8L5.35 14L6.65 13.5L7.5 13.2L8.75 12.4L7.4 10.9L6 9.5Q6.45 8.95 7.3 9.15Q7.75 9.2 8.4 9.6L9.45 10.35L8.75 12.4L11.05 11.95Q11.6 13 11.25 14.05L10.95 14.6L10.2 16Q9.8 15.9 9.5 15.5L8.7 14.6L6.4 14.8M7.3 9.15L7.4 10.9L7.3 9.15M8.75 12.4L9.25 13.65L9.7 14.75L9.5 15.5L9.7 14.75L9.25 13.65L8.75 12.4M10.95 14.6L9.25 13.65L10.95 14.6M10.2 16L9.7 14.75L10.2 16" />
<path style="fill:#585555;fill-opacity:1" d="M5.1 13.3L5.45 12.75Q6.3 11.6 7.2 11.95Q6.4 11.55 6 9.5L7.4 10.9L8.75 12.4L7.5 13.2L6.65 13.5L5.35 14L5.1 13.3M5.35 14L4.55 14.8Q4.65 14.1 5.1 13.3L6.65 13.5" />
<path style="fill:none;stroke-width:0.7;stroke-linecap:round;stroke-linejoin:round;stroke-miterlimit:3;stroke:#9F9F9F;stroke-opacity:0.388235" d="M6.65 13.5L7.5 13.2L8.75 12.4L7.4 10.9L6 9.5" />
<path style="fill:none;stroke-width:0.7;stroke-linecap:round;stroke-linejoin:round;stroke-miterlimit:3;stroke:#000000;stroke-opacity:0.388235" d="M6 9.5Q6.4 11.55 7.2 11.95Q6.3 11.6 5.45 12.75L5.1 13.3" />
<path style="fill:none;stroke-width:0.7;stroke-linecap:round;stroke-linejoin:round;stroke-miterlimit:3;stroke:#9F9F9F;stroke-opacity:0.388235" d="M5.1 13.3L6.65 13.5L5.35 14" />
<path style="fill:none;stroke-width:0.7;stroke-linecap:round;stroke-linejoin:round;stroke-miterlimit:3;stroke:#000000;stroke-opacity:0.388235" d="M4.55 14.8L6.4 14.8" />
<path style="fill:none;stroke-width:0.7;stroke-linecap:round;stroke-linejoin:round;stroke-miterlimit:3;stroke:#9F9F9F;stroke-opacity:0.388235" d="M6.4 14.8L7.5 13.2" />
<path style="fill:none;stroke-width:0.7;stroke-linecap:round;stroke-linejoin:round;stroke-miterlimit:3;stroke:#000000;stroke-opacity:0.388235" d="M6 9.5Q6.45 8.95 7.3 9.15Q7.75 9.2 8.4 9.6L9.45 10.35L8.75 12.4L11.05 11.95Q11.6 13 11.25 14.05L10.95 14.6L10.2 16Q9.8 15.9 9.5 15.5L8.7 14.6L6.4 14.8" />
<path style="fill:none;stroke-width:0.7;stroke-linecap:round;stroke-linejoin:round;stroke-miterlimit:3;stroke:#9F9F9F;stroke-opacity:0.388235" d="M7.4 10.9L7.3 9.15" />
<path style="fill:none;stroke-width:0.7;stroke-linecap:round;stroke-linejoin:round;stroke-miterlimit:3;stroke:#9F9F9F;stroke-opacity:0.388235" d="M9.5 15.5L9.7 14.75L9.25 13.65L8.75 12.4" />
<path style="fill:none;stroke-width:0.7;stroke-linecap:round;stroke-linejoin:round;stroke-miterlimit:3;stroke:#000000;stroke-opacity:0.388235" d="M4.55 14.8Q4.65 14.1 5.1 13.3" />
<path style="fill:none;stroke-width:0.7;stroke-linecap:round;stroke-linejoin:round;stroke-miterlimit:3;stroke:#9F9F9F;stroke-opacity:0.388235" d="M9.25 13.65L10.95 14.6" />
<path style="fill:none;stroke-width:0.7;stroke-linecap:round;stroke-linejoin:round;stroke-miterlimit:3;stroke:#9F9F9F;stroke-opacity:0.388235" d="M9.7 14.75L10.2 16" />
</g>
</svg>
