<?xml version="1.0" encoding="utf-8"?>
<svg version="1.1" id="Layer_1"
xmlns="http://www.w3.org/2000/svg"
xmlns:xlink="http://www.w3.org/1999/xlink"
width="22px" height="24px"
xml:space="preserve">
<g id="PathID_2828" transform="matrix(1, 0, 0, 1, 0, 0)">
<radialGradient
id="RadialGradID_875" gradientUnits="userSpaceOnUse" gradientTransform="matrix(0.0233612, 0, 0, 0.0233612, 13.05, -3.85)" spreadMethod ="pad" cx="0" cy="0" r="819.2" fx="48" fy="0" >
<stop  offset="0"  style="stop-color:#BDBDBD;stop-opacity:1" />
<stop  offset="0.976471"  style="stop-color:#808080;stop-opacity:1" />
</radialGradient>
<path style="fill:url(#RadialGradID_875) " d="M19.3 5.15Q19.9 6.05 18.75 7.45Q17.15 7.55 17.15 4.85L15.5 6.25Q13.25 7 11.9 4.25Q11.5 6.55 10.3 7.45Q8.35 8.2 6.9 6.6Q7.5 10.85 5.85 13.8L6.55 14.9Q6.95 15.65 6.95 16.25L6.45 17.25Q9.55 17.7 9.55 18.7L9.45 19.45L10.15 19.2Q10.75 20.45 10.05 21.1Q8.45 21.85 8.2 19.65Q6.15 21.2 6 18.55Q3.6 19.3 3.6 17.3Q0.15 17.6 1.65 14.35L0.6 12.8Q0 11.65 0 10.6Q0 9.5 1.3 8.75Q2.6 8.05 3.35 8.4Q3 7.95 3 6.3Q3 4.85 4.1 3.7Q5.2 2.55 6.45 2.25L8.6 2.15Q8.85 0.2 11.15 0Q12.05 -0.05 12.85 1.1L13.65 2.65Q13.7 2.25 14.75 1.2Q15.9 0.1 16.85 0.1Q17.95 0.1 18.35 0.85L18.55 2.1L18.35 3.3Q19.2 2.8 19.9 2.8Q20.8 2.8 21.2 3.2L21.3 3.35Q20.6 5.95 19.3 5.15" />
<path style="fill:#555B5D;fill-opacity:1" d="M21.3 3.35L21.5 4.5Q21.5 4.95 20.9 5.9L20.05 6.95Q21.65 6.6 21.75 8.05Q21.85 9.45 21.3 10.35Q20.75 11.3 20.15 11.05L18.85 10.15Q18.25 9.55 18.5 8.7L17.45 8.6Q16.5 8.5 16.45 6.75Q15 8.05 13.95 7.8Q13.25 7.65 12.8 7.2L12.35 6.55L11.8 8Q11 9.4 9.65 9.4L8.15 9.05L8.3 10.9Q8.3 12.1 7.1 13.1L5.85 13.8Q7.5 10.85 6.9 6.6Q8.35 8.2 10.3 7.45Q11.5 6.55 11.9 4.25Q13.25 7 15.5 6.25L17.15 4.85Q17.15 7.55 18.75 7.45Q19.9 6.05 19.3 5.15Q20.6 5.95 21.3 3.35M10.15 19.2L10.25 19.2Q11.4 19.2 11.4 20.35L11.2 21.2L12.15 21.15Q12.45 21.25 12.45 22L11.7 23.15Q10.7 24.1 9.4 23.95Q8.05 23.8 7.35 23.1Q6.8 22.5 6.9 22Q6.2 22.85 4.85 22.85Q4.15 22.85 3.55 22.45Q2.9 22 2.9 21.45Q2.9 20.85 3.35 20.45Q3.75 20.05 4.35 20.05Q2.5 19.65 1.55 18.6Q0.6 17.55 0.4 16.5Q0.2 15.45 1.65 14.35Q0.15 17.6 3.6 17.3Q3.6 19.3 6 18.55Q6.15 21.2 8.2 19.65Q8.45 21.85 10.05 21.1Q10.75 20.45 10.15 19.2" />
<path style="fill:none;stroke-width:0.7;stroke-linecap:round;stroke-linejoin:round;stroke-miterlimit:3;stroke:#000000;stroke-opacity:0.4" d="M1.65 14.35L0.6 12.8Q0 11.65 0 10.6Q0 9.5 1.3 8.75Q2.6 8.05 3.35 8.4Q3 7.95 3 6.3Q3 4.85 4.1 3.7Q5.2 2.55 6.45 2.25L8.6 2.15Q8.85 0.2 11.15 0Q12.05 -0.05 12.85 1.1L13.65 2.65Q13.7 2.25 14.75 1.2Q15.9 0.1 16.85 0.1Q17.95 0.1 18.35 0.85L18.55 2.1L18.35 3.3Q19.2 2.8 19.9 2.8Q20.8 2.8 21.2 3.2L21.3 3.35L21.5 4.5Q21.5 4.95 20.9 5.9L20.05 6.95Q21.65 6.6 21.75 8.05Q21.85 9.45 21.3 10.35Q20.75 11.3 20.15 11.05L18.85 10.15Q18.25 9.55 18.5 8.7L17.45 8.6Q16.5 8.5 16.45 6.75Q15 8.05 13.95 7.8Q13.25 7.65 12.8 7.2L12.35 6.55L11.8 8Q11 9.4 9.65 9.4L8.15 9.05L8.3 10.9Q8.3 12.1 7.1 13.1L5.85 13.8L6.55 14.9Q6.95 15.65 6.95 16.25L6.45 17.25Q9.55 17.7 9.55 18.7L9.45 19.45L10.15 19.2L10.25 19.2Q11.4 19.2 11.4 20.35L11.2 21.2L12.15 21.15Q12.45 21.25 12.45 22L11.7 23.15Q10.7 24.1 9.4 23.95Q8.05 23.8 7.35 23.1Q6.8 22.5 6.9 22Q6.2 22.85 4.85 22.85Q4.15 22.85 3.55 22.45Q2.9 22 2.9 21.45Q2.9 20.85 3.35 20.45Q3.75 20.05 4.35 20.05Q2.5 19.65 1.55 18.6Q0.6 17.55 0.4 16.5Q0.2 15.45 1.65 14.35z" />
</g>
</svg>
