<?xml version="1.0" encoding="utf-8"?>
<svg version="1.1" id="Layer_1"
xmlns="http://www.w3.org/2000/svg"
xmlns:xlink="http://www.w3.org/1999/xlink"
width="38px" height="24px"
xml:space="preserve">
<g id="PathID_2797" transform="matrix(1, 0, 0, 1, 18.9, 12.8)">
<radialGradient
id="RadialGradID_855" gradientUnits="userSpaceOnUse" gradientTransform="matrix(0.0209351, 0, 0, 0.0209351, 6.8, -4.95)" spreadMethod ="pad" cx="0" cy="0" r="819.2" fx="0" fy="0" >
<stop  offset="0.380392"  style="stop-color:#808080;stop-opacity:1" />
<stop  offset="1"  style="stop-color:#5B5550;stop-opacity:1" />
</radialGradient>
<path style="fill:url(#RadialGradID_855) " d="M17.75 -5.5Q15.7 -5.75 14.05 -4.9Q13.05 -4.4 12.25 -3.7L12 -3.85L11.7 -3.95Q10.35 -4.25 6.65 -2.35Q2.25 -0.15 2.2 1.7Q2.15 3.4 6.1 7.95L7 8.95Q3.25 10.05 0.35 9.5L0.05 8.55L0.35 9.5L0.3 9.5L-1.65 8.95L-2.1 7.9L-1.65 8.95L-12.3 4.55Q-18.85 2.05 -18.9 -0.95Q-18.95 -3.35 -12.6 -8Q-6.55 -12.4 -3.9 -12.7L0.85 -12.65L5.7 -12.3Q11.4 -12.3 15.45 -8.65Q17.1 -7.15 18.1 -5.4L17.75 -5.5" />
<path style="fill:#5B5550;fill-opacity:1" d="M18.1 -5.4L18.9 -3.65L15.75 0.55Q14.05 -2.55 12.25 -3.7Q13.05 -4.4 14.05 -4.9Q15.7 -5.75 17.75 -5.5L18.1 -5.4" />
<path style="fill:none;stroke-width:0.7;stroke-linecap:round;stroke-linejoin:round;stroke-miterlimit:3;stroke:#000000;stroke-opacity:0.301961" d="M18.1 -5.4Q17.1 -7.15 15.45 -8.65Q11.4 -12.3 5.7 -12.3L0.85 -12.65L-3.9 -12.7Q-6.55 -12.4 -12.6 -8Q-18.95 -3.35 -18.9 -0.95Q-18.85 2.05 -12.3 4.55L-1.65 8.95L-2.1 7.9" />
<path style="fill:none;stroke-width:0.7;stroke-linecap:round;stroke-linejoin:round;stroke-miterlimit:3;stroke:#000000;stroke-opacity:0.301961" d="M18.1 -5.4L18.9 -3.65L15.75 0.55Q14.05 -2.55 12.25 -3.7L12 -3.85L11.7 -3.95Q10.35 -4.25 6.65 -2.35Q2.25 -0.15 2.2 1.7Q2.15 3.4 6.1 7.95L7 8.95Q3.25 10.05 0.35 9.5L0.65 10.55" />
<path style="fill:none;stroke-width:0.7;stroke-linecap:round;stroke-linejoin:round;stroke-miterlimit:3;stroke:#000000;stroke-opacity:0.301961" d="M-1.65 8.95L0.3 9.5L0.35 9.5L0.05 8.55" />
<path style="fill:none;stroke-width:0.7;stroke-linecap:round;stroke-linejoin:round;stroke-miterlimit:3;stroke:#000000;stroke-opacity:0.301961" d="M-1.65 8.95L-1.2 10.05" />
</g>
</svg>
