<?xml version="1.0" encoding="utf-8"?>
<svg version="1.1" id="Layer_1"
xmlns="http://www.w3.org/2000/svg"
xmlns:xlink="http://www.w3.org/1999/xlink"
width="27px" height="31px"
xml:space="preserve">
<g id="PathID_3208" transform="matrix(1, 0, 0, 1, 0.1, 0.1)">
<path style="fill:#808080;fill-opacity:1" d="M25 25.4L24.2 24.5L21.95 27.25Q19.25 26.45 18.5 25.6L17.35 24.15Q16.2 26 16.4 27.7L13.9 25.7L12.75 28.65Q11.2 27.9 9.6 26.55L9 27.65L9 25.05L9 21.9L9 21.35L8.95 18.9L11.4 16.45L9.4 16.95Q9.35 16.65 8.65 16.65Q8.75 15.7 8.25 14.95L8.2 13.65L8.2 12.6L7.95 10.55L7.9 9.4L7.8 8.15L9.4 7.6L11 7.1L12.35 6.2L13.15 6.2L13.65 6.05L20.55 5.25Q23.7 9.25 24.5 12.5L24.9 14.6Q24.6 14.45 24.05 15.4Q23.45 16.45 23.65 17.55Q23.85 18.65 24.55 18.95L25.9 18.95L26.1 22.6L25 25.4M16.05 19.05Q15.9 16.35 13.75 16.75Q11 17.25 11.1 20.05Q11.2 22.8 13.5 22.35Q16.25 21.8 16.05 19.05" />
<path style="fill:#8E8E8E;fill-opacity:1" d="M20.2 3.85L18.5 4.4L14.55 5.55Q13.9 5.75 13.65 6.05L13.15 6.2L12.35 6.2L11 7.1L9.4 7.6L7.8 8.15L3.65 6.4L6.55 5.65L8.8 5L10.5 4.5L11.55 4.15L12.9 3.75L15.6 2.85L18.05 2L23.95 3.2L22.7 3.3L21.5 3.45L20.2 3.85" />
<path style="fill:#858585;fill-opacity:1" d="M0 4.9L15.7 0L18.05 2L15.6 2.85L12.9 3.75L11.55 4.15L10.5 4.5L8.8 5L6.55 5.65L3.65 6.4L0 4.9" />
<path style="fill:#645E54;fill-opacity:1" d="M4.7 12.9L4.85 14.65L3.9 24.3L2.85 25.3L1.8 26.15L0.8 23.1L1 19.7L1.15 14.85L1.05 12.7L1.2 6.4Q2.2 6.05 3.65 6.4L4.15 9L4.55 11.9L4.65 9.5Q4.7 8.7 4.9 8.15Q5.65 8.3 6.95 10.9L8.15 13.65L8.2 13.65L8.25 14.95Q8.75 15.7 8.65 16.65Q9.35 16.65 9.4 16.95L8.9 18.4L8.95 18.9L9 21.35L9 21.9Q8.35 28.35 7.65 28.75Q5.85 27.75 5.35 24.3L5.2 22.8L5.2 22.75L5.2 21.65L5.2 19.6L5.05 16.65L4.85 14.65L4.7 12.9" />
<path style="fill:#564F4A;fill-opacity:1" d="M7.9 9.4L7.95 10.55L8.2 12.6L8.2 13.65L8.15 13.65L6.95 10.9Q5.65 8.3 4.9 8.15Q4.7 8.7 4.65 9.5L4.55 11.9L4.15 9L3.65 6.4Q2.2 6.05 1.2 6.4L7.8 8.15L7.9 9.4M4.85 14.65L5.05 16.65L5.2 19.6L5.2 21.65L5.2 22.75L5.2 22.8L5.35 24.3Q5.85 27.75 7.65 28.75Q8.35 28.35 9 21.9L9 25.05L9 27.65L8.9 30.25L5 27.15L0.3 27.15L0.8 23.1L1.8 26.15L2.85 25.3L3.9 24.3L4.85 14.65M1.2 6.4L1.05 12.7L0.6 8.7L0.45 7.6L0 4.9L3.65 6.4M5.15 24.95L5 27.15L5.15 24.95" />
<path style="fill:#6D5E51;fill-opacity:1" d="M13.65 6.05Q13.9 5.75 14.55 5.55L18.5 4.4L20.2 3.85L21.5 3.45L22.7 3.3L23.95 3.2Q23.75 7.65 24.5 12.5Q23.7 9.25 20.55 5.25L13.65 6.05M9 27.65L9.6 26.55Q11.2 27.9 12.75 28.65L13.9 25.7L16.4 27.7Q16.2 26 17.35 24.15L18.5 25.6Q19.25 26.45 21.95 27.25L24.2 24.5L25 25.4L26.1 22.6Q26.2 23.9 25.9 27.55L24 25.7L22.65 28.25L19.35 26.7L17.4 29.15L14.45 27.15L13.2 29.75L9.85 27.3L8.9 30.25L9 27.65M9.4 16.95L11.4 16.45L8.95 18.9L8.9 18.4L9.4 16.95" />
<path style="fill:none;stroke-width:0.7;stroke-linecap:round;stroke-linejoin:round;stroke-miterlimit:3;stroke:#000000;stroke-opacity:0.270588" d="M21.5 3.45L22.7 3.3L23.95 3.2L18.05 2L15.6 2.85" />
<path style="fill:none;stroke-width:0.7;stroke-linecap:round;stroke-linejoin:round;stroke-miterlimit:3;stroke:#000000;stroke-opacity:0.270588" d="M12.9 3.75L11.55 4.15" />
<path style="fill:none;stroke-width:0.7;stroke-linecap:round;stroke-linejoin:round;stroke-miterlimit:3;stroke:#000000;stroke-opacity:0.270588" d="M10.5 4.5L8.8 5" />
<path style="fill:none;stroke-width:0.7;stroke-linecap:round;stroke-linejoin:round;stroke-miterlimit:3;stroke:#000000;stroke-opacity:0.270588" d="M6.55 5.65L3.65 6.4L7.8 8.15L9.4 7.6" />
<path style="fill:none;stroke-width:0.7;stroke-linecap:round;stroke-linejoin:round;stroke-miterlimit:3;stroke:#000000;stroke-opacity:0.270588" d="M11 7.1L12.35 6.2L13.15 6.2L13.65 6.05Q13.9 5.75 14.55 5.55" />
<path style="fill:none;stroke-width:0.7;stroke-linecap:round;stroke-linejoin:round;stroke-miterlimit:3;stroke:#000000;stroke-opacity:0.270588" d="M18.5 4.4L20.2 3.85" />
<path style="fill:none;stroke-width:0.7;stroke-linecap:round;stroke-linejoin:round;stroke-miterlimit:3;stroke:#000000;stroke-opacity:0.270588" d="M24.5 12.5L24.9 14.6Q24.6 14.45 24.05 15.4Q23.45 16.45 23.65 17.55Q23.85 18.65 24.55 18.95L25.9 18.95L26.1 22.6Q26.2 23.9 25.9 27.55L24 25.7L22.65 28.25L19.35 26.7L17.4 29.15L14.45 27.15L13.2 29.75L9.85 27.3L8.9 30.25L5 27.15L0.3 27.15L0.8 23.1L1 19.7" />
<path style="fill:none;stroke-width:0.7;stroke-linecap:round;stroke-linejoin:round;stroke-miterlimit:3;stroke:#000000;stroke-opacity:0.270588" d="M1.15 14.85L1.05 12.7L0.6 8.7" />
<path style="fill:none;stroke-width:0.7;stroke-linecap:round;stroke-linejoin:round;stroke-miterlimit:3;stroke:#000000;stroke-opacity:0.270588" d="M0.45 7.6L0 4.9L15.7 0L18.05 2" />
<path style="fill:none;stroke-width:0.7;stroke-linecap:round;stroke-linejoin:round;stroke-miterlimit:3;stroke:#000000;stroke-opacity:0.270588" d="M23.95 3.2Q23.75 7.65 24.5 12.5" />
<path style="fill:none;stroke-width:0.7;stroke-linecap:round;stroke-linejoin:round;stroke-miterlimit:3;stroke:#000000;stroke-opacity:0.270588" d="M3.65 6.4L4.15 9" />
<path style="fill:none;stroke-width:0.7;stroke-linecap:round;stroke-linejoin:round;stroke-miterlimit:3;stroke:#000000;stroke-opacity:0.270588" d="M8.2 12.6L7.95 10.55" />
<path style="fill:none;stroke-width:0.7;stroke-linecap:round;stroke-linejoin:round;stroke-miterlimit:3;stroke:#000000;stroke-opacity:0.270588" d="M7.9 9.4L7.8 8.15" />
<path style="fill:none;stroke-width:0.7;stroke-linecap:round;stroke-linejoin:round;stroke-miterlimit:3;stroke:#000000;stroke-opacity:0.270588" d="M3.65 6.4L0 4.9" />
<path style="fill:none;stroke-width:0.7;stroke-linecap:round;stroke-linejoin:round;stroke-miterlimit:3;stroke:#000000;stroke-opacity:0.270588" d="M8.2 13.65L8.25 14.95Q8.75 15.7 8.65 16.65Q9.35 16.65 9.4 16.95" />
<path style="fill:none;stroke-width:0.7;stroke-linecap:round;stroke-linejoin:round;stroke-miterlimit:3;stroke:#000000;stroke-opacity:0.270588" d="M8.95 18.9L9 21.35" />
<path style="fill:none;stroke-width:0.7;stroke-linecap:round;stroke-linejoin:round;stroke-miterlimit:3;stroke:#000000;stroke-opacity:0.270588" d="M9 21.9L9 25.05" />
<path style="fill:none;stroke-width:0.7;stroke-linecap:round;stroke-linejoin:round;stroke-miterlimit:3;stroke:#000000;stroke-opacity:0.270588" d="M8.95 18.9L8.9 18.4L9.4 16.95" />
<path style="fill:none;stroke-width:0.7;stroke-linecap:round;stroke-linejoin:round;stroke-miterlimit:3;stroke:#000000;stroke-opacity:0.270588" d="M4.85 14.65L4.7 12.9" />
<path style="fill:none;stroke-width:0.7;stroke-linecap:round;stroke-linejoin:round;stroke-miterlimit:3;stroke:#000000;stroke-opacity:0.270588" d="M4.85 14.65L5.05 16.65" />
<path style="fill:none;stroke-width:0.7;stroke-linecap:round;stroke-linejoin:round;stroke-miterlimit:3;stroke:#000000;stroke-opacity:0.270588" d="M5.2 19.6L5.2 21.65" />
<path style="fill:none;stroke-width:0.7;stroke-linecap:round;stroke-linejoin:round;stroke-miterlimit:3;stroke:#000000;stroke-opacity:0.270588" d="M5.2 22.8L5.35 24.3" />
<path style="fill:none;stroke-width:0.7;stroke-linecap:round;stroke-linejoin:round;stroke-miterlimit:3;stroke:#000000;stroke-opacity:0.270588" d="M16.05 19.05Q15.9 16.35 13.75 16.75Q11 17.25 11.1 20.05Q11.2 22.8 13.5 22.35Q16.25 21.8 16.05 19.05z" />
<path style="fill:none;stroke-width:0.7;stroke-linecap:round;stroke-linejoin:round;stroke-miterlimit:3;stroke:#000000;stroke-opacity:0.270588" d="M5 27.15L5.15 24.95" />
<path style="fill:none;stroke-width:0.7;stroke-linecap:round;stroke-linejoin:round;stroke-miterlimit:3;stroke:#000000;stroke-opacity:0.270588" d="M9 27.65L8.9 30.25" />
</g>
</svg>
