<?xml version="1.0" encoding="utf-8"?>
<svg version="1.1" id="Layer_1"
xmlns="http://www.w3.org/2000/svg"
xmlns:xlink="http://www.w3.org/1999/xlink"
width="30px" height="25px"
xml:space="preserve">
<g id="PathID_2888" transform="matrix(1, 0, 0, 1, 0, 0)">
<radialGradient
id="RadialGradID_897" gradientUnits="userSpaceOnUse" gradientTransform="matrix(0.0161133, 0, 0, 0.0161133, 14.2, -1.9)" spreadMethod ="pad" cx="0" cy="0" r="819.2" fx="0" fy="0" >
<stop  offset="0"  style="stop-color:#BDBDBD;stop-opacity:1" />
<stop  offset="0.976471"  style="stop-color:#808080;stop-opacity:1" />
</radialGradient>
<path style="fill:url(#RadialGradID_897) " d="M21.55 1.7Q23.35 1.6 25.6 4.3Q24.65 6.7 23.4 5.7Q23.6 3.8 22.05 2.25Q23.15 5.55 21.2 7.15L21.55 1.7M21.2 7.15Q21.35 4.3 19.55 2.95Q20.95 7.35 17.25 9.05Q16.4 7.8 14.55 7.45Q15.2 8.65 15 10.95Q10.7 14.25 8.2 18.35Q3.15 19.4 0 13.5Q-0.25 8.95 4.1 3.85Q8.25 0 13.5 0Q19.25 0 21.55 1.7L22.05 2.25M3.55 21.4Q2.65 20.65 2.75 19.2Q3.2 19.5 3.9 19.8Q4.9 21.2 3.55 21.4" />
<path style="fill:#5B636B;fill-opacity:1" d="M3.9 19.8L6.3 20.15L3.9 19.8Q3.2 19.5 2.75 19.2Q1.85 18.55 1.3 17.65Q0 15.55 0 13.5Q3.15 19.4 8.2 18.35Q10.7 14.25 15 10.95Q15.2 8.65 14.55 7.45Q16.4 7.8 17.25 9.05Q20.95 7.35 19.55 2.95Q21.35 4.3 21.2 7.15Q23.15 5.55 22.05 2.25Q23.6 3.8 23.4 5.7Q24.65 6.7 25.6 4.3L25.9 6.55Q26.85 6.9 27.05 7.95L27.1 8.75Q26.85 9.45 25.25 9.6Q12.6 10.8 8.1 22.1L6.3 22.3L4.3 22L3.55 21.4Q4.9 21.2 3.9 19.8M23.8 9.05Q25.8 8.35 25.9 6.55Q25.8 8.35 23.8 9.05M21.35 8.4Q23.1 7.1 23.4 5.7Q23.1 7.1 21.35 8.4" />
<path style="fill:none;stroke-width:0.7;stroke-linecap:round;stroke-linejoin:round;stroke-miterlimit:3;stroke:#000000;stroke-opacity:0.4" d="M22.05 2.25Q23.6 3.8 23.4 5.7" />
<path style="fill:none;stroke-width:0.7;stroke-linecap:round;stroke-linejoin:round;stroke-miterlimit:3;stroke:#000000;stroke-opacity:0.4" d="M25.6 4.3Q23.35 1.6 21.55 1.7L22.05 2.25" />
<path style="fill:none;stroke-width:0.7;stroke-linecap:round;stroke-linejoin:round;stroke-miterlimit:3;stroke:#000000;stroke-opacity:0.4" d="M0 13.5Q0 15.55 1.3 17.65Q1.85 18.55 2.75 19.2Q3.2 19.5 3.9 19.8L6.3 20.15" />
<path style="fill:none;stroke-width:0.7;stroke-linecap:round;stroke-linejoin:round;stroke-miterlimit:3;stroke:#000000;stroke-opacity:0.4" d="M25.6 4.3L25.9 6.55Q26.85 6.9 27.05 7.95L27.1 8.75Q26.85 9.45 25.25 9.6Q12.6 10.8 8.1 22.1L6.3 22.3L4.3 22L3.55 21.4Q2.65 20.65 2.75 19.2" />
<path style="fill:none;stroke-width:0.7;stroke-linecap:round;stroke-linejoin:round;stroke-miterlimit:3;stroke:#000000;stroke-opacity:0.4" d="M25.9 6.55Q25.8 8.35 23.8 9.05" />
<path style="fill:none;stroke-width:0.7;stroke-linecap:round;stroke-linejoin:round;stroke-miterlimit:3;stroke:#000000;stroke-opacity:0.4" d="M23.4 5.7Q23.1 7.1 21.35 8.4" />
<path style="fill:none;stroke-width:0.7;stroke-linecap:round;stroke-linejoin:round;stroke-miterlimit:3;stroke:#000000;stroke-opacity:0.4" d="M0 13.5Q-0.25 8.95 4.1 3.85Q8.25 0 13.5 0Q19.25 0 21.55 1.7" />
</g>
<g id="PathID_2889" transform="matrix(1, 0, 0, 1, 0, 0)">
<path style="fill:#30373F;fill-opacity:1" d="M8.6 23L7.95 22.85Q8.5 17.5 12.9 12Q16.15 8.7 22.55 8.4L23.4 9.3Q12.75 9.7 8.6 23" />
<path style="fill:none;stroke-width:0.7;stroke-linecap:round;stroke-linejoin:round;stroke-miterlimit:3;stroke:#000000;stroke-opacity:0.4" d="M23.4 9.3L22.55 8.4Q16.15 8.7 12.9 12Q8.5 17.5 7.95 22.85L8.6 23Q12.75 9.7 23.4 9.3z" />
</g>
<g id="PathID_2890" transform="matrix(1, 0, 0, 1, 0, 0)">
<path style="fill:#454E56;fill-opacity:1" d="M23.1 13.95Q21.75 12.8 21.35 12.95L21.2 12.1Q21.2 11.7 21.55 11.25L22 10.8Q22.5 10.45 23.6 10.25L23.65 10.85Q22.8 12.9 23.1 13.95M28.05 12.65L27.3 14Q26.55 13.15 24.95 12.95L25.95 11.95L27.15 10.95Q28 10.35 28.5 10.45Q28.85 10.5 28.85 10.95L28.05 12.65M20.25 11.95L19.85 13.05L19.45 14.25L19.6 14.65Q18.8 14.1 18.25 14.05L18.15 13.85L17.95 12.85L17.95 12.8Q18 12.2 18.65 11.9Q19.3 11.5 19.95 11.55L20.05 11.55Q20.25 11.6 20.25 11.95M11.3 23L10.45 22.95Q9.7 23 9.65 22.6L9.7 22.15Q9.9 21.45 10.7 20.7L11.3 23M8.85 24.7Q7.8 24.4 8.05 24Q8.2 23.7 8.9 23.4L10.5 23.6L8.85 24.7M14.95 14.55L14.95 14.15Q15.05 12.9 15.75 12.95Q16.35 12.95 16.8 13.6L17.7 15.6L17.9 15.85Q16.05 14.8 14.95 15.1L14.95 14.55M12.85 18.7L12.95 18.75L12.8 19.6L12.4 20.85L11.8 19.55L12.85 18.7" />
<path style="fill:#808080;fill-opacity:1" d="M17 10.5Q17.25 10.1 18.65 10L19.9 9.9L20.4 9.9L20.6 9.9L23.6 10.25L20.6 9.9L20.4 9.9L19.9 9.9Q20.6 9 22.85 8.9Q25.05 8.75 27.6 9.5Q29.35 10.05 28.85 10.95Q28.85 10.5 28.5 10.45Q28 10.35 27.15 10.95L23.65 10.85L23.6 10.25Q22.5 10.45 22 10.8L21.55 11.25L17 10.5M29.2 13.5Q28.5 13.35 27.3 14L28.05 12.65L29.2 13.5M16.55 12.55L16.8 13.6L14.1 12.35Q14.1 11.65 14.9 11.15L16.85 11.15L20.05 11.55L19.95 11.55Q19.3 11.5 18.65 11.9Q18 12.2 17.95 12.8L16.55 12.55M16.8 13.6Q16.35 12.95 15.75 12.95Q15.05 12.9 14.95 14.15Q13.6 15.2 11.9 14.6Q11.6 13.55 12.5 12.6L14.1 12.35L16.55 12.55M15.15 16.8Q13.9 17.9 12.65 17.3Q11.95 16.75 11.45 16.7Q11.95 16.75 12.65 17.3L13.6 18.15L12.85 18.7L11.8 19.55L11.25 20.05L11.15 20.2Q9.8 20.45 9.8 19.45L11 16.75L11.45 16.7L11.7 15.4L12.4 15.45Q14.15 15.7 15.15 16.8M7.9 23.7Q7.6 22.9 8.2 21.9L8.65 21.2Q9.05 22.6 7.9 23.7" />
<path style="fill:#5B636B;fill-opacity:1" d="M20.05 11.55L16.85 11.15L17 10.5L21.55 11.25Q21.2 11.7 21.2 12.1L21.35 12.95L21.4 13.55Q21.4 14.05 21.05 14.4Q20.6 14.8 20.05 14.8L19.6 14.65L19.45 14.25L19.85 13.05L20.25 11.95Q20.25 11.6 20.05 11.55M23.1 13.95Q22.8 12.9 23.65 10.85L27.15 10.95L25.95 11.95L24.95 12.95Q23.4 14.6 23.1 13.95M18.4 15Q18.4 15.9 17.95 15.85L17.9 15.85L17.7 15.6L16.8 13.6L16.55 12.55L17.95 12.8L17.95 12.85L18.15 13.85L18.25 14.05L18.4 15M11.35 23.3Q11.3 23.6 10.5 23.6L8.9 23.4Q8.2 23.7 8.05 24L7.9 23.7Q9.05 22.6 8.65 21.2Q9.05 20.85 9.4 20.85L9.8 19.45Q9.8 20.45 11.15 20.2L10.7 20.7Q9.9 21.45 9.7 22.15L9.65 22.6Q9.7 23 10.45 22.95L11.3 23L11.35 23.3M12.8 19.6L12.95 18.75L12.85 18.7L13.6 18.15Q12.6 21.25 13.3 20.4Q12.6 21.25 13.6 18.15L12.65 17.3Q13.9 17.9 15.15 16.8Q14.15 15.7 12.4 15.45L11.9 14.6Q13.6 15.2 14.95 14.15L14.95 14.55L14.95 15.1L15.3 16.05Q15.7 16.85 15.7 17.55L15.45 18.55Q15.2 19.35 14.9 19.15Q14.65 19.05 14.95 18.2Q15.2 17.55 14.7 17.6Q14.3 17.65 14.1 19.5Q13.95 21.25 13.2 21.25L12.6 21.15L12.4 20.85L12.8 19.6M9.4 20.85Q9.45 22.25 9.65 22.6Q9.45 22.25 9.4 20.85" />
<path style="fill:#30373F;fill-opacity:1" d="M24.95 12.95Q26.55 13.15 27.3 14Q28.5 13.35 29.2 13.5Q29.45 14.3 26.5 15.7Q25.8 13.85 24.95 12.95" />
<path style="fill:none;stroke-width:0.7;stroke-linecap:round;stroke-linejoin:round;stroke-miterlimit:3;stroke:#000000;stroke-opacity:0.4" d="M23.65 10.85L23.6 10.25Q22.5 10.45 22 10.8L21.55 11.25Q21.2 11.7 21.2 12.1L21.35 12.95Q21.75 12.8 23.1 13.95Q22.8 12.9 23.65 10.85z" />
<path style="fill:none;stroke-width:0.7;stroke-linecap:round;stroke-linejoin:round;stroke-miterlimit:3;stroke:#000000;stroke-opacity:0.4" d="M27.15 10.95Q28 10.35 28.5 10.45Q28.85 10.5 28.85 10.95Q29.35 10.05 27.6 9.5Q25.05 8.75 22.85 8.9Q20.6 9 19.9 9.9L20.4 9.9L20.6 9.9L23.6 10.25" />
<path style="fill:none;stroke-width:0.7;stroke-linecap:round;stroke-linejoin:round;stroke-miterlimit:3;stroke:#000000;stroke-opacity:0.4" d="M27.15 10.95L25.95 11.95L24.95 12.95Q26.55 13.15 27.3 14L28.05 12.65L28.85 10.95" />
<path style="fill:none;stroke-width:0.7;stroke-linecap:round;stroke-linejoin:round;stroke-miterlimit:3;stroke:#000000;stroke-opacity:0.4" d="M29.2 13.5Q28.5 13.35 27.3 14" />
<path style="fill:none;stroke-width:0.7;stroke-linecap:round;stroke-linejoin:round;stroke-miterlimit:3;stroke:#000000;stroke-opacity:0.4" d="M28.05 12.65L29.2 13.5Q29.45 14.3 26.5 15.7Q25.8 13.85 24.95 12.95Q23.4 14.6 23.1 13.95" />
<path style="fill:none;stroke-width:0.7;stroke-linecap:round;stroke-linejoin:round;stroke-miterlimit:3;stroke:#000000;stroke-opacity:0.4" d="M19.6 14.65L20.05 14.8Q20.6 14.8 21.05 14.4Q21.4 14.05 21.4 13.55L21.35 12.95" />
<path style="fill:none;stroke-width:0.7;stroke-linecap:round;stroke-linejoin:round;stroke-miterlimit:3;stroke:#000000;stroke-opacity:0.4" d="M17.95 12.8Q18 12.2 18.65 11.9Q19.3 11.5 19.95 11.55L20.05 11.55L16.85 11.15L14.9 11.15Q14.1 11.65 14.1 12.35L16.55 12.55" />
<path style="fill:none;stroke-width:0.7;stroke-linecap:round;stroke-linejoin:round;stroke-miterlimit:3;stroke:#000000;stroke-opacity:0.4" d="M17.95 12.8L17.95 12.85L18.15 13.85L18.25 14.05Q18.8 14.1 19.6 14.65L19.45 14.25L19.85 13.05L20.25 11.95Q20.25 11.6 20.05 11.55" />
<path style="fill:none;stroke-width:0.7;stroke-linecap:round;stroke-linejoin:round;stroke-miterlimit:3;stroke:#000000;stroke-opacity:0.4" d="M19.9 9.9L18.65 10Q17.25 10.1 17 10.5" />
<path style="fill:none;stroke-width:0.7;stroke-linecap:round;stroke-linejoin:round;stroke-miterlimit:3;stroke:#000000;stroke-opacity:0.4" d="M16.85 11.15L17 10.5" />
<path style="fill:none;stroke-width:0.7;stroke-linecap:round;stroke-linejoin:round;stroke-miterlimit:3;stroke:#000000;stroke-opacity:0.4" d="M8.65 21.2Q9.05 20.85 9.4 20.85L9.8 19.45L11 16.75L11.45 16.7L11.7 15.4L12.4 15.45L11.9 14.6Q11.6 13.55 12.5 12.6L14.1 12.35" />
<path style="fill:none;stroke-width:0.7;stroke-linecap:round;stroke-linejoin:round;stroke-miterlimit:3;stroke:#000000;stroke-opacity:0.4" d="M10.7 20.7Q9.9 21.45 9.7 22.15L9.65 22.6Q9.7 23 10.45 22.95L11.3 23L10.7 20.7L11.15 20.2" />
<path style="fill:none;stroke-width:0.7;stroke-linecap:round;stroke-linejoin:round;stroke-miterlimit:3;stroke:#000000;stroke-opacity:0.4" d="M10.5 23.6L8.9 23.4Q8.2 23.7 8.05 24Q7.8 24.4 8.85 24.7L10.5 23.6Q11.3 23.6 11.35 23.3L11.3 23" />
<path style="fill:none;stroke-width:0.7;stroke-linecap:round;stroke-linejoin:round;stroke-miterlimit:3;stroke:#000000;stroke-opacity:0.4" d="M8.05 24L7.9 23.7Q7.6 22.9 8.2 21.9L8.65 21.2" />
<path style="fill:none;stroke-width:0.7;stroke-linecap:round;stroke-linejoin:round;stroke-miterlimit:3;stroke:#000000;stroke-opacity:0.4" d="M9.65 22.6Q9.45 22.25 9.4 20.85" />
<path style="fill:none;stroke-width:0.7;stroke-linecap:round;stroke-linejoin:round;stroke-miterlimit:3;stroke:#000000;stroke-opacity:0.4" d="M17.9 15.85L17.95 15.85Q18.4 15.9 18.4 15L18.25 14.05" />
<path style="fill:none;stroke-width:0.7;stroke-linecap:round;stroke-linejoin:round;stroke-miterlimit:3;stroke:#000000;stroke-opacity:0.4" d="M16.8 13.6L16.55 12.55" />
<path style="fill:none;stroke-width:0.7;stroke-linecap:round;stroke-linejoin:round;stroke-miterlimit:3;stroke:#000000;stroke-opacity:0.4" d="M14.95 14.15Q15.05 12.9 15.75 12.95Q16.35 12.95 16.8 13.6L17.7 15.6L17.9 15.85Q16.05 14.8 14.95 15.1L15.3 16.05Q15.7 16.85 15.7 17.55L15.45 18.55Q15.2 19.35 14.9 19.15Q14.65 19.05 14.95 18.2Q15.2 17.55 14.7 17.6Q14.3 17.65 14.1 19.5Q13.95 21.25 13.2 21.25L12.6 21.15L12.4 20.85L11.8 19.55L11.25 20.05L11.15 20.2" />
<path style="fill:none;stroke-width:0.7;stroke-linecap:round;stroke-linejoin:round;stroke-miterlimit:3;stroke:#000000;stroke-opacity:0.4" d="M14.95 14.15L14.95 14.55L14.95 15.1" />
<path style="fill:none;stroke-width:0.7;stroke-linecap:round;stroke-linejoin:round;stroke-miterlimit:3;stroke:#000000;stroke-opacity:0.4" d="M11.45 16.7Q11.95 16.75 12.65 17.3" />
<path style="fill:none;stroke-width:0.7;stroke-linecap:round;stroke-linejoin:round;stroke-miterlimit:3;stroke:#000000;stroke-opacity:0.4" d="M15.15 16.8Q14.15 15.7 12.4 15.45" />
<path style="fill:none;stroke-width:0.7;stroke-linecap:round;stroke-linejoin:round;stroke-miterlimit:3;stroke:#000000;stroke-opacity:0.4" d="M12.65 17.3L13.6 18.15Q12.6 21.25 13.3 20.4" />
<path style="fill:none;stroke-width:0.7;stroke-linecap:round;stroke-linejoin:round;stroke-miterlimit:3;stroke:#000000;stroke-opacity:0.4" d="M12.85 18.7L12.95 18.75L12.8 19.6L12.4 20.85" />
<path style="fill:none;stroke-width:0.7;stroke-linecap:round;stroke-linejoin:round;stroke-miterlimit:3;stroke:#000000;stroke-opacity:0.4" d="M12.85 18.7L11.8 19.55" />
</g>
</svg>
