<?xml version="1.0" encoding="utf-8"?>
<svg version="1.1" id="Layer_1"
xmlns="http://www.w3.org/2000/svg"
xmlns:xlink="http://www.w3.org/1999/xlink"
width="22px" height="13px"
xml:space="preserve">
<g id="PathID_3650" transform="matrix(1, 0, 0, 1, 0, 0)">
<path style="fill:#808080;fill-opacity:1" d="M21.5 8.55Q19.85 7.85 17.85 9.75Q15.9 12.05 13.9 12.05Q11.75 12.05 9.65 9.4L8.25 7.4L7.45 6.05Q6.5 4.6 5.3 4.05Q1.8 2.6 0 1.05L0.1 0Q1.9 1.25 5.85 2.95Q8.95 5.1 9.9 7.65Q11.3 10.25 13.5 11.25Q13.65 11.5 14.6 11.25Q15.5 10.95 17.65 8.95Q19.75 6.9 21 7.1Q22.25 7.3 21.5 8.55" />
</g>
</svg>
