<?xml version="1.0" encoding="utf-8"?>
<svg version="1.1" id="Layer_1"
xmlns="http://www.w3.org/2000/svg"
xmlns:xlink="http://www.w3.org/1999/xlink"
width="8px" height="9px"
xml:space="preserve">
<g id="PathID_2873" transform="matrix(1, 0, 0, 1, 0, 0)">
<path style="fill:#808080;fill-opacity:1" d="M4.75 5.35L5.05 3.25Q4.7 1.75 3.1 1.75L2.65 1.9L2.45 1.85L2.05 2.25L1.7 2.75Q0.45 2.65 0.3 2.2L1.2 1Q2.35 0 3.65 0Q5.55 0 6.75 1.6Q7.75 3 7.7 4.6Q6.85 7.75 6.5 8L5.9 8.05L5.4 7.9L4.75 5.35M5.85 6.55Q5.65 6.55 5.7 6.95L6 7.25L6.2 7.15L6.1 6.75L5.85 6.55" />
<path style="fill:#1C1A19;fill-opacity:1" d="M3.95 2.75Q4.85 3.8 4.45 4.9L3.85 5Q2.4 4.7 1.9 3.75L1.7 2.75L2.05 2.25L2.45 1.85L2.65 1.9L3.95 2.75" />
<path style="fill:#4F4943;fill-opacity:1" d="M2.65 1.9L3.1 1.75Q4.7 1.75 5.05 3.25L4.75 5.35L5.4 7.9Q5 7.7 4.85 7.1Q4.55 6.05 3.9 6.05L2.85 6.15Q1.55 6.15 0.75 5.45Q-0.15 4.65 0 3.05L0.3 2.2Q0.45 2.65 1.7 2.75L1.9 3.75Q2.4 4.7 3.85 5L4.45 4.9Q4.85 3.8 3.95 2.75L2.65 1.9" />
<path style="fill:#2A2725;fill-opacity:1" d="M6.1 6.75L6.2 7.15L6 7.25L5.7 6.95Q5.65 6.55 5.85 6.55L6.1 6.75" />
<path style="fill:none;stroke-width:0.7;stroke-linecap:round;stroke-linejoin:round;stroke-miterlimit:3;stroke:#000000;stroke-opacity:0.4" d="M5.4 7.9L5.9 8.05L6.5 8Q6.85 7.75 7.7 4.6Q7.75 3 6.75 1.6Q5.55 0 3.65 0Q2.35 0 1.2 1L0.3 2.2" />
<path style="fill:none;stroke-width:0.7;stroke-linecap:round;stroke-linejoin:round;stroke-miterlimit:3;stroke:#000000;stroke-opacity:0.4" d="M5.4 7.9Q5 7.7 4.85 7.1Q4.55 6.05 3.9 6.05L2.85 6.15Q1.55 6.15 0.75 5.45Q-0.15 4.65 0 3.05L0.3 2.2" />
</g>
</svg>
