<?xml version="1.0" encoding="utf-8"?>
<svg version="1.1" id="Layer_1"
xmlns="http://www.w3.org/2000/svg"
xmlns:xlink="http://www.w3.org/1999/xlink"
width="8px" height="8px"
xml:space="preserve">
<g id="PathID_582" transform="matrix(1, 0, 0, 1, 3.75, 3.65)">
<radialGradient
id="RadialGradID_192" gradientUnits="userSpaceOnUse" gradientTransform="matrix(0.00485229, 0, -0.000244141, 0.00485229, 0, 0)" spreadMethod ="pad" cx="0" cy="0" r="819.2" fx="0" fy="0" >
<stop  offset="0.678431"  style="stop-color:#808080;stop-opacity:0.698039" />
<stop  offset="0.960784"  style="stop-color:#3F3F3F;stop-opacity:0" />
</radialGradient>
<path style="fill:url(#RadialGradID_192) " d="M2.85 -2.6Q3.9 -1.55 3.8 0Q3.75 1.45 2.6 2.5Q1.35 3.6 -0.15 3.6Q-1.7 3.6 -2.8 2.5Q-3.85 1.45 -3.75 -0.05Q-3.7 -1.55 -2.55 -2.6Q-1.35 -3.65 0.2 -3.65Q1.7 -3.65 2.85 -2.6" />
</g>
<g id="PathID_583" transform="matrix(1, 0, 0, 1, 3.75, 3.65)">
<path style="fill:#808080;fill-opacity:1" d="M-0.7 -2.2L-0.85 -2.1Q-1.85 -1.15 -1.9 0.05Q-1.95 1.45 -1.05 2.3L-0.5 2.7L-1.75 2Q-2.5 1.25 -2.45 0.1Q-2.4 -0.95 -1.55 -1.75Q-1 -2.25 -0.3 -2.45L-0.7 -2.2" />
<path style="fill:none;stroke-width:0.7;stroke-linecap:round;stroke-linejoin:round;stroke-miterlimit:3;stroke:#000000;stroke-opacity:0.298039" d="M-0.5 2.7L-1.75 2Q-2.5 1.25 -2.45 0.1Q-2.4 -0.95 -1.55 -1.75Q-1 -2.25 -0.3 -2.45L-0.7 -2.2" />
</g>
</svg>
