<?xml version="1.0" encoding="utf-8"?>
<svg version="1.1" id="Layer_1"
xmlns="http://www.w3.org/2000/svg"
xmlns:xlink="http://www.w3.org/1999/xlink"
width="24px" height="15px"
xml:space="preserve">
<g id="PathID_3195" transform="matrix(1, 0, 0, 1, 17, 30.05)">
<path style="fill:#C6C6C6;fill-opacity:1" d="M-6.7 -15.55Q-8.05 -16.15 -7.6 -17.45L-5.9 -17.9Q-6.5 -17 -6.7 -15.55M-14.75 -25.1Q-16.35 -25.15 -16.85 -26.35L-13.85 -27.95L-14.75 -25.1" />
<path style="fill:none;stroke-width:0.7;stroke-linecap:round;stroke-linejoin:round;stroke-miterlimit:3;stroke:#000000;stroke-opacity:0.301961" d="M-5.9 -17.9L-7.6 -17.45Q-8.05 -16.15 -6.7 -15.55Q-6.5 -17 -5.9 -17.9z" />
<path style="fill:none;stroke-width:0.7;stroke-linecap:round;stroke-linejoin:round;stroke-miterlimit:3;stroke:#000000;stroke-opacity:0.301961" d="M-14.75 -25.1Q-16.35 -25.15 -16.85 -26.35L-13.85 -27.95L-14.75 -25.1z" />
</g>
<g id="PathID_3196" transform="matrix(1, 0, 0, 1, 17, 30.05)">
<path style="fill:#C6C6C6;fill-opacity:1" d="M1.65 -29.4L3.7 -29.9Q2.6 -28.35 1.95 -27Q0.55 -27.95 1.65 -29.4M5.2 -17.35Q3.75 -18.5 4.35 -20.1L6.45 -19.55L5.2 -17.35" />
<path style="fill:none;stroke-width:0.7;stroke-linecap:round;stroke-linejoin:round;stroke-miterlimit:3;stroke:#000000;stroke-opacity:0.301961" d="M1.95 -27Q2.6 -28.35 3.7 -29.9L1.65 -29.4Q0.55 -27.95 1.95 -27z" />
<path style="fill:none;stroke-width:0.7;stroke-linecap:round;stroke-linejoin:round;stroke-miterlimit:3;stroke:#000000;stroke-opacity:0.301961" d="M6.45 -19.55L4.35 -20.1Q3.75 -18.5 5.2 -17.35L6.45 -19.55z" />
</g>
</svg>
