<?xml version="1.0" encoding="utf-8"?>
<svg version="1.1" id="Layer_1"
xmlns="http://www.w3.org/2000/svg"
xmlns:xlink="http://www.w3.org/1999/xlink"
width="19px" height="16px"
xml:space="preserve">
<g id="PathID_1991" transform="matrix(1, 0, 0, 1, 9.35, 8)">
<linearGradient
id="LinearGradID_564" gradientUnits="userSpaceOnUse" gradientTransform="matrix(0.00088501, -0.00149536, 0.00126648, 0.000747681, 6.95, -3.9)" spreadMethod ="pad" x1="-819.2" y1="0" x2="819.2" y2="0" >
<stop  offset="0" style="stop-color:#727272;stop-opacity:1" />
<stop  offset="1" style="stop-color:#808080;stop-opacity:1" />
</linearGradient>
<path style="fill:url(#LinearGradID_564) " d="M8 -4.65L7.75 -4.55Q6.4 -4.15 5.5 -3.35L5.75 -4.15Q6.25 -5.4 7.2 -6.2L7.5 -6.3L7.75 -6.3Q8.45 -6.15 8.85 -4.8L8 -4.65" />
<path style="fill:#666666;fill-opacity:1" d="M4.5 3.1Q5.35 1.2 6.6 -0.65L6.75 -0.85L8.65 -1.05L9.2 -0.9L9.05 0.25Q8.55 3.15 7.45 4.5Q6.6 5.6 5.85 5.35Q5 5.1 4.6 3.45L4.5 3.1L4.35 2Q4.3 0.75 4.6 -0.65L4.65 -0.95L4.7 -1.25L5.4 -2.35L5.9 -2.95Q6.75 -3.85 7.75 -4.2L8.95 -4.45L9 -4.3L7.75 -3.6L6.6 -2.95L6.5 -2.9L5.4 -1.85L5.75 -0.55L6.05 -0.65Q7 -1.65 8 -1.95L6.75 -0.85L6.6 -0.65Q5.35 1.2 4.5 3.1M5.2 -3.05Q5.5 -4.15 5.9 -4.9L6 -5.05L6.75 -5.95L7.2 -6.2Q6.25 -5.4 5.75 -4.15L5.5 -3.35L5.2 -3.05M6.05 -0.65L5.95 -0.55Q4.95 0.5 4.35 2Q4.95 0.5 5.95 -0.55L6.05 -0.65" />
<linearGradient
id="LinearGradID_565" gradientUnits="userSpaceOnUse" gradientTransform="matrix(0.000946045, -0.00100708, 0.000808716, 0.000747681, 6, -2.7)" spreadMethod ="pad" x1="-819.2" y1="0" x2="819.2" y2="0" >
<stop  offset="0" style="stop-color:#727272;stop-opacity:1" />
<stop  offset="1" style="stop-color:#808080;stop-opacity:1" />
</linearGradient>
<path style="fill:url(#LinearGradID_565) " d="M5.5 -3.35Q6.4 -4.15 7.75 -4.55L8 -4.65L8.85 -4.8L8.9 -4.7L8.95 -4.45L7.75 -4.2Q6.75 -3.85 5.9 -2.95L5.4 -2.35L4.7 -1.25L5.2 -2.95L5.2 -3.05L5.5 -3.35" />
<linearGradient
id="LinearGradID_566" gradientUnits="userSpaceOnUse" gradientTransform="matrix(0.00198364, -0.00163269, 0.000900269, 0.00108337, 7.15, -1.95)" spreadMethod ="pad" x1="-819.2" y1="0" x2="819.2" y2="0" >
<stop  offset="0" style="stop-color:#727272;stop-opacity:1" />
<stop  offset="1" style="stop-color:#808080;stop-opacity:1" />
</linearGradient>
<path style="fill:url(#LinearGradID_566) " d="M8 -1.95Q7 -1.65 6.05 -0.65L5.75 -0.55L5.4 -1.85L6.5 -2.9L6.6 -2.95L7.75 -3.6L9 -4.3L9.2 -2.2L8 -1.95" />
<linearGradient
id="LinearGradID_567" gradientUnits="userSpaceOnUse" gradientTransform="matrix(0.00108337, -0.000473022, 0.00038147, 0.000839233, 8.1, -1.2)" spreadMethod ="pad" x1="-819.2" y1="0" x2="819.2" y2="0" >
<stop  offset="0" style="stop-color:#727272;stop-opacity:1" />
<stop  offset="1" style="stop-color:#808080;stop-opacity:1" />
</linearGradient>
<path style="fill:url(#LinearGradID_567) " d="M8.65 -1.05L6.75 -0.85L8 -1.95L9.2 -2.2L9.2 -0.9L8.65 -1.05" />
<path style="fill:none;stroke-width:0.7;stroke-linecap:round;stroke-linejoin:round;stroke-miterlimit:3;stroke:#333333;stroke-opacity:0.4" d="M7.2 -6.2L7.5 -6.3L7.75 -6.3Q8.45 -6.15 8.85 -4.8L8.9 -4.7L8.95 -4.45L9 -4.3L9.2 -2.2L9.2 -0.9L9.05 0.25Q8.55 3.15 7.45 4.5Q6.6 5.6 5.85 5.35Q5 5.1 4.6 3.45L4.5 3.1L4.35 2Q4.3 0.75 4.6 -0.65L4.65 -0.95L4.7 -1.25L5.2 -2.95" />
<path style="fill:none;stroke-width:0.7;stroke-linecap:round;stroke-linejoin:round;stroke-miterlimit:3;stroke:#333333;stroke-opacity:0.4" d="M5.2 -3.05Q5.5 -4.15 5.9 -4.9L6 -5.05L6.75 -5.95L7.2 -6.2" />
<path style="fill:none;stroke-width:0.7;stroke-linecap:round;stroke-linejoin:round;stroke-miterlimit:3;stroke:#333333;stroke-opacity:0.4" d="M6.05 -0.65Q7 -1.65 8 -1.95L9.2 -2.2" />
<path style="fill:none;stroke-width:0.7;stroke-linecap:round;stroke-linejoin:round;stroke-miterlimit:3;stroke:#333333;stroke-opacity:0.4" d="M8.95 -4.45L7.75 -4.2Q6.75 -3.85 5.9 -2.95L5.4 -2.35L4.7 -1.25" />
<path style="fill:none;stroke-width:0.7;stroke-linecap:round;stroke-linejoin:round;stroke-miterlimit:3;stroke:#333333;stroke-opacity:0.4" d="M4.35 2Q4.95 0.5 5.95 -0.55L6.05 -0.65" />
<path style="fill:none;stroke-width:0.7;stroke-linecap:round;stroke-linejoin:round;stroke-miterlimit:3;stroke:#333333;stroke-opacity:0.4" d="M6.75 -0.85L6.6 -0.65Q5.35 1.2 4.5 3.1" />
<path style="fill:none;stroke-width:0.7;stroke-linecap:round;stroke-linejoin:round;stroke-miterlimit:3;stroke:#333333;stroke-opacity:0.4" d="M8 -1.95L6.75 -0.85" />
</g>
<g id="PathID_1992" transform="matrix(1, 0, 0, 1, 9.35, 8)">
<linearGradient
id="LinearGradID_568" gradientUnits="userSpaceOnUse" gradientTransform="matrix(0.000427246, -0.00212097, 0.00221252, 0.000442505, -7.35, -5.35)" spreadMethod ="pad" x1="-819.2" y1="0" x2="819.2" y2="0" >
<stop  offset="0" style="stop-color:#727272;stop-opacity:1" />
<stop  offset="1" style="stop-color:#808080;stop-opacity:1" />
</linearGradient>
<path style="fill:url(#LinearGradID_568) " d="M-7.3 -5.05L-8.65 -3.4L-8.9 -3.85L-8.9 -3.95L-9.15 -5.55L-9.15 -5.6L-9.15 -5.8Q-8.95 -7.05 -8.15 -7.6Q-7.1 -8.35 -5.4 -6.65L-5.3 -6.55L-7.3 -5.05" />
<path style="fill:#666666;fill-opacity:1" d="M-5.45 5.85Q-5.75 2.95 -5.4 -0.15L-5.35 -0.3L-2.8 -0.05L-1.5 -0.1Q-0.4 3.4 -0.75 5.65Q-1.05 7.5 -2.2 7.75Q-3.45 8 -5.1 6.25L-5.45 5.85L-6.35 4.6L-7.95 1.2L-8.2 0.4L-8.45 -0.4L-9.05 -3Q-9.3 -4.5 -9.15 -5.55L-8.9 -3.95L-8.9 -3.85L-8.65 -3.4L-7.3 -5.05L-5.3 -6.55L-5.1 -6.35Q-7.5 -4.9 -8.05 -1.8L-8.1 -1.25L-7.95 -1.6L-7.95 -1.5L-7.8 -1.15L-5.9 -0.45L-4.55 -2.7Q-5.1 -2 -5.35 -0.3L-5.4 -0.15Q-5.75 2.95 -5.45 5.85M-5.9 -0.45L-6.15 0.4Q-6.7 2.4 -6.35 4.6Q-6.7 2.4 -6.15 0.4L-5.9 -0.45M-8.2 0.4L-8.1 -1.25L-8.2 0.4" />
<linearGradient
id="LinearGradID_569" gradientUnits="userSpaceOnUse" gradientTransform="matrix(0.000579834, -0.00292969, 0.00263977, 0.000518799, -5.55, -2.85)" spreadMethod ="pad" x1="-819.2" y1="0" x2="819.2" y2="0" >
<stop  offset="0" style="stop-color:#727272;stop-opacity:1" />
<stop  offset="1" style="stop-color:#808080;stop-opacity:1" />
</linearGradient>
<path style="fill:url(#LinearGradID_569) " d="M-4.55 -2.7L-5.9 -0.45L-7.8 -1.15L-7.95 -1.5L-7.95 -1.6L-8.1 -1.25L-8.05 -1.8Q-7.5 -4.9 -5.1 -6.35L-5 -6.25L-4.9 -6.15L-3.15 -3.75L-4.55 -2.7" />
<linearGradient
id="LinearGradID_570" gradientUnits="userSpaceOnUse" gradientTransform="matrix(0.000396729, -0.00231934, 0.00231934, 0.000396729, -3.25, -1.25)" spreadMethod ="pad" x1="-819.2" y1="0" x2="819.2" y2="0" >
<stop  offset="0" style="stop-color:#727272;stop-opacity:1" />
<stop  offset="1" style="stop-color:#808080;stop-opacity:1" />
</linearGradient>
<path style="fill:url(#LinearGradID_570) " d="M-2.8 -0.05L-5.35 -0.3Q-5.1 -2 -4.55 -2.7L-3.15 -3.75Q-2.3 -2.35 -1.7 -0.65L-1.5 -0.1L-2.8 -0.05" />
<path style="fill:none;stroke-width:0.7;stroke-linecap:round;stroke-linejoin:round;stroke-miterlimit:3;stroke:#333333;stroke-opacity:0.4" d="M-9.15 -5.55L-9.15 -5.6L-9.15 -5.8Q-8.95 -7.05 -8.15 -7.6Q-7.1 -8.35 -5.4 -6.65L-5.3 -6.55L-5.1 -6.35L-5 -6.25L-4.9 -6.15L-3.15 -3.75Q-2.3 -2.35 -1.7 -0.65L-1.5 -0.1Q-0.4 3.4 -0.75 5.65Q-1.05 7.5 -2.2 7.75Q-3.45 8 -5.1 6.25L-5.45 5.85L-6.35 4.6L-7.95 1.2L-8.2 0.4L-8.45 -0.4L-9.05 -3Q-9.3 -4.5 -9.15 -5.55z" />
<path style="fill:none;stroke-width:0.7;stroke-linecap:round;stroke-linejoin:round;stroke-miterlimit:3;stroke:#333333;stroke-opacity:0.4" d="M-5.1 -6.35Q-7.5 -4.9 -8.05 -1.8L-8.1 -1.25" />
<path style="fill:none;stroke-width:0.7;stroke-linecap:round;stroke-linejoin:round;stroke-miterlimit:3;stroke:#333333;stroke-opacity:0.4" d="M-5.9 -0.45L-4.55 -2.7L-3.15 -3.75" />
<path style="fill:none;stroke-width:0.7;stroke-linecap:round;stroke-linejoin:round;stroke-miterlimit:3;stroke:#333333;stroke-opacity:0.4" d="M-5.35 -0.3L-5.4 -0.15Q-5.75 2.95 -5.45 5.85" />
<path style="fill:none;stroke-width:0.7;stroke-linecap:round;stroke-linejoin:round;stroke-miterlimit:3;stroke:#333333;stroke-opacity:0.4" d="M-4.55 -2.7Q-5.1 -2 -5.35 -0.3" />
<path style="fill:none;stroke-width:0.7;stroke-linecap:round;stroke-linejoin:round;stroke-miterlimit:3;stroke:#333333;stroke-opacity:0.4" d="M-6.35 4.6Q-6.7 2.4 -6.15 0.4L-5.9 -0.45" />
<path style="fill:none;stroke-width:0.7;stroke-linecap:round;stroke-linejoin:round;stroke-miterlimit:3;stroke:#333333;stroke-opacity:0.4" d="M-8.1 -1.25L-8.2 0.4" />
</g>
</svg>
