<?xml version="1.0" encoding="utf-8"?>
<svg version="1.1" id="Layer_1"
xmlns="http://www.w3.org/2000/svg"
xmlns:xlink="http://www.w3.org/1999/xlink"
width="4px" height="4px"
xml:space="preserve">
<g id="PathID_3493" transform="matrix(1, 0, 0, 1, 0.15, 0.15)">
<path style="fill:#6B6B6B;fill-opacity:1" d="M2.3 2.75Q2.2 3.25 1.65 3.05L0.55 0.55L0.65 0.35L1.2 0.25L2.3 2.75" />
<path style="fill:#808080;fill-opacity:1" d="M1.2 0.25L1.35 0.1L1.8 0L2.9 2.5Q2.8 2.8 2.3 2.75L1.2 0.25M1.65 3.05Q1.55 3.45 1 3.35L0 0.85L0.05 0.6L0.55 0.55L1.65 3.05" />
<path style="fill:none;stroke-width:0.7;stroke-linecap:round;stroke-linejoin:round;stroke-miterlimit:3;stroke:#000000;stroke-opacity:0.301961" d="M0.65 0.35L1.2 0.25" />
<path style="fill:none;stroke-width:0.7;stroke-linecap:round;stroke-linejoin:round;stroke-miterlimit:3;stroke:#000000;stroke-opacity:0.301961" d="M1.2 0.25L1.35 0.1" />
<path style="fill:none;stroke-width:0.7;stroke-linecap:round;stroke-linejoin:round;stroke-miterlimit:3;stroke:#000000;stroke-opacity:0.301961" d="M1.35 0.1L1.8 0" />
<path style="fill:none;stroke-width:0.7;stroke-linecap:round;stroke-linejoin:round;stroke-miterlimit:3;stroke:#000000;stroke-opacity:0.301961" d="M1.8 0L2.9 2.5" />
<path style="fill:none;stroke-width:0.7;stroke-linecap:round;stroke-linejoin:round;stroke-miterlimit:3;stroke:#000000;stroke-opacity:0.301961" d="M2.9 2.5Q2.8 2.8 2.3 2.75Q2.2 3.25 1.65 3.05Q1.55 3.45 1 3.35" />
<path style="fill:none;stroke-width:0.7;stroke-linecap:round;stroke-linejoin:round;stroke-miterlimit:3;stroke:#000000;stroke-opacity:0.301961" d="M1 3.35L0 0.85" />
<path style="fill:none;stroke-width:0.7;stroke-linecap:round;stroke-linejoin:round;stroke-miterlimit:3;stroke:#000000;stroke-opacity:0.301961" d="M0 0.85L0.05 0.6L0.55 0.55" />
<path style="fill:none;stroke-width:0.7;stroke-linecap:round;stroke-linejoin:round;stroke-miterlimit:3;stroke:#000000;stroke-opacity:0.301961" d="M0.55 0.55L0.65 0.35" />
<path style="fill:none;stroke-width:0.7;stroke-linecap:round;stroke-linejoin:round;stroke-miterlimit:3;stroke:#000000;stroke-opacity:0.301961" d="M2.3 2.75L1.2 0.25" />
<path style="fill:none;stroke-width:0.7;stroke-linecap:round;stroke-linejoin:round;stroke-miterlimit:3;stroke:#000000;stroke-opacity:0.301961" d="M0.55 0.55L1.65 3.05" />
</g>
</svg>
