<?xml version="1.0" encoding="utf-8"?>
<svg version="1.1" id="Layer_1"
xmlns="http://www.w3.org/2000/svg"
xmlns:xlink="http://www.w3.org/1999/xlink"
width="15px" height="11px"
xml:space="preserve">
<g id="PathID_2269" transform="matrix(1, 0, 0, 1, 0.15, 0.15)">
<path style="fill:#585551;fill-opacity:1" d="M0.65 0.05Q7.55 5.55 14.1 8.8L13.95 9L12.55 10.3Q12.5 10.2 10.25 9.6L10.2 9.6Q11.85 9.15 10.4 8.35Q5.35 4.85 0.3 0L0.65 0.05" />
<path style="fill:#808080;fill-opacity:1" d="M6.75 8.7Q1.2 6.35 0.1 1.35Q-0.15 0 0.3 0Q5.35 4.85 10.4 8.35Q11.85 9.15 10.2 9.6L6.75 8.7" />
<path style="fill:none;stroke-width:0.7;stroke-linecap:round;stroke-linejoin:round;stroke-miterlimit:3;stroke:#000000;stroke-opacity:0.4" d="M10.2 9.6L10.25 9.6Q12.5 10.2 12.55 10.3L13.95 9L14.1 8.8Q7.55 5.55 0.65 0.05L0.3 0Q-0.15 0 0.1 1.35Q1.2 6.35 6.75 8.7L10.2 9.6z" />
</g>
</svg>
