<?xml version="1.0" encoding="utf-8"?>
<svg version="1.1" id="Layer_1"
xmlns="http://www.w3.org/2000/svg"
xmlns:xlink="http://www.w3.org/1999/xlink"
width="16px" height="17px"
xml:space="preserve">
<g id="PathID_3818" transform="matrix(1, 0, 0, 1, 0, 0)">
<linearGradient
id="LinearGradID_1261" gradientUnits="userSpaceOnUse" gradientTransform="matrix(0.00598145, 0.00592041, -0.00671387, 0.00688171, 8.9, 8.55)" spreadMethod ="pad" x1="-819.2" y1="0" x2="819.2" y2="0" >
<stop  offset="0" style="stop-color:#FFFFFF;stop-opacity:1" />
<stop  offset="0.447059" style="stop-color:#808080;stop-opacity:1" />
<stop  offset="1" style="stop-color:#FFFFFF;stop-opacity:1" />
</linearGradient>
<path style="fill:url(#LinearGradID_1261) " d="M7.55 5.8L7.7 5L6.5 4.05Q6.15 3.15 7.15 3.2L7.85 3.9L8 3.1L6.6 1.95Q6.25 1.1 7.25 1.1L8.25 2L8.5 0.35Q9.05 -0.4 9.5 0.55L9.25 2.1L10.5 1.65Q11.45 1.7 10.85 2.55L9.05 3.2L8.85 4.15L9.7 3.8L7.55 5.8M10.35 6.3L10.55 4.8Q11.2 4 11.6 4.9L11.4 5.85L12.2 5.6L12.5 3.8Q13 3.05 13.5 4L13.25 5.3L14.75 4.8Q15.7 4.9 15.1 5.7L13.65 6.25L14.65 7.1Q15 7.95 13.95 7.9L12.55 6.6L11.65 6.9L12.35 7.45Q12.7 8.3 11.8 8.3L10.6 7.2L8.9 7.9L10.35 6.3M6 11.1L6.75 10.8L6.85 10.15L8.75 8.05L10.3 9.35L11.7 8.8Q12.65 8.9 12 9.75L11.2 10.05L11.75 10.65L13.45 9.95Q14.35 10.05 13.8 10.9L12.55 11.35L13.85 12.35Q14.15 13.3 13.25 13.15L12 12.15L11.75 13.45Q11.25 14.2 10.75 13.3L11.1 11.4L10.4 10.8L10.25 11.75Q9.7 12.45 9.3 11.65L9.55 10.1L8.05 9L7.7 11.1L8.85 12Q9.25 12.9 8.25 12.85L7.5 12.15L7.35 13L8.75 14.15Q9.15 15 8.1 14.95L7.15 14.1L6.85 15.7Q6.25 16.45 5.85 15.55L6.1 13.95L4.9 14.45Q4 14.35 4.5 13.5L6.35 12.85L6.5 11.9L5.65 12.3L5.1 12.1L6 11.1M2.15 10.7L0.65 11.3Q-0.35 11.1 0.2 10.3L1.7 9.75L0.7 8.9Q0.3 8 1.35 8.15L2.75 9.4L3.7 9.1L2.95 8.5Q2.6 7.65 3.5 7.65L4.55 8.45L2.15 10.7M5.95 7.25L5.25 6.6L3.8 7.15Q2.85 7 3.45 6.15L4.35 5.85L3.75 5.35L2.1 6.1Q1.1 5.95 1.65 5.05L2.85 4.6L1.7 3.6Q1.3 2.7 2.3 2.75L3.5 3.75L3.65 2.45Q4.25 1.65 4.75 2.65L4.4 4.55L5.1 5.2L5.25 4.25L6.25 4.3L5.9 5.85L6.7 6.6L5.95 7.25" />
<path style="fill:#FFFFFF;fill-opacity:1" d="M6.7 6.6L7.25 7.1L7.55 5.8L9.7 3.8Q10.65 3.9 10.15 4.7L8.65 5.25L8.5 6.3L3.85 10.55L3.95 10.05L3.15 10.3L3 11.3L2.05 12.2L1.9 12L2.15 10.7L4.55 8.45L4.75 8.7L6.65 7.9L5.95 7.25L6.7 6.6" />
<path style="fill:#777777;fill-opacity:1" d="M6.85 10.15L7.1 8.7L5 9.65L4.8 11.2Q4.25 11.95 3.75 11L3.85 10.55L8.5 6.3L8.35 6.9L10.35 6.3L8.9 7.9L8.6 7.95L8.75 8.05L6.85 10.15M5.1 12.1Q4.95 11.8 5.25 11.35L6 11.1L5.1 12.1M3 11.3L2.9 12.15L2.05 12.2L3 11.3" />
<path style="fill:none;stroke-width:0.7;stroke-linecap:round;stroke-linejoin:round;stroke-miterlimit:3;stroke:#000000;stroke-opacity:0.0980392" d="M7.55 5.8L7.7 5L6.5 4.05Q6.15 3.15 7.15 3.2L7.85 3.9L8 3.1L6.6 1.95Q6.25 1.1 7.25 1.1L8.25 2L8.5 0.35Q9.05 -0.4 9.5 0.55L9.25 2.1L10.5 1.65Q11.45 1.7 10.85 2.55L9.05 3.2L8.85 4.15L9.7 3.8Q10.65 3.9 10.15 4.7L8.65 5.25L8.5 6.3L8.35 6.9L10.35 6.3L10.55 4.8Q11.2 4 11.6 4.9L11.4 5.85L12.2 5.6L12.5 3.8Q13 3.05 13.5 4L13.25 5.3L14.75 4.8Q15.7 4.9 15.1 5.7L13.65 6.25L14.65 7.1Q15 7.95 13.95 7.9L12.55 6.6L11.65 6.9L12.35 7.45Q12.7 8.3 11.8 8.3L10.6 7.2L8.9 7.9L8.6 7.95L8.75 8.05L10.3 9.35L11.7 8.8Q12.65 8.9 12 9.75L11.2 10.05L11.75 10.65L13.45 9.95Q14.35 10.05 13.8 10.9L12.55 11.35L13.85 12.35Q14.15 13.3 13.25 13.15L12 12.15L11.75 13.45Q11.25 14.2 10.75 13.3L11.1 11.4L10.4 10.8L10.25 11.75Q9.7 12.45 9.3 11.65L9.55 10.1L8.05 9L7.7 11.1L8.85 12Q9.25 12.9 8.25 12.85L7.5 12.15L7.35 13L8.75 14.15Q9.15 15 8.1 14.95L7.15 14.1L6.85 15.7Q6.25 16.45 5.85 15.55L6.1 13.95L4.9 14.45Q4 14.35 4.5 13.5L6.35 12.85L6.5 11.9L5.65 12.3L5.1 12.1Q4.95 11.8 5.25 11.35L6 11.1L6.75 10.8L6.85 10.15L7.1 8.7L5 9.65L4.8 11.2Q4.25 11.95 3.75 11L3.85 10.55L3.95 10.05L3.15 10.3L3 11.3L2.9 12.15L2.05 12.2L1.9 12L2.15 10.7L0.65 11.3Q-0.35 11.1 0.2 10.3L1.7 9.75L0.7 8.9Q0.3 8 1.35 8.15L2.75 9.4L3.7 9.1L2.95 8.5Q2.6 7.65 3.5 7.65L4.55 8.45L4.75 8.7L6.65 7.9L5.95 7.25L5.25 6.6L3.8 7.15Q2.85 7 3.45 6.15L4.35 5.85L3.75 5.35L2.1 6.1Q1.1 5.95 1.65 5.05L2.85 4.6L1.7 3.6Q1.3 2.7 2.3 2.75L3.5 3.75L3.65 2.45Q4.25 1.65 4.75 2.65L4.4 4.55L5.1 5.2L5.25 4.25L6.25 4.3L5.9 5.85L6.7 6.6L7.25 7.1L7.55 5.8z" />
</g>
</svg>
