<?xml version="1.0" encoding="utf-8"?>
<svg version="1.1" id="Layer_1"
xmlns="http://www.w3.org/2000/svg"
xmlns:xlink="http://www.w3.org/1999/xlink"
width="14px" height="9px"
xml:space="preserve">
<g id="PathID_2043" transform="matrix(1, 0, 0, 1, 6.9, 4.25)">
<path style="fill:#727272;fill-opacity:1" d="M6 4.1L4.55 2.75L4.4 0.75Q4.5 -1 5.55 -0.1Q6.95 1.2 6.85 2.6Q6.7 3.45 6 4.1" />
<path style="fill:none;stroke-width:0.7;stroke-linecap:round;stroke-linejoin:round;stroke-miterlimit:3;stroke:#000000;stroke-opacity:0.4" d="M6 4.1L4.55 2.75L4.4 0.75Q4.5 -1 5.55 -0.1Q6.95 1.2 6.85 2.6Q6.7 3.45 6 4.1z" />
</g>
<g id="PathID_2044" transform="matrix(1, 0, 0, 1, 6.9, 4.25)">
<linearGradient
id="LinearGradID_604" gradientUnits="userSpaceOnUse" gradientTransform="matrix(0.00692749, 0, 0, 0.00476074, 0.5, -0.25)" spreadMethod ="pad" x1="-819.2" y1="0" x2="819.2" y2="0" >
<stop  offset="0" style="stop-color:#474747;stop-opacity:1" />
<stop  offset="1" style="stop-color:#686868;stop-opacity:1" />
</linearGradient>
<path style="fill:url(#LinearGradID_604) " d="M5.9 -0.65Q6.5 1.8 5.9 3.65Q-5.05 -1.25 -5.15 -1.15Q-5.15 -2.2 -3.6 -3.7L1.45 -3.45Q5.55 -2.2 5.9 -0.65" />
<path style="fill:none;stroke-width:0.7;stroke-linecap:round;stroke-linejoin:round;stroke-miterlimit:3;stroke:#000000;stroke-opacity:0.4" d="M5.9 -0.65Q6.5 1.8 5.9 3.65Q-5.05 -1.25 -5.15 -1.15Q-5.15 -2.2 -3.6 -3.7L1.45 -3.45Q5.55 -2.2 5.9 -0.65z" />
</g>
<g id="PathID_2045" transform="matrix(1, 0, 0, 1, 6.9, 4.25)">
<linearGradient
id="LinearGradID_605" gradientUnits="userSpaceOnUse" gradientTransform="matrix(0.00778198, 0, 0, 0.00370789, -0.4, 1)" spreadMethod ="pad" x1="-819.2" y1="0" x2="819.2" y2="0" >
<stop  offset="0" style="stop-color:#565656;stop-opacity:1" />
<stop  offset="1" style="stop-color:#808080;stop-opacity:1" />
</linearGradient>
<path style="fill:url(#LinearGradID_605) " d="M5.95 4.05Q-0.7 1.05 -6.75 1.45Q-6.9 0.1 -6.45 -0.95Q-5.95 -1.95 -5.2 -2.05L-4.95 -2.05Q-2 -2.1 0.95 -0.5L2.45 0.4L2.65 0.5L4.3 1.8L4.35 1.8L5.4 2.85Q6 3.6 5.95 4.05" />
<path style="fill:none;stroke-width:0.7;stroke-linecap:round;stroke-linejoin:round;stroke-miterlimit:3;stroke:#000000;stroke-opacity:0.4" d="M5.95 4.05Q-0.7 1.05 -6.75 1.45Q-6.9 0.1 -6.45 -0.95Q-5.95 -1.95 -5.2 -2.05L-4.95 -2.05" />
<path style="fill:none;stroke-width:0.7;stroke-linecap:round;stroke-linejoin:round;stroke-miterlimit:3;stroke:#000000;stroke-opacity:0.2" d="M-4.95 -2.05Q-2 -2.1 0.95 -0.5L2.45 0.4L2.65 0.5L4.3 1.8L4.35 1.8L5.4 2.85Q6 3.6 5.95 4.05" />
</g>
</svg>
