<?xml version="1.0" encoding="utf-8"?>
<svg version="1.1" id="Layer_1"
xmlns="http://www.w3.org/2000/svg"
xmlns:xlink="http://www.w3.org/1999/xlink"
width="3px" height="11px"
xml:space="preserve">
<g id="PathID_3609" transform="matrix(1, 0, 0, 1, 0, 0)">
<path style="fill:#4F4943;fill-opacity:1" d="M0 1L1.15 0Q1.85 1.1 2.2 2.8Q1.6 3.7 0.7 3.4L2.6 6.4Q2 7.3 1.1 6.6L2.45 10.2L1.2 9.5L1.1 6.6Q2 7.3 2.6 6.4L0.7 3.4Q1.6 3.7 2.2 2.8L0 1" />
<path style="fill:none;stroke-width:0.7;stroke-linecap:round;stroke-linejoin:round;stroke-miterlimit:3;stroke:#000000;stroke-opacity:0.4" d="M0 1L1.15 0Q1.85 1.1 2.2 2.8L2.6 6.4L2.45 10.2L1.2 9.5L1.1 6.6L0.7 3.4L0 1z" />
<path style="fill:none;stroke-width:0.7;stroke-linecap:round;stroke-linejoin:round;stroke-miterlimit:3;stroke:#000000;stroke-opacity:0.4" d="M2.2 2.8Q1.6 3.7 0.7 3.4" />
<path style="fill:none;stroke-width:0.7;stroke-linecap:round;stroke-linejoin:round;stroke-miterlimit:3;stroke:#000000;stroke-opacity:0.4" d="M1.1 6.6Q2 7.3 2.6 6.4" />
</g>
</svg>
