<?xml version="1.0" encoding="utf-8"?>
<svg version="1.1" id="Layer_1"
xmlns="http://www.w3.org/2000/svg"
xmlns:xlink="http://www.w3.org/1999/xlink"
width="15px" height="9px"
xml:space="preserve">
<g id="PathID_3209" transform="matrix(1, 0, 0, 1, 0, 0)">
<path style="fill:#4F4943;fill-opacity:1" d="M7.4 4.75L9.4 3.75L8.85 5.1L10.9 3.3L12 2.1L13.35 1.75L14.2 3.1Q13.65 4.45 12.05 5.85Q10.45 7.2 8.4 7.35Q6.65 6.55 5.95 4.8L7.4 4.75M2.3 4.15L4.75 4.8L4.8 4.8L6.1 5.95L3.15 8.05Q3.65 6.6 4.55 6.35Q2.7 6.4 1.2 5.65Q3 5.75 3.65 5.3Q0.6 4.5 0.1 3.25Q0.5 3.55 2.3 4.15" />
<path style="fill:#929292;fill-opacity:1" d="M0.1 3.25L0 2.5Q1 2.95 3.15 1.75Q3.75 1.85 1.85 1.15Q2.75 0.8 4.3 1.15Q4.4 0.7 3.75 0L5.05 0.15L7.2 0.65L9.05 0.85Q11.45 0.45 11.9 0.05Q11.4 0.6 12 2.1L10.9 3.3L8.85 5.1L9.4 3.75L7.4 4.75L5.95 4.8L4.8 4.8L4.75 4.8L2.3 4.15Q0.5 3.55 0.1 3.25" />
</g>
</svg>
