<?xml version="1.0" encoding="utf-8"?>
<svg version="1.1" id="Layer_1"
xmlns="http://www.w3.org/2000/svg"
xmlns:xlink="http://www.w3.org/1999/xlink"
width="7px" height="4px"
xml:space="preserve">
<g id="PathID_4129" transform="matrix(1, 0, 0, 1, 0.15, 0)">
<path style="fill:#48423E;fill-opacity:1" d="M5.2 0.4L5.75 0.6L6 2.05Q6 3.15 5.8 3.35L4.15 3.75L5.2 0.4M0.65 3.2L0.1 2.95L0 1.7L0.65 3.2" />
<radialGradient
id="RadialGradID_1337" gradientUnits="userSpaceOnUse" gradientTransform="matrix(0.00590515, 0, 0, 0.00585938, 0.25, -1.95)" spreadMethod ="pad" cx="0" cy="0" r="819.2" fx="0" fy="0" >
<stop  offset="0"  style="stop-color:#CDCDCD;stop-opacity:1" />
<stop  offset="1"  style="stop-color:#808080;stop-opacity:1" />
</radialGradient>
<path style="fill:url(#RadialGradID_1337) " d="M0 1.7L0.25 0.35Q2.75 -0.35 5.2 0.4L4.15 3.75Q2.35 3.95 0.65 3.2L0 1.7" />
<path style="fill:none;stroke-width:0.7;stroke-linecap:round;stroke-linejoin:round;stroke-miterlimit:3;stroke:#000000;stroke-opacity:0.301961" d="M5.75 0.6L6 2.05Q6 3.15 5.8 3.35" />
<path style="fill:none;stroke-width:0.7;stroke-linecap:round;stroke-linejoin:round;stroke-miterlimit:3;stroke:#000000;stroke-opacity:0.301961" d="M0.1 2.95L0 1.7L0.25 0.35" />
</g>
</svg>
