<?xml version="1.0" encoding="utf-8"?>
<svg version="1.1" id="Layer_1"
xmlns="http://www.w3.org/2000/svg"
xmlns:xlink="http://www.w3.org/1999/xlink"
width="12px" height="12px"
xml:space="preserve">
<g id="PathID_1114" transform="matrix(1, 0, 0, 1, 0.15, 0.15)">
<path style="fill:#808080;fill-opacity:1" d="M8.15 7.7L7.15 9.1Q6.3 9.8 5.3 9.9Q4.35 9.85 3.75 9.25L3.75 9.1L2.95 8.9L1.75 7.7Q2.55 7.5 2.5 6.95L3.05 6.5Q3.3 6 3 5.6Q2.95 4.55 2.55 3.9L1.85 2.95L3.25 1.8Q5.65 -0.2 7.4 0.05L7.65 0.05Q9.1 0.3 9.9 1L10.65 1.9Q11 2.85 10.95 3.95L10.95 4.35L8.15 7.7" />
<path style="fill:#544F4A;fill-opacity:1" d="M1.75 7.7L2.95 8.9L3.75 9.1L3.75 9.25Q4.35 9.85 5.3 9.9Q6.3 9.8 7.15 9.1L8.15 7.7L10.95 4.35Q10.8 7.15 8.95 9.65L7.85 10.6Q6.75 11.4 5.55 11.65L4.85 11.7Q3.5 11.7 2.25 10.8L0.85 9.3L0.25 8L0 7.2Q1.25 7.9 1.75 7.7" />
<path style="fill:none;stroke-width:0.7;stroke-linecap:round;stroke-linejoin:round;stroke-miterlimit:3;stroke:#000000;stroke-opacity:0.301961" d="M10.95 4.35L10.95 3.95Q11 2.85 10.65 1.9L9.9 1Q9.1 0.3 7.65 0.05L7.4 0.05Q5.65 -0.2 3.25 1.8L1.85 2.95" />
<path style="fill:none;stroke-width:0.7;stroke-linecap:round;stroke-linejoin:round;stroke-miterlimit:3;stroke:#000000;stroke-opacity:0.301961" d="M10.95 4.35Q10.8 7.15 8.95 9.65L7.85 10.6Q6.75 11.4 5.55 11.65L4.85 11.7Q3.5 11.7 2.25 10.8L0.85 9.3L0.25 8L0 7.2" />
</g>
</svg>
