<?xml version="1.0" encoding="utf-8"?>
<svg version="1.1" id="Layer_1"
xmlns="http://www.w3.org/2000/svg"
xmlns:xlink="http://www.w3.org/1999/xlink"
width="29px" height="16px"
xml:space="preserve">
<g id="PathID_3007" transform="matrix(1, 0, 0, 1, 0.1, 0.1)">
<linearGradient
id="LinearGradID_956" gradientUnits="userSpaceOnUse" gradientTransform="matrix(0, 0.00415039, -0.00549316, 0, 26, 7.3)" spreadMethod ="pad" x1="-819.2" y1="0" x2="819.2" y2="0" >
<stop  offset="0" style="stop-color:#8C8C8C;stop-opacity:1" />
<stop  offset="0.635294" style="stop-color:#565550;stop-opacity:1" />
<stop  offset="0.992157" style="stop-color:#2A2721;stop-opacity:1" />
</linearGradient>
<path style="fill:url(#LinearGradID_956) " d="M25.3 8.95L25.45 7.85Q25.65 2.3 26.75 1.8L28.1 4.1Q26.85 5.05 26.8 7Q27.05 8.15 26.55 9.25Q25.75 10.5 23.9 10.8Q24.95 10.1 25.3 8.95" />
<path style="fill:#383430;fill-opacity:1" d="M23.9 10.8L22.95 10.5L23.5 9.65Q24.25 9.9 25.3 8.95Q24.95 10.1 23.9 10.8M10.5 5.95Q12.75 5.6 14.2 8.55Q15.5 11.25 14.9 13.25L12.35 15.1Q13.25 12.15 12.5 10.15Q11.2 6.45 9.15 7.45L10.5 5.95" />
<linearGradient
id="LinearGradID_957" gradientUnits="userSpaceOnUse" gradientTransform="matrix(0.00149536, 0.00558472, -0.00654602, 0.00175476, 19.25, 6.8)" spreadMethod ="pad" x1="-819.2" y1="0" x2="819.2" y2="0" >
<stop  offset="0" style="stop-color:#919191;stop-opacity:1" />
<stop  offset="0.670588" style="stop-color:#4F4F4B;stop-opacity:1" />
<stop  offset="0.960784" style="stop-color:#23211C;stop-opacity:1" />
</linearGradient>
<path style="fill:url(#LinearGradID_957) " d="M14.9 0L16.3 0.05Q19.4 0.35 21.1 2.1Q22.55 3.6 22.8 6.55Q23.05 9.25 22.2 10.9L19.5 11.1L19.85 7.4Q19.85 2.85 17.2 1Q16.25 0.3 14.9 0" />
<linearGradient
id="LinearGradID_958" gradientUnits="userSpaceOnUse" gradientTransform="matrix(0.00382996, -0.00221252, 0.000686646, 0.00119019, 10.75, 1.75)" spreadMethod ="pad" x1="-819.2" y1="0" x2="819.2" y2="0" >
<stop  offset="0" style="stop-color:#8A8A8A;stop-opacity:1" />
<stop  offset="0.670588" style="stop-color:#565654;stop-opacity:1" />
<stop  offset="0.992157" style="stop-color:#2C2B29;stop-opacity:1" />
</linearGradient>
<path style="fill:url(#LinearGradID_958) " d="M14.9 0Q16.25 0.3 17.2 1Q14.25 0.25 12.4 2.25L9.95 1.75Q12.5 0.1 14.9 0" />
<linearGradient
id="LinearGradID_959" gradientUnits="userSpaceOnUse" gradientTransform="matrix(0.00721741, 0.00192261, -0.00151062, 0.00566101, 11.45, 7.5)" spreadMethod ="pad" x1="-819.2" y1="0" x2="819.2" y2="0" >
<stop  offset="0" style="stop-color:#434343;stop-opacity:1" />
<stop  offset="0.356863" style="stop-color:#989898;stop-opacity:1" />
<stop  offset="0.635294" style="stop-color:#5B5B5B;stop-opacity:1" />
<stop  offset="0.992157" style="stop-color:#332F27;stop-opacity:1" />
</linearGradient>
<path style="fill:url(#LinearGradID_959) " d="M7.6 5.25L9.45 3.7Q12.15 1.85 15.9 4.55Q18.5 6.45 18.85 11.15L15.85 12.55Q17.05 8.4 13.95 5.85Q10.95 4.1 8.75 5.55Q6.65 6.75 4.7 6.5Q6.2 6.15 7.6 5.25" />
<linearGradient
id="LinearGradID_960" gradientUnits="userSpaceOnUse" gradientTransform="matrix(0.00296021, 0.00215149, -0.00196838, 0.00271606, 2.6, 3.9)" spreadMethod ="pad" x1="-819.2" y1="0" x2="819.2" y2="0" >
<stop  offset="0" style="stop-color:#8E8E8E;stop-opacity:1" />
<stop  offset="0.635294" style="stop-color:#696969;stop-opacity:1" />
<stop  offset="0.992157" style="stop-color:#413F3A;stop-opacity:1" />
</linearGradient>
<path style="fill:url(#LinearGradID_960) " d="M4.7 6.5Q1.4 7.2 0 4.65Q0.55 2.75 1.95 1.15Q3.45 7.15 7.6 5.25Q6.2 6.15 4.7 6.5" />
<path style="fill:#808080;fill-opacity:1" d="M10.5 5.95L9.15 7.45Q6.3 10.4 3.55 10.55Q2.7 10.25 1.8 8.95Q4.2 9 6.9 7.35Q8.55 6.1 10.5 5.95" />
<path style="fill:none;stroke-width:0.7;stroke-linecap:round;stroke-linejoin:round;stroke-miterlimit:3;stroke:#000000;stroke-opacity:0.388235" d="M25.3 8.95L25.45 7.85Q25.65 2.3 26.75 1.8L28.1 4.1Q26.85 5.05 26.8 7Q27.05 8.15 26.55 9.25Q25.75 10.5 23.9 10.8L22.95 10.5L23.5 9.65Q24.25 9.9 25.3 8.95Q24.95 10.1 23.9 10.8" />
<path style="fill:none;stroke-width:0.7;stroke-linecap:round;stroke-linejoin:round;stroke-miterlimit:3;stroke:#000000;stroke-opacity:0.388235" d="M17.2 1Q19.85 2.85 19.85 7.4L19.5 11.1L22.2 10.9Q23.05 9.25 22.8 6.55Q22.55 3.6 21.1 2.1Q19.4 0.35 16.3 0.05L14.9 0Q16.25 0.3 17.2 1Q14.25 0.25 12.4 2.25L9.95 1.75Q12.5 0.1 14.9 0" />
<path style="fill:none;stroke-width:0.7;stroke-linecap:round;stroke-linejoin:round;stroke-miterlimit:3;stroke:#000000;stroke-opacity:0.388235" d="M9.15 7.45Q11.2 6.45 12.5 10.15Q13.25 12.15 12.35 15.1L14.9 13.25Q15.5 11.25 14.2 8.55Q12.75 5.6 10.5 5.95L9.15 7.45Q6.3 10.4 3.55 10.55Q2.7 10.25 1.8 8.95Q4.2 9 6.9 7.35Q8.55 6.1 10.5 5.95" />
<path style="fill:none;stroke-width:0.7;stroke-linecap:round;stroke-linejoin:round;stroke-miterlimit:3;stroke:#000000;stroke-opacity:0.388235" d="M7.6 5.25L9.45 3.7Q12.15 1.85 15.9 4.55Q18.5 6.45 18.85 11.15L15.85 12.55Q17.05 8.4 13.95 5.85Q10.95 4.1 8.75 5.55Q6.65 6.75 4.7 6.5Q1.4 7.2 0 4.65Q0.55 2.75 1.95 1.15Q3.45 7.15 7.6 5.25Q6.2 6.15 4.7 6.5" />
</g>
</svg>
