<?xml version="1.0" encoding="utf-8"?>
<svg version="1.1" id="Layer_1"
xmlns="http://www.w3.org/2000/svg"
xmlns:xlink="http://www.w3.org/1999/xlink"
width="9px" height="6px"
xml:space="preserve">
<g id="PathID_261" transform="matrix(1, 0, 0, 1, 4.2, 2.65)">
<linearGradient
id="LinearGradID_85" gradientUnits="userSpaceOnUse" gradientTransform="matrix(-0.00221252, -0.00109863, 0.00137329, -0.00279236, -1.65, -1.15)" spreadMethod ="pad" x1="-819.2" y1="0" x2="819.2" y2="0" >
<stop  offset="0" style="stop-color:#808080;stop-opacity:0" />
<stop  offset="0.760784" style="stop-color:#808080;stop-opacity:0.8" />
<stop  offset="1" style="stop-color:#808080;stop-opacity:0.298039" />
</linearGradient>
<path style="fill:url(#LinearGradID_85) " d="M4.1 -0.7L2.45 2.5L1.15 2.5L-1.1 2Q-2.1 1.55 -3 0.15Q-3.9 -1.2 -4.05 -2.35L-2.05 -2.15Q0.45 -2.5 1.85 -2.15Q3.25 -1.8 4.1 -0.7" />
<path style="fill:none;stroke-width:0.7;stroke-linecap:round;stroke-linejoin:round;stroke-miterlimit:3;stroke:#000000;stroke-opacity:0.301961" d="M4.1 -0.7L2.45 2.5L1.15 2.5L-1.1 2Q-2.1 1.55 -3 0.15Q-3.9 -1.2 -4.05 -2.35L-2.05 -2.15Q0.45 -2.5 1.85 -2.15Q3.25 -1.8 4.1 -0.7z" />
</g>
</svg>
