<?xml version="1.0" encoding="utf-8"?>
<svg version="1.1" id="Layer_1"
xmlns="http://www.w3.org/2000/svg"
xmlns:xlink="http://www.w3.org/1999/xlink"
width="23px" height="22px"
xml:space="preserve">
<g id="PathID_2149" transform="matrix(1, 0, 0, 1, 0.1, 0.1)">
<path style="fill:#808080;fill-opacity:1" d="M9.7 3.8L11.15 5.1Q11.1 6 9.75 5.9L9.35 5.5L9.75 5.9Q9.15 7.05 8 7.1L8.3 5.7L8 7.1L5.95 6.95L5.95 5.65L5.15 6.75L4.8 5L5.15 6.75Q1.85 6.25 1.1 4.95L1.45 4.15Q2.7 1.6 5.95 1.45L8.2 2.15L7 0.7Q8.55 -0.15 11 0L13.1 0.5Q14.25 1.1 13.9 1.6L13.05 1.65L13.9 1.6Q14.95 1.55 15.95 1.95L16.75 2.3L17.9 3.25Q18.7 5 16.85 4.75L16.35 4.15Q17.3 8.95 11.5 5.45L11.15 5.1L9.7 3.8" />
<path style="fill:#4F4943;fill-opacity:1" d="M18.05 8.7Q18.05 6.5 16.85 4.75Q18.05 6.5 18.05 8.7L17.8 10.65Q16.65 9.2 14.6 7.85Q13 6.9 11.8 5.75L11.5 5.45Q17.3 8.95 16.35 4.15L16.85 4.75Q18.7 5 17.9 3.25Q18.95 4.3 19.6 5.75Q20.5 7.75 21.95 8.4Q19.7 8.75 18.5 7.45L18.05 8.7M15.95 1.95Q14.95 1.55 13.9 1.6Q14.25 1.1 13.1 0.5Q14.75 1 15.95 1.95M7.8 9.65Q7.75 8.45 8 7.1Q9.15 7.05 9.75 5.9Q11.1 6 11.15 5.1L11.5 5.45L11.8 5.75Q12.5 7.4 12.05 9.2Q11.4 7.7 10.15 6.3Q9.5 8.15 7.8 9.65Q7.8 11.4 8.3 12.95Q7.15 12.1 6.55 10.5Q6 9.05 5.95 6.95L8 7.1Q7.75 8.45 7.8 9.65M7 0.7L8.2 2.15L5.95 1.45Q6.4 1 7 0.7M0.85 13.95L1.05 16.45Q-1.1 10.45 1.1 4.95Q1.85 6.25 5.15 6.75L5.95 5.65L5.95 6.95Q6 9.05 6.55 10.5L5.7 8.7L5.15 6.75L5.7 8.7Q5.35 15.55 6.6 20.85Q4.15 19.15 3.45 15.9Q3.25 17.95 4.25 20.05Q2.25 19.2 1.9 17.55L0.7 19.7Q1.05 18.6 1.05 16.45L0.85 13.95M18.5 7.45Q18.65 6.45 18.3 5.35Q18.65 6.45 18.5 7.45M9.75 5.9L10.15 6.3L9.75 5.9M2.25 16.45L1.9 17.55L2.25 16.45M3.45 15.9Q2.75 12.65 3.8 7.85Q2.75 12.65 3.45 15.9" />
<path style="fill:none;stroke-width:0.7;stroke-linecap:round;stroke-linejoin:round;stroke-miterlimit:3;stroke:#000000;stroke-opacity:0.301961" d="M16.35 4.15L16.85 4.75" />
<path style="fill:none;stroke-width:0.7;stroke-linecap:round;stroke-linejoin:round;stroke-miterlimit:3;stroke:#000000;stroke-opacity:0.301961" d="M17.9 3.25L16.75 2.3L15.95 1.95Q14.95 1.55 13.9 1.6L13.05 1.65" />
<path style="fill:none;stroke-width:0.7;stroke-linecap:round;stroke-linejoin:round;stroke-miterlimit:3;stroke:#000000;stroke-opacity:0.301961" d="M18.5 7.45Q19.7 8.75 21.95 8.4Q20.5 7.75 19.6 5.75Q18.95 4.3 17.9 3.25" />
<path style="fill:none;stroke-width:0.7;stroke-linecap:round;stroke-linejoin:round;stroke-miterlimit:3;stroke:#000000;stroke-opacity:0.301961" d="M11.15 5.1L11.5 5.45" />
<path style="fill:none;stroke-width:0.7;stroke-linecap:round;stroke-linejoin:round;stroke-miterlimit:3;stroke:#000000;stroke-opacity:0.301961" d="M13.1 0.5L11 0Q8.55 -0.15 7 0.7" />
<path style="fill:none;stroke-width:0.7;stroke-linecap:round;stroke-linejoin:round;stroke-miterlimit:3;stroke:#000000;stroke-opacity:0.301961" d="M5.95 1.45Q2.7 1.6 1.45 4.15L1.1 4.95" />
<path style="fill:none;stroke-width:0.7;stroke-linecap:round;stroke-linejoin:round;stroke-miterlimit:3;stroke:#000000;stroke-opacity:0.301961" d="M5.15 6.75L4.8 5" />
<path style="fill:none;stroke-width:0.7;stroke-linecap:round;stroke-linejoin:round;stroke-miterlimit:3;stroke:#000000;stroke-opacity:0.301961" d="M11.5 5.45L11.8 5.75Q13 6.9 14.6 7.85Q16.65 9.2 17.8 10.65L18.05 8.7Q18.05 6.5 16.85 4.75" />
<path style="fill:none;stroke-width:0.7;stroke-linecap:round;stroke-linejoin:round;stroke-miterlimit:3;stroke:#000000;stroke-opacity:0.301961" d="M10.15 6.3Q11.4 7.7 12.05 9.2Q12.5 7.4 11.8 5.75" />
<path style="fill:none;stroke-width:0.7;stroke-linecap:round;stroke-linejoin:round;stroke-miterlimit:3;stroke:#000000;stroke-opacity:0.301961" d="M18.5 7.45L18.05 8.7" />
<path style="fill:none;stroke-width:0.7;stroke-linecap:round;stroke-linejoin:round;stroke-miterlimit:3;stroke:#000000;stroke-opacity:0.301961" d="M18.3 5.35Q18.65 6.45 18.5 7.45" />
<path style="fill:none;stroke-width:0.7;stroke-linecap:round;stroke-linejoin:round;stroke-miterlimit:3;stroke:#000000;stroke-opacity:0.301961" d="M15.95 1.95Q14.75 1 13.1 0.5" />
<path style="fill:none;stroke-width:0.7;stroke-linecap:round;stroke-linejoin:round;stroke-miterlimit:3;stroke:#000000;stroke-opacity:0.301961" d="M9.75 5.9L9.35 5.5" />
<path style="fill:none;stroke-width:0.7;stroke-linecap:round;stroke-linejoin:round;stroke-miterlimit:3;stroke:#000000;stroke-opacity:0.301961" d="M7 0.7Q6.4 1 5.95 1.45" />
<path style="fill:none;stroke-width:0.7;stroke-linecap:round;stroke-linejoin:round;stroke-miterlimit:3;stroke:#000000;stroke-opacity:0.301961" d="M8 7.1L8.3 5.7" />
<path style="fill:none;stroke-width:0.7;stroke-linecap:round;stroke-linejoin:round;stroke-miterlimit:3;stroke:#000000;stroke-opacity:0.301961" d="M5.7 8.7L6.55 10.5Q6 9.05 5.95 6.95L5.95 5.65" />
<path style="fill:none;stroke-width:0.7;stroke-linecap:round;stroke-linejoin:round;stroke-miterlimit:3;stroke:#000000;stroke-opacity:0.301961" d="M5.15 6.75L5.7 8.7Q5.35 15.55 6.6 20.85Q4.15 19.15 3.45 15.9Q3.25 17.95 4.25 20.05Q2.25 19.2 1.9 17.55L0.7 19.7L0.45 20.1" />
<path style="fill:none;stroke-width:0.7;stroke-linecap:round;stroke-linejoin:round;stroke-miterlimit:3;stroke:#000000;stroke-opacity:0.301961" d="M8 7.1Q7.75 8.45 7.8 9.65Q9.5 8.15 10.15 6.3L9.75 5.9" />
<path style="fill:none;stroke-width:0.7;stroke-linecap:round;stroke-linejoin:round;stroke-miterlimit:3;stroke:#000000;stroke-opacity:0.301961" d="M1.9 17.55L2.25 16.45" />
<path style="fill:none;stroke-width:0.7;stroke-linecap:round;stroke-linejoin:round;stroke-miterlimit:3;stroke:#000000;stroke-opacity:0.301961" d="M1.05 16.45Q1.05 18.6 0.7 19.7" />
<path style="fill:none;stroke-width:0.7;stroke-linecap:round;stroke-linejoin:round;stroke-miterlimit:3;stroke:#000000;stroke-opacity:0.301961" d="M0.85 13.95L1.05 16.45Q-1.1 10.45 1.1 4.95" />
<path style="fill:none;stroke-width:0.7;stroke-linecap:round;stroke-linejoin:round;stroke-miterlimit:3;stroke:#000000;stroke-opacity:0.301961" d="M9.7 3.8L11.15 5.1" />
<path style="fill:none;stroke-width:0.7;stroke-linecap:round;stroke-linejoin:round;stroke-miterlimit:3;stroke:#000000;stroke-opacity:0.301961" d="M7.8 9.65Q7.8 11.4 8.3 12.95Q7.15 12.1 6.55 10.5" />
<path style="fill:none;stroke-width:0.7;stroke-linecap:round;stroke-linejoin:round;stroke-miterlimit:3;stroke:#000000;stroke-opacity:0.301961" d="M3.8 7.85Q2.75 12.65 3.45 15.9" />
</g>
</svg>
