<?xml version="1.0" encoding="utf-8"?>
<svg version="1.1" id="Layer_1"
xmlns="http://www.w3.org/2000/svg"
xmlns:xlink="http://www.w3.org/1999/xlink"
width="6px" height="6px"
xml:space="preserve">
<g id="PathID_289" transform="matrix(1, 0, 0, 1, 1.7, -10.5)">
<radialGradient
id="RadialGradID_104" gradientUnits="userSpaceOnUse" gradientTransform="matrix(0.0080719, 0.0032196, -0.00152588, 0.0038147, 0.1, 14.3)" spreadMethod ="pad" cx="0" cy="0" r="819.2" fx="0" fy="0" >
<stop  offset="0.164706"  style="stop-color:#FFFFFF;stop-opacity:0.2" />
<stop  offset="0.298039"  style="stop-color:#FFFFFF;stop-opacity:0" />
<stop  offset="1"  style="stop-color:#FFFFFF;stop-opacity:0" />
</radialGradient>
<path style="fill:url(#RadialGradID_104) " d="M3 11.95L3.1 11.8Q3.4 11.45 2.5 11.6Q1.05 11.85 0.6 11.35L1.4 11.3L0.75 10.8L-0.3 10.9Q-0.55 11.15 0.15 11.65Q0.85 12.2 1.9 12.15L2.4 12.1L2.35 12.45L2.55 12.7L2.95 12.85L3.25 12.55L3.35 12.25L3.1 11.95L3 11.95M-1.4 12.25L-1.2 12.65L-0.9 12.8L-0.75 12.55L-0.7 12.1L-0.85 11.75L-1.15 11.6L-0.5 10.6Q0.1 10.4 0.9 10.6L1.75 11.4L3.2 11.5Q3.65 11.8 3.75 12.35Q2.5 14.3 2.85 14.65Q2.15 15.85 0.8 15.85L0.5 15.8L-0.85 15.4Q-2.2 14.2 -1.4 12.2L-1.4 12.25M1.95 12.5L1.85 12.5L1.85 12.65L1.9 12.75L2.05 12.8L2.15 12.75L2.15 12.6L2.1 12.5L1.95 12.5" />
<path style="fill:#FFFFFF;fill-opacity:0.501961" d="M1.9 12.15Q0.85 12.2 0.15 11.65Q-0.55 11.15 -0.3 10.9L0.75 10.8L1.4 11.3L0.6 11.35Q1.05 11.85 2.5 11.6Q3.4 11.45 3.1 11.8L3 11.95L2.75 11.9L2.4 12.05L2.4 12.1L1.9 12.15" />
<path style="fill:#FFFFFF;fill-opacity:0.8" d="M3.1 11.95L3.35 12.25L3.25 12.55L2.95 12.85L2.55 12.7L2.35 12.45L2.4 12.1L2.4 12.05L2.75 11.9L3 11.95L3.1 11.95M-1.15 11.6L-0.85 11.75L-0.7 12.1L-0.75 12.55L-0.9 12.8L-1.2 12.65L-1.4 12.25L-1.4 12.2L-1.35 11.8L-1.15 11.6M2.1 12.5L2.15 12.6L2.15 12.75L2.05 12.8L1.9 12.75L1.85 12.65L1.85 12.5L1.95 12.5L2.1 12.5" />
</g>
</svg>
