<?xml version="1.0" encoding="utf-8"?>
<svg version="1.1" id="Layer_1"
xmlns="http://www.w3.org/2000/svg"
xmlns:xlink="http://www.w3.org/1999/xlink"
width="6px" height="6px"
xml:space="preserve">
<g id="PathID_2293" transform="matrix(1, 0, 0, 1, 0.15, 0.15)">
<path style="fill:#808080;fill-opacity:1" d="M1.6 2.3Q1.4 0.9 2.25 0L2.8 0Q3.95 0 4.75 0.8Q5.6 1.65 5.6 2.8Q5.6 3.65 5.15 4.3L3.8 4.25Q1.8 3.6 1.6 2.3M2.9 0.35Q2.1 0.5 2.45 0.7L2.9 0.7L3.6 0.9Q3.9 1.05 4.05 1.3Q4.2 1.5 4.4 1.3L4.15 0.65Q3.65 0.2 2.9 0.35" />
<path style="fill:#BFBFBF;fill-opacity:1" d="M4.15 0.65L4.4 1.3Q4.2 1.5 4.05 1.3Q3.9 1.05 3.6 0.9L2.9 0.7L2.45 0.7Q2.1 0.5 2.9 0.35Q3.65 0.2 4.15 0.65" />
<path style="fill:#4F4943;fill-opacity:1" d="M3.8 4.25L3.75 4.25L0.8 4.75Q0 3.95 0 2.8Q0 1.65 0.7 0.8Q1.35 -0.05 2.25 0Q1.4 0.9 1.6 2.3Q1.8 3.6 3.8 4.25" />
<path style="fill:none;stroke-width:0.7;stroke-linecap:round;stroke-linejoin:round;stroke-miterlimit:3;stroke:#000000;stroke-opacity:0.301961" d="M2.25 0L2.8 0Q3.95 0 4.75 0.8Q5.6 1.65 5.6 2.8Q5.6 3.65 5.15 4.3L3.8 4.25L3.75 4.25L0.8 4.75Q0 3.95 0 2.8Q0 1.65 0.7 0.8Q1.35 -0.05 2.25 0z" />
</g>
</svg>
