<?xml version="1.0" encoding="utf-8"?>
<svg version="1.1" id="Layer_1"
xmlns="http://www.w3.org/2000/svg"
xmlns:xlink="http://www.w3.org/1999/xlink"
width="22px" height="8px"
xml:space="preserve">
<g id="PathID_2348" transform="matrix(1, 0, 0, 1, 0.05, 0.05)">
<path style="fill:#808080;fill-opacity:1" d="M21.65 6.55Q22.1 7.2 21.55 7.7L20.4 7.6Q20 6.9 20.5 6.45Q21.15 5.85 21.65 6.55M15.95 0.3Q16.6 -0.3 17.1 0.4Q17.55 1.05 17 1.55L15.85 1.45Q15.45 0.8 15.95 0.3M1.05 3.1Q1.75 3.35 1.6 4.1Q1.35 4.75 0.6 4.65Q-0.1 4.3 0.05 3.65Q0.25 2.75 1.05 3.1M8.25 5.7Q8.95 5.95 8.8 6.7Q8.55 7.35 7.8 7.25Q7.1 6.9 7.25 6.25Q7.45 5.35 8.25 5.7" />
<path style="fill:none;stroke-width:0.7;stroke-linecap:round;stroke-linejoin:round;stroke-miterlimit:3;stroke:#000000;stroke-opacity:0.298039" d="M21.65 6.55Q22.1 7.2 21.55 7.7L20.4 7.6Q20 6.9 20.5 6.45Q21.15 5.85 21.65 6.55z" />
<path style="fill:none;stroke-width:0.7;stroke-linecap:round;stroke-linejoin:round;stroke-miterlimit:3;stroke:#000000;stroke-opacity:0.298039" d="M15.95 0.3Q16.6 -0.3 17.1 0.4Q17.55 1.05 17 1.55L15.85 1.45Q15.45 0.8 15.95 0.3z" />
<path style="fill:none;stroke-width:0.7;stroke-linecap:round;stroke-linejoin:round;stroke-miterlimit:3;stroke:#000000;stroke-opacity:0.298039" d="M1.05 3.1Q1.75 3.35 1.6 4.1Q1.35 4.75 0.6 4.65Q-0.1 4.3 0.05 3.65Q0.25 2.75 1.05 3.1z" />
<path style="fill:none;stroke-width:0.7;stroke-linecap:round;stroke-linejoin:round;stroke-miterlimit:3;stroke:#000000;stroke-opacity:0.298039" d="M8.25 5.7Q8.95 5.95 8.8 6.7Q8.55 7.35 7.8 7.25Q7.1 6.9 7.25 6.25Q7.45 5.35 8.25 5.7z" />
</g>
</svg>
