<?xml version="1.0" encoding="utf-8"?>
<svg version="1.1" id="Layer_1"
xmlns="http://www.w3.org/2000/svg"
xmlns:xlink="http://www.w3.org/1999/xlink"
width="19px" height="15px"
xml:space="preserve">
<g id="PathID_3142" transform="matrix(1, 0, 0, 1, 0.1, 0.1)">
<path style="fill:#808080;fill-opacity:1" d="M13.1 1.55Q13.1 1.85 12.6 1.85L12.4 1.8L12.55 1.35L12.95 1.35L13.1 1.55M11.5 0.55Q11.5 0.35 11.85 0.35L12.2 0.3L12.35 0.5L11.95 0.75L11.6 0.75L11.5 0.55M10.65 1.75L10.85 1.75L11.1 2L10.85 2.2L10.65 2.1L10.65 1.75M9.55 9.5L13.75 10.45L14.25 11.3L12.15 11.2L9.55 9.5M11.45 8.15L9.95 8.4L9.05 8.1L7.95 7.4Q9.6 6.65 11.3 6.5Q12.5 7.2 11.45 8.15M12.7 6.45L14.9 6.75L15.9 8.75Q14.3 8.15 13.5 8.05Q12 7.25 12.7 6.45M16.7 10.3Q17.85 10 16.85 9.25L18.4 10.05Q18.6 10.5 18 10.8L16.7 10.3" />
<path style="fill:#B8B8B8;fill-opacity:1" d="M16.7 10.3L18 10.8L15.9 11.15L14.25 11.3L13.75 10.45L16.7 10.3M13.5 8.05L11.45 8.15Q12.5 7.2 11.3 6.5L12.7 6.45Q12 7.25 13.5 8.05" />
<path style="fill:#4F4943;fill-opacity:1" d="M9.05 8.1L9.95 8.4L8.55 8.9L7.3 9.55L8.55 8.9Q8.85 9.2 9.55 9.5L12.15 11.2Q8.85 10.65 7.3 9.55L5.85 10.4Q3.6 11.65 0 13.85Q3.45 10 6.25 8.3L7.95 7.4L9.05 8.1" />
<path style="fill:none;stroke-width:0.7;stroke-linecap:round;stroke-linejoin:round;stroke-miterlimit:3;stroke:#8C8C8C;stroke-opacity:0.678431" d="M13.7 0.55Q12.35 1.35 10.2 1.4L10.1 2.45L11.7 2.5L13.25 2.2Q13.65 1.6 13.7 0.55Q12.85 0.05 11.5 0L10.2 1.4" />
<path style="fill:none;stroke-width:0.7;stroke-linecap:round;stroke-linejoin:round;stroke-miterlimit:3;stroke:#000000;stroke-opacity:0.301961" d="M5.85 10.4Q3.6 11.65 0 13.85" />
<path style="fill:none;stroke-width:0.7;stroke-linecap:round;stroke-linejoin:round;stroke-miterlimit:3;stroke:#000000;stroke-opacity:0.301961" d="M14.9 6.75L15.9 8.75" />
<path style="fill:none;stroke-width:0.7;stroke-linecap:round;stroke-linejoin:round;stroke-miterlimit:3;stroke:#000000;stroke-opacity:0.301961" d="M16.85 9.25L18.4 10.05" />
<path style="fill:none;stroke-width:0.7;stroke-linecap:round;stroke-linejoin:round;stroke-miterlimit:3;stroke:#000000;stroke-opacity:0.301961" d="M8.55 8.9L7.3 9.55" />
</g>
</svg>
