<?xml version="1.0" encoding="utf-8"?>
<svg version="1.1" id="Layer_1"
xmlns="http://www.w3.org/2000/svg"
xmlns:xlink="http://www.w3.org/1999/xlink"
width="19px" height="17px"
xml:space="preserve">
<g id="PathID_1692" transform="matrix(1, 0, 0, 1, 0.1, 0.1)">
<linearGradient
id="LinearGradID_491" gradientUnits="userSpaceOnUse" gradientTransform="matrix(-0.00253296, 0.00352478, -0.00604248, -0.00471497, 10.95, 9.95)" spreadMethod ="pad" x1="-819.2" y1="0" x2="819.2" y2="0" >
<stop  offset="0.101961" style="stop-color:#434343;stop-opacity:1" />
<stop  offset="1" style="stop-color:#777777;stop-opacity:1" />
</linearGradient>
<path style="fill:url(#LinearGradID_491) " d="M6.1 5.15Q6.3 1.35 9.5 1.2Q14.75 -2.2 17.9 3.95Q13.15 4.8 13.7 8L13.4 13.05L9.5 13.9Q7.65 12.95 8.1 11.3L6.1 5.15" />
<path style="fill:none;stroke-width:0.7;stroke-linecap:round;stroke-linejoin:round;stroke-miterlimit:3;stroke:#000000;stroke-opacity:0.301961" d="M6.1 5.15Q6.3 1.35 9.5 1.2Q14.75 -2.2 17.9 3.95Q13.15 4.8 13.7 8L13.4 13.05L9.5 13.9Q7.65 12.95 8.1 11.3L6.1 5.15z" />
</g>
<g id="PathID_1693" transform="matrix(1, 0, 0, 1, 0.1, 0.1)">
<radialGradient
id="RadialGradID_492" gradientUnits="userSpaceOnUse" gradientTransform="matrix(0.00500488, 0, 0, 0.00439453, 5.05, 10.2)" spreadMethod ="pad" cx="0" cy="0" r="819.2" fx="0" fy="0" >
<stop  offset="0.47451"  style="stop-color:#4A4A4A;stop-opacity:1" />
<stop  offset="1"  style="stop-color:#707070;stop-opacity:1" />
</radialGradient>
<path style="fill:url(#RadialGradID_492) " d="M2.7 12.2Q5 12.35 6.65 10.7Q7.6 9.6 4.85 8.9Q7.6 9.6 6.65 10.7Q5 12.35 2.7 12.2L0.6 11.7Q-0.75 10.65 1.05 8Q3.35 5.3 7.75 6.5Q11.65 8.2 10.6 10.65Q8.55 13.9 4.65 15L5.3 14.15Q1.85 11.9 2 14.6Q1.3 13.2 2.7 12.2" />
<radialGradient
id="RadialGradID_493" gradientUnits="userSpaceOnUse" gradientTransform="matrix(0.00282288, 0.000793457, -0.000946045, 0.00367737, 3, 15.25)" spreadMethod ="pad" cx="0" cy="0" r="819.2" fx="0" fy="0" >
<stop  offset="0.196078"  style="stop-color:#808080;stop-opacity:1" />
<stop  offset="0.827451"  style="stop-color:#707070;stop-opacity:1" />
</radialGradient>
<path style="fill:url(#RadialGradID_493) " d="M2 14.6Q1.85 11.9 5.3 14.15L4.65 15Q2.7 16.45 2.05 16.2Q1.65 15.7 2 14.6" />
<path style="fill:#494F46;fill-opacity:1" d="M2.7 16.55L2.05 16.2Q2.7 16.45 4.65 15Q3.35 16.6 2.7 16.55" />
<path style="fill:none;stroke-width:0.7;stroke-linecap:round;stroke-linejoin:round;stroke-miterlimit:3;stroke:#000000;stroke-opacity:0.301961" d="M4.65 15Q8.55 13.9 10.6 10.65Q11.65 8.2 7.75 6.5Q3.35 5.3 1.05 8Q-0.75 10.65 0.6 11.7L2.7 12.2Q5 12.35 6.65 10.7Q7.6 9.6 4.85 8.9" />
<path style="fill:none;stroke-width:0.7;stroke-linecap:round;stroke-linejoin:round;stroke-miterlimit:3;stroke:#000000;stroke-opacity:0.301961" d="M2.05 16.2L2.7 16.55Q3.35 16.6 4.65 15L5.3 14.15" />
<path style="fill:none;stroke-width:0.7;stroke-linecap:round;stroke-linejoin:round;stroke-miterlimit:3;stroke:#000000;stroke-opacity:0.301961" d="M2 14.6Q1.65 15.7 2.05 16.2" />
<path style="fill:none;stroke-width:0.7;stroke-linecap:round;stroke-linejoin:round;stroke-miterlimit:3;stroke:#000000;stroke-opacity:0.301961" d="M2.7 12.2Q1.3 13.2 2 14.6" />
</g>
<g id="PathID_1694" transform="matrix(1, 0, 0, 1, 0.1, 0.1)">
<radialGradient
id="RadialGradID_494" gradientUnits="userSpaceOnUse" gradientTransform="matrix(0.00256348, 0, 0, 0.00267029, 5.25, 14.65)" spreadMethod ="pad" cx="0" cy="0" r="819.2" fx="0" fy="0" >
<stop  offset="0.196078"  style="stop-color:#808080;stop-opacity:1" />
<stop  offset="0.47451"  style="stop-color:#858585;stop-opacity:1" />
<stop  offset="1"  style="stop-color:#707070;stop-opacity:1" />
</radialGradient>
<path style="fill:url(#RadialGradID_494) " d="M5.2 13.65Q5.85 12.9 7.9 14.1L6.95 15.9Q4.15 16.3 3.95 14.85Q3.8 14.1 5.2 13.65" />
<path style="fill:none;stroke-width:0.7;stroke-linecap:round;stroke-linejoin:round;stroke-miterlimit:3;stroke:#000000;stroke-opacity:0.301961" d="M3.95 14.85Q4.15 16.3 6.95 15.9L7.9 14.1Q5.85 12.9 5.2 13.65Q3.8 14.1 3.95 14.85z" />
</g>
</svg>
