<?xml version="1.0" encoding="utf-8"?>
<svg version="1.1" id="Layer_1"
xmlns="http://www.w3.org/2000/svg"
xmlns:xlink="http://www.w3.org/1999/xlink"
width="8px" height="5px"
xml:space="preserve">
<g id="PathID_1608" transform="matrix(1, 0, 0, 1, 0.4, 0.3)">
<path style="fill:#808080;fill-opacity:1" d="M1.6 0.25L2.1 0.55L2.45 0.65L3.2 0L3.4 1.3L5.05 1.95L5.8 1.2L5.8 2.3L6.9 2.35Q7.05 3.05 6.3 3.6Q4.55 2.65 1.95 1.65L1.6 0.25" />
<path style="fill:#565656;fill-opacity:1" d="M1.6 0.25L1.95 1.65L0 0.95L1.6 0.25" />
<path style="fill:none;stroke-width:0.7;stroke-linecap:round;stroke-linejoin:miter;stroke-miterlimit:3;stroke:#000000;stroke-opacity:0.4" d="M1.95 1.65Q4.55 2.65 6.3 3.6Q7.05 3.05 6.9 2.35L5.8 2.3L5.8 1.2L5.05 1.95L3.4 1.3L3.2 0L2.45 0.65L2.1 0.55L1.6 0.25" />
<path style="fill:none;stroke-width:0.7;stroke-linecap:round;stroke-linejoin:miter;stroke-miterlimit:3;stroke:#000000;stroke-opacity:0.4" d="M1.95 1.65L0 0.95L1.6 0.25" />
</g>
</svg>
