<?xml version="1.0" encoding="utf-8"?>
<svg version="1.1" id="Layer_1"
xmlns="http://www.w3.org/2000/svg"
xmlns:xlink="http://www.w3.org/1999/xlink"
width="27px" height="31px"
xml:space="preserve">
<g id="PathID_2135" transform="matrix(1, 0, 0, 1, 0.15, 0.4)">
<path style="fill:#5D5552;fill-opacity:1" d="M11.95 12.75Q11.6 12.05 10.7 11.4Q10.15 10.55 8.45 10.35L10.65 10.2L11.6 10.2L13.2 11.6L11.6 10.2Q10.05 9.3 9.3 8.1Q10.9 9.45 13.7 10.1Q15.95 13.05 16.65 16.05L14.55 15.35L13.65 15.3Q12.45 14.45 11.95 12.75" />
<path style="fill:#808080;fill-opacity:1" d="M8.95 14.85L6.15 15.35L8.4 13.9L7 13.6Q5.9 13.15 6.2 12.15Q6.95 11.55 7.85 11.2L5.25 11.55Q6.6 10.65 8.45 10.35Q10.15 10.55 10.7 11.4Q11.6 12.05 11.95 12.75Q12.45 14.45 13.65 15.3L14.9 15.9L12.05 16.2Q10.6 15.9 10.4 15.2L12.2 15L13.65 15.3L12.2 15L10.95 14.85Q8.75 14.35 9.25 11.1L10.7 11.4L9.25 11.1L7.85 11.2Q8.95 12.95 8.95 14.85M11.15 16.45L10.75 16.55Q8.4 16.45 9.2 15.4Q10.05 15.3 11.15 16.45" />
<path style="fill:#C9C9C9;fill-opacity:1" d="M9.2 15.4L10.4 15.2Q10.6 15.9 12.05 16.2L11.15 16.45Q10.05 15.3 9.2 15.4M10.95 14.85L8.95 14.85Q8.95 12.95 7.85 11.2L9.25 11.1Q8.75 14.35 10.95 14.85" />
<linearGradient
id="LinearGradID_667" gradientUnits="userSpaceOnUse" gradientTransform="matrix(0.00428772, -0.00643921, 0.00860596, 0.00593567, 8, 19)" spreadMethod ="pad" x1="-819.2" y1="0" x2="819.2" y2="0" >
<stop  offset="0" style="stop-color:#5D5552;stop-opacity:1" />
<stop  offset="0.988235" style="stop-color:#463F3B;stop-opacity:1" />
</linearGradient>
<path style="fill:url(#LinearGradID_667) " d="M7 13.6L8.4 13.9L6.15 15.35L8.95 14.85L10.95 14.85L12.2 15L10.4 15.2L9.2 15.4Q8.4 16.45 10.75 16.55L11.15 16.45L13.7 16.45Q12.85 17.65 10.4 18.5L13.05 18.5L10.85 20.05L10.3 21.4Q9.65 22.7 9.35 22.65Q6.9 25.45 8.55 28.3L6.8 27.3L4.2 29.55L5.55 27.1L3.85 28.05Q5.4 26.2 5.6 25.2Q3.65 27.05 1.5 26.3Q2.55 25.35 3.25 22.95Q1.75 24 0 24.3L2.65 18.55L0.9 19.9Q1.8 18.55 2.75 17.65L2.8 17.65L3.65 16.25Q4.8 14.75 7 13.6M7.9 15.8L9.2 15.4L7.9 15.8M4.05 17.85L2.65 18.55L4.05 17.85M5.05 20.3L3.25 22.95L5.05 20.3M2.8 17.65Q3.95 16.75 5.35 16.3Q3.95 16.75 2.8 17.65M8.55 21.1Q9.3 21 10.85 20.05Q9.3 21 8.55 21.1M6.8 25.05Q6.5 26.2 5.55 27.1Q6.5 26.2 6.8 25.05M7.65 22.2Q6.65 24.15 5.6 25.2Q6.65 24.15 7.65 22.2" />
<linearGradient
id="LinearGradID_668" gradientUnits="userSpaceOnUse" gradientTransform="matrix(0.00468445, -0.0070343, 0.00860596, 0.00593567, 6.85, 20.8)" spreadMethod ="pad" x1="-819.2" y1="0" x2="819.2" y2="0" >
<stop  offset="0" style="stop-color:#5D5552;stop-opacity:1" />
<stop  offset="1" style="stop-color:#43403E;stop-opacity:1" />
</linearGradient>
<path style="fill:url(#LinearGradID_668) " d="M7 13.6Q4.8 14.75 3.65 16.25Q4.6 13.55 6.2 12.15Q5.9 13.15 7 13.6" />
<path style="fill:none;stroke-width:0.7;stroke-linecap:round;stroke-linejoin:round;stroke-miterlimit:3;stroke:#000000;stroke-opacity:0.2" d="M11.6 10.2L13.2 11.6" />
<path style="fill:none;stroke-width:0.7;stroke-linecap:round;stroke-linejoin:round;stroke-miterlimit:3;stroke:#000000;stroke-opacity:0.301961" d="M8.45 10.35L10.65 10.2L11.6 10.2Q10.05 9.3 9.3 8.1Q10.9 9.45 13.7 10.1Q15.95 13.05 16.65 16.05L14.55 15.35L13.65 15.3L14.9 15.9L12.05 16.2L11.15 16.45L13.7 16.45Q12.85 17.65 10.4 18.5L13.05 18.5L10.85 20.05L10.3 21.4Q9.65 22.7 9.35 22.65Q6.9 25.45 8.55 28.3L6.8 27.3L4.2 29.55L5.55 27.1L3.85 28.05Q5.4 26.2 5.6 25.2Q3.65 27.05 1.5 26.3Q2.55 25.35 3.25 22.95Q1.75 24 0 24.3L2.65 18.55L0.9 19.9Q1.8 18.55 2.75 17.65L2.8 17.65L3.65 16.25Q4.6 13.55 6.2 12.15Q6.95 11.55 7.85 11.2L5.25 11.55Q6.6 10.65 8.45 10.35z" />
<path style="fill:none;stroke-width:0.7;stroke-linecap:round;stroke-linejoin:round;stroke-miterlimit:3;stroke:#000000;stroke-opacity:0.301961" d="M13.65 15.3L12.2 15" />
<path style="fill:none;stroke-width:0.7;stroke-linecap:round;stroke-linejoin:round;stroke-miterlimit:3;stroke:#000000;stroke-opacity:0.2" d="M12.2 15L10.4 15.2" />
<path style="fill:none;stroke-width:0.7;stroke-linecap:round;stroke-linejoin:round;stroke-miterlimit:3;stroke:#000000;stroke-opacity:0.2" d="M7.85 11.2L9.25 11.1L10.7 11.4" />
<path style="fill:none;stroke-width:0.7;stroke-linecap:round;stroke-linejoin:round;stroke-miterlimit:3;stroke:#000000;stroke-opacity:0.2" d="M9.2 15.4L7.9 15.8" />
<path style="fill:none;stroke-width:0.7;stroke-linecap:round;stroke-linejoin:round;stroke-miterlimit:3;stroke:#000000;stroke-opacity:0.2" d="M2.65 18.55L4.05 17.85" />
<path style="fill:none;stroke-width:0.7;stroke-linecap:round;stroke-linejoin:round;stroke-miterlimit:3;stroke:#000000;stroke-opacity:0.2" d="M3.25 22.95L5.05 20.3" />
<path style="fill:none;stroke-width:0.7;stroke-linecap:round;stroke-linejoin:round;stroke-miterlimit:3;stroke:#000000;stroke-opacity:0.2" d="M5.35 16.3Q3.95 16.75 2.8 17.65" />
<path style="fill:none;stroke-width:0.7;stroke-linecap:round;stroke-linejoin:round;stroke-miterlimit:3;stroke:#000000;stroke-opacity:0.2" d="M7 13.6Q4.8 14.75 3.65 16.25" />
<path style="fill:none;stroke-width:0.7;stroke-linecap:round;stroke-linejoin:round;stroke-miterlimit:3;stroke:#000000;stroke-opacity:0.2" d="M9.2 15.4L10.4 15.2" />
<path style="fill:none;stroke-width:0.7;stroke-linecap:round;stroke-linejoin:round;stroke-miterlimit:3;stroke:#000000;stroke-opacity:0.2" d="M10.85 20.05Q9.3 21 8.55 21.1" />
<path style="fill:none;stroke-width:0.7;stroke-linecap:round;stroke-linejoin:round;stroke-miterlimit:3;stroke:#000000;stroke-opacity:0.2" d="M5.55 27.1Q6.5 26.2 6.8 25.05" />
<path style="fill:none;stroke-width:0.7;stroke-linecap:round;stroke-linejoin:round;stroke-miterlimit:3;stroke:#000000;stroke-opacity:0.2" d="M5.6 25.2Q6.65 24.15 7.65 22.2" />
</g>
<g id="PathID_2136" transform="matrix(1, 0, 0, 1, 0.15, 0.4)">
<path style="fill:#C9C9C9;fill-opacity:1" d="M18.45 9.3L18.35 10.1L18.55 8.5L18.7 7.4L19.35 7.85Q20.1 7.95 20.45 6.45L20.25 9.2L18.45 9.3M20.05 11.6Q20 11 20.1 10.4Q20.6 10.8 21.1 9.9L21.1 11.05Q20.55 10.7 20.05 11.6M24 12.2L22.95 12.4Q22.8 11.4 21.85 10.7L22.1 10.5L22.95 10.3Q22.75 11.4 24 12.2M13 12.5L12.75 11Q14.05 11.15 14.2 10.25L15 11.35Q13.7 11 13 12.5M15.15 8.4L14.5 7.2L15.05 6.7L15.6 5.9L16.3 6.9Q15.05 7.45 15.15 8.4M18.35 10.1Q18.1 8.8 17.6 9.65L17.85 8.45L18.35 8L18.7 7.4L18.55 8.5L18.45 9.3M17.2 9.4L17.1 10L16.25 10.7L16.75 9.4L17.2 9.4" />
<path style="fill:#5D5552;fill-opacity:1" d="M17.55 14.5L18.05 13.65Q17.9 12.15 18.35 10.1L18.4 10.15Q18.35 13.7 20.4 15.8Q20.9 15.45 21.3 12.5Q21.6 14.8 21.15 15.75Q21.6 14.8 21.3 12.5L21.15 11.75Q21.4 11.05 21.85 10.7L22.05 11.55Q22.35 12.45 22.95 12.4Q22.3 12.65 22.2 13.25Q22.3 12.65 22.95 12.4L24 12.2Q22.25 14.35 21.95 16.3Q21.45 17 20.15 16.7L18.45 16.4Q17.2 17.4 15.8 16.15L13.8 14.1Q13.2 13.4 13 12.5Q14.3 14.45 16.6 14.65Q16 13.7 15.9 12.6L16.25 10.7M15.8 9.55L16.9 8.25L16.75 9.4L16.25 10.7Q16.5 13 17.55 14.5L15.9 12.6L15 11.35L14.2 10.25L13.85 9.85L13.9 8.5Q13.7 6.95 12.6 5.85L14.45 7.2L14.5 7.2L14.85 9.8L15.15 8.4L15.8 9.55M17.6 9.65L17.15 11.9Q17 11.05 17.1 10L17.2 9.4L17.6 7.95L17.6 7.9L18.15 6.75L17.85 8.45L17.6 9.65M14.85 9.8L14.5 7.2M16.6 14.65L18.45 16.4L16.6 14.65M20.15 16.7Q18.25 15.6 18.05 13.65Q18.25 15.6 20.15 16.7" />
<path style="fill:#808080;fill-opacity:1" d="M21.3 12.5Q20.9 15.45 20.4 15.8Q18.35 13.7 18.4 10.15L18.45 9.3L20.25 9.2Q20.65 8.15 22.4 5.75L21.6 7.5Q21.2 8.75 21.1 9.9Q20.6 10.8 20.1 10.4Q20 11 20.05 11.6Q20.55 10.7 21.1 11.05L21.15 11.75L21.3 12.5M22.95 10.3L23.35 10.5L24.55 10.7Q25.25 10.55 25.9 10.05Q25.2 11 24.15 11.4Q25.55 11.5 26.05 12.2Q24.8 12.05 24 12.2Q22.75 11.4 22.95 10.3M14.2 10.25Q14.05 11.15 12.75 11Q12.2 8.65 10.8 7.9Q11.7 8.2 13.85 9.85L14.2 10.25M14.5 7.2Q13.8 5.2 11.8 4.25Q14.3 4.55 15.6 5.9L15.05 6.7L14.5 7.2M16.75 9.4L16.9 8.25L15.8 9.55L15.15 8.4Q15.05 7.45 16.3 6.9L16.9 8.25L17.05 7.05L17.1 4.45Q17.8 6.1 17.6 7.9L17.6 7.95L17.2 9.4L16.75 9.4M18.35 8L17.85 8.45L18.15 6.75Q18.7 5.05 18.35 3.2L17.65 0Q18.6 0.9 19.35 2.5Q20.3 4.4 20.45 6.45Q20.1 7.95 19.35 7.85L18.7 7.4L18.75 5.75Q18.7 3.9 18.35 3.2Q18.7 3.9 18.75 5.75L18.7 7.4L18.35 8M20.1 10.4L20.25 9.2L20.1 10.4M22.95 12.4Q22.35 12.45 22.05 11.55L21.85 10.7Q22.8 11.4 22.95 12.4M16.6 14.65Q14.3 14.45 13 12.5Q13.7 11 15 11.35L15.9 12.6Q16 13.7 16.6 14.65M18.35 10.1Q17.9 12.15 18.05 13.65L17.55 14.5Q16.5 13 16.25 10.7L17.1 10Q17 11.05 17.15 11.9L17.5 12.95L17.6 9.65Q18.1 8.8 18.35 10.1M17.5 12.95L17.15 11.9M20.25 13.15L20.05 11.6L20.25 13.15" />
<path style="fill:#DBAC10;fill-opacity:1" d="M18.4 10.15L18.35 10.1L18.45 9.3L18.4 10.15" />
<path style="fill:none;stroke-width:0.7;stroke-linecap:round;stroke-linejoin:miter;stroke-miterlimit:3;stroke:#000000;stroke-opacity:0.301961" d="M20.45 6.45L20.25 9.2Q20.65 8.15 22.4 5.75L21.6 7.5Q21.2 8.75 21.1 9.9L21.1 11.05L21.15 11.75Q21.4 11.05 21.85 10.7L22.1 10.5L22.95 10.3L23.35 10.5L24.55 10.7Q25.25 10.55 25.9 10.05Q25.2 11 24.15 11.4Q25.55 11.5 26.05 12.2Q24.8 12.05 24 12.2Q22.25 14.35 21.95 16.3Q21.45 17 20.15 16.7L18.45 16.4Q17.2 17.4 15.8 16.15L13.8 14.1Q13.2 13.4 13 12.5L12.75 11Q12.2 8.65 10.8 7.9Q11.7 8.2 13.85 9.85L13.9 8.5Q13.7 6.95 12.6 5.85L14.45 7.2" />
<path style="fill:none;stroke-width:0.7;stroke-linecap:round;stroke-linejoin:round;stroke-miterlimit:3;stroke:#000000;stroke-opacity:0.2" d="M14.45 7.2L14.5 7.2" />
<path style="fill:none;stroke-width:0.7;stroke-linecap:round;stroke-linejoin:miter;stroke-miterlimit:3;stroke:#000000;stroke-opacity:0.301961" d="M14.5 7.2Q13.8 5.2 11.8 4.25Q14.3 4.55 15.6 5.9L16.3 6.9L16.9 8.25L17.05 7.05L17.1 4.45Q17.8 6.1 17.6 7.9L18.15 6.75Q18.7 5.05 18.35 3.2L17.65 0Q18.6 0.9 19.35 2.5Q20.3 4.4 20.45 6.45" />
<path style="fill:none;stroke-width:0.7;stroke-linecap:round;stroke-linejoin:round;stroke-miterlimit:3;stroke:#000000;stroke-opacity:0.2" d="M18.7 7.4L18.55 8.5L18.45 9.3" />
<path style="fill:none;stroke-width:0.7;stroke-linecap:round;stroke-linejoin:round;stroke-miterlimit:3;stroke:#000000;stroke-opacity:0.2" d="M20.25 9.2L20.1 10.4" />
<path style="fill:none;stroke-width:0.7;stroke-linecap:round;stroke-linejoin:round;stroke-miterlimit:3;stroke:#000000;stroke-opacity:0.2" d="M22.95 12.4L24 12.2" />
<path style="fill:none;stroke-width:0.7;stroke-linecap:round;stroke-linejoin:round;stroke-miterlimit:3;stroke:#000000;stroke-opacity:0.2" d="M22.2 13.25Q22.3 12.65 22.95 12.4" />
<path style="fill:none;stroke-width:0.7;stroke-linecap:round;stroke-linejoin:round;stroke-miterlimit:3;stroke:#000000;stroke-opacity:0.2" d="M21.3 12.5L21.15 11.75" />
<path style="fill:none;stroke-width:0.7;stroke-linecap:round;stroke-linejoin:round;stroke-miterlimit:3;stroke:#000000;stroke-opacity:0.2" d="M21.3 12.5Q21.6 14.8 21.15 15.75" />
<path style="fill:none;stroke-width:0.7;stroke-linecap:round;stroke-linejoin:round;stroke-miterlimit:3;stroke:#000000;stroke-opacity:0.2" d="M18.7 7.4L18.75 5.75Q18.7 3.9 18.35 3.2" />
<path style="fill:none;stroke-width:0.7;stroke-linecap:round;stroke-linejoin:round;stroke-miterlimit:3;stroke:#000000;stroke-opacity:0.2" d="M13.85 9.85L14.2 10.25L15 11.35L15.9 12.6L16.25 10.7L16.75 9.4L16.9 8.25" />
<path style="fill:none;stroke-width:0.7;stroke-linecap:round;stroke-linejoin:round;stroke-miterlimit:3;stroke:#000000;stroke-opacity:0.2" d="M14.5 7.2L14.85 9.8" />
<path style="fill:none;stroke-width:0.7;stroke-linecap:round;stroke-linejoin:round;stroke-miterlimit:3;stroke:#000000;stroke-opacity:0.2" d="M17.6 7.9L17.6 7.95L17.2 9.4L17.1 10Q17 11.05 17.15 11.9" />
<path style="fill:none;stroke-width:0.7;stroke-linecap:round;stroke-linejoin:round;stroke-miterlimit:3;stroke:#000000;stroke-opacity:0.2" d="M18.05 13.65Q17.9 12.15 18.35 10.1" />
<path style="fill:none;stroke-width:0.7;stroke-linecap:round;stroke-linejoin:round;stroke-miterlimit:3;stroke:#000000;stroke-opacity:0.2" d="M18.35 10.1L18.45 9.3" />
<path style="fill:none;stroke-width:0.7;stroke-linecap:round;stroke-linejoin:round;stroke-miterlimit:3;stroke:#000000;stroke-opacity:0.2" d="M20.1 10.4Q20 11 20.05 11.6" />
<path style="fill:none;stroke-width:0.7;stroke-linecap:round;stroke-linejoin:round;stroke-miterlimit:3;stroke:#000000;stroke-opacity:0.2" d="M18.45 16.4L16.6 14.65" />
<path style="fill:none;stroke-width:0.7;stroke-linecap:round;stroke-linejoin:round;stroke-miterlimit:3;stroke:#000000;stroke-opacity:0.2" d="M18.05 13.65Q18.25 15.6 20.15 16.7" />
<path style="fill:none;stroke-width:0.7;stroke-linecap:round;stroke-linejoin:round;stroke-miterlimit:3;stroke:#000000;stroke-opacity:0.2" d="M16.6 14.65Q16 13.7 15.9 12.6" />
<path style="fill:none;stroke-width:0.7;stroke-linecap:round;stroke-linejoin:round;stroke-miterlimit:3;stroke:#000000;stroke-opacity:0.2" d="M17.5 12.95L17.15 11.9" />
<path style="fill:none;stroke-width:0.7;stroke-linecap:round;stroke-linejoin:round;stroke-miterlimit:3;stroke:#000000;stroke-opacity:0.2" d="M20.05 11.6L20.25 13.15" />
</g>
</svg>
