<?xml version="1.0" encoding="utf-8"?>
<svg version="1.1" id="Layer_1"
xmlns="http://www.w3.org/2000/svg"
xmlns:xlink="http://www.w3.org/1999/xlink"
width="21px" height="13px"
xml:space="preserve">
<g id="PathID_3476" transform="matrix(1, 0, 0, 1, 7.95, 4.5)">
<path style="fill:none;stroke-width:0.7;stroke-linecap:round;stroke-linejoin:round;stroke-miterlimit:3;stroke:#000000;stroke-opacity:0.498039" d="M3.8 -0.65L2.45 0.45Q1.25 1.3 0.75 1.35Q-0.65 1.45 -1.85 0.65L-2 0.55L-2.75 -0.05Q-4.2 -1.5 -4.3 -3.8L-5.6 -2.8L-5.1 -1.6L-4.65 -0.3L-4.5 0.8L-4.45 1.85L-4.75 2.05L-7.8 0.9Q-7.7 2.35 -7.05 2.6L-6.4 2.95L-6.25 3.15L-5.9 4.25L-5 5.1L-3.5 5.8L-2.45 6.25L-1 6.75Q2.1 7.8 4.55 7.55Q6.1 7.4 7.4 6.45L9.25 5.2L10.4 4.1L12.35 1.6L12.5 1.25L12.8 0.2L12.8 -0.25L12.35 -1.4L11.6 -2.15L10.85 -2.7L9.75 -3.75Q9.2 -4.45 8.5 -4.3L7.6 -4Q7.15 -3.85 6 -2.8L4.3 -1.1L3.8 -0.65z" />
</g>
</svg>
