<?xml version="1.0" encoding="utf-8"?>
<svg version="1.1" id="Layer_1"
xmlns="http://www.w3.org/2000/svg"
xmlns:xlink="http://www.w3.org/1999/xlink"
width="25px" height="24px"
xml:space="preserve">
<g id="PathID_2924" transform="matrix(1, 0, 0, 1, 0.15, 0.15)">
<radialGradient
id="RadialGradID_915" gradientUnits="userSpaceOnUse" gradientTransform="matrix(0.0207977, 0.0112, -0.00854492, 0.0158691, 15.1, -0.55)" spreadMethod ="pad" cx="0" cy="0" r="819.2" fx="0" fy="0" >
<stop  offset="0.00392157"  style="stop-color:#C6C6C6;stop-opacity:1" />
<stop  offset="1"  style="stop-color:#808080;stop-opacity:1" />
</radialGradient>
<path style="fill:url(#RadialGradID_915) " d="M18.7 8.45L17.65 8.7L20.1 5.4L23.8 6.8L24.65 8.3L18.7 8.45M12.4 6.9L17.6 8.7Q15.2 9.25 13.95 10.5L13.9 10.55Q13 11.4 12.5 12.55L11.4 11.55L10.7 10.55L12.4 6.9M4.5 4.75L5.25 2L8.8 1.45L10.8 0Q14.2 0.4 16.9 1.45L12.4 2.05L9.75 3.05Q8.55 3.5 7.55 4.35Q6.55 5.2 6.5 5.4Q5.4 4.9 4.5 4.75" />
<path style="fill:#4F4943;fill-opacity:1" d="M10.3 13.45Q6.25 15.3 4.05 17.9L3.5 15.9L5.1 10.2L10 12L10.7 10.55L11.4 11.55L12.5 12.55L10.3 13.45M6.5 5.4L4.95 7.75Q3.55 9.75 3.45 10.95Q0.75 8.95 0 6.95L3.8 7.55L4.5 4.75Q5.4 4.9 6.5 5.4M8.55 20.3L7.1 19.6L8.65 18.75L8.55 20.3M6.75 23.1Q5.85 22.15 5.15 20.65L6 20.15L9.2 22.1L10.25 17.9L11.7 17.05L11.6 21.15L9.2 22.1L6.75 23.1" />
<path style="fill:none;stroke-width:0.7;stroke-linecap:round;stroke-linejoin:round;stroke-miterlimit:3;stroke:#000000;stroke-opacity:0.4" d="M24.65 8.3L23.8 6.8" />
<path style="fill:none;stroke-width:0.7;stroke-linecap:round;stroke-linejoin:round;stroke-miterlimit:3;stroke:#000000;stroke-opacity:0.4" d="M3.45 10.95Q0.75 8.95 0 6.95" />
<path style="fill:none;stroke-width:0.7;stroke-linecap:round;stroke-linejoin:round;stroke-miterlimit:3;stroke:#000000;stroke-opacity:0.4" d="M10.8 0Q14.2 0.4 16.9 1.45" />
</g>
</svg>
