<?xml version="1.0" encoding="utf-8"?>
<svg version="1.1" id="Layer_1"
xmlns="http://www.w3.org/2000/svg"
xmlns:xlink="http://www.w3.org/1999/xlink"
width="23px" height="22px"
xml:space="preserve">
<g id="PathID_653" transform="matrix(1, 0, 0, 1, 9.25, 11)">
<path style="fill:#C0DBBC;fill-opacity:1" d="M8.15 -5.2L7.1 -4.85L7.1 -6.3L8.15 -6.65L8.15 -5.2" />
<path style="fill:#7FDB6E;fill-opacity:1" d="M9.25 -5.6L8.15 -5.2L8.15 -6.65L9.25 -7.05L9.25 -5.6" />
<path style="fill:#97CF8E;fill-opacity:1" d="M11.35 -6.4L11.35 -7.85L12.45 -8.2L12.45 -6.75L11.35 -6.4M2.75 -3.3L2.75 -4.75L3.9 -5.15L3.9 -3.75L2.75 -3.3" />
<path style="fill:#288E20;fill-opacity:1" d="M11.35 -4.9L11.35 -6.4L12.45 -6.75L12.45 -5.25L11.35 -4.9M2.75 -3.3L3.9 -3.75L3.9 -2.2L2.75 -1.8L2.75 -3.3" />
<path style="fill:#1B9E14;fill-opacity:1" d="M1.75 -2.95L1.75 -4.4L2.75 -4.75L2.75 -3.3L1.75 -2.95M3.9 -5.15L4.95 -5.55L4.95 -4.1L3.9 -3.75L3.9 -5.15" />
<path style="fill:#5DC054;fill-opacity:1" d="M2.75 -1.8L1.75 -1.45L1.75 -2.95L2.75 -3.3L2.75 -1.8M4.95 -2.6L3.9 -2.2L3.9 -3.75L4.95 -4.1L4.95 -2.6" />
<path style="fill:#4AAE3E;fill-opacity:1" d="M6 -4.45L4.95 -4.1L4.95 -5.55L6 -5.9L6 -4.45" />
<path style="fill:#8BD580;fill-opacity:1" d="M2.75 -1.8L2.75 -0.4L1.75 -0.05L1.75 -1.45L2.75 -1.8M7.1 -3.3L7.1 -1.95L6 -1.55L6 -2.95L7.1 -3.3" />
<path style="fill:#46B938;fill-opacity:1" d="M11.35 -3.5L11.35 -4.9L12.45 -5.25L12.45 -3.85L11.35 -3.5M2.75 -0.4L2.75 -1.8L3.9 -2.2L3.9 -0.8L2.75 -0.4" />
<path style="fill:#4FC440;fill-opacity:1" d="M11.35 -2L11.35 -3.5L12.45 -3.85L12.45 -2.4L11.35 -2M2.75 -0.4L3.9 -0.8L3.9 0.65L2.75 1.05L2.75 -0.4" />
<path style="fill:#000000;fill-opacity:1" d="M6 -2.95L6 -1.55L6 -0.1L7.1 -0.45L4.95 0.3L3.9 0.65L3.9 -0.8L3.9 -2.2L4.95 -2.6L6 -2.95M10.3 -4.45L10.3 -3.1L10.3 -1.6L9.25 -1.25L8.15 -0.8L8.15 0.75L8.15 -2.3L8.15 -3.7L9.25 -4.1L10.3 -4.45M7.1 -0.45L8.15 -0.8M8.15 0.75L9.25 0.35L9.25 1.75L9.25 3.2L9.25 4.7L8.15 5.1L8.15 3.6L7.1 4L6 4.35L6 5.85L4.95 6.25L4.95 4.7L4.95 3.3L4.95 1.85L6 1.45L6 -0.1" />
<path style="fill:#44AE32;fill-opacity:1" d="M6 -2.95L4.95 -2.6L4.95 -4.1L6 -4.45L6 -2.95" />
<path style="fill:#63C753;fill-opacity:1" d="M2.75 1.05L1.75 1.45L1.75 -0.05L2.75 -0.4L2.75 1.05" />
<path style="fill:#6ED65D;fill-opacity:1" d="M9.25 -4.1L8.15 -3.7L8.15 -5.2L9.25 -5.6L9.25 -4.1" />
<path style="fill:#5CB84D;fill-opacity:1" d="M10.3 -4.45L9.25 -4.1L9.25 -5.6L10.3 -6L10.3 -4.45" />
<path style="fill:#46913E;fill-opacity:1" d="M10.3 -6L10.3 -7.45L11.35 -7.85L11.35 -6.4L10.3 -6M7.1 -3.3L7.1 -4.85L8.15 -5.2L8.15 -3.7L7.1 -3.3" />
<path style="fill:#90CA8D;fill-opacity:1" d="M6 -4.45L6 -5.9L7.1 -6.3L7.1 -4.85L6 -4.45" />
<path style="fill:#6BC65F;fill-opacity:1" d="M6 -4.45L7.1 -4.85L7.1 -3.3L6 -2.95L6 -4.45" />
<path style="fill:#64C753;fill-opacity:1" d="M7.1 -1.95L7.1 -0.45L6 -0.1L6 -1.55L7.1 -1.95" />
<path style="fill:#45AE37;fill-opacity:1" d="M7.1 -0.45L7.1 -1.95L8.15 -2.3L8.15 -0.8L7.1 -0.45" />
<path style="fill:#B2D7AB;fill-opacity:1" d="M9.25 0.35L8.15 0.75L8.15 -0.8L9.25 -1.25L9.25 0.35" />
<path style="fill:#4D9A48;fill-opacity:1" d="M7.1 -1.95L7.1 -3.3L8.15 -3.7L8.15 -2.3L7.1 -1.95" />
<path style="fill:#74CB63;fill-opacity:1" d="M10.3 -6L9.25 -5.6L9.25 -7.05L10.3 -7.45L10.3 -6" />
<path style="fill:#C8E3C2;fill-opacity:1" d="M11.35 -4.9L11.35 -3.5L10.3 -3.1L10.3 -4.45L11.35 -4.9" />
<path style="fill:#BFDCBD;fill-opacity:1" d="M11.35 -6.4L11.35 -4.9L10.3 -4.45L10.3 -6L11.35 -6.4" />
<path style="fill:#73CA62;fill-opacity:1" d="M11.35 -3.5L11.35 -2L10.3 -1.6L10.3 -3.1L11.35 -3.5" />
<path style="fill:#84D078;fill-opacity:1" d="M11.35 -0.45L11.35 -2L12.45 -2.4L12.45 -0.8L11.35 -0.45M2.75 1.05L3.9 0.65L3.9 2.2L2.75 2.6L2.75 1.05" />
<path style="fill:#96D18F;fill-opacity:1" d="M11.35 -0.45L12.45 -0.8L12.45 0.6L11.35 1L11.35 -0.45" />
<path style="fill:#5BCB4B;fill-opacity:1" d="M8.15 6.6L8.15 5.1L9.25 4.7L9.25 6.2L8.15 6.6M11.35 -0.45L10.3 -0.05L10.3 -1.6L11.35 -2L11.35 -0.45" />
<path style="fill:#418C3A;fill-opacity:1" d="M10.3 -0.05L9.25 0.35L9.25 -1.25L10.3 -1.6L10.3 -0.05" />
<path style="fill:#ACD8A5;fill-opacity:1" d="M11.35 1L10.3 1.4L10.3 -0.05L11.35 -0.45L11.35 1" />
<path style="fill:#4B9943;fill-opacity:1" d="M10.3 2.85L10.3 1.4L11.35 1L11.35 2.4L10.3 2.85" />
<path style="fill:#B4E6A9;fill-opacity:1" d="M11.35 2.4L11.35 1L12.45 0.6L12.45 2.05L11.35 2.4M3.9 5.1L2.75 5.5L2.75 4.05L3.9 3.65L3.9 5.1" />
<path style="fill:#65C854;fill-opacity:1" d="M10.3 2.85L11.35 2.4L11.35 3.95L10.3 4.35L10.3 2.85" />
<path style="fill:#5CB94E;fill-opacity:1" d="M10.3 1.4L10.3 2.85L9.25 3.2L9.25 1.75L10.3 1.4" />
<path style="fill:#64CE52;fill-opacity:1" d="M11.35 3.95L11.35 2.4L12.45 2.05L12.45 3.55L11.35 3.95M9.25 1.75L9.25 0.35L10.3 -0.05L10.3 1.4L9.25 1.75M3.9 6.6L2.75 7L2.75 5.5L3.9 5.1L3.9 6.6" />
<path style="fill:#59B14B;fill-opacity:1" d="M11.35 5.4L11.35 3.95L12.45 3.55L12.45 5.05L11.35 5.4" />
<path style="fill:#5FBD4F;fill-opacity:1" d="M11.35 5.4L12.45 5.05L12.45 6.5L11.35 6.85L11.35 5.4M2.75 8.5L3.9 8.1L3.9 9.5L2.75 9.9L2.75 8.5" />
<path style="fill:#7DD074;fill-opacity:1" d="M10.3 4.35L11.35 3.95L11.35 5.4L10.3 5.8L10.3 4.35" />
<path style="fill:#4EC33F;fill-opacity:1" d="M9.25 6.2L9.25 4.7L10.3 4.35L10.3 5.8L9.25 6.2" />
<path style="fill:#9ADD90;fill-opacity:1" d="M10.3 5.8L11.35 5.4L11.35 6.85L10.3 7.25L10.3 5.8" />
<path style="fill:#338A2B;fill-opacity:1" d="M10.3 2.85L10.3 4.35L9.25 4.7L9.25 3.2L10.3 2.85" />
<path style="fill:#42AE34;fill-opacity:1" d="M9.25 6.2L10.3 5.8L10.3 7.25L9.25 7.65L9.25 6.2" />
<path style="fill:#A1D499;fill-opacity:1" d="M7.1 5.5L7.1 4L8.15 3.6L8.15 5.1L7.1 5.5" />
<path style="fill:#8AD27C;fill-opacity:1" d="M7.1 5.5L6 5.85L6 4.35L7.1 4L7.1 5.5" />
<path style="fill:#0E9908;fill-opacity:1" d="M6 7.35L6 5.85L7.1 5.5L7.1 6.95L7.1 8.4L6 8.75L6 7.35" />
<path style="fill:#3EAE32;fill-opacity:1" d="M7.1 6.95L7.1 5.5L8.15 5.1L8.15 6.6L7.1 6.95" />
<path style="fill:#96D18D;fill-opacity:1" d="M3.9 3.65L2.75 4.05L2.75 2.6L3.9 2.2L3.9 3.65" />
<path style="fill:#5EB250;fill-opacity:1" d="M2.75 1.05L2.75 2.6L1.75 3L1.75 1.45L2.75 1.05M4.95 1.85L3.9 2.2L3.9 0.65L4.95 0.3L4.95 1.85" />
<path style="fill:#8AD381;fill-opacity:1" d="M4.95 0.3L6 -0.1L6 1.45L4.95 1.85L4.95 0.3" />
<path style="fill:#489341;fill-opacity:1" d="M3.9 3.65L3.9 2.2L4.95 1.85L4.95 3.3L3.9 3.65" />
<path style="fill:#5EA259;fill-opacity:1" d="M2.75 4.05L2.75 5.5L1.75 5.85L1.75 4.45L2.75 4.05M3.9 3.65L4.95 3.3L4.95 4.7L3.9 5.1L3.9 3.65" />
<path style="fill:#7DDB6D;fill-opacity:1" d="M2.75 5.5L2.75 7L1.75 7.4L1.75 5.85L2.75 5.5M3.9 6.6L3.9 5.1L4.95 4.7L4.95 6.25L3.9 6.6" />
<path style="fill:#479240;fill-opacity:1" d="M2.75 2.6L2.75 4.05L1.75 4.45L1.75 3L2.75 2.6" />
<path style="fill:#ABE2A1;fill-opacity:1" d="M2.75 7L2.75 8.5L1.75 8.85L1.75 7.4L2.75 7" />
<path style="fill:#5AB148;fill-opacity:1" d="M3.9 8.1L2.75 8.5L2.75 7L3.9 6.6L3.9 8.1" />
<path style="fill:#8ED785;fill-opacity:1" d="M3.9 8.1L4.95 7.7L4.95 9.15L3.9 9.5L3.9 8.1M2.75 8.5L2.75 9.9L1.75 10.3L1.75 8.85L2.75 8.5" />
<path style="fill:#3B9035;fill-opacity:1" d="M6 7.35L6 8.75L4.95 9.15L4.95 7.7L6 7.35" />
<path style="fill:#ACE3A2;fill-opacity:1" d="M3.9 6.6L4.95 6.25L4.95 7.7L3.9 8.1L3.9 6.6" />
<path style="fill:#68C658;fill-opacity:1" d="M4.95 7.7L4.95 6.25L6 5.85L6 7.35L4.95 7.7" />
<path style="fill:#5EC34D;fill-opacity:1" d="M8.15 6.6L9.25 6.2L9.25 7.65L8.15 8.05L8.15 6.6" />
<path style="fill:#1B9F16;fill-opacity:1" d="M8.15 6.6L8.15 8.05L7.1 8.4L7.1 6.95L8.15 6.6" />
</g>
<g id="PathID_654" transform="matrix(1, 0, 0, 1, 9.25, 11)">
<path style="fill:#5DC054;fill-opacity:1" d="M0.85 -3.35L1.85 -2.95L1.85 -1.45L0.85 -1.8L0.85 -3.35M-1.35 -2.55L-1.35 -4.1L-0.3 -3.7L-0.3 -2.2L-1.35 -2.55" />
<path style="fill:#288E20;fill-opacity:1" d="M-7.8 -4.85L-8.9 -5.2L-8.9 -6.8L-7.8 -6.35L-7.8 -4.85M-0.3 -2.2L-0.3 -3.7L0.85 -3.35L0.85 -1.8L-0.3 -2.2" />
<path style="fill:#8BD580;fill-opacity:1" d="M0.85 -0.4L0.85 -1.8L1.85 -1.45L1.85 0L0.85 -0.4M-3.55 -3.35L-2.45 -2.95L-2.45 -1.55L-3.55 -1.9L-3.55 -3.35" />
<path style="fill:#46B938;fill-opacity:1" d="M-7.8 -4.85L-7.8 -3.45L-8.9 -3.85L-8.9 -5.2L-7.8 -4.85M-1.35 0.25L-2.45 -0.05L-2.45 -1.55L-0.3 -0.8L-0.3 -2.2L0.85 -1.8L0.85 -0.4L-0.3 -0.8L-0.3 0.65L-1.35 0.25" />
<path style="fill:#1B9E14;fill-opacity:1" d="M0.85 -3.35L0.85 -4.75L1.85 -4.35L1.85 -2.95L0.85 -3.35M-0.3 -3.7L-1.35 -4.1L-1.35 -5.55L-0.3 -5.15L-0.3 -3.7" />
<path style="fill:#97CF8E;fill-opacity:1" d="M-0.3 -5.15L0.85 -4.75L0.85 -3.35L-0.3 -3.7L-0.3 -5.15M-8.9 -6.8L-8.9 -8.2L-7.8 -7.85L-7.8 -6.35L-8.9 -6.8" />
<path style="fill:#63C753;fill-opacity:1" d="M0.85 -0.4L1.85 0L1.85 1.45L0.85 1.05L0.85 -0.4M-0.3 -2.2L-0.3 -0.8L-2.45 -1.55L-2.45 -2.95L-1.35 -2.55L-0.3 -2.2" />
<path style="fill:#5EB250;fill-opacity:1" d="M0.85 2.65L0.85 1.05L1.85 1.45L1.85 3L0.85 2.65M-1.35 0.25L-0.3 0.65L-0.3 2.25L-1.35 1.85L-1.35 0.25" />
<path style="fill:#479240;fill-opacity:1" d="M0.85 2.65L1.85 3L1.85 4.45L0.85 4.05L0.85 2.65" />
<path style="fill:#84D078;fill-opacity:1" d="M-7.8 -2L-7.8 -0.45L-8.9 -0.8L-8.9 -2.35L-7.8 -2M-0.3 0.65L0.85 1.05L0.85 2.65L-0.3 2.25L-0.3 0.65" />
<path style="fill:#5EA259;fill-opacity:1" d="M0.85 5.5L0.85 4.05L1.85 4.45L1.85 5.9L0.85 5.5M-1.35 4.7L-1.35 3.3L-0.3 3.65L-0.3 5.1L-1.35 4.7" />
<path style="fill:#7DDB6D;fill-opacity:1" d="M0.85 7.05L0.85 5.5L1.85 5.9L1.85 7.4L0.85 7.05M-1.35 4.7L-0.3 5.1L-0.3 6.6L-1.35 6.3L-1.35 4.7" />
<path style="fill:#B4E6A9;fill-opacity:1" d="M-7.8 1L-7.8 2.45L-8.9 2.05L-8.9 0.6L-7.8 1M-0.3 5.1L-0.3 3.65L0.85 4.05L0.85 5.5L-0.3 5.1M-5.65 1.8L-5.65 0.3L-4.55 0.75L-4.55 3.65L-5.65 3.15L-5.65 1.8" />
<path style="fill:#96D18D;fill-opacity:1" d="M-0.3 2.25L0.85 2.65L0.85 4.05L-0.3 3.65L-0.3 2.25" />
<path style="fill:#ABE2A1;fill-opacity:1" d="M0.85 8.5L0.85 7.05L1.85 7.4L1.85 8.9L0.85 8.5" />
<path style="fill:#5AB148;fill-opacity:1" d="M-0.3 6.6L0.85 7.05L0.85 8.5L-0.3 8.05L-0.3 6.6" />
<path style="fill:#8ED785;fill-opacity:1" d="M0.85 8.5L1.85 8.9L1.85 10.3L0.85 9.95L0.85 8.5M-1.35 7.7L-0.3 8.05L-0.3 9.55L-1.35 9.15L-1.35 7.7" />
<path style="fill:#5FBD4F;fill-opacity:1" d="M-0.3 8.05L0.85 8.5L0.85 9.95L-0.3 9.55L-0.3 8.05M-7.8 6.85L-8.9 6.45L-8.9 5.1L-7.8 5.4L-7.8 6.85" />
<path style="fill:#64CE52;fill-opacity:1" d="M-7.8 3.95L-8.9 3.6L-8.9 2.05L-7.8 2.45L-7.8 3.95M-0.3 6.6L-0.3 5.1L0.85 5.5L0.85 7.05L-0.3 6.6M-6.75 1.4L-6.75 0L-5.65 0.3L-5.65 1.8L-6.75 1.4" />
<path style="fill:#4FC440;fill-opacity:1" d="M-8.9 -2.35L-8.9 -3.85L-7.8 -3.45L-7.8 -2L-8.9 -2.35M-0.3 0.65L-0.3 -0.8L0.85 -0.4L0.85 1.05L-0.3 0.65M-4.55 -3.65L-4.55 -2.3L-4.55 -0.8L-5.65 -1.2L-6.75 -1.6L-6.75 -3.1L-6.75 -4.45L-5.65 -4.1L-4.55 -3.65" />
<path style="fill:#C0DBBC;fill-opacity:1" d="M-3.55 -4.8L-4.55 -5.2L-4.55 -6.65L-3.55 -6.25L-3.55 -4.8" />
<path style="fill:#74CB63;fill-opacity:1" d="M-5.65 -5.6L-6.75 -6L-6.75 -7.4L-5.65 -7.05L-5.65 -5.6" />
<path style="fill:#46913E;fill-opacity:1" d="M-6.75 -6L-7.8 -6.35L-7.8 -7.85L-6.75 -7.4L-6.75 -6M-4.55 -3.65L-4.55 -5.2L-3.55 -4.8L-3.55 -3.35L-4.55 -3.65" />
<path style="fill:#5CB84D;fill-opacity:1" d="M-6.75 -6L-5.65 -5.6L-5.65 -4.1L-6.75 -4.45L-6.75 -6" />
<path style="fill:#BFDCBD;fill-opacity:1" d="M-7.8 -6.35L-6.75 -6L-6.75 -4.45L-7.8 -4.85L-7.8 -6.35" />
<path style="fill:#6ED65D;fill-opacity:1" d="M-4.55 -5.2L-4.55 -3.65L-5.65 -4.1L-5.65 -5.6L-4.55 -5.2" />
<path style="fill:#C8E3C2;fill-opacity:1" d="M-6.75 -3.1L-7.8 -3.45L-7.8 -4.85L-6.75 -4.45L-6.75 -3.1" />
<path style="fill:#96D18F;fill-opacity:1" d="M-7.8 1L-8.9 0.6L-8.9 -0.8L-7.8 -0.45L-7.8 1" />
<path style="fill:#5BCB4B;fill-opacity:1" d="M-6.75 0L-7.8 -0.45L-7.8 -2L-6.75 -1.6L-6.75 0M-4.55 6.6L-5.65 6.25L-5.65 4.7L-5.65 3.2L-5.65 3.15L-4.55 3.65L-4.55 0.75L-4.55 -0.8L-3.55 -0.45L-2.45 -0.05L-2.45 1.5L-2.45 4.35L-3.55 4L-4.55 3.65L-4.55 5.15L-4.55 6.6" />
<path style="fill:#418C3A;fill-opacity:1" d="M-5.65 0.3L-6.75 0L-6.75 -1.6L-5.65 -1.2L-5.65 0.3" />
<path style="fill:#73CA62;fill-opacity:1" d="M-6.75 -1.6L-7.8 -2L-7.8 -3.45L-6.75 -3.1L-6.75 -1.6" />
<path style="fill:#44AE32;fill-opacity:1" d="M-1.35 -2.55L-2.45 -2.95L-2.45 -4.45L-1.35 -4.1L-1.35 -2.55" />
<path style="fill:#4AAE3E;fill-opacity:1" d="M-1.35 -4.1L-2.45 -4.45L-2.45 -5.9L-1.35 -5.55L-1.35 -4.1M-1.35 6.3L-2.45 5.9L-2.45 4.35L-2.45 1.5L-1.35 1.85L-1.35 3.3L-1.35 4.7L-1.35 6.3" />
<path style="fill:#90CA8D;fill-opacity:1" d="M-3.55 -6.25L-2.45 -5.9L-2.45 -4.45L-3.55 -4.8L-3.55 -6.25" />
<path style="fill:#4D9A48;fill-opacity:1" d="M-3.55 -1.9L-4.55 -2.3L-4.55 -3.65L-3.55 -3.35L-3.55 -1.9" />
<path style="fill:#6BC65F;fill-opacity:1" d="M-3.55 -3.35L-3.55 -4.8L-2.45 -4.45L-2.45 -2.95L-3.55 -3.35" />
<path style="fill:#45AE37;fill-opacity:1" d="M-3.55 -1.9L-3.55 -0.45L-4.55 -0.8L-4.55 -2.3L-3.55 -1.9" />
<path style="fill:#64C753;fill-opacity:1" d="M-2.45 -1.55L-2.45 -0.05L-3.55 -0.45L-3.55 -1.9L-2.45 -1.55" />
<path style="fill:#7FDB6E;fill-opacity:1" d="M-4.55 -5.2L-5.65 -5.6L-5.65 -7.05L-4.55 -6.65L-4.55 -5.2" />
<path style="fill:#B2D7AB;fill-opacity:1" d="M-4.55 0.75L-5.65 0.3L-5.65 -1.2L-4.55 -0.8L-4.55 0.75" />
<path style="fill:#489341;fill-opacity:1" d="M-1.35 1.85L-0.3 2.25L-0.3 3.65L-1.35 3.3L-1.35 1.85" />
<path style="fill:#8AD381;fill-opacity:1" d="M-2.45 -0.05L-1.35 0.25L-1.35 1.85L-2.45 1.5L-2.45 -0.05" />
<path style="fill:#3EAE32;fill-opacity:1" d="M-4.55 6.6L-4.55 5.15L-3.55 5.5L-3.55 7L-4.55 6.6" />
<path style="fill:#A1D499;fill-opacity:1" d="M-4.55 5.15L-4.55 3.65L-3.55 4L-3.55 5.5L-4.55 5.15" />
<path style="fill:#8AD27C;fill-opacity:1" d="M-2.45 4.35L-2.45 5.9L-3.55 5.5L-3.55 4L-2.45 4.35" />
<path style="fill:#0E9908;fill-opacity:1" d="M-3.55 7L-3.55 5.5L-2.45 5.9L-2.45 7.35L-2.45 8.8L-3.55 8.4L-3.55 7" />
<path style="fill:#ACD8A5;fill-opacity:1" d="M-7.8 -0.45L-6.75 0L-6.75 1.4L-7.8 1L-7.8 -0.45" />
<path style="fill:#5CB94E;fill-opacity:1" d="M-6.75 2.8L-6.75 1.4L-5.65 1.8L-5.65 3.15L-5.65 3.2L-6.75 2.8" />
<path style="fill:#4B9943;fill-opacity:1" d="M-7.8 2.45L-7.8 1L-6.75 1.4L-6.75 2.8L-7.8 2.45" />
<path style="fill:#59B14B;fill-opacity:1" d="M-7.8 3.95L-7.8 5.4L-8.9 5.1L-8.9 3.6L-7.8 3.95" />
<path style="fill:#7DD074;fill-opacity:1" d="M-6.75 4.35L-6.75 5.85L-7.8 5.4L-7.8 3.95L-6.75 4.35" />
<path style="fill:#338A2B;fill-opacity:1" d="M-6.75 2.8L-5.65 3.2L-5.65 4.7L-6.75 4.35L-6.75 2.8" />
<path style="fill:#4EC33F;fill-opacity:1" d="M-6.75 5.85L-6.75 4.35L-5.65 4.7L-5.65 6.25L-6.75 5.85" />
<path style="fill:#65C854;fill-opacity:1" d="M-6.75 4.35L-7.8 3.95L-7.8 2.45L-6.75 2.8L-6.75 4.35" />
<path style="fill:#9ADD90;fill-opacity:1" d="M-7.8 5.4L-6.75 5.85L-6.75 7.25L-7.8 6.85L-7.8 5.4" />
<path style="fill:#42AE34;fill-opacity:1" d="M-6.75 5.85L-5.65 6.25L-5.65 7.65L-6.75 7.25L-6.75 5.85" />
<path style="fill:#5EC34D;fill-opacity:1" d="M-5.65 6.25L-4.55 6.6L-4.55 8.05L-5.65 7.65L-5.65 6.25" />
<path style="fill:#ACE3A2;fill-opacity:1" d="M-1.35 6.3L-0.3 6.6L-0.3 8.05L-1.35 7.7L-1.35 6.3" />
<path style="fill:#68C658;fill-opacity:1" d="M-2.45 5.9L-1.35 6.3L-1.35 7.7L-2.45 7.35L-2.45 5.9" />
<path style="fill:#3B9035;fill-opacity:1" d="M-2.45 7.35L-1.35 7.7L-1.35 9.15L-2.45 8.8L-2.45 7.35" />
<path style="fill:#1B9F16;fill-opacity:1" d="M-4.55 6.6L-3.55 7L-3.55 8.4L-4.55 8.05L-4.55 6.6" />
</g>
<g id="PathID_655" transform="matrix(1, 0, 0, 1, 9.25, 11)">
<path style="fill:#C0DBBC;fill-opacity:1" d="M4.8 -9.55L5.65 -9.8L6.75 -9.55L5.75 -9.35L4.8 -9.55" />
<path style="fill:#90CA8D;fill-opacity:1" d="M7.85 -9.35L6.9 -8.95L5.75 -9.35L6.75 -9.55L7.85 -9.35" />
<path style="fill:#84D078;fill-opacity:1" d="M6.4 -6.75L5 -7.1L6.25 -7.5L7.5 -7.1L6.4 -6.75M-2.2 -9.2L-3.1 -9.45L-2 -9.7L-1.15 -9.45L-2.2 -9.2" />
<path style="fill:#5EB250;fill-opacity:1" d="M5 -7.1L3.9 -7.4L5.05 -7.8L6.25 -7.5L5 -7.1M7.5 -6.35L6.4 -6.75L7.5 -7.1L8.75 -6.85L7.5 -6.35" />
<path style="fill:#4FC440;fill-opacity:1" d="M8.6 -7.55L7.5 -7.1L6.25 -7.5L7.25 -7.8L8.6 -7.55M-0.05 -9.65L-1.15 -9.45L-2 -9.7L-1.05 -9.9L-0.05 -9.65" />
<path style="fill:#44AE32;fill-opacity:1" d="M5.85 -8.8L6.9 -8.95L8.1 -8.75L7.2 -8.4L5.85 -8.8" />
<path style="fill:#6BC65F;fill-opacity:1" d="M5.85 -8.8L4.7 -9L5.75 -9.35L6.9 -8.95L5.85 -8.8" />
<path style="fill:#479240;fill-opacity:1" d="M7.5 -6.35L6.35 -6L5.2 -6.45L6.4 -6.75L7.5 -6.35" />
<path style="fill:#96D18D;fill-opacity:1" d="M4 -6.75L5 -7.1L6.4 -6.75L5.2 -6.45L4 -6.75" />
<path style="fill:#5DC054;fill-opacity:1" d="M5.05 -7.8L3.9 -8.05L4.9 -8.4L5.85 -8.8L7.2 -8.4L8.1 -8.75L9.3 -8.45L8.25 -8.15L7.25 -7.8L6.25 -7.5L5.05 -7.8M9.6 -7.8L10.55 -8.2L11.8 -7.85L10.7 -7.55L9.6 -7.8" />
<path style="fill:#4AAE3E;fill-opacity:1" d="M9.05 -9L8.1 -8.75L6.9 -8.95L7.85 -9.35L9.05 -9" />
<path style="fill:#1B9E14;fill-opacity:1" d="M10.25 -8.8L9.3 -8.45L8.1 -8.75L9.05 -9L10.25 -8.8M10.55 -8.2L11.5 -8.5L12.75 -8.25L11.8 -7.85L10.55 -8.2" />
<path style="fill:#63C753;fill-opacity:1" d="M9.85 -7.15L8.75 -6.85L7.5 -7.1L8.6 -7.55L9.85 -7.15" />
<path style="fill:#8BD580;fill-opacity:1" d="M3.85 -8.7L4.7 -9L5.85 -8.8L4.9 -8.4L3.85 -8.7M10.7 -7.55L9.85 -7.15L8.6 -7.55L9.6 -7.8L10.7 -7.55" />
<path style="fill:#46B938;fill-opacity:1" d="M9.6 -7.8L8.6 -7.55L7.25 -7.8L8.25 -8.15L9.6 -7.8M-1.05 -9.9L-0.05 -10.2L0.9 -9.9L-0.05 -9.65L-1.05 -9.9" />
<path style="fill:#288E20;fill-opacity:1" d="M9.6 -7.8L8.25 -8.15L9.3 -8.45L10.55 -8.2L9.6 -7.8M-0.05 -10.2L0.85 -10.45L1.8 -10.2L0.9 -9.9L-0.05 -10.2" />
<path style="fill:#5CB84D;fill-opacity:1" d="M2.8 -9.5L1.7 -9.75L2.7 -9.95L3.75 -9.7L2.8 -9.5" />
<path style="fill:#74CB63;fill-opacity:1" d="M3.65 -10.25L4.7 -10.05L3.75 -9.7L2.7 -9.95L3.65 -10.25" />
<path style="fill:#6ED65D;fill-opacity:1" d="M3.75 -9.25L2.8 -9.5L3.75 -9.7L4.8 -9.55L3.75 -9.25" />
<path style="fill:#46913E;fill-opacity:1" d="M3.75 -9.25L4.8 -9.55L5.75 -9.35L4.7 -9L3.75 -9.25M2.75 -10.5L3.65 -10.25L2.7 -9.95L1.8 -10.2L2.75 -10.5" />
<path style="fill:#7FDB6E;fill-opacity:1" d="M3.75 -9.7L4.7 -10.05L5.65 -9.8L4.8 -9.55L3.75 -9.7" />
<path style="fill:#BFDCBD;fill-opacity:1" d="M0.9 -9.9L1.8 -10.2L2.7 -9.95L1.7 -9.75L0.9 -9.9" />
<path style="fill:#97CF8E;fill-opacity:1" d="M2.75 -10.5L1.8 -10.2L0.85 -10.45L1.8 -10.65L2.75 -10.5M9.3 -8.45L10.25 -8.8L11.5 -8.5L10.55 -8.2L9.3 -8.45" />
<path style="fill:#C8E3C2;fill-opacity:1" d="M-0.05 -9.65L0.9 -9.9L1.7 -9.75L0.8 -9.45L-0.05 -9.65" />
<path style="fill:#64CE52;fill-opacity:1" d="M3.75 -9.25L2.8 -8.95L1.7 -8.7L0.75 -8.95L-0.2 -9.2L0.8 -9.45L1.7 -9.75L2.8 -9.5L3.75 -9.25M4.2 -6.05L2.9 -5.65L1.6 -6.05L2.9 -6.45L4.2 -6.05M-2.4 -8.65L-1.4 -8.85L-0.35 -8.7L-1.5 -8.3L-2.4 -8.65M-5.6 -8.3L-6.4 -8.6L-5.25 -8.85L-4.35 -8.65L-5.6 -8.3" />
<path style="fill:#B2D7AB;fill-opacity:1" d="M0.75 -8.95L1.7 -8.7L0.55 -8.35L-0.35 -8.7L0.75 -8.95" />
<path style="fill:#3B9035;fill-opacity:1" d="M-0.75 -6.75L0.5 -7.2L-0.6 -7.45L-1.65 -7.8L-2.75 -7.35L-3.75 -7.75L-2.6 -7.9L-1.5 -8.3L-0.35 -8.7L0.55 -8.35L1.7 -8.7L2.75 -8.4L3.9 -8.05L2.7 -7.8L3.9 -7.4L2.75 -7.15L1.6 -6.8L0.5 -6.4L-0.75 -6.75M-2 -6.4L-0.8 -6.05L-2 -5.65L-3.25 -6L-2 -6.4" />
<path style="fill:#7DDB6D;fill-opacity:1" d="M4.05 -5.2L2.9 -5.65L4.2 -6.05L5.2 -5.65L4.05 -5.2M2.9 -6.45L1.6 -6.05L0.5 -6.4L1.6 -6.8L2.9 -6.45" />
<path style="fill:#8AD381;fill-opacity:1" d="M3.9 -7.4L2.7 -7.8L3.9 -8.05L5.05 -7.8L3.9 -7.4" />
<path style="fill:#64C753;fill-opacity:1" d="M3.85 -8.7L4.9 -8.4L3.9 -8.05L2.75 -8.4L3.85 -8.7" />
<path style="fill:#4D9A48;fill-opacity:1" d="M2.8 -8.95L3.75 -9.25L4.7 -9L3.85 -8.7L2.8 -8.95" />
<path style="fill:#489341;fill-opacity:1" d="M2.75 -7.15L3.9 -7.4L5 -7.1L4 -6.75L2.75 -7.15" />
<path style="fill:#B4E6A9;fill-opacity:1" d="M4 -6.75L5.2 -6.45L4.2 -6.05L2.9 -6.45L4 -6.75M-4.35 -8.65L-5.25 -8.85L-4.2 -9.15L-3.35 -8.85L-4.35 -8.65" />
<path style="fill:#5EA259;fill-opacity:1" d="M5.2 -5.65L4.2 -6.05L5.2 -6.45L6.35 -6L5.2 -5.65M4 -6.75L2.9 -6.45L1.6 -6.8L2.75 -7.15L4 -6.75" />
<path style="fill:#45AE37;fill-opacity:1" d="M3.85 -8.7L2.75 -8.4L1.7 -8.7L2.8 -8.95L3.85 -8.7" />
<path style="fill:#ABE2A1;fill-opacity:1" d="M2.75 -4.8L1.6 -5.2L2.9 -5.65L4.05 -5.2L2.75 -4.8" />
<path style="fill:#5AB148;fill-opacity:1" d="M0.4 -5.65L1.6 -6.05L2.9 -5.65L1.6 -5.2L0.4 -5.65" />
<path style="fill:#ACE3A2;fill-opacity:1" d="M0.4 -5.65L-0.8 -6.05L0.5 -6.4L1.6 -6.05L0.4 -5.65" />
<path style="fill:#5FBD4F;fill-opacity:1" d="M-1 -5.2L0.4 -5.65L1.6 -5.2L0.3 -4.75L-1 -5.2M-6.75 -7.9L-7.95 -7.75L-8.75 -7.95L-7.6 -8.4L-6.75 -7.9" />
<path style="fill:#8ED785;fill-opacity:1" d="M-1 -5.2L-2 -5.65L-0.8 -6.05L0.4 -5.65L-1 -5.2M1.45 -4.3L0.3 -4.75L1.6 -5.2L2.75 -4.8L1.45 -4.3" />
<path style="fill:#73CA62;fill-opacity:1" d="M-1.15 -9.45L-0.05 -9.65L0.8 -9.45L-0.2 -9.2L-1.15 -9.45" />
<path style="fill:#5CB94E;fill-opacity:1" d="M-1.5 -8.3L-2.6 -7.9L-3.6 -8.35L-2.4 -8.65L-1.5 -8.3" />
<path style="fill:#338A2B;fill-opacity:1" d="M-4.7 -8.1L-3.6 -8.35L-2.6 -7.9L-3.75 -7.75L-4.7 -8.1" />
<path style="fill:#5EC34D;fill-opacity:1" d="M-5.25 -6.7L-6.2 -7.1L-4.95 -7.35L-4 -7.15L-5.25 -6.7" />
<path style="fill:#5BCB4B;fill-opacity:1" d="M-4 -7.15L-4.95 -7.35L-3.75 -7.75L-2.75 -7.35L-4 -7.15M-1.4 -8.85L-2.2 -9.2L-1.15 -9.45L-0.2 -9.2L-1.4 -8.85" />
<path style="fill:#4B9943;fill-opacity:1" d="M-3.6 -8.35L-4.35 -8.65L-3.35 -8.85L-2.4 -8.65L-3.6 -8.35" />
<path style="fill:#65C854;fill-opacity:1" d="M-5.6 -8.3L-4.35 -8.65L-3.6 -8.35L-4.7 -8.1L-5.6 -8.3" />
<path style="fill:#4EC33F;fill-opacity:1" d="M-4.7 -8.1L-3.75 -7.75L-4.95 -7.35L-5.95 -7.7L-4.7 -8.1" />
<path style="fill:#1B9F16;fill-opacity:1" d="M-5.25 -6.7L-4 -7.15L-3 -6.7L-4.3 -6.4L-5.25 -6.7" />
<path style="fill:#3EAE32;fill-opacity:1" d="M-3 -6.7L-4 -7.15L-2.75 -7.35L-1.8 -7.15L-3 -6.7" />
<path style="fill:#0E9908;fill-opacity:1" d="M-4.3 -6.4L-3 -6.7L-1.8 -7.15L-0.75 -6.75L-2 -6.4L-3.25 -6L-4.3 -6.4" />
<path style="fill:#96D18F;fill-opacity:1" d="M-3.1 -9.45L-2.2 -9.2L-3.35 -8.85L-4.2 -9.15L-3.1 -9.45" />
<path style="fill:#ACD8A5;fill-opacity:1" d="M-1.4 -8.85L-2.4 -8.65L-3.35 -8.85L-2.2 -9.2L-1.4 -8.85" />
<path style="fill:#A1D499;fill-opacity:1" d="M-1.8 -7.15L-2.75 -7.35L-1.65 -7.8L-0.6 -7.45L-1.8 -7.15" />
<path style="fill:#418C3A;fill-opacity:1" d="M-0.35 -8.7L-1.4 -8.85L-0.2 -9.2L0.75 -8.95L-0.35 -8.7" />
<path style="fill:#8AD27C;fill-opacity:1" d="M-1.8 -7.15L-0.6 -7.45L0.5 -7.2L-0.75 -6.75L-1.8 -7.15" />
<path style="fill:#68C658;fill-opacity:1" d="M-2 -6.4L-0.75 -6.75L0.5 -6.4L-0.8 -6.05L-2 -6.4" />
<path style="fill:#59B14B;fill-opacity:1" d="M-6.75 -7.9L-7.6 -8.4L-6.4 -8.6L-5.6 -8.3L-6.75 -7.9" />
<path style="fill:#42AE34;fill-opacity:1" d="M-7.1 -7.35L-5.95 -7.7L-4.95 -7.35L-6.2 -7.1L-7.1 -7.35" />
<path style="fill:#9ADD90;fill-opacity:1" d="M-7.95 -7.75L-6.75 -7.9L-5.95 -7.7L-7.1 -7.35L-7.95 -7.75" />
<path style="fill:#7DD074;fill-opacity:1" d="M-5.6 -8.3L-4.7 -8.1L-5.95 -7.7L-6.75 -7.9L-5.6 -8.3" />
</g>
<g id="PathID_656" transform="matrix(1, 0, 0, 1, 9.25, 11)">
<linearGradient
id="LinearGradID_218" gradientUnits="userSpaceOnUse" gradientTransform="matrix(-0.00465393, -0.00802612, 0.00881958, -0.00621033, 7.1, 3.9)" spreadMethod ="pad" x1="-819.2" y1="0" x2="819.2" y2="0" >
<stop  offset="0" style="stop-color:#000000;stop-opacity:0.74902" />
<stop  offset="1" style="stop-color:#000000;stop-opacity:0" />
</linearGradient>
<path style="fill:url(#LinearGradID_218) " d="M1.85 -4.35L12.45 -8.15L12.45 6.45L1.85 10.3L1.85 -4.35" />
<linearGradient
id="LinearGradID_219" gradientUnits="userSpaceOnUse" gradientTransform="matrix(0.00726318, -0.0062561, 0.00640869, 0.00883484, -1.35, -0.9)" spreadMethod ="pad" x1="-819.2" y1="0" x2="819.2" y2="0" >
<stop  offset="0" style="stop-color:#000000;stop-opacity:0.74902" />
<stop  offset="1" style="stop-color:#000000;stop-opacity:0" />
</linearGradient>
<path style="fill:url(#LinearGradID_219) " d="M1.85 10.3L-8.9 6.45L-8.9 -8.2L1.85 -4.35L1.85 10.3" />
</g>
<g id="PathID_657" transform="matrix(1, 0, 0, 1, 9.25, 11)">
<path style="fill:none;stroke-width:0.7;stroke-linecap:round;stroke-linejoin:round;stroke-miterlimit:3;stroke:#000000;stroke-opacity:0.4" d="M12.45 -8.1L1.8 -10.65L-6.4 -8.6L-7.6 -8.4L-8.45 -8.05L1.7 -4.4L12.45 -8.1L12.45 6.5L1.85 10.25L1.85 10.3L1.8 10.3L1.75 10.3L-8.9 6.45L-8.9 -8.2L-8.45 -8.05" />
<path style="fill:none;stroke-width:0.7;stroke-linecap:round;stroke-linejoin:round;stroke-miterlimit:3;stroke:#000000;stroke-opacity:0.4" d="M1.7 -4.4L1.7 9.75" />
</g>
</svg>
