<?xml version="1.0" encoding="utf-8"?>
<svg version="1.1" id="Layer_1"
xmlns="http://www.w3.org/2000/svg"
xmlns:xlink="http://www.w3.org/1999/xlink"
width="6px" height="6px"
xml:space="preserve">
<g id="PathID_3885" transform="matrix(1, 0, 0, 1, 0, 0.3)">
<path style="fill:#808080;fill-opacity:1" d="M5.3 4.85L3.95 4.95L3.45 3.2L3.45 4.85L2.25 4.65L2.3 2.1L1.55 4.2Q0.75 4.2 0 3.55Q0.55 1.8 0.55 0.7Q3.1 -1.2 5.5 0.55Q5.4 1.6 5.55 2.55Q5.7 3.75 6 3.95L5.6 4.25L5.15 4.4L5 4.5L5.3 4.85M5 4.5L4.85 3.8L5 4.5L5.15 4.4" />
<path style="fill:none;stroke-width:0.7;stroke-linecap:round;stroke-linejoin:round;stroke-miterlimit:3;stroke:#000000;stroke-opacity:0.2" d="M5.15 4.4L5.6 4.25L6 3.95Q5.7 3.75 5.55 2.55Q5.4 1.6 5.5 0.55Q3.1 -1.2 0.55 0.7Q0.55 1.8 0 3.55Q0.75 4.2 1.55 4.2L2.3 2.1L2.25 4.65L3.45 4.85L3.45 3.2L3.95 4.95L5.3 4.85L5.15 4.4L5 4.5L4.85 3.8" />
</g>
</svg>
