<?xml version="1.0" encoding="utf-8"?>
<svg version="1.1" id="Layer_1"
xmlns="http://www.w3.org/2000/svg"
xmlns:xlink="http://www.w3.org/1999/xlink"
width="14px" height="11px"
xml:space="preserve">
<g id="PathID_3203" transform="matrix(1, 0, 0, 1, 0.1, 0.1)">
<path style="fill:#808080;fill-opacity:1" d="M0 3.35Q2.15 1.15 3.75 0.35Q6 0.65 8.15 1.7L9.8 0.15Q10.1 0.2 10.35 0.4Q10.45 1.05 8.15 1.7Q6 0.65 3.75 0.35Q5.55 2.55 0 3.35" />
<path style="fill:#4F4943;fill-opacity:1" d="M8.15 1.7Q10.25 4.7 10.95 7.35Q10.25 4.7 8.15 1.7Q10.45 1.05 10.35 0.4Q11.6 1.2 12.7 4.1L13.75 7.6L10.95 7.35Q7.1 7.7 3.75 9.5Q2.85 9.9 2.15 10.4Q0.2 7.05 0 3.35Q5.55 2.55 8.15 1.7" />
<path style="fill:none;stroke-width:0.7;stroke-linecap:round;stroke-linejoin:round;stroke-miterlimit:3;stroke:#000000;stroke-opacity:0.270588" d="M10.35 0.4Q11.6 1.2 12.7 4.1L13.75 7.6L10.95 7.35Q7.1 7.7 3.75 9.5Q2.85 9.9 2.15 10.4Q0.2 7.05 0 3.35Q2.15 1.15 3.75 0.35L9.8 0.15Q10.1 0.2 10.35 0.4z" />
<path style="fill:none;stroke-width:0.7;stroke-linecap:round;stroke-linejoin:round;stroke-miterlimit:3;stroke:#000000;stroke-opacity:0.270588" d="M8.15 1.7Q10.25 4.7 10.95 7.35" />
<path style="fill:none;stroke-width:0.7;stroke-linecap:round;stroke-linejoin:round;stroke-miterlimit:3;stroke:#000000;stroke-opacity:0.270588" d="M3.75 0.35Q6 0.65 8.15 1.7" />
</g>
</svg>
