<?xml version="1.0" encoding="utf-8"?>
<svg version="1.1" id="Layer_1"
xmlns="http://www.w3.org/2000/svg"
xmlns:xlink="http://www.w3.org/1999/xlink"
width="31px" height="29px"
xml:space="preserve">
<g id="PathID_1895" transform="matrix(1, 0, 0, 1, 0, 0)">
<path style="fill:#4F4943;fill-opacity:1" d="M26.9 4.2Q28.3 4.8 30.25 4.15Q29.85 6.45 27.55 6.3L26.45 6.1L27.55 6.3Q29.05 8.6 28.4 11.4L26.85 8.95Q26.95 7.65 26.45 6.1L26.2 5.55L26.9 4.2M24.35 12.9Q23.6 10.5 22.35 8.55L24.55 6.85L26.2 5.55L26.45 6.1Q26.95 7.65 26.85 8.95Q26.7 11.4 24.35 12.9M21.2 5.6L20.7 3.7L22.4 7.3L21.9 7.5L21.2 5.6M22.15 8.6Q22.5 10.85 21.85 13.2L21.3 12.2Q20.5 10.7 20 9.05Q19.45 10.7 18.5 9.05L19.5 9.05L20 9.05Q20.5 10.7 21.3 12.2L22.15 8.6M14 11.6L14.6 10.2Q15.95 9.1 16.55 9.9L16.1 10.55Q15.25 11.9 14.8 13.3Q14.9 11.05 14 11.6L13.6 12.85Q12.8 10.7 11.15 11.7Q11.2 10.8 11.4 10Q12.9 9.35 13.75 9.75L14.6 10.2L14 11.6M14.75 17.5Q16.15 20.6 16.7 21.3Q17.3 22.05 17.55 23.75Q17.75 25.45 16 26.4Q14.25 27.35 14.05 28.3L13.85 28.2Q13.65 27.55 13.95 27Q14.2 26.45 15.6 25Q16.95 23.5 16.45 22.15L15.3 19.5L14.7 17.85L14.75 17.5M10.6 13.85Q9.8 12.9 9 13.35Q9.05 11.3 9.75 9.65Q10.6 9.05 11.4 10Q11.2 10.8 11.15 11.7Q11 13.3 11.35 15Q11.6 16.35 12.15 17.7Q12.35 19.25 11.05 20.85Q11.75 16.95 10.6 13.85M5.05 21.55L6.25 20.3Q8.8 18.05 8.65 13.9Q7.45 11.95 6.15 12.55L6.5 10.65Q6.5 9.6 6.8 8.45Q8.25 8.3 8.9 8.95L9.75 9.65Q9.05 11.3 9 13.35L9 13.55L9.1 14.75L9.35 16.05Q8.7 19.65 7.35 20.85Q5.25 22.9 4.9 24.35Q5.25 22.9 7.35 20.85Q8.7 19.65 9.35 16.05L9.45 16.6L9.85 18.9L9.7 20.15L6.3 23.1L4.9 24.35L2.8 26.65Q2.65 24.3 3.6 23.35L5.05 21.55M0.7 24Q0 23 0 22.1L0.05 21.45Q1.4 19.05 2.9 17.75L7 13.25L6.5 14.35L3.2 18.6L2.4 19.6L2.05 20.15Q0.7 22.15 0.7 23.8L0.7 24M11.25 8.3Q12.15 5.65 13.95 3.8L13.15 5.6L11.85 8.3L11.25 8.3M15.5 8.65L15.7 8.3L16.85 5.45L16 9.05L15.5 8.65" />
<path style="fill:#808080;fill-opacity:1" d="M19.8 8.25L19.4 5.25L19.8 8.25L18.25 8.55L17.7 7.15L17.2 8.65Q16.55 9.2 16.15 9.1L16 9.05L16.85 5.45L15.7 8.3L15.5 8.65L12.9 8.75L11.85 8.3L13.15 5.6L13.95 3.8Q12.15 5.65 11.25 8.3L8.85 7.95Q8.05 7.55 7.45 6.45L8.3 4.6Q12.15 0.2 15.4 1.2Q20.45 -1.9 25.45 3.05L26.15 3.75L25.65 4.55Q24.9 6.05 23.85 6.6L22.4 7.3L20.7 3.7L21.2 5.6L21.9 7.5Q21.2 8.45 19.8 8.25M11.35 15Q11 13.3 11.15 11.7Q12.8 10.7 13.6 12.85L14 11.6Q14.9 11.05 14.8 13.3Q14.3 14.9 14.3 16.55L14.75 17.5L14.7 17.85L15.3 19.5L16.45 22.15Q16.95 23.5 15.6 25Q14.2 26.45 13.95 27Q13.65 27.55 13.85 28.2L13.25 27.7Q12.65 27.05 12.65 26.4Q12.65 25.7 13.3 24.55L13.95 22.75Q13.95 22.05 13.3 20.85Q12.6 20.3 12.15 17.7Q11.6 16.35 11.35 15M9 13.35Q9.8 12.9 10.6 13.85Q11.75 16.95 11.05 20.85L10.45 21.5Q8.4 23.45 8.1 24.9L8 24.95Q8.15 23.25 9 21.7L9.7 20.15L9.85 18.9L9.45 16.6L9.35 16.05L9.1 14.75L9 13.55L9 13.35M0.7 23.8Q0.7 22.15 2.05 20.15Q3.9 19.75 5.05 21.55L3.6 23.35Q2.65 24.3 2.8 26.65L1.85 27.95Q0.75 25.7 0.7 24L0.7 23.8M8.65 13.9Q8.8 18.05 6.25 20.3Q3.55 20.4 3.2 18.6L6.5 14.35L7 13.25L2.9 17.75Q1.4 19.05 0.05 21.45Q0.1 20.15 0.45 19.4Q1 18.3 3.75 15.8Q5.5 14.15 6.15 12.55Q7.45 11.95 8.65 13.9M13.6 12.85Q13.25 14.4 13.6 15.6Q13.25 14.4 13.6 12.85" />
<path style="fill:#B6B6B6;fill-opacity:1" d="M22.05 8.1L22.15 8.6L21.9 7.5L22.4 7.3L23.85 6.6Q24.9 6.05 25.65 4.55L26.2 5.55L24.55 6.85L22.35 8.55L22.05 8.1M26.2 5.55L25.65 4.55L26.15 3.75L26.9 4.2L26.2 5.55M22.15 8.6L20 9.05L19.8 8.25Q21.2 8.45 21.9 7.5L22.05 8.1M19.5 9.05L18.5 9.05L18.25 8.55L19.8 8.25L20 9.05L19.5 9.05M16 9.05L16.15 9.1Q16.55 9.2 17.2 8.65L16.55 9.9Q15.95 9.1 14.6 10.2L15.5 8.65M11.85 8.3L11.4 10Q10.6 9.05 9.75 9.65L10.25 8.55L9.75 9.65L8.9 8.95Q8.25 8.3 6.8 8.45L7.45 6.45Q8.05 7.55 8.85 7.95L11.25 8.3L11.85 8.3M14.6 10.2L13.75 9.75Q12.9 9.35 11.4 10L11.85 8.3L12.9 8.75L15.5 8.65L16 9.05L14.6 10.2M5.05 21.55Q3.9 19.75 2.05 20.15L2.4 19.6L3.2 18.6Q3.55 20.4 6.25 20.3L5.05 21.55" />
<path style="fill:none;stroke-width:0.7;stroke-linecap:round;stroke-linejoin:round;stroke-miterlimit:3;stroke:#000000;stroke-opacity:0.4" d="M26.85 8.95Q26.95 7.65 26.45 6.1L26.2 5.55" />
<path style="fill:none;stroke-width:0.7;stroke-linecap:round;stroke-linejoin:round;stroke-miterlimit:3;stroke:#000000;stroke-opacity:0.4" d="M22.35 8.55Q23.6 10.5 24.35 12.9Q26.7 11.4 26.85 8.95L28.4 11.4Q29.05 8.6 27.55 6.3L26.45 6.1" />
<path style="fill:none;stroke-width:0.7;stroke-linecap:round;stroke-linejoin:round;stroke-miterlimit:3;stroke:#000000;stroke-opacity:0.4" d="M7.45 6.45L8.3 4.6Q12.15 0.2 15.4 1.2Q20.45 -1.9 25.45 3.05L26.15 3.75L26.9 4.2Q28.3 4.8 30.25 4.15Q29.85 6.45 27.55 6.3" />
<path style="fill:none;stroke-width:0.7;stroke-linecap:round;stroke-linejoin:round;stroke-miterlimit:3;stroke:#000000;stroke-opacity:0.4" d="M25.65 4.55L26.2 5.55" />
<path style="fill:none;stroke-width:0.7;stroke-linecap:round;stroke-linejoin:round;stroke-miterlimit:3;stroke:#000000;stroke-opacity:0.4" d="M21.9 7.5L22.05 8.1L22.35 8.55" />
<path style="fill:none;stroke-width:0.7;stroke-linecap:round;stroke-linejoin:round;stroke-miterlimit:3;stroke:#000000;stroke-opacity:0.4" d="M22.05 8.1L22.15 8.6Q22.5 10.85 21.85 13.2L21.3 12.2Q19.45 10.7 18.5 9.05L18.25 8.55L17.7 7.15L17.2 8.65L16.55 9.9L16.1 10.55Q15.25 11.9 14.8 13.3Q14.3 14.9 14.3 16.55L14.75 17.5Q16.15 20.6 16.7 21.3Q17.3 22.05 17.55 23.75Q17.75 25.45 16 26.4Q14.25 27.35 14.05 28.3L13.85 28.2L13.25 27.7Q12.65 27.05 12.65 26.4Q12.65 25.7 13.3 24.55L13.95 22.75Q13.95 22.05 13.3 20.85Q12.6 20.3 12.15 17.7Q12.35 19.25 11.05 20.85L10.45 21.5Q8.4 23.45 8.1 24.9L8 24.95Q8.15 23.25 9 21.7L9.7 20.15L6.3 23.1L4.9 24.35L2.8 26.65L1.85 27.95Q0.75 25.7 0.7 24Q0 23 0 22.1L0.05 21.45Q0.1 20.15 0.45 19.4Q1 18.3 3.75 15.8Q5.5 14.15 6.15 12.55L6.5 10.65Q6.5 9.6 6.8 8.45L7.45 6.45" />
<path style="fill:none;stroke-width:0.7;stroke-linecap:round;stroke-linejoin:round;stroke-miterlimit:3;stroke:#000000;stroke-opacity:0.4" d="M13.15 5.6L11.85 8.3" />
<path style="fill:none;stroke-width:0.7;stroke-linecap:round;stroke-linejoin:round;stroke-miterlimit:3;stroke:#000000;stroke-opacity:0.4" d="M15.5 8.65L15.7 8.3" />
<path style="fill:none;stroke-width:0.7;stroke-linecap:round;stroke-linejoin:round;stroke-miterlimit:3;stroke:#000000;stroke-opacity:0.4" d="M21.9 7.5L21.2 5.6" />
<path style="fill:none;stroke-width:0.7;stroke-linecap:round;stroke-linejoin:round;stroke-miterlimit:3;stroke:#000000;stroke-opacity:0.4" d="M11.4 10L11.85 8.3" />
<path style="fill:none;stroke-width:0.7;stroke-linecap:round;stroke-linejoin:round;stroke-miterlimit:3;stroke:#000000;stroke-opacity:0.4" d="M11.15 11.7Q11.2 10.8 11.4 10" />
<path style="fill:none;stroke-width:0.7;stroke-linecap:round;stroke-linejoin:round;stroke-miterlimit:3;stroke:#000000;stroke-opacity:0.4" d="M9.75 9.65Q9.05 11.3 9 13.35" />
<path style="fill:none;stroke-width:0.7;stroke-linecap:round;stroke-linejoin:round;stroke-miterlimit:3;stroke:#000000;stroke-opacity:0.4" d="M14.6 10.2L15.5 8.65" />
<path style="fill:none;stroke-width:0.7;stroke-linecap:round;stroke-linejoin:round;stroke-miterlimit:3;stroke:#000000;stroke-opacity:0.4" d="M14 11.6L14.6 10.2" />
<path style="fill:none;stroke-width:0.7;stroke-linecap:round;stroke-linejoin:round;stroke-miterlimit:3;stroke:#000000;stroke-opacity:0.4" d="M20 9.05L19.8 8.25L19.4 5.25" />
<path style="fill:none;stroke-width:0.7;stroke-linecap:round;stroke-linejoin:round;stroke-miterlimit:3;stroke:#000000;stroke-opacity:0.4" d="M9.75 9.65L10.25 8.55" />
<path style="fill:none;stroke-width:0.7;stroke-linecap:round;stroke-linejoin:round;stroke-miterlimit:3;stroke:#000000;stroke-opacity:0.4" d="M9.7 20.15L9.85 18.9L9.45 16.6L9.35 16.05Q8.7 19.65 7.35 20.85Q5.25 22.9 4.9 24.35" />
<path style="fill:none;stroke-width:0.7;stroke-linecap:round;stroke-linejoin:round;stroke-miterlimit:3;stroke:#000000;stroke-opacity:0.4" d="M9.35 16.05L9.1 14.75L9 13.55L9 13.35" />
<path style="fill:none;stroke-width:0.7;stroke-linecap:round;stroke-linejoin:round;stroke-miterlimit:3;stroke:#000000;stroke-opacity:0.4" d="M6.5 14.35L3.2 18.6" />
<path style="fill:none;stroke-width:0.7;stroke-linecap:round;stroke-linejoin:round;stroke-miterlimit:3;stroke:#000000;stroke-opacity:0.4" d="M3.2 18.6L2.4 19.6L2.05 20.15" />
<path style="fill:none;stroke-width:0.7;stroke-linecap:round;stroke-linejoin:round;stroke-miterlimit:3;stroke:#000000;stroke-opacity:0.4" d="M2.05 20.15Q0.7 22.15 0.7 23.8L0.7 24" />
<path style="fill:none;stroke-width:0.7;stroke-linecap:round;stroke-linejoin:round;stroke-miterlimit:3;stroke:#000000;stroke-opacity:0.4" d="M11.15 11.7Q11 13.3 11.35 15Q11.6 16.35 12.15 17.7" />
<path style="fill:none;stroke-width:0.7;stroke-linecap:round;stroke-linejoin:round;stroke-miterlimit:3;stroke:#000000;stroke-opacity:0.4" d="M13.6 15.6Q13.25 14.4 13.6 12.85" />
<path style="fill:none;stroke-width:0.7;stroke-linecap:round;stroke-linejoin:round;stroke-miterlimit:3;stroke:#000000;stroke-opacity:0.4" d="M13.6 12.85L14 11.6" />
<path style="fill:none;stroke-width:0.7;stroke-linecap:round;stroke-linejoin:round;stroke-miterlimit:3;stroke:#000000;stroke-opacity:0.4" d="M20 9.05Q20.5 10.7 21.3 12.2" />
</g>
<g id="PathID_1896" transform="matrix(1, 0, 0, 1, 0, 0)">
<path style="fill:#4F4943;fill-opacity:1" d="M26.3 23.55Q24.3 22.6 24.45 24.45Q24.2 24.1 24.2 23.65L24.3 23.1Q24.35 22.9 25.15 22.45L27.05 22.2L27.15 22.2Q27.6 22.25 28 22.8Q28.4 23.35 28.4 24Q28.4 25.7 26.9 27.1Q28.25 24.5 26.3 23.55" />
<path style="fill:#808080;fill-opacity:1" d="M24.45 24.45Q24.3 22.6 26.3 23.55Q28.25 24.5 26.9 27.1L25.8 27.9L25.8 27.85Q26 26.65 25 25.1L24.45 24.45" />
<path style="fill:none;stroke-width:0.7;stroke-linecap:round;stroke-linejoin:round;stroke-miterlimit:3;stroke:#000000;stroke-opacity:0.4" d="M26.9 27.1Q28.4 25.7 28.4 24Q28.4 23.35 28 22.8Q27.6 22.25 27.15 22.2L27.05 22.2L25.15 22.45Q24.35 22.9 24.3 23.1L24.2 23.65Q24.2 24.1 24.45 24.45" />
<path style="fill:none;stroke-width:0.7;stroke-linecap:round;stroke-linejoin:round;stroke-miterlimit:3;stroke:#000000;stroke-opacity:0.4" d="M26.9 27.1L25.8 27.9L25.8 27.85Q26 26.65 25 25.1L24.45 24.45" />
</g>
</svg>
