<?xml version="1.0" encoding="utf-8"?>
<svg version="1.1" id="Layer_1"
xmlns="http://www.w3.org/2000/svg"
xmlns:xlink="http://www.w3.org/1999/xlink"
width="11px" height="4px"
xml:space="preserve">
<g id="PathID_2268" transform="matrix(1, 0, 0, 1, 0, 0)">
<path style="fill:#808080;fill-opacity:1" d="M10.65 1.4Q10.6 1.85 10.2 2.1Q9.8 2.45 9.25 2.45Q8.75 2.4 8.4 1.95Q8.05 1.65 8.1 1.2Q8.15 0.6 8.5 0.3Q8.95 -0.05 9.45 0Q10 0 10.3 0.45Q10.7 0.8 10.65 1.4M1.7 0.5Q2.35 0.55 2.7 1.05Q3.2 1.5 3.15 2.1Q3.1 2.8 2.55 3.15Q2.15 3.6 1.5 3.55Q0.8 3.5 0.4 3Q-0.05 2.55 0 1.85Q0.05 1.25 0.55 0.9Q1 0.45 1.7 0.5" />
</g>
</svg>
