<?xml version="1.0" encoding="utf-8"?>
<svg version="1.1" id="Layer_1"
xmlns="http://www.w3.org/2000/svg"
xmlns:xlink="http://www.w3.org/1999/xlink"
width="26px" height="16px"
xml:space="preserve">
<g id="PathID_1161" transform="matrix(1, 0, 0, 1, 0.15, 0.15)">
<path style="fill:#808080;fill-opacity:1" d="M0.25 13.45L2.2 12.15L4.8 10.45L6.05 11.2L7.25 10.95Q8.45 10.65 8.45 9.8L8.35 8.65L8.15 8.2L8.4 8.05L11.7 5.85L14.7 3.85L18.25 1.5L18.4 1.4Q22.4 -1.4 24.6 1.45L24.7 1.6Q25.45 2.7 25.5 4.45Q25.55 5.65 25 6.5Q22.2 8.35 21.95 6.85L23.7 5.3L23.7 3.25Q22.65 1.8 20.65 2.15L1.1 15.4Q-0.55 15.2 0.25 13.45" />
<path style="fill:#4F4943;fill-opacity:1" d="M24.3 7.25L22.35 8.4Q21.65 8.65 21.2 7.9Q20.85 7.4 21.1 6.9L21.2 6.7L22.35 5.6L22.7 5.2L22.8 5.1Q23.2 4.45 22.95 3.9L22.55 3.35L20.15 3.25L20 3.3L16.85 5.4L13.15 7.85L9.65 10.2L6.55 12.3L3.8 14.2L2.15 15.35L1.1 15.4L20.65 2.15Q22.65 1.8 23.7 3.25L23.7 5.3L21.95 6.85Q22.2 8.35 25 6.5L24.3 7.25" />
<path style="fill:none;stroke-width:0.7;stroke-linecap:round;stroke-linejoin:round;stroke-miterlimit:3;stroke:#000000;stroke-opacity:0.4" d="M25 6.5Q25.55 5.65 25.5 4.45Q25.45 2.7 24.7 1.6L24.6 1.45Q22.4 -1.4 18.4 1.4L18.25 1.5L14.7 3.85L11.7 5.85L8.4 8.05L8.15 8.2L8.35 8.65L8.45 9.8Q8.45 10.65 7.25 10.95L6.05 11.2L4.8 10.45L2.2 12.15L0.25 13.45Q-0.55 15.2 1.1 15.4L2.15 15.35L3.8 14.2L6.55 12.3L9.65 10.2L13.15 7.85L16.85 5.4L20 3.3L20.15 3.25L22.55 3.35L22.95 3.9Q23.2 4.45 22.8 5.1L22.7 5.2L22.35 5.6L21.2 6.7L21.1 6.9Q20.85 7.4 21.2 7.9Q21.65 8.65 22.35 8.4L24.3 7.25L25 6.5z" />
</g>
</svg>
