<?xml version="1.0" encoding="utf-8"?>
<svg version="1.1" id="Layer_1"
xmlns="http://www.w3.org/2000/svg"
xmlns:xlink="http://www.w3.org/1999/xlink"
width="7px" height="10px"
xml:space="preserve">
<g id="PathID_299" transform="matrix(1, 0, 0, 1, 3.2, 4.95)">
<path style="fill:#5B5B5B;fill-opacity:1" d="M2.8 -3.6L2.95 -3.35L3.1 -2.05L2.65 1.5L2.65 1.75L2.5 2.6L2.4 3.35Q2 4.8 1.45 4.95L1.25 4.95Q2.3 3.85 2.8 -3.6M1.15 4.9L1.15 4.95L0.6 4.6L-1.15 2.5Q-3.55 -0.3 -3.1 -2.45Q-2.85 -3.85 -1.55 -4.45L-2.05 -3.5Q-3.25 -0.2 1.15 4.9" />
<path style="fill:#808080;fill-opacity:1" d="M-1.25 -2.4Q-1.25 -4.65 -2.05 -3.5L-1.55 -4.45L-0.8 -4.75Q0.85 -5.2 2.25 -4.35L2.8 -3.6Q2.3 3.85 1.25 4.95L1.15 4.95L1.15 4.9Q-1.85 0.7 -1.25 -2.4M1.1 -4.35L0.35 -4.05L0.1 -3.5L0.05 -3.3Q0.05 -2.85 0.35 -2.6Q0.7 -2.25 1.1 -2.25L1.5 -2.3L1.9 -2.6L2.2 -3.3L1.9 -4.05L1.1 -4.35" />
<path style="fill:#D8D8D8;fill-opacity:1" d="M1.9 -4.05L2.2 -3.3L1.9 -2.6L1.5 -2.3L1.1 -2.25Q0.7 -2.25 0.35 -2.6Q0.05 -2.85 0.05 -3.3L0.1 -3.5L0.35 -4.05L1.1 -4.35L1.9 -4.05M-2.05 -3.5Q-1.25 -4.65 -1.25 -2.4Q-1.85 0.7 1.15 4.9Q-3.25 -0.2 -2.05 -3.5" />
<path style="fill:none;stroke-width:0.7;stroke-linecap:round;stroke-linejoin:round;stroke-miterlimit:3;stroke:#000000;stroke-opacity:0.4" d="M1.25 4.95L1.45 4.95Q2 4.8 2.4 3.35L2.5 2.6L2.65 1.75L2.65 1.5L3.1 -2.05L2.95 -3.35L2.8 -3.6" />
<path style="fill:none;stroke-width:0.7;stroke-linecap:round;stroke-linejoin:round;stroke-miterlimit:3;stroke:#000000;stroke-opacity:0.4" d="M1.25 4.95L1.15 4.95L0.6 4.6L-1.15 2.5Q-3.55 -0.3 -3.1 -2.45Q-2.85 -3.85 -1.55 -4.45L-0.8 -4.75Q0.85 -5.2 2.25 -4.35L2.8 -3.6" />
</g>
</svg>
