<?xml version="1.0" encoding="utf-8"?>
<svg version="1.1" id="Layer_1"
xmlns="http://www.w3.org/2000/svg"
xmlns:xlink="http://www.w3.org/1999/xlink"
width="18px" height="8px"
xml:space="preserve">
<g id="PathID_3453" transform="matrix(1, 0, 0, 1, 0.1, 0.1)">
<path style="fill:#585551;fill-opacity:1" d="M14.85 3.05L14.5 2.4L14.35 2.05L14.75 1.8Q16.25 3.65 16.15 4.85L15.2 4.6L14.85 3.05M15.45 5.95L14.95 4.95L15.2 4.6L16.15 4.85Q16 5.5 15.45 5.95M14.35 2.05L13.65 1.3L13.65 1.25Q13.65 0.35 14.05 0Q14.65 0.4 14.95 1.5L14.75 1.8L14.5 2.4" />
<path style="fill:#808080;fill-opacity:1" d="M14.95 1.5L16.6 0.35Q17.3 1.8 16.4 2.65Q17.7 3.15 17.45 4.55L16.5 4.85L16.15 4.85L16.5 4.85Q17.2 6.1 16.7 6.4L15.85 7L15.45 5.95Q16 5.5 16.15 4.85Q16.25 3.65 14.75 1.8L14.95 1.5" />
<path style="fill:none;stroke-width:0.7;stroke-linecap:round;stroke-linejoin:round;stroke-miterlimit:3;stroke:#000000;stroke-opacity:0.498039" d="M16.15 4.85L15.2 4.6" />
<path style="fill:none;stroke-width:0.7;stroke-linecap:round;stroke-linejoin:round;stroke-miterlimit:3;stroke:#000000;stroke-opacity:0.498039" d="M14.95 4.95L15.45 5.95" />
<path style="fill:none;stroke-width:0.7;stroke-linecap:round;stroke-linejoin:round;stroke-miterlimit:3;stroke:#000000;stroke-opacity:0.498039" d="M14.75 1.8L14.5 2.4L14.85 3.05" />
<path style="fill:none;stroke-width:0.7;stroke-linecap:round;stroke-linejoin:round;stroke-miterlimit:3;stroke:#000000;stroke-opacity:0.498039" d="M16.5 4.85L16.15 4.85" />
<path style="fill:none;stroke-width:0.7;stroke-linecap:round;stroke-linejoin:round;stroke-miterlimit:3;stroke:#000000;stroke-opacity:0.498039" d="M14.95 1.5L16.6 0.35Q17.3 1.8 16.4 2.65Q17.7 3.15 17.45 4.55L16.5 4.85Q17.2 6.1 16.7 6.4L15.85 7L15.45 5.95" />
<path style="fill:none;stroke-width:0.7;stroke-linecap:round;stroke-linejoin:round;stroke-miterlimit:3;stroke:#000000;stroke-opacity:0.498039" d="M14.5 2.4L14.35 2.05L13.65 1.3L13.65 1.25Q13.65 0.35 14.05 0Q14.65 0.4 14.95 1.5L14.75 1.8" />
</g>
<g id="PathID_3454" transform="matrix(1, 0, 0, 1, 0.1, 0.1)">
<path style="fill:#585551;fill-opacity:1" d="M1.55 4.7L2.2 4.25L1.55 4.7Q1 3.4 1.5 2.6L2.05 2L2.65 2.6L2.05 2L1.85 1.8Q2.2 0.75 2.9 0.2L3.05 2.1Q2.55 2.15 2.65 2.6L2.3 3.5L2.2 4.25L2.1 5.9L1.65 6.55Q1.45 6.25 1.5 5.45L1.55 4.7" />
<path style="fill:#808080;fill-opacity:1" d="M1.5 5.45Q1.45 6.25 1.65 6.55L1.15 7.15L0.35 6.65Q-0.4 6.3 1.15 4.9L1.55 4.7L0 5Q-0.1 4.2 0.5 3Q-0.1 1.95 0.05 0.65Q1.15 0.95 1.85 1.8L2.05 2L1.5 2.6Q1 3.4 1.55 4.7L1.15 4.9L1.5 5.45" />
<path style="fill:none;stroke-width:0.7;stroke-linecap:round;stroke-linejoin:round;stroke-miterlimit:3;stroke:#000000;stroke-opacity:0.498039" d="M1.85 1.8Q2.2 0.75 2.9 0.2L3.05 2.1" />
<path style="fill:none;stroke-width:0.7;stroke-linecap:round;stroke-linejoin:round;stroke-miterlimit:3;stroke:#000000;stroke-opacity:0.498039" d="M2.1 5.9L1.65 6.55L1.15 7.15L0.35 6.65Q-0.4 6.3 1.15 4.9L0 5Q-0.1 4.2 0.5 3Q-0.1 1.95 0.05 0.65Q1.15 0.95 1.85 1.8L2.05 2L2.65 2.6" />
<path style="fill:none;stroke-width:0.7;stroke-linecap:round;stroke-linejoin:round;stroke-miterlimit:3;stroke:#000000;stroke-opacity:0.498039" d="M1.55 4.7L2.2 4.25" />
<path style="fill:none;stroke-width:0.7;stroke-linecap:round;stroke-linejoin:round;stroke-miterlimit:3;stroke:#000000;stroke-opacity:0.498039" d="M1.55 4.7L1.15 4.9" />
</g>
</svg>
