<?xml version="1.0" encoding="utf-8"?>
<svg version="1.1" id="Layer_1"
xmlns="http://www.w3.org/2000/svg"
xmlns:xlink="http://www.w3.org/1999/xlink"
width="5px" height="7px"
xml:space="preserve">
<g id="PathID_999" transform="matrix(1, 0, 0, 1, 0.3, 1.1)">
<path style="fill:#808080;fill-opacity:1" d="M2.85 1.65L1.95 1.75L3.1 0.1L4.05 0.05L2.85 1.65M1.8 2.95L0.65 4.45L0 4.5L1 3.1L1.8 2.95" />
<path style="fill:#5F6567;fill-opacity:1" d="M4.05 0.05L4.35 0L3.25 1.55L2.85 1.65L4.05 0.05M1.8 2.95L2.35 2.85L1.25 4.35L0.65 4.45L1.8 2.95" />
</g>
<g id="PathID_1000" transform="matrix(1, 0, 0, 1, 0.3, 1.1)">
<path style="fill:none;stroke-width:0.7;stroke-linecap:round;stroke-linejoin:round;stroke-miterlimit:3;stroke:#000000;stroke-opacity:0.2" d="M4.7 -0.55L4.65 -0.75Q4.45 -1.1 3.95 -1.1Q4 -0.65 4.5 -0.55L4.7 -0.55L0.55 5.3" />
<path style="fill:none;stroke-width:0.7;stroke-linecap:round;stroke-linejoin:round;stroke-miterlimit:3;stroke:#000000;stroke-opacity:0.2" d="M-0.3 4.9L3.95 -1.1" />
</g>
</svg>
