<?xml version="1.0" encoding="utf-8"?>
<svg version="1.1" id="Layer_1"
xmlns="http://www.w3.org/2000/svg"
xmlns:xlink="http://www.w3.org/1999/xlink"
width="6px" height="9px"
xml:space="preserve">
<g id="PathID_1759" transform="matrix(1, 0, 0, 1, 0.15, 0.15)">
<linearGradient
id="LinearGradID_513" gradientUnits="userSpaceOnUse" gradientTransform="matrix(0.000457764, -0.00358582, 0.00305176, 0.00038147, 4.4, 2.5)" spreadMethod ="pad" x1="-819.2" y1="0" x2="819.2" y2="0" >
<stop  offset="0.164706" style="stop-color:#808080;stop-opacity:1" />
<stop  offset="0.462745" style="stop-color:#959595;stop-opacity:1" />
<stop  offset="0.709804" style="stop-color:#808080;stop-opacity:1" />
</linearGradient>
<path style="fill:url(#LinearGradID_513) " d="M1.85 5.8Q1.4 5.05 1.3 4.1Q1.4 5.05 1.85 5.8Q1.4 6.35 0.25 5Q-0.2 3.85 0.15 2.55Q0.8 1.25 1.85 0.6L2.15 0.4L2.8 0.15L4.8 0.3Q2.15 0.85 2.6 3.45L3.1 4.9Q3.4 6.6 1.85 5.8M2.15 1.2L1.4 1.75L0.95 2.25L0.85 2.35L0.85 2.85L0.9 2.85L1.25 2.45L1.65 3L2.2 1.2L2.15 1.2" />
<path style="fill:#A3A3A3;fill-opacity:1" d="M2.2 1.2L1.65 3L1.25 2.45L0.9 2.85L0.85 2.85L0.85 2.35L0.95 2.25L1.4 1.75L2.15 1.2L2.2 1.2" />
<path style="fill:#4F4943;fill-opacity:1" d="M3.1 4.9Q3.75 6.25 5.05 7.5L4.8 7.8Q2.7 7.2 1.85 5.8L3.55 7.95L2.9 7.8L1.85 7.05Q0.65 6.1 0.25 5Q1.4 6.35 1.85 5.8Q2.7 7.2 4.8 7.8Q3.4 6.6 3.1 4.9" />
<path style="fill:none;stroke-width:0.7;stroke-linecap:round;stroke-linejoin:round;stroke-miterlimit:3;stroke:#000000;stroke-opacity:0.301961" d="M0.25 5Q-0.2 3.85 0.15 2.55Q0.8 1.25 1.85 0.6L2.15 0.4L2.8 0.15L4.8 0.3" />
<path style="fill:none;stroke-width:0.7;stroke-linecap:round;stroke-linejoin:round;stroke-miterlimit:3;stroke:#000000;stroke-opacity:0.301961" d="M5.05 7.5L4.8 7.8L3.55 7.95L2.9 7.8" />
<path style="fill:none;stroke-width:0.7;stroke-linecap:round;stroke-linejoin:round;stroke-miterlimit:3;stroke:#000000;stroke-opacity:0.301961" d="M1.85 7.05Q0.65 6.1 0.25 5" />
<path style="fill:none;stroke-width:0.7;stroke-linecap:round;stroke-linejoin:round;stroke-miterlimit:3;stroke:#000000;stroke-opacity:0.301961" d="M1.85 5.8Q1.4 5.05 1.3 4.1" />
<path style="fill:none;stroke-width:0.7;stroke-linecap:round;stroke-linejoin:round;stroke-miterlimit:3;stroke:#000000;stroke-opacity:0.301961" d="M4.8 7.8Q2.7 7.2 1.85 5.8" />
</g>
</svg>
