<?xml version="1.0" encoding="utf-8"?>
<svg version="1.1" id="Layer_1"
xmlns="http://www.w3.org/2000/svg"
xmlns:xlink="http://www.w3.org/1999/xlink"
width="9px" height="8px"
xml:space="preserve">
<g id="PathID_3444" transform="matrix(1, 0, 0, 1, 0, 0)">
<path style="fill:#646464;fill-opacity:1" d="M6.65 6.1Q5.3 6.35 3.5 4.75Q6.3 6.35 7 4.75Q8 5.85 6.65 6.1M2.3 3.2L1.7 2.55Q1.3 2 2.35 1.55Q2.95 3 5.45 3.4Q5.4 4.5 3.95 3.9L2.3 3.2" />
<path style="fill:#808080;fill-opacity:1" d="M7 4.75Q6.3 6.35 3.5 4.75Q5.3 6.35 6.65 6.1Q8 5.85 7 4.75M4 0.35Q5.7 0.85 6.4 2.85Q9.5 4.85 8.85 6.85Q8.15 8.85 7.15 6.85Q5.1 6.95 4.5 6.15Q1.95 7.15 1.6 5.55Q1.25 3.9 0.5 2.7Q-0.3 1.5 0.2 0.75L1.75 0.15L4 0.35M3.95 3.9Q5.4 4.5 5.45 3.4Q2.95 3 2.35 1.55Q1.3 2 1.7 2.55L2.3 3.2L3.95 3.9" />
<path style="fill:none;stroke-width:0.7;stroke-linecap:round;stroke-linejoin:round;stroke-miterlimit:3;stroke:#000000;stroke-opacity:0.301961" d="M1.75 0.15L0.2 0.75Q-0.3 1.5 0.5 2.7Q1.25 3.9 1.6 5.55Q1.95 7.15 4.5 6.15Q5.1 6.95 7.15 6.85Q8.15 8.85 8.85 6.85Q9.5 4.85 6.4 2.85Q5.7 0.85 4 0.35L1.75 0.15z" />
</g>
</svg>
