<?xml version="1.0" encoding="utf-8"?>
<svg version="1.1" id="Layer_1"
xmlns="http://www.w3.org/2000/svg"
xmlns:xlink="http://www.w3.org/1999/xlink"
width="4px" height="4px"
xml:space="preserve">
<g id="PathID_3678" transform="matrix(1, 0, 0, 1, 0.15, 0.15)">
<path style="fill:#5B5555;fill-opacity:1" d="M3.55 2.25Q3.4 2.75 2.7 2.75Q0.55 2.75 0.1 2.05L0 0.95Q0 0.25 0.25 0.1Q-0.15 1.4 3.55 1.6L3.55 2.25" />
<path style="fill:#808080;fill-opacity:1" d="M3.35 0.6Q3.55 0.85 3.55 1.6Q-0.15 1.4 0.25 0.1Q2.65 -0.2 3.35 0.6" />
<path style="fill:none;stroke-width:0.7;stroke-linecap:round;stroke-linejoin:round;stroke-miterlimit:3;stroke:#000000;stroke-opacity:0.301961" d="M3.55 1.6Q3.55 0.85 3.35 0.6Q2.65 -0.2 0.25 0.1Q0 0.25 0 0.95L0.1 2.05Q0.55 2.75 2.7 2.75Q3.4 2.75 3.55 2.25L3.55 1.6z" />
</g>
</svg>
