<?xml version="1.0" encoding="utf-8"?>
<svg version="1.1" id="Layer_1"
xmlns="http://www.w3.org/2000/svg"
xmlns:xlink="http://www.w3.org/1999/xlink"
width="16px" height="11px"
xml:space="preserve">
<g id="PathID_2213" transform="matrix(1, 0, 0, 1, 0.1, 0.1)">
<path style="fill:#808080;fill-opacity:1" d="M13.05 8.65Q13.55 10 11.7 9.4L11.2 8.65L13.05 8.65M7.5 7.85L7.75 5.8Q8.5 4.95 9.85 5.35L12.15 7.7L10.35 7.5L8.95 5.6L8.85 8.5L7.5 7.85M8.8 9.9Q7.85 11 7.25 9.9L7.45 8.95L8.8 9.9" />
<path style="fill:#665B52;fill-opacity:1" d="M12.15 7.7L13.05 8.65L11.2 8.65L10.35 7.5L12.15 7.7M7.45 8.95L7.5 7.85L8.85 8.5L8.8 9.9L7.45 8.95" />
<path style="fill:none;stroke-width:0.7;stroke-linecap:round;stroke-linejoin:round;stroke-miterlimit:3;stroke:#000000;stroke-opacity:0.498039" d="M13.05 8.65Q13.55 10 11.7 9.4L11.2 8.65L10.35 7.5L8.95 5.6L8.85 8.5L8.8 9.9Q7.85 11 7.25 9.9L7.45 8.95L7.5 7.85L7.75 5.8Q8.5 4.95 9.85 5.35L12.15 7.7L13.05 8.65z" />
</g>
<g id="PathID_2214" transform="matrix(1, 0, 0, 1, 0.1, 0.1)">
<path style="fill:#808080;fill-opacity:1" d="M13.7 1.6Q13.2 2.25 13.25 3.25L10.85 5.7L10.4 5.25Q9.95 5.8 9.5 5.8Q9.15 5.8 8.65 5.4L8.2 5.4Q7.95 6.3 6.5 6.3L6.05 6.05Q5.95 6.05 5.6 6.35L5.25 6.95Q2.9 6.45 0.25 4.5Q-0.4 3.25 0.6 3.45Q4.7 6.35 8.2 5.3Q11.25 4.4 13.8 0.65L14.1 0.2Q14.8 -0.35 14.9 0.65L14.9 0.75L14.7 1.15Q14.25 0.85 13.7 1.6" />
<path style="fill:#665B52;fill-opacity:1" d="M14.7 1.15L13.25 3.25Q13.2 2.25 13.7 1.6Q14.25 0.85 14.7 1.15M10.85 5.7Q8.25 7.45 5.25 6.95L5.6 6.35Q5.95 6.05 6.05 6.05L6.5 6.3Q7.95 6.3 8.2 5.4L8.65 5.4Q9.15 5.8 9.5 5.8Q9.95 5.8 10.4 5.25L10.85 5.7" />
<path style="fill:none;stroke-width:0.7;stroke-linecap:round;stroke-linejoin:round;stroke-miterlimit:3;stroke:#000000;stroke-opacity:0.498039" d="M5.25 6.95Q2.9 6.45 0.25 4.5Q-0.4 3.25 0.6 3.45Q4.7 6.35 8.2 5.3Q11.25 4.4 13.8 0.65L14.1 0.2Q14.8 -0.35 14.9 0.65L14.9 0.75L14.7 1.15L13.25 3.25L10.85 5.7Q8.25 7.45 5.25 6.95z" />
</g>
</svg>
