<?xml version="1.0" encoding="utf-8"?>
<svg version="1.1" id="Layer_1"
xmlns="http://www.w3.org/2000/svg"
xmlns:xlink="http://www.w3.org/1999/xlink"
width="13px" height="8px"
xml:space="preserve">
<g id="PathID_2472" transform="matrix(1, 0, 0, 1, 0, 0)">
<path style="fill:#808080;fill-opacity:1" d="M9.3 1.65Q3.3 0.95 0.25 7.9Q-0.5 5.75 1 3.55Q3.6 0.1 7.6 0Q9.7 0.05 11.55 0.9Q12.35 1.25 12.95 2.25Q13.15 2.9 12.4 3.1Q10.9 1.8 9.3 1.65" />
<path style="fill:none;stroke-width:0.7;stroke-linecap:round;stroke-linejoin:round;stroke-miterlimit:3;stroke:#000000;stroke-opacity:0.4" d="M9.3 1.65Q3.3 0.95 0.25 7.9Q-0.5 5.75 1 3.55Q3.6 0.1 7.6 0Q9.7 0.05 11.55 0.9Q12.35 1.25 12.95 2.25Q13.15 2.9 12.4 3.1Q10.9 1.8 9.3 1.65z" />
</g>
</svg>
