<?xml version="1.0" encoding="utf-8"?>
<svg version="1.1" id="Layer_1"
xmlns="http://www.w3.org/2000/svg"
xmlns:xlink="http://www.w3.org/1999/xlink"
width="35px" height="35px"
xml:space="preserve">
<g id="PathID_44" transform="matrix(1, 0, 0, 1, 1.9, -0.05)">
<path style="fill:#808080;fill-opacity:1" d="M25.8 5.35Q23.25 7.05 20.65 7.5L18.35 7.85Q20.05 12 20.05 18Q20.05 24.6 18.7 28.85Q17.1 33.8 14.95 34.7Q12 25.5 13.05 13.95L13.15 8.45L9.15 8.7Q6.25 8.55 4.2 7.8Q2.15 7 0.7 5.9Q-0.8 4.75 -1.75 2.95Q0.3 1.95 2.7 1.7L7.6 2.2Q10.15 2.95 15.25 5.45L17.7 3.5Q20.3 1.45 21.25 1.1Q23.05 0.45 25.95 0.2L28.45 0.6Q30.3 1.05 31.85 1.85Q33.4 2.65 30.05 3.75Q26.65 4.8 25.8 5.35" />
<path style="fill:none;stroke-width:0.7;stroke-linecap:round;stroke-linejoin:round;stroke-miterlimit:3;stroke:#000000;stroke-opacity:0.25098" d="M25.8 5.35Q23.25 7.05 20.65 7.5L18.35 7.85Q20.05 12 20.05 18Q20.05 24.6 18.7 28.85Q17.1 33.8 14.95 34.7Q12 25.5 13.05 13.95L13.15 8.45L9.15 8.7Q6.25 8.55 4.2 7.8Q2.15 7 0.7 5.9Q-0.8 4.75 -1.75 2.95Q0.3 1.95 2.7 1.7L7.6 2.2Q10.15 2.95 15.25 5.45L17.7 3.5Q20.3 1.45 21.25 1.1Q23.05 0.45 25.95 0.2L28.45 0.6Q30.3 1.05 31.85 1.85Q33.4 2.65 30.05 3.75Q26.65 4.8 25.8 5.35z" />
</g>
</svg>
