<?xml version="1.0" encoding="utf-8"?>
<svg version="1.1" id="Layer_1"
xmlns="http://www.w3.org/2000/svg"
xmlns:xlink="http://www.w3.org/1999/xlink"
width="6px" height="5px"
xml:space="preserve">
<g id="PathID_3820" transform="matrix(1, 0, 0, 1, 0.1, 0)">
<path style="fill:#808080;fill-opacity:1" d="M4.8 0.5L5.2 0L5.55 0.5L4.05 2.85L5 4.35L3.45 3.6L2.65 4.6L2.85 3.4L1.4 3.25L2.85 2.8L3.25 2.75L2.25 2.55L1.05 3.15L1.3 2.4L0 2.1L2.25 1.7L3.1 0.35L3.7 0.4L2.7 2.15L3.25 2.75L2.85 2.8L4.8 0.5" />
<path style="fill:none;stroke-width:0.7;stroke-linecap:round;stroke-linejoin:round;stroke-miterlimit:3;stroke:#000000;stroke-opacity:0.4" d="M5.55 0.5L4.05 2.85L5 4.35L3.45 3.6L2.65 4.6L2.85 3.4L1.4 3.25L2.85 2.8L2.25 2.55L1.05 3.15L1.3 2.4L0 2.1L2.25 1.7L3.1 0.35L3.7 0.4L2.7 2.15L3.25 2.75L4.8 0.5" />
<path style="fill:none;stroke-width:0.7;stroke-linecap:round;stroke-linejoin:round;stroke-miterlimit:3;stroke:#000000;stroke-opacity:0.4" d="M3.25 2.75L2.85 2.8" />
</g>
</svg>
