<?xml version="1.0" encoding="utf-8"?>
<svg version="1.1" id="Layer_1"
xmlns="http://www.w3.org/2000/svg"
xmlns:xlink="http://www.w3.org/1999/xlink"
width="34px" height="31px"
xml:space="preserve">
<g id="PathID_3254" transform="matrix(1, 0, 0, 1, 0, 0)">
<path style="fill:#808080;fill-opacity:1" d="M13.6 7.75L16.15 5.6Q16.6 4.6 19.85 3.15Q23.1 1.65 24.8 0Q22.5 4.15 18.8 6.4L22.8 4.55L25.85 4.55L21.4 6.35L26 5.4Q29.6 5.25 33.3 4.1Q30.7 8.55 21.95 10L27 9.85Q30.6 11.7 32.1 13.5Q30.3 12.3 25.85 12.65Q29.1 15.15 30.05 17.65L24.05 14.3L26.4 16.9L27.7 18.4L29.1 19.2L30.25 19.65L27.05 19.1Q25.05 18.45 21 16L21 17.65L17.95 16.55L19.35 19Q15.1 17.35 13.5 15.7Q14.8 17.65 14.55 18.45L11.95 16.6Q11.35 20.4 9.6 23.35L9.6 17.95L6.2 17.95L9.95 14.15L5.35 15.25L9.9 11.05Q6.3 10.65 2.75 8.05L10 7.9L10.05 3.65L12.35 6.5Q14.25 4.95 16.15 0.9Q15.65 4.6 13.6 7.75" />
<path style="fill:#4A4139;fill-opacity:1" d="M18.8 6.4Q22.5 4.15 24.8 0Q23.55 3.95 22.8 4.55L18.8 6.4M25.85 4.55L24.85 5.4L26 5.4L21.4 6.35L25.85 4.55M33.3 4.1Q30.85 9.05 27 9.85L21.95 10Q30.7 8.55 33.3 4.1M24.05 14.3L30.05 17.65L26.4 16.9L24.05 14.3M16.15 0.9L16.15 5.6L13.6 7.75Q15.65 4.6 16.15 0.9" />
<path style="fill:#4D3D36;fill-opacity:1" d="M30.25 19.65L28.05 20.05Q26.1 19.85 24.35 18.95L27.65 22.25L24.9 20.65L20.1 18.85L24.15 23.9L16.9 18.95L18 21L15.15 18.9L17.9 23.1L13.6 19.9L13.15 22.6L11.75 22.05L10.15 26.35L9.8 24.3L10.5 28.4L9.35 25.7L9.35 30.35L8.1 24.5L8.1 27.55L7.3 24.75L5.75 28L5.6 24.45L4.35 26.85L4.35 23.4L1 24.5L3.65 20.05L0.1 20.05L2 16.75L0 14.7L6.65 11.05L2.75 8.05Q6.3 10.65 9.9 11.05L5.35 15.25L9.95 14.15L6.2 17.95L9.6 17.95L9.6 23.35Q11.35 20.4 11.95 16.6L14.55 18.45Q14.8 17.65 13.5 15.7Q15.1 17.35 19.35 19L17.95 16.55L21 17.65L21 16Q25.05 18.45 27.05 19.1L30.25 19.65M9.8 24.3L10.15 26.35" />
<path style="fill:none;stroke-width:0.7;stroke-linecap:round;stroke-linejoin:round;stroke-miterlimit:3;stroke:#000000;stroke-opacity:0.411765" d="M22.8 4.55Q23.55 3.95 24.8 0" />
<path style="fill:none;stroke-width:0.7;stroke-linecap:round;stroke-linejoin:round;stroke-miterlimit:3;stroke:#000000;stroke-opacity:0.411765" d="M22.8 4.55L25.85 4.55L24.85 5.4L26 5.4Q29.6 5.25 33.3 4.1Q30.85 9.05 27 9.85Q30.6 11.7 32.1 13.5Q30.3 12.3 25.85 12.65Q29.1 15.15 30.05 17.65L26.4 16.9L27.7 18.4L29.1 19.2L30.25 19.65L28.05 20.05Q26.1 19.85 24.35 18.95L27.65 22.25L24.9 20.65L20.1 18.85L24.15 23.9L16.9 18.95L18 21L15.15 18.9L17.9 23.1L13.6 19.9L13.15 22.6L11.75 22.05L10.15 26.35L10.5 28.4L9.35 25.7L9.35 30.35L8.1 24.5L8.1 27.55L7.3 24.75L5.75 28L5.6 24.45L4.35 26.85L4.35 23.4L1 24.5L3.65 20.05L0.1 20.05L2 16.75L0 14.7L6.65 11.05L2.75 8.05L10 7.9L10.05 3.65L12.35 6.5Q14.25 4.95 16.15 0.9L16.15 5.6Q16.6 4.6 19.85 3.15Q23.1 1.65 24.8 0" />
<path style="fill:none;stroke-width:0.7;stroke-linecap:round;stroke-linejoin:round;stroke-miterlimit:3;stroke:#000000;stroke-opacity:0.411765" d="M10.15 26.35L9.8 24.3" />
</g>
</svg>
