<?xml version="1.0" encoding="utf-8"?>
<svg version="1.1" id="Layer_1"
xmlns="http://www.w3.org/2000/svg"
xmlns:xlink="http://www.w3.org/1999/xlink"
width="4px" height="5px"
xml:space="preserve">
<g id="PathID_3714" transform="matrix(1, 0, 0, 1, 0.25, 0.25)">
<path style="fill:#4F4943;fill-opacity:1" d="M2.85 1.9L1.8 3.55Q1.15 3.65 0.95 3.3Q0.7 2.85 0.9 2.55Q2.1 2.2 3.35 0.3L2.85 1.9" />
<linearGradient
id="LinearGradID_1222" gradientUnits="userSpaceOnUse" gradientTransform="matrix(-0.00196838, -0.000534058, 0.000396729, -0.00151062, 1.6, 1.35)" spreadMethod ="pad" x1="-819.2" y1="0" x2="819.2" y2="0" >
<stop  offset="0" style="stop-color:#808080;stop-opacity:1" />
<stop  offset="1" style="stop-color:#BFBFBF;stop-opacity:1" />
</linearGradient>
<path style="fill:url(#LinearGradID_1222) " d="M1.3 0.3Q2.1 1.2 3.35 0.3Q2.1 2.2 0.9 2.55Q0.95 0.7 0 0.1L1.3 0.3" />
<path style="fill:none;stroke-width:0.7;stroke-linecap:round;stroke-linejoin:round;stroke-miterlimit:3;stroke:#000000;stroke-opacity:0.301961" d="M3.35 0.3Q2.1 1.2 1.3 0.3L0 0.1" />
<path style="fill:none;stroke-width:0.7;stroke-linecap:round;stroke-linejoin:round;stroke-miterlimit:3;stroke:#000000;stroke-opacity:0.301961" d="M1.8 3.55L2.85 1.9L3.35 0.3" />
</g>
</svg>
