<?xml version="1.0" encoding="utf-8"?>
<svg version="1.1" id="Layer_1"
xmlns="http://www.w3.org/2000/svg"
xmlns:xlink="http://www.w3.org/1999/xlink"
width="25px" height="21px"
xml:space="preserve">
<g id="PathID_3414" transform="matrix(1, 0, 0, 1, 0.2, 0.2)">
<path style="fill:#808080;fill-opacity:1" d="M13.3 4.65L12.5 5.1Q7.55 7.5 8.2 6.55L9.2 3.95L10.4 2.4Q13.1 -0.55 20.1 0.1Q22.6 1.65 22.35 2.6Q24.65 2.75 23.6 3.8L23.45 3.8L21.95 3.7Q23.05 4.7 21.7 4.95L15.4 5.25Q12 5.8 9.15 8.15L9.75 6.7L12.5 5.1L13.3 4.65M1.8 20.2L3.35 16.4L0 19.9L1.5 16.85L2.5 15.85Q3.8 14.3 4.55 11.6L5.15 11.65Q5.25 12.5 6.55 13.35Q5.3 18.05 1.8 20.2M18.65 4.15L21.95 3.7L18.65 4.15M16.9 2.6Q17.8 2.2 22.35 2.6Q17.8 2.2 16.9 2.6" />
<path style="fill:#46423E;fill-opacity:1" d="M23.45 3.8Q24.35 5.5 23.45 5.85Q11.45 4 7.05 12.15L7.05 13.65L6.55 13.35Q5.25 12.5 5.15 11.65L4.55 11.6Q5.75 9.3 9.75 6.7L9.15 8.15Q12 5.8 15.4 5.25L21.7 4.95Q23.05 4.7 21.95 3.7L23.45 3.8M4.55 11.6L5.45 8.7L6.35 7.1Q7.65 4.1 10.4 2.4L9.2 3.95Q7.75 5.8 7.25 6.9Q7.75 5.8 9.2 3.95L8.2 6.55Q7.55 7.5 12.5 5.1L9.75 6.7Q5.75 9.3 5.15 11.65M2.5 15.85L2.5 12.3L0.05 13.45L5.45 8.7L4.55 11.6Q3.8 14.3 2.5 15.85" />
<path style="fill:none;stroke-width:0.7;stroke-linecap:round;stroke-linejoin:round;stroke-miterlimit:3;stroke:#000000;stroke-opacity:0.4" d="M9.75 6.7Q5.75 9.3 5.15 11.65Q5.25 12.5 6.55 13.35L7.05 13.65L7.05 12.15Q11.45 4 23.45 5.85Q24.35 5.5 23.45 3.8L21.95 3.7L18.65 4.15" />
<path style="fill:none;stroke-width:0.7;stroke-linecap:round;stroke-linejoin:round;stroke-miterlimit:3;stroke:#000000;stroke-opacity:0.4" d="M10.4 2.4Q13.1 -0.55 20.1 0.1Q22.6 1.65 22.35 2.6Q24.65 2.75 23.6 3.8L23.45 3.8" />
<path style="fill:none;stroke-width:0.7;stroke-linecap:round;stroke-linejoin:round;stroke-miterlimit:3;stroke:#000000;stroke-opacity:0.4" d="M12.5 5.1L13.3 4.65" />
<path style="fill:none;stroke-width:0.7;stroke-linecap:round;stroke-linejoin:round;stroke-miterlimit:3;stroke:#000000;stroke-opacity:0.4" d="M9.2 3.95Q7.75 5.8 7.25 6.9" />
<path style="fill:none;stroke-width:0.7;stroke-linecap:round;stroke-linejoin:round;stroke-miterlimit:3;stroke:#000000;stroke-opacity:0.4" d="M10.4 2.4Q7.65 4.1 6.35 7.1L5.45 8.7L4.55 11.6L5.15 11.65" />
<path style="fill:none;stroke-width:0.7;stroke-linecap:round;stroke-linejoin:round;stroke-miterlimit:3;stroke:#000000;stroke-opacity:0.4" d="M2.5 15.85L1.5 16.85L0 19.9L3.35 16.4L1.8 20.2Q5.3 18.05 6.55 13.35" />
<path style="fill:none;stroke-width:0.7;stroke-linecap:round;stroke-linejoin:round;stroke-miterlimit:3;stroke:#000000;stroke-opacity:0.4" d="M1.5 16.85Q0.95 17.3 0.3 17.55" />
<path style="fill:none;stroke-width:0.7;stroke-linecap:round;stroke-linejoin:round;stroke-miterlimit:3;stroke:#000000;stroke-opacity:0.4" d="M9.75 6.7L12.5 5.1" />
<path style="fill:none;stroke-width:0.7;stroke-linecap:round;stroke-linejoin:round;stroke-miterlimit:3;stroke:#000000;stroke-opacity:0.4" d="M9.2 3.95L10.4 2.4" />
<path style="fill:none;stroke-width:0.7;stroke-linecap:round;stroke-linejoin:round;stroke-miterlimit:3;stroke:#000000;stroke-opacity:0.4" d="M5.45 8.7L0.05 13.45L2.5 12.3L2.5 15.85Q3.8 14.3 4.55 11.6" />
<path style="fill:none;stroke-width:0.7;stroke-linecap:round;stroke-linejoin:round;stroke-miterlimit:3;stroke:#000000;stroke-opacity:0.4" d="M22.35 2.6Q17.8 2.2 16.9 2.6" />
</g>
</svg>
