<?xml version="1.0" encoding="utf-8"?>
<svg version="1.1" id="Layer_1"
xmlns="http://www.w3.org/2000/svg"
xmlns:xlink="http://www.w3.org/1999/xlink"
width="26px" height="29px"
xml:space="preserve">
<g id="PathID_2086" transform="matrix(1, 0, 0, 1, 0, 0)">
<radialGradient
id="RadialGradID_634" gradientUnits="userSpaceOnUse" gradientTransform="matrix(0.00938416, 0, 0, 0.00938416, 8.95, -1.5)" spreadMethod ="pad" cx="0" cy="0" r="819.2" fx="99" fy="0" >
<stop  offset="0"  style="stop-color:#C4C4C4;stop-opacity:1" />
<stop  offset="1"  style="stop-color:#808080;stop-opacity:1" />
</radialGradient>
<path style="fill:url(#RadialGradID_634) " d="M3 4.9Q1.95 5.05 1.1 3.65L1.25 3.3Q2.25 1.25 4.3 1.45Q3.2 2.8 3 4.9M8.3 3.25Q8.15 1.6 9.65 0.2Q8.15 1.6 8.3 3.25L8.4 3.85L6.7 3.05L6.6 4.45Q4.45 4.35 3.95 3.1L4.95 1.55Q6.9 -0.6 9.65 0.2Q10.5 -0.4 10.8 0.65Q12.4 0.2 13.5 2.25Q11.75 5.15 9.95 4.45L9.95 3.55Q9.95 2.95 10.1 2.4Q9.4 3.55 8.3 3.25M10.8 0.65Q10.3 1.5 10.1 2.4Q10.3 1.5 10.8 0.65" />
<linearGradient
id="LinearGradID_635" gradientUnits="userSpaceOnUse" gradientTransform="matrix(0, 0.00518799, -0.00791931, 0, 11.15, 3.6)" spreadMethod ="pad" x1="-819.2" y1="0" x2="819.2" y2="0" >
<stop  offset="0" style="stop-color:#413C37;stop-opacity:1" />
<stop  offset="1" style="stop-color:#5F5B57;stop-opacity:1" />
</linearGradient>
<path style="fill:url(#LinearGradID_635) " d="M11.6 8.1Q9.4 6.25 8.7 4.6Q10.35 6.55 10.05 4.95Q12.95 5.9 13.5 2.25L14.05 3.55Q14.7 5.75 12.2 8.05L11.1 8.35L7.6 10.15L11.6 8.1M7.6 10.15Q4.8 9.85 3.9 7.55Q3.1 5.5 3.75 3.65Q3.1 5.5 3.9 7.55Q4.8 9.85 7.6 10.15Q6.2 11.2 2.75 9.85Q-0.75 7.4 1.1 3.65Q1.2 5.65 2.95 5.7L3 4.9Q3.2 2.8 4.3 1.45L4.95 1.55L3.95 3.1L3.75 3.65Q4.05 5.1 7.6 5.35L7.05 3.7L8.6 6.25L8.7 4.6L8.4 3.85L8.3 3.25Q8.95 4.45 9.95 3.55L9.95 4.45L10.05 4.95Q10.35 6.55 11.6 8.1L11.1 8.35M8.7 4.6Q9.4 6.25 11.6 8.1" />
<path style="fill:#BFBFBF;fill-opacity:1" d="M9.95 4.45Q11.75 5.15 13.5 2.25Q12.95 5.9 10.05 4.95L9.95 4.45M8.6 6.25L7.05 3.7L7.6 5.35Q4.05 5.1 3.75 3.65L3.95 3.1Q4.45 4.35 6.6 4.45L6.7 3.05L8.4 3.85L8.7 4.6L8.6 6.25M10.1 2.4Q9.95 2.95 9.95 3.55Q8.95 4.45 8.3 3.25Q9.4 3.55 10.1 2.4M3 4.9L2.95 5.7Q1.2 5.65 1.1 3.65Q1.95 5.05 3 4.9" />
<path style="fill:none;stroke-width:0.7;stroke-linecap:round;stroke-linejoin:round;stroke-miterlimit:3;stroke:#000000;stroke-opacity:0.301961" d="M11.1 8.35L12.2 8.05Q14.7 5.75 14.05 3.55L13.5 2.25" />
<path style="fill:none;stroke-width:0.7;stroke-linecap:round;stroke-linejoin:round;stroke-miterlimit:3;stroke:#000000;stroke-opacity:0.301961" d="M10.05 4.95Q10.35 6.55 11.6 8.1L11.1 8.35L7.6 10.15Q6.2 11.2 2.75 9.85Q-0.75 7.4 1.1 3.65L1.25 3.3Q2.25 1.25 4.3 1.45L4.95 1.55Q6.9 -0.6 9.65 0.2Q10.5 -0.4 10.8 0.65Q12.4 0.2 13.5 2.25" />
<path style="fill:none;stroke-width:0.7;stroke-linecap:round;stroke-linejoin:round;stroke-miterlimit:3;stroke:#000000;stroke-opacity:0.301961" d="M9.95 4.45L10.05 4.95" />
<path style="fill:none;stroke-width:0.7;stroke-linecap:round;stroke-linejoin:round;stroke-miterlimit:3;stroke:#000000;stroke-opacity:0.301961" d="M9.95 3.55L9.95 4.45" />
<path style="fill:none;stroke-width:0.7;stroke-linecap:round;stroke-linejoin:round;stroke-miterlimit:3;stroke:#000000;stroke-opacity:0.301961" d="M8.4 3.85L8.7 4.6Q9.4 6.25 11.6 8.1" />
<path style="fill:none;stroke-width:0.7;stroke-linecap:round;stroke-linejoin:round;stroke-miterlimit:3;stroke:#000000;stroke-opacity:0.301961" d="M8.3 3.25L8.4 3.85" />
<path style="fill:none;stroke-width:0.7;stroke-linecap:round;stroke-linejoin:round;stroke-miterlimit:3;stroke:#000000;stroke-opacity:0.301961" d="M3.95 3.1L3.75 3.65" />
<path style="fill:none;stroke-width:0.7;stroke-linecap:round;stroke-linejoin:round;stroke-miterlimit:3;stroke:#000000;stroke-opacity:0.301961" d="M8.3 3.25Q8.15 1.6 9.65 0.2" />
<path style="fill:none;stroke-width:0.7;stroke-linecap:round;stroke-linejoin:round;stroke-miterlimit:3;stroke:#000000;stroke-opacity:0.301961" d="M10.1 2.4Q9.95 2.95 9.95 3.55" />
<path style="fill:none;stroke-width:0.7;stroke-linecap:round;stroke-linejoin:round;stroke-miterlimit:3;stroke:#000000;stroke-opacity:0.301961" d="M10.1 2.4Q10.3 1.5 10.8 0.65" />
<path style="fill:none;stroke-width:0.7;stroke-linecap:round;stroke-linejoin:round;stroke-miterlimit:3;stroke:#000000;stroke-opacity:0.301961" d="M3.95 3.1L4.95 1.55" />
<path style="fill:none;stroke-width:0.7;stroke-linecap:round;stroke-linejoin:round;stroke-miterlimit:3;stroke:#000000;stroke-opacity:0.301961" d="M7.6 10.15Q4.8 9.85 3.9 7.55Q3.1 5.5 3.75 3.65" />
</g>
<g id="PathID_2087" transform="matrix(1, 0, 0, 1, 0, 0)">
<path style="fill:#BFBFBF;fill-opacity:1" d="M23.25 10.9L21.2 12.9L18.95 13.55Q16.25 13.5 14.65 10.15Q17.45 13.15 19.9 12.4L20.75 12L20.9 11.95L22.3 10.8Q23.5 9.85 22.55 8.1Q23.65 9.8 23.25 10.9M8.85 21.6L8.85 21.3Q8.85 20.45 9.65 19.05Q10.1 20.1 12.15 20L11.9 20.65Q10.4 20.3 8.85 21.6M11.15 12.2L11 12.65Q6.4 12.1 6.3 10.35L6.9 9.65Q8.05 11.85 11.15 12.2M12.6 12.1Q14.6 13.35 15.2 12.65L15.55 13.45Q14.55 13.2 14.3 14.5L12.6 12.1" />
<linearGradient
id="LinearGradID_636" gradientUnits="userSpaceOnUse" gradientTransform="matrix(0.00125122, 0.00469971, -0.00177002, 0.000473022, 17.75, 11.55)" spreadMethod ="pad" x1="-819.2" y1="0" x2="819.2" y2="0" >
<stop  offset="0" style="stop-color:#413C37;stop-opacity:1" />
<stop  offset="1" style="stop-color:#5F5B57;stop-opacity:1" />
</linearGradient>
<path style="fill:url(#LinearGradID_636) " d="M15.55 13.45L15.2 12.65Q14.75 11.5 14.65 10.15Q16.25 13.5 18.95 13.55Q19.8 14.3 20.25 15.9L21.2 12.9L23.25 10.9Q23.65 9.8 22.55 8.1Q25.15 9.9 25.4 14.25Q24.1 11.3 23.25 10.9Q23.85 12.6 24.1 14.35L22.2 15.35L21.85 15.6L20.25 15.9Q19.8 14.3 18.95 13.55L17.8 16.15Q16.35 14.95 15.55 13.45M11.8 10.15L12.6 12.1L14.3 14.5L15.95 16.05L14.45 15.3L13.05 14.25Q11.45 12.6 11.8 10.15M22.2 15.35Q22.05 13.75 21.2 12.9Q22.05 13.75 22.2 15.35" />
<radialGradient
id="RadialGradID_637" gradientUnits="userSpaceOnUse" gradientTransform="matrix(0.0108643, 0, 0, 0.0108643, 17.4, 4.5)" spreadMethod ="pad" cx="0" cy="0" r="819.2" fx="99" fy="0" >
<stop  offset="0"  style="stop-color:#C4C4C4;stop-opacity:1" />
<stop  offset="1"  style="stop-color:#808080;stop-opacity:1" />
</radialGradient>
<path style="fill:url(#RadialGradID_637) " d="M15.2 12.65Q14.6 13.35 12.6 12.1L11.8 10.15L11.15 12.2Q8.05 11.85 6.9 9.65L7.35 9.25Q9.25 7.6 12.15 7.9Q14.7 6.4 16.3 7.2Q18.5 6.95 20.9 8.95Q18.5 6.95 16.3 7.2Q17.45 6.6 19.25 6.7Q21 6.75 22.55 8.1Q23.5 9.85 22.3 10.8L20.9 11.95L20.75 12L19.9 12.4Q17.45 13.15 14.65 10.15Q14.75 11.5 15.2 12.65M15.55 13.45Q16.35 14.95 17.8 16.15L18.95 16.95L15.95 16.05L14.3 14.5Q14.55 13.2 15.55 13.45M20.9 11.95Q19.1 7.9 16.3 7.2Q19.1 7.9 20.9 11.95" />
<linearGradient
id="LinearGradID_638" gradientUnits="userSpaceOnUse" gradientTransform="matrix(-0.000823975, 0.00306702, -0.00765991, -0.00205994, 9.35, 11.55)" spreadMethod ="pad" x1="-819.2" y1="0" x2="819.2" y2="0" >
<stop  offset="0" style="stop-color:#413C37;stop-opacity:1" />
<stop  offset="1" style="stop-color:#5F5B57;stop-opacity:1" />
</linearGradient>
<path style="fill:url(#LinearGradID_638) " d="M11.15 14.65L11.2 15Q11.05 16.8 10 18.45L9.65 19.05Q8.85 20.45 8.85 21.3L8.85 21.6L9.2 23.15Q10.5 23.55 11.75 21.5L11.75 22.55L11.75 26.15Q11.6 27.75 8.4 28.4L8.4 28.3L9.35 27.35Q9.95 26.4 9.95 25.7L9.35 23.55L9.2 23.15L8.95 23.05L8.65 22.9L8.5 22.8Q6.4 22.15 5.65 25.7Q4.7 22.85 7.15 22.05L4.85 19.3Q3.9 18.1 4.4 14.75Q4.75 12.2 6.3 10.35Q6.4 12.1 11 12.65L11.15 12.2L11.8 10.15Q11.45 12.6 13.05 14.25L13.3 15.55L13.3 16.75Q13.3 18 12.8 18.95Q12.35 15.45 11.15 14.65M8.5 22.8L7.15 22.05L8.5 22.8" />
<path style="fill:#808080;fill-opacity:1" d="M9.65 19.05L10 18.45Q11.05 16.8 11.2 15L11.15 14.65Q12.35 15.45 12.8 18.95L12.45 19.5L12.15 20Q10.1 20.1 9.65 19.05M9.2 23.15L8.85 21.6Q10.4 20.3 11.9 20.65L11.75 21.5Q10.5 23.55 9.2 23.15" />
<path style="fill:none;stroke-width:0.7;stroke-linecap:round;stroke-linejoin:round;stroke-miterlimit:3;stroke:#000000;stroke-opacity:0.301961" d="M22.55 8.1Q21 6.75 19.25 6.7Q17.45 6.6 16.3 7.2" />
<path style="fill:none;stroke-width:0.7;stroke-linecap:round;stroke-linejoin:round;stroke-miterlimit:3;stroke:#000000;stroke-opacity:0.14902" d="M16.3 7.2Q18.5 6.95 20.9 8.95" />
<path style="fill:none;stroke-width:0.7;stroke-linecap:round;stroke-linejoin:round;stroke-miterlimit:3;stroke:#000000;stroke-opacity:0.301961" d="M22.55 8.1Q25.15 9.9 25.4 14.25Q24.1 11.3 23.25 10.9Q23.85 12.6 24.1 14.35L22.2 15.35L21.85 15.6L20.25 15.9L17.8 16.15L18.95 16.95L15.95 16.05L14.45 15.3L13.05 14.25L13.3 15.55L13.3 16.75Q13.3 18 12.8 18.95L12.45 19.5L12.15 20L11.9 20.65L11.75 21.5L11.75 22.55L11.75 26.15Q11.6 27.75 8.4 28.4L8.4 28.3L9.35 27.35Q9.95 26.4 9.95 25.7L9.35 23.55L9.2 23.15L8.95 23.05L8.65 22.9L8.5 22.8Q6.4 22.15 5.65 25.7Q4.7 22.85 7.15 22.05L4.85 19.3Q3.9 18.1 4.4 14.75Q4.75 12.2 6.3 10.35L6.9 9.65L7.35 9.25Q9.25 7.6 12.15 7.9Q14.7 6.4 16.3 7.2" />
<path style="fill:none;stroke-width:0.7;stroke-linecap:round;stroke-linejoin:round;stroke-miterlimit:3;stroke:#000000;stroke-opacity:0.14902" d="M16.3 7.2Q19.1 7.9 20.9 11.95" />
<path style="fill:none;stroke-width:0.7;stroke-linecap:round;stroke-linejoin:round;stroke-miterlimit:3;stroke:#000000;stroke-opacity:0.14902" d="M21.2 12.9Q22.05 13.75 22.2 15.35" />
<path style="fill:none;stroke-width:0.7;stroke-linecap:round;stroke-linejoin:round;stroke-miterlimit:3;stroke:#000000;stroke-opacity:0.301961" d="M15.2 12.65Q14.75 11.5 14.65 10.15" />
<path style="fill:none;stroke-width:0.7;stroke-linecap:round;stroke-linejoin:round;stroke-miterlimit:3;stroke:#000000;stroke-opacity:0.301961" d="M11.8 10.15Q11.45 12.6 13.05 14.25" />
<path style="fill:none;stroke-width:0.7;stroke-linecap:round;stroke-linejoin:round;stroke-miterlimit:3;stroke:#000000;stroke-opacity:0.301961" d="M9.65 19.05Q8.85 20.45 8.85 21.3L8.85 21.6" />
<path style="fill:none;stroke-width:0.7;stroke-linecap:round;stroke-linejoin:round;stroke-miterlimit:3;stroke:#000000;stroke-opacity:0.301961" d="M7.15 22.05L8.5 22.8" />
<path style="fill:none;stroke-width:0.7;stroke-linecap:round;stroke-linejoin:round;stroke-miterlimit:3;stroke:#000000;stroke-opacity:0.301961" d="M8.85 21.6L9.2 23.15" />
<path style="fill:none;stroke-width:0.7;stroke-linecap:round;stroke-linejoin:round;stroke-miterlimit:3;stroke:#000000;stroke-opacity:0.301961" d="M11.15 14.65L11.2 15Q11.05 16.8 10 18.45L9.65 19.05" />
<path style="fill:none;stroke-width:0.7;stroke-linecap:round;stroke-linejoin:round;stroke-miterlimit:3;stroke:#000000;stroke-opacity:0.301961" d="M15.55 13.45L15.2 12.65" />
<path style="fill:none;stroke-width:0.7;stroke-linecap:round;stroke-linejoin:round;stroke-miterlimit:3;stroke:#000000;stroke-opacity:0.301961" d="M15.55 13.45Q16.35 14.95 17.8 16.15" />
<path style="fill:none;stroke-width:0.7;stroke-linecap:round;stroke-linejoin:round;stroke-miterlimit:3;stroke:#000000;stroke-opacity:0.14902" d="M20.25 15.9Q19.8 14.3 18.95 13.55" />
</g>
<g id="PathID_2088" transform="matrix(1, 0, 0, 1, 0, 0)">
<path style="fill:none;stroke-width:0.7;stroke-linecap:round;stroke-linejoin:round;stroke-miterlimit:3;stroke:#808080;stroke-opacity:0.411765" d="M5.7 1.5L5.05 0.9L3.7 0.65Q1.75 0.65 0.75 1.95Q-0.15 3.15 0.05 5.15Q0.2 7.1 1.2 8.25Q2.2 9.4 6.7 9.95" />
<path style="fill:none;stroke-width:0.7;stroke-linecap:round;stroke-linejoin:round;stroke-miterlimit:3;stroke:#808080;stroke-opacity:0.411765" d="M12.15 0.8Q14.6 0.4 15 3.35Q15.4 6.25 12.3 7.65" />
</g>
</svg>
