<?xml version="1.0" encoding="utf-8"?>
<svg version="1.1" id="Layer_1"
xmlns="http://www.w3.org/2000/svg"
xmlns:xlink="http://www.w3.org/1999/xlink"
width="30px" height="19px"
xml:space="preserve">
<g id="PathID_2490" transform="matrix(1, 0, 0, 1, 0.15, 0.15)">
<path style="fill:#808080;fill-opacity:1" d="M15.2 9.55Q16.25 9 18.8 8.75L23.4 9.15Q25.2 9.7 25.8 10.2L25.35 9.2L27.65 11.15Q28.7 11.45 29.15 13.15Q29.6 14.8 27.35 15Q28.05 14.1 27.9 13.5Q26.95 12.5 24.85 11.15L22.8 10.4Q20.85 9.8 16.35 11.2Q11.75 12.65 9.4 12.65L15.2 9.55M25.35 9.2Q24.95 8 22.6 7.65L23.75 8.45L21.45 8.2L18.2 8Q18.4 7.6 19.1 7.4L20.3 7.1L19.25 7L17.05 7.65Q15.05 8.45 14.55 8.8L13.95 9.35Q13.25 9.6 11.35 10.95Q9.45 12.25 9.25 12.65L9.2 12.65Q7.95 13.25 6.85 14L6.75 13.9Q6.05 13.4 6.05 12.5Q6.05 12.15 7.1 10.9L8.4 9.45L12.6 7.3Q15.25 6.1 17.4 6.1L21.95 6.7Q24.75 7.3 25.6 8.35L25.65 7.85Q25.65 7.05 25.15 6.8L24 6.2Q22.5 4.8 21.6 4.8L19.55 5.25L17.05 5.75L12.75 6.6L7.65 7.65Q6.25 7.85 5.35 9L4.35 8.8Q2.85 8.15 2.85 6.65Q2.85 6.1 3 5.6Q7.55 0.85 13.85 0Q18.7 0.65 23.7 2.9Q25.7 4.1 25.45 4.9Q26.95 5.15 26.45 7.4Q29 8.9 27.65 11.15L25.8 10.2" />
<path style="fill:#4F4943;fill-opacity:1" d="M25.8 10.2Q25.2 9.7 23.4 9.15L18.8 8.75Q16.25 9 15.2 9.55L9.4 12.65L9.25 12.65Q9.45 12.25 11.35 10.95Q13.25 9.6 13.95 9.35L14.55 8.8Q15.05 8.45 17.05 7.65L19.25 7L20.3 7.1L19.1 7.4Q18.4 7.6 18.2 8L21.45 8.2L23.75 8.45L22.6 7.65Q24.95 8 25.35 9.2L25.8 10.2M6.85 14Q3.6 16.05 2 18.4Q-2.45 18.35 2.95 5.6L3 5.6Q2.85 6.1 2.85 6.65Q2.85 8.15 4.35 8.8L5.35 9Q6.25 7.85 7.65 7.65L12.75 6.6L17.05 5.75L19.55 5.25L21.6 4.8Q22.5 4.8 24 6.2L25.15 6.8Q25.65 7.05 25.65 7.85L25.6 8.35Q24.75 7.3 21.95 6.7L17.4 6.1Q15.25 6.1 12.6 7.3L8.4 9.45L7.1 10.9Q6.05 12.15 6.05 12.5Q6.05 13.4 6.75 13.9L6.85 14" />
<path style="fill:#35322E;fill-opacity:1" d="M25.7 15.1Q25 13.15 24.85 11.15Q26.95 12.5 27.9 13.5Q28.05 14.1 27.35 15L25.7 15.1" />
<path style="fill:none;stroke-width:0.7;stroke-linecap:round;stroke-linejoin:round;stroke-miterlimit:3;stroke:#000000;stroke-opacity:0.4" d="M9.4 12.65Q11.75 12.65 16.35 11.2Q20.85 9.8 22.8 10.4L24.85 11.15Q26.95 12.5 27.9 13.5" />
<path style="fill:none;stroke-width:0.7;stroke-linecap:round;stroke-linejoin:round;stroke-miterlimit:3;stroke:#000000;stroke-opacity:0.4" d="M27.35 15Q29.6 14.8 29.15 13.15Q28.7 11.45 27.65 11.15L25.8 10.2" />
<path style="fill:none;stroke-width:0.7;stroke-linecap:round;stroke-linejoin:round;stroke-miterlimit:3;stroke:#000000;stroke-opacity:0.4" d="M9.4 12.65L9.25 12.65L9.2 12.65Q7.95 13.25 6.85 14Q3.6 16.05 2 18.4Q-2.45 18.35 2.95 5.6L3 5.6Q7.55 0.85 13.85 0Q18.7 0.65 23.7 2.9Q25.7 4.1 25.45 4.9Q26.95 5.15 26.45 7.4Q29 8.9 27.65 11.15" />
<path style="fill:none;stroke-width:0.7;stroke-linecap:round;stroke-linejoin:round;stroke-miterlimit:3;stroke:#000000;stroke-opacity:0.4" d="M24.85 11.15Q25 13.15 25.7 15.1L27.35 15" />
</g>
</svg>
