<?xml version="1.0" encoding="utf-8"?>
<svg version="1.1" id="Layer_1"
xmlns="http://www.w3.org/2000/svg"
xmlns:xlink="http://www.w3.org/1999/xlink"
width="8px" height="6px"
xml:space="preserve">
<g id="PathID_1125" transform="matrix(1, 0, 0, 1, 0, 0)">
<path style="fill:#808080;fill-opacity:1" d="M7.3 0.15Q7.3 0.85 7.7 1.25L7.85 1.35Q8.2 1.75 7.2 2.25Q4.55 3.45 2.1 5.4Q1.4 6.4 0.7 5.8Q-0.45 4.4 0.3 4.05L1.85 3.2L4.25 3.05Q4.75 2.25 4.7 1.45L6.25 0.4Q7 -0.25 7.3 0.15" />
<path style="fill:none;stroke-width:0.7;stroke-linecap:round;stroke-linejoin:round;stroke-miterlimit:3;stroke:#000000;stroke-opacity:0.301961" d="M7.7 1.25L7.85 1.35Q8.2 1.75 7.2 2.25Q4.55 3.45 2.1 5.4Q1.4 6.4 0.7 5.8Q-0.45 4.4 0.3 4.05L1.85 3.2L4.25 3.05Q4.75 2.25 4.7 1.45L6.25 0.4Q7 -0.25 7.3 0.15" />
</g>
</svg>
