<?xml version="1.0" encoding="utf-8"?>
<svg version="1.1" id="Layer_1"
xmlns="http://www.w3.org/2000/svg"
xmlns:xlink="http://www.w3.org/1999/xlink"
width="8px" height="7px"
xml:space="preserve">
<g id="PathID_2943" transform="matrix(1, 0, 0, 1, 0.15, 0.15)">
<path style="fill:#808080;fill-opacity:1" d="M1.8 1.65Q2.55 0.95 3.4 0.6Q2.95 2.7 3.8 3.8Q4.1 0.25 4.9 0.1Q6.1 0.7 5.95 2.8L5.45 0Q7.2 0.05 7.7 2.1Q6.8 2.4 5.95 2.8Q6.1 0.7 4.9 0.1Q4.85 3.25 3.8 3.8Q2.95 2.7 3.4 0.6L3.3 4.1Q2.1 3.7 1.8 1.65" />
<path style="fill:#4F4943;fill-opacity:1" d="M3.3 4.1L1.6 5.1Q0.7 3.35 1.8 1.65L0.4 5.9Q-0.55 4.45 0.9 2.5L1.8 1.65Q0.7 3.35 1.6 5.1Q2.1 3.7 3.3 4.1" />
<path style="fill:none;stroke-width:0.7;stroke-linecap:round;stroke-linejoin:round;stroke-miterlimit:3;stroke:#000000;stroke-opacity:0.4" d="M1.8 1.65Q2.55 0.95 3.4 0.6Q4.1 0.25 4.9 0.1L5.45 0Q7.2 0.05 7.7 2.1Q6.8 2.4 5.95 2.8Q4.85 3.25 3.8 3.8L3.3 4.1L1.6 5.1L0.4 5.9Q-0.55 4.45 0.9 2.5L1.8 1.65z" />
<path style="fill:none;stroke-width:0.7;stroke-linecap:round;stroke-linejoin:round;stroke-miterlimit:3;stroke:#000000;stroke-opacity:0.4" d="M3.4 0.6Q2.95 2.7 3.8 3.8" />
<path style="fill:none;stroke-width:0.7;stroke-linecap:round;stroke-linejoin:round;stroke-miterlimit:3;stroke:#000000;stroke-opacity:0.4" d="M1.8 1.65Q0.7 3.35 1.6 5.1" />
<path style="fill:none;stroke-width:0.7;stroke-linecap:round;stroke-linejoin:round;stroke-miterlimit:3;stroke:#000000;stroke-opacity:0.4" d="M4.9 0.1Q6.1 0.7 5.95 2.8" />
</g>
</svg>
