<?xml version="1.0" encoding="utf-8"?>
<svg version="1.1" id="Layer_1"
xmlns="http://www.w3.org/2000/svg"
xmlns:xlink="http://www.w3.org/1999/xlink"
width="8px" height="6px"
xml:space="preserve">
<g id="PathID_731" transform="matrix(1, 0, 0, 1, 3.65, 2.4)">
<path style="fill:#414858;fill-opacity:0.270588" d="M2.7 -1.1Q3.4 -0.45 3.6 0.55Q3.85 1.5 3.15 2.5Q2.5 3.45 1.3 3.55Q0.1 3.55 -1.05 2.55Q-2.25 1.45 -2.1 0.45Q-2 -0.65 -1 -1.2Q0 -1.75 0.95 -1.75Q1.95 -1.75 2.7 -1.1" />
</g>
<g id="PathID_732" transform="matrix(1, 0, 0, 1, 3.65, 2.4)">
<path style="fill:#B1AAA3;fill-opacity:1" d="M-2.15 0.25L-2.5 -0.35Q-0.85 -1.95 0.8 -2Q2.4 -2.1 3.2 -1.3L3.3 -0.05L-2.15 0.25" />
<path style="fill:#F0F3F8;fill-opacity:1" d="M-2.15 0.25L3.3 -0.05Q3.15 1.05 2.4 1.9Q1.15 2.65 -0.25 2.25Q-1.6 1.8 -2 0.95L-2.15 0.25" />
</g>
<g id="PathID_733" transform="matrix(1, 0, 0, 1, 3.65, 2.4)">
<path style="fill:#49BD92;fill-opacity:1" d="M2.45 -0.5L1.15 -0.6L0.3 0.15Q0.2 -0.6 0.4 -1.3Q0.55 -2 1.6 -2.15Q2.6 -2.35 3 -1.4Q3.35 -0.4 3.2 0.35L2.45 -0.5" />
<path style="fill:#2C9587;fill-opacity:1" d="M1.8 0.6Q1 0.45 1.15 -0.6L2.45 -0.5Q2.65 0.65 1.8 0.6" />
<path style="fill:#66FF99;fill-opacity:1" d="M2.45 -0.5L3.2 0.35L2.95 1.3Q2.55 2.2 1.65 2.1Q0.8 2 0.5 1.15L0.3 0.15L1.15 -0.6Q1 0.45 1.8 0.6Q2.65 0.65 2.45 -0.5" />
<path style="fill:none;stroke-width:0.7;stroke-linecap:round;stroke-linejoin:round;stroke-miterlimit:3;stroke:#000000;stroke-opacity:0.6" d="M0.3 0.15Q0.2 -0.6 0.4 -1.3Q0.55 -2 1.6 -2.15Q2.6 -2.35 3 -1.4Q3.35 -0.4 3.2 0.35L2.95 1.3Q2.55 2.2 1.65 2.1Q0.8 2 0.5 1.15L0.3 0.15z" />
</g>
<g id="PathID_734" transform="matrix(1, 0, 0, 1, 3.65, 2.4)">
<path style="fill:#231610;fill-opacity:1" d="M3.6 -0.7Q2.65 -1.55 0.85 -1.3Q-0.95 -1 -2.3 -0.35L-2.1 0.65L-2.75 -0.45L-3.65 -0.05Q-3.25 -0.6 -2.35 -1L-0.1 -2.05L2.4 -2.25Q3.45 -2 3.85 -1.2L3.35 -1.55L3.6 -0.7" />
</g>
<g id="PathID_735" transform="matrix(1, 0, 0, 1, 3.65, 2.4)">
<path style="fill:#F3F3FB;fill-opacity:1" d="M-0.2 -0.95Q0.5 -1.25 0.7 -0.75Q0.9 -0.25 0.25 0.05Q-0.4 0.45 -0.75 -0.1Q-1 -0.65 -0.2 -0.95" />
</g>
</svg>
