<?xml version="1.0" encoding="utf-8"?>
<svg version="1.1" id="Layer_1"
xmlns="http://www.w3.org/2000/svg"
xmlns:xlink="http://www.w3.org/1999/xlink"
width="17px" height="9px"
xml:space="preserve">
<g id="PathID_538" transform="matrix(1, 0, 0, 1, 0, 0)">
<linearGradient
id="LinearGradID_178" gradientUnits="userSpaceOnUse" gradientTransform="matrix(0.00869751, -0.00231934, 0.00140381, 0.00526428, 7.6, 4.5)" spreadMethod ="pad" x1="-819.2" y1="0" x2="819.2" y2="0" >
<stop  offset="0" style="stop-color:#808080;stop-opacity:0.6" />
<stop  offset="0.517647" style="stop-color:#808080;stop-opacity:0" />
</linearGradient>
<path style="fill:url(#LinearGradID_178) " d="M12.6 5.65L12.15 6.5Q11.2 7.65 9.85 8.25L5.6 8.85Q2.75 9.25 1.8 7.5L0.8 6.05Q-0.25 4.4 0.05 3.1L2.6 2.1L2.65 2.1Q4.4 1.1 6.65 1.5L10.6 1.95Q12.3 2.1 13.55 0.95Q14.8 -0.15 15.3 0L15.75 0.85Q16.45 2.7 15.85 4.55L13.6 4.45L12.6 5.65" />
</g>
</svg>
