<?xml version="1.0" encoding="utf-8"?>
<svg version="1.1" id="Layer_1"
xmlns="http://www.w3.org/2000/svg"
xmlns:xlink="http://www.w3.org/1999/xlink"
width="13px" height="12px"
xml:space="preserve">
<g id="PathID_581" transform="matrix(1, 0, 0, 1, 5.55, 5.1)">
<path style="fill:#211D14;fill-opacity:1" d="M2.65 -4.35L1.1 -4.45L0 -4.4L-0.05 -4.4L-0.9 -4.3L-3.35 -3.65L-3.55 -3.7L-3.9 -3.6L-3.8 -4.1L-1.05 -4.8L1.15 -4.95Q6.75 -5 6.8 -0.95L6.4 1.4Q5.3 3.85 1 5.95Q-2.65 5.25 -5.4 2.65Q-4.6 -2.4 -3.9 -3.5L-3.9 -3.6L-3.35 -3.65L-4.15 -0.05L-4.2 -0.05L-4.45 0.55L-4.3 0.5L-4.75 2.45L-4.3 2.85L-4.25 2.9L-2.6 4.1L-2.4 4.2L-0.95 4.9L-0.8 4.9L0.95 5.4Q4.8 3.45 5.8 1.3L6.2 -0.55L6.2 -0.8L6.15 -1.2Q6.05 -2.25 5.5 -2.95L4.95 -3.45Q4.25 -4 3.15 -4.25L2.65 -4.35M-3.9 -3.6L-3.55 -3.7L-3.35 -3.65L-3.9 -3.5" />
<path style="fill:none;stroke-width:0.7;stroke-linecap:round;stroke-linejoin:round;stroke-miterlimit:3;stroke:#000000;stroke-opacity:0.298039" d="M4.95 -3.45Q4.25 -4 3.15 -4.25L3.15 -4.2L2.25 -1.4L2.65 -0.6L4.95 -3.45L5.5 -2.95Q6.05 -2.25 6.15 -1.2L6.2 -0.8L6.2 -0.55L5.8 1.3Q4.8 3.45 0.95 5.4L-0.8 4.9L-0.95 4.9L-2.4 4.2L-2.6 4.1L-4.25 2.9L-4.3 2.85L-4.75 2.45L-4.3 0.5L-4.45 0.55L-4.2 -0.05L-4.15 -0.05L-3.35 -3.65L-3.9 -3.5Q-4.6 -2.4 -5.4 2.65Q-2.65 5.25 1 5.95Q5.3 3.85 6.4 1.4L6.8 -0.95Q6.75 -5 1.15 -4.95L-1.05 -4.8L-3.8 -4.1L-3.9 -3.6L-3.55 -3.7L-3.35 -3.65L-0.9 -4.3L-0.05 -4.4L0 -4.4L1.1 -4.45L2.65 -4.35L3.15 -4.25" />
<path style="fill:none;stroke-width:0.7;stroke-linecap:round;stroke-linejoin:round;stroke-miterlimit:3;stroke:#000000;stroke-opacity:0.298039" d="M2.65 -4.35L1.8 -1.5L1.75 -1.45Q1.55 -2.1 1.05 -2.3Q0.5 -4.25 0 -4.05L0.45 -2.25L-0.4 -2.1L-2.85 -3.3L-3.35 -2.95L-3.1 -2.85L-0.9 -1.6" />
<path style="fill:none;stroke-width:0.7;stroke-linecap:round;stroke-linejoin:round;stroke-miterlimit:3;stroke:#000000;stroke-opacity:0.298039" d="M5.5 -2.95L2.85 -0.25L3.2 0.2L3.35 0.15L6.15 -1.2" />
<path style="fill:none;stroke-width:0.7;stroke-linecap:round;stroke-linejoin:round;stroke-miterlimit:3;stroke:#000000;stroke-opacity:0.298039" d="M6.2 -0.55L3.5 0.45L3.1 1.9L-0.6 4.75L-0.8 4.9" />
<path style="fill:none;stroke-width:0.7;stroke-linecap:round;stroke-linejoin:round;stroke-miterlimit:3;stroke:#000000;stroke-opacity:0.298039" d="M-0.85 -1.3L-4.15 -0.05L-4.15 0.05L-4.3 0.5L-1.2 -0.55L-1.35 0.45L-3.95 2.45L-4.15 2.6L-4.1 2.7Q-3.85 2.75 -0.7 1L-0.3 1.7Q-2.55 3.5 -2.45 3.85L-2.15 3.8L0.65 1.9L1.65 2.1Q-0.9 4.25 -0.9 4.7L-0.6 4.75" />
<path style="fill:none;stroke-width:0.7;stroke-linecap:round;stroke-linejoin:round;stroke-miterlimit:3;stroke:#000000;stroke-opacity:0.298039" d="M-3.9 -3.5L-3.9 -3.6" />
</g>
</svg>
