<?xml version="1.0" encoding="utf-8"?>
<svg version="1.1" id="Layer_1"
xmlns="http://www.w3.org/2000/svg"
xmlns:xlink="http://www.w3.org/1999/xlink"
width="28px" height="28px"
xml:space="preserve">
<g id="PathID_2166" transform="matrix(1, 0, 0, 1, 0.1, 0.1)">
<linearGradient
id="LinearGradID_676" gradientUnits="userSpaceOnUse" gradientTransform="matrix(0.00440979, -0.00976563, 0.00335693, 0.00151062, 15, 12.7)" spreadMethod ="pad" x1="-819.2" y1="0" x2="819.2" y2="0" >
<stop  offset="0" style="stop-color:#5D5D5D;stop-opacity:1" />
<stop  offset="0.968627" style="stop-color:#B4B4B4;stop-opacity:1" />
</linearGradient>
<path style="fill:url(#LinearGradID_676) " d="M22.85 6.85L21.7 7.8Q21.15 7.45 21.05 6.95L22.85 6.85M18.5 4.65Q19.4 5.05 19.55 5.85Q20.65 5.9 21.15 4.35L20 7Q19.6 6.45 17.7 5.6Q17.45 4.7 18.5 4.65M15.4 1.9Q15.7 3.15 16.9 3.95Q17.45 4.6 16.25 4.65L15.5 3.65Q15.25 2.85 15.4 1.9M13.45 6.95L14.05 6.65L16 5.85Q17.9 7.55 18.65 7.6Q16.3 7.55 14.55 8.8Q12.15 8.75 13.45 6.95M8.05 12.7L5.45 12.55L4.45 12Q7.65 12.45 9.15 10.8L10.85 9.05Q13.65 7.9 12.05 10.7Q10.35 12 9.3 12.35L8.05 12.7M19.5 11.3Q18.7 11.7 18.65 11.1L19.25 9.05L17.65 11.5L15.75 13.45L15.75 13.4Q14.3 14.2 13.9 14.05Q13.5 13.8 14.65 12.15L16.15 10.8L14.3 12Q13.15 12.7 12.5 12.8Q11.75 12.9 12.85 11.1L13.35 10.6L12.85 11.1Q11.9 12.1 11.4 13.35Q11 14.25 10.85 15.3L10.65 17.05L10.8 19.3Q11.1 21.25 11.9 22.9Q10.75 22.45 10 20.55Q9.2 18.65 9.2 16Q8.95 17.5 9.1 18.95Q8.6 18.2 8.5 16.4Q9.35 14.35 11.15 12.45Q12.4 11.2 13.35 10.6L15.4 9.4Q17.4 8.45 19.3 8.2Q20.05 9.2 20.1 9.95Q20.85 9.6 21.05 8L21.4 8.45L22.2 9.15L23.1 10.05Q23.15 11.1 22.55 10.85L21.9 9.85L22.25 11.8L21.25 10.2L21.3 11.2Q20.1 12.9 19.5 11.3M20.6 13.45Q19.9 14.45 18.7 15.25L19.35 13.1Q20.25 12.2 20.6 13.45M24.3 14.1L23.05 12.25Q23.15 10.85 23.95 11.15Q24.6 13.05 24.3 14.1M14.8 5.8L14.05 5.8Q10.95 5.4 13.5 4.3L15.05 4.6Q15.95 5.6 14.8 5.8M9.25 4.65Q8.05 3.5 7.65 1.85Q8.7 3.35 11 4.05Q11.55 4.3 11.3 4.85L10.35 5.45L9.25 4.65M10.85 9.05L9.15 10.8Q7.65 12.45 4.45 12L5.45 12.55L0 16.85L2.95 13.3L3.65 12.6Q1.6 12.6 0.15 11.85Q2.4 12.15 5.1 10.85L8.25 9.35L7.65 9.45Q5.85 9.35 6.95 8.7L10.2 7.75L7.65 7.8Q6.2 7.4 6.7 6.85Q7.15 6.4 8.75 6.1L10.5 5.95Q12.5 5.8 14.05 6.65L13.45 6.95L10.85 9.05M8.75 5.2Q6.2 5.15 5.05 3.3L4.7 0.8Q6.05 3.5 8.75 5.2M6.15 6.95Q5.95 7.45 4.65 7.4Q3.45 7.35 1.7 6.2L1.15 5.25L1.15 5.2L2.55 5.9L5.8 6.2Q6.25 6.6 6.15 6.95M5.35 8.95Q6.5 9.2 4.8 9.6Q2.35 9.5 0.75 8.35Q3.05 9.3 5.35 8.95M4.95 17.9L7.95 14.5L7.85 17Q4.9 19.3 2.9 22.3Q4.25 18.8 4.95 17.9M2.75 18.55L1.25 20.3Q1.2 19.2 2.05 17.15Q3.6 15.3 6.1 13.85L7.95 14.1Q4.85 16.2 2.75 18.55M5.75 26.95Q5.2 26.15 4.9 24.4Q5.25 23.05 6.1 22.05Q5.55 24.25 5.7 26.55L5.75 26.95" />
<path style="fill:#4D4843;fill-opacity:1" d="M22.25 8.05L23.9 9.85L21.4 8.45L21.05 8Q20.85 9.6 20.1 9.95Q20.05 9.2 19.3 8.2Q17.4 8.45 15.4 9.4L13.35 10.6Q12.4 11.2 11.15 12.45Q9.35 14.35 8.5 16.4Q8.6 18.2 9.1 18.95L8.4 18.15Q8.65 14.65 8.95 13.45L7.95 14.1L7.95 14.5L9.3 12.35Q10.35 12 12.05 10.7L14.55 8.8Q16.3 7.55 18.65 7.6Q17.9 7.55 16 5.85L19.25 7.65L16.65 5.65L16 5.85L16.15 5L15.05 4.6L15.75 4.35L15.5 3.65L16.25 4.65L17.7 5.6Q19.6 6.45 20 7L21.15 4.35Q21.3 6.05 21.05 6.95Q21.15 7.45 21.7 7.8L22.85 6.85Q22.85 7.6 22.25 8.05M16 5.85L14.05 6.65Q12.5 5.8 10.5 5.95L8.75 6.1L7 6.2Q5.6 5.25 5.05 3.3Q6.2 5.15 8.75 5.2L9.7 5.7L10.5 5.95L9.7 5.7Q7.8 4.2 7.65 1.85Q8.05 3.5 9.25 4.65L10.35 5.45L11.85 5.7L14.05 5.8L14.8 5.8Q15.95 5.6 15.05 4.6L13.5 4.3L11 4.05Q9.55 3.2 8.75 1.6Q8.3 0.75 8.15 0Q9.45 1.7 11.95 2.25Q14.45 2.8 15.75 4.35L16.15 5L16.65 5.65L19.25 7.65L18.65 7.6M7.95 14.1L6.1 13.85Q3.6 15.3 2.05 17.15L2.9 15.25L5.35 13.3L2.9 15.25L0 16.85L5.45 12.55L8.05 12.7L9.3 12.35L8.95 13.45Q8.65 14.65 8.5 16.4M23.9 9.85Q24.65 11.2 24.6 13Q24.35 11.8 23.95 11.15L23.1 10.05L22.2 9.15L21.4 8.45L22.25 8.05M23.05 12.25L24.3 14.1L23.9 15.15L21.45 11.7Q21.85 13.6 18.7 15.25Q19.9 14.45 20.6 13.45Q21.2 12.4 21.3 11.2L21.25 10.2L22.25 11.8L21.9 9.85L22.55 10.85L23.05 12.25M24.3 14.1Q24.6 13.05 23.95 11.15Q24.35 11.8 24.6 13L24.75 13.5L24.85 16.55L23.9 15.15L23.05 12.25M24.85 16.55L24.75 13.5Q25.65 15.05 27.05 15Q26.15 16.5 24.85 16.55M16 5.85L16.65 5.65M15.05 4.6L16.15 5M1.7 6.2Q3.45 7.35 4.65 7.4L7.65 7.8L10.2 7.75L6.95 8.7L5.35 8.95Q2.8 7.8 1.7 6.2M0.75 8.35Q2.35 9.5 4.8 9.6L7.65 9.45L8.25 9.35L5.1 10.85Q1.7 9.9 0.75 8.35M0.15 11.85Q1.6 12.6 3.65 12.6L2.95 13.3Q0.75 13.1 0.15 11.85M10.65 17.05L10.85 15.3Q11 14.25 11.4 13.35Q12.5 12.9 12.1 13.65L14.3 12L16.15 10.8L14.65 12.15L12.15 14.4Q14.3 13.65 12.55 15.85L10.65 17.05M17.65 11.5L19.25 9.05L18.65 11.1Q18.7 11.7 19.5 11.3L15.75 14.1L17.65 11.5M8.4 18.15Q8.5 20.2 9.65 21.5L9.1 18.95Q8.95 17.5 9.2 16Q9.2 18.65 10 20.55Q10.75 22.45 11.9 22.9Q10.9 22.75 9.65 21.5Q9.45 23.7 8.15 25.1L8.2 22.35L6.3 23.8L8.4 18.15L4.45 21.15Q3.8 21.4 2.9 22.3Q4.9 19.3 7.85 17L7.95 14.5L8.95 13.45M9.1 18.95L9.65 21.5Q8.5 20.2 8.4 18.15L6.3 23.8Q5.7 25.45 5.7 26.55Q5.55 24.25 6.1 22.05Q5.25 23.05 4.9 24.4L4.8 22.6Q4.1 23.7 3.8 24.85Q3.4 23 4.45 21.15L8.4 18.15L8.5 16.4M7.95 14.5L4.95 17.9L3.45 19.3Q2.6 20.35 2.5 20.85Q2.55 19.25 2.75 18.55Q4.85 16.2 7.95 14.1L8.95 13.45M12.15 14.4L10.85 15.3L12.15 14.4" />
<path style="fill:#ADADAD;fill-opacity:1" d="M10.85 9.05L13.45 6.95Q12.15 8.75 14.55 8.8L12.05 10.7Q13.65 7.9 10.85 9.05M4.65 7.4Q5.95 7.45 6.15 6.95Q6.25 6.6 5.8 6.2L7 6.2L8.75 6.1Q7.15 6.4 6.7 6.85Q6.2 7.4 7.65 7.8L4.65 7.4M4.8 9.6Q6.5 9.2 5.35 8.95L6.95 8.7Q5.85 9.35 7.65 9.45L4.8 9.6M11.4 13.35Q11.9 12.1 12.85 11.1Q11.75 12.9 12.5 12.8Q13.15 12.7 14.3 12L12.1 13.65Q12.5 12.9 11.4 13.35M12.55 15.85Q14.3 13.65 12.15 14.4L14.65 12.15Q13.5 13.8 13.9 14.05Q14.3 14.2 15.75 13.4L15.75 13.45L12.55 15.85" />
<path style="fill:#B6B6B6;fill-opacity:1" d="M19.35 13.1L19.5 11.3Q20.1 12.9 21.3 11.2Q21.2 12.4 20.6 13.45Q20.25 12.2 19.35 13.1M11.85 5.7L10.35 5.45L11.3 4.85Q11.55 4.3 11 4.05L13.5 4.3Q10.95 5.4 14.05 5.8L11.85 5.7" />
<path style="fill:#C4C4C4;fill-opacity:1" d="M18.5 4.65Q17.45 4.7 17.7 5.6L16.25 4.65Q17.45 4.6 16.9 3.95L18.5 4.65M23.05 12.25L22.55 10.85Q23.15 11.1 23.1 10.05L23.95 11.15Q23.15 10.85 23.05 12.25" />
<path style="fill:none;stroke-width:0.7;stroke-linecap:round;stroke-linejoin:round;stroke-miterlimit:3;stroke:#000000;stroke-opacity:0.411765" d="M22.85 6.85L21.05 6.95Q21.3 6.05 21.15 4.35" />
<path style="fill:none;stroke-width:0.7;stroke-linecap:round;stroke-linejoin:round;stroke-miterlimit:3;stroke:#000000;stroke-opacity:0.411765" d="M15.5 3.65L15.75 4.35L16.15 5" />
<path style="fill:none;stroke-width:0.7;stroke-linecap:round;stroke-linejoin:round;stroke-miterlimit:3;stroke:#000000;stroke-opacity:0.301961" d="M16.15 5L16.65 5.65L19.25 7.65L18.65 7.6Q16.3 7.55 14.55 8.8L12.05 10.7Q10.35 12 9.3 12.35L8.95 13.45Q8.65 14.65 8.5 16.4" />
<path style="fill:none;stroke-width:0.7;stroke-linecap:round;stroke-linejoin:round;stroke-miterlimit:3;stroke:#000000;stroke-opacity:0.301961" d="M21.4 8.45L22.25 8.05" />
<path style="fill:none;stroke-width:0.7;stroke-linecap:round;stroke-linejoin:round;stroke-miterlimit:3;stroke:#000000;stroke-opacity:0.411765" d="M22.25 8.05Q22.85 7.6 22.85 6.85" />
<path style="fill:none;stroke-width:0.7;stroke-linecap:round;stroke-linejoin:round;stroke-miterlimit:3;stroke:#000000;stroke-opacity:0.301961" d="M23.1 10.05L22.2 9.15L21.4 8.45" />
<path style="fill:none;stroke-width:0.7;stroke-linecap:round;stroke-linejoin:round;stroke-miterlimit:3;stroke:#000000;stroke-opacity:0.411765" d="M18.7 15.25Q21.85 13.6 21.45 11.7L23.9 15.15" />
<path style="fill:none;stroke-width:0.7;stroke-linecap:round;stroke-linejoin:round;stroke-miterlimit:3;stroke:#000000;stroke-opacity:0.301961" d="M23.9 15.15L23.05 12.25" />
<path style="fill:none;stroke-width:0.7;stroke-linecap:round;stroke-linejoin:round;stroke-miterlimit:3;stroke:#000000;stroke-opacity:0.301961" d="M23.1 10.05L23.95 11.15Q24.35 11.8 24.6 13" />
<path style="fill:none;stroke-width:0.7;stroke-linecap:round;stroke-linejoin:round;stroke-miterlimit:3;stroke:#000000;stroke-opacity:0.411765" d="M24.6 13Q24.65 11.2 23.9 9.85L22.25 8.05" />
<path style="fill:none;stroke-width:0.7;stroke-linecap:round;stroke-linejoin:round;stroke-miterlimit:3;stroke:#000000;stroke-opacity:0.411765" d="M23.9 15.15L24.85 16.55" />
<path style="fill:none;stroke-width:0.7;stroke-linecap:round;stroke-linejoin:round;stroke-miterlimit:3;stroke:#000000;stroke-opacity:0.301961" d="M24.85 16.55L24.75 13.5L24.6 13" />
<path style="fill:none;stroke-width:0.7;stroke-linecap:round;stroke-linejoin:round;stroke-miterlimit:3;stroke:#000000;stroke-opacity:0.411765" d="M24.75 13.5Q25.65 15.05 27.05 15Q26.15 16.5 24.85 16.55" />
<path style="fill:none;stroke-width:0.7;stroke-linecap:round;stroke-linejoin:round;stroke-miterlimit:3;stroke:#000000;stroke-opacity:0.301961" d="M16 5.85L16.65 5.65" />
<path style="fill:none;stroke-width:0.7;stroke-linecap:round;stroke-linejoin:round;stroke-miterlimit:3;stroke:#000000;stroke-opacity:0.411765" d="M21.15 4.35Q20.65 5.9 19.55 5.85Q19.4 5.05 18.5 4.65" />
<path style="fill:none;stroke-width:0.7;stroke-linecap:round;stroke-linejoin:round;stroke-miterlimit:3;stroke:#000000;stroke-opacity:0.411765" d="M16.9 3.95Q15.7 3.15 15.4 1.9Q15.25 2.85 15.5 3.65" />
<path style="fill:none;stroke-width:0.7;stroke-linecap:round;stroke-linejoin:round;stroke-miterlimit:3;stroke:#000000;stroke-opacity:0.411765" d="M18.5 4.65L16.9 3.95" />
<path style="fill:none;stroke-width:0.7;stroke-linecap:round;stroke-linejoin:round;stroke-miterlimit:3;stroke:#000000;stroke-opacity:0.301961" d="M11 4.05L13.5 4.3L15.05 4.6L16.15 5" />
<path style="fill:none;stroke-width:0.7;stroke-linecap:round;stroke-linejoin:round;stroke-miterlimit:3;stroke:#000000;stroke-opacity:0.301961" d="M13.45 6.95L14.05 6.65" />
<path style="fill:none;stroke-width:0.7;stroke-linecap:round;stroke-linejoin:round;stroke-miterlimit:3;stroke:#000000;stroke-opacity:0.301961" d="M14.05 6.65Q12.5 5.8 10.5 5.95" />
<path style="fill:none;stroke-width:0.7;stroke-linecap:round;stroke-linejoin:round;stroke-miterlimit:3;stroke:#000000;stroke-opacity:0.301961" d="M10.5 5.95L8.75 6.1" />
<path style="fill:none;stroke-width:0.7;stroke-linecap:round;stroke-linejoin:round;stroke-miterlimit:3;stroke:#000000;stroke-opacity:0.411765" d="M5.1 10.85Q2.4 12.15 0.15 11.85" />
<path style="fill:none;stroke-width:0.7;stroke-linecap:round;stroke-linejoin:round;stroke-miterlimit:3;stroke:#000000;stroke-opacity:0.411765" d="M2.95 13.3L0 16.85" />
<path style="fill:none;stroke-width:0.7;stroke-linecap:round;stroke-linejoin:round;stroke-miterlimit:3;stroke:#000000;stroke-opacity:0.301961" d="M5.45 12.55L4.45 12Q7.65 12.45 9.15 10.8L10.85 9.05L13.45 6.95" />
<path style="fill:none;stroke-width:0.7;stroke-linecap:round;stroke-linejoin:round;stroke-miterlimit:3;stroke:#000000;stroke-opacity:0.301961" d="M13.35 10.6L12.85 11.1" />
<path style="fill:none;stroke-width:0.7;stroke-linecap:round;stroke-linejoin:round;stroke-miterlimit:3;stroke:#000000;stroke-opacity:0.301961" d="M16.15 10.8L14.65 12.15" />
<path style="fill:none;stroke-width:0.7;stroke-linecap:round;stroke-linejoin:round;stroke-miterlimit:3;stroke:#000000;stroke-opacity:0.411765" d="M15.75 13.45L17.65 11.5" />
<path style="fill:none;stroke-width:0.7;stroke-linecap:round;stroke-linejoin:round;stroke-miterlimit:3;stroke:#000000;stroke-opacity:0.301961" d="M17.65 11.5L19.25 9.05" />
<path style="fill:none;stroke-width:0.7;stroke-linecap:round;stroke-linejoin:round;stroke-miterlimit:3;stroke:#000000;stroke-opacity:0.301961" d="M14.05 6.65L16 5.85" />
<path style="fill:none;stroke-width:0.7;stroke-linecap:round;stroke-linejoin:round;stroke-miterlimit:3;stroke:#000000;stroke-opacity:0.411765" d="M15.75 4.35Q14.45 2.8 11.95 2.25Q9.45 1.7 8.15 0Q8.3 0.75 8.75 1.6Q9.55 3.2 11 4.05Q8.7 3.35 7.65 1.85" />
<path style="fill:none;stroke-width:0.7;stroke-linecap:round;stroke-linejoin:round;stroke-miterlimit:3;stroke:#000000;stroke-opacity:0.411765" d="M9.7 5.7L8.75 5.2" />
<path style="fill:none;stroke-width:0.7;stroke-linecap:round;stroke-linejoin:round;stroke-miterlimit:3;stroke:#000000;stroke-opacity:0.411765" d="M5.05 3.3Q5.6 5.25 7 6.2" />
<path style="fill:none;stroke-width:0.7;stroke-linecap:round;stroke-linejoin:round;stroke-miterlimit:3;stroke:#000000;stroke-opacity:0.301961" d="M7 6.2L8.75 6.1" />
<path style="fill:none;stroke-width:0.7;stroke-linecap:round;stroke-linejoin:round;stroke-miterlimit:3;stroke:#000000;stroke-opacity:0.411765" d="M7.65 1.85Q7.8 4.2 9.7 5.7" />
<path style="fill:none;stroke-width:0.7;stroke-linecap:round;stroke-linejoin:round;stroke-miterlimit:3;stroke:#000000;stroke-opacity:0.301961" d="M9.7 5.7L10.5 5.95" />
<path style="fill:none;stroke-width:0.7;stroke-linecap:round;stroke-linejoin:round;stroke-miterlimit:3;stroke:#000000;stroke-opacity:0.411765" d="M5.8 6.2L2.55 5.9L1.15 5.2L1.15 5.25L1.7 6.2" />
<path style="fill:none;stroke-width:0.7;stroke-linecap:round;stroke-linejoin:round;stroke-miterlimit:3;stroke:#000000;stroke-opacity:0.411765" d="M5.8 6.2L7 6.2" />
<path style="fill:none;stroke-width:0.7;stroke-linecap:round;stroke-linejoin:round;stroke-miterlimit:3;stroke:#000000;stroke-opacity:0.411765" d="M5.05 3.3L4.7 0.8Q6.05 3.5 8.75 5.2" />
<path style="fill:none;stroke-width:0.7;stroke-linecap:round;stroke-linejoin:round;stroke-miterlimit:3;stroke:#000000;stroke-opacity:0.411765" d="M0.75 8.35Q1.7 9.9 5.1 10.85" />
<path style="fill:none;stroke-width:0.7;stroke-linecap:round;stroke-linejoin:round;stroke-miterlimit:3;stroke:#000000;stroke-opacity:0.411765" d="M5.35 8.95Q3.05 9.3 0.75 8.35" />
<path style="fill:none;stroke-width:0.7;stroke-linecap:round;stroke-linejoin:round;stroke-miterlimit:3;stroke:#000000;stroke-opacity:0.411765" d="M1.7 6.2Q2.8 7.8 5.35 8.95" />
<path style="fill:none;stroke-width:0.7;stroke-linecap:round;stroke-linejoin:round;stroke-miterlimit:3;stroke:#000000;stroke-opacity:0.411765" d="M2.9 22.3Q3.8 21.4 4.45 21.15" />
<path style="fill:none;stroke-width:0.7;stroke-linecap:round;stroke-linejoin:round;stroke-miterlimit:3;stroke:#000000;stroke-opacity:0.301961" d="M4.45 21.15L8.4 18.15" />
<path style="fill:none;stroke-width:0.7;stroke-linecap:round;stroke-linejoin:round;stroke-miterlimit:3;stroke:#000000;stroke-opacity:0.301961" d="M8.4 18.15L8.5 16.4" />
<path style="fill:none;stroke-width:0.7;stroke-linecap:round;stroke-linejoin:round;stroke-miterlimit:3;stroke:#000000;stroke-opacity:0.301961" d="M9.1 18.95Q8.95 17.5 9.2 16" />
<path style="fill:none;stroke-width:0.7;stroke-linecap:round;stroke-linejoin:round;stroke-miterlimit:3;stroke:#000000;stroke-opacity:0.411765" d="M11.9 22.9Q11.1 21.25 10.8 19.3L10.65 17.05" />
<path style="fill:none;stroke-width:0.7;stroke-linecap:round;stroke-linejoin:round;stroke-miterlimit:3;stroke:#000000;stroke-opacity:0.301961" d="M10.65 17.05L10.85 15.3Q11 14.25 11.4 13.35Q11.9 12.1 12.85 11.1" />
<path style="fill:none;stroke-width:0.7;stroke-linecap:round;stroke-linejoin:round;stroke-miterlimit:3;stroke:#000000;stroke-opacity:0.301961" d="M8.95 13.45L7.95 14.5L4.95 17.9" />
<path style="fill:none;stroke-width:0.7;stroke-linecap:round;stroke-linejoin:round;stroke-miterlimit:3;stroke:#000000;stroke-opacity:0.411765" d="M4.95 17.9Q4.25 18.8 2.9 22.3" />
<path style="fill:none;stroke-width:0.7;stroke-linecap:round;stroke-linejoin:round;stroke-miterlimit:3;stroke:#000000;stroke-opacity:0.301961" d="M7.95 14.1L8.95 13.45" />
<path style="fill:none;stroke-width:0.7;stroke-linecap:round;stroke-linejoin:round;stroke-miterlimit:3;stroke:#000000;stroke-opacity:0.301961" d="M5.45 12.55L8.05 12.7L9.3 12.35" />
<path style="fill:none;stroke-width:0.7;stroke-linecap:round;stroke-linejoin:round;stroke-miterlimit:3;stroke:#000000;stroke-opacity:0.411765" d="M2.05 17.15Q1.2 19.2 1.25 20.3L2.75 18.55" />
<path style="fill:none;stroke-width:0.7;stroke-linecap:round;stroke-linejoin:round;stroke-miterlimit:3;stroke:#000000;stroke-opacity:0.301961" d="M2.75 18.55Q4.85 16.2 7.95 14.1" />
<path style="fill:none;stroke-width:0.7;stroke-linecap:round;stroke-linejoin:round;stroke-miterlimit:3;stroke:#000000;stroke-opacity:0.411765" d="M2.05 17.15L2.9 15.25L0 16.85" />
<path style="fill:none;stroke-width:0.7;stroke-linecap:round;stroke-linejoin:round;stroke-miterlimit:3;stroke:#000000;stroke-opacity:0.411765" d="M4.95 17.9L3.45 19.3Q2.6 20.35 2.5 20.85Q2.55 19.25 2.75 18.55" />
<path style="fill:none;stroke-width:0.7;stroke-linecap:round;stroke-linejoin:round;stroke-miterlimit:3;stroke:#000000;stroke-opacity:0.411765" d="M4.45 21.15Q3.4 23 3.8 24.85Q4.1 23.7 4.8 22.6L4.9 24.4" />
<path style="fill:none;stroke-width:0.7;stroke-linecap:round;stroke-linejoin:round;stroke-miterlimit:3;stroke:#000000;stroke-opacity:0.411765" d="M5.7 26.55Q5.7 25.45 6.3 23.8" />
<path style="fill:none;stroke-width:0.7;stroke-linecap:round;stroke-linejoin:round;stroke-miterlimit:3;stroke:#000000;stroke-opacity:0.301961" d="M6.3 23.8L8.4 18.15" />
<path style="fill:none;stroke-width:0.7;stroke-linecap:round;stroke-linejoin:round;stroke-miterlimit:3;stroke:#000000;stroke-opacity:0.301961" d="M8.4 18.15Q8.5 20.2 9.65 21.5" />
<path style="fill:none;stroke-width:0.7;stroke-linecap:round;stroke-linejoin:round;stroke-miterlimit:3;stroke:#000000;stroke-opacity:0.301961" d="M9.65 21.5L9.1 18.95" />
<path style="fill:none;stroke-width:0.7;stroke-linecap:round;stroke-linejoin:round;stroke-miterlimit:3;stroke:#000000;stroke-opacity:0.411765" d="M6.3 23.8L8.2 22.35L8.15 25.1Q9.45 23.7 9.65 21.5Q10.9 22.75 11.9 22.9" />
<path style="fill:none;stroke-width:0.7;stroke-linecap:round;stroke-linejoin:round;stroke-miterlimit:3;stroke:#000000;stroke-opacity:0.301961" d="M2.9 15.25L5.35 13.3" />
<path style="fill:none;stroke-width:0.7;stroke-linecap:round;stroke-linejoin:round;stroke-miterlimit:3;stroke:#000000;stroke-opacity:0.411765" d="M19.35 13.1L18.7 15.25" />
<path style="fill:none;stroke-width:0.7;stroke-linecap:round;stroke-linejoin:round;stroke-miterlimit:3;stroke:#000000;stroke-opacity:0.301961" d="M10.85 15.3L12.15 14.4L14.65 12.15" />
<path style="fill:none;stroke-width:0.7;stroke-linecap:round;stroke-linejoin:round;stroke-miterlimit:3;stroke:#000000;stroke-opacity:0.411765" d="M12.55 15.85L15.75 13.45" />
<path style="fill:none;stroke-width:0.7;stroke-linecap:round;stroke-linejoin:round;stroke-miterlimit:3;stroke:#000000;stroke-opacity:0.411765" d="M12.55 15.85L10.65 17.05" />
<path style="fill:none;stroke-width:0.7;stroke-linecap:round;stroke-linejoin:round;stroke-miterlimit:3;stroke:#000000;stroke-opacity:0.411765" d="M19.35 13.1L19.5 11.3L15.75 14.1L17.65 11.5" />
<path style="fill:none;stroke-width:0.7;stroke-linecap:round;stroke-linejoin:round;stroke-miterlimit:3;stroke:#000000;stroke-opacity:0.411765" d="M0.15 11.85Q0.75 13.1 2.95 13.3" />
<path style="fill:none;stroke-width:0.7;stroke-linecap:round;stroke-linejoin:round;stroke-miterlimit:3;stroke:#000000;stroke-opacity:0.411765" d="M4.9 24.4Q5.2 26.15 5.75 26.95L5.7 26.55" />
</g>
</svg>
