<?xml version="1.0" encoding="utf-8"?>
<svg version="1.1" id="Layer_1"
xmlns="http://www.w3.org/2000/svg"
xmlns:xlink="http://www.w3.org/1999/xlink"
width="17px" height="10px"
xml:space="preserve">
<g id="PathID_2428" transform="matrix(1, 0, 0, 1, 0, 0)">
<path style="fill:#808080;fill-opacity:1" d="M11.05 0.45Q11.45 1.1 10.9 1.6L11.6 1.35Q12.15 1.35 12.15 1.75L11.7 2.05L11.95 2.3L12 2.65L11.35 2.6L10.95 2.2L11.55 3.35L10.75 3.55L10.7 2.3L10.25 2.9Q9.95 3.2 9.65 3.2L9.3 2.9L9.6 2.5Q9.4 2.6 9.1 2.3Q8.8 2 8.95 1.85Q9.15 1.65 10 1.85L9.5 1.4Q9.05 0.6 9.5 0.45L10.05 0.55L10.25 0.9Q10.6 -0.15 11.05 0.45" />
</g>
<g id="PathID_2429" transform="matrix(1, 0, 0, 1, 0, 0)">
<path style="fill:#808080;fill-opacity:1" d="M15.9 0.6Q16.4 -0.3 16.55 0.35Q16.65 1.05 16.2 1.4L16.7 1.3Q17.1 1.45 17 1.85Q16.9 2.1 16.6 2L16.7 2.3L16.65 2.6Q16.45 2.8 16.25 2.4L16.05 1.95L16.2 3.15L15.6 3.15L15.85 2L15.4 2.45L14.95 2.55Q14.7 2.45 14.75 2.2L15.05 1.9L14.75 1.6L14.75 1.15Q14.95 1 15.45 1.4L15.3 0.85Q15.15 0 15.5 0Q15.8 0 15.85 0.25L15.9 0.6" />
</g>
<g id="PathID_2430" transform="matrix(1, 0, 0, 1, 0, 0)">
<path style="fill:#636961;fill-opacity:1" d="M6.5 4.1L6.8 4.2L7 4.4L6.5 4.7L5.95 4.55L7 5.2L6.4 5.75L5.8 4.75L5.7 5.4L5.4 5.95L4.95 5.85L5.05 5.4L4.55 5.5L4.2 5.2Q4.3 4.9 5.05 4.75L4.45 4.55Q3.7 4.15 4 3.8L4.5 3.65Q4.65 3.65 4.8 3.8Q4.6 2.85 5.25 3.1Q5.85 3.45 5.65 4.1L6.1 3.6L6.75 3.65Q6.9 3.9 6.5 4.1" />
</g>
<g id="PathID_2431" transform="matrix(1, 0, 0, 1, 0, 0)">
<path style="fill:#636961;fill-opacity:1" d="M0.8 8.8L0.35 8.5Q-0.15 7.95 0.15 7.75L0.6 7.75L0.8 7.9Q0.9 7.1 1.35 7.45Q1.8 7.9 1.5 8.35L1.95 8.05Q2.4 7.95 2.5 8.25L2.2 8.55L2.45 8.7L2.55 8.95L2.05 9.1L1.65 8.85L2.35 9.6L1.75 9.95L1.45 8.95L1.2 9.45L0.85 9.9Q0.55 9.95 0.5 9.7L0.65 9.4L0.25 9.3L0 9Q0.15 8.75 0.8 8.8" />
</g>
</svg>
