<?xml version="1.0" encoding="utf-8"?>
<svg version="1.1" id="Layer_1"
xmlns="http://www.w3.org/2000/svg"
xmlns:xlink="http://www.w3.org/1999/xlink"
width="10px" height="10px"
xml:space="preserve">
<g id="PathID_189" transform="matrix(1, 0, 0, 1, 0.15, 0.15)">
<path style="fill:#808080;fill-opacity:1" d="M7.3 3.5Q9.45 5.05 9.2 5.95Q7.75 6.65 5.9 6.5Q5.6 8.55 4.8 9.5Q3.4 9.9 2.8 6.3Q0.3 6.35 0 5.3Q0.7 4.15 2.15 3.25Q1.8 2 2.15 0.1Q2.8 -0.45 4.9 1.8Q7 0.6 7.75 0.9Q8.1 2.25 7.3 3.5" />
<path style="fill:none;stroke-width:0.7;stroke-linecap:round;stroke-linejoin:round;stroke-miterlimit:3;stroke:#000000;stroke-opacity:0.4" d="M7.3 3.5Q9.45 5.05 9.2 5.95Q7.75 6.65 5.9 6.5Q5.6 8.55 4.8 9.5Q3.4 9.9 2.8 6.3Q0.3 6.35 0 5.3Q0.7 4.15 2.15 3.25Q1.8 2 2.15 0.1Q2.8 -0.45 4.9 1.8Q7 0.6 7.75 0.9Q8.1 2.25 7.3 3.5z" />
</g>
</svg>
