<?xml version="1.0" encoding="utf-8"?>
<svg version="1.1" id="Layer_1"
xmlns="http://www.w3.org/2000/svg"
xmlns:xlink="http://www.w3.org/1999/xlink"
width="21px" height="12px"
xml:space="preserve">
<g id="PathID_2843" transform="matrix(1, 0, 0, 1, 0, 0)">
<path style="fill:#808080;fill-opacity:1" d="M6.8 3.55Q10.6 0.8 15.15 0.2L18.35 0Q19.8 0.15 20.35 0.75L20.25 2.05Q17.8 1.85 15.45 2.1Q11.55 2.55 8.35 4.5Q6.65 4.35 6.8 3.55" />
<path style="fill:#5D5D5D;fill-opacity:1" d="M8.35 4.5L7.75 4.85Q6.8 5.4 5.95 6.2Q3.25 8.35 1.25 11.7L0 10.95L2.15 8Q4.3 5.3 6.8 3.55Q6.65 4.35 8.35 4.5" />
<path style="fill:none;stroke-width:0.7;stroke-linecap:round;stroke-linejoin:round;stroke-miterlimit:3;stroke:#000000;stroke-opacity:0.4" d="M6.8 3.55Q10.6 0.8 15.15 0.2L18.35 0Q19.8 0.15 20.35 0.75L20.25 2.05Q17.8 1.85 15.45 2.1Q11.55 2.55 8.35 4.5L7.75 4.85Q6.8 5.4 5.95 6.2Q3.25 8.35 1.25 11.7L0 10.95L2.15 8Q4.3 5.3 6.8 3.55z" />
</g>
</svg>
