<?xml version="1.0" encoding="utf-8"?>
<svg version="1.1" id="Layer_1"
xmlns="http://www.w3.org/2000/svg"
xmlns:xlink="http://www.w3.org/1999/xlink"
width="13px" height="12px"
xml:space="preserve">
<g id="PathID_2600" transform="matrix(1, 0, 0, 1, 0, 0)">
<path style="fill:#808080;fill-opacity:1" d="M2.2 6L1.7 5.45Q2.35 5.6 3.3 6.4Q2.85 4.25 4.05 3.5Q5.35 2.7 7.05 4.15Q6.65 2.1 7.55 1.35Q8.35 0.6 9.55 1.2L9.6 0Q11.25 1.95 12.75 4.85L7.8 8.4Q4.8 8.6 2.2 6" />
<path style="fill:#4F4943;fill-opacity:1" d="M7.8 8.4Q5.15 9.95 2.35 11.15L1.05 10.15L0.4 8.85Q-0.45 6.5 0.55 5.65Q1.05 5.25 1.7 5.45L2.2 6Q4.8 8.6 7.8 8.4" />
</g>
</svg>
