<?xml version="1.0" encoding="utf-8"?>
<svg version="1.1" id="Layer_1"
xmlns="http://www.w3.org/2000/svg"
xmlns:xlink="http://www.w3.org/1999/xlink"
width="8px" height="7px"
xml:space="preserve">
<g id="PathID_3710" transform="matrix(1, 0, 0, 1, 0.25, 0)">
<path style="fill:#808080;fill-opacity:1" d="M2.2 0.4L4.2 0L4.25 0.75L1.75 2.65Q5.6 0.9 5.9 1.4Q6.2 1.9 5.85 2.9L2.95 5.35Q6.8 2.95 6.65 3.95L3.7 6.35Q3.6 5.75 2.95 5.35L5.85 2.9Q3 3.65 1.35 2.85Q1.15 2.1 0 1.95L2.2 0.4M1.75 2.65L4.25 0.75" />
<path style="fill:none;stroke-width:0.7;stroke-linecap:round;stroke-linejoin:round;stroke-miterlimit:3;stroke:#000000;stroke-opacity:0.301961" d="M6.65 3.95L3.7 6.35" />
<path style="fill:none;stroke-width:0.7;stroke-linecap:round;stroke-linejoin:round;stroke-miterlimit:3;stroke:#000000;stroke-opacity:0.301961" d="M0 1.95L2.2 0.4" />
<path style="fill:none;stroke-width:0.7;stroke-linecap:round;stroke-linejoin:round;stroke-miterlimit:3;stroke:#000000;stroke-opacity:0.301961" d="M4.25 0.75L1.75 2.65" />
<path style="fill:none;stroke-width:0.7;stroke-linecap:round;stroke-linejoin:round;stroke-miterlimit:3;stroke:#000000;stroke-opacity:0.301961" d="M5.85 2.9L2.95 5.35" />
</g>
</svg>
