<?xml version="1.0" encoding="utf-8"?>
<svg version="1.1" id="Layer_1"
xmlns="http://www.w3.org/2000/svg"
xmlns:xlink="http://www.w3.org/1999/xlink"
width="7px" height="5px"
xml:space="preserve">
<g id="PathID_773" transform="matrix(1, 0, 0, 1, 3.4, 2.3)">
<path style="fill:#231610;fill-opacity:1" d="M-3.4 -0.8Q2 -4.85 3.2 2.05Q-2.5 3.5 -3.4 -0.8" />
</g>
<g id="PathID_774" transform="matrix(1, 0, 0, 1, 3.4, 2.3)">
<path style="fill:#CA208B;fill-opacity:1" d="M-1.95 -0.95L-1.6 -1.5Q-0.95 -2.15 -0.05 -2.15Q0.85 -2.15 1.5 -1.5Q2.15 -0.85 2.15 0.05L2.15 0.25Q0.35 -1.6 -1.95 -0.95" />
<radialGradient
id="RadialGradID_241" gradientUnits="userSpaceOnUse" gradientTransform="matrix(0.00325012, 0, 0, 0.00325012, 0.55, 0.3)" spreadMethod ="pad" cx="0" cy="0" r="819.2" fx="0" fy="0" >
<stop  offset="0"  style="stop-color:#FF76D2;stop-opacity:1" />
<stop  offset="1"  style="stop-color:#C11089;stop-opacity:1" />
</radialGradient>
<path style="fill:url(#RadialGradID_241) " d="M2.15 0.25Q2.1 0.95 1.5 1.55L0.9 2Q-1.75 2.2 -2.2 -0.1L-1.95 -0.95Q0.35 -1.6 2.15 0.25" />
<path style="fill:#FFFFFF;fill-opacity:1" d="M0.9 2L-0.05 2.2Q-0.95 2.2 -1.6 1.55Q-2.2 0.9 -2.2 0.05L-2.2 -0.1Q-1.75 2.2 0.9 2" />
<path style="fill:none;stroke-width:0.7;stroke-linecap:round;stroke-linejoin:round;stroke-miterlimit:3;stroke:#000000;stroke-opacity:0.301961" d="M-2.2 -0.1L-1.95 -0.95L-1.6 -1.5Q-0.95 -2.15 -0.05 -2.15Q0.85 -2.15 1.5 -1.5Q2.15 -0.85 2.15 0.05L2.15 0.25Q2.1 0.95 1.5 1.55L0.9 2L-0.05 2.2Q-0.95 2.2 -1.6 1.55Q-2.2 0.9 -2.2 0.05L-2.2 -0.1z" />
</g>
<g id="PathID_775" transform="matrix(1, 0, 0, 1, 3.4, 2.3)">
<path style="fill:#000000;fill-opacity:1" d="M0.85 -1.95Q1.75 -0.15 0.75 1.45Q0.15 -0.25 0.85 -1.95" />
</g>
<g id="PathID_776" transform="matrix(1, 0, 0, 1, 3.4, 2.3)">
<path style="fill:#FFFFFF;fill-opacity:1" d="M-0.3 -0.1L-0.8 0.15L-1.35 -0.1L-1.6 -0.65L-1.35 -1.2L-0.8 -1.45L-0.3 -1.2L-0.05 -0.65Q-0.05 -0.3 -0.3 -0.1" />
</g>
</svg>
