<?xml version="1.0" encoding="utf-8"?>
<svg version="1.1" id="Layer_1"
xmlns="http://www.w3.org/2000/svg"
xmlns:xlink="http://www.w3.org/1999/xlink"
width="27px" height="21px"
xml:space="preserve">
<g id="PathID_2914" transform="matrix(1, 0, 0, 1, 0, 0)">
<path style="fill:#808080;fill-opacity:1" d="M26 2.45Q25.65 1.15 24.95 0Q26.8 0.55 26 2.45" />
<path style="fill:none;stroke-width:0.7;stroke-linecap:round;stroke-linejoin:round;stroke-miterlimit:3;stroke:#000000;stroke-opacity:0.4" d="M24.95 0Q26.8 0.55 26 2.45" />
</g>
<g id="PathID_2915" transform="matrix(1, 0, 0, 1, 0, 0)">
<path style="fill:#808080;fill-opacity:1" d="M1.8 14.75Q-0.5 14.65 0.1 12.55Q0.75 13.8 1.8 14.75" />
<path style="fill:none;stroke-width:0.7;stroke-linecap:round;stroke-linejoin:round;stroke-miterlimit:3;stroke:#000000;stroke-opacity:0.4" d="M0.1 12.55Q-0.5 14.65 1.8 14.75" />
</g>
<g id="PathID_2916" transform="matrix(1, 0, 0, 1, 0, 0)">
<path style="fill:#808080;fill-opacity:1" d="M18.9 2.45L19.35 2.75L19.6 2.55Q19.6 2.2 19.2 2Q18.8 1.75 18.8 2.1L18.9 2.45M19.95 2.3Q19.9 3.65 19.35 3.65Q19 3.65 18.7 2.5L18.5 1.35L19 1.45L19.95 2.3" />
<path style="fill:#C9C9C9;fill-opacity:1" d="M18.8 2.1Q18.8 1.75 19.2 2Q19.6 2.2 19.6 2.55L19.35 2.75L18.9 2.45L18.8 2.1" />
<path style="fill:#4F4943;fill-opacity:1" d="M18.7 2.5Q19 3.65 19.35 3.65Q19.9 3.65 19.95 2.3L20.2 2.7L20.05 3.8Q19.85 4.65 19.65 4.7Q19.45 4.8 18.8 4.2L18.1 3.3Q18 2.95 18.25 2.1L18.5 1.35L18.7 2.5" />
<path style="fill:none;stroke-width:0.7;stroke-linecap:round;stroke-linejoin:round;stroke-miterlimit:3;stroke:#000000;stroke-opacity:0.4" d="M18.5 1.35L18.25 2.1Q18 2.95 18.1 3.3L18.8 4.2Q19.45 4.8 19.65 4.7Q19.85 4.65 20.05 3.8L20.2 2.7L19.95 2.3" />
<path style="fill:none;stroke-width:0.7;stroke-linecap:round;stroke-linejoin:round;stroke-miterlimit:3;stroke:#000000;stroke-opacity:0.4" d="M18.5 1.35L19 1.45L19.95 2.3" />
</g>
<g id="PathID_2917" transform="matrix(1, 0, 0, 1, 0, 0)">
<path style="fill:#C9C9C9;fill-opacity:1" d="M8.35 6.05Q8.3 6.3 7.85 6.3Q7.4 6.25 7.45 5.95Q7.5 5.65 7.95 5.7Q8.4 5.8 8.35 6.05" />
<path style="fill:#808080;fill-opacity:1" d="M7.95 5.7Q7.5 5.65 7.45 5.95Q7.4 6.25 7.85 6.3Q8.3 6.3 8.35 6.05Q8.4 5.8 7.95 5.7M7.15 5.3Q8.15 5.2 8.65 5.8Q8.7 7.1 8.3 7.3Q7.75 7.4 7.15 5.3" />
<path style="fill:#4F4943;fill-opacity:1" d="M8.3 7.3Q8.7 7.1 8.65 5.8Q9.45 7.05 8.85 8.3Q8.65 8.4 8 8.1Q7.25 7.75 7.05 7.3Q6.85 6.85 6.95 6.05Q7 5.35 7.15 5.3Q7.75 7.4 8.3 7.3" />
<path style="fill:none;stroke-width:0.7;stroke-linecap:round;stroke-linejoin:round;stroke-miterlimit:3;stroke:#000000;stroke-opacity:0.4" d="M8.65 5.8Q9.45 7.05 8.85 8.3Q8.65 8.4 8 8.1Q7.25 7.75 7.05 7.3Q6.85 6.85 6.95 6.05Q7 5.35 7.15 5.3Q8.15 5.2 8.65 5.8z" />
</g>
<g id="PathID_2918" transform="matrix(1, 0, 0, 1, 0, 0)">
<path style="fill:#4F4943;fill-opacity:1" d="M20.45 14.15L20.85 14.7Q21.35 15.2 21.9 15.2Q22.5 15.2 22.95 14.6L23.2 14.25L23.25 14.6L22.8 15.55Q22.4 16 21.8 16Q21.2 16 20.75 15.55Q20.35 15.15 20.35 14.6L20.45 14.15" />
<path style="fill:#808080;fill-opacity:1" d="M22.95 14.6Q22.5 15.2 21.9 15.2Q21.35 15.2 20.85 14.7L20.45 14.15L20.75 13.55Q21.2 13.15 21.8 13.15Q22.4 13.15 22.8 13.55L23.2 14.25L22.95 14.6M22 13.55Q21.4 13.55 21.4 13.85L21.5 14.15L21.95 14.35L22.25 14.15L22.4 13.8Q22.4 13.55 22 13.55M13.75 18.6L13.75 18.95L13.4 19.25Q13.05 19.25 13.05 18.95L13.3 18.6L13.75 18.6" />
<path style="fill:#C9C9C9;fill-opacity:1" d="M22.4 13.8L22.25 14.15L21.95 14.35L21.5 14.15L21.4 13.85Q21.4 13.55 22 13.55Q22.4 13.55 22.4 13.8" />
<path style="fill:#3C3833;fill-opacity:1" d="M14.3 18.3L14.55 18.5Q14.95 18.9 14.95 19.55Q14.95 20.1 14.55 20.5Q14.15 20.95 13.6 20.95Q13.05 20.95 12.65 20.5Q12.25 20.1 12.25 19.55L12.65 20.1L13.35 20.35L14.1 19.75L14.4 19L14.3 18.3" />
<path style="fill:#595753;fill-opacity:1" d="M14.4 19L14.1 19.75L13.35 20.35L12.65 20.1L12.25 19.55L12.25 19.5L12.4 18.9L12.45 18.8L12.65 18.5Q13.05 18.1 13.6 18.1L14.3 18.3L14.4 19M13.3 18.6L13.05 18.95Q13.05 19.25 13.4 19.25L13.75 18.95L13.75 18.6L13.3 18.6" />
<path style="fill:none;stroke-width:0.7;stroke-linecap:round;stroke-linejoin:round;stroke-miterlimit:3;stroke:#000000;stroke-opacity:0.4" d="M23.2 14.25L22.8 13.55Q22.4 13.15 21.8 13.15Q21.2 13.15 20.75 13.55L20.45 14.15" />
<path style="fill:none;stroke-width:0.7;stroke-linecap:round;stroke-linejoin:round;stroke-miterlimit:3;stroke:#000000;stroke-opacity:0.4" d="M23.2 14.25L23.25 14.6L22.8 15.55Q22.4 16 21.8 16Q21.2 16 20.75 15.55Q20.35 15.15 20.35 14.6L20.45 14.15" />
<path style="fill:none;stroke-width:0.7;stroke-linecap:round;stroke-linejoin:round;stroke-miterlimit:3;stroke:#000000;stroke-opacity:0.4" d="M12.45 18.8L12.65 18.5Q13.05 18.1 13.6 18.1L14.3 18.3L14.55 18.5Q14.95 18.9 14.95 19.55Q14.95 20.1 14.55 20.5Q14.15 20.95 13.6 20.95Q13.05 20.95 12.65 20.5Q12.25 20.1 12.25 19.55L12.25 19.5L12.4 18.9" />
</g>
</svg>
