<?xml version="1.0" encoding="utf-8"?>
<svg version="1.1" id="Layer_1"
xmlns="http://www.w3.org/2000/svg"
xmlns:xlink="http://www.w3.org/1999/xlink"
width="18px" height="19px"
xml:space="preserve">
<g id="PathID_3366" transform="matrix(1, 0, 0, 1, 0.15, 0.15)">
<path style="fill:#58544F;fill-opacity:1" d="M11.45 11.95Q10.35 12.9 12.95 14.35Q7.3 9.9 4.05 7.5L2.2 5.4L0.35 3.15Q0.55 1.15 2.3 1.6Q3.25 3.45 8 7.65L12.8 11.85L11.7 11.9Q11.8 13.05 13.85 13.75L11.45 11.95M13.85 13.75Q13.1 14 12.95 14.35L13 15.1Q12.7 15.15 12.4 15.45L12.35 15.45Q7.6 13.45 4.35 11.1Q2.35 9.95 1.7 8.8Q0.4 4.75 4.05 7.5Q7.3 9.9 11.45 11.95L11.7 11.9M14.3 17.05Q14.6 18.2 16.15 18.7L13.2 18.7Q6.2 17.6 8.2 15.65L8.2 15.65Q6.55 15.25 4.45 13.85Q2.35 12.45 4.35 11.1Q7.6 13.45 12.35 15.45Q11.45 16.2 14.05 18L12.4 15.45Q13 16.35 14.3 17.05M12.95 14.35Q13.1 14 13.85 13.75Q14.1 14.85 15.35 15.6L14.75 15.65Q13.75 15.05 13 15.1L12.95 14.35Q10.35 12.9 11.45 11.95M8.2 15.65L13.2 18.7M14.05 18Q11.45 16.2 12.35 15.45" />
<path style="fill:#808080;fill-opacity:1" d="M12.4 15.45Q12.7 15.15 13 15.1Q13.75 15.05 14.75 15.65L15.35 15.6Q14.1 14.85 13.85 13.75Q14.3 13.75 14.95 14.1Q14.3 13.75 13.85 13.75Q11.8 13.05 11.7 11.9L12.8 11.85L8 7.65Q3.25 3.45 2.3 1.6Q0.55 1.15 0.35 3.15Q-0.35 1.75 0.3 0.6Q1.3 -1.25 4.55 2.75Q6.3 5.5 11 8.95Q15.65 12.35 17.15 15.2Q17.65 17.35 16.15 18.7Q14.6 18.2 14.3 17.05Q13 16.35 12.4 15.45M13.75 12.55L12.8 11.85L13.75 12.55" />
<path style="fill:none;stroke-width:0.7;stroke-linecap:round;stroke-linejoin:miter;stroke-miterlimit:5;stroke:#000000;stroke-opacity:0.4" d="M11.7 11.9L12.8 11.85" />
<path style="fill:none;stroke-width:0.7;stroke-linecap:round;stroke-linejoin:miter;stroke-miterlimit:5;stroke:#000000;stroke-opacity:0.4" d="M0.35 3.15L2.2 5.4L4.05 7.5Q7.3 9.9 11.45 11.95L11.7 11.9" />
<path style="fill:none;stroke-width:0.7;stroke-linecap:round;stroke-linejoin:miter;stroke-miterlimit:5;stroke:#000000;stroke-opacity:0.4" d="M13.85 13.75Q14.3 13.75 14.95 14.1" />
<path style="fill:none;stroke-width:0.7;stroke-linecap:round;stroke-linejoin:miter;stroke-miterlimit:5;stroke:#000000;stroke-opacity:0.4" d="M16.15 18.7Q17.65 17.35 17.15 15.2Q15.65 12.35 11 8.95Q6.3 5.5 4.55 2.75Q1.3 -1.25 0.3 0.6Q-0.35 1.75 0.35 3.15" />
<path style="fill:none;stroke-width:0.7;stroke-linecap:round;stroke-linejoin:miter;stroke-miterlimit:5;stroke:#000000;stroke-opacity:0.4" d="M4.05 7.5Q0.4 4.75 1.7 8.8Q2.35 9.95 4.35 11.1Q7.6 13.45 12.35 15.45L12.4 15.45Q12.7 15.15 13 15.1L12.95 14.35Q10.35 12.9 11.45 11.95" />
<path style="fill:none;stroke-width:0.7;stroke-linecap:round;stroke-linejoin:miter;stroke-miterlimit:5;stroke:#000000;stroke-opacity:0.4" d="M4.35 11.1Q2.35 12.45 4.45 13.85Q6.55 15.25 8.2 15.65L13.2 18.7" />
<path style="fill:none;stroke-width:0.7;stroke-linecap:round;stroke-linejoin:miter;stroke-miterlimit:5;stroke:#000000;stroke-opacity:0.4" d="M13.85 13.75Q13.1 14 12.95 14.35" />
<path style="fill:none;stroke-width:0.7;stroke-linecap:round;stroke-linejoin:miter;stroke-miterlimit:5;stroke:#000000;stroke-opacity:0.4" d="M14.75 15.65Q13.75 15.05 13 15.1" />
<path style="fill:none;stroke-width:0.7;stroke-linecap:round;stroke-linejoin:miter;stroke-miterlimit:5;stroke:#000000;stroke-opacity:0.4" d="M14.05 18Q11.45 16.2 12.35 15.45" />
<path style="fill:none;stroke-width:0.7;stroke-linecap:round;stroke-linejoin:miter;stroke-miterlimit:5;stroke:#000000;stroke-opacity:0.4" d="M12.8 11.85L13.75 12.55" />
</g>
</svg>
