<?xml version="1.0" encoding="utf-8"?>
<svg version="1.1" id="Layer_1"
xmlns="http://www.w3.org/2000/svg"
xmlns:xlink="http://www.w3.org/1999/xlink"
width="24px" height="32px"
xml:space="preserve">
<g id="PathID_3200" transform="matrix(1, 0, 0, 1, -0.05, 0.1)">
<path style="fill:#A69681;fill-opacity:1" d="M2.65 10.2L2.7 10.25L2.65 10.2" />
<path style="fill:#808080;fill-opacity:1" d="M21.2 9.15L22.35 9.65L23.35 11.45L20.6 11Q19.6 11.15 16.35 12.25L13.3 13.35Q12.55 13.35 12.55 12.8Q12.55 12.05 13.45 10.7Q14.5 9.3 15.3 8.9L21.2 9.15M3.4 7.95L4.35 5.1Q5.25 2.7 9.25 0.25Q11.05 -0.5 13.15 1L18.2 3.5Q19.6 4.2 20.25 5.75L19.6 6.35L18.95 6.7L14.2 4.75Q12.95 4.7 11.5 7.2Q10.4 9.1 8.45 10.85Q5.85 13.15 3.85 12.65Q2.55 12.3 2.7 10.25L3.4 7.95M0.35 19.25Q0.75 17.7 2 15.65Q2.55 15.1 3.45 14.95Q4.7 14.7 5.4 15.85Q5.6 16.2 2.55 19.6Q1.8 21.5 0.2 20.55Q0.1 20.25 0.35 19.25M1.7 26.15Q2.55 26.2 3.2 27Q4.1 28.05 3.25 29.65L2.3 28.6L2.3 29.4L2.05 30.1L0.2 29.2Q0.45 27.1 1.7 26.15" />
<path style="fill:#4F4943;fill-opacity:1" d="M0.4 29.65L0.95 30.55Q0.65 30.9 0.2 31L0.4 29.65" />
<path style="fill:#64615E;fill-opacity:1" d="M23.8 13.15L21.3 12.5L17.5 12.6Q14.6 13.45 12.35 15.85L9.85 18.55Q8.05 20.25 5.95 21.15Q5.05 20.2 4.9 18.85Q6.85 18.15 8.5 16.4Q10.15 14.65 10.65 12.2Q12.15 10.45 13.95 9.4L15.3 8.9L13.95 9.4Q12.15 10.45 10.65 12.2Q10.15 14.65 8.5 16.4Q6.85 18.15 4.9 18.85L4.2 19.8L3.7 20.85Q4.05 21.55 3.6 22.2L2.3 23.45Q1.3 24.1 1.65 25L2.45 26.05Q3.45 26.1 4.15 26.8Q4.75 27.35 4.8 28.2L5.95 28.4Q5.55 29.2 4.8 29.1L4.95 30.5L4.1 30.1L3.85 31.35L3.5 30.5L3.05 31.7L1.75 30.7L2.15 31.5L1.5 31.5L0.95 30.55L0.4 29.65L0.2 29.2L2.05 30.1L2.3 29.4L2.3 28.6L3.25 29.65Q4.1 28.05 3.2 27Q2.55 26.2 1.7 26.15L1.2 25.65L0.95 24.65L1.15 23.6L1.3 22.65Q1.3 21.75 0.65 21.25Q0.25 20.95 0.2 20.55Q1.8 21.5 2.55 19.6Q5.6 16.2 5.4 15.85Q4.7 14.7 3.45 14.95Q2.55 15.1 2 15.65Q2.3 15.15 2.3 13.75L2.3 12.15L2.7 10.25Q2.55 12.3 3.85 12.65Q5.85 13.15 8.45 10.85Q10.4 9.1 11.5 7.2Q12.95 4.7 14.2 4.75L18.95 6.7L19.6 6.35L20.25 5.75L21.2 9.15L15.3 8.9Q14.5 9.3 13.45 10.7Q12.55 12.05 12.55 12.8Q12.55 13.35 13.3 13.35L16.35 12.25Q19.6 11.15 20.6 11L23.35 11.45L23.8 13.15M14.25 7.45Q12.65 8.35 11.9 9.65L10.65 12.2L11.9 9.65Q12.65 8.35 14.25 7.45M15.35 8.05Q12.7 9.6 11.9 9.65Q12.7 9.6 15.35 8.05" />
<path style="fill:none;stroke-width:0.7;stroke-linecap:round;stroke-linejoin:round;stroke-miterlimit:3;stroke:#000000;stroke-opacity:0.301961" d="M23.35 11.45L22.35 9.65L21.2 9.15L15.3 8.9L13.95 9.4Q12.15 10.45 10.65 12.2Q10.15 14.65 8.5 16.4Q6.85 18.15 4.9 18.85Q5.05 20.2 5.95 21.15Q8.05 20.25 9.85 18.55L12.35 15.85Q14.6 13.45 17.5 12.6L21.3 12.5L23.8 13.15L23.35 11.45z" />
<path style="fill:none;stroke-width:0.7;stroke-linecap:round;stroke-linejoin:round;stroke-miterlimit:3;stroke:#000000;stroke-opacity:0.301961" d="M21.2 9.15L20.25 5.75" />
<path style="fill:none;stroke-width:0.7;stroke-linecap:round;stroke-linejoin:round;stroke-miterlimit:3;stroke:#000000;stroke-opacity:0.301961" d="M2.7 10.25L2.3 12.15L2.3 13.75Q2.3 15.15 2 15.65" />
<path style="fill:none;stroke-width:0.7;stroke-linecap:round;stroke-linejoin:round;stroke-miterlimit:3;stroke:#000000;stroke-opacity:0.301961" d="M0.2 20.55Q0.25 20.95 0.65 21.25Q1.3 21.75 1.3 22.65L1.15 23.6L0.95 24.65L1.2 25.65L1.7 26.15" />
<path style="fill:none;stroke-width:0.7;stroke-linecap:round;stroke-linejoin:round;stroke-miterlimit:3;stroke:#000000;stroke-opacity:0.301961" d="M0.2 29.2L0.4 29.65L0.95 30.55L1.5 31.5L2.15 31.5L1.75 30.7L3.05 31.7L3.5 30.5L3.85 31.35L4.1 30.1L4.95 30.5L4.8 29.1Q5.55 29.2 5.95 28.4L4.8 28.2Q4.75 27.35 4.15 26.8Q3.45 26.1 2.45 26.05L1.65 25Q1.3 24.1 2.3 23.45L3.6 22.2Q4.05 21.55 3.7 20.85L4.2 19.8L4.9 18.85" />
<path style="fill:none;stroke-width:0.7;stroke-linecap:round;stroke-linejoin:round;stroke-miterlimit:3;stroke:#000000;stroke-opacity:0.301961" d="M10.65 12.2L11.9 9.65Q12.65 8.35 14.25 7.45" />
<path style="fill:none;stroke-width:0.7;stroke-linecap:round;stroke-linejoin:round;stroke-miterlimit:3;stroke:#000000;stroke-opacity:0.301961" d="M11.9 9.65Q12.7 9.6 15.35 8.05" />
<path style="fill:none;stroke-width:0.7;stroke-linecap:round;stroke-linejoin:round;stroke-miterlimit:3;stroke:#000000;stroke-opacity:0.301961" d="M20.25 5.75Q19.6 4.2 18.2 3.5L13.15 1Q11.05 -0.5 9.25 0.25Q5.25 2.7 4.35 5.1L3.4 7.95L2.7 10.25" />
<path style="fill:none;stroke-width:0.7;stroke-linecap:round;stroke-linejoin:round;stroke-miterlimit:3;stroke:#000000;stroke-opacity:0.301961" d="M2 15.65Q0.75 17.7 0.35 19.25Q0.1 20.25 0.2 20.55" />
<path style="fill:none;stroke-width:0.7;stroke-linecap:round;stroke-linejoin:round;stroke-miterlimit:3;stroke:#000000;stroke-opacity:0.301961" d="M1.7 26.15Q0.45 27.1 0.2 29.2" />
<path style="fill:none;stroke-width:0.7;stroke-linecap:round;stroke-linejoin:round;stroke-miterlimit:3;stroke:#000000;stroke-opacity:0.301961" d="M0.95 30.55Q0.65 30.9 0.2 31L0.4 29.65" />
</g>
</svg>
