<?xml version="1.0" encoding="utf-8"?>
<svg version="1.1" id="Layer_1"
xmlns="http://www.w3.org/2000/svg"
xmlns:xlink="http://www.w3.org/1999/xlink"
width="17px" height="9px"
xml:space="preserve">
<g id="PathID_3822" transform="matrix(1, 0, 0, 1, 0, 0)">
<path style="fill:#585858;fill-opacity:1" d="M9.75 5.05L11.4 5.65L13.15 6.3L15.45 6.9L16.5 7.85Q16 8.15 15.5 7.85L13.15 6.3L9.8 6.5Q10.4 6.25 9.75 5.05" />
<radialGradient
id="RadialGradID_1262" gradientUnits="userSpaceOnUse" gradientTransform="matrix(0.00474548, 0, 0, 0.00683594, 1.7, -0.15)" spreadMethod ="pad" cx="0" cy="0" r="819.2" fx="0" fy="0" >
<stop  offset="0"  style="stop-color:#FFFFFF;stop-opacity:0" />
<stop  offset="0.494118"  style="stop-color:#808080;stop-opacity:0" />
<stop  offset="1"  style="stop-color:#808080;stop-opacity:1" />
</radialGradient>
<path style="fill:url(#RadialGradID_1262) " d="M2.3 4.9L1.85 4.75L2.25 6.45L0.9 4.7Q0.2 3.65 0.05 2.5Q-0.1 1.3 0.6 0L0.6 1.05L1.2 0.8L1.9 1.2Q1.45 2.25 1.9 3.3L2.3 4.9" />
<path style="fill:#808080;fill-opacity:1" d="M4.15 7.5Q3.05 7.1 2.25 6.45L1.85 4.75L2.3 4.9L1.9 3.3Q2.45 4.9 4.25 5.85L4.15 7.5" />
<path style="fill:#6B6B6B;fill-opacity:1" d="M4.25 5.85L4.35 5.65Q5.9 6.3 6.75 6.25L8 7.55L6.6 7.65L6.25 7.15L5.85 7.65L4.75 7.55L4.15 7.5L4.25 5.85" />
<path style="fill:none;stroke-width:0.7;stroke-linecap:round;stroke-linejoin:round;stroke-miterlimit:3;stroke:#000000;stroke-opacity:0.4" d="M16.5 7.85Q16 8.15 15.5 7.85L13.15 6.3L9.8 6.5Q10.4 6.25 9.75 5.05" />
<path style="fill:none;stroke-width:0.7;stroke-linecap:round;stroke-linejoin:round;stroke-miterlimit:3;stroke:#000000;stroke-opacity:0.4" d="M8 7.55L6.6 7.65" />
<path style="fill:none;stroke-width:0.7;stroke-linecap:round;stroke-linejoin:round;stroke-miterlimit:3;stroke:#000000;stroke-opacity:0.4" d="M5.85 7.65L4.75 7.55" />
<path style="fill:none;stroke-width:0.7;stroke-linecap:round;stroke-linejoin:round;stroke-miterlimit:3;stroke:#000000;stroke-opacity:0.4" d="M4.15 7.5Q3.05 7.1 2.25 6.45" />
</g>
</svg>
