<?xml version="1.0" encoding="utf-8"?>
<svg version="1.1" id="Layer_1"
xmlns="http://www.w3.org/2000/svg"
xmlns:xlink="http://www.w3.org/1999/xlink"
width="27px" height="12px"
xml:space="preserve">
<g id="PathID_1561" transform="matrix(1, 0, 0, 1, 0.25, 0.25)">
<path style="fill:#4F4943;fill-opacity:1" d="M2.7 8.25Q5.75 4.6 10.2 3.85L10.1 2.55L7.5 2.7Q5.05 3.05 3.7 4.05L3.55 3.55Q3.45 2.8 4.05 1.05L10.15 1.6L10.1 2.55Q10.5 3.65 14.55 5.15Q19.5 6.95 25.55 7.2L24.45 8.95Q23.65 10 22.05 9.5L12.85 6.7Q11.4 6.2 10.4 6.25L10.05 5.2Q8.9 5.75 7.4 6.75Q4.95 8.4 3.75 10.2L3.15 9.25L2.7 8.25M10.05 5.2L10.2 3.85L10.05 5.2" />
<path style="fill:#808080;fill-opacity:1" d="M10.15 1.6Q10.25 0.8 10.7 0Q11.65 0.85 13.85 2.35Q16.75 4.3 18.35 4.7L22.9 5.4L26.15 5.5L26.25 6.55Q26.15 7.25 25.55 7.2Q19.5 6.95 14.55 5.15Q10.5 3.65 10.1 2.55L10.15 1.6M2.7 8.25L2.2 6.7L1.95 5.2L3.7 4.05Q5.05 3.05 7.5 2.7L10.1 2.55L10.2 3.85Q5.75 4.6 2.7 8.25" />
<path style="fill:none;stroke-width:0.7;stroke-linecap:round;stroke-linejoin:round;stroke-miterlimit:3;stroke:#000000;stroke-opacity:0.45098" d="M10.15 1.6Q10.25 0.8 10.7 0Q11.65 0.85 13.85 2.35Q16.75 4.3 18.35 4.7L22.9 5.4L26.15 5.5L26.25 6.55Q26.15 7.25 25.55 7.2L24.45 8.95Q23.65 10 22.05 9.5L12.85 6.7Q11.4 6.2 10.4 6.25L10.05 5.2Q8.9 5.75 7.4 6.75Q4.95 8.4 3.75 10.2L3.15 9.25L1.7 11.05" />
<path style="fill:none;stroke-width:0.7;stroke-linecap:round;stroke-linejoin:round;stroke-miterlimit:3;stroke:#000000;stroke-opacity:0.301961" d="M10.2 3.85L10.1 2.55L7.5 2.7Q5.05 3.05 3.7 4.05" />
<path style="fill:none;stroke-width:0.7;stroke-linecap:round;stroke-linejoin:round;stroke-miterlimit:3;stroke:#000000;stroke-opacity:0.45098" d="M3.7 4.05L1.95 5.2L2.2 6.7L2.7 8.25" />
<path style="fill:none;stroke-width:0.7;stroke-linecap:round;stroke-linejoin:round;stroke-miterlimit:3;stroke:#000000;stroke-opacity:0.301961" d="M10.2 3.85L10.05 5.2" />
<path style="fill:none;stroke-width:0.7;stroke-linecap:round;stroke-linejoin:round;stroke-miterlimit:3;stroke:#000000;stroke-opacity:0.45098" d="M3.55 3.55L1.45 4.3" />
<path style="fill:none;stroke-width:0.7;stroke-linecap:round;stroke-linejoin:round;stroke-miterlimit:3;stroke:#000000;stroke-opacity:0.45098" d="M3.35 2.15L1.4 2.15" />
<path style="fill:none;stroke-width:0.7;stroke-linecap:round;stroke-linejoin:round;stroke-miterlimit:3;stroke:#000000;stroke-opacity:0.45098" d="M1.95 5.2L0 5.85" />
<path style="fill:none;stroke-width:0.7;stroke-linecap:round;stroke-linejoin:round;stroke-miterlimit:3;stroke:#000000;stroke-opacity:0.45098" d="M3.7 4.05L3.55 3.55Q3.45 2.8 4.05 1.05L1.85 0.3" />
<path style="fill:none;stroke-width:0.7;stroke-linecap:round;stroke-linejoin:round;stroke-miterlimit:3;stroke:#000000;stroke-opacity:0.45098" d="M2.7 8.25L1 9.15" />
<path style="fill:none;stroke-width:0.7;stroke-linecap:round;stroke-linejoin:round;stroke-miterlimit:3;stroke:#000000;stroke-opacity:0.45098" d="M2.7 8.25L3.15 9.25" />
<path style="fill:none;stroke-width:0.7;stroke-linecap:round;stroke-linejoin:round;stroke-miterlimit:3;stroke:#000000;stroke-opacity:0.45098" d="M2.2 6.7L0.25 7.5" />
<path style="fill:none;stroke-width:0.7;stroke-linecap:round;stroke-linejoin:round;stroke-miterlimit:3;stroke:#000000;stroke-opacity:0.45098" d="M10.15 1.6L4.05 1.05" />
<path style="fill:none;stroke-width:0.7;stroke-linecap:round;stroke-linejoin:round;stroke-miterlimit:3;stroke:#000000;stroke-opacity:0.301961" d="M10.1 2.55L10.15 1.6" />
</g>
</svg>
