<?xml version="1.0" encoding="utf-8"?>
<svg version="1.1" id="Layer_1"
xmlns="http://www.w3.org/2000/svg"
xmlns:xlink="http://www.w3.org/1999/xlink"
width="21px" height="14px"
xml:space="preserve">
<g id="PathID_1476" transform="matrix(1, 0, 0, 1, -0.15, 0)">
<path style="fill:#4F4943;fill-opacity:1" d="M9.65 7.9L12.75 9.4Q16.35 10.75 19.1 10.05Q18.85 10.75 17.45 11.8Q11.35 11.55 4.4 5.9L5.85 3.4Q9 5 11.7 6.05L9.65 7.9" />
<path style="fill:#808080;fill-opacity:1" d="M11.7 6.05Q17.15 8.05 20.55 7.45Q20.5 8.35 19.1 10.05Q16.35 10.75 12.75 9.4L9.65 7.9L11.7 6.05" />
<path style="fill:none;stroke-width:0.7;stroke-linecap:round;stroke-linejoin:round;stroke-miterlimit:3;stroke:#000000;stroke-opacity:0.4" d="M19.1 10.05Q18.85 10.75 17.45 11.8Q11.35 11.55 4.4 5.9L5.85 3.4Q9 5 11.7 6.05Q17.15 8.05 20.55 7.45Q20.5 8.35 19.1 10.05z" />
</g>
<g id="PathID_1477" transform="matrix(1, 0, 0, 1, -0.15, 0)">
<path style="fill:#808080;fill-opacity:1" d="M6.6 9.3L7.75 8.25L9.25 9.2L10.45 11.8Q8.95 13.5 6.25 13Q6.2 11.1 6.6 9.3" />
<path style="fill:#4F4943;fill-opacity:1" d="M7.75 8.25L6.6 9.3Q6.9 6.6 7.45 6.55Q8.5 7.8 9.25 9.2L7.75 8.25" />
<path style="fill:none;stroke-width:0.7;stroke-linecap:round;stroke-linejoin:round;stroke-miterlimit:3;stroke:#000000;stroke-opacity:0.4" d="M9.25 9.2Q8.5 7.8 7.45 6.55Q6.9 6.6 6.6 9.3" />
<path style="fill:none;stroke-width:0.7;stroke-linecap:round;stroke-linejoin:round;stroke-miterlimit:3;stroke:#000000;stroke-opacity:0.4" d="M9.25 9.2L10.45 11.8Q8.95 13.5 6.25 13Q6.2 11.1 6.6 9.3" />
</g>
<g id="PathID_1478" transform="matrix(1, 0, 0, 1, -0.15, 0)">
<path style="fill:#808080;fill-opacity:1" d="M4.05 7.65Q5.05 7.8 5.5 9.5L4.2 12.4Q1.15 11.9 0.9 10.1Q2.15 8.6 4.05 7.65" />
<path style="fill:#4F4943;fill-opacity:1" d="M4.05 7.65L5.15 7.1L6 7.05L5.5 9.5Q5.05 7.8 4.05 7.65" />
<path style="fill:none;stroke-width:0.7;stroke-linecap:round;stroke-linejoin:round;stroke-miterlimit:3;stroke:#000000;stroke-opacity:0.4" d="M5.5 9.5L6 7.05L5.15 7.1L4.05 7.65" />
<path style="fill:none;stroke-width:0.7;stroke-linecap:round;stroke-linejoin:round;stroke-miterlimit:3;stroke:#000000;stroke-opacity:0.4" d="M5.5 9.5L4.2 12.4Q1.15 11.9 0.9 10.1Q2.15 8.6 4.05 7.65" />
</g>
<g id="PathID_1479" transform="matrix(1, 0, 0, 1, -0.15, 0)">
<path style="fill:#808080;fill-opacity:1" d="M13.55 1.95Q15.7 2.2 15.05 4L13.95 5.6Q14.9 9.4 12.8 9.65Q10.75 9.75 9.2 8.05Q9.1 7.45 9.3 6.85Q9.75 5.65 11.45 5.6Q10.25 4.95 10.15 4.55L10.3 2.65Q11.65 1.8 13.55 1.95" />
<path style="fill:#4F4943;fill-opacity:1" d="M8.15 6.55L8.3 4.9Q9.1 3.4 10.3 2.65L10.15 4.55Q10.25 4.95 11.45 5.6Q9.75 5.65 9.3 6.85Q9.1 7.45 9.2 8.05L8.15 6.55" />
<path style="fill:none;stroke-width:0.7;stroke-linecap:round;stroke-linejoin:round;stroke-miterlimit:3;stroke:#000000;stroke-opacity:0.4" d="M9.2 8.05Q10.75 9.75 12.8 9.65Q14.9 9.4 13.95 5.6L15.05 4Q15.7 2.2 13.55 1.95Q11.65 1.8 10.3 2.65Q9.1 3.4 8.3 4.9L8.15 6.55L9.2 8.05z" />
</g>
<g id="PathID_1480" transform="matrix(1, 0, 0, 1, -0.15, 0)">
<path style="fill:#4F4943;fill-opacity:1" d="M4.65 5.95Q4.9 5.1 3.9 4.05L4.85 4.5Q5.85 4.4 5.55 2.65L6.05 3.7Q6.6 4.55 5.85 5.4Q6.1 5.9 5.65 6.6Q4.7 7.25 2.4 7.45Q4.2 6.65 4.65 5.95" />
<path style="fill:#808080;fill-opacity:1" d="M5.55 2.65Q5.85 4.4 4.85 4.5L3.9 4.05Q4.9 5.1 4.65 5.95Q4.2 6.65 2.4 7.45L0.85 7.1Q-0.45 6.35 0.65 4.6L1.35 3.55Q0.7 2.45 1.05 1.35Q1.65 -0.6 3.75 0.25Q4.7 1.1 5.55 2.65" />
<path style="fill:none;stroke-width:0.7;stroke-linecap:round;stroke-linejoin:round;stroke-miterlimit:3;stroke:#000000;stroke-opacity:0.4" d="M2.4 7.45Q4.7 7.25 5.65 6.6Q6.1 5.9 5.85 5.4Q6.6 4.55 6.05 3.7L5.55 2.65" />
<path style="fill:none;stroke-width:0.7;stroke-linecap:round;stroke-linejoin:round;stroke-miterlimit:3;stroke:#000000;stroke-opacity:0.4" d="M2.4 7.45L0.85 7.1Q-0.45 6.35 0.65 4.6L1.35 3.55Q0.7 2.45 1.05 1.35Q1.65 -0.6 3.75 0.25Q4.7 1.1 5.55 2.65" />
</g>
<g id="PathID_1481" transform="matrix(1, 0, 0, 1, -0.15, 0)">
<path style="fill:#808080;fill-opacity:1" d="M7.7 5.55Q7.65 6.5 6.7 7.1L5.6 6.35Q4.95 5.45 5.8 4.35Q6.1 3.95 6.85 3.95L7.6 4.15L7.7 5.55" />
<path style="fill:#4F4943;fill-opacity:1" d="M7.6 4.15Q8.55 4.6 8.45 5.7Q8.4 6.5 7.7 6.85L6.7 7.1Q7.65 6.5 7.7 5.55L7.6 4.15" />
<path style="fill:none;stroke-width:0.7;stroke-linecap:round;stroke-linejoin:round;stroke-miterlimit:3;stroke:#000000;stroke-opacity:0.4" d="M6.7 7.1L5.6 6.35Q4.95 5.45 5.8 4.35Q6.1 3.95 6.85 3.95L7.6 4.15Q8.55 4.6 8.45 5.7Q8.4 6.5 7.7 6.85L6.7 7.1z" />
</g>
</svg>
