<?xml version="1.0" encoding="utf-8"?>
<svg version="1.1" id="Layer_1"
xmlns="http://www.w3.org/2000/svg"
xmlns:xlink="http://www.w3.org/1999/xlink"
width="5px" height="4px"
xml:space="preserve">
<g id="PathID_171" transform="matrix(1, 0, 0, 1, 0.05, 0.05)">
<path style="fill:#808080;fill-opacity:1" d="M0.65 2.6L0.15 1.7Q-0.3 0.6 0.45 0.15Q1.25 -0.3 2.1 0.5Q2.65 -0.05 3.2 0Q3.7 0.2 3.8 1.1Q3.15 2.5 2.05 3.1L0.65 2.6M3.1 0.95L3.2 0.8Q3.2 0.55 2.85 0.55Q2.5 0.55 2.5 0.85L2.75 1.15L3.1 0.95M1.15 0.5Q0.55 0.8 0.55 1.2Q0.55 1.7 1.05 1.7Q1.65 1.7 1.65 0.85Q1.65 0.2 1.15 0.5" />
<path style="fill:#5D5752;fill-opacity:1" d="M2.05 3.1Q3.15 2.5 3.8 1.1Q3.7 0.2 3.2 0L3.7 0.15Q4.4 0.6 4 1.7Q3.85 2.35 3.35 2.8Q2.8 3.4 2.1 3.65L2.05 3.65Q1.4 3.4 0.8 2.8L0.65 2.6L2.05 3.1" />
<path style="fill:#C9C9C9;fill-opacity:1" d="M2.75 1.15L2.5 0.85Q2.5 0.55 2.85 0.55Q3.2 0.55 3.2 0.8L3.1 0.95L2.75 1.15M1.65 0.85Q1.65 1.7 1.05 1.7Q0.55 1.7 0.55 1.2Q0.55 0.8 1.15 0.5Q1.65 0.2 1.65 0.85" />
<path style="fill:none;stroke-width:0.7;stroke-linecap:round;stroke-linejoin:round;stroke-miterlimit:3;stroke:#000000;stroke-opacity:0.4" d="M3.2 0L3.7 0.15Q4.4 0.6 4 1.7Q3.85 2.35 3.35 2.8Q2.8 3.4 2.1 3.65L2.05 3.65Q1.4 3.4 0.8 2.8L0.65 2.6L0.15 1.7Q-0.3 0.6 0.45 0.15Q1.25 -0.3 2.1 0.5Q2.65 -0.05 3.2 0z" />
</g>
</svg>
