<?xml version="1.0" encoding="utf-8"?>
<svg version="1.1" id="Layer_1"
xmlns="http://www.w3.org/2000/svg"
xmlns:xlink="http://www.w3.org/1999/xlink"
width="22px" height="9px"
xml:space="preserve">
<g id="PathID_2427" transform="matrix(1, 0, 0, 1, 0, 0)">
<path style="fill:#54504C;fill-opacity:1" d="M18.5 6.1L18 5.45Q20.85 2.25 19.95 1.6L16.55 3.7L20.35 1.45Q20.95 1.4 21.35 0.5Q21.5 3.15 18.5 6.1M16.55 3.7L14.5 5.5Q7.95 9.35 1.35 7.55Q-0.1 7.25 0 6.55L0.4 6.35L1.3 6.7L4.15 7.1Q10.45 7.1 14.6 4.5L17.4 2.6Q19.15 1.35 19.95 1.6" />
<path style="fill:#808080;fill-opacity:1" d="M17.4 2.6L14.6 4.5Q10.45 7.1 4.15 7.1L1.3 6.7L0.4 6.35Q5.25 3.65 10.7 3Q14.4 2.2 17.7 0.8Q21 -0.65 21.35 0.5Q20.95 1.4 20.35 1.45L19.95 1.6Q19.15 1.35 17.4 2.6" />
<path style="fill:#33302D;fill-opacity:1" d="M16.55 3.7L19.95 1.6Q20.85 2.25 18 5.45L16.55 3.7" />
<path style="fill:none;stroke-width:0.7;stroke-linecap:round;stroke-linejoin:round;stroke-miterlimit:3;stroke:#000000;stroke-opacity:0.4" d="M18 5.45L18.5 6.1Q21.5 3.15 21.35 0.5Q21 -0.65 17.7 0.8Q14.4 2.2 10.7 3Q5.25 3.65 0.4 6.35" />
<path style="fill:none;stroke-width:0.7;stroke-linecap:round;stroke-linejoin:round;stroke-miterlimit:3;stroke:#000000;stroke-opacity:0.4" d="M19.95 1.6L16.55 3.7L18 5.45" />
<path style="fill:none;stroke-width:0.7;stroke-linecap:round;stroke-linejoin:round;stroke-miterlimit:3;stroke:#000000;stroke-opacity:0.4" d="M0.4 6.35L0 6.55Q-0.1 7.25 1.35 7.55Q7.95 9.35 14.5 5.5L16.55 3.7" />
</g>
</svg>
