<?xml version="1.0" encoding="utf-8"?>
<svg version="1.1" id="Layer_1"
xmlns="http://www.w3.org/2000/svg"
xmlns:xlink="http://www.w3.org/1999/xlink"
width="26px" height="27px"
xml:space="preserve">
<g id="PathID_2012" transform="matrix(1, 0, 0, 1, 12.55, 13.4)">
<path style="fill:#808080;fill-opacity:1" d="M12.55 11.2Q11.4 12.9 10.05 13.45L10.05 11.65Q11.4 12.1 12.55 11.2" />
<path style="fill:#666666;fill-opacity:1" d="M7.55 -3.65Q6.95 -4.35 6.45 -5.65Q5.9 -7.05 4.8 -8.4L6.9 -7.55Q7.75 -5.6 7.6 -3.6L7.55 -3.65" />
<linearGradient
id="LinearGradID_583" gradientUnits="userSpaceOnUse" gradientTransform="matrix(0.00146484, 0.00340271, -0.00164795, 0.000717163, 5.5, 7.95)" spreadMethod ="pad" x1="-819.2" y1="0" x2="819.2" y2="0" >
<stop  offset="0" style="stop-color:#666666;stop-opacity:1" />
<stop  offset="1" style="stop-color:#808080;stop-opacity:1" />
</linearGradient>
<path style="fill:url(#LinearGradID_583) " d="M7.3 10.35Q6.65 10.8 6.5 11.3Q3.85 10.1 3.45 5.2L5.4 4.1Q5.5 6.1 6.2 7.95Q6.8 9.45 7.5 10.25L7.3 10.35" />
<linearGradient
id="LinearGradID_584" gradientUnits="userSpaceOnUse" gradientTransform="matrix(-0.0100861, 0.0106659, -0.00657654, -0.00621033, -3.4, -4.35)" spreadMethod ="pad" x1="-819.2" y1="0" x2="819.2" y2="0" >
<stop  offset="0" style="stop-color:#666666;stop-opacity:1" />
<stop  offset="0.211765" style="stop-color:#808080;stop-opacity:1" />
<stop  offset="0.843137" style="stop-color:#808080;stop-opacity:1" />
<stop  offset="1" style="stop-color:#666666;stop-opacity:1" />
</linearGradient>
<path style="fill:url(#LinearGradID_584) " d="M6.95 -9.6Q4.25 -10.9 0.95 -11.5L-0.95 -11.75L-1.55 -11.75L-3.95 -11.55L-4.65 -11.3L-5 -11.15Q-6.45 -10.25 -6.8 -8.05Q-9.7 -6.1 -10.25 -2.6Q-10.7 0.2 -9.75 2L-7.4 4.45Q-5.95 5.7 -5.45 7.9Q-5.7 8.75 -6.45 9.6L-7.15 10.35Q-6.8 9.2 -7.55 7.7Q-8.35 6.2 -9.55 5.5Q-10 4.55 -11.05 3.15Q-12.35 1.4 -12.5 -0.45Q-12.7 -2.9 -11.5 -4.9Q-10.5 -6.7 -8.05 -8.65L-8.05 -8.75Q-7.5 -11.1 -6 -12.3L-4.8 -12.9L-4.35 -13.05L-2.45 -13.35L1.6 -13Q4.9 -11.95 6 -11L6.95 -9.6" />
</g>
</svg>
