<?xml version="1.0" encoding="utf-8"?>
<svg version="1.1" id="Layer_1"
xmlns="http://www.w3.org/2000/svg"
xmlns:xlink="http://www.w3.org/1999/xlink"
width="20px" height="13px"
xml:space="preserve">
<g id="PathID_2217" transform="matrix(1, 0, 0, 1, 0.05, 0.05)">
<path style="fill:#808080;fill-opacity:1" d="M11.9 4.4L18.4 0.15L18.8 0.95L13.75 4.5L11.9 4.4" />
<path style="fill:none;stroke-width:0.7;stroke-linecap:round;stroke-linejoin:round;stroke-miterlimit:3;stroke:#000000;stroke-opacity:0.2" d="M11.9 4.4L18.4 0.15L18.8 0.95L13.75 4.5L11.9 4.4z" />
</g>
<g id="PathID_2218" transform="matrix(1, 0, 0, 1, 0.05, 0.05)">
<path style="fill:#808080;fill-opacity:1" d="M5.15 6.25L1.15 9.35Q0.7 10.2 2.9 11.2Q3.2 12.1 2.1 12Q-0.2 10.9 0 9.2L4.55 5.3L5.15 6.25" />
<path style="fill:none;stroke-width:0.7;stroke-linecap:round;stroke-linejoin:round;stroke-miterlimit:3;stroke:#000000;stroke-opacity:0.2" d="M5.15 6.25L1.15 9.35Q0.7 10.2 2.9 11.2Q3.2 12.1 2.1 12Q-0.2 10.9 0 9.2L4.55 5.3L5.15 6.25z" />
</g>
<g id="PathID_2219" transform="matrix(1, 0, 0, 1, 0.05, 0.05)">
<path style="fill:#808080;fill-opacity:1" d="M18.85 2.3Q18.8 0.35 17.05 0.9Q15.25 1.4 15.15 3.25Q15.1 5.05 16.25 5.6Q17.4 6.15 18.15 5.2Q18.9 4.25 18.85 2.3M14.95 4.95L14.7 3.9L14.55 3.05Q13.65 3.35 12.75 4.25L12 5.3L12 4.35Q11.9 7.35 10.95 8.55Q9.95 9.8 8.5 9.65L6.35 9.25L5.15 8.2Q4.6 7.5 4.4 6.45Q4.15 5.35 4.7 4.05Q5.25 2.7 6.1 2.5L8.6 2.25Q10.25 2.2 11 2.75Q11.85 3.3 12 4.35L12 5.3Q12.4 3.4 13 3.15L14.55 3.05L14.7 3.9Q14.5 2.5 14.95 1.6Q15.35 0.7 16.55 0.3L18.45 0.05Q19.5 0.25 19.6 2.3Q19.65 4.3 19.1 5.15L17.75 6.45L16.95 6.65L16.5 6.15L14.95 4.95M10.5 3.3Q9.8 2.85 8.5 2.9L6.5 3.1Q5.8 3.25 5.4 4.4Q4.95 5.55 5.5 7.05Q5.95 8.5 7.8 8.85Q9.6 9.2 10.55 7.85Q11.45 6.45 11.35 5.1Q11.2 3.75 10.5 3.3" />
<path style="fill:none;stroke-width:0.7;stroke-linecap:round;stroke-linejoin:round;stroke-miterlimit:3;stroke:#000000;stroke-opacity:0.2" d="M14.95 4.95L14.7 3.9Q13.65 3.35 12.75 4.25L12 5.3Q11.9 7.35 10.95 8.55Q9.95 9.8 8.5 9.65L6.35 9.25L5.15 8.2Q4.6 7.5 4.4 6.45Q4.15 5.35 4.7 4.05Q5.25 2.7 6.1 2.5L8.6 2.25Q10.25 2.2 11 2.75Q11.85 3.3 12 4.35Q12.4 3.4 13 3.15L14.55 3.05Q14.5 2.5 14.95 1.6Q15.35 0.7 16.55 0.3L18.45 0.05Q19.5 0.25 19.6 2.3Q19.65 4.3 19.1 5.15L17.75 6.45L16.95 6.65" />
<path style="fill:none;stroke-width:0.7;stroke-linecap:round;stroke-linejoin:round;stroke-miterlimit:3;stroke:#000000;stroke-opacity:0.2" d="M12 4.35L12 5.3" />
<path style="fill:none;stroke-width:0.7;stroke-linecap:round;stroke-linejoin:round;stroke-miterlimit:3;stroke:#000000;stroke-opacity:0.2" d="M14.7 3.9L14.55 3.05" />
</g>
</svg>
