<?xml version="1.0" encoding="utf-8"?>
<svg version="1.1" id="Layer_1"
xmlns="http://www.w3.org/2000/svg"
xmlns:xlink="http://www.w3.org/1999/xlink"
width="18px" height="15px"
xml:space="preserve">
<g id="PathID_629" transform="matrix(1, 0, 0, 1, 0.05, 0.15)">
<path style="fill:#808080;fill-opacity:1" d="M14.9 7.8Q13.65 7.9 10.45 10.75Q6.85 13.9 3.8 13.3Q2 12.9 0.75 11.45L0.3 10.6Q-0.15 9.45 0.1 7.9L0.5 6.7Q2.75 2.7 6.65 1.05Q8.45 0 10.75 0Q12.1 -0.1 12.45 1.35L12.45 1.4Q12.55 2.05 12.2 2.3Q7.15 2.95 3.35 6.65Q2.2 8.85 2.75 9.75Q3.3 10.75 3.9 11L7.35 11.15Q9.15 10.85 10.65 8.65Q12.5 5.75 16 6.4Q17 7 17.55 8.05L14.9 7.8" />
<path style="fill:#4F4943;fill-opacity:1" d="M17.55 8.05Q17.35 8.95 16.9 9.25L13.65 9.35L11.45 11.35Q8.75 14.35 5.95 14.1Q2.95 14.25 1.25 12.1L0.75 11.45Q2 12.9 3.8 13.3Q6.85 13.9 10.45 10.75Q13.65 7.9 14.9 7.8L17.55 8.05" />
<path style="fill:none;stroke-width:0.7;stroke-linecap:round;stroke-linejoin:round;stroke-miterlimit:3;stroke:#000000;stroke-opacity:0.4" d="M0.1 7.9L0.5 6.7Q2.75 2.7 6.65 1.05Q8.45 0 10.75 0Q12.1 -0.1 12.45 1.35L12.45 1.4Q12.55 2.05 12.2 2.3Q7.15 2.95 3.35 6.65Q2.2 8.85 2.75 9.75Q3.3 10.75 3.9 11L7.35 11.15Q9.15 10.85 10.65 8.65Q12.5 5.75 16 6.4Q17 7 17.55 8.05Q17.35 8.95 16.9 9.25" />
</g>
</svg>
