<?xml version="1.0" encoding="utf-8"?>
<svg version="1.1" id="Layer_1"
xmlns="http://www.w3.org/2000/svg"
xmlns:xlink="http://www.w3.org/1999/xlink"
width="15px" height="7px"
xml:space="preserve">
<g id="PathID_3499" transform="matrix(1, 0, 0, 1, 0, 0)">
<radialGradient
id="RadialGradID_1117" gradientUnits="userSpaceOnUse" gradientTransform="matrix(0.00991821, 0, 0, 0.00991821, 5.2, -2.95)" spreadMethod ="pad" cx="0" cy="0" r="819.2" fx="67" fy="0" >
<stop  offset="0"  style="stop-color:#AAAAAA;stop-opacity:1" />
<stop  offset="1"  style="stop-color:#808080;stop-opacity:1" />
</radialGradient>
<path style="fill:url(#RadialGradID_1117) " d="M12.6 3.5L10.15 3.05L9.9 2.5L9.85 2.45Q10.55 0.35 11.55 0.45L12.4 0.9L12.8 1.3L12.4 0.9L11.55 0.45Q10.55 0.35 9.85 2.45L9.9 2.5L10.15 3.05L8.9 2.15Q7.2 1.25 5.45 1.45L4.05 1.85L5.45 1.45Q7.2 1.25 8.9 2.15L10.15 3.05L7.6 4.8L6.05 5.4L5.6 5.5L4.6 5.55L3.15 5.25L1.5 4.65L0.1 3.55L0 2.7L0.15 1.6Q0.15 0.9 0.75 0.55Q0.5 1.2 0.85 1.85Q1.2 2.5 2.15 2.45L3.7 2.1L4.05 1.85L4.55 1.4Q5.65 0.4 6.3 0.4Q7.45 0.4 8.5 1.15L9.85 2.45L9.75 1.8Q9.75 1.15 10.05 0.65Q10.35 0.1 11.3 0Q12 -0.05 12.4 0.45L12.65 0.85L12.8 1.3L13 1.95L13.35 2.5Q13.95 3.1 14.6 1.55Q14.6 2.85 14.3 3.3L12.6 3.5M11 1.9Q11.45 1.45 11.9 1.7L12.5 2.45Q13.05 3.25 13.65 3.25Q14.15 3.25 14.6 1.55Q14.15 3.25 13.65 3.25Q13.05 3.25 12.5 2.45L11.9 1.7Q11.45 1.45 11 1.9M8.2 3.1Q7.15 4.4 5.45 4.7L3.95 4.7L3.2 4.6Q0.55 4.15 0.15 1.6Q0.55 4.15 3.2 4.6L3.95 4.7L5.45 4.7Q7.15 4.4 8.2 3.1" />
<path style="fill:#4F4943;fill-opacity:1" d="M14.3 3.3L13.85 3.9L13.15 4.05L13.1 4.35L11.6 4.55Q11.15 4.5 10.6 4.05L10.15 3.6Q8.5 5.45 6.15 5.5L10.15 3.05Q9.7 4.6 8.9 5.25L7.65 5.95L5.75 6.35L2.9 6.05Q0.5 5.4 0.1 3.55L1.5 4.65L3.15 5.25L4.6 5.55L5.6 5.5L6.15 5.5L6.05 5.4L7.6 4.8L10.15 3.05L10.15 3.6L11.4 3.9L12.6 3.5L14.3 3.3M13.15 4.05L11.4 3.9L10.15 3.05M11.4 3.9L13.15 4.05L13.85 3.9M6.15 5.5Q8.5 5.45 10.15 3.6M6.15 5.5L5.6 5.5" />
<path style="fill:none;stroke-width:0.7;stroke-linecap:round;stroke-linejoin:round;stroke-miterlimit:3;stroke:#000000;stroke-opacity:0.4" d="M0.1 3.55L0 2.7L0.15 1.6Q0.15 0.9 0.75 0.55Q0.5 1.2 0.85 1.85Q1.2 2.5 2.15 2.45L3.7 2.1L4.05 1.85L4.55 1.4Q5.65 0.4 6.3 0.4Q7.45 0.4 8.5 1.15L9.85 2.45L9.75 1.8Q9.75 1.15 10.05 0.65Q10.35 0.1 11.3 0Q12 -0.05 12.4 0.45L12.65 0.85L12.8 1.3L13 1.95L13.35 2.5Q13.95 3.1 14.6 1.55Q14.6 2.85 14.3 3.3L13.85 3.9L13.1 4.35L11.6 4.55Q11.15 4.5 10.6 4.05L10.15 3.6Q9.7 4.6 8.9 5.25L7.65 5.95L5.75 6.35L2.9 6.05Q0.5 5.4 0.1 3.55z" />
<path style="fill:none;stroke-width:0.7;stroke-linecap:round;stroke-linejoin:round;stroke-miterlimit:3;stroke:#000000;stroke-opacity:0.2" d="M10.15 3.05L8.9 2.15Q7.2 1.25 5.45 1.45L4.05 1.85" />
<path style="fill:none;stroke-width:0.7;stroke-linecap:round;stroke-linejoin:round;stroke-miterlimit:3;stroke:#000000;stroke-opacity:0.2" d="M12.8 1.3L12.4 0.9L11.55 0.45Q10.55 0.35 9.85 2.45" />
<path style="fill:none;stroke-width:0.7;stroke-linecap:round;stroke-linejoin:round;stroke-miterlimit:3;stroke:#000000;stroke-opacity:0.4" d="M9.85 2.45L9.9 2.5L10.15 3.05" />
<path style="fill:none;stroke-width:0.7;stroke-linecap:round;stroke-linejoin:round;stroke-miterlimit:3;stroke:#000000;stroke-opacity:0.2" d="M14.6 1.55Q14.15 3.25 13.65 3.25Q13.05 3.25 12.5 2.45L11.9 1.7Q11.45 1.45 11 1.9" />
<path style="fill:none;stroke-width:0.7;stroke-linecap:round;stroke-linejoin:round;stroke-miterlimit:3;stroke:#000000;stroke-opacity:0.2" d="M10.15 3.05L11.4 3.9L13.15 4.05L13.85 3.9" />
<path style="fill:none;stroke-width:0.7;stroke-linecap:round;stroke-linejoin:round;stroke-miterlimit:3;stroke:#000000;stroke-opacity:0.4" d="M10.15 3.05L10.15 3.6" />
<path style="fill:none;stroke-width:0.7;stroke-linecap:round;stroke-linejoin:round;stroke-miterlimit:3;stroke:#000000;stroke-opacity:0.2" d="M10.15 3.6Q8.5 5.45 6.15 5.5L5.6 5.5" />
<path style="fill:none;stroke-width:0.7;stroke-linecap:round;stroke-linejoin:round;stroke-miterlimit:3;stroke:#000000;stroke-opacity:0.2" d="M0.15 1.6Q0.55 4.15 3.2 4.6L3.95 4.7L5.45 4.7Q7.15 4.4 8.2 3.1" />
</g>
</svg>
