<?xml version="1.0" encoding="utf-8"?>
<svg version="1.1" id="Layer_1"
xmlns="http://www.w3.org/2000/svg"
xmlns:xlink="http://www.w3.org/1999/xlink"
width="3px" height="5px"
xml:space="preserve">
<g id="PathID_3907" transform="matrix(1, 0, 0, 1, 0, 0)">
<path style="fill:#808080;fill-opacity:1" d="M1.65 4.05Q1.85 3.4 1.55 3.1Q0.9 2.4 0.35 3.2L0.05 3.85Q-0.1 3.05 0.55 2L2.15 0L2.45 2.15Q2.5 3.65 2 4.4L1.4 4.9L1.65 4.05" />
<path style="fill:#74624F;fill-opacity:1" d="M1.4 4.9L1.15 4.95L0.8 4.9L0.35 4.6L0.35 4.55L0.15 4.2L0 3.95L0.05 3.85L0.35 3.2Q0.9 2.4 1.55 3.1Q1.85 3.4 1.65 4.05L1.4 4.9" />
</g>
</svg>
