<?xml version="1.0" encoding="utf-8"?>
<svg version="1.1" id="Layer_1"
xmlns="http://www.w3.org/2000/svg"
xmlns:xlink="http://www.w3.org/1999/xlink"
width="26px" height="25px"
xml:space="preserve">
<g id="PathID_2360" transform="matrix(1, 0, 0, 1, 0.15, 0.15)">
<path style="fill:#808080;fill-opacity:1" d="M23.8 3.7L22.95 1.95L23.45 2.15L24.15 0.65L25.2 2.15L23.8 3.7M16.85 5.85Q14.15 0.8 11.9 0.25L14.55 0L18.55 0.4Q19.65 1.35 20.05 5.65L16.85 5.85M14.35 9L14 8L14.35 9Q9.9 8.3 6 9.15Q6 8.25 6.65 5.95L7.25 3.85Q8.85 3.7 11.7 5.35Q14.15 6.8 14.55 7.5L14.35 9M7.5 13.6Q9.5 12.8 11.65 12.55L17.2 12.9L19.6 15.5Q16.75 15.75 13.8 16.5Q8.85 15.45 7.5 13.6" />
<path style="fill:#4F4943;fill-opacity:1" d="M25.2 2.15L25.55 3.2L24.9 4.4L23.8 5.85Q24.1 4.85 23.8 3.7L25.2 2.15M20.05 5.65L19.65 7.6L17 8.15L16.85 5.85L20.05 5.65M14.55 7.5L15.15 9.05L14.65 9.75L14.6 9.8L14.35 9L14.55 7.5M6 9.15L0.3 11.45Q0.95 9.4 2.35 7.15Q3.3 5.55 4.7 4.3L7.25 3.85L6.65 5.95Q6 8.25 6 9.15M13.8 16.5Q12.45 16.8 8.05 19.2Q2.75 22.15 2.2 24.05L0.8 21.4L0 19Q3.4 15.15 7.5 13.6Q8.85 15.45 13.8 16.5" />
<path style="fill:none;stroke-width:0.7;stroke-linecap:round;stroke-linejoin:round;stroke-miterlimit:3;stroke:#000000;stroke-opacity:0.4" d="M22.95 1.95L23.45 2.15L24.15 0.65" />
<path style="fill:none;stroke-width:0.7;stroke-linecap:round;stroke-linejoin:round;stroke-miterlimit:3;stroke:#000000;stroke-opacity:0.4" d="M25.55 3.2L24.9 4.4L23.8 5.85" />
<path style="fill:none;stroke-width:0.7;stroke-linecap:round;stroke-linejoin:round;stroke-miterlimit:3;stroke:#000000;stroke-opacity:0.4" d="M19.65 7.6L17 8.15" />
<path style="fill:none;stroke-width:0.7;stroke-linecap:round;stroke-linejoin:round;stroke-miterlimit:3;stroke:#000000;stroke-opacity:0.4" d="M11.9 0.25L14.55 0L18.55 0.4" />
<path style="fill:none;stroke-width:0.7;stroke-linecap:round;stroke-linejoin:round;stroke-miterlimit:3;stroke:#000000;stroke-opacity:0.4" d="M15.15 9.05L14.65 9.75" />
<path style="fill:none;stroke-width:0.7;stroke-linecap:round;stroke-linejoin:round;stroke-miterlimit:3;stroke:#000000;stroke-opacity:0.4" d="M0.3 11.45Q0.95 9.4 2.35 7.15Q3.3 5.55 4.7 4.3" />
<path style="fill:none;stroke-width:0.7;stroke-linecap:round;stroke-linejoin:round;stroke-miterlimit:3;stroke:#000000;stroke-opacity:0.4" d="M14.35 9L14 8" />
<path style="fill:none;stroke-width:0.7;stroke-linecap:round;stroke-linejoin:round;stroke-miterlimit:3;stroke:#000000;stroke-opacity:0.4" d="M2.2 24.05L0.8 21.4L0 19" />
<path style="fill:none;stroke-width:0.7;stroke-linecap:round;stroke-linejoin:round;stroke-miterlimit:3;stroke:#000000;stroke-opacity:0.4" d="M17.2 12.9L19.6 15.5" />
</g>
</svg>
