<?xml version="1.0" encoding="utf-8"?>
<svg version="1.1" id="Layer_1"
xmlns="http://www.w3.org/2000/svg"
xmlns:xlink="http://www.w3.org/1999/xlink"
width="16px" height="20px"
xml:space="preserve">
<g id="PathID_2652" transform="matrix(1, 0, 0, 1, 7.65, 10)">
<path style="fill:#808080;fill-opacity:1" d="M1.95 -6.2Q4.25 -2.95 4.9 1.75L5.05 3.25L5.1 4.1L5 6.45Q4.85 8.1 3.75 9.8L2.95 7.55Q3.4 6.2 3.45 4.05Q3.55 -0.35 1.5 -4.3Q0 -7.2 -2.95 -8.5Q-5.65 -9.75 -7.5 -9Q-6.45 -10.1 -3.9 -9.8Q-2 -9.6 -0.2 -8.55L1.95 -6.2" />
<path style="fill:#665B5B;fill-opacity:1" d="M3.75 9.8Q4.85 8.1 5 6.45L5.1 4.1L5.05 3.25L4.9 1.75Q4.25 -2.95 1.95 -6.2L-0.2 -8.55L1.9 -7Q5.7 -3.6 6.95 0.65Q7.6 2.9 7.5 5.7L7.25 8.3L7 9.55L3.75 9.85L3.75 9.8" />
<path style="fill:none;stroke-width:0.7;stroke-linecap:round;stroke-linejoin:round;stroke-miterlimit:3;stroke:#000000;stroke-opacity:0.301961" d="M-0.2 -8.55Q-2 -9.6 -3.9 -9.8Q-6.45 -10.1 -7.5 -9Q-5.65 -9.75 -2.95 -8.5Q0 -7.2 1.5 -4.3Q3.55 -0.35 3.45 4.05Q3.4 6.2 2.95 7.55L3.75 9.8" />
<path style="fill:none;stroke-width:0.7;stroke-linecap:round;stroke-linejoin:round;stroke-miterlimit:3;stroke:#000000;stroke-opacity:0.2" d="M3.75 9.8Q4.85 8.1 5 6.45L5.1 4.1L5.05 3.25" />
<path style="fill:none;stroke-width:0.7;stroke-linecap:round;stroke-linejoin:round;stroke-miterlimit:3;stroke:#000000;stroke-opacity:0.301961" d="M-0.2 -8.55L1.9 -7Q5.7 -3.6 6.95 0.65Q7.6 2.9 7.5 5.7L7.25 8.3L7 9.55L3.75 9.85L3.75 9.8" />
</g>
</svg>
