<?xml version="1.0" encoding="utf-8"?>
<svg version="1.1" id="Layer_1"
xmlns="http://www.w3.org/2000/svg"
xmlns:xlink="http://www.w3.org/1999/xlink"
width="28px" height="22px"
xml:space="preserve">
<g id="PathID_1712" transform="matrix(1, 0, 0, 1, 0.15, 0.15)">
<path style="fill:#808080;fill-opacity:1" d="M26.25 2.35L26.8 3.6L26.9 4.15L27.05 5.7L26.7 7.95Q26.35 9.3 25.9 9.7L24.7 10.5L23.3 10.9L16.4 10.1L12.1 8.5L10.9 8.75Q10.1 9.4 8.65 12.6Q8.35 13.25 8.7 14.85L9.2 16.5L8.35 16.6L8.15 16.45L7.35 16.1L6.6 18.6L5.25 17.65L5.9 18.75L5.4 19.15L4.65 19.5L3.2 19.2Q2.4 18.8 2.2 18.2L0 20.85L0.95 17.95L1.55 15.4L4.15 17.35L3.85 15.8L3.55 14.05L3.9 12.8L3.65 10.75Q3.7 9.95 4.1 8.3L5.55 3.65Q6.3 2.2 6.7 2.15L6.75 2.15Q7.55 1.6 9.6 0.85L10.65 0.45L13.15 0L15.2 0.05L18.7 1.75L20.55 2.25L21.15 2.3L22.05 2.15L24.35 1.85L25.65 1.95L26.25 2.35M21.35 7.7L21.2 6.8L20.05 7.4L17.85 7.7Q15.55 7.9 13.4 7.05L12.6 6.75Q13.15 7.35 14.15 7.85Q16.1 8.95 18.4 8.95L20.5 8.9L23.15 8.75L24.6 8.4L25.8 7.6L26.7 6.75L24.85 7.6L23.8 7.75Q23.25 7.75 23.2 7.55L23.15 6.85Q22.45 7.6 21.35 7.7" />
<path style="fill:#A1A1A1;fill-opacity:1" d="M23.15 6.85L23.2 7.55Q23.25 7.75 23.8 7.75L24.85 7.6L26.7 6.75L25.8 7.6L24.6 8.4L23.15 8.75L20.5 8.9L18.4 8.95Q16.1 8.95 14.15 7.85Q13.15 7.35 12.6 6.75L13.4 7.05Q15.55 7.9 17.85 7.7L20.05 7.4L21.2 6.8L21.35 7.7Q22.45 7.6 23.15 6.85" />
<path style="fill:none;stroke-width:0.7;stroke-linecap:round;stroke-linejoin:round;stroke-miterlimit:3;stroke:#000000;stroke-opacity:0.4" d="M26.25 2.35L26.8 3.6L26.9 4.15L27.05 5.7L26.7 7.95Q26.35 9.3 25.9 9.7L24.7 10.5L23.3 10.9L16.4 10.1L12.1 8.5L10.9 8.75Q10.1 9.4 8.65 12.6Q8.35 13.25 8.7 14.85L9.2 16.5L8.35 16.6L8.15 16.45L7.35 16.1L6.6 18.6L5.25 17.65L5.9 18.75L5.4 19.15L4.65 19.5L3.2 19.2Q2.4 18.8 2.2 18.2L0 20.85L0.95 17.95L1.55 15.4L4.15 17.35L3.85 15.8L3.55 14.05L3.9 12.8L3.65 10.75Q3.7 9.95 4.1 8.3L5.55 3.65Q6.3 2.2 6.7 2.15L6.75 2.15Q7.55 1.6 9.6 0.85L10.65 0.45L13.15 0L15.2 0.05L18.7 1.75L20.55 2.25L21.15 2.3L22.05 2.15L24.35 1.85L25.65 1.95L26.25 2.35z" />
</g>
</svg>
