<?xml version="1.0" encoding="utf-8"?>
<svg version="1.1" id="Layer_1"
xmlns="http://www.w3.org/2000/svg"
xmlns:xlink="http://www.w3.org/1999/xlink"
width="4px" height="4px"
xml:space="preserve">
<g id="PathID_1632" transform="matrix(1, 0, 0, 1, 0.15, 0.15)">
<path style="fill:#808080;fill-opacity:1" d="M1.95 2.25Q1.1 2.45 0 1.5Q0.15 1.3 1.55 1.05L2.95 1.5Q3.3 2.25 3.15 2.75L1.95 2.25M0.95 0.65L0.65 0.15L1.35 0Q2.15 0 2.95 1.5L1.55 1.05L0.95 0.65M3.15 2.75L2.2 3.5L1.95 2.25L2.95 1.5" />
<path style="fill:none;stroke-width:0.7;stroke-linecap:round;stroke-linejoin:round;stroke-miterlimit:3;stroke:#000000;stroke-opacity:0.4" d="M1.55 1.05L2.95 1.5Q2.15 0 1.35 0L0.65 0.15L0.95 0.65L1.55 1.05Q0.15 1.3 0 1.5Q1.1 2.45 1.95 2.25L2.95 1.5Q3.3 2.25 3.15 2.75L2.2 3.5L1.95 2.25" />
</g>
</svg>
