<?xml version="1.0" encoding="utf-8"?>
<svg version="1.1" id="Layer_1"
xmlns="http://www.w3.org/2000/svg"
xmlns:xlink="http://www.w3.org/1999/xlink"
width="27px" height="9px"
xml:space="preserve">
<g id="PathID_2683" transform="matrix(1, 0, 0, 1, 13.3, 4.15)">
<linearGradient
id="LinearGradID_785" gradientUnits="userSpaceOnUse" gradientTransform="matrix(0.00253296, -0.00518799, 0.0145721, 0.00712585, -0.35, 0.75)" spreadMethod ="pad" x1="-819.2" y1="0" x2="819.2" y2="0" >
<stop  offset="0" style="stop-color:#848484;stop-opacity:1" />
<stop  offset="0.6" style="stop-color:#A5A5A5;stop-opacity:1" />
<stop  offset="0.878431" style="stop-color:#808080;stop-opacity:1" />
<stop  offset="1" style="stop-color:#606060;stop-opacity:1" />
</linearGradient>
<path style="fill:url(#LinearGradID_785) " d="M8.55 0.95L9.85 0.2Q13.55 1.95 13.3 3.15Q13.05 4.3 8.95 4.2Q4.9 4.15 -0.65 2.9Q-6.2 1.6 -9.9 -0.15Q-11.75 -1 -12.6 -1.7L-9.7 -1.5L-9.2 -1.55L-7.15 -0.4Q-4.55 0.8 -0.55 1.75L6.35 2.8Q9.3 2.9 9.5 2.15Q9.6 1.65 8.55 0.95" />
<path style="fill:#8C8C8C;fill-opacity:1" d="M9.5 2.15Q9.3 2.9 6.35 2.8L-0.55 1.75Q-4.55 0.8 -7.15 -0.4L-9.2 -1.55L-7.75 -1.8L-7.7 -1.65Q-5.85 -0.55 -2.65 0.5Q2.2 2.1 6.7 2L8.55 0.95Q9.6 1.65 9.5 2.15" />
<path style="fill:#606060;fill-opacity:1" d="M-9.2 -1.55Q-9.65 -2 -9.55 -2.35Q-9.45 -2.85 -8.05 -3Q-9.45 -2.85 -9.55 -2.35Q-9.65 -2 -9.2 -1.55L-9.7 -1.5L-12.6 -1.7Q-13.4 -2.4 -13.3 -3Q-13.05 -4.15 -9 -4.15L-8.2 -4.1L-8.05 -3L-7.75 -1.8L-9.2 -1.55" />
<path style="fill:none;stroke-width:0.7;stroke-linecap:round;stroke-linejoin:round;stroke-miterlimit:3;stroke:#000000;stroke-opacity:0.301961" d="M-12.6 -1.7Q-13.4 -2.4 -13.3 -3Q-13.05 -4.15 -9 -4.15L-8.2 -4.1L-8.05 -3L-7.75 -1.8L-7.7 -1.65Q-5.85 -0.55 -2.65 0.5Q2.2 2.1 6.7 2L8.55 0.95L9.85 0.2Q13.55 1.95 13.3 3.15Q13.05 4.3 8.95 4.2Q4.9 4.15 -0.65 2.9Q-6.2 1.6 -9.9 -0.15Q-11.75 -1 -12.6 -1.7z" />
<path style="fill:none;stroke-width:0.7;stroke-linecap:round;stroke-linejoin:round;stroke-miterlimit:3;stroke:#000000;stroke-opacity:0.2" d="M-9.2 -1.55Q-9.65 -2 -9.55 -2.35Q-9.45 -2.85 -8.05 -3" />
<path style="fill:none;stroke-width:0.7;stroke-linecap:round;stroke-linejoin:round;stroke-miterlimit:3;stroke:#000000;stroke-opacity:0.101961" d="M-9.2 -1.55L-7.15 -0.4Q-4.55 0.8 -0.55 1.75L6.35 2.8Q9.3 2.9 9.5 2.15Q9.6 1.65 8.55 0.95" />
</g>
</svg>
